<?xml version="1.0" encoding="iso-8859-1"?>
<!-- Generator: Adobe Illustrator 19.0.0, SVG Export Plug-In . SVG Version: 6.00 Build 0)  -->
<svg version="1.1" id="Layer_1" xmlns="http://www.w3.org/2000/svg" xmlns:xlink="http://www.w3.org/1999/xlink" x="0px" y="0px"
	 viewBox="0 0 512.013 512.013" style="enable-background:new 0 0 512.013 512.013;" xml:space="preserve">
<rect x="387.889" y="51.715" transform="matrix(-0.7071 -0.7071 0.7071 -0.7071 626.8419 464.4458)" style="fill:#AEADB3;" width="43.444" height="101.369"/>
<rect x="406.422" y="59.407" transform="matrix(-0.7071 -0.7071 0.7071 -0.7071 634.4996 483.0018)" style="fill:#828186;" width="21.722" height="101.369"/>
<rect x="49.966" y="360.684" transform="matrix(-0.7071 -0.7071 0.7071 -0.7071 -188.9813 802.3838)" style="fill:#DFDFE1;" width="43.444" height="159.295"/>
<rect x="68.52" y="368.367" transform="matrix(-0.7071 -0.7071 0.7071 -0.7071 -181.2817 820.939)" style="fill:#CFCDD2;" width="21.722" height="159.295"/>
<rect x="192.96" y="72.858" transform="matrix(-0.7071 -0.7071 0.7071 -0.7071 243.6519 623.1553)" style="fill:#DFDFE1;" width="115.851" height="376.515"/>
<rect x="242.4" y="93.33" transform="matrix(-0.7071 -0.7071 0.7071 -0.7071 264.132 672.5828)" style="fill:#CFCDD2;" width="57.925" height="376.515"/>
<rect x="141.77" y="196.482" transform="matrix(-0.7071 -0.7071 0.7071 -0.7071 120.0483 674.3906)" style="fill:#98C8ED;" width="115.851" height="231.701"/>
<rect x="191.209" y="216.954" transform="matrix(-0.7071 -0.7071 0.7071 -0.7071 140.5284 723.818)" style="fill:#7AB9E8;" width="57.925" height="231.701"/>
<rect x="373.032" y="44.837" transform="matrix(-0.7071 -0.7071 0.7071 -0.7071 713.3477 428.5964)" style="fill:#CFCDD2;" width="144.813" height="43.444"/>
<rect x="434.841" y="70.443" transform="matrix(-0.7071 -0.7071 0.7071 -0.7071 738.9528 490.4136)" style="fill:#AEADB3;" width="72.407" height="43.444"/>
<g>
	
		<rect x="140.009" y="280.362" transform="matrix(-0.7071 -0.7071 0.7071 -0.7071 74.8472 635.171)" style="fill:#579ADF;" width="57.925" height="43.444"/>
	
		<rect x="208.688" y="211.67" transform="matrix(0.7071 -0.7071 0.7071 0.7071 -102.6674 233.4041)" style="fill:#579ADF;" width="43.444" height="57.925"/>
</g>
<rect x="262.898" y="157.477" transform="matrix(-0.7071 -0.7071 0.7071 -0.7071 371.5241 512.2875)" style="fill:#AEADB3;" width="57.925" height="43.444"/>
<g>
</g>
<g>
</g>
<g>
</g>
<g>
</g>
<g>
</g>
<g>
</g>
<g>
</g>
<g>
</g>
<g>
</g>
<g>
</g>
<g>
</g>
<g>
</g>
<g>
</g>
<g>
</g>
<g>
</g>
</svg>
