<?xml version="1.0" encoding="iso-8859-1"?>
<!-- Generator: Adobe Illustrator 19.0.0, SVG Export Plug-In . SVG Version: 6.00 Build 0)  -->
<svg version="1.1" id="Layer_1" xmlns="http://www.w3.org/2000/svg" xmlns:xlink="http://www.w3.org/1999/xlink" x="0px" y="0px"
	 viewBox="0 0 512 512" style="enable-background:new 0 0 512 512;" xml:space="preserve">
<path style="fill:#828186;" d="M278.261,155.826h-44.522c0-38.924,14.904-77.636,41.966-109.009C300.995,17.501,332.463,0,359.884,0
	v44.522C332.661,44.522,278.261,92.641,278.261,155.826z"/>
<path style="fill:#FF4F19;" d="M359.884,96.464c-41.962,0-79.399,19.357-103.884,49.621
	c-24.487-30.264-61.922-49.621-103.884-49.621c-73.767,0-133.565,59.797-133.565,133.565C18.551,394.087,98.203,512,196.638,512
	c29.681,0,29.681-14.841,59.362-14.841c29.681,0,29.681,14.841,59.362,14.841c98.435,0,178.087-117.913,178.087-281.971
	C493.449,156.261,433.651,96.464,359.884,96.464z"/>
<path style="fill:#FC0023;" d="M359.884,96.464c-41.962,0-79.399,19.357-103.884,49.621v351.075
	c29.681,0,29.681,14.841,59.362,14.841c98.435,0,178.087-117.913,178.087-281.971C493.449,156.261,433.651,96.464,359.884,96.464z"
	/>
<g>
</g>
<g>
</g>
<g>
</g>
<g>
</g>
<g>
</g>
<g>
</g>
<g>
</g>
<g>
</g>
<g>
</g>
<g>
</g>
<g>
</g>
<g>
</g>
<g>
</g>
<g>
</g>
<g>
</g>
</svg>
