<?xml version="1.0" encoding="iso-8859-1"?>
<!-- Generator: Adobe Illustrator 19.0.0, SVG Export Plug-In . SVG Version: 6.00 Build 0)  -->
<svg version="1.1" id="Layer_1" xmlns="http://www.w3.org/2000/svg" xmlns:xlink="http://www.w3.org/1999/xlink" x="0px" y="0px"
	 viewBox="0 0 512 512" style="enable-background:new 0 0 512 512;" xml:space="preserve">
<polygon style="fill:#DFDFE1;" points="24.976,62.439 24.976,412.098 274.732,412.098 374.634,312.195 374.634,62.439 "/>
<polygon style="fill:#CFCDD2;" points="199.805,62.439 199.805,412.098 274.732,412.098 374.634,312.195 374.634,62.439 "/>
<rect x="24.976" y="62.439" style="fill:#FF4F19;" width="349.659" height="124.878"/>
<rect x="199.805" y="62.439" style="fill:#FC0023;" width="174.829" height="124.878"/>
<path style="fill:#AEADB3;" d="M124.878,0H87.415v102.169c-3.872,4.402-6.244,10.155-6.244,16.465
	c0,13.772,11.204,24.976,24.976,24.976s24.976-11.204,24.976-24.976c0-6.31-2.37-12.063-6.244-16.465V0z"/>
<path style="fill:#828186;" d="M312.195,102.169V0h-37.463v102.169c-3.874,4.401-6.244,10.155-6.244,16.465
	c0,13.772,11.204,24.976,24.976,24.976s24.976-11.204,24.976-24.976C318.439,112.324,316.069,106.571,312.195,102.169z"/>
<g>
	<rect x="106.146" y="243.512" style="fill:#AEADB3;" width="37.463" height="37.463"/>
	<rect x="181.073" y="243.512" style="fill:#AEADB3;" width="37.463" height="37.463"/>
</g>
<rect x="256" y="243.512" style="fill:#828186;" width="37.463" height="37.463"/>
<g>
	<rect x="106.146" y="318.439" style="fill:#AEADB3;" width="37.463" height="37.463"/>
	<rect x="181.073" y="318.439" style="fill:#AEADB3;" width="37.463" height="37.463"/>
</g>
<g>
	<rect x="199.805" y="243.512" style="fill:#828186;" width="18.732" height="37.463"/>
	<rect x="199.805" y="318.439" style="fill:#828186;" width="18.732" height="37.463"/>
</g>
<path style="fill:#DFDFE1;" d="M449.561,299.707c-34.341,0-34.341,6.244-68.683,6.244s-34.341-6.244-68.683-6.244
	c-20.69,0-37.463,16.774-37.463,37.463v74.927c0,24.976,37.463,40.585,37.463,65.561l0,0c0,18.966,15.376,34.341,34.341,34.341
	s34.341-15.375,34.341-34.341c0,18.966,15.376,34.341,34.341,34.341s34.341-15.375,34.341-34.341l0,0
	c0-24.976,37.463-40.585,37.463-65.561v-74.927C487.024,316.481,470.252,299.707,449.561,299.707z"/>
<path style="fill:#CFCDD2;" d="M449.561,299.707c-34.341,0-34.341,6.244-68.683,6.244v171.707c0,18.966,15.376,34.341,34.341,34.341
	s34.341-15.375,34.341-34.341c0-24.976,37.463-40.585,37.463-65.561v-74.927C487.024,316.481,470.252,299.707,449.561,299.707z"/>
<g>
</g>
<g>
</g>
<g>
</g>
<g>
</g>
<g>
</g>
<g>
</g>
<g>
</g>
<g>
</g>
<g>
</g>
<g>
</g>
<g>
</g>
<g>
</g>
<g>
</g>
<g>
</g>
<g>
</g>
</svg>
