<?xml version="1.0" encoding="iso-8859-1"?>
<!-- Generator: Adobe Illustrator 19.0.0, SVG Export Plug-In . SVG Version: 6.00 Build 0)  -->
<svg version="1.1" id="Layer_1" xmlns="http://www.w3.org/2000/svg" xmlns:xlink="http://www.w3.org/1999/xlink" x="0px" y="0px"
	 viewBox="0 0 512 512" style="enable-background:new 0 0 512 512;" xml:space="preserve">
<path style="fill:#FFAF33;" d="M463.238,128H48.762c-20.197,0-36.571,16.374-36.571,36.571v36.571
	c0,13.077,6.863,24.552,17.186,31.016h7.195v115.27h438.857V232.157h7.198c10.32-6.465,17.182-17.938,17.182-31.014v-36.571
	C499.81,144.374,483.435,128,463.238,128z"/>
<path style="fill:#FF9800;" d="M463.238,128H256v219.429h219.429V232.157h7.198c10.32-6.465,17.182-17.938,17.182-31.014v-36.571
	C499.81,144.374,483.435,128,463.238,128z"/>
<path style="fill:#DFDFE1;" d="M0,359.619c0-53.861,12.19-158.476,85.333-158.476s85.333,104.615,85.333,158.476
	c0,13.477-10.904,24.381-24.381,24.381H24.381C10.904,384,0,373.096,0,359.619z"/>
<path style="fill:#CFCDD2;" d="M85.333,201.143V384h60.952c13.477,0,24.381-10.904,24.381-24.381
	C170.667,305.758,158.476,201.143,85.333,201.143z"/>
<path style="fill:#DFDFE1;" d="M170.667,359.619c0-53.861,12.19-158.476,85.333-158.476s85.333,104.615,85.333,158.476
	c0,13.477-10.904,24.381-24.381,24.381H195.048C181.571,384,170.667,373.096,170.667,359.619z"/>
<path style="fill:#CFCDD2;" d="M256,201.143V384h60.952c13.477,0,24.381-10.904,24.381-24.381
	C341.333,305.758,329.143,201.143,256,201.143z"/>
<path style="fill:#DFDFE1;" d="M341.333,359.619c0-53.861,12.19-158.476,85.333-158.476S512,305.758,512,359.619
	C512,373.096,501.096,384,487.619,384H365.714C352.238,384,341.333,373.096,341.333,359.619z"/>
<path style="fill:#CFCDD2;" d="M426.667,201.143V384h60.952C501.096,384,512,373.096,512,359.619
	C512,305.758,499.81,201.143,426.667,201.143z"/>
<path style="fill:#AEADB3;" d="M512,286.476h-69.26c-4.296-3.781-9.913-6.095-16.073-6.095s-11.776,2.314-16.073,6.095h-138.52
	c-4.296-3.781-9.913-6.095-16.073-6.095c-6.16,0-11.776,2.314-16.073,6.095h-138.52c-4.296-3.781-9.913-6.095-16.073-6.095
	c-6.16,0-11.776,2.314-16.073,6.095H0v36.571h69.26c4.296,3.781,9.913,6.095,16.073,6.095s11.776-2.314,16.073-6.095h138.522
	c4.296,3.781,9.913,6.095,16.073,6.095c6.16,0,11.776-2.314,16.073-6.095h138.522c4.296,3.781,9.913,6.095,16.073,6.095
	s11.776-2.314,16.073-6.095H512V286.476z"/>
<path style="fill:#828186;" d="M442.74,286.476c-4.296-3.781-9.913-6.095-16.073-6.095s-11.776,2.314-16.073,6.095h-138.52
	c-4.296-3.781-9.913-6.095-16.073-6.095v48.762c6.16,0,11.776-2.314,16.073-6.095h138.522c4.296,3.781,9.913,6.095,16.073,6.095
	s11.776-2.314,16.073-6.095H512v-36.571H442.74z"/>
<g>
</g>
<g>
</g>
<g>
</g>
<g>
</g>
<g>
</g>
<g>
</g>
<g>
</g>
<g>
</g>
<g>
</g>
<g>
</g>
<g>
</g>
<g>
</g>
<g>
</g>
<g>
</g>
<g>
</g>
</svg>
