<?xml version="1.0" encoding="iso-8859-1"?>
<!-- Generator: Adobe Illustrator 19.0.0, SVG Export Plug-In . SVG Version: 6.00 Build 0)  -->
<svg version="1.1" id="Layer_1" xmlns="http://www.w3.org/2000/svg" xmlns:xlink="http://www.w3.org/1999/xlink" x="0px" y="0px"
	 viewBox="0 0 512 512" style="enable-background:new 0 0 512 512;" xml:space="preserve">
<path style="fill:#DFDFE1;" d="M416,456c0,30.928-25.072,56-56,56s-56-25.072-56-56v-40c0-26.509-21.491-48-48-48s-48,21.491-48,48
	v40c0,30.928-25.072,56-56,56s-56-25.072-56-56v-48c0-64-80-104-80-168V80C16,35.818,51.818,0,96,0s80,35.818,80,80
	c0-44.182,35.818-80,80-80s80,35.818,80,80c0-44.182,35.818-80,80-80s80,35.818,80,80v160c0,64-80,104-80,168V456z"/>
<path style="fill:#CFCDD2;" d="M416,0c-44.182,0-80,35.818-80,80c0-44.182-35.818-80-80-80v368c26.509,0,48,21.491,48,48v40
	c0,30.928,25.072,56,56,56s56-25.072,56-56v-48c0-64,80-104,80-168V80C496,35.818,460.182,0,416,0z"/>
<path style="fill:#AEADB3;" d="M254.832,136l56.754-113.506C300.064,11.355,285.214,3.64,268.664,1.008L177.166,184h128
	l-46.634,93.267l42.933,21.466L382.832,136H254.832z"/>
<g>
	<polygon style="fill:#828186;" points="256,136 256,133.666 254.832,136 	"/>
	<path style="fill:#828186;" d="M256,133.666l55.586-111.171C300.064,11.355,285.214,3.64,268.664,1.008L256,26.334V133.666z"/>
	<polygon style="fill:#828186;" points="305.166,184 258.533,277.267 301.466,298.733 382.832,136 256,136 256,184 	"/>
</g>
<g>
</g>
<g>
</g>
<g>
</g>
<g>
</g>
<g>
</g>
<g>
</g>
<g>
</g>
<g>
</g>
<g>
</g>
<g>
</g>
<g>
</g>
<g>
</g>
<g>
</g>
<g>
</g>
<g>
</g>
</svg>
