<?xml version="1.0" encoding="iso-8859-1"?>
<!-- Generator: Adobe Illustrator 19.0.0, SVG Export Plug-In . SVG Version: 6.00 Build 0)  -->
<svg version="1.1" id="Layer_1" xmlns="http://www.w3.org/2000/svg" xmlns:xlink="http://www.w3.org/1999/xlink" x="0px" y="0px"
	 viewBox="0 0 512 512" style="enable-background:new 0 0 512 512;" xml:space="preserve">
<path style="fill:#DFDFE1;" d="M442.019,430.952c0,27.055-21.932,48.987-48.987,48.987c-27.055,0-48.987-21.932-48.987-48.987
	v-34.99c0-23.189-18.8-41.989-41.989-41.989c-23.189,0-41.989,18.8-41.989,41.989v34.99c0,27.055-21.932,48.987-48.987,48.987
	s-48.987-21.932-48.987-48.987v-41.989c0-55.985-69.981-90.975-69.981-146.96V102.042c0-38.649,31.332-69.981,69.981-69.981
	s69.981,31.332,69.981,69.981c0-38.649,31.332-69.981,69.981-69.981s69.981,31.332,69.981,69.981
	c0-38.649,31.332-69.981,69.981-69.981S512,63.393,512,102.042v139.962c0,55.985-69.981,90.975-69.981,146.96V430.952z"/>
<path style="fill:#CFCDD2;" d="M442.019,32.061c-38.649,0-69.981,31.332-69.981,69.981c0-38.649-31.332-69.981-69.981-69.981
	v321.912c23.189,0,41.989,18.8,41.989,41.989v34.99c0,27.055,21.932,48.987,48.987,48.987c27.055,0,48.987-21.932,48.987-48.987
	v-41.989c0-55.985,69.981-90.975,69.981-146.96V102.042C512,63.393,480.67,32.061,442.019,32.061z"/>
<circle style="fill:#98C8ED;" cx="196.8" cy="283.143" r="102.802"/>
<path style="fill:#7AB9E8;" d="M124.104,355.836c18.602,18.602,44.304,30.11,72.692,30.11c56.776,0,102.802-46.026,102.802-102.802
	c0-28.388-11.506-54.09-30.111-72.693L124.104,355.836z"/>
<path style="fill:#AEADB3;" d="M196.795,150.18c-73.318,0-132.964,59.648-132.964,132.964c0,29.098,9.403,56.036,25.319,77.955
	L0,450.249l29.69,29.69l89.15-89.15c21.917,15.916,48.856,25.319,77.955,25.319c73.318,0,132.964-59.648,132.964-132.964
	S270.112,150.18,196.795,150.18z M196.795,374.119c-50.164,0-90.975-40.811-90.975-90.975s40.811-90.975,90.975-90.975
	s90.975,40.811,90.975,90.975S246.958,374.119,196.795,374.119z"/>
<path style="fill:#828186;" d="M290.771,189.168l-29.676,29.676c16.474,16.474,26.677,39.217,26.677,64.298
	c0,50.164-40.811,90.975-90.975,90.975c-25.083,0-47.826-10.203-64.298-26.677L14.846,465.093l14.844,14.844l89.15-89.15
	c21.917,15.916,48.856,25.319,77.955,25.319c73.318,0,132.964-59.648,132.964-132.964
	C329.758,246.485,314.847,213.244,290.771,189.168z"/>
<g>
</g>
<g>
</g>
<g>
</g>
<g>
</g>
<g>
</g>
<g>
</g>
<g>
</g>
<g>
</g>
<g>
</g>
<g>
</g>
<g>
</g>
<g>
</g>
<g>
</g>
<g>
</g>
<g>
</g>
</svg>
