<?xml version="1.0" encoding="iso-8859-1"?>
<!-- Generator: Adobe Illustrator 19.0.0, SVG Export Plug-In . SVG Version: 6.00 Build 0)  -->
<svg version="1.1" id="Layer_1" xmlns="http://www.w3.org/2000/svg" xmlns:xlink="http://www.w3.org/1999/xlink" x="0px" y="0px"
	 viewBox="0 0 512.001 512.001" style="enable-background:new 0 0 512.001 512.001;" xml:space="preserve">
<path style="fill:#CFCDD2;" d="M316.108,130.319h-50.829c-7.615-37.367-40.732-65.572-80.315-65.572v32.786
	c27.117,0,49.179,22.062,49.179,49.179v109.287h32.786v-92.894h49.179V130.319z"/>
<path style="fill:#AEADB3;" d="M265.279,130.319c-2.461-12.076-7.598-23.185-14.743-32.704v158.384h16.393v-92.894h60.108v-32.786
	C327.037,130.319,265.279,130.319,265.279,130.319z"/>
<path style="fill:#DFDFE1;" d="M381.688,321.571v-10.929H119.4v10.929h-0.008c29.907,39.815,77.52,65.572,131.152,65.572
	c53.63,0,101.244-25.757,131.152-65.572H381.688z"/>
<path style="fill:#CFCDD2;" d="M381.688,321.571v-10.929H250.536v76.501c0.002,0,0.005,0,0.008,0
	c53.63,0,101.244-25.757,131.152-65.572H381.688z"/>
<path style="fill:#98C8ED;" d="M500.798,321.571l-54.095-54.095c-22.406-22.406-43.166-22.406-54.095-22.406H119.392l-54.095-54.094
	c-14.937-14.937-39.156-14.937-54.095,0c-14.937,14.937-14.937,39.156,0,54.094l54.095,54.094
	c13.661,13.66,23.858,22.407,54.095,22.407h273.216l54.095,54.095c14.937,14.937,39.156,14.937,54.094,0
	C515.735,360.727,515.735,336.508,500.798,321.571z"/>
<g>
	<circle style="fill:#DFDFE1;" cx="152.183" cy="81.144" r="43.715"/>
	<rect x="316.112" y="113.93" style="fill:#DFDFE1;" width="98.358" height="65.572"/>
</g>
<path style="fill:#CFCDD2;" d="M327.037,398.07c-32.027-12.987-76.501-10.929-76.501-10.929v54.644H97.535v32.786l306.002-0.001
	v-43.715C403.537,430.856,377.665,418.6,327.037,398.07z"/>
<path style="fill:#7AB9E8;" d="M500.798,321.571l-54.095-54.095c-22.406-22.406-43.166-22.406-54.095-22.406H250.536v76.501h142.073
	l54.095,54.095c14.937,14.937,39.156,14.937,54.094,0C515.735,360.727,515.735,336.508,500.798,321.571z"/>
<g>
</g>
<g>
</g>
<g>
</g>
<g>
</g>
<g>
</g>
<g>
</g>
<g>
</g>
<g>
</g>
<g>
</g>
<g>
</g>
<g>
</g>
<g>
</g>
<g>
</g>
<g>
</g>
<g>
</g>
</svg>
