<?xml version="1.0" encoding="iso-8859-1"?>
<!-- Generator: Adobe Illustrator 19.0.0, SVG Export Plug-In . SVG Version: 6.00 Build 0)  -->
<svg version="1.1" id="Layer_1" xmlns="http://www.w3.org/2000/svg" xmlns:xlink="http://www.w3.org/1999/xlink" x="0px" y="0px"
	 viewBox="0 0 511.999 511.999" style="enable-background:new 0 0 511.999 511.999;" xml:space="preserve">
<rect x="456.38" y="117.298" transform="matrix(0.7071 -0.7071 0.7071 0.7071 33.6582 380.1034)" style="fill:#CFCDD2;" width="38.549" height="64.249"/>
<path style="fill:#AEADB3;" d="M0,425.194l27.258-27.258c25.051,25.049,65.81,25.051,90.862,0l27.258,27.258
	C105.297,465.275,40.08,465.275,0,425.194z"/>
<path style="fill:#CFCDD2;" d="M486.113,57.204c-15.055-15.055-39.464-15.054-54.518,0L286.217,202.583l54.517,54.517
	l145.38-145.378C501.166,96.667,501.166,72.259,486.113,57.204z"/>
<path style="fill:#AEADB3;" d="M486.114,111.722c15.054-15.055,15.054-39.463-0.001-54.518l-172.639,172.64l27.257,27.258
	L486.114,111.722z"/>
<path style="fill:#DFDFE1;" d="M331.649,211.669c-25.093-25.089-65.773-25.091-90.864-0.001L77.233,375.223l90.864,90.862
	l163.553-163.551C356.738,277.441,356.738,236.761,331.649,211.669z"/>
<path style="fill:#CFCDD2;" d="M331.649,302.533c25.089-25.092,25.089-65.773,0-90.864L122.664,420.652l45.432,45.433
	L331.649,302.533z"/>
<rect x="352.17" y="133.324" transform="matrix(-0.7071 -0.7071 0.7071 -0.7071 559.0951 536.7811)" style="fill:#98C8ED;" width="77.097" height="38.549"/>
<rect x="385.082" y="146.955" transform="matrix(-0.7071 -0.7071 0.7071 -0.7071 572.7379 569.6942)" style="fill:#7AB9E8;" width="38.549" height="38.549"/>
<g>
</g>
<g>
</g>
<g>
</g>
<g>
</g>
<g>
</g>
<g>
</g>
<g>
</g>
<g>
</g>
<g>
</g>
<g>
</g>
<g>
</g>
<g>
</g>
<g>
</g>
<g>
</g>
<g>
</g>
</svg>
