<?xml version="1.0" encoding="iso-8859-1"?>
<!-- Generator: Adobe Illustrator 19.0.0, SVG Export Plug-In . SVG Version: 6.00 Build 0)  -->
<svg version="1.1" id="Layer_1" xmlns="http://www.w3.org/2000/svg" xmlns:xlink="http://www.w3.org/1999/xlink" x="0px" y="0px"
	 viewBox="0 0 512 512" style="enable-background:new 0 0 512 512;" xml:space="preserve">
<polygon style="fill:#DFDFE1;" points="466.824,512 45.176,512 15.059,0 496.941,0 "/>
<polygon style="fill:#CFCDD2;" points="496.941,0 255.998,0 255.998,512 466.824,512 "/>
<polygon style="fill:#98C8ED;" points="45.176,512 466.824,512 491.627,90.353 20.373,90.353 "/>
<polygon style="fill:#7AB9E8;" points="491.627,90.353 256,90.353 256,512 466.824,512 "/>
<path style="fill:#579ADF;" d="M384,210.824H128c-12.475,0-22.588,10.114-22.588,22.588v60.235
	c0,12.475,10.114,22.588,22.588,22.588h7.529v60.235h240.941v-60.235H384c12.475,0,22.588-10.113,22.588-22.588v-60.235
	C406.588,220.937,396.475,210.824,384,210.824z"/>
<path style="fill:#4A82CA;" d="M384,210.824H256v165.647h120.471v-60.235H384c12.475,0,22.588-10.113,22.588-22.588v-60.235
	C406.588,220.937,396.475,210.824,384,210.824z"/>
<path style="fill:#7AB9E8;" d="M301.176,361.412v7.529c0,12.475-10.114,22.588-22.588,22.588h-45.176
	c-12.475,0-22.588-10.114-22.588-22.588v-7.529c0-41.583,20.227-75.294,45.176-75.294S301.176,319.828,301.176,361.412z"/>
<path style="fill:#579ADF;" d="M391.529,361.412v7.529c0,12.475-10.114,22.588-22.588,22.588h-45.176
	c-12.475,0-22.588-10.114-22.588-22.588v-7.529c0-41.583,20.227-75.294,45.176-75.294
	C371.302,286.118,391.529,319.828,391.529,361.412z"/>
<path style="fill:#7AB9E8;" d="M210.824,361.412v7.529c0,12.475-10.114,22.588-22.588,22.588h-45.176
	c-12.475,0-22.588-10.114-22.588-22.588v-7.529c0-41.583,20.227-75.294,45.176-75.294S210.824,319.828,210.824,361.412z"/>
<path style="fill:#579ADF;" d="M256,286.118v105.412h22.588c12.475,0,22.588-10.114,22.588-22.588v-7.529
	C301.176,319.828,280.949,286.118,256,286.118z"/>
<g>
</g>
<g>
</g>
<g>
</g>
<g>
</g>
<g>
</g>
<g>
</g>
<g>
</g>
<g>
</g>
<g>
</g>
<g>
</g>
<g>
</g>
<g>
</g>
<g>
</g>
<g>
</g>
<g>
</g>
</svg>
