<?xml version="1.0" encoding="iso-8859-1"?>
<!-- Generator: Adobe Illustrator 19.0.0, SVG Export Plug-In . SVG Version: 6.00 Build 0)  -->
<svg version="1.1" id="Layer_1" xmlns="http://www.w3.org/2000/svg" xmlns:xlink="http://www.w3.org/1999/xlink" x="0px" y="0px"
	 viewBox="0 0 512 512" style="enable-background:new 0 0 512 512;" xml:space="preserve">
<path style="fill:#AEADB3;" d="M199.423,165.936l-33.49,33.49l-64.244-64.244c-9.447,4.522-19.861,6.907-30.645,6.907
	c-18.978,0.002-36.818-7.39-50.236-20.809C7.391,107.865,0.001,90.023,0.001,71.045c0-18.977,7.39-36.818,20.809-50.236
	C34.22,7.4,52.057,0.008,71.027,0l0.017,47.362c-6.326,0.003-12.272,2.468-16.743,6.937c-4.474,4.474-6.939,10.421-6.939,16.747
	c0,6.324,2.464,12.27,6.935,16.743c4.474,4.474,10.42,6.937,16.744,6.939c6.326-0.002,12.27-2.464,16.743-6.935l16.746-16.746
	L199.423,165.936z"/>
<g>
	<path style="fill:#828186;" d="M71.044,47.362L71.027,0C52.057,0.008,34.22,7.4,20.81,20.811l33.49,33.49
		C58.771,49.83,64.718,47.366,71.044,47.362z"/>
	
		<rect x="131.768" y="59.761" transform="matrix(0.7071 -0.7071 0.7071 0.7071 -47.6393 138.7016)" style="fill:#828186;" width="23.679" height="134.192"/>
</g>
<path style="fill:#CFCDD2;" d="M244.078,177.097c-18.497-18.495-48.482-18.498-66.981,0c-18.497,18.497-18.497,48.482,0,66.98
	L445.018,512l66.981-66.98L244.078,177.097z"/>
<path style="fill:#AEADB3;" d="M244.078,177.097c-18.497-18.495-48.482-18.498-66.981,0l0,0l301.413,301.411l33.49-33.49
	L244.078,177.097z"/>
<rect x="288.308" y="113.189" transform="matrix(0.7071 -0.7071 0.7071 0.7071 13.0937 305.3513)" style="fill:#CFCDD2;" width="173.66" height="47.362"/>
<rect x="296.661" y="133.397" transform="matrix(0.7071 -0.7071 0.7071 0.7071 9.6234 313.7082)" style="fill:#AEADB3;" width="173.66" height="23.681"/>
<g>
	<circle style="fill:#DFDFE1;" cx="447.686" cy="64.305" r="63.15"/>
	<path style="fill:#DFDFE1;" d="M336.059,242.922c18.497-18.495,18.498-48.483,0.002-66.98c-18.498-18.497-48.483-18.497-66.981,0
		L1.158,443.863l66.978,66.981L336.059,242.922z"/>
</g>
<g>
	<path style="fill:#CFCDD2;" d="M336.059,242.922c18.497-18.495,18.498-48.483,0.002-66.98c-0.002,0-0.002,0-0.002,0L34.646,477.353
		l33.49,33.492L336.059,242.922z"/>
	<path style="fill:#CFCDD2;" d="M510.844,64.305c0-17.437-7.07-33.225-18.497-44.652l-89.308,89.307
		c11.427,11.427,27.214,18.497,44.652,18.495C482.573,127.457,510.845,99.185,510.844,64.305z"/>
</g>
<g>
</g>
<g>
</g>
<g>
</g>
<g>
</g>
<g>
</g>
<g>
</g>
<g>
</g>
<g>
</g>
<g>
</g>
<g>
</g>
<g>
</g>
<g>
</g>
<g>
</g>
<g>
</g>
<g>
</g>
</svg>
