<?xml version="1.0" encoding="iso-8859-1"?>
<!-- Generator: Adobe Illustrator 19.0.0, SVG Export Plug-In . SVG Version: 6.00 Build 0)  -->
<svg version="1.1" id="Layer_1" xmlns="http://www.w3.org/2000/svg" xmlns:xlink="http://www.w3.org/1999/xlink" x="0px" y="0px"
	 viewBox="0 0 511.989 511.989" style="enable-background:new 0 0 511.989 511.989;" xml:space="preserve">
<rect x="300.451" y="18.504" transform="matrix(0.7071 0.7071 -0.7071 0.7071 155.7946 -225.5348)" style="fill:#DFDFE1;" width="99.382" height="113.579"/>
<path style="fill:#CFCDD2;" d="M475.639,60.225c-16.634-16.634-43.604-16.634-60.236,0L254.776,220.852l60.235,60.235
	l160.629-160.626C492.273,103.827,492.273,76.859,475.639,60.225z"/>
<path style="fill:#AEADB3;" d="M475.639,120.461c16.634-16.634,16.634-43.602,0-60.236L284.894,250.969l30.117,30.117
	L475.639,120.461z"/>
<path style="fill:#DFDFE1;" d="M304.973,230.891c-27.724-27.722-72.67-27.722-100.392-0.001L23.874,411.596l100.394,100.392
	l180.705-180.705C332.695,303.56,332.695,258.613,304.973,230.891z"/>
<path style="fill:#98C8ED;" d="M99.168,336.302l70.274-70.274c9.385,9.385,14.555,21.863,14.555,35.136s-5.169,25.752-14.555,35.138
	C150.068,355.675,118.543,355.676,99.168,336.302z"/>
<path style="fill:#CFCDD2;" d="M304.973,331.283c27.722-27.722,27.722-72.67,0-100.392L74.071,461.793l50.196,50.196
	L304.973,331.283z"/>
<g>
</g>
<g>
</g>
<g>
</g>
<g>
</g>
<g>
</g>
<g>
</g>
<g>
</g>
<g>
</g>
<g>
</g>
<g>
</g>
<g>
</g>
<g>
</g>
<g>
</g>
<g>
</g>
<g>
</g>
</svg>
