<?xml version="1.0" encoding="iso-8859-1"?>
<!-- Generator: Adobe Illustrator 19.0.0, SVG Export Plug-In . SVG Version: 6.00 Build 0)  -->
<svg version="1.1" id="Layer_1" xmlns="http://www.w3.org/2000/svg" xmlns:xlink="http://www.w3.org/1999/xlink" x="0px" y="0px"
	 viewBox="0 0 512 512" style="enable-background:new 0 0 512 512;" xml:space="preserve">
<path style="fill:#DFDFE1;" d="M234.716,116.053C282.661,69.598,347.965,40.96,419.84,40.96V0
	c-82.119,0-159.28,31.938-217.271,89.928c-8.323,8.323-16.092,17.053-23.324,26.126H234.716z"/>
<path style="fill:#CFCDD2;" d="M419.84,0C360.926,0,304.564,16.443,256,47.146v50.373c45.208-35.41,102.093-56.559,163.84-56.559V0z
	"/>
<rect x="51.2" y="102.4" style="fill:#98C8ED;" width="409.6" height="409.6"/>
<g>
	<rect x="256" y="102.4" style="fill:#7AB9E8;" width="204.8" height="409.6"/>
	<path style="fill:#7AB9E8;" d="M256,368.64c33.878,0,61.44-27.561,61.44-61.44s-27.562-61.44-61.44-61.44
		s-61.44,27.561-61.44,61.44S222.122,368.64,256,368.64z M256,286.72c11.293,0,20.48,9.187,20.48,20.48
		c0,11.293-9.187,20.48-20.48,20.48s-20.48-9.187-20.48-20.48C235.52,295.907,244.707,286.72,256,286.72z"/>
	<path style="fill:#7AB9E8;" d="M256,163.84c-26.07,0-50.534,6.997-71.62,19.208c16.415-31.005,38.778-58.393,65.552-80.648h-59.15
		c-50.508,56.362-78.142,128.431-78.142,204.8c0,79.049,64.311,143.36,143.36,143.36s143.36-64.311,143.36-143.36
		S335.049,163.84,256,163.84z M256,409.6c-56.463,0-102.4-45.937-102.4-102.4S199.537,204.8,256,204.8s102.4,45.937,102.4,102.4
		S312.463,409.6,256,409.6z"/>
</g>
<g>
	<path style="fill:#579ADF;" d="M317.44,307.2c0-33.879-27.562-61.44-61.44-61.44v40.96c11.293,0,20.48,9.187,20.48,20.48
		c0,11.293-9.187,20.48-20.48,20.48v40.96C289.878,368.64,317.44,341.079,317.44,307.2z"/>
	<path style="fill:#579ADF;" d="M256,163.84v40.96c56.463,0,102.4,45.937,102.4,102.4S312.463,409.6,256,409.6v40.96
		c79.049,0,143.36-64.311,143.36-143.36S335.049,163.84,256,163.84z"/>
</g>
<g>
</g>
<g>
</g>
<g>
</g>
<g>
</g>
<g>
</g>
<g>
</g>
<g>
</g>
<g>
</g>
<g>
</g>
<g>
</g>
<g>
</g>
<g>
</g>
<g>
</g>
<g>
</g>
<g>
</g>
</svg>
