<?xml version="1.0" encoding="iso-8859-1"?>
<!-- Generator: Adobe Illustrator 19.0.0, SVG Export Plug-In . SVG Version: 6.00 Build 0)  -->
<svg version="1.1" id="Layer_1" xmlns="http://www.w3.org/2000/svg" xmlns:xlink="http://www.w3.org/1999/xlink" x="0px" y="0px"
	 viewBox="0 0 512 512" style="enable-background:new 0 0 512 512;" xml:space="preserve">
<path style="fill:#FF4F19;" d="M374.888,375.287L512,238.173l-128-128c-30.297-30.296-79.417-30.297-109.713,0L256,128.46
	l-18.287-18.287c-30.297-30.297-79.418-30.297-109.714,0L0,238.175l137.143,137.141l0,0l0,0c65.644,65.643,172.072,65.643,237.714,0
	C374.868,375.307,374.878,375.297,374.888,375.287z"/>
<path style="fill:#FC0023;" d="M384,110.173c-30.297-30.296-79.417-30.297-109.713,0L256,128.46V424.55
	c43.018,0,86.036-16.411,118.857-49.232c0.01-0.01,0.021-0.022,0.03-0.031L512,238.173L384,110.173z"/>
<path style="fill:#F7F7FC;" d="M512,238.173c-129.299,0-126.701-20.962-256-20.962S129.299,238.175,0,238.175
	c129.299,0,126.701,56.616,256,56.616S382.701,238.173,512,238.173z"/>
<path style="fill:#DFDFE1;" d="M256,217.21v77.58c129.298,0,126.701-56.618,256-56.618C382.701,238.173,385.299,217.21,256,217.21z"
	/>
<g>
</g>
<g>
</g>
<g>
</g>
<g>
</g>
<g>
</g>
<g>
</g>
<g>
</g>
<g>
</g>
<g>
</g>
<g>
</g>
<g>
</g>
<g>
</g>
<g>
</g>
<g>
</g>
<g>
</g>
</svg>
