<?xml version="1.0" encoding="iso-8859-1"?>
<!-- Generator: Adobe Illustrator 19.0.0, SVG Export Plug-In . SVG Version: 6.00 Build 0)  -->
<svg version="1.1" id="Layer_1" xmlns="http://www.w3.org/2000/svg" xmlns:xlink="http://www.w3.org/1999/xlink" x="0px" y="0px"
	 viewBox="0 0 512 512" style="enable-background:new 0 0 512 512;" xml:space="preserve">
<path style="fill:#FFEA8A;" d="M345.6,172.8H166.4C92.292,172.8,32,112.508,32,38.4V19.2h128v19.2c0,52.934,43.066,96,96,96
	s96-43.066,96-96V19.2h128v19.2C480,112.508,419.708,172.8,345.6,172.8z"/>
<path style="fill:#FFDB2D;" d="M352,19.2v19.2c0,52.934-43.066,96-96,96v38.4h89.6c74.108,0,134.4-60.292,134.4-134.4V19.2H352z"/>
<g>
	<path style="fill:#FFEA8A;" d="M435.2,268.8c0,21.207-17.193,38.4-38.4,38.4H115.2c-21.207,0-38.4-17.193-38.4-38.4l0,0
		c0-21.207,17.193-38.4,38.4-38.4h281.6C418.007,230.4,435.2,247.593,435.2,268.8L435.2,268.8z"/>
	<path style="fill:#FFEA8A;" d="M384,384c0,21.207-17.193,38.4-38.4,38.4H166.4c-21.207,0-38.4-17.193-38.4-38.4l0,0
		c0-21.207,17.193-38.4,38.4-38.4h179.2C366.807,345.6,384,362.793,384,384L384,384z"/>
</g>
<g>
	<path style="fill:#FFDB2D;" d="M396.8,230.4H256v76.8h89.6h51.2c21.207,0,38.4-17.193,38.4-38.4S418.007,230.4,396.8,230.4z"/>
	<path style="fill:#FFDB2D;" d="M256,422.4h89.6c21.207,0,38.4-17.193,38.4-38.4s-17.193-38.4-38.4-38.4H256V422.4z"/>
	<rect x="236.8" y="64" style="fill:#FFDB2D;" width="38.4" height="448"/>
</g>
<circle style="fill:#FFEA8A;" cx="256" cy="38.4" r="38.4"/>
<rect x="256" y="64" style="fill:#FFAF33;" width="19.2" height="448"/>
<path style="fill:#FFDB2D;" d="M256,0v76.8c21.207,0,38.4-17.193,38.4-38.4S277.207,0,256,0z"/>
<g>
</g>
<g>
</g>
<g>
</g>
<g>
</g>
<g>
</g>
<g>
</g>
<g>
</g>
<g>
</g>
<g>
</g>
<g>
</g>
<g>
</g>
<g>
</g>
<g>
</g>
<g>
</g>
<g>
</g>
</svg>
