<?xml version="1.0" encoding="iso-8859-1"?>
<!-- Generator: Adobe Illustrator 19.0.0, SVG Export Plug-In . SVG Version: 6.00 Build 0)  -->
<svg version="1.1" id="Layer_1" xmlns="http://www.w3.org/2000/svg" xmlns:xlink="http://www.w3.org/1999/xlink" x="0px" y="0px"
	 viewBox="0 0 512 512" style="enable-background:new 0 0 512 512;" xml:space="preserve">
<path style="fill:#DFDFE1;" d="M462.386,71.968c-137.065-16.997-275.709-16.996-412.774,0c-31.121,3.845-53.074,27.207-49.161,50.93
	C17.867,232.857,35.284,342.817,52.7,452.778c134.694-21.332,271.907-21.332,406.6,0c17.416-109.961,34.833-219.921,52.248-329.881
	C515.462,99.171,493.508,75.815,462.386,71.968z"/>
<path style="fill:#CFCDD2;" d="M462.386,71.968C393.853,63.468,324.926,59.221,256,59.221V436.78c67.976,0,135.953,5.332,203.3,16
	c17.416-109.961,34.833-219.921,52.248-329.881C515.462,99.171,493.508,75.815,462.386,71.968z"/>
<polygon style="fill:#FF4F19;" points="357.65,205.914 299.564,205.914 299.564,147.828 212.436,147.828 212.436,205.914 
	154.35,205.914 154.35,293.042 212.436,293.042 212.436,351.128 299.564,351.128 299.564,293.042 357.65,293.042 "/>
<polygon style="fill:#FC0023;" points="299.564,205.914 299.564,147.828 256,147.828 256,351.128 299.564,351.128 299.564,293.042 
	357.65,293.042 357.65,205.914 "/>
<g>
</g>
<g>
</g>
<g>
</g>
<g>
</g>
<g>
</g>
<g>
</g>
<g>
</g>
<g>
</g>
<g>
</g>
<g>
</g>
<g>
</g>
<g>
</g>
<g>
</g>
<g>
</g>
<g>
</g>
</svg>
