<?xml version="1.0" encoding="iso-8859-1"?>
<!-- Generator: Adobe Illustrator 19.0.0, SVG Export Plug-In . SVG Version: 6.00 Build 0)  -->
<svg version="1.1" id="Layer_1" xmlns="http://www.w3.org/2000/svg" xmlns:xlink="http://www.w3.org/1999/xlink" x="0px" y="0px"
	 viewBox="0 0 512.001 512.001" style="enable-background:new 0 0 512.001 512.001;" xml:space="preserve">
<path style="fill:#DFDFE1;" d="M479.587,188.925c43.218-43.221,43.218-113.29,0-156.512l0,0
	c-43.221-43.218-113.292-43.218-156.513,0L32.413,323.075c-43.218,43.221-43.216,113.29,0.002,156.512l0,0
	c43.219,43.218,113.29,43.218,156.51,0L479.587,188.925z"/>
<path style="fill:#CFCDD2;" d="M479.587,32.414L32.414,479.587c43.219,43.218,113.29,43.218,156.51,0l290.663-290.662
	C522.805,145.704,522.805,75.635,479.587,32.414z"/>
<path style="fill:#FF4F19;" d="M177.743,177.745L32.413,323.075c-43.218,43.221-43.216,113.29,0.002,156.512
	c43.219,43.218,113.29,43.218,156.51,0l145.331-145.331L177.743,177.745z"/>
<path style="fill:#FC0023;" d="M255.999,256L32.414,479.587c43.219,43.218,113.29,43.218,156.51,0l145.331-145.331L255.999,256z"/>
<g>
</g>
<g>
</g>
<g>
</g>
<g>
</g>
<g>
</g>
<g>
</g>
<g>
</g>
<g>
</g>
<g>
</g>
<g>
</g>
<g>
</g>
<g>
</g>
<g>
</g>
<g>
</g>
<g>
</g>
</svg>
