<?xml version="1.0" encoding="iso-8859-1"?>
<!-- Generator: Adobe Illustrator 19.0.0, SVG Export Plug-In . SVG Version: 6.00 Build 0)  -->
<svg version="1.1" id="Layer_1" xmlns="http://www.w3.org/2000/svg" xmlns:xlink="http://www.w3.org/1999/xlink" x="0px" y="0px"
	 viewBox="0 0 512 512" style="enable-background:new 0 0 512 512;" xml:space="preserve">
<path style="fill:#6DC180;" d="M256,512l-6.794-2.464c-68.079-24.686-129.253-79.357-172.25-153.938
	c-43.695-75.791-66.79-166.591-66.79-262.58V73.086h19.933C157.71,73.086,236.067,30.518,236.067,0h39.865
	c0,30.518,78.357,73.086,205.969,73.086h19.933v19.933c0,95.99-23.095,186.789-66.79,262.58
	c-42.997,74.581-104.171,129.252-172.25,153.938L256,512z"/>
<path style="fill:#5CA15D;" d="M481.902,73.086C354.29,73.086,275.933,30.518,275.933,0H256v512l6.794-2.464
	c68.079-24.686,129.253-79.357,172.25-153.938c43.695-75.791,66.79-166.591,66.79-262.58V73.086H481.902z"/>
<path style="fill:#F7F7FC;" d="M329.086,159.46c-36.543,0-36.543,6.644-73.086,6.644s-36.543-6.644-73.086-6.644
	c-22.016,0-39.865,17.849-39.865,39.865v79.73c0,26.577,39.865,43.187,39.865,69.764l0,0c0,20.184,16.361,36.543,36.543,36.543
	c20.181,0,36.543-16.359,36.543-36.543c0,20.184,16.361,36.543,36.543,36.543c20.181,0,36.543-16.359,36.543-36.543l0,0
	c0-26.577,39.865-43.187,39.865-69.764v-79.73C368.951,177.309,351.102,159.46,329.086,159.46z"/>
<path style="fill:#DFDFE1;" d="M329.086,159.46c-36.543,0-36.543,6.644-73.086,6.644v182.715c0,20.184,16.361,36.543,36.543,36.543
	c20.181,0,36.543-16.359,36.543-36.543c0-26.577,39.865-43.187,39.865-69.764v-79.73C368.951,177.309,351.102,159.46,329.086,159.46
	z"/>
<g>
</g>
<g>
</g>
<g>
</g>
<g>
</g>
<g>
</g>
<g>
</g>
<g>
</g>
<g>
</g>
<g>
</g>
<g>
</g>
<g>
</g>
<g>
</g>
<g>
</g>
<g>
</g>
<g>
</g>
</svg>
