<?xml version="1.0" encoding="iso-8859-1"?>
<!-- Generator: Adobe Illustrator 19.0.0, SVG Export Plug-In . SVG Version: 6.00 Build 0)  -->
<svg version="1.1" id="Layer_1" xmlns="http://www.w3.org/2000/svg" xmlns:xlink="http://www.w3.org/1999/xlink" x="0px" y="0px"
	 viewBox="0 0 512 512" style="enable-background:new 0 0 512 512;" xml:space="preserve">
<rect x="68.683" y="87.415" style="fill:#DFDFE1;" width="374.634" height="424.585"/>
<rect x="256" y="87.415" style="fill:#CFCDD2;" width="187.317" height="424.585"/>
<path style="fill:#A58868;" d="M305.951,49.951C305.951,22.363,283.588,0,256,0s-49.951,22.363-49.951,49.951H143.61v74.927H368.39
	V49.951H305.951z"/>
<path style="fill:#947859;" d="M368.39,49.951h-62.439C305.951,22.363,283.588,0,256,0v124.878h112.39V49.951z"/>
<path style="fill:#F7F7FC;" d="M324.683,212.293c-34.341,0-34.341,6.244-68.683,6.244s-34.341-6.244-68.683-6.244
	c-20.69,0-37.463,16.774-37.463,37.463v74.927c0,24.976,37.463,40.585,37.463,65.561l0,0c0,18.968,15.376,34.341,34.341,34.341
	S256,409.212,256,390.244c0,18.968,15.376,34.341,34.341,34.341c18.965,0,34.341-15.374,34.341-34.341l0,0
	c0-24.976,37.463-40.585,37.463-65.561v-74.927C362.146,229.066,345.373,212.293,324.683,212.293z"/>
<path style="fill:#DFDFE1;" d="M324.683,212.293c-34.341,0-34.341,6.244-68.683,6.244v171.707c0,18.968,15.376,34.341,34.341,34.341
	c18.965,0,34.341-15.374,34.341-34.341c0-24.976,37.463-40.585,37.463-65.561v-74.927
	C362.146,229.066,345.373,212.293,324.683,212.293z"/>
<g>
</g>
<g>
</g>
<g>
</g>
<g>
</g>
<g>
</g>
<g>
</g>
<g>
</g>
<g>
</g>
<g>
</g>
<g>
</g>
<g>
</g>
<g>
</g>
<g>
</g>
<g>
</g>
<g>
</g>
</svg>
