<?xml version="1.0" encoding="iso-8859-1"?>
<!-- Generator: Adobe Illustrator 19.0.0, SVG Export Plug-In . SVG Version: 6.00 Build 0)  -->
<svg version="1.1" id="Layer_1" xmlns="http://www.w3.org/2000/svg" xmlns:xlink="http://www.w3.org/1999/xlink" x="0px" y="0px"
	 viewBox="0 0 511.998 511.998" style="enable-background:new 0 0 511.998 511.998;" xml:space="preserve">
<circle style="fill:#98C8ED;" cx="127.999" cy="383.998" r="127.999"/>
<g>
	<path style="fill:#7AB9E8;" d="M128.002,256.002c-35.347,0-67.347,14.327-90.511,37.49l181.018,181.02
		c23.163-23.163,37.49-55.165,37.492-90.51C256,313.311,198.692,256,128.002,256.002z"/>
	<path style="fill:#7AB9E8;" d="M201.103,278.953L22.956,457.104c8.675,12.445,19.5,23.267,31.943,31.944l178.149-178.149
		C224.371,298.456,213.548,287.631,201.103,278.953z"/>
</g>
<path style="fill:#579ADF;" d="M201.081,278.977l-89.074,89.074l31.944,31.944l89.075-89.074
	C224.348,298.478,213.525,287.654,201.081,278.977z"/>
<circle style="fill:#98C8ED;" cx="383.998" cy="128" r="127.999"/>
<g>
	<path style="fill:#7AB9E8;" d="M474.507,37.495C449.514,12.499,416.757,0.002,383.998,0v256
		c32.757,0.002,65.516-12.499,90.509-37.49C524.494,168.526,524.496,87.478,474.507,37.495z"/>
	<path style="fill:#7AB9E8;" d="M509.969,105.412l-251.94,0.003c-2.665,14.935-2.665,30.241-0.002,45.176h251.94
		C512.631,135.654,512.632,120.347,509.969,105.412z"/>
</g>
<path style="fill:#579ADF;" d="M509.937,105.413H383.966v45.175l125.971,0.003C512.599,135.656,512.601,120.347,509.937,105.413z"/>
<g>
</g>
<g>
</g>
<g>
</g>
<g>
</g>
<g>
</g>
<g>
</g>
<g>
</g>
<g>
</g>
<g>
</g>
<g>
</g>
<g>
</g>
<g>
</g>
<g>
</g>
<g>
</g>
<g>
</g>
</svg>
