<?xml version="1.0" encoding="iso-8859-1"?>
<!-- Generator: Adobe Illustrator 19.0.0, SVG Export Plug-In . SVG Version: 6.00 Build 0)  -->
<svg version="1.1" id="Layer_1" xmlns="http://www.w3.org/2000/svg" xmlns:xlink="http://www.w3.org/1999/xlink" x="0px" y="0px"
	 viewBox="0 0 512 512" style="enable-background:new 0 0 512 512;" xml:space="preserve">
<path style="fill:#FF4F19;" d="M486.761,252.394v216.338c0,23.895-19.372,43.268-43.268,43.268H68.507
	c-23.895,0-43.268-19.372-43.268-43.268V252.394C25.239,124.95,128.554,21.634,256,21.634S486.761,124.95,486.761,252.394z"/>
<path style="fill:#FC0023;" d="M256,21.634V512h187.493c23.895,0,43.268-19.372,43.268-43.268V252.394
	C486.761,124.95,383.446,21.634,256,21.634z"/>
<path style="fill:#AEADB3;" d="M486.761,382.197c0,23.895-19.372,43.268-43.268,43.268c-23.895,0-43.268-19.372-43.268-43.268
	V252.394c0-79.654-64.573-144.225-144.225-144.225S111.775,172.74,111.775,252.394v129.803c0,23.895-19.372,43.268-43.268,43.268
	s-43.268-19.372-43.268-43.268V252.394C25.239,124.95,128.554,21.634,256,21.634S486.761,124.95,486.761,252.394V382.197z"/>
<path style="fill:#828186;" d="M256,21.634v86.535c79.653,0,144.225,64.571,144.225,144.225v129.803
	c0,23.895,19.372,43.268,43.268,43.268c23.895,0,43.268-19.372,43.268-43.268V252.394C486.761,124.95,383.446,21.634,256,21.634z"/>
<path style="fill:#DFDFE1;" d="M256,0C116.83,0,3.606,113.224,3.606,252.394v129.803c0,35.788,29.115,64.901,64.901,64.901
	s64.901-29.113,64.901-64.901V252.394c0-67.597,54.995-122.592,122.592-122.592s122.592,54.995,122.592,122.592v129.803
	c0,35.788,29.115,64.901,64.901,64.901s64.901-29.113,64.901-64.901V252.394C508.394,113.224,395.17,0,256,0z M421.859,274.028
	h43.268v43.268h-43.268V274.028z M420.449,230.761c-1.915-14.632-5.746-28.665-11.228-41.848l37.721-21.779
	c8.868,19.783,14.754,41.184,17.071,63.626h-43.563V230.761z M425.243,129.702l-37.715,21.775
	c-8.831-11.482-19.127-21.778-30.609-30.609l21.774-37.715C396.542,96.126,412.267,111.853,425.243,129.702z M234.366,87.947
	c-14.632,1.914-28.666,5.744-41.848,11.228l-21.779-37.721c19.783-8.868,41.182-14.756,63.626-17.072L234.366,87.947z
	 M277.632,44.381c22.443,2.316,43.843,8.202,63.626,17.071l-21.778,37.721c-13.182-5.482-27.217-9.314-41.847-11.227L277.632,44.381
	z M133.306,83.152l21.775,37.715c-11.482,8.831-21.778,19.127-30.609,30.609l-37.716-21.772
	C99.732,111.854,115.457,96.128,133.306,83.152z M46.873,274.03l43.268-0.001v43.268H46.873V274.03z M91.551,230.761l-43.565,0.001
	c2.316-22.444,8.202-43.843,17.071-63.626l37.722,21.778C97.297,202.096,93.465,216.129,91.551,230.761z M68.507,403.831
	c-11.929,0-21.634-9.703-21.634-21.634v-21.634h43.268v21.634C90.141,394.128,80.436,403.831,68.507,403.831z M443.493,403.831
	c-11.929,0-21.634-9.703-21.634-21.634v-21.634h43.268v21.634C465.127,394.128,455.422,403.831,443.493,403.831z"/>
<path style="fill:#CFCDD2;" d="M256,0v129.803c67.597,0,122.592,54.995,122.592,122.592v129.803
	c0,35.788,29.115,64.901,64.901,64.901s64.901-29.113,64.901-64.901V252.394C508.394,113.224,395.17,0,256,0z M319.481,99.174
	c-13.182-5.482-27.217-9.314-41.847-11.227l-0.001-43.565c22.443,2.316,43.843,8.202,63.626,17.071L319.481,99.174z
	 M387.528,151.476c-8.831-11.482-19.127-21.778-30.609-30.609l21.774-37.715c17.849,12.975,33.574,28.699,46.55,46.549
	L387.528,151.476z M409.221,188.912l37.721-21.779c8.868,19.783,14.754,41.184,17.071,63.626h-43.563
	C418.533,216.129,414.703,202.096,409.221,188.912z M465.127,382.197c0,11.93-9.705,21.634-21.634,21.634
	c-11.929,0-21.634-9.703-21.634-21.634v-21.634h43.268V382.197z M465.127,317.296h-43.268v-43.268h43.268V317.296z"/>
<g>
</g>
<g>
</g>
<g>
</g>
<g>
</g>
<g>
</g>
<g>
</g>
<g>
</g>
<g>
</g>
<g>
</g>
<g>
</g>
<g>
</g>
<g>
</g>
<g>
</g>
<g>
</g>
<g>
</g>
</svg>
