<?xml version="1.0" encoding="iso-8859-1"?>
<!-- Generator: Adobe Illustrator 19.0.0, SVG Export Plug-In . SVG Version: 6.00 Build 0)  -->
<svg version="1.1" id="Layer_1" xmlns="http://www.w3.org/2000/svg" xmlns:xlink="http://www.w3.org/1999/xlink" x="0px" y="0px"
	 viewBox="0 0 512 512" style="enable-background:new 0 0 512 512;" xml:space="preserve">
<path style="fill:#DFDFE1;" d="M0,240V64c0-26.509,21.491-48,48-48h416c26.509,0,48,21.491,48,48v176c0,141.384-114.614,256-256,256
	S0,381.384,0,240z"/>
<path style="fill:#CFCDD2;" d="M464,16H256v480c141.386,0,256-114.616,256-256V64C512,37.491,490.509,16,464,16z"/>
<path style="fill:#FF4F19;" d="M426.666,165.333c-47.128,0-85.333-38.203-85.333-85.333c0,47.13-38.206,85.333-85.333,85.333
	c-47.128,0-85.334-38.203-85.334-85.333c0,47.13-38.205,85.333-85.333,85.333S0,127.13,0,80v160c0,141.384,114.614,256,256,256
	s256-114.616,256-256V80C512,127.13,473.794,165.333,426.666,165.333z"/>
<path style="fill:#FC0023;" d="M426.666,165.333c-47.128,0-85.333-38.203-85.333-85.333c0,47.13-38.206,85.333-85.333,85.333V496
	c141.386,0,256-114.616,256-256V80C512,127.13,473.794,165.333,426.666,165.333z"/>
<rect x="232" y="256" style="fill:#FF9800;" width="48" height="96"/>
<path style="fill:#56545A;" d="M512,80c0,47.13-38.206,85.333-85.334,85.333S341.333,127.13,341.333,80
	c0,47.13-38.206,85.333-85.333,85.333c-47.128,0-85.334-38.203-85.334-85.333c0,47.13-38.205,85.333-85.333,85.333S0,127.13,0,80
	v160c0,47.501,12.952,91.968,35.496,130.096C84.43,301.066,164.944,256,256,256s171.57,45.066,220.504,114.098
	C499.046,331.97,512,287.501,512,240V80z"/>
<path style="fill:#272729;" d="M426.666,165.333c-47.128,0-85.333-38.203-85.333-85.333c0,47.13-38.206,85.333-85.333,85.333h-0.002
	V256H256c91.056,0,171.57,45.066,220.504,114.098C499.046,331.97,512,287.501,512,240V80
	C512,127.13,473.794,165.333,426.666,165.333z"/>
<g>
</g>
<g>
</g>
<g>
</g>
<g>
</g>
<g>
</g>
<g>
</g>
<g>
</g>
<g>
</g>
<g>
</g>
<g>
</g>
<g>
</g>
<g>
</g>
<g>
</g>
<g>
</g>
<g>
</g>
</svg>
