<?xml version="1.0" encoding="iso-8859-1"?>
<!-- Generator: Adobe Illustrator 19.0.0, SVG Export Plug-In . SVG Version: 6.00 Build 0)  -->
<svg version="1.1" id="Layer_1" xmlns="http://www.w3.org/2000/svg" xmlns:xlink="http://www.w3.org/1999/xlink" x="0px" y="0px"
	 viewBox="0 0 512 512" style="enable-background:new 0 0 512 512;" xml:space="preserve">
<path style="fill:#DFDFE1;" d="M392.767,164.822c-23.241,0-42.082,18.842-42.082,42.082c0-23.241-18.842-42.082-42.082-42.082
	c-23.241,0-42.082,18.842-42.082,42.082c0-23.241-18.842-42.082-42.082-42.082s-42.082,18.842-42.082,42.082V389.26h84.164h84.164
	h84.164V206.904C434.849,183.664,416.008,164.822,392.767,164.822z"/>
<g>
	<path style="fill:#CFCDD2;" d="M266.521,206.904c0-23.241-18.842-42.082-42.082-42.082V389.26h42.082V206.904z"/>
	<path style="fill:#CFCDD2;" d="M350.685,206.904c0-23.241-18.842-42.082-42.082-42.082V389.26h42.082V206.904z"/>
	<path style="fill:#CFCDD2;" d="M434.849,206.904c0-23.241-18.842-42.082-42.082-42.082V389.26h42.082V206.904z"/>
</g>
<path style="fill:#6DC180;" d="M140.274,375.233v42.082H0v84.164h392.767c46.483,0,84.164-37.682,84.164-84.164v-42.082H140.274z"/>
<path style="fill:#98C8ED;" d="M147.288,192.877h-42.082V94.685c0-34.806,28.317-63.123,63.123-63.123h280.548
	c11.603,0,21.041-9.439,21.041-21.041H512v98.192c0,34.806-28.316,63.123-63.123,63.123H168.329
	C156.727,171.836,147.288,181.275,147.288,192.877z"/>
<path style="fill:#5CA15D;" d="M308.603,375.233v126.247h84.164c46.483,0,84.164-37.682,84.164-84.164v-42.082H308.603z"/>
<path style="fill:#7AB9E8;" d="M469.918,10.521c0,11.602-9.438,21.041-21.041,21.041H308.603v140.274h140.274
	c34.808,0,63.123-28.317,63.123-63.123V10.521H469.918z"/>
<g>
</g>
<g>
</g>
<g>
</g>
<g>
</g>
<g>
</g>
<g>
</g>
<g>
</g>
<g>
</g>
<g>
</g>
<g>
</g>
<g>
</g>
<g>
</g>
<g>
</g>
<g>
</g>
<g>
</g>
</svg>
