<?xml version="1.0" encoding="iso-8859-1"?>
<!-- Generator: Adobe Illustrator 19.0.0, SVG Export Plug-In . SVG Version: 6.00 Build 0)  -->
<svg version="1.1" id="Layer_1" xmlns="http://www.w3.org/2000/svg" xmlns:xlink="http://www.w3.org/1999/xlink" x="0px" y="0px"
	 viewBox="0 0 512 512" style="enable-background:new 0 0 512 512;" xml:space="preserve">
<path style="fill:#DFDFE1;" d="M376.471,429.176c0,29.109-23.597,52.706-52.706,52.706s-52.706-23.597-52.706-52.706v-37.647
	c0-24.949-20.227-45.176-45.176-45.176s-45.176,20.227-45.176,45.176v37.647c0,29.109-23.597,52.706-52.706,52.706
	s-52.706-23.597-52.706-52.706V384C75.294,323.765,0,286.118,0,225.882V75.294C0,33.711,33.711,0,75.294,0
	s75.294,33.711,75.294,75.294C150.588,33.711,184.299,0,225.882,0s75.294,33.711,75.294,75.294C301.176,33.711,334.887,0,376.471,0
	c41.583,0,75.294,33.711,75.294,75.294v150.588c0,60.235-75.294,97.882-75.294,158.118V429.176z"/>
<path style="fill:#CFCDD2;" d="M376.471,0c-41.583,0-75.294,33.711-75.294,75.294C301.176,33.711,267.466,0,225.882,0v346.353
	c24.949,0,45.176,20.227,45.176,45.176v37.647c0,29.109,23.597,52.706,52.706,52.706s52.706-23.597,52.706-52.706V384
	c0-60.235,75.294-97.882,75.294-158.118V75.294C451.765,33.711,418.054,0,376.471,0z"/>
<circle style="fill:#FF4F19;" cx="391.529" cy="391.529" r="120.471"/>
<path style="fill:#FC0023;" d="M391.529,271.059L391.529,271.059V512l0,0C458.064,512,512,458.064,512,391.529
	S458.064,271.059,391.529,271.059z"/>
<rect x="331.294" y="368.941" style="fill:#DFDFE1;" width="120.471" height="45.176"/>
<rect x="391.529" y="368.941" style="fill:#CFCDD2;" width="60.235" height="45.176"/>
<g>
</g>
<g>
</g>
<g>
</g>
<g>
</g>
<g>
</g>
<g>
</g>
<g>
</g>
<g>
</g>
<g>
</g>
<g>
</g>
<g>
</g>
<g>
</g>
<g>
</g>
<g>
</g>
<g>
</g>
</svg>
