<?xml version="1.0" encoding="iso-8859-1"?>
<!-- Generator: Adobe Illustrator 19.0.0, SVG Export Plug-In . SVG Version: 6.00 Build 0)  -->
<svg version="1.1" id="Layer_1" xmlns="http://www.w3.org/2000/svg" xmlns:xlink="http://www.w3.org/1999/xlink" x="0px" y="0px"
	 viewBox="0 0 512 512" style="enable-background:new 0 0 512 512;" xml:space="preserve">
<polygon style="fill:#DFDFE1;" points="449.499,5.001 434.5,20.001 414.499,0 384.499,30 404.5,50.001 359.499,95.002 
	419.498,155.001 509.5,65.001 "/>
<rect x="428.277" y="31.374" transform="matrix(-0.7071 -0.7071 0.7071 -0.7071 700.1433 480.0352)" style="fill:#CFCDD2;" width="42.426" height="127.278"/>
<path id="SVGCleanerId_0" style="fill:#98C8ED;" d="M156.499,512c92.438-100.895,184.875-201.792,277.312-302.687
	c15.784-17.352,16.541-43.46,1.687-58.312c-24.001-24.001-48-48-72-72c-14.853-14.853-40.961-14.097-58.311,1.689
	C204.291,173.125,103.397,265.563,2.5,358C53.835,409.333,105.168,460.666,156.499,512z"/>
<g>
	<path id="SVGCleanerId_0_1_" style="fill:#98C8ED;" d="M156.499,512c92.438-100.895,184.875-201.792,277.312-302.687
		c15.784-17.352,16.541-43.46,1.687-58.312c-24.001-24.001-48-48-72-72c-14.853-14.853-40.961-14.097-58.311,1.689
		C204.291,173.125,103.397,265.563,2.5,358C53.835,409.333,105.168,460.666,156.499,512z"/>
</g>
<path style="fill:#7AB9E8;" d="M433.811,209.313c15.784-17.352,16.541-43.46,1.687-58.312c-12-12-24.001-24.001-36-36l-319.999,320
	c25.666,25.666,51.334,51.333,76.999,76.999C248.937,411.105,341.374,310.208,433.811,209.313z"/>
<path style="fill:#DFDFE1;" d="M49.469,314.968L199.531,465.03c9.563-10.438,19.124-20.875,28.687-31.313L80.782,286.281
	C70.344,295.844,59.907,305.407,49.469,314.968z"/>
<path style="fill:#CFCDD2;" d="M228.218,433.718l-73.718-73.718l-30,30l75.031,75.032
	C209.094,454.593,218.656,444.155,228.218,433.718z"/>
<g>
</g>
<g>
</g>
<g>
</g>
<g>
</g>
<g>
</g>
<g>
</g>
<g>
</g>
<g>
</g>
<g>
</g>
<g>
</g>
<g>
</g>
<g>
</g>
<g>
</g>
<g>
</g>
<g>
</g>
</svg>
