<?xml version="1.0" encoding="iso-8859-1"?>
<!-- Generator: Adobe Illustrator 19.0.0, SVG Export Plug-In . SVG Version: 6.00 Build 0)  -->
<svg version="1.1" id="Layer_1" xmlns="http://www.w3.org/2000/svg" xmlns:xlink="http://www.w3.org/1999/xlink" x="0px" y="0px"
	 viewBox="0 0 511.99 511.99" style="enable-background:new 0 0 511.99 511.99;" xml:space="preserve">
<rect x="283.637" y="19.975" transform="matrix(0.7071 0.7071 -0.7071 0.7071 156.2614 -214.6862)" style="fill:#DFDFE1;" width="107.286" height="122.611"/>
<path style="fill:#6DC180;" d="M104.267,498.523c-17.955,17.957-47.07,17.957-65.025,0l0,0c-17.957-17.955-17.957-47.07,0-65.025
	l368.48-368.482c17.957-17.955,47.07-17.955,65.027,0l0,0c17.957,17.957,17.955,47.069,0,65.025L104.267,498.523z"/>
<path style="fill:#5CA15D;" d="M472.749,65.017L472.749,65.017L39.242,498.523c17.955,17.957,47.07,17.957,65.025,0l368.482-368.48
	C490.704,112.086,490.704,82.974,472.749,65.017z"/>
<g>
</g>
<g>
</g>
<g>
</g>
<g>
</g>
<g>
</g>
<g>
</g>
<g>
</g>
<g>
</g>
<g>
</g>
<g>
</g>
<g>
</g>
<g>
</g>
<g>
</g>
<g>
</g>
<g>
</g>
</svg>
