<?xml version="1.0" encoding="iso-8859-1"?>
<!-- Generator: Adobe Illustrator 19.0.0, SVG Export Plug-In . SVG Version: 6.00 Build 0)  -->
<svg version="1.1" id="Layer_1" xmlns="http://www.w3.org/2000/svg" xmlns:xlink="http://www.w3.org/1999/xlink" x="0px" y="0px"
	 viewBox="0 0 512 512" style="enable-background:new 0 0 512 512;" xml:space="preserve">
<path style="fill:#CFCDD2;" d="M178.424,201.697v263.758c0,25.706,20.84,46.545,46.545,46.545h62.061
	c25.705,0,46.545-20.84,46.545-46.545V201.697H178.424z"/>
<g>
	<path style="fill:#AEADB3;" d="M256,201.697V512h31.03c25.705,0,46.545-20.84,46.545-46.545V201.697H256z"/>
	
		<rect x="232.736" y="150.11" transform="matrix(-0.3162 -0.9487 0.9487 -0.3162 101.4584 569.6017)" style="fill:#AEADB3;" width="46.546" height="196.253"/>
	
		<rect x="232.733" y="243.204" transform="matrix(-0.3162 -0.9487 0.9487 -0.3162 13.1367 692.1289)" style="fill:#AEADB3;" width="46.546" height="196.253"/>
	
		<rect x="232.73" y="336.295" transform="matrix(-0.3162 -0.9487 0.9487 -0.3162 -75.1821 814.652)" style="fill:#AEADB3;" width="46.546" height="196.253"/>
</g>
<g>
	<polygon style="fill:#828186;" points="341.732,195.134 256,223.711 256,272.773 356.45,239.29 	"/>
	<polygon style="fill:#828186;" points="341.732,288.225 256,316.802 256,365.864 356.45,332.381 	"/>
	<polygon style="fill:#828186;" points="356.45,425.472 341.732,381.316 256,409.893 256,458.955 	"/>
</g>
<path style="fill:#DFDFE1;" d="M434.424,0c25.706,0,46.545,20.84,46.545,46.545v124.121c0,25.706-20.84,46.545-46.545,46.545H77.576
	c-25.706,0-46.545-20.84-46.545-46.545V46.545C31.03,20.84,51.87,0,77.576,0C166.788,0,166.788,31.03,256,31.03S345.212,0,434.424,0
	z"/>
<path style="fill:#CFCDD2;" d="M434.424,0C345.212,0,345.212,31.03,256,31.03v186.182h178.424c25.706,0,46.545-20.84,46.545-46.545
	V46.545C480.97,20.84,460.13,0,434.424,0z"/>
<g>
</g>
<g>
</g>
<g>
</g>
<g>
</g>
<g>
</g>
<g>
</g>
<g>
</g>
<g>
</g>
<g>
</g>
<g>
</g>
<g>
</g>
<g>
</g>
<g>
</g>
<g>
</g>
<g>
</g>
</svg>
