<?xml version="1.0" encoding="iso-8859-1"?>
<!-- Generator: Adobe Illustrator 19.0.0, SVG Export Plug-In . SVG Version: 6.00 Build 0)  -->
<svg version="1.1" id="Capa_1" xmlns="http://www.w3.org/2000/svg" xmlns:xlink="http://www.w3.org/1999/xlink" x="0px" y="0px"
	 viewBox="0 0 511.999 511.999" style="enable-background:new 0 0 511.999 511.999;" xml:space="preserve">
<path style="fill:#C86D5C;" d="M353.378,511.999L353.378,511.999c-16.949-14.733-26.68-36.087-26.68-58.543V325.834H185.303v127.621
	c0,22.457-9.732,43.811-26.68,58.543l0,0h194.755V511.999z"/>
<path style="fill:#B24D40;" d="M205.907,453.456V325.834h-20.604v127.621c0,22.456-9.732,43.811-26.68,58.543h20.604
	C196.175,497.267,205.907,475.912,205.907,453.456z"/>
<path style="fill:#00AE95;" d="M96.9,209.594L96.9,209.594L96.9,209.594c-41.556,20.768-17.676,83.736,27.202,71.724l0,0l0,0
	c-27.145,37.702,23.263,82.359,57.417,50.867l0,0l0,0c-6.515,45.999,58.873,62.115,74.48,18.358l0,0l0,0
	c15.607,43.757,80.995,27.641,74.48-18.358l0,0l0,0c34.155,31.492,84.562-13.166,57.417-50.867l0,0l0,0
	c44.878,12.012,68.758-50.956,27.202-71.724l0,0l0,0c45.319-10.219,37.202-77.073-9.246-76.15l0,0l0,0
	c35.378-30.11-2.877-85.533-43.576-63.131l0,0l0,0c17.334-43.103-42.297-74.399-67.923-35.648l0,0l0,0
	c-4.682-46.22-72.027-46.22-76.709,0l0,0l0,0c-25.626-38.75-85.257-7.453-67.923,35.648l0,0l0,0
	c-40.698-22.403-78.954,33.02-43.576,63.131l0,0l0,0C59.7,132.521,51.582,199.375,96.9,209.594z"/>
<g>
	<path style="fill:#A66354;" d="M189.691,108.731c-3.74,0-7.027-2.721-7.623-6.531c-0.155-0.986-3.618-24.306,10.868-38.167
		c3.083-2.95,7.975-2.842,10.924,0.241c2.95,3.083,2.842,7.974-0.241,10.924c-8.58,8.21-6.311,24.448-6.285,24.61
		c0.66,4.216-2.221,8.168-6.438,8.83C190.491,108.7,190.089,108.731,189.691,108.731z"/>
	<path style="fill:#A66354;" d="M180.405,258.703c-3.74,0-7.027-2.721-7.623-6.531c-0.155-0.986-3.618-24.306,10.868-38.167
		c3.083-2.95,7.975-2.842,10.924,0.241c2.95,3.083,2.842,7.974-0.241,10.924c-8.58,8.21-6.311,24.448-6.285,24.61
		c0.66,4.215-2.221,8.168-6.438,8.83C181.205,258.672,180.803,258.703,180.405,258.703z"/>
	<path style="fill:#A66354;" d="M322.31,108.731c-0.398,0-0.8-0.031-1.205-0.094c-4.208-0.659-7.087-4.599-6.441-8.806
		c0.046-0.318,2.292-16.429-6.282-24.634c-3.083-2.95-3.191-7.841-0.241-10.924c2.949-3.084,7.841-3.191,10.924-0.241
		c14.486,13.861,11.023,37.181,10.868,38.167C329.337,106.01,326.05,108.731,322.31,108.731z"/>
	<path style="fill:#A66354;" d="M331.596,258.703c-0.398,0-0.8-0.031-1.205-0.094c-4.207-0.659-7.087-4.599-6.441-8.806
		c0.044-0.304,2.295-16.426-6.282-24.634c-3.083-2.95-3.191-7.841-0.241-10.924c2.949-3.084,7.841-3.191,10.924-0.241
		c14.486,13.861,11.023,37.181,10.868,38.167C338.623,255.982,335.335,258.703,331.596,258.703z"/>
	<path style="fill:#A66354;" d="M255.985,189.196c-3.739,0-7.02-2.709-7.617-6.518c-0.155-0.986-3.618-24.307,10.868-38.168
		c3.083-2.95,7.975-2.842,10.924,0.241c2.95,3.083,2.842,7.974-0.241,10.924c-8.615,8.244-6.306,24.474-6.281,24.638
		c0.628,4.209-2.263,8.149-6.471,8.793C256.77,189.167,256.376,189.196,255.985,189.196z"/>
</g>
<g>
	<path style="fill:#3B484A;" d="M215.3,432.885c-4.267,0-7.726-3.459-7.726-7.726v-7.366c0-4.267,3.459-7.726,7.726-7.726
		c4.267,0,7.726,3.459,7.726,7.726v7.366C223.027,429.425,219.567,432.885,215.3,432.885z"/>
	<path style="fill:#3B484A;" d="M296.701,432.885c-4.267,0-7.726-3.459-7.726-7.726v-7.366c0-4.267,3.459-7.726,7.726-7.726
		c4.267,0,7.726,3.459,7.726,7.726v7.366C304.427,429.425,300.968,432.885,296.701,432.885z"/>
	<path style="fill:#3B484A;" d="M256.001,436.817c-6.144,0-11.926-2.583-15.863-7.086c-2.808-3.212-2.481-8.093,0.731-10.902
		c3.212-2.808,8.093-2.481,10.902,0.731c1.002,1.146,2.544,1.803,4.229,1.803c1.685,0,3.227-0.657,4.228-1.803
		c2.808-3.213,7.689-3.541,10.902-0.731c3.213,2.808,3.541,7.689,0.731,10.902C267.927,434.234,262.146,436.817,256.001,436.817z"/>
</g>
<ellipse style="fill:#FF5E6B;" cx="189.698" cy="116.214" rx="32.276" ry="29.456"/>
<path style="fill:#E63E4C;" d="M200.002,135.364c-17.823,0-32.271-13.188-32.271-29.456c0-5.126,1.437-9.945,3.96-14.143
	c-8.603,5.291-14.262,14.264-14.262,24.445c0,16.269,14.448,29.456,32.271,29.456c12.208,0,22.829-6.188,28.312-15.313
	C212.868,133.517,206.671,135.364,200.002,135.364z"/>
<ellipse style="fill:#FF5E6B;" cx="180.416" cy="266.178" rx="32.276" ry="29.456"/>
<path style="fill:#E63E4C;" d="M190.716,285.337c-17.823,0-32.271-13.188-32.271-29.456c0-5.126,1.437-9.945,3.96-14.143
	c-8.603,5.291-14.262,14.265-14.262,24.445c0,16.269,14.448,29.456,32.271,29.456c12.208,0,22.829-6.187,28.312-15.314
	C203.583,283.49,197.386,285.337,190.716,285.337z"/>
<ellipse style="fill:#FF5E6B;" cx="322.303" cy="116.214" rx="32.276" ry="29.456"/>
<path style="fill:#E63E4C;" d="M332.603,135.364c-17.823,0-32.271-13.188-32.271-29.456c0-5.126,1.437-9.945,3.96-14.143
	c-8.603,5.291-14.262,14.264-14.262,24.445c0,16.269,14.448,29.456,32.271,29.456c12.208,0,22.829-6.188,28.312-15.313
	C345.47,133.517,339.273,135.364,332.603,135.364z"/>
<ellipse style="fill:#FF5E6B;" cx="331.585" cy="266.178" rx="32.276" ry="29.456"/>
<path style="fill:#E63E4C;" d="M341.889,285.337c-17.823,0-32.271-13.188-32.271-29.456c0-5.126,1.437-9.945,3.96-14.143
	c-8.603,5.291-14.262,14.265-14.262,24.445c0,16.269,14.448,29.456,32.271,29.456c12.208,0,22.829-6.187,28.312-15.314
	C354.755,283.49,348.558,285.337,341.889,285.337z"/>
<ellipse style="fill:#FF5E6B;" cx="256.001" cy="196.692" rx="32.276" ry="29.456"/>
<path style="fill:#E63E4C;" d="M266.302,215.844c-17.823,0-32.271-13.188-32.271-29.456c0-5.126,1.437-9.945,3.96-14.143
	c-8.603,5.291-14.262,14.265-14.262,24.445c0,16.269,14.448,29.456,32.271,29.456c12.208,0,22.829-6.188,28.312-15.314
	C279.168,213.996,272.972,215.844,266.302,215.844z"/>
<g>
</g>
<g>
</g>
<g>
</g>
<g>
</g>
<g>
</g>
<g>
</g>
<g>
</g>
<g>
</g>
<g>
</g>
<g>
</g>
<g>
</g>
<g>
</g>
<g>
</g>
<g>
</g>
<g>
</g>
</svg>
