<?xml version="1.0" encoding="iso-8859-1"?>
<!-- Generator: Adobe Illustrator 19.0.0, SVG Export Plug-In . SVG Version: 6.00 Build 0)  -->
<svg version="1.1" id="Capa_1" xmlns="http://www.w3.org/2000/svg" xmlns:xlink="http://www.w3.org/1999/xlink" x="0px" y="0px"
	 viewBox="0 0 512 512" style="enable-background:new 0 0 512 512;" xml:space="preserve">
<path style="fill:#FF5E6B;" d="M368.911,339.061L256,319.729l-112.91,19.331c-16.383,22.801-26.036,50.764-26.036,80.984
	c0,15.881,2.666,31.139,7.574,45.353C134.271,493.32,160.636,512,190.177,512h131.647c29.54,0,55.906-18.68,65.548-46.603
	c4.908-14.213,7.574-29.471,7.574-45.353C394.947,389.825,385.294,361.862,368.911,339.061z"/>
<path style="fill:#E63E4C;" d="M165.836,465.397c-4.908-14.212-7.574-29.471-7.574-45.353c0-30.219,9.653-58.183,26.036-80.984
	l92.307-15.804l-20.604-3.527L143.09,339.061c-16.383,22.801-26.036,50.764-26.036,80.984c0,15.881,2.666,31.14,7.574,45.353
	C134.27,493.32,160.636,512,190.177,512h41.207C201.844,512,175.477,493.32,165.836,465.397z"/>
<path style="fill:#FAA330;" d="M294.277,218.748L256,199.218l-38.276,19.53c-2.184,14.88-5.298,30.262-9.697,44.609l47.182,18.041
	l48.766-18.041C299.575,249.01,296.461,233.628,294.277,218.748z"/>
<path style="fill:#F09318;" d="M238.932,263.357c4.399-14.347,7.513-29.729,9.697-44.609l22.824-11.645L256,199.218l-38.276,19.53
	c-2.184,14.88-5.298,30.262-9.697,44.609l47.182,18.041l15.708-5.811L238.932,263.357z"/>
<path style="fill:#FFCE1C;" d="M217.724,218.748c6.154-41.777,5.057-79.615,5.057-79.615L256,115.684l33.219,23.449
	c0,0-1.097,37.838,5.057,79.615L217.724,218.748L217.724,218.748z"/>
<path style="fill:#FAA330;" d="M253.686,139.134l17.767-12.541L256,115.685l-33.219,23.449c0,0,1.097,37.838-5.057,79.614h30.905
	C254.784,176.971,253.686,139.134,253.686,139.134z"/>
<path style="fill:#FFCE1C;" d="M339.053,319.732H172.947c16.562-10.972,27.66-32.206,35.079-56.376h95.948
	C311.393,287.527,322.49,308.76,339.053,319.732z"/>
<path style="fill:#FAA330;" d="M238.932,263.357h-30.905c-7.419,24.17-18.516,45.403-35.079,56.376h30.905
	C220.416,308.76,231.513,287.527,238.932,263.357z"/>
<path style="fill:#F0F0F0;" d="M375.266,300.397H136.734c-10.677,0-19.331,8.656-19.331,19.331l0,0
	c0,10.677,8.655,19.331,19.331,19.331h238.532c10.677,0,19.331-8.655,19.331-19.331l0,0
	C394.598,309.053,385.943,300.397,375.266,300.397z"/>
<path style="fill:#D9D9D9;" d="M158.61,319.728L158.61,319.728c0-10.677,8.655-19.331,19.331-19.331h-41.207
	c-10.677,0-19.331,8.655-19.331,19.331l0,0c0,10.677,8.655,19.331,19.331,19.331h41.207
	C167.264,339.061,158.61,330.405,158.61,319.728z"/>
<g>
	<path style="fill:#3B484A;" d="M188.577,426.83c-4.268,0-7.726-3.459-7.726-7.726v-12.203c0-4.267,3.458-7.726,7.726-7.726
		c4.268,0,7.726,3.459,7.726,7.726v12.203C196.303,423.371,192.844,426.83,188.577,426.83z"/>
	<path style="fill:#3B484A;" d="M323.423,426.83c-4.268,0-7.726-3.459-7.726-7.726v-12.203c0-4.267,3.458-7.726,7.726-7.726
		c4.268,0,7.726,3.459,7.726,7.726v12.203C331.15,423.371,327.691,426.83,323.423,426.83z"/>
	<path style="fill:#3B484A;" d="M256,433.344c-8.716,0-16.902-3.647-22.459-10.005c-2.808-3.213-2.48-8.094,0.733-10.902
		c3.213-2.807,8.093-2.48,10.902,0.733c2.622,3,6.566,4.72,10.823,4.72c4.256,0,8.201-1.72,10.824-4.721
		c2.807-3.213,7.69-3.541,10.901-0.732c3.213,2.808,3.542,7.689,0.732,10.902C272.9,429.698,264.715,433.344,256,433.344z"/>
</g>
<path style="fill:#2FC8B4;" d="M256,115.686c4.736-27.593-11.989-63.103-44.381-88.563C179.228,1.664,140.772-6.199,115.08,4.922
	c-4.736,27.593,11.989,63.103,44.381,88.563C191.851,118.944,230.306,126.806,256,115.686z"/>
<g>
	<path style="fill:#00AE95;" d="M256,115.686c0.513-2.987,0.758-6.069,0.776-9.218l-86.315-67.844
		c-3.355-2.637-8.213-2.055-10.849,1.3c-2.636,3.355-2.055,8.213,1.3,10.849l86.315,67.844
		C250.283,117.856,253.22,116.889,256,115.686z"/>
	<path style="fill:#00AE95;" d="M256,115.686c-4.736-27.593,11.989-63.103,44.381-88.563c32.391-25.46,70.847-33.322,96.54-22.201
		c4.736,27.593-11.989,63.103-44.381,88.563C320.15,118.944,281.694,126.806,256,115.686z"/>
</g>
<g>
	<path style="fill:#2FC8B4;" d="M352.389,39.925c-2.636-3.356-7.495-3.936-10.849-1.3l-86.315,67.844
		c0.018,3.148,0.263,6.232,0.776,9.218c2.78,1.203,5.717,2.171,8.773,2.931l86.315-67.844
		C354.444,48.137,355.025,43.279,352.389,39.925z"/>
	<path style="fill:#2FC8B4;" d="M256,115.686c-4.736,27.593,11.989,63.103,44.381,88.563c32.391,25.46,70.847,33.322,96.54,22.201
		c4.736-27.593-11.989-63.103-44.381-88.563C320.15,112.428,281.694,104.565,256,115.686z"/>
</g>
<g>
	<path style="fill:#00AE95;" d="M256,115.686c-0.513,2.985-0.758,6.069-0.776,9.217l86.315,67.844
		c1.415,1.113,3.099,1.652,4.77,1.652c2.289,0,4.555-1.013,6.079-2.952c2.637-3.355,2.055-8.213-1.3-10.849l-86.315-67.844
		C261.719,113.515,258.781,114.482,256,115.686z"/>
	<path style="fill:#00AE95;" d="M256,115.686c4.736,27.593-11.989,63.103-44.381,88.563c-32.391,25.46-70.847,33.322-96.54,22.201
		c-4.736-27.593,11.989-63.103,44.381-88.563C191.851,112.428,230.306,104.565,256,115.686z"/>
</g>
<path style="fill:#2FC8B4;" d="M256,115.686c-2.78-1.203-5.719-2.171-8.774-2.932l-86.315,67.844
	c-3.355,2.637-3.936,7.494-1.3,10.849c1.524,1.94,3.791,2.952,6.079,2.952c1.671,0,3.354-0.54,4.77-1.652l86.315-67.844
	C256.758,121.754,256.513,118.672,256,115.686z"/>
<g>
</g>
<g>
</g>
<g>
</g>
<g>
</g>
<g>
</g>
<g>
</g>
<g>
</g>
<g>
</g>
<g>
</g>
<g>
</g>
<g>
</g>
<g>
</g>
<g>
</g>
<g>
</g>
<g>
</g>
</svg>
