<?xml version="1.0" encoding="iso-8859-1"?>
<!-- Generator: Adobe Illustrator 19.0.0, SVG Export Plug-In . SVG Version: 6.00 Build 0)  -->
<svg version="1.1" id="Capa_1" xmlns="http://www.w3.org/2000/svg" xmlns:xlink="http://www.w3.org/1999/xlink" x="0px" y="0px"
	 viewBox="0 0 512.001 512.001" style="enable-background:new 0 0 512.001 512.001;" xml:space="preserve">
<g>
	<path style="fill:#3B484A;" d="M231.463,169.354c-0.411,0-0.829-0.033-1.249-0.101c-4.205-0.684-7.062-4.641-6.39-8.845l0,0
		c0.025-0.161,2.454-16.291-3.291-35.777c-7.576-25.7-25.221-45.037-52.445-57.476c-3.882-1.773-5.59-6.357-3.816-10.238
		c1.773-3.881,6.353-5.59,10.238-3.817c39.533,18.062,55.02,46.877,61.052,67.869c6.523,22.703,3.645,41.124,3.519,41.897
		C238.464,166.658,235.184,169.354,231.463,169.354z"/>
	<path style="fill:#3B484A;" d="M280.537,169.354c-3.721,0-7.001-2.696-7.617-6.487c-0.126-0.773-3.004-19.194,3.519-41.897
		c6.031-20.992,21.518-49.807,61.052-67.869c3.886-1.773,8.466-0.064,10.238,3.817c1.774,3.882,0.065,8.465-3.816,10.238
		c-27.448,12.54-45.153,32.082-52.622,58.082c-5.577,19.411-3.145,34.995-3.119,35.151c0.685,4.211-2.174,8.182-6.386,8.866
		C281.366,169.321,280.949,169.354,280.537,169.354z"/>
</g>
<g>
	<polygon style="fill:#FFCE1C;" points="344.964,209.144 381.348,180.645 429.131,166.245 477.568,193.081 495.896,238.247 
		476.26,287.993 450.732,315.484 427.822,331.849 444.841,361.304 446.15,391.605 440.259,424.548 415.386,443.778 372.839,449.014 
		333.566,437.233 290.365,384.868 296.255,297.156 	"/>
	<polygon style="fill:#FFCE1C;" points="167.037,209.144 130.652,180.645 82.869,166.245 34.432,193.081 16.104,238.247 
		35.74,287.993 61.268,315.484 84.178,331.849 67.16,361.304 65.85,391.605 71.741,424.548 96.615,443.778 139.161,449.014 
		178.435,437.233 221.635,384.868 215.745,297.156 	"/>
</g>
<path style="fill:#FF5E6B;" d="M378.564,473.401c1.606,0,3.214-0.041,4.824-0.123c17.278-0.873,33.889-6.358,48.035-15.861
	c14.59-9.8,25.523-23.172,31.615-38.67c9.956-25.326,5.931-53.221-10.835-79.243c14.534-7.916,26.77-18.135,36.547-30.552
	c13.505-17.15,21.453-37.701,22.984-59.426c2.828-40.106-17.023-77.535-49.394-93.135c-18.303-8.821-39.586-10.383-61.545-4.519
	c-22.956,6.131-46.521,20.195-70.04,41.802l26.569,28.922c33.222-30.52,65.286-41.753,87.966-30.825
	c18.017,8.682,28.975,30.783,27.268,54.993c-3.105,44.042-41.416,60.891-57.744,66.091c-6.482,2.064-11.434,7.336-13.088,13.934
	c-1.654,6.599,0.225,13.584,4.965,18.462c19.762,20.332,26.792,41.33,19.796,59.125c-6.573,16.719-24.689,28.646-45.083,29.676
	c-25.381,1.287-48.387-14.378-63.109-42.966L283.38,409.07c11.426,22.185,26.557,39.073,44.974,50.193
	C343.739,468.554,361.003,473.401,378.564,473.401z"/>
<g>
	<circle style="fill:#FAA330;" cx="417.347" cy="244.461" r="24.546"/>
	<circle style="fill:#FAA330;" cx="378.715" cy="385.925" r="19.317"/>
</g>
<path style="fill:#FF5E6B;" d="M133.436,473.401c-1.606,0-3.214-0.041-4.824-0.123c-17.278-0.873-33.889-6.358-48.035-15.861
	c-14.59-9.8-25.523-23.172-31.615-38.67c-9.956-25.326-5.931-53.221,10.835-79.243c-14.534-7.916-26.77-18.135-36.547-30.552
	c-13.504-17.15-21.451-37.701-22.983-59.426c-2.828-40.106,17.023-77.535,49.394-93.135c18.303-8.821,39.586-10.383,61.545-4.519
	c22.956,6.131,46.521,20.195,70.04,41.802l-26.569,28.922c-33.222-30.52-65.286-41.753-87.966-30.825
	c-18.017,8.682-28.975,30.783-27.268,54.993c3.105,44.042,41.416,60.891,57.744,66.091c6.482,2.064,11.434,7.336,13.088,13.934
	c1.654,6.599-0.225,13.584-4.965,18.462c-19.762,20.332-26.792,41.33-19.796,59.125c6.573,16.719,24.69,28.646,45.083,29.676
	c25.381,1.287,48.387-14.378,63.109-42.966l34.916,17.982c-11.426,22.185-26.557,39.073-44.974,50.193
	C168.262,468.554,150.997,473.401,133.436,473.401z"/>
<g>
	<circle style="fill:#FAA330;" cx="94.653" cy="244.461" r="24.546"/>
	<circle style="fill:#FAA330;" cx="133.285" cy="385.925" r="19.317"/>
</g>
<g>
	<path style="fill:#E63E4C;" d="M318.295,391.089l-34.916,17.982c10.052,19.521,22.978,34.934,38.482,45.932
		c9.727-8.363,18.225-18.64,25.066-30.524C335.719,417.163,325.9,405.855,318.295,391.089z"/>
	<path style="fill:#E63E4C;" d="M165.072,424.479c6.841,11.884,15.339,22.16,25.066,30.524
		c15.505-10.997,28.43-26.411,38.482-45.932l-34.916-17.982C186.1,405.855,176.282,417.163,165.072,424.479z"/>
</g>
<path style="fill:#FAA330;" d="M324.719,400.08c5.656-12.666,8.846-27.079,8.846-42.376c0-3.151-0.137-6.265-0.403-9.338H178.838
	c-0.265,3.073-0.403,6.185-0.403,9.338c0,15.297,3.19,29.71,8.846,42.376L256,434.845L324.719,400.08z"/>
<g>
	<path style="fill:#FF5E6B;" d="M333.163,348.367c-20.324,10.064-47.413,16.21-77.163,16.21s-56.839-6.146-77.163-16.21
		c3.966-46.039,37.005-81.974,77.163-81.974S329.197,302.328,333.163,348.367z"/>
	<path style="fill:#FF5E6B;" d="M324.719,400.08c-12.97,29.092-38.871,48.935-68.719,48.935s-55.749-19.843-68.719-48.935
		c19.126,7.795,42.926,12.411,68.719,12.411S305.593,407.876,324.719,400.08z"/>
</g>
<path style="fill:#F09318;" d="M187.281,400.08L187.281,400.08l36.742,18.589c-4.28-5.613-7.984-11.85-10.988-18.589
	c-5.656-12.666-8.846-27.079-8.846-42.376c0-3.151,0.137-6.265,0.403-9.338h-25.755c-0.265,3.073-0.403,6.185-0.403,9.338
	C178.435,373,181.626,387.414,187.281,400.08z"/>
<g>
	<path style="fill:#E63E4C;" d="M204.191,357.875c0-0.058-0.002-0.114-0.002-0.172c0-3.151,0.137-6.265,0.403-9.338
		c3.534-41.006,30.137-73.973,64.282-80.696c-1.017-0.2-2.04-0.376-3.069-0.532c-3.243-0.489-6.524-0.746-9.804-0.746
		c-37.247,0-65.712,31.023-74.355,65.233c-1.362,5.389-2.312,10.986-2.807,16.74C186.418,352.12,194.941,355.327,204.191,357.875z"
		/>
	<path style="fill:#E63E4C;" d="M116.35,195.644c12.258,5.86,25.2,14.894,38.328,26.954l26.569-28.922
		c-16.915-15.539-33.852-27.155-50.57-34.746C124.073,170.278,119.189,182.619,116.35,195.644z"/>
	<path style="fill:#E63E4C;" d="M381.324,158.93c-16.718,7.591-33.655,19.207-50.57,34.746l26.569,28.922
		c13.127-12.059,26.07-21.094,38.328-26.954C392.811,182.619,387.927,170.278,381.324,158.93z"/>
</g>
<ellipse style="fill:#FAA330;" cx="256" cy="222.209" rx="111.6" ry="102.112"/>
<path style="fill:#F09318;" d="M170.152,222.21c0-52.409,43.155-95.588,98.725-101.431c-4.226-0.444-8.522-0.681-12.877-0.681
	c-61.637,0-111.603,45.716-111.603,102.112S194.363,324.321,256,324.321c4.356,0,8.651-0.236,12.877-0.681
	C213.307,317.798,170.152,274.618,170.152,222.21z"/>
<g>
	<path style="fill:#3B484A;" d="M200.612,232.273c-4.268,0-7.726-3.459-7.726-7.726v-10.024c0-4.267,3.458-7.726,7.726-7.726
		c4.268,0,7.726,3.459,7.726,7.726v10.024C208.339,228.813,204.881,232.273,200.612,232.273z"/>
	<path style="fill:#3B484A;" d="M311.388,232.273c-4.268,0-7.726-3.459-7.726-7.726v-10.024c0-4.267,3.458-7.726,7.726-7.726
		s7.726,3.459,7.726,7.726v10.024C319.114,228.813,315.655,232.273,311.388,232.273z"/>
	<path style="fill:#3B484A;" d="M256,237.623c-7.557,0-14.659-3.168-19.488-8.691c-2.808-3.213-2.48-8.093,0.733-10.902
		c3.213-2.809,8.093-2.48,10.902,0.732c1.891,2.165,4.753,3.407,7.852,3.407c3.099,0,5.961-1.241,7.852-3.407
		c2.809-3.214,7.69-3.541,10.902-0.732c3.213,2.808,3.542,7.689,0.733,10.902C270.66,234.455,263.558,237.623,256,237.623z"/>
</g>
<g>
	<circle style="fill:#FF5E6B;" cx="171.299" cy="60.13" r="21.53"/>
	<circle style="fill:#FF5E6B;" cx="340.702" cy="60.13" r="21.53"/>
</g>
<path style="fill:#E63E4C;" d="M259.103,448.938c3.28-0.16,6.552-0.553,9.774-1.188c-21.324-4.195-39.698-18.625-51.356-38.859
	c-10.945-2.115-21.128-5.096-30.24-8.811c1.622,3.637,3.445,7.129,5.453,10.455c0.502,0.831,1.016,1.653,1.54,2.464
	c14.168,21.889,36.543,36.016,61.726,36.016C257.034,449.014,258.07,448.989,259.103,448.938z"/>
<g>
</g>
<g>
</g>
<g>
</g>
<g>
</g>
<g>
</g>
<g>
</g>
<g>
</g>
<g>
</g>
<g>
</g>
<g>
</g>
<g>
</g>
<g>
</g>
<g>
</g>
<g>
</g>
<g>
</g>
</svg>
