<?xml version="1.0" encoding="iso-8859-1"?>
<!-- Generator: Adobe Illustrator 19.0.0, SVG Export Plug-In . SVG Version: 6.00 Build 0)  -->
<svg version="1.1" id="Capa_1" xmlns="http://www.w3.org/2000/svg" xmlns:xlink="http://www.w3.org/1999/xlink" x="0px" y="0px"
	 viewBox="0 0 512 512" style="enable-background:new 0 0 512 512;" xml:space="preserve">
<g>
	<polygon style="fill:#FAA330;" points="406.697,287.449 372.602,308.587 372.603,308.588 372.602,308.588 372.602,308.587 
		349.353,359.44 372.602,410.293 372.602,410.292 373.772,410.292 405.143,432.249 436.516,410.292 437.685,410.292 
		437.685,308.588 	"/>
	<polygon style="fill:#FAA330;" points="139.398,308.587 139.398,308.588 139.397,308.588 139.398,308.587 105.303,287.449 
		74.315,308.588 74.315,410.292 75.484,410.292 106.857,432.249 138.228,410.292 139.398,410.292 139.398,410.293 162.647,359.44 	
		"/>
	<polygon style="fill:#FAA330;" points="256,37.403 74.315,178.649 74.315,206.882 256,253.475 437.685,206.882 437.685,178.649 	
		"/>
</g>
<path style="fill:#FF5E6B;" d="M450.861,216.978L256,67.658L61.139,216.978l-36.421-47.529L237.789,6.175
	c10.745-8.233,25.677-8.233,36.421,0l213.071,163.273L450.861,216.978z"/>
<g>
	<polygon style="fill:#F09318;" points="139.398,206.88 139.397,206.882 74.315,206.882 74.315,308.588 139.398,308.588 
		162.647,257.735 	"/>
	<polygon style="fill:#F09318;" points="162.647,461.147 139.398,410.292 74.315,410.292 74.315,511.998 139.397,511.998 
		139.398,512 	"/>
	<polygon style="fill:#F09318;" points="372.603,206.882 372.602,206.88 349.353,257.735 372.602,308.588 437.685,308.588 
		437.685,206.882 	"/>
	<polygon style="fill:#F09318;" points="437.685,410.292 372.602,410.292 349.353,461.147 372.602,512 372.603,511.998 
		437.685,511.998 	"/>
</g>
<polygon style="fill:#D9D9D9;" points="256,206.882 226.06,346.331 256,511.998 372.605,511.998 372.605,206.882 "/>
<rect x="139.394" y="206.881" style="fill:#F0F0F0;" width="116.606" height="305.119"/>
<g>
	<circle style="fill:#3B484A;" cx="222.643" cy="379.807" r="12.897"/>
	<circle style="fill:#3B484A;" cx="289.357" cy="379.807" r="12.897"/>
	<path style="fill:#3B484A;" d="M190.595,172.144c-4.267,0-7.726-3.459-7.726-7.726v-11.837c0-4.267,3.459-7.726,7.726-7.726
		c4.267,0,7.726,3.459,7.726,7.726v11.837C198.321,168.685,194.863,172.144,190.595,172.144z"/>
	<path style="fill:#3B484A;" d="M321.405,172.144c-4.267,0-7.726-3.459-7.726-7.726v-11.837c0-4.267,3.459-7.726,7.726-7.726
		s7.726,3.459,7.726,7.726v11.837C329.132,168.685,325.672,172.144,321.405,172.144z"/>
	<path style="fill:#3B484A;" d="M256,178.462c-8.521,0-16.526-3.565-21.96-9.785c-2.808-3.213-2.481-8.093,0.732-10.902
		c3.212-2.808,8.093-2.481,10.902,0.732c2.5,2.86,6.264,4.501,10.326,4.501s7.826-1.64,10.325-4.5
		c2.809-3.214,7.688-3.541,10.902-0.732c3.213,2.808,3.542,7.689,0.732,10.902C272.525,174.897,264.522,178.462,256,178.462z"/>
</g>
<g>
</g>
<g>
</g>
<g>
</g>
<g>
</g>
<g>
</g>
<g>
</g>
<g>
</g>
<g>
</g>
<g>
</g>
<g>
</g>
<g>
</g>
<g>
</g>
<g>
</g>
<g>
</g>
<g>
</g>
</svg>
