<?xml version="1.0" encoding="iso-8859-1"?>
<!-- Generator: Adobe Illustrator 19.0.0, SVG Export Plug-In . SVG Version: 6.00 Build 0)  -->
<svg version="1.1" id="Capa_1" xmlns="http://www.w3.org/2000/svg" xmlns:xlink="http://www.w3.org/1999/xlink" x="0px" y="0px"
	 viewBox="0 0 512 512" style="enable-background:new 0 0 512 512;" xml:space="preserve">
<path style="fill:#999999;" d="M176.732,239.077c4.043-9.629,9.547-17.171,17.143-19.034c8.35-2.047,15.432-7.535,18.76-15.461
	L323.765,0l0,0c0,0,60.26,56.392-57.314,234.822c-2.356,5.612-8.826,8.415-14.429,6.036c-14.081-5.978-20.001,4.918-25.897,18.958
	l-13.157,31.337l-34.652,7.278l-14.742-28.016L176.732,239.077z"/>
<path style="fill:#B3B3B3;" d="M335.268,239.077c-4.043-9.629-9.547-17.171-17.143-19.034c-8.35-2.047-15.432-7.535-18.76-15.461
	L188.235,0l0,0c0,0-60.26,56.392,57.314,234.822c2.356,5.612,8.826,8.415,14.429,6.036c14.081-5.978,20.001,4.918,25.897,18.958
	l13.157,31.337l34.652,7.278l14.742-28.016L335.268,239.077z"/>
<g>
	<path style="fill:#FF5E6B;" d="M309.754,316.693l77.471,184.517c3.762,8.962,14.077,13.176,23.039,9.414l16.941-7.112
		c8.962-3.762,13.176-14.077,9.414-23.039l-77.471-184.517L309.754,316.693z"/>
	<path style="fill:#FF5E6B;" d="M202.246,316.693L124.776,501.21c-3.762,8.962-14.077,13.176-23.039,9.414l-16.941-7.112
		c-8.962-3.762-13.176-14.077-9.414-23.039l77.471-184.517L202.246,316.693z"/>
</g>
<rect x="319.034" y="304.043" transform="matrix(0.922 -0.3871 0.3871 0.922 -102.0796 159.8608)" style="fill:#E63E4C;" width="53.568" height="58.603"/>
<path style="fill:#D9D9D9;" d="M348.425,270.414l-49.394,20.739c-5.826,2.446-8.565,9.151-6.119,14.977l12.589,29.983
	c2.446,5.826,9.151,8.565,14.977,6.119l49.394-20.739c5.826-2.446,8.565-9.151,6.119-14.977l-12.589-29.983
	C360.956,270.709,354.251,267.969,348.425,270.414z"/>
<polygon style="fill:#E63E4C;" points="152.852,295.955 130.165,349.991 130.166,349.991 179.557,370.727 179.559,370.728 
	202.246,316.693 "/>
<path style="fill:#D9D9D9;" d="M163.575,270.414l49.394,20.739c5.826,2.446,8.565,9.151,6.119,14.977L206.5,336.113
	c-2.446,5.826-9.151,8.565-14.977,6.119l-49.394-20.739c-5.826-2.446-8.565-9.151-6.119-14.977l12.589-29.983
	C151.044,270.709,157.75,267.969,163.575,270.414z"/>
<circle style="fill:#3B484A;" cx="256" cy="192.139" r="11.496"/>
<g>
</g>
<g>
</g>
<g>
</g>
<g>
</g>
<g>
</g>
<g>
</g>
<g>
</g>
<g>
</g>
<g>
</g>
<g>
</g>
<g>
</g>
<g>
</g>
<g>
</g>
<g>
</g>
<g>
</g>
</svg>
