<?xml version="1.0" encoding="iso-8859-1"?>
<!-- Generator: Adobe Illustrator 19.0.0, SVG Export Plug-In . SVG Version: 6.00 Build 0)  -->
<svg version="1.1" id="Capa_1" xmlns="http://www.w3.org/2000/svg" xmlns:xlink="http://www.w3.org/1999/xlink" x="0px" y="0px"
	 viewBox="0 0 511.999 511.999" style="enable-background:new 0 0 511.999 511.999;" xml:space="preserve">
<path style="fill:#2FC8B4;" d="M442.153,247.053c0,0,40.111,104.538,16.327,214.342c0,0,27.461,26.203,10.567,44.035
	s-44.111-7.508-44.111-7.508s-58.189,14.077-168.936,14.077S87.063,497.921,87.063,497.921s-27.217,25.34-44.111,7.508
	c-16.894-17.832,10.567-44.035,10.567-44.035C29.735,351.59,69.846,247.053,69.846,247.053H442.153z"/>
<path style="fill:#B24D40;" d="M90.546,173.599L90.546,173.599c-33.467-18.936-16.828-70.145,21.377-65.793l0,0l0,0
	c-22.872-30.911,13.157-70.925,46.289-51.409l0,0l0,0C149.891,18.856,199.08-3.044,221.41,28.26l0,0l0,0
	c7.667-37.68,61.512-37.68,69.179,0l0,0l0,0c22.33-31.304,71.519-9.403,63.198,28.137l0,0l0,0
	c33.132-19.516,69.161,20.5,46.289,51.409l0,0l0,0c38.205-4.353,54.844,46.857,21.377,65.793l0,0H90.546z"/>
<path style="fill:#00AE95;" d="M53.518,461.394c0,0-27.461,26.203-10.567,44.035s44.111-7.508,44.111-7.508s6.94,1.678,20.582,3.876
	c-52.675-114.981,0.182-239.309,0.182-239.309l-6.566-15.434H69.846C69.846,247.053,29.735,351.592,53.518,461.394z"/>
<path style="fill:#DF8B78;" d="M255.999,132.495c135.183,0,202.481,6.357,202.481,58.628v21.586
	c0,52.27-67.298,58.628-202.481,58.628s-202.481-6.357-202.481-58.628v-21.586C53.518,138.852,120.816,132.495,255.999,132.495z"/>
<path style="fill:#C86D5C;" d="M97.816,218.891v-33.952c0-17.576,3.086-31.842,9.244-43.425
	c-35.719,7.973-53.543,22.71-53.543,49.608v21.586c0,26.897,17.823,41.636,53.543,49.608
	C100.904,250.734,97.816,236.468,97.816,218.891z"/>
<g>
	<path style="fill:#3B484A;" d="M173.928,216.955c-4.268,0-7.726-3.459-7.726-7.726v-14.853c0-4.267,3.458-7.726,7.726-7.726
		c4.268,0,7.726,3.459,7.726,7.726v14.853C181.654,213.496,178.196,216.955,173.928,216.955z"/>
	<path style="fill:#3B484A;" d="M338.071,216.955c-4.268,0-7.726-3.459-7.726-7.726v-14.853c0-4.267,3.458-7.726,7.726-7.726
		s7.726,3.459,7.726,7.726v14.853C345.797,213.496,342.339,216.955,338.071,216.955z"/>
	<path style="fill:#3B484A;" d="M255.999,224.883c-10.126,0-19.629-4.229-26.075-11.604c-2.808-3.213-2.48-8.094,0.733-10.902
		c3.213-2.808,8.094-2.48,10.902,0.732c3.51,4.017,8.773,6.32,14.439,6.32c5.665,0,10.927-2.303,14.44-6.321
		c2.807-3.213,7.688-3.541,10.902-0.731c3.212,2.808,3.541,7.689,0.731,10.902C275.628,220.654,266.123,224.883,255.999,224.883z"/>
</g>
<path style="fill:#F0F0F0;" d="M368.798,314.928H143.201c-16.491,0-29.859,13.369-29.859,29.859v86.595
	c0,16.491,13.369,29.859,29.859,29.859h225.597c16.491,0,29.859-13.369,29.859-29.859v-86.595
	C398.657,328.297,385.288,314.928,368.798,314.928z"/>
<path style="fill:#2FC8B4;" d="M202.558,435.163c104.95,1.13,90.814-57.187,111.383-89.592c0,0-44.547-18.689-82.934,7.862
	C192.62,379.985,202.558,435.163,202.558,435.163z"/>
<path style="fill:#00AE95;" d="M202.561,442.891c-0.745,0-1.501-0.108-2.25-0.336c-4.083-1.24-6.386-5.557-5.146-9.638
	c0.65-2.139,16.422-52.582,60.737-71.49c3.927-1.675,8.465,0.15,10.139,4.074c1.674,3.925-0.15,8.464-4.074,10.139
	c-37.761,16.112-51.878,61.315-52.017,61.77C208.938,440.743,205.874,442.891,202.561,442.891z"/>
<g>
</g>
<g>
</g>
<g>
</g>
<g>
</g>
<g>
</g>
<g>
</g>
<g>
</g>
<g>
</g>
<g>
</g>
<g>
</g>
<g>
</g>
<g>
</g>
<g>
</g>
<g>
</g>
<g>
</g>
</svg>
