<?xml version="1.0" encoding="iso-8859-1"?>
<!-- Generator: Adobe Illustrator 19.0.0, SVG Export Plug-In . SVG Version: 6.00 Build 0)  -->
<svg version="1.1" id="Capa_1" xmlns="http://www.w3.org/2000/svg" xmlns:xlink="http://www.w3.org/1999/xlink" x="0px" y="0px"
	 viewBox="0 0 512 512" style="enable-background:new 0 0 512 512;" xml:space="preserve">
<path style="fill:#FAA330;" d="M260.977,370.814l-129.002,28.388l22.181,85.661C158.293,500.84,172.71,512,189.216,512h143.523
	c16.506,0,30.923-11.16,35.06-27.138l22.181-85.661L260.977,370.814z"/>
<path style="fill:#F09318;" d="M205.666,484.862l-22.181-85.661l103.248-22.721l-25.755-5.667l-129.002,28.388l22.181,85.661
	C158.294,500.84,172.711,512,189.217,512h51.509C224.22,512,209.803,500.84,205.666,484.862z"/>
<g>
	<path style="fill:#D9D9D9;" d="M385.876,51.587l-30.05,11.301l27.617,29.525l13.279-29.23
		C399.89,56.211,393.043,48.891,385.876,51.587z"/>
	<path style="fill:#D9D9D9;" d="M423.256,179.413l-29.164-13.423l-1.577,40.398l30.122-11.108
		C429.822,192.628,430.212,182.614,423.256,179.413z"/>
	<path style="fill:#D9D9D9;" d="M401.709,293.217l-23.652-21.711l-13.874,37.972l32.077-1.35
		C403.91,307.809,407.349,298.396,401.709,293.217z"/>
	<path style="fill:#D9D9D9;" d="M98.698,179.413l29.164-13.423l1.577,40.398l-30.122-11.108
		C92.133,192.628,91.742,182.614,98.698,179.413z"/>
	<path style="fill:#D9D9D9;" d="M120.246,293.217l23.652-21.711l13.874,37.972l-32.077-1.35
		C118.045,307.809,114.605,298.396,120.246,293.217z"/>
	<path style="fill:#D9D9D9;" d="M269.302,5.133c-3.44-6.845-13.21-6.845-16.649,0l-11.888,23.658h40.425L269.302,5.133z"/>
</g>
<path style="fill:#00AE95;" d="M161.402,342.426c0,0-142.298-318.251,99.575-318.251s99.575,318.251,99.575,318.251l-99.575,28.388
	L161.402,342.426z"/>
<path style="fill:#2FC8B4;" d="M311.498,342.426c0,0,116.388-318.251-50.52-318.251s-50.52,318.251-50.52,318.251l50.52,28.388
	L311.498,342.426z"/>
<g>
	<path style="fill:#3B484A;" d="M202.097,166.77c-4.267,0-7.726-3.459-7.726-7.726v-10.656c0-4.267,3.459-7.726,7.726-7.726
		c4.267,0,7.726,3.459,7.726,7.726v10.656C209.823,163.31,206.364,166.77,202.097,166.77z"/>
	<path style="fill:#3B484A;" d="M319.858,166.77c-4.267,0-7.726-3.459-7.726-7.726v-10.656c0-4.267,3.459-7.726,7.726-7.726
		s7.726,3.459,7.726,7.726v10.656C327.584,163.31,324.125,166.77,319.858,166.77z"/>
	<path style="fill:#3B484A;" d="M260.978,172.457c-7.894,0-15.312-3.307-20.35-9.072c-2.808-3.213-2.48-8.094,0.734-10.902
		c3.213-2.807,8.094-2.48,10.902,0.733c2.104,2.408,5.28,3.788,8.714,3.788c3.434,0,6.611-1.38,8.714-3.788
		c2.808-3.212,7.689-3.541,10.902-0.732c3.213,2.808,3.541,7.689,0.732,10.902C276.289,169.152,268.871,172.457,260.978,172.457z"/>
</g>
<path style="fill:#FF5E6B;" d="M144.877,76.112c4.473-18.085-18.543-29.812-30.545-15.564l0,0
	c-15.817-9.842-34.084,8.424-24.241,24.241c-14.248,12.002-2.521,35.018,15.564,30.545l0,0l0,0
	c7.011,17.26,32.525,13.218,33.86-5.363l0,0l0,0C158.096,108.637,162.137,83.123,144.877,76.112L144.877,76.112L144.877,76.112z"/>
<g>
	<circle style="fill:#FFCE1C;" cx="118.718" cy="89.183" r="11.394"/>
	<path style="fill:#FFCE1C;" d="M389.979,342.426H131.975c-7.006,0-12.686,5.679-12.686,12.686v31.404
		c0,7.006,5.679,12.686,12.686,12.686h258.005c7.006,0,12.686-5.679,12.686-12.686v-31.404
		C402.665,348.106,396.986,342.426,389.979,342.426z"/>
</g>
<path style="fill:#FAA330;" d="M170.798,386.516v-31.403c0-7.006,5.679-12.686,12.686-12.686h-51.509
	c-7.006,0-12.686,5.679-12.686,12.686v31.403c0,7.006,5.679,12.686,12.686,12.686h51.509
	C176.478,399.202,170.798,393.522,170.798,386.516z"/>
<g>
</g>
<g>
</g>
<g>
</g>
<g>
</g>
<g>
</g>
<g>
</g>
<g>
</g>
<g>
</g>
<g>
</g>
<g>
</g>
<g>
</g>
<g>
</g>
<g>
</g>
<g>
</g>
<g>
</g>
</svg>
