<?xml version="1.0" encoding="iso-8859-1"?>
<!-- Generator: Adobe Illustrator 19.0.0, SVG Export Plug-In . SVG Version: 6.00 Build 0)  -->
<svg version="1.1" id="Capa_1" xmlns="http://www.w3.org/2000/svg" xmlns:xlink="http://www.w3.org/1999/xlink" x="0px" y="0px"
	 viewBox="0 0 512 512" style="enable-background:new 0 0 512 512;" xml:space="preserve">
<polygon style="fill:#FFCE1C;" points="162.444,315.983 348.509,315.983 348.509,285.927 166.034,285.927 "/>
<path style="fill:#E63E4C;" d="M227.513,205.135c29.072,0.372,45.95-32.755,28.562-56.055l0,0l0,0
	c9.338-27.535-16.952-53.823-44.485-44.485l0,0l0,0c-23.302-17.388-56.427-0.51-56.055,28.562l0,0
	c-23.738,16.788-17.922,53.508,9.841,62.137l0,0C174.005,223.057,210.726,228.872,227.513,205.135L227.513,205.135z"/>
<g>
	<circle style="fill:#FAA330;" cx="205.068" cy="155.599" r="21.149"/>
	<path style="fill:#FAA330;" d="M284.488,205.135c-29.072,0.372-45.95-32.755-28.562-56.055l0,0l0,0
		c-9.338-27.535,16.952-53.823,44.485-44.485l0,0l0,0c23.302-17.388,56.427-0.51,56.055,28.562l0,0
		c23.738,16.788,17.922,53.508-9.841,62.137l0,0C337.996,223.057,301.275,228.872,284.488,205.135L284.488,205.135z"/>
</g>
<circle style="fill:#FF78A2;" cx="306.933" cy="155.599" r="21.149"/>
<g>
	<path style="fill:#C86D5C;" d="M422.655,338.33c-11.254,0-20.376-9.122-20.376-20.376V187.029
		c0-80.658-65.62-146.279-146.279-146.279s-146.279,65.62-146.279,146.279v130.925c0,11.254-9.122,20.376-20.376,20.376
		s-20.376-9.122-20.376-20.376V187.029C68.971,83.901,152.872,0,256,0S443.03,83.901,443.03,187.029v130.925
		C443.03,329.208,433.908,338.33,422.655,338.33z"/>
	<path style="fill:#C86D5C;" d="M456.501,352.928L256,328.142L55.5,352.928c0,0-3.519,91.642,57.006,146.212
		c9.168,8.266,21.065,12.861,33.41,12.861h220.169c12.344,0,24.241-4.595,33.41-12.861
		C460.02,444.57,456.501,352.928,456.501,352.928z"/>
</g>
<path style="fill:#B24D40;" d="M96.708,352.928l179.896-22.239L256,328.143L55.5,352.929c0,0-3.519,91.642,57.006,146.212
	c9.168,8.265,21.065,12.86,33.41,12.86h41.207c-12.344,0-24.241-4.595-33.41-12.861C93.189,444.569,96.708,352.928,96.708,352.928z"
	/>
<g>
	<path style="fill:#3B484A;" d="M170.932,434.647c-4.268,0-7.726-3.459-7.726-7.726v-15.396c0-4.267,3.458-7.726,7.726-7.726
		s7.726,3.459,7.726,7.726v15.396C178.659,431.187,175.2,434.647,170.932,434.647z"/>
	<path style="fill:#3B484A;" d="M341.069,434.647c-4.268,0-7.726-3.459-7.726-7.726v-15.396c0-4.267,3.458-7.726,7.726-7.726
		s7.726,3.459,7.726,7.726v15.396C348.795,431.187,345.336,434.647,341.069,434.647z"/>
	<path style="fill:#3B484A;" d="M256,442.865c-10.412,0-20.185-4.348-26.813-11.932c-2.809-3.213-2.481-8.094,0.732-10.902
		c3.211-2.807,8.093-2.481,10.901,0.732c3.693,4.225,9.225,6.648,15.179,6.648c5.953,0,11.485-2.423,15.179-6.648
		c2.808-3.213,7.69-3.541,10.901-0.732c3.213,2.808,3.542,7.689,0.732,10.902C276.185,438.516,266.413,442.865,256,442.865z"/>
</g>
<g>
	<path style="fill:#B24D40;" d="M109.722,317.954V187.029c0-10.804,1.188-21.334,3.421-31.477c-2.197-0.197-4.401-0.299-6.606-0.299
		c-12.805,0-25.262,3.379-36.239,9.543c-0.867,7.294-1.327,14.71-1.327,22.233v130.924c0,11.254,9.122,20.376,20.376,20.376
		S109.722,329.208,109.722,317.954z"/>
	<path style="fill:#B24D40;" d="M443.03,317.954V187.029c0-7.523-0.459-14.94-1.327-22.233c-10.978-6.164-23.435-9.543-36.239-9.543
		c-2.205,0-4.408,0.102-6.606,0.299c2.233,10.143,3.421,20.673,3.421,31.477v130.924c0,11.254,9.122,20.376,20.376,20.376
		C433.91,338.329,443.03,329.208,443.03,317.954z"/>
</g>
<path style="fill:#DF8B78;" d="M456.501,303.355h-401c-9.425,0-17.066,7.641-17.066,17.066v15.441
	c0,9.425,7.641,17.066,17.066,17.066h400.999c9.425,0,17.066-7.641,17.066-17.066v-15.441
	C473.565,310.996,465.926,303.355,456.501,303.355z"/>
<path style="fill:#C86D5C;" d="M79.643,335.863v-15.44c0-9.425,7.641-17.066,17.066-17.066H55.502
	c-9.425,0-17.066,7.641-17.066,17.066v15.44c0,9.425,7.641,17.066,17.066,17.066h41.207
	C87.283,352.928,79.643,345.287,79.643,335.863z"/>
<g>
	<path style="fill:#FF78A2;" d="M190.988,224.297c0.465-36.374-40.98-57.49-70.134-35.735l0,0l0,0
		c-34.449-11.682-67.34,21.208-55.658,55.658l0,0l0,0c-21.755,29.153-0.639,70.598,35.735,70.134l0,0
		c21.003,29.7,66.945,22.423,77.744-12.314l0,0C213.411,291.243,220.687,245.302,190.988,224.297L190.988,224.297z"/>
	<path style="fill:#FF78A2;" d="M321.013,224.297c-0.465-36.374,40.98-57.49,70.134-35.735l0,0l0,0
		c34.449-11.682,67.34,21.208,55.658,55.658l0,0l0,0c21.755,29.153,0.639,70.598-35.735,70.134l0,0
		c-21.003,29.7-66.945,22.423-77.744-12.314l0,0C298.59,291.243,291.314,245.302,321.013,224.297L321.013,224.297z"/>
</g>
<path style="fill:#FF5E6B;" d="M319.68,276.344c26.048-25.391,11.675-69.629-24.324-74.86l0,0l0,0
	c-16.099-32.62-62.613-32.62-78.712,0l0,0l0,0c-35.998,5.23-50.372,49.469-24.324,74.86l0,0
	c-6.149,35.852,31.482,63.193,63.68,46.265l0,0C288.199,339.537,325.829,312.196,319.68,276.344L319.68,276.344z"/>
<circle style="fill:#FFCE1C;" cx="256" cy="252.384" r="26.459"/>
<g>
	<circle style="fill:#FAA330;" cx="129.02" cy="252.384" r="26.459"/>
	<circle style="fill:#FAA330;" cx="382.981" cy="252.384" r="26.459"/>
</g>
<g>
</g>
<g>
</g>
<g>
</g>
<g>
</g>
<g>
</g>
<g>
</g>
<g>
</g>
<g>
</g>
<g>
</g>
<g>
</g>
<g>
</g>
<g>
</g>
<g>
</g>
<g>
</g>
<g>
</g>
</svg>
