<?xml version="1.0" encoding="iso-8859-1"?>
<!-- Generator: Adobe Illustrator 19.0.0, SVG Export Plug-In . SVG Version: 6.00 Build 0)  -->
<svg version="1.1" id="Capa_1" xmlns="http://www.w3.org/2000/svg" xmlns:xlink="http://www.w3.org/1999/xlink" x="0px" y="0px"
	 viewBox="0 0 512 512" style="enable-background:new 0 0 512 512;" xml:space="preserve">
<path style="fill:#2FC8B4;" d="M436.459,71.034L256,35.517L75.542,71.034c0,0-90.018,205.211-27.34,382.464
	C60.645,488.686,94.194,512,131.516,512h248.967c37.323,0,70.872-23.314,83.315-58.502
	C526.477,276.245,436.459,71.034,436.459,71.034z"/>
<path style="fill:#00AE95;" d="M89.409,453.498c-62.677-177.254,27.34-382.464,27.34-382.464l159.855-31.462L256,35.518
	L75.542,71.034c0,0-90.018,205.21-27.34,382.464C60.645,488.687,94.194,512,131.517,512h41.207
	C135.401,512,101.852,488.687,89.409,453.498z"/>
<path style="fill:#F0F0F0;" d="M355.428,143.467H156.572c-17.658,0-31.973,14.314-31.973,31.973v231.023
	c0,17.658,14.314,31.973,31.973,31.973h198.855c17.658,0,31.973-14.314,31.973-31.973V175.441
	C387.401,157.783,373.086,143.467,355.428,143.467z"/>
<path style="fill:#00AE95;" d="M261.794,325.122c-117.638-16.756-91.807-79.59-109.261-119.384c0,0,53.059-13.265,91.457,23.039
	S261.794,325.122,261.794,325.122z"/>
<g>
	<path style="fill:#2FC8B4;" d="M261.785,332.849c-3.778,0-7.079-2.772-7.637-6.619c-0.083-0.565-8.352-54.128-48.077-78.787
		c-3.625-2.251-4.74-7.013-2.49-10.64c2.251-3.625,7.012-4.74,10.64-2.49c45.944,28.52,54.864,87.222,55.222,89.708
		c0.607,4.224-2.324,8.14-6.548,8.747C262.521,332.824,262.151,332.849,261.785,332.849z"/>
	<path style="fill:#2FC8B4;" d="M250.207,378.531c117.638-16.756,91.807-79.59,109.261-119.384c0,0-53.059-13.265-91.457,23.039
		S250.207,378.531,250.207,378.531z"/>
</g>
<path style="fill:#00AE95;" d="M250.216,386.258c-0.366,0-0.736-0.026-1.109-0.079c-4.224-0.607-7.156-4.523-6.548-8.747
	c0.357-2.485,9.278-61.189,55.222-89.707c3.625-2.251,8.389-1.136,10.64,2.49c2.251,3.625,1.136,8.389-2.49,10.64
	c-39.89,24.761-47.999,78.24-48.075,78.778C257.301,383.481,253.996,386.258,250.216,386.258z"/>
<path style="fill:#F0F0F0;" d="M396.73,5.126c-0.125,0.07-0.249,0.14-0.373,0.211l0,0c-12.42,7.116-27.682,7.116-40.102,0
	s-27.682-7.116-40.102,0l0,0c-12.42,7.116-27.682,7.116-40.102,0l0,0c-12.42-7.116-27.682-7.116-40.102,0l0,0
	c-12.42,7.116-27.682,7.116-40.102,0s-27.682-7.116-40.102,0s-27.682,7.116-40.102,0l0,0c-0.125-0.071-0.248-0.141-0.373-0.211
	c-17.8-9.949-39.73,3.228-39.73,23.618v42.29h360.917v-42.29C436.459,8.354,414.53-4.823,396.73,5.126z"/>
<path style="fill:#D9D9D9;" d="M125.095,9.248c-3.263-0.889-6.442-2.186-9.452-3.911l0,0c-0.125-0.071-0.248-0.141-0.374-0.211
	C97.471-4.823,75.542,8.354,75.542,28.744v42.29h41.207v-42.29C116.749,20.856,120.039,14.056,125.095,9.248z"/>
<g>
</g>
<g>
</g>
<g>
</g>
<g>
</g>
<g>
</g>
<g>
</g>
<g>
</g>
<g>
</g>
<g>
</g>
<g>
</g>
<g>
</g>
<g>
</g>
<g>
</g>
<g>
</g>
<g>
</g>
</svg>
