<?xml version="1.0" encoding="iso-8859-1"?>
<!-- Generator: Adobe Illustrator 19.0.0, SVG Export Plug-In . SVG Version: 6.00 Build 0)  -->
<svg version="1.1" id="Capa_1" xmlns="http://www.w3.org/2000/svg" xmlns:xlink="http://www.w3.org/1999/xlink" x="0px" y="0px"
	 viewBox="0 0 512.001 512.001" style="enable-background:new 0 0 512.001 512.001;" xml:space="preserve">
<rect x="238.692" y="138.81" style="fill:#00AE95;" width="34.608" height="313.153"/>
<g>
	<path style="fill:#FF5E6B;" d="M394.309,26.36c-26.134,3.428-80.083,15.674-101.755,59.017L256,252.886
		c36.026,0,77.536-3.106,104.759-29.719c23.522-22.994,25.52-56.801,27.069-87.706c1.654-33.016,6.54-65.553,16.531-97.004
		C406.43,31.937,401.093,25.471,394.309,26.36z"/>
	<path style="fill:#FF5E6B;" d="M219.446,85.377c-21.672-43.343-75.62-55.59-101.755-59.017c-6.783-0.889-12.122,5.577-10.05,12.097
		c9.99,31.452,14.876,63.988,16.531,97.004c1.548,30.906,3.547,64.712,27.069,87.706c27.223,26.612,68.733,29.719,104.759,29.719
		L219.446,85.377z"/>
</g>
<g>
	<path style="fill:#E63E4C;" d="M360.76,223.168c18.839-18.416,23.868-43.769,25.92-69.012
		c-3.566-38.082-19.145-78.475-43.642-113.821c-19.91,8.881-39.411,22.895-50.485,45.042l-36.554,167.509
		C292.027,252.886,333.536,249.78,360.76,223.168z"/>
	<path style="fill:#E63E4C;" d="M125.319,154.156c2.052,25.242,7.082,50.594,25.92,69.011
		c27.223,26.612,68.733,29.719,104.759,29.719L219.446,85.377c-11.073-22.146-30.573-36.162-50.484-45.042
		C144.464,75.681,128.885,116.075,125.319,154.156z"/>
</g>
<path style="fill:#FF5E6B;" d="M264.384,2.685c-5.002-3.58-11.765-3.58-16.767,0C141.684,78.494,104.569,263.447,256,263.447
	S370.317,78.495,264.384,2.685z"/>
<g>
	<path style="fill:#3B484A;" d="M195.881,159.111c-4.211,0-7.623-3.413-7.623-7.623v-10.881c0-4.21,3.412-7.623,7.623-7.623
		c4.211,0,7.623,3.413,7.623,7.623v10.881C203.504,155.698,200.092,159.111,195.881,159.111z"/>
	<path style="fill:#3B484A;" d="M316.119,159.111c-4.211,0-7.623-3.413-7.623-7.623v-10.881c0-4.21,3.412-7.623,7.623-7.623
		c4.211,0,7.623,3.413,7.623,7.623v10.881C323.742,155.698,320.33,159.111,316.119,159.111z"/>
	<path style="fill:#3B484A;" d="M256,164.919c-7.983,0-15.483-3.343-20.577-9.171c-2.772-3.17-2.448-7.986,0.723-10.757
		c3.168-2.771,7.984-2.447,10.756,0.723c2.199,2.516,5.516,3.959,9.099,3.959c3.583,0,6.9-1.443,9.1-3.96
		c2.772-3.169,7.588-3.492,10.757-0.721c3.169,2.772,3.493,7.587,0.722,10.757C271.482,161.576,263.982,164.919,256,164.919z"/>
</g>
<path style="fill:#009983;" d="M273.307,360.957c-6.412,6.48-12.196,13.621-17.305,21.4c-5.11-7.78-10.894-14.921-17.306-21.4
	v91.009h34.612V360.957z"/>
<path style="fill:#00AE95;" d="M254.329,504.375c184.53,10.763,164.539-93.01,203.433-148.296c0,0-76.803-36.602-146.553,6.898
	S254.329,504.375,254.329,504.375z"/>
<path style="fill:#009983;" d="M366.223,389.22c-1.467-3.946-5.858-5.957-9.801-4.489c-31.949,11.873-60.977,35.895-83.95,69.474
	c-10.228,14.95-17.122,28.608-21.105,37.429l12.888,8.595l0,0c8.782-20.058,39.081-79.506,97.476-101.206
	C365.679,397.555,367.69,393.167,366.223,389.22z"/>
<path style="fill:#2FC8B4;" d="M257.671,504.375c-184.53,10.763-164.539-93.01-203.433-148.296c0,0,76.803-36.602,146.553,6.898
	S257.671,504.375,257.671,504.375z"/>
<path style="fill:#00AE95;" d="M257.671,512.001c-3.133,0-6.068-1.945-7.18-5.065c-0.41-1.135-30.176-81.884-100.222-107.914
	c-3.947-1.467-5.956-5.854-4.49-9.801c1.467-3.947,5.853-5.957,9.801-4.49c31.949,11.873,60.977,35.896,83.95,69.474
	c17.233,25.188,25.001,46.708,25.324,47.611c1.414,3.965-0.655,8.326-4.62,9.74C259.386,511.857,258.521,512.001,257.671,512.001z"
	/>
<g>
</g>
<g>
</g>
<g>
</g>
<g>
</g>
<g>
</g>
<g>
</g>
<g>
</g>
<g>
</g>
<g>
</g>
<g>
</g>
<g>
</g>
<g>
</g>
<g>
</g>
<g>
</g>
<g>
</g>
</svg>
