<?xml version="1.0" encoding="iso-8859-1"?>
<!-- Generator: Adobe Illustrator 19.0.0, SVG Export Plug-In . SVG Version: 6.00 Build 0)  -->
<svg version="1.1" id="Capa_1" xmlns="http://www.w3.org/2000/svg" xmlns:xlink="http://www.w3.org/1999/xlink" x="0px" y="0px"
	 viewBox="0 0 512 512" style="enable-background:new 0 0 512 512;" xml:space="preserve">
<g>
	<path style="fill:#FF5E6B;" d="M413.637,485.099c-20.602-23.549-74.987-98.849-36.549-202.337l-22.544-31.475l-63.084,26.439
		c0,0-8.009,199.558,105.171,233.578c7.592,2.282,15.733-1.187,19.279-8.279C418.852,497.14,417.969,490.051,413.637,485.099z"/>
	<path style="fill:#FF5E6B;" d="M194.007,292.951L146.263,237.5l-10.695,9.601c-12.284,11.027-18.185,27.502-15.696,43.821l0,0
		c1.529,10.025-0.078,20.289-4.646,29.343c-43.642,86.488-7.62,158.706,7.616,182.991c3.416,5.445,9.388,8.743,15.815,8.743l0,0
		c12.291,0,21.217-11.671,18.022-23.539C123.461,365.041,194.007,292.951,194.007,292.951z"/>
</g>
<path style="fill:#E63E4C;" d="M374.403,280.515c0.192-0.237,0.372-0.482,0.559-0.722l-20.418-28.505l-63.084,26.439
	c0,0-0.774,19.298,1.562,46.912c1.427,0.122,2.867,0.198,4.325,0.198c0.002,0,0.003,0,0.005,0c5.313,0,10.59-0.841,15.681-2.499
	C337.517,314.363,358.739,299.901,374.403,280.515z"/>
<path style="fill:#B3B3B3;" d="M351.206,237.501c-8.274-11.934-23.635-30.738-46.615-45.944l-26.984,49.111v33.418
	c0,13.425,13.089,23.024,25.854,18.866c14.437-4.703,32.386-13.894,46.901-31.859C355.847,254.304,356.178,244.671,351.206,237.501z
	"/>
<path style="fill:#E63E4C;" d="M146.263,237.501l-10.695,9.601c-8.534,7.661-13.977,17.953-15.677,28.993
	c0.974,1.517,2.026,2.997,3.176,4.42c13.681,16.932,31.603,30.106,52.234,38.483c9.914-17.053,18.706-26.047,18.706-26.047
	L146.263,237.501z"/>
<path style="fill:#B3B3B3;" d="M146.263,237.501c8.274-11.934,23.914-30.738,46.893-45.944l26.706,42.785v39.743
	c0,13.425-13.089,23.024-25.854,18.866c-14.437-4.703-32.386-13.894-46.901-31.859C141.622,254.304,141.291,244.671,146.263,237.501
	z"/>
<path style="fill:#999999;" d="M283.304,90.426c24.789-33.436,24.867-65.774,23.003-81.136c-0.462-3.81,3.687-6.509,6.952-4.491
	c85.479,52.847-8.667,176.71-8.667,176.71h-55.856L283.304,90.426z"/>
<path style="fill:#B3B3B3;" d="M192.878,0L192.878,0v130.077l90.426,86.349V90.426C283.304,40.485,242.819,0,192.878,0z"/>
<circle cx="218.78" cy="135.974" r="7.885"/>
<g>
	<path style="fill:#999999;" d="M304.592,191.556l-26.984,49.111v25.755h19.196c18.525,0,33.543-15.018,33.543-33.543V212.63
		C323.179,205.501,314.61,198.186,304.592,191.556z"/>
	<path style="fill:#999999;" d="M170.063,209.956c6.959,24.575,25.743,44.216,49.799,52.367v-27.982l-26.706-42.785
		C184.386,197.36,176.694,203.686,170.063,209.956z"/>
</g>
<path style="fill:#D9D9D9;" d="M276.861,153.779h-32.175v-24.285c0-14.139-11.328-25.633-25.404-25.9
	c-14.52-0.275-26.406,11.96-26.406,26.483v58.781c0,28.613,23.196,51.809,51.809,51.809l0,0h59.905v-59.158
	C304.592,166.194,292.176,153.779,276.861,153.779z"/>
<circle style="fill:#B3B3B3;" cx="248.737" cy="194.797" r="17"/>
<g>
</g>
<g>
</g>
<g>
</g>
<g>
</g>
<g>
</g>
<g>
</g>
<g>
</g>
<g>
</g>
<g>
</g>
<g>
</g>
<g>
</g>
<g>
</g>
<g>
</g>
<g>
</g>
<g>
</g>
</svg>
