<?xml version="1.0" encoding="iso-8859-1"?>
<!-- Generator: Adobe Illustrator 19.0.0, SVG Export Plug-In . SVG Version: 6.00 Build 0)  -->
<svg version="1.1" id="Capa_1" xmlns="http://www.w3.org/2000/svg" xmlns:xlink="http://www.w3.org/1999/xlink" x="0px" y="0px"
	 viewBox="0 0 512 512" style="enable-background:new 0 0 512 512;" xml:space="preserve">
<g>
	<path style="fill:#B24D40;" d="M497.042,127.377H14.958C6.697,127.377,0,134.074,0,142.335v47.408
		c0,8.261,6.697,14.958,14.958,14.958h482.084c8.261,0,14.958-6.697,14.958-14.958v-47.408
		C512,134.074,505.303,127.377,497.042,127.377z"/>
	<path style="fill:#B24D40;" d="M497.042,328.611H14.958C6.697,328.611,0,335.309,0,343.57v47.408
		c0,8.261,6.697,14.958,14.958,14.958h482.084c8.261,0,14.958-6.697,14.958-14.958V343.57
		C512,335.307,505.303,328.611,497.042,328.611z"/>
</g>
<path style="fill:#C86D5C;" d="M305.493,103.309l-31.062-23.786c-10.876-8.328-25.985-8.328-36.862,0l-31.062,23.786
	c-7.491,5.736-11.884,14.634-11.884,24.068v294.299c0,9.415,7.633,17.047,17.047,17.047h88.658c9.415,0,17.047-7.633,17.047-17.047
	V127.377C317.377,117.942,312.983,109.045,305.493,103.309z"/>
<g>
	<circle style="fill:#B3B3B3;" cx="256" cy="161.357" r="16.992"/>
	<circle style="fill:#B3B3B3;" cx="256" cy="367.27" r="16.992"/>
</g>
<path style="fill:#C86D5C;" d="M138.349,103.309l-31.062-23.786c-10.876-8.328-25.985-8.328-36.862,0l-31.062,23.786
	c-7.491,5.736-11.884,14.634-11.884,24.068v294.299c0,9.415,7.633,17.047,17.047,17.047h88.658c9.415,0,17.047-7.633,17.047-17.047
	V127.377C150.233,117.942,145.84,109.045,138.349,103.309z"/>
<g>
	<circle style="fill:#B3B3B3;" cx="88.853" cy="161.357" r="16.992"/>
	<circle style="fill:#B3B3B3;" cx="88.853" cy="367.27" r="16.992"/>
</g>
<path style="fill:#C86D5C;" d="M373.651,103.309l31.062-23.786c10.876-8.328,25.985-8.328,36.862,0l31.062,23.786
	c7.491,5.736,11.884,14.634,11.884,24.068v294.299c0,9.415-7.633,17.047-17.047,17.047h-88.658c-9.415,0-17.047-7.633-17.047-17.047
	V127.377C361.767,117.942,366.16,109.045,373.651,103.309z"/>
<g>
	<circle style="fill:#B3B3B3;" cx="423.147" cy="161.357" r="16.992"/>
	<circle style="fill:#B3B3B3;" cx="423.147" cy="367.27" r="16.992"/>
</g>
<g>
</g>
<g>
</g>
<g>
</g>
<g>
</g>
<g>
</g>
<g>
</g>
<g>
</g>
<g>
</g>
<g>
</g>
<g>
</g>
<g>
</g>
<g>
</g>
<g>
</g>
<g>
</g>
<g>
</g>
</svg>
