<?xml version="1.0" encoding="iso-8859-1"?>
<!-- Generator: Adobe Illustrator 19.0.0, SVG Export Plug-In . SVG Version: 6.00 Build 0)  -->
<svg version="1.1" id="Capa_1" xmlns="http://www.w3.org/2000/svg" xmlns:xlink="http://www.w3.org/1999/xlink" x="0px" y="0px"
	 viewBox="0 0 512 512" style="enable-background:new 0 0 512 512;" xml:space="preserve">
<path style="fill:#42C3E2;" d="M305.721,35.731C305.721,15.997,289.724,0,269.991,0H242.01c-19.733,0-35.731,15.997-35.731,35.731
	l0,0l0,0L256,51.914L305.721,35.731L305.721,35.731L305.721,35.731z"/>
<g>
	<path style="fill:#B3B3B3;" d="M223.003,35.731h-22.189c-8.492,0-15.374,6.884-15.374,15.374v16.992l10.51,13.27l27.055-13.27
		l32.997-16.183L223.003,35.731z"/>
	<path style="fill:#B3B3B3;" d="M288.997,35.731h22.189c8.492,0,15.374,6.884,15.374,15.374v16.992l-10.51,13.27l-27.054-13.27
		L256,51.914L288.997,35.731z"/>
</g>
<polygon style="fill:#D9D9D9;" points="223.003,35.731 223.003,68.097 257.069,85.384 288.997,68.097 288.997,35.731 "/>
<polygon style="fill:#42C3E2;" points="370.287,200.723 370.287,121.76 336.799,83.039 320.668,77.149 319.583,71.206 
	304.13,68.545 295.871,68.097 216.13,68.097 204.202,68.974 187.548,74.125 185.44,81.705 185.44,81.705 163.593,91.39 
	143.852,137.136 143.852,201.482 181.423,361.471 181.423,386.213 148.648,475.328 148.648,493.664 363.352,493.664 
	363.352,475.328 334.756,384.155 335.281,361.471 "/>
<g>
	<path style="fill:#00A6C8;" d="M162.721,137.136c0,0,30.651-69.04,53.408-69.04h-30.69c-46.462,0-76.789,69.04-76.789,69.04
		l33.062,18.336L162.721,137.136z"/>
	<polygon style="fill:#00A6C8;" points="162.721,173.808 208.152,361.471 168.415,379.807 156.471,361.471 108.651,173.808 
		141.713,155.472 	"/>
	<path style="fill:#00A6C8;" d="M168.415,379.807l-11.943,18.336c0,0-1.057,43.308-34.934,77.185l12.813,18.336l36.364-18.336
		c33.878-33.878,34.934-77.185,34.934-77.185L168.415,379.807z"/>
	<path style="fill:#00A6C8;" d="M349.279,137.136c0,0-30.651-69.04-53.408-69.04h30.69c46.462,0,76.789,69.04,76.789,69.04
		l-33.062,18.336L349.279,137.136z"/>
	<polygon style="fill:#00A6C8;" points="349.279,173.808 303.848,361.471 343.585,379.807 355.529,361.471 403.349,173.808 
		370.287,155.472 	"/>
	<path style="fill:#00A6C8;" d="M343.585,379.807l11.943,18.336c0,0,1.057,43.308,34.934,77.185l-12.813,18.336l-36.364-18.336
		c-33.878-33.878-34.934-77.185-34.934-77.185L343.585,379.807z"/>
</g>
<path style="fill:#B3B3B3;" d="M162.721,137.136h-54.07c-5.89,0-10.664,4.775-10.664,10.664v15.342
	c0,5.89,4.775,10.664,10.664,10.664h54.07l22.718-18.336L162.721,137.136z"/>
<polygon style="fill:#D9D9D9;" points="323.818,361.471 188.182,361.471 175.357,379.807 188.182,398.143 323.818,398.143 
	336.643,379.807 "/>
<g>
	<path style="fill:#B3B3B3;" d="M156.471,361.471c-4.321,0-7.823,3.503-7.823,7.823v21.024c0,4.321,3.503,7.823,7.823,7.823h31.71
		V361.47h-31.71V361.471z"/>
	<path style="fill:#B3B3B3;" d="M170.714,475.329H106.33c-4.608,0-8.343,3.735-8.343,8.343v19.984c0,4.608,3.735,8.343,8.343,8.343
		h64.384l19.004-18.336L170.714,475.329z"/>
	<path style="fill:#B3B3B3;" d="M349.279,137.136h54.07c5.89,0,10.664,4.775,10.664,10.664v15.342
		c0,5.89-4.775,10.664-10.664,10.664h-54.07l-22.718-18.336L349.279,137.136z"/>
	<path style="fill:#B3B3B3;" d="M355.529,361.471c4.321,0,7.824,3.503,7.824,7.823v21.024c0,4.321-3.503,7.823-7.824,7.823h-31.71
		V361.47h31.71V361.471z"/>
	<path style="fill:#B3B3B3;" d="M341.286,475.329h64.384c4.608,0,8.343,3.735,8.343,8.343v19.984c0,4.608-3.735,8.343-8.343,8.343
		h-64.384l-19.004-18.336L341.286,475.329z"/>
</g>
<g>
	<rect x="162.717" y="137.138" style="fill:#D9D9D9;" width="186.555" height="36.671"/>
	<rect x="170.711" y="475.326" style="fill:#D9D9D9;" width="170.567" height="36.671"/>
</g>
<g>
	<path style="fill:#3B484A;" d="M204.405,229.639c-4.267,0-7.726-3.459-7.726-7.726v-9.338c0-4.267,3.459-7.726,7.726-7.726
		s7.726,3.459,7.726,7.726v9.338C212.132,226.18,208.673,229.639,204.405,229.639z"/>
	<path style="fill:#3B484A;" d="M307.595,229.639c-4.267,0-7.726-3.459-7.726-7.726v-9.338c0-4.267,3.459-7.726,7.726-7.726
		s7.726,3.459,7.726,7.726v9.338C315.321,226.18,311.862,229.639,307.595,229.639z"/>
	<path style="fill:#3B484A;" d="M256,234.624c-7.193,0-13.955-3.016-18.551-8.275c-2.808-3.213-2.481-8.094,0.732-10.902
		c3.213-2.807,8.094-2.481,10.902,0.732c1.663,1.902,4.184,2.993,6.917,2.993c2.733,0,5.255-1.091,6.917-2.993
		c2.809-3.213,7.689-3.541,10.902-0.732c3.213,2.808,3.541,7.689,0.731,10.902C269.954,231.607,263.192,234.624,256,234.624z"/>
</g>
<g>
</g>
<g>
</g>
<g>
</g>
<g>
</g>
<g>
</g>
<g>
</g>
<g>
</g>
<g>
</g>
<g>
</g>
<g>
</g>
<g>
</g>
<g>
</g>
<g>
</g>
<g>
</g>
<g>
</g>
</svg>
