<?xml version="1.0" encoding="iso-8859-1"?>
<!-- Generator: Adobe Illustrator 19.0.0, SVG Export Plug-In . SVG Version: 6.00 Build 0)  -->
<svg version="1.1" id="Capa_1" xmlns="http://www.w3.org/2000/svg" xmlns:xlink="http://www.w3.org/1999/xlink" x="0px" y="0px"
	 viewBox="0 0 512.001 512.001" style="enable-background:new 0 0 512.001 512.001;" xml:space="preserve">
<g>
	<path style="fill:#FF5E6B;" d="M306.269,128.092L256,113.234l-50.269,14.858c-0.753,4.157-0.98,8.479-0.65,12.895l0.98,12.895
		L256,173.066l49.939-19.184l0.98-12.895C307.25,136.572,307.022,132.25,306.269,128.092z"/>
	<path style="fill:#FF5E6B;" d="M107.792,192.742l-13.771-3.837c-10.016-2.796-19.92,4.735-19.92,15.123v56.541
		c0,10.388,9.903,17.919,19.92,15.123l13.771-3.837l19.629-36.922L107.792,192.742z"/>
	<path style="fill:#FF5E6B;" d="M404.208,192.742l13.771-3.837c10.016-2.796,19.92,4.735,19.92,15.123v56.541
		c0,10.388-9.903,17.919-19.92,15.123l-13.771-3.837l-19.629-36.922L404.208,192.742z"/>
</g>
<rect x="216.75" y="236.334" style="fill:#B3B3B3;" width="78.51" height="158.864"/>
<path style="fill:#999999;" d="M295.255,312.024c-15.877,4.931-28.989,11.153-39.255,18.655
	c-10.266-7.502-23.378-13.723-39.255-18.655V395.2h78.51V312.024z"/>
<path style="fill:#2FC8B4;" d="M493.998,349.524c-20.139,1.126-50.181,7.486-77.795,31.648c0,0,2.479-17.347,14.624-34.968
	c5.267-7.641-1.105-17.885-10.249-16.299c-26.392,4.579-65.188,16.342-90.365,46.555c0,0,1.581-16.336,8.62-31.032
	c3.712-7.75-2.823-16.434-11.267-14.842c-26.065,4.916-63.328,16.025-71.564,39.984c-8.235-23.959-45.499-35.068-71.564-39.984
	c-8.444-1.593-14.979,7.092-11.267,14.842c7.038,14.697,8.62,31.032,8.62,31.032c-25.178-30.213-63.974-41.976-90.365-46.555
	c-9.144-1.586-15.517,8.657-10.249,16.299C93.321,363.825,95.8,381.172,95.8,381.172c-27.614-24.162-57.655-30.523-77.795-31.648
	c-8.805-0.492-14.223,9.418-9.03,16.547c7.359,10.101,13.608,22.085,18.407,32.667c7.511,16.562,24.008,27.198,42.194,27.198
	h372.851c18.186,0,34.683-10.636,42.194-27.198c4.8-10.582,11.049-22.566,18.407-32.667
	C508.221,358.942,502.803,349.032,493.998,349.524z"/>
<path style="fill:#00AE95;" d="M58.286,398.738c-4.8-10.582-11.049-22.566-18.407-32.667c-3.205-4.399-2.365-9.854,0.814-13.274
	c-8.342-1.956-16.055-2.902-22.69-3.273c-8.805-0.492-14.223,9.418-9.03,16.547c7.359,10.101,13.608,22.085,18.407,32.667
	c7.511,16.562,24.008,27.197,42.194,27.197h30.905C82.294,425.935,65.798,415.299,58.286,398.738z"/>
<g>
	<polygon style="fill:#B3B3B3;" points="305.939,153.882 299.616,237.368 212.384,237.368 206.061,153.882 	"/>
	<polygon style="fill:#B3B3B3;" points="185.058,214.291 185.058,250.304 107.792,271.854 107.792,192.742 	"/>
</g>
<path style="fill:#42C3E2;" d="M3.599,175.441c-11.774,11.774,5.855,37.26,45.384,45.384
	C40.859,181.296,15.373,163.666,3.599,175.441z"/>
<path style="fill:#00A6C8;" d="M3.599,289.153c-11.774-11.774,5.855-37.26,45.384-45.384
	C40.859,283.298,15.373,300.926,3.599,289.153z"/>
<polygon style="fill:#B3B3B3;" points="326.943,214.291 326.943,250.304 404.208,271.854 404.208,192.742 "/>
<path style="fill:#42C3E2;" d="M508.402,175.441c11.774,11.774-5.855,37.26-45.384,45.384
	C471.141,181.296,496.628,163.666,508.402,175.441z"/>
<path style="fill:#00A6C8;" d="M508.402,289.153c11.774-11.774-5.855-37.26-45.384-45.384
	C471.141,283.298,496.628,300.926,508.402,289.153z"/>
<path style="fill:#D9D9D9;" d="M311.845,188.077h-111.69c-24.421,0-44.219,19.798-44.219,44.219l0,0
	c0,24.421,19.798,44.22,44.219,44.22h111.689c24.421,0,44.22-19.798,44.22-44.219l0,0
	C356.064,207.875,336.267,188.077,311.845,188.077z"/>
<g>
	<path style="fill:#3B484A;" d="M198.875,243.379c-4.268,0-7.726-3.459-7.726-7.726v-10.339c0-4.267,3.458-7.726,7.726-7.726
		c4.268,0,7.726,3.459,7.726,7.726v10.339C206.601,239.919,203.142,243.379,198.875,243.379z"/>
	<path style="fill:#3B484A;" d="M313.127,243.379c-4.268,0-7.726-3.459-7.726-7.726v-10.339c0-4.267,3.458-7.726,7.726-7.726
		s7.726,3.459,7.726,7.726v10.339C320.853,239.919,317.394,243.379,313.127,243.379z"/>
	<path style="fill:#3B484A;" d="M256,248.897c-7.724,0-14.984-3.236-19.917-8.879c-2.809-3.212-2.481-8.093,0.731-10.902
		c3.213-2.808,8.092-2.482,10.902,0.731c1.998,2.286,5.017,3.596,8.283,3.596c3.266,0,6.285-1.311,8.283-3.596
		c2.808-3.213,7.688-3.541,10.902-0.731c3.212,2.808,3.541,7.689,0.731,10.902C270.984,245.66,263.725,248.897,256,248.897z"/>
</g>
<path style="fill:#D9D9D9;" d="M306.269,128.092H205.731c4.23-23.716,24.975-42.027,50.269-42.027S302.04,104.376,306.269,128.092z"
	/>
<g>
</g>
<g>
</g>
<g>
</g>
<g>
</g>
<g>
</g>
<g>
</g>
<g>
</g>
<g>
</g>
<g>
</g>
<g>
</g>
<g>
</g>
<g>
</g>
<g>
</g>
<g>
</g>
<g>
</g>
</svg>
