<?xml version="1.0" encoding="iso-8859-1"?>
<!-- Generator: Adobe Illustrator 19.0.0, SVG Export Plug-In . SVG Version: 6.00 Build 0)  -->
<svg version="1.1" id="Capa_1" xmlns="http://www.w3.org/2000/svg" xmlns:xlink="http://www.w3.org/1999/xlink" x="0px" y="0px"
	 viewBox="0 0 512 512" style="enable-background:new 0 0 512 512;" xml:space="preserve">
<path style="fill:#B3B3B3;" d="M423.454,252.195l-27.898,130.618c-3.491,16.341-16.393,28.686-32.871,31.453l-30.472,5.118
	c-2.267,0.38-4.532,0.566-6.767,0.566c-15.947,0-30.617-9.412-37.1-24.47l-36.682-85.198l30.48-13.122l36.681,85.198
	c1.331,3.088,4.578,4.862,7.892,4.3l30.472-5.117c2.965-0.499,5.286-2.721,5.914-5.66L391,245.263L423.454,252.195z"/>
<path style="fill:#B24D40;" d="M351.603,187.258c27.229,0,49.302-15.847,49.302-35.397s-22.074-35.397-49.302-35.397
	c-2.802,0-5.545,0.177-8.221,0.5c-6.526-14.061-24.993-24.202-46.771-24.202c-4.067,0-8.015,0.361-11.796,1.027
	c-8.629-10.274-24.319-17.145-42.248-17.145s-33.619,6.871-42.248,17.145c-3.781-0.667-7.728-1.027-11.796-1.027
	c-21.778,0-40.245,10.142-46.771,24.202c-2.674-0.322-5.418-0.5-8.221-0.5c-27.229,0-49.302,15.847-49.302,35.397
	s22.074,35.397,49.302,35.397H351.603z"/>
<circle style="fill:#3B484A;" cx="113.371" cy="354.838" r="80.519"/>
<circle style="fill:#D9D9D9;" cx="113.371" cy="354.838" r="36.907"/>
<polygon style="fill:#FF5E6B;" points="242.568,161.027 68.744,177.778 228.234,313.113 397.061,252.603 416.392,177.778 "/>
<polygon style="fill:#E63E4C;" points="416.392,177.778 242.568,161.027 68.744,177.778 105.165,208.683 408.408,208.683 "/>
<path style="fill:#FF5E6B;" d="M416.392,144.277H68.744c-9.251,0-16.751,7.5-16.751,16.751l0,0c0,9.251,7.5,16.751,16.751,16.751
	h347.648c9.251,0,16.751-7.5,16.751-16.751l0,0C433.142,151.776,425.643,144.277,416.392,144.277z"/>
<g>
	<polygon style="fill:#999999;" points="282.143,297.16 251.664,310.281 268.615,349.655 299.914,338.437 	"/>
	<polygon style="fill:#999999;" points="423.454,252.195 391,245.264 377.001,310.808 413.747,297.638 	"/>
</g>
<path style="fill:#B3B3B3;" d="M16.597,406.123c-6.807,0-13.191-4.222-15.62-10.999c-3.092-8.626,1.395-18.126,10.022-21.218
	l478.807-171.612c8.627-3.094,18.126,1.395,21.218,10.022c3.092,8.627-1.395,18.126-10.022,21.218L22.195,405.146
	C20.345,405.809,18.455,406.123,16.597,406.123z"/>
<g>
</g>
<g>
</g>
<g>
</g>
<g>
</g>
<g>
</g>
<g>
</g>
<g>
</g>
<g>
</g>
<g>
</g>
<g>
</g>
<g>
</g>
<g>
</g>
<g>
</g>
<g>
</g>
<g>
</g>
</svg>
