<?xml version="1.0" encoding="iso-8859-1"?>
<!-- Generator: Adobe Illustrator 19.0.0, SVG Export Plug-In . SVG Version: 6.00 Build 0)  -->
<svg version="1.1" id="Capa_1" xmlns="http://www.w3.org/2000/svg" xmlns:xlink="http://www.w3.org/1999/xlink" x="0px" y="0px"
	 viewBox="0 0 512 512" style="enable-background:new 0 0 512 512;" xml:space="preserve">
<g>
	<path style="fill:#00A6C8;" d="M421.94,305.66c-3.548,0.001-7.113-1.211-10.028-3.69c-6.516-5.541-7.304-15.316-1.763-21.832
		l64.196-75.473c7.07-8.313,8.696-20.092,4.141-30.008l-30.366-66.121c-4.58-9.971-14.629-16.414-25.6-16.414
		c-11.422,0-21.634,6.815-26.015,17.363l-11.476,27.625c-3.281,7.899-12.344,11.643-20.245,8.36
		c-7.899-3.281-11.642-12.346-8.361-20.244L367.9,97.602c9.199-22.146,30.64-36.455,54.621-36.455
		c23.036,0,44.134,13.527,53.748,34.461l30.366,66.121c9.563,20.821,6.15,45.552-8.695,63.005l-64.196,75.474
		C430.681,303.808,426.324,305.66,421.94,305.66z"/>
	<polygon style="fill:#00A6C8;" points="244.124,378.976 92.792,182.651 63.199,177.284 57.324,206.781 184.368,419.63 	"/>
</g>
<g>
	<path style="fill:#0095B3;" d="M141.597,245.965c-5.619,23.387-10.946,49.467-14.957,76.946l57.728,96.719l59.757-40.655
		L141.597,245.965z"/>
	<path style="fill:#0095B3;" d="M465.006,215.645l-54.856,64.493c-5.541,6.516-4.753,16.29,1.763,21.832
		c2.914,2.479,6.48,3.691,10.028,3.691c4.384,0,8.741-1.852,11.804-5.453l40.605-47.739
		C471.294,239.345,468.124,226.994,465.006,215.645z"/>
</g>
<path style="fill:#42C3E2;" d="M463.968,414.716c0-129.499-51.625-262.143-51.625-262.143l-110.301-18.068l-99.977,18.068
	c0,0-51.625,132.645-51.625,262.143l151.601,18.068L463.968,414.716z"/>
<path style="fill:#0095B3;" d="M369.663,93.755c-0.628,1.255-1.219,2.535-1.763,3.846l-11.476,27.624
	c-3.281,7.898,0.462,16.963,8.361,20.244c7.902,3.282,16.964-0.462,20.245-8.361l11.476-27.624
	c1.798-4.329,4.589-8.015,8.031-10.873L369.663,93.755z"/>
<g>
	<path style="fill:#00A6C8;" d="M412.344,116.436H202.065c-9.979,0-18.068,8.09-18.068,18.068l0,0
		c0,9.979,8.09,18.068,18.068,18.068h210.278c9.979,0,18.068-8.09,18.068-18.068l0,0
		C430.412,124.526,422.322,116.436,412.344,116.436z"/>
	<path style="fill:#00A6C8;" d="M463.968,414.716H150.44c-9.979,0-18.068,8.09-18.068,18.068l0,0c0,9.979,8.09,18.068,18.068,18.068
		h313.528c9.979,0,18.068-8.09,18.068-18.068l0,0C482.038,422.806,473.948,414.716,463.968,414.716z"/>
</g>
<g>
	<path style="fill:#3B484A;" d="M240.584,291.463c-4.267,0-7.726-3.459-7.726-7.726V271.68c0-4.267,3.459-7.726,7.726-7.726
		c4.267,0,7.726,3.459,7.726,7.726v12.057C248.31,288.004,244.851,291.463,240.584,291.463z"/>
	<path style="fill:#3B484A;" d="M373.824,291.463c-4.267,0-7.726-3.459-7.726-7.726V271.68c0-4.267,3.459-7.726,7.726-7.726
		c4.267,0,7.726,3.459,7.726,7.726v12.057C381.551,288.004,378.091,291.463,373.824,291.463z"/>
	<path style="fill:#3B484A;" d="M307.204,297.899c-8.638,0-16.752-3.615-22.26-9.917c-2.808-3.213-2.481-8.094,0.732-10.902
		c3.212-2.808,8.093-2.481,10.902,0.732c2.573,2.944,6.446,4.634,10.625,4.634c4.179,0,8.052-1.688,10.625-4.633
		c2.808-3.213,7.689-3.541,10.902-0.732c3.213,2.808,3.541,7.689,0.732,10.902C323.955,294.285,315.843,297.899,307.204,297.899z"/>
</g>
<polygon style="fill:#0095B3;" points="85.571,145.925 92.792,182.651 57.324,206.781 25.815,186.58 46.401,152.593 "/>
<path style="fill:#42C3E2;" d="M25.815,186.58l59.757-40.655c7.544-5.132,9.498-15.407,4.366-22.951l0,0
	c-5.132-7.543-15.407-9.498-22.951-4.366L7.229,159.262c-7.544,5.132-9.498,15.407-4.366,22.951l0,0
	C7.996,189.757,18.271,191.712,25.815,186.58z"/>
<g>
</g>
<g>
</g>
<g>
</g>
<g>
</g>
<g>
</g>
<g>
</g>
<g>
</g>
<g>
</g>
<g>
</g>
<g>
</g>
<g>
</g>
<g>
</g>
<g>
</g>
<g>
</g>
<g>
</g>
</svg>
