<?xml version="1.0" encoding="iso-8859-1"?>
<!-- Generator: Adobe Illustrator 19.0.0, SVG Export Plug-In . SVG Version: 6.00 Build 0)  -->
<svg version="1.1" id="Capa_1" xmlns="http://www.w3.org/2000/svg" xmlns:xlink="http://www.w3.org/1999/xlink" x="0px" y="0px"
	 viewBox="0 0 512 512" style="enable-background:new 0 0 512 512;" xml:space="preserve">
<path style="fill:#C86D5C;" d="M57,165.545v152.014c0,47.488,38.497,85.984,85.984,85.984h226.031
	c47.488,0,85.984-38.497,85.984-85.984V165.545H57z"/>
<polygon style="fill:#FAA330;" points="373.09,360.46 373.09,360.46 138.91,360.46 138.91,360.46 112.46,399.01 112.46,469.921 
	138.91,504.5 373.09,504.5 399.54,432.48 "/>
<path style="fill:#E63E4C;" d="M442.61,109.381l-51.701-34.088H152.605L69.39,109.381c-7.01,11.23-12.96,23.15-17.7,35.62
	l19.662,12.337h366.485L460.31,145C455.57,132.53,449.62,120.609,442.61,109.381z"/>
<path style="fill:#FFCE1C;" d="M442.61,109.379H69.39C107.45,48.39,176.86,7.5,256,7.5S404.55,48.39,442.61,109.379z"/>
<path style="fill:#FAA330;" d="M281.755,8.961c-8.448-0.964-17.042-1.46-25.755-1.46c-79.14,0-148.55,40.89-186.61,101.88h51.509
	C154.769,55.104,213.467,16.748,281.755,8.961z"/>
<rect x="57" y="165.54" style="fill:#B24D40;" width="398" height="46.299"/>
<g>
	<path style="fill:#E3B098;" d="M66.09,228.77L66.09,228.77c0-0.001-2.484-21.402-2.729-42.676
		c-21.31,2.247-37.918,20.269-37.918,42.175c0,23.424,18.989,42.414,42.414,42.414c2.091,0,4.144-0.16,6.154-0.452l7.317-29.004
		L66.09,228.77z"/>
	<path style="fill:#E3B098;" d="M448.639,186.093c-0.245,21.275-2.729,42.676-2.729,42.676l0,0l-14.124,19.874l6.21,21.585
		c2.008,0.292,4.058,0.451,6.146,0.451c23.425,0,42.414-18.989,42.414-42.414C486.556,206.363,469.949,188.34,448.639,186.093z"/>
</g>
<g>
	<path style="fill:#FFCE1C;" d="M181.278,384.426l-19.487-27.508l-22.881,3.542l0.004,0.005v93.091
		c0,11.695,9.481,21.175,21.175,21.175l0,0c11.695,0,21.175-9.481,21.175-21.175v-69.123L181.278,384.426z"/>
	<path style="fill:#FFCE1C;" d="M373.09,360.46l-21.179-3.542l-21.188,27.506l0.013,0.001v69.131
		c0,11.695,9.481,21.175,21.175,21.175l0,0c11.695,0,21.175-9.481,21.175-21.175v-93.09L373.09,360.46z"/>
</g>
<g>
	<path style="fill:#FF5E6B;" d="M181.278,384.426c6.739,35.134,37.622,61.687,74.722,61.687c37.101,0,67.984-26.554,74.723-61.69
		L181.278,384.426z"/>
	<path style="fill:#FF5E6B;" d="M129.832,353.226c-16.17,19.271-36.072,50.393-43.822,89.014l0,0l0,0l0,0l0,0l26.45,12.982
		l26.45-12.982l0,0v-81.78l3.31-14.874L129.832,353.226z"/>
	<path style="fill:#FF5E6B;" d="M425.99,442.24L425.99,442.24L425.99,442.24c-7.75-38.62-27.652-69.743-43.822-89.014l-12.389-7.64
		l3.31,14.874v81.78l0,0l26.45,12.982L425.99,442.24L425.99,442.24L425.99,442.24z"/>
</g>
<path style="fill:#FBC4AC;" d="M444.14,228.27c0,0-33.63-8.49-50.04-42.18L256,167.729L117.9,186.09
	c-16.41,33.69-50.04,42.18-50.04,42.18l-1.77,0.5l0.057,0.72l0.003,0.001C72.931,324.2,155.331,399.01,256,399.01
	c100.92,0,183.49-75.19,189.91-170.239L444.14,228.27z"/>
<path style="fill:#3B484A;" d="M359.395,259.003c-4.268,0-7.726-3.459-7.726-7.726v-20.104c0-4.267,3.458-7.726,7.726-7.726
	s7.726,3.459,7.726,7.726v20.104C367.121,255.545,363.663,259.003,359.395,259.003z"/>
<path style="fill:#F98084;" d="M373.086,288.553h-27.382c-4.268,0-7.726-3.459-7.726-7.726s3.458-7.726,7.726-7.726h27.382
	c4.268,0,7.726,3.459,7.726,7.726S377.354,288.553,373.086,288.553z"/>
<path style="fill:#3B484A;" d="M152.605,259.003c-4.268,0-7.726-3.459-7.726-7.726v-20.104c0-4.267,3.458-7.726,7.726-7.726
	s7.726,3.459,7.726,7.726v20.104C160.331,255.545,156.872,259.003,152.605,259.003z"/>
<path style="fill:#F98084;" d="M166.296,288.553h-27.382c-4.268,0-7.726-3.459-7.726-7.726s3.458-7.726,7.726-7.726h27.382
	c4.268,0,7.726,3.459,7.726,7.726S170.563,288.553,166.296,288.553z"/>
<path style="fill:#3B484A;" d="M256,287.417c-9.436,0-18.298-3.945-24.31-10.823c-2.809-3.213-2.481-8.094,0.732-10.902
	c3.211-2.807,8.093-2.481,10.901,0.732c3.078,3.521,7.699,5.54,12.676,5.54c4.978,0,9.597-2.019,12.676-5.54
	c2.807-3.213,7.69-3.541,10.901-0.732c3.213,2.808,3.542,7.689,0.732,10.902C274.298,283.472,265.436,287.417,256,287.417z"/>
<g>
	<circle style="fill:#FAA330;" cx="351.91" cy="448.737" r="6.49"/>
	<circle style="fill:#FAA330;" cx="160.09" cy="448.737" r="6.49"/>
</g>
<g>
	<path style="fill:#FBC4AC;" d="M428.58,504.5h-55.49v-62.26h52.9c0.33,1.57,0.63,3.16,0.91,4.77
		C429.92,464.32,430.83,483.479,428.58,504.5z"/>
	<path style="fill:#FBC4AC;" d="M83.42,504.5h55.49v-62.26h-52.9c-0.33,1.57-0.63,3.16-0.91,4.77
		C82.08,464.32,81.17,483.479,83.42,504.5z"/>
</g>
<path style="fill:#E3B098;" d="M117.9,186.09c-5.429,11.147-12.743,19.52-20.101,25.755h316.402
	c-7.358-6.235-14.672-14.608-20.101-25.755L256,167.729L117.9,186.09z"/>
<path style="fill:#FFCE1C;" d="M512,165.55c0,11.34-9.199,20.54-20.55,20.54H20.55C9.2,186.09,0,176.89,0,165.55
	C0,154.201,9.2,145,20.55,145h470.9C502.8,145,512,154.2,512,165.55z"/>
<path style="fill:#FAA330;" d="M61.811,165.55c0-11.351,9.2-20.55,20.55-20.55H20.55C9.2,145,0,154.2,0,165.55
	c0,11.34,9.2,20.54,20.55,20.54h61.811C71.01,186.09,61.811,176.89,61.811,165.55z"/>
<g>
	<path style="fill:#FF5E6B;" d="M114.592,101.838C95.687,117.077,108.793,145,108.793,145H157.2v-35.62
		C157.2,109.379,133.497,86.598,114.592,101.838z"/>
	<path style="fill:#FF5E6B;" d="M204.399,101.838c18.905,15.239,5.799,43.163,5.799,43.163h-48.407v-35.62
		C161.791,109.379,185.494,86.598,204.399,101.838z"/>
</g>
<path style="fill:#E63E4C;" d="M161.791,109.379h-4.592c-9.836,0-17.81,7.974-17.81,17.81l0,0c0,9.836,7.974,17.81,17.81,17.81
	h4.592c9.836,0,17.81-7.974,17.81-17.81l0,0C179.602,117.354,171.627,109.379,161.791,109.379z"/>
<g>
</g>
<g>
</g>
<g>
</g>
<g>
</g>
<g>
</g>
<g>
</g>
<g>
</g>
<g>
</g>
<g>
</g>
<g>
</g>
<g>
</g>
<g>
</g>
<g>
</g>
<g>
</g>
<g>
</g>
</svg>
