<?xml version="1.0" encoding="iso-8859-1"?>
<!-- Generator: Adobe Illustrator 19.0.0, SVG Export Plug-In . SVG Version: 6.00 Build 0)  -->
<svg version="1.1" id="Capa_1" xmlns="http://www.w3.org/2000/svg" xmlns:xlink="http://www.w3.org/1999/xlink" x="0px" y="0px"
	 viewBox="0 0 512 512" style="enable-background:new 0 0 512 512;" xml:space="preserve">
<path style="fill:#FF5E6B;" d="M302.278,305.678c7.541-28.069-10.284-52.87-10.284-52.87l-35.993-17.805l-35.993,17.805
	c0,0-17.825,24.801-10.284,52.87l46.277,17.805L302.278,305.678z"/>
<path style="fill:#E63E4C;" d="M240.17,305.678c-7.541-28.069,10.284-52.87,10.284-52.87l20.77-10.276l-15.223-7.53l-35.993,17.806
	c0,0-17.825,24.801-10.284,52.87l46.277,17.805l15.223-5.857L240.17,305.678z"/>
<path style="fill:#FF5E6B;" d="M256.001,422.853L75.327,440.658v38.402c0,18.192,14.748,32.94,32.94,32.94h295.467
	c18.192,0,32.94-14.748,32.94-32.94v-38.402L256.001,422.853z"/>
<path style="fill:#E63E4C;" d="M115.922,479.06v-38.401l160.376-15.806l-20.297-2L75.327,440.658v38.402
	c0,18.192,14.747,32.941,32.94,32.941h40.595C130.67,512,115.922,497.252,115.922,479.06z"/>
<path style="fill:#FF5E6B;" d="M302.278,341.288l-46.277-17.805l-46.277,17.805c0,0-55.532,16.454-55.532,63.76l101.81,17.805
	l101.81-17.805C357.811,357.742,302.278,341.288,302.278,341.288z"/>
<path style="fill:#E63E4C;" d="M184.636,405.047c0-47.306,55.532-63.76,55.532-63.76l31.054-11.948l-15.223-5.857l-46.277,17.805
	c0,0-55.532,16.454-55.532,63.76l101.81,17.806l15.223-2.663L184.636,405.047z"/>
<path style="fill:#FF5E6B;" d="M256.001,128.735L147.314,146.54c0,0,12.361,55.573,72.693,70.656L256.001,235l35.993-17.805
	c60.332-15.083,72.693-70.656,72.693-70.656L256.001,128.735z"/>
<path style="fill:#E63E4C;" d="M250.453,217.196c-60.332-15.083-72.693-70.656-72.693-70.656l93.463-15.311l-15.223-2.495
	L147.314,146.54c0,0,12.361,55.573,72.693,70.656L256.001,235l15.223-7.53L250.453,217.196z"/>
<path style="fill:#D9D9D9;" d="M436.674,405.048H75.327c-9.834,0-17.805,7.972-17.805,17.805l0,0
	c0,9.834,7.972,17.805,17.805,17.805h361.346c9.834,0,17.805-7.972,17.805-17.805l0,0
	C454.479,413.02,446.507,405.048,436.674,405.048z"/>
<path style="fill:#B3B3B3;" d="M98.117,422.853L98.117,422.853c0-9.834,7.972-17.806,17.805-17.806H75.327
	c-9.834,0-17.805,7.972-17.805,17.805l0,0c0,9.833,7.972,17.805,17.805,17.805h40.595
	C106.089,440.659,98.117,432.687,98.117,422.853z"/>
<path style="fill:#D9D9D9;" d="M291.994,217.196h-71.988c-9.834,0-17.805,7.972-17.805,17.805l0,0
	c0,9.834,7.972,17.805,17.805,17.805h71.988c9.834,0,17.805-7.972,17.805-17.805l0,0C309.8,225.167,301.828,217.196,291.994,217.196
	z"/>
<path style="fill:#B3B3B3;" d="M232.647,235.001L232.647,235.001c0-9.833,7.972-17.805,17.805-17.805h-30.446
	c-9.833,0-17.805,7.972-17.805,17.805l0,0c0,9.834,7.972,17.806,17.805,17.806h30.446
	C240.619,252.807,232.647,244.835,232.647,235.001z"/>
<path style="fill:#D9D9D9;" d="M302.278,305.678h-92.555c-9.834,0-17.805,7.972-17.805,17.805l0,0
	c0,9.834,7.972,17.805,17.805,17.805h92.555c9.834,0,17.805-7.972,17.805-17.805l0,0
	C320.083,313.649,312.111,305.678,302.278,305.678z"/>
<path style="fill:#B3B3B3;" d="M222.364,323.483L222.364,323.483c0-9.833,7.972-17.805,17.805-17.805h-30.446
	c-9.834,0-17.805,7.972-17.805,17.805l0,0c0,9.833,7.972,17.805,17.805,17.805h30.446
	C230.336,341.288,222.364,333.317,222.364,323.483z"/>
<path style="fill:#FF5E6B;" d="M259.85,78.021h-7.698c-10.47,0-18.959,8.488-18.959,18.959v35.491h45.615V96.98
	C278.809,86.509,270.32,78.021,259.85,78.021z"/>
<g>
	<path style="fill:#3B484A;" d="M205.426,186.192c-4.204,0-7.612-3.408-7.612-7.611v-9.153c0-4.204,3.408-7.611,7.612-7.611
		c4.204,0,7.611,3.408,7.611,7.611v9.153C213.037,182.785,209.629,186.192,205.426,186.192z"/>
	<path style="fill:#3B484A;" d="M306.575,186.192c-4.204,0-7.612-3.408-7.612-7.611v-9.153c0-4.204,3.408-7.611,7.612-7.611
		c4.204,0,7.611,3.408,7.611,7.611v9.153C314.187,182.785,310.779,186.192,306.575,186.192z"/>
	<path style="fill:#3B484A;" d="M256.001,191.078c-7.061,0-13.701-2.961-18.214-8.125c-2.767-3.165-2.444-7.974,0.722-10.74
		c3.165-2.766,7.973-2.444,10.74,0.722c1.623,1.856,4.083,2.921,6.752,2.921s5.129-1.065,6.752-2.921
		c2.767-3.165,7.575-3.488,10.74-0.721c3.165,2.767,3.488,7.575,0.721,10.74C269.7,188.117,263.062,191.078,256.001,191.078z"/>
</g>
<path style="fill:#42C3E2;" d="M91.381,253.848c-4.204,0-7.611-3.408-7.611-7.611V201.26c0-4.204,3.408-7.611,7.611-7.611
	s7.611,3.408,7.611,7.611v44.977C98.993,250.442,95.585,253.848,91.381,253.848z"/>
<g>
	<path style="fill:#00A6C8;" d="M91.381,311.473c-4.204,0-7.611-3.408-7.611-7.611v-24.41c0-4.204,3.408-7.612,7.611-7.612
		s7.611,3.408,7.611,7.612v24.41C98.993,308.065,95.585,311.473,91.381,311.473z"/>
	<path style="fill:#00A6C8;" d="M91.381,177.977c-4.204,0-7.611-3.408-7.611-7.611v-57.935c0-4.204,3.408-7.611,7.611-7.611
		s7.611,3.408,7.611,7.611v57.935C98.993,174.569,95.585,177.977,91.381,177.977z"/>
</g>
<g>
	<path style="fill:#42C3E2;" d="M91.381,86.478c-4.204,0-7.611-3.408-7.611-7.611C83.77,35.379,119.149,0,162.636,0
		c29.25,0,55.954,16.06,69.689,41.912c1.972,3.712,0.561,8.321-3.151,10.293c-3.711,1.973-8.32,0.561-10.293-3.15
		c-11.086-20.868-32.638-33.832-56.245-33.832c-35.093,0-63.643,28.55-63.643,63.643C98.993,83.07,95.585,86.478,91.381,86.478z"/>
	<path style="fill:#42C3E2;" d="M420.62,253.848c-4.204,0-7.611-3.408-7.611-7.611V201.26c0-4.204,3.408-7.611,7.611-7.611
		s7.612,3.408,7.612,7.611v44.977C428.231,250.442,424.824,253.848,420.62,253.848z"/>
</g>
<g>
	<path style="fill:#00A6C8;" d="M420.62,311.473c-4.204,0-7.611-3.408-7.611-7.611v-24.41c0-4.204,3.408-7.612,7.611-7.612
		s7.612,3.408,7.612,7.612v24.41C428.231,308.065,424.824,311.473,420.62,311.473z"/>
	<path style="fill:#00A6C8;" d="M420.62,177.977c-4.204,0-7.611-3.408-7.611-7.611v-57.935c0-4.204,3.408-7.611,7.611-7.611
		s7.612,3.408,7.612,7.611v57.935C428.231,174.569,424.824,177.977,420.62,177.977z"/>
</g>
<path style="fill:#42C3E2;" d="M420.62,86.478c-4.204,0-7.611-3.408-7.611-7.611c0-35.093-28.55-63.643-63.643-63.643
	c-23.607,0-45.159,12.964-56.245,33.832c-1.972,3.712-6.581,5.123-10.293,3.15c-3.712-1.972-5.123-6.58-3.151-10.293
	C293.412,16.06,320.115,0,349.365,0c43.487,0,78.866,35.379,78.866,78.866C428.231,83.07,424.824,86.478,420.62,86.478z"/>
<path style="fill:#D9D9D9;" d="M364.687,110.929H147.314c-9.834,0-17.805,7.972-17.805,17.805l0,0
	c0,9.834,7.972,17.805,17.805,17.805h217.372c9.834,0,17.805-7.972,17.805-17.805l0,0
	C382.492,118.901,374.521,110.929,364.687,110.929z"/>
<path style="fill:#B3B3B3;" d="M159.956,128.735L159.956,128.735c0-9.833,7.972-17.805,17.805-17.805h-30.446
	c-9.834,0-17.805,7.972-17.805,17.805l0,0c0,9.834,7.972,17.806,17.805,17.806h30.446
	C167.926,146.541,159.956,138.569,159.956,128.735z"/>
<g>
</g>
<g>
</g>
<g>
</g>
<g>
</g>
<g>
</g>
<g>
</g>
<g>
</g>
<g>
</g>
<g>
</g>
<g>
</g>
<g>
</g>
<g>
</g>
<g>
</g>
<g>
</g>
<g>
</g>
</svg>
