<?xml version="1.0" encoding="iso-8859-1"?>
<!-- Generator: Adobe Illustrator 19.0.0, SVG Export Plug-In . SVG Version: 6.00 Build 0)  -->
<svg version="1.1" id="Capa_1" xmlns="http://www.w3.org/2000/svg" xmlns:xlink="http://www.w3.org/1999/xlink" x="0px" y="0px"
	 viewBox="0 0 512 512" style="enable-background:new 0 0 512 512;" xml:space="preserve">
<path style="fill:#D9D9D9;" d="M418.53,195.605c-8.576,0-15.528-6.953-15.528-15.528v-2.019
	c0-81.057-65.945-147.001-147.001-147.001C174.944,31.057,109,97.002,109,178.058v2.019c0,8.576-6.953,15.528-15.528,15.528
	s-15.528-6.953-15.528-15.528v-2.019C77.942,79.876,157.819,0,256,0c98.18,0,178.058,79.876,178.058,178.058v2.019
	C434.058,188.653,427.105,195.605,418.53,195.605z"/>
<polygon style="fill:#42C3E2;" points="380.321,470.591 442.434,200.781 256,180.077 69.566,200.781 131.679,470.591 256,491.295 
	"/>
<polygon style="fill:#00A6C8;" points="172.886,470.591 110.773,200.781 276.604,182.365 256,180.077 69.566,200.781 
	131.679,470.591 256,491.295 276.604,487.864 "/>
<g>
	<path style="fill:#3B484A;" d="M173.951,343.554c-4.267,0-7.726-3.459-7.726-7.726v-14.85c0-4.267,3.459-7.726,7.726-7.726
		c4.267,0,7.726,3.459,7.726,7.726v14.85C181.678,340.095,178.218,343.554,173.951,343.554z"/>
	<path style="fill:#3B484A;" d="M338.049,343.554c-4.267,0-7.726-3.459-7.726-7.726v-14.85c0-4.267,3.459-7.726,7.726-7.726
		c4.267,0,7.726,3.459,7.726,7.726v14.85C345.775,340.095,342.316,343.554,338.049,343.554z"/>
	<path style="fill:#3B484A;" d="M256,351.48c-10.123,0-19.624-4.229-26.069-11.602c-2.808-3.213-2.481-8.094,0.732-10.902
		c3.212-2.808,8.093-2.481,10.902,0.732c3.51,4.016,8.77,6.318,14.434,6.318c5.663,0,10.924-2.302,14.433-6.318
		c2.809-3.213,7.69-3.541,10.902-0.732c3.213,2.808,3.542,7.689,0.732,10.902C275.624,347.251,266.123,351.48,256,351.48z"/>
</g>
<g>
	<path style="fill:#B3B3B3;" d="M403.001,178.058v2.019c0,8.576,6.953,15.528,15.528,15.528c8.576,0,15.528-6.953,15.528-15.528
		v-2.019c0-17.204-2.461-33.842-7.035-49.591h-32.637C399.956,143.968,403.001,160.663,403.001,178.058z"/>
	<path style="fill:#B3B3B3;" d="M93.471,195.605c8.576,0,15.528-6.953,15.528-15.528v-2.019c0-17.395,3.045-34.09,8.616-49.591
		H84.978c-4.574,15.748-7.035,32.387-7.035,49.591v2.019C77.942,188.653,84.895,195.605,93.471,195.605z"/>
</g>
<path style="fill:#00A6C8;" d="M442.434,159.372H69.566c-11.435,0-20.705,9.27-20.705,20.705c0,11.435,9.27,20.705,20.705,20.705
	h372.868c11.435,0,20.705-9.27,20.705-20.705C463.139,168.642,453.869,159.372,442.434,159.372z"/>
<path style="fill:#0095B3;" d="M90.069,180.077c0-11.435,9.27-20.705,20.705-20.705H69.566c-11.435,0-20.705,9.27-20.705,20.705
	s9.27,20.705,20.705,20.705h41.207C99.338,200.781,90.069,191.512,90.069,180.077z"/>
<path style="fill:#00A6C8;" d="M380.321,470.591H131.679c-11.435,0-20.705,9.27-20.705,20.705S120.244,512,131.679,512H380.32
	c11.435,0,20.705-9.27,20.705-20.705C401.026,479.861,391.755,470.591,380.321,470.591z"/>
<path style="fill:#0095B3;" d="M152.182,491.295c0-11.435,9.27-20.705,20.705-20.705H131.68c-11.435,0-20.705,9.27-20.705,20.705
	S120.245,512,131.68,512h41.207C161.452,512,152.182,502.73,152.182,491.295z"/>
<g>
</g>
<g>
</g>
<g>
</g>
<g>
</g>
<g>
</g>
<g>
</g>
<g>
</g>
<g>
</g>
<g>
</g>
<g>
</g>
<g>
</g>
<g>
</g>
<g>
</g>
<g>
</g>
<g>
</g>
</svg>
