<?xml version="1.0" encoding="iso-8859-1"?>
<!-- Generator: Adobe Illustrator 19.0.0, SVG Export Plug-In . SVG Version: 6.00 Build 0)  -->
<svg version="1.1" id="Capa_1" xmlns="http://www.w3.org/2000/svg" xmlns:xlink="http://www.w3.org/1999/xlink" x="0px" y="0px"
	 viewBox="0 0 512 512" style="enable-background:new 0 0 512 512;" xml:space="preserve">
<path style="fill:#3B484A;" d="M385.147,230.819c-4.267,0-7.726-3.459-7.726-7.726c0-74.823-97.745-170.424-121.419-192.476
	C232.327,52.68,134.579,148.325,134.579,223.093c0,4.267-3.459,7.726-7.726,7.726c-4.267,0-7.726-3.459-7.726-7.726
	c0-38.807,22.311-85.841,66.313-139.796c32.318-39.628,64.115-67.768,65.454-68.947c2.918-2.571,7.296-2.571,10.214,0
	c1.338,1.179,33.137,29.32,65.454,68.947c44.002,53.955,66.313,100.989,66.313,139.796
	C392.873,227.36,389.414,230.819,385.147,230.819z"/>
<path style="fill:#FF8C4F;" d="M256.001,323.455L74.383,345.919l0,0C74.383,437.644,148.74,512,240.463,512h31.074
	c91.723,0,166.081-74.356,166.081-166.081l0,0L256.001,323.455z"/>
<path style="fill:#EE6B28;" d="M125.892,345.92L125.892,345.92l155.863-19.28l-25.755-3.185L74.383,345.92l0,0
	c0,91.723,74.357,166.08,166.081,166.08h31.074c3.433,0,6.836-0.116,10.217-0.322C194.791,506.398,125.892,434.211,125.892,345.92z"
	/>
<path style="fill:#2FC8B4;" d="M403.958,271.319L403.958,271.319L403.958,271.319c27.703-30.452-4.727-77.436-43.025-62.332l0,0l0,0
	c10.377-39.838-40.172-66.368-67.064-35.198l0,0l0,0c-9.325-40.098-66.414-40.098-75.739,0l0,0l0,0
	c-26.891-31.171-77.441-4.641-67.064,35.198l0,0l0,0c-38.297-15.103-70.727,31.879-43.024,62.332l0,0l0,0
	c-18.671,2.018-30.252,14.91-33.659,29.672l181.617,22.464l181.618-22.464C434.211,286.229,422.629,273.337,403.958,271.319z"/>
<path style="fill:#FAA330;" d="M437.618,300.991H74.383c-12.406,0-22.464,10.058-22.464,22.464
	c0,12.406,10.058,22.464,22.464,22.464h363.235c12.406,0,22.464-10.058,22.464-22.464
	C460.082,311.049,450.025,300.991,437.618,300.991z"/>
<path style="fill:#F09318;" d="M103.428,323.455c0-12.406,10.058-22.464,22.464-22.464H74.383
	c-12.406,0-22.464,10.058-22.464,22.464c0,12.406,10.058,22.465,22.464,22.465h51.509
	C113.485,345.92,103.428,335.862,103.428,323.455z"/>
<g>
	<path style="fill:#3B484A;" d="M169.457,413.546c-4.267,0-7.726-3.459-7.726-7.726v-15.663c0-4.267,3.459-7.726,7.726-7.726
		c4.267,0,7.726,3.459,7.726,7.726v15.663C177.183,410.086,173.724,413.546,169.457,413.546z"/>
	<path style="fill:#3B484A;" d="M342.543,413.546c-4.267,0-7.726-3.459-7.726-7.726v-15.663c0-4.267,3.459-7.726,7.726-7.726
		c4.267,0,7.726,3.459,7.726,7.726v15.663C350.269,410.086,346.811,413.546,342.543,413.546z"/>
	<path style="fill:#3B484A;" d="M256.001,421.907c-10.554,0-20.46-4.407-27.177-12.092c-2.808-3.213-2.481-8.094,0.732-10.902
		c3.213-2.808,8.094-2.481,10.902,0.732c3.782,4.327,9.448,6.809,15.542,6.809c6.095,0,11.761-2.482,15.542-6.808
		c2.809-3.213,7.69-3.54,10.902-0.732c3.213,2.808,3.541,7.689,0.732,10.902C276.46,417.499,266.555,421.907,256.001,421.907z"/>
</g>
<circle style="fill:#FF8C4F;" cx="256.001" cy="20.147" r="20.147"/>
<path style="fill:#EE6B28;" d="M266.302,29.994c-11.127,0-20.147-9.02-20.147-20.147c0-2.894,0.621-5.639,1.719-8.126
	c-7.076,3.126-12.021,10.195-12.021,18.428c0,11.127,9.02,20.147,20.147,20.147c8.233,0,15.302-4.945,18.428-12.021
	C271.94,29.373,269.196,29.994,266.302,29.994z"/>
<g>
</g>
<g>
</g>
<g>
</g>
<g>
</g>
<g>
</g>
<g>
</g>
<g>
</g>
<g>
</g>
<g>
</g>
<g>
</g>
<g>
</g>
<g>
</g>
<g>
</g>
<g>
</g>
<g>
</g>
</svg>
