<?xml version="1.0" encoding="iso-8859-1"?>
<!-- Generator: Adobe Illustrator 19.0.0, SVG Export Plug-In . SVG Version: 6.00 Build 0)  -->
<svg version="1.1" id="Capa_1" xmlns="http://www.w3.org/2000/svg" xmlns:xlink="http://www.w3.org/1999/xlink" x="0px" y="0px"
	 viewBox="0 0 512 512" style="enable-background:new 0 0 512 512;" xml:space="preserve">
<polygon style="fill:#FFCE1C;" points="256,197.891 115.318,276.676 115.318,310.541 140.937,421.906 256,441.934 371.063,421.906 
	396.681,310.541 396.681,274.777 "/>
<path style="fill:#00AD94;" d="M344.161,107.089c52.521-18.59,41.727,82.69-26.967,79.55L344.161,107.089z"/>
<circle style="fill:#3B484A;" cx="256" cy="303.903" r="38.053"/>
<circle style="fill:#FAA330;" cx="256" cy="382.135" r="15.848"/>
<rect x="234.551" y="441.937" style="fill:#FFCE1C;" width="42.891" height="70.063"/>
<path style="fill:#2FC8B4;" d="M344.31,96.14c0.86,36.539-11.92,75.39-35.44,100.57H203.13c-23.52-25.18-36.3-64.03-35.44-100.57
	C167.69,96.14,344.31,96.14,344.31,96.14z"/>
<path style="fill:#FFCE1C;" d="M344.31,96.14c-24.14,17.12-54.86,27.36-88.31,27.36s-64.17-10.24-88.31-27.36
	C168.849,45.89,195.79,0,256,0S343.15,45.89,344.31,96.14z"/>
<path style="fill:#00AD94;" d="M192.414,96.14h-24.724c-0.027,1.141-0.04,2.286-0.041,3.433c-0.001,2.292,0.052,4.59,0.156,6.893
	c0.009,0.212,0.028,0.425,0.038,0.638l-0.004-0.013c-52.521-18.589-41.727,82.69,26.967,79.55l-0.041-0.121
	c0.517,0.707,1.02,1.429,1.551,2.121c0.236,0.308,0.471,0.617,0.71,0.922c1.947,2.485,3.981,4.874,6.105,7.148h24.724
	C204.334,171.53,191.554,132.68,192.414,96.14z"/>
<path style="fill:#FAA330;" d="M192.759,110.346c-0.336-4.751-0.455-9.498-0.345-14.206C193.491,49.47,216.811,6.57,268.353,0.69
	c-0.954-0.108-1.918-0.204-2.891-0.287C262.316,0.132,259.157,0,256,0c-28.224,0-49.137,10.083-63.511,25.972
	c-17.128,18.933-24.206,45.043-24.797,70.099c-0.001,0.023-0.001,0.045-0.002,0.069
	C175.414,101.618,183.814,106.387,192.759,110.346z"/>
<g>
	<path style="fill:#3B484A;" d="M215.716,72.661c-4.267,0-7.726-3.459-7.726-7.726v-7.291c0-4.267,3.459-7.726,7.726-7.726
		c4.267,0,7.726,3.459,7.726,7.726v7.291C223.442,69.201,219.983,72.661,215.716,72.661z"/>
	<path style="fill:#3B484A;" d="M296.284,72.661c-4.267,0-7.726-3.459-7.726-7.726v-7.291c0-4.267,3.459-7.726,7.726-7.726
		c4.267,0,7.726,3.459,7.726,7.726v7.291C304.01,69.201,300.552,72.661,296.284,72.661z"/>
</g>
<path style="fill:#F09318;" d="M237.357,74.789c-0.978,7.524,1.219,15.764,8.68,22.3c5.664,4.96,14.261,4.96,19.925,0
	c7.462-6.536,9.658-14.776,8.68-22.3C274.642,74.789,237.357,74.789,237.357,74.789z"/>
<g>
	<path style="fill:#FAA330;" d="M274.643,74.789c-5.128,3.584-11.602,5.716-18.643,5.716s-13.515-2.134-18.643-5.716
		c1.451-11.255,10.004-20.902,18.643-20.902C264.638,53.887,273.192,63.533,274.643,74.789z"/>
	<path style="fill:#FAA330;" d="M115.318,276.675v33.866l5.86,25.472c2.716-0.896,5.335-2.098,7.789-3.631L256,252.995
		l127.033,79.387c2.454,1.534,5.073,2.736,7.789,3.631l5.86-25.472v-35.764L256,197.891L115.318,276.675z"/>
</g>
<path style="fill:#FF5E6B;" d="M423.179,268.141l-153.931-96.197c-8.105-5.065-18.392-5.064-26.498,0L88.821,268.141
	c-4.746,2.966-6.189,9.218-3.222,13.963l15.758,25.214c2.966,4.746,9.217,6.189,13.963,3.223l140.682-87.917l140.682,87.917
	c4.746,2.966,10.997,1.523,13.963-3.223l15.758-25.214C429.368,277.358,427.925,271.107,423.179,268.141z"/>
<rect x="234.551" y="441.937" style="fill:#FAA330;" width="42.891" height="45.781"/>
<path style="fill:#FF5E6B;" d="M378.284,421.906H133.715c-6.146,0-11.128,4.982-11.128,11.128v17.802
	c0,6.146,4.982,11.128,11.128,11.128h244.568c6.146,0,11.128-4.982,11.128-11.128v-17.802
	C389.411,426.887,384.429,421.906,378.284,421.906z"/>
<g>
</g>
<g>
</g>
<g>
</g>
<g>
</g>
<g>
</g>
<g>
</g>
<g>
</g>
<g>
</g>
<g>
</g>
<g>
</g>
<g>
</g>
<g>
</g>
<g>
</g>
<g>
</g>
<g>
</g>
</svg>
