<?xml version="1.0" encoding="iso-8859-1"?>
<!-- Generator: Adobe Illustrator 19.0.0, SVG Export Plug-In . SVG Version: 6.00 Build 0)  -->
<svg version="1.1" id="Capa_1" xmlns="http://www.w3.org/2000/svg" xmlns:xlink="http://www.w3.org/1999/xlink" x="0px" y="0px"
	 viewBox="0 0 440.88 440.88" style="enable-background:new 0 0 440.88 440.88;" xml:space="preserve">
<g>
	<g>
		<path d="M430.96,409.36l-26.4-322.32c-0.32-3.234-2.565-5.953-5.68-6.88l-102.8-34.32l10.64-13.68
			c2.743-3.464,2.159-8.495-1.304-11.238c-0.198-0.157-0.404-0.304-0.616-0.442L281.76,5.6c0.024-0.346,0.024-0.694,0-1.04
			c-1.323-2.778-4.123-4.551-7.2-4.56h-104h-0.88h-0.8c-0.935,0.187-1.829,0.539-2.64,1.04l-29.92,19.44
			c-3.708,2.403-4.765,7.357-2.362,11.064c0.137,0.212,0.285,0.417,0.442,0.616l10.72,13.68L42.24,80.16
			c-3.046,1.018-5.188,3.758-5.44,6.96L9.92,409.28c-0.353,4.404,2.93,8.261,7.334,8.614c0.221,0.018,0.444,0.026,0.666,0.026h66.64
			v14.96c0,4.418,3.582,8,8,8h256c4.418,0,8-3.582,8-8V418h66.4c4.418,0.014,8.011-3.556,8.026-7.974
			C430.987,409.803,430.978,409.581,430.96,409.36z M274.72,20.48l14.08,8.8l-48,61.28l-9.36-19.04
			c1.36-0.445,2.575-1.246,3.52-2.32L274.72,20.48z M168.72,18.64l40.88,50.48c0.276,0.261,0.57,0.501,0.88,0.72l-10.24,20.64
			l-48-61.28L168.72,18.64z M84.56,402h-58l2-24h56V402z M212.56,424.96h-112V183.52c0-4.418-3.582-8-8-8s-8,3.582-8,8v178.32H29.92
			L52.56,93.6l103.2-34.4l40,51.2c1.692,2.171,4.382,3.319,7.12,3.04c2.72-0.29,5.104-1.949,6.32-4.4l3.52-7.12L212.56,424.96z
			 M222.32,59.44L187.2,16.08h70.24l-34.88,43.04L222.32,59.44z M348.56,175.52c-4.418,0-8,3.582-8,8v241.36h-112v-41.76h9.2
			c4.418,0,8-3.582,8-8s-3.582-8-8-8h-9.2v-59.76h9.2c4.418,0,8-3.582,8-8s-3.582-8-8-8h-9.2V231.6h9.2c4.418,0,8-3.582,8-8
			s-3.582-8-8-8h-9.2v-59.76h9.2c4.418,0,8-3.582,8-8s-3.582-8-8-8h-9.2v-38l3.52,7.12c1.216,2.451,3.6,4.11,6.32,4.4h0.8
			c2.462,0.013,4.793-1.108,6.32-3.04l40-51.2L388.56,93.6l22.4,268.16l-54.4,0.24V183.52
			C356.56,179.102,352.978,175.52,348.56,175.52z M356.56,402v-24h56l1.76,24H356.56z"/>
	</g>
</g>
<g>
	<g>
		<circle cx="40.16" cy="389.76" r="5.2"/>
	</g>
</g>
<g>
	<g>
		<circle cx="400.96" cy="389.76" r="5.2"/>
	</g>
</g>
<g>
</g>
<g>
</g>
<g>
</g>
<g>
</g>
<g>
</g>
<g>
</g>
<g>
</g>
<g>
</g>
<g>
</g>
<g>
</g>
<g>
</g>
<g>
</g>
<g>
</g>
<g>
</g>
<g>
</g>
</svg>
