<?xml version="1.0" encoding="iso-8859-1"?>
<!-- Generator: Adobe Illustrator 19.0.0, SVG Export Plug-In . SVG Version: 6.00 Build 0)  -->
<svg version="1.1" id="Capa_1" xmlns="http://www.w3.org/2000/svg" xmlns:xlink="http://www.w3.org/1999/xlink" x="0px" y="0px"
	 viewBox="0 0 512 512" style="enable-background:new 0 0 512 512;" xml:space="preserve">
<path style="fill:#7FDBD5;" d="M436.976,305.898H197.512c-8.183,0-16.031-3.251-21.818-9.037L98.97,220.136
	c-8.697-8.697-22.933-9.191-31.735-0.6c-4.485,4.377-6.727,10.168-6.727,15.959v102.371c0,7.273,3.73,14.039,9.88,17.921
	l68.051,42.957c9.646,6.089,20.819,9.32,32.226,9.32h253.473c19.402,0,35.13-15.728,35.13-35.13v-44.743
	C459.268,315.879,449.288,305.898,436.976,305.898z"/>
<path style="opacity:0.1;enable-background:new    ;" d="M160,343.969c-65.462-22.395-77.735-93.098-81.606-130.213
	c-4.083,0.773-7.978,2.674-11.16,5.779c-4.485,4.377-6.727,10.168-6.727,15.959v102.371c0,7.273,3.73,14.039,9.88,17.921
	l68.051,42.957c9.646,6.089,20.819,9.32,32.226,9.32h97.532C219.178,392.939,214.128,362.486,160,343.969z"/>
<path style="opacity:0.1;enable-background:new    ;" d="M206.106,346.193c-4.143,0-7.5,3.357-7.5,7.5v21.246
	c0,4.143,3.357,7.5,7.5,7.5s7.5-3.357,7.5-7.5v-21.246C213.606,349.551,210.249,346.193,206.106,346.193z M121.883,300.999
	c-4.143,0-7.5,3.357-7.5,7.5v20.155c0,4.143,3.357,7.5,7.5,7.5s7.5-3.357,7.5-7.5v-20.155
	C129.383,304.356,126.025,300.999,121.883,300.999z M409.455,330.26c-4.143,0-7.5,3.357-7.5,7.5v20.486c0,4.143,3.357,7.5,7.5,7.5
	s7.5-3.357,7.5-7.5V337.76C416.955,333.617,413.598,330.26,409.455,330.26z M337.372,346.193c-4.142,0-7.5,3.357-7.5,7.5v54.371h15
	v-54.371C344.872,349.551,341.515,346.193,337.372,346.193z"/>
<path style="fill:#495059;" d="M310.581,438.526h-86.956c-6.552,0-11.863-5.311-11.863-11.863v-18.599h110.682v18.599
	C322.444,433.215,317.133,438.526,310.581,438.526z"/>
<rect x="211.759" y="408.06" style="opacity:0.1;enable-background:new    ;" width="110.68" height="13.514"/>
<rect x="238.179" y="438.53" style="fill:#E8E9EA;" width="57.853" height="43.793"/>
<rect x="238.179" y="438.53" style="opacity:0.1;enable-background:new    ;" width="57.853" height="11.733"/>
<g>
	<path style="fill:#BDC0C3;" d="M339.249,512H194.957c-3.745,0-6.781-3.036-6.781-6.782v-10.203c0-7.012,5.684-12.696,12.696-12.696
		h132.463c7.012,0,12.696,5.684,12.696,12.696v10.203C346.031,508.964,342.994,512,339.249,512z"/>
	<path style="fill:#BDC0C3;" d="M393.229,152.822c-3.778,0-7.532-1.591-10.179-4.689c-4.797-5.618-4.131-14.061,1.486-18.858
		l73.61-62.856l-28.583-45.98c-3.9-6.273-1.976-14.521,4.298-18.421c6.274-3.901,14.521-1.976,18.421,4.299l34.654,55.745
		c3.491,5.616,2.354,12.939-2.673,17.233l-82.354,70.324C399.389,151.77,396.301,152.822,393.229,152.822z"/>
</g>
<path style="opacity:0.15;enable-background:new    ;" d="M384.537,129.275c-5.617,4.797-6.283,13.24-1.486,18.858
	c2.646,3.098,6.4,4.689,10.178,4.689c3.072,0,6.16-1.053,8.68-3.204l21.458-18.324c-7.091-6.039-15.179-11.008-24.061-14.632
	L384.537,129.275z"/>
<circle style="fill:#495059;" cx="475.579" cy="69.12" r="26.818"/>
<circle style="fill:#E8E9EA;" cx="475.579" cy="69.12" r="7.617"/>
<path style="fill:#287D99;" d="M438.065,193.517L302.61,144.215c21.69-19.578,53.205-26.83,82.574-16.14
	C414.554,138.765,434.034,164.577,438.065,193.517z"/>
<path style="opacity:0.15;enable-background:new    ;" d="M356.406,123.154c-19.957,0.226-39.125,7.818-53.796,21.061l75.716,27.558
	C359.879,154.619,350.115,132.616,356.406,123.154z"/>
<path style="fill:#7FDBD5;" d="M291.431,164.412l142.215,51.762c5.917,2.154,12.459-0.897,14.613-6.814l0,0
	c2.154-5.917-0.897-12.459-6.814-14.613L299.23,142.985c-5.917-2.154-12.459,0.897-14.613,6.814l0,0
	C282.464,155.716,285.515,162.258,291.431,164.412z"/>
<path style="fill:#BDC0C3;" d="M130.402,109.635c-1.229,0-2.477-0.171-3.717-0.528L32.71,81.974
	c-4.025-1.163-7.273-4.144-8.775-8.055s-1.085-8.3,1.127-11.858L59.716,6.316c3.9-6.273,12.147-8.196,18.422-4.297
	c6.273,3.9,8.198,12.148,4.297,18.422L57.111,61.175l76.995,22.23c7.097,2.05,11.189,9.465,9.14,16.562
	C141.555,105.824,136.208,109.635,130.402,109.635z"/>
<path style="opacity:0.15;enable-background:new    ;" d="M130.402,109.635c5.806,0,11.153-3.811,12.844-9.668
	c2.049-7.097-2.043-14.512-9.14-16.562l-23.148-6.683c-8.722,5.784-16.29,13.034-22.419,21.371l38.145,11.014
	C127.925,109.464,129.173,109.635,130.402,109.635z"/>
<circle style="fill:#495059;" cx="36.421" cy="69.12" r="26.818"/>
<circle style="fill:#E8E9EA;" cx="36.421" cy="69.12" r="7.617"/>
<path style="fill:#287D99;" d="M84.911,148.942L220.367,99.64c-21.69-19.578-53.205-26.83-82.574-16.14
	C108.423,94.19,88.942,120.002,84.911,148.942z"/>
<path style="opacity:0.15;enable-background:new    ;" d="M121.737,91.428c-20.339,12.989-33.583,34.236-36.826,57.514l53.81-19.585
	C121.542,123.267,118.133,106.583,121.737,91.428z"/>
<path style="fill:#7FDBD5;" d="M231.545,119.837L89.33,171.599c-5.917,2.154-12.459-0.897-14.613-6.814l0,0
	c-2.154-5.917,0.897-12.459,6.814-14.613L223.746,98.41c5.917-2.154,12.459,0.897,14.613,6.814l0,0
	C240.513,111.141,237.462,117.683,231.545,119.837z"/>
<path style="opacity:0.1;enable-background:new    ;" d="M247.171,512c-17.79-7.661-18.82-22.688-16.754-29.681h-29.546
	c-7.012,0-12.696,5.684-12.696,12.697v10.203c0,3.745,3.036,6.781,6.781,6.781H247.171z"/>
<g>
</g>
<g>
</g>
<g>
</g>
<g>
</g>
<g>
</g>
<g>
</g>
<g>
</g>
<g>
</g>
<g>
</g>
<g>
</g>
<g>
</g>
<g>
</g>
<g>
</g>
<g>
</g>
<g>
</g>
</svg>
