<?xml version="1.0" encoding="iso-8859-1"?>
<!-- Generator: Adobe Illustrator 19.0.0, SVG Export Plug-In . SVG Version: 6.00 Build 0)  -->
<svg version="1.1" id="Capa_1" xmlns="http://www.w3.org/2000/svg" xmlns:xlink="http://www.w3.org/1999/xlink" x="0px" y="0px"
	 viewBox="0 0 512 512" style="enable-background:new 0 0 512 512;" xml:space="preserve">
<circle style="fill:#F5D7B7;" cx="77.12" cy="204.65" r="31.504"/>
<circle style="opacity:0.15;enable-background:new    ;" cx="77.12" cy="204.65" r="31.504"/>
<circle style="fill:#F5D7B7;" cx="434.88" cy="204.65" r="31.504"/>
<circle style="opacity:0.15;enable-background:new    ;" cx="434.88" cy="204.65" r="31.504"/>
<path style="fill:#7FDBD5;" d="M397.009,512c7.414,0,13.325-6.326,12.674-13.711C402.745,419.503,336.588,357.716,256,357.716
	s-146.745,61.787-153.683,140.573c-0.65,7.385,5.26,13.711,12.674,13.711H397.009z"/>
<path style="opacity:0.1;enable-background:new    ;" d="M352.884,469.212h-33.227c-4.143,0-7.5-3.357-7.5-7.5s3.357-7.5,7.5-7.5
	h33.227c4.143,0,7.5,3.357,7.5,7.5C360.384,465.854,357.026,469.212,352.884,469.212z"/>
<path style="fill:#FFFFFF;" d="M197.274,369.297l46.28,89.57c5.221,10.105,19.669,10.111,24.891,0.005
	c13.097-25.348,33.544-64.922,46.282-89.575c-18.103-7.458-37.932-11.581-58.726-11.581S215.377,361.839,197.274,369.297z"/>
<path style="opacity:0.1;enable-background:new    ;" d="M256,357.716c-34.603,0-66.539,11.399-92.275,30.637
	c27.58,15.239,58.979,23.885,92.275,23.885s64.695-8.646,92.276-23.885C322.539,369.115,290.603,357.716,256,357.716z"/>
<ellipse style="fill:#F5D7B7;" cx="256" cy="204.65" rx="178.88" ry="188.14"/>
<path style="opacity:0.05;enable-background:new    ;" d="M425.719,145.068c5.94,18.725,9.164,38.756,9.164,59.581
	c0,4.83-0.174,9.617-0.514,14.356c-22.334-2.965-62.976-20.549-71.942-73.707L425.719,145.068z"/>
<g>
	<ellipse style="fill:#F28B74;" cx="157.67" cy="257.5" rx="36.28" ry="28.893"/>
	<ellipse style="fill:#F28B74;" cx="354.33" cy="257.5" rx="36.28" ry="28.893"/>
</g>
<g>
	<path style="fill:#495059;" d="M163.735,230.886c-4.143,0-7.5-3.357-7.5-7.5v-15.572c0-4.143,3.357-7.5,7.5-7.5s7.5,3.357,7.5,7.5
		v15.572C171.235,227.528,167.878,230.886,163.735,230.886z"/>
	<path style="fill:#495059;" d="M256,261.589L256,261.589c-14.518,0-26.286-11.769-26.286-26.286v-19.111
		c0-3.963,3.213-7.176,7.176-7.176h38.221c3.963,0,7.176,3.213,7.176,7.176v19.111C282.286,249.82,270.518,261.589,256,261.589z"/>
	<path style="fill:#495059;" d="M348.265,230.886c-4.142,0-7.5-3.357-7.5-7.5v-15.572c0-4.143,3.358-7.5,7.5-7.5
		c4.143,0,7.5,3.357,7.5,7.5v15.572C355.765,227.528,352.407,230.886,348.265,230.886z"/>
</g>
<path style="opacity:0.05;enable-background:new    ;" d="M316.723,381.665C178.331,369.13,137.688,276.868,127.944,201.203
	c-0.615-4.777,0.663-9.643,3.631-13.435c8.327-10.641,14.971-24.522,17.998-42.471l-63.327-0.117
	c-5.917,18.693-9.129,38.685-9.129,59.468c0,103.908,80.089,188.143,178.883,188.143
	C277.319,392.791,297.763,388.861,316.723,381.665z"/>
<path style="fill:#495059;" d="M256,139.776c25.225,0,80.236-8.401,101.276-24.219c2.457,64.28,52.468,86.885,74.937,94.27
	c5.02,1.65,10.143-2.237,9.919-7.516C439.858,148.729,417.912,8.634,256,8.634S72.142,148.729,69.868,202.31
	c-0.224,5.28,4.899,9.166,9.919,7.516c22.47-7.385,72.481-29.99,74.937-94.27C175.764,131.374,230.775,139.776,256,139.776z"/>
<path style="fill:#7FDBD5;" d="M256,164.605c41.711,0,130.53-3.92,177.134-22.003C429.029,74.059,390.723,0,256,0
	S82.971,74.059,78.866,142.602C125.47,160.684,214.288,164.605,256,164.605z"/>
<path style="fill:#FFFFFF;" d="M272.553,64.047V39.424c0-2.26-1.832-4.092-4.092-4.092h-24.923c-2.26,0-4.092,1.832-4.092,4.092
	v24.623c0,1.793-1.454,3.247-3.247,3.247h-24.623c-2.26,0-4.092,1.832-4.092,4.092v24.923c0,2.26,1.832,4.092,4.092,4.092H236.2
	c1.793,0,3.247,1.454,3.247,3.247v24.623c0,2.26,1.832,4.092,4.092,4.092h24.923c2.26,0,4.092-1.832,4.092-4.092v-24.623
	c0-1.793,1.454-3.247,3.247-3.247h24.623c2.26,0,4.092-1.832,4.092-4.092V71.386c0-2.26-1.832-4.092-4.092-4.092H275.8
	C274.007,67.294,272.553,65.84,272.553,64.047z"/>
<path style="opacity:0.1;enable-background:new    ;" d="M78.866,142.602c26.73,10.372,67.347,16.083,104.999,19.068
	c-37.02-32.079-31.68-109.676-10.771-149.378C104.496,36.147,81.96,90.938,78.866,142.602z"/>
<g style="opacity:0.1;">
	<path d="M369.993,125.379c0.536,0.031,1.157,0.047,1.85,0.047c8.155,0,26.195-2.117,31.962-4.519
		c3.822-1.592,5.628-5.981,4.037-9.803c-1.59-3.823-5.979-5.634-9.807-4.043c-3.228,1.343-21.094,3.718-27.159,3.344
		c-4.143-0.252-7.685,2.911-7.929,7.046C362.704,121.585,365.858,125.135,369.993,125.379z"/>
	<path d="M384.228,75.364c3.881,0,16.404-1.851,28.143-5.43c-2.667-4.489-5.634-8.855-8.916-13.072
		c-8.63,2.248-17.008,3.501-19.227,3.501c-4.143,0-7.5,3.357-7.5,7.5C376.728,72.007,380.086,75.364,384.228,75.364z"/>
	<path d="M133.409,110.395c-10.691-0.305-35.194-4.917-47.561-8.642c-1.432,4.808-2.632,9.666-3.615,14.549
		c14.71,4.335,39.631,8.77,50.749,9.087c0.073,0.002,0.146,0.003,0.218,0.003c4.043,0,7.377-3.219,7.493-7.286
		C140.811,113.965,137.55,110.513,133.409,110.395z"/>
	<path d="M138.342,64.297c0.189-4.139-3.014-7.645-7.151-7.833c-3.339-0.152-10.84-2.495-18.116-5.09
		c-3.501,4.001-6.684,8.16-9.573,12.449c9.082,3.423,20.705,7.339,27.008,7.625c0.116,0.005,0.231,0.008,0.347,0.008
		C134.841,71.456,138.159,68.318,138.342,64.297z"/>
</g>
<g>
</g>
<g>
</g>
<g>
</g>
<g>
</g>
<g>
</g>
<g>
</g>
<g>
</g>
<g>
</g>
<g>
</g>
<g>
</g>
<g>
</g>
<g>
</g>
<g>
</g>
<g>
</g>
<g>
</g>
</svg>
