<?xml version="1.0" encoding="iso-8859-1"?>
<!-- Generator: Adobe Illustrator 19.0.0, SVG Export Plug-In . SVG Version: 6.00 Build 0)  -->
<svg version="1.1" id="Capa_1" xmlns="http://www.w3.org/2000/svg" xmlns:xlink="http://www.w3.org/1999/xlink" x="0px" y="0px"
	 viewBox="0 0 512 512" style="enable-background:new 0 0 512 512;" xml:space="preserve">
<path style="fill:#76B7EB;" d="M320.46,512H59.813c-11.23,0-20.333-9.103-20.333-20.333V20.333C39.48,9.103,48.584,0,59.813,0
	H320.46c11.23,0,20.333,9.103,20.333,20.333v471.334C340.793,502.897,331.69,512,320.46,512z"/>
<path style="fill:#38648C;" d="M75.773,425.883V78.348c0-6.082,4.93-11.012,11.012-11.012h206.703
	c6.082,0,11.012,4.93,11.012,11.012v347.535c0,6.082-4.93,11.012-11.012,11.012H86.785
	C80.704,436.895,75.773,431.965,75.773,425.883z"/>
<g>
	<path style="fill:#FFFFFF;" d="M232.243,402.333H148.03c-4.142,0-7.5-3.357-7.5-7.5s3.358-7.5,7.5-7.5h84.213
		c4.142,0,7.5,3.357,7.5,7.5S236.385,402.333,232.243,402.333z"/>
	<path style="fill:#FFFFFF;" d="M137.905,478.652h-30.524c-4.142,0-7.5-3.357-7.5-7.5s3.358-7.5,7.5-7.5h30.524
		c4.142,0,7.5,3.357,7.5,7.5C145.405,475.295,142.048,478.652,137.905,478.652z"/>
	<path style="fill:#FFFFFF;" d="M272.893,478.652h-30.524c-4.142,0-7.5-3.357-7.5-7.5s3.358-7.5,7.5-7.5h30.524
		c4.143,0,7.5,3.357,7.5,7.5S277.035,478.652,272.893,478.652z"/>
</g>
<path style="fill:#38648C;" d="M214.571,41.168h-48.869c-4.142,0-7.5-3.357-7.5-7.5s3.358-7.5,7.5-7.5h48.869
	c4.142,0,7.5,3.357,7.5,7.5S218.714,41.168,214.571,41.168z"/>
<circle style="fill:#FFFFFF;" cx="190.141" cy="277.93" r="83.53"/>
<path style="fill:#F28B74;" d="M207.252,257.452v-25.459c0-2.337-1.894-4.231-4.231-4.231h-25.77c-2.337,0-4.231,1.894-4.231,4.231
	v25.459c0,1.854-1.503,3.358-3.358,3.358h-25.459c-2.337,0-4.231,1.894-4.231,4.231v25.77c0,2.337,1.894,4.231,4.231,4.231h25.459
	c1.854,0,3.358,1.503,3.358,3.358v25.459c0,2.337,1.894,4.231,4.231,4.231h25.77c2.337,0,4.231-1.894,4.231-4.231V298.4
	c0-1.854,1.503-3.358,3.358-3.358h25.459c2.337,0,4.231-1.894,4.231-4.231v-25.77c0-2.337-1.894-4.231-4.231-4.231H210.61
	C208.756,260.81,207.252,259.307,207.252,257.452z"/>
<path style="fill:#38648C;" d="M433.728,341.466c-1.919,0-3.839-0.732-5.304-2.196c-2.929-2.93-2.929-7.678,0-10.607
	c19.409-19.408,30.098-45.214,30.098-72.662s-10.689-53.254-30.098-72.662c-2.929-2.93-2.929-7.678,0-10.607
	c2.93-2.928,7.678-2.928,10.607,0c22.241,22.242,34.49,51.814,34.49,83.27s-12.249,61.027-34.49,83.27
	C437.567,340.733,435.647,341.466,433.728,341.466z"/>
<path style="fill:#B3E7FF;" d="M380.982,288.72c-1.92,0-3.839-0.732-5.304-2.197c-2.929-2.929-2.929-7.678,0.001-10.607
	c5.33-5.329,8.266-12.402,8.266-19.916s-2.936-14.587-8.266-19.916c-2.93-2.929-2.93-7.678-0.001-10.607
	c2.93-2.93,7.677-2.929,10.606-0.001c8.164,8.163,12.66,19.003,12.66,30.523c0,11.521-4.496,22.36-12.66,30.523
	C384.82,287.987,382.901,288.72,380.982,288.72z"/>
<path style="fill:#76B7EB;" d="M407.336,315.074c-1.92,0-3.839-0.732-5.304-2.197c-2.929-2.929-2.929-7.678,0.001-10.607
	c12.381-12.381,19.2-28.814,19.2-46.271s-6.819-33.89-19.2-46.27c-2.93-2.929-2.93-7.678-0.001-10.607
	c2.93-2.93,7.679-2.929,10.606-0.001c15.216,15.214,23.595,35.414,23.595,56.878s-8.379,41.664-23.595,56.878
	C411.175,314.342,409.255,315.074,407.336,315.074z"/>
<g>
	<ellipse style="fill:#F28B74;" cx="123.411" cy="146.67" rx="24.621" ry="19.607"/>
	<ellipse style="fill:#F28B74;" cx="256.861" cy="146.67" rx="24.621" ry="19.607"/>
</g>
<g>
	<path style="fill:#FFFFFF;" d="M137.758,134.611c-4.142,0-7.5-3.357-7.5-7.5v-8.694c0-4.143,3.358-7.5,7.5-7.5s7.5,3.357,7.5,7.5
		v8.694C145.258,131.254,141.9,134.611,137.758,134.611z"/>
	<path style="fill:#FFFFFF;" d="M242.515,134.611c-4.142,0-7.5-3.357-7.5-7.5v-8.694c0-4.143,3.358-7.5,7.5-7.5s7.5,3.357,7.5,7.5
		v8.694C250.015,131.254,246.657,134.611,242.515,134.611z"/>
	<path style="fill:#FFFFFF;" d="M190.137,141.288c-7.46,0-14.554-3.23-19.463-8.863c-2.722-3.122-2.396-7.86,0.726-10.582
		s7.86-2.397,10.582,0.727c2.06,2.363,5.033,3.719,8.156,3.719s6.095-1.355,8.155-3.719c2.721-3.123,7.459-3.448,10.582-0.727
		c3.122,2.722,3.448,7.459,0.727,10.582C204.691,138.058,197.596,141.288,190.137,141.288z"/>
</g>
<path style="opacity:0.15;enable-background:new    ;" d="M38.48,20.333v471.334c0,11.23,9.103,20.333,20.333,20.333h222.681
	C146.096,415.43,107.54,120.946,105.674,0h-46.86C47.584,0,38.48,9.104,38.48,20.333z"/>
<circle style="fill:#FFFFFF;" cx="247.111" cy="33.668" r="7.485"/>
<g>
</g>
<g>
</g>
<g>
</g>
<g>
</g>
<g>
</g>
<g>
</g>
<g>
</g>
<g>
</g>
<g>
</g>
<g>
</g>
<g>
</g>
<g>
</g>
<g>
</g>
<g>
</g>
<g>
</g>
</svg>
