<?xml version="1.0" encoding="iso-8859-1"?>
<!-- Generator: Adobe Illustrator 19.0.0, SVG Export Plug-In . SVG Version: 6.00 Build 0)  -->
<svg version="1.1" id="Capa_1" xmlns="http://www.w3.org/2000/svg" xmlns:xlink="http://www.w3.org/1999/xlink" x="0px" y="0px"
	 viewBox="0 0 512 512" style="enable-background:new 0 0 512 512;" xml:space="preserve">
<path style="fill:#76B7EB;" d="M166.028,474.314l-70.094-18.782c-7.57-2.028-12.063-9.81-10.035-17.38l69.05-257.698
	c2.028-7.57,9.81-12.063,17.38-10.034l70.094,18.782c7.57,2.028,12.063,9.81,10.034,17.38l-69.05,257.698
	C181.38,471.85,173.598,476.342,166.028,474.314z"/>
<path style="fill:#38648C;" d="M239.477,151.799l-45.894-12.297c-5.066-1.357-10.272,1.649-11.63,6.714l-6.696,24.988l64.238,17.212
	l6.696-24.988C247.548,158.363,244.542,153.156,239.477,151.799z"/>
<rect x="201.845" y="98.592" transform="matrix(-0.9659 -0.2588 0.2588 -0.9659 406.1322 298.5114)" style="fill:#BDC0C3;" width="41.74" height="47.861"/>
<polygon style="opacity:0.15;enable-background:new    ;" points="243.377,126.095 249.077,104.821 208.758,94.018 200.163,126.095 
	"/>
<path style="fill:#495059;" d="M139.125,511.464l-38.467-10.307c-8.33-2.232-13.274-10.795-11.042-19.125l7.048-26.304l68.634,18.39
	l-7.048,26.304C156.018,508.753,147.455,513.696,139.125,511.464z"/>
<rect x="95.677" y="391.926" transform="matrix(-0.9659 -0.2588 0.2588 -0.9659 181.6508 840.5104)" style="fill:#38648C;" width="100.947" height="32.744"/>
<path style="opacity:0.15;enable-background:new    ;" d="M166.028,474.314c7.57,2.029,15.352-2.464,17.38-10.035l2.294-8.56
	c-74.093-29.425-30.995-163.383,1.452-281.326l-14.825-3.972c-7.57-2.029-15.352,2.464-17.38,10.034L85.9,438.152
	c-2.028,7.571,2.464,15.352,10.034,17.38L166.028,474.314z"/>
<path style="fill:#E8E9EA;" d="M291.754,112.123H180.161c-5.392,0-9.764-4.371-9.764-9.763V9.764c0-5.392,4.371-9.764,9.764-9.764
	h111.593c5.392,0,9.763,4.371,9.763,9.764v92.595C301.518,107.751,297.147,112.123,291.754,112.123z"/>
<path style="fill:#495059;" d="M301.518,93.015l28.256-12.31c11.035-4.807,22.785-7.767,34.78-8.762l55.387-4.593
	c3.756-0.312,6.646-3.451,6.646-7.22v-8.138c0-3.769-2.89-6.908-6.646-7.22l-55.387-4.593c-11.995-0.995-23.746-3.955-34.78-8.762
	l-28.256-12.31V93.015z"/>
<g>
	<path style="fill:#38648C;" d="M274.097,112.123h17.658c5.392,0,9.763-4.371,9.763-9.763V9.764c0-5.392-4.371-9.764-9.763-9.764
		h-17.658V112.123z"/>
	<path style="fill:#38648C;" d="M180.161,112.123h17.658V0h-17.658c-5.392,0-9.764,4.371-9.764,9.764v92.595
		C170.397,107.751,174.769,112.123,180.161,112.123z"/>
</g>
<rect x="176.048" y="165.161" transform="matrix(-0.9659 -0.2588 0.2588 -0.9659 366.7913 393.5059)" style="opacity:0.15;enable-background:new    ;" width="66.498" height="14.898"/>
<path style="opacity:0.1;enable-background:new    ;" d="M170.397,102.359c0,5.392,4.371,9.764,9.764,9.763h111.593
	c4.604,0,8.453-3.19,9.483-7.478C232.339,91.365,213.08,35.848,215.332,0h-35.17c-5.392,0-9.764,4.371-9.764,9.764v92.595H170.397z"
	/>
<rect x="93.377" y="464.637" transform="matrix(-0.9659 -0.2588 0.2588 -0.9659 131.0817 962.6599)" style="opacity:0.15;enable-background:new    ;" width="71.058" height="16.13"/>
<g>
</g>
<g>
</g>
<g>
</g>
<g>
</g>
<g>
</g>
<g>
</g>
<g>
</g>
<g>
</g>
<g>
</g>
<g>
</g>
<g>
</g>
<g>
</g>
<g>
</g>
<g>
</g>
<g>
</g>
</svg>
