<?xml version="1.0" encoding="iso-8859-1"?>
<!-- Generator: Adobe Illustrator 19.0.0, SVG Export Plug-In . SVG Version: 6.00 Build 0)  -->
<svg version="1.1" id="Capa_1" xmlns="http://www.w3.org/2000/svg" xmlns:xlink="http://www.w3.org/1999/xlink" x="0px" y="0px"
	 viewBox="0 0 512 512" style="enable-background:new 0 0 512 512;" xml:space="preserve">
<path style="fill:#495059;" d="M420.909,173.787H91.091V430.38c0,17.936,14.54,32.476,32.476,32.476h264.868
	c17.936,0,32.476-14.54,32.476-32.476V173.787H420.909z"/>
<rect x="133.43" y="281.53" style="opacity:0.15;enable-background:new    ;" width="245.15" height="181.32"/>
<circle style="fill:#F5D7B7;" cx="80.55" cy="213.88" r="30.898"/>
<circle style="opacity:0.15;enable-background:new    ;" cx="80.55" cy="213.88" r="30.898"/>
<circle style="fill:#F5D7B7;" cx="431.45" cy="213.88" r="30.898"/>
<circle style="opacity:0.15;enable-background:new    ;" cx="431.45" cy="213.88" r="30.898"/>
<path style="fill:#E8E9EA;" d="M394.3,512c7.271,0,13.069-6.204,12.431-13.448C399.926,421.28,335.04,360.68,256,360.68
	s-143.926,60.6-150.731,137.872C104.631,505.796,110.429,512,117.7,512H394.3z"/>
<path style="fill:#BDC0C3;" d="M359.7,484.201h-46.938c-2.887,0-5.227-2.34-5.227-5.227v-13.633c0-2.887,2.34-5.227,5.227-5.227
	H359.7c2.887,0,5.227,2.34,5.227,5.227v13.633C364.927,481.861,362.587,484.201,359.7,484.201z"/>
<path style="fill:#B3E7FF;" d="M256,360.68c-18.098,0-35.449,3.186-51.535,9.012L229.942,512h52.115l25.478-142.308
	C291.449,363.866,274.098,360.68,256,360.68z"/>
<path style="opacity:0.1;enable-background:new    ;" d="M204.465,369.692l13.542,75.642c11.596,5.212,24.455,8.114,37.993,8.114
	c13.538,0,26.397-2.902,37.993-8.114l13.542-75.642c-16.086-5.827-33.438-9.012-51.535-9.012S220.551,363.866,204.465,369.692z"/>
<path style="fill:#F5D7B7;" d="M204.465,369.692l8.51,47.533c11.944,9.102,26.849,14.517,43.025,14.517s31.081-5.415,43.025-14.517
	l8.51-47.533c-16.086-5.827-33.438-9.012-51.535-9.012S220.551,363.866,204.465,369.692z"/>
<g>
	<path style="fill:#76B7EB;" d="M220.13,374.289L240.874,512H220.13l-37.099-35.957c-2.493-2.416-2.551-6.397-0.13-8.886l8.467-8.7
		c1.848-1.899,2.103-4.836,0.611-7.025l-15.816-23.197c-1.48-2.171-1.8-4.93-0.857-7.382l17.911-46.563h26.913V374.289z"/>
	<path style="fill:#76B7EB;" d="M291.87,374.289L271.126,512h20.745l37.099-35.957c2.493-2.416,2.551-6.397,0.13-8.886l-8.467-8.7
		c-1.848-1.899-2.103-4.836-0.611-7.025l15.816-23.197c1.48-2.171,1.8-4.93,0.857-7.382l-17.911-46.563H291.87V374.289z"/>
</g>
<path style="opacity:0.1;enable-background:new    ;" d="M256,360.68c-33.938,0-65.261,11.18-90.503,30.048
	c27.051,14.947,57.846,23.426,90.503,23.426s63.452-8.48,90.503-23.426C321.261,371.86,289.938,360.68,256,360.68z"/>
<path style="fill:#F5D7B7;" d="M431.446,213.877c0-101.912-78.55-184.528-175.446-184.528S80.554,111.965,80.554,213.877
	S159.104,395.081,256,395.081S431.446,315.789,431.446,213.877z"/>
<g>
	<ellipse style="fill:#F28B74;" cx="161.05" cy="263.04" rx="35.03" ry="27.9"/>
	<ellipse style="fill:#F28B74;" cx="350.95" cy="263.04" rx="35.03" ry="27.9"/>
</g>
<g>
	<path style="fill:#495059;" d="M166.907,237.598c-4.142,0-7.5-3.357-7.5-7.5V215.06c0-4.143,3.358-7.5,7.5-7.5s7.5,3.357,7.5,7.5
		v15.038C174.407,234.24,171.049,237.598,166.907,237.598z"/>
	<path style="fill:#495059;" d="M256,266.987L256,266.987c-14.019,0-25.383-11.364-25.383-25.383V223.15
		c0-3.827,3.102-6.929,6.929-6.929h36.907c3.827,0,6.929,3.102,6.929,6.929v18.454C281.383,255.622,270.018,266.987,256,266.987z"/>
	<path style="fill:#495059;" d="M345.093,237.598c-4.143,0-7.5-3.357-7.5-7.5V215.06c0-4.143,3.357-7.5,7.5-7.5s7.5,3.357,7.5,7.5
		v15.038C352.593,234.24,349.235,237.598,345.093,237.598z"/>
</g>
<path style="opacity:0.05;enable-background:new    ;" d="M333.108,48.091c-21.955-9.888-47.663-15.865-77.627-15.936
	c-7.959,0.019-15.639-0.404-23.047-1.145c-85.751,12.11-151.88,89.36-151.88,182.866c0,101.912,78.55,181.205,175.446,181.205
	c18.725,0,36.761-2.973,53.681-8.487c-125.641-12.402-163.119-92.065-173.535-160.57c-0.622-4.091,1.907-7.997,5.878-9.161
	c41.926-12.284,88.722-30.873,109.223-48.874c2.429-2.133,6.03-2.142,8.458-0.009c32.338,28.407,130.175,58.285,171.022,62.528
	c0.467-5.471,0.72-11.015,0.72-16.633C431.446,141.064,391.345,78.111,333.108,48.091z"/>
<path style="fill:#495059;" d="M254.949,16.544c139.59,0,187.285,127.787,191.561,184.691c0.601,7.993-6.176,14.551-14.159,13.83
	c-39.814-3.595-139.845-33.89-172.632-62.676c-2.434-2.137-6.04-2.137-8.474,0c-32.787,28.786-132.819,59.082-172.633,62.676
	c-7.983,0.721-14.759-5.837-14.159-13.83c4.275-56.904,51.971-184.691,191.561-184.691"/>
<path style="fill:#76B7EB;" d="M86.665,126.921h338.699c6.402,0,10.514-6.785,7.577-12.474
	c-6.559-12.706-14.323-24.592-23.116-35.508c-3.479-4.319-8.706-6.859-14.252-6.859H116.425c-5.557,0-10.791,2.552-14.271,6.884
	c-8.845,11.01-16.573,22.908-23.069,35.488C76.149,120.139,80.266,126.921,86.665,126.921z"/>
<circle style="fill:#E8E9EA;" cx="255.48" cy="65.718" r="65.718"/>
<circle style="fill:#BDC0C3;" cx="255.48" cy="65.718" r="26.351"/>
<path style="opacity:0.05;enable-background:new    ;" d="M254.949,32.148c0.179,0,0.354,0.007,0.533,0.008
	c0.179,0,0.353-0.008,0.532-0.008H254.949z"/>
<g>
</g>
<g>
</g>
<g>
</g>
<g>
</g>
<g>
</g>
<g>
</g>
<g>
</g>
<g>
</g>
<g>
</g>
<g>
</g>
<g>
</g>
<g>
</g>
<g>
</g>
<g>
</g>
<g>
</g>
</svg>
