<?xml version="1.0" encoding="iso-8859-1"?>
<!-- Generator: Adobe Illustrator 19.0.0, SVG Export Plug-In . SVG Version: 6.00 Build 0)  -->
<svg version="1.1" id="Capa_1" xmlns="http://www.w3.org/2000/svg" xmlns:xlink="http://www.w3.org/1999/xlink" x="0px" y="0px"
	 viewBox="0 0 512 512" style="enable-background:new 0 0 512 512;" xml:space="preserve">
<path style="fill:#BDC0C3;" d="M102.259,327.494l-91.825-53.015c-9.978-5.761-13.397-18.52-7.636-28.498l70.203-121.595
	c5.761-9.978,18.52-13.397,28.498-7.636l91.825,53.015L102.259,327.494z"/>
<g>
	<circle style="fill:#FFFFFF;" cx="104.95" cy="178.93" r="23.441"/>
	<circle style="fill:#FFFFFF;" cx="66.01" cy="246.38" r="23.441"/>
</g>
<path style="opacity:0.15;enable-background:new    ;" d="M146.305,142.617l-86.002,148.96c-2.796,4.843-1.137,11.037,3.707,13.833
	l38.25,22.084l91.065-157.73L146.305,142.617z"/>
<path style="fill:#E8E9EA;" d="M371.066,254.845l-188.24-108.681c-4.844-2.796-11.037-1.137-13.833,3.706L72.865,316.369
	c-2.796,4.843-1.137,11.037,3.707,13.833l188.241,108.681L371.066,254.845z"/>
<path style="fill:#76B7EB;" d="M317.939,346.864l-119.413-68.943c-4.5-2.598-4.936-8.927-0.834-12.118l17.719-13.782
	c5.522-4.295,13.096-4.817,19.155-1.319l104.169,60.142L317.939,346.864z"/>
<path style="fill:#495059;" d="M289.049,366.34c-1.272,0-2.562-0.324-3.743-1.006l-93.571-54.023
	c-3.587-2.071-4.816-6.658-2.745-10.245c2.071-3.588,6.658-4.815,10.245-2.745l93.571,54.023c3.587,2.071,4.816,6.658,2.745,10.245
	C294.162,364.995,291.641,366.34,289.049,366.34z"/>
<g>
	
		<ellipse transform="matrix(-0.866 -0.5 0.5 -0.866 117.3968 658.1815)" style="fill:#F28B74;" cx="146.88" cy="313.362" rx="16.605" ry="20.852"/>
	
		<ellipse transform="matrix(0.866 0.5 -0.5 0.866 134.9894 -72.8325)" style="fill:#F28B74;" cx="203.398" cy="215.471" rx="16.605" ry="20.852"/>
</g>
<g>
	<path style="fill:#495059;" d="M138.6,302.049c-1.273,0-2.562-0.324-3.743-1.006l-6.376-3.682
		c-3.587-2.071-4.816-6.658-2.745-10.245c2.071-3.588,6.657-4.815,10.245-2.745l6.376,3.682c3.587,2.071,4.816,6.658,2.745,10.245
		C143.713,300.704,141.192,302.049,138.6,302.049z"/>
	<path style="fill:#495059;" d="M182.959,225.217c-1.273,0-2.562-0.324-3.744-1.006l-6.377-3.683
		c-3.587-2.071-4.816-6.659-2.744-10.246c2.072-3.587,6.66-4.813,10.245-2.744l6.377,3.683c3.587,2.071,4.816,6.659,2.744,10.246
		C188.072,223.872,185.551,225.217,182.959,225.217z"/>
	<path style="fill:#495059;" d="M155.214,273.924c-3.515,0-6.652-2.481-7.352-6.06c-0.795-4.065,1.855-8.006,5.92-8.801
		c2.279-0.446,4.25-1.851,5.406-3.854s1.388-4.412,0.634-6.609c-1.344-3.918,0.743-8.184,4.662-9.527
		c3.918-1.344,8.184,0.744,9.527,4.662c2.16,6.299,1.493,13.215-1.833,18.975c-3.325,5.759-8.98,9.796-15.517,11.074
		C156.176,273.878,155.691,273.924,155.214,273.924z"/>
</g>
<path style="opacity:0.15;enable-background:new    ;" d="M264.813,438.883l106.254-184.038l-118.88-68.635
	c-11.043,11.584-17.299,27.031-17.299,43.2v192.197L264.813,438.883z"/>
<path style="fill:#38648C;" d="M467.884,133.903v-20.757H302.755v20.757c0,18.41-8.076,35.894-22.093,47.829l0,0
	c-13.973,11.897-22.023,29.325-22.023,47.677v242.792c0,15.603,12.648,28.251,28.251,28.251h196.858
	c15.603,0,28.251-12.648,28.251-28.251V229.409c0-18.352-8.05-35.78-22.023-47.677l0,0
	C475.96,169.797,467.884,152.313,467.884,133.903z"/>
<path style="opacity:0.15;enable-background:new    ;" d="M258.641,451.57v20.631c0,15.603,12.648,28.251,28.251,28.251H483.75
	c15.603,0,28.251-12.648,28.251-28.251V451.57H258.641z"/>
<g>
	<path style="fill:#E8E9EA;" d="M495.908,113.146H274.731c-8.887,0-16.092-7.205-16.092-16.092V27.64
		c0-8.887,7.204-16.092,16.092-16.092h221.177c8.887,0,16.092,7.205,16.092,16.092v69.414
		C512,105.941,504.796,113.146,495.908,113.146z"/>
	<path style="fill:#E8E9EA;" d="M386.478,402.548H512V234.094H386.478c-11.522,0-20.862,9.34-20.862,20.862v126.73
		C365.615,393.208,374.956,402.548,386.478,402.548z"/>
</g>
<path style="fill:#7FDBD5;" d="M456.488,402.548h-70.011c-11.522,0-20.862-9.34-20.862-20.862v-63.365h81.096
	c5.399,0,9.776,4.377,9.776,9.776v74.451H456.488z"/>
<g>
	<circle style="fill:#FFFFFF;" cx="428.02" cy="347.48" r="7.445"/>
	<circle style="fill:#FFFFFF;" cx="428.02" cy="373.39" r="7.445"/>
</g>
<path style="fill:#495059;" d="M461.132,271.208h-45.436c-4.142,0-7.5-3.357-7.5-7.5s3.358-7.5,7.5-7.5h45.436
	c4.142,0,7.5,3.357,7.5,7.5S465.273,271.208,461.132,271.208z"/>
<path style="opacity:0.15;enable-background:new    ;" d="M360.417,132.509h107.467v-19.363H302.757v20.757
	c0,18.41-8.076,35.894-22.093,47.829l0,0c-13.973,11.898-22.023,29.326-22.023,47.677v242.792c0,15.603,12.648,28.251,28.251,28.251
	h103.073c-86.743-18.412-100.56-222.248-73.635-288.645c7.873-19.415,23.484-36.431,30.399-68.21
	C348.133,137.14,353.809,132.509,360.417,132.509z"/>
<g style="opacity:0.1;">
	<rect x="377.82" y="11.548" width="15" height="101.6"/>
	<rect x="308.83" y="11.548" width="15" height="101.6"/>
	<rect x="446.81" y="11.548" width="15" height="101.6"/>
</g>
<path style="opacity:0.15;enable-background:new    ;" d="M258.639,27.64v69.414c0,8.887,7.205,16.092,16.092,16.092h90.884
	c-54.632-18.109-55.803-67.908-41.314-101.598h-49.57C265.844,11.548,258.639,18.753,258.639,27.64z"/>
<path style="fill:#495059;" d="M438.413,297.491h-22.718c-4.142,0-7.5-3.357-7.5-7.5s3.358-7.5,7.5-7.5h22.718
	c4.142,0,7.5,3.357,7.5,7.5S442.555,297.491,438.413,297.491z"/>
<g>
</g>
<g>
</g>
<g>
</g>
<g>
</g>
<g>
</g>
<g>
</g>
<g>
</g>
<g>
</g>
<g>
</g>
<g>
</g>
<g>
</g>
<g>
</g>
<g>
</g>
<g>
</g>
<g>
</g>
</svg>
