<?xml version="1.0" encoding="iso-8859-1"?>
<!-- Generator: Adobe Illustrator 19.0.0, SVG Export Plug-In . SVG Version: 6.00 Build 0)  -->
<svg version="1.1" id="Capa_1" xmlns="http://www.w3.org/2000/svg" xmlns:xlink="http://www.w3.org/1999/xlink" x="0px" y="0px"
	 viewBox="0 0 512 512" style="enable-background:new 0 0 512 512;" xml:space="preserve">
<g>
	<path style="fill:#495059;" d="M295.588,458.087H119.994c-44.903,0-81.434-36.531-81.434-81.434V219.021h35.402v157.631
		c0,25.382,20.65,46.033,46.032,46.033h175.593v35.402H295.588z"/>
	<path style="fill:#495059;" d="M361.705,351.271H248.009c-32.011,0-58.055-26.043-58.055-58.055v-74.194h35.402v74.194
		c0,12.491,10.162,22.653,22.653,22.653h113.696c12.491,0,22.653-10.162,22.653-22.653v-67.2h35.402v67.2
		C419.76,325.227,393.717,351.271,361.705,351.271z"/>
</g>
<path style="fill:#BDC0C3;" d="M317.302,406.727h-41.615c-6.501,0-11.771,5.27-11.771,11.771v43.775
	c0,6.501,5.27,11.771,11.771,11.771h41.615V406.727z"/>
<path style="fill:#38648C;" d="M238.207,263.917H25.709C11.51,263.917,0,252.407,0,238.208V25.71C0,11.511,11.51,0.001,25.709,0.001
	h212.497c14.199,0,25.71,11.51,25.71,25.709v212.497C263.917,252.407,252.406,263.917,238.207,263.917z"/>
<circle style="fill:#BDC0C3;" cx="402.06" cy="153.98" r="109.94"/>
<circle style="fill:#FFFFFF;" cx="402.06" cy="153.98" r="83.61"/>
<path style="fill:#38648C;" d="M444.289,203.706c-1.919,0-3.839-0.732-5.303-2.196c-2.929-2.93-2.929-7.678,0-10.607
	c9.864-9.863,15.296-22.977,15.296-36.927c0-28.795-23.427-52.222-52.223-52.222c-28.795,0-52.222,23.427-52.222,52.222
	c0,13.949,5.432,27.063,15.295,36.927c2.929,2.93,2.929,7.678,0,10.607c-2.929,2.928-7.678,2.928-10.606,0
	c-12.697-12.697-19.689-29.578-19.689-47.534c0-37.066,30.156-67.222,67.222-67.222c37.067,0,67.223,30.155,67.223,67.222
	c0,17.956-6.993,34.837-19.689,47.534C448.128,202.975,446.208,203.706,444.289,203.706z"/>
<path style="fill:#F28B74;" d="M366.654,174.269c-3.07,0-5.951-1.899-7.054-4.954c-1.407-3.896,0.61-8.194,4.505-9.602l35.406-12.79
	c3.897-1.407,8.195,0.609,9.602,4.506c1.407,3.895-0.61,8.194-4.505,9.602l-35.406,12.79
	C368.36,174.124,367.5,174.269,366.654,174.269z"/>
<path style="opacity:0.1;enable-background:new    ;" d="M292.118,153.977c0,60.719,49.222,109.941,109.941,109.941
	c27.08,0,51.869-9.797,71.029-26.032c-75.613,3.101-154.235-106.428-96.014-190.996C328.393,58.203,292.118,101.853,292.118,153.977
	z"/>
<path style="opacity:0.15;enable-background:new    ;" d="M203.052,0.001h-36.741c13.052,0,23.632,10.581,23.632,23.632v216.652
	c0,13.052-10.581,23.632-23.632,23.632h36.741c13.052,0,23.632-10.581,23.632-23.632V23.633
	C226.685,10.582,216.104,0.001,203.052,0.001z"/>
<path style="fill:#38648C;" d="M166.312,0.001H25.709C11.511,0.001,0,11.511,0,25.71v212.497c0,14.199,11.51,25.71,25.71,25.71
	h140.602c13.052,0,23.632-10.581,23.632-23.632V23.633C189.944,10.582,179.364,0.001,166.312,0.001z"/>
<path style="fill:#76B7EB;" d="M166.312,0.001h-22.893v263.916h22.893c13.052,0,23.632-10.581,23.632-23.632V23.633
	C189.944,10.582,179.363,0.001,166.312,0.001z"/>
<ellipse style="fill:#38648C;" cx="399.49" cy="440.38" rx="96.82" ry="71.61"/>
<path style="opacity:0.15;enable-background:new    ;" d="M469.537,489.824c-121.082,10.185-142.125-74.957-116.686-112.21
	c-29.914,12.185-50.186,35.726-50.186,62.77c0,39.552,43.349,71.615,96.823,71.615C427.041,512,451.905,503.487,469.537,489.824z"/>
<rect x="38.56" y="263.921" style="opacity:0.15;enable-background:new    ;" width="35.402" height="21.23"/>
<rect x="189.95" y="263.921" style="opacity:0.15;enable-background:new    ;" width="35.402" height="21.23"/>
<path style="fill:#F28B74;" d="M79.533,82.107c9.383,7.253,27.57,23.91,29.783,45.459c2.152,20.953-13.968,39.704-35.031,39.883
	c-19.782,0.168-35.87-15.817-35.87-35.56c0-23.652,20.033-42.078,30.027-49.799C71.708,79.567,76.268,79.583,79.533,82.107z"/>
<path style="opacity:0.15;enable-background:new    ;" d="M49.984,0.001H25.71C11.511,0.001,0,11.511,0,25.71v212.497
	c0,14.199,11.51,25.71,25.71,25.71h137.664C44.04,227.379,37.915,57.637,49.984,0.001z"/>
<g>
</g>
<g>
</g>
<g>
</g>
<g>
</g>
<g>
</g>
<g>
</g>
<g>
</g>
<g>
</g>
<g>
</g>
<g>
</g>
<g>
</g>
<g>
</g>
<g>
</g>
<g>
</g>
<g>
</g>
</svg>
