<?xml version="1.0" encoding="iso-8859-1"?>
<!-- Generator: Adobe Illustrator 19.0.0, SVG Export Plug-In . SVG Version: 6.00 Build 0)  -->
<svg version="1.1" id="Capa_1" xmlns="http://www.w3.org/2000/svg" xmlns:xlink="http://www.w3.org/1999/xlink" x="0px" y="0px"
	 viewBox="0 0 512 512" style="enable-background:new 0 0 512 512;" xml:space="preserve">
<path style="fill:#38648C;" d="M102.402,157.767l-6.708-13.061c-4.619-8.993-13.879-14.647-23.989-14.647H19.026
	c-10.507,0-19.025,8.518-19.025,19.025v328.07l436.478,17.61V195.482c0-13.169-10.676-23.845-23.845-23.845H125.118
	C115.546,171.637,106.776,166.282,102.402,157.767z"/>
<path style="opacity:0.1;enable-background:new    ;" d="M436.478,318.703c-124.627,27.549-374.25,7.864-436.478-3.471v161.922
	l436.478,17.61V318.703z"/>
<path style="fill:#E8E9EA;" d="M404.348,320.109h-271.92V36.523c0-10.652,8.635-19.288,19.288-19.288H385.06
	c10.652,0,19.288,8.635,19.288,19.288V320.109z"/>
<circle style="fill:#FFFFFF;" cx="266.99" cy="178.08" r="70.03"/>
<g>
	<path style="fill:#F28B74;" d="M281.341,160.92v-21.343c0-1.959-1.588-3.547-3.547-3.547H256.19c-1.959,0-3.547,1.588-3.547,3.547
		v21.343c0,1.555-1.26,2.815-2.815,2.815h-21.343c-1.959,0-3.547,1.588-3.547,3.547v21.604c0,1.959,1.588,3.547,3.547,3.547h21.343
		c1.555,0,2.815,1.26,2.815,2.815v21.343c0,1.959,1.588,3.547,3.547,3.547h21.603c1.959,0,3.547-1.588,3.547-3.547v-21.343
		c0-1.555,1.26-2.815,2.815-2.815h21.344c1.959,0,3.547-1.588,3.547-3.547v-21.604c0-1.959-1.588-3.547-3.547-3.547h-21.344
		C282.602,163.735,281.341,162.475,281.341,160.92z"/>
	<ellipse style="fill:#F28B74;" cx="188.48" cy="84.57" rx="29.485" ry="23.481"/>
	<ellipse style="fill:#F28B74;" cx="348.3" cy="84.57" rx="29.485" ry="23.481"/>
</g>
<g>
	<path style="fill:#495059;" d="M205.663,68.648c-4.143,0-7.5-3.357-7.5-7.5V50.736c0-4.143,3.357-7.5,7.5-7.5s7.5,3.357,7.5,7.5
		v10.412C213.163,65.291,209.805,68.648,205.663,68.648z"/>
	<path style="fill:#495059;" d="M331.115,68.648c-4.143,0-7.5-3.357-7.5-7.5V50.736c0-4.143,3.357-7.5,7.5-7.5s7.5,3.357,7.5,7.5
		v10.412C338.615,65.291,335.257,68.648,331.115,68.648z"/>
	<path style="fill:#495059;" d="M268.388,76.644c-8.505,0-16.593-3.683-22.19-10.104c-2.722-3.123-2.398-7.86,0.725-10.582
		c3.124-2.724,7.861-2.397,10.582,0.725c2.749,3.153,6.716,4.962,10.884,4.962c4.169,0,8.136-1.809,10.885-4.962
		c2.721-3.121,7.459-3.447,10.582-0.725c3.122,2.722,3.446,7.459,0.725,10.582C284.981,72.961,276.893,76.644,268.388,76.644z"/>
</g>
<path style="opacity:0.1;enable-background:new    ;" d="M185.898,17.235h-34.182c-10.652,0-19.288,8.635-19.288,19.288v283.586
	h213.661C218.24,283.646,168.663,103.472,185.898,17.235z"/>
<path style="fill:#76B7EB;" d="M436.478,494.765H18.165c-11.919,0-20.604-11.292-17.547-22.812l57.358-216.081
	c2.112-7.957,9.314-13.497,17.547-13.497h418.314c11.919,0,20.605,11.292,17.546,22.812l-57.358,216.081
	C451.913,489.225,444.711,494.765,436.478,494.765z"/>
<path style="opacity:0.1;enable-background:new    ;" d="M107.573,242.375h-32.05c-8.232,0-15.434,5.54-17.547,13.497L0.618,471.953
	c-3.058,11.52,5.627,22.812,17.547,22.812h262.277C98.34,456.431,64.403,301.224,107.573,242.375z"/>
<path style="opacity:0.1;enable-background:new    ;" d="M2.521,464.787H458.4l3.982-15H6.502L2.521,464.787z"/>
<g>
</g>
<g>
</g>
<g>
</g>
<g>
</g>
<g>
</g>
<g>
</g>
<g>
</g>
<g>
</g>
<g>
</g>
<g>
</g>
<g>
</g>
<g>
</g>
<g>
</g>
<g>
</g>
<g>
</g>
</svg>
