<?xml version="1.0" encoding="iso-8859-1"?>
<!-- Generator: Adobe Illustrator 19.0.0, SVG Export Plug-In . SVG Version: 6.00 Build 0)  -->
<svg version="1.1" id="Capa_1" xmlns="http://www.w3.org/2000/svg" xmlns:xlink="http://www.w3.org/1999/xlink" x="0px" y="0px"
	 viewBox="0 0 511.999 511.999" style="enable-background:new 0 0 511.999 511.999;" xml:space="preserve">
<path style="fill:#7FDBD5;" d="M104.652,397.172c12.625,9.758,37.094,32.171,40.072,61.164
	c2.895,28.192-18.793,53.421-47.132,53.661c-26.615,0.226-48.262-21.282-48.262-47.845c0-31.824,26.953-56.615,40.4-67.003
	C94.123,393.755,100.258,393.776,104.652,397.172z"/>
<path style="opacity:0.1;enable-background:new    ;" d="M49.329,464.152c0,26.563,21.646,48.071,48.262,47.845
	c22.557-0.191,40.885-16.219,45.971-36.967c-57.3,41.876-83.998-27.361-65.175-68.118C64.986,419.733,49.329,439.896,49.329,464.152
	z"/>
<path style="fill:#B3E7FF;" d="M242.838,121.646L106.57,257.915c-18.894,18.894-24.618,45.967-17.179,69.82
	c0.989,3.172,0.573,6.571-1.033,9.48c-5.727,10.377-4.194,23.688,4.607,32.489c8.801,8.801,22.112,10.334,32.489,4.607
	c2.909-1.606,6.308-2.022,9.48-1.033c23.853,7.439,50.926,1.715,69.82-17.179l136.268-136.27L242.838,121.646z"/>
<path style="fill:#7FDBD5;" d="M276.216,284.635c-33.619-33.62-75.538-75.538-98.184-98.184l-71.463,71.463
	c-18.894,18.894-24.618,45.967-17.179,69.82c0.989,3.172,0.573,6.571-1.033,9.48c-5.727,10.377-4.194,23.688,4.607,32.489
	s22.112,10.334,32.489,4.607c2.909-1.605,6.308-2.022,9.48-1.033c23.853,7.439,50.926,1.715,69.819-17.179L276.216,284.635z"/>
<path style="fill:#F28B74;" d="M436.489,26.18L436.489,26.18c-34.907-34.907-91.503-34.907-126.41,0l-39.383,39.383l126.41,126.41
	l39.383-39.383C471.396,117.683,471.396,61.087,436.489,26.18z"/>
<g>
	
		<ellipse transform="matrix(0.7071 -0.7071 0.7071 0.7071 53.5922 249.3486)" style="fill:#FFFFFF;" cx="327.786" cy="59.983" rx="15.563" ry="19.543"/>
	
		<ellipse transform="matrix(-0.7071 0.7071 -0.7071 -0.7071 782.8035 -54.4608)" style="fill:#FFFFFF;" cx="402.681" cy="134.894" rx="15.563" ry="19.543"/>
</g>
<g>
	<path style="fill:#495059;" d="M346.815,64.557c-1.919,0-3.839-0.732-5.304-2.196c-2.929-2.93-2.929-7.678,0-10.607l4.88-4.88
		c2.93-2.928,7.678-2.928,10.607,0c2.929,2.93,2.929,7.678,0,10.607l-4.88,4.88C350.654,63.824,348.734,64.557,346.815,64.557z"/>
	<path style="fill:#495059;" d="M405.611,123.353c-1.919,0-3.839-0.732-5.304-2.196c-2.929-2.93-2.929-7.678,0-10.607l4.88-4.88
		c2.93-2.928,7.678-2.928,10.607,0c2.929,2.93,2.929,7.678,0,10.607l-4.88,4.88C409.45,122.62,407.53,123.353,405.611,123.353z"/>
	<path style="fill:#495059;" d="M382.747,101.956c-5.83,0-11.439-2.306-15.585-6.45c-4.502-4.503-6.835-10.734-6.398-17.098
		c0.283-4.133,3.859-7.243,7.995-6.97c4.133,0.283,7.253,3.862,6.97,7.995c-0.14,2.037,0.604,4.029,2.041,5.465
		c1.436,1.437,3.436,2.177,5.465,2.041c4.127-0.285,7.711,2.838,7.995,6.97c0.283,4.133-2.837,7.712-6.97,7.995
		C383.755,101.938,383.249,101.956,382.747,101.956z"/>
</g>
<path style="fill:#F28B74;" d="M373.205,252.013l-162.55-162.55c-8.362-8.362-8.362-21.919,0-30.281l11.689-11.689
	c8.362-8.362,21.919-8.362,30.281,0l162.55,162.55c8.362,8.362,8.362,21.919,0,30.281l-11.689,11.689
	C395.124,260.374,381.567,260.374,373.205,252.013z"/>
<path style="opacity:0.15;enable-background:new    ;" d="M242.839,121.646L106.57,257.915
	c-18.893,18.893-24.617,45.965-17.179,69.818c0.97,3.112,0.643,6.489-0.95,9.333c-5.824,10.398-4.318,23.795,4.524,32.637
	c8.843,8.843,22.239,10.349,32.637,4.524c2.844-1.593,6.221-1.92,9.333-0.95c23.853,7.438,50.925,1.714,69.818-17.179l13.829-13.829
	c-90.352,0.673-83.167-81.246,13.064-180.016c3.873-3.975,10.248-4.031,14.172-0.107l76.444,76.444l18.76-18.761L242.839,121.646z"
	/>
<g style="opacity:0.1;">
	<circle cx="175.049" cy="237.859" r="7.352"/>
	<circle cx="138.049" cy="278.959" r="7.352"/>
	<circle cx="145.649" cy="338.329" r="7.352"/>
	<circle cx="208.659" cy="305.309" r="7.352"/>
</g>
<path style="opacity:0.1;enable-background:new    ;" d="M318.348,75.585c0.291-27.437,14.146-55.417,31.182-72.362
	c-14.448,3.968-28.099,11.604-39.452,22.957l-39.383,39.383l126.41,126.41l13.492-13.492l-84.72-84.722
	C321.057,88.939,318.276,82.401,318.348,75.585z"/>
<g>
</g>
<g>
</g>
<g>
</g>
<g>
</g>
<g>
</g>
<g>
</g>
<g>
</g>
<g>
</g>
<g>
</g>
<g>
</g>
<g>
</g>
<g>
</g>
<g>
</g>
<g>
</g>
<g>
</g>
</svg>
