<?xml version="1.0" encoding="iso-8859-1"?>
<!-- Generator: Adobe Illustrator 19.0.0, SVG Export Plug-In . SVG Version: 6.00 Build 0)  -->
<svg version="1.1" id="Capa_1" xmlns="http://www.w3.org/2000/svg" xmlns:xlink="http://www.w3.org/1999/xlink" x="0px" y="0px"
	 viewBox="0 0 512.001 512.001" style="enable-background:new 0 0 512.001 512.001;" xml:space="preserve">
<path style="fill:#E8E9EA;" d="M445.411,119.964l64.065-76.83c3.605-4.323,3.318-10.682-0.663-14.662L483.53,3.187
	c-3.98-3.98-10.339-4.268-14.662-0.663l-76.83,64.066L445.411,119.964z"/>
<polygon style="opacity:0.1;enable-background:new    ;" points="392.037,66.59 445.411,119.964 455.607,107.737 404.265,56.394 "/>
<path style="fill:#E8E9EA;" d="M451.693,139.064l-32.731,35.408l-81.433-81.433l35.408-32.731c3.72-3.439,9.493-3.326,13.075,0.257
	l65.424,65.424C455.019,129.571,455.133,135.344,451.693,139.064z"/>
<path style="opacity:0.1;enable-background:new    ;" d="M425.843,100.396c-0.032,0.032-0.067,0.06-0.099,0.093l-39.653,41.112
	l10.604,10.604c0.032-0.032,0.067-0.06,0.099-0.092L436.447,111L425.843,100.396z"/>
<path style="opacity:0.1;enable-background:new    ;" d="M401.002,75.554l-41.112,39.653c-0.033,0.032-0.061,0.067-0.093,0.099
	l10.604,10.604l41.112-39.653c0.033-0.032,0.061-0.067,0.093-0.099L401.002,75.554z"/>
<polygon style="opacity:0.1;enable-background:new    ;" points="337.529,93.039 418.962,174.472 429.282,163.309 348.692,82.72 "/>
<path style="fill:#7FDBD5;" d="M425.139,204.95L167.618,506.281c-6.184,7.237-17.223,7.669-23.955,0.938L4.783,368.337
	c-6.731-6.731-6.299-17.77,0.938-23.954l301.33-257.521c7.397-6.321,18.411-5.89,25.291,0.99l91.807,91.807
	C431.029,186.539,431.46,197.553,425.139,204.95z"/>
<path style="fill:#FFFFFF;" d="M173.032,312.116l-16.697-16.697c-1.532-1.532-4.017-1.532-5.549,0l-16.9,16.9
	c-1.532,1.532-1.532,4.017,0,5.549l16.697,16.697c1.216,1.216,1.216,3.188,0,4.404l-16.697,16.697c-1.532,1.532-1.532,4.017,0,5.549
	l16.9,16.9c1.532,1.532,4.017,1.532,5.549,0l16.697-16.697c1.216-1.216,3.188-1.216,4.404,0l16.697,16.697
	c1.532,1.532,4.017,1.532,5.549,0l16.9-16.9c1.532-1.532,1.532-4.017,0-5.549l-16.697-16.697c-1.216-1.216-1.216-3.188,0-4.404
	l16.697-16.697c1.532-1.532,1.532-4.017,0-5.549l-16.9-16.9c-1.532-1.532-4.017-1.532-5.549,0l-16.697,16.697
	C176.22,313.332,174.248,313.332,173.032,312.116z"/>
<g>
	<path style="fill:#38648C;" d="M264.234,278.007c-1.919,0-3.839-0.732-5.303-2.196c-2.929-2.93-2.929-7.678,0-10.607l68.17-68.17
		c2.929-2.928,7.678-2.928,10.607,0c2.929,2.93,2.929,7.678,0,10.607l-68.17,68.17C268.073,277.274,266.153,278.007,264.234,278.007
		z"/>
	<path style="fill:#38648C;" d="M287.117,300.891c-1.919,0-3.839-0.732-5.303-2.196c-2.929-2.93-2.929-7.678,0-10.607l38.048-38.048
		c2.929-2.928,7.678-2.928,10.606,0c2.929,2.93,2.929,7.678,0,10.607l-38.048,38.048
		C290.956,300.158,289.036,300.891,287.117,300.891z"/>
</g>
<g>
	
		<ellipse transform="matrix(-0.7071 -0.7071 0.7071 -0.7071 201.7579 598.2573)" style="fill:#FFFFFF;" cx="224.782" cy="257.343" rx="19.626" ry="24.645"/>
	
		<ellipse transform="matrix(0.7071 0.7071 -0.7071 0.7071 208.6883 -178.0336)" style="fill:#FFFFFF;" cx="319.25" cy="162.892" rx="19.626" ry="24.645"/>
</g>
<g>
	<path style="fill:#495059;" d="M221.1,240.85c-1.919,0-3.839-0.732-5.303-2.196l-6.154-6.154c-2.929-2.93-2.929-7.678,0-10.607
		c2.929-2.928,7.678-2.928,10.607,0l6.154,6.154c2.929,2.93,2.929,7.678,0,10.607C224.939,240.117,223.019,240.85,221.1,240.85z"/>
	<path style="fill:#495059;" d="M295.247,166.703c-1.919,0-3.839-0.732-5.303-2.196l-6.154-6.154c-2.929-2.93-2.929-7.678,0-10.607
		c2.929-2.928,7.678-2.928,10.606,0l6.154,6.154c2.929,2.93,2.929,7.678,0,10.607C299.086,165.971,297.166,166.703,295.247,166.703z
		"/>
	<path style="fill:#495059;" d="M249.935,213.866c-0.591,0-1.184-0.019-1.778-0.06c-4.132-0.284-7.252-3.864-6.968-7.996
		c0.284-4.133,3.863-7.241,7.997-6.969c3.132,0.222,6.197-0.93,8.411-3.143c2.211-2.211,3.357-5.276,3.142-8.409
		c-0.284-4.133,2.837-7.713,6.969-7.996c4.122-0.29,7.712,2.837,7.996,6.969c0.512,7.46-2.222,14.766-7.5,20.044
		C263.343,211.164,256.767,213.866,249.935,213.866z"/>
</g>
<path style="fill:#E8E9EA;" d="M30.495,323.21L5.72,344.383c-7.237,6.184-7.669,17.223-0.938,23.954l138.881,138.881
	c6.731,6.731,17.77,6.299,23.955-0.938l21.173-24.775L30.495,323.21z"/>
<path style="opacity:0.1;enable-background:new    ;" d="M146.004,438.719c-0.11,0.11-0.222,0.216-0.327,0.335l-32.899,37.28
	l10.61,10.61c0.11-0.11,0.223-0.215,0.327-0.333l32.899-37.28L146.004,438.719z M71.174,363.889l-10.61-10.61l-37.28,32.899
	c-0.118,0.104-0.224,0.216-0.334,0.326l10.61,10.61l37.28-32.899C70.958,364.112,71.064,363.999,71.174,363.889z M113.893,406.608
	l-10.607-10.607l-35.42,35.42l0,0l10.607,10.607L113.893,406.608L113.893,406.608z"/>
<path style="opacity:0.1;enable-background:new    ;" d="M103.975,260.413L5.72,344.383c-7.236,6.185-7.668,17.224-0.938,23.955
	l138.881,138.881c6.731,6.731,17.77,6.299,23.955-0.938l166.144-194.409C221.406,372.607,144.992,339.516,103.975,260.413z"/>
<g>
</g>
<g>
</g>
<g>
</g>
<g>
</g>
<g>
</g>
<g>
</g>
<g>
</g>
<g>
</g>
<g>
</g>
<g>
</g>
<g>
</g>
<g>
</g>
<g>
</g>
<g>
</g>
<g>
</g>
</svg>
