<?xml version="1.0" encoding="iso-8859-1"?>
<!-- Generator: Adobe Illustrator 19.0.0, SVG Export Plug-In . SVG Version: 6.00 Build 0)  -->
<svg version="1.1" id="Capa_1" xmlns="http://www.w3.org/2000/svg" xmlns:xlink="http://www.w3.org/1999/xlink" x="0px" y="0px"
	 viewBox="0 0 512.001 512.001" style="enable-background:new 0 0 512.001 512.001;" xml:space="preserve">
<path style="fill:#BDC0C3;" d="M505.055,70.196c6.052,0,9.198,7.211,5.082,11.647l-7.744,8.347
	c-4.667,5.031-11.219,7.889-18.081,7.889H215.923c-6.862,0-13.414-2.859-18.081-7.889l-7.744-8.347
	c-4.116-4.436-0.97-11.647,5.082-11.647H505.055z"/>
<path style="opacity:0.1;enable-background:new    ;" d="M325.276,77.616v20.463h49.682V77.616c0-2.584-0.397-5.076-1.133-7.42
	h-47.416C325.674,72.54,325.276,75.032,325.276,77.616z"/>
<path style="fill:#38648C;" d="M350.117,62.775L350.117,62.775c-8.197,0-14.841,6.644-14.841,14.841v45.322h29.682V77.616
	C364.958,69.42,358.314,62.775,350.117,62.775z"/>
<path style="opacity:0.1;enable-background:new    ;" d="M364.958,108.349c-15.688-1.663-25.29-24.474-26.088-40.399
	c-2.235,2.598-3.594,5.97-3.594,9.666v45.322h29.682V108.349z"/>
<rect x="319.681" y="345.961" style="fill:#BDC0C3;" width="27.2" height="76.21"/>
<rect x="319.681" y="345.961" style="opacity:0.1;enable-background:new    ;" width="27.2" height="76.21"/>
<path style="fill:#BDC0C3;" d="M468.725,449.226H188.233c-7.511,0-13.6-6.089-13.6-13.6l0,0c0-7.511,6.089-13.6,13.6-13.6h280.492
	c7.511,0,13.6,6.089,13.6,13.6l0,0C482.326,443.137,476.237,449.226,468.725,449.226z"/>
<path style="fill:#E8E9EA;" d="M350.117,117.125c-61.526,0-114.235,37.722-136.275,91.299c-7.636,18.563-25.528,30.837-45.6,30.837
	h-38.83c-8.8,0-16.613-5.629-19.399-13.976l-8.172-24.479c-5.975-17.899-22.73-29.97-41.6-29.97h-42.08
	c-11.036,0-19.519,9.763-17.98,20.691l12.615,89.515c2.617,18.572,18.51,32.382,37.265,32.382h134.284
	c15.999,0,31.017,7.174,41.556,19.211c26.164,29.883,72.018,41.596,124.215,41.596c81.353,0,147.303-28.449,147.303-109.803
	S431.471,117.125,350.117,117.125z"/>
<g>
	<path style="fill:#76B7EB;" d="M301.265,125.429c-39.636,13.932-71.517,44.331-87.422,82.995
		c-7.636,18.563-25.528,30.837-45.6,30.837h-24.898c6.119,24.924,15.429,51.119,28.772,74.163h12.23
		c15.999,0,31.017,7.174,41.556,19.211c26.164,29.882,72.018,41.596,124.215,41.596c39.714,0,75.751-6.785,102.243-23.189
		C363.112,311.83,312.195,174.708,301.265,125.429z"/>
	<path style="fill:#76B7EB;" d="M454.312,160.306h-70.011c-7.728,0-13.154,7.615-10.63,14.92l17.283,50.011
		c5.491,15.888,20.452,26.547,37.262,26.547h68.658C493.846,216.171,478.157,184.167,454.312,160.306z"/>
</g>
<path style="fill:#FFFFFF;" d="M288.039,243.188v-22.555c0-2.07-1.678-3.748-3.748-3.748h-22.83c-2.07,0-3.748,1.678-3.748,3.748
	v22.555c0,1.643-1.332,2.975-2.975,2.975h-22.555c-2.07,0-3.748,1.678-3.748,3.748v22.83c0,2.07,1.678,3.748,3.748,3.748h22.555
	c1.643,0,2.975,1.332,2.975,2.975v22.556c0,2.07,1.678,3.748,3.748,3.748h22.83c2.07,0,3.748-1.678,3.748-3.748v-22.556
	c0-1.643,1.332-2.975,2.975-2.975h22.556c2.07,0,3.748-1.678,3.748-3.748v-22.83c0-2.07-1.678-3.748-3.748-3.748h-22.556
	C289.371,246.162,288.039,244.831,288.039,243.188z"/>
<path style="opacity:0.15;enable-background:new    ;" d="M259.639,148.207c-20.06,15.642-35.978,36.349-45.796,60.218
	c-7.636,18.563-25.528,30.837-45.6,30.837h-38.83c-8.8,0-16.613-5.629-19.399-13.976l-8.171-24.479
	c-5.975-17.899-22.73-29.97-41.6-29.97h-42.08c-11.036,0-19.52,9.763-17.98,20.691l12.615,89.515
	c2.617,18.572,18.51,32.382,37.266,32.382h134.284c15.999,0,31.017,7.174,41.556,19.211c26.164,29.882,72.018,41.596,124.215,41.596
	c16.241,0,31.865-1.138,46.477-3.6C266.251,320.348,221.976,228.004,259.639,148.207z"/>
<g>
	<path style="fill:#76B7EB;" d="M32.424,259.284c-1.92,0-3.839-0.732-5.304-2.196c-2.929-2.93-2.929-7.678,0-10.607l45.739-45.738
		c2.931-2.929,7.679-2.927,10.607,0c2.929,2.93,2.929,7.678,0,10.607l-45.739,45.738C36.263,258.552,34.343,259.284,32.424,259.284z
		"/>
	<path style="fill:#76B7EB;" d="M78.163,259.284c-1.919,0-3.839-0.732-5.304-2.196L27.12,211.35c-2.929-2.93-2.929-7.678,0-10.607
		c2.93-2.928,7.678-2.928,10.608,0l45.739,45.738c2.929,2.93,2.929,7.678,0,10.607C82.002,258.552,80.082,259.284,78.163,259.284z"
		/>
</g>
<circle style="fill:#38648C;" cx="55.291" cy="228.911" r="18.679"/>
<path style="fill:#495059;" d="M439.462,285.392h-20.735c-4.143,0-7.5-3.357-7.5-7.5s3.357-7.5,7.5-7.5h20.735
	c4.143,0,7.5,3.357,7.5,7.5S443.604,285.392,439.462,285.392z"/>
<path style="opacity:0.1;enable-background:new    ;" d="M454.312,160.306h-70.011c-7.729,0-13.154,7.615-10.63,14.92l1.595,4.615
	h95.457C465.819,172.861,460.326,166.324,454.312,160.306z"/>
<g>
</g>
<g>
</g>
<g>
</g>
<g>
</g>
<g>
</g>
<g>
</g>
<g>
</g>
<g>
</g>
<g>
</g>
<g>
</g>
<g>
</g>
<g>
</g>
<g>
</g>
<g>
</g>
<g>
</g>
</svg>
