<?xml version="1.0" encoding="iso-8859-1"?>
<!-- Generator: Adobe Illustrator 19.0.0, SVG Export Plug-In . SVG Version: 6.00 Build 0)  -->
<svg version="1.1" id="Capa_1" xmlns="http://www.w3.org/2000/svg" xmlns:xlink="http://www.w3.org/1999/xlink" x="0px" y="0px"
	 viewBox="0 0 512 512" style="enable-background:new 0 0 512 512;" xml:space="preserve">
<g>
	<path style="fill:#BDC0C3;" d="M437.07,31.318l-26.703,26.703c-2.546,2.546-6.675,2.546-9.221,0l-11.975-11.974
		c-2.546-2.546-2.546-6.675,0-9.221l26.703-26.703c2.546-2.546,6.675-2.546,9.221,0l11.974,11.974
		C439.616,24.643,439.616,28.771,437.07,31.318z"/>
	<path style="fill:#BDC0C3;" d="M477.298,88.07l-26.703,26.703c-2.546,2.546-2.546,6.675,0,9.221l11.974,11.974
		c2.546,2.546,6.675,2.546,9.221,0l26.703-26.703c2.546-2.546,2.546-6.675,0-9.221L486.519,88.07
		C483.972,85.524,479.844,85.524,477.298,88.07z"/>
</g>
<path style="fill:#E8E9EA;" d="M350.57,4.606L121.335,233.841l161.702,161.702l219.608-219.608
	c5.909-5.909,5.973-15.448,0.184-21.476c-49.163-51.196-79.177-96.93-129.728-149.589C366.977-1.509,356.822-1.647,350.57,4.606z"/>
<path style="opacity:0.1;enable-background:new    ;" d="M227.708,127.468L121.335,233.841l161.702,161.702l134.154-134.154
	C354.995,258.109,263.484,176.94,227.708,127.468z"/>
<path style="fill:#E8E9EA;" d="M354.34,362.197L354.34,362.197c-37.404,58.847-87.3,108.743-146.147,146.147l0,0
	c-9.262,5.887-21.369,4.555-29.129-3.205L11.739,337.814c-7.76-7.76-9.092-19.867-3.205-29.129l0,0
	c37.404-58.847,87.3-108.743,146.147-146.147l0,0c9.262-5.887,21.369-4.555,29.129,3.205l167.325,167.325
	C358.895,340.828,360.227,352.935,354.34,362.197z"/>
<g style="opacity:0.1;">
	<path d="M372.534,201.687c-1.92,0-3.839-0.732-5.304-2.196l-58.539-58.54c-2.929-2.93-2.929-7.678,0-10.607
		c2.931-2.929,7.679-2.927,10.608,0l58.539,58.54c2.929,2.93,2.929,7.678,0,10.607C376.373,200.954,374.453,201.687,372.534,201.687
		z"/>
	<path d="M395.782,157.619c-1.919,0-3.839-0.732-5.304-2.196l-64.396-64.396c-2.929-2.93-2.929-7.678,0-10.607
		c2.93-2.928,7.678-2.928,10.607,0l64.396,64.396c2.929,2.93,2.929,7.678,0,10.607C399.621,156.887,397.701,157.619,395.782,157.619
		z"/>
	<path d="M347.652,190.898c-1.919,0-3.839-0.732-5.304-2.196c-2.929-2.93-2.929-7.678,0-10.607l64.017-64.018
		c2.93-2.928,7.678-2.928,10.607,0c2.929,2.93,2.929,7.678,0,10.607l-64.017,64.018
		C351.491,190.165,349.571,190.898,347.652,190.898z"/>
	<path d="M297.729,173.506c-1.919,0-3.839-0.733-5.304-2.196c-2.929-2.93-2.929-7.678,0-10.607l60.312-60.313
		c2.93-2.928,7.678-2.928,10.607,0c2.929,2.93,2.929,7.678,0,10.608l-60.311,60.313
		C301.567,172.773,299.648,173.506,297.729,173.506z"/>
	<path d="M352.731,263.128c-1.92,0-3.839-0.732-5.304-2.197l-20.819-20.82c-2.929-2.929-2.929-7.678,0.001-10.607
		c2.928-2.929,7.677-2.928,10.606,0.001l20.819,20.82c2.929,2.929,2.929,7.678-0.001,10.606
		C356.57,262.396,354.65,263.128,352.731,263.128z"/>
	<path d="M331.386,207.163c-1.92,0-3.839-0.732-5.304-2.196c-2.929-2.93-2.929-7.678,0-10.607l60.313-60.312
		c2.931-2.929,7.679-2.927,10.607,0c2.929,2.93,2.929,7.678,0,10.607l-60.313,60.311
		C335.225,206.431,333.305,207.163,331.386,207.163z"/>
	<path d="M333.634,272.231c-1.919,0-3.839-0.732-5.304-2.196c-2.929-2.93-2.929-7.678,0-10.608l67.226-67.226
		c2.93-2.928,7.678-2.928,10.607,0c2.929,2.93,2.929,7.678,0,10.607l-67.226,67.227
		C337.473,271.499,335.553,272.231,333.634,272.231z"/>
</g>
<g style="opacity:0.1;">
	<path d="M257.549,424.958c-1.919,0-3.839-0.732-5.304-2.196l-58.54-58.54c-2.929-2.93-2.929-7.678,0-10.607
		c2.93-2.928,7.678-2.928,10.607,0l58.54,58.54c2.929,2.93,2.929,7.678,0,10.607C261.388,424.226,259.468,424.958,257.549,424.958z"
		/>
	<path d="M254.609,354.704c-1.92,0-3.839-0.732-5.304-2.196l-38.209-38.21c-2.929-2.93-2.929-7.678,0-10.608
		c2.93-2.929,7.678-2.927,10.607,0l38.209,38.21c2.929,2.93,2.929,7.678,0,10.607C258.448,353.972,256.528,354.704,254.609,354.704z
		"/>
	<path d="M232.667,414.169c-1.919,0-3.839-0.732-5.304-2.196c-2.929-2.93-2.929-7.678,0-10.608l54.091-54.091
		c2.93-2.928,7.678-2.928,10.607,0c2.929,2.93,2.929,7.678,0,10.607l-54.091,54.091
		C236.506,413.437,234.586,414.169,232.667,414.169z"/>
	<path d="M182.742,396.777c-1.92,0-3.839-0.732-5.304-2.196c-2.929-2.93-2.929-7.678,0-10.608l60.313-60.311
		c2.93-2.929,7.678-2.927,10.607,0c2.929,2.93,2.929,7.678,0,10.607l-60.313,60.312
		C186.581,396.045,184.661,396.777,182.742,396.777z"/>
	<path d="M227.788,419.047c-1.919,0-3.839-0.732-5.304-2.196c-2.929-2.93-2.929-7.678,0-10.607l48.924-48.924
		c2.93-2.928,7.678-2.928,10.607,0c2.929,2.93,2.929,7.678,0,10.608l-48.924,48.924
		C231.627,418.315,229.707,419.047,227.788,419.047z"/>
</g>
<g>
	
		<ellipse transform="matrix(-0.7071 -0.7071 0.7071 -0.7071 -76.9775 668.0325)" style="fill:#F28B74;" cx="99.865" cy="349.959" rx="19.965" ry="25.07"/>
	
		<ellipse transform="matrix(0.7071 0.7071 -0.7071 0.7071 236.9129 -64.2084)" style="fill:#F28B74;" cx="195.963" cy="253.875" rx="19.965" ry="25.07"/>
</g>
<g>
	<path style="fill:#495059;" d="M96.116,333.045c-1.919,0-3.839-0.732-5.304-2.196l-6.26-6.26c-2.929-2.93-2.929-7.678,0-10.608
		c2.93-2.928,7.678-2.928,10.607,0l6.26,6.26c2.929,2.93,2.929,7.678,0,10.607C99.955,332.313,98.035,333.045,96.116,333.045z"/>
	<path style="fill:#495059;" d="M171.541,257.62c-1.919,0-3.839-0.732-5.304-2.196l-6.26-6.26c-2.929-2.93-2.929-7.678,0-10.607
		c2.93-2.928,7.678-2.928,10.607,0l6.26,6.26c2.929,2.93,2.929,7.678,0,10.607C175.38,256.888,173.46,257.62,171.541,257.62z"/>
	<path style="fill:#495059;" d="M125.448,305.597c-0.599,0-1.198-0.021-1.799-0.061c-4.133-0.284-7.252-3.863-6.969-7.996
		c0.283-4.132,3.873-7.247,7.996-6.969c3.227,0.225,6.379-0.956,8.655-3.234c2.277-2.276,3.456-5.431,3.234-8.654
		c-0.284-4.133,2.836-7.712,6.969-7.996c4.134-0.28,7.713,2.836,7.996,6.969c0.518,7.551-2.249,14.945-7.592,20.289
		C139.022,302.861,132.364,305.597,125.448,305.597z"/>
</g>
<path style="opacity:0.1;enable-background:new    ;" d="M24.737,284.842c-5.63,7.773-11.04,15.719-16.204,23.843l0,0
	c-5.887,9.262-4.555,21.369,3.205,29.129l167.325,167.325c7.76,7.76,19.867,9.092,29.129,3.205l0,0
	c32.235-20.489,61.776-44.734,88.057-72.137C193.184,440.186,74.545,333.353,24.737,284.842z"/>
<g>
</g>
<g>
</g>
<g>
</g>
<g>
</g>
<g>
</g>
<g>
</g>
<g>
</g>
<g>
</g>
<g>
</g>
<g>
</g>
<g>
</g>
<g>
</g>
<g>
</g>
<g>
</g>
<g>
</g>
</svg>
