<?xml version="1.0" encoding="iso-8859-1"?>
<!-- Generator: Adobe Illustrator 19.0.0, SVG Export Plug-In . SVG Version: 6.00 Build 0)  -->
<svg version="1.1" id="Capa_1" xmlns="http://www.w3.org/2000/svg" xmlns:xlink="http://www.w3.org/1999/xlink" x="0px" y="0px"
	 viewBox="0 0 512 512" style="enable-background:new 0 0 512 512;" xml:space="preserve">
<path style="fill:#E8E9EA;" d="M484.972,412.253H27.027C12.101,412.253,0,400.152,0,385.225V195.719
	c0-25.747,20.872-46.618,46.618-46.618h304.151c9.826,0,19.304,3.641,26.603,10.22l114.298,103.03
	c12.942,11.666,20.33,28.273,20.33,45.696v77.178C512,400.152,499.899,412.253,484.972,412.253z"/>
<path style="fill:#76B7EB;" d="M249.379,312.176V149.101H46.618C20.872,149.101,0,169.971,0,195.719v134.976h230.861
	C241.088,330.694,249.379,322.403,249.379,312.176z"/>
<rect y="292.291" style="opacity:0.1;enable-background:new    ;" width="249.38" height="15"/>
<path style="fill:#FFFFFF;" d="M143.245,204.652V180.04c0-2.259-1.831-4.09-4.09-4.09h-24.912c-2.259,0-4.09,1.831-4.09,4.09v24.612
	c0,1.793-1.453,3.246-3.246,3.246H82.294c-2.259,0-4.09,1.831-4.09,4.09V236.9c0,2.259,1.831,4.09,4.09,4.09h24.612
	c1.793,0,3.246,1.453,3.246,3.246v24.612c0,2.259,1.831,4.09,4.09,4.09h24.912c2.259,0,4.09-1.831,4.09-4.09v-24.612
	c0-1.793,1.453-3.246,3.246-3.246h24.612c2.259,0,4.09-1.831,4.09-4.09v-24.912c0-2.259-1.831-4.09-4.09-4.09H146.49
	C144.698,207.898,143.245,206.445,143.245,204.652z"/>
<path style="fill:#BDC0C3;" d="M0,371.831v13.394c0,14.927,12.101,27.027,27.027,27.027h457.945
	c14.927,0,27.028-12.101,27.028-27.027v-13.394H0z"/>
<path style="fill:#F28B74;" d="M299.991,97.731h-27.764c-12.618,0-22.848,10.229-22.848,22.848v28.522h73.459v-28.522
	C322.839,107.96,312.609,97.731,299.991,97.731z"/>
<path style="opacity:0.1;enable-background:new    ;" d="M272.794,97.731h-0.567c-12.618,0-22.848,10.229-22.848,22.848v28.522
	h39.137C274.683,134.262,272.876,111.389,272.794,97.731z"/>
<path style="fill:#76B7EB;" d="M416.44,240.818l-57.904-52.195c-4.264-3.844-9.801-5.971-15.541-5.971h-46.508
	c-7.559,0-13.686,6.128-13.686,13.686v54.646c0,7.559,6.128,13.686,13.686,13.686h110.79
	C419.814,264.671,425.752,249.214,416.44,240.818z"/>
<path style="opacity:0.1;enable-background:new    ;" d="M366.143,195.48l-7.607-6.857c-4.264-3.844-9.801-5.971-15.541-5.971
	h-46.508c-7.269,0-13.198,5.671-13.643,12.828L366.143,195.48L366.143,195.48z"/>
<path style="fill:#495059;" d="M334.218,307.288h-22.759c-4.142,0-7.5-3.357-7.5-7.5s3.358-7.5,7.5-7.5h22.759
	c4.142,0,7.5,3.357,7.5,7.5S338.36,307.288,334.218,307.288z"/>
<g>
	<path style="fill:#38648C;" d="M474.932,371.831H512v-41.136h-37.068c-4.498,0-8.145,3.647-8.145,8.145v24.846
		C466.787,368.184,470.434,371.831,474.932,371.831z"/>
	<path style="fill:#38648C;" d="M37.068,371.831H0v-41.136h37.068c4.498,0,8.145,3.647,8.145,8.145v24.846
		C45.213,368.184,41.566,371.831,37.068,371.831z"/>
</g>
<path style="opacity:0.15;enable-background:new    ;" d="M126.855,149.101H46.618C20.872,149.101,0,169.971,0,195.719v189.506
	c0,14.927,12.101,27.027,27.027,27.027h228.118C121.695,349.281,118.537,217.331,126.855,149.101z"/>
<circle style="fill:#495059;" cx="118.54" cy="412.251" r="50.933"/>
<circle style="fill:#BDC0C3;" cx="118.54" cy="412.251" r="20.297"/>
<circle style="fill:#495059;" cx="388.94" cy="412.251" r="50.933"/>
<circle style="fill:#BDC0C3;" cx="388.94" cy="412.251" r="20.297"/>
<g>
	<path style="fill:#F28B74;" d="M286.109,78.655c-4.142,0-7.5-3.357-7.5-7.5V56.317c0-4.143,3.358-7.5,7.5-7.5s7.5,3.357,7.5,7.5
		v14.838C293.609,75.297,290.251,78.655,286.109,78.655z"/>
	<path style="fill:#F28B74;" d="M340.167,102.993c-2.161,0-4.304-0.928-5.787-2.724c-2.638-3.193-2.188-7.921,1.006-10.559
		l12.853-10.617c3.193-2.64,7.921-2.188,10.559,1.006c2.638,3.193,2.188,7.921-1.006,10.559l-12.853,10.617
		C343.541,102.432,341.849,102.993,340.167,102.993z"/>
	<path style="fill:#F28B74;" d="M232.051,102.993c-1.682,0-3.374-0.563-4.772-1.718l-12.854-10.617
		c-3.193-2.638-3.644-7.365-1.006-10.559c2.637-3.192,7.364-3.646,10.559-1.006l12.854,10.617c3.193,2.638,3.644,7.365,1.006,10.559
		C236.355,102.066,234.211,102.993,232.051,102.993z"/>
</g>
<g>
</g>
<g>
</g>
<g>
</g>
<g>
</g>
<g>
</g>
<g>
</g>
<g>
</g>
<g>
</g>
<g>
</g>
<g>
</g>
<g>
</g>
<g>
</g>
<g>
</g>
<g>
</g>
<g>
</g>
</svg>
