<?xml version="1.0" encoding="iso-8859-1"?>
<!-- Generator: Adobe Illustrator 19.0.0, SVG Export Plug-In . SVG Version: 6.00 Build 0)  -->
<svg version="1.1" id="Capa_1" xmlns="http://www.w3.org/2000/svg" xmlns:xlink="http://www.w3.org/1999/xlink" x="0px" y="0px"
	 viewBox="0 0 512 512" style="enable-background:new 0 0 512 512;" xml:space="preserve">
<path style="fill:#E8E9EA;" d="M0,416.651V95.349c0-21.825,17.692-39.517,39.517-39.517h432.966
	c21.825,0,39.517,17.692,39.517,39.517v321.302c0,21.825-17.692,39.517-39.517,39.517H39.517C17.692,456.168,0,438.475,0,416.651z"
	/>
<rect y="206.24" style="fill:#76B7EB;" width="512" height="74.79"/>
<path style="fill:#495059;" d="M451.349,366.47H60.651c-10.549,0-19.101-8.552-19.101-19.101V116.482
	c0-10.549,8.552-19.101,19.101-19.101H451.35c10.549,0,19.101,8.552,19.101,19.101v230.886
	C470.451,357.918,461.899,366.47,451.349,366.47z"/>
<path style="fill:#76B7EB;" d="M397.049,240.799c0-12.557-9.222-22.934-21.259-24.79c-1.633-0.252-2.944-1.44-3.3-3.053
	c-4.944-22.434-15.888-42.746-32.01-58.867c-22.295-22.295-52.315-34.575-84.527-34.575s-62.23,12.279-84.527,34.575
	c-16.121,16.121-27.066,36.433-32.01,58.867c-0.355,1.613-1.667,2.801-3.3,3.053c-12.037,1.856-21.259,12.233-21.259,24.79
	c0,12.441,9.052,22.744,20.926,24.738c1.953,0.328,3.523,1.801,3.999,3.724c7.195,29.115,25.63,51.947,52.174,65.628
	c4.999,2.577,8.09,7.783,8.09,13.406v18.175h111.815v-18.175c0-5.624,3.091-10.83,8.09-13.406
	c26.544-13.681,44.979-36.513,52.174-65.628c0.475-1.922,2.046-3.396,3.999-3.724C387.997,263.543,397.049,253.24,397.049,240.799z"
	/>
<g>
	<path style="fill:#FFFFFF;" d="M345.816,240.8c0-53.123-40.233-91.607-89.862-91.607s-89.862,38.484-89.862,91.607
		s40.233,78.742,89.862,78.742S345.816,293.922,345.816,240.8z"/>
	<path style="fill:#FFFFFF;" d="M274.031,342.001h-36.154c-5.602,0-10.144,4.542-10.144,10.144v4.18
		c0,5.603,4.542,10.144,10.144,10.144h36.154c5.603,0,10.144-4.542,10.144-10.144v-4.18
		C284.175,346.543,279.633,342.001,274.031,342.001z"/>
	<path style="fill:#FFFFFF;" d="M89.521,151.166c-1.919,0-3.839-0.732-5.304-2.196l-20.193-20.193c-2.929-2.93-2.929-7.678,0-10.607
		c2.93-2.928,7.678-2.928,10.607,0l20.193,20.193c2.929,2.93,2.929,7.678,0,10.607C93.36,150.434,91.44,151.166,89.521,151.166z"/>
	<path style="fill:#FFFFFF;" d="M69.328,151.166c-1.919,0-3.839-0.732-5.304-2.196c-2.929-2.93-2.929-7.678,0-10.607l20.193-20.193
		c2.93-2.928,7.678-2.928,10.607,0c2.929,2.93,2.929,7.678,0,10.607L74.632,148.97C73.167,150.434,71.247,151.166,69.328,151.166z"
		/>
	<path style="fill:#FFFFFF;" d="M134.671,141.069h-22.575c-4.143,0-7.5-3.357-7.5-7.5s3.357-7.5,7.5-7.5h22.575
		c4.143,0,7.5,3.358,7.5,7.5C142.171,137.712,138.814,141.069,134.671,141.069z"/>
	<path style="fill:#FFFFFF;" d="M440.35,341.826h-39.973c-4.143,0-7.5-3.357-7.5-7.5s3.357-7.5,7.5-7.5h39.973
		c4.143,0,7.5,3.357,7.5,7.5S444.492,341.826,440.35,341.826z"/>
	<path style="fill:#FFFFFF;" d="M440.35,313.453h-23.497c-4.143,0-7.5-3.357-7.5-7.5s3.357-7.5,7.5-7.5h23.497
		c4.143,0,7.5,3.357,7.5,7.5S444.492,313.453,440.35,313.453z"/>
</g>
<g>
	<ellipse style="fill:#F28B74;" cx="199.46" cy="249.78" rx="20.861" ry="16.613"/>
	<ellipse style="fill:#F28B74;" cx="312.54" cy="249.78" rx="20.861" ry="16.613"/>
</g>
<g>
	<path style="fill:#495059;" d="M211.62,240.712c-4.143,0-7.5-3.357-7.5-7.5v-7.367c0-4.143,3.357-7.5,7.5-7.5s7.5,3.357,7.5,7.5
		v7.367C219.12,237.355,215.763,240.712,211.62,240.712z"/>
	<path style="fill:#495059;" d="M300.38,240.712c-4.143,0-7.5-3.357-7.5-7.5v-7.367c0-4.143,3.357-7.5,7.5-7.5s7.5,3.357,7.5,7.5
		v7.367C307.88,237.355,304.522,240.712,300.38,240.712z"/>
	<path style="fill:#495059;" d="M256,246.368c-6.652,0-12.979-2.881-17.355-7.903c-2.722-3.122-2.395-7.86,0.728-10.581
		c3.122-2.721,7.86-2.396,10.581,0.727c1.527,1.752,3.73,2.757,6.046,2.757s4.519-1.005,6.046-2.757
		c2.72-3.124,7.458-3.448,10.581-0.727s3.449,7.459,0.727,10.581C268.978,243.487,262.652,246.368,256,246.368z"/>
</g>
<circle style="fill:#F28B74;" cx="412.51" cy="411.32" r="16.09"/>
<circle style="fill:#76B7EB;" cx="347.34" cy="411.32" r="16.09"/>
<path style="fill:#7FDBD5;" d="M178.601,427.443H75.245c-6.728,0-12.182-5.454-12.182-12.182v-7.883
	c0-6.728,5.454-12.182,12.182-12.182h103.356c6.728,0,12.182,5.454,12.182,12.182v7.883
	C190.784,421.989,185.329,427.443,178.601,427.443z"/>
<path style="fill:#76B7EB;" d="M258.719,418.818h-23.976c-4.143,0-7.5-3.357-7.5-7.5s3.357-7.5,7.5-7.5h23.976
	c4.142,0,7.5,3.357,7.5,7.5S262.861,418.818,258.719,418.818z"/>
<path style="fill:#287D99;" d="M178.601,427.443h-51.678v-32.248h51.678c6.728,0,12.182,5.454,12.182,12.182v7.883
	C190.784,421.989,185.329,427.443,178.601,427.443z"/>
<path style="opacity:0.1;enable-background:new    ;" d="M39.517,55.832C17.692,55.832,0,73.524,0,95.349v321.302
	c0,21.825,17.692,39.517,39.517,39.517h171.427c-120.89-66.449-94.292-316.173-77.983-400.336H39.517z"/>
<g>
</g>
<g>
</g>
<g>
</g>
<g>
</g>
<g>
</g>
<g>
</g>
<g>
</g>
<g>
</g>
<g>
</g>
<g>
</g>
<g>
</g>
<g>
</g>
<g>
</g>
<g>
</g>
<g>
</g>
</svg>
