<?xml version="1.0" encoding="iso-8859-1"?>
<!-- Generator: Adobe Illustrator 19.0.0, SVG Export Plug-In . SVG Version: 6.00 Build 0)  -->
<svg version="1.1" id="Capa_1" xmlns="http://www.w3.org/2000/svg" xmlns:xlink="http://www.w3.org/1999/xlink" x="0px" y="0px"
	 viewBox="0 0 512 512" style="enable-background:new 0 0 512 512;" xml:space="preserve">
<path style="fill:#76B7EB;" d="M139.191,284.217l-6.049,28.937c-4.413,21.111-14.885,40.476-30.135,55.726l-94.699,94.7
	c-11.077,11.077-11.077,29.035,0,40.112l0,0c11.077,11.077,29.036,11.077,40.112,0l94.699-94.699
	c15.25-15.25,34.616-25.723,55.726-30.136l28.937-6.049c15.686-3.279,30.076-11.061,41.408-22.392l233.335-233.335
	c12.633-12.633,12.633-33.115,0-45.748L440.667,9.475c-12.633-12.633-33.115-12.633-45.748,0L161.584,242.81
	C150.252,254.141,142.47,268.531,139.191,284.217z"/>
<path style="fill:#B3E7FF;" d="M502.525,71.333L440.667,9.475c-12.633-12.633-33.115-12.633-45.748,0l-19.571,19.571
	c3.565,31.362,21.328,54.222,37.356,70.25s38.888,33.792,70.25,37.356l19.571-19.571C515.158,104.448,515.158,83.966,502.525,71.333
	z"/>
<path style="opacity:0.1;enable-background:new    ;" d="M460.481,29.289l-10.607-10.607l-29.446,29.446
	c-2.929,2.93-2.929,7.678,0,10.607c1.464,1.464,3.384,2.196,5.303,2.196c1.92,0,3.839-0.732,5.303-2.196L460.481,29.289
	L460.481,29.289z M482.711,51.519l-29.446,29.446c-2.929,2.93-2.929,7.678,0,10.607c1.464,1.464,3.384,2.196,5.303,2.196
	s3.839-0.733,5.303-2.196l29.446-29.446l0,0L482.711,51.519z"/>
<path style="fill:#FFFFFF;" d="M344.34,230.021l-84.977,84.977c-5.115,5.115-13.409,5.115-18.524,0l-43.837-43.837
	c-5.115-5.115-5.115-13.409,0-18.524l84.977-84.977c5.115-5.115,13.409-5.115,18.524,0l43.837,43.837
	C349.456,216.612,349.456,224.905,344.34,230.021z"/>
<path style="fill:#B3E7FF;" d="M250.102,326.324c-5.275,0-10.55-2.008-14.566-6.023l-43.837-43.837
	c-8.031-8.031-8.031-21.1,0-29.131l84.977-84.978c8.031-8.032,21.099-8.031,29.13,0l43.837,43.838c8.031,8.031,8.031,21.1,0,29.131
	l-84.977,84.977C260.651,324.316,255.377,326.324,250.102,326.324z M291.242,171.325c-1.434,0-2.867,0.546-3.959,1.638
	l-84.977,84.977c-2.183,2.183-2.183,5.733,0,7.916l43.837,43.837c2.183,2.184,5.735,2.184,7.917,0l84.977-84.977
	c2.183-2.183,2.183-5.733,0-7.916L295.2,172.963C294.109,171.871,292.675,171.325,291.242,171.325z"/>
<g>
	<path style="fill:#38648C;" d="M257.689,289.265c-1.92,0-3.839-0.732-5.303-2.196c-2.929-2.93-2.929-7.678,0-10.608l12.849-12.849
		l-16.847-16.846l-12.849,12.849c-2.929,2.928-7.678,2.929-10.606-0.001c-2.929-2.929-2.929-7.677,0-10.607l15.286-15.285
		c2.181-2.182,5.082-3.385,8.17-3.385c3.087,0,5.989,1.203,8.171,3.387l21.718,21.718c4.505,4.505,4.505,11.835,0,16.34
		l-15.286,15.286C261.527,288.532,259.608,289.265,257.689,289.265z"/>
	<path style="fill:#38648C;" d="M311.128,235.824c-1.919,0-3.839-0.732-5.303-2.196l-22.15-22.149l-12.849,12.849
		c-2.929,2.929-7.678,2.928-10.607-0.001s-2.929-7.677,0-10.606l18.152-18.151c2.929-2.928,7.678-2.928,10.606,0l27.453,27.452
		c2.929,2.929,2.929,7.678,0,10.606C314.967,235.092,313.048,235.824,311.128,235.824z"/>
	<path style="fill:#38648C;" d="M248.051,271.449c-1.919,0-3.839-0.732-5.303-2.196c-2.929-2.93-2.929-7.678,0-10.606l14.063-14.064
		c2.929-2.93,7.678-2.929,10.607-0.001c2.929,2.929,2.929,7.678,0,10.607l-14.063,14.064
		C251.89,270.717,249.97,271.449,248.051,271.449z"/>
	<circle style="fill:#38648C;" cx="367.56" cy="144.44" r="29.627"/>
</g>
<circle style="opacity:0.15;enable-background:new    ;" cx="367.56" cy="144.44" r="14.401"/>
<path style="opacity:0.15;enable-background:new    ;" d="M179.134,225.259l-17.551,17.55
	c-11.332,11.332-19.113,25.722-22.392,41.408l-6.049,28.937c-4.413,21.111-14.885,40.476-30.135,55.726l-94.699,94.7
	c-11.077,11.077-11.077,29.036,0,40.112l0,0c11.077,11.077,29.036,11.077,40.112,0l94.699-94.699
	c15.25-15.25,34.616-25.723,55.726-30.136l28.937-6.049c15.686-3.279,30.076-11.061,41.408-22.392l112.774-112.774
	C254.552,310.561,195.504,274.283,179.134,225.259z"/>
<rect x="58.338" y="402.712" transform="matrix(0.7071 0.7071 -0.7071 0.7071 326.1283 63.261)" style="fill:#38648C;" width="56.726" height="45.18"/>
<path style="fill:#BDC0C3;" d="M50.673,421.215L8.308,463.58c-11.077,11.077-11.077,29.035,0,40.112l0,0
	c11.077,11.077,29.036,11.077,40.112,0l42.365-42.365L50.673,421.215z"/>
<g>
</g>
<g>
</g>
<g>
</g>
<g>
</g>
<g>
</g>
<g>
</g>
<g>
</g>
<g>
</g>
<g>
</g>
<g>
</g>
<g>
</g>
<g>
</g>
<g>
</g>
<g>
</g>
<g>
</g>
</svg>
