<?xml version="1.0" encoding="iso-8859-1"?>
<!-- Generator: Adobe Illustrator 19.0.0, SVG Export Plug-In . SVG Version: 6.00 Build 0)  -->
<svg version="1.1" id="Capa_1" xmlns="http://www.w3.org/2000/svg" xmlns:xlink="http://www.w3.org/1999/xlink" x="0px" y="0px"
	 viewBox="0 0 512 512" style="enable-background:new 0 0 512 512;" xml:space="preserve">
<rect x="48.35" y="248.031" style="fill:#E8E9EA;" width="415.3" height="68.25"/>
<rect x="436.12" y="248.031" style="opacity:0.1;enable-background:new    ;" width="27.527" height="68.25"/>
<path style="opacity:0.1;enable-background:new    ;" d="M48.352,248.034v68.25h156.454c-31.739-20.235-38.551-48.921-36.517-68.25
	L48.352,248.034L48.352,248.034z"/>
<path style="fill:#76B7EB;" d="M339.771,334.861c-3.42,0-6.51-2.354-7.305-5.83l-25.429-111.206c-0.923-4.038,1.602-8.06,5.64-8.983
	c4.04-0.919,8.06,1.602,8.983,5.64l25.429,111.205c0.923,4.038-1.602,8.06-5.64,8.983
	C340.887,334.798,340.324,334.861,339.771,334.861z"/>
<path style="opacity:0.14;enable-background:new    ;" d="M339.771,334.861c-3.42,0-6.51-2.354-7.305-5.83l-25.429-111.206
	c-0.923-4.038,1.602-8.06,5.64-8.983c4.04-0.919,8.06,1.602,8.983,5.64l25.429,111.205c0.923,4.038-1.602,8.06-5.64,8.983
	C340.887,334.798,340.324,334.861,339.771,334.861z"/>
<path style="fill:#76B7EB;" d="M270.155,331.344c-3.366,0-6.427-2.282-7.273-5.696l-19.15-77.185
	c-2.486-10.019-0.264-20.429,6.096-28.56c6.36-8.131,15.929-12.794,26.252-12.794h84.548c13.142,0,25.091,7.756,30.441,19.759
	l10.539,23.642c6.893,15.463,10.388,31.887,10.388,48.816v24.516c0,4.142-3.357,7.5-7.5,7.5s-7.5-3.358-7.5-7.5v-24.516
	c0-14.811-3.058-29.18-9.089-42.709l-10.539-23.642c-2.942-6.601-9.513-10.866-16.74-10.866H276.08
	c-5.677,0-10.939,2.564-14.436,7.036c-3.498,4.472-4.72,10.196-3.353,15.706l19.15,77.185c0.997,4.02-1.453,8.088-5.474,9.085
	C271.361,331.271,270.753,331.344,270.155,331.344z"/>
<path style="fill:#38648C;" d="M501.225,226.118h-26.802c-5.951,0-10.775,4.824-10.775,10.775v70.844
	c0,4.72-3.827,8.547-8.547,8.547H56.899c-4.72,0-8.547-3.827-8.547-8.547V178.721c0-5.951-4.824-10.775-10.775-10.775H10.775
	C4.824,167.947,0,172.771,0,178.721V324.74c0,16.825,13.64,30.465,30.465,30.465h451.07c16.825,0,30.465-13.64,30.465-30.465
	v-87.846C512,230.943,507.176,226.118,501.225,226.118z"/>
<path style="fill:#76B7EB;" d="M164.405,248.6H90.914c-6.674,0-12.857-3.505-16.285-9.232l-3.101-5.18
	c-2.688-4.49-2.688-10.095,0-14.586l3.101-5.181c3.428-5.726,9.611-9.232,16.285-9.232h73.491c6.674,0,12.857,3.505,16.285,9.232
	l3.101,5.181c2.688,4.49,2.688,10.095,0,14.586l-3.101,5.18C177.262,245.095,171.079,248.6,164.405,248.6z"/>
<path style="fill:#38648C;" d="M422.753,404.906H89.247c-4.143,0-7.5-3.358-7.5-7.5s3.357-7.5,7.5-7.5h333.506
	c4.143,0,7.5,3.358,7.5,7.5S426.896,404.906,422.753,404.906z"/>
<rect x="62.51" y="355.202" style="fill:#76B7EB;" width="26.736" height="74.818"/>
<rect x="62.51" y="355.202" style="opacity:0.15;enable-background:new    ;" width="26.736" height="23.721"/>
<circle style="fill:#495059;" cx="75.879" cy="448.301" r="25.863"/>
<g>
	<circle style="fill:#76B7EB;" cx="75.879" cy="448.301" r="7.504"/>
	<rect x="422.75" y="355.202" style="fill:#76B7EB;" width="26.735" height="74.818"/>
</g>
<rect x="422.75" y="355.202" style="opacity:0.15;enable-background:new    ;" width="26.735" height="23.721"/>
<circle style="fill:#495059;" cx="436.12" cy="448.301" r="25.863"/>
<circle style="fill:#76B7EB;" cx="436.12" cy="448.301" r="7.504"/>
<path style="opacity:0.1;enable-background:new    ;" d="M180.004,316.284H56.899c-4.72,0-8.547-3.827-8.547-8.547V178.721
	c0-5.951-4.824-10.775-10.775-10.775H10.775C4.824,167.947,0,172.771,0,178.721V324.74c0,16.825,13.64,30.465,30.465,30.465h186.788
	C195.703,344.846,184.81,329.635,180.004,316.284z"/>
<path style="opacity:0.1;enable-background:new    ;" d="M90.914,205.19c-6.674,0-12.857,3.505-16.285,9.232l-3.101,5.181
	c-2.688,4.49-2.688,10.095,0,14.586l3.101,5.18c3.428,5.726,9.611,9.232,16.285,9.232h29.19
	c-19.221-7.809-20.227-31.625-14.645-43.41L90.914,205.19L90.914,205.19z"/>
<circle style="fill:#F28B74;" cx="256" cy="104.701" r="66.866"/>
<path style="fill:#FFFFFF;" d="M269.665,88.355V68.029c0-1.866-1.512-3.378-3.378-3.378h-20.574c-1.865,0-3.378,1.512-3.378,3.378
	v20.327c0,1.48-1.2,2.681-2.681,2.681h-20.327c-1.865,0-3.378,1.512-3.378,3.378v20.574c0,1.866,1.512,3.378,3.378,3.378h20.327
	c1.481,0,2.681,1.2,2.681,2.681v20.327c0,1.865,1.512,3.378,3.378,3.378h20.574c1.866,0,3.378-1.512,3.378-3.378v-20.327
	c0-1.48,1.2-2.681,2.681-2.681h20.327c1.866,0,3.378-1.512,3.378-3.378V94.414c0-1.866-1.512-3.378-3.378-3.378h-20.327
	C270.865,91.035,269.665,89.836,269.665,88.355z"/>
<g>
</g>
<g>
</g>
<g>
</g>
<g>
</g>
<g>
</g>
<g>
</g>
<g>
</g>
<g>
</g>
<g>
</g>
<g>
</g>
<g>
</g>
<g>
</g>
<g>
</g>
<g>
</g>
<g>
</g>
</svg>
