<?xml version="1.0" encoding="iso-8859-1"?>
<!-- Generator: Adobe Illustrator 19.0.0, SVG Export Plug-In . SVG Version: 6.00 Build 0)  -->
<svg version="1.1" id="Capa_1" xmlns="http://www.w3.org/2000/svg" xmlns:xlink="http://www.w3.org/1999/xlink" x="0px" y="0px"
	 viewBox="0 0 511.999 511.999" style="enable-background:new 0 0 511.999 511.999;" xml:space="preserve">
<path style="fill:#495059;" d="M80.404,239.879c0,32.747,0,68.799-19.088,90.216c-7.626,8.557-5.293,22.008,4.589,27.814
	c50.281,29.538,111.661,42.663,190.094,42.663s139.813-13.125,190.094-42.663c9.883-5.806,12.216-19.258,4.589-27.814
	c-19.088-21.417-19.088-57.468-19.088-90.216c0-101.344-78.772-183.794-175.595-183.794S80.404,138.534,80.404,239.879z"/>
<circle style="fill:#F5D7B7;" cx="97.619" cy="239.879" r="27.892"/>
<circle style="opacity:0.15;enable-background:new    ;" cx="97.619" cy="239.879" r="27.892"/>
<circle style="fill:#F5D7B7;" cx="414.379" cy="239.879" r="27.892"/>
<circle style="opacity:0.15;enable-background:new    ;" cx="414.379" cy="239.879" r="27.892"/>
<path style="fill:#7FDBD5;" d="M380.844,511.999c6.564,0,11.797-5.601,11.221-12.139c-6.142-69.755-64.716-124.46-136.066-124.46
	s-129.924,54.704-136.067,124.459c-0.576,6.539,4.657,12.139,11.221,12.139h249.691V511.999z"/>
<path style="opacity:0.1;enable-background:new    ;" d="M341.777,474.975h-29.418c-4.143,0-7.5-3.358-7.5-7.5s3.357-7.5,7.5-7.5
	h29.418c4.143,0,7.5,3.358,7.5,7.5S345.92,474.975,341.777,474.975z"/>
<path style="fill:#FFFFFF;" d="M204.004,385.654l40.975,79.303c4.623,8.947,17.415,8.952,22.037,0.005
	c11.596-22.443,29.699-57.48,40.977-79.308c-16.028-6.603-33.584-10.254-51.995-10.254S220.032,379.051,204.004,385.654z"/>
<path style="opacity:0.1;enable-background:new    ;" d="M255.999,375.4c-30.637,0-58.912,10.093-81.698,27.125
	c24.419,13.492,52.219,21.147,81.698,21.147s57.279-7.655,81.698-21.147C314.911,385.493,286.636,375.4,255.999,375.4z"/>
<ellipse style="fill:#F5D7B7;" cx="255.999" cy="239.879" rx="158.38" ry="166.58"/>
<g>
	<ellipse style="fill:#F28B74;" cx="156.219" cy="282.849" rx="36.817" ry="29.32"/>
	<ellipse style="fill:#F28B74;" cx="355.779" cy="282.849" rx="36.817" ry="29.32"/>
</g>
<g>
	<path style="fill:#495059;" d="M177.675,261.103c-4.143,0-7.5-3.358-7.5-7.5v-13.002c0-4.142,3.357-7.5,7.5-7.5s7.5,3.358,7.5,7.5
		v13.002C185.175,257.746,181.817,261.103,177.675,261.103z"/>
	<path style="fill:#495059;" d="M334.323,261.103c-4.143,0-7.5-3.358-7.5-7.5v-13.002c0-4.142,3.357-7.5,7.5-7.5s7.5,3.358,7.5,7.5
		v13.002C341.823,257.746,338.466,261.103,334.323,261.103z"/>
	<path style="fill:#495059;" d="M255.999,271.087c-10.082,0-19.669-4.367-26.304-11.98c-2.722-3.123-2.396-7.86,0.727-10.582
		c3.122-2.721,7.859-2.397,10.582,0.727c3.785,4.344,9.251,6.835,14.995,6.835s11.21-2.491,14.995-6.835
		c2.721-3.124,7.457-3.449,10.582-0.727c3.122,2.721,3.448,7.459,0.727,10.582C275.668,266.721,266.081,271.087,255.999,271.087z"/>
</g>
<path style="opacity:0.05;enable-background:new    ;" d="M255.999,73.302c-87.47,0-158.378,74.579-158.378,166.576
	c0,91.998,70.908,166.576,158.378,166.576c35.536,0,68.339-12.31,94.764-33.096c-166.733,31.155-207.992-60.284-214.759-130.206
	c-0.611-6.31,3.64-12.045,9.855-13.293c44.349-8.906,103.157-30.32,146.515-81.323c12.75,27.234,70.045,91.692,121.925,86.318l0,0
	C411.773,145.182,341.87,73.302,255.999,73.302z"/>
<path style="fill:#495059;" d="M255.999,66.059c-89.208,0-154.322,91.584-163.006,141.975c-0.99,5.747,3.328,11.039,9.154,11.292
	c82.948,3.603,156.653-37.65,187.653-69.258c2.492-2.541,6.638-2.302,8.859,0.479c16.447,20.592,67.273,70.989,113.862,73.204
	c5.6,0.266,10.247-4.391,9.868-9.985C416.537,127.39,332.926,66.059,255.999,66.059z"/>
<path style="fill:#7FDBD5;" d="M351.315,10.267l-19.053-3.439c-50.434-9.104-102.092-9.104-152.526,0l-19.053,3.439
	c-12.007,2.167-19.63,14.096-16.553,25.903l17.987,69.024c1.955,7.501,8.542,12.872,16.283,13.276l52.214,2.727
	c16.911,0.883,33.857,0.883,50.768,0l52.214-2.727c7.741-0.404,14.329-5.775,16.284-13.276l17.987-69.024
	C370.945,24.363,363.322,12.434,351.315,10.267z"/>
<path style="fill:#FFFFFF;" d="M269.442,44.849V24.852c0-1.835-1.488-3.323-3.323-3.323h-20.24c-1.835,0-3.323,1.488-3.323,3.323
	v19.997c0,1.457-1.181,2.637-2.637,2.637h-19.997c-1.835,0-3.323,1.488-3.323,3.323v20.24c0,1.835,1.488,3.323,3.323,3.323h19.997
	c1.456,0,2.637,1.181,2.637,2.637v19.996c0,1.835,1.488,3.323,3.323,3.323h20.24c1.835,0,3.323-1.488,3.323-3.323V77.009
	c0-1.456,1.181-2.637,2.637-2.637h19.996c1.835,0,3.323-1.488,3.323-3.323v-20.24c0-1.835-1.488-3.323-3.323-3.323h-19.996
	C270.623,47.486,269.442,46.305,269.442,44.849z"/>
<path style="opacity:0.1;enable-background:new    ;" d="M178.401,118.47l52.214,2.727c5.5,0.287,11.004,0.471,16.509,0.572
	c-48.649-25.933-56.443-87.772-44.611-118.398c-7.614,0.956-15.21,2.091-22.777,3.457l-19.053,3.44
	c-12.007,2.167-19.63,14.096-16.553,25.903l17.987,69.024C164.072,112.695,170.66,118.066,178.401,118.47z"/>
<g>
</g>
<g>
</g>
<g>
</g>
<g>
</g>
<g>
</g>
<g>
</g>
<g>
</g>
<g>
</g>
<g>
</g>
<g>
</g>
<g>
</g>
<g>
</g>
<g>
</g>
<g>
</g>
<g>
</g>
</svg>
