<?xml version="1.0" encoding="iso-8859-1"?>
<!-- Generator: Adobe Illustrator 19.0.0, SVG Export Plug-In . SVG Version: 6.00 Build 0)  -->
<svg version="1.1" id="Capa_1" xmlns="http://www.w3.org/2000/svg" xmlns:xlink="http://www.w3.org/1999/xlink" x="0px" y="0px"
	 viewBox="0 0 512 512" style="enable-background:new 0 0 512 512;" xml:space="preserve">
<path style="fill:#287D99;" d="M103.632,56.868c-1.919,0-3.839-0.732-5.303-2.197l-32.54-32.54C61.19,17.533,55.076,15,48.573,15
	H36.359c-4.142,0-7.5-3.358-7.5-7.5s3.358-7.5,7.5-7.5h12.213c10.51,0,20.391,4.093,27.823,11.525l32.54,32.54
	c2.929,2.929,2.929,7.678,0,10.606C107.471,56.136,105.552,56.868,103.632,56.868z"/>
<path style="fill:#7FDBD5;" d="M378.422,316.686H123.561c-13.343,0-24.158-10.816-24.158-24.159V97.479
	c0-11.721-4.564-22.741-12.853-31.03c-9.434-9.435-9.434-24.731,0.001-34.165s24.731-9.434,34.165,0.001
	c17.413,17.414,27.004,40.567,27.004,65.193v170.89h230.703c13.342,0,24.158,10.816,24.158,24.158
	C402.581,305.871,391.765,316.686,378.422,316.686z"/>
<path style="opacity:0.1;enable-background:new    ;" d="M147.719,227.633c-31.298,6.994-43.17-57.625-48.317-103.467v168.362
	c0,13.342,10.816,24.158,24.158,24.158h187.01c-15.903-9.379-34.877-24.949-42.207-48.317H147.719V227.633z"/>
<path style="fill:#495059;" d="M432.838,411.394c-27.782,0-50.303,22.521-50.303,50.303S405.057,512,432.838,512
	c27.782,0,50.303-22.522,50.303-50.303C483.141,433.915,460.619,411.394,432.838,411.394z M432.838,486.461
	c-13.677,0-24.764-11.087-24.764-24.764s11.087-24.764,24.764-24.764c13.676,0,24.763,11.087,24.763,24.764
	S446.514,486.461,432.838,486.461z"/>
<g>
	<path style="fill:#287D99;" d="M307.332,324.186c-4.142,0-7.5-3.358-7.5-7.5V210.772c0-10.643-8.659-19.302-19.303-19.302H134.991
		c-4.142,0-7.5-3.358-7.5-7.5s3.358-7.5,7.5-7.5H280.53c18.915,0,34.303,15.388,34.303,34.302v105.914
		C314.832,320.829,311.475,324.186,307.332,324.186z"/>
	<path style="fill:#287D99;" d="M432.838,469.197c-1.919,0-3.839-0.732-5.304-2.197l-21.841-21.84
		c-10.27-10.27-15.926-23.924-15.926-38.449V247.094c0-10.643-8.659-19.303-19.302-19.303h-63.134c-4.142,0-7.5-3.358-7.5-7.5
		s3.358-7.5,7.5-7.5h63.134c18.914,0,34.302,15.388,34.302,34.303v159.617c0,10.518,4.096,20.406,11.532,27.842l21.841,21.84
		c2.93,2.929,2.93,7.677,0.001,10.606C436.677,468.464,434.758,469.197,432.838,469.197z"/>
	<path style="fill:#287D99;" d="M397.268,324.186H238.973c-4.142,0-7.5-3.358-7.5-7.5s3.358-7.5,7.5-7.5h158.295
		c4.143,0,7.5,3.358,7.5,7.5C404.768,320.829,401.41,324.186,397.268,324.186z"/>
</g>
<polygon style="fill:#BDC0C3;" points="256.826,313.581 238.973,295.729 169.467,365.234 99.961,295.729 82.109,313.581 
	151.614,383.087 82.109,452.593 99.961,470.446 169.467,400.94 238.973,470.446 256.826,452.593 187.32,383.087 "/>
<g style="opacity:0.1;">
	<path d="M124.053,319.821l-24.092-24.092l-17.853,17.853l24.092,24.092C111.148,330.801,117.181,324.768,124.053,319.821z"/>
	<path d="M232.734,337.673l24.092-24.092l-17.853-17.853l-24.092,24.092C221.753,324.768,227.786,330.801,232.734,337.673z"/>
	<path d="M106.201,428.5l-24.092,24.093l17.853,17.853l24.092-24.092C117.182,441.406,111.148,435.373,106.201,428.5z"/>
	<path d="M214.881,446.353l24.092,24.092l17.853-17.853L232.734,428.5C227.786,435.373,221.753,441.406,214.881,446.353z"/>
</g>
<g>
	<circle style="fill:#495059;" cx="169.47" cy="383.09" r="34.477"/>
	<path style="fill:#495059;" d="M169.467,254.174c-71.083,0-128.913,57.83-128.913,128.913S98.385,512,169.467,512
		S298.38,454.17,298.38,383.087S240.55,254.174,169.467,254.174z M169.467,476.014c-51.24,0-92.927-41.687-92.927-92.927
		s41.687-92.927,92.927-92.927s92.927,41.687,92.927,92.927C262.394,434.327,220.707,476.014,169.467,476.014z"/>
</g>
<path style="fill:#7FDBD5;" d="M290.696,197.823h-92.741c-5.696,0-10.314-4.618-10.314-10.314v-8.335
	c0-8.817,7.148-15.965,15.965-15.965h81.438c8.817,0,15.965,7.148,15.965,15.965v8.335
	C301.01,193.205,296.392,197.823,290.696,197.823z"/>
<path style="opacity:0.1;enable-background:new    ;" d="M240.922,197.823c-19.591-6.014-23.749-27.371-20.525-34.614h-16.79
	c-8.817,0-15.965,7.148-15.965,15.965v8.335c0,5.696,4.618,10.314,10.314,10.314H240.922z"/>
<g>
</g>
<g>
</g>
<g>
</g>
<g>
</g>
<g>
</g>
<g>
</g>
<g>
</g>
<g>
</g>
<g>
</g>
<g>
</g>
<g>
</g>
<g>
</g>
<g>
</g>
<g>
</g>
<g>
</g>
</svg>
