<?xml version="1.0" encoding="iso-8859-1"?>
<!-- Generator: Adobe Illustrator 19.0.0, SVG Export Plug-In . SVG Version: 6.00 Build 0)  -->
<svg version="1.1" id="Capa_1" xmlns="http://www.w3.org/2000/svg" xmlns:xlink="http://www.w3.org/1999/xlink" x="0px" y="0px"
	 viewBox="0 0 512 512" style="enable-background:new 0 0 512 512;" xml:space="preserve">
<path id="SVGCleanerId_0" style="fill:#76B7EB;" d="M405.923,512H106.077c-14.557,0-26.359-11.801-26.359-26.359v-377.1
	c0-14.557,11.801-26.359,26.359-26.359h299.846c14.557,0,26.359,11.801,26.359,26.359v377.1C432.281,500.199,420.48,512,405.923,512
	z"/>
<g>
	<path id="SVGCleanerId_0_1_" style="fill:#76B7EB;" d="M405.923,512H106.077c-14.557,0-26.359-11.801-26.359-26.359v-377.1
		c0-14.557,11.801-26.359,26.359-26.359h299.846c14.557,0,26.359,11.801,26.359,26.359v377.1
		C432.281,500.199,420.48,512,405.923,512z"/>
</g>
<path style="opacity:0.1;enable-background:new    ;" d="M112.553,480.092V147.057c0-8.592,6.965-15.556,15.556-15.556h255.78
	c8.592,0,15.556,6.965,15.556,15.556v333.035c0,8.592-6.965,15.556-15.556,15.556H128.11
	C119.518,495.649,112.553,488.684,112.553,480.092z"/>
<path style="fill:#FFFFFF;" d="M112.553,463.609V130.574c0-8.592,6.965-15.556,15.556-15.556h255.78
	c8.592,0,15.556,6.965,15.556,15.556V463.61c0,8.591-6.965,15.556-15.556,15.556H128.11
	C119.518,479.166,112.553,472.201,112.553,463.609z"/>
<path style="fill:#F28B74;" d="M210.645,201.911v-26.948c0-2.473-2.005-4.478-4.478-4.478H178.89c-2.473,0-4.478,2.005-4.478,4.478
	v26.948c0,1.963-1.591,3.554-3.554,3.554H143.91c-2.473,0-4.478,2.005-4.478,4.478v27.277c0,2.473,2.005,4.478,4.478,4.478h26.948
	c1.963,0,3.554,1.591,3.554,3.554V272.2c0,2.473,2.005,4.478,4.478,4.478h27.277c2.473,0,4.478-2.005,4.478-4.478v-26.948
	c0-1.963,1.591-3.554,3.554-3.554h26.948c2.473,0,4.478-2.005,4.478-4.478v-27.277c0-2.473-2.005-4.478-4.478-4.478h-26.948
	C212.236,205.465,210.645,203.874,210.645,201.911z"/>
<path style="fill:#7FDBD5;" d="M363.92,208.4h-82.195c-4.776,0-8.649-3.872-8.649-8.649v-11.832c0-4.777,3.872-8.649,8.649-8.649
	h82.195c4.776,0,8.649,3.872,8.649,8.649v11.832C372.568,204.528,368.696,208.4,363.92,208.4z"/>
<g>
	<path style="fill:#495059;" d="M363.185,244.435H282.46c-4.142,0-7.5-3.358-7.5-7.5s3.358-7.5,7.5-7.5h80.726
		c4.142,0,7.5,3.358,7.5,7.5C370.685,241.077,367.327,244.435,363.185,244.435z"/>
	<path style="fill:#495059;" d="M350.718,326.15H161.282c-4.142,0-7.5-3.358-7.5-7.5s3.358-7.5,7.5-7.5h189.436
		c4.142,0,7.5,3.358,7.5,7.5C358.218,322.792,354.86,326.15,350.718,326.15z"/>
	<path style="fill:#495059;" d="M350.718,354.685H161.282c-4.142,0-7.5-3.358-7.5-7.5s3.358-7.5,7.5-7.5h189.436
		c4.142,0,7.5,3.358,7.5,7.5C358.218,351.327,354.86,354.685,350.718,354.685z"/>
</g>
<g>
	<ellipse style="fill:#F28B74;" cx="181.66" cy="425.26" rx="27.43" ry="21.844"/>
	<ellipse style="fill:#F28B74;" cx="330.34" cy="425.26" rx="27.43" ry="21.844"/>
</g>
<g>
	<path style="fill:#495059;" d="M197.646,410.97c-4.142,0-7.5-3.358-7.5-7.5v-9.687c0-4.142,3.358-7.5,7.5-7.5s7.5,3.358,7.5,7.5
		v9.687C205.146,407.612,201.788,410.97,197.646,410.97z"/>
	<path style="fill:#495059;" d="M314.355,410.97c-4.142,0-7.5-3.358-7.5-7.5v-9.687c0-4.142,3.358-7.5,7.5-7.5s7.5,3.358,7.5,7.5
		v9.687C321.855,407.612,318.497,410.97,314.355,410.97z"/>
	<path style="fill:#495059;" d="M256,418.408c-8.064,0-15.732-3.492-21.039-9.581c-2.721-3.123-2.396-7.86,0.727-10.582
		c3.122-2.721,7.86-2.397,10.581,0.727c2.457,2.819,6.003,4.436,9.731,4.436c3.727,0,7.273-1.617,9.73-4.436
		c2.721-3.124,7.458-3.448,10.582-0.727c3.123,2.721,3.448,7.459,0.727,10.582C271.732,414.916,264.064,418.408,256,418.408z"/>
</g>
<path style="opacity:0.1;enable-background:new    ;" d="M106.077,82.182c-14.557,0-26.359,11.801-26.359,26.359v377.1
	c0,14.557,11.801,26.359,26.359,26.359h161.14C142.502,448.114,152.139,206.58,155.523,82.182H106.077z"/>
<path style="fill:#BDC0C3;" d="M315.701,64.258H300.12c-5.8,0-9.949-5.812-7.841-11.215c1.968-5.043,2.913-10.597,2.579-16.411
	c-1.114-19.388-16.731-35.205-36.105-36.537c-22.742-1.564-41.677,16.421-41.677,38.83c0,4.884,0.901,9.556,2.546,13.861
	c2.111,5.528-1.822,11.473-7.74,11.473h-15.583c-5.205,0-9.424,4.219-9.424,9.424v51.971c0,5.205,4.219,9.424,9.424,9.424h119.402
	c5.205,0,9.424-4.219,9.424-9.424V73.682C325.125,68.477,320.906,64.258,315.701,64.258z M256,54.263
	c-8.471,0-15.338-6.867-15.338-15.338S247.529,23.587,256,23.587c8.471,0,15.338,6.867,15.338,15.338S264.471,54.263,256,54.263z"/>
<path style="opacity:0.1;enable-background:new    ;" d="M235.87,60.199c-4.577-12.09-6.371-36.154-2.047-53.263
	c-10.12,7.029-16.747,18.734-16.747,31.989c0,4.891,0.904,9.57,2.553,13.88c2.111,5.519-1.838,11.454-7.747,11.454h-15.583
	c-5.205,0-9.424,4.219-9.424,9.424v51.971c0,5.205,4.219,9.424,9.424,9.424h73.171c-25.536-17.378-30.973-43.629-31.197-61.458
	C238.215,69.041,237.491,64.481,235.87,60.199z"/>
<g style="opacity:0.1;">
	<path d="M285.675,95.817h-59.351c-4.142,0-7.5-3.358-7.5-7.5s3.358-7.5,7.5-7.5h59.351c4.142,0,7.5,3.358,7.5,7.5
		S289.817,95.817,285.675,95.817z"/>
	<path d="M285.675,118.518h-59.351c-4.142,0-7.5-3.358-7.5-7.5s3.358-7.5,7.5-7.5h59.351c4.142,0,7.5,3.358,7.5,7.5
		C293.175,115.16,289.817,118.518,285.675,118.518z"/>
</g>
<g>
</g>
<g>
</g>
<g>
</g>
<g>
</g>
<g>
</g>
<g>
</g>
<g>
</g>
<g>
</g>
<g>
</g>
<g>
</g>
<g>
</g>
<g>
</g>
<g>
</g>
<g>
</g>
<g>
</g>
</svg>
