<?xml version="1.0" encoding="iso-8859-1"?>
<!-- Generator: Adobe Illustrator 19.0.0, SVG Export Plug-In . SVG Version: 6.00 Build 0)  -->
<svg version="1.1" id="Capa_1" xmlns="http://www.w3.org/2000/svg" xmlns:xlink="http://www.w3.org/1999/xlink" x="0px" y="0px"
	 viewBox="0 0 512 512" style="enable-background:new 0 0 512 512;" xml:space="preserve">
<path style="fill:#F5D7B7;" d="M295.746,244.875c-7.388-4.51-11.895-12.542-11.895-21.199V43.829h-55.702v179.846
	c0,8.597-4.558,16.72-11.896,21.2l-57.697,35.224c-3.193,1.949-4.201,6.118-2.252,9.311l21.965,35.979
	c1.949,3.193,6.118,4.201,9.311,2.252l57.696-35.224c2.381-1.453,4.67-3.026,6.863-4.707c2.283-1.749,5.466-1.746,7.747,0.007
	c2.184,1.679,4.462,3.251,6.835,4.7l57.696,35.224c3.193,1.949,7.362,0.941,9.312-2.252l21.965-35.979
	c1.949-3.193,0.941-7.362-2.252-9.311L295.746,244.875z"/>
<path style="opacity:0.1;enable-background:new    ;" d="M228.149,223.675c0,8.597-4.558,16.72-11.896,21.2l-57.697,35.224
	c-3.193,1.949-4.201,6.118-2.252,9.311l21.965,35.979c1.949,3.193,6.118,4.201,9.311,2.252l57.696-35.224
	c0.955-0.583,1.884-1.199,2.81-1.82c0.74-22.749,0.95-45.284,0.95-66.923c0-21.807-7.863-41.805-20.888-57.333v57.334H228.149z"/>
<path style="fill:#F28B74;" d="M159.687,155.213c-18.905,0-36.021,7.663-48.41,20.052C30.146,256.396,0,381.932,0,469.141
	c0,10.736,4.096,21.471,12.287,29.663s18.927,12.287,29.663,12.287c20.262,0,94.758,8.422,140.668-25.995
	c2.889-2.044,5.653-4.343,8.24-6.93c8.481-8.481,14.045-18.775,16.691-29.635c18.859-68.612,20.6-158.413,20.6-224.855
	C228.149,185.864,197.497,155.213,159.687,155.213z"/>
<g>
	<ellipse style="fill:#FFFFFF;" cx="63.804" cy="356.98" rx="20.763" ry="16.534"/>
	<ellipse style="fill:#FFFFFF;" cx="176.34" cy="356.98" rx="20.763" ry="16.534"/>
</g>
<g>
	<path style="fill:#495059;" d="M75.904,347.984c-4.142,0-7.5-3.358-7.5-7.5v-7.332c0-4.142,3.358-7.5,7.5-7.5s7.5,3.358,7.5,7.5
		v7.332C83.404,344.626,80.046,347.984,75.904,347.984z"/>
	<path style="fill:#495059;" d="M164.245,347.984c-4.142,0-7.5-3.358-7.5-7.5v-7.332c0-4.142,3.358-7.5,7.5-7.5s7.5,3.358,7.5,7.5
		v7.332C171.745,344.626,168.387,347.984,164.245,347.984z"/>
	<path style="fill:#495059;" d="M120.074,353.615c-6.631,0-12.936-2.871-17.299-7.877c-2.721-3.123-2.396-7.86,0.727-10.582
		c3.123-2.721,7.86-2.397,10.582,0.727c1.513,1.737,3.697,2.733,5.991,2.733s4.478-0.996,5.991-2.733
		c2.722-3.123,7.459-3.448,10.582-0.727c3.123,2.722,3.448,7.459,0.727,10.582C133.011,350.744,126.706,353.615,120.074,353.615z"/>
</g>
<path style="opacity:0.1;enable-background:new    ;" d="M213.927,421.492C65.305,497.76,27.629,360.208,46.13,268.688
	C13.352,336.241,0,411.158,0,469.141c0,10.736,4.096,21.472,12.287,29.663s18.927,12.287,29.663,12.287
	c20.262,0,94.758,8.422,140.668-25.995c2.889-2.044,5.653-4.343,8.24-6.93c8.481-8.481,14.045-18.775,16.691-29.635
	C209.941,439.829,212.055,430.784,213.927,421.492z"/>
<path style="opacity:0.1;enable-background:new    ;" d="M333.73,325.389l21.965-35.979c1.949-3.193,0.941-7.362-2.252-9.311
	l-57.697-35.224c-7.388-4.51-11.895-12.542-11.895-21.199v-57.334c-13.026,15.529-20.888,35.526-20.888,57.333
	c0,21.637,0.211,44.171,0.95,66.92c0.925,0.622,1.854,1.24,2.809,1.823l57.697,35.224
	C327.612,329.591,331.781,328.582,333.73,325.389z"/>
<path style="fill:#F28B74;" d="M352.313,155.213c18.905,0,36.021,7.663,48.41,20.052C481.855,256.396,512,381.932,512,469.141
	c0,10.736-4.096,21.471-12.287,29.663s-18.927,12.287-29.663,12.287c-20.262,0-94.758,8.422-140.668-25.995
	c-2.889-2.044-5.653-4.343-8.24-6.93c-8.481-8.481-14.045-18.775-16.691-29.635c-18.859-68.612-20.6-158.413-20.6-224.855
	C283.851,185.864,314.503,155.213,352.313,155.213z"/>
<g>
	<ellipse style="fill:#FFFFFF;" cx="448.2" cy="356.98" rx="20.763" ry="16.534"/>
	<ellipse style="fill:#FFFFFF;" cx="335.65" cy="356.98" rx="20.763" ry="16.534"/>
</g>
<g>
	<path style="fill:#495059;" d="M347.755,347.984c-4.142,0-7.5-3.358-7.5-7.5v-7.332c0-4.142,3.358-7.5,7.5-7.5s7.5,3.358,7.5,7.5
		v7.332C355.255,344.626,351.897,347.984,347.755,347.984z"/>
	<path style="fill:#495059;" d="M391.926,353.615c-6.631,0-12.936-2.871-17.3-7.877c-2.721-3.123-2.396-7.86,0.727-10.582
		c3.123-2.721,7.859-2.397,10.582,0.727c1.513,1.737,3.697,2.733,5.991,2.733s4.478-0.996,5.991-2.733
		c2.721-3.123,7.459-3.448,10.582-0.727c3.123,2.722,3.448,7.459,0.727,10.582C404.862,350.744,398.557,353.615,391.926,353.615z"/>
	<path style="fill:#495059;" d="M449.196,347.689c-4.142,0-7.5-3.358-7.5-7.5c0-1.589-1.293-2.881-2.881-2.881
		c-1.589,0-2.881,1.293-2.881,2.881c0,4.142-3.358,7.5-7.5,7.5s-7.5-3.358-7.5-7.5c0-9.86,8.021-17.881,17.881-17.881
		c9.86,0,17.881,8.022,17.881,17.881C456.696,344.331,453.338,347.689,449.196,347.689z"/>
</g>
<path style="opacity:0.1;enable-background:new    ;" d="M470.051,511.091c10.736,0,21.471-4.096,29.663-12.287
	S512,479.877,512,469.141c0-11.555-0.547-23.798-1.654-36.507c-115.988,43.679-203.765-66.185-225.353-136.72
	c1.903,51.475,6.857,106.772,19.458,152.616c2.647,10.86,8.21,21.154,16.691,29.635c2.587,2.587,5.351,4.886,8.24,6.93
	C375.293,519.513,449.789,511.091,470.051,511.091z"/>
<g style="opacity:0.1;">
	<rect x="228.15" y="88.45" width="55.702" height="15"/>
	<rect x="228.15" y="125" width="55.702" height="15"/>
	<rect x="228.15" y="161.55" width="55.702" height="15"/>
	<rect x="228.15" y="198.1" width="55.702" height="15"/>
</g>
<path style="fill:#F28B74;" d="M293.815,43.951l-4.357,6.755c-3.495,5.42-9.503,8.694-15.952,8.694h-35.012
	c-6.449,0-12.457-3.274-15.952-8.694l-4.357-6.755c-2.618-4.059-4.01-8.786-4.01-13.615V13.642C214.175,6.108,220.283,0,227.817,0
	h56.366c7.534,0,13.642,6.108,13.642,13.642v16.694C297.825,35.166,296.433,39.893,293.815,43.951z"/>
<path style="opacity:0.1;enable-background:new    ;" d="M214.175,13.642v16.694c0,4.83,1.392,9.557,4.01,13.615l4.357,6.755
	c3.495,5.42,9.503,8.694,15.952,8.694h20.724c-20.55-9.304-22.843-43.404-23.097-59.4h-8.304
	C220.283,0,214.175,6.108,214.175,13.642z"/>
<g>
</g>
<g>
</g>
<g>
</g>
<g>
</g>
<g>
</g>
<g>
</g>
<g>
</g>
<g>
</g>
<g>
</g>
<g>
</g>
<g>
</g>
<g>
</g>
<g>
</g>
<g>
</g>
<g>
</g>
</svg>
