<?xml version="1.0" encoding="iso-8859-1"?>
<!-- Generator: Adobe Illustrator 19.0.0, SVG Export Plug-In . SVG Version: 6.00 Build 0)  -->
<svg version="1.1" id="Capa_1" xmlns="http://www.w3.org/2000/svg" xmlns:xlink="http://www.w3.org/1999/xlink" x="0px" y="0px"
	 viewBox="0 0 512 512" style="enable-background:new 0 0 512 512;" xml:space="preserve">
<path style="fill:#D1EFF2;" d="M105.588,304.145c0-89.019,72.164-161.184,161.184-161.184c44.509,0,84.805,18.041,113.974,47.209
	l-53.152,53.152c-15.566-15.566-37.07-25.193-60.822-25.193c-47.505,0-86.016,38.511-86.016,86.016s38.51,86.016,86.016,86.016
	H403.1c-28.559,45.168-78.937,75.168-136.328,75.168H105.588V304.145z"/>
<path style="fill:#B3E7FF;" d="M266.772,465.329c57.391,0,107.769-30,136.328-75.168H266.772c-47.505,0-86.016-38.51-86.016-86.016
	h-75.168v161.184L266.772,465.329L266.772,465.329z"/>
<g>
	<path style="fill:#FFFFFF;" d="M171.256,408.296h-36.839c-4.143,0-7.5-3.358-7.5-7.5s3.357-7.5,7.5-7.5h36.839
		c4.143,0,7.5,3.358,7.5,7.5C178.756,404.939,175.398,408.296,171.256,408.296z"/>
	<path style="fill:#FFFFFF;" d="M197.014,433.864h-62.597c-4.143,0-7.5-3.358-7.5-7.5s3.357-7.5,7.5-7.5h62.597
		c4.143,0,7.5,3.358,7.5,7.5S201.156,433.864,197.014,433.864z"/>
</g>
<path style="opacity:0.1;enable-background:new    ;" d="M158.045,185.161c-32.235,29.472-52.457,71.865-52.457,118.985V465.33
	h125.735C125.799,403.821,134.194,275.54,158.045,185.161z"/>
<path style="fill:#76B7EB;" d="M245.689,409.493h201.122c4.467,0,8.088-3.621,8.088-8.088v-22.489c0-4.467-3.621-8.088-8.088-8.088
	H245.689c-4.467,0-8.088,3.621-8.088,8.088v22.489C237.601,405.872,241.222,409.493,245.689,409.493z"/>
<path style="opacity:0.1;enable-background:new    ;" d="M245.689,370.828c-4.467,0-8.088,3.621-8.088,8.088v22.489
	c0,4.467,3.621,8.088,8.088,8.088h71.468c-33.298-7.893-35.773-30.647-31.451-38.665L245.689,370.828L245.689,370.828z"/>
<g>
	<path style="fill:#76B7EB;" d="M291.471,77.894l32.669,32.669c2.632,2.631,4.08,6.127,4.08,9.846v58.548
		c0,15.216,12.335,27.551,27.551,27.551s27.551-12.335,27.551-27.551V120.41c0-18.438-7.181-35.772-20.219-48.81l-32.668-32.668
		L291.471,77.894z"/>
	<path style="fill:#76B7EB;" d="M324.612,245.445h62.318v34.248c0,5.069-4.11,9.179-9.179,9.179h-43.96
		c-5.069,0-9.179-4.109-9.179-9.179L324.612,245.445L324.612,245.445z"/>
</g>
<path style="fill:#38648C;" d="M304.372,245.445h102.797c4.192,0,7.59-3.398,7.59-7.59v-87.219c0-4.192-3.398-7.59-7.59-7.59
	H304.372c-4.192,0-7.59,3.398-7.59,7.59v87.219C296.783,242.047,300.181,245.445,304.372,245.445z"/>
<path style="opacity:0.1;enable-background:new    ;" d="M296.783,150.636v87.219c0,4.192,3.398,7.59,7.59,7.59h52.631
	c-33.82-23.449-35.995-78.06-36.122-102.398h-16.509C300.181,143.047,296.783,146.445,296.783,150.636z"/>
<rect x="296.78" y="201.06" style="opacity:0.15;enable-background:new    ;" width="117.98" height="15"/>
<path style="fill:#38648C;" d="M254.186,55.598l27.095,27.095c2.195,2.195,5.754,2.195,7.949,0l46.004-46.002
	c2.195-2.195,2.195-5.754,0-7.95L308.139,1.646c-2.195-2.195-5.754-2.195-7.949,0l-46.004,46.002
	C251.991,49.844,251.991,53.403,254.186,55.598z"/>
<path style="opacity:0.1;enable-background:new    ;" d="M268.896,32.94l-14.71,14.709c-2.195,2.195-2.195,5.754,0,7.95
	l27.095,27.095c2.195,2.195,5.754,2.195,7.949,0l13.631-13.631C290.603,61.092,274.237,44.17,268.896,32.94z"/>
<g>
	<path style="fill:#38648C;" d="M401.387,512H70.472c-7.385,0-13.371-5.987-13.371-13.371V478.7c0-7.385,5.987-13.371,13.371-13.371
		h330.915c7.385,0,13.371,5.987,13.371,13.371v19.928C414.759,506.013,408.772,512,401.387,512z"/>
	<circle style="fill:#38648C;" cx="134.42" cy="304.14" r="46.34"/>
</g>
<path style="opacity:0.15;enable-background:new    ;" d="M115.081,312.875L96.786,331.17c2.938,4.084,6.523,7.669,10.607,10.607
	l18.295-18.296c2.929-2.929,2.929-7.678,0-10.606C122.759,309.945,118.011,309.946,115.081,312.875z M148.45,297.613
	c1.919,0,3.839-0.732,5.304-2.197l18.295-18.295c-2.939-4.084-6.523-7.669-10.607-10.607l-18.295,18.296
	c-2.929,2.929-2.929,7.678,0,10.606C144.611,296.88,146.531,297.613,148.45,297.613z M107.393,266.514
	c-4.084,2.938-7.669,6.522-10.607,10.607l18.295,18.295c1.465,1.465,3.384,2.197,5.304,2.197c1.919,0,3.839-0.732,5.304-2.197
	c2.929-2.929,2.929-7.677,0-10.606L107.393,266.514z M143.146,312.875c-2.929,2.929-2.929,7.678,0,10.606l18.295,18.296
	c4.084-2.938,7.668-6.523,10.607-10.607l-18.295-18.295C150.824,309.945,146.076,309.945,143.146,312.875z"/>
<circle style="fill:#76B7EB;" cx="134.42" cy="304.14" r="19.845"/>
<path style="opacity:0.1;enable-background:new    ;" d="M324.612,279.693c0,5.069,4.11,9.179,9.179,9.179h15.933
	c-5.56-6.377-8.047-17.126-9.141-27.486c-0.202-1.915,1.311-3.579,3.236-3.579h43.11v-12.362h-62.318L324.612,279.693
	L324.612,279.693z"/>
<g>
</g>
<g>
</g>
<g>
</g>
<g>
</g>
<g>
</g>
<g>
</g>
<g>
</g>
<g>
</g>
<g>
</g>
<g>
</g>
<g>
</g>
<g>
</g>
<g>
</g>
<g>
</g>
<g>
</g>
</svg>
