<?xml version="1.0" encoding="iso-8859-1"?>
<!-- Generator: Adobe Illustrator 19.0.0, SVG Export Plug-In . SVG Version: 6.00 Build 0)  -->
<svg version="1.1" id="Capa_1" xmlns="http://www.w3.org/2000/svg" xmlns:xlink="http://www.w3.org/1999/xlink" x="0px" y="0px"
	 viewBox="0 0 512 512" style="enable-background:new 0 0 512 512;" xml:space="preserve">
<path style="fill:#495059;" d="M419.453,429.926l-60.819,9.871l8.344,51.406c0.844,5.199,5.742,8.729,10.941,7.885l41.993-6.816
	c5.199-0.844,8.729-5.742,7.885-10.941L419.453,429.926z"/>
<path style="fill:#BDC0C3;" d="M331.163,380.672l-10.59-65.248c-1.705-10.505-5.437-20.402-11.09-29.416l-26.828-42.773
	c-7.704-12.285-12.789-25.77-15.112-40.08l-22.06-135.907c-1.271-7.832,4.048-15.212,11.88-16.484
	c7.832-1.271,15.212,4.048,16.483,11.88l22.059,135.908c1.705,10.503,5.436,20.4,11.091,29.416l26.827,42.772
	c7.704,12.282,12.788,25.767,15.112,40.08l10.59,65.248L331.163,380.672z"/>
<path style="opacity:0.1;enable-background:new    ;" d="M283.144,202.207v-82.282l-9.297-57.28
	c-1.271-7.832-8.651-13.151-16.483-11.88s-13.151,8.651-11.88,16.484l22.059,135.908c1.819,11.206,5.339,21.902,10.476,31.915
	C281.418,224.461,283.144,213.447,283.144,202.207z"/>
<path style="opacity:0.1;enable-background:new    ;" d="M273.846,62.644c-1.271-7.832-8.651-13.151-16.483-11.88
	s-13.151,8.651-11.88,16.484l6.656,41.006c9.644-0.237,19.273-0.707,28.88-1.417L273.846,62.644z"/>
<path style="fill:#BDC0C3;" d="M426.813,365.147l-10.59-65.248c-1.705-10.505-1.295-21.074,1.217-31.413l11.922-49.062
	c3.423-14.091,3.982-28.492,1.659-42.802L408.962,40.714c-1.271-7.832-8.651-13.151-16.483-11.88s-13.151,8.651-11.88,16.483
	l22.059,135.908c1.705,10.503,1.295,21.072-1.218,31.414l-11.922,49.061c-3.424,14.088-3.982,28.489-1.659,42.802l10.59,65.248
	L426.813,365.147z"/>
<path style="opacity:0.1;enable-background:new    ;" d="M392.479,28.834c-7.832,1.271-13.151,8.651-11.88,16.483l7.088,43.671
	c9.325-2.459,18.595-5.148,27.801-8.066l-6.526-40.208C407.691,32.881,400.311,27.562,392.479,28.834z"/>
<g transform="matrix(0.9871 -0.1602 0.1602 0.9871 -49.691 64.27)">
	<rect x="353.98" y="307.24" style="fill:#BDC0C3;" width="39.433" height="66.1"/>
	<rect x="353.98" y="307.24" style="opacity:0.15;enable-background:new    ;" width="39.433" height="66.1"/>
</g>
<path style="fill:#76B7EB;" d="M438.63,431.288l-14.12,13.251c-1.894,1.778-4.277,2.95-6.841,3.366l-51.655,8.384
	c-2.565,0.416-5.195,0.058-7.555-1.03l-23.895-11.012c-7.253-3.342-12.368-10.073-13.648-17.956l-5.301-32.662
	c-0.911-5.615,2.902-10.905,8.516-11.817l109.714-17.808c5.615-0.911,10.905,2.902,11.817,8.516l4.189,25.806
	C451.825,410.497,447.619,422.852,438.63,431.288z"/>
<path style="opacity:0.1;enable-background:new    ;" d="M366.013,456.289l44.574-7.235c-32.132-11.927-52.716-42.299-58.766-71.735
	l-27.69,4.494c-5.615,0.911-9.428,6.202-8.516,11.817l5.301,32.662c1.28,7.883,6.395,14.613,13.648,17.956l23.895,11.012
	C360.818,456.347,363.449,456.706,366.013,456.289z"/>
<path style="fill:#76B7EB;" d="M432.702,57.391L432.702,57.391c-65.657,23.065-134.884,34.301-204.465,33.187l0,0
	c-6.746-0.108-12.444-5.035-13.525-11.695l-4.92-30.315c-1.39-8.561,5.299-16.297,13.971-16.158l0,0
	C290.05,33.472,356,22.768,418.549,0.794l0,0c8.183-2.875,16.975,2.348,18.365,10.91l4.92,30.315
	C442.915,48.678,439.067,55.155,432.702,57.391z"/>
<path style="opacity:0.1;enable-background:new    ;" d="M291.113,86.923c4.27-0.665,8.534-1.377,12.792-2.138l0,0
	c6.338,0,11.477-5.138,11.477-11.477V40.363c0-5.845-3.566-10.715-8.5-12.814c-27.496,3.669-55.277,5.307-83.119,4.861l0,0
	c-8.672-0.139-15.361,7.597-13.971,16.158l4.92,30.315c1.081,6.659,6.78,11.587,13.525,11.695l0,0
	c19.668,0.315,39.308-0.358,58.847-2.005C288.25,87.739,289.615,87.156,291.113,86.923z"/>
<path style="fill:#495059;" d="M207.525,450.385H145.91v52.078c0,5.267,4.269,9.536,9.536,9.536h42.542
	c5.267,0,9.536-4.269,9.536-9.536v-52.078H207.525z"/>
<path style="fill:#BDC0C3;" d="M128.267,387.623v-66.101c0-10.642-2.098-21.009-6.234-30.812l-19.629-46.519
	c-5.636-13.361-8.495-27.486-8.495-41.983V64.52c0-7.935,6.433-14.367,14.367-14.367c7.935,0,14.367,6.432,14.367,14.367v137.687
	c0,10.64,2.098,21.007,6.235,30.813l19.628,46.518c5.637,13.357,8.495,27.483,8.495,41.984v66.101H128.267z"/>
<path style="opacity:0.1;enable-background:new    ;" d="M93.909,64.52v42.803c9.556,1.358,19.137,2.479,28.734,3.364V64.52
	c0-6.257-4.007-11.565-9.59-13.537c-2.091-0.239-4.182-0.49-6.271-0.753C99.55,50.978,93.909,57.09,93.909,64.52z"/>
<path style="fill:#BDC0C3;" d="M225.169,387.623v-66.101c0-10.642,2.098-21.009,6.234-30.812l19.629-46.519
	c5.636-13.361,8.495-27.486,8.495-41.983V64.52c0-7.935-6.432-14.367-14.367-14.367s-14.367,6.432-14.367,14.367v137.687
	c0,10.64-2.098,21.007-6.235,30.813l-19.628,46.518c-5.637,13.357-8.495,27.483-8.495,41.984v66.101H225.169z"/>
<path style="opacity:0.1;enable-background:new    ;" d="M259.527,107.323V64.52c0-7.43-5.641-13.542-12.874-14.289
	c-2.089,0.263-4.179,0.514-6.271,0.753c-5.583,1.971-9.59,7.279-9.59,13.537v46.167C240.39,109.802,249.971,108.681,259.527,107.323
	z"/>
<rect x="157" y="321.52" style="fill:#BDC0C3;" width="39.433" height="66.1"/>
<rect x="157" y="321.52" style="opacity:0.15;enable-background:new    ;" width="39.433" height="66.1"/>
<path style="fill:#76B7EB;" d="M226.236,454.802l-16.061,10.817c-2.155,1.451-4.694,2.227-7.292,2.227h-52.331
	c-2.598,0-5.137-0.775-7.292-2.227l-21.822-14.698c-6.624-4.461-10.595-11.924-10.595-19.91v-33.09c0-5.688,4.611-10.3,10.3-10.3
	h111.15c5.688,0,10.3,4.611,10.3,10.3v26.143C242.593,436.395,236.462,447.915,226.236,454.802z"/>
<path style="opacity:0.1;enable-background:new    ;" d="M110.843,397.922v33.09c0,7.986,3.971,15.449,10.595,19.91l21.822,14.698
	c2.155,1.451,4.694,2.227,7.292,2.227h38.733c-32.143-17.114-41.517-57.655-43.176-80.224h-24.967
	C115.455,387.623,110.843,392.234,110.843,397.922z"/>
<path style="fill:#76B7EB;" d="M280.288,84.785L280.288,84.785c-68.504,12.248-138.637,12.248-207.141,0l0,0
	c-6.641-1.187-11.477-6.964-11.477-13.711V40.363c0-8.673,7.842-15.237,16.38-13.711l0,0c65.261,11.668,132.074,11.668,197.335,0
	l0,0c8.538-1.526,16.38,5.038,16.38,13.711v30.712C291.765,77.821,286.93,83.598,280.288,84.785z"/>
<g>
</g>
<g>
</g>
<g>
</g>
<g>
</g>
<g>
</g>
<g>
</g>
<g>
</g>
<g>
</g>
<g>
</g>
<g>
</g>
<g>
</g>
<g>
</g>
<g>
</g>
<g>
</g>
<g>
</g>
</svg>
