<?xml version="1.0" encoding="iso-8859-1"?>
<!-- Generator: Adobe Illustrator 19.0.0, SVG Export Plug-In . SVG Version: 6.00 Build 0)  -->
<svg version="1.1" id="Capa_1" xmlns="http://www.w3.org/2000/svg" xmlns:xlink="http://www.w3.org/1999/xlink" x="0px" y="0px"
	 viewBox="0 0 512 512" style="enable-background:new 0 0 512 512;" xml:space="preserve">
<path style="fill:#495059;" d="M276.652,512H14.572c-4.142,0-7.5-3.358-7.5-7.5s3.358-7.5,7.5-7.5h262.08c4.143,0,7.5,3.358,7.5,7.5
	S280.795,512,276.652,512z"/>
<path style="fill:#E8E9EA;" d="M138.418,435.33l71.39-71.39c2.445-2.445,4.566-5.194,6.311-8.18l6.767-11.581
	c1.745-2.986,3.865-5.735,6.311-8.18l50.326-50.325l-63.116-63.116L71.061,367.903c-19.122,19.122-33.588,42.389-42.276,67.999
	l-22.77,67.119c-1.799,5.304,3.238,10.382,8.556,8.624l0,0C61.245,496.224,103.66,470.088,138.418,435.33z"/>
<path style="fill:#BDC0C3;" d="M28.785,435.902l-13.609,40.114c44.243-15.641,84.468-40.96,117.689-74.181l71.39-71.39
	c2.445-2.445,4.566-5.194,6.311-8.18l6.767-11.581c1.745-2.986,3.865-5.735,6.311-8.18l36.354-36.354l-43.592-43.592L71.061,367.903
	C51.939,387.026,37.473,410.292,28.785,435.902z"/>
<path style="opacity:0.1;enable-background:new    ;" d="M171.933,401.815c-73.022,37.076-120.915,35.934-138.731,22.486
	c-1.6,3.81-3.084,7.674-4.416,11.601l-22.77,67.119c-1.799,5.304,3.238,10.381,8.556,8.624l0,0
	c46.674-15.421,89.088-41.557,123.846-76.316L171.933,401.815z"/>
<path style="fill:#38648C;" d="M193.709,261.13l0.01,0.139c0.835,12.053-3.59,23.877-12.133,32.42l-38.8,38.8
	c-4.159,4.159-4.159,10.903,0,15.063l14.651,14.651c4.159,4.159,10.903,4.159,15.062,0l38.157-38.157
	c8.913-8.913,21.373-13.324,33.908-12.003l0,0c9.809,1.033,19.56-2.418,26.534-9.393L480.781,92.967
	c18.646-18.646,27.867-44.719,25.089-70.941l0,0c-1.203-11.361-10.179-20.337-21.54-21.54l0,0
	c-26.222-2.777-52.295,6.444-70.941,25.089L203.203,235.761C196.518,242.446,193.055,251.699,193.709,261.13z"/>
<path style="fill:#B3E7FF;" d="M446.204,60.152c10.418,10.418,25.734,17.84,42.868,23.215c13.018-17.484,19.126-39.359,16.798-61.34
	l0,0c-1.203-11.361-10.179-20.337-21.54-21.54l0,0c-21.982-2.328-43.856,3.779-61.34,16.798
	C428.365,34.418,435.786,49.734,446.204,60.152z"/>
<path style="opacity:0.2;enable-background:new    ;" d="M287.26,151.705L287.26,151.705l-10.607,10.607L293.341,179
	c1.465,1.465,3.385,2.197,5.304,2.197c1.919,0,3.839-0.732,5.304-2.197c2.929-2.929,2.929-7.678,0-10.606L287.26,151.705z
	 M331.566,151.381c2.929-2.929,2.929-7.678,0-10.606l-16.688-16.688l-10.607,10.607l16.688,16.688
	c1.465,1.465,3.385,2.197,5.304,2.197C328.182,153.578,330.102,152.845,331.566,151.381z M353.881,125.959
	c1.919,0,3.839-0.732,5.304-2.197c2.929-2.929,2.929-7.677,0-10.607l-16.688-16.688c0,0,0,0-0.001,0l-10.607,10.607l16.688,16.688
	C350.042,125.227,351.961,125.959,353.881,125.959z M327.356,202.409c-2.929,2.929-2.929,7.677,0,10.606l16.688,16.688l0,0
	l10.607-10.607l-16.688-16.688C335.035,199.48,330.287,199.479,327.356,202.409z M393.2,147.172c-2.93-2.93-7.678-2.929-10.607,0
	s-2.929,7.678,0,10.606l16.689,16.688l0,0l10.607-10.607L393.2,147.172z M354.975,174.79c-2.929,2.929-2.929,7.678,0,10.607
	l16.689,16.688l10.607-10.607l-16.688-16.688C362.652,171.861,357.904,171.861,354.975,174.79z"/>
<path style="opacity:0.1;enable-background:new    ;" d="M200.026,239.465c-4.579,6.202-6.857,13.871-6.317,21.666l0.01,0.138
	c0.835,12.053-3.59,23.877-12.133,32.42l-38.8,38.8c-4.159,4.159-4.159,10.903,0,15.063l14.651,14.651
	c4.159,4.159,10.903,4.159,15.062,0l38.157-38.157c8.913-8.913,21.373-13.324,33.908-12.003c9.809,1.033,19.56-2.418,26.534-9.393
	l93.938-93.938C296.866,243.565,221.098,281.171,200.026,239.465z"/>
<g>
</g>
<g>
</g>
<g>
</g>
<g>
</g>
<g>
</g>
<g>
</g>
<g>
</g>
<g>
</g>
<g>
</g>
<g>
</g>
<g>
</g>
<g>
</g>
<g>
</g>
<g>
</g>
<g>
</g>
</svg>
