<?xml version="1.0" encoding="iso-8859-1"?>
<!-- Generator: Adobe Illustrator 19.0.0, SVG Export Plug-In . SVG Version: 6.00 Build 0)  -->
<svg version="1.1" id="Capa_1" xmlns="http://www.w3.org/2000/svg" xmlns:xlink="http://www.w3.org/1999/xlink" x="0px" y="0px"
	 viewBox="0 0 512 512" style="enable-background:new 0 0 512 512;" xml:space="preserve">
<path style="fill:#F5D7B7;" d="M219.092,466.726c-8.464,0-15.326-6.862-15.326-15.326V325.447c0-10.54-6.758-19.738-16.816-22.888
	l-54.604-17.103c-8.077-2.53-12.574-11.129-10.044-19.207s11.132-12.574,19.207-10.045l54.604,17.103
	c22.912,7.177,38.306,28.13,38.306,52.14V451.4C234.418,459.864,227.556,466.726,219.092,466.726z"/>
<path style="opacity:0.1;enable-background:new    ;" d="M192.942,305.403c-4.547-15.103-12.681-28.966-23.938-40.586l-27.496-8.612
	c-8.075-2.53-16.676,1.967-19.207,10.045c-2.53,8.078,1.967,16.677,10.044,19.207l54.604,17.103
	C189.116,303.237,191.117,304.211,192.942,305.403z"/>
<path style="fill:#F5D7B7;" d="M292.907,466.726c-8.464,0-15.326-6.862-15.326-15.326V325.447c0-24.009,15.394-44.962,38.306-52.14
	l54.604-17.103c8.075-2.53,16.677,1.966,19.206,10.045c2.53,8.078-1.967,16.677-10.044,19.207l-54.604,17.103
	c-10.058,3.151-16.816,12.349-16.816,22.888V451.4C308.233,459.864,301.372,466.726,292.907,466.726z"/>
<path style="opacity:0.1;enable-background:new    ;" d="M319.057,305.403c4.547-15.103,12.681-28.966,23.938-40.586l27.496-8.612
	c8.075-2.53,16.676,1.967,19.207,10.045c2.53,8.078-1.967,16.677-10.045,19.207L325.05,302.56
	C322.884,303.237,320.883,304.211,319.057,305.403z"/>
<path style="fill:#38648C;" d="M384.536,249.246l-61.111-21.361c-12.858-4.494-23.656-13.485-30.403-25.317l-14.429-25.3
	c-4.771-8.365-7.28-17.828-7.28-27.458V61.033c0-8.252-6.342-15.353-14.585-15.741c-8.801-0.415-16.067,6.599-16.067,15.309v89.212
	c0,9.63-2.509,19.093-7.279,27.458l-14.428,25.299c-6.748,11.831-17.545,20.822-30.403,25.317l-60.696,21.216
	c-7.963,2.784-12.561,11.411-9.912,19.42c2.138,6.463,8.136,10.524,14.553,10.524c1.678,0,3.384-0.277,5.058-0.862l61.112-21.361
	c19.84-6.935,36.502-20.809,46.915-39.067l9.07-15.903c0.591-1.036,2.085-1.036,2.676,0l9.068,15.901
	c10.412,18.257,27.076,32.134,46.917,39.069l61.112,21.361c1.673,0.585,3.379,0.862,5.057,0.862c6.333,0,12.26-3.957,14.467-10.273
	C396.74,260.781,392.527,252.04,384.536,249.246z"/>
<path style="opacity:0.1;enable-background:new    ;" d="M338.617,263.785c2.12-2.12,2.554-3.821,2.554-5.724
	c0-1.903-0.434-3.604-2.554-5.724c-7.689-7.689-13.945-16.421-18.693-25.861c1.288,0.561,2.594,1.088,3.929,1.554l60.696,21.216
	c7.963,2.783,12.561,11.411,9.912,19.42c-2.138,6.463-8.136,10.524-14.552,10.524c-1.678,0-3.384-0.277-5.058-0.862l-37.575-13.134
	C337.726,264.726,338.157,264.245,338.617,263.785z"/>
<path style="opacity:0.1;enable-background:new    ;" d="M173.799,263.639c-2.12-2.12-2.554-3.821-2.554-5.724
	c0-1.903,0.434-3.604,2.554-5.724c7.689-7.689,13.945-16.421,18.693-25.861c-1.288,0.562-2.594,1.088-3.929,1.554L127.867,249.1
	c-7.963,2.784-12.561,11.411-9.912,19.42c2.138,6.463,8.136,10.524,14.552,10.524c1.678,0,3.384-0.277,5.058-0.862l37.575-13.134
	C174.69,264.581,174.259,264.1,173.799,263.639z"/>
<path style="fill:#F28B74;" d="M0,257.915c0,40.071,10.804,92.355,48.986,130.537c29.862,29.862,78.278,29.862,108.14,0
	s29.862-78.278,0-108.14c-8.552-8.552-9.46-17.689-9.46-22.397s0.908-13.845,9.46-22.397c29.862-29.862,29.862-78.278,0-108.14
	s-78.278-29.862-108.14,0C10.804,165.56,0,217.845,0,257.915z"/>
<path style="opacity:0.1;enable-background:new    ;" d="M35.483,142.895C8.192,178.923,0,223.042,0,257.915
	c0,40.071,10.804,92.355,48.986,130.537c29.862,29.862,78.278,29.862,108.14,0c2.303-2.303,4.407-4.728,6.355-7.235
	C61.347,410.371-13.523,255.303,35.483,142.895z"/>
<path style="fill:#F28B74;" d="M512,257.915c0,40.071-10.804,92.355-48.986,130.537c-29.862,29.862-78.278,29.862-108.14,0
	s-29.862-78.278,0-108.14c8.552-8.552,9.46-17.689,9.46-22.397s-0.908-13.845-9.46-22.397c-29.862-29.862-29.862-78.278,0-108.14
	s78.278-29.862,108.14,0C501.196,165.56,512,217.845,512,257.915z"/>
<path style="opacity:0.1;enable-background:new    ;" d="M411.271,372.189c-47.37-3.432-61.75-54.246-52.435-96.598
	c-1.094,1.573-2.397,3.157-3.962,4.721c-29.862,29.862-29.862,78.278,0,108.14s78.278,29.862,108.14,0
	c32.087-32.087,44.835-74.131,48.089-110.519C479.502,351.834,460.785,375.777,411.271,372.189z"/>
<path style="opacity:0.1;enable-background:new    ;" d="M147.707,256.286c-18.405,5.096-28.333,19.516-32.786,28.213
	c-1.888,3.686-0.429,8.206,3.258,10.094c1.094,0.561,2.261,0.826,3.412,0.826c2.725,0,5.354-1.491,6.682-4.083
	c3.167-6.185,10.03-16.317,22.286-20.25c-2.51-5.327-2.893-10.156-2.893-13.17C147.666,257.422,147.68,256.871,147.707,256.286z
	 M147.816,254.742c0.366-3.808,1.563-8.909,5.118-14.162c-13.755-3.31-21.295-14.342-24.661-20.916
	c-1.888-3.687-6.407-5.144-10.094-3.257c-3.687,1.888-5.145,6.407-3.257,10.094C119.383,235.214,129.343,249.672,147.816,254.742z"
	/>
<path style="opacity:0.1;enable-background:new    ;" d="M393.82,216.406c-3.685-1.887-8.207-0.429-10.094,3.257
	c-3.366,6.574-10.906,17.606-24.661,20.916c3.555,5.253,4.752,10.354,5.118,14.162c18.473-5.07,28.433-19.528,32.894-28.241
	C398.966,222.814,397.508,218.294,393.82,216.406z"/>
<path style="opacity:0.1;enable-background:new    ;" d="M383.727,291.335c1.327,2.593,3.956,4.083,6.682,4.083
	c1.15,0,2.318-0.266,3.412-0.826c3.688-1.888,5.145-6.407,3.258-10.094c-4.453-8.697-14.381-23.116-32.785-28.213
	c0.028,0.584,0.042,1.136,0.042,1.629c0,3.013-0.383,7.843-2.893,13.17C373.697,275.019,380.56,285.151,383.727,291.335z"/>
<g>
</g>
<g>
</g>
<g>
</g>
<g>
</g>
<g>
</g>
<g>
</g>
<g>
</g>
<g>
</g>
<g>
</g>
<g>
</g>
<g>
</g>
<g>
</g>
<g>
</g>
<g>
</g>
<g>
</g>
</svg>
