<?xml version="1.0" encoding="iso-8859-1"?>
<!-- Generator: Adobe Illustrator 19.0.0, SVG Export Plug-In . SVG Version: 6.00 Build 0)  -->
<svg version="1.1" id="Capa_1" xmlns="http://www.w3.org/2000/svg" xmlns:xlink="http://www.w3.org/1999/xlink" x="0px" y="0px"
	 viewBox="0 0 512 512" style="enable-background:new 0 0 512 512;" xml:space="preserve">
<g>
	<path style="fill:#38648C;" d="M125.473,501.627H75.335c-7.408,0-13.413-6.005-13.413-13.413v-24.859h76.962v24.859
		C138.885,495.622,132.88,501.627,125.473,501.627z"/>
	<path style="fill:#38648C;" d="M386.527,501.627h50.137c7.408,0,13.413-6.005,13.413-13.413v-24.859h-76.962v24.859
		C373.115,495.622,379.12,501.627,386.527,501.627z"/>
	<path style="fill:#38648C;" d="M354.021,131c-11.161,0-20.21-9.048-20.21-20.21V84.463c0-18.566-15.105-33.67-33.671-33.67h-88.281
		c-18.566,0-33.671,15.105-33.671,33.67v26.328c0,11.161-9.048,20.21-20.21,20.21c-11.161,0-20.209-9.048-20.209-20.21V84.463
		c0-40.853,33.236-74.09,74.09-74.09h88.281c40.853,0,74.09,33.236,74.09,74.09v26.328C374.23,121.952,365.182,131,354.021,131z"/>
</g>
<path style="fill:#76B7EB;" d="M468.976,463.355H43.024C19.262,463.355,0,444.093,0,420.332V153.814
	c0-23.761,19.262-43.024,43.024-43.024h425.952c23.761,0,43.024,19.262,43.024,43.024v266.517
	C512,444.093,492.738,463.355,468.976,463.355z"/>
<path style="opacity:0.1;enable-background:new    ;" d="M0,153.814v266.517c0,23.761,19.262,43.024,43.024,43.024H233.32
	C125.203,380.175,107.817,185.86,105.539,110.79H43.024C19.262,110.79,0,130.053,0,153.814z"/>
<g>
	<path style="fill:#B3E7FF;" d="M80.822,463.355H43.024V110.79c0-10.438,8.461-18.899,18.899-18.899l0,0
		c10.438,0,18.899,8.461,18.899,18.899V463.355z"/>
	<path style="fill:#B3E7FF;" d="M431.178,463.355h37.798V110.79c0-10.438-8.461-18.899-18.899-18.899l0,0
		c-10.438,0-18.899,8.461-18.899,18.899L431.178,463.355L431.178,463.355z"/>
</g>
<circle style="fill:#FFFFFF;" cx="256" cy="343.77" r="83.67"/>
<path style="fill:#F28B74;" d="M273.052,323.374v-25.365c0-2.328-1.887-4.215-4.215-4.215h-25.674c-2.328,0-4.215,1.887-4.215,4.215
	v25.365c0,1.848-1.498,3.345-3.345,3.345h-25.365c-2.328,0-4.215,1.887-4.215,4.215v25.674c0,2.328,1.887,4.215,4.215,4.215h25.365
	c1.847,0,3.345,1.498,3.345,3.345v25.365c0,2.328,1.887,4.215,4.215,4.215h25.674c2.328,0,4.215-1.887,4.215-4.215v-25.365
	c0-1.847,1.498-3.345,3.345-3.345h25.365c2.328,0,4.215-1.887,4.215-4.215v-25.674c0-2.328-1.887-4.215-4.215-4.215h-25.365
	C274.55,326.719,273.052,325.222,273.052,323.374z"/>
<g>
	<ellipse style="fill:#FFFFFF;" cx="168.89" cy="204.38" rx="32.14" ry="25.595"/>
	<ellipse style="fill:#FFFFFF;" cx="343.11" cy="204.38" rx="32.14" ry="25.595"/>
</g>
<g>
	<path style="fill:#495059;" d="M202.924,184.031c-4.142,0-7.5-3.358-7.5-7.5c0-4.3-3.499-7.798-7.798-7.798
		c-4.3,0-7.798,3.498-7.798,7.798c0,4.142-3.358,7.5-7.5,7.5s-7.5-3.358-7.5-7.5c0-12.571,10.227-22.798,22.798-22.798
		s22.798,10.227,22.798,22.798C210.424,180.673,207.066,184.031,202.924,184.031z"/>
	<path style="fill:#495059;" d="M339.672,184.031c-4.142,0-7.5-3.358-7.5-7.5c0-4.3-3.498-7.798-7.798-7.798
		c-4.3,0-7.798,3.498-7.798,7.798c0,4.142-3.358,7.5-7.5,7.5s-7.5-3.358-7.5-7.5c0-12.571,10.227-22.798,22.798-22.798
		s22.798,10.227,22.798,22.798C347.172,180.673,343.815,184.031,339.672,184.031z"/>
	<path style="fill:#495059;" d="M256,209.304c-8.387,0-16.362-3.632-21.881-9.965c-2.722-3.123-2.396-7.86,0.726-10.582
		c3.122-2.722,7.86-2.397,10.582,0.726c2.67,3.063,6.524,4.82,10.574,4.82c4.05,0,7.904-1.757,10.574-4.82
		c2.722-3.123,7.458-3.448,10.582-0.726c3.122,2.721,3.448,7.459,0.726,10.582C272.362,205.672,264.387,209.304,256,209.304z"/>
</g>
<rect x="137.77" y="91.89" style="opacity:0.15;enable-background:new    ;" width="40.42" height="18.899"/>
<rect x="333.81" y="91.89" style="opacity:0.15;enable-background:new    ;" width="40.42" height="18.899"/>
<rect x="61.923" y="463.36" style="opacity:0.15;enable-background:new    ;" width="76.962" height="15.606"/>
<rect x="373.12" y="463.36" style="opacity:0.15;enable-background:new    ;" width="76.962" height="15.606"/>
<g style="opacity:0.1;">
	<rect y="309.99" width="43.02" height="15"/>
	<rect y="349.86" width="43.02" height="15"/>
	<rect y="270.12" width="43.02" height="15"/>
</g>
<g style="opacity:0.1;">
	<rect x="468.98" y="309.99" width="43.02" height="15"/>
	<rect x="468.98" y="349.86" width="43.02" height="15"/>
	<rect x="468.98" y="270.12" width="43.02" height="15"/>
</g>
<g>
</g>
<g>
</g>
<g>
</g>
<g>
</g>
<g>
</g>
<g>
</g>
<g>
</g>
<g>
</g>
<g>
</g>
<g>
</g>
<g>
</g>
<g>
</g>
<g>
</g>
<g>
</g>
<g>
</g>
</svg>
