<?xml version="1.0" encoding="iso-8859-1"?>
<!-- Generator: Adobe Illustrator 19.0.0, SVG Export Plug-In . SVG Version: 6.00 Build 0)  -->
<svg version="1.1" id="Capa_1" xmlns="http://www.w3.org/2000/svg" xmlns:xlink="http://www.w3.org/1999/xlink" x="0px" y="0px"
	 viewBox="0 0 512 512" style="enable-background:new 0 0 512 512;" xml:space="preserve">
<g>
	<path style="fill:#B3E7FF;" d="M169.397,504.917c-8.285,0-15.001-6.716-15.001-15.001v-82.473c0-8.285,6.716-15.001,15.001-15.001
		s15.001,6.716,15.001,15.001v82.473C184.398,498.201,177.682,504.917,169.397,504.917z"/>
	<path style="fill:#B3E7FF;" d="M419.764,512h-88.686c-21.993,0-39.885-17.892-39.885-39.885v-64.672
		c0-8.285,6.716-15.001,15.001-15.001s15.001,6.716,15.001,15.001v64.672c0,5.449,4.433,9.882,9.882,9.882h88.686
		c8.285,0,15.001,6.716,15.001,15.001S428.049,512,419.764,512z"/>
</g>
<path style="fill:#F28B74;" d="M191.424,428.253H147.37c-5.655,0-10.239-4.584-10.239-10.239v-31.381h64.533v31.381
	C201.663,423.669,197.079,428.253,191.424,428.253z"/>
<path style="opacity:0.15;enable-background:new    ;" d="M191.424,428.253H147.37c-5.655,0-10.239-4.584-10.239-10.239v-31.381
	h64.533v31.381C201.663,423.669,197.079,428.253,191.424,428.253z"/>
<path style="fill:#F28B74;" d="M328.222,428.253h-44.054c-5.655,0-10.239-4.584-10.239-10.239v-31.381h64.533v31.381
	C338.461,423.669,333.878,428.253,328.222,428.253z"/>
<path style="opacity:0.15;enable-background:new    ;" d="M328.222,428.253h-44.054c-5.655,0-10.239-4.584-10.239-10.239v-31.381
	h64.533v31.381C338.461,423.669,333.878,428.253,328.222,428.253z"/>
<path style="fill:#B3E7FF;" d="M352.716,386.633h-229.84c-25.207,0-45.641-20.434-45.641-45.641V45.641
	C77.235,20.434,97.669,0,122.876,0h229.84c25.207,0,45.641,20.434,45.641,45.641v295.351
	C398.357,366.199,377.923,386.633,352.716,386.633z"/>
<path style="fill:#F28B74;" d="M352.716,386.633h-229.84c-25.207,0-45.641-20.434-45.641-45.641V120.905h321.122v220.087
	C398.357,366.199,377.923,386.633,352.716,386.633z"/>
<path style="fill:#FFFFFF;" d="M329.078,59.781H146.513c-5.182,0-9.382,4.201-9.382,9.382V317.47c0,5.182,4.201,9.382,9.382,9.382
	h182.565c5.182,0,9.383-4.201,9.383-9.382V69.163C338.461,63.981,334.26,59.781,329.078,59.781z"/>
<g>
	<path style="fill:#495059;" d="M295.229,268.288h-34.761c-4.143,0-7.5-3.358-7.5-7.5s3.357-7.5,7.5-7.5h34.761
		c4.143,0,7.5,3.358,7.5,7.5S299.372,268.288,295.229,268.288z"/>
	<path style="fill:#495059;" d="M295.229,296.714h-34.761c-4.143,0-7.5-3.358-7.5-7.5s3.357-7.5,7.5-7.5h34.761
		c4.143,0,7.5,3.358,7.5,7.5S299.372,296.714,295.229,296.714z"/>
	<path style="fill:#495059;" d="M214.366,302.902c-2.949,0-5.745-1.75-6.938-4.646l-10.065-24.436l-10.065,24.436
		c-1.577,3.83-5.959,5.657-9.791,4.078c-3.83-1.578-5.656-5.961-4.078-9.791l17-41.272c1.157-2.81,3.895-4.644,6.935-4.644
		c3.039,0,5.777,1.834,6.935,4.644l17,41.272c1.578,3.83-0.248,8.213-4.078,9.791C216.284,302.72,215.316,302.902,214.366,302.902z"
		/>
	<path style="fill:#495059;" d="M211.366,295.622h-28.005c-4.143,0-7.5-3.358-7.5-7.5s3.357-7.5,7.5-7.5h28.005
		c4.143,0,7.5,3.358,7.5,7.5S215.508,295.622,211.366,295.622z"/>
</g>
<g>
	<ellipse style="fill:#F28B74;" cx="180.53" cy="164.76" rx="21.13" ry="16.825"/>
	<ellipse style="fill:#F28B74;" cx="295.06" cy="164.76" rx="21.13" ry="16.825"/>
</g>
<g>
	<path style="fill:#495059;" d="M184.068,152.395c-4.143,0-7.5-3.358-7.5-7.5v-9.069c0-4.142,3.357-7.5,7.5-7.5s7.5,3.358,7.5,7.5
		v9.069C191.568,149.037,188.211,152.395,184.068,152.395z"/>
	<path style="fill:#495059;" d="M237.797,167.141L237.797,167.141c-8.454,0-15.307-6.853-15.307-15.307v-11.129
		c0-2.308,1.871-4.179,4.179-4.179h22.257c2.308,0,4.179,1.871,4.179,4.179v11.129C253.103,160.288,246.25,167.141,237.797,167.141z
		"/>
	<path style="fill:#495059;" d="M291.524,152.395c-4.143,0-7.5-3.358-7.5-7.5v-9.069c0-4.142,3.357-7.5,7.5-7.5s7.5,3.358,7.5,7.5
		v9.069C299.024,149.037,295.667,152.395,291.524,152.395z"/>
</g>
<rect x="137.13" y="215.18" style="fill:#BDC0C3;" width="201.33" height="15"/>
<path style="fill:#76B7EB;" d="M192.014,512h-45.233c-5.329,0-9.65-4.32-9.65-9.65v-26.117c0-5.329,4.32-9.65,9.65-9.65h45.233
	c5.329,0,9.65,4.32,9.65,9.65v26.117C201.663,507.68,197.344,512,192.014,512z"/>
<path style="opacity:0.1;enable-background:new    ;" d="M122.876,0C97.669,0,77.235,20.434,77.235,45.641v295.351
	c0,25.207,20.434,45.641,45.641,45.641h125.917C158.922,308.254,166.993,102.46,167.589,0H122.876z"/>
<g>
</g>
<g>
</g>
<g>
</g>
<g>
</g>
<g>
</g>
<g>
</g>
<g>
</g>
<g>
</g>
<g>
</g>
<g>
</g>
<g>
</g>
<g>
</g>
<g>
</g>
<g>
</g>
<g>
</g>
</svg>
