<?xml version="1.0" encoding="iso-8859-1"?>
<!-- Generator: Adobe Illustrator 19.0.0, SVG Export Plug-In . SVG Version: 6.00 Build 0)  -->
<svg version="1.1" id="Capa_1" xmlns="http://www.w3.org/2000/svg" xmlns:xlink="http://www.w3.org/1999/xlink" x="0px" y="0px"
	 viewBox="0 0 512.001 512.001" style="enable-background:new 0 0 512.001 512.001;" xml:space="preserve">
<circle style="fill:#D1EFF2;" cx="116.48" cy="245.92" r="75.889"/>
<circle style="opacity:0.1;enable-background:new    ;" cx="116.48" cy="245.92" r="75.889"/>
<g style="opacity:0.1;">
	<circle cx="122.6" cy="200.56" r="7.567"/>
	<circle cx="77.07" cy="262.89" r="7.567"/>
	<circle cx="149.64" cy="236.06" r="7.567"/>
</g>
<path style="opacity:0.1;enable-background:new    ;" d="M62.818,192.258c-1.79,1.79-3.466,3.65-5.04,5.566l106.798,106.798
	c1.916-1.574,3.776-3.25,5.566-5.04s3.467-3.651,5.041-5.567L68.384,187.218C66.468,188.792,64.608,190.468,62.818,192.258z"/>
<path style="fill:#38648C;" d="M421.035,124.261V33.586H197.284v90.675c0,13.089-5.557,25.563-15.287,34.318l-15.535,13.977
	c-10.708,9.634-16.823,23.36-16.823,37.764v263.576c0,21.045,17.06,38.105,38.105,38.105h242.832
	c21.045,0,38.105-17.06,38.105-38.105V210.32c0-14.404-6.115-28.13-16.823-37.764l-15.535-13.977
	C426.592,149.824,421.035,137.35,421.035,124.261z"/>
<path style="opacity:0.15;enable-background:new    ;" d="M149.639,468.387v5.508c0,21.045,17.06,38.105,38.105,38.105h242.832
	c21.045,0,38.105-17.06,38.105-38.105v-5.508H149.639z"/>
<path style="fill:#FFFFFF;" d="M407.892,403.941H210.427c-7.46,0-13.508-6.048-13.508-13.508v-140.86
	c0-7.46,6.048-13.508,13.508-13.508h197.465c7.46,0,13.508,6.048,13.508,13.508v140.861
	C421.4,397.894,415.352,403.941,407.892,403.941z"/>
<g>
	<ellipse style="fill:#F28B74;" cx="251.53" cy="292.96" rx="21.263" ry="16.933"/>
	<ellipse style="fill:#F28B74;" cx="366.79" cy="292.96" rx="21.263" ry="16.933"/>
</g>
<g>
	<path style="fill:#495059;" d="M263.926,283.571c-4.143,0-7.5-3.358-7.5-7.5v-7.509c0-4.142,3.357-7.5,7.5-7.5s7.5,3.358,7.5,7.5
		v7.509C271.426,280.213,268.069,283.571,263.926,283.571z"/>
	<path style="fill:#495059;" d="M354.393,283.571c-4.143,0-7.5-3.358-7.5-7.5v-7.509c0-4.142,3.357-7.5,7.5-7.5s7.5,3.358,7.5,7.5
		v7.509C361.893,280.213,358.536,283.571,354.393,283.571z"/>
	<path style="fill:#495059;" d="M309.16,289.337c-6.739,0-13.147-2.918-17.58-8.006c-2.722-3.123-2.396-7.86,0.727-10.582
		c3.122-2.72,7.86-2.396,10.581,0.728c1.584,1.817,3.87,2.86,6.271,2.86s4.688-1.043,6.272-2.861
		c2.722-3.123,7.459-3.448,10.582-0.726s3.447,7.459,0.727,10.582C322.305,286.419,315.898,289.337,309.16,289.337z"/>
</g>
<path style="fill:#B3E7FF;" d="M196.919,320.003v70.431c0,7.46,6.048,13.508,13.508,13.508h197.465
	c7.46,0,13.508-6.047,13.508-13.508v-70.431H196.919z"/>
<g>
	<path style="fill:#495059;" d="M388.257,356.461h-24.293c-4.143,0-7.5-3.358-7.5-7.5s3.357-7.5,7.5-7.5h24.293
		c4.143,0,7.5,3.358,7.5,7.5S392.4,356.461,388.257,356.461z"/>
	<path style="fill:#495059;" d="M388.257,382.483h-24.293c-4.143,0-7.5-3.358-7.5-7.5s3.357-7.5,7.5-7.5h24.293
		c4.143,0,7.5,3.358,7.5,7.5S392.4,382.483,388.257,382.483z"/>
	<rect x="254.34" y="320" style="fill:#495059;" width="15" height="83.938"/>
</g>
<path style="opacity:0.15;enable-background:new    ;" d="M258.235,116.287h162.8V65.692H197.284v58.569
	c0,13.089-5.557,25.563-15.287,34.318l-15.535,13.977c-10.708,9.634-16.822,23.36-16.822,37.764v263.576
	c0,21.045,17.06,38.105,38.105,38.105h146.634c-91.653-28.794-110.91-125.843-110.91-235.122c0-34.663-4.178-74.339,14.625-100.455
	c9.306-12.925,12.663-33.282,13.683-53.962C251.946,119.007,254.777,116.287,258.235,116.287z"/>
<path style="fill:#F5D7B7;" d="M450.647,0H167.672c-11.467,0-20.762,9.296-20.762,20.762v52.321
	c0,11.467,9.296,20.762,20.762,20.762h282.976c11.467,0,20.762-9.296,20.762-20.762V20.762C471.41,9.296,462.114,0,450.647,0z"/>
<path style="opacity:0.15;enable-background:new    ;" d="M146.909,20.763v52.321c0,11.466,9.296,20.762,20.762,20.762h94.535
	C222.594,75.982,217.438,24.982,226.918,0h-59.246C156.205,0,146.909,9.296,146.909,20.763z"/>
<g style="opacity:0.1;">
	<rect x="301.66" width="15" height="93.84"/>
	<rect x="241.04" width="15" height="93.84"/>
	<rect x="180.43" width="15" height="93.84"/>
	<rect x="362.27" width="15" height="93.84"/>
	<rect x="422.89" width="15" height="93.84"/>
</g>
<circle style="fill:#D1EFF2;" cx="120.9" cy="364.74" r="75.889"/>
<g style="opacity:0.1;">
	<circle cx="85.63" cy="354.21" r="7.567"/>
	<circle cx="103.93" cy="316.64" r="7.567"/>
	<circle cx="144.6" cy="408.34" r="7.567"/>
</g>
<path style="opacity:0.1;enable-background:new    ;" d="M179.603,316.64c-1.574-1.916-3.25-3.777-5.04-5.566
	c-1.79-1.79-3.65-3.467-5.567-5.04L62.199,412.831c1.574,1.916,3.25,3.776,5.04,5.566c1.79,1.79,3.65,3.467,5.567,5.04
	L179.603,316.64z"/>
<g>
</g>
<g>
</g>
<g>
</g>
<g>
</g>
<g>
</g>
<g>
</g>
<g>
</g>
<g>
</g>
<g>
</g>
<g>
</g>
<g>
</g>
<g>
</g>
<g>
</g>
<g>
</g>
<g>
</g>
</svg>
