<?xml version="1.0" encoding="iso-8859-1"?>
<!-- Generator: Adobe Illustrator 19.0.0, SVG Export Plug-In . SVG Version: 6.00 Build 0)  -->
<svg version="1.1" id="Capa_1" xmlns="http://www.w3.org/2000/svg" xmlns:xlink="http://www.w3.org/1999/xlink" x="0px" y="0px"
	 viewBox="0 0 512.002 512.002" style="enable-background:new 0 0 512.002 512.002;" xml:space="preserve">
<g>
	<path style="fill:#38648C;" d="M38.85,483.783c-1.503,0-3.02-0.45-4.338-1.387c-3.377-2.399-4.168-7.082-1.769-10.458
		l74.576-104.939c2.16-3.041,6.229-4.031,9.545-2.324l98.121,50.498c3.683,1.895,5.132,6.418,3.236,10.101
		c-1.895,3.683-6.416,5.134-10.101,3.236l-92.341-47.523l-70.81,99.641C43.508,482.685,41.197,483.783,38.85,483.783z"/>
	<path style="fill:#38648C;" d="M473.154,483.783c-2.347,0.001-4.657-1.098-6.12-3.156l-70.81-99.64l-92.342,47.523
		c-3.681,1.898-8.204,0.447-10.101-3.236c-1.896-3.683-0.446-8.206,3.237-10.101l98.121-50.498c3.311-1.708,7.383-0.718,9.545,2.324
		l74.576,104.939c2.399,3.376,1.607,8.059-1.769,10.458C476.174,483.333,474.656,483.783,473.154,483.783z"/>
</g>
<rect x="224.691" y="230.96" style="fill:#F28B74;" width="62.61" height="173.68"/>
<path style="opacity:0.15;enable-background:new    ;" d="M224.696,284.362l21.617,10.932c6.092,3.081,13.287,3.081,19.38,0
	l21.615-10.932v-53.401h-62.612V284.362z"/>
<path style="fill:#76B7EB;" d="M267.745,3.496l100.881,65.903c6.07,3.965,9.728,10.726,9.728,17.976l-0.001,111.863
	c0,8.097-4.555,15.506-11.781,19.16l-100.881,51.019c-6.093,3.081-13.287,3.081-19.38,0l-100.88-51.02
	c-7.226-3.654-11.781-11.063-11.781-19.16l-0.001-111.863c0-7.25,3.659-14.01,9.728-17.976L244.26,3.496
	C251.394-1.165,260.61-1.165,267.745,3.496z"/>
<path style="opacity:0.1;enable-background:new    ;" d="M375.426,210.039L256.002,156.62v115.107c3.322,0,6.644-0.77,9.691-2.311
	l100.88-51.019C370.344,216.49,373.377,213.555,375.426,210.039z"/>
<path style="opacity:0.1;enable-background:new    ;" d="M184.341,97l39.909-80.432l-80.872,52.831
	c-2.971,1.941-5.359,4.554-7.028,7.563L184.341,97z"/>
<path style="opacity:0.1;enable-background:new    ;" d="M133.65,199.237c0,8.097,4.555,15.506,11.781,19.16l100.882,51.019
	c3.046,1.54,6.368,2.311,9.689,2.311V219.63L133.65,149.622L133.65,199.237z"/>
<path style="fill:#B3E7FF;" d="M376.525,78.723c-0.454-1.03-0.986-2.023-1.596-2.97H137.074c-0.609,0.946-1.141,1.939-1.595,2.969
	l118.869,192.909c1.103,0.085,2.207,0.085,3.31,0L376.525,78.723z"/>
<path style="opacity:0.1;enable-background:new    ;" d="M135.479,78.722l118.869,192.909c1.103,0.085,2.207,0.085,3.31,0
	l9.567-15.526L194.883,75.753h-57.809C136.465,76.699,135.933,77.692,135.479,78.722z"/>
<path style="fill:#76B7EB;" d="M298.857,447.313h-85.71c-4.986,0-9.028-4.042-9.028-9.028V405.4c0-4.986,4.042-9.028,9.028-9.028
	h85.71c4.986,0,9.028,4.042,9.028,9.028v32.885C307.885,443.27,303.843,447.313,298.857,447.313z"/>
<path style="opacity:0.15;enable-background:new    ;" d="M213.147,396.371c-4.986,0-9.028,4.042-9.028,9.028v32.885
	c0,4.986,4.042,9.028,9.028,9.028h41.146c-16.435-12.413-21.138-38.662-19.5-50.941H213.147z"/>
<g>
	<path style="fill:#38648C;" d="M394.767,512.002c-3.067,0-5.945-1.895-7.051-4.944l-31.56-86.979l-67.843,9.195
		c-4.092,0.555-7.883-2.32-8.438-6.425c-0.557-4.104,2.319-7.883,6.425-8.439l73.837-10.007c3.494-0.473,6.853,1.555,8.057,4.874
		l33.622,92.665c1.413,3.893-0.598,8.196-4.492,9.608C396.48,511.856,395.616,512.002,394.767,512.002z"/>
	<path style="fill:#38648C;" d="M117.237,512.002c-0.85,0-1.713-0.145-2.558-0.452c-3.894-1.413-5.905-5.715-4.492-9.608
		l33.622-92.665c1.204-3.318,4.553-5.349,8.058-4.874l73.837,10.007c4.105,0.556,6.981,4.335,6.425,8.439s-4.33,6.986-8.44,6.425
		l-67.842-9.195l-31.559,86.979C123.181,510.107,120.303,512.002,117.237,512.002z"/>
</g>
<g style="opacity:0.1;">
	<rect x="224.691" y="352.54" width="62.61" height="15"/>
	<rect x="224.691" y="307.28" width="62.61" height="15"/>
</g>
<g>
</g>
<g>
</g>
<g>
</g>
<g>
</g>
<g>
</g>
<g>
</g>
<g>
</g>
<g>
</g>
<g>
</g>
<g>
</g>
<g>
</g>
<g>
</g>
<g>
</g>
<g>
</g>
<g>
</g>
</svg>
