<?xml version="1.0" encoding="iso-8859-1"?>
<!-- Generator: Adobe Illustrator 19.0.0, SVG Export Plug-In . SVG Version: 6.00 Build 0)  -->
<svg version="1.1" id="Capa_1" xmlns="http://www.w3.org/2000/svg" xmlns:xlink="http://www.w3.org/1999/xlink" x="0px" y="0px"
	 viewBox="0 0 512 512" style="enable-background:new 0 0 512 512;" xml:space="preserve">
<path style="fill:#38648C;" d="M485.463,370.174c-7.089,0-13.753-2.76-18.765-7.772l-10.684-10.684
	c-25.416-25.417-56.773-45.155-90.68-57.081c-25.785-9.069-52.847-13.668-80.435-13.668c-8.695,0-17.446,0.475-26.011,1.412
	c-10.458,1.144-21.14,1.724-31.749,1.724c-33.628,0-66.627-5.609-98.079-16.672c-41.356-14.546-79.6-38.62-110.6-69.62
	L7.773,187.128c-5.012-5.012-7.772-11.676-7.772-18.765c0-7.089,2.76-13.753,7.773-18.765c5.012-5.012,11.676-7.772,18.765-7.772
	s13.753,2.76,18.765,7.772l10.684,10.684c25.416,25.417,56.773,45.155,90.68,57.081c25.785,9.07,52.847,13.668,80.435,13.668
	c8.695,0,17.446-0.475,26.011-1.412c10.458-1.144,21.14-1.724,31.749-1.724c33.629,0,66.628,5.609,98.079,16.672
	c41.356,14.546,79.6,38.62,110.6,69.62l10.685,10.684c5.012,5.013,7.772,11.677,7.772,18.765c0,7.089-2.76,13.753-7.773,18.765
	C499.216,367.414,492.552,370.174,485.463,370.174z"/>
<path style="opacity:0.15;enable-background:new    ;" d="M302.263,261.06c1.181-10.794,1.783-21.665,1.83-32.546
	c-6.382-0.41-12.793-0.619-19.228-0.619c-10.609,0-21.291,0.58-31.749,1.724c-8.565,0.937-17.316,1.412-26.011,1.412
	c-5.394,0-10.766-0.182-16.114-0.533c-0.106,6.834-0.509,13.659-1.251,20.44c-1.181,10.795-1.783,21.665-1.83,32.546
	c6.382,0.41,12.793,0.619,19.228,0.619c10.61,0,21.292-0.58,31.749-1.724c8.565-0.937,17.316-1.412,26.011-1.412
	c5.394,0,10.766,0.182,16.114,0.533C301.118,274.667,301.521,267.842,302.263,261.06z"/>
<path style="fill:#76B7EB;" d="M75.354,211.448c-1.919,0-3.839-0.732-5.303-2.197c-2.929-2.929-2.929-7.678,0-10.607l64.297-64.297
	c2.929-2.929,7.678-2.93,10.606,0c2.929,2.929,2.929,7.678,0,10.606L80.657,209.25C79.193,210.715,77.273,211.448,75.354,211.448z"
	/>
<path style="fill:#7FDBD5;" d="M117.406,232.427c-1.919,0-3.839-0.732-5.303-2.197c-2.929-2.929-2.929-7.678,0-10.607l53.761-53.761
	c2.929-2.929,7.678-2.929,10.606,0c2.929,2.929,2.929,7.678,0,10.606l-53.761,53.761
	C121.245,231.695,119.325,232.427,117.406,232.427z"/>
<path style="fill:#76B7EB;" d="M164.182,248.683c-1.92,0-3.839-0.732-5.303-2.197c-2.929-2.929-2.929-7.678,0-10.606l38.501-38.501
	c2.929-2.929,7.678-2.929,10.607,0s2.929,7.678,0,10.606l-38.501,38.501C168.02,247.95,166.101,248.683,164.182,248.683z"/>
<path style="fill:#7FDBD5;" d="M139.652,147.151c-1.919,0-3.839-0.732-5.303-2.197c-2.929-2.929-2.929-7.678,0-10.606l64.297-64.297
	c2.929-2.929,7.678-2.929,10.607,0s2.929,7.678,0,10.606l-64.297,64.297C143.491,146.419,141.571,147.151,139.652,147.151z"/>
<path style="fill:#F28B74;" d="M171.167,178.666c-1.919,0-3.839-0.732-5.303-2.197c-2.929-2.929-2.929-7.678,0-10.606l53.761-53.761
	c2.929-2.929,7.678-2.929,10.606,0c2.929,2.929,2.929,7.678,0,10.606l-53.761,53.761
	C175.006,177.934,173.086,178.666,171.167,178.666z"/>
<path style="fill:#287D99;" d="M202.683,210.182c-1.919,0-3.839-0.732-5.303-2.197c-2.929-2.929-2.929-7.678,0-10.606l38.501-38.501
	c2.929-2.929,7.678-2.929,10.606,0c2.929,2.929,2.929,7.678,0,10.607l-38.501,38.501
	C206.521,209.449,204.602,210.182,202.683,210.182z"/>
<path style="fill:#F28B74;" d="M404.625,412.124c-1.919,0-3.839-0.732-5.303-2.197c-2.929-2.929-2.929-7.678,0-10.606l67.516-67.516
	c2.929-2.929,7.678-2.93,10.607,0c2.929,2.929,2.929,7.678,0,10.606l-67.516,67.516
	C408.464,411.392,406.544,412.124,404.625,412.124z"/>
<path style="fill:#76B7EB;" d="M373.109,380.608c-1.919,0-3.839-0.732-5.303-2.197c-2.929-2.929-2.929-7.678,0-10.606l64.297-64.297
	c2.929-2.929,7.678-2.93,10.607,0c2.929,2.929,2.929,7.678,0,10.606l-64.297,64.297
	C376.948,379.876,375.028,380.608,373.109,380.608z"/>
<path style="fill:#7FDBD5;" d="M341.594,349.093c-1.919,0-3.839-0.732-5.303-2.197c-2.929-2.929-2.929-7.678,0-10.607l53.761-53.761
	c2.929-2.929,7.678-2.929,10.606,0c2.929,2.929,2.929,7.678,0,10.607l-53.761,53.761
	C345.433,348.361,343.514,349.093,341.594,349.093z"/>
<path style="fill:#76B7EB;" d="M310.079,317.578c-1.919,0-3.839-0.732-5.303-2.197c-2.929-2.929-2.929-7.678,0-10.606l38.501-38.501
	c2.929-2.929,7.678-2.929,10.606,0c2.929,2.929,2.929,7.678,0,10.607l-38.501,38.501
	C313.917,316.845,311.998,317.578,310.079,317.578z"/>
<path style="fill:#38648C;" d="M337.109,479.64c-1.919,0-3.839-0.732-5.303-2.197c-2.929-2.929-2.929-7.678,0-10.606l67.516-67.516
	c2.929-2.929,7.678-2.929,10.606,0c2.929,2.929,2.929,7.678,0,10.606l-67.516,67.516C340.948,478.908,339.029,479.64,337.109,479.64
	z"/>
<path style="fill:#7FDBD5;" d="M308.812,444.906c-1.919,0-3.839-0.732-5.303-2.197c-2.929-2.929-2.929-7.678,0-10.607l64.297-64.297
	c2.929-2.929,7.678-2.929,10.606,0c2.929,2.929,2.929,7.678,0,10.606l-64.297,64.297
	C312.651,444.173,310.732,444.906,308.812,444.906z"/>
<path style="fill:#F28B74;" d="M287.833,402.854c-1.919,0-3.839-0.732-5.303-2.197c-2.929-2.929-2.929-7.678,0-10.606l53.761-53.761
	c2.929-2.929,7.678-2.929,10.606,0c2.929,2.929,2.929,7.678,0,10.607l-53.761,53.761
	C291.672,402.122,289.752,402.854,287.833,402.854z"/>
<path style="fill:#287D99;" d="M271.578,356.079c-1.919,0-3.839-0.732-5.303-2.197c-2.929-2.929-2.929-7.678,0-10.606l38.501-38.501
	c2.929-2.929,7.678-2.929,10.607,0c2.929,2.929,2.929,7.678,0,10.606l-38.501,38.501
	C275.416,355.346,273.497,356.079,271.578,356.079z"/>
<path style="fill:#76B7EB;" d="M343.638,512c-7.089,0-13.753-2.76-18.765-7.772l-10.684-10.684
	c-30.999-31-55.073-69.245-69.619-110.6c-14.546-41.355-19.715-86.249-14.948-129.829c3.909-35.73-0.329-72.538-12.256-106.447
	c-11.926-33.907-31.664-65.264-57.081-90.68l-10.684-10.685c-10.347-10.347-10.347-27.183,0-37.53C154.611,2.76,161.276,0,168.364,0
	c7.089,0,13.753,2.76,18.765,7.772l10.684,10.685c30.999,31,55.073,69.245,69.62,110.6c14.546,41.355,19.715,86.249,14.948,129.829
	c-3.909,35.73,0.329,72.538,12.256,106.447c11.926,33.907,31.664,65.264,57.081,90.68l10.684,10.685
	c10.347,10.347,10.347,27.183,0,37.53C357.39,509.24,350.726,512,343.638,512z"/>
<path style="opacity:0.1;enable-background:new    ;" d="M231.556,331.328c2.778,17.57,7.127,34.882,13.013,51.615
	c14.546,41.356,38.62,79.6,69.619,110.6l10.684,10.684c5.013,5.012,11.677,7.772,18.765,7.772c7.088,0,13.753-2.76,18.765-7.772
	c0.317-0.317,0.624-0.641,0.921-0.97C327.368,504.206,254.512,406.915,231.556,331.328z"/>
<g>
	
		<ellipse transform="matrix(-0.7071 -0.7071 0.7071 -0.7071 29.4265 309.4766)" style="fill:#F28B74;" cx="78.808" cy="148.644" rx="14.512" ry="18.223"/>
	
		<ellipse transform="matrix(0.7071 0.7071 -0.7071 0.7071 99.2604 -82.034)" style="fill:#F28B74;" cx="148.654" cy="78.801" rx="14.512" ry="18.223"/>
</g>
<g>
	<path style="fill:#495059;" d="M76.079,138.404c-1.919,0-3.839-0.732-5.303-2.197l-4.55-4.55c-2.929-2.929-2.929-7.678,0-10.606
		c2.929-2.929,7.678-2.929,10.606,0l4.55,4.55c2.929,2.929,2.929,7.678,0,10.606C79.918,137.671,77.999,138.404,76.079,138.404z"/>
	<path style="fill:#495059;" d="M130.905,83.578c-1.919,0-3.839-0.732-5.303-2.197l-4.55-4.55c-2.929-2.929-2.929-7.678,0-10.606
		c2.929-2.929,7.678-2.929,10.606,0l4.55,4.55c2.929,2.929,2.929,7.678,0,10.606C134.744,82.846,132.824,83.578,130.905,83.578z"/>
	<path style="fill:#495059;" d="M97.401,118.452c-0.482,0-0.965-0.017-1.449-0.05c-4.132-0.284-7.252-3.864-6.968-7.996
		c0.284-4.132,3.854-7.24,7.997-6.968c1.745,0.118,3.467-0.52,4.703-1.755c1.236-1.236,1.876-2.95,1.755-4.703
		c-0.284-4.132,2.836-7.712,6.968-7.997c4.127-0.27,7.712,2.836,7.996,6.968c0.418,6.08-1.811,12.035-6.114,16.337
		C108.33,116.249,102.969,118.452,97.401,118.452z"/>
</g>
<g>
</g>
<g>
</g>
<g>
</g>
<g>
</g>
<g>
</g>
<g>
</g>
<g>
</g>
<g>
</g>
<g>
</g>
<g>
</g>
<g>
</g>
<g>
</g>
<g>
</g>
<g>
</g>
<g>
</g>
</svg>
