<?xml version="1.0" encoding="iso-8859-1"?>
<!-- Generator: Adobe Illustrator 19.0.0, SVG Export Plug-In . SVG Version: 6.00 Build 0)  -->
<svg version="1.1" id="Capa_1" xmlns="http://www.w3.org/2000/svg" xmlns:xlink="http://www.w3.org/1999/xlink" x="0px" y="0px"
	 viewBox="0 0 512 512" style="enable-background:new 0 0 512 512;" xml:space="preserve">
<path style="fill:#F5D7B7;" d="M308.029,31.462c-5.35,0-10.48,2.125-14.263,5.908L30.942,300.194
	c-41.256,41.256-41.256,108.146,0,149.402l0,0c41.256,41.256,108.146,41.257,149.403,0l300.717-300.717
	c29.328-29.328,37.802-71.607,25.434-108.424c-1.809-5.386-6.889-8.993-12.571-8.993C493.925,31.462,308.029,31.462,308.029,31.462z
	"/>
<g style="opacity:0.1;">
	<circle cx="103.25" cy="289.22" r="7.483"/>
	<circle cx="191.32" cy="377.29" r="7.483"/>
	<circle cx="147.28" cy="333.25" r="7.483"/>
	<circle cx="53.24" cy="339.23" r="7.483"/>
	<circle cx="141.31" cy="427.3" r="7.483"/>
	<circle cx="97.28" cy="383.26" r="7.483"/>
</g>
<g style="opacity:0.1;">
	<circle cx="320.68" cy="71.784" r="7.483"/>
	<circle cx="408.75" cy="159.85" r="7.483"/>
	<circle cx="364.72" cy="115.82" r="7.483"/>
	<circle cx="458.76" cy="109.84" r="7.483"/>
</g>
<path style="fill:#F28B74;" d="M357.773,171.368l-48.603-48.603c-14.051-14.051-36.833-14.051-50.884,0L154.231,226.82
	c-14.051,14.051-14.051,36.833,0,50.884l48.603,48.603c14.051,14.051,36.833,14.051,50.884,0l104.055-104.055
	C371.824,208.201,371.824,185.42,357.773,171.368z"/>
<g>
	
		<ellipse transform="matrix(-0.7071 -0.7071 0.7071 -0.7071 182.3178 633.8936)" style="fill:#FFFFFF;" cx="222.443" cy="279.188" rx="18.328" ry="23.02"/>
	
		<ellipse transform="matrix(0.7071 0.7071 -0.7071 0.7071 226.0285 -163.7305)" style="fill:#FFFFFF;" cx="310.654" cy="190.975" rx="18.328" ry="23.02"/>
</g>
<g>
	<path style="fill:#495059;" d="M218.996,264.272c-1.919,0-3.839-0.732-5.303-2.196l-5.747-5.747
		c-2.93-2.929-2.93-7.678-0.001-10.607c2.93-2.929,7.679-2.929,10.607-0.001l5.747,5.747c2.93,2.929,2.93,7.678,0.001,10.607
		C222.835,263.539,220.915,264.272,218.996,264.272z"/>
	<path style="fill:#495059;" d="M288.237,195.03c-1.919,0-3.839-0.732-5.304-2.197l-5.747-5.747c-2.929-2.929-2.929-7.678,0-10.606
		c2.93-2.929,7.678-2.929,10.607,0l5.747,5.747c2.929,2.929,2.929,7.678,0,10.606C292.076,194.298,290.156,195.03,288.237,195.03z"
		/>
	<path style="fill:#495059;" d="M245.923,239.074c-0.564,0-1.127-0.02-1.693-0.058c-4.132-0.284-7.252-3.864-6.969-7.996
		c0.283-4.133,3.861-7.251,7.996-6.969c2.779,0.188,5.504-0.826,7.469-2.79c1.965-1.964,2.982-4.687,2.791-7.469
		c-0.283-4.132,2.836-7.712,6.969-7.996c4.133-0.279,7.712,2.835,7.996,6.969c0.488,7.109-2.118,14.072-7.148,19.103
		C258.702,236.498,252.435,239.074,245.923,239.074z"/>
</g>
<path style="opacity:0.05;enable-background:new    ;" d="M293.767,37.369c11.162,8.68,38.665,69.69,89.17,70.966
	c59.719,1.509,97.073-26.592,111.293-60.941L293.767,37.369z"/>
<path style="fill:#F28B74;" d="M501.797,34.043c-2.232-1.637-4.972-2.581-7.872-2.581H308.029c-5.35,0-10.48,2.125-14.263,5.908
	c7.452-0.102,14.629,2.813,19.899,8.083l17.994,17.994c41.256,41.256,108.146,41.256,149.402,0
	C489.859,54.649,496.752,44.675,501.797,34.043z"/>
<path style="opacity:0.1;enable-background:new    ;" d="M109.78,221.356l-78.838,78.838c-41.256,41.256-41.256,108.146,0,149.403
	c41.256,41.256,108.146,41.256,149.402,0L335.29,294.651C257,321.597,161.213,288.334,109.78,221.356z"/>
<g>
</g>
<g>
</g>
<g>
</g>
<g>
</g>
<g>
</g>
<g>
</g>
<g>
</g>
<g>
</g>
<g>
</g>
<g>
</g>
<g>
</g>
<g>
</g>
<g>
</g>
<g>
</g>
<g>
</g>
</svg>
