<?xml version="1.0" encoding="iso-8859-1"?>
<!-- Generator: Adobe Illustrator 19.0.0, SVG Export Plug-In . SVG Version: 6.00 Build 0)  -->
<svg version="1.1" id="Capa_1" xmlns="http://www.w3.org/2000/svg" xmlns:xlink="http://www.w3.org/1999/xlink" x="0px" y="0px"
	 viewBox="0 0 512 512" style="enable-background:new 0 0 512 512;" xml:space="preserve">
<path style="fill:#BDC0C3;" d="M7.5,512c-1.919,0-3.839-0.732-5.303-2.197c-2.929-2.929-2.929-7.678,0-10.606l81.977-81.977
	c2.929-2.929,7.678-2.929,10.606,0c2.929,2.929,2.929,7.678,0,10.607l-81.977,81.977C11.339,511.268,9.419,512,7.5,512z"/>
<rect x="379.102" y="65.469" transform="matrix(0.7071 0.7071 -0.7071 0.7071 194.533 -254.4366)" style="fill:#B3E7FF;" width="50.592" height="84.269"/>
<rect x="400.259" y="74.237" transform="matrix(0.7071 0.7071 -0.7071 0.7071 185.7737 -275.5912)" style="opacity:0.15;enable-background:new    ;" width="50.592" height="24.432"/>
<path style="fill:#76B7EB;" d="M404.282,2.91L509.09,107.718c3.88,3.88,3.88,10.171,0,14.051l-8.444,8.444
	c-3.88,3.88-10.171,3.88-14.051,0L381.787,25.405c-3.88-3.88-3.88-10.171,0-14.051l8.444-8.444
	C394.111-0.97,400.402-0.97,404.282,2.91z"/>
<path style="fill:#B3E7FF;" d="M279.049,114.092l118.859,118.859L205.974,424.885c-11.113,11.113-29.13,11.113-40.242,0
	l-78.617-78.617c-11.113-11.112-11.113-29.129,0-40.242L279.049,114.092z"/>
<path style="fill:#7FDBD5;" d="M216.721,176.42L335.58,295.279L205.974,424.885c-11.113,11.113-29.13,11.113-40.242,0
	l-78.617-78.617c-11.113-11.112-11.113-29.129,0-40.242L216.721,176.42z"/>
<path style="fill:#76B7EB;" d="M299.112,61.912l150.976,150.976c5.719,5.719,5.719,14.99,0,20.709l-15.412,15.412
	c-5.719,5.719-14.99,5.719-20.709,0L262.991,98.033c-5.719-5.719-5.719-14.99,0-20.709l15.412-15.412
	C284.122,56.194,293.393,56.194,299.112,61.912z"/>
<path style="opacity:0.15;enable-background:new    ;" d="M326.414,89.214l-27.302-27.302c-5.719-5.718-14.99-5.718-20.709,0
	l-15.412,15.412c-5.719,5.718-5.719,14.99,0,20.709l57.815,57.815C305.429,127.316,315.313,97.139,326.414,89.214z"/>
<path style="fill:#B3E7FF;" d="M68.542,401.588l41.87,41.87c8.173,8.173,21.424,8.173,29.597,0l22.148-22.148L90.69,349.843
	l-22.148,22.148C60.369,380.164,60.369,393.415,68.542,401.588z"/>
<g>
	<path style="fill:#495059;" d="M183.005,375.608c-1.919,0-3.839-0.732-5.303-2.197c-2.929-2.929-2.929-7.678,0-10.606
		l138.006-138.006c2.93-2.929,7.678-2.929,10.607,0s2.929,7.678,0,10.607L188.308,373.412
		C186.843,374.876,184.924,375.608,183.005,375.608z"/>
	<path style="fill:#495059;" d="M221.348,275.946c-1.919,0-3.839-0.732-5.303-2.197l-20.475-20.475
		c-2.929-2.929-2.929-7.678,0-10.606c2.929-2.929,7.678-2.929,10.606,0l20.475,20.475c2.929,2.929,2.929,7.678,0,10.606
		C225.187,275.213,223.267,275.946,221.348,275.946z"/>
	<path style="fill:#495059;" d="M177.648,319.645c-1.919,0-3.839-0.732-5.303-2.197l-20.475-20.475
		c-2.929-2.929-2.929-7.678,0-10.606c2.929-2.929,7.678-2.929,10.607,0l20.475,20.475c2.929,2.929,2.929,7.678,0,10.606
		C181.487,318.913,179.568,319.645,177.648,319.645z"/>
	<path style="fill:#495059;" d="M265.047,232.246c-1.919,0-3.839-0.732-5.304-2.197l-20.474-20.475
		c-2.929-2.929-2.929-7.678,0-10.606c2.929-2.929,7.678-2.929,10.606,0l20.475,20.475c2.929,2.929,2.929,7.678,0,10.606
		C268.886,231.514,266.966,232.246,265.047,232.246z"/>
</g>
<path style="opacity:0.15;enable-background:new    ;" d="M211.614,181.527L87.115,306.026c-11.113,11.113-11.113,29.13,0,40.242
	l78.617,78.617c11.113,11.113,29.13,11.113,40.242,0l53.476-53.477C211.11,346,200,270,211.614,181.527z"/>
<g style="opacity:0.1;">
	<circle cx="292.56" cy="306.59" r="7.482"/>
	<circle cx="244.53" cy="256" r="7.482"/>
	<circle cx="184.34" cy="402.85" r="7.482"/>
	<circle cx="126.48" cy="320.46" r="7.482"/>
</g>
<path style="opacity:0.15;enable-background:new    ;" d="M417.906,61.524c-3.759-15.891,1.215-31.87,6.93-38.06L404.282,2.91
	c-3.88-3.88-10.171-3.88-14.051,0l-8.444,8.444c-3.88,3.88-3.88,10.171,0,14.051L417.906,61.524z"/>
<rect x="66.098" y="381.523" transform="matrix(0.7071 0.7071 -0.7071 0.7071 313.7341 33.3313)" style="opacity:0.1;enable-background:new    ;" width="101.069" height="27.706"/>
<g>
</g>
<g>
</g>
<g>
</g>
<g>
</g>
<g>
</g>
<g>
</g>
<g>
</g>
<g>
</g>
<g>
</g>
<g>
</g>
<g>
</g>
<g>
</g>
<g>
</g>
<g>
</g>
<g>
</g>
</svg>
