<?xml version="1.0" encoding="iso-8859-1"?>
<!-- Generator: Adobe Illustrator 19.0.0, SVG Export Plug-In . SVG Version: 6.00 Build 0)  -->
<svg version="1.1" id="Capa_1" xmlns="http://www.w3.org/2000/svg" xmlns:xlink="http://www.w3.org/1999/xlink" x="0px" y="0px"
	 viewBox="0 0 512 512" style="enable-background:new 0 0 512 512;" xml:space="preserve">
<path style="fill:#E8E9EA;" d="M18.129,374.625V22.899C18.129,10.252,28.381,0,41.027,0h429.945
	c12.647,0,22.899,10.252,22.899,22.899v351.726c0,12.647-10.252,22.899-22.899,22.899H41.027
	C28.381,397.524,18.129,387.272,18.129,374.625z"/>
<g>
	<path style="fill:#495059;" d="M442.244,352.65H69.756c-7.277,0-13.177-5.9-13.177-13.177V81.594c0-7.278,5.9-13.177,13.177-13.177
		h372.488c7.277,0,13.177,5.9,13.177,13.177v257.878C455.421,346.75,449.522,352.65,442.244,352.65z"/>
	<path style="fill:#495059;" d="M290.639,41.708h-69.278c-4.142,0-7.5-3.358-7.5-7.5s3.358-7.5,7.5-7.5h69.278
		c4.142,0,7.5,3.358,7.5,7.5S294.781,41.708,290.639,41.708z"/>
</g>
<path style="fill:#E8E9EA;" d="M473.344,512H38.656c-11.337,0-20.527-9.19-20.527-20.527v-32.66c0-11.337,9.19-20.527,20.527-20.527
	h434.688c11.337,0,20.527,9.19,20.527,20.527v32.66C493.871,502.81,484.681,512,473.344,512z"/>
<path style="fill:#76B7EB;" d="M455.941,397.524c-11.256,0-20.381,9.125-20.381,20.381s9.125,20.381,20.381,20.381H56.059
	c11.256,0,20.381-9.125,20.381-20.381s-9.125-20.381-20.381-20.381H455.941z"/>
<path style="opacity:0.1;enable-background:new    ;" d="M189.023,397.524H56.059c11.256,0,20.381,9.125,20.381,20.381
	s-9.125,20.381-20.381,20.381h153.524C183.829,428.603,179.589,409.094,189.023,397.524z"/>
<g>
	<path style="fill:#76B7EB;" d="M265.901,463.613h-32.848c-4.924,0-8.916,3.992-8.916,8.916v5.226c0,4.924,3.992,8.916,8.916,8.916
		h32.848c4.924,0,8.916-3.992,8.916-8.916v-5.226C274.817,467.605,270.825,463.613,265.901,463.613z"/>
	<path style="fill:#76B7EB;" d="M179.931,463.313h-32.848c-4.924,0-8.916,3.992-8.916,8.917v5.226c0,4.924,3.992,8.917,8.916,8.917
		h32.848c4.924,0,8.916-3.992,8.916-8.917v-5.226C188.848,467.305,184.856,463.313,179.931,463.313z"/>
	<path style="fill:#76B7EB;" d="M319.023,463.313h32.848c4.924,0,8.916,3.992,8.916,8.917v5.226c0,4.924-3.992,8.917-8.916,8.917
		h-32.848c-4.924,0-8.916-3.992-8.916-8.917v-5.226C310.106,467.305,314.098,463.313,319.023,463.313z"/>
</g>
<circle style="fill:#F28B74;" cx="422.02" cy="475.14" r="16.322"/>
<g>
	<path style="fill:#7FDBD5;" d="M102.278,482.643H73.661c-4.142,0-7.5-3.358-7.5-7.5s3.358-7.5,7.5-7.5h28.617
		c4.142,0,7.5,3.358,7.5,7.5S106.42,482.643,102.278,482.643z"/>
	<path style="fill:#7FDBD5;" d="M169.587,309.191c-0.098,0-0.197-0.002-0.295-0.006c-3.103-0.122-5.81-2.143-6.808-5.083
		l-22.085-65.071l-12.223,27.123c-1.212,2.689-3.888,4.419-6.838,4.419H88.385c-4.142,0-7.5-3.358-7.5-7.5s3.358-7.5,7.5-7.5h28.106
		l18.053-40.062c1.266-2.809,4.13-4.561,7.198-4.41c3.078,0.148,5.751,2.163,6.742,5.081l21.922,64.591l19.974-46.514
		c1.142-2.66,3.713-4.425,6.605-4.535c2.892-0.098,5.59,1.454,6.932,4.019l17.124,32.736l25.21-57.351
		c1.215-2.766,4.02-4.513,6.991-4.481c3.021,0.051,5.715,1.908,6.838,4.712l21.009,52.502l5.891-9.038
		c1.384-2.124,3.748-3.405,6.283-3.405h24.693c4.142,0,7.5,3.358,7.5,7.5s-3.358,7.5-7.5,7.5h-20.629l-11.554,17.728
		c-1.528,2.345-4.233,3.648-7.021,3.369c-2.786-0.275-5.186-2.079-6.226-4.677l-19.734-49.316L228.493,286.8
		c-1.16,2.639-3.73,4.38-6.612,4.478c-2.899,0.091-5.564-1.465-6.899-4.02l-17.044-32.584l-21.461,49.977
		C175.29,307.413,172.575,309.191,169.587,309.191z"/>
	<path style="fill:#7FDBD5;" d="M384.163,223.652c-8.634-8.634-22.57-8.735-31.328-0.303c-9.035,8.699-8.821,23.427,0.047,32.296
		l25.027,25.027c3.454,3.454,9.053,3.454,12.506,0l25.027-25.027c8.868-8.868,9.082-23.597,0.047-32.296
		C406.732,214.917,392.796,215.018,384.163,223.652z"/>
</g>
<g>
	<ellipse style="fill:#F28B74;" cx="180.18" cy="157.21" rx="27.976" ry="22.279"/>
	<ellipse style="fill:#F28B74;" cx="331.82" cy="157.21" rx="27.976" ry="22.279"/>
</g>
<g>
	<path style="fill:#FFFFFF;" d="M196.484,142.488c-4.142,0-7.5-3.358-7.5-7.5v-9.879c0-4.142,3.358-7.5,7.5-7.5s7.5,3.358,7.5,7.5
		v9.879C203.984,139.13,200.626,142.488,196.484,142.488z"/>
	<path style="fill:#FFFFFF;" d="M315.516,142.488c-4.142,0-7.5-3.358-7.5-7.5v-9.879c0-4.142,3.358-7.5,7.5-7.5s7.5,3.358,7.5,7.5
		v9.879C323.016,139.13,319.658,142.488,315.516,142.488z"/>
	<path style="fill:#FFFFFF;" d="M256,150.075c-8.181,0-15.961-3.543-21.345-9.721c-2.721-3.123-2.396-7.86,0.727-10.582
		c3.123-2.721,7.86-2.396,10.582,0.727c2.534,2.908,6.192,4.576,10.037,4.576c3.844,0,7.502-1.668,10.037-4.576
		c2.721-3.123,7.458-3.447,10.582-0.727c3.122,2.722,3.448,7.459,0.727,10.582C271.961,146.532,264.181,150.075,256,150.075z"/>
</g>
<path style="opacity:0.1;enable-background:new    ;" d="M132.412,0H41.028C28.381,0,18.129,10.252,18.129,22.899v351.726
	c0,12.647,10.252,22.899,22.899,22.899H226.79C130.982,289.956,116.058,72.986,132.412,0z"/>
<path style="opacity:0.1;enable-background:new    ;" d="M38.656,438.285c-11.337,0-20.527,9.19-20.527,20.527v32.66
	c0,11.337,9.19,20.527,20.527,20.527h219.127c-14.966-10.865-31.822-43.302-26.801-73.715L38.656,438.285L38.656,438.285z"/>
<g>
</g>
<g>
</g>
<g>
</g>
<g>
</g>
<g>
</g>
<g>
</g>
<g>
</g>
<g>
</g>
<g>
</g>
<g>
</g>
<g>
</g>
<g>
</g>
<g>
</g>
<g>
</g>
<g>
</g>
</svg>
