<?xml version="1.0" encoding="iso-8859-1"?>
<!-- Generator: Adobe Illustrator 19.0.0, SVG Export Plug-In . SVG Version: 6.00 Build 0)  -->
<svg xmlns="http://www.w3.org/2000/svg" xmlns:xlink="http://www.w3.org/1999/xlink" version="1.1" id="Layer_1" x="0px" y="0px" viewBox="0 0 512 512" style="enable-background:new 0 0 512 512;" xml:space="preserve">
<path style="fill:#91E1F5;" d="M308.967,512H203.035c-4.875,0-8.828-3.952-8.828-8.828v-61.793h123.586v61.793  C317.794,508.048,313.842,512,308.967,512z"/>
<g>
	<rect x="247.171" y="467.86" style="fill:#00C3FF;" width="17.655" height="44.14"/>
	<path style="fill:#00C3FF;" d="M194.208,441.379v61.793c0,4.875,3.952,8.828,8.828,8.828h8.828v-70.621H194.208z"/>
</g>
<path style="fill:#FAD7A5;" d="M346.205,266.665l-53.237-23.661c-6.376-2.834-10.485-9.156-10.485-16.133v-23.837h-52.966v23.837  c0,6.977-4.109,13.3-10.485,16.133l-53.237,23.661c-9.564,4.251-15.727,13.734-15.727,24.2v26.928c0,4.875,3.952,8.828,8.828,8.828  h194.207c4.876,0,8.828-3.953,8.828-8.828v-26.928C361.932,280.4,355.769,270.916,346.205,266.665z"/>
<path style="fill:#B4E66E;" d="M346.205,266.665l-42.89-19.063c-8.303,12.565-25.244,34.511-47.315,43.707  c-22.071-9.196-39.011-31.143-47.315-43.707l-42.89,19.063c-9.564,4.251-15.727,13.734-15.727,24.2v26.928  c0,4.875,3.952,8.828,8.828,8.828h17.655c0,0,0,85.289,0,88.276c0,43.878,35.57,79.448,79.448,79.448s79.448-35.571,79.448-79.448  c0-2.987,0-88.276,0-88.276h17.655c4.876,0,8.828-3.953,8.828-8.828v-26.928C361.932,280.4,355.769,270.916,346.205,266.665z"/>
<path style="fill:#A0D755;" d="M220.691,414.897c0-12.702,3.057-24.663,8.356-35.31h-52.494c0,18.031,0,34.047,0,35.31  c0,43.878,35.57,79.448,79.448,79.448c7.666,0,15.055-1.145,22.069-3.171C244.941,481.602,220.691,451.108,220.691,414.897z"/>
<path style="fill:#F0C891;" d="M229.518,224.724c7.577,2.814,15.648,4.504,24.052,4.756c0.81,0.024,1.625,0.037,2.431,0.037  c9.296,0,18.185-1.688,26.483-4.635v-21.848h-52.966V224.724z"/>
<path style="fill:#D59F63;" d="M294.732,45.422c3.337-4.348,5.407-9.244,5.407-14.526C300.139,13.833,280.378,0,256.001,0  s-44.138,13.833-44.138,30.897c0,5.282,2.07,10.178,5.407,14.526c-24.281,13.593-40.717,39.531-40.717,69.336v17.655  c0,19.501,15.809,35.31,35.31,35.31h88.276c19.502,0,35.31-15.809,35.31-35.31v-17.655  C335.449,84.953,319.013,59.016,294.732,45.422z"/>
<path style="fill:#CD915A;" d="M220.691,132.414v-17.655c0-36.212,24.251-66.705,57.379-76.277  c-7.014-2.026-14.402-3.171-22.069-3.171c-5.848,0-11.531,0.675-17.019,1.873c-0.374-2.051-0.636-4.136-0.636-6.287  c0-12.515,6.559-23.541,16.609-30.823c-23.881,0.398-43.092,14.01-43.092,30.823c0,5.294,1.981,10.226,5.367,14.55  c-24.258,13.6-40.677,39.523-40.677,69.312v17.655c0,19.501,15.809,35.31,35.31,35.31h44.138  C236.499,167.724,220.691,151.915,220.691,132.414z"/>
<path style="fill:#FFE1B4;" d="M273.656,114.759c-22.749-4.55-38.016-10.472-46.097-14.169c-3.869-1.77-8.376-0.365-10.818,3.12  c-6.113,8.727-13.947,14.58-18.584,17.56c-2.496,1.604-3.949,4.386-3.949,7.352v18.857c0,33.835,26.072,63.34,59.892,64.356  c34.995,1.05,63.694-27.006,63.694-61.764v-8.828C317.794,132.414,317.794,123.586,273.656,114.759z"/>
<path style="fill:#FAD7A5;" d="M229.518,150.069v-48.617c-0.664-0.291-1.372-0.594-1.959-0.863c-3.869-1.77-8.377-0.365-10.818,3.12  c-6.113,8.727-13.947,14.58-18.584,17.56c-2.496,1.603-3.949,4.385-3.949,7.352v18.857c0,33.835,26.072,63.34,59.892,64.356  c6.818,0.205,13.383-0.725,19.557-2.564C248.138,201.669,229.518,178.057,229.518,150.069z"/>
<g>
	<path style="fill:#64463C;" d="M229.518,154.483c-4.879,0-8.828-3.953-8.828-8.828v-4.414c0-4.875,3.948-8.828,8.828-8.828   c4.879,0,8.828,3.953,8.828,8.828v4.414C238.346,150.53,234.398,154.483,229.518,154.483z"/>
	<path style="fill:#64463C;" d="M282.484,154.483c-4.879,0-8.828-3.953-8.828-8.828v-4.414c0-4.875,3.948-8.828,8.828-8.828   s8.828,3.953,8.828,8.828v4.414C291.311,150.53,287.363,154.483,282.484,154.483z"/>
</g>
<path style="fill:#D7AF7D;" d="M256.001,190.526c-8.733,0-16.552-2.819-21.457-7.741c-3.44-3.448-3.44-9.043,0.017-12.483  c3.448-3.44,9.034-3.44,12.483,0.017c1.026,1.026,4.25,2.552,8.957,2.552c4.707,0,7.931-1.526,8.957-2.552  c3.448-3.457,9.034-3.457,12.483-0.017c3.457,3.44,3.457,9.034,0.017,12.483C272.553,187.707,264.734,190.526,256.001,190.526z"/>
<g>
	<path style="fill:#FAD7A5;" d="M233.932,353.103c-7.197,0-13.527,3.497-17.555,8.828h-22.169v-35.31h-35.31v56.042   c0,11.73,11.227,20.198,22.505,16.976l35.797-10.227c5.343,6.272,14.005,9.629,23.397,6.838c7.05-2.095,12.731-7.954,14.61-15.065   C259.111,366.408,248.076,353.103,233.932,353.103z"/>
	<path style="fill:#FAD7A5;" d="M317.794,326.621v35.31h-22.169c-4.029-5.33-10.359-8.828-17.555-8.828   c-14.144,0-25.179,13.304-21.275,28.081c1.879,7.111,7.56,12.969,14.61,15.065c9.392,2.791,18.054-0.566,23.397-6.838   l35.797,10.227c11.279,3.223,22.505-5.246,22.505-16.976V326.62h-35.31V326.621z"/>
</g>
<g>
	<path style="fill:#A0D755;" d="M194.208,326.621v-17.397c0-5.702-2.754-11.053-7.393-14.367l-30.113-21.509   c-4.188,4.748-6.632,10.935-6.632,17.517v26.928c0,4.875,3.952,8.828,8.828,8.828h17.655H194.208z"/>
	<path style="fill:#A0D755;" d="M317.794,326.621v-17.397c0-5.702,2.754-11.053,7.393-14.367l30.113-21.509   c4.188,4.748,6.632,10.935,6.632,17.517v26.928c0,4.875-3.952,8.828-8.828,8.828h-17.655H317.794z"/>
	<path style="fill:#A0D755;" d="M303.316,247.603c-8.303,12.565-25.244,34.511-47.315,43.707   c-22.071-9.196-39.011-31.143-47.315-43.707l-16.742,7.441c9.481,13.711,31.711,42.483,57.574,52.689   c2.086,0.819,4.284,1.233,6.483,1.233c2.199,0,4.397-0.414,6.483-1.233c25.864-10.205,48.094-38.978,57.574-52.689L303.316,247.603   z"/>
</g>
<g>
</g>
<g>
</g>
<g>
</g>
<g>
</g>
<g>
</g>
<g>
</g>
<g>
</g>
<g>
</g>
<g>
</g>
<g>
</g>
<g>
</g>
<g>
</g>
<g>
</g>
<g>
</g>
<g>
</g>
</svg>
