<?xml version="1.0" encoding="iso-8859-1"?>
<!-- Generator: Adobe Illustrator 19.0.0, SVG Export Plug-In . SVG Version: 6.00 Build 0)  -->
<svg xmlns="http://www.w3.org/2000/svg" xmlns:xlink="http://www.w3.org/1999/xlink" version="1.1" id="Layer_1" x="0px" y="0px" viewBox="0 0 512.001 512.001" style="enable-background:new 0 0 512.001 512.001;" xml:space="preserve">
<path style="fill:#5B5D6E;" d="M411.421,484.571c-1.768,0-3.554-0.509-5.134-1.58L177.714,327.563  c-4.17-2.839-5.259-8.527-2.42-12.705c2.839-4.161,8.518-5.259,12.705-2.42L416.57,467.867c4.17,2.839,5.259,8.527,2.42,12.705  C417.223,483.17,414.348,484.571,411.421,484.571z"/>
<polygon style="fill:#464655;" points="308.831,416.722 325.095,405.662 276.313,372.489 260.048,383.549 "/>
<path style="fill:#5B5D6E;" d="M173.723,484.571c-2.929,0-5.804-1.402-7.571-4c-2.839-4.179-1.75-9.866,2.42-12.705l228.571-155.429  c4.179-2.848,9.866-1.75,12.705,2.42c2.839,4.179,1.75,9.866-2.42,12.705L178.857,482.991  C177.286,484.063,175.491,484.571,173.723,484.571z"/>
<path style="fill:#FFDC64;" d="M329.143,0H320c-10.099,0-18.286,8.187-18.286,18.286v164.571H512C512,81.868,430.132,0,329.143,0z"/>
<g>
	<path style="fill:#FFC850;" d="M454.464,75.821c-3.571-3.571-9.357-3.571-12.929,0l-84.964,84.964V36.571   c0-5.05-4.093-9.143-9.143-9.143c-5.05,0-9.143,4.093-9.143,9.143v146.286c0,2.339,0.893,4.679,2.679,6.464   c1.786,1.786,4.125,2.679,6.464,2.679s4.679-0.893,6.464-2.679L454.464,88.75C458.036,85.179,458.036,79.393,454.464,75.821z"/>
	<path style="fill:#FFC850;" d="M335.235,0.307C333.195,0.24,331.201,0,329.143,0H320c-10.099,0-18.286,8.186-18.286,18.286v164.571   H320V18.286C320,9.232,326.597,1.766,335.235,0.307z"/>
</g>
<path style="fill:#FF507D;" d="M437.216,329.143h-280.45c-27.993,0-52.737-18.192-61.087-44.91L64,182.857h448l-11.278,90.224  C496.719,305.109,469.493,329.143,437.216,329.143z"/>
<path style="fill:#AFB9D2;" d="M63.448,119.821c-3.589-11.513-14.116-19.25-26.179-19.25H9.573v18.286H37.27  c4.027,0,7.527,2.576,8.732,6.415l17.996,57.585h19.149L63.448,119.821z"/>
<path style="fill:#FF507D;" d="M27.429,118.857H9.143c-5.049,0-9.143-4.093-9.143-9.143l0,0c0-5.049,4.093-9.143,9.143-9.143h18.286  c5.049,0,9.143,4.093,9.143,9.143l0,0C36.571,114.764,32.478,118.857,27.429,118.857z"/>
<g>
	<circle style="fill:#7F8499;" cx="173.71" cy="475.43" r="36.571"/>
	<circle style="fill:#7F8499;" cx="411.43" cy="475.43" r="36.571"/>
</g>
<path style="fill:#D23C69;" d="M512,182.857H64l31.68,101.375c8.35,26.719,33.094,44.911,61.087,44.911h64  c-27.993,0-52.738-18.192-61.087-44.911l-12.832-41.064c-3.68-11.775,5.117-23.74,17.453-23.74h343.128L512,182.857z"/>
<g>
	<circle style="fill:#5B5D6E;" cx="173.71" cy="475.43" r="18.286"/>
	<circle style="fill:#5B5D6E;" cx="411.43" cy="475.43" r="18.286"/>
</g>
<g>
</g>
<g>
</g>
<g>
</g>
<g>
</g>
<g>
</g>
<g>
</g>
<g>
</g>
<g>
</g>
<g>
</g>
<g>
</g>
<g>
</g>
<g>
</g>
<g>
</g>
<g>
</g>
<g>
</g>
</svg>
