<?xml version="1.0" encoding="iso-8859-1"?>
<!-- Generator: Adobe Illustrator 19.0.0, SVG Export Plug-In . SVG Version: 6.00 Build 0)  -->
<svg xmlns="http://www.w3.org/2000/svg" xmlns:xlink="http://www.w3.org/1999/xlink" version="1.1" id="Layer_1" x="0px" y="0px" viewBox="0 0 512 512" style="enable-background:new 0 0 512 512;" xml:space="preserve">
<path style="fill:#E6AF78;" d="M160.76,334.516l33.446-16.723V512h-44.138c-4.875,0-8.828-3.952-8.828-8.828V366.099  C141.241,352.724,148.798,340.498,160.76,334.516z"/>
<path style="fill:#D29B6E;" d="M194.207,512V317.793l-33.447,16.723c-8.852,4.426-15.269,12.282-18.019,21.482l18.845,22.614  c3.966,4.759,6.138,10.759,6.138,16.954V512H194.207z"/>
<path style="fill:#E6AF78;" d="M351.24,334.516l-33.446-16.723V512h44.138c4.875,0,8.828-3.952,8.828-8.828V366.099  C370.759,352.724,363.202,340.498,351.24,334.516z"/>
<path style="fill:#D29B6E;" d="M317.793,512V317.793l33.447,16.723c8.852,4.426,15.269,12.282,18.019,21.482l-18.845,22.614  c-3.966,4.759-6.138,10.759-6.138,16.954V512H317.793z"/>
<path style="fill:#B4F0FF;" d="M360.084,321.876L291.31,291.31h-70.62l-68.774,30.566c-5.354,2.379-6.947,9.218-3.196,13.718  l32.568,39.081c2.644,3.173,4.092,7.172,4.092,11.302V512h141.241V385.978c0-4.13,1.448-8.13,4.092-11.303l32.568-39.081  C367.031,331.094,365.438,324.255,360.084,321.876z"/>
<path style="fill:#91E1F5;" d="M291.31,291.31h-70.62l-17.655,7.846v0.981c0,29.252,23.713,52.966,52.966,52.966  s52.966-23.713,52.966-52.966v-0.981L291.31,291.31z"/>
<path style="fill:#785546;" d="M38.032,90.608l53.909,46.207c2.393,2.051,6.094,1.01,7.07-1.987  c5.793-17.801,25.502-67.459,68.714-81.863l26.483-35.31c0,0-95.284-43.311-157.142,67.422  C36.035,86.921,36.428,89.234,38.032,90.608z"/>
<path style="fill:#64463C;" d="M54.982,105.137l36.958,31.678c2.393,2.051,6.094,1.01,7.07-1.987  c5.793-17.801,25.502-67.459,68.714-81.863l5.939-7.918C142.998,41.316,94.039,46.953,54.982,105.137z"/>
<path style="fill:#B4F0FF;" d="M194.207,17.655c0,0-20.527-9.291-48.689-8.23c-3.809,10.249-8.237,29.395-5.8,59.898  c7.998-6.93,17.237-12.768,28.006-16.357L194.207,17.655z"/>
<path style="fill:#91E1F5;" d="M139.187,45.853c-0.258,6.956-0.17,14.69,0.531,23.47l0,0c7.998-6.93,17.237-12.768,28.006-16.357  l5.938-7.918C163.765,43.844,151.948,43.654,139.187,45.853z"/>
<path style="fill:#785546;" d="M473.968,90.608l-53.909,46.207c-2.393,2.051-6.094,1.01-7.07-1.987  c-5.794-17.801-25.502-67.459-68.714-81.863l-26.483-35.31c0,0,95.284-43.311,157.142,67.422  C475.965,86.921,475.572,89.234,473.968,90.608z"/>
<path style="fill:#64463C;" d="M457.018,105.137l-36.958,31.678c-2.393,2.051-6.094,1.01-7.07-1.987  c-5.793-17.801-25.502-67.459-68.714-81.863l-5.939-7.918C369.002,41.316,417.961,46.953,457.018,105.137z"/>
<path style="fill:#B4F0FF;" d="M317.793,17.655c0,0,20.527-9.291,48.689-8.23c3.809,10.249,8.237,29.395,5.8,59.898  c-7.998-6.93-17.237-12.768-28.006-16.357L317.793,17.655z"/>
<path style="fill:#91E1F5;" d="M372.813,45.853c0.258,6.956,0.17,14.69-0.531,23.47l0,0c-7.998-6.93-17.237-12.768-28.006-16.357  l-5.938-7.918C348.235,43.844,360.052,43.654,372.813,45.853z"/>
<path style="fill:#E6AF78;" d="M256,335.448L256,335.448c-19.501,0-35.31-15.809-35.31-35.31v-61.793h70.621v61.793  C291.31,319.639,275.501,335.448,256,335.448z"/>
<path style="fill:#D29B6E;" d="M220.69,276.808c11.142,3.616,22.979,5.675,35.31,5.675s24.169-2.059,35.31-5.675v-38.463h-70.62  V276.808z"/>
<path style="fill:#F0C087;" d="M361.931,132.414h-8.828v-26.483H158.897v26.483h-8.828c-9.751,0-17.655,7.904-17.655,17.655  c0,9.751,7.905,17.655,17.655,17.655h8.828c0,53.629,43.475,97.103,97.103,97.103s97.103-43.475,97.103-97.103h8.828  c9.751,0,17.655-7.905,17.655-17.655C379.586,140.318,371.682,132.414,361.931,132.414z"/>
<path style="fill:#E6AF78;" d="M353.103,132.414v-26.483H158.897v26.483h-7.883c-8.795,0-16.946,6.01-18.358,14.69  c-1.799,11.061,6.691,20.62,17.413,20.62h8.828c0,53.629,43.475,97.103,97.103,97.103c9.193,0,18.054-1.363,26.483-3.751  c-40.739-11.539-70.621-48.918-70.621-93.353V141.24c0-4.875,3.952-8.828,8.828-8.828h132.413V132.414z"/>
<g>
	<path style="fill:#64463C;" d="M211.862,167.724c-4.879,0-8.828-3.953-8.828-8.828v-8.828c0-4.875,3.948-8.828,8.828-8.828   c4.879,0,8.828,3.953,8.828,8.828v8.828C220.69,163.772,216.741,167.724,211.862,167.724z"/>
	<path style="fill:#64463C;" d="M300.138,167.724c-4.879,0-8.828-3.953-8.828-8.828v-8.828c0-4.875,3.948-8.828,8.828-8.828   c4.879,0,8.828,3.953,8.828,8.828v8.828C308.966,163.772,305.017,167.724,300.138,167.724z"/>
</g>
<path style="fill:#D29B6E;" d="M256,220.69c-12.19,0-23.586-3.849-32.086-10.836c-3.767-3.095-4.31-8.659-1.216-12.427  c3.078-3.759,8.664-4.315,12.422-1.211c10.552,8.664,31.207,8.664,41.759,0c3.759-3.103,9.345-2.547,12.422,1.211  c3.095,3.767,2.552,9.332-1.216,12.427C279.586,216.841,268.19,220.69,256,220.69z"/>
<path style="fill:#785546;" d="M264.828,0h-17.655c-53.629,0-97.103,43.475-97.103,97.103v13.241c0,2.438,1.976,4.414,4.414,4.414  h203.034c2.438,0,4.414-1.976,4.414-4.414V97.103C361.931,43.475,318.456,0,264.828,0z"/>
<path style="fill:#64463C;" d="M282.483,1.681C276.749,0.627,270.866,0,264.828,0h-17.655c-53.629,0-97.103,43.475-97.103,97.103  v13.241c0,2.438,1.976,4.414,4.414,4.414h48.552V97.103C203.034,49.513,237.296,9.994,282.483,1.681z"/>
<g>
</g>
<g>
</g>
<g>
</g>
<g>
</g>
<g>
</g>
<g>
</g>
<g>
</g>
<g>
</g>
<g>
</g>
<g>
</g>
<g>
</g>
<g>
</g>
<g>
</g>
<g>
</g>
<g>
</g>
</svg>
