<?xml version="1.0" encoding="iso-8859-1"?>
<!-- Generator: Adobe Illustrator 19.0.0, SVG Export Plug-In . SVG Version: 6.00 Build 0)  -->
<svg xmlns="http://www.w3.org/2000/svg" xmlns:xlink="http://www.w3.org/1999/xlink" version="1.1" id="Layer_1" x="0px" y="0px" viewBox="0 0 512.001 512.001" style="enable-background:new 0 0 512.001 512.001;" xml:space="preserve">
<path style="fill:#A0D755;" d="M396.029,310.813l-66.886-18.241H182.858l-66.885,18.241c-19.889,5.424-33.687,23.489-33.687,44.104  v147.941c0,5.049,4.093,9.143,9.143,9.143h329.143c5.049,0,9.143-4.093,9.143-9.143V354.915  C429.715,334.301,415.918,316.236,396.029,310.813z"/>
<rect x="201.141" y="237.71" style="fill:#B48764;" width="109.71" height="73.14"/>
<path style="fill:#966D50;" d="M201.144,270.833c16.719,8.045,35.337,12.595,54.857,12.595s38.138-4.55,54.857-12.595v-33.119  H201.144V270.833z"/>
<path style="fill:#C39772;" d="M370.287,118.857h-4.571V91.429C365.715,40.934,324.781,0,274.287,0h-36.571  c-50.494,0-91.429,40.934-91.429,91.429v27.429h-4.571c-12.624,0-22.857,10.233-22.857,22.857c0,12.623,10.233,22.857,22.857,22.857  h5.033c4.657,56.305,51.746,100.571,109.253,100.571s104.596-44.267,109.253-100.571h5.033c12.624,0,22.857-10.234,22.857-22.857  C393.144,129.09,382.911,118.857,370.287,118.857z"/>
<path style="fill:#B48764;" d="M210.287,155.429v-64c0-45.821,33.743-83.657,77.714-90.29C283.516,0.462,278.96,0,274.287,0h-36.571  c-50.494,0-91.429,40.934-91.429,91.429v27.429h-4.571c-12.624,0-22.857,10.233-22.857,22.857c0,12.623,10.233,22.857,22.857,22.857  h5.033c4.657,56.305,51.746,100.571,109.253,100.571c11.136,0,21.873-1.688,32-4.772  C243.023,246.672,210.287,204.886,210.287,155.429z"/>
<g>
	<path style="fill:#553732;" d="M210.287,155.429c-5.054,0-9.143-4.094-9.143-9.143v-9.143c0-5.049,4.089-9.143,9.143-9.143   c5.054,0,9.143,4.094,9.143,9.143v9.143C219.43,151.335,215.34,155.429,210.287,155.429z"/>
	<path style="fill:#553732;" d="M301.715,155.429c-5.054,0-9.143-4.094-9.143-9.143v-9.143c0-5.049,4.089-9.143,9.143-9.143   c5.054,0,9.143,4.094,9.143,9.143v9.143C310.858,151.335,306.769,155.429,301.715,155.429z"/>
</g>
<path style="fill:#966D50;" d="M256.001,219.429c-12.625,0-24.429-3.987-33.232-11.223c-3.902-3.205-4.464-8.969-1.259-12.871  c3.196-3.884,8.964-4.469,12.866-1.254c10.929,8.973,32.321,8.973,43.25,0c3.902-3.214,9.67-2.629,12.866,1.254  c3.205,3.902,2.643,9.665-1.259,12.871C280.43,215.442,268.626,219.429,256.001,219.429z"/>
<g>
	<path style="fill:#C7CFE2;" d="M182.858,36.571c0-10.099-8.187-18.286-18.286-18.286s-18.286,8.186-18.286,18.286   c0,0.106,0.03,0.204,0.031,0.309c-1.015-0.129-2.015-0.309-3.065-0.309c-13.473,0-24.395,10.921-24.395,24.394   c0,5.878,2.164,11.197,5.627,15.409c-8.741,4.585-14.77,13.641-14.77,24.197c0,15.148,12.28,27.429,27.429,27.429   c15.149,0,27.429-12.28,27.429-27.429c0-7.507-3.028-14.299-7.915-19.251c6.613-4.363,10.989-11.839,10.989-20.355   c0-2.202-0.386-4.295-0.932-6.324C175.791,53.569,182.858,45.936,182.858,36.571z"/>
	<path style="fill:#C7CFE2;" d="M329.144,36.571c0-10.099,8.187-18.286,18.286-18.286s18.286,8.186,18.286,18.286   c0,0.106-0.03,0.204-0.031,0.309c1.015-0.129,2.015-0.309,3.065-0.309c13.473,0,24.395,10.921,24.395,24.394   c0,5.878-2.164,11.197-5.627,15.409c8.741,4.585,14.77,13.641,14.77,24.197c0,15.148-12.28,27.429-27.429,27.429   s-27.429-12.28-27.429-27.429c0-7.507,3.028-14.299,7.915-19.251c-6.613-4.363-10.989-11.839-10.989-20.355   c0-2.202,0.386-4.295,0.932-6.324C336.211,53.569,329.144,45.936,329.144,36.571z"/>
</g>
<g>
	<path style="fill:#87BE4B;" d="M155.43,512h-27.429V406.857c0-7.574,6.14-13.714,13.714-13.714l0,0   c7.574,0,13.714,6.14,13.714,13.714L155.43,512L155.43,512z"/>
	<path style="fill:#87BE4B;" d="M384.001,512h-27.429V406.857c0-7.574,6.14-13.714,13.714-13.714l0,0   c7.574,0,13.714,6.14,13.714,13.714V512H384.001z"/>
</g>
<path style="fill:#D5DCED;" d="M417.274,323.769c-5.645-6.035-12.85-10.667-21.245-12.956l-42.648-11.631  c-9.093,17.851-38.059,68.451-91.839,108.248c-3.245,2.401-7.837,2.401-11.081,0c-53.78-39.797-82.746-90.397-91.839-108.248  l-42.648,11.631c-8.395,2.29-15.6,6.922-21.245,12.956l42.536,57.232c5.859,7.884,9.024,17.446,9.024,27.269V512h219.429V408.27  c0-9.823,3.164-19.385,9.024-27.269L417.274,323.769z"/>
<path style="fill:#87BE4B;" d="M256.001,384L256.001,384c-5.049,0-9.143-4.093-9.143-9.143v-64h18.286v64  C265.144,379.907,261.05,384,256.001,384z"/>
<g>
	<path style="fill:#B4E66E;" d="M256.001,310.857l-29.482,22.112c-3.951,2.963-9.54,2.253-12.625-1.603l-31.036-38.795l5.228-15.685   c1.945-5.836,8.982-8.124,13.988-4.549L256.001,310.857z"/>
	<path style="fill:#B4E66E;" d="M256.001,310.857l29.482,22.112c3.951,2.963,9.54,2.253,12.625-1.603l31.036-38.795l-5.228-15.685   c-1.945-5.836-8.982-8.124-13.988-4.549L256.001,310.857z"/>
</g>
<path style="fill:#C7CFE2;" d="M158.621,299.181l-17.742,4.839l0.702,1.801l0.741,1.665c10.509,20.607,41.009,73.036,97.295,114.67  c9.643,7.134,23.125,7.134,32.768,0c56.286-41.634,86.786-94.063,97.295-114.67l1.365-3.488l-17.663-4.817  c-9.095,17.855-38.072,68.473-91.873,108.274c-3.225,2.386-7.788,2.386-11.013,0C196.693,367.654,167.716,317.036,158.621,299.181z"/>
<g>
</g>
<g>
</g>
<g>
</g>
<g>
</g>
<g>
</g>
<g>
</g>
<g>
</g>
<g>
</g>
<g>
</g>
<g>
</g>
<g>
</g>
<g>
</g>
<g>
</g>
<g>
</g>
<g>
</g>
</svg>
