<?xml version="1.0" encoding="iso-8859-1"?>
<!-- Generator: Adobe Illustrator 19.0.0, SVG Export Plug-In . SVG Version: 6.00 Build 0)  -->
<svg xmlns="http://www.w3.org/2000/svg" xmlns:xlink="http://www.w3.org/1999/xlink" version="1.1" id="Layer_1" x="0px" y="0px" viewBox="0 0 512.001 512.001" style="enable-background:new 0 0 512.001 512.001;" xml:space="preserve">
<path style="fill:#E6AF78;" d="M65.164,502.691H18.618c-5.141,0-9.309-4.168-9.309-9.309V381.673h55.855V502.691z"/>
<path style="fill:#D29B6E;" d="M9.309,400.291v18.618h18.618c5.141,0,9.309,4.168,9.309,9.309v74.473h27.927v-102.4H9.309z"/>
<rect x="214.11" y="381.671" style="fill:#E6AF78;" width="65.16" height="121.02"/>
<path style="fill:#D29B6E;" d="M269.964,400.291v18.618h-18.618c-5.141,0-9.309,4.168-9.309,9.309v74.473H214.11v-102.4H269.964z"/>
<path style="fill:#FF913C;" d="M258.694,282.969l-81.821-22.315H102.4l-81.821,22.315C8.429,286.283,0,297.319,0,309.912v81.069  c0,5.141,4.168,9.309,9.309,9.309h46.545v93.091c0,5.141,4.168,9.309,9.309,9.309h148.945c5.141,0,9.309-4.168,9.309-9.309V400.29  h46.545c5.141,0,9.309-4.168,9.309-9.309v-81.069C279.273,297.319,270.844,286.283,258.694,282.969z"/>
<path style="fill:#D77431;" d="M176.873,260.655H102.4l-36.495,9.953c4.876,36.412,35.985,64.52,73.731,64.52  s68.855-28.108,73.731-64.52L176.873,260.655z"/>
<path style="fill:#E6AF78;" d="M93.091,228.073v32.582c0,25.706,20.839,46.545,46.545,46.545s46.545-20.839,46.545-46.545v-32.582  L93.091,228.073L93.091,228.073z"/>
<path style="fill:#D29B6E;" d="M93.091,249.381c13.981,7.172,29.783,11.274,46.545,11.274s32.565-4.102,46.545-11.274v-21.308  h-93.09V249.381z"/>
<path style="fill:#F0C087;" d="M223.418,121.018V65.164H55.855v55.855c-10.282,0-18.618,8.335-18.618,18.618  c0,10.282,8.336,18.618,18.618,18.618c0,46.272,37.51,83.782,83.782,83.782s83.782-37.51,83.782-83.782  c10.282,0,18.618-8.336,18.618-18.618C242.036,129.353,233.701,121.018,223.418,121.018z"/>
<path style="fill:#E6AF78;" d="M102.4,158.255V65.164H55.855v55.855c-10.282,0-18.618,8.335-18.618,18.618  c0,10.282,8.336,18.618,18.618,18.618c0,46.272,37.51,83.782,83.782,83.782c8.085,0,15.876-1.207,23.273-3.344  C127.973,228.598,102.4,196.441,102.4,158.255z"/>
<path style="fill:#D29B6E;" d="M139.636,204.8c-9.855,0-19.273-4.65-25.845-12.755c-3.245-3.995-2.627-9.855,1.364-13.095  c4.009-3.232,9.864-2.614,13.091,1.368c6.145,7.564,16.636,7.564,22.782,0c3.236-3.982,9.091-4.6,13.091-1.368  c3.991,3.241,4.609,9.1,1.364,13.095C158.909,200.15,149.491,204.8,139.636,204.8z"/>
<g>
	<path style="fill:#64463C;" d="M102.4,158.255c-5.145,0-9.309-4.168-9.309-9.309v-9.309c0-5.141,4.164-9.309,9.309-9.309   s9.309,4.168,9.309,9.309v9.309C111.709,154.086,107.545,158.255,102.4,158.255z"/>
	<path style="fill:#64463C;" d="M176.873,158.255c-5.145,0-9.309-4.168-9.309-9.309v-9.309c0-5.141,4.164-9.309,9.309-9.309   s9.309,4.168,9.309,9.309v9.309C186.182,154.086,182.018,158.255,176.873,158.255z"/>
</g>
<path style="fill:#785546;" d="M202.301,112.158c2.718,7.199,10.414,10.461,17.994,9.131c1.014-0.178,2.057-0.271,3.124-0.271  c3.409,0,6.561,0.983,9.309,2.582V65.164c0-13.928-7.736-25.926-19.06-32.312c-2.116-13.327-13.563-23.543-27.485-23.543H111.71  c-35.989,0-65.164,29.175-65.164,65.164v49.128c2.748-1.599,5.901-2.582,9.309-2.582c1.197,0,2.364,0.116,3.492,0.339  c9.066,1.785,18.145-3.226,20.415-12.183l0,0l2.289-9.157c1.012-4.047,4.559-6.933,8.73-7.045  c17.32-0.467,63.039-2.764,94.213-14.047c5.519-1.998,11.467,1.363,12.432,7.153l3.486,20.914  C201.21,108.786,201.68,110.513,202.301,112.158z"/>
<path style="fill:#64463C;" d="M102.4,65.164c0-30.848,25.007-55.855,55.855-55.855H111.71c-35.989,0-65.164,29.174-65.164,65.164  v49.128c2.748-1.599,5.901-2.582,9.309-2.582c1.197,0,2.364,0.116,3.492,0.339c9.066,1.785,18.145-3.226,20.415-12.184l2.289-9.157  c1.011-4.047,4.559-6.932,8.73-7.045c3.056-0.082,7.032-0.227,11.62-0.463V65.164H102.4z"/>
<g>
	<path style="fill:#D77431;" d="M0,309.912v81.07c0,5.141,4.168,9.309,9.309,9.309h46.545v-30.575   c0-10.351-3.45-20.406-9.805-28.576l-38.79-49.875C2.746,296.27,0,302.814,0,309.912z"/>
	<path style="fill:#D77431;" d="M279.273,309.912v81.07c0,5.141-4.168,9.309-9.309,9.309h-46.545v-30.575   c0-10.351,3.45-20.406,9.805-28.576l38.791-49.875C276.527,296.27,279.273,302.814,279.273,309.912z"/>
</g>
<path style="fill:#64463C;" d="M381.673,46.545L381.673,46.545L381.673,46.545L381.673,46.545L381.673,46.545  c56.554,0,102.4,45.846,102.4,102.4l0,0c0,65.164,9.309,130.327,9.309,130.327s-46.545,27.927-111.709,37.236  c-65.164-9.309-111.709-37.236-111.709-37.236s9.309-65.164,9.309-130.327l0,0C279.273,92.391,325.119,46.545,381.673,46.545  L381.673,46.545L381.673,46.545L381.673,46.545L381.673,46.545z"/>
<path style="fill:#553732;" d="M344.436,139.636v-27.927c0-31.645,22.563-58,52.474-63.907c-4.984-0.745-10.045-1.256-15.237-1.256  h-0.001c-56.554,0-102.4,45.846-102.4,102.4c0,65.164-9.309,130.327-9.309,130.327s46.545,27.927,111.709,37.236V176.873  L344.436,139.636z"/>
<path style="fill:#B48764;" d="M494.445,346.723l-63.832-25.533c-7.068-2.827-11.703-9.673-11.703-17.286v-33.94h-74.473v33.94  c0,7.613-4.635,14.459-11.703,17.286l-63.832,25.533c-10.603,4.241-17.555,14.51-17.555,25.93V409.6  c0,5.141,4.168,9.309,9.309,9.309l0,0v74.473c0,5.141,4.168,9.309,9.309,9.309h223.418c5.141,0,9.309-4.168,9.309-9.309v-74.473l0,0  c5.141,0,9.309-4.168,9.309-9.309v-36.947C512,361.233,505.048,350.964,494.445,346.723z"/>
<g>
	<path style="fill:#966D50;" d="M260.655,409.6v27.927h9.309c5.141,0,9.309,4.168,9.309,9.309v55.855H307.2V409.6H260.655z"/>
	<path style="fill:#966D50;" d="M502.691,409.6v27.927h-9.309c-5.141,0-9.309,4.168-9.309,9.309v55.855h-27.927V409.6H502.691z"/>
	<path style="fill:#966D50;" d="M344.436,300.089c11.558,4.534,24.09,7.112,37.236,7.112s25.678-2.578,37.236-7.112v-30.124h-74.473   v30.124H344.436z"/>
</g>
<path style="fill:#C39772;" d="M465.455,204.8c0-61.633-66.622-39.989-113.224-68.97c-4.243-2.639-9.893-1.498-12.654,2.667  c-7.191,10.849-21.907,28.697-41.09,29.06c-10.494,0.199-19.214,7.981-19.214,18.477v0.147c0,10.283,8.336,18.618,18.618,18.618  c0,6.4,0.718,12.632,2.076,18.62c8.467,37.31,41.833,65.162,81.705,65.162s73.238-27.852,81.705-65.162  C464.737,217.432,465.455,211.2,465.455,204.8z"/>
<path style="fill:#B48764;" d="M344.436,204.8v-69.809c-1.911,0.614-3.674,1.718-4.86,3.506  c-7.191,10.849-21.907,28.697-41.09,29.061c-10.494,0.199-19.214,7.981-19.214,18.476v0.148c0,10.282,8.336,18.618,18.618,18.618  c0,6.399,0.718,12.631,2.077,18.62c8.466,37.31,41.833,65.162,81.705,65.162c8.091,0,15.891-1.199,23.293-3.339  C370.019,275.156,344.436,242.994,344.436,204.8z"/>
<path style="fill:#966D50;" d="M381.673,251.345c-9.855,0-19.273-4.65-25.845-12.755c-3.245-3.995-2.627-9.855,1.364-13.095  c4.009-3.236,9.864-2.618,13.091,1.368c6.145,7.564,16.636,7.564,22.782,0c3.227-3.986,9.091-4.605,13.091-1.368  c3.991,3.241,4.609,9.1,1.364,13.095C400.945,246.695,391.527,251.345,381.673,251.345z"/>
<g>
	<path style="fill:#553732;" d="M418.909,204.8c-5.145,0-9.309-4.168-9.309-9.309v-9.309c0-5.141,4.164-9.309,9.309-9.309   s9.309,4.168,9.309,9.309v9.309C428.218,200.632,424.055,204.8,418.909,204.8z"/>
	<path style="fill:#553732;" d="M344.436,204.8c-5.145,0-9.309-4.168-9.309-9.309v-9.309c0-5.141,4.164-9.309,9.309-9.309   s9.309,4.168,9.309,9.309v9.309C353.745,200.632,349.582,204.8,344.436,204.8z"/>
</g>
<path style="fill:#FF507D;" d="M494.445,346.723l-39.709-15.884c-6.685,34.268-36.839,60.142-73.063,60.142  s-66.378-25.874-73.063-60.142l-39.709,15.884c-10.603,4.241-17.555,14.51-17.555,25.93V409.6c0,5.141,4.168,9.309,9.309,9.309  h37.236v83.782h167.564v-83.782h37.236c5.141,0,9.309-4.168,9.309-9.309v-36.947C512,361.233,505.048,350.964,494.445,346.723z"/>
<g>
	<path style="fill:#D23C69;" d="M454.736,330.84c-6.685,34.268-36.839,60.142-73.063,60.142s-66.378-25.874-73.063-60.142   l-17.478,6.991c9.652,41.119,46.477,71.769,90.541,71.769s80.889-30.65,90.541-71.769L454.736,330.84z"/>
	<path style="fill:#D23C69;" d="M297.891,408.003c0-4.938-1.962-9.673-5.453-13.165l-36.857-36.857   c-2.678,4.324-4.235,9.358-4.235,14.672V409.6c0,5.141,4.168,9.309,9.309,9.309h37.236V408.003z"/>
	<path style="fill:#D23C69;" d="M465.455,408.003c0-4.938,1.962-9.673,5.453-13.165l36.857-36.857   c2.678,4.324,4.235,9.358,4.235,14.672V409.6c0,5.141-4.168,9.309-9.309,9.309h-37.236V408.003z"/>
</g>
<g>
</g>
<g>
</g>
<g>
</g>
<g>
</g>
<g>
</g>
<g>
</g>
<g>
</g>
<g>
</g>
<g>
</g>
<g>
</g>
<g>
</g>
<g>
</g>
<g>
</g>
<g>
</g>
<g>
</g>
</svg>
