<?xml version="1.0" encoding="iso-8859-1"?>
<!-- Generator: Adobe Illustrator 19.0.0, SVG Export Plug-In . SVG Version: 6.00 Build 0)  -->
<svg xmlns="http://www.w3.org/2000/svg" xmlns:xlink="http://www.w3.org/1999/xlink" version="1.1" id="Layer_1" x="0px" y="0px" viewBox="0 0 512.001 512.001" style="enable-background:new 0 0 512.001 512.001;" xml:space="preserve">
<path style="fill:#64463C;" d="M2.518,119.547l46.232,23.577c2.431,1.24,5.404,0.113,6.381-2.435  c4.589-11.965,19.694-42.451,56.463-49.805l32.026-25.122c0,0-92.437-39.964-143.007,47.39  C-0.703,115.428,0.175,118.352,2.518,119.547z"/>
<path style="fill:#553732;" d="M21.328,129.139l27.423,13.985c2.431,1.24,5.404,0.113,6.381-2.435  c4.589-11.965,19.694-42.451,56.463-49.805l16.133-12.655C97.157,74.726,52.298,79.985,21.328,129.139z"/>
<path style="fill:#FFAA50;" d="M92.841,97.442c5.536-2.818,11.702-5.148,18.754-6.558l32.026-25.122c0,0-19.882-8.559-46.227-9.073  C94.861,62.381,89.668,77.217,92.841,97.442z"/>
<path style="fill:#FF913C;" d="M92.098,79.242c-0.391,5.4-0.313,11.467,0.743,18.201c5.537-2.818,11.702-5.148,18.754-6.558  l16.133-12.655C117.172,77.019,104.9,76.916,92.098,79.242z"/>
<path style="fill:#FFAA50;" d="M257.674,304.059l-47.699-20.443h-55.231l-47.699,20.443c-10.153,4.351-16.737,14.335-16.737,25.382  v119.867c0,5.084,4.121,9.205,9.205,9.205H256c10.168,0,18.41-8.243,18.41-18.41V329.441  C274.41,318.394,267.827,308.41,257.674,304.059z"/>
<path style="fill:#FF913C;" d="M227.622,291.18l-17.648-7.563h-55.231l-17.648,7.563c3.625,21.8,22.435,38.462,45.263,38.462  S223.997,312.979,227.622,291.18z"/>
<path style="fill:#E6AF78;" d="M182.359,311.232L182.359,311.232c-15.252,0-27.615-12.364-27.615-27.615v-27.616h55.231v27.615  C209.974,298.868,197.611,311.232,182.359,311.232z"/>
<path style="fill:#D29B6E;" d="M154.744,279.744c8.802,2.486,18.052,3.872,27.615,3.872s18.814-1.386,27.615-3.872v-23.743h-55.231  L154.744,279.744L154.744,279.744z"/>
<path style="fill:#F0C087;" d="M265.205,154.745v-18.41c0-45.755-37.091-82.846-82.846-82.846l0,0  c-45.755,0-82.846,37.091-82.846,82.846v18.41c-12.323,0-21.819,12.108-17.238,25.078c2.535,7.177,9.681,11.743,17.293,11.742h0.485  c4.583,41.418,39.666,73.641,82.306,73.641s77.723-32.223,82.306-73.641h0.485c7.612,0,14.758-4.565,17.293-11.742  C287.024,166.853,277.529,154.745,265.205,154.745z"/>
<path style="fill:#E6AF78;" d="M145.539,136.335c0-37.76,25.288-69.558,59.833-79.539c-7.314-2.113-15.018-3.307-23.013-3.307  c-45.755,0-82.846,37.091-82.846,82.846v18.41c-12.323,0-21.819,12.108-17.238,25.077c2.535,7.178,9.682,11.743,17.293,11.743h0.485  c4.583,41.418,39.666,73.641,82.306,73.641c8.029,0,15.788-1.147,23.127-3.278c-34.604-9.943-59.948-41.766-59.948-79.568v-18.41  H256c5.084,0,9.205-4.122,9.205-9.205v-18.41L145.539,136.335L145.539,136.335z"/>
<g>
	<path style="fill:#64463C;" d="M145.539,191.565c-5.088,0-9.205-4.122-9.205-9.205v-9.205c0-5.083,4.117-9.205,9.205-9.205   s9.205,4.122,9.205,9.205v9.205C154.744,187.444,150.627,191.565,145.539,191.565z"/>
	<path style="fill:#64463C;" d="M219.18,191.565c-5.088,0-9.205-4.122-9.205-9.205v-9.205c0-5.083,4.117-9.205,9.205-9.205   s9.205,4.122,9.205,9.205v9.205C228.385,187.444,224.268,191.565,219.18,191.565z"/>
</g>
<path style="fill:#D29B6E;" d="M182.359,230.975c-9.295,0-17.979-3.124-24.469-8.796c-3.829-3.349-4.216-9.165-0.872-12.99  c3.362-3.838,9.169-4.207,12.99-0.872c6.167,5.403,18.536,5.403,24.703,0c3.803-3.335,9.628-2.966,12.99,0.872  c3.344,3.825,2.958,9.641-0.872,12.99C200.338,227.851,191.654,230.975,182.359,230.975z"/>
<path style="fill:#FF913C;" d="M121.736,342.66L94.31,315.234c-2.534,4.212-4.003,9.08-4.003,14.207v119.867  c0,5.084,4.121,9.205,9.205,9.205h27.615V355.678C127.129,350.795,125.189,346.112,121.736,342.66z"/>
<path style="fill:#64463C;" d="M182.359,53.489L182.359,53.489c-50.839,0-92.051,41.213-92.051,92.051l0,0H274.41l0,0  C274.41,94.701,233.198,53.489,182.359,53.489z"/>
<path style="fill:#553732;" d="M205.372,56.506c-7.368-1.9-15.051-3.018-23.013-3.018c-50.838,0-92.051,41.212-92.051,92.051h46.026  C136.334,102.663,165.692,66.74,205.372,56.506z"/>
<path style="fill:#64463C;" d="M145.539,117.374l55.231,28.166c0,0,12.082-45.45,58.107-54.655l32.026-25.122  C290.903,65.762,195.532,24.529,145.539,117.374z"/>
<path style="fill:#553732;" d="M168.61,129.139l32.159,16.401c0,0,12.082-45.45,58.107-54.655l16.133-12.655  C244.439,74.726,199.579,79.985,168.61,129.139z"/>
<path style="fill:#FFAA50;" d="M240.123,97.442c5.536-2.818,11.702-5.148,18.754-6.558l32.026-25.122c0,0-19.882-8.559-46.227-9.073  C242.142,62.381,236.95,77.217,240.123,97.442z"/>
<path style="fill:#FF913C;" d="M239.379,79.242c-0.391,5.4-0.313,11.467,0.743,18.201c5.537-2.818,11.702-5.148,18.754-6.558  l16.133-12.655C264.454,77.019,252.182,76.916,239.379,79.242z"/>
<path style="fill:#64463C;" d="M509.482,119.547l-46.232,23.577c-2.431,1.24-5.404,0.113-6.381-2.435  c-4.589-11.965-19.694-42.451-56.463-49.805L368.38,65.762c0,0,92.437-39.964,143.007,47.39  C512.703,115.428,511.825,118.352,509.482,119.547z"/>
<path style="fill:#553732;" d="M490.672,129.139l-27.423,13.985c-2.431,1.24-5.404,0.113-6.381-2.435  c-4.589-11.965-19.694-42.451-56.463-49.805l-16.133-12.655C414.843,74.726,459.702,79.985,490.672,129.139z"/>
<path style="fill:#FFAA50;" d="M419.159,97.442c-5.536-2.818-11.702-5.148-18.754-6.558l-32.026-25.122  c0,0,19.882-8.559,46.227-9.073C417.139,62.381,422.332,77.217,419.159,97.442z"/>
<path style="fill:#FF913C;" d="M419.902,79.242c0.391,5.4,0.313,11.467-0.743,18.201c-5.537-2.818-11.702-5.148-18.754-6.558  L384.272,78.23C394.828,77.019,407.1,76.916,419.902,79.242z"/>
<path style="fill:#FFAA50;" d="M404.955,304.059l-47.699-20.443h-55.231l-47.699,20.443c-10.153,4.351-16.737,14.335-16.737,25.382  v119.867c0,5.084,4.121,9.205,9.205,9.205h165.692c5.084,0,9.205-4.121,9.205-9.205V329.441  C421.692,318.394,415.109,308.41,404.955,304.059z"/>
<path style="fill:#FF913C;" d="M374.904,291.18l-17.648-7.563h-55.231l-17.648,7.563c3.625,21.8,22.435,38.462,45.263,38.462  S371.279,312.979,374.904,291.18z"/>
<path style="fill:#E6AF78;" d="M329.641,311.232L329.641,311.232c-15.252,0-27.615-12.364-27.615-27.615v-27.616h55.231v27.615  C357.256,298.868,344.892,311.232,329.641,311.232z"/>
<path style="fill:#D29B6E;" d="M302.026,279.744c8.802,2.486,18.052,3.872,27.615,3.872s18.814-1.386,27.615-3.872v-23.743h-55.231  v23.743H302.026z"/>
<path style="fill:#F0C087;" d="M412.487,154.745v-18.41c0-45.755-37.091-82.846-82.846-82.846l0,0  c-45.754,0-82.846,37.091-82.846,82.846v18.41c-12.323,0-21.819,12.108-17.238,25.078c2.535,7.177,9.681,11.743,17.293,11.742h0.485  c4.583,41.418,39.666,73.641,82.306,73.641s77.723-32.223,82.306-73.641h0.485c7.612,0,14.758-4.565,17.293-11.742  C434.306,166.853,424.81,154.745,412.487,154.745z"/>
<path style="fill:#E6AF78;" d="M292.82,136.335c0-37.76,25.288-69.558,59.833-79.539c-7.314-2.113-15.018-3.307-23.013-3.307  c-45.755,0-82.846,37.091-82.846,82.846v18.41c-12.323,0-21.819,12.108-17.238,25.077c2.535,7.178,9.682,11.743,17.293,11.743h0.485  c4.583,41.418,39.666,73.641,82.306,73.641c8.029,0,15.788-1.147,23.127-3.278c-34.604-9.943-59.948-41.766-59.948-79.568v-18.41  H403.28c5.084,0,9.205-4.122,9.205-9.205v-18.41L292.82,136.335L292.82,136.335z"/>
<g>
	<path style="fill:#64463C;" d="M292.82,191.565c-5.088,0-9.205-4.122-9.205-9.205v-9.205c0-5.083,4.117-9.205,9.205-9.205   c5.088,0,9.205,4.122,9.205,9.205v9.205C302.026,187.444,297.908,191.565,292.82,191.565z"/>
	<path style="fill:#64463C;" d="M366.461,191.565c-5.088,0-9.205-4.122-9.205-9.205v-9.205c0-5.083,4.117-9.205,9.205-9.205   c5.088,0,9.205,4.122,9.205,9.205v9.205C375.666,187.444,371.549,191.565,366.461,191.565z"/>
</g>
<path style="fill:#D29B6E;" d="M329.641,230.975c-9.295,0-17.979-3.124-24.469-8.796c-3.829-3.349-4.216-9.165-0.872-12.99  c3.362-3.838,9.169-4.207,12.99-0.872c6.167,5.403,18.536,5.403,24.703,0c3.802-3.335,9.628-2.966,12.99,0.872  c3.344,3.825,2.957,9.641-0.872,12.99C347.62,227.851,338.936,230.975,329.641,230.975z"/>
<g>
	<path style="fill:#FF913C;" d="M269.018,342.66l-27.426-27.426c-2.534,4.212-4.003,9.08-4.003,14.207v119.867   c0,5.084,4.121,9.205,9.205,9.205h27.615V355.678C274.41,350.795,272.471,346.112,269.018,342.66z"/>
	<path style="fill:#FF913C;" d="M390.264,342.66l27.426-27.426c2.534,4.212,4.003,9.08,4.003,14.207v119.867   c0,5.084-4.121,9.205-9.205,9.205h-27.615V355.678C384.871,350.795,386.811,346.112,390.264,342.66z"/>
</g>
<path style="fill:#64463C;" d="M329.641,53.489L329.641,53.489c-50.839,0-92.051,41.213-92.051,92.051l0,0h184.102l0,0  C421.692,94.701,380.479,53.489,329.641,53.489z"/>
<path style="fill:#553732;" d="M352.654,56.506c-7.368-1.9-15.051-3.018-23.013-3.018c-50.838,0-92.051,41.212-92.051,92.051h46.026  C283.615,102.663,312.973,66.74,352.654,56.506z"/>
<g>
</g>
<g>
</g>
<g>
</g>
<g>
</g>
<g>
</g>
<g>
</g>
<g>
</g>
<g>
</g>
<g>
</g>
<g>
</g>
<g>
</g>
<g>
</g>
<g>
</g>
<g>
</g>
<g>
</g>
</svg>
