<?xml version="1.0" encoding="iso-8859-1"?>
<!-- Generator: Adobe Illustrator 19.0.0, SVG Export Plug-In . SVG Version: 6.00 Build 0)  -->
<svg xmlns="http://www.w3.org/2000/svg" xmlns:xlink="http://www.w3.org/1999/xlink" version="1.1" id="Layer_1" x="0px" y="0px" viewBox="0 0 512 512" style="enable-background:new 0 0 512 512;" xml:space="preserve">
<path style="fill:#AFB9D2;" d="M278.07,512c-17.034,0-30.897-13.862-30.897-30.897V8.828c0-4.875,3.949-8.828,8.828-8.828  s8.828,3.953,8.828,8.828v472.276c0,7.302,5.94,13.241,13.241,13.241s13.241-5.94,13.241-13.241v-22.069  c0-4.875,3.948-8.828,8.828-8.828s8.828,3.953,8.828,8.828v22.069C308.967,498.138,295.104,512,278.07,512z"/>
<rect x="247.171" y="150.07" style="fill:#959CB5;" width="17.655" height="35.31"/>
<path style="fill:#00C3FF;" d="M459.06,166.396c4.75,0,9.301,1.131,13.528,3.202c3.207,1.572,6.37-2.327,4.382-5.425  C426.83,86.043,346.603,35.31,256.001,35.31S85.172,86.043,35.032,164.174c-1.988,3.098,1.175,6.996,4.382,5.425  c4.227-2.071,8.778-3.202,13.528-3.202c11.696,0,22.237,6.787,29.671,17.654c3.08,4.503,9.15,5.087,12.908,1.206  c11.202-11.569,27.524-18.86,45.708-18.86c18.867,0,35.729,7.849,46.947,20.18c3.418,3.757,8.885,4.015,12.526,0.503  c13.084-12.62,32.99-20.683,55.299-20.683c22.309,0,42.215,8.063,55.299,20.683c3.642,3.513,9.108,3.254,12.526-0.503  c11.218-12.331,28.08-20.18,46.947-20.18c18.185,0,34.507,7.292,45.708,18.86c3.758,3.881,9.827,3.297,12.908-1.206  C436.823,173.183,447.363,166.396,459.06,166.396z"/>
<g>
	<path style="fill:#00AAF0;" d="M316.965,188.484c-0.997,0-1.975,0.158-2.949,0.336c2.07,0.886,4.327,0.872,6.402,0.043   C319.283,188.621,318.132,188.484,316.965,188.484z"/>
	<path style="fill:#00AAF0;" d="M195.037,188.484c-1.167,0-2.318,0.137-3.453,0.379c2.075,0.829,4.332,0.842,6.402-0.043   C197.012,188.643,196.034,188.484,195.037,188.484z"/>
	<path style="fill:#00AAF0;" d="M366.742,62.22c-24.56-12.535-51.02-20.973-78.732-24.702c-0.006-0.009-0.012-0.02-0.019-0.029   c-0.171-0.023-0.346-0.03-0.517-0.053c-4.526-0.598-9.086-1.054-13.677-1.394c-0.664-0.051-1.319-0.137-1.984-0.182   c-5.235-0.345-10.502-0.55-15.813-0.55c-90.602,0-170.829,50.732-220.969,128.863c-1.988,3.098,1.175,6.996,4.383,5.424   c4.227-2.071,8.777-3.202,13.527-3.202c11.693,0,22.231,6.783,29.664,17.645c3.083,4.504,9.25,4.981,13.019,1.108   c11.198-11.506,27.475-18.753,45.604-18.753c1.174,0,2.315,0.12,3.473,0.18c16.338-48.909,37.545-86.902,61.719-109.147   c2.59-2.383,6.365,0.738,4.975,4.062c-13.152,31.46-21.618,76.175-24.996,123.331c0.586,0.591,1.218,1.141,1.776,1.754   c3.418,3.757,8.884,4.015,12.526,0.503c1.094-1.055,2.303-2.029,3.49-3.018C210.755,96.436,234.434,35.33,256,35.33   s45.245,61.106,51.809,148.73c1.186,0.989,2.396,1.963,3.49,3.018c3.642,3.513,9.108,3.254,12.526-0.503   c0.558-0.613,1.191-1.163,1.776-1.754c-3.724-51.991-13.609-101.097-29.16-132.673c-2.276-4.622,2.124-9.886,6.768-8.175   c53.649,19.767,95.578,72.203,109.9,138.141c1.154,1.019,2.306,2.042,3.371,3.141c3.758,3.881,9.828,3.297,12.907-1.206   c0.586-0.857,1.224-1.642,1.848-2.447C421.562,133.547,398.374,91.738,366.742,62.22z"/>
</g>
<path style="fill:#707487;" d="M247.173,423.724v57.379c0,17.034,13.862,30.897,30.897,30.897s30.897-13.862,30.897-30.897v-22.069  c0-4.875-3.948-8.828-8.828-8.828s-8.828,3.953-8.828,8.828v22.069c0,7.302-5.94,13.241-13.241,13.241s-13.241-5.94-13.241-13.241  v-57.379H247.173z"/>
<g>
</g>
<g>
</g>
<g>
</g>
<g>
</g>
<g>
</g>
<g>
</g>
<g>
</g>
<g>
</g>
<g>
</g>
<g>
</g>
<g>
</g>
<g>
</g>
<g>
</g>
<g>
</g>
<g>
</g>
</svg>
