<?xml version="1.0" encoding="iso-8859-1"?>
<!-- Generator: Adobe Illustrator 19.0.0, SVG Export Plug-In . SVG Version: 6.00 Build 0)  -->
<svg xmlns="http://www.w3.org/2000/svg" xmlns:xlink="http://www.w3.org/1999/xlink" version="1.1" id="Layer_1" x="0px" y="0px" viewBox="0 0 512 512" style="enable-background:new 0 0 512 512;" xml:space="preserve">
<path style="fill:#FFDC64;" d="M137.143,34.479h-64c-5.05,0-9.143,4.093-9.143,9.143v9.143c0,5.049,4.093,9.143,9.143,9.143l0,0  v91.429h64v-91.43l0,0c5.05,0,9.143-4.094,9.143-9.143v-9.143C146.286,38.572,142.193,34.479,137.143,34.479z"/>
<rect x="73.14" y="61.907" style="fill:#FFC850;" width="64" height="18.286"/>
<polygon style="fill:#FFDC64;" points="484.571,208.193 256,52.764 27.429,208.193 27.429,482.479 484.571,482.479 "/>
<polygon style="fill:#FFC850;" points="256,52.764 27.429,208.193 27.429,244.764 256,89.336 484.571,244.764 484.571,208.193 "/>
<path style="fill:#FF507D;" d="M245.372,23.785L7.657,193.58C2.852,197.013,0,202.555,0,208.46v27.481  c0,3.693,4.174,5.841,7.18,3.695L256,61.907l248.82,177.729c3.005,2.147,7.18-0.002,7.18-3.695V208.46  c0-5.905-2.852-11.447-7.657-14.88L266.628,23.785C260.27,19.243,251.73,19.243,245.372,23.785z"/>
<path style="fill:#D23C69;" d="M0,222.293v13.648c0,3.693,4.175,5.841,7.18,3.695L256,61.907l248.82,177.729  c3.005,2.146,7.18-0.002,7.18-3.695v-13.648L256,39.436L0,222.293z"/>
<g>
	<path style="fill:#FF507D;" d="M292.571,208.193h-73.143c-5.054,0-9.143-4.094-9.143-9.143v-36.571   c0-25.205,20.509-45.714,45.714-45.714s45.714,20.509,45.714,45.714v36.571C301.714,204.099,297.625,208.193,292.571,208.193z"/>
	<path style="fill:#FF507D;" d="M210.286,427.621h-91.429c-5.054,0-9.143-4.094-9.143-9.143V253.907   c0-5.049,4.089-9.143,9.143-9.143h91.429c5.054,0,9.143,4.094,9.143,9.143v164.571   C219.429,423.528,215.339,427.621,210.286,427.621z"/>
</g>
<rect x="128" y="263.05" style="fill:#B4F0FF;" width="73.14" height="146.29"/>
<rect x="128" y="299.62" style="fill:#D23C69;" width="73.14" height="18.286"/>
<rect x="128" y="263.05" style="fill:#91E1F5;" width="73.14" height="18.286"/>
<path style="fill:#FF507D;" d="M393.143,427.621h-91.429c-5.054,0-9.143-4.094-9.143-9.143V253.907c0-5.049,4.089-9.143,9.143-9.143  h91.429c5.054,0,9.143,4.094,9.143,9.143v164.571C402.286,423.528,398.196,427.621,393.143,427.621z"/>
<rect x="310.86" y="263.05" style="fill:#B4F0FF;" width="73.14" height="146.29"/>
<rect x="310.86" y="299.62" style="fill:#D23C69;" width="73.14" height="18.286"/>
<rect x="310.86" y="263.05" style="fill:#91E1F5;" width="73.14" height="18.286"/>
<path style="fill:#B4F0FF;" d="M228.571,189.907h54.857v-27.429c0-15.125-12.304-27.429-27.429-27.429s-27.429,12.304-27.429,27.429  L228.571,189.907L228.571,189.907z"/>
<path style="fill:#91E1F5;" d="M256,135.05c-15.125,0-27.429,12.304-27.429,27.429v18.286c0-15.125,12.304-27.429,27.429-27.429  s27.429,12.304,27.429,27.429v-18.286C283.429,147.354,271.125,135.05,256,135.05z"/>
<path style="fill:#FFC850;" d="M484.571,400.193h-54.857c-5.049,0-9.143,4.093-9.143,9.143v9.143  c0,15.148-12.28,27.429-27.429,27.429h-91.429c-15.148,0-27.429-12.28-27.429-27.429v-9.143c0-5.049-4.093-9.143-9.143-9.143  h-18.286c-5.049,0-9.143,4.093-9.143,9.143v9.143c0,15.148-12.28,27.429-27.429,27.429h-91.429  c-15.148,0-27.429-12.28-27.429-27.429v-9.143c0-5.049-4.093-9.143-9.143-9.143H27.429c-5.049,0-9.143,4.093-9.143,9.143v73.143  c0,5.049,4.093,9.143,9.143,9.143h457.143c5.049,0,9.143-4.093,9.143-9.143v-73.143  C493.714,404.286,489.621,400.193,484.571,400.193z"/>
<g>
</g>
<g>
</g>
<g>
</g>
<g>
</g>
<g>
</g>
<g>
</g>
<g>
</g>
<g>
</g>
<g>
</g>
<g>
</g>
<g>
</g>
<g>
</g>
<g>
</g>
<g>
</g>
<g>
</g>
</svg>
