<?xml version="1.0" encoding="iso-8859-1"?>
<!-- Generator: Adobe Illustrator 19.0.0, SVG Export Plug-In . SVG Version: 6.00 Build 0)  -->
<svg xmlns="http://www.w3.org/2000/svg" xmlns:xlink="http://www.w3.org/1999/xlink" version="1.1" id="Layer_1" x="0px" y="0px" viewBox="0 0 512 512" style="enable-background:new 0 0 512 512;" xml:space="preserve">
<g>
	<circle style="fill:#FAEBC8;" cx="264.83" cy="35.31" r="35.31"/>
	<circle style="fill:#FAEBC8;" cx="353.1" cy="35.31" r="17.655"/>
</g>
<path style="fill:#FAD7A5;" d="M308.966,512h-44.138c-4.875,0-8.828-3.952-8.828-8.828v-61.793h52.966V512z"/>
<path style="fill:#F0C891;" d="M256,459.034v17.655h17.655c4.875,0,8.828,3.952,8.828,8.828V512h26.483v-52.966H256z"/>
<path style="fill:#FAD7A5;" d="M450.207,512h44.138c4.875,0,8.828-3.952,8.828-8.828v-61.793h-52.966V512z"/>
<path style="fill:#F0C891;" d="M503.172,459.034v17.655h-17.655c-4.875,0-8.828,3.952-8.828,8.828V512h-26.483v-52.966H503.172z"/>
<path style="fill:#FF507D;" d="M492.485,347.781l-77.589-21.161h-70.621l-77.589,21.161c-11.522,3.142-19.515,13.607-19.515,25.549  v76.876c0,4.875,3.952,8.828,8.828,8.828h44.138V512h158.897v-52.966h44.138c4.875,0,8.828-3.952,8.828-8.828V373.33  C512,361.388,504.007,350.923,492.485,347.781z"/>
<path style="fill:#D23C69;" d="M414.897,326.621h-70.621l-34.607,9.438c4.624,34.529,34.123,61.183,69.918,61.183  s65.294-26.654,69.918-61.183L414.897,326.621z"/>
<path style="fill:#FAD7A5;" d="M335.448,295.724v30.897c0,24.377,19.761,44.138,44.138,44.138s44.138-19.761,44.138-44.138v-30.897  H335.448z"/>
<path style="fill:#F0C891;" d="M335.448,315.93c13.258,6.801,28.242,10.691,44.138,10.691s30.88-3.89,44.138-10.691v-20.206h-88.276  V315.93z"/>
<path style="fill:#FFE1B4;" d="M459.034,194.207v-52.966H300.138v52.966c-9.751,0-17.655,7.904-17.655,17.655  c0,9.751,7.905,17.655,17.655,17.655c0,43.878,35.57,79.448,79.448,79.448s79.448-35.57,79.448-79.448  c9.751,0,17.655-7.905,17.655-17.655C476.69,202.111,468.785,194.207,459.034,194.207z"/>
<path style="fill:#FAD7A5;" d="M344.276,229.517v-88.276h-44.138v52.966c-9.751,0-17.655,7.904-17.655,17.655  c0,9.751,7.905,17.655,17.655,17.655c0,43.878,35.57,79.448,79.448,79.448c7.666,0,15.055-1.145,22.069-3.171  C368.526,296.223,344.276,265.729,344.276,229.517z"/>
<path style="fill:#D7AF7D;" d="M379.586,273.655c-9.345,0-18.276-4.409-24.509-12.095c-3.078-3.789-2.491-9.345,1.293-12.418  c3.802-3.065,9.353-2.478,12.414,1.297c5.828,7.172,15.776,7.172,21.603,0c3.069-3.776,8.621-4.362,12.414-1.297  c3.784,3.073,4.371,8.629,1.293,12.418C397.862,269.246,388.931,273.655,379.586,273.655z"/>
<g>
	<path style="fill:#64463C;" d="M344.276,229.517c-4.879,0-8.828-3.953-8.828-8.828v-8.828c0-4.875,3.948-8.828,8.828-8.828   c4.879,0,8.828,3.953,8.828,8.828v8.828C353.103,225.565,349.155,229.517,344.276,229.517z"/>
	<path style="fill:#64463C;" d="M414.897,229.517c-4.879,0-8.828-3.953-8.828-8.828v-8.828c0-4.875,3.948-8.828,8.828-8.828   s8.828,3.953,8.828,8.828v8.828C423.724,225.565,419.776,229.517,414.897,229.517z"/>
</g>
<path style="fill:#D59F63;" d="M439.009,185.805c2.578,6.827,9.875,9.92,17.063,8.659c0.961-0.169,1.95-0.257,2.962-0.257  c3.232,0,6.222,0.932,8.828,2.449v-55.414c0-13.207-7.336-24.585-18.074-30.641c-2.006-12.637-12.862-22.325-26.064-22.325h-70.621  c-34.127,0-61.793,27.666-61.793,61.793v46.587c2.606-1.517,5.595-2.449,8.828-2.449c1.135,0,2.242,0.11,3.312,0.321  c8.597,1.693,17.206-3.059,19.359-11.553l0,0l2.171-8.683c0.959-3.838,4.324-6.574,8.278-6.681  c16.424-0.443,59.779-2.621,89.34-13.321c5.234-1.894,10.874,1.293,11.789,6.783l3.305,19.832  C437.975,182.608,438.42,184.245,439.009,185.805z"/>
<path style="fill:#CD915A;" d="M344.276,141.241c0-29.252,23.713-52.966,52.966-52.966h-44.138  c-34.127,0-61.793,27.665-61.793,61.793v46.587c2.606-1.517,5.595-2.449,8.828-2.449c1.135,0,2.241,0.11,3.311,0.321  c8.598,1.692,17.206-3.059,19.359-11.553l2.171-8.683c0.959-3.838,4.323-6.574,8.278-6.681c2.898-0.078,6.668-0.215,11.019-0.439  v-25.93H344.276z"/>
<g>
	<path style="fill:#D23C69;" d="M247.172,373.33v76.877c0,4.875,3.952,8.828,8.828,8.828h44.138v-28.994   c0-9.815-3.272-19.35-9.298-27.098l-36.785-47.295C249.776,360.393,247.172,366.599,247.172,373.33z"/>
	<path style="fill:#D23C69;" d="M512,373.33v76.877c0,4.875-3.952,8.828-8.828,8.828h-44.138v-28.994   c0-9.815,3.272-19.35,9.298-27.098l36.785-47.295C509.396,360.393,512,366.599,512,373.33z"/>
</g>
<circle style="fill:#FAEBC8;" cx="114.76" cy="150.07" r="114.76"/>
<path style="fill:#F0C087;" d="M176.552,141.241c-0.866,0-1.695,0.135-2.527,0.255c-7.52-25.648-31.186-44.393-59.266-44.393  s-51.746,18.745-59.266,44.393c-0.832-0.12-1.662-0.255-2.527-0.255c-9.751,0-17.655,7.904-17.655,17.655  c0,9.751,7.905,17.655,17.655,17.655c0.866,0,1.695-0.135,2.527-0.255c7.52,25.648,31.186,44.393,59.266,44.393  s51.746-18.745,59.266-44.393c0.832,0.12,1.662,0.255,2.527,0.255c9.751,0,17.655-7.905,17.655-17.655  C194.207,149.145,186.302,141.241,176.552,141.241z"/>
<path style="fill:#E6AF78;" d="M88.276,158.897c0-27.897,18.494-51.455,43.885-59.135c-5.537-1.631-11.335-2.658-17.402-2.658  c-28.08,0-51.746,18.745-59.266,44.393c-0.832-0.12-1.662-0.255-2.527-0.255c-9.751,0-17.655,7.904-17.655,17.655  c0,9.751,7.905,17.655,17.655,17.655c0.866,0,1.695-0.135,2.527-0.255c7.52,25.648,31.186,44.393,59.266,44.393  c6.067,0,11.865-1.027,17.402-2.658C106.77,210.352,88.276,186.793,88.276,158.897z"/>
<g>
	<path style="fill:#553732;" d="M88.276,167.724c-4.879,0-8.828-3.953-8.828-8.828v-8.828c0-4.875,3.948-8.828,8.828-8.828   s8.828,3.953,8.828,8.828v8.828C97.103,163.772,93.155,167.724,88.276,167.724z"/>
	<path style="fill:#553732;" d="M141.241,167.724c-4.879,0-8.828-3.953-8.828-8.828v-8.828c0-4.875,3.948-8.828,8.828-8.828   c4.879,0,8.828,3.953,8.828,8.828v8.828C150.069,163.772,146.121,167.724,141.241,167.724z"/>
</g>
<path style="fill:#D29B6E;" d="M114.759,199.358c-8.009,0-15.543-2.53-21.198-7.129c-3.784-3.073-4.353-8.634-1.284-12.414  c3.086-3.789,8.647-4.362,12.422-1.284c4.966,4.034,15.155,4.034,20.121,0c3.793-3.078,9.345-2.504,12.422,1.284  c3.069,3.78,2.5,9.341-1.284,12.414C130.302,196.828,122.767,199.358,114.759,199.358z"/>
<path style="fill:#FF507D;" d="M153.086,81.384L114.757,94.16L76.43,81.385c-2.858-0.953-5.81,1.175-5.81,4.187v23.063  c0,3.013,2.951,5.14,5.81,4.187l38.329-12.776l38.327,12.776c2.858,0.953,5.81-1.175,5.81-4.187V85.572  C158.896,82.559,155.945,80.432,153.086,81.384z"/>
<circle style="fill:#D23C69;" cx="114.76" cy="97.1" r="8.828"/>
<g>
</g>
<g>
</g>
<g>
</g>
<g>
</g>
<g>
</g>
<g>
</g>
<g>
</g>
<g>
</g>
<g>
</g>
<g>
</g>
<g>
</g>
<g>
</g>
<g>
</g>
<g>
</g>
<g>
</g>
</svg>
