<?xml version="1.0" encoding="iso-8859-1"?>
<!-- Generator: Adobe Illustrator 19.0.0, SVG Export Plug-In . SVG Version: 6.00 Build 0)  -->
<svg xmlns="http://www.w3.org/2000/svg" xmlns:xlink="http://www.w3.org/1999/xlink" version="1.1" id="Layer_1" x="0px" y="0px" viewBox="0 0 512.002 512.002" style="enable-background:new 0 0 512.002 512.002;" xml:space="preserve">
<path style="fill:#64463C;" d="M388.414,79.448L388.414,79.448L388.414,79.448L388.414,79.448L388.414,79.448  c53.629,0,97.104,43.475,97.104,97.103l0,0c0,61.793,8.828,123.586,8.828,123.586s-44.138,26.483-105.931,35.31  c-61.793-8.828-105.931-35.31-105.931-35.31s8.828-61.793,8.828-123.586l0,0C291.31,122.923,334.785,79.448,388.414,79.448  L388.414,79.448L388.414,79.448L388.414,79.448L388.414,79.448z"/>
<path style="fill:#553732;" d="M353.103,167.724v-26.483c0-30.008,21.396-55,49.76-60.602c-4.726-0.707-9.525-1.191-14.449-1.191  h-0.001c-53.629,0-97.103,43.475-97.103,97.103c0,61.793-8.828,123.586-8.828,123.586s44.138,26.483,105.931,35.31V203.034  L353.103,167.724z"/>
<path style="fill:#B48764;" d="M495.353,364.1l-60.531-24.212c-6.703-2.681-11.098-9.173-11.098-16.392V291.31h-70.621v32.185  c0,7.219-4.395,13.711-11.098,16.392l-60.53,24.213c-10.054,4.022-16.647,13.76-16.647,24.588v35.036  c0,4.875,3.952,8.828,8.828,8.828l0,0v70.621c0,4.875,3.952,8.828,8.828,8.828h211.862c4.875,0,8.828-3.952,8.828-8.828v-70.621l0,0  c4.875,0,8.828-3.952,8.828-8.828v-35.036C512,377.859,505.407,368.121,495.353,364.1z"/>
<g>
	<path style="fill:#966D50;" d="M273.655,423.724v26.483h8.828c4.875,0,8.828,3.952,8.828,8.828V512h26.483v-88.276H273.655z"/>
	<path style="fill:#966D50;" d="M503.172,423.724v26.483h-8.828c-4.875,0-8.828,3.952-8.828,8.828V512h-26.483v-88.276H503.172z"/>
	<path style="fill:#966D50;" d="M353.103,319.878c10.96,4.299,22.844,6.744,35.31,6.744s24.35-2.445,35.31-6.744V291.31h-70.621   v28.567H353.103z"/>
</g>
<path style="fill:#C39772;" d="M467.862,229.517c0-58.445-63.176-37.921-107.367-65.402c-4.024-2.502-9.382-1.421-12,2.529  c-6.819,10.288-20.774,27.212-38.964,27.557c-9.951,0.189-18.22,7.568-18.22,17.521v0.14c0,9.751,7.904,17.655,17.655,17.655  c0,6.069,0.68,11.978,1.969,17.657c8.029,35.38,39.67,61.791,77.479,61.791s69.45-26.411,77.479-61.791  C467.182,241.496,467.862,235.586,467.862,229.517z"/>
<path style="fill:#B48764;" d="M353.103,229.517v-66.198c-1.812,0.582-3.484,1.629-4.608,3.325  c-6.819,10.288-20.774,27.212-38.964,27.558c-9.952,0.189-18.22,7.568-18.22,17.52v0.14c0,9.751,7.905,17.655,17.655,17.655  c0,6.068,0.681,11.978,1.969,17.657c8.029,35.38,39.669,61.791,77.479,61.791c7.672,0,15.07-1.137,22.088-3.166  C377.363,296.234,353.103,265.736,353.103,229.517z"/>
<path style="fill:#966D50;" d="M388.414,273.655c-9.345,0-18.276-4.409-24.509-12.095c-3.078-3.789-2.491-9.345,1.293-12.418  c3.802-3.069,9.353-2.483,12.414,1.297c5.828,7.172,15.776,7.172,21.603,0c3.06-3.78,8.621-4.366,12.414-1.297  c3.784,3.073,4.371,8.629,1.293,12.418C406.69,269.246,397.759,273.655,388.414,273.655z"/>
<g>
	<path style="fill:#553732;" d="M423.724,229.517c-4.879,0-8.828-3.953-8.828-8.828v-8.828c0-4.875,3.948-8.828,8.828-8.828   c4.879,0,8.828,3.953,8.828,8.828v8.828C432.552,225.565,428.603,229.517,423.724,229.517z"/>
	<path style="fill:#553732;" d="M353.103,229.517c-4.879,0-8.828-3.953-8.828-8.828v-8.828c0-4.875,3.948-8.828,8.828-8.828   s8.828,3.953,8.828,8.828v8.828C361.931,225.565,357.983,229.517,353.103,229.517z"/>
</g>
<path style="fill:#00AAF0;" d="M495.353,364.1l-37.655-15.062c-6.339,32.496-34.933,57.031-69.284,57.031  s-62.945-24.536-69.284-57.031L281.475,364.1c-10.054,4.022-16.647,13.759-16.647,24.588v35.036c0,4.875,3.952,8.828,8.828,8.828  h35.31V512h158.897v-79.448h35.31c4.876,0,8.828-3.953,8.828-8.828v-35.036C512,377.859,505.407,368.121,495.353,364.1z"/>
<g>
	<path style="fill:#0096DC;" d="M457.698,349.038c-6.339,32.496-34.933,57.031-69.284,57.031s-62.945-24.536-69.284-57.031   l-16.574,6.629c9.153,38.992,44.073,68.057,85.858,68.057s76.705-29.065,85.858-68.057L457.698,349.038z"/>
	<path style="fill:#0096DC;" d="M308.966,422.21c0-4.682-1.86-9.173-5.171-12.484l-34.951-34.951   c-2.539,4.101-4.016,8.874-4.016,13.913v35.036c0,4.875,3.952,8.828,8.828,8.828h35.31L308.966,422.21L308.966,422.21z"/>
	<path style="fill:#0096DC;" d="M467.862,422.21c0-4.682,1.86-9.173,5.171-12.484l34.951-34.951   c2.539,4.101,4.016,8.874,4.016,13.913v35.036c0,4.875-3.952,8.828-8.828,8.828h-35.31L467.862,422.21L467.862,422.21z"/>
</g>
<g>
	<circle style="fill:#FAEBC8;" cx="114.76" cy="150.07" r="114.76"/>
	<circle style="fill:#FAEBC8;" cx="264.83" cy="35.31" r="35.31"/>
	<circle style="fill:#FAEBC8;" cx="353.1" cy="35.31" r="17.655"/>
</g>
<path style="fill:#F0C087;" d="M176.552,141.241c-0.866,0-1.695,0.135-2.527,0.255c-7.52-25.648-31.186-44.393-59.266-44.393  s-51.746,18.745-59.266,44.393c-0.832-0.12-1.662-0.255-2.527-0.255c-9.751,0-17.655,7.904-17.655,17.655  c0,9.751,7.905,17.655,17.655,17.655c0.866,0,1.695-0.135,2.527-0.255c7.52,25.648,31.186,44.393,59.266,44.393  s51.746-18.745,59.266-44.393c0.832,0.12,1.662,0.255,2.527,0.255c9.751,0,17.655-7.905,17.655-17.655  C194.207,149.145,186.302,141.241,176.552,141.241z"/>
<path style="fill:#E6AF78;" d="M88.276,158.897c0-27.897,18.494-51.455,43.885-59.135c-5.537-1.631-11.335-2.658-17.402-2.658  c-28.08,0-51.746,18.745-59.266,44.393c-0.832-0.12-1.662-0.255-2.527-0.255c-9.751,0-17.655,7.904-17.655,17.655  c0,9.751,7.905,17.655,17.655,17.655c0.866,0,1.695-0.135,2.527-0.255c7.52,25.648,31.186,44.393,59.266,44.393  c6.067,0,11.865-1.027,17.402-2.658C106.77,210.352,88.276,186.793,88.276,158.897z"/>
<g>
	<path style="fill:#553732;" d="M88.276,167.724c-4.879,0-8.828-3.953-8.828-8.828v-8.828c0-4.875,3.948-8.828,8.828-8.828   s8.828,3.953,8.828,8.828v8.828C97.103,163.772,93.155,167.724,88.276,167.724z"/>
	<path style="fill:#553732;" d="M141.241,167.724c-4.879,0-8.828-3.953-8.828-8.828v-8.828c0-4.875,3.948-8.828,8.828-8.828   c4.879,0,8.828,3.953,8.828,8.828v8.828C150.069,163.772,146.121,167.724,141.241,167.724z"/>
</g>
<path style="fill:#D29B6E;" d="M114.759,199.358c-8.009,0-15.543-2.53-21.198-7.129c-3.784-3.073-4.353-8.634-1.284-12.414  c3.086-3.789,8.647-4.362,12.422-1.284c4.966,4.034,15.155,4.034,20.121,0c3.793-3.078,9.345-2.504,12.422,1.284  c3.069,3.78,2.5,9.341-1.284,12.414C130.302,196.828,122.767,199.358,114.759,199.358z"/>
<path style="fill:#966D50;" d="M114.759,114.759c-14.603,0-26.483-11.879-26.483-26.483s11.879-26.483,26.483-26.483  c4.879,0,8.828,3.953,8.828,8.828s-3.948,8.828-8.828,8.828c-4.871,0-8.828,3.961-8.828,8.828s3.957,8.828,8.828,8.828  c4.879,0,8.828,3.953,8.828,8.828S119.638,114.759,114.759,114.759z"/>
<g>
</g>
<g>
</g>
<g>
</g>
<g>
</g>
<g>
</g>
<g>
</g>
<g>
</g>
<g>
</g>
<g>
</g>
<g>
</g>
<g>
</g>
<g>
</g>
<g>
</g>
<g>
</g>
<g>
</g>
</svg>
