<?xml version="1.0" encoding="iso-8859-1"?>
<!-- Generator: Adobe Illustrator 19.0.0, SVG Export Plug-In . SVG Version: 6.00 Build 0)  -->
<svg xmlns="http://www.w3.org/2000/svg" xmlns:xlink="http://www.w3.org/1999/xlink" version="1.1" id="Layer_1" x="0px" y="0px" viewBox="0 0 512.001 512.001" style="enable-background:new 0 0 512.001 512.001;" xml:space="preserve">
<path style="fill:#B48764;" d="M341.172,310.813l-66.886-18.241H128.001l-66.885,18.241c-19.889,5.424-33.687,23.489-33.687,44.104  v147.941c0,5.049,4.093,9.143,9.143,9.143h329.143c5.049,0,9.143-4.093,9.143-9.143V354.915  C374.858,334.301,361.061,316.236,341.172,310.813z"/>
<rect x="146.29" y="237.71" style="fill:#E6AF78;" width="109.71" height="73.14"/>
<path style="fill:#D29B6E;" d="M146.286,270.833c16.719,8.045,35.336,12.595,54.857,12.595s38.138-4.55,54.857-12.595v-33.119  H146.286V270.833z"/>
<path style="fill:#F0C087;" d="M315.43,118.857h-4.571V91.429C310.858,40.934,269.924,0,219.43,0h-36.571  C132.365,0,91.43,40.934,91.43,91.429v27.429h-4.571c-12.625-0.001-22.858,10.232-22.858,22.856  c0,12.623,10.233,22.857,22.857,22.857h5.033c4.657,56.305,51.746,100.571,109.253,100.571s104.596-44.267,109.253-100.571h5.033  c12.624,0,22.857-10.234,22.857-22.857C338.287,129.09,328.053,118.857,315.43,118.857z"/>
<path style="fill:#E6AF78;" d="M155.43,155.429v-64c0-45.821,33.743-83.657,77.714-90.29C228.659,0.462,224.103,0,219.43,0h-36.571  C132.365,0,91.43,40.934,91.43,91.429v27.429h-4.571c-12.625-0.001-22.858,10.232-22.858,22.856  c0,12.623,10.233,22.857,22.857,22.857h5.033c4.657,56.305,51.746,100.571,109.253,100.571c11.136,0,21.873-1.688,32-4.772  C188.165,246.672,155.43,204.886,155.43,155.429z"/>
<g>
	<path style="fill:#64463C;" d="M155.43,155.429c-5.054,0-9.143-4.094-9.143-9.143v-9.143c0-5.049,4.089-9.143,9.143-9.143   s9.143,4.094,9.143,9.143v9.143C164.572,151.335,160.482,155.429,155.43,155.429z"/>
	<path style="fill:#64463C;" d="M246.857,155.429c-5.054,0-9.143-4.094-9.143-9.143v-9.143c0-5.049,4.089-9.143,9.143-9.143   s9.143,4.094,9.143,9.143v9.143C256.001,151.335,251.911,155.429,246.857,155.429z"/>
</g>
<path style="fill:#D29B6E;" d="M201.144,219.429c-12.625,0-24.429-3.987-33.232-11.223c-3.902-3.205-4.464-8.969-1.259-12.871  c3.196-3.884,8.964-4.469,12.866-1.254c10.929,8.973,32.321,8.973,43.25,0c3.902-3.214,9.67-2.629,12.866,1.254  c3.205,3.902,2.643,9.665-1.259,12.871C225.572,215.442,213.769,219.429,201.144,219.429z"/>
<g>
	<path style="fill:#D5DCED;" d="M128.001,36.571c0-10.099-8.187-18.286-18.286-18.286s-18.286,8.186-18.286,18.286   c0,0.106,0.03,0.204,0.031,0.309c-1.015-0.129-2.015-0.309-3.065-0.309c-13.472,0-24.394,10.922-24.394,24.394   c0,5.878,2.164,11.197,5.627,15.409c-8.741,4.585-14.77,13.641-14.77,24.197c0,15.148,12.28,27.429,27.429,27.429   s27.429-12.28,27.429-27.429c0-7.507-3.028-14.299-7.915-19.251c6.613-4.363,10.989-11.839,10.989-20.355   c0-2.202-0.386-4.295-0.932-6.324C120.933,53.569,128.001,45.936,128.001,36.571z"/>
	<path style="fill:#D5DCED;" d="M274.287,36.571c0-10.099,8.187-18.286,18.286-18.286s18.286,8.186,18.286,18.286   c0,0.106-0.03,0.204-0.031,0.309c1.015-0.129,2.015-0.309,3.065-0.309c13.473,0,24.395,10.921,24.395,24.394   c0,5.878-2.164,11.197-5.627,15.409c8.741,4.585,14.77,13.641,14.77,24.197C347.43,115.72,335.149,128,320.001,128   s-27.429-12.28-27.429-27.429c0-7.507,3.028-14.299,7.915-19.251c-6.613-4.363-10.989-11.839-10.989-20.355   c0-2.202,0.386-4.295,0.932-6.324C281.354,53.569,274.287,45.936,274.287,36.571z"/>
</g>
<g>
	<path style="fill:#966D50;" d="M100.572,512H73.144V406.857c0-7.574,6.14-13.714,13.714-13.714l0,0   c7.574,0,13.714,6.14,13.714,13.714C100.572,406.857,100.572,512,100.572,512z"/>
	<path style="fill:#966D50;" d="M329.144,512h-27.429V406.857c0-7.574,6.14-13.714,13.714-13.714l0,0   c7.574,0,13.714,6.14,13.714,13.714V512H329.144z"/>
</g>
<path style="fill:#FFDC64;" d="M362.417,323.769c-5.645-6.035-12.85-10.667-21.245-12.956l-42.648-11.631  c-9.093,17.851-38.059,68.451-91.839,108.248c-3.245,2.401-7.837,2.401-11.081,0c-53.78-39.797-82.746-90.397-91.839-108.248  l-42.648,11.631c-8.395,2.29-15.6,6.922-21.245,12.956l42.536,57.232c5.859,7.884,9.024,17.446,9.024,27.269V512h219.429V408.27  c0-9.823,3.164-19.385,9.024-27.269L362.417,323.769z"/>
<path style="fill:#966D50;" d="M201.144,384L201.144,384c-5.049,0-9.143-4.093-9.143-9.143v-64h18.286v64  C210.286,379.907,206.193,384,201.144,384z"/>
<g>
	<path style="fill:#C39772;" d="M201.144,310.857l-29.482,22.112c-3.951,2.963-9.54,2.253-12.625-1.603l-31.036-38.795l5.228-15.685   c1.945-5.836,8.982-8.124,13.988-4.549L201.144,310.857z"/>
	<path style="fill:#C39772;" d="M201.144,310.857l29.482,22.112c3.951,2.963,9.54,2.253,12.625-1.603l31.036-38.795l-5.228-15.685   c-1.945-5.836-8.982-8.124-13.988-4.549L201.144,310.857z"/>
</g>
<path style="fill:#FFC850;" d="M103.764,299.181l-17.742,4.839l0.702,1.801l0.741,1.665c10.509,20.607,41.009,73.036,97.295,114.67  c9.643,7.134,23.125,7.134,32.768,0c56.286-41.634,86.786-94.063,97.295-114.67l1.365-3.488l-17.663-4.817  c-9.095,17.855-38.072,68.473-91.873,108.274c-3.225,2.386-7.788,2.386-11.013,0C141.836,367.654,112.859,317.036,103.764,299.181z"/>
<path style="fill:#FAD7A5;" d="M420.103,460.034l-29.851-9.95c-3.733-1.244-6.251-4.738-6.251-8.673v-20.839h-54.857v20.839  c0,3.935-2.518,7.429-6.251,8.673l-29.851,9.95c-11.2,3.733-18.755,14.215-18.755,26.021v16.802c0,5.049,4.093,9.143,9.143,9.143  h146.286c5.049,0,9.143-4.093,9.143-9.143v-16.802C438.858,474.249,431.304,463.768,420.103,460.034z"/>
<path style="fill:#F0C891;" d="M329.144,420.571v20.839c0,0.522-0.154,1.004-0.239,1.506c7.92,2.972,16.354,4.782,25.15,5.046  c0.839,0.025,1.684,0.037,2.518,0.037c9.728,0,19.028-1.781,27.698-4.895c-0.108-0.561-0.27-1.108-0.27-1.695V420.57h-54.857  V420.571z"/>
<path style="fill:#FFE1B4;" d="M429.715,322.536v-11.679h-9.143h-128h-9.143v11.679c-5.443,3.167-9.143,8.998-9.143,15.749  c0,10.099,8.187,18.286,18.286,18.286v6.459c0,35.044,27.003,65.603,62.031,66.654c36.245,1.088,65.969-27.97,65.969-63.97v-9.143  c10.099,0,18.286-8.187,18.286-18.286C438.858,331.534,435.158,325.704,429.715,322.536z"/>
<g>
	<path style="fill:#FFAA50;" d="M420.103,460.034l-14.91-4.97c-9.157,17.527-27.477,29.507-48.621,29.507   s-39.464-11.98-48.621-29.507l-14.91,4.97c-11.2,3.733-18.755,14.215-18.755,26.021v16.802c0,5.049,4.093,9.143,9.143,9.143   h146.286c5.049,0,9.143-4.093,9.143-9.143v-16.802C438.858,474.249,431.303,463.767,420.103,460.034z"/>
	<path style="fill:#FFAA50;" d="M475.43,292.571h-46.441c-4.447-31.004-31.04-54.857-63.273-54.857h-18.286   c-35.346,0-64,28.653-64,64v9.143h192c5.05,0,9.143-4.094,9.143-9.143C484.572,296.665,480.479,292.571,475.43,292.571z"/>
</g>
<path style="fill:#FAD7A5;" d="M329.144,365.714v-27.429c0-5.049,4.093-9.143,9.143-9.143h98.073  c-1.607-2.729-3.9-5.009-6.645-6.607v-11.679H283.43v11.679c-5.443,3.167-9.143,8.998-9.143,15.749  c0,10.099,8.187,18.286,18.286,18.286v6.459c0,32.172,22.566,61.219,54.385,65.969c9.807,1.464,19.225,0.614,27.9-1.97  C348.428,419.157,329.144,394.701,329.144,365.714z"/>
<path style="fill:#F0C891;" d="M356.572,402.286c-9.679,0-18.929-4.567-25.384-12.527c-3.188-3.924-2.58-9.679,1.339-12.862  c3.929-3.174,9.688-2.567,12.857,1.344c6.036,7.429,16.339,7.429,22.375,0c3.17-3.911,8.92-4.518,12.857-1.344  c3.92,3.183,4.527,8.938,1.339,12.862C375.501,397.719,366.251,402.286,356.572,402.286z"/>
<g>
	<path style="fill:#553732;" d="M329.144,356.571c-2.375,0-4.759-1.009-6.491-2.652c-1.652-1.736-2.652-4.115-2.652-6.49   c0-2.379,1-4.754,2.652-6.491c3.384-3.384,9.598-3.384,12.982,0c1.643,1.737,2.652,4.112,2.652,6.491   c0,2.375-1.009,4.754-2.652,6.491C333.894,355.563,331.519,356.571,329.144,356.571z"/>
	<path style="fill:#553732;" d="M384.001,356.571c-2.375,0-4.759-1.009-6.491-2.652c-0.821-0.826-1.464-1.83-1.92-3.018   c-0.455-1.098-0.732-2.286-0.732-3.473c0-1.192,0.277-2.379,0.732-3.478c0.455-1.188,1.098-2.192,1.92-3.013   c3.384-3.384,9.509-3.384,12.982,0c0.821,0.911,1.464,1.826,1.92,3.013c0.455,1.098,0.732,2.286,0.732,3.478   c0,2.375-1.009,4.754-2.652,6.491C388.751,355.563,386.376,356.571,384.001,356.571z"/>
</g>
<path style="fill:#FF913C;" d="M379.377,239.238c-4.407-0.961-8.964-1.523-13.661-1.523H347.43c-35.346,0-64,28.653-64,64v9.143  h45.714v-9.143C329.144,271.099,350.654,245.541,379.377,239.238z"/>
<g>
</g>
<g>
</g>
<g>
</g>
<g>
</g>
<g>
</g>
<g>
</g>
<g>
</g>
<g>
</g>
<g>
</g>
<g>
</g>
<g>
</g>
<g>
</g>
<g>
</g>
<g>
</g>
<g>
</g>
</svg>
