<?xml version="1.0" encoding="iso-8859-1"?>
<!-- Generator: Adobe Illustrator 19.0.0, SVG Export Plug-In . SVG Version: 6.00 Build 0)  -->
<svg xmlns="http://www.w3.org/2000/svg" xmlns:xlink="http://www.w3.org/1999/xlink" version="1.1" id="Layer_1" x="0px" y="0px" viewBox="0 0 512 512" style="enable-background:new 0 0 512 512;" xml:space="preserve">
<g>
	<path style="fill:#C7CFE2;" d="M123.429,228.571C108.28,228.571,96,240.852,96,256c0,4.531,1.203,8.741,3.148,12.506   c-12.621,5.766-21.434,18.426-21.434,33.208c0,20.198,16.373,36.571,36.571,36.571h54.857V228.571H123.429z"/>
	<path style="fill:#C7CFE2;" d="M306.286,228.571c15.148,0,27.429,12.28,27.429,27.429c0,4.531-1.203,8.741-3.148,12.506   c12.62,5.766,21.433,18.426,21.433,33.208c0,20.198-16.373,36.571-36.571,36.571h-54.857V228.571H306.286z"/>
</g>
<path style="fill:#EBC9A0;" d="M334.907,329.739l-64.228-32.114c-6.195-3.098-10.108-9.429-10.108-16.355h-91.429  c0,6.926-3.913,13.258-10.108,16.355l-64.228,32.114c-21.682,10.841-35.378,33.002-35.378,57.243v106.732  c0,10.099,8.187,18.286,18.286,18.286H352c10.099,0,18.286-8.187,18.286-18.286V386.983  C370.286,362.741,356.59,340.581,334.907,329.739z"/>
<path style="fill:#E6AF78;" d="M214.857,338.286c28.411,0,53.795-12.96,70.564-33.29l-14.742-7.371  c-6.195-3.098-10.108-9.429-10.108-16.355h-91.429c0,6.926-3.913,13.258-10.108,16.355l-14.742,7.371  C161.062,325.325,186.446,338.286,214.857,338.286z"/>
<path style="fill:#D29B6E;" d="M260.571,281.27h-91.429c0,6.476-3.509,12.326-9.018,15.605  c15.806,8.537,33.613,13.616,52.515,13.962l2.218,0.02c19.916,0,38.671-4.982,55.177-13.676  C264.247,293.967,260.571,287.93,260.571,281.27z"/>
<ellipse style="fill:#D5DCED;" cx="214.86" cy="123.43" rx="128" ry="123.43"/>
<path style="fill:#C7CFE2;" d="M169.143,114.286c0-49.2,29.927-91.55,73.118-111.379C233.424,1.046,224.273,0,214.857,0  c-70.693,0-128,55.261-128,123.429c0,68.167,57.307,123.429,128,123.429c19.67,0,38.23-4.405,54.882-12.049  C212.228,222.699,169.143,173.374,169.143,114.286z"/>
<path style="fill:#F0C087;" d="M163.87,114.647c-7.633,6.855-22.644,19.314-38.958,27.252c-6.412,3.12-10.626,9.44-10.626,16.571  v30.195c0,55.375,43.322,102.876,98.688,103.889C269.38,293.586,315.428,248.171,315.428,192c0-61.561-93.051-46.989-140.828-78.336  C171.252,111.467,166.849,111.971,163.87,114.647z"/>
<path style="fill:#E6AF78;" d="M169.143,192v-79.669c-1.908,0.177-3.771,0.967-5.273,2.316  c-7.633,6.855-22.643,19.314-38.958,27.252c-6.412,3.12-10.626,9.44-10.626,16.571v30.195c0,55.375,43.322,102.876,98.688,103.89  c10.218,0.187,20.079-1.194,29.406-3.843C200.137,276.79,169.143,238.056,169.143,192z"/>
<path style="fill:#D29B6E;" d="M214.857,246.857c-12.625,0-24.429-3.987-33.232-11.223c-3.902-3.205-4.464-8.969-1.259-12.871  c3.196-3.888,8.964-4.46,12.866-1.254c10.929,8.973,32.321,8.973,43.25,0c3.902-3.205,9.67-2.634,12.866,1.254  c3.205,3.902,2.643,9.665-1.259,12.871C239.286,242.871,227.482,246.857,214.857,246.857z"/>
<g>
	<path style="fill:#64463C;" d="M169.143,192c-5.054,0-9.143-4.094-9.143-9.143v-3.429c0-5.049,4.089-9.143,9.143-9.143   s9.143,4.094,9.143,9.143v3.429C178.286,187.906,174.196,192,169.143,192z"/>
	<path style="fill:#64463C;" d="M260.571,192c-5.054,0-9.143-4.094-9.143-9.143v-3.429c0-5.049,4.089-9.143,9.143-9.143   s9.143,4.094,9.143,9.143v3.429C269.714,187.906,265.625,192,260.571,192z"/>
</g>
<path style="fill:#707487;" d="M233.152,192c-2.938,0-5.813-1.411-7.58-4.022c-4.268-6.321-17.161-6.321-21.429,0  c-2.821,4.174-8.518,5.281-12.688,2.455c-4.188-2.83-5.286-8.513-2.455-12.696c5.571-8.246,15.241-13.165,25.857-13.165  s20.286,4.92,25.857,13.165c2.83,4.183,1.732,9.866-2.455,12.696C236.696,191.491,234.911,192,233.152,192z"/>
<g>
	<path style="fill:#D7B48D;" d="M116.818,401.984l-40.604-58.005c-10.55,11.589-16.785,26.786-16.785,43.003v106.732   c0,10.099,8.187,18.286,18.286,18.286h45.714v-89.044C123.429,415.453,121.121,408.131,116.818,401.984z"/>
	<path style="fill:#D7B48D;" d="M312.897,401.984l40.604-58.005c10.55,11.589,16.785,26.786,16.785,43.003V512h-64v-89.044   C306.286,415.453,308.594,408.131,312.897,401.984z"/>
	<path style="fill:#D7B48D;" d="M214.857,384c46.263,0,87.164-23.088,112.014-58.278l-16.595-8.298   c-21.674,29.229-56.32,48.291-95.419,48.291s-73.745-19.062-95.419-48.291l-16.595,8.298C127.693,360.912,168.594,384,214.857,384z   "/>
</g>
<g>
	<path style="fill:#7F8499;" d="M169.143,219.429c-20.17,0-36.571-16.406-36.571-36.571s16.402-36.571,36.571-36.571   s36.571,16.406,36.571,36.571S189.313,219.429,169.143,219.429z M169.143,164.571c-10.08,0-18.286,8.201-18.286,18.286   s8.205,18.286,18.286,18.286c10.08,0,18.286-8.201,18.286-18.286S179.223,164.571,169.143,164.571z"/>
	<path style="fill:#7F8499;" d="M260.571,219.429c-20.17,0-36.571-16.406-36.571-36.571s16.402-36.571,36.571-36.571   c20.17,0,36.571,16.406,36.571,36.571S280.741,219.429,260.571,219.429z M260.571,164.571c-10.08,0-18.286,8.201-18.286,18.286   s8.205,18.286,18.286,18.286c10.08,0,18.286-8.201,18.286-18.286S270.652,164.571,260.571,164.571z"/>
</g>
<path style="fill:#E6AF78;" d="M433.816,460.034l-29.851-9.95c-3.733-1.244-6.251-4.738-6.251-8.673v-20.839h-54.857v20.839  c0,3.935-2.518,7.429-6.251,8.673l-29.851,9.95c-11.2,3.733-18.755,14.215-18.755,26.021v16.802c0,5.049,4.093,9.143,9.143,9.143  h146.286c5.049,0,9.143-4.093,9.143-9.143v-16.802C452.571,474.249,445.017,463.768,433.816,460.034z"/>
<path style="fill:#D29B6E;" d="M342.857,420.571v20.839c0,0.522-0.154,1.004-0.239,1.506c7.92,2.972,16.354,4.782,25.15,5.046  c0.839,0.025,1.684,0.037,2.518,0.037c9.728,0,19.028-1.781,27.698-4.895c-0.108-0.561-0.27-1.108-0.27-1.695V420.57h-54.857  V420.571z"/>
<path style="fill:#64463C;" d="M370.286,228.571L370.286,228.571c-45.445,0-82.286,36.841-82.286,82.286v27.429H452.57v-27.429  C452.571,265.412,415.73,228.571,370.286,228.571z"/>
<path style="fill:#553732;" d="M397.714,233.354c-8.59-3.041-17.796-4.782-27.429-4.782c-45.445,0-82.286,36.84-82.286,82.286  v27.429h54.857v-27.429C342.857,275.045,365.776,244.661,397.714,233.354z"/>
<path style="fill:#F0C087;" d="M434.286,320v-7.917c0-13.492-14.088-21.956-26.269-16.155C357.584,319.945,306.286,320,306.286,320  C296.187,320,288,328.186,288,338.286c0,10.099,8.187,18.286,18.286,18.286v6.459c0,35.043,27.003,65.603,62.031,66.654  c36.245,1.088,65.969-27.97,65.969-63.97v-9.143c10.099,0,18.286-8.187,18.286-18.286C452.571,328.186,444.384,320,434.286,320z"/>
<path style="fill:#B4E66E;" d="M418.771,213.017l-48.485,20.779l-48.485-20.779c-3.017-1.293-6.372,0.92-6.372,4.202v40.992  c0,3.282,3.356,5.495,6.372,4.202l48.485-20.779l48.485,20.779c3.017,1.293,6.372-0.92,6.372-4.202v-40.992  C425.143,213.937,421.786,211.724,418.771,213.017z"/>
<path style="fill:#E6AF78;" d="M342.857,365.714v-49.535c-21.619,3.77-36.571,3.821-36.571,3.821  C296.187,320,288,328.186,288,338.286c0,10.099,8.187,18.286,18.286,18.286v6.459c0,35.044,27.003,65.603,62.031,66.654  c7.061,0.212,13.86-0.751,20.254-2.655C362.141,419.157,342.857,394.701,342.857,365.714z"/>
<path style="fill:#D29B6E;" d="M370.286,402.286c-9.679,0-18.929-4.567-25.384-12.527c-3.188-3.924-2.58-9.679,1.339-12.862  c3.929-3.174,9.688-2.567,12.857,1.344c6.036,7.429,16.339,7.429,22.375,0c3.17-3.911,8.92-4.518,12.857-1.344  c3.92,3.183,4.527,8.938,1.339,12.862C389.214,397.719,379.964,402.286,370.286,402.286z"/>
<g>
	<path style="fill:#553732;" d="M342.857,356.571c-2.375,0-4.759-1.009-6.491-2.652c-1.652-1.737-2.652-4.116-2.652-6.491   c0-2.379,1-4.754,2.652-6.491c3.384-3.384,9.598-3.384,12.982,0c1.643,1.737,2.652,4.112,2.652,6.491   c0,2.375-1.009,4.754-2.652,6.491C347.607,355.563,345.232,356.571,342.857,356.571z"/>
	<path style="fill:#553732;" d="M397.714,356.571c-2.375,0-4.759-1.009-6.491-2.652c-0.821-0.826-1.464-1.83-1.92-3.018   c-0.455-1.098-0.732-2.286-0.732-3.473c0-1.192,0.277-2.379,0.732-3.478c0.455-1.188,1.098-2.192,1.92-3.013   c3.384-3.384,9.509-3.384,12.982,0c0.821,0.911,1.464,1.826,1.92,3.013c0.455,1.098,0.732,2.286,0.732,3.478   c0,2.375-1.009,4.754-2.652,6.491C402.464,355.563,400.089,356.571,397.714,356.571z"/>
</g>
<path style="fill:#B4E66E;" d="M433.816,460.034l-14.91-4.97c-9.157,17.527-27.477,29.507-48.621,29.507  s-39.464-11.98-48.621-29.507l-14.91,4.97c-11.2,3.733-18.755,14.215-18.755,26.021v16.802c0,5.049,4.093,9.143,9.143,9.143h146.286  c5.049,0,9.143-4.093,9.143-9.143v-16.802C452.571,474.249,445.017,463.767,433.816,460.034z"/>
<circle style="fill:#A0D755;" cx="370.29" cy="237.71" r="13.714"/>
<g>
</g>
<g>
</g>
<g>
</g>
<g>
</g>
<g>
</g>
<g>
</g>
<g>
</g>
<g>
</g>
<g>
</g>
<g>
</g>
<g>
</g>
<g>
</g>
<g>
</g>
<g>
</g>
<g>
</g>
</svg>
