<?xml version="1.0" encoding="iso-8859-1"?>
<!-- Generator: Adobe Illustrator 19.0.0, SVG Export Plug-In . SVG Version: 6.00 Build 0)  -->
<svg xmlns="http://www.w3.org/2000/svg" xmlns:xlink="http://www.w3.org/1999/xlink" version="1.1" id="Layer_1" x="0px" y="0px" viewBox="0 0 512 512" style="enable-background:new 0 0 512 512;" xml:space="preserve">
<path style="fill:#F0C087;" d="M145.655,512H83.862c-4.875,0-8.828-3.952-8.828-8.828v-61.793h70.621V512z"/>
<path style="fill:#D29B6E;" d="M75.034,441.379v26.483h35.31c4.875,0,8.828,3.952,8.828,8.828V512h26.483v-70.621H75.034z"/>
<path style="fill:#959CB5;" d="M269.241,512V300.138h-88.276l-83.601,25.723c-18.52,5.698-31.157,22.809-31.157,42.185v73.333  c0,4.875,3.952,8.828,8.828,8.828h61.793V512H269.241z"/>
<g>
	<path style="fill:#7F8499;" d="M180.966,300.138l-17.385,5.349c1.882,25.042,16.795,46.445,37.985,57.415l-0.987,0.987   c-37.861,37.86-37.861,99.464,0,137.324c4.023,4.023,8.382,7.575,12.94,10.786h55.723V300.138H180.966z"/>
	<path style="fill:#7F8499;" d="M66.207,368.046v73.333c0,4.875,3.952,8.828,8.828,8.828h61.793v-28.894   c0-6.056-2.076-11.929-5.881-16.64l-53.34-66.039C70.503,346.545,66.207,356.878,66.207,368.046z"/>
</g>
<path style="fill:#E6AF78;" d="M233.931,353.103L233.931,353.103c-29.252,0-52.966-23.713-52.966-52.965V256h105.931v44.138  C286.897,329.39,263.183,353.103,233.931,353.103z"/>
<path style="fill:#D29B6E;" d="M180.966,247.172v32.053c16.129,7.747,34.116,12.085,52.966,12.085  c10.746,0,21.189-1.452,31.173-4.133c4.601-1.235,7.888,4.299,4.519,7.668l-54.688,54.688c8.978,3.456,19.077,4.656,29.702,2.469  c25-5.144,42.72-21.842,42.26-53.805v-51.026H180.966V247.172z"/>
<path style="fill:#F0C087;" d="M357.517,154.483c0-10.677-7.582-19.579-17.655-21.624V79.448H128v53.411  c-10.073,2.045-17.655,10.947-17.655,21.624c0,10.822,7.802,19.784,18.081,21.667c4.306,54.553,49.845,97.505,105.505,97.505  s101.199-42.952,105.505-97.505C349.715,174.267,357.517,165.304,357.517,154.483z"/>
<path style="fill:#E6AF78;" d="M189.793,167.724V79.448H128v53.411c-10.073,2.045-17.655,10.947-17.655,21.624  c0,10.822,7.802,19.784,18.081,21.667c4.306,54.553,49.845,97.505,105.505,97.505c10.752,0,21.119-1.629,30.897-4.607  C221.401,255.821,189.793,215.476,189.793,167.724z"/>
<g>
	<path style="fill:#64463C;" d="M189.793,167.724c-4.879,0-8.828-3.953-8.828-8.828v-8.828c0-4.875,3.948-8.828,8.828-8.828   c4.879,0,8.828,3.953,8.828,8.828v8.828C198.621,163.772,194.672,167.724,189.793,167.724z"/>
	<path style="fill:#64463C;" d="M278.069,167.724c-4.879,0-8.828-3.953-8.828-8.828v-8.828c0-4.875,3.948-8.828,8.828-8.828   s8.828,3.953,8.828,8.828v8.828C286.897,163.772,282.948,167.724,278.069,167.724z"/>
</g>
<path style="fill:#D29B6E;" d="M233.931,229.517c-12.19,0-23.586-3.849-32.086-10.836c-3.767-3.095-4.31-8.659-1.216-12.427  c3.086-3.75,8.664-4.315,12.422-1.211c10.552,8.664,31.207,8.664,41.759,0c3.767-3.103,9.336-2.539,12.422,1.211  c3.095,3.767,2.552,9.332-1.216,12.427C257.517,225.668,246.121,229.517,233.931,229.517z"/>
<path style="fill:#785546;" d="M335.448,132.414c4.992,0,9.544,1.719,13.241,4.513V70.621c0-20.468-11.629-38.19-28.622-47.008  C315.223,9.892,302.276,0,286.897,0h-88.276c-43.878,0-79.448,35.57-79.448,79.448v57.479c3.697-2.794,8.249-4.513,13.241-4.513  c2.405,0,4.709,0.397,6.864,1.122c4.605,1.55,9.618-0.396,11.422-4.907l10.198-25.495c1.421-3.553,4.905-5.788,8.723-5.531  c19.755,1.333,81.729,3.741,126.044-14.161c4.826-1.949,10.224,0.688,11.654,5.692c2.949,10.323,7.618,26.663,10.758,37.654  c1.371,4.798,6.339,8.017,11.111,6.559C331.167,132.743,333.266,132.414,335.448,132.414z"/>
<path style="fill:#64463C;" d="M260.414,0h-61.793c-43.878,0-79.448,35.57-79.448,79.448v57.479  c3.697-2.794,8.249-4.513,13.241-4.513c2.405,0,4.71,0.397,6.864,1.122c4.605,1.55,9.617-0.396,11.422-4.907l10.198-25.495  c1.421-3.553,4.905-5.788,8.723-5.531c4.636,0.313,11.659,0.677,20.172,0.831V70.621C189.793,31.618,221.411,0,260.414,0z"/>
<path style="fill:#FF507D;" d="M213.063,488.73L213.063,488.73c-31.027-31.027-31.027-81.33,0-112.357l97.104-97.103  c31.026-31.026,81.33-31.026,112.357,0l0,0c31.026,31.026,31.026,81.33,0,112.357L325.42,488.73  C294.393,519.757,244.09,519.757,213.063,488.73z"/>
<circle style="fill:#F0C087;" cx="366.35" cy="335.45" r="44.14"/>
<path style="fill:#D23C69;" d="M373.901,440.249l16.566-16.566c-51.629-0.279-100.197-36.974-127.376-62.027l91.213-91.213  c5.781-5.781,12.234-10.479,19.105-14.106c-22.618-2.008-45.93,5.621-63.242,22.933l-97.103,97.103  c-31.026,31.026-31.026,81.33,0,112.357c25.245,25.245,63.251,29.943,93.252,14.105c-17.918-1.59-35.4-9.218-49.114-22.933  c-28.771-28.771-30.813-74.093-6.225-105.274C277.302,399,322.702,433.619,373.901,440.249z"/>
<path style="fill:#E6AF78;" d="M348.376,317.48c14.961-14.961,37.971-16.893,55.063-5.884c-1.675-2.6-3.607-5.081-5.884-7.358  c-17.237-17.237-45.183-17.237-62.42,0s-17.237,45.183,0,62.42c2.276,2.276,4.757,4.208,7.358,5.884  C331.483,355.45,333.415,332.44,348.376,317.48z"/>
<g>
	<circle style="fill:#64463C;" cx="353.86" cy="322.96" r="8.828"/>
	<circle style="fill:#64463C;" cx="378.83" cy="347.93" r="8.828"/>
</g>
<path style="fill:#E6AF78;" d="M361.189,420.453c-7.698-14.296-22.624-23.212-38.861-23.212h-20.482  c-20.747,0-39.275,15.168-41.245,35.822c-2.259,23.693,16.311,43.626,39.538,43.626h16.613c3.344,0,6.4,1.889,7.895,4.88  l12.288,24.575c1.794,3.589,5.462,5.856,9.475,5.856h53.728c4.676,0,7.657-4.992,5.441-9.109L361.189,420.453z"/>
<path style="fill:#D29B6E;" d="M286.897,432.552v-32.604c-14.042,5.24-24.82,17.636-26.296,33.116  c-2.259,23.692,16.311,43.626,39.538,43.626h16.614c3.343,0,6.4,1.889,7.895,4.879l12.288,24.575  c1.794,3.589,5.462,5.856,9.475,5.856h19.936l-16.723-33.446c-5.981-11.963-18.208-19.519-31.583-19.519h-4.66  C298.753,459.034,286.897,447.178,286.897,432.552z"/>
<g>
</g>
<g>
</g>
<g>
</g>
<g>
</g>
<g>
</g>
<g>
</g>
<g>
</g>
<g>
</g>
<g>
</g>
<g>
</g>
<g>
</g>
<g>
</g>
<g>
</g>
<g>
</g>
<g>
</g>
</svg>
