<?xml version="1.0" encoding="iso-8859-1"?>
<!-- Generator: Adobe Illustrator 19.0.0, SVG Export Plug-In . SVG Version: 6.00 Build 0)  -->
<svg xmlns="http://www.w3.org/2000/svg" xmlns:xlink="http://www.w3.org/1999/xlink" version="1.1" id="Layer_1" x="0px" y="0px" viewBox="0 0 512 512" style="enable-background:new 0 0 512 512;" xml:space="preserve">
<path style="fill:#FAD7A5;" d="M160.76,334.516l33.446-16.723V512h-44.138c-4.875,0-8.828-3.952-8.828-8.828V366.099  C141.241,352.724,148.798,340.498,160.76,334.516z"/>
<path style="fill:#F0C891;" d="M194.207,512V317.793l-33.447,16.723c-8.852,4.426-15.269,12.282-18.019,21.482l18.845,22.614  c3.966,4.759,6.138,10.759,6.138,16.954V512H194.207z"/>
<path style="fill:#B4E66E;" d="M360.084,321.876L291.31,291.31h-70.62l-68.774,30.566c-5.354,2.379-6.947,9.218-3.196,13.718  l32.568,39.081c2.644,3.173,4.092,7.172,4.092,11.302v117.195c0,4.875,3.952,8.828,8.828,8.828h141.241l-8.828-132.414l36.66-43.992  C367.031,331.094,365.438,324.255,360.084,321.876z"/>
<path style="fill:#A0D755;" d="M291.31,291.31h-70.62l-17.655,7.846v0.981c0,29.252,23.713,52.966,52.966,52.966  s52.966-23.713,52.966-52.966v-0.981L291.31,291.31z"/>
<path style="fill:#FFAA50;" d="M38.032,90.608l53.909,46.207c2.393,2.051,6.094,1.01,7.07-1.987  c5.793-17.801,25.502-67.459,68.714-81.863l26.483-35.31c0,0-95.284-43.311-157.142,67.422  C36.035,86.921,36.428,89.234,38.032,90.608z"/>
<path style="fill:#FF913C;" d="M54.982,105.137l36.958,31.678c2.393,2.051,6.094,1.01,7.07-1.987  c5.793-17.801,25.502-67.459,68.714-81.863l5.939-7.918C142.998,41.316,94.039,46.953,54.982,105.137z"/>
<path style="fill:#B4E66E;" d="M194.207,17.655c0,0-20.527-9.291-48.689-8.23c-3.809,10.249-8.237,29.395-5.8,59.898  c7.998-6.93,17.237-12.768,28.006-16.357L194.207,17.655z"/>
<path style="fill:#A0D755;" d="M139.187,45.853c-0.258,6.956-0.17,14.69,0.531,23.47l0,0c7.998-6.93,17.237-12.768,28.006-16.357  l5.938-7.918C163.765,43.844,151.948,43.654,139.187,45.853z"/>
<path style="fill:#FFAA50;" d="M473.968,90.608l-53.909,46.207c-2.393,2.051-6.094,1.01-7.07-1.987  c-5.794-17.801-25.502-67.459-68.714-81.863l-26.483-35.31c0,0,95.284-43.311,157.142,67.422  C475.965,86.921,475.572,89.234,473.968,90.608z"/>
<path style="fill:#FF913C;" d="M457.018,105.137l-36.958,31.678c-2.393,2.051-6.094,1.01-7.07-1.987  c-5.793-17.801-25.502-67.459-68.714-81.863l-5.939-7.918C369.002,41.316,417.961,46.953,457.018,105.137z"/>
<path style="fill:#B4E66E;" d="M317.793,17.655c0,0,20.527-9.291,48.689-8.23c3.809,10.249,8.237,29.395,5.8,59.898  c-7.998-6.93-17.237-12.768-28.006-16.357L317.793,17.655z"/>
<path style="fill:#A0D755;" d="M372.813,45.853c0.258,6.956,0.17,14.69-0.531,23.47l0,0c-7.998-6.93-17.237-12.768-28.006-16.357  l-5.938-7.918C348.235,43.844,360.052,43.654,372.813,45.853z"/>
<path style="fill:#FAD7A5;" d="M256,335.448L256,335.448c-19.501,0-35.31-15.809-35.31-35.31v-61.793h70.621v61.793  C291.31,319.639,275.501,335.448,256,335.448z"/>
<path style="fill:#F0C891;" d="M220.69,276.808c11.142,3.616,22.979,5.675,35.31,5.675s24.169-2.059,35.31-5.675v-38.463h-70.62  V276.808z"/>
<path style="fill:#FFE1B4;" d="M361.931,132.414h-8.828v-26.483H158.897v26.483h-8.828c-9.751,0-17.655,7.904-17.655,17.655  c0,9.751,7.905,17.655,17.655,17.655h8.828c0,53.629,43.475,97.103,97.103,97.103s97.103-43.475,97.103-97.103h8.828  c9.751,0,17.655-7.905,17.655-17.655C379.586,140.318,371.682,132.414,361.931,132.414z"/>
<path style="fill:#FAD7A5;" d="M353.103,132.414v-26.483H158.897v26.483h-7.883c-8.795,0-16.946,6.01-18.358,14.69  c-1.799,11.061,6.691,20.62,17.413,20.62h8.828c0,53.629,43.475,97.103,97.103,97.103c9.193,0,18.054-1.363,26.483-3.751  c-40.739-11.539-70.621-48.918-70.621-93.353V141.24c0-4.875,3.952-8.828,8.828-8.828h132.413V132.414z"/>
<g>
	<path style="fill:#64463C;" d="M211.862,167.724c-4.879,0-8.828-3.953-8.828-8.828v-8.828c0-4.875,3.948-8.828,8.828-8.828   c4.879,0,8.828,3.953,8.828,8.828v8.828C220.69,163.772,216.741,167.724,211.862,167.724z"/>
	<path style="fill:#64463C;" d="M300.138,167.724c-4.879,0-8.828-3.953-8.828-8.828v-8.828c0-4.875,3.948-8.828,8.828-8.828   c4.879,0,8.828,3.953,8.828,8.828v8.828C308.966,163.772,305.017,167.724,300.138,167.724z"/>
</g>
<path style="fill:#D7AF7D;" d="M256,220.69c-12.19,0-23.586-3.849-32.086-10.836c-3.767-3.095-4.31-8.659-1.216-12.427  c3.078-3.759,8.664-4.315,12.422-1.211c10.552,8.664,31.207,8.664,41.759,0c3.759-3.103,9.345-2.547,12.422,1.211  c3.095,3.767,2.552,9.332-1.216,12.427C279.586,216.841,268.19,220.69,256,220.69z"/>
<path style="fill:#FFAA50;" d="M264.828,0h-17.655c-53.629,0-97.103,43.475-97.103,97.103v13.241c0,2.438,1.976,4.414,4.414,4.414  h203.034c2.438,0,4.414-1.976,4.414-4.414V97.103C361.931,43.475,318.456,0,264.828,0z"/>
<g>
	<path style="fill:#FF913C;" d="M282.483,1.681C276.749,0.627,270.866,0,264.828,0h-17.655c-53.629,0-97.103,43.475-97.103,97.103   v13.241c0,2.438,1.976,4.414,4.414,4.414h48.552V97.103C203.034,49.513,237.296,9.994,282.483,1.681z"/>
	<path style="fill:#FF913C;" d="M397.241,423.533H326.62l-7.857,78.57c-0.52,5.197,3.561,9.706,8.784,9.706h68.767   c5.223,0,9.303-4.509,8.784-9.706L397.241,423.533z"/>
</g>
<path style="fill:#D77431;" d="M361.931,467.671c14.068,0,27.23-3.775,38.702-10.218l-3.392-33.92H326.62l-3.392,33.92  C334.701,463.896,347.863,467.671,361.931,467.671z"/>
<path style="fill:#FFAA50;" d="M411.26,319.664l-22.193,19.364l-1.055-0.405c-7.933-2.127-16.737-3.366-26.08-3.366  c-9.501,0-18.458,1.268-26.494,3.463l-1.024,0.002l-21.812-19.057c-4.862-4.248-12.464-0.795-12.464,5.661v62.897  c0,34.127,27.666,61.793,61.793,61.793s61.793-27.666,61.793-61.793v-62.897C423.724,318.869,416.122,315.416,411.26,319.664z"/>
<path style="fill:#FF913C;" d="M335.448,392.636c0-24.465,11.531-45.777,28.635-57.239c-0.734-0.016-1.411-0.141-2.152-0.141  c-9.501,0-18.458,1.268-26.494,3.463l-1.024,0.002l-21.812-19.057c-4.862-4.248-12.464-0.795-12.464,5.661v62.897  c0,34.127,27.666,61.793,61.793,61.793c0.741,0,1.46-0.085,2.195-0.111C346.998,438.45,335.448,417.122,335.448,392.636z"/>
<g>
	<path style="fill:#553732;" d="M335.448,397.05c-1.147,0-2.293-0.267-3.353-0.707c-1.06-0.444-2.034-1.06-2.914-1.853   c-0.793-0.884-1.414-1.767-1.853-2.914c-0.44-1.06-0.707-2.207-0.707-3.353c0-1.151,0.267-2.297,0.707-3.358   c0.44-1.147,1.06-2.03,1.853-2.909c0.879-0.797,1.853-1.414,2.914-1.858c1.586-0.703,3.353-0.879,5.026-0.526   c0.621,0.086,1.147,0.263,1.681,0.526c0.526,0.177,1.06,0.444,1.5,0.797c0.526,0.263,0.974,0.707,1.328,1.06   c0.879,0.879,1.5,1.763,1.94,2.909c0.44,1.06,0.707,2.207,0.707,3.358c0,1.147-0.267,2.293-0.707,3.353   c-0.44,1.147-1.06,2.03-1.94,2.914c-0.353,0.353-0.802,0.793-1.328,1.056c-0.44,0.353-0.974,0.621-1.5,0.797   c-0.534,0.263-1.06,0.44-1.681,0.53C336.595,396.96,335.974,397.05,335.448,397.05z"/>
	<path style="fill:#553732;" d="M388.414,397.05c-0.534,0-1.147-0.091-1.767-0.177c-0.526-0.091-1.06-0.267-1.586-0.53   c-0.534-0.177-1.06-0.444-1.595-0.797c-0.44-0.263-0.879-0.703-1.319-1.056c-1.595-1.677-2.56-3.974-2.56-6.267   c0-1.151,0.267-2.297,0.707-3.358c0.44-1.147,1.06-2.03,1.853-2.909c3.267-3.267,9.181-3.267,12.534,0   c1.586,1.677,2.56,3.97,2.56,6.267c0,2.293-0.974,4.591-2.56,6.267C393,396.076,390.707,397.05,388.414,397.05z"/>
</g>
<path style="fill:#FAEBC8;" d="M375.172,405.878H348.69c-7.313,0-13.241,5.928-13.241,13.241s5.928,13.241,13.241,13.241  s13.241-5.928,13.241-13.241c0-1.556,0-1.556,0,0c0,7.313,5.928,13.241,13.241,13.241s13.241-5.928,13.241-13.241  S382.485,405.878,375.172,405.878z"/>
<g>
	<circle style="fill:#FF913C;" cx="361.93" cy="405.88" r="8.828"/>
	<path style="fill:#FF913C;" d="M411.26,319.664l-22.193,19.364c3.71,1.02,7.298,2.158,10.526,3.585   c5.772,2.551,10.719,6.763,14.163,12.051c6.291,9.659,9.969,21.169,9.969,33.558v-62.897   C423.724,318.869,416.122,315.416,411.26,319.664z"/>
</g>
<g>
</g>
<g>
</g>
<g>
</g>
<g>
</g>
<g>
</g>
<g>
</g>
<g>
</g>
<g>
</g>
<g>
</g>
<g>
</g>
<g>
</g>
<g>
</g>
<g>
</g>
<g>
</g>
<g>
</g>
</svg>
