<?xml version="1.0" encoding="iso-8859-1"?>
<!-- Generator: Adobe Illustrator 19.0.0, SVG Export Plug-In . SVG Version: 6.00 Build 0)  -->
<svg xmlns="http://www.w3.org/2000/svg" xmlns:xlink="http://www.w3.org/1999/xlink" version="1.1" id="Layer_1" x="0px" y="0px" viewBox="0 0 512 512" style="enable-background:new 0 0 512 512;" xml:space="preserve">
<rect x="366.35" y="238.34" style="fill:#D5DCED;" width="17.655" height="176.55"/>
<rect x="366.35" y="238.34" style="fill:#C7CFE2;" width="17.655" height="26.483"/>
<path style="fill:#E6AF78;" d="M384,512h-17.655c-4.875,0-8.828-3.952-8.828-8.828v-44.138h35.31v44.138  C392.828,508.048,388.875,512,384,512z"/>
<path style="fill:#D29B6E;" d="M366.345,494.345h-8.828v-26.483H384v8.828C384,486.44,376.096,494.345,366.345,494.345z"/>
<path style="fill:#FFDC64;" d="M282.355,423.673l-66.079-26.432h-70.621l-66.079,26.432c-13.406,5.362-22.197,18.346-22.197,32.785  v46.714c0,4.875,3.952,8.828,8.828,8.828h44.138l0,0h141.241l0,0h44.138c4.875,0,8.828-3.952,8.828-8.828v-46.714  C304.552,442.019,295.761,429.035,282.355,423.673z"/>
<path style="fill:#FFC850;" d="M145.655,397.241l-17.564,7.026c-0.02,0.603-0.091,1.193-0.091,1.802  c0,29.252,23.713,52.966,52.966,52.966s52.966-23.713,52.966-52.966c0-0.608-0.071-1.198-0.091-1.802l-17.564-7.026H145.655z"/>
<path style="fill:#E6AF78;" d="M180.966,441.379L180.966,441.379c-19.501,0-35.31-15.809-35.31-35.31v-61.793h70.621v61.793  C216.276,425.57,200.467,441.379,180.966,441.379z"/>
<path style="fill:#D29B6E;" d="M145.655,382.739c11.142,3.616,22.979,5.675,35.31,5.675s24.169-2.059,35.31-5.675v-38.463h-70.621  v38.463H145.655z"/>
<path style="fill:#F0C087;" d="M286.897,238.345h-8.828v-52.966H83.862v52.966h-8.828c-9.751,0-17.655,7.904-17.655,17.655  c0,9.751,7.905,17.655,17.655,17.655h8.828c0,53.629,43.475,97.103,97.103,97.103s97.103-43.475,97.103-97.103h8.828  c9.751,0,17.655-7.905,17.655-17.655C304.552,246.249,296.647,238.345,286.897,238.345z"/>
<path style="fill:#E6AF78;" d="M83.862,185.379v52.966H75.98c-8.795,0-16.946,6.009-18.358,14.69  c-1.8,11.061,6.691,20.621,17.413,20.621h8.828c0,53.629,43.475,97.103,97.103,97.103c9.193,0,18.054-1.363,26.483-3.751  c-40.739-11.539-70.621-48.918-70.621-93.353v-88.276H83.862z"/>
<g>
	<path style="fill:#64463C;" d="M136.828,273.655c-4.879,0-8.828-3.953-8.828-8.828V256c0-4.875,3.948-8.828,8.828-8.828   c4.879,0,8.828,3.953,8.828,8.828v8.828C145.655,269.703,141.707,273.655,136.828,273.655z"/>
	<path style="fill:#64463C;" d="M225.103,273.655c-4.879,0-8.828-3.953-8.828-8.828V256c0-4.875,3.948-8.828,8.828-8.828   c4.879,0,8.828,3.953,8.828,8.828v8.828C233.931,269.703,229.983,273.655,225.103,273.655z"/>
</g>
<path style="fill:#D29B6E;" d="M180.966,326.621c-12.19,0-23.586-3.849-32.086-10.836c-3.767-3.095-4.31-8.659-1.216-12.427  c3.078-3.759,8.664-4.315,12.422-1.211c10.552,8.664,31.207,8.664,41.759,0c3.759-3.103,9.345-2.547,12.422,1.211  c3.095,3.767,2.552,9.332-1.216,12.427C204.552,322.772,193.155,326.621,180.966,326.621z"/>
<g>
	<path style="fill:#FFC850;" d="M103.969,478.079l-38.112-44.464c-5.323,6.256-8.478,14.272-8.478,22.843v46.714   c0,4.875,3.952,8.828,8.828,8.828h44.138v-16.686C110.345,488.992,108.083,482.879,103.969,478.079z"/>
	<path style="fill:#FFC850;" d="M257.962,478.079l38.112-44.464c5.323,6.256,8.478,14.272,8.478,22.843v46.714   c0,4.875-3.952,8.828-8.828,8.828h-44.138v-16.686C251.586,488.992,253.848,482.879,257.962,478.079z"/>
</g>
<path style="fill:#785546;" d="M198.621,105.931h-35.31c-48.753,0-88.276,39.522-88.276,88.276v44.138h13.758  c7.6,0,14.347-4.863,16.749-12.073l2.993-8.979c1.097-3.292,3.97-5.628,7.421-5.984c19.403-2.001,84.32-9.421,118.3-22.263  c4.724-1.785,9.935,0.631,11.532,5.423l10.599,31.803c2.403,7.21,9.15,12.073,16.749,12.073h13.76v-44.138  C286.897,145.453,247.374,105.931,198.621,105.931z"/>
<path style="fill:#64463C;" d="M136.828,194.207c0-44.241,32.58-80.773,75.034-87.177c-4.33-0.653-8.729-1.099-13.241-1.099h-35.31  c-48.753,0-88.276,39.522-88.276,88.276v44.138h13.759c7.6,0,14.346-4.863,16.749-12.073l2.992-8.979  c1.097-3.292,3.97-5.629,7.421-5.984c4.665-0.481,12.005-1.284,20.871-2.392v-14.71H136.828z"/>
<path style="fill:#FFDC64;" d="M180.966,0l-48.493,129.314c-2.164,5.771,2.102,11.927,8.266,11.927h80.455  c6.163,0,10.43-6.156,8.266-11.927L180.966,0z"/>
<path style="fill:#FF507D;" d="M211.996,82.747l-79.436,46.336l-0.087,0.232c-2.164,5.771,2.102,11.927,8.266,11.927h31.511  l50.611-29.522L211.996,82.747z"/>
<path style="fill:#FFC850;" d="M180.966,0l-8.828,141.241h-31.4c-6.163,0-10.43-6.156-8.266-11.927L180.966,0z"/>
<polygon style="fill:#FF507D;" points="149.508,83.886 201.131,53.774 190.266,24.801 166.457,38.689 "/>
<g>
	<polygon style="fill:#D23C69;" points="149.508,83.886 176.714,68.017 179.005,31.37 166.457,38.689  "/>
	<path style="fill:#D23C69;" d="M132.559,129.083l-0.087,0.232c-2.164,5.771,2.102,11.927,8.266,11.927h31.4l2.286-36.579   L132.559,129.083z"/>
</g>
<path style="fill:#F0C087;" d="M384,406.069h-26.483c-9.751,0-17.655,7.904-17.655,17.655v35.31c0,9.751,7.905,17.655,17.655,17.655  h17.655c9.751,0,17.655-7.905,17.655-17.655v-44.138C392.828,410.021,388.875,406.069,384,406.069z"/>
<g>
	<path style="fill:#FF507D;" d="M454.621,79.448c0,70.621-35.57,132.414-79.448,132.414s-79.448-61.793-79.448-132.414   C295.724,35.57,331.294,0,375.172,0S454.621,35.57,454.621,79.448z"/>
	<path style="fill:#FF507D;" d="M387.444,247.172h-24.542c-2.785,0-4.874-2.548-4.328-5.279l7.772-38.859H384l7.772,38.859   C392.318,244.624,390.229,247.172,387.444,247.172z"/>
</g>
<path style="fill:#FF6991;" d="M418.414,81.655c-5.138,0-9.741-3.608-10.802-8.832c-2.147-10.526-9.336-19.397-19.216-23.724  c-5.586-2.444-8.129-8.953-5.69-14.534c2.448-5.578,8.94-8.121,14.534-5.681c16.457,7.203,28.414,21.978,31.991,39.526  c1.216,5.974-2.638,11.802-8.603,13.017C419.888,81.582,419.138,81.655,418.414,81.655z"/>
<path style="fill:#D23C69;" d="M339.862,61.793c0-24.787,11.359-46.913,29.147-61.482c-40.989,3.155-73.285,37.34-73.285,79.137  c0,70.621,35.57,132.414,79.448,132.414c14.351,0,27.777-6.702,39.397-18.07C372.911,189.517,339.862,129.838,339.862,61.793z"/>
<g>
</g>
<g>
</g>
<g>
</g>
<g>
</g>
<g>
</g>
<g>
</g>
<g>
</g>
<g>
</g>
<g>
</g>
<g>
</g>
<g>
</g>
<g>
</g>
<g>
</g>
<g>
</g>
<g>
</g>
</svg>
