<?xml version="1.0" encoding="iso-8859-1"?>
<!-- Generator: Adobe Illustrator 19.0.0, SVG Export Plug-In . SVG Version: 6.00 Build 0)  -->
<svg xmlns="http://www.w3.org/2000/svg" xmlns:xlink="http://www.w3.org/1999/xlink" version="1.1" id="Layer_1" x="0px" y="0px" viewBox="0 0 512 512" style="enable-background:new 0 0 512 512;" xml:space="preserve">
<path style="fill:#FF507D;" d="M255.999,512L255.999,512c-82.881,0-150.069-67.188-150.069-150.069V150.069  C105.93,67.188,173.118,0,255.999,0l0,0c82.881,0,150.069,67.188,150.069,150.069v211.862C406.068,444.812,338.88,512,255.999,512z"/>
<path style="fill:#D23C69;" d="M176.551,308.141v-56.8c0-7.144,8.008-11.281,13.86-7.184c18.585,13.009,41.178,20.67,65.588,20.67  c62.557,0,113.423-50.055,114.733-112.298c1.168-55.566-39.45-104.656-94.014-115.225c-6.207-1.202-12.314-1.834-18.302-1.967  c-9.135-0.203-12.116-12.181-4.116-16.595c11.498-6.344,23.916-11.227,37.01-14.391C279.967,1.611,268.185,0,255.999,0  C173.118,0,105.93,67.188,105.93,150.068v211.863C105.93,444.812,173.118,512,255.999,512c12.185,0,23.968-1.611,35.31-4.352  c-65.811-15.902-114.759-75.021-114.759-145.717v-1.395c51.515-3.493,118.407-14.309,181.897-43.553  c4.431-2.039,6.371-7.28,4.328-11.711c-2.034-4.422-7.293-6.379-11.707-4.323c-60.132,27.695-124.592,38.152-174.517,41.655v-16.636  c17.332-1.128,36.4-2.997,56.259-6.071c81.783-12.663,139.818-39.357,173.259-79.404v-31.045  C365.813,282.442,253.837,302.947,176.551,308.141z"/>
<path style="fill:#F0C087;" d="M353.102,123.586c-1.252,0-2.45,0.2-3.656,0.369c-11.418-40.926-48.879-70.989-93.447-70.989  s-82.029,30.064-93.448,70.989c-1.206-0.168-2.404-0.369-3.656-0.369c-14.626,0-26.483,11.857-26.483,26.483  s11.857,26.483,26.483,26.483c1.252,0,2.45-0.2,3.656-0.369c11.419,40.926,48.88,70.989,93.448,70.989s82.029-30.064,93.448-70.989  c1.206,0.168,2.404,0.369,3.656,0.369c14.626,0,26.483-11.857,26.483-26.483C379.586,135.443,367.729,123.586,353.102,123.586z"/>
<path style="fill:#E6AF78;" d="M211.861,150.069c0-44.446,29.896-81.831,70.65-93.36c-8.432-2.396-17.307-3.743-26.512-3.743  c-44.568,0-82.029,30.064-93.448,70.989c-1.206-0.168-2.404-0.369-3.656-0.369c-14.626,0-26.483,11.857-26.483,26.483  s11.857,26.483,26.483,26.483c1.252,0,2.45-0.2,3.656-0.369c11.419,40.926,48.88,70.989,93.448,70.989  c9.205,0,18.08-1.347,26.512-3.743C241.757,231.9,211.861,194.515,211.861,150.069z"/>
<path style="fill:#D29B6E;" d="M255.999,203.034c-12.19,0-23.586-3.849-32.086-10.836c-3.767-3.095-4.31-8.659-1.216-12.427  c3.078-3.759,8.664-4.31,12.422-1.211c10.552,8.664,31.207,8.664,41.759,0c3.759-3.099,9.345-2.547,12.422,1.211  c3.095,3.767,2.552,9.332-1.216,12.427C279.586,199.185,268.19,203.034,255.999,203.034z"/>
<g>
	<path style="fill:#553732;" d="M211.861,158.897c-4.879,0-8.828-3.953-8.828-8.828v-8.828c0-4.875,3.948-8.828,8.828-8.828   c4.879,0,8.828,3.953,8.828,8.828v8.828C220.689,154.944,216.74,158.897,211.861,158.897z"/>
	<path style="fill:#553732;" d="M300.138,158.897c-4.879,0-8.828-3.953-8.828-8.828v-8.828c0-4.875,3.948-8.828,8.828-8.828   c4.879,0,8.828,3.953,8.828,8.828v8.828C308.966,154.944,305.016,158.897,300.138,158.897z"/>
</g>
<path style="fill:#FFDC64;" d="M302.813,37.741l-46.813,20.063l-46.813-20.063c-2.913-1.248-6.152,0.888-6.152,4.057v39.578  c0,3.169,3.24,5.305,6.152,4.057l46.813-20.063l46.813,20.063c2.913,1.248,6.152-0.888,6.152-4.057V41.798  C308.966,38.629,305.726,36.493,302.813,37.741z"/>
<circle style="fill:#FFC850;" cx="255.999" cy="61.59" r="13.241"/>
<g>
</g>
<g>
</g>
<g>
</g>
<g>
</g>
<g>
</g>
<g>
</g>
<g>
</g>
<g>
</g>
<g>
</g>
<g>
</g>
<g>
</g>
<g>
</g>
<g>
</g>
<g>
</g>
<g>
</g>
</svg>
