<?xml version="1.0" encoding="iso-8859-1"?>
<!-- Generator: Adobe Illustrator 19.0.0, SVG Export Plug-In . SVG Version: 6.00 Build 0)  -->
<svg xmlns="http://www.w3.org/2000/svg" xmlns:xlink="http://www.w3.org/1999/xlink" version="1.1" id="Layer_1" x="0px" y="0px" viewBox="0 0 512 512" style="enable-background:new 0 0 512 512;" xml:space="preserve">
<path style="fill:#FFDC64;" d="M137.143,34.479h-64c-5.05,0-9.143,4.093-9.143,9.143v9.143c0,5.049,4.093,9.143,9.143,9.143l0,0  v91.429h64v-91.43l0,0c5.05,0,9.143-4.094,9.143-9.143v-9.143C146.286,38.572,142.193,34.479,137.143,34.479z"/>
<rect x="73.14" y="61.907" style="fill:#FFC850;" width="64" height="18.286"/>
<polygon style="fill:#FFDC64;" points="484.571,208.193 256,52.764 27.429,208.193 27.429,482.479 484.571,482.479 "/>
<polygon style="fill:#FFC850;" points="256,52.764 27.429,208.193 27.429,244.764 256,89.336 484.571,244.764 484.571,208.193 "/>
<path style="fill:#FF507D;" d="M245.372,23.785L7.657,193.58C2.852,197.013,0,202.555,0,208.46v27.481  c0,3.693,4.174,5.841,7.18,3.695L256,61.907l248.82,177.729c3.005,2.147,7.18-0.002,7.18-3.695V208.46  c0-5.905-2.852-11.447-7.657-14.88L266.628,23.785C260.27,19.243,251.73,19.243,245.372,23.785z"/>
<path style="fill:#D23C69;" d="M0,222.293v13.648c0,3.693,4.175,5.841,7.18,3.695L256,61.907l248.82,177.729  c3.005,2.146,7.18-0.002,7.18-3.695v-13.648L256,39.436L0,222.293z"/>
<path style="fill:#FFC850;" d="M484.571,400.193h-153.3c-7.727,0-15.347,2.318-21.514,6.975  c-14.955,11.292-30.693,20.869-46.15,27.939c-2.415,1.105-5.011,1.657-7.607,1.657s-5.191-0.552-7.607-1.657  c-15.457-7.071-31.195-16.648-46.15-27.939c-6.167-4.656-13.787-6.975-21.514-6.975h-153.3c-5.049,0-9.143,4.093-9.143,9.143v73.143  c0,5.049,4.093,9.143,9.143,9.143h457.143c5.049,0,9.143-4.093,9.143-9.143v-73.143  C493.714,404.286,489.621,400.193,484.571,400.193z"/>
<path style="fill:#E6AF78;" d="M210.286,460.196v-41.717h-91.429v41.717c0,8.515-5.877,15.903-14.174,17.817l-58.969,13.608h118.857  h118.857l-58.969-13.608C216.163,476.099,210.286,468.711,210.286,460.196z"/>
<path style="fill:#D29B6E;" d="M118.857,453.12c13.731,7.044,29.251,11.073,45.714,11.073s31.983-4.029,45.714-11.073v-20.927  h-91.429L118.857,453.12L118.857,453.12z"/>
<path style="fill:#F0C087;" d="M246.857,327.05v-54.857H82.286v54.857C72.187,327.05,64,335.236,64,345.336  c0,10.099,8.187,18.286,18.286,18.286c0,45.445,36.84,82.286,82.286,82.286s82.286-36.84,82.286-82.286  c10.099,0,18.286-8.187,18.286-18.286C265.143,335.236,256.956,327.05,246.857,327.05z"/>
<path style="fill:#E6AF78;" d="M128,363.621v-91.429H82.286v54.857C72.187,327.05,64,335.236,64,345.336  c0,10.099,8.187,18.286,18.286,18.286c0,45.445,36.84,82.286,82.286,82.286c7.94,0,15.593-1.186,22.857-3.285  C153.117,432.709,128,401.126,128,363.621z"/>
<path style="fill:#D29B6E;" d="M164.571,409.336c-9.679,0-18.929-4.567-25.384-12.527c-3.188-3.924-2.58-9.679,1.339-12.862  c3.938-3.174,9.688-2.567,12.857,1.344c6.036,7.429,16.339,7.429,22.375,0c3.179-3.911,8.929-4.518,12.857-1.344  c3.92,3.183,4.527,8.938,1.339,12.862C183.5,404.769,174.25,409.336,164.571,409.336z"/>
<g>
	<path style="fill:#64463C;" d="M128,363.621c-5.054,0-9.143-4.094-9.143-9.143v-9.143c0-5.049,4.089-9.143,9.143-9.143   s9.143,4.094,9.143,9.143v9.143C137.143,359.528,133.054,363.621,128,363.621z"/>
	<path style="fill:#64463C;" d="M201.143,363.621c-5.054,0-9.143-4.094-9.143-9.143v-9.143c0-5.049,4.089-9.143,9.143-9.143   s9.143,4.094,9.143,9.143v9.143C210.286,359.528,206.196,363.621,201.143,363.621z"/>
</g>
<path style="fill:#785546;" d="M226.117,318.348c2.67,7.071,10.228,10.274,17.672,8.968c0.995-0.175,2.02-0.266,3.068-0.266  c3.348,0,6.444,0.965,9.143,2.536v-57.393c0-13.679-7.598-25.463-18.72-31.735c-2.078-13.089-13.321-23.122-26.994-23.122h-73.143  c-35.346,0-64,28.654-64,64v48.251c2.699-1.571,5.795-2.536,9.143-2.536c1.176,0,2.322,0.114,3.43,0.333  c8.904,1.753,17.821-3.169,20.05-11.966l0,0l2.248-8.993c0.994-3.975,4.478-6.809,8.574-6.919  c17.011-0.459,61.914-2.715,92.531-13.796c5.421-1.962,11.262,1.339,12.21,7.025l3.424,20.541  C225.045,315.037,225.507,316.732,226.117,318.348z"/>
<g>
	<path style="fill:#64463C;" d="M128,272.193c0-30.297,24.56-54.857,54.857-54.857h-45.714c-35.346,0-64,28.653-64,64v48.251   c2.699-1.571,5.795-2.536,9.143-2.536c1.176,0,2.321,0.114,3.43,0.333c8.905,1.753,17.821-3.169,20.05-11.966l2.248-8.993   c0.993-3.975,4.478-6.809,8.574-6.92c3.001-0.081,6.906-0.223,11.412-0.454C128,299.051,128,272.193,128,272.193z"/>
	<path style="fill:#64463C;" d="M347.272,208.193L347.272,208.193L347.272,208.193L347.272,208.193L347.272,208.193   c55.544,0,100.572,46.58,100.572,104.039l0,0c0,66.207,9.143,141.557,9.143,141.557s-45.714,28.374-109.714,37.833   c-64-9.458-109.714-37.833-109.714-37.833s9.143-75.35,9.143-141.557l0,0C246.7,254.773,291.728,208.193,347.272,208.193   L347.272,208.193L347.272,208.193L347.272,208.193L347.272,208.193z"/>
</g>
<path style="fill:#553732;" d="M310.7,302.774V274.4c0-32.152,22.16-58.929,51.537-64.931c-4.895-0.757-9.866-1.276-14.965-1.276  h-0.001c-55.544,0-100.571,46.58-100.571,104.039c0,66.207-9.143,141.557-9.143,141.557s45.714,28.374,109.714,37.833V340.607  L310.7,302.774z"/>
<path style="fill:#B48764;" d="M429.558,491.621l-34.22-13.688c-6.942-2.777-11.494-9.501-11.494-16.978v-33.334H310.7v33.334  c0,7.477-4.552,14.201-11.494,16.978l-34.22,13.688H429.558z"/>
<path style="fill:#966D50;" d="M310.7,457.208c11.352,4.453,23.66,6.985,36.571,6.985c12.911,0,25.22-2.532,36.571-6.985v-29.586  H310.7V457.208z"/>
<path style="fill:#C39772;" d="M316.498,295.375c-2.801-2.113-6.781-1.074-8.208,2.133c-4.728,10.623-16.843,29.542-43.147,29.541  v0.001c-10.099,0-18.286,8.186-18.286,18.286c0,10.099,8.187,18.286,18.286,18.286c0,45.445,36.84,82.286,82.286,82.286  s82.286-36.84,82.286-82.286C429.714,302.732,355.233,324.6,316.498,295.375z"/>
<path style="fill:#B48764;" d="M310.857,363.621v-68.65c-1.069,0.54-2.027,1.323-2.568,2.536  c-4.728,10.623-16.843,29.542-43.147,29.541v0.001c-10.099,0-18.286,8.186-18.286,18.286c0,10.099,8.187,18.286,18.286,18.286  c0,45.445,36.84,82.286,82.286,82.286c7.94,0,15.593-1.186,22.857-3.285C335.974,432.709,310.857,401.126,310.857,363.621z"/>
<path style="fill:#966D50;" d="M347.272,409.336c-9.679,0-18.929-4.567-25.384-12.527c-3.188-3.924-2.58-9.679,1.339-12.862  c3.938-3.179,9.688-2.571,12.857,1.344c6.036,7.429,16.339,7.429,22.375,0c3.17-3.915,8.929-4.522,12.857-1.344  c3.92,3.183,4.527,8.938,1.339,12.862C366.2,404.769,356.95,409.336,347.272,409.336z"/>
<g>
	<path style="fill:#553732;" d="M383.843,363.621c-5.054,0-9.143-4.094-9.143-9.143v-9.143c0-5.049,4.089-9.143,9.143-9.143   c5.054,0,9.143,4.094,9.143,9.143v9.143C392.986,359.528,388.897,363.621,383.843,363.621z"/>
	<path style="fill:#553732;" d="M310.7,363.621c-5.054,0-9.143-4.094-9.143-9.143v-9.143c0-5.049,4.089-9.143,9.143-9.143   c5.054,0,9.143,4.094,9.143,9.143v9.143C319.843,359.528,315.754,363.621,310.7,363.621z"/>
</g>
<g>
</g>
<g>
</g>
<g>
</g>
<g>
</g>
<g>
</g>
<g>
</g>
<g>
</g>
<g>
</g>
<g>
</g>
<g>
</g>
<g>
</g>
<g>
</g>
<g>
</g>
<g>
</g>
<g>
</g>
</svg>
