<?xml version="1.0" encoding="iso-8859-1"?>
<!-- Generator: Adobe Illustrator 19.0.0, SVG Export Plug-In . SVG Version: 6.00 Build 0)  -->
<svg xmlns="http://www.w3.org/2000/svg" xmlns:xlink="http://www.w3.org/1999/xlink" version="1.1" id="Layer_1" x="0px" y="0px" viewBox="0 0 512.001 512.001" style="enable-background:new 0 0 512.001 512.001;" xml:space="preserve">
<path style="fill:#FFDC64;" d="M503.172,459.034H8.828c-4.875,0-8.828-3.952-8.828-8.828V61.793c0-4.875,3.952-8.828,8.828-8.828  h494.345c4.875,0,8.828,3.952,8.828,8.828v388.414C512,455.082,508.048,459.034,503.172,459.034z"/>
<g>
	<path style="fill:#FFC850;" d="M512,61.793c0-4.876-3.952-8.828-8.828-8.828h-3.655L461.62,90.862   c-3.448,3.448-3.448,9.034,0,12.483c1.724,1.724,3.983,2.586,6.241,2.586c2.259,0,4.517-0.862,6.241-2.586L512,65.448V61.793z"/>
	<path style="fill:#FFC850;" d="M0,61.793v3.655l37.897,37.897c1.724,1.724,3.983,2.586,6.241,2.586s4.517-0.862,6.241-2.586   c3.448-3.448,3.448-9.034,0-12.483L12.483,52.966H8.828C3.952,52.966,0,56.918,0,61.793z"/>
	<path style="fill:#FFC850;" d="M37.897,408.655L0,446.552v3.655c0,4.875,3.952,8.828,8.828,8.828h3.655l37.897-37.897   c3.448-3.448,3.448-9.034,0-12.483S41.345,405.207,37.897,408.655z"/>
	<path style="fill:#FFC850;" d="M512,450.207v-3.655l-37.897-37.897c-3.448-3.448-9.034-3.448-12.483,0s-3.448,9.034,0,12.483   l37.897,37.897h3.655C508.048,459.034,512,455.082,512,450.207z"/>
</g>
<path style="fill:#B4F0FF;" d="M467.862,88.276H44.138c-4.875,0-8.828,3.952-8.828,8.828v317.793c0,4.875,3.952,8.828,8.828,8.828  h423.724c4.875,0,8.828-3.952,8.828-8.828V97.103C476.69,92.228,472.737,88.276,467.862,88.276z"/>
<path style="fill:#FFC850;" d="M280.623,391.919l-77.589-21.161h-70.621l-77.589,21.161c-10.925,2.98-18.59,12.564-19.363,23.728  c0.4,4.505,4.067,8.077,8.676,8.077h256v-6.256C300.138,405.526,292.145,395.061,280.623,391.919z"/>
<path style="fill:#E1A546;" d="M121.064,423.724h93.32c12.42-10.979,20.946-26.269,23.258-43.527l-34.607-9.438h-70.621  l-34.607,9.438C100.118,397.455,108.644,412.745,121.064,423.724z"/>
<path style="fill:#FAD7A5;" d="M123.586,339.862v30.897c0,24.377,19.761,44.138,44.138,44.138s44.138-19.761,44.138-44.138v-30.897  H123.586z"/>
<path style="fill:#F0C891;" d="M123.586,360.068c13.258,6.801,28.242,10.691,44.138,10.691s30.88-3.89,44.138-10.691v-20.206  h-88.276V360.068z"/>
<path style="fill:#FFE1B4;" d="M247.172,238.345v-52.966H88.276v52.966c-9.751,0-17.655,7.904-17.655,17.655  c0,9.751,7.905,17.655,17.655,17.655c0,43.878,35.57,79.448,79.448,79.448s79.448-35.57,79.448-79.448  c9.751,0,17.655-7.905,17.655-17.655C264.828,246.249,256.923,238.345,247.172,238.345z"/>
<path style="fill:#FAD098;" d="M132.414,273.655v-88.276H88.276v52.966c-9.751,0-17.655,7.904-17.655,17.655  c0,9.751,7.905,17.655,17.655,17.655c0,43.878,35.57,79.448,79.448,79.448c7.666,0,15.055-1.145,22.069-3.171  C156.664,340.36,132.414,309.867,132.414,273.655z"/>
<path style="fill:#D7AF7D;" d="M167.724,317.793c-9.345,0-18.276-4.409-24.509-12.095c-3.078-3.789-2.491-9.345,1.293-12.418  c3.802-3.065,9.353-2.478,12.414,1.297c5.828,7.172,15.776,7.172,21.603,0c3.069-3.776,8.621-4.362,12.414-1.297  c3.784,3.073,4.371,8.629,1.293,12.418C186,313.384,177.069,317.793,167.724,317.793z"/>
<g>
	<path style="fill:#64463C;" d="M132.414,273.655c-4.879,0-8.828-3.953-8.828-8.828V256c0-4.875,3.948-8.828,8.828-8.828   c4.879,0,8.828,3.953,8.828,8.828v8.828C141.241,269.703,137.293,273.655,132.414,273.655z"/>
	<path style="fill:#64463C;" d="M203.034,273.655c-4.879,0-8.828-3.953-8.828-8.828V256c0-4.875,3.948-8.828,8.828-8.828   c4.879,0,8.828,3.953,8.828,8.828v8.828C211.862,269.703,207.914,273.655,203.034,273.655z"/>
</g>
<path style="fill:#D59F63;" d="M227.147,229.943c2.578,6.827,9.875,9.92,17.063,8.659c0.961-0.169,1.95-0.257,2.962-0.257  c3.232,0,6.222,0.932,8.828,2.449V185.38c0-13.207-7.336-24.585-18.074-30.641c-2.006-12.637-12.862-22.325-26.064-22.325h-70.621  c-34.127,0-61.793,27.666-61.793,61.793v46.587c2.606-1.517,5.595-2.449,8.828-2.449c1.135,0,2.242,0.11,3.312,0.321  c8.597,1.693,17.206-3.059,19.359-11.553l0,0l2.171-8.683c0.959-3.838,4.324-6.574,8.278-6.681  c16.424-0.443,59.779-2.621,89.34-13.321c5.234-1.894,10.874,1.293,11.789,6.783l3.305,19.832  C226.113,226.746,226.558,228.383,227.147,229.943z"/>
<path style="fill:#CD915A;" d="M132.414,185.379c0-29.252,23.713-52.966,52.966-52.966h-44.138  c-34.127,0-61.793,27.665-61.793,61.793v46.587c2.606-1.517,5.595-2.449,8.828-2.449c1.135,0,2.241,0.11,3.311,0.321  c8.598,1.692,17.206-3.059,19.359-11.553l2.171-8.683c0.959-3.838,4.323-6.574,8.278-6.681c2.898-0.078,6.668-0.215,11.019-0.439  v-25.93H132.414z"/>
<path style="fill:#785546;" d="M344.276,150.069L344.276,150.069L344.276,150.069L344.276,150.069L344.276,150.069  c53.629,0,97.104,44.974,97.104,100.452l0,0c0,63.924,8.828,136.675,8.828,136.675s-44.138,27.396-105.931,36.528  c-61.793-9.132-105.931-36.528-105.931-36.528s8.828-72.751,8.828-136.675l0,0C247.172,195.043,290.647,150.069,344.276,150.069  L344.276,150.069L344.276,150.069L344.276,150.069L344.276,150.069z"/>
<path style="fill:#64463C;" d="M308.966,241.389v-27.396c0-31.043,21.396-56.897,49.76-62.692  c-4.726-0.731-9.525-1.232-14.449-1.232h-0.001c-53.629,0-97.103,44.974-97.103,100.452c0,63.924-8.828,136.675-8.828,136.675  s44.138,27.396,105.931,36.528V277.917L308.966,241.389z"/>
<path style="fill:#E6AF78;" d="M423.725,423.724l-33.04-13.216c-6.703-2.681-11.098-9.173-11.098-16.392v-32.185h-70.621v32.185  c0,7.219-4.395,13.711-11.098,16.392l-33.04,13.216H423.725z"/>
<path style="fill:#D29B6E;" d="M308.966,390.497c10.96,4.299,22.844,6.744,35.31,6.744s24.35-2.445,35.31-6.744v-28.566h-70.621  v28.566H308.966z"/>
<path style="fill:#F0C087;" d="M314.412,234.245c-2.705-2.04-6.547-1.037-7.925,2.059c-4.565,10.256-16.262,28.523-41.659,28.523  v0.001c-9.751,0-17.655,7.904-17.655,17.655s7.905,17.655,17.655,17.655c0,43.878,35.57,79.448,79.448,79.448  s79.448-35.57,79.448-79.448C423.724,241.348,351.811,262.462,314.412,234.245z"/>
<path style="fill:#E6AF78;" d="M308.966,300.138v-66.282c-1.032,0.521-1.957,1.277-2.479,2.449  c-4.565,10.256-16.262,28.523-41.659,28.523v0.001c-9.751,0-17.655,7.904-17.655,17.655s7.905,17.655,17.655,17.655  c0,43.878,35.57,79.448,79.448,79.448c7.667,0,15.055-1.145,22.069-3.171C333.216,366.843,308.966,336.35,308.966,300.138z"/>
<path style="fill:#D29B6E;" d="M344.276,344.276c-9.345,0-18.276-4.409-24.509-12.095c-3.078-3.789-2.491-9.345,1.293-12.418  c3.802-3.069,9.353-2.483,12.414,1.297c5.828,7.172,15.776,7.172,21.603,0c3.06-3.78,8.621-4.366,12.414-1.297  c3.784,3.073,4.371,8.629,1.293,12.418C362.552,339.866,353.621,344.276,344.276,344.276z"/>
<g>
	<path style="fill:#553732;" d="M379.586,300.138c-4.879,0-8.828-3.953-8.828-8.828v-8.828c0-4.875,3.948-8.828,8.828-8.828   s8.828,3.953,8.828,8.828v8.828C388.414,296.185,384.466,300.138,379.586,300.138z"/>
	<path style="fill:#553732;" d="M308.966,300.138c-4.879,0-8.828-3.953-8.828-8.828v-8.828c0-4.875,3.948-8.828,8.828-8.828   s8.828,3.953,8.828,8.828v8.828C317.793,296.185,313.845,300.138,308.966,300.138z"/>
</g>
<g>
</g>
<g>
</g>
<g>
</g>
<g>
</g>
<g>
</g>
<g>
</g>
<g>
</g>
<g>
</g>
<g>
</g>
<g>
</g>
<g>
</g>
<g>
</g>
<g>
</g>
<g>
</g>
<g>
</g>
</svg>
