<?xml version="1.0" encoding="iso-8859-1"?>
<!-- Generator: Adobe Illustrator 19.0.0, SVG Export Plug-In . SVG Version: 6.00 Build 0)  -->
<svg xmlns="http://www.w3.org/2000/svg" xmlns:xlink="http://www.w3.org/1999/xlink" version="1.1" id="Layer_1" x="0px" y="0px" viewBox="0 0 512.001 512.001" style="enable-background:new 0 0 512.001 512.001;" xml:space="preserve">
<path style="fill:#785546;" d="M203.036,308.966c39.873-6.646,89.752-28.299,111.974-38.599  c6.897-3.196,10.928-10.436,10.071-17.988c-2.524-22.236-7.262-72.561-7.286-137.117C317.77,51.869,266.427-0.002,203.036,0l0,0l0,0  C139.643,0,88.301,51.872,88.277,115.264c-0.025,64.555-4.763,114.878-7.286,137.115c-0.857,7.553,3.174,14.792,10.071,17.988  C113.284,280.666,163.161,302.32,203.036,308.966z"/>
<path style="fill:#64463C;" d="M158.898,114.759V70.621c0-34.997,25.483-63.969,58.889-69.567C212.946,0.43,208.046,0,203.035,0  C139.656,0,88.277,51.379,88.277,114.759c0,64.869-4.767,115.438-7.295,137.694c-0.856,7.538,3.194,14.724,10.078,17.914  c22.222,10.299,72.102,31.954,111.976,38.599V141.241L158.898,114.759z"/>
<path style="fill:#E6AF78;" d="M338.464,345.783l-76.652-38.326c-8.972-4.486-14.639-13.656-14.639-23.687V256h-88.276v27.77  c0,10.031-5.667,19.201-14.64,23.687l-76.652,38.326c-8.972,4.486-14.64,13.656-14.64,23.687v36.598  c0,4.875,3.952,8.828,8.828,8.828v88.276c0,4.875,3.952,8.828,8.828,8.828h273.655v-97.103c4.876,0,8.828-3.953,8.828-8.828v-36.598  C353.103,359.44,347.436,350.269,338.464,345.783z"/>
<g>
	<path style="fill:#D29B6E;" d="M61.793,406.069v26.483h17.655c4.875,0,8.828,3.952,8.828,8.828V512h26.483V406.069H61.793z"/>
	<path style="fill:#D29B6E;" d="M158.898,282.078c12.993,5.636,27.147,8.941,41.996,9.212l2.142,0.02   c15.636,0,30.541-3.165,44.138-8.853V256h-88.276V282.078z"/>
</g>
<path style="fill:#F0C087;" d="M165.469,100.633c-3.71-1.872-7.758-0.71-10.845,2.071c-13.381,12.054-31.037,38.537-48.692,38.537  v0.001c-9.751,0-17.655,7.904-17.655,17.655c0,9.751,7.905,17.655,17.655,17.655h0.157c1.65,52.064,42.755,96.128,95.128,97.087  c54.461,0.996,98.922-42.853,98.922-97.087C300.138,116.928,226.173,131.272,165.469,100.633z"/>
<path style="fill:#E6AF78;" d="M158.898,176.552v-76.284c-1.522,0.495-2.99,1.28-4.274,2.436  c-13.381,12.054-31.037,38.537-48.692,38.537v0.001c-9.751,0-17.655,7.904-17.655,17.655c0,9.751,7.905,17.655,17.655,17.655h0.157  c1.65,52.064,42.755,96.128,95.128,97.087c9.866,0.181,19.387-1.152,28.392-3.711C188.823,258.418,158.898,221.019,158.898,176.552z  "/>
<path style="fill:#D29B6E;" d="M203.035,229.517c-12.19,0-23.586-3.849-32.086-10.836c-3.767-3.095-4.31-8.659-1.216-12.427  c3.086-3.75,8.655-4.315,12.422-1.211c10.552,8.664,31.207,8.664,41.759,0c3.767-3.103,9.336-2.539,12.422,1.211  c3.095,3.767,2.552,9.332-1.216,12.427C226.622,225.668,215.225,229.517,203.035,229.517z"/>
<path style="fill:#553732;" d="M247.173,176.552c-4.879,0-8.828-3.953-8.828-8.828v-8.828c0-4.875,3.948-8.828,8.828-8.828  c4.879,0,8.828,3.953,8.828,8.828v8.828C256,172.599,252.053,176.552,247.173,176.552z"/>
<path style="fill:#B4E66E;" d="M343.344,348.223l-54.597-27.299c-9.36,38.704-44.132,67.489-85.712,67.489  s-76.352-28.786-85.712-67.489l-54.597,27.299c-5.981,2.991-9.76,9.104-9.76,15.792v42.054c0,4.875,3.952,8.828,8.828,8.828h44.138  V512h203.034v-97.103h44.138v-50.882C353.103,357.327,349.326,351.214,343.344,348.223z"/>
<g>
	<path style="fill:#A0D755;" d="M288.746,320.925c-9.36,38.704-44.132,67.489-85.712,67.489s-76.352-28.786-85.712-67.489   l-16.137,8.068c12.577,44.461,53.361,77.076,101.849,77.076s89.272-32.615,101.849-77.076L288.746,320.925z"/>
	<path style="fill:#A0D755;" d="M353.103,369.47v36.599c0,4.875-3.952,8.828-8.828,8.828h-44.138v-10.342   c0-4.682,1.86-9.173,5.171-12.484l40.627-40.627C350.435,356.266,353.103,362.649,353.103,369.47z"/>
</g>
<path style="fill:#553732;" d="M158.898,176.552c-4.879,0-8.828-3.953-8.828-8.828v-8.828c0-4.875,3.948-8.828,8.828-8.828  c4.879,0,8.828,3.953,8.828,8.828v8.828C167.725,172.599,163.777,176.552,158.898,176.552z"/>
<path style="fill:#D7B48D;" d="M388.414,388.414h-88.276l-16.216,113.51c-0.76,5.318,3.367,10.076,8.739,10.076h103.23  c5.372,0,9.499-4.758,8.739-10.076L388.414,388.414z"/>
<path style="fill:#C09B78;" d="M388.414,388.414h-88.276l-3.335,23.342c8.649,17.517,26.651,29.623,47.473,29.623  s38.823-12.107,47.473-29.623L388.414,388.414z"/>
<path style="fill:#553732;" d="M308.966,256l-20.938-20.938c-3.203-3.203-8.276-3.476-11.794-0.624  c-10.945,8.873-33.659,28.459-46.717,48.045c0,0,17.655,44.138,52.966,52.966L308.966,256z"/>
<path style="fill:#64463C;" d="M288.027,235.062c-2.005-2.005-4.731-2.719-7.362-2.38c-7.178,13.136-31.6,64.505,1.526,102.673  c0.1,0.025,0.191,0.068,0.29,0.093L308.966,256L288.027,235.062z"/>
<path style="fill:#553732;" d="M379.586,256l20.938-20.938c3.203-3.203,8.276-3.476,11.794-0.624  c10.945,8.873,33.659,28.459,46.717,48.045c0,0-17.655,44.138-52.966,52.966L379.586,256z"/>
<path style="fill:#64463C;" d="M400.524,235.062c2.005-2.005,4.731-2.719,7.362-2.38c7.178,13.136,31.6,64.505-1.526,102.673  c-0.1,0.025-0.191,0.068-0.29,0.093L379.586,256L400.524,235.062z"/>
<path style="fill:#EBC9A0;" d="M344.276,406.069L344.276,406.069c-39.003,0-70.621-31.618-70.621-70.621v-26.483  c0-39.003,31.618-70.621,70.621-70.621l0,0c39.003,0,70.621,31.618,70.621,70.621v26.483  C414.897,374.451,383.279,406.069,344.276,406.069z"/>
<path style="fill:#D7B48D;" d="M308.966,335.448v-26.483c0-32.894,22.523-60.455,52.966-68.306  c-5.652-1.458-11.547-2.315-17.655-2.315c-39.003,0-70.621,31.618-70.621,70.621v26.483c0,39.003,31.618,70.621,70.621,70.621  c6.108,0,12.003-0.857,17.655-2.315C331.488,395.904,308.966,368.343,308.966,335.448z"/>
<circle style="fill:#F5DCB4;" cx="344.28" cy="388.41" r="35.31"/>
<g>
	<circle style="fill:#FAEBC8;" cx="317.79" cy="379.59" r="26.483"/>
	<circle style="fill:#FAEBC8;" cx="370.76" cy="379.59" r="26.483"/>
</g>
<g>
	<circle style="fill:#553732;" cx="344.28" cy="361.93" r="17.655"/>
	<path style="fill:#553732;" d="M308.966,335.448c-4.879,0-8.828-3.953-8.828-8.828v-8.828c0-4.875,3.948-8.828,8.828-8.828   s8.828,3.953,8.828,8.828v8.828C317.793,331.496,313.845,335.448,308.966,335.448z"/>
	<path style="fill:#553732;" d="M379.586,335.448c-4.879,0-8.828-3.953-8.828-8.828v-8.828c0-4.875,3.948-8.828,8.828-8.828   s8.828,3.953,8.828,8.828v8.828C388.414,331.496,384.466,335.448,379.586,335.448z"/>
</g>
<path style="fill:#C09B78;" d="M370.759,467.858c-4.879,0-8.828,3.953-8.828,8.828v0.017c0,9.744-7.899,17.642-17.642,17.642l0,0  c-9.744,0-17.642-7.899-17.642-17.642v-0.017c0-4.875-3.948-8.828-8.828-8.828s-8.828,3.953-8.828,8.828V512l0.001,0.001h17.629  h0.025h35.286h0.001l0,0h17.653l0.001-0.001v-35.314C379.586,471.81,375.638,467.858,370.759,467.858z"/>
<path style="fill:#A0D755;" d="M100.761,392.07L59.23,350.539c-3.914,3.309-6.263,8.211-6.263,13.476v42.054  c0,4.876,3.952,8.828,8.828,8.828h44.138v-10.342C105.932,399.872,104.072,395.381,100.761,392.07z"/>
<g>
</g>
<g>
</g>
<g>
</g>
<g>
</g>
<g>
</g>
<g>
</g>
<g>
</g>
<g>
</g>
<g>
</g>
<g>
</g>
<g>
</g>
<g>
</g>
<g>
</g>
<g>
</g>
<g>
</g>
</svg>
