<?xml version="1.0" encoding="iso-8859-1"?>
<!-- Generator: Adobe Illustrator 19.0.0, SVG Export Plug-In . SVG Version: 6.00 Build 0)  -->
<svg xmlns="http://www.w3.org/2000/svg" xmlns:xlink="http://www.w3.org/1999/xlink" version="1.1" id="Layer_1" x="0px" y="0px" viewBox="0 0 512 512" style="enable-background:new 0 0 512 512;" xml:space="preserve">
<path style="fill:#FFDC64;" d="M137.143,34.479h-64c-5.05,0-9.143,4.093-9.143,9.143v9.143c0,5.049,4.093,9.143,9.143,9.143l0,0  v91.429h64v-91.43l0,0c5.05,0,9.143-4.094,9.143-9.143v-9.143C146.286,38.572,142.193,34.479,137.143,34.479z"/>
<rect x="73.14" y="61.907" style="fill:#FFC850;" width="64" height="18.286"/>
<polygon style="fill:#FFDC64;" points="484.571,208.193 256,52.764 27.429,208.193 27.429,482.479 484.571,482.479 "/>
<polygon style="fill:#FFC850;" points="256,52.764 27.429,208.193 27.429,244.764 256,89.336 484.571,244.764 484.571,208.193 "/>
<g>
	<path style="fill:#FF507D;" d="M245.372,23.785L7.657,193.58C2.852,197.013,0,202.555,0,208.46v27.481   c0,3.693,4.174,5.841,7.18,3.695L256,61.907l248.82,177.729c3.005,2.147,7.18-0.002,7.18-3.695V208.46   c0-5.905-2.852-11.447-7.657-14.88L266.628,23.785C260.27,19.243,251.73,19.243,245.372,23.785z"/>
	<path style="fill:#FF507D;" d="M305.182,208.193c-19.199,0-36.58,7.666-49.182,20.059c-12.602-12.394-29.983-20.059-49.182-20.059   c-38.48,0-69.675,30.779-69.675,68.747c0,52.572,62.503,115.758,118.857,141.538c56.354-25.78,118.857-88.967,118.857-141.538   C374.857,238.972,343.663,208.193,305.182,208.193z"/>
</g>
<g>
	<path style="fill:#D23C69;" d="M192,276.94c0-30.403,15.402-56.15,36.732-65.222c-6.897-2.257-14.249-3.526-21.914-3.526   c-38.48,0-69.675,30.779-69.675,68.747c0,52.571,62.503,115.758,118.857,141.539c5.134-2.349,10.319-5.104,15.503-8.037   C231.719,381.177,192,324.722,192,276.94z"/>
	<path style="fill:#D23C69;" d="M0,222.293v13.648c0,3.693,4.175,5.841,7.18,3.695L256,61.907l248.82,177.729   c3.005,2.146,7.18-0.002,7.18-3.695v-13.648L256,39.436L0,222.293z"/>
</g>
<path style="fill:#FFC850;" d="M484.571,400.193h-153.3c-7.727,0-15.347,2.318-21.514,6.975  c-14.955,11.292-30.693,20.869-46.15,27.939c-2.415,1.105-5.011,1.657-7.607,1.657s-5.191-0.552-7.607-1.657  c-15.457-7.071-31.195-16.648-46.15-27.939c-6.167-4.656-13.787-6.975-21.514-6.975h-153.3c-5.049,0-9.143,4.093-9.143,9.143v73.143  c0,5.049,4.093,9.143,9.143,9.143h457.143c5.049,0,9.143-4.093,9.143-9.143v-73.143  C493.714,404.286,489.621,400.193,484.571,400.193z"/>
<g>
</g>
<g>
</g>
<g>
</g>
<g>
</g>
<g>
</g>
<g>
</g>
<g>
</g>
<g>
</g>
<g>
</g>
<g>
</g>
<g>
</g>
<g>
</g>
<g>
</g>
<g>
</g>
<g>
</g>
</svg>
