<?xml version="1.0" encoding="iso-8859-1"?>
<!-- Generator: Adobe Illustrator 19.0.0, SVG Export Plug-In . SVG Version: 6.00 Build 0)  -->
<svg xmlns="http://www.w3.org/2000/svg" xmlns:xlink="http://www.w3.org/1999/xlink" version="1.1" id="Layer_1" x="0px" y="0px" viewBox="0 0 512 512" style="enable-background:new 0 0 512 512;" xml:space="preserve">
<path style="fill:#B48764;" d="M348.69,512h44.138c4.875,0,8.828-3.952,8.828-8.828V397.241H348.69V512z"/>
<path style="fill:#966D50;" d="M401.655,397.241v26.483H384c-4.875,0-8.828,3.952-8.828,8.828V512H348.69V397.241H401.655z"/>
<path style="fill:#B48764;" d="M225.103,512h-44.138c-4.875,0-8.828-3.952-8.828-8.828V397.241h52.966V512z"/>
<path style="fill:#966D50;" d="M172.138,397.241v26.483h17.655c4.875,0,8.828,3.952,8.828,8.828V512h26.483V397.241H172.138z"/>
<path style="fill:#FF507D;" d="M388.286,317.742l-66.079-26.432h-70.621l-66.079,26.432c-13.406,5.362-22.197,18.346-22.197,32.785  v46.714c0,4.875,3.952,8.828,8.828,8.828h44.138V512h141.241V406.069h44.138c4.875,0,8.828-3.952,8.828-8.828v-46.714  C410.483,336.088,401.692,323.104,388.286,317.742z"/>
<path style="fill:#D23C69;" d="M251.586,291.31l-17.564,7.026c-0.02,0.603-0.091,1.193-0.091,1.802  c0,29.252,23.713,52.966,52.966,52.966c29.252,0,52.966-23.713,52.966-52.966c0-0.608-0.071-1.198-0.091-1.802l-17.564-7.026  H251.586z"/>
<path style="fill:#B48764;" d="M286.897,335.448L286.897,335.448c-19.501,0-35.31-15.809-35.31-35.31v-61.793h70.621v61.793  C322.207,319.639,306.398,335.448,286.897,335.448z"/>
<path style="fill:#966D50;" d="M251.586,276.808c11.142,3.616,22.979,5.675,35.31,5.675s24.169-2.059,35.31-5.675v-38.463h-70.621  v38.463H251.586z"/>
<path style="fill:#C39772;" d="M392.828,132.414H384V79.448H189.793v52.966h-8.828c-9.751,0-17.655,7.904-17.655,17.655  c0,9.751,7.905,17.655,17.655,17.655h8.828c0,53.629,43.475,97.103,97.103,97.103S384,221.353,384,167.724h8.828  c9.751,0,17.655-7.905,17.655-17.655C410.483,140.318,402.578,132.414,392.828,132.414z"/>
<path style="fill:#B48764;" d="M375.172,114.759v-35.31H189.793v52.966h-7.883c-8.795,0-16.946,6.009-18.358,14.69  c-1.799,11.061,6.691,20.62,17.413,20.62h8.828c0,53.629,43.475,97.103,97.103,97.103c9.193,0,18.054-1.363,26.483-3.751  c-40.739-11.539-70.621-48.918-70.621-93.353v-44.138c0-4.875,3.952-8.828,8.828-8.828h123.586V114.759z"/>
<g>
	<path style="fill:#553732;" d="M216.276,88.276l-5.989,29.945c-1.65,8.252-8.896,14.193-17.312,14.193h-12.009V88.276H216.276"/>
	<path style="fill:#553732;" d="M357.517,88.276l5.989,29.945c1.65,8.252,8.896,14.193,17.312,14.193h12.009V88.276H357.517"/>
	<path style="fill:#553732;" d="M242.759,167.724c-4.879,0-8.828-3.953-8.828-8.828v-8.828c0-4.875,3.948-8.828,8.828-8.828   c4.879,0,8.828,3.953,8.828,8.828v8.828C251.586,163.772,247.638,167.724,242.759,167.724z"/>
	<path style="fill:#553732;" d="M331.034,167.724c-4.879,0-8.828-3.953-8.828-8.828v-8.828c0-4.875,3.948-8.828,8.828-8.828   s8.828,3.953,8.828,8.828v8.828C339.862,163.772,335.914,167.724,331.034,167.724z"/>
</g>
<path style="fill:#966D50;" d="M286.897,220.69c-12.19,0-23.586-3.849-32.086-10.836c-3.767-3.095-4.31-8.659-1.216-12.427  c3.078-3.759,8.664-4.315,12.422-1.211c10.552,8.664,31.207,8.664,41.759,0c3.759-3.103,9.345-2.547,12.422,1.211  c3.095,3.767,2.552,9.332-1.216,12.427C310.483,216.841,299.086,220.69,286.897,220.69z"/>
<path style="fill:#FF507D;" d="M295.724,0h-17.655c-53.629,0-97.103,43.475-97.103,97.103l0,0h211.862l0,0  C392.828,43.475,349.353,0,295.724,0z"/>
<g>
	<path style="fill:#D23C69;" d="M295.724,0h-17.655c-47.591,0-87.109,34.262-95.422,79.448h-72.302   c-4.879,0-8.828,3.953-8.828,8.828s3.948,8.828,8.828,8.828h132.414c0-46.025,32.056-84.482,75.034-94.488   C310.692,0.963,303.328,0,295.724,0z"/>
	<path style="fill:#D23C69;" d="M209.9,372.148l-38.112-44.464c-5.323,6.256-8.478,14.272-8.478,22.843v46.714   c0,4.875,3.952,8.828,8.828,8.828h44.138v-16.686C216.276,383.061,214.014,376.948,209.9,372.148z"/>
	<path style="fill:#D23C69;" d="M363.893,372.148l38.112-44.464c5.323,6.256,8.478,14.272,8.478,22.843v46.714   c0,4.875-3.952,8.828-8.828,8.828h-44.138v-16.686C357.517,383.061,359.779,376.948,363.893,372.148z"/>
</g>
<g>
</g>
<g>
</g>
<g>
</g>
<g>
</g>
<g>
</g>
<g>
</g>
<g>
</g>
<g>
</g>
<g>
</g>
<g>
</g>
<g>
</g>
<g>
</g>
<g>
</g>
<g>
</g>
<g>
</g>
</svg>
