<?xml version="1.0" encoding="iso-8859-1"?>
<!-- Generator: Adobe Illustrator 19.0.0, SVG Export Plug-In . SVG Version: 6.00 Build 0)  -->
<svg version="1.1" id="Capa_1" xmlns="http://www.w3.org/2000/svg" xmlns:xlink="http://www.w3.org/1999/xlink" x="0px" y="0px"
	 viewBox="0 0 512 512" style="enable-background:new 0 0 512 512;" xml:space="preserve">
<path style="fill:#F8D9B9;" d="M418.934,272.395l1.027,0.012c-74.399,0-50.363-87.897-131.99-169.525
	c-65.878-65.877-172.686-65.877-238.563,0c-65.877,65.878-65.877,172.686,0,238.563c88.844,88.844,227.589,117.081,369.526,117.081
	c51.399,0,93.066-41.667,93.066-93.066S470.333,272.395,418.934,272.395z M168.689,248.882c-14.756,0-26.719-11.962-26.719-26.719
	c0-14.756,11.962-26.719,26.719-26.719c14.756,0,26.719,11.962,26.719,26.719C195.408,236.92,183.446,248.882,168.689,248.882z"/>
<path style="fill:#F18290;" d="M419.961,309.976v0.003c-29.967,0.001-54.199-10.544-72.025-31.341
	c-13.795-16.098-21.892-35.92-30.465-56.909c-11.72-28.692-25.002-61.212-56.069-92.279c-51.122-51.122-134.304-51.122-185.426,0
	c-51.123,51.123-51.123,134.305-0.001,185.426c70.386,70.387,185.775,106.077,342.959,106.077
	c14.823-0.001,28.757-5.773,39.239-16.254c10.481-10.481,16.254-24.417,16.253-39.238
	C474.426,335.206,450.087,310.528,419.961,309.976z M168.689,248.882c-14.756,0-26.719-11.962-26.719-26.719
	c0-14.756,11.962-26.719,26.719-26.719c14.756,0,26.719,11.962,26.719,26.719C195.408,236.92,183.446,248.882,168.689,248.882z"/>
<g>
	<path style="fill:#F8D9B9;" d="M168.689,159.13c-34.813,0-63.034,28.221-63.034,63.034s28.221,63.034,63.034,63.034
		s63.034-28.221,63.034-63.034C231.723,187.351,203.502,159.13,168.689,159.13z M168.689,248.882
		c-14.756,0-26.719-11.962-26.719-26.719c0-14.756,11.962-26.719,26.719-26.719c14.756,0,26.719,11.962,26.719,26.719
		C195.408,236.92,183.446,248.882,168.689,248.882z"/>
	<path style="fill:#F8D9B9;" d="M316.03,422.669c-3.748,0-6.987-2.806-7.439-6.619c-6.609-55.851,5.955-102.39,37.347-138.325
		c2.725-3.121,7.463-3.439,10.582-0.715c3.12,2.725,3.439,7.463,0.715,10.582c-28.483,32.608-39.838,75.234-33.747,126.694
		c0.486,4.114-2.453,7.843-6.566,8.33C316.622,422.651,316.325,422.669,316.03,422.669z"/>
</g>
<path style="opacity:0.1;enable-background:new    ;" d="M157.183,53.871c-39.26,2.668-77.764,19.001-107.775,49.011
	c-65.877,65.877-65.877,172.685,0,238.563c71.138,71.138,174.271,103.414,285.417,113.455
	C122.284,364.879,72.314,152.154,157.183,53.871z"/>
<g style="opacity:0.1;">
	<circle cx="250.45" cy="159.13" r="7.443"/>
	<circle cx="434.08" cy="364.81" r="7.443"/>
	<circle cx="222.2" cy="354.55" r="7.443"/>
	<circle cx="263.44" cy="364.81" r="7.443"/>
	<circle cx="283.51" cy="329.32" r="7.443"/>
	<circle cx="67.65" cy="246.94" r="7.443"/>
	<circle cx="277.82" cy="202.89" r="7.443"/>
</g>
<g>
</g>
<g>
</g>
<g>
</g>
<g>
</g>
<g>
</g>
<g>
</g>
<g>
</g>
<g>
</g>
<g>
</g>
<g>
</g>
<g>
</g>
<g>
</g>
<g>
</g>
<g>
</g>
<g>
</g>
</svg>
