<?xml version="1.0" encoding="iso-8859-1"?>
<!-- Generator: Adobe Illustrator 19.0.0, SVG Export Plug-In . SVG Version: 6.00 Build 0)  -->
<svg version="1.1" id="Capa_1" xmlns="http://www.w3.org/2000/svg" xmlns:xlink="http://www.w3.org/1999/xlink" x="0px" y="0px"
	 viewBox="0 0 512.001 512.001" style="enable-background:new 0 0 512.001 512.001;" xml:space="preserve">
<path style="fill:#F8D9B9;" d="M144.149,482.729c8.399-18.012,5.769-38.105-5.149-51.646c-2.95-3.658-2.629-8.961,0.694-12.284
	l154.677-154.677l-46.493-46.493L93.201,372.306c-3.323,3.323-8.625,3.643-12.284,0.694c-13.541-10.918-33.634-13.548-51.646-5.149
	C4.78,379.272-6.578,406.75,3.901,429.224c8.053,17.27,26.658,26.557,45.955,24.751c4.711-0.441,8.61,3.458,8.169,8.169
	c-1.806,19.297,7.481,37.902,24.751,45.955C105.252,518.578,132.729,507.22,144.149,482.729z"/>
<path style="opacity:0.1;enable-background:new    ;" d="M206.358,352.134l88.012-88.012l-46.493-46.493l-88.012,88.012
	c3.85,11.827,9.507,21.859,17.07,29.422C184.5,342.628,194.531,348.285,206.358,352.134z"/>
<path style="fill:#BA8E79;" d="M259.64,43.298c-80.668,80.668-106.543,221.876-59.679,268.741
	c46.865,46.865,188.073,20.989,268.741-59.679c57.731-57.731,57.731-151.331,0-209.062S317.371-14.433,259.64,43.298z"/>
<g>
	
		<ellipse transform="matrix(0.7071 -0.7071 0.7071 0.7071 5.2539 236.6161)" style="fill:#F18290;" cx="288.248" cy="111.966" rx="23.23" ry="29.16"/>
	
		<ellipse transform="matrix(-0.7071 0.7071 -0.7071 -0.7071 841.1005 99.1161)" style="fill:#F18290;" cx="400.023" cy="223.756" rx="23.23" ry="29.16"/>
</g>
<g>
	<path style="fill:#5D6671;" d="M316.65,115.107c-1.919,0-3.839-0.732-5.304-2.196c-2.929-2.93-2.929-7.678,0-10.607l7.282-7.282
		c2.93-2.928,7.678-2.928,10.607,0c2.929,2.93,2.929,7.678,0,10.607l-7.282,7.282C320.489,114.375,318.569,115.107,316.65,115.107z"
		/>
	<path style="fill:#5D6671;" d="M404.393,202.85c-1.919,0-3.839-0.732-5.304-2.196c-2.929-2.93-2.929-7.678,0-10.607l7.282-7.282
		c2.93-2.928,7.678-2.928,10.607,0c2.929,2.93,2.929,7.678,0,10.607l-7.282,7.282C408.231,202.117,406.312,202.85,404.393,202.85z"
		/>
	<path style="fill:#5D6671;" d="M370.272,170.919c-7.722,0.001-15.154-3.054-20.646-8.544c-5.966-5.967-9.055-14.223-8.477-22.652
		c0.283-4.133,3.866-7.245,7.995-6.97c4.133,0.283,7.253,3.863,6.97,7.995c-0.281,4.105,1.22,8.121,4.118,11.021
		c2.897,2.897,6.909,4.399,11.02,4.117c4.102-0.265,7.712,2.837,7.995,6.97c0.283,4.132-2.837,7.712-6.97,7.995
		C371.607,170.896,370.939,170.919,370.272,170.919z"/>
</g>
<path style="opacity:0.1;enable-background:new    ;" d="M468.702,252.36c12.01-12.01,21.513-25.577,28.526-40.047
	c-261.517,155.794-302.611-6.656-292.104-90.334c-34.94,73.727-38.894,156.329-5.163,190.059
	C246.826,358.904,388.034,333.029,468.702,252.36z"/>
<path style="opacity:0.1;enable-background:new    ;" d="M141.125,488.3c-57.087,10.535-66.227-25.191-67.28-47.612
	c-0.233-4.956-3.773-9.198-8.636-10.179c-35.494-7.155-49.284-39.792-36.778-62.243C4.528,379.921-6.456,407.01,3.902,429.223
	c8.053,17.27,26.657,26.557,45.954,24.751c4.676-0.438,8.608,3.495,8.17,8.17c-1.806,19.297,7.481,37.901,24.751,45.954
	C103.467,517.746,128.386,508.876,141.125,488.3z"/>
<g style="opacity:0.1;">
	<circle cx="327.74" cy="43" r="7.443"/>
	<circle cx="371.76" cy="35.557" r="7.443"/>
	<circle cx="232.83" cy="284.88" r="7.443"/>
	<circle cx="280.81" cy="299.77" r="7.443"/>
	<circle cx="269" cy="270" r="7.443"/>
	<circle cx="482.86" cy="129.42" r="7.443"/>
</g>
<g>
</g>
<g>
</g>
<g>
</g>
<g>
</g>
<g>
</g>
<g>
</g>
<g>
</g>
<g>
</g>
<g>
</g>
<g>
</g>
<g>
</g>
<g>
</g>
<g>
</g>
<g>
</g>
<g>
</g>
</svg>
