<?xml version="1.0" encoding="iso-8859-1"?>
<!-- Generator: Adobe Illustrator 19.0.0, SVG Export Plug-In . SVG Version: 6.00 Build 0)  -->
<svg version="1.1" id="Capa_1" xmlns="http://www.w3.org/2000/svg" xmlns:xlink="http://www.w3.org/1999/xlink" x="0px" y="0px"
	 viewBox="0 0 512.001 512.001" style="enable-background:new 0 0 512.001 512.001;" xml:space="preserve">
<path style="fill:#F18290;" d="M323.928,283.085c7.884,7.884,7.177,20.896-1.546,27.84
	c-71.498,56.914-175.888,52.292-242.044-13.864C14.181,230.904,9.56,126.514,66.474,55.016c6.944-8.724,19.956-9.43,27.84-1.546
	L323.928,283.085z"/>
<path style="opacity:0.19;fill:#FFFFFF;enable-background:new    ;" d="M309.501,268.658c-55.438,55.438-145.322,55.438-200.76,0
	s-55.438-145.322,0-200.76L309.501,268.658z"/>
<g>
	<path style="fill:#F8D9B9;" d="M174.17,210.728c-1.919,0-3.839-0.732-5.303-2.196c-2.929-2.93-2.929-7.678,0-10.607l6.604-6.605
		c2.929-2.928,7.678-2.928,10.607,0c2.929,2.93,2.929,7.678,0,10.607l-6.605,6.604C178.009,209.996,176.089,210.728,174.17,210.728z
		"/>
	<path style="fill:#F8D9B9;" d="M218.492,245.393c-0.724,0-1.459-0.105-2.187-0.327c-3.963-1.206-6.197-5.395-4.991-9.358
		l2.943-9.671c1.206-3.963,5.394-6.202,9.358-4.991c3.963,1.206,6.197,5.395,4.991,9.358l-2.943,9.671
		C224.679,243.309,221.706,245.393,218.492,245.393z"/>
	<path style="fill:#F8D9B9;" d="M182.366,249.411c-1.391,0-2.798-0.387-4.055-1.196c-3.482-2.242-4.487-6.884-2.244-10.366
		l3.476-5.396c2.244-3.481,6.886-4.485,10.367-2.243c3.482,2.242,4.487,6.884,2.244,10.366l-3.476,5.396
		C187.245,248.197,184.831,249.411,182.366,249.411z"/>
	<path style="fill:#F8D9B9;" d="M139.505,166.411c-3.215,0-6.188-2.083-7.173-5.318c-1.206-3.963,1.029-8.152,4.992-9.358
		l9.671-2.943c3.962-1.206,8.152,1.028,9.359,4.991c1.206,3.963-1.029,8.152-4.992,9.358l-9.671,2.943
		C140.963,166.306,140.228,166.411,139.505,166.411z"/>
	<path style="fill:#F8D9B9;" d="M135.495,202.526c-2.464,0-4.878-1.213-6.312-3.439c-2.244-3.482-1.239-8.123,2.243-10.366
		l5.396-3.477c3.481-2.244,8.123-1.241,10.367,2.243c2.244,3.481,1.239,8.123-2.243,10.366l-5.396,3.477
		C138.294,202.14,136.886,202.526,135.495,202.526z"/>
</g>
<path style="opacity:0.1;enable-background:new    ;" d="M322.382,310.925c8.724-6.944,9.43-19.956,1.546-27.84l-46.978-46.978
	C115.184,272.616,44.193,152.131,47.867,83.519c-36.158,68.739-25.336,155.735,32.47,213.542
	C146.494,363.217,250.884,367.839,322.382,310.925z"/>
<path style="fill:#F8D9B9;" d="M157.231,231.992c-48.759,8.029-72.67,52.285-115.303,67.787s-79.452,107.552,31.006,137.588
	c110.458,30.037,189.465,7.476,220.917-0.992c50.384-13.565,99.8-77.61,71.555-131.752
	C342.92,261.523,257.031,215.557,157.231,231.992z"/>
<path style="opacity:0.1;enable-background:new    ;" d="M365.405,304.624c-20.294-38.901-92.242-80.129-179.448-75.712
	c-15.077,30.349-11.078,67.39,11.98,94.206c5.575,6.483,11.867,11.899,18.636,16.275c3.864,2.497,4.679,7.81,1.655,11.277
	c-8.6,9.86-16.944,20.387-24.676,31.858c-4.058,6.021-11.184,9.272-18.358,8.154c-71.529-11.146-114.069-61.894-117.109-98.5
	c-5.124,2.937-10.471,5.528-16.158,7.596C-0.706,315.281-37.525,407.33,72.933,437.366s189.465,7.476,220.917-0.992
	C344.235,422.811,393.65,358.765,365.405,304.624z"/>
<g style="opacity:0.12;">
	<circle cx="67.201" cy="383.489" r="7.328"/>
	<circle cx="97.191" cy="316.749" r="7.328"/>
	<circle cx="141.411" cy="402.389" r="7.328"/>
	<circle cx="179.501" cy="359.859" r="7.328"/>
	<circle cx="166.871" cy="276.349" r="7.328"/>
	<circle cx="302.141" cy="402.389" r="7.328"/>
</g>
<path style="fill:#7CD9D2;" d="M449.487,349.187c0.814-4.751,3.958-8.796,8.374-10.73c9.545-4.181,18.488-10.168,26.301-17.981
	c24.831-24.831,31.34-61.038,19.544-91.842c-1.232-3.216-1.118-6.816,0.311-9.949c13.814-30.277,9.827-65.273-12.924-88.024
	c-22.751-22.751-57.747-26.738-88.024-12.924c-3.133,1.43-6.733,1.543-9.949,0.311c-30.804-11.797-67.011-5.288-91.842,19.543
	c-7.813,7.813-13.8,16.756-17.981,26.301c-1.935,4.417-5.982,7.56-10.735,8.375c-18.623,3.192-36.398,12.508-50.066,27.988
	c-28.281,32.03-28.593,80.613-0.758,113.032c5.581,6.501,11.883,11.93,18.665,16.315c3.864,2.499,4.693,7.819,1.668,11.287
	c-21.463,24.607-41.357,53.331-54.037,90.62c-4.265,12.541,3.158,26.036,16.06,29.039l12.356,2.876
	c11.11,2.586,22.383-3.617,26.145-14.386c9.079-25.991,23.058-47.183,38.967-66.152c3.221-3.84,9.178-3.498,12.028,0.625
	c3.849,5.568,8.425,10.784,13.74,15.51c32.284,28.715,81.507,28.909,113.977,0.405C436.901,385.736,446.282,367.889,449.487,349.187
	z"/>
<path style="opacity:0.1;enable-background:new    ;" d="M339.794,115.313c-14.108,3.788-27.445,11.206-38.517,22.279
	c-7.813,7.813-13.8,16.757-17.981,26.302c-1.935,4.417-5.982,7.559-10.734,8.374c-18.96,3.25-37.041,12.848-50.804,28.835
	c-27.903,32.412-27.863,79.806,0.021,112.235c5.571,6.479,11.859,11.892,18.623,16.267c3.864,2.499,4.693,7.819,1.668,11.287
	c-21.463,24.607-41.357,53.331-54.037,90.621c-4.265,12.541,3.158,26.036,16.06,29.039l12.356,2.877
	c11.105,2.585,22.382-3.609,26.141-14.375c0.439-1.257,0.899-2.493,1.361-3.728c-50.81,2.796-7.24-66.416,18.74-99.054
	c5.036-6.326,6.512-14.764,3.933-22.427c-18.425-54.768,9.624-89.901,31.599-105.72c6.045-4.352,9.314-11.668,8.39-19.06
	C303.604,174.996,310.281,135.122,339.794,115.313z"/>
<g style="opacity:0.1;">
	<path d="M364.635,205.957c-3.043,0-5.904-1.865-7.029-4.884l-12.907-34.643c-1.446-3.881,0.528-8.2,4.41-9.646
		c3.877-1.446,8.2,0.528,9.647,4.41l12.907,34.643c1.446,3.881-0.528,8.2-4.41,9.646
		C366.39,205.805,365.505,205.957,364.635,205.957z"/>
	<path d="M287.653,282.938c-3.042,0-5.904-1.865-7.029-4.883l-12.908-34.642c-1.446-3.882,0.528-8.201,4.409-9.647
		c3.882-1.442,8.201,0.528,9.647,4.409l12.908,34.642c1.446,3.882-0.528,8.201-4.409,9.647
		C289.408,282.786,288.523,282.938,287.653,282.938z"/>
	<path d="M457.94,277.528c-0.87,0-1.755-0.152-2.617-0.474l-34.643-12.907c-3.882-1.446-5.856-5.766-4.41-9.646
		c1.446-3.883,5.769-5.855,9.646-4.41l34.643,12.907c3.882,1.446,5.857,5.766,4.41,9.646
		C463.844,275.663,460.981,277.528,457.94,277.528z"/>
	<path d="M380.957,354.511c-0.87,0-1.755-0.152-2.618-0.474l-34.642-12.908c-3.881-1.446-5.855-5.766-4.409-9.647
		s5.766-5.854,9.647-4.409l34.642,12.908c3.881,1.446,5.855,5.766,4.409,9.647C386.861,352.645,383.999,354.511,380.957,354.511z"/>
	<path d="M302.141,324.246c-1.629,0-3.268-0.527-4.645-1.616c-3.25-2.568-3.802-7.285-1.233-10.534
		c27.917-35.321,100.161-114.503,140.655-137.484c3.602-2.046,8.18-0.783,10.225,2.82c2.045,3.603,0.782,8.181-2.82,10.225
		c-19.906,11.297-82.475,65.65-136.292,133.74C306.55,323.269,304.355,324.246,302.141,324.246z"/>
</g>
<g>
</g>
<g>
</g>
<g>
</g>
<g>
</g>
<g>
</g>
<g>
</g>
<g>
</g>
<g>
</g>
<g>
</g>
<g>
</g>
<g>
</g>
<g>
</g>
<g>
</g>
<g>
</g>
<g>
</g>
</svg>
