<?xml version="1.0" encoding="iso-8859-1"?>
<!-- Generator: Adobe Illustrator 19.0.0, SVG Export Plug-In . SVG Version: 6.00 Build 0)  -->
<svg version="1.1" id="Capa_1" xmlns="http://www.w3.org/2000/svg" xmlns:xlink="http://www.w3.org/1999/xlink" x="0px" y="0px"
	 viewBox="0 0 512.001 512.001" style="enable-background:new 0 0 512.001 512.001;" xml:space="preserve">
<g>
	<path style="fill:#5D6671;" d="M86.975,245.628c-4.142,0-7.5-3.357-7.5-7.5v-63.169c0-4.143,3.358-7.5,7.5-7.5s7.5,3.357,7.5,7.5
		v63.169C94.475,242.271,91.117,245.628,86.975,245.628z"/>
	<path style="fill:#5D6671;" d="M332.792,245.628c-4.142,0-7.5-3.357-7.5-7.5v-63.169c0-4.143,3.358-7.5,7.5-7.5s7.5,3.357,7.5,7.5
		v63.169C340.292,242.271,336.934,245.628,332.792,245.628z"/>
	<path style="fill:#5D6671;" d="M332.792,214.044H86.975c-4.142,0-7.5-3.357-7.5-7.5s3.358-7.5,7.5-7.5h245.817
		c4.142,0,7.5,3.357,7.5,7.5C340.292,210.687,336.934,214.044,332.792,214.044z"/>
	<path style="fill:#5D6671;" d="M250.853,245.628c-4.142,0-7.5-3.357-7.5-7.5v-63.169c0-4.143,3.358-7.5,7.5-7.5s7.5,3.357,7.5,7.5
		v63.169C258.353,242.271,254.995,245.628,250.853,245.628z"/>
	<path style="fill:#5D6671;" d="M168.914,245.628c-4.142,0-7.5-3.357-7.5-7.5v-63.169c0-4.143,3.358-7.5,7.5-7.5s7.5,3.357,7.5,7.5
		v63.169C176.414,242.271,173.056,245.628,168.914,245.628z"/>
</g>
<path style="fill:#F0F1F1;" d="M357.811,441.578H61.955c-18.783,0-34.01-15.227-34.01-34.01V252.867
	c0-8.14,6.599-14.739,14.739-14.739h334.398c8.14,0,14.739,6.599,14.739,14.739v154.701
	C391.821,426.351,376.594,441.578,357.811,441.578z"/>
<g style="opacity:0.12;">
	<path d="M391.821,407.568v-14.812l0,0c-24.461,0-44.29,19.829-44.29,44.29v4.532h10.28
		C376.594,441.578,391.821,426.351,391.821,407.568z"/>
	<path d="M27.945,407.568v-14.812l0,0c24.461,0,44.29,19.829,44.29,44.29v4.532h-10.28
		C43.172,441.578,27.945,426.351,27.945,407.568z"/>
</g>
<path style="fill:#F18290;" d="M391.821,317.004H27.945v-64.136c0-8.14,6.599-14.739,14.739-14.739h334.398
	c8.14,0,14.739,6.599,14.739,14.739V317.004z"/>
<path style="fill:#C1C6CA;" d="M347.357,174.959H72.409c-6.966,0-12.613-5.647-12.613-12.613v-42.063
	c0-6.966,5.647-12.613,12.613-12.613H359.97v54.676C359.97,169.312,354.323,174.959,347.357,174.959z"/>
<rect x="59.796" y="133.81" style="opacity:0.1;enable-background:new    ;" width="300.17" height="15"/>
<path style="fill:#F8D662;" d="M359.97,141.315h135.209c9.291,0,16.822-7.532,16.822-16.822l0,0c0-9.291-7.532-16.822-16.822-16.822
	H359.97V141.315z"/>
<g>
	<path style="fill:#BA8E79;" d="M76.104,76.053c-1.728,0-3.463-0.593-4.878-1.806c-8.309-7.122-19.698-13.103-24.723-14.017
		c-4.075-0.74-6.779-4.644-6.038-8.721c0.741-4.074,4.646-6.784,8.72-6.037c8.335,1.515,22.007,8.989,31.802,17.386
		c3.145,2.695,3.509,7.431,0.813,10.575C80.318,75.164,78.217,76.053,76.104,76.053z"/>
	<path style="fill:#BA8E79;" d="M39.765,214.874c-1.783,0-3.572-0.632-5.004-1.916c-1.598-1.432-5.641-4.283-10.664-5.884
		c-5.07-1.617-9.431-1.445-12.959,0.511c-3.625,2.007-8.188,0.699-10.196-2.923c-2.008-3.623-0.7-8.188,2.923-10.196
		c14.841-8.229,32.597-0.129,40.909,7.324c3.084,2.765,3.343,7.506,0.578,10.591C43.871,214.032,41.822,214.874,39.765,214.874z"/>
	<path style="fill:#BA8E79;" d="M343.663,76.053c-2.114,0-4.214-0.889-5.698-2.619c-2.696-3.144-2.332-7.88,0.814-10.575
		c9.795-8.396,23.467-15.871,31.802-17.386c4.077-0.744,7.98,1.963,8.72,6.037c0.741,4.076-1.962,7.98-6.038,8.721
		c-5.025,0.914-16.415,6.895-24.723,14.017C347.126,75.459,345.39,76.053,343.663,76.053z"/>
	<path style="fill:#BA8E79;" d="M380.001,214.874c-2.057,0-4.106-0.842-5.587-2.494c-2.765-3.084-2.506-7.825,0.578-10.591
		c8.313-7.452,26.067-15.553,40.91-7.323c3.623,2.009,4.931,6.573,2.923,10.196c-2.008,3.622-6.573,4.931-10.196,2.923
		c-3.527-1.956-7.886-2.128-12.959-0.511c-5.023,1.601-9.066,4.452-10.664,5.885C383.572,214.242,381.783,214.874,380.001,214.874z"
		/>
</g>
<circle style="fill:#FFFFFF;" cx="278.51" cy="277.57" r="16.13"/>
<circle style="fill:#F8D662;" cx="341.66" cy="277.57" r="16.13"/>
<path style="fill:#FFFFFF;" d="M104.904,285.065H69.045c-4.142,0-7.5-3.357-7.5-7.5s3.358-7.5,7.5-7.5h35.859
	c4.142,0,7.5,3.357,7.5,7.5S109.046,285.065,104.904,285.065z"/>
<g>
	<path style="fill:#5D6671;" d="M108.937,466.653H80.334c-4.473,0-8.099-3.626-8.099-8.099v-16.975h44.801v16.975
		C117.036,463.027,113.41,466.653,108.937,466.653z"/>
	<path style="fill:#5D6671;" d="M310.83,466.653h28.602c4.473,0,8.099-3.626,8.099-8.099v-16.975H302.73v16.975
		C302.73,463.027,306.356,466.653,310.83,466.653z"/>
</g>
<g style="opacity:0.1;">
	<path d="M259.752,370.203h-99.737c-4.142,0-7.5-3.357-7.5-7.5s3.358-7.5,7.5-7.5h99.737c4.142,0,7.5,3.357,7.5,7.5
		S263.894,370.203,259.752,370.203z"/>
	<path d="M259.752,399.132h-99.737c-4.142,0-7.5-3.357-7.5-7.5s3.358-7.5,7.5-7.5h99.737c4.142,0,7.5,3.357,7.5,7.5
		C267.252,395.774,263.894,399.132,259.752,399.132z"/>
</g>
<path style="opacity:0.12;enable-background:new    ;" d="M27.945,252.867v154.701c0,18.783,15.227,34.01,34.01,34.01h85.999
	c-56.663-34.485-64.284-155.787-65.279-203.45H42.684C34.544,238.128,27.945,244.727,27.945,252.867z"/>
<path style="opacity:0.12;enable-background:new    ;" d="M134.43,107.671H72.409c-6.966,0-12.613,5.647-12.613,12.613v42.063
	c0,6.966,5.647,12.613,12.613,12.613h66.325C122.891,157.992,125.254,120.145,134.43,107.671z"/>
<path style="opacity:0.12;enable-background:new    ;" d="M359.97,141.315h40.689c-10.078-9.185-11.691-24.52-11.898-33.644H359.97
	V141.315z"/>
<g>
</g>
<g>
</g>
<g>
</g>
<g>
</g>
<g>
</g>
<g>
</g>
<g>
</g>
<g>
</g>
<g>
</g>
<g>
</g>
<g>
</g>
<g>
</g>
<g>
</g>
<g>
</g>
<g>
</g>
</svg>
