<?xml version="1.0" encoding="iso-8859-1"?>
<!-- Generator: Adobe Illustrator 19.0.0, SVG Export Plug-In . SVG Version: 6.00 Build 0)  -->
<svg version="1.1" id="Capa_1" xmlns="http://www.w3.org/2000/svg" xmlns:xlink="http://www.w3.org/1999/xlink" x="0px" y="0px"
	 viewBox="0 0 512 512" style="enable-background:new 0 0 512 512;" xml:space="preserve">
<path style="fill:#F0F1F1;" d="M431.66,253.246c96.592-96.592,91.964-199.156,59.107-232.013S355.345-16.253,258.753,80.339
	c-32.459,32.459-42.845,78.626-31.17,119.865c2.517,8.89-0.016,18.439-6.781,24.732L13.979,417.327
	c-18.18,16.912-18.698,45.534-1.14,63.091l18.742,18.742c17.558,17.558,46.179,17.04,63.091-1.14l192.392-206.823
	c6.293-6.765,15.842-9.298,24.732-6.781C353.034,296.091,399.201,285.705,431.66,253.246z"/>
<path style="fill:#8DB5EA;" d="M94.672,498.02l106.014-113.966c-15.681-6.914-30.428-16.73-43.219-29.521
	c-12.791-12.791-22.607-27.538-29.521-43.219L13.979,417.327c-18.18,16.912-18.698,45.534-1.14,63.091l18.742,18.742
	C49.138,516.718,77.76,516.201,94.672,498.02z"/>
<circle style="fill:#F0F1F1;" cx="64.904" cy="447.099" r="18.46"/>
<g>
	
		<ellipse transform="matrix(0.7071 -0.7071 0.7071 0.7071 23.2519 243.2286)" style="fill:#F18290;" cx="305.229" cy="93.547" rx="23.525" ry="29.542"/>
	
		<ellipse transform="matrix(-0.7071 0.7071 -0.7071 -0.7071 860.5707 57.0927)" style="fill:#F18290;" cx="418.461" cy="206.776" rx="23.525" ry="29.542"/>
</g>
<g>
	<path style="fill:#5D6671;" d="M333.998,96.624c-1.919,0-3.838-0.732-5.303-2.196c-2.929-2.929-2.929-7.678-0.001-10.606
		l7.377-7.377c2.93-2.93,7.677-2.929,10.607-0.001c2.929,2.929,2.929,7.678,0,10.606l-7.376,7.377
		C337.836,95.892,335.917,96.624,333.998,96.624z"/>
	<path style="fill:#5D6671;" d="M422.875,185.501c-1.919,0-3.839-0.732-5.304-2.197c-2.929-2.929-2.928-7.678,0.001-10.607
		l7.376-7.376c2.929-2.929,7.677-2.928,10.607,0.001c2.929,2.929,2.928,7.678-0.001,10.607l-7.376,7.376
		C426.714,184.769,424.794,185.501,422.875,185.501z"/>
	<path style="fill:#5D6671;" d="M388.312,153.157c-7.796,0-15.299-3.083-20.843-8.626c-6.023-6.023-9.143-14.359-8.558-22.871
		c0.284-4.132,3.859-7.25,7.996-6.969c4.132,0.284,7.252,3.863,6.969,7.996c-0.287,4.184,1.244,8.28,4.2,11.236
		c2.956,2.956,7.054,4.486,11.236,4.199c4.137-0.274,7.712,2.836,7.996,6.969s-2.836,7.713-6.969,7.996
		C389.662,153.135,388.985,153.157,388.312,153.157z"/>
</g>
<path style="opacity:0.12;enable-background:new    ;" d="M94.672,498.02l68.744-73.901c-27.421,9.177-57.178-27.294-22.716-61.952
	c103.295-103.884,135.818-120.296,118.633-170.742C242.498,142.006,302.828,33.703,416.589,0.266
	c-45.055,2.57-102.425,24.662-157.836,80.073c-32.459,32.459-42.845,78.626-31.17,119.865c2.517,8.89-0.016,18.439-6.781,24.732
	L13.979,417.327c-18.18,16.912-18.698,45.534-1.14,63.091l18.742,18.741c12.619,12.62,30.955,15.902,46.55,9.999
	c1.356-0.513,2.691-1.096,4-1.748c2.618-1.304,5.131-2.886,7.495-4.744c0.591-0.465,1.172-0.946,1.744-1.445
	c0.571-0.499,1.133-1.015,1.684-1.549C93.603,499.139,94.143,498.588,94.672,498.02z"/>
<g>
</g>
<g>
</g>
<g>
</g>
<g>
</g>
<g>
</g>
<g>
</g>
<g>
</g>
<g>
</g>
<g>
</g>
<g>
</g>
<g>
</g>
<g>
</g>
<g>
</g>
<g>
</g>
<g>
</g>
</svg>
