<?xml version="1.0" encoding="iso-8859-1"?>
<!-- Generator: Adobe Illustrator 19.0.0, SVG Export Plug-In . SVG Version: 6.00 Build 0)  -->
<svg version="1.1" id="Capa_1" xmlns="http://www.w3.org/2000/svg" xmlns:xlink="http://www.w3.org/1999/xlink" x="0px" y="0px"
	 viewBox="0 0 512 512" style="enable-background:new 0 0 512 512;" xml:space="preserve">
<g>
	<path style="fill:#F0F1F1;" d="M373.125,66.962H138.882l-36.152,76.169c-2.266,4.773-3.441,9.991-3.441,15.274v324.342
		c0,16.156,13.097,29.253,29.253,29.253h254.923c16.156,0,29.253-13.097,29.253-29.253V158.405c0-5.283-1.175-10.501-3.441-15.274
		L373.125,66.962z"/>
	<path style="fill:#F0F1F1;" d="M353.414,0H158.59c-10.886,0-19.71,8.825-19.71,19.71v47.251h234.243V19.71
		C373.125,8.825,364.299,0,353.414,0z"/>
</g>
<path style="fill:#8DB5EA;" d="M409.276,143.131l-36.152-76.169H138.88l-36.152,76.169c-1.104,2.325-1.944,4.757-2.52,7.249h311.587
	C411.219,147.887,410.38,145.456,409.276,143.131z"/>
<g style="opacity:0.1;">
	<rect x="248.502" width="15" height="66.962"/>
	<rect x="189.622" width="15" height="66.962"/>
	<rect x="307.383" width="15" height="66.962"/>
</g>
<rect x="99.282" y="294.31" style="fill:#8DB5EA;" width="313.43" height="150.48"/>
<g>
	<path style="fill:#5D6671;" d="M412.717,444.795V341.584c-43.318-12.642-72.603,11.11-68.274,40.796
		c3.685,25.269-9.828,46.818-18.363,62.415H412.717z"/>
	<path style="fill:#5D6671;" d="M260.644,389.598c22.765-9.027,42.489,2.2,45.307-21.492c2.578-21.671-11.649-29.059-32.699-33.006
		c-21.05-3.947-35.754,2.704-46.485,26.312C213.611,390.356,231.509,401.151,260.644,389.598z"/>
	<path style="fill:#5D6671;" d="M99.287,294.315v97.57c14.526,6.386,32.35,7.815,43.008-3.091
		c23.802-24.356,4.982-39.301,40.408-49.801c18.34-5.435,32.811-26.875,32.779-44.678H99.287z"/>
	<path style="fill:#5D6671;" d="M125.145,444.795h96.74c-14.909-16.013-19.501-38.51-54.263-38.507
		C147.831,406.29,133.088,427.867,125.145,444.795z"/>
</g>
<path style="opacity:0.15;enable-background:new    ;" d="M150.863,151.03c0-22.496,10.325-51.227,19.491-84.068
	c-19.079,0-31.474,0-31.474,0l-36.152,76.169c-2.266,4.773-3.441,9.99-3.441,15.274v324.342c0,16.156,13.097,29.253,29.253,29.253
	h121.91C136.806,441.022,150.863,185.24,150.863,151.03z"/>
<g>
	<ellipse style="fill:#F18290;" cx="166.232" cy="240.77" rx="33.12" ry="26.378"/>
	<ellipse style="fill:#F18290;" cx="345.772" cy="240.77" rx="33.12" ry="26.378"/>
</g>
<g>
	<path style="fill:#5D6671;" d="M185.535,221.958c-4.143,0-7.5-3.357-7.5-7.5v-11.697c0-4.143,3.357-7.5,7.5-7.5s7.5,3.357,7.5,7.5
		v11.697C193.035,218.601,189.678,221.958,185.535,221.958z"/>
	<path style="fill:#5D6671;" d="M326.469,221.958c-4.143,0-7.5-3.357-7.5-7.5v-11.697c0-4.143,3.357-7.5,7.5-7.5s7.5,3.357,7.5,7.5
		v11.697C333.969,218.601,330.612,221.958,326.469,221.958z"/>
	<path style="fill:#5D6671;" d="M256.003,230.939c-9.287,0-18.119-4.022-24.231-11.035c-2.722-3.122-2.398-7.859,0.725-10.581
		c3.122-2.723,7.86-2.397,10.581,0.726c3.264,3.743,7.975,5.891,12.925,5.891s9.661-2.147,12.925-5.891
		c2.721-3.123,7.46-3.448,10.581-0.726c3.123,2.722,3.447,7.459,0.726,10.581C274.121,226.917,265.289,230.939,256.003,230.939z"/>
</g>
<path style="opacity:0.15;enable-background:new    ;" d="M170.354,0H158.59c-10.886,0-19.71,8.825-19.71,19.71v47.251h31.474
	L170.354,0L170.354,0z"/>
<g>
</g>
<g>
</g>
<g>
</g>
<g>
</g>
<g>
</g>
<g>
</g>
<g>
</g>
<g>
</g>
<g>
</g>
<g>
</g>
<g>
</g>
<g>
</g>
<g>
</g>
<g>
</g>
<g>
</g>
</svg>
