<?xml version="1.0" encoding="iso-8859-1"?>
<!-- Generator: Adobe Illustrator 19.0.0, SVG Export Plug-In . SVG Version: 6.00 Build 0)  -->
<svg version="1.1" id="Capa_1" xmlns="http://www.w3.org/2000/svg" xmlns:xlink="http://www.w3.org/1999/xlink" x="0px" y="0px"
	 viewBox="0 0 512.001 512.001" style="enable-background:new 0 0 512.001 512.001;" xml:space="preserve">
<path style="fill:#F8D9B9;" d="M436.135,176.044L176.044,436.135c-5.661,5.661-14.84,5.661-20.502,0l-79.723-79.723
	c-5.661-5.661-5.661-14.84,0-20.502L335.91,75.819c5.661-5.661,14.84-5.661,20.502,0l79.723,79.723
	C441.796,161.204,441.796,170.383,436.135,176.044z"/>
<path style="opacity:0.1;enable-background:new    ;" d="M138.295,273.434L75.819,335.91c-5.661,5.661-5.661,14.84,0,20.502
	l79.723,79.723c5.661,5.661,14.84,5.661,20.502,0l119.592-119.592C157.806,383.971,126.112,330.616,138.295,273.434z"/>
<path style="fill:#F8D9B9;" d="M74.493,399.423l-12.822,12.822c-5.557,5.557-12.884,8.994-20.711,9.706
	c-11.099,1.009-21.896,6.115-29.934,15.321c-14.685,16.816-14.703,42.339-0.04,59.174c17.358,19.929,47.624,20.709,65.993,2.34
	c7.869-7.869,12.223-17.922,13.062-28.209c0.628-7.692,4.219-14.842,9.676-20.299l12.816-12.816L74.493,399.423z"/>
<path style="opacity:0.1;enable-background:new    ;" d="M74.493,399.423l-12.004,12.004l25.078,25.078
	c1.385,1.385,1.531,3.567,0.366,5.142c-2.953,3.991-4.847,8.699-5.254,13.68c-0.702,8.604-4.343,17.013-10.926,23.595
	c-15.364,15.365-40.68,14.712-55.199-1.958c-9.321-10.702-11.542-25.598-6.683-38.307c-13.516,16.807-13.152,41.408,1.114,57.787
	c17.358,19.929,47.624,20.709,65.993,2.34c7.837-7.837,12.187-17.84,13.052-28.082c0.653-7.734,4.198-14.938,9.686-20.426
	l8.174-8.174l4.641-4.641L74.493,399.423z"/>
<path style="fill:#BA8E79;" d="M138.37,448.473l14.755-14.755l-74.888-74.888l-14.755,14.755c-4.094,4.094-4.094,10.732,0,14.827
	l60.061,60.061C127.637,452.566,134.275,452.566,138.37,448.473z"/>
<rect x="103.763" y="348.252" transform="matrix(0.7071 -0.7071 0.7071 0.7071 -251.2591 195.8189)" style="opacity:0.1;enable-background:new    ;" width="13.964" height="105.909"/>
<path style="fill:#F8D9B9;" d="M399.423,74.493l12.822-12.822c5.557-5.557,8.994-12.884,9.706-20.711
	c1.009-11.099,6.115-21.896,15.321-29.934c16.816-14.685,42.339-14.703,59.174-0.04c19.929,17.358,20.709,47.624,2.34,65.993
	c-7.869,7.869-17.922,12.223-28.209,13.062c-7.692,0.628-14.842,4.219-20.299,9.676l-12.816,12.816L399.423,74.493z"/>
<path style="opacity:0.1;enable-background:new    ;" d="M500.432,75.242c-55.645,20.116-76.945-19.469-75.831-45.921
	c-1.401,3.768-2.291,7.683-2.651,11.639c-0.712,7.827-4.148,15.154-9.706,20.711l-12.822,12.822l38.039,38.038l12.815-12.815
	c5.457-5.457,12.607-9.048,20.299-9.676c10.286-0.839,20.339-5.193,28.209-13.062C499.352,76.41,499.901,75.831,500.432,75.242z"/>
<path style="fill:#BA8E79;" d="M448.473,138.37l-14.755,14.755l-74.888-74.888l14.755-14.755c4.094-4.094,10.732-4.094,14.827,0
	l60.061,60.061C452.566,127.637,452.566,134.275,448.473,138.37z"/>
<rect x="394.222" y="57.796" transform="matrix(-0.7071 0.7071 -0.7071 -0.7071 763.2109 -94.6317)" style="opacity:0.1;enable-background:new    ;" width="13.964" height="105.909"/>
<path style="opacity:0.1;enable-background:new    ;" d="M383.734,103.143l-10.707-10.708c-14.573,19.578-39.002,35.273-72.92,46.8
	c-13.084,4.446-26.021,7.712-37.726,10.113l-18.447,18.447c16.583-2.425,38.591-6.742,60.999-14.358
	C340.832,141.238,367.219,124.375,383.734,103.143z M198.927,335.609c-32.591,32.159-23.581,68.185-18.198,89.71
	c0.412,1.648,0.827,3.31,1.21,4.921l12.391-12.392c-4.981-20.367-9.771-46.987,15.132-71.561
	c21.003-20.725,48.389-19.8,75.004-18.576l14.439-14.439c-4.068-0.102-8.228-0.29-12.445-0.486
	C257.622,311.454,224.943,309.939,198.927,335.609z M222.506,280.098c-45.922,13.896-72.398,47.825-86.521,73.841
	c-8.892,16.38-14.469,32.391-17.443,45.196l12.8,12.8c3.763-26.295,27.956-97.039,95.508-117.479
	c22.209-6.721,45.417-7.833,67.862-8.909c11.376-0.546,22.872-1.098,34.31-2.389l18.094-18.093
	c-16.965,3.757-34.782,4.62-53.122,5.499C270.639,271.683,246.488,272.841,222.506,280.098z M417.233,136.641
	c-15.559,19.631-37.213,35.177-64.792,46.457c-49.051,20.062-104.309,21.704-141.086,17.277l-13.258,13.258
	c13.558,2.306,29.871,3.711,47.642,3.711c35.178,0,76.037-5.497,112.381-20.361c23.474-9.602,43.37-22.387,59.136-38.003
	c3.773-3.737,7.298-7.65,10.602-11.714L417.233,136.641z"/>
<g>
</g>
<g>
</g>
<g>
</g>
<g>
</g>
<g>
</g>
<g>
</g>
<g>
</g>
<g>
</g>
<g>
</g>
<g>
</g>
<g>
</g>
<g>
</g>
<g>
</g>
<g>
</g>
<g>
</g>
</svg>
