<?xml version="1.0" encoding="iso-8859-1"?>
<!-- Generator: Adobe Illustrator 19.0.0, SVG Export Plug-In . SVG Version: 6.00 Build 0)  -->
<svg version="1.1" id="Capa_1" xmlns="http://www.w3.org/2000/svg" xmlns:xlink="http://www.w3.org/1999/xlink" x="0px" y="0px"
	 viewBox="0 0 512 512" style="enable-background:new 0 0 512 512;" xml:space="preserve">
<path style="fill:#F0F1F1;" d="M396.182,116.047C379.048,47.817,304.671,0,259.926,0S140.803,47.817,123.669,116.047H396.182z"/>
<path style="opacity:0.1;enable-background:new    ;" d="M247.37,1.118c-44.944,7.538-108.086,52.755-123.7,114.929h104.204
	C190.506,68.902,220.398,23.231,247.37,1.118z"/>
<path style="fill:#BA8E79;" d="M412.047,131.481H99.954l-17.362,69.827C59.382,294.659,65.442,392.89,99.954,482.68l0,0h312.093l0,0
	c34.511-89.789,40.572-188.02,17.362-281.371L412.047,131.481z"/>
<g>
	<ellipse style="fill:#F18290;" cx="191.491" cy="387.47" rx="23.804" ry="18.956"/>
	<ellipse style="fill:#F18290;" cx="320.51" cy="387.47" rx="23.804" ry="18.956"/>
</g>
<g>
	<path style="fill:#5D6671;" d="M205.361,376.06c-4.142,0-7.5-3.358-7.5-7.5v-8.405c0-4.143,3.358-7.5,7.5-7.5s7.5,3.357,7.5,7.5
		v8.405C212.861,372.702,209.503,376.06,205.361,376.06z"/>
	<path style="fill:#5D6671;" d="M306.641,376.06c-4.143,0-7.5-3.358-7.5-7.5v-8.405c0-4.143,3.357-7.5,7.5-7.5s7.5,3.357,7.5,7.5
		v8.405C314.141,372.702,310.783,376.06,306.641,376.06z"/>
	<path style="fill:#5D6671;" d="M256,382.515c-7.284,0-14.211-3.154-19.005-8.654c-2.722-3.122-2.396-7.859,0.726-10.581
		c3.123-2.723,7.86-2.396,10.582,0.726c1.944,2.23,4.75,3.51,7.697,3.51s5.753-1.279,7.696-3.51
		c2.722-3.122,7.46-3.447,10.582-0.727c3.123,2.722,3.448,7.459,0.727,10.582C270.211,379.36,263.284,382.515,256,382.515z"/>
</g>
<path style="opacity:0.1;enable-background:new    ;" d="M256,174.236c36.778,0,109.231-2.877,163.502-12.772l-7.455-29.983H99.954
	l-17.362,69.827c-23.211,93.351-17.15,191.582,17.362,281.371l0,0h97.061c-1.741-1.536-3.595-3.122-5.599-4.774
	c-84.839-69.917-66.535-230.895-44.805-291.989c3.455-9.714,12.96-15.913,23.241-15.135C203.46,173.328,235.355,174.236,256,174.236
	z"/>
<g style="opacity:0.1;">
	<path d="M153.786,479.952c-3.053,0-5.921-1.877-7.038-4.909c-4.961-13.466-10.482-41.723-12.752-60.181
		c-0.506-4.11,2.417-7.854,6.528-8.359c4.113-0.508,7.854,2.418,8.359,6.529c2.177,17.701,7.494,44.76,11.939,56.825
		c1.432,3.887-0.558,8.198-4.445,9.63C155.523,479.803,154.648,479.952,153.786,479.952z"/>
	<path d="M357.315,479.952c-0.861,0-1.736-0.149-2.592-0.464c-3.887-1.433-5.877-5.744-4.445-9.631
		c5.552-15.069,12.031-51.978,12.794-65.699c0.23-4.136,3.788-7.296,7.904-7.072c4.136,0.229,7.303,3.769,7.072,7.904
		c-0.83,14.937-7.434,53.06-13.694,70.053C363.237,478.074,360.368,479.952,357.315,479.952z"/>
</g>
<g style="opacity:0.1;">
	<path d="M175.618,195.243c-0.141,0-0.281-0.004-0.423-0.012c-4.136-0.229-7.302-3.768-7.072-7.904
		c0.738-13.288,5.735-31.902,10.359-44.456c1.431-3.886,5.741-5.877,9.63-4.445c3.887,1.433,5.877,5.744,4.445,9.631
		c-4.101,11.131-8.809,28.428-9.458,40.103C182.877,192.153,179.568,195.243,175.618,195.243z"/>
	<path d="M331.951,179.036c-3.978,0-7.294-3.127-7.485-7.144c-0.334-7.002-5.789-26.103-7.811-29.569
		c-2.087-3.578-0.878-8.171,2.7-10.257c3.578-2.087,8.17-0.878,10.257,2.7c3.273,5.612,9.398,27.226,9.836,36.413
		c0.197,4.137-2.997,7.65-7.135,7.848C332.191,179.033,332.07,179.036,331.951,179.036z"/>
</g>
<path style="fill:#BA8E79;" d="M256,153.559c-37.374,0-111.605-2.966-166.141-13.254c-17.246-3.253-27.775-20.836-22.518-37.58l0,0
	c4.436-14.129,18.724-22.787,33.276-20.04C147.254,91.491,216.676,94.919,256,94.919c39.325,0,108.748-3.429,155.383-12.234
	c14.552-2.747,28.84,5.91,33.276,20.039l0,0c5.257,16.744-5.272,34.327-22.518,37.58C367.605,150.594,293.374,153.559,256,153.559z"
	/>
<path style="opacity:0.2;enable-background:new    ;" d="M256,153.559c-37.374,0-111.605-2.966-166.141-13.254
	c-17.246-3.253-27.775-20.836-22.518-37.58l0,0c4.436-14.129,18.724-22.787,33.276-20.04C147.254,91.491,216.676,94.919,256,94.919
	c39.325,0,108.748-3.429,155.383-12.234c14.552-2.747,28.84,5.91,33.276,20.039l0,0c5.257,16.744-5.272,34.327-22.518,37.58
	C367.605,150.594,293.374,153.559,256,153.559z"/>
<path style="fill:#BA8E79;" d="M419.707,512H92.293c-16.193,0-29.32-13.127-29.32-29.32l0,0c0-16.193,13.127-29.32,29.32-29.32
	h327.413c16.193,0,29.32,13.127,29.32,29.32l0,0C449.027,498.873,435.9,512,419.707,512z"/>
<path style="opacity:0.2;enable-background:new    ;" d="M419.707,512H92.293c-16.193,0-29.32-13.127-29.32-29.32l0,0
	c0-16.193,13.127-29.32,29.32-29.32h327.413c16.193,0,29.32,13.127,29.32,29.32l0,0C449.027,498.873,435.9,512,419.707,512z"/>
<g>
	<path style="fill:#F8D9B9;" d="M291.81,283.451c-7.887,7.887-19.336,10.327-26.713,11.054c-4.001,0.394-7.37-2.975-6.976-6.976
		c0.727-7.378,3.167-18.827,11.054-26.713c7.887-7.887,19.336-10.327,26.713-11.054c4.001-0.394,7.37,2.975,6.976,6.976
		C302.137,264.115,299.697,275.564,291.81,283.451z"/>
	<path style="fill:#F8D9B9;" d="M220.191,283.451c7.887,7.887,19.335,10.327,26.713,11.054c4.001,0.394,7.37-2.975,6.976-6.976
		c-0.727-7.378-3.167-18.827-11.054-26.713c-7.887-7.887-19.336-10.327-26.713-11.054c-4.001-0.394-7.37,2.975-6.976,6.976
		C209.864,264.115,212.305,275.564,220.191,283.451z"/>
	<path style="fill:#F8D9B9;" d="M291.81,227.646c-7.887,7.887-19.336,10.327-26.713,11.054c-4.001,0.394-7.37-2.975-6.976-6.976
		c0.727-7.378,3.167-18.827,11.054-26.713c7.887-7.887,19.336-10.327,26.713-11.054c4.001-0.394,7.37,2.975,6.976,6.976
		C302.137,208.311,299.697,219.76,291.81,227.646z"/>
	<path style="fill:#F8D9B9;" d="M220.191,227.646c7.887,7.887,19.335,10.327,26.713,11.054c4.001,0.394,7.37-2.975,6.976-6.976
		c-0.727-7.378-3.167-18.827-11.054-26.713c-7.887-7.887-19.336-10.327-26.713-11.054c-4.001-0.394-7.37,2.975-6.976,6.976
		C209.864,208.311,212.305,219.76,220.191,227.646z"/>
	<path style="fill:#F8D9B9;" d="M256,339.374c-4.142,0-7.5-3.357-7.5-7.5V188.909c0-4.143,3.358-7.5,7.5-7.5
		c4.143,0,7.5,3.357,7.5,7.5v142.965C263.5,336.017,260.143,339.374,256,339.374z"/>
</g>
<g style="opacity:0.1;">
	<circle cx="405.29" cy="274.04" r="7.648"/>
	<circle cx="116.02" cy="374.29" r="7.648"/>
	<circle cx="131.321" cy="322.2" r="7.648"/>
	<circle cx="405.29" cy="329.85" r="7.648"/>
</g>
<g style="opacity:0.1;">
	<circle cx="211.771" cy="50.37" r="7.648"/>
	<circle cx="267.57" cy="29.13" r="7.648"/>
	<circle cx="323.13" cy="66.23" r="7.648"/>
</g>
<g>
</g>
<g>
</g>
<g>
</g>
<g>
</g>
<g>
</g>
<g>
</g>
<g>
</g>
<g>
</g>
<g>
</g>
<g>
</g>
<g>
</g>
<g>
</g>
<g>
</g>
<g>
</g>
<g>
</g>
</svg>
