<?xml version="1.0" encoding="iso-8859-1"?>
<!-- Generator: Adobe Illustrator 19.0.0, SVG Export Plug-In . SVG Version: 6.00 Build 0)  -->
<svg version="1.1" id="Capa_1" xmlns="http://www.w3.org/2000/svg" xmlns:xlink="http://www.w3.org/1999/xlink" x="0px" y="0px"
	 viewBox="0 0 511.999 511.999" style="enable-background:new 0 0 511.999 511.999;" xml:space="preserve">
<circle style="fill:#F8D662;" cx="265.68" cy="292.12" r="67.31"/>
<path style="fill:#F8D9B9;" d="M303.938,355.56h-43.059c-8.203,0-14.852-6.65-14.852-14.852v-43.059
	c0-8.203-6.65-14.853-14.852-14.852h-43.059c-8.203,0-14.853-6.65-14.853-14.853v-43.059c0-8.203-6.65-14.852-14.852-14.852H136.42
	c-6.674,0-13.203,2.029-18.681,5.841c-10.322,7.182-19.46,14.662-26.969,22.172c-55.231,55.231-55.231,144.777,0,200.008
	s144.778,55.231,200.008,0c7.509-7.509,14.989-16.648,22.172-26.969c3.812-5.478,5.841-12.007,5.841-18.681v-21.991
	C318.79,362.209,312.141,355.56,303.938,355.56z"/>
<path style="opacity:0.1;enable-background:new    ;" d="M303.938,355.56h-43.059c-8.203,0-14.852-6.65-14.852-14.852v-43.059
	c0-8.203-6.65-14.853-14.852-14.853h-43.059c-8.203,0-14.853-6.65-14.852-14.853v-15.96c-12.906,7.569-21.577,21.578-21.577,37.62
	c0,19.329,13.446,36.054,32.323,40.207c16.191,0,29.662,12.448,30.937,28.589l0,0c2.563,32.441,29.636,57.46,62.179,57.46l0,0
	c9.638,0,17.685,6.77,19.674,15.811c5.473-6.114,10.892-13.029,16.151-20.587c3.812-5.478,5.841-12.007,5.841-18.681v-21.991
	C318.79,362.21,312.141,355.56,303.938,355.56z"/>
<path style="fill:#F8D9B9;" d="M330.534,0c-60.116,0-111.469,82.483-131.938,156.094c-1.264,4.544,4.359,7.796,7.694,4.461
	l10.838-10.838c5.8-5.8,15.204-5.8,21.005,0l30.447,30.447c5.8,5.8,15.204,5.8,21.005,0l30.447-30.447c5.8-5.8,15.204-5.8,21.005,0
	l30.447,30.447c5.8,5.8,15.204,5.8,21.004,0l30.447-30.447c5.8-5.8,15.204-5.8,21.005,0l10.838,10.838
	c3.335,3.335,8.958,0.083,7.694-4.461C442.003,82.483,390.65,0,330.534,0z"/>
<path style="opacity:0.1;enable-background:new    ;" d="M198.596,156.094c-1.264,4.544,4.359,7.797,7.694,4.461l10.838-10.838
	c5.8-5.8,15.204-5.8,21.005,0l30.447,30.447c2.069,2.07,4.6,3.387,7.26,3.979c-23.488-80.797,12.693-153.618,39.128-182.297
	C261.667,14.384,217.274,88.926,198.596,156.094z"/>
<path style="fill:#F0F1F1;" d="M316.201,289.22L316.201,289.22c-18.975,0-36.318-10.731-44.787-27.711l-5.643-11.315
	c-5.843-11.715-17.809-19.119-30.9-19.119h-26.553c-24.075,0-43.592,19.517-43.592,43.592c0,19.328,13.446,36.054,32.323,40.206l0,0
	c16.191,0,29.662,12.448,30.937,28.589l0,0c2.563,32.441,29.636,57.46,62.179,57.46l0,0c11.132,0,20.156,9.024,20.156,20.156v62.767
	c0,15.549,12.605,28.154,28.154,28.154l0,0c15.549,0,28.154-12.605,28.154-28.154V339.647
	C366.628,311.797,344.051,289.22,316.201,289.22z"/>
<path style="opacity:0.1;enable-background:new    ;" d="M144.238,210.032h-7.819c-6.674,0-13.203,2.029-18.681,5.841
	c-10.322,7.182-19.46,14.662-26.969,22.172c-55.231,55.231-55.231,144.778,0,200.008c39.439,39.438,96.372,50.707,145.817,33.822
	C68.863,433.733,112.46,277.739,144.238,210.032z"/>
<path style="opacity:0.05;enable-background:new    ;" d="M337.786,469.81c4.302-43.023-1.056-74.288-20.699-88.234
	c-29.796-21.154-51.41-22.145-61.086-53.633c-6.288-20.462-14.396-33.272-42.702-42.707c-22.978-7.659-18.068-37.909-7.76-54.064
	c-22.779,1.435-40.812,20.354-40.812,43.494c0,19.328,13.446,36.054,32.323,40.206l0,0c16.191,0,29.662,12.448,30.937,28.589l0,0
	c2.563,32.441,29.636,57.46,62.179,57.46l0,0c11.132,0,20.156,9.024,20.156,20.156v62.767c0,15.549,12.605,28.154,28.154,28.154l0,0
	c9.615,0,18.101-4.823,23.18-12.179C347.871,500.734,335.709,490.579,337.786,469.81z"/>
<g>
</g>
<g>
</g>
<g>
</g>
<g>
</g>
<g>
</g>
<g>
</g>
<g>
</g>
<g>
</g>
<g>
</g>
<g>
</g>
<g>
</g>
<g>
</g>
<g>
</g>
<g>
</g>
<g>
</g>
</svg>
