<?xml version="1.0" encoding="iso-8859-1"?>
<!-- Generator: Adobe Illustrator 19.0.0, SVG Export Plug-In . SVG Version: 6.00 Build 0)  -->
<svg version="1.1" id="Capa_1" xmlns="http://www.w3.org/2000/svg" xmlns:xlink="http://www.w3.org/1999/xlink" x="0px" y="0px"
	 viewBox="0 0 512 512" style="enable-background:new 0 0 512 512;" xml:space="preserve">
<path style="fill:#BA8E79;" d="M139.192,322.048l-23.101,40.012l247.702,143.01c6.005,3.467,13.684,1.41,17.151-4.595l10.546-18.266
	c3.467-6.005,1.41-13.684-4.595-17.151L139.192,322.048z"/>
<g style="opacity:0.1;">
	<path d="M204.873,374.268c-22.384-12.011-40.954-2.165-56.053,6.689l15.102,8.719c10.759-5.626,21.517-8.813,33.858-2.191
		c16.528,8.869,33.917,21.657,45.763,48.16l20.408,11.783C253.878,413.207,235.381,390.639,204.873,374.268z"/>
	<path d="M354.166,446.163c-11.719,1.713-25.393,0.869-40.211-6.219c-18.307-8.758-27.469-22.448-33.791-36.506l-20.887-12.059
		c0.202,0.543,0.404,1.088,0.609,1.64c7.169,19.335,16.987,45.814,47.597,60.457c13.029,6.232,25.323,8.476,36.426,8.476
		c11.016,0,20.848-2.213,29.07-4.927L354.166,446.163z"/>
</g>
<path style="fill:#C3E9F1;" d="M146.685,353.049c5.929-10.269,7.49-15.507,6.057-23.18c-4.09-21.902-27.64-46.103-43.945-55.517
	c-23.537-13.589-53.633-5.525-67.222,18.012s-5.525,53.633,18.012,67.222c16.305,9.414,49.039,17.708,70.052,10.299
	C137,367.289,140.756,363.318,146.685,353.049z"/>
<path style="opacity:0.1;enable-background:new    ;" d="M152.375,340.82c-26.478,25.21-96.704-4.351-116.995-30.158
	c-2.46,19.102,6.485,38.692,24.207,48.924c16.305,9.414,49.038,17.708,70.052,10.299c7.361-2.595,11.117-6.567,17.046-16.836
	C149.558,348.073,151.397,344.282,152.375,340.82z"/>
<path style="opacity:0.2;enable-background:new    ;" d="M386.893,465.059l-114.351-66.02l46.202,80.024l45.048,26.009
	c6.005,3.467,13.684,1.409,17.151-4.596l10.546-18.266C394.956,476.204,392.898,468.525,386.893,465.059z"/>
<path style="fill:#BA8E79;" d="M250.248,230.602l-40.012,23.101l143.011,247.702c3.467,6.005,11.146,8.063,17.151,4.595
	l18.266-10.546c6.005-3.467,8.063-11.146,4.595-17.151L250.248,230.602z"/>
<path style="opacity:0.2;enable-background:new    ;" d="M345.369,395.356v92.404l7.878,13.645
	c3.467,6.005,11.146,8.063,17.151,4.595l18.266-10.546c6.005-3.467,8.063-11.146,4.595-17.15L345.369,395.356z"/>
<g style="opacity:0.1;">
	<path d="M295.603,401.563c8.387-34.673,3.652-63.466-14.583-92.897c-13.381-21.595-34.38-22.356-51.888-22.234l8.719,15.103
		c12.13,0.508,23.041,3.126,30.417,15.031c9.879,15.944,18.544,35.713,15.551,64.589L295.603,401.563z"/>
	<path d="M374.363,445.576c-11.006-4.376-22.426-11.945-31.715-25.492c-11.476-16.738-12.565-33.174-11.011-48.51l-12.059-20.887
		c-0.097,0.571-0.194,1.145-0.293,1.724c-3.46,20.329-8.197,48.17,10.991,76.155c16.27,23.729,37.928,32.289,54.948,35.824
		L374.363,445.576z"/>
</g>
<path style="fill:#C3E9F1;" d="M241.236,261.196c10.269-5.929,14.24-9.685,16.836-17.046c7.409-21.013-0.885-53.747-10.299-70.052
	c-13.589-23.537-43.685-31.601-67.222-18.012s-31.601,43.685-18.012,67.222c9.414,16.305,33.615,39.855,55.517,43.945
	C225.729,268.686,230.967,267.125,241.236,261.196z"/>
<path style="opacity:0.1;enable-background:new    ;" d="M252.279,253.45c-35.536,8.594-81.572-52.12-86.242-84.615
	c-11.681,15.313-13.729,36.751-3.498,54.473c9.414,16.305,33.615,39.854,55.517,43.945c7.673,1.433,12.911-0.128,23.18-6.057
	C246.212,258.323,249.7,255.96,252.279,253.45z"/>
<path id="SVGCleanerId_0" style="fill:#BA8E79;" d="M404.938,213.424h-46.202v286.021c0,6.934,5.621,12.555,12.555,12.555h21.092
	c6.934,0,12.555-5.621,12.555-12.555V213.424z"/>
<g>
	<path id="SVGCleanerId_0_1_" style="fill:#BA8E79;" d="M404.938,213.424h-46.202v286.021c0,6.934,5.621,12.555,12.555,12.555
		h21.092c6.934,0,12.555-5.621,12.555-12.555V213.424z"/>
</g>
<path style="opacity:0.1;enable-background:new    ;" d="M404.938,352.085c-0.369,0.446-0.74,0.894-1.115,1.346
	c-13.16,15.876-31.184,37.619-28.56,71.449c2.226,28.686,16.702,46.927,29.675,58.498v-21.725
	c-7.343-9.293-13.449-21.557-14.72-37.934c-1.57-20.234,5.706-35.013,14.72-47.518V352.085z M392.556,296.415
	c-0.79-25.393-18.603-36.55-33.819-45.198v17.438c10.252,6.505,18.391,14.228,18.826,28.227c0.583,18.747-1.797,40.2-18.826,63.711
	v23.565C383.336,358.323,393.632,331.021,392.556,296.415z"/>
<path style="opacity:0.1;enable-background:new    ;" d="M371.292,512h21.092c3.226,0,6.159-1.227,8.382-3.227
	c-24.98-4.692-36.833-41.906-42.029-74.145v64.816C358.737,506.379,364.358,512,371.292,512z"/>
<path style="fill:#F8D662;" d="M365.808,6.286c9.054-8.381,23.005-8.381,32.06,0c27.125,25.108,79.157,81.08,79.157,140.988
	c0,52.57-42.616,95.186-95.186,95.186s-95.186-42.616-95.186-95.186C286.651,87.365,338.683,31.394,365.808,6.286z"/>
<path style="fill:#F18290;" d="M373.593,113.443c4.673-4.296,11.816-4.296,16.489,0c14.622,13.444,43.575,44.226,43.575,77.198
	c0,28.619-23.2,51.819-51.819,51.819s-51.819-23.2-51.819-51.819C330.018,157.669,358.97,126.887,373.593,113.443z"/>
<g>
</g>
<g>
</g>
<g>
</g>
<g>
</g>
<g>
</g>
<g>
</g>
<g>
</g>
<g>
</g>
<g>
</g>
<g>
</g>
<g>
</g>
<g>
</g>
<g>
</g>
<g>
</g>
<g>
</g>
</svg>
