<?xml version="1.0" encoding="iso-8859-1"?>
<!-- Generator: Adobe Illustrator 19.0.0, SVG Export Plug-In . SVG Version: 6.00 Build 0)  -->
<svg version="1.1" id="Capa_1" xmlns="http://www.w3.org/2000/svg" xmlns:xlink="http://www.w3.org/1999/xlink" x="0px" y="0px"
	 viewBox="0 0 512 512" style="enable-background:new 0 0 512 512;" xml:space="preserve">
<path style="fill:#C1C6CA;" d="M369.51,394.4c-3.113-3.113-5.248-7.248-5.828-11.957
	c-13.426-109.056-80.301-134.009-134.035-135.735c-11.294-0.362-20.156-9.813-19.791-21.104
	c0.363-11.293,9.812-20.155,21.104-19.791c97.115,3.121,160.291,65.681,173.333,171.632c1.38,11.214-6.592,21.424-17.806,22.805
	C379.981,401.05,373.813,398.702,369.51,394.4z"/>
<path style="opacity:0.1;enable-background:new    ;" d="M404.293,377.444c-6.587-53.51-25.968-95.944-56.043-125.251
	c-1.489-0.046-2.985-0.443-4.355-1.238l0,0c-4.765-2.765-10.876-0.779-13.106,4.258l0,0c-1.923,4.345-6.825,6.527-11.341,5.049
	c-5.236-1.714-10.801,1.499-11.934,6.89c-0.234,1.112-0.664,2.134-1.242,3.045c27.656,19.503,50.213,53.787,57.409,112.245
	c0.58,4.709,2.715,8.845,5.828,11.957c4.303,4.301,10.471,6.649,16.977,5.849C397.701,398.868,405.673,388.658,404.293,377.444z"/>
<path style="opacity:0.1;enable-background:new    ;" d="M286.641,259.03c12.171-10.006,25.59-18.233,39.851-24.502
	c-26.291-17.647-58.431-27.524-95.532-28.717c-11.293-0.363-20.742,8.498-21.105,19.792c-0.365,11.291,8.497,20.743,19.792,21.104
	C247.997,247.297,267.878,250.599,286.641,259.03z"/>
<path style="fill:#D6D8DB;" d="M390.194,254.971L390.194,254.971c4.086-3.695,10.476-3.024,13.705,1.441l0,0
	c2.785,3.85,8.033,4.965,12.143,2.581l0,0c4.765-2.765,10.876-0.779,13.106,4.258l0,0c1.923,4.345,6.825,6.527,11.341,5.049l0,0
	c5.236-1.714,10.8,1.499,11.934,6.89l0,0c0.978,4.65,5.318,7.803,10.043,7.297l0,0c5.478-0.588,10.253,3.712,10.241,9.221l0,0
	c-0.01,4.751,3.58,8.738,8.306,9.225l0,0c5.48,0.564,9.257,5.762,8.1,11.149l0,0c-0.998,4.646,1.685,9.292,6.207,10.751l0,0
	c5.243,1.691,7.857,7.561,5.605,12.589l0,0c-1.942,4.337-0.284,9.439,3.836,11.806l0,0c4.777,2.745,6.113,9.029,2.865,13.48l0,0
	c-2.801,3.838-2.24,9.174,1.298,12.346l0,0c4.102,3.678,4.102,10.103,0,13.781l0,0c-3.538,3.172-4.099,8.508-1.298,12.346l0,0
	c3.248,4.45,1.912,10.735-2.865,13.479l0,0c-4.12,2.367-5.778,7.47-3.836,11.806l0,0c2.251,5.028-0.362,10.898-5.605,12.589l0,0
	c-4.522,1.459-7.205,6.105-6.207,10.751l0,0c1.157,5.387-2.62,10.585-8.1,11.149l0,0c-4.727,0.487-8.316,4.474-8.306,9.225l0,0
	c0.012,5.509-4.763,9.809-10.241,9.221l0,0c-4.724-0.507-9.065,2.647-10.043,7.297l0,0c-1.134,5.391-6.698,8.604-11.934,6.89l0,0
	c-4.516-1.478-9.417,0.704-11.341,5.049l0,0c-2.23,5.038-8.341,7.023-13.106,4.258l0,0c-4.11-2.384-9.358-1.269-12.143,2.581l0,0
	c-3.229,4.464-9.619,5.136-13.705,1.44l0,0c-3.524-3.187-8.889-3.187-12.414,0l0,0c-4.086,3.695-10.476,3.024-13.705-1.44l0,0
	c-2.785-3.85-8.033-4.965-12.142-2.581l0,0c-4.765,2.765-10.876,0.779-13.106-4.258l0,0c-1.923-4.345-6.825-6.527-11.341-5.049l0,0
	c-5.236,1.714-10.8-1.499-11.934-6.89l0,0c-0.978-4.65-5.319-7.803-10.043-7.297l0,0c-5.478,0.588-10.253-3.712-10.241-9.221l0,0
	c0.01-4.751-3.58-8.739-8.306-9.225l0,0c-5.48-0.564-9.257-5.762-8.1-11.149l0,0c0.998-4.646-1.685-9.292-6.207-10.751l0,0
	c-5.243-1.691-7.857-7.561-5.605-12.589l0,0c1.942-4.337,0.284-9.439-3.836-11.806l0,0c-4.777-2.744-6.113-9.029-2.865-13.479l0,0
	c2.801-3.838,2.24-9.174-1.297-12.346l0,0c-4.102-3.678-4.102-10.103,0-13.781l0,0c3.538-3.172,4.099-8.508,1.297-12.346l0,0
	c-3.248-4.45-1.912-10.735,2.865-13.48l0,0c4.12-2.367,5.778-7.469,3.836-11.806l0,0c-2.251-5.028,0.362-10.898,5.605-12.589l0,0
	c4.522-1.459,7.205-6.105,6.207-10.751l0,0c-1.157-5.386,2.62-10.585,8.1-11.149l0,0c4.727-0.487,8.316-4.474,8.306-9.225l0,0
	c-0.012-5.509,4.763-9.809,10.241-9.221l0,0c4.724,0.507,9.065-2.647,10.043-7.297l0,0c1.134-5.391,6.698-8.604,11.934-6.89l0,0
	c4.516,1.478,9.417-0.704,11.341-5.049l0,0c2.23-5.038,8.341-7.023,13.106-4.258l0,0c4.11,2.384,9.358,1.269,12.142-2.581l0,0
	c3.229-4.464,9.619-5.136,13.705-1.441l0,0C381.304,258.158,386.669,258.158,390.194,254.971z"/>
<circle style="fill:#FFFFFF;" cx="383.99" cy="379.94" r="41.594"/>
<circle style="fill:#C1C6CA;" cx="383.99" cy="379.94" r="7.492"/>
<path style="fill:#F8D662;" d="M422.898,182.557c0.483-14.99-11.631-27.335-26.607-28.146c-33.932-1.839-67.469,4.034-98.251,16.703
	c-15.582,6.413-33.505,2.666-45.42-9.248L111.23,20.476c-21.042-21.042-55.159-21.042-76.201,0L16.985,38.52
	C-11.933,67.438-2.6,116.404,34.927,132.658l0,0c17.556,7.604,33.517,18.455,47.045,31.983l83.887,83.887
	c12.018,12.018,15.54,30.065,9.09,45.79c-5.104,12.444-9.105,25.377-11.92,38.68c-1.984,9.378,1.108,18.648,7.415,24.956
	c3.727,3.727,8.577,6.42,14.167,7.488c14.619,2.793,28.77-7.062,31.892-21.615c6.909-32.208,22.929-61.598,46.35-85.018
	c34.551-34.551,82.368-52.733,131.19-49.883C409.324,209.818,422.401,197.951,422.898,182.557z"/>
<path style="opacity:0.1;enable-background:new    ;" d="M161.958,71.202l-50.727-50.727c-21.042-21.042-55.159-21.042-76.201,0
	L16.985,38.52C-11.933,67.438-2.6,116.404,34.927,132.658l0,0c14.594,6.321,28.081,14.893,39.99,25.375
	c19.61-7.351,36.218-19.663,51.858-35.302C142.327,107.179,154.593,90.67,161.958,71.202z"/>
<path style="opacity:0.1;enable-background:new    ;" d="M203.104,285.976c31.801-51.653-87.694-154.029-144.588-183.824
	C26.61,85.443,18.535,59.185,21.098,34.407l-4.113,4.113C-11.933,67.438-2.6,116.404,34.927,132.658l0,0
	c17.556,7.604,33.517,18.455,47.045,31.983l83.887,83.887c12.018,12.018,15.54,30.065,9.09,45.79
	c-5.104,12.444-9.105,25.377-11.92,38.68c-1.984,9.378,1.108,18.648,7.415,24.956c3.727,3.727,8.577,6.42,14.167,7.488
	c7.239,1.383,14.358-0.342,20.085-4.196C175.013,361.627,186.173,313.476,203.104,285.976z"/>
<path style="opacity:0.1;enable-background:new    ;" d="M356.044,260.227c-1.409-0.08-2.817-0.482-4.112-1.234l0,0
	c-4.765-2.765-10.876-0.779-13.106,4.258l0,0c-1.923,4.345-6.825,6.527-11.341,5.049c-5.236-1.714-10.8,1.499-11.934,6.89
	c-0.978,4.65-5.319,7.803-10.043,7.296c-5.478-0.587-10.253,3.712-10.241,9.221c0.01,4.751-3.58,8.738-8.306,9.225
	c-5.48,0.564-9.257,5.762-8.1,11.149l0,0c0.998,4.646-1.685,9.292-6.207,10.751l0,0c-5.243,1.691-7.857,7.561-5.605,12.589
	c1.942,4.337,0.284,9.439-3.836,11.806l0,0c-4.777,2.745-6.113,9.029-2.865,13.48c2.801,3.838,2.24,9.174-1.297,12.346
	c-4.102,3.678-4.102,10.103,0,13.781c3.538,3.172,4.099,8.508,1.297,12.346c-3.248,4.45-1.912,10.735,2.865,13.479
	c4.12,2.367,5.778,7.47,3.836,11.806c-2.252,5.028,0.362,10.898,5.605,12.589l0,0c4.522,1.459,7.205,6.105,6.207,10.75l0,0
	c-1.157,5.387,2.62,10.585,8.1,11.149c4.727,0.487,8.317,4.474,8.306,9.225c-0.012,5.509,4.763,9.809,10.241,9.221
	c4.724-0.507,9.065,2.647,10.043,7.297c1.134,5.391,6.698,8.604,11.934,6.89c4.516-1.478,9.417,0.704,11.341,5.049
	c2.23,5.038,8.341,7.023,13.106,4.259l0,0c4.11-2.384,9.358-1.269,12.142,2.581c3.229,4.464,9.619,5.136,13.705,1.44l0,0
	c3.524-3.187,8.889-3.187,12.414,0l0,0c4.087,3.695,10.476,3.024,13.705-1.44c2.785-3.85,8.033-4.965,12.142-2.581l0,0
	c4.765,2.765,10.876,0.779,13.106-4.259c1.923-4.345,6.825-6.527,11.341-5.049c5.236,1.714,10.8-1.499,11.934-6.89
	c0.978-4.65,5.318-7.803,10.043-7.297c3.752,0.402,7.173-1.489,8.953-4.49C288.89,522.052,247.229,329.542,356.044,260.227z"/>
<path style="opacity:0.1;enable-background:new    ;" d="M368.872,252.989c-1.022,0.311-1.994,0.803-2.87,1.465
	C366.949,253.956,367.906,253.468,368.872,252.989z"/>
<g>
</g>
<g>
</g>
<g>
</g>
<g>
</g>
<g>
</g>
<g>
</g>
<g>
</g>
<g>
</g>
<g>
</g>
<g>
</g>
<g>
</g>
<g>
</g>
<g>
</g>
<g>
</g>
<g>
</g>
</svg>
