<?xml version="1.0" encoding="iso-8859-1"?>
<!-- Generator: Adobe Illustrator 19.0.0, SVG Export Plug-In . SVG Version: 6.00 Build 0)  -->
<svg version="1.1" id="Capa_1" xmlns="http://www.w3.org/2000/svg" xmlns:xlink="http://www.w3.org/1999/xlink" x="0px" y="0px"
	 viewBox="0 0 512.001 512.001" style="enable-background:new 0 0 512.001 512.001;" xml:space="preserve">
<path style="fill:#F0F1F1;" d="M194.554,111.229l-37.453-99.001c-5.491-14.515-25.159-16.61-33.584-3.578l-7.976,12.336
	c-6.284,9.72-16.02,16.695-27.244,19.52l-18.672,4.699C57.611,48.229,48.23,57.61,45.206,69.624l-4.699,18.672
	c-2.825,11.224-9.8,20.96-19.52,27.244l-12.336,7.976c-13.032,8.426-10.936,28.093,3.578,33.584l99.001,37.452L194.554,111.229z"/>
<path style="opacity:0.1;enable-background:new    ;" d="M175.563,61.029c-3.859,3.527-7.597,7.414-11.206,11.651
	c-3.309,3.885-7.925,6.375-12.969,7.156c-18.292,2.834-34.914,10.625-47.92,23.631c-11.783,11.783-19.281,26.536-22.694,42.809
	c-0.527,2.511-3.254,3.887-5.609,2.868c-23.814-10.308-36.929-31.386-41.547-45.791c-3.357,4.797-7.627,8.952-12.63,12.188
	l-12.337,7.975c-13.032,8.426-10.936,28.094,3.578,33.584l99.001,37.452l83.324-83.324L175.563,61.029z"/>
<g style="opacity:0.1;">
	<path d="M130.202,161.668c-1.137,0-2.289-0.26-3.373-0.807l-53.466-26.983c-3.698-1.866-5.183-6.377-3.316-10.074
		c1.866-3.698,6.377-5.182,10.074-3.316l53.466,26.983c3.698,1.866,5.183,6.377,3.316,10.074
		C135.584,160.159,132.943,161.668,130.202,161.668z"/>
	<path d="M154.173,137.709c-2.741,0-5.382-1.509-6.701-4.123L120.488,80.12c-1.866-3.697-0.382-8.208,3.316-10.074
		c3.694-1.865,8.208-0.382,10.074,3.316l26.983,53.466c1.866,3.697,0.382,8.208-3.316,10.074
		C156.463,137.449,155.31,137.709,154.173,137.709z"/>
</g>
<path style="fill:#F0F1F1;" d="M370.501,124.779c-75.887-88.216-146.362-88.981-193.098-27.775
	c-21.406,1.626-40.991,9.679-55.855,24.542c-14.864,14.864-22.916,34.45-24.543,55.855C35.8,224.138,36.565,294.613,124.78,370.5
	c79.444,68.341,173.577,100.483,262.265,92.01l75.466-75.466C470.984,298.357,438.842,204.223,370.501,124.779z"/>
<path style="fill:#C1C6CA;" d="M504.714,485.097l-19.615,19.615c-8.445,8.445-21.7,9.698-31.578,2.983l-66.476-45.186l75.466-75.466
	l45.186,66.475C514.411,463.397,513.159,476.652,504.714,485.097z"/>
<path style="fill:#F18290;" d="M338.537,92.422c-36.381,25.875-89.474,70.503-132.542,113.571s-87.696,96.161-113.571,132.542
	c9.076,10.511,19.823,21.182,32.357,31.964c79.444,68.341,173.577,100.483,262.265,92.01l75.466-75.466
	c8.473-88.687-23.669-182.821-92.01-262.265C359.719,112.245,349.048,101.499,338.537,92.422z"/>
<g style="opacity:0.1;">
	<path d="M200.887,315.064c-1.344,0-2.703-0.36-3.931-1.118c-24.501-15.114-45.85-33.531-58.571-50.529
		c-2.481-3.316-1.806-8.017,1.511-10.499c3.315-2.483,8.016-1.805,10.499,1.511c11.636,15.548,31.477,32.588,54.436,46.752
		c3.525,2.175,4.62,6.795,2.445,10.32C205.859,313.798,203.401,315.064,200.887,315.064z"/>
	<path d="M293.241,186.219c-2.524,0-4.989-1.275-6.403-3.585c-10.369-16.938-31.687-36.377-40.999-41.216
		c-3.676-1.91-5.107-6.438-3.197-10.113c1.91-3.677,6.439-5.106,10.113-3.197c12.405,6.446,35.584,28.248,46.876,46.694
		c2.163,3.533,1.052,8.15-2.48,10.313C295.929,185.862,294.576,186.219,293.241,186.219z"/>
</g>
<g>
	
		<ellipse transform="matrix(-0.7071 -0.7071 0.7071 -0.7071 180.7867 816.9092)" style="fill:#FFFFFF;" cx="259.581" cy="371.012" rx="23.15" ry="29.07"/>
	
		<ellipse transform="matrix(0.7071 0.7071 -0.7071 0.7071 292.219 -186.3141)" style="fill:#FFFFFF;" cx="371.01" cy="259.582" rx="23.15" ry="29.07"/>
</g>
<g>
	<path style="fill:#5D6671;" d="M243.691,355.741c-1.919,0-3.839-0.732-5.304-2.196l-8.823-8.823c-2.929-2.93-2.929-7.678,0-10.607
		c2.93-2.928,7.678-2.928,10.607,0l8.823,8.823c2.929,2.93,2.929,7.678,0,10.607C247.53,355.009,245.61,355.741,243.691,355.741z"/>
	<path style="fill:#5D6671;" d="M317.612,317.61L317.612,317.61c-8.225,8.225-21.561,8.225-29.787,0l-10.828-10.828
		c-2.245-2.245-2.245-5.886,0-8.131l21.655-21.656c2.245-2.245,5.886-2.245,8.131,0l10.828,10.828
		C325.837,296.049,325.837,309.385,317.612,317.61z"/>
	<path style="fill:#5D6671;" d="M348.242,251.19c-1.919,0-3.839-0.732-5.304-2.196l-8.823-8.823c-2.929-2.93-2.929-7.678,0-10.607
		c2.93-2.928,7.678-2.928,10.607,0l8.823,8.823c2.929,2.93,2.929,7.678,0,10.607C352.081,250.458,350.161,251.19,348.242,251.19z"/>
</g>
<path style="opacity:0.1;enable-background:new    ;" d="M387.045,462.51l28.838-28.838
	C162.155,391.32,96.111,261.803,82.524,190.081C36.606,236.399,44.209,301.189,124.78,370.5
	C204.225,438.841,298.358,470.983,387.045,462.51z"/>
<path style="opacity:0.1;enable-background:new    ;" d="M415.883,433.673l-28.838,28.838l66.475,45.186
	c9.878,6.714,23.133,5.462,31.578-2.984l6.993-6.992C474.082,488.453,436.632,456.295,415.883,433.673z"/>
<g>
</g>
<g>
</g>
<g>
</g>
<g>
</g>
<g>
</g>
<g>
</g>
<g>
</g>
<g>
</g>
<g>
</g>
<g>
</g>
<g>
</g>
<g>
</g>
<g>
</g>
<g>
</g>
<g>
</g>
</svg>
