<?xml version="1.0" encoding="iso-8859-1"?>
<!-- Generator: Adobe Illustrator 19.0.0, SVG Export Plug-In . SVG Version: 6.00 Build 0)  -->
<svg version="1.1" id="Capa_1" xmlns="http://www.w3.org/2000/svg" xmlns:xlink="http://www.w3.org/1999/xlink" x="0px" y="0px"
	 viewBox="0 0 511.999 511.999" style="enable-background:new 0 0 511.999 511.999;" xml:space="preserve">
<path style="fill:#C3E9F1;" d="M280.178,67.501H23.723c-20.505,0-31.316,24.293-17.589,39.526L114.3,227.067
	c4.262,4.73,6.621,10.872,6.621,17.239v153.927h62.06V244.306c0-6.367,2.359-12.509,6.621-17.239l108.166-120.04
	C311.493,91.794,300.683,67.501,280.178,67.501z"/>
<g>
	<path style="fill:#FFFFFF;" d="M117.257,147.725c-1.919,0-3.839-0.732-5.303-2.196c-2.929-2.93-2.929-7.678,0-10.607l20.829-20.829
		c2.929-2.928,7.678-2.928,10.606,0c2.929,2.93,2.929,7.678,0,10.607l-20.829,20.829
		C121.096,146.992,119.177,147.725,117.257,147.725z"/>
	<path style="fill:#FFFFFF;" d="M160.126,167.781c-1.92,0-3.839-0.732-5.303-2.196c-2.929-2.93-2.929-7.678,0-10.607l54.587-54.587
		c2.929-2.928,7.678-2.928,10.606,0c2.929,2.93,2.929,7.678,0,10.607l-54.587,54.587
		C163.965,167.049,162.045,167.781,160.126,167.781z"/>
</g>
<path style="fill:#8DB5EA;" d="M251.986,444.497H51.915c-12.776,0-23.132-10.357-23.132-23.133l0,0
	c0-12.776,10.357-23.132,23.132-23.132h200.07c12.776,0,23.132,10.357,23.132,23.132l0,0
	C275.118,434.14,264.761,444.497,251.986,444.497z"/>
<path style="opacity:0.05;enable-background:new    ;" d="M51.915,444.497h33.679c-10.076-10.894-7.674-38.511-1.017-46.265H51.915
	c-12.776,0-23.132,10.357-23.132,23.132l0,0C28.783,434.141,39.14,444.497,51.915,444.497z"/>
<path style="opacity:0.15;enable-background:new    ;" d="M275.118,421.365L275.118,421.365c0-12.776-10.357-23.132-23.132-23.132
	H212.77c-12.776,0-23.132,10.357-23.132,23.132l0,0c0,12.776,10.357,23.133,23.132,23.133h39.216
	C264.761,444.497,275.118,434.141,275.118,421.365z"/>
<path style="opacity:0.15;enable-background:new    ;" d="M152.063,86.242c5.244,45.467,29.337,85.19,64.263,111.167l81.441-90.382
	c13.726-15.233,2.916-39.526-17.589-39.526h-111.31C158.806,67.501,150.91,76.246,152.063,86.242z"/>
<path style="fill:#F8D662;" d="M451.181,444.497h-200.07c-12.776,0-23.133-10.357-23.133-23.133l0,0
	c0-12.776,10.357-23.132,23.133-23.132h200.07c12.776,0,23.133,10.357,23.133,23.132l0,0
	C474.313,434.14,463.957,444.497,451.181,444.497z"/>
<path style="fill:#C3E9F1;" d="M495.082,67.501H207.209c-10.062,0-17.959,8.745-16.806,18.741
	c7.621,66.075,55.048,120.024,117.686,137.271c7.103,1.956,12.026,8.408,12.026,15.774v158.945h62.059V239.287
	c0-7.367,4.924-13.819,12.026-15.774c62.638-17.247,110.065-71.196,117.686-137.271C513.041,76.246,505.144,67.501,495.082,67.501z"
	/>
<g>
	<path style="fill:#FFFFFF;" d="M389.514,187.997c-1.92,0-3.839-0.732-5.304-2.197c-2.929-2.929-2.929-7.677,0.001-10.607
		l32.905-32.904c2.928-2.929,7.677-2.928,10.607,0.001c2.929,2.929,2.929,7.677-0.001,10.607l-32.905,32.904
		C393.353,187.265,391.433,187.997,389.514,187.997z"/>
	<path style="fill:#FFFFFF;" d="M344.102,191.826c-1.919,0-3.839-0.732-5.304-2.196c-2.929-2.93-2.929-7.678,0-10.607l14.088-14.088
		c2.93-2.928,7.678-2.928,10.607,0c2.929,2.93,2.929,7.678,0,10.607l-14.088,14.088C347.94,191.094,346.021,191.826,344.102,191.826
		z"/>
</g>
<g>
	<ellipse style="fill:#F18290;" cx="279.18" cy="146.869" rx="26.554" ry="21.15"/>
	<ellipse style="fill:#F18290;" cx="423.11" cy="146.869" rx="26.554" ry="21.15"/>
</g>
<g>
	<path style="fill:#5D6671;" d="M294.655,133.276c-4.143,0-7.5-3.357-7.5-7.5v-9.377c0-4.143,3.357-7.5,7.5-7.5s7.5,3.357,7.5,7.5
		v9.377C302.155,129.919,298.798,133.276,294.655,133.276z"/>
	<path style="fill:#5D6671;" d="M407.637,133.276c-4.143,0-7.5-3.357-7.5-7.5v-9.377c0-4.143,3.357-7.5,7.5-7.5s7.5,3.357,7.5,7.5
		v9.377C415.137,129.919,411.779,133.276,407.637,133.276z"/>
	<path style="fill:#5D6671;" d="M351.146,140.478c-7.875,0-15.363-3.41-20.547-9.357c-2.722-3.122-2.397-7.859,0.726-10.581
		c3.122-2.723,7.86-2.398,10.581,0.726c2.334,2.677,5.702,4.213,9.24,4.213c3.539,0,6.906-1.535,9.239-4.213
		c2.723-3.123,7.458-3.448,10.582-0.726c3.122,2.722,3.448,7.459,0.727,10.582C366.511,137.066,359.022,140.478,351.146,140.478z"/>
</g>
<path style="opacity:0.05;enable-background:new    ;" d="M190.404,86.242c7.621,66.075,55.048,120.024,117.686,137.271
	c7.102,1.956,12.026,8.408,12.026,15.774v158.945h24.536V221.907c0-16.806-8.42-32.48-22.402-41.805
	c-44.399-29.611-69.987-73.603-73.706-112.601H207.21C197.147,67.501,189.251,76.246,190.404,86.242z"/>
<path style="opacity:0.05;enable-background:new    ;" d="M251.111,444.497h33.679c-10.076-10.894-7.674-38.511-1.017-46.265
	h-32.661c-12.776,0-23.132,10.357-23.132,23.132l0,0C227.978,434.141,238.335,444.497,251.111,444.497z"/>
<path style="opacity:0.05;enable-background:new    ;" d="M6.134,107.027L114.3,227.066c4.262,4.73,6.621,10.872,6.621,17.239
	v153.927h21.926V227.457c0-7.93-2.925-15.571-8.198-21.495c-30.541-34.316-73.727-92.087-87.8-138.462H23.723
	C3.218,67.501-7.593,91.794,6.134,107.027z"/>
<g>
</g>
<g>
</g>
<g>
</g>
<g>
</g>
<g>
</g>
<g>
</g>
<g>
</g>
<g>
</g>
<g>
</g>
<g>
</g>
<g>
</g>
<g>
</g>
<g>
</g>
<g>
</g>
<g>
</g>
</svg>
