<?xml version="1.0" encoding="iso-8859-1"?>
<!-- Generator: Adobe Illustrator 19.0.0, SVG Export Plug-In . SVG Version: 6.00 Build 0)  -->
<svg version="1.1" id="Capa_1" xmlns="http://www.w3.org/2000/svg" xmlns:xlink="http://www.w3.org/1999/xlink" x="0px" y="0px"
	 viewBox="0 0 512.001 512.001" style="enable-background:new 0 0 512.001 512.001;" xml:space="preserve">
<path style="fill:#BA8E79;" d="M242.733,96.562l-18.022,8.741c-9.277,4.499-20.387,2.628-27.678-4.663l-86.158-86.158
	c-19.308-19.308-50.613-19.308-69.921,0l0,0c-19.308,19.308-19.308,50.613,0,69.921l86.158,86.159
	c7.291,7.291,9.163,18.4,4.663,27.678l-8.741,18.022c-7.77,16.02-4.538,35.203,8.052,47.793l47.059,47.059l159.439-159.439
	l-47.059-47.059C277.936,92.024,258.753,88.792,242.733,96.562z M88.772,62.3c-7.101,7.101-18.615,7.101-25.716,0
	s-7.101-18.615,0-25.716s18.615-7.101,25.716,0S95.873,55.199,88.772,62.3z"/>
<path style="opacity:0.1;enable-background:new    ;" d="M223.757,155.108c2.402,0.175,4.715,0.26,6.949,0.26
	c33.405-0.001,48.538-18.906,60.848-34.287c2.402-3.002,4.691-5.854,6.991-8.447l-8.02-8.02c-0.87-0.87-1.775-1.692-2.706-2.472
	c-2.784,3.087-5.398,6.343-7.977,9.566c-12.622,15.771-24.542,30.677-54.991,28.439c-14.422-1.055-25.766-6.914-33.714-17.414
	c-8.459-11.173-12.355-26.273-13.414-41.403l-15.17-15.17c-0.293,7.264-0.087,14.489,0.669,21.354
	c1.985,18.014,7.353,32.91,15.955,44.273C189.845,145.878,204.844,153.724,223.757,155.108z M133.8,183.342
	c0.9,4.942,0.273,10.157-2.025,14.896l-0.694,1.432c15.381,11.582,23.141,26.527,23.105,44.629
	c-0.025,12.731-3.822,24.553-8.747,34.106l11.056,11.056c7.253-12.634,12.658-28.577,12.691-45.133
	C169.221,226.01,162.666,201.711,133.8,183.342z M235.591,174.956c-23.829,4.826-41.106,16.325-48.649,32.379
	c-5.546,11.804-6.24,23.544-2.062,34.895c5.342,14.514,17.722,25.558,29.058,33.088l10.863-10.864
	c-9.806-6.115-21.461-15.494-25.845-27.405c-2.779-7.552-2.269-15.185,1.562-23.336c3.171-6.748,12.331-18.848,38.051-24.056
	c19.788-4.01,41.671-1.94,56.377,4.653l11.162-11.162C288.262,173.196,261.11,169.79,235.591,174.956z"/>
<rect x="165.65" y="222.895" transform="matrix(-0.7071 0.7071 -0.7071 -0.7071 653.3741 233.2027)" style="fill:#F0F1F1;" width="225.478" height="58.049"/>
<g style="opacity:0.1;">
	<circle cx="326.981" cy="203.33" r="7.132"/>
	<circle cx="229.801" cy="300.5" r="7.132"/>
</g>
<rect x="223.72" y="256.892" transform="matrix(-0.7071 0.7071 -0.7071 -0.7071 793.5719 291.2849)" style="fill:#5D6671;" width="225.478" height="106.209"/>
<g style="opacity:0.1;">
	<path d="M328.439,373.491c-1.919,0-3.839-0.732-5.303-2.196l-30.422-30.422c-2.929-2.93-2.929-7.678,0-10.607
		c2.929-2.928,7.678-2.928,10.606,0l30.422,30.422c2.929,2.93,2.929,7.678,0,10.607
		C332.278,372.759,330.358,373.491,328.439,373.491z"/>
	<path d="M392.463,309.467c-1.919,0-3.839-0.732-5.303-2.196l-30.422-30.422c-2.929-2.93-2.929-7.678,0-10.607
		c2.929-2.928,7.678-2.928,10.607,0l30.422,30.422c2.929,2.93,2.929,7.678,0,10.607
		C396.302,308.734,394.383,309.467,392.463,309.467z"/>
</g>
<path style="opacity:0.1;enable-background:new    ;" d="M133.765,192.165c-0.391,2.07-1.04,4.114-1.991,6.074l-8.74,18.022
	c-7.77,16.02-4.538,35.203,8.052,47.793l47.059,47.059l0,0l116.15,116.15l33.863-33.863
	C236.108,323.721,152.239,223.151,133.765,192.165z"/>
<path style="fill:#F18290;" d="M475.512,255.867L475.512,255.867c-13.357-13.357-35.013-13.357-48.37,0L282.339,400.671
	c-9.646,9.646-12.32,23.618-8.031,35.668c2.879,8.089,4.082,16.679,4.082,25.265v18.926c0,17.381,14.09,31.471,31.471,31.471l0,0
	c17.381,0,31.471-14.09,31.471-31.471v-23.208c0-12.104,4.808-23.711,13.367-32.27l30.446-30.446c2.55-2.55,6.911-0.744,6.911,2.863
	v3.227c0,16.889,13.691,30.58,30.58,30.58l0,0c16.889,0,30.58-13.691,30.58-30.58V341.65c0-9.678,3.845-18.96,10.688-25.803
	l11.609-11.609C488.869,290.879,488.869,269.224,475.512,255.867z"/>
<path style="fill:#C3E9F1;" d="M40.953,14.481L40.953,14.481c-19.308,19.308-19.308,50.613,0,69.921l30.887,30.887
	c18.614-7.426,34.11-21.299,41.366-28.555c7.256-7.256,21.129-22.752,28.555-41.366l-30.887-30.887
	C91.566-4.827,60.261-4.827,40.953,14.481z M88.772,62.3c-7.101,7.101-18.615,7.101-25.716,0s-7.101-18.615,0-25.716
	s18.615-7.101,25.716,0S95.873,55.199,88.772,62.3z"/>
<path style="opacity:0.1;enable-background:new    ;" d="M274.308,436.338c2.879,8.089,4.082,16.679,4.082,25.265v18.926
	c0,17.381,14.09,31.471,31.471,31.471l0,0c4.206,0,8.215-0.831,11.883-2.328c-31.579-6.142-20.775-70.652-22.878-82.409
	c-2.234-12.492,1.117-39.447,7.73-50.848l0,0l-24.256,24.256C272.692,410.317,270.019,424.288,274.308,436.338z"/>
<path style="opacity:0.1;enable-background:new    ;" d="M56.562,3.945c-5.67,2.409-10.986,5.913-15.609,10.537l0,0
	c-19.308,19.308-19.308,50.613,0,69.921l63.466,63.466C33.384,64.946,41.912,24.205,56.562,3.945z"/>
<g>
</g>
<g>
</g>
<g>
</g>
<g>
</g>
<g>
</g>
<g>
</g>
<g>
</g>
<g>
</g>
<g>
</g>
<g>
</g>
<g>
</g>
<g>
</g>
<g>
</g>
<g>
</g>
<g>
</g>
</svg>
