<?xml version="1.0" encoding="iso-8859-1"?>
<!-- Generator: Adobe Illustrator 19.0.0, SVG Export Plug-In . SVG Version: 6.00 Build 0)  -->
<svg version="1.1" id="Capa_1" xmlns="http://www.w3.org/2000/svg" xmlns:xlink="http://www.w3.org/1999/xlink" x="0px" y="0px"
	 viewBox="0 0 512 512" style="enable-background:new 0 0 512 512;" xml:space="preserve">
<path style="fill:#F0F1F1;" d="M467.874,452.075H44.126C19.756,452.075,0,432.319,0,407.949V135.6h512v272.349
	C512,432.319,492.244,452.075,467.874,452.075z"/>
<path style="opacity:0.1;enable-background:new    ;" d="M0,362.594v45.355c0,24.37,19.756,44.126,44.126,44.126h423.748
	c24.37,0,44.126-19.756,44.126-44.126v-45.355H0z"/>
<path style="fill:#8DB5EA;" d="M467.874,19.502H44.126C19.756,19.502,0,39.258,0,63.628V135.6h512V63.628
	C512,39.258,492.244,19.502,467.874,19.502z"/>
<path style="fill:#C1C6CA;" d="M48.472,380.43V207.246c0-12.798,10.375-23.174,23.173-23.174h368.71
	c12.798,0,23.173,10.375,23.173,23.174V380.43c0,12.798-10.375,23.173-23.173,23.173H71.645
	C58.847,403.604,48.472,393.228,48.472,380.43z"/>
<g>
	<circle style="fill:#C3E9F1;" cx="148.3" cy="77.55" r="23.13"/>
	<circle style="fill:#C3E9F1;" cx="363.7" cy="77.55" r="23.13"/>
</g>
<path style="fill:#FFFFFF;" d="M306.595,54.419h-101.19c-6.553,0-11.866,5.313-11.866,11.866v22.532
	c0,6.553,5.313,11.866,11.866,11.866h101.19c6.553,0,11.866-5.313,11.866-11.866V66.285
	C318.461,59.732,313.148,54.419,306.595,54.419z"/>
<path style="fill:#F8D662;" d="M157.498,257.122c5.616-5.198,14.268-5.198,19.884,0c16.824,15.573,49.095,50.288,49.095,87.445
	c0,32.605-26.432,59.037-59.037,59.037s-59.037-26.432-59.037-59.037C108.403,307.409,140.675,272.694,157.498,257.122z"/>
<path style="fill:#F18290;" d="M162.327,323.583c2.898-2.664,7.329-2.664,10.227,0c9.069,8.338,27.026,27.43,27.026,47.88
	c0,17.75-14.389,32.14-32.14,32.14s-32.14-14.389-32.14-32.14C135.301,351.013,153.258,331.922,162.327,323.583z"/>
<path style="fill:#F8D662;" d="M334.617,257.122c5.616-5.198,14.268-5.198,19.884,0c16.824,15.573,49.095,50.288,49.095,87.445
	c0,32.605-26.432,59.037-59.037,59.037s-59.037-26.432-59.037-59.037C285.522,307.409,317.794,272.694,334.617,257.122z"/>
<path style="fill:#F18290;" d="M339.446,323.583c2.898-2.664,7.329-2.664,10.227,0c9.069,8.338,27.026,27.43,27.026,47.88
	c0,17.75-14.389,32.14-32.14,32.14c-17.75,0-32.14-14.389-32.14-32.14C312.42,351.013,330.377,331.922,339.446,323.583z"/>
<g>
	<path style="fill:#8DB5EA;" d="M123.66,492.498H73.288c-9.389,0-17-7.611-17-17v-23.422h84.373v23.422
		C140.661,484.886,133.049,492.498,123.66,492.498z"/>
	<path style="fill:#8DB5EA;" d="M388.34,492.498h50.372c9.389,0,17.001-7.611,17.001-17v-23.422H371.34v23.422
		C371.339,484.886,378.951,492.498,388.34,492.498z"/>
</g>
<g>
	<path style="fill:#FFFFFF;" d="M218.527,250.957c-1.919,0-3.839-0.732-5.303-2.196c-2.929-2.93-2.929-7.678,0-10.607l14.318-14.318
		c2.929-2.928,7.678-2.928,10.606,0c2.929,2.93,2.929,7.678,0,10.607l-14.318,14.318
		C222.366,250.225,220.447,250.957,218.527,250.957z"/>
	<path style="fill:#FFFFFF;" d="M258.405,293.089c-1.919,0-3.839-0.732-5.303-2.196c-2.929-2.93-2.929-7.678,0-10.607l72.064-72.064
		c2.929-2.928,7.678-2.928,10.606,0c2.929,2.93,2.929,7.678,0,10.607l-72.064,72.065
		C262.244,292.356,260.325,293.089,258.405,293.089z"/>
</g>
<path style="opacity:0.1;enable-background:new    ;" d="M118.357,19.502h-74.23C19.756,19.502,0,39.258,0,63.628v344.321
	c0,24.37,19.756,44.126,44.126,44.126h153.059C129.313,324.326,119.669,95.228,118.357,19.502z"/>
<rect x="56.29" y="452.07" style="opacity:0.1;enable-background:new    ;" width="84.37" height="17.219"/>
<rect x="371.34" y="452.07" style="opacity:0.1;enable-background:new    ;" width="84.37" height="17.219"/>
<g style="opacity:0.2;">
	<path d="M76.485,99.602c-4.142,0-7.5-3.357-7.5-7.5V63c0-4.143,3.358-7.5,7.5-7.5s7.5,3.357,7.5,7.5v29.102
		C83.985,96.244,80.627,99.602,76.485,99.602z"/>
	<path d="M51.092,99.602c-4.142,0-7.5-3.357-7.5-7.5V63c0-4.143,3.358-7.5,7.5-7.5s7.5,3.357,7.5,7.5v29.102
		C58.592,96.244,55.234,99.602,51.092,99.602z"/>
</g>
<g style="opacity:0.2;">
	<path d="M435.515,99.602c-4.142,0-7.5-3.357-7.5-7.5V63c0-4.143,3.358-7.5,7.5-7.5s7.5,3.357,7.5,7.5v29.102
		C443.015,96.244,439.657,99.602,435.515,99.602z"/>
	<path d="M460.908,99.602c-4.142,0-7.5-3.357-7.5-7.5V63c0-4.143,3.358-7.5,7.5-7.5s7.5,3.357,7.5,7.5v29.102
		C468.408,96.244,465.05,99.602,460.908,99.602z"/>
</g>
<g>
</g>
<g>
</g>
<g>
</g>
<g>
</g>
<g>
</g>
<g>
</g>
<g>
</g>
<g>
</g>
<g>
</g>
<g>
</g>
<g>
</g>
<g>
</g>
<g>
</g>
<g>
</g>
<g>
</g>
</svg>
