<?xml version="1.0" encoding="iso-8859-1"?>
<!-- Generator: Adobe Illustrator 19.0.0, SVG Export Plug-In . SVG Version: 6.00 Build 0)  -->
<svg version="1.1" id="Capa_1" xmlns="http://www.w3.org/2000/svg" xmlns:xlink="http://www.w3.org/1999/xlink" x="0px" y="0px"
	 viewBox="0 0 511.999 511.999" style="enable-background:new 0 0 511.999 511.999;" xml:space="preserve">
<path style="fill:#8DB5EA;" d="M13.792,21.398L13.792,21.398c-18.39,18.39-18.39,48.207,0,66.597l98.007,98.008
	c3.512,3.512,9.206,3.512,12.717,0l53.879-53.879c3.512-3.512,3.512-9.205,0-12.717L80.388,21.398
	C61.999,3.008,32.182,3.008,13.792,21.398z M58.168,65.773c-6.118,6.118-16.037,6.118-22.155,0c-6.118-6.118-6.118-16.037,0-22.155
	s16.037-6.118,22.155,0S64.285,59.656,58.168,65.773z"/>
<path style="fill:#D6D8DB;" d="M506.415,378.085L375.112,246.782c-9.657-9.657-24.398-12.076-36.635-6.012l-35.909,17.794
	c-5.748,2.848-12.672,1.712-17.209-2.824l-85.869-85.87l-37.226,37.226l85.869,85.869c4.536,4.536,5.672,11.461,2.824,17.209
	l-17.794,35.909c-6.064,12.237-3.644,26.978,6.012,36.635l114.578,114.578c8.65,8.65,22.39,9.497,32.037,1.976l118.865-92.668
	C513.693,399.558,514.518,386.188,506.415,378.085z M374.102,436.081L374.102,436.081c-7.508,7.508-19.68,7.508-27.187,0
	l-47.565-47.565c-7.508-7.508-7.508-19.68,0-27.187c7.507-7.508,19.679-7.508,27.187,0l47.565,47.565
	C381.609,416.401,381.609,428.573,374.102,436.081z M428.476,381.706c-7.508,7.508-19.68,7.508-27.187,0l-47.565-47.565
	c-7.508-7.507-7.508-19.679,0-27.187c7.508-7.507,19.68-7.507,27.187,0l47.565,47.565
	C435.983,362.027,435.983,374.199,428.476,381.706z"/>
<path style="fill:#C3E9F1;" d="M13.792,21.398c-18.39,18.39-18.39,48.207,0,66.597l28.178,28.178
	c19.483-3.751,35.446-16.495,42.774-23.823s20.072-23.291,23.823-42.774L80.388,21.398C61.999,3.007,32.182,3.008,13.792,21.398z
	 M58.168,65.773c-6.118,6.118-16.037,6.118-22.155,0c-6.118-6.118-6.118-16.037,0-22.155s16.037-6.118,22.155,0
	S64.285,59.656,58.168,65.773z"/>
<path style="opacity:0.1;enable-background:new    ;" d="M86.963,161.165c-23.364-23.363-42.481-59.925-49.827-94.376
	c-0.386-0.318-0.762-0.654-1.123-1.015c-5.415-5.415-6.027-13.803-1.857-19.902c-0.91-13.83,0.535-26.727,4.886-37.564
	c-9.247,1.596-18.11,5.951-25.25,13.09l0,0c-18.39,18.39-18.39,48.207,0,66.597L86.963,161.165z"/>
<rect x="176.944" y="171.67" transform="matrix(-0.7071 -0.7071 0.7071 -0.7071 185.0169 472.622)" style="opacity:0.1;enable-background:new    ;" width="26.895" height="52.645"/>
<path style="fill:#F0F1F1;" d="M176.72,133.799l-50.526,50.526l26.073,26.073c1.849,1.849,4.847,1.849,6.696,0l43.83-43.83
	c1.849-1.849,1.849-4.847,0-6.696L176.72,133.799z"/>
<rect x="120.672" y="157.024" transform="matrix(-0.7071 0.7071 -0.7071 -0.7071 382.9595 169.3971)" style="opacity:0.1;enable-background:new    ;" width="71.449" height="13.976"/>
<g>
</g>
<g>
</g>
<g>
</g>
<g>
</g>
<g>
</g>
<g>
</g>
<g>
</g>
<g>
</g>
<g>
</g>
<g>
</g>
<g>
</g>
<g>
</g>
<g>
</g>
<g>
</g>
<g>
</g>
</svg>
