<?xml version="1.0" encoding="iso-8859-1"?>
<!-- Generator: Adobe Illustrator 19.0.0, SVG Export Plug-In . SVG Version: 6.00 Build 0)  -->
<svg version="1.1" id="Capa_1" xmlns="http://www.w3.org/2000/svg" xmlns:xlink="http://www.w3.org/1999/xlink" x="0px" y="0px"
	 viewBox="0 0 512 512" style="enable-background:new 0 0 512 512;" xml:space="preserve">
<path id="SVGCleanerId_0" style="fill:#F8D662;" d="M318.972,486.873l-153.823-55.987c-23.671-8.615-33.588-36.698-20.577-58.267
	l25.701-42.607c25.967-43.048,43.322-90.73,51.1-140.398l7.699-49.159c3.898-24.887,29.546-40.024,53.216-31.409l153.823,55.987
	c23.671,8.615,33.588,36.698,20.577,58.267l-25.701,42.607c-25.967,43.047-43.322,90.73-51.1,140.397l-7.699,49.159
	C368.291,480.351,342.643,495.489,318.972,486.873z"/>
<g>
	<path id="SVGCleanerId_0_1_" style="fill:#F8D662;" d="M318.972,486.873l-153.823-55.987
		c-23.671-8.615-33.588-36.698-20.577-58.267l25.701-42.607c25.967-43.048,43.322-90.73,51.1-140.398l7.699-49.159
		c3.898-24.887,29.546-40.024,53.216-31.409l153.823,55.987c23.671,8.615,33.588,36.698,20.577,58.267l-25.701,42.607
		c-25.967,43.047-43.322,90.73-51.1,140.397l-7.699,49.159C368.291,480.351,342.643,495.489,318.972,486.873z"/>
</g>
<path style="fill:#F8D662;" d="M432.716,107.694L321.748,67.305c-6.197-2.256-13.049,0.94-15.305,7.137l-13.948,38.321
	l133.41,48.557L439.853,123C442.109,116.802,438.913,109.95,432.716,107.694z"/>
<path style="opacity:0.2;enable-background:new    ;" d="M432.716,107.694L321.748,67.305c-6.197-2.256-13.049,0.94-15.305,7.137
	l-13.948,38.321l133.41,48.557L439.853,123C442.109,116.802,438.913,109.95,432.716,107.694z"/>
<g style="opacity:0.1;">
	<rect x="360.721" y="85.898" transform="matrix(-0.9397 -0.342 0.342 -0.9397 675.8459 343.6791)" width="15" height="52.721"/>
	<rect x="324.062" y="72.545" transform="matrix(-0.9397 -0.342 0.342 -0.9397 609.3061 305.2407)" width="15" height="52.72"/>
	<rect x="397.394" y="99.244" transform="matrix(-0.9397 -0.342 0.342 -0.9397 742.4158 382.1096)" width="15" height="52.722"/>
</g>
<path style="fill:#F8D662;" d="M419.146,102.755l-83.829-30.511l40.93-65.402c3.647-5.828,10.872-8.313,17.332-5.961l26.806,9.757
	c6.46,2.351,10.398,8.899,9.445,15.708L419.146,102.755z"/>
<path style="opacity:0.1;enable-background:new    ;" d="M395.124,1.442L393.58,0.88c-6.46-2.351-13.685,0.134-17.333,5.962
	l-40.93,65.402l35.06,12.761C366.463,62.216,386.038,17.913,395.124,1.442z"/>
<path style="fill:#FFFFFF;" d="M386.999,218.077L386.999,218.077c-23.235-31.53-63.116-46.045-101.182-36.827l0,0
	c-5.675,1.374-10.286,5.498-12.283,10.985l-56.375,154.889c-3.583,9.845,1.493,20.732,11.338,24.315l80.161,29.176
	c9.845,3.583,20.732-1.493,24.315-11.338l56.375-154.889C391.345,228.9,390.463,222.778,386.999,218.077z"/>
<g>
	<path style="fill:#5D6671;" d="M323.472,336.849c-0.852,0-1.718-0.147-2.564-0.454l-60.516-22.025
		c-3.892-1.417-5.899-5.721-4.482-9.613c1.417-3.892,5.72-5.897,9.613-4.483l60.516,22.025c3.892,1.417,5.899,5.721,4.482,9.613
		C329.412,334.957,326.536,336.849,323.472,336.849z"/>
	<path style="fill:#5D6671;" d="M302.953,358.798c-0.852,0-1.718-0.146-2.564-0.454l-38.388-13.972
		c-3.892-1.417-5.899-5.721-4.482-9.613c1.416-3.892,5.719-5.898,9.613-4.482l38.388,13.972c3.892,1.417,5.899,5.721,4.482,9.613
		C308.894,356.906,306.018,358.798,302.953,358.798z"/>
</g>
<circle style="fill:#F8D662;" cx="314.621" cy="259.53" r="32.2"/>
<path style="opacity:0.1;enable-background:new    ;" d="M196.149,391.392l25.701-42.607c25.966-43.047,43.322-90.73,51.101-140.397
	l7.699-49.159c3.898-24.887,29.546-40.024,53.216-31.408l-51.577-18.773c-23.671-8.615-49.318,6.522-53.216,31.409l-7.699,49.159
	c-7.779,49.667-25.134,97.35-51.101,140.398l-25.701,42.607c-13.011,21.569-3.094,49.652,20.577,58.267l51.577,18.773
	C193.056,441.043,183.139,412.961,196.149,391.392z"/>
<path id="SVGCleanerId_1" style="fill:#F18290;" d="M253.267,512H89.572c-25.19,0-44.114-22.997-39.265-47.715l9.578-48.827
	c9.677-49.332,9.677-100.075,0-149.408l-9.578-48.827c-4.849-24.719,14.075-47.715,39.265-47.715h163.695
	c25.19,0,44.114,22.997,39.264,47.715l-9.578,48.827c-9.677,49.332-9.677,100.075,0,149.408l9.578,48.827
	C297.381,489.003,278.457,512,253.267,512z"/>
<g>
	<path id="SVGCleanerId_1_1_" style="fill:#F18290;" d="M253.267,512H89.572c-25.19,0-44.114-22.997-39.265-47.715l9.578-48.827
		c9.677-49.332,9.677-100.075,0-149.408l-9.578-48.827c-4.849-24.719,14.075-47.715,39.265-47.715h163.695
		c25.19,0,44.114,22.997,39.264,47.715l-9.578,48.827c-9.677,49.332-9.677,100.075,0,149.408l9.578,48.827
		C297.381,489.003,278.457,512,253.267,512z"/>
</g>
<path style="fill:#F18290;" d="M230.465,116.786h-118.09c-6.595,0-11.941,5.346-11.941,11.941v40.78h141.972v-40.78
	C242.406,122.132,237.06,116.786,230.465,116.786z"/>
<path style="opacity:0.2;enable-background:new    ;" d="M230.465,116.786h-118.09c-6.595,0-11.941,5.346-11.941,11.941v40.78
	h141.972v-40.78C242.406,122.132,237.06,116.786,230.465,116.786z"/>
<g style="opacity:0.1;">
	<rect x="163.921" y="116.78" width="15" height="52.722"/>
	<rect x="124.901" y="116.78" width="15" height="52.722"/>
	<rect x="202.941" y="116.78" width="15" height="52.722"/>
</g>
<path style="fill:#F18290;" d="M216.024,116.786h-89.208l16.093-75.457c1.434-6.724,7.373-11.53,14.248-11.53h28.527
	c6.875,0,12.814,4.806,14.248,11.53L216.024,116.786z"/>
<path style="opacity:0.1;enable-background:new    ;" d="M158.799,29.799h-1.643c-6.875,0-12.814,4.806-14.248,11.53l-16.093,75.457
	h37.31C152.653,96.71,155.895,48.384,158.799,29.799z"/>
<path style="fill:#FFFFFF;" d="M225.258,236.148L225.258,236.148c-32.618-21.682-75.058-21.682-107.676,0l0,0
	c-4.863,3.232-7.785,8.684-7.785,14.524v164.829c0,10.477,8.494,18.971,18.971,18.971h85.305c10.477,0,18.971-8.493,18.971-18.971
	v-164.83C233.043,244.832,230.121,239.38,225.258,236.148z"/>
<g>
	<path style="fill:#5D6671;" d="M203.619,369.935H139.22c-4.143,0-7.5-3.358-7.5-7.5c0-4.143,3.357-7.5,7.5-7.5h64.399
		c4.143,0,7.5,3.357,7.5,7.5C211.119,366.577,207.762,369.935,203.619,369.935z"/>
	<path style="fill:#5D6671;" d="M191.846,397.578h-40.852c-4.143,0-7.5-3.357-7.5-7.5s3.357-7.5,7.5-7.5h40.852
		c4.143,0,7.5,3.357,7.5,7.5S195.988,397.578,191.846,397.578z"/>
</g>
<circle style="fill:#F18290;" cx="171.421" cy="299.86" r="32.2"/>
<path style="opacity:0.1;enable-background:new    ;" d="M105.195,464.285l9.578-48.827c9.677-49.332,9.677-100.076,0-149.408
	l-9.578-48.827c-4.849-24.719,14.075-47.715,39.265-47.715H89.572c-25.19,0-44.113,22.997-39.264,47.715l9.579,48.827
	c9.677,49.332,9.677,100.076,0,149.408l-9.579,48.827C45.459,489.003,64.382,512,89.572,512h54.888
	C119.27,512,100.346,489.003,105.195,464.285z"/>
<g>
</g>
<g>
</g>
<g>
</g>
<g>
</g>
<g>
</g>
<g>
</g>
<g>
</g>
<g>
</g>
<g>
</g>
<g>
</g>
<g>
</g>
<g>
</g>
<g>
</g>
<g>
</g>
<g>
</g>
</svg>
