<?xml version="1.0" encoding="iso-8859-1"?>
<!-- Generator: Adobe Illustrator 19.0.0, SVG Export Plug-In . SVG Version: 6.00 Build 0)  -->
<svg version="1.1" id="Capa_1" xmlns="http://www.w3.org/2000/svg" xmlns:xlink="http://www.w3.org/1999/xlink" x="0px" y="0px"
	 viewBox="0 0 511.998 511.998" style="enable-background:new 0 0 511.998 511.998;" xml:space="preserve">
<path style="fill:#8DB5EA;" d="M474.998,336.301l-203.774,35.931c-5.269,0.929-10.293-2.589-11.221-7.857l-45.91-260.367
	C203.562,44.287,147.049,3.302,87.25,13.378c-29.302,4.937-54.857,21.087-71.882,45.399c-8.756,12.505-5.717,29.742,6.788,38.499
	c12.505,8.754,29.74,5.715,38.497-6.788c8.344-11.917,20.805-19.892,35.109-22.477c29.769-5.38,58.584,15.526,63.837,45.318
	l47.385,268.736c14.678,83.242,95.047,140.819,178.296,126.183c70.159-12.334,120.778-70.414,126.599-138.17
	C513.654,349.434,495.403,332.703,474.998,336.301z"/>
<path style="opacity:0.05;enable-background:new    ;" d="M496.924,424.098L496.924,424.098
	c-163.91,93.366-250.382,26.945-266.532-64.645l-31.788-180.279l27.876-4.915l-10.582-60.014l-54.443,9.6l45.531,258.221
	c14.678,83.242,95.047,140.818,178.296,126.183C435.728,499.379,476.071,466.859,496.924,424.098z"/>
<path style="fill:#C3E9F1;" d="M192.221,139.149c-20.672,3.645-37.114,8.391-40.759-12.281l-2.236-12.683
	c-4.251-24.106-27.32-40.26-51.426-36.01c-11.677,2.059-21.854,8.542-28.655,18.256c-12.04,17.196-35.739,21.375-52.934,9.334
	C-0.984,93.726-5.163,70.027,6.877,52.832C25.325,26.487,52.928,8.901,84.6,3.316c65.384-11.529,127.957,32.286,139.486,97.67
	l2.236,12.683C229.967,134.34,212.893,135.504,192.221,139.149z"/>
<g style="opacity:0.1;">
	
		<rect x="216.261" y="290.401" transform="matrix(-0.1736 -0.9848 0.9848 -0.1736 -50.6051 593.616)" width="14.999" height="55.279"/>
	
		<rect x="209.356" y="251.232" transform="matrix(-0.1736 -0.9848 0.9848 -0.1736 -20.1342 540.8469)" width="14.999" height="55.279"/>
</g>
<path style="opacity:0.1;enable-background:new    ;" d="M383.991,352.348l12.988,73.659c2.678,15.186,17.159,25.326,32.346,22.649
	l0,0c15.186-2.678,25.326-17.159,22.649-32.346l-12.988-73.659L383.991,352.348z"/>
<path style="opacity:0.1;enable-background:new    ;" d="M299.694,367.212l4.831,27.399c2.678,15.186,17.159,25.326,32.346,22.649
	l0,0c15.186-2.678,25.326-17.159,22.649-32.346l-4.831-27.399L299.694,367.212z"/>
<g>
	<path style="fill:#F8D662;" d="M437.208,437.396L437.208,437.396c-15.186,2.678-29.668-7.462-32.346-22.649l-11.339-64.306
		c-1.866-10.581,5.199-20.67,15.78-22.536l16.679-2.941c10.581-1.866,20.67,5.199,22.536,15.78l11.339,64.306
		C462.535,420.237,452.394,434.718,437.208,437.396z"/>
	<path style="fill:#F8D662;" d="M344.754,406L344.754,406c-15.186,2.678-29.668-7.462-32.346-22.649l-3.182-18.046
		c-1.866-10.581,5.199-20.67,15.78-22.536l16.679-2.941c10.581-1.866,20.67,5.199,22.536,15.78l3.182,18.046
		C370.081,388.841,359.941,403.322,344.754,406z"/>
</g>
<path style="opacity:0.1;enable-background:new    ;" d="M149.226,114.186l2.236,12.683c3.645,20.671,20.087,15.925,40.759,12.28
	c0.406-0.072,0.808-0.141,1.212-0.211c-6.087-4.19-12.039-16.808-13.965-27.729c-6.325-35.872-58.473-76.682-103.645-45.602
	c-46.567,32.04-65.325-4.352-51.513-32.674c-6.447,5.908-12.295,12.562-17.432,19.898c-12.04,17.195-7.861,40.894,9.334,52.933
	c17.195,12.041,40.894,7.862,52.933-9.334c6.802-9.714,16.979-16.197,28.656-18.256C121.906,73.925,144.975,90.08,149.226,114.186z"
	/>
<g>
</g>
<g>
</g>
<g>
</g>
<g>
</g>
<g>
</g>
<g>
</g>
<g>
</g>
<g>
</g>
<g>
</g>
<g>
</g>
<g>
</g>
<g>
</g>
<g>
</g>
<g>
</g>
<g>
</g>
</svg>
