<?xml version="1.0" encoding="iso-8859-1"?>
<!-- Generator: Adobe Illustrator 19.0.0, SVG Export Plug-In . SVG Version: 6.00 Build 0)  -->
<svg version="1.1" id="Capa_1" xmlns="http://www.w3.org/2000/svg" xmlns:xlink="http://www.w3.org/1999/xlink" x="0px" y="0px"
	 viewBox="0 0 512 512" style="enable-background:new 0 0 512 512;" xml:space="preserve">
<path style="fill:#F0F1F1;" d="M403.901,56.158c-10.383-0.055-20.429,1.347-29.948,4.011c-12.79,3.581-26.461,0.477-36.883-7.757
	C314.777,34.799,286.618,24.283,256,24.283s-58.777,10.516-81.07,28.129c-10.421,8.234-24.093,11.338-36.883,7.757
	c-9.519-2.665-19.566-4.066-29.948-4.011C50.14,56.464,0.81,105.353,0.011,163.307c-0.779,56.457,41.495,103.203,96.085,109.5
	c7.157,0.826,12.591,6.819,12.591,14.023v115.006h294.627V286.831c0-7.204,5.434-13.198,12.591-14.023
	c54.59-6.297,96.864-53.043,96.085-109.5C511.19,105.353,461.86,56.464,403.901,56.158z"/>
<path style="fill:#8DB5EA;" d="M403.314,401.837H108.686v64.901c0,11.586,9.393,20.979,20.979,20.979h252.67
	c11.586,0,20.979-9.393,20.979-20.979V401.837z"/>
<rect x="108.69" y="437.28" style="fill:#C3E9F1;" width="294.63" height="15"/>
<g style="opacity:0.15;">
	<path d="M206.896,342.288c-4.142,0-7.5-3.357-7.5-7.5v-62.832c0-4.143,3.358-7.5,7.5-7.5s7.5,3.357,7.5,7.5v62.832
		C214.396,338.931,211.038,342.288,206.896,342.288z"/>
	<path d="M305.104,342.288c-4.142,0-7.5-3.357-7.5-7.5v-62.832c0-4.143,3.358-7.5,7.5-7.5s7.5,3.357,7.5,7.5v62.832
		C312.604,338.931,309.247,342.288,305.104,342.288z"/>
</g>
<path style="fill:#F18290;" d="M354.167,358.387h-39.295c-5.394,0-9.767,4.373-9.767,9.767v33.683h58.829v-33.683
	C363.934,362.76,359.561,358.387,354.167,358.387z"/>
<rect x="305.11" y="387.19" style="opacity:0.05;enable-background:new    ;" width="58.829" height="14.644"/>
<path style="opacity:0.1;enable-background:new    ;" d="M448.143,65.902C448.143,65.901,448.143,65.902,448.143,65.902
	c-13.525-6.178-28.506-9.66-44.242-9.744c-10.382-0.055-20.429,1.346-29.948,4.011c-10.877,3.045-22.385,1.241-31.996-4.428
	c15.323,10.591,23.427,17.809,30.408,26.26c4.269,5.168,11.948,5.801,17.101,1.514C403.096,72.176,427.063,64.66,448.143,65.902z"/>
<path style="opacity:0.1;enable-background:new    ;" d="M137.307,217.402c-50.769-54.284-19.8-129.514,22.221-157.208
	c-6.958,1.886-14.356,1.971-21.481-0.024c-9.144-2.56-18.775-3.954-28.722-4.011C49.936,55.816,0.831,103.922,0.011,163.307
	c-0.78,56.458,41.495,103.204,96.085,109.501c7.157,0.826,12.591,6.819,12.591,14.023v179.907c0,11.586,9.393,20.979,20.979,20.979
	h92.128c-48.959-50.546-63.986-167.313-67.287-229.597C153.701,242.956,147.68,228.493,137.307,217.402z"/>
<g>
	<ellipse style="fill:#F18290;" cx="171.93" cy="188.04" rx="31.02" ry="24.703"/>
	<ellipse style="fill:#F18290;" cx="340.07" cy="188.04" rx="31.02" ry="24.703"/>
</g>
<g>
	<path style="fill:#5D6671;" d="M177.116,166.375c-4.142,0-7.5-3.357-7.5-7.5v-13.314c0-4.143,3.358-7.5,7.5-7.5s7.5,3.357,7.5,7.5
		v13.314C184.616,163.018,181.258,166.375,177.116,166.375z"/>
	<path style="fill:#5D6671;" d="M256,191.537L256,191.537c-12.412,0-22.474-10.062-22.474-22.474v-16.339
		c0-3.388,2.747-6.135,6.135-6.135h32.679c3.388,0,6.135,2.747,6.135,6.135v16.339C278.474,181.475,268.412,191.537,256,191.537z"/>
	<path style="fill:#5D6671;" d="M334.884,166.375c-4.142,0-7.5-3.357-7.5-7.5v-13.314c0-4.143,3.358-7.5,7.5-7.5s7.5,3.357,7.5,7.5
		v13.314C342.384,163.018,339.026,166.375,334.884,166.375z"/>
</g>
<g>
</g>
<g>
</g>
<g>
</g>
<g>
</g>
<g>
</g>
<g>
</g>
<g>
</g>
<g>
</g>
<g>
</g>
<g>
</g>
<g>
</g>
<g>
</g>
<g>
</g>
<g>
</g>
<g>
</g>
</svg>
