<?xml version="1.0" encoding="iso-8859-1"?>
<!-- Generator: Adobe Illustrator 19.0.0, SVG Export Plug-In . SVG Version: 6.00 Build 0)  -->
<svg version="1.1" id="Capa_1" xmlns="http://www.w3.org/2000/svg" xmlns:xlink="http://www.w3.org/1999/xlink" x="0px" y="0px"
	 viewBox="0 0 511.999 511.999" style="enable-background:new 0 0 511.999 511.999;" xml:space="preserve">
<path style="fill:#5D6671;" d="M307.194,147.183h-33.629c-8.136,0-14.732,6.596-14.732,14.732v38.252h63.094v-38.252
	C321.926,153.778,315.33,147.183,307.194,147.183z"/>
<path style="fill:#C1C6CA;" d="M454.808,323.601c-10.319,0-18.685-8.366-18.685-18.685V193.103
	c0-69.544-56.578-126.122-126.122-126.122s-126.123,56.578-126.123,126.122v54.642c0,10.319-8.366,18.685-18.685,18.685
	s-18.685-8.366-18.685-18.685v-54.642c0-90.15,73.343-163.492,163.493-163.492s163.492,73.342,163.492,163.492v111.814
	C473.492,315.236,465.127,323.601,454.808,323.601z"/>
<path style="fill:#D6D8DB;" d="M143.203,326.804L12.192,279.119C2.58,275.62-2.376,264.992,1.122,255.38l9.688-26.618
	c3.498-9.612,14.127-14.568,23.739-11.07l131.011,47.684L143.203,326.804z"/>
<path style="opacity:0.1;enable-background:new    ;" d="M165.193,266.43c10.319,0,18.685-8.366,18.685-18.685v-54.642
	c0-0.84,0.016-1.677,0.032-2.514c-13.242,7.375-25.773,16.167-37.402,26.304v30.852C146.508,258.064,154.874,266.43,165.193,266.43z
	"/>
<path style="opacity:0.1;enable-background:new    ;" d="M445.454,227.343c-3.036-3.036-6.153-5.959-9.332-8.793v86.366
	c0,10.319,8.366,18.685,18.685,18.685s18.685-8.366,18.685-18.685v-43.297C465.406,249.416,456.043,237.931,445.454,227.343z"/>
<path style="opacity:0.1;enable-background:new    ;" d="M117.219,247.783c-13.774,17.642-24.631,37.106-32.353,57.788
	l58.337,21.233l22.357-61.426L117.219,247.783z"/>
<path style="fill:#F0F1F1;" d="M489.727,382.418c0-110.097-89.251-199.348-199.348-199.348S91.031,272.321,91.031,382.418v72.414
	h398.696L489.727,382.418L489.727,382.418z"/>
<g>
	<path style="fill:#5D6671;" d="M499.302,494.844H81.456c-7.013,0-12.698-5.685-12.698-12.698v-14.615
		c0-7.013,5.685-12.698,12.698-12.698h417.845c7.013,0,12.698,5.685,12.698,12.698v14.615
		C512,489.159,506.315,494.844,499.302,494.844z"/>
	<path style="fill:#5D6671;" d="M437.178,154.897c-11.019,0-21.696-5.861-27.353-16.211c-19.977-36.546-58.227-59.249-99.824-59.249
		s-79.848,22.703-99.824,59.249c-8.248,15.093-27.17,20.64-42.262,12.389c-15.092-8.249-20.639-27.17-12.39-42.262
		c30.904-56.536,90.096-91.658,154.476-91.658s123.572,35.122,154.476,91.658c8.249,15.093,2.702,34.014-12.39,42.262
		C447.346,153.667,442.226,154.897,437.178,154.897z"/>
</g>
<rect x="91.03" y="399.839" style="opacity:0.1;enable-background:new    ;" width="398.7" height="54.993"/>
<g>
	<ellipse style="fill:#F18290;" cx="207.46" cy="327.969" rx="30.596" ry="24.365"/>
	<ellipse style="fill:#F18290;" cx="373.3" cy="327.969" rx="30.596" ry="24.365"/>
</g>
<g>
	<path style="fill:#5D6671;" d="M239.853,308.951c-4.142,0-7.5-3.357-7.5-7.5c0-3.895-3.168-7.063-7.063-7.063
		s-7.063,3.169-7.063,7.063c0,4.143-3.358,7.5-7.5,7.5s-7.5-3.357-7.5-7.5c0-12.166,9.897-22.063,22.063-22.063
		s22.063,9.897,22.063,22.063C247.353,305.594,243.995,308.951,239.853,308.951z"/>
	<path style="fill:#5D6671;" d="M370.032,308.951c-4.142,0-7.5-3.357-7.5-7.5c0-3.895-3.168-7.063-7.063-7.063
		s-7.063,3.169-7.063,7.063c0,4.143-3.358,7.5-7.5,7.5s-7.5-3.357-7.5-7.5c0-12.166,9.897-22.063,22.063-22.063
		s22.063,9.897,22.063,22.063C377.532,305.594,374.174,308.951,370.032,308.951z"/>
	<path style="fill:#5D6671;" d="M290.379,333.01c-8.087,0-15.779-3.502-21.102-9.609c-2.722-3.122-2.396-7.859,0.726-10.581
		c3.122-2.723,7.86-2.398,10.582,0.726c2.473,2.837,6.043,4.465,9.794,4.465s7.321-1.627,9.793-4.465
		c2.722-3.123,7.459-3.447,10.582-0.727c3.123,2.722,3.448,7.459,0.727,10.582C306.158,329.507,298.467,333.01,290.379,333.01z"/>
</g>
<path style="opacity:0.1;enable-background:new    ;" d="M225.995,193.702C147.493,220.477,91.03,294.852,91.03,382.418v72.414
	h147.123C174.959,361.375,199.419,231.826,225.995,193.702z"/>
<g>
</g>
<g>
</g>
<g>
</g>
<g>
</g>
<g>
</g>
<g>
</g>
<g>
</g>
<g>
</g>
<g>
</g>
<g>
</g>
<g>
</g>
<g>
</g>
<g>
</g>
<g>
</g>
<g>
</g>
</svg>
