<?xml version="1.0" encoding="iso-8859-1"?>
<!-- Generator: Adobe Illustrator 19.0.0, SVG Export Plug-In . SVG Version: 6.00 Build 0)  -->
<svg version="1.1" id="Capa_1" xmlns="http://www.w3.org/2000/svg" xmlns:xlink="http://www.w3.org/1999/xlink" x="0px" y="0px"
	 viewBox="0 0 512 512" style="enable-background:new 0 0 512 512;" xml:space="preserve">
<path style="fill:#7CD9D2;" d="M417.695,512H94.305c-28.853,0-52.243-23.39-52.243-52.243V76.864C42.063,34.413,76.476,0,118.926,0
	h274.147c42.451,0,76.864,34.413,76.864,76.864v382.893C469.937,488.61,446.548,512,417.695,512z"/>
<path style="fill:#F0F1F1;" d="M393.073,0H118.926c-42.45,0-76.863,34.413-76.863,76.864v35.816h427.875V76.864
	C469.937,34.413,435.524,0,393.073,0z"/>
<g>
	<ellipse style="fill:#F18290;" cx="170.09" cy="72.07" rx="31.699" ry="25.24"/>
	<ellipse style="fill:#F18290;" cx="341.91" cy="72.07" rx="31.699" ry="25.24"/>
</g>
<g>
	<path style="fill:#5D6671;" d="M188.564,54.388c-4.143,0-7.5-3.357-7.5-7.5V35.694c0-4.143,3.357-7.5,7.5-7.5s7.5,3.358,7.5,7.5
		v11.193C196.064,51.03,192.707,54.388,188.564,54.388z"/>
	<path style="fill:#5D6671;" d="M323.435,54.388c-4.142,0-7.5-3.357-7.5-7.5V35.694c0-4.143,3.358-7.5,7.5-7.5
		c4.143,0,7.5,3.358,7.5,7.5v11.193C330.935,51.03,327.578,54.388,323.435,54.388z"/>
	<path style="fill:#5D6671;" d="M256,62.984c-8.98,0-17.521-3.89-23.433-10.672c-2.722-3.122-2.397-7.859,0.726-10.581
		c3.122-2.724,7.86-2.397,10.581,0.726c3.063,3.513,7.482,5.527,12.126,5.527s9.064-2.015,12.126-5.527
		c2.721-3.122,7.458-3.449,10.581-0.726c3.123,2.722,3.447,7.459,0.726,10.581C273.522,59.095,264.98,62.984,256,62.984z"/>
	<path style="fill:#5D6671;" d="M256,187.628c-4.143,0-7.5-3.357-7.5-7.5v-37.129c0-4.143,3.357-7.5,7.5-7.5s7.5,3.357,7.5,7.5
		v37.129C263.5,184.27,260.143,187.628,256,187.628z"/>
	<path style="fill:#5D6671;" d="M344.108,224.124c-1.919,0-3.839-0.732-5.304-2.196c-2.929-2.93-2.929-7.678,0-10.607l26.255-26.255
		c2.93-2.928,7.678-2.928,10.607,0c2.929,2.93,2.929,7.678,0,10.607l-26.255,26.255
		C347.947,223.392,346.027,224.124,344.108,224.124z"/>
	<path style="fill:#5D6671;" d="M417.734,312.232h-37.13c-4.143,0-7.5-3.357-7.5-7.5s3.357-7.5,7.5-7.5h37.13
		c4.143,0,7.5,3.357,7.5,7.5S421.877,312.232,417.734,312.232z"/>
	<path style="fill:#5D6671;" d="M370.363,426.596c-1.919,0-3.839-0.732-5.304-2.196l-26.255-26.255
		c-2.929-2.93-2.929-7.678,0-10.607c2.93-2.928,7.678-2.928,10.607,0l26.255,26.255c2.929,2.93,2.929,7.678,0,10.607
		C374.202,425.863,372.282,426.596,370.363,426.596z"/>
	<path style="fill:#5D6671;" d="M256,473.967c-4.143,0-7.5-3.357-7.5-7.5v-37.13c0-4.143,3.357-7.5,7.5-7.5s7.5,3.357,7.5,7.5v37.13
		C263.5,470.609,260.143,473.967,256,473.967z"/>
	<path style="fill:#5D6671;" d="M141.637,426.596c-1.919,0-3.839-0.732-5.304-2.196c-2.929-2.93-2.929-7.678,0-10.607l26.255-26.255
		c2.93-2.928,7.678-2.928,10.607,0c2.929,2.93,2.929,7.678,0,10.607L146.94,424.4C145.476,425.863,143.556,426.596,141.637,426.596z
		"/>
	<path style="fill:#5D6671;" d="M131.395,312.232h-37.13c-4.143,0-7.5-3.357-7.5-7.5s3.357-7.5,7.5-7.5h37.13
		c4.143,0,7.5,3.357,7.5,7.5S135.538,312.232,131.395,312.232z"/>
	<path style="fill:#5D6671;" d="M167.892,224.124c-1.919,0-3.839-0.732-5.304-2.196l-26.255-26.255
		c-2.929-2.93-2.929-7.678,0-10.607c2.93-2.928,7.678-2.928,10.607,0l26.255,26.255c2.929,2.93,2.929,7.678,0,10.607
		C171.73,223.392,169.811,224.124,167.892,224.124z"/>
	<path style="fill:#5D6671;" d="M198.473,173.343c-2.943,0-5.735-1.743-6.932-4.632l-4.362-10.531
		c-1.586-3.827,0.232-8.214,4.059-9.799c3.828-1.586,8.214,0.231,9.799,4.059l4.362,10.531c1.586,3.827-0.231,8.214-4.059,9.799
		C200.401,173.158,199.429,173.343,198.473,173.343z"/>
	<path style="fill:#5D6671;" d="M313.527,173.343c-0.957,0-1.929-0.184-2.867-0.573c-3.827-1.585-5.645-5.972-4.059-9.799
		l4.362-10.531c1.585-3.826,5.974-5.646,9.799-4.059c3.827,1.585,5.645,5.972,4.059,9.799l-4.362,10.531
		C319.263,171.599,316.471,173.343,313.527,173.343z"/>
	<path style="fill:#5D6671;" d="M394.895,254.704c-2.943,0-5.735-1.743-6.932-4.632c-1.586-3.827,0.231-8.214,4.059-9.799
		l10.531-4.362c3.828-1.587,8.213,0.231,9.799,4.059c1.586,3.827-0.232,8.214-4.059,9.799l-10.531,4.362
		C396.823,254.52,395.851,254.704,394.895,254.704z"/>
	<path style="fill:#5D6671;" d="M405.42,374.127c-0.956,0-1.929-0.184-2.867-0.573l-10.531-4.362
		c-3.827-1.585-5.645-5.972-4.059-9.799c1.586-3.826,5.974-5.646,9.799-4.059l10.531,4.362c3.827,1.585,5.645,5.972,4.059,9.799
		C411.155,372.383,408.363,374.127,405.42,374.127z"/>
	<path style="fill:#5D6671;" d="M317.896,461.657c-2.943,0-5.735-1.743-6.932-4.632l-4.362-10.531
		c-1.586-3.827,0.231-8.214,4.059-9.799c3.827-1.585,8.214,0.231,9.799,4.059l4.362,10.531c1.586,3.827-0.231,8.214-4.059,9.799
		C319.824,461.473,318.852,461.657,317.896,461.657z"/>
	<path style="fill:#5D6671;" d="M194.105,461.657c-0.957,0-1.929-0.184-2.867-0.573c-3.827-1.585-5.645-5.972-4.059-9.799
		l4.362-10.531c1.585-3.826,5.976-5.647,9.799-4.059c3.827,1.585,5.645,5.972,4.059,9.799l-4.362,10.531
		C199.84,459.913,197.048,461.657,194.105,461.657z"/>
	<path style="fill:#5D6671;" d="M106.58,374.127c-2.943,0-5.735-1.743-6.932-4.632c-1.586-3.827,0.231-8.214,4.059-9.799
		l10.531-4.362c3.826-1.585,8.214,0.231,9.799,4.059c1.586,3.827-0.231,8.214-4.059,9.799l-10.531,4.362
		C108.509,373.942,107.536,374.127,106.58,374.127z"/>
	<path style="fill:#5D6671;" d="M117.105,254.704c-0.957,0-1.929-0.184-2.867-0.573l-10.531-4.362
		c-3.827-1.585-5.645-5.972-4.059-9.799c1.585-3.825,5.972-5.648,9.799-4.059l10.531,4.362c3.827,1.585,5.645,5.972,4.059,9.799
		C122.841,252.96,120.049,254.704,117.105,254.704z"/>
</g>
<path style="opacity:0.1;enable-background:new    ;" d="M165.505,0h-46.579c-42.45,0-76.863,34.413-76.863,76.864v382.893
	c0,28.853,23.39,52.243,52.243,52.243h232.676C131.212,414.668,161.084,66.273,165.505,0z"/>
<circle style="fill:#FFFFFF;" cx="256" cy="304.73" r="128.57"/>
<path style="opacity:0.1;enable-background:new    ;" d="M276.215,413.085c-71.006,0-128.567-57.562-128.567-128.567
	c0-30.353,10.525-58.244,28.115-80.237c-29.457,23.56-48.33,59.799-48.33,100.452c0,71.006,57.562,128.567,128.567,128.567
	c40.653,0,76.892-18.874,100.452-48.33C334.458,402.56,306.568,413.085,276.215,413.085z"/>
<path style="fill:#D6D8DB;" d="M150.315,377.982c4.315,6.21,9.238,12.126,14.774,17.662c5.536,5.536,11.451,10.459,17.662,14.774
	l90.494-90.494c8.957-8.957,8.957-23.479,0-32.436l0,0c-8.957-8.957-23.479-8.957-32.435,0L150.315,377.982z"/>
<path style="opacity:0.1;enable-background:new    ;" d="M160.808,367.489l-10.493,10.493c4.315,6.21,9.238,12.126,14.774,17.662
	c5.536,5.536,11.451,10.459,17.662,14.774l10.493-10.493C180.591,391.139,169.594,380.141,160.808,367.489z"/>
<path style="fill:#F18290;" d="M318.544,231.489l-40.358,9.084c-6.881,1.549-9.351,10.076-4.364,15.063l31.274,31.274
	c4.987,4.987,13.514,2.516,15.063-4.364l9.084-40.358C330.686,235.776,324.957,230.046,318.544,231.489z"/>
<g>
</g>
<g>
</g>
<g>
</g>
<g>
</g>
<g>
</g>
<g>
</g>
<g>
</g>
<g>
</g>
<g>
</g>
<g>
</g>
<g>
</g>
<g>
</g>
<g>
</g>
<g>
</g>
<g>
</g>
</svg>
