<?xml version="1.0" encoding="iso-8859-1"?>
<!-- Generator: Adobe Illustrator 19.0.0, SVG Export Plug-In . SVG Version: 6.00 Build 0)  -->
<svg version="1.1" id="Capa_1" xmlns="http://www.w3.org/2000/svg" xmlns:xlink="http://www.w3.org/1999/xlink" x="0px" y="0px"
	 viewBox="0 0 512 512" style="enable-background:new 0 0 512 512;" xml:space="preserve">
<path style="fill:#F0F1F1;" d="M370.582,453.152c-14.163,0-25.644-11.481-25.644-25.643V186.954
	c0-65.384-53.195-118.579-118.579-118.579c-65.385,0-118.58,53.195-118.58,118.579c0,14.163-11.481,25.644-25.644,25.644
	s-25.643-11.481-25.643-25.644c0-93.665,76.202-169.866,169.867-169.866s169.866,76.201,169.866,169.866v240.555
	C396.226,441.671,384.745,453.152,370.582,453.152z"/>
<g style="opacity:0.1;">
	<rect x="344.94" y="302.8" width="51.29" height="15"/>
	<rect x="344.94" y="340.42" width="51.29" height="15"/>
</g>
<path style="opacity:0.05;enable-background:new    ;" d="M56.493,186.954c0,14.163,11.481,25.644,25.644,25.644
	s25.644-11.481,25.644-25.644c0-25.874,8.336-49.834,22.455-69.349c-22.999-0.629-23.544-38.191-12.934-60.774
	C80.153,88.016,56.493,134.77,56.493,186.954z"/>
<path style="fill:#D6D8DB;" d="M116.073,186.954H48.201c-7.038,0-13.201,4.72-15.036,11.515l-14.922,55.274h127.788l-14.922-55.274
	C129.275,191.674,123.111,186.954,116.073,186.954z"/>
<path style="fill:#8DB5EA;" d="M148.474,285.344H15.801C7.074,285.344,0,278.27,0,269.543l0,0c0-8.727,7.074-15.801,15.801-15.801
	h132.673c8.727,0,15.801,7.074,15.801,15.801l0,0C164.275,278.27,157.2,285.344,148.474,285.344z"/>
<path style="opacity:0.1;enable-background:new    ;" d="M75.628,253.742H15.8c-8.726,0-15.8,7.074-15.8,15.801
	c0,8.726,7.074,15.801,15.8,15.801h60.827C63.543,279.158,65.451,257,75.628,253.742z"/>
<path style="fill:#C1C6CA;" d="M468.105,494.912H273.06c-10.252,0-18.562-8.311-18.562-18.562v-30.28
	c0-10.252,8.311-18.562,18.562-18.562h195.045c10.252,0,18.562,8.311,18.562,18.562v30.279
	C486.667,486.601,478.356,494.912,468.105,494.912z"/>
<path style="fill:#8DB5EA;" d="M436.76,367.252h-52.382c-7.619,0-13.796,6.177-13.796,13.796v46.46h79.973v-46.46
	C450.556,373.429,444.379,367.252,436.76,367.252z"/>
<g>
	<path style="fill:#C3E9F1;" d="M492.48,328.212H390.103c-10.781,0-19.52,8.74-19.52,19.52l0,0c0,10.781,8.74,19.52,19.52,19.52
		H492.48c10.781,0,19.52-8.74,19.52-19.52l0,0C512,336.951,503.26,328.212,492.48,328.212z"/>
	<path style="fill:#C3E9F1;" d="M82.137,401.785c18.712,0,33.882-15.169,33.882-33.882c0-21.641-17.784-44.093-27.583-54.822
		c-3.388-3.709-9.21-3.709-12.597,0c-9.799,10.729-27.583,33.181-27.583,54.822C48.256,386.616,63.425,401.785,82.137,401.785z"/>
</g>
<path style="opacity:0.1;enable-background:new    ;" d="M68.379,321.869c-9.386,11.915-20.123,29.218-20.123,46.034
	c0,18.712,15.169,33.882,33.882,33.882c12.418,0,23.269-6.684,29.169-16.647C61.127,394.396,63.129,342.334,68.379,321.869z"/>
<path style="opacity:0.1;enable-background:new    ;" d="M65.566,186.954H48.201c-7.038,0-13.201,4.72-15.036,11.515l-14.922,55.274
	h57.385C61.768,232.883,62.593,208.054,65.566,186.954z"/>
<path style="opacity:0.1;enable-background:new    ;" d="M325.009,427.508H273.06c-10.252,0-18.562,8.311-18.562,18.562v30.279
	c0,10.252,8.311,18.562,18.562,18.562h69.043C329.684,479.581,322.132,449.142,325.009,427.508z"/>
<path style="opacity:0.1;enable-background:new    ;" d="M399.809,367.252h-15.431c-7.619,0-13.796,6.177-13.796,13.796v46.46
	h38.092C400.037,407.939,399.512,381.68,399.809,367.252z"/>
<path style="opacity:0.1;enable-background:new    ;" d="M423.654,328.212h-33.551c-10.781,0-19.52,8.74-19.52,19.52l0,0
	c0,10.781,8.74,19.52,19.52,19.52h34.909C415.03,355.635,417.352,334.475,423.654,328.212z"/>
<g>
</g>
<g>
</g>
<g>
</g>
<g>
</g>
<g>
</g>
<g>
</g>
<g>
</g>
<g>
</g>
<g>
</g>
<g>
</g>
<g>
</g>
<g>
</g>
<g>
</g>
<g>
</g>
<g>
</g>
</svg>
