<?xml version="1.0" encoding="iso-8859-1"?>
<!-- Generator: Adobe Illustrator 19.0.0, SVG Export Plug-In . SVG Version: 6.00 Build 0)  -->
<svg version="1.1" id="Capa_1" xmlns="http://www.w3.org/2000/svg" xmlns:xlink="http://www.w3.org/1999/xlink" x="0px" y="0px"
	 viewBox="0 0 512 512" style="enable-background:new 0 0 512 512;" xml:space="preserve">
<g>
	<path style="fill:#5D6671;" d="M184.112,512h-25.568c-4.936,0-8.937-4.001-8.937-8.937v-14.367h43.443v14.367
		C193.049,507.999,189.047,512,184.112,512z"/>
	<path style="fill:#5D6671;" d="M327.888,512h25.569c4.936,0,8.937-4.001,8.937-8.937v-14.367h-43.443v14.367
		C318.951,507.999,322.953,512,327.888,512z"/>
</g>
<path style="fill:#C3E9F1;" d="M381.23,488.696H130.77c-15.763,0-28.541-12.778-28.541-28.541V192.518
	c0-7.727,6.264-13.992,13.992-13.992h279.558c7.727,0,13.992,6.264,13.992,13.992v267.637
	C409.77,475.918,396.992,488.696,381.23,488.696z"/>
<path style="fill:#FFFFFF;" d="M340.677,241.401H256c-4.142,0-7.5-3.357-7.5-7.5s3.358-7.5,7.5-7.5h84.677
	c4.142,0,7.5,3.357,7.5,7.5S344.819,241.401,340.677,241.401z"/>
<path style="fill:#8DB5EA;" d="M102.23,441.635v18.52c0,15.763,12.778,28.541,28.541,28.541H381.23
	c15.763,0,28.541-12.778,28.541-28.541v-18.52L102.23,441.635L102.23,441.635z"/>
<path style="fill:#F0F1F1;" d="M395.779,155.434H116.221c-7.727,0-13.992-6.264-13.992-13.992V28.541
	C102.23,12.778,115.008,0,130.77,0h250.46c15.763,0,28.541,12.778,28.541,28.541v112.902
	C409.77,149.17,403.506,155.434,395.779,155.434z"/>
<path style="fill:#C3E9F1;" d="M395.779,155.434H116.221c-7.727,0-13.992-6.264-13.992-13.992V28.541
	C102.23,12.778,115.008,0,130.77,0h250.46c15.763,0,28.541,12.778,28.541,28.541v112.902
	C409.77,149.17,403.506,155.434,395.779,155.434z"/>
<path style="opacity:0.1;enable-background:new    ;" d="M203.235,0H130.77c-15.763,0-28.541,12.778-28.541,28.541v112.902
	c0,7.727,6.264,13.992,13.992,13.992h93.746C183.572,107.411,177.273,45.325,203.235,0z"/>
<path style="opacity:0.1;enable-background:new    ;" d="M102.23,192.518v267.637c0,15.763,12.778,28.541,28.541,28.541h114.5
	C203.002,413.289,186.577,256,201.87,178.526h-85.648C108.494,178.526,102.23,184.791,102.23,192.518z"/>
<path style="fill:#5D6671;" d="M162.918,345.787h-11.552c-4.644,0-8.409-3.765-8.409-8.409V186.874c0-4.61,3.737-8.348,8.348-8.348
	h11.676c4.61,0,8.348,3.737,8.348,8.348v150.504C171.327,342.022,167.562,345.787,162.918,345.787z"/>
<path style="fill:#C1C6CA;" d="M162.98,155.434h-11.676c-4.61,0-8.348-3.737-8.348-8.348V53.734c0-4.644,3.765-8.41,8.409-8.41
	h11.552c4.644,0,8.41,3.765,8.41,8.41v93.353C171.327,151.697,167.59,155.434,162.98,155.434z"/>
<path style="fill:#5D6671;" d="M162.98,155.434h-11.676c-4.61,0-8.348-3.737-8.348-8.348V53.734c0-4.644,3.765-8.41,8.409-8.41
	h11.552c4.644,0,8.41,3.765,8.41,8.41v93.353C171.327,151.697,167.59,155.434,162.98,155.434z"/>
<path style="fill:#8DB5EA;" d="M332.102,264.138h-67.527c-4.736,0-8.575,3.839-8.575,8.575V336c0,4.736,3.839,8.575,8.575,8.575
	h67.527c4.736,0,8.575-3.839,8.575-8.575v-63.287C340.677,267.977,336.838,264.138,332.102,264.138z"/>
<path style="fill:#FFFFFF;" d="M322.242,264.138h-47.807l6.154,35.779c0.762,4.428,4.602,7.665,9.096,7.665h17.307
	c4.494,0,8.334-3.236,9.096-7.665L322.242,264.138z"/>
<g>
	<ellipse style="fill:#F18290;" cx="243.19" cy="85.45" rx="20.347" ry="16.204"/>
	<ellipse style="fill:#F18290;" cx="353.48" cy="85.45" rx="20.347" ry="16.204"/>
</g>
<g>
	<path style="fill:#5D6671;" d="M255.052,76.781c-4.142,0-7.5-3.358-7.5-7.5v-7.186c0-4.143,3.358-7.5,7.5-7.5
		c4.142,0,7.5,3.357,7.5,7.5v7.186C262.552,73.424,259.194,76.781,255.052,76.781z"/>
	<path style="fill:#5D6671;" d="M341.625,76.781c-4.143,0-7.5-3.358-7.5-7.5v-7.186c0-4.143,3.357-7.5,7.5-7.5s7.5,3.357,7.5,7.5
		v7.186C349.125,73.424,345.768,76.781,341.625,76.781z"/>
	<path style="fill:#5D6671;" d="M298.339,82.299c-6.542,0-12.763-2.833-17.067-7.771c-2.722-3.123-2.395-7.86,0.727-10.582
		c3.121-2.721,7.859-2.396,10.582,0.727c1.455,1.67,3.554,2.627,5.759,2.627c2.204,0,4.303-0.957,5.758-2.627
		c2.722-3.123,7.46-3.447,10.582-0.727c3.122,2.722,3.448,7.459,0.727,10.582C311.101,79.466,304.88,82.299,298.339,82.299z"/>
</g>
<rect x="116.22" y="155.43" style="fill:#8DB5EA;" width="279.56" height="23.09"/>
<g>
</g>
<g>
</g>
<g>
</g>
<g>
</g>
<g>
</g>
<g>
</g>
<g>
</g>
<g>
</g>
<g>
</g>
<g>
</g>
<g>
</g>
<g>
</g>
<g>
</g>
<g>
</g>
<g>
</g>
</svg>
