<?xml version="1.0" encoding="iso-8859-1"?>
<!-- Generator: Adobe Illustrator 19.0.0, SVG Export Plug-In . SVG Version: 6.00 Build 0)  -->
<svg version="1.1" id="Capa_1" xmlns="http://www.w3.org/2000/svg" xmlns:xlink="http://www.w3.org/1999/xlink" x="0px" y="0px"
	 viewBox="0 0 512.001 512.001" style="enable-background:new 0 0 512.001 512.001;" xml:space="preserve">
<path style="fill:#8DB5EA;" d="M328.769,107.552c-9.377,0-16.979-7.602-16.979-16.979V55.997c0-9.438-7.678-17.116-17.117-17.116
	h-77.348c-9.438,0-17.117,7.678-17.117,17.116v34.577c0,9.377-7.601,16.979-16.979,16.979c-9.377,0-16.978-7.602-16.978-16.979
	V55.997c0-28.162,22.911-51.073,51.074-51.073h77.348c28.162,0,51.073,22.911,51.073,51.073v34.577
	C345.747,99.95,338.146,107.552,328.769,107.552z"/>
<rect x="166.25" y="71.25" style="opacity:0.1;enable-background:new    ;" width="33.957" height="19.32"/>
<rect x="311.79" y="71.25" style="opacity:0.1;enable-background:new    ;" width="33.957" height="19.32"/>
<path style="fill:#C3E9F1;" d="M290.607,0h-69.214c-2.246,0-4.067,1.821-4.067,4.067v35.67c0,2.246,1.821,4.067,4.067,4.067h69.214
	c2.246,0,4.067-1.821,4.067-4.067V4.067C294.674,1.821,292.853,0,290.607,0z"/>
<path style="fill:#F0F1F1;" d="M352.808,90.574H159.192c-17.733,0-32.438,13.732-33.65,31.424l-23.576,344.264h308.068
	l-23.576-344.264C385.246,104.307,370.542,90.574,352.808,90.574z"/>
<path style="fill:#8DB5EA;" d="M432.447,466.263H79.553c-7.277,0-13.176,5.899-13.176,13.176v19.386
	c0,7.277,5.899,13.176,13.176,13.176h352.895c7.277,0,13.176-5.899,13.176-13.176v-19.386
	C445.623,472.162,439.724,466.263,432.447,466.263z"/>
<g>
	<ellipse style="fill:#F18290;" cx="189.7" cy="153.78" rx="24.462" ry="19.481"/>
	<ellipse style="fill:#F18290;" cx="322.3" cy="153.78" rx="24.462" ry="19.481"/>
</g>
<g>
	<path style="fill:#5D6671;" d="M215.603,140.078c-4.142,0-7.5-3.357-7.5-7.5c0-2.285-1.859-4.143-4.144-4.143
		s-4.144,1.858-4.144,4.143c0,4.143-3.358,7.5-7.5,7.5s-7.5-3.357-7.5-7.5c0-10.556,8.588-19.144,19.144-19.144
		s19.144,8.588,19.144,19.144C223.103,136.72,219.745,140.078,215.603,140.078z"/>
	<path style="fill:#5D6671;" d="M319.684,140.078c-4.142,0-7.5-3.357-7.5-7.5c0-2.285-1.859-4.143-4.144-4.143
		s-4.143,1.858-4.143,4.143c0,4.143-3.358,7.5-7.5,7.5s-7.5-3.357-7.5-7.5c0-10.556,8.588-19.144,19.143-19.144
		c10.556,0,19.144,8.588,19.144,19.144C327.184,136.72,323.826,140.078,319.684,140.078z"/>
	<path style="fill:#5D6671;" d="M256,159.314c-6.901,0-13.464-2.988-18.005-8.199c-2.721-3.123-2.396-7.86,0.727-10.582
		c3.123-2.721,7.861-2.396,10.582,0.727c1.691,1.941,4.132,3.055,6.697,3.055s5.005-1.113,6.697-3.055
		c2.721-3.123,7.459-3.447,10.582-0.727c3.123,2.722,3.448,7.459,0.727,10.582C269.464,156.326,262.901,159.314,256,159.314z"/>
</g>
<path style="opacity:0.1;enable-background:new    ;" d="M184.794,90.574h-25.602c-17.733,0-32.438,13.732-33.65,31.424
	l-23.576,344.264h101.993C160.822,381.988,174.818,187.322,184.794,90.574z"/>
<path style="opacity:0.1;enable-background:new    ;" d="M79.553,466.263c-7.277,0-13.176,5.899-13.176,13.176v19.385
	c0,7.277,5.899,13.176,13.176,13.176h126.844c-7.814-17.661-5.709-34.927-2.437-45.737H79.553z"/>
<g style="opacity:0.1;">
	<path d="M227.764,224.625c-1.989,0-3.897-0.79-5.303-2.197l-15.642-15.643c-2.929-2.929-2.929-7.677,0-10.607
		c2.929-2.928,7.678-2.929,10.606,0.001l10.339,10.339l10.339-10.339c2.929-2.93,7.678-2.929,10.607-0.001
		c2.929,2.93,2.929,7.678,0,10.607l-15.642,15.643C231.661,223.835,229.753,224.625,227.764,224.625z"/>
	<path d="M171.29,224.625c-1.989,0-3.897-0.79-5.303-2.197l-15.642-15.643c-2.929-2.929-2.929-7.677,0-10.607
		c2.929-2.928,7.678-2.929,10.607,0.001l10.339,10.339l10.339-10.339c2.929-2.93,7.678-2.929,10.606-0.001
		c2.929,2.93,2.929,7.678,0,10.607l-15.642,15.643C175.188,223.835,173.28,224.625,171.29,224.625z"/>
	<path d="M284.236,224.625c-1.989,0-3.897-0.79-5.303-2.197l-15.642-15.643c-2.929-2.929-2.929-7.677,0-10.607
		c2.929-2.928,7.678-2.929,10.606,0.001l10.339,10.339l10.339-10.339c2.929-2.93,7.678-2.929,10.606-0.001
		c2.929,2.93,2.929,7.678,0,10.607l-15.642,15.643C288.133,223.835,286.226,224.625,284.236,224.625z"/>
	<path d="M340.71,224.625c-1.989,0-3.897-0.79-5.303-2.197l-15.642-15.643c-2.929-2.929-2.929-7.677,0-10.607
		c2.929-2.928,7.678-2.929,10.606,0.001l10.339,10.339l10.339-10.339c2.929-2.93,7.678-2.929,10.606-0.001
		c2.929,2.93,2.929,7.678,0,10.607l-15.642,15.643C344.606,223.835,342.699,224.625,340.71,224.625z"/>
</g>
<g style="opacity:0.1;">
	<path d="M227.764,293.74c-1.989,0-3.897-0.79-5.303-2.197L206.818,275.9c-2.929-2.929-2.929-7.677,0-10.607
		c2.929-2.928,7.678-2.929,10.606,0.001l10.339,10.339l10.339-10.339c2.929-2.93,7.678-2.929,10.607-0.001
		c2.929,2.93,2.929,7.678,0,10.607l-15.642,15.643C231.661,292.95,229.753,293.74,227.764,293.74z"/>
	<path d="M171.29,293.74c-1.989,0-3.897-0.79-5.303-2.197L150.345,275.9c-2.929-2.929-2.929-7.677,0-10.607
		c2.929-2.928,7.678-2.929,10.607,0.001l10.339,10.339l10.339-10.339c2.929-2.93,7.678-2.929,10.606-0.001
		c2.929,2.93,2.929,7.678,0,10.607l-15.642,15.643C175.188,292.95,173.28,293.74,171.29,293.74z"/>
	<path d="M284.236,293.74c-1.989,0-3.897-0.79-5.303-2.197L263.291,275.9c-2.929-2.929-2.929-7.677,0-10.607
		c2.929-2.928,7.678-2.929,10.606,0.001l10.339,10.339l10.339-10.339c2.929-2.93,7.678-2.929,10.606-0.001
		c2.929,2.93,2.929,7.678,0,10.607l-15.642,15.643C288.133,292.95,286.226,293.74,284.236,293.74z"/>
	<path d="M340.71,293.74c-1.989,0-3.897-0.79-5.303-2.197L319.764,275.9c-2.929-2.929-2.929-7.677,0-10.607
		c2.929-2.928,7.678-2.929,10.606,0.001l10.339,10.339l10.339-10.339c2.929-2.93,7.678-2.929,10.606-0.001
		c2.929,2.93,2.929,7.678,0,10.607l-15.642,15.643C344.606,292.95,342.699,293.74,340.71,293.74z"/>
</g>
<g style="opacity:0.1;">
	<path d="M227.764,362.855c-1.989,0-3.897-0.79-5.303-2.197l-15.642-15.643c-2.929-2.929-2.929-7.677,0-10.606
		c2.929-2.928,7.678-2.929,10.606,0.001l10.339,10.339l10.339-10.339c2.929-2.93,7.678-2.929,10.607-0.001
		c2.929,2.93,2.929,7.678,0,10.606l-15.642,15.643C231.661,362.065,229.753,362.855,227.764,362.855z"/>
	<path d="M171.29,362.855c-1.989,0-3.897-0.79-5.303-2.197l-15.642-15.643c-2.929-2.929-2.929-7.677,0-10.606
		c2.929-2.928,7.678-2.929,10.607,0.001l10.339,10.339l10.339-10.339c2.929-2.93,7.678-2.929,10.606-0.001
		c2.929,2.93,2.929,7.678,0,10.606l-15.642,15.643C175.188,362.065,173.28,362.855,171.29,362.855z"/>
	<path d="M284.236,362.855c-1.989,0-3.897-0.79-5.303-2.197l-15.642-15.643c-2.929-2.929-2.929-7.677,0-10.606
		c2.929-2.928,7.678-2.929,10.606,0.001l10.339,10.339l10.339-10.339c2.929-2.93,7.678-2.929,10.606-0.001
		c2.929,2.93,2.929,7.678,0,10.606l-15.642,15.643C288.133,362.065,286.226,362.855,284.236,362.855z"/>
	<path d="M340.71,362.855c-1.989,0-3.897-0.79-5.303-2.197l-15.642-15.643c-2.929-2.929-2.929-7.677,0-10.606
		c2.929-2.928,7.678-2.929,10.606,0.001l10.339,10.339l10.339-10.339c2.929-2.93,7.678-2.929,10.606-0.001
		c2.929,2.93,2.929,7.678,0,10.606l-15.642,15.643C344.606,362.065,342.699,362.855,340.71,362.855z"/>
</g>
<g style="opacity:0.1;">
	<path d="M227.764,431.97c-1.989,0-3.897-0.79-5.303-2.197l-15.642-15.643c-2.929-2.929-2.929-7.677,0-10.607
		c2.929-2.928,7.678-2.929,10.606,0.001l10.339,10.339l10.339-10.339c2.929-2.93,7.678-2.929,10.607-0.001
		c2.929,2.93,2.929,7.678,0,10.607l-15.642,15.643C231.661,431.18,229.753,431.97,227.764,431.97z"/>
	<path d="M171.29,431.97c-1.989,0-3.897-0.79-5.303-2.197l-15.642-15.643c-2.929-2.929-2.929-7.677,0-10.607
		c2.929-2.928,7.678-2.929,10.607,0.001l10.339,10.339l10.339-10.339c2.929-2.93,7.678-2.929,10.606-0.001
		c2.929,2.93,2.929,7.678,0,10.607l-15.642,15.643C175.188,431.18,173.28,431.97,171.29,431.97z"/>
	<path d="M284.236,431.97c-1.989,0-3.897-0.79-5.303-2.197l-15.642-15.643c-2.929-2.929-2.929-7.677,0-10.607
		c2.929-2.928,7.678-2.929,10.606,0.001l10.339,10.339l10.339-10.339c2.929-2.93,7.678-2.929,10.606-0.001
		c2.929,2.93,2.929,7.678,0,10.607l-15.642,15.643C288.133,431.18,286.226,431.97,284.236,431.97z"/>
	<path d="M340.71,431.97c-1.989,0-3.897-0.79-5.303-2.197l-15.642-15.643c-2.929-2.929-2.929-7.677,0-10.607
		c2.929-2.928,7.678-2.929,10.606,0.001l10.339,10.339l10.339-10.339c2.929-2.93,7.678-2.929,10.606-0.001
		c2.929,2.93,2.929,7.678,0,10.607l-15.642,15.643C344.606,431.18,342.699,431.97,340.71,431.97z"/>
</g>
<g>
</g>
<g>
</g>
<g>
</g>
<g>
</g>
<g>
</g>
<g>
</g>
<g>
</g>
<g>
</g>
<g>
</g>
<g>
</g>
<g>
</g>
<g>
</g>
<g>
</g>
<g>
</g>
<g>
</g>
</svg>
