<?xml version="1.0" encoding="iso-8859-1"?>
<!-- Generator: Adobe Illustrator 19.0.0, SVG Export Plug-In . SVG Version: 6.00 Build 0)  -->
<svg version="1.1" id="Capa_1" xmlns="http://www.w3.org/2000/svg" xmlns:xlink="http://www.w3.org/1999/xlink" x="0px" y="0px"
	 viewBox="0 0 512 512" style="enable-background:new 0 0 512 512;" xml:space="preserve">
<path style="fill:#D6D8DB;" d="M393.503,139.542l-20.661-20.661c-4.303-4.303-10.625-5.889-16.45-4.128l-37.589,11.369
	l67.459,67.459l11.369-37.589C399.393,150.167,397.806,143.845,393.503,139.542z"/>
<path style="opacity:0.1;enable-background:new    ;" d="M386.262,193.581l11.369-37.589c1.762-5.825,0.175-12.147-4.128-16.45
	l-20.661-20.661c-4.303-4.303-10.625-5.889-16.45-4.128l-37.589,11.369L386.262,193.581z"/>
<path style="fill:#F18290;" d="M39.979,492.054L20.33,472.405c-26.594-26.594-26.594-69.712,0-96.307l181.203-181.203
	c7.077-7.077,18.552-7.077,25.63,0l90.326,90.326c7.077,7.077,7.077,18.552,0,25.63L136.285,492.054
	C109.691,518.649,66.573,518.649,39.979,492.054z"/>
<path style="fill:#D6D8DB;" d="M511.616,152.112L511.616,152.112c0-14.902-5.92-29.194-16.457-39.731L397.508,14.73
	C387.49,4.713,373.712-0.615,359.561,0.057l0,0c-28.667,1.361-52.244,23.056-55.979,51.511l-8.378,63.827
	c-1.924,14.66-8.635,28.275-19.09,38.73l-44.86,44.86l81.435,81.435l44.86-44.86c10.455-10.455,24.07-17.166,38.73-19.09
	l66.54-8.734C490.739,204.07,511.616,180.273,511.616,152.112z M424.491,164.088l-29.072,3.816
	c-8.446,1.109-16.927-1.772-22.951-7.796l-20.904-20.904c-6.024-6.023-8.904-14.505-7.796-22.951l3.816-29.072
	c1.835-13.981,13.42-24.641,27.505-25.309c6.953-0.33,13.723,2.288,18.645,7.21l48.856,48.856c4.922,4.922,7.54,11.692,7.21,18.645
	l0,0C449.132,150.669,438.472,162.253,424.491,164.088z"/>
<path style="fill:#F8D662;" d="M109.278,403.106c-21.426-21.426-42.463-39.047-63.76-52.196L20.33,376.099
	c-26.594,26.594-26.594,69.712,0,96.307l19.649,19.649c26.594,26.594,69.712,26.594,96.307,0l25.189-25.189
	C148.325,445.569,130.704,424.532,109.278,403.106z"/>
<path style="opacity:0.1;enable-background:new    ;" d="M116.097,280.331L20.33,376.099c-26.594,26.594-26.594,69.712,0,96.307
	l19.649,19.649c26.594,26.594,69.712,26.594,96.306,0l16.535-16.535C74.263,455.169,95.263,354.935,116.097,280.331z"/>
<g>
	
		<ellipse transform="matrix(-0.7071 -0.7071 0.7071 -0.7071 -9.6391 752.8485)" style="fill:#FFFFFF;" cx="151.1" cy="378.421" rx="19.284" ry="24.22"/>
	
		<ellipse transform="matrix(0.7071 0.7071 -0.7071 0.7071 273.3995 -88.8235)" style="fill:#FFFFFF;" cx="243.919" cy="285.611" rx="19.284" ry="24.22"/>
</g>
<g>
	<path style="fill:#5D6671;" d="M137.868,366.959c-1.919,0-3.839-0.732-5.303-2.196l-7.35-7.35c-2.929-2.93-2.929-7.678,0-10.607
		c2.929-2.928,7.678-2.928,10.606,0l7.35,7.35c2.929,2.93,2.929,7.678,0,10.607C141.707,366.227,139.788,366.959,137.868,366.959z"
		/>
	<path style="fill:#5D6671;" d="M199.442,333.944L199.442,333.944c-6.852,6.852-17.96,6.852-24.812,0l-9.019-9.019
		c-1.87-1.87-1.87-4.903,0-6.773l18.039-18.038c1.87-1.87,4.903-1.87,6.773,0l9.019,9.019
		C206.294,315.984,206.294,327.093,199.442,333.944z"/>
	<path style="fill:#5D6671;" d="M224.957,279.87c-1.919,0-3.839-0.732-5.303-2.196l-7.35-7.35c-2.929-2.93-2.929-7.678,0-10.607
		c2.929-2.928,7.678-2.928,10.606,0l7.35,7.35c2.929,2.93,2.929,7.678,0,10.607C228.796,279.138,226.877,279.87,224.957,279.87z"/>
</g>
<path style="opacity:0.1;enable-background:new    ;" d="M312.687,280.42l15.796-15.796c-38.568-31.571-43.435-61.817-30.629-83.33
	c39.678-66.66,17.952-132.696,36.905-174.485c-16.599,8.744-28.603,25.144-31.177,44.759l-8.378,63.827
	c-1.924,14.66-8.635,28.275-19.09,38.73l-44.86,44.86L312.687,280.42z"/>
<g>
</g>
<g>
</g>
<g>
</g>
<g>
</g>
<g>
</g>
<g>
</g>
<g>
</g>
<g>
</g>
<g>
</g>
<g>
</g>
<g>
</g>
<g>
</g>
<g>
</g>
<g>
</g>
<g>
</g>
</svg>
