<?xml version="1.0" encoding="iso-8859-1"?>
<!-- Generator: Adobe Illustrator 19.0.0, SVG Export Plug-In . SVG Version: 6.00 Build 0)  -->
<svg version="1.1" id="Capa_1" xmlns="http://www.w3.org/2000/svg" xmlns:xlink="http://www.w3.org/1999/xlink" x="0px" y="0px"
	 viewBox="0 0 512 512" style="enable-background:new 0 0 512 512;" xml:space="preserve">
<path style="fill:#BA8E79;" d="M497.523,199.212L312.788,14.478c-19.303-19.303-50.6-19.303-69.903,0L21.651,235.711
	c-19.303,19.303-19.303,50.6,0,69.903l36.013,36.013c9.335,9.335,8.174,24.789-2.451,32.624l-30.219,22.284
	C7.606,409.357-1.776,430.363,0.28,451.868l0,0c3.032,31.715,28.137,56.82,59.852,59.852l0,0
	c21.505,2.056,42.511-7.326,55.333-24.713l22.284-30.219c7.835-10.625,23.289-11.786,32.624-2.452l36.013,36.013
	c19.303,19.303,50.6,19.303,69.903,0l221.234-221.234C516.826,249.812,516.826,218.516,497.523,199.212z M46.549,465.451
	c-10.183-10.183-10.184-26.694,0-36.877c10.183-10.183,26.694-10.183,36.877,0s10.183,26.694,0,36.877
	C73.243,475.635,56.732,475.635,46.549,465.451z"/>
<path style="opacity:0.1;enable-background:new    ;" d="M251.819,138.178c7.086,5.14,14.454,7.727,21.975,7.727
	c1.933,0,3.876-0.171,5.827-0.513c23.397-4.107,39.094-26.494,55.714-50.195c8.127-11.59,16.383-23.348,25.531-32.642
	l-10.604-10.604c-10.13,10.299-18.909,22.799-27.208,34.635c-14.784,21.084-28.749,41-46.025,44.032
	c-5.46,0.96-10.828-0.539-16.4-4.581c-19.22-13.941-34.459-53.056-43.729-85.572L204.822,52.54
	C214.716,85.063,230.413,122.65,251.819,138.178z M132.314,261.038c15.227-30.425,11.229-60.791-10.433-79.246
	c-8.75-7.456-19.837-12.276-32.167-14.144L75.54,181.822c14.422-0.492,27.368,3.51,36.613,11.388
	c16.389,13.963,18.911,36.81,6.747,61.115c-9.563,19.108-24.22,31.223-43.563,36.006c-21.054,5.206-45.128,1.19-66.54-7.123
	c1.775,6.789,5.011,13.273,9.718,18.952c12.138,3.419,24.724,5.447,37.04,5.447c7.974,0,15.834-0.848,23.383-2.715
	C102.738,299.007,120.696,284.252,132.314,261.038z M449.277,227.421c-44.077-7.593-78.977,3.519-103.725,33.028
	c-32.891,39.219-24.6,75.379-17.287,107.283c5.741,25.043,10.864,47.48-0.624,71.264l21.439-21.439
	c1.811-18.239-2.224-35.859-6.194-53.176c-7.167-31.263-13.936-60.792,14.16-94.293c40.543-48.347,105.893-27.937,147.11-9.207
	c2.758-4.284,4.784-8.898,6.085-13.672C493.152,239.488,471.586,231.264,449.277,227.421z M436.557,138.247
	c-79.678,7.982-126.908,44.161-153.309,75.253c-39.404,46.403-56.586,110.531-45.959,171.542
	c9.248,53.102-10.365,79.891-35.392,100.82l4.489,4.489c2.123,2.123,4.398,3.999,6.779,5.655
	c9.675-8.234,18.694-17.477,25.929-28.88c14.634-23.063,18.877-50.754,12.972-84.657c-9.871-56.674,6.06-116.21,42.615-159.258
	c25.872-30.467,73.416-66.137,155.831-71.006L436.557,138.247z M204.092,159.325c-16.185-22.713-39.445-37.582-64.551-41.505
	l-13.957,13.957c2.177-0.016,4.355,0.061,6.531,0.242c23.038,1.919,44.82,15.045,59.762,36.011
	c11.446,16.063,18.129,39.76,18.334,65.015c0.221,27.245-7.149,53.057-20.752,72.683c-12.608,18.191-30.027,30.671-51.774,37.097
	c-22.264,6.577-48.693,6.652-78.711,0.247c3.918,4.684,5.505,10.578,4.867,16.239c12.915,2.33,25.236,3.502,36.914,3.502
	c14.779,0,28.535-1.867,41.18-5.603c25.109-7.418,45.247-21.865,59.852-42.937c15.351-22.147,23.669-51.037,23.423-81.349
	C224.981,204.663,217.285,177.838,204.092,159.325z"/>
<path style="opacity:0.1;enable-background:new    ;" d="M181.875,75.487L21.651,235.711c-19.303,19.303-19.303,50.6,0,69.903
	l36.013,36.013c9.335,9.335,8.174,24.789-2.451,32.624l-30.219,22.284C7.606,409.357-1.776,430.363,0.28,451.868l0,0
	c3.032,31.715,28.137,56.82,59.852,59.852l0,0c21.505,2.056,42.511-7.326,55.333-24.713l22.284-30.219
	c7.835-10.625,23.289-11.786,32.624-2.452l36.013,36.013c19.303,19.303,50.6,19.303,69.903,0l102.176-102.176
	C282.39,363.253,193.255,200.792,181.875,75.487z M83.426,465.451c-10.183,10.183-26.694,10.183-36.877,0s-10.183-26.694,0-36.877
	s26.694-10.183,36.877,0S93.609,455.268,83.426,465.451z"/>
<path style="fill:#D6D8DB;" d="M299.263,437.578L143.69,282.004c-13.707-13.707-13.707-35.931,0-49.638l68.692-68.691
	l106.221,106.221c34.047,34.047,64.865,71.176,92.059,110.911l33.293,48.645c13.003,19,1.715,45.062-21.039,48.573l0,0
	C377.608,485.018,331.68,469.994,299.263,437.578z"/>
<path style="fill:#F0F1F1;" d="M143.69,282.004l155.573,155.573c32.417,32.417,78.344,47.44,123.652,40.448l0,0
	c21.076-3.253,32.299-25.848,23.51-44.263c-68.231,18.715-107.124-5.785-130.759-29.42
	C288.645,377.321,143.69,232.367,143.69,232.367C129.983,246.074,129.983,268.297,143.69,282.004z"/>
<path style="fill:#8DB5EA;" d="M91.669,42.962l120.713,120.713l-68.692,68.691L22.977,111.654
	c-18.969-18.969-18.969-49.723,0-68.691l0,0C41.946,23.993,72.7,23.993,91.669,42.962z"/>
<path style="opacity:0.1;enable-background:new    ;" d="M154.917,106.211L91.669,42.962c-18.969-18.969-49.723-18.969-68.692,0l0,0
	c-18.969,18.969-18.969,49.723,0,68.692l45.524,45.524C72.315,121.119,116.16,108.262,154.917,106.211z"/>
<circle style="fill:#F0F1F1;" cx="57.32" cy="77.31" r="16.486"/>
<path style="opacity:0.1;enable-background:new    ;" d="M276.765,228.058l-64.383-64.383l-68.691,68.691
	c-13.707,13.707-13.707,35.931,0,49.638l13.548,13.548C189.812,263.745,233.109,229.426,276.765,228.058z"/>
<g>
</g>
<g>
</g>
<g>
</g>
<g>
</g>
<g>
</g>
<g>
</g>
<g>
</g>
<g>
</g>
<g>
</g>
<g>
</g>
<g>
</g>
<g>
</g>
<g>
</g>
<g>
</g>
<g>
</g>
</svg>
