<?xml version="1.0" encoding="iso-8859-1"?>
<!-- Generator: Adobe Illustrator 19.0.0, SVG Export Plug-In . SVG Version: 6.00 Build 0)  -->
<svg version="1.1" id="Capa_1" xmlns="http://www.w3.org/2000/svg" xmlns:xlink="http://www.w3.org/1999/xlink" x="0px" y="0px"
	 viewBox="0 0 512 512" style="enable-background:new 0 0 512 512;" xml:space="preserve">
<path style="fill:#F8D9B9;" d="M435.323,103.183c-7.354-0.509-14.43,0.391-20.995,2.447c-5.627,1.762-11.728,0.424-16.019-3.62
	c-14.027-13.221-32.929-21.327-53.726-21.327c-23.143,0-43.931,10.043-58.27,26.001c-4.487,4.993-11.581,6.891-17.815,4.399
	c-7.273-2.907-15.286-4.357-23.681-3.982c-29.191,1.305-52.899,24.993-54.219,54.183c-1.475,32.617,24.532,59.524,56.823,59.524
	c13.656,0,26.184-4.816,35.989-12.837c14.359,17.927,36.418,29.419,61.173,29.419c23.846,0,45.189-10.666,59.56-27.472
	c8.07,4.393,17.322,6.891,27.157,6.891c32.26,0,58.247-26.854,56.828-59.427C486.878,128.689,463.975,105.166,435.323,103.183z"/>
<path style="opacity:0.05;enable-background:new    ;" d="M370.721,232.913c-64.549-21.9-73.436-113.942-55.802-146.405
	c-11.013,4.514-20.772,11.46-28.605,20.176c-4.487,4.993-11.581,6.891-17.815,4.399c-7.273-2.907-15.286-4.357-23.681-3.982
	c-29.191,1.305-52.898,24.993-54.219,54.183c-1.475,32.617,24.532,59.524,56.823,59.524c13.656,0,26.184-4.816,35.989-12.837
	c14.359,17.927,36.418,29.419,61.173,29.419C353.752,237.391,362.547,235.809,370.721,232.913z"/>
<g style="opacity:0.05;">
	<circle cx="240.25" cy="132.969" r="7.529"/>
	<circle cx="369.54" cy="107.899" r="7.529"/>
	<circle cx="310.71" cy="128.669" r="7.529"/>
	<circle cx="429.47" cy="132.969" r="7.529"/>
</g>
<rect x="98.69" y="151.999" style="fill:#C1C6CA;" width="99.16" height="42.77"/>
<path style="fill:#8DB5EA;" d="M76.537,222.65H35.325C15.815,222.65,0,206.835,0,187.326l0,0c0-19.509,15.815-35.324,35.325-35.324
	h84.69l-9.803,43.693C106.676,211.451,92.686,222.65,76.537,222.65z"/>
<path style="opacity:0.1;enable-background:new    ;" d="M35.325,152.001C15.815,152.001,0,167.816,0,187.326l0,0
	c0,19.509,15.815,35.325,35.325,35.325h17.151c-21.945-20.634-15.681-56.549-5.41-70.649L35.325,152.001L35.325,152.001z"/>
<path style="opacity:0.1;enable-background:new    ;" d="M197.848,194.771v-42.77h-45.579c0,14.772,1.89,29.1,5.417,42.77H197.848z"
	/>
<path style="fill:#C3E9F1;" d="M171.168,152.001c0,94.319,76.461,170.78,170.78,170.78c88.711,0,161.624-67.639,169.981-154.158
	c0.862-8.919-6.216-16.622-15.177-16.622L171.168,152.001L171.168,152.001z"/>
<g style="opacity:0.2;">
	<g>
		<circle cx="341.58" cy="180.319" r="7.529"/>
		<circle cx="298.64" cy="180.319" r="7.529"/>
		<circle cx="255.7" cy="180.319" r="7.529"/>
		<circle cx="212.76" cy="180.319" r="7.529"/>
		<circle cx="384.53" cy="180.319" r="7.529"/>
		<circle cx="427.47" cy="180.319" r="7.529"/>
		<circle cx="470.41" cy="180.319" r="7.529"/>
	</g>
	<g>
		<circle cx="320.11" cy="218.539" r="7.529"/>
		<circle cx="277.17" cy="218.539" r="7.529"/>
		<circle cx="234.23" cy="218.539" r="7.529"/>
		<circle cx="363.06" cy="218.539" r="7.529"/>
		<circle cx="406" cy="218.539" r="7.529"/>
		<circle cx="448.94" cy="218.539" r="7.529"/>
	</g>
	<g>
		<circle cx="341.58" cy="256.769" r="7.529"/>
		<circle cx="298.64" cy="256.769" r="7.529"/>
		<circle cx="255.7" cy="256.769" r="7.529"/>
		<circle cx="384.53" cy="256.769" r="7.529"/>
		<circle cx="427.47" cy="256.769" r="7.529"/>
	</g>
	<g>
		<circle cx="320.11" cy="294.999" r="7.529"/>
		<circle cx="363.06" cy="294.999" r="7.529"/>
	</g>
</g>
<path style="opacity:0.1;enable-background:new    ;" d="M341.948,322.78c12.352,0,24.397-1.315,36.005-3.806
	c-73.033-19.492-120.14-97.924-122.779-166.973h-84.005C171.169,246.32,247.629,322.78,341.948,322.78z"/>
<g>
	<circle style="fill:#F8D9B9;" cx="219.17" cy="332.839" r="7.529"/>
	<circle style="fill:#F8D9B9;" cx="251.97" cy="359.449" r="7.529"/>
	<circle style="fill:#F8D9B9;" cx="326.98" cy="359.449" r="7.529"/>
	<circle style="fill:#F8D9B9;" cx="316.45" cy="423.789" r="7.529"/>
	<circle style="fill:#F8D9B9;" cx="284.7" cy="390.729" r="7.529"/>
	<circle style="fill:#F8D9B9;" cx="413.52" cy="416.259" r="7.529"/>
	<circle style="fill:#F8D9B9;" cx="360.99" cy="387.309" r="7.529"/>
	<circle style="fill:#F8D9B9;" cx="403.68" cy="359.449" r="7.529"/>
	<circle style="fill:#F8D9B9;" cx="458.99" cy="379.789" r="7.529"/>
	<circle style="fill:#F8D9B9;" cx="446.6" cy="334.509" r="7.529"/>
</g>
<g>
</g>
<g>
</g>
<g>
</g>
<g>
</g>
<g>
</g>
<g>
</g>
<g>
</g>
<g>
</g>
<g>
</g>
<g>
</g>
<g>
</g>
<g>
</g>
<g>
</g>
<g>
</g>
<g>
</g>
</svg>
