<?xml version="1.0" encoding="iso-8859-1"?>
<!-- Generator: Adobe Illustrator 19.0.0, SVG Export Plug-In . SVG Version: 6.00 Build 0)  -->
<svg version="1.1" id="Capa_1" xmlns="http://www.w3.org/2000/svg" xmlns:xlink="http://www.w3.org/1999/xlink" x="0px" y="0px"
	 viewBox="0 0 512 512" style="enable-background:new 0 0 512 512;" xml:space="preserve">
<path style="fill:#F0F1F1;" d="M504.925,134.558L504.925,134.558c-9.433-9.433-24.727-9.433-34.16,0l-65.748,65.748
	c-8.169,8.169-21.413,8.169-29.581,0l0,0c-8.169-8.169-8.169-21.413,0-29.581l65.748-65.748c9.433-9.433,9.433-24.727,0-34.16l0,0
	c-9.433-9.433-24.727-9.433-34.16,0l-65.748,65.748c-8.169,8.169-21.413,8.169-29.581,0l0,0c-8.169-8.169-8.169-21.413,0-29.581
	l65.748-65.748c9.433-9.433,9.433-24.727,0-34.16l0,0c-9.433-9.433-24.727-9.433-34.16,0L229.036,121.319
	c-30.449,30.449-40.822,75.62-26.706,116.302l0,0c2.236,6.444,0.456,13.601-4.538,18.247L12.348,428.372
	c-16.059,14.939-16.516,40.222-1.007,55.731l16.555,16.555c15.509,15.509,40.792,15.052,55.731-1.007l172.504-185.443
	c4.646-4.994,11.803-6.774,18.247-4.538l0,0c40.682,14.116,85.853,3.743,116.303-26.706l114.245-114.245
	C514.358,159.285,514.358,143.991,504.925,134.558z"/>
<path style="fill:#7CD9D2;" d="M83.627,499.651l93.646-100.67c-13.852-6.108-26.879-14.778-38.177-26.077
	c-11.299-11.299-19.969-24.326-26.077-38.177l-100.67,93.646c-16.059,14.939-16.516,40.222-1.007,55.731l16.555,16.555
	C43.405,516.167,68.688,515.71,83.627,499.651z"/>
<circle style="fill:#F0F1F1;" cx="64.904" cy="447.099" r="18.46"/>
<g>
	
		<ellipse transform="matrix(0.7071 -0.7071 0.7071 0.7071 -46.0438 222.26)" style="fill:#F18290;" cx="245.27" cy="166.71" rx="20.781" ry="26.09"/>
	
		<ellipse transform="matrix(-0.7071 0.7071 -0.7071 -0.7071 778.0532 211.1786)" style="fill:#F18290;" cx="345.29" cy="266.729" rx="20.781" ry="26.09"/>
</g>
<g>
	<path style="fill:#5D6671;" d="M270.684,170.307c-1.919,0-3.839-0.732-5.304-2.197c-2.929-2.929-2.929-7.678,0-10.606l6.516-6.516
		c2.93-2.929,7.678-2.929,10.607,0s2.929,7.678,0,10.606l-6.516,6.516C274.522,169.574,272.602,170.307,270.684,170.307z"/>
	<path style="fill:#5D6671;" d="M349.192,248.815c-1.919,0-3.839-0.732-5.304-2.197c-2.929-2.929-2.929-7.678,0-10.606l6.516-6.516
		c2.93-2.929,7.678-2.929,10.607,0s2.929,7.678,0,10.606l-6.516,6.516C353.031,248.083,351.111,248.815,349.192,248.815z"/>
	<path style="fill:#5D6671;" d="M318.661,220.245c-7.118,0.001-13.968-2.815-19.03-7.876c-5.499-5.499-8.347-13.11-7.814-20.881
		c0.283-4.133,3.879-7.257,7.996-6.969c4.133,0.284,7.253,3.864,6.969,7.996c-0.236,3.445,1.022,6.815,3.455,9.247
		c2.433,2.432,5.807,3.692,9.247,3.455c4.129-0.284,7.713,2.836,7.996,6.969c0.284,4.132-2.836,7.712-6.969,7.996
		C319.894,220.224,319.275,220.245,318.661,220.245z"/>
</g>
<path style="opacity:0.1;enable-background:new    ;" d="M229.036,121.319c-30.449,30.449-40.822,75.62-26.706,116.302l0,0
	c2.236,6.444,0.456,13.601-4.538,18.247L12.348,428.372c-16.059,14.939-16.516,40.222-1.007,55.731l16.555,16.555
	c15.509,15.509,40.792,15.052,55.731-1.007l60.725-65.279c-24.222,8.106-36.749-14.096-5.837-44.236
	c81.765-79.722,106.602-109.078,98.597-164.654c-5.891-40.899,0.296-90.556,31.993-144.232L229.036,121.319z"/>
<g>
</g>
<g>
</g>
<g>
</g>
<g>
</g>
<g>
</g>
<g>
</g>
<g>
</g>
<g>
</g>
<g>
</g>
<g>
</g>
<g>
</g>
<g>
</g>
<g>
</g>
<g>
</g>
<g>
</g>
</svg>
