<?xml version="1.0" encoding="iso-8859-1"?>
<!-- Generator: Adobe Illustrator 19.0.0, SVG Export Plug-In . SVG Version: 6.00 Build 0)  -->
<svg version="1.1" id="Capa_1" xmlns="http://www.w3.org/2000/svg" xmlns:xlink="http://www.w3.org/1999/xlink" x="0px" y="0px"
	 viewBox="0 0 512 512" style="enable-background:new 0 0 512 512;" xml:space="preserve">
<path style="fill:#C1C6CA;" d="M332.223,59.672H179.777c-6.852,0-12.407,5.555-12.407,12.407v49.731h177.26V72.079
	C344.63,65.227,339.076,59.672,332.223,59.672z"/>
<path style="opacity:0.1;enable-background:new    ;" d="M202.793,59.672h-23.016c-6.852,0-12.407,5.555-12.407,12.407v49.731h38.49
	C198.942,102.056,198.532,78.772,202.793,59.672z"/>
<path style="fill:#F0F1F1;" d="M401.012,121.81H110.988c-8.148,0-15.811,3.878-20.636,10.444L10.453,240.968
	C3.662,250.208,0,261.375,0,272.842v39.151c0,9.772,7.922,17.694,17.694,17.694h476.612c9.772,0,17.694-7.922,17.694-17.694v-39.151
	c0-11.467-3.662-22.634-10.453-31.874l-79.899-108.714C416.823,125.688,409.16,121.81,401.012,121.81z"/>
<g style="opacity:0.1;">
	<path d="M156.177,267.949c-0.675,0-1.36-0.092-2.041-0.284c-3.986-1.125-6.306-5.269-5.18-9.255l21.104-74.748
		c1.125-3.987,5.27-6.306,9.255-5.18c3.986,1.125,6.306,5.269,5.18,9.255l-21.104,74.748
		C162.458,265.79,159.45,267.949,156.177,267.949z"/>
	<path d="M355.823,267.949c-3.273,0-6.281-2.159-7.214-5.464l-21.103-74.748c-1.126-3.986,1.194-8.13,5.18-9.255
		s8.13,1.194,9.255,5.18l21.103,74.748c1.126,3.986-1.194,8.13-5.18,9.255C357.183,267.857,356.498,267.949,355.823,267.949z"/>
</g>
<path style="fill:#5D6671;" d="M0,272.842v39.151c0,9.772,7.922,17.694,17.694,17.694h476.612c9.772,0,17.694-7.922,17.694-17.694
	v-39.151c0-6.048-1.029-12.009-2.988-17.651H2.988C1.028,260.833,0,266.794,0,272.842z"/>
<g>
	<path style="fill:#C1C6CA;" d="M182.76,452.328c-1.919,0-3.839-0.732-5.303-2.197c-2.929-2.929-2.929-7.678,0-10.607
		c3.043-3.044,4.72-7.091,4.72-11.396c0-4.304-1.676-8.351-4.72-11.395c-5.877-5.877-9.114-13.691-9.114-22.002
		c0-8.312,3.237-16.126,9.114-22.002c2.929-2.929,7.678-2.929,10.606,0c2.929,2.929,2.929,7.678,0,10.606
		c-3.044,3.044-4.72,7.091-4.72,11.396c0,4.304,1.676,8.351,4.72,11.395c12.132,12.132,12.132,31.872,0,44.004
		C186.599,451.595,184.68,452.328,182.76,452.328z"/>
	<path style="fill:#C1C6CA;" d="M256,452.328c-1.919,0-3.839-0.732-5.303-2.197c-2.929-2.929-2.929-7.678,0-10.607
		c3.044-3.044,4.72-7.091,4.72-11.396c0-4.304-1.676-8.351-4.72-11.395c-5.877-5.877-9.114-13.691-9.114-22.002
		c0-8.312,3.237-16.126,9.114-22.002c2.929-2.929,7.678-2.929,10.606,0c2.929,2.929,2.929,7.678,0,10.606
		c-3.044,3.044-4.72,7.091-4.72,11.396c0,4.304,1.676,8.351,4.72,11.395c5.877,5.877,9.114,13.691,9.114,22.002
		c0,8.312-3.237,16.126-9.114,22.002C259.839,451.595,257.919,452.328,256,452.328z"/>
	<path style="fill:#C1C6CA;" d="M329.24,452.328c-1.919,0-3.839-0.732-5.303-2.197c-2.929-2.929-2.929-7.678,0-10.607
		c3.044-3.044,4.72-7.091,4.72-11.396c0-4.304-1.676-8.351-4.72-11.395c-12.132-12.132-12.132-31.873,0-44.004
		c2.929-2.929,7.678-2.929,10.607,0s2.929,7.678,0,10.606c-6.283,6.283-6.283,16.507,0,22.791
		c5.877,5.877,9.114,13.691,9.114,22.002c0,8.312-3.237,16.126-9.114,22.002C333.079,451.595,331.159,452.328,329.24,452.328z"/>
</g>
<path style="fill:#7CD9D2;" d="M459.282,299.939h-35.899c-4.142,0-7.5-3.358-7.5-7.5s3.358-7.5,7.5-7.5h35.899
	c4.142,0,7.5,3.358,7.5,7.5S463.424,299.939,459.282,299.939z"/>
<circle style="fill:#F18290;" cx="362.8" cy="292.44" r="7.523"/>
<circle style="fill:#FFFFFF;" cx="391.13" cy="292.44" r="7.523"/>
<path style="opacity:0.1;enable-background:new    ;" d="M177.454,121.81h-66.466c-8.148,0-15.811,3.878-20.636,10.444
	L10.453,240.968C3.662,250.208,0,261.375,0,272.842v39.151c0,9.772,7.922,17.694,17.694,17.694h124.32
	C115.727,239.085,152.061,156.425,177.454,121.81z"/>
<g>
</g>
<g>
</g>
<g>
</g>
<g>
</g>
<g>
</g>
<g>
</g>
<g>
</g>
<g>
</g>
<g>
</g>
<g>
</g>
<g>
</g>
<g>
</g>
<g>
</g>
<g>
</g>
<g>
</g>
</svg>
