<?xml version="1.0" encoding="iso-8859-1"?>
<!-- Generator: Adobe Illustrator 19.0.0, SVG Export Plug-In . SVG Version: 6.00 Build 0)  -->
<svg version="1.1" id="Capa_1" xmlns="http://www.w3.org/2000/svg" xmlns:xlink="http://www.w3.org/1999/xlink" x="0px" y="0px"
	 viewBox="0 0 512 512" style="enable-background:new 0 0 512 512;" xml:space="preserve">
<rect x="209.86" y="109.43" style="fill:#5D6671;" width="92.28" height="67.08"/>
<rect x="209.86" y="109.43" style="opacity:0.1;enable-background:new    ;" width="92.28" height="24.623"/>
<path style="fill:#C3E9F1;" d="M440.424,109.428H71.576c-32.158,0-59.656-23.128-65.168-54.81L0.247,19.203
	C-1.497,9.177,6.221,0,16.398,0h479.204c10.177,0,17.895,9.176,16.151,19.203l-6.161,35.415
	C500.081,86.3,472.582,109.428,440.424,109.428z"/>
<path style="fill:#7CD9D2;" d="M495.602,0H16.398C6.221,0-1.497,9.177,0.247,19.203l2.567,14.758h506.371l2.568-14.758
	C513.497,9.177,505.779,0,495.602,0z"/>
<path style="opacity:0.1;enable-background:new    ;" d="M0.247,19.203l6.161,35.415c5.511,31.682,33.01,54.81,65.168,54.81h98.908
	C132.427,79.579,125.099,29.306,123.732,0H16.398C6.221,0-1.497,9.177,0.247,19.203z"/>
<path style="fill:#7CD9D2;" d="M368.935,176.512h-225.87c-23.496,0-43.411,17.288-46.713,40.55l-38.059,268.13
	C56.284,499.346,67.269,512,81.565,512h348.87c14.295,0,25.281-12.655,23.272-26.808l-38.059-268.13
	C412.346,193.8,392.431,176.512,368.935,176.512z"/>
<path style="opacity:0.1;enable-background:new    ;" d="M58.293,485.192C56.284,499.346,67.269,512,81.565,512h348.87
	c14.295,0,25.281-12.655,23.272-26.808l-5.808-40.922H64.102L58.293,485.192z"/>
<path style="fill:#C3E9F1;" d="M377.643,352.55c0,67.325-54.694,121.875-122.073,121.642
	c-67.229-0.233-121.212-55.733-121.212-122.962v-85.8c0-21.997,17.833-39.83,39.83-39.83h163.625c21.997,0,39.83,17.833,39.83,39.83
	V352.55z"/>
<circle style="fill:#FFFFFF;" cx="256" cy="352.55" r="91.72"/>
<g>
	<path style="fill:#5D6671;" d="M256,296.497c-4.142,0-7.5-3.358-7.5-7.5v-3.883c0-4.142,3.358-7.5,7.5-7.5
		c4.142,0,7.5,3.358,7.5,7.5v3.883C263.5,293.139,260.142,296.497,256,296.497z"/>
	<path style="fill:#5D6671;" d="M300.939,315.111c-1.919,0-3.838-0.732-5.303-2.196c-2.929-2.929-2.93-7.677-0.001-10.607
		l2.745-2.746c2.929-2.93,7.678-2.93,10.606-0.001c2.929,2.929,2.93,7.677,0.001,10.607l-2.745,2.746
		C304.778,314.378,302.858,315.111,300.939,315.111z"/>
	<path style="fill:#5D6671;" d="M323.436,360.049h-3.882c-4.142,0-7.5-3.358-7.5-7.5s3.358-7.5,7.5-7.5h3.882
		c4.142,0,7.5,3.358,7.5,7.5S327.578,360.049,323.436,360.049z"/>
	<path style="fill:#5D6671;" d="M303.684,407.733c-1.919,0-3.839-0.732-5.303-2.197l-2.745-2.745c-2.929-2.929-2.929-7.678,0-10.606
		c2.929-2.929,7.678-2.929,10.607,0l2.745,2.745c2.929,2.929,2.929,7.678,0,10.606C307.523,407.001,305.604,407.733,303.684,407.733
		z"/>
	<path style="fill:#5D6671;" d="M256,427.485c-4.142,0-7.5-3.358-7.5-7.5v-3.882c0-4.142,3.358-7.5,7.5-7.5
		c4.142,0,7.5,3.358,7.5,7.5v3.882C263.5,424.127,260.142,427.485,256,427.485z"/>
	<path style="fill:#5D6671;" d="M208.316,407.733c-1.919,0-3.839-0.732-5.303-2.197c-2.929-2.929-2.929-7.678,0-10.606l2.745-2.745
		c2.929-2.929,7.678-2.929,10.606,0c2.929,2.929,2.929,7.678,0,10.606l-2.745,2.745
		C212.155,407.001,210.235,407.733,208.316,407.733z"/>
	<path style="fill:#5D6671;" d="M192.447,360.049h-3.882c-4.142,0-7.5-3.358-7.5-7.5s3.358-7.5,7.5-7.5h3.882
		c4.142,0,7.5,3.358,7.5,7.5S196.589,360.049,192.447,360.049z"/>
	<path style="fill:#5D6671;" d="M211.061,315.111c-1.919,0-3.839-0.732-5.304-2.197l-2.745-2.746
		c-2.929-2.929-2.928-7.678,0.001-10.607s7.678-2.929,10.606,0.001l2.745,2.746c2.929,2.929,2.928,7.678-0.001,10.607
		C214.899,314.379,212.981,315.111,211.061,315.111z"/>
	<path style="fill:#5D6671;" d="M256,360.049c-4.142,0-7.5-3.358-7.5-7.5V318.74c0-4.142,3.358-7.5,7.5-7.5
		c4.142,0,7.5,3.358,7.5,7.5v33.809C263.5,356.691,260.142,360.049,256,360.049z"/>
</g>
<path style="opacity:0.1;enable-background:new    ;" d="M183.664,176.512h-40.599c-23.496,0-43.411,17.288-46.712,40.55
	l-38.059,268.13C56.284,499.346,67.269,512,81.565,512H235.48C182.586,431.013,170.422,302.237,183.664,176.512z"/>
<g>
</g>
<g>
</g>
<g>
</g>
<g>
</g>
<g>
</g>
<g>
</g>
<g>
</g>
<g>
</g>
<g>
</g>
<g>
</g>
<g>
</g>
<g>
</g>
<g>
</g>
<g>
</g>
<g>
</g>
</svg>
