<?xml version="1.0" encoding="iso-8859-1"?>
<!-- Generator: Adobe Illustrator 19.0.0, SVG Export Plug-In . SVG Version: 6.00 Build 0)  -->
<svg version="1.1" id="Capa_1" xmlns="http://www.w3.org/2000/svg" xmlns:xlink="http://www.w3.org/1999/xlink" x="0px" y="0px"
	 viewBox="0 0 512.001 512.001" style="enable-background:new 0 0 512.001 512.001;" xml:space="preserve">
<path style="fill:#8DB5EA;" d="M17.481,432.031c9.654,0,17.481-7.827,17.481-17.481v-72.296c0-16.636,13.534-30.172,30.17-30.172
	h72.296c9.654,0,17.481-7.827,17.481-17.481s-7.827-17.481-17.481-17.481H65.132C29.218,277.121,0,306.339,0,342.254v72.296
	C0,424.205,7.827,432.031,17.481,432.031z"/>
<path style="opacity:0.1;enable-background:new    ;" d="M83.612,277.121h53.817c9.654,0,17.481,7.827,17.481,17.481
	s-7.827,17.481-17.481,17.481H83.612V277.121z"/>
<path style="fill:#8DB5EA;" d="M490.384,277.121H99.071c-11.938,0-21.616-9.678-21.616-21.616v-33.391
	c0-11.938,9.678-21.616,21.616-21.616h391.314c11.938,0,21.616,9.678,21.616,21.616v33.391
	C512,267.443,502.322,277.121,490.384,277.121z"/>
<path style="fill:#C3E9F1;" d="M476.21,277.121H113.245v172.01c0,22.697,18.399,41.096,41.096,41.096h280.772
	c22.697,0,41.096-18.399,41.096-41.096L476.21,277.121L476.21,277.121z"/>
<path style="fill:#F8D662;" d="M476.21,350.501H113.245v98.63c0,22.697,18.399,41.096,41.096,41.096h280.772
	c22.697,0,41.096-18.399,41.096-41.096L476.21,350.501L476.21,350.501z"/>
<path style="fill:#8DB5EA;" d="M445.542,200.498c0-98.706-115.171-178.723-150.815-178.723s-150.815,80.017-150.815,178.723H445.542
	z"/>
<path style="opacity:0.1;enable-background:new    ;" d="M352.768,200.498c0-98.706-44.323-178.723-58.04-178.723
	s-58.04,80.017-58.04,178.723H352.768z"/>
<g>
	<ellipse style="fill:#F18290;" cx="422.54" cy="419.081" rx="25.743" ry="20.501"/>
	<ellipse style="fill:#F18290;" cx="283" cy="419.081" rx="25.743" ry="20.501"/>
</g>
<g>
	<path style="fill:#5D6671;" d="M407.533,406.131c-4.143,0-7.5-3.358-7.5-7.5v-9.091c0-4.142,3.357-7.5,7.5-7.5s7.5,3.358,7.5,7.5
		v9.091C415.033,402.773,411.676,406.131,407.533,406.131z"/>
	<path style="fill:#5D6671;" d="M298.002,406.131c-4.143,0-7.5-3.358-7.5-7.5v-9.091c0-4.142,3.357-7.5,7.5-7.5
		c4.142,0,7.5,3.358,7.5,7.5v9.091C305.502,402.773,302.145,406.131,298.002,406.131z"/>
	<path style="fill:#5D6671;" d="M352.768,413.112c-7.701,0-15.025-3.335-20.093-9.151c-2.722-3.122-2.396-7.86,0.727-10.582
		c3.125-2.721,7.859-2.396,10.582,0.727c2.218,2.545,5.42,4.005,8.784,4.005c3.364,0,6.566-1.46,8.784-4.005
		c2.72-3.124,7.457-3.448,10.582-0.727c3.122,2.721,3.448,7.459,0.727,10.582C367.793,409.777,360.469,413.112,352.768,413.112z"/>
</g>
<path style="opacity:0.2;enable-background:new    ;" d="M490.384,277.121H99.071c-11.938,0-21.616-9.678-21.616-21.616v-33.391
	c0-11.938,9.678-21.616,21.616-21.616h391.314c11.938,0,21.616,9.678,21.616,21.616v33.391
	C512,267.443,502.322,277.121,490.384,277.121z"/>
<path style="opacity:0.15;enable-background:new    ;" d="M196.329,277.121h-83.083v172.01c0,22.697,18.4,41.096,41.096,41.096
	h89.127c-42.251-30.053-48.4-97.35-48.046-166.16c0.028-5.525,4.529-9.985,10.054-9.985H476.21v-36.961H196.329z"/>
<path style="opacity:0.1;enable-background:new    ;" d="M247.895,40.795c-46.346,29.409-103.982,89.874-103.982,159.703h71.924
	C202.222,157.164,221.891,73.078,247.895,40.795z"/>
<path style="opacity:0.1;enable-background:new    ;" d="M99.071,200.498c-11.938,0-21.616,9.678-21.616,21.616v33.391
	c0,11.938,9.678,21.616,21.616,21.616h122.628c-17.708-23.433-10.923-62.584-5.863-76.623H99.071z"/>
<g style="opacity:0.15;">
	<path d="M228.977,313.848h-63.645c-4.143,0-7.5-3.358-7.5-7.5s3.357-7.5,7.5-7.5h63.645c4.143,0,7.5,3.358,7.5,7.5
		C236.477,310.49,233.12,313.848,228.977,313.848z"/>
	<path d="M203.929,357.988h-38.596c-4.143,0-7.5-3.358-7.5-7.5s3.357-7.5,7.5-7.5h38.596c4.143,0,7.5,3.358,7.5,7.5
		C211.429,354.63,208.071,357.988,203.929,357.988z"/>
	<path d="M228.977,402.128h-63.645c-4.143,0-7.5-3.358-7.5-7.5s3.357-7.5,7.5-7.5h63.645c4.143,0,7.5,3.358,7.5,7.5
		S233.12,402.128,228.977,402.128z"/>
	<path d="M203.929,446.268h-38.596c-4.143,0-7.5-3.358-7.5-7.5s3.357-7.5,7.5-7.5h38.596c4.143,0,7.5,3.358,7.5,7.5
		C211.429,442.91,208.071,446.268,203.929,446.268z"/>
</g>
<g>
</g>
<g>
</g>
<g>
</g>
<g>
</g>
<g>
</g>
<g>
</g>
<g>
</g>
<g>
</g>
<g>
</g>
<g>
</g>
<g>
</g>
<g>
</g>
<g>
</g>
<g>
</g>
<g>
</g>
</svg>
