<?xml version="1.0" encoding="iso-8859-1"?>
<!-- Generator: Adobe Illustrator 19.0.0, SVG Export Plug-In . SVG Version: 6.00 Build 0)  -->
<svg version="1.1" id="Capa_1" xmlns="http://www.w3.org/2000/svg" xmlns:xlink="http://www.w3.org/1999/xlink" x="0px" y="0px"
	 viewBox="0 0 512.001 512.001" style="enable-background:new 0 0 512.001 512.001;" xml:space="preserve">
<path style="fill:#F18290;" d="M118.103,397.559c-1.691,0-3.411-0.288-5.095-0.896l-4.122-1.489
	c-41.564-15.01-64.308-59.963-51.78-102.342l7.339-24.826c5.725-19.366,0.203-40.055-14.41-53.993l-16.174-15.425
	c-5.995-5.717-6.22-15.212-0.502-21.207c5.718-5.996,15.213-6.22,21.207-0.502l16.173,15.425
	c22.791,21.738,31.402,54.003,22.475,84.206l-7.339,24.827c-8.033,27.173,6.551,55.997,33.201,65.621l4.123,1.489
	c7.791,2.814,11.826,11.412,9.013,19.203C130.005,393.759,124.243,397.559,118.103,397.559z"/>
<path style="opacity:0.1;enable-background:new    ;" d="M113.008,396.663c1.684,0.608,3.403,0.896,5.095,0.896
	c6.141,0,11.902-3.8,14.109-9.909c2.813-7.792-1.222-16.389-9.013-19.203l-4.123-1.489c-14.905-5.383-26.032-16.773-31.542-30.52
	v47.299c6.378,4.728,13.531,8.613,21.352,11.438L113.008,396.663z"/>
<path style="fill:#F18290;" d="M393.899,397.559c1.691,0,3.411-0.288,5.095-0.896l4.122-1.489
	c41.564-15.01,64.308-59.963,51.78-102.342l-7.339-24.826c-5.725-19.366-0.203-40.055,14.41-53.993l16.173-15.425
	c5.995-5.717,6.22-15.212,0.502-21.207c-5.718-5.996-15.213-6.22-21.207-0.502l-16.173,15.425
	c-22.791,21.738-31.402,54.003-22.475,84.206l7.339,24.827c8.033,27.173-6.551,55.997-33.201,65.621l-4.123,1.489
	c-7.791,2.814-11.826,11.412-9.013,19.203C381.997,393.759,387.759,397.559,393.899,397.559z"/>
<path style="opacity:0.1;enable-background:new    ;" d="M398.994,396.663c-1.684,0.608-3.403,0.896-5.095,0.896
	c-6.141,0-11.902-3.8-14.109-9.909c-2.814-7.792,1.222-16.389,9.013-19.203l4.123-1.489c14.905-5.383,26.031-16.773,31.542-30.52
	v47.299c-6.378,4.728-13.531,8.613-21.352,11.438L398.994,396.663z"/>
<path style="fill:#F8D662;" d="M287.669,99.458V61.669c0-17.462-14.206-31.669-31.668-31.669s-31.668,14.207-31.668,31.669v37.789
	h-30V61.669C194.333,27.665,221.997,0,256.001,0s61.668,27.665,61.668,61.669v37.789H287.669z"/>
<rect x="194.331" y="84.87" style="opacity:0.1;enable-background:new    ;" width="30" height="14.587"/>
<rect x="287.671" y="84.87" style="opacity:0.1;enable-background:new    ;" width="30" height="14.587"/>
<path style="fill:#F0F1F1;" d="M342.886,174.551v-51.21c0-13.191-10.693-23.884-23.884-23.884H193
	c-13.191,0-23.884,10.693-23.884,23.884v51.21c0,32.366-13.19,63.334-36.527,85.76l0,0c-16.007,15.383-25.055,36.625-25.055,58.825
	v150.79c0,23.236,18.837,42.073,42.073,42.073h212.788c23.236,0,42.073-18.837,42.073-42.073v-150.79
	c0-22.201-9.047-43.443-25.055-58.825l0,0C356.076,237.885,342.886,206.917,342.886,174.551z"/>
<path style="opacity:0.1;enable-background:new    ;" d="M224.225,99.458H193c-13.191,0-23.884,10.693-23.884,23.884v51.21
	c0,32.366-13.19,63.334-36.527,85.76l0,0c-16.007,15.383-25.055,36.625-25.055,58.826v150.79c0,23.236,18.837,42.073,42.073,42.073
	h91.42C167.606,431.13,207.783,183.396,224.225,99.458z"/>
<g style="opacity:0.1;">
	<circle cx="360.341" cy="297.86" r="7.466"/>
	<circle cx="380.211" cy="457.21" r="7.466"/>
	<circle cx="296.511" cy="187.73" r="7.466"/>
	<circle cx="164.021" cy="305.33" r="7.466"/>
</g>
<path style="opacity:0.1;enable-background:new    ;" d="M350.455,355.844l52.463-52.463c-1.099-5.583-2.764-11.024-4.983-16.231
	l-58.087,58.087l-73.241-73.241l73.24-73.24l7.293,7.293c-2.794-10.172-4.255-20.757-4.255-31.499v-0.046l-3.038,3.038l-73.24-73.24
	l4.845-4.845h-30.904l4.845,4.845l-73.24,73.24l-3.038-3.038v0.046c0,10.741-1.461,21.326-4.255,31.499l7.293-7.293l73.24,73.24
	l-73.24,73.241l-58.087-58.087c-2.219,5.207-3.884,10.648-4.983,16.231l52.463,52.463l-54.012,54.012v21.214l64.619-64.619
	l73.24,73.241L173.086,512H194.3l61.701-61.701L317.702,512h21.214l-72.308-72.308l73.241-73.241l64.619,64.619v-21.214
	L350.455,355.844z M182.761,188.15l73.24-73.24l73.24,73.24l-73.24,73.24L182.761,188.15z M256.001,429.085l-73.24-73.241
	l73.24-73.24l73.241,73.24L256.001,429.085z"/>
<path style="fill:#FFFFFF;" d="M357.756,418.316h-203.51v21.604c0,21.128,17.128,38.256,38.256,38.256h126.999
	c21.128,0,38.256-17.128,38.256-38.256v-21.604H357.756z"/>
<rect x="248.501" y="418.32" style="opacity:0.1;enable-background:new    ;" width="15" height="59.86"/>
<path style="fill:#F18290;" d="M343.546,389.555h-175.09c-7.848,0-14.21,6.362-14.21,14.21v14.551h203.511v-14.551
	C357.756,395.917,351.394,389.555,343.546,389.555z"/>
<path style="opacity:0.08;enable-background:new    ;" d="M209.275,393.555h-40.819c-7.848,0-14.21,6.362-14.21,14.21v36.155
	c0,21.128,17.128,38.256,38.256,38.256h39.039C214.496,464.845,207.9,408.219,209.275,393.555z"/>
<g>
</g>
<g>
</g>
<g>
</g>
<g>
</g>
<g>
</g>
<g>
</g>
<g>
</g>
<g>
</g>
<g>
</g>
<g>
</g>
<g>
</g>
<g>
</g>
<g>
</g>
<g>
</g>
<g>
</g>
</svg>
