<?xml version="1.0" encoding="iso-8859-1"?>
<!-- Generator: Adobe Illustrator 19.0.0, SVG Export Plug-In . SVG Version: 6.00 Build 0)  -->
<svg version="1.1" id="Capa_1" xmlns="http://www.w3.org/2000/svg" xmlns:xlink="http://www.w3.org/1999/xlink" x="0px" y="0px"
	 viewBox="0 0 512 512" style="enable-background:new 0 0 512 512;" xml:space="preserve">
<path style="fill:#C3E9F1;" d="M220.586,10.299l25.543-9.297c8.586-3.125,18.08,1.302,21.205,9.888l3.523,9.679l-56.636,20.614
	l-3.523-9.679C207.573,22.918,212,13.425,220.586,10.299z"/>
<path style="opacity:0.1;enable-background:new    ;" d="M225.79,8.405l-5.204,1.894c-8.587,3.125-13.014,12.619-9.889,21.205
	l3.523,9.679l20.363-7.412C228.745,26.003,225.682,15.734,225.79,8.405z"/>
<path style="fill:#8DB5EA;" d="M49.084,266.938l9.574,26.303l341.503-124.297L361.55,62.86
	c-13.365-36.723-53.97-55.657-90.693-42.29L151.265,64.098c-36.723,13.366-55.657,53.97-42.29,90.693l5.307,14.58
	c3.787,10.405-1.578,21.91-11.983,25.697l-23.727,8.636C52.966,213.022,39.765,241.333,49.084,266.938z M163.304,145.937
	l-3.51-9.644c-3.15-8.655,1.313-18.224,9.968-21.375L289.354,71.39c8.655-3.15,18.224,1.313,21.375,9.968l3.51,9.644
	c4.78,13.132-1.991,27.651-15.122,32.43l-103.382,37.629C182.603,165.838,168.084,159.068,163.304,145.937z"/>
<path style="opacity:0.1;enable-background:new    ;" d="M102.297,195.067l-23.726,8.636c-25.604,9.32-38.807,37.631-29.487,63.235
	l9.574,26.303l70.087-25.51L102.297,195.067z"/>
<path style="opacity:0.1;enable-background:new    ;" d="M133.402,73.689c-24.576,18.153-35.41,50.93-24.428,81.101l5.307,14.58
	c3.787,10.405-1.578,21.91-11.983,25.697l-23.727,8.636c-25.604,9.32-38.807,37.631-29.487,63.235l9.574,26.303l117.41-42.733
	C127.719,186.421,126.351,125.538,133.402,73.689z"/>
<path style="fill:#C3E9F1;" d="M96.703,378.394l323.154-117.619c14.574-5.305,22.09-21.42,16.785-35.996l-17.795-48.892
	c-2.44-6.704-9.853-10.161-16.556-7.721L50.632,296.162c-6.704,2.44-10.161,9.853-7.72,16.556l17.795,48.892
	C66.013,376.184,82.128,383.699,96.703,378.394z"/>
<path style="fill:#5D6671;" d="M312.357,349.067l99.761-36.311c10.894-3.965,16.51-16.01,12.546-26.904l-8.622-23.688
	L276.83,312.834l8.622,23.688C289.417,347.415,301.463,353.032,312.357,349.067z"/>
<path style="opacity:0.1;enable-background:new    ;" d="M285.453,336.522c3.965,10.894,16.01,16.51,26.904,12.546l22.988-8.367
	c-14.085-10.867-20.596-29.922-22.348-41.03l-36.167,13.164L285.453,336.522z"/>
<g>
	<path style="fill:#D6D8DB;" d="M404.215,512c-9.452,0-18.868-2.069-27.69-6.182c-15.883-7.407-27.933-20.555-33.927-37.025
		c-4.496-12.354-4.397-32.368,0.269-53.538c2.866-13.014,9.408-35.474,21.004-39.695l25.814-9.396
		c11.6-4.222,31.046,8.781,41.605,16.906c17.181,13.22,30.123,28.487,34.619,40.841c12.374,33.997-5.218,71.722-39.215,84.096
		C419.373,510.673,411.782,512,404.215,512z M369.166,389.597c-2.322,1.561-8.113,11.912-11.983,30.428
		c-3.684,17.628-3.871,34.35-0.49,43.639c4.624,12.704,13.918,22.846,26.171,28.56c12.254,5.714,25.997,6.315,38.7,1.689
		c26.226-9.545,39.796-38.646,30.25-64.872c-3.381-9.29-14.272-21.978-28.427-33.114c-14.866-11.699-25.957-15.89-28.737-15.607
		L369.166,389.597z M369.007,389.655l-0.005,0.002C369.003,389.656,369.005,389.655,369.007,389.655z M394.569,380.331
		L394.569,380.331L394.569,380.331z"/>
	
		<rect x="345.776" y="346.909" transform="matrix(-0.342 -0.9397 0.9397 -0.342 164.5555 824.0433)" style="fill:#D6D8DB;" width="50.018" height="14.999"/>
	<path style="fill:#D6D8DB;" d="M421.252,508.971c-16.498,0-34.232-25.118-44.268-52.692c-4.216-11.582-8.009-29.263-10.147-47.295
		c-3.315-27.959-0.862-34.188,5.162-36.381l5.131,14.095c2.43-0.885,3.474-2.798,3.647-3.398c-0.511,1.761-0.82,10.939,1.479,28.065
		c2.072,15.426,5.37,30.299,8.822,39.784c5.013,13.771,11.636,25.906,18.647,34.169c6.264,7.379,10.758,8.993,11.84,8.595
		c1.088-0.396,3.491-4.52,3.546-14.194c0.062-10.838-2.666-24.391-7.679-38.163c-3.452-9.484-10.485-22.996-18.813-36.146
		c-9.247-14.598-15.384-21.429-16.907-22.45c0.52,0.349,2.547,1.143,4.978,0.258l-5.129-14.095
		c6.023-2.193,11.91,1.005,27.34,24.551c9.953,15.187,18.412,31.17,22.628,42.752c5.605,15.4,8.653,30.806,8.583,43.376
		c-0.061,10.662-2.437,24.209-13.415,28.205C424.904,508.66,423.086,508.97,421.252,508.971z"/>
	<path style="fill:#D6D8DB;" d="M353.444,364.275c-3.064,0-5.94-1.891-7.049-4.937c-1.417-3.892,0.591-8.196,4.482-9.613
		l32.154-11.704c3.893-1.417,8.197,0.591,9.613,4.483c1.417,3.892-0.591,8.196-4.482,9.613l-32.154,11.704
		C355.162,364.129,354.296,364.275,353.444,364.275z"/>
</g>
<g style="opacity:0.1;">
	<path d="M265.285,197.363c-3.065,0-5.94-1.891-7.049-4.936l-8.338-22.907c-1.416-3.893,0.59-8.196,4.482-9.613
		c3.893-1.418,8.197,0.59,9.613,4.482l8.338,22.907c1.417,3.893-0.591,8.196-4.482,9.613
		C267.003,197.217,266.137,197.363,265.285,197.363z"/>
	<path d="M289.472,188.558c-3.065,0-5.941-1.891-7.049-4.936l-8.338-22.907c-1.417-3.893,0.591-8.196,4.482-9.613
		c3.893-1.418,8.196,0.59,9.613,4.482l8.338,22.907c1.417,3.893-0.591,8.196-4.482,9.613
		C291.19,188.412,290.324,188.558,289.472,188.558z"/>
	<path d="M313.662,179.755c-3.064,0-5.94-1.891-7.049-4.936l-8.338-22.906c-1.417-3.893,0.59-8.196,4.482-9.613
		c3.893-1.418,8.196,0.59,9.613,4.482l8.338,22.906c1.417,3.893-0.59,8.196-4.482,9.613
		C315.379,179.609,314.513,179.755,313.662,179.755z"/>
</g>
<g>
	
		<ellipse transform="matrix(-0.342 -0.9397 0.9397 -0.342 38.1737 607.2408)" style="fill:#F18290;" cx="231.689" cy="290.255" rx="19.219" ry="24.129"/>
	
		<ellipse transform="matrix(0.342 0.9397 -0.9397 0.342 464.0331 -171.6952)" style="fill:#F18290;" cx="354.617" cy="245.499" rx="19.218" ry="24.129"/>
</g>
<g>
	<path style="fill:#5D6671;" d="M238.349,274.921c-3.064,0-5.939-1.891-7.048-4.937l-2.915-8.009
		c-1.417-3.893,0.59-8.196,4.482-9.613c3.892-1.418,8.196,0.59,9.613,4.482l2.915,8.009c1.417,3.893-0.59,8.196-4.482,9.613
		C240.068,274.775,239.201,274.921,238.349,274.921z"/>
	<path style="fill:#5D6671;" d="M334.841,239.801c-3.064,0-5.94-1.891-7.049-4.937l-2.915-8.008
		c-1.417-3.893,0.59-8.196,4.483-9.613c3.893-1.418,8.197,0.59,9.613,4.482l2.915,8.008c1.417,3.893-0.59,8.196-4.482,9.613
		C336.558,239.655,335.692,239.801,334.841,239.801z"/>
	<path style="fill:#5D6671;" d="M282.703,264.59c-4.264,0-8.508-1.071-12.327-3.182c-3.625-2.003-4.939-6.566-2.936-10.192
		c2.003-3.624,6.564-4.941,10.192-2.936c2.651,1.465,5.798,1.715,8.636,0.681c2.837-1.032,5.089-3.246,6.179-6.074
		c1.489-3.864,5.83-5.791,9.695-4.301c3.865,1.49,5.791,5.831,4.301,9.695c-2.649,6.874-8.133,12.26-15.044,14.774
		C288.579,264.082,285.637,264.59,282.703,264.59z"/>
</g>
<path style="opacity:0.1;enable-background:new    ;" d="M176.068,250.507L50.632,296.162c-6.704,2.44-10.16,9.853-7.72,16.556
	l17.795,48.892c5.305,14.574,21.42,22.09,35.996,16.785l128.413-46.738C187.347,309.374,174.527,274.966,176.068,250.507z"/>
<g>
</g>
<g>
</g>
<g>
</g>
<g>
</g>
<g>
</g>
<g>
</g>
<g>
</g>
<g>
</g>
<g>
</g>
<g>
</g>
<g>
</g>
<g>
</g>
<g>
</g>
<g>
</g>
<g>
</g>
</svg>
