<?xml version="1.0" encoding="iso-8859-1"?>
<!-- Generator: Adobe Illustrator 19.0.0, SVG Export Plug-In . SVG Version: 6.00 Build 0)  -->
<svg version="1.1" id="Capa_1" xmlns="http://www.w3.org/2000/svg" xmlns:xlink="http://www.w3.org/1999/xlink" x="0px" y="0px"
	 viewBox="0 0 512 512" style="enable-background:new 0 0 512 512;" xml:space="preserve">
<path style="fill:#BA8E79;" d="M366.923,386.013H256.496V496.44h83.479c14.883,0,26.948-12.065,26.948-26.948V386.013z"/>
<path style="opacity:0.2;enable-background:new    ;" d="M366.923,386.013H256.496V496.44h83.479
	c14.883,0,26.948-12.065,26.948-26.948V386.013z"/>
<path style="fill:#F8D662;" d="M413.355,66.408l-81.405,81.405l-42.122-42.123l81.405-81.405c11.632-11.632,30.491-11.632,42.122,0
	l0,0C424.987,35.917,424.987,54.776,413.355,66.408z"/>
<circle style="fill:#FFFFFF;" cx="392.29" cy="45.351" r="7.411"/>
<path style="fill:#D6D8DB;" d="M298.012,223.771l33.939-33.939c11.603-11.604,11.603-30.416,0-42.02l-42.122-42.123l-54.949,54.949
	L298.012,223.771z"/>
<path style="fill:#F0F1F1;" d="M298.012,223.771l33.939-33.939c11.603-11.604,11.603-30.416,0-42.02l-54.949,54.949L298.012,223.771
	z"/>
<path style="opacity:0.1;enable-background:new    ;" d="M234.879,160.639l63.132,63.132l5.905-5.905
	c-20.643-26.139-32.823-59.789-36.806-89.458L234.879,160.639z"/>
<path style="fill:#F18290;" d="M503.276,156.329l-81.405,81.405l-42.122-42.122l81.405-81.405c11.632-11.632,30.491-11.632,42.122,0
	l0,0C514.908,125.838,514.908,144.697,503.276,156.329z"/>
<circle style="fill:#FFFFFF;" cx="482.21" cy="135.271" r="7.411"/>
<path style="fill:#D6D8DB;" d="M387.933,313.692l33.939-33.939c11.603-11.603,11.603-30.416,0-42.02l-42.122-42.122L324.8,250.56
	L387.933,313.692z"/>
<path style="fill:#F0F1F1;" d="M387.933,313.692l33.939-33.939c11.604-11.603,11.604-30.416,0-42.02l-54.949,54.949L387.933,313.692
	z"/>
<path style="opacity:0.1;enable-background:new    ;" d="M324.8,250.56l63.132,63.132l5.905-5.906
	c-20.643-26.139-32.824-59.789-36.806-89.458L324.8,250.56z"/>
<path style="fill:#BA8E79;" d="M256.496,496.44l134.74-134.741c12.345-12.345,12.345-32.359,0-44.703L234.534,160.294
	c-12.345-12.344-32.359-12.344-44.704,0L14.414,335.71c-19.219,19.219-19.219,50.379,0,69.598l74.414,74.413
	c10.704,10.704,25.222,16.718,40.36,16.718h127.308V496.44z"/>
<path style="opacity:0.1;enable-background:new    ;" d="M126.353,223.771L14.414,335.71c-19.219,19.219-19.219,50.379,0,69.598
	l74.414,74.413c10.704,10.704,25.222,16.718,40.36,16.718H235.58C189.018,445.846,121.72,346.7,126.353,223.771z"/>
<path style="opacity:0.1;enable-background:new    ;" d="M176.62,339.28c10.703-16.553,14.477-38.995,11.54-68.608
	c-2.272-22.899-8.403-50.562-19.756-88.952l-12.096,12.096c18.035,62.559,25.459,109.876,7.716,137.319
	c-10.26,15.869-29.469,25.431-58.724,29.229c-50.179,6.516-65.076,33.895-74.732,61.097l11.812,11.812
	c9.373-28.255,19.271-52.115,64.851-58.034C141.124,370.839,163.821,359.077,176.62,339.28z M333.002,404.396
	c-14.919-10.042-37.242-9.332-66.348,2.109c-17.158,6.744-34.799,16.946-48.4,27.991c-17.256,14.013-27.94,29.201-30.894,43.923
	c-1.006,5.009-1.339,11.191,0.227,18.021h15.56c-1.758-4.885-2.12-9.886-1.08-15.069c4.772-23.778,38.865-48.638,70.075-60.906
	c24.244-9.529,41.902-10.748,52.484-3.625c2.194,1.477,4.128,3.371,5.809,5.66l10.676-10.676
	C338.738,408.937,336.046,406.445,333.002,404.396z M231.556,370.415c17.562-24.443,28.72-56.589,33.164-95.544
	c2.929-25.672,2.904-53.947-0.047-84.438l-17.057-17.057c4.841,36.59,5.591,70.073,2.2,99.793
	c-4.15,36.381-14.393,66.154-30.443,88.492c-18.228,25.371-43.784,40.73-75.957,45.653c-35.968,5.504-60.866,17.608-74.001,35.979
	c-2.456,3.434-4.49,7.063-6.133,10.884l11.779,11.779c1.381-5.117,3.561-9.75,6.556-13.938
	c10.694-14.955,32.249-25.007,64.068-29.876C181.996,416.587,210.886,399.184,231.556,370.415z"/>
<g>
</g>
<g>
</g>
<g>
</g>
<g>
</g>
<g>
</g>
<g>
</g>
<g>
</g>
<g>
</g>
<g>
</g>
<g>
</g>
<g>
</g>
<g>
</g>
<g>
</g>
<g>
</g>
<g>
</g>
</svg>
