<?xml version="1.0" encoding="iso-8859-1"?>
<!-- Generator: Adobe Illustrator 19.0.0, SVG Export Plug-In . SVG Version: 6.00 Build 0)  -->
<svg version="1.1" id="Capa_1" xmlns="http://www.w3.org/2000/svg" xmlns:xlink="http://www.w3.org/1999/xlink" x="0px" y="0px"
	 viewBox="0 0 512 512" style="enable-background:new 0 0 512 512;" xml:space="preserve">
<path style="fill:#BA8E79;" d="M229.523,293.563c-27.601,0-49.977-22.375-49.977-49.977v-79.238c0-1.92-0.882-3.75-2.426-4.892
	c-20.488-15.159-32.128-36.773-32.128-60.014c0-22.347,11.145-43.796,30.579-58.847c17.796-13.784,41.094-21.376,65.602-21.376
	c16.145,0,32.105,3.366,46.155,9.735c1.776,0.805,3.658,1.214,5.591,1.214s3.815-0.409,5.591-1.214
	c14.051-6.369,30.01-9.735,46.155-9.735c24.507,0,47.805,7.592,65.602,21.376c19.433,15.052,30.579,36.501,30.579,58.847
	c0,23.241-11.64,44.855-32.128,60.014c-1.544,1.142-2.426,2.972-2.426,4.892v79.238c0,27.602-22.376,49.977-49.977,49.977H229.523z"
	/>
<path style="fill:#F8D9B9;" d="M344.666,44.625c-13.01,0-25.196,2.723-35.667,7.469c-10.236,4.64-21.922,4.64-32.158,0
	c-10.471-4.747-22.657-7.47-35.667-7.47c-39.087,0-70.774,24.542-70.774,54.816c0,15.981,8.833,30.36,22.921,40.377
	c7.262,5.164,11.632,13.474,11.632,22.385v81.382c0,13.57,11.001,24.57,24.57,24.57h126.793c13.57,0,24.57-11.001,24.57-24.57
	v-81.382c0-8.911,4.37-17.221,11.632-22.385c14.088-10.018,22.921-24.397,22.921-40.377
	C415.44,69.167,383.753,44.625,344.666,44.625z"/>
<path style="fill:#D6D8DB;" d="M512,405.808H73.84V260.584c0-36.291,29.42-65.71,65.71-65.71h306.74
	c36.291,0,65.71,29.42,65.71,65.71V405.808z"/>
<g>
	<path style="fill:#F0F1F1;" d="M470.384,199.453v206.355H512V260.584C512,232.802,494.75,209.065,470.384,199.453z"/>
	<path style="fill:#F0F1F1;" d="M115.455,199.453v206.355H73.84V260.584C73.84,232.802,91.09,209.065,115.455,199.453z"/>
</g>
<path style="fill:#5D6671;" d="M512,405.808H73.84v40.881c0,10.567,8.566,19.133,19.133,19.133h399.893
	c10.567,0,19.133-8.566,19.133-19.133v-40.881H512z"/>
<g>
	<path style="fill:#7CD9D2;" d="M14.844,269.576H73.84v47.908H14.844C6.646,317.484,0,310.839,0,302.641v-18.221
		C0,276.221,6.646,269.576,14.844,269.576z"/>
	<path style="fill:#7CD9D2;" d="M157.112,492.781H117.39c-7.339,0-13.288-5.949-13.288-13.288v-13.67H170.4v13.67
		C170.4,486.831,164.451,492.781,157.112,492.781z"/>
	<path style="fill:#7CD9D2;" d="M428.728,492.781h39.722c7.339,0,13.288-5.949,13.288-13.288v-13.67H415.44v13.67
		C415.44,486.831,421.389,492.781,428.728,492.781z"/>
</g>
<rect x="53.37" y="269.579" style="opacity:0.1;enable-background:new    ;" width="20.471" height="47.908"/>
<g>
	<ellipse style="fill:#F18290;" cx="210.1" cy="326.24" rx="30.557" ry="24.334"/>
	<ellipse style="fill:#F18290;" cx="375.74" cy="326.24" rx="30.557" ry="24.334"/>
</g>
<g>
	<path style="fill:#5D6671;" d="M215.212,305.008c-4.142,0-7.5-3.358-7.5-7.5v-13.116c0-4.142,3.358-7.5,7.5-7.5s7.5,3.358,7.5,7.5
		v13.116C222.712,301.649,219.355,305.008,215.212,305.008z"/>
	<path style="fill:#5D6671;" d="M292.92,329.683L292.92,329.683c-12.227,0-22.139-9.912-22.139-22.139v-16.095
		c0-3.338,2.706-6.044,6.044-6.044h32.191c3.338,0,6.044,2.706,6.044,6.044v16.095C315.059,319.771,305.147,329.683,292.92,329.683z
		"/>
	<path style="fill:#5D6671;" d="M370.627,305.008c-4.142,0-7.5-3.358-7.5-7.5v-13.116c0-4.142,3.358-7.5,7.5-7.5s7.5,3.358,7.5,7.5
		v13.116C378.127,301.649,374.77,305.008,370.627,305.008z"/>
</g>
<g style="opacity:0.1;">
	<circle cx="236.56" cy="130.329" r="7.562"/>
	<circle cx="273.67" cy="81.986" r="7.562"/>
	<circle cx="368.17" cy="81.986" r="7.562"/>
	<circle cx="337.62" cy="141.929" r="7.562"/>
	<circle cx="281.23" cy="171.869" r="7.562"/>
</g>
<path style="opacity:0.1;enable-background:new    ;" d="M190.88,194.874h-51.33c-36.291,0-65.71,29.42-65.71,65.71v186.104
	c0,10.567,8.566,19.133,19.133,19.133h164.77C190.652,397.243,189.421,264.217,190.88,194.874z"/>
<path style="opacity:0.1;enable-background:new    ;" d="M246.476,163.895c-25.507-58.551-25.704-120.604-11.778-144.476
	c-22.111,1.216-42.905,8.614-59.125,21.177c-19.434,15.052-30.579,36.501-30.579,58.847c0,23.228,11.627,44.83,32.093,59.988
	c1.555,1.152,2.46,2.982,2.46,4.917v30.526h226.747v-23.006H258.561C253.301,171.868,248.577,168.717,246.476,163.895z"/>
<g>
</g>
<g>
</g>
<g>
</g>
<g>
</g>
<g>
</g>
<g>
</g>
<g>
</g>
<g>
</g>
<g>
</g>
<g>
</g>
<g>
</g>
<g>
</g>
<g>
</g>
<g>
</g>
<g>
</g>
</svg>
