<?xml version="1.0" encoding="iso-8859-1"?>
<!-- Generator: Adobe Illustrator 19.0.0, SVG Export Plug-In . SVG Version: 6.00 Build 0)  -->
<svg version="1.1" id="Capa_1" xmlns="http://www.w3.org/2000/svg" xmlns:xlink="http://www.w3.org/1999/xlink" x="0px" y="0px"
	 viewBox="0 0 512 512" style="enable-background:new 0 0 512 512;" xml:space="preserve">
<path style="fill:#D6D8DB;" d="M163.571,197.277L88.56,184.05c-31.692-5.588-54.991-32.999-55.4-65.178l-0.442-35.016
	c-0.184-14.477,6.039-28.158,17.071-37.535c11.033-9.377,25.537-13.313,39.796-10.798l99.417,17.53
	c10.446,1.842,17.421,11.804,15.58,22.25c-1.842,10.446-11.804,17.422-22.25,15.58l-99.417-17.53
	c-4.046-0.714-6.904,1.096-8.248,2.238s-3.591,3.671-3.538,7.78l0.442,35.015c0.174,13.742,10.125,25.448,23.659,27.835
	l75.011,13.226c10.446,1.842,17.422,11.804,15.58,22.25C183.979,192.143,174.017,199.119,163.571,197.277z"/>
<path style="opacity:0.1;enable-background:new    ;" d="M189.002,53.053l-77.639-13.69l0.495,39.093l70.473,12.426
	c10.446,1.842,20.408-5.133,22.25-15.58C206.423,64.857,199.448,54.895,189.002,53.053z"/>
<path style="opacity:0.1;enable-background:new    ;" d="M185.821,181.697c1.842-10.446-5.133-20.408-15.58-22.25l-57.486-10.136
	l0.473,37.325c0.007,0.595,0.037,1.184,0.062,1.775l50.281,8.866C174.017,199.119,183.979,192.143,185.821,181.697z"/>
<path style="fill:#F0F1F1;" d="M359.663,280.783L197.21,252.138c-29.027-5.118-50.309-30.158-50.683-59.63L144.34,19.85
	c-0.156-12.284,10.899-21.68,22.997-19.547l306.529,54.05c12.098,2.133,19.273,14.744,14.925,26.233l-61.108,161.497
	C417.253,269.65,388.69,285.901,359.663,280.783z"/>
<g>
	
		<ellipse transform="matrix(0.1736 -0.9848 0.9848 0.1736 76.8321 328.0379)" style="fill:#F18290;" cx="233.877" cy="118.239" rx="26.06" ry="32.723"/>
	
		<ellipse transform="matrix(-0.1736 0.9848 -0.9848 -0.1736 626.2792 -227.3888)" style="fill:#F18290;" cx="408.545" cy="149.073" rx="26.06" ry="32.723"/>
</g>
<g>
	<path style="fill:#5D6671;" d="M272.919,103.84c-0.433,0-0.87-0.038-1.311-0.115c-4.079-0.719-6.804-4.609-6.084-8.688
		c0.772-4.386-2.166-8.583-6.552-9.356c-4.392-0.778-8.582,2.166-9.355,6.551c-0.719,4.079-4.609,6.803-8.689,6.083
		c-4.079-0.72-6.803-4.61-6.083-8.689c2.21-12.531,14.205-20.925,26.731-18.718c12.53,2.21,20.928,14.202,18.719,26.732
		C279.655,101.279,276.49,103.84,272.919,103.84z"/>
	<path style="fill:#5D6671;" d="M410.033,128.018c-0.433,0-0.871-0.038-1.311-0.115c-4.079-0.72-6.803-4.61-6.083-8.689
		c0.374-2.124-0.101-4.268-1.338-6.034c-1.237-1.767-3.088-2.946-5.213-3.321c-4.383-0.775-8.582,2.165-9.355,6.551
		c-0.72,4.08-4.606,6.803-8.689,6.084c-4.079-0.72-6.803-4.61-6.083-8.689c2.21-12.531,14.203-20.923,26.732-18.718
		c6.07,1.07,11.36,4.44,14.896,9.49c3.535,5.049,4.893,11.173,3.821,17.243C416.769,125.457,413.605,128.017,410.033,128.018z"/>
	<path style="fill:#5D6671;" d="M325.46,138.896c-1.698,0-3.405-0.147-5.103-0.447c-8.371-1.476-15.692-6.504-20.085-13.797
		c-2.138-3.548-0.994-8.157,2.554-10.294c3.548-2.139,8.157-0.995,10.294,2.554c2.155,3.577,5.742,6.043,9.842,6.765
		c4.105,0.725,8.315-0.368,11.564-2.992c3.223-2.603,7.945-2.1,10.547,1.122c2.604,3.223,2.101,7.944-1.121,10.547
		C338.671,136.619,332.135,138.896,325.46,138.896z"/>
</g>
<path style="fill:#F18290;" d="M427.684,242.083l16.303-43.087c-28.535-13.618-61.762-15.526-92.234-4.382l0,0
	c-40.097,14.665-84.976,6.751-117.64-20.743l0,0c-24.822-20.894-56.698-30.466-88.17-27.428l0.584,46.064
	c0.373,29.472,21.656,54.512,50.683,59.63l162.453,28.645C388.69,285.901,417.253,269.65,427.684,242.083z"/>
<path style="fill:#D6D8DB;" d="M336.6,319.973l-131.122-23.12c-8.652-1.526-14.429-9.776-12.903-18.428l4.635-26.286l162.453,28.645
	l-4.635,26.287C353.502,315.721,345.252,321.498,336.6,319.973z"/>
<path style="opacity:0.1;enable-background:new    ;" d="M167.337,0.303C155.239-1.83,144.184,7.566,144.34,19.85l2.187,172.658
	c0.373,29.472,21.656,54.512,50.683,59.63l71.565,12.619c-56.12-28.619-48.427-195.004-34.955-252.731L167.337,0.303z"/>
<path style="fill:#C3E9F1;" d="M171.344,421.214H95.176c-32.181,0-59.885-22.949-65.876-54.568l-6.516-34.407
	c-2.695-14.225,1.058-28.779,10.293-39.929c9.237-11.15,22.838-17.545,37.316-17.545h100.951c10.607,0,19.207,8.599,19.207,19.207
	c0,10.607-8.599,19.207-19.207,19.207H70.394c-4.109,0-6.608,2.278-7.734,3.636c-1.125,1.358-2.898,4.239-2.133,8.276l6.516,34.406
	C69.6,373,81.432,382.801,95.176,382.801h76.169c10.607,0,19.207,8.599,19.207,19.207
	C190.551,412.615,181.952,421.214,171.344,421.214z"/>
<path style="opacity:0.1;enable-background:new    ;" d="M171.344,274.766H92.508l7.276,38.413h71.56
	c10.607,0,19.207-8.599,19.207-19.207C190.551,283.365,181.952,274.766,171.344,274.766z"/>
<path style="opacity:0.1;enable-background:new    ;" d="M190.551,402.008c0-10.607-8.599-19.207-19.207-19.207h-58.373
	l6.947,36.676c0.111,0.584,0.242,1.159,0.369,1.737h51.056C181.952,421.214,190.551,412.615,190.551,402.008z"/>
<path style="fill:#8DB5EA;" d="M378.958,469.401h-164.96c-29.475,0-54.782-20.964-60.268-49.923l-32.136-169.655
	c-2.286-12.07,6.969-23.243,19.254-23.243h311.258c12.285,0,21.54,11.173,19.254,23.243l-32.136,169.655
	C433.74,448.437,408.432,469.401,378.958,469.401z"/>
<path style="opacity:0.1;enable-background:new    ;" d="M439.225,419.477l8.574-45.263c-30.466-8.456-63.52-4.565-91.594,11.701
	l0,0c-36.941,21.405-82.513,21.405-119.454,0l0,0c-28.073-16.266-61.127-20.157-91.594-11.701l8.574,45.263
	c5.485,28.96,30.793,49.923,60.268,49.923h164.959C408.432,469.401,433.74,448.437,439.225,419.477z"/>
<g>
	<ellipse style="fill:#FFFFFF;" cx="207.79" cy="320.79" rx="32.724" ry="26.06"/>
	<ellipse style="fill:#FFFFFF;" cx="385.16" cy="320.79" rx="32.724" ry="26.06"/>
</g>
<g>
	<path style="fill:#5D6671;" d="M226.862,302.289c-4.143,0-7.5-3.358-7.5-7.5v-11.556c0-4.142,3.357-7.5,7.5-7.5s7.5,3.358,7.5,7.5
		v11.556C234.362,298.931,231.005,302.289,226.862,302.289z"/>
	<path style="fill:#5D6671;" d="M366.093,302.289c-4.143,0-7.5-3.358-7.5-7.5v-11.556c0-4.142,3.357-7.5,7.5-7.5s7.5,3.358,7.5,7.5
		v11.556C373.593,298.931,370.235,302.289,366.093,302.289z"/>
	<path style="fill:#5D6671;" d="M296.478,311.163c-9.201,0-17.951-3.985-24.008-10.934c-2.721-3.123-2.396-7.86,0.727-10.581
		c3.122-2.722,7.86-2.397,10.582,0.726c3.206,3.679,7.835,5.789,12.699,5.789c4.865,0,9.494-2.11,12.7-5.789
		c2.723-3.123,7.459-3.448,10.582-0.726c3.123,2.721,3.447,7.459,0.727,10.581C314.43,307.177,305.68,311.163,296.478,311.163z"/>
</g>
<path style="fill:#C3E9F1;" d="M363.05,512H229.906c-8.785,0-15.907-7.122-15.907-15.907v-26.692h164.959v26.692
	C378.958,504.878,371.836,512,363.05,512z"/>
<path style="opacity:0.1;enable-background:new    ;" d="M203.489,226.58h-62.64c-12.285,0-21.54,11.173-19.254,23.243
	l32.136,169.655c5.485,28.96,30.793,49.923,60.268,49.923h41.878C217.691,429.271,203.247,290.302,203.489,226.58z"/>
<g>
</g>
<g>
</g>
<g>
</g>
<g>
</g>
<g>
</g>
<g>
</g>
<g>
</g>
<g>
</g>
<g>
</g>
<g>
</g>
<g>
</g>
<g>
</g>
<g>
</g>
<g>
</g>
<g>
</g>
</svg>
