<?xml version="1.0" encoding="iso-8859-1"?>
<!-- Generator: Adobe Illustrator 19.0.0, SVG Export Plug-In . SVG Version: 6.00 Build 0)  -->
<svg version="1.1" id="Capa_1" xmlns="http://www.w3.org/2000/svg" xmlns:xlink="http://www.w3.org/1999/xlink" x="0px" y="0px"
	 viewBox="0 0 512 512" style="enable-background:new 0 0 512 512;" xml:space="preserve">
<path style="fill:#D6D8DB;" d="M444.057,479.067H302.359V32.933h151.613c33.452,0,59.976,28.21,57.916,61.599L490.884,435.04
	C489.358,459.782,468.846,479.067,444.057,479.067z"/>
<path style="fill:#F0F1F1;" d="M302.359,184.553H45.495c-10.471,0-18.96-8.489-18.96-18.96V51.892c0-10.471,8.488-18.96,18.96-18.96
	h256.863v151.621H302.359z"/>
<path style="fill:#F8D662;" d="M491.936,417.978l-1.053,17.061c-1.526,24.742-22.038,44.027-46.827,44.027H54.064
	c-10.471,0-18.96-8.488-18.96-18.96v-23.17c0-10.471,8.488-18.96,18.96-18.96h437.872V417.978z"/>
<path style="fill:#BA8E79;" d="M226.77,290.73H86.477c-10.931,0-19.792,8.861-19.792,19.792v87.665
	c0,10.931,8.861,19.792,19.792,19.792H226.77c10.931,0,19.792-8.861,19.792-19.792v-87.665
	C246.562,299.591,237.701,290.73,226.77,290.73z"/>
<path style="fill:#5D6671;" d="M0,298.182v57.901c0,8.164,6.618,14.782,14.782,14.782l0,0c8.164,0,14.782-6.618,14.782-14.782
	v-52.291c0-7.214,5.848-13.062,13.062-13.062H224.6v-17.088c0-6.891-5.586-12.477-12.477-12.477H37.017
	C16.573,261.165,0,277.738,0,298.182z"/>
<path style="fill:#F8D662;" d="M192.749,230.687h-72.252c-6.81,0-12.331-5.521-12.331-12.331v-33.802h96.914v33.802
	C205.08,225.166,199.56,230.687,192.749,230.687z"/>
<path style="fill:#BA8E79;" d="M124.816,108.743h177.543V76.179H84.267c-5.772,0-8.292,7.292-3.752,10.856L95.07,98.462
	C103.555,105.123,114.029,108.743,124.816,108.743z"/>
<path style="opacity:0.1;enable-background:new    ;" d="M35.104,436.938v23.17c0,10.471,8.488,18.96,18.96,18.96h87.642
	c-15.821-13.835-21.166-40.489-22.794-61.089H54.064C43.593,417.978,35.104,426.467,35.104,436.938z"/>
<path style="opacity:0.1;enable-background:new    ;" d="M26.536,51.892v113.701c0,10.471,8.488,18.96,18.96,18.96h98.743
	c-34.475-33.147-41.627-113.742-42.686-151.62H45.495C35.024,32.933,26.536,41.421,26.536,51.892z"/>
<path style="opacity:0.1;enable-background:new    ;" d="M108.166,184.553v33.802c0,6.81,5.521,12.331,12.331,12.331h22.564
	c-6.369-9.443-8.888-21.388-9.854-32.031h71.873v-14.103L108.166,184.553L108.166,184.553z"/>
<g style="opacity:0.1;">
	<path d="M210.081,361.854H193.65c-4.142,0-7.5-3.358-7.5-7.5s3.358-7.5,7.5-7.5h16.431c4.142,0,7.5,3.358,7.5,7.5
		S214.223,361.854,210.081,361.854z"/>
	<path d="M210.081,335.424H193.65c-4.142,0-7.5-3.358-7.5-7.5s3.358-7.5,7.5-7.5h16.431c4.142,0,7.5,3.358,7.5,7.5
		S214.223,335.424,210.081,335.424z"/>
	<path d="M210.081,388.284H193.65c-4.142,0-7.5-3.358-7.5-7.5s3.358-7.5,7.5-7.5h16.431c4.142,0,7.5,3.358,7.5,7.5
		S214.223,388.284,210.081,388.284z"/>
</g>
<path style="opacity:0.1;enable-background:new    ;" d="M140.437,417.978c-23.235-27.476-25.624-94.385-20.66-127.249h-33.3
	c-10.931,0-19.792,8.861-19.792,19.792v87.665c0,10.931,8.861,19.792,19.792,19.792H140.437z"/>
<path style="fill:#FFFFFF;" d="M398.851,320.558h-19.668c-8.655,0-15.671-7.016-15.671-15.671v-127.36
	c0-8.655,7.016-15.671,15.671-15.671h19.668c8.655,0,15.671,7.016,15.671,15.671v127.36
	C414.522,313.542,407.506,320.558,398.851,320.558z"/>
<path style="fill:#BA8E79;" d="M363.513,214.651v90.237c0,8.655,7.016,15.671,15.671,15.671h19.668
	c8.655,0,15.671-7.016,15.671-15.671v-90.237H363.513z"/>
<g>
	<rect x="363.51" y="207.15" style="fill:#5D6671;" width="51.01" height="15"/>
	<rect x="363.51" y="259.94" style="fill:#5D6671;" width="51.01" height="15"/>
</g>
<g style="opacity:0.2;">
	<path d="M439.155,362.854h-75.643c-4.143,0-7.5-3.358-7.5-7.5s3.357-7.5,7.5-7.5h75.643c4.143,0,7.5,3.358,7.5,7.5
		S443.298,362.854,439.155,362.854z"/>
	<path d="M414.522,390.266h-51.01c-4.143,0-7.5-3.358-7.5-7.5s3.357-7.5,7.5-7.5h51.01c4.143,0,7.5,3.358,7.5,7.5
		S418.665,390.266,414.522,390.266z"/>
</g>
<path style="fill:#FFFFFF;" d="M434.334,76.179h-56.823c-7.731,0-13.999,6.268-13.999,13.999v24.002
	c0,7.731,6.268,13.999,13.999,13.999h56.823c7.731,0,13.999-6.268,13.999-13.999V90.178
	C448.333,82.447,442.066,76.179,434.334,76.179z"/>
<g>
</g>
<g>
</g>
<g>
</g>
<g>
</g>
<g>
</g>
<g>
</g>
<g>
</g>
<g>
</g>
<g>
</g>
<g>
</g>
<g>
</g>
<g>
</g>
<g>
</g>
<g>
</g>
<g>
</g>
</svg>
