<?xml version="1.0" encoding="iso-8859-1"?>
<!-- Generator: Adobe Illustrator 19.0.0, SVG Export Plug-In . SVG Version: 6.00 Build 0)  -->
<svg version="1.1" id="Capa_1" xmlns="http://www.w3.org/2000/svg" xmlns:xlink="http://www.w3.org/1999/xlink" x="0px" y="0px"
	 viewBox="0 0 512 512" style="enable-background:new 0 0 512 512;" xml:space="preserve">
<path style="fill:#5D6671;" d="M165.922,311.234h-65.887c-7.668,0-13.883-6.216-13.883-13.883l0,0
	c0-7.668,6.216-13.884,13.883-13.884h65.887V311.234z"/>
<path style="fill:#D6D8DB;" d="M353.884,449.964H207.73c-8.904,0-16.122-7.218-16.122-16.122c0-8.904,7.218-16.122,16.122-16.122
	h146.154c8.904,0,16.122,7.218,16.122,16.122S362.788,449.964,353.884,449.964z"/>
<path style="opacity:0.1;enable-background:new    ;" d="M353.884,449.964H207.73c-8.904,0-16.122-7.218-16.122-16.122
	c0-8.904,7.218-16.122,16.122-16.122h146.154c8.904,0,16.122,7.218,16.122,16.122S362.788,449.964,353.884,449.964z"/>
<g>
	<path style="fill:#D6D8DB;" d="M190.646,512c-1.335,0-2.69-0.166-4.042-0.516c-8.621-2.227-13.805-11.02-11.578-19.641
		l44.518-172.371c2.226-8.621,11.017-13.809,19.641-11.578c8.621,2.227,13.805,11.02,11.578,19.641l-44.518,172.37
		C204.367,507.174,197.82,512,190.646,512z"/>
	<path style="fill:#D6D8DB;" d="M369.737,506.718c-7.176,0-13.721-4.825-15.599-12.094l-43.286-167.089
		c-2.227-8.621,2.957-17.415,11.578-19.641c8.624-2.225,17.415,2.958,19.641,11.578l43.286,167.089
		c2.227,8.621-2.957,17.414-11.578,19.641C372.427,506.551,371.071,506.718,369.737,506.718z"/>
</g>
<path style="opacity:0.1;enable-background:new    ;" d="M239.184,307.894c-8.625-2.231-17.415,2.957-19.641,11.578l-15.317,59.307
	c7.438,1.946,15.242,2.986,23.29,2.986h9.24l14.006-54.23C252.989,318.915,247.805,310.121,239.184,307.894z"/>
<path style="opacity:0.1;enable-background:new    ;" d="M342.071,319.472c-2.226-8.62-11.017-13.803-19.641-11.578
	c-8.621,2.227-13.805,11.02-11.578,19.641l14.049,54.23h9.197c8.064,0,15.883-1.044,23.334-2.998L342.071,319.472z"/>
<path style="fill:#7CD9D2;" d="M334.098,359.385H227.516c-50.672,0-91.75-41.078-91.75-91.75v-11.744
	c0-5.045,4.09-9.135,9.135-9.135h271.813c5.045,0,9.135,4.09,9.135,9.135v11.744C425.849,318.307,384.771,359.385,334.098,359.385z"
	/>
<path style="opacity:0.1;enable-background:new    ;" d="M146.768,311.234c15.515,28.674,45.856,48.152,80.748,48.152h106.582
	c34.892,0,65.233-19.477,80.748-48.152H146.768z"/>
<path style="opacity:0.1;enable-background:new    ;" d="M144.901,246.756c-5.045,0-9.135,4.09-9.135,9.135v11.744
	c0,50.672,41.078,91.75,91.751,91.75h31.023c-50.969-16.993-54.799-82.129-54.418-112.629L144.901,246.756L144.901,246.756z"/>
<path style="fill:#5D6671;" d="M130.946,92.294L119.76,81.108c-7.071-7.071-7.529-18.121-1.02-24.63l31.866-31.866
	c6.509-6.51,17.559-6.053,24.631,1.019l11.185,11.185l-10.606,10.606l-11.185-11.185c-1.376-1.375-2.993-1.442-3.418-1.02
	l-31.866,31.865c-0.422,0.423-0.357,2.042,1.02,3.418l11.186,11.186L130.946,92.294z"/>
<path style="fill:#7CD9D2;" d="M196.367,26.873l-75.365,75.365c-35.831,35.831-35.831,93.924,0,129.755l8.304,8.304
	c3.567,3.567,9.351,3.567,12.919,0L334.426,48.096c3.567-3.567,3.567-9.351,0-12.919l-8.304-8.304
	C290.291-8.958,232.198-8.958,196.367,26.873z"/>
<path style="opacity:0.1;enable-background:new    ;" d="M132.916,90.324l-11.913,11.913c-35.831,35.831-35.831,93.924,0,129.755
	l8.304,8.304c3.567,3.567,9.351,3.567,12.919,0l39.611-39.611C158.399,190.511,127.08,128.403,132.916,90.324z"/>
<circle style="fill:#D6D8DB;" cx="135.77" cy="246.76" r="18.394"/>
<path style="fill:#F18290;" d="M389.444,213.452H244.699c-5.272,0-9.546,4.274-9.546,9.546v14.212c0,5.272,4.274,9.546,9.546,9.546
	h144.745c5.272,0,9.546-4.274,9.546-9.546v-14.212C398.991,217.726,394.716,213.452,389.444,213.452z"/>
<path style="opacity:0.1;enable-background:new    ;" d="M276.236,246.756c-3.812-8.958-4.375-23.043-1.938-33.304h-29.599
	c-5.272,0-9.546,4.274-9.546,9.546v14.212c0,5.272,4.274,9.546,9.546,9.546L276.236,246.756L276.236,246.756z"/>
<g>
	<path style="fill:#C1C6CA;" d="M366.964,191.227c-1.919,0-3.838-0.732-5.303-2.196c-2.929-2.929-2.929-7.678,0-10.607
		c3.647-3.647,3.648-9.583,0-13.23c-4.6-4.6-7.134-10.716-7.134-17.222c0-6.505,2.534-12.622,7.134-17.222
		c2.929-2.928,7.677-2.928,10.607,0c2.929,2.929,2.928,7.678-0.001,10.607c-1.767,1.767-2.74,4.116-2.74,6.614
		c0,2.499,0.973,4.848,2.74,6.615c9.496,9.496,9.496,24.946,0.001,34.443C370.803,190.495,368.883,191.227,366.964,191.227z"/>
	<path style="fill:#C1C6CA;" d="M328.928,191.227c-1.919,0-3.838-0.732-5.303-2.196c-2.929-2.929-2.929-7.678,0-10.607
		c3.647-3.647,3.648-9.583,0-13.23c-9.496-9.496-9.496-24.947,0-34.443c2.929-2.929,7.678-2.929,10.607,0
		c2.929,2.929,2.929,7.678,0,10.606c-3.648,3.648-3.647,9.583,0,13.23c9.495,9.496,9.495,24.946,0,34.443
		C332.767,190.495,330.847,191.227,328.928,191.227z"/>
	<path style="fill:#C1C6CA;" d="M290.892,191.227c-1.919,0-3.839-0.732-5.303-2.197c-2.929-2.929-2.929-7.678,0-10.606
		c1.767-1.767,2.74-4.116,2.74-6.615c0-2.499-0.973-4.848-2.74-6.614c-9.496-9.497-9.496-24.948,0-34.443
		c2.929-2.929,7.678-2.929,10.606,0c2.929,2.929,2.929,7.678,0,10.606c-3.647,3.648-3.647,9.583,0.001,13.23
		c4.6,4.6,7.133,10.716,7.133,17.221s-2.534,12.622-7.134,17.222C294.73,190.495,292.811,191.227,290.892,191.227z"/>
</g>
<circle style="fill:#5D6671;" cx="369.31" cy="486.56" r="25.439"/>
<circle style="fill:#FFFFFF;" cx="369.31" cy="486.56" r="7.473"/>
<g>
</g>
<g>
</g>
<g>
</g>
<g>
</g>
<g>
</g>
<g>
</g>
<g>
</g>
<g>
</g>
<g>
</g>
<g>
</g>
<g>
</g>
<g>
</g>
<g>
</g>
<g>
</g>
<g>
</g>
</svg>
