<?xml version="1.0" encoding="iso-8859-1"?>
<!-- Generator: Adobe Illustrator 19.0.0, SVG Export Plug-In . SVG Version: 6.00 Build 0)  -->
<svg version="1.1" id="Capa_1" xmlns="http://www.w3.org/2000/svg" xmlns:xlink="http://www.w3.org/1999/xlink" x="0px" y="0px"
	 viewBox="0 0 512 512" style="enable-background:new 0 0 512 512;" xml:space="preserve">
<path style="fill:#C1C6CA;" d="M433.118,505.338H78.882c-7.465,0-13.516-6.051-13.516-13.516v-5.945
	c0-7.465,6.051-13.516,13.516-13.516h354.235c7.465,0,13.516,6.051,13.516,13.516v5.945
	C446.633,499.287,440.582,505.338,433.118,505.338z"/>
<path style="fill:#C3E9F1;" d="M260.697,143.38c-37.621,3.291-70.905-24.638-74.197-62.259
	c-3.291-37.62,24.638-70.905,62.259-74.196s70.905,24.638,74.197,62.258C326.247,106.804,298.318,140.089,260.697,143.38z
	 M251.731,40.896c-18.889,1.653-32.912,18.365-31.26,37.254c1.653,18.89,18.365,32.913,37.254,31.26s32.913-18.365,31.26-37.254
	C287.333,53.266,270.621,39.243,251.731,40.896z"/>
<path style="opacity:0.1;enable-background:new    ;" d="M260.697,143.38c37.621-3.291,65.55-36.576,62.259-74.197
	c-0.495-5.652-1.678-11.079-3.439-16.22c-8.774-0.689-17.885-1.033-27.365-1.033c-3.888,0-7.869,0.067-11.915,0.187
	c4.856,5.364,8.07,12.29,8.748,20.038c1.652,18.89-12.371,35.602-31.26,37.254c-18.889,1.653-35.601-12.37-37.254-31.26
	c-0.677-7.735,1.278-15.104,5.117-21.224c-13.595,2.01-26.426,4.605-38.537,7.764c-0.824,5.326-1.041,10.829-0.551,16.433
	C189.792,118.743,223.076,146.671,260.697,143.38z"/>
<path style="fill:#8DB5EA;" d="M449.558,156.153c7.065-0.618,10.907-8.632,6.898-14.482
	c-45.707-66.699-122.274-78.781-202.189-71.79c-79.915,6.992-153.22,32.186-186.651,105.808c-2.932,6.457,2.243,13.682,9.308,13.064
	L449.558,156.153z"/>
<path style="opacity:0.1;enable-background:new    ;" d="M165.041,88.43c-42.196,15.767-77.147,42.602-97.425,87.26
	c-2.932,6.457,2.243,13.682,9.308,13.064l123.635-10.816C171.7,161.017,158.546,112.057,165.041,88.43z"/>
<path style="fill:#8DB5EA;" d="M83.265,253.522H12.348C5.528,253.522,0,247.994,0,241.174v-14.293
	c0-6.82,5.528-12.348,12.348-12.348h70.917V253.522z"/>
<path style="opacity:0.1;enable-background:new    ;" d="M39.649,253.522h43.615v-38.989H34.576
	C37.534,227.309,39.23,240.368,39.649,253.522z"/>
<path style="fill:#8DB5EA;" d="M428.735,253.522h70.917c6.82,0,12.348-5.528,12.348-12.348v-14.293
	c0-6.82-5.528-12.348-12.348-12.348h-70.917V253.522z"/>
<path style="opacity:0.1;enable-background:new    ;" d="M472.35,253.522h-43.615v-38.989h48.689
	C474.466,227.309,472.77,240.368,472.35,253.522z"/>
<path style="fill:#C3E9F1;" d="M464.284,180.609L464.284,180.609c-10.748,25.063-16.29,52.049-16.29,79.32v142.4
	c0,22.907-18.57,41.477-41.477,41.477H256H105.484c-22.907,0-41.477-18.57-41.477-41.477v-142.4c0-27.271-5.542-54.257-16.291-79.32
	l0,0c-2.82-6.576,2.003-13.893,9.159-13.893h398.25C462.28,166.716,467.104,174.033,464.284,180.609z"/>
<path style="opacity:0.1;enable-background:new    ;" d="M64.007,395.883v6.446c0,22.907,18.57,41.477,41.477,41.477H256h150.516
	c22.907,0,41.477-18.57,41.477-41.477v-6.446H64.007z"/>
<g>
	<path style="fill:#BA8E79;" d="M353.426,260.375L353.426,260.375c14.204,0,25.719-11.515,25.719-25.719V166.34
		c0-9.06-7.345-16.405-16.405-16.405h-18.629c-9.06,0-16.405,7.345-16.405,16.405v68.316
		C327.707,248.86,339.222,260.375,353.426,260.375z"/>
	<path style="fill:#BA8E79;" d="M277.557,227.393L277.557,227.393c14.204,0,25.719-11.515,25.719-25.719V166.34
		c0-9.06-7.345-16.405-16.404-16.405h-18.629c-9.06,0-16.404,7.345-16.404,16.405v35.333
		C251.838,215.878,263.353,227.393,277.557,227.393z"/>
</g>
<g>
	<ellipse style="fill:#F18290;" cx="165.31" cy="350.55" rx="33.462" ry="26.647"/>
	<ellipse style="fill:#F18290;" cx="346.69" cy="350.55" rx="33.462" ry="26.647"/>
</g>
<g>
	<path style="fill:#5D6671;" d="M170.906,326.587c-4.143,0-7.5-3.358-7.5-7.5v-14.363c0-4.142,3.357-7.5,7.5-7.5s7.5,3.358,7.5,7.5
		v14.363C178.406,323.229,175.049,326.587,170.906,326.587z"/>
	<path style="fill:#5D6671;" d="M256,354.32L256,354.32c-13.389,0-24.243-10.854-24.243-24.243v-17.625
		c0-3.655,2.963-6.618,6.618-6.618h35.251c3.655,0,6.618,2.963,6.618,6.618v17.625C280.243,343.466,269.389,354.32,256,354.32z"/>
	<path style="fill:#5D6671;" d="M341.094,326.587c-4.143,0-7.5-3.358-7.5-7.5v-14.363c0-4.142,3.357-7.5,7.5-7.5
		c4.142,0,7.5,3.358,7.5,7.5v14.363C348.594,323.229,345.236,326.587,341.094,326.587z"/>
	<rect x="105.48" y="443.81" style="fill:#5D6671;" width="301.03" height="28.556"/>
</g>
<path style="opacity:0.1;enable-background:new    ;" d="M56.875,166.716c-7.155,0-11.979,7.317-9.159,13.893l0,0
	c10.748,25.063,16.291,52.049,16.291,79.32v142.4c0,22.907,18.57,41.477,41.477,41.477h112.555
	c-74.281-52.692-72.696-225.053-71.917-277.09H56.875z"/>
<path style="opacity:0.1;enable-background:new    ;" d="M185.22,472.361H78.882c-7.465,0-13.516,6.051-13.516,13.516v5.945
	c0,7.465,6.051,13.516,13.516,13.516h113.105C181.411,494.047,182.861,479.54,185.22,472.361z"/>
<g>
</g>
<g>
</g>
<g>
</g>
<g>
</g>
<g>
</g>
<g>
</g>
<g>
</g>
<g>
</g>
<g>
</g>
<g>
</g>
<g>
</g>
<g>
</g>
<g>
</g>
<g>
</g>
<g>
</g>
</svg>
