<?xml version="1.0" encoding="iso-8859-1"?>
<!-- Generator: Adobe Illustrator 19.0.0, SVG Export Plug-In . SVG Version: 6.00 Build 0)  -->
<svg version="1.1" id="Capa_1" xmlns="http://www.w3.org/2000/svg" xmlns:xlink="http://www.w3.org/1999/xlink" x="0px" y="0px"
	 viewBox="0 0 512.001 512.001" style="enable-background:new 0 0 512.001 512.001;" xml:space="preserve">
<path style="fill:#F0F1F1;" d="M176.338,56.504H62.181c-15.005,0-28.851,8.068-36.249,21.123l0,0
	c-11.37,20.065-11.37,44.626,0,64.69l11.97,21.123h162.715l11.97-21.123c11.37-20.065,11.37-44.626,0-64.69l0,0
	C205.189,64.573,191.343,56.504,176.338,56.504z"/>
<path style="fill:#8DB5EA;" d="M218.393,455.496H20.125c-12.563,0-22.053-11.386-19.79-23.743l40.753-222.568H197.43l40.753,222.568
	C240.446,444.11,230.956,455.496,218.393,455.496z"/>
<polygon style="fill:#C3E9F1;" points="160.35,455.496 78.169,455.496 93.202,209.185 145.316,209.185 "/>
<path style="fill:#BA8E79;" d="M238.184,431.752l-17.888-97.691c-46.035-7.162-106.361,12.566-202.169,0.524L0.335,431.752
	c-2.263,12.357,7.228,23.743,19.791,23.743h198.268C230.956,455.496,240.446,444.11,238.184,431.752z"/>
<path style="opacity:0.1;enable-background:new    ;" d="M200.861,227.92l-3.431-18.735H41.089L0.335,431.752
	c-2.263,12.357,7.228,23.743,19.791,23.743h87.618C78.912,394.032,70.401,276.93,76.011,232.092
	c0.299-2.386,2.319-4.172,4.724-4.172H200.861z"/>
<g style="opacity:0.1;">
	<circle cx="120.96" cy="418.15" r="7.466"/>
	<circle cx="185.01" cy="370.04" r="7.466"/>
	<circle cx="53.994" cy="386.4" r="7.466"/>
</g>
<path style="fill:#D6D8DB;" d="M201.414,209.185H37.104c-9.093,0-16.465-7.372-16.465-16.465v-12.814
	c0-9.093,7.372-16.465,16.465-16.465h164.31c9.093,0,16.465,7.371,16.465,16.465v12.814
	C217.879,201.813,210.508,209.185,201.414,209.185z"/>
<path style="opacity:0.1;enable-background:new    ;" d="M82.538,56.504H62.181c-15.005,0-28.851,8.068-36.249,21.123
	c-11.37,20.065-11.37,44.625,0,64.69l11.97,21.123h57.11C66.395,127.101,68.317,74.16,82.538,56.504z"/>
<g style="opacity:0.1;">
	<circle cx="119.26" cy="76.04" r="7.466"/>
	<circle cx="89.96" cy="76.04" r="7.466"/>
	<circle cx="148.55" cy="76.04" r="7.466"/>
</g>
<path style="opacity:0.1;enable-background:new    ;" d="M37.104,163.441c-9.093,0-16.465,7.372-16.465,16.465v12.814
	c0,9.093,7.372,16.465,16.465,16.465h60.855c-8.378-17.956-7.122-35.89-2.947-45.744L37.104,163.441L37.104,163.441z"/>
<g style="opacity:0.1;">
	<rect x="111.76" y="163.44" width="15" height="45.744"/>
	<rect x="59.799" y="163.44" width="15" height="45.744"/>
	<rect x="163.72" y="163.44" width="15" height="45.744"/>
</g>
<path style="fill:#F0F1F1;" d="M449.819,56.504H335.662c-15.005,0-28.851,8.068-36.249,21.123l0,0
	c-11.37,20.065-11.37,44.626,0,64.69l11.97,21.123h162.715l11.97-21.123c11.37-20.065,11.37-44.626,0-64.69l0,0
	C478.67,64.573,464.824,56.504,449.819,56.504z"/>
<path style="fill:#8DB5EA;" d="M491.875,455.496H293.607c-12.563,0-22.053-11.386-19.79-23.743l40.754-222.568h156.342
	l40.753,222.568C513.928,444.11,504.437,455.496,491.875,455.496z"/>
<polygon style="fill:#C3E9F1;" points="433.831,455.496 351.65,455.496 366.684,209.185 418.798,209.185 "/>
<path style="fill:#F0F1F1;" d="M511.665,431.752l-17.888-97.691c-48.978,5.986-114.476-5.537-202.169,0.524l-17.792,97.167
	c-2.263,12.357,7.228,23.743,19.791,23.743h198.268C504.437,455.496,513.928,444.11,511.665,431.752z"/>
<path style="opacity:0.1;enable-background:new    ;" d="M474.342,227.92l-3.431-18.735H314.57l-40.754,222.567
	c-2.263,12.357,7.228,23.743,19.791,23.743h87.618c-28.831-61.464-37.343-178.566-31.732-223.403
	c0.299-2.386,2.319-4.172,4.724-4.172L474.342,227.92L474.342,227.92z"/>
<g style="opacity:0.1;">
	<circle cx="368.49" cy="418.15" r="7.466"/>
	<circle cx="420.8" cy="370.04" r="7.466"/>
	<circle cx="466.88" cy="403.22" r="7.466"/>
	<circle cx="327.23" cy="386.4" r="7.466"/>
</g>
<path style="fill:#D6D8DB;" d="M474.896,209.185h-164.31c-9.093,0-16.465-7.372-16.465-16.465v-12.814
	c0-9.093,7.372-16.465,16.465-16.465h164.31c9.093,0,16.465,7.371,16.465,16.465v12.814
	C491.361,201.813,483.989,209.185,474.896,209.185z"/>
<path style="opacity:0.1;enable-background:new    ;" d="M356.02,56.504h-20.358c-15.005,0-28.851,8.068-36.249,21.123
	c-11.37,20.065-11.37,44.625,0,64.69l11.97,21.123h57.11C339.877,127.101,341.799,74.16,356.02,56.504z"/>
<g style="opacity:0.1;">
	<circle cx="392.74" cy="76.04" r="7.466"/>
	<circle cx="363.45" cy="76.04" r="7.466"/>
	<circle cx="422.04" cy="76.04" r="7.466"/>
</g>
<path style="opacity:0.1;enable-background:new    ;" d="M310.586,163.441c-9.093,0-16.465,7.372-16.465,16.465v12.814
	c0,9.093,7.372,16.465,16.465,16.465h60.855c-8.378-17.956-7.122-35.89-2.947-45.744L310.586,163.441L310.586,163.441z"/>
<g style="opacity:0.1;">
	<rect x="385.24" y="163.44" width="15" height="45.744"/>
	<rect x="333.28" y="163.44" width="15" height="45.744"/>
	<rect x="437.2" y="163.44" width="15" height="45.744"/>
</g>
<g>
</g>
<g>
</g>
<g>
</g>
<g>
</g>
<g>
</g>
<g>
</g>
<g>
</g>
<g>
</g>
<g>
</g>
<g>
</g>
<g>
</g>
<g>
</g>
<g>
</g>
<g>
</g>
<g>
</g>
</svg>
