<?xml version="1.0" encoding="iso-8859-1"?>
<!-- Generator: Adobe Illustrator 19.0.0, SVG Export Plug-In . SVG Version: 6.00 Build 0)  -->
<svg version="1.1" id="Capa_1" xmlns="http://www.w3.org/2000/svg" xmlns:xlink="http://www.w3.org/1999/xlink" x="0px" y="0px"
	 viewBox="0 0 512 512" style="enable-background:new 0 0 512 512;" xml:space="preserve">
<path style="fill:#8DB5EA;" d="M268.976,405.454H80.713v19.608c0,3.193,2.588,5.781,5.781,5.781h176.701
	c3.193,0,5.781-2.588,5.781-5.781V405.454z"/>
<path style="opacity:0.15;enable-background:new    ;" d="M268.976,405.454H80.713v19.608c0,3.193,2.588,5.781,5.781,5.781h176.701
	c3.193,0,5.781-2.588,5.781-5.781V405.454z"/>
<path style="opacity:0.08;enable-background:new    ;" d="M118.911,405.454H80.713v19.608c0,3.193,2.588,5.781,5.781,5.781h38.525
	C121.698,426.773,118.911,415.384,118.911,405.454z"/>
<path style="opacity:0.08;enable-background:new    ;" d="M226.778,405.454h42.198v19.608c0,3.193-2.588,5.781-5.781,5.781H224.67
	C226.814,425.05,226.778,415.384,226.778,405.454z"/>
<path style="fill:#8DB5EA;" d="M275.169,405.454H74.52c-10.957,0-21.368-4.788-28.499-13.107l-43.915-51.23
	c-4.824-5.628-0.825-14.322,6.587-14.322h332.304c7.412,0,11.411,8.695,6.587,14.322l-43.915,51.23
	C296.536,400.666,286.126,405.454,275.169,405.454z"/>
<path style="opacity:0.08;enable-background:new    ;" d="M2.106,341.116l43.915,51.23c7.131,8.319,17.542,13.107,28.499,13.107
	h44.391c-23.796-13.967-48.99-56.787-52.318-78.66h-57.9C1.28,326.794-2.719,335.489,2.106,341.116z"/>
<path style="fill:#C3E9F1;" d="M275.169,327.179H74.52c-10.957,0-21.368-4.788-28.499-13.107l-43.915-51.23
	c-4.824-5.628-0.825-14.322,6.587-14.322h332.304c7.412,0,11.411,8.695,6.587,14.322l-43.915,51.23
	C296.536,322.391,286.126,327.179,275.169,327.179z"/>
<path style="opacity:0.08;enable-background:new    ;" d="M2.106,262.842l43.915,51.23c7.131,8.319,17.542,13.107,28.499,13.107
	h44.391c-23.796-13.967-48.99-56.787-52.318-78.66h-57.9C1.28,248.519-2.719,257.214,2.106,262.842z"/>
<path style="fill:#7CD9D2;" d="M275.169,248.904H74.52c-10.957,0-21.368-4.788-28.499-13.107l-43.915-51.23
	c-4.824-5.628-0.825-14.322,6.587-14.322h332.304c7.412,0,11.411,8.695,6.587,14.322l-43.915,51.23
	C296.536,244.116,286.126,248.904,275.169,248.904z"/>
<path style="opacity:0.08;enable-background:new    ;" d="M2.106,184.567l43.915,51.23c7.131,8.319,17.542,13.107,28.499,13.107
	h44.391c-23.796-13.967-48.99-56.787-52.318-78.66h-57.9C1.28,170.245-2.719,178.939,2.106,184.567z"/>
<path style="fill:#F0F1F1;" d="M275.169,170.629H74.52c-10.957,0-21.368-4.788-28.499-13.107l-43.915-51.23
	c-4.824-5.628-0.825-14.322,6.587-14.322h332.304c7.412,0,11.411,8.695,6.587,14.322l-43.915,51.23
	C296.536,165.841,286.126,170.629,275.169,170.629z"/>
<path style="opacity:0.08;enable-background:new    ;" d="M2.106,106.292l43.915,51.23c7.131,8.319,17.542,13.107,28.499,13.107
	h44.391c-23.796-13.966-48.99-56.787-52.318-78.66h-57.9C1.28,91.97-2.719,100.665,2.106,106.292z"/>
<path style="opacity:0.15;enable-background:new    ;" d="M303.668,157.522l43.915-51.23c4.824-5.628,0.825-14.322-6.587-14.322
	H236.073c-60.244,27.604-102.095,88.425-102.095,159.028c0,66.933,37.616,125.072,92.856,154.456h48.334
	c10.957,0,21.368-4.788,28.499-13.107l43.915-51.23c4.824-5.628,0.825-14.322-6.587-14.322h-60.559
	c8.974-1.273,17.255-5.751,23.231-12.722l43.915-51.23c4.824-5.628,0.825-14.322-6.587-14.322h-60.559
	c8.974-1.272,17.255-5.751,23.231-12.722l43.915-51.23c4.824-5.628,0.825-14.322-6.587-14.322h-60.559
	C289.411,168.972,297.692,164.494,303.668,157.522z"/>
<circle style="fill:#8DB5EA;" cx="337.16" cy="255.998" r="174.84"/>
<circle style="fill:#F0F1F1;" cx="337.16" cy="255.998" r="118.6"/>
<g>
	<ellipse style="fill:#F18290;" cx="268.79" cy="264.808" rx="25.23" ry="20.09"/>
	<ellipse style="fill:#F18290;" cx="405.52" cy="264.808" rx="25.23" ry="20.09"/>
</g>
<g>
	<path style="fill:#5D6671;" d="M283.49,252.264c-4.143,0-7.5-3.358-7.5-7.5v-8.908c0-4.142,3.357-7.5,7.5-7.5s7.5,3.358,7.5,7.5
		v8.908C290.99,248.906,287.633,252.264,283.49,252.264z"/>
	<path style="fill:#5D6671;" d="M390.82,252.264c-4.143,0-7.5-3.358-7.5-7.5v-8.908c0-4.142,3.357-7.5,7.5-7.5s7.5,3.358,7.5,7.5
		v8.908C398.32,248.906,394.963,252.264,390.82,252.264z"/>
	<path style="fill:#5D6671;" d="M337.155,259.104c-7.59,0-14.808-3.287-19.803-9.018c-2.722-3.123-2.396-7.86,0.727-10.582
		c3.122-2.721,7.859-2.396,10.582,0.727c2.145,2.462,5.241,3.874,8.494,3.874c3.254,0,6.35-1.412,8.493-3.872
		c2.722-3.124,7.46-3.449,10.582-0.728c3.123,2.721,3.449,7.459,0.728,10.582C351.965,255.817,344.747,259.104,337.155,259.104z"/>
</g>
<path style="opacity:0.08;enable-background:new    ;" d="M435.2,400.783C220.67,371.6,235.497,159.841,325.486,81.55
	c-91.121,6.007-163.175,81.807-163.175,174.448c0,96.564,78.28,174.844,174.844,174.844
	C373.492,430.842,407.238,419.755,435.2,400.783z"/>
<g>
</g>
<g>
</g>
<g>
</g>
<g>
</g>
<g>
</g>
<g>
</g>
<g>
</g>
<g>
</g>
<g>
</g>
<g>
</g>
<g>
</g>
<g>
</g>
<g>
</g>
<g>
</g>
<g>
</g>
</svg>
