<?xml version="1.0" encoding="iso-8859-1"?>
<!-- Generator: Adobe Illustrator 19.0.0, SVG Export Plug-In . SVG Version: 6.00 Build 0)  -->
<svg version="1.1" id="Capa_1" xmlns="http://www.w3.org/2000/svg" xmlns:xlink="http://www.w3.org/1999/xlink" x="0px" y="0px"
	 viewBox="0 0 512.001 512.001" style="enable-background:new 0 0 512.001 512.001;" xml:space="preserve">
<path style="fill:#D6D8DB;" d="M228.245,130.643c-0.836,0-1.687-0.141-2.519-0.438c-21.875-7.8-32.966-17.791-32.966-29.697
	c0-13.955,15.048-25.187,44.726-33.385c25.925-7.161,60.263-11.104,96.689-11.104c22.575,0,44.957,1.561,64.726,4.515
	c4.096,0.612,6.921,4.429,6.309,8.525c-0.612,4.097-4.423,6.923-8.526,6.31c-19.048-2.846-40.664-4.35-62.509-4.35
	c-81.795,0-126.415,19.48-126.415,29.489c0,2.736,4.845,9.093,23.004,15.568c3.901,1.391,5.936,5.682,4.545,9.584
	C234.215,128.729,231.326,130.643,228.245,130.643z"/>
<path style="fill:#BA8E79;" d="M368.64,2.168L368.64,2.168c-18.83-6.854-39.618,3.093-46.095,22.056l-79.509,232.779l58.017,21.116
	l88.72-229.426C397.001,30.003,387.471,9.022,368.64,2.168z"/>
<path style="opacity:0.1;enable-background:new    ;" d="M330.431,202.151c-15.196-15.292-36.236-24.767-59.499-24.767
	c-0.235,0-0.469,0.008-0.704,0.01l-27.192,79.609l58.017,21.116L330.431,202.151z"/>
<path style="fill:#F8D9B9;" d="M385.964,231.025c-12.549-0.603-24.405,2.144-34.756,7.422c-10.073,5.137-22.352,2.858-29.467-5.929
	c-15.381-18.996-38.882-31.143-65.23-31.143s-49.849,12.147-65.23,31.143c-7.115,8.787-19.394,11.066-29.467,5.929
	c-10.351-5.278-22.207-8.025-34.756-7.422c-35.552,1.708-64.334,30.805-65.681,66.372c-1.492,39.409,30.013,71.826,69.09,71.826
	c25.057,0,47.001-13.33,59.128-33.285c15.324,20.218,39.591,33.285,66.917,33.285s51.592-13.067,66.916-33.285
	c12.127,19.955,34.071,33.285,59.128,33.285c39.077,0,70.582-32.417,69.09-71.826C450.298,261.831,421.515,232.734,385.964,231.025z
	"/>
<path style="opacity:0.1;enable-background:new    ;" d="M143.856,232.249c-5.401-1.061-11.025-1.501-16.799-1.223
	c-35.552,1.708-64.334,30.805-65.681,66.372c-1.492,39.409,30.013,71.827,69.09,71.827c15.599,0,29.989-5.168,41.557-13.881
	C130.397,308.052,133.095,252.9,143.856,232.249z"/>
<g style="opacity:0.1;">
	<circle cx="397.79" cy="266.1" r="7.466"/>
	<circle cx="212.31" cy="288.26" r="7.466"/>
	<circle cx="263.47" cy="234.81" r="7.466"/>
	<circle cx="120.65" cy="258.64" r="7.466"/>
</g>
<path style="fill:#7CD9D2;" d="M148.323,512h215.355c11.048,0,21.89-3.135,31.161-9.145
	c63.878-41.41,108.107-110.556,115.61-190.388c1.222-13.001-9.098-24.21-22.157-24.21H23.709c-13.059,0-23.379,11.209-22.157,24.21
	c7.503,79.832,51.731,148.977,115.61,190.388C126.432,508.865,137.275,512,148.323,512z"/>
<path style="fill:#D6D8DB;" d="M334.175,144.998c-22.574,0-44.956-1.561-64.725-4.515c-4.097-0.612-6.922-4.429-6.31-8.525
	s4.432-6.919,8.525-6.31c19.048,2.846,40.664,4.35,62.509,4.35c81.795,0,126.415-19.48,126.415-29.489
	c0-2.736-4.845-9.093-23.004-15.568c-3.901-1.391-5.936-5.682-4.545-9.584c1.391-3.901,5.682-5.936,9.583-4.545
	c21.875,7.8,32.966,17.791,32.966,29.697c0,13.955-15.048,25.187-44.726,33.385C404.939,141.054,370.601,144.998,334.175,144.998z"
	/>
<circle style="fill:#FFFFFF;" cx="256" cy="365.22" r="32.397"/>
<g>
	<path style="fill:#F8D662;" d="M30.85,332.827c-9.704,0-18.405,4.272-24.342,11.031c4.119,18.56,10.238,36.367,18.152,53.165
		c2.004,0.388,4.073,0.598,6.19,0.598c17.892,0,32.397-14.504,32.397-32.397C63.247,347.332,48.743,332.827,30.85,332.827z"/>
	<path style="fill:#F8D662;" d="M481.15,332.827c9.704,0,18.405,4.272,24.342,11.031c-4.119,18.56-10.238,36.367-18.152,53.165
		c-2.005,0.388-4.073,0.598-6.19,0.598c-17.892,0-32.397-14.504-32.397-32.397C448.753,347.332,463.257,332.827,481.15,332.827z"/>
</g>
<path style="fill:#C3E9F1;" d="M435.182,415.53c-36.941-21.405-82.513-21.405-119.454,0l0,0c-36.941,21.405-82.513,21.405-119.454,0
	l0,0c-36.941-21.405-82.513-21.405-119.454,0l-31.094,18.017c19.042,27.501,43.335,51.091,71.437,69.309
	c9.27,6.009,20.113,9.145,31.161,9.145h215.355c11.048,0,21.891-3.135,31.161-9.145c28.102-18.218,52.395-41.807,71.437-69.309
	L435.182,415.53z"/>
<path style="opacity:0.1;enable-background:new    ;" d="M1.552,312.467c7.502,79.832,51.731,148.977,115.61,190.388
	c9.27,6.01,20.113,9.145,31.161,9.145h75.388c-70.246-42.985-107.418-156.038-112.419-223.743H23.709
	C10.65,288.257,0.33,299.466,1.552,312.467z"/>
<g>
</g>
<g>
</g>
<g>
</g>
<g>
</g>
<g>
</g>
<g>
</g>
<g>
</g>
<g>
</g>
<g>
</g>
<g>
</g>
<g>
</g>
<g>
</g>
<g>
</g>
<g>
</g>
<g>
</g>
</svg>
