<?xml version="1.0" encoding="iso-8859-1"?>
<!-- Generator: Adobe Illustrator 19.0.0, SVG Export Plug-In . SVG Version: 6.00 Build 0)  -->
<svg version="1.1" id="Capa_1" xmlns="http://www.w3.org/2000/svg" xmlns:xlink="http://www.w3.org/1999/xlink" x="0px" y="0px"
	 viewBox="0 0 512 512" style="enable-background:new 0 0 512 512;" xml:space="preserve">
<path style="opacity:0.1;enable-background:new    ;" d="M222.133,455.909l-12.605,0.029
	C213.508,456.385,217.702,456.394,222.133,455.909z"/>
<path style="fill:#BA8E79;" d="M493.176,157.172H18.824C8.428,157.172,0,148.744,0,138.347V51.036
	C0,40.64,8.428,32.212,18.824,32.212h474.351c10.396,0,18.824,8.428,18.824,18.824v87.311
	C512,148.744,503.572,157.172,493.176,157.172z"/>
<path style="opacity:0.1;enable-background:new    ;" d="M18.824,32.212C8.428,32.212,0,40.64,0,51.036v87.311
	c0,10.396,8.428,18.825,18.824,18.825h167.363c-48.773-34.948-56.435-94.924-52.46-124.96
	C133.727,32.212,18.824,32.212,18.824,32.212z"/>
<g style="opacity:0.1;">
	<path d="M512,87.74c-23.529,3.153-51.931,18.73-72.371,31.836c-18.1,11.607-36.445,25.512-49.877,37.596h23.234
		c6.84-5.501,14.748-11.451,23.599-17.555c29.744-20.513,56.673-33.563,75.415-36.711V87.74z"/>
	<path d="M0,112.108c14.049-3.905,32.993-6.463,53.993-9.297c60.794-8.206,136.071-18.376,171.803-70.599h-18.957
		C172.325,71.695,106.113,80.64,51.986,87.946C32.403,90.59,14.529,93.005,0,96.624V112.108z"/>
	<path d="M195.224,137.836c31.132-16.048,81.772-36.305,146.229-41.668c92.582-7.704,115.14-32.755,141.26-61.761
		c0.653-0.725,1.325-1.464,1.984-2.194H464.43c-22.26,23.973-45.912,42.491-124.222,49.007
		c-66.916,5.568-119.516,26.612-151.858,43.284c-19.827,10.221-37.525,21.772-50.59,32.668h24.807
		C171.519,151.027,182.365,144.465,195.224,137.836z"/>
</g>
<path style="fill:#D6D8DB;" d="M188.908,322.393h-6.63c-4.867,0-8.813-3.946-8.813-8.813v-62.41h-48.669v62.41
	c0,4.867-3.946,8.813-8.813,8.813h-6.63c-3.489,0-6.649,2.058-8.06,5.248l-22.408,50.658c-1.819,4.112-2.758,8.558-2.758,13.054
	v75.451c0,7.171,5.813,12.984,12.984,12.984h120.037c7.171,0,12.984-5.813,12.984-12.984v-75.451c0-4.496-0.939-8.942-2.758-13.054
	l-22.408-50.658C195.556,324.451,192.396,322.393,188.908,322.393z"/>
<path style="opacity:0.05;enable-background:new    ;" d="M142.555,275.396h30.91V251.17h-48.668v62.41
	c0,4.867-3.946,8.813-8.813,8.813h-6.63c-3.489,0-6.649,2.058-8.06,5.248l-22.408,50.658c-1.819,4.112-2.758,8.558-2.758,13.054
	v75.451c0,7.171,5.813,12.984,12.984,12.984h98.203C124.796,457.021,139.903,328.446,142.555,275.396z"/>
<path style="fill:#7CD9D2;" d="M175.4,251.17h-52.539c-7.683,0-13.912-6.229-13.912-13.912V85.092
	c0-7.683,6.229-13.912,13.912-13.912H175.4c7.683,0,13.912,6.229,13.912,13.912v152.166
	C189.312,244.942,183.083,251.17,175.4,251.17z"/>
<rect x="108.95" y="190.49" style="opacity:0.15;enable-background:new    ;" width="80.36" height="15"/>
<circle style="fill:#BA8E79;" cx="149.13" cy="110.82" r="16.13"/>
<circle style="opacity:0.1;enable-background:new    ;" cx="149.13" cy="110.82" r="16.13"/>
<path style="fill:#F8D662;" d="M379.347,251.17h-52.539c-7.683,0-13.912-6.229-13.912-13.912V85.092
	c0-7.683,6.229-13.912,13.912-13.912h52.539c7.683,0,13.912,6.229,13.912,13.912v152.166
	C393.259,244.942,387.03,251.17,379.347,251.17z"/>
<rect x="312.9" y="190.49" style="opacity:0.15;enable-background:new    ;" width="80.36" height="15"/>
<circle style="fill:#BA8E79;" cx="353.08" cy="110.82" r="16.13"/>
<circle style="opacity:0.1;enable-background:new    ;" cx="353.08" cy="110.82" r="16.13"/>
<path style="opacity:0.1;enable-background:new    ;" d="M326.808,251.17h52.539c4.562,0,8.599-2.206,11.136-5.599
	c-48.718-36.641-48.442-138.32-47.52-174.391h-16.155c-7.683,0-13.912,6.229-13.912,13.912v152.166
	C312.896,244.942,319.125,251.17,326.808,251.17z"/>
<g>
	<path style="fill:#5D6671;" d="M124.796,441.726c-4.142,0-7.5-3.358-7.5-7.5v-40.477c0-4.142,3.358-7.5,7.5-7.5
		c4.142,0,7.5,3.358,7.5,7.5v40.477C132.296,438.368,128.939,441.726,124.796,441.726z"/>
	<path style="fill:#5D6671;" d="M173.465,441.726c-4.142,0-7.5-3.358-7.5-7.5v-40.477c0-4.142,3.358-7.5,7.5-7.5s7.5,3.358,7.5,7.5
		v40.477C180.965,438.368,177.607,441.726,173.465,441.726z"/>
</g>
<path style="fill:#D6D8DB;" d="M377.412,396.022V251.17h-48.668v150.468c0,42.558,34.04,77.863,76.596,78.148
	c38.102,0.255,69.857-27.121,76.412-63.273c1.309-7.22-4.305-13.849-11.643-13.849h-86.055
	C380.385,402.663,377.412,399.69,377.412,396.022z"/>
<path style="opacity:0.1;enable-background:new    ;" d="M122.861,251.17H175.4c4.562,0,8.599-2.206,11.136-5.599
	c-48.718-36.641-48.442-138.32-47.52-174.391h-16.155c-7.683,0-13.912,6.229-13.912,13.912v152.166
	C108.949,244.942,115.178,251.17,122.861,251.17z"/>
<path style="opacity:0.05;enable-background:new    ;" d="M404.844,479.781c17.496,0.227,33.666-5.386,46.71-14.995
	c-125.577,17.167-105.051-56.307-105.051-189.39h30.909V251.17h-48.668v62.41v87.934C328.743,443.9,362.461,479.231,404.844,479.781
	z"/>
<g>
</g>
<g>
</g>
<g>
</g>
<g>
</g>
<g>
</g>
<g>
</g>
<g>
</g>
<g>
</g>
<g>
</g>
<g>
</g>
<g>
</g>
<g>
</g>
<g>
</g>
<g>
</g>
<g>
</g>
</svg>
