<?xml version="1.0" encoding="iso-8859-1"?>
<!-- Generator: Adobe Illustrator 19.0.0, SVG Export Plug-In . SVG Version: 6.00 Build 0)  -->
<svg version="1.1" id="Capa_1" xmlns="http://www.w3.org/2000/svg" xmlns:xlink="http://www.w3.org/1999/xlink" x="0px" y="0px"
	 viewBox="0 0 512 512" style="enable-background:new 0 0 512 512;" xml:space="preserve">
<path style="fill:#F0F1F1;" d="M467.901,398.311H44.099C19.744,398.311,0,378.568,0,354.213V125.895
	c0-24.355,19.744-44.099,44.099-44.099h423.802c24.355,0,44.099,19.744,44.099,44.099v228.318
	C512,378.568,492.256,398.311,467.901,398.311z"/>
<path style="fill:#C1C6CA;" d="M285.579,352.892H58.542c-7.977,0-14.443-6.466-14.443-14.443v-196.79
	c0-7.977,6.466-14.443,14.443-14.443h227.037c7.977,0,14.443,6.466,14.443,14.443v196.79
	C300.022,346.425,293.556,352.892,285.579,352.892z"/>
<g>
	<path style="fill:#FFFFFF;" d="M100.756,320.587c-1.919,0-3.839-0.732-5.304-2.197c-2.929-2.929-2.929-7.678,0-10.606
		l35.087-35.087c2.93-2.929,7.678-2.929,10.607,0s2.929,7.678,0,10.606L106.06,318.39
		C104.595,319.854,102.675,320.587,100.756,320.587z"/>
	<path style="fill:#FFFFFF;" d="M177.185,311.925c-1.919,0-3.839-0.732-5.304-2.197c-2.929-2.929-2.929-7.678,0-10.606
		l76.688-76.688c2.93-2.929,7.678-2.929,10.607,0s2.929,7.678,0,10.606l-76.688,76.688
		C181.023,311.193,179.104,311.925,177.185,311.925z"/>
</g>
<path style="fill:#8DB5EA;" d="M467.901,81.796H353.743v316.516h114.158c24.355,0,44.099-19.744,44.099-44.099V125.895
	C512,101.54,492.256,81.796,467.901,81.796z"/>
<g>
	<path style="fill:#5D6671;" d="M89.779,430.204H60.398c-9.002,0-16.299-7.297-16.299-16.299v-15.593h61.979v15.593
		C106.078,422.907,98.781,430.204,89.779,430.204z"/>
	<path style="fill:#5D6671;" d="M451.602,430.204h-29.381c-9.002,0-16.299-7.297-16.299-16.299v-15.593h61.979v15.593
		C467.901,422.907,460.604,430.204,451.602,430.204z"/>
</g>
<path style="fill:#C3E9F1;" d="M454.919,334.531h-44.095c-9.115,0-16.503-7.389-16.503-16.503V218.42
	c0-9.115,7.389-16.503,16.503-16.503h44.095c9.115,0,16.503,7.389,16.503,16.503v99.608
	C471.423,327.142,464.034,334.531,454.919,334.531z"/>
<g style="opacity:0.1;">
	<rect x="394.32" y="240.37" width="77.1" height="15"/>
	<rect x="394.32" y="281.08" width="77.1" height="15"/>
</g>
<path style="fill:#5D6671;" d="M464.228,127.216h-62.713c-3.973,0-7.195,3.221-7.195,7.195v18.996c0,3.973,3.221,7.195,7.195,7.195
	h62.713c3.974,0,7.195-3.221,7.195-7.195V134.41C471.423,130.437,468.202,127.216,464.228,127.216z"/>
<g>
	<ellipse style="fill:#F18290;" cx="96.31" cy="237.73" rx="27.899" ry="22.22"/>
	<ellipse style="fill:#F18290;" cx="247.54" cy="237.73" rx="27.899" ry="22.22"/>
</g>
<g>
	<path style="fill:#5D6671;" d="M100.979,218.999c-4.143,0-7.5-3.358-7.5-7.5v-11.975c0-4.142,3.357-7.5,7.5-7.5s7.5,3.358,7.5,7.5
		v11.975C108.479,215.642,105.121,218.999,100.979,218.999z"/>
	<path style="fill:#5D6671;" d="M171.926,240.875L171.926,240.875c-11.163,0-20.213-9.05-20.213-20.213v-14.695
		c0-3.047,2.47-5.518,5.518-5.518h29.39c3.047,0,5.518,2.47,5.518,5.518v14.695C192.139,231.826,183.089,240.875,171.926,240.875z"
		/>
	<path style="fill:#5D6671;" d="M242.873,218.999c-4.143,0-7.5-3.358-7.5-7.5v-11.975c0-4.142,3.357-7.5,7.5-7.5s7.5,3.358,7.5,7.5
		v11.975C250.373,215.642,247.016,218.999,242.873,218.999z"/>
</g>
<path style="opacity:0.1;enable-background:new    ;" d="M44.099,81.796C19.744,81.796,0,101.54,0,125.895v228.318
	c0,24.355,19.744,44.099,44.099,44.099h123.746C98.724,330.859,75.089,156.99,81.978,81.796H44.099z"/>
<g>
</g>
<g>
</g>
<g>
</g>
<g>
</g>
<g>
</g>
<g>
</g>
<g>
</g>
<g>
</g>
<g>
</g>
<g>
</g>
<g>
</g>
<g>
</g>
<g>
</g>
<g>
</g>
<g>
</g>
</svg>
