<?xml version="1.0" encoding="iso-8859-1"?>
<!-- Generator: Adobe Illustrator 19.0.0, SVG Export Plug-In . SVG Version: 6.00 Build 0)  -->
<svg version="1.1" id="Capa_1" xmlns="http://www.w3.org/2000/svg" xmlns:xlink="http://www.w3.org/1999/xlink" x="0px" y="0px"
	 viewBox="0 0 512 512" style="enable-background:new 0 0 512 512;" xml:space="preserve">
<circle style="fill:#F18290;" cx="300.06" cy="447.95" r="64.05"/>
<circle style="opacity:0.1;enable-background:new    ;" cx="300.06" cy="447.95" r="64.05"/>
<g style="opacity:0.1;">
	<circle cx="275.12" cy="461.89" r="7.399"/>
	<circle cx="309.41" cy="412.56" r="7.399"/>
	<circle cx="279.76" cy="428.93" r="7.399"/>
	<circle cx="305.53" cy="484.08" r="7.399"/>
	<circle cx="337.54" cy="434.5" r="7.399"/>
	<circle cx="318.74" cy="455.35" r="7.399"/>
</g>
<circle style="fill:#F18290;" cx="185.01" cy="447.95" r="64.05"/>
<path style="opacity:0.1;enable-background:new    ;" d="M185.013,512c12.242,0,23.678-3.438,33.405-9.396
	c-77.788-6.077-72.812-87.693-51.999-115.958c-26.305,7.969-45.458,32.394-45.458,61.301C120.961,483.323,149.638,512,185.013,512z"
	/>
<g style="opacity:0.2;">
	<path d="M195.839,466.273c-1.919,0-3.839-0.732-5.304-2.197l-21.651-21.651c-2.929-2.929-2.929-7.678,0-10.607
		c2.93-2.929,7.678-2.929,10.607,0l21.651,21.651c2.929,2.929,2.929,7.678,0,10.607
		C199.678,465.541,197.758,466.273,195.839,466.273z"/>
	<path d="M174.188,466.273c-1.92,0-3.839-0.732-5.304-2.197c-2.929-2.929-2.929-7.678,0-10.607l21.651-21.651
		c2.931-2.93,7.679-2.929,10.607,0c2.929,2.929,2.929,7.678,0,10.607l-21.651,21.651
		C178.026,465.541,176.106,466.273,174.188,466.273z"/>
</g>
<path style="fill:#D6D8DB;" d="M335.656,464.166L159.031,287.541c-15.562-15.562-15.562-40.793,0-56.355l77.987-77.987
	l120.595,120.595c38.654,38.654,73.643,80.807,104.517,125.919l37.798,55.228c14.763,21.571,1.947,51.159-23.886,55.146l0,0
	C424.602,518.026,372.46,500.97,335.656,464.166z"/>
<path style="fill:#F0F1F1;" d="M159.031,287.541l176.625,176.625c36.803,36.803,88.946,53.86,140.385,45.922l0,0
	c23.928-3.693,36.67-29.346,26.691-50.252c-77.464,21.248-121.62-6.568-148.453-33.401
	c-30.678-30.679-195.248-195.248-195.248-195.248C143.469,246.748,143.469,271.979,159.031,287.541z"/>
<path style="fill:#F8D662;" d="M99.97,16.152L237.018,153.2l-77.987,77.987L21.983,94.138c-21.535-21.535-21.535-56.451,0-77.987
	l0,0C43.519-5.384,78.435-5.384,99.97,16.152z"/>
<path style="opacity:0.1;enable-background:new    ;" d="M171.778,87.959L99.97,16.152c-21.535-21.535-56.451-21.535-77.987,0l0,0
	c-21.535,21.536-21.535,56.451,0,77.987l51.684,51.685C77.998,104.885,127.775,90.288,171.778,87.959z"/>
<circle style="fill:#F0F1F1;" cx="60.977" cy="55.15" r="18.716"/>
<path style="opacity:0.1;enable-background:new    ;" d="M310.113,226.295l-73.096-73.096l-77.987,77.987
	c-15.562,15.562-15.562,40.793,0,56.355l15.381,15.381C211.395,266.81,260.55,227.848,310.113,226.295z"/>
<g>
	
		<ellipse transform="matrix(0.7071 -0.7071 0.7071 0.7071 -123.3466 269.6464)" style="fill:#F18290;" cx="263.819" cy="283.716" rx="23.15" ry="29.07"/>
	
		<ellipse transform="matrix(-0.7071 0.7071 -0.7071 -0.7071 919.9933 409.2352)" style="fill:#F18290;" cx="375.241" cy="395.154" rx="23.15" ry="29.07"/>
</g>
<g>
	<path style="fill:#5D6671;" d="M292.133,286.874c-1.92,0-3.839-0.732-5.304-2.197c-2.929-2.929-2.929-7.678,0.001-10.607
		l7.26-7.259c2.929-2.929,7.678-2.927,10.607,0.001c2.929,2.929,2.929,7.678-0.001,10.607l-7.26,7.259
		C295.972,286.141,294.052,286.874,292.133,286.874z"/>
	<path style="fill:#5D6671;" d="M379.593,374.334c-1.92,0-3.839-0.732-5.304-2.197c-2.929-2.929-2.929-7.678,0.001-10.607
		l7.26-7.259c2.929-2.928,7.678-2.928,10.607,0c2.929,2.929,2.929,7.678-0.001,10.607l-7.26,7.259
		C383.432,373.601,381.512,374.334,379.593,374.334z"/>
	<path style="fill:#5D6671;" d="M345.581,342.506c-7.704,0-15.117-3.047-20.596-8.525c-5.951-5.952-9.033-14.189-8.456-22.599
		c0.283-4.133,3.862-7.26,7.996-6.969c4.132,0.284,7.252,3.863,6.969,7.996c-0.28,4.084,1.214,8.081,4.099,10.965
		s6.893,4.383,10.964,4.098c4.127-0.273,7.713,2.836,7.996,6.969s-2.837,7.712-6.969,7.996
		C346.915,342.483,346.247,342.506,345.581,342.506z"/>
	<path style="fill:#5D6671;" d="M390.376,228.162c-4.143,0-7.5-3.358-7.5-7.5v-75.463c0-4.142,3.357-7.5,7.5-7.5s7.5,3.358,7.5,7.5
		v75.463C397.876,224.804,394.519,228.162,390.376,228.162z"/>
	<path style="fill:#5D6671;" d="M449.388,296.078c-4.143,0-7.5-3.358-7.5-7.5v-95.615c0-4.142,3.357-7.5,7.5-7.5s7.5,3.358,7.5,7.5
		v95.615C456.888,292.72,453.53,296.078,449.388,296.078z"/>
</g>
<g>
</g>
<g>
</g>
<g>
</g>
<g>
</g>
<g>
</g>
<g>
</g>
<g>
</g>
<g>
</g>
<g>
</g>
<g>
</g>
<g>
</g>
<g>
</g>
<g>
</g>
<g>
</g>
<g>
</g>
</svg>
