<?xml version="1.0" encoding="iso-8859-1"?>
<!-- Generator: Adobe Illustrator 19.0.0, SVG Export Plug-In . SVG Version: 6.00 Build 0)  -->
<svg version="1.1" id="Capa_1" xmlns="http://www.w3.org/2000/svg" xmlns:xlink="http://www.w3.org/1999/xlink" x="0px" y="0px"
	 viewBox="0 0 512.001 512.001" style="enable-background:new 0 0 512.001 512.001;" xml:space="preserve">
<path style="fill:#C3E9F1;" d="M35.259,204.895l40.024,40.024l-32.51,32.511L2.749,237.406c-3.665-3.665-3.665-9.607,0-13.271
	l19.239-19.239C25.653,201.23,31.594,201.23,35.259,204.895z"/>
<rect x="45.199" y="232.456" transform="matrix(0.7071 0.7071 -0.7071 0.7071 196.2372 37.1298)" style="opacity:0.05;enable-background:new    ;" width="16.2" height="45.977"/>
<path id="SVGCleanerId_0" style="fill:#F0F1F1;" d="M260.825,59.378l-19.76,19.76c-6.362,6.362-17.24,1.856-17.24-7.141V53.915
	c0-27.404-22.215-49.619-49.619-49.619l0,0c-27.404,0-49.619,22.215-49.619,49.619v123.029c0,11.956-4.749,23.423-13.204,31.877
	l-85.977,85.977c-5.62,5.62-6.427,14.45-1.92,20.996l0,0c50.952,73.997,115.007,138.052,189.004,189.004l0,0
	c6.546,4.507,15.376,3.7,20.996-1.92l235.42-235.42c57.46-57.46,57.46-150.62,0-208.08l0,0
	C411.445,1.918,318.285,1.918,260.825,59.378z"/>
<g>
	<path id="SVGCleanerId_0_1_" style="fill:#F0F1F1;" d="M260.825,59.378l-19.76,19.76c-6.362,6.362-17.24,1.856-17.24-7.141V53.915
		c0-27.404-22.215-49.619-49.619-49.619l0,0c-27.404,0-49.619,22.215-49.619,49.619v123.029c0,11.956-4.749,23.423-13.204,31.877
		l-85.977,85.977c-5.62,5.62-6.427,14.45-1.92,20.996l0,0c50.952,73.997,115.007,138.052,189.004,189.004l0,0
		c6.546,4.507,15.376,3.7,20.996-1.92l235.42-235.42c57.46-57.46,57.46-150.62,0-208.08l0,0
		C411.445,1.918,318.285,1.918,260.825,59.378z"/>
</g>
<path style="opacity:0.1;enable-background:new    ;" d="M223.825,53.915c0-4.116-0.51-8.112-1.455-11.937h-96.329
	c-0.945,3.825-1.455,7.82-1.455,11.937v3.063h99.239L223.825,53.915L223.825,53.915z M486.305,163.954V80.316
	c-4.429-6.457-9.426-12.641-15-18.477v102.115H364.329V56.978h102.115c-5.836-5.574-12.02-10.571-18.476-15h-83.639V16.29
	c-5.008,0.018-10.014,0.295-15,0.821v24.868h-67.567c-6.457,4.429-12.641,9.426-18.477,15h86.044v106.976H242.354V77.849
	l-1.288,1.289c-4.067,4.067-9.975,3.688-13.712,0.539v84.278H124.586v12.99c0,0.672-0.02,1.342-0.05,2.01h102.818V285.93h-83.761
	c-4.142,0-7.5,3.358-7.5,7.5s3.358,7.5,7.5,7.5h83.761v82.52c0,4.142,3.358,7.5,7.5,7.5s7.5-3.358,7.5-7.5v-82.52H349.33v86.105
	l15-15V300.93h71.105l15-15H364.33V178.954h106.976v86.043c5.574-5.836,10.571-12.02,15-18.477v-67.567h24.867
	c0.526-4.986,0.803-9.992,0.822-15L486.305,163.954L486.305,163.954z M349.329,285.93H242.354V178.954H349.33V285.93H349.329z"/>
<rect x="32.191" y="302.979" transform="matrix(-0.7071 -0.7071 0.7071 -0.7071 59.3781 722.5032)" style="fill:#F18290;" width="294.267" height="91.949"/>
<g>
	
		<ellipse transform="matrix(0.7071 -0.7071 0.7071 0.7071 -183.1499 169.4951)" style="fill:#FFFFFF;" cx="113.024" cy="305.829" rx="22.737" ry="28.552"/>
	
		<ellipse transform="matrix(-0.7071 0.7071 -0.7071 -0.7071 673.3827 551.6268)" style="fill:#FFFFFF;" cx="222.446" cy="415.276" rx="22.737" ry="28.552"/>
</g>
<g>
	<path style="fill:#5D6671;" d="M140.823,309.061c-1.919,0-3.839-0.732-5.303-2.197c-2.929-2.929-2.929-7.678,0-10.607l7.129-7.129
		c2.929-2.929,7.678-2.929,10.606,0c2.929,2.929,2.929,7.678,0,10.606l-7.129,7.129
		C144.662,308.329,142.743,309.061,140.823,309.061z"/>
	<path style="fill:#5D6671;" d="M226.722,394.96c-1.92,0-3.839-0.732-5.303-2.197c-2.929-2.929-2.929-7.678,0-10.607l7.129-7.129
		c2.929-2.929,7.678-2.929,10.607,0s2.929,7.678,0,10.606l-7.129,7.129C230.561,394.227,228.642,394.96,226.722,394.96z"/>
	<path style="fill:#5D6671;" d="M193.317,363.7c-7.602,0-14.917-3.007-20.323-8.412c-5.872-5.873-8.914-14.001-8.344-22.299
		c0.284-4.132,3.855-7.243,7.997-6.968c4.132,0.284,7.252,3.864,6.968,7.997c-0.273,3.972,1.18,7.859,3.985,10.665
		c2.806,2.806,6.696,4.263,10.665,3.986c4.135-0.289,7.712,2.836,7.996,6.969s-2.836,7.712-6.969,7.996
		C194.633,363.678,193.974,363.7,193.317,363.7z"/>
</g>
<path style="opacity:0.1;enable-background:new    ;" d="M183.244,5.132c-2.932-0.54-5.95-0.836-9.039-0.836l0,0
	c-27.404,0-49.619,22.215-49.619,49.619v123.029c0,11.956-4.749,23.423-13.204,31.877l-85.977,85.977
	c-5.62,5.62-6.427,14.45-1.92,20.996l0,0c50.952,73.997,115.007,138.052,189.004,189.004l0,0c6.546,4.507,15.376,3.7,20.996-1.92
	l48.853-48.853C117.878,369.137,159.632,90.002,183.244,5.132z"/>
<g style="opacity:0.1;">
	<circle cx="433.03" cy="224.17" r="7.466"/>
	<circle cx="320.85" cy="329.51" r="7.466"/>
	<circle cx="282.34" cy="93.38" r="7.466"/>
	<circle cx="161.32" cy="128.33" r="7.466"/>
</g>
<g>
</g>
<g>
</g>
<g>
</g>
<g>
</g>
<g>
</g>
<g>
</g>
<g>
</g>
<g>
</g>
<g>
</g>
<g>
</g>
<g>
</g>
<g>
</g>
<g>
</g>
<g>
</g>
<g>
</g>
</svg>
