<?xml version="1.0" encoding="iso-8859-1"?>
<!-- Generator: Adobe Illustrator 19.0.0, SVG Export Plug-In . SVG Version: 6.00 Build 0)  -->
<svg version="1.1" id="Capa_1" xmlns="http://www.w3.org/2000/svg" xmlns:xlink="http://www.w3.org/1999/xlink" x="0px" y="0px"
	 viewBox="0 0 512.001 512.001" style="enable-background:new 0 0 512.001 512.001;" xml:space="preserve">
<path style="fill:#C3E9F1;" d="M271.876,0h-59.589c-5.661,0-10.251,4.589-10.251,10.251v13.112h80.09V10.251
	C282.127,4.589,277.538,0,271.876,0z"/>
<path style="fill:#8DB5EA;" d="M319.314,235.599c-6.92,0-13.369-4.38-15.677-11.306c-2.885-8.659,1.796-18.018,10.455-20.903
	l34.399-11.462c15.859-5.284,26.515-20.066,26.515-36.783v-35.264c0-2.791-2.271-5.062-5.062-5.062h-50.628
	c-9.127,0-16.526-7.399-16.526-16.526s7.399-16.526,16.526-16.526h50.628c21.016,0,38.114,17.098,38.114,38.114v35.264
	c0,30.968-19.74,58.351-49.119,68.14l-34.399,11.462C322.808,235.325,321.045,235.599,319.314,235.599z"/>
<path style="fill:#7CD9D2;" d="M359.162,483.648H125.001c-13.303,0-23.27-12.185-20.632-25.224l25.448-125.799
	c1.289-6.373,6.891-10.956,13.394-10.956h197.743c6.502,0,12.104,4.582,13.394,10.956l25.448,125.799
	C382.432,471.462,372.465,483.648,359.162,483.648z"/>
<g>
	<path style="fill:#5D6671;" d="M176.238,483.648h-38.48v17.177c0,6.172,5.004,11.176,11.176,11.176h16.129
		c6.172,0,11.176-5.004,11.176-11.176L176.238,483.648L176.238,483.648z"/>
	<path style="fill:#5D6671;" d="M307.926,483.648h38.48v17.177c0,6.172-5.004,11.176-11.176,11.176h-16.129
		c-6.172,0-11.176-5.004-11.176-11.176L307.926,483.648L307.926,483.648z"/>
</g>
<path style="fill:#7CD9D2;" d="M335.43,281.571H148.734c-6.062,0-10.976,4.914-10.976,10.976v18.146
	c0,6.062,4.914,10.976,10.976,10.976H335.43c6.062,0,10.976-4.914,10.976-10.976v-18.146
	C346.406,286.485,341.492,281.571,335.43,281.571z"/>
<path style="opacity:0.1;enable-background:new    ;" d="M335.43,281.571H148.734c-6.062,0-10.976,4.914-10.976,10.976v18.146
	c0,6.062,4.914,10.976,10.976,10.976H335.43c6.062,0,10.976-4.914,10.976-10.976v-18.146
	C346.406,286.485,341.492,281.571,335.43,281.571z"/>
<path id="SVGCleanerId_0" style="fill:#C3E9F1;" d="M333.75,56.64H150.414v178.908c0,25.418,20.605,46.022,46.022,46.022h91.291
	c25.418,0,46.023-20.605,46.023-46.022L333.75,56.64L333.75,56.64z"/>
<g>
	<path id="SVGCleanerId_0_1_" style="fill:#C3E9F1;" d="M333.75,56.64H150.414v178.908c0,25.418,20.605,46.022,46.022,46.022h91.291
		c25.418,0,46.023-20.605,46.023-46.022L333.75,56.64L333.75,56.64z"/>
</g>
<path style="fill:#5D6671;" d="M337.702,23.363h-191.24c-6.225,0-11.271,5.046-11.271,11.271v10.734
	c0,6.225,5.046,11.271,11.271,11.271h191.24c6.225,0,11.272-5.046,11.272-11.271V34.634
	C348.973,28.409,343.927,23.363,337.702,23.363z"/>
<g style="opacity:0.1;">
	<path d="M301.684,227.031h-31.286c-4.142,0-7.5-3.358-7.5-7.5s3.358-7.5,7.5-7.5h31.286c4.142,0,7.5,3.358,7.5,7.5
		S305.826,227.031,301.684,227.031z"/>
	<path d="M301.684,194.722h-18.456c-4.142,0-7.5-3.358-7.5-7.5s3.358-7.5,7.5-7.5h18.456c4.142,0,7.5,3.358,7.5,7.5
		S305.826,194.722,301.684,194.722z"/>
	<path d="M301.684,162.413h-31.286c-4.142,0-7.5-3.358-7.5-7.5s3.358-7.5,7.5-7.5h31.286c4.142,0,7.5,3.358,7.5,7.5
		S305.826,162.413,301.684,162.413z"/>
	<path d="M301.684,130.105h-18.456c-4.142,0-7.5-3.358-7.5-7.5s3.358-7.5,7.5-7.5h18.456c4.142,0,7.5,3.358,7.5,7.5
		S305.826,130.105,301.684,130.105z"/>
	<path d="M301.684,97.795h-31.286c-4.142,0-7.5-3.358-7.5-7.5s3.358-7.5,7.5-7.5h31.286c4.142,0,7.5,3.358,7.5,7.5
		C309.184,94.438,305.826,97.795,301.684,97.795z"/>
</g>
<path style="opacity:0.1;enable-background:new    ;" d="M227.231,227.031c-4.142,0-7.5-3.358-7.5-7.5V90.295
	c0-4.142,3.358-7.5,7.5-7.5s7.5,3.358,7.5,7.5V219.53C234.731,223.673,231.373,227.031,227.231,227.031z"/>
<ellipse style="fill:#FFFFFF;" cx="242.081" cy="403.29" rx="40.688" ry="50.17"/>
<path style="fill:#C3E9F1;" d="M282.675,400.039c-9.144-12.48-23.916-20.593-40.593-20.593s-31.449,8.112-40.593,20.593
	c-0.056,1.076-0.094,2.158-0.094,3.252c0,27.711,18.216,50.175,40.688,50.175c22.471,0,40.688-22.464,40.688-50.175
	C282.769,402.198,282.731,401.115,282.675,400.039z"/>
<circle style="fill:#5D6671;" cx="242.081" cy="416.44" r="14.282"/>
<path style="opacity:0.1;enable-background:new    ;" d="M190.579,321.669h-47.368c-6.503,0-12.104,4.582-13.394,10.956
	l-25.448,125.799c-2.638,13.039,7.33,25.224,20.632,25.224h77.231C171.643,444.658,183.421,359.267,190.579,321.669z"/>
<path style="opacity:0.05;enable-background:new    ;" d="M150.414,235.548c0,25.418,20.605,46.023,46.023,46.023h41.193
	c-39.637-36.312-41.429-148.074-40.895-207.661c0.023-2.608,2.146-4.706,4.754-4.706H333.75V56.64H150.414V235.548z"/>
<path style="opacity:0.1;enable-background:new    ;" d="M183.288,281.571h-34.554c-6.062,0-10.976,4.914-10.976,10.976v18.146
	c0,6.062,4.914,10.976,10.976,10.976l41.845-0.335C182.241,312.057,180.586,293.12,183.288,281.571z"/>
<path style="opacity:0.05;enable-background:new    ;" d="M212.287,0c-5.661,0-10.251,4.589-10.251,10.251v13.112h24.874
	c-3.365-6.749-3.961-15.34-3.098-23.363H212.287z"/>
<g>
</g>
<g>
</g>
<g>
</g>
<g>
</g>
<g>
</g>
<g>
</g>
<g>
</g>
<g>
</g>
<g>
</g>
<g>
</g>
<g>
</g>
<g>
</g>
<g>
</g>
<g>
</g>
<g>
</g>
</svg>
