<?xml version="1.0" encoding="iso-8859-1"?>
<!-- Generator: Adobe Illustrator 19.0.0, SVG Export Plug-In . SVG Version: 6.00 Build 0)  -->
<svg version="1.1" id="Capa_1" xmlns="http://www.w3.org/2000/svg" xmlns:xlink="http://www.w3.org/1999/xlink" x="0px" y="0px"
	 viewBox="0 0 512 512" style="enable-background:new 0 0 512 512;" xml:space="preserve">
<path style="fill:#B76035;" d="M424.19,504.492H87.81c-5.529,0-10.011-4.482-10.011-10.011V17.52
	c0-5.529,4.482-10.011,10.011-10.011h336.38c5.529,0,10.011,4.482,10.011,10.011V494.48
	C434.201,500.008,429.719,504.492,424.19,504.492z"/>
<path style="fill:#A04C27;" d="M434.2,17.515v476.967c0,5.526-4.485,10.011-10.011,10.011h-19.692
	c5.536,0,10.011-4.485,10.011-10.011V17.515c0-5.526-4.475-10.011-10.011-10.011h19.692C429.715,7.503,434.2,11.989,434.2,17.515z"
	/>
<polygon style="fill:#00AD95;" points="149.945,142.104 236.311,116.089 176.91,43.539 114.354,43.539 114.354,91.099 "/>
<g>
	<polygon style="fill:#D5F0F7;" points="236.311,116.089 397.646,43.539 176.91,43.539 	"/>
	<polygon style="fill:#D5F0F7;" points="114.354,91.099 192.12,202.546 115.506,363.992 	"/>
</g>
<polygon style="fill:#00AD95;" points="147.876,295.782 197.601,423.77 114.354,468.288 114.354,367.039 "/>
<g>
	<polygon style="fill:#FF961D;" points="149.945,142.104 236.311,116.089 261.673,245.569 192.12,202.546 	"/>
	<polygon style="fill:#FF961D;" points="332.286,72.93 301.05,146.79 397.646,191.508 397.646,43.539 	"/>
</g>
<g>
	<polygon style="fill:#FF4F19;" points="236.311,116.089 332.286,72.93 301.05,146.79 249.898,185.454 	"/>
	<polygon style="fill:#FF4F19;" points="197.601,423.77 261.673,245.569 192.12,202.546 147.876,295.782 	"/>
</g>
<polygon style="fill:#FF961D;" points="197.601,423.77 300.742,406.083 342.097,468.288 114.354,468.288 "/>
<polygon style="fill:#00AD95;" points="301.05,146.79 354.11,307.972 397.646,354.024 397.646,191.508 "/>
<polygon style="fill:#FF4F19;" points="354.11,307.972 300.742,406.083 342.097,468.288 397.646,468.288 397.646,354.024 "/>
<polygon style="fill:#EF8318;" points="397.649,43.544 397.649,191.511 374.493,180.789 374.493,53.956 "/>
<polygon style="fill:#039377;" points="397.649,191.511 397.649,354.024 374.493,329.536 374.493,180.789 "/>
<polygon style="fill:#E23D17;" points="397.649,354.024 397.649,468.283 374.493,468.288 374.493,329.536 "/>
<g>
	<polygon style="fill:#D5F0F7;" points="261.673,245.569 324.018,216.559 301.05,146.79 249.898,185.454 	"/>
	<polygon style="fill:#D5F0F7;" points="239.236,307.972 300.742,406.083 197.601,423.77 	"/>
</g>
<polygon style="fill:#FF961D;" points="261.673,245.569 324.018,216.559 354.11,307.972 300.742,406.083 239.236,307.972 "/>
<path d="M77.799,377.3c4.148,0,7.508-3.361,7.508-7.508V17.52c0-1.381,1.122-2.503,2.503-2.503h159.179
	c4.148,0,7.508-3.361,7.508-7.508S251.137,0,246.989,0H87.81c-9.66,0-17.52,7.86-17.52,17.52v352.272
	C70.29,373.939,73.652,377.3,77.799,377.3z"/>
<path d="M424.189,0H294.115c-4.148,0-7.508,3.361-7.508,7.508s3.361,7.508,7.508,7.508H424.19c1.381,0,2.503,1.122,2.503,2.503
	V494.48c0,1.381-1.122,2.503-2.503,2.503H87.811c-1.381,0-2.503-1.122-2.503-2.503v-78.136c0-4.148-3.361-7.508-7.508-7.508
	c-4.148,0-7.508,3.361-7.508,7.508v78.136c0,9.66,7.86,17.52,17.52,17.52H424.19c9.66,0,17.52-7.86,17.52-17.52V17.52
	C441.709,7.86,433.85,0,424.189,0z"/>
<path d="M114.354,36.031c-4.148,0-7.508,3.361-7.508,7.508v323.5v101.249c0,0.146,0.014,0.288,0.022,0.432
	c0.004,0.07,0.005,0.138,0.01,0.208c0.007,0.087,0.016,0.173,0.026,0.258c0.009,0.079,0.024,0.156,0.036,0.234
	c0.031,0.206,0.069,0.409,0.117,0.61c0.007,0.028,0.007,0.055,0.013,0.083c0.004,0.016,0.011,0.029,0.015,0.045
	c0.013,0.052,0.029,0.103,0.044,0.154c0.072,0.256,0.155,0.508,0.252,0.752c0.01,0.026,0.018,0.053,0.029,0.079
	c0.02,0.049,0.041,0.097,0.062,0.145c0.013,0.031,0.029,0.059,0.043,0.089c0.088,0.195,0.182,0.387,0.286,0.574
	c0.026,0.046,0.056,0.09,0.083,0.136c0.051,0.087,0.103,0.174,0.157,0.258c0.019,0.029,0.034,0.059,0.053,0.088
	c0.057,0.085,0.119,0.167,0.179,0.249c0.049,0.068,0.099,0.135,0.15,0.201c0.109,0.14,0.222,0.274,0.34,0.406
	c0.043,0.048,0.086,0.097,0.13,0.145c0.036,0.038,0.069,0.078,0.105,0.115c0.203,0.206,0.418,0.4,0.644,0.583
	c0.024,0.019,0.047,0.039,0.071,0.058c0.033,0.026,0.07,0.047,0.104,0.073c0.182,0.139,0.371,0.269,0.566,0.39
	c0.037,0.023,0.069,0.051,0.106,0.073c0.03,0.018,0.062,0.029,0.092,0.047c0.381,0.221,0.783,0.408,1.203,0.562
	c0.053,0.02,0.104,0.04,0.158,0.058c0.114,0.039,0.228,0.074,0.344,0.107c0.067,0.019,0.135,0.035,0.203,0.052
	c0.171,0.044,0.342,0.083,0.518,0.115c0.063,0.011,0.125,0.019,0.188,0.029c0.002,0,0.004,0.001,0.007,0.001
	c0.077,0.012,0.154,0.026,0.232,0.035c0.3,0.036,0.604,0.061,0.914,0.061h227.743h55.549c4.148,0,7.508-3.361,7.508-7.508V354.024
	V191.508V43.539c0-0.037-0.005-0.072-0.005-0.108c-0.002-0.159-0.012-0.318-0.024-0.479c-0.007-0.086-0.011-0.173-0.021-0.258
	c-0.003-0.031-0.005-0.062-0.009-0.093c-0.002-0.015-0.006-0.03-0.008-0.044c-0.012-0.094-0.031-0.188-0.048-0.281
	c-0.017-0.099-0.03-0.199-0.05-0.297c-0.001-0.005-0.001-0.009-0.002-0.014c-0.013-0.062-0.032-0.12-0.047-0.181
	c-0.018-0.076-0.038-0.152-0.059-0.227c-0.049-0.18-0.105-0.357-0.167-0.533c-0.018-0.049-0.034-0.098-0.052-0.147
	c-0.014-0.037-0.025-0.075-0.04-0.112c-0.011-0.028-0.022-0.056-0.033-0.084c-0.04-0.098-0.087-0.192-0.131-0.288
	c-0.053-0.115-0.106-0.23-0.165-0.342c-0.046-0.088-0.096-0.172-0.146-0.258c-0.067-0.115-0.135-0.229-0.207-0.34
	c-0.047-0.073-0.096-0.144-0.146-0.215c-0.025-0.035-0.048-0.072-0.074-0.107c-0.06-0.082-0.123-0.161-0.186-0.24
	c-0.056-0.071-0.112-0.141-0.17-0.209c-0.053-0.062-0.106-0.125-0.161-0.185c-0.041-0.045-0.085-0.088-0.127-0.132
	c-0.058-0.061-0.115-0.123-0.175-0.182c-0.104-0.102-0.214-0.199-0.324-0.294c-0.04-0.035-0.077-0.073-0.118-0.106
	c-0.022-0.019-0.044-0.037-0.066-0.055c-0.171-0.14-0.348-0.273-0.532-0.397c-0.031-0.021-0.063-0.039-0.094-0.059
	c-0.015-0.01-0.027-0.021-0.042-0.031c-0.033-0.021-0.069-0.037-0.103-0.057c-0.111-0.069-0.221-0.14-0.335-0.203
	c-0.089-0.049-0.181-0.093-0.272-0.139c-0.007-0.004-0.015-0.008-0.022-0.011c-0.046-0.023-0.092-0.049-0.139-0.071
	c-0.058-0.028-0.117-0.054-0.176-0.08c-0.098-0.043-0.198-0.082-0.298-0.121c-0.099-0.039-0.197-0.077-0.297-0.112
	c-0.032-0.011-0.063-0.022-0.095-0.032c-0.085-0.028-0.172-0.053-0.259-0.078c-0.123-0.036-0.248-0.067-0.374-0.096
	c-0.099-0.023-0.197-0.046-0.298-0.065c-0.145-0.028-0.292-0.048-0.44-0.067c-0.084-0.011-0.167-0.025-0.252-0.033
	c-0.037-0.004-0.073-0.007-0.11-0.01c-0.049-0.004-0.098-0.003-0.147-0.007c-0.152-0.009-0.303-0.02-0.458-0.02H176.91h-62.557
	V36.031z M121.862,51.048h51.492l50.021,61.095l-70.388,21.203l-31.126-44.607L121.862,51.048L121.862,51.048z M195.305,213.346
	l57.244,35.408l-12.194,33.913l-8.185,22.764v0.001l-34.841,96.902l-41.283-106.257L195.305,213.346z M122.875,330.949
	l-0.911-215.823l61.502,88.141L122.875,330.949z M241.077,325.044l47.351,75.531l-79.404,13.616L241.077,325.044z M247.537,307.077
	l20.143-56.022l51.847-24.125l26.436,80.305l-45.68,83.979L247.537,307.077z M299.328,219.766l-32.13,14.95l-5.237-26.734
	l-3.793-19.367l39.033-29.503l17.597,53.456L299.328,219.766z M294.919,142.013l-39.962,30.206l-10.132-51.725l73.096-32.87
	L294.919,142.013z M250.999,230.137l-53.61-33.16l-11.508-16.492l-23.849-34.179l68.504-20.635l7.619,38.894L250.999,230.137z
	 M121.862,368.717l25.355-53.896l32.09,82.595l8.885,22.87l-66.33,35.472V368.717z M144.317,460.779l22.366-11.961l33.387-17.854
	l97.125-16.655l30.894,46.47L144.317,460.779L144.317,460.779z M390.138,460.779h-44.016l-7.289-10.963l-29.332-44.121l46.26-85.045
	l34.376,36.362v103.767H390.138z M390.138,335.152l-25.072-26.522l-4.347-4.598l-43.472-132.055l-3.656-11.107l76.547,35.436
	L390.138,335.152L390.138,335.152z M390.138,179.759l-79.343-36.73l27.26-64.459l15.454-6.95l36.629-16.472L390.138,179.759
	L390.138,179.759z M362.641,51.048L240.52,105.963l-2.043,0.919l-45.715-55.835H362.641z"/>
<g>
</g>
<g>
</g>
<g>
</g>
<g>
</g>
<g>
</g>
<g>
</g>
<g>
</g>
<g>
</g>
<g>
</g>
<g>
</g>
<g>
</g>
<g>
</g>
<g>
</g>
<g>
</g>
<g>
</g>
</svg>
