<?xml version="1.0" encoding="iso-8859-1"?>
<!-- Generator: Adobe Illustrator 19.0.0, SVG Export Plug-In . SVG Version: 6.00 Build 0)  -->
<svg version="1.1" id="Capa_1" xmlns="http://www.w3.org/2000/svg" xmlns:xlink="http://www.w3.org/1999/xlink" x="0px" y="0px"
	 viewBox="0 0 512 512" style="enable-background:new 0 0 512 512;" xml:space="preserve">
<path style="fill:#FF4F19;" d="M305.945,23.292l-0.634,0.845c-0.883,1.177-2.719,0.861-3.169-0.539
	c-1.222-3.8-4.022-10.014-10.201-15.612c-0.681-0.617-1.729-0.617-2.41,0c-6.179,5.598-8.979,11.812-10.201,15.612
	c-0.45,1.4-2.286,1.716-3.169,0.539l-0.634-0.845c-0.725-0.967-2.172-0.959-2.899,0.008c-15.995,21.261-15.036,56.324,18.115,57.23
	c33.632,0.919,33.207-37.149,18.098-57.231C308.116,22.333,306.67,22.325,305.945,23.292z"/>
<path style="fill:#E23D17;" d="M290.745,80.528c-5.346-0.15-9.861-1.181-13.595-2.913c25.318-10.241,25.368-45.11,12.143-69.396
	c0.08-0.08,0.16-0.16,0.24-0.23c0.681-0.621,1.732-0.621,2.413,0c6.177,5.596,8.97,11.813,10.191,15.607
	c0.45,1.402,2.293,1.722,3.174,0.541l0.631-0.841c0.731-0.971,2.172-0.961,2.903,0C323.951,43.377,324.371,81.449,290.745,80.528z"
	/>
<path style="fill:#D5F0F7;" d="M334.343,409.805H247.2V111.668c0-2.764,2.241-5.005,5.005-5.005h77.133
	c2.764,0,5.005,2.241,5.005,5.005L334.343,409.805L334.343,409.805z"/>
<path style="fill:#A6DFE8;" d="M334.343,409.805h-23.549V106.663h18.543c2.764,0,5.005,2.241,5.005,5.005v298.138H334.343z"/>
<path style="fill:#FFDBA9;" d="M387.52,504.49H202.029c-34.766,0-62.949-28.183-62.949-62.949v-31.735h306.383
	c2.764,0,5.005,2.241,5.005,5.005v26.73C450.469,476.306,422.286,504.49,387.52,504.49z"/>
<path style="fill:#FFC473;" d="M450.47,414.814v26.729c0,34.766-28.183,62.949-62.949,62.949h-47.572
	c34.758,0,62.949-28.181,62.949-62.949v-31.735h42.567C448.229,409.809,450.47,412.049,450.47,414.814z"/>
<path style="fill:#A6DFE8;" d="M284.095,170.415L284.095,170.415c-8.479,0-15.352-6.873-15.352-15.352v-48.4h30.704v48.4
	C299.447,163.54,292.574,170.415,284.095,170.415z"/>
<path d="M445.463,402.297H341.852V111.669c0-6.9-5.614-12.514-12.514-12.514h-29.891h-1.17V87.589
	c10.766-1.566,19.069-7.187,23.777-16.305c7.49-14.509,4.391-37.079-7.21-52.498c-1.754-2.332-4.541-3.724-7.456-3.724
	c-0.24,0.037-0.447,0.009-0.669,0.024c-2.035-3.989-5.108-8.473-9.734-12.664c-3.561-3.228-8.93-3.229-12.494-0.001
	c-4.626,4.191-7.7,8.677-9.735,12.665c-0.221-0.017-0.409-0.044-0.668-0.024c-2.916,0-5.703,1.392-7.457,3.724
	c-11.607,15.426-14.862,36.259-7.919,50.661c4.633,9.612,13.22,15.779,24.549,17.835v11.872h-14.517h-16.538
	c-6.9,0-12.514,5.614-12.514,12.514v95.938v31.584v51.267c0,4.147,3.361,7.508,7.508,7.508s7.508-3.361,7.508-7.508v-31.593
	c1.726,0.475,3.534,0.75,5.408,0.75c11.262,0,20.425-9.162,20.425-20.425v-32.122c0-4.147-3.361-7.508-7.508-7.508
	s-7.508,3.361-7.508,7.508v32.122c0,2.982-2.427,5.408-5.408,5.408s-5.408-2.427-5.408-5.408v-31.584v-93.434h6.527v40.891
	c0,12.605,10.255,22.86,22.86,22.86s22.86-10.255,22.86-22.86v-40.891h19.88v288.126h-72.127v-65.29
	c0-4.147-3.361-7.508-7.508-7.508s-7.508,3.361-7.508,7.508v65.29H146.59v-1.848c0-25.52-20.763-46.283-46.283-46.283
	s-46.282,20.763-46.282,46.283c0,4.147,3.361,7.508,7.508,7.508s7.508-3.361,7.508-7.508c0-17.24,14.026-31.267,31.266-31.267
	c17.241,0,31.267,14.026,31.267,31.267v9.356v16.778v14.958c0,38.85,31.607,70.457,70.457,70.457L298.673,512
	c4.146,0,7.508-3.362,7.508-7.508s-3.361-7.508-7.508-7.508l-96.644-0.002c-30.57,0-55.441-24.871-55.441-55.44v-14.958v-9.27
	H442.96v24.228c0,30.57-24.871,55.44-55.441,55.44h-41.795c-4.147,0-7.508,3.361-7.508,7.508s3.361,7.508,7.508,7.508h41.795
	c38.85,0,70.457-31.607,70.457-70.457V414.81C457.977,407.91,452.363,402.297,445.463,402.297z M291.938,155.063
	c0,4.325-3.518,7.844-7.844,7.844c-4.325,0-7.844-3.519-7.844-7.844v-40.892h15.687L291.938,155.063L291.938,155.063z
	 M290.95,73.024c-9.309-0.254-15.605-3.652-18.713-10.099c-3.952-8.195-2.413-20.473,3.507-30.741
	c1.097,0.223,2.248,0.246,3.397,0.056c3.453-0.579,6.265-3.009,7.337-6.345c0.593-1.846,1.837-4.899,4.258-8.135
	c2.422,3.237,3.665,6.29,4.259,8.136c1.073,3.334,3.883,5.764,7.334,6.343c1.133,0.19,2.264,0.168,3.349-0.045
	c5.81,10.463,7.269,23.993,3.032,32.201C305.631,70.36,299.643,73.251,290.95,73.024z"/>
<path d="M285.904,273.97c-4.147,0-7.508,3.361-7.508,7.508v9.333c0,11.262,9.162,20.426,20.425,20.426
	c11.262,0,20.425-9.163,20.425-20.426v-9.871c0-4.147-3.361-7.508-7.508-7.508s-7.508,3.361-7.508,7.508v9.871
	c0,2.983-2.427,5.409-5.408,5.409c-2.982,0-5.408-2.426-5.408-5.409v-9.333C293.413,277.331,290.052,273.97,285.904,273.97z"/>
<g>
</g>
<g>
</g>
<g>
</g>
<g>
</g>
<g>
</g>
<g>
</g>
<g>
</g>
<g>
</g>
<g>
</g>
<g>
</g>
<g>
</g>
<g>
</g>
<g>
</g>
<g>
</g>
<g>
</g>
</svg>
