<?xml version="1.0" encoding="iso-8859-1"?>
<!-- Generator: Adobe Illustrator 19.0.0, SVG Export Plug-In . SVG Version: 6.00 Build 0)  -->
<svg version="1.1" id="Capa_1" xmlns="http://www.w3.org/2000/svg" xmlns:xlink="http://www.w3.org/1999/xlink" x="0px" y="0px"
	 viewBox="0 0 512 512" style="enable-background:new 0 0 512 512;" xml:space="preserve">
<path style="fill:#00AD95;" d="M282.204,504.497h-56.298c-19.589,0-35.469-15.88-35.469-35.469V245.496h127.238v223.532
	C317.674,488.617,301.794,504.497,282.204,504.497z"/>
<path style="fill:#039377;" d="M317.669,245.491v223.534c0,19.597-15.876,35.473-35.463,35.473h-23.289
	c19.587,0,35.473-15.876,35.473-35.473V245.491H317.669z"/>
<g>
	<path style="fill:#FF4F19;" d="M190.188,123.701l-35.022-19.677c-1.383-0.777-2.339-2.139-2.599-3.703l-12.269-73.749
		c-0.701-4.215,3.671-7.449,7.496-5.543l27.6,13.749L190.188,123.701z"/>
	<path style="fill:#FF4F19;" d="M212.826,119.936l26.765-29.956c1.056-1.182,1.521-2.781,1.259-4.346l-12.269-73.749
		c-0.701-4.215-5.885-5.859-8.887-2.818l-21.661,21.944L212.826,119.936z"/>
</g>
<path style="fill:#E23D17;" d="M239.59,89.977l-9.973,11.166c1.13-1.26,1.039-4.003,0.759-5.674l-13.095-78.7
	c-0.23-1.411-0.94-2.551-1.891-3.341l4.302-4.362c3.011-3.041,8.193-1.401,8.893,2.821l12.265,73.748
	C241.111,87.196,240.651,88.796,239.59,89.977z"/>
<rect x="108.36" y="113.703" transform="matrix(-0.1641 -0.9864 0.9864 -0.1641 111.4716 344.9227)" style="fill:#FFDBA9;" width="187.032" height="23.058"/>
<rect x="201.794" y="30.773" transform="matrix(-0.9864 0.1641 -0.1641 -0.9864 432.6912 212.8316)" style="fill:#FFC473;" width="11.52" height="187.032"/>
<g>
	<path style="fill:#FF4F19;" d="M299.39,119.909l-26.835-29.894c-1.059-1.18-1.527-2.777-1.27-4.343l12.097-73.777
		c0.691-4.217,5.871-5.872,8.88-2.838l21.714,21.894L299.39,119.909z"/>
	<path style="fill:#FF4F19;" d="M322.037,123.622l34.976-19.759c1.381-0.78,2.334-2.145,2.59-3.709L371.7,26.377
		c0.691-4.217-3.688-7.44-7.509-5.526l-27.568,13.813L322.037,123.622z"/>
</g>
<path style="fill:#E23D17;" d="M357.011,103.859l-13.033,7.367c1.476-0.83,2.271-3.457,2.543-5.129l12.906-78.731
	c0.236-1.41-0.07-2.718-0.716-3.771l5.476-2.747c3.829-1.912,8.208,1.308,7.514,5.531l-12.1,73.775
	C359.346,101.714,358.396,103.082,357.011,103.859z"/>
<rect x="216.45" y="113.586" transform="matrix(0.1618 -0.9868 0.9868 0.1618 136.3478 410.7539)" style="fill:#FFDBA9;" width="187.036" height="23.058"/>
<rect x="309.885" y="32.539" transform="matrix(-0.9868 -0.1618 0.1618 -0.9868 606.7351 301.5252)" style="fill:#FFC473;" width="11.52" height="187.036"/>
<path style="fill:#00AD95;" d="M324.115,245.496H183.994c-5.66,0-10.248-4.589-10.248-10.248v-18.055
	c0-5.66,4.589-10.248,10.248-10.248h140.121c5.66,0,10.248,4.589,10.248,10.248v18.055
	C334.363,240.907,329.775,245.496,324.115,245.496z"/>
<path style="fill:#039377;" d="M324.115,245.496h-16.21v-38.551h16.21c5.66,0,10.248,4.589,10.248,10.248v18.055
	C334.363,240.907,329.775,245.496,324.115,245.496z"/>
<rect x="190.44" y="284.056" style="fill:#FFDBA9;" width="127.238" height="36.561"/>
<rect x="294.389" y="284.056" style="fill:#FFC473;" width="23.284" height="36.561"/>
<path d="M374.084,15.271c-3.875-2.851-8.951-3.282-13.255-1.128l-25.487,12.771l-17.679-2.899L297.587,3.772
	c-3.387-3.413-8.338-4.626-12.92-3.161c-4.582,1.465-7.912,5.323-8.691,10.07l-12.097,73.78c-0.626,3.827,0.5,7.679,3.091,10.566
	l24.212,26.972l-12.698,77.443h-44.973l-12.818-77.052l24.49-27.411c2.585-2.893,3.702-6.747,3.066-10.575l-12.266-73.75
	c-0.79-4.745-4.129-8.596-8.713-10.05c-4.585-1.456-9.534-0.231-12.914,3.192l-20.027,20.288l-17.674,2.94l-25.517-12.711
	c-4.307-2.148-9.384-1.701-13.251,1.159c-3.867,2.859-5.78,7.584-4.991,12.33l12.269,73.75c0.637,3.828,2.943,7.113,6.324,9.012
	l31.6,17.756l11.831,71.122h-10.927c-9.789,0-17.752,7.963-17.752,17.752v18.055c0,9.43,7.397,17.143,16.69,17.697v31.112v36.56
	v31.254c0,4.145,3.359,7.503,7.503,7.503s7.503-3.358,7.503-7.503v-23.751h112.232v140.909c0,15.421-12.546,27.966-27.967,27.966
	h-56.298c-15.421,0-27.966-12.546-27.966-27.966v-70.306c0-4.145-3.359-7.503-7.503-7.503s-7.503,3.358-7.503,7.503v70.306
	c0,23.696,19.277,42.972,42.972,42.972h56.298c23.696,0,42.973-19.277,42.973-42.972V320.617v-0.001v-36.56v-0.001v-31.111
	c9.293-0.554,16.69-8.268,16.69-17.697v-18.055c0-9.789-7.963-17.752-17.752-17.752h-7.051l11.635-70.966l32.004-18.082
	c3.38-1.909,5.677-5.201,6.303-9.026l12.098-73.779C379.882,22.841,377.958,18.122,374.084,15.271z M159.789,98.016L148.43,29.727
	l19.909,9.919l11.592,69.688L159.789,98.016z M278.864,85.812l11.2-68.315l15.664,15.793l-11.43,69.715L278.864,85.812z
	 M221.913,17.502l11.36,68.289l-15.613,17.475l-11.596-69.708L221.913,17.502z M184.037,41.009l7.696-1.28l26.568,159.713h-8.168
	l-12.486-75.054c0.058-0.63,0.048-1.272-0.059-1.916L184.037,41.009z M197.939,313.113v-21.554h43.805
	c4.144,0,7.503-3.358,7.503-7.503c0-4.145-3.359-7.503-7.503-7.503h-43.805v-23.555h112.232v23.555h-21.878
	c-4.145,0-7.503,3.358-7.503,7.503c0,4.145,3.358,7.503,7.503,7.503h21.878v21.554H197.939z M324.115,214.447
	c1.515,0,2.746,1.231,2.746,2.746v18.055c0,1.514-1.231,2.745-2.746,2.745h-6.44H190.437h-6.441c-1.514,0-2.746-1.231-2.746-2.745
	v-18.055c0-1.515,1.231-2.746,2.746-2.746H324.115z M301.858,199.442h-8.166l12.541-76.482c0.258-0.58,0.456-1.192,0.561-1.837
	l13.362-81.493l7.698,1.261L301.858,199.442z M352.375,97.866l-20.402,11.525l11.434-69.735l20.17-10.107L352.375,97.866z"/>
<g>
</g>
<g>
</g>
<g>
</g>
<g>
</g>
<g>
</g>
<g>
</g>
<g>
</g>
<g>
</g>
<g>
</g>
<g>
</g>
<g>
</g>
<g>
</g>
<g>
</g>
<g>
</g>
<g>
</g>
</svg>
