<?xml version="1.0" encoding="iso-8859-1"?>
<!-- Generator: Adobe Illustrator 19.0.0, SVG Export Plug-In . SVG Version: 6.00 Build 0)  -->
<svg version="1.1" id="Capa_1" xmlns="http://www.w3.org/2000/svg" xmlns:xlink="http://www.w3.org/1999/xlink" x="0px" y="0px"
	 viewBox="0 0 512 512" style="enable-background:new 0 0 512 512;" xml:space="preserve">
<path style="fill:#B76035;" d="M371.509,99.753H140.491c-2.76,0-4.998-2.238-4.998-4.998V77.239c0-2.76,2.238-4.998,4.998-4.998
	h231.018c2.76,0,4.998,2.238,4.998,4.998v17.516C376.507,97.515,374.269,99.753,371.509,99.753z"/>
<path style="fill:#A04C27;" d="M371.509,99.753h-15.09V72.241h15.09c2.76,0,4.998,2.238,4.998,4.998v17.516
	C376.507,97.515,374.269,99.753,371.509,99.753z"/>
<path style="fill:#B76035;" d="M242.244,379.077V45.85c0-2.76,2.238-4.998,4.998-4.998h17.516c2.76,0,4.998,2.238,4.998,4.998
	v333.227H242.244z"/>
<path style="fill:#A04C27;" d="M256,379.077V40.852h8.758c2.76,0,4.998,2.238,4.998,4.998v333.227H256z"/>
<path style="fill:#FFDBA9;" d="M160.047,341.492v-28.526c0-2.72-2.175-4.945-4.895-4.997c-17.085-0.325-76.189-2.962-134.188-23.373
	c-2.712-0.954-5.665,0.595-6.446,3.362l-6.834,24.223c-0.715,2.534,0.651,5.187,3.133,6.066
	C29.255,324.778,102.123,348.728,160.047,341.492z"/>
<path style="fill:#FFC473;" d="M160.05,312.966v28.528c-4.988,0.62-10.086,1.01-15.254,1.199v-33.536c0-0.53-0.07-1.049-0.19-1.549
	c4.388,0.21,7.947,0.31,10.546,0.36C157.871,308.018,160.05,310.247,160.05,312.966z"/>
<path style="fill:#FFDBA9;" d="M351.953,341.492v-28.526c0-2.72,2.175-4.945,4.895-4.997c17.085-0.325,76.189-2.962,134.188-23.373
	c2.712-0.954,5.665,0.595,6.446,3.362l6.834,24.223c0.715,2.534-0.651,5.187-3.133,6.066
	C482.745,324.778,409.877,348.728,351.953,341.492z"/>
<path style="fill:#FFC473;" d="M501.187,318.244c-2.569,0.91-6.197,2.159-10.695,3.618c0.05-0.66-0.02-1.339-0.21-2.019
	l-8.217-29.148c-0.29-1.02-0.819-1.899-1.519-2.599c3.488-1.1,6.987-2.269,10.485-3.499c2.719-0.96,5.668,0.59,6.447,3.359
	l6.837,24.23C505.036,314.716,503.666,317.364,501.187,318.244z"/>
<path style="fill:#B76035;" d="M126.101,465.949H18.991c-3.899,0-6.908-3.428-6.404-7.294l17.51-134.099l24.435,6.745l36.127,97.462
	C96.997,445.854,110.017,459.083,126.101,465.949z"/>
<path style="fill:#A04C27;" d="M126.104,465.952h-23.33c-16.083-6.867-29.098-20.102-35.435-37.194
	c-3.327-8.973-6.654-17.946-9.981-26.919c-7.428-20.035-14.833-39.946-21.62-60.144c-0.658-1.958-1.617-3.87-2.496-5.745
	c-0.156-0.333-3.851-6.004-3.986-5.189c0.338-2.045,0.569-4.142,0.839-6.21l24.44,6.747l36.125,97.459
	C96.996,445.851,110.021,459.085,126.104,465.952z"/>
<path style="fill:#B76035;" d="M352.315,341.491l-2.951,17.274c-3.533,20.624-21.406,20.312-42.334,20.312H205.335
	c-20.928,0-38.801,0.313-42.334-20.312l-2.951-17.274c-34.79,4.349-74.971-2.561-105.517-10.191l36.127,97.462
	c9.444,25.477,33.749,42.386,60.918,42.386h103.969h1.27h103.97c27.169,0,51.474-16.909,60.918-42.386l36.127-97.462
	C427.286,338.93,387.105,345.84,352.315,341.491z"/>
<path style="fill:#A04C27;" d="M457.835,331.299L421.7,428.758c-9.436,25.479-33.746,42.392-60.914,42.392h-29.598
	c27.169,0,51.468-16.913,60.914-42.392l33.596-90.632C437.074,336.156,447.96,333.768,457.835,331.299z"/>
<path style="fill:#FF4F19;" d="M346.878,275.659H142.385c-3.832,0-6.393-3.972-4.789-7.452
	c50.196-108.905,6.292-168.453,6.292-168.453h216.131c0,0,45.107,61.181-8.395,172.929
	C350.752,274.504,348.898,275.659,346.878,275.659z"/>
<path style="fill:#E23D17;" d="M351.62,272.683c-0.87,1.819-2.719,2.979-4.738,2.979h-12.735c0.02-0.03-4.796-0.06-4.786-0.09
	c48.35-100.998,18.812-162.042,10.606-175.816h20.05C360.017,99.755,405.128,160.93,351.62,272.683z"/>
<path style="fill:#FFDBA9;" d="M306.924,182.7l-2.349-10.404c-0.258-1.144-1.321-1.921-2.49-1.821l-24.765,2.123
	c-6.113,0.524-11.224-4.586-10.7-10.7l2.123-24.765c0.1-1.168-0.678-2.231-1.821-2.49l-10.406-2.35c-0.34-0.077-0.694-0.077-1.034,0
	l-10.404,2.349c-1.144,0.258-1.921,1.321-1.821,2.49l2.123,24.765c0.524,6.113-4.586,11.224-10.7,10.7l-24.765-2.123
	c-1.168-0.1-2.231,0.677-2.49,1.821l-2.349,10.404c-0.077,0.34-0.077,0.694,0,1.034l2.35,10.406c0.258,1.144,1.321,1.922,2.49,1.821
	l24.765-2.123c6.113-0.524,11.224,4.586,10.7,10.7l-2.123,24.765c-0.1,1.168,0.677,2.231,1.821,2.49l10.404,2.349
	c0.34,0.077,0.694,0.077,1.034,0l10.406-2.35c1.144-0.258,1.922-1.321,1.821-2.49l-2.123-24.765
	c-0.524-6.113,4.586-11.224,10.7-10.7l24.765,2.123c1.168,0.1,2.231-0.678,2.49-1.821l2.35-10.406
	C307.001,183.393,307.001,183.04,306.924,182.7z"/>
<path d="M511.531,310.146l-6.834-24.222c-0.934-3.31-3.22-6.119-6.273-7.703c-3.046-1.582-6.646-1.834-9.877-0.696
	c-56.975,20.051-115.317,22.635-131.842,22.949c-6.754,0.129-12.25,5.733-12.25,12.493c0,15.271,0.086,29.53-2.482,44.531
	c-1.75,10.216-5.13,14.081-33.948,14.081c-0.023,0-0.048,0-0.071,0h-30.702v-88.424h69.626c4.886,0,9.403-2.84,11.507-7.236
	c16.171-33.775,25.144-66.458,26.67-97.143c0.206-4.136-2.98-7.655-7.115-7.861c-4.118-0.174-7.655,2.979-7.86,7.115
	c-1.408,28.303-9.685,58.62-24.608,90.131h-199.62c25.288-56.427,25.489-99.699,21.111-126.242
	c-2.51-15.215-6.744-26.834-10.365-34.67h64.877h84.358h50.049c2.491,4.339,6.911,13.215,10.181,26.278
	c1.005,4.017,5.082,6.458,9.092,5.452c4.016-1.005,6.458-5.076,5.452-9.093c-2.372-9.478-5.301-17.065-7.909-22.697
	c6.334-0.6,11.307-5.946,11.307-12.435V77.239c0-6.89-5.605-12.495-12.495-12.495h-94.256V45.85c0-6.89-5.605-12.495-12.495-12.495
	h-17.516c-6.89,0-12.495,5.605-12.495,12.495v18.895h-94.256c-6.89,0-12.495,5.605-12.495,12.495v17.516
	c0,6.63,5.195,12.056,11.727,12.456c3.165,5.51,9.502,18.45,12.607,38.151c3.91,24.805,3.347,65.708-21.542,119.707
	c-1.826,3.961-1.511,8.523,0.843,12.201c2.359,3.686,6.38,5.886,10.754,5.886h92.362v88.424H204.41c-0.047,0-0.094,0-0.142,0
	c-22.833,0-31.677-1.234-33.877-14.077c-2.516-14.688-2.847-29.569-2.847-44.535c0-6.76-5.495-12.364-12.25-12.493
	c-16.524-0.314-74.867-2.898-131.841-22.949c-3.232-1.136-6.831-0.885-9.876,0.696c-3.053,1.584-5.34,4.392-6.274,7.703
	l-6.834,24.221c-1.782,6.317,1.663,12.98,7.846,15.169c3.301,1.169,7.901,2.743,13.531,4.533L5.153,457.684
	c-0.52,3.982,0.702,7.996,3.351,11.014c2.649,3.017,6.471,4.748,10.486,4.748h105.76c8.39,3.367,17.471,5.199,26.828,5.199h35.785
	c4.14,0,7.497-3.356,7.497-7.497s-3.357-7.497-7.497-7.497h-35.785c-19.574,0-38.191-10.545-48.465-26.625
	c-0.124-0.194-0.25-0.386-0.371-0.581c-5.812-9.344-8.63-19.939-12.425-30.178c26.083,5.649,88.55,17.438,159.494,18.425
	c0.035,0.001,0.07,0.001,0.104,0.001h13.33c0.035,0,0.07,0,0.104-0.001c70.172-0.976,132.05-12.521,158.63-18.238l-7.304,19.703
	c-8.313,22.426-29.969,37.494-53.889,37.494H233.344c-4.14,0-7.497,3.356-7.497,7.497s3.357,7.497,7.497,7.497h127.443
	c30.159,0,57.465-18.999,67.947-47.277c5.904-15.929,11.803-31.847,17.682-47.701c2.422-6.533,4.843-13.066,7.265-19.599
	c3.28-8.847,6.559-17.695,9.839-26.543c18.135-4.699,32.575-9.522,40.168-12.211C509.868,323.124,513.313,316.461,511.531,310.146z
	 M277.253,79.738h91.758v12.518h-91.758V79.738z M249.741,48.349h12.518v43.907h-12.518V48.349z M142.99,92.256V79.738h91.758
	v12.518H142.99z M249.741,283.156h12.518v88.424h-12.518V283.156z M21.012,292.55c55.713,19.113,111.981,22.333,131.538,22.86v19.32
	c-32.93,2.708-70.035-4.173-96.123-10.684l-24.335-6.717c-0.047-0.013-0.095-0.019-0.142-0.031c-6.71-2.05-12.299-3.912-16.414-5.34
	L21.012,292.55z M101.43,458.452H20.174l16.22-124.218c3.921,1.119,8.096,2.262,12.489,3.396l34.747,93.738
	c0.004,0.012,0.01,0.024,0.015,0.037c3.188,8.612,8.225,16.776,14.406,23.555C99.056,456.062,100.285,457.353,101.43,458.452z
	 M445.952,341.78l-17.763,47.92c-16.694,3.925-85.294,18.885-164.995,20h-13.229c-81.089-1.134-150.819-16.634-165.867-20.206
	l-17.673-47.676c21.683,4.741,46.513,8.522,70.562,8.522c3.532,0,7.043-0.099,10.529-0.271c0.296-0.014,0.594-0.022,0.89-0.038
	c1.131-0.061,2.253-0.146,3.377-0.226c0.685-0.049,1.375-0.082,2.057-0.138l1.771,10.364c4.489,26.204,27.444,26.542,47.982,26.542
	c0.273,0,0.547,0,0.819,0h37.831h27.512h38.195c20.711,0.022,44.253,0.01,48.802-26.546l1.768-10.346
	c5.424,0.438,10.931,0.659,16.49,0.659c11.321,0,22.815-0.84,34.073-2.222c0.11-0.013,0.221-0.027,0.331-0.041
	c1.496-0.185,2.988-0.38,4.474-0.583c0.822-0.112,1.637-0.228,2.454-0.344c0.587-0.084,1.174-0.17,1.759-0.257
	C427.889,345.446,437.296,343.668,445.952,341.78z M432.477,329.245c-22.645,4.369-48.966,7.483-73.028,5.451V315.41
	c19.557-0.526,75.825-3.746,131.538-22.86l5.476,19.409C484.593,316.078,460.485,323.8,432.477,329.245z"/>
<path d="M276.68,201.308l24.769,2.123c4.872,0.428,9.363-2.87,10.439-7.64l2.35-10.408c0.319-1.415,0.319-2.912,0.001-4.328
	c0-0.002-0.001-0.005-0.001-0.007l-2.35-10.404c-1.079-4.775-5.574-8.073-10.442-7.638l-24.766,2.122
	c-0.96,0.095-1.602-0.397-1.897-0.692c-0.294-0.294-0.776-0.932-0.693-1.898l2.122-24.763c0.42-4.879-2.866-9.369-7.639-10.444
	l-10.4-2.349c-1.423-0.322-2.925-0.324-4.343-0.001l-10.4,2.349c-4.774,1.076-8.06,5.565-7.642,10.443l2.123,24.764
	c0.083,0.966-0.398,1.605-0.693,1.899c-0.294,0.295-0.925,0.776-1.898,0.692l-24.762-2.122c-4.871-0.42-9.367,2.864-10.445,7.638
	l-2.348,10.4c-0.321,1.419-0.322,2.92-0.001,4.34l2.35,10.41c1.079,4.77,5.573,8.044,10.442,7.637l24.765-2.123
	c0.967-0.088,1.603,0.397,1.897,0.692s0.776,0.932,0.693,1.898l-2.123,24.766c-0.417,4.873,2.866,9.362,7.64,10.442l10.399,2.348
	c0.711,0.161,1.443,0.242,2.174,0.242c0.73,0,1.459-0.08,2.166-0.241l10.402-2.349c4.777-1.076,8.063-5.566,7.644-10.443
	l-2.123-24.765c-0.083-0.965,0.399-1.603,0.693-1.898C275.076,201.705,275.71,201.217,276.68,201.308z M264.181,191.398
	c-3.636,3.635-5.469,8.657-5.03,13.78l1.739,20.29l-4.891,1.104l-4.889-1.103l1.739-20.291c0.439-5.123-1.394-10.145-5.03-13.78
	c-3.635-3.635-8.657-5.469-13.779-5.029l-20.29,1.74l-1.105-4.89l1.104-4.89l20.291,1.739c5.122,0.44,10.144-1.393,13.779-5.028
	c3.636-3.635,5.469-8.658,5.03-13.781l-1.739-20.29l4.889-1.104l4.891,1.104l-1.739,20.291c-0.439,5.122,1.394,10.145,5.03,13.781
	c3.635,3.635,8.662,5.47,13.779,5.028l20.291-1.739l1.104,4.889l-1.105,4.891l-20.29-1.74
	C272.844,185.929,267.816,187.763,264.181,191.398z"/>
<g>
</g>
<g>
</g>
<g>
</g>
<g>
</g>
<g>
</g>
<g>
</g>
<g>
</g>
<g>
</g>
<g>
</g>
<g>
</g>
<g>
</g>
<g>
</g>
<g>
</g>
<g>
</g>
<g>
</g>
</svg>
