<?xml version="1.0" encoding="iso-8859-1"?>
<!-- Generator: Adobe Illustrator 19.0.0, SVG Export Plug-In . SVG Version: 6.00 Build 0)  -->
<svg version="1.1" id="Capa_1" xmlns="http://www.w3.org/2000/svg" xmlns:xlink="http://www.w3.org/1999/xlink" x="0px" y="0px"
	 viewBox="0 0 512.001 512.001" style="enable-background:new 0 0 512.001 512.001;" xml:space="preserve">
<path style="fill:#FF961D;" d="M420.287,154.867l-164.022,8.669l-164.022-8.669L80.905,380.654
	c-3.044,60.63,42.631,111.556,100.054,111.556h74.429h1.754h74.429c57.423,0,103.099-50.926,100.053-111.556L420.287,154.867z"/>
<path style="fill:#EF8318;" d="M331.576,492.212h-37.262c57.423,0,103.102-50.93,100.062-111.559l-11.239-223.821l37.148-1.965
	l11.342,225.785C434.666,441.282,388.999,492.212,331.576,492.212z"/>
<path style="fill:#F3D1BB;" d="M294.127,399.251h-75.722c-54.272,0-98.269-43.997-98.269-98.269V173.659h272.259v127.324
	C392.394,355.255,348.399,399.251,294.127,399.251z"/>
<path style="fill:#E8C0A8;" d="M392.397,173.662V300.98c0,54.278-44.001,98.267-98.267,98.267h-38.849
	c54.278,0,98.267-43.989,98.267-98.267V173.662L392.397,173.662L392.397,173.662z"/>
<g>
	<circle style="fill:#D99A9E;" cx="176.766" cy="327.599" r="14.641"/>
	<circle style="fill:#D99A9E;" cx="335.764" cy="327.599" r="14.641"/>
</g>
<path style="fill:#F3D1BB;" d="M120.136,239.378h-2.173c-20.251,0-36.668,16.416-36.668,36.667l0,0
	c0,20.251,16.416,36.667,36.668,36.667h2.173V239.378z"/>
<path style="fill:#E8C0A8;" d="M421.489,300.942c-6.699,7.239-16.281,11.772-26.921,11.772h-2.173v-73.336h2.173
	c20.251,0,36.667,16.416,36.667,36.667l0,0C431.235,285.657,427.538,294.403,421.489,300.942L421.489,300.942z"/>
<path style="fill:#FF961D;" d="M91.365,165.416c0,0,97.87,82.773,176.073,82.836c3.361,0.003,5.75-3.277,4.753-6.486l-5.472-17.612
	c0,0,83.896,53.76,154.446,45.795V165.416l0,0c0-69.829-56.608-126.436-126.437-126.436h-76.927
	C147.973,38.98,91.365,95.587,91.365,165.416L91.365,165.416z"/>
<path style="fill:#EF8318;" d="M421.166,165.412v104.537c-13.265,1.5-27.011,0.811-40.571-1.291V165.412
	c0-34.915-14.151-66.523-37.03-89.402s-54.5-37.03-89.402-37.03h40.571c34.902,0,66.523,14.151,89.402,37.03
	S421.166,130.497,421.166,165.412z"/>
<path style="fill:#F3D1BB;" d="M347.498,504.505V474.39c0-17.257-9.403-33.771-24.945-43.866
	c-7.853-5.101-17.052-8.442-26.642-9.657c-12.435-1.576-12.601-1.236-12.601-12.962c0-0.031,0-7.737,0-7.737h-54.092
	c0,0,0,7.705,0,7.737c0,11.725-0.166,11.386-12.601,12.962c-9.59,1.215-18.788,4.557-26.642,9.657
	c-15.542,10.095-24.945,26.609-24.945,43.866v30.115H347.498z"/>
<g>
	<path style="fill:#00AD95;" d="M306.11,423.005c-3.323-0.969-6.74-1.696-10.197-2.145c-1.507-0.182-2.839-0.352-3.995-0.509
		l-15.829,20.633c-10.001,13.036-29.644,13.036-39.644,0l-15.829-20.633c-1.157,0.158-2.488,0.327-3.995,0.509
		c-3.458,0.448-6.875,1.175-10.197,2.145c-3.229,0.944-6.35,2.144-9.35,3.574v24.786v8.722v44.418h118.39v-44.418v-8.722v-24.786
		C312.46,425.149,309.339,423.95,306.11,423.005z"/>
	<path style="fill:#00AD95;" d="M392.848,77.241l-47.442,17.101c-1.997,0.72-4.23,0.1-5.569-1.546l-60.514-74.34
		c-11.897-14.616-34.217-14.616-46.113,0l-60.514,74.34c-1.34,1.646-3.573,2.266-5.569,1.546l-47.442-17.101
		c-2.54-0.915-5.358,0.278-6.467,2.74l-19.807,43.986c-1.232,2.736,0.108,5.941,2.926,6.974
		c17.385,6.368,77.013,26.172,155.452,29.966c2.982,0.144,5.977,0.144,8.959,0c78.439-3.794,138.067-23.598,155.452-29.966
		c2.818-1.032,4.158-4.237,2.926-6.974l-19.807-43.986C398.206,77.519,395.389,76.326,392.848,77.241z"/>
</g>
<path style="fill:#039377;" d="M416.192,130.946c-4.867,1.779-13.032,4.607-23.995,7.845c0.33-1.219,0.25-2.568-0.31-3.818
	l-21.966-48.769c-0.09-0.21-0.2-0.4-0.31-0.59l23.235-8.375c2.538-0.919,5.357,0.28,6.466,2.738l19.807,43.992
	C420.359,126.708,419.01,129.906,416.192,130.946z"/>
<circle style="fill:#D5F0F7;" cx="254.167" cy="100.016" r="24.399"/>
<path style="fill:#A6DFE8;" d="M278.561,100.016c0,13.481-10.923,24.404-24.394,24.404c-11.842,0-21.706-8.425-23.925-19.607
	c3.808,2.458,8.345,3.887,13.211,3.887c13.481,0,24.404-10.923,24.404-24.404c0-1.639-0.16-3.228-0.48-4.777
	C274.104,83.846,278.561,91.411,278.561,100.016z"/>
<path d="M254.163,131.912c17.587,0,31.894-14.308,31.894-31.894s-14.308-31.894-31.894-31.894s-31.893,14.308-31.893,31.894
	S236.577,131.912,254.163,131.912z M254.163,83.113c9.321,0,16.904,7.583,16.904,16.904s-7.583,16.904-16.904,16.904
	c-9.32,0-16.903-7.583-16.903-16.904S244.843,83.113,254.163,83.113z"/>
<path d="M275.932,338.789c-4.14,0-7.495,3.355-7.495,7.495v0.901c0,6.712-5.46,12.172-12.172,12.172
	c-6.712,0-12.172-5.46-12.172-12.172v-0.901c0-4.14-3.355-7.495-7.495-7.495s-7.495,3.355-7.495,7.495v0.901
	c0,14.977,12.184,27.162,27.162,27.162c14.977,0,27.162-12.184,27.162-27.162v-0.901
	C283.428,342.143,280.072,338.789,275.932,338.789z"/>
<path d="M219.011,288.19c-4.14,0-7.495,3.355-7.495,7.495v19.865c0,4.14,3.355,7.495,7.495,7.495s7.495-3.355,7.495-7.495v-19.865
	C226.506,291.545,223.151,288.19,219.011,288.19z"/>
<path d="M293.52,288.19c-4.14,0-7.495,3.355-7.495,7.495v19.865c0,4.14,3.355,7.495,7.495,7.495c4.14,0,7.495-3.355,7.495-7.495
	v-19.865C301.015,291.545,297.66,288.19,293.52,288.19z"/>
<path d="M431.75,394.206c-4.101-0.556-7.883,2.306-8.446,6.406c-3.179,23.152-14.144,44.43-30.875,59.916
	c-10.855,10.047-23.692,17.162-37.436,20.966v-7.105c0-0.144,0-0.288-0.002-0.431c-0.121-15.667-7.009-30.65-18.147-41.556
	c-11.262-11.028-24.466-16.965-40.035-18.984c-1.006-0.13-5.39,0.078-5.935-0.804c-0.067-1.336-0.067-3.207-0.067-4.708v-1.16h3.32
	c51.812,0,95.037-37.449,104.039-86.7c8.137-0.672,15.937-3.598,22.492-8.384l2.23,44.401c0.207,4.133,3.689,7.322,7.861,7.109
	c4.134-0.207,7.317-3.727,7.109-7.861l-3.064-61.026c2.574-5.673,3.937-11.873,3.937-18.24c0-10.635-3.785-20.398-10.07-28.028
	v-82.602c0-11.042-1.366-21.766-3.898-32.036c0.521-0.738,0.968-1.53,1.323-2.373c1.359-3.23,1.312-6.918-0.127-10.115
	l-19.809-43.989c-2.699-5.991-9.658-8.941-15.843-6.713l-1.106,0.399c-23.147-23.06-54.654-37.728-89.525-39.001l-14.541-17.862
	C278.034,5.003,267.512,0,256.264,0c-11.247,0-21.768,5.003-28.868,13.725l-14.541,17.862
	c-34.874,1.273-66.385,15.938-89.532,38.999l-1.099-0.397c-6.186-2.231-13.144,0.721-15.843,6.715l-19.806,43.985
	c-1.441,3.198-1.488,6.886-0.129,10.116c0.354,0.841,0.801,1.633,1.321,2.37c-2.533,10.271-8.002,120.55-8.002,120.55
	c-3.786,6.508-5.965,14.062-5.965,22.12c0,6.495,1.41,12.665,3.939,18.222l-4.319,86.011c-1.612,32.113,9.859,63.565,31.472,86.291
	c14.68,15.434,32.857,25.834,52.645,30.432v7.503c0,4.14,3.355,7.495,7.495,7.495h32.038h118.391h32.038
	c4.14,0,7.495-3.355,7.495-7.495v-7.523c17.542-4.11,33.941-12.794,47.618-25.453c19.27-17.836,31.892-42.297,35.543-68.878
	C438.719,398.551,435.85,394.769,431.75,394.206z M384.9,300.983c0,50.052-40.721,90.772-90.773,90.772h-75.722
	c-50.052,0-90.772-40.721-90.772-90.772v-99.542c5.758,3.826,11.975,7.798,18.567,11.782
	c46.629,28.189,87.418,42.496,121.236,42.524h0.007c3.94,0,7.69-1.896,10.032-5.074c2.212-3.001,2.963-6.864,2.064-10.459
	c8.957,4.833,21.02,10.877,35.059,16.741c25.287,10.562,48.799,17.212,70.304,19.916V300.983z M279.264,423.089
	c0.202,0.223,0.409,0.433,0.621,0.633l-8.95,11.665c-3.528,4.598-8.874,7.234-14.669,7.234c-5.795,0-11.141-2.637-14.67-7.234
	l-8.95-11.666c0.211-0.2,0.418-0.41,0.62-0.633c3.448-3.793,3.448-8.57,3.448-15.183v-0.242h39.102v0.242
	C275.816,414.519,275.816,419.297,279.264,423.089z M423.718,276.989c-0.225,7.022-2.945,13.689-7.731,18.862
	c-4.287,4.634-9.968,7.729-16.097,8.873V278.12c2.13,0.085,4.244,0.143,6.329,0.143c5.414,0,10.681-0.288,15.787-0.863
	C422.603,277.331,423.175,277.187,423.718,276.989z M373.396,76.286L344.53,86.691l-31.6-38.819
	C335.901,51.416,356.723,61.552,373.396,76.286z M199.589,47.885L168,86.691l-28.86-10.403
	C155.809,61.56,176.626,51.43,199.589,47.885z M163.675,141.977c-29.388-6.189-50.979-13.147-62.402-17.221l17.892-39.734
	l45.418,16.372c4.983,1.792,10.577,0.243,13.923-3.867l60.515-74.34c4.24-5.21,10.525-8.198,17.244-8.198
	c6.718,0,13.004,2.988,17.245,8.198l60.515,74.342c3.344,4.105,8.938,5.658,13.923,3.864l45.418-16.371l17.892,39.733
	c-19.121,6.808-76.568,25.071-150.875,28.666c-2.732,0.133-5.503,0.133-8.236,0c-13.147-0.637-29.151-2.057-43.91-3.895
	c-4.109-0.507-7.853,2.403-8.365,6.511c-0.513,4.107,2.402,7.852,6.511,8.365c15.117,1.885,31.534,3.34,45.039,3.993
	c1.606,0.078,3.225,0.117,4.843,0.117c1.618,0,3.236-0.039,4.843-0.117c70.43-3.407,126.258-19.695,149.955-27.706
	c1.697,7.981,2.606,16.25,2.606,24.729v97.644c-65.652,3.669-142.119-44.711-142.907-45.216c-1.236-0.792-2.642-1.185-4.043-1.185
	c-1.605,0-3.207,0.515-4.544,1.533c-2.504,1.909-3.55,5.18-2.614,8.186l4.45,14.32c-66.907-2.207-149.238-65.994-165.1-78.79
	c0.211-7.254,1.086-14.343,2.548-21.217c12.631,4.286,32.896,10.43,59.126,15.955c4.048,0.854,8.026-1.739,8.879-5.789
	C170.318,146.805,167.725,142.831,163.675,141.977z M98.454,180.631c3.914,2.998,8.677,6.554,14.187,10.486v41.099
	c-6.168,0.745-11.947,2.765-17.068,5.789L98.454,180.631z M112.641,247.36v57.373c-13.553-2.509-23.851-14.419-23.851-28.686
	C88.79,261.778,99.089,249.868,112.641,247.36z M189.574,497.01h-17.048v-22.62c0-13.051,6.289-25.528,17.048-34.298V497.01z
	 M185.895,424.24c-17.758,11.532-28.358,30.279-28.358,50.151v7.161c-15.644-4.308-30.009-12.931-41.783-25.312
	c-18.797-19.764-28.77-47.178-27.363-75.21l3.485-69.389c6.407,4.705,14.122,7.731,22.492,8.41
	c9.003,49.249,52.227,86.696,104.037,86.696h3.32v1.16c0,1.502,0,3.373-0.067,4.709c-0.598,0.104-1.322,0.21-2.089,0.316
	C207.792,414.523,195.977,417.691,185.895,424.24z M307.965,497.01h-103.4v-65.473c0.114-0.043,0.224-0.091,0.338-0.133
	c0.271-0.1,0.543-0.195,0.816-0.292c1.076-0.379,10.776-3.816,11.579-2.769l12.405,16.17c6.387,8.326,16.069,13.1,26.562,13.1
	c10.492,0,20.175-4.774,26.561-13.1c0,0,12.398-16.161,12.405-16.17c0.919-1.199,10.239,2.298,11.576,2.768
	c0.275,0.097,0.55,0.192,0.823,0.294c0.113,0.042,0.222,0.089,0.335,0.132v65.473H307.965z M340.003,497.01h-17.048V440.09
	c10.759,8.77,17.048,21.247,17.048,34.299V497.01z"/>
<path d="M225.527,279.832c3.09,2.703,7.789,2.417,10.528-0.651c2.755-3.089,2.485-7.827-0.604-10.583
	c-6.225-5.554-22.427-12.792-39.184-0.44c-3.332,2.456-4.042,7.148-1.586,10.48c1.47,1.994,3.739,3.049,6.039,3.049
	c1.544-0.001,3.102-0.477,4.441-1.463C215.752,272.418,223.96,278.505,225.527,279.832z"/>
<path d="M312.744,268.598c-6.225-5.555-22.422-12.797-39.184-0.441c-3.332,2.455-4.042,7.147-1.586,10.48
	c1.47,1.994,3.739,3.049,6.039,3.049c1.544-0.001,3.102-0.477,4.441-1.463c10.59-7.805,18.799-1.719,20.364-0.393
	c3.09,2.703,7.788,2.417,10.527-0.651C316.102,276.092,315.832,271.354,312.744,268.598z"/>
<g>
</g>
<g>
</g>
<g>
</g>
<g>
</g>
<g>
</g>
<g>
</g>
<g>
</g>
<g>
</g>
<g>
</g>
<g>
</g>
<g>
</g>
<g>
</g>
<g>
</g>
<g>
</g>
<g>
</g>
</svg>
