<?xml version="1.0" encoding="iso-8859-1"?>
<!-- Generator: Adobe Illustrator 19.0.0, SVG Export Plug-In . SVG Version: 6.00 Build 0)  -->
<svg version="1.1" id="Capa_1" xmlns="http://www.w3.org/2000/svg" xmlns:xlink="http://www.w3.org/1999/xlink" x="0px" y="0px"
	 viewBox="0 0 512 512" style="enable-background:new 0 0 512 512;" xml:space="preserve">
<path style="fill:#FFDBA9;" d="M221.947,171.916v55.038c0,0-43.761-7.998-52.814-55.038H221.947z"/>
<path style="fill:#B76035;" d="M256.001,504.505L256.001,504.505c-18.807,0-34.054-15.246-34.054-34.054V134.949h68.108v335.502
	C290.055,489.258,274.808,504.505,256.001,504.505z"/>
<path style="fill:#A04C27;" d="M290.053,134.952v335.504c0,18.802-15.241,34.052-34.052,34.052c-5.221,0-10.17-1.177-14.597-3.279
	c11.498-5.472,19.446-17.192,19.446-30.773V134.952H290.053z"/>
<rect x="239.961" y="61.37" style="fill:#FFDBA9;" width="33.17" height="73.57"/>
<rect x="256.551" y="61.37" style="fill:#FFC473;" width="16.584" height="73.57"/>
<path style="fill:#B7C1CA;" d="M251.779,9.546l-32.215,43.819c-2.442,3.322-0.07,8.009,4.053,8.009h32.215h32.215
	c4.123,0,6.495-4.688,4.053-8.009L259.884,9.546C257.874,6.812,253.789,6.812,251.779,9.546z"/>
<path style="fill:#A3AEB7;" d="M288.049,61.375h-12.934l-30.723-41.778l7.386-10.049c2.01-2.734,6.095-2.735,8.105-0.001
	l32.218,43.818C294.544,56.687,292.172,61.375,288.049,61.375z"/>
<g>
	<path style="fill:#FFDBA9;" d="M290.055,171.916v55.038c0,0,43.761-7.998,52.814-55.038H290.055z"/>
	<path style="fill:#FFDBA9;" d="M221.947,326.115v59.153h18.021c0,8.855,7.178,16.033,16.033,16.033s16.033-7.178,16.033-16.033
		h18.021v-59.153H221.947z"/>
</g>
<path style="fill:#FFC473;" d="M290.053,326.118v59.152h-18.017c0,7.163-4.698,13.229-11.186,15.281v-74.432h29.203V326.118z"/>
<path style="fill:#80829B;" d="M256.001,134.949h-115.89c-37.607,0-68.093,30.486-68.093,68.093v77.088
	c0,10.94,8.868,19.808,19.808,19.808l0,0c10.94,0,19.808-8.868,19.808-19.808v-66.712c0-22.904,18.567-41.472,41.472-41.472h102.895
	h102.895c22.904,0,41.472,18.567,41.472,41.472v66.712c0,10.94,8.868,19.808,19.808,19.808l0,0c10.94,0,19.808-8.868,19.808-19.808
	v-77.088c0-37.607-30.486-68.093-68.093-68.093H256.001z"/>
<path d="M371.891,127.453h-15.282c-4.14,0-7.496,3.355-7.496,7.496c0,4.14,3.355,7.496,7.496,7.496h15.282
	c33.413,0,60.597,27.184,60.597,60.597v77.089c0,6.789-5.524,12.312-12.313,12.312s-12.312-5.523-12.312-12.312v-66.712
	c0-27.001-21.967-48.968-48.968-48.968h-15.481c-0.181-0.013-0.362-0.03-0.546-0.03h-52.814c-0.203,0-0.402,0.014-0.601,0.03
	h-66.907c-0.199-0.016-0.398-0.03-0.601-0.03h-52.814c-0.183,0-0.364,0.017-0.546,0.03h-15.481
	c-27.001,0-48.968,21.967-48.968,48.968v66.712c0,6.789-5.523,12.312-12.312,12.312s-12.313-5.523-12.313-12.312v-77.089
	c0-33.413,27.184-60.597,60.597-60.597h99.85c0.001,0,0.002,0,0.002,0h33.169h0.002h36.503c4.14,0,7.496-3.355,7.496-7.496
	c0-4.14-3.355-7.496-7.496-7.496h-29.01V68.87h7.419c4.749,0,9.032-2.632,11.176-6.87c2.145-4.238,1.729-9.248-1.083-13.074
	l-32.213-43.82C263.573,1.909,259.8,0,255.831,0s-7.741,1.909-10.092,5.106l-32.216,43.82c-2.813,3.827-3.229,8.837-1.084,13.073
	c2.144,4.238,6.427,6.87,11.177,6.87h8.851v58.583h-92.356c-41.68,0-75.589,33.909-75.589,75.589v77.089
	c0,15.055,12.249,27.303,27.304,27.303s27.303-12.249,27.303-27.303v-50.335l95.321,128.964v111.692
	c0,22.91,18.64,41.549,41.55,41.549s41.55-18.639,41.55-41.549V358.759l95.321-128.964v50.335c0,15.055,12.249,27.303,27.303,27.303
	c15.056,0,27.304-12.249,27.304-27.303v-77.089C447.48,161.362,413.571,127.453,371.891,127.453z M265.636,127.453h-18.177V68.87
	h18.177V127.453z M228.489,53.879l27.342-37.19l27.342,37.19h-10.042h-33.168H228.489z M297.551,179.442h35.63
	c-7.629,22.865-24.98,33.107-35.63,37.381V179.442z M229.442,333.61h53.117v44.163h-10.526c-4.14,0-7.496,3.355-7.496,7.496
	c0,4.707-3.83,8.537-8.537,8.537c-4.707,0-8.537-3.83-8.537-8.537c0-4.14-3.355-7.496-7.496-7.496h-10.526V333.61H229.442z
	 M214.451,179.442v37.379c-10.658-4.278-28.003-14.52-35.63-37.379H214.451z M120.01,205.765
	c3.482-15.06,16.994-26.323,33.096-26.323h10.07c9.665,36.284,38.5,49.234,51.275,53.274v19.621c0,4.14,3.355,7.496,7.496,7.496
	c4.14,0,7.496-3.355,7.496-7.496v-25.384v-47.511h53.117v47.511v91.665h-53.117v-18.68c0-4.14-3.355-7.496-7.496-7.496
	c-4.14,0-7.496,3.355-7.496,7.496v33.6L120.01,205.765z M256.001,497.009c-14.645,0-26.559-11.914-26.559-26.558v-77.687h4.254
	c3.137,9.31,11.95,16.033,22.304,16.033s19.167-6.723,22.304-16.033h4.254v77.687C282.56,485.095,270.646,497.009,256.001,497.009z
	 M297.551,232.716c12.775-4.041,41.609-16.99,51.275-53.274h10.07c16.102,0,29.614,11.263,33.096,26.323l-94.441,127.773V232.716z"
	/>
<g>
</g>
<g>
</g>
<g>
</g>
<g>
</g>
<g>
</g>
<g>
</g>
<g>
</g>
<g>
</g>
<g>
</g>
<g>
</g>
<g>
</g>
<g>
</g>
<g>
</g>
<g>
</g>
<g>
</g>
</svg>
