<?xml version="1.0" encoding="iso-8859-1"?>
<!-- Generator: Adobe Illustrator 19.0.0, SVG Export Plug-In . SVG Version: 6.00 Build 0)  -->
<svg version="1.1" id="Capa_1" xmlns="http://www.w3.org/2000/svg" xmlns:xlink="http://www.w3.org/1999/xlink" x="0px" y="0px"
	 viewBox="0 0 512 512" style="enable-background:new 0 0 512 512;" xml:space="preserve">
<path style="fill:#3777D3;" d="M433.191,478.215H78.497c-2.774,0-5.024-2.25-5.024-5.024v-82.033h364.742v82.033
	C438.215,475.965,435.966,478.215,433.191,478.215z"/>
<path style="fill:#2468BA;" d="M438.219,391.158v82.037c0,2.773-2.251,5.024-5.024,5.024h-23.491c2.773,0,5.024-2.251,5.024-5.024
	v-82.037H438.219z"/>
<g>
	<circle style="fill:#FFDBA9;" cx="255.859" cy="434.683" r="19.592"/>
	<circle style="fill:#FFDBA9;" cx="350.536" cy="434.683" r="19.592"/>
	<circle style="fill:#FFDBA9;" cx="161.182" cy="434.683" r="19.592"/>
</g>
<g>
	<path style="fill:#FFC473;" d="M275.451,434.683c0,10.821-8.771,19.593-19.593,19.593c-8.842,0-16.317-5.858-18.749-13.906
		c1.798,0.553,3.708,0.844,5.687,0.844c10.821,0,19.593-8.771,19.593-19.593c0-1.979-0.291-3.888-0.844-5.687
		C269.593,418.366,275.451,425.841,275.451,434.683z"/>
	<path style="fill:#FFC473;" d="M370.128,434.683c0,10.821-8.771,19.593-19.593,19.593c-8.842,0-16.317-5.858-18.749-13.906
		c1.798,0.553,3.707,0.844,5.687,0.844c10.821,0,19.593-8.771,19.593-19.593c0-1.979-0.291-3.888-0.844-5.687
		C364.27,418.366,370.128,425.841,370.128,434.683z"/>
	<path style="fill:#FFC473;" d="M180.773,434.683c0,10.821-8.771,19.593-19.593,19.593c-8.842,0-16.317-5.858-18.749-13.906
		c1.798,0.553,3.708,0.844,5.687,0.844c10.821,0,19.593-8.771,19.593-19.593c0-1.979-0.291-3.888-0.844-5.687
		C174.916,418.366,180.773,425.841,180.773,434.683z"/>
</g>
<path style="fill:#FF961D;" d="M169.439,391.158V214.282c-0.001-44.674-43.37-80.874-87.254-72.205
	c-41.365,8.172-70.84,41.836-74.325,83.728c-0.927,11.148,0.234,22.405,2.423,33.339c4.412,22.033,13.562,43.109,24.455,62.664
	c0.226,0.406,38.631,69.348,38.631,69.348L169.439,391.158L169.439,391.158z"/>
<path style="fill:#EF8318;" d="M10.28,259.144c4.411,22.034,13.564,43.114,24.455,62.666c0.231,0.402,38.632,69.348,38.632,69.348
	h23.471c0,0-38.401-68.946-38.622-69.348c-10.901-19.552-20.045-40.632-24.455-62.666c-2.19-10.932-3.356-22.195-2.431-33.337
	c3.486-41.898,32.966-75.557,74.331-83.725c0.492-0.1,0.995-0.191,1.487-0.281c-8.098-1.397-16.518-1.387-24.968,0.281
	c-41.365,8.169-70.835,41.828-74.321,83.725C6.934,236.949,8.09,248.212,10.28,259.144z"/>
<path style="fill:#FF961D;" d="M342.562,391.158V214.282c0.001-44.674,43.37-80.874,87.254-72.205
	c41.365,8.172,70.84,41.836,74.325,83.728c0.927,11.148-0.234,22.405-2.423,33.339c-4.412,22.033-13.562,43.109-24.456,62.664
	c-0.226,0.406-38.631,69.348-38.631,69.348L342.562,391.158L342.562,391.158z"/>
<path style="fill:#EF8318;" d="M501.719,259.144c-4.411,22.034-13.564,43.114-24.456,62.666
	c-0.231,0.402-38.632,69.348-38.632,69.348H415.16c0,0,38.401-68.946,38.622-69.348c10.901-19.552,20.045-40.632,24.455-62.666
	c2.19-10.932,3.356-22.195,2.431-33.337c-3.486-41.898-32.966-75.557-74.331-83.725c-0.492-0.1-0.995-0.191-1.487-0.281
	c8.098-1.397,16.518-1.387,24.968,0.281c41.365,8.169,70.835,41.828,74.321,83.725C505.065,236.949,503.909,248.212,501.719,259.144
	z"/>
<path style="fill:#F7A83E;" d="M255.844,391.158V214.282c-0.001-44.674-43.37-80.874-87.254-72.205
	c-41.365,8.172-70.84,41.836-74.325,83.728c-0.927,11.148,0.234,22.405,2.423,33.339c4.412,22.033,13.562,43.109,24.455,62.664
	c0.226,0.406,38.631,69.348,38.631,69.348L255.844,391.158L255.844,391.158z"/>
<path id="SVGCleanerId_0" style="fill:#F7A83E;" d="M255.844,391.158V214.282c0.001-44.674,43.37-80.874,87.254-72.205
	c41.365,8.172,70.84,41.836,74.325,83.728c0.927,11.148-0.234,22.405-2.423,33.339c-4.412,22.033-13.562,43.109-24.456,62.664
	c-0.226,0.406-38.631,69.348-38.631,69.348L255.844,391.158L255.844,391.158z"/>
<g>
	<path id="SVGCleanerId_0_1_" style="fill:#F7A83E;" d="M255.844,391.158V214.282c0.001-44.674,43.37-80.874,87.254-72.205
		c41.365,8.172,70.84,41.836,74.325,83.728c0.927,11.148-0.234,22.405-2.423,33.339c-4.412,22.033-13.562,43.109-24.456,62.664
		c-0.226,0.406-38.631,69.348-38.631,69.348L255.844,391.158L255.844,391.158z"/>
</g>
<g>
	<path style="fill:#EF8E25;" d="M415.003,259.144c-4.411,22.034-13.564,43.114-24.455,62.666
		c-0.231,0.402-38.632,69.348-38.632,69.348h-23.471c0,0,38.401-68.946,38.622-69.348c10.901-19.552,20.045-40.632,24.456-62.666
		c2.19-10.932,3.356-22.195,2.431-33.337c-3.486-41.898-32.966-75.557-74.331-83.725c-0.492-0.1-0.995-0.191-1.487-0.281
		c8.098-1.397,16.518-1.387,24.968,0.281c41.365,8.169,70.835,41.828,74.321,83.725
		C418.348,236.949,417.193,248.212,415.003,259.144z"/>
	<path style="fill:#EF8E25;" d="M96.686,259.144c4.411,22.034,13.564,43.114,24.455,62.666c0.231,0.402,38.632,69.348,38.632,69.348
		h23.471c0,0-38.401-68.946-38.622-69.348c-10.901-19.552-20.045-40.632-24.455-62.666c-2.19-10.932-3.356-22.195-2.431-33.337
		c3.486-41.898,32.966-75.557,74.331-83.725c0.492-0.1,0.995-0.191,1.487-0.281c-8.098-1.397-16.518-1.387-24.968,0.281
		c-41.365,8.169-70.835,41.828-74.321,83.725C93.34,236.949,94.496,248.212,96.686,259.144z"/>
</g>
<path d="M255.858,461.813c14.959,0,27.127-12.168,27.127-27.127s-12.168-27.127-27.127-27.127
	c-14.958,0-27.127,12.168-27.127,27.127S240.899,461.813,255.858,461.813z M255.858,422.63c6.647,0,12.056,5.409,12.056,12.056
	s-5.409,12.056-12.056,12.056s-12.056-5.409-12.056-12.056S249.21,422.63,255.858,422.63z"/>
<path d="M377.663,434.686c0-14.959-12.168-27.127-27.127-27.127s-27.127,12.168-27.127,27.127s12.168,27.127,27.127,27.127
	S377.663,449.645,377.663,434.686z M338.48,434.686c0-6.647,5.409-12.056,12.056-12.056s12.056,5.409,12.056,12.056
	s-5.409,12.056-12.056,12.056S338.48,441.333,338.48,434.686z"/>
<path d="M134.053,434.686c0,14.959,12.169,27.127,27.127,27.127c14.958,0,27.127-12.168,27.127-27.127s-12.169-27.127-27.127-27.127
	C146.222,407.559,134.053,419.727,134.053,434.686z M173.236,434.686c0,6.647-5.409,12.056-12.056,12.056
	c-6.647,0-12.056-5.409-12.056-12.056s5.409-12.056,12.056-12.056C167.827,422.63,173.236,428.039,173.236,434.686z"/>
<path d="M511.651,225.181c-3.775-45.377-36.074-81.745-80.375-90.495c-19.449-3.841-39.688,0.132-56.971,10.92
	c-9.064-5.071-19.051-8.808-29.747-10.92c-22.966-4.537-47.036,1.816-66.037,17.428c-5.828,4.789-10.891,10.216-15.129,16.111
	V77.491h36.922c4.163,0,7.536-3.373,7.536-7.536s-3.373-7.536-7.536-7.536h-36.922V33.786c0-4.163-3.373-7.536-7.536-7.536
	c-4.162,0-7.536,3.373-7.536,7.536V62.42h-36.922c-4.162,0-7.536,3.373-7.536,7.536s3.374,7.536,7.536,7.536h36.922v90.77
	c-4.243-5.909-9.316-11.349-15.156-16.148c-19-15.613-43.067-21.965-66.037-17.428c-10.628,2.099-20.555,5.803-29.574,10.825
	c-17.251-10.722-37.435-14.657-56.831-10.825c-44.299,8.75-76.599,45.118-80.374,90.495c-0.899,10.81-0.066,22.404,2.544,35.444
	c4.103,20.492,12.367,41.705,25.261,64.85c0.206,0.371,32.149,57.711,37.782,67.824v79.89c0,6.926,5.634,12.559,12.559,12.559
	h105.162c4.162,0,7.536-3.373,7.536-7.536s-3.374-7.536-7.536-7.536H81.009v-71.984h349.67v71.986H230.883
	c-4.162,0-7.536,3.373-7.536,7.536s3.374,7.536,7.536,7.536h202.308c6.926,0,12.559-5.634,12.559-12.559v-79.329
	c4.618-8.289,37.864-67.971,38.095-68.385c12.895-23.147,21.158-44.361,25.261-64.851
	C511.718,247.587,512.55,235.993,511.651,225.181z M77.798,383.622c-8.101-14.542-36.281-65.13-36.476-65.479
	c-12.121-21.76-19.858-41.542-23.65-60.476c-2.33-11.636-3.084-21.854-2.303-31.236c3.211-38.6,30.649-69.527,68.275-76.961
	c13.404-2.648,27.317-0.624,39.861,5.511c-20.765,16.782-34.38,41.713-36.751,70.201c-0.899,10.81-0.066,22.404,2.544,35.444
	c4.103,20.492,12.367,41.705,25.261,64.85c0.169,0.302,21.504,38.602,32.391,58.146L77.798,383.622L77.798,383.622z
	 M248.308,383.622h-84.105c-8.101-14.542-36.281-65.13-36.476-65.479c-12.121-21.76-19.858-41.542-23.65-60.476
	c-2.33-11.636-3.084-21.854-2.303-31.236c3.211-38.6,30.649-69.527,68.275-76.961c18.53-3.658,38.045,1.549,53.547,14.287
	c15.703,12.906,24.711,31.321,24.711,50.526v169.339H248.308z M494.329,257.666c-3.792,18.933-11.528,38.716-23.648,60.473
	c-0.193,0.348-28.376,50.94-36.478,65.483h-69.467c10.887-19.544,32.224-57.847,32.39-58.145c2.168-3.892,4.227-7.77,6.119-11.527
	c1.872-3.717,0.377-8.247-3.341-10.119c-3.716-1.871-8.248-0.377-10.119,3.341c-1.798,3.57-3.758,7.261-5.829,10.979
	c-0.248,0.446-28.38,50.945-36.472,65.471H263.38v-169.34c0-0.007,0-0.015,0-0.015c0.008-19.205,9.013-37.61,24.711-50.511
	c15.502-12.738,35.019-17.948,53.548-14.287c37.626,7.433,65.064,38.361,68.274,76.961c0.781,9.383,0.027,19.601-2.302,31.235
	c-0.449,2.24-0.958,4.509-1.511,6.747c-1,4.04,1.465,8.125,5.505,9.125c4.042,1,8.125-1.464,9.125-5.505
	c0.607-2.454,1.165-4.946,1.658-7.407c2.612-13.04,3.444-24.633,2.545-35.444c-2.366-28.432-15.932-53.325-36.63-70.105
	c12.592-6.208,26.577-8.268,40.053-5.605c37.627,7.433,65.065,38.361,68.274,76.961
	C497.413,235.814,496.659,246.031,494.329,257.666z"/>
<g>
</g>
<g>
</g>
<g>
</g>
<g>
</g>
<g>
</g>
<g>
</g>
<g>
</g>
<g>
</g>
<g>
</g>
<g>
</g>
<g>
</g>
<g>
</g>
<g>
</g>
<g>
</g>
<g>
</g>
</svg>
