<?xml version="1.0" encoding="iso-8859-1"?>
<!-- Generator: Adobe Illustrator 19.0.0, SVG Export Plug-In . SVG Version: 6.00 Build 0)  -->
<svg version="1.1" id="Capa_1" xmlns="http://www.w3.org/2000/svg" xmlns:xlink="http://www.w3.org/1999/xlink" x="0px" y="0px"
	 viewBox="0 0 512 512" style="enable-background:new 0 0 512 512;" xml:space="preserve">
<path style="fill:#B76035;" d="M72.324,130.661c-9.352-1.286-18.346,5.276-19.457,14.65c-1.077,9.091,5.324,17.407,14.432,18.659
	l321.695,44.225c5.827,22.187,24.484,39.797,48.626,43.116l0,0c32.008,4.4,61.522-17.98,65.922-49.987l0.913-6.641
	c0.376-2.734-1.536-5.254-4.269-5.63L72.324,130.661z"/>
<path style="fill:#A04C27;" d="M494.584,225.341c-10.585,16.188-28.847,26.519-48.919,26.519c-2.654,0-5.338-0.173-8.043-0.549
	c-24.139-3.315-42.798-20.926-48.624-43.113l-321.7-44.231c-9.212-1.261-15.659-9.762-14.388-18.974
	c0.254-1.871,0.814-3.62,1.607-5.226c2.4,4.81,7.057,8.389,12.781,9.172l332.608,43.8c1.957,0.258,3.571,1.631,4.177,3.51
	c6.69,20.722,24.712,36.865,47.733,40.034c2.705,0.376,5.389,0.549,8.043,0.549C472.681,236.831,484.771,232.612,494.584,225.341z"
	/>
<path style="fill:#B7C1CA;" d="M455.153,127.453L455.153,127.453c-25.086-3.449-48.219,14.092-51.667,39.178l-1.249,9.085
	l90.845,12.489l1.249-9.085C497.78,154.034,480.239,130.902,455.153,127.453z"/>
<path style="fill:#A3AEB7;" d="M494.329,179.117l-1.251,9.09l-14.744-2.023l0.844-6.131c3.447-25.085-14.093-48.217-39.178-51.664
	c-0.498-0.071-0.997-0.132-1.495-0.183c5.308-1.231,10.921-1.536,16.645-0.753C480.236,130.9,497.776,154.032,494.329,179.117z"/>
<path style="fill:#B76035;" d="M469.523,440.752H12.578c-2.808,0-5.084-2.276-5.084-5.084v-50.716c0-2.808,2.276-5.084,5.084-5.084
	h456.944c2.808,0,5.084,2.276,5.084,5.084v50.716C474.607,438.476,472.331,440.752,469.523,440.752z"/>
<path style="fill:#A04C27;" d="M469.523,440.752H445.9v-60.885h23.622c2.808,0,5.084,2.276,5.084,5.084v50.716
	C474.607,438.476,472.331,440.752,469.523,440.752z"/>
<path style="fill:#B76035;" d="M145.759,411.59l-32.48-15.361L276.526,51.046c4.242-8.969,14.951-12.801,23.92-8.56l0,0
	c8.969,4.242,12.801,14.951,8.56,23.92L145.759,411.59z"/>
<path style="fill:#A04C27;" d="M310.738,58.736c0,2.573-0.559,5.186-1.729,7.667L145.76,411.591l-16.645-7.88L294.367,54.293
	c1.21-2.562,1.779-5.257,1.779-7.911c0-1.85-0.275-3.691-0.823-5.44c1.739,0.254,3.457,0.763,5.125,1.545
	C306.935,45.558,310.738,52.005,310.738,58.736z"/>
<path style="fill:#B76035;" d="M336.342,411.59l32.48-15.361L205.575,51.046c-4.242-8.969-14.951-12.801-23.92-8.56l0,0
	c-8.969,4.242-12.801,14.951-8.56,23.92L336.342,411.59z"/>
<path style="fill:#A04C27;" d="M368.818,396.227l-16.615,7.86L185.446,51.486c-1.485-3.142-3.722-5.674-6.386-7.494
	c0.803-0.569,1.678-1.068,2.593-1.505c8.968-4.24,19.675-0.407,23.926,8.562L368.818,396.227z"/>
<circle style="fill:#FF961D;" cx="241.05" cy="168.07" r="43.558"/>
<path style="fill:#EF8318;" d="M284.606,168.075c0,24.048-19.503,43.55-43.56,43.55c-13.961,0-26.396-6.569-34.358-16.788
	c5.206,2.206,10.941,3.427,16.95,3.427c24.058,0,43.56-19.503,43.56-43.56c0-10.087-3.427-19.37-9.192-26.752
	C273.634,134.55,284.606,150.036,284.606,168.075z"/>
<g>
	<circle style="fill:#6B6C8A;" cx="126.49" cy="410.31" r="60.943"/>
	<circle style="fill:#6B6C8A;" cx="355.19" cy="410.31" r="60.943"/>
</g>
<g>
	<path style="fill:#5D5F7A;" d="M416.131,410.31c0,33.656-27.291,60.938-60.948,60.938c-24.19,0-45.086-14.093-54.928-34.521
		c10.046,7.301,22.4,11.602,35.762,11.602c33.656,0,60.938-27.291,60.938-60.948c0-9.467-2.156-18.425-6.01-26.417
		C406.207,372.037,416.131,390.015,416.131,410.31z"/>
	<path style="fill:#5D5F7A;" d="M187.436,410.31c0,33.656-27.291,60.938-60.948,60.938c-24.19,0-45.086-14.093-54.928-34.521
		c10.046,7.301,22.4,11.602,35.762,11.602c33.656,0,60.938-27.291,60.938-60.948c0-9.467-2.156-18.425-6.01-26.417
		C177.512,372.037,187.436,390.015,187.436,410.31z"/>
</g>
<path d="M509.46,186.456c-1.947-2.567-4.751-4.242-7.917-4.764l0.213-1.551c1.941-14.116-1.732-28.143-10.341-39.497
	c-8.609-11.353-21.125-18.675-35.241-20.615v-0.001c-14.119-1.945-28.143,1.731-39.497,10.341s-18.675,21.125-20.616,35.241
	l-0.211,1.534l-5.612-0.771l-20.408-2.778c-4.099-0.553-7.879,2.315-8.437,6.416s2.314,7.879,6.415,8.437l20.398,2.776l11.693,1.608
	c0.426,0.14,0.865,0.247,1.316,0.309l90.846,12.49c0.34,0.047,0.681,0.07,1.021,0.07c0.089,0,0.177-0.018,0.266-0.021l3.344,0.46
	l-0.573,4.166c-3.831,27.862-29.622,47.408-57.477,43.583c-20.498-2.818-37.14-17.575-42.398-37.595
	c-0.769-2.93-3.227-5.109-6.228-5.521L288.523,186.82c2.296-5.786,3.566-12.086,3.575-18.678l31.144,4.24
	c4.104,0.57,7.879-2.315,8.437-6.415c0.558-4.102-2.314-7.879-6.415-8.438l-35.54-4.838c-1.565-4.931-3.858-9.542-6.754-13.703
	l32.81-69.376c2.908-6.148,3.247-13.06,0.956-19.463c-2.291-6.403-6.939-11.53-13.086-14.438
	c-6.148-2.907-13.059-3.247-19.462-0.955c-6.403,2.291-11.53,6.939-14.437,13.087L241.05,108.53l-28.7-60.689
	c-6.002-12.691-21.209-18.13-33.9-12.131c-12.69,6.002-18.132,21.209-12.13,33.899l32.808,69.371
	c-0.289,0.415-0.568,0.838-0.845,1.262L73.344,123.236c-6.576-0.902-13.382,0.922-18.669,5.01
	c-5.206,4.025-8.492,9.773-9.251,16.184c-1.549,13.075,7.806,25.172,20.854,26.965l128.227,17.629
	c1.296,2.863,2.847,5.588,4.626,8.142l-68.5,144.842c-1.371-0.082-2.748-0.137-4.139-0.137c-23.713,0-44.642,12.128-56.927,30.501
	H12.578C5.642,372.373,0,378.015,0,384.951v50.716c0,6.936,5.642,12.579,12.578,12.579h56.988
	c12.285,18.373,33.213,30.5,56.926,30.5s44.641-12.127,56.926-30.5H298.26c12.285,18.373,33.214,30.5,56.927,30.5
	s44.641-12.127,56.926-30.5h57.41c6.936,0,12.579-5.643,12.579-12.579v-50.716c0-6.936-5.643-12.579-12.579-12.579h-57.409
	c-12.285-18.374-33.214-30.501-56.927-30.501c-1.253,0-2.496,0.039-3.732,0.106l-66.452-140.512l98.221,13.503
	c8.089,23.404,28.546,40.354,53.377,43.768c3.036,0.418,6.05,0.621,9.033,0.621c32.432-0.002,60.796-23.998,65.335-57.011
	l0.913-6.642C512.336,192.399,511.475,189.114,509.46,186.456z M486.906,178.1l-0.211,1.534l-75.996-10.448l0.211-1.534
	c1.396-10.15,6.66-19.148,14.823-25.339c8.164-6.191,18.249-8.823,28.399-7.435c10.149,1.396,19.148,6.66,25.339,14.823
	C485.661,157.864,488.301,167.95,486.906,178.1z M190.271,173.312L68.32,156.547c-5.012-0.689-8.605-5.334-8.01-10.354
	c0.282-2.382,1.537-4.544,3.535-6.089c2.124-1.641,4.842-2.38,7.469-2.016l120.52,16.406c-1.197,4.324-1.839,8.877-1.839,13.578
	C189.994,169.841,190.094,171.588,190.271,173.312z M419.654,387.362h47.458v45.896h-47.458c2.563-7.178,3.97-14.901,3.97-22.948
	C423.624,402.262,422.217,394.54,419.654,387.362z M283.302,54.25c1.195-2.528,3.304-4.439,5.937-5.382
	c2.633-0.942,5.475-0.802,8.003,0.393c5.219,2.468,7.457,8.722,4.989,13.941l-30.363,64.203c-5.536-4.206-11.953-7.302-18.92-8.972
	L283.302,54.25z M277.111,168.071c0,19.886-16.178,36.064-36.064,36.064c-19.885,0-36.064-16.178-36.064-36.064
	s16.178-36.064,36.064-36.064C260.932,132.007,277.111,148.185,277.111,168.071z M179.87,63.202
	c-2.468-5.219-0.23-11.473,4.989-13.941c1.442-0.682,2.962-1.005,4.46-1.005c3.925,0,7.695,2.216,9.482,5.994l30.353,64.181
	c-6.968,1.67-13.386,4.765-18.922,8.97L179.87,63.202z M14.989,433.257v-45.896h47.036c-2.563,7.178-3.97,14.9-3.97,22.947
	c0,8.048,1.407,15.77,3.97,22.948H14.989V433.257z M126.493,463.758c-29.472,0-53.449-23.977-53.449-53.448
	s23.977-53.448,53.449-53.448s53.449,23.977,53.449,53.448S155.965,463.758,126.493,463.758z M290.718,433.257H190.96
	c2.563-7.178,3.97-14.901,3.97-22.948c0-8.048-1.408-15.771-3.974-22.947h99.764c-2.566,7.176-3.973,14.899-3.973,22.947
	C286.748,418.357,288.155,426.079,290.718,433.257z M183.394,372.373c-2.028-3.03-4.276-5.899-6.747-8.563l28.867-61.039
	c1.769-3.741,0.171-8.209-3.571-9.979c-3.741-1.768-8.21-0.171-9.979,3.572l-27.102,57.306c-5.745-3.904-12.116-6.946-18.924-8.967
	l64.298-135.958c5.537,4.204,11.954,7.298,18.923,8.967l-17.176,36.317c-1.769,3.741-0.171,8.209,3.571,9.979
	c3.74,1.765,8.209,0.171,9.979-3.572l15.517-32.809l64.264,135.887c-2.58,2.748-4.922,5.717-7.026,8.859H183.394z M355.186,356.861
	c29.472,0,53.449,23.977,53.449,53.448s-23.977,53.448-53.449,53.448s-53.449-23.977-53.449-53.448S325.715,356.861,355.186,356.861
	z M336.112,344.596c-6.82,1.983-13.209,4.987-18.975,8.858l-64.202-135.755c6.968-1.668,13.385-4.765,18.922-8.968L336.112,344.596z
	"/>
<g>
</g>
<g>
</g>
<g>
</g>
<g>
</g>
<g>
</g>
<g>
</g>
<g>
</g>
<g>
</g>
<g>
</g>
<g>
</g>
<g>
</g>
<g>
</g>
<g>
</g>
<g>
</g>
<g>
</g>
</svg>
