<?xml version="1.0" encoding="iso-8859-1"?>
<!-- Generator: Adobe Illustrator 19.0.0, SVG Export Plug-In . SVG Version: 6.00 Build 0)  -->
<svg version="1.1" id="Capa_1" xmlns="http://www.w3.org/2000/svg" xmlns:xlink="http://www.w3.org/1999/xlink" x="0px" y="0px"
	 viewBox="0 0 511.997 511.997" style="enable-background:new 0 0 511.997 511.997;" xml:space="preserve">
<path style="fill:#B76035;" d="M270.852,504.518h-29.698c-2.753,0-4.985-2.232-4.985-4.985V198.659h39.67v300.874
	C275.838,502.286,273.605,504.518,270.852,504.518z"/>
<path style="fill:#A04C27;" d="M270.852,504.518h-14.849V198.659h19.834v300.874C275.838,502.286,273.605,504.518,270.852,504.518z"
	/>
<path style="fill:#B76035;" d="M293.804,198.659h-75.604c-2.753,0-4.985-2.232-4.985-4.985V166.04c0-2.753,2.232-4.985,4.985-4.985
	h75.604c2.753,0,4.985,2.232,4.985,4.985v27.633C298.791,196.427,296.559,198.659,293.804,198.659z"/>
<path style="fill:#A04C27;" d="M293.804,198.659h-17.967v-37.605h17.967c2.753,0,4.985,2.232,4.985,4.985v27.633
	C298.791,196.427,296.559,198.659,293.804,198.659z"/>
<path style="fill:#6B6C8A;" d="M284.597,161.054l17.51-60.972c0.35-1.22,0.222-2.527-0.358-3.656L256.004,7.452v153.602H284.597z"/>
<path style="fill:#595B75;" d="M302.11,100.085L284.6,161.05h-23.153l17.51-60.965c0.349-1.226,0.219-2.533-0.359-3.659
	l-22.595-43.953V7.452l45.748,88.974C302.33,97.552,302.459,98.858,302.11,100.085z"/>
<path style="fill:#B7C1CA;" d="M227.411,161.054l-17.517-60.972c-0.35-1.22-0.222-2.528,0.358-3.656l45.751-88.974v153.602H227.411z
	"/>
<path style="fill:#FFDBA9;" d="M272.966,383.369H239.04c-5.52,0-9.994-4.475-9.994-9.994v-70.992c0-5.52,4.475-9.994,9.994-9.994
	h33.927c5.52,0,9.994,4.475,9.994,9.994v70.992C282.961,378.894,278.487,383.369,272.966,383.369z"/>
<path style="fill:#FFC473;" d="M282.965,302.383v70.995c0,5.514-4.477,9.991-10.001,9.991h-15.825c5.514,0,9.991-4.477,9.991-9.991
	v-70.995c0-5.524-4.477-9.991-9.991-9.991h15.825C278.489,292.391,282.965,296.858,282.965,302.383z"/>
<path d="M308.399,93.007L262.655,4.033c-0.015-0.03-0.037-0.055-0.053-0.084c-0.111-0.209-0.245-0.402-0.375-0.599
	c-0.101-0.153-0.193-0.314-0.303-0.458c-0.13-0.169-0.281-0.319-0.425-0.476c-0.135-0.147-0.261-0.303-0.406-0.437
	c-0.151-0.141-0.321-0.259-0.484-0.387c-0.159-0.125-0.311-0.259-0.479-0.37c-0.169-0.112-0.353-0.2-0.532-0.298
	c-0.183-0.101-0.361-0.21-0.552-0.295c-0.169-0.075-0.349-0.127-0.525-0.19c-0.22-0.079-0.436-0.163-0.663-0.221
	c-0.033-0.008-0.062-0.024-0.095-0.031c-0.15-0.036-0.3-0.042-0.45-0.069c-0.229-0.041-0.457-0.087-0.691-0.106
	c-0.206-0.017-0.408-0.01-0.613-0.01c-0.21,0-0.418-0.007-0.629,0.01c-0.227,0.019-0.448,0.063-0.67,0.103
	c-0.155,0.027-0.311,0.034-0.466,0.072c-0.034,0.008-0.065,0.024-0.099,0.033c-0.221,0.057-0.432,0.139-0.647,0.216
	c-0.18,0.064-0.365,0.118-0.538,0.195c-0.189,0.084-0.364,0.192-0.545,0.292c-0.18,0.099-0.366,0.188-0.537,0.301
	c-0.168,0.111-0.32,0.245-0.479,0.37c-0.163,0.128-0.332,0.247-0.483,0.387c-0.145,0.135-0.272,0.291-0.407,0.438
	c-0.144,0.157-0.295,0.307-0.425,0.476c-0.111,0.144-0.202,0.305-0.303,0.458c-0.13,0.197-0.265,0.39-0.376,0.6
	c-0.016,0.03-0.037,0.054-0.053,0.084l-45.75,88.972c-1.458,2.833-1.777,6.08-0.897,9.143l14.786,51.464
	c-6.542,0.371-11.755,5.795-11.755,12.428v27.633c0,6.873,5.591,12.464,12.465,12.464h10.489v82.199
	c-4.311,3.185-7.123,8.286-7.123,14.046v70.993c0,5.758,2.813,10.861,7.123,14.046v41.068c0,4.131,3.348,7.478,7.478,7.478
	c4.13,0,7.478-3.348,7.478-7.478v-37.641h24.712V497.04h-24.712v-22.351c0-4.13-3.348-7.478-7.478-7.478
	c-4.13,0-7.478,3.348-7.478,7.478v24.844c0,6.873,5.591,12.465,12.465,12.465h29.698c6.872,0,12.465-5.591,12.465-12.465V387.42
	c4.31-3.185,7.123-8.286,7.123-14.045v-70.993c0-5.758-2.812-10.861-7.123-14.046v-20.054c0-4.131-3.348-7.478-7.478-7.478
	c-4.13,0-7.478,3.348-7.478,7.478v16.626h-24.712v-78.772h24.712v15.614c0,4.13,3.348,7.478,7.478,7.478
	c4.13,0,7.478-3.348,7.478-7.478v-15.614h10.488c6.872,0,12.465-5.591,12.465-12.464v-27.633c0-6.633-5.212-12.057-11.755-12.428
	l14.78-51.467C310.172,99.085,309.855,95.841,308.399,93.007z M217.355,98.968l31.17-60.619v115.226h-15.482L217.355,98.968z
	 M275.483,302.382v70.993c0,1.387-1.129,2.516-2.516,2.516H239.04c-1.388,0-2.517-1.129-2.517-2.516v-70.993
	c0-1.387,1.129-2.516,2.517-2.516h33.927C274.353,299.865,275.483,300.995,275.483,302.382z M291.312,191.18h-70.618v-22.647h70.618
	V191.18z M278.964,153.576h-15.481V38.354l31.163,60.614L278.964,153.576z"/>
<g>
</g>
<g>
</g>
<g>
</g>
<g>
</g>
<g>
</g>
<g>
</g>
<g>
</g>
<g>
</g>
<g>
</g>
<g>
</g>
<g>
</g>
<g>
</g>
<g>
</g>
<g>
</g>
<g>
</g>
</svg>
