<?xml version="1.0" encoding="iso-8859-1"?>
<!-- Generator: Adobe Illustrator 19.0.0, SVG Export Plug-In . SVG Version: 6.00 Build 0)  -->
<svg version="1.1" id="Capa_1" xmlns="http://www.w3.org/2000/svg" xmlns:xlink="http://www.w3.org/1999/xlink" x="0px" y="0px"
	 viewBox="0 0 512 512" style="enable-background:new 0 0 512 512;" xml:space="preserve">
<path style="fill:#6B6C8A;" d="M251.811,9.667L216.13,60.67h39.869h39.869L260.187,9.667C258.152,6.758,253.846,6.758,251.811,9.667
	z"/>
<path style="fill:#5D5F7A;" d="M295.864,60.67h-25.892l-26.924-38.485l8.76-12.522c2.034-2.903,6.348-2.903,8.382,0L295.864,60.67z"
	/>
<path style="fill:#6B6C8A;" d="M358.799,193.162h-205.6c-6.24,0-11.346-5.106-11.346-11.346v-109.8
	c0-6.24,5.106-11.346,11.346-11.346h205.6c6.24,0,11.346,5.106,11.346,11.346v109.8C370.145,188.056,365.04,193.162,358.799,193.162
	z"/>
<path style="fill:#5D5F7A;" d="M370.145,72.016v109.801c0,6.235-5.101,11.346-11.346,11.346h-31.176
	c6.235,0,11.346-5.111,11.346-11.346V72.016c0-6.246-5.111-11.346-11.346-11.346h31.176C365.044,60.67,370.145,65.77,370.145,72.016
	z"/>
<path style="fill:#B7C1CA;" d="M281.123,233.251h-50.248c-2.939,0-5.321-2.382-5.321-5.321v-34.768h60.89v34.768
	C286.444,230.868,284.062,233.251,281.123,233.251z"/>
<path style="fill:#A3AEB7;" d="M281.123,233.251h-17.457v-40.089h22.778v34.768C286.444,230.868,284.062,233.251,281.123,233.251z"
	/>
<path style="fill:#B7C1CA;" d="M255.999,504.515L255.999,504.515c-18.984,0-34.374-15.39-34.374-34.374v-35.204
	c0-2.939,2.382-5.321,5.321-5.321h58.105c2.939,0,5.321,2.382,5.321,5.321v35.204C290.373,489.125,274.983,504.515,255.999,504.515z
	"/>
<path style="fill:#A3AEB7;" d="M290.374,434.936v35.205c0,18.986-15.389,34.375-34.375,34.375c-4.193,0-8.216-0.756-11.93-2.128
	c13.101-4.842,22.445-17.454,22.445-32.247v-35.205c0-2.937-2.384-5.321-5.321-5.321h23.86
	C287.99,429.615,290.374,431.999,290.374,434.936z"/>
<rect x="235.329" y="233.25" style="fill:#B76035;" width="41.34" height="196.37"/>
<rect x="255.999" y="233.25" style="fill:#A04C27;" width="20.671" height="196.37"/>
<path d="M370.145,97.809c4.135,0,7.486-3.351,7.486-7.485V72.016c0-10.384-8.448-18.832-18.832-18.832h-59.033L266.32,5.375
	C263.965,2.01,260.106,0,255.999,0s-7.966,2.01-10.321,5.375c-0.001,0-0.001,0-0.001,0.001l-33.445,47.808h-59.033
	c-10.384,0-18.832,8.448-18.832,18.832v109.8c0,10.384,8.448,18.832,18.832,18.832h64.871v27.283c0,6.016,4.175,11.063,9.777,12.429
	v181.772h-0.9c-7.062,0-12.806,5.745-12.806,12.806v35.204C214.141,493.222,232.918,512,255.999,512s41.859-18.778,41.859-41.859
	v-35.204c0-7.061-5.745-12.806-12.806-12.806h-0.9V304.906c0-4.135-3.351-7.485-7.485-7.485s-7.485,3.351-7.485,7.485v25.04
	l-26.365-14.755v-74.454h26.365v17.594c0,4.135,3.351,7.485,7.485,7.485s7.485-3.351,7.485-7.485V240.36
	c5.601-1.366,9.777-6.413,9.777-12.429v-27.283h64.871c10.384,0,18.832-8.448,18.832-18.832v-45.249
	c0-4.135-3.351-7.485-7.486-7.485c-4.134,0-7.485,3.351-7.485,7.485v45.249c0,2.093-1.768,3.861-3.861,3.861h-72.356h-60.889H153.2
	c-2.093,0-3.861-1.768-3.861-3.861v-109.8c0-2.093,1.768-3.861,3.861-3.861h62.932h79.737h62.932c2.093,0,3.861,1.768,3.861,3.861
	v18.308C362.66,94.458,366.011,97.809,370.145,97.809z M269.181,386.438l-26.365-14.755v-11.089l26.365,14.755V386.438z
	 M282.887,470.141c0,14.827-12.061,26.888-26.888,26.888s-26.888-12.062-26.888-26.888v-33.039h6.22h41.335h6.22v33.039H282.887z
	 M242.817,422.131v-33.292l26.365,14.755v18.537H242.817z M269.181,347.102v11.09l-26.365-14.755v-11.09L269.181,347.102z
	 M278.958,200.647v25.118h-2.292h-41.335h-2.292v-25.118H278.958z M230.503,53.184l25.497-36.446l25.497,36.447L230.503,53.184
	L230.503,53.184z"/>
<g>
</g>
<g>
</g>
<g>
</g>
<g>
</g>
<g>
</g>
<g>
</g>
<g>
</g>
<g>
</g>
<g>
</g>
<g>
</g>
<g>
</g>
<g>
</g>
<g>
</g>
<g>
</g>
<g>
</g>
</svg>
