<?xml version="1.0" encoding="iso-8859-1"?>
<!-- Generator: Adobe Illustrator 19.0.0, SVG Export Plug-In . SVG Version: 6.00 Build 0)  -->
<svg version="1.1" id="Capa_1" xmlns="http://www.w3.org/2000/svg" xmlns:xlink="http://www.w3.org/1999/xlink" x="0px" y="0px"
	 viewBox="0 0 511.999 511.999" style="enable-background:new 0 0 511.999 511.999;" xml:space="preserve">
<g>
	<path style="fill:#00AD95;" d="M50.533,53.004H14.571v-24.64c0-9.931,8.051-17.98,17.98-17.98l0,0c9.931,0,17.98,8.051,17.98,17.98
		L50.533,53.004L50.533,53.004z"/>
	<path style="fill:#00AD95;" d="M50.533,458.994H14.571v24.64c0,9.931,8.051,17.98,17.98,17.98l0,0c9.931,0,17.98-8.051,17.98-17.98
		L50.533,458.994L50.533,458.994z"/>
	<path style="fill:#00AD95;" d="M497.428,53.004h-35.962v-24.64c0-9.931,8.051-17.98,17.98-17.98l0,0
		c9.931,0,17.98,8.051,17.98,17.98v24.64H497.428z"/>
	<path style="fill:#00AD95;" d="M497.428,458.994h-35.962v24.64c0,9.931,8.051,17.98,17.98,17.98l0,0
		c9.931,0,17.98-8.051,17.98-17.98v-24.64H497.428z"/>
</g>
<g>
	<rect x="7.509" y="53.004" style="fill:#B76035;" width="50.089" height="406.081"/>
	<rect x="454.409" y="53.004" style="fill:#B76035;" width="50.089" height="406.081"/>
</g>
<g>
	<rect x="479.448" y="53.004" style="fill:#A04C27;" width="25.04" height="406.081"/>
	<rect x="32.553" y="53.004" style="fill:#A04C27;" width="25.04" height="406.081"/>
</g>
<rect x="57.598" y="68.31" style="fill:#FFDBA9;" width="396.81" height="375.475"/>
<rect x="420.008" y="68.31" style="fill:#FFC473;" width="34.401" height="375.475"/>
<circle style="fill:#FF4F19;" cx="201.499" cy="124.216" r="18.456"/>
<path style="fill:#3777D3;" d="M58.072,303.749c7.81-6.705,19.923-7.835,28.838-2.69c10.984,6.339,16.546,20.536,28.58,24.536
	c10.025,3.332,20.67-1.663,30.405-5.765c9.736-4.102,21.767-7.144,30.193-0.773c7.838,5.927,8.714,18.027,4.317,26.817
	c-4.397,8.789-12.765,14.859-21.224,19.86c-4.059,2.4-8.531,5-10.131,9.436c-3.019,8.37,5.854,15.971,13.714,20.141
	c7.86,4.17,17.276,10.315,16.002,19.122c-1.058,7.313-7.917,3.538-14.17,7.475c-6.252,3.937-6.411,15.942-2.009,21.876H58.072
	V303.749z"/>
<path style="fill:#00AD95;" d="M128.434,207.963c3.624,6.43,8.954,12.698,8.436,20.06c-0.476,6.766-5.958,13.026-4.323,19.608
	c1.378,5.547,7.347,8.694,12.973,9.695c12.702,2.258,26.477-3.508,33.783-14.142c9.132-13.291,7.452-31.954-0.887-45.756
	c-2.889-4.782-6.554-9.182-11.192-12.297c-10.518-7.064-29.285-30.054-40.852-12.511
	C120.604,181.368,123.72,199.595,128.434,207.963z"/>
<path style="fill:#3777D3;" d="M357.578,78.923c4.072,10.718-1.668,22.707-9.016,31.507c-7.349,8.8-16.584,16.349-21.376,26.765
	c-6.878,14.944-2.285,34.302,10.573,44.563c6.093,4.863,13.871,7.973,18.174,14.474c6.386,9.65,2.647,22.448-0.832,33.485
	c-3.479,11.036-5.996,24.526,1.902,32.984c8.095,8.667,23.318,6.341,31.928-1.815c8.61-8.156,12.181-20.181,14.995-31.702
	s5.426-23.586,12.803-32.872c7.377-9.286,27.487-17.893,37.676-11.825V68.309H352.426L357.578,78.923z"/>
<path d="M360.592,403.385c-2.128,0-4.241-0.898-5.727-2.648c-2.335-2.747-5.041-5.483-8.048-8.133
	c-1.267-0.973-7.721-5.977-16.722-13.74c-3.141-2.709-3.49-7.45-0.782-10.591c2.709-3.142,7.45-3.489,10.591-0.782
	c9.477,8.175,16.165,13.282,16.231,13.332c0.137,0.104,0.271,0.213,0.399,0.326c3.63,3.184,6.919,6.502,9.776,9.865
	c2.685,3.16,2.3,7.899-0.861,10.584C364.038,402.799,362.311,403.385,360.592,403.385z M309.922,357.376
	c-1.931,0-3.862-0.74-5.329-2.22c-6.915-6.969-13.195-13.833-18.663-20.403c-1.648-1.979-3.246-4.042-4.753-6.132
	c-2.425-3.365-1.662-8.058,1.702-10.482c3.366-2.424,8.058-1.663,10.482,1.702c1.303,1.808,2.686,3.593,4.11,5.304
	c5.19,6.235,11.171,12.773,17.78,19.432c2.921,2.944,2.902,7.698-0.04,10.619C313.747,356.651,311.835,357.376,309.922,357.376z
	 M272.249,301.175c-3.241,0-6.231-2.115-7.197-5.38c-2.939-9.931-4.43-20.203-4.431-30.531c0-1.932,0.053-3.891,0.157-5.823
	c0.224-4.142,3.787-7.312,7.904-7.092c4.141,0.224,7.317,3.763,7.092,7.904c-0.09,1.664-0.136,3.35-0.136,5.011
	c0.001,8.885,1.284,17.724,3.814,26.271c1.177,3.977-1.092,8.155-5.069,9.33C273.671,301.075,272.954,301.175,272.249,301.175z
	 M271.931,233.354c-0.068,0-0.137-0.001-0.205-0.003c-4.146-0.111-7.416-3.562-7.305-7.707c0.025-0.95,0.038-1.902,0.037-2.854
	c0-11.398-1.847-20.2-5.488-26.166c-2.161-3.54-1.043-8.161,2.496-10.322c3.541-2.162,8.161-1.043,10.322,2.496
	c5.102,8.358,7.689,19.792,7.689,33.984c0.001,1.083-0.014,2.175-0.043,3.264C279.324,230.124,275.985,233.354,271.931,233.354z"/>
<path d="M245.261,172.871c-1.826,0-3.656-0.662-5.102-2.001c-3.926-3.638-8.224-6.928-12.776-9.781
	c-3.515-2.201-4.578-6.835-2.377-10.349c2.201-3.515,6.837-4.578,10.349-2.377c5.347,3.35,10.398,7.216,15.011,11.492
	c3.042,2.818,3.223,7.57,0.403,10.612C249.291,172.062,247.278,172.871,245.261,172.871z"/>
<path d="M504.937,45.518V28.364c0-14.055-11.435-25.489-25.489-25.489s-25.489,11.435-25.489,25.489v17.154
	c-3.939,0.232-7.063,3.489-7.063,7.487V60.8h-94.469H65.104v-7.795c0-3.997-3.125-7.255-7.063-7.487V28.364
	c0-14.055-11.435-25.489-25.489-25.489S7.063,14.309,7.063,28.364v17.154C3.125,45.749,0,49.007,0,53.004v74.843
	c0,4.148,3.361,7.509,7.509,7.509s7.509-3.361,7.509-7.509V60.513h35.069v7.795v375.474v7.701H15.018V174.569
	c0-4.148-3.361-7.509-7.509-7.509S0,170.421,0,174.569v284.519c0,3.997,3.125,7.255,7.063,7.487v17.059
	c0,14.055,11.435,25.489,25.489,25.489s25.489-11.435,25.489-25.489v-17.059c3.939-0.231,7.063-3.489,7.063-7.487v-7.796h97.483
	h35.489c4.148,0,7.509-3.361,7.509-7.509c0-4.148-3.361-7.509-7.509-7.509h-30.685c-0.344-1.545-0.456-3.358-0.131-5.088
	c0.35-1.869,1.026-2.731,1.335-2.924c1.047-0.66,2.328-0.859,4.329-1.131c3.538-0.48,11.823-1.604,13.273-11.622
	c2.187-15.105-13.869-23.623-19.914-26.83c-6.647-3.527-11.114-8.342-10.169-10.961c0.663-1.839,3.89-3.746,6.737-5.429l0.151-0.09
	c8.35-4.936,18.636-12.007,24.118-22.964c7.368-14.726,2.149-29.625-6.504-36.166c-9.024-6.823-21.687-6.876-37.638-0.156
	l-1.757,0.743c-8.174,3.47-16.625,7.055-23.364,4.816c-4.747-1.578-8.489-5.867-12.823-10.834
	c-3.943-4.519-8.412-9.64-14.372-13.079c-7.77-4.484-17.127-5.357-25.558-2.898V75.818h24.828c4.284,26.762,3.391,53.721-2.69,80.17
	l-0.346,1.507c-3.018,13.125-0.312,26.976,7.422,38.003c7.001,9.981,17.587,16.86,29.446,19.288c0.274,0.443,0.55,0.89,0.82,1.325
	c2.586,4.142,5.028,8.054,4.795,11.387c-0.118,1.684-0.953,3.814-1.837,6.068c-1.698,4.333-3.812,9.725-2.283,15.876
	c1.909,7.686,9.169,13.54,18.946,15.278c2.308,0.41,4.632,0.61,6.951,0.61c13.443-0.001,26.644-6.699,34.335-17.892
	c10.157-14.782,9.896-36.439-0.649-53.89c-3.796-6.282-8.315-11.21-13.432-14.647c-1.82-1.223-4.217-3.252-6.753-5.401
	c-8.565-7.253-19.227-16.288-30.517-14.655c-5.627,0.808-10.35,4.053-14.037,9.643c-4.539,6.883-4.739,16.127-4.107,22.671
	c0.163,1.688,0.409,3.377,0.711,5.045c-3.95-2.336-7.409-5.499-10.095-9.329c-5.294-7.547-7.146-17.03-5.08-26.014l0.346-1.506
	c6.336-27.562,7.424-55.638,3.259-83.536h242.586l2.937,6.049c3.299,9.34-5.166,20.521-7.863,23.751
	c-2.065,2.474-4.301,4.854-6.668,7.372c-5.851,6.228-11.901,12.667-15.767,21.066c-8.333,18.106-2.868,41.138,12.711,53.572
	c2.343,1.87,4.775,3.431,7.124,4.941c3.849,2.472,7.484,4.806,9.47,7.808c4.263,6.443,1.738,16.077-1.731,27.083
	c-3.695,11.727-7.347,28.67,3.575,40.366c4.53,4.851,10.988,7.644,18.184,7.864c0.317,0.01,0.636,0.015,0.953,0.015
	c8.508,0,17.207-3.462,23.443-9.367c10.189-9.65,14.183-23.319,17.126-35.372l0.487-2.003c2.559-10.554,4.977-20.521,10.901-27.979
	c5.036-6.341,17.093-11.429,24.288-11.004v64.847l-44.202,46.777c-5.823,6.162-10.45,13.247-13.754,21.055
	c-7.309,17.273-7.419,37.133-0.304,54.488l10.232,24.953c4.16,10.148,5.239,21.199,3.123,31.959l-0.437,2.218h-20.581
	c0.459-2.87,0.716-6.218,0.526-9.96c-0.211-4.143-3.742-7.328-7.882-7.115c-4.142,0.212-7.328,3.74-7.115,7.882
	c0.192,3.763-0.285,6.908-0.845,9.194H244.408c-4.148,0-7.509,3.361-7.509,7.509c0,4.148,3.361,7.509,7.509,7.509h126.508
	c0.011,0,0.022,0.002,0.032,0.002c0.01,0,0.019-0.002,0.029-0.002h34.619c0.204,0.058,0.41,0.114,0.623,0.155
	c0.49,0.096,0.978,0.142,1.458,0.142c0.711,0,1.405-0.106,2.067-0.297h37.15v7.796c0,3.997,3.125,7.255,7.063,7.487v17.059
	c0,14.055,11.435,25.489,25.489,25.489s25.489-11.435,25.489-25.489v-17.059c3.939-0.231,7.063-3.489,7.063-7.487V53.004
	C512,49.007,508.875,45.749,504.937,45.518z M43.024,45.495H22.081V28.364c0-5.775,4.697-10.471,10.471-10.471
	s10.471,4.697,10.471,10.471V45.495z M43.024,483.634c0,5.775-4.697,10.471-10.471,10.471s-10.471-4.697-10.471-10.471v-17.037
	h20.943V483.634z M65.581,307.632c5.302-2.943,12.361-3.078,17.577-0.067c3.795,2.191,7.081,5.957,10.563,9.947
	c5.048,5.785,10.77,12.342,19.403,15.211c12.12,4.029,24.233-1.111,33.967-5.241l1.721-0.729c10.656-4.489,18.31-5.062,22.749-1.704
	c4.872,3.683,4.9,11.935,2.132,17.468c-3.705,7.406-11.345,12.626-18.331,16.755l-0.15,0.089
	c-4.526,2.676-10.727,6.341-13.223,13.264c-3.764,10.439,2.849,21.674,17.258,29.321c8.831,4.687,11.565,8.042,12.039,10.253
	c-0.131,0.018-0.258,0.035-0.378,0.052c-2.57,0.348-6.456,0.875-10.312,3.303c-4.155,2.616-7.029,7.187-8.095,12.867
	c-0.481,2.566-0.569,5.243-0.3,7.855h-86.62V307.632z M132.641,176.754c1.838-2.788,3.19-2.983,3.633-3.046
	c0.193-0.028,0.394-0.041,0.603-0.041c4.741,0,13.035,7.023,18.076,11.291c2.863,2.426,5.57,4.718,8.085,6.407
	c3.285,2.206,6.297,5.553,8.952,9.947c7.431,12.299,7.893,27.768,1.124,37.62c-5.651,8.223-16.458,12.745-26.28,11.001
	c-3.565-0.635-6.574-2.402-6.999-4.113c-0.374-1.508,0.629-4.067,1.69-6.775c1.198-3.058,2.557-6.523,2.835-10.496
	c0.576-8.2-3.469-14.677-7.037-20.392c-0.846-1.356-1.645-2.634-2.347-3.881C130.941,197.118,129.049,182.2,132.641,176.754z
	 M446.895,436.274h-30.05c2.509-13.439,1.106-27.209-4.085-39.873l-10.232-24.953c-5.608-13.676-5.52-29.327,0.239-42.939
	c2.604-6.153,6.25-11.737,10.839-16.593l33.287-35.226L446.895,436.274L446.895,436.274z M446.895,174.948
	c-13.446-0.406-29.087,7.931-36.048,16.692c-7.98,10.047-10.906,22.113-13.736,33.781l-0.481,1.98
	c-2.547,10.431-5.64,21.188-12.864,28.031c-3.519,3.333-8.88,5.395-13.609,5.245c-2.24-0.068-5.388-0.663-7.668-3.105
	c-4.175-4.47-4.249-12.844-0.228-25.6c3.382-10.731,8.493-26.947-0.067-39.885c-3.733-5.643-9.124-9.104-13.879-12.158
	c-2.125-1.364-4.133-2.653-5.872-4.042c-10.17-8.116-13.875-23.734-8.436-35.554c2.842-6.177,7.81-11.465,13.069-17.062
	c2.41-2.566,4.902-5.218,7.25-8.031c10.957-13.121,14.701-27.331,10.272-38.986c-0.056-0.147-0.117-0.294-0.182-0.439h82.48V174.948
	z M468.976,28.364c0-5.775,4.697-10.471,10.471-10.471c5.775,0,10.471,4.697,10.471,10.471v17.131h-20.943V28.364z M489.919,483.634
	c0,5.775-4.697,10.471-10.471,10.471c-5.775,0-10.471-4.697-10.471-10.471v-17.037h20.943L489.919,483.634L489.919,483.634z
	 M496.982,451.484h-35.069v-7.701V184.487V68.309v-7.795h35.069V451.484z"/>
<path d="M201.5,98.254c-14.317,0-25.965,11.648-25.965,25.966c0,14.317,11.648,25.965,25.965,25.965
	c14.318,0,25.966-11.648,25.966-25.965C227.465,109.901,215.818,98.254,201.5,98.254z M201.5,135.166
	c-6.035,0-10.947-4.911-10.947-10.947s4.911-10.948,10.947-10.948s10.948,4.911,10.948,10.948
	C212.447,130.255,207.536,135.166,201.5,135.166z"/>
<g>
</g>
<g>
</g>
<g>
</g>
<g>
</g>
<g>
</g>
<g>
</g>
<g>
</g>
<g>
</g>
<g>
</g>
<g>
</g>
<g>
</g>
<g>
</g>
<g>
</g>
<g>
</g>
<g>
</g>
</svg>
