<?xml version="1.0" encoding="iso-8859-1"?>
<!-- Generator: Adobe Illustrator 19.0.0, SVG Export Plug-In . SVG Version: 6.00 Build 0)  -->
<svg version="1.1" id="Capa_1" xmlns="http://www.w3.org/2000/svg" xmlns:xlink="http://www.w3.org/1999/xlink" x="0px" y="0px"
	 viewBox="0 0 511.999 511.999" style="enable-background:new 0 0 511.999 511.999;" xml:space="preserve">
<path style="fill:#FF961D;" d="M336.89,504.494H175.107c-11.256,0-20.379-9.124-20.379-20.38l0,0
	c0-11.256,9.124-20.379,20.379-20.379H336.89c11.256,0,20.38,9.124,20.38,20.379l0,0C357.27,495.37,348.146,504.494,336.89,504.494z
	"/>
<path style="fill:#EF8318;" d="M357.269,484.118c0,5.625-2.279,10.716-5.968,14.405c-3.69,3.69-8.791,5.968-14.416,5.968h-28.226
	c5.625,0,10.726-2.279,14.416-5.968c3.69-3.69,5.968-8.781,5.968-14.405c0-11.261-9.123-20.383-20.384-20.383h28.226
	C348.146,463.734,357.269,472.857,357.269,484.118z"/>
<path style="fill:#FFDBA9;" d="M277.692,274.731h-21.693h-21.693c0,0,6.129,131.049-36.775,189.004h58.468h58.469
	C271.563,405.779,277.692,274.731,277.692,274.731z"/>
<path style="fill:#FFC473;" d="M314.466,463.734h-23.186c-42.904-57.954-36.774-189.004-36.774-189.004h23.186
	C277.692,274.732,271.563,405.78,314.466,463.734z"/>
<path style="fill:#FFDBA9;" d="M93.919,65.948l3.227,8.35c6.411,16.585,9.699,34.213,9.699,51.993v35.66
	c0,82.722,67.059,149.781,149.781,149.781l0,0c82.722,0,149.781-67.059,149.781-149.781v-35.66c0-17.781,3.289-35.408,9.698-51.993
	l3.227-8.35H93.919z"/>
<path style="fill:#FFC473;" d="M419.336,65.95l-3.225,8.346c-6.412,16.583-9.707,34.214-9.707,51.997v35.655
	c0,41.361-16.764,78.801-43.871,105.907c-24.324,24.335-56.996,40.333-93.347,43.347c23.952-7.5,45.383-20.706,62.702-38.025
	c27.813-27.813,45.02-66.25,45.02-108.701v-36.593c0-18.256,3.378-36.341,9.96-53.368l3.317-8.569h29.153V65.95z"/>
<path style="fill:#FF961D;" d="M427.777,65.595H84.219c-2.784,0-5.041-2.257-5.041-5.041V12.546c0-2.784,2.257-5.041,5.041-5.041
	h343.559c2.784,0,5.041,2.257,5.041,5.041v48.008C432.818,63.338,430.562,65.595,427.777,65.595z"/>
<path style="fill:#EF8318;" d="M427.777,65.595h-22.723V7.506h22.723c2.784,0,5.041,2.257,5.041,5.041v48.008
	C432.818,63.338,430.562,65.595,427.777,65.595z"/>
<rect x="106.85" y="121.212" style="fill:#00AD95;" width="299.097" height="45.445"/>
<rect x="376.905" y="121.212" style="fill:#039377;" width="29.042" height="45.445"/>
<path style="fill:#00AD95;" d="M282.412,388.889h-52.827c-10.464,0-18.947-8.483-18.947-18.947v-1.418
	c0-10.465,8.483-18.947,18.947-18.947h52.827c10.465,0,18.947,8.483,18.947,18.947v1.418
	C301.359,380.406,292.876,388.889,282.412,388.889z"/>
<path style="fill:#039377;" d="M301.361,368.522v1.421c0,10.464-8.487,18.941-18.951,18.941h-24.193
	c10.464,0,18.951-8.477,18.951-18.941v-1.421c0-10.464-8.487-18.941-18.951-18.941h24.193
	C292.874,349.581,301.361,358.059,301.361,368.522z"/>
<path d="M427.777,0H184.611c-4.145,0-7.506,3.36-7.506,7.506s3.361,7.506,7.506,7.506h240.702v43.078H86.684V15.011h51.558
	c4.145,0,7.506-3.36,7.506-7.506S142.388,0,138.243,0H84.219c-6.918,0-12.547,5.628-12.547,12.546v48.008
	c0,6.918,5.628,12.547,12.547,12.547h4.417l1.509,3.903c6.101,15.783,9.195,32.367,9.195,49.287v40.373
	c0,0.463,0.048,0.914,0.128,1.354c2.811,73.739,56.623,134.629,127.091,148.328c-0.331,8.033-0.857,16.869-1.664,26.15
	c-12.355,2.222-21.763,13.044-21.763,26.029v1.418c0,10.253,5.866,19.155,14.416,23.543c-4.994,23.48-12.537,46.01-23.902,62.744
	h-18.538c-15.376,0-27.885,12.509-27.885,27.885s12.51,27.885,27.885,27.885h161.783c15.376,0,27.885-12.509,27.885-27.885
	s-12.51-27.885-27.885-27.885h-18.537c-11.361-16.728-18.9-39.261-23.892-62.75c8.543-4.39,14.404-13.289,14.404-23.538v-1.418
	c0-12.979-9.397-23.797-21.744-26.026c-0.802-9.19-1.332-17.95-1.665-25.919c73.006-13.58,128.458-77.747,128.458-154.628v-35.66
	c0-16.923,3.093-33.505,9.195-49.287l1.508-3.903h3.161c6.918,0,12.547-5.628,12.547-12.547V12.546
	C440.324,5.628,434.696,0,427.777,0z M349.764,484.115c0,7.099-5.775,12.874-12.874,12.874H175.107
	c-7.098,0-12.874-5.775-12.874-12.874s5.775-12.874,12.874-12.874h22.423h116.937h22.422
	C343.989,471.241,349.764,477.015,349.764,484.115z M300.707,456.23H211.29c8.888-15.731,15.904-35.744,21.014-59.834h47.388
	C284.803,420.485,291.819,440.499,300.707,456.23z M293.854,368.524v1.418c0,6.309-5.133,11.442-11.442,11.442h-52.827
	c-6.31,0-11.443-5.133-11.443-11.442v-1.418c0-6.31,5.133-11.443,11.443-11.443h52.827
	C288.721,357.082,293.854,362.214,293.854,368.524z M240.027,342.071c0.702-8.327,1.183-16.252,1.503-23.558
	c4.97,0.475,10.005,0.725,15.097,0.725c4.665,0,9.279-0.216,13.843-0.616c0.32,7.272,0.802,15.164,1.5,23.449h-31.943V342.071z
	 M398.438,159.158h-83.971c-4.146,0-7.506,3.36-7.506,7.506c0,4.146,3.36,7.506,7.506,7.506h83.905
	c-6.218,72.752-67.411,130.057-141.746,130.057s-135.527-57.305-141.745-130.057h152.126c4.146,0,7.506-3.36,7.506-7.506
	c0-4.146-3.36-7.506-7.506-7.506H114.351v-30.436h284.087L398.438,159.158L398.438,159.158z M399.427,113.71H113.826
	c-1.137-13.756-4.136-27.246-8.973-40.258H408.4C403.563,86.464,400.565,99.953,399.427,113.71z"/>
<g>
</g>
<g>
</g>
<g>
</g>
<g>
</g>
<g>
</g>
<g>
</g>
<g>
</g>
<g>
</g>
<g>
</g>
<g>
</g>
<g>
</g>
<g>
</g>
<g>
</g>
<g>
</g>
<g>
</g>
</svg>
