<?xml version="1.0" encoding="iso-8859-1"?>
<!-- Generator: Adobe Illustrator 19.0.0, SVG Export Plug-In . SVG Version: 6.00 Build 0)  -->
<svg version="1.1" id="Capa_1" xmlns="http://www.w3.org/2000/svg" xmlns:xlink="http://www.w3.org/1999/xlink" x="0px" y="0px"
	 viewBox="0 0 512.001 512.001" style="enable-background:new 0 0 512.001 512.001;" xml:space="preserve">
<path style="fill:#6B6C8A;" d="M250.951,9.819l-43.905,68.517c-0.982,1.532-1.07,3.471-0.231,5.086l27.822,53.586h20.595h20.595
	l27.822-53.586c0.839-1.615,0.75-3.555-0.231-5.086L259.514,9.819C257.513,6.697,252.952,6.697,250.951,9.819z"/>
<path style="fill:#5D5F7A;" d="M303.647,83.42l-27.815,53.586h-25.629l27.825-53.586c0.834-1.607,0.753-3.549-0.233-5.085
	l-35.372-55.203l8.533-13.313c1.993-3.122,6.56-3.122,8.564,0l43.904,68.515C304.399,79.871,304.491,81.813,303.647,83.42z"/>
<path style="fill:#6B6C8A;" d="M298.112,173.854h-85.758c-2.808,0-5.085-2.276-5.085-5.085v-26.674c0-2.808,2.276-5.085,5.085-5.085
	h85.758c2.808,0,5.085,2.276,5.085,5.085v26.674C303.197,171.578,300.92,173.854,298.112,173.854z"/>
<path style="fill:#5D5F7A;" d="M298.112,173.854h-16.009V137.01h16.009c2.808,0,5.085,2.276,5.085,5.085v26.674
	C303.197,171.578,300.92,173.854,298.112,173.854z"/>
<g>
	<path style="fill:#B7C1CA;" d="M419.436,258.4l-33.177,45.128c-2.469,3.359-0.071,8.097,4.097,8.097h33.177h33.177
		c4.168,0,6.566-4.739,4.097-8.097L427.629,258.4C425.597,255.636,421.468,255.636,419.436,258.4z"/>
	<path style="fill:#B7C1CA;" d="M84.37,258.4l-33.177,45.128c-2.469,3.359-0.071,8.097,4.097,8.097h33.177h33.177
		c4.168,0,6.566-4.739,4.097-8.097L92.564,258.4C90.532,255.636,86.402,255.636,84.37,258.4z"/>
</g>
<g>
	<path style="fill:#A3AEB7;" d="M121.643,311.627h-17.116l-29.636-40.325l9.48-12.903c2.032-2.765,6.163-2.766,8.195-0.001
		l33.173,45.131C128.208,306.888,125.811,311.627,121.643,311.627z"/>
	<path style="fill:#A3AEB7;" d="M456.71,311.627h-17.116l-29.636-40.325l9.48-12.903c2.032-2.765,6.163-2.766,8.195-0.001
		l33.173,45.131C463.276,306.888,460.878,311.627,456.71,311.627z"/>
</g>
<path style="fill:#B7C1CA;" d="M61.304,312.384c0,107.104,86.824,192.138,193.929,192.138s193.929-86.824,193.929-193.929h-50.565
	c0,73.388-64.186,134.672-143.364,134.672s-143.364-59.492-143.364-132.88H61.304z"/>
<path style="fill:#A3AEB7;" d="M449.159,310.59c0,107.111-86.821,193.933-193.923,193.933c-4.332,0-8.634-0.143-12.906-0.417
	c101.171-6.55,181.2-90.687,181.2-193.516H449.159z"/>
<circle style="fill:#FFDBA9;" cx="255.749" cy="82.563" r="16.84"/>
<path style="fill:#FFC473;" d="M272.587,82.566c0,9.296-7.536,16.842-16.842,16.842c-7.475,0-13.811-4.882-16.008-11.624
	c2.003,0.834,4.21,1.302,6.519,1.302c9.296,0,16.842-7.536,16.842-16.842c0-1.82-0.284-3.57-0.834-5.207
	C268.336,69.579,272.587,75.58,272.587,82.566z"/>
<path style="fill:#6B6C8A;" d="M304.042,433.057c0.622-0.964,0.902-2.11,0.79-3.252l-24.871-255.951h-24.726h-0.003h-24.726
	l-24.871,255.951c-0.111,1.142,0.168,2.288,0.79,3.252l44.536,68.923c2.003,3.1,6.539,3.1,8.542,0L304.042,433.057z"/>
<path style="fill:#5D5F7A;" d="M304.828,429.809c0.111,1.142-0.168,2.287-0.79,3.251l-44.53,68.921
	c-2.003,3.1-6.538,3.1-8.542,0.001l-7.18-11.108l37.359-57.813c0.622-0.964,0.902-2.11,0.79-3.252l-24.878-255.957h22.903
	L304.828,429.809z"/>
<path d="M466.832,299.098l-33.177-45.128c-2.358-3.207-6.142-5.122-10.123-5.122s-7.765,1.914-10.123,5.122l0,0l-33.177,45.128
	c-2.821,3.838-3.238,8.864-1.087,13.114c2.151,4.25,6.447,6.891,11.21,6.891h0.447c-1.389,18.969-7.392,37.547-17.581,54.186
	c-2.157,3.522-1.049,8.126,2.473,10.282c3.524,2.157,8.127,1.049,10.282-2.473c11.633-18.997,18.401-40.272,19.81-61.996h35.696
	c-4.209,93.252-77.237,168.871-169.387,177.171l33.473-51.803c17.345-5.847,33.58-14.691,47.797-26.247
	c3.205-2.605,3.692-7.316,1.086-10.52c-2.605-3.206-7.316-3.692-10.52-1.086c-9.722,7.902-20.494,14.4-31.957,19.386
	l-23.775-244.673h9.911c6.927,0,12.563-5.636,12.563-12.563v-26.674c0-6.928-5.636-12.564-12.563-12.564h-9.975l22.149-42.66
	c2.066-3.977,1.848-8.793-0.571-12.57L265.811,5.785C263.49,2.163,259.534,0,255.232,0s-8.256,2.163-10.577,5.785l-43.906,68.519
	c-2.417,3.776-2.635,8.59-0.572,12.566l22.15,42.662h-9.975c-6.928,0-12.564,5.636-12.564,12.564v26.674
	c0,6.927,5.636,12.563,12.564,12.563h9.911l-4.32,44.459c-0.399,4.111,2.609,7.768,6.72,8.167c4.113,0.406,7.767-2.608,8.167-6.719
	l4.461-45.906h35.883l24.134,248.367l-42.074,65.113l-42.077-65.113l15.181-156.227c0.399-4.111-2.609-7.768-6.719-8.167
	c-4.109-0.411-7.768,2.609-8.167,6.719l-14.991,154.278c-44.569-18.991-76.16-59.62-78.897-107.199h2.081
	c4.763,0,9.059-2.64,11.21-6.891s1.734-9.276-1.088-13.114l-33.176-45.128c-2.358-3.207-6.142-5.122-10.123-5.122
	c-3.98,0-7.765,1.914-10.123,5.122l0,0l-33.177,45.128c-2.821,3.838-3.238,8.864-1.087,13.114c1.946,3.845,5.65,6.366,9.866,6.813
	c1.655,51.198,22.415,98.89,58.904,134.914c37.925,37.441,88.491,58.061,142.382,58.061c108.204,0,196.738-85.773,201.215-192.897
	h0.262c4.763,0,9.059-2.64,11.21-6.891C470.07,307.962,469.653,302.937,466.832,299.098z M214.089,81.207l41.143-64.207
	l41.143,64.206l-25.09,48.326H239.18L214.089,81.207z M230.505,166.376h-15.759v-21.888h19.89h41.192h19.89v21.888h-15.758H230.505z
	 M90.395,262.829L90.395,262.829c-0.001,0.003-0.004,0.006-0.006,0.008L90.395,262.829z M88.467,265.452l28.448,38.695H60.019
	L88.467,265.452z M68.929,319.862h35.673c3.276,57.784,44.292,106.404,100.476,124.89l33.311,51.548
	c-43.552-3.796-83.902-22.274-115.032-53.005C89.936,410.3,70.774,366.711,68.929,319.862z M425.46,262.829L425.46,262.829
	c0,0.001,0,0.001-0.001,0.002L425.46,262.829z M423.532,265.452l27.966,38.041c-0.736-0.242-1.52-0.378-2.337-0.378h-50.565
	c-1.2,0-2.33,0.289-3.335,0.792L423.532,265.452z"/>
<path d="M280.066,82.566c0-13.409-10.909-24.317-24.317-24.317s-24.317,10.909-24.317,24.317c0,13.409,10.909,24.317,24.317,24.317
	C269.157,106.883,280.066,95.974,280.066,82.566z M255.749,91.927c-5.162,0-9.362-4.199-9.362-9.362
	c0-5.162,4.199-9.362,9.362-9.362s9.362,4.199,9.362,9.362C265.11,87.727,260.91,91.927,255.749,91.927z"/>
<g>
</g>
<g>
</g>
<g>
</g>
<g>
</g>
<g>
</g>
<g>
</g>
<g>
</g>
<g>
</g>
<g>
</g>
<g>
</g>
<g>
</g>
<g>
</g>
<g>
</g>
<g>
</g>
<g>
</g>
</svg>
