<?xml version="1.0" encoding="iso-8859-1"?>
<!-- Generator: Adobe Illustrator 19.0.0, SVG Export Plug-In . SVG Version: 6.00 Build 0)  -->
<svg version="1.1" id="Capa_1" xmlns="http://www.w3.org/2000/svg" xmlns:xlink="http://www.w3.org/1999/xlink" x="0px" y="0px"
	 viewBox="0 0 512.001 512.001" style="enable-background:new 0 0 512.001 512.001;" xml:space="preserve">
<path style="fill:#3777D3;" d="M256,317.029v187.469h-0.01l-123.342-56.47c-8.127-3.721-13.338-11.838-13.338-20.776V317.029
	L256,317.029L256,317.029z"/>
<polygon style="fill:#FF4F19;" points="256,317.029 119.315,317.029 118.474,184.544 256,184.544 "/>
<path style="fill:#FFDBA9;" d="M102.646,178.945h-33.18c-2.761,0-4.999-2.238-4.999-4.999v-30.854c0-2.761,2.239-4.999,4.999-4.999
	h33.179v40.852H102.646z"/>
<rect x="83.563" y="138.084" style="fill:#FFC473;" width="19.081" height="40.861"/>
<path style="fill:#FFDBA9;" d="M442.533,178.945h-33.179v-40.853h33.179c2.761,0,4.999,2.238,4.999,4.999v30.854
	C447.532,176.707,445.294,178.945,442.533,178.945z"/>
<path style="fill:#FFC473;" d="M447.527,143.088v30.863c0,2.759-2.229,4.999-4.999,4.999h-19.086c2.759,0,4.999-2.239,4.999-4.999
	v-30.863c0-2.759-2.24-4.999-4.999-4.999h19.086C445.298,138.088,447.527,140.329,447.527,143.088z"/>
<path style="fill:#B76035;" d="M404.206,184.85H107.652c-2.764,0-5.006-2.242-5.006-5.006v-42.653c0-2.764,2.242-5.006,5.006-5.006
	h296.554c2.764,0,5.006,2.241,5.006,5.006v42.653C409.211,182.61,406.97,184.85,404.206,184.85z"/>
<path style="fill:#A04C27;" d="M404.206,184.85h-20.235v-52.664h20.235c2.764,0,5.006,2.241,5.006,5.006v42.653
	C409.211,182.61,406.97,184.85,404.206,184.85z"/>
<circle style="fill:#FFDBA9;" cx="255.996" cy="33.197" r="25.702"/>
<path style="fill:#FFC473;" d="M281.704,33.202c0,14.197-11.508,25.705-25.705,25.705c-11.897,0-21.905-8.078-24.825-19.046
	c2.939,1.18,6.139,1.82,9.498,1.82c14.197,0,25.705-11.498,25.705-25.695c0-2.31-0.3-4.539-0.88-6.668
	C274.996,13.087,281.704,22.364,281.704,33.202z"/>
<path style="fill:#FF4F19;" d="M255.763,317.029l0.677,187.469h-0.439l123.791-56.47c8.127-3.721,13.338-11.838,13.338-20.776
	l-0.227-110.223H255.763z"/>
<path style="fill:#E23D17;" d="M393.401,317.029l-0.271,110.226c0,8.938-5.209,17.056-13.337,20.776l-12.627,5.778
	c1.74-3.539,2.699-7.488,2.699-11.597l0.271-125.183h23.265V317.029z"/>
<polygon style="fill:#3777D3;" points="255.924,317.544 393.124,317.029 393.124,184.85 255.924,185.366 "/>
<rect x="369.863" y="186.027" style="fill:#2468BA;" width="23.256" height="130.996"/>
<path d="M442.534,130.594h-25.997c-0.731-3.376-3.731-5.906-7.325-5.906h-12.206l-108.292-85.87
	c0.313-1.828,0.486-3.703,0.486-5.618C289.2,14.893,274.306,0,256,0s-33.2,14.893-33.2,33.2c0,1.916,0.172,3.791,0.486,5.618
	l-108.292,85.87h-12.348c-3.594,0-6.594,2.53-7.325,5.906H69.466c-6.891,0-12.497,5.606-12.497,12.497v30.854
	c0,6.891,5.606,12.497,12.497,12.497h25.855c0.731,3.376,3.731,5.906,7.325,5.906h8.948v124.679v46.615
	c0,4.142,3.357,7.498,7.498,7.498c4.142,0,7.498-3.357,7.498-7.498v-39.117h122.128v168.501l-113.168-51.812
	c-5.443-2.492-8.96-7.971-8.96-13.958v-16.492c0-4.142-3.357-7.498-7.498-7.498c-4.142,0-7.498,3.357-7.498,7.498v16.492
	c0,11.836,6.954,22.668,17.715,27.594l123.336,56.47c0.991,0.454,2.056,0.681,3.121,0.681c0.087,0,0.175-0.011,0.262-0.014
	c0.067,0.002,0.132,0.01,0.199,0.01c1.077,0,2.142-0.232,3.121-0.681l123.342-56.47c10.762-4.927,17.716-15.759,17.716-27.594
	V317.029c0-0.033-0.004-0.064-0.005-0.097V192.349h8.811c3.594,0,6.594-2.53,7.325-5.906h25.997c6.891,0,12.497-5.606,12.497-12.497
	v-30.854C455.03,136.2,449.424,130.594,442.534,130.594z M95.148,171.446H71.966V145.59h23.182V171.446z M256,14.997
	c10.037,0,18.203,8.166,18.203,18.203S266.037,51.403,256,51.403s-18.203-8.166-18.203-18.203S245.962,14.997,256,14.997z
	 M248.279,309.53H126.591V193.529H248.28L248.279,309.53L248.279,309.53z M384.941,427.255c0,5.987-3.517,11.466-8.961,13.958
	l-112.264,51.4V324.526h121.225V427.255z M384.941,309.53H263.716V193.529h121.225V309.53z M401.713,177.353H110.145v-37.667h77.512
	c4.142,0,7.498-3.357,7.498-7.498c0-4.142-3.357-7.498-7.498-7.498h-48.526l90.3-71.604c6.062,8.078,15.715,13.315,26.569,13.315
	c10.854,0,20.508-5.236,26.569-13.315l90.3,71.604h-138.53c-4.142,0-7.498,3.357-7.498,7.498c0,4.142,3.357,7.498,7.498,7.498
	h167.375V177.353z M440.034,171.446h-23.182V145.59h23.182V171.446z"/>
<g>
</g>
<g>
</g>
<g>
</g>
<g>
</g>
<g>
</g>
<g>
</g>
<g>
</g>
<g>
</g>
<g>
</g>
<g>
</g>
<g>
</g>
<g>
</g>
<g>
</g>
<g>
</g>
<g>
</g>
</svg>
