<?xml version="1.0" encoding="iso-8859-1"?>
<!-- Generator: Adobe Illustrator 19.0.0, SVG Export Plug-In . SVG Version: 6.00 Build 0)  -->
<svg version="1.1" id="Capa_1" xmlns="http://www.w3.org/2000/svg" xmlns:xlink="http://www.w3.org/1999/xlink" x="0px" y="0px"
	 viewBox="0 0 511.999 511.999" style="enable-background:new 0 0 511.999 511.999;" xml:space="preserve">
<path style="fill:#B76035;" d="M149.534,345.595l-9.126,63.524c-0.135,0.937-0.007,1.892,0.368,2.761l20.321,47.029
	c1.441,3.336,5.801,4.153,8.352,1.565l41.802-42.408l10.931-72.471L149.534,345.595L149.534,345.595z"/>
<path style="fill:#A04C27;" d="M222.187,345.591l-10.931,72.476l-41.809,42.408c-2.546,2.585-6.908,1.767-8.346-1.567l-5.76-13.337
	l30.567-31.01c0.74-0.751,1.223-1.717,1.381-2.759l9.991-66.21L222.187,345.591L222.187,345.591z"/>
<path style="fill:#B76035;" d="M362.783,345.675l9.126,63.524c0.135,0.937,0.007,1.892-0.368,2.761l-20.321,47.029
	c-1.441,3.336-5.801,4.153-8.353,1.565l-41.802-42.408l-10.931-72.471L362.783,345.675L362.783,345.675z"/>
<path style="fill:#A04C27;" d="M371.542,411.958l-20.325,47.03c-1.438,3.334-5.8,4.153-8.346,1.567l-12.718-12.898l15.434-35.699
	c0.379-0.868,0.499-1.827,0.369-2.755l-10.113-63.612l26.944,0.08l9.124,63.532C372.041,410.131,371.922,411.089,371.542,411.958z"
	/>
<path style="fill:#B76035;" d="M289.816,345.595h-33.817h-33.817l-10.931,72.471l41.006,43.824c2.025,2.164,5.458,2.164,7.483,0
	l41.006-43.824L289.816,345.595z"/>
<path style="fill:#A04C27;" d="M300.743,418.067l-40.999,43.825c-2.026,2.166-5.461,2.166-7.488,0.001l-7.737-8.266l31.613-33.795
	c1.043-1.115,1.518-2.645,1.29-4.154l-10.571-70.087h22.961L300.743,418.067z"/>
<path style="fill:#B7C1CA;" d="M351.967,49.695c-45.797,20.5-94.294,17.276-94.294,17.276s-51.415,3.227-97.635-17.294
	c-6.053-2.688-13.147-0.613-16.705,4.973c-7.461,11.714-20.846,31.34-35.659,46.52c-8.393,8.601-11.557,21.017-8.124,32.534
	c14.166,47.524,48.444,166.681,49.984,211.892h212.931c1.54-45.213,35.821-164.376,49.985-211.897
	c3.432-11.514,0.269-23.927-8.122-32.525c-14.82-15.186-28.212-34.824-35.671-46.537C365.102,49.054,358.007,46.991,351.967,49.695z
	"/>
<path style="fill:#A3AEB7;" d="M412.449,133.703c-14.167,47.526-48.447,166.68-49.981,211.888h-26.625
	c1.543-45.208,35.818-164.363,49.983-211.889c3.418-11.466,0.342-23.874-8.022-32.429c-14.853-15.193-28.282-34.886-35.761-46.627
	c-0.15-0.24-0.309-0.469-0.479-0.699c3.504-1.298,7.008-2.725,10.502-4.293c6-2.695,13.068-0.559,16.602,4.992
	c7.479,11.74,20.908,31.433,35.76,46.626C412.792,109.828,415.867,122.236,412.449,133.703z"/>
<g>
	<path style="fill:#3777D3;" d="M382.998,75.845c0,0-121.935,158.972-250.161,179.648l9.083,39.862c0,0,115.54-8.301,267.481-189.07
		L382.998,75.845z"/>
	<path style="fill:#3777D3;" d="M128.82,75.845c0,0,121.935,158.972,250.161,179.648l-9.083,39.862c0,0-115.54-8.301-267.481-189.07
		L128.82,75.845z"/>
</g>
<path style="fill:#6B6C8A;" d="M335.861,99.195c0.097,1.267,0.503,2.544,1.286,3.821c4.523,7.37,9.965,14.318,14.904,21.414
	c5.778,8.302,11.555,16.603,17.333,24.905c6.634,9.531,12.277,12.539,23.471,14.032c9.823,1.31,19.646,2.62,29.469,3.931
	c21.841,2.913,43.681,5.826,65.522,8.739l10.983,1.465c3.478,0.464,6.344-2.691,5.553-6.109c-0.859-3.714-1.717-7.59-1.867-8.069
	c-3.874-12.378-9.425-24.279-16.47-35.17c-21.094-32.614-62.272-61.076-102.346-57.627c-10.082,0.868-19.592,2.78-28.336,8.016
	C348.609,82.589,335.21,90.658,335.861,99.195z"/>
<path style="fill:#5D5F7A;" d="M498.826,177.497l-10.981-1.457c-1.318-0.18-2.626-0.349-3.943-0.529
	c-3.794-11.211-8.975-21.983-15.394-31.916c-21.094-32.614-62.274-61.076-102.346-57.632c-10.083,0.869-19.597,2.785-28.342,8.016
	c-0.329,0.2-0.679,0.409-1.038,0.619c3.095-6.749,13.058-12.748,18.578-16.053c8.745-5.241,18.259-7.148,28.342-8.016
	c40.072-3.454,81.252,25.007,102.346,57.622c7.048,10.891,12.599,22.791,16.472,35.17c0.15,0.479,1.008,4.353,1.867,8.066
	C505.175,174.811,502.31,177.966,498.826,177.497z"/>
<path style="fill:#6B6C8A;" d="M176.137,99.195c-0.097,1.267-0.503,2.544-1.286,3.821c-4.523,7.37-9.965,14.318-14.904,21.414
	c-5.778,8.302-11.555,16.603-17.333,24.905c-6.634,9.531-12.277,12.539-23.471,14.032c-9.823,1.31-19.646,2.62-29.469,3.931
	c-21.841,2.913-43.681,5.826-65.522,8.739l-10.983,1.465c-3.478,0.464-6.344-2.691-5.553-6.109c0.859-3.714,1.717-7.59,1.867-8.069
	c3.874-12.378,9.425-24.279,16.47-35.17C47.047,95.54,88.225,67.078,128.299,70.527c10.082,0.868,19.592,2.78,28.336,8.016
	C163.389,82.589,176.788,90.658,176.137,99.195z"/>
<path style="fill:#5D5F7A;" d="M13.175,177.497l10.981-1.457c1.318-0.18,2.626-0.349,3.943-0.529
	c3.794-11.211,8.975-21.983,15.394-31.916c21.094-32.614,62.274-61.076,102.346-57.632c10.083,0.869,19.597,2.785,28.342,8.016
	c0.329,0.2,0.679,0.409,1.038,0.619c-3.095-6.749-13.058-12.748-18.578-16.053c-8.745-5.241-18.259-7.148-28.342-8.016
	c-40.072-3.454-81.252,25.007-102.346,57.622c-7.048,10.891-12.599,22.791-16.472,35.17c-0.15,0.479-1.008,4.353-1.867,8.066
	C6.826,174.811,9.691,177.966,13.175,177.497z"/>
<path d="M511.676,169.704c-0.314-1.358-0.628-2.737-0.906-3.964c-0.774-3.401-0.941-4.116-1.11-4.653
	c-4.108-13.126-9.938-25.575-17.328-37c-11.452-17.706-27.963-33.578-46.491-44.691c-20.664-12.394-42.299-18.035-62.593-16.342
	c-3.322-4.79-6.146-9.095-8.277-12.44c-5.576-8.759-16.54-12.017-26.064-7.753C305.453,62.314,258.632,59.53,258.17,59.5
	c-0.322-0.021-0.645-0.021-0.966-0.002c-0.499,0.029-50.094,2.886-94.128-16.664c-9.529-4.231-20.488-0.952-26.059,7.793
	c-2.128,3.341-4.953,7.645-8.271,12.427c-20.386-1.705-42.106,3.993-62.844,16.495c-3.541,2.134-4.682,6.736-2.547,10.277
	c2.135,3.542,6.739,4.683,10.277,2.547c18.079-10.898,36.766-15.875,54.022-14.387c11.031,0.95,18.547,3.037,25.13,6.978
	c15.406,9.231,15.935,12.998,15.884,13.661c-0.011,0.143-0.13,0.357-0.202,0.473c-2.867,4.673-6.26,9.355-9.541,13.883
	c-1.692,2.336-3.442,4.751-5.126,7.17l-17.332,24.905c-5.208,7.482-8.803,9.618-18.317,10.887L15.704,169.609
	c0.043-0.185,0.084-0.367,0.125-0.547c0.335-1.474,0.714-3.136,0.838-3.625c3.701-11.788,8.94-22.964,15.571-33.217
	c2.366-3.658,5.027-7.293,7.906-10.805c2.622-3.198,2.156-7.915-1.042-10.538c-3.2-2.622-7.916-2.156-10.538,1.042
	c-3.235,3.945-6.229,8.039-8.9,12.167c-7.39,11.426-13.22,23.874-17.326,36.996c-0.17,0.541-0.336,1.256-1.11,4.657
	c-0.279,1.227-0.593,2.606-0.906,3.964c-0.926,4,0.171,8.201,2.933,11.238c2.386,2.624,5.754,4.091,9.25,4.091
	c0.549,0,1.102-0.036,1.654-0.109l89.089-11.883c4.357,15.222,8.603,30.477,12.687,45.776c3.661,13.711,7.013,27.502,10.243,41.321
	c2.315,9.905,4.72,19.79,6.942,29.716c2.017,9.011,4.141,18.247,5.622,27.25c1.847,11.229,4.564,20.712,2.728,31.96
	c-1.158,7.098-2.047,14.252-3.07,21.371c-1.802,12.54-3.602,25.081-5.405,37.621c-0.332,2.307-0.018,4.656,0.906,6.795
	l20.322,47.028c1.665,3.857,5.125,6.62,9.254,7.395c0.776,0.145,1.556,0.216,2.33,0.216c3.343,0,6.579-1.33,8.973-3.759
	l36.329-36.855l35.68,38.131c2.375,2.539,5.731,3.995,9.209,3.995c3.477,0,6.833-1.457,9.208-3.995l35.797-38.256l36.53,37.06
	c2.395,2.429,5.631,3.759,8.975,3.759c0.773,0,1.552-0.071,2.328-0.217c4.129-0.772,7.589-3.536,9.256-7.393l20.321-47.03
	c0.924-2.139,1.238-4.489,0.907-6.795c-1.997-13.902-3.994-27.804-5.991-41.705c-1.257-8.752-3.889-18.099-2.918-26.799
	c6.319-56.624,22.717-112.014,38.339-166.59l89.089,11.883c0.553,0.073,1.104,0.109,1.654,0.109c3.496,0,6.864-1.467,9.25-4.091
	C511.506,177.905,512.603,173.704,511.676,169.704z M160.481,72.119c-5.107-3.058-10.363-5.056-15.427-6.405
	c1.646-2.47,3.192-4.841,4.594-7.042c1.558-2.446,4.646-3.352,7.352-2.153c45.497,20.2,94.929,18.258,100.663,17.951
	c5.573,0.31,52.334,2.215,97.364-17.941c2.685-1.205,5.762-0.309,7.314,2.128c1.404,2.205,2.954,4.582,4.603,7.056
	c-5.065,1.349-10.322,3.348-15.43,6.406c-8.431,5.053-24.124,14.457-23.118,27.643c0.191,2.508,0.989,4.919,2.37,7.168
	c2.069,3.37,4.309,6.629,6.572,9.814c-10.5,11.032-22.752,23.234-36.375,35.632c-13.102,11.923-28.339,24.779-45.063,37.129
	c-32.083-23.78-60.218-50.609-81.281-72.701c2.277-3.204,4.532-6.481,6.612-9.872c1.384-2.251,2.181-4.663,2.372-7.169
	C184.608,86.577,168.915,77.173,160.481,72.119z M346.219,129.158l14.122,20.291c-20.697,21.292-44.199,43.202-69.805,63.346
	c-7.405-4.455-14.679-9.171-21.788-14.082c13.917-10.528,28.019-22.269,42.293-35.259
	C324.17,151.506,335.979,139.824,346.219,129.158z M118.222,171.043l1.911-0.255c9.87-1.317,16.373-3.939,22.097-9.385
	c19.446,19.904,41.288,40.3,64.998,59.341c-21.968,11.9-45.18,21.34-68.653,26.081C132.043,220.631,124.714,193.872,118.222,171.043
	z M355.438,338.109h-65.622h-67.634H156.56c-0.884-10.088-2.876-22.608-5.595-36.531c12.212-2.302,37.012-8.724,71.147-26.314
	c11.512-5.932,22.787-12.479,33.793-19.479c11.009,7.001,22.286,13.546,33.8,19.479c34.297,17.673,59.17,24.073,71.32,26.346
	C358.31,315.52,356.321,328.028,355.438,338.109z M216.373,261.373c-30.696,15.948-55.336,23.153-68.413,25.583
	c-1.772-8.241-3.735-16.817-5.824-25.554c25.072-5.111,51.148-15.324,78.067-30.529c7.168,5.441,14.485,10.739,21.946,15.84
	C233.7,251.911,225.109,256.834,216.373,261.373z M166.579,452.72l-18.667-43.197l8.109-56.44h57.459l-0.846,5.612l-8.424,55.849
	L166.579,452.72z M255.999,454.93l-36.803-39.331l9.429-62.516h54.748l9.429,62.516L255.999,454.93z M345.738,452.8l-37.632-38.177
	l-9.271-61.461h57.459l8.109,56.44L345.738,452.8z M373.411,246.876c-6.769-1.358-13.681-3.135-20.628-5.307
	c-3.948-1.237-8.145,0.965-9.38,4.912c-1.234,3.947,0.966,8.146,4.913,9.38c7.237,2.262,14.451,4.126,21.539,5.572
	c-2.083,8.715-4.042,17.269-5.81,25.49c-22.9-4.3-105.151-26.771-212.493-137.324l14.16-20.346c3.22,3.355,6.58,6.8,10.108,10.338
	c54.093,54.238,99.501,83.125,128.069,97.807c3.678,1.888,8.192,0.442,10.083-3.237c1.889-3.678,0.441-8.192-3.237-10.082
	c-2.082-1.07-4.154-2.172-6.22-3.291c23.772-19.085,45.675-39.526,65.161-59.477c5.746,5.506,12.267,8.151,22.191,9.474l1.911,0.255
	C387.28,193.886,379.946,220.665,373.411,246.876z M393.845,155.944c-9.513-1.268-13.109-3.404-18.316-10.887l-17.333-24.905
	c-1.684-2.42-3.435-4.834-5.126-7.17c-3.281-4.527-6.674-9.21-9.543-13.885c-0.07-0.115-0.189-0.328-0.2-0.471
	c0-0.001,0-0.001,0-0.001c-0.051-0.662,0.478-4.429,15.882-13.659c6.583-3.943,14.1-6.03,25.131-6.979
	c1.989-0.172,3.975-0.254,5.968-0.254c35.616,0,71.446,26.65,89.451,54.487c6.63,10.252,11.869,21.424,15.572,33.218
	c0.124,0.488,0.502,2.15,0.838,3.625c0.041,0.179,0.082,0.362,0.125,0.547L393.845,155.944z"/>
<g>
</g>
<g>
</g>
<g>
</g>
<g>
</g>
<g>
</g>
<g>
</g>
<g>
</g>
<g>
</g>
<g>
</g>
<g>
</g>
<g>
</g>
<g>
</g>
<g>
</g>
<g>
</g>
<g>
</g>
</svg>
