<?xml version="1.0" encoding="iso-8859-1"?>
<!-- Generator: Adobe Illustrator 19.0.0, SVG Export Plug-In . SVG Version: 6.00 Build 0)  -->
<svg version="1.1" id="Capa_1" xmlns="http://www.w3.org/2000/svg" xmlns:xlink="http://www.w3.org/1999/xlink" x="0px" y="0px"
	 viewBox="0 0 512.001 512.001" style="enable-background:new 0 0 512.001 512.001;" xml:space="preserve">
<path style="fill:#B7C1CA;" d="M480.349,38.265c-0.004-2.19-1.426-4.113-3.516-4.769C421.646,16.175,338.822,7.515,255.999,7.515
	l0,0c-82.824,0-165.648,8.661-220.835,25.981c-2.09,0.656-3.512,2.579-3.516,4.769c-0.251,132.172-13.605,273.762,80.44,385.611
	c35.369,42.065,85.031,74.226,143.908,80.608h0.005c58.876-6.382,108.54-38.545,143.908-80.608
	C493.955,312.028,480.601,170.437,480.349,38.265z"/>
<path style="fill:#A3AEB7;" d="M399.908,423.876c-17.684,21.031-38.946,39.587-63.143,53.684
	c-24.197,14.097-51.33,23.736-80.767,26.922c-21.932-2.375-42.581-8.325-61.697-17.042c61.188,27.899,140.831-29.653,177.983-73.834
	c94.053-111.847,80.697-253.442,80.446-385.609c0-0.391-0.05-0.782-0.14-1.152c8.557,2.054,16.662,4.268,24.247,6.653
	c2.084,0.651,3.507,2.575,3.517,4.769C480.605,170.434,493.951,312.029,399.908,423.876z"/>
<path style="fill:#FF4F19;" d="M430.087,87.871c-0.005-2.194-1.43-4.123-3.526-4.772C383.74,69.824,319.87,63.187,255.999,63.187
	l0,0c-63.87,0-127.741,6.637-170.562,19.912c-2.096,0.65-3.521,2.578-3.526,4.772c-0.247,102.324-10.36,211.836,62.42,298.393
	c27.444,32.64,65.98,57.596,111.666,62.548h0.004c45.686-4.953,84.221-29.909,111.666-62.548
	C440.447,299.707,430.335,190.195,430.087,87.871z"/>
<path style="fill:#E23D17;" d="M367.665,386.263c-13.717,16.322-30.219,30.72-48.995,41.661
	c-18.766,10.941-39.827,18.416-62.672,20.891c-25.64-2.775-49.025-11.853-69.455-25.049c3.402,1.347,6.861,2.581,10.377,3.696
	c19.284,6.12,40.055,6.227,59.362,0.183c11.739-3.674,22.86-8.679,33.281-14.751c18.776-10.941,35.268-25.339,48.995-41.661
	c71.93-85.536,62.902-193.496,62.441-294.772c9.148,1.994,17.704,4.198,25.56,6.633c2.094,0.651,3.517,2.585,3.527,4.779
	C430.337,190.192,440.447,299.705,367.665,386.263z"/>
<path style="fill:#FFDBA9;" d="M344.879,227.527l-4.101-18.158c-0.451-1.997-2.306-3.354-4.345-3.179l-43.223,3.705
	c-10.67,0.915-19.589-8.005-18.674-18.674l3.705-43.223c0.174-2.039-1.182-3.895-3.179-4.345l-18.162-4.101
	c-0.594-0.134-1.21-0.134-1.805,0l-18.158,4.101c-1.997,0.451-3.354,2.306-3.179,4.345l3.705,43.223
	c0.915,10.67-8.005,19.589-18.674,18.674l-43.223-3.705c-2.039-0.174-3.895,1.182-4.345,3.179l-4.101,18.158
	c-0.134,0.594-0.134,1.21,0,1.805l4.101,18.162c0.451,1.997,2.306,3.354,4.345,3.179l43.223-3.705
	c10.67-0.915,19.589,8.005,18.674,18.674l-3.705,43.223c-0.174,2.039,1.182,3.895,3.179,4.345l18.158,4.101
	c0.594,0.134,1.21,0.134,1.805,0l18.162-4.101c1.997-0.451,3.354-2.306,3.179-4.345l-3.705-43.223
	c-0.915-10.67,8.005-19.589,18.674-18.674l43.223,3.705c2.039,0.174,3.895-1.182,4.345-3.179l4.101-18.162
	C345.013,228.737,345.013,228.121,344.879,227.527z"/>
<path d="M488.252,81.353c-0.177-14.179-0.361-28.841-0.389-43.102c-0.01-5.487-3.537-10.279-8.78-11.926
	C425.777,9.596,344.465,0,255.999,0S86.221,9.596,32.912,26.326c-5.24,1.647-8.768,6.44-8.778,11.924
	c-0.027,14.259-0.21,28.92-0.389,43.1c-0.875,69.794-1.778,141.966,14.663,209.947c0.977,4.033,5.042,6.512,9.071,5.537
	c4.034-0.976,6.514-5.037,5.538-9.071C37.017,221.618,37.91,150.405,38.773,81.538c0.17-13.608,0.347-27.661,0.386-41.414
	C91.1,24.165,169.963,15.029,255.999,15.029c86.037,0,164.901,9.137,216.84,25.095c0.039,13.756,0.215,27.808,0.386,41.418
	c1.479,117.937,3.007,239.889-79.065,337.498C356.82,463.446,307.782,491.081,256,496.925
	c-51.785-5.843-100.823-33.479-138.16-77.884c-22.064-26.241-38.86-54.888-51.349-87.576c-1.482-3.878-5.824-5.822-9.702-4.337
	c-3.877,1.481-5.819,5.824-4.337,9.702c13.096,34.282,30.723,64.338,53.885,91.885c40.036,47.614,92.898,77.177,148.85,83.243
	c0.27,0.029,0.544,0.044,0.815,0.044c0.271,0,0.541-0.015,0.811-0.044c55.951-6.066,108.813-35.628,148.85-83.243
	C491.328,326.827,489.764,202.036,488.252,81.353z"/>
<path d="M313.185,57.466c-18.6-1.19-37.84-1.794-57.186-1.794c-68.296,0-131.275,7.38-172.786,20.249
	c-5.258,1.63-8.801,6.424-8.816,11.931c-0.026,10.79-0.165,21.883-0.3,32.611c-1.177,93.951-2.395,191.1,64.482,270.637
	c31.347,37.28,72.759,60.43,116.607,65.184c0.27,0.029,0.543,0.044,0.815,0.044c0.272,0,0.541-0.015,0.811-0.044
	c43.849-4.753,85.262-27.903,116.607-65.184c66.878-79.538,65.66-176.691,64.482-270.643c-0.134-10.726-0.273-21.817-0.3-32.603
	c-0.013-5.508-3.556-10.303-8.816-11.933c-18.84-5.839-41.93-10.548-68.632-13.996c-4.112-0.53-7.883,2.375-8.414,6.492
	c-0.531,4.115,2.375,7.883,6.492,8.414c25.014,3.229,46.65,7.57,64.349,12.908c0.036,10.274,0.167,20.754,0.295,30.908
	c1.144,91.207,2.326,185.519-60.957,260.781C333.268,415.5,295.684,436.722,256,441.253c-39.682-4.531-77.267-25.753-105.917-59.825
	c-63.281-75.261-62.1-169.571-60.957-260.777c0.127-10.156,0.259-20.638,0.295-30.913C129.572,77.629,190.117,70.699,256,70.699
	c19.027,0,37.944,0.593,56.225,1.763c4.159,0.272,7.714-2.878,7.979-7.019C320.469,61.304,317.326,57.731,313.185,57.466z"/>
<path d="M292.569,254.455l43.225,3.705c5.757,0.495,11.043-3.382,12.315-9.012l4.102-18.163c0.377-1.672,0.377-3.442,0-5.114
	c-0.001,0-0.001,0-0.001-0.001l-4.101-18.159c-1.272-5.628-6.557-9.51-12.317-9.009l-43.222,3.705
	c-2.878,0.25-5.69-0.782-7.728-2.819c-2.038-2.038-3.066-4.854-2.818-7.726l3.704-43.222c0.494-5.753-3.382-11.049-9.011-12.318
	l-18.162-4.102c-1.673-0.376-3.442-0.377-5.115,0.001l-18.155,4.1c-5.63,1.269-9.504,6.564-9.014,12.318l3.705,43.222
	c0.245,2.873-0.782,5.689-2.819,7.727c-2.037,2.038-4.852,3.074-7.726,2.819l-43.226-3.705c-5.753-0.497-11.042,3.382-12.315,9.01
	l-4.102,18.159c-0.377,1.672-0.377,3.442,0.001,5.114l4.101,18.165c1.271,5.626,6.544,9.505,12.317,9.01l43.223-3.705
	c2.872-0.251,5.688,0.781,7.727,2.819c2.038,2.038,3.066,4.854,2.819,7.726l-3.705,43.226c-0.491,5.751,3.384,11.045,9.01,12.314
	l18.159,4.102c0.837,0.188,1.696,0.283,2.557,0.283c0.86,0,1.72-0.095,2.557-0.284l18.16-4.1c5.632-1.269,9.507-6.566,9.014-12.318
	L282.023,265c-0.246-2.872,0.781-5.688,2.818-7.725C286.88,255.236,289.703,254.202,292.569,254.455z M274.214,246.649
	c-5.179,5.18-7.791,12.337-7.165,19.636l3.45,40.253l-14.502,3.274l-14.498-3.274l3.451-40.254
	c0.625-7.298-1.987-14.456-7.167-19.636s-12.334-7.788-19.637-7.167l-40.254,3.451l-3.274-14.503l3.274-14.498l40.255,3.451
	c7.297,0.62,14.456-1.987,19.636-7.167s7.792-12.337,7.167-19.637l-3.451-40.253l14.498-3.274l14.502,3.274l-3.45,40.253
	c-0.626,7.298,1.986,14.456,7.165,19.636c5.18,5.18,12.334,7.79,19.639,7.168l40.253-3.451l3.274,14.498l-3.274,14.503
	l-40.254-3.451C286.559,238.86,279.394,241.469,274.214,246.649z"/>
<g>
</g>
<g>
</g>
<g>
</g>
<g>
</g>
<g>
</g>
<g>
</g>
<g>
</g>
<g>
</g>
<g>
</g>
<g>
</g>
<g>
</g>
<g>
</g>
<g>
</g>
<g>
</g>
<g>
</g>
</svg>
