<?xml version="1.0" encoding="iso-8859-1"?>
<!-- Generator: Adobe Illustrator 19.0.0, SVG Export Plug-In . SVG Version: 6.00 Build 0)  -->
<svg version="1.1" id="Capa_1" xmlns="http://www.w3.org/2000/svg" xmlns:xlink="http://www.w3.org/1999/xlink" x="0px" y="0px"
	 viewBox="0 0 511.998 511.998" style="enable-background:new 0 0 511.998 511.998;" xml:space="preserve">
<path style="fill:#80829B;" d="M318.368,168.804c-13.213-22.014-39.944-26.525-58.09-43.222
	c-14.239-13.102-19.848-27.755-19.92-46.609c-0.005-1.364-0.158-44.729-0.112-52.872c0.058-10.243-8.246-18.57-18.489-18.57
	c-0.191,0-0.382,0-0.573,0c-9.94,0-18.103,7.859-18.475,17.791c-0.301,8.015-0.565,51.353-0.479,52.814
	c0.891,15.172,3.358,31.407,10.473,45.491c8.394,16.615,18.403,24.758,34.529,33.68c20.938,11.583,48.889,24.502,48.889,52.389
	c0,0.003,0,5.491,0,12.648c0,13.433,0,32.751,0,32.751s0,19.318,0,32.751c0,7.157,0,12.645,0,12.648
	c0,27.887-27.951,40.806-48.889,52.389c-16.127,8.921-26.135,17.065-34.529,33.68c-7.115,14.084-9.582,30.319-10.473,45.491
	c-0.086,1.461,0.178,46.605,0.479,54.62c0.373,9.933,8.536,17.791,18.475,17.791c0.191,0,0.382,0,0.573,0
	c10.243,0,18.547-8.327,18.489-18.57c-0.046-8.143,0.106-53.314,0.112-54.678c0.072-18.854,5.68-33.507,19.92-46.609
	c18.146-16.697,44.878-21.208,58.09-43.222c7.425-12.37,10.279-26.639,10.279-40.894c0-0.002,0-5.491,0-12.648
	c0-13.433,0-32.751,0-32.751s0-19.318,0-32.751c0-7.157,0-12.646,0-12.648C328.647,195.443,325.793,181.174,318.368,168.804z"/>
<path style="fill:#6E7189;" d="M328.647,209.695v12.653c0,13.427,0,32.748,0,32.748s0,19.322,0,32.748c0,7.16,0,12.654,0,12.654
	c0,14.25-2.852,28.52-10.283,40.892c-13.206,22.013-39.939,26.522-58.085,43.222c-14.24,13.105-19.844,27.757-19.924,46.607
	c0,1.366-0.151,46.536-0.111,54.681c0.06,10.243-8.245,18.568-18.488,18.568h-0.572c-2.983,0-5.805-0.713-8.305-1.968
	c6.066-3.063,10.223-9.35,10.183-16.6c-0.05-8.144,0.1-53.315,0.11-54.681c0.07-20.145,8.988-40.762,22.344-55.665
	c13.728-15.315,32.186-20.557,47.35-33.542c9.44-8.084,15.315-18.116,16.881-30.328c2.4-18.749,1.707-38.151,1.707-56.589v-45.402
	c0-15.425-5.232-27.084-14.391-37.127c-3.756-4.117-8.164-7.953-13.135-11.679c-11.569-8.657-24.343-15.676-35.439-24.945
	C215.831,108.648,222.841,64.09,223.062,26.1c0.04-7.251-4.117-13.537-10.183-16.6c2.501-1.255,5.323-1.968,8.305-1.968h0.572
	c10.243,0,18.548,8.325,18.488,18.568c-0.04,8.144,0.111,51.507,0.111,52.873c0.08,18.85,5.684,33.511,19.924,46.607
	c18.147,16.7,44.879,21.209,58.085,43.222C325.795,181.174,328.647,195.444,328.647,209.695z"/>
<path style="fill:#FFDBA9;" d="M330.183,224.453h-37.449c0,0-6.537,35.529,0,63.925h18.705h0.04h18.705
	C336.72,259.982,330.183,224.453,330.183,224.453z"/>
<path style="fill:#FFC473;" d="M330.184,288.377h-14.585c6.538-28.39,0-63.92,0-63.92h14.585
	C330.184,224.457,336.721,259.987,330.184,288.377z"/>
<g>
	<path style="fill:#FFDBA9;" d="M333.965,224.453h-45.014c-5.965,0-10.8-4.835-10.8-10.8v-5.526c0-5.965,4.835-10.8,10.8-10.8
		h45.014c5.965,0,10.8,4.835,10.8,10.8v5.526C344.765,219.618,339.93,224.453,333.965,224.453z"/>
	<path style="fill:#FFDBA9;" d="M333.965,315.506h-45.014c-5.965,0-10.8-4.835-10.8-10.8v-5.526c0-5.965,4.835-10.8,10.8-10.8
		h45.014c5.965,0,10.8,4.835,10.8,10.8v5.526C344.765,310.671,339.93,315.506,333.965,315.506z"/>
</g>
<g>
	<path style="fill:#FFC473;" d="M344.765,208.128v5.523c0,5.965-4.83,10.806-10.796,10.806h-15.465c5.965,0,7.682-4.84,7.682-10.806
		v-5.523c0-5.965-1.717-10.805-7.682-10.805h15.465C339.935,197.323,344.765,202.163,344.765,208.128z"/>
	<path style="fill:#FFC473;" d="M344.765,299.182v5.523c0,5.965-4.83,10.806-10.796,10.806h-15.465c5.965,0,7.682-4.84,7.682-10.806
		v-5.523c0-5.965-1.717-10.806-7.682-10.806h15.465C339.935,288.377,344.765,293.217,344.765,299.182z"/>
</g>
<path style="fill:#FFDBA9;" d="M242.766,66.583h-38.794c-5.62,0-10.177-4.556-10.177-10.177v-6.772
	c0-5.62,4.556-10.177,10.177-10.177h38.794c5.62,0,10.177,4.556,10.177,10.177v6.772C252.943,62.027,248.386,66.583,242.766,66.583z
	"/>
<path style="fill:#FFC473;" d="M252.938,49.629v6.779c0,5.624-4.549,10.173-10.173,10.173h-17.072
	c5.624,0,10.173-4.549,10.173-10.173v-6.779c0-5.614-4.549-10.173-10.173-10.173h17.072
	C248.389,39.456,252.938,44.016,252.938,49.629z"/>
<path style="fill:#FFDBA9;" d="M242.766,472.543h-38.794c-5.62,0-10.177-4.556-10.177-10.177v-6.772
	c0-5.62,4.556-10.177,10.177-10.177h38.794c5.62,0,10.177,4.556,10.177,10.177v6.772
	C252.943,467.986,248.386,472.543,242.766,472.543z"/>
<path style="fill:#FFC473;" d="M252.943,455.59v6.779c0,5.624-4.549,10.173-10.173,10.173h-17.072
	c5.624,0,10.173-4.549,10.173-10.173v-6.779c0-5.614-4.549-10.173-10.173-10.173h17.072
	C248.393,445.417,252.943,449.977,252.943,455.59z"/>
<path d="M352.297,213.653v-5.526c0-10.004-8.058-18.149-18.024-18.316c-1.831-9.118-4.982-17.444-9.446-24.883
	c-8.929-14.876-22.793-22.428-36.202-29.73c-8.535-4.648-16.597-9.04-23.247-15.159c-12.191-11.217-17.421-23.507-17.488-41.093
	c0-0.096-0.008-2.227-0.019-5.588c7.283-2.198,12.604-8.961,12.604-16.951v-6.773c0-8.026-5.371-14.812-12.705-16.977
	c-0.002-2.889,0.001-5.176,0.008-6.514c0.039-6.965-2.646-13.524-7.561-18.467C235.295,2.726,228.739,0,221.757,0h-0.573
	c-14.054,0-25.475,10.999-26.002,25.04c-0.061,1.616-0.124,5.015-0.184,9.354c-5.218,3.084-8.736,8.752-8.736,15.24v6.773
	c0,0.987,0.091,1.952,0.247,2.895c-0.02,0.076-0.046,0.149-0.063,0.227c-0.24,1.068-24.068,107.727-26.742,189.567
	c-0.003,0.11-0.005,0.22-0.003,0.33l0.21,18.833c0.001,0.08,0.003,0.161,0.006,0.242c3.512,80.965,26.299,182.949,26.529,183.969
	c0.016,0.073,0.048,0.137,0.066,0.208c-0.159,0.949-0.25,1.92-0.25,2.913v6.773c0,6.49,3.52,12.16,8.741,15.244
	c0.059,4.394,0.12,7.798,0.179,9.35c0.527,14.042,11.948,25.04,26.002,25.04h0.573c6.982,0,13.537-2.726,18.46-7.677
	c4.915-4.943,7.6-11.502,7.561-18.467c-0.007-1.314-0.01-3.603-0.008-6.514c7.333-2.166,12.705-8.951,12.705-16.977v-6.773
	c0-7.992-5.324-14.757-12.609-16.952c0.014-4.394,0.024-7.279,0.024-7.391c0.022-5.638,0.57-10.618,1.677-15.224
	c0.972-4.044-1.52-8.111-5.564-9.083c-4.04-0.964-8.111,1.52-9.083,5.564c-1.382,5.754-2.067,11.865-2.094,18.686
	c0,0.106-0.009,2.691-0.022,6.691h-23.053c-0.009-2.93-0.009-4.929,0.003-5.477c1.065-18.006,4.139-31.494,9.672-42.446
	c7.756-15.353,16.677-22.312,31.453-30.485c1.576-0.872,3.192-1.75,4.832-2.644c15.197-8.27,33.027-17.986,42.056-33.794h20.372
	c-1.508,5.233-3.584,10.069-6.228,14.476c-6.819,11.36-18.317,17.622-30.489,24.252c-5.338,2.908-10.857,5.914-16.124,9.433
	c-3.459,2.311-4.389,6.988-2.077,10.446c1.451,2.173,3.837,3.348,6.269,3.348c1.439,0,2.892-0.412,4.178-1.271
	c4.701-3.141,9.683-5.855,14.959-8.728c13.408-7.302,27.271-14.853,36.201-29.729c4.026-6.709,6.977-14.146,8.862-22.228h0.277
	c10.108,0,18.331-8.224,18.331-18.332v-5.526c0-8.323-5.581-15.356-13.193-17.585c2.831-19.184,1.108-39.352-0.286-50.295
	C346.574,229.166,352.297,222.078,352.297,213.653z M210.236,25.605c0.222-5.912,5.031-10.542,10.949-10.542h0.573
	c2.942,0,5.704,1.148,7.778,3.234c2.066,2.079,3.196,4.835,3.179,7.761c-0.007,1.242-0.01,3.288-0.009,5.867h-22.612
	C210.139,29.129,210.187,26.913,210.236,25.605z M201.327,49.634c0-1.458,1.187-2.645,2.645-2.645h38.794
	c1.458,0,2.645,1.187,2.645,2.645v6.773c0,1.458-1.187,2.645-2.645,2.645h-38.794c-1.458,0-2.645-1.187-2.645-2.645L201.327,49.634
	L201.327,49.634z M229.536,493.702c-2.074,2.086-4.837,3.234-7.778,3.234h-0.573c-5.918,0-10.727-4.631-10.949-10.542
	c-0.047-1.264-0.094-3.482-0.138-6.321h22.609c-0.001,2.594,0.002,4.648,0.008,5.867
	C232.731,488.867,231.602,491.623,229.536,493.702z M242.766,452.948c1.458,0,2.645,1.187,2.645,2.645v6.773
	c0,1.458-1.187,2.645-2.645,2.645h-38.794c-1.458,0-2.645-1.187-2.645-2.645v-6.773c0-1.458,1.187-2.645,2.645-2.645H242.766z
	 M283.813,281.595c-7.613,2.228-13.194,9.262-13.194,17.585v5.526c0,7.157,4.132,13.353,10.127,16.37
	c-9.934,11.801-23.985,17.932-37.159,25.219c-16.681,9.227-28.182,18.219-37.606,36.873c-5.418,10.725-8.801,23.211-10.467,38.745
	c-6.959-35.557-18.174-99.639-20.541-153.945l-0.206-18.545c1.84-55.745,13.699-123.397,20.875-159.985
	c0.744,6.528,1.793,12.488,3.18,18.008c1.014,4.034,5.102,6.484,9.14,5.468c4.034-1.013,6.483-5.105,5.469-9.14
	c-1.883-7.494-3.086-15.997-3.677-25.991c-0.009-0.429-0.011-1.74-0.008-3.668h23.062c0.01,2.95,0.016,4.798,0.017,4.887
	c0.083,21.605,7.185,38.167,22.352,52.123c4.536,4.174,9.611,7.698,14.877,10.887c14.546,8.812,32.657,15.34,41.856,30.667
	c3.082,5.135,5.376,10.865,6.913,17.116c0,0-19.661,0-19.667,0c-0.482,0-8.143-11.872-9.384-13.164
	c-3.797-3.952-8.097-7.395-12.587-10.524c-8.356-5.824-17.487-10.501-26.307-15.39c-7.472-4.134-12.712-7.635-16.99-11.353
	c-3.14-2.728-7.897-2.395-10.626,0.744c-2.728,3.14-2.395,7.897,0.743,10.625c7.705,6.698,15.693,11.062,24.505,15.858
	c12.975,7.062,26.226,14.288,33.77,24.478c-6.816,2.675-11.662,9.303-11.662,17.057v5.526c0,8.425,5.724,15.51,13.48,17.643
	C282.705,242.239,280.981,262.409,283.813,281.595z M337.233,304.707c0,1.802-1.466,3.269-3.268,3.269H288.95
	c-1.802,0-3.268-1.466-3.268-3.269v-5.526c0-1.802,1.466-3.268,3.268-3.268h45.015c1.802,0,3.268,1.466,3.268,3.268V304.707z
	 M299.216,231.985h24.485c1.317,9.996,3.259,30.461,0.279,48.861h-25.042C295.957,262.444,297.899,241.979,299.216,231.985z
	 M337.233,213.653c0,1.802-1.466,3.269-3.268,3.269h-3.762c-0.007,0-0.015-0.001-0.022-0.001h-37.448
	c-0.007,0-0.015,0.001-0.022,0.001h-3.762c-1.802,0-3.268-1.466-3.268-3.269v-5.526c0-1.802,1.466-3.268,3.268-3.268h45.015
	c1.802,0,3.268,1.466,3.268,3.268L337.233,213.653L337.233,213.653z"/>
<g>
</g>
<g>
</g>
<g>
</g>
<g>
</g>
<g>
</g>
<g>
</g>
<g>
</g>
<g>
</g>
<g>
</g>
<g>
</g>
<g>
</g>
<g>
</g>
<g>
</g>
<g>
</g>
<g>
</g>
</svg>
