<?xml version="1.0" encoding="iso-8859-1"?>
<!-- Generator: Adobe Illustrator 19.0.0, SVG Export Plug-In . SVG Version: 6.00 Build 0)  -->
<svg version="1.1" id="Capa_1" xmlns="http://www.w3.org/2000/svg" xmlns:xlink="http://www.w3.org/1999/xlink" x="0px" y="0px"
	 viewBox="0 0 511.999 511.999" style="enable-background:new 0 0 511.999 511.999;" xml:space="preserve">
<g>
	<rect x="111.439" y="153.86" style="fill:#FFDBA9;" width="289.42" height="204.28"/>
	<rect x="38.269" y="153.86" style="fill:#FFDBA9;" width="73.17" height="204.28"/>
</g>
<rect x="87.269" y="153.86" style="fill:#FFC473;" width="24.17" height="204.28"/>
<path style="fill:#B76035;" d="M114.881,153.862H34.83c-2.756,0-4.99-2.234-4.99-4.99v-21.119c0-2.756,2.234-4.99,4.99-4.99h80.051
	c2.756,0,4.99,2.234,4.99,4.99v21.119C119.871,151.628,117.637,153.862,114.881,153.862z"/>
<path style="fill:#A04C27;" d="M114.881,153.862H87.272v-31.099h27.609c2.756,0,4.99,2.234,4.99,4.99v21.119
	C119.871,151.628,117.637,153.862,114.881,153.862z"/>
<rect x="50.019" y="91.06" style="fill:#FF961D;" width="49.664" height="31.1"/>
<rect x="74.856" y="91.06" style="fill:#EF8318;" width="24.832" height="31.1"/>
<path style="fill:#B76035;" d="M57.812,14.083L57.812,14.083c-6.036,5.569-8.97,13.735-7.86,21.872l7.439,54.49h17.464h17.464
	l7.439-54.49c1.111-8.137-1.824-16.303-7.86-21.872l0,0C82.272,5.202,67.439,5.202,57.812,14.083z"/>
<path style="fill:#A04C27;" d="M99.758,35.952l-7.435,54.49h-19.88l7.435-54.49c1.108-8.134-1.826-16.297-7.864-21.866
	c-2.146-1.976-4.551-3.523-7.096-4.621c3.164-1.367,6.557-2.046,9.94-2.046c6.108,0,12.225,2.226,17.036,6.667
	C97.932,19.655,100.866,27.818,99.758,35.952z"/>
<path style="fill:#B76035;" d="M114.881,358.137H34.83c-2.756,0-4.99,2.234-4.99,4.99v21.119c0,2.756,2.234,4.99,4.99,4.99h80.051
	c2.756,0,4.99-2.234,4.99-4.99v-21.119C119.871,360.371,117.637,358.137,114.881,358.137z"/>
<path style="fill:#A04C27;" d="M114.881,358.137H87.272v31.099h27.609c2.756,0,4.99-2.234,4.99-4.99v-21.119
	C119.871,360.371,117.637,358.137,114.881,358.137z"/>
<rect x="50.019" y="389.85" style="fill:#FF961D;" width="49.664" height="31.1"/>
<rect x="74.856" y="389.85" style="fill:#EF8318;" width="24.832" height="31.1"/>
<path style="fill:#B76035;" d="M57.812,497.916L57.812,497.916c-6.036-5.569-8.97-13.735-7.86-21.872l7.439-54.49h17.464h17.464
	l7.439,54.49c1.111,8.137-1.824,16.303-7.86,21.872l0,0C82.272,506.798,67.439,506.798,57.812,497.916z"/>
<path style="fill:#A04C27;" d="M99.758,476.048l-7.435-54.49h-19.88l7.435,54.49c1.108,8.134-1.826,16.297-7.864,21.866
	c-2.146,1.976-4.551,3.523-7.096,4.621c3.164,1.367,6.557,2.046,9.94,2.046c6.108,0,12.225-2.226,17.036-6.667
	C97.932,492.345,100.866,484.181,99.758,476.048z"/>
<rect x="400.559" y="153.86" style="fill:#FFDBA9;" width="73.17" height="204.28"/>
<rect x="449.559" y="153.86" style="fill:#FFC473;" width="24.17" height="204.28"/>
<path style="fill:#B76035;" d="M477.168,153.862h-80.051c-2.756,0-4.99-2.234-4.99-4.99v-21.119c0-2.756,2.234-4.99,4.99-4.99
	h80.051c2.756,0,4.99,2.234,4.99,4.99v21.119C482.158,151.628,479.924,153.862,477.168,153.862z"/>
<path style="fill:#A04C27;" d="M477.168,153.862h-27.609v-31.099h27.609c2.756,0,4.99,2.234,4.99,4.99v21.119
	C482.158,151.628,479.924,153.862,477.168,153.862z"/>
<rect x="412.309" y="91.06" style="fill:#FF961D;" width="49.664" height="31.1"/>
<rect x="437.139" y="91.06" style="fill:#EF8318;" width="24.832" height="31.1"/>
<path style="fill:#B76035;" d="M420.099,14.083L420.099,14.083c-6.036,5.569-8.97,13.735-7.86,21.872l7.439,54.49h17.464h17.464
	l7.439-54.49c1.111-8.137-1.824-16.303-7.86-21.872l0,0C444.559,5.202,429.726,5.202,420.099,14.083z"/>
<path style="fill:#A04C27;" d="M462.045,35.952l-7.435,54.49h-19.88l7.435-54.49c1.108-8.134-1.826-16.297-7.864-21.866
	c-2.146-1.976-4.551-3.523-7.096-4.621c3.164-1.367,6.557-2.046,9.94-2.046c6.108,0,12.225,2.226,17.036,6.667
	C460.219,19.655,463.153,27.818,462.045,35.952z"/>
<path style="fill:#B76035;" d="M477.168,358.137h-80.051c-2.756,0-4.99,2.234-4.99,4.99v21.119c0,2.756,2.234,4.99,4.99,4.99h80.051
	c2.756,0,4.99-2.234,4.99-4.99v-21.119C482.158,360.371,479.924,358.137,477.168,358.137z"/>
<path style="fill:#A04C27;" d="M477.168,358.137h-27.609v31.099h27.609c2.756,0,4.99-2.234,4.99-4.99v-21.119
	C482.158,360.371,479.924,358.137,477.168,358.137z"/>
<rect x="412.309" y="389.85" style="fill:#FF961D;" width="49.664" height="31.1"/>
<rect x="437.139" y="389.85" style="fill:#EF8318;" width="24.832" height="31.1"/>
<path style="fill:#B76035;" d="M420.099,497.916L420.099,497.916c-6.036-5.569-8.97-13.735-7.86-21.872l7.439-54.49h17.464h17.464
	l7.439,54.49c1.111,8.137-1.824,16.303-7.86,21.872l0,0C444.559,506.798,429.726,506.798,420.099,497.916z"/>
<path style="fill:#A04C27;" d="M462.045,476.048l-7.435-54.49h-19.88l7.435,54.49c1.108,8.134-1.826,16.297-7.864,21.866
	c-2.146,1.976-4.551,3.523-7.096,4.621c3.164,1.367,6.557,2.046,9.94,2.046c6.108,0,12.225-2.226,17.036-6.667
	C460.219,492.345,463.153,484.181,462.045,476.048z"/>
<path d="M473.729,209.094c4.134,0,7.485-3.351,7.485-7.485v-40.948c4.896-1.686,8.429-6.327,8.429-11.788v-21.119
	c0-6.879-5.596-12.475-12.475-12.475h-7.709V91.056c0-3.755-2.768-6.854-6.372-7.393l6.374-46.694
	c1.44-10.553-2.373-21.164-10.201-28.386c-12.402-11.443-31.834-11.444-44.236,0V8.582c-7.828,7.223-11.642,17.834-10.201,28.386
	l6.374,46.694c-3.605,0.538-6.372,3.638-6.372,7.393v24.223h-7.708c-6.879,0-12.475,5.596-12.475,12.475v18.624H127.356v-18.624
	c0-6.879-5.596-12.475-12.475-12.475h-7.708V91.056c0-3.755-2.768-6.855-6.372-7.393l6.374-46.694
	c1.441-10.552-2.373-21.164-10.2-28.385C84.572-2.861,65.14-2.861,52.737,8.582c0,0,0,0,0,0.001
	c-7.827,7.222-11.64,17.832-10.2,28.385l6.374,46.694c-3.604,0.539-6.372,3.638-6.372,7.393v24.223H34.83
	c-6.879,0-12.475,5.596-12.475,12.475v21.119c0,5.461,3.533,10.103,8.429,11.788v190.678c-4.896,1.686-8.429,6.327-8.429,11.788
	v21.119c0,6.879,5.596,12.475,12.475,12.475h7.709v24.223c0,3.755,2.768,6.855,6.372,7.393l-6.374,46.694
	c-1.44,10.553,2.373,21.164,10.2,28.385c0,0.001,0,0.001,0,0.001c6.202,5.721,14.16,8.582,22.119,8.582s15.917-2.861,22.118-8.582
	c7.828-7.223,11.642-17.834,10.201-28.386l-6.374-46.694c3.605-0.538,6.372-3.638,6.372-7.393V396.72h7.708
	c6.879,0,12.475-5.596,12.475-12.475v-18.624h142.615c4.134,0,7.485-3.351,7.485-7.485s-3.351-7.485-7.485-7.485H118.927V161.347
	h274.144v189.305h-77.192c-4.134,0-7.485,3.351-7.485,7.485s3.351,7.485,7.485,7.485h68.764v18.624
	c0,6.879,5.596,12.475,12.475,12.475h7.708v24.223c0,3.755,2.768,6.855,6.372,7.393l-6.374,46.694
	c-1.441,10.552,2.373,21.164,10.2,28.385c6.202,5.723,14.159,8.583,22.119,8.583c7.958-0.001,15.918-2.861,22.119-8.583
	c7.827-7.222,11.64-17.832,10.2-28.385l-6.374-46.694c3.604-0.539,6.372-3.638,6.372-7.393v-24.223h7.709
	c6.879,0,12.475-5.596,12.475-12.475v-21.119c0-5.461-3.533-10.103-8.429-11.788V248.182c0-4.134-3.351-7.485-7.485-7.485
	s-7.485,3.351-7.485,7.485v102.47h-57.899V161.347h57.899v40.262C466.244,205.743,469.595,209.094,473.729,209.094z M62.888,19.585
	c6.71-6.193,17.224-6.193,23.935,0c4.235,3.907,6.298,9.649,5.519,15.358l-6.555,48.018H63.924l-6.555-48.018
	C56.59,29.234,58.653,23.492,62.888,19.585z M92.203,98.541v16.129H57.509V98.541H92.203z M86.823,492.414
	c-6.71,6.194-17.225,6.193-23.935,0v0.001c-4.235-3.908-6.298-9.65-5.519-15.359l6.555-48.018h21.863l6.555,48.018
	C93.122,482.766,91.059,488.507,86.823,492.414z M57.509,413.459V397.33h34.694v16.129L57.509,413.459L57.509,413.459z
	 M112.386,381.751H37.325v-16.129h0.944h73.173h0.944C112.386,365.622,112.386,381.751,112.386,381.751z M45.754,350.652V161.347
	h58.203v189.305L45.754,350.652L45.754,350.652z M112.386,146.377h-0.944H38.269h-0.944v-16.129h75.061
	C112.386,130.248,112.386,146.377,112.386,146.377z M425.175,19.585L425.175,19.585c6.712-6.192,17.225-6.191,23.935-0.001
	c4.235,3.908,6.298,9.65,5.519,15.359l-6.555,48.018h-21.863l-6.555-48.018C418.876,29.234,420.939,23.492,425.175,19.585z
	 M454.489,98.541v16.129h-34.694V98.541H454.489z M449.11,492.414c-6.71,6.192-17.225,6.194-23.935,0l0,0
	c-4.235-3.907-6.298-9.649-5.519-15.358l6.555-48.018h21.863l6.555,48.018C455.408,482.766,453.345,488.507,449.11,492.414z
	 M419.795,413.459V397.33h34.694v16.129L419.795,413.459L419.795,413.459z M473.729,365.622h0.944v16.129h-75.061v-16.129h0.944
	h0.304H473.729z M400.86,146.377h-0.304h-0.944v-16.129h75.061v16.129h-0.944H400.86z"/>
<path d="M259.559,206.102c-17.807,0-32.294,14.487-32.294,32.293c0,4.134,3.351,7.485,7.485,7.485h49.617
	c4.134,0,7.485-3.351,7.485-7.485C291.852,220.589,277.366,206.102,259.559,206.102z M243.937,230.911
	c2.798-5.816,8.749-9.839,15.622-9.839s12.824,4.023,15.621,9.839H243.937z"/>
<path d="M316.836,306.814c0,4.134,3.351,7.485,7.485,7.485h31.37c4.134,0,7.485-3.351,7.485-7.485v-31.371
	c0-4.134-3.351-7.485-7.485-7.485h-31.37c-4.134,0-7.485,3.351-7.485,7.485V306.814z M331.806,282.928h16.4v16.401h-16.4V282.928z"
	/>
<path d="M203.636,207.951c-3.79-1.647-8.2,0.086-9.85,3.876l-5.636,12.948l-5.016-4.406c-2.743-2.409-6.823-2.487-9.658-0.187
	l-5.793,4.702l-4.968-12.781c-1.497-3.854-5.833-5.765-9.689-4.265c-3.853,1.497-5.762,5.835-4.265,9.688l8.689,22.354
	c0.867,2.23,2.747,3.911,5.059,4.524c2.313,0.612,4.779,0.083,6.636-1.425l8.858-7.192l7.975,7.005
	c1.38,1.212,3.14,1.861,4.94,1.861c0.543,0,1.091-0.059,1.631-0.18c2.333-0.521,4.278-2.126,5.232-4.318l9.73-22.354
	C209.161,214.011,207.427,209.601,203.636,207.951z"/>
<path d="M177.283,291.428c4.134,0,7.485-3.351,7.485-7.485V273.88c0-4.134-3.351-7.485-7.485-7.485h-17.382
	c-4.134,0-7.485,3.351-7.485,7.485v32.934c0,4.134,3.351,7.485,7.485,7.485h38.423c4.134,0,7.485-3.351,7.485-7.485V273.88
	c0-4.134-3.351-7.485-7.485-7.485s-7.485,3.351-7.485,7.485v25.449h-23.453v-17.964h2.412v2.578
	C169.798,288.077,173.149,291.428,177.283,291.428z"/>
<path d="M334.291,231.448c4.134,0,7.485-3.351,7.485-7.485s-3.351-7.485-7.485-7.485h-8.98c-4.134,0-7.485,3.351-7.485,7.485v15.512
	c0,4.134,3.351,7.485,7.485,7.485h29.39c4.134,0,7.485-3.351,7.485-7.485v-34.288c0-4.134-3.351-7.485-7.485-7.485h-29.39
	c-4.134,0-7.485,3.351-7.485,7.485s3.351,7.485,7.485,7.485h21.905v19.319h-14.42v-0.542L334.291,231.448L334.291,231.448z"/>
<path d="M266.041,270.137c-1.337-2.316-3.808-3.743-6.482-3.743c-2.674,0-5.145,1.427-6.482,3.743l-19.015,32.934
	c-1.337,2.316-1.337,5.169,0,7.485s3.808,3.742,6.482,3.742h38.029c2.674,0,5.145-1.427,6.482-3.742s1.337-5.169,0-7.485
	L266.041,270.137z M253.509,299.329l6.05-10.479l6.05,10.479H253.509z"/>
<g>
</g>
<g>
</g>
<g>
</g>
<g>
</g>
<g>
</g>
<g>
</g>
<g>
</g>
<g>
</g>
<g>
</g>
<g>
</g>
<g>
</g>
<g>
</g>
<g>
</g>
<g>
</g>
<g>
</g>
</svg>
