<?xml version="1.0" encoding="iso-8859-1"?>
<!-- Generator: Adobe Illustrator 19.0.0, SVG Export Plug-In . SVG Version: 6.00 Build 0)  -->
<svg version="1.1" id="Capa_1" xmlns="http://www.w3.org/2000/svg" xmlns:xlink="http://www.w3.org/1999/xlink" x="0px" y="0px"
	 viewBox="0 0 511.999 511.999" style="enable-background:new 0 0 511.999 511.999;" xml:space="preserve">
<rect x="223.287" y="306.841" style="fill:#B76035;" width="65.739" height="124.21"/>
<rect x="261.224" y="306.841" style="fill:#A04C27;" width="27.801" height="124.21"/>
<polygon style="fill:#00AD95;" points="332.89,306.845 256.16,264.173 179.425,306.845 "/>
<path style="fill:#B7C1CA;" d="M179.391,306.845c0,0-12.36-243.622,76.764-299.369v256.698L179.391,306.845z"/>
<path style="fill:#6B6C8A;" d="M332.615,306.845c0,0,12.36-243.622-76.764-299.369v256.698L332.615,306.845z"/>
<path style="fill:#595B75;" d="M332.612,306.85l-23.896-13.28c0.708-50.537-2.116-192.757-52.861-258.399V7.473
	C344.974,63.228,332.612,306.85,332.612,306.85z"/>
<circle style="fill:#B76035;" cx="256.16" cy="452.906" r="51.615"/>
<path style="fill:#A04C27;" d="M307.778,452.902c0,28.506-23.108,51.614-51.614,51.614c-22.45,0-41.557-14.328-48.661-34.343
	c9.04,7.792,20.813,12.502,33.684,12.502c28.506,0,51.614-23.108,51.614-51.614c0-6.066-1.048-11.894-2.974-17.291
	C300.814,423.238,307.778,437.257,307.778,452.902z"/>
<circle style="fill:#FFDBA9;" cx="256.16" cy="452.906" r="21.841"/>
<path style="fill:#FFC473;" d="M278.005,452.902c0,12.062-9.788,21.84-21.841,21.84c-9.798,0-18.08-6.446-20.853-15.326
	c2.944,1.496,6.286,2.334,9.818,2.334c12.063,0,21.841-9.778,21.841-21.841c0-2.264-0.35-4.46-0.988-6.516
	C273.115,436.988,278.005,444.371,278.005,452.902z"/>
<path d="M335.086,177.185c-1.94-16.356-4.434-32.657-7.742-48.795c-5.781-28.201-13.884-56.526-27.674-81.947
	c-5.378-9.915-11.687-19.382-19.254-27.768c-3.4-3.768-7.051-7.313-10.965-10.545c-1.88-1.552-3.818-3.035-5.814-4.433
	c-1.784-1.25-5.398-3.618-7.513-3.692c-0.042-0.001-0.083-0.004-0.125-0.005c-0.034,0.001-0.068,0.003-0.102,0.004
	c-2.525,0.09-3.425,0.945-5.367,2.224c-36.439,23.97-60.742,79.149-72.232,164.107c-0.554,4.095,2.317,7.864,6.413,8.418
	c4.098,0.551,7.865-2.318,8.418-6.414c6.833-50.522,21.93-114.196,55.24-145.394v236.996l-61.886,34.401
	c-0.335-15.666-0.451-45.001,1.913-79.031l0.174-2.443c0.294-4.121-2.81-7.701-6.932-7.996c-4.111-0.287-7.702,2.81-7.996,6.933
	l-0.175,2.455c-3.578,51.516-1.568,92.553-1.547,92.962c0.131,2.581,1.584,4.911,3.844,6.165c0.381,0.211,0.777,0.374,1.181,0.513
	c0.029,0.01,0.059,0.019,0.089,0.029c0.338,0.113,0.679,0.2,1.026,0.263c0.061,0.011,0.121,0.025,0.183,0.035
	c0.382,0.06,0.766,0.1,1.185,0.1h36.381v95.453c-11.524,10.791-18.745,26.123-18.745,43.119c0,32.587,26.511,59.097,59.097,59.097
	s59.097-26.511,59.097-59.097c0-16.996-7.222-32.328-18.746-43.119v-31.561c0-4.133-3.35-7.484-7.484-7.484
	c-4.133,0-7.484,3.35-7.484,7.484v21.324c-7.696-3.676-16.304-5.741-25.386-5.741c-9.083,0-17.69,2.064-25.386,5.741V314.33
	c0,0,25.383,0,25.386,0h25.386v17.995c0,4.133,3.35,7.484,7.484,7.484c4.133,0,7.484-3.35,7.484-7.484V314.33h36.378
	c3.409,0,6.388-2.304,7.244-5.605c0.309-1.191,0.304-2.399,0.043-3.54C340.616,293.97,342.3,238.007,335.086,177.185z
	 M256.16,408.769c24.333,0,44.131,19.798,44.131,44.131c0,24.333-19.798,44.131-44.131,44.131
	c-24.334,0-44.131-19.798-44.131-44.131C212.028,428.566,231.825,408.769,256.16,408.769z M248.673,299.361H223.29h-15.012
	l40.394-22.465L248.673,299.361L248.673,299.361z M289.028,299.361h-25.386v-22.296l40.109,22.296L289.028,299.361L289.028,299.361z
	 M325.525,294.187l-61.886-34.416V22.936c35.007,32.735,50.084,101.338,56.562,155.817
	C325.997,227.498,325.967,273.087,325.525,294.187z"/>
<path d="M256.16,482.225c16.17,0,29.324-13.155,29.324-29.324c0-16.17-13.155-29.325-29.324-29.325s-29.324,13.155-29.324,29.325
	C226.835,469.07,239.99,482.225,256.16,482.225z M256.16,438.542c7.917,0,14.358,6.442,14.358,14.359
	c0,7.917-6.441,14.358-14.358,14.358c-7.917,0-14.358-6.441-14.358-14.358C241.802,444.984,248.242,438.542,256.16,438.542z"/>
<g>
</g>
<g>
</g>
<g>
</g>
<g>
</g>
<g>
</g>
<g>
</g>
<g>
</g>
<g>
</g>
<g>
</g>
<g>
</g>
<g>
</g>
<g>
</g>
<g>
</g>
<g>
</g>
<g>
</g>
</svg>
