<?xml version="1.0" encoding="iso-8859-1"?>
<!-- Generator: Adobe Illustrator 19.0.0, SVG Export Plug-In . SVG Version: 6.00 Build 0)  -->
<svg version="1.1" id="Capa_1" xmlns="http://www.w3.org/2000/svg" xmlns:xlink="http://www.w3.org/1999/xlink" x="0px" y="0px"
	 viewBox="0 0 512.001 512.001" style="enable-background:new 0 0 512.001 512.001;" xml:space="preserve">
<g>
	<rect x="270.914" y="465.328" style="fill:#FF961D;" width="57.965" height="33.566"/>
	<rect x="270.914" y="385.639" style="fill:#FF961D;" width="57.965" height="33.566"/>
</g>
<g>
	<rect x="302.68" y="385.639" style="fill:#EF8318;" width="26.207" height="33.566"/>
	<rect x="302.68" y="465.328" style="fill:#EF8318;" width="26.207" height="33.566"/>
</g>
<path style="fill:#FF961D;" d="M270.916,498.895h-53.048c-2.761,0-4.999-2.239-4.999-4.999V390.643c0-2.761,2.239-4.999,4.999-4.999
	h53.048V498.895z"/>
<rect x="250.407" y="385.639" style="fill:#EF8318;" width="20.51" height="113.255"/>
<rect x="224.87" y="183.566" style="fill:#FFDBA9;" width="34.055" height="202.083"/>
<rect x="241.898" y="183.566" style="fill:#FFC473;" width="17.028" height="202.083"/>
<g>
	<circle style="fill:#FF961D;" cx="342.395" cy="482.116" r="22.39"/>
	<circle style="fill:#FF961D;" cx="342.395" cy="402.427" r="22.39"/>
</g>
<g>
	<path style="fill:#EF8318;" d="M364.787,482.107c0,12.368-10.029,22.397-22.387,22.397c-7.579,0-14.278-3.77-18.318-9.529
		c0.33,0.02,0.66,0.03,0.99,0.03c12.358,0,22.387-10.029,22.387-22.397c0-4.789-1.51-9.219-4.079-12.858
		C355.288,460.26,364.787,470.079,364.787,482.107z"/>
	<path style="fill:#EF8318;" d="M364.787,402.427c0,12.368-10.029,22.387-22.387,22.387c-7.579,0-14.278-3.76-18.318-9.529
		c0.33,0.02,0.66,0.03,0.99,0.03c12.358,0,22.387-10.019,22.387-22.387c0-4.789-1.51-9.219-4.079-12.858
		C355.288,380.581,364.787,390.389,364.787,402.427z"/>
</g>
<path style="fill:#00AD95;" d="M295.318,83.247c2.46-6.897,3.625-14.409,3.192-22.246c-1.593-28.858-25.114-52.134-53.986-53.439
	c-32.515-1.47-59.337,24.456-59.337,56.646c0,6.721,1.172,13.167,3.32,19.148c0.965,2.687-0.549,5.67-3.299,6.437
	c-25.434,7.096-43.662,31.463-41.215,59.673c2.372,27.333,24.444,49.248,51.791,51.45c16.499,1.329,31.654-4.419,42.783-14.524
	c1.883-1.709,4.766-1.709,6.649,0c11.13,10.105,26.285,15.853,42.783,14.524c27.347-2.203,49.419-24.117,51.791-51.45
	c2.448-28.209-15.779-52.576-41.212-59.673C295.786,89.015,294.344,85.979,295.318,83.247z"/>
<path style="fill:#039377;" d="M339.79,149.47c-1.91,21.997-16.588,40.495-36.505,48.014c9.199-9.159,15.258-21.447,16.448-35.065
	c2.45-28.216-15.778-52.583-41.215-59.682c-2.79-0.78-4.229-3.809-3.26-6.539c2.46-6.899,3.63-14.408,3.19-22.247
	c-1.59-28.856-25.107-52.133-53.983-53.443c-7.999-0.36-15.658,0.94-22.647,3.58c10.829-10.819,26.017-17.278,42.704-16.528
	c28.876,1.31,52.393,24.587,53.983,53.443c0.44,7.839-0.73,15.348-3.19,22.247c-0.97,2.73,0.47,5.769,3.26,6.549
	C324.012,96.888,342.24,121.255,339.79,149.47z"/>
<circle style="fill:#FFDBA9;" cx="241.898" cy="63.402" r="20.629"/>
<path style="fill:#FFC473;" d="M262.52,63.403c0,11.388-9.239,20.627-20.627,20.627c-9.729,0-17.888-6.739-20.057-15.818
	c2.39,0.97,5.009,1.51,7.749,1.51c11.398,0,20.637-9.239,20.637-20.627c0-1.66-0.2-3.27-0.57-4.809
	C257.201,47.355,262.52,54.753,262.52,63.403z"/>
<path d="M342.395,452.223c-6.486,0-12.491,2.084-17.396,5.606h-46.584v-31.121h46.584c4.904,3.524,10.91,5.606,17.396,5.606
	c16.48,0,29.889-13.408,29.889-29.889s-13.408-29.889-29.889-29.889c-6.486,0-12.491,2.084-17.396,5.606h-58.581v-70.817
	c0-4.142-3.357-7.499-7.499-7.499s-7.499,3.357-7.499,7.499v70.817h-19.054V200.136c3.335-1.921,6.526-4.143,9.527-6.685
	c3.002,2.543,6.19,4.774,9.527,6.696V262c0,4.142,3.357,7.499,7.499,7.499s7.499-3.357,7.499-7.499v-55.618
	c5.424,1.471,11.069,2.227,16.826,2.227c1.775,0,3.564-0.072,5.358-0.217c14.992-1.208,29.178-7.762,39.944-18.456
	c10.77-10.696,17.416-24.838,18.717-39.821c2.599-29.94-15.815-57.581-44.074-66.762c2.294-7.335,3.238-14.98,2.809-22.767
	c-0.873-15.816-7.611-30.722-18.975-41.969C275.66,7.373,260.688,0.786,244.863,0.07c-17.759-0.815-34.535,5.492-47.327,17.719
	c-12.799,12.233-19.848,28.72-19.848,46.42c0,6.537,0.978,12.965,2.91,19.145c-18.644,6.067-33.64,20.462-40.421,38.965
	c-1.426,3.889,0.572,8.196,4.46,9.622c3.889,1.428,8.196-0.572,9.622-4.46c5.436-14.833,17.76-26.222,32.966-30.464
	c3.3-0.921,6.098-3.202,7.677-6.258c1.587-3.07,1.828-6.691,0.663-9.937c-1.91-5.32-2.879-10.911-2.879-16.614
	c0-13.565,5.402-26.201,15.213-35.577c9.804-9.37,22.702-14.196,36.286-13.578c24.892,1.126,45.465,21.489,46.838,46.361
	c0.366,6.641-0.564,13.139-2.768,19.313c-1.178,3.303-0.934,6.974,0.672,10.072c1.572,3.035,4.354,5.302,7.638,6.218
	c22.772,6.354,37.81,28.14,35.757,51.802c-2.044,23.542-21.356,42.725-44.924,44.624c-13.776,1.114-26.967-3.366-37.139-12.602
	c-4.767-4.326-11.958-4.328-16.731,0.001c-10.172,9.236-23.369,13.713-37.14,12.602c-16.668-1.343-31.854-11.477-39.635-26.45
	c-1.91-3.677-6.439-5.105-10.112-3.197c-3.676,1.91-5.106,6.437-3.197,10.112c10.142,19.517,29.967,32.731,51.738,34.484
	c7.615,0.613,15.089-0.089,22.185-2.013v171.791c-6.658,0.266-11.997,5.75-11.997,12.473v103.252
	c0,6.892,5.606,12.498,12.498,12.498H325c4.904,3.523,10.91,5.606,17.396,5.606c16.48,0,29.889-13.408,29.889-29.889
	S358.876,452.223,342.395,452.223z M357.286,402.427c0,8.211-6.68,14.891-14.891,14.891s-14.892-6.68-14.892-14.891
	s6.681-14.891,14.892-14.891S357.286,394.216,357.286,402.427z M278.415,393.143h35.573c-0.958,2.925-1.484,6.043-1.484,9.284
	s0.525,6.359,1.484,9.284h-35.573V393.143z M263.417,491.396h-43.049v-98.253h43.049V491.396z M278.415,472.828h35.573
	c-0.958,2.925-1.484,6.043-1.484,9.284s0.525,6.359,1.484,9.284h-35.573V472.828z M342.395,497.002
	c-8.211,0-14.892-6.68-14.892-14.891s6.681-14.891,14.892-14.891s14.891,6.68,14.891,14.891S350.606,497.002,342.395,497.002z"/>
<path d="M270.021,63.4c0-15.51-12.618-28.128-28.128-28.128c-15.511,0-28.129,12.618-28.129,28.128
	c0,15.511,12.618,28.129,28.129,28.129C257.403,91.529,270.021,78.911,270.021,63.4z M228.762,63.4c0-7.24,5.891-13.13,13.131-13.13
	s13.13,5.89,13.13,13.13s-5.89,13.131-13.13,13.131S228.762,70.64,228.762,63.4z"/>
<g>
</g>
<g>
</g>
<g>
</g>
<g>
</g>
<g>
</g>
<g>
</g>
<g>
</g>
<g>
</g>
<g>
</g>
<g>
</g>
<g>
</g>
<g>
</g>
<g>
</g>
<g>
</g>
<g>
</g>
</svg>
