<?xml version="1.0" encoding="iso-8859-1"?>
<!-- Generator: Adobe Illustrator 19.0.0, SVG Export Plug-In . SVG Version: 6.00 Build 0)  -->
<svg version="1.1" id="Capa_1" xmlns="http://www.w3.org/2000/svg" xmlns:xlink="http://www.w3.org/1999/xlink" x="0px" y="0px"
	 viewBox="0 0 511.999 511.999" style="enable-background:new 0 0 511.999 511.999;" xml:space="preserve">
<g>
	<path style="fill:#B76035;" d="M38.811,324.788c-17.742-15.774-30.196-36.886-31.218-58.343
		c-1.343-28.281,13.591-55.649,30.991-76.89c19.266-23.519,37.87-48.514,45.646-77.237c6.028-22.263,4.355-47.363-7.331-67.091
		c-2.335-3.942,1.853-8.509,5.928-6.416c14.627,7.512,28.726,15.846,40.647,26.686c16.957,15.419,29.167,36.941,27.098,58.978
		c-2.103,22.399-17.999,41.154-30.033,60.617c-12.034,19.461-20.314,44.729-7.355,63.665c7.286,10.645,19.864,15.254,30.26,22.051
		c20.588,13.461,25.588,29.751,12.636,50.707C126.282,369.73,74.842,356.821,38.811,324.788z"/>
	<path style="fill:#B76035;" d="M473.19,324.788c17.742-15.774,30.196-36.886,31.218-58.343
		c1.343-28.281-13.591-55.649-30.991-76.89c-19.266-23.519-37.87-48.514-45.646-77.237c-6.028-22.263-4.355-47.363,7.331-67.091
		c2.335-3.942-1.853-8.509-5.928-6.416c-14.627,7.512-28.726,15.846-40.647,26.686c-16.958,15.419-29.167,36.941-27.098,58.978
		c2.103,22.399,17.999,41.154,30.033,60.617c12.034,19.461,20.314,44.729,7.355,63.665c-7.286,10.645-19.864,15.254-30.26,22.051
		c-20.588,13.461-25.588,29.751-12.636,50.707C385.719,369.73,437.159,356.821,473.19,324.788z"/>
</g>
<g>
	<path style="fill:#A04C27;" d="M504.411,266.446c-1.021,21.461-13.483,42.571-31.22,58.347
		c-19.659,17.477-43.913,29.258-66.735,28.518c12.512-4.645,24.734-11.882,35.765-20.76c19.239-15.495,33.262-36.816,35.404-59.067
		c2.833-29.329-11.301-58.537-28.318-81.499c-18.828-25.425-36.906-52.351-43.532-82.6c-4.454-20.32-2.783-42.561,6.296-61.099
		c5.545-3.363,11.281-6.486,17.107-9.469c4.074-2.102,8.258,2.472,5.926,6.416c-11.691,19.719-13.363,44.824-7.337,67.085
		c7.778,28.728,26.386,53.722,45.654,77.235C490.818,210.792,505.753,238.169,504.411,266.446z"/>
	<path style="fill:#A04C27;" d="M7.591,266.446c1.021,21.461,13.483,42.571,31.22,58.347c19.659,17.477,43.913,29.258,66.735,28.518
		c-12.512-4.645-24.734-11.882-35.765-20.76c-19.239-15.495-33.262-36.816-35.404-59.067c-2.833-29.329,11.301-58.537,28.318-81.499
		c18.828-25.425,36.906-52.351,43.532-82.6c4.454-20.32,2.783-42.561-6.296-61.099c-5.545-3.363-11.281-6.486-17.107-9.469
		c-4.074-2.102-8.258,2.472-5.926,6.416c11.691,19.719,13.363,44.824,7.337,67.085c-7.778,28.728-26.386,53.722-45.654,77.235
		C21.184,210.792,6.25,238.169,7.591,266.446z"/>
</g>
<path style="fill:#3777D3;" d="M441.641,473.708H70.359c-2.764,0-5.005-2.241-5.005-5.005v-76.82c0-2.764,2.241-5.005,5.005-5.005
	h371.282c2.764,0,5.005,2.241,5.005,5.005v76.82C446.646,471.467,444.405,473.708,441.641,473.708z"/>
<path style="fill:#2468BA;" d="M441.641,473.708h-25.859v-86.829h25.859c2.764,0,5.005,2.241,5.005,5.005v76.82
	C446.646,471.467,444.405,473.708,441.641,473.708z"/>
<path style="fill:#FFDBA9;" d="M96.218,386.878c0-88.245,71.537-159.781,159.781-159.781s159.781,71.537,159.781,159.781H96.218z"/>
<path style="fill:#FFC473;" d="M415.785,386.883h-28.638c0-83.301-67.526-150.827-150.827-150.827
	c-21.611,0-42.161,4.544-60.749,12.732c23.623-13.793,51.1-21.691,80.428-21.691C344.246,227.098,415.785,298.638,415.785,386.883z"
	/>
<path style="fill:#3777D3;" d="M294.846,386.878h-77.692V228.107c0-12.597,10.212-22.809,22.809-22.809h32.072
	c12.597,0,22.809,10.212,22.809,22.809v158.771H294.846z"/>
<path style="fill:#2468BA;" d="M294.848,228.109v158.774h-24.254V228.109c0-12.602-10.21-22.812-22.812-22.812h24.254
	C284.638,205.297,294.848,215.507,294.848,228.109z"/>
<path d="M479.224,184.798c-17.382-21.22-36.568-46.223-44.207-74.441c-5.848-21.599-3.4-44.516,6.543-61.303
	c2.783-4.697,2.145-10.516-1.588-14.481c-3.701-3.933-9.421-4.909-14.23-2.44c-12.497,6.419-28.597,15.38-42.268,27.81
	c-20.872,18.977-31.633,42.755-29.522,65.234c1.836,19.561,12.747,35.963,23.3,51.823c2.632,3.955,5.353,8.045,7.823,12.039
	c19.497,31.533,11.771,49.302,7.544,55.477c-4.295,6.277-11.36,10.257-18.837,14.471c-1.997,1.124-4.036,2.281-6.059,3.496
	c-18.553-16.677-40.844-29.271-65.444-36.364c-1.029-15.792-14.197-28.328-30.244-28.328h-32.072
	c-16.045,0-29.21,12.531-30.244,28.319c-24.603,7.093-46.893,19.692-65.447,36.373c-2.023-1.215-4.061-2.371-6.057-3.496
	c-7.478-4.213-14.542-8.194-18.837-14.469c-4.226-6.177-11.952-23.946,7.545-55.478c2.47-3.995,5.191-8.085,7.823-12.04
	c1.043-1.566,2.085-3.135,3.121-4.706c2.28-3.463,1.321-8.119-2.142-10.399c-3.462-2.281-8.119-1.322-10.399,2.141
	c-1.022,1.553-2.052,3.101-3.081,4.648c-2.699,4.058-5.49,8.253-8.092,12.46c-23.268,37.629-14.476,61.169-7.165,71.854
	c6.27,9.161,15.614,14.425,23.857,19.071c0.795,0.448,1.577,0.889,2.348,1.328c-18.485,19.988-32.16,44.483-39.179,71.629
	c-16.433-2.623-34.25-11.651-50.217-25.847c-17.373-15.445-27.837-34.796-28.708-53.088c-1.336-28.131,15.196-54.56,29.299-71.777
	c18.368-22.422,38.669-48.947,47.086-80.033c6.058-22.373,4.641-45.312-3.756-64.381c9.969,5.482,21.123,12.44,30.704,21.152
	c17.091,15.539,26.315,35.249,24.674,52.722c-0.387,4.128,2.646,7.789,6.774,8.176c4.129,0.389,7.789-2.645,8.176-6.773
	c2.11-22.48-8.651-46.257-29.523-65.234c-13.67-12.43-29.769-21.391-42.268-27.81c-4.811-2.468-10.528-1.488-14.229,2.44
	c-3.733,3.965-4.37,9.785-1.588,14.481c9.946,16.788,12.391,39.707,6.544,61.304c-7.641,28.221-26.825,53.224-44.208,74.441
	C17.003,204.054-1.47,233.911,0.093,266.805c1.063,22.304,13.356,45.483,33.73,63.597c18.106,16.097,38.031,26.224,57.091,29.388
	c-1.049,6.415-1.739,12.949-2.033,19.585H70.359c-6.9,0-12.512,5.612-12.512,12.512v76.819c0,6.9,5.612,12.512,12.512,12.512H441.64
	c6.9,0,12.512-5.612,12.512-12.512v-76.819c0-6.9-5.612-12.512-12.512-12.512h-18.521c-0.294-6.634-0.983-13.169-2.032-19.583
	c19.06-3.164,38.986-13.295,57.091-29.39c20.373-18.113,32.667-41.292,33.729-63.598
	C513.469,233.907,494.996,204.052,479.224,184.798z M209.647,241.823v41.199c0,4.147,3.361,7.507,7.507,7.507
	s7.507-3.36,7.507-7.507v-54.914c0-8.438,6.865-15.302,15.303-15.302h32.072c8.438,0,15.302,6.864,15.302,15.302v151.264h-62.677
	V329.4c0-4.147-3.361-7.507-7.507-7.507s-7.507,3.36-7.507,7.507v49.972H103.908C107.055,314.846,150.556,260.749,209.647,241.823z
	 M439.138,466.201H72.862v-71.814h366.276V466.201z M302.353,379.371V241.828c59.09,18.926,102.592,73.019,105.739,137.543H302.353z
	 M496.91,266.088c-0.872,18.294-11.335,37.645-28.709,53.09c-15.97,14.198-33.782,23.211-50.219,25.829
	c-7.021-27.138-20.705-51.621-39.189-71.605c0.776-0.441,1.56-0.885,2.36-1.334c8.243-4.646,17.587-9.91,23.858-19.073
	c7.311-10.683,16.102-34.223-7.165-71.854c-2.603-4.206-5.393-8.402-8.093-12.459c-9.961-14.972-19.37-29.113-20.852-44.91
	c-1.64-17.473,7.584-37.182,24.675-52.722c9.58-8.711,20.734-15.669,30.703-21.151c-8.397,19.069-9.814,42.007-3.756,64.38
	c8.414,31.083,28.716,57.609,47.085,80.033C481.713,211.53,498.245,237.959,496.91,266.088z"/>
<g>
</g>
<g>
</g>
<g>
</g>
<g>
</g>
<g>
</g>
<g>
</g>
<g>
</g>
<g>
</g>
<g>
</g>
<g>
</g>
<g>
</g>
<g>
</g>
<g>
</g>
<g>
</g>
<g>
</g>
</svg>
