<?xml version="1.0" encoding="iso-8859-1"?>
<!-- Generator: Adobe Illustrator 19.0.0, SVG Export Plug-In . SVG Version: 6.00 Build 0)  -->
<svg version="1.1" id="Capa_1" xmlns="http://www.w3.org/2000/svg" xmlns:xlink="http://www.w3.org/1999/xlink" x="0px" y="0px"
	 viewBox="0 0 512 512" style="enable-background:new 0 0 512 512;" xml:space="preserve">
<g>
	<path style="fill:#6B6C8A;" d="M252.655,9.986L227.829,94.82h28.172h28.172L259.347,9.986
		C258.368,6.643,253.633,6.643,252.655,9.986z"/>
	<path style="fill:#6B6C8A;" d="M174.341,36.788l28.322,83.732l23.077-16.159l23.077-16.159L179.822,32.95
		C177.104,30.773,173.225,33.489,174.341,36.788z"/>
	<path style="fill:#6B6C8A;" d="M332.18,262.205l-68.995-55.252l23.077-16.159l23.077-16.159l28.322,83.732
		C338.777,261.666,334.898,264.382,332.18,262.205z"/>
	<path style="fill:#6B6C8A;" d="M125.563,103.662l71.227,52.344l9.635-26.473l9.635-26.473l-88.209-5.686
		C124.376,97.15,122.756,101.6,125.563,103.662z"/>
	<path style="fill:#6B6C8A;" d="M384.151,197.78l-88.209-5.686l9.635-26.473l9.635-26.473l71.227,52.344
		C389.245,193.555,387.626,198.004,384.151,197.78z"/>
	<path style="fill:#6B6C8A;" d="M123.964,186.42l88.369,2.024l-7.291-27.212l-7.291-27.212l-75.518,45.937
		C119.256,181.767,120.482,186.341,123.964,186.42z"/>
	<path style="fill:#6B6C8A;" d="M389.77,115.198l-75.518,45.937l-7.291-27.212l-7.291-27.212l88.369,2.024
		C391.52,108.814,392.746,113.388,389.77,115.198z"/>
	<path style="fill:#6B6C8A;" d="M170.122,255.129L243.67,206.1l-21.581-18.109l-21.581-18.109l-35.512,80.945
		C163.597,254.017,167.224,257.061,170.122,255.129z"/>
	<path style="fill:#6B6C8A;" d="M347.006,44.327l-35.512,80.945l-21.581-18.109l-21.581-18.109l73.548-49.029
		C344.778,38.094,348.405,41.137,347.006,44.327z"/>
</g>
<path style="fill:#B7C1CA;" d="M279.54,250.368h-47.078c-2.753,0-4.986-2.232-4.986-4.986v-32.574h57.049v32.574
	C284.526,248.136,282.293,250.368,279.54,250.368z"/>
<path style="fill:#A3AEB7;" d="M279.54,250.368h-16.356v-37.56h21.341v32.574C284.526,248.136,282.293,250.368,279.54,250.368z"/>
<path style="fill:#B7C1CA;" d="M256.001,504.521L256.001,504.521c-17.787,0-32.205-14.419-32.205-32.205v-32.983
	c0-2.753,2.232-4.986,4.986-4.986h54.439c2.753,0,4.986,2.232,4.986,4.986v32.983C288.206,490.103,273.788,504.521,256.001,504.521z
	"/>
<path style="fill:#A3AEB7;" d="M288.208,439.332v32.984c0,17.789-14.418,32.207-32.207,32.207c-3.929,0-7.698-0.708-11.178-1.994
	c12.274-4.537,21.029-16.353,21.029-30.213v-32.984c0-2.752-2.234-4.986-4.986-4.986h22.355
	C285.974,434.346,288.208,436.58,288.208,439.332z"/>
<rect x="236.641" y="250.37" style="fill:#B76035;" width="38.728" height="183.98"/>
<rect x="256.001" y="250.37" style="fill:#A04C27;" width="19.367" height="183.98"/>
<circle style="fill:#80829B;" cx="256.001" cy="147.58" r="68.947"/>
<path style="fill:#6E7189;" d="M324.951,147.577c0,38.08-30.871,68.95-68.95,68.95c-24.689,0-46.346-12.972-58.521-32.476
	c9.632,5.115,20.62,8.017,32.287,8.017c38.08,0,68.95-30.861,68.95-68.94c0-13.401-3.819-25.905-10.44-36.484
	C310.094,98.209,324.951,121.163,324.951,147.577z"/>
<path d="M398.549,109.382c-1.272-4.747-5.427-8.011-10.25-8.121l-10.731-0.375c-0.089-0.004-0.177-0.005-0.266-0.005
	c-4.009,0-7.328,3.178-7.469,7.217c-0.118,3.396,2.047,6.343,5.118,7.361l-42.79,26.029c-0.751-9.473-3.221-18.467-7.123-26.66
	l5.898,0.148c4.139,0.074,7.56-3.161,7.663-7.288c0.104-4.13-3.16-7.56-7.288-7.664l-0.568-0.014l23.111-52.677
	c1.974-4.5,0.772-9.646-2.993-12.805s-9.041-3.449-13.129-0.723l-53.238,35.489l-17.97-61.407C265.144,3.17,260.915,0,256.001,0
	c-4.914,0-9.143,3.17-10.523,7.885l-16.136,55.14l-44.846-35.913c-3.836-3.07-9.117-3.242-13.142-0.422
	c-4.025,2.818-5.672,7.84-4.097,12.494l18.408,54.423l-57.333-3.695c-4.911-0.312-9.328,2.574-11.009,7.191
	c-1.681,4.617-0.149,9.675,3.81,12.586l46.295,34.022l-49.084,29.857c-4.198,2.553-6.165,7.457-4.894,12.204
	c1.272,4.747,5.427,8.012,10.34,8.125l57.437,1.315l-23.082,52.612c-1.974,4.5-0.772,9.646,2.993,12.805
	c2.044,1.716,4.534,2.585,7.038,2.585c2.107,0,4.223-0.616,6.091-1.862l45.728-30.484v14.514c0,5.727,3.888,10.552,9.16,12.005
	v8.252c0,4.131,3.348,7.478,7.478,7.478c4.13,0,7.478-3.348,7.478-7.478v-7.794h23.772v71.877l-23.772-14.252v-2.967
	c0-4.131-3.348-7.478-7.478-7.478c-4.13,0-7.478,3.348-7.478,7.478v114.364h-0.377c-6.873,0-12.464,5.591-12.464,12.464v32.984
	C216.318,494.198,234.119,512,256.001,512s39.684-17.802,39.684-39.684v-32.984c0-6.873-5.591-12.464-12.464-12.464h-0.377v-169.48
	c5.272-1.453,9.16-6.278,9.16-12.005v-5.77l35.501,28.429c2.015,1.613,4.428,2.427,6.849,2.427c2.188,0,4.383-0.664,6.294-2.002
	c4.025-2.819,5.672-7.84,4.098-12.495l-18.409-54.424l57.331,3.695c0.246,0.016,0.49,0.023,0.733,0.023
	c4.607,0,8.68-2.827,10.277-7.213c1.682-4.618,0.15-9.677-3.81-12.588l-46.295-34.022l49.085-29.858
	C397.855,119.032,399.821,114.128,398.549,109.382z M334.677,53.816l-19.788,45.102c-5.908-7.137-13.096-13.17-21.194-17.783
	L334.677,53.816z M256.001,25.179l13.827,47.249c-4.488-0.824-9.104-1.277-13.827-1.277s-9.339,0.453-13.827,1.277L256.001,25.179z
	 M224.232,78.095c-8.499,3.902-16.166,9.307-22.65,15.889l-15.786-46.67L224.232,78.095z M140.985,105.714l49.15,3.168
	c-4.643,7.872-7.911,16.641-9.482,25.983L140.985,105.714z M137.774,179.256l42.066-25.589c0.753,9.494,3.231,18.508,7.148,26.715
	L137.774,179.256z M177.325,241.339l19.788-45.103c5.908,7.137,13.096,13.171,21.195,17.783L177.325,241.339z M236.637,242.89
	h-1.682v-21.86c6.691,1.921,13.746,2.972,21.046,2.972c5.034,0,9.952-0.503,14.717-1.436l6.329,5.068v15.255h-1.682h-38.728V242.89z
	 M244.115,332.91l23.772,14.252v10.78l-23.772-14.252L244.115,332.91L244.115,332.91z M244.115,361.129l23.772,14.252v10.781
	l-23.772-14.252L244.115,361.129L244.115,361.129z M244.115,389.349l23.772,14.252v23.267h-23.772L244.115,389.349L244.115,389.349z
	 M280.728,472.316c0,13.634-11.092,24.727-24.727,24.727c-13.634,0-24.727-11.093-24.727-24.727v-30.491h5.362h38.729h5.363V472.316
	z M256.001,209.046c-33.894,0-61.469-27.574-61.469-61.469s27.575-61.469,61.469-61.469s61.469,27.575,61.469,61.469
	S289.895,209.046,256.001,209.046z M292.004,220.451v-5.516c6.818-3.656,13.03-8.296,18.416-13.764l15.786,46.67L292.004,220.451z
	 M371.017,189.44l-49.149-3.168c4.642-7.872,7.911-16.641,9.482-25.983L371.017,189.44z"/>
<g>
</g>
<g>
</g>
<g>
</g>
<g>
</g>
<g>
</g>
<g>
</g>
<g>
</g>
<g>
</g>
<g>
</g>
<g>
</g>
<g>
</g>
<g>
</g>
<g>
</g>
<g>
</g>
<g>
</g>
</svg>
