<?xml version="1.0" encoding="iso-8859-1"?>
<!-- Generator: Adobe Illustrator 19.0.0, SVG Export Plug-In . SVG Version: 6.00 Build 0)  -->
<svg version="1.1" id="Capa_1" xmlns="http://www.w3.org/2000/svg" xmlns:xlink="http://www.w3.org/1999/xlink" x="0px" y="0px"
	 viewBox="0 0 512 512" style="enable-background:new 0 0 512 512;" xml:space="preserve">
<path style="fill:#FF961D;" d="M342.87,504.505H169.538c-3.658,0-6.623-2.965-6.623-6.623v-33.157c0-3.658,2.965-6.623,6.623-6.623
	H342.87c3.658,0,6.623,2.965,6.623,6.623v33.157C349.493,501.54,346.527,504.505,342.87,504.505z"/>
<path style="fill:#EF8318;" d="M342.87,504.505h-17.975v-46.403h17.975c3.658,0,6.623,2.965,6.623,6.623v33.157
	C349.493,501.54,346.527,504.505,342.87,504.505z"/>
<rect x="199.1" y="405.671" style="fill:#B76035;" width="114.21" height="52.44"/>
<rect x="292.29" y="405.671" style="fill:#A04C27;" width="21.02" height="52.44"/>
<rect x="164.77" y="52.411" style="fill:#FFDBA9;" width="182.89" height="37.849"/>
<rect x="314.11" y="52.411" style="fill:#FFC473;" width="33.551" height="37.849"/>
<path style="fill:#FF961D;" d="M418.611,239.953c-3.778-20.044-9.361-39.694-15.191-59.222
	c-9.854-33.011-19.069-65.749-26.32-99.279c-1.215-5.616,1.032-11.371,5.659-14.778c6.769-4.984,15.387-14.102,14.871-28.008
	c-0.554-14.904-11.738-27.441-26.429-30.013c-11.018-1.929-22.434,1.899-29.913,10.252c-11.751,13.124-7.172,33.448-5.77,49.291
	c1.986,22.442,3.973,44.884,5.959,67.327c2.011,22.721,4.022,45.442,6.033,68.163c2.866,32.384,10.614,70.191-5.976,99.958
	c-15.091,27.077-44.295,44.216-75.297,44.12c0,0-1.635-0.005-3.888-0.012c0,0-8.073-0.025-13.083-0.04
	c-2.253-0.007-3.888-0.012-3.888-0.012c-31.002-0.096-60.1-17.415-75.023-44.585c-16.405-29.869-8.424-67.627-5.358-99.993
	c2.152-22.708,4.303-45.416,6.454-68.124c2.125-22.43,4.25-44.859,6.375-67.289c1.5-15.834,6.205-36.13-5.465-49.326
	c-7.428-8.399-18.82-12.297-29.849-10.437c-14.707,2.481-25.968,14.949-26.614,29.849c-0.603,13.903,7.959,23.074,14.697,28.099
	c4.606,3.435,6.817,9.204,5.568,14.812c-7.458,33.484-16.875,66.165-26.933,99.114c-5.95,19.491-11.654,39.107-15.557,59.127
	c-5.187,26.609-7.028,54.538-1.608,81.265c2.668,13.154,7.167,25.984,13.979,37.581c23.763,40.459,67.837,52.156,112.199,52.294
	c0.004,0,17.887,0.055,30.827,0.095c7.335,0.023,13.083,0.04,13.083,0.04c12.94,0.04,30.823,0.095,30.827,0.095
	c44.363,0.137,88.508-11.288,112.521-51.599c6.883-11.555,11.462-24.357,14.211-37.494
	C425.302,294.534,423.633,266.594,418.611,239.953z"/>
<path style="fill:#EF8318;" d="M419.712,321.229c-2.749,13.133-7.326,25.937-14.203,37.491
	c-24.018,40.309-68.165,51.733-112.522,51.603c-0.01,0-17.891-0.06-30.834-0.1c0,0-5.747-0.02-13.083-0.04
	c-12.933-0.04-30.814-0.09-30.824-0.09c-36.151-0.11-72.123-7.916-97.05-32.703c23.008,14.353,51.514,19.25,80.139,19.34
	c0.01,0,17.891,0.05,30.834,0.09c7.336,0.03,13.083,0.04,13.083,0.04c12.933,0.04,30.824,0.1,30.824,0.1
	c44.367,0.14,88.505-11.294,112.522-51.603c6.886-11.554,11.464-24.357,14.213-37.491c5.587-26.696-0.003-47.909-5.031-74.555
	c-3.778-20.04-8.156-40.439-13.993-59.969c-9.855-33.013-17.408-61.084-24.654-94.617c-1.219-5.617,1.029-11.374,5.657-14.772
	c6.767-4.987,16.452-24.738,15.932-38.651c-0.21-5.607-1.929-10.894-4.767-15.432c12.294,4.178,21.179,15.552,21.679,28.795
	c0.51,13.913-8.106,23.028-14.872,28.006c-4.628,3.408-6.876,9.165-5.657,14.782c7.246,33.533,16.462,66.266,26.316,99.279
	c5.827,19.53,11.414,39.18,15.192,59.22C423.63,266.597,425.299,294.533,419.712,321.229z"/>
<path d="M425.977,238.564c-4-21.221-10.033-42.086-15.374-59.977c-8.663-29.019-18.547-63.442-26.176-98.72
	c-0.579-2.678,0.51-5.487,2.777-7.156c12.047-8.869,18.41-21.06,17.917-34.323c-0.68-18.317-14.401-33.928-32.627-37.12
	c-13.588-2.375-27.682,2.464-36.791,12.636c-7.997,8.93-9.867,20.098-9.723,31.012h-63.484c-4.14,0-7.496,3.356-7.496,7.496
	s3.356,7.496,7.496,7.496h64.599c0.071,0.638,0.143,1.273,0.214,1.899c0.28,2.475,0.545,4.814,0.743,7.048l1.231,13.91h-55.95
	h-0.021h-34.22h-0.02h-55.14l1.36-14.352c0.212-2.232,0.491-4.569,0.787-7.042c0.058-0.484,0.116-0.972,0.174-1.463h29.269
	c4.14,0,7.496-3.356,7.496-7.496s-3.356-7.496-7.496-7.496h-28.02c0.267-11.049-1.476-22.403-9.522-31.5
	c-9.045-10.228-23.116-15.154-36.712-12.863c-18.245,3.078-32.063,18.604-32.856,36.916c-0.575,13.261,5.713,25.49,17.705,34.434
	c2.256,1.682,3.328,4.498,2.732,7.173c-7.847,35.228-17.943,69.589-26.786,98.556c-5.451,17.857-11.613,38.684-15.745,59.881
	c-6.157,31.588-6.68,59.127-1.596,84.189c2.998,14.781,7.998,28.202,14.862,39.888c18.161,30.922,49.057,49.149,92.02,54.397v34.617
	h-22.066c-7.786,0-14.119,6.334-14.119,14.12v33.157c0,7.785,6.334,14.119,14.119,14.119H342.87c7.786,0,14.12-6.334,14.12-14.119
	v-33.157c0-7.786-6.334-14.12-14.12-14.12h-22.065v-34.367c30.977-3.803,55.756-14.473,73.874-31.866
	c2.987-2.867,3.083-7.612,0.217-10.599c-2.867-2.987-7.613-3.083-10.599-0.216c-20.359,19.544-51.07,29.411-91.289,29.266
	l-74.736-0.231c-51.331-0.158-86.913-16.507-105.759-48.594c-6.022-10.253-10.428-22.12-13.096-35.275
	c-4.685-23.096-4.155-48.721,1.618-78.341c3.995-20.491,10.028-40.875,15.369-58.372c8.926-29.24,19.123-63.948,27.08-99.672
	c1.878-8.431-1.42-17.245-8.403-22.451c-5.583-4.164-12.142-11.32-11.689-21.766c0.489-11.292,9.057-20.873,20.371-22.782
	c8.536-1.443,17.344,1.63,22.987,8.011c7.73,8.74,6.059,22.723,4.443,36.244c-0.307,2.567-0.596,4.992-0.825,7.408l-12.83,135.413
	c-0.467,4.928-1.042,9.917-1.651,15.198c-3.337,28.951-7.118,61.765,7.901,89.11c16.364,29.794,47.62,48.368,81.571,48.472
	l20.857,0.064c0.097,0,0.191,0,0.288,0c33.838-0.001,65.079-18.361,81.58-47.967c15.188-27.252,11.609-60.089,8.451-89.061
	c-0.576-5.285-1.12-10.277-1.556-15.208L342.986,67.536c-0.214-2.418-0.489-4.844-0.779-7.413
	c-1.533-13.532-3.117-27.524,4.667-36.217c5.683-6.345,14.513-9.36,23.036-7.869c11.303,1.979,19.812,11.614,20.231,22.908
	c0.388,10.449-6.216,17.564-11.824,21.694c-7.014,5.164-10.367,13.957-8.542,22.398c7.737,35.776,17.719,70.546,26.464,99.839
	c5.233,17.53,11.14,37.95,15.007,58.466c5.59,29.654,5.961,55.282,1.135,78.349c-1.224,5.848-2.811,11.507-4.716,16.82
	c-1.397,3.896,0.629,8.189,4.526,9.586c3.898,1.398,8.189-0.629,9.587-4.526c2.137-5.96,3.913-12.288,5.278-18.81
	C432.291,297.731,431.939,270.19,425.977,238.564z M341.997,497.009H170.411v-31.411H199.1h114.208h28.689V497.009z
	 M305.812,417.817v32.789h-99.216v-32.789H305.812z M197.355,323.35c-8.279-6.449-15.309-14.525-20.428-23.843
	c-12.719-23.158-9.378-52.145-6.148-80.178c0.59-5.123,1.201-10.42,1.682-15.501l10.05-106.069h14.844L197.355,323.35
	L197.355,323.35z M212.347,332.592V97.76h19.268l0.648,241.244C225.362,337.765,218.66,335.588,212.347,332.592z M266.26,340.268
	l-19.002-0.059l-0.651-242.45h19.248l0.651,242.505C266.425,340.264,266.343,340.268,266.26,340.268z M300.078,332.531
	c-5.902,2.828-12.147,4.94-18.582,6.234L280.849,97.76h19.229V332.531z M341.63,219.857c3.057,28.052,6.219,57.06-6.643,80.138
	c-5.04,9.043-11.884,16.897-19.917,23.213V97.76h15.54l9.434,106.587C340.494,209.429,341.072,214.73,341.63,219.857z"/>
<g>
</g>
<g>
</g>
<g>
</g>
<g>
</g>
<g>
</g>
<g>
</g>
<g>
</g>
<g>
</g>
<g>
</g>
<g>
</g>
<g>
</g>
<g>
</g>
<g>
</g>
<g>
</g>
<g>
</g>
</svg>
