<?xml version="1.0" encoding="iso-8859-1"?>
<!-- Generator: Adobe Illustrator 19.0.0, SVG Export Plug-In . SVG Version: 6.00 Build 0)  -->
<svg version="1.1" id="Capa_1" xmlns="http://www.w3.org/2000/svg" xmlns:xlink="http://www.w3.org/1999/xlink" x="0px" y="0px"
	 viewBox="0 0 512.001 512.001" style="enable-background:new 0 0 512.001 512.001;" xml:space="preserve">
<rect x="73.881" y="119.216" style="fill:#FFDBA9;" width="363.247" height="273.8"/>
<rect x="412.788" y="119.216" style="fill:#FFC473;" width="24.333" height="273.8"/>
<g>
	<path style="fill:#FF961D;" d="M49.355,107.252h-31.91c-5.485,0-9.932-4.446-9.932-9.932V65.747c0-5.485,4.446-9.932,9.932-9.932
		h31.91C49.355,55.815,49.355,107.252,49.355,107.252z"/>
	<path style="fill:#FF961D;" d="M494.556,107.252h-31.91V55.815h31.91c5.485,0,9.932,4.446,9.932,9.932v31.572
		C504.489,102.805,500.041,107.252,494.556,107.252z"/>
</g>
<path style="fill:#EF8318;" d="M504.489,65.742v31.572c0,5.489-4.447,9.936-9.936,9.936h-20.914c5.479,0,9.926-4.447,9.926-9.936
	V65.742c0-5.479-4.447-9.926-9.926-9.926h20.914C500.041,55.816,504.489,60.263,504.489,65.742z"/>
<path style="fill:#B76035;" d="M457.11,119.211H54.321c-2.743,0-4.966-2.224-4.966-4.966V48.822c0-2.743,2.224-4.966,4.966-4.966
	h402.79c2.743,0,4.966,2.224,4.966,4.966v65.423C462.076,116.988,459.852,119.211,457.11,119.211z"/>
<path style="fill:#A04C27;" d="M462.074,48.825v65.423c0,2.742-2.225,4.966-4.966,4.966h-28.121c2.742,0,4.966-2.225,4.966-4.966
	V48.825c0-2.742-2.225-4.966-4.966-4.966h28.121C459.849,43.859,462.074,46.083,462.074,48.825z"/>
<g>
	<path style="fill:#FF961D;" d="M49.355,456.186h-31.91c-5.485,0-9.932-4.446-9.932-9.932v-31.572c0-5.485,4.446-9.932,9.932-9.932
		h31.91C49.355,404.749,49.355,456.186,49.355,456.186z"/>
	<path style="fill:#FF961D;" d="M494.556,456.186h-31.91v-51.436h31.91c5.485,0,9.932,4.446,9.932,9.932v31.572
		C504.489,451.74,500.041,456.186,494.556,456.186z"/>
</g>
<path style="fill:#EF8318;" d="M504.489,414.678v31.572c0,5.489-4.447,9.936-9.936,9.936h-20.914c5.479,0,9.926-4.447,9.926-9.936
	v-31.572c0-5.479-4.447-9.926-9.926-9.926h20.914C500.041,404.751,504.489,409.199,504.489,414.678z"/>
<path style="fill:#B76035;" d="M457.11,468.145H54.321c-2.743,0-4.966-2.224-4.966-4.966v-65.423c0-2.742,2.224-4.966,4.966-4.966
	h402.79c2.743,0,4.966,2.224,4.966,4.966v65.423C462.076,465.922,459.852,468.145,457.11,468.145z"/>
<path style="fill:#A04C27;" d="M462.076,397.756v65.423c0,2.741-2.225,4.966-4.966,4.966h-28.121c2.741,0,4.966-2.225,4.966-4.966
	v-65.423c0-2.741-2.225-4.966-4.966-4.966h28.121C459.851,392.79,462.076,395.014,462.076,397.756z"/>
<path d="M457.11,126.724c6.705,0,12.177-5.32,12.452-11.959h24.993c9.62,0,17.445-7.826,17.445-17.445V65.747
	c0-9.619-7.826-17.445-17.445-17.445h-24.993c-0.274-6.639-5.746-11.96-12.452-11.96H204.917c-4.15,0-7.512,3.364-7.512,7.512
	s3.363,7.512,7.512,7.512h249.647v60.33h-17.439H73.882H56.866v-4.446V55.815v-4.447h101.306c4.15,0,7.512-3.364,7.512-7.512
	s-3.363-7.512-7.512-7.512H54.32c-6.705,0-12.177,5.321-12.452,11.96H17.445C7.826,48.303,0,56.129,0,65.747V97.32
	c0,9.619,7.826,17.445,17.445,17.445h24.424c0.275,6.639,5.746,11.959,12.452,11.959H66.37v41.383c0,4.149,3.363,7.512,7.512,7.512
	s7.512-3.364,7.512-7.512v-41.383h348.218v258.554H81.395V215.434c0-4.149-3.363-7.512-7.512-7.512s-7.512,3.364-7.512,7.512
	v169.843H54.32c-6.705,0-12.177,5.321-12.452,11.96H17.445C7.826,397.237,0,405.063,0,414.682v31.573
	c0,9.619,7.826,17.445,17.445,17.445h24.424c0.275,6.639,5.746,11.959,12.452,11.959h402.79c6.705,0,12.177-5.32,12.452-11.959
	h24.993c9.62,0,17.445-7.826,17.445-17.445v-31.573c0-9.619-7.826-17.445-17.445-17.445h-24.993
	c-0.274-6.639-5.746-11.96-12.452-11.96h-12.472V126.724H457.11z M470.158,63.328h24.397c1.334,0,2.42,1.085,2.42,2.42V97.32
	c0,1.334-1.086,2.42-2.42,2.42h-24.397V63.328z M41.842,99.739H17.445c-1.334,0-2.42-1.086-2.42-2.42V65.747
	c0-1.334,1.086-2.42,2.42-2.42h24.397C41.842,63.328,41.842,99.739,41.842,99.739z M41.842,448.673H17.445
	c-1.334,0-2.42-1.086-2.42-2.42v-31.572c0-1.334,1.086-2.42,2.42-2.42h24.397C41.842,412.262,41.842,448.673,41.842,448.673z
	 M470.158,412.262h24.397c1.334,0,2.42,1.085,2.42,2.42v31.573c0,1.334-1.086,2.42-2.42,2.42h-24.397V412.262z M454.564,400.302
	v60.33H56.866v-4.446v-51.436v-4.447h15.218c0.577,0.142,1.177,0.225,1.797,0.225h363.243c0.621,0,1.221-0.083,1.797-0.225H454.564z
	"/>
<path d="M204.917,178.169h-84.138c-4.15,0-7.512-3.364-7.512-7.512s3.363-7.512,7.512-7.512h84.138c4.15,0,7.512,3.364,7.512,7.512
	S209.066,178.169,204.917,178.169z"/>
<path d="M309.088,178.169h-69.114c-4.15,0-7.512-3.364-7.512-7.512s3.363-7.512,7.512-7.512h69.114c4.15,0,7.512,3.364,7.512,7.512
	S313.238,178.169,309.088,178.169z"/>
<path d="M391.223,178.169H341.14c-4.15,0-7.512-3.364-7.512-7.512s3.363-7.512,7.512-7.512h50.082c4.15,0,7.512,3.364,7.512,7.512
	S395.372,178.169,391.223,178.169z"/>
<path d="M174.867,211.223h-54.089c-4.15,0-7.512-3.364-7.512-7.512c0-4.149,3.363-7.512,7.512-7.512h54.089
	c4.15,0,7.512,3.364,7.512,7.512C182.38,207.86,179.017,211.223,174.867,211.223z"/>
<path d="M332.126,211.223H204.917c-4.15,0-7.512-3.364-7.512-7.512c0-4.149,3.363-7.512,7.512-7.512h127.209
	c4.15,0,7.512,3.364,7.512,7.512C339.638,207.86,336.275,211.223,332.126,211.223z"/>
<path d="M391.223,211.223h-33.054c-4.15,0-7.512-3.364-7.512-7.512c0-4.149,3.363-7.512,7.512-7.512h33.054
	c4.15,0,7.512,3.364,7.512,7.512C398.735,207.86,395.372,211.223,391.223,211.223z"/>
<path d="M274.531,244.278H120.778c-4.15,0-7.512-3.364-7.512-7.512c0-4.149,3.363-7.512,7.512-7.512h153.753
	c4.15,0,7.512,3.364,7.512,7.512C282.043,240.914,278.681,244.278,274.531,244.278z"/>
<path d="M391.223,244.278h-82.135c-4.15,0-7.512-3.364-7.512-7.512c0-4.149,3.363-7.512,7.512-7.512h82.135
	c4.15,0,7.512,3.364,7.512,7.512C398.735,240.914,395.372,244.278,391.223,244.278z"/>
<path d="M155.836,277.332h-35.058c-4.15,0-7.512-3.364-7.512-7.512s3.363-7.512,7.512-7.512h35.058c4.15,0,7.512,3.364,7.512,7.512
	S159.986,277.332,155.836,277.332z"/>
<path d="M286.05,277.332H178.874c-4.15,0-7.512-3.364-7.512-7.512s3.363-7.512,7.512-7.512H286.05c4.15,0,7.512,3.364,7.512,7.512
	S290.2,277.332,286.05,277.332z"/>
<path d="M391.223,277.332h-74.122c-4.15,0-7.512-3.364-7.512-7.512s3.363-7.512,7.512-7.512h74.122c4.15,0,7.512,3.364,7.512,7.512
	S395.372,277.332,391.223,277.332z"/>
<path d="M190.894,310.386h-70.115c-4.15,0-7.512-3.364-7.512-7.512s3.363-7.512,7.512-7.512h70.115c4.15,0,7.512,3.364,7.512,7.512
	S195.043,310.386,190.894,310.386z"/>
<path d="M391.223,310.386H216.936c-4.15,0-7.512-3.364-7.512-7.512s3.363-7.512,7.512-7.512h174.286c4.15,0,7.512,3.364,7.512,7.512
	S395.372,310.386,391.223,310.386z"/>
<path d="M174.867,343.441h-54.089c-4.15,0-7.512-3.364-7.512-7.512c0-4.149,3.363-7.512,7.512-7.512h54.089
	c4.15,0,7.512,3.364,7.512,7.512C182.38,340.077,179.017,343.441,174.867,343.441z"/>
<path d="M317.101,343.441H201.912c-4.15,0-7.512-3.364-7.512-7.512c0-4.149,3.363-7.512,7.512-7.512h115.189
	c4.15,0,7.512,3.364,7.512,7.512C324.613,340.077,321.251,343.441,317.101,343.441z"/>
<path d="M391.223,343.441H341.14c-4.15,0-7.512-3.364-7.512-7.512c0-4.149,3.363-7.512,7.512-7.512h50.082
	c4.15,0,7.512,3.364,7.512,7.512C398.735,340.077,395.372,343.441,391.223,343.441z"/>
<g>
</g>
<g>
</g>
<g>
</g>
<g>
</g>
<g>
</g>
<g>
</g>
<g>
</g>
<g>
</g>
<g>
</g>
<g>
</g>
<g>
</g>
<g>
</g>
<g>
</g>
<g>
</g>
<g>
</g>
</svg>
