<?xml version="1.0" encoding="iso-8859-1"?>
<!-- Generator: Adobe Illustrator 19.0.0, SVG Export Plug-In . SVG Version: 6.00 Build 0)  -->
<svg version="1.1" id="Capa_1" xmlns="http://www.w3.org/2000/svg" xmlns:xlink="http://www.w3.org/1999/xlink" x="0px" y="0px"
	 viewBox="0 0 512 512" style="enable-background:new 0 0 512 512;" xml:space="preserve">
<path style="fill:#FF4F19;" d="M256,260.249V148.362c0-54.008-48.794-95.235-101.937-85.608
	c-37.553,6.803-65.558,27.522-88.408,62.983c-8.793,13.647-16.278,28.098-23.49,42.625c-1.243,2.504,1.024,5.314,3.735,4.63
	l33.516-8.46c22.165-5.595,43.676,11.161,43.676,34.022v162.521h132.906L256,260.249z"/>
<path style="fill:#3777D3;" d="M256,148.366v212.712h-66.779V179.384c0-46.131-41.681-81.348-87.072-73.124
	c-10.922,1.981-20.899,5.339-30.083,10.104c21.654-29.769,47.884-47.428,82.001-53.608C207.203,53.124,256,94.356,256,148.366z"/>
<path style="fill:#E23D17;" d="M100.341,165.644c13.126,4.9,22.866,17.528,22.866,32.915V361.08h25.236V198.558
	c0-22.866-21.512-39.617-43.68-34.03L100.341,165.644z"/>
<path style="fill:#2468BA;" d="M131.637,106.258c-0.657,0.12-1.305,0.239-1.952,0.378c33.054,6.981,58.808,36.49,58.808,72.751
	V361.08h30.216V179.387C218.709,133.257,177.02,98.032,131.637,106.258z"/>
<path style="fill:#FF4F19;" d="M383.929,450.632H128.071c-2.75,0-4.98-2.229-4.98-4.98v-45.195h265.818v45.195
	C388.909,448.402,386.679,450.632,383.929,450.632z"/>
<path style="fill:#E23D17;" d="M388.913,400.458v45.194c0,2.749-2.231,4.98-4.98,4.98H358.16c2.749,0,4.98-2.231,4.98-4.98v-45.194
	H388.913z"/>
<path d="M256,260.249h0.01H256z"/>
<circle style="fill:#FFDBA9;" cx="32.955" cy="177.97" r="25.485"/>
<path style="fill:#3777D3;" d="M256,260.249V148.362c0-54.008,48.794-95.235,101.937-85.608
	c37.553,6.803,65.558,27.522,88.408,62.983c8.793,13.647,16.278,28.098,23.49,42.625c1.243,2.504-1.024,5.314-3.735,4.63
	l-33.516-8.46c-22.165-5.595-43.676,11.161-43.676,34.022v162.521H256.003L256,260.249z"/>
<path style="fill:#2468BA;" d="M411.779,165.644c-13.126,4.9-22.866,17.528-22.866,32.915V361.08h-25.236V198.558
	c0-22.866,21.512-39.617,43.68-34.03L411.779,165.644z"/>
<path style="fill:#FF4F19;" d="M256,148.366v212.712h66.779V179.384c0-46.131,41.681-81.348,87.073-73.124
	c10.922,1.981,20.899,5.339,30.083,10.104c-21.654-29.769-47.884-47.428-82.001-53.608C304.797,53.124,256,94.356,256,148.366z"/>
<path style="fill:#E23D17;" d="M379.632,106.258c0.657,0.12,1.305,0.239,1.952,0.378c-33.054,6.981-58.808,36.49-58.808,72.751
	V361.08H292.56V179.387C292.56,133.257,334.248,98.032,379.632,106.258z"/>
<circle style="fill:#FFDBA9;" cx="479.05" cy="177.97" r="25.485"/>
<path style="fill:#FFC473;" d="M504.528,177.973c0,14.072-11.403,25.485-25.485,25.485c-10.696,0-19.868-6.603-23.633-15.954
	c2.948,1.195,6.165,1.852,9.531,1.852c14.072,0,25.485-11.413,25.485-25.485c0-3.366-0.657-6.583-1.852-9.531
	C497.925,158.105,504.528,167.267,504.528,177.973z"/>
<path style="fill:#FFDBA9;" d="M318.199,327.45l-58.544-63.252c-1.971-2.129-5.338-2.129-7.309,0l-58.544,63.252
	c-1.958,2.116-5.298,2.132-7.276,0.035l-63.434-67.236v140.483H388.91V260.249l-63.434,67.236
	C323.497,329.581,320.157,329.566,318.199,327.45z"/>
<g>
	<polygon style="fill:#FFC473;" points="388.913,260.245 388.913,400.727 363.09,400.727 363.09,287.612 	"/>
	<path style="fill:#FFC473;" d="M58.44,177.047c0,14.072-11.403,25.485-25.485,25.485c-10.696,0-19.868-6.603-23.633-15.954
		c2.948,1.195,6.165,1.852,9.531,1.852c14.072,0,25.485-11.413,25.485-25.485c0-3.366-0.657-6.583-1.852-9.531
		C51.837,157.179,58.44,166.341,58.44,177.047z"/>
</g>
<path d="M479.046,145.019c-4.106,0-8.036,0.761-11.664,2.139c-4.538-8.558-9.409-17.166-14.758-25.467
	c-2.173-3.372-4.388-6.604-6.643-9.711c-0.002-0.003-0.004-0.007-0.006-0.01c-0.01-0.014-0.021-0.028-0.031-0.042
	c-23.246-32.003-51.037-50.068-86.675-56.524c-27.371-4.957-55.348,2.46-76.766,20.347c-0.161,0.135-0.317,0.275-0.478,0.411
	c-0.532,0.451-1.063,0.903-1.584,1.364c-0.281,0.248-0.553,0.503-0.831,0.754c-0.401,0.363-0.803,0.725-1.196,1.094
	c-0.29,0.271-0.573,0.548-0.858,0.823c-0.373,0.359-0.747,0.717-1.114,1.081c-0.281,0.279-0.556,0.562-0.833,0.843
	c-0.365,0.372-0.729,0.744-1.088,1.121c-0.264,0.277-0.523,0.558-0.783,0.838c-0.365,0.393-0.727,0.787-1.084,1.186
	c-0.243,0.271-0.484,0.544-0.724,0.818c-0.367,0.419-0.731,0.841-1.09,1.266c-0.22,0.26-0.438,0.521-0.655,0.783
	c-0.376,0.455-0.747,0.913-1.114,1.374c-0.189,0.238-0.379,0.476-0.566,0.715c-0.395,0.506-0.782,1.016-1.166,1.529
	c-0.151,0.202-0.304,0.403-0.454,0.607c-0.429,0.583-0.849,1.171-1.264,1.763c-0.097,0.138-0.196,0.275-0.292,0.414
	c-0.503,0.726-0.997,1.459-1.479,2.198c-0.005,0.007-0.01,0.014-0.014,0.021c-2.538,3.893-4.777,7.962-6.709,12.174
	c-0.005,0.01-0.009,0.021-0.014,0.031c-0.374,0.817-0.736,1.639-1.087,2.466c-0.008,0.02-0.017,0.039-0.026,0.058
	c-5.785-13.672-14.784-25.946-26.502-35.732c-4.687-3.914-9.688-7.327-14.928-10.219c-0.304-0.168-0.612-0.326-0.918-0.49
	c-0.446-0.24-0.89-0.483-1.34-0.716c-8.888-4.594-18.418-7.71-28.232-9.268c-0.228-0.036-0.454-0.078-0.682-0.113
	c-0.103-0.016-0.206-0.027-0.308-0.042c-9.959-1.472-20.201-1.34-30.358,0.501c-35.634,6.455-63.423,24.517-86.668,56.514
	c-0.013,0.017-0.025,0.034-0.038,0.051c-0.003,0.004-0.005,0.008-0.007,0.012c-2.255,3.107-4.47,6.338-6.642,9.709
	c-5.348,8.3-10.224,16.908-14.762,25.465c-3.627-1.377-7.556-2.137-11.66-2.137C14.783,145.019,0,159.802,0,177.974
	c0,18.171,14.783,32.954,32.954,32.954s32.955-14.783,32.955-32.954c0-0.776-0.037-1.544-0.09-2.306l15.423-3.893
	c8.314-2.098,16.965-0.281,23.733,4.99c6.766,5.271,10.647,13.213,10.647,21.789v201.904v0.274v44.92
	c0,6.864,5.584,12.449,12.449,12.449h53.734c4.125,0,7.469-3.344,7.469-7.469s-3.344-7.469-7.469-7.469h-51.244v-34.961h250.878
	v34.961H228.115c-4.126,0-7.469,3.344-7.469,7.469s3.344,7.469,7.469,7.469h155.814c6.864,0,12.449-5.584,12.449-12.449v-44.92
	v-0.274V198.554c0-8.577,3.88-16.518,10.647-21.789c6.767-5.27,15.415-7.088,23.734-4.99l15.422,3.893
	c-0.053,0.763-0.09,1.53-0.09,2.306c0,18.171,14.784,32.954,32.955,32.954S512,196.145,512,177.974
	C512,159.802,497.217,145.019,479.046,145.019z M32.954,195.989c-9.934,0-18.016-8.082-18.016-18.016s8.082-18.016,18.016-18.016
	c9.935,0,18.017,8.082,18.017,18.016S42.889,195.989,32.954,195.989z M265.459,281.464c2.801,3.028,7.527,3.209,10.555,0.408
	c3.028-2.802,3.209-7.528,0.407-10.555l-11.286-12.194c-0.509-0.55-1.072-1.039-1.665-1.484l-0.002-109.274
	c0-23.678,10.43-45.967,28.615-61.152c18.012-15.041,41.531-21.275,64.518-17.108c1.326,0.24,2.635,0.503,3.936,0.779
	c0.317,0.068,0.632,0.139,0.948,0.209c0.953,0.21,1.899,0.431,2.84,0.661c0.415,0.102,0.831,0.202,1.244,0.308
	c0.873,0.223,1.738,0.46,2.6,0.7c0.816,0.229,1.627,0.466,2.434,0.71c0.625,0.189,1.25,0.377,1.869,0.575
	c0.771,0.248,1.536,0.507,2.298,0.77c0.304,0.104,0.607,0.209,0.909,0.316c14.828,5.252,28.022,13.382,39.978,24.676
	c-1.479-0.325-2.971-0.625-4.476-0.898c-23.691-4.293-47.915,2.128-66.461,17.615c-18.692,15.609-29.411,38.52-29.411,62.859
	v133.948l-7.659-8.275c-2.8-3.028-7.527-3.211-10.555-0.409c-3.028,2.802-3.209,7.528-0.407,10.555l16.029,17.319
	c2.334,2.521,5.643,3.976,9.078,3.992c0.019,0,0.038,0,0.057,0c3.415,0,6.712-1.422,9.055-3.906l50.531-53.56v113.938H130.561
	V279.051l50.531,53.56c2.344,2.485,5.641,3.906,9.055,3.906c0.019,0,0.039,0,0.057,0c3.435-0.016,6.744-1.471,9.078-3.993
	L256,271.244L265.459,281.464z M136.274,75.028c14.289-5.259,29.571-7.521,44.367-5.384c14.412,2.081,28.102,8.239,39.275,17.569
	c18.185,15.185,28.615,37.474,28.615,61.152l-0.002,109.274c-0.593,0.445-1.156,0.934-1.665,1.484l-50.174,54.209V179.384
	c0-24.339-10.72-47.25-29.411-62.859c-18.545-15.487-42.772-21.907-66.463-17.614c-1.505,0.273-2.995,0.573-4.474,0.898
	C107.431,89.333,121.308,80.536,136.274,75.028z M114.156,164.98c-10.428-8.121-23.754-10.923-36.569-7.69l-16.18,4.084
	c-1.229-2.099-2.682-4.05-4.329-5.821c4.58-8.7,9.488-17.438,14.857-25.771c1.683-2.612,3.394-5.124,5.129-7.559
	c8.143-4.035,16.8-6.869,26.418-8.614c19.327-3.503,39.086,1.741,54.223,14.382c15.283,12.762,24.047,31.494,24.047,51.393v132.157
	l-51.191-54.259v-58.728C130.561,185.338,124.581,173.101,114.156,164.98z M450.594,161.374l-16.18-4.084
	c-12.812-3.233-26.143-0.433-36.569,7.69c-10.426,8.121-16.405,20.359-16.405,33.574v58.728l-51.191,54.259V179.384
	c0-19.899,8.765-38.63,24.047-51.393c15.137-12.642,34.9-17.883,54.221-14.382c9.62,1.745,18.278,4.579,26.42,8.615
	c1.735,2.435,3.446,4.947,5.129,7.558c5.368,8.331,10.28,17.068,14.861,25.766C453.279,157.32,451.825,159.274,450.594,161.374z
	 M479.046,195.989c-9.935,0-18.017-8.082-18.017-18.016s8.082-18.016,18.017-18.016c9.934,0,18.016,8.082,18.016,18.016
	C497.061,187.907,488.979,195.989,479.046,195.989z"/>
<g>
</g>
<g>
</g>
<g>
</g>
<g>
</g>
<g>
</g>
<g>
</g>
<g>
</g>
<g>
</g>
<g>
</g>
<g>
</g>
<g>
</g>
<g>
</g>
<g>
</g>
<g>
</g>
<g>
</g>
</svg>
