<?xml version="1.0" encoding="iso-8859-1"?>
<!-- Generator: Adobe Illustrator 19.0.0, SVG Export Plug-In . SVG Version: 6.00 Build 0)  -->
<svg version="1.1" id="Capa_1" xmlns="http://www.w3.org/2000/svg" xmlns:xlink="http://www.w3.org/1999/xlink" x="0px" y="0px"
	 viewBox="0 0 512.001 512.001" style="enable-background:new 0 0 512.001 512.001;" xml:space="preserve">
<g>
	<path style="fill:#FF4F19;" d="M237.229,335.2l-48.824,39.221c-1.193,0.958-1.887,2.405-1.887,3.936v121.078
		c0,4.122,4.673,6.506,8.011,4.088l42.7-30.939L237.229,335.2L237.229,335.2z"/>
	<path style="fill:#FF4F19;" d="M274.771,335.2l48.824,39.221c1.193,0.958,1.887,2.405,1.887,3.936v121.078
		c0,4.122-4.673,6.506-8.011,4.088l-42.7-30.938V335.2z"/>
</g>
<g>
	<path style="fill:#E23D17;" d="M325.477,378.359v121.073c0,4.13-4.665,6.512-8.007,4.089l-12.884-9.339
		c0.768-0.909,1.242-2.09,1.242-3.443V361.77c0-0.657-0.121-1.302-0.363-1.908l18.134,14.56
		C324.79,375.38,325.477,376.825,325.477,378.359z"/>
	<path style="fill:#E23D17;" d="M186.518,378.359v121.073c0,4.13,4.665,6.512,8.007,4.089l12.884-9.339
		c-0.768-0.909-1.242-2.09-1.242-3.443V361.77c0-0.657,0.121-1.302,0.363-1.908l-18.134,14.56
		C187.205,375.38,186.518,376.825,186.518,378.359z"/>
</g>
<path style="fill:#B7C1CA;" d="M251.797,12.992L219.376,57.09c-2.43,3.305-0.07,7.97,4.032,7.97h32.42h32.42
	c4.102,0,6.462-4.665,4.032-7.97l-32.42-44.098C257.861,10.272,253.797,10.272,251.797,12.992z"/>
<path style="fill:#A3AEB7;" d="M288.252,65.06h-14.957l-29.887-40.65l8.387-11.415c2-2.722,6.065-2.722,8.066-0.001l32.423,44.097
	C294.715,60.396,292.355,65.06,288.252,65.06z"/>
<rect x="237.234" y="65.06" style="fill:#FFDBA9;" width="37.542" height="406.641"/>
<rect x="256.003" y="65.06" style="fill:#FFC473;" width="18.772" height="406.641"/>
<path d="M328.297,368.568L282.278,331.6V175.671c0-4.146-3.36-7.507-7.507-7.507s-7.507,3.361-7.507,7.507V335.2v128.988h-22.527
	V335.2V72.568h22.527v56.808c0,4.146,3.36,7.507,7.507,7.507s7.507-3.361,7.507-7.507V72.568h16.63c0.75,0,1.498-0.155,2.17-0.488
	c4.853-2.407,5.755-7.869,3.11-11.465L261.877,3.061C260.463,1.136,258.218,0,255.829,0c-2.388,0-4.634,1.136-6.048,3.061
	L207.47,60.614c-2.645,3.598-1.743,9.058,3.112,11.466c0.672,0.333,1.42,0.488,2.17,0.488h16.971v259.034l-46.018,36.966
	c-2.982,2.396-4.693,5.964-4.693,9.789v41.49c0,4.146,3.361,7.507,7.507,7.507s7.507-3.361,7.507-7.507v-40.313l35.696-28.674
	v117.893l-35.696,25.864v-29.076c0-4.146-3.361-7.507-7.507-7.507s-7.507,3.361-7.507,7.507v33.894
	c0,4.743,2.625,9.028,6.848,11.183c1.813,0.925,3.77,1.381,5.716,1.381c2.592,0,5.166-0.809,7.358-2.397l41.956-30.399h30.221
	l41.955,30.4c2.193,1.589,4.768,2.397,7.359,2.397c1.947,0,3.904-0.456,5.717-1.381c4.224-2.156,6.848-6.441,6.848-11.183v-121.08
	C332.988,374.532,331.279,370.965,328.297,368.568z M255.829,20.182l27.475,37.371h-8.533h-37.542h-8.874L255.829,20.182z
	 M317.974,494.617l-35.695-25.864V350.86l35.695,28.674V494.617z"/>
<g>
</g>
<g>
</g>
<g>
</g>
<g>
</g>
<g>
</g>
<g>
</g>
<g>
</g>
<g>
</g>
<g>
</g>
<g>
</g>
<g>
</g>
<g>
</g>
<g>
</g>
<g>
</g>
<g>
</g>
</svg>
