<?xml version="1.0" encoding="iso-8859-1"?>
<!-- Generator: Adobe Illustrator 19.0.0, SVG Export Plug-In . SVG Version: 6.00 Build 0)  -->
<svg version="1.1" id="Capa_1" xmlns="http://www.w3.org/2000/svg" xmlns:xlink="http://www.w3.org/1999/xlink" x="0px" y="0px"
	 viewBox="0 0 512 512" style="enable-background:new 0 0 512 512;" xml:space="preserve">
<path style="fill:#B76035;" d="M175.045,182.344l-38.233-18.519c-19.204-11.214-38.431-24.907-48.828-45.182
	c-6.735-13.134-7.523-28.433-3.219-42.455c2.132-6.948,5.434-13.527,9.63-19.457c5.968-8.434,14.249-15.118,23.665-19.342
	c11.129-4.992,22.079-5.123,34.051-5.066c1.632,0.008,17.369,1.364,17.369,3.254c0,0.008,0,31.167,0,31.167
	c-19.113-2.191-40.693,0.997-43.414,21.365c-3.348,25.064,31.178,44.587,50.697,51.01c0.057,0.019,5.116,1.684,11.129,3.662
	C187.892,142.781,187.892,168.291,175.045,182.344z"/>
<path style="fill:#A04C27;" d="M187.887,142.784c0,0,0,10.618-3.459,21.927c-1.203-0.391-1.895-0.622-1.915-0.632
	c-30.109-9.906-83.368-40.025-78.204-78.686c4.111-30.78,36.144-36.124,65.17-33.157c0,7.419,0,14.508,0,14.508
	c-19.11-2.196-40.696,0.993-43.413,21.366c-3.349,25.065,31.181,44.586,50.692,51.003
	C176.818,139.135,181.882,140.799,187.887,142.784z"/>
<path style="fill:#B76035;" d="M324.518,93.159H187.486c-9.971,0-18.053-8.083-18.053-18.053V25.573
	c0-9.971,8.083-18.053,18.053-18.053h137.033c9.971,0,18.053,8.083,18.053,18.053v49.532
	C342.572,85.076,334.49,93.159,324.518,93.159z"/>
<path style="fill:#A04C27;" d="M342.569,25.577v49.525c0,9.969-8.084,18.054-18.054,18.054h-28.376
	c9.97,0,18.054-8.084,18.054-18.054V25.577c0-9.98-8.084-18.054-18.054-18.054h28.376C334.485,7.523,342.569,15.597,342.569,25.577z
	"/>
<path style="fill:#D5F0F7;" d="M422.904,290.671c-9.755-31.753-27.644-60.284-54.072-77.001
	c-12.763-8.073-26.377-15.09-35.192-28.846c-16.87-26.328-10.862-61.428-10.862-91.662c0-0.003-133.554-0.003-133.554,0
	c0,30.234,6.008,65.334-10.862,91.662c-8.815,13.757-22.429,20.773-35.192,28.846c-26.429,16.717-44.317,45.247-54.072,77.001
	c-20.789,67.67-17.391,213.809,71.325,213.809h191.156C440.294,504.48,443.692,358.341,422.904,290.671z"/>
<path style="fill:#A6DFE8;" d="M370.079,502.125c42.378-44.646,40.624-147.768,23.88-202.252
	c-10.211-33.235-28.931-63.093-56.591-80.592c-13.356-8.447-27.6-15.786-36.824-30.191c-17.661-27.55-11.371-64.282-11.371-95.925
	c0,0-21.995-0.009-48.526-0.01c37.631,0,82.134,0,82.134,0.01c0,30.231-6.008,65.331,10.857,91.661
	c8.82,13.75,22.429,20.776,35.19,28.84c26.431,16.723,44.323,45.251,54.071,77.004C442.143,353.279,440.671,483.063,370.079,502.125
	z"/>
<path style="fill:#FFDBA9;" d="M307.052,259.967c23.956,0,46.173,13.249,56.869,34.684c2.932,5.876,5.378,12.09,7.345,18.493
	c14.357,46.733,12.011,147.658-49.258,147.658H189.995c-61.268,0-63.615-100.925-49.257-147.658
	c1.806-5.878,4.016-11.597,6.634-17.041c10.638-22.117,33.06-36.136,57.602-36.136L307.052,259.967L307.052,259.967z"/>
<path style="fill:#FFC473;" d="M322.005,460.806h-33.094c61.268,0,63.617-100.924,49.263-147.657
	c-1.976-6.411-4.415-12.621-7.349-18.497c-10.695-21.431-32.912-34.686-56.873-34.686h33.104c23.951,0,46.168,13.256,56.863,34.686
	c2.933,5.877,5.383,12.086,7.348,18.497C385.622,359.881,383.274,460.806,322.005,460.806z"/>
<path style="fill:#FFDBA9;" d="M257.99,117.261h-3.975c-12.102,0-21.913-9.811-21.913-21.913V7.52h47.801v87.828
	C279.902,107.45,270.092,117.261,257.99,117.261z"/>
<path style="fill:#FFC473;" d="M279.9,7.523v87.82c0,12.106-9.808,21.915-21.915,21.915h-3.972c-2.913,0-5.706-0.575-8.246-1.613
	c8.004-3.256,13.649-11.119,13.649-20.302V7.523H279.9z"/>
<path style="fill:#B76035;" d="M324.428,188.701H186.401c-11.507,0-20.836-9.329-20.836-20.836v-6.371
	c0-11.507,9.329-20.836,20.836-20.836h138.027c11.508,0,20.836,9.329,20.836,20.836v6.371
	C345.264,179.373,335.936,188.701,324.428,188.701z"/>
<path style="fill:#A04C27;" d="M345.261,161.49v6.371c0,11.512-9.324,20.836-20.836,20.836h-32.106
	c11.512,0,20.836-9.324,20.836-20.836v-6.371c0-11.502-9.324-20.836-20.836-20.836h32.106
	C335.936,140.654,345.261,149.989,345.261,161.49z"/>
<path d="M370.65,291.294c-11.775-23.598-36.739-38.847-63.597-38.847H204.974c-27.305,0-52.575,15.856-64.379,40.396
	c-2.732,5.679-5.102,11.766-7.046,18.092c-10.323,33.602-13.49,99.706,12.498,134.877c10.881,14.726,26.078,22.509,43.948,22.509
	h58.783c4.153,0,7.52-3.367,7.52-7.52c0-4.153-3.367-7.52-7.52-7.52h-58.783c-13.275,0-23.694-5.367-31.852-16.408
	c-9.617-13.016-15.621-34.025-16.905-59.158c-1.113-21.796,1.387-45.11,6.688-62.365c1.723-5.608,3.817-10.988,6.222-15.99
	c9.314-19.364,29.264-31.876,50.826-31.876h102.079c21.207,0,40.888,11.981,50.14,30.522c2.688,5.388,5.005,11.223,6.886,17.344
	c5.301,17.255,7.801,40.569,6.687,62.365c-1.284,25.133-7.288,46.141-16.905,59.157c-8.158,11.041-18.577,16.408-31.852,16.408
	h-27.908c-4.153,0-7.52,3.367-7.52,7.52c0,4.153,3.367,7.52,7.52,7.52h27.908c17.87,0,33.066-7.784,43.948-22.509
	c25.988-35.17,22.821-101.274,12.498-134.877C376.331,304.027,373.706,297.419,370.65,291.294z"/>
<path d="M430.091,288.463c-7.818-25.446-24.094-60.181-57.241-81.147c-1.815-1.148-3.647-2.275-5.48-3.403
	c-8.225-5.06-16.088-9.915-22.31-16.627c4.783-5.078,7.723-11.91,7.723-19.42v-6.371c0-13.986-10.18-25.631-23.518-27.934
	c-0.035-6.957,0.24-14.011,0.516-20.997c0.163-4.132,0.322-8.35,0.42-12.529c11.374-2.592,19.89-12.781,19.89-24.929V25.573
	C350.092,11.472,338.62,0,324.518,0h-44.616h-47.801h-44.616c-14.101,0-25.573,11.472-25.573,25.573v0.152
	c-4.08-0.548-8.514-0.915-9.766-0.921c-11.319-0.052-24.145-0.117-37.165,5.724c-10.79,4.84-20.032,12.399-26.727,21.86
	c-4.749,6.712-8.342,13.977-10.68,21.594c-5.057,16.477-3.737,33.556,3.717,48.092c11.636,22.691,32.678,37.121,51.727,48.244
	c0.167,0.098,0.339,0.189,0.514,0.274l30.632,14.837c0.684,0.864,1.411,1.693,2.19,2.472c-6.127,6.394-13.756,11.108-21.726,16.011
	c-1.833,1.128-3.665,2.255-5.48,3.403c-33.146,20.966-49.422,55.701-57.24,81.147c-14.747,48-19.355,142.315,17.586,192.31
	C114.806,501.494,135.305,512,160.422,512h191.156c25.117,0,45.616-10.506,60.927-31.227
	C449.447,430.778,444.839,336.463,430.091,288.463z M337.744,161.494v6.371c0,7.343-5.974,13.317-13.317,13.317H186.401
	c-7.343,0-13.316-5.974-13.316-13.317v-6.371c0-7.343,5.974-13.317,13.316-13.317h138.026
	C331.771,148.177,337.744,154.151,337.744,161.494z M287.422,15.039h37.096c5.809,0,10.534,4.726,10.534,10.534v49.532
	c0,5.809-4.725,10.534-10.534,10.534h-37.096V15.039z M286.929,100.68c11.692,0,21.763,0,28.221,0
	c-0.095,3.667-0.243,7.414-0.396,11.289c-0.271,6.867-0.531,13.987-0.502,21.169H197.759c0.029-7.183-0.242-14.301-0.513-21.169
	c-0.153-3.874-0.301-7.622-0.397-11.289c6.458,0,16.533,0,28.225,0c2.517,13.691,14.532,24.101,28.94,24.101h3.975
	C272.397,124.781,284.412,114.372,286.929,100.68z M176.952,67.571c0.03-0.273,0.047-0.549,0.047-0.826V35.577
	c0-0.228-0.032-0.432-0.047-0.649v-9.355c0-5.808,4.725-10.534,10.534-10.534h37.096v17.277c0,4.153,3.367,7.52,7.52,7.52
	s7.52-3.367,7.52-7.52V15.039h32.762v80.309c0,7.937-6.457,14.394-14.394,14.394h-3.975c-7.937,0-14.394-6.457-14.394-14.394V78.035
	c0-4.153-3.367-7.52-7.52-7.52s-7.52,3.367-7.52,7.52v7.604h-37.096c-5.809,0-10.534-4.725-10.534-10.534v-7.534H176.952z
	 M158.046,161.494v4.261l-17.693-8.57c-17.106-10.007-35.857-22.822-45.678-41.973c-5.656-11.03-6.623-24.105-2.722-36.817
	c1.868-6.087,4.755-11.914,8.58-17.32c5.142-7.267,12.266-13.085,20.604-16.825c9.329-4.185,18.703-4.459,30.878-4.408
	c1.648,0.046,6.384,0.526,9.898,1.075v17.735c-25.135-0.744-40.751,9.375-43.301,28.46c-1.826,13.667,4.894,27.252,19.433,39.284
	c9.403,7.782,19.684,13.086,27.136,16.314C160.743,147.715,158.046,154.294,158.046,161.494z M133.519,89.105
	c0.867-6.494,4.288-10.657,10.764-13.104c4.646-1.755,10.663-2.521,17.63-2.286v1.39c0,12.146,8.514,22.334,19.885,24.928
	c0.098,4.179,0.257,8.397,0.42,12.53c0.271,6.855,0.54,13.776,0.517,20.606l-3.622-1.192
	C158.7,125.259,131.06,107.517,133.519,89.105z M425.543,384.345c-1.893,37.045-10.818,68.117-25.133,87.49
	c-12.319,16.672-28.748,25.126-48.832,25.126H160.422c-20.083,0-36.512-8.453-48.831-25.125
	C79.199,427.998,81.889,339.739,96.285,292.88c7.072-23.021,21.644-54.347,50.903-72.854c11.702-7.402,23.499-13.833,32.622-24.586
	c2.117,0.506,149.764,0.418,152.171-0.247c9.143,10.889,21.035,17.373,32.829,24.833c29.26,18.508,43.832,49.834,50.904,72.854
	C423.5,318.22,427.174,352.412,425.543,384.345z"/>
<g>
</g>
<g>
</g>
<g>
</g>
<g>
</g>
<g>
</g>
<g>
</g>
<g>
</g>
<g>
</g>
<g>
</g>
<g>
</g>
<g>
</g>
<g>
</g>
<g>
</g>
<g>
</g>
<g>
</g>
</svg>
