<?xml version="1.0" encoding="iso-8859-1"?>
<!-- Generator: Adobe Illustrator 19.0.0, SVG Export Plug-In . SVG Version: 6.00 Build 0)  -->
<svg version="1.1" id="Capa_1" xmlns="http://www.w3.org/2000/svg" xmlns:xlink="http://www.w3.org/1999/xlink" x="0px" y="0px"
	 viewBox="0 0 512.002 512.002" style="enable-background:new 0 0 512.002 512.002;" xml:space="preserve">
<path style="fill:#FFDBA9;" d="M303.544,146.743h-95.383V92.624c0-2.764,2.241-5.005,5.005-5.005h85.373
	c2.764,0,5.005,2.241,5.005,5.005V146.743z"/>
<path style="fill:#FFC473;" d="M303.54,92.621v54.123h-16.877V92.621c0-2.763-2.242-5.005-5.005-5.005h16.877
	C301.308,87.616,303.54,89.858,303.54,92.621z"/>
<g>
	<path style="fill:#FFDBA9;" d="M173.575,408.076v18.744h-43.71c-2.764,0-5.005-2.241-5.005-5.005v-8.735
		c0-2.764-2.241-5.005-5.005-5.005h-11.933h-0.11H95.88c-2.764,0-5.005,2.241-5.005,5.005v8.735c0,2.764-2.241,5.005-5.005,5.005
		H47.165c-2.764,0-5.005-2.241-5.005-5.005v-8.735c0-2.764-2.241-5.005-5.005-5.005H12.934c-2.764,0-5.005,2.241-5.005,5.005v91.412
		h99.884h0.11h99.884v-96.417H173.575z"/>
	<path style="fill:#FFDBA9;" d="M338.427,408.076v18.744h43.71c2.764,0,5.005-2.241,5.005-5.005v-8.735
		c0-2.764,2.241-5.005,5.005-5.005h11.933h0.11h11.933c2.764,0,5.005,2.241,5.005,5.005v8.735c0,2.764,2.241,5.005,5.005,5.005
		h38.705c2.764,0,5.005-2.241,5.005-5.005v-8.735c0-2.764,2.241-5.005,5.005-5.005h24.222c2.764,0,5.005,2.241,5.005,5.005v91.412
		H404.19h-0.11h-99.884v-96.417H338.427z"/>
</g>
<path style="fill:#FFC473;" d="M504.077,413.076v91.42h-18.688v-91.42c0-2.763-2.242-5.005-5.005-5.005h18.688
	C501.835,408.071,504.077,410.313,504.077,413.076z"/>
<rect x="157.416" y="265.301" style="fill:#FF4F19;" width="196.873" height="239.195"/>
<rect x="331.527" y="265.301" style="fill:#E23D17;" width="22.759" height="239.195"/>
<polygon style="fill:#FF4F19;" points="255.857,223.146 255.848,223.146 139.726,223.146 156.816,265.526 255.848,265.526 
	255.857,265.526 354.89,265.526 371.98,223.146 "/>
<polygon style="fill:#E23D17;" points="371.977,223.149 354.891,265.521 331.538,265.521 348.624,223.149 "/>
<path style="fill:#FF4F19;" d="M332.203,129.599v9.15c0,2.764-2.241,5.005-5.005,5.005h-46.596c-2.764,0-5.005-2.241-5.005-5.005
	v-9.15c0-2.764-2.241-5.005-5.005-5.005h-14.676h-0.127h-14.676c-2.764,0-5.005,2.241-5.005,5.005v9.15
	c0,2.764-2.241,5.005-5.005,5.005h-46.596c-2.764,0-5.005-2.241-5.005-5.005v-9.15c0-2.764-2.241-5.005-5.005-5.005H144.73
	c-2.764,0-5.005,2.241-5.005,5.005v93.547h116.063h0.127h116.064v-93.547c0-2.764-2.241-5.005-5.005-5.005h-29.767
	C334.445,124.594,332.203,126.835,332.203,129.599z"/>
<path d="M250.321,203.973h-21.567c-4.146,0-7.507-3.361-7.507-7.507s3.361-7.507,7.507-7.507h21.567
	c4.146,0,7.507,3.361,7.507,7.507S254.467,203.973,250.321,203.973z"/>
<path d="M335.141,187.877h-14.368c-4.146,0-7.507-3.361-7.507-7.507c0-4.146,3.361-7.507,7.507-7.507h14.368
	c4.146,0,7.507,3.361,7.507,7.507C342.649,184.515,339.287,187.877,335.141,187.877z"/>
<path d="M188.137,176.674h-14.368c-4.146,0-7.507-3.361-7.507-7.507s3.361-7.507,7.507-7.507h14.368
	c4.146,0,7.507,3.361,7.507,7.507S192.283,176.674,188.137,176.674z"/>
<path style="fill:#E23D17;" d="M371.977,129.597v93.552h-23.683v-93.552c0-2.763-2.242-5.005-5.005-5.005h23.683
	C369.735,124.592,371.977,126.835,371.977,129.597z"/>
<path style="fill:#00AD95;" d="M308.837,504.492H202.868V437.88c0-29.263,23.722-52.985,52.985-52.985l0,0
	c29.263,0,52.985,23.722,52.985,52.985v66.611H308.837z"/>
<path style="fill:#039377;" d="M308.835,437.88v66.615h-32.622V437.88c0-14.624-5.926-27.877-15.515-37.467
	c-5.856-5.856-13.083-10.35-21.161-12.953c5.135-1.662,10.62-2.563,16.316-2.563c14.634,0,27.877,5.926,37.467,15.515
	C302.9,410.003,308.835,423.256,308.835,437.88z"/>
<path style="fill:#D5F0F7;" d="M271.209,347.341h-30.712c-2.764,0-5.005-2.241-5.005-5.005v-21.68
	c0-11.245,9.116-20.361,20.361-20.361l0,0c11.245,0,20.361,9.116,20.361,20.361v21.68
	C276.214,345.1,273.973,347.341,271.209,347.341z"/>
<path style="fill:#A6DFE8;" d="M276.213,320.655v21.681c0,2.763-2.242,5.005-5.005,5.005h-20.36c2.763,0,5.005-2.242,5.005-5.005
	v-21.681c0-5.626-2.282-10.711-5.966-14.394c-1.251-1.251-2.673-2.342-4.214-3.233c2.993-1.742,6.466-2.733,10.18-2.733
	c5.626,0,10.711,2.282,14.394,5.966C273.931,309.944,276.213,315.029,276.213,320.655z"/>
<path style="fill:#00AD95;" d="M290.055,25.99l13.851-15.129c1.175-1.284,0.264-3.353-1.477-3.353h-46.576v19.834v19.834h46.576
	c1.742,0,2.653-2.069,1.476-3.354l-13.851-15.129C289.354,27.928,289.354,26.755,290.055,25.99z"/>
<path d="M311.076,315.81c4.146,0,7.507-3.361,7.507-7.507c0-4.146-3.361-7.507-7.507-7.507h-7.694c-4.146,0-7.507,3.361-7.507,7.507
	c0,4.146,3.361,7.507,7.507,7.507H311.076z"/>
<path d="M307.871,376.545h20.086c4.146,0,7.507-3.361,7.507-7.507c0-4.146-3.361-7.507-7.507-7.507h-20.086
	c-4.146,0-7.507,3.361-7.507,7.507C300.364,373.184,303.725,376.545,307.871,376.545z"/>
<path d="M185.84,296.22c-4.146,0-7.507,3.361-7.507,7.507c0,4.146,3.361,7.507,7.507,7.507h7.693c4.146,0,7.507-3.361,7.507-7.507
	c0-4.146-3.361-7.507-7.507-7.507H185.84z"/>
<path d="M227.985,320.656v21.68c0,6.9,5.613,12.512,12.512,12.512h30.712c6.9,0,12.512-5.613,12.512-12.512v-21.68
	c0-15.367-12.501-27.868-27.868-27.868S227.985,305.289,227.985,320.656z M268.707,320.656v19.178H243v-19.178
	c0-7.088,5.766-12.854,12.854-12.854S268.707,313.568,268.707,320.656z"/>
<path d="M499.068,400.569h-24.222c-6.9,0-12.512,5.612-12.512,12.512v6.232h-33.7v-6.232c0-6.9-5.612-12.512-12.512-12.512h-23.976
	c-6.9,0-12.512,5.612-12.512,12.512v6.232h-17.838v-54.287c0-4.146-3.361-7.507-7.507-7.507c-4.146,0-7.507,3.361-7.507,7.507
	v131.96h-30.437v-59.104c0-33.356-27.137-60.492-60.492-60.492c-15.87,0-30.866,6.1-42.226,17.177
	c-11.339,11.056-17.818,25.851-18.243,41.662c-0.112,4.145,3.158,7.594,7.302,7.707c4.138,0.107,7.594-3.158,7.707-7.302
	c0.319-11.882,5.191-23.003,13.715-31.315c8.54-8.327,19.814-12.913,31.745-12.913c25.077,0,45.478,20.401,45.478,45.478v59.104
	h-90.954v-14.512c0-4.146-3.361-7.507-7.507-7.507c-4.146,0-7.507,3.361-7.507,7.507v14.511h-30.437V356.872h8.845
	c4.146,0,7.507-3.361,7.507-7.507c0-4.146-3.361-7.507-7.507-7.507h-8.845v-68.824h181.859v45.78c0,4.146,3.361,7.507,7.507,7.507
	c4.146,0,7.507-3.361,7.507-7.507v-50.367c0.016-0.039,0.039-0.073,0.055-0.112c1.677-4.151,3.348-8.303,5.023-12.455
	c2.658-6.59,5.315-13.18,7.973-19.77c0.982-2.435,1.964-4.87,2.946-7.305c0.275-0.683,0.51-1.404,0.833-2.066
	c1.079-2.215,0.862-3.25,0.861-5.724c0-9.959,0-19.919,0-29.877c0-13.635,0-27.271,0-40.907c0-6.877,0-13.754,0-20.63
	c0-6.9-5.612-12.512-12.512-12.512h-29.767c-6.9,0-12.512,5.613-12.512,12.512v6.648h-13.644V92.623
	c0-6.9-5.612-12.512-12.512-12.512h-35.176V54.684h39.064c3.769,0,7.185-2.229,8.703-5.678c1.518-3.449,0.856-7.473-1.69-10.253
	l-10.447-11.411l10.447-11.411c2.544-2.78,3.208-6.804,1.69-10.253C309.613,2.229,306.197,0,302.429,0h-46.576
	c-4.146,0-7.507,3.361-7.507,7.507v39.669c0,0.023,0.003,0.045,0.003,0.068v32.868h-35.183c-6.9,0-12.512,5.613-12.512,12.512
	v43.623H187.01V129.6c0-6.9-5.613-12.512-12.512-12.512H144.73c-6.9,0-12.512,5.613-12.512,12.512c0,6.629,0,13.257,0,19.886
	c0,13.326,0,26.652,0,39.978c0,10.207,0,20.414,0,30.621c0,1.839-0.161,4.033,0.512,5.773c0.012,0.032,0.02,0.065,0.032,0.098
	l0.035,0.086c0.006,0.014,0.011,0.028,0.017,0.041l17.039,42.253c0.016,0.039,0.039,0.073,0.055,0.112v150.867h-17.542v-6.232
	c0-6.9-5.613-12.512-12.512-12.512H95.879c-6.9,0-12.512,5.612-12.512,12.512v6.232H49.668v-6.232c0-6.9-5.613-12.512-12.512-12.512
	H12.934c-6.9,0-12.512,5.612-12.512,12.512v91.412c0,4.146,3.361,7.507,7.507,7.507h194.941h105.969h195.235
	c4.146,0,7.507-3.361,7.507-7.507v-91.412C511.581,406.181,505.967,400.569,499.068,400.569z M263.364,15.015h26.56l-5.406,5.906
	c-3.35,3.66-3.351,9.18,0,12.843l5.406,5.906h-26.56V15.015z M149.909,496.985H15.436v-31.137h14.06
	c4.146,0,7.507-3.361,7.507-7.507c0-4.146-3.361-7.507-7.507-7.507h-14.06v-35.251h19.217v6.232c0,6.9,5.613,12.512,12.512,12.512
	H85.87c6.9,0,12.512-5.612,12.512-12.512v-6.232h18.97v6.232c0,6.9,5.613,12.512,12.512,12.512h20.045V496.985z M215.669,95.126
	h80.368v41.12h-12.932v-6.648c0-6.9-5.613-12.512-12.512-12.512h-29.48c-6.9,0-12.512,5.613-12.512,12.512v6.648h-12.932
	L215.669,95.126L215.669,95.126z M147.234,215.639v-83.537h24.762v6.648c0,6.9,5.613,12.512,12.512,12.512h46.596
	c6.9,0,12.512-5.613,12.512-12.512v-6.648h24.475v6.648c0,6.9,5.613,12.512,12.512,12.512h46.596c6.9,0,12.512-5.613,12.512-12.512
	v-6.648h24.762v83.537H147.234z M150.848,230.654h210.01l-10.945,27.14H161.793L150.848,230.654z M496.566,496.985H361.797v-62.658
	h20.34c6.9,0,12.512-5.612,12.512-12.512v-6.232h18.97v6.232c0,6.9,5.613,12.512,12.512,12.512h38.705
	c6.9,0,12.512-5.612,12.512-12.512v-6.232h19.217V496.985z"/>
<path d="M458.508,478.47c0,4.146,3.361,7.507,7.507,7.507h14.368c4.146,0,7.507-3.361,7.507-7.507c0-4.146-3.361-7.507-7.507-7.507
	h-14.368C461.87,470.963,458.508,474.324,458.508,478.47z"/>
<path d="M137.77,443.936h-20.086c-4.146,0-7.507,3.361-7.507,7.507c0,4.146,3.361,7.507,7.507,7.507h20.086
	c4.146,0,7.507-3.361,7.507-7.507C145.278,447.297,141.916,443.936,137.77,443.936z"/>
<path d="M424.22,448.776h-20.086c-4.146,0-7.507,3.361-7.507,7.507c0,4.146,3.361,7.507,7.507,7.507h20.086
	c4.146,0,7.507-3.361,7.507-7.507C431.727,452.137,428.367,448.776,424.22,448.776z"/>
<path d="M86.057,465.958h-7.694c-4.146,0-7.507,3.361-7.507,7.507c0,4.146,3.361,7.507,7.507,7.507h7.694
	c4.146,0,7.507-3.361,7.507-7.507C93.564,469.319,90.204,465.958,86.057,465.958z"/>
<g>
</g>
<g>
</g>
<g>
</g>
<g>
</g>
<g>
</g>
<g>
</g>
<g>
</g>
<g>
</g>
<g>
</g>
<g>
</g>
<g>
</g>
<g>
</g>
<g>
</g>
<g>
</g>
<g>
</g>
</svg>
