<?xml version="1.0" encoding="iso-8859-1"?>
<!-- Generator: Adobe Illustrator 19.0.0, SVG Export Plug-In . SVG Version: 6.00 Build 0)  -->
<svg version="1.1" id="Capa_1" xmlns="http://www.w3.org/2000/svg" xmlns:xlink="http://www.w3.org/1999/xlink" x="0px" y="0px"
	 viewBox="0 0 512 512" style="enable-background:new 0 0 512 512;" xml:space="preserve">
<path style="fill:#FF961D;" d="M272.161,137.232h-32.32c-5.62,0-10.176-4.556-10.176-10.176V72.345
	c0-5.62,4.556-10.176,10.176-10.176h32.32c5.62,0,10.176,4.556,10.176,10.176v54.712
	C282.336,132.676,277.78,137.232,272.161,137.232z"/>
<path style="fill:#EF8318;" d="M282.337,72.345v54.715c0,5.616-4.555,10.17-10.18,10.17H245.82c5.626,0,10.18-4.555,10.18-10.17
	V72.345c0-5.616-4.555-10.18-10.18-10.18h26.336C277.782,62.165,282.337,66.73,282.337,72.345z"/>
<circle style="fill:#FF961D;" cx="256.006" cy="308.938" r="195.555"/>
<path style="fill:#EF8318;" d="M451.556,308.941c0,107.998-87.557,195.555-195.555,195.555c-60.851,0-115.205-27.798-151.071-71.381
	c33.513,26.937,76.086,43.063,122.432,43.063c108.008,0,195.555-87.557,195.555-195.555c0-47.147-16.687-90.39-44.464-124.154
	C423.027,192.305,451.556,247.29,451.556,308.941z"/>
<circle style="fill:#D5F0F7;" cx="256.006" cy="308.938" r="151.421"/>
<path style="fill:#A6DFE8;" d="M407.422,308.941c0,83.623-67.798,151.421-151.421,151.421c-48.649,0-91.952-22.953-119.649-58.618
	c24.675,17.447,54.805,27.698,87.317,27.698c83.623,0,151.421-67.788,151.421-151.411c0-34.975-11.852-67.177-31.772-92.813
	C382.096,212.635,407.422,257.83,407.422,308.941z"/>
<path style="fill:#FF4F19;" d="M197.064,256.455l29.818,78.696c0.508,1.34,1.567,2.398,2.907,2.907l78.694,29.82
	c4.033,1.529,7.982-2.42,6.453-6.453l-29.818-78.696c-0.508-1.34-1.567-2.398-2.907-2.907l-78.694-29.82
	C199.484,248.473,195.536,252.422,197.064,256.455z"/>
<path style="fill:#E23D17;" d="M308.483,367.88l-13.654-5.175l-22.643-59.75c-0.511-1.341-1.562-2.402-2.903-2.913l-65.045-24.645
	l-7.177-18.939c-1.522-4.034,2.422-7.988,6.456-6.456l78.689,29.82c1.341,0.51,2.402,1.562,2.913,2.903l29.82,78.699
	C316.461,365.458,312.517,369.402,308.483,367.88z"/>
<path d="M289.843,108.715V84.796c9.432-8.964,15.338-21.604,15.338-35.613C305.182,22.063,283.119,0,256,0
	s-49.182,22.063-49.182,49.182c0,14.011,5.904,26.658,15.338,35.624v23.909c-95.914,16.16-169.218,99.787-169.218,200.225
	C52.939,420.907,144.032,512,256,512c37.53,0,74.195-10.321,106.03-29.848c3.534-2.168,4.642-6.791,2.474-10.324
	c-2.169-3.535-6.79-4.644-10.325-2.474c-29.469,18.077-63.419,27.632-98.178,27.632c-103.689,0-188.046-84.357-188.046-188.046
	S152.311,120.894,256,120.894s188.046,84.357,188.046,188.046c0,49.874-19.323,96.858-54.41,132.298
	c-2.917,2.947-2.894,7.7,0.054,10.617c2.946,2.917,7.699,2.894,10.617-0.053c37.889-38.269,58.755-89.006,58.755-142.862
	C459.061,208.501,385.758,124.875,289.843,108.715z M256,15.015c18.84,0,34.167,15.327,34.167,34.167
	c0,4.95-1.067,9.653-2.971,13.902c-3.118-5.044-8.683-8.422-15.036-8.422h-32.319c-6.354,0-11.921,3.38-15.038,8.426
	c-1.904-4.25-2.969-8.954-2.969-13.905C221.833,30.342,237.16,15.015,256,15.015z M237.172,106.76V72.345
	c0-1.471,1.197-2.669,2.669-2.669h32.319c1.471,0,2.669,1.197,2.669,2.669v34.414c-6.202-0.573-12.479-0.881-18.829-0.881
	C249.65,105.879,243.374,106.186,237.172,106.76z"/>
<path d="M114.495,254.413c-3.943-1.3-8.183,0.844-9.479,4.783c-5.27,16.005-7.942,32.741-7.942,49.744
	c0,87.631,71.294,158.926,158.926,158.926s158.926-71.294,158.926-158.926s-71.294-158.926-158.926-158.926
	c-50.823,0-98.981,24.611-128.82,65.833c-2.431,3.358-1.68,8.052,1.68,10.483c3.357,2.432,8.051,1.68,10.483-1.679
	c27.025-37.333,70.634-59.623,116.657-59.623c79.352,0,143.911,64.558,143.911,143.911S335.354,452.85,256,452.85
	S112.09,388.292,112.09,308.939c0-15.404,2.418-30.561,7.189-45.047C120.575,259.953,118.434,255.71,114.495,254.413z"/>
<path d="M157.467,308.939c0,4.146,3.36,7.507,7.507,7.507h46.793l7.174,18.934l-32.616,32.616c-2.932,2.932-2.932,7.686,0,10.617
	c1.466,1.465,3.388,2.199,5.309,2.199s3.843-0.733,5.309-2.199l32.615-32.615l18.934,7.175v46.792c0,4.146,3.36,7.507,7.507,7.507
	c4.147,0,7.508-3.361,7.508-7.507v-41.102l42.314,16.035c1.476,0.56,2.994,0.833,4.491,0.833c3.236,0,6.378-1.274,8.79-3.686
	c3.527-3.528,4.62-8.617,2.853-13.28l-16.034-42.317h41.103c4.147,0,7.508-3.361,7.508-7.507c0-4.146-3.36-7.508-7.508-7.508
	h-46.793l-7.174-18.933l32.616-32.616c2.932-2.932,2.932-7.686,0-10.617c-2.933-2.932-7.686-2.932-10.618,0l-32.615,32.615
	l-18.934-7.175v-46.792c0-4.146-3.36-7.507-7.508-7.507c-4.147,0-7.507,3.361-7.507,7.507v41.102l-42.314-16.035
	c-4.667-1.77-9.755-0.675-13.282,2.854c-3.527,3.528-4.62,8.617-2.852,13.281l-0.001-0.001l16.034,42.316h-41.103
	C160.828,301.432,157.467,304.793,157.467,308.939z M278.497,286.442l27.449,72.446l-72.443-27.451l-27.449-72.446L278.497,286.442z
	"/>
<path d="M256,196.514c4.147,0,7.508-3.361,7.508-7.507v-7.649c0-4.146-3.36-7.507-7.508-7.507c-4.147,0-7.507,3.361-7.507,7.507
	v7.649C248.493,193.153,251.853,196.514,256,196.514z"/>
<path d="M256,421.365c-4.147,0-7.507,3.361-7.507,7.508v7.649c0,4.146,3.36,7.507,7.507,7.507c4.147,0,7.508-3.361,7.508-7.507
	v-7.649C263.508,424.726,260.147,421.365,256,421.365z"/>
<path d="M383.581,316.447c4.147,0,7.508-3.361,7.508-7.507c0-4.146-3.36-7.508-7.508-7.508h-7.649c-4.147,0-7.507,3.361-7.507,7.508
	c0,4.146,3.36,7.507,7.507,7.507H383.581z"/>
<path d="M136.068,316.447c4.147,0,7.507-3.361,7.507-7.507c0-4.146-3.36-7.508-7.507-7.508h-7.649c-4.147,0-7.507,3.361-7.507,7.508
	c0,4.146,3.36,7.507,7.507,7.507H136.068z"/>
<g>
</g>
<g>
</g>
<g>
</g>
<g>
</g>
<g>
</g>
<g>
</g>
<g>
</g>
<g>
</g>
<g>
</g>
<g>
</g>
<g>
</g>
<g>
</g>
<g>
</g>
<g>
</g>
<g>
</g>
</svg>
