<?xml version="1.0" encoding="iso-8859-1"?>
<!-- Generator: Adobe Illustrator 19.0.0, SVG Export Plug-In . SVG Version: 6.00 Build 0)  -->
<svg version="1.1" id="Capa_1" xmlns="http://www.w3.org/2000/svg" xmlns:xlink="http://www.w3.org/1999/xlink" x="0px" y="0px"
	 viewBox="0 0 511.998 511.998" style="enable-background:new 0 0 511.998 511.998;" xml:space="preserve">
<path style="fill:#00AD95;" d="M282.892,260.271h-26.893h-27.61c0,0-87.254,56.484-82.115,146.419
	c1.718,30.062,15.049,58.027,37.251,75.24c38.83,30.104,106.556,30.173,145.413-0.363c21.84-17.163,35-44.811,36.765-74.511
	C371.061,316.908,282.892,260.271,282.892,260.271z"/>
<path style="fill:#039377;" d="M365.7,407.057c-1.763,29.694-14.922,57.345-36.765,74.511
	c-28.983,22.774-74.02,28.522-111.145,17.486c32.518,4.457,67.701-2.714,91.786-21.642c21.832-17.155,34.992-44.807,36.765-74.511
	c4.517-75.913-58.287-128.06-77.926-142.632h14.481C282.897,260.269,371.058,316.903,365.7,407.057z"/>
<path style="fill:#B76035;" d="M263.794,7.511H248.2c-2.296,0-4.299,1.562-4.857,3.791l-14.804,59.078
	c-0.1,0.398-0.15,0.807-0.15,1.217v188.675h55.217V71.596c0-0.411-0.05-0.819-0.15-1.217l-14.804-59.078
	C268.093,9.073,266.091,7.511,263.794,7.511z"/>
<path style="fill:#A04C27;" d="M283.608,71.599v188.67h-15.193V71.599c0-0.411-0.05-0.821-0.15-1.222L253.463,11.3
	c-0.561-2.223-2.564-3.786-4.857-3.786h15.193c2.293,0,4.296,1.562,4.857,3.786l14.802,59.078
	C283.558,70.778,283.608,71.189,283.608,71.599z"/>
<circle style="fill:#FFDBA9;" cx="255.999" cy="361.386" r="32.298"/>
<path style="fill:#FFC473;" d="M288.295,361.389c0,17.836-14.461,32.298-32.298,32.298c-9.714,0-18.417-4.286-24.336-11.076
	c3.555,1.352,7.411,2.093,11.437,2.093c17.836,0,32.298-14.461,32.298-32.298c0-8.122-3.004-15.553-7.962-21.221
	C279.632,335.791,288.295,347.569,288.295,361.389z"/>
<path style="fill:#FFDBA9;" d="M280.981,457.561h-49.969v-11.429c0-5.456,4.424-9.88,9.88-9.88h30.21c5.456,0,9.88,4.424,9.88,9.88
	V457.561z"/>
<path style="fill:#FFC473;" d="M280.984,446.135v11.427h-13.22v-11.427c0-5.458-4.427-9.885-9.885-9.885h13.22
	C276.558,436.251,280.984,440.677,280.984,446.135z"/>
<path d="M216.188,361.385c0,21.951,17.859,39.809,39.809,39.809s39.809-17.859,39.809-39.809c0-21.951-17.858-39.809-39.809-39.809
	S216.188,339.435,216.188,361.385z M280.784,361.385c0,13.667-11.12,24.787-24.787,24.787s-24.787-11.119-24.787-24.787
	s11.12-24.787,24.787-24.787S280.784,347.718,280.784,361.385z"/>
<path d="M153.719,405.235c-1.715-34.956,10.875-68.811,37.418-100.626c16.746-20.071,34.1-32.98,39.575-36.826h49.876
	c4.603,3.205,17.604,12.757,31.587,27.521c2.852,3.012,7.606,3.141,10.619,0.288c3.012-2.852,3.142-7.606,0.288-10.618
	c-13.372-14.12-25.75-23.687-31.964-28.152v-26.313c0-0.014,0-0.028,0-0.042v-37.411c0-0.014,0-0.028,0-0.042v-37.41
	c0-0.014,0-0.028,0-0.042v-54.67h14.955c4.149,0,7.511-3.363,7.511-7.511s-3.362-7.511-7.511-7.511h-14.955V75.856h14.131
	c4.149,0,7.511-3.363,7.511-7.511s-3.362-7.511-7.511-7.511h-16.44l-2.51-10.015h13.105c4.149,0,7.511-3.363,7.511-7.511
	s-3.362-7.511-7.511-7.511h-16.87l-2.51-10.015h11.869c4.149,0,7.511-3.363,7.511-7.511s-3.362-7.511-7.511-7.511h-15.633
	l-0.322-1.285C274.538,3.897,269.545,0,263.794,0h-15.593c-5.752,0-10.745,3.897-12.144,9.475l-0.321,1.284h-15.632
	c-4.149,0-7.511,3.363-7.511,7.511s3.362,7.511,7.511,7.511h11.869l-2.51,10.015h-16.87c-4.149,0-7.511,3.363-7.511,7.511
	s3.362,7.511,7.511,7.511h13.105l-2.51,10.015h-16.441c-4.149,0-7.511,3.363-7.511,7.511s3.362,7.511,7.511,7.511h14.131V85.87
	h-13.192c-4.149,0-7.511,3.363-7.511,7.511s3.362,7.511,7.511,7.511h13.192v23.95c0,0.014,0,0.028,0,0.042v37.41
	c0,0.014,0,0.028,0,0.042v37.41c0,0.014,0,0.028,0,0.042v56.541c-7.118,5.089-24.15,18.217-40.974,38.295
	c-28.83,34.407-43.074,72.91-41.189,111.346c0.197,4.018,3.517,7.144,7.496,7.144c0.124,0,0.248-0.003,0.374-0.009
	C150.728,412.902,153.922,409.379,153.719,405.235z M235.899,71.904l14.254-56.881h11.687l14.253,56.881v13.968h-40.195V71.904z
	 M235.899,100.894h40.195v41.877l-40.195-22.268V100.894z M235.899,137.677l40.195,22.267v20.278l-40.195-22.268V137.677z
	 M235.899,175.129l40.195,22.267v20.278l-40.195-22.268V175.129z M235.899,212.581l40.195,22.268v17.912h-40.195V212.581z"/>
<path d="M352.263,323.677c-2.075-3.592-6.667-4.822-10.261-2.749c-3.592,2.075-4.822,6.669-2.748,10.261
	c14.099,24.415,20.475,49.791,18.953,75.421c-1.681,28.269-14.04,53.436-33.908,69.05c-36.139,28.398-99.769,28.554-136.17,0.333
	c-9.524-7.384-17.352-16.935-23.267-28.388c-1.904-3.686-6.437-5.13-10.12-3.227c-3.686,1.904-5.131,6.435-3.228,10.12
	c6.925,13.408,16.147,24.634,27.41,33.366c19.79,15.343,47.883,24.134,77.107,24.134c0.066,0,0.135,0,0.201,0
	c29.805-0.041,57.273-8.751,77.347-24.526c23.245-18.267,37.688-47.415,39.622-79.971
	C374.902,378.885,367.857,350.684,352.263,323.677z"/>
<path d="M271.103,428.741h-30.211c-9.588,0-17.39,7.802-17.39,17.391v3.919h-6.801c-3.417,0-6.34-2.325-7.11-5.657l-0.356-1.541
	c-0.933-4.042-4.968-6.563-9.008-5.628c-4.042,0.933-6.563,4.966-5.628,9.009l0.356,1.539c2.35,10.186,11.292,17.301,21.746,17.301
	h14.312h49.969h14.312c10.454,0,19.396-7.115,21.746-17.299l0.356-1.541c0.934-4.042-1.586-8.075-5.628-9.009
	c-4.033-0.933-8.075,1.585-9.008,5.628l-0.356,1.543c-0.769,3.33-3.692,5.655-7.11,5.655h-6.801v-3.919
	C288.492,436.543,280.691,428.741,271.103,428.741z M273.47,450.05h-34.947v-3.919c0-1.306,1.063-2.368,2.368-2.368h30.211
	c1.306,0,2.368,1.063,2.368,2.368L273.47,450.05L273.47,450.05z"/>
<g>
</g>
<g>
</g>
<g>
</g>
<g>
</g>
<g>
</g>
<g>
</g>
<g>
</g>
<g>
</g>
<g>
</g>
<g>
</g>
<g>
</g>
<g>
</g>
<g>
</g>
<g>
</g>
<g>
</g>
</svg>
