<?xml version="1.0" encoding="iso-8859-1"?>
<!-- Generator: Adobe Illustrator 19.0.0, SVG Export Plug-In . SVG Version: 6.00 Build 0)  -->
<svg version="1.1" id="Capa_1" xmlns="http://www.w3.org/2000/svg" xmlns:xlink="http://www.w3.org/1999/xlink" x="0px" y="0px"
	 viewBox="0 0 512 512" style="enable-background:new 0 0 512 512;" xml:space="preserve">
<path style="fill:#6B6C8A;" d="M405.081,132.49c-0.049-13.202-1.885-26.503-5.739-39.937c-4-13.942-9.479-27.43-15.583-40.572
	c-6.63-14.274-13.894-28.459-22.206-41.879c-1.645-2.656-5.17-3.414-7.755-1.657l-140.512,95.476v27.704v1.728v27.704
	c0,0,115.711,78.624,140.543,95.497c2.551,1.734,6.044,1.03,7.695-1.576c12.761-20.138,24.218-41.241,32.493-63.644
	C401.206,171.867,405.154,152.29,405.081,132.49z"/>
<path style="fill:#5D5F7A;" d="M405.076,132.487c0.08,19.8-3.87,39.381-11.06,58.851c-8.28,22.4-19.73,43.501-32.49,63.641
	c-1.65,2.61-5.15,3.31-7.7,1.58c-2.91-1.98-7.07-4.81-12.15-8.26c11.09-18.11,20.97-37.02,28.34-56.961
	c7.19-19.47,11.14-39.051,11.06-58.851c-0.04-13.2-1.88-26.5-5.74-39.931c-4-13.95-9.47-27.43-15.58-40.571
	c-5.54-11.94-11.53-23.81-18.2-35.22l12.24-8.32c2.59-1.76,6.11-1,7.76,1.66c8.31,13.42,15.57,27.6,22.2,41.881
	c6.11,13.14,11.58,26.62,15.59,40.571C403.196,105.986,405.036,119.286,405.076,132.487z"/>
<path style="fill:#FFDBA9;" d="M213.284,191.566h-66.357V80.029c0-2.761,2.239-5,5-5h56.357c2.761,0,5,2.239,5,5L213.284,191.566
	L213.284,191.566z"/>
<path style="fill:#FFC473;" d="M213.284,191.566h-24.001V75.029h19.001c2.761,0,5,2.239,5,5L213.284,191.566L213.284,191.566z"/>
<path style="fill:#B76035;" d="M208.284,504.5h-56.357c-2.761,0-5-2.239-5-5V191.566h66.357V499.5
	C213.284,502.261,211.046,504.5,208.284,504.5z"/>
<path style="fill:#A04C27;" d="M213.284,191.567v307.934c0,2.761-2.239,5-5,5h-19V191.567H213.284z"/>
<path style="fill:#6B6C8A;" d="M146.928,163.998h-35.005c-2.761,0-5-2.239-5-5v-52.995c0-2.761,2.239-5,5-5h35.005V163.998z"/>
<path d="M406.55,90.485c-3.706-12.917-8.787-26.156-15.99-41.663c-7.66-16.493-15.064-30.451-22.632-42.669
	c-1.857-2.997-4.9-5.137-8.347-5.871c-3.441-0.734-7.087-0.018-9.999,1.959l-64.463,43.802c-3.427,2.328-4.316,6.993-1.988,10.419
	c2.329,3.426,6.994,4.315,10.418,1.988l62.72-42.618c6.874,11.283,13.654,24.167,20.687,39.309
	c6.867,14.784,11.69,27.329,15.176,39.481c3.568,12.437,5.401,25.186,5.448,37.896c0.068,18.335-3.4,36.724-10.601,56.217
	c-6.994,18.934-17.033,38.723-30.666,60.441l-135.53-92.091v-49.192l34.681-23.565c3.426-2.328,4.316-6.993,1.988-10.419
	c-2.328-3.426-6.994-4.316-10.419-1.988l-26.25,17.837v-9.729c0-6.893-5.607-12.5-12.5-12.5h-56.357c-6.893,0-12.5,5.607-12.5,12.5
	v13.474h-27.505c-6.893,0-12.5,5.607-12.5,12.5v52.995c0,6.893,5.607,12.5,12.5,12.5h27.505v20.068v41.932
	c0,4.142,3.358,7.5,7.5,7.5s7.5-3.358,7.5-7.5v-34.432h51.357v127.086h-51.357v-45.821c0-4.142-3.358-7.5-7.5-7.5
	s-7.5,3.358-7.5,7.5V499.5c0,6.893,5.607,12.5,12.5,12.5h56.357c6.893,0,12.5-5.607,12.5-12.5V191.566v-16.345l128.827,87.536
	c2.163,1.47,4.734,2.243,7.325,2.243c0.875,0,1.752-0.088,2.616-0.268c3.464-0.718,6.413-2.757,8.304-5.741
	c14.779-23.324,25.637-44.605,33.193-65.059c7.725-20.909,11.604-41.591,11.53-61.471
	C412.529,118.372,410.499,104.248,406.55,90.485z M114.423,156.498v-47.995h25.005v47.995H114.423z M154.428,184.066v-20.068
	v-62.995V82.529h51.357v21.393v57.135v23.01L154.428,184.066L154.428,184.066z M154.428,398.449l51.357,17.891v12.417
	l-51.357-17.891V398.449z M205.784,400.456l-51.357-17.891v-12.417l51.357,17.891V400.456z M154.428,426.751l51.357,17.891v6.006
	h-51.357V426.751z M205.784,341.153v31.002l-51.357-17.891v-13.111L205.784,341.153L205.784,341.153z M154.428,497v-31.352h51.357
	V497H154.428z"/>
<g>
</g>
<g>
</g>
<g>
</g>
<g>
</g>
<g>
</g>
<g>
</g>
<g>
</g>
<g>
</g>
<g>
</g>
<g>
</g>
<g>
</g>
<g>
</g>
<g>
</g>
<g>
</g>
<g>
</g>
</svg>
