<?xml version="1.0" encoding="iso-8859-1"?>
<!-- Generator: Adobe Illustrator 19.0.0, SVG Export Plug-In . SVG Version: 6.00 Build 0)  -->
<svg version="1.1" id="Capa_1" xmlns="http://www.w3.org/2000/svg" xmlns:xlink="http://www.w3.org/1999/xlink" x="0px" y="0px"
	 viewBox="0 0 511.999 511.999" style="enable-background:new 0 0 511.999 511.999;" xml:space="preserve">
<path style="fill:#B7C1CA;" d="M265.102,99.106L265.102,99.106h-9.103h-9.102h-0.001c-91.48,0-165.639,74.159-165.639,165.64v221.71
	c0,9.965,8.078,18.043,18.043,18.043h80.259c3.005,0,5.337-2.622,4.987-5.607L168.924,365.92c-0.186-1.579-1.108-2.977-2.487-3.769
	l-29.611-17.002c-1.559-0.895-2.521-2.556-2.521-4.354v-59.308c0-2.746,2.206-4.982,4.951-5.021l77.313-1.076
	c2.963-0.041,5.317,2.479,5.074,5.433l-7.387,89.717c-0.104,1.266,0.275,2.525,1.062,3.522l36.739,46.558
	c2.01,2.548,5.873,2.548,7.883,0l36.739-46.558c0.787-0.997,1.167-2.256,1.063-3.522l-7.387-89.717
	c-0.243-2.953,2.111-5.474,5.074-5.433l77.313,1.076c2.746,0.038,4.951,2.275,4.951,5.021v62.215l-32.132,18.449
	c-1.379,0.792-2.301,2.19-2.487,3.769l-15.622,132.972c-0.351,2.985,1.982,5.607,4.987,5.607h80.26
	c9.965,0,18.043-8.078,18.043-18.043v-221.71C430.741,173.266,356.582,99.106,265.102,99.106z"/>
<path style="fill:#A3AEB7;" d="M430.744,264.744v221.712c0,9.962-8.084,18.046-18.046,18.046h-30.679
	c9.962,0,18.046-8.084,18.046-18.046V264.744c0-89.386-70.808-162.242-159.4-165.526c2.069-0.07,4.147-0.11,6.236-0.11h18.197
	C356.582,99.108,430.744,173.269,430.744,264.744z"/>
<path style="fill:#FF4F19;" d="M236.163,8.965c-4.228,0.627-8.781,1.427-13.285,2.441c-9.433,2.123-15.384,10.463-13.552,19.018
	l20.924,97.673c0.538,2.509,2.989,4.323,5.842,4.323h19.907h19.907c2.853,0,5.305-1.814,5.842-4.323l20.924-97.673
	c1.832-8.554-4.119-16.894-13.552-19.018c-4.504-1.014-9.057-1.814-13.285-2.441C262.702,7.018,249.296,7.018,236.163,8.965z"/>
<path style="fill:#E23D17;" d="M302.673,30.419l-20.928,97.677c-0.535,2.514-2.986,4.325-5.842,4.325h-25.151
	c2.843,0,5.306-1.811,5.842-4.325l20.916-97.677c1.832-8.545-4.117-16.887-13.551-19.018c-4.497-1.012-9.054-1.811-13.277-2.44
	c-2.415-0.352-4.83-0.65-7.258-0.873c10.791-1.002,21.689-0.714,32.409,0.873c4.236,0.629,8.78,1.428,13.29,2.44
	C298.556,13.532,304.505,21.875,302.673,30.419z"/>
<path d="M416.822,181.263c-2.001-3.629-6.564-4.948-10.191-2.947c-3.628,2-4.948,6.563-2.947,10.191
	c12.794,23.204,19.556,49.567,19.556,76.239v221.71c0,5.812-4.729,10.541-10.541,10.541h-77.471l15.152-128.963l31.049-17.827
	c2.33-1.338,3.766-3.819,3.766-6.505v-62.215c0-6.81-5.54-12.427-12.348-12.521l-77.313-1.076c-3.523-0.051-6.921,1.4-9.326,3.974
	c-2.404,2.574-3.617,6.064-3.328,9.574l7.306,88.745l-34.187,43.323l-34.187-43.323l7.306-88.744c0.289-3.51-0.924-7-3.328-9.575
	c-2.404-2.574-5.778-4.02-9.326-3.974l-77.312,1.075c-6.809,0.095-12.349,5.711-12.349,12.521v59.308
	c0,4.471,2.409,8.632,6.287,10.86l28.528,16.38l5.141,43.756c0.483,4.115,4.214,7.063,8.325,6.575
	c4.115-0.484,7.058-4.211,6.575-8.325l-5.286-44.997c-0.461-3.919-2.779-7.432-6.202-9.398l-28.365-16.287v-55.426l72.137-1.004
	l-7.162,86.995c-0.261,3.169,0.679,6.289,2.649,8.786l36.739,46.557c2.39,3.029,5.973,4.766,9.831,4.766
	c3.858,0,7.441-1.737,9.83-4.766l36.74-46.558c1.97-2.497,2.91-5.617,2.649-8.784l-7.162-86.996l72.137,1.004v55.426l-28.366,16.287
	c-3.422,1.965-5.74,5.478-6.201,9.398l-15.622,132.972c-0.417,3.548,0.706,7.114,3.08,9.783c2.374,2.669,5.785,4.2,9.357,4.2h80.257
	c14.085,0,25.544-11.459,25.544-25.544v-221.71C438.242,235.547,430.835,206.679,416.822,181.263z"/>
<path d="M187.214,457.314c-0.483-4.115-4.214-7.06-8.325-6.575c-4.115,0.483-7.058,4.211-6.575,8.325l4.457,37.933h-77.47
	c-5.813,0-10.541-4.729-10.541-10.541v-221.71c0-77.513,56.061-142.168,129.765-155.576l4.391,20.499
	c1.273,5.942,6.815,10.253,13.177,10.253h39.815c6.362,0,11.904-4.312,13.177-10.254l4.398-20.53
	c31.589,5.689,60.641,20.855,83.76,44.107c2.921,2.938,7.671,2.952,10.608,0.03c2.938-2.921,2.951-7.671,0.03-10.608
	c-25.202-25.346-56.843-41.916-91.254-48.207l13.381-62.465c2.702-12.613-5.749-24.871-19.239-27.907
	c-4.251-0.957-8.905-1.812-13.833-2.543c-13.892-2.06-27.981-2.06-41.873,0c-4.928,0.731-9.582,1.587-13.833,2.543
	c-13.49,3.036-21.941,15.294-19.239,27.907l13.39,62.504c-80.473,14.862-141.625,85.538-141.625,170.246v221.71
	c0,14.085,11.459,25.544,25.544,25.544h80.259c3.572,0,6.983-1.531,9.357-4.2s3.497-6.236,3.08-9.784L187.214,457.314z
	 M224.525,18.725c3.89-0.876,8.177-1.663,12.739-2.339c12.432-1.844,25.039-1.844,37.472,0c4.562,0.676,8.848,1.464,12.739,2.339
	c5.368,1.208,8.822,5.657,7.864,10.128l-20.58,96.066h-37.518l-20.58-96.066C215.703,24.382,219.158,19.933,224.525,18.725z"/>
<g>
</g>
<g>
</g>
<g>
</g>
<g>
</g>
<g>
</g>
<g>
</g>
<g>
</g>
<g>
</g>
<g>
</g>
<g>
</g>
<g>
</g>
<g>
</g>
<g>
</g>
<g>
</g>
<g>
</g>
</svg>
