<?xml version="1.0" encoding="iso-8859-1"?>
<!-- Generator: Adobe Illustrator 19.0.0, SVG Export Plug-In . SVG Version: 6.00 Build 0)  -->
<svg version="1.1" id="Capa_1" xmlns="http://www.w3.org/2000/svg" xmlns:xlink="http://www.w3.org/1999/xlink" x="0px" y="0px"
	 viewBox="0 0 512 512" style="enable-background:new 0 0 512 512;" xml:space="preserve">
<path style="fill:#B76035;" d="M504.266,272.818H7.508v-89.769c0-43.316,35.115-78.432,78.432-78.432h339.895
	c43.316,0,78.432,35.115,78.432,78.432v89.769H504.266z"/>
<path style="fill:#A04C27;" d="M504.263,183.053v89.766h-20.632v-89.766c0-43.316-35.118-78.434-78.434-78.434h20.642
	C469.155,104.619,504.263,139.736,504.263,183.053z"/>
<path style="fill:#B76035;" d="M499.26,457.717H12.513c-2.764,0-5.005-2.241-5.005-5.005V272.818h496.758v179.894
	C504.266,455.476,502.025,457.717,499.26,457.717z"/>
<path style="fill:#FFDBA9;" d="M7.508,452.712V272.818h41.726v184.9h-36.72C9.749,457.717,7.508,455.476,7.508,452.712z"/>
<rect x="28.374" y="272.822" style="fill:#FFC473;" width="20.862" height="184.898"/>
<path style="fill:#FFDBA9;" d="M462.766,457.717v-184.9h41.726v179.894c0,2.764-2.241,5.005-5.005,5.005H462.766z"/>
<path style="fill:#FFC473;" d="M504.493,273.019v179.692c0,2.763-2.242,5.005-5.005,5.005h-15.857V273.019H504.493z"/>
<rect x="49.233" y="272.822" style="fill:#FFDBA9;" width="155.486" height="41.726"/>
<rect x="180.102" y="272.822" style="fill:#FFC473;" width="24.613" height="41.726"/>
<path style="fill:#FFDBA9;" d="M273.668,356.269h-35.563c-18.439,0-33.387-14.948-33.387-33.387v-50.064h102.337v50.064
	C307.056,341.321,292.108,356.269,273.668,356.269z"/>
<path style="fill:#FFC473;" d="M307.052,272.819v50.063c0,18.44-14.946,33.386-33.386,33.386h-19.601
	c18.44,0,33.386-14.946,33.386-33.386v-50.063H307.052z"/>
<rect x="307.058" y="272.822" style="fill:#FFDBA9;" width="155.706" height="41.726"/>
<rect x="438.158" y="272.822" style="fill:#FFC473;" width="24.613" height="41.726"/>
<path style="fill:#FF961D;" d="M7.508,384.621c0,0,69.855,7.082,75.194,73.096H12.513c-2.764,0-5.005-2.241-5.005-5.005V384.621z"/>
<path style="fill:#EF8318;" d="M82.702,457.716H60.097c-10.892-35.428-35.247-48.392-52.585-52.876v-20.222
	C7.512,384.618,77.367,391.706,82.702,457.716z"/>
<path style="fill:#FF961D;" d="M504.492,384.621c0,0-69.855,7.082-75.194,73.096h70.189c2.764,0,5.005-2.241,5.005-5.005V384.621z"
	/>
<path style="fill:#EF8318;" d="M429.298,457.716h21.162c10.892-35.428,36.69-48.392,54.029-52.876v-20.222
	C504.488,384.618,434.633,391.706,429.298,457.716z"/>
<path style="fill:#FF961D;" d="M451.678,273.014c-7.187-17.32,6.103-42.969-7.305-57.386c-13.541-14.562-48.91-12.545-67.517-23.142
	c-18.423-10.492-26.828-37.496-48.96-43.12c-21.355-5.426-48.341,12.377-72.007,12.377c-23.667,0-50.653-17.804-72.008-12.377
	c-22.133,5.624-30.537,32.628-48.959,43.12c-18.607,10.597-53.976,8.581-67.517,23.142c-13.407,14.417-0.119,40.066-7.306,57.386
	H451.678z"/>
<path style="fill:#EF8318;" d="M451.677,273.009h-30.402c-1.712-16.968,7.989-26.963-3.714-39.536
	c-13.995-15.056-50.834-18.576-70.075-29.528c-19.04-10.842-29.171-44.037-52.046-49.853c-0.891-0.23-1.802-0.41-2.713-0.561
	c12.383-3.774,24.486-6.877,35.168-4.164c22.134,5.626,30.543,32.625,48.962,43.116c18.61,10.601,53.978,8.579,67.512,23.145
	C457.783,230.043,444.489,255.69,451.677,273.009z"/>
<path d="M74.385,127.669c-3.422,2.341-4.298,7.013-1.957,10.436l19.52,28.529c1.455,2.126,3.808,3.268,6.204,3.268
	c1.46,0,2.937-0.425,4.234-1.312c3.422-2.342,4.298-7.013,1.957-10.436l-19.52-28.529C82.48,126.204,77.807,125.327,74.385,127.669z
	"/>
<path d="M426.953,129.627l-19.52,28.529c-2.341,3.423-1.466,8.095,1.957,10.436c1.296,0.887,2.773,1.312,4.234,1.312
	c2.396,0,4.749-1.143,6.204-3.268l19.52-28.529c2.341-3.423,1.466-8.095-1.957-10.436
	C433.967,125.33,429.294,126.205,426.953,129.627z"/>
<path style="fill:#D5F0F7;" d="M269.836,308.975c0-7.704-6.246-13.95-13.95-13.95c-7.704,0-13.95,6.246-13.95,13.95
	c0,4.086,1.768,7.75,4.568,10.302v5.401c0,5.16,4.222,9.382,9.382,9.382c5.16,0,9.382-4.222,9.382-9.382v-5.401
	C268.068,316.726,269.836,313.062,269.836,308.975z"/>
<path d="M238.997,324.678c0,9.313,7.576,16.89,16.89,16.89c9.314,0,16.89-7.576,16.89-16.89v-2.495
	c2.933-3.751,4.568-8.406,4.568-13.208c0-11.832-9.626-21.458-21.458-21.458c-11.832,0-21.458,9.626-21.458,21.458
	c0,4.802,1.635,9.458,4.568,13.208L238.997,324.678L238.997,324.678z M255.887,302.534c3.552,0,6.442,2.89,6.442,6.442
	c0,1.821-0.752,3.509-2.117,4.753c-1.562,1.423-2.451,3.438-2.451,5.549v5.401c0,1.016-0.858,1.874-1.874,1.874
	s-1.874-0.858-1.874-1.874v-5.401c0-2.112-0.89-4.126-2.451-5.549c-1.365-1.244-2.117-2.932-2.117-4.753
	C249.446,305.423,252.336,302.534,255.887,302.534z"/>
<path d="M511.775,271.021v-42.717c0-4.146-3.362-7.508-7.508-7.508s-7.508,3.362-7.508,7.508v37.005h-39.447
	c-0.793-5.077-0.303-11.092,0.208-17.366c1.026-12.585,2.189-26.851-7.649-37.429c-9.337-10.04-25.494-13.252-41.119-16.358
	c-10.417-2.071-21.19-4.213-28.18-8.195c-6.672-3.8-12.147-10.62-17.943-17.84c-8.356-10.409-17.827-22.207-32.883-26.033
	c-14.044-3.571-29.169,1.13-43.794,5.675c-10.239,3.181-20.825,6.471-30.063,6.471s-19.824-3.29-30.063-6.471
	c-14.627-4.545-29.751-9.245-43.795-5.675c-15.057,3.826-24.527,15.624-32.883,26.033c-5.796,7.22-11.271,14.04-17.943,17.84
	c-6.991,3.981-17.763,6.124-28.18,8.195c-15.625,3.106-31.782,6.319-41.119,16.358c-9.839,10.579-8.675,24.844-7.649,37.43
	c0.512,6.274,1,12.287,0.208,17.366h-5.23H15.016v-82.261c0-39.107,31.816-70.924,70.924-70.924h69.798l4.529,11.07
	c1.189,2.907,3.993,4.667,6.951,4.667c0.946,0,1.909-0.18,2.84-0.562c3.837-1.57,5.676-5.953,4.106-9.791l-2.202-5.384h76.576
	c0.708,3.412,3.729,5.975,7.351,5.975s6.642-2.564,7.351-5.975h76.576l-2.202,5.384c-1.57,3.838,0.268,8.222,4.106,9.791
	c0.931,0.38,1.893,0.562,2.84,0.562c2.958,0,5.762-1.76,6.951-4.667l4.529-11.07h69.798c39.108,0,70.924,31.816,70.924,70.924
	c0,4.146,3.362,7.508,7.508,7.508s7.508-3.362,7.508-7.508c0-47.387-38.552-85.94-85.94-85.94h-63.655l16.356-39.981
	c1.57-3.838-0.268-8.222-4.106-9.791c-3.838-1.57-8.222,0.269-9.791,4.106L345.959,97.11h-82.56V64.044
	c0-4.146-3.362-7.508-7.508-7.508c-4.146,0-7.508,3.362-7.508,7.508v33.064h-82.56L147.14,51.442
	c-1.569-3.837-5.95-5.676-9.791-4.106c-3.837,1.57-5.676,5.953-4.106,9.791l16.356,39.981H85.94C38.552,97.109,0,135.661,0,183.049
	v89.769v179.894c0,6.9,5.613,12.513,12.513,12.513h70.189h346.596h69.963h0.225c6.9,0,12.513-5.613,12.513-12.513V272.818
	C512,272.197,511.916,271.597,511.775,271.021z M455.257,280.326v26.71H314.564v-26.513L455.257,280.326z M72.901,220.74
	c6.03-6.485,19.767-9.216,33.051-11.857c11.591-2.304,23.577-4.688,32.684-9.874c9.159-5.217,15.8-13.488,22.222-21.488
	c7.55-9.406,14.683-18.291,24.872-20.879c2.192-0.558,4.508-0.803,6.929-0.803c8.552,0,18.41,3.063,28.711,6.264
	c11.308,3.514,23.003,7.148,34.519,7.148c11.516,0,23.211-3.634,34.519-7.148c13.217-4.107,25.701-7.988,35.64-5.461
	c10.189,2.589,17.322,11.473,24.873,20.879c6.422,8,13.062,16.271,22.222,21.488c9.107,5.187,21.092,7.569,32.683,9.874
	c13.284,2.641,27.02,5.373,33.051,11.857c5.33,5.731,4.565,15.116,3.679,25.983c-0.503,6.17-1.013,12.471-0.377,18.586H307.056
	H204.719H69.598c0.636-6.116,0.126-12.415-0.377-18.586C68.336,235.856,67.571,226.471,72.901,220.74z M299.548,280.522v34.021
	v8.339c0,14.269-11.609,25.879-25.879,25.879h-35.563c-14.269,0-25.879-11.609-25.879-25.879v-8.339v-34.021H299.548z
	 M15.016,280.326h26.71v34.218v72.712c-10.592-5.122-20.467-7.73-26.71-9V280.326z M15.016,450.209v-56.583
	c6.229,1.479,15.245,4.27,24.455,9.36c19.277,10.655,30.919,26.516,34.692,47.224H15.016V450.209z M422.629,450.209H89.372
	c-3.44-22.443-14.578-40.847-32.63-53.998v-74.16h51.351c4.146,0,7.508-3.362,7.508-7.508s-3.362-7.508-7.508-7.508H56.742v-26.71
	l140.469,0.196v26.513h-42.568c-4.146,0-7.508,3.362-7.508,7.508s3.362,7.508,7.508,7.508h42.568v0.831
	c0,22.549,18.346,40.895,40.895,40.895h35.563c22.549,0,40.895-18.346,40.895-40.895v-0.831h140.694v74.16
	C437.205,409.362,426.067,427.766,422.629,450.209z M496.759,450.209h-58.921c3.746-20.55,15.245-36.333,34.269-46.988
	c9.188-5.146,18.308-7.999,24.652-9.524V450.209z M496.759,378.301c-6.254,1.285-16.018,3.891-26.484,8.954v-72.712v-34.218h26.484
	V378.301z"/>
<g>
</g>
<g>
</g>
<g>
</g>
<g>
</g>
<g>
</g>
<g>
</g>
<g>
</g>
<g>
</g>
<g>
</g>
<g>
</g>
<g>
</g>
<g>
</g>
<g>
</g>
<g>
</g>
<g>
</g>
</svg>
