<?xml version="1.0" encoding="iso-8859-1"?>
<!-- Generator: Adobe Illustrator 19.0.0, SVG Export Plug-In . SVG Version: 6.00 Build 0)  -->
<svg version="1.1" id="Capa_1" xmlns="http://www.w3.org/2000/svg" xmlns:xlink="http://www.w3.org/1999/xlink" x="0px" y="0px"
	 viewBox="0 0 512 512" style="enable-background:new 0 0 512 512;" xml:space="preserve">
<path style="fill:#D5F0F7;" d="M273.445,268.35H43.955c-2.759,0-4.996-2.237-4.996-4.996v-34.077c0-2.759,2.237-4.996,4.996-4.996
	h229.49c2.759,0,4.996,2.237,4.996,4.996v34.077C278.441,266.113,276.204,268.35,273.445,268.35z"/>
<path style="fill:#A6DFE8;" d="M273.445,268.35h-17.681v-44.07h17.681c2.759,0,4.996,2.237,4.996,4.996v34.077
	C278.441,266.113,276.204,268.35,273.445,268.35z"/>
<rect x="74.27" y="268.48" style="fill:#D5F0F7;" width="168.85" height="34.11"/>
<rect x="224.97" y="268.48" style="fill:#A6DFE8;" width="18.16" height="34.11"/>
<path style="fill:#D5F0F7;" d="M166.743,298.408c-5.363-0.171-10.722-0.171-16.086,0c-23.316,0.742-91.536,3.247-127.053,8.125
	c-2.475,0.34-4.312,2.453-4.312,4.951v89.91v89.91c0,2.498,1.838,4.611,4.312,4.951c35.517,4.877,103.737,7.383,127.053,8.125
	c5.363,0.171,10.722,0.171,16.086,0c23.316-0.742,91.536-3.247,127.053-8.125c2.475-0.34,4.312-2.453,4.312-4.951v-89.91v-89.91
	c0-2.498-1.838-4.611-4.312-4.951C258.279,301.655,190.059,299.149,166.743,298.408z"/>
<path style="fill:#A6DFE8;" d="M298.111,311.484v179.824c0,2.495-1.834,4.609-4.306,4.95c-5.456,0.751-11.683,1.442-18.397,2.077
	V304.463c6.712,0.635,12.938,1.326,18.392,2.071C296.274,306.872,298.111,308.987,298.111,311.484z"/>
<path d="M294.815,299.108c-12.078-1.659-27.743-3.042-44.194-4.178v-19.086h22.823c6.887,0,12.49-5.603,12.49-12.49v-34.077
	c0-6.887-5.603-12.49-12.49-12.49H124.101c-4.139,0-7.494,3.355-7.494,7.494s3.355,7.494,7.494,7.494h146.846v29.081H46.453v-29.081
	h32.682c4.14,0,7.494-3.355,7.494-7.494c0-4.139-3.355-7.494-7.494-7.494h-35.18c-6.887,0-12.49,5.603-12.49,12.49v34.077
	c0,6.887,5.603,12.49,12.49,12.49h22.824v19.086c-16.451,1.136-32.117,2.52-44.196,4.178c-6.149,0.845-10.786,6.165-10.786,12.375
	v179.82c0,6.21,4.637,11.53,10.787,12.375c35.266,4.843,101.146,7.341,127.834,8.191c2.748,0.087,5.514,0.131,8.281,0.131
	s5.535-0.043,8.282-0.131c26.688-0.849,92.568-3.348,127.835-8.191c6.149-0.845,10.786-6.165,10.786-12.375v-179.82
	C305.602,305.273,300.965,299.953,294.815,299.108z M81.768,275.975h153.865v17.995c-27.002-1.604-53.853-2.582-68.652-3.052
	c-5.495-0.175-11.068-0.175-16.563,0c-14.798,0.471-41.649,1.448-68.651,3.052v-17.995H81.768z M290.613,489.118
	c-36.142,4.691-103.881,7.126-124.109,7.77c-5.179,0.164-10.43,0.164-15.61,0c-20.228-0.644-87.967-3.08-124.108-7.77v-175.45
	c36.153-4.692,103.884-7.126,124.108-7.77c5.18-0.165,10.431-0.165,15.61,0c20.225,0.644,87.956,3.078,124.109,7.77V489.118z"/>
<path style="fill:#FF4F19;" d="M391.773,15.795L340.451,65.49c-5.692,5.512-8.906,13.096-8.906,21.02v118.253v118.253
	c0,7.923,3.213,15.508,8.906,21.02l51.322,49.695c11.345,10.986,29.361,10.986,40.707,0l51.322-49.695
	c5.692-5.512,8.906-13.096,8.906-21.02V204.762V86.51c0-7.923-3.213-15.508-8.906-21.02L432.48,15.795
	C421.135,4.809,403.119,4.809,391.773,15.795z"/>
<path style="fill:#E23D17;" d="M492.707,86.509v236.508c0,7.917-3.209,15.502-8.903,21.015l-51.326,49.696
	c-10.241,9.919-25.914,10.885-37.212,2.887c1.227-0.845,2.394-1.811,3.501-2.887l51.315-49.696
	c5.694-5.513,8.913-13.098,8.913-21.015V86.509c0-7.927-3.219-15.512-8.913-21.015l-51.315-49.696
	c-1.107-1.076-2.274-2.042-3.501-2.887c11.297-7.998,26.971-7.032,37.212,2.887l51.326,49.696
	C489.498,70.997,492.707,78.582,492.707,86.509z"/>
<path d="M489.016,60.106l-51.322-49.695c-14.337-13.881-36.796-13.881-51.133,0l-51.323,49.695
	c-7.109,6.884-11.186,16.508-11.186,26.404v236.505c0,9.896,4.077,19.52,11.187,26.404l51.322,49.695
	c5.211,5.045,11.496,8.247,18.072,9.625v94.686c0,4.139,3.355,7.494,7.494,7.494c4.139,0,7.494-3.355,7.494-7.494v-94.686
	c6.577-1.378,12.863-4.58,18.073-9.625l10.001-9.685c2.973-2.879,3.05-7.624,0.17-10.597c-2.879-2.973-7.623-3.05-10.597-0.17
	l-10,9.684c-2.266,2.194-4.879,3.783-7.646,4.806v-39.291c0.42-0.369,0.808-0.785,1.148-1.259l44.518-62.067
	c2.412-3.363,1.641-8.045-1.722-10.457c-3.361-2.412-8.045-1.642-10.458,1.722l-33.485,46.686v-87.748
	c0.42-0.369,0.808-0.785,1.148-1.259l44.518-62.068c2.412-3.363,1.641-8.045-1.722-10.457c-3.361-2.413-8.045-1.642-10.458,1.722
	l-33.485,46.686v-76.34c0-4.139-3.355-7.494-7.494-7.494c-4.139,0-7.494,3.355-7.494,7.494v185.907L373.699,281.8
	c-2.412-3.364-7.096-4.135-10.458-1.722c-3.364,2.412-4.135,7.094-1.722,10.457l43.114,60.11v42.507
	c-2.768-1.023-5.381-2.612-7.646-4.806l-51.322-49.695c-4.21-4.076-6.624-9.775-6.624-15.636V86.51c0-5.86,2.414-11.56,6.624-15.636
	l51.322-49.695c8.491-8.22,21.792-8.22,30.282,0l51.321,49.695c4.211,4.077,6.625,9.776,6.625,15.636v236.505
	c0,5.86-2.414,11.56-6.624,15.636l-7.828,7.579c-2.973,2.879-3.05,7.624-0.172,10.597c2.88,2.973,7.624,3.051,10.597,0.171
	l7.828-7.579c7.11-6.884,11.187-16.507,11.187-26.404V86.51C500.202,76.614,496.125,66.99,489.016,60.106z"/>
<g>
</g>
<g>
</g>
<g>
</g>
<g>
</g>
<g>
</g>
<g>
</g>
<g>
</g>
<g>
</g>
<g>
</g>
<g>
</g>
<g>
</g>
<g>
</g>
<g>
</g>
<g>
</g>
<g>
</g>
</svg>
