<?xml version="1.0" encoding="iso-8859-1"?>
<!-- Generator: Adobe Illustrator 19.0.0, SVG Export Plug-In . SVG Version: 6.00 Build 0)  -->
<svg version="1.1" id="Capa_1" xmlns="http://www.w3.org/2000/svg" xmlns:xlink="http://www.w3.org/1999/xlink" x="0px" y="0px"
	 viewBox="0 0 511.998 511.998" style="enable-background:new 0 0 511.998 511.998;" xml:space="preserve">
<path style="fill:#B7C1CA;" d="M415.37,504.49H96.628c-2.765,0-5.007-2.241-5.007-5.007V241.411h328.755v258.072
	C420.376,502.249,418.134,504.49,415.37,504.49z"/>
<path style="fill:#A3AEB7;" d="M420.374,241.409v258.078c0,2.765-2.242,5.007-5.007,5.007h-26.394V241.409H420.374z"/>
<polygon style="fill:#B7C1CA;" points="256.005,171.074 255.992,171.074 63.264,171.074 91.629,241.411 255.992,241.411 
	256.005,241.411 420.368,241.411 448.733,171.074 "/>
<polygon style="fill:#A3AEB7;" points="448.73,171.077 420.363,241.409 388.973,241.409 417.329,171.077 "/>
<path style="fill:#B7C1CA;" d="M382.716,12.516v21.786c0,2.765-2.242,5.007-5.007,5.007h-83.934c-2.765,0-5.007-2.242-5.007-5.007
	V12.516c0-2.765-2.242-5.007-5.007-5.007h-27.658h-0.212h-27.658c-2.765,0-5.007,2.242-5.007,5.007v21.786
	c0,2.765-2.242,5.007-5.007,5.007h-83.934c-2.765,0-5.007-2.242-5.007-5.007V12.516c0-2.765-2.242-5.007-5.007-5.007h-56
	c-2.765,0-5.007,2.242-5.007,5.007v158.558h192.629h0.212h192.629V12.516c0-2.765-2.241-5.007-5.007-5.007h-56.004
	C384.958,7.51,382.716,9.751,382.716,12.516z"/>
<path style="fill:#A3AEB7;" d="M448.73,12.52v158.558h-31.401V12.52c0-2.764-2.243-5.007-5.007-5.007h31.401
	C446.488,7.513,448.73,9.756,448.73,12.52z"/>
<path style="fill:#FFDBA9;" d="M314.779,504.49h-117.56v-73.764c0-32.463,26.317-58.78,58.78-58.78l0,0
	c32.463,0,58.78,26.317,58.78,58.78V504.49z"/>
<path style="fill:#FFC473;" d="M314.776,430.724v73.767h-27.035v-73.767c0-16.231-6.579-30.931-17.213-41.564
	c-7.59-7.59-17.243-13.107-28.047-15.651c4.346-1.021,8.862-1.562,13.518-1.562c16.231,0,30.92,6.579,41.564,17.213
	C308.197,399.793,314.776,414.492,314.776,430.724z"/>
<path d="M448.733,85.279c4.148,0,7.51-3.362,7.51-7.51V12.516C456.243,5.615,450.629,0,443.727,0h-56.004
	c-6.902,0-12.516,5.615-12.516,12.516v19.283h-78.928V12.516C296.279,5.615,290.664,0,283.763,0h-55.527
	c-6.902,0-12.516,5.615-12.516,12.516v19.283h-78.928V12.516C136.791,5.615,131.176,0,124.275,0H68.271
	c-6.902,0-12.517,5.615-12.517,12.516v158.558c0,0.022,0.003,0.044,0.003,0.066c0.001,0.082,0.009,0.164,0.012,0.245
	c0.008,0.206,0.022,0.411,0.047,0.613c0.011,0.089,0.026,0.177,0.04,0.265c0.033,0.204,0.073,0.406,0.122,0.604
	c0.019,0.078,0.038,0.155,0.06,0.233c0.065,0.233,0.141,0.461,0.228,0.684c0.013,0.032,0.02,0.066,0.033,0.098l0.035,0.086
	c0.006,0.014,0.011,0.028,0.017,0.042l27.761,68.839v256.633c0,6.902,5.615,12.516,12.516,12.516h100.59h117.561H415.37
	c6.902,0,12.516-5.615,12.516-12.516v-72.758c0-4.148-3.362-7.51-7.51-7.51s-7.51,3.362-7.51,7.51v70.255h-90.577v-66.254
	c0-36.553-29.737-66.29-66.29-66.29s-66.29,29.738-66.29,66.29v66.254H99.131V248.921h313.735v66.068h-23.584
	c-4.148,0-7.51,3.362-7.51,7.51s3.362,7.51,7.51,7.51h23.584v50.156c0,4.148,3.362,7.51,7.51,7.51s7.51-3.362,7.51-7.51V242.85
	l27.764-68.844c0.003-0.008,0.007-0.017,0.01-0.025l0.039-0.097c0.015-0.036,0.023-0.074,0.037-0.11
	c0.084-0.218,0.159-0.441,0.223-0.669c0.022-0.08,0.042-0.16,0.062-0.241c0.048-0.196,0.087-0.394,0.12-0.595
	c0.015-0.091,0.03-0.182,0.042-0.273c0.024-0.197,0.037-0.397,0.046-0.599c0.004-0.087,0.012-0.173,0.013-0.26
	c0-0.021,0.003-0.042,0.003-0.063V124.83c0-4.148-3.362-7.51-7.51-7.51s-7.51,3.362-7.51,7.51v38.735H70.774V96.802h54.053
	c4.148,0,7.51-3.362,7.51-7.51s-3.362-7.51-7.51-7.51H70.774V15.02h50.997v19.283c0,6.902,5.615,12.516,12.516,12.516h83.935
	c6.902,0,12.516-5.615,12.516-12.516V15.02h50.521v19.283c0,6.902,5.615,12.516,12.516,12.516h83.934
	c6.902,0,12.516-5.615,12.516-12.516V15.02h50.997v62.749C441.224,81.916,444.586,85.279,448.733,85.279z M204.728,430.727
	c0-28.271,23-51.271,51.271-51.271c28.27,0,51.27,23,51.27,51.271v66.254H204.728V430.727z M437.608,178.584l-22.309,55.317H96.698
	L74.39,178.584H437.608z"/>
<path d="M146.254,121.71c-4.148,0-7.51,3.362-7.51,7.51c0,4.148,3.362,7.51,7.51,7.51h30.781c4.148,0,7.51-3.362,7.51-7.51
	s-3.362-7.51-7.51-7.51H146.254z"/>
<path d="M385.268,447.462h-30.781c-4.148,0-7.51,3.362-7.51,7.51s3.362,7.51,7.51,7.51h30.781c4.148,0,7.51-3.362,7.51-7.51
	S389.417,447.462,385.268,447.462z"/>
<path d="M347.49,79.855c-4.148,0-7.51,3.362-7.51,7.51s3.362,7.51,7.51,7.51h30.781c4.148,0,7.51-3.362,7.51-7.51
	s-3.362-7.51-7.51-7.51H347.49z"/>
<path d="M254.521,315.5c-4.148,0-7.51,3.362-7.51,7.51s3.362,7.51,7.51,7.51h15.391c4.148,0,7.51-3.362,7.51-7.51
	s-3.362-7.51-7.51-7.51H254.521z"/>
<path d="M385.966,374.893h-15.39c-4.148,0-7.51,3.362-7.51,7.51s3.362,7.51,7.51,7.51h15.39c4.148,0,7.51-3.362,7.51-7.51
	S390.113,374.893,385.966,374.893z"/>
<path d="M124.827,434.181c-4.148,0-7.51,3.362-7.51,7.51s3.362,7.51,7.51,7.51h15.391c4.148,0,7.51-3.362,7.51-7.51
	s-3.362-7.51-7.51-7.51H124.827z"/>
<path d="M335.595,275.824c0-4.148-3.362-7.51-7.51-7.51h-56.392c-4.148,0-7.51,3.362-7.51,7.51s3.362,7.51,7.51,7.51h56.392
	C332.233,283.333,335.595,279.971,335.595,275.824z"/>
<path d="M205.23,355.859c4.148,0,7.51-3.362,7.51-7.51s-3.362-7.51-7.51-7.51h-56.392c-4.147,0-7.51,3.362-7.51,7.51
	s3.362,7.51,7.51,7.51H205.23z"/>
<g>
</g>
<g>
</g>
<g>
</g>
<g>
</g>
<g>
</g>
<g>
</g>
<g>
</g>
<g>
</g>
<g>
</g>
<g>
</g>
<g>
</g>
<g>
</g>
<g>
</g>
<g>
</g>
<g>
</g>
</svg>
