<?xml version="1.0" encoding="iso-8859-1"?>
<!-- Generator: Adobe Illustrator 19.0.0, SVG Export Plug-In . SVG Version: 6.00 Build 0)  -->
<svg version="1.1" id="Capa_1" xmlns="http://www.w3.org/2000/svg" xmlns:xlink="http://www.w3.org/1999/xlink" x="0px" y="0px"
	 viewBox="0 0 512 512" style="enable-background:new 0 0 512 512;" xml:space="preserve">
<path style="fill:#B76035;" d="M271.121,504.471h-29.112c-2.772,0-5.02-2.247-5.02-5.02V56.802h39.151v442.649
	C276.141,502.223,273.893,504.471,271.121,504.471z"/>
<path style="fill:#A04C27;" d="M271.121,504.471h-15.125V56.802h20.145v442.649C276.141,502.223,273.893,504.471,271.121,504.471z"
	/>
<path style="fill:#B76035;" d="M124.946,137.965v-29.112c0-2.772,2.247-5.02,5.02-5.02h252.067c2.772,0,5.02,2.247,5.02,5.02v29.112
	c0,2.772-2.247,5.02-5.02,5.02H129.965C127.193,142.985,124.946,140.737,124.946,137.965z"/>
<path style="fill:#A04C27;" d="M355.948,142.985v-39.151h26.084c2.772,0,5.02,2.247,5.02,5.02v29.112c0,2.772-2.247,5.02-5.02,5.02
	h-26.084V142.985z"/>
<path style="fill:#3777D3;" d="M150.737,142.985v171.733v89.727c0,3.748,3.958,6.174,7.298,4.473l96.252-49.018
	c1.431-0.729,3.125-0.729,4.556,0l96.252,49.018c3.34,1.701,7.298-0.725,7.298-4.473v-89.727V142.985H150.737z"/>
<path style="fill:#2468BA;" d="M362.395,142.982v261.461c0,3.745-3.955,6.174-7.299,4.478l-21.404-10.903V142.982H362.395z"/>
<path style="fill:#FFDBA9;" d="M327.138,250.989l-3.256-14.418c-0.358-1.585-1.831-2.663-3.45-2.524l-34.32,2.942
	c-8.472,0.726-15.554-6.356-14.828-14.828l2.942-34.32c0.139-1.619-0.939-3.092-2.524-3.45l-14.421-3.256
	c-0.472-0.106-0.961-0.106-1.433,0l-14.418,3.256c-1.585,0.358-2.663,1.831-2.524,3.45l2.942,34.32
	c0.726,8.472-6.356,15.554-14.828,14.828l-34.32-2.942c-1.619-0.139-3.092,0.939-3.45,2.524l-3.256,14.418
	c-0.107,0.472-0.107,0.961,0,1.433l3.256,14.421c0.358,1.585,1.831,2.663,3.45,2.524l34.32-2.942
	c8.472-0.726,15.554,6.356,14.828,14.828l-2.942,34.32c-0.139,1.619,0.939,3.092,2.524,3.45l14.418,3.256
	c0.472,0.107,0.961,0.107,1.433,0l14.421-3.256c1.585-0.358,2.663-1.831,2.524-3.45l-2.942-34.32
	c-0.726-8.472,6.356-15.554,14.828-14.828l34.32,2.942c1.619,0.139,3.092-0.939,3.45-2.524l3.256-14.421
	C327.245,251.95,327.245,251.461,327.138,250.989z"/>
<circle style="fill:#FF961D;" cx="255.999" cy="39.756" r="32.23"/>
<path style="fill:#EF8318;" d="M288.225,39.759c0,17.8-14.426,32.226-32.226,32.226c-12.087,0-22.618-6.656-28.13-16.494
	c2.891,0.853,5.953,1.315,9.116,1.315c17.8,0,32.236-14.437,32.236-32.226c0-5.712-1.486-11.073-4.096-15.731
	C278.477,12.783,288.225,25.132,288.225,39.759z"/>
<path d="M382.032,96.304h-31.163c-4.158,0-7.529,3.371-7.529,7.529s3.371,7.529,7.529,7.529h28.653v24.092h-17.13H150.737h-18.262
	v-24.092h171.21c4.158,0,7.529-3.371,7.529-7.529s-3.371-7.529-7.529-7.529h-20.016V68.263c7.446-7.229,12.085-17.334,12.085-28.507
	C295.755,17.835,277.921,0,255.999,0s-39.756,17.835-39.756,39.756c0,11.731,5.11,22.287,13.218,29.571v26.977h-99.495
	c-6.92,0-12.549,5.629-12.549,12.549v29.112c0,6.92,5.629,12.549,12.549,12.549h13.242v152.67c0,4.158,3.371,7.529,7.529,7.529
	c4.158,0,7.529-3.371,7.529-7.529v-152.67h196.597v249.835l-92.603-47.16c-3.567-1.817-7.825-1.817-11.389,0l-92.604,47.16v-49.981
	c0-4.158-3.371-7.529-7.529-7.529c-4.158,0-7.529,3.371-7.529,7.529v54.075c0,4.401,2.24,8.401,5.992,10.7
	c2.021,1.239,4.281,1.862,6.55,1.862c1.944,0,3.894-0.458,5.702-1.379l68.009-34.634v118.459c0,6.92,5.629,12.549,12.549,12.549
	h29.112c6.92,0,12.549-5.629,12.549-12.549V380.992l68.008,34.634c3.921,1.997,8.502,1.816,12.253-0.483
	c3.751-2.299,5.991-6.299,5.991-10.7v-253.93h12.11c6.92,0,12.549-5.629,12.549-12.549v-29.112
	C394.581,101.934,388.952,96.304,382.032,96.304z M268.611,96.304h-24.092V77.816c3.637,1.099,7.489,1.697,11.48,1.697
	c4.408,0,8.646-0.732,12.612-2.063V96.304z M255.999,15.059c13.618,0,24.698,11.079,24.698,24.698
	c0,13.618-11.079,24.698-24.698,24.698s-24.698-11.079-24.698-24.698S242.381,15.059,255.999,15.059z M268.611,496.941h-24.092
	V373.323l12.046-6.135l12.046,6.135V496.941z"/>
<path d="M227.662,229.487l-34.321-2.942c-5.342-0.464-10.258,3.14-11.438,8.368l-3.254,14.412c-0.353,1.557-0.353,3.202-0.001,4.755
	l3.256,14.421c1.18,5.228,6.099,8.825,11.438,8.369l34.32-2.942c2.489-0.213,4.137,1.027,4.896,1.786s2.001,2.405,1.787,4.897
	l-2.942,34.321c-0.457,5.339,3.139,10.256,8.368,11.438l14.42,3.256c0.776,0.175,1.574,0.262,2.373,0.262
	c0.799,0,1.598-0.088,2.375-0.263l14.421-3.256c5.228-1.18,8.826-6.097,8.369-11.438l-2.942-34.32
	c-0.214-2.492,1.027-4.137,1.787-4.896c0.759-0.759,2.401-2.003,4.896-1.787l34.321,2.942c5.325,0.459,10.257-3.14,11.437-8.368
	l3.257-14.424c0.35-1.552,0.35-3.193,0-4.745c0,0,0-0.001,0-0.002l-3.256-14.417c-1.18-5.228-6.091-8.816-11.438-8.368l-34.32,2.942
	c-2.492,0.219-4.137-1.027-4.896-1.787c-0.759-0.759-2-2.404-1.787-4.896l2.942-34.321c0.457-5.339-3.139-10.256-8.368-11.438
	l-14.423-3.256c-1.552-0.35-3.194-0.35-4.748,0l-14.418,3.256c-5.228,1.18-8.825,6.098-8.368,11.438l2.942,34.32
	c0.214,2.492-1.028,4.138-1.787,4.897C231.799,228.459,230.159,229.703,227.662,229.487z M243.205,238.349
	c4.44-4.44,6.679-10.575,6.143-16.831l-2.623-30.604l9.838-2.222l9.842,2.222l-2.623,30.604c-0.536,6.256,1.702,12.391,6.142,16.831
	c4.44,4.44,10.574,6.679,16.831,6.142l30.604-2.623l2.222,9.838l-2.222,9.841l-30.604-2.623c-6.255-0.535-12.391,1.702-16.831,6.142
	s-6.678,10.575-6.142,16.831l2.623,30.604l-9.842,2.222l-9.838-2.222l2.623-30.605c0.536-6.256-1.703-12.391-6.143-16.831
	s-10.573-6.679-16.83-6.142l-30.604,2.623l-2.222-9.841l2.222-9.838l30.604,2.623C232.631,245.031,238.766,242.789,243.205,238.349z
	"/>
<g>
</g>
<g>
</g>
<g>
</g>
<g>
</g>
<g>
</g>
<g>
</g>
<g>
</g>
<g>
</g>
<g>
</g>
<g>
</g>
<g>
</g>
<g>
</g>
<g>
</g>
<g>
</g>
<g>
</g>
</svg>
