<?xml version="1.0" encoding="iso-8859-1"?>
<!-- Generator: Adobe Illustrator 19.0.0, SVG Export Plug-In . SVG Version: 6.00 Build 0)  -->
<svg version="1.1" id="Capa_1" xmlns="http://www.w3.org/2000/svg" xmlns:xlink="http://www.w3.org/1999/xlink" x="0px" y="0px"
	 viewBox="0 0 512.001 512.001" style="enable-background:new 0 0 512.001 512.001;" xml:space="preserve">
<path style="fill:#00AD95;" d="M434.877,287.956c-16.653-30.803-40.764-58.708-68.056-80.641H256.002h-0.004H145.18
	c-27.293,21.932-51.403,49.837-68.056,80.641c-13.638,25.227-22.361,53.515-20.642,82.435
	c5.532,93.027,94.972,135.474,178.354,134.085h21.163h0.004h21.163c83.383,1.39,172.823-41.058,178.354-134.085
	C457.238,341.471,448.515,313.183,434.877,287.956z"/>
<path style="fill:#039377;" d="M455.516,370.387c-5.532,93.028-94.965,135.484-178.348,134.086h-27.109
	c81.056-1.308,165.148-43.973,170.51-134.086c1.717-28.916-6.999-57.203-20.639-82.434c-16.655-30.803-40.768-58.7-68.056-80.637
	h34.947c27.288,21.937,51.402,49.834,68.056,80.637C448.517,313.184,457.233,341.471,455.516,370.387z"/>
<path style="fill:#00AD95;" d="M355.797,35.181c-14.537,2.994-29.667,0.653-42.616-6.601
	c-23.664-13.255-47.973-26.908-75.051-18.556c-8.367,2.581-16.763,8.28-24.624,12.161l-16.423,8.108
	c-12.327,6.086-26.333,7.884-39.798,5.111l-39.189-8.072c-12.137-2.5-22.046,9.728-17.085,21.084l44.238,101.257h221.502
	l44.238-101.256c4.961-11.356-4.948-23.584-17.085-21.084L355.797,35.181z"/>
<path style="fill:#039377;" d="M410.994,48.418l-44.243,101.256h-34.447l44.243-101.256c2.706-6.211,0.969-12.681-3.145-16.864
	L393.9,27.33C406.041,24.834,415.946,37.065,410.994,48.418z"/>
<rect x="145.18" y="149.67" style="fill:#FFDBA9;" width="221.64" height="57.643"/>
<rect x="332.29" y="149.67" style="fill:#FFC473;" width="34.528" height="57.643"/>
<path style="fill:#FFDBA9;" d="M184.352,207.315c0,0-1.014,56.337-24.62,96.396c-2.597,4.407,2.359,9.389,6.794,6.84l31.192-17.935
	c2.006-1.154,4.542-0.777,6.127,0.909l28.959,30.821c2.469,2.628,6.819,1.857,8.231-1.461c7.65-17.972,26.703-67.981,24.46-115.569
	h-81.143V207.315z"/>
<path style="fill:#FFC473;" d="M241.033,322.889c-1.408,3.315-5.761,4.084-8.227,1.458l-8.807-9.376
	c8.727-22.186,23.195-65.86,21.218-107.656h20.279C267.742,254.903,248.681,304.917,241.033,322.889z"/>
<path d="M441.464,284.394c-1.966-3.638-6.51-4.993-10.149-3.026c-3.638,1.967-4.993,6.511-3.026,10.149
	c14.597,27,21.243,53.388,19.754,78.429c-5.302,89.154-92.252,128.339-170.754,127.042c-0.041,0-0.083-0.001-0.125-0.001h-42.329
	c-0.041,0-0.083,0-0.125,0.001C156.199,498.324,69.258,459.1,63.957,369.947c-1.489-25.041,5.157-51.429,19.754-78.429
	c15.369-28.428,37.507-54.904,64.125-76.713h28.618c-1.2,16.341-5.815,55.649-23.174,85.105c-2.914,4.944-2.158,11.008,1.879,15.089
	c4.046,4.089,10.113,4.91,15.099,2.045l29.48-16.951l27.608,29.383c2.387,2.541,5.669,3.938,9.08,3.937
	c0.73,0,1.467-0.064,2.202-0.195c4.164-0.741,7.64-3.507,9.296-7.399c7.853-18.451,25.328-64.77,25.229-111.014h91.01
	c14.253,11.68,27.305,24.792,38.827,39.005c2.605,3.213,7.32,3.706,10.533,1.102c3.213-2.604,3.706-7.32,1.102-10.533
	c-11.979-14.778-25.541-28.407-40.317-40.591v-52.71l43.542-99.664c3.42-7.828,2.204-16.813-3.174-23.45
	c-5.378-6.637-13.917-9.689-22.284-7.966l-38.106,7.848c-12.773,2.63-26.073,0.571-37.446-5.799l-0.111-0.062
	C292.963,8.673,266.025-6.416,235.923,2.868c-6.367,1.964-12.359,5.303-18.153,8.532c-2.654,1.479-5.161,2.876-7.579,4.07
	l-16.422,8.108c-10.779,5.321-23.198,6.916-34.973,4.491l-39.189-8.071c-8.37-1.724-16.905,1.33-22.283,7.965
	C91.946,34.6,90.73,43.586,94.15,51.414l11.332,25.94c1.655,3.791,6.071,5.523,9.86,3.864c3.79-1.656,5.52-6.07,3.864-9.86
	l-11.332-25.939c-1.188-2.719-0.782-5.72,1.087-8.025c1.868-2.305,4.716-3.324,7.626-2.726l39.189,8.071
	c15.021,3.094,30.869,1.059,44.624-5.731l16.42-8.108c2.753-1.359,5.542-2.914,8.24-4.417c5.119-2.853,10.412-5.803,15.276-7.303
	c23.969-7.392,45.878,4.879,69.073,17.872l0.111,0.062c14.515,8.13,31.486,10.758,47.786,7.401l38.107-7.848
	c2.908-0.599,5.757,0.421,7.626,2.726c1.869,2.306,2.274,5.306,1.087,8.025l-42.276,96.766H150.149l-12.312-28.18
	c-1.655-3.79-6.07-5.52-9.86-3.864c-3.79,1.656-5.52,6.07-3.864,9.86l13.578,31.079v52.704
	c-27.814,22.93-50.998,50.726-67.155,80.612c-15.943,29.491-23.187,58.574-21.53,86.441c2.693,45.282,24.594,82.717,63.337,108.256
	c33.296,21.949,76.807,33.64,122.553,32.873h42.208c1.385,0.023,2.768,0.034,4.148,0.034c44.212,0,86.117-11.622,118.405-32.907
	c38.742-25.539,60.644-62.974,63.337-108.256C464.651,342.968,457.407,313.885,441.464,284.394z M235.624,316.412l-26.323-28.015
	c-2.434-2.59-5.734-3.946-9.084-3.946c-2.128,0-4.276,0.547-6.233,1.673l-23.523,13.525c15.897-31.649,19.987-69.187,21.029-84.844
	h66.7C258.303,255.579,243.617,296.944,235.624,316.412z M359.332,157.161v42.666h-93.836h-81.143h-31.684v-42.666H359.332z"/>
<g>
</g>
<g>
</g>
<g>
</g>
<g>
</g>
<g>
</g>
<g>
</g>
<g>
</g>
<g>
</g>
<g>
</g>
<g>
</g>
<g>
</g>
<g>
</g>
<g>
</g>
<g>
</g>
<g>
</g>
</svg>
