<?xml version="1.0" encoding="iso-8859-1"?>
<!-- Generator: Adobe Illustrator 19.0.0, SVG Export Plug-In . SVG Version: 6.00 Build 0)  -->
<svg version="1.1" id="Capa_1" xmlns="http://www.w3.org/2000/svg" xmlns:xlink="http://www.w3.org/1999/xlink" x="0px" y="0px"
	 viewBox="0 0 512 512" style="enable-background:new 0 0 512 512;" xml:space="preserve">
<circle style="fill:#B7C1CA;" cx="256" cy="256" r="248.48"/>
<path style="fill:#A3AEB7;" d="M504.479,256c0,137.232-111.246,248.479-248.479,248.479c-62.955,0-120.433-23.409-164.222-61.992
	c37.63,22.927,81.83,36.136,129.119,36.136c137.232,0,248.479-111.246,248.479-248.479c0-74.278-32.596-140.943-84.257-186.487
	C456.689,87.275,504.479,166.056,504.479,256z"/>
<circle style="fill:#B76035;" cx="256" cy="256" r="196.02"/>
<path style="fill:#A04C27;" d="M452.025,256c0,108.257-87.767,196.025-196.025,196.025c-70.597,0-132.479-37.33-166.99-93.324
	c35.655,37.079,85.772,60.146,141.284,60.146c108.257,0,196.015-87.757,196.015-196.015c0-37.67-10.621-72.854-29.045-102.721
	C431.174,155.355,452.025,203.245,452.025,256z"/>
<g>
	<path style="fill:#FFDBA9;" d="M412.445,137.887L310.459,239.873l-37.371-37.371L375.21,100.381
		C389.24,111.148,401.775,123.77,412.445,137.887z"/>
	<path style="fill:#FFDBA9;" d="M238.912,202.502l-37.371,37.371L99.556,137.887c10.67-14.117,23.205-26.739,37.235-37.507
		L238.912,202.502z"/>
	<path style="fill:#FFDBA9;" d="M412.445,374.113c-10.67,14.117-23.205,26.739-37.235,37.507L273.089,309.498l37.371-37.371
		L412.445,374.113z"/>
	<path style="fill:#FFDBA9;" d="M238.912,309.498L136.79,411.62c-14.03-10.768-26.564-23.39-37.235-37.507l101.986-101.986
		L238.912,309.498z"/>
</g>
<circle style="fill:#00AD95;" cx="256" cy="256" r="79.49"/>
<path style="fill:#039377;" d="M335.493,256c0,43.899-35.594,79.493-79.493,79.493c-33.047,0-61.39-20.169-73.375-48.873
	c13.841,11.684,31.723,18.725,51.25,18.725c43.899,0,79.493-35.584,79.493-79.493c0-10.842-2.176-21.182-6.108-30.6
	C324.531,209.835,335.493,231.639,335.493,256z"/>
<path d="M288.889,228.818c-0.073-0.111-0.123-0.191-0.174-0.273c-0.07-0.08-0.127-0.144-0.209-0.239
	c-0.853-0.984-1.692-1.976-2.585-2.926c-1.936-2.059-4.014-4.019-6.215-5.801c0.033,0.045-0.15-0.071-0.45-0.273l9.868,9.868
	C289.045,229.056,288.968,228.937,288.889,228.818z"/>
<path d="M282.987,290.099c0.55-0.361,1.079-0.768,1.635-1.12c0.549-0.348,0.795-0.417,0.823-0.341
	c1.424-1.267,2.849-3.173,3.758-4.184c0.145-0.161,0.507-0.591,0.87-1.022c0.4-0.553,1.016-1.391,1.222-1.704
	c0.571-0.868,1.084-1.758,1.58-2.655l-12.776,12.776C281.081,291.298,282.046,290.718,282.987,290.099z"/>
<circle style="fill:#FFDBA9;" cx="256" cy="256" r="39.28"/>
<path style="fill:#FFC473;" d="M295.286,256c0,21.694-17.592,39.285-39.285,39.285c-17.421,0-32.204-11.353-37.339-27.059
	c6.409,4.543,14.242,7.221,22.697,7.221c21.694,0,39.285-17.592,39.285-39.285c0-4.273-0.682-8.385-1.946-12.226
	C288.736,231.047,295.286,242.761,295.286,256z"/>
<path d="M437.02,74.981C388.668,26.629,324.381,0,256.001,0S123.333,26.629,74.981,74.981S0,187.62,0,256
	s26.629,132.667,74.981,181.02c48.352,48.351,112.64,74.98,181.02,74.98c42.173,0,83.981-10.476,120.902-30.294
	c3.66-1.965,5.035-6.525,3.071-10.185c-1.965-3.66-6.524-5.034-10.185-3.071c-34.741,18.648-74.089,28.505-113.788,28.505
	c-64.362,0-124.871-25.064-170.381-70.575C40.108,380.871,15.044,320.362,15.044,256S40.108,131.129,85.619,85.619
	c45.51-45.51,106.02-70.574,170.381-70.574s124.871,25.064,170.381,70.574S496.955,191.639,496.955,256
	c0,72.955-32.53,141.192-89.249,187.213c-3.226,2.617-3.719,7.354-1.102,10.581c2.617,3.225,7.354,3.719,10.581,1.102
	C477.442,406.004,512,333.51,512,256C512,187.62,485.372,123.333,437.02,74.981z"/>
<path d="M419.028,377.738c25.435-33.975,40.514-76.128,40.514-121.738s-15.08-87.765-40.516-121.74
	c-0.172-0.312-0.361-0.617-0.581-0.908c-11.073-14.65-24.077-27.751-38.655-38.939c-0.332-0.255-0.681-0.473-1.04-0.665
	C344.601,67.849,302.067,52.457,256,52.457c-46.068,0-88.603,15.393-122.752,41.293c-0.358,0.191-0.706,0.409-1.038,0.663
	c-14.578,11.188-27.584,24.289-38.656,38.939c-0.22,0.292-0.409,0.598-0.582,0.91C67.538,168.237,52.458,210.39,52.458,256
	c0,45.609,15.079,87.761,40.513,121.736c0.173,0.313,0.362,0.62,0.583,0.913c11.073,14.65,24.078,27.751,38.656,38.938
	c0.34,0.261,0.697,0.489,1.065,0.684c34.145,25.888,76.67,41.272,122.725,41.272c46.056,0,88.58-15.385,122.725-41.272
	c0.368-0.195,0.724-0.422,1.065-0.683c14.577-11.188,27.583-24.289,38.655-38.938C418.667,378.357,418.856,378.05,419.028,377.738z
	 M402.35,137.345l-72.573,72.573c-6.769-10.798-15.838-20.011-26.519-26.947l72.462-72.463
	C385.466,118.542,394.385,127.541,402.35,137.345z M327.97,256c0,39.685-32.285,71.97-71.97,71.97s-71.97-32.285-71.97-71.97
	s32.286-71.97,71.971-71.97S327.97,216.315,327.97,256z M136.28,110.508l23.618,23.618c2.938,2.937,7.7,2.937,10.639,0
	c2.937-2.937,2.937-7.7,0-10.638l-22.155-22.155C178.918,80.021,216.022,67.501,256,67.501c39.979,0,77.083,12.521,107.618,33.833
	l-74.291,74.291c-10.27-4.274-21.527-6.64-33.327-6.64s-23.057,2.365-33.327,6.64l-18.703-18.703c-2.938-2.937-7.7-2.937-10.639,0
	c-2.937,2.937-2.937,7.7,0,10.638l15.411,15.411c-10.681,6.936-19.751,16.149-26.52,26.947l-72.573-72.573
	C117.615,127.541,126.535,118.542,136.28,110.508z M67.503,256c0-39.484,12.212-76.165,33.044-106.483l74.52,74.52
	c-3.923,9.899-6.081,20.684-6.081,31.963c0,11.279,2.158,22.063,6.081,31.963l-74.52,74.52
	C79.715,332.165,67.503,295.484,67.503,256z M109.651,374.655l72.573-72.573c6.769,10.798,15.838,20.011,26.52,26.947
	l-72.463,72.462C126.535,393.458,117.615,384.46,109.651,374.655z M256.001,444.498c-39.979,0-77.083-12.521-107.618-33.832
	l74.291-74.291c10.27,4.274,21.527,6.64,33.327,6.64s23.057-2.365,33.327-6.64l74.291,74.291
	C333.083,431.977,295.979,444.498,256.001,444.498z M375.72,401.492l-72.462-72.463c10.681-6.936,19.75-16.149,26.519-26.947
	l72.573,72.573C394.385,384.46,385.466,393.458,375.72,401.492z M336.933,287.963c3.923-9.9,6.081-20.684,6.081-31.963
	s-2.158-22.063-6.081-31.963l74.52-74.52c20.832,30.318,33.044,66.999,33.044,106.483s-12.212,76.165-33.045,106.483
	L336.933,287.963z"/>
<path d="M302.807,256c0-25.809-20.997-46.806-46.806-46.806c-25.81,0-46.807,20.997-46.807,46.806s20.997,46.807,46.807,46.807
	C281.81,302.807,302.807,281.809,302.807,256z M224.238,256c0-17.514,14.249-31.762,31.763-31.762
	c17.513,0,31.762,14.248,31.762,31.762s-14.249,31.763-31.762,31.763C238.487,287.763,224.238,273.514,224.238,256z"/>
<g>
</g>
<g>
</g>
<g>
</g>
<g>
</g>
<g>
</g>
<g>
</g>
<g>
</g>
<g>
</g>
<g>
</g>
<g>
</g>
<g>
</g>
<g>
</g>
<g>
</g>
<g>
</g>
<g>
</g>
</svg>
