<?xml version="1.0" encoding="iso-8859-1"?>
<!-- Generator: Adobe Illustrator 19.0.0, SVG Export Plug-In . SVG Version: 6.00 Build 0)  -->
<svg version="1.1" id="Capa_1" xmlns="http://www.w3.org/2000/svg" xmlns:xlink="http://www.w3.org/1999/xlink" x="0px" y="0px"
	 viewBox="0 0 512.001 512.001" style="enable-background:new 0 0 512.001 512.001;" xml:space="preserve">
<rect x="69.27" y="328.411" style="fill:#FF961D;" width="373.45" height="83.27"/>
<rect x="413.25" y="328.411" style="fill:#EF8318;" width="29.481" height="83.27"/>
<rect x="69.27" y="297.361" style="fill:#00AD95;" width="373.45" height="31.04"/>
<rect x="413.25" y="297.361" style="fill:#039377;" width="29.481" height="31.04"/>
<path style="fill:#00AD95;" d="M437.74,442.723H74.26c-2.754,0-4.986-2.232-4.986-4.986v-26.058h373.452v26.058
	C442.726,440.491,440.494,442.723,437.74,442.723z"/>
<path style="fill:#039377;" d="M442.722,411.68v26.056c0,2.752-2.224,4.986-4.986,4.986H408.26c2.752,0,4.986-2.234,4.986-4.986
	V411.68H442.722z"/>
<g>
	<circle style="fill:#00AD95;" cx="256" cy="370.041" r="18.15"/>
	<circle style="fill:#00AD95;" cx="343.71" cy="370.041" r="18.15"/>
	<circle style="fill:#00AD95;" cx="168.29" cy="370.041" r="18.15"/>
</g>
<g>
	<path style="fill:#039377;" d="M274.149,370.048c0,10.022-8.127,18.149-18.149,18.149c-7.419,0-13.811-4.457-16.613-10.849
		c2.234,0.987,4.707,1.536,7.309,1.536c10.022,0,18.149-8.127,18.149-18.149c0-2.603-0.548-5.076-1.536-7.309
		C269.691,356.237,274.149,362.619,274.149,370.048z"/>
	<path style="fill:#039377;" d="M361.861,370.048c0,10.022-8.127,18.149-18.149,18.149c-7.419,0-13.811-4.457-16.613-10.849
		c2.234,0.987,4.707,1.536,7.309,1.536c10.022,0,18.149-8.127,18.149-18.149c0-2.603-0.548-5.076-1.536-7.309
		C357.403,356.237,361.861,362.619,361.861,370.048z"/>
	<path style="fill:#039377;" d="M186.437,370.048c0,10.022-8.127,18.149-18.149,18.149c-7.419,0-13.811-4.457-16.613-10.849
		c2.234,0.987,4.707,1.536,7.309,1.536c10.022,0,18.149-8.127,18.149-18.149c0-2.603-0.548-5.076-1.536-7.309
		C181.98,356.237,186.437,362.619,186.437,370.048z"/>
</g>
<path style="fill:#FF961D;" d="M332.171,176.126L256,88.826l-76.171,87.301c-6.845,7.846-18.035,10.255-27.503,5.921l-126.375-57.85
	l43.322,173.167H256h186.726l43.322-173.167l-126.375,57.85C350.206,186.381,339.016,183.971,332.171,176.126z"/>
<polygon style="fill:#EF8318;" points="486.05,124.193 442.722,297.363 413.246,297.363 452.754,139.439 "/>
<g>
	
		<ellipse transform="matrix(-0.2565 -0.9665 0.9665 -0.2565 -155.9924 355.2593)" style="fill:#FF4F19;" cx="58.641" cy="237.626" rx="31.413" ry="20.662"/>
	
		<ellipse transform="matrix(-0.2565 0.9665 -0.9665 -0.2565 801.1599 -140.9725)" style="fill:#FF4F19;" cx="454.8" cy="237.65" rx="31.413" ry="20.662"/>
	<ellipse style="fill:#FF4F19;" cx="256" cy="237.641" rx="20.663" ry="31.414"/>
</g>
<g>
	<path style="fill:#E23D17;" d="M66.696,268.006c-4.158,1.097-8.526,0.189-12.604-2.274c7.738-5.644,10.959-19.236,7.2-33.386
		c-2.772-10.45-8.685-18.747-15.426-22.796c1.426-1.047,3.002-1.815,4.717-2.273c11.029-2.922,23.573,8.296,28.031,25.069
		C83.059,249.109,77.724,265.074,66.696,268.006z"/>
	<path style="fill:#E23D17;" d="M474.752,242.947c-4.448,16.763-17.002,27.981-28.031,25.059c-1.715-0.459-3.291-1.227-4.717-2.274
		c6.741-4.048,12.654-12.335,15.426-22.786c3.759-14.16,0.539-27.751-7.2-33.396c4.078-2.463,8.446-3.37,12.604-2.273
		C473.864,210.21,479.199,226.174,474.752,242.947z"/>
	<path style="fill:#E23D17;" d="M276.662,237.642c0,17.351-9.254,31.411-20.662,31.411c-3.091,0-6.023-1.027-8.656-2.882
		c7.08-4.986,11.996-15.885,11.996-28.529s-4.916-23.544-11.996-28.529c2.633-1.855,5.564-2.882,8.656-2.882
		C267.408,206.23,276.662,220.29,276.662,237.642z"/>
</g>
<g>
	<circle style="fill:#00AD95;" cx="27.03" cy="123.851" r="19.547"/>
	<circle style="fill:#00AD95;" cx="484.97" cy="123.851" r="19.547"/>
	<circle style="fill:#00AD95;" cx="256" cy="88.831" r="19.547"/>
</g>
<g>
	<path style="fill:#039377;" d="M46.572,123.844c0,10.8-8.755,19.555-19.545,19.555c-5.903,0-11.188-2.613-14.768-6.741
		c9.932-0.927,17.7-9.294,17.7-19.455c0-4.906-1.805-9.383-4.786-12.814c0.608-0.06,1.227-0.09,1.855-0.09
		C37.817,104.299,46.572,113.054,46.572,123.844z"/>
	<path style="fill:#039377;" d="M504.517,123.844c0,10.8-8.745,19.555-19.545,19.555c-5.893,0-11.178-2.613-14.758-6.741
		c9.922-0.927,17.69-9.294,17.69-19.455c0-4.906-1.795-9.383-4.777-12.814c0.608-0.06,1.217-0.09,1.845-0.09
		C495.772,104.299,504.517,113.054,504.517,123.844z"/>
	<path style="fill:#039377;" d="M275.545,88.823c0,10.799-8.745,19.555-19.545,19.555c-5.903,0-11.188-2.612-14.768-6.741
		c9.932-0.927,17.7-9.284,17.7-19.455c0-4.906-1.795-9.383-4.776-12.814c0.608-0.06,1.227-0.09,1.845-0.09
		C266.8,69.278,275.545,78.033,275.545,88.823z"/>
</g>
<path d="M256,395.672c14.132,0,25.629-11.497,25.629-25.629S270.132,344.414,256,344.414s-25.629,11.497-25.629,25.629
	C230.372,384.175,241.868,395.672,256,395.672z M256,359.372c5.884,0,10.671,4.787,10.671,10.671s-4.787,10.671-10.671,10.671
	c-5.884,0-10.671-4.787-10.671-10.671S250.116,359.372,256,359.372z"/>
<path d="M343.712,395.672c14.132,0,25.629-11.497,25.629-25.629s-11.497-25.629-25.629-25.629s-25.629,11.497-25.629,25.629
	C318.083,384.175,329.58,395.672,343.712,395.672z M343.712,359.372c5.884,0,10.671,4.787,10.671,10.671
	s-4.787,10.671-10.671,10.671s-10.671-4.787-10.671-10.671S337.828,359.372,343.712,359.372z"/>
<path d="M168.288,395.672c14.132,0,25.629-11.497,25.629-25.629s-11.497-25.629-25.629-25.629s-25.629,11.497-25.629,25.629
	C142.66,384.175,154.156,395.672,168.288,395.672z M168.288,359.372c5.884,0,10.671,4.787,10.671,10.671
	s-4.787,10.671-10.671,10.671s-10.671-4.787-10.671-10.671S162.404,359.372,168.288,359.372z"/>
<path d="M284.142,237.643c0-21.809-12.362-38.893-28.142-38.893s-28.142,17.084-28.142,38.893S240.22,276.535,256,276.535
	S284.142,259.452,284.142,237.643z M242.816,237.643c0-14.106,6.949-23.935,13.184-23.935c6.236,0,13.184,9.83,13.184,23.935
	s-6.948,23.935-13.184,23.935C249.764,261.578,242.816,251.747,242.816,237.643z"/>
<path d="M484.974,96.821c-14.902,0-27.025,12.124-27.025,27.026c0,1.635,0.154,3.233,0.433,4.788L356.56,175.245
	c-6.408,2.934-14.12,1.273-18.755-4.037l-59.107-67.744c2.733-4.222,4.327-9.247,4.327-14.641c0-14.902-12.124-27.026-27.026-27.026
	s-27.026,12.124-27.026,27.026c0,5.393,1.594,10.418,4.327,14.64l-59.107,67.744c-4.633,5.311-12.345,6.97-18.754,4.037
	l-18.184-8.324c-3.756-1.721-8.194-0.069-9.913,3.687c-1.719,3.755-0.069,8.194,3.687,9.913l18.184,8.324
	c12.386,5.67,27.294,2.462,36.251-7.804l59.101-67.737c3.475,1.63,7.349,2.546,11.434,2.546c4.085,0,7.959-0.916,11.434-2.546
	l59.101,67.738c8.958,10.266,23.865,13.475,36.252,7.804l102.229-46.798c2.113,2.315,4.625,4.258,7.423,5.73l-12.904,51.581
	c-6.215-0.064-12.614,2.525-18.167,7.49c-6.371,5.697-11.268,14.069-13.79,23.575l0,0c-2.523,9.506-2.421,19.205,0.287,27.311
	c2.502,7.491,7.154,13.138,13.054,16.036l-4.031,16.113h-96.626c-4.131,0-7.479,3.349-7.479,7.479s3.348,7.479,7.479,7.479h94.985
	v16.086H76.753v-16.086h218.636c4.131,0,7.479-3.348,7.479-7.479s-3.348-7.479-7.479-7.479H75.113l-3.886-15.531
	c13.481-5.498,19.873-24.093,14.609-43.929c-2.523-9.506-7.42-17.878-13.79-23.574c-5.971-5.339-12.921-7.933-19.566-7.431
	l-12.919-51.64c2.798-1.471,5.31-3.414,7.424-5.73l41.652,19.067c3.755,1.72,8.193,0.068,9.913-3.687
	c1.719-3.756,0.069-8.194-3.687-9.913l-41.244-18.88c0.279-1.556,0.433-3.154,0.433-4.789c0-14.902-12.124-27.026-27.026-27.026
	S0,108.945,0,123.848c0,14.184,10.985,25.842,24.894,26.934l13.794,55.136c-3.009,3.019-5.405,6.966-6.965,11.633
	c-2.708,8.106-2.81,17.804-0.288,27.311c4.041,15.23,13.687,26.413,24.481,29.925l5.879,23.499v30.122v83.273v26.058
	c0,6.873,5.592,12.465,12.465,12.465h363.48c6.873,0,12.465-5.592,12.465-12.465v-26.058v-83.272v-0.001v-30.124l5.776-23.086
	c4.245-1.093,8.423-3.377,12.208-6.761c6.371-5.697,11.268-14.069,13.79-23.574c2.523-9.506,2.421-19.205-0.287-27.311
	c-1.752-5.244-4.561-9.581-8.109-12.709l13.524-54.059c13.908-1.092,24.894-12.75,24.894-26.934
	C512,108.945,499.876,96.821,484.974,96.821z M256,100.894c-6.655,0-12.068-5.414-12.068-12.068c0-6.654,5.414-12.068,12.068-12.068
	c6.655,0,12.068,5.414,12.068,12.068C268.069,95.48,262.655,100.894,256,100.894z M27.026,135.915
	c-6.655,0-12.068-5.414-12.068-12.068c0-6.654,5.414-12.068,12.068-12.068s12.068,5.414,12.068,12.068
	C39.095,130.502,33.681,135.915,27.026,135.915z M64.775,260.777c-6.03,1.598-15.265-6.12-18.883-19.753
	c-1.756-6.617-1.749-13.445,0.018-18.734c0.826-2.473,2.78-6.771,6.587-7.782c0.562-0.149,1.125-0.216,1.682-0.216
	c3.215,0,6.241,2.227,7.897,3.708c4.156,3.717,7.547,9.643,9.303,16.261C74.997,247.894,70.802,259.178,64.775,260.777z
	 M435.247,435.244H76.753v-16.086h358.494L435.247,435.244L435.247,435.244z M435.247,404.201H76.753v-68.315h358.494
	L435.247,404.201L435.247,404.201z M467.521,241.025c-1.756,6.617-5.146,12.544-9.303,16.261c-1.945,1.738-5.778,4.499-9.579,3.492
	c-3.807-1.01-5.761-5.309-6.588-7.782c-1.766-5.288-1.772-12.117-0.017-18.734l0,0c1.756-6.617,5.147-12.544,9.303-16.26
	c1.656-1.481,4.683-3.708,7.898-3.708c0.557,0,1.12,0.067,1.682,0.216c3.807,1.01,5.761,5.309,6.588,7.782
	C469.271,227.579,469.277,234.407,467.521,241.025z M484.974,135.915c-6.654,0-12.067-5.414-12.067-12.068
	c0-6.654,5.413-12.068,12.067-12.068c6.655,0,12.068,5.414,12.068,12.068S491.629,135.915,484.974,135.915z"/>
<g>
</g>
<g>
</g>
<g>
</g>
<g>
</g>
<g>
</g>
<g>
</g>
<g>
</g>
<g>
</g>
<g>
</g>
<g>
</g>
<g>
</g>
<g>
</g>
<g>
</g>
<g>
</g>
<g>
</g>
</svg>
