<?xml version="1.0" encoding="iso-8859-1"?>
<!-- Generator: Adobe Illustrator 19.0.0, SVG Export Plug-In . SVG Version: 6.00 Build 0)  -->
<svg version="1.1" id="Capa_1" xmlns="http://www.w3.org/2000/svg" xmlns:xlink="http://www.w3.org/1999/xlink" x="0px" y="0px"
	 viewBox="0 0 512 512" style="enable-background:new 0 0 512 512;" xml:space="preserve">
<path style="fill:#B76035;" d="M128.591,503.987l-49.384-13.105c-8.129-2.157-12.97-10.495-10.813-18.624l39.378-148.397
	l78.821,20.916l-39.378,148.397C145.058,501.303,136.72,506.144,128.591,503.987z"/>
<path style="fill:#A04C27;" d="M186.594,344.773l-39.379,148.402c-2.158,8.123-10.492,12.97-18.625,10.811l-15.937-4.227
	c5.466-1.269,10.082-5.456,11.621-11.261l39.728-149.72L186.594,344.773z"/>
<path style="fill:#B76035;" d="M351.571,503.987l49.384-13.105c8.129-2.157,12.97-10.495,10.813-18.624L372.39,323.862
	l-78.821,20.916l39.378,148.397C335.105,501.303,343.443,506.144,351.571,503.987z"/>
<path style="fill:#A04C27;" d="M400.953,490.886l-9.482,2.518c1.539-3.267,1.978-7.074,0.979-10.841l-40.658-153.238l20.594-5.466
	l39.379,148.402C413.923,480.385,409.087,488.728,400.953,490.886z"/>
<circle style="fill:#B76035;" cx="240.08" cy="205.24" r="197.75"/>
<path style="fill:#A04C27;" d="M437.836,205.246c0,109.212-88.542,197.744-197.754,197.744c-51.933,0-99.174-20.006-134.454-52.738
	c31.303,20.802,68.878,32.914,109.283,32.914c109.212,0,197.754-88.542,197.754-197.754c0-57.289-24.366-108.89-63.3-145.005
	C402.687,75.826,437.836,136.438,437.836,205.246z"/>
<circle style="fill:#FFDBA9;" cx="240.08" cy="205.24" r="118.62"/>
<path style="fill:#FFC473;" d="M358.697,205.244c0,65.508-53.108,118.615-118.615,118.615c-42.306,0-79.447-22.152-100.43-55.496
	c20.344,16.427,46.223,26.249,74.401,26.249c65.508,0,118.615-53.108,118.615-118.615c0-23.202-6.665-44.844-18.186-63.12
	C341.451,134.601,358.697,167.914,358.697,205.244z"/>
<circle style="fill:#FF4F19;" cx="240.08" cy="205.24" r="50.02"/>
<path style="fill:#E23D17;" d="M290.102,205.244c0,27.618-22.402,50.02-50.02,50.02c-23.152,0-42.616-15.727-48.321-37.07
	c8.343,6.255,18.715,9.962,29.956,9.962c27.628,0,50.02-22.392,50.02-50.02c0-4.476-0.59-8.823-1.699-12.95
	C282.218,174.309,290.102,188.857,290.102,205.244z"/>
<g>
	<path style="fill:#FFDBA9;" d="M385.957,204.836l25.383,39.146c0.731,1.127,1.98,1.812,3.323,1.822l50.424,0.379
		c3.174,0.024,5.108-3.483,3.394-6.155l-22.286-34.74L385.957,204.836z"/>
	<path style="fill:#FFDBA9;" d="M385.957,204.836l25.969-38.76c0.748-1.116,2.007-1.782,3.35-1.772l50.424,0.379
		c3.174,0.024,5.055,3.56,3.301,6.205l-22.806,34.401L385.957,204.836z"/>
</g>
<path d="M455.143,206.023l20.105-30.327c2.333-3.518,2.55-8.019,0.567-11.746c-1.982-3.727-5.837-6.062-10.058-6.094l-26.021-0.196
	C418.216,67.36,336.876,0,240.081,0C126.909,0,34.837,92.072,34.837,205.244c0,55.771,22.37,106.408,58.596,143.437L61.151,470.336
	c-1.557,5.866-0.736,11.987,2.312,17.236c3.048,5.249,7.956,8.997,13.822,10.553l49.384,13.105l0,0
	c1.941,0.515,3.909,0.77,5.865,0.77c3.955,0,7.859-1.043,11.371-3.082c5.249-3.047,8.997-7.956,10.553-13.822l24.886-93.783
	c19.202,5.96,39.601,9.175,60.737,9.175s41.536-3.214,60.738-9.175l24.886,93.782c1.556,5.866,5.304,10.775,10.553,13.823
	c3.512,2.039,7.414,3.082,11.37,3.082c1.956,0,3.925-0.255,5.865-0.77l49.384-13.105c5.866-1.556,10.775-5.304,13.822-10.553
	s3.869-11.37,2.312-17.236l-9.857-37.146c-1.061-4.001-5.168-6.385-9.165-5.322c-4.001,1.061-6.383,5.165-5.321,9.165l9.857,37.147
	c0.53,1.997,0.25,4.08-0.787,5.867c-1.037,1.786-2.708,3.062-4.705,3.592l-49.384,13.105c-1.996,0.53-4.079,0.251-5.866-0.787
	c-1.786-1.037-3.062-2.708-3.592-4.705l-25.189-94.923c21.842-8.594,41.868-20.827,59.324-35.952l7.95,29.957
	c1.062,4,5.167,6.382,9.166,5.321c4-1.062,6.383-5.165,5.321-9.166l-10.033-37.808c25.281-25.841,43.803-58.313,52.693-94.53
	l25.609,0.193c0.029,0,0.059,0,0.087,0c4.188,0,8.038-2.271,10.062-5.942c2.038-3.697,1.889-8.2-0.391-11.754L455.143,206.023z
	 M459.188,172.795l-16.995,25.636l-42.265-0.318l17.175-25.635L459.188,172.795z M139.972,491.252
	c-0.53,1.996-1.806,3.667-3.592,4.704c-1.786,1.037-3.871,1.315-5.867,0.787l0,0l-49.385-13.105
	c-1.996-0.53-3.667-1.806-4.704-3.592c-1.037-1.787-1.317-3.87-0.787-5.866l30.199-113.804
	c17.456,15.126,37.482,27.358,59.324,35.952L139.972,491.252z M240.081,395.5c-104.908,0-190.256-85.349-190.256-190.256
	S135.173,14.988,240.081,14.988c88.439,0,162.966,60.66,184.188,142.556l-8.936-0.067c-3.871-0.032-7.476,1.875-9.633,5.095
	l-23.569,35.178h-16.167c-3.891-66.062-58.861-118.617-125.883-118.617c-69.538,0-126.112,56.573-126.112,126.111
	s56.573,126.112,126.112,126.112c67.022,0,121.992-52.555,125.883-118.618h15.753l23.336,35.988c2.109,3.252,5.681,5.21,9.555,5.239
	l9.373,0.07C402.382,335.378,328.127,395.5,240.081,395.5z M297.087,197.75c-3.686-28.18-27.836-50.015-57.005-50.015
	c-8.66,0-16.987,1.879-24.751,5.586c-3.735,1.783-5.317,6.256-3.534,9.991s6.256,5.319,9.992,3.534
	c5.731-2.736,11.885-4.123,18.293-4.123c20.889,0,38.295,15.145,41.847,35.027h-41.847c-4.139,0-7.494,3.355-7.494,7.494
	s3.355,7.494,7.494,7.494h41.847c-3.552,19.883-20.958,35.028-41.847,35.028c-23.446,0-42.521-19.075-42.521-42.522
	c0-2.503,0.219-5.009,0.649-7.45c0.72-4.075-2.002-7.963-6.078-8.682c-4.075-0.721-7.963,2.002-8.682,6.077
	c-0.582,3.298-0.877,6.681-0.877,10.054c0,31.711,25.799,57.51,57.509,57.51c29.17,0,53.32-21.835,57.005-50.016h53.86
	c-3.868,57.792-52.11,103.63-110.865,103.63c-61.274,0-111.124-49.85-111.124-111.124c0-61.273,49.85-111.123,111.124-111.123
	c58.755,0,106.998,45.838,110.865,103.629L297.087,197.75L297.087,197.75z M416.604,238.991l-16.788-25.889l42.265,0.318
	l16.608,25.888L416.604,238.991z"/>
<g>
</g>
<g>
</g>
<g>
</g>
<g>
</g>
<g>
</g>
<g>
</g>
<g>
</g>
<g>
</g>
<g>
</g>
<g>
</g>
<g>
</g>
<g>
</g>
<g>
</g>
<g>
</g>
<g>
</g>
</svg>
