<?xml version="1.0" encoding="iso-8859-1"?>
<!-- Generator: Adobe Illustrator 19.0.0, SVG Export Plug-In . SVG Version: 6.00 Build 0)  -->
<svg version="1.1" id="Capa_1" xmlns="http://www.w3.org/2000/svg" xmlns:xlink="http://www.w3.org/1999/xlink" x="0px" y="0px"
	 viewBox="0 0 512.001 512.001" style="enable-background:new 0 0 512.001 512.001;" xml:space="preserve">
<g>
	<path style="fill:#6B6C8A;" d="M375.958,8.123c-1.618-1.091-3.593-0.714-4.899,0.942l-1.627,2.063
		c-22.326,28.29-50.012,48.376-80.242,58.212l0,0v49.342v49.342l0,0c30.23,9.836,57.917,29.922,80.242,58.212l1.627,2.063
		c1.306,1.654,3.281,2.033,4.899,0.942c30.709-20.702,51.695-62.44,51.695-110.558S406.667,28.826,375.958,8.123z"/>
	<path style="fill:#6B6C8A;" d="M136.042,8.123c1.618-1.091,3.593-0.714,4.899,0.942l1.627,2.063
		c22.326,28.29,50.012,48.376,80.242,58.212l0,0v49.342v49.342l0,0c-30.23,9.836-57.917,29.922-80.242,58.212l-1.627,2.063
		c-1.306,1.654-3.281,2.033-4.899,0.942c-30.709-20.702-51.695-62.44-51.695-110.558S105.333,28.826,136.042,8.123z"/>
</g>
<g>
	<path style="fill:#5D5F7A;" d="M427.65,118.683c0,48.115-20.979,89.852-51.688,110.56c-1.626,1.088-3.593,0.709-4.9-0.948
		l-1.627-2.056c-5.11-6.477-10.499-12.515-16.138-18.104c22.845-18.673,38.035-51.758,38.035-89.452s-15.19-70.78-38.035-89.452
		c5.638-5.589,11.028-11.627,16.138-18.104l1.627-2.066c1.307-1.647,3.274-2.026,4.9-0.938
		C406.671,28.822,427.65,70.569,427.65,118.683z"/>
	<path style="fill:#5D5F7A;" d="M84.347,118.683c0,48.115,20.979,89.852,51.688,110.56c1.626,1.088,3.593,0.709,4.9-0.948
		l1.627-2.056c5.11-6.477,10.499-12.515,16.138-18.104c-22.845-18.673-38.034-51.758-38.034-89.452s15.19-70.78,38.034-89.452
		c-5.638-5.589-11.028-11.627-16.138-18.104l-1.627-2.066c-1.307-1.647-3.274-2.026-4.9-0.938
		C105.326,28.822,84.347,70.569,84.347,118.683z"/>
</g>
<path style="fill:#80829B;" d="M284.186,177.95h-56.37c-2.763,0-5.004-2.241-5.004-5.004V64.417c0-2.763,2.241-5.004,5.004-5.004
	h56.37c2.763,0,5.004,2.241,5.004,5.004v108.529C289.19,175.709,286.949,177.95,284.186,177.95z"/>
<path style="fill:#6E7189;" d="M289.195,64.415v108.526c0,2.763-2.241,5.004-5.004,5.004h-14.457V59.411h14.457
	C286.954,59.411,289.195,61.652,289.195,64.415z"/>
<path style="fill:#3777D3;" d="M256.001,504.515L256.001,504.515c-21.006,0-38.034-17.028-38.034-38.034v-38.853
	c0-3.308,2.681-5.988,5.988-5.988h64.091c3.308,0,5.988,2.681,5.988,5.988v38.853C294.034,487.487,277.006,504.515,256.001,504.515z
	"/>
<path style="fill:#2468BA;" d="M294.034,427.63v38.853c0,21.009-17.026,38.034-38.035,38.034c-3.384,0-6.657-0.439-9.781-1.268
	c16.268-4.321,28.254-19.142,28.254-36.767v-38.853c0-3.304-2.685-5.988-5.988-5.988h19.561
	C291.35,421.642,294.034,424.326,294.034,427.63z"/>
<rect x="236.546" y="177.95" style="fill:#B76035;" width="38.913" height="243.692"/>
<rect x="256.002" y="177.95" style="fill:#A04C27;" width="19.461" height="243.692"/>
<path d="M435.139,118.681c0-13.646-1.622-27.301-4.943-40.54c-6.387-25.466-19.376-50.034-38.928-67.545
	c-3.514-3.14-7.227-6.077-11.146-8.697c-0.451-0.301-0.917-0.553-1.389-0.783c-4.569-2.227-9.934-1.046-13.354,3.083
	c-0.065,0.078-0.135,0.149-0.199,0.229c-2.346,2.956-4.645,5.821-7.136,8.708c-3.09,3.583-6.51,7.273-9.681,10.432
	c-15.56,15.504-33.079,27.391-51.732,35.056c-0.393-3.763-3.576-6.697-7.443-6.697H222.81c-3.868,0-7.05,2.934-7.443,6.697
	c0.011-0.106-28.782-15.755-31.413-17.668c-9.323-6.78-17.904-14.556-25.663-22.956c-4.026-4.357-7.803-8.92-11.475-13.572
	c-3.511-4.452-9.23-5.663-13.969-3.108c-0.337,0.18-0.671,0.376-0.998,0.594C98.238,24.571,77.256,68.719,76.881,117.358
	c-0.003,0.441-0.018,0.881-0.018,1.327c0,24.347,5.154,48.878,15.989,70.746c4.936,9.963,11.057,19.364,18.393,27.732
	c6.935,7.909,24.457,29.859,35.572,15.771c6.81-8.632,13.849-16.592,21.927-24.027c4.249-3.911,8.689-7.616,13.309-11.082
	c9.242-6.93,19.218-12.902,29.785-17.583c0.324-0.144,3.544-1.361,3.529-1.506c0.393,3.764,3.575,6.698,7.443,6.698h6.248v63.59
	c0,4.134,3.352,7.485,7.485,7.485c4.134,0,7.485-3.352,7.485-7.485v-63.59h23.943v228.72h-23.943V293.936
	c0-4.134-3.352-7.485-7.485-7.485c-4.134,0-7.485,3.352-7.485,7.485v120.22h-5.104c-7.429,0-13.474,6.044-13.474,13.474v38.853
	c0,25.099,20.42,45.519,45.519,45.519s45.519-20.42,45.519-45.519V427.63c0-7.429-6.044-13.474-13.474-13.474h-5.104v-228.72h6.248
	c3.868,0,7.05-2.934,7.443-6.698c18.625,7.652,36.117,19.516,51.661,34.987c1.339,1.332,2.645,2.671,3.947,4.049
	c5.626,5.954,12.355,19.591,21.751,19.591c4.314,0,7.598-2.804,10.878-5.303c3.819-2.911,7.432-6.092,10.824-9.491
	c6.908-6.924,12.89-14.749,17.946-23.115C427.349,176.764,435.139,148.543,435.139,118.681z M147.905,28.848
	c-21.872,21.309-34.725,54.239-34.725,89.836s12.853,68.528,34.725,89.837c-0.632,0.678-1.255,1.368-1.879,2.057
	c-0.173,0.19-0.348,0.377-0.52,0.569c-2.863,3.182-5.62,6.433-8.278,9.773c-28.089-20.725-45.396-59.493-45.396-102.235
	c0-1.193,0.018-2.382,0.045-3.568c0.934-41.324,18.044-78.521,45.349-98.668c-0.292,0.215,7.671,9.098,8.344,9.845
	c0.099,0.109,0.199,0.216,0.297,0.325C146.544,27.365,147.221,28.112,147.905,28.848z M215.326,162.691
	c-20.413,7.464-39.63,19.436-56.795,35.268c-19.123-18.491-30.38-47.578-30.38-79.275c0-31.698,11.257-60.786,30.382-79.276
	c17.165,15.829,36.381,27.801,56.793,35.266V162.691z M286.549,466.481c0,16.844-13.704,30.549-30.549,30.549
	c-16.844,0-30.549-13.704-30.549-30.549v-37.355h11.092h38.913h11.092v37.355H286.549z M374.769,220.919
	c0.09-0.067-9.46-11.094-10.677-12.4c21.872-21.309,34.725-54.239,34.725-89.837c0-35.597-12.853-68.527-34.725-89.836
	c0.819-0.879,10.7-12.387,10.679-12.403c14.922,11.009,26.801,27.11,34.659,46.193c6.932,16.84,10.734,36.005,10.734,56.044
	c0,18.893-3.386,37.006-9.583,53.13C402.755,192.169,390.443,209.356,374.769,220.919z M289.19,126.768
	c-4.134,0-7.485,3.352-7.485,7.485c0,0,0.15,35.44,0.417,36.212h-51.826V66.899h51.408c-0.267,0.772,0,19.944,0,19.944
	c0,4.134,3.352,7.485,7.485,7.485c4.133,0,7.485-3.352,7.485-7.485V74.672c20.412-7.464,39.627-19.435,56.792-35.264
	c19.124,18.491,30.38,47.578,30.38,79.275c0,31.696-11.256,60.783-30.379,79.273c-17.165-15.83-36.381-27.802-56.793-35.266v-28.438
	C296.675,130.119,293.324,126.768,289.19,126.768z"/>
<g>
</g>
<g>
</g>
<g>
</g>
<g>
</g>
<g>
</g>
<g>
</g>
<g>
</g>
<g>
</g>
<g>
</g>
<g>
</g>
<g>
</g>
<g>
</g>
<g>
</g>
<g>
</g>
<g>
</g>
</svg>
