<?xml version="1.0" encoding="iso-8859-1"?>
<!-- Generator: Adobe Illustrator 19.0.0, SVG Export Plug-In . SVG Version: 6.00 Build 0)  -->
<svg version="1.1" id="Capa_1" xmlns="http://www.w3.org/2000/svg" xmlns:xlink="http://www.w3.org/1999/xlink" x="0px" y="0px"
	 viewBox="0 0 511.999 511.999" style="enable-background:new 0 0 511.999 511.999;" xml:space="preserve">
<path style="fill:#FF961D;" d="M318.677,125.935v51.902c0,0,86.891,22.267,177.356,95.568c3.402,2.757,8.478,0.362,8.478-4.016
	V34.383c0-4.379-5.076-6.772-8.478-4.016C405.568,103.668,318.677,125.935,318.677,125.935z"/>
<path style="fill:#EF8318;" d="M504.511,34.382v235.008c0,4.374-5.073,6.77-8.478,4.014c-4.583-3.715-9.147-7.289-13.7-10.734
	V41.103c4.553-3.445,9.117-7.02,13.7-10.734C499.438,27.612,504.511,30.009,504.511,34.382z"/>
<rect x="44.096" y="125.936" style="fill:#FF961D;" width="274.581" height="51.909"/>
<rect x="292.924" y="125.936" style="fill:#EF8318;" width="25.749" height="51.909"/>
<path style="fill:#B76035;" d="M39.106,185.943H12.482c-2.757,0-4.993-2.236-4.993-4.993V122.83c0-2.757,2.236-4.993,4.993-4.993
	h26.624c2.757,0,4.993,2.236,4.993,4.993v58.121C44.099,183.707,41.863,185.943,39.106,185.943z"/>
<path style="fill:#3777D3;" d="M76.126,177.844v210.72v89.246c0,3.728,3.937,6.141,7.258,4.45l95.737-48.756
	c1.424-0.725,3.107-0.725,4.531,0l95.737,48.756c3.322,1.692,7.258-0.721,7.258-4.45v-89.246v-210.72H76.126z"/>
<path style="fill:#2468BA;" d="M286.647,177.844v299.964c0,3.735-3.934,6.141-7.259,4.454l-24.764-12.612V177.844L286.647,177.844
	L286.647,177.844z"/>
<g>
	<rect x="95.681" y="125.916" style="fill:#3777D3;" width="33.754" height="51.925"/>
	<rect x="233.341" y="125.916" style="fill:#3777D3;" width="33.754" height="51.925"/>
</g>
<g>
	<rect x="250.216" y="125.916" style="fill:#2468BA;" width="16.876" height="51.925"/>
	<rect x="112.556" y="125.916" style="fill:#2468BA;" width="16.876" height="51.925"/>
</g>
<path style="fill:#FFDBA9;" d="M254.792,309.327l-3.189-14.124c-0.35-1.553-1.793-2.608-3.38-2.472l-33.622,2.882
	c-8.3,0.711-15.238-6.227-14.526-14.526l2.882-33.622c0.136-1.587-0.92-3.03-2.472-3.38l-14.128-3.19
	c-0.462-0.104-0.942-0.104-1.404,0l-14.124,3.189c-1.553,0.35-2.608,1.793-2.472,3.38l2.882,33.622
	c0.711,8.299-6.227,15.238-14.526,14.526l-33.622-2.882c-1.587-0.136-3.03,0.92-3.38,2.472l-3.189,14.124
	c-0.104,0.462-0.105,0.942,0,1.404l3.19,14.128c0.35,1.553,1.793,2.609,3.38,2.472l33.622-2.882
	c8.299-0.711,15.238,6.227,14.526,14.526l-2.882,33.622c-0.136,1.587,0.92,3.03,2.472,3.38l14.124,3.189
	c0.462,0.105,0.942,0.105,1.404,0l14.128-3.189c1.553-0.351,2.609-1.793,2.472-3.38l-2.882-33.622
	c-0.711-8.3,6.227-15.238,14.526-14.526l33.622,2.882c1.587,0.136,3.03-0.92,3.38-2.472l3.19-14.128
	C254.897,310.269,254.897,309.788,254.792,309.327z"/>
<path d="M504.786,22.947c-4.462-2.127-9.622-1.514-13.466,1.602c-12.18,9.869-25.001,19.357-38.104,28.201
	c-3.429,2.314-4.333,6.969-2.018,10.398c2.314,3.428,6.969,4.331,10.397,2.018c12.133-8.189,24.032-16.917,35.428-25.986v225.412
	c-77.258-61.511-150.261-86.271-170.856-92.421v-40.578c13.483-4.048,49.691-16.186,95.139-41.621
	c3.609-2.02,4.897-6.583,2.878-10.193c-2.018-3.609-6.58-4.899-10.193-2.878c-50.507,28.264-90.04,39.81-96.306,41.544H50.778
	c-1.78-4.723-6.334-8.098-11.672-8.098H12.482C5.599,110.347,0,115.946,0,122.829v58.121c0,6.883,5.599,12.482,12.482,12.482h26.624
	c5.338,0,9.892-3.375,11.672-8.098h17.859V477.81c0,4.377,2.227,8.355,5.959,10.642c3.732,2.289,8.289,2.466,12.186,0.48
	l94.605-48.179l94.605,48.179c1.799,0.917,3.738,1.372,5.672,1.372c2.257,0,4.505-0.621,6.515-1.852
	c3.732-2.288,5.959-6.265,5.959-10.642V265.654c0-4.136-3.352-7.489-7.489-7.489s-7.489,3.353-7.489,7.489v208.084l-92.107-46.907
	c-3.548-1.807-7.785-1.807-11.329,0l-92.108,46.907V185.333h195.544v32.391c0,4.136,3.352,7.489,7.489,7.489
	s7.489-3.353,7.489-7.489v-32.391h23.573c9.29,2.573,90.233,26.335,173.607,93.889c2.327,1.886,5.137,2.855,7.979,2.855
	c1.855,0,3.726-0.412,5.488-1.252c4.45-2.121,7.215-6.504,7.215-11.436V34.383C512,29.451,509.236,25.068,504.786,22.947z
	 M36.61,125.935v51.909v0.609H14.978v-53.128H36.61C36.61,125.325,36.61,125.935,36.61,125.935z M88.195,170.355H76.126H51.588
	v-36.93h36.607V170.355z M121.949,170.355h-18.776v-36.93h18.776V170.355z M225.85,170.355h-88.923v-36.93h88.923V170.355z
	 M259.603,170.355h-18.776v-36.93h18.776V170.355z M311.188,170.355h-24.538h-12.068v-36.93h36.606v36.93H311.188z"/>
<path d="M213.96,331.911l33.622,2.882c5.275,0.451,10.158-3.108,11.325-8.285l3.189-14.126c0.348-1.539,0.348-3.165,0-4.703
	l-3.188-14.122c-1.166-5.178-6.017-8.732-11.326-8.287l-33.622,2.882c-2.396,0.21-3.976-0.988-4.707-1.717
	c-0.729-0.73-1.923-2.312-1.718-4.707l2.882-33.619c0.455-5.288-3.106-10.158-8.285-11.328l-14.135-3.191
	c-1.536-0.345-3.159-0.343-4.695,0.002l-14.125,3.189c-5.175,1.168-8.736,6.036-8.285,11.325l2.883,33.621
	c0.205,2.396-0.989,3.977-1.718,4.707c-0.73,0.73-2.306,1.927-4.707,1.717l-33.621-2.882c-5.299-0.449-10.155,3.107-11.326,8.285
	l-3.189,14.123c-0.348,1.54-0.348,3.165,0,4.703l3.189,14.13c1.17,5.176,6.024,8.735,11.326,8.283l33.621-2.882
	c2.402-0.205,3.976,0.988,4.707,1.717c0.729,0.73,1.923,2.312,1.718,4.707l-2.883,33.623c-0.451,5.285,3.108,10.152,8.285,11.324
	l14.125,3.189c0.769,0.174,1.56,0.261,2.351,0.261c0.791,0,1.583-0.087,2.352-0.261l14.126-3.19
	c5.179-1.168,8.741-6.038,8.286-11.325l-2.882-33.622c-0.206-2.395,0.988-3.976,1.718-4.706
	C209.984,332.899,211.564,331.706,213.96,331.911z M247.487,310.977v0.001c-0.001-0.005-0.002-0.01-0.004-0.015L247.487,310.977z
	 M198.662,323.038c-4.374,4.373-6.578,10.416-6.05,16.577l2.56,29.883l-9.52,2.15l-9.516-2.149l2.561-29.884
	c0.527-6.162-1.678-12.204-6.051-16.578c-4.374-4.373-10.41-6.577-16.578-6.05l-29.884,2.561l-2.149-9.52l2.149-9.517l29.884,2.561
	c6.168,0.529,12.204-1.677,16.578-6.05c4.374-4.374,6.578-10.416,6.051-16.578l-2.561-29.884l9.518-2.15l9.518,2.15l-2.56,29.883
	c-0.528,6.162,1.677,12.204,6.05,16.578c4.373,4.374,10.414,6.579,16.578,6.051l29.884-2.561l2.149,9.517l-2.149,9.52l-29.884-2.561
	C209.081,316.46,203.035,318.665,198.662,323.038z"/>
<g>
</g>
<g>
</g>
<g>
</g>
<g>
</g>
<g>
</g>
<g>
</g>
<g>
</g>
<g>
</g>
<g>
</g>
<g>
</g>
<g>
</g>
<g>
</g>
<g>
</g>
<g>
</g>
<g>
</g>
</svg>
