<?xml version="1.0" encoding="iso-8859-1"?>
<!-- Generator: Adobe Illustrator 19.0.0, SVG Export Plug-In . SVG Version: 6.00 Build 0)  -->
<svg version="1.1" id="Capa_1" xmlns="http://www.w3.org/2000/svg" xmlns:xlink="http://www.w3.org/1999/xlink" x="0px" y="0px"
	 viewBox="0 0 512.001 512.001" style="enable-background:new 0 0 512.001 512.001;" xml:space="preserve">
<path style="fill:#B76035;" d="M256,7.502L256,7.502L256,7.502h-0.002l0,0c-18.178,0.073-36.557,1.76-54.238,4.804
	c-12.227,2.106-20.63,13.458-19.016,25.758l5.811,44.318h134.89l5.811-44.318c1.612-12.302-6.79-23.653-19.016-25.758
	C292.556,9.262,274.178,7.575,256,7.502z"/>
<path style="fill:#A04C27;" d="M329.251,38.067l-5.812,44.313h-26.678l6.282-47.884c1.36-10.373-3.871-20.126-12.514-24.977
	c6.632,0.73,13.214,1.67,19.706,2.791C322.459,14.41,330.872,25.763,329.251,38.067z"/>
<path style="fill:#D5F0F7;" d="M351.003,148.687H160.997c-2.622,0-4.747-2.126-4.747-4.747v-56.81c0-2.622,2.126-4.747,4.747-4.747
	h190.007c2.622,0,4.747,2.126,4.747,4.747v56.81C355.751,146.561,353.625,148.687,351.003,148.687z"/>
<path style="fill:#A6DFE8;" d="M351.003,148.687h-21.416V82.382h21.416c2.622,0,4.747,2.126,4.747,4.747v56.81
	C355.751,146.561,353.625,148.687,351.003,148.687z"/>
<circle style="fill:#D5F0F7;" cx="256.004" cy="342.958" r="161.536"/>
<path style="fill:#A6DFE8;" d="M417.536,342.964c0,89.216-72.321,161.536-161.536,161.536c-33.94,0-65.419-10.463-91.416-28.338
	c19.716,8.572,41.482,13.334,64.358,13.334c89.216,0,161.536-72.321,161.536-161.536c0-55.286-27.778-104.09-70.13-133.208
	C377.545,219.619,417.536,276.615,417.536,342.964z"/>
<rect x="177.922" y="148.683" style="fill:#D5F0F7;" width="156.155" height="53.025"/>
<rect x="307.019" y="148.683" style="fill:#A6DFE8;" width="27.058" height="53.025"/>
<path style="fill:#00AD95;" d="M150.148,310.384c-3.318,10.793-5.03,22.288-4.858,34.209
	c0.858,59.597,49.445,108.201,109.041,109.078c61.915,0.911,112.391-49.004,112.391-110.71c0-11.961-1.897-23.481-5.407-34.272
	c-1.71-5.258-6.633-8.801-12.161-8.758l-186.962,1.44C156.638,301.414,151.78,305.075,150.148,310.384z"/>
<path style="fill:#039377;" d="M366.722,342.964c0,61.698-50.474,111.622-112.392,110.702c-15.274-0.23-29.829-3.581-43.042-9.473
	c5.962,1.1,12.083,1.72,18.325,1.811c61.918,0.92,112.392-49.004,112.392-110.702c0-11.963-1.901-23.487-5.412-34.28
	c-0.11-0.34-0.23-0.67-0.36-0.99l12.924-0.1c5.522-0.04,10.453,3.501,12.163,8.753C364.821,319.478,366.722,331.001,366.722,342.964
	z"/>
<path d="M341.579,197.242v-41.054h9.425c6.755,0,12.25-5.495,12.25-12.25V87.129c0-6.754-5.495-12.249-12.25-12.249h-19.009
	l4.699-35.84c2.142-16.337-8.92-31.327-25.183-34.128C293.008,1.726,274.341,0.074,256.031,0c-0.02,0-0.043,0-0.063,0
	c-18.311,0.074-36.978,1.726-55.48,4.912c-16.264,2.801-27.324,17.791-25.183,34.128l4.699,35.84h-19.006
	c-6.755,0-12.25,5.495-12.25,12.249v56.81c0,6.754,5.495,12.25,12.25,12.25h9.425v41.045
	c-49.903,29.417-83.459,83.728-83.459,145.73c0,93.208,75.83,169.038,169.037,169.038c38.087,0,74.048-12.368,103.994-35.766
	c3.266-2.551,3.844-7.265,1.293-10.53c-2.553-3.265-7.268-3.843-10.531-1.292c-27.282,21.317-60.048,32.584-94.756,32.584
	c-84.933,0-154.032-69.099-154.032-154.033c0-57.182,31.326-107.178,77.712-133.75h152.594
	c46.406,26.567,77.759,76.554,77.759,133.75c0,32.161-9.808,62.968-28.362,89.092c-2.399,3.378-1.605,8.061,1.771,10.461
	s8.062,1.605,10.46-1.772c20.369-28.676,31.135-62.489,31.135-97.781C425.038,280.963,391.479,226.66,341.579,197.242z
	 M203.034,19.699c17.674-3.043,35.493-4.622,52.966-4.694c17.472,0.072,35.29,1.651,52.964,4.694
	c8.297,1.429,13.942,9.068,12.852,17.39L316.86,74.88H195.138l-4.954-37.791C189.092,28.766,194.736,21.128,203.034,19.699z
	 M326.574,194.208H185.427v-38.019h141.148V194.208z M177.925,141.185h-14.172V89.884h184.496v51.3h-14.172L177.925,141.185
	L177.925,141.185z"/>
<path d="M162.251,308.874l55.471-0.427c4.144-0.032,7.476-3.417,7.444-7.56c-0.032-4.124-3.385-7.444-7.501-7.444
	c-0.02,0-0.039,0-0.059,0l-55.471,0.427c-8.85,0.069-16.549,5.82-19.159,14.311c-3.622,11.783-5.368,24.07-5.189,36.521
	c0.443,30.787,12.764,59.821,34.69,81.754c21.926,21.934,50.957,34.264,81.743,34.717c0.6,0.009,1.197,0.013,1.797,0.013
	c31.26,0,60.66-12.037,82.96-34.01c22.731-22.398,35.248-52.306,35.248-84.214c0-12.5-1.943-24.811-5.774-36.592
	c-2.718-8.355-10.417-13.94-19.193-13.94c-0.054,0-0.107,0-0.161,0l-84.812,0.653c-4.144,0.032-7.476,3.417-7.444,7.56
	c0.032,4.143,3.412,7.429,7.56,7.444l84.813-0.653c0.014,0,0.027,0,0.041,0c2.254,0,4.23,1.432,4.928,3.576
	c3.343,10.28,5.038,21.03,5.038,31.951c0,27.859-10.93,53.971-30.776,73.526c-19.842,19.552-46.109,30.079-74.003,29.683
	c-26.862-0.396-52.202-11.164-71.352-30.322s-29.912-44.502-30.299-71.362c-0.156-10.881,1.367-21.613,4.528-31.896
	C157.997,310.384,159.978,308.891,162.251,308.874z"/>
<g>
</g>
<g>
</g>
<g>
</g>
<g>
</g>
<g>
</g>
<g>
</g>
<g>
</g>
<g>
</g>
<g>
</g>
<g>
</g>
<g>
</g>
<g>
</g>
<g>
</g>
<g>
</g>
<g>
</g>
</svg>
