<?xml version="1.0" encoding="iso-8859-1"?>
<!-- Generator: Adobe Illustrator 19.0.0, SVG Export Plug-In . SVG Version: 6.00 Build 0)  -->
<svg version="1.1" id="Capa_1" xmlns="http://www.w3.org/2000/svg" xmlns:xlink="http://www.w3.org/1999/xlink" x="0px" y="0px"
	 viewBox="0 0 512 512" style="enable-background:new 0 0 512 512;" xml:space="preserve">
<g>
	<path style="fill:#00AD95;" d="M142.004,284.243H87.876c-2.765,0-5.007-2.241-5.007-5.007v-27.938c0-2.765,2.242-5.007,5.007-5.007
		h54.128V284.243z"/>
	<path style="fill:#00AD95;" d="M424.124,284.243h-54.128v-37.951h54.128c2.765,0,5.007,2.242,5.007,5.007v27.938
		C429.131,282.002,426.889,284.243,424.124,284.243z"/>
</g>
<g>
	<path style="fill:#039377;" d="M424.124,284.243h-18.639v-37.951h18.639c2.765,0,5.007,2.242,5.007,5.007v27.938
		C429.131,282.002,426.889,284.243,424.124,284.243z"/>
	<rect x="118.36" y="246.29" style="fill:#039377;" width="23.646" height="37.951"/>
</g>
<path style="fill:#FF961D;" d="M142.004,323.009h227.252V121.136c0-62.754-50.872-113.626-113.626-113.626l0,0
	c-62.754,0-113.626,50.872-113.626,113.626L142.004,323.009L142.004,323.009z"/>
<path style="fill:#EF8318;" d="M369.254,121.132v201.874h-25.924V121.132c0-58.366-44.018-106.449-100.662-112.878
	c4.246-0.491,8.571-0.741,12.957-0.741C318.388,7.513,369.254,58.38,369.254,121.132z"/>
<circle cx="205.93" cy="100.94" r="7.484"/>
<circle cx="306.06" cy="100.94" r="7.484"/>
<circle cx="205.93" cy="222.12" r="7.484"/>
<circle cx="306.06" cy="222.12" r="7.484"/>
<circle cx="256" cy="162.44" r="7.484"/>
<path style="fill:#FFDBA9;" d="M369.841,331.213c-0.01-4.415-0.633-8.83-2.103-12.993c-5.424-15.357-20.061-26.361-37.276-26.361
	c-17.164,0-31.767,10.941-37.231,26.227c-5.464-15.286-20.067-26.227-37.231-26.227s-31.767,10.941-37.231,26.227
	c-5.464-15.286-20.067-26.227-37.231-26.227c-17.214,0-31.852,11.004-37.276,26.361c-1.47,4.163-2.093,8.578-2.103,12.993
	l-0.155,69.663h227.992L369.841,331.213z"/>
<path style="fill:#FFC473;" d="M369.995,400.878h-21.768l-0.16-69.661c-0.01-4.416-0.631-8.832-2.103-12.997
	c-4.225-11.986-14.078-21.328-26.385-24.843c3.454-0.991,7.109-1.522,10.884-1.522c17.213,0,31.852,11.004,37.279,26.364
	c1.462,4.165,2.093,8.581,2.103,12.997L369.995,400.878z"/>
<g>
	<rect x="98.46" y="284.23" style="fill:#B76035;" width="43.544" height="116.65"/>
	<rect x="369.92" y="284.23" style="fill:#B76035;" width="43.544" height="116.65"/>
</g>
<g>
	<rect x="391.69" y="284.23" style="fill:#A04C27;" width="21.772" height="116.65"/>
	<rect x="119.69" y="284.23" style="fill:#A04C27;" width="21.772" height="116.65"/>
</g>
<path style="fill:#B76035;" d="M255.634,400.876h-0.011H98.46v98.608c0,2.765,2.242,5.007,5.007,5.007h68.581
	c2.765,0,5.007-2.241,5.007-5.007v-30.637c0-2.765,2.242-5.007,5.007-5.007h73.564h0.011H329.2c2.765,0,5.007,2.241,5.007,5.007
	v30.637c0,2.765,2.242,5.007,5.007,5.007h68.581c2.765,0,5.007-2.241,5.007-5.007v-98.608H255.634z"/>
<path style="fill:#A04C27;" d="M412.802,400.878v98.609c0,2.764-2.243,5.007-5.007,5.007h-21.108c2.764,0,5.007-2.243,5.007-5.007
	v-98.609H412.802z"/>
<path d="M424.124,238.782h-47.359V121.136C376.766,54.341,322.424,0,255.63,0c-25.09,0-49.164,7.604-69.617,21.991
	c-19.991,14.061-35.109,33.529-43.721,56.298c-1.467,3.88,0.488,8.214,4.367,9.681c3.881,1.468,8.213-0.489,9.681-4.368
	c7.544-19.946,20.792-37.003,38.314-49.327c17.91-12.598,38.994-19.256,60.975-19.256c58.513,0,106.116,47.604,106.116,106.116
	v175.142c-8.436-7.505-19.494-11.928-31.283-11.928c-14.801,0-28.474,6.989-37.231,18.298
	c-8.757-11.309-22.431-18.298-37.231-18.298c-14.801,0-28.474,6.989-37.231,18.298c-8.757-11.31-22.43-18.298-37.231-18.298
	c-12.139,0-23.499,4.695-32.023,12.61v-12.717v-0.015v-37.936V126.165c0-4.148-3.362-7.51-7.51-7.51c-4.148,0-7.51,3.362-7.51,7.51
	v112.617H87.876c-6.902,0-12.516,5.615-12.516,12.516v27.938c0,6.902,5.615,12.516,12.516,12.516h3.074v109.123v98.608
	c0,6.902,5.615,12.516,12.516,12.516h68.581c6.902,0,12.516-5.615,12.516-12.516V471.35h66.931c4.148,0,7.51-3.362,7.51-7.51
	s-3.362-7.51-7.51-7.51H182.06c-6.902,0-12.516,5.615-12.516,12.516v28.134H105.97v-88.595h36.034H369.92h0.076h35.294v88.595
	h-63.573v-28.134c0-6.902-5.615-12.516-12.516-12.516h-30.144c-4.148,0-7.51,3.362-7.51,7.51c0,4.147,3.362,7.51,7.51,7.51h27.641
	v28.134c0,6.902,5.615,12.516,12.516,12.516h68.58c6.902,0,12.516-5.615,12.516-12.516v-95.531c0.423-0.94,0.664-1.979,0.664-3.076
	V291.753h3.151c6.902,0,12.516-5.615,12.516-12.516v-27.938C436.641,244.397,431.026,238.782,424.124,238.782z M90.379,253.802
	h44.115v22.916H98.46c-0.102,0-0.2,0.011-0.301,0.015h-7.78V253.802z M105.97,291.753h28.525v31.256v70.357H105.97V291.753z
	 M149.668,331.23c0.008-3.852,0.572-7.387,1.674-10.508c4.511-12.772,16.645-21.352,30.195-21.352
	c13.498,0,25.618,8.538,30.16,21.245c1.068,2.988,3.899,4.982,7.072,4.982s6.004-1.994,7.072-4.982
	c4.542-12.707,16.662-21.245,30.16-21.245c13.497,0,25.618,8.538,30.16,21.245c1.068,2.988,3.899,4.982,7.072,4.982
	s6.004-1.994,7.072-4.982c4.542-12.707,16.662-21.245,30.16-21.245c13.549,0,25.683,8.581,30.195,21.353
	c1.102,3.12,1.665,6.656,1.674,10.507l0.078,35.263v26.874H149.53L149.668,331.23z M405.954,393.366h-28.465l-0.06-26.898v-74.715
	h28.525V393.366z M421.621,276.733h-7.856c-0.101-0.004-0.199-0.015-0.301-0.015h-35.958v-22.916h44.115V276.733z"/>
<g>
</g>
<g>
</g>
<g>
</g>
<g>
</g>
<g>
</g>
<g>
</g>
<g>
</g>
<g>
</g>
<g>
</g>
<g>
</g>
<g>
</g>
<g>
</g>
<g>
</g>
<g>
</g>
<g>
</g>
</svg>
