<?xml version="1.0" encoding="iso-8859-1"?>
<!-- Generator: Adobe Illustrator 19.0.0, SVG Export Plug-In . SVG Version: 6.00 Build 0)  -->
<svg version="1.1" id="Capa_1" xmlns="http://www.w3.org/2000/svg" xmlns:xlink="http://www.w3.org/1999/xlink" x="0px" y="0px"
	 viewBox="0 0 512 512" style="enable-background:new 0 0 512 512;" xml:space="preserve">
<path style="fill:#FF4F19;" d="M305.08,58.426l-2.045,2.726c-2.848,3.798-8.774,2.779-10.227-1.74
	c-3.943-12.263-12.978-32.316-32.919-50.383c-2.197-1.991-5.58-1.991-7.777,0c-19.941,18.066-28.976,38.12-32.919,50.383
	c-1.453,4.519-7.379,5.538-10.227,1.74l-2.045-2.726c-2.34-3.12-7.008-3.094-9.353,0.023
	c-68.596,91.175-13.897,153.689-13.897,153.689H256h72.329c0,0,54.699-62.514-13.897-153.689
	C312.087,55.332,307.42,55.306,305.08,58.426z"/>
<path style="fill:#E23D17;" d="M328.327,212.137h-18.535c0,0,52.74-60.265-10.29-148.763c1.333-0.25,2.605-0.972,3.537-2.224
	l2.044-2.725c2.335-3.116,7.003-3.096,9.348,0.02C383.031,149.629,328.327,212.137,328.327,212.137z"/>
<path style="fill:#B7C1CA;" d="M354.593,217.12c-0.029-2.754-2.261-4.982-5.016-4.982h-64.124h-29.45h-0.006h-22.826h-70.748
	c-2.754,0-4.987,2.228-5.016,4.982c-0.51,48.439,43.895,66.153,43.895,66.153h31.869H256l0,0h29.453h25.245
	C310.698,283.272,355.103,265.559,354.593,217.12z"/>
<path style="fill:#A3AEB7;" d="M354.597,217.117c0.511,48.442-43.903,66.156-43.903,66.156h-18.966c0,0,44.404-17.714,43.893-66.156
	c-0.03-2.755-2.264-4.979-5.02-4.979h18.976C352.333,212.137,354.567,214.362,354.597,217.117z"/>
<path style="fill:#B7C1CA;" d="M256,283.272h-0.003h-54.101l23.085,188.772c2.282,18.664,15.046,32.441,30.055,32.441h1.925
	c15.009,0,27.773-13.777,30.055-32.441l23.085-188.772H256z"/>
<path style="fill:#A3AEB7;" d="M310.103,283.272l-23.084,188.769c-2.284,18.665-15.049,32.442-30.057,32.442h-1.924
	c-2.825,0-5.561-0.491-8.176-1.403c11.261-3.948,20.028-15.88,21.882-31.039l23.084-188.769L310.103,283.272L310.103,283.272z"/>
<path style="fill:#FF961D;" d="M251.59,120.004c-56.844,41.272-19.195,92.133-19.195,92.133H256h23.605
	c0,0,37.65-50.861-19.195-92.133C257.819,118.123,254.181,118.123,251.59,120.004z"/>
<path style="fill:#EF8318;" d="M279.605,212.137h-15.73c0,0,36.089-48.743-15.74-89.53c1.112-0.872,2.264-1.743,3.457-2.605
	c2.585-1.884,6.232-1.884,8.817,0C317.256,161.281,279.605,212.137,279.605,212.137z"/>
<path style="fill:#FF961D;" d="M312.504,365.914H199.496c-11.272,0-20.41-9.138-20.41-20.41l0,0c0-11.272,9.138-20.41,20.41-20.41
	h113.008c11.272,0,20.41,9.138,20.41,20.41l0,0C332.914,356.776,323.776,365.914,312.504,365.914z"/>
<path style="fill:#EF8318;" d="M332.916,345.501c0,5.641-2.284,10.74-5.981,14.427c-3.687,3.697-8.797,5.981-14.427,5.981h-15.029
	c5.631,0,10.74-2.284,14.427-5.981c3.697-3.687,5.981-8.787,5.981-14.427c0-11.271-9.137-20.409-20.409-20.409h15.029
	C323.779,325.092,332.916,334.229,332.916,345.501z"/>
<path d="M349.577,204.623h-7.222c4.391-7.881,9.407-19.305,12.132-33.746c8.94-47.368-13.583-89.741-34.051-116.946
	c-2.557-3.399-6.457-5.347-10.703-5.347c-0.003,0-0.007,0-0.01,0c-4.232,0.003-8.115,1.947-10.656,5.333l0,0l-0.126,0.169
	c-4.922-13.95-14.712-33.144-34.008-50.626c-5.093-4.613-12.774-4.613-17.867,0c-19.296,17.482-29.086,36.677-34.008,50.626
	l-0.127-0.169c-2.54-3.386-6.423-5.33-10.656-5.333c-0.004,0-0.006,0-0.01,0c-4.245,0-8.146,1.948-10.703,5.347
	c-20.468,27.205-42.991,69.578-34.051,116.946c2.725,14.441,7.741,25.865,12.132,33.746h-7.222c-6.837,0-12.457,5.571-12.529,12.417
	c-0.231,21.947,8.1,41.578,24.095,56.769c8.197,7.785,16.451,12.531,20.991,14.81l3.545,28.985
	c-14.949,0.515-26.953,12.828-26.953,27.9c0,15.397,12.527,27.924,27.925,27.924h5.855l12.171,99.529
	C220.289,495.58,236.066,512,255.036,512h1.926c18.971,0,34.747-16.42,37.513-39.043l3.661-29.939
	c0.504-4.119-2.427-7.867-6.546-8.37c-4.125-0.503-7.867,2.427-8.371,6.547l-3.661,29.939c-1.801,14.73-11.516,25.839-22.596,25.839
	h-1.926c-11.081,0-20.795-11.109-22.597-25.839l-11.948-97.704h71.015l-2.584,21.131c-0.504,4.119,2.427,7.867,6.547,8.37
	c4.119,0.509,7.867-2.427,8.37-6.547l2.807-22.955h5.858c15.398,0,27.925-12.527,27.925-27.924c0-15.073-12.006-27.387-26.956-27.9
	l3.544-28.984c4.54-2.278,12.796-7.024,20.995-14.811c15.994-15.191,24.326-34.822,24.095-56.769c0,0,0,0,0-0.001
	C362.034,210.193,356.413,204.623,349.577,204.623z M172.134,167.302c-5.941-32.924,4.194-67.425,30.123-102.57l0.697,0.929
	c3.005,4.007,7.94,5.981,12.873,5.154c4.95-0.83,8.98-4.318,10.519-9.103C230.235,49.617,238.528,31.92,256,15.66
	c17.472,16.261,25.765,33.957,29.654,46.053c1.539,4.785,5.569,8.272,10.519,9.102c4.931,0.826,9.867-1.147,12.873-5.154
	l0.697-0.929c25.929,35.146,36.064,69.646,30.123,102.57c-3.422,18.96-11.51,32.067-15.242,37.321h-32.229
	c4.348-9.612,8.742-24.168,6.204-40.652c-2.937-19.069-14.3-35.908-33.775-50.047c-5.195-3.772-12.453-3.772-17.649,0l0,0
	c-19.474,14.139-30.837,30.977-33.774,50.047c-2.538,16.484,1.857,31.041,6.204,40.652h-32.227
	C183.635,199.354,175.554,186.252,172.134,167.302z M228.255,166.258c2.303-14.958,11.639-28.474,27.745-40.17
	c16.051,11.656,25.379,25.12,27.722,40.017c2.704,17.193-4.586,32.283-8.228,38.517h-39.009
	C232.84,198.439,225.596,183.524,228.255,166.258z M325.4,345.504c0,7.111-5.785,12.896-12.896,12.896H199.496
	c-7.111,0-12.896-5.785-12.896-12.896s5.785-12.896,12.896-12.896h24.778c4.15,0,7.514-3.364,7.514-7.514s-3.364-7.514-7.514-7.514
	h-10.613l-3.276-26.792h91.227l-3.276,26.792h-28.353c-4.15,0-7.514,3.364-7.514,7.514s3.364,7.514,7.514,7.514h42.522
	C319.615,332.608,325.4,338.393,325.4,345.504z M309.132,275.758H202.869c-6.676-3.081-37.021-19.104-37.931-56.107h18.733h48.724
	h47.209h48.724h18.733C346.151,256.679,315.765,272.7,309.132,275.758z"/>
<g>
</g>
<g>
</g>
<g>
</g>
<g>
</g>
<g>
</g>
<g>
</g>
<g>
</g>
<g>
</g>
<g>
</g>
<g>
</g>
<g>
</g>
<g>
</g>
<g>
</g>
<g>
</g>
<g>
</g>
</svg>
