<?xml version="1.0" encoding="iso-8859-1"?>
<!-- Generator: Adobe Illustrator 19.0.0, SVG Export Plug-In . SVG Version: 6.00 Build 0)  -->
<svg version="1.1" id="Capa_1" xmlns="http://www.w3.org/2000/svg" xmlns:xlink="http://www.w3.org/1999/xlink" x="0px" y="0px"
	 viewBox="0 0 511.998 511.998" style="enable-background:new 0 0 511.998 511.998;" xml:space="preserve">
<path style="fill:#B76035;" d="M419.263,432.132l-2.015-3.782c-4.81-9.03-5.233-20.368-1.115-29.859l1.429-3.294
	c4.332-9.984,3.624-21.964-1.84-31.147l0,0c-5.87-9.864-6.217-22.879-0.885-33.157l5.043-9.721
	c3.056-5.89,4.311-12.831,3.558-19.674L409.494,174.86H102.5L88.556,301.498c-0.753,6.843,0.502,13.784,3.558,19.674l5.043,9.721
	c5.332,10.278,4.985,23.293-0.885,33.157l0,0c-5.465,9.183-6.172,21.163-1.841,31.147l1.429,3.293
	c4.118,9.491,3.695,20.829-1.115,29.859l-2.015,3.782c-5.734,10.766,0.847,24.745,11.649,24.745h303.234
	C418.416,456.877,424.997,442.898,419.263,432.132z"/>
<path style="fill:#A04C27;" d="M419.258,432.131c5.74,10.768-0.845,24.751-11.645,24.751h-47.236
	c10.799,0,17.373-13.984,11.645-24.751l-2.019-3.782c-4.801-9.028-5.235-20.362-1.115-29.859l1.432-3.286
	c4.332-9.994,3.627-21.977-1.843-31.157c-3.099-5.191-4.649-11.278-4.649-17.366c0-5.453,1.244-10.933,3.768-15.792l5.036-9.718
	c3.064-5.895,4.32-12.824,3.569-19.672l-13.945-126.643h47.236l13.945,126.643c0.751,6.847-0.505,13.777-3.557,19.672l-5.048,9.718
	c-2.512,4.859-3.768,10.326-3.768,15.779c0,6.102,1.561,12.175,4.66,17.38c5.458,9.18,6.175,21.163,1.843,31.157l-1.432,3.286
	c-4.12,9.497-3.698,20.831,1.115,29.859L419.258,432.131z"/>
<path style="fill:#F3D1BB;" d="M291.313,406.341H220.68c-50.624,0-91.663-41.039-91.663-91.663V195.912h253.96v118.766
	C382.977,365.302,341.938,406.341,291.313,406.341z"/>
<path style="fill:#E8C0A8;" d="M382.98,195.915v118.76c0,50.63-41.043,91.662-91.662,91.662H255.08
	c50.63,0,91.662-41.032,91.662-91.662v-118.76L382.98,195.915L382.98,195.915z"/>
<path style="fill:#F3D1BB;" d="M129.017,257.214h-2.027c-18.89,0-34.203,15.313-34.203,34.203l0,0
	c0,18.89,15.313,34.203,34.203,34.203h2.027V257.214z"/>
<path style="fill:#E8C0A8;" d="M410.115,314.64c-6.248,6.753-15.186,10.981-25.112,10.981h-2.027v-68.407h2.027
	c18.89,0,34.203,15.313,34.203,34.203l0,0C419.207,300.382,415.758,308.541,410.115,314.64L410.115,314.64z"/>
<g>
	<path style="fill:#B76035;" d="M242.874,209.942c-20.68,50.272-85.227,51.401-126.592,43.85c-7.087-1.294-14.24-2.8-21.147-5.099
		v-33.958c0-71.744,52.671-129.904,117.644-129.904h43.004c0.368,14.25,0.375,28.526,0.189,42.78
		c-0.341,26.123-3.087,49.231-10.249,74.125C244.897,204.607,243.944,207.34,242.874,209.942z"/>
	<path style="fill:#B76035;" d="M269.12,209.942c20.68,50.272,85.227,51.401,126.592,43.85c7.087-1.294,14.24-2.8,21.147-5.099
		v-33.958c0-71.744-52.671-129.904-117.644-129.904h-43.004c-0.368,14.25-0.375,28.526-0.189,42.78
		c0.341,26.123,3.087,49.231,10.249,74.125C267.097,204.607,268.049,207.34,269.12,209.942z"/>
</g>
<g>
	<path style="fill:#A04C27;" d="M416.857,231.136v17.561c-6.901,2.294-14.061,3.799-21.141,5.096
		c-41.364,7.549-105.913,6.422-126.596-43.847c-1.067-2.603-2.024-5.335-2.852-8.207c-7.16-24.9-9.902-48.006-10.251-74.122
		c-0.179-14.26-0.179-28.53,0.189-42.78h17.162c-0.03,6.941,0.02,13.881,0.11,20.812c0.339,26.127,3.081,49.232,10.251,74.132
		c0.818,2.862,1.775,5.604,2.842,8.197c20.682,50.279,85.231,51.406,126.596,43.857C414.394,231.605,415.63,231.375,416.857,231.136
		z"/>
	<path style="fill:#A04C27;" d="M95.135,231.136v17.561c6.901,2.294,14.061,3.799,21.141,5.096
		c41.364,7.549,105.914,6.422,126.596-43.847c1.067-2.603,2.024-5.335,2.852-8.207c7.16-24.9,9.902-48.006,10.251-74.122
		c0.18-14.26,0.18-28.53-0.189-42.78h-17.162c0.03,6.941-0.02,13.881-0.11,20.812c-0.339,26.127-3.081,49.232-10.251,74.132
		c-0.818,2.862-1.775,5.604-2.842,8.197c-20.682,50.279-85.231,51.406-126.596,43.857C97.599,231.605,96.362,231.375,95.135,231.136
		z"/>
</g>
<path style="fill:#D5F0F7;" d="M365.626,504.521v-36.187c0-20.736-11.299-40.581-29.975-52.71
	c-9.437-6.129-20.49-10.144-32.013-11.604c-14.942-1.894-15.142-1.486-15.142-15.575c0-0.038,0-9.297,0-9.297h-64.999
	c0,0,0,9.259,0,9.297c0,14.09-0.199,13.681-15.142,15.575c-11.523,1.461-22.577,5.475-32.013,11.604
	c-18.675,12.129-29.975,31.974-29.975,52.71v36.187H365.626z"/>
<path style="fill:#A6DFE8;" d="M365.63,468.332v36.189h-24.142v-41.813c0-21.909-10.909-42.95-29.278-57.11
	c8.396,2.034,16.374,5.435,23.444,10.022C354.332,427.756,365.63,447.6,365.63,468.332z"/>
<path style="fill:#E0B8A2;" d="M273.356,333.819h-34.719v-13.283c0-6.701,5.432-12.134,12.134-12.134h10.452
	c6.701,0,12.134,5.432,12.134,12.134v13.283H273.356z"/>
<path style="fill:#B76035;" d="M382.767,366.602l-0.974-64.374l-40.177,20.17c-4.189,2.103-8.9,2.939-13.557,2.407l-25.867-2.958
	c-3.262-0.373-6.566-0.076-9.709,0.873l-29.516,8.913c-4.545,1.373-9.395,1.373-13.94,0l-29.516-8.913
	c-3.143-0.949-6.447-1.246-9.709-0.873l-25.867,2.958c-4.657,0.533-9.368-0.304-13.557-2.407l-40.177-20.17l-0.974,64.374
	l0.547,0.585c-0.345,1.296-0.547,2.651-0.547,4.056c0,6.648,4.122,12.326,9.948,14.635c2.053,0.814,3.2,2.973,2.899,5.161
	c-0.171,1.24-0.242,2.511-0.203,3.807c0.366,12.368,10.821,22.384,23.194,22.233c3.214-0.039,6.268-0.742,9.033-1.976
	c1.899-0.847,4.143-0.343,5.505,1.228c4.202,4.849,10.404,7.916,17.324,7.916c3.683,0,7.161-0.871,10.243-2.416
	c2.39-1.198,5.233-0.076,6.433,2.313c2.588,5.153,7.919,8.689,14.079,8.689c2.302,0,4.486-0.497,6.455-1.388
	c2.526-1.143,5.436-0.053,6.556,2.484c2.572,5.827,8.31,9.928,15.039,10.136v0.02c0.09,0,0.177-0.009,0.266-0.01
	c0.089,0.001,0.177,0.01,0.266,0.01v-0.02c6.729-0.208,12.467-4.309,15.039-10.136c1.12-2.537,4.03-3.627,6.556-2.484
	c1.968,0.891,4.152,1.388,6.454,1.388c6.159,0,11.49-3.536,14.079-8.689c1.2-2.389,4.043-3.511,6.433-2.313
	c3.082,1.545,6.561,2.416,10.243,2.416c6.919,0,13.121-3.067,17.323-7.916c1.362-1.571,3.607-2.076,5.505-1.229
	c2.767,1.235,5.823,1.938,9.04,1.976c12.828,0.154,23.478-10.605,23.192-23.431c-0.02-0.883-0.09-1.753-0.208-2.608
	c-0.301-2.188,0.846-4.348,2.899-5.162c5.826-2.309,9.948-7.987,9.948-14.635c0-1.405-0.202-2.76-0.547-4.056L382.767,366.602z"/>
<path style="fill:#A04C27;" d="M382.224,367.185c0.339,1.296,0.538,2.652,0.538,4.059c0,6.651-4.118,12.325-9.942,14.629
	c-2.054,0.818-3.201,2.982-2.902,5.165c0.12,0.858,0.189,1.725,0.209,2.613c0.289,12.824-10.361,23.584-23.195,23.424
	c-3.211-0.04-6.272-0.738-9.035-1.975c-1.316-0.588-2.802-0.528-4.029,0.1c-0.03-0.997-0.1-1.974-0.239-2.942
	c-0.349-2.553,0.987-5.076,3.381-6.023c6.791-2.692,11.598-9.314,11.598-17.062c0-23.248-0.624-46.527-0.977-69.795l34.164-17.152
	l0.967,64.38L382.224,367.185z"/>
<path style="fill:#A7A8A8;" d="M217.859,504.521l33.718-29.795c1.962-1.734,4.897-1.772,6.904-0.09l35.654,29.882L217.859,504.521z"
	/>
<path style="fill:#FF961D;" d="M312.437,54.137l-52.788-45.43c-1.866-1.606-4.624-1.609-6.494-0.009l-53.093,45.439L128.92,36.785
	c-3.625-0.884-6.902,2.381-6.029,6.01l16.855,70.102h233.01l16.855-70.102c0.872-3.628-2.404-6.894-6.029-6.01L312.437,54.137z"/>
<path style="fill:#EF8318;" d="M389.613,42.793l-16.863,70.104h-27.603L362,42.793c0.06-0.259,0.1-0.509,0.12-0.768l21.46-5.235
	C387.2,35.903,390.48,39.163,389.613,42.793z"/>
<path style="fill:#FF961D;" d="M410.01,171.023l-3.355-37.138c-0.735-8.132-6.528-14.947-14.461-16.878
	c-55.368-13.479-135.454-12.727-136.197-12.72c-0.743-0.007-80.829-0.759-136.197,12.72c-7.933,1.931-13.727,8.746-14.461,16.878
	l-3.355,37.138c0,0,99.038-14.654,154.013-14.657C310.972,156.369,410.01,171.023,410.01,171.023z"/>
<path style="fill:#EF8318;" d="M410.006,171.024c0,0-10.85-1.606-27.363-3.759l-3.66-40.517c-0.479-5.285-2.752-10.102-6.263-13.771
	c6.711,1.177,13.243,2.513,19.476,4.029c7.928,1.935,13.722,8.746,14.46,16.883L410.006,171.024z"/>
<path d="M221.246,270.431c-4.131,0-7.479,3.349-7.479,7.479v18.531c0,4.131,3.349,7.479,7.479,7.479s7.479-3.349,7.479-7.479V277.91
	C228.725,273.78,225.377,270.431,221.246,270.431z"/>
<path d="M290.748,270.431c-4.131,0-7.479,3.349-7.479,7.479v18.531c0,4.131,3.349,7.479,7.479,7.479s7.479-3.349,7.479-7.479V277.91
	C298.227,273.78,294.878,270.431,290.748,270.431z"/>
<path d="M423.849,424.834c-3.737-7.015-4.064-15.969-0.854-23.367l1.429-3.292c5.282-12.173,4.411-26.715-2.274-37.949
	c-4.578-7.692-4.841-17.854-0.673-25.888l5.044-9.721c3.718-7.166,5.263-15.667,4.353-23.937l-6.534-59.341v-26.603
	c0-15.801-2.453-30.981-6.945-45.122l-3.288-36.402c-1.025-11.356-9.12-20.789-20.141-23.472c-3.934-0.958-7.987-1.843-12.117-2.664
	l2.103-8.745c0.966-4.016-1.507-8.055-5.523-9.02c-4.012-0.967-8.054,1.507-9.02,5.523l-2.313,9.619
	c-50.902-8.054-107.488-7.678-111.099-7.645c-3.605-0.033-59.84-0.408-110.61,7.568L131.116,45.02l67.172,16.384
	c2.341,0.57,4.808-0.02,6.635-1.584l51.468-44.048l51.167,44.034c1.829,1.575,4.306,2.169,6.651,1.598l67.172-16.384l-1.32,5.491
	c-0.966,4.016,1.507,8.054,5.524,9.02c4.013,0.969,8.055-1.507,9.02-5.523l2.275-9.464c1.024-4.26-0.217-8.65-3.319-11.742
	c-3.103-3.093-7.497-4.318-11.754-3.282L314.4,45.96L264.526,3.038c-4.699-4.043-11.527-4.052-16.235-0.022L198.11,45.963
	l-67.419-16.444c-4.257-1.039-8.651,0.188-11.754,3.282c-3.103,3.093-4.344,7.483-3.319,11.742l15.011,62.436
	c-4.297,0.848-8.51,1.765-12.597,2.76c-11.021,2.683-19.116,12.115-20.141,23.471l-3.289,36.413
	c-4.491,14.137-6.944,29.314-6.944,45.112v29.72c-0.108-0.046-0.222-0.085-0.328-0.134l-6.205,56.358
	c-0.911,8.27,0.635,16.771,4.353,23.938l5.044,9.72c4.168,8.034,3.904,18.196-0.674,25.888c-6.685,11.234-7.556,25.776-2.274,37.948
	l1.429,3.294c3.21,7.397,2.883,16.35-0.855,23.365l-2.015,3.783c-4.223,7.929-3.983,17.624,0.626,25.301
	c3.924,6.536,10.513,10.438,17.623,10.438h34.645c-0.08,1.322-0.136,2.646-0.136,3.978v36.187c0,4.13,3.349,7.479,7.479,7.479
	h219.258c4.131,0,7.479-3.349,7.479-7.479v-36.187c0-1.331-0.055-2.656-0.136-3.978h34.645c7.111,0,13.699-3.902,17.624-10.438
	c4.609-7.677,4.849-17.372,0.626-25.301L423.849,424.834z M411.138,258.135l0.105,0.951c-0.302-0.245-0.597-0.499-0.906-0.737
	C410.602,258.283,410.872,258.203,411.138,258.135z M411.728,291.418c0,6.75-2.522,13.194-7.102,18.143
	c-3.857,4.168-8.764,6.926-14.17,8.033v-52.342C402.585,267.777,411.728,278.55,411.728,291.418z M409.38,214.736v28.406
	c-5.199,1.424-10.404,2.452-15.011,3.293c-14.153,2.583-41.809,5.997-67.996-0.164c-25.142-5.917-42.077-19.096-50.336-39.174
	c-0.974-2.368-1.841-4.868-2.578-7.429c-3.383-11.758-5.824-23.407-7.454-35.675c47.735,1.314,119.369,11.083,138.231,13.756
	C407.574,189.423,409.38,201.849,409.38,214.736z M112.787,134.557c0.45-4.982,3.979-9.114,8.782-10.283
	c53.975-13.139,133.559-12.515,134.354-12.508c0.049,0.001,0.098,0.001,0.147,0c0.797-0.007,80.38-0.632,134.354,12.508
	c4.803,1.169,8.332,5.302,8.782,10.284l2.505,27.724c-26.155-3.653-100.147-13.392-145.715-13.394
	c-45.567,0.002-119.558,9.741-145.714,13.394L112.787,134.557z M102.614,214.736c0-12.887,1.807-25.312,5.144-36.987
	c18.861-2.672,90.497-12.441,138.231-13.756c-1.629,12.269-4.07,23.917-7.453,35.676c-0.737,2.561-1.604,5.06-2.578,7.428
	c-4.886,11.878-12.873,21.422-23.813,28.415l-1.383,0.907c-3.454,2.265-4.418,6.902-2.153,10.356
	c2.266,3.454,6.902,4.417,10.356,2.153l1.31-0.86c13.508-8.633,23.439-20.503,29.517-35.281c1.182-2.874,2.232-5.897,3.12-8.983
	c1.129-3.923,2.15-7.831,3.087-11.748c0.937,3.917,1.958,7.825,3.087,11.748c0.888,3.087,1.937,6.109,3.12,8.984
	c10.056,24.446,31.06,41.059,60.743,48.044c12.111,2.85,24.42,3.854,35.763,3.854c5.916,0,11.567-0.274,16.789-0.702v33.036
	l-37.237,18.694c-2.898,1.454-6.131,2.029-9.352,1.66l-25.867-2.958c-4.297-0.49-8.577-0.106-12.721,1.145l-9.598,2.899
	c-1.041-9.841-9.387-17.536-19.5-17.536h-10.452c-10.112,0-18.458,7.695-19.5,17.536l-9.599-2.899
	c-4.142-1.25-8.421-1.635-12.72-1.144l-25.868,2.958c-3.22,0.369-6.454-0.205-9.351-1.66l-37.237-18.694V264
	c5.239,0.432,10.832,0.701,16.661,0.701c6.09,0,12.434-0.292,18.881-0.993c4.106-0.447,7.073-4.138,6.626-8.244
	c-0.447-4.106-4.14-7.068-8.244-6.626c-20.53,2.234-40.043-0.073-52.797-2.401c-4.607-0.841-9.811-1.869-15.011-3.293v-28.408
	H102.614z M362.51,392.06c0.079,0.577,0.127,1.168,0.14,1.754c0.093,4.157-1.511,8.118-4.517,11.154
	c-3.005,3.037-7.001,4.686-11.109,4.632c-2.118-0.025-4.164-0.472-6.082-1.328c-4.868-2.172-10.709-0.873-14.205,3.161
	c-2.938,3.39-7.192,5.335-11.671,5.335c-2.425,0-4.744-0.546-6.891-1.622c-6.006-3.011-13.394-0.481-16.468,5.641
	c-1.416,2.817-4.249,4.567-7.396,4.567c-1.177,0-2.311-0.243-3.37-0.723c-3.063-1.385-6.464-1.493-9.578-0.303
	c-3.102,1.186-5.554,3.523-6.904,6.581c-1.473,3.338-4.781,5.567-8.427,5.68c-0.024,0.001-0.047,0.001-0.071,0
	c-3.646-0.112-6.954-2.342-8.427-5.679c-1.35-3.058-3.802-5.396-6.904-6.582c-1.433-0.548-2.926-0.82-4.42-0.82
	c-1.752,0-3.504,0.375-5.156,1.123c-1.06,0.479-2.195,0.723-3.372,0.723c-3.146,0-5.98-1.75-7.396-4.567
	c-3.075-6.121-10.462-8.653-16.467-5.641c-2.148,1.077-4.467,1.622-6.892,1.622c-4.479,0-8.733-1.945-11.672-5.336
	c-3.495-4.033-9.336-5.332-14.205-3.16c-1.915,0.855-3.96,1.302-6.076,1.327c-0.06,0.001-0.119,0.001-0.179,0.001
	c-8.151,0-15.206-6.818-15.448-14.974c-0.025-0.86,0.021-1.725,0.137-2.569c0.779-5.661-2.327-11.061-7.554-13.133
	c-3.173-1.258-5.224-4.274-5.224-7.672c0.005-1.236,0.459-33.15,0.801-56.988l29.514,14.817c5.504,2.763,11.648,3.852,17.762,3.154
	l25.867-2.958c2.263-0.261,4.516-0.056,6.697,0.602l29.516,8.914c5.974,1.804,12.29,1.804,18.264,0l29.516-8.913
	c2.182-0.659,4.437-0.864,6.698-0.603l25.867,2.958c6.121,0.698,12.26-0.391,17.763-3.154l29.514-14.817
	c0.342,23.838,0.797,55.751,0.801,56.978c0,3.409-2.051,6.424-5.224,7.682C364.837,380.996,361.731,386.396,362.51,392.06z
	 M246.116,322.942v-2.406c0-2.567,2.088-4.655,4.654-4.655h10.452c2.567,0,4.654,2.088,4.654,4.655v2.406l-5.072,1.532
	c-3.146,0.949-6.471,0.949-9.617,0L246.116,322.942z M100.855,258.135c0.266,0.068,0.536,0.148,0.801,0.214
	c-0.309,0.237-0.604,0.491-0.906,0.737L100.855,258.135z M121.538,265.252v52.331c-12.13-2.525-21.272-13.297-21.272-26.165
	S109.409,267.777,121.538,265.252z M141.686,449.398h-37.307c-2.514,0-4.086-1.993-4.799-3.18c-1.437-2.394-2.364-6.598-0.248-10.57
	l2.015-3.783c5.917-11.109,6.431-24.698,1.375-36.351l-1.429-3.295c-3.351-7.722-2.799-17.278,1.407-24.345
	c7.162-12.037,7.593-27.905,1.096-40.426l-1.162-2.24c5.656,4.086,12.369,6.796,19.649,7.618
	c-0.259,18.163-0.534,37.621-0.534,38.416c0,8.861,4.925,16.775,12.714,20.709c-0.075,1.035-0.098,2.078-0.067,3.115
	c0.395,13.351,9.547,24.572,21.78,28.23C149.457,431.008,144.527,439.9,141.686,449.398z M237.619,497.041l17.5-15.464
	l18.449,15.462L237.619,497.041z M358.147,497.042h-61.289l-33.573-28.138c-4.881-4.091-11.889-4-16.661,0.218l0,0l-31.596,27.92
	h-61.181v-28.708c0-16.987,8.588-33.182,23.161-44.058c5.495,4.771,12.548,7.45,19.919,7.45c3.883,0,7.633-0.714,11.184-2.127
	c4.246,6.663,11.545,10.712,19.571,10.712c2.499,0,4.936-0.391,7.274-1.167c4.072,7.153,11.595,11.88,19.877,12.365
	c0.38,0.046,0.771,0.061,1.164,0.05c0.089,0.002,0.177,0.004,0.267,0.004c0.302,0,0.601-0.018,0.893-0.053
	c8.283-0.484,15.809-5.212,19.881-12.366c2.337,0.775,4.774,1.167,7.274,1.167c8.026,0,15.324-4.049,19.571-10.712
	c3.551,1.412,7.301,2.127,11.184,2.127c7.371,0,14.425-2.679,19.919-7.45c14.574,10.876,23.161,27.071,23.161,44.058V497.042z
	 M412.413,446.218c-0.713,1.187-2.285,3.18-4.799,3.18h-37.306c-2.842-9.504-7.775-18.401-14.499-26.115
	c4.842-1.458,9.328-4.125,12.956-7.791c5.799-5.859,9.021-13.881,8.84-22.013c-0.012-0.509-0.036-1.019-0.073-1.528
	c7.789-3.934,12.714-11.848,12.714-20.708c0-0.795-0.275-20.256-0.534-38.42c7.092-0.813,13.864-3.448,19.639-7.595l-1.152,2.221
	c-6.496,12.522-6.066,28.39,1.097,40.426c4.205,7.067,4.757,16.624,1.406,24.347l-1.429,3.293
	c-5.057,11.653-4.542,25.243,1.375,36.352l2.015,3.782C414.777,439.621,413.85,443.825,412.413,446.218z"/>
<path d="M187.019,453.981c3.004-2.834,3.142-7.568,0.307-10.572s-7.567-3.143-10.572-0.307l-5.736,5.412
	c-3.004,2.834-3.142,7.568-0.307,10.573c1.471,1.56,3.454,2.346,5.441,2.346c1.841,0,3.686-0.676,5.131-2.039L187.019,453.981z"/>
<path d="M215.415,445.813l-5.736,5.412c-3.004,2.834-3.142,7.568-0.307,10.572c1.471,1.56,3.454,2.347,5.441,2.347
	c1.841,0,3.686-0.676,5.131-2.039l5.736-5.412c3.004-2.834,3.142-7.568,0.307-10.573
	C223.152,443.116,218.42,442.977,215.415,445.813z"/>
<path d="M188.635,470.233l-5.736,5.412c-3.004,2.834-3.142,7.568-0.307,10.572c1.471,1.56,3.454,2.347,5.441,2.347
	c1.841,0,3.686-0.676,5.131-2.039l5.736-5.412c3.004-2.834,3.142-7.568,0.307-10.573
	C196.373,467.536,191.64,467.397,188.635,470.233z"/>
<path d="M335.24,443.101c-3.004-2.834-7.738-2.696-10.572,0.307c-2.835,3.005-2.697,7.738,0.307,10.572l5.736,5.412
	c1.445,1.363,3.29,2.039,5.131,2.039c1.987,0,3.97-0.787,5.441-2.346c2.835-3.005,2.697-7.738-0.307-10.573L335.24,443.101z"/>
<path d="M296.579,445.813c-3.005-2.835-7.738-2.696-10.572,0.307c-2.835,3.005-2.697,7.738,0.307,10.573l5.736,5.412
	c1.445,1.363,3.29,2.039,5.131,2.039c1.987,0,3.97-0.787,5.441-2.347c2.835-3.005,2.697-7.738-0.307-10.572L296.579,445.813z"/>
<path d="M323.359,470.233c-3.004-2.835-7.738-2.696-10.572,0.307c-2.835,3.005-2.697,7.738,0.307,10.573l5.736,5.412
	c1.445,1.363,3.29,2.039,5.131,2.039c1.987,0,3.97-0.787,5.441-2.347c2.835-3.005,2.697-7.738-0.307-10.572L323.359,470.233z"/>
<g>
</g>
<g>
</g>
<g>
</g>
<g>
</g>
<g>
</g>
<g>
</g>
<g>
</g>
<g>
</g>
<g>
</g>
<g>
</g>
<g>
</g>
<g>
</g>
<g>
</g>
<g>
</g>
<g>
</g>
</svg>
