<?xml version="1.0" encoding="iso-8859-1"?>
<!-- Generator: Adobe Illustrator 19.0.0, SVG Export Plug-In . SVG Version: 6.00 Build 0)  -->
<svg version="1.1" id="Capa_1" xmlns="http://www.w3.org/2000/svg" xmlns:xlink="http://www.w3.org/1999/xlink" x="0px" y="0px"
	 viewBox="0 0 512 512" style="enable-background:new 0 0 512 512;" xml:space="preserve">
<circle style="fill:#69CDFF;" cx="256" cy="267" r="245"/>
<path style="fill:#FFAF10;" d="M115.454,134.675H35.792v55.231c0.065,0.006,0.13,0.012,0.208,0.012h79.454c1.65,0,3-1.351,3-3
	v-49.243C118.454,136.024,117.104,134.675,115.454,134.675z"/>
<g>
	<rect x="35.792" y="134.68" style="fill:#B7092B;" width="41.23" height="27.621"/>
	<path style="fill:#B7092B;" d="M77.021,189.918h38.433c1.65,0,3-1.351,3-3v-24.622H77.021V189.918z"/>
</g>
<path style="fill:#232323;" d="M39.583,124H25.908c-1.65,0-3,1.35-3,3v2.334c0,1.65,1.35,3,3,3h2.208V303h9.259V132.334h2.207
	c1.65,0,3-1.35,3-3L42.583,127C42.583,125.35,41.233,124,39.583,124z"/>
<path style="fill:#FFAF10;" d="M139.314,213.442H59.792v55.243h79.522c1.65,0,3-1.35,3-3v-49.243
	C142.314,214.792,140.965,213.442,139.314,213.442z"/>
<g>
	<rect x="59.792" y="213.44" style="fill:#B7092B;" width="41.09" height="27.621"/>
	<path style="fill:#B7092B;" d="M100.882,268.685h38.433c1.65,0,3-1.35,3-3v-24.622h-41.433V268.685z"/>
</g>
<path style="fill:#232323;" d="M63.443,202.768H49.769c-1.65,0-3,1.35-3,3v2.334c0,1.65,1.35,3,3,3h2.208V303h9.259v-91.898h2.207
	c1.65,0,3-1.35,3-3l0.001-2.334C66.443,204.117,65.094,202.768,63.443,202.768z"/>
<path style="fill:#FFAF10;" d="M481.546,213.442h-79.754v55.243h79.754c1.65,0,3-1.35,3-3v-49.243
	C484.546,214.792,483.196,213.442,481.546,213.442z"/>
<g>
	<rect x="401.79" y="213.44" style="fill:#B7092B;" width="41.32" height="27.621"/>
	<path style="fill:#B7092B;" d="M443.113,268.685h38.433c1.65,0,3-1.35,3-3v-24.622h-41.433L443.113,268.685L443.113,268.685z"/>
</g>
<path style="fill:#232323;" d="M405.675,202.768H392c-1.65,0-3,1.35-3,3v2.334c0,1.65,1.35,3,3,3h2.208V303h9.259v-91.898h2.207
	c1.65,0,3-1.35,3-3l0.001-2.334C408.675,204.117,407.324,202.768,405.675,202.768z"/>
<path style="fill:#02AF8E;" d="M323.254,302l10.711,14.026c1.67,2.186,1.942,5.94,0.607,8.345l-32.645,58.758
	c-1.335,2.404-4.018,2.78-5.963,0.836l-15.799-15.799L266,382.901V453c0,1.65-1.35,3-3,3h-14c-1.65,0-3-1.35-3-3v-70.099
	l-14.656-15.245l-16.309,16.309c-1.944,1.944-4.628,1.568-5.963-0.836l-32.645-58.758c-1.335-2.404-1.138-6.215,0.439-8.467
	L186.6,302H13.5C30.484,420.728,132.574,512,256,512c123.424,0,225.515-91.272,242.5-210H323.254z"/>
<path style="fill:#994334;" d="M275.887,0h-39.773c-42.99,0-77.84,34.851-77.84,77.84v46.002c0-42.989,34.85-60.84,77.84-60.84
	h39.773c42.99,0,77.84,17.851,77.84,60.84V77.84C353.727,34.851,318.877,0,275.887,0z"/>
<path style="fill:#823329;" d="M183.047,76c0.98-42.137,35.42-76,77.793-76h-24.727c-42.99,0-77.84,34.851-77.84,77.84v46.002
	C158.273,101.366,167.811,85.773,183.047,76z"/>
<path style="fill:#FFD00D;" d="M437.434,373.445c-1.375-5.326-6.642-11.444-11.703-13.598l-91.322-38.854
	c-0.005,0.2-0.023,0.396-0.045,0.592c-0.01,0.102-0.02,0.202-0.034,0.304c-0.023,0.16-0.052,0.316-0.085,0.473
	c-0.033,0.153-0.074,0.301-0.117,0.448c-0.033,0.112-0.063,0.226-0.102,0.333c-0.093,0.26-0.198,0.512-0.327,0.743l-32.645,58.758
	c-0.553,0.995-1.402,1.565-2.332,1.565c-0.719,0-1.428-0.329-2.05-0.951l-15.799-15.799c-0.188-0.188-0.442-0.293-0.707-0.293
	c-0.003,0-0.007,0-0.01,0c-0.269,0.003-0.525,0.113-0.711,0.307l-14.166,14.735c-0.18,0.186-0.279,0.435-0.279,0.693V453
	c0,1.103-0.897,2-2,2h-14c-1.102,0-2-0.897-2-2v-70.099c0-0.259-0.1-0.507-0.279-0.692l-14.656-15.246
	c-0.186-0.193-0.442-0.304-0.711-0.307c-0.003,0-0.007,0-0.01,0c-0.265,0-0.52,0.105-0.707,0.293l-16.309,16.309
	c-0.622,0.622-1.331,0.951-2.05,0.951c-0.93,0-1.779-0.57-2.332-1.565l-32.645-58.758c-0.123-0.222-0.224-0.462-0.316-0.711
	c-0.037-0.102-0.071-0.204-0.104-0.31c-0.04-0.133-0.075-0.268-0.107-0.404c-0.081-0.328-0.141-0.665-0.177-1.013
	c-0.001-0.01-0.003-0.021-0.004-0.03l-90.324,38.43c-5.062,2.153-10.328,8.271-11.703,13.598L63.056,418
	c44.849,57.226,114.601,94,192.944,94s148.096-36.775,192.944-94L437.434,373.445z"/>
<g>
	<path style="fill:#FFAF10;" d="M177.302,323.886c-0.392-0.705-0.617-1.567-0.708-2.468l-90.324,38.43
		c-5.062,2.153-10.328,8.271-11.703,13.598L63.056,418c5.955,7.598,12.361,14.823,19.156,21.662l13.299-56.15
		c1.375-5.326,6.642-11.444,11.703-13.598l77.371-32.919L177.302,323.886z"/>
	<path style="fill:#FFAF10;" d="M238.5,373.657v137.702c1.662,0.117,3.328,0.222,5,0.306V378.857L238.5,373.657z"/>
	<path style="fill:#FFAF10;" d="M268.5,378.857v132.808c1.672-0.085,3.338-0.188,5-0.306V373.657L268.5,378.857z"/>
	<path style="fill:#FFAF10;" d="M88.5,445.763c1.646,1.542,3.313,3.063,5,4.56v-93.551l-5,2.127V445.763z"/>
	<path style="fill:#FFAF10;" d="M118.5,469.787c1.654,1.123,3.317,2.234,5,3.318V344.008l-5,2.127V469.787z"/>
	<path style="fill:#FFAF10;" d="M148.5,487.195c1.658,0.811,3.32,1.616,5,2.391V331.244l-5,2.127V487.195z"/>
	<path style="fill:#FFAF10;" d="M178.5,326.043v173.439c1.656,0.552,3.328,1.072,5,1.59v-166.03L178.5,326.043z"/>
	<path style="fill:#FFAF10;" d="M212.278,384.209c-0.93,0-1.779-0.57-2.332-1.565l-1.446-2.604v127.334
		c1.662,0.327,3.325,0.652,5,0.945V383.872C213.105,384.086,212.694,384.209,212.278,384.209z"/>
	<path style="fill:#FFAF10;" d="M301.054,382.644c-0.553,0.995-1.402,1.565-2.332,1.565c-0.074,0-0.148-0.019-0.222-0.025v124.135
		c1.674-0.293,3.338-0.617,5-0.944V378.24L301.054,382.644z"/>
	<polygon style="fill:#FFAF10;" points="333.5,446 333.5,324.242 328.5,333.242 328.5,446 	"/>
	<polygon style="fill:#FFAF10;" points="363.5,446 363.5,333.371 358.5,331.244 358.5,446 	"/>
	<polygon style="fill:#FFAF10;" points="393.5,446 393.5,346.135 388.5,344.008 388.5,446 	"/>
	<path style="fill:#FFAF10;" d="M418.5,450.322c1.688-1.498,3.354-3.018,5-4.561v-86.863l-5-2.127V450.322z"/>
</g>
<g>
	<path style="fill:#232323;" d="M395,445h-68c-2.75,0-5,2.25-5,5v52.996c28.422-7.933,54.753-20.863,78-37.782V450
		C400,447.25,397.75,445,395,445z"/>
	<path style="fill:#232323;" d="M333.965,316.026l-23.229-30.42c-10.468,5.352-22.307,8.392-34.849,8.392h-39.773
		c-13.479,0-26.152-3.5-37.178-9.622l-22.068,31.528c-1.577,2.252-1.774,6.063-0.439,8.467l32.645,58.758
		c1.335,2.404,4.019,2.78,5.963,0.836l16.309-16.309L246,382.901V453c0,1.65,1.35,3,3,3h14c1.65,0,3-1.35,3-3v-70.099l14.166-14.735
		l15.799,15.799c1.944,1.944,4.628,1.568,5.963-0.836l32.645-58.758C335.907,321.967,335.635,318.212,333.965,316.026z"/>
</g>
<path style="fill:#F2B675;" d="M275.887,293.998h-39.773c-8.32,0-16.328-1.347-23.838-3.804v23.771c0,2.75,1.56,6.622,3.465,8.604
	l36.795,38.271c1.905,1.982,5.024,1.982,6.93,0l36.795-38.271c1.905-1.982,3.465-5.854,3.465-8.604v-23.771
	C292.215,292.651,284.207,293.998,275.887,293.998z"/>
<g>
	<path style="fill:#DAA56B;" d="M233,313.965v-20.046c-7.207-0.289-14.157-1.575-20.725-3.725v23.771c0,2.75,1.56,6.622,3.465,8.604
		l36.795,38.271c1.905,1.982,5.024,1.982,6.93,0l6.897-7.175l-29.898-31.097C234.56,320.587,233,316.715,233,313.965z"/>
	<path style="fill:#DAA56B;" d="M159.273,140H152c-11,0-20,9-20,20v30c0,11,9,20,20,20h7.273V140z"/>
	<path style="fill:#DAA56B;" d="M360,140h-7.273v70H360c11,0,20-9,20-20v-30C380,149,371,140,360,140z"/>
</g>
<path style="fill:#FFC987;" d="M353.727,217.158c0,42.99-34.85,77.84-77.84,77.84h-39.773c-42.99,0-77.84-34.85-77.84-77.84V122.84
	c0-42.989,34.85-60.84,77.84-60.84h39.773c42.99,0,77.84,17.851,77.84,60.84V217.158z"/>
<path style="fill:#F2B675;" d="M179,217.158V122.84C179,79.851,213.85,62,256.84,62h-20.727c-42.99,0-77.84,17.851-77.84,60.84
	v94.318c0,42.99,34.85,77.84,77.84,77.84h20.727C213.85,294.998,179,260.148,179,217.158z"/>
<g>
	<circle style="fill:#1A2B63;" cx="201" cy="169" r="16"/>
	<circle style="fill:#1A2B63;" cx="311" cy="169" r="16"/>
</g>
<g>
	<path style="fill:#BF7E52;" d="M275,216.094h-21c-9.649,0-17.5-7.851-17.5-17.5v-59.188c0-1.355-1.145-2.5-2.5-2.5h-54
		c-4.143,0-7.5-3.357-7.5-7.5c0-4.143,3.357-7.5,7.5-7.5h54c9.649,0,17.5,7.851,17.5,17.5v59.188c0,1.355,1.145,2.5,2.5,2.5h21
		c4.143,0,7.5,3.357,7.5,7.5C282.5,212.736,279.143,216.094,275,216.094z"/>
	<path style="fill:#BF7E52;" d="M256,262.35c-13.767,0-27.533-3.631-39.811-10.892c-3.566-2.109-4.746-6.708-2.639-10.273
		c2.109-3.564,6.709-4.744,10.273-2.639c19.848,11.738,44.504,11.738,64.352,0c3.567-2.106,8.165-0.927,10.273,2.639
		c2.107,3.565,0.928,8.164-2.639,10.273C283.533,258.719,269.767,262.35,256,262.35z"/>
	<path style="fill:#BF7E52;" d="M331,136.906h-45c-4.143,0-7.5-3.357-7.5-7.5c0-4.143,3.357-7.5,7.5-7.5h45
		c4.143,0,7.5,3.357,7.5,7.5C338.5,133.549,335.143,136.906,331,136.906z"/>
</g>
<g>
	<path style="fill:#37C47A;" d="M453.029,353.94L442.783,354c-2.762,0.016-5.014-2.209-5.029-4.971
		c-0.018-2.762,2.209-5.013,4.971-5.029l10.246-0.06c2.76-0.017,5.012,2.209,5.029,4.971
		C458.016,351.672,455.791,353.923,453.029,353.94z"/>
	<path style="fill:#37C47A;" d="M98.029,330.94L87.783,331c-2.762,0.016-5.014-2.209-5.029-4.971
		c-0.018-2.762,2.209-5.013,4.971-5.029l10.246-0.06c2.76-0.017,5.012,2.209,5.029,4.971
		C103.016,328.672,100.791,330.923,98.029,330.94z"/>
	<path style="fill:#37C47A;" d="M410.029,326.94L399.783,327c-2.762,0.016-5.014-2.209-5.029-4.971
		c-0.018-2.762,2.209-5.013,4.971-5.029l10.246-0.06c2.76-0.017,5.012,2.209,5.029,4.971
		C415.016,324.672,412.791,326.923,410.029,326.94z"/>
	<path style="fill:#37C47A;" d="M63.029,358l-10.246,0.06c-2.762,0.016-5.014-2.209-5.029-4.971
		c-0.018-2.762,2.209-5.013,4.971-5.029L62.971,348c2.76-0.017,5.012,2.209,5.029,4.971C68.016,355.732,65.791,357.983,63.029,358z"
		/>
</g>
<g>
</g>
<g>
</g>
<g>
</g>
<g>
</g>
<g>
</g>
<g>
</g>
<g>
</g>
<g>
</g>
<g>
</g>
<g>
</g>
<g>
</g>
<g>
</g>
<g>
</g>
<g>
</g>
<g>
</g>
</svg>
