<?xml version="1.0" encoding="iso-8859-1"?>
<!-- Generator: Adobe Illustrator 19.0.0, SVG Export Plug-In . SVG Version: 6.00 Build 0)  -->
<svg version="1.1" id="Capa_1" xmlns="http://www.w3.org/2000/svg" xmlns:xlink="http://www.w3.org/1999/xlink" x="0px" y="0px"
	 viewBox="0 0 512 512" style="enable-background:new 0 0 512 512;" xml:space="preserve">
<circle style="fill:#02AF8E;" cx="256" cy="267" r="245"/>
<path style="fill:#6E7489;" d="M151.933,177c13.904,0,26.494,2.885,35.613,9.24l-3.181-4.257c-0.643-0.859-0.743-1.987-0.263-2.945
	c0.482-0.96,1.445-1.556,2.518-1.556h7.158c0.389,0,0.741-0.225,0.906-0.576c0.164-0.352,0.11-0.768-0.139-1.065l-8.014-9.59
	c-0.698-0.835-0.852-2.011-0.391-2.996c0.461-0.987,1.462-1.624,2.551-1.624h11.067C193.096,144.411,174.209,137,151.933,137
	h-25.756c-27.839,0-50.406,11.559-50.406,39.398v40c0-27.839,22.567-39.398,50.406-39.398H151.933z"/>
<path style="fill:#FE3745;" d="M128.516,438.224c0.967-3.746,4.793-8.191,8.354-9.707l34.896-14.848
	c0.369-0.157,0.608-0.518,0.608-0.92v-1.368c0-1.131,0.673-2.147,1.713-2.591l58.937-25.075c0.369-0.156,0.608-0.518,0.608-0.92
	v-7.533c0-0.435-0.28-0.819-0.694-0.952c-14.299-4.597-25.826-14.264-32.877-26.646l-23.183-9.863l0.071,1.116
	c1.263,0.538,2.37,2.213,2.37,3.586v1.471c0,1.51-0.918,3.79-1.965,4.88l-36.778,38.255c-0.406,0.423-0.947,0.656-1.522,0.656
	c-0.576,0-1.117-0.233-1.523-0.656l-36.778-38.256c-1.046-1.089-1.964-3.369-1.964-4.879v-1.471c0-1.373,1.107-3.048,2.37-3.586
	l0.225-1.182l-69.054,29.38c18.928,42.223,49.467,78.097,87.545,103.592L128.516,438.224z"/>
<path style="fill:#FFFFFF;" d="M177.343,337.997l-10.973-4.668v5.429c0,1.51-0.918,3.79-1.965,4.88l-23.827,24.783
	c-0.406,0.424-0.947,0.656-1.522,0.656s-1.116-0.232-1.523-0.656l-23.827-24.784c-1.046-1.089-1.964-3.369-1.964-4.879v-5.429
	l-10.973,4.668c-1.638,0.697-2.979,2.725-2.979,4.506v1.471c0,1.781,1.01,4.288,2.243,5.572l36.778,38.256
	c1.234,1.283,3.254,1.283,4.487,0l36.779-38.256c1.233-1.284,2.243-3.791,2.243-5.572v-1.471
	C180.321,340.721,178.98,338.694,177.343,337.997z"/>
<path style="fill:#A05F33;" d="M151.933,325.475h-25.756c-5.391,0-10.576-0.88-15.436-2.483v15.766c0,1.781,1.01,4.288,2.243,5.572
	l23.827,24.784c1.234,1.284,3.254,1.284,4.487,0l23.828-24.784c1.233-1.284,2.243-3.791,2.243-5.572v-15.766
	C162.51,324.595,157.324,325.475,151.933,325.475z"/>
<path style="fill:#87502A;" d="M123.514,338.758v-13.356c-4.438-0.237-8.719-1.071-12.772-2.409v15.766
	c0,1.781,1.01,4.288,2.243,5.572l23.827,24.784c1.234,1.284,3.254,1.284,4.487,0l4.143-4.309l-19.684-20.476
	C124.523,343.046,123.514,340.539,123.514,338.758z"/>
<path style="fill:#BF7E52;" d="M76.419,226.104h-4.711c-7.122,0-12.951,5.828-12.951,12.952v19.427
	c0,7.123,5.829,12.951,12.951,12.951h4.711V226.104z"/>
<path style="fill:#A05F33;" d="M65.881,258.483v-19.427c0-6.3,4.559-11.577,10.538-12.717v-0.235h-4.711
	c-7.122,0-12.951,5.828-12.951,12.952v19.427c0,7.123,5.829,12.951,12.951,12.951h4.711v-0.235
	C70.439,270.059,65.881,264.781,65.881,258.483z"/>
<path style="fill:#BF7E52;" d="M151.933,326.475c13.639,0,26.004-5.426,35.079-14.226h-0.375c-7.864,0-14.262-6.397-14.262-14.262
	v-22.893c0-7.864,6.397-14.263,14.262-14.263h4.788c0.553,0,1-0.447,1-1V193.1c0-0.216-0.069-0.426-0.199-0.599l-6.715-8.986
	c-8.916-5.434-20.678-7.921-33.578-7.921h-25.756c-27.839,0-50.406,11.559-50.406,39.398v61.077
	c0,27.84,22.567,50.406,50.406,50.406H151.933z"/>
<path style="fill:#A05F33;" d="M85.661,276.069v-61.077c0-27.839,22.568-39.398,50.407-39.398h-9.891
	c-27.839,0-50.406,11.559-50.406,39.398v61.077c0,27.84,22.567,50.406,50.406,50.406h9.891
	C108.229,326.475,85.661,303.909,85.661,276.069z"/>
<g>
	<circle style="fill:#1A2B63;" cx="103.44" cy="244.88" r="10.361"/>
	<circle style="fill:#1A2B63;" cx="174.67" cy="244.88" r="10.361"/>
</g>
<g>
	<path style="fill:#994334;" d="M151.359,270.612H137.76c-6.249,0-11.333-5.084-11.333-11.332v-33.973
		c0-0.878-0.741-1.619-1.618-1.619H89.841c-2.683,0-4.857-2.174-4.857-4.857s2.175-4.856,4.857-4.856h34.969
		c6.248,0,11.332,5.083,11.332,11.332v33.973c0,0.877,0.741,1.618,1.619,1.618h13.599c2.683,0,4.856,2.175,4.856,4.857
		C156.216,268.438,154.042,270.612,151.359,270.612z"/>
	<path style="fill:#994334;" d="M158.482,224.089h29.141c2.5,0,4.534-1.895,4.803-4.324v-1.066
		c-0.269-2.427-2.303-4.323-4.803-4.323h-29.141c-2.682,0-4.856,2.175-4.856,4.856C153.626,221.915,155.801,224.089,158.482,224.089
		z"/>
</g>
<path style="fill:#FF9F60;" d="M140.35,312.878c-14.282,0-25.903-11.619-25.903-25.902v-6.344c0-1.46,1.185-2.643,2.644-2.643h46.52
	c1.46,0,2.643,1.183,2.643,2.643v6.344C166.253,301.259,154.635,312.878,140.35,312.878z"/>
<path style="fill:#FFFFFF;" d="M163.61,277.989h-46.52c-1.459,0-2.644,1.183-2.644,2.643v6.344c0,0.219,0.012,0.432,0.018,0.647
	h51.771c0.006-0.216,0.017-0.429,0.017-0.647v-6.344C166.253,279.172,165.07,277.989,163.61,277.989z"/>
<rect x="81.42" y="271.43" style="fill:#FE3745;" width="26.551" height="6.476"/>
<path style="fill:#FFFFFF;" d="M81.422,282.443c0,1.068,0.875,1.942,1.943,1.942h22.664c1.069,0,1.943-0.874,1.943-1.942v-4.533
	h-26.55V282.443z"/>
<path style="fill:#1A2B63;" d="M106.029,264.959H83.365c-1.068,0-1.943,0.874-1.943,1.942v4.533h26.551v-4.533
	C107.973,265.833,107.098,264.959,106.029,264.959z"/>
<path style="fill:#994334;" d="M401.654,138h-25.756c-27.839,0-50.406,11.559-50.406,39.398v0.415
	c3.771,3.834,6.922,8.279,9.277,13.179c9.132-9.678,24.144-13.991,41.129-13.991h25.756c27.839,0,50.406,11.559,50.406,39.398v-39
	C452.06,149.558,429.493,138,401.654,138z"/>
<path style="fill:#FE3745;" d="M426.014,337.551l0.657,1.366c1.263,0.538,2.37,2.213,2.37,3.586v1.471c0,1.51-0.918,3.79-1.965,4.88
	l-36.778,38.255c-0.406,0.423-0.947,0.656-1.522,0.656c-0.576,0-1.117-0.233-1.523-0.656l-36.778-38.256
	c-1.046-1.089-1.964-3.369-1.964-4.879v-1.471c0-1.373,1.108-3.048,2.37-3.586l0.81-1.431l-18.508,7.874
	c-6.893,13.485-18.948,24.071-34.123,28.95c-0.414,0.133-0.694,0.518-0.694,0.952v7.533c0,0.401,0.239,0.764,0.608,0.92
	l58.936,25.075c1.04,0.443,1.713,1.46,1.713,2.591v1.368c0,0.401,0.239,0.763,0.608,0.92l34.896,14.848
	c3.562,1.516,7.388,5.961,8.354,9.707l5.334,20.277c31.923-25.51,57.326-58.833,73.315-97.076L426.014,337.551z"/>
<path style="fill:#FFFFFF;" d="M427.063,337.997l-10.973-4.668v5.429c0,1.51-0.918,3.79-1.965,4.88l-23.827,24.783
	c-0.406,0.424-0.947,0.656-1.522,0.656s-1.116-0.232-1.523-0.656l-23.827-24.784c-1.046-1.089-1.964-3.369-1.964-4.879v-5.429
	l-10.973,4.668c-1.638,0.697-2.979,2.725-2.979,4.506v1.471c0,1.781,1.01,4.288,2.243,5.572l36.778,38.256
	c1.234,1.283,3.254,1.283,4.487,0l36.779-38.256c1.233-1.284,2.243-3.791,2.243-5.572v-1.471
	C430.042,340.721,428.701,338.694,427.063,337.997z"/>
<g>
	<path style="fill:#F98B4E;" d="M401.654,325.475h-25.756c-5.391,0-10.576-0.88-15.436-2.483v15.766c0,1.781,1.01,4.288,2.243,5.572
		l23.827,24.784c1.234,1.284,3.254,1.284,4.487,0l23.828-24.784c1.233-1.284,2.243-3.791,2.243-5.572v-15.766
		C412.23,324.595,407.045,325.475,401.654,325.475z"/>
	<path style="fill:#F98B4E;" d="M456.123,226.104h-4.71v45.33h4.71c7.123,0,12.952-5.828,12.952-12.951v-19.427
		C469.075,231.932,463.246,226.104,456.123,226.104z"/>
</g>
<path style="fill:#FF9F60;" d="M401.654,175.594h-25.756c-17.273,0-32.511,4.455-41.594,14.482c3.362,6.635,5.27,14.126,5.27,22.059
	v47.697c0,0.553,0.447,1,1,1h4.787c7.864,0,14.263,6.398,14.263,14.263v22.893c0,7.864-6.398,14.262-14.263,14.262h-4.542
	c9.075,8.8,21.441,14.226,35.079,14.226h25.756c27.839,0,50.406-22.566,50.406-50.406v-61.077
	C452.06,187.153,429.493,175.594,401.654,175.594z"/>
<g>
	<path style="fill:#F98B4E;" d="M340.819,312.25c9.075,8.8,21.441,14.226,35.079,14.226h9.891c-14.032,0-26.721-5.737-35.859-14.989
		c-1.436,0.487-2.969,0.764-4.568,0.764h-4.543V312.25z"/>
	<path style="fill:#F98B4E;" d="M338.051,200c6.742-17.059,25.561-24.405,47.738-24.405h-9.891
		c-17.273,0-32.511,4.455-41.594,14.482C335.891,193.209,337.162,196.527,338.051,200z"/>
</g>
<g>
	<circle style="fill:#1A2B63;" cx="353.16" cy="244.88" r="10.361"/>
	<circle style="fill:#1A2B63;" cx="424.39" cy="244.88" r="10.361"/>
</g>
<g>
	<path style="fill:#BF7E52;" d="M339.574,223.688h34.956c0.877,0,1.618,0.741,1.618,1.619v33.973
		c0,6.248,5.084,11.332,11.333,11.332h13.599c2.683,0,4.856-2.174,4.856-4.857c0-2.682-2.174-4.857-4.856-4.857h-13.599
		c-0.878,0-1.619-0.741-1.619-1.618v-33.973c0-6.249-5.084-11.332-11.332-11.332h-34.956L339.574,223.688L339.574,223.688z"/>
	<path style="fill:#BF7E52;" d="M437.344,224.089h-29.141c-2.682,0-4.856-2.174-4.856-4.857c0-2.682,2.175-4.856,4.856-4.856h29.141
		c2.683,0,4.856,2.175,4.856,4.856C442.2,221.915,440.026,224.089,437.344,224.089z"/>
</g>
<path style="fill:#F98B4E;" d="M390.071,312.878c-14.282,0-25.903-11.619-25.903-25.902v-6.344c0-1.46,1.184-2.643,2.643-2.643
	h46.52c1.46,0,2.642,1.183,2.642,2.643v6.344C415.973,301.259,404.355,312.878,390.071,312.878z"/>
<path style="fill:#FFFFFF;" d="M413.331,277.989h-46.52c-1.459,0-2.643,1.183-2.643,2.643v6.344c0,0.219,0.012,0.432,0.017,0.647
	h51.771c0.006-0.216,0.017-0.429,0.017-0.647v-6.344C415.973,279.172,414.791,277.989,413.331,277.989z"/>
<path style="fill:#02AF8E;" d="M421.154,282.443c0,1.068,0.875,1.942,1.943,1.942h22.664c1.069,0,1.943-0.874,1.943-1.942v-4.533
	h-26.551v4.533H421.154z"/>
<path style="fill:#FE3745;" d="M445.762,264.959h-22.664c-1.068,0-1.943,0.874-1.943,1.942v4.533h26.551v-4.533
	C447.705,265.833,446.831,264.959,445.762,264.959z"/>
<rect x="421.15" y="271.43" style="fill:#FFFFFF;" width="26.551" height="6.476"/>
<path style="fill:#1A2B63;" d="M106.404,73c-15.832,12.228-30.142,26.329-42.559,42.007l19.375,33.558c0.825,1.43,2.175,1.43,3,0
	l43.484-75.318c0.049-0.084,0.075-0.164,0.113-0.246L106.404,73L106.404,73z"/>
<path style="fill:#FE3745;" d="M130.262,73c0.038,0.082,0.064,0.162,0.113,0.246l43.485,75.318c0.825,1.43,2.175,1.43,3,0
	l43.485-75.318c0.049-0.084,0.075-0.164,0.113-0.246C220.458,73,130.262,73,130.262,73z"/>
<path style="fill:#FFFFFF;" d="M220.9,73c0.038,0.082,0.064,0.162,0.113,0.246l43.486,75.318c0.825,1.43,2.175,1.43,3,0
	l43.486-75.318c0.049-0.084,0.075-0.164,0.113-0.246C311.098,73,220.9,73,220.9,73z"/>
<path style="fill:#1A2B63;" d="M311.541,73c0.038,0.082,0.065,0.162,0.113,0.246l43.486,75.318c0.825,1.43,2.175,1.43,3,0
	l43.484-75.318c0.049-0.084,0.075-0.164,0.113-0.246C401.737,73,311.541,73,311.541,73z"/>
<path style="fill:#FE3745;" d="M405.625,73h-3.451c0.038,0.082,0.072,0.162,0.12,0.246l43.485,75.318c0.825,1.43,2.175,1.43,3,0
	l10.554-18.279C444.606,108.426,426.441,89.079,405.625,73z"/>
<path style="fill:#AEC1ED;" d="M103.819,74.996h304.36c-10.304-8.179-21.285-15.538-32.84-21.996H136.66
	C125.104,59.458,114.124,66.817,103.819,74.996z"/>
<path style="fill:#EF9614;" d="M290.596,162.157h-6.131c10.74,8.187,17.676,21.107,17.676,35.653v6.329
	c22.457,4.969,38.434,18.863,38.434,44.287v-36.291C340.574,184.532,318.199,162.157,290.596,162.157z"/>
<path style="fill:#FFAF10;" d="M191.426,248.427c0-32.806,26.593-46.427,59.398-46.427h30.352c8.068,0,15.757,0.829,22.771,2.56
	v-6.749c0-24.748-20.063-44.811-44.811-44.811h-12.212h-10.686h-30.85c-1.481,0-2.829,0.856-3.456,2.2
	c-0.627,1.341-0.423,2.925,0.527,4.062l1.145,1.369h-14.91c-1.482,0-2.829,0.856-3.456,2.2c-0.628,1.341-0.422,2.925,0.528,4.061
	l8.014,9.59h-7.158c-1.444,0-2.764,0.815-3.411,2.107c-0.648,1.29-0.51,2.835,0.355,3.992l7.86,10.519L191.426,248.427
	L191.426,248.427z"/>
<path style="fill:#B7092B;" d="M404.451,437.974c-1.049-4.065-5.068-8.733-8.931-10.377l-96.154-40.91v4.701
	c0,2.099-1.19,5.054-2.645,6.566l-28.078,29.206c-1.453,1.513-3.834,1.513-5.288,0l-28.078-29.206
	c-1.453-1.513-2.643-4.468-2.643-6.566v-4.701l-96.154,40.91c-3.862,1.644-7.882,6.312-8.931,10.377l-8.347,32.305
	C158.268,496.621,205.338,512,256,512c58.158,0,111.573-20.278,153.59-54.132L404.451,437.974z"/>
<path style="fill:#A00026;" d="M127.549,437.974l-8.347,32.305c4.29,2.893,8.685,5.643,13.162,8.266l6.969-26.977
	c1.086-4.201,5.239-9.026,9.232-10.726l22.811-9.705V412.75l-34.896,14.848C132.617,429.241,128.598,433.909,127.549,437.974z"/>
<g>
	<rect x="231.26" y="474.26" style="fill:#FFFFFF;" width="69.48" height="18.314"/>
	<path style="fill:#FFFFFF;" d="M299.366,386.689v4.699c0,2.099-1.19,5.054-2.645,6.566l-28.078,29.206
		c-1.453,1.513-3.834,1.513-5.288,0l-28.078-29.206c-1.453-1.513-2.643-4.468-2.643-6.566v-4.699l-1.376,0.586v29.715l32.098,33.388
		c1.454,1.513,3.835,1.513,5.288,0L301,416.72v-29.336L299.366,386.689z"/>
</g>
<path style="fill:#FE3745;" d="M171.376,411.382v85.605c19.386,7.136,39.925,11.878,61.258,13.897V382.796l-58.937,25.075
	C172.29,408.47,171.376,409.852,171.376,411.382z"/>
<path style="fill:#EA2A3D;" d="M171.376,496.987c3.204,1.18,6.444,2.282,9.71,3.33v-61.92h-9.71V496.987z"/>
<path style="fill:#F2B675;" d="M281.176,377.111h-30.352c-6.351,0-12.462-1.033-18.19-2.916v18.389c0,2.099,1.19,5.054,2.643,6.566
	l28.078,29.206c1.454,1.513,3.835,1.513,5.288,0l28.078-29.206c1.454-1.513,2.645-4.468,2.645-6.566v-18.389
	C293.638,376.078,287.526,377.111,281.176,377.111z"/>
<path style="fill:#DAA56B;" d="M247.685,392.584v-15.56c-5.229-0.278-10.273-1.259-15.052-2.829v18.389
	c0,2.099,1.19,5.054,2.643,6.566l28.078,29.206c1.454,1.513,3.835,1.513,5.288,0l4.882-5.078l-23.196-24.128
	C248.876,397.637,247.685,394.682,247.685,392.584z"/>
<path style="fill:#FFC987;" d="M192.188,259.833h-5.551c-8.394,0-15.262,6.868-15.262,15.263v22.893
	c0,8.393,6.868,15.262,15.262,15.262h5.551V259.833z"/>
<g>
	<path style="fill:#F2B675;" d="M179.77,297.988v-22.893c0-7.423,5.372-13.643,12.418-14.985v-0.277h-5.551
		c-8.394,0-15.262,6.868-15.262,15.263v22.893c0,8.393,6.868,15.262,15.262,15.262h5.551v-0.277
		C185.142,311.629,179.77,305.41,179.77,297.988z"/>
	<path style="fill:#F2B675;" d="M345.361,259.833h-5.55v53.417h5.55c8.395,0,15.263-6.868,15.263-15.262v-22.893
		C360.624,266.701,353.756,259.833,345.361,259.833z"/>
</g>
<path style="fill:#FFC987;" d="M340.574,318.712c0,32.806-26.594,59.399-59.398,59.399h-30.352
	c-32.806,0-59.398-26.594-59.398-59.399v-71.974c0-32.806,26.593-46.427,59.398-46.427h30.352c32.805,0,59.398,13.621,59.398,46.427
	V318.712z"/>
<path style="fill:#F2B675;" d="M203.08,318.712v-71.974c0-32.806,26.594-46.427,59.399-46.427h-11.655
	c-32.806,0-59.398,13.621-59.398,46.427v71.974c0,32.806,26.593,59.399,59.398,59.399h11.655
	C229.674,378.111,203.08,351.517,203.08,318.712z"/>
<g>
	<circle style="fill:#1A2B63;" cx="224.03" cy="281.96" r="12.21"/>
	<circle style="fill:#1A2B63;" cx="307.97" cy="281.96" r="12.21"/>
</g>
<g>
	<path style="fill:#BF7E52;" d="M280.499,312.281h-16.025c-7.363,0-13.354-5.99-13.354-13.355v-40.032
		c0-1.035-0.873-1.908-1.907-1.908h-41.207c-3.161,0-5.724-2.563-5.724-5.723c0-3.162,2.563-5.724,5.724-5.724h41.207
		c7.362,0,13.354,5.99,13.354,13.355v40.032c0,1.034,0.873,1.907,1.907,1.907h16.025c3.161,0,5.723,2.563,5.723,5.724
		C286.222,309.719,283.66,312.281,280.499,312.281z"/>
	<path style="fill:#BF7E52;" d="M323.232,257.458h-34.34c-3.16,0-5.723-2.563-5.723-5.724c0-3.16,2.563-5.724,5.723-5.724h34.34
		c3.16,0,5.723,2.564,5.723,5.724C328.955,254.895,326.392,257.458,323.232,257.458z"/>
</g>
<path style="fill:#FF9F60;" d="M267.526,362.088c-16.831,0-30.524-13.693-30.524-30.523v-7.476c0-1.721,1.395-3.115,3.115-3.115
	h54.817c1.722,0,3.115,1.395,3.115,3.115v7.476C298.05,348.394,284.357,362.088,267.526,362.088z"/>
<path style="fill:#FFFFFF;" d="M294.934,320.973h-54.817c-1.721,0-3.115,1.395-3.115,3.115v7.476c0,0.257,0.014,0.508,0.02,0.763
	h61.009c0.006-0.255,0.02-0.506,0.02-0.763v-7.476C298.05,322.368,296.656,320.973,294.934,320.973z"/>
<rect x="198.08" y="313.25" style="fill:#FE3745;" width="31.29" height="7.631"/>
<path style="fill:#FFFFFF;" d="M198.084,326.222c0,1.26,1.03,2.289,2.29,2.289h26.708c1.26,0,2.289-1.029,2.289-2.289v-5.342
	h-31.287V326.222z"/>
<path style="fill:#1A2B63;" d="M227.082,305.619h-26.708c-1.26,0-2.29,1.029-2.29,2.289v5.342h31.287v-5.342
	C229.371,306.648,228.342,305.619,227.082,305.619z"/>
<path style="fill:#FE3745;" d="M358.303,407.871l-58.936-25.075v125.378c21.526-3.845,42.072-10.515,61.258-19.59v-77.202
	C360.624,409.852,359.71,408.47,358.303,407.871z"/>
<path style="fill:#FFD00D;" d="M213.343,490.288c-0.54,0-1.094-0.147-1.644-0.436l-8.908-4.683
	c-0.134-0.071-0.434-0.153-0.836-0.153c-0.401,0-0.702,0.082-0.836,0.153l-8.907,4.683c-0.55,0.288-1.102,0.436-1.643,0.436
	c-0.821,0-1.556-0.335-2.067-0.942c-0.567-0.673-0.783-1.607-0.608-2.632l1.701-9.917c0.075-0.436-0.2-1.283-0.517-1.592
	l-7.206-7.024c-0.939-0.915-1.278-2.048-0.934-3.11c0.345-1.062,1.287-1.778,2.584-1.967l9.957-1.446
	c0.438-0.064,1.158-0.588,1.354-0.984l4.453-9.025c0.581-1.174,1.554-1.848,2.67-1.848c1.117,0,2.09,0.674,2.669,1.848l4.454,9.025
	c0.194,0.396,0.917,0.92,1.354,0.984l9.958,1.446c1.297,0.189,2.237,0.905,2.583,1.967c0.345,1.063,0.005,2.195-0.933,3.11
	l-7.206,7.024c-0.316,0.309-0.592,1.156-0.518,1.592l1.701,9.917c0.176,1.024-0.039,1.959-0.607,2.632
	C214.897,489.953,214.163,490.288,213.343,490.288z"/>
<path style="fill:#EA2A3D;" d="M299.366,508.174c3.919-0.7,7.804-1.496,11.656-2.381V387.756l-11.656-4.96V508.174z"/>
<path style="fill:#293D7C;" d="M358.303,407.871l-58.936-25.075v55.602h61.258v-27.016
	C360.624,409.852,359.71,408.47,358.303,407.871z"/>
<polygon style="fill:#1A2B63;" points="299.366,382.796 299.366,438.397 311.022,438.397 311.022,387.756 "/>
<path style="fill:#293D7C;" d="M173.697,407.871l58.937-25.075v55.602h-61.258v-27.016
	C171.376,409.852,172.29,408.47,173.697,407.871z"/>
<path style="fill:#1A2B63;" d="M181.086,417.383c0-1.53,0.914-2.913,2.322-3.512l49.226-20.943v-10.132l-58.937,25.075
	c-1.407,0.6-2.321,1.981-2.321,3.511v27.016h9.71L181.086,417.383L181.086,417.383z"/>
<path style="fill:#FFFFFF;" d="M304.154,326.222c0,1.26,1.03,2.289,2.29,2.289h26.708c1.26,0,2.289-1.029,2.289-2.289v-5.342
	h-31.287L304.154,326.222L304.154,326.222z"/>
<path style="fill:#1A2B63;" d="M333.152,305.619h-26.708c-1.26,0-2.29,1.029-2.29,2.289v5.342h31.287v-5.342
	C335.441,306.648,334.412,305.619,333.152,305.619z"/>
<rect x="304.15" y="313.25" style="fill:#FE3745;" width="31.29" height="7.631"/>
<path style="fill:#FFD00D;" d="M341.705,490.288c-0.54,0-1.094-0.147-1.644-0.436l-8.907-4.683
	c-0.135-0.071-0.434-0.153-0.836-0.153c-0.403,0-0.703,0.082-0.837,0.153l-8.906,4.683c-0.551,0.288-1.105,0.436-1.645,0.436
	c-0.82,0-1.556-0.335-2.066-0.942c-0.568-0.673-0.783-1.607-0.608-2.632l1.7-9.917c0.074-0.436-0.2-1.283-0.517-1.592l-7.207-7.024
	c-0.939-0.915-1.276-2.048-0.932-3.11c0.344-1.062,1.287-1.778,2.584-1.967l9.957-1.446c0.436-0.064,1.158-0.588,1.353-0.984
	l4.453-9.025c0.58-1.174,1.553-1.848,2.67-1.848c1.116,0,2.089,0.674,2.668,1.848l4.454,9.025c0.194,0.396,0.917,0.92,1.353,0.984
	l9.958,1.446c1.297,0.189,2.238,0.905,2.582,1.967c0.346,1.063,0.007,2.195-0.931,3.11l-7.207,7.024
	c-0.316,0.309-0.592,1.156-0.518,1.592l1.701,9.917c0.177,1.024-0.04,1.959-0.608,2.632
	C343.261,489.953,342.525,490.288,341.705,490.288z"/>
<path style="fill:#FFFFFF;" d="M486.814,299.379c1.166,1.166,1.166,3.076,0,4.242l-9.193,9.193c-1.166,1.166-3.076,1.166-4.242,0
	l-9.193-9.193c-1.166-1.166-1.166-3.076,0-4.242l9.193-9.193c1.166-1.166,3.076-1.166,4.242,0L486.814,299.379z"/>
<path style="fill:#1A2B63;" d="M312.314,25.879c1.166,1.166,1.166,3.076,0,4.242l-9.193,9.193c-1.166,1.166-3.076,1.166-4.242,0
	l-9.193-9.193c-1.166-1.166-1.166-3.076,0-4.242l9.193-9.193c1.166-1.166,3.076-1.166,4.242,0L312.314,25.879z"/>
<g>
	<path style="fill:#FE3745;" d="M177.18,8.004c0.927,0.926,0.927,2.445,0,3.371l-7.309,7.309c-0.927,0.927-2.444,0.927-3.371,0
		l-7.309-7.309c-0.927-0.926-0.927-2.445,0-3.371l7.309-7.309c0.927-0.927,2.444-0.927,3.371,0L177.18,8.004z"/>
	<path style="fill:#FE3745;" d="M455.305,68.004c0.927,0.926,0.927,2.445,0,3.371l-7.309,7.309c-0.927,0.927-2.444,0.927-3.371,0
		l-7.309-7.309c-0.927-0.926-0.927-2.445,0-3.371l7.309-7.309c0.927-0.927,2.444-0.927,3.371,0L455.305,68.004z"/>
</g>
<path style="fill:#FFFFFF;" d="M60.683,194.004c0.927,0.926,0.927,2.445,0,3.371l-7.309,7.309c-0.927,0.927-2.444,0.927-3.371,0
	l-7.309-7.309c-0.927-0.926-0.927-2.445,0-3.371l7.309-7.309c0.927-0.927,2.444-0.927,3.371,0L60.683,194.004z"/>
<g>
	<path style="fill:#FFD00D;" d="M60.305,305.314c0.927,0.926,0.927,2.445,0,3.371l-7.309,7.309c-0.927,0.927-2.444,0.927-3.371,0
		l-7.309-7.309c-0.927-0.926-0.927-2.445,0-3.371l7.309-7.309c0.927-0.927,2.444-0.927,3.371,0L60.305,305.314z"/>
	<path style="fill:#FFD00D;" d="M95.994,53.314c0.927,0.926,0.927,2.445,0,3.371l-7.309,7.309c-0.927,0.927-2.444,0.927-3.371,0
		l-7.309-7.309c-0.927-0.926-0.927-2.445,0-3.371l7.309-7.309c0.927-0.927,2.444-0.927,3.371,0L95.994,53.314z"/>
	<path style="fill:#FFD00D;" d="M495.994,178.314c0.927,0.926,0.927,2.445,0,3.371l-7.309,7.309c-0.927,0.927-2.444,0.927-3.371,0
		l-7.309-7.309c-0.927-0.926-0.927-2.445,0-3.371l7.309-7.309c0.927-0.927,2.444-0.927,3.371,0L495.994,178.314z"/>
</g>
<g>
</g>
<g>
</g>
<g>
</g>
<g>
</g>
<g>
</g>
<g>
</g>
<g>
</g>
<g>
</g>
<g>
</g>
<g>
</g>
<g>
</g>
<g>
</g>
<g>
</g>
<g>
</g>
<g>
</g>
</svg>
