<?xml version="1.0" encoding="iso-8859-1"?>
<!-- Generator: Adobe Illustrator 19.0.0, SVG Export Plug-In . SVG Version: 6.00 Build 0)  -->
<svg version="1.1" id="Capa_1" xmlns="http://www.w3.org/2000/svg" xmlns:xlink="http://www.w3.org/1999/xlink" x="0px" y="0px"
	 viewBox="0 0 512 512" style="enable-background:new 0 0 512 512;" xml:space="preserve">
<path style="fill:#A05F33;" d="M118.665,166.996c0.338,0,0.67,0.021,1,0.051v-0.051H118.665z"/>
<circle style="fill:#FFAF10;" cx="256" cy="267" r="245"/>
<path style="fill:#B7092B;" d="M366,396.84v72.097c0,2.257-1.836,4.093-4.092,4.093h-209.25c-0.822,0-1.622-0.338-2.196-0.927
	c-0.573-0.59-0.889-1.398-0.867-2.219c0.478-18.026-2.949-47.229-6.7-73.044H48.216C91.523,465.998,168.383,512,256,512
	c87.615,0,164.477-46.002,207.783-115.16H366z"/>
<path style="fill:#FFFFFF;" d="M177.342,315.175c-0.549,0-1.063-0.272-1.37-0.728c-2.308-3.414-4.146-5.251-7.56-7.559
	c-0.455-0.309-0.727-0.822-0.727-1.371c0-0.55,0.272-1.064,0.727-1.371c3.414-2.309,5.252-4.145,7.56-7.559
	c0.308-0.456,0.821-0.728,1.37-0.728c0.55,0,1.064,0.272,1.371,0.728c2.309,3.414,4.146,5.25,7.559,7.559
	c0.456,0.308,0.729,0.821,0.729,1.371c0,0.549-0.273,1.063-0.729,1.371c-3.413,2.308-5.25,4.145-7.559,7.559
	C178.406,314.902,177.892,315.175,177.342,315.175z"/>
<path style="fill:#FFD00D;" d="M159.288,283.885c-0.737,0-1.427-0.364-1.841-0.977c-3.099-4.584-5.564-7.049-10.148-10.148
	c-0.611-0.413-0.977-1.103-0.977-1.841c0-0.737,0.365-1.427,0.977-1.841c4.584-3.1,7.05-5.564,10.148-10.148
	c0.414-0.612,1.104-0.977,1.841-0.977s1.428,0.364,1.841,0.977c3.1,4.584,5.564,7.049,10.149,10.148
	c0.611,0.414,0.977,1.104,0.977,1.841s-0.365,1.428-0.977,1.841c-4.585,3.1-7.05,5.564-10.149,10.148
	C160.716,283.521,160.025,283.885,159.288,283.885z"/>
<g>
	<circle style="fill:#FFFFFF;" cx="144.7" cy="236.44" r="7.445"/>
	<circle style="fill:#FFFFFF;" cx="128.54" cy="287.32" r="6.204"/>
	<circle style="fill:#FFFFFF;" cx="166" cy="191" r="6.204"/>
</g>
<path style="fill:#6E7489;" d="M314.183,10.213V5c0-2.75-2.25-5-5-5H265.95c-2.75,0-5,2.25-5,5v5.213
	C260.95,10.213,314.183,10.213,314.183,10.213z"/>
<path style="fill:#EEF6FF;" d="M262.017,103.522h51.1c0.31,0,0.619,0.018,0.928,0.045V37H261.09v66.567
	C261.398,103.54,261.708,103.522,262.017,103.522z"/>
<path style="fill:#D9EAFC;" d="M262.017,103.522h20.028V37h-20.956v66.567C261.398,103.54,261.708,103.522,262.017,103.522z"/>
<path style="fill:#999CAD;" d="M256.676,38.787c-1.827,0-3.31-1.481-3.31-3.31v-20.96c0-3.042,2.475-5.517,5.516-5.517h57.369
	c3.041,0,5.516,2.475,5.516,5.517v20.961c0,1.828-1.481,3.31-3.31,3.31h-61.781V38.787z"/>
<path style="fill:#80859B;" d="M274,35.478V14.517C274,11.475,276.475,9,279.516,9h-20.634c-3.041,0-5.516,2.475-5.516,5.517v20.961
	c0,1.828,1.482,3.31,3.31,3.31h20.634C275.482,38.787,274,37.306,274,35.478z"/>
<path style="fill:#D9EAFC;" d="M276.364,116h22.404c10.21,0,19.895,2.27,28.6,6.306c0.083-0.925,0.012-1.909-0.244-2.934
	l-1.887-7.551c-1.302-5.205-6.756-9.464-12.121-9.464h-51.1c-5.364,0-10.982,4.215-12.485,9.365l-2.259,7.748
	c-0.329,1.127-0.422,2.205-0.331,3.208C255.855,118.4,265.834,116,276.364,116z"/>
<path style="fill:#C3DDF4;" d="M268.751,116.436l1.373-4.713c1.504-5.15,7.121-9.365,12.486-9.365h-20.594
	c-5.364,0-10.982,4.215-12.485,9.365l-2.259,7.748c-0.329,1.127-0.422,2.205-0.331,3.208
	C253.676,119.446,261.021,117.298,268.751,116.436z"/>
<path style="fill:#EEF6FF;" d="M298.769,114.544h-22.404c-37.622,0-68.231,30.607-68.231,68.23V345h30.801
	c1.201,0,2.344,0.531,3.115,1.454c0.773,0.923,1.098,2.138,0.887,3.321c-0.814,4.579-15.477,85.467-14.533,121.119
	c0.029,1.096-0.387,2.157-1.15,2.942c-0.07,0.072-0.154,0.126-0.229,0.192h134.884c2.813,0,5.092-2.278,5.092-5.093V182.774
	C367,145.151,336.392,114.544,298.769,114.544z"/>
<path style="fill:#D9EAFC;" d="M276.364,114.544c-37.622,0-68.231,30.607-68.231,68.23V345h21V182.774
	c0-37.623,30.608-68.23,68.231-68.23H276.364z"/>
<path style="fill:#FFFFFF;" d="M356.605,190.878H218.526c-1.609,0-2.926,1.317-2.926,2.927V345h23.335
	c1.201,0,2.344,0.531,3.115,1.454c0.773,0.923,1.098,2.138,0.887,3.321c-0.783,4.402-14.362,79.326-14.572,116.786h128.24
	c1.609,0,2.926-1.317,2.926-2.926v-269.83C359.531,192.195,358.215,190.878,356.605,190.878z"/>
<path style="fill:#293D7C;" d="M346.554,204.372H228.579c-2.75,0-5,2.25-5,5V345h15.356c1.201,0,2.344,0.531,3.115,1.454
	c0.773,0.923,1.098,2.138,0.887,3.321c-0.279,1.569-2.185,12.102-4.531,26.702h108.147c2.75,0,5-2.25,5-5V209.372
	C351.554,206.622,349.304,204.372,346.554,204.372z"/>
<path style="fill:#B7092B;" d="M346.554,391.923H236.006c-1.311,8.751-2.636,18.177-3.807,27.58h114.355c2.75,0,5-2.25,5-5v-17.58
	C351.554,394.173,349.304,391.923,346.554,391.923z"/>
<ellipse style="fill:#D9EAFC;" cx="287.57" cy="156.38" rx="31.993" ry="21.514"/>
<path style="fill:#C3DDF4;" d="M276.014,156.382c0-9.478,9.118-17.518,21.773-20.386c-3.21-0.727-6.645-1.128-10.22-1.128
	c-17.67,0-31.994,9.632-31.994,21.514c0,11.881,14.324,21.514,31.994,21.514c3.575,0,7.01-0.4,10.22-1.128
	C285.132,173.898,276.014,165.858,276.014,156.382z"/>
<path style="fill:#B7092B;" d="M322.319,238.166h-69.504c-4.041,0-7.316-3.275-7.316-7.315c0-4.041,3.275-7.316,7.316-7.316h69.504
	c4.041,0,7.315,3.275,7.315,7.316C329.635,234.891,326.36,238.166,322.319,238.166z"/>
<path style="fill:#FFFFFF;" d="M305.43,323.838c-0.847,0-1.715-0.23-2.575-0.683l-13.963-7.339c-0.211-0.112-0.68-0.241-1.31-0.241
	c-0.629,0-1.1,0.129-1.311,0.241l-13.96,7.339c-0.863,0.452-1.729,0.683-2.577,0.683c-1.287,0-2.438-0.526-3.24-1.477
	c-0.889-1.056-1.227-2.521-0.953-4.126l2.666-15.544c0.117-0.682-0.315-2.011-0.811-2.495l-11.293-11.01
	c-1.473-1.433-2.004-3.209-1.463-4.873c0.541-1.665,2.018-2.788,4.049-3.084l15.607-2.268c0.685-0.1,1.815-0.921,2.121-1.541
	l6.98-14.145c0.908-1.842,2.434-2.897,4.184-2.897c1.751,0,3.275,1.056,4.184,2.897l6.98,14.145
	c0.307,0.621,1.438,1.441,2.123,1.541l15.607,2.268c2.031,0.296,3.506,1.419,4.047,3.082c0.542,1.666,0.01,3.442-1.461,4.875
	l-11.295,11.01c-0.494,0.484-0.928,1.814-0.811,2.495l2.666,15.544c0.275,1.605-0.063,3.07-0.953,4.126
	C307.867,323.311,306.716,323.838,305.43,323.838z"/>
<g>
	<path style="fill:#C3DDF4;" d="M229.166,448.919c-0.621,8.261-0.926,15.798-0.763,21.976c0.029,1.096-0.387,2.157-1.15,2.942
		c-0.07,0.072-0.154,0.126-0.229,0.192h134.884c2.813,0,5.092-2.278,5.092-5.093v-20.018H229.166V448.919z"/>
	<path style="fill:#C3DDF4;" d="M152.658,474.029c-1.096,0-2.146-0.443-2.912-1.229c-0.764-0.785-1.18-1.847-1.15-2.942
		c0.945-35.652-13.719-116.54-14.533-121.119c-0.209-1.184,0.113-2.398,0.887-3.321c0.773-0.923,1.914-1.454,3.115-1.454h102.352
		c1.201,0,2.344,0.531,3.115,1.454c0.773,0.923,1.098,2.138,0.887,3.321c-0.815,4.579-15.477,85.467-14.533,121.119
		c0.029,1.096-0.387,2.157-1.15,2.942c-0.766,0.786-1.816,1.229-2.912,1.229L152.658,474.029L152.658,474.029z"/>
</g>
<path style="fill:#EEF6FF;" d="M158.4,467.255c-1.643,0-2.979-1.32-3-2.962c-0.289-22.773-5.061-57.703-9.014-82.996
	c-0.135-0.865,0.115-1.748,0.686-2.413c0.57-0.666,1.402-1.05,2.279-1.05h79.777c0.877,0,1.709,0.384,2.279,1.05
	c0.57,0.665,0.82,1.548,0.686,2.413c-3.953,25.293-8.725,60.224-9.012,82.996c-0.022,1.642-1.357,2.962-3,2.962H158.4z"/>
<g>
	<path style="fill:#D9EAFC;" d="M176.271,464.293c-0.289-22.773-5.061-57.703-9.014-82.996c-0.135-0.865,0.115-1.748,0.686-2.413
		c0.57-0.666,1.402-1.05,2.279-1.05h-20.871c-0.877,0-1.709,0.384-2.279,1.05c-0.57,0.665-0.82,1.548-0.686,2.413
		c3.953,25.293,8.725,60.223,9.014,82.996c0.021,1.642,1.357,2.962,3,2.962h20.871C177.628,467.255,176.292,465.935,176.271,464.293
		z"/>
	<path style="fill:#D9EAFC;" d="M152.658,474.029h73.164c1.096,0,2.146-0.443,2.912-1.229c0.764-0.785,1.18-1.847,1.15-2.942
		c-0.16-6.077,0.133-13.467,0.73-21.57h-82.75c0.598,8.103,0.891,15.493,0.73,21.57c-0.029,1.096,0.387,2.157,1.15,2.942
		C150.512,473.586,151.562,474.029,152.658,474.029z"/>
</g>
<path style="fill:#C3DDF4;" d="M168.98,469.857c0.16-6.077-0.133-13.467-0.73-21.57h-20.385c0.598,8.103,0.891,15.493,0.73,21.57
	c-0.029,1.096,0.387,2.157,1.15,2.942c0.766,0.786,1.816,1.229,2.912,1.229h20.385c-1.096,0-2.147-0.443-2.912-1.229
	C169.367,472.015,168.951,470.953,168.98,469.857z"/>
<g>
</g>
<g>
</g>
<g>
</g>
<g>
</g>
<g>
</g>
<g>
</g>
<g>
</g>
<g>
</g>
<g>
</g>
<g>
</g>
<g>
</g>
<g>
</g>
<g>
</g>
<g>
</g>
<g>
</g>
</svg>
