<?xml version="1.0" encoding="iso-8859-1"?>
<!-- Generator: Adobe Illustrator 19.0.0, SVG Export Plug-In . SVG Version: 6.00 Build 0)  -->
<svg version="1.1" id="Capa_1" xmlns="http://www.w3.org/2000/svg" xmlns:xlink="http://www.w3.org/1999/xlink" x="0px" y="0px"
	 viewBox="0 0 512 512" style="enable-background:new 0 0 512 512;" xml:space="preserve">
<circle style="fill:#02AF8E;" cx="256" cy="267" r="245"/>
<path style="fill:#1E8BC2;" d="M256,22C120.689,22,11,131.689,11,267c0,6.734,0.283,13.402,0.816,20h488.367
	c0.533-6.598,0.816-13.266,0.816-20C501,131.689,391.309,22,256,22z"/>
<g>
	<path style="fill:#BF7E52;" d="M324,268.102V282c0,2.75,2.25,5,5,5h2c0.501,0,0.976-0.098,1.433-0.236v-18.479H325
		C324.647,268.285,324.315,268.213,324,268.102z"/>
	<path style="fill:#BF7E52;" d="M438,268.285h-7.078v18.59C431.27,286.953,431.629,287,432,287h2c2.75,0,5-2.25,5-5v-13.898
		C438.685,268.213,438.353,268.285,438,268.285z"/>
</g>
<g>
	<path style="fill:#1A2B63;" d="M427.56,134.834c1.977,2.253,3.362,5.367,3.362,8.027V270H438c1.657,0,3-1.343,3-3V153
		C441,144.458,435.332,137.218,427.56,134.834z"/>
	<path style="fill:#1A2B63;" d="M323,165h9.433v-22.139c0-2.709,1.437-5.885,3.471-8.146C327.897,136.95,322,144.291,322,153v12.278
		C322.295,165.105,322.634,165,323,165z"/>
	<path style="fill:#1A2B63;" d="M323,191c-0.366,0-0.705-0.105-1-0.278V267c0,1.657,1.343,3,3,3h7.433v-79H323z"/>
</g>
<path style="fill:#FFAF10;" d="M332.433,164H323c-1.65,0-3,1.35-3,3v22c0,1.65,1.35,3,3,3h9.433V164z"/>
<path style="fill:#A05F33;" d="M393.217,435.93h30.815c0.277,0,0.553,0.013,0.826,0.037V331H392.39v104.972
	C392.663,435.947,392.938,435.93,393.217,435.93z"/>
<path style="fill:#293D7C;" d="M393.217,435.93h30.815c0.277,0,0.553,0.013,0.826,0.037v-82.8H392.39v82.805
	C392.663,435.947,392.938,435.93,393.217,435.93z"/>
<path style="fill:#A05F33;" d="M339.514,435.93h30.815c0.279,0,0.553,0.018,0.826,0.042V331h-32.467v104.972
	C338.96,435.947,339.234,435.93,339.514,435.93z"/>
<path style="fill:#293D7C;" d="M331.433,273v55.408c0,2.128,1.74,3.867,3.866,3.867h38.649c2.125,0,3.865-1.739,3.865-3.867v-42.514
	h7.73v42.514c0,2.128,1.739,3.867,3.864,3.867h38.65c2.126,0,3.866-1.739,3.866-3.867V273H331.433z"/>
<path style="fill:#1A2B63;" d="M346.511,328.408V273h-15.078v55.408c0,2.128,1.74,3.867,3.866,3.867h15.078
	C348.251,332.275,346.511,330.536,346.511,328.408z"/>
<path style="fill:#293D7C;" d="M339.514,435.93h30.815c0.279,0,0.553,0.018,0.826,0.042v-82.805h-32.467v82.805
	C338.96,435.947,339.234,435.93,339.514,435.93z"/>
<g>
	<path style="fill:#1A2B63;" d="M393.217,435.93h14.316v-82.763H392.39v82.805C392.663,435.947,392.938,435.93,393.217,435.93z"/>
	<path style="fill:#1A2B63;" d="M339.514,435.93h14.316v-82.763h-15.143v82.805C338.96,435.947,339.234,435.93,339.514,435.93z"/>
</g>
<circle style="fill:#FFD00D;" cx="419.55" cy="318.36" r="5.412"/>
<path style="fill:#B7092B;" d="M425.21,131.623l-27.191-14.643v8.637c0,1.848-1.082,4.533-2.362,5.865l-12.06,12.544
	c-0.512,0.532-1.194,0.826-1.92,0.826s-1.408-0.294-1.92-0.826l-12.06-12.544c-1.28-1.331-2.361-4.018-2.361-5.865v-8.639
	l-27.191,14.645c-3.691,1.988-6.712,7.047-6.712,11.238V264h100.49V142.861C431.922,138.67,428.901,133.611,425.21,131.623z"/>
<path style="fill:#A00026;" d="M346.51,143.336l-9.778,5.267c-2.122,1.144-4.026,3.269-5.3,5.677V264h15.078V143.336z"/>
<rect x="331.43" y="262.63" style="fill:#2E4C89;" width="100.49" height="11.591"/>
<g>
	<rect x="331.43" y="262.63" style="fill:#293D7C;" width="15.08" height="11.591"/>
	<path style="fill:#293D7C;" d="M367.697,131.482c-1.28-1.331-2.361-4.018-2.361-5.865v-8.639l-27.191,14.645
		c-3.691,1.988-6.712,7.047-6.712,11.238v12.879c1.273-2.408,3.178-4.533,5.3-5.677l32.171-17.326L367.697,131.482z"/>
	<path style="fill:#293D7C;" d="M425.21,131.623l-27.191-14.643v8.637c0,1.848-1.082,4.533-2.362,5.865l-1.207,1.255l32.171,17.326
		c2.122,1.143,4.026,3.268,5.301,5.677v-12.879C431.922,138.67,428.901,133.611,425.21,131.623z"/>
</g>
<path style="fill:#FFFFFF;" d="M405.44,120.978l-7.421-3.997v8.637c0,1.848-1.082,4.533-2.362,5.865l-12.06,12.544
	c-0.512,0.532-1.194,0.826-1.92,0.826s-1.408-0.294-1.92-0.826l-12.06-12.544c-1.28-1.331-2.361-4.018-2.361-5.865v-8.638
	l-7.423,3.998c-0.74,0.396-1.2,1.17-1.2,2.013v2.627c0,4.052,1.961,8.923,4.768,11.841L373.54,150
	c2.122,2.208,5.088,3.474,8.138,3.474s6.016-1.266,8.135-3.474l12.06-12.541c2.808-2.919,4.77-7.79,4.77-11.842v-2.627
	C406.643,122.147,406.181,121.376,405.44,120.978z"/>
<path style="fill:#A05F33;" d="M389.565,116.002h-15.776c-3.304,0-6.48-0.547-9.453-1.541v11.156c0,2.094,1.188,5.047,2.641,6.559
	l12.06,12.544c1.452,1.51,3.829,1.51,5.281,0l12.06-12.544c1.453-1.512,2.641-4.465,2.641-6.559V114.46
	C396.046,115.455,392.869,116.002,389.565,116.002z"/>
<path style="fill:#87502A;" d="M373.827,125.617v-9.615h-0.038c-3.304,0-6.48-0.547-9.453-1.541v11.156
	c0,2.094,1.188,5.047,2.641,6.559l12.06,12.544c1.452,1.51,3.829,1.51,5.281,0l2.105-2.189l-9.955-10.355
	C375.015,130.664,373.827,127.711,373.827,125.617z"/>
<path style="fill:#FFAF10;" d="M389.565,0h-39.203c-0.863,0-1.65,0.484-2.039,1.255c-0.391,0.769-0.315,1.689,0.196,2.386
	l2.361,3.221h-8.903c-0.862,0-1.65,0.485-2.04,1.252c-0.39,0.769-0.314,1.691,0.196,2.387l5.159,7.034h-5.603
	c-0.861,0-1.649,0.481-2.038,1.252c-0.391,0.768-0.315,1.691,0.194,2.386l4.598,6.268h-2.754c-0.861,0-1.649,0.488-2.038,1.254
	c-0.391,0.771-0.315,1.692,0.194,2.389l4.878,6.652h-3.415c-0.862,0-1.65,0.484-2.039,1.252c-0.39,0.77-0.315,1.691,0.195,2.387
	l5.45,7.432v1.324c0-17.052,13.824-24.129,30.874-24.129h15.776c17.05,0,30.873,7.077,30.873,24.129V30.875
	C420.439,13.822,406.616,0,389.565,0z"/>
<g>
	<path style="fill:#87502A;" d="M343.915,55.527h-1.21c-5.616,0-10.209,4.591-10.209,10.21v7.349
		c0,5.611,4.593,10.205,10.209,10.205h1.21V55.527z"/>
	<path style="fill:#87502A;" d="M420.652,55.527h-1.213v27.764h1.213c5.615,0,10.207-4.594,10.207-10.205v-7.349
		C430.859,60.118,426.267,55.527,420.652,55.527z"/>
</g>
<path style="fill:#BF7E52;" d="M420.439,86.131c0,17.051-13.823,30.871-30.873,30.871H373.79c-17.05,0-30.874-13.82-30.874-30.871
	V48.723c0-17.052,13.824-24.129,30.874-24.129h15.776c17.05,0,30.873,7.077,30.873,24.129V86.131z"/>
<path style="fill:#A05F33;" d="M353.477,86.131V48.723c0-17.052,13.824-24.129,30.874-24.129H373.79
	c-17.05,0-30.874,7.077-30.874,24.129v37.408c0,17.051,13.824,30.871,30.874,30.871h10.561
	C367.301,117.002,353.477,103.182,353.477,86.131z"/>
<g>
	<circle style="fill:#232323;" cx="359.86" cy="67.03" r="6.346"/>
	<circle style="fill:#232323;" cx="403.49" cy="67.03" r="6.346"/>
</g>
<g>
	<path style="fill:#823329;" d="M389.214,89.5h-7.192c-4.925,0-8.933-4.008-8.933-8.934V56.665c0-0.688-0.584-1.275-1.275-1.275
		h-20.279c-2.114,0-3.829-1.713-3.829-3.827c0-2.113,1.715-3.829,3.829-3.829h20.279c4.925,0,8.931,4.006,8.931,8.932v23.901
		c0,0.693,0.584,1.277,1.277,1.277h7.192c2.114,0,3.826,1.715,3.826,3.829C393.04,87.784,391.328,89.5,389.214,89.5z"/>
	<path style="fill:#823329;" d="M390.836,102.983h-17.863c-2.114,0-3.829-1.713-3.829-3.827c0-2.113,1.715-3.829,3.829-3.829h17.863
		c2.115,0,3.828,1.716,3.828,3.829C394.664,101.271,392.951,102.983,390.836,102.983z"/>
	<path style="fill:#823329;" d="M411.424,55.39h-17.847c-2.114,0-3.828-1.713-3.828-3.827c0-2.113,1.714-3.829,3.828-3.829h17.847
		c2.114,0,3.828,1.716,3.828,3.829C415.252,53.677,413.538,55.39,411.424,55.39z"/>
</g>
<path style="fill:#FFFFFF;" d="M408.738,189.473h-54.121c-2.761,0-5-2.238-5-5s2.239-5,5-5h54.121c2.761,0,5,2.238,5,5
	C413.738,187.234,411.499,189.473,408.738,189.473z"/>
<path style="fill:#FFD00D;" d="M403.783,171.512c-1.258,0-1.773-0.891-1.144-1.978l6.115-10.596c0.628-1.089,1.658-1.089,2.287,0
	l6.116,10.596c0.63,1.087,0.114,1.978-1.143,1.978H403.783z"/>
<path style="fill:#232323;" d="M331.444,459.876c-1.218,0-2.202-0.986-2.202-2.202v-12.475c0-5.662,4.607-10.27,10.272-10.27h30.815
	c5.663,0,10.271,4.607,10.271,10.27v12.475c0,1.216-0.985,2.202-2.201,2.202H331.444z"/>
<path style="fill:#994334;" d="M165.801,10.666c-0.37,0-0.732,0.038-1.081,0.109V8.889c0-2.945-2.388-5.334-5.333-5.334
	c-1.378,0-2.629,0.527-3.576,1.385c-0.201-2.761-2.5-4.94-5.312-4.94c-2.188,0-4.067,1.319-4.889,3.205
	C144.788,1.319,142.91,0,140.721,0c-2.188,0-4.066,1.319-4.889,3.205C135.011,1.319,133.132,0,130.944,0s-4.067,1.319-4.889,3.205
	C125.233,1.319,123.354,0,121.166,0c-2.188,0-4.067,1.319-4.889,3.205C115.456,1.319,113.577,0,111.389,0
	c-2.603,0-4.768,1.866-5.236,4.333c-0.807-0.489-1.75-0.778-2.763-0.778c-2.945,0-5.333,2.389-5.333,5.334v1.857
	c-2.521,0.424-4.444,2.611-4.444,5.254l0.059,32.326C94.618,32.58,108.05,26,124.485,26h15.776c17.05,0,30.873,7.077,30.873,24.129
	V16C171.135,13.055,168.747,10.666,165.801,10.666z"/>
<g>
	<path style="fill:#BF7E52;" d="M75,268.084V282c0,2.75,2.25,5,5,5h2c0.39,0,0.765-0.056,1.129-0.141v-18.592H76
		C75.647,268.268,75.314,268.195,75,268.084z"/>
	<path style="fill:#BF7E52;" d="M189,268.268h-7.381v18.513c0.442,0.129,0.899,0.22,1.381,0.22h2c2.75,0,5-2.25,5-5v-13.916
		C189.686,268.195,189.352,268.268,189,268.268z"/>
</g>
<g>
	<path style="fill:#D9EAFC;" d="M178.164,134.732c2.026,2.26,3.455,5.428,3.455,8.129V270H189c1.657,0,3-1.343,3-3V153
		C192,144.314,186.136,136.989,178.164,134.732z"/>
	<path style="fill:#D9EAFC;" d="M74,165h9.129v-22.139c0-2.668,1.392-5.79,3.377-8.044C78.701,137.18,73,144.434,73,153v12.278
		C73.295,165.105,73.634,165,74,165z"/>
	<path style="fill:#D9EAFC;" d="M74,191c-0.366,0-0.705-0.105-1-0.278V267c0,1.657,1.343,3,3,3h7.129v-79H74z"/>
</g>
<path style="fill:#232323;" d="M83.129,164H74c-1.65,0-3,1.35-3,3v22c0,1.65,1.35,3,3,3h9.129V164z"/>
<rect x="71" y="172" style="fill:#FFFFFF;" width="12.13" height="12"/>
<path style="fill:#FFC987;" d="M143.913,435.93h30.814c0.279,0,0.553,0.018,0.826,0.042V331h-32.467v104.972
	C143.359,435.947,143.634,435.93,143.913,435.93z"/>
<path style="fill:#B7092B;" d="M143.913,435.93h30.814c0.279,0,0.553,0.018,0.826,0.042v-82.805h-32.467v82.805
	C143.359,435.947,143.634,435.93,143.913,435.93z"/>
<path style="fill:#A00026;" d="M143.913,435.93h14.62v-82.763h-15.447v82.805C143.359,435.947,143.634,435.93,143.913,435.93z"/>
<path style="fill:#232323;" d="M135.843,459.876c-1.218,0-2.201-0.986-2.201-2.202v-12.475c0-5.662,4.607-10.27,10.271-10.27h30.814
	c5.664,0,10.273,4.607,10.273,10.27v12.475c0,1.216-0.986,2.202-2.202,2.202H135.843z"/>
<path style="fill:#FFC987;" d="M90.21,435.93h30.815c0.279,0,0.553,0.018,0.826,0.042V331H89.383v104.976
	C89.657,435.951,89.932,435.93,90.21,435.93z"/>
<path style="fill:#B7092B;" d="M82.129,273v55.408c0,2.128,1.74,3.867,3.866,3.867h38.649c2.125,0,3.865-1.739,3.865-3.867v-42.514
	h7.73v42.514c0,2.128,1.739,3.867,3.864,3.867h38.649c2.126,0,3.866-1.739,3.866-3.867V273H82.129z"/>
<path style="fill:#A00026;" d="M97.511,328.408V273H82.129v55.408c0,2.128,1.74,3.867,3.866,3.867h15.382
	C99.251,332.275,97.511,330.536,97.511,328.408z"/>
<path style="fill:#B7092B;" d="M90.21,435.93h30.815c0.279,0,0.553,0.018,0.826,0.042v-82.805H89.383v82.809
	C89.657,435.951,89.932,435.93,90.21,435.93z"/>
<path style="fill:#A00026;" d="M90.21,435.93h14.323v-82.763h-15.15v82.809C89.657,435.951,89.932,435.93,90.21,435.93z"/>
<g>
	<circle style="fill:#FFFFFF;" cx="170.25" cy="318.36" r="5.412"/>
	<path style="fill:#FFFFFF;" d="M175.906,131.623l-30.01-16.161c-1.826,0.35-3.708,0.54-5.635,0.54h-15.776
		c-1.927,0-3.81-0.19-5.636-0.541l-30.008,16.162c-3.691,1.988-6.712,7.047-6.712,11.238V264h100.49V142.861
		C182.619,138.67,179.597,133.611,175.906,131.623z"/>
</g>
<path style="fill:#EEF6FF;" d="M97.51,142.861c0-4.191,3.021-9.25,6.712-11.238l3.754-2.021c-0.354-1.352-0.567-2.709-0.567-3.984
	v-2.627c0-0.843,0.46-1.616,1.2-2.013l0.005-0.005l-19.774,10.65c-3.691,1.988-6.712,7.047-6.712,11.238V264H97.51V142.861z"/>
<rect x="82.13" y="262.63" style="fill:#FE3745;" width="100.49" height="11.591"/>
<g>
	<rect x="82.13" y="262.63" style="fill:#B7092B;" width="15.381" height="11.591"/>
	<path style="fill:#B7092B;" d="M156.137,120.978l-10.241-5.516c-1.826,0.35-3.708,0.54-5.634,0.54h-15.776
		c-1.927,0-3.81-0.19-5.636-0.54l-10.24,5.516c-0.74,0.396-1.2,1.17-1.2,2.013v2.627c0,4.052,1.961,8.923,4.768,11.841L124.236,150
		c2.122,2.208,5.088,3.474,8.138,3.474c3.05,0,6.016-1.266,8.135-3.474l12.06-12.541c2.808-2.919,4.77-7.79,4.77-11.842v-2.627
		C157.339,122.147,156.877,121.376,156.137,120.978z"/>
</g>
<path style="fill:#F2B675;" d="M140.262,116.002h-15.776c-3.304,0-6.48-0.547-9.453-1.541v11.156c0,2.094,1.188,5.047,2.641,6.559
	l12.06,12.544c1.452,1.51,3.829,1.51,5.281,0l12.061-12.544c1.453-1.512,2.641-4.465,2.641-6.559V114.46
	C146.742,115.455,143.565,116.002,140.262,116.002z"/>
<g>
	<path style="fill:#DAA56B;" d="M124.317,125.617v-9.619c-3.243-0.019-6.362-0.561-9.285-1.537v11.156
		c0,2.094,1.188,5.047,2.641,6.559l12.06,12.544c1.452,1.51,3.829,1.51,5.281,0l2.002-2.082l-10.058-10.462
		C125.504,130.664,124.317,127.711,124.317,125.617z"/>
	<path style="fill:#DAA56B;" d="M94.611,55.527h-1.21c-5.616,0-10.209,4.591-10.209,10.21v7.349c0,5.611,4.593,10.205,10.209,10.205
		h1.21V55.527z"/>
	<path style="fill:#DAA56B;" d="M171.348,55.527h-1.213v27.764h1.213c5.615,0,10.207-4.594,10.207-10.205v-7.349
		C181.555,60.118,176.963,55.527,171.348,55.527z"/>
</g>
<path style="fill:#FFC987;" d="M171.135,86.131c0,17.051-13.823,30.871-30.873,30.871h-15.776c-17.05,0-30.874-13.82-30.874-30.871
	V48.723c0-17.052,13.824-24.129,30.874-24.129h15.776c17.05,0,30.873,7.077,30.873,24.129V86.131z"/>
<path style="fill:#F2B675;" d="M104.477,86.131V48.723c0-17.052,13.824-24.129,30.874-24.129h-10.865
	c-17.05,0-30.874,7.077-30.874,24.129v37.408c0,17.051,13.824,30.871,30.874,30.871h10.865
	C118.301,117.002,104.477,103.182,104.477,86.131z"/>
<g>
	<circle style="fill:#1A2B63;" cx="110.56" cy="67.03" r="6.346"/>
	<circle style="fill:#1A2B63;" cx="154.19" cy="67.03" r="6.346"/>
</g>
<g>
	<path style="fill:#A05F33;" d="M139.91,89.5h-7.192c-4.925,0-8.933-4.008-8.933-8.934V56.665c0-0.688-0.584-1.275-1.275-1.275
		h-20.279c-2.114,0-3.829-1.713-3.829-3.827c0-2.113,1.715-3.829,3.829-3.829h20.279c4.925,0,8.931,4.006,8.931,8.932v23.901
		c0,0.693,0.584,1.277,1.277,1.277h7.192c2.114,0,3.826,1.715,3.826,3.829C143.736,87.784,142.024,89.5,139.91,89.5z"/>
	<path style="fill:#A05F33;" d="M141.532,102.983h-17.863c-2.114,0-3.829-1.713-3.829-3.827c0-2.113,1.715-3.829,3.829-3.829h17.863
		c2.115,0,3.828,1.716,3.828,3.829C145.36,101.271,143.647,102.983,141.532,102.983z"/>
	<path style="fill:#A05F33;" d="M162.12,55.39h-17.847c-2.114,0-3.828-1.713-3.828-3.827c0-2.113,1.714-3.829,3.828-3.829h17.847
		c2.114,0,3.828,1.716,3.828,3.829C165.948,53.677,164.234,55.39,162.12,55.39z"/>
</g>
<path style="fill:#FE3745;" d="M159.434,189.473h-54.121c-2.761,0-5-2.238-5-5s2.239-5,5-5h54.121c2.761,0,5,2.238,5,5
	C164.434,187.234,162.195,189.473,159.434,189.473z"/>
<path style="fill:#FFD00D;" d="M154.48,171.512c-1.258,0-1.773-0.891-1.144-1.978l6.115-10.596c0.628-1.089,1.658-1.089,2.287,0
	l6.116,10.596c0.63,1.087,0.114,1.978-1.143,1.978H154.48z"/>
<path style="fill:#232323;" d="M121.025,434.93H90.21c-3.462,0-6.522,1.727-8.384,4.357c7.253,7.332,14.958,14.215,23.084,20.589
	h24.185c1.216,0,2.201-0.986,2.201-2.202v-12.475C131.296,439.537,126.688,434.93,121.025,434.93z"/>
<circle style="fill:#FFFFFF;" cx="256" cy="410" r="52"/>
<path style="fill:#D9EAFC;" d="M215.064,410c0-26.852,20.351-48.944,46.469-51.708C259.714,358.101,257.869,358,256,358
	c-28.719,0-52,23.279-52,52c0,28.718,23.281,52,52,52c1.869,0,3.714-0.101,5.532-0.293C235.415,458.944,215.064,436.849,215.064,410
	z"/>
<path style="fill:#232323;" d="M300.639,403.877l7.304,3.722c-0.614-13.5-6.375-25.658-15.367-34.558l-1.707,10.782l-24.377-16.039
	l8.526-6.195C269.127,359.272,262.712,358,256,358s-13.127,1.272-19.018,3.589l8.526,6.195l-24.129,15.877l-1.718-10.85
	c-9.161,8.951-15.026,21.258-15.609,34.935l7.35-3.744l10.135,32.111l-11.522-1.825c5.857,11.065,15.589,19.761,27.389,24.283
	l-1.212-7.658h39.578l-1.216,7.676c11.81-4.512,21.551-13.204,27.417-24.269l-11.514,1.825L300.639,403.877z M287.068,436.682
	l-7.056,1.117l-11.884-11.885l5.825-17.926l16.292-9.407l7.622,3.884L287.068,436.682z M290.341,387.149l-1.366,8.623l-15.674,9.051
	l-15.769-11.457v-19.074l6.307-4.581L290.341,387.149z M248.16,369.711l6.307,4.581v19.074l-15.705,11.41l-15.451-8.92l-1.405-8.87
	L248.16,369.711z M214.172,402.591l7.791-3.971l16.051,9.269l5.801,17.853l-12.001,12l-6.891-1.091L214.172,402.591z
	 M235.704,447.844l-1.32-8.333l11.765-11.764h19.476l11.924,11.924l-1.294,8.173H235.704z"/>
<g>
	<path style="fill:#37C47A;" d="M285,329h-10.246c-2.762,0-5-2.238-5-5s2.238-5,5-5H285c2.762,0,5,2.238,5,5S287.762,329,285,329z"
		/>
	<path style="fill:#37C47A;" d="M230,343h-10.246c-2.762,0-5-2.238-5-5s2.238-5,5-5H230c2.762,0,5,2.238,5,5S232.762,343,230,343z"
		/>
	<path style="fill:#37C47A;" d="M51.246,311H41c-2.762,0-5-2.238-5-5s2.238-5,5-5h10.246c2.762,0,5,2.238,5,5S54.008,311,51.246,311
		z"/>
	<path style="fill:#37C47A;" d="M73,364H62.754c-2.762,0-5-2.238-5-5s2.238-5,5-5H73c2.762,0,5,2.238,5,5S75.762,364,73,364z"/>
	<path style="fill:#37C47A;" d="M468.246,330H458c-2.762,0-5-2.238-5-5s2.238-5,5-5h10.246c2.762,0,5,2.238,5,5
		S471.008,330,468.246,330z"/>
	<path style="fill:#37C47A;" d="M449,379h-10.246c-2.762,0-5-2.238-5-5s2.238-5,5-5H449c2.762,0,5,2.238,5,5S451.762,379,449,379z"
		/>
	<path style="fill:#37C47A;" d="M316,480h-10.246c-2.762,0-5-2.238-5-5s2.238-5,5-5H316c2.762,0,5,2.238,5,5S318.762,480,316,480z"
		/>
	<path style="fill:#37C47A;" d="M268.246,503H258c-2.762,0-5-2.238-5-5s2.238-5,5-5h10.246c2.762,0,5,2.238,5,5
		S271.008,503,268.246,503z"/>
	<path style="fill:#37C47A;" d="M216,478h-10.246c-2.762,0-5-2.238-5-5s2.238-5,5-5H216c2.762,0,5,2.238,5,5S218.762,478,216,478z"
		/>
	<path style="fill:#37C47A;" d="M202.246,311H192c-2.762,0-5-2.238-5-5s2.238-5,5-5h10.246c2.762,0,5,2.238,5,5
		S205.008,311,202.246,311z"/>
</g>
<path style="fill:#232323;" d="M424.031,434.93h-30.815c-5.665,0-10.271,4.607-10.271,10.27v12.475c0,1.216,0.983,2.202,2.201,2.202
	h21.942c8.581-6.732,16.691-14.034,24.297-21.831C429.519,436.127,426.914,434.93,424.031,434.93z"/>
<g>
</g>
<g>
</g>
<g>
</g>
<g>
</g>
<g>
</g>
<g>
</g>
<g>
</g>
<g>
</g>
<g>
</g>
<g>
</g>
<g>
</g>
<g>
</g>
<g>
</g>
<g>
</g>
<g>
</g>
</svg>
