<?xml version="1.0" encoding="iso-8859-1"?>
<!-- Generator: Adobe Illustrator 19.0.0, SVG Export Plug-In . SVG Version: 6.00 Build 0)  -->
<svg version="1.1" id="Capa_1" xmlns="http://www.w3.org/2000/svg" xmlns:xlink="http://www.w3.org/1999/xlink" x="0px" y="0px"
	 viewBox="0 0 512 512" style="enable-background:new 0 0 512 512;" xml:space="preserve">
<circle style="fill:#02AF8E;" cx="256" cy="267" r="245"/>
<path style="fill:#FFFFFF;" d="M61.063,306.5c-1.92,0-3.839-0.732-5.304-2.197c-27.247-27.249-27.247-71.585,0-98.833
	c2.93-2.928,7.678-2.928,10.607,0c2.929,2.93,2.929,7.678,0,10.607c-21.399,21.398-21.399,56.219,0,77.62
	c2.929,2.929,2.929,7.678-0.001,10.606C64.901,305.768,62.981,306.5,61.063,306.5z"/>
<path style="fill:#FFCA51;" d="M78.469,292.035c-1.919,0-3.839-0.732-5.304-2.196c-19.272-19.272-19.271-50.632,0.002-69.906
	c2.93-2.928,7.678-2.928,10.607,0c2.929,2.93,2.929,7.678,0,10.607c-13.426,13.425-13.427,35.268-0.002,48.691
	c2.929,2.93,2.929,7.678,0,10.607C82.308,291.303,80.388,292.035,78.469,292.035z"/>
<path style="fill:#FFD00D;" d="M96,277.572c-1.919,0-3.839-0.732-5.304-2.196c-11.298-11.299-11.298-29.682,0-40.981
	c2.93-2.928,7.678-2.928,10.607,0c2.929,2.93,2.929,7.678,0,10.607c-5.45,5.449-5.45,14.316,0,19.766
	c2.929,2.93,2.929,7.678,0,10.607C99.839,276.84,97.919,277.572,96,277.572z"/>
<path style="fill:#FFFFFF;" d="M450.938,306.496c-1.919,0-3.839-0.732-5.304-2.196c-2.929-2.93-2.929-7.678,0-10.607
	c21.399-21.398,21.399-56.219,0-77.62c-2.929-2.929-2.929-7.678,0.001-10.606c2.929-2.929,7.678-2.928,10.606,0.001
	c27.247,27.249,27.247,71.585,0,98.833C454.776,305.764,452.856,306.496,450.938,306.496z"/>
<path style="fill:#FFCA51;" d="M433.529,292.033c-1.919,0-3.839-0.732-5.304-2.196c-2.929-2.93-2.929-7.678,0-10.607
	c13.426-13.425,13.427-35.268,0.002-48.691c-2.929-2.93-2.929-7.678,0-10.607c2.93-2.928,7.678-2.928,10.607,0
	c19.272,19.272,19.271,50.632-0.002,69.906C437.368,291.301,435.448,292.033,433.529,292.033z"/>
<path style="fill:#FFD00D;" d="M416,277.57c-1.919,0-3.839-0.732-5.304-2.196c-2.929-2.93-2.929-7.678,0-10.607
	c5.45-5.449,5.45-14.316,0-19.766c-2.929-2.93-2.929-7.678,0-10.607c2.93-2.928,7.678-2.928,10.607,0
	c11.298,11.299,11.298,29.682,0,40.98C419.839,276.838,417.919,277.57,416,277.57z"/>
<path style="fill:#293D7C;" d="M379.331,0H132.67c-5.849,0-10.633,4.784-10.633,10.633v461.513
	c8.316,5.441,16.982,10.392,25.959,14.808h216.007c8.978-4.416,17.644-9.366,25.96-14.809V10.633C389.963,4.784,385.178,0,379.331,0
	z"/>
<g>
	<path style="fill:#1A2B63;" d="M153.074,10.633C153.074,4.784,157.858,0,163.707,0H132.67c-5.849,0-10.633,4.784-10.633,10.633
		v43.305h31.037L153.074,10.633L153.074,10.633z"/>
	<path style="fill:#1A2B63;" d="M122.037,422v50.146c8.316,5.441,16.982,10.392,25.959,14.808h5.078V422H122.037z"/>
</g>
<path style="fill:#445EA0;" d="M202.84,422v28.788c0,2.923,2.393,5.315,5.316,5.315h95.688c2.924,0,5.316-2.393,5.316-5.315V422
	H202.84z"/>
<path style="fill:#2E4C89;" d="M224.105,450.788V422H202.84v28.788c0,2.923,2.393,5.315,5.316,5.315h21.265
	C226.496,456.103,224.105,453.711,224.105,450.788z"/>
<rect x="122.04" y="52.09" style="fill:#D9EAFC;" width="267.93" height="371.06"/>
<path style="fill:#69CDFF;" d="M346.037,194.561h-25.559c-3.703,32.305-31.199,57.48-64.478,57.48s-60.775-25.176-64.479-57.48
	h-25.559c-3.462,17.578-18.953,30.838-37.546,30.838c-2.175,0-4.304-0.191-6.38-0.541v198.299h267.926v-198.3
	c-2.076,0.35-4.205,0.541-6.38,0.541C364.99,225.398,349.499,212.139,346.037,194.561z"/>
<circle style="fill:#FFFFFF;" cx="256" cy="187.12" r="65.918"/>
<path style="fill:#EEF6FF;" d="M204.106,187.123c0-34.039,25.798-62.046,58.907-65.547c-2.306-0.244-4.645-0.371-7.014-0.371
	c-36.405,0-65.918,29.511-65.918,65.918c0,36.405,29.513,65.918,65.918,65.918c2.369,0,4.708-0.128,7.014-0.372
	C229.904,249.167,204.106,221.159,204.106,187.123z"/>
<path style="fill:#232323;" d="M312.586,179.361l9.259,4.718c-0.778-17.112-8.081-32.526-19.479-43.808l-2.163,13.669
	l-30.901-20.334l10.809-7.854c-7.468-2.936-15.601-4.548-24.109-4.548s-16.642,1.612-24.109,4.548l10.809,7.854l-30.587,20.129
	l-2.179-13.755c-11.612,11.348-19.048,26.947-19.786,44.286l9.316-4.747l12.848,40.707l-14.607-2.315
	c7.425,14.027,19.761,25.052,34.722,30.784l-1.537-9.709h50.17l-1.542,9.732c14.971-5.721,27.319-16.739,34.757-30.765
	l-14.598,2.312L312.586,179.361z M295.384,220.945l-8.944,1.417l-15.066-15.065l7.384-22.725l20.653-11.923l9.663,4.922
	L295.384,220.945z M299.533,158.156l-1.731,10.932l-19.87,11.473l-19.988-14.522V141.86l7.995-5.809L299.533,158.156z
	 M246.061,136.051l7.994,5.809v24.179l-19.908,14.464l-19.585-11.309l-1.782-11.244L246.061,136.051z M202.977,177.73l9.875-5.032
	l20.349,11.748l7.354,22.631L225.34,222.29l-8.734-1.383L202.977,177.73z M230.271,235.097l-1.674-10.564l14.913-14.913h24.69
	l15.115,15.117l-1.641,10.36L230.271,235.097L230.271,235.097z"/>
<path style="fill:#445EA0;" d="M291.085,33.021h-70.17c-4.142,0-7.5-3.357-7.5-7.5s3.358-7.5,7.5-7.5h70.17
	c4.143,0,7.5,3.357,7.5,7.5S295.228,33.021,291.085,33.021z"/>
<path style="fill:#AEC1ED;" d="M333.082,85.588c0,7.928-6.428,14.353-14.354,14.353H193.271c-7.928,0-14.354-6.425-14.354-14.353
	l0,0c0-7.928,6.426-14.354,14.354-14.354h125.457C326.654,71.234,333.082,77.66,333.082,85.588L333.082,85.588z"/>
<path style="fill:#85A0DD;" d="M199.836,85.588c0-7.928,6.426-14.354,14.354-14.354h-20.918c-7.928,0-14.354,6.426-14.354,14.354
	s6.426,14.353,14.354,14.353h20.918C206.262,99.94,199.836,93.516,199.836,85.588z"/>
<path style="fill:#FFD00D;" d="M362.85,333.844c0,1.755-1.434,3.189-3.188,3.189H152.338c-1.754,0-3.189-1.435-3.189-3.189v-9.568
	c0-1.754,1.436-3.189,3.189-3.189h207.324c1.754,0,3.188,1.436,3.188,3.189L362.85,333.844L362.85,333.844z"/>
<g>
	<path style="fill:#FFFFFF;" d="M178.387,308.759c0,1.755-1.435,3.19-3.189,3.19h-9.569c-1.754,0-3.188-1.435-3.188-3.19v-15.316
		c0-1.754,1.434-3.19,3.188-3.19h9.569c1.755,0,3.189,1.436,3.189,3.19V308.759z"/>
	<path style="fill:#FFFFFF;" d="M202.84,308.759c0,1.755-1.436,3.19-3.189,3.19h-9.568c-1.756,0-3.189-1.435-3.189-3.19v-39.77
		c0-1.756,1.434-3.19,3.189-3.19h9.568c1.754,0,3.189,1.435,3.189,3.19V308.759z"/>
</g>
<g>
	<path style="fill:#FFD00D;" d="M227.293,308.759c0,1.755-1.435,3.19-3.188,3.19h-9.569c-1.755,0-3.189-1.435-3.189-3.19v-27.011
		c0-1.756,1.435-3.189,3.189-3.189h9.569c1.754,0,3.188,1.434,3.188,3.189V308.759z"/>
	<path style="fill:#FFD00D;" d="M251.747,308.759c0,1.755-1.435,3.19-3.189,3.19h-9.569c-1.754,0-3.189-1.435-3.189-3.19v-32.328
		c0-1.754,1.436-3.189,3.189-3.189h9.569c1.755,0,3.189,1.435,3.189,3.189V308.759z"/>
	<path style="fill:#FFD00D;" d="M276.201,308.759c0,1.755-1.436,3.19-3.19,3.19h-9.568c-1.756,0-3.19-1.435-3.19-3.19V272.18
		c0-1.756,1.435-3.19,3.19-3.19h9.568c1.754,0,3.19,1.435,3.19,3.19V308.759z"/>
</g>
<g>
	<path style="fill:#445EA0;" d="M300.654,308.759c0,1.755-1.435,3.19-3.189,3.19h-9.569c-1.754,0-3.19-1.435-3.19-3.19v-23.822
		c0-1.754,1.436-3.189,3.19-3.189h9.569c1.755,0,3.189,1.435,3.189,3.189V308.759z"/>
	<path style="fill:#445EA0;" d="M325.107,308.759c0,1.755-1.434,3.19-3.189,3.19h-9.568c-1.754,0-3.189-1.435-3.189-3.19v-44.022
		c0-1.755,1.436-3.189,3.189-3.189h9.568c1.756,0,3.189,1.435,3.189,3.189V308.759z"/>
	<path style="fill:#445EA0;" d="M349.563,308.759c0,1.755-1.436,3.19-3.19,3.19h-9.569c-1.755,0-3.189-1.435-3.189-3.19v-51.465
		c0-1.755,1.435-3.19,3.189-3.19h9.569c1.754,0,3.19,1.436,3.19,3.19V308.759z"/>
</g>
<g>
	<path style="fill:#FFFFFF;" d="M389.963,149.387c-2.076-0.349-4.205-0.539-6.38-0.539c-21.139,0-38.274,17.137-38.274,38.275
		c0,21.14,17.136,38.275,38.274,38.275c2.175,0,4.304-0.191,6.38-0.541V149.387z"/>
	<path style="fill:#FFFFFF;" d="M128.417,148.848c-2.175,0-4.304,0.19-6.38,0.539v75.471c2.076,0.35,4.205,0.541,6.38,0.541
		c21.139,0,38.274-17.136,38.274-38.275C166.691,165.984,149.556,148.848,128.417,148.848z"/>
</g>
<g>
	<path style="fill:#3EB7FF;" d="M224.636,392.32c0,2.338-1.914,4.252-4.253,4.252h-66.981c-2.339,0-4.253-1.914-4.253-4.252v-34.023
		c0-2.34,1.914-4.253,4.253-4.253h66.981c2.339,0,4.253,1.913,4.253,4.253V392.32z"/>
	<path style="fill:#3EB7FF;" d="M362.85,392.32c0,2.338-1.912,4.252-4.252,4.252h-66.98c-2.34,0-4.253-1.914-4.253-4.252v-34.023
		c0-2.34,1.913-4.253,4.253-4.253h66.98c2.34,0,4.252,1.913,4.252,4.253V392.32z"/>
	<path style="fill:#3EB7FF;" d="M278.858,392.32c0,2.338-1.913,4.252-4.252,4.252h-37.213c-2.339,0-4.252-1.914-4.252-4.252v-34.023
		c0-2.34,1.913-4.253,4.252-4.253h37.213c2.339,0,4.252,1.913,4.252,4.253V392.32z"/>
</g>
<g>
	<path style="fill:#2DA1DC;" d="M170,392.32v-34.023c0-2.34,1.914-4.253,4.253-4.253h-20.852c-2.339,0-4.253,1.913-4.253,4.253
		v34.023c0,2.338,1.914,4.252,4.253,4.252h20.852C171.914,396.572,170,394.658,170,392.32z"/>
	<path style="fill:#2DA1DC;" d="M308.216,392.32v-34.023c0-2.34,1.913-4.253,4.253-4.253h-20.852c-2.34,0-4.253,1.913-4.253,4.253
		v34.023c0,2.338,1.913,4.252,4.253,4.252h20.852C310.129,396.572,308.216,394.658,308.216,392.32z"/>
	<path style="fill:#2DA1DC;" d="M253.993,392.32v-34.023c0-2.34,1.913-4.253,4.252-4.253h-20.851c-2.339,0-4.252,1.913-4.252,4.253
		v34.023c0,2.338,1.913,4.252,4.252,4.252h20.851C255.906,396.572,253.993,394.658,253.993,392.32z"/>
</g>
<g>
</g>
<g>
</g>
<g>
</g>
<g>
</g>
<g>
</g>
<g>
</g>
<g>
</g>
<g>
</g>
<g>
</g>
<g>
</g>
<g>
</g>
<g>
</g>
<g>
</g>
<g>
</g>
<g>
</g>
</svg>
