<?xml version="1.0" encoding="iso-8859-1"?>
<!-- Generator: Adobe Illustrator 19.0.0, SVG Export Plug-In . SVG Version: 6.00 Build 0)  -->
<svg version="1.1" id="Capa_1" xmlns="http://www.w3.org/2000/svg" xmlns:xlink="http://www.w3.org/1999/xlink" x="0px" y="0px"
	 viewBox="0 0 512 512" style="enable-background:new 0 0 512 512;" xml:space="preserve">
<circle style="fill:#EF8318;" cx="256" cy="267" r="245"/>
<path style="fill:#FFD00D;" d="M430.58,139.471c1.607-1.567,2.188-3.508,1.597-5.326c-0.59-1.818-2.202-3.045-4.419-3.368
	l-17.052-2.478c-0.749-0.109-1.982-1.005-2.317-1.684l-7.625-15.449c-0.993-2.014-2.657-3.166-4.57-3.166s-3.579,1.152-4.57,3.166
	l-7.627,15.449c-0.333,0.678-1.567,1.574-2.316,1.684l-0.68,0.099v47.395l13.76-7.234c0.232-0.121,0.744-0.263,1.434-0.263
	c0.688,0,1.202,0.142,1.432,0.263l15.251,8.018c0.941,0.494,1.889,0.746,2.814,0.745c1.403,0,2.661-0.574,3.538-1.613
	c0.974-1.152,1.343-2.753,1.042-4.505l-2.912-16.98c-0.128-0.746,0.344-2.196,0.885-2.726L430.58,139.471z"/>
<path style="fill:#FFC987;" d="M184.367,453v48.35C207.027,508.267,231.076,512,256,512s48.973-3.733,71.633-10.651V453H184.367z"/>
<path style="fill:#F2B675;" d="M184.367,453v48.35c10.189,3.11,20.662,5.57,31.367,7.344V453H184.367z"/>
<path style="fill:#293D7C;" d="M176.482,454.294c-13.674,0-25.332-10.669-26.541-24.288l-3.189-35.967
	c-10.771-10.159-16.918-24.328-16.918-39.127V175.309c0-21.468,17.467-38.934,38.936-38.934h10.863c3.194,0,6.347,0.386,9.41,1.148
	c6.768-12.522,19.855-20.435,34.258-20.435h10.865c2.637,0,5.252,0.265,7.814,0.788c6.051-14.349,20.02-23.748,35.856-23.748h10.863
	c1.585,0,3.166,0.096,4.732,0.287v-55.48C293.432,17.466,310.897,0,332.365,0h10.867c21.468,0,38.934,17.466,38.934,38.935v315.978
	c0,14.801-6.147,28.971-16.921,39.129l-3.188,35.963c-1.209,13.62-12.867,24.29-26.541,24.29H176.482V454.294z"/>
<path style="fill:#2E4C89;" d="M343.232,17.102h-10.867c-12.008,0-21.832,9.824-21.832,21.833v138.417H256v-21.328
	c0-12.009-9.824-21.834-21.834-21.834h-10.865c-12.01,0-21.834,9.825-21.834,21.834v99.405c0,12.009-9.826,21.835-21.834,21.835
	H168.77c-12.01,0-21.834-9.826-21.834-21.835v99.483c0,12.619,6.449,23.804,16.213,30.424l3.828,43.158
	c0.424,4.784,4.701,8.699,9.506,8.699h159.033c4.805,0,9.082-3.915,9.506-8.699l3.828-43.155
	c9.767-6.619,16.217-17.806,16.217-30.427V38.935C365.066,26.926,355.24,17.102,343.232,17.102z M286.903,277.264h-9.067
	c-12.01,0-21.836-9.826-21.836-21.835v-23.545h54.533L286.903,277.264z"/>
<g>
	<path style="fill:#293D7C;" d="M198.159,428.494l-3.269-36.849c0,0-27.021-16.529-27.021-36.733V277.24
		c-11.596-0.477-20.934-10.104-20.934-21.812v99.483c0,12.62,6.45,23.806,16.216,30.426c-0.001-0.001-0.002-0.002-0.003-0.002
		l3.828,43.158c0.424,4.784,4.701,8.699,9.506,8.699h31.183C202.86,437.193,198.583,433.278,198.159,428.494z"/>
	<path style="fill:#293D7C;" d="M331.467,177.352V38.935c0-10.277,7.197-18.948,16.799-21.237c-1.618-0.385-3.302-0.596-5.033-0.596
		h-10.867c-12.008,0-21.832,9.824-21.832,21.833v138.417H331.467z"/>
</g>
<path id="SVGCleanerId_0" style="fill:#293D7C;" d="M201.467,255.429c0,12.009-9.826,21.835-21.834,21.835H168.77
	c-12.01,0-21.834-9.826-21.834-21.835v-80.12c0-12.009,9.824-21.834,21.834-21.834h10.863c12.008,0,21.834,9.825,21.834,21.834
	L201.467,255.429L201.467,255.429z"/>
<g>
	<path id="SVGCleanerId_0_1_" style="fill:#293D7C;" d="M201.467,255.429c0,12.009-9.826,21.835-21.834,21.835H168.77
		c-12.01,0-21.834-9.826-21.834-21.835v-80.12c0-12.009,9.824-21.834,21.834-21.834h10.863c12.008,0,21.834,9.825,21.834,21.834
		L201.467,255.429L201.467,255.429z"/>
</g>
<path style="fill:#1A2B63;" d="M167.469,255.429v-80.12c0-10.348,7.297-19.068,16.999-21.284c-1.558-0.355-3.174-0.55-4.835-0.55
	H168.77c-12.01,0-21.834,9.825-21.834,21.834v80.12c0,12.009,9.824,21.835,21.834,21.835h10.863c1.661,0,3.277-0.194,4.835-0.55
	C174.766,274.498,167.469,265.776,167.469,255.429z"/>
<g>
	<path style="fill:#293D7C;" d="M222.467,177.373v-21.35c0-10.266,7.181-18.929,16.767-21.23c-1.628-0.391-3.323-0.604-5.067-0.604
		h-10.865c-12.01,0-21.834,9.825-21.834,21.834v43.162C201.467,187.456,210.84,177.815,222.467,177.373z"/>
	<path style="fill:#293D7C;" d="M222.467,255.429v-23.566c-11.627-0.442-21-10.083-21-21.812v45.378
		c0,12.009,9.824,21.835,21.834,21.835h10.865c1.744,0,3.439-0.213,5.067-0.604C229.648,274.358,222.467,265.693,222.467,255.429z"
		/>
	<path style="fill:#293D7C;" d="M310.533,231.884H256v23.545c0,12.009,9.826,21.835,21.836,21.835h9.067L310.533,231.884z"/>
	<path style="fill:#293D7C;" d="M310.533,177.352v-44.288c0-12.009-9.824-21.833-21.834-21.833h-10.863
		c-12.01,0-21.836,9.824-21.836,21.833v44.288H310.533z"/>
</g>
<g>
	<path style="fill:#1A2B63;" d="M277,177.352v-44.288c0-10.265,7.182-18.928,16.768-21.23c-1.629-0.391-3.324-0.604-5.068-0.604
		h-10.863c-12.01,0-21.836,9.824-21.836,21.833v44.288L277,177.352L277,177.352z"/>
	<path style="fill:#1A2B63;" d="M288.326,274.53C281.593,270.801,277,263.631,277,255.429v-23.545h-21v23.545
		c0,12.009,9.826,21.835,21.836,21.835h9.067L288.326,274.53z"/>
</g>
<path style="fill:#293D7C;" d="M233,210.051v-10.865c0-12.009,9.824-21.834,21.834-21.834h-31.533
	c-12.01,0-21.834,9.825-21.834,21.834v10.865c0,12.008,9.824,21.833,21.834,21.833h31.533C242.824,231.884,233,222.059,233,210.051z
	"/>
<g>
	<path style="fill:#3EB7FF;" d="M343.232,12.102h-10.867c-14.795,0-26.832,12.037-26.832,26.833v73.254
		c-4.607-3.723-10.463-5.958-16.834-5.958h-10.863c-14.798,0-26.836,12.037-26.836,26.833v2.085
		c-4.607-3.723-10.463-5.959-16.834-5.959h-10.865c-14.274,0-25.979,11.205-26.786,25.281c-4.614-3.746-10.489-5.996-16.882-5.996
		H168.77c-14.796,0-26.834,12.038-26.834,26.834v179.604c0,13.507,6.455,25.529,16.437,33.162l3.624,40.861
		c0.648,7.311,7.146,13.258,14.486,13.258h159.033c7.34,0,13.839-5.947,14.486-13.258l3.625-40.859
		c9.983-7.633,16.439-19.656,16.439-33.164V38.935C370.066,24.139,358.028,12.102,343.232,12.102z M261,156.023v-22.96
		c0-9.282,7.553-16.833,16.836-16.833h10.863c9.282,0,16.834,7.551,16.834,16.833v39.288H261V156.023z M206.467,175.309v-19.285
		c0-9.282,7.552-16.834,16.834-16.834h10.865c9.282,0,16.834,7.552,16.834,16.834v16.328h-27.699
		c-6.371,0-12.227,2.236-16.834,5.959V175.309z M206.467,230.926c4.607,3.723,10.463,5.958,16.834,5.958H251v18.545
		c0,9.283-7.552,16.835-16.834,16.835h-10.865c-9.282,0-16.834-7.552-16.834-16.835V230.926z M151.936,175.309
		c0-9.282,7.552-16.834,16.834-16.834h10.863c9.282,0,16.834,7.552,16.834,16.834v23.877v10.865v45.378
		c0,9.283-7.552,16.835-16.834,16.835H168.77c-9.282,0-16.834-7.552-16.834-16.835V175.309z M340.041,428.053
		c-0.195,2.206-2.31,4.141-4.525,4.141H176.482c-2.215,0-4.33-1.935-4.525-4.141l-3.024-34.103
		c4.585,1.737,9.551,2.695,14.737,2.695h144.662c5.186,0,10.149-0.958,14.733-2.694L340.041,428.053z M360.066,354.912
		c0,17.498-14.236,31.733-31.734,31.733H183.67c-17.498,0-31.734-14.235-31.734-31.733v-78.607
		c4.607,3.723,10.463,5.959,16.834,5.959h10.863c8.994,0,16.963-4.453,21.834-11.265c4.871,6.811,12.84,11.265,21.834,11.265h10.865
		c8.994,0,16.963-4.453,21.834-11.265c4.872,6.811,12.841,11.265,21.836,11.265h0.826l-2.995,5.752
		c-1.275,2.449-0.324,5.469,2.125,6.744c0.738,0.385,1.527,0.566,2.306,0.566c1.805,0,3.548-0.98,4.438-2.691l30.432-58.441
		c0.808-1.55,0.747-3.409-0.16-4.903c-0.906-1.494-2.527-2.406-4.274-2.406h-87.232c-9.282,0-16.834-7.551-16.834-16.833v-10.865
		c0-9.282,7.552-16.834,16.834-16.834h119.932c9.282,0,16.834,7.552,16.834,16.834v155.725H360.066z M261,255.429v-18.545h41.292
		l-18.423,35.38h-6.033C268.553,272.264,261,264.712,261,255.429z M360.066,178.311c-4.607-3.723-10.463-5.959-16.834-5.959h-27.699
		v-39.288V38.935c0-9.281,7.551-16.833,16.832-16.833h10.867c9.282,0,16.834,7.552,16.834,16.833L360.066,178.311L360.066,178.311z"
		/>
	<path style="fill:#3EB7FF;" d="M255.625,355.672h-11.059l10.259-58.171c0.41-2.33-0.586-4.684-2.545-6.01
		c-1.957-1.327-4.513-1.378-6.524-0.133l-16.402,10.163c-2.816,1.746-3.686,5.444-1.94,8.261s5.441,3.686,8.261,1.94l5.005-3.102
		l-8.298,47.051h-13.176c-3.313,0-6,2.686-6,6s2.687,6,6,6h36.42c3.314,0,6-2.686,6-6S258.939,355.672,255.625,355.672z"/>
	<path style="fill:#3EB7FF;" d="M217.834,327.277c3.314,0,6-2.687,6-6s-2.686-6-6-6h-4.727l0.853-4.837
		c0.575-3.264-1.604-6.375-4.867-6.951c-3.265-0.565-6.375,1.605-6.951,4.867l-1.221,6.921h-8.471l0.854-4.837
		c0.575-3.263-1.604-6.375-4.867-6.951c-3.266-0.565-6.375,1.605-6.951,4.867l-1.221,6.921h-6.845c-3.314,0-6,2.687-6,6s2.686,6,6,6
		h4.729l-1.527,8.656h-6.844c-3.313,0-6,2.686-6,6s2.687,6,6,6h4.728l-0.854,4.839c-0.575,3.263,1.604,6.375,4.867,6.951
		c0.352,0.062,0.703,0.092,1.049,0.092c2.857,0,5.389-2.048,5.902-4.959l1.221-6.923h8.473l-0.854,4.839
		c-0.575,3.264,1.604,6.375,4.867,6.951c0.352,0.062,0.703,0.092,1.049,0.092c2.857,0,5.389-2.048,5.902-4.959l1.221-6.923h6.843
		c3.313,0,6-2.686,6-6s-2.687-6-6-6h-4.727l1.526-8.656L217.834,327.277L217.834,327.277z M197.279,335.934h-8.472l1.526-8.656
		h8.471L197.279,335.934z"/>
</g>
<g>
	<path style="fill:#FFFFFF;" d="M237.243,91.32c-0.686,0.001-1.387-0.185-2.084-0.552l-11.291-5.936
		c-0.17-0.09-0.55-0.194-1.06-0.194c-0.511,0-0.89,0.104-1.061,0.194l-11.289,5.936c-0.697,0.366-1.398,0.552-2.084,0.552
		c-1.039,0-1.971-0.425-2.619-1.194c-0.721-0.854-0.994-2.038-0.771-3.335l2.156-12.571c0.094-0.553-0.256-1.626-0.656-2.018
		l-9.133-8.903c-1.189-1.16-1.621-2.597-1.183-3.942c0.437-1.346,1.631-2.255,3.274-2.494l12.621-1.834
		c0.555-0.081,1.469-0.745,1.715-1.247l5.646-11.438c0.734-1.49,1.968-2.344,3.384-2.344s2.648,0.854,3.384,2.344l5.645,11.438
		c0.248,0.503,1.161,1.166,1.716,1.247l12.624,1.834c1.642,0.239,2.835,1.147,3.271,2.493c0.439,1.347,0.008,2.783-1.182,3.943
		l-9.134,8.903c-0.4,0.392-0.75,1.465-0.655,2.018l2.156,12.571c0.223,1.297-0.051,2.481-0.771,3.335
		C239.213,90.896,238.282,91.32,237.243,91.32z"/>
	<path style="fill:#FFFFFF;" d="M473.243,269c-0.686,0.001-1.387-0.185-2.084-0.552l-11.291-5.936c-0.17-0.09-0.55-0.194-1.06-0.194
		c-0.511,0-0.89,0.105-1.061,0.194l-11.289,5.936c-0.697,0.366-1.398,0.552-2.084,0.552c-1.039,0-1.971-0.425-2.619-1.194
		c-0.721-0.854-0.994-2.038-0.772-3.335l2.156-12.571c0.094-0.553-0.256-1.626-0.656-2.018l-9.133-8.903
		c-1.189-1.16-1.621-2.597-1.183-3.942c0.436-1.346,1.631-2.255,3.274-2.494l12.621-1.834c0.555-0.081,1.469-0.745,1.715-1.247
		l5.647-11.438c0.734-1.49,1.968-2.344,3.384-2.344c1.416,0,2.648,0.854,3.384,2.344l5.645,11.438
		c0.248,0.503,1.161,1.166,1.716,1.247l12.624,1.834c1.642,0.239,2.835,1.147,3.271,2.493c0.438,1.347,0.008,2.783-1.182,3.943
		l-9.134,8.903c-0.4,0.392-0.75,1.465-0.655,2.018l2.156,12.571c0.223,1.297-0.051,2.481-0.771,3.335
		C475.213,268.575,474.282,269,473.243,269z"/>
</g>
<path style="fill:#FFD00D;" d="M98.243,128.32c-0.686,0.001-1.387-0.186-2.084-0.552l-11.291-5.936
	c-0.17-0.09-0.55-0.194-1.06-0.194c-0.511,0-0.89,0.104-1.062,0.194l-11.289,5.936c-0.697,0.366-1.398,0.552-2.084,0.552
	c-1.039,0-1.971-0.425-2.619-1.194c-0.721-0.854-0.994-2.038-0.771-3.335l2.156-12.571c0.094-0.553-0.256-1.626-0.656-2.018
	l-9.133-8.903c-1.19-1.16-1.621-2.597-1.183-3.942c0.437-1.346,1.631-2.255,3.274-2.494l12.621-1.834
	c0.555-0.081,1.469-0.745,1.715-1.247l5.646-11.438c0.736-1.49,1.97-2.344,3.386-2.344s2.648,0.854,3.384,2.344l5.645,11.438
	c0.248,0.503,1.161,1.166,1.716,1.247l12.624,1.834c1.642,0.239,2.835,1.148,3.271,2.493c0.439,1.347,0.008,2.783-1.182,3.943
	l-9.134,8.903c-0.4,0.392-0.75,1.465-0.655,2.018l2.156,12.571c0.223,1.297-0.051,2.481-0.771,3.335
	C100.213,127.896,99.282,128.32,98.243,128.32z"/>
<path style="fill:#FFFFFF;" d="M94.088,272c-0.992,0.001-2.007-0.269-3.017-0.799l-16.345-8.593
	c-0.246-0.13-0.796-0.281-1.534-0.281c-0.739,0-1.288,0.151-1.536,0.281l-16.343,8.593c-1.01,0.53-2.024,0.799-3.017,0.799
	c-1.505,0-2.854-0.615-3.792-1.729c-1.043-1.235-1.439-2.95-1.116-4.827l3.121-18.199c0.136-0.8-0.37-2.354-0.95-2.92
	l-13.221-12.889c-1.722-1.68-2.347-3.76-1.712-5.707c0.632-1.949,2.36-3.265,4.74-3.611l18.271-2.654
	c0.803-0.117,2.126-1.079,2.482-1.806l8.174-16.558c1.063-2.157,2.849-3.393,4.898-3.393c2.05,0,3.834,1.235,4.898,3.393
	l8.171,16.558c0.359,0.728,1.682,1.689,2.484,1.806l18.275,2.654c2.376,0.347,4.104,1.661,4.735,3.609
	c0.635,1.949,0.012,4.029-1.711,5.709l-13.222,12.889c-0.58,0.566-1.086,2.12-0.949,2.92l3.122,18.199
	c0.322,1.877-0.074,3.592-1.117,4.827C96.939,271.385,95.593,272,94.088,272z"/>
<g>
</g>
<g>
</g>
<g>
</g>
<g>
</g>
<g>
</g>
<g>
</g>
<g>
</g>
<g>
</g>
<g>
</g>
<g>
</g>
<g>
</g>
<g>
</g>
<g>
</g>
<g>
</g>
<g>
</g>
</svg>
