<?xml version="1.0" encoding="iso-8859-1"?>
<!-- Generator: Adobe Illustrator 19.0.0, SVG Export Plug-In . SVG Version: 6.00 Build 0)  -->
<svg version="1.1" id="Capa_1" xmlns="http://www.w3.org/2000/svg" xmlns:xlink="http://www.w3.org/1999/xlink" x="0px" y="0px"
	 viewBox="0 0 512 512" style="enable-background:new 0 0 512 512;" xml:space="preserve">
<circle style="fill:#FFAF10;" cx="256" cy="256" r="245"/>
<path style="fill:#FE3745;" d="M507.607,217c2.828-7.39,4.393-15.404,4.393-23.789c0-16.265-5.839-31.16-15.524-42.724v-38.163
	c-6.772,21.762-27.103,37.605-51.065,37.605c-23.963,0-44.293-15.847-51.063-37.611v38.172
	c-9.685,11.563-15.522,26.457-15.522,42.721c0,8.385,1.564,16.4,4.393,23.789H507.607z"/>
<path style="fill:#EA2A3D;" d="M411.521,150.49v-12.717c-7.978-6.557-14.035-15.366-17.174-25.455v38.172
	c-9.685,11.563-15.522,26.457-15.522,42.721c0,8.006,1.415,15.68,4.005,22.789h17.174c-2.59-7.109-4.005-14.783-4.005-22.789
	C396,176.947,401.837,162.053,411.521,150.49z"/>
<g>
	<path style="fill:#293D7C;" d="M416.861,145.632c-0.885-1.278-1.461-2.69-1.727-4.136v75.707h9.176v-60.816L416.861,145.632z"/>
	<path style="fill:#293D7C;" d="M441.436,188.807v-10.603c-1.821-0.77-3.435-2.05-4.61-3.747l-4.564-6.59v23.049
		C434.874,189.879,438.015,189.136,441.436,188.807z"/>
	<path style="fill:#293D7C;" d="M432.262,205.699v11.504h9.175v-9.396C438.015,207.478,434.874,206.735,432.262,205.699z"/>
	<path style="fill:#293D7C;" d="M458.563,190.916v-23.049L454,174.456c-1.178,1.697-2.791,2.977-4.611,3.747v10.604
		C452.809,189.137,455.951,189.88,458.563,190.916z"/>
	<path style="fill:#293D7C;" d="M449.389,207.808v9.396h9.175v-11.505C455.951,206.734,452.809,207.478,449.389,207.808z"/>
	<path style="fill:#293D7C;" d="M473.967,145.628l-7.452,10.76v60.815h9.176v-75.707
		C475.425,142.94,474.849,144.352,473.967,145.628z"/>
</g>
<ellipse style="fill:#FFFFFF;" cx="445.41" cy="198.31" rx="21.606" ry="10.692"/>
<path style="fill:#EEF6FF;" d="M434,198.308c0-5.035,7.041-9.246,16.508-10.382c-1.637-0.196-3.338-0.312-5.097-0.312
	c-11.932,0-21.604,4.788-21.604,10.693c0,5.907,9.673,10.692,21.604,10.692c1.759,0,3.46-0.115,5.097-0.311
	C441.041,207.554,434,203.344,434,198.308z"/>
<path style="fill:#FFFFFF;" d="M445.411,149.93c-11.3,0-21.784-3.533-30.428-9.539c-0.147,2.28,0.486,4.62,1.878,6.631
	l19.965,28.825c1.983,2.862,5.194,4.572,8.585,4.572c3.394,0,6.603-1.71,8.589-4.573l19.967-28.828
	c1.389-2.008,2.023-4.348,1.875-6.628C467.197,146.396,456.712,149.93,445.411,149.93z"/>
<path style="fill:#DAA56B;" d="M445.411,149.93c-6.091,0-11.941-1.038-17.4-2.923l16.357,23.613c0.574,0.831,1.516,0.831,2.09,0
	l16.357-23.613C457.353,148.892,451.503,149.93,445.411,149.93z"/>
<circle style="fill:#FFC987;" cx="445.41" cy="96.47" r="54.46"/>
<path style="fill:#F2B675;" d="M407.071,96.466c0-27.341,20.146-49.972,46.401-53.868C450.841,42.207,448.151,42,445.41,42
	c-30.078,0-54.463,24.385-54.463,54.466c0,30.079,24.385,54.464,54.463,54.464c2.74,0,5.431-0.207,8.062-0.598
	C427.218,146.435,407.071,123.805,407.071,96.466z"/>
<path style="fill:#823329;" d="M444.231,42.027c1.601,28.645,25.327,51.379,54.37,51.379c0.38,0,0.754-0.022,1.132-0.029
	C498.131,64.733,474.406,42,445.362,42C444.982,42,444.608,42.023,444.231,42.027z"/>
<path style="fill:#994334;" d="M391.092,92.052c3.877,0.876,7.902,1.354,12.045,1.354c28.594,0,52.022-22.039,54.271-50.052
	C453.532,42.478,449.504,42,445.362,42C416.768,42,393.34,64.039,391.092,92.052z"/>
<g>
	<circle style="fill:#232323;" cx="445.41" cy="127.63" r="6.873"/>
	<path style="fill:#232323;" d="M419.756,116.361c-4.799,0-8.705-3.904-8.705-8.705c0-4.799,3.906-8.704,8.705-8.704
		c4.801,0,8.704,3.905,8.704,8.704C428.46,112.457,424.556,116.361,419.756,116.361z"/>
	<path style="fill:#232323;" d="M471.068,116.361c-4.801,0-8.704-3.904-8.704-8.705c0-4.799,3.903-8.704,8.704-8.704
		s8.705,3.905,8.705,8.704C479.773,112.457,475.869,116.361,471.068,116.361z"/>
</g>
<path style="fill:#FFFFFF;" d="M481.818,175.418c0-1.155,0.944-2.1,2.1-2.1h11.909c1.157,0,2.101,0.944,2.101,2.1v10.056
	c0,1.155-0.707,2.728-1.572,3.493l-4.909,4.344c-0.865,0.766-2.281,0.766-3.147,0l-4.909-4.344
	c-0.865-0.766-1.572-2.338-1.572-3.493v-10.056H481.818z"/>
<path style="fill:#FE3745;" d="M242.66,349.063h109.816c19.914-16.051,32.659-40.64,32.659-68.21
	c0-21.393-7.675-40.99-20.416-56.197v-49.189c-9.222,28.283-35.831,48.784-67.152,48.784s-57.932-20.502-67.153-48.786v49.193
	C217.674,239.866,210,259.462,210,280.853C210,308.424,222.744,333.013,242.66,349.063z"/>
<path style="fill:#EA2A3D;" d="M235.836,309.58c-3.126-9-4.836-18.662-4.836-28.727c0-21.392,7.674-40.987,20.414-56.195v-17.642
	c-9.618-8.325-16.97-19.19-21-31.552v49.193C217.674,239.866,210,259.462,210,280.853c0,10.063,1.703,19.728,4.827,28.727H235.836z"
	/>
<g>
	<path style="fill:#293D7C;" d="M269.816,309.58v-76.356l-9.797-14.143c-1.174-1.695-1.926-3.57-2.27-5.488v95.988L269.816,309.58
		L269.816,309.58z"/>
	<path style="fill:#293D7C;" d="M292.338,274.252v-12.338c-2.395-1.013-4.515-2.694-6.061-4.926l-6.004-8.668v28.695
		C283.723,275.656,287.853,274.684,292.338,274.252z"/>
	<path style="fill:#293D7C;" d="M280.273,297.11v12.47h12.065v-9.707C287.853,299.441,283.723,298.47,280.273,297.11z"/>
	<path style="fill:#293D7C;" d="M302.797,299.873v9.707h12.064v-12.471C311.412,298.469,307.281,299.44,302.797,299.873z"/>
	<path style="fill:#293D7C;" d="M314.861,277.016v-28.694l-6.002,8.665c-1.548,2.232-3.669,3.914-6.063,4.928v12.338
		C307.281,274.685,311.412,275.656,314.861,277.016z"/>
	<path style="fill:#293D7C;" d="M337.385,309.58v-95.992c-0.344,1.918-1.094,3.793-2.266,5.487l-9.801,14.149v76.355h12.067V309.58z
		"/>
</g>
<ellipse style="fill:#FFFFFF;" cx="297.57" cy="287.06" rx="28.415" ry="14.06"/>
<path style="fill:#EEF6FF;" d="M279.17,287.063c0-6.92,10.103-12.669,23.405-13.841c-1.627-0.144-3.299-0.223-5.009-0.223
	c-15.691,0-28.414,6.297-28.414,14.063c0,7.767,12.723,14.062,28.414,14.062c1.71,0,3.382-0.079,5.009-0.223
	C289.273,299.731,279.17,293.983,279.17,287.063z"/>
<path style="fill:#FFFFFF;" d="M297.566,224.251c-14.855,0-28.645-4.62-40.03-12.484c-0.104,2.88,0.729,5.812,2.483,8.345
	l26.258,37.908c2.608,3.764,6.828,6.012,11.289,6.012c4.463,0,8.682-2.248,11.293-6.014l26.26-37.911
	c1.75-2.53,2.582-5.46,2.479-8.34C326.211,219.631,312.421,224.251,297.566,224.251z"/>
<path style="fill:#DAA56B;" d="M297.566,224.251c-7.897,0-15.486-1.322-22.582-3.724l21.209,30.619c0.754,1.092,1.992,1.092,2.748,0
	l21.209-30.62C313.054,222.929,305.464,224.251,297.566,224.251z"/>
<circle style="fill:#FFC987;" cx="297.57" cy="153.63" r="71.62"/>
<path style="fill:#F2B675;" d="M246.75,153.627c0-1.415,0.056-2.816,0.136-4.212c-1.626,0.11-3.261,0.187-4.914,0.187
	c-5.426,0-10.698-0.625-15.777-1.766c-0.153,1.912-0.253,3.84-0.253,5.791c0,39.557,32.068,71.624,71.625,71.624
	c3.535,0,7.007-0.267,10.404-0.761C273.347,219.449,246.75,189.648,246.75,153.627z"/>
<path d="M312.073,83.496c-0.962,9.733-3.858,18.896-8.319,27.089c11.863,23.159,35.952,39.017,63.762,39.017
	c0.5,0,0.99-0.028,1.488-0.037C367.172,116.822,343.355,89.964,312.073,83.496z"/>
<path style="fill:#232323;" d="M226.13,147.822c5.099,1.15,10.393,1.779,15.841,1.779c37.602,0,68.413-28.982,71.37-65.82
	C308.244,82.63,302.947,82,297.502,82C259.898,82,229.086,110.982,226.13,147.822z"/>
<g>
	<circle style="fill:#823329;" cx="297.57" cy="194.61" r="9.04"/>
	<path style="fill:#823329;" d="M263.826,179.791c-6.311,0-11.447-5.135-11.447-11.447c0-6.312,5.136-11.447,11.447-11.447
		c6.314,0,11.447,5.136,11.447,11.447C275.273,174.656,270.14,179.791,263.826,179.791z"/>
	<path style="fill:#823329;" d="M331.306,179.791c-6.313,0-11.447-5.135-11.447-11.447c0-6.312,5.135-11.447,11.447-11.447
		c6.315,0,11.447,5.136,11.447,11.447C342.754,174.656,337.621,179.791,331.306,179.791z"/>
</g>
<path style="fill:#FFFFFF;" d="M345.443,257.455c0-1.519,1.242-2.762,2.762-2.762h15.662c1.521,0,2.762,1.243,2.762,2.762v13.224
	c0,1.52-0.93,3.588-2.068,4.595l-6.455,5.711c-1.139,1.008-3,1.008-4.139,0l-6.455-5.711c-1.139-1.007-2.068-3.075-2.068-4.595
	v-13.224H345.443z"/>
<path style="fill:#EA2A3D;" d="M212.646,362.355c0.002-0.153,0.006-0.307,0.006-0.461c0-24.73-8.873-47.387-23.602-64.969v-56.387
	c-10.813,32.535-41.518,56.073-77.636,56.073s-66.823-23.538-77.635-56.073v56.388c-14.729,17.582-23.601,40.237-23.601,64.968
	c0,0.154,0.003,0.308,0.006,0.461L212.646,362.355L212.646,362.355z"/>
<path style="fill:#B7092B;" d="M31.005,362.355c-0.002-0.153-0.005-0.307-0.005-0.461c0-24.73,8.872-47.386,23.601-64.968v-23.345
	c-9.39-9.079-16.612-20.375-20.822-33.043v56.388c-14.729,17.582-23.601,40.237-23.601,64.968c0,0.154,0.003,0.308,0.006,0.461
	L31.005,362.355L31.005,362.355z"/>
<g>
	<path style="fill:#293D7C;" d="M79.331,362.355v-55.543L68.005,290.46c-1.357-1.962-2.226-4.132-2.623-6.351v78.246L79.331,362.355
		L79.331,362.355z"/>
	<path style="fill:#293D7C;" d="M105.37,354.766v-14.768c-2.771-1.171-5.22-3.129-7.009-5.711l-6.94-10.02v33.611
		C95.397,356.338,100.159,355.247,105.37,354.766z"/>
	<path style="fill:#293D7C;" d="M131.409,357.879v-33.612l-6.938,10.018c-1.791,2.583-4.24,4.542-7.01,5.714v14.768
		C122.671,355.247,127.432,356.338,131.409,357.879z"/>
	<path style="fill:#293D7C;" d="M157.448,362.355v-78.252c-0.396,2.22-1.264,4.391-2.621,6.352l-11.329,16.357v55.543H157.448z"/>
</g>
<g>
	<path style="fill:#FFFFFF;" d="M140.674,362.355c-5.438-5.264-16.494-8.869-29.26-8.869c-12.765,0-23.821,3.605-29.258,8.869
		H140.674z"/>
	<path style="fill:#FFFFFF;" d="M111.414,296.612c-17.17,0-33.112-5.328-46.285-14.401c-0.077,3.269,0.887,6.586,2.875,9.459
		l30.356,43.827c3.016,4.351,7.896,6.95,13.053,6.95c5.158,0,10.038-2.6,13.056-6.953l30.357-43.829
		c1.986-2.87,2.95-6.186,2.873-9.455C144.527,291.284,128.584,296.612,111.414,296.612z"/>
</g>
<path style="fill:#DAA56B;" d="M111.414,296.612c-9.073,0-17.795-1.507-25.958-4.246l24.37,35.185c0.874,1.262,2.303,1.262,3.177,0
	l24.37-35.186C129.21,295.105,120.487,296.612,111.414,296.612z"/>
<circle style="fill:#FFC987;" cx="111.41" cy="214.81" r="82.81"/>
<path style="fill:#F2B675;" d="M49.389,214.807c0-1.582,0.059-3.15,0.146-4.71c-0.798,0.022-1.592,0.058-2.395,0.058
	c-6.272,0-12.368-0.723-18.239-2.042c-0.177,2.211-0.292,4.439-0.292,6.694c0,45.732,37.073,82.806,82.805,82.806
	c3.521,0,6.984-0.245,10.39-0.672C80.979,291.826,49.389,257.018,49.389,214.807z"/>
<path style="fill:#A05F33;" d="M127.92,133.671c-1.01,11.269-4.277,21.881-9.343,31.395c13.719,26.764,41.561,45.089,73.706,45.089
	c0.578,0,1.146-0.033,1.719-0.044C191.879,172.165,164.216,141.051,127.92,133.671z"/>
<path style="fill:#BF7E52;" d="M28.827,208.097c5.893,1.33,12.015,2.058,18.313,2.058c43.472,0,79.093-33.506,82.511-76.096
	c-5.892-1.332-12.017-2.059-18.313-2.059C67.867,132,32.244,165.506,28.827,208.097z"/>
<g>
	<circle style="fill:#293D7C;" cx="111.41" cy="262.19" r="10.449"/>
	<path style="fill:#293D7C;" d="M72.407,245.056c-7.297,0-13.234-5.936-13.234-13.233s5.937-13.234,13.234-13.234
		c7.299,0,13.235,5.938,13.235,13.234C85.641,239.12,79.705,245.056,72.407,245.056z"/>
	<path style="fill:#293D7C;" d="M150.422,245.056c-7.299,0-13.235-5.936-13.235-13.233s5.936-13.234,13.235-13.234
		c7.297,0,13.233,5.938,13.233,13.234C163.656,239.12,157.72,245.056,150.422,245.056z"/>
</g>
<path style="fill:#FFFFFF;" d="M176.619,362.046c0.14,0.124,0.301,0.214,0.459,0.31h3.866c0.158-0.096,0.319-0.186,0.46-0.31
	l7.463-6.603c1.315-1.164,2.392-3.555,2.392-5.312v-15.287c0-1.757-1.437-3.193-3.194-3.193h-18.108
	c-1.756,0-3.194,1.436-3.194,3.193v15.287c0,1.757,1.076,4.147,2.393,5.312L176.619,362.046z"/>
<path style="fill:#EEF6FF;" d="M176.619,362.046c0.14,0.124,0.301,0.214,0.459,0.31h3.866c0.158-0.096,0.319-0.186,0.46-0.31
	l2.726-2.412l-4.737-4.19c-1.316-1.164-2.393-3.555-2.393-5.312v-15.287c0-1.757,1.438-3.193,3.194-3.193h-10.237
	c-1.756,0-3.194,1.436-3.194,3.193v15.287c0,1.757,1.076,4.147,2.393,5.312L176.619,362.046z"/>
<path style="fill:#FE3745;" d="M221.554,363.019c-0.949-1.059-2.303-1.663-3.724-1.663H5c-1.421,0-2.775,0.604-3.724,1.663
	c-0.948,1.059-1.401,2.472-1.246,3.884c3.006,27.308,15.979,52.509,36.531,70.961c1.594,1.431,3.228,2.807,4.89,4.137h139.928
	c1.663-1.33,3.296-2.706,4.89-4.137c20.551-18.452,33.525-43.653,36.531-70.961C222.955,365.49,222.502,364.077,221.554,363.019z"/>
<g>
	<rect x="60.45" y="361.36" style="fill:#1A2B63;" width="15.442" height="35.527"/>
	<path style="fill:#1A2B63;" d="M89.281,378.246v18.637h15.442v-15.191C98.957,381.158,93.687,379.95,89.281,378.246z"/>
	<path style="fill:#1A2B63;" d="M118.107,381.69v15.192h15.442v-18.637C129.142,379.95,123.872,381.157,118.107,381.69z"/>
	<rect x="146.93" y="361.36" style="fill:#1A2B63;" width="15.443" height="35.527"/>
</g>
<path style="fill:#EA2A3D;" d="M7.253,395.883h21c-3.669-9.225-6.12-18.959-7.223-28.98c-0.156-1.412,0.297-2.825,1.246-3.884
	s2.303-1.663,3.724-1.663H5c-1.421,0-2.775,0.604-3.724,1.663c-0.948,1.059-1.401,2.472-1.246,3.884
	C1.133,376.924,3.584,386.658,7.253,395.883z"/>
<path style="fill:#2E4C89;" d="M36.561,437.863c1.594,1.431,3.228,2.807,4.89,4.137h139.928c1.663-1.33,3.296-2.706,4.89-4.137
	c13.01-11.681,22.978-26.068,29.308-41.98H7.253C13.583,411.795,23.551,426.183,36.561,437.863z"/>
<path style="fill:#EEF6FF;" d="M75.049,365.003c0,9.94,16.281,17.997,36.365,17.997c20.085,0,36.366-8.057,36.366-17.997
	c0-1.251-0.269-2.47-0.762-3.647H75.811C75.318,362.533,75.049,363.752,75.049,365.003z"/>
<path style="fill:#D9EAFC;" d="M90,365.003c0-1.251,0.269-2.47,0.762-3.647H75.811c-0.493,1.178-0.762,2.396-0.762,3.647
	c0,9.94,16.281,17.997,36.365,17.997c2.563,0,5.063-0.133,7.475-0.383C102.392,380.912,90,373.675,90,365.003z"/>
<path style="fill:#2E4C89;" d="M242.677,349.063h109.781c13.065-10.535,23.047-24.745,28.364-41.063h-166.51
	C219.63,324.318,229.611,338.528,242.677,349.063z"/>
<path style="fill:#293D7C;" d="M242.677,349.063h20.704C250.308,338.529,240.319,324.323,235,308h-20.688
	C219.63,324.318,229.611,338.528,242.677,349.063z"/>
<path style="fill:#2E4C89;" d="M404.826,246H486c9.923-7.641,17.631-18.018,21.995-30H382.831
	C387.195,227.982,394.903,238.359,404.826,246z"/>
<g>
	<path style="fill:#293D7C;" d="M400,216h-17.169c4.364,11.982,12.072,22.359,21.995,30h17.169
		C412.072,238.359,404.364,227.982,400,216z"/>
	<path style="fill:#293D7C;" d="M364.795,369.455l-11.027-21.452H241.151l-10.813,21.452c-1.106,1.916-0.201,3.484,2.011,3.484
		h130.433C364.996,372.939,365.9,371.371,364.795,369.455z"/>
</g>
<path style="fill:#1A2B63;" d="M251.073,369.455l10.812-21.452h-20.733l-10.813,21.452c-1.106,1.916-0.201,3.484,2.011,3.484h20.734
	C250.871,372.939,249.967,371.371,251.073,369.455z"/>
<path style="fill:#293D7C;" d="M496.533,260.584l-8.385-16.313h-85.636l-8.221,16.313c-0.841,1.457-0.153,2.648,1.529,2.648h99.183
	C496.687,263.232,497.374,262.041,496.533,260.584z"/>
<path style="fill:#1A2B63;" d="M411.672,260.584l8.221-16.313h-17.38l-8.221,16.313c-0.841,1.457-0.153,2.648,1.529,2.648h17.38
	C411.518,263.232,410.831,262.041,411.672,260.584z"/>
<g>
	<path style="fill:#293D7C;" d="M36.561,437.863c1.594,1.431,3.228,2.807,4.89,4.137h20.77c-1.668-1.334-3.315-2.701-4.914-4.137
		C44.298,426.183,34.33,411.795,28,395.883H7.253C13.583,411.795,23.551,426.183,36.561,437.863z"/>
	<path style="fill:#293D7C;" d="M197.456,467.896l-14.115-27.456H39.21l-13.838,27.456c-1.415,2.452-0.257,4.459,2.574,4.459
		h166.936C197.714,472.355,198.871,470.349,197.456,467.896z"/>
</g>
<path style="fill:#1A2B63;" d="M46.312,467.896L60.15,440.44H39.21l-13.838,27.456c-1.415,2.452-0.257,4.459,2.574,4.459h20.94
	C46.056,472.355,44.897,470.349,46.312,467.896z"/>
<g>
</g>
<g>
</g>
<g>
</g>
<g>
</g>
<g>
</g>
<g>
</g>
<g>
</g>
<g>
</g>
<g>
</g>
<g>
</g>
<g>
</g>
<g>
</g>
<g>
</g>
<g>
</g>
<g>
</g>
</svg>
