<?xml version="1.0" encoding="iso-8859-1"?>
<!-- Generator: Adobe Illustrator 19.0.0, SVG Export Plug-In . SVG Version: 6.00 Build 0)  -->
<svg version="1.1" id="Capa_1" xmlns="http://www.w3.org/2000/svg" xmlns:xlink="http://www.w3.org/1999/xlink" x="0px" y="0px"
	 viewBox="0 0 512 512" style="enable-background:new 0 0 512 512;" xml:space="preserve">
<circle style="fill:#02AF8E;" cx="256" cy="267" r="245"/>
<g>
	<path style="fill:#B7092B;" d="M448.944,418l-11.511-44.555c-1.375-5.326-6.642-11.444-11.703-13.598L380,340.392v-1.794
		c0-2.004-1.197-3.815-3.042-4.601l-77.233-32.86v12.828c0,2.75-1.56,6.621-3.465,8.604l-36.795,38.273
		c-1.905,1.982-5.024,1.982-6.93,0l-36.795-38.273c-1.905-1.982-3.465-5.854-3.465-8.604v-12.828l-77.233,32.86
		c-1.845,0.785-3.042,2.597-3.042,4.601v1.794l-45.731,19.456c-5.061,2.153-10.328,8.271-11.703,13.598L63.056,418
		c18.943,24.17,42.345,44.666,68.944,60.31v0.018c0.255,0.15,0.516,0.293,0.771,0.442c0.077,0.045,0.152,0.092,0.229,0.137v-0.006
		c24.119,14.03,50.838,24.08,79.275,29.204v-0.024C226.466,510.639,241.072,512,256,512c14.928,0,29.534-1.361,43.725-3.919v0.023
		c28.438-5.123,55.157-15.173,79.275-29.203v0.005c0.063-0.037,0.125-0.076,0.188-0.112c0.27-0.157,0.543-0.308,0.812-0.466v-0.02
		C406.599,462.666,430.001,442.17,448.944,418z"/>
	<path style="fill:#B7092B;" d="M299.725,313.965c0,2.75-1.56,6.621-3.465,8.604l-36.795,38.273c-1.905,1.982-5.024,1.982-6.93,0
		l-36.795-38.273c-1.905-1.982-3.465-5.854-3.465-8.604v194.116C226.466,510.639,241.072,512,256,512
		c14.928,0,29.534-1.361,43.725-3.919V313.965z"/>
</g>
<g>
	<path style="fill:#6E7489;" d="M159.273,217.158V126H139c-3.426,0-6.565-1.241-9-3.291V268c0,8.284,6.716,15,15,15h16
		c8.284,0,15-6.716,15-15v-3.064C165.544,251.809,159.273,235.207,159.273,217.158z"/>
	<path style="fill:#6E7489;" d="M373,126h-20.273v91.158c0,18.623-6.664,35.717-17.727,49.031V268c0,8.284,6.716,15,15,15h16
		c8.284,0,15-6.716,15-15V123.473C378.73,125.061,375.975,126,373,126z"/>
</g>
<g>
	<path style="fill:#B7092B;" d="M133,339.966l-46.731,19.882c-5.061,2.153-10.328,8.271-11.703,13.598L63.056,418
		c19.181,24.475,42.929,45.191,69.944,60.907V339.966z"/>
	<path style="fill:#B7092B;" d="M437.434,373.445c-1.375-5.326-6.642-11.444-11.703-13.598L379,339.966v138.941
		c27.016-15.716,50.763-36.432,69.944-60.906L437.434,373.445z"/>
</g>
<path style="fill:#A00026;" d="M74.566,373.445L63.056,418c4.855,6.195,10.021,12.135,15.438,17.83l11.516-44.571
	c1.422-5.505,6.865-11.829,12.098-14.056L132,364.485V340.39l-45.731,19.457C81.208,362.001,75.941,368.119,74.566,373.445z"/>
<rect x="211.28" y="421" style="fill:#FFFFFF;" width="89.45" height="24"/>
<rect x="211.28" y="445" style="fill:#293D7C;" width="89.45" height="24"/>
<path style="fill:#FFFFFF;" d="M299.725,313.965c0,2.75-1.56,6.621-3.465,8.604l-36.795,38.273c-1.905,1.982-5.024,1.982-6.93,0
	l-36.795-38.273c-1.905-1.982-3.465-5.854-3.465-8.604v33.857l40.26,41.877c1.905,1.982,5.024,1.982,6.93,0l40.26-41.877
	L299.725,313.965L299.725,313.965z"/>
<path style="fill:#FE3745;" d="M132,338.598v139.73c24.378,14.335,51.446,24.583,80.275,29.777V301.137l-77.233,32.86
	C133.197,334.782,132,336.594,132,338.598z"/>
<path style="fill:#EA2A3D;" d="M132,478.328c4.162,2.448,8.41,4.768,12.725,6.972V374H132V478.328z"/>
<path style="fill:#F2B675;" d="M275.887,293.998h-39.773c-8.32,0-16.328-1.347-23.838-3.804v23.771c0,2.75,1.56,6.621,3.465,8.604
	l36.795,38.273c1.905,1.982,5.024,1.982,6.93,0l36.795-38.273c1.905-1.982,3.465-5.854,3.465-8.604v-23.771
	C292.215,292.651,284.207,293.998,275.887,293.998z"/>
<path style="fill:#DAA56B;" d="M232,313.965v-20.08c-6.851-0.363-13.46-1.641-19.725-3.69v23.771c0,2.75,1.56,6.621,3.465,8.604
	l36.795,38.273c1.905,1.982,5.024,1.982,6.93,0l6.397-6.654l-30.397-31.619C233.56,320.586,232,316.715,232,313.965z"/>
<path style="fill:#FFC987;" d="M158.273,126v91.158c0,42.99,34.85,77.84,77.84,77.84h39.773c42.99,0,77.84-34.85,77.84-77.84V126
	H158.273z"/>
<path style="fill:#F2B675;" d="M173.547,217.158V126h-15.273v91.158c0,42.99,34.85,77.84,77.84,77.84h15.273
	C208.396,294.998,173.547,260.148,173.547,217.158z"/>
<g>
	<circle style="fill:#1A2B63;" cx="201" cy="169" r="16"/>
	<circle style="fill:#1A2B63;" cx="311" cy="169" r="16"/>
</g>
<g>
	<path style="fill:#BF7E52;" d="M275,196.461h-21c-1.356,0-2.5-1.145-2.5-2.5V141.5c0-6.729-3.822-12.572-9.404-15.5h-67.184
		c-1.48,1.37-2.413,3.324-2.413,5.5c0,4.142,3.357,7.5,7.5,7.5h54c1.355,0,2.5,1.145,2.5,2.5v52.461c0,9.65,7.851,17.5,17.5,17.5h21
		c4.143,0,7.5-3.357,7.5-7.5C282.5,199.819,279.143,196.461,275,196.461z"/>
	<path style="fill:#BF7E52;" d="M335.33,126h-53.66c-1.916,1.359-3.17,3.59-3.17,6.117c0,4.143,3.357,7.5,7.5,7.5h45
		c4.143,0,7.5-3.357,7.5-7.5C338.5,129.59,337.246,127.359,335.33,126z"/>
</g>
<path style="fill:#FF9F60;" d="M256,272c-20.418,0-37.03-16.612-37.03-37.03v-9.07c0-2.087,1.691-3.778,3.779-3.778h66.503
	c2.087,0,3.779,1.691,3.779,3.778v9.069C293.03,255.388,276.419,272,256,272z"/>
<path style="fill:#FF8D4D;" d="M239.939,234.97v-9.07c0-2.087,1.691-3.778,3.779-3.778h-20.97c-2.087,0-3.779,1.691-3.779,3.778
	v9.069c0,20.418,16.612,37.03,37.03,37.03c3.642,0,7.158-0.537,10.485-1.522C251.158,265.945,239.939,251.746,239.939,234.97z"/>
<path style="fill:#FFFFFF;" d="M289.251,222.122h-66.503c-2.087,0-3.779,1.691-3.779,3.778v9.069c0,0.311,0.016,0.616,0.023,0.926
	h74.014c0.007-0.31,0.023-0.615,0.023-0.926V225.9C293.03,223.814,291.339,222.122,289.251,222.122z"/>
<rect x="167" y="210" style="fill:#293D7C;" width="41" height="10"/>
<path style="fill:#FE3745;" d="M167,227c0,1.65,1.35,3,3,3h35c1.65,0,3-1.35,3-3v-7h-41V227z"/>
<path style="fill:#FFFFFF;" d="M205,200h-35c-1.65,0-3,1.35-3,3v7h41v-7C208,201.35,206.65,200,205,200z"/>
<rect x="304" y="210" style="fill:#293D7C;" width="41" height="10"/>
<path style="fill:#FE3745;" d="M304,227c0,1.65,1.35,3,3,3h35c1.65,0,3-1.35,3-3v-7h-41V227z"/>
<path style="fill:#FFFFFF;" d="M342,200h-35c-1.65,0-3,1.35-3,3v7h41v-7C345,201.35,343.65,200,342,200z"/>
<path style="fill:#FE3745;" d="M376.958,333.997l-77.233-32.86v206.968c28.829-5.193,55.898-15.441,80.275-29.776v-139.73
	C380,336.594,378.803,334.782,376.958,333.997z"/>
<g>
	<path style="fill:#FFFFFF;" d="M186.995,442c-0.708,0-1.434-0.192-2.153-0.571l-11.674-6.136c-0.176-0.094-0.568-0.201-1.096-0.201
		c-0.526,0-0.92,0.107-1.096,0.201l-11.672,6.136c-0.722,0.379-1.446,0.571-2.154,0.571c-1.076,0-2.038-0.44-2.709-1.234
		c-0.744-0.883-1.026-2.107-0.797-3.449l2.229-12.996c0.098-0.57-0.263-1.682-0.678-2.086l-9.442-9.205
		c-1.23-1.198-1.675-2.684-1.223-4.075c0.452-1.392,1.687-2.331,3.386-2.578l13.049-1.896c0.572-0.084,1.518-0.771,1.773-1.289
		l5.836-11.826c0.76-1.539,2.035-2.422,3.498-2.422c1.464,0,2.738,0.883,3.498,2.422l5.836,11.826
		c0.256,0.52,1.202,1.205,1.774,1.289l13.05,1.896c1.698,0.247,2.932,1.186,3.384,2.577c0.452,1.393,0.008,2.878-1.222,4.076
		l-9.443,9.205c-0.414,0.404-0.775,1.516-0.678,2.086l2.229,12.996c0.23,1.342-0.052,2.566-0.796,3.449
		C189.033,441.56,188.07,442,186.995,442z"/>
	<path style="fill:#FFFFFF;" d="M360.638,442c-0.708,0-1.434-0.192-2.153-0.571l-11.674-6.136c-0.176-0.094-0.568-0.201-1.096-0.201
		c-0.526,0-0.92,0.107-1.096,0.201l-11.672,6.136c-0.722,0.379-1.446,0.571-2.154,0.571c-1.076,0-2.038-0.44-2.709-1.234
		c-0.744-0.883-1.026-2.107-0.797-3.449l2.229-12.996c0.098-0.57-0.263-1.682-0.678-2.086l-9.442-9.205
		c-1.23-1.198-1.675-2.684-1.223-4.075c0.452-1.392,1.686-2.331,3.386-2.578l13.049-1.896c0.572-0.084,1.518-0.771,1.773-1.289
		l5.836-11.826c0.76-1.539,2.035-2.422,3.498-2.422c1.464,0,2.738,0.883,3.498,2.422l5.836,11.826
		c0.256,0.52,1.202,1.205,1.774,1.289l13.05,1.896c1.698,0.247,2.932,1.186,3.384,2.577c0.452,1.393,0.008,2.878-1.222,4.076
		l-9.443,9.205c-0.414,0.404-0.775,1.516-0.678,2.086l2.228,12.996c0.23,1.342-0.052,2.566-0.796,3.449
		C362.676,441.56,361.713,442,360.638,442z"/>
</g>
<path style="fill:#293D7C;" d="M376.958,333.997l-77.233-32.86V374H380v-35.402C380,336.594,378.803,334.782,376.958,333.997z"/>
<path style="fill:#EA2A3D;" d="M315,307.637l-15.275-6.5v206.968c5.15-0.928,10.242-2.024,15.275-3.269V307.637z"/>
<polygon style="fill:#1A2B63;" points="299.725,301.137 299.725,374 315,374 315,307.637 "/>
<path style="fill:#293D7C;" d="M135.042,333.997l77.233-32.86V374H132v-35.402C132,336.594,133.197,334.782,135.042,333.997z"/>
<g>
	<path style="fill:#1A2B63;" d="M144.725,346.461c0-2.005,1.197-3.816,3.042-4.602l64.509-27.445v-13.277l-77.233,32.86
		c-1.845,0.785-3.042,2.597-3.042,4.601V374h12.725v-27.539H144.725z"/>
	<path style="fill:#1A2B63;" d="M148.5,52.08c0-14.592,6.16-27.764,16.003-37.08H139c-8.25,0-15,6.75-15,15v82c0,8.25,6.75,15,15,15
		h9.5V52.08z"/>
	<path style="fill:#1A2B63;" d="M373,15h-25.503c9.843,9.316,16.003,22.488,16.003,37.08V127h9.5c8.25,0,15-6.75,15-15V30
		C388,21.75,381.25,15,373,15z"/>
</g>
<path style="fill:#999CAD;" d="M364.5,127V52.08C364.5,23.317,341.183,0,312.42,0H199.58c-28.763,0-52.08,23.317-52.08,52.08V127
	H364.5z"/>
<path style="fill:#80859B;" d="M220.08,0h-20.5c-28.763,0-52.08,23.317-52.08,52.08V127H168V52.08C168,23.317,191.317,0,220.08,0z"
	/>
<path style="fill:#B7092B;" d="M275.116,93.961c-0.91,0.002-1.836-0.248-2.762-0.732l-14.951-7.858
	c-0.224-0.12-0.727-0.257-1.402-0.257c-0.676,0-1.179,0.137-1.405,0.257l-14.949,7.858c-0.925,0.484-1.852,0.732-2.759,0.732
	c-1.377,0-2.609-0.563-3.469-1.582c-0.955-1.131-1.317-2.697-1.022-4.416l2.854-16.648c0.125-0.73-0.336-2.151-0.868-2.67
	l-12.094-11.791c-1.577-1.534-2.145-3.439-1.567-5.221c0.578-1.781,2.161-2.985,4.336-3.303l16.714-2.429
	c0.733-0.107,1.943-0.986,2.27-1.649l7.477-15.148C252.494,27.133,254.124,26,256,26s3.508,1.133,4.481,3.104l7.475,15.148
	c0.327,0.667,1.537,1.543,2.272,1.649l16.716,2.429c2.173,0.317,3.754,1.521,4.333,3.303c0.58,1.781,0.01,3.687-1.565,5.221
	l-12.094,11.791c-0.531,0.519-0.995,1.939-0.868,2.67l2.854,16.648c0.295,1.719-0.067,3.285-1.022,4.416
	C277.725,93.397,276.49,93.961,275.116,93.961z"/>
<g>
</g>
<g>
</g>
<g>
</g>
<g>
</g>
<g>
</g>
<g>
</g>
<g>
</g>
<g>
</g>
<g>
</g>
<g>
</g>
<g>
</g>
<g>
</g>
<g>
</g>
<g>
</g>
<g>
</g>
</svg>
