<?xml version="1.0" encoding="iso-8859-1"?>
<!-- Generator: Adobe Illustrator 19.0.0, SVG Export Plug-In . SVG Version: 6.00 Build 0)  -->
<svg version="1.1" id="Capa_1" xmlns="http://www.w3.org/2000/svg" xmlns:xlink="http://www.w3.org/1999/xlink" x="0px" y="0px"
	 viewBox="0 0 512 512" style="enable-background:new 0 0 512 512;" xml:space="preserve">
<g>
	<circle style="fill:#C3DDF4;" cx="256" cy="267" r="245"/>
	<circle style="fill:#C3DDF4;" cx="256" cy="267" r="245"/>
</g>
<g>
	<path style="fill:#EA2A3D;" d="M67.164,382H39.63c7.798,14.642,17.041,28.397,27.534,41.078V382z"/>
	<path style="fill:#EA2A3D;" d="M422.61,382l-2.165,7.73c-0.024,0.088-0.037,0.179-0.037,0.27v58.625
		c20.931-18.962,38.573-41.488,51.961-66.625H422.61z"/>
</g>
<g>
	<path style="fill:#69CDFF;" d="M74.531,167.514h36.485v-8.791h-8.593c-1.65,0-3-1.35-3-3v-0.967c0-1.65,1.35-3,3-3h8.593V145
		c0-0.352,0.073-0.686,0.185-1h-36.67c-7.184,0-13.063,5.29-13.063,11.756C61.468,162.224,67.347,167.514,74.531,167.514z"/>
	<path style="fill:#69CDFF;" d="M117.799,144c0.112,0.314,0.185,0.648,0.185,1v6.756h8.593c1.65,0,3,1.35,3,3v0.967
		c0,1.65-1.35,3-3,3h-8.593v8.791h21.535c7.185,0,13.063,5.29,13.063,11.758c0,6.467-5.878,11.757-13.063,11.757h-15.375
		c0.072,0.479,0.112,0.968,0.112,1.466c0,4.159-2.607,7.7-6.272,9.104v6.033h-0.158c1.339,2.337,2.754,4.641,4.216,6.912h85.197
		l15.909-34.982c0.172-0.377,0.322-0.513,0.378-0.554c0.011,0.041,0.161,0.177,0.333,0.554l2.574,5.659
		c0.163,0.358,0.52,0.586,0.91,0.586c0.015,0,0.03,0,0.046-0.001c0.408-0.019,0.764-0.284,0.898-0.67L242.605,144H117.799z"/>
	<path style="fill:#69CDFF;" d="M110.869,207.631h0.147v-6.033c-3.665-1.403-6.272-4.944-6.272-9.104
		c0-0.498,0.04-0.987,0.112-1.466h-81.83c-2.503,7.679-4.635,15.523-6.378,23.515h89.916
		C108.056,212.266,109.501,209.962,110.869,207.631z"/>
	<path style="fill:#69CDFF;" d="M335.472,144h-47.578l8.184,23.514h39.394c7.184,0,13.063-5.29,13.063-11.758
		C348.535,149.29,342.656,144,335.472,144z"/>
	<path style="fill:#69CDFF;" d="M365.655,212.638c0-3.992,2.502-7.391,6.02-8.737v-12.872h-46.001c-4.46,0-8.414,2.041-10.773,5.134
		l8.257,18.156c0.815,0.145,1.656,0.225,2.517,0.225h40.176C365.723,213.928,365.655,213.291,365.655,212.638z"/>
	<path style="fill:#69CDFF;" d="M378.362,191.146V203.9c3.395,1.3,5.836,4.512,6.003,8.322c3.216-2.148,5.32-5.578,5.32-9.438
		C389.685,196.852,384.73,191.92,378.362,191.146z"/>
	<path style="fill:#69CDFF;" d="M246.898,111c0-1.103,0.897-2,2-2h1c0.552,0,1-0.447,1-1V93.699h-96.975
		c-5.606,0-10.194,4.129-10.194,9.175s4.587,9.175,10.194,9.175h92.975L246.898,111L246.898,111z"/>
	<path style="fill:#69CDFF;" d="M224.521,75.35h20.654c-0.086-0.655-0.146-1.314-0.146-1.98c0-4.047,1.65-7.993,4.646-11.113
		c0.458-0.394,2.689-2.359,5.475-5.256h-30.629c-5.607,0-10.194,4.129-10.194,9.175C214.327,71.221,218.914,75.35,224.521,75.35z"/>
	<path style="fill:#69CDFF;" d="M428.148,57h-152.94c2.903,2.978,5.248,4.956,5.737,5.361c3.036,2.749,4.524,6.358,4.524,11.008
		c0,2.254-0.514,4.454-1.471,6.503c0.901,1.368,1.43,2.955,1.43,4.652c0,3.641-2.393,6.794-5.828,8.273V108c0,0.553,0.448,1,1,1h1
		c1.103,0,2,0.897,2,2v1.049h99.184c5.606,0,10.194-4.129,10.194-9.175s-4.587-9.175-10.194-9.175H370.04
		c-5.606,0-10.194-4.128-10.194-9.175s4.587-9.175,10.194-9.175h58.108c5.607,0,10.194-4.129,10.194-9.175
		C438.342,61.129,433.755,57,428.148,57z"/>
	<path style="fill:#69CDFF;" d="M470.454,102.874c0,5.046-4.587,9.175-10.194,9.175h-39.757c-5.607,0-10.194-4.129-10.194-9.175
		s4.587-9.175,10.194-9.175h39.757C465.867,93.699,470.454,97.828,470.454,102.874z"/>
</g>
<path style="fill:#EA2A3D;" d="M280.601,109V84.15c-0.064,0.018-0.129,0.037-0.197,0.037h-30.308c-0.068,0-0.133-0.02-0.197-0.037
	V109H280.601z"/>
<g>
	<path style="fill:#B7092B;" d="M265.5,109V84.188h-15.404c-0.068,0-0.133-0.02-0.197-0.037V109H265.5z"/>
	<path style="fill:#B7092B;" d="M243.466,222.675c0.162,0.356,0.518,0.586,0.91,0.586s0.748-0.229,0.91-0.586l19.607-43.113
		c0.172-0.377,0.322-0.513,0.378-0.554c0.011,0.041,0.161,0.177,0.333,0.554l19.607,43.113c0.162,0.356,0.518,0.586,0.91,0.586
		s0.748-0.229,0.91-0.586l16.6-36.5L281.993,124h-33.486l-21.64,62.175L243.466,222.675z"/>
</g>
<path style="fill:#A00026;" d="M243.466,222.675c0.162,0.356,0.518,0.586,0.91,0.586s0.748-0.229,0.91-0.586l19.607-43.113
	c0.172-0.377,0.322-0.513,0.378-0.554c0.011,0.041,0.161,0.177,0.333,0.554l19.607,43.113c0.162,0.356,0.518,0.586,0.91,0.586
	s0.748-0.229,0.91-0.586l2.363-5.195L273.454,124h-16.408l-15.942,93.48L243.466,222.675z"/>
<g>
	<path style="fill:#FE3745;" d="M308.261,179.148c-0.696-1.53-1.835-1.53-2.531,0l-19.607,43.113l3.321,7.303h41.746
		L308.261,179.148z"/>
	<path style="fill:#FE3745;" d="M329.629,414v-23.583c0-0.091-0.013-0.182-0.037-0.27l-5.603-20.01c0.538-0.017,0.969-0.458,0.969-1
		c0-0.553-0.448-1-1-1c-0.4,0-0.78-0.152-1.07-0.428c-9.645-9.172-15.759-20.56-17.7-32.71h-58.964
		c6.505,8.751,9.706,19.362,9.706,32.184c0,15.478-6.616,30.293-18.629,41.718c-0.095,0.09-0.221,0.174-0.385,0.257
		c-0.26,0.131-0.449,0.368-0.52,0.65L235.348,414H329.629z"/>
</g>
<g>
	<path style="fill:#EA2A3D;" d="M317.5,414v-52.11c-3.525-4.306-6.376-8.963-8.496-13.864c-4.186,0.257-7.504,3.724-7.504,7.975v58
		h16V414z"/>
	<path style="fill:#EA2A3D;" d="M291.5,414v-58c0-4.418-3.582-8-8-8s-8,3.582-8,8v58H291.5z"/>
	<path style="fill:#EA2A3D;" d="M257.5,348c-1.508,0-2.914,0.425-4.118,1.15c1.695,5.465,2.548,11.455,2.548,18.033
		c0,8.961-2.231,17.695-6.43,25.683V414h16v-58C265.5,351.582,261.918,348,257.5,348z"/>
</g>
<path style="fill:#FE3745;" d="M329.629,430h-98.28l-0.85,3.4c-0.02,0.079-0.03,0.16-0.03,0.242v77.033
	C238.861,511.547,247.377,512,256,512c25.66,0,50.387-3.97,73.629-11.289V430z"/>
<polygon style="fill:#A00026;" points="329.629,413 235.598,413 231.099,431 329.629,431 "/>
<path style="fill:#B7092B;" d="M209.249,268c2.253,0,4.495,0.39,6.666,1.159c0.109,0.039,0.222,0.058,0.334,0.058
	c0.204,0,0.406-0.063,0.577-0.184c0.265-0.188,0.423-0.491,0.423-0.816V268c0-11.028,8.972-20,20-20s20,8.972,20,20v0.217
	c0,0.325,0.158,0.629,0.423,0.816c0.171,0.121,0.373,0.184,0.577,0.184c0.112,0,0.225-0.019,0.334-0.058
	c2.171-0.77,4.414-1.159,6.666-1.159c2.249,0,4.492,0.391,6.666,1.16c0.109,0.039,0.222,0.058,0.334,0.058
	c0.204,0,0.406-0.063,0.577-0.184c0.265-0.188,0.423-0.491,0.423-0.816V268c0-11.028,8.972-20,20-20s20,8.972,20,20v0.215
	c0,0.325,0.158,0.629,0.423,0.816c0.171,0.121,0.373,0.184,0.577,0.184c0.112,0,0.226-0.019,0.334-0.058
	c2.167-0.768,4.41-1.157,6.666-1.157c3.545,0,6.944,0.935,9.94,2.658v-41.095H199.31v41.115C202.306,268.953,205.73,268,209.249,268
	z"/>
<path style="fill:#A00026;" d="M209.249,268c2.253,0,4.495,0.39,6.666,1.159c0.109,0.039,0.222,0.058,0.334,0.058
	c0.204,0,0.406-0.063,0.577-0.184c0.265-0.188,0.423-0.491,0.423-0.816V268c0-8.326,5.118-15.475,12.371-18.48v-19.956h-30.31
	v41.115C202.306,268.953,205.73,268,209.249,268z"/>
<g>
	<path style="fill:#EA2A3D;" d="M228.926,284.518c0.051,0.293,0.23,0.548,0.488,0.695c0.153,0.087,0.324,0.132,0.497,0.132
		c0.118,0,0.237-0.021,0.35-0.063c2.276-0.85,4.627-1.281,6.988-1.281s4.712,0.432,6.988,1.281c0.113,0.043,0.232,0.063,0.35,0.063
		c0.172,0,0.344-0.045,0.497-0.132c0.258-0.147,0.437-0.402,0.488-0.695c1.259-7.154,6.202-12.84,12.677-15.256V268
		c0-11.598-9.402-21-21-21s-21,9.402-21,21v1.262C222.725,271.678,227.667,277.363,228.926,284.518z"/>
	<path style="fill:#EA2A3D;" d="M284.978,284.859c0.048,0.305,0.234,0.57,0.505,0.72c0.15,0.082,0.316,0.124,0.483,0.124
		c0.134,0,0.269-0.027,0.395-0.081c2.503-1.076,5.158-1.622,7.889-1.622c2.066,0,4.114,0.319,6.087,0.95
		c0.1,0.032,0.202,0.048,0.305,0.048c0.178,0,0.354-0.047,0.51-0.14c0.246-0.146,0.417-0.39,0.472-0.671
		c1.347-6.978,6.263-12.525,12.627-14.913V268c0-11.598-9.402-21-21-21s-21,9.402-21,21v1.249
		C278.844,271.693,283.817,277.52,284.978,284.859z"/>
</g>
<g>
	<path style="fill:#FE3745;" d="M215.876,305h1.374v-1c0-8.494,5.332-15.748,12.816-18.644C228.763,275.01,219.95,267,209.249,267
		c-6.956,0-13.104,3.397-16.926,8.607C199.622,286.588,208.112,296.681,215.876,305z"/>
	<path style="fill:#FE3745;" d="M257.25,304v1h17v-1c0-8.134,4.888-15.136,11.874-18.258C284.997,275.207,276.084,267,265.25,267
		c-10.701,0-19.513,8.01-20.816,18.356C251.918,288.252,257.25,295.506,257.25,304z"/>
</g>
<path style="fill:#EA2A3D;" d="M258.25,305v-1c0-11.598-9.402-21-21-21s-21,9.402-21,21v1H258.25z"/>
<path style="fill:#FE3745;" d="M313.113,297.385c2.188-3.489,4.76-6.811,7.72-9.893c1.406-1.213,7.41-6.478,15.225-14.378
	c-3.797-3.777-9.029-6.114-14.809-6.114c-10.58,0-19.308,7.832-20.763,18.01C306.375,286.949,311.058,291.552,313.113,297.385z"/>
<path style="fill:#EA2A3D;" d="M313.78,296.32c-3.068-7.795-10.647-13.32-19.531-13.32c-11.598,0-21,9.402-21,21v1h35.837
	C310.389,302.011,311.951,299.105,313.78,296.32z"/>
<path style="fill:#B7092B;" d="M309.692,303.641H214.62c12.951,14.06,24.186,23.42,24.985,24.079
	c3.026,2.74,5.608,5.715,7.784,8.921h58.105c-0.634-3.304-0.975-6.666-0.975-10.064
	C304.519,318.672,306.309,310.882,309.692,303.641z"/>
<g>
	<path style="fill:#A00026;" d="M239.509,327.64h9.241v-15.001h-15v9.969C236.909,325.463,239,327.217,239.509,327.64z"/>
	<rect x="257.75" y="312.64" style="fill:#A00026;" width="15" height="15"/>
	<rect x="281.75" y="312.64" style="fill:#A00026;" width="15" height="15"/>
</g>
<g>
	<path style="fill:#EF8318;" d="M265.622,44.813c1.08,1.83,2.296,3.586,3.556,5.239V33.525C268.124,34.441,266.752,35,265.25,35
		s-2.875-0.559-3.928-1.475v16.328c1.228-1.608,2.411-3.301,3.462-5.041L265.622,44.813L265.622,44.813z"/>
	<path style="fill:#EF8318;" d="M265.25,23c1.503,0,2.874,0.559,3.928,1.475V3c0-1.65-1.35-3-3-3h-1.856c-1.65,0-3,1.35-3,3v21.475
		C262.375,23.559,263.747,23,265.25,23z"/>
</g>
<g>
	<path style="fill:#FFAF10;" d="M375.019,221c-1.189,0-2.318-0.253-3.344-0.702v6.69h6.688v-6.69
		C377.337,220.747,376.207,221,375.019,221z"/>
	<path style="fill:#FFAF10;" d="M386.489,173.363h-8.127V167c0-1.65-1.35-3-3-3h-0.688c-1.65,0-3,1.35-3,3v6.363h-8.126
		c-1.65,0-3,1.35-3,3v0.687c0,1.649,1.35,3,3,3h8.126v24.927c1.025-0.449,2.155-0.702,3.344-0.702s2.319,0.253,3.344,0.702V180.05
		h8.127c1.65,0,3-1.351,3-3v-0.687C389.489,174.713,388.139,173.363,386.489,173.363z"/>
</g>
<path style="fill:#EF9614;" d="M384.382,212.638c0,5.171-4.192,9.362-9.363,9.362l0,0c-5.171,0-9.363-4.191-9.363-9.362l0,0
	c0-5.172,4.192-9.363,9.363-9.363l0,0C380.19,203.274,384.382,207.466,384.382,212.638L384.382,212.638z"/>
<path style="fill:#B7092B;" d="M328.629,501.053c34.913-10.822,66.48-29.245,92.779-53.328V389.28h-92.779V501.053z"/>
<polygon style="fill:#FFAF10;" points="421.408,390 328.629,390 322.671,368.721 427.367,368.721 "/>
<polygon style="fill:#EF9614;" points="322.671,368.721 328.629,390 349.458,390 343.5,368.721 "/>
<path style="fill:#02AF8E;" d="M430.081,286.915c-0.036-0.033-33.044-27.072-51.87-59.927h-6.677
	c-18.821,32.067-51.359,59.745-51.422,59.812c-10.7,11.141-16.594,25.268-16.594,39.777c0,15.537,6.634,30.401,18.68,41.857
	c0.475,0.452,1.104,0.704,1.76,0.704H426.08c0.654,0,1.285-0.252,1.76-0.704c12.045-11.455,18.679-26.319,18.679-41.857
	C446.519,309.904,441.142,296.931,430.081,286.915z"/>
<path style="fill:#FFD00D;" d="M439.766,298.833c-17.831-6.922-34.184-17.536-48.103-31.457
	c-9.228-9.228-16.98-19.534-23.191-30.619h-3.17c-2.083,3.043-4.247,6.02-6.46,8.911c6.51,11.082,14.468,21.411,23.793,30.735
	c17.831,17.832,39.318,30.693,62.778,37.9C444.334,308.647,442.455,303.506,439.766,298.833z"/>
<path style="fill:#159E97;" d="M384.317,236.757c-2.147-3.184-4.201-6.444-6.107-9.769h-6.677c-1.944,3.313-4.041,6.574-6.227,9.769
	H384.317z"/>
<g>
	<path style="fill:#FFD00D;" d="M446.449,329.192c-29.191-4.459-56.103-18.006-77.351-39.254
		c-8.902-8.901-16.447-18.8-22.546-29.441c-3.143,3.529-6.206,6.797-9.072,9.749c6.28,10.321,13.832,19.964,22.59,28.722
		c23.153,23.152,52.468,37.928,84.266,42.82C445.523,337.69,446.243,333.476,446.449,329.192z"/>
	<path style="fill:#FFD00D;" d="M337.507,321.53c25.316,25.317,58,40.621,93.242,43.935c3.504-3.783,6.459-7.879,8.831-12.206
		c-35.182-1.408-68.037-15.749-93.045-40.757c-8.85-8.849-16.357-18.685-22.437-29.255c-2.49,2.273-3.974,3.538-3.986,3.553
		c-1.866,1.943-3.577,3.982-5.145,6.093C321.238,303.182,328.772,312.796,337.507,321.53z"/>
	<path style="fill:#FFD00D;" d="M379.43,369.138c-20.692-6.714-39.645-18.259-55.458-34.072
		c-7.028-7.028-13.205-14.681-18.499-22.826c-1.279,4.673-1.954,9.482-1.954,14.338c0,1.693,0.094,3.376,0.25,5.049
		c3.476,4.324,7.197,8.489,11.175,12.468c9.927,9.927,20.987,18.313,32.889,25.044h31.597V369.138z"/>
</g>
<path style="fill:#FE3745;" d="M224.769,179.148c-0.696-1.53-1.835-1.53-2.531,0l-22.928,50.416h41.746l3.321-7.303L224.769,179.148
	z"/>
<path style="fill:#EA2A3D;" d="M266.515,179.148c-0.696-1.53-1.835-1.53-2.531,0l-22.929,50.416h48.389L266.515,179.148z"/>
<path style="fill:#FFAF10;" d="M281.591,61.598c-0.011-0.011-9.807-8.034-15.395-17.785h-1.982
	c-5.585,9.518-15.242,17.73-15.26,17.751c-3.176,3.307-4.925,7.5-4.925,11.806c0,4.61,1.969,9.022,5.544,12.423
	c0.141,0.134,0.328,0.208,0.523,0.208h30.308c0.195,0,0.382-0.074,0.523-0.208c3.575-3.4,5.544-7.813,5.544-12.423
	C286.47,68.421,284.874,64.569,281.591,61.598z"/>
<path style="fill:#EF9614;" d="M255.5,73.369c0-4.306,1.749-8.499,4.925-11.806c0.014-0.016,5.422-4.618,10.485-10.92
	c-1.688-2.108-3.33-4.416-4.713-6.831h-1.982c-5.585,9.518-15.242,17.73-15.26,17.751c-3.176,3.307-4.925,7.5-4.925,11.806
	c0,4.61,1.969,9.022,5.544,12.423c0.141,0.134,0.328,0.208,0.523,0.208h11.471c-0.195,0-0.382-0.074-0.522-0.208
	C257.469,82.392,255.5,77.979,255.5,73.369z"/>
<g>
	<path style="fill:#FFAF10;" d="M272.25,29c0,3.866-3.134,7-7,7l0,0c-3.866,0-7-3.134-7-7l0,0c0-3.866,3.134-7,7-7l0,0
		C269.116,22,272.25,25.134,272.25,29L272.25,29z"/>
	<path style="fill:#FFAF10;" d="M114.5,201.25c-1.238,0-2.415-0.262-3.484-0.727v7.108h6.968v-7.108
		C116.915,200.988,115.738,201.25,114.5,201.25z"/>
	<path style="fill:#FFAF10;" d="M126.577,151.756h-8.593V145c0-1.65-1.35-3-3-3h-0.968c-1.65,0-3,1.35-3,3v6.756h-8.593
		c-1.65,0-3,1.35-3,3v0.967c0,1.65,1.35,3,3,3h8.593v25.743c1.069-0.466,2.246-0.728,3.484-0.728s2.415,0.262,3.484,0.728v-25.743
		h8.593c1.65,0,3-1.35,3-3v-0.967C129.577,153.105,128.227,151.756,126.577,151.756z"/>
</g>
<path style="fill:#EF9614;" d="M124.256,192.494c0,5.389-4.368,9.756-9.756,9.756l0,0c-5.388,0-9.756-4.367-9.756-9.756l0,0
	c0-5.389,4.368-9.756,9.756-9.756l0,0C119.888,182.738,124.256,187.105,124.256,192.494L124.256,192.494z"/>
<path style="fill:#FE3745;" d="M138.392,433.643c0-0.082-0.01-0.163-0.03-0.242l-5.897-23.592c-0.071-0.282-0.26-0.52-0.52-0.65
	c-0.164-0.083-0.29-0.167-0.385-0.257c-9.176-8.727-15.19-19.435-17.525-30.901H66.164v43.872
	c19.911,24.377,44.439,44.817,72.228,60.054V433.643z"/>
<path style="fill:#B7092B;" d="M112.93,367.184c0-4.161,0.503-8.289,1.451-12.326H59.956l6.208,24.833h48.248
	C113.444,375.607,112.93,371.422,112.93,367.184z"/>
<polygon style="fill:#A00026;" points="59.956,354.857 66.164,379.69 81.619,379.69 75.411,354.857 "/>
<path style="fill:#293D7C;" d="M129.477,327.542c3.136-2.703,28.841-25.278,47.113-52.617c-1.448-1.685-3.01-3.307-4.717-4.853
	c-0.038-0.035-34.431-28.209-54.047-62.441h-6.957c-19.611,33.413-53.514,62.252-53.58,62.32C46.14,281.56,40,296.279,40,311.398
	c0,16.189,6.912,31.677,19.463,43.613c0.495,0.47,1.151,0.732,1.833,0.732h52.882C116.421,345.431,121.654,335.688,129.477,327.542z
	"/>
<path style="fill:#FFFFFF;" d="M129.477,327.542c2.652-2.286,21.443-18.782,38.231-40.351c-2.162-6.46-5.31-12.145-9.496-17.119
	c-0.026-0.031-21.194-22.8-36.331-52.264H106.79c-15.064,28.883-35.834,52.081-35.879,52.143
	c-8.495,11.609-13.173,26.328-13.173,41.447c0,16.189,5.266,31.677,14.829,43.613c0.377,0.47,0.877,0.732,1.397,0.732h40.214
	C116.421,345.431,121.654,335.688,129.477,327.542z"/>
<path style="fill:#293D7C;" d="M129.477,327.542c2.03-1.749,13.517-11.824,26.322-26.126c-1.01-12.679-4.042-23-9.197-31.344
	c-0.02-0.031-15.565-22.8-26.681-52.264h-11.083c-11.063,28.883-26.316,52.081-26.348,52.143
	c-6.238,11.609-9.674,26.328-9.674,41.447c0,16.189,3.868,31.677,10.89,43.613c0.277,0.47,0.645,0.732,1.026,0.732h29.447
	C116.421,345.431,121.654,335.688,129.477,327.542z"/>
<path style="fill:#FFFFFF;" d="M129.477,327.542c0.921-0.794,3.803-3.316,7.861-7.158c0.146-2.958,0.222-5.96,0.222-8.985
	c0-17.372-1.734-30.891-5.302-41.326c-0.011-0.031-8.61-22.8-14.759-52.264h-6.131c-6.12,28.883-14.558,52.081-14.576,52.143
	c-3.451,11.609-5.352,26.328-5.352,41.447c0,16.189,2.139,31.677,6.024,43.613c0.153,0.47,0.356,0.732,0.568,0.732h16.146
	C116.421,345.431,121.654,335.688,129.477,327.542z"/>
<path style="fill:#293D7C;" d="M122.706,335.934c0.433-7.71,0.663-16.022,0.663-24.535c0-17.372-0.667-30.891-2.04-41.326
	c-0.003-0.031-3.311-22.8-5.676-52.264h-2.358c-2.354,28.883-5.599,52.081-5.606,52.143c-1.328,11.609-2.059,26.328-2.059,41.447
	c0,16.189,0.823,31.677,2.317,43.613c0.06,0.47,0.137,0.732,0.218,0.732h6.012C115.694,348.773,118.579,342.066,122.706,335.934z"/>
<path style="fill:#1A2B63;" d="M124.188,217.809c-2.236-3.316-4.378-6.714-6.362-10.178h-6.957c-2.026,3.451-4.21,6.85-6.488,10.178
	H124.188z"/>
<g>
	<path style="fill:#FFAF10;" d="M184.43,255.708c-1.205,0-2.351-0.256-3.39-0.71v11.204h6.78v-11.204
		C186.781,255.452,185.635,255.708,184.43,255.708z"/>
	<path style="fill:#FFAF10;" d="M196.102,211.827h-8.282v-6.494c0-1.649-1.35-3-3-3h-0.78c-1.65,0-3,1.351-3,3v6.494h-8.282
		c-1.65,0-3,1.351-3,3v0.779c0,1.65,1.35,3,3,3h8.282v20.823c1.04-0.454,2.185-0.71,3.39-0.71s2.351,0.256,3.39,0.71v-20.823h8.282
		c1.65,0,3-1.35,3-3v-0.779C199.102,213.178,197.752,211.827,196.102,211.827z"/>
</g>
<path style="fill:#EF9614;" d="M193.924,247.214c0,5.244-4.251,9.494-9.494,9.494l0,0c-5.244,0-9.494-4.25-9.494-9.494l0,0
	c0-5.244,4.25-9.494,9.494-9.494l0,0C189.674,237.72,193.924,241.97,193.924,247.214L193.924,247.214z"/>
<path style="fill:#EA2A3D;" d="M137.392,481.409c28.383,15.734,60.212,26.005,94.077,29.372v-78.614h-94.077V481.409z"/>
<polygon style="fill:#B7092B;" points="231.469,433.643 137.392,433.643 131.35,409.476 237.51,409.476 "/>
<polygon style="fill:#A00026;" points="131.35,409.476 137.392,433.643 152.542,433.643 146.5,409.476 "/>
<path style="fill:#FE3745;" d="M248.898,125c-1.65,0-3-1.35-3-3v-11c0-1.65,1.35-3,3-3H281.6c1.65,0,3,1.35,3,3v11
	c0,1.65-1.35,3-3,3H248.898z"/>
<g>
	<path style="fill:#EA2A3D;" d="M261.5,122v-11c0-1.65,1.35-3,3-3h-15.602c-1.65,0-3,1.35-3,3v11c0,1.65,1.35,3,3,3H264.5
		C262.85,125,261.5,123.65,261.5,122z"/>
	<path style="fill:#EA2A3D;" d="M298,454h-26.875c-2.75,0-5,2.25-5,5v52.775c12.559-0.511,24.873-1.965,36.875-4.298V459
		C303,456.25,300.75,454,298,454z"/>
</g>
<path style="fill:#B7092B;" d="M153.207,450.926l-7.867,34.707c6.191,3.141,12.537,6.02,19.017,8.635l-9.824-43.342
	C154.169,449.316,153.572,449.316,153.207,450.926z"/>
<g>
	<path style="fill:#EA2A3D;" d="M83.002,404.217l-5.666,30.406c4.85,5.167,9.92,10.124,15.198,14.855L84.1,404.216
		C83.799,402.595,83.305,402.595,83.002,404.217z"/>
	<path style="fill:#EA2A3D;" d="M116.002,404.217l-10.461,56.143c8.026,6.254,16.455,12.014,25.235,17.246l-13.675-73.389
		C116.799,402.595,116.305,402.595,116.002,404.217z"/>
</g>
<g>
	<path style="fill:#B7092B;" d="M180.496,450.926l-10.335,45.6c7.724,2.89,15.629,5.405,23.701,7.516l-12.039-53.115
		C181.458,449.316,180.861,449.316,180.496,450.926z"/>
	<path style="fill:#B7092B;" d="M207.785,450.926L195.642,504.5c8.751,2.217,17.693,3.954,26.791,5.201l-13.322-58.775
		C208.747,449.316,208.15,449.316,207.785,450.926z"/>
</g>
<g>
	<path style="fill:#FE3745;" d="M349.433,404.709l-13.845,94.063c9.239-3.172,18.23-6.874,26.933-11.082l-12.214-82.98
		C350.067,403.077,349.673,403.077,349.433,404.709z"/>
	<path style="fill:#FE3745;" d="M376.722,404.709l-12.057,81.915c7.942-3.936,15.646-8.28,23.071-13.024l-10.14-68.891
		C377.356,403.077,376.962,403.077,376.722,404.709z"/>
	<path style="fill:#FE3745;" d="M404.011,404.709l-9.475,64.371c6.154-4.227,12.109-8.721,17.839-13.478l-7.491-50.893
		C404.645,403.077,404.251,403.077,404.011,404.709z"/>
</g>
<path style="fill:#FFD00D;" d="M240.263,326.967c-0.037-0.034-33.507-27.451-52.596-60.765h-6.77
	c-19.085,32.516-52.077,60.58-52.142,60.648c-10.85,11.298-16.825,25.621-16.825,40.334c0,15.755,6.727,30.827,18.94,42.442
	c0.481,0.457,1.121,0.713,1.784,0.713h103.551c0.663,0,1.303-0.256,1.784-0.713c12.214-11.615,18.941-26.688,18.941-42.442
	C256.93,350.278,251.478,337.122,240.263,326.967z"/>
<path style="fill:#0F9390;" d="M193.858,276.106c-2.176-3.228-4.26-6.534-6.191-9.904h-6.77c-1.972,3.358-4.097,6.666-6.314,9.904
	H193.858z"/>
<path style="fill:#02AF8E;" d="M245.846,367.001l8.002-8.002l2.88,2.88c-0.284-3.902-0.893-7.587-1.825-11.068l-1.055,1.055
	l-8.002-8.003l4.451-4.45c-0.845-1.499-1.767-2.953-2.776-4.357l-5.242,5.241l-8.003-8.003l5.626-5.626
	c-0.598-0.501-1.933-1.631-3.826-3.308l-5.367,5.366l-8.003-8.003l5.056-5.058c-1.151-1.105-2.355-2.283-3.605-3.527l-5.018,5.018
	l-8.003-8.002l5.153-5.153c-1.124-1.208-2.259-2.447-3.407-3.727l-5.313,5.313l-8.003-8.003l5.925-5.925
	c-1.063-1.297-2.122-2.616-3.175-3.958l-6.317,6.316l-8.003-8.003l7.505-7.504c-0.554-0.795-1.099-1.599-1.642-2.403h-3.088
	l-6.341,6.341l-6.341-6.341h-3.507c-0.491,0.717-0.981,1.435-1.481,2.145l7.763,7.763l-8.003,8.003l-6.598-6.598
	c-1.053,1.34-2.112,2.661-3.174,3.959l6.206,6.205l-8.003,8.003l-5.574-5.574c-1.141,1.284-2.271,2.531-3.388,3.745l5.396,5.396
	l-8.003,8.002l-5.203-5.201c-1.239,1.255-2.432,2.443-3.57,3.563l5.206,5.206l-8.003,8.003l-5.419-5.418
	c-1.978,1.804-3.303,2.958-3.771,3.363l5.623,5.622l-8.003,8.003l-4.792-4.793c-0.97,1.447-1.866,2.93-2.698,4.437l3.924,3.923
	l-8.002,8.003l-0.688-0.686c-1.053,3.474-1.769,7.032-2.126,10.633l2.813-2.813l8.002,8.002l-8.002,8.003l-2.841-2.841
	c0.331,3.65,1.025,7.244,2.064,10.751l0.776-0.776l8.002,8.004l-4.066,4.066c0.827,1.51,1.722,2.992,2.688,4.444l4.944-4.944
	l8.003,8.003l-5.818,5.817c0.683,0.711,1.383,1.412,2.105,2.098c0.481,0.457,1.121,0.713,1.784,0.713h0.435l5.062-5.062l5.062,5.062
	h13.016l5.062-5.062l5.061,5.062h13.016l5.062-5.062l5.061,5.062h13.016l5.062-5.062l5.062,5.062h13.016l5.062-5.062l5.061,5.062
	h0.435c0.663,0,1.303-0.256,1.784-0.713c0.722-0.686,1.421-1.387,2.104-2.098l-5.818-5.817l8.003-8.003l4.944,4.944
	c0.966-1.452,1.862-2.935,2.689-4.444l-4.066-4.066l8.002-8.004l0.776,0.776c1.039-3.507,1.733-7.101,2.064-10.751l-2.841,2.841
	L245.846,367.001z M250.282,355.432l-8.003,8.003l-8.003-8.003l8.003-8.003L250.282,355.432z M207.57,351.865l-8.003-8.003
	l8.003-8.003l8.003,8.003L207.57,351.865z M219.14,347.429l8.003,8.003l-8.003,8.004l-8.003-8.004L219.14,347.429z M176.427,343.862
	l8.003-8.003l8.003,8.003l-8.003,8.003L176.427,343.862z M180.864,355.432l-8.003,8.003l-8.003-8.003l8.003-8.003L180.864,355.432z
	 M195.999,347.429l8.003,8.003L196,363.435l-8.003-8.003L195.999,347.429z M195.999,340.296l-8.003-8.003L196,324.29l8.003,8.003
	L195.999,340.296z M184.43,328.726l-8.003-8.002l8.003-8.004l8.003,8.004L184.43,328.726z M180.864,332.293l-8.003,8.003
	l-8.003-8.003l8.003-8.003L180.864,332.293z M169.294,343.862l-8.003,8.003l-8.003-8.003l8.003-8.003L169.294,343.862z
	 M157.724,355.432l-8.003,8.004l-8.003-8.004l8.003-8.003L157.724,355.432z M146.154,367.003l-8.002,8.002l-8.003-8.004l8.003-8.002
	L146.154,367.003z M149.721,370.569l8.003,8.002l-8.003,8.004l-8.003-8.004L149.721,370.569z M153.288,367.003l8.003-8.004
	l8.003,8.002l-8.003,8.004L153.288,367.003z M172.86,370.568l8.003,8.003l-8.003,8.004l-8.003-8.004L172.86,370.568z
	 M176.427,367.001l8.003-8.002l8.003,8.002l-8.003,8.004L176.427,367.001z M196,370.568l8.003,8.003L196,386.575l-8.003-8.004
	L196,370.568z M199.567,367.001l8.003-8.002l8.003,8.004l-8.003,8.002L199.567,367.001z M219.139,370.569l8.003,8.002l-8.003,8.004
	l-8.003-8.004L219.139,370.569z M222.706,367.003l8.003-8.004l8.003,8.002l-8.003,8.004L222.706,367.003z M238.712,343.862
	l-8.003,8.003l-8.003-8.003l8.003-8.003L238.712,343.862z M227.143,332.293l-8.003,8.003l-8.003-8.003l8.003-8.004L227.143,332.293z
	 M215.573,320.723l-8.003,8.003l-8.003-8.002l8.003-8.004L215.573,320.723z M204.003,309.153L196,317.157l-8.003-8.004l8.003-8.004
	L204.003,309.153z M184.43,289.581l8.003,8.002l-8.003,8.003l-8.003-8.003L184.43,289.581z M172.861,301.149l8.003,8.004
	l-8.003,8.004l-8.003-8.004L172.861,301.149z M161.29,312.72l8.003,8.004l-8.003,8.002l-8.003-8.003L161.29,312.72z
	 M149.721,324.289l8.003,8.004l-8.003,8.003l-8.003-8.003L149.721,324.289z M138.151,335.859l8.002,8.003l-8.002,8.003l-8.003-8.003
	L138.151,335.859z M118.579,355.432l8.003-8.003l8.003,8.003l-8.003,8.003L118.579,355.432z M118.579,378.571l8.003-8.003
	l8.004,8.003l-8.004,8.004L118.579,378.571z M130.148,390.142l8.003-8.003l8.002,8.003l-8.003,8.003L130.148,390.142z
	 M149.721,409.714l-8.003-8.003l8.003-8.003l8.003,8.003L149.721,409.714z M153.288,390.142l8.003-8.003l8.003,8.003l-8.003,8.003
	L153.288,390.142z M172.861,409.714l-8.003-8.003l8.003-8.003l8.003,8.003L172.861,409.714z M176.427,390.142l8.003-8.003
	l8.003,8.003l-8.003,8.003L176.427,390.142z M195.999,409.714l-8.003-8.003l8.003-8.003l8.003,8.003L195.999,409.714z
	 M199.566,390.142l8.003-8.003l8.003,8.003l-8.003,8.003L199.566,390.142z M219.139,409.714l-8.004-8.003l8.004-8.003l8.003,8.003
	L219.139,409.714z M230.709,398.145l-8.003-8.003l8.002-8.003l8.003,8.003L230.709,398.145z M242.279,386.575l-8.003-8.004
	l8.003-8.003l8.003,8.003L242.279,386.575z"/>
<g>
</g>
<g>
</g>
<g>
</g>
<g>
</g>
<g>
</g>
<g>
</g>
<g>
</g>
<g>
</g>
<g>
</g>
<g>
</g>
<g>
</g>
<g>
</g>
<g>
</g>
<g>
</g>
<g>
</g>
</svg>
