<?xml version="1.0" encoding="iso-8859-1"?>
<!-- Generator: Adobe Illustrator 19.0.0, SVG Export Plug-In . SVG Version: 6.00 Build 0)  -->
<svg version="1.1" id="Capa_1" xmlns="http://www.w3.org/2000/svg" xmlns:xlink="http://www.w3.org/1999/xlink" x="0px" y="0px"
	 viewBox="0 0 512 512" style="enable-background:new 0 0 512 512;" xml:space="preserve">
<circle style="fill:#3EB7FF;" cx="261.558" cy="267" r="245"/>
<path style="fill:#1A2B63;" d="M472.135,341.613l-6.728-14.432c-0.002-0.003-0.004-0.006-0.005-0.009l-4.69-10.06
	c-2.523-5.408-9.471-9.904-15.438-9.988l-160.131-2.232c-5.969-0.082-11.76,4.648-12.869,10.514l-0.918,4.855
	c-1.109,5.863-6.445,12.727-11.853,15.248l-53.91,25.139c-5.41,2.523-13.98,2.006-19.049-1.148l-3.496-2.178
	c-5.066-3.154-13.637-3.672-19.047-1.148l-3.032,1.414c8.018,19.841-0.318,42.596-19.282,52.562
	c1.448,5.345,3.439,10.832,5.99,16.304c9.842,21.104,25.173,36.018,38.717,39.374l3.459,7.417c2.523,5.41,9.014,7.771,14.422,5.248
	l9.111-4.246l7.219,7.697c1.225,1.305,3.555,1.756,5.178,0.998l8.316-3.877c1.623-0.758,2.775-2.83,2.565-4.609l-1.26-10.477
	l15.445-7.203l7.219,7.699c1.223,1.305,3.553,1.756,5.178,0.998l8.316-3.879c1.623-0.756,2.775-2.83,2.563-4.608l-1.258-10.477
	l80.1-37.352l7.217,7.699c1.229,1.303,3.557,1.754,5.18,0.998l8.316-3.879c1.623-0.756,2.775-2.832,2.563-4.607l-1.258-10.479
	l20.361-9.494l7.219,7.697c1.225,1.307,3.555,1.756,5.178,0.998l8.316-3.877c1.625-0.758,2.775-2.83,2.564-4.607l-1.26-10.478
	l20.363-9.496l7.219,7.699c1.225,1.305,3.553,1.756,5.176,1l8.318-3.879c1.623-0.758,2.775-2.832,2.563-4.607l-1.258-10.479
	l7.145-3.332C472.297,353.512,474.659,347.023,472.135,341.613z"/>
<path style="fill:#02AF8E;" d="M466.72,330l5.415,11.613c2.523,5.41,0.162,11.898-5.248,14.422l-7.145,3.332L461,369.846
	c0.213,1.775-0.94,3.85-2.563,4.607l-8.318,3.879c-1.623,0.756-3.951,0.305-5.176-1l-7.219-7.699l-20.363,9.496l1.26,10.478
	c0.211,1.777-0.939,3.85-2.564,4.607l-8.316,3.877c-1.623,0.758-3.953,0.309-5.178-0.998l-7.219-7.697l-20.361,9.494l1.258,10.479
	c0.213,1.775-0.939,3.852-2.563,4.607l-8.316,3.879c-1.623,0.756-3.951,0.305-5.18-0.998l-7.217-7.699l-80.1,37.352l1.258,10.477
	c0.213,1.777-0.94,3.852-2.563,4.608l-8.316,3.879c-1.625,0.758-3.955,0.307-5.178-0.998l-7.219-7.699l-15.445,7.203l1.26,10.477
	c0.211,1.779-0.941,3.852-2.565,4.609l-8.316,3.877c-1.623,0.758-3.953,0.307-5.178-0.998l-7.219-7.697l-9.111,4.246
	c-5.408,2.523-11.898,0.162-14.422-5.248l-3.459-7.417c-13.544-3.356-28.875-18.27-38.717-39.374
	c-5.92-12.699-8.844-25.48-8.9-36.379c-3.6-0.434-6.902-2.65-8.547-6.178c-2.533-5.432-0.184-11.891,5.248-14.422l9.769-4.555
	L128.962,330H24.748c27.803,104.778,123.28,182,236.808,182c113.525,0,209.004-77.222,236.808-182H466.72z"/>
<path style="fill:#FFD00D;" d="M301.479,306.228l8.674,0.121l7.934-36.474c0,0,35.885,23.697,35.906,23.711
	c1.004,0.623,2.299,0.531,3.207-0.232c0.926-0.781,1.228-2.082,0.74-3.191l-17.287-39.322l42.91-1.918
	c1.211-0.053,2.242-0.898,2.533-2.076c0.283-1.152-0.211-2.354-1.213-2.977c-0.006-0.004-3.515-2.052-8.367-4.884
	c-45.487-0.391-84.965-26.429-104.646-64.333c-10.611-7.007-25.691-16.964-25.704-16.973c-1.004-0.623-2.299-0.533-3.205,0.232
	c-0.928,0.783-1.229,2.08-0.74,3.189l17.287,39.322l-42.91,1.918c-1.211,0.055-2.244,0.9-2.533,2.076
	c-0.285,1.154,0.207,2.355,1.211,2.979c0.021,0.014,37.164,21.689,37.164,21.689l-33.59,26.773
	c-0.945,0.758-1.281,2.047-0.826,3.168c0.223,0.549,0.611,0.996,1.09,1.293c0.5,0.311,1.1,0.459,1.715,0.398l42.738-4.289
	l-11.434,41.4c-0.324,1.172,0.162,2.412,1.191,3.053c1.031,0.641,2.357,0.525,3.264-0.283l32.055-28.59L301.479,306.228z"/>
<path style="fill:#EEF6FF;" d="M164.423,357.08c2.083-0.972,4.824-1.507,7.718-1.507c3.943,0,7.726,0.947,10.378,2.598l3.496,2.178
	c2.962,1.844,7.13,2.9,11.436,2.9c3.226,0,6.187-0.586,8.564-1.694l53.91-25.139c0.406-0.189,0.811-0.407,1.214-0.641
	L112.264,16.508c-1.162-2.492-4.152-3.58-6.645-2.418L8.325,59.459c-2.492,1.162-3.58,4.152-2.418,6.645l139.761,299.722
	L164.423,357.08z"/>
<g>
	<path style="fill:#D9EAFC;" d="M164.423,357.08c2.083-0.972,4.824-1.507,7.718-1.507c1.789,0,3.538,0.204,5.17,0.571L33.493,47.723
		l-15.652,7.299l141.877,304.253L164.423,357.08z"/>
	<path style="fill:#D9EAFC;" d="M206.015,361.555l9.802-4.57L64.799,33.125l-15.654,7.299l150.49,322.725
		C202.009,362.943,204.187,362.407,206.015,361.555z"/>
	
		<rect x="-14.877" y="175.47" transform="matrix(-0.4226 -0.9063 0.9063 -0.4226 66.1531 410.3547)" style="fill:#D9EAFC;" width="357.335" height="17.271"/>
</g>
<path style="fill:#85A0DD;" d="M260.752,335.761l0.539-0.251c5.408-2.521,10.744-9.385,11.854-15.248l0.918-4.855
	c0.994-5.256,5.75-9.59,11.022-10.376l-26.843-0.376c-4.496-0.06-10.197,3.857-5.609,13.693L260.752,335.761z"/>
<path style="fill:#293D7C;" d="M466.921,331.292c-0.161-0.889-0.425-1.771-0.823-2.626l-5.387-11.553
	c-2.523-5.408-9.471-9.904-15.438-9.988l-160.131-2.232c-5.969-0.082-11.76,4.648-12.869,10.514l-0.918,4.855
	c-1.109,5.863-6.445,12.727-11.853,15.248l-53.91,25.139c-5.41,2.523-13.98,2.006-19.049-1.148l-3.496-2.178
	c-5.066-3.154-13.637-3.672-19.047-1.148l-3.032,1.414c8.018,19.841-0.318,42.596-19.282,52.562
	c1.448,5.345,3.439,10.832,5.99,16.304c8.751,18.764,21.842,32.635,34.157,37.842L466.921,331.292z"/>
<path style="fill:#1A2B63;" d="M167.867,454.924l21.883-10.22c-8.726-7.044-17.093-17.866-23.284-31.143
	c-3.325-7.133-5.704-14.291-7.162-21.128c-3.806,7.346-9.811,13.613-17.617,17.716c1.448,5.345,3.439,10.832,5.99,16.304
	C153.131,438.151,160.277,447.94,167.867,454.924z"/>
<path style="fill:#85A0DD;" d="M378.515,356.545c2.744-1.279,5.38-2.738,7.904-4.348c-7.222-6.715-18.048-8.789-27.536-4.365
	l-68.848,32.103c-9.695,4.522-15.102,14.477-14.324,24.548L378.515,356.545z"/>
<path style="fill:#FFFFFF;" d="M417.116,307.734l0.179-0.999l-132.151-1.843c-5.969-0.082-11.76,4.648-12.869,10.514l-0.578,3.059
	l141.465,1.97C414.868,316.367,416.204,312.119,417.116,307.734z"/>
<path style="fill:#85A0DD;" d="M417.116,307.734l0.179-0.999l-25.081-0.349c-1.502,4.756-3.525,9.342-6.027,13.672l26.975,0.376
	C414.868,316.367,416.204,312.119,417.116,307.734z"/>
<g>
	<path style="fill:#FFFFFF;" d="M205.218,437.355l-2.704-75.67c-3.391,0.793-7.351,0.727-10.863-0.131l2.884,80.782L205.218,437.355
		z"/>
	<polygon style="fill:#FFFFFF;" points="230.265,425.676 227.577,350.398 216.895,355.379 219.584,430.656 	"/>
	<polygon style="fill:#FFFFFF;" points="255.314,413.995 252.624,338.719 241.942,343.699 244.63,418.977 	"/>
</g>
<g>
	<path style="fill:#D9EAFC;" d="M289.963,325.95c-0.568,0-1.146-0.097-1.71-0.303c-2.595-0.944-3.933-3.813-2.988-6.408
		l6.228-17.115c0.943-2.596,3.815-3.934,6.408-2.988c2.595,0.944,3.933,3.813,2.988,6.408l-6.229,17.115
		C293.923,324.69,292.005,325.95,289.963,325.95z"/>
	<path style="fill:#D9EAFC;" d="M310.481,326.03c-0.568,0-1.145-0.097-1.71-0.303c-2.595-0.944-3.933-3.813-2.988-6.408
		l6.228-17.115c0.943-2.596,3.815-3.936,6.408-2.988c2.595,0.944,3.933,3.814,2.988,6.408l-6.229,17.115
		C314.441,324.77,312.523,326.03,310.481,326.03z"/>
	<path style="fill:#D9EAFC;" d="M330.997,326.106c-0.568,0-1.145-0.097-1.711-0.303c-2.595-0.944-3.932-3.814-2.987-6.409
		l6.23-17.113c0.945-2.596,3.813-3.935,6.409-2.987c2.595,0.944,3.932,3.813,2.987,6.409l-6.23,17.113
		C334.956,324.847,333.039,326.106,330.997,326.106z"/>
	<path style="fill:#D9EAFC;" d="M351.514,326.185c-0.568,0-1.146-0.097-1.711-0.303c-2.595-0.944-3.932-3.813-2.987-6.409
		l6.23-17.113c0.945-2.596,3.813-3.934,6.409-2.987c2.595,0.944,3.932,3.813,2.987,6.409l-6.23,17.113
		C355.473,324.925,353.556,326.185,351.514,326.185z"/>
	<path style="fill:#D9EAFC;" d="M372.032,326.265c-0.568,0-1.146-0.097-1.71-0.303c-2.595-0.944-3.933-3.814-2.988-6.408
		l6.229-17.115c0.944-2.596,3.816-3.935,6.408-2.988c2.595,0.944,3.933,3.814,2.988,6.408l-6.229,17.115
		C375.992,325.004,374.074,326.265,372.032,326.265z"/>
	<path style="fill:#D9EAFC;" d="M466.92,331.292c-0.16-0.888-0.423-1.77-0.822-2.626l-5.387-11.553
		c-2.523-5.408-9.471-9.904-15.438-9.988l-28.975-0.402c-4.049,20.73-17.6,39.307-38.207,48.916L166.963,454.09
		c4.864,4.643,9.933,8.112,14.878,10.201L466.92,331.292z"/>
</g>
<path style="fill:#85A0DD;" d="M161.993,357.109l-26.516,12.365c-5.432,2.531-7.781,8.99-5.248,14.422
	c1.645,3.527,4.947,5.744,8.547,6.178c0.033,6.363,1.051,13.369,3.064,20.625C161.709,400.961,170.493,377.428,161.993,357.109z"/>
<circle style="fill:#EEF6FF;" cx="377.558" cy="120" r="120"/>
<path style="fill:#D9EAFC;" d="M278.999,120c0-62.661,48.029-114.094,109.278-119.518C384.744,0.169,381.169,0,377.555,0
	c-66.273,0-120,53.725-120,120c0,66.273,53.727,120,120,120c3.614,0,7.188-0.169,10.722-0.482
	C327.028,234.093,278.999,182.659,278.999,120z"/>
<path style="fill:#232323;" d="M480.567,105.871l16.855,8.588c-1.416-31.154-14.709-59.209-35.461-79.748l-3.941,24.883
	l-56.252-37.016l19.678-14.297C407.852,2.935,393.045,0,377.555,0s-30.295,2.935-43.889,8.281l19.678,14.297L297.66,59.219
	l-3.967-25.041c-21.139,20.66-34.674,49.061-36.02,80.623l16.961-8.643l23.389,74.105l-26.59-4.213
	c13.516,25.535,35.973,45.604,63.205,56.037l-2.801-17.676h91.334l-2.805,17.717c27.252-10.412,49.732-30.471,63.27-56.004
	l-26.572,4.209L480.567,105.871z M449.251,181.572l-16.279,2.578l-27.426-27.426l13.439-41.367l37.598-21.707l17.59,8.963
	L449.251,181.572z M456.805,67.268l-3.152,19.9l-36.172,20.885l-36.387-26.435v-44.02l14.553-10.572L456.805,67.268z
	 M359.463,27.025l14.553,10.572v44.02l-36.242,26.33l-35.656-20.586l-3.24-20.469L359.463,27.025z M281.03,102.9l17.977-9.16
	l37.045,21.387l13.387,41.197l-27.695,27.695l-15.902-2.518L281.03,102.9z M330.717,207.334l-3.045-19.232l27.147-27.146h44.945
	l27.518,27.518l-2.986,18.861h-93.579V207.334z"/>
<g>
	<path style="fill:#37C47A;" d="M406.274,434l-10.246,0.06c-2.762,0.016-5.014-2.209-5.029-4.971
		c-0.018-2.762,2.209-5.013,4.971-5.029l10.246-0.06c2.76-0.017,5.012,2.209,5.029,4.971
		C411.26,431.732,409.036,433.983,406.274,434z"/>
	<path style="fill:#37C47A;" d="M339.274,454l-10.246,0.06c-2.762,0.016-5.014-2.209-5.029-4.971
		c-0.018-2.762,2.209-5.013,4.971-5.029l10.246-0.06c2.76-0.017,5.012,2.209,5.029,4.971
		C344.26,451.732,342.036,453.983,339.274,454z"/>
	<path style="fill:#37C47A;" d="M90.057,365l-10.246,0.06c-2.762,0.016-5.014-2.209-5.029-4.971
		c-0.018-2.762,2.209-5.013,4.971-5.029L89.999,355c2.76-0.017,5.012,2.209,5.029,4.971C95.043,362.732,92.819,364.983,90.057,365z"
		/>
	<path style="fill:#37C47A;" d="M112.274,409l-10.246,0.06c-2.762,0.016-5.014-2.209-5.029-4.971
		c-0.018-2.762,2.209-5.013,4.971-5.029l10.246-0.06c2.76-0.017,5.012,2.209,5.029,4.971
		C117.26,406.732,115.036,408.983,112.274,409z"/>
	<path style="fill:#37C47A;" d="M283.274,493l-10.246,0.06c-2.762,0.016-5.014-2.209-5.029-4.971
		c-0.018-2.762,2.209-5.013,4.971-5.029l10.246-0.06c2.76-0.017,5.012,2.209,5.029,4.971
		C288.26,490.732,286.036,492.983,283.274,493z"/>
</g>
<path style="fill:#AEC1ED;" d="M466.413,329.338L179.491,463.196c2.328,1.181,4.641,2.07,6.902,2.631l2.171,4.655l282.429-131.32
	L466.413,329.338z"/>
<g>
</g>
<g>
</g>
<g>
</g>
<g>
</g>
<g>
</g>
<g>
</g>
<g>
</g>
<g>
</g>
<g>
</g>
<g>
</g>
<g>
</g>
<g>
</g>
<g>
</g>
<g>
</g>
<g>
</g>
</svg>
