<?xml version="1.0" encoding="iso-8859-1"?>
<!-- Generator: Adobe Illustrator 19.0.0, SVG Export Plug-In . SVG Version: 6.00 Build 0)  -->
<svg version="1.1" id="Capa_1" xmlns="http://www.w3.org/2000/svg" xmlns:xlink="http://www.w3.org/1999/xlink" x="0px" y="0px"
	 viewBox="0 0 512 512" style="enable-background:new 0 0 512 512;" xml:space="preserve">
<circle style="fill:#69CDFF;" cx="256" cy="267" r="245"/>
<g>
	<path style="fill:#FFC987;" d="M350.668,380c-0.001-15.935-0.002-65-0.002-65c0-4.88,1.114-9.561,3.313-13.917
		c0.07-0.14,0.107-0.294,0.107-0.45V255H340v125H350.668z"/>
	<path style="fill:#FFC987;" d="M483.914,255v45.633c0,0.156,0.037,0.311,0.107,0.45c2.198,4.355,3.313,9.037,3.313,13.917v32.806
		c4.121-11.794,7.377-23.993,9.666-36.532V255H483.914z"/>
</g>
<path style="fill:#A05F33;" d="M187.668,380c-0.001-15.935-0.002-65-0.002-65c0-4.88,1.114-9.561,3.313-13.917
	c0.07-0.14,0.107-0.294,0.107-0.45V255H177v125H187.668z"/>
<path style="fill:#293D7C;" d="M191.086,187.414c0-1.955,0.562-4.094,1.503-6.125C183.326,186.131,177,195.823,177,207v53h14.086
	V187.414z"/>
<path style="fill:#A05F33;" d="M324.334,315c0,0-0.001,49.065-0.002,65H334V255h-13.086v45.633c0,0.156,0.037,0.311,0.107,0.45
	C323.22,305.439,324.334,310.12,324.334,315z"/>
<path style="fill:#293D7C;" d="M319.727,182.02c0.747,1.809,1.188,3.672,1.188,5.395V260H334v-53
	C334,196.361,328.268,187.065,319.727,182.02z"/>
<path style="fill:#02AF8E;" d="M53.556,405C97.67,469.594,171.877,512,256,512s158.329-42.406,202.443-107H53.556z"/>
<g>
	<path style="fill:#37C47A;" d="M344,443h-10.246c-2.762,0-5-2.238-5-5s2.238-5,5-5H344c2.762,0,5,2.238,5,5S346.762,443,344,443z"
		/>
	<path style="fill:#37C47A;" d="M259.246,504H249c-2.762,0-5-2.238-5-5s2.238-5,5-5h10.246c2.762,0,5,2.238,5,5
		S262.008,504,259.246,504z"/>
	<path style="fill:#37C47A;" d="M260.246,436H250c-2.762,0-5-2.238-5-5s2.238-5,5-5h10.246c2.762,0,5,2.238,5,5
		S263.008,436,260.246,436z"/>
	<path style="fill:#37C47A;" d="M424.246,431H414c-2.762,0-5-2.238-5-5s2.238-5,5-5h10.246c2.762,0,5,2.238,5,5
		S427.008,431,424.246,431z"/>
	<path style="fill:#37C47A;" d="M181,431h-10.246c-2.762,0-5-2.238-5-5s2.238-5,5-5H181c2.762,0,5,2.238,5,5S183.762,431,181,431z"
		/>
	<path style="fill:#37C47A;" d="M98.246,430H88c-2.762,0-5-2.238-5-5s2.238-5,5-5h10.246c2.762,0,5,2.238,5,5
		S101.008,430,98.246,430z"/>
	<path style="fill:#37C47A;" d="M168.246,451H158c-1.338,0-2.547,0.533-3.444,1.389c4.522,1.072,8.196,4.336,9.839,8.611h3.852
		c2.762,0,5-2.238,5-5S171.008,451,168.246,451z"/>
</g>
<path style="fill:#B7092B;" d="M313.109,172.672l-35.358-19.043v11.161c0,2.492-1.459,6.115-3.186,7.911l-15.82,16.455
	c-0.731,0.761-1.706,1.181-2.744,1.181s-2.013-0.42-2.744-1.181l-15.82-16.455c-1.728-1.796-3.187-5.419-3.187-7.911v-11.161
	l-35.358,19.043c-4.843,2.608-8.805,9.242-8.805,14.742v115.581c4.7-11.148,15.74-18.995,28.58-18.995c17.094,0,31,13.906,31,31
	v13.715c0,0.553,0.447,1,1,1h10.668c0.553,0,1-0.447,1-1V315c0-17.094,13.906-31,31-31c12.84,0,23.88,7.847,28.58,18.995V187.414
	C321.914,181.914,317.952,175.28,313.109,172.672z"/>
<path style="fill:#A00026;" d="M197.039,196.864c-2.783,1.499-5.282,4.287-6.953,7.442v98.688
	c2.931-6.951,8.326-12.616,15.086-15.899v-94.611L197.039,196.864z"/>
<g>
	<path style="fill:#1A2B63;" d="M313.109,172.672l-35.358-19.043v11.161c0,2.492-1.459,6.115-3.186,7.911l-1.525,1.586
		l41.921,22.577c2.783,1.499,5.282,4.287,6.953,7.442v-16.893C321.914,181.914,317.952,175.28,313.109,172.672z"/>
	<path style="fill:#1A2B63;" d="M237.436,172.701c-1.728-1.796-3.187-5.419-3.187-7.911v-11.161l-35.358,19.043
		c-4.843,2.608-8.805,9.242-8.805,14.742v16.893c1.671-3.155,4.17-5.943,6.953-7.442l41.92-22.578L237.436,172.701z"/>
</g>
<path style="fill:#FFFFFF;" d="M287.174,158.704l-9.423-5.075v11.161c0,2.492-1.459,6.115-3.186,7.911l-15.82,16.455
	c-0.731,0.761-1.706,1.181-2.744,1.181s-2.013-0.42-2.744-1.181l-15.82-16.455c-1.728-1.796-3.187-5.419-3.187-7.911v-11.162
	l-9.423,5.075c-0.972,0.523-1.577,1.538-1.577,2.642v3.445c0,5.316,2.573,11.704,6.257,15.535l15.819,16.455
	c2.783,2.895,6.674,4.556,10.675,4.556c4.002,0,7.893-1.661,10.673-4.556l15.821-16.454c3.684-3.832,6.257-10.221,6.257-15.536
	v-3.444C288.751,160.242,288.146,159.227,287.174,158.704z"/>
<path style="fill:#A05F33;" d="M266.348,152.493h-20.695c-4.332,0-8.5-0.711-12.403-2.006v14.303c0,2.75,1.56,6.622,3.466,8.605
	l15.82,16.455c1.905,1.982,5.024,1.982,6.93,0l15.82-16.455c1.906-1.982,3.466-5.855,3.466-8.605v-14.303
	C274.848,151.782,270.68,152.493,266.348,152.493z"/>
<path style="fill:#87502A;" d="M248.498,164.79v-12.297h-2.846c-4.332,0-8.5-0.711-12.403-2.006v14.303
	c0,2.75,1.56,6.622,3.466,8.605l15.82,16.455c1.905,1.982,5.024,1.982,6.93,0l4.16-4.326l-11.661-12.129
	C250.058,171.412,248.498,167.54,248.498,164.79z"/>
<path style="fill:#FFAF10;" d="M266.348,0h-20.695c-0.063,0-0.125,0.004-0.188,0.005C245.44,0.004,245.418,0,245.395,0H214.92
	c-1.131,0-2.165,0.636-2.676,1.644c-0.512,1.009-0.412,2.219,0.257,3.131L215.6,9h-11.68c-1.131,0-2.165,0.636-2.676,1.644
	c-0.512,1.009-0.412,2.219,0.257,3.131L208.267,23h-7.347c-1.131,0-2.165,0.636-2.676,1.644c-0.512,1.009-0.412,2.219,0.257,3.131
	L204.533,36h-3.613c-1.131,0-2.165,0.636-2.676,1.644c-0.512,1.009-0.412,2.219,0.257,3.131L204.9,49.5h-4.48
	c-1.131,0-2.165,0.636-2.676,1.644c-0.512,1.009-0.412,2.219,0.257,3.131l7.149,9.749v1.399c0-22.368,18.134-31.656,40.502-31.656
	h20.695c22.368,0,40.502,9.288,40.502,31.656V40.502C306.85,18.133,288.716,0,266.348,0z"/>
<path style="fill:#87502A;" d="M206.15,72.845h-1.279c-7.365,0-13.391,6.025-13.391,13.391v9.642c0,7.364,6.025,13.39,13.391,13.39
	h1.279V72.845z"/>
<path style="fill:#A05F33;" d="M307.129,72.845h-1.279v36.422h1.279c7.365,0,13.391-6.025,13.391-13.39v-9.642
	C320.52,78.87,314.494,72.845,307.129,72.845z"/>
<path style="fill:#BF7E52;" d="M306.85,112.991c0,22.368-18.134,40.502-40.502,40.502h-20.695
	c-22.368,0-40.502-18.134-40.502-40.502V63.916c0-22.368,18.134-31.656,40.502-31.656h20.695c22.368,0,40.502,9.288,40.502,31.656
	L306.85,112.991L306.85,112.991z"/>
<path style="fill:#A05F33;" d="M220.301,112.991V63.916c0-22.368,18.134-31.656,40.502-31.656h-15.15
	c-22.368,0-40.502,9.288-40.502,31.656v49.075c0,22.368,18.134,40.502,40.502,40.502h15.15
	C238.435,153.493,220.301,135.359,220.301,112.991z"/>
<g>
	<circle style="fill:#232323;" cx="227.38" cy="87.93" r="8.325"/>
	<circle style="fill:#232323;" cx="284.62" cy="87.93" r="8.325"/>
</g>
<g>
	<path style="fill:#87502A;" d="M265.887,117.41h-9.435c-6.461,0-11.717-5.256-11.717-11.717V74.337
		c0-0.907-0.767-1.674-1.674-1.674h-26.604c-2.775,0-5.023-2.248-5.023-5.022c0-2.772,2.248-5.021,5.023-5.021h26.604
		c6.461,0,11.717,5.256,11.717,11.717v31.356c0,0.907,0.766,1.674,1.674,1.674h9.435c2.773,0,5.021,2.248,5.021,5.021
		C270.907,115.162,268.66,117.41,265.887,117.41z"/>
	<path style="fill:#87502A;" d="M268.015,135.101h-23.433c-2.775,0-5.023-2.248-5.023-5.021c0-2.773,2.248-5.021,5.023-5.021h23.433
		c2.773,0,5.022,2.248,5.022,5.021C273.036,132.852,270.788,135.101,268.015,135.101z"/>
	<path style="fill:#87502A;" d="M295.023,72.663H271.61c-2.775,0-5.023-2.248-5.023-5.022c0-2.772,2.248-5.021,5.023-5.021h23.413
		c2.773,0,5.021,2.248,5.021,5.021C300.045,70.415,297.797,72.663,295.023,72.663z"/>
</g>
<path style="fill:#445EA0;" d="M325.334,380v-65c0-17.645-14.356-32-32-32c-17.645,0-32,14.355-32,32v13.715h-10.668V315
	c0-17.645-14.355-32-32-32s-32,14.355-32,32v65H325.334z"/>
<g>
	<path style="fill:#FFFFFF;" d="M177,236c4.697-1.959,8-6.593,8-12s-3.303-10.041-8-12V236z"/>
	<path style="fill:#FFFFFF;" d="M291.5,247h-71c-2.762,0-5-2.238-5-5s2.238-5,5-5h71c2.762,0,5,2.238,5,5S294.262,247,291.5,247z"/>
</g>
<path style="fill:#FFD00D;" d="M285,225c-1.65,0-2.325-1.169-1.5-2.598l8.022-13.896c0.825-1.429,2.175-1.429,3,0l8.022,13.896
	c0.825,1.429,0.15,2.598-1.5,2.598H285z"/>
<g>
	<path style="fill:#293D7C;" d="M354.086,187.414c0-1.955,0.562-4.094,1.503-6.125C346.326,186.131,340,195.823,340,207v53h14.086
		V187.414z"/>
	<path style="fill:#293D7C;" d="M482.727,182.02c0.747,1.809,1.188,3.672,1.188,5.395V260H497v-53
		C497,196.361,491.268,187.065,482.727,182.02z"/>
</g>
<path style="fill:#B7092B;" d="M476.109,172.672l-35.358-19.043v11.161c0,2.492-1.459,6.115-3.186,7.911l-15.82,16.455
	c-0.731,0.761-1.706,1.181-2.744,1.181s-2.013-0.42-2.744-1.181l-15.82-16.455c-1.727-1.796-3.186-5.419-3.186-7.911v-11.161
	l-35.358,19.043c-4.843,2.608-8.805,9.242-8.805,14.742v115.581c4.7-11.148,15.74-18.995,28.58-18.995c17.094,0,31,13.906,31,31
	v13.715c0,0.553,0.447,1,1,1h10.668c0.553,0,1-0.447,1-1V315c0-17.094,13.906-31,31-31c12.84,0,23.88,7.847,28.58,18.995V187.414
	C484.914,181.914,480.952,175.28,476.109,172.672z"/>
<path style="fill:#A00026;" d="M360.039,196.864c-2.783,1.499-5.282,4.287-6.953,7.442v98.688
	c2.931-6.951,8.326-12.616,15.086-15.899v-94.611L360.039,196.864z"/>
<path style="fill:#445EA0;" d="M456.334,283c-17.645,0-32,14.355-32,32v13.715h-10.668V315c0-17.645-14.355-32-32-32
	c-17.644,0-32,14.355-32,32v65h123.763c5.837-11.207,10.834-22.919,14.905-35.059V315C488.334,297.355,473.978,283,456.334,283z"/>
<g>
	<path style="fill:#1A2B63;" d="M476.109,172.672l-35.358-19.043v11.161c0,2.492-1.459,6.115-3.186,7.911l-1.525,1.586
		l41.921,22.577c2.783,1.499,5.282,4.287,6.953,7.442v-16.893C484.914,181.914,480.952,175.28,476.109,172.672z"/>
	<path style="fill:#1A2B63;" d="M400.435,172.701c-1.727-1.796-3.186-5.419-3.186-7.911v-11.161l-35.358,19.043
		c-4.843,2.608-8.805,9.242-8.805,14.742v16.893c1.671-3.155,4.17-5.943,6.953-7.442l41.92-22.578L400.435,172.701z"/>
</g>
<path style="fill:#FFFFFF;" d="M450.174,158.704l-9.423-5.075v11.161c0,2.492-1.459,6.115-3.186,7.911l-15.82,16.455
	c-0.731,0.761-1.706,1.181-2.744,1.181s-2.013-0.42-2.744-1.181l-15.82-16.455c-1.727-1.796-3.186-5.419-3.186-7.911v-11.162
	l-9.423,5.075c-0.972,0.523-1.577,1.538-1.577,2.642v3.445c0,5.316,2.573,11.704,6.257,15.535l15.819,16.455
	c2.783,2.895,6.674,4.556,10.675,4.556c4.002,0,7.893-1.661,10.673-4.556l15.821-16.454c3.684-3.832,6.257-10.221,6.257-15.536
	v-3.444C451.751,160.242,451.146,159.227,450.174,158.704z"/>
<path style="fill:#FF9F60;" d="M429.348,152.493h-20.695c-4.332,0-8.5-0.711-12.403-2.006v14.303c0,2.75,1.56,6.622,3.466,8.605
	l15.82,16.455c1.905,1.982,5.024,1.982,6.93,0l15.82-16.455c1.906-1.982,3.466-5.855,3.466-8.605v-14.303
	C437.848,151.782,433.68,152.493,429.348,152.493z"/>
<path style="fill:#FF8D4D;" d="M411.498,164.79v-12.297h-2.846c-4.332,0-8.5-0.711-12.403-2.006v14.303
	c0,2.75,1.56,6.622,3.466,8.605l15.82,16.455c1.905,1.982,5.024,1.982,6.93,0l4.16-4.326l-11.661-12.129
	C413.058,171.412,411.498,167.54,411.498,164.79z"/>
<path style="fill:#232323;" d="M429.348,0h-20.695c-22.368,0-40.502,18.133-40.502,40.502v24.921
	c0-22.368,18.134-31.656,40.502-31.656h20.695c22.368,0,40.502,9.288,40.502,31.656V40.502C469.85,18.133,451.716,0,429.348,0z"/>
<g>
	<path style="fill:#FF9F60;" d="M369.15,72.845h-1.279c-7.365,0-13.391,6.025-13.391,13.391v9.642c0,7.364,6.025,13.39,13.391,13.39
		h1.279V72.845z"/>
	<path style="fill:#FF9F60;" d="M470.129,72.845h-1.279v36.422h1.279c7.365,0,13.391-6.025,13.391-13.39v-9.642
		C483.52,78.87,477.494,72.845,470.129,72.845z"/>
</g>
<path style="fill:#FFC987;" d="M469.85,112.991c0,22.368-18.134,40.502-40.502,40.502h-20.695
	c-22.368,0-40.502-18.134-40.502-40.502V63.916c0-22.368,18.134-31.656,40.502-31.656h20.695c22.368,0,40.502,9.288,40.502,31.656
	L469.85,112.991L469.85,112.991z"/>
<path style="fill:#F2B675;" d="M383.301,112.991V63.916c0-22.368,18.134-31.656,40.502-31.656h-15.15
	c-22.368,0-40.502,9.288-40.502,31.656v49.075c0,22.368,18.134,40.502,40.502,40.502h15.15
	C401.435,153.493,383.301,135.359,383.301,112.991z"/>
<g>
	<circle style="fill:#293D7C;" cx="390.38" cy="87.93" r="8.325"/>
	<circle style="fill:#293D7C;" cx="447.62" cy="87.93" r="8.325"/>
</g>
<g>
	<path style="fill:#BF7E52;" d="M428.887,117.41h-9.435c-6.461,0-11.717-5.256-11.717-11.717V74.337
		c0-0.907-0.767-1.674-1.674-1.674h-26.604c-2.774,0-5.022-2.248-5.022-5.022c0-2.772,2.248-5.021,5.022-5.021h26.604
		c6.461,0,11.717,5.256,11.717,11.717v31.356c0,0.907,0.766,1.674,1.674,1.674h9.435c2.773,0,5.021,2.248,5.021,5.021
		C433.907,115.162,431.66,117.41,428.887,117.41z"/>
	<path style="fill:#BF7E52;" d="M431.015,135.101h-23.434c-2.774,0-5.022-2.248-5.022-5.021c0-2.773,2.248-5.021,5.022-5.021h23.434
		c2.773,0,5.022,2.248,5.022,5.021C436.036,132.852,433.788,135.101,431.015,135.101z"/>
	<path style="fill:#BF7E52;" d="M458.023,72.663H434.61c-2.775,0-5.023-2.248-5.023-5.022c0-2.772,2.248-5.021,5.023-5.021h23.413
		c2.773,0,5.021,2.248,5.021,5.021C463.045,70.415,460.797,72.663,458.023,72.663z"/>
</g>
<g>
	<path style="fill:#FFFFFF;" d="M340,236c4.697-1.959,8-6.593,8-12s-3.303-10.041-8-12V236z"/>
	<path style="fill:#FFFFFF;" d="M454.5,247h-71c-2.762,0-5-2.238-5-5s2.238-5,5-5h71c2.762,0,5,2.238,5,5S457.262,247,454.5,247z"/>
</g>
<path style="fill:#FFD00D;" d="M448,225c-1.65,0-2.325-1.169-1.5-2.598l8.022-13.896c0.825-1.429,2.175-1.429,3,0l8.022,13.896
	c0.825,1.429,0.15,2.598-1.5,2.598H448z"/>
<path style="fill:#FF9F60;" d="M24.666,315c0-4.88,1.114-9.561,3.313-13.917c0.07-0.14,0.107-0.294,0.107-0.45V255H14v50.38
	c2.3,14.618,5.902,28.803,10.666,42.441V315z"/>
<path style="fill:#293D7C;" d="M28.086,187.414c0-1.955,0.562-4.094,1.503-6.125C20.326,186.131,14,195.823,14,207v53h14.086
	V187.414z"/>
<path style="fill:#FF9F60;" d="M161.334,315c0,0-0.001,49.065-0.002,65H171V255h-13.086v45.633c0,0.156,0.037,0.311,0.107,0.45
	C160.22,305.439,161.334,310.12,161.334,315z"/>
<path style="fill:#293D7C;" d="M156.727,182.02c0.747,1.809,1.188,3.672,1.188,5.395V260H171v-53
	C171,196.361,165.268,187.065,156.727,182.02z"/>
<path style="fill:#B7092B;" d="M150.109,172.672l-35.358-19.043v11.161c0,2.492-1.459,6.115-3.187,7.911l-15.82,16.455
	c-0.731,0.761-1.706,1.181-2.744,1.181s-2.013-0.42-2.744-1.181l-15.82-16.455c-1.728-1.796-3.187-5.419-3.187-7.911v-11.161
	l-35.358,19.043c-4.843,2.608-8.805,9.242-8.805,14.742v115.581c4.7-11.148,15.74-18.995,28.58-18.995c17.094,0,31,13.906,31,31
	v13.715c0,0.553,0.447,1,1,1h10.668c0.553,0,1-0.447,1-1V315c0-17.094,13.906-31,31-31c12.84,0,23.88,7.847,28.58,18.995V187.414
	C158.914,181.914,154.952,175.28,150.109,172.672z"/>
<path style="fill:#A00026;" d="M34.039,196.864c-2.783,1.499-5.282,4.287-6.953,7.442v98.688
	c2.931-6.951,8.326-12.616,15.086-15.899v-94.611L34.039,196.864z"/>
<g>
	<path style="fill:#1A2B63;" d="M74.436,172.701c-1.728-1.796-3.187-5.419-3.187-7.911v-11.161l-35.358,19.043
		c-4.843,2.608-8.805,9.242-8.805,14.742v16.893c1.671-3.155,4.17-5.943,6.953-7.442l41.92-22.578L74.436,172.701z"/>
	<path style="fill:#1A2B63;" d="M150.109,172.672l-35.358-19.043v11.161c0,2.492-1.459,6.115-3.187,7.911l-1.524,1.586
		l41.921,22.577c2.783,1.499,5.282,4.287,6.953,7.442v-16.893C158.914,181.914,154.952,175.28,150.109,172.672z"/>
</g>
<path style="fill:#FFFFFF;" d="M124.174,158.704l-9.423-5.075v11.161c0,2.492-1.459,6.115-3.187,7.911l-15.82,16.455
	c-0.731,0.761-1.706,1.181-2.744,1.181s-2.013-0.42-2.744-1.181l-15.82-16.455c-1.728-1.796-3.187-5.419-3.187-7.911v-11.162
	l-9.423,5.075c-0.972,0.523-1.577,1.538-1.577,2.642v3.445c0,5.316,2.573,11.704,6.257,15.535l15.819,16.455
	c2.783,2.895,6.674,4.556,10.675,4.556c4.002,0,7.893-1.661,10.673-4.556l15.821-16.454c3.684-3.832,6.257-10.221,6.257-15.536
	v-3.444C125.751,160.242,125.146,159.227,124.174,158.704z"/>
<path style="fill:#FF9F60;" d="M103.348,152.493H82.652c-4.332,0-8.5-0.711-12.403-2.006v14.303c0,2.75,1.56,6.622,3.466,8.605
	l15.82,16.455c1.905,1.982,5.024,1.982,6.93,0l15.82-16.455c1.906-1.982,3.466-5.855,3.466-8.605v-14.303
	C111.848,151.782,107.68,152.493,103.348,152.493z"/>
<path style="fill:#FF8D4D;" d="M85.498,164.79v-12.297h-2.846c-4.332,0-8.5-0.711-12.403-2.006v14.303
	c0,2.75,1.56,6.622,3.466,8.605l15.82,16.455c1.905,1.982,5.024,1.982,6.93,0l4.16-4.326l-11.661-12.129
	C87.058,171.412,85.498,167.54,85.498,164.79z"/>
<path style="fill:#994334;" d="M150.846,58.5c3.242-2.364,5.357-6.181,5.357-10.5c0-6.549-4.848-11.951-11.146-12.853
	c1.354-2.052,2.146-4.506,2.146-7.147c0-7.18-5.82-13-13-13c-1.145,0-2.248,0.162-3.305,0.44C130.128,8.995,124.652,3.996,118,3.996
	c-1.996,0-3.88,0.463-5.57,1.268C110.061,2.075,106.277,0,102,0c-3.253,0-6.22,1.203-8.5,3.179C91.22,1.203,88.253,0,85,0
	c-4.404,0-8.289,2.195-10.641,5.546c-1.833-0.987-3.929-1.55-6.156-1.55c-6.652,0-12.128,4.999-12.898,11.444
	C54.248,15.162,53.145,15,52,15c-7.18,0-13,5.82-13,13c0,2.642,0.793,5.096,2.146,7.147C34.848,36.049,30,41.451,30,48
	c0,4.319,2.115,8.136,5.357,10.5C32.115,60.864,30,64.681,30,69c0,6.893,5.369,12.518,12.15,12.957v18.62
	c0,3.069,0.353,6.056,1,8.93V63.916c0-10.227,3.848-18.098,11.436-23.396c6.802-4.749,16.507-7.26,28.066-7.26h20.695
	c11.56,0,21.265,2.511,28.066,7.26c7.588,5.299,11.436,13.17,11.436,23.396v45.591c0.648-2.874,1-5.86,1-8.93v-18.61
	c6.877-0.339,12.354-6.006,12.354-12.967C156.203,64.681,154.088,60.864,150.846,58.5z"/>
<path style="fill:#FF9F60;" d="M144.129,72.845h-1.279v36.422h1.279c7.365,0,13.391-6.025,13.391-13.39v-9.642
	C157.52,78.87,151.494,72.845,144.129,72.845z"/>
<path style="fill:#FF8D4D;" d="M43.15,72.845h-1.279c-7.365,0-13.391,6.025-13.391,13.391v9.642c0,7.364,6.025,13.39,13.391,13.39
	h1.279V72.845z"/>
<path style="fill:#FFC987;" d="M143.85,112.991c0,22.368-18.134,40.502-40.502,40.502H82.652c-22.368,0-40.502-18.134-40.502-40.502
	V63.916c0-22.368,18.134-31.656,40.502-31.656h20.695c22.368,0,40.502,9.288,40.502,31.656v49.075H143.85z"/>
<path style="fill:#FF9F60;" d="M57.301,112.991V63.916c0-22.368,18.134-31.656,40.502-31.656h-15.15
	c-22.368,0-40.502,9.288-40.502,31.656v49.075c0,22.368,18.134,40.502,40.502,40.502h15.15
	C75.435,153.493,57.301,135.359,57.301,112.991z"/>
<g>
	<circle style="fill:#A05F33;" cx="64.38" cy="87.93" r="8.325"/>
	<circle style="fill:#A05F33;" cx="121.62" cy="87.93" r="8.325"/>
</g>
<g>
	<path style="fill:#BF7E52;" d="M102.887,117.41h-9.436c-6.461,0-11.717-5.256-11.717-11.717V74.337
		c0-0.907-0.767-1.674-1.674-1.674H53.456c-2.775,0-5.022-2.248-5.022-5.022c0-2.772,2.248-5.021,5.022-5.021H80.06
		c6.461,0,11.717,5.256,11.717,11.717v31.356c0,0.907,0.766,1.674,1.674,1.674h9.436c2.773,0,5.021,2.248,5.021,5.021
		C107.907,115.162,105.66,117.41,102.887,117.41z"/>
	<path style="fill:#BF7E52;" d="M105.015,135.101H81.581c-2.774,0-5.022-2.248-5.022-5.021c0-2.773,2.248-5.021,5.022-5.021h23.434
		c2.773,0,5.021,2.248,5.021,5.021C110.036,132.852,107.788,135.101,105.015,135.101z"/>
	<path style="fill:#BF7E52;" d="M132.023,72.663H108.61c-2.774,0-5.022-2.248-5.022-5.022c0-2.772,2.248-5.021,5.022-5.021h23.413
		c2.773,0,5.021,2.248,5.021,5.021C137.045,70.415,134.797,72.663,132.023,72.663z"/>
</g>
<path style="fill:#445EA0;" d="M162.334,380v-65c0-17.645-14.355-32-32-32s-32,14.355-32,32v13.715H87.666V315
	c0-17.645-14.355-32-32-32s-32,14.355-32,32v29.942c4.07,12.14,9.068,23.852,14.904,35.058H162.334z"/>
<path style="fill:#BF7E52;" d="M54.24,406h403.519c5.949-8.619,11.369-17.63,16.194-27H38.047
	C42.871,388.37,48.292,397.381,54.24,406z"/>
<path style="fill:#FF9F60;" d="M55.666,293c-12.15,0-22,9.85-22,22v26.949h44V315C77.666,302.85,67.816,293,55.666,293z"/>
<path style="fill:#F98B4E;" d="M49,315c0-9.453,5.964-17.512,14.333-20.625c-2.388-0.888-4.97-1.375-7.667-1.375
	c-12.15,0-22,9.85-22,22v26.023H49V315z"/>
<path style="fill:#293D7C;" d="M33.666,370.02c11.146,24.016,26.063,45.922,44,64.957V340h-44V370.02z"/>
<path style="fill:#1A2B63;" d="M49,340H33.666v30.02c4.508,9.713,9.643,19.072,15.334,28.045V340z"/>
<path style="fill:#FF9F60;" d="M130.334,293c-12.15,0-22,9.85-22,22v26.949h44V315C152.334,302.85,142.484,293,130.334,293z"/>
<path style="fill:#F98B4E;" d="M124,315c0-9.391,5.886-17.402,14.167-20.559c-2.435-0.929-5.073-1.441-7.833-1.441
	c-12.15,0-22,9.85-22,22v26.949H124V315z"/>
<path style="fill:#293D7C;" d="M109.334,452h42c0.338,0,0.668,0.027,1,0.051V340h-44v112.052
	C108.666,452.028,108.996,452,109.334,452z"/>
<path style="fill:#1A2B63;" d="M109.334,452H124V340h-15.666v112.052C108.666,452.028,108.996,452,109.334,452z"/>
<path style="fill:#232323;" d="M151.334,451h-42c-3.954,0-7.522,1.654-10.071,4.299c13.751,11.457,28.771,21.442,44.826,29.701
	h18.245c1.656,0,3-1.343,3-3v-17C165.334,457.28,159.053,451,151.334,451z"/>
<g>
	<path style="fill:#FFFFFF;" d="M14,236c4.697-1.959,8-6.593,8-12s-3.303-10.041-8-12V236z"/>
	<path style="fill:#FFFFFF;" d="M128.5,247h-71c-2.762,0-5-2.238-5-5s2.238-5,5-5h71c2.762,0,5,2.238,5,5S131.262,247,128.5,247z"/>
</g>
<path style="fill:#FFD00D;" d="M122,225c-1.65,0-2.325-1.169-1.5-2.598l8.023-13.896c0.825-1.429,2.175-1.429,3,0l8.022,13.896
	c0.825,1.429,0.15,2.598-1.5,2.598H122z"/>
<path style="fill:#BF7E52;" d="M218.666,293c-12.15,0-22,9.85-22,22v26.949h44V315C240.666,302.85,230.816,293,218.666,293z"/>
<g>
	<path style="fill:#A05F33;" d="M212,315c0-9.453,5.964-17.512,14.333-20.625c-2.388-0.888-4.97-1.375-7.667-1.375
		c-12.15,0-22,9.85-22,22v26.949H212V315z"/>
	<path style="fill:#A05F33;" d="M239.666,464c0.338,0,0.67,0.021,1,0.051V464H239.666z"/>
</g>
<path style="fill:#293D7C;" d="M197.666,452h42c0.338,0,0.668,0.027,1,0.051V340h-44v112.051
	C196.998,452.027,197.328,452,197.666,452z"/>
<path style="fill:#1A2B63;" d="M197.666,452H212V340h-15.334v112.051C196.998,452.027,197.328,452,197.666,452z"/>
<path id="SVGCleanerId_0" style="fill:#232323;" d="M186.666,485c-1.656,0-3-1.343-3-3v-17c0-7.72,6.281-14,14-14h42
	c7.721,0,14,6.28,14,14v17c0,1.657-1.342,3-3,3H186.666z"/>
<path style="fill:#BF7E52;" d="M293.334,293c-12.15,0-22,9.85-22,22v26.949h44V315C315.334,302.85,305.484,293,293.334,293z"/>
<g>
	<path style="fill:#A05F33;" d="M287,315c0-9.391,5.886-17.402,14.167-20.559c-2.435-0.929-5.073-1.441-7.833-1.441
		c-12.15,0-22,9.85-22,22v26.949H287V315z"/>
	<path style="fill:#A05F33;" d="M314.334,464c0.338,0,0.67,0.021,1,0.051V464H314.334z"/>
</g>
<path style="fill:#293D7C;" d="M272.334,452h42c0.338,0,0.668,0.027,1,0.051V340h-44v112.051
	C271.666,452.027,271.996,452,272.334,452z"/>
<g>
	<path style="fill:#1A2B63;" d="M272.334,452h14.334V340h-15.334v112.051C271.666,452.027,271.996,452,272.334,452z"/>
	<path style="fill:#1A2B63;" d="M239.666,464c0.338,0,0.67,0.021,1,0.051V464H239.666z"/>
</g>
<path id="SVGCleanerId_1" style="fill:#232323;" d="M261.334,485c-1.658,0-3-1.343-3-3v-17c0-7.72,6.279-14,14-14h42
	c7.719,0,14,6.28,14,14v17c0,1.657-1.344,3-3,3H261.334z"/>
<path style="fill:#FFC987;" d="M381.666,293c-12.15,0-22,9.85-22,22v26.949h44V315C403.666,302.85,393.816,293,381.666,293z"/>
<path style="fill:#F2B675;" d="M375,315c0-9.453,5.964-17.512,14.333-20.625c-2.388-0.888-4.97-1.375-7.667-1.375
	c-12.15,0-22,9.85-22,22v26.949H375V315z"/>
<path style="fill:#293D7C;" d="M360.666,452h42c0.338,0,0.668,0.028,1,0.052V340h-44v112.051
	C359.998,452.027,360.328,452,360.666,452z"/>
<path style="fill:#1A2B63;" d="M360.666,452H375V340h-15.334v112.051C359.998,452.027,360.328,452,360.666,452z"/>
<path style="fill:#232323;" d="M402.666,451h-42c-7.719,0-14,6.28-14,14v17c0,1.657,1.344,3,3,3h18.244
	c16.056-8.259,31.076-18.244,44.826-29.702C410.189,452.654,406.62,451,402.666,451z"/>
<g>
	<path id="SVGCleanerId_0_1_" style="fill:#232323;" d="M186.666,485c-1.656,0-3-1.343-3-3v-17c0-7.72,6.281-14,14-14h42
		c7.721,0,14,6.28,14,14v17c0,1.657-1.342,3-3,3H186.666z"/>
</g>
<g>
	<path id="SVGCleanerId_1_1_" style="fill:#232323;" d="M261.334,485c-1.658,0-3-1.343-3-3v-17c0-7.72,6.279-14,14-14h42
		c7.719,0,14,6.28,14,14v17c0,1.657-1.344,3-3,3H261.334z"/>
</g>
<path style="fill:#FFC987;" d="M456.334,293c-12.15,0-22,9.85-22,22v26.949h44V315C478.334,302.85,468.484,293,456.334,293z"/>
<path style="fill:#F2B675;" d="M450,315c0-9.391,5.886-17.402,14.167-20.559c-2.435-0.929-5.073-1.441-7.833-1.441
	c-12.15,0-22,9.85-22,22v26.949H450V315z"/>
<path style="fill:#293D7C;" d="M478.334,370.019V340h-44v94.976C452.271,415.94,467.188,394.034,478.334,370.019z"/>
<path style="fill:#1A2B63;" d="M449.668,340h-15.334v94.976c5.393-5.724,10.508-11.711,15.334-17.933L449.668,340L449.668,340z"/>
<g>
</g>
<g>
</g>
<g>
</g>
<g>
</g>
<g>
</g>
<g>
</g>
<g>
</g>
<g>
</g>
<g>
</g>
<g>
</g>
<g>
</g>
<g>
</g>
<g>
</g>
<g>
</g>
<g>
</g>
</svg>
