<?xml version="1.0" encoding="iso-8859-1"?>
<!-- Generator: Adobe Illustrator 19.0.0, SVG Export Plug-In . SVG Version: 6.00 Build 0)  -->
<svg version="1.1" id="Capa_1" xmlns="http://www.w3.org/2000/svg" xmlns:xlink="http://www.w3.org/1999/xlink" x="0px" y="0px"
	 viewBox="0 0 512 512" style="enable-background:new 0 0 512 512;" xml:space="preserve">
<circle style="fill:#445EA0;" cx="256" cy="267" r="245"/>
<rect x="248.5" y="188.27" style="fill:#FF9518;" width="15" height="27.734"/>
<g>
	<path style="fill:#FFD00D;" d="M142.099,298.279h-27.711c-6.893,0-12.5,5.607-12.5,12.5v73.324h15v-70.824h26.333
		c-1.415-2.613-2.221-5.603-2.221-8.779C141,302.315,141.4,300.227,142.099,298.279z"/>
	<path style="fill:#FFD00D;" d="M199.386,313.279v70.824h15v-73.324c0-6.893-5.607-12.5-12.5-12.5h-24.985
		c0.699,1.947,1.099,4.036,1.099,6.221c0,3.176-0.806,6.166-2.221,8.779H199.386z"/>
	<path style="fill:#FFD00D;" d="M395.113,313.279v70.824h15v-73.324c0-6.893-5.607-12.5-12.5-12.5H369.9
		c0.699,1.947,1.1,4.036,1.1,6.221c0,3.176-0.806,6.166-2.221,8.779H395.113z"/>
	<path style="fill:#FFD00D;" d="M312.613,384.103v-70.824h23.607c-1.415-2.613-2.221-5.603-2.221-8.779c0-2.185,0.4-4.273,1.1-6.221
		h-24.986c-6.893,0-12.5,5.607-12.5,12.5v73.324H312.613z"/>
</g>
<path style="fill:#FFFFFF;" d="M159.5,286c2.604,0,5.081,0.547,7.331,1.522v-57.815H345.17v57.815
	c2.25-0.975,4.727-1.522,7.33-1.522c2.738,0,5.33,0.613,7.67,1.685v-60.478c0-6.893-5.607-12.5-12.5-12.5H164.331
	c-6.893,0-12.5,5.607-12.5,12.5v60.478C154.17,286.613,156.762,286,159.5,286z"/>
<g>
	<rect x="248.04" y="122.4" style="fill:#FFAF10;" width="15.924" height="19.596"/>
	<path style="fill:#FFAF10;" d="M215.868,80.667c-0.526-1.034-1.034-2.099-1.538-3.168c-4.477-2.476-8.972-6.858-13.161-12.865
		c-4.605-6.601-8.459-17.195-10.307-28.341c-0.107-0.654,0.076-1.319,0.505-1.826c0.429-0.505,1.055-0.797,1.718-0.797h8.331
		c-0.707-4.429-1.288-8.95-1.727-13.553H178.89c-1.47,0-2.666,1.197-2.666,2.669c0,18.006,4.913,34.967,13.837,47.759
		c8.341,11.959,19.478,19.119,31.361,20.158c0.061,0.004,0.121,0.006,0.182,0.006c0.041,0,0.08-0.013,0.121-0.015
		C219.667,87.625,217.707,84.282,215.868,80.667z"/>
</g>
<path style="fill:#EF9614;" d="M333.107,20.117h-20.802c-0.439,4.602-1.019,9.124-1.727,13.553h8.336
	c0.66,0,1.287,0.293,1.718,0.797c0.429,0.507,0.611,1.172,0.503,1.827c-1.849,11.145-5.702,21.738-10.307,28.34
	c-4.19,6.009-8.688,10.393-13.165,12.867c-0.504,1.068-1.011,2.132-1.537,3.166c-1.839,3.614-3.8,6.958-5.858,10.026
	c0.042,0.003,0.082,0.016,0.125,0.016c0.061,0,0.12-0.002,0.181-0.006c11.884-1.039,23.021-8.199,31.36-20.158
	c8.925-12.791,13.84-29.752,13.84-47.759C335.775,21.315,334.578,20.117,333.107,20.117z"/>
<path style="fill:#FFAF10;" d="M313.406,0.931C312.822,0.336,312.023,0,311.189,0H200.808c-0.834,0-1.633,0.336-2.217,0.931
	c-0.585,0.6-0.905,1.406-0.888,2.241c0.628,29.605,6.761,57.289,17.273,77.948c7.107,13.97,15.785,23.841,25.278,29.015h31.487
	c9.493-5.174,18.168-15.045,25.276-29.015c10.514-20.659,16.647-48.343,17.273-77.948C314.31,2.337,313.991,1.53,313.406,0.931z"/>
<path style="fill:#EF9614;" d="M230.274,81.12C219.761,60.461,213.628,32.777,213,3.172c-0.017-0.835,0.303-1.642,0.888-2.241
	C214.472,0.336,215.271,0,216.105,0h-15.297c-0.834,0-1.633,0.336-2.217,0.931c-0.585,0.6-0.905,1.406-0.888,2.241
	c0.628,29.605,6.761,57.289,17.273,77.948c7.107,13.97,15.785,23.841,25.278,29.015h15.297
	C246.059,104.961,237.381,95.09,230.274,81.12z"/>
<path style="fill:#FF9518;" d="M288.294,179.607V142.87c0-1.207-0.988-2.195-2.193-2.195h-60.204c-1.207,0-2.195,0.988-2.195,2.195
	v36.737H288.294z"/>
<path style="fill:#EF8318;" d="M241.195,140.675h-15.298c-1.207,0-2.195,0.988-2.195,2.195v36.737H239V142.87
	C239,141.663,239.988,140.675,241.195,140.675z"/>
<path style="fill:#FFAF10;" d="M300.981,187.805c0,1.206-0.987,2.195-2.193,2.195h-85.58c-1.206,0-2.194-0.989-2.194-2.195v-6.876
	c0-1.207,0.988-2.194,2.194-2.194h85.58c1.206,0,2.193,0.987,2.193,2.194V187.805z"/>
<path style="fill:#EF9614;" d="M226.033,187.805v-6.876c0-1.207,0.988-2.194,2.194-2.194h-15.019c-1.206,0-2.194,0.987-2.194,2.194
	v6.876c0,1.206,0.988,2.195,2.194,2.195h15.019C227.021,190,226.033,189.011,226.033,187.805z"/>
<path style="fill:#FFAF10;" d="M276.472,167.703c0,0.725-0.592,1.317-1.316,1.317h-38.313c-0.724,0-1.317-0.593-1.317-1.317v-14.816
	c0-0.726,0.594-1.318,1.317-1.318h38.313c0.725,0,1.316,0.593,1.316,1.318V167.703z"/>
<path style="fill:#FF9518;" d="M238.331,109.12v12.222c0,1.2,0.981,2.183,2.181,2.183h30.971c1.2,0,2.182-0.982,2.182-2.183V109.12
	H238.331z"/>
<g>
	<path style="fill:#EF8318;" d="M253.666,121.342V109.12h-15.335v12.222c0,1.2,0.981,2.183,2.181,2.183h15.335
		C254.647,123.524,253.666,122.542,253.666,121.342z"/>
	<path style="fill:#EF8318;" d="M270.434,71.529c-0.686,0.001-1.387-0.185-2.084-0.552l-11.291-5.936
		c-0.17-0.09-0.55-0.194-1.06-0.194c-0.51,0-0.89,0.104-1.061,0.194l-11.29,5.936c-0.698,0.366-1.398,0.552-2.083,0.552
		c-1.04,0-1.971-0.425-2.62-1.194c-0.72-0.854-0.994-2.038-0.771-3.335l2.156-12.571c0.094-0.553-0.255-1.626-0.656-2.018
		l-9.133-8.903c-1.19-1.16-1.621-2.597-1.183-3.942c0.437-1.346,1.631-2.255,3.274-2.494l12.621-1.834
		c0.554-0.081,1.469-0.745,1.715-1.247l5.645-11.438c0.735-1.49,1.968-2.344,3.384-2.344s2.648,0.854,3.384,2.344l5.645,11.438
		c0.248,0.503,1.161,1.166,1.716,1.247l12.624,1.834c1.642,0.239,2.835,1.147,3.271,2.493c0.438,1.347,0.008,2.783-1.182,3.943
		l-9.134,8.903c-0.4,0.392-0.75,1.465-0.655,2.018L273.824,67c0.223,1.297-0.051,2.481-0.772,3.335
		C272.403,71.104,271.473,71.529,270.434,71.529z"/>
</g>
<circle style="fill:#FFAF10;" cx="159.5" cy="304.5" r="19.5"/>
<path style="fill:#EF9614;" d="M155,304.5c0-8.111,4.954-15.061,12-18.001c-2.31-0.963-4.842-1.499-7.5-1.499
	c-10.77,0-19.5,8.73-19.5,19.5s8.73,19.5,19.5,19.5c2.658,0,5.19-0.536,7.5-1.499C159.954,319.561,155,312.611,155,304.5z"/>
<circle style="fill:#FFAF10;" cx="352.5" cy="304.5" r="19.5"/>
<path style="fill:#EF9614;" d="M348,304.5c0-8.111,4.954-15.061,12-18.001c-2.31-0.963-4.842-1.499-7.5-1.499
	c-10.77,0-19.5,8.73-19.5,19.5s8.73,19.5,19.5,19.5c2.658,0,5.19-0.536,7.5-1.499C352.954,319.561,348,312.611,348,304.5z"/>
<g>
	<path style="fill:#FFC987;" d="M131.548,383.103H84.926c-6.893,0-12.5,5.607-12.5,12.5v33.627c4.773,5.397,9.773,10.59,15,15.547
		v-46.674h41.622v78.481c4.89,2.968,9.893,5.767,15,8.394v-89.375C144.048,388.711,138.44,383.103,131.548,383.103z"/>
	<path style="fill:#FFC987;" d="M231.347,383.103h-46.622c-6.893,0-12.5,5.607-12.5,12.5v101.693c4.927,1.793,9.931,3.423,15,4.902
		V398.103h41.622v112.391c4.958,0.547,9.957,0.958,15,1.204V395.603C243.847,388.711,238.239,383.103,231.347,383.103z"/>
	<path style="fill:#FFC987;" d="M327.275,383.103h-46.623c-6.893,0-12.5,5.607-12.5,12.5v116.095c5.043-0.246,10.042-0.657,15-1.204
		V398.103h41.623v104.096c5.068-1.48,10.073-3.109,15-4.902V395.603C339.775,388.711,334.168,383.103,327.275,383.103z"/>
	<path style="fill:#FFC987;" d="M439.574,429.229v-33.626c0-6.893-5.607-12.5-12.5-12.5h-46.623c-6.893,0-12.5,5.607-12.5,12.5
		v89.375c5.106-2.628,10.11-5.427,15-8.394v-78.481h41.623v46.674C429.801,439.819,434.801,434.627,439.574,429.229z"/>
</g>
<g>
</g>
<g>
</g>
<g>
</g>
<g>
</g>
<g>
</g>
<g>
</g>
<g>
</g>
<g>
</g>
<g>
</g>
<g>
</g>
<g>
</g>
<g>
</g>
<g>
</g>
<g>
</g>
<g>
</g>
</svg>
