<?xml version="1.0" encoding="iso-8859-1"?>
<!-- Generator: Adobe Illustrator 19.0.0, SVG Export Plug-In . SVG Version: 6.00 Build 0)  -->
<svg version="1.1" id="Capa_1" xmlns="http://www.w3.org/2000/svg" xmlns:xlink="http://www.w3.org/1999/xlink" x="0px" y="0px"
	 viewBox="0 0 512 512" style="enable-background:new 0 0 512 512;" xml:space="preserve">
<circle style="fill:#69CDFF;" cx="255.5" cy="256" r="245"/>
<path style="fill:#02AF8E;" d="M371,447c-40.558,0-77.126-17.35-102.717-45H58.758c44.648,60.072,116.143,99,196.742,99
	c62.765,0,120.008-23.611,163.353-62.427C403.917,444.023,387.8,447,371,447z"/>
<path style="fill:#EF8318;" d="M239.494,355c-5.486-14.979-8.494-31.144-8.494-48c0-36.177,13.793-69.193,36.397-94.065
	L203.894,25.392c-1.764-5.209-7.707-9.472-13.207-9.472h-33.499c-5.5,0-11.443,4.263-13.207,9.472L32.561,354.448
	c-0.063,0.187-0.106,0.368-0.157,0.552H239.494z"/>
<path style="fill:#DB722C;" d="M63.09,355c0.051-0.184,0.094-0.365,0.157-0.552l111.42-329.057
	c1.764-5.209,7.707-9.472,13.207-9.472h-30.686c-5.5,0-11.443,4.263-13.207,9.472L32.561,354.448
	c-0.063,0.187-0.106,0.368-0.157,0.552H63.09z"/>
<path style="fill:#EEF6FF;" d="M239.487,355c-4.942-13.503-7.862-27.972-8.39-43.04H46.948L32.375,355H239.487z"/>
<polygon style="fill:#D9EAFC;" points="63.021,355 77.594,311.96 46.948,311.96 32.375,355 "/>
<path style="fill:#EEF6FF;" d="M267.397,212.935l-1.346-3.975H81.824L64.23,260.92h174.571
	C245.068,242.992,254.876,226.712,267.397,212.935z"/>
<polygon style="fill:#D9EAFC;" points="81.824,208.96 64.23,260.92 95,260.92 112.594,208.96 "/>
<polygon style="fill:#EEF6FF;" points="99.106,157.92 248.769,157.92 231.175,105.96 116.7,105.96 "/>
<polygon style="fill:#D9EAFC;" points="116.7,105.96 99.106,157.92 130,157.92 147.594,105.96 "/>
<path style="fill:#EF8318;" d="M239.099,353.924H5c-2.75,0-5,2.25-5,5v39.996c0,2.75,2.25,5,5,5h265.07
	C256.475,389.768,245.823,372.771,239.099,353.924z"/>
<path style="fill:#DB722C;" d="M30.625,398.92v-39.996c0-2.75,2.25-5,5-5H5c-2.75,0-5,2.25-5,5v39.996c0,2.75,2.25,5,5,5h30.625
	C32.875,403.92,30.625,401.67,30.625,398.92z"/>
<circle style="fill:#EEF6FF;" cx="371" cy="307" r="141"/>
<path style="fill:#D9EAFC;" d="M260,307c0-72.807,55.182-132.716,126-140.205c-4.929-0.521-9.933-0.795-15-0.795
	c-77.871,0-141,63.126-141,141c0,77.871,63.129,141,141,141c5.067,0,10.071-0.273,15-0.795C315.182,439.715,260,379.804,260,307z"/>
<path style="fill:#232323;" d="M492.039,290.398l19.805,10.091c-1.664-36.606-17.283-69.57-41.666-93.704l-4.632,29.237
	l-66.097-43.493l23.121-16.799C406.598,169.449,389.201,166,371,166s-35.598,3.449-51.57,9.73l23.121,16.799l-65.427,43.053
	l-4.661-29.423c-24.838,24.275-40.742,57.645-42.323,94.731l19.929-10.154l27.482,87.073l-31.243-4.95
	c15.88,30.004,42.267,53.584,74.266,65.844l-3.29-20.768h107.317l-3.297,20.817c32.022-12.234,58.436-35.804,74.343-65.805
	l-31.223,4.945L492.039,290.398z M455.242,379.348l-19.129,3.029l-32.226-32.226l15.792-48.607l44.178-25.506l20.668,10.531
	L455.242,379.348z M464.117,245.039l-3.702,23.383l-42.502,24.54L375.158,261.9v-51.723l17.1-12.423L464.117,245.039z
	 M349.742,197.755l17.1,12.423V261.9l-42.585,30.938l-41.896-24.188l-3.809-24.051L349.742,197.755z M257.583,286.908l21.122-10.764
	l43.526,25.13l15.729,48.406l-32.541,32.542l-18.685-2.958L257.583,286.908z M315.966,409.617l-3.579-22.598l31.898-31.897h52.81
	l32.333,32.333l-3.509,22.162H315.966z"/>
<g>
	<path style="fill:#37C47A;" d="M148,426h-10.246c-2.762,0-5-2.238-5-5s2.238-5,5-5H148c2.762,0,5,2.238,5,5S150.762,426,148,426z"
		/>
	<path style="fill:#37C47A;" d="M206.246,450H196c-2.762,0-5-2.238-5-5s2.238-5,5-5h10.246c2.762,0,5,2.238,5,5
		S209.008,450,206.246,450z"/>
	<path style="fill:#37C47A;" d="M270,436h-10.246c-2.762,0-5-2.238-5-5s2.238-5,5-5H270c2.762,0,5,2.238,5,5S272.762,436,270,436z"
		/>
	<path style="fill:#37C47A;" d="M322.246,468H312c-2.762,0-5-2.238-5-5s2.238-5,5-5h10.246c2.762,0,5,2.238,5,5
		S325.008,468,322.246,468z"/>
	<path style="fill:#37C47A;" d="M252,485h-10.246c-2.762,0-5-2.238-5-5s2.238-5,5-5H252c2.762,0,5,2.238,5,5S254.762,485,252,485z"
		/>
</g>
<g>
</g>
<g>
</g>
<g>
</g>
<g>
</g>
<g>
</g>
<g>
</g>
<g>
</g>
<g>
</g>
<g>
</g>
<g>
</g>
<g>
</g>
<g>
</g>
<g>
</g>
<g>
</g>
<g>
</g>
</svg>
