<?xml version="1.0" encoding="iso-8859-1"?>
<!-- Generator: Adobe Illustrator 19.0.0, SVG Export Plug-In . SVG Version: 6.00 Build 0)  -->
<svg version="1.1" id="Capa_1" xmlns="http://www.w3.org/2000/svg" xmlns:xlink="http://www.w3.org/1999/xlink" x="0px" y="0px"
	 viewBox="0 0 512 512" style="enable-background:new 0 0 512 512;" xml:space="preserve">
<circle style="fill:#02AF8E;" cx="256" cy="267" r="245"/>
<path style="fill:#232323;" d="M291.855,0h-71.711C186.111,0,157.246,22.049,147,52.633v51.79c0,2.25-1.777,4.077-4,4.189v31.392
	c1.287-0.25,2.611-0.391,3.968-0.391h11.306v-15.771c0-42.989,34.85-60.84,77.84-60.84h39.773c42.99,0,77.84,17.851,77.84,60.84
	v15.771h11.306c1.357,0,2.681,0.141,3.968,0.391V77.145C369,34.539,334.461,0,291.855,0z"/>
<path style="fill:#FFD00D;" d="M293.012,26h-10.906c13.941,9.19,23.872,23.968,26.595,41.146
	c26.588,7.477,45.026,25.434,45.026,56.695V86.715C353.727,53.184,326.544,26,293.012,26z"/>
<g>
	<path style="fill:#EEF6FF;" d="M131.19,340.735v39.26c0,29.63,24.105,53.735,53.735,53.735c29.628,0,53.731-24.105,53.731-53.735
		v-21.801l-13.551,14.59v7.211c0,22.157-18.025,40.183-40.182,40.183c-22.159,0-40.187-18.025-40.187-40.183v-45.023L131.19,340.735
		z"/>
	<path style="fill:#EEF6FF;" d="M437.434,373.445c-1.375-5.326-6.642-11.444-11.703-13.598l-101.456-43.166l4.89,4.92
		c1.548,1.588,2.117,6.003,1.042,8.14l-28.105,55.843c-0.488,0.971-1.236,1.527-2.053,1.527c-0.642,0-1.313-0.343-1.892-0.966
		l-38.643-41.605c-1.084-1.167-2.535-1.809-4.088-1.809c-0.26,0-0.516,0.024-0.769,0.06v37.204
		c0,38.452-31.281,69.735-69.731,69.735c-38.452,0-69.735-31.283-69.735-69.735v-32.452L86.27,359.848
		c-5.062,2.153-10.328,8.271-11.703,13.598L63.056,418c44.849,57.226,114.601,94,192.944,94s148.096-36.775,192.944-94
		L437.434,373.445z"/>
</g>
<g>
	<polygon style="fill:#D9EAFC;" points="131.19,362.208 143.738,356.869 143.738,335.397 131.19,340.735 	"/>
	<path style="fill:#D9EAFC;" d="M115.19,347.543l-28.92,12.305c-5.062,2.153-10.328,8.271-11.703,13.598L63.056,418
		c4.896,6.246,10.105,12.233,15.572,17.971l10.994-47.459c1.375-5.326,6.642-11.444,11.703-13.598l13.865-5.9V347.543z"/>
</g>
<g>
	<path style="fill:#1A2B63;" d="M238.657,379.995v-21.801l-13.551,14.591v0.283l13.107,13.723
		C238.495,384.564,238.657,382.299,238.657,379.995z"/>
	<path style="fill:#1A2B63;" d="M286.446,373.537l-26.933-28.997c-1.084-1.167-2.535-1.809-4.088-1.809
		c-0.26,0-0.516,0.024-0.769,0.06v37.204c0,17.583-6.555,33.654-17.33,45.933L233.073,456h45.853l-9.19-64.966L286.446,373.537z"/>
</g>
<path style="fill:#D9EAFC;" d="M329.873,320.897l-30.422-30.609c-7.431,2.4-15.346,3.711-23.565,3.711h-39.773
	c-4.165,0-8.252-0.339-12.236-0.984c0.801,3.159,1.229,6.465,1.229,9.869v71.371l13.551-14.59v-23.979c0-4.411,3.589-8,8-8
	s8,3.589,8,8v8.124c1.458-0.255,3.006,0.208,4.124,1.411l38.642,41.605c1.846,1.986,4.352,1.63,5.57-0.793L331.1,330.19
	C332.318,327.768,331.766,322.837,329.873,320.897z"/>
<path style="fill:#FFAF10;" d="M236.113,63.002h39.773c12.251,0,23.836,1.456,34.148,4.523c-4.43-29.17-29.614-51.523-60.023-51.523
	h-31.023c-33.532,0-60.715,27.184-60.715,60.715v47.125C158.273,80.853,193.123,63.002,236.113,63.002z"/>
<path style="fill:#FF9518;" d="M173.559,76.717c0-33.531,27.183-60.715,60.715-60.715h-15.285
	c-33.532,0-60.715,27.184-60.715,60.715v47.125c0-17.354,5.685-30.606,15.285-40.246V76.717z"/>
<path style="fill:#FF9F60;" d="M275.887,293.998h-39.773c-4.165,0-8.251-0.338-12.236-0.982c0.801,3.158,1.229,6.463,1.229,9.867
	v23.429l13.701,7.845c0.716-3.682,3.962-6.471,7.85-6.471c4.411,0,8,3.589,8,8v6.762c1.984,0.253,4.147-0.053,5.682-0.932
	l35.047-20.066c2.386-1.366,4.339-4.734,4.339-7.484v-23.771C292.215,292.651,284.207,293.998,275.887,293.998z"/>
<path style="fill:#FF8D4D;" d="M239.89,321.449c-2.386-1.366-4.339-4.734-4.339-7.484v-19.981
	c-3.972-0.028-7.869-0.366-11.677-0.979c0.803,3.162,1.232,6.471,1.232,9.879v23.429l13.701,7.845
	c0.716-3.682,3.962-6.471,7.85-6.471c4.411,0,8,3.589,8,8v6.762c1.984,0.253,4.147-0.053,5.682-0.932l7.299-4.179L239.89,321.449z"
	/>
<g>
	<path style="fill:#293D7C;" d="M365.032,138.307h-12.306v73.387h12.306c11.532,0,20.968-9.436,20.968-20.968v-31.451
		C386,147.742,376.565,138.307,365.032,138.307z"/>
	<path style="fill:#293D7C;" d="M159.273,138.307h-12.306c-11.532,0-20.968,9.436-20.968,20.968v31.451
		c0,11.532,9.436,20.968,20.968,20.968h12.306V138.307z"/>
</g>
<path style="fill:#1A2B63;" d="M159.273,211.499C149.005,210.163,141,201.344,141,190.726v-31.451
	c0-10.618,8.005-19.438,18.273-20.773v-0.194h-12.306c-11.532,0-20.968,9.436-20.968,20.968v31.451
	c0,11.532,9.436,20.968,20.968,20.968h12.306V211.499z"/>
<path style="fill:#FFC987;" d="M275.887,62h-39.773c-42.99,0-77.84,17.851-77.84,60.84v94.318c0,17.676,5.9,33.967,15.826,47.034
	c3.446-0.966,7.074-1.493,10.825-1.493c19.131,0,35.171,13.443,39.198,31.378c3.908,0.605,7.912,0.921,11.99,0.921h39.773
	c42.99,0,77.84-34.85,77.84-77.84V122.84C353.727,79.851,318.877,62,275.887,62z"/>
<path style="fill:#F2B675;" d="M184.925,262.699c1.168,0,2.322,0.061,3.466,0.159c-9.328-12.835-14.844-28.62-14.844-45.7V122.84
	c0-42.989,34.85-60.84,77.84-60.84h-15.273c-42.99,0-77.84,17.851-77.84,60.84v94.318c0,17.676,5.9,33.967,15.826,47.034
	C177.546,263.227,181.174,262.699,184.925,262.699z"/>
<path style="fill:#FF9F60;" d="M256,281c-22.056,0-40-17.944-40-40v-9.796c0-2.255,1.827-4.082,4.082-4.082h71.836
	c2.255,0,4.082,1.827,4.082,4.082V241C296,263.056,278.057,281,256,281z"/>
<path style="fill:#FF8D4D;" d="M231,241v-9.796c0-2.255,1.827-4.082,4.082-4.082h-15c-2.255,0-4.082,1.827-4.082,4.082V241
	c0,22.056,17.944,40,40,40c2.565,0,5.069-0.252,7.5-0.715C245.019,276.763,231,260.492,231,241z"/>
<path style="fill:#FFFFFF;" d="M291.918,227.122h-71.836c-2.255,0-4.082,1.827-4.082,4.082V241c0,0.336,0.018,0.666,0.025,1h79.949
	c0.008-0.334,0.025-0.664,0.025-1v-9.796C296,228.949,294.173,227.122,291.918,227.122z"/>
<path style="fill:#EEF6FF;" d="M231,231.204c0-2.255,1.827-4.082,4.082-4.082h-15c-2.255,0-4.082,1.827-4.082,4.082V241
	c0,0.336,0.018,0.666,0.025,1h15c-0.008-0.334-0.025-0.664-0.025-1V231.204z"/>
<g>
	<circle style="fill:#1A2B63;" cx="201" cy="169" r="16"/>
	<circle style="fill:#1A2B63;" cx="311" cy="169" r="16"/>
</g>
<g>
	<path style="fill:#BF7E52;" d="M275,216.094h-21c-9.649,0-17.5-7.85-17.5-17.5v-59.188c0-1.355-1.145-2.5-2.5-2.5h-54
		c-4.143,0-7.5-3.358-7.5-7.5c0-4.143,3.357-7.5,7.5-7.5h54c9.649,0,17.5,7.85,17.5,17.5v59.188c0,1.355,1.145,2.5,2.5,2.5h21
		c4.143,0,7.5,3.358,7.5,7.5S279.143,216.094,275,216.094z"/>
	<path style="fill:#BF7E52;" d="M331,136.906h-45c-4.143,0-7.5-3.358-7.5-7.5c0-4.143,3.357-7.5,7.5-7.5h45
		c4.143,0,7.5,3.357,7.5,7.5C338.5,133.548,335.143,136.906,331,136.906z"/>
	<path style="fill:#BF7E52;" d="M98.91,455c42.53,35.576,97.305,57,157.09,57c59.784,0,114.559-21.424,157.089-57H98.91z"/>
</g>
<path style="fill:#999CAD;" d="M143.738,379.995c0,22.743,18.44,41.183,41.187,41.183c22.745,0,41.182-18.439,41.182-41.183v-21.294
	h-82.368L143.738,379.995L143.738,379.995z"/>
<path style="fill:#80859B;" d="M159,379.995v-21.294h-15.262v21.294c0,22.743,18.44,41.183,41.187,41.183
	c2.608,0,5.157-0.254,7.631-0.717C173.457,416.881,159,400.13,159,379.995z"/>
<path style="fill:#445EA0;" d="M184.925,460.254c3.046,0,6.052,0.259,9,0.744V449.13c-2.948,0.382-5.948,0.601-8.999,0.601
	c-3.052,0-6.052-0.219-9.001-0.601v11.868C178.873,460.513,181.879,460.254,184.925,460.254z"/>
<path style="fill:#293D7C;" d="M137.352,499c-1.547,0-2.984-0.783-3.817-2.082c-0.839-1.298-0.955-2.931-0.319-4.339
	c9.198-20.244,29.494-33.325,51.71-33.325c22.212,0,42.509,13.081,51.709,33.325c0.635,1.408,0.516,3.041-0.319,4.339
	c-0.837,1.299-2.273,2.082-3.821,2.082H137.352z"/>
<path style="fill:#1A2B63;" d="M148.725,496.918c-0.839-1.298-0.955-2.931-0.319-4.339c8.138-17.909,24.961-30.204,44.114-32.804
	c-2.497-0.34-5.032-0.521-7.595-0.521c-22.216,0-42.512,13.081-51.71,33.325c-0.636,1.408-0.52,3.041,0.319,4.339
	c0.833,1.299,2.271,2.082,3.817,2.082h15.19C150.995,499,149.558,498.217,148.725,496.918z"/>
<path style="fill:#293D7C;" d="M184.925,261.699c-22.746,0-41.187,18.44-41.187,41.184v56.641h82.368v-56.641
	C226.106,280.139,207.67,261.699,184.925,261.699z"/>
<path style="fill:#1A2B63;" d="M192.556,262.416c-2.474-0.463-5.022-0.717-7.631-0.717c-22.746,0-41.187,18.44-41.187,41.184v56.641
	H159v-56.641C159,282.747,173.457,265.996,192.556,262.416z"/>
<path style="fill:#60D882;" d="M202.598,378.315c0,5.449-4.417,9.866-9.866,9.866h-15.618c-5.448,0-9.866-4.417-9.866-9.866l0,0
	c0-5.446,4.418-9.863,9.866-9.863h15.618C198.181,368.451,202.598,372.868,202.598,378.315L202.598,378.315z"/>
<path style="fill:#37C47A;" d="M180,378.315c0-5.446,4.418-9.863,9.866-9.863h-12.753c-5.448,0-9.866,4.417-9.866,9.863
	c0,5.449,4.418,9.866,9.866,9.866h12.753C184.418,388.181,180,383.764,180,378.315z"/>
<g>
	<path style="fill:#445EA0;" d="M170.128,313.899c3.404,0,6.163-2.76,6.163-6.165c0-3.406-2.759-6.167-6.163-6.167h-26.354
		c-0.014,0.439-0.035,0.874-0.035,1.315v11.017H170.128z"/>
	<path style="fill:#445EA0;" d="M143.738,332.809h26.39c3.404,0,6.163-2.761,6.163-6.167c0-3.404-2.759-6.166-6.163-6.166h-26.39
		V332.809z"/>
	<path style="fill:#445EA0;" d="M143.738,351.714h26.39c3.404,0,6.163-2.761,6.163-6.165c0-3.406-2.759-6.165-6.163-6.165h-26.39
		V351.714z"/>
	<path style="fill:#445EA0;" d="M199.72,313.899c-3.406,0-6.163-2.76-6.163-6.165c0-3.406,2.757-6.167,6.163-6.167h26.355
		c0.014,0.439,0.032,0.874,0.032,1.315v11.017H199.72z"/>
	<path style="fill:#445EA0;" d="M226.106,332.809H199.72c-3.406,0-6.163-2.761-6.163-6.167c0-3.404,2.757-6.166,6.163-6.166h26.387
		L226.106,332.809L226.106,332.809z"/>
	<path style="fill:#445EA0;" d="M226.106,351.714H199.72c-3.406,0-6.163-2.761-6.163-6.165c0-3.406,2.757-6.165,6.163-6.165h26.387
		L226.106,351.714L226.106,351.714z"/>
</g>
<path style="fill:#60D882;" d="M196.077,486.047H173.77c-2.98,0-5.397-2.415-5.397-5.397c0-2.98,2.417-5.397,5.397-5.397h22.308
	c2.982,0,5.397,2.416,5.397,5.397C201.475,483.632,199.06,486.047,196.077,486.047z"/>
<path style="fill:#37C47A;" d="M178,480.649c0-2.98,2.417-5.397,5.398-5.397h-9.628c-2.98,0-5.397,2.416-5.397,5.397
	c0,2.982,2.417,5.397,5.397,5.397h9.628C180.417,486.047,178,483.632,178,480.649z"/>
<path style="fill:#80859B;" d="M184.926,450.73c-39.004,0-70.735-31.732-70.735-70.735v-44.31c0-4.971,4.029-9,9-9
	c4.971,0,9,4.029,9,9v44.31c0,29.078,23.657,52.735,52.735,52.735c29.076,0,52.731-23.657,52.731-52.735v-44.31c0-4.971,4.029-9,9-9
	s9,4.029,9,9v44.31C255.657,418.999,223.928,450.73,184.926,450.73z"/>
<path style="fill:#FFCA51;" d="M148,25.211c0-2.866-2.345-5.211-5.211-5.211H5.211C2.345,20,0,22.345,0,25.211v79.212
	c0,2.866,2.345,5.211,5.211,5.211h77.127c2.866,0,6.869,1.658,8.896,3.685l26.505,26.504c2.026,2.026,3.685,1.34,3.685-1.526
	v-23.451c0-2.866,2.345-5.211,5.211-5.211h16.155c2.866,0,5.211-2.345,5.211-5.211L148,25.211L148,25.211z"/>
<path style="fill:#EBAA48;" d="M15,104.423V25.211C15,22.345,17.345,20,20.211,20h-15C2.345,20,0,22.345,0,25.211v79.212
	c0,2.866,2.345,5.211,5.211,5.211h15C17.345,109.634,15,107.289,15,104.423z"/>
<path style="fill:#FFFFFF;" d="M68.911,48H25.29c-4.143,0-7.5-3.357-7.5-7.5s3.357-7.5,7.5-7.5h43.621c4.143,0,7.5,3.357,7.5,7.5
	S73.054,48,68.911,48z"/>
<g>
	<path style="fill:#FFE2B8;" d="M117.314,48H93.1c-4.143,0-7.5-3.357-7.5-7.5s3.357-7.5,7.5-7.5h24.215c4.143,0,7.5,3.357,7.5,7.5
		S121.457,48,117.314,48z"/>
	<path style="fill:#FFE2B8;" d="M117.316,71H73.694c-4.142,0-7.5-3.357-7.5-7.5s3.358-7.5,7.5-7.5h43.622c4.143,0,7.5,3.357,7.5,7.5
		S121.459,71,117.316,71z"/>
</g>
<g>
	<path style="fill:#FFFFFF;" d="M49.506,71H25.291c-4.143,0-7.5-3.357-7.5-7.5s3.357-7.5,7.5-7.5h24.215c4.142,0,7.5,3.357,7.5,7.5
		S53.648,71,49.506,71z"/>
	<path style="fill:#FFFFFF;" d="M68.911,94H25.29c-4.143,0-7.5-3.357-7.5-7.5s3.357-7.5,7.5-7.5h43.621c4.143,0,7.5,3.357,7.5,7.5
		S73.054,94,68.911,94z"/>
</g>
<path style="fill:#FFE2B8;" d="M117.314,94H93.1c-4.143,0-7.5-3.357-7.5-7.5s3.357-7.5,7.5-7.5h24.215c4.143,0,7.5,3.357,7.5,7.5
	S121.457,94,117.314,94z"/>
<path style="fill:#FFCA51;" d="M512,222.551c0-2.75-2.25-5-5-5H375c-2.75,0-5,2.25-5,5v76c0,2.75,2.25,5,5,5h15.5c2.75,0,5,2.25,5,5
	v22.5c0,2.75,1.591,3.409,3.535,1.465l25.43-25.43c1.944-1.944,5.785-3.535,8.535-3.535h74c2.75,0,5-2.25,5-5V222.551z"/>
<path style="fill:#EBAA48;" d="M385,298.551v-76c0-2.75,2.25-5,5-5h-15c-2.75,0-5,2.25-5,5v76c0,2.75,2.25,5,5,5h15
	C387.25,303.551,385,301.301,385,298.551z"/>
<path style="fill:#FFFFFF;" d="M438.607,244.5h-43.621c-4.142,0-7.5-3.357-7.5-7.5s3.358-7.5,7.5-7.5h43.621
	c4.143,0,7.5,3.357,7.5,7.5S442.75,244.5,438.607,244.5z"/>
<g>
	<path style="fill:#FFE2B8;" d="M487.011,244.5h-24.215c-4.143,0-7.5-3.357-7.5-7.5s3.357-7.5,7.5-7.5h24.215
		c4.143,0,7.5,3.357,7.5,7.5S491.153,244.5,487.011,244.5z"/>
	<path style="fill:#FFE2B8;" d="M487.013,267.5h-43.622c-4.143,0-7.5-3.357-7.5-7.5s3.357-7.5,7.5-7.5h43.622
		c4.143,0,7.5,3.357,7.5,7.5S491.155,267.5,487.013,267.5z"/>
</g>
<g>
	<path style="fill:#FFFFFF;" d="M419.202,267.5h-24.215c-4.143,0-7.5-3.357-7.5-7.5s3.357-7.5,7.5-7.5h24.215
		c4.143,0,7.5,3.357,7.5,7.5S423.345,267.5,419.202,267.5z"/>
	<path style="fill:#FFFFFF;" d="M438.607,290.5h-43.621c-4.142,0-7.5-3.357-7.5-7.5s3.358-7.5,7.5-7.5h43.621
		c4.143,0,7.5,3.357,7.5,7.5S442.75,290.5,438.607,290.5z"/>
</g>
<path style="fill:#FFE2B8;" d="M487.011,290.5h-24.215c-4.143,0-7.5-3.357-7.5-7.5s3.357-7.5,7.5-7.5h24.215
	c4.143,0,7.5,3.357,7.5,7.5S491.153,290.5,487.011,290.5z"/>
<g>
</g>
<g>
</g>
<g>
</g>
<g>
</g>
<g>
</g>
<g>
</g>
<g>
</g>
<g>
</g>
<g>
</g>
<g>
</g>
<g>
</g>
<g>
</g>
<g>
</g>
<g>
</g>
<g>
</g>
</svg>
