<?xml version="1.0" encoding="iso-8859-1"?>
<!-- Generator: Adobe Illustrator 19.0.0, SVG Export Plug-In . SVG Version: 6.00 Build 0)  -->
<svg version="1.1" id="Capa_1" xmlns="http://www.w3.org/2000/svg" xmlns:xlink="http://www.w3.org/1999/xlink" x="0px" y="0px"
	 viewBox="0 0 512 512" style="enable-background:new 0 0 512 512;" xml:space="preserve">
<circle style="fill:#69CDFF;" cx="256" cy="267" r="245"/>
<path style="fill:#02AF8E;" d="M447.29,376c-1.273,11.847-6.46,22.842-14.96,31.442c-9.936,10.054-23.192,15.637-37.328,15.72
	l-0.319,0.001c-27.167,0-49.71-20.704-52.597-47.163H36.537c40.341,81.072,124.244,136.565,220.906,135.996
	c95.633-0.564,178.135-55.852,218.02-135.996H447.29z"/>
<g>
	<path style="fill:#37C47A;" d="M252.99,435.021l-10.246,0.061c-2.762,0.016-5.014-2.209-5.029-4.971
		c-0.017-2.762,2.209-5.013,4.971-5.029l10.246-0.061c2.76-0.017,5.012,2.209,5.029,4.971
		C257.977,432.753,255.752,435.004,252.99,435.021z"/>
	<path style="fill:#37C47A;" d="M193.055,404.373l-10.246,0.061c-2.762,0.016-5.014-2.209-5.029-4.971
		c-0.018-2.762,2.209-5.013,4.971-5.029l10.246-0.061c2.762-0.016,5.012,2.209,5.029,4.971
		C198.041,402.106,195.817,404.356,193.055,404.373z"/>
	<path style="fill:#37C47A;" d="M138.94,426.693l-10.246,0.06c-2.762,0.016-5.014-2.209-5.029-4.971
		c-0.018-2.762,2.209-5.014,4.969-5.029l10.246-0.06c2.762-0.017,5.014,2.209,5.029,4.971
		C143.926,424.425,141.701,426.676,138.94,426.693z"/>
	<path style="fill:#37C47A;" d="M201.026,441.327l-10.246,0.06c-2.762,0.017-5.012-2.209-5.029-4.971
		c-0.016-2.761,2.209-5.013,4.971-5.029l10.246-0.06c2.762-0.017,5.014,2.208,5.029,4.97S203.787,441.311,201.026,441.327z"/>
	<path style="fill:#37C47A;" d="M86.834,408.999l-10.246,0.06c-2.762,0.017-5.014-2.208-5.029-4.97
		c-0.018-2.762,2.209-5.014,4.971-5.029l10.246-0.061c2.762-0.017,5.012,2.209,5.029,4.971
		C91.821,406.731,89.596,408.982,86.834,408.999z"/>
	<path style="fill:#37C47A;" d="M241.537,486.089l-10.246,0.06c-2.762,0.016-5.014-2.209-5.029-4.971
		c-0.018-2.762,2.209-5.013,4.971-5.029l10.244-0.06c2.762-0.017,5.014,2.209,5.031,4.971
		C246.524,483.821,244.299,486.072,241.537,486.089z"/>
	<path style="fill:#37C47A;" d="M163.467,474.549l-10.246,0.061c-2.762,0.016-5.014-2.209-5.029-4.971
		c-0.016-2.762,2.209-5.014,4.971-5.029l10.246-0.061c2.762-0.017,5.014,2.209,5.029,4.971
		C168.453,472.281,166.229,474.532,163.467,474.549z"/>
	<path style="fill:#37C47A;" d="M350.012,434.496l-10.246,0.061c-2.762,0.016-5.014-2.209-5.029-4.971
		c-0.016-2.762,2.209-5.013,4.971-5.029l10.246-0.061c2.762-0.016,5.012,2.209,5.029,4.971
		C354.998,432.229,352.774,434.48,350.012,434.496z"/>
	<path style="fill:#37C47A;" d="M388.112,455.225l-10.246,0.061c-2.762,0.017-5.014-2.209-5.029-4.971
		c-0.016-2.762,2.209-5.013,4.971-5.029l10.246-0.061c2.762-0.016,5.012,2.209,5.029,4.971
		C393.098,452.957,390.873,455.209,388.112,455.225z"/>
</g>
<path style="fill:#FFFFFF;" d="M448.61,369.928c0.176,29.776-23.822,54.059-53.602,54.234c-29.775,0.176-54.06-23.822-54.234-53.6
	c-0.176-29.78,23.822-54.061,53.6-54.236C424.151,316.15,448.434,340.147,448.61,369.928z"/>
<path style="fill:#EEF6FF;" d="M356.001,370.563c-0.161-27.316,20.022-49.99,46.343-53.693c-2.603-0.369-5.264-0.559-7.971-0.543
	c-29.777,0.176-53.775,24.456-53.6,54.236c0.174,29.777,24.459,53.775,54.234,53.6c2.464-0.015,4.883-0.209,7.258-0.543
	C376.244,419.921,356.159,397.633,356.001,370.563z"/>
<path style="fill:#232323;" d="M440.94,363.623l7.596,3.814c-0.719-13.992-6.766-26.564-16.143-35.736l-1.707,11.19l-25.373-16.483
	l8.805-6.477c-6.123-2.364-12.785-3.646-19.744-3.604c-6.959,0.041-13.603,1.4-19.697,3.837l8.879,6.372l-24.922,16.612
	l-1.85-11.243c-9.443,9.34-15.449,22.137-15.971,36.322l7.596-3.928l10.709,33.234l-11.959-1.823
	c6.141,11.438,16.283,20.393,28.547,25.011l-1.307-7.935l41.039-0.241l-1.213,7.969c12.219-4.752,22.264-13.823,28.279-25.332
	l-11.928,1.961L440.94,363.623z M427.069,397.72l-7.309,1.201l-12.395-12.249l5.93-18.623l16.834-9.853l7.928,3.98L427.069,397.72z
	 M430.16,346.341l-1.363,8.949l-16.197,9.481l-16.42-11.78l-0.117-19.779l6.512-4.79L430.16,346.341z M386.317,328.518l6.568,4.713
	l0.117,19.779l-16.217,11.926l-16.074-9.155l-1.512-9.19L386.317,328.518z M351.276,362.818l8.053-4.163l16.703,9.511l6.121,18.477
	l-12.369,12.517l-7.15-1.091L351.276,362.818z M373.879,409.608l-1.42-8.633l12.125-12.27l20.193-0.118l12.438,12.292l-1.291,8.481
	L373.879,409.608z"/>
<path style="fill:#FFC987;" d="M382.439,140.265L365.621,123.6c-3.9-3.866-10.247-3.829-14.104,0.083l-12.188,12.366
	c-3.855,3.912-3.817,10.275,0.083,14.142l1.533,1.519l-32.102,32.571l-0.55-0.545L290.48,201.81l2.353,2.332
	c4.474,4.433,10.325,6.628,16.167,6.593c5.839-0.034,11.671-2.299,16.091-6.783l34.432-34.935c3.614,1.446,7.916,0.694,10.813-2.244
	l12.188-12.366C386.377,150.494,386.339,144.131,382.439,140.265z"/>
<path style="fill:#F2B675;" d="M356.231,166.856l-4.82-4.776l-26.32,26.705c-4.42,4.484-10.252,6.749-16.091,6.783
	c-3.46,0.02-6.916-0.761-10.094-2.306l-8.426,8.548l2.353,2.332c4.474,4.433,10.325,6.628,16.167,6.593
	c5.839-0.034,11.671-2.299,16.091-6.783l34.432-34.935C358.323,168.537,357.201,167.817,356.231,166.856z"/>
<path style="fill:#FFFFFF;" d="M311.15,178.545l-4.328-4.289c-0.088,0.333-0.253,0.65-0.512,0.913l-24.692,25.052
	c-0.253,0.256-0.564,0.429-0.9,0.523l4.327,4.288c0.538,0.534,1.241,0.798,1.942,0.794c0.701-0.005,1.4-0.276,1.933-0.816
	l22.254-22.578C312.237,181.352,312.227,179.61,311.15,178.545z"/>
<path style="fill:#293D7C;" d="M306.996,171.559l-39.18-38.827c4.137,7.167,6.445,15.307,6.494,23.682v40.851l3.718,3.684
	c0.598,0.592,1.377,0.885,2.156,0.881c0.777-0.005,1.555-0.308,2.145-0.906l24.692-25.052
	C308.202,174.674,308.191,172.742,306.996,171.559z"/>
<path style="fill:#FFC987;" d="M325.137,369l-0.008-11.834c-0.045-7.563-3.539-15.886-8.903-21.201l-13.681-13.557l-24.939,25.306
	l12.057,11.948l0.055,9.338L325.137,369L325.137,369z"/>
<polygon style="fill:#F2B675;" points="305.578,369 305.524,359.662 285.444,339.762 277.606,347.714 289.662,359.662 289.717,369 
	"/>
<path style="fill:#FFC987;" d="M146.322,331.971l-22.871,23.205h-4.479v35.563h6.969c7.542-0.045,15.844-3.55,21.144-8.93
	l24.474-24.831L146.322,331.971z"/>
<polygon style="fill:#F2B675;" points="146.322,331.971 123.45,355.176 118.971,355.176 118.971,370.194 123.45,370.194 
	153.81,339.392 "/>
<path style="fill:#1A2B63;" d="M194.899,286.795c-0.291,0.028-0.586,0.043-0.883,0.043c-2.384,0-4.623-0.918-6.306-2.585
	l-5.107-5.061l-41.295,41.896c-1.927,1.956-1.908,5.139,0.042,7.071l36.605,36.273c1.95,1.933,5.124,1.914,7.052-0.042
	l43.578-44.214L194.899,286.795z"/>
<path style="fill:#293D7C;" d="M309.123,310.242l-37.064-36.73c-0.13,0.066-0.262,0.126-0.4,0.178
	c-0.155,0.061-0.315,0.111-0.48,0.153c-0.075,0.018-0.151,0.03-0.228,0.044c-0.223,0.043-0.449,0.072-0.685,0.074h-59.379
	c-0.268,0-0.524,0.107-0.712,0.298l-9.776,9.919c-1.691,1.716-3.958,2.66-6.383,2.66c-0.212,0-0.42-0.016-0.63-0.03l70.238,69.603
	c1.951,1.933,5.125,1.914,7.052-0.042l38.489-39.055C311.093,315.357,311.074,312.176,309.123,310.242z"/>
<path style="fill:#1A2B63;" d="M254.057,116.183c-0.761,0.007-1.524,0.014-2.299,0.019l-0.184,0.001
	c-0.778,0-1.583-0.031-2.461-0.095c-0.024-0.002-0.048-0.003-0.072-0.003c-0.253,0-0.497,0.096-0.684,0.27
	c-0.203,0.19-0.318,0.458-0.316,0.736l0.016,2.653c0.047,8.137-6.515,14.795-14.626,14.843h-0.09
	c-8.064,0-14.662-6.58-14.709-14.669l-0.075-12.644c-13.944,1.804-26.079,9.419-33.93,20.323l0.862-0.875
	c3.025-3.066,7.076-4.77,11.406-4.795c4.39,0,8.425,1.654,11.461,4.658l4.884,4.843c6.341,6.287,6.401,16.576,0.135,22.937
	l-38.128,38.685v31.54l16.75,16.599c0.193,0.191,0.448,0.29,0.704,0.29c0.195,0,0.392-0.057,0.563-0.173
	c1.486-1.011,3.231-1.546,5.047-1.546c2.382,0,4.62,0.918,6.301,2.584l12.332,12.221c3.521,3.489,3.555,9.199,0.076,12.73
	l-7.537,7.647h60.789c2.802-0.017,5.055-2.306,5.039-5.112V156.407C275.213,139.829,266.761,125.173,254.057,116.183z"/>
<path style="fill:#293D7C;" d="M191.369,240.585l-0.156-26.42c-0.042-7.456-6.105-13.464-13.541-13.421
	c-0.74,0.005-1.461,0.085-2.168,0.204v23.915L191.369,240.585z"/>
<path style="fill:#FFC987;" d="M217.648,253.874l-12.332-12.221c-3.433-3.402-8.758-3.778-12.614-1.155l-36.974-36.64l0.353-0.358
	l-18.025-17.861l-2.133,2.164c-8.841,8.969-8.755,23.479,0.189,32.344l38.64,38.292l-0.16,0.162
	c-3.856,3.911-3.817,10.275,0.084,14.142l12.331,12.221c3.901,3.866,10.249,3.828,14.105-0.083l16.621-16.864
	C221.587,264.104,221.549,257.74,217.648,253.874z"/>
<path style="fill:#F2B675;" d="M182.471,250.606l-46.359-45.941c-2.503-2.48-4.286-5.41-5.4-8.53
	c-2.904,8.121-1.11,17.56,5.4,24.013l38.64,38.292L182.471,250.606z"/>
<path style="fill:#FFFFFF;" d="M165.012,200.549l-24.988-24.759c-0.184-0.183-0.326-0.399-0.43-0.634l-4.648,4.715
	c-0.51,0.519-0.797,1.217-0.791,1.945c0.004,0.731,0.298,1.427,0.814,1.94l22.519,22.314c0.54,0.533,1.239,0.797,1.942,0.793
	c0.699-0.004,1.4-0.277,1.933-0.816l4.858-4.93C165.767,201.068,165.342,200.877,165.012,200.549z"/>
<path style="fill:#293D7C;" d="M292.75,447.994l32.389,5.058v-85.209h-35.426v80.161
	C290.671,447.841,291.692,447.828,292.75,447.994z"/>
<path style="fill:#1A2B63;" d="M292.75,447.994l11.948,1.865v-82.017h-14.985v80.161
	C290.671,447.841,291.692,447.828,292.75,447.994z"/>
<path style="fill:#232323;" d="M347.973,455.536l-55.223-8.623c-5.509-0.861-9.988,3.008-9.957,8.599l0.089,15.247
	c0.025,4.213,2.638,7.829,6.308,9.344l0.004,0.784c0.01,1.678,1.387,3.042,3.06,3.032l2.026-0.013
	c1.673-0.01,3.032-1.39,3.022-3.067l10.139-0.06c0.01,1.678,1.387,3.041,3.058,3.031l2.028-0.012c1.673-0.01,3.032-1.39,3.022-3.067
	l10.139-0.06c0.01,1.678,1.385,3.042,3.059,3.032l2.027-0.012c1.673-0.01,3.033-1.391,3.024-3.068l10.137-0.059
	c0.009,1.678,1.387,3.042,3.06,3.032l2.027-0.013c1.674-0.01,3.033-1.39,3.022-3.067l-0.004-0.859
	c3.563-1.598,6.052-5.195,6.028-9.342l-0.018-3.049C358.016,461.676,353.482,456.398,347.973,455.536z"/>
<path style="fill:#293D7C;" d="M53.012,355.197c0.014,0.568-0.014,1.15-0.106,1.747l-5.249,33.795h72.455v-35.542L53.012,355.197
	L53.012,355.197z"/>
<path style="fill:#1A2B63;" d="M53.012,355.197c0.014,0.568-0.014,1.15-0.106,1.747l-1.571,10.114l68.777-0.057v-11.805
	L53.012,355.197L53.012,355.197z"/>
<path style="fill:#232323;" d="M45.827,412.318l8.6-55.373c0.857-5.522-3.001-10.016-8.576-9.983l-15.204,0.09
	c-4.202,0.025-7.81,2.643-9.318,6.323l-0.783,0.005c-1.674,0.01-3.033,1.39-3.023,3.066l0.012,2.033
	c0.01,1.678,1.387,3.041,3.061,3.031l0.058,10.165c-1.673,0.01-3.032,1.39-3.022,3.067l0.012,2.033
	c0.01,1.678,1.387,3.041,3.06,3.031l0.059,10.164c-1.673,0.01-3.032,1.39-3.023,3.067l0.011,2.033
	c0.01,1.678,1.388,3.041,3.061,3.031l0.061,10.165c-1.674,0.01-3.035,1.39-3.025,3.067l0.012,2.033c0.01,1.678,1.387,3.04,3.06,3.03
	l0.857-0.005c1.594,3.572,5.182,6.069,9.316,6.045l3.041-0.018C39.703,422.388,44.969,417.841,45.827,412.318z"/>
<path style="fill:#293D7C;" d="M166.461,202.139c-0.779,0.005-1.559-0.288-2.154-0.881L139.32,176.5
	c-0.572-0.568-0.897-1.342-0.903-2.15c-0.004-0.809,0.312-1.586,0.878-2.162l45.483-46.147c3.213-3.257,7.514-5.065,12.112-5.093
	c4.599-0.027,8.919,1.73,12.17,4.947l4.885,4.844c6.732,6.674,6.796,17.596,0.143,24.349l-45.481,46.145
	C168.015,201.832,167.238,202.135,166.461,202.139z"/>
<path style="fill:#FFC987;" d="M311.755,76.464l-10.633-17.582l-0.053-9.034c-0.067-11.419-3.968-21.911-10.46-30.276
	c-0.529,0.049-1.064,0.079-1.602,0.082h-40.581c-0.502,0-0.927,0.373-0.991,0.871l-4.638,35.624
	c-0.081,0.611-0.691,1.152-1.305,1.156l-4.461,0.026c-0.569,0-1.03-0.461-1.033-1.026l-0.061-10.227
	c-0.003-0.413-0.259-0.782-0.645-0.929c-1.727-0.657-3.525-0.99-5.346-0.99c-4.149,0.023-7.955,1.631-10.808,4.524
	c-2.852,2.894-4.409,6.728-4.385,10.796l0.041,7.115c0.036,5.869,3.485,11.236,8.8,13.713c0.565,0.465,1.158,0.886,1.77,1.258
	l-5.606,15.566c-0.363,1.012-1.1,1.745-2.129,1.96v20.852c0.051,8.702,7.127,15.715,15.805,15.663
	c8.678-0.051,15.67-7.146,15.62-15.849l-0.016-2.653c0.901,0.065,1.809,0.103,2.723,0.097c27.449-0.162,49.693-1.233,49.531-28.755
	l-0.012-2.032l4.941-0.029C312.544,86.348,315.033,81.884,311.755,76.464z"/>
<path style="fill:#F2B675;" d="M232.961,119.943l-0.125-20.98c-3.139-3.794-5.891-8.004-8.189-12.444l-3.945,10.952
	c-0.506,1.406-1.735,2.398-3.188,2.627l0.118,19.846c0.051,8.702,7.127,15.715,15.805,15.663c2.754-0.017,5.335-0.746,7.578-2.008
	C236.241,130.919,232.995,125.821,232.961,119.943z"/>
<ellipse transform="matrix(-0.0059 -1 1 -0.0059 228.2858 338.7773)" style="fill:#1A2B63;" cx="282.535" cy="55.917" rx="10.28" ry="10.252"/>
<path style="fill:#BF7E52;" d="M307.386,2.127C306.43,0.784,304.877-0.01,303.234,0h-90.781
	c-5.588,0.032-10.192,5.678-11.015,10.766l-9.712,43.341c-0.208,0.933-0.084,1.91,0.356,2.76l21.204,41.093
	c0.703,1.362,2.109,2.207,3.625,2.197c0.08,0,0.162-0.004,0.243-0.008c1.607-0.106,3-1.156,3.547-2.678l5.893-16.359
	c-0.881-0.465-1.702-1.023-2.46-1.657c-4.888-2.225-8.302-7.132-8.337-12.865l-0.041-7.115c-0.047-7.86,6.268-14.269,14.108-14.314
	c1.79-0.011,3.496,0.324,5.074,0.925l0.061,10.226c0.006,1.118,0.923,2.028,2.039,2.021l4.461-0.026
	c1.114-0.007,2.145-0.919,2.29-2.027l4.638-35.624h40.587c8.568-0.051,16.218-5.779,19.036-13.903
	C308.59,5.192,308.34,3.463,307.386,2.127z"/>
<path style="fill:#A05F33;" d="M204.051,56.866c-0.44-0.85-0.565-1.827-0.357-2.76l9.712-43.341
	C214.229,5.678,218.833,0.032,224.421,0h-11.969c-5.588,0.032-10.192,5.678-11.015,10.766l-9.712,43.341
	c-0.208,0.933-0.084,1.91,0.356,2.76l21.204,41.093c0.703,1.362,2.109,2.207,3.625,2.197c0.08,0,0.162-0.004,0.243-0.008
	c1.607-0.106,3-1.156,3.547-2.678l1.77-4.909L204.051,56.866z"/>
<g>
	<path style="fill:#FFFFFF;" d="M172.11,162.131c8.118-0.048,14.659-6.685,14.612-14.825c-0.037-6.248-3.952-11.552-9.436-13.664
		l-18.915,19.19C160.543,158.306,165.878,162.168,172.11,162.131z"/>
	<path style="fill:#FFFFFF;" d="M256.376,182.148l-32.436,0.191c-2.755,0.017-5.001-2.208-5.019-4.97
		c-0.015-2.762,2.203-5.014,4.958-5.029l32.438-0.192c2.755-0.016,5,2.209,5.016,4.971
		C261.349,179.88,259.131,182.131,256.376,182.148z"/>
	<path style="fill:#FFFFFF;" d="M254.327,158.862c-1.116,0.007-1.576-0.782-1.024-1.755l4.779-8.415
		c0.552-0.973,1.465-0.979,2.028-0.012l4.879,8.358c0.563,0.965,0.109,1.76-1.005,1.767L254.327,158.862z"/>
</g>
<path style="fill:#FF9F60;" d="M300.865,92.957h-18.842c-2.775,0-5.022,2.248-5.022,5.021c0,2.773,2.248,5.021,5.022,5.021h16.093
	C299.544,100.233,300.48,96.916,300.865,92.957z"/>
<g>
</g>
<g>
</g>
<g>
</g>
<g>
</g>
<g>
</g>
<g>
</g>
<g>
</g>
<g>
</g>
<g>
</g>
<g>
</g>
<g>
</g>
<g>
</g>
<g>
</g>
<g>
</g>
<g>
</g>
</svg>
