<?xml version="1.0" encoding="iso-8859-1"?>
<!-- Generator: Adobe Illustrator 19.0.0, SVG Export Plug-In . SVG Version: 6.00 Build 0)  -->
<svg version="1.1" id="Capa_1" xmlns="http://www.w3.org/2000/svg" xmlns:xlink="http://www.w3.org/1999/xlink" x="0px" y="0px"
	 viewBox="0 0 511.999 511.999" style="enable-background:new 0 0 511.999 511.999;" xml:space="preserve">
<circle style="fill:#EF8318;" cx="256" cy="256" r="245"/>
<path style="fill:#2DA1DC;" d="M419.066,358.5c-0.342,0-0.659-0.175-0.843-0.463c-1.526-2.393-4.087-3.821-6.852-3.821
	c-2.765,0-5.325,1.429-6.851,3.821c-0.185,0.288-0.502,0.463-0.844,0.463h-5.757c-0.553,0-1-0.447-1-1v-9.794
	c0-4.64-3.673-8.414-8.188-8.414s-8.188,3.774-8.188,8.414v9.794c0,0.553-0.447,1-1,1h-4.264c-0.553,0-1-0.447-1-1v-18.086
	c0-4.64-3.673-8.414-8.188-8.414c-4.515,0-8.188,3.774-8.188,8.414V357.5c0,0.553-0.447,1-1,1h-4.264c-0.553,0-1-0.447-1-1v-9.795
	c0-4.639-3.673-8.413-8.188-8.413c-4.515,0-8.188,3.774-8.188,8.413v9.795c0,0.553-0.447,1-1,1h-13.961
	c-0.135,0-0.268-0.027-0.392-0.08l-18.712-7.961c-0.742-0.315-1.221-1.041-1.217-1.85s0.489-1.53,1.237-1.839
	c8.68-3.585,14.289-11.936,14.289-21.272v-23.365c0-1.102,0.897-2,2-2h3.094c7.168,0,13-5.832,13-13v-12.581c0-7.168-5.832-13-13-13
	h-3.094c-1.103,0-2-0.897-2-2v-58.696c0-7.168-5.832-13-13-13h-93.029c-7.169,0-13,5.832-13,13v58.696c0,1.103-0.897,2-2,2h-3.092
	c-7.169,0-13,5.832-13,13v12.581c0,7.168,5.831,13,13,13h3.092c1.103,0,2,0.898,2,2v23.365c0,9.281,5.563,17.613,14.171,21.226
	c0.743,0.311,1.225,1.033,1.227,1.839s-0.476,1.529-1.217,1.845l-18.83,8.012c-0.124,0.053-0.257,0.08-0.392,0.08h-13.712
	c-0.552,0-1-0.447-1-1v-9.795c0-4.639-3.673-8.413-8.188-8.413s-8.188,3.774-8.188,8.413v9.795c0,0.553-0.448,1-1,1h-4.264
	c-0.552,0-1-0.447-1-1v-18.086c0-4.64-3.673-8.414-8.188-8.414s-8.188,3.774-8.188,8.414V357.5c0,0.553-0.448,1-1,1h-4.264
	c-0.552,0-1-0.447-1-1v-9.794c0-4.64-3.673-8.414-8.188-8.414c-4.515,0-8.188,3.774-8.188,8.414v9.794c0,0.553-0.448,1-1,1h-5.757
	c-0.342,0-0.66-0.175-0.843-0.463c-1.525-2.393-4.086-3.821-6.851-3.821s-5.326,1.429-6.851,3.821
	c-0.184,0.288-0.501,0.463-0.843,0.463H56.187c-0.552,0-1-0.447-1-1V87.857c0-3.309,2.691-6,6-6h389.625c3.309,0,6,2.691,6,6V357.5
	c0,0.553-0.447,1-1,1H419.066z"/>
<path style="fill:#1E8BC2;" d="M71.375,98h384.438V87.857c0-2.75-2.25-5-5-5H61.187c-2.75,0-5,2.25-5,5V357.5h15.188V98z"/>
<path style="fill:#69CDFF;" d="M320.607,301.134h-3.094c-0.553,0-1,0.447-1,1v23.365c0,9.743-5.852,18.455-14.908,22.196
	c-0.372,0.153-0.616,0.516-0.618,0.919c-0.002,0.402,0.237,0.768,0.608,0.925l18.712,7.961h13.961v-9.795
	c0-5.191,4.121-9.413,9.188-9.413c5.066,0,9.188,4.223,9.188,9.413v9.795h4.264v-18.086c0-5.191,4.121-9.414,9.188-9.414
	s9.188,4.223,9.188,9.414V357.5h4.264v-9.794c0-5.191,4.121-9.414,9.188-9.414s9.188,4.223,9.188,9.414v9.794h5.757
	c1.642-2.575,4.475-4.284,7.694-4.284c1.61,0,3.123,0.43,4.44,1.178V122.857H96.187v231.536c1.317-0.748,2.83-1.178,4.44-1.178
	c3.219,0,6.053,1.709,7.694,4.284h5.757v-9.794c0-5.191,4.122-9.414,9.188-9.414c5.066,0,9.188,4.223,9.188,9.414v9.794h4.264
	v-18.086c0-5.191,4.122-9.414,9.188-9.414c5.066,0,9.188,4.223,9.188,9.414V357.5h4.264v-9.795c0-5.191,4.122-9.413,9.188-9.413
	c5.066,0,9.188,4.223,9.188,9.413v9.795h13.712l18.831-8.012c0.37-0.157,0.609-0.521,0.608-0.923
	c-0.001-0.401-0.243-0.764-0.613-0.919c-8.981-3.769-14.785-12.462-14.785-22.148v-23.365c0-0.553-0.448-1-1-1h-3.092
	c-7.72,0-14-6.28-14-14v-12.581c0-7.72,6.28-14,14-14h3.092c0.552,0,1-0.447,1-1v-58.696c0-7.72,6.28-14,14-14h93.029
	c7.72,0,14,6.28,14,14v58.696c0,0.553,0.447,1,1,1h3.094c7.72,0,14,6.28,14,14v12.581
	C334.607,294.853,328.327,301.134,320.607,301.134z"/>
<g>
	<path style="fill:#02AF8E;" d="M397.921,396.736c0,0.553,0.447,1,1,1h2.264c0.553,0,1-0.447,1-1V371h-4.264V396.736z"/>
	<path style="fill:#02AF8E;" d="M375.282,396.736c0,0.553,0.447,1,1,1h2.264c0.553,0,1-0.447,1-1V371h-4.264V396.736z"/>
	<path style="fill:#02AF8E;" d="M109.815,396.736c0,0.553,0.448,1,1,1h2.264c0.552,0,1-0.447,1-1V371h-4.264V396.736z"/>
	<path style="fill:#02AF8E;" d="M132.454,396.736c0,0.553,0.448,1,1,1h2.264c0.552,0,1-0.447,1-1V371h-4.264L132.454,396.736
		L132.454,396.736z"/>
	<path style="fill:#02AF8E;" d="M91.44,437.487V371H39.643C52.998,396.074,70.578,418.556,91.44,437.487z"/>
	<path style="fill:#02AF8E;" d="M420.56,371v66.486C441.421,418.555,459,396.073,472.355,371H420.56z"/>
</g>
<g>
	<path style="fill:#37C47A;" d="M430,385h-9.44v10H430c2.762,0,5-2.238,5-5S432.762,385,430,385z"/>
	<path style="fill:#37C47A;" d="M91.44,386.159c-0.385-0.095-0.78-0.159-1.194-0.159H80c-2.762,0-5,2.238-5,5s2.238,5,5,5h10.246
		c0.414,0,0.81-0.065,1.194-0.159V386.159z"/>
</g>
<path style="fill:#2E4C89;" d="M450.813,82.857h-2.963l-32.5,32.5H96.65l-32.5-32.5h-2.963c-2.75,0-5,2.25-5,5v8.248l30.197,30.197
	c0.683,0.684,1.468,1.201,2.303,1.566V357.5h4.247c1.641-2.575,4.475-4.284,7.694-4.284c1.074,0,2.101,0.199,3.06,0.548v-21.552
	h30.438V357.5h2.593v-18.086c0-5.191,4.122-9.414,9.188-9.414c2.247,0,4.307,0.834,5.905,2.212h28.065V357.5h11.568l3.432-1.46
	v-23.828h1.576c-0.626-2.147-0.966-4.399-0.966-6.713v-8.287h-0.61v-15.999c-0.12-0.051-0.252-0.079-0.39-0.079h-3.092
	c-4.773,0-8.99-2.404-11.518-6.061v22.139h-30.75v-25.179h29.17c-0.574-1.527-0.902-3.174-0.902-4.899v-10.101h-28.268v-25.178
	h30.75v14.758c2.528-3.656,6.746-6.061,11.518-6.061h3.092c0.139,0,0.27-0.028,0.39-0.079v-8.618h0.61v-15h-0.61v-25.178h0.61
	v-10.821c0-1.455,0.224-2.858,0.638-4.179h-1.248V171.5h30.75v15.356h15V171.5h30.75v15.356h15V171.5h30.75v25.178h-1.249
	c0.413,1.32,0.638,2.724,0.638,4.179v10.821h0.611v25.178h-0.611v15h0.611v8.619c0.119,0.05,0.251,0.078,0.389,0.078h3.094
	c4.773,0,8.989,2.404,11.518,6.061v-14.758h30.75v25.178H334.61v10.101c0,1.726-0.329,3.372-0.902,4.899h29.17v25.179h-30.75
	v-22.138c-2.528,3.656-6.745,6.06-11.518,6.06h-3.094c-0.138,0-0.27,0.028-0.389,0.078v16h-0.611v8.287
	c0,2.315-0.34,4.567-0.965,6.713h1.576v23.935l3.183,1.353h11.817v-25.288h28.065c1.599-1.378,3.658-2.212,5.905-2.212
	c5.066,0,9.188,4.223,9.188,9.414V357.5h2.593v-25.288h30.438v21.552c0.959-0.349,1.985-0.548,3.06-0.548
	c3.22,0,6.053,1.709,7.694,4.284h4.246V127.868c0.835-0.364,1.619-0.882,2.303-1.566l30.197-30.197v-8.248
	C455.813,85.107,453.563,82.857,450.813,82.857z M134.125,317.212h-30.438v-25.179h30.438V317.212z M134.125,277.033h-30.438
	v-25.178h30.438V277.033z M134.125,236.855h-30.438v-25.178h30.438V236.855z M134.125,196.678h-30.438V171.5h30.438V196.678z
	 M134.125,156.5h-30.438v-26.143h30.438V156.5z M179.875,236.855h-30.75v-25.178h30.75V236.855z M179.875,196.678h-30.75V171.5
	h30.75V196.678z M179.875,156.5h-30.75v-26.143h30.75V156.5z M225.625,156.5h-30.75v-26.143h30.75V156.5z M271.375,156.5h-30.75
	v-26.143h30.75V156.5z M317.125,156.5h-30.75v-26.143h30.75V156.5z M362.875,236.855h-30.75v-25.178h30.75V236.855z
	 M362.875,196.678h-30.75V171.5h30.75V196.678z M362.875,156.5h-30.75v-26.143h30.75V156.5z M408.313,317.212h-30.438v-25.179
	h30.438V317.212z M408.313,277.033h-30.438v-25.178h30.438V277.033z M408.313,236.855h-30.438v-25.178h30.438V236.855z
	 M408.313,196.678h-30.438V171.5h30.438V196.678z M408.313,156.5h-30.438v-26.143h30.438V156.5z"/>
<g>
	<path style="fill:#1A2B63;" d="M109.815,362.629v9.871h4.264v-15h-5.757C109.263,358.977,109.815,360.737,109.815,362.629z"/>
	<rect x="132.45" y="357.5" style="fill:#1A2B63;" width="4.264" height="15"/>
	<polygon style="fill:#1A2B63;" points="177.731,363.334 191.443,357.5 177.731,357.5 	"/>
	<path style="fill:#1A2B63;" d="M155.093,372.5h1.188c0.276-0.142,0.552-0.275,0.826-0.392l2.25-0.957V357.5h-4.264L155.093,372.5
		L155.093,372.5z"/>
	<path style="fill:#1A2B63;" d="M397.921,357.5v15h4.264v-9.871c0-1.892,0.553-3.652,1.493-5.129H397.921z"/>
	<polygon style="fill:#1A2B63;" points="334.269,363.44 334.269,357.5 320.308,357.5 	"/>
	<path style="fill:#1A2B63;" d="M504.5,357.5h-28.688V67.857c0-2.75-2.25-5-5-5H41.187c-2.75,0-5,2.25-5,5V357.5H7.5
		c-4.143,0-7.5,3.357-7.5,7.5s3.357,7.5,7.5,7.5h83.94v-9.871c0-1.892,0.553-3.652,1.494-5.129H56.187V87.857c0-2.75,2.25-5,5-5
		h389.625c2.75,0,5,2.25,5,5V357.5h-36.746c0.94,1.477,1.493,3.237,1.493,5.129v9.871h83.94c4.143,0,7.5-3.357,7.5-7.5
		S508.643,357.5,504.5,357.5z"/>
	<rect x="375.28" y="357.5" style="fill:#1A2B63;" width="4.264" height="15"/>
	<path style="fill:#1A2B63;" d="M352.644,371.258l2,0.851c0.274,0.116,0.551,0.25,0.826,0.392h1.438v-15h-4.264L352.644,371.258
		L352.644,371.258z"/>
</g>
<g>
	<path style="fill:#B7092B;" d="M352.644,396.736c0,0.553,0.447,1,1,1h2.264c0.553,0,1-0.447,1-1v-24.579
		c-0.622-0.377-1.249-0.703-1.872-0.969l-2.392-1.018V396.736z"/>
	<path style="fill:#B7092B;" d="M155.093,396.736c0,0.553,0.448,1,1,1h2.264c0.552,0,1-0.447,1-1v-26.672l-2.642,1.124
		c-0.54,0.229-1.082,0.514-1.622,0.827V396.736z"/>
	<path style="fill:#B7092B;" d="M337.695,474.848c0-0.79,0.643-1.433,1.433-1.433h2.911c0.553,0,1-0.447,1-1v-5.188
		c0-0.514-0.39-0.944-0.901-0.995c-4.412-0.438-7.869-4.254-7.869-8.688v-8.609c0-0.266-0.105-0.52-0.293-0.707l-28.815-28.814
		c-5.118-5.119-5.216-13.351-0.217-18.35c2.377-2.377,5.564-3.686,8.975-3.686c3.527,0,6.856,1.386,9.374,3.902l9.27,9.27
		c0.191,0.191,0.447,0.293,0.707,0.293c0.129,0,0.259-0.025,0.383-0.076c0.374-0.154,0.617-0.52,0.617-0.924v-47.49l-33.584-14.289
		c-2.552,0.928-5.303,1.434-8.171,1.434h-73.029c-2.918,0-5.716-0.524-8.305-1.483l-33.448,14.23v47.598
		c0,0.404,0.244,0.77,0.617,0.924c0.124,0.052,0.254,0.076,0.383,0.076c0.26,0,0.516-0.102,0.707-0.293l9.27-9.27
		c2.517-2.517,5.846-3.902,9.374-3.902c3.411,0,6.598,1.309,8.975,3.686c4.999,4.999,4.901,13.23-0.217,18.35l-28.815,28.814
		c-0.188,0.188-0.293,0.441-0.293,0.707v8.609c0,4.434-3.457,8.249-7.869,8.688c-0.512,0.051-0.901,0.482-0.901,0.995v5.188
		c0,0.553,0.448,1,1,1h2.911c0.79,0,1.433,0.643,1.433,1.433v12.195C199.856,496.079,227.352,501,256,501
		c28.647,0,56.145-4.921,81.695-13.96V474.848z"/>
</g>
<path style="fill:#FFFFFF;" d="M292.514,349.499h-73.029c-1.616,0-3.194-0.163-4.721-0.469C217.022,369.789,234.651,386,256,386
	c21.35,0,38.977-16.211,41.236-36.97C295.708,349.336,294.13,349.499,292.514,349.499z"/>
<path style="fill:#FF9F60;" d="M229.989,349.499C232.322,361.742,243.077,371,256,371c12.924,0,23.679-9.258,26.011-21.501H229.989z
	"/>
<path style="fill:#FF8D4D;" d="M245.487,349.499h-15.498C232.322,361.742,243.077,371,256,371c2.694,0,5.294-0.405,7.743-1.153
	C254.444,367.009,247.335,359.188,245.487,349.499z"/>
<path style="fill:#B7092B;" d="M302.514,185.856h-93.029c-8.25,0-15,6.75-15,15V241c0-13.75,11.25-25,25-25h73.029
	c13.75,0,25,11.25,25,25v-40.144C317.514,192.606,310.764,185.856,302.514,185.856z"/>
<path style="fill:#A00026;" d="M219.485,216H225v-15.144c0-8.25,6.75-15,15-15h-30.515c-8.25,0-15,6.75-15,15V241
	C194.485,227.25,205.735,216,219.485,216z"/>
<g>
	<path style="fill:#FF9F60;" d="M195.485,259.553h-4.092c-8.25,0-15,6.75-15,15v12.581c0,8.25,6.75,15,15,15h4.092V259.553z"/>
	<path style="fill:#FF9F60;" d="M320.607,259.553h-4.094v42.581h4.094c8.25,0,15-6.75,15-15v-12.581
		C335.607,266.303,328.857,259.553,320.607,259.553z"/>
</g>
<path style="fill:#FFC987;" d="M317.514,325.499c0,13.75-11.25,25-25,25h-73.029c-13.75,0-25-11.25-25-25v-85.694
	c0-13.75,11.25-25,25-25h73.029c13.75,0,25,11.25,25,25V325.499z"/>
<path style="fill:#F2B675;" d="M209.971,325.499v-85.694c0-13.75,11.25-25,25-25h-15.486c-13.75,0-25,11.25-25,25v85.694
	c0,13.75,11.25,25,25,25h15.486C221.221,350.499,209.971,339.249,209.971,325.499z"/>
<g>
	<circle style="fill:#1A2B63;" cx="221.55" cy="274.68" r="10.113"/>
	<circle style="fill:#1A2B63;" cx="291.08" cy="274.68" r="10.113"/>
</g>
<g>
	<path style="fill:#BF7E52;" d="M268.324,309.67h-9.796c-9.537,0-17.296-7.851-17.296-17.5v-32.137c0-1.355-1.145-2.5-2.5-2.5
		h-30.453c-4.142,0-7.5-3.357-7.5-7.5s3.358-7.5,7.5-7.5h30.453c9.649,0,17.5,7.851,17.5,17.5v32.137c0,1.355,1.051,2.5,2.296,2.5
		h9.796c4.143,0,7.5,3.357,7.5,7.5C275.824,306.313,272.467,309.67,268.324,309.67z"/>
	<path style="fill:#BF7E52;" d="M279.07,333.38h-45.509c-4.142,0-7.5-3.357-7.5-7.5s3.358-7.5,7.5-7.5h45.509
		c4.143,0,7.5,3.357,7.5,7.5C286.57,330.022,283.213,333.38,279.07,333.38z"/>
	<path style="fill:#BF7E52;" d="M303.721,257.533h-28.442c-4.143,0-7.5-3.357-7.5-7.5s3.357-7.5,7.5-7.5h28.442
		c4.143,0,7.5,3.357,7.5,7.5S307.863,257.533,303.721,257.533z"/>
</g>
<g>
	<path style="fill:#FFFFFF;" d="M168.544,337.292c-5.617,0-10.188,4.671-10.188,10.413V398h20.375v-50.295
		C178.731,341.963,174.161,337.292,168.544,337.292z"/>
	<path style="fill:#FFFFFF;" d="M156.093,398v-58.586c0-5.742-4.57-10.414-10.188-10.414c-5.617,0-10.188,4.672-10.188,10.414V398
		H156.093z"/>
	<path style="fill:#FFFFFF;" d="M133.454,398v-50.294c0-5.743-4.569-10.414-10.188-10.414c-5.617,0-10.188,4.671-10.188,10.414V398
		H133.454z"/>
	<path style="fill:#FFFFFF;" d="M100.172,398h10.643v-35.371c0-5.741-4.57-10.413-10.188-10.413
		c-5.617,0-10.188,4.672-10.188,10.413v43.796c0,0.224,0.019,0.442,0.033,0.663C90.81,402.034,95.037,398,100.172,398z"/>
</g>
<g>
	<path style="fill:#EEF6FF;" d="M166.916,398v-50.295c0-4.179,2.425-7.779,5.908-9.437c-1.303-0.62-2.75-0.977-4.28-0.977
		c-5.617,0-10.188,4.671-10.188,10.413V398H166.916z"/>
	<path style="fill:#EEF6FF;" d="M144.277,398v-58.586c0-4.179,2.425-7.78,5.908-9.438c-1.303-0.62-2.75-0.977-4.28-0.977
		c-5.617,0-10.188,4.672-10.188,10.414V398H144.277z"/>
	<path style="fill:#EEF6FF;" d="M121.639,398v-50.294c0-4.179,2.426-7.78,5.908-9.438c-1.304-0.62-2.751-0.977-4.28-0.977
		c-5.617,0-10.188,4.671-10.188,10.414V398H121.639z"/>
	<path style="fill:#EEF6FF;" d="M99,398.078v-35.449c0-4.178,2.425-7.779,5.908-9.436c-1.303-0.62-2.75-0.977-4.28-0.977
		c-5.617,0-10.188,4.672-10.188,10.413v43.796c0,0.224,0.019,0.442,0.033,0.663C90.783,402.424,94.407,398.637,99,398.078z"/>
</g>
<path style="fill:#FFFFFF;" d="M207.764,400.357c-5.389-5.389-14.254-5.291-19.763,0.217l-10.71,10.71v39.092l30.256-30.255
	C213.056,414.611,213.152,405.746,207.764,400.357z"/>
<path style="fill:#D9EAFC;" d="M100.172,396.736c-5.353,0-9.732,4.38-9.732,9.733v30.115c16.071,14.742,34.121,27.352,53.697,37.416
	h25.823v-6.772c4.906-0.487,8.771-4.654,8.771-9.683v-60.809H100.172z"/>
<path style="fill:#C3DDF4;" d="M105.709,406.469c0-5.353,4.379-9.733,9.731-9.733h-15.268c-5.353,0-9.732,4.38-9.732,9.733v30.115
	c4.906,4.5,10.007,8.79,15.269,12.883V406.469z"/>
<path style="fill:#85A0DD;" d="M172.872,472.415h-31.787c10.94,5.821,22.372,10.835,34.22,14.967v-12.534
	C175.305,473.51,174.21,472.415,172.872,472.415z"/>
<g>
	<path style="fill:#FFFFFF;" d="M353.644,347.704c0-5.742-4.57-10.413-10.188-10.413c-5.617,0-10.188,4.671-10.188,10.413V398
		h20.375L353.644,347.704L353.644,347.704z"/>
	<path style="fill:#FFFFFF;" d="M376.282,398v-58.586c0-5.742-4.57-10.414-10.188-10.414c-5.617,0-10.188,4.672-10.188,10.414V398
		H376.282z"/>
	<path style="fill:#FFFFFF;" d="M398.921,398v-50.294c0-5.743-4.57-10.414-10.188-10.414c-5.618,0-10.188,4.671-10.188,10.414V398
		H398.921z"/>
	<path style="fill:#FFFFFF;" d="M411.372,352.216c-5.617,0-10.188,4.672-10.188,10.413V398h10.643c5.135,0,9.362,4.034,9.698,9.088
		c0.014-0.221,0.033-0.439,0.033-0.663v-43.796C421.56,356.888,416.989,352.216,411.372,352.216z"/>
</g>
<g>
	<path style="fill:#EEF6FF;" d="M342,347.704c0-4.144,2.386-7.719,5.822-9.395c-1.326-0.646-2.803-1.018-4.366-1.018
		c-5.617,0-10.188,4.671-10.188,10.413V398H342V347.704z"/>
	<path style="fill:#EEF6FF;" d="M364.639,398v-58.586c0-4.144,2.386-7.72,5.822-9.395c-1.326-0.647-2.803-1.02-4.366-1.02
		c-5.617,0-10.188,4.672-10.188,10.414V398H364.639z"/>
	<path style="fill:#EEF6FF;" d="M387.277,398v-50.294c0-4.145,2.386-7.72,5.821-9.396c-1.325-0.646-2.802-1.018-4.365-1.018
		c-5.618,0-10.188,4.671-10.188,10.414V398H387.277z"/>
	<path style="fill:#EEF6FF;" d="M409.916,398v-35.371c0-4.143,2.386-7.719,5.822-9.395c-1.326-0.646-2.803-1.019-4.366-1.019
		c-5.617,0-10.188,4.672-10.188,10.413V398H409.916z"/>
</g>
<path style="fill:#FFFFFF;" d="M334.709,411.284l-10.71-10.71c-5.509-5.508-14.374-5.605-19.763-0.217
	c-5.389,5.389-5.292,14.254,0.217,19.764l30.256,30.255L334.709,411.284L334.709,411.284z"/>
<path style="fill:#D9EAFC;" d="M411.828,396.736h-78.56v60.809c0,5.028,3.864,9.195,8.771,9.683V474h25.822
	c19.576-10.064,37.627-22.675,53.698-37.417v-30.114C421.56,401.116,417.181,396.736,411.828,396.736z"/>
<path style="fill:#C3DDF4;" d="M342.039,474h15.44v-6.772c-4.906-0.487-8.77-4.654-8.77-9.683v-60.809h-15.44v60.809
	c0,5.028,3.864,9.195,8.771,9.683V474H342.039z"/>
<path style="fill:#85A0DD;" d="M336.695,487.382c11.848-4.132,23.279-9.146,34.219-14.967h-31.786c-1.338,0-2.433,1.095-2.433,2.433
	L336.695,487.382L336.695,487.382z"/>
<g>
</g>
<g>
</g>
<g>
</g>
<g>
</g>
<g>
</g>
<g>
</g>
<g>
</g>
<g>
</g>
<g>
</g>
<g>
</g>
<g>
</g>
<g>
</g>
<g>
</g>
<g>
</g>
<g>
</g>
</svg>
