<?xml version="1.0" encoding="iso-8859-1"?>
<!-- Generator: Adobe Illustrator 19.0.0, SVG Export Plug-In . SVG Version: 6.00 Build 0)  -->
<svg version="1.1" id="Capa_1" xmlns="http://www.w3.org/2000/svg" xmlns:xlink="http://www.w3.org/1999/xlink" x="0px" y="0px"
	 viewBox="0 0 512 512" style="enable-background:new 0 0 512 512;" xml:space="preserve">
<circle style="fill:#FFAF10;" cx="256" cy="256" r="245"/>
<path style="fill:#FFE2B8;" d="M74,173.341v129.483c8.743-2.49,17.969-3.824,27.5-3.824c55.416,0,100.5,45.084,100.5,100.5
	c0,12.492-2.298,24.456-6.481,35.5H512V173.341H74z"/>
<path style="fill:#FFC987;" d="M96.829,258.843c-1.735,0-3.147-1.412-3.147-3.148v-47.989c0-1.735,1.412-3.147,3.147-3.147H104
	v-31.217H74v129.483c6.34-1.806,12.935-2.994,19.715-3.516v-19.2c0-2.281,1.866-4.147,4.147-4.147H104v-17.118h-7.171V258.843z"/>
<path style="fill:#EA2A3D;" d="M502,113.137h-15.491v28.988c0,4.963-4.038,9-9,9h-4.057c-4.962,0-9-4.037-9-9v-28.988h-30.081
	v28.988c0,4.963-4.038,9-9,9h-4.057c-4.962,0-9-4.037-9-9v-28.988h-30.081v28.988c0,4.963-4.038,9-9,9h-4.057c-4.962,0-9-4.037-9-9
	v-28.988h-30.08v28.988c0,4.963-4.038,9-9,9h-4.057c-4.962,0-9-4.037-9-9v-28.988H277.96v28.988c0,4.963-4.038,9-9,9h-4.057
	c-4.962,0-9-4.037-9-9v-28.988h-30.08v28.988c0,4.963-4.038,9-9,9h-4.057c-4.962,0-9-4.037-9-9v-28.988h-30.081v28.988
	c0,4.963-4.038,9-9,9h-4.057c-4.962,0-9-4.037-9-9v-28.988h-30.081v28.988c0,4.963-4.038,9-9,9h-4.057c-4.962,0-9-4.037-9-9v-28.988
	H84c-5.5,0-10,4.5-10,10v51.341h438v-51.341C512,117.637,507.5,113.137,502,113.137z"/>
<path style="fill:#B7092B;" d="M99.491,142.125v-28.988H84c-5.5,0-10,4.5-10,10v51.341h30v-24.564
	C101.31,148.355,99.491,145.451,99.491,142.125z"/>
<rect x="436.05" y="358" style="fill:#FFAF10;" width="10.395" height="13.585"/>
<g>
	<path style="fill:#FF9518;" d="M415.355,330.997c-0.274-0.539-0.536-1.098-0.801-1.651c-3.09-1.555-6.209-4.507-9.103-8.657
		c-3.006-4.309-5.522-11.225-6.728-18.5c-0.07-0.428,0.05-0.861,0.33-1.192c0.28-0.329,0.689-0.52,1.122-0.52h5.79
		c-0.463-2.891-0.842-5.843-1.129-8.848H390.91c-0.96,0-1.74,0.782-1.74,1.743c0,11.754,3.208,22.824,9.032,31.175
		c5.445,7.807,12.715,12.481,20.472,13.159c0.04,0.002,0.079,0.004,0.119,0.004c0.155,0,0.304-0.035,0.447-0.086
		C417.873,335.6,416.574,333.392,415.355,330.997z"/>
	<path style="fill:#FF9518;" d="M491.577,291.629h-13.928c-0.287,3.005-0.666,5.957-1.129,8.848h5.792c0.432,0,0.84,0.19,1.121,0.52
		c0.28,0.331,0.399,0.765,0.329,1.192c-1.207,7.275-3.722,14.19-6.728,18.5c-2.895,4.152-6.015,7.104-9.106,8.659
		c-0.265,0.553-0.526,1.111-0.8,1.649c-1.218,2.393-2.517,4.603-3.882,6.626c0.143,0.051,0.293,0.087,0.449,0.087
		c0.04,0,0.079-0.002,0.118-0.004c7.758-0.678,15.027-5.353,20.472-13.159c5.826-8.35,9.034-19.421,9.034-31.175
		C493.319,292.411,492.537,291.629,491.577,291.629z"/>
</g>
<path style="fill:#FFAF10;" d="M478.717,279.105c-0.381-0.39-0.903-0.608-1.448-0.608h-72.054c-0.544,0-1.065,0.218-1.447,0.608
	c-0.382,0.391-0.59,0.917-0.58,1.462c0.41,19.326,4.413,37.397,11.275,50.883c4.64,9.119,10.304,15.563,16.501,18.939h20.554
	c6.197-3.377,11.86-9.82,16.5-18.939c6.863-13.485,10.867-31.557,11.276-50.883C479.307,280.022,479.099,279.496,478.717,279.105z"
	/>
<path style="fill:#EF9614;" d="M430.169,331.45c-6.862-13.485-10.865-31.557-11.275-50.883c-0.011-0.545,0.198-1.071,0.579-1.462
	c0.381-0.39,0.902-0.608,1.447-0.608h-15.705c-0.544,0-1.065,0.218-1.447,0.608c-0.382,0.391-0.59,0.917-0.58,1.462
	c0.41,19.326,4.413,37.397,11.275,50.883c4.64,9.119,10.304,15.563,16.501,18.939h15.705
	C440.473,347.013,434.809,340.569,430.169,331.45z"/>
<path style="fill:#FF9518;" d="M462.324,395.74v-23.981c0-0.787-0.646-1.434-1.432-1.434h-39.3c-0.788,0-1.433,0.647-1.433,1.434
	v23.981H462.324z"/>
<g>
	<path style="fill:#FFAF10;" d="M470.606,401.091c0,0.787-0.644,1.434-1.432,1.434H413.31c-0.788,0-1.432-0.647-1.432-1.434v-4.488
		c0-0.789,0.645-1.433,1.432-1.433h55.864c0.788,0,1.432,0.644,1.432,1.433L470.606,401.091L470.606,401.091z"/>
	<path style="fill:#FFAF10;" d="M454.607,387.969c0,0.474-0.386,0.86-0.859,0.86h-25.01c-0.473,0-0.86-0.387-0.86-0.86v-9.672
		c0-0.474,0.387-0.859,0.86-0.859h25.01c0.473,0,0.859,0.386,0.859,0.859V387.969z"/>
</g>
<path style="fill:#FF9518;" d="M429.71,349.728v7.978c0,0.784,0.641,1.426,1.423,1.426h20.217c0.784,0,1.424-0.642,1.424-1.426
	v-7.978H429.71z"/>
<path style="fill:#EF8318;" d="M450.665,325.19c-0.448,0.001-0.905-0.122-1.361-0.36l-7.37-3.874
	c-0.111-0.06-0.359-0.127-0.691-0.127c-0.333,0-0.581,0.067-0.692,0.127l-7.37,3.874c-0.456,0.238-0.913,0.36-1.36,0.36
	c-0.679,0-1.286-0.277-1.71-0.779c-0.471-0.558-0.649-1.33-0.504-2.177l1.407-8.207c0.062-0.36-0.166-1.061-0.428-1.316
	l-5.962-5.813c-0.777-0.756-1.058-1.695-0.772-2.573c0.285-0.878,1.065-1.472,2.137-1.628l8.239-1.197
	c0.362-0.053,0.958-0.486,1.12-0.814l3.686-7.467c0.48-0.972,1.284-1.53,2.209-1.53c0.924,0,1.729,0.559,2.208,1.53l3.685,7.467
	c0.161,0.329,0.758,0.761,1.12,0.814l8.241,1.197c1.071,0.156,1.85,0.75,2.135,1.628c0.287,0.878,0.005,1.817-0.771,2.573
	l-5.962,5.813c-0.261,0.256-0.49,0.956-0.428,1.316l1.408,8.207c0.145,0.847-0.033,1.619-0.504,2.177
	C451.952,324.912,451.344,325.19,450.665,325.19z"/>
<path style="fill:#FFFFFF;" d="M144.819,203.558h-47.99c-2.281,0-4.147,1.866-4.147,4.147v47.989c0,2.281,1.866,4.148,4.147,4.148
	h47.99c2.281,0,4.148-1.867,4.148-4.148v-47.989C148.966,205.424,147.1,203.558,144.819,203.558z"/>
<path style="fill:#EEF6FF;" d="M105.463,255.694v-47.989c0-2.281,1.866-4.147,4.147-4.147H96.829c-2.281,0-4.147,1.866-4.147,4.147
	v47.989c0,2.281,1.866,4.148,4.147,4.148h12.782C107.33,259.843,105.463,257.976,105.463,255.694z"/>
<path style="fill:#FFFFFF;" d="M219.354,203.558h-47.99c-2.281,0-4.148,1.866-4.148,4.147v47.989c0,2.281,1.867,4.148,4.148,4.148
	h47.99c2.281,0,4.147-1.867,4.147-4.148v-47.989C223.501,205.424,221.635,203.558,219.354,203.558z"/>
<path style="fill:#EEF6FF;" d="M179.998,255.694v-47.989c0-2.281,1.866-4.147,4.148-4.147h-12.782c-2.281,0-4.148,1.866-4.148,4.147
	v47.989c0,2.281,1.867,4.148,4.148,4.148h12.782C181.865,259.843,179.998,257.976,179.998,255.694z"/>
<path style="fill:#FFFFFF;" d="M293.889,203.558h-47.99c-2.281,0-4.148,1.866-4.148,4.147v47.989c0,2.281,1.867,4.148,4.148,4.148
	h47.99c2.281,0,4.147-1.867,4.147-4.148v-47.989C298.037,205.424,296.17,203.558,293.889,203.558z"/>
<path style="fill:#EEF6FF;" d="M254.534,255.694v-47.989c0-2.281,1.866-4.147,4.147-4.147h-12.782c-2.281,0-4.148,1.866-4.148,4.147
	v47.989c0,2.281,1.867,4.148,4.148,4.148h12.782C256.4,259.843,254.534,257.976,254.534,255.694z"/>
<path style="fill:#FFFFFF;" d="M368.424,203.558h-47.99c-2.281,0-4.148,1.866-4.148,4.147v47.989c0,2.281,1.867,4.148,4.148,4.148
	h47.99c2.281,0,4.147-1.867,4.147-4.148v-47.989C372.572,205.424,370.706,203.558,368.424,203.558z"/>
<path style="fill:#EEF6FF;" d="M329.069,255.694v-47.989c0-2.281,1.866-4.147,4.147-4.147h-12.782c-2.281,0-4.148,1.866-4.148,4.147
	v47.989c0,2.281,1.867,4.148,4.148,4.148h12.782C330.935,259.843,329.069,257.976,329.069,255.694z"/>
<path style="fill:#FFFFFF;" d="M101.5,299c17.157,0,33.321,4.325,47.466,11.938v-31.892c0-2.281-1.866-4.147-4.148-4.147h-47.99
	c-2.281,0-4.147,1.866-4.147,4.147v20.346C95.588,299.138,98.528,299,101.5,299z"/>
<path style="fill:#EEF6FF;" d="M101.5,299c1.328,0,2.648,0.034,3.963,0.085v-20.039c0-2.281,1.866-4.147,4.147-4.147H96.829
	c-2.281,0-4.147,1.866-4.147,4.147v20.346C95.588,299.138,98.528,299,101.5,299z"/>
<path style="fill:#FFFFFF;" d="M219.354,274.898h-47.99c-2.281,0-4.148,1.866-4.148,4.147v44.477
	c2.779,2.406,5.419,4.967,7.919,7.66h44.218c2.281,0,4.147-1.866,4.147-4.147v-47.989
	C223.501,276.765,221.635,274.898,219.354,274.898z"/>
<path style="fill:#EEF6FF;" d="M175.136,331.183h9.01c-2.281,0-4.148-1.866-4.148-4.147v-47.989c0-2.281,1.866-4.147,4.148-4.147
	h-12.782c-2.281,0-4.148,1.866-4.148,4.147v44.477C169.995,325.929,172.636,328.489,175.136,331.183z"/>
<path style="fill:#FFFFFF;" d="M293.889,274.898h-47.99c-2.281,0-4.148,1.866-4.148,4.147v47.989c0,2.281,1.867,4.147,4.148,4.147
	h47.99c2.281,0,4.147-1.866,4.147-4.147v-47.989C298.037,276.765,296.17,274.898,293.889,274.898z"/>
<path style="fill:#EEF6FF;" d="M254.534,327.035v-47.989c0-2.281,1.866-4.147,4.147-4.147h-12.782c-2.281,0-4.148,1.866-4.148,4.147
	v47.989c0,2.281,1.867,4.147,4.148,4.147h12.782C256.4,331.183,254.534,329.316,254.534,327.035z"/>
<path style="fill:#FFFFFF;" d="M368.424,274.898h-47.99c-2.281,0-4.148,1.866-4.148,4.147v47.989c0,2.281,1.867,4.147,4.148,4.147
	h47.99c2.281,0,4.147-1.866,4.147-4.147v-47.989C372.572,276.765,370.706,274.898,368.424,274.898z"/>
<path style="fill:#EEF6FF;" d="M329.069,327.035v-47.989c0-2.281,1.866-4.147,4.147-4.147h-12.782c-2.281,0-4.148,1.866-4.148,4.147
	v47.989c0,2.281,1.867,4.147,4.148,4.147h12.782C330.935,331.183,329.069,329.316,329.069,327.035z"/>
<g>
	<path style="fill:#FFFFFF;" d="M219.354,346.239h-32.666C196.383,361.691,202,379.951,202,399.5c0,1.012-0.02,2.02-0.049,3.024
		h17.403c2.281,0,4.147-1.867,4.147-4.148v-47.989C223.501,348.105,221.635,346.239,219.354,346.239z"/>
	<path style="fill:#FFFFFF;" d="M293.889,346.239h-47.99c-2.281,0-4.148,1.866-4.148,4.147v47.989c0,2.281,1.867,4.148,4.148,4.148
		h47.99c2.281,0,4.147-1.867,4.147-4.148v-47.989C298.037,348.105,296.17,346.239,293.889,346.239z"/>
</g>
<path style="fill:#EEF6FF;" d="M254.534,398.376v-47.989c0-2.281,1.866-4.147,4.147-4.147h-12.782c-2.281,0-4.148,1.866-4.148,4.147
	v47.989c0,2.281,1.867,4.148,4.148,4.148h12.782C256.4,402.524,254.534,400.657,254.534,398.376z"/>
<path style="fill:#FFFFFF;" d="M368.424,346.239h-47.99c-2.281,0-4.148,1.866-4.148,4.147v47.989c0,2.281,1.867,4.148,4.148,4.148
	h47.99c2.281,0,4.147-1.867,4.147-4.148v-47.989C372.572,348.105,370.706,346.239,368.424,346.239z"/>
<path style="fill:#EEF6FF;" d="M329.069,398.376v-47.989c0-2.281,1.866-4.147,4.147-4.147h-12.782c-2.281,0-4.148,1.866-4.148,4.147
	v47.989c0,2.281,1.867,4.148,4.148,4.148h12.782C330.935,402.524,329.069,400.657,329.069,398.376z"/>
<path style="fill:#445EA0;" d="M396.448,229.273h89.591c2.281,0,4.147-1.867,4.147-4.148v-14.932c0-2.281-1.866-4.148-4.147-4.148
	h-89.591c-2.281,0-4.148,1.866-4.148,4.148v14.932C392.3,227.406,394.167,229.273,396.448,229.273z"/>
<path style="fill:#2E4C89;" d="M417.773,225.125v-14.932c0-2.281,1.866-4.148,4.148-4.148h-25.473c-2.281,0-4.148,1.866-4.148,4.148
	v14.932c0,2.281,1.867,4.148,4.148,4.148h25.473C419.64,229.273,417.773,227.406,417.773,225.125z"/>
<path style="fill:#2BB381;" d="M396.448,263.284h89.591c2.281,0,4.147-1.866,4.147-4.148v-14.932c0-2.281-1.866-4.147-4.147-4.147
	h-89.591c-2.281,0-4.148,1.866-4.148,4.147v14.932C392.3,261.418,394.167,263.284,396.448,263.284z"/>
<path style="fill:#159E97;" d="M417.773,259.137v-14.932c0-2.281,1.866-4.147,4.148-4.147h-25.473c-2.281,0-4.148,1.866-4.148,4.147
	v14.932c0,2.281,1.867,4.148,4.148,4.148h25.473C419.64,263.284,417.773,261.418,417.773,259.137z"/>
<circle style="fill:#EEF6FF;" cx="101.5" cy="399.5" r="101.5"/>
<path style="fill:#D9EAFC;" d="M30,399.5c0-50.961,37.557-93.144,86.5-100.395c-4.896-0.725-9.903-1.105-15-1.105
	C45.444,298,0,343.442,0,399.5C0,455.556,45.444,501,101.5,501c5.097,0,10.104-0.381,15-1.105C67.557,492.644,30,450.459,30,399.5z"
	/>
<path style="fill:#232323;" d="M188.631,387.549l14.257,7.265c-1.197-26.352-12.442-50.081-29.993-67.454l-3.335,21.047
	l-47.58-31.309l16.644-12.093C127.125,300.482,114.602,298,101.5,298c-13.103,0-25.625,2.482-37.123,7.005l16.644,12.093
	L33.923,348.09l-3.355-21.181c-17.88,17.474-29.329,41.496-30.467,68.192l14.346-7.31l19.783,62.681l-22.491-3.563
	c11.432,21.599,30.427,38.574,53.461,47.398l-2.369-14.95h77.254l-2.374,14.985c23.052-8.808,42.066-25.773,53.517-47.37
	l-22.476,3.56L188.631,387.549z M162.143,451.58l-13.77,2.18l-23.198-23.197l11.369-34.99l31.801-18.36l14.879,7.581L162.143,451.58
	z M168.531,354.897l-2.665,16.832l-30.596,17.665l-30.777-22.359v-37.233l12.31-8.942L168.531,354.897z M86.197,320.859
	l12.309,8.942v37.233l-30.655,22.271l-30.159-17.412L34.95,354.58L86.197,320.859z M19.856,385.037l15.205-7.748l31.333,18.09
	l11.323,34.846L54.292,453.65l-13.451-2.129L19.856,385.037z M61.883,473.369l-2.576-16.266l22.962-22.962h38.015l23.275,23.275
	l-2.526,15.952h-79.15V473.369z"/>
<g>
	<path style="fill:#999CAD;" d="M98.491,142.125c0,5.5,4.5,10,10,10h4.057c5.5,0,10-4.5,10-10V97.421c0-5.5-4.5-10-10-10h-4.057
		c-5.5,0-10,4.5-10,10V142.125z"/>
	<path style="fill:#999CAD;" d="M150.628,142.125c0,5.5,4.5,10,10,10h4.057c5.5,0,10-4.5,10-10V97.421c0-5.5-4.5-10-10-10h-4.057
		c-5.5,0-10,4.5-10,10V142.125z"/>
	<path style="fill:#999CAD;" d="M202.766,142.125c0,5.5,4.5,10,10,10h4.057c5.5,0,10-4.5,10-10V97.421c0-5.5-4.5-10-10-10h-4.057
		c-5.5,0-10,4.5-10,10V142.125z"/>
	<path style="fill:#999CAD;" d="M254.903,142.125c0,5.5,4.5,10,10,10h4.057c5.5,0,10-4.5,10-10V97.421c0-5.5-4.5-10-10-10h-4.057
		c-5.5,0-10,4.5-10,10L254.903,142.125L254.903,142.125z"/>
	<path style="fill:#999CAD;" d="M307.04,142.125c0,5.5,4.5,10,10,10h4.057c5.5,0,10-4.5,10-10V97.421c0-5.5-4.5-10-10-10h-4.057
		c-5.5,0-10,4.5-10,10V142.125z"/>
	<path style="fill:#999CAD;" d="M359.178,142.125c0,5.5,4.5,10,10,10h4.057c5.5,0,10-4.5,10-10V97.421c0-5.5-4.5-10-10-10h-4.057
		c-5.5,0-10,4.5-10,10V142.125z"/>
	<path style="fill:#999CAD;" d="M411.315,142.125c0,5.5,4.5,10,10,10h4.057c5.5,0,10-4.5,10-10V97.421c0-5.5-4.5-10-10-10h-4.057
		c-5.5,0-10,4.5-10,10V142.125z"/>
	<path style="fill:#999CAD;" d="M473.453,87.421c-5.5,0-10,4.5-10,10v44.704c0,5.5,4.5,10,10,10h4.057c5.5,0,10-4.5,10-10V97.421
		c0-5.5-4.5-10-10-10H473.453z"/>
</g>
<g>
</g>
<g>
</g>
<g>
</g>
<g>
</g>
<g>
</g>
<g>
</g>
<g>
</g>
<g>
</g>
<g>
</g>
<g>
</g>
<g>
</g>
<g>
</g>
<g>
</g>
<g>
</g>
<g>
</g>
</svg>
