<?xml version="1.0" encoding="iso-8859-1"?>
<!-- Generator: Adobe Illustrator 19.0.0, SVG Export Plug-In . SVG Version: 6.00 Build 0)  -->
<svg version="1.1" id="Capa_1" xmlns="http://www.w3.org/2000/svg" xmlns:xlink="http://www.w3.org/1999/xlink" x="0px" y="0px"
	 viewBox="0 0 512 512" style="enable-background:new 0 0 512 512;" xml:space="preserve">
<circle style="fill:#159E97;" cx="245" cy="256" r="245"/>
<path style="fill:#80859B;" d="M234.291,156v28.816c0,1.311-0.262,2.561-0.726,3.71h66.017v-26.944c0-3.07,2.511-5.582,5.582-5.582
	H234.291z"/>
<path style="fill:#FF9F60;" d="M225.561,110.877h-118.29c-5.5,0-10,4.5-10,10v2H39.302c-15.906,24.527-27.538,52.078-33.857,81.602
	h91.117v0.557c0,5.5,4.5,10,10,10h8.367c4.207,0,7.82-2.637,9.291-6.335v1.3c0,5.5,4.5,10,10,10h8.367c5.5,0,10-4.5,10-10v-0.59
	c1.471,3.699,5.085,6.335,9.291,6.335h8.367c5.5,0,10-4.5,10-10v-1.3c1.471,3.699,5.085,6.335,9.291,6.335h8.367c5.5,0,10-4.5,10-10
	v-12.299c1.471,3.698,5.084,6.335,9.291,6.335h8.367c5.5,0,10-4.5,10-10v-63.939C235.561,115.377,231.061,110.877,225.561,110.877z"
	/>
<path style="fill:#FFB38D;" d="M225.561,110.877h-118.29c-5.5,0-10,4.5-10,10v2H39.302c-15.906,24.527-27.538,52.078-33.857,81.602
	h92.117V152.7c0-4.963,4.038-9,9-9h8.367c3.003,0,5.661,1.484,7.297,3.752c1.67,1.789,2.703,4.18,2.703,6.805v0.742l0,0
	c0.09,0,0.178-0.017,0.263-0.039c0.474-0.997,1.109-1.902,1.869-2.686c1.682-2.216,4.328-3.609,7.159-3.609h8.367
	c2.831,0,5.477,1.393,7.159,3.609c0.76,0.784,1.395,1.689,1.869,2.686c0.085,0.022,0.172,0.039,0.263,0.039h0.001v-0.033
	c0-2.626,1.034-5.018,2.705-6.807c1.636-2.267,4.293-3.75,7.295-3.75h8.367c2.831,0,5.478,1.394,7.16,3.61
	c0.759,0.784,1.395,1.688,1.868,2.684c0.085,0.023,0.172,0.04,0.263,0.04h0.001V150c0-2.626,1.034-5.018,2.705-6.807
	c1.636-2.267,4.293-3.75,7.295-3.75h8.367c3.003,0,5.659,1.483,7.295,3.75c1.671,1.789,2.705,4.181,2.705,6.807v38.481
	c1.471,3.698,5.084,6.335,9.291,6.335h8.367c5.5,0,10-4.5,10-10v-63.939C235.561,115.377,231.061,110.877,225.561,110.877z"/>
<g>
	<rect x="61" y="122.88" style="fill:#1A2B63;" width="27.562" height="34.12"/>
	<rect x="61" y="187.53" style="fill:#1A2B63;" width="27.562" height="16.952"/>
</g>
<path style="fill:#80859B;" d="M97.633,156H54c-1.65,0-3,1.35-3,3v26.526c0,1.65,1.35,3,3,3h43.633
	C97.633,188.526,97.633,156,97.633,156z"/>
<path style="fill:#6E7489;" d="M82,185.526V159c0-1.65,1.35-3,3-3H54c-1.65,0-3,1.35-3,3v26.526c0,1.65,1.35,3,3,3h31
	C83.35,188.526,82,187.177,82,185.526z"/>
<path style="fill:#FFAF10;" d="M304.162,466c-3.071,0-5.582-2.513-5.582-5.582V161.582c0-3.07,2.511-5.582,5.582-5.582h202.254
	c3.071,0,5.583,2.512,5.583,5.582v298.836c0,3.069-2.512,5.582-5.583,5.582H304.162z"/>
<g>
	<path style="fill:#FF9518;" d="M329,460.418v-19.259l-30.419-30.421v49.68c0,3.069,2.511,5.582,5.582,5.582h30.419
		C331.511,466,329,463.487,329,460.418z"/>
	<polygon style="fill:#FF9518;" points="329,241.679 298.581,211.258 298.581,310.999 329,280.58 	"/>
	<path style="fill:#FF9518;" d="M329,161.582c0-3.07,2.511-5.582,5.582-5.582h-30.419c-3.071,0-5.582,2.512-5.582,5.582v49.676
		L329,180.839V161.582z"/>
	<polygon style="fill:#FF9518;" points="329,341.42 298.581,310.999 298.581,410.738 329,380.32 	"/>
</g>
<path style="fill:#EA2A3D;" d="M456.74,466L512,410.738l-49.87-49.868L512,310.999l-49.87-49.869L512,211.258L456.74,156
	l-51.451,51.449L353.84,156l-55.259,55.258l49.87,49.872l-49.87,49.869l49.87,49.871l-49.87,49.868L353.84,466l51.45-51.451
	L456.74,466z M405.29,406.93l-46.06-46.06l46.06-46.061l46.061,46.061L405.29,406.93z M405.29,307.19l-46.06-46.06l46.06-46.062
	l46.061,46.062L405.29,307.19z"/>
<circle style="fill:#2E4C89;" cx="75.5" cy="140.5" r="6.5"/>
<g>
	<path style="fill:#FF9F60;" d="M124.929,205.035c0,5.5-4.5,10-10,10h-8.367c-5.5,0-10-4.5-10-10v-52.336c0-5.5,4.5-10,10-10h8.367
		c5.5,0,10,4.5,10,10V205.035z"/>
	<path style="fill:#FF9F60;" d="M152.587,210c0,5.5-4.5,10-10,10h-8.367c-5.5,0-10-4.5-10-10v-52.337c0-5.5,4.5-10,10-10h8.367
		c5.5,0,10,4.5,10,10V210z"/>
	<path style="fill:#FF9F60;" d="M180.245,205.745c0,5.5-4.5,10-10,10h-8.367c-5.5,0-10-4.5-10-10v-52.337c0-5.5,4.5-10,10-10h8.367
		c5.5,0,10,4.5,10,10V205.745z"/>
	<path style="fill:#FF9F60;" d="M207.903,200.78c0,5.5-4.5,10-10,10h-8.367c-5.5,0-10-4.5-10-10v-52.337c0-5.5,4.5-10,10-10h8.367
		c5.5,0,10,4.5,10,10V200.78z"/>
</g>
<g>
	<path style="fill:#FF8D4D;" d="M111.658,205.035v-52.336c0-4.319,2.78-8.011,6.635-9.401c-1.054-0.38-2.184-0.599-3.365-0.599
		h-8.367c-5.5,0-10,4.5-10,10v52.336c0,5.5,4.5,10,10,10h8.367c1.181,0,2.311-0.219,3.365-0.599
		C114.438,213.046,111.658,209.355,111.658,205.035z"/>
	<path style="fill:#FF8D4D;" d="M139.316,210v-52.337c0-4.319,2.78-8.011,6.635-9.401c-1.054-0.381-2.184-0.599-3.365-0.599h-8.367
		c-5.5,0-10,4.5-10,10V210c0,5.5,4.5,10,10,10h8.367c1.181,0,2.311-0.219,3.365-0.599C142.097,218.011,139.316,214.319,139.316,210z
		"/>
	<path style="fill:#FF8D4D;" d="M166.975,205.745v-52.337c0-4.319,2.78-8.011,6.635-9.401c-1.054-0.38-2.184-0.599-3.365-0.599
		h-8.367c-5.5,0-10,4.5-10,10v52.337c0,5.5,4.5,10,10,10h8.367c1.181,0,2.311-0.218,3.365-0.599
		C169.755,213.756,166.975,210.064,166.975,205.745z"/>
	<path style="fill:#FF8D4D;" d="M194.633,200.78v-52.337c0-4.319,2.78-8.011,6.635-9.401c-1.054-0.38-2.184-0.599-3.365-0.599
		h-8.367c-5.5,0-10,4.5-10,10v52.337c0,5.5,4.5,10,10,10h8.367c1.181,0,2.311-0.218,3.365-0.599
		C197.413,208.791,194.633,205.1,194.633,200.78z"/>
</g>
<g>
</g>
<g>
</g>
<g>
</g>
<g>
</g>
<g>
</g>
<g>
</g>
<g>
</g>
<g>
</g>
<g>
</g>
<g>
</g>
<g>
</g>
<g>
</g>
<g>
</g>
<g>
</g>
<g>
</g>
</svg>
