<?xml version="1.0" encoding="iso-8859-1"?>
<!-- Generator: Adobe Illustrator 19.0.0, SVG Export Plug-In . SVG Version: 6.00 Build 0)  -->
<svg version="1.1" id="Capa_1" xmlns="http://www.w3.org/2000/svg" xmlns:xlink="http://www.w3.org/1999/xlink" x="0px" y="0px"
	 viewBox="0 0 512 512" style="enable-background:new 0 0 512 512;" xml:space="preserve">
<circle style="fill:#91E0E8;" cx="256" cy="262.498" r="245"/>
<g>
	<path style="fill:#FFAF10;" d="M5,22.498c-2.75,0-5,2.25-5,5v73.699c0,2.75,2.25,5,5,5h17.583V22.498H5z"/>
	<path style="fill:#FFAF10;" d="M507,22.498h-17.583v83.699H507c2.75,0,5-2.25,5-5V27.498C512,24.748,509.75,22.498,507,22.498z"/>
</g>
<g>
	<rect x="21" y="22.498" style="fill:#1A2B63;" width="90.42" height="83.7"/>
	<rect x="400.58" y="22.498" style="fill:#1A2B63;" width="90.42" height="83.7"/>
</g>
<path style="fill:#293D7C;" d="M343.125,23.724c0.346-1.162,0.084-2.511-0.761-3.399L329.382,6.676
	c-1.137-1.195-3.417-2.174-5.067-2.174h-137c-1.65,0-3.92,0.988-5.044,2.196l-12.658,13.603c-0.836,0.898-1.088,2.256-0.738,3.422
	L343.125,23.724L343.125,23.724z"/>
<path style="fill:#1A2B63;" d="M199.599,23.724c-0.35-1.166-0.098-2.523,0.738-3.422l12.658-13.604
	c1.124-1.208,3.394-2.196,5.044-2.196h-30.725c-1.65,0-3.92,0.988-5.044,2.196l-12.658,13.603c-0.836,0.898-1.088,2.256-0.738,3.422
	L199.599,23.724L199.599,23.724z"/>
<path style="fill:#B7092B;" d="M110.42,129.272v330.284c40.703,30.119,91.058,47.938,145.58,47.938s104.877-17.819,145.58-47.939
	V129.272c-36.543-35.883-88.248-58.27-145.58-58.27C198.669,71.002,146.963,93.389,110.42,129.272z"/>
<path style="fill:#A00026;" d="M110.42,129.272v330.284c9.671,7.156,19.893,13.608,30.58,19.302V104.723
	C129.936,111.942,119.688,120.171,110.42,129.272z"/>
<path style="fill:#FFFFFF;" d="M314.5,404.998c0,2.75-2.25,5-5,5h-107c-2.75,0-5-2.25-5-5v-15c0-2.75,2.25-5,5-5h107
	c2.75,0,5,2.25,5,5V404.998z"/>
<path style="fill:#EEF6FF;" d="M228,404.998v-15c0-2.75,2.25-5,5-5h-30.5c-2.75,0-5,2.25-5,5v15c0,2.75,2.25,5,5,5H233
	C230.25,409.998,228,407.748,228,404.998z"/>
<path style="fill:#FFFFFF;" d="M194.149,338.407c-11.625,0-20.73-7.771-20.73-17.69v-14.926c0-1.526,1.237-2.764,2.765-2.764h17.506
	c1.526,0,2.764,1.237,2.764,2.764v9.581h28.505v-37.081h-22.136c-1.526,0-2.764-1.237-2.764-2.764v-17.534
	c0-1.526,1.237-2.764,2.764-2.764h22.136v-37.08h-28.505v9.581c0,1.526-1.237,2.764-2.764,2.764h-17.506
	c-1.527,0-2.765-1.237-2.765-2.764v-14.926c0-9.919,9.105-17.689,20.73-17.689h33.112c11.431,0,20.73,9.3,20.73,20.731v41.714
	c0,3.222-0.727,6.317-2.16,9.199c1.434,2.884,2.16,5.979,2.16,9.2v41.715c0,11.432-9.3,20.732-20.73,20.732h-33.112V338.407z"/>
<g>
	<path style="fill:#EEF6FF;" d="M188.427,320.718v-14.926c0-1.526,1.237-2.764,2.765-2.764h-15.008
		c-1.527,0-2.765,1.237-2.765,2.764v14.926c0,9.919,9.105,17.69,20.73,17.69h15.008
		C197.532,338.407,188.427,330.637,188.427,320.718z"/>
	<path style="fill:#EEF6FF;" d="M176.184,230.495h15.008c-1.527,0-2.765-1.237-2.765-2.764v-14.926
		c0-9.919,9.105-17.689,20.73-17.689h-15.008c-11.625,0-20.73,7.771-20.73,17.689v14.926
		C173.419,229.258,174.656,230.495,176.184,230.495z"/>
</g>
<path style="fill:#FFFFFF;" d="M283.621,338.407c-11.432,0-20.732-9.3-20.732-20.732V215.848c0-11.432,9.3-20.731,20.732-20.731
	h33.11c11.431,0,20.73,9.3,20.73,20.731v101.828c0,11.432-9.3,20.732-20.73,20.732h-33.11V338.407z M314.428,315.373V218.15h-28.504
	v97.223H314.428z"/>
<path style="fill:#EEF6FF;" d="M278,317.676V215.848c0-11.432,9.3-20.731,20.731-20.731h-15.11c-11.432,0-20.732,9.3-20.732,20.731
	v101.828c0,11.432,9.3,20.732,20.732,20.732h15.11C287.3,338.407,278,329.107,278,317.676z"/>
<path style="fill:#FFAF10;" d="M256,72.502c57.332,0,109.037,22.387,145.58,58.271V22.498H110.42v108.274
	C146.963,94.889,198.669,72.502,256,72.502z"/>
<path style="fill:#EF9614;" d="M141,22.498h-30.58v108.274c9.269-9.102,19.517-17.33,30.58-24.55V22.498z"/>
<path style="fill:#FFFFFF;" d="M330.732,148.501c-1.864,0-3.757-0.419-5.541-1.303C303.556,136.476,280.277,131.04,256,131.04
	s-47.557,5.436-69.191,16.158c-6.188,3.066-13.686,0.536-16.751-5.649c-3.065-6.186-0.536-13.686,5.649-16.751
	c25.116-12.446,52.13-18.758,80.293-18.758s55.177,6.312,80.293,18.758c6.185,3.065,8.715,10.565,5.649,16.751
	C339.761,145.95,335.333,148.501,330.732,148.501z"/>
<g>
	<path style="fill:#1A2B63;" d="M110.42,223.266v236.291c8.152,6.032,16.697,11.561,25.58,16.563V252.498
		C136,237.536,124.857,225.184,110.42,223.266z"/>
	<path style="fill:#1A2B63;" d="M401.58,223.266v236.291c-8.152,6.032-16.697,11.561-25.58,16.563V252.498
		C376,237.536,387.143,225.184,401.58,223.266z"/>
</g>
<g>
</g>
<g>
</g>
<g>
</g>
<g>
</g>
<g>
</g>
<g>
</g>
<g>
</g>
<g>
</g>
<g>
</g>
<g>
</g>
<g>
</g>
<g>
</g>
<g>
</g>
<g>
</g>
<g>
</g>
</svg>
