<?xml version="1.0" encoding="iso-8859-1"?>
<!-- Generator: Adobe Illustrator 19.0.0, SVG Export Plug-In . SVG Version: 6.00 Build 0)  -->
<svg version="1.1" id="Capa_1" xmlns="http://www.w3.org/2000/svg" xmlns:xlink="http://www.w3.org/1999/xlink" x="0px" y="0px"
	 viewBox="0 0 512 512" style="enable-background:new 0 0 512 512;" xml:space="preserve">
<circle style="fill:#02AF8E;" cx="245" cy="267" r="245"/>
<path style="fill:#69CDFF;" d="M245,22C109.689,22,0,131.689,0,267c0,48.604,14.154,93.903,38.564,132h412.871
	C475.846,360.903,490,315.604,490,267C490,131.689,380.309,22,245,22z"/>
<path style="fill:#EEF6FF;" d="M228.826,296.412c0.044,0.021,0.09,0.039,0.136,0.054c0.585,0.184,1.056,0.364,1.482,0.57
	c0.144,0.069,0.302,0.104,0.461,0.104c0.205,0,0.409-0.059,0.577-0.178c0.297-0.211,0.48-0.555,0.438-0.917
	C231.31,290.69,231,285.292,231,280c0-67.256,47.673-123.579,111-136.972V5c0-2.75-2.25-5-5-5L225.702,0.001c-2.75,0-5,2.25-5,5
	l-0.001,287.483L228.826,296.412z"/>
<g>
	<path style="fill:#D9EAFC;" d="M254.572,202.34L254.573,0h-17.852l0.001,240.369C240.76,226.713,246.824,213.919,254.572,202.34z"
		/>
	<path style="fill:#D9EAFC;" d="M290.276,165.679V0.001L272.424,0v180.688C277.943,175.209,283.914,170.185,290.276,165.679z"/>
	<path style="fill:#D9EAFC;" d="M325.979,147.427V0.001L308.129,0v154.936C313.866,152.04,319.826,149.523,325.979,147.427z"/>
</g>
<path style="fill:#FFFFFF;" d="M371,139c-77.871,0-141,63.126-141,141c0,5.869,0.365,11.653,1.061,17.335l148.416,71.743
	c5.167,2.498,9.533,9.458,9.534,15.198l-0.001,27.943c0,3.293-1.572,6.219-3.999,8.088C456.305,413.273,512,353.142,512,280
	C512,202.126,448.871,139,371,139z"/>
<path style="fill:#232323;" d="M492.039,263.398l19.805,10.091c-1.664-36.606-17.283-69.57-41.666-93.704l-4.632,29.237
	l-66.097-43.493l23.121-16.799C406.598,142.449,389.201,139,371,139s-35.598,3.449-51.57,9.73l23.121,16.799l-65.427,43.053
	l-4.661-29.423c-24.838,24.275-40.742,57.646-42.323,94.731l19.929-10.154l15.936,50.489l10.295,4.977l-18.716-59.294l21.122-10.764
	l43.526,25.13l15.729,48.406l-17.748,17.749l7.931,3.834l16.142-16.142h52.81l32.333,32.333l-3.509,22.162h-37.033
	c0.075,0.561,0.126,1.116,0.126,1.659v6.658h35.589l-3.297,20.817c32.022-12.234,58.436-35.804,74.343-65.805l-31.223,4.945
	L492.039,263.398z M366.842,234.9l-42.585,30.937l-41.896-24.188l-3.809-24.051l71.189-46.844l17.1,12.423L366.842,234.9
	L366.842,234.9z M375.158,234.9v-51.723l17.1-12.423l71.859,47.284l-3.702,23.383l-42.502,24.54L375.158,234.9z M436.113,355.377
	l-32.226-32.226l15.792-48.607l44.178-25.506l20.668,10.531l-29.283,92.777L436.113,355.377z"/>
<path style="fill:#EEF6FF;" d="M94.992,292.256c5.787,0,13.345,4.095,16.503,8.942l2.325,3.567
	c3.541,5.432,11.695,9.851,18.179,9.851l61.484,0.001c0.464,0,0.939-0.027,1.419-0.07V5c0-2.75-2.25-5-5-5L78.604,0.001
	c-2.75,0-5,2.25-5,5l-0.001,287.255H94.992z"/>
<g>
	<path style="fill:#D9EAFC;" d="M94.992,292.256c3.994,0,8.83,1.951,12.482,4.754L107.476,0H89.623l0.002,292.256H94.992z"/>
	<path style="fill:#D9EAFC;" d="M131.999,314.616c0,0,4.556,0,11.18,0V0.001L125.326,0l0.001,313.313
		C127.584,314.138,129.88,314.616,131.999,314.616z"/>
	<path style="fill:#D9EAFC;" d="M178.882,314.617V0.001L161.031,0v314.617C167.227,314.617,173.512,314.617,178.882,314.617z"/>
</g>
<g>
	<path style="fill:#1A2B63;" d="M195.472,313.617c6.17,0,14.165-4.1,17.766-9.107l2.981-4.146c2.636-3.667,7.355-5.659,11.875-5.416
		l-22.312-10.787c-4.184-2.021-11.236-0.841-11.236,10.377l0.001,19.08h0.925V313.617z"/>
	<path style="fill:#1A2B63;" d="M379.913,368.178l-149.034-72.042c-5.556-2.685-13.047-0.782-16.648,4.228l-2.982,4.146
		c-3.601,5.008-11.596,9.107-17.766,9.107l-61.482-0.001c-6.171,0.001-13.974-4.229-17.343-9.397l-2.325-3.567
		c-3.367-5.168-11.171-9.396-17.341-9.396H62.463c-6.195,0-11.219,5.022-11.218,11.218c0,4.023,2.127,7.542,5.309,9.522
		c-4.708,10.233-7.553,23.482-7.554,37.966c0.001,24.068,7.847,44.736,19.068,53.797l0.001,8.46c0,6.17,5.049,11.218,11.217,11.217
		l10.392,0.002l3.399,10.364c0.578,1.757,2.563,3.197,4.414,3.197h9.486c1.849,0,3.836-1.439,4.414-3.197l3.397-10.365h17.615
		l3.398,10.367c0.577,1.756,2.563,3.195,4.415,3.194l9.485,0.001c1.852,0,3.837-1.439,4.413-3.197l3.399-10.365h91.354l3.397,10.365
		c0.58,1.758,2.564,3.197,4.415,3.197h9.484c1.852,0,3.839-1.439,4.415-3.197l3.397-10.365H297.2l3.399,10.365
		c0.577,1.758,2.563,3.197,4.414,3.196l9.484,0.001c1.854,0,3.837-1.439,4.416-3.197l3.396-10.365h23.226l3.398,10.365
		c0.576,1.758,2.561,3.197,4.413,3.197l9.485,0.001c1.852-0.001,3.837-1.44,4.413-3.198l3.399-10.365h8.148
		c6.171,0,11.217-5.047,11.217-11.217l0.001-27.943C390.011,378.108,385.466,370.862,379.913,368.178z"/>
</g>
<g>
	<path style="fill:#B7092B;" d="M54.303,310.145c0.244,0.26,0.508,0.498,0.775,0.733c0.022-0.045,0.04-0.093,0.061-0.138
		C54.848,310.559,54.575,310.352,54.303,310.145z"/>
	<path style="fill:#B7092B;" d="M55.195,384.767c-0.063-0.158-0.117-0.329-0.18-0.489h-0.021
		C55.06,384.443,55.129,384.602,55.195,384.767z"/>
	<path style="fill:#B7092B;" d="M230.879,296.136c-5.556-2.685-13.047-0.782-16.648,4.228l-2.982,4.146
		c-3.601,5.008-11.596,9.107-17.766,9.107l-61.482-0.001c-6.171,0.001-13.974-4.229-17.343-9.397l-2.325-3.567
		c-3.367-5.168-11.171-9.396-17.341-9.396h-3.786c-1.494,21.612-18.88,38.833-40.563,40.07C49.581,337.182,49,343.444,49,349.962
		c0,12.82,2.239,24.661,6.016,34.315l240.77-0.001c23.503-0.001,44.313-11.482,57.16-29.135L230.879,296.136z"/>
</g>
<path style="fill:#A00026;" d="M71.688,385.997c-4.195-9.947-6.699-22.448-6.699-36.035c0-7.94,0.86-15.506,2.409-22.411
	c-5.132,2.33-10.796,3.692-16.766,3.838C49.576,337.226,49,343.468,49,349.962c0,13.587,2.504,26.088,6.699,36.035H71.688z"/>
<g>
	<path style="fill:#EA2A3D;" d="M296.79,385.676c2.876,0,5.71-0.175,8.495-0.509c-3.709-9.698-13.08-16.595-24.085-16.594
		l-78.519-0.001c-11.198,0.001-20.723,7.134-24.291,17.104H296.79z"/>
	<path style="fill:#EA2A3D;" d="M353.683,355.498l-122.804-59.362c-5.556-2.685-13.047-0.782-16.648,4.228l-1.878,2.611
		l131.325,63.479C347.381,363.164,350.737,359.493,353.683,355.498z"/>
</g>
<g>
	<path style="fill:#1A2B63;" d="M353.683,355.498l-23.154-11.191c-3.485,3.799-7.383,7.212-11.618,10.175l24.768,11.973
		C347.381,363.164,350.737,359.493,353.683,355.498z"/>
	<path style="fill:#1A2B63;" d="M97.986,385.677l30.678-72.434c-3.523-0.738-7.205-2.529-10.12-4.869l-32.741,77.303L97.986,385.677
		L97.986,385.677z"/>
	<polygon style="fill:#1A2B63;" points="155.119,385.677 185.64,313.617 173.457,313.617 142.936,385.677 	"/>
	<polygon style="fill:#1A2B63;" points="126.552,385.677 157.072,313.617 144.89,313.617 114.37,385.677 	"/>
</g>
<g>
	<path style="fill:#D9EAFC;" d="M228.38,318.283c-1.279,0-2.559-0.488-3.535-1.464c-1.953-1.953-1.953-5.118-0.001-7.071
		l13.312-13.313c1.953-1.953,5.118-1.952,7.071-0.001c1.953,1.953,1.953,5.118,0.001,7.071l-13.311,13.313
		C230.939,317.795,229.659,318.283,228.38,318.283z"/>
	<path style="fill:#D9EAFC;" d="M247.565,327.32c-1.279,0-2.559-0.488-3.535-1.464c-1.953-1.953-1.953-5.118-0.001-7.071
		l13.311-13.313c1.953-1.953,5.118-1.952,7.071-0.001c1.953,1.953,1.953,5.118,0.001,7.071l-13.311,13.314
		C250.125,326.832,248.845,327.32,247.565,327.32z"/>
	<path style="fill:#D9EAFC;" d="M266.752,336.354c-1.279,0-2.56-0.488-3.535-1.465c-1.953-1.952-1.953-5.118,0-7.07l13.311-13.311
		c1.951-1.953,5.119-1.953,7.07,0c1.953,1.952,1.953,5.118,0,7.07l-13.311,13.311C269.311,335.866,268.031,336.354,266.752,336.354z
		"/>
	<path style="fill:#D9EAFC;" d="M285.938,345.391c-1.279,0-2.56-0.488-3.536-1.465c-1.952-1.952-1.952-5.118,0.001-7.071
		l13.313-13.311c1.951-1.951,5.118-1.952,7.071,0.001c1.952,1.952,1.952,5.118-0.001,7.071l-13.313,13.312
		C288.497,344.902,287.217,345.391,285.938,345.391z"/>
	<path style="fill:#D9EAFC;" d="M305.124,354.427c-1.279,0-2.559-0.488-3.535-1.464c-1.953-1.953-1.953-5.119-0.001-7.071
		l13.312-13.313c1.953-1.953,5.118-1.952,7.071-0.001c1.953,1.953,1.953,5.119,0.001,7.071l-13.312,13.313
		C307.684,353.939,306.403,354.427,305.124,354.427z"/>
</g>
<path style="fill:#445EA0;" d="M390.049,398.28c-0.018-0.273-0.037-14.004-0.037-14.004c-0.001-6.168-4.546-13.414-10.099-16.099
	l-26.968-13.036c-12.848,17.653-33.657,29.134-57.16,29.135l-240.79,0.001c2.128,5.445,4.751,10.183,7.745,14.003H390.049z"/>
<path style="fill:#85A0DD;" d="M390.011,408.601l0.001-10.32H62.753c1.665,2.122,3.441,3.966,5.315,5.478v0.004
	c3.462,2.797,7.244,4.496,11.219,4.838H390.011z"/>
<path style="fill:#EA2A3D;" d="M92.702,291.256H62.463c-6.195,0-11.219,5.022-11.218,11.218c0,4.023,2.127,7.542,5.309,9.522
	c-2.749,5.975-4.857,12.981-6.139,20.658C73.281,332.21,91.789,314.003,92.702,291.256z"/>
<g>
	<path style="fill:#37C47A;" d="M147,467h-10.246c-2.762,0-5-2.238-5-5s2.238-5,5-5H147c2.762,0,5,2.238,5,5S149.762,467,147,467z"
		/>
	<path style="fill:#37C47A;" d="M217.246,455H207c-2.762,0-5-2.238-5-5s2.238-5,5-5h10.246c2.762,0,5,2.238,5,5
		S220.008,455,217.246,455z"/>
	<path style="fill:#37C47A;" d="M267,490h-10.246c-2.762,0-5-2.238-5-5s2.238-5,5-5H267c2.762,0,5,2.238,5,5S269.762,490,267,490z"
		/>
	<path style="fill:#37C47A;" d="M310,454h-10.246c-2.762,0-5-2.238-5-5s2.238-5,5-5H310c2.762,0,5,2.238,5,5S312.762,454,310,454z"
		/>
	<path style="fill:#37C47A;" d="M375,458h-10.246c-2.762,0-5-2.238-5-5s2.238-5,5-5H375c2.762,0,5,2.238,5,5S377.762,458,375,458z"
		/>
</g>
<g>
</g>
<g>
</g>
<g>
</g>
<g>
</g>
<g>
</g>
<g>
</g>
<g>
</g>
<g>
</g>
<g>
</g>
<g>
</g>
<g>
</g>
<g>
</g>
<g>
</g>
<g>
</g>
<g>
</g>
</svg>
