<?xml version="1.0" encoding="iso-8859-1"?>
<!-- Generator: Adobe Illustrator 19.0.0, SVG Export Plug-In . SVG Version: 6.00 Build 0)  -->
<svg version="1.1" id="Capa_1" xmlns="http://www.w3.org/2000/svg" xmlns:xlink="http://www.w3.org/1999/xlink" x="0px" y="0px"
	 viewBox="0 0 512 512" style="enable-background:new 0 0 512 512;" xml:space="preserve">
<circle style="fill:#EF9614;" cx="250.5" cy="267" r="245"/>
<path style="fill:#FFD00D;" d="M307.65,225.298l-13.145-29.896C277.639,174.859,267.5,148.592,267.5,120
	c0-27.646,9.477-53.119,25.352-73.345c-1.192-0.443-2.555-0.213-3.533,0.659l-40.898,36.48l-19.247-51.313
	c-0.278-0.739-0.787-1.342-1.425-1.738c-0.61-0.379-1.338-0.572-2.093-0.515c-1.541,0.11-2.826,1.227-3.157,2.736l-11.643,53.554
	c0,0-45.788-30.235-45.815-30.252c-1.28-0.796-2.932-0.681-4.089,0.296c-1.183,0.998-1.567,2.653-0.943,4.069l22.056,50.171
	l-54.748,2.446c-1.547,0.069-2.863,1.149-3.232,2.65c-0.364,1.471,0.264,3.003,1.544,3.8c0.01,0.006,6.287,3.669,14.268,8.326
	c9.38-5.113,20.072-7.982,31.277-7.982c5.716,0,11.442,0.757,17.018,2.251l32.866,8.807c16.922,4.534,31.066,15.387,39.826,30.56
	c8.014,13.88,10.625,29.852,7.544,45.43c13.566,8.958,34.171,22.564,34.19,22.577c1.279,0.795,2.932,0.679,4.09-0.298
	C307.888,228.373,308.272,226.715,307.65,225.298z"/>
<path style="fill:#232323;" d="M221.313,130.135l-32.866-8.807c-35.524-9.519-72.037,11.563-81.555,47.086L93.13,219.777
	l0.966,0.259l3.799-14.18c8.007-29.883,31.49-36.155,49.78-36.155c8.305,0,17.317,1.287,26.787,3.824l32.866,8.806
	c18.486,4.954,32.944,13.143,41.81,23.682c9.938,11.814,12.742,26.148,8.333,42.603l-3.799,14.179l0.966,0.259l13.763-51.363
	C277.917,176.167,256.837,139.652,221.313,130.135z"/>
<path d="M106.893,168.414L93.13,219.777l0.966,0.259l3.799-14.18c6.46-24.108,22.993-32.846,38.745-35.323l0.568-2.119
	c6.571-24.524,26.011-42.159,49.107-47.601C151.473,112.68,116.221,133.602,106.893,168.414z"/>
<path style="fill:#69CDFF;" d="M265.458,460.66l-93.106-72.868l-1.821,6.797c-0.544,2.027-2.522,4.659-4.32,5.746l-38.878,23.477
	c-0.495,0.299-1.055,0.457-1.62,0.457c-1.124,0-2.164-0.619-2.714-1.616l-21.931-39.772c-1.013-1.84-1.411-5.107-0.868-7.137
	l1.821-6.797l-69.587,9.84C73.063,457.884,155.46,512,250.5,512c7.174,0,14.271-0.327,21.289-0.931l0.329-36.582
	C272.161,469.782,269.163,463.561,265.458,460.66z"/>
<g>
	<path style="fill:#FFFFFF;" d="M90.755,399.61l-11.428,42.65c4.583,4.478,9.338,8.779,14.259,12.888l9.089-33.921L90.755,399.61z"
		/>
	<path style="fill:#FFFFFF;" d="M120.943,447.657c-0.494,0.299-1.054,0.457-1.619,0.457c-1.125,0-2.165-0.62-2.715-1.618
		l-4.398-7.975l-6.916,25.814c4.858,3.581,9.854,6.985,14.978,10.207l8.465-31.594L120.943,447.657z"/>
	<path style="fill:#FFFFFF;" d="M145.644,432.74l-13.134,49.015c5.093,2.805,10.297,5.431,15.604,7.875l18.663-69.652
		L145.644,432.74z"/>
</g>
<path style="fill:#1A2B63;" d="M184.48,397.285l-12.129-9.493l-1.821,6.797c-0.544,2.027-2.522,4.659-4.32,5.746l-38.878,23.477
	c-0.495,0.299-1.055,0.457-1.62,0.457c-1.124,0-2.164-0.619-2.714-1.616l-21.931-39.772c-1.013-1.84-1.411-5.107-0.868-7.137
	l1.821-6.796l-15.251,2.156c-2.33,0.329-4.733,2.458-5.342,4.731l-0.503,1.878c-0.609,2.272-0.178,5.817,0.957,7.878l33.851,61.389
	c1.136,2.061,3.713,2.752,5.727,1.535l60.01-36.24c2.013-1.216,4.16-4.07,4.769-6.343l0.503-1.878
	C187.351,401.78,186.334,398.735,184.48,397.285z"/>
<path style="fill:#A05F33;" d="M173.273,375.183c-5.716,0-11.442-0.757-17.018-2.251l-32.865-8.807
	c-6.794-1.82-13.13-4.676-18.86-8.404l-5.296,19.764c-0.608,2.273-0.177,5.817,0.958,7.878l21.931,39.772
	c1.135,2.059,3.712,2.75,5.727,1.533l38.878-23.478c2.013-1.217,4.159-4.071,4.769-6.343l5.297-19.771
	C175.625,375.14,174.454,375.183,173.273,375.183z"/>
<g>
	<path style="fill:#87502A;" d="M122.833,382.19l4.554-16.994l-3.996-1.07c-6.794-1.82-13.13-4.676-18.86-8.404l-5.296,19.764
		c-0.608,2.273-0.177,5.817,0.958,7.878l21.931,39.772c1.135,2.059,3.712,2.75,5.727,1.533l11.268-6.805l-15.327-27.796
		C122.656,388.007,122.225,384.463,122.833,382.19z"/>
	<path style="fill:#87502A;" d="M94.096,220.036l-6.15-1.647c-9.089-2.436-18.519,3.009-20.955,12.098l-6.642,24.79
		c-2.435,9.09,3.009,18.518,12.098,20.954l6.15,1.648L94.096,220.036z"/>
</g>
<path style="fill:#A05F33;" d="M259.821,264.442l-6.151-1.648l-12.29,45.869l-3.208,11.974l6.15,1.648
	c9.089,2.436,18.519-3.009,20.954-12.099l6.643-24.79C274.354,276.308,268.91,266.878,259.821,264.442z"/>
<path style="fill:#BF7E52;" d="M237.553,326.81c-9.518,35.524-46.031,56.605-81.556,47.087l-32.865-8.807
	c-35.524-9.518-56.604-46.032-47.086-81.556l20.883-77.937c9.518-35.521,42.267-42.557,77.791-33.038l32.866,8.806
	c35.525,9.52,60.368,31.986,50.85,67.509L237.553,326.81z"/>
<path style="fill:#A05F33;" d="M96.639,289.381l21.328-79.597c7.5-27.989,29.128-38.649,55.279-37.6
	c-34.951-8.931-66.93-1.615-76.316,33.413l-20.883,77.937c-9.519,35.523,11.562,72.037,47.086,81.556l7.331,1.965
	C103.06,352.551,88.273,320.6,96.639,289.381z"/>
<g>
	<circle style="fill:#1A2B63;" cx="123.91" cy="247.95" r="13.688"/>
	<circle style="fill:#1A2B63;" cx="214.81" cy="272.31" r="13.688"/>
</g>
<g>
	<path style="fill:#994334;" d="M173.106,307.712l-17.353-4.649c-7.973-2.137-12.723-10.362-10.586-18.336l14.613-54.537
		c0.3-1.119-0.393-2.319-1.513-2.619l-44.621-11.956c-3.423-0.917-5.454-4.435-4.537-7.858s4.435-5.453,7.858-4.536l44.621,11.956
		c7.974,2.137,12.723,10.361,10.586,18.335l-14.613,54.537c-0.3,1.12,0.393,2.319,1.513,2.62l17.353,4.649
		c3.424,0.917,5.455,4.435,4.538,7.857C180.047,306.598,176.529,308.629,173.106,307.712z"/>
	<path style="fill:#994334;" d="M238.421,249.047l-37.184-9.963c-3.423-0.917-5.455-4.435-4.537-7.858
		c0.917-3.423,4.436-5.453,7.858-4.536l37.184,9.963c3.424,0.918,5.455,4.436,4.537,7.858
		C245.362,247.934,241.845,249.965,238.421,249.047z"/>
</g>
<path style="fill:#FFAF10;" d="M192.912,485.314c-10.13-2.714-20.51,3.005-23.753,12.841c12.232,4.305,24.9,7.682,37.933,10.012
	C209.114,498.074,202.994,488.015,192.912,485.314z"/>
<circle style="fill:#EEF6FF;" cx="386.5" cy="120" r="120"/>
<path style="fill:#D9EAFC;" d="M289.078,120c0-62.467,47.732-113.776,108.711-119.468C394.072,0.185,390.308,0,386.5,0
	c-66.273,0-120,53.726-120,120c0,66.273,53.727,120,120,120c3.808,0,7.572-0.186,11.289-0.532
	C336.81,233.776,289.078,182.466,289.078,120z"/>
<path style="fill:#1A2B63;" d="M489.512,105.871l16.855,8.588c-1.416-31.154-14.709-59.209-35.461-79.748l-3.941,24.883
	l-56.253-37.016L430.39,8.281C416.796,2.937,401.99,0,386.5,0s-30.296,2.937-43.89,8.281l19.678,14.297l-55.683,36.641l-3.967-25.04
	c-21.139,20.659-34.674,49.061-36.02,80.622l16.96-8.642l23.39,74.104l-26.59-4.212c13.515,25.535,35.972,45.604,63.205,56.037
	l-2.801-17.676h91.334l-2.806,17.716c27.253-10.412,49.733-30.47,63.271-56.003l-26.572,4.209L489.512,105.871z M458.195,181.572
	l-16.279,2.579l-27.427-27.427l13.44-41.366l37.598-21.707l17.59,8.962L458.195,181.572z M465.749,67.269l-3.151,19.899
	l-36.172,20.885l-36.387-26.435v-44.02l14.553-10.572L465.749,67.269z M368.408,27.025l14.553,10.572v44.02l-36.242,26.331
	l-35.656-20.586l-3.241-20.469L368.408,27.025z M289.975,102.9l17.977-9.159l37.044,21.387l13.387,41.197l-27.694,27.695
	l-15.903-2.518L289.975,102.9z M339.662,207.334l-3.046-19.232l27.147-27.147h44.944l27.518,27.519l-2.986,18.86H339.662z"/>
<path style="fill:#FF9F60;" d="M173.314,353.365c-0.599,2.234-2.917,3.572-5.151,2.974l-47.124-12.627
	c-2.234-0.599-3.572-2.916-2.974-5.15l7.184-26.813c0.599-2.234,2.916-3.571,5.15-2.974l47.125,12.627
	c2.234,0.599,3.572,2.916,2.974,5.15L173.314,353.365z"/>
<path style="fill:#FF8D4D;" d="M129.152,342.935l7.643-28.525c0.414-1.543,1.601-2.671,3.031-3.108l-9.426-2.525
	c-2.234-0.598-4.552,0.739-5.15,2.974l-7.184,26.813c-0.599,2.234,0.739,4.552,2.974,5.15l8.398,2.25
	C129.01,345.043,128.871,343.984,129.152,342.935z"/>
<path style="fill:#FFFFFF;" d="M177.524,321.402L130.4,308.775c-2.234-0.598-4.552,0.739-5.15,2.974l-1.926,7.19l55.248,14.805
	l1.927-7.19C181.097,324.318,179.759,322.001,177.524,321.402z"/>
<g>
</g>
<g>
</g>
<g>
</g>
<g>
</g>
<g>
</g>
<g>
</g>
<g>
</g>
<g>
</g>
<g>
</g>
<g>
</g>
<g>
</g>
<g>
</g>
<g>
</g>
<g>
</g>
<g>
</g>
</svg>
