<?xml version="1.0" encoding="iso-8859-1"?>
<!-- Generator: Adobe Illustrator 19.0.0, SVG Export Plug-In . SVG Version: 6.00 Build 0)  -->
<svg version="1.1" id="Capa_1" xmlns="http://www.w3.org/2000/svg" xmlns:xlink="http://www.w3.org/1999/xlink" x="0px" y="0px"
	 viewBox="0 0 512 512" style="enable-background:new 0 0 512 512;" xml:space="preserve">
<circle style="fill:#1E8BC2;" cx="256" cy="267" r="245"/>
<path style="fill:#02AF8E;" d="M313.195,371v20.838h-104.99V371H34.124C73.24,454.308,157.876,512,256,512
	c98.123,0,182.759-57.692,221.876-141H313.195z"/>
<g>
	<rect x="194" y="85" style="fill:#D9EAFC;" width="10" height="41"/>
	<rect x="308" y="85" style="fill:#D9EAFC;" width="10" height="41"/>
	<path style="fill:#D9EAFC;" d="M347.832,79.689c-2.107,0.904-3.832-0.232-3.832-2.526V126h10V77.044L347.832,79.689z"/>
</g>
<path style="fill:#EA2A3D;" d="M344,33.837c0-2.294,1.725-3.431,3.832-2.526l53.991,23.161c2.108,0.904,2.108,2.383,0,3.287
	L347.832,80.92c-2.107,0.904-3.832-0.232-3.832-2.526V33.837z"/>
<path style="fill:#B7092B;" d="M401.823,54.472L347.832,31.31c-2.107-0.904-3.832,0.233-3.832,2.526v8.221
	c0.547-0.095,1.166-0.033,1.832,0.253l46.001,19.733l9.99-4.285C403.931,56.854,403.931,55.376,401.823,54.472z"/>
<path style="fill:#D9EAFC;" d="M418.832,79.689c-2.107,0.904-3.832-0.232-3.832-2.526V126h10V77.044L418.832,79.689z"/>
<path style="fill:#02AF8E;" d="M415,33.837c0-2.294,1.725-3.431,3.832-2.526l53.991,23.161c2.108,0.904,2.108,2.383,0,3.287
	L418.832,80.92c-2.107,0.904-3.832-0.232-3.832-2.526V33.837z"/>
<path style="fill:#0F9390;" d="M472.823,54.472L418.832,31.31c-2.107-0.904-3.832,0.233-3.832,2.526v7.975l47.499,20.376
	l10.324-4.429C474.931,56.854,474.931,55.376,472.823,54.472z"/>
<path style="fill:#D9EAFC;" d="M160.168,79.689L154,77.044V126h10V77.163C164,79.457,162.275,80.594,160.168,79.689z"/>
<path style="fill:#EA2A3D;" d="M164,33.837c0-2.294-1.725-3.431-3.832-2.526l-53.991,23.161c-2.108,0.904-2.108,2.383,0,3.287
	l53.991,23.161c2.107,0.904,3.832-0.232,3.832-2.526V33.837z"/>
<path style="fill:#B7092B;" d="M164,41.383v-7.546c0-2.294-1.725-3.431-3.832-2.526l-53.991,23.161
	c-2.108,0.904-2.108,2.383,0,3.287l9.824,4.215L164,41.383z"/>
<path style="fill:#D9EAFC;" d="M89.168,79.689L83,77.044V126h10V77.163C93,79.457,91.275,80.594,89.168,79.689z"/>
<path style="fill:#02AF8E;" d="M93,33.837c0-2.294-1.725-3.431-3.832-2.526L35.177,54.472c-2.108,0.904-2.108,2.383,0,3.287
	L89.168,80.92C91.275,81.824,93,80.688,93,78.394V33.837z"/>
<path style="fill:#0F9390;" d="M93,41.491v-7.654c0-2.294-1.725-3.431-3.832-2.526L35.177,54.472c-2.108,0.904-2.108,2.383,0,3.287
	l9.951,4.269L93,41.491z"/>
<path style="fill:#FFD00D;" d="M332,81c0,2.75-2.25,5-5,5H185c-2.75,0-5-2.25-5-5V5c0-2.75,2.25-5,5-5h142c2.75,0,5,2.25,5,5V81z"/>
<path style="fill:#FFAF10;" d="M199,71c-2.2,0-4-1.8-4-4V19c0-2.2,1.8-4,4-4h114c2.2,0,4,1.8,4,4v48c0,2.2-1.8,4-4,4H199z"/>
<path style="fill:#EF9614;" d="M218,67V19c0-2.2,1.8-4,4-4h-23c-2.2,0-4,1.8-4,4v48c0,2.2,1.8,4,4,4h23C219.8,71,218,69.2,218,67z"
	/>
<g>
	<polygon style="fill:#D9EAFC;" points="458.01,200.246 464.522,170.826 47.088,170.826 52.994,200.246 	"/>
	<path style="fill:#D9EAFC;" d="M313.195,371.393h106.932L452.752,224H57.762L87.35,371.393h120.855v-61.47c0-4.963,4.038-9,9-9
		h86.99c4.962,0,9,4.037,9,9V371.393z"/>
</g>
<g>
	<rect x="253.46" y="170.83" style="fill:#FFFFFF;" width="15.534" height="29.42"/>
	<polygon style="fill:#FFFFFF;" points="353.04,200.246 355.648,170.826 340.052,170.826 337.445,200.246 	"/>
	<polygon style="fill:#FFFFFF;" points="424.693,200.246 429.521,170.826 413.779,170.826 408.951,200.246 	"/>
	<polygon style="fill:#FFFFFF;" points="112.764,200.246 108.385,170.826 92.681,170.826 97.059,200.246 	"/>
	<path style="fill:#FFFFFF;" d="M327.254,315.251h-14.059v15.534h12.682l-3.598,40.607h15.595l3.599-40.607h46.056l-6.665,40.607
		h15.742l6.664-40.607h25.847l3.439-15.534h-26.735l7.648-46.602h29.402l3.439-15.534h-30.291L420.795,224h-15.742l-4.778,29.115
		h-51.921L350.935,224H335.34l-2.58,29.115h-63.767V224h-15.534v29.115h-64.597L186.522,224h-15.584l2.339,29.115h-52.645
		L116.299,224h-15.705l4.333,29.115h-41.32l3.117,15.534h40.516l6.936,46.602H76.08l3.118,15.534h37.29l6.044,40.607h15.705
		l-6.044-40.607h47.326l3.265,40.607h15.583l-3.263-40.607h13.101v-15.534h-14.349l-3.746-46.602h63.349v32.273h15.534v-32.273
		h62.391L327.254,315.251z M346.978,268.649h50.747l-7.648,46.602H342.85L346.978,268.649z M129.881,315.251l-6.936-46.602h51.582
		l3.744,46.602H129.881z"/>
	<polygon style="fill:#FFFFFF;" points="184.613,200.246 182.249,170.826 166.665,170.826 169.029,200.246 	"/>
</g>
<g>
	<path style="fill:#AEC1ED;" d="M196.374,396.838c0-2.206,1.794-4,4-4h7.831v-22.47H73.11c-2.75,0-5,2.25-5,5v21.607
		c0,2.75,2.25,5,5,5h123.264V396.838z"/>
	<path style="fill:#AEC1ED;" d="M438.89,370.368H313.195v22.47h7.831c2.205,0,4,1.794,4,4v5.138H438.89c2.75,0,5-2.25,5-5v-21.607
		C443.89,372.618,441.64,370.368,438.89,370.368z"/>
</g>
<path style="fill:#85A0DD;" d="M99,396.976v-21.607c0-2.75,2.25-5,5-5H73.11c-2.75,0-5,2.25-5,5v21.607c0,2.75,2.25,5,5,5H104
	C101.25,401.976,99,399.726,99,396.976z"/>
<path style="fill:#AEC1ED;" d="M484.255,166.858c-0.31,2.732-2.814,4.968-5.564,4.968H33.309c-2.75,0-5.253-2.235-5.563-4.968
	l-4.182-36.891C23.253,127.235,25.25,125,28,125h456c2.75,0,4.747,2.235,4.436,4.968L484.255,166.858z"/>
<path style="fill:#85A0DD;" d="M58.277,166.858l-4.182-36.891c-0.31-2.732,1.686-4.968,4.436-4.968H28
	c-2.75,0-4.747,2.235-4.437,4.968l4.182,36.891c0.31,2.732,2.814,4.968,5.563,4.968H63.84
	C61.09,171.826,58.587,169.591,58.277,166.858z"/>
<path style="fill:#AEC1ED;" d="M467.132,220.13C466.51,222.809,463.75,225,461,225H51c-2.75,0-5.509-2.191-6.132-4.87l-3.722-16.014
	c-0.623-2.679,1.118-4.87,3.868-4.87h421.971c2.75,0,4.491,2.191,3.868,4.87L467.132,220.13z"/>
<g>
	<path style="fill:#85A0DD;" d="M75.848,220.13l-3.722-16.014c-0.623-2.679,1.118-4.87,3.868-4.87h-30.98
		c-2.75,0-4.491,2.191-3.868,4.87l3.722,16.014C45.491,222.809,48.25,225,51,225h30.98C79.23,225,76.471,222.809,75.848,220.13z"/>
	<path style="fill:#85A0DD;" d="M314.195,392.838v-82.915c0-5.5-4.5-10-10-10h-86.99c-5.5,0-10,4.5-10,10v82.915H314.195z"/>
</g>
<rect x="222.21" y="314.92" style="fill:#FFD00D;" width="76.99" height="77.915"/>
<rect x="222.21" y="314.92" style="fill:#FFAF10;" width="15.795" height="77.915"/>
<path style="fill:#D9EAFC;" d="M325.805,416c0.13-0.443,0.221-0.902,0.221-1.387v-17.775c0-2.75-2.25-5-5-5H200.374
	c-2.75,0-5,2.25-5,5v17.775c0,0.484,0.091,0.943,0.221,1.387H325.805z"/>
<path style="fill:#C3DDF4;" d="M226.569,416c-0.13-0.443-0.221-0.902-0.221-1.387v-17.775c0-2.75,2.25-5,5-5h-30.974
	c-2.75,0-5,2.25-5,5v17.775c0,0.484,0.091,0.943,0.221,1.387H226.569z"/>
<path style="fill:#AEC1ED;" d="M339.4,437.246c0,2.75-2.25,5-5,5H187c-2.75,0-5-2.25-5-5V419.47c0-2.75,2.25-5,5-5h147.4
	c2.75,0,5,2.25,5,5V437.246z"/>
<path style="fill:#85A0DD;" d="M213,437.246V419.47c0-2.75,2.25-5,5-5h-31c-2.75,0-5,2.25-5,5v17.776c0,2.75,2.25,5,5,5h31
	C215.25,442.246,213,439.996,213,437.246z"/>
<g>
	<path style="fill:#37C47A;" d="M406,424h-10.246c-2.762,0-5-2.238-5-5s2.238-5,5-5H406c2.762,0,5,2.238,5,5S408.762,424,406,424z"
		/>
	<path style="fill:#37C47A;" d="M117,424h-10.246c-2.762,0-5-2.238-5-5s2.238-5,5-5H117c2.762,0,5,2.238,5,5S119.762,424,117,424z"
		/>
	<path style="fill:#37C47A;" d="M157,457h-10.246c-2.762,0-5-2.238-5-5s2.238-5,5-5H157c2.762,0,5,2.238,5,5S159.762,457,157,457z"
		/>
	<path style="fill:#37C47A;" d="M238.246,483H228c-2.762,0-5-2.238-5-5s2.238-5,5-5h10.246c2.762,0,5,2.238,5,5
		S241.008,483,238.246,483z"/>
	<path style="fill:#37C47A;" d="M310,471h-10.246c-2.762,0-5-2.238-5-5s2.238-5,5-5H310c2.762,0,5,2.238,5,5S312.762,471,310,471z"
		/>
	<path style="fill:#37C47A;" d="M376,453h-10.246c-2.762,0-5-2.238-5-5s2.238-5,5-5H376c2.762,0,5,2.238,5,5S378.762,453,376,453z"
		/>
</g>
<g>
</g>
<g>
</g>
<g>
</g>
<g>
</g>
<g>
</g>
<g>
</g>
<g>
</g>
<g>
</g>
<g>
</g>
<g>
</g>
<g>
</g>
<g>
</g>
<g>
</g>
<g>
</g>
<g>
</g>
</svg>
