<?xml version="1.0" encoding="iso-8859-1"?>
<!-- Generator: Adobe Illustrator 19.0.0, SVG Export Plug-In . SVG Version: 6.00 Build 0)  -->
<svg version="1.1" id="Capa_1" xmlns="http://www.w3.org/2000/svg" xmlns:xlink="http://www.w3.org/1999/xlink" x="0px" y="0px"
	 viewBox="0 0 512.001 512.001" style="enable-background:new 0 0 512.001 512.001;" xml:space="preserve">
<circle style="fill:#91E0E8;" cx="256.001" cy="267" r="245"/>
<path style="fill:#80859B;" d="M275.888,0h-39.773c-42.99,0-77.84,34.851-77.84,77.84v46.002c0-42.989,34.85-60.84,77.84-60.84
	h39.773c42.99,0,77.84,17.851,77.84,60.84V77.84C353.728,34.851,318.878,0,275.888,0z"/>
<path style="fill:#6E7489;" d="M189.203,72.505C191.948,32.007,225.646,0,266.841,0h-30.727c-42.99,0-77.84,34.851-77.84,77.84
	v46.002C158.274,98.472,170.418,81.862,189.203,72.505z"/>
<g>
	<path style="fill:#EEF6FF;" d="M256.001,347.337c1.17,0,2.316-0.249,3.274-0.692l-0.394-0.424c-1.845-1.986-4.865-1.986-6.71,0
		l-0.068,0.074C253.163,346.952,254.559,347.337,256.001,347.337z"/>
	<path style="fill:#EEF6FF;" d="M317.692,360.908l-15.49,30.779c-0.489,0.971-1.237,1.527-2.054,1.527l0,0
		c-0.641,0-1.313-0.343-1.891-0.966l-38.642-41.605c-1.084-1.167-2.536-1.809-4.088-1.809c-1.552,0-3.004,0.642-4.087,1.809
		l-38.643,41.604c-0.573,0.617-1.231,0.956-1.855,0.956c-0.801,0-1.531-0.561-2.001-1.541l-14.63-30.436v142.918
		c19.71,5.115,40.379,7.856,61.69,7.856s41.979-2.741,61.691-7.855V360.908z"/>
</g>
<path style="fill:#1A2B63;" d="M285.507,378.522l-25.892-27.878c-1.084-1.167-2.536-1.809-4.088-1.809
	c-1.552,0-3.004,0.642-4.087,1.809l-25.426,27.374l16.251,17.016l-16.287,115.132c9.841,1.203,19.857,1.835,30.023,1.835
	c10.166,0,20.182-0.632,30.023-1.835l-16.287-115.131L285.507,378.522z"/>
<path style="fill:#FFFFFF;" d="M298.726,295.56v18.404c0,2.425-1.689,5.634-3.688,7.007l-35.482,24.373
	c-0.917,0.631-2.213,0.992-3.555,0.992c-1.341,0-2.637-0.361-3.555-0.992l-35.482-24.373c-1.999-1.373-3.688-4.582-3.688-7.007
	v-18.798l-18.967,19.356v49.012l13.729,28.562c1.175,2.443,3.646,2.818,5.491,0.832l38.643-41.605c1.845-1.986,4.865-1.986,6.71,0
	l38.643,41.605c1.845,1.986,4.352,1.63,5.571-0.793l14.597-29.005v-48.488L298.726,295.56z"/>
<path style="fill:#FF9F60;" d="M275.888,293.998h-39.773c-8.32,0-16.328-1.347-23.838-3.804v23.771c0,2.75,1.854,6.273,4.121,7.831
	l35.482,24.373c2.267,1.558,5.976,1.558,8.242,0l35.482-24.373c2.267-1.558,4.121-5.081,4.121-7.831v-23.771
	C292.216,292.651,284.208,293.998,275.888,293.998z"/>
<path style="fill:#FF8D4D;" d="M235.332,306.297v-12.318c-8.039-0.081-15.783-1.404-23.056-3.784v23.771
	c0,2.75,1.854,6.273,4.121,7.831l35.482,24.373c2.267,1.558,5.976,1.558,8.242,0l12.988-8.922l-33.657-23.119
	C237.187,312.57,235.332,309.047,235.332,306.297z"/>
<g>
	<path style="fill:#FF9F60;" d="M159.274,190.992V145h-6.102c-0.986,0.492-1.671,1.501-1.671,2.676v35.404
		C151.501,187.398,154.976,190.914,159.274,190.992z"/>
	<path style="fill:#FF9F60;" d="M142.501,183.08v-35.663c-6.24,3.396-10.5,10.016-10.5,17.583v30c0,11,9,20,20,20h7.273v-15.008
		C150.013,199.913,142.501,192.361,142.501,183.08z"/>
	<path style="fill:#FF9F60;" d="M360.501,183.08v-35.404c0-1.175-0.685-2.184-1.671-2.676h-6.103v45.992
		C357.026,190.914,360.501,187.398,360.501,183.08z"/>
	<path style="fill:#FF9F60;" d="M369.501,147.417v35.663c0,9.281-7.512,16.833-16.773,16.912V215h7.273c11,0,20-9,20-20v-30
		C380.001,157.433,375.741,150.813,369.501,147.417z"/>
</g>
<path style="fill:#FFC987;" d="M275.888,62h-39.773c-42.99,0-77.84,17.851-77.84,60.84v29.162c0,42.99,34.85,77.84,77.84,77.84
	h39.773c42.99,0,77.84-34.85,77.84-77.84V122.84C353.728,79.851,318.878,62,275.888,62z"/>
<g>
	<path style="fill:#F2B675;" d="M180.001,191v-46.324h-21.727v46.231c0.375,0.055,0.756,0.093,1.146,0.093H180.001z"/>
	<path style="fill:#F2B675;" d="M180.001,135.676V122.84c0-42.989,34.85-60.84,77.84-60.84h-21.727
		c-42.99,0-77.84,17.851-77.84,60.84v12.836H180.001z"/>
</g>
<g>
	<path style="fill:#999CAD;" d="M169.335,191c-7.018-11.691-11.061-25.372-11.061-40v39.907c0.375,0.055,0.756,0.093,1.146,0.093
		H169.335z"/>
	<path style="fill:#999CAD;" d="M353.728,190.907V151c0,14.628-4.042,28.309-11.061,40h9.915
		C352.972,191,353.353,190.962,353.728,190.907z"/>
	<path style="fill:#999CAD;" d="M352.582,200h-16.225c-14.271,17.59-36.052,28.84-60.469,28.84h-39.773
		c-24.417,0-46.197-11.25-60.469-28.84h-16.225c-0.387,0-0.766-0.032-1.146-0.058v17.216c0,42.99,34.85,77.84,77.84,77.84h39.773
		c42.99,0,77.84-34.85,77.84-77.84v-17.216C353.347,199.968,352.968,200,352.582,200z"/>
</g>
<path style="fill:#80859B;" d="M179.001,217.158v-13.29c-12.857-13.884-20.727-32.453-20.727-52.868v66.158
	c0,42.99,34.85,77.84,77.84,77.84h20.727C213.851,294.998,179.001,260.148,179.001,217.158z"/>
<g>
	<circle style="fill:#1A2B63;" cx="201.001" cy="166" r="16"/>
	<circle style="fill:#1A2B63;" cx="311.001" cy="166" r="16"/>
</g>
<g>
	<path style="fill:#A05F33;" d="M176.677,135.676h74.504c-1.543-8.083-8.654-14.216-17.18-14.216h-54c-4.142,0-7.5,3.357-7.5,7.5
		C172.501,131.907,174.205,134.449,176.677,135.676z"/>
	<path style="fill:#A05F33;" d="M275.001,195.54h-21c-1.355,0-2.5-1.145-2.5-2.5v-48.364h-10.063c-1.654,0-3,1.346-3,3v35.404
		c0,2.828-0.706,5.49-1.938,7.836v2.124c0,9.65,7.851,17.5,17.5,17.5h21c4.142,0,7.5-3.357,7.5-7.5
		C282.501,198.898,279.143,195.54,275.001,195.54z"/>
	<path style="fill:#A05F33;" d="M282.677,135.676h51.647c2.473-1.227,4.176-3.769,4.176-6.716c0-4.143-3.358-7.5-7.5-7.5h-45
		c-4.142,0-7.5,3.357-7.5,7.5C278.501,131.907,280.205,134.449,282.677,135.676z"/>
</g>
<path style="fill:#293D7C;" d="M74.567,373.445L63.057,418c0.117,0.149,0.232,0.298,0.35,0.447
	c32.872,41.744,79.024,72.536,132.087,86.016V313.377L86.271,359.848C81.209,362.001,75.942,368.119,74.567,373.445z"/>
<path style="fill:#1A2B63;" d="M179.034,324.978c0.97-2.589,3.844-5.593,6.388-6.676l10.071-4.284v-0.642L86.271,359.848
	c-5.062,2.153-10.328,8.271-11.703,13.598L63.057,418c0.117,0.149,0.232,0.298,0.35,0.447c6.49,8.241,13.505,16.049,20.981,23.388
	l14.825-56.937c1.534-5.939,7.407-12.762,13.051-15.163l59.49-25.311L179.034,324.978z"/>
<path style="fill:#293D7C;" d="M437.435,373.445c-1.375-5.326-6.642-11.444-11.703-13.598l-109.222-46.47v191.085
	c53.073-13.483,99.233-44.284,132.106-86.042c0.105-0.134,0.208-0.266,0.313-0.4c0.006-0.007,0.011-0.014,0.017-0.021
	L437.435,373.445z"/>
<g>
	<path style="fill:#2E4C89;" d="M177.526,324.978l-34.043,90.926c-0.969,2.588,0.499,4.707,3.264,4.707h25.312
		c2.765,0,3.542,1.706,1.728,3.792l-18.715,21.515c-1.814,2.086-2.521,5.916-1.572,8.512l13.899,37.99
		c0.533,1.456,1.691,2.985,3.06,4.219c8.149,3.037,16.501,5.656,25.034,7.824V313.377l-11.579,4.926
		C181.37,319.386,178.496,322.39,177.526,324.978z"/>
	<path style="fill:#2E4C89;" d="M334.477,324.978l34.043,90.926c0.969,2.588-0.5,4.707-3.264,4.707h-25.311
		c-2.765,0-3.542,1.706-1.728,3.792l18.715,21.515c1.814,2.086,2.521,5.916,1.572,8.512l-13.899,37.99
		c-0.533,1.456-1.691,2.985-3.06,4.219c-8.149,3.037-16.501,5.656-25.034,7.824V313.377l11.579,4.926
		C330.633,319.386,333.507,322.39,334.477,324.978z"/>
</g>
<path style="fill:#A05F33;" d="M292.001,257.5h-72c-4.142,0-7.5-3.357-7.5-7.5s3.358-7.5,7.5-7.5h72c4.142,0,7.5,3.357,7.5,7.5
	S296.143,257.5,292.001,257.5z"/>
<path d="M290.483,201c-9.881,0-17.919-8.039-17.919-17.92v-35.404c0-1.104-0.896-2-2-2h-29.125c-1.105,0-2,0.896-2,2v35.404
	c0,9.881-8.039,17.92-17.919,17.92h-62.099c-9.881,0-17.919-8.039-17.919-17.92v-42.904c0-3.032,2.467-5.5,5.5-5.5h218
	c3.033,0,5.5,2.468,5.5,5.5v42.904c0,9.881-8.039,17.92-17.919,17.92L290.483,201L290.483,201z M285.564,145.676
	c-1.104,0-2,0.896-2,2v35.404c0,3.815,3.104,6.92,6.919,6.92h62.099c3.815,0,6.919-3.105,6.919-6.92v-35.404c0-1.104-0.896-2-2-2
	H285.564z M154.501,145.676c-1.105,0-2,0.896-2,2v35.404c0,3.815,3.104,6.92,6.919,6.92h62.099c3.815,0,6.919-3.105,6.919-6.92
	v-35.404c0-1.104-0.895-2-2-2H154.501z"/>
<g>
</g>
<g>
</g>
<g>
</g>
<g>
</g>
<g>
</g>
<g>
</g>
<g>
</g>
<g>
</g>
<g>
</g>
<g>
</g>
<g>
</g>
<g>
</g>
<g>
</g>
<g>
</g>
<g>
</g>
</svg>
