<?xml version="1.0" encoding="iso-8859-1"?>
<!-- Generator: Adobe Illustrator 19.0.0, SVG Export Plug-In . SVG Version: 6.00 Build 0)  -->
<svg version="1.1" id="Capa_1" xmlns="http://www.w3.org/2000/svg" xmlns:xlink="http://www.w3.org/1999/xlink" x="0px" y="0px"
	 viewBox="0 0 512 512" style="enable-background:new 0 0 512 512;" xml:space="preserve">
<circle style="fill:#37C47A;" cx="256" cy="267" r="245"/>
<g>
	<path style="fill:#EEF6FF;" d="M212.275,306.237v7.728c0,2.756,1.554,6.616,3.465,8.604l36.795,38.271
		c0.922,0.959,2.152,1.487,3.465,1.487s2.543-0.528,3.465-1.486l36.795-38.272c1.911-1.988,3.465-5.848,3.465-8.604v-7.728l-1-0.425
		v8.153c0,2.492-1.459,6.115-3.186,7.912l-36.795,38.271c-0.731,0.761-1.706,1.18-2.744,1.18s-2.013-0.419-2.744-1.18
		l-36.795-38.271c-1.727-1.797-3.186-5.42-3.186-7.912v-8.153L212.275,306.237z"/>
	<path style="fill:#EEF6FF;" d="M437.434,373.445c-1.375-5.326-6.642-11.444-11.703-13.598l-91.605-38.975
		c0.007,0.096,0.005,0.18-0.007,0.248c-0.271,1.577-1.576,4.845-2.848,7.136l-27.789,50.015c-1.329,2.395-4.08,5.303-4.96,5.501
		c-1.039-0.397-3.45-2.116-5.385-4.051l-8.728-8.729c-1.116-1.116-2.599-1.731-4.173-1.731c-1.619,0-3.131,0.644-4.255,1.814
		l-10.701,11.131c-0.18,0.186-0.279,0.435-0.279,0.693v127.917c-3.269,0.122-6.221,0.182-9,0.182c-2.778,0-5.731-0.06-9-0.182
		V382.901c0-0.258-0.1-0.507-0.279-0.693l-11.191-11.641c-1.124-1.17-2.636-1.815-4.255-1.815c-1.574,0-3.057,0.615-4.173,1.731
		l-9.238,9.238c-1.791,1.792-5.19,3.911-6.285,3.922c-0.891-0.671-2.732-2.983-4.061-5.372l-27.787-50.016
		c-1.041-1.874-2.139-4.977-2.603-7.065L86.27,359.848c-5.062,2.153-10.328,8.271-11.703,13.598L63.056,418
		c44.849,57.226,114.601,94,192.944,94s148.096-36.775,192.944-94L437.434,373.445z"/>
</g>
<path style="fill:#D9EAFC;" d="M179.73,328.256c-1.041-1.874-2.139-4.977-2.603-7.065L86.27,359.848
	c-5.062,2.153-10.328,8.271-11.703,13.598L63.056,418c4.988,6.365,10.302,12.461,15.884,18.297l10.683-47.786
	c1.375-5.326,6.642-11.444,11.703-13.598l84.382-35.901L179.73,328.256z"/>
<g>
	<path style="fill:#232323;" d="M217.863,379.723c-1.791,1.792-5.19,3.911-6.285,3.922c-0.891-0.671-2.732-2.983-4.061-5.372
		L198,361.141v143.94c7.833,1.901,15.814,3.419,23.922,4.548V375.664L217.863,379.723z"/>
	<path style="fill:#232323;" d="M303,477c0-12.126,4.506-23.193,11.922-31.642v-87.677l-11.44,20.591
		c-1.329,2.395-4.08,5.303-4.96,5.501c-1.039-0.397-3.45-2.116-5.385-4.051L291,377.586v131.92
		c7.225-1.034,14.338-2.406,21.345-4.057C306.475,497.487,303,487.65,303,477z"/>
	<polygon style="fill:#232323;" points="367.922,380 367.922,335.252 344,325.074 344,380 	"/>
	<path style="fill:#232323;" d="M344,401v28.514c2.285-0.334,4.621-0.514,7-0.514c5.959,0,11.658,1.094,16.922,3.079V401H344z"/>
	<path style="fill:#232323;" d="M92,448.989c7.562,6.819,15.551,13.171,23.922,19.016V347.231L92,357.41V448.989z"/>
	<path style="fill:#232323;" d="M397,467.353c8.372-5.903,16.368-12.303,23.922-19.183v-90.368L397,347.624V467.353z"/>
	<path style="fill:#232323;" d="M275.887,0h-39.773c-42.99,0-77.84,34.851-77.84,77.84v46.002c0-42.989,34.85-60.84,77.84-60.84
		h39.773c42.99,0,77.84,17.851,77.84,60.84V77.84C353.727,34.851,318.877,0,275.887,0z"/>
</g>
<path d="M189.202,72.505C191.947,32.007,225.645,0,266.84,0h-30.727c-42.99,0-77.84,34.851-77.84,77.84v46.002
	C158.273,98.471,170.417,81.862,189.202,72.505z"/>
<path d="M330.93,312.053l-19.873-26.026c-0.108-0.142-0.243-0.265-0.366-0.396c-3.817,1.948-7.817,3.585-11.966,4.883v23.452
	c0,2.492-1.459,6.115-3.186,7.912l-36.795,38.271c-0.731,0.761-1.706,1.18-2.744,1.18s-2.013-0.419-2.744-1.18l-36.795-38.271
	c-1.727-1.797-3.186-5.42-3.186-7.912v-23.449c-4.996-1.562-9.778-3.611-14.282-6.107c-0.155,0.17-0.315,0.336-0.446,0.523
	l-18.813,26.877c-1.577,2.252-3.267,5.46-3.754,7.127c-0.488,1.667,1.54,7.402,2.876,9.807l27.787,50.016
	c1.336,2.404,3.333,4.997,4.438,5.762c1.104,0.764,5.544-2.146,7.488-4.09l9.238-9.238c1.944-1.944,5.095-1.913,7,0.069L246,382.901
	V511.78c3.318,0.134,6.648,0.22,10,0.22c3.352,0,6.682-0.086,10-0.22V382.901l10.701-11.131c1.905-1.982,5.056-2.014,7-0.069
	l8.728,8.728c1.944,1.944,4.576,3.888,5.85,4.319c1.272,0.432,4.741-3.587,6.076-5.991l27.789-50.016
	c1.335-2.404,2.667-5.757,2.959-7.451C335.396,319.598,332.6,314.238,330.93,312.053z"/>
<path style="fill:#FF9F60;" d="M275.887,293.998h-39.773c-8.32,0-16.328-1.347-23.838-3.804v23.771c0,2.75,1.56,6.622,3.465,8.604
	l36.795,38.271c1.905,1.982,5.024,1.982,6.93,0l36.795-38.271c1.905-1.982,3.465-5.854,3.465-8.604v-23.771
	C292.215,292.651,284.207,293.998,275.887,293.998z"/>
<path style="fill:#FF8D4D;" d="M233,308.637v-14.718c-7.207-0.289-14.157-1.576-20.725-3.725v23.771c0,2.75,1.56,6.622,3.465,8.604
	l36.795,38.271c1.905,1.982,5.024,1.982,6.93,0l9.459-9.838l-32.459-33.761C234.56,315.259,233,311.387,233,308.637z"/>
<g>
	<path style="fill:#FF9F60;" d="M159.273,140H152c-11,0-20,9-20,20v30c0,11,9,20,20,20h7.273V140z"/>
	<path style="fill:#FF9F60;" d="M379.071,154c-2.564-8.092-10.16-14-19.071-14h-7.273v14H379.071z"/>
	<path style="fill:#FF9F60;" d="M352.727,194v16H360c9.631,0,17.728-6.899,19.595-16H352.727z"/>
</g>
<path style="fill:#FF8D4D;" d="M159.273,209.79C149.555,208.447,142,200.073,142,190v-30c0-10.073,7.555-18.447,17.273-19.79V140
	H152c-11,0-20,9-20,20v30c0,11,9,20,20,20h7.273V209.79z"/>
<path style="fill:#FFC987;" d="M353.727,217.158c0,42.99-34.85,77.84-77.84,77.84h-39.773c-42.99,0-77.84-34.85-77.84-77.84V122.84
	c0-42.989,34.85-60.84,77.84-60.84h39.773c42.99,0,77.84,17.851,77.84,60.84V217.158z"/>
<path style="fill:#F2B675;" d="M182,217.158V122.84C182,79.851,216.85,62,259.84,62h-23.727c-42.99,0-77.84,17.851-77.84,60.84
	v94.318c0,42.99,34.85,77.84,77.84,77.84h23.727C216.85,294.998,182,260.148,182,217.158z"/>
<path style="fill:#FF9F60;" d="M272.5,268.5c0-9.864,7.765-17.925,17.5-18.449V235c0-2.75-2.25-5-5-5h-58c-2.75,0-5,2.25-5,5v33
	c0,2.75,2.25,5,5,5h46.076C272.714,271.557,272.5,270.055,272.5,268.5z"/>
<path style="fill:#FF8D4D;" d="M237,268v-33c0-2.75,2.25-5,5-5h-15c-2.75,0-5,2.25-5,5v33c0,2.75,2.25,5,5,5h15
	C239.25,273,237,270.75,237,268z"/>
<g>
	<circle style="fill:#1A2B63;" cx="201" cy="169" r="16"/>
	<circle style="fill:#1A2B63;" cx="311" cy="169" r="16"/>
</g>
<g>
	<path style="fill:#BF7E52;" d="M275,216.094h-21c-9.649,0-17.5-7.85-17.5-17.5v-59.188c0-1.355-1.145-2.5-2.5-2.5h-54
		c-4.143,0-7.5-3.358-7.5-7.5c0-4.143,3.357-7.5,7.5-7.5h54c9.649,0,17.5,7.85,17.5,17.5v59.188c0,1.355,1.145,2.5,2.5,2.5h21
		c4.143,0,7.5,3.358,7.5,7.5S279.143,216.094,275,216.094z"/>
	<path style="fill:#BF7E52;" d="M331,136.906h-45c-4.143,0-7.5-3.358-7.5-7.5c0-4.143,3.357-7.5,7.5-7.5h45
		c4.143,0,7.5,3.357,7.5,7.5C338.5,133.548,335.143,136.906,331,136.906z"/>
</g>
<path style="fill:#FFD00D;" d="M351,429c-26.51,0-48,21.49-48,48c0,10.662,3.482,20.51,9.364,28.477
	c31.243-7.357,60.169-20.706,85.522-38.751C393.181,445.154,373.982,429,351,429z"/>
<path style="fill:#FFAF10;" d="M318.113,477c0-23.932,17.516-43.768,40.426-47.4c-2.457-0.388-4.973-0.6-7.539-0.6
	c-26.51,0-48,21.49-48,48c0,10.662,3.482,20.51,9.364,28.477c4.321-1.018,8.595-2.161,12.824-3.405
	C320.706,494.774,318.113,486.191,318.113,477z"/>
<path style="fill:#FFD00D;" d="M376,396c0,2.75-2.25,5-5,5h-29c-2.75,0-5-2.25-5-5v-11c0-2.75,2.25-5,5-5h29c2.75,0,5,2.25,5,5V396z
	"/>
<path style="fill:#FFAF10;" d="M352,396v-11c0-2.75,2.25-5,5-5h-15c-2.75,0-5,2.25-5,5v11c0,2.75,2.25,5,5,5h15
	C354.25,401,352,398.75,352,396z"/>
<path style="fill:#FFD00D;" d="M193,449c0,2.75-2.25,5-5,5h-56c-2.75,0-5-2.25-5-5v-35c0-2.75,2.25-5,5-5h56c2.75,0,5,2.25,5,5V449z
	"/>
<path style="fill:#FFAF10;" d="M142,449v-35c0-2.75,2.25-5,5-5h-15c-2.75,0-5,2.25-5,5v35c0,2.75,2.25,5,5,5h15
	C144.25,454,142,451.75,142,449z"/>
<path style="fill:#232323;" d="M358,250c0,6.893-5.607,12.5-12.5,12.5h-20.018c0.648,1.885,1.018,3.898,1.018,6
	c0,3.267-0.859,6.333-2.352,9H345.5c15.163,0,27.5-12.336,27.5-27.5v-56h-15V250z"/>
<path d="M327.5,268.5c0,10.77-8.73,19.5-19.5,19.5h-17c-10.77,0-19.5-8.73-19.5-19.5l0,0c0-10.77,8.73-19.5,19.5-19.5h17
	C318.77,249,327.5,257.73,327.5,268.5L327.5,268.5z"/>
<g>
	<polygon style="fill:#232323;" points="168.922,409 168.922,324.682 145,334.859 145,409 	"/>
	<path style="fill:#232323;" d="M145,454v31.445c7.745,3.943,15.729,7.484,23.922,10.602V454H145z"/>
</g>
<path d="M381,153h-27.273v42H381c2.75,0,5-2.25,5-5v-32C386,155.25,383.75,153,381,153z"/>
<g>
</g>
<g>
</g>
<g>
</g>
<g>
</g>
<g>
</g>
<g>
</g>
<g>
</g>
<g>
</g>
<g>
</g>
<g>
</g>
<g>
</g>
<g>
</g>
<g>
</g>
<g>
</g>
<g>
</g>
</svg>
