<?xml version="1.0" encoding="iso-8859-1"?>
<!-- Generator: Adobe Illustrator 19.0.0, SVG Export Plug-In . SVG Version: 6.00 Build 0)  -->
<svg version="1.1" id="Capa_1" xmlns="http://www.w3.org/2000/svg" xmlns:xlink="http://www.w3.org/1999/xlink" x="0px" y="0px"
	 viewBox="0 0 512 512" style="enable-background:new 0 0 512 512;" xml:space="preserve">
<circle style="fill:#1A2B63;" cx="256" cy="267" r="245"/>
<path style="fill:#FFD00D;" d="M497.813,227.49l-71.277-30.326v3.638c0,2.492-1.459,6.115-3.186,7.912l-21.281,22.136
	c-0.731,0.761-1.707,1.18-2.745,1.18s-2.014-0.419-2.745-1.18l-21.281-22.135c-1.727-1.797-3.186-5.42-3.186-7.912v-3.638
	L289.81,232.18c-3.12,1.328-6.383,4.99-7.427,8.337c-0.075,0.242-0.132,0.49-0.17,0.741l-6.51,42.994
	c-0.219,1.439,0.202,2.903,1.152,4.008s2.334,1.74,3.791,1.74h219.27c0.705-7.574,1.083-15.242,1.083-23
	C501,253.547,499.898,240.354,497.813,227.49z"/>
<path style="fill:#FFAF10;" d="M180.084,235h-14.463c8.373,6.748,13.743,17.078,13.743,28.644v1.321
	c20.302,3.701,35.014,15.521,35.014,37.956v-33.627C214.378,250.354,199.024,235,180.084,235z"/>
<path style="fill:#FFD00D;" d="M138.492,263.666h25.662c5.774,0,11.314,0.507,16.479,1.548v-1.57
	c0-20.283-16.502-36.784-36.785-36.784H93.269c-2.762,0-5,2.239-5,5v71.061C88.269,275.184,110.754,263.666,138.492,263.666z"/>
<path style="fill:#FFAF10;" d="M103.636,272.459V231.86c0-2.761,2.238-5,5-5H93.269c-2.762,0-5,2.239-5,5v71.061
	C88.269,288.726,94.167,278.788,103.636,272.459z"/>
<path style="fill:#02AF8E;" d="M283.308,147.997c2.214-1.632,2.214-4.303,0-5.935L209.726,87.81
	c-2.214-1.632-4.024-0.717-4.024,2.033v20.188c0,2.75-2.25,5-5,5H120c-2.75,0-5,2.25-5,5v50c0,2.75,2.25,5,5,5h80.701
	c2.75,0,5,2.25,5,5v20.188c0,2.75,1.811,3.664,4.024,2.033L283.308,147.997z"/>
<path style="fill:#159E97;" d="M140.032,170.03v-50c0-2.75,2.25-5,5-5H120c-2.75,0-5,2.25-5,5v50c0,2.75,2.25,5,5,5h25.032
	C142.282,175.03,140.032,172.78,140.032,170.03z"/>
<path style="fill:#FE3745;" d="M413,361.97c0-2.75-2.25-5-5-5h-80.701c-2.75,0-5-2.25-5-5v-20.188c0-2.75-1.81-3.664-4.024-2.033
	l-73.582,54.254c-2.214,1.632-2.214,4.303,0,5.935l73.582,54.252c2.214,1.632,4.024,0.717,4.024-2.033V421.97c0-2.75,2.25-5,5-5H408
	c2.75,0,5-2.25,5-5V361.97z"/>
<path style="fill:#EA2A3D;" d="M260.66,399.064l61.885-45.629c-0.145-0.467-0.246-0.952-0.246-1.465v-20.188
	c0-2.75-1.81-3.664-4.024-2.033l-73.582,54.254c-2.214,1.632-2.214,4.303,0,5.935l14.616,10.777
	C259.578,400.111,260.013,399.541,260.66,399.064z"/>
<path style="fill:#FFD00D;" d="M268.433,463.256c-0.038-0.25-0.095-0.497-0.17-0.738c-1.042-3.346-4.303-7.008-7.427-8.338
	l-82.301-35.016v3.638c0,2.492-1.459,6.115-3.186,7.912l-21.281,22.136c-0.732,0.761-1.707,1.18-2.745,1.18s-2.014-0.419-2.745-1.18
	l-21.281-22.135c-1.727-1.797-3.186-5.42-3.186-7.912v-3.638L80.355,437.78C124.869,483.554,187.107,512,256,512
	c6.623,0,13.183-0.272,19.673-0.788L268.433,463.256z"/>
<path style="fill:#02AF8E;" d="M187.839,423.122l-9.304-3.958v3.638c0,2.492-1.459,6.115-3.186,7.912l-21.281,22.136
	c-0.732,0.761-1.707,1.18-2.745,1.18s-2.014-0.419-2.745-1.18l-21.281-22.135c-1.727-1.797-3.186-5.42-3.186-7.912v-3.638
	l-9.304,3.958c-2.53,1.077-4.601,3.739-4.601,5.917c0,2.178,1.56,5.582,3.465,7.564l34.187,35.559c1.905,1.982,5.024,1.982,6.93,0
	l34.186-35.559c1.905-1.982,3.465-5.387,3.465-7.564C192.439,426.861,190.369,424.199,187.839,423.122z"/>
<path style="fill:#FFC987;" d="M164.154,411.338h-25.662c-5.371,0-10.538-0.877-15.381-2.474v13.938c0,2.75,1.56,6.622,3.465,8.605
	l21.281,22.136c1.906,1.982,5.025,1.982,6.932,0l21.281-22.136c1.905-1.983,3.465-5.855,3.465-8.605v-13.938
	C174.692,410.461,169.525,411.338,164.154,411.338z"/>
<path style="fill:#F2B675;" d="M138.576,422.802v-11.464h-0.084c-5.371,0-10.538-0.877-15.381-2.474v13.938
	c0,2.75,1.56,6.622,3.465,8.605l21.281,22.136c1.906,1.982,5.025,1.982,6.932,0l4.267-4.438l-17.015-17.698
	C140.136,429.424,138.576,425.552,138.576,422.802z"/>
<path style="fill:#FFC987;" d="M213.378,312.435v44.955c10.048-1.034,17.952-9.586,17.952-19.895v-5.166
	C231.33,322.022,223.426,313.469,213.378,312.435z"/>
<path style="fill:#F2B675;" d="M89.269,312.435c-10.048,1.034-17.952,9.586-17.952,19.895v5.166
	c0,10.309,7.904,18.861,17.952,19.895V312.435z"/>
<path style="fill:#FFE2B8;" d="M214.378,362.114c0,27.738-22.485,50.224-50.224,50.224h-25.662
	c-27.738,0-50.224-22.485-50.224-50.224v-60.855c0-27.737,22.485-39.255,50.224-39.255h25.662c27.738,0,50.224,11.518,50.224,39.255
	V362.114z"/>
<path style="fill:#FFC987;" d="M103.891,362.114v-60.855c0-27.737,22.485-39.255,50.224-39.255h-15.622
	c-27.738,0-50.224,11.518-50.224,39.255v60.855c0,27.738,22.485,50.224,50.224,50.224h15.622
	C126.376,412.338,103.891,389.853,103.891,362.114z"/>
<g>
	<circle style="fill:#DB722C;" cx="115.84" cy="336.32" r="10.324"/>
	<circle style="fill:#DB722C;" cx="186.81" cy="336.32" r="10.324"/>
</g>
<g>
	<path style="fill:#BF7E52;" d="M163.582,368.867H153.58c-9.649,0-17.5-7.851-17.5-17.5v-35.489c0-1.355-1.145-2.5-2.5-2.5H108
		c-4.143,0-7.5-3.358-7.5-7.5s3.357-7.5,7.5-7.5h25.58c9.649,0,17.5,7.851,17.5,17.5v35.489c0,1.355,1.145,2.5,2.5,2.5h10.002
		c4.143,0,7.5,3.358,7.5,7.5S167.725,368.867,163.582,368.867z"/>
	<path style="fill:#BF7E52;" d="M169.696,394.5H132.95c-4.143,0-7.5-3.358-7.5-7.5s3.357-7.5,7.5-7.5h36.746
		c4.143,0,7.5,3.358,7.5,7.5S173.839,394.5,169.696,394.5z"/>
	<path style="fill:#BF7E52;" d="M199.715,313.378h-23.883c-4.143,0-7.5-3.358-7.5-7.5s3.357-7.5,7.5-7.5h23.883
		c4.143,0,7.5,3.358,7.5,7.5S203.857,313.378,199.715,313.378z"/>
</g>
<path style="fill:#FFAF10;" d="M361.672,214.604c-1.905-1.982-3.465-5.387-3.465-7.564c0-2.178,2.07-4.84,4.601-5.917l0.062-0.026
	v-0.001l-73.06,31.084c-3.12,1.328-6.383,4.99-7.427,8.337c-0.075,0.242-0.132,0.49-0.17,0.741l-6.51,42.994
	c-0.219,1.439,0.202,2.903,1.152,4.008s2.334,1.74,3.791,1.74H291.7l5.866-38.742c0.038-0.251,0.095-0.499,0.17-0.741
	c1.044-3.347,4.307-7.009,7.427-8.337l58.92-25.068L361.672,214.604z"/>
<path style="fill:#02AF8E;" d="M435.839,201.122l-9.304-3.958v3.638c0,2.492-1.459,6.115-3.186,7.912l-21.281,22.136
	c-0.731,0.761-1.707,1.18-2.745,1.18s-2.014-0.419-2.745-1.18l-21.281-22.135c-1.727-1.797-3.186-5.42-3.186-7.912v-3.638
	l-9.304,3.958c-2.53,1.077-4.601,3.739-4.601,5.917c0,2.178,1.56,5.582,3.465,7.564l34.186,35.559c1.905,1.982,5.024,1.982,6.93,0
	l34.187-35.559c1.905-1.982,3.465-5.387,3.465-7.564C440.44,204.861,438.369,202.199,435.839,201.122z"/>
<path style="fill:#EF8318;" d="M412.154,0h-25.662c-27.738,0-50.224,22.486-50.224,50.224v30.697
	c0-27.737,22.485-39.255,50.224-39.255h25.662c27.738,0,50.224,11.518,50.224,39.255V50.224C462.378,22.486,439.893,0,412.154,0z"/>
<path style="fill:#DB722C;" d="M351.891,50.291v-0.067C351.891,22.486,374.376,0,402.114,0h-15.622
	c-27.738,0-50.224,22.486-50.224,50.224v30.697C336.269,66.599,342.273,56.611,351.891,50.291z"/>
<path style="fill:#A05F33;" d="M412.154,189.338h-25.662c-5.371,0-10.538-0.877-15.381-2.474v13.938c0,2.75,1.56,6.622,3.465,8.604
	l21.281,22.136c1.906,1.982,5.025,1.982,6.932,0l21.281-22.136c1.905-1.982,3.465-5.854,3.465-8.604v-13.938
	C422.692,188.461,417.525,189.338,412.154,189.338z"/>
<g>
	<path style="fill:#87502A;" d="M386.576,200.802v-11.464h-0.084c-5.371,0-10.538-0.877-15.381-2.474v13.938
		c0,2.75,1.56,6.622,3.465,8.604l21.281,22.136c1.906,1.982,5.025,1.982,6.932,0l4.267-4.438l-17.015-17.698
		C388.136,207.424,386.576,203.552,386.576,200.802z"/>
	<path style="fill:#87502A;" d="M337.269,90.436c-10.048,1.034-17.952,9.586-17.952,19.895v5.166
		c0,10.309,7.904,18.861,17.952,19.894V90.436z"/>
</g>
<path style="fill:#A05F33;" d="M461.378,90.436v44.955c10.048-1.034,17.952-9.586,17.952-19.894v-5.166
	C479.33,100.021,471.426,91.469,461.378,90.436z"/>
<path style="fill:#BF7E52;" d="M462.378,140.114c0,27.738-22.485,50.224-50.224,50.224h-25.662
	c-27.738,0-50.224-22.485-50.224-50.224V79.259c0-27.737,22.485-39.255,50.224-39.255h25.662c27.738,0,50.224,11.518,50.224,39.255
	V140.114z"/>
<path style="fill:#A05F33;" d="M351.891,140.114V79.259c0-27.737,22.485-39.255,50.224-39.255h-15.622
	c-27.738,0-50.224,11.518-50.224,39.255v60.856c0,27.738,22.485,50.224,50.224,50.224h15.622
	C374.376,190.338,351.891,167.852,351.891,140.114z"/>
<g>
	<circle style="fill:#1A2B63;" cx="363.84" cy="114.32" r="10.324"/>
	<circle style="fill:#1A2B63;" cx="434.81" cy="114.32" r="10.324"/>
</g>
<g>
	<path style="fill:#994334;" d="M411.582,146.867H401.58c-9.649,0-17.5-7.851-17.5-17.5V93.878c0-1.355-1.145-2.5-2.5-2.5h-31.293
		c-4.143,0-7.5-3.358-7.5-7.5s3.357-7.5,7.5-7.5h31.293c9.649,0,17.5,7.851,17.5,17.5v35.489c0,1.355,1.145,2.5,2.5,2.5h10.002
		c4.143,0,7.5,3.358,7.5,7.5S415.725,146.867,411.582,146.867z"/>
	<path style="fill:#994334;" d="M417.696,172.5H380.95c-4.143,0-7.5-3.358-7.5-7.5s3.357-7.5,7.5-7.5h36.746
		c4.143,0,7.5,3.358,7.5,7.5S421.839,172.5,417.696,172.5z"/>
	<path style="fill:#994334;" d="M447.715,91.378h-23.883c-4.142,0-7.5-3.358-7.5-7.5s3.358-7.5,7.5-7.5h23.883
		c4.143,0,7.5,3.358,7.5,7.5S451.857,91.378,447.715,91.378z"/>
</g>
<g>
</g>
<g>
</g>
<g>
</g>
<g>
</g>
<g>
</g>
<g>
</g>
<g>
</g>
<g>
</g>
<g>
</g>
<g>
</g>
<g>
</g>
<g>
</g>
<g>
</g>
<g>
</g>
<g>
</g>
</svg>
