<?xml version="1.0" encoding="iso-8859-1"?>
<!-- Generator: Adobe Illustrator 19.0.0, SVG Export Plug-In . SVG Version: 6.00 Build 0)  -->
<svg version="1.1" id="Capa_1" xmlns="http://www.w3.org/2000/svg" xmlns:xlink="http://www.w3.org/1999/xlink" x="0px" y="0px"
	 viewBox="0 0 512 512" style="enable-background:new 0 0 512 512;" xml:space="preserve">
<circle style="fill:#02AF8E;" cx="256" cy="267" r="245"/>
<path style="fill:#69CDFF;" d="M256,22C120.689,22,11,131.689,11,267c0,34.848,7.291,67.987,20.406,98h449.188
	C493.709,334.987,501,301.848,501,267C501,131.689,391.309,22,256,22z"/>
<g>
	<path style="fill:#A05F33;" d="M142.351,257.358c-7.232-0.051-13.177,5.824-13.21,13.057L129.016,298h15.054v-40.629
		L142.351,257.358z"/>
	<path style="fill:#A05F33;" d="M178.264,279.194l0.039-8.425c0.026-6.248-4.371-11.539-10.232-12.898V298h28.728L178.264,279.194z"
		/>
	<path style="fill:#A05F33;" d="M232.828,332.878c-0.371-0.371-0.576-0.866-0.58-1.396l-1.24,1.229l-25.147-25.516v50.039v0.625
		h17.504c1.351,0,2.45,1.101,2.45,2.454v10.813c0,1.353-1.099,2.453-2.45,2.453h-17.786c7.429,5.556,16.28,8.366,25.142,8.417
		c10.883,0.068,21.786-4.024,30.12-12.283l4.431-4.391L232.828,332.878z"/>
</g>
<g>
	<path style="fill:#B7092B;" d="M280.676,286.071c0-2.028,0.358-4.158,0.994-6.277l-49.549,49.549c-1.167,1.167-1.167,3.076,0,4.242
		l39.644,39.643c1.167,1.167,3.075,1.167,4.242,0l4.669-4.669V286.071z"/>
	<path style="fill:#B7092B;" d="M498.874,299.332l-18.753-18.752c0.496,1.858,0.779,3.713,0.779,5.49v78.25
		C489.729,343.944,495.868,322.133,498.874,299.332z"/>
</g>
<path style="fill:#EA2A3D;" d="M470.787,298.639l-48.514-26.128c-0.566,0.723-1.152,1.412-1.764,2.047l-24.15,25.118
	c-4.056,4.224-9.732,6.646-15.572,6.646c-5.837,0-11.513-2.422-15.574-6.646l-24.145-25.118c-0.611-0.636-1.199-1.325-1.766-2.049
	l-48.512,26.129c-4.25,2.288-8.066,6.542-10.615,11.361v200.813c90.683-8.883,166.858-67.202,201.225-147.656V310
	C478.85,305.181,475.037,300.927,470.787,298.639z"/>
<g>
	<path style="fill:#FFD00D;" d="M340.348,273.467c-0.3-0.311-0.592-0.639-0.881-0.972l-5.801,3.124v223.803
		c4.619-1.542,9.174-3.223,13.666-5.029v-213.66L340.348,273.467z"/>
	<path style="fill:#FFD00D;" d="M364.492,298.585l-4.16-4.328V488.72c4.637-2.186,9.194-4.509,13.666-6.971v-177.27
		C370.422,303.345,367.131,301.33,364.492,298.585z"/>
	<path style="fill:#FFD00D;" d="M397.08,298.585c-2.776,2.892-6.281,4.969-10.082,6.065v169.41c4.666-2.958,9.221-6.073,13.666-9.33
		V294.858L397.08,298.585z"/>
	<path style="fill:#FFD00D;" d="M422.11,272.496c-0.289,0.333-0.581,0.66-0.88,0.971l-7.566,7.87v173.177
		c4.711-3.965,9.268-8.104,13.666-12.407v-166.8L422.11,272.496z"/>
</g>
<g>
	<path style="fill:#1A2B63;" d="M467.961,263.571l-39.592-21.324l0.002,0.002c1.484,0.8,2.41,2.344,2.41,4.033v5.256
		c0,7.684-3.525,16.827-8.671,22.741l48.677,26.216c4.25,2.289,8.063,6.542,10.613,11.361v-25.787
		C481.4,277.675,475.352,267.548,467.961,263.571z"/>
	<path style="fill:#1A2B63;" d="M330.795,251.539v-5.258c0-1.688,0.928-3.233,2.408-4.032v-0.001l-39.588,21.322
		c-7.392,3.978-13.439,14.104-13.439,22.5v25.787c2.549-4.819,6.365-9.073,10.615-11.361l48.676-26.217
		C334.318,268.365,330.795,259.223,330.795,251.539z"/>
</g>
<path style="fill:#FFFFFF;" d="M428.371,242.249l-13.857-7.464v16.753c0,3.915-2.294,9.614-5.009,12.443l-24.149,25.114
	c-1.217,1.266-2.839,1.962-4.568,1.962c-1.73,0-3.352-0.697-4.568-1.962l-24.147-25.115c-2.716-2.827-5.01-8.525-5.01-12.443
	v-16.754l-13.859,7.465c-1.48,0.798-2.408,2.344-2.408,4.032v5.258c0,8.116,3.928,17.865,9.553,23.712l24.145,25.118
	c4.25,4.42,10.189,6.953,16.295,6.953c6.109,0,12.049-2.533,16.293-6.953l24.15-25.118c5.621-5.847,9.551-15.597,9.551-23.712
	v-5.256C430.781,244.594,429.855,243.05,428.371,242.249z"/>
<path style="fill:#A05F33;" d="M396.584,233.293h-31.59c-6.609,0-12.969-1.074-18.932-3.032v21.278
	c0,4.198,2.377,10.104,5.289,13.136l24.146,25.115c2.908,3.025,7.67,3.025,10.578,0l24.15-25.115
	c2.908-3.031,5.287-8.938,5.287-13.136v-21.277C409.552,232.219,403.192,233.293,396.584,233.293z"/>
<path style="fill:#87502A;" d="M367,251.539v-18.246h-2.006c-6.609,0-12.969-1.074-18.932-3.032v21.278
	c0,4.198,2.377,10.104,5.289,13.136l24.146,25.115c2.908,3.025,7.67,3.025,10.578,0l5.18-5.387l-18.967-19.728
	C369.377,261.644,367,255.737,367,251.539z"/>
<path style="fill:#232323;" d="M396.584,0h-78.5c-1.727,0-3.307,0.97-4.084,2.515c-0.783,1.536-0.629,3.38,0.391,4.775l4.729,6.449
	h-17.828c-1.723,0-3.303,0.973-4.081,2.507c-0.786,1.54-0.632,3.39,0.393,4.781l10.324,14.084h-11.215
	c-1.727,0-3.307,0.969-4.084,2.507c-0.779,1.538-0.627,3.388,0.393,4.777l9.205,12.558h-5.514c-1.727,0-3.307,0.965-4.084,2.507
	c-0.779,1.541-0.627,3.388,0.393,4.779l9.766,13.318h-6.838c-1.725,0-3.305,0.973-4.084,2.513c-0.781,1.539-0.627,3.382,0.391,4.778
	l10.916,14.878v1.542c0-34.142,27.68-48.317,61.822-48.317h31.59c34.143,0,61.822,14.174,61.822,48.317V61.827
	C458.406,27.678,430.727,0,396.584,0z"/>
<g>
	<path style="fill:#87502A;" d="M458.832,111.194h-1.426v55.592h1.426c11.242,0,20.441-9.198,20.441-20.438v-14.717
		C479.273,120.385,470.074,111.194,458.832,111.194z"/>
	<path style="fill:#87502A;" d="M304.172,111.194h-1.426c-11.242,0-20.442,9.191-20.442,20.438v14.717
		c0,11.24,9.2,20.438,20.442,20.438h1.426V111.194z"/>
</g>
<path id="SVGCleanerId_0" style="fill:#BF7E52;" d="M458.406,172.475c0,34.143-27.68,61.818-61.822,61.818h-31.59
	c-34.143,0-61.822-27.675-61.822-61.818V97.562c0-34.143,27.68-48.317,61.822-48.317h31.59c34.143,0,61.822,14.174,61.822,48.317
	V172.475z"/>
<g>
	<path id="SVGCleanerId_0_1_" style="fill:#BF7E52;" d="M458.406,172.475c0,34.143-27.68,61.818-61.822,61.818h-31.59
		c-34.143,0-61.822-27.675-61.822-61.818V97.562c0-34.143,27.68-48.317,61.822-48.317h31.59c34.143,0,61.822,14.174,61.822,48.317
		V172.475z"/>
</g>
<path style="fill:#A05F33;" d="M318.766,172.475V97.562c0-34.143,27.68-48.317,61.822-48.317h-15.594
	c-34.143,0-61.822,14.174-61.822,48.317v74.913c0,34.143,27.68,61.818,61.822,61.818h15.594
	C346.445,234.293,318.766,206.618,318.766,172.475z"/>
<g>
	<path style="fill:#232323;" d="M349.813,130.006c0,7.018-5.685,12.707-12.707,12.707c-7.02,0-12.703-5.689-12.703-12.707
		c0-7.016,5.684-12.709,12.703-12.709C344.127,117.297,349.813,122.99,349.813,130.006z"/>
	<path style="fill:#232323;" d="M437.176,130.006c0,7.018-5.686,12.707-12.707,12.707c-7.018,0-12.705-5.689-12.705-12.707
		c0-7.016,5.688-12.709,12.705-12.709C431.49,117.297,437.176,122.99,437.176,130.006z"/>
</g>
<path style="fill:#994334;" d="M395.879,170.632h-14.4c-9.861,0-17.889-8.024-17.889-17.889v-47.858
	c0-1.385-1.166-2.556-2.553-2.556h-40.609c-4.232,0-7.664-3.428-7.664-7.662c0-4.235,3.432-7.667,7.664-7.667h40.609
	c9.861,0,17.885,8.022,17.885,17.885v47.858c0,1.389,1.17,2.558,2.557,2.558h14.4c4.232,0,7.666,3.434,7.666,7.668
	C403.545,167.201,400.111,170.632,395.879,170.632z"/>
<path style="fill:#FF9F60;" d="M382.121,226C363.858,226,349,211.142,349,192.879v-8.111c0-1.867,1.513-3.38,3.379-3.38h59.484
	c1.866,0,3.379,1.513,3.379,3.38v8.111C415.242,211.142,400.385,226,382.121,226z"/>
<path style="fill:#FFFFFF;" d="M411.863,181.388h-59.484c-1.866,0-3.379,1.513-3.379,3.38v8.111c0,0.278,0.014,0.552,0.021,0.828
	h66.201c0.007-0.276,0.02-0.55,0.02-0.828v-8.111C415.242,182.9,413.729,181.388,411.863,181.388z"/>
<path style="fill:#994334;" d="M440.353,102.329h-35.738c-4.234,0-7.666-3.428-7.666-7.662c0-4.235,3.432-7.667,7.666-7.667h35.738
	c4.236,0,7.666,3.432,7.666,7.667C448.02,98.901,444.59,102.329,440.353,102.329z"/>
<path style="fill:#FFD00D;" d="M464.318,332c2.52,0,3.551,1.783,2.291,3.964l-12.248,21.212c-1.256,2.181-3.32,2.181-4.576,0
	l-12.248-21.212c-1.258-2.181-0.23-3.964,2.289-3.964H464.318z"/>
<rect x="143.55" y="248.1" style="fill:#FFAF10;" width="25.05" height="49.902"/>
<g>
	<path style="fill:#EF8318;" d="M92.441,181.952c-0.959-1.885-1.893-3.811-2.805-5.77c-6.742-3.97-13.493-10.661-19.802-19.706
		c-7.245-10.38-13.304-27.045-16.21-44.574c-0.167-1.032,0.118-2.076,0.792-2.872c0.679-0.794,1.661-1.254,2.705-1.254h12.508
		c-1.11-6.965-2.014-14.081-2.702-21.317H34.793c-2.31,0-4.193,1.885-4.193,4.2c0,28.319,7.731,54.992,21.768,75.114
		c13.063,18.732,30.491,29.972,49.094,31.677C98.294,192.694,95.276,187.525,92.441,181.952z"/>
	<path style="fill:#EF8318;" d="M277.342,86.459H245.21c-0.687,7.236-1.591,14.352-2.701,21.317h12.514
		c1.04,0,2.022,0.46,2.699,1.254c0.675,0.796,0.964,1.84,0.792,2.872c-2.908,17.529-8.968,34.191-16.21,44.574
		c-6.312,9.05-13.064,15.742-19.808,19.711c-0.912,1.957-1.845,3.881-2.803,5.765c-2.837,5.574-5.855,10.743-9.023,15.497
		c18.607-1.704,36.034-12.943,49.105-31.677c14.034-20.118,21.763-46.795,21.763-75.114
		C281.537,88.344,279.656,86.459,277.342,86.459z"/>
</g>
<path style="fill:#FFAF10;" d="M246.357,56.286c-0.915-0.937-2.173-1.463-3.486-1.463H69.264c-1.31,0-2.564,0.526-3.485,1.463
	c-0.919,0.941-1.423,2.211-1.396,3.525c0.988,46.562,10.633,90.102,27.166,122.595c11.177,21.97,24.827,37.494,39.758,45.631h49.52
	c14.932-8.138,28.575-23.662,39.756-45.631c16.537-32.493,26.184-76.033,27.166-122.595
	C247.78,58.497,247.277,57.226,246.357,56.286z"/>
<path style="fill:#EF9614;" d="M114.387,182.405C97.854,149.912,88.209,106.372,87.221,59.81c-0.028-1.314,0.477-2.584,1.396-3.525
	c0.92-0.937,2.175-1.463,3.485-1.463H69.264c-1.31,0-2.564,0.526-3.485,1.463c-0.919,0.941-1.423,2.211-1.396,3.525
	c0.988,46.562,10.633,90.102,27.166,122.595c11.177,21.97,24.827,37.494,39.758,45.631h22.837
	C139.213,219.899,125.563,204.375,114.387,182.405z"/>
<path style="fill:#EF8318;" d="M206.86,358.234v-57.78c0-1.896-1.554-3.454-3.445-3.454h-94.69c-1.899,0-3.452,1.558-3.452,3.454
	v57.78H206.86z"/>
<path style="fill:#FFAF10;" d="M226.814,371.125c0,1.896-1.55,3.453-3.45,3.453H88.769c-1.896,0-3.45-1.558-3.45-3.453v-10.813
	c0-1.901,1.554-3.454,3.45-3.454h134.596c1.9,0,3.45,1.552,3.45,3.454L226.814,371.125L226.814,371.125z"/>
<path style="fill:#EF9614;" d="M116,371.125v-10.813c0-1.901,1.554-3.454,3.45-3.454H88.769c-1.896,0-3.45,1.552-3.45,3.454v10.813
	c0,1.896,1.554,3.453,3.45,3.453h30.681C117.554,374.579,116,373.021,116,371.125z"/>
<path style="fill:#FFAF10;" d="M188.269,339.509c0,1.141-0.931,2.072-2.07,2.072h-60.258c-1.141,0-2.072-0.931-2.072-2.072v-23.304
	c0-1.142,0.931-2.07,2.072-2.07h60.258c1.139,0,2.07,0.929,2.07,2.07V339.509z"/>
<path style="fill:#EF9614;" d="M139,339.509v-23.304c0-1.142,0.931-2.07,2.072-2.07h-15.131c-1.141,0-2.072,0.929-2.072,2.07v23.304
	c0,1.141,0.931,2.072,2.072,2.072h15.131C139.931,341.582,139,340.65,139,339.509z"/>
<path style="fill:#EF8318;" d="M128.281,226.441v19.221c0,1.889,1.544,3.436,3.43,3.436h48.71c1.892,0,3.434-1.546,3.434-3.436
	v-19.221L128.281,226.441L128.281,226.441z"/>
<path style="fill:#DB722C;" d="M150,245.662v-19.221h-21.719v19.221c0,1.889,1.544,3.436,3.43,3.436h21.719
	C151.544,249.098,150,247.551,150,245.662z"/>
<path style="fill:#EF8318;" d="M178.771,167.318c-1.078,0.004-2.182-0.294-3.279-0.867l-17.756-9.333
	c-0.267-0.145-0.864-0.308-1.668-0.308c-0.802,0-1.399,0.164-1.667,0.308l-17.754,9.333c-1.098,0.574-2.203,0.867-3.281,0.867
	c-1.633,0-3.096-0.667-4.116-1.878c-1.135-1.344-1.568-3.201-1.215-5.242l3.388-19.775c0.149-0.867-0.401-2.555-1.032-3.174
	l-14.36-14.005c-1.874-1.82-2.552-4.082-1.862-6.198c0.687-2.114,2.567-3.547,5.149-3.922l19.852-2.884
	c0.87-0.126,2.309-1.17,2.698-1.96l8.88-17.989c1.155-2.34,3.094-3.69,5.321-3.69s4.168,1.35,5.323,3.69l8.878,17.989
	c0.387,0.793,1.826,1.834,2.698,1.96l19.854,2.884c2.58,0.375,4.458,1.808,5.147,3.922c0.688,2.116,0.007,4.378-1.86,6.198
	l-14.366,14.005c-0.629,0.619-1.179,2.307-1.032,3.174l3.392,19.775c0.349,2.04-0.08,3.898-1.21,5.242
	C181.868,166.652,180.405,167.318,178.771,167.318z"/>
<g>
	<path style="fill:#37C47A;" d="M254.246,410H244c-2.762,0-5-2.238-5-5s2.238-5,5-5h10.246c2.762,0,5,2.238,5,5
		S257.008,410,254.246,410z"/>
	<path style="fill:#37C47A;" d="M216,435h-10.246c-2.762,0-5-2.238-5-5s2.238-5,5-5H216c2.762,0,5,2.238,5,5S218.762,435,216,435z"
		/>
	<path style="fill:#37C47A;" d="M175.246,411H165c-2.762,0-5-2.238-5-5s2.238-5,5-5h10.246c2.762,0,5,2.238,5,5
		S178.008,411,175.246,411z"/>
	<path style="fill:#37C47A;" d="M124,420h-10.246c-2.762,0-5-2.238-5-5s2.238-5,5-5H124c2.762,0,5,2.238,5,5S126.762,420,124,420z"
		/>
	<path style="fill:#37C47A;" d="M163.246,462H153c-2.762,0-5-2.238-5-5s2.238-5,5-5h10.246c2.762,0,5,2.238,5,5
		S166.008,462,163.246,462z"/>
	<path style="fill:#37C47A;" d="M251,483h-10.246c-2.762,0-5-2.238-5-5s2.238-5,5-5H251c2.762,0,5,2.238,5,5S253.762,483,251,483z"
		/>
</g>
<path style="fill:#FFFFFF;" d="M85.5,261c-0.905,0-1.71-0.577-1.999-1.434c-4.046-11.992-7.076-15.021-19.067-19.067
	C63.578,240.209,63,239.405,63,238.5s0.578-1.709,1.434-1.999c11.991-4.047,15.021-7.076,19.067-19.067
	C83.79,216.577,84.595,216,85.5,216s1.708,0.577,1.999,1.435c4.046,11.991,7.076,15.02,19.067,19.067
	c0.856,0.29,1.434,1.094,1.434,1.999s-0.578,1.709-1.434,1.999c-11.991,4.047-15.021,7.076-19.067,19.067
	C87.208,260.423,86.405,261,85.5,261z"/>
<path style="fill:#EF8318;" d="M257.5,53c-0.905,0-1.71-0.577-1.999-1.434c-4.046-11.992-7.076-15.021-19.067-19.067
	C235.578,32.209,235,31.405,235,30.5s0.578-1.709,1.434-1.999c11.991-4.047,15.021-7.076,19.067-19.067
	C255.79,8.577,256.595,8,257.5,8c0.904,0,1.709,0.577,1.999,1.435c4.046,11.991,7.076,15.02,19.067,19.067
	c0.855,0.29,1.434,1.094,1.434,1.999s-0.578,1.709-1.434,1.999c-11.991,4.047-15.022,7.076-19.067,19.067
	C259.209,52.423,258.404,53,257.5,53z"/>
<path style="fill:#FFD00D;" d="M52.5,53c-0.905,0-1.71-0.577-1.999-1.434c-4.046-11.992-7.076-15.021-19.067-19.067
	C30.578,32.209,30,31.405,30,30.5s0.578-1.709,1.434-1.999c11.991-4.047,15.021-7.076,19.067-19.067C50.79,8.577,51.595,8,52.5,8
	c0.904,0,1.709,0.577,1.999,1.435c4.046,11.991,7.076,15.02,19.067,19.067C74.422,28.791,75,29.595,75,30.5
	s-0.578,1.709-1.434,1.999c-11.991,4.047-15.022,7.076-19.067,19.067C54.209,52.423,53.404,53,52.5,53z"/>
<g>
</g>
<g>
</g>
<g>
</g>
<g>
</g>
<g>
</g>
<g>
</g>
<g>
</g>
<g>
</g>
<g>
</g>
<g>
</g>
<g>
</g>
<g>
</g>
<g>
</g>
<g>
</g>
<g>
</g>
</svg>
