<?xml version="1.0" encoding="iso-8859-1"?>
<!-- Generator: Adobe Illustrator 19.0.0, SVG Export Plug-In . SVG Version: 6.00 Build 0)  -->
<svg version="1.1" id="Capa_1" xmlns="http://www.w3.org/2000/svg" xmlns:xlink="http://www.w3.org/1999/xlink" x="0px" y="0px"
	 viewBox="0 0 512 512" style="enable-background:new 0 0 512 512;" xml:space="preserve">
<g>
	<circle style="fill:#445EA0;" cx="256" cy="267" r="245"/>
	<circle style="fill:#445EA0;" cx="256" cy="267" r="245"/>
</g>
<path style="fill:#60D882;" d="M51.537,402C95.386,468.277,170.581,512,256,512c85.418,0,160.613-43.723,204.462-110H51.537z"/>
<path style="fill:#FE3745;" d="M428.018,381v-83.762c0-2.75-2.25-5-5-5H313.339V381H428.018z"/>
<path style="fill:#EF8318;" d="M198.661,381V239.238H88.982c-2.75,0-5,2.25-5,5V381H198.661z"/>
<path style="fill:#02AF8E;" d="M313.339,381V167c0-2.75-2.25-5-5-5H203.661c-2.75,0-5,2.25-5,5v214H313.339z"/>
<g>
	<rect x="210.84" y="162" style="fill:#0F9390;" width="15" height="219"/>
	<rect x="235.95" y="162" style="fill:#0F9390;" width="15" height="219"/>
	<rect x="261.05" y="162" style="fill:#0F9390;" width="15" height="219"/>
	<rect x="286.15" y="162" style="fill:#0F9390;" width="15" height="219"/>
</g>
<g>
	<polygon style="fill:#FFAF10;" points="83.982,274.625 119.368,239.238 98.155,239.238 83.982,253.412 	"/>
	<polygon style="fill:#FFAF10;" points="83.982,316.625 161.368,239.238 140.155,239.238 83.982,295.412 	"/>
	<polygon style="fill:#FFAF10;" points="83.982,358.625 198.661,243.946 198.661,239.238 182.155,239.238 83.982,337.412 	"/>
	<polygon style="fill:#FFAF10;" points="103.606,381 198.661,285.946 198.661,264.733 83.982,379.412 83.982,381 	"/>
	<polygon style="fill:#FFAF10;" points="145.606,381 198.661,327.946 198.661,306.733 124.394,381 	"/>
	<polygon style="fill:#FFAF10;" points="187.606,381 198.661,369.946 198.661,348.733 166.394,381 	"/>
	<path style="fill:#FFAF10;" d="M297.001,145.778c-1.947,0.001-3.937-0.528-5.916-1.569l-32.074-16.86
		c-0.483-0.254-1.563-0.552-3.011-0.552c-1.449,0-2.527,0.297-3.014,0.552l-32.067,16.86c-1.981,1.042-3.973,1.569-5.918,1.569
		c-2.955,0-5.599-1.205-7.444-3.392c-2.045-2.425-2.823-5.79-2.191-9.476l6.126-35.709c0.269-1.569-0.725-4.621-1.861-5.73
		l-25.944-25.293c-3.379-3.294-4.602-7.375-3.359-11.198c1.241-3.823,4.632-6.404,9.299-7.083l35.853-5.209
		c1.574-0.229,4.17-2.117,4.872-3.543l16.038-32.49C248.476,2.425,251.979,0,256,0s7.524,2.425,9.611,6.656l16.036,32.49
		c0.703,1.428,3.298,3.314,4.873,3.543l35.857,5.209c4.663,0.678,8.055,3.257,9.296,7.082c1.244,3.824,0.021,7.904-3.357,11.198
		l-25.945,25.293c-1.138,1.109-2.131,4.161-1.861,5.73l6.125,35.709c0.633,3.686-0.147,7.051-2.191,9.476
		C302.599,144.573,299.955,145.778,297.001,145.778z"/>
</g>
<path style="fill:#EF9614;" d="M232.705,132.386c-2.045-2.425-2.823-5.79-2.191-9.476l6.126-35.709
	c0.269-1.569-0.725-4.621-1.861-5.73l-25.944-25.293c-3.191-3.11-4.457-6.922-3.541-10.557l-15.667,2.276
	c-4.667,0.678-8.059,3.26-9.299,7.083c-1.244,3.823-0.02,7.904,3.359,11.198l25.944,25.293c1.137,1.109,2.13,4.161,1.861,5.73
	l-6.126,35.709c-0.631,3.686,0.146,7.051,2.191,9.476c1.845,2.187,4.489,3.392,7.444,3.392c1.946,0,3.938-0.528,5.918-1.569
	l16.669-8.764C235.682,134.952,233.996,133.915,232.705,132.386z"/>
<path style="fill:#293D7C;" d="M473.425,380H38.575c6.026,11.571,12.942,22.603,20.669,33h393.511
	C460.482,402.603,467.399,391.571,473.425,380z"/>
<path style="fill:#1A2B63;" d="M38.575,380c6.026,11.571,12.942,22.603,20.669,33h30.575c-7.727-10.397-14.643-21.429-20.669-33
	H38.575z"/>
<g>
	<path style="fill:#FFFFFF;" d="M363.021,272c-10.631,0-17.5-4.435-17.5-11.3v-8.3c0-1.657,1.343-3,3-3h9c1.657,0,3,1.343,3,3v4.424
		c0.79,0.117,1.632,0.176,2.5,0.176h11.725c1.378,0,2.5-1.122,2.5-2.5v-17.021c0-1.473-0.576-2.326-0.691-2.482H364.92
		c-1.657,0-3-1.343-3-3v-9.018c0-1.657,1.343-3,3-3h11.635c0.116-0.156,0.691-1.009,0.691-2.482v-17.02c0-1.378-1.122-2.5-2.5-2.5
		h-11.725c-0.868,0-1.709,0.059-2.5,0.176v4.423c0,1.657-1.343,3-3,3h-9c-1.657,0-3-1.343-3-3v-8.299c0-6.864,6.869-11.3,17.5-11.3
		h11.725c9.649,0,17.5,7.851,17.5,17.5v17.02c0,3.584-0.945,7.039-2.732,9.991l0,0c1.787,2.952,2.732,6.407,2.732,9.991V254.5
		c0,9.649-7.851,17.5-17.5,17.5H363.021z"/>
	<path style="fill:#FFFFFF;" d="M256.182,116c-1.657,0-3-1.343-3-3V50.637c0-0.902-0.104-1.743-0.309-2.5h-7.441
		c-1.657,0-3-1.343-3-3v-9c0-1.657,1.343-3,3-3h9.875c7.34,0,12.875,7.523,12.875,17.5V113c0,1.657-1.343,3-3,3H256.182z"/>
	<path style="fill:#FFFFFF;" d="M121.5,216c-1.657,0-3-1.343-3-3v-31.504c0-9.813,6.237-17.5,14.199-17.5h13.824
		c0.118-0.156,0.702-1.009,0.702-2.5v-17.02c0-1.378-1.122-2.5-2.5-2.5H133c-0.868,0-1.71,0.059-2.5,0.176v4.423
		c0,1.657-1.343,3-3,3h-9c-1.657,0-3-1.343-3-3v-8.299c0-6.864,6.869-11.3,17.5-11.3h11.725c9.649,0,17.5,7.851,17.5,17.5v17.02
		c0,9.649-6.802,17.5-15.163,17.5h-13.076c-0.182,0.396-0.486,1.244-0.486,2.5V201h25c1.657,0,3,1.343,3,3v9c0,1.657-1.343,3-3,3
		H121.5z"/>
</g>
<g>
	<rect x="313.34" y="301" style="fill:#B7092B;" width="114.68" height="15"/>
	<rect x="313.34" y="329.5" style="fill:#B7092B;" width="114.68" height="15"/>
	<rect x="313.34" y="358.5" style="fill:#B7092B;" width="114.68" height="15"/>
</g>
<g>
</g>
<g>
</g>
<g>
</g>
<g>
</g>
<g>
</g>
<g>
</g>
<g>
</g>
<g>
</g>
<g>
</g>
<g>
</g>
<g>
</g>
<g>
</g>
<g>
</g>
<g>
</g>
<g>
</g>
</svg>
