<?xml version="1.0" encoding="iso-8859-1"?>
<!-- Generator: Adobe Illustrator 19.0.0, SVG Export Plug-In . SVG Version: 6.00 Build 0)  -->
<svg version="1.1" id="Capa_1" xmlns="http://www.w3.org/2000/svg" xmlns:xlink="http://www.w3.org/1999/xlink" x="0px" y="0px"
	 viewBox="0 0 512 512" style="enable-background:new 0 0 512 512;" xml:space="preserve">
<circle style="fill:#FFD00D;" cx="256" cy="261.749" r="245"/>
<path style="fill:#445EA0;" d="M215.465,399.929c0.844-2.617,3.785-4.758,6.535-4.758h68c2.75,0,5.691,2.141,6.535,4.758
	l6.648,20.609h38.476l-10.367-43.541H180.708l-10.367,43.541h38.476L215.465,399.929z"/>
<g>
	<path style="fill:#2E4C89;" d="M303.949,40.077c-1.919,0-3.839-0.732-5.303-2.197c-23.516-23.515-61.776-23.515-85.292,0
		c-2.929,2.929-7.678,2.929-10.606,0c-2.929-2.929-2.929-7.678,0-10.606c29.363-29.363,77.142-29.363,106.505,0
		c2.929,2.929,2.929,7.678,0,10.606C307.788,39.344,305.869,40.077,303.949,40.077z"/>
	<path style="fill:#2E4C89;" d="M288.228,55.798c-1.919,0-3.839-0.732-5.303-2.197C275.747,46.423,266.185,42.47,256,42.47
		s-19.747,3.953-26.925,11.131c-2.929,2.929-7.678,2.929-10.606,0c-2.929-2.929-2.929-7.678,0-10.606
		C228.48,32.983,241.809,27.47,256,27.47c14.191,0,27.52,5.514,37.531,15.525c2.929,2.929,2.929,7.678,0,10.606
		C292.067,55.065,290.147,55.798,288.228,55.798z"/>
	<path style="fill:#2E4C89;" d="M272.507,71.519c-1.919,0-3.839-0.732-5.303-2.197c-6.178-6.178-16.23-6.178-22.407,0
		c-2.929,2.929-7.678,2.929-10.607,0s-2.929-7.678,0-10.606c12.026-12.026,31.594-12.026,43.62,0c2.929,2.929,2.929,7.678,0,10.606
		C276.346,70.786,274.426,71.519,272.507,71.519z"/>
	<polygon style="fill:#2E4C89;" points="185.341,420.538 195.708,376.997 180.708,376.997 170.341,420.538 	"/>
</g>
<path style="fill:#293D7C;" d="M376.78,447.9c0,2.75-2.25,5-5,5H140.22c-2.75,0-5-2.25-5-5v-23.459c0-2.75,2.25-5,5-5h231.56
	c2.75,0,5,2.25,5,5V447.9z"/>
<g>
	<path style="fill:#1A2B63;" d="M166,447.9v-23.459c0-2.75,2.25-5,5-5h-30.78c-2.75,0-5,2.25-5,5V447.9c0,2.75,2.25,5,5,5H171
		C168.25,452.9,166,450.65,166,447.9z"/>
	<path style="fill:#1A2B63;" d="M512,373.402c0,2.971-2.43,5.401-5.401,5.401H5.401c-2.971,0-5.401-2.43-5.401-5.401V90.398
		c0-2.971,2.43-5.401,5.401-5.401h501.198c2.971,0,5.401,2.43,5.401,5.401V373.402z"/>
</g>
<path style="fill:#91E0E8;" d="M212.626,350.718l2.838,8.799c0.844,2.617,3.785,4.759,6.535,4.759h68
	c2.75,0,5.691-2.142,6.535-4.759l2.838-8.799H212.626z"/>
<path style="fill:#69CDFF;" d="M230.891,359.517l-2.838-8.799h-15.426l2.838,8.799c0.844,2.617,3.785,4.759,6.535,4.759h15.426
	C234.676,364.276,231.735,362.134,230.891,359.517z"/>
<path style="fill:#02AF8E;" d="M24.844,350.718c-1.782,0-3.24-1.458-3.24-3.24V109.841c0-1.782,1.458-3.241,3.24-3.241h462.313
	c1.782,0,3.24,1.459,3.24,3.241v237.637c0,1.782-1.458,3.24-3.24,3.24H24.844z"/>
<path style="fill:#0F9390;" d="M52.207,347.478V109.841c0-1.782,1.458-3.241,3.24-3.241H24.844c-1.782,0-3.24,1.459-3.24,3.241
	v237.637c0,1.782,1.458,3.24,3.24,3.24h30.604C53.665,350.718,52.207,349.26,52.207,347.478z"/>
<path style="fill:#69CDFF;" d="M472.034,366.921h-20.523c-2.386,0-4.321,1.935-4.321,4.321v7.561h29.165v-7.561
	C476.354,368.855,474.42,366.921,472.034,366.921z"/>
<circle style="fill:#EEF6FF;" cx="256" cy="226.169" r="97"/>
<path style="fill:#D9EAFC;" d="M180,226.17c0-50.024,37.868-91.197,86.5-96.433c-3.45-0.371-6.952-0.567-10.5-0.567
	c-53.571,0-97,43.428-97,97c0,53.571,43.429,97,97,97c3.548,0,7.05-0.196,10.5-0.567C217.868,317.367,180,276.193,180,226.17z"/>
<path style="fill:#1A2B63;" d="M339.268,214.749l13.625,6.942c-1.145-25.184-11.89-47.861-28.666-64.464l-3.185,20.114
	L275.57,147.42l15.907-11.557c-10.988-4.32-22.956-6.694-35.478-6.694c-12.521,0-24.49,2.374-35.478,6.694l15.907,11.557
	l-45.01,29.617l-3.206-20.241c-17.088,16.699-28.029,39.658-29.116,65.17l13.71-6.984l18.906,59.9l-21.494-3.404
	c10.925,20.641,29.078,36.862,51.091,45.296l-2.263-14.287h73.827l-2.268,14.319c22.03-8.416,40.202-24.629,51.145-45.269
	l-21.48,3.402L339.268,214.749z M313.954,275.941l-13.159,2.084l-22.17-22.17l10.864-33.438l30.392-17.547l14.218,7.243
	L313.954,275.941z M320.059,183.545l-2.547,16.085l-29.239,16.882l-29.412-21.368v-35.583l11.763-8.546L320.059,183.545z
	 M241.376,151.015l11.763,8.546v35.583l-29.295,21.284l-28.823-16.641l-2.62-16.545L241.376,151.015z M177.976,212.348l14.531-7.404
	l29.943,17.288l10.821,33.301l-22.386,22.388l-12.855-2.036L177.976,212.348z M218.14,296.764l-2.462-15.545l21.944-21.944h36.331
	l22.243,22.245l-2.414,15.244L218.14,296.764L218.14,296.764z"/>
<g>
	<circle style="fill:#FFFFFF;" cx="30" cy="364.899" r="6"/>
	<circle style="fill:#FFFFFF;" cx="49" cy="364.899" r="6"/>
</g>
<g>
</g>
<g>
</g>
<g>
</g>
<g>
</g>
<g>
</g>
<g>
</g>
<g>
</g>
<g>
</g>
<g>
</g>
<g>
</g>
<g>
</g>
<g>
</g>
<g>
</g>
<g>
</g>
<g>
</g>
</svg>
