<?xml version="1.0" encoding="iso-8859-1"?>
<!-- Generator: Adobe Illustrator 19.0.0, SVG Export Plug-In . SVG Version: 6.00 Build 0)  -->
<svg version="1.1" id="Capa_1" xmlns="http://www.w3.org/2000/svg" xmlns:xlink="http://www.w3.org/1999/xlink" x="0px" y="0px"
	 viewBox="0 0 512 512" style="enable-background:new 0 0 512 512;" xml:space="preserve">
<circle style="fill:#85A0DD;" cx="256" cy="267" r="245"/>
<path style="fill:#EF9614;" d="M288.232,12h-7.396C294.91,22.728,304,39.661,304,58.723v7.231
	c29.091,6.634,49.727,24.814,49.727,57.887V77.494C353.726,41.323,324.404,12,288.232,12z"/>
<path style="fill:#FFAF10;" d="M158.273,123.841c0-42.989,34.85-60.84,77.84-60.84h39.773c10.573,0,20.648,1.086,29.84,3.354v-7.632
	C305.726,26.292,279.435,0,247.003,0H231h-14.003H176.57c-1.941,0-3.707,1.124-4.529,2.882s-0.553,3.834,0.692,5.324L174.232,10
	h-19.539c-1.941,0-3.707,1.124-4.529,2.882s-0.553,3.834,0.692,5.324l10.501,12.567h-9.38c-1.892,0-3.622,1.068-4.47,2.76
	c-0.849,1.692-0.668,3.717,0.465,5.233l10.301,13.785L158.273,123.841L158.273,123.841z"/>
<path style="fill:#B7092B;" d="M437.433,373.445c-1.375-5.325-6.642-11.444-11.703-13.597l-126.006-53.611v6.461
	c0,2.75-1.56,6.622-3.465,8.604l-36.795,38.272c-1.905,1.982-5.024,1.982-6.93,0l-36.795-38.272
	c-1.905-1.982-3.465-5.854-3.465-8.604v-6.461L86.269,359.848c-5.062,2.153-10.328,8.272-11.703,13.597L63.055,418
	c44.849,57.226,114.601,94,192.944,94s148.096-36.774,192.944-94L437.433,373.445z"/>
<path style="fill:#A00026;" d="M132,340.391l-45.73,19.457c-5.062,2.153-10.328,8.272-11.703,13.597L63.055,418
	c4.855,6.196,10.021,12.136,15.438,17.831l11.516-44.572c1.422-5.505,6.865-11.83,12.098-14.055L132,364.485V340.391z"/>
<g>
	<rect x="212.28" y="421" style="fill:#FFFFFF;" width="87.45" height="24"/>
	<rect x="212.28" y="465" style="fill:#FFFFFF;" width="87.45" height="24"/>
	<path style="fill:#FFFFFF;" d="M301,306.779l-1.275-0.542v6.461c0,2.75-1.56,6.622-3.465,8.604l-36.795,38.272
		c-1.905,1.982-5.024,1.982-6.93,0l-36.795-38.272c-1.905-1.982-3.465-5.854-3.465-8.604v-6.461L211,306.779v39.717l41.535,43.203
		c1.905,1.982,5.024,1.982,6.93,0L301,346.496V306.779z"/>
</g>
<path style="fill:#FE3745;" d="M132,338.598v139.73c24.378,14.334,51.446,24.582,80.275,29.776V301.137l-77.233,32.86
	C133.197,334.782,132,336.593,132,338.598z"/>
<path style="fill:#EA2A3D;" d="M132,478.329c4.162,2.448,8.41,4.767,12.725,6.971V374H132V478.329z"/>
<path style="fill:#F2B675;" d="M275.886,293h-39.773c-8.317,0-16.323-1.318-23.838-3.733v24.698c0,2.75,1.56,6.622,3.465,8.604
	l36.795,38.272c1.905,1.982,5.024,1.982,6.93,0l36.795-38.272c1.905-1.982,3.465-5.854,3.465-8.604v-24.698
	C292.21,291.682,284.204,293,275.886,293z"/>
<path style="fill:#DAA56B;" d="M232,313.964V292.89c-6.849-0.356-13.457-1.609-19.725-3.624v24.698c0,2.75,1.56,6.622,3.465,8.604
	l36.795,38.272c1.905,1.982,5.024,1.982,6.93,0l6.397-6.654l-30.398-31.618C233.559,320.586,232,316.714,232,313.964z"/>
<path style="fill:#FFC987;" d="M159.273,140H152c-11,0-20,9-20,20v30c0,11,9,20,20,20h7.273V140z"/>
<g>
	<path style="fill:#F2B675;" d="M143,190v-30c0-9.726,7.04-17.876,16.273-19.637V140H152c-11,0-20,9-20,20v30c0,11,9,20,20,20h7.273
		v-0.363C150.04,207.877,143,199.726,143,190z"/>
	<path style="fill:#F2B675;" d="M360,140h-7.273v70H360c11,0,20-9,20-20v-30C380,149,371,140,360,140z"/>
</g>
<path style="fill:#FFC987;" d="M353.726,217.158c0,42.99-34.85,77.84-77.84,77.84h-39.773c-42.99,0-77.84-34.85-77.84-77.84V122.84
	c0-42.989,34.85-60.84,77.84-60.84h39.773c42.99,0,77.84,17.851,77.84,60.84V217.158z"/>
<path style="fill:#F2B675;" d="M173.547,217.158V122.84c0-42.989,34.85-60.84,77.84-60.84h-15.273
	c-42.99,0-77.84,17.851-77.84,60.84v94.318c0,42.99,34.85,77.84,77.84,77.84h15.273
	C208.396,294.999,173.547,260.148,173.547,217.158z"/>
<g>
	<circle style="fill:#1A2B63;" cx="201" cy="169" r="16"/>
	<circle style="fill:#1A2B63;" cx="311" cy="169" r="16"/>
</g>
<g>
	<path style="fill:#BF7E52;" d="M275,208.731h-21c-9.649,0-17.5-7.851-17.5-17.5v-52.462c0-1.355-1.145-2.5-2.5-2.5h-54
		c-4.143,0-7.5-3.358-7.5-7.5s3.357-7.5,7.5-7.5h54c9.649,0,17.5,7.851,17.5,17.5v52.462c0,1.355,1.145,2.5,2.5,2.5h21
		c4.143,0,7.5,3.358,7.5,7.5S279.142,208.731,275,208.731z"/>
	<path style="fill:#BF7E52;" d="M331,136.887h-45c-4.143,0-7.5-3.358-7.5-7.5s3.357-7.5,7.5-7.5h45c4.143,0,7.5,3.358,7.5,7.5
		C338.5,133.529,335.142,136.887,331,136.887z"/>
</g>
<path style="fill:#FF9F60;" d="M258,274c-22.056,0-40-17.944-40-40v-9.796c0-2.254,1.827-4.082,4.082-4.082h71.836
	c2.255,0,4.082,1.828,4.082,4.082V234C298,256.056,280.056,274,258,274z"/>
<path style="fill:#FF8D4D;" d="M237.021,235h-18.996c0.534,21.594,18.254,39,39.975,39c3.273,0,6.453-0.404,9.5-1.149
	C250.328,268.65,237.474,253.34,237.021,235z"/>
<g>
	<path style="fill:#FFFFFF;" d="M293.918,220.122h-71.836c-2.255,0-4.082,1.828-4.082,4.082V234c0,0.335,0.018,0.667,0.025,1h79.949
		c0.008-0.333,0.025-0.665,0.025-1v-9.796C298,221.95,296.173,220.122,293.918,220.122z"/>
	<rect x="167" y="210" style="fill:#FFFFFF;" width="41" height="10"/>
</g>
<path style="fill:#02AF8E;" d="M167,227c0,1.65,1.35,3,3,3h35c1.65,0,3-1.35,3-3v-7h-41V227z"/>
<g>
	<path style="fill:#FE3745;" d="M205,200h-35c-1.65,0-3,1.35-3,3v7h41v-7C208,201.35,206.65,200,205,200z"/>
	<path style="fill:#FE3745;" d="M376.958,333.997l-77.233-32.86v206.967c28.829-5.193,55.897-15.441,80.275-29.776v-139.73
		C380,336.593,378.802,334.782,376.958,333.997z"/>
</g>
<path style="fill:#FFD00D;" d="M186.995,442c-0.708,0-1.434-0.192-2.153-0.571l-11.674-6.136c-0.176-0.093-0.568-0.201-1.096-0.201
	c-0.526,0-0.92,0.108-1.096,0.201l-11.672,6.136c-0.722,0.379-1.446,0.571-2.154,0.571c-1.076,0-2.038-0.439-2.709-1.235
	c-0.744-0.883-1.026-2.107-0.797-3.449l2.229-12.997c0.098-0.57-0.263-1.682-0.678-2.086l-9.442-9.205
	c-1.23-1.198-1.675-2.684-1.223-4.075c0.452-1.392,1.686-2.332,3.386-2.578l13.049-1.896c0.572-0.083,1.518-0.77,1.773-1.289
	l5.836-11.825c0.76-1.539,2.035-2.422,3.498-2.422c1.464,0,2.738,0.883,3.498,2.422l5.836,11.825
	c0.256,0.519,1.202,1.206,1.774,1.289l13.05,1.896c1.698,0.247,2.932,1.186,3.384,2.578s0.008,2.878-1.222,4.076l-9.443,9.205
	c-0.414,0.404-0.775,1.516-0.678,2.086l2.229,12.997c0.23,1.342-0.052,2.566-0.796,3.449C189.033,441.561,188.07,442,186.995,442z"
	/>
<path style="fill:#293D7C;" d="M376.958,333.997l-77.233-32.86V374H380v-35.402C380,336.593,378.802,334.782,376.958,333.997z"/>
<path style="fill:#EA2A3D;" d="M315,307.636l-15.275-6.499v206.967c5.15-0.928,10.242-2.024,15.275-3.269V307.636z"/>
<polygon style="fill:#1A2B63;" points="299.724,301.137 299.724,374 315,374 315,307.636 "/>
<path style="fill:#293D7C;" d="M135.042,333.997l77.233-32.86V374H132v-35.402C132,336.593,133.197,334.782,135.042,333.997z"/>
<path style="fill:#1A2B63;" d="M144.724,346.461c0-2.005,1.197-3.816,3.042-4.601l64.509-27.446v-13.277l-77.233,32.86
	c-1.845,0.785-3.042,2.596-3.042,4.601V374h12.725v-27.539H144.724z"/>
<path style="fill:#02AF8E;" d="M306,227c0,1.65,1.35,3,3,3h35c1.65,0,3-1.35,3-3v-7h-41V227z"/>
<path style="fill:#FE3745;" d="M344,200h-35c-1.65,0-3,1.35-3,3v7h41v-7C347,201.35,345.65,200,344,200z"/>
<rect x="306" y="210" style="fill:#FFFFFF;" width="41" height="10"/>
<g>
	<path style="fill:#FFD00D;" d="M196.23,481.376l-13.05-1.896c-0.572-0.083-1.519-0.77-1.774-1.289l-5.836-11.825
		c-0.76-1.539-2.034-2.422-3.498-2.422c-1.463,0-2.738,0.883-3.498,2.422l-5.836,11.825c-0.256,0.519-1.201,1.206-1.773,1.289
		l-13.049,1.896c-1.699,0.247-2.934,1.186-3.386,2.578c-0.124,0.382-0.175,0.771-0.165,1.159
		c14.09,7.229,28.97,13.132,44.479,17.546l-0.572-3.34c-0.098-0.57,0.264-1.682,0.678-2.086l9.443-9.205
		c1.23-1.198,1.674-2.684,1.222-4.076C199.162,482.562,197.928,481.623,196.23,481.376z"/>
	<path style="fill:#FFD00D;" d="M367.827,483.954c-0.452-1.392-1.685-2.331-3.384-2.578l-13.05-1.896
		c-0.572-0.083-1.519-0.77-1.774-1.289l-5.836-11.825c-0.76-1.539-2.034-2.422-3.498-2.422c-1.463,0-2.738,0.883-3.498,2.422
		l-5.836,11.825c-0.256,0.519-1.201,1.206-1.773,1.289l-13.049,1.896c-1.699,0.247-2.934,1.186-3.386,2.578
		c-0.452,1.391-0.008,2.877,1.223,4.075l9.442,9.205c0.415,0.404,0.775,1.516,0.678,2.086l-0.555,3.232
		c15.506-4.44,30.379-10.37,44.462-17.624C367.982,484.602,367.931,484.275,367.827,483.954z"/>
	<path style="fill:#FFD00D;" d="M355.208,442c-0.708,0-1.434-0.192-2.153-0.571l-11.674-6.136c-0.176-0.093-0.568-0.201-1.096-0.201
		c-0.526,0-0.92,0.108-1.096,0.201l-11.672,6.136c-0.722,0.379-1.446,0.571-2.154,0.571c-1.076,0-2.038-0.439-2.709-1.235
		c-0.744-0.883-1.026-2.107-0.797-3.449l2.229-12.997c0.098-0.57-0.263-1.682-0.678-2.086l-9.442-9.205
		c-1.23-1.198-1.675-2.684-1.223-4.075c0.452-1.392,1.686-2.332,3.386-2.578l13.049-1.896c0.572-0.083,1.518-0.77,1.773-1.289
		l5.836-11.825c0.76-1.539,2.035-2.422,3.498-2.422c1.464,0,2.738,0.883,3.498,2.422l5.836,11.825
		c0.256,0.519,1.202,1.206,1.774,1.289l13.05,1.896c1.698,0.247,2.932,1.186,3.384,2.578s0.008,2.878-1.222,4.076l-9.443,9.205
		c-0.414,0.404-0.775,1.516-0.678,2.086l2.228,12.997c0.23,1.342-0.052,2.566-0.796,3.449C357.246,441.561,356.283,442,355.208,442z
		"/>
</g>
<g>
</g>
<g>
</g>
<g>
</g>
<g>
</g>
<g>
</g>
<g>
</g>
<g>
</g>
<g>
</g>
<g>
</g>
<g>
</g>
<g>
</g>
<g>
</g>
<g>
</g>
<g>
</g>
<g>
</g>
</svg>
