<?xml version="1.0" encoding="iso-8859-1"?>
<!-- Generator: Adobe Illustrator 19.0.0, SVG Export Plug-In . SVG Version: 6.00 Build 0)  -->
<svg version="1.1" id="Capa_1" xmlns="http://www.w3.org/2000/svg" xmlns:xlink="http://www.w3.org/1999/xlink" x="0px" y="0px"
	 viewBox="0 0 512 512" style="enable-background:new 0 0 512 512;" xml:space="preserve">
<circle style="fill:#02AF8E;" cx="256" cy="267" r="245"/>
<path style="fill:#B7092B;" d="M437.435,360.445c-1.375-5.325-6.642-11.444-11.703-13.597l-98.007-41.698v8.814
	c0,2.41-1.727,5.525-3.77,6.804l-64.246,40.179c-0.957,0.598-2.309,0.941-3.709,0.941c-1.4,0-2.752-0.343-3.709-0.941
	l-64.246-40.179c-2.043-1.279-3.77-4.394-3.77-6.804v-8.814L86.27,346.848c-5.062,2.153-10.328,8.272-11.703,13.597l-14.023,54.279
	C105.274,473.815,176.174,512,256,512s150.727-38.185,195.457-97.277L437.435,360.445z"/>
<g>
	<polygon style="fill:#FFFFFF;" points="425.731,403.935 448.67,403.935 442.47,379.935 425.731,379.935 	"/>
	<polygon style="fill:#FFFFFF;" points="86.271,379.935 69.532,379.935 63.332,403.935 86.271,403.935 	"/>
</g>
<path style="fill:#91E0E8;" d="M327.725,305.15v8.814c0,2.41-1.727,5.525-3.77,6.804l-64.246,40.179
	c-0.957,0.598-2.309,0.941-3.709,0.941c-1.4,0-2.752-0.343-3.709-0.941l-64.246-40.179c-2.043-1.279-3.77-4.394-3.77-6.804v-8.814
	L86.27,346.848v96.823C130.303,485.983,190.11,512,256,512c65.891,0,125.699-26.018,169.731-68.332v-96.82L327.725,305.15z"/>
<g>
	<path style="fill:#5DC1D8;" d="M104.271,339.19l-18,7.658v96.823c5.737,5.513,11.749,10.743,18,15.681V339.19z"/>
	<path style="fill:#5DC1D8;" d="M407.731,339.19v120.16c6.252-4.939,12.263-10.168,18-15.682v-96.82L407.731,339.19z"/>
</g>
<circle style="fill:#FFFFFF;" cx="332.5" cy="416.5" r="49.5"/>
<path style="fill:#EEF6FF;" d="M298,416.5c0-24.788,18.221-45.32,42-48.935c-2.445-0.372-4.95-0.565-7.5-0.565
	c-27.338,0-49.5,22.162-49.5,49.5s22.162,49.5,49.5,49.5c2.55,0,5.055-0.194,7.5-0.565C316.221,461.82,298,441.288,298,416.5z"/>
<path style="fill:#B7092B;" d="M332.5,471c-30.052,0-54.5-24.449-54.5-54.5s24.448-54.5,54.5-54.5s54.5,24.449,54.5,54.5
	S362.552,471,332.5,471z M332.5,372c-24.537,0-44.5,19.962-44.5,44.5s19.963,44.5,44.5,44.5s44.5-19.962,44.5-44.5
	S357.037,372,332.5,372z"/>
<path style="fill:#EF8318;" d="M275.887,0h-39.773c-42.99,0-77.84,34.851-77.84,77.84v46.001c0-33.923,21.585-48.64,39.692-55.012
	c0.539-0.19,1.101-0.284,1.66-0.284c0.813,0,1.624,0.199,2.356,0.59L256,98.002l54.018-28.865c0.732-0.392,1.543-0.59,2.356-0.59
	c0.56,0,1.121,0.094,1.66,0.284c18.107,6.372,39.692,21.088,39.692,55.012V77.84C353.727,34.851,318.877,0,275.887,0z"/>
<path style="fill:#DB722C;" d="M180.34,77.871V77.84C180.34,34.851,215.19,0,258.18,0h-22.066c-42.99,0-77.84,34.851-77.84,77.84
	v46.001C158.273,100.773,168.258,86.592,180.34,77.871z"/>
<path style="fill:#B7092B;" d="M275.887,293.454h-39.773c-20.381,0-38.947-7.883-52.838-20.749v41.259
	c0,2.75,1.908,6.193,4.239,7.651l64.246,40.179c2.331,1.459,6.148,1.459,8.479,0l64.246-40.179c2.331-1.458,4.239-4.901,4.239-7.651
	v-41.259C314.834,285.571,296.268,293.454,275.887,293.454z"/>
<path style="fill:#A00026;" d="M241.5,336.163l-23.261-14.547c-2.331-1.458-4.239-4.901-4.239-7.651v-23.729
	c-11.597-3.443-22.069-9.514-30.725-17.53v41.259c0,2.75,1.908,6.193,4.239,7.651l53.985,33.762v-19.215H241.5z"/>
<path style="fill:#FE3745;" d="M241.5,293.454v61.924l10.261,6.417c2.331,1.459,6.148,1.459,8.479,0l10.261-6.417v-61.924H241.5z"/>
<path style="fill:#FFE2B8;" d="M159.273,140H152c-11,0-20,9-20,20v30c0,11,9,20,20,20h7.273V140z"/>
<g>
	<path style="fill:#FFC987;" d="M142,190v-30c0-10.073,7.555-18.447,17.273-19.79V140H152c-11,0-20,9-20,20v30c0,11,9,20,20,20
		h7.273v-0.21C149.555,208.447,142,200.073,142,190z"/>
	<path style="fill:#FFC987;" d="M360,140h-7.273v70H360c11,0,20-9,20-20v-30C380,149,371,140,360,140z"/>
</g>
<path style="fill:#FFE2B8;" d="M236.113,294.999c-42.921,0-77.84-34.919-77.84-77.84V122.84c0-33.923,21.585-48.64,39.692-55.012
	c0.539-0.19,1.101-0.284,1.66-0.284c0.813,0,1.624,0.199,2.356,0.59L256,97l54.018-28.865c0.732-0.392,1.543-0.59,2.356-0.59
	c0.56,0,1.121,0.094,1.66,0.284c18.107,6.372,39.692,21.088,39.692,55.012v94.318c0,42.921-34.919,77.84-77.84,77.84H236.113z"/>
<path style="fill:#FFC987;" d="M173.547,217.158V122.84c0-29.788,16.643-44.764,32.961-52.287l-4.525-2.418
	c-0.732-0.392-1.543-0.59-2.356-0.59c-0.56,0-1.121,0.094-1.66,0.284c-18.107,6.372-39.692,21.088-39.692,55.012v94.318
	c0,42.921,34.919,77.84,77.84,77.84h15.273C208.466,294.999,173.547,260.08,173.547,217.158z"/>
<g>
	<circle style="fill:#293D7C;" cx="201" cy="169" r="16"/>
	<circle style="fill:#293D7C;" cx="311" cy="169" r="16"/>
</g>
<g>
	<path style="fill:#BF7E52;" d="M275,223.5h-21c-9.649,0-17.5-7.851-17.5-17.5v-66c0-1.355-1.145-2.5-2.5-2.5h-54
		c-4.143,0-7.5-3.358-7.5-7.5s3.357-7.5,7.5-7.5h54c9.649,0,17.5,7.851,17.5,17.5v66c0,1.355,1.145,2.5,2.5,2.5h21
		c4.143,0,7.5,3.358,7.5,7.5S279.143,223.5,275,223.5z"/>
	<path style="fill:#BF7E52;" d="M331,137.5h-45c-4.143,0-7.5-3.358-7.5-7.5s3.357-7.5,7.5-7.5h45c4.143,0,7.5,3.358,7.5,7.5
		S335.143,137.5,331,137.5z"/>
</g>
<path style="fill:#B7092B;" d="M326.025,445.824c-2.762,0-5-2.239-5-5v-12.85h-12.85c-2.762,0-5-2.239-5-5v-12.949
	c0-2.761,2.238-5,5-5h12.85v-12.85c0-2.761,2.238-5,5-5h12.949c2.762,0,5,2.239,5,5v12.85h12.85c2.762,0,5,2.239,5,5v12.949
	c0,2.761-2.238,5-5,5h-12.85v12.85c0,2.761-2.238,5-5,5H326.025z"/>
<path style="fill:#A00026;" d="M313.352,422.975v-12.949c0-2.761,2.238-5,5-5h-10.176c-2.762,0-5,2.239-5,5v12.949
	c0,2.761,2.238,5,5,5h10.176C315.59,427.975,313.352,425.736,313.352,422.975z"/>
<path style="fill:#BF7E52;" d="M256,274.5c-22.66,0-42.604-13.654-50.808-34.786c-1.499-3.861,0.415-8.207,4.276-9.706
	c3.864-1.499,8.207,0.417,9.706,4.277C225.122,249.603,239.576,259.5,256,259.5s30.878-9.897,36.825-25.214
	c1.498-3.861,5.841-5.777,9.706-4.277c3.861,1.5,5.775,5.845,4.276,9.706C298.603,260.846,278.66,274.5,256,274.5z"/>
<path style="fill:#5DC1D8;" d="M160.595,445C147.033,445,136,433.967,136,420.405v-27.622c0-2.089,1.694-3.784,3.784-3.784h41.621
	c2.09,0,3.784,1.694,3.784,3.784v27.622C185.189,433.967,174.156,445,160.595,445z"/>
<g>
</g>
<g>
</g>
<g>
</g>
<g>
</g>
<g>
</g>
<g>
</g>
<g>
</g>
<g>
</g>
<g>
</g>
<g>
</g>
<g>
</g>
<g>
</g>
<g>
</g>
<g>
</g>
<g>
</g>
</svg>
