<?xml version="1.0" encoding="iso-8859-1"?>
<!-- Generator: Adobe Illustrator 19.0.0, SVG Export Plug-In . SVG Version: 6.00 Build 0)  -->
<svg version="1.1" id="Capa_1" xmlns="http://www.w3.org/2000/svg" xmlns:xlink="http://www.w3.org/1999/xlink" x="0px" y="0px"
	 viewBox="0 0 512 512" style="enable-background:new 0 0 512 512;" xml:space="preserve">
<circle style="fill:#EA2A3D;" cx="249" cy="267" r="245"/>
<path style="fill:#80859B;" d="M154.887,258v-29.653c-4.842,3.409-10.735,5.419-17.094,5.419c-6.358,0-12.253-2.011-17.095-5.42V258
	H154.887z"/>
<path style="fill:#FFAF10;" d="M137.793,233.766c-16.415,0-29.77-13.355-29.77-29.77s13.354-29.77,29.77-29.77
	c16.415,0,29.769,13.355,29.769,29.77S154.208,233.766,137.793,233.766z"/>
<path style="fill:#6E7489;" d="M135.811,258v-24.308c-5.6-0.37-10.779-2.295-15.113-5.347V258H135.811z"/>
<g>
	<path style="fill:#FFD00D;" d="M244.889,164.55c-23.048,11.476-51.3,19.42-82.108,23.294c3.02,4.656,4.782,10.2,4.782,16.151
		s-1.762,11.495-4.781,16.15c30.808,3.874,59.059,11.818,82.107,23.294c3.544,1.765,6.91,3.59,10.111,5.469v-89.826
		C251.799,160.96,248.433,162.786,244.889,164.55z"/>
	<path style="fill:#FFD00D;" d="M108.023,203.996c0-4.835,1.166-9.4,3.22-13.441l-39.614-0.001v26.883h39.614
		C109.189,213.396,108.023,208.831,108.023,203.996z"/>
</g>
<path style="fill:#FFAF10;" d="M73,238.312c0,2.75-2.25,5-5,5H48.37c-2.75,0-5-2.25-5-5v-68.633c0-2.75,2.25-5,5-5H68
	c2.75,0,5,2.25,5,5V238.312z"/>
<g>
	<path style="fill:#EF9614;" d="M55.37,238.312v-68.633c0-2.75,2.25-5,5-5h-12c-2.75,0-5,2.25-5,5v68.633c0,2.75,2.25,5,5,5h12
		C57.62,243.312,55.37,241.062,55.37,238.312z"/>
	<path style="fill:#EF9614;" d="M271,143.025h-12.307c-2.75,0-5,2.25-5,5v111.939c0,2.75,2.25,5,5,5H271V143.025z"/>
</g>
<path style="fill:#999CAD;" d="M181.099,282v-20.501c0-2.75-2.25-5-5-5H99.487c-2.75,0-5,2.25-5,5V282H181.099z"/>
<path style="fill:#80859B;" d="M110,282v-20.501c0-2.75,2.25-5,5-5H99.487c-2.75,0-5,2.25-5,5V282H110z"/>
<path style="fill:#FFD00D;" d="M197.053,280.971H78.532c-3.134,0-5.698,2.565-5.698,5.698v150.577
	c34.362,35.55,79.384,60.721,129.918,70.376V286.669C202.752,283.535,200.187,280.971,197.053,280.971z"/>
<path style="fill:#FFAF10;" d="M88,286.669c0-3.134,2.564-5.698,5.698-5.698H78.532c-3.134,0-5.698,2.565-5.698,5.698v150.577
	c4.846,5.013,9.911,9.812,15.166,14.398V286.669z"/>
<path style="fill:#FFFFFF;" d="M137.793,457.905c-0.809,0-1.52-0.532-1.748-1.307l-8.088-27.455L105.275,446.6
	c-0.327,0.251-0.719,0.378-1.111,0.378c-0.375,0-0.751-0.116-1.07-0.349c-0.653-0.475-0.916-1.322-0.646-2.084l9.596-26.966
	c0,0-28.646,0.793-28.662,0.793c-0.787,0-1.488-0.507-1.733-1.26c-0.25-0.768,0.036-1.609,0.703-2.066l23.612-16.176l-23.612-16.177
	c-0.667-0.456-0.953-1.297-0.703-2.065c0.244-0.752,0.945-1.259,1.733-1.259c0.017,0,28.662,0.792,28.662,0.792l-9.596-26.966
	c-0.27-0.761-0.007-1.61,0.646-2.084c0.319-0.233,0.695-0.349,1.07-0.349c0.393,0,0.784,0.126,1.111,0.378l22.682,17.458
	l8.088-27.455c0.229-0.775,0.939-1.307,1.748-1.307s1.519,0.532,1.748,1.307l8.088,27.455l22.682-17.458
	c0.326-0.251,0.719-0.378,1.111-0.378c0.375,0,0.751,0.116,1.07,0.349c0.653,0.474,0.916,1.323,0.645,2.084l-9.593,26.966
	c0,0,28.646-0.792,28.661-0.792c0.787,0,1.488,0.506,1.732,1.259c0.25,0.769-0.036,1.609-0.703,2.065l-23.612,16.177l23.612,16.176
	c0.667,0.457,0.953,1.298,0.703,2.066c-0.244,0.753-0.945,1.26-1.732,1.26c-0.018,0-28.661-0.793-28.661-0.793l9.593,26.966
	c0.271,0.762,0.009,1.609-0.645,2.084c-0.319,0.232-0.695,0.349-1.07,0.349c-0.393,0-0.785-0.127-1.111-0.378l-22.682-17.457
	l-8.088,27.455C139.312,457.374,138.602,457.905,137.793,457.905z"/>
<path style="fill:#FFD00D;" d="M299.278,281.617c0,2.75-2.25,5-5,5h-19.63c-2.75,0-5-2.25-5-5V126.373c0-2.75,2.25-5,5-5h19.63
	c2.75,0,5,2.25,5,5V281.617z"/>
<g>
	<path style="fill:#FFAF10;" d="M285,281.617V126.373c0-2.75,2.25-5,5-5h-15.352c-2.75,0-5,2.25-5,5v155.245c0,2.75,2.25,5,5,5H290
		C287.25,286.617,285,284.367,285,281.617z"/>
	<circle style="fill:#FFAF10;" cx="137.79" cy="204" r="30.77"/>
</g>
<path style="fill:#EF9614;" d="M122.461,203.996c0-14.328,9.793-26.368,23.051-29.793c-2.467-0.637-5.053-0.977-7.719-0.977
	c-16.994,0-30.77,13.776-30.77,30.77s13.775,30.77,30.77,30.77c2.666,0,5.252-0.34,7.719-0.977
	C132.254,230.364,122.461,218.324,122.461,203.996z"/>
<g>
	<path style="fill:#FFFFFF;" d="M348.535,285.27c0.054-0.468-0.094-0.938-0.408-1.289l-40.471-45.508
		c-0.023-0.024-0.044-0.047-0.067-0.071c-0.566-0.566-1.463-0.647-2.124-0.179c-0.688,0.485-0.903,1.41-0.496,2.148l29.353,53.358
		c0.079,0.14,0.171,0.264,0.281,0.374c0.216,0.216,0.493,0.371,0.799,0.441c0.459,0.106,0.941,0.012,1.326-0.26l11.118-7.851
		C348.23,286.16,348.482,285.737,348.535,285.27z"/>
	<path style="fill:#FFFFFF;" d="M311.213,219.57l54.762,26.648c0.424,0.206,0.913,0.221,1.352,0.045
		c0.435-0.179,0.774-0.536,0.933-0.98l4.551-12.826c0.156-0.444,0.117-0.935-0.108-1.348c-0.075-0.139-0.171-0.266-0.282-0.376
		c-0.217-0.216-0.491-0.371-0.796-0.442l-59.31-13.823c-0.819-0.191-1.651,0.266-1.935,1.059c-0.219,0.617-0.05,1.285,0.389,1.724
		C310.894,219.379,311.044,219.487,311.213,219.57z"/>
	<path style="fill:#FFFFFF;" d="M373.741,185.169c0.254-0.397,0.325-0.884,0.196-1.337l-3.682-13.103
		c-0.077-0.274-0.225-0.523-0.422-0.722c-0.127-0.126-0.276-0.234-0.443-0.315c-0.422-0.208-0.913-0.224-1.351-0.047l-56.42,22.926
		c-0.78,0.317-1.198,1.171-0.97,1.982c0.079,0.282,0.226,0.526,0.421,0.721c0.366,0.365,0.897,0.553,1.439,0.464l60.104-9.824
		C373.077,185.837,373.488,185.568,373.741,185.169z"/>
	<path style="fill:#FFFFFF;" d="M351.817,128.063c-0.039-0.04-0.084-0.079-0.127-0.115l-10.566-8.578
		c-0.365-0.296-0.841-0.423-1.307-0.349c-0.463,0.075-0.876,0.344-1.129,0.741l-32.859,51.276c-0.424,0.659-0.321,1.518,0.223,2.063
		c0.04,0.039,0.084,0.079,0.128,0.115c0.652,0.532,1.603,0.486,2.202-0.105l43.426-42.697c0.336-0.329,0.516-0.788,0.492-1.258
		C352.28,128.741,352.107,128.352,351.817,128.063z"/>
</g>
<path style="fill:#FFD00D;" d="M427.371,150.999h-37.035l0.001,59.507c-0.001,37.818-3.108,74.512-9.028,108.494h55.089
	c-5.92-33.982-9.026-70.676-9.026-108.494v-59.507H427.371z"/>
<path style="fill:#FFAF10;" d="M390.336,150.999l0.001,59.507c-0.001,37.818-3.108,74.512-9.028,108.494h15.43
	c5.92-33.982,9.027-70.676,9.028-108.494l-0.001-59.507H390.336z"/>
<path style="fill:#02AF8E;" d="M490.884,462c-10.063-12.873-19.351-29.2-27.688-48.742c-11.841-27.752-20.946-60.202-27.019-95.55
	h-54.648c-6.072,35.348-15.178,67.8-27.015,95.55c-8.341,19.542-17.627,35.87-27.69,48.742H490.884z"/>
<path style="fill:#0F9390;" d="M342.254,462c10.063-12.873,19.349-29.2,27.689-48.742c11.837-27.75,20.942-60.202,27.015-95.55
	h-15.43c-6.072,35.348-15.178,67.8-27.015,95.55c-8.341,19.542-17.627,35.87-27.69,48.742H342.254z"/>
<path style="fill:#FFD00D;" d="M315.067,486.944c-2.948,0-5.36-2.413-5.362-5.361l0.002-15.234c0-2.95,2.412-5.36,5.36-5.36H502.64
	c2.947,0,5.36,2.413,5.36,5.36v15.234c0,2.949-2.412,5.361-5.36,5.361H315.067z"/>
<path style="fill:#FFAF10;" d="M340.705,481.583l0.002-15.234c0-2.95,2.412-5.36,5.36-5.36h-31c-2.948,0-5.36,2.411-5.36,5.36
	l-0.002,15.234c0.002,2.948,2.414,5.361,5.362,5.361h31C343.119,486.944,340.707,484.531,340.705,481.583z"/>
<rect x="390.33" y="43" style="fill:#02AF8E;" width="37.04" height="109.09"/>
<polygon style="fill:#0F9390;" points="405.963,43 390.334,43 390.334,152.086 427.371,152.088 427.371,152.087 405.963,152.086 "/>
<path style="fill:#FFD00D;" d="M386.911,44.545c-2.948,0-5.36-2.413-5.36-5.361V5.361c0-2.948,2.412-5.36,5.363-5.361h43.88
	c2.948,0,5.36,2.413,5.36,5.361v33.821c0,2.949-2.412,5.362-5.36,5.361L386.911,44.545z"/>
<path style="fill:#E5B900;" d="M401.397,39.184V5.361c0-2.948,2.412-5.36,5.363-5.361h-19.846c-2.951,0.001-5.363,2.413-5.363,5.361
	v33.823c0,2.949,2.412,5.361,5.36,5.361h19.839C403.805,44.54,401.397,42.13,401.397,39.184z"/>
<g>
</g>
<g>
</g>
<g>
</g>
<g>
</g>
<g>
</g>
<g>
</g>
<g>
</g>
<g>
</g>
<g>
</g>
<g>
</g>
<g>
</g>
<g>
</g>
<g>
</g>
<g>
</g>
<g>
</g>
</svg>
