<?xml version="1.0" encoding="iso-8859-1"?>
<!-- Generator: Adobe Illustrator 19.0.0, SVG Export Plug-In . SVG Version: 6.00 Build 0)  -->
<svg version="1.1" id="Capa_1" xmlns="http://www.w3.org/2000/svg" xmlns:xlink="http://www.w3.org/1999/xlink" x="0px" y="0px"
	 viewBox="0 0 512 512" style="enable-background:new 0 0 512 512;" xml:space="preserve">
<circle style="fill:#85A0DD;" cx="256" cy="267" r="245"/>
<g>
	<path style="fill:#FFFFFF;" d="M171.203,104.72l57.163-53.553c-2.935-4.628-4.746-10.036-5.031-15.841l-74.072,69.395
		L171.203,104.72L171.203,104.72z"/>
	<path style="fill:#FFFFFF;" d="M362.737,104.72l-74.072-69.395c-0.285,5.806-2.096,11.213-5.031,15.841l57.163,53.553
		L362.737,104.72L362.737,104.72z"/>
</g>
<g>
	<rect x="115" y="116.16" style="fill:#2E4C89;" width="19.849" height="38.912"/>
	<rect x="377.15" y="116.16" style="fill:#2E4C89;" width="19.849" height="38.912"/>
</g>
<g>
	<path style="fill:#1A2B63;" d="M116.034,159.533c0,2.75-2.25,5-5,5H100c-2.75,0-5-2.25-5-5V111.69c0-2.75,2.25-5,5-5h11.034
		c2.75,0,5,2.25,5,5V159.533z"/>
	<path style="fill:#1A2B63;" d="M417,159.533c0,2.75-2.25,5-5,5h-11.033c-2.75,0-5-2.25-5-5V111.69c0-2.75,2.25-5,5-5H412
		c2.75,0,5,2.25,5,5V159.533z"/>
</g>
<path style="fill:#EA2A3D;" d="M373.987,376.91l-113.823,87.766c-2.29,1.766-6.038,1.766-8.328,0L138.013,376.91
	c-2.29-1.766-4.164-5.577-4.164-8.469v42.001c0,2.892,1.874,6.703,4.164,8.469l113.823,87.765c2.29,1.766,6.038,1.766,8.328,0
	l113.823-87.765c2.29-1.766,4.164-5.577,4.164-8.469V368.44C378.151,371.332,376.278,375.144,373.987,376.91z"/>
<g>
	<path style="fill:#B7092B;" d="M138.013,376.91c-2.29-1.766-4.164-5.577-4.164-8.469v42.001c0,2.892,1.874,6.703,4.164,8.469
		L159,435.094v-42.001L138.013,376.91z"/>
	<path style="fill:#B7092B;" d="M260.164,464.675c-2.29,1.766-6.038,1.766-8.328,0l-30.016-23.144v42.001l30.016,23.144
		c2.29,1.766,6.038,1.766,8.328,0l30.016-23.144v-42.001L260.164,464.675z"/>
</g>
<path id="SVGCleanerId_0" style="fill:#B7092B;" d="M133.849,108.978c0-2.892,2.366-5.258,5.258-5.258h233.786
	c2.892,0,5.258,2.366,5.258,5.258v261.169c0,2.892-1.874,6.703-4.164,8.469l-113.823,87.766c-2.29,1.766-6.038,1.766-8.328,0
	l-113.823-87.766c-2.29-1.766-4.164-5.577-4.164-8.469V108.978z"/>
<g>
	<path id="SVGCleanerId_0_1_" style="fill:#B7092B;" d="M133.849,108.978c0-2.892,2.366-5.258,5.258-5.258h233.786
		c2.892,0,5.258,2.366,5.258,5.258v261.169c0,2.892-1.874,6.703-4.164,8.469l-113.823,87.766c-2.29,1.766-6.038,1.766-8.328,0
		l-113.823-87.766c-2.29-1.766-4.164-5.577-4.164-8.469V108.978z"/>
</g>
<path style="fill:#A00026;" d="M223,413.499l-59.132-45.595c-2.291-1.766-4.164-5.577-4.164-8.469V103.72h-20.597
	c-2.892,0-5.258,2.366-5.258,5.258v261.169c0,2.892,1.874,6.703,4.164,8.469L223,444.148V413.499z"/>
<path style="fill:#293D7C;" d="M290.18,384.279c-9.229,6.355-19.367,11.368-30.038,14.72c-1.34,0.421-2.733,0.635-4.142,0.635
	s-2.803-0.214-4.144-0.636c-10.67-3.352-20.808-8.364-30.036-14.719v58.958l30.016,23.144c2.29,1.766,6.038,1.766,8.328,0
	l30.016-23.144V384.279z"/>
<path style="fill:#1A2B63;" d="M239.641,435.959v-41.628c-6.22-2.805-12.191-6.174-17.82-10.051v58.958l30.016,23.144
	c2.29,1.766,6.038,1.766,8.328,0l9.466-7.299L239.641,435.959z"/>
<g>
	<rect x="221.82" y="187.69" style="fill:#293D7C;" width="68.36" height="33.01"/>
	<rect x="221.82" y="103.72" style="fill:#293D7C;" width="68.36" height="40.41"/>
</g>
<g>
	<rect x="221.82" y="103.72" style="fill:#1A2B63;" width="16.18" height="40.41"/>
	<rect x="221.82" y="187.69" style="fill:#1A2B63;" width="16.18" height="33.01"/>
	<circle style="fill:#1A2B63;" cx="256" cy="33.706" r="33.706"/>
</g>
<circle style="fill:#85A0DD;" cx="256" cy="33.706" r="14.706"/>
<path style="fill:#445EA0;" d="M252,33.706c0-6.231,3.881-11.544,9.353-13.687C259.692,19.37,257.891,19,256,19
	c-8.122,0-14.706,6.584-14.706,14.706S247.878,48.412,256,48.412c1.891,0,3.692-0.37,5.353-1.02
	C255.881,45.25,252,39.937,252,33.706z"/>
<path style="fill:#FFAF10;" d="M176.161,188.69c-0.953,0-1.832-0.509-2.308-1.334c-0.475-0.824-0.474-1.84,0.003-2.665l10.879-18.78
	l-10.879-18.781c-0.478-0.824-0.478-1.84-0.003-2.665c0.476-0.825,1.355-1.333,2.308-1.333H335.84c0.953,0,1.832,0.508,2.308,1.333
	c0.475,0.825,0.475,1.841-0.003,2.665l-10.879,18.781l10.879,18.78c0.477,0.824,0.478,1.84,0.003,2.665
	c-0.476,0.825-1.355,1.334-2.308,1.334H176.161z"/>
<path style="fill:#EF9614;" d="M189.35,187.356c-0.475-0.824-0.474-1.84,0.003-2.665l10.879-18.78l-10.879-18.781
	c-0.478-0.824-0.478-1.84-0.003-2.665c0.476-0.825,1.355-1.333,2.308-1.333h-15.497c-0.953,0-1.832,0.508-2.308,1.333
	c-0.475,0.825-0.475,1.841,0.003,2.665l10.879,18.781l-10.879,18.78c-0.477,0.824-0.478,1.84-0.003,2.665
	c0.476,0.825,1.355,1.334,2.308,1.334h15.497C190.705,188.69,189.826,188.182,189.35,187.356z"/>
<path style="fill:#FFD00D;" d="M256,400.635c-1.51,0-3.006-0.229-4.444-0.682c-22.617-7.104-42.915-21.531-57.152-40.621
	c-14.739-19.762-22.53-43.273-22.53-67.99v-56.821c0-8.173,6.649-14.822,14.822-14.822h138.61c8.173,0,14.822,6.649,14.822,14.822
	v56.821c0,24.717-7.791,48.228-22.53,67.99c-14.238,19.091-34.537,33.517-57.156,40.622C259.005,400.405,257.51,400.635,256,400.635
	z"/>
<path style="fill:#FFAF10;" d="M256,390.118c-0.436,0-0.87-0.066-1.29-0.198c-20.526-6.448-38.95-19.543-51.876-36.876
	c-13.375-17.932-20.444-39.269-20.444-61.703V234.52c0-2.377,1.927-4.305,4.305-4.305h138.61c2.379,0,4.305,1.928,4.305,4.305
	v56.821c0,22.434-7.069,43.771-20.443,61.703c-12.927,17.333-31.351,30.429-51.877,36.876
	C256.87,390.052,256.435,390.118,256,390.118z"/>
<path style="fill:#EF9614;" d="M219.029,353.044c-13.374-17.932-20.444-39.269-20.444-61.703V234.52
	c0-2.377,1.927-4.305,4.305-4.305h-16.195c-2.378,0-4.305,1.928-4.305,4.305v56.821c0,22.434,7.07,43.771,20.444,61.703
	c12.927,17.333,31.351,30.429,51.876,36.876c0.419,0.132,0.854,0.198,1.29,0.198c0.435,0,0.87-0.066,1.29-0.198
	c2.296-0.722,4.561-1.539,6.798-2.429C246.321,380.47,230.506,368.433,219.029,353.044z"/>
<g>
	<path style="fill:#EF8318;" d="M237.311,276.385c1.288-0.188,3.185-1.567,3.76-2.734l9.895-20.046
		c1.114-2.255,2.949-3.549,5.034-3.549s3.92,1.294,5.034,3.55l9.895,20.046c0.574,1.167,2.472,2.546,3.76,2.733l6.748,0.98v-47.15
		h-50.873v47.15L237.311,276.385z"/>
	<path style="fill:#EF8318;" d="M281.299,338.004h-0.005c-1.034,0-2.104-0.287-3.181-0.853l-19.79-10.403
		c-0.543-0.285-1.412-0.456-2.323-0.456c-0.909,0-1.777,0.17-2.323,0.454l-19.788,10.405c-1.078,0.566-2.15,0.853-3.187,0.853
		c-0.047,0-0.092-0.006-0.139-0.007v40.662c7.532,4.773,15.655,8.593,24.147,11.261c0.419,0.132,0.854,0.198,1.29,0.198
		c0.435,0,0.87-0.066,1.29-0.198c8.492-2.668,16.616-6.488,24.147-11.261v-40.662C281.391,337.998,281.346,338.004,281.299,338.004z
		"/>
</g>
<path style="fill:#FFFFFF;" d="M281.299,339.004c-1.202,0.001-2.43-0.326-3.651-0.968l-19.79-10.403
	c-0.298-0.157-0.964-0.341-1.858-0.341c-0.894,0-1.56,0.184-1.86,0.341l-19.786,10.403c-1.223,0.642-2.451,0.968-3.652,0.968
	c-1.824,0-3.454-0.744-4.593-2.093c-1.262-1.496-1.742-3.572-1.353-5.847l3.779-22.034c0.166-0.967-0.446-2.851-1.148-3.535
	l-16.008-15.606c-2.085-2.032-2.84-4.55-2.073-6.909c0.766-2.359,2.858-3.952,5.739-4.37l22.122-3.214
	c0.971-0.141,2.573-1.307,3.006-2.186l9.895-20.047c1.289-2.61,3.45-4.107,5.931-4.107c2.481,0,4.642,1.497,5.931,4.107
	l9.895,20.047c0.434,0.881,2.035,2.045,3.007,2.186l22.125,3.214c2.876,0.418,4.97,2.01,5.735,4.37
	c0.768,2.36,0.013,4.877-2.071,6.909l-16.009,15.607c-0.703,0.684-1.315,2.568-1.148,3.535l3.778,22.034
	c0.391,2.274-0.09,4.351-1.352,5.847C284.752,338.26,283.122,339.004,281.299,339.004z"/>
<path style="fill:#D9EAFC;" d="M241.123,331.907c-1.262-1.496-1.742-3.572-1.352-5.847l3.779-22.034
	c0.166-0.967-0.446-2.851-1.148-3.535l-16.008-15.606c-2.085-2.032-2.84-4.55-2.073-6.909c0.086-0.264,0.194-0.515,0.312-0.759
	l-9.587,1.393c-2.88,0.418-4.973,2.011-5.739,4.37c-0.767,2.359-0.012,4.877,2.073,6.909l16.008,15.606
	c0.702,0.684,1.314,2.568,1.148,3.535l-3.779,22.034c-0.389,2.274,0.09,4.351,1.353,5.847c1.138,1.35,2.769,2.093,4.593,2.093
	c1.201,0,2.429-0.326,3.652-0.968l8.756-4.604C242.354,333.078,241.68,332.566,241.123,331.907z"/>
<path style="fill:#FFFFFF;" d="M297.898,173.412h-83.796c-4.142,0-7.5-3.358-7.5-7.5s3.358-7.5,7.5-7.5h83.796
	c4.142,0,7.5,3.358,7.5,7.5S302.04,173.412,297.898,173.412z"/>
<g>
</g>
<g>
</g>
<g>
</g>
<g>
</g>
<g>
</g>
<g>
</g>
<g>
</g>
<g>
</g>
<g>
</g>
<g>
</g>
<g>
</g>
<g>
</g>
<g>
</g>
<g>
</g>
<g>
</g>
</svg>
