<?xml version="1.0" encoding="iso-8859-1"?>
<!-- Generator: Adobe Illustrator 19.0.0, SVG Export Plug-In . SVG Version: 6.00 Build 0)  -->
<svg version="1.1" id="Capa_1" xmlns="http://www.w3.org/2000/svg" xmlns:xlink="http://www.w3.org/1999/xlink" x="0px" y="0px"
	 viewBox="0 0 512 512" style="enable-background:new 0 0 512 512;" xml:space="preserve">
<circle style="fill:#FFAF10;" cx="256" cy="267" r="245"/>
<path style="fill:#A05F33;" d="M180.227,39.868H213.5c0.552,0,1-0.448,1-1v-0.656c0-2.206,1.794-4,4-4h75c2.206,0,4,1.794,4,4v0.656
	c0,0.552,0.448,1,1,1h33.273c1.51,0,2.949,0.3,4.271,0.831C332.1,17.593,311.99,0,287.759,0H224.24
	c-24.23,0-44.34,17.593-48.285,40.7C177.277,40.169,178.716,39.868,180.227,39.868z"/>
<path style="fill:#87502A;" d="M180.227,39.868h26.636C211.143,17.173,231.061,0,255,0h-30.759C200.01,0,179.9,17.593,175.955,40.7
	C177.277,40.169,178.716,39.868,180.227,39.868z"/>
<path style="fill:#BF7E52;" d="M414.057,53.255H97.943c-2.75,0-5,2.25-5,5V449.84C136.256,488.494,193.379,512,256,512
	s119.743-23.506,163.056-62.159v-0.001V58.256C419.057,55.505,416.807,53.255,414.057,53.255z"/>
<path style="fill:#AA6B3F;" d="M123.886,58.255c0-2.75,2.25-5,5-5H97.943c-2.75,0-5,2.25-5,5V449.84
	c9.657,8.618,20.005,16.478,30.943,23.497V58.255z"/>
<path style="fill:#02AF8E;" d="M391.42,75.892H120.58c-2.75,0-5,2.25-5,5v386.882c8.122,5.691,16.604,10.899,25.407,15.588h230.027
	c8.803-4.689,17.286-9.898,25.407-15.589V80.892C396.42,78.142,394.17,75.892,391.42,75.892z"/>
<path style="fill:#159E97;" d="M137.42,80.892c0-2.75,2.25-5,5-5h-21.84c-2.75,0-5,2.25-5,5v386.882
	c7.015,4.915,14.314,9.447,21.841,13.619V80.892H137.42z"/>
<g>
	<path style="fill:#60D882;" d="M227.117,128.212h57.767c2.761,0,5-2.239,5-5v-21.814h-10v16.814h-47.767v-16.814h-10v21.814
		C222.117,125.973,224.355,128.212,227.117,128.212z"/>
	<path style="fill:#60D882;" d="M221.798,159.08c0.861-0.344,1.797-0.539,2.78-0.539c4.142,0,7.5,3.358,7.5,7.5v3.825l6.972-6.972
		c-2.756-1.856-5.211-4.16-7.244-6.852h14.096l10-10h-32.635h-21.585v-44.645h-10v15.891c2.398,2.799,2.398,6.939,0,9.738v14.104
		c2.398,2.799,2.398,6.939,0,9.738v0.174c0,2.761,2.239,5,5,5h23.383C220.598,157.089,221.186,158.095,221.798,159.08z"/>
	<path style="fill:#60D882;" d="M308.919,149.324c0-1.114,0.083-2.208,0.235-3.281h-20.421h-11.618l-10,10h13.078
		c-5.64,7.472-14.5,12.011-24.193,12.011c-0.292,0-0.58-0.017-0.871-0.025l-8.831,8.832c3.126,0.768,6.373,1.194,9.702,1.194
		c15.325,0,29.08-8.536,35.935-22.011h17.99C309.28,153.913,308.919,151.661,308.919,149.324z"/>
	<path style="fill:#60D882;" d="M320.318,129.309v-27.911h-10v39.975C312.168,136.295,315.738,132.04,320.318,129.309z"/>
	<path style="fill:#60D882;" d="M256,381.201c-7.517,0-14.649,2.063-20.781,5.746c2.529,2.493,5.18,4.862,7.946,7.094
		c3.933-1.831,8.29-2.84,12.835-2.84c9.693,0,18.553,4.539,24.193,12.011h-23.715c7.196,4.194,14.923,7.573,23.059,10h9.196h21.585
		v1.722c1.911-4.107,4.968-7.575,8.778-9.964c-0.917-1.067-2.26-1.758-3.778-1.758h-23.383
		C285.08,389.736,271.325,381.201,256,381.201z"/>
	<path style="fill:#60D882;" d="M373.42,90.892h-30.197c-0.408,4.729-3.684,8.65-8.08,10h36.277v173.735h-63.692
		c-1.518-15.827-10.168-29.596-22.683-38.066l-3.36,3.36l6.618,6.618c2.253,2.253,2.766,5.581,1.552,8.331
		c4.159,5.676,6.935,12.428,7.81,19.757h-83.331c2.481-20.794,20.214-36.974,41.665-36.974c0.763,0,1.519,0.026,2.272,0.066
		l-4.417-4.417c-1.504-1.504-2.23-3.488-2.19-5.458c-24.983,2.074-45.005,21.888-47.393,46.783H140.58V100.892h36.277
		c-4.396-1.35-7.672-5.271-8.08-10H138.58c-4.411,0-8,3.589-8,8v361.471c0,4.411,3.589,8,8,8h58.102h30.435h57.767h30.435h58.103
		c4.411,0,8-3.589,8-8V98.892C381.42,94.481,377.832,90.892,373.42,90.892z M279.883,458.363h-47.767v-17.32h47.767V458.363z
		 M371.42,458.363h-51.103v-13.2c-2.192-1.196-4.187-2.747-5.893-4.569c-0.84-0.897-1.608-1.864-2.298-2.881
		c-0.33-0.486-0.638-0.987-0.93-1.496c-0.255-0.444-0.524-1.337-0.879-1.692v23.837h-20.435v-22.32c0-2.761-2.239-5-5-5h-57.767
		c-2.761,0-5,2.239-5,5v22.32H201.68v-45.151h21.585h20.844c-0.001-0.001-0.002-0.002-0.003-0.002
		c-0.872-0.564-1.735-1.14-2.591-1.726c-0.085-0.058-0.169-0.116-0.252-0.174c-0.796-0.547-1.584-1.103-2.366-1.668
		c-0.08-0.058-0.16-0.116-0.24-0.174c-0.833-0.605-1.658-1.22-2.475-1.846c-0.006-0.005-0.013-0.01-0.02-0.015
		c-4.279-3.28-8.333-6.838-12.138-10.647c-1.487,1.943-2.827,4.022-3.96,6.252h-23.383c-0.077,0-0.147,0.019-0.223,0.022
		c0.221,2.166-0.496,4.41-2.156,6.069l-2.621,2.621v7.993l2.621,2.621c2.929,2.929,2.929,7.678,0,10.606
		c-0.77,0.77-1.667,1.332-2.621,1.697v23.521H140.58V284.627h63.692c0.986,10.283,4.991,19.692,11.1,27.351l1.005,1.005
		c0.233,0.233,0.442,0.482,0.638,0.737c0.031,0.04,0.06,0.082,0.09,0.123c0.186,0.251,0.355,0.509,0.504,0.776l0.001,0.001
		c9.51,10.427,23.197,16.981,38.39,16.981c1.332,0,2.649-0.065,3.956-0.164l11.938-11.938h-2.791
		c-4.125,1.359-8.527,2.101-13.102,2.101c-21.452,0-39.185-16.179-41.665-36.974h83.331c-0.88,7.38-3.689,14.172-7.896,19.873H290
		c3.794,0,6.921,2.819,7.422,6.476c5.666-7.471,9.363-16.513,10.306-26.348h16.982v-0.578c0-4.142,3.358-7.5,7.5-7.5
		s7.5,3.358,7.5,7.5v0.578h31.711L371.42,458.363L371.42,458.363z"/>
</g>
<path style="fill:#1A2B63;" d="M331.773,38.868H297.5v14.344c0,0.225-0.031,0.441-0.066,0.656h31.84v33.53H182.727v-33.53h31.84
	c-0.036-0.215-0.066-0.432-0.066-0.656V38.868h-34.273c-6.893,0-12.5,5.607-12.5,12.5v38.53c0,6.893,5.607,12.5,12.5,12.5h151.547
	c6.893,0,12.5-5.607,12.5-12.5v-38.53C344.273,44.476,338.666,38.868,331.773,38.868z"/>
<path style="fill:#FFFFFF;" d="M174.065,229.5c-12.842,0-23.29-10.448-23.29-23.29s10.448-23.291,23.29-23.291
	s23.291,10.448,23.291,23.291S186.908,229.5,174.065,229.5z M174.065,197.919c-4.571,0-8.29,3.719-8.29,8.291
	c0,4.571,3.719,8.29,8.29,8.29s8.291-3.719,8.291-8.29C182.356,201.638,178.637,197.919,174.065,197.919z"/>
<g>
	<path style="fill:#EA2A3D;" d="M281.685,239.921l6.618-6.618c2.929-2.929,2.929-7.678,0-10.606c-2.928-2.929-7.677-2.929-10.606,0
		l-6.618,6.618l-6.618-6.618c-2.929-2.929-7.678-2.929-10.606,0c-2.929,2.929-2.929,7.678,0,10.606l6.618,6.618l-6.618,6.618
		c-2.929,2.929-2.929,7.678,0,10.606c1.464,1.465,3.384,2.197,5.303,2.197s3.839-0.732,5.303-2.197l6.618-6.618l6.618,6.618
		c1.464,1.464,3.384,2.197,5.303,2.197s3.839-0.732,5.303-2.197c2.929-2.929,2.929-7.678,0-10.606L281.685,239.921z"/>
	<path style="fill:#EA2A3D;" d="M187.686,415.921l6.618-6.618c2.929-2.929,2.929-7.678,0-10.606c-2.929-2.929-7.678-2.929-10.606,0
		l-6.618,6.618l-6.618-6.618c-2.929-2.929-7.678-2.929-10.606,0c-2.929,2.929-2.929,7.678,0,10.606l6.618,6.618l-6.618,6.618
		c-2.929,2.929-2.929,7.678,0,10.606c1.464,1.465,3.384,2.197,5.303,2.197c1.919,0,3.839-0.732,5.303-2.197l6.618-6.618l6.618,6.618
		c1.464,1.464,3.384,2.197,5.303,2.197s3.839-0.732,5.303-2.197c2.929-2.929,2.929-7.678,0-10.606L187.686,415.921z"/>
	<path style="fill:#EA2A3D;" d="M184.672,134.079l6.618-6.618c2.929-2.929,2.929-7.678,0-10.606c-2.928-2.929-7.677-2.929-10.606,0
		l-6.618,6.618l-6.618-6.618c-2.929-2.929-7.678-2.929-10.606,0c-2.929,2.929-2.929,7.678,0,10.606l6.618,6.618l-6.618,6.618
		c-2.929,2.929-2.929,7.678,0,10.606c1.464,1.465,3.384,2.197,5.303,2.197c1.919,0,3.839-0.732,5.303-2.197l6.618-6.618l6.618,6.618
		c1.464,1.464,3.384,2.197,5.303,2.197c1.92,0,3.839-0.732,5.303-2.197c2.929-2.929,2.929-7.678,0-10.606L184.672,134.079z"/>
	<path style="fill:#EA2A3D;" d="M290,304.5h-21.932c-4.142,0-7.5,3.358-7.5,7.5s3.358,7.5,7.5,7.5h3.825l-39.197,39.197
		c-2.929,2.929-2.929,7.678,0,10.606c1.464,1.464,3.384,2.197,5.303,2.197s3.839-0.732,5.303-2.197l39.197-39.197v3.825
		c0,4.142,3.358,7.5,7.5,7.5s7.5-3.358,7.5-7.5V312C297.5,307.858,294.142,304.5,290,304.5z"/>
</g>
<g>
	<path style="fill:#FFFFFF;" d="M339.71,315.165v-0.86c0-4.142-3.358-7.5-7.5-7.5s-7.5,3.358-7.5,7.5v0.86
		c-9.172,3.13-15.791,11.826-15.791,22.044c0,12.842,10.448,23.29,23.291,23.29c12.842,0,23.29-10.448,23.29-23.29
		C355.5,326.991,348.882,318.295,339.71,315.165z M332.21,345.5c-4.571,0-8.291-3.719-8.291-8.29s3.719-8.291,8.291-8.291
		s8.29,3.719,8.29,8.291S336.781,345.5,332.21,345.5z"/>
	<path style="fill:#FFFFFF;" d="M332.21,301.635c-4.142,0-7.5-3.358-7.5-7.5V284.05c0-4.142,3.358-7.5,7.5-7.5s7.5,3.358,7.5,7.5
		v10.085C339.71,298.277,336.352,301.635,332.21,301.635z M332.21,271.38c-4.142,0-7.5-3.358-7.5-7.5v-10.086
		c0-4.142,3.358-7.5,7.5-7.5s7.5,3.358,7.5,7.5v10.086C339.71,268.022,336.352,271.38,332.21,271.38z M332.21,241.125
		c-4.142,0-7.5-3.358-7.5-7.5V223.54c0-4.142,3.358-7.5,7.5-7.5s7.5,3.358,7.5,7.5v10.085
		C339.71,237.767,336.352,241.125,332.21,241.125z M332.21,210.87c-4.142,0-7.5-3.358-7.5-7.5v-10.085c0-4.142,3.358-7.5,7.5-7.5
		s7.5,3.358,7.5,7.5v10.085C339.71,207.512,336.352,210.87,332.21,210.87z"/>
	<path style="fill:#FFFFFF;" d="M355.5,149.324c0-12.842-10.448-23.291-23.29-23.291s-23.291,10.448-23.291,23.291
		c0,10.218,6.618,18.915,15.791,22.044v1.746c0,4.142,3.358,7.5,7.5,7.5s7.5-3.358,7.5-7.5v-1.746
		C348.882,168.238,355.5,159.542,355.5,149.324z M332.21,157.614c-4.571,0-8.291-3.719-8.291-8.291c0-4.571,3.719-8.291,8.291-8.291
		s8.29,3.719,8.29,8.291C340.5,153.895,336.781,157.614,332.21,157.614z"/>
</g>
<path style="fill:#2E4C89;" d="M298.5,53.212c0,2.75-2.25,5-5,5h-75c-2.75,0-5-2.25-5-5v-15c0-2.75,2.25-5,5-5h75c2.75,0,5,2.25,5,5
	V53.212z"/>
<path style="fill:#293D7C;" d="M244,53.212v-15c0-2.75,2.25-5,5-5h-30.5c-2.75,0-5,2.25-5,5v15c0,2.75,2.25,5,5,5H249
	C246.25,58.212,244,55.962,244,53.212z"/>
<path style="fill:#EA2A3D;" d="M281.855,130.697c-2.929-2.929-7.678-2.929-10.607,0l-39.17,39.17v-3.825c0-4.142-3.358-7.5-7.5-7.5
	s-7.5,3.358-7.5,7.5v21.932c0,4.142,3.358,7.5,7.5,7.5h21.932c4.142,0,7.5-3.358,7.5-7.5s-3.358-7.5-7.5-7.5h-3.825l39.17-39.17
	C284.784,138.375,284.784,133.626,281.855,130.697z"/>
<path style="fill:#FFFFFF;" d="M331.429,401.427c-10.372,0-19.178,6.816-22.184,16.203c-54.82-0.351-99.943-42.327-105.279-95.845
	l1.805,1.805c1.464,1.464,3.384,2.197,5.303,2.197c1.919,0,3.839-0.732,5.303-2.197c2.929-2.929,2.929-7.678,0-10.606
	l-15.287-15.287c-2.929-2.929-7.678-2.929-10.606,0l-15.287,15.287c-2.929,2.929-2.929,7.678,0,10.606
	c2.929,2.929,7.678,2.929,10.606,0l2.998-2.998c4.83,62.459,57.096,111.83,120.725,112.041c3.247,8.957,11.839,15.375,21.903,15.375
	c12.842,0,23.291-10.448,23.291-23.291C354.72,411.875,344.272,401.427,331.429,401.427z M331.429,433.008
	c-4.571,0-8.29-3.719-8.29-8.291c0-4.571,3.719-8.29,8.29-8.29s8.29,3.719,8.29,8.29C339.72,429.289,336,433.008,331.429,433.008z"
	/>
<g>
</g>
<g>
</g>
<g>
</g>
<g>
</g>
<g>
</g>
<g>
</g>
<g>
</g>
<g>
</g>
<g>
</g>
<g>
</g>
<g>
</g>
<g>
</g>
<g>
</g>
<g>
</g>
<g>
</g>
</svg>
