<?xml version="1.0" encoding="iso-8859-1"?>
<!-- Generator: Adobe Illustrator 19.0.0, SVG Export Plug-In . SVG Version: 6.00 Build 0)  -->
<svg version="1.1" id="Capa_1" xmlns="http://www.w3.org/2000/svg" xmlns:xlink="http://www.w3.org/1999/xlink" x="0px" y="0px"
	 viewBox="0 0 512 512" style="enable-background:new 0 0 512 512;" xml:space="preserve">
<circle style="fill:#6DC3ED;" cx="256" cy="267" r="245"/>
<path style="fill:#3EB7FF;" d="M11,267c0,135.311,109.689,245,245,245c135.309,0,245-109.689,245-245
	c0-10.501-0.663-20.847-1.945-30.999H12.945C11.663,246.153,11,256.499,11,267z"/>
<path style="fill:#0F9390;" d="M102,308H14.434C24.563,368.109,56.577,420.78,102,457.541V308z"/>
<path style="fill:#02AF8E;" d="M119,326v144.146C158.105,496.57,205.251,512,256,512c114.966,0,211.421-79.193,237.831-186H119z"/>
<path style="fill:#159E97;" d="M165.169,326H119v144.146c14.375,9.714,29.841,17.935,46.169,24.457V326z"/>
<g>
	<path style="fill:#37C47A;" d="M450,364h-10.246c-2.762,0-5-2.238-5-5s2.238-5,5-5H450c2.762,0,5,2.238,5,5S452.762,364,450,364z"
		/>
	<path style="fill:#37C47A;" d="M368.246,364H358c-2.762,0-5-2.238-5-5s2.238-5,5-5h10.246c2.762,0,5,2.238,5,5
		S371.008,364,368.246,364z"/>
	<path style="fill:#37C47A;" d="M286.492,364h-10.246c-2.762,0-5-2.238-5-5s2.238-5,5-5h10.246c2.762,0,5,2.238,5,5
		S289.254,364,286.492,364z"/>
	<path style="fill:#37C47A;" d="M408.754,403h-10.246c-2.762,0-5-2.238-5-5s2.238-5,5-5h10.246c2.762,0,5,2.238,5,5
		S411.516,403,408.754,403z"/>
	<path style="fill:#37C47A;" d="M327,403h-10.246c-2.762,0-5-2.238-5-5s2.238-5,5-5H327c2.762,0,5,2.238,5,5S329.762,403,327,403z"
		/>
	<path style="fill:#37C47A;" d="M245.246,403H235c-2.762,0-5-2.238-5-5s2.238-5,5-5h10.246c2.762,0,5,2.238,5,5
		S248.008,403,245.246,403z"/>
	<path style="fill:#37C47A;" d="M364,444h-10.246c-2.762,0-5-2.238-5-5s2.238-5,5-5H364c2.762,0,5,2.238,5,5S366.762,444,364,444z"
		/>
	<path style="fill:#37C47A;" d="M282.246,444H272c-2.762,0-5-2.238-5-5s2.238-5,5-5h10.246c2.762,0,5,2.238,5,5
		S285.008,444,282.246,444z"/>
	<path style="fill:#37C47A;" d="M313,485h-10.246c-2.762,0-5-2.238-5-5s2.238-5,5-5H313c2.762,0,5,2.238,5,5S315.762,485,313,485z"
		/>
	<path style="fill:#37C47A;" d="M231.246,485H221c-2.762,0-5-2.238-5-5s2.238-5,5-5h10.246c2.762,0,5,2.238,5,5
		S234.008,485,231.246,485z"/>
	<path style="fill:#37C47A;" d="M200.492,444h-10.246c-2.762,0-5-2.238-5-5s2.238-5,5-5h10.246c2.762,0,5,2.238,5,5
		S203.254,444,200.492,444z"/>
</g>
<path style="fill:#EEF6FF;" d="M102,308v149.539c9.446,7.643,19.471,14.598,30,20.79v-47.564
	c47.678-6.534,85.374-44.813,91.019-92.765h267.518c2.95-9.757,5.305-19.77,7.029-30H102z M132,400.375V338h60.733
	C187.538,369.388,163.108,394.364,132,400.375z"/>
<path style="fill:#FE3745;" d="M365.566,88.553L161,9.133v168.87l204.566-79.418c2.069-0.804,3.434-2.796,3.434-5.016
	C369,91.349,367.636,89.356,365.566,88.553z"/>
<path style="fill:#EF8318;" d="M155.49,0c-4.143,0-7.5,3.358-7.5,7.5v348c0,4.143,3.357,7.5,7.5,7.5s7.5-3.357,7.5-7.5V7.5
	C162.99,3.358,159.633,0,155.49,0z"/>
<polygon style="fill:#EA2A3D;" points="215,157.039 287,129.086 287,58.051 215,30.098 "/>
<g>
</g>
<g>
</g>
<g>
</g>
<g>
</g>
<g>
</g>
<g>
</g>
<g>
</g>
<g>
</g>
<g>
</g>
<g>
</g>
<g>
</g>
<g>
</g>
<g>
</g>
<g>
</g>
<g>
</g>
</svg>
