<?xml version="1.0" encoding="iso-8859-1"?>
<!-- Generator: Adobe Illustrator 19.0.0, SVG Export Plug-In . SVG Version: 6.00 Build 0)  -->
<svg version="1.1" id="Capa_1" xmlns="http://www.w3.org/2000/svg" xmlns:xlink="http://www.w3.org/1999/xlink" x="0px" y="0px"
	 viewBox="0 0 512 512" style="enable-background:new 0 0 512 512;" xml:space="preserve">
<circle style="fill:#91E0E8;" cx="256" cy="267" r="245"/>
<polygon style="fill:#80859B;" points="180.977,140.9 222.852,140.9 222.852,62.729 180.977,85.183 "/>
<polygon style="fill:#6E7489;" points="180.977,86.223 180.977,140.9 196,140.9 196,78.168 "/>
<polygon style="fill:#80859B;" points="134.45,140.9 176.324,140.9 176.324,100 134.45,79.481 "/>
<polygon style="fill:#6E7489;" points="134.45,80.721 134.45,140.9 150,140.9 150,88.34 "/>
<polygon style="fill:#80859B;" points="87.922,140.9 129.798,140.9 129.798,77.401 87.922,56.882 "/>
<polygon style="fill:#6E7489;" points="87.922,57.922 87.922,140.9 103,140.9 103,65.311 "/>
<path style="fill:#80859B;" d="M41.394,159.123c0,0.304,0.032,0.6,0.045,0.9c0.466-10.595,9.251-19.124,19.955-19.124h21.875V108
	L41.394,87.481V159.123z"/>
<path style="fill:#6E7489;" d="M41.394,88.595v70.528c0,0.304,0.032,0.6,0.045,0.9c0.4-9.1,6.936-16.662,15.561-18.618V96.242
	L41.394,88.595z"/>
<polygon style="fill:#80859B;" points="293.543,269.9 335.418,269.9 335.418,214.183 293.543,191.729 "/>
<polygon style="fill:#6E7489;" points="293.543,191.729 293.543,269.9 309,269.9 309,200.018 "/>
<polygon style="fill:#80859B;" points="340.07,269.9 381.943,269.9 381.943,208.721 340.07,229.239 "/>
<polygon style="fill:#6E7489;" points="340.07,229.239 340.07,269.9 355.127,269.9 355.127,221.861 "/>
<polygon style="fill:#80859B;" points="386.596,269.9 428.473,269.9 428.473,185.882 386.596,206.401 "/>
<polygon style="fill:#6E7489;" points="386.596,206.401 386.596,269.9 402,269.9 402,198.854 "/>
<path style="fill:#80859B;" d="M433.125,269.9H455c10.78,0,19.617,8.649,19.967,19.348c0.007-0.225,0.033-0.444,0.033-0.67v-71.695
	l-41.875,20.519V269.9z"/>
<polygon style="fill:#6E7489;" points="433.125,237.402 433.125,269.9 449,269.9 449,229.623 "/>
<path style="fill:#80859B;" d="M295,297.063l-20.508-20.508c-11.322-11.32-29.543-11.521-40.618-0.446
	c-11.075,11.075-10.875,29.295,0.446,40.617L295,377.405V297.063z"/>
<path style="fill:#6E7489;" d="M295,347.103l-34.954-34.954c-11.321-11.321-11.521-29.541-0.445-40.617
	c0.847-0.846,1.739-1.619,2.662-2.333c-9.799-2.984-20.78-0.698-28.388,6.911c-11.075,11.075-10.875,29.295,0.446,40.617
	L295,377.405V347.103z"/>
<path style="fill:#999CAD;" d="M311.568,426h130.805c12.74-14.921,23.728-31.383,32.627-49.079v-88.253c0-11-9-20-20-20H293.543
	v124.974c0,10.333,7.943,18.899,18.025,19.899V426z"/>
<path style="fill:#80859B;" d="M324.543,393.641V268.668h-31v124.974c0,10.333,7.943,18.899,18.025,19.899V426h27.098v-13.259
	C330.513,410.215,324.543,402.596,324.543,393.641z"/>
<path style="fill:#EF8318;" d="M314.48,146.495c-11.545,0-20.938,9.601-20.938,21.402v25.327l41.875,22.454v-47.781
	C335.418,156.096,326.025,146.495,314.48,146.495z"/>
<path style="fill:#DB722C;" d="M309,167.897c0-9.01,5.481-16.721,13.209-19.873c-2.395-0.977-4.997-1.53-7.729-1.53
	c-11.545,0-20.938,9.601-20.938,21.402v25.327L309,201.512V167.897z"/>
<path style="fill:#EF8318;" d="M361.008,129.455c-11.545,0-20.938,9.602-20.938,21.403v79.836l41.873-20.518v-59.318
	C381.943,139.056,372.551,129.455,361.008,129.455z"/>
<path style="fill:#DB722C;" d="M355.127,150.857c0-9.086,5.577-16.848,13.408-19.948c-2.34-0.926-4.871-1.455-7.527-1.455
	c-11.545,0-20.938,9.602-20.938,21.403v79.836l15.057-7.378V150.857z"/>
<path style="fill:#2E4C89;" d="M293.543,300.351v70.086h46.189c1.252-23.483,20.748-42.204,44.537-42.204
	c23.79,0,43.287,18.721,44.539,42.204H475v-70.086H293.543z"/>
<rect x="293.54" y="300.35" style="fill:#293D7C;" width="31" height="70.09"/>
<path style="fill:#EF8318;" d="M429.875,426v-53.163c0-25.186-20.418-45.604-45.605-45.604c-25.185,0-45.604,20.418-45.604,45.604
	V426H429.875z"/>
<path style="fill:#DB722C;" d="M353.791,426v-53.163c0-22.609,16.456-41.364,38.041-44.969c-2.461-0.411-4.984-0.636-7.563-0.636
	c-25.185,0-45.604,20.418-45.604,45.604V426H353.791z"/>
<g>
	<path style="fill:#2E4C89;" d="M353.818,376.958c0,2.75,2.25,5,5,5h50.906c2.75,0,5-2.25,5-5v-14.002c0-2.75-2.25-5-5-5h-50.906
		c-2.75,0-5,2.25-5,5V376.958z"/>
	<path style="fill:#2E4C89;" d="M353.818,410.561c0,2.75,2.25,5,5,5h50.906c2.75,0,5-2.25,5-5v-14.002c0-2.75-2.25-5-5-5h-50.906
		c-2.75,0-5,2.25-5,5V410.561z"/>
</g>
<path style="fill:#EF8318;" d="M407.535,146.495c-11.547,0-20.939,9.601-20.939,21.403v39.998l41.877-20.519v-19.479
	C428.473,156.096,419.08,146.495,407.535,146.495z"/>
<path style="fill:#DB722C;" d="M402,167.898c0-9.021,5.495-16.738,13.236-19.883c-2.387-0.97-4.98-1.52-7.701-1.52
	c-11.547,0-20.939,9.601-20.939,21.403v39.998L402,200.348V167.898z"/>
<path style="fill:#EF8318;" d="M454.063,177.167c-11.545,0-20.938,9.602-20.938,21.403v39.999L475,218.049v-19.48
	C475,186.768,465.607,177.167,454.063,177.167z"/>
<path style="fill:#DB722C;" d="M449,198.569c0-8.929,5.382-16.591,13-19.795c-2.45-1.03-5.128-1.608-7.938-1.608
	c-11.545,0-20.938,9.602-20.938,21.403v39.999L449,230.79V198.569z"/>
<path style="fill:#2E4C89;" d="M407.221,424.202c2.75,0,5,2.25,5,5v25.193c-16.933,14.274-35.819,26.299-56.213,35.605h1.584
	c33.502-15.287,62.951-37.904,86.313-65.798H407.221z"/>
<path style="fill:#80859B;" d="M408.805,424.202H305.584c-2.75,0-5,2.25-5,5V485c0,2.75,2.25,5,5,5h52.008
	c20.394-9.306,39.28-21.331,56.213-35.605v-25.193C413.805,426.452,411.555,424.202,408.805,424.202z"/>
<g>
	<path style="fill:#999CAD;" d="M378.258,437h-77.674v15h77.674c4.143,0,7.5-3.358,7.5-7.5S382.4,437,378.258,437z"/>
	<path style="fill:#999CAD;" d="M378.258,457h-77.674v15h77.674c4.143,0,7.5-3.358,7.5-7.5S382.4,457,378.258,457z"/>
</g>
<path style="fill:#80859B;" d="M282.519,146.654c-11.075-11.075-29.296-10.875-40.617,0.446l-20.445,20.445v80.342l60.616-60.617
	C293.394,175.95,293.595,157.73,282.519,146.654z"/>
<path style="fill:#6E7489;" d="M282.519,146.654c-11.075-11.075-29.296-10.875-40.617,0.446l-20.445,20.445v30.715l35.748-35.748
	c8.568-8.568,21.087-10.76,31.471-6.521C287.313,152.583,285.264,149.399,282.519,146.654z"/>
<path style="fill:#999CAD;" d="M61.394,139.213c-11,0-20,9-20,20v104.974c0,10.334,7.944,18.9,18.026,19.899V296h145.405v-11.914
	c10.082-1,18.025-9.566,18.025-19.899V139.213H61.394z"/>
<path style="fill:#80859B;" d="M72,264.187V159.213c0-11,9-20,20-20H61.394c-11,0-20,9-20,20v104.974
	c0,10.334,7.944,18.9,18.026,19.899V296h27.098v-12.593C78.163,281.009,72,273.287,72,264.187z"/>
<g>
	<path style="fill:#EF8318;" d="M201.914,17.04c11.545,0,20.938,9.601,20.938,21.402v25.327l-41.875,22.454V38.442
		C180.977,26.641,190.369,17.04,201.914,17.04z"/>
	<path style="fill:#EF8318;" d="M155.387,0c11.545,0,20.938,9.602,20.938,21.403v79.837L134.45,80.721V21.403
		C134.45,9.602,143.843,0,155.387,0z"/>
</g>
<path style="fill:#DB722C;" d="M150,21.403c0-8.992,5.459-16.692,13.162-19.856C160.755,0.559,158.135,0,155.387,0
	c-11.544,0-20.936,9.602-20.936,21.403v59.318L150,88.34V21.403z"/>
<path style="fill:#2E4C89;" d="M41.394,170.896v70.086h46.191c1.252-23.483,20.749-42.204,44.539-42.204
	c23.789,0,43.285,18.721,44.537,42.204h46.191v-70.086H41.394z"/>
<rect x="41.39" y="170.9" style="fill:#293D7C;" width="30.606" height="70.09"/>
<path style="fill:#EF8318;" d="M177.727,296v-52.617c0-25.187-20.417-45.605-45.603-45.605s-45.605,20.418-45.605,45.605V296
	H177.727z"/>
<path style="fill:#DB722C;" d="M138.231,198.201c-1.999-0.271-4.035-0.422-6.107-0.422c-25.187,0-45.605,20.418-45.605,45.605V296
	h12.24v-52.617C98.758,220.277,115.947,201.198,138.231,198.201z"/>
<g>
	<path style="fill:#2E4C89;" d="M162.576,247.503c0,2.75-2.25,5-5,5H106.67c-2.75,0-5-2.25-5-5v-14.002c0-2.75,2.25-5,5-5h50.906
		c2.75,0,5,2.25,5,5L162.576,247.503L162.576,247.503z"/>
	<path style="fill:#2E4C89;" d="M162.576,281.106c0,2.75-2.25,5-5,5H106.67c-2.75,0-5-2.25-5-5v-14.002c0-2.75,2.25-5,5-5h50.906
		c2.75,0,5,2.25,5,5L162.576,281.106L162.576,281.106z"/>
</g>
<path style="fill:#EF8318;" d="M108.859,17.04c11.546,0,20.938,9.601,20.938,21.403v39.999l-41.875-20.52v-19.48
	C87.922,26.641,97.314,17.04,108.859,17.04z"/>
<path style="fill:#DB722C;" d="M103,38.443c0-9.083,5.573-16.842,13.399-19.944c-2.343-0.929-4.879-1.458-7.539-1.458
	c-11.545,0-20.938,9.601-20.938,21.403v19.48L103,65.311V38.443z"/>
<path style="fill:#EF8318;" d="M62.332,47.712c11.545,0,20.937,9.602,20.937,21.403v39.999L41.394,88.595v-19.48
	C41.394,57.314,50.787,47.712,62.332,47.712z"/>
<path style="fill:#DB722C;" d="M57,69.115c0-8.981,5.446-16.675,13.135-19.845c-2.414-0.996-5.044-1.558-7.803-1.558
	c-11.545,0-20.938,9.602-20.938,21.403v19.48L57,96.242V69.115z"/>
<path style="fill:#2E4C89;" d="M103.779,355.545v-55.798c0-2.75,2.25-5,5-5H52.832c-2.75,0-5,2.25-5,5v55.798c0,2.75,2.25,5,5,5
	h55.947C106.029,360.545,103.779,358.295,103.779,355.545z"/>
<path style="fill:#293D7C;" d="M73.58,355.545v-55.798c0-2.75,2.25-5,5-5H52.832c-2.75,0-5,2.25-5,5v55.798c0,2.75,2.25,5,5,5H78.58
	C75.83,360.545,73.58,358.295,73.58,355.545z"/>
<path style="fill:#80859B;" d="M102.589,355.545c0,2.75,2.25,5,5,5H210.81c2.75,0,5-2.25,5-5v-55.798c0-2.75-2.25-5-5-5H107.589
	c-2.75,0-5,2.25-5,5V355.545z"/>
<g>
	<path style="fill:#999CAD;" d="M138.137,307.545h77.673v15h-77.673c-4.143,0-7.5-3.358-7.5-7.5S133.994,307.545,138.137,307.545z"
		/>
	<path style="fill:#999CAD;" d="M138.137,332h77.673v15h-77.673c-4.143,0-7.5-3.358-7.5-7.5S133.994,332,138.137,332z"/>
</g>
<path style="fill:#DB722C;" d="M196,38.442c0-9.093,5.585-16.859,13.426-19.954c-2.336-0.922-4.862-1.448-7.512-1.448
	c-11.545,0-20.938,9.601-20.938,21.402v47.781L196,78.168V38.442z"/>
<g>
</g>
<g>
</g>
<g>
</g>
<g>
</g>
<g>
</g>
<g>
</g>
<g>
</g>
<g>
</g>
<g>
</g>
<g>
</g>
<g>
</g>
<g>
</g>
<g>
</g>
<g>
</g>
<g>
</g>
</svg>
