<?xml version="1.0" encoding="iso-8859-1"?>
<!-- Generator: Adobe Illustrator 19.0.0, SVG Export Plug-In . SVG Version: 6.00 Build 0)  -->
<svg version="1.1" id="Capa_1" xmlns="http://www.w3.org/2000/svg" xmlns:xlink="http://www.w3.org/1999/xlink" x="0px" y="0px"
	 viewBox="0 0 512 512" style="enable-background:new 0 0 512 512;" xml:space="preserve">
<circle style="fill:#FFD00D;" cx="256" cy="256" r="245"/>
<g>
	<rect x="94.07" y="325.95" style="fill:#2E4C89;" width="53.58" height="56.05"/>
	<rect x="364.35" y="325.95" style="fill:#2E4C89;" width="53.58" height="56.05"/>
</g>
<g>
	<rect x="94.07" y="325.95" style="fill:#293D7C;" width="15.07" height="56.05"/>
	<rect x="364.35" y="325.95" style="fill:#293D7C;" width="15.07" height="56.05"/>
</g>
<path style="fill:#1A2B63;" d="M41.716,299.047V322c0,2.75,2.25,5,5,5h418.567c2.75,0,5-2.25,5-5v-22.953H41.716z"/>
<path style="fill:#02AF8E;" d="M436.284,409v-23c0-2.75-2.25-5-5-5H80.716c-2.75,0-5,2.25-5,5v23H436.284z"/>
<path style="fill:#159E97;" d="M106.433,409v-23c0-2.75,2.25-5,5-5H80.716c-2.75,0-5,2.25-5,5v23H106.433z"/>
<path style="fill:#1A2B63;" d="M63.851,408c44.875,56.652,114.264,93,192.149,93c77.884,0,147.273-36.348,192.148-93H63.851z"/>
<path style="fill:#293D7C;" d="M512,295.075c0,2.75-2.25,5-5,5H5c-2.75,0-5-2.25-5-5V55.028c0-2.75,2.25-5,5-5h502
	c2.75,0,5,2.25,5,5V295.075z"/>
<path style="fill:#445EA0;" d="M20,285.075c-2.75,0-5-2.25-5-5V70.028c0-2.75,2.25-5,5-5h472c2.75,0,5,2.25,5,5v210.047
	c0,2.75-2.25,5-5,5H20z"/>
<path style="fill:#2E4C89;" d="M20,285.075h25V65.028H20c-2.75,0-5,2.25-5,5v210.047C15,282.825,17.25,285.075,20,285.075z"/>
<path style="fill:#1A2B63;" d="M216,85.028c0-2.75-2.25-5-5-5H35c-2.75,0-5,2.25-5,5v180.047c0,2.75,2.25,5,5,5h176
	c2.75,0,5-2.25,5-5V85.028z"/>
<path style="fill:#AEC1ED;" d="M191,100.028H55c-2.75,0-5,2.25-5,5v62.523h62.259v-4.988v-0.025H134v-27.487h-20v10.779H89v-17.89
	c0-10.199,9.673-17.89,22.5-17.89h25c12.407,0,22.5,10.093,22.5,22.5v32.512c0,0.841-0.051,1.67-0.142,2.488H196v-62.523
	C196,102.278,193.75,100.028,191,100.028z"/>
<g>
	<path style="fill:#85A0DD;" d="M158.858,182.552c0.091,0.817,0.142,1.646,0.142,2.487v32.513c0,12.407-10.093,22.5-22.5,22.5h-25
		c-12.827,0-22.5-7.691-22.5-17.89v-17.89h25v10.78h20v-27.488h-21.741v-0.025v-4.987H50v62.523c0,2.75,2.25,5,5,5h136
		c2.75,0,5-2.25,5-5v-62.523H158.858z"/>
	<path style="fill:#85A0DD;" d="M76,100.028H55c-2.75,0-5,2.25-5,5v62.523h21v-62.523C71,102.278,73.25,100.028,76,100.028z"/>
</g>
<path style="fill:#445EA0;" d="M71,245.075v-62.523H50v62.523c0,2.75,2.25,5,5,5h21C73.25,250.075,71,247.825,71,245.075z"/>
<path style="fill:#1A2B63;" d="M301,80.028c-2.75,0-5,2.25-5,5v180.047c0,2.75,2.25,5,5,5h176c2.75,0,5-2.25,5-5V85.028
	c0-2.75-2.25-5-5-5H301z"/>
<path style="fill:#85A0DD;" d="M423,182.552v35c0,12.407-10.093,22.5-22.5,22.5h-25c-12.407,0-22.5-10.093-22.5-22.5v-35h-37v62.523
	c0,2.75,2.25,5,5,5h136c2.75,0,5-2.25,5-5v-62.523H423z"/>
<g>
	<rect x="378" y="135.05" style="fill:#AEC1ED;" width="20" height="32.5"/>
	<path style="fill:#AEC1ED;" d="M457,100.028H321c-2.75,0-5,2.25-5,5v62.523h37v-35c0-12.407,10.093-22.5,22.5-22.5h25
		c12.407,0,22.5,10.093,22.5,22.5v35h39v-62.523C462,102.278,459.75,100.028,457,100.028z"/>
</g>
<path style="fill:#85A0DD;" d="M342,100.028h-21c-2.75,0-5,2.25-5,5v62.523h21v-62.523C337,102.278,339.25,100.028,342,100.028z"/>
<path style="fill:#445EA0;" d="M337,245.075v-62.523h-21v62.523c0,2.75,2.25,5,5,5h21C339.25,250.075,337,247.825,337,245.075z"/>
<g>
	<path style="fill:#AEC1ED;" d="M272.5,149.552c0,2.75-2.25,5-5,5h-23c-2.75,0-5-2.25-5-5v-23c0-2.75,2.25-5,5-5h23
		c2.75,0,5,2.25,5,5V149.552z"/>
	<path style="fill:#AEC1ED;" d="M272.5,223.552c0,2.75-2.25,5-5,5h-23c-2.75,0-5-2.25-5-5v-23c0-2.75,2.25-5,5-5h23
		c2.75,0,5,2.25,5,5V223.552z"/>
</g>
<g>
	<rect x="378" y="182.55" style="fill:#85A0DD;" width="20" height="32.5"/>
	<path style="fill:#85A0DD;" d="M298,466h-84c-4.142,0-7.5-3.358-7.5-7.5s3.358-7.5,7.5-7.5h84c4.142,0,7.5,3.358,7.5,7.5
		S302.142,466,298,466z"/>
</g>
<path style="fill:#445EA0;" d="M231,458.5c0-4.142,3.358-7.5,7.5-7.5H214c-4.142,0-7.5,3.358-7.5,7.5s3.358,7.5,7.5,7.5h24.5
	C234.358,466,231,462.642,231,458.5z"/>
<path style="fill:#FFFFFF;" d="M169.5,408v3.001c0,12.15,9.85,22,22,22h129c12.15,0,22-9.85,22-22V408H169.5z"/>
<path style="fill:#D9EAFC;" d="M200,411.001V408h-30.5v3.001c0,12.15,9.85,22,22,22H222C209.85,433.001,200,423.151,200,411.001z"/>
<g>
</g>
<g>
</g>
<g>
</g>
<g>
</g>
<g>
</g>
<g>
</g>
<g>
</g>
<g>
</g>
<g>
</g>
<g>
</g>
<g>
</g>
<g>
</g>
<g>
</g>
<g>
</g>
<g>
</g>
</svg>
