<?xml version="1.0" encoding="iso-8859-1"?>
<!-- Generator: Adobe Illustrator 19.0.0, SVG Export Plug-In . SVG Version: 6.00 Build 0)  -->
<svg version="1.1" id="Capa_1" xmlns="http://www.w3.org/2000/svg" xmlns:xlink="http://www.w3.org/1999/xlink" x="0px" y="0px"
	 viewBox="0 0 512 512" style="enable-background:new 0 0 512 512;" xml:space="preserve">
<circle style="fill:#69CDFF;" cx="256" cy="256" r="245"/>
<path style="fill:#2DA1DC;" d="M450.813,82.857H61.188c-2.75,0-5,2.25-5,5V357.5h399.625V87.857
	C455.813,85.107,453.563,82.857,450.813,82.857z"/>
<g>
	<polygon style="fill:#1E8BC2;" points="64.151,82.857 79.294,98 432.706,98 447.849,82.857 	"/>
	<polygon style="fill:#1E8BC2;" points="56.188,96.106 56.188,358.5 71.375,358.5 71.375,111.294 	"/>
</g>
<rect x="96.19" y="122.86" style="fill:#69CDFF;" width="319.62" height="235.78"/>
<polygon style="fill:#52BBEF;" points="415.813,142.241 415.813,122.857 96.188,122.857 96.188,358.643 115.616,358.643 
	115.616,142.241 "/>
<path style="fill:#02AF8E;" d="M39.642,371C80.835,448.34,162.258,501,256,501c93.741,0,175.164-52.66,216.357-130H39.642z"/>
<rect x="165.16" y="407.63" style="fill:#159E97;" width="30.84" height="28.874"/>
<g>
	<path style="fill:#37C47A;" d="M220.246,475H210c-2.762,0-5-2.239-5-5s2.238-5,5-5h10.246c2.762,0,5,2.239,5,5
		S223.008,475,220.246,475z"/>
	<path style="fill:#37C47A;" d="M300.246,476H290c-2.762,0-5-2.239-5-5s2.238-5,5-5h10.246c2.762,0,5,2.239,5,5
		S303.008,476,300.246,476z"/>
	<path style="fill:#37C47A;" d="M423.246,395H413c-2.762,0-5-2.239-5-5s2.238-5,5-5h10.246c2.762,0,5,2.239,5,5
		S426.008,395,423.246,395z"/>
	<path style="fill:#37C47A;" d="M188,394h-10.246c-2.762,0-5-2.239-5-5s2.238-5,5-5H188c2.762,0,5,2.239,5,5S190.762,394,188,394z"
		/>
	<path style="fill:#37C47A;" d="M313,426h-10.246c-2.762,0-5-2.239-5-5s2.238-5,5-5H313c2.762,0,5,2.239,5,5S315.762,426,313,426z"
		/>
	<path style="fill:#37C47A;" d="M90.246,396H80c-2.762,0-5-2.239-5-5s2.238-5,5-5h10.246c2.762,0,5,2.239,5,5S93.008,396,90.246,396
		z"/>
</g>
<path style="fill:#EEF6FF;" d="M349.34,451.5H162.66c-6.893,0-12.5-5.607-12.5-12.5v-33.874c0-6.893,5.607-12.5,12.5-12.5h186.68
	c6.893,0,12.5,5.607,12.5,12.5V439C361.84,445.893,356.233,451.5,349.34,451.5z M165.16,436.5h181.68v-28.874H165.16V436.5z"/>
<path style="fill:#2E4C89;" d="M423.313,128.606l33.5-33.5v-7.249c0-3.309-2.691-6-6-6h-1.964l-33.5,33.5H96.651l-33.5-33.5h-1.964
	c-3.309,0-6,2.691-6,6v7.249l33.5,33.5V358.5h334.625L423.313,128.606L423.313,128.606z M134.125,357.5h-30.438v-25.288h30.438
	V357.5z M134.125,317.212h-30.438v-25.178h30.438V317.212z M134.125,277.034h-30.438v-25.178h30.438V277.034z M134.125,236.856
	h-30.438v-25.178h30.438V236.856z M134.125,196.678h-30.438V171.5h30.438V196.678z M134.125,156.5h-30.438v-26.143h30.438V156.5z
	 M179.875,357.5h-30.75v-25.288h30.75V357.5z M179.875,317.212h-30.75v-25.178h30.75V317.212z M179.875,277.034h-30.75v-25.178
	h30.75V277.034z M179.875,236.856h-30.75v-25.178h30.75V236.856z M179.875,196.678h-30.75V171.5h30.75V196.678z M179.875,156.5
	h-30.75v-26.143h30.75V156.5z M225.625,357.5h-30.75v-25.288h30.75V357.5z M225.625,317.212h-30.75v-25.178h30.75V317.212z
	 M225.625,277.034h-30.75v-25.178h30.75V277.034z M225.625,236.856h-30.75v-25.178h30.75V236.856z M225.625,196.678h-30.75V171.5
	h30.75V196.678z M225.625,156.5h-30.75v-26.143h30.75V156.5z M271.375,357.5h-30.75v-25.288h30.75V357.5z M271.375,317.212h-30.75
	v-25.178h30.75V317.212z M271.375,277.034h-30.75v-25.178h30.75V277.034z M271.375,236.856h-30.75v-25.178h30.75V236.856z
	 M271.375,196.678h-30.75V171.5h30.75V196.678z M271.375,156.5h-30.75v-26.143h30.75V156.5z M317.125,357.5h-30.75v-25.288h30.75
	V357.5z M317.125,317.212h-30.75v-25.178h30.75V317.212z M317.125,277.034h-30.75v-25.178h30.75V277.034z M317.125,236.856h-30.75
	v-25.178h30.75V236.856z M317.125,196.678h-30.75V171.5h30.75V196.678z M317.125,156.5h-30.75v-26.143h30.75V156.5z M362.875,357.5
	h-30.75v-25.288h30.75V357.5z M362.875,317.212h-30.75v-25.178h30.75V317.212z M362.875,277.034h-30.75v-25.178h30.75V277.034z
	 M362.875,236.856h-30.75v-25.178h30.75V236.856z M362.875,196.678h-30.75V171.5h30.75V196.678z M362.875,156.5h-30.75v-26.143
	h30.75V156.5z M408.313,357.5h-30.438v-25.288h30.438V357.5z M408.313,317.212h-30.438v-25.178h30.438V317.212z M408.313,277.034
	h-30.438v-25.178h30.438V277.034z M408.313,236.856h-30.438v-25.178h30.438V236.856z M408.313,196.678h-30.438V171.5h30.438V196.678
	z M408.313,156.5h-30.438v-26.143h30.438V156.5z"/>
<path style="fill:#1A2B63;" d="M504.5,357.5h-28.688V67.857c0-2.75-2.25-5-5-5H41.188c-2.75,0-5,2.25-5,5V357.5H7.5
	c-4.142,0-7.5,3.358-7.5,7.5s3.358,7.5,7.5,7.5h497c4.142,0,7.5-3.358,7.5-7.5S508.642,357.5,504.5,357.5z M56.188,87.857
	c0-2.75,2.25-5,5-5h389.625c2.75,0,5,2.25,5,5V357.5H56.188V87.857z"/>
<g>
</g>
<g>
</g>
<g>
</g>
<g>
</g>
<g>
</g>
<g>
</g>
<g>
</g>
<g>
</g>
<g>
</g>
<g>
</g>
<g>
</g>
<g>
</g>
<g>
</g>
<g>
</g>
<g>
</g>
</svg>
