<?xml version="1.0" encoding="iso-8859-1"?>
<!-- Generator: Adobe Illustrator 19.0.0, SVG Export Plug-In . SVG Version: 6.00 Build 0)  -->
<svg version="1.1" id="Capa_1" xmlns="http://www.w3.org/2000/svg" xmlns:xlink="http://www.w3.org/1999/xlink" x="0px" y="0px"
	 viewBox="0 0 512 512" style="enable-background:new 0 0 512 512;" xml:space="preserve">
<circle style="fill:#0F9390;" cx="256" cy="267" r="245"/>
<path style="fill:#EA2A3D;" d="M470.465,1.464c0.817-0.817,1.873-1.285,2.974-1.41C473.258,0.035,473.081,0,472.895,0H39.105
	c-0.187,0-0.363,0.035-0.544,0.055c1.101,0.125,2.156,0.592,2.974,1.41L116.07,76h279.86L470.465,1.464z"/>
<polygon style="fill:#FFD00D;" points="440.43,31.5 71.57,31.5 86.57,46.5 425.43,46.5 "/>
<path style="fill:#B7092B;" d="M474.808,0.38C474.19,0.124,473.54,0,472.896,0c-1.301,0-2.58,0.508-3.536,1.464L286,184.824v57.913
	c12.43,3.157,24.104,8.226,34.692,14.874L476.43,101.873c0.939-0.938,1.465-2.209,1.465-3.536V5
	C477.895,2.977,476.677,1.154,474.808,0.38z"/>
<path style="fill:#FFD00D;" d="M286,230.394v12.365c2.324,0.589,4.629,1.229,6.898,1.95L477.895,59.712V38.499L286,230.394z"/>
<path style="fill:#B7092B;" d="M226,184.824L42.641,1.464C41.685,0.508,40.405,0,39.104,0c-0.645,0-1.294,0.124-1.912,0.38
	C35.323,1.154,34.105,2.977,34.105,5v93.338c0,1.326,0.526,2.598,1.465,3.536l155.737,155.738
	c10.588-6.648,22.263-11.718,34.692-14.874L226,184.824L226,184.824z"/>
<path style="fill:#A00026;" d="M58,16.824L42.641,1.464C41.685,0.508,40.405,0,39.104,0c-0.645,0-1.294,0.124-1.912,0.38
	C35.323,1.154,34.105,2.977,34.105,5v93.338c0,1.326,0.526,2.598,1.465,3.536L58,124.303V16.824z"/>
<path style="fill:#EF8318;" d="M256,239c10.709,0,21.098,1.392,31,3.996V180c0-2.75-2.25-5-5-5h-52c-2.75,0-5,2.25-5,5v62.996
	C234.902,240.392,245.291,239,256,239z"/>
<path style="fill:#FFD00D;" d="M226,231.604L34.105,39.709v21.214l184.082,184.083c2.567-0.839,5.175-1.587,7.813-2.256V231.604z"/>
<path style="fill:#DB722C;" d="M248,239.269V180c0-2.75,2.25-5,5-5h-23c-2.75,0-5,2.25-5,5v62.996
	C232.417,241.046,240.107,239.783,248,239.269z"/>
<path style="fill:#FFAF10;" d="M256,484c-67.822,0-123-55.178-123-123s55.178-123,123-123s123,55.178,123,123S323.822,484,256,484z"
	/>
<path style="fill:#EF9614;" d="M148,361c0-65.303,51.157-118.874,115.5-122.765c-2.482-0.15-4.98-0.235-7.5-0.235
	c-67.822,0-123,55.178-123,123s55.178,123,123,123c2.52,0,5.018-0.085,7.5-0.235C199.157,479.875,148,426.303,148,361z"/>
<circle style="fill:#FFD00D;" cx="256" cy="361" r="100.34"/>
<circle style="fill:#EF8318;" cx="256" cy="361" r="85.24"/>
<path style="fill:#DB722C;" d="M186,361c0-44.506,34.115-81.024,77.618-84.88c-2.512-0.223-5.049-0.357-7.618-0.357
	c-47.075,0-85.236,38.162-85.236,85.237s38.161,85.237,85.236,85.237c2.569,0,5.106-0.134,7.618-0.357
	C220.115,442.024,186,405.505,186,361z"/>
<path style="fill:#FFD00D;" d="M287.172,416.415c-1.48,0-2.993-0.402-4.498-1.193l-24.384-12.818c-0.368-0.194-1.188-0.42-2.29-0.42
	c-1.101,0-1.922,0.226-2.291,0.42l-24.381,12.818c-1.505,0.792-3.02,1.193-4.499,1.193c-2.247,0-4.257-0.917-5.658-2.58
	c-1.556-1.844-2.145-4.401-1.666-7.204l4.657-27.148c0.204-1.192-0.551-3.513-1.415-4.357l-19.726-19.228
	c-2.569-2.504-3.499-5.607-2.555-8.513c0.945-2.908,3.523-4.87,7.071-5.385l27.259-3.961c1.196-0.173,3.17-1.608,3.706-2.693
	l12.191-24.701c1.587-3.215,4.25-5.06,7.307-5.06c3.058,0,5.72,1.844,7.307,5.06l12.191,24.701c0.535,1.086,2.509,2.52,3.706,2.693
	l27.26,3.961c3.547,0.515,6.124,2.478,7.068,5.384c0.946,2.907,0.016,6.01-2.552,8.513l-19.727,19.229
	c-0.865,0.844-1.62,3.165-1.416,4.357l4.657,27.148c0.48,2.802-0.11,5.36-1.664,7.204
	C291.428,415.498,289.418,416.415,287.172,416.415z"/>
<path style="fill:#FFAF10;" d="M238.276,408.25c-1.556-1.844-2.145-4.401-1.666-7.204l4.657-27.148
	c0.204-1.192-0.551-3.513-1.415-4.357l-19.725-19.227c-2.569-2.504-3.499-5.607-2.555-8.513c0.195-0.601,0.477-1.15,0.805-1.666
	L205.538,342c-3.549,0.515-6.126,2.478-7.071,5.385c-0.944,2.906-0.015,6.009,2.555,8.513l19.726,19.228
	c0.864,0.844,1.619,3.165,1.415,4.357l-4.657,27.148c-0.479,2.802,0.11,5.36,1.666,7.204c1.401,1.663,3.411,2.58,5.658,2.58
	c1.479,0,2.994-0.402,4.499-1.193l10.567-5.556C239.298,409.281,238.75,408.813,238.276,408.25z"/>
<path style="fill:#FFFFFF;" d="M334.5,486c-1.468,0-2.772-0.936-3.243-2.327c-6.563-19.452-11.479-24.366-30.93-30.931
	c-1.389-0.47-2.327-1.774-2.327-3.243s0.939-2.773,2.327-3.243c19.451-6.564,24.366-11.478,30.93-30.93
	c0.471-1.391,1.775-2.327,3.243-2.327s2.772,0.936,3.243,2.327c6.563,19.452,11.479,24.366,30.932,30.93
	c1.389,0.47,2.325,1.774,2.325,3.243s-0.936,2.772-2.325,3.243c-19.453,6.564-24.368,11.478-30.932,30.931
	C337.272,485.064,335.968,486,334.5,486z"/>
<g>
	<path style="fill:#FFD00D;" d="M391.016,410.031c-1.087,0-2.053-0.693-2.399-1.722c-4.86-14.397-8.497-18.034-22.894-22.893
		c-1.029-0.349-1.723-1.314-1.723-2.401s0.693-2.053,1.723-2.399c14.396-4.86,18.033-8.497,22.894-22.895
		c0.347-1.029,1.313-1.722,2.399-1.722c1.087,0,2.053,0.693,2.399,1.722c4.86,14.397,8.497,18.034,22.894,22.895
		c1.029,0.347,1.723,1.313,1.723,2.399c0,1.087-0.693,2.053-1.723,2.401c-14.396,4.858-18.033,8.495-22.894,22.893
		C393.068,409.338,392.103,410.031,391.016,410.031z"/>
	<path style="fill:#FFD00D;" d="M92.809,358.383c-0.893,0-1.686-0.569-1.971-1.414c-3.992-11.827-6.98-14.814-18.806-18.805
		c-0.845-0.287-1.415-1.08-1.415-1.973s0.57-1.686,1.415-1.971c11.825-3.993,14.813-6.98,18.806-18.807
		c0.285-0.845,1.078-1.414,1.971-1.414s1.686,0.569,1.971,1.414c3.992,11.827,6.981,14.814,18.806,18.807
		c0.845,0.285,1.415,1.078,1.415,1.971s-0.57,1.686-1.415,1.973c-11.825,3.991-14.813,6.978-18.806,18.805
		C94.494,357.814,93.701,358.383,92.809,358.383z"/>
</g>
<path style="fill:#FFFFFF;" d="M168.5,316c-1.348,0-2.545-0.859-2.977-2.136c-6.024-17.853-10.535-22.363-28.388-28.388
	c-1.274-0.432-2.136-1.629-2.136-2.977s0.861-2.545,2.136-2.976c17.853-6.025,22.363-10.536,28.388-28.389
	c0.432-1.276,1.629-2.136,2.977-2.136c1.347,0,2.545,0.859,2.977,2.136c6.024,17.853,10.535,22.363,28.389,28.389
	c1.275,0.431,2.135,1.628,2.135,2.976s-0.859,2.545-2.135,2.977c-17.854,6.024-22.364,10.535-28.389,28.388
	C171.045,315.141,169.847,316,168.5,316z"/>
<g>
</g>
<g>
</g>
<g>
</g>
<g>
</g>
<g>
</g>
<g>
</g>
<g>
</g>
<g>
</g>
<g>
</g>
<g>
</g>
<g>
</g>
<g>
</g>
<g>
</g>
<g>
</g>
<g>
</g>
</svg>
