<?xml version="1.0" encoding="iso-8859-1"?>
<!-- Generator: Adobe Illustrator 19.0.0, SVG Export Plug-In . SVG Version: 6.00 Build 0)  -->
<svg version="1.1" id="Capa_1" xmlns="http://www.w3.org/2000/svg" xmlns:xlink="http://www.w3.org/1999/xlink" x="0px" y="0px"
	 viewBox="0 0 512.002 512.002" style="enable-background:new 0 0 512.002 512.002;" xml:space="preserve">
<circle style="fill:#69CDFF;" cx="256" cy="256.001" r="245"/>
<path style="fill:#02AF8E;" d="M482.926,333.461l-5.105,15.562c-0.865,2.64-3.846,4.801-6.626,4.801h-14.241
	c-2.778,0-5.76-2.161-6.626-4.801l-5.103-15.562h-34.87l-5.101,15.562c-0.867,2.64-3.849,4.801-6.629,4.801h-14.24
	c-2.78,0-5.762-2.161-6.628-4.801l-5.102-15.562h-34.869l-5.103,15.562c-0.865,2.64-3.849,4.801-6.626,4.801h-14.243
	c-2.778,0-5.758-2.161-6.627-4.801l-5.103-15.562h-137.16l-5.102,15.562c-0.867,2.64-3.848,4.801-6.627,4.801h-14.241
	c-2.78,0-5.761-2.161-6.627-4.801l-5.104-15.562H98.777l-5.104,15.562c-0.866,2.64-3.848,4.801-6.627,4.801H72.805
	c-2.777,0-5.76-2.161-6.626-4.801l-5.103-15.562H45.474c-9.264,0-16.842-7.579-16.842-16.843v-12.7
	c-6.197-5.003-11.705-12.37-16.197-21.475C25.623,405.316,129.626,501.001,256,501.001c108.235,0,200.058-70.194,232.473-167.54
	L482.926,333.461L482.926,333.461z"/>
<path style="fill:#1A2B63;" d="M244.603,156.079l4.477-6.227c4.479-6.229,12.961-9.242,20.483-7.808l-34.167-16.518
	c-6.281-3.036-16.87-1.262-16.87,15.581v28.622C227.703,169.477,239.311,163.44,244.603,156.079z"/>
<path style="fill:#B7092B;" d="M496.837,251.672L273.076,143.508c-8.341-4.03-19.588-1.176-24.996,6.344l-4.477,6.227
	c-5.406,7.52-17.411,13.674-26.675,13.674h-92.31c-9.265,0-20.979-6.351-26.04-14.109l-3.488-5.355
	c-5.058-7.759-16.774-14.11-26.038-14.11h-48.84c-9.302,0-16.844,7.541-16.844,16.843c0,6.041,3.193,11.325,7.971,14.296
	C4.271,182.685,0,202.577,0,224.322c0,47.289,20.162,85.869,45.474,88.04l449.684,0.104c9.264,0,16.843-7.578,16.843-16.841v-19.781
	C512,266.581,505.176,255.703,496.837,251.672z"/>
<path style="fill:#A00026;" d="M39,275.844c-5.663-14.49-9-32.285-9-51.522c0-12.996,1.536-25.32,4.272-36.422
	c-9.368,5.647-20.28,8.991-31.956,9.252C0.813,205.709,0,214.839,0,224.322c0,19.237,3.337,37.032,9,51.522H39z"/>
<path style="fill:#EA2A3D;" d="M370.527,277.482c4.761,0,9.445-0.324,14.039-0.932c-5.727-14.233-19.652-24.286-35.935-24.286
	H230.738c-16.638,0-30.811,10.493-36.296,25.218H370.527z"/>
<path style="fill:#1A2B63;" d="M495.157,311.263H45.474c-5.966-0.512-11.645-3.054-16.842-7.248v13.781
	c0,9.263,7.578,16.843,16.842,16.843h15.603L66.18,350.2c0.866,2.64,3.849,4.801,6.626,4.801h14.242
	c2.779,0,5.761-2.161,6.627-4.801l5.104-15.561h26.445l5.104,15.561c0.866,2.64,3.847,4.801,6.627,4.801h14.241
	c2.779,0,5.76-2.161,6.627-4.801l5.102-15.561h137.161l5.103,15.561c0.869,2.64,3.849,4.801,6.627,4.801h14.243
	c2.777,0,5.761-2.161,6.626-4.801l5.103-15.561h34.869l5.102,15.561c0.866,2.64,3.848,4.801,6.628,4.801h14.24
	c2.78,0,5.762-2.161,6.629-4.801l5.101-15.561h34.87l5.103,15.561c0.866,2.64,3.848,4.801,6.626,4.801h14.241
	c2.78,0,5.761-2.161,6.626-4.801l5.105-15.561h12.231c9.264,0,16.843-7.58,16.843-16.843v-23.27
	C512,303.788,504.421,311.263,495.157,311.263z"/>
<path style="fill:#EA2A3D;" d="M457.083,232.456l-184.007-88.948c-8.341-4.03-19.588-1.176-24.996,6.344l-2.82,3.921l196.845,95.151
	C447.65,243.976,452.676,238.458,457.083,232.456z"/>
<path style="fill:#1A2B63;" d="M457.083,232.456l-34.392-16.625c-5.232,5.704-11.085,10.827-17.442,15.278l36.856,17.816
	C447.65,243.976,452.676,238.458,457.083,232.456z"/>
<g>
	<path style="fill:#FFFFFF;" d="M73.744,277.482L119.61,169.19c-5.29-1.107-10.818-3.796-15.194-7.31L55.452,277.482H73.744z"/>
	<polygon style="fill:#FFFFFF;" points="116.633,277.482 162.262,169.753 143.971,169.753 98.342,277.482 	"/>
	<polygon style="fill:#FFFFFF;" points="159.524,277.482 205.152,169.753 186.861,169.753 141.233,277.482 	"/>
	<path style="fill:#FFFFFF;" d="M269.323,174.252c-1.28,0-2.559-0.488-3.536-1.464c-1.953-1.953-1.953-5.119,0-7.071l19.985-19.986
		c1.952-1.952,5.118-1.952,7.071,0c1.953,1.953,1.953,5.119,0,7.071l-19.985,19.986
		C271.883,173.763,270.603,174.252,269.323,174.252z"/>
	<path style="fill:#FFFFFF;" d="M298.13,187.818c-1.28,0-2.559-0.488-3.536-1.464c-1.953-1.953-1.953-5.118,0-7.071l19.985-19.987
		c1.952-1.952,5.118-1.952,7.071,0c1.953,1.953,1.953,5.118,0,7.071l-19.985,19.987C300.689,187.33,299.41,187.818,298.13,187.818z"
		/>
	<path style="fill:#FFFFFF;" d="M326.936,201.385c-1.28,0-2.559-0.488-3.536-1.464c-1.953-1.953-1.953-5.119,0-7.071l19.985-19.986
		c1.952-1.952,5.118-1.952,7.071,0c1.953,1.953,1.953,5.119,0,7.071l-19.985,19.986
		C329.496,200.896,328.216,201.385,326.936,201.385z"/>
	<path style="fill:#FFFFFF;" d="M355.743,214.951c-1.28,0-2.559-0.488-3.536-1.464c-1.953-1.953-1.953-5.119,0-7.071l19.986-19.986
		c1.953-1.952,5.118-1.952,7.071,0c1.953,1.953,1.953,5.119,0,7.071l-19.986,19.986
		C358.302,214.463,357.023,214.951,355.743,214.951z"/>
	<path style="fill:#FFFFFF;" d="M384.551,228.519c-1.28,0-2.559-0.488-3.535-1.464c-1.953-1.952-1.953-5.118-0.001-7.071
		l19.984-19.987c1.952-1.953,5.119-1.954,7.071-0.001c1.953,1.952,1.953,5.118,0,7.071l-19.984,19.987
		C387.11,228.03,385.831,228.519,384.551,228.519z"/>
</g>
<path style="fill:#445EA0;" d="M496.837,251.672l-40.487-19.571c-19.29,26.502-50.535,43.743-85.822,43.743H9
	c8.256,21.129,21.458,35.229,36.474,36.518h449.684c9.264,0,16.843-7.475,16.843-16.737v-19.781
	C512,266.581,505.176,255.703,496.837,251.672z"/>
<path style="fill:#2E4C89;" d="M39,275.844H9c8.256,21.129,21.458,35.229,36.474,36.518h30
	C60.458,311.073,47.256,296.973,39,275.844z"/>
<path style="fill:#EA2A3D;" d="M65.616,136.178H20.212c-9.302,0-16.844,7.541-16.844,16.843c0,6.041,3.193,11.325,7.971,14.296
	c-4.126,8.973-7.291,19.495-9.215,31.02C36.456,197.671,64.243,170.334,65.616,136.178z"/>
<path style="fill:#AEC1ED;" d="M20.622,296.867c7.122,9.091,15.643,14.705,24.851,15.495h449.684
	c8.845,0,16.136-6.817,16.779-15.495H20.622z"/>
<path style="fill:#85A0DD;" d="M51,296.867H20.622c7.122,9.091,15.643,14.705,24.851,15.495h30.378
	C66.644,311.572,58.122,305.958,51,296.867z"/>
<g>
	<path style="fill:#37C47A;" d="M154.246,400.001H144c-2.762,0-5-2.239-5-5s2.238-5,5-5h10.246c2.762,0,5,2.239,5,5
		S157.008,400.001,154.246,400.001z"/>
	<path style="fill:#37C47A;" d="M196.246,432.001H186c-2.762,0-5-2.239-5-5s2.238-5,5-5h10.246c2.762,0,5,2.239,5,5
		S199.008,432.001,196.246,432.001z"/>
	<path style="fill:#37C47A;" d="M431.246,385.001H421c-2.762,0-5-2.239-5-5s2.238-5,5-5h10.246c2.762,0,5,2.239,5,5
		S434.008,385.001,431.246,385.001z"/>
	<path style="fill:#37C47A;" d="M289.246,411.001H279c-2.762,0-5-2.239-5-5s2.238-5,5-5h10.246c2.762,0,5,2.239,5,5
		S292.008,411.001,289.246,411.001z"/>
	<path style="fill:#37C47A;" d="M329.492,439.001h-10.246c-2.762,0-5-2.239-5-5s2.238-5,5-5h10.246c2.762,0,5,2.239,5,5
		S332.254,439.001,329.492,439.001z"/>
	<path style="fill:#37C47A;" d="M239.492,369.001h-10.246c-2.762,0-5-2.239-5-5s2.238-5,5-5h10.246c2.762,0,5,2.239,5,5
		S242.254,369.001,239.492,369.001z"/>
	<path style="fill:#37C47A;" d="M280.246,469.001H270c-2.762,0-5-2.239-5-5s2.238-5,5-5h10.246c2.762,0,5,2.239,5,5
		S283.008,469.001,280.246,469.001z"/>
	<path style="fill:#37C47A;" d="M83.246,388.001H73c-2.762,0-5-2.239-5-5s2.238-5,5-5h10.246c2.762,0,5,2.239,5,5
		S86.008,388.001,83.246,388.001z"/>
	<path style="fill:#37C47A;" d="M371.246,406.001H361c-2.762,0-5-2.239-5-5s2.238-5,5-5h10.246c2.762,0,5,2.239,5,5
		S374.008,406.001,371.246,406.001z"/>
</g>
<g>
</g>
<g>
</g>
<g>
</g>
<g>
</g>
<g>
</g>
<g>
</g>
<g>
</g>
<g>
</g>
<g>
</g>
<g>
</g>
<g>
</g>
<g>
</g>
<g>
</g>
<g>
</g>
<g>
</g>
</svg>
