<?xml version="1.0" encoding="iso-8859-1"?>
<!-- Generator: Adobe Illustrator 19.0.0, SVG Export Plug-In . SVG Version: 6.00 Build 0)  -->
<svg version="1.1" id="Capa_1" xmlns="http://www.w3.org/2000/svg" xmlns:xlink="http://www.w3.org/1999/xlink" x="0px" y="0px"
	 viewBox="0 0 512 512" style="enable-background:new 0 0 512 512;" xml:space="preserve">
<circle style="fill:#2E4C89;" cx="256" cy="267" r="245"/>
<path style="fill:#02AF8E;" d="M443.254,5c0-2.75-2.25-5-5-5H73.746c-2.75,0-5,2.25-5,5v419.972
	c23.763,28.139,53.748,50.849,87.84,66.003h198.827c34.093-15.155,64.077-37.864,87.841-66.004V5z"/>
<g>
	<path style="fill:#159E97;" d="M103.006,458.349c0.432,0.346,0.867,0.689,1.302,1.033
		C103.873,459.039,103.438,458.695,103.006,458.349z"/>
	<path style="fill:#159E97;" d="M109,250.488H90.112v192.38c7.269,1.271,13.815,4.799,18.888,9.825V250.488z"/>
	<path style="fill:#159E97;" d="M92.774,449.69c0.318,0.284,0.641,0.564,0.96,0.847C93.415,450.253,93.092,449.974,92.774,449.69z"
		/>
	<path style="fill:#159E97;" d="M97.531,453.829c0.356,0.302,0.709,0.608,1.067,0.908C98.24,454.436,97.887,454.131,97.531,453.829z
		"/>
	<path style="fill:#159E97;" d="M88,445.297v0.016c0.179,0.169,0.365,0.331,0.544,0.499C88.362,445.641,88.182,445.468,88,445.297z"
		/>
	<path style="fill:#159E97;" d="M108.706,462.784c0.099,0.074,0.194,0.153,0.294,0.227v-0.002
		C108.901,462.935,108.805,462.858,108.706,462.784z"/>
	<path style="fill:#159E97;" d="M90.112,240.488H109V38.104c-4.812,5.718-11.377,9.935-18.888,11.738V240.488z"/>
	<path style="fill:#159E97;" d="M90.112,21.365v18.081c8.163-2.812,14.451-9.674,16.529-18.081H90.112z"/>
	<path style="fill:#159E97;" d="M216.872,245.5c0-26.506,19.646-48.411,45.169-51.98c-2.396-0.335-4.842-0.52-7.331-0.52
		c-28.995,0-52.5,23.505-52.5,52.5s23.505,52.5,52.5,52.5c2.489,0,4.935-0.185,7.331-0.521
		C236.518,293.911,216.872,272.006,216.872,245.5z"/>
	<rect x="166.46" y="21.365" style="fill:#159E97;" width="15.08" height="70.24"/>
	<rect x="166.46" y="399.37" style="fill:#159E97;" width="15.08" height="70.24"/>
</g>
<path style="fill:#EEF6FF;" d="M431.888,437.531V16.365c0-2.761-2.239-5-5-5H85.112c-2.761,0-5,2.239-5,5v421.166
	c15.917,16.414,34.1,30.616,54.061,42.079h243.652C397.787,468.147,415.971,453.944,431.888,437.531z M215.024,21.365h81.951v23.823
	h-81.951L215.024,21.365L215.024,21.365z M166.462,21.365h38.563v25.823c0,4.411,3.589,8,8,8h85.951c4.411,0,8-3.589,8-8V21.365
	h38.563v70.238h-44.156h-90.764h-44.156L166.462,21.365L166.462,21.365z M292.41,101.603c-8.557,11.291-21.878,18.035-36.41,18.035
	c-14.532,0-27.853-6.744-36.41-18.035H292.41z M90.112,21.365h16.529c-2.079,8.406-8.366,15.269-16.529,18.081V21.365z
	 M296.976,469.61h-81.951v-23.823h81.951V469.61z M345.538,469.61h-38.563v-25.823c0-4.411-3.589-8-8-8h-85.951
	c-4.411,0-8,3.589-8,8v25.823h-38.563v-70.237h44.156h90.764h44.156L345.538,469.61L345.538,469.61z M219.59,389.373
	c8.557-11.291,21.878-18.035,36.41-18.035c14.532,0,27.853,6.744,36.41,18.035H219.59z M421.888,442.869
	c-13.884,2.428-25.185,13.03-28.476,26.741h-37.874v-72.237c0-4.411-3.589-8-8-8h-43.176c-9.939-17.368-28.189-28.035-48.362-28.035
	s-38.424,10.667-48.362,28.035h-43.176c-4.411,0-8,3.589-8,8v72.237h-37.877c-3.292-13.71-14.589-24.313-28.473-26.742v-192.38
	h104.415c2.556,31.686,29.14,56.693,61.473,56.693s58.917-25.007,61.473-56.693h104.415V442.869z M244.475,250.488
	c1.934,4.45,6.363,7.565,11.525,7.565s9.591-3.115,11.525-7.565h39.922c-2.524,26.165-24.63,46.693-51.447,46.693
	s-48.923-20.527-51.447-46.693H244.475z M204.553,240.488c2.524-26.166,24.63-46.693,51.447-46.693s48.923,20.527,51.447,46.693
	h-39.922c-1.934-4.45-6.363-7.565-11.525-7.565c-5.162,0-9.591,3.115-11.525,7.565H204.553z M421.888,240.488H317.473
	c-2.556-31.686-29.14-56.693-61.473-56.693s-58.917,25.007-61.473,56.693H90.112V49.842c13.711-3.291,24.312-14.592,26.741-28.477
	h39.609v72.238c0,4.411,3.589,8,8,8h43.176c9.939,17.368,28.189,28.035,48.362,28.035s38.424-10.667,48.362-28.035h43.176
	c4.411,0,8-3.589,8-8V21.365h39.609c2.429,13.884,13.03,25.186,26.741,28.477V240.488z M421.888,39.446
	c-8.163-2.812-14.451-9.674-16.529-18.081h16.529V39.446z"/>
<g>
</g>
<g>
</g>
<g>
</g>
<g>
</g>
<g>
</g>
<g>
</g>
<g>
</g>
<g>
</g>
<g>
</g>
<g>
</g>
<g>
</g>
<g>
</g>
<g>
</g>
<g>
</g>
<g>
</g>
</svg>
