<?xml version="1.0" encoding="iso-8859-1"?>
<!-- Generator: Adobe Illustrator 19.0.0, SVG Export Plug-In . SVG Version: 6.00 Build 0)  -->
<svg version="1.1" id="Capa_1" xmlns="http://www.w3.org/2000/svg" xmlns:xlink="http://www.w3.org/1999/xlink" x="0px" y="0px"
	 viewBox="0 0 512 512" style="enable-background:new 0 0 512 512;" xml:space="preserve">
<circle style="fill:#FFCA51;" cx="256" cy="267" r="245"/>
<path style="fill:#B7092B;" d="M437.434,373.445c-1.375-5.325-6.642-11.444-11.703-13.597l-110.602-47.056
	c-0.002-0.001-0.003-0.002-0.005-0.003l-16.399-6.978v8.153c0,2.492-1.459,6.115-3.186,7.912l-36.795,38.272
	c-0.731,0.761-1.706,1.18-2.744,1.18s-2.013-0.419-2.744-1.18l-36.795-38.272c-1.727-1.797-3.186-5.42-3.186-7.912v-8.153
	l-16.399,6.978c-0.002,0.001-0.003,0.002-0.005,0.003L86.27,359.848c-5.062,2.153-10.328,8.272-11.703,13.597L63.056,418
	c44.849,57.226,114.601,94,192.944,94s148.096-36.774,192.944-94L437.434,373.445z"/>
<path style="fill:#EF8318;" d="M275.887,0h-39.773c-42.99,0-77.84,34.852-77.84,77.84v46.001c0-42.989,34.85-60.84,77.84-60.84
	h39.773c42.99,0,77.84,17.851,77.84,60.84V77.84C353.727,34.852,318.877,0,275.887,0z"/>
<path style="fill:#DB722C;" d="M189.202,72.504C191.947,32.007,225.645,0,266.84,0h-30.727c-42.99,0-77.84,34.852-77.84,77.84
	v46.001C158.273,98.471,170.417,81.862,189.202,72.504z"/>
<path style="fill:#A00026;" d="M195.74,330.624c-1.905-1.982-3.465-5.854-3.465-8.604v-2.273c0-2.75,2.069-5.879,4.6-6.957
	L86.27,359.848c-5.062,2.153-10.328,8.272-11.703,13.597L63.056,418c5.609,7.157,11.639,13.962,17.997,20.444l13.458-50.934
	c1.375-5.325,6.642-11.444,11.703-13.597l93.074-39.6L195.74,330.624z"/>
<g>
	<path style="fill:#FFFFFF;" d="M210,344.27v163.393c6.578,1.25,13.247,2.236,20,2.949V365.073L210,344.27z"/>
	<path style="fill:#FFFFFF;" d="M259.465,388.513c-1.905,1.982-5.024,1.982-6.93,0L246,381.716v130.059
		c3.318,0.133,6.648,0.225,10,0.225c3.352,0,6.682-0.092,10-0.225V381.716L259.465,388.513z"/>
	<path style="fill:#FFFFFF;" d="M282,365.073v145.538c6.753-0.713,13.422-1.699,20-2.949V344.27L282,365.073z"/>
</g>
<path style="fill:#1A2B63;" d="M315.124,312.789l-16.399-6.978v8.153c0,2.492-1.459,6.115-3.186,7.912l-36.795,38.272
	c-0.731,0.761-1.706,1.18-2.744,1.18s-2.013-0.419-2.744-1.18l-36.795-38.272c-1.727-1.797-3.186-5.42-3.186-7.912v-8.153
	l-16.399,6.978c-2.53,1.077-4.601,4.208-4.601,6.958v2.273c0,2.75,1.56,6.622,3.465,8.604l56.795,59.076
	c1.905,1.982,5.024,1.982,6.93,0l56.795-59.076c1.905-1.982,3.465-5.854,3.465-8.604v-2.273
	C319.725,316.997,317.654,313.866,315.124,312.789z"/>
<path style="fill:#A05F33;" d="M275.887,293h-39.773c-8.317,0-16.323-1.318-23.838-3.733v24.698c0,2.75,1.56,6.622,3.465,8.604
	l36.795,38.272c1.905,1.982,5.024,1.982,6.93,0l36.795-38.272c1.905-1.982,3.465-5.854,3.465-8.604v-24.698
	C292.21,291.682,284.204,293,275.887,293z"/>
<path style="fill:#87502A;" d="M227.551,313.965v-21.443c-5.269-0.577-10.377-1.68-15.275-3.255v24.698
	c0,2.75,1.56,6.622,3.465,8.604l36.795,38.272c1.905,1.982,5.024,1.982,6.93,0l4.173-4.34l-32.622-33.932
	C229.11,320.587,227.551,316.715,227.551,313.965z"/>
<path style="fill:#A05F33;" d="M360,140h-7.273v70H360c11,0,20-9,20-20v-30C380,149,371,140,360,140z"/>
<path style="fill:#87502A;" d="M159.273,140H152c-11,0-20,9-20,20v30c0,11,9,20,20,20h7.273V140z"/>
<path style="fill:#BF7E52;" d="M353.727,217.159c0,42.99-34.85,77.84-77.84,77.84h-39.773c-42.99,0-77.84-34.85-77.84-77.84V122.84
	c0-42.989,34.85-60.84,77.84-60.84h39.773c42.99,0,77.84,17.851,77.84,60.84V217.159z"/>
<path style="fill:#A05F33;" d="M173.547,217.159V122.84c0-42.989,34.85-60.84,77.84-60.84h-15.273
	c-42.99,0-77.84,17.851-77.84,60.84v94.318c0,42.99,34.85,77.84,77.84,77.84h15.273
	C208.396,294.999,173.547,260.149,173.547,217.159z"/>
<g>
	<circle style="fill:#1A2B63;" cx="201" cy="169" r="16"/>
	<circle style="fill:#1A2B63;" cx="311" cy="169" r="16"/>
</g>
<g>
	<path style="fill:#87502A;" d="M275,223.5h-21c-9.649,0-17.5-7.851-17.5-17.5v-66c0-1.355-1.145-2.5-2.5-2.5h-54
		c-4.143,0-7.5-3.358-7.5-7.5s3.357-7.5,7.5-7.5h54c9.649,0,17.5,7.851,17.5,17.5v66c0,1.355,1.145,2.5,2.5,2.5h21
		c4.143,0,7.5,3.358,7.5,7.5S279.143,223.5,275,223.5z"/>
	<path style="fill:#87502A;" d="M292,259h-72c-4.143,0-7.5-3.358-7.5-7.5s3.357-7.5,7.5-7.5h72c4.143,0,7.5,3.358,7.5,7.5
		S296.143,259,292,259z"/>
	<path style="fill:#87502A;" d="M331,137.5h-45c-4.143,0-7.5-3.358-7.5-7.5s3.357-7.5,7.5-7.5h45c4.143,0,7.5,3.358,7.5,7.5
		S335.143,137.5,331,137.5z"/>
</g>
<circle style="fill:#FFAF10;" cx="351" cy="440.75" r="23"/>
<path style="fill:#FF9518;" d="M343,440.75c0-10.076,6.481-18.632,15.5-21.743c-2.352-0.811-4.873-1.257-7.5-1.257
	c-12.703,0-23,10.297-23,23s10.297,23,23,23c2.627,0,5.148-0.446,7.5-1.257C349.481,459.382,343,450.826,343,440.75z"/>
<path style="fill:#FFFFFF;" d="M159.476,466.36c-10.738,0-19.476-8.737-19.476-19.476v-27.922c0-2.111,1.711-3.823,3.822-3.823
	h31.307c2.111,0,3.822,1.712,3.822,3.823v27.922C178.951,457.624,170.214,466.36,159.476,466.36z"/>
<path style="fill:#EEF6FF;" d="M155.049,446.885v-27.922c0-2.111,1.711-3.823,3.822-3.823h-15.049c-2.111,0-3.822,1.712-3.822,3.823
	v27.922c0,10.739,8.737,19.476,19.476,19.476c2.666,0,5.208-0.541,7.524-1.515C159.987,461.896,155.049,454.957,155.049,446.885z"/>
<g>
</g>
<g>
</g>
<g>
</g>
<g>
</g>
<g>
</g>
<g>
</g>
<g>
</g>
<g>
</g>
<g>
</g>
<g>
</g>
<g>
</g>
<g>
</g>
<g>
</g>
<g>
</g>
<g>
</g>
</svg>
