<?xml version="1.0" encoding="iso-8859-1"?>
<!-- Generator: Adobe Illustrator 19.0.0, SVG Export Plug-In . SVG Version: 6.00 Build 0)  -->
<svg version="1.1" id="Capa_1" xmlns="http://www.w3.org/2000/svg" xmlns:xlink="http://www.w3.org/1999/xlink" x="0px" y="0px"
	 viewBox="0 0 512 512" style="enable-background:new 0 0 512 512;" xml:space="preserve">
<circle style="fill:#3EB7FF;" cx="256" cy="262.498" r="245"/>
<g>
	<path style="fill:#1A2B63;" d="M22.003,22.498H5c-2.75,0-5,2.25-5,5v73.699c0,2.75,2.25,5,5,5h17.003V22.498z"/>
	<path style="fill:#1A2B63;" d="M507,22.498h-17.003v83.699H507c2.75,0,5-2.25,5-5V27.498C512,24.748,509.75,22.498,507,22.498z"/>
</g>
<rect x="21.503" y="22.498" style="fill:#A00026;" width="16.497" height="83.7"/>
<path style="fill:#B7092B;" d="M342.263,22.498c0.046,0.611-0.112,1.239-0.491,1.71l-72.752,90.42
	c-0.842,1.046-2.758,1.964-4.102,1.964h-17.836c-1.344,0-3.26-0.918-4.102-1.964l-72.752-90.42c-0.379-0.471-0.54-1.098-0.5-1.71
	H21.503v83.699h88.917v353.359c40.703,30.119,91.058,47.938,145.58,47.938s104.877-17.819,145.58-47.939V106.197h88.917V22.498
	H342.263z"/>
<path style="fill:#A00026;" d="M184.008,41.334c-28.921,14.117-54.17,36.465-73.588,64.564v102.177H114
	c4.219,0,8.224,0.908,11.84,2.528v-89.226c18.942-27.41,43.434-49.348,71.469-63.512L184.008,41.334z"/>
<g>
	<path style="fill:#FFAF10;" d="M170.229,24.209c-0.379-0.471-0.54-1.098-0.5-1.711H110.42v83.4
		c19.417-28.097,44.661-50.456,73.579-64.575L170.229,24.209z"/>
	<path style="fill:#FFAF10;" d="M342.263,22.498c0.046,0.611-0.111,1.239-0.491,1.711l-13.84,17.202
		c28.947,14.2,54.216,36.667,73.648,64.787v-83.7H342.263z"/>
</g>
<path style="fill:#EF9614;" d="M125.84,22.498h-15.42v83.4c4.792-6.934,9.951-13.505,15.42-19.703V22.498z"/>
<g>
	<path style="fill:#FFAF10;" d="M215.883,164.754V80.951l-15-18.643v108.356C205.427,168.386,210.449,166.401,215.883,164.754z"/>
	<path style="fill:#FFAF10;" d="M200.883,240.341v260.926c4.943,1.137,9.948,2.107,15,2.939V246.25
		C210.449,244.603,205.427,242.618,200.883,240.341z"/>
	<path style="fill:#FFAF10;" d="M311.117,170.663V62.308l-15,18.643v83.804C301.552,166.401,306.573,168.387,311.117,170.663z"/>
	<path style="fill:#FFAF10;" d="M296.117,246.25v257.956c5.052-0.832,10.057-1.803,15-2.939V240.341
		C306.573,242.618,301.552,244.603,296.117,246.25z"/>
	<path style="fill:#FFAF10;" d="M246.695,159.483v-42.92c-1.304-0.147-2.95-0.983-3.715-1.934l-11.285-14.026v60.521
		C236.498,160.339,241.51,159.786,246.695,159.483z"/>
	<path style="fill:#FFAF10;" d="M231.695,249.881v256.415c4.957,0.488,9.961,0.817,15,1.005v-255.78
		C241.51,251.219,236.498,250.666,231.695,249.881z"/>
	<path style="fill:#FFAF10;" d="M280.305,161.124v-60.521l-11.285,14.026c-0.765,0.951-2.411,1.787-3.715,1.934v42.92
		C270.49,159.786,275.502,160.339,280.305,161.124z"/>
	<path style="fill:#FFAF10;" d="M265.305,251.521V507.3c5.039-0.188,10.043-0.517,15-1.005V249.881
		C275.502,250.665,270.49,251.219,265.305,251.521z"/>
</g>
<path style="fill:#1A2B63;" d="M169.612,20.302c-1.124,1.208-1.197,3.248-0.163,4.534l72.752,90.42
	c1.034,1.286,3.23,2.337,4.881,2.337h17.836c1.65,0,3.847-1.052,4.881-2.337l72.752-90.42c1.034-1.286,0.95-3.315-0.187-4.511
	L329.382,6.676c-1.137-1.195-3.417-2.174-5.067-2.174h-137c-1.65,0-3.92,0.988-5.044,2.196L169.612,20.302z"/>
<path style="fill:#B7092B;" d="M315.762,22.498c1.65,0,2.153,1.052,1.119,2.337l-59,73.329c-1.034,1.286-2.728,1.286-3.762,0
	l-59-73.329c-1.034-1.286-0.531-2.337,1.119-2.337C196.238,22.498,315.762,22.498,315.762,22.498z"/>
<path style="fill:#A00026;" d="M210.538,24.836c-1.034-1.286-0.531-2.337,1.119-2.337h-15.419c-1.65,0-2.153,1.052-1.119,2.337
	l59,73.329c1.034,1.286,2.728,1.286,3.762,0l5.828-7.244L210.538,24.836z"/>
<path style="fill:#FFFFFF;" d="M271.902,34.494V22.498h-31.805v11.996c0,1.65,1.35,3,3,3h25.805
	C270.553,37.494,271.902,36.144,271.902,34.494z"/>
<path style="fill:#EEF6FF;" d="M255.195,34.494V22.498h-15.098v11.996c0,1.65,1.35,3,3,3h15.098
	C256.545,37.494,255.195,36.144,255.195,34.494z"/>
<path style="fill:#B7092B;" d="M256,251.797c-46.732,0-81.973-19.903-81.973-46.295s35.24-46.295,81.973-46.295
	c46.731,0,81.973,19.902,81.973,46.295S302.731,251.797,256,251.797z"/>
<ellipse style="fill:#FFFFFF;" cx="256" cy="205.498" rx="68.75" ry="37"/>
<path style="fill:#EEF6FF;" d="M202.51,205.502c0-19.046,26.741-34.725,61.117-36.768c-2.505-0.149-5.048-0.232-7.627-0.232
	c-37.968,0-68.745,16.566-68.745,37c0,20.435,30.777,37,68.745,37c2.579,0,5.122-0.083,7.627-0.232
	C229.251,240.227,202.51,224.548,202.51,205.502z"/>
<path style="fill:#FFFFFF;" d="M336.634,141.502c0-2.75,2.25-5,5-5h28.341c2.75,0,5,2.25,5,5v23.927c0,2.75-1.686,6.491-3.744,8.313
	l-11.682,10.336c-2.06,1.822-5.43,1.822-7.489,0l-11.682-10.336c-2.06-1.822-3.744-5.563-3.744-8.313V141.502z"/>
<path style="fill:#EEF6FF;" d="M355.403,173.742c-2.059-1.822-3.744-5.563-3.744-8.313v-23.927c0-2.75,2.25-5,5-5h-15.025
	c-2.75,0-5,2.25-5,5v23.927c0,2.75,1.685,6.491,3.744,8.313l11.682,10.336c2.06,1.822,5.429,1.822,7.489,0l3.768-3.334
	L355.403,173.742z"/>
<g>
	<path style="fill:#1A2B63;" d="M281.667,198.002c0,1.65-1.35,3-3,3h-45.334c-1.65,0-3-1.35-3-3v-9c0-1.65,1.35-3,3-3h45.334
		c1.65,0,3,1.35,3,3V198.002z"/>
	<path style="fill:#1A2B63;" d="M294.5,222.002c0,1.65-1.35,3-3,3h-71c-1.65,0-3-1.35-3-3v-9c0-1.65,1.35-3,3-3h71
		c1.65,0,3,1.35,3,3V222.002z"/>
</g>
<g>
	<path style="fill:#EA2A3D;" d="M114,206.998h-3.58v252.559c10.273,7.603,21.164,14.418,32.58,20.364V235.998
		C143,219.982,130.017,206.998,114,206.998z"/>
	<path style="fill:#EA2A3D;" d="M398,206.998h3.58v252.559c-10.273,7.603-21.164,14.418-32.58,20.364V235.998
		C369,219.982,381.983,206.998,398,206.998z"/>
</g>
<g>
</g>
<g>
</g>
<g>
</g>
<g>
</g>
<g>
</g>
<g>
</g>
<g>
</g>
<g>
</g>
<g>
</g>
<g>
</g>
<g>
</g>
<g>
</g>
<g>
</g>
<g>
</g>
<g>
</g>
</svg>
