<?xml version="1.0" encoding="iso-8859-1"?>
<!-- Generator: Adobe Illustrator 19.0.0, SVG Export Plug-In . SVG Version: 6.00 Build 0)  -->
<svg version="1.1" id="Capa_1" xmlns="http://www.w3.org/2000/svg" xmlns:xlink="http://www.w3.org/1999/xlink" x="0px" y="0px"
	 viewBox="0 0 512 512" style="enable-background:new 0 0 512 512;" xml:space="preserve">
<circle style="fill:#FFD00D;" cx="256" cy="267" r="245"/>
<path style="fill:#BF7E52;" d="M437.924,253.534c2.242-5.022,0.211-11.436-4.512-14.254L391.1,214.041v69.01c0,2.75-2.25,5-5,5
	h-25.657l-6.908-6.909c-1.944-1.945-3.535-5.786-3.535-8.536v-50.31c0-11-9-20-20-20h-13.322c-11,0-20,9-20,20v67.351
	c0,2.75-1.303,6.834-2.896,9.076l-23.891,33.625c-1.594,2.242-2.896,6.326-2.896,9.076v35.679H262.3c-2.75,0-5,2.25-5,5v29.579
	c0,2.75,2.25,5,5,5h2.695v95.136c41.141-1.485,79.697-13.099,113.24-32.445v-51.697h19.736c2.75,0,5-2.25,5-5v-51.567
	c0-2.75-2.25-5-5-5h-10.295c0,0-0.018,0.038-0.043,0.096c0.016-0.036,0.029-0.067,0.035-0.079L437.924,253.534z"/>
<path style="fill:#A05F33;" d="M226.515,287.051v21.784c0,5.5,4.5,10,10,10h2.199c-5.5,0-10,4.5-10,10v26.175c0,5.5,4.5,10,10,10
	h29.281v-23.585c0-2.538,1.242-6.429,2.711-8.497l10.014-14.094l13.877-19.532c1.729-2.431,3.082-6.672,3.082-9.655v-2.597h-71.164
	V287.051z"/>
<g>
	<path style="fill:#BF7E52;" d="M433.412,239.28L391.1,214.041V5c0-2.75-2.25-5-5-5H194.135c-2.75,0-5,2.25-5,5v178.98
		c0.188,0.233,0.358,0.472,0.499,0.716l44.497,77.072c1.199,2.076,1.199,5.584,0,7.66L223.38,288.05h73.297v1.597
		c0,2.75-1.303,6.834-2.896,9.076l-23.891,33.625c-1.594,2.242-2.896,6.326-2.896,9.076v35.679h115.631
		c0.01-0.016,0.022-0.03,0.031-0.046c0.446-0.824,4.853-10.58,5.012-10.931l50.256-112.592
		C440.166,248.512,438.135,242.098,433.412,239.28z"/>
	<path style="fill:#BF7E52;" d="M264.994,511.818c41.141-1.485,79.697-13.099,113.24-32.445v-63.691h-113.24V511.818z"/>
</g>
<path style="fill:#AA6B3F;" d="M264.994,415.682v96.136c5.043-0.182,10.045-0.519,15.006-1v-95.136H264.994z"/>
<path style="fill:#BF7E52;" d="M294.596,299.303c1.729-2.431,3.082-6.672,3.082-9.655v-2.597h-71.163v21.784c0,5.5,4.5,10,10,10
	h44.204L294.596,299.303z"/>
<path style="fill:#A05F33;" d="M242,308.835v-21.784h-15.485v21.784c0,5.5,4.5,10,10,10H252C246.5,318.835,242,314.335,242,308.835z
	"/>
<path style="fill:#B7092B;" d="M223.38,288.051h74.297v-65.754c0-10.477,8.523-19,19-19H330c10.477,0,19,8.523,19,19v50.31
	c0,3.036,1.682,7.096,3.828,9.243l6.201,6.202H386.1c2.75,0,5-2.25,5-5V5c0-2.75-2.25-5-5-5H194.135c-2.75,0-5,2.25-5,5v178.98
	c0.188,0.233,0.358,0.472,0.499,0.716l44.497,77.072c1.199,2.076,1.199,5.584,0,7.66L223.38,288.051z"/>
<path style="fill:#A05F33;" d="M267.994,341.425c0-2.538,1.242-6.429,2.711-8.497l10.014-14.094h-42.005c-5.5,0-10,4.5-10,10v26.175
	c0,5.5,4.5,10,10,10h29.281v-23.584H267.994z"/>
<path style="fill:#87502A;" d="M244,355.01v-26.175c0-5.5,4.5-10,10-10h-15.287c-5.5,0-10,4.5-10,10v26.175c0,5.5,4.5,10,10,10H254
	C248.5,365.01,244,360.51,244,355.01z"/>
<path style="fill:#A00026;" d="M189.634,184.696l30.4,52.654V5c0-2.75,2.25-5,5-5h-30.899c-2.75,0-5,2.25-5,5v178.98
	C189.323,184.213,189.493,184.452,189.634,184.696z"/>
<path style="fill:#E5B900;" d="M223.38,288.051h1.654c-0.527,0-1.026-0.105-1.505-0.258L223.38,288.051z"/>
<path style="fill:#EA2A3D;" d="M297.678,268.051v-45.754c0-10.477,8.523-19,19-19H330c10.477,0,19,8.523,19,19v45.754h17.101
	c2.75,0,5-2.25,5-5V25c0-2.75-2.25-5-5-5H214.135c-2.75,0-5,2.25-5,5v193.472l24.997,43.296c0.963,1.668,1.139,4.251,0.554,6.282
	L297.678,268.051L297.678,268.051z"/>
<g>
	<polygon style="fill:#FE3745;" points="215.027,228.679 222.792,242.127 371.1,93.82 371.1,72.606 	"/>
	<path style="fill:#FE3745;" d="M231.71,257.574l2.421,4.194c0.963,1.668,1.139,4.251,0.554,6.282h7.761L371.1,139.398v-21.213
		L231.71,257.574z"/>
	<path style="fill:#FE3745;" d="M345.17,210.905l25.93-25.93v-21.213l-39.609,39.609C337.078,203.809,341.982,206.67,345.17,210.905
		z"/>
	<polygon style="fill:#FE3745;" points="297.678,258.398 297.678,237.186 266.812,268.051 288.025,268.051 	"/>
	<polygon style="fill:#FE3745;" points="349,252.654 371.1,230.554 371.1,209.34 349,231.44 	"/>
	<polygon style="fill:#FE3745;" points="209.135,73.473 262.607,20 241.394,20 209.135,52.259 	"/>
	<polygon style="fill:#FE3745;" points="209.135,119.051 308.185,20 286.973,20 209.135,97.837 	"/>
	<polygon style="fill:#FE3745;" points="209.135,164.628 353.764,20 332.549,20 209.135,143.415 	"/>
	<polygon style="fill:#FE3745;" points="209.135,210.206 371.1,48.242 371.1,27.028 209.135,188.994 	"/>
</g>
<path style="fill:#BF7E52;" d="M433.412,239.28L391.1,214.041v69.01c0,2.75-2.25,5-5,5h-25.657l-6.908-6.909
	c-1.944-1.945-3.535-5.786-3.535-8.536v-50.31c0-11-9-20-20-20h-13.322c-11,0-20,9-20,20v67.351c0,2.75-1.303,6.834-2.896,9.076
	l-23.891,33.625c-1.594,2.242-2.896,6.326-2.896,9.076v35.679h115.631c0.01-0.016,0.022-0.03,0.031-0.046
	c0.446-0.824,4.853-10.58,5.012-10.931l50.256-112.592C440.166,248.512,438.135,242.098,433.412,239.28z"/>
<path style="fill:#AA6B3F;" d="M282,378.103v-36.679c0-2.75,1.303-6.834,2.896-9.076l23.891-33.625
	c1.594-2.242,2.896-6.326,2.896-9.076v-67.351c0-10.716,8.547-19.509,19.158-19.957c-0.281-0.012-0.558-0.043-0.842-0.043h-13.322
	c-11,0-20,9-20,20v67.351c0,2.75-1.303,6.834-2.896,9.076l-23.891,33.625c-1.594,2.242-2.896,6.326-2.896,9.076v36.679L282,378.103
	L282,378.103z"/>
<path style="fill:#FFFFFF;" d="M325.507,213.085h-4.887c-7.781,0-14.147,6.366-14.147,14.147v17.13c0,2.594,2.122,4.716,4.716,4.716
	h23.75c2.594,0,4.716-2.122,4.716-4.716v-17.13C339.654,219.451,333.288,213.085,325.507,213.085z"/>
<path style="fill:#D9EAFC;" d="M317.818,244.362v-17.13c0-6.669,4.682-12.285,10.918-13.758c-1.039-0.245-2.117-0.389-3.229-0.389
	h-4.887c-7.781,0-14.147,6.366-14.147,14.147v17.13c0,2.594,2.122,4.716,4.716,4.716h11.346
	C319.94,249.078,317.818,246.956,317.818,244.362z"/>
<path style="fill:#A05F33;" d="M331.939,282h-17.75c-4.143,0-7.5-3.358-7.5-7.5s3.357-7.5,7.5-7.5h17.75c4.143,0,7.5,3.358,7.5,7.5
	S336.081,282,331.939,282z"/>
<path style="fill:#293D7C;" d="M397.971,366.109h-10.295c0,0-4.753,10.525-5.045,10.994H262.299c-2.75,0-5,2.25-5,5v29.579
	c0,2.75,2.25,5,5,5h115.936v10.994h19.736c2.75,0,5-2.25,5-5v-51.567C402.971,368.359,400.721,366.109,397.971,366.109z"/>
<path style="fill:#1A2B63;" d="M272.666,411.682v-29.579c0-2.75,2.25-5,5-5h-15.367c-2.75,0-5,2.25-5,5v29.579c0,2.75,2.25,5,5,5
	h15.367C274.916,416.682,272.666,414.432,272.666,411.682z"/>
<g>
	<circle style="fill:#AEC1ED;" cx="294.5" cy="396.76" r="9.5"/>
	<circle style="fill:#AEC1ED;" cx="331.5" cy="396.76" r="9.5"/>
</g>
<g>
	<path style="fill:#85A0DD;" d="M292,396.762c0-4.009,2.487-7.432,6-8.826c-1.084-0.43-2.263-0.674-3.5-0.674
		c-5.247,0-9.5,4.253-9.5,9.5s4.253,9.5,9.5,9.5c1.237,0,2.416-0.244,3.5-0.674C294.487,404.193,292,400.771,292,396.762z"/>
	<path style="fill:#85A0DD;" d="M329,396.762c0-4.009,2.487-7.432,6-8.826c-1.084-0.43-2.263-0.674-3.5-0.674
		c-5.247,0-9.5,4.253-9.5,9.5s4.253,9.5,9.5,9.5c1.237,0,2.416-0.244,3.5-0.674C331.487,404.193,329,400.771,329,396.762z"/>
</g>
<path style="fill:#FFFFFF;" d="M94.006,351.331c-2.75,0-6.125-1.948-7.5-4.33l-44.498-77.072c-1.375-2.382-1.375-6.278,0-8.66
	l44.498-77.072c1.375-2.382,4.75-4.33,7.5-4.33h88.995c2.75,0,6.125,1.948,7.5,4.33l44.497,77.072c1.375,2.382,1.375,6.278,0,8.66
	l-44.497,77.072c-1.375,2.382-4.75,4.33-7.5,4.33H94.006z"/>
<path style="fill:#EEF6FF;" d="M117.477,347.001l-44.498-77.072c-1.375-2.382-1.375-6.278,0-8.66l44.498-77.072
	c1.375-2.382,4.75-4.33,7.5-4.33H94.006c-2.75,0-6.125,1.948-7.5,4.33l-44.498,77.072c-1.375,2.382-1.375,6.278,0,8.66
	l44.498,77.072c1.375,2.382,4.75,4.33,7.5,4.33h30.971C122.227,351.331,118.852,349.383,117.477,347.001z"/>
<path style="fill:#B7092B;" d="M104.335,321.031c-1.28,0-2.56-0.488-3.536-1.464l-16.264-16.263
	c-0.938-0.938-1.464-2.21-1.464-3.536c0-1.326,0.526-2.598,1.464-3.536l30.634-30.633l-30.634-30.632
	c-0.938-0.938-1.464-2.209-1.464-3.536c0-1.326,0.526-2.598,1.464-3.536l16.264-16.264c0.977-0.976,2.256-1.464,3.536-1.464
	c1.28,0,2.559,0.488,3.536,1.464l30.632,30.632l30.632-30.632c0.977-0.976,2.256-1.464,3.536-1.464s2.56,0.488,3.536,1.464
	l16.264,16.264c1.952,1.953,1.952,5.119,0,7.071l-30.633,30.632l30.633,30.633c0.938,0.938,1.464,2.209,1.464,3.536
	s-0.526,2.598-1.464,3.536l-16.264,16.263c-0.977,0.976-2.257,1.464-3.536,1.464c-1.28,0-2.56-0.488-3.536-1.464l-30.632-30.632
	l-30.632,30.633C106.894,320.543,105.615,321.031,104.335,321.031z"/>
<path style="fill:#A00026;" d="M106.601,303.303c-0.938-0.938-1.464-2.21-1.464-3.536c0-1.326,0.526-2.598,1.464-3.536
	l30.634-30.633l-30.634-30.632c-0.938-0.938-1.464-2.209-1.464-3.536c0-1.326,0.526-2.598,1.464-3.536l8.767-8.767l-7.497-7.497
	c-0.977-0.976-2.256-1.464-3.536-1.464c-1.28,0-2.56,0.488-3.536,1.464l-16.264,16.264c-0.938,0.938-1.464,2.21-1.464,3.536
	c0,1.326,0.526,2.598,1.464,3.536l30.634,30.632l-30.634,30.633c-0.938,0.938-1.464,2.21-1.464,3.536
	c0,1.326,0.526,2.598,1.464,3.536l16.264,16.263c0.977,0.976,2.256,1.464,3.536,1.464c1.28,0,2.559-0.488,3.536-1.464l7.496-7.497
	L106.601,303.303z"/>
<g>
</g>
<g>
</g>
<g>
</g>
<g>
</g>
<g>
</g>
<g>
</g>
<g>
</g>
<g>
</g>
<g>
</g>
<g>
</g>
<g>
</g>
<g>
</g>
<g>
</g>
<g>
</g>
<g>
</g>
</svg>
