<?xml version="1.0" encoding="iso-8859-1"?>
<!-- Generator: Adobe Illustrator 19.0.0, SVG Export Plug-In . SVG Version: 6.00 Build 0)  -->
<svg version="1.1" id="Capa_1" xmlns="http://www.w3.org/2000/svg" xmlns:xlink="http://www.w3.org/1999/xlink" x="0px" y="0px"
	 viewBox="0 0 512 512" style="enable-background:new 0 0 512 512;" xml:space="preserve">
<circle style="fill:#FFCA51;" cx="256" cy="267" r="245"/>
<path style="fill:#2E4C89;" d="M137.04,113.108l-12.588-12.587l-21.854,21.854l11.404,11.404
	C121.121,126.301,128.83,119.393,137.04,113.108z"/>
<path style="fill:#1A2B63;" d="M121.596,126.234l-11.429-11.429l-7.568,7.568l11.404,11.404
	C116.463,131.194,118.999,128.682,121.596,126.234z"/>
<path id="SVGCleanerId_0" style="fill:#EA2A3D;" d="M88.726,54.378c1.945-1.944,5.126-1.944,7.071,0l34.57,34.57
	c1.945,1.945,1.945,5.127,0,7.071l-32.271,32.27c-1.945,1.945-5.126,1.945-7.071,0l-34.569-34.57c-1.945-1.945-1.945-5.126,0-7.071
	L88.726,54.378z"/>
<g>
	<path id="SVGCleanerId_0_1_" style="fill:#EA2A3D;" d="M88.726,54.378c1.945-1.944,5.126-1.944,7.071,0l34.57,34.57
		c1.945,1.945,1.945,5.127,0,7.071l-32.271,32.27c-1.945,1.945-5.126,1.945-7.071,0l-34.569-34.57c-1.945-1.945-1.945-5.126,0-7.071
		L88.726,54.378z"/>
</g>
<path style="fill:#B7092B;" d="M106.497,113.522l-35.019-35.02c-1.641-1.641-1.895-4.142-0.802-6.073L56.457,86.647
	c-1.945,1.945-1.945,5.126,0,7.071l34.569,34.57c1.945,1.945,5.126,1.945,7.071,0l13.562-13.562
	C109.9,115.302,107.889,114.914,106.497,113.522z"/>
<path style="fill:#293D7C;" d="M397.997,133.778l11.404-11.404l-21.854-21.854l-12.587,12.587
	C383.17,119.393,390.878,126.301,397.997,133.778z"/>
<path style="fill:#1A2B63;" d="M383.253,119.816l11.795-11.794l-7.501-7.501l-12.587,12.587
	C377.785,115.271,380.552,117.506,383.253,119.816z"/>
<path style="fill:#EA2A3D;" d="M455.543,86.647c1.945,1.945,1.945,5.126,0,7.071l-34.57,34.57c-1.945,1.945-5.126,1.945-7.071,0
	l-32.27-32.27c-1.945-1.945-1.945-5.126,0-7.071l34.57-34.57c1.945-1.944,5.126-1.944,7.071,0L455.543,86.647z"/>
<path style="fill:#B7092B;" d="M396.497,103.966l35.47-35.47c1.082-1.082,2.537-1.557,3.961-1.465l-12.654-12.653
	c-1.945-1.944-5.126-1.944-7.071,0l-34.57,34.57c-1.945,1.945-1.945,5.126,0,7.071l14.001,14.001
	C394.589,108.077,394.862,105.601,396.497,103.966z"/>
<path style="fill:#293D7C;" d="M256,72.791c9.955,0,19.737,0.752,29.297,2.189V50h-58.595v24.98
	C236.263,73.543,246.045,72.791,256,72.791z"/>
<path style="fill:#1A2B63;" d="M249,72.93V50h-22.297v24.98C234.012,73.881,241.453,73.195,249,72.93z"/>
<circle style="fill:#FFFFFF;" cx="256" cy="268.89" r="167.42"/>
<path style="fill:#EEF6FF;" d="M119.154,268.891c0-87.31,66.836-158.997,152.134-166.721c-5.037-0.456-10.133-0.702-15.289-0.702
	c-92.465,0-167.423,74.957-167.423,167.423c0,92.465,74.958,167.422,167.423,167.422c5.155,0,10.252-0.246,15.289-0.702
	C185.99,427.888,119.154,356.2,119.154,268.891z"/>
<path style="fill:#60D882;" d="M349.109,179.508c-23.155-24.113-54.217-38.183-87.464-39.619c-0.078-0.003-0.156-0.005-0.233-0.005
	c-1.392,0-2.734,0.536-3.744,1.503c-1.066,1.02-1.668,2.433-1.668,3.908v33.555c46.648,0,85.122,35.659,89.602,81.15H362
	c2.206,0,4,1.794,4,4v12c0,2.206-1.794,4-4,4h-16.645c-5.491,44.426-43.468,78.931-89.355,78.931
	c-49.648,0-90.04-40.392-90.04-90.04h-33.555c-1.476,0-2.888,0.603-3.908,1.669c-1.021,1.066-1.562,2.502-1.498,3.977
	c1.436,33.246,15.506,64.309,39.619,87.464c24.185,23.224,55.928,36.014,89.383,36.014c71.199,0,129.124-57.925,129.124-129.124
	C385.124,235.436,372.333,203.692,349.109,179.508z"/>
<g>
	<path style="fill:#37C47A;" d="M271.006,145.295c0-1.476,0.603-2.888,1.669-3.908c0.183-0.175,0.388-0.32,0.591-0.466
		c-3.838-0.514-7.713-0.863-11.621-1.032c-0.078-0.003-0.156-0.005-0.233-0.005c-1.392,0-2.734,0.536-3.744,1.503
		c-1.066,1.02-1.668,2.433-1.668,3.908v33.555c5.112,0,10.125,0.435,15.006,1.257L271.006,145.295L271.006,145.295z"/>
	<path style="fill:#37C47A;" d="M181.624,362c-24.112-23.155-38.183-54.218-39.619-87.464c-0.064-1.475,0.477-2.911,1.498-3.977
		c1.021-1.066,2.433-1.669,3.908-1.669h-15.006c-1.476,0-2.888,0.603-3.908,1.669c-1.021,1.066-1.562,2.502-1.498,3.977
		c1.436,33.246,15.506,64.309,39.619,87.464c24.185,23.224,55.928,36.014,89.383,36.014c2.521,0,5.023-0.081,7.509-0.224
		C232.832,396.027,203.994,383.481,181.624,362z"/>
</g>
<path style="fill:#3EB7FF;" d="M317,280c-2.206,0-4-1.794-4-4v-12c0-2.206,1.794-4,4-4h29.607
	c-4.469-46.107-43.327-82.15-90.607-82.15c-50.281,0-91.04,40.76-91.04,91.04s40.76,91.04,91.04,91.04
	c46.52,0,84.884-34.891,90.365-79.931L317,280L317,280z"/>
<path style="fill:#2DA1DC;" d="M180,268.891c0-47.747,36.758-86.905,83.521-90.729c-2.48-0.203-4.988-0.311-7.521-0.311
	c-50.281,0-91.04,40.76-91.04,91.04s40.76,91.04,91.04,91.04c2.533,0,5.04-0.108,7.521-0.312
	C216.758,355.795,180,316.638,180,268.891z"/>
<g>
	<path style="fill:#1A2B63;" d="M246.206,247.6l-28.903-28.903c-2.929-2.929-7.678-2.929-10.606,0
		c-2.929,2.929-2.929,7.678,0,10.606l28.602,28.602C237.705,253.39,241.544,249.753,246.206,247.6z"/>
	<path style="fill:#1A2B63;" d="M289.303,290.697l-12.012-12.012c-2.153,4.662-5.79,8.501-10.306,10.907l11.711,11.711
		c1.464,1.464,3.384,2.197,5.303,2.197s3.839-0.732,5.303-2.197C292.232,298.375,292.232,293.625,289.303,290.697z"/>
</g>
<path style="fill:#FFFFFF;" d="M367,276c0,2.75-2.25,5-5,5h-45c-2.75,0-5-2.25-5-5v-12c0-2.75,2.25-5,5-5h45c2.75,0,5,2.25,5,5V276z
	"/>
<path style="fill:#EEF6FF;" d="M327,276v-12c0-2.75,2.25-5,5-5h-15c-2.75,0-5,2.25-5,5v12c0,2.75,2.25,5,5,5h15
	C329.25,281,327,278.75,327,276z"/>
<g>
	<path style="fill:#293D7C;" d="M232.772,272.018l-27.335,23.617c-0.722,0.623-1.15,1.518-1.185,2.472
		c-0.036,0.954,0.328,1.878,1.003,2.553l18.963,18.963c0.674,0.674,1.598,1.037,2.552,1.002c0.953-0.035,1.849-0.464,2.472-1.186
		l23.608-27.323C242.432,290.709,234.168,282.438,232.772,272.018z"/>
	<path style="fill:#293D7C;" d="M349.551,175.325c-1.272-1.271-3.31-1.345-4.671-0.17l-82.414,71.206
		c7.728,2.221,13.827,8.316,16.057,16.041l71.199-82.405C350.896,178.636,350.823,176.598,349.551,175.325z"/>
</g>
<g>
	<path style="fill:#1A2B63;" d="M234.855,279.006c-1.04-2.166-1.752-4.518-2.083-6.989l-27.335,23.617
		c-0.722,0.623-1.15,1.518-1.185,2.472c-0.036,0.954,0.328,1.878,1.003,2.553l4.715,4.715c-0.674-0.675-1.038-1.599-1.002-2.553
		c0.035-0.953,0.463-1.849,1.185-2.472L234.855,279.006z"/>
	<path style="fill:#1A2B63;" d="M349.551,175.325c-1.272-1.271-3.31-1.345-4.671-0.17l-82.414,71.206
		c2.377,0.683,4.603,1.728,6.607,3.08l80.521-69.571c0.137-0.118,0.286-0.215,0.436-0.309
		C350.86,178.228,350.694,176.469,349.551,175.325z"/>
</g>
<circle style="fill:#445EA0;" cx="256" cy="268.89" r="24.443"/>
<path style="fill:#2E4C89;" d="M244,268.891c0-11.35,7.736-20.89,18.222-23.642c-1.987-0.521-4.071-0.801-6.222-0.801
	c-13.499,0-24.443,10.943-24.443,24.443S242.5,293.333,256,293.333c2.15,0,4.235-0.28,6.222-0.802
	C251.736,289.779,244,280.24,244,268.891z"/>
<path style="fill:#FFFFFF;" d="M256,277.098c-4.525,0-8.207-3.682-8.207-8.207c0-4.526,3.682-8.207,8.207-8.207
	s8.207,3.681,8.207,8.207C264.207,273.416,260.525,277.098,256,277.098z"/>
<g>
	<path style="fill:#445EA0;" d="M147.972,168.362c1.919,0,3.839-0.732,5.303-2.197c2.929-2.929,2.929-7.678,0-10.606l-10.888-10.888
		c-3.689,3.377-7.229,6.917-10.606,10.606l10.888,10.888C144.133,167.63,146.052,168.362,147.972,168.362z"/>
	<path style="fill:#445EA0;" d="M110.725,268.891c0-4.142-3.358-7.5-7.5-7.5H87.753c-0.11,2.487-0.176,4.986-0.176,7.5
		s0.066,5.013,0.176,7.5h15.472C107.367,276.391,110.725,273.033,110.725,268.891z"/>
	<path style="fill:#445EA0;" d="M424.247,261.391h-15.472c-4.142,0-7.5,3.358-7.5,7.5s3.358,7.5,7.5,7.5h15.472
		c0.11-2.487,0.176-4.986,0.176-7.5C424.423,266.377,424.357,263.878,424.247,261.391z"/>
	<path style="fill:#445EA0;" d="M256,100.468c-2.514,0-5.013,0.066-7.5,0.176v15.472c0,4.142,3.358,7.5,7.5,7.5s7.5-3.358,7.5-7.5
		v-15.472C261.013,100.534,258.514,100.468,256,100.468z"/>
	<path style="fill:#445EA0;" d="M256,414.165c-4.142,0-7.5,3.358-7.5,7.5v15.472c2.487,0.109,4.986,0.175,7.5,0.175
		s5.013-0.066,7.5-0.175v-15.472C263.5,417.523,260.142,414.165,256,414.165z"/>
	<path style="fill:#445EA0;" d="M358.725,371.616c-2.929,2.929-2.929,7.678,0,10.607l10.888,10.887
		c3.689-3.378,7.229-6.917,10.606-10.607l-10.888-10.887C366.403,368.686,361.654,368.687,358.725,371.616z"/>
	<path style="fill:#445EA0;" d="M358.725,166.165c1.464,1.464,3.384,2.197,5.303,2.197s3.839-0.732,5.303-2.197l10.888-10.888
		c-3.377-3.69-6.917-7.229-10.606-10.606l-10.888,10.888C355.796,158.488,355.796,163.237,358.725,166.165z"/>
	<path style="fill:#445EA0;" d="M153.275,371.616c-2.928-2.929-7.677-2.929-10.606,0l-10.888,10.887
		c3.378,3.69,6.917,7.229,10.606,10.607l10.888-10.887C156.204,379.294,156.204,374.545,153.275,371.616z"/>
</g>
<path style="fill:#EA2A3D;" d="M317.267,46.481c0,2.75-2.25,5-5,5H199.733c-2.75,0-5-2.25-5-5V5c0-2.75,2.25-5,5-5h112.534
	c2.75,0,5,2.25,5,5V46.481z"/>
<path style="fill:#B7092B;" d="M225.466,46.481V5c0-2.75,2.25-5,5-5h-30.733c-2.75,0-5,2.25-5,5v41.481c0,2.75,2.25,5,5,5h30.733
	C227.716,51.481,225.466,49.231,225.466,46.481z"/>
<path style="fill:#2E4C89;" d="M256,71.791c-108.681,0-197.099,88.419-197.099,197.1S147.319,465.99,256,465.99
	s197.099-88.418,197.099-197.099S364.681,71.791,256,71.791z M256,436.313c-92.465,0-167.423-74.957-167.423-167.422
	S163.535,101.468,256,101.468s167.423,74.957,167.423,167.423C423.423,361.355,348.465,436.313,256,436.313z"/>
<path style="fill:#293D7C;" d="M74,268.891C74,162.739,158.355,75.933,263.55,71.95c-2.506-0.095-5.021-0.159-7.55-0.159
	c-108.681,0-197.099,88.419-197.099,197.1S147.319,465.99,256,465.99c2.529,0,5.043-0.064,7.55-0.159
	C158.355,461.848,74,375.042,74,268.891z"/>
<g>
</g>
<g>
</g>
<g>
</g>
<g>
</g>
<g>
</g>
<g>
</g>
<g>
</g>
<g>
</g>
<g>
</g>
<g>
</g>
<g>
</g>
<g>
</g>
<g>
</g>
<g>
</g>
<g>
</g>
</svg>
