<?xml version="1.0" encoding="iso-8859-1"?>
<!-- Generator: Adobe Illustrator 19.0.0, SVG Export Plug-In . SVG Version: 6.00 Build 0)  -->
<svg version="1.1" id="Capa_1" xmlns="http://www.w3.org/2000/svg" xmlns:xlink="http://www.w3.org/1999/xlink" x="0px" y="0px"
	 viewBox="0 0 512 512" style="enable-background:new 0 0 512 512;" xml:space="preserve">
<rect x="114.759" y="150.069" style="fill:#DD352E;" width="282.483" height="335.448"/>
<g>
	<path style="fill:#B02721;" d="M397.241,158.897H114.759V8.828c0-4.873,3.955-8.828,8.828-8.828h264.828
		c4.873,0,8.828,3.955,8.828,8.828V158.897z"/>
	<path style="fill:#B02721;" d="M300.138,238.345h-88.276V220.69c0-9.754,7.901-17.655,17.655-17.655h52.966
		c9.754,0,17.655,7.901,17.655,17.655V238.345z"/>
</g>
<path style="fill:#8C1B1B;" d="M282.483,335.448h-52.966c-9.754,0-17.655-7.901-17.655-17.655v-79.448h88.276v79.448
	C300.138,327.548,292.237,335.448,282.483,335.448z"/>
<g>
	<path style="fill:#E7ECED;" d="M388.414,512H123.586c-4.873,0-8.828-3.955-8.828-8.828V476.69h282.483v26.483
		C397.241,508.045,393.287,512,388.414,512z"/>
	<path style="fill:#E7ECED;" d="M158.897,132.414c-4.882,0-8.828-3.955-8.828-8.828V44.138c0-4.873,3.946-8.828,8.828-8.828
		c4.882,0,8.828,3.955,8.828,8.828v79.448C167.724,128.459,163.778,132.414,158.897,132.414z"/>
	<path style="fill:#E7ECED;" d="M158.897,441.379c-4.882,0-8.828-3.955-8.828-8.828V194.207c0-4.873,3.946-8.828,8.828-8.828
		c4.882,0,8.828,3.955,8.828,8.828v238.345C167.724,437.425,163.778,441.379,158.897,441.379z"/>
</g>
<path style="fill:#8C1B1B;" d="M291.31,79.448H220.69c-4.873,0-8.828-3.955-8.828-8.828V52.966c0-4.873,3.955-8.828,8.828-8.828
	h70.621c4.873,0,8.828,3.955,8.828,8.828v17.655C300.138,75.494,296.183,79.448,291.31,79.448z"/>
<g>
	<path style="fill:#B02721;" d="M397.241,388.414h-26.483c-4.882,0-8.828,3.955-8.828,8.828c0,4.873,3.946,8.828,8.828,8.828h26.483
		V388.414z"/>
	<path style="fill:#B02721;" d="M397.241,423.724h-44.138c-4.882,0-8.828,3.955-8.828,8.828s3.946,8.828,8.828,8.828h44.138V423.724
		z"/>
</g>
<g>
</g>
<g>
</g>
<g>
</g>
<g>
</g>
<g>
</g>
<g>
</g>
<g>
</g>
<g>
</g>
<g>
</g>
<g>
</g>
<g>
</g>
<g>
</g>
<g>
</g>
<g>
</g>
<g>
</g>
</svg>
