<?xml version="1.0" encoding="iso-8859-1"?>
<!-- Generator: Adobe Illustrator 19.0.0, SVG Export Plug-In . SVG Version: 6.00 Build 0)  -->
<svg version="1.1" id="Capa_1" xmlns="http://www.w3.org/2000/svg" xmlns:xlink="http://www.w3.org/1999/xlink" x="0px" y="0px"
	 viewBox="0 0 512 512" style="enable-background:new 0 0 512 512;" xml:space="preserve">
<g>
	<path style="fill:#E7ECED;" d="M220.69,52.966H79.448c-4.882,0-8.828-3.955-8.828-8.828V26.483C70.621,11.882,82.503,0,97.103,0
		h17.655c4.882,0,8.828,3.955,8.828,8.828s-3.946,8.828-8.828,8.828H97.103c-4.873,0-8.828,3.964-8.828,8.828v8.828h123.586v-8.828
		c0-4.864-3.955-8.828-8.828-8.828h-17.655c-4.882,0-8.828-3.955-8.828-8.828S180.498,0,185.379,0h17.655
		c14.601,0,26.483,11.882,26.483,26.483v17.655C229.517,49.011,225.571,52.966,220.69,52.966z"/>
	<path style="fill:#E7ECED;" d="M432.552,52.966H291.31c-4.882,0-8.828-3.955-8.828-8.828V26.483
		C282.483,11.882,294.365,0,308.966,0h17.655c4.882,0,8.828,3.955,8.828,8.828s-3.946,8.828-8.828,8.828h-17.655
		c-4.873,0-8.828,3.964-8.828,8.828v8.828h123.586v-8.828c0-4.864-3.955-8.828-8.828-8.828h-17.655
		c-4.882,0-8.828-3.955-8.828-8.828S392.36,0,397.241,0h17.655c14.601,0,26.483,11.882,26.483,26.483v17.655
		C441.379,49.011,437.433,52.966,432.552,52.966z"/>
</g>
<path style="fill:#7383BF;" d="M52.966,512h406.069c9.754,0,17.655-7.901,17.655-17.655V52.966c0-9.754-7.901-17.655-17.655-17.655
	H52.966c-9.754,0-17.655,7.901-17.655,17.655v441.379C35.31,504.099,43.211,512,52.966,512z"/>
<path style="fill:#556080;" d="M476.69,141.241H35.31V52.966c0-9.754,7.901-17.655,17.655-17.655h406.069
	c9.754,0,17.655,7.901,17.655,17.655V141.241z"/>
<path style="fill:#C6E2F7;" d="M344.276,432.552H167.724c-29.255,0-52.966-23.711-52.966-52.966V220.69h282.483v158.897
	C397.241,408.841,373.53,432.552,344.276,432.552z"/>
<path style="fill:#556080;" d="M185.379,512h-79.448v-17.655c0-9.754,7.901-17.655,17.655-17.655h44.138
	c9.754,0,17.655,7.901,17.655,17.655V512z"/>
<g>
	<path style="fill:#9EBACC;" d="M150.069,308.966c-2.26,0-4.52-0.865-6.241-2.586c-3.452-3.452-3.452-9.031,0-12.482l44.138-44.138
		c3.452-3.452,9.031-3.452,12.482,0c3.452,3.452,3.452,9.031,0,12.482l-44.138,44.138
		C154.589,308.1,152.329,308.966,150.069,308.966z"/>
	<path style="fill:#9EBACC;" d="M211.862,291.31c-2.26,0-4.52-0.865-6.241-2.586c-3.452-3.452-3.452-9.031,0-12.482l26.483-26.483
		c3.452-3.452,9.031-3.452,12.482,0c3.452,3.452,3.452,9.031,0,12.482l-26.483,26.483
		C216.382,290.445,214.122,291.31,211.862,291.31z"/>
	<path style="fill:#9EBACC;" d="M150.069,353.103c-2.26,0-4.52-0.865-6.241-2.586c-3.452-3.452-3.452-9.031,0-12.482l17.655-17.655
		c3.452-3.452,9.031-3.452,12.482,0c3.452,3.452,3.452,9.031,0,12.482l-17.655,17.655
		C154.589,352.238,152.329,353.103,150.069,353.103z"/>
	<path style="fill:#9EBACC;" d="M185.379,317.793c-2.26,0-4.52-0.865-6.241-2.586c-3.452-3.452-3.452-9.031,0-12.482l8.828-8.828
		c3.452-3.452,9.031-3.452,12.482,0c3.452,3.452,3.452,9.031,0,12.482l-8.828,8.828
		C189.899,316.928,187.639,317.793,185.379,317.793z"/>
</g>
<path style="fill:#556080;" d="M397.241,220.69H114.759c-9.754,0-17.655-7.901-17.655-17.655l0,0
	c0-9.754,7.901-17.655,17.655-17.655h282.483c9.754,0,17.655,7.901,17.655,17.655l0,0
	C414.897,212.789,406.996,220.69,397.241,220.69z"/>
<path style="fill:#DC691D;" d="M291.31,105.931H220.69c-4.873,0-8.828-3.955-8.828-8.828V79.448c0-4.873,3.955-8.828,8.828-8.828
	h70.621c4.873,0,8.828,3.955,8.828,8.828v17.655C300.138,101.976,296.183,105.931,291.31,105.931z"/>
<g>
	<path style="fill:#424C66;" d="M150.069,114.759c-4.882,0-8.828-3.955-8.828-8.828v-35.31c0-4.873,3.946-8.828,8.828-8.828
		c4.882,0,8.828,3.955,8.828,8.828v35.31C158.897,110.804,154.951,114.759,150.069,114.759z"/>
	<path style="fill:#424C66;" d="M97.103,114.759c-4.882,0-8.828-3.955-8.828-8.828v-35.31c0-4.873,3.946-8.828,8.828-8.828
		s8.828,3.955,8.828,8.828v35.31C105.931,110.804,101.985,114.759,97.103,114.759z"/>
	<path style="fill:#424C66;" d="M414.897,114.759c-4.882,0-8.828-3.955-8.828-8.828v-35.31c0-4.873,3.946-8.828,8.828-8.828
		c4.882,0,8.828,3.955,8.828,8.828v35.31C423.724,110.804,419.778,114.759,414.897,114.759z"/>
	<path style="fill:#424C66;" d="M361.931,114.759c-4.882,0-8.828-3.955-8.828-8.828v-35.31c0-4.873,3.946-8.828,8.828-8.828
		c4.882,0,8.828,3.955,8.828,8.828v35.31C370.759,110.804,366.813,114.759,361.931,114.759z"/>
</g>
<g>
</g>
<g>
</g>
<g>
</g>
<g>
</g>
<g>
</g>
<g>
</g>
<g>
</g>
<g>
</g>
<g>
</g>
<g>
</g>
<g>
</g>
<g>
</g>
<g>
</g>
<g>
</g>
<g>
</g>
</svg>
