<?xml version="1.0" encoding="iso-8859-1"?>
<!-- Generator: Adobe Illustrator 19.0.0, SVG Export Plug-In . SVG Version: 6.00 Build 0)  -->
<svg version="1.1" id="Capa_1" xmlns="http://www.w3.org/2000/svg" xmlns:xlink="http://www.w3.org/1999/xlink" x="0px" y="0px"
	 viewBox="0 0 512 512" style="enable-background:new 0 0 512 512;" xml:space="preserve">
<path style="fill:#E7ECED;" d="M52.966,512h406.069c9.754,0,17.655-7.901,17.655-17.655V52.966c0-9.754-7.901-17.655-17.655-17.655
	H52.966c-9.754,0-17.655,7.901-17.655,17.655v441.379C35.31,504.099,43.211,512,52.966,512z"/>
<g>
	<path style="fill:#DD352E;" d="M229.517,44.138H70.621V17.655C70.621,7.901,78.521,0,88.276,0h123.586
		c9.754,0,17.655,7.901,17.655,17.655V44.138z"/>
	<path style="fill:#DD352E;" d="M282.483,52.966h158.897v-35.31C441.379,7.901,433.479,0,423.724,0H300.138
		c-9.754,0-17.655,7.901-17.655,17.655V52.966z"/>
</g>
<path style="fill:#AFB6BB;" d="M476.69,141.241H35.31V52.966c0-9.754,7.901-17.655,17.655-17.655h406.069
	c9.754,0,17.655,7.901,17.655,17.655V141.241z"/>
<g>
	<rect x="211.862" y="70.621" style="fill:#FFFFFF;" width="88.276" height="35.31"/>
	<rect x="141.241" y="70.621" style="fill:#FFFFFF;" width="35.31" height="35.31"/>
	<rect x="70.621" y="70.621" style="fill:#FFFFFF;" width="35.31" height="35.31"/>
	<rect x="406.069" y="70.621" style="fill:#FFFFFF;" width="35.31" height="35.31"/>
	<rect x="335.448" y="70.621" style="fill:#FFFFFF;" width="35.31" height="35.31"/>
</g>
<rect x="79.448" y="176.552" style="fill:#9EBACC;" width="353.103" height="52.966"/>
<rect x="79.448" y="229.517" style="fill:#C6E2F7;" width="353.103" height="211.862"/>
<path style="fill:#AFB6BB;" d="M185.379,512h-79.448v-17.655c0-9.754,7.901-17.655,17.655-17.655h44.138
	c9.754,0,17.655,7.901,17.655,17.655V512z"/>
<g>
	<path style="fill:#9EBACC;" d="M114.759,317.793c-2.26,0-4.52-0.865-6.241-2.586c-3.452-3.452-3.452-9.031,0-12.482l44.138-44.138
		c3.452-3.452,9.031-3.452,12.482,0c3.452,3.452,3.452,9.031,0,12.482L121,315.207C119.278,316.928,117.018,317.793,114.759,317.793
		z"/>
	<path style="fill:#9EBACC;" d="M176.552,300.138c-2.26,0-4.52-0.865-6.241-2.586c-3.452-3.452-3.452-9.031,0-12.482l26.483-26.483
		c3.452-3.452,9.031-3.452,12.482,0c3.452,3.452,3.452,9.031,0,12.482l-26.483,26.483
		C181.071,299.273,178.812,300.138,176.552,300.138z"/>
	<path style="fill:#9EBACC;" d="M114.759,361.931c-2.26,0-4.52-0.865-6.241-2.586c-3.452-3.452-3.452-9.031,0-12.482l17.655-17.655
		c3.452-3.452,9.031-3.452,12.482,0c3.452,3.452,3.452,9.031,0,12.482L121,359.345C119.278,361.066,117.018,361.931,114.759,361.931
		z"/>
	<path style="fill:#9EBACC;" d="M150.069,326.621c-2.26,0-4.52-0.865-6.241-2.586c-3.452-3.452-3.452-9.031,0-12.482l8.828-8.828
		c3.452-3.452,9.031-3.452,12.482,0c3.452,3.452,3.452,9.031,0,12.482l-8.828,8.828
		C154.589,325.756,152.329,326.621,150.069,326.621z"/>
</g>
<g>
</g>
<g>
</g>
<g>
</g>
<g>
</g>
<g>
</g>
<g>
</g>
<g>
</g>
<g>
</g>
<g>
</g>
<g>
</g>
<g>
</g>
<g>
</g>
<g>
</g>
<g>
</g>
<g>
</g>
</svg>
