<?xml version="1.0" encoding="iso-8859-1"?>
<!-- Generator: Adobe Illustrator 19.0.0, SVG Export Plug-In . SVG Version: 6.00 Build 0)  -->
<svg version="1.1" id="Capa_1" xmlns="http://www.w3.org/2000/svg" xmlns:xlink="http://www.w3.org/1999/xlink" x="0px" y="0px"
	 viewBox="0 0 512 512" style="enable-background:new 0 0 512 512;" xml:space="preserve">
<path style="fill:#E7ECED;" d="M176.552,70.621h-70.621V52.966c0-9.754,7.901-17.655,17.655-17.655h44.138
	c9.754,0,17.655-7.901,17.655-17.655l0,0C185.379,7.901,177.479,0,167.724,0h-61.793c-19.5,0-35.31,15.81-35.31,35.31l0,0v158.897
	h35.31v-88.276h70.621c9.754,0,17.655,7.901,17.655,17.655v8.828c0,4.873,3.955,8.828,8.828,8.828h17.655
	c4.873,0,8.828-3.955,8.828-8.828v-8.828C229.517,94.332,205.806,70.621,176.552,70.621z"/>
<path style="fill:#7383BF;" d="M308.966,344.276L308.966,344.276c29.255,0,44.138-23.711,44.138-52.966h44.138
	c36.864,0,70.621-30.005,70.621-66.869V202.92c0-9.754-7.901-17.54-17.655-17.54H44.138V512h88.276
	c9.684,0,17.638-16.799,17.752-26.483l0,0c-0.053-77.992,63.153-141.241,141.144-141.241H308.966z"/>
<path style="fill:#556080;" d="M353.103,300.138L353.103,300.138l-220.69-0.124c-4.873,0-8.828-3.955-8.828-8.828
	c0-4.873,3.955-8.828,8.828-8.828l0,0l220.69,0.124c4.873,0,8.828,3.955,8.828,8.828
	C361.931,296.183,357.976,300.138,353.103,300.138z"/>
<g>
</g>
<g>
</g>
<g>
</g>
<g>
</g>
<g>
</g>
<g>
</g>
<g>
</g>
<g>
</g>
<g>
</g>
<g>
</g>
<g>
</g>
<g>
</g>
<g>
</g>
<g>
</g>
<g>
</g>
</svg>
