<?xml version="1.0" encoding="iso-8859-1"?>
<!-- Generator: Adobe Illustrator 19.0.0, SVG Export Plug-In . SVG Version: 6.00 Build 0)  -->
<svg version="1.1" id="Capa_1" xmlns="http://www.w3.org/2000/svg" xmlns:xlink="http://www.w3.org/1999/xlink" x="0px" y="0px"
	 viewBox="0 0 512 512" style="enable-background:new 0 0 512 512;" xml:space="preserve">
<g>
	<path style="fill:#556080;" d="M93.867,422.4H51.2c-4.71,0-8.533-3.823-8.533-8.533v-34.133H102.4v34.133
		C102.4,418.577,98.577,422.4,93.867,422.4z"/>
	<path style="fill:#556080;" d="M418.133,422.4H460.8c4.71,0,8.533-3.823,8.533-8.533v-34.133H409.6v34.133
		C409.6,418.577,413.423,422.4,418.133,422.4z"/>
</g>
<path style="fill:#7383BF;" d="M486.4,81.067H25.6c-9.421,0-17.067,7.637-17.067,17.067V371.2c0,9.429,7.646,17.067,17.067,17.067
	h460.8c9.421,0,17.067-7.637,17.067-17.067V98.133C503.467,88.704,495.821,81.067,486.4,81.067z"/>
<path style="fill:#C6E2F7;" d="M384,149.333c0-18.85-15.283-34.133-34.133-34.133H76.8c-18.85,0-34.133,15.283-34.133,34.133V320
	c0,18.85,15.283,34.133,34.133,34.133h273.067C368.717,354.133,384,338.85,384,320V149.333z"/>
<g>
	<path style="fill:#7BA5D7;" d="M76.8,200.533c-2.185,0-4.369-0.836-6.033-2.5c-3.337-3.337-3.337-8.73,0-12.066l42.667-42.667
		c3.337-3.337,8.73-3.337,12.066,0s3.337,8.73,0,12.066l-42.667,42.667C81.169,199.697,78.985,200.533,76.8,200.533z"/>
	<path style="fill:#7BA5D7;" d="M136.533,183.467c-2.185,0-4.369-0.836-6.033-2.5c-3.337-3.337-3.337-8.73,0-12.066l25.6-25.6
		c3.337-3.337,8.73-3.337,12.066,0c3.337,3.337,3.337,8.73,0,12.066l-25.6,25.6C140.902,182.63,138.718,183.467,136.533,183.467z"/>
	<path style="fill:#7BA5D7;" d="M76.8,243.2c-2.185,0-4.369-0.836-6.033-2.5c-3.337-3.337-3.337-8.73,0-12.066l17.067-17.067
		c3.337-3.337,8.73-3.337,12.066,0s3.337,8.73,0,12.066L82.833,240.7C81.169,242.364,78.985,243.2,76.8,243.2z"/>
	<path style="fill:#7BA5D7;" d="M110.933,209.067c-2.185,0-4.369-0.836-6.033-2.5c-3.337-3.337-3.337-8.73,0-12.066l8.533-8.533
		c3.337-3.337,8.73-3.337,12.066,0s3.337,8.73,0,12.066l-8.533,8.533C115.302,208.23,113.118,209.067,110.933,209.067z"/>
</g>
<path style="fill:#FFFFFF;" d="M341.333,302.933H307.2c-4.719,0-8.533-3.823-8.533-8.533V174.933c0-4.71,3.814-8.533,8.533-8.533
	h34.133c4.719,0,8.533,3.823,8.533,8.533c0,4.71-3.814,8.533-8.533,8.533h-25.6v102.4h25.6c4.719,0,8.533,3.823,8.533,8.533
	C349.867,299.11,346.052,302.933,341.333,302.933z"/>
<path style="fill:#28384C;" d="M503.467,430.933H8.533C3.814,430.933,0,427.11,0,422.4s3.814-8.533,8.533-8.533h494.933
	c4.719,0,8.533,3.823,8.533,8.533S508.186,430.933,503.467,430.933z"/>
<g>
	<path style="fill:#556080;" d="M443.733,174.933c-18.825,0-34.133-15.309-34.133-34.133s15.309-34.133,34.133-34.133
		c18.825,0,34.133,15.309,34.133,34.133S462.558,174.933,443.733,174.933z M443.733,123.733c-9.412,0-17.067,7.654-17.067,17.067
		c0,9.412,7.654,17.067,17.067,17.067c9.412,0,17.067-7.654,17.067-17.067S453.146,123.733,443.733,123.733z"/>
	<path style="fill:#556080;" d="M443.733,362.667c-18.825,0-34.133-15.309-34.133-34.133s15.309-34.133,34.133-34.133
		c18.825,0,34.133,15.309,34.133,34.133S462.558,362.667,443.733,362.667z M443.733,311.467c-9.412,0-17.067,7.654-17.067,17.067
		c0,9.412,7.654,17.067,17.067,17.067c9.412,0,17.067-7.654,17.067-17.067C460.8,319.121,453.146,311.467,443.733,311.467z"/>
	<path style="fill:#556080;" d="M426.667,209.067c-4.719,0-8.533-3.823-8.533-8.533V192c0-4.71,3.814-8.533,8.533-8.533
		S435.2,187.29,435.2,192v8.533C435.2,205.244,431.386,209.067,426.667,209.067z"/>
	<path style="fill:#556080;" d="M460.8,209.067c-4.719,0-8.533-3.823-8.533-8.533V192c0-4.71,3.814-8.533,8.533-8.533
		c4.719,0,8.533,3.823,8.533,8.533v8.533C469.333,205.244,465.519,209.067,460.8,209.067z"/>
	<path style="fill:#556080;" d="M426.667,243.2c-4.719,0-8.533-3.823-8.533-8.533v-8.533c0-4.71,3.814-8.533,8.533-8.533
		s8.533,3.823,8.533,8.533v8.533C435.2,239.377,431.386,243.2,426.667,243.2z"/>
	<path style="fill:#556080;" d="M460.8,243.2c-4.719,0-8.533-3.823-8.533-8.533v-8.533c0-4.71,3.814-8.533,8.533-8.533
		c4.719,0,8.533,3.823,8.533,8.533v8.533C469.333,239.377,465.519,243.2,460.8,243.2z"/>
	<path style="fill:#556080;" d="M426.667,277.333c-4.719,0-8.533-3.823-8.533-8.533v-8.533c0-4.71,3.814-8.533,8.533-8.533
		s8.533,3.823,8.533,8.533v8.533C435.2,273.51,431.386,277.333,426.667,277.333z"/>
	<path style="fill:#556080;" d="M460.8,277.333c-4.719,0-8.533-3.823-8.533-8.533v-8.533c0-4.71,3.814-8.533,8.533-8.533
		c4.719,0,8.533,3.823,8.533,8.533v8.533C469.333,273.51,465.519,277.333,460.8,277.333z"/>
</g>
<g>
</g>
<g>
</g>
<g>
</g>
<g>
</g>
<g>
</g>
<g>
</g>
<g>
</g>
<g>
</g>
<g>
</g>
<g>
</g>
<g>
</g>
<g>
</g>
<g>
</g>
<g>
</g>
<g>
</g>
</svg>
