<?xml version="1.0" encoding="iso-8859-1"?>
<!-- Generator: Adobe Illustrator 19.0.0, SVG Export Plug-In . SVG Version: 6.00 Build 0)  -->
<svg version="1.1" id="Capa_1" xmlns="http://www.w3.org/2000/svg" xmlns:xlink="http://www.w3.org/1999/xlink" x="0px" y="0px"
	 viewBox="0 0 512 512" style="enable-background:new 0 0 512 512;" xml:space="preserve">
<path style="fill:#71C3A9;" d="M317.793,163.31H194.207l5.95-89.079c1.624-19.509,17.929-34.507,37.5-34.507h36.687
	c19.571,0,35.875,14.998,37.5,34.507L317.793,163.31z"/>
<path style="fill:#5AA38B;" d="M246.298,92.69h19.403c9.269,0,16.781-7.512,16.781-16.781V40.695
	c-2.631-0.583-5.341-0.971-8.139-0.971h-36.687c-2.798,0-5.508,0.388-8.139,0.971v35.213C229.517,85.177,237.03,92.69,246.298,92.69
	z"/>
<g>
	<path style="fill:#71C3A9;" d="M158.897,154.483h-35.31V83.862c0-4.873,3.955-8.828,8.828-8.828h17.655
		c4.873,0,8.828,3.955,8.828,8.828V154.483z"/>
	<path style="fill:#71C3A9;" d="M388.414,154.483h-35.31V83.862c0-4.873,3.955-8.828,8.828-8.828h17.655
		c4.873,0,8.828,3.955,8.828,8.828V154.483z"/>
</g>
<path style="fill:#5AA38B;" d="M328.086,454.621c-11.061-35.134-17.39-104.271-18.741-141.241
	c-17.329,1.854-35.213,2.71-53.336,2.71s-36.017-0.856-53.345-2.71c-1.351,36.97-7.68,106.108-18.741,141.241H328.086z"/>
<path style="fill:#71C3A9;" d="M344.276,472.276H167.724c-9.754,0-17.655-7.901-17.655-17.655l0,0
	c0-9.754,7.901-17.655,17.655-17.655h176.552c9.754,0,17.655,7.901,17.655,17.655l0,0
	C361.931,464.375,354.03,472.276,344.276,472.276z"/>
<path style="fill:#5AA38B;" d="M494.345,180.966H17.655C7.901,180.966,0,173.065,0,163.31l0,0c0-9.754,7.901-17.655,17.655-17.655
	h476.69c9.754,0,17.655,7.901,17.655,17.655l0,0C512,173.065,504.099,180.966,494.345,180.966z"/>
<path style="fill:#71C3A9;" d="M17.655,180.966C30.791,295.239,138.205,331.034,256,331.034s225.209-35.796,238.345-150.069H17.655z
	"/>
<path style="fill:#5AA38B;" d="M256,304.552c-106.275,0-173.665-28.425-200.324-84.489c-2.092-4.405-0.221-9.666,4.184-11.767
	c4.387-2.092,9.666-0.221,11.767,4.184c23.464,49.382,85.504,74.417,184.373,74.417c4.873,0,8.828,3.955,8.828,8.828
	C264.828,300.597,260.873,304.552,256,304.552z"/>
<g>
</g>
<g>
</g>
<g>
</g>
<g>
</g>
<g>
</g>
<g>
</g>
<g>
</g>
<g>
</g>
<g>
</g>
<g>
</g>
<g>
</g>
<g>
</g>
<g>
</g>
<g>
</g>
<g>
</g>
</svg>
