<?xml version="1.0" encoding="iso-8859-1"?>
<!-- Generator: Adobe Illustrator 19.0.0, SVG Export Plug-In . SVG Version: 6.00 Build 0)  -->
<svg version="1.1" id="Capa_1" xmlns="http://www.w3.org/2000/svg" xmlns:xlink="http://www.w3.org/1999/xlink" x="0px" y="0px"
	 viewBox="0 0 512 512" style="enable-background:new 0 0 512 512;" xml:space="preserve">
<g>
	<path style="fill:#BE7C6D;" d="M450.207,392.828c6.179,11.396,13.277,24.567,10.787,38.524c-0.062,0.344-0.124,0.689-0.185,1.024
		c-4.255,24.497-1.598,44.553,14.963,65.245l0.918,1.139h-7.751c-38.78,0-54.502-46.539-53.601-67.407
		c0.68-16.013-3.549-28.707-9.269-38.524H450.207z"/>
	<path style="fill:#BE7C6D;" d="M61.793,392.828c-6.179,11.396-13.277,24.567-10.787,38.524c0.062,0.344,0.124,0.689,0.185,1.024
		c4.255,24.497,1.598,44.553-14.963,65.245l-0.918,1.139h7.751c38.78,0,54.502-46.539,53.601-67.407
		c-0.68-16.013,3.549-28.707,9.269-38.524H61.793z"/>
</g>
<path style="fill:#E7E2E3;" d="M256,13.241H41.807C18.714,13.241,0,31.956,0,55.049v110.592c0,23.093,18.714,41.807,41.807,41.807
	H256h214.193c23.093,0,41.807-18.714,41.807-41.807V55.049c0-23.093-18.714-41.807-41.807-41.807H256z"/>
<path style="fill:#BAB5B1;" d="M256,207.448H41.807C18.714,207.448,0,226.163,0,249.256v110.592
	c0,23.093,18.714,41.807,41.807,41.807H256h214.193c23.093,0,41.807-18.714,41.807-41.807V249.256
	c0-23.093-18.714-41.807-41.807-41.807H256z"/>
<rect x="291.31" y="172.138" style="fill:#EBBA16;" width="167.724" height="35.31"/>
<rect x="308.966" y="136.828" style="fill:#DC691D;" width="132.414" height="35.31"/>
<rect x="326.621" y="101.517" style="fill:#DD352E;" width="97.103" height="35.31"/>
<rect x="344.276" y="66.207" style="fill:#B02721;" width="61.793" height="35.31"/>
<rect x="158.897" y="66.207" style="fill:#366DB6;" width="35.31" height="141.241"/>
<rect x="88.276" y="66.207" style="fill:#61B872;" width="35.31" height="141.241"/>
<rect x="194.207" y="92.69" style="fill:#DD352E;" width="35.31" height="114.759"/>
<rect x="52.966" y="92.69" style="fill:#EBBA16;" width="35.31" height="114.759"/>
<rect x="123.586" y="92.69" style="fill:#A485BE;" width="35.31" height="114.759"/>
<g>
	<path style="fill:#FFFFFF;" d="M114.759,322.207c-2.26,0-4.52-0.865-6.241-2.586c-3.452-3.452-3.452-9.031,0-12.482l35.31-35.31
		c3.452-3.452,9.031-3.452,12.482,0c3.452,3.452,3.452,9.031,0,12.482L121,319.62C119.278,321.342,117.018,322.207,114.759,322.207z
		"/>
	<path style="fill:#FFFFFF;" d="M114.759,322.207c-2.26,0-4.52-0.865-6.241-2.586l-35.31-35.31c-3.452-3.452-3.452-9.031,0-12.482
		c3.452-3.452,9.031-3.452,12.482,0l35.31,35.31c3.452,3.452,3.452,9.031,0,12.482C119.278,321.342,117.018,322.207,114.759,322.207
		z"/>
	<path style="fill:#FFFFFF;" d="M388.414,339.862c-2.26,0-4.52-0.865-6.241-2.586c-3.452-3.452-3.452-9.031,0-12.482l35.31-35.31
		c3.452-3.452,9.031-3.452,12.482,0c3.452,3.452,3.452,9.031,0,12.482l-35.31,35.31
		C392.934,338.997,390.674,339.862,388.414,339.862z"/>
	<path style="fill:#FFFFFF;" d="M388.414,339.862c-2.26,0-4.52-0.865-6.241-2.586l-35.31-35.31c-3.452-3.452-3.452-9.031,0-12.482
		c3.452-3.452,9.031-3.452,12.482,0l35.31,35.31c3.452,3.452,3.452,9.031,0,12.482C392.934,338.997,390.674,339.862,388.414,339.862
		z"/>
	<path style="fill:#FFFFFF;" d="M247.172,304.552c-4.882,0-8.828-3.955-8.828-8.828v-44.138c0-4.873,3.946-8.828,8.828-8.828
		s8.828,3.955,8.828,8.828v44.138C256,300.597,252.054,304.552,247.172,304.552z"/>
	<path style="fill:#FFFFFF;" d="M247.172,304.552c-2.26,0-4.52-0.865-6.241-2.586c-3.452-3.452-3.452-9.031,0-12.482L267.414,263
		c3.452-3.452,9.031-3.452,12.482,0c3.452,3.452,3.452,9.031,0,12.482l-26.483,26.483
		C251.692,303.687,249.432,304.552,247.172,304.552z"/>
	<path style="fill:#FFFFFF;" d="M247.172,304.552c-2.26,0-4.52-0.865-6.241-2.586l-26.483-26.483c-3.452-3.452-3.452-9.031,0-12.482
		c3.452-3.452,9.031-3.452,12.482,0l26.483,26.483c3.452,3.452,3.452,9.031,0,12.482
		C251.692,303.687,249.432,304.552,247.172,304.552z"/>
</g>
<rect x="211.862" y="295.724" style="fill:#CB465F;" width="70.621" height="105.931"/>
<rect x="335.448" y="331.034" style="fill:#DD352E;" width="105.931" height="70.621"/>
<g>
	<rect x="70.621" y="313.379" style="fill:#366DB6;" width="88.276" height="88.276"/>
	<rect x="370.759" y="331.034" style="fill:#366DB6;" width="35.31" height="70.621"/>
</g>
<g>
</g>
<g>
</g>
<g>
</g>
<g>
</g>
<g>
</g>
<g>
</g>
<g>
</g>
<g>
</g>
<g>
</g>
<g>
</g>
<g>
</g>
<g>
</g>
<g>
</g>
<g>
</g>
<g>
</g>
</svg>
