<?xml version="1.0" encoding="iso-8859-1"?>
<!-- Generator: Adobe Illustrator 19.0.0, SVG Export Plug-In . SVG Version: 6.00 Build 0)  -->
<svg version="1.1" id="Capa_1" xmlns="http://www.w3.org/2000/svg" xmlns:xlink="http://www.w3.org/1999/xlink" x="0px" y="0px"
	 viewBox="0 0 512 512" style="enable-background:new 0 0 512 512;" xml:space="preserve">
<path style="fill:#4C2E2B;" d="M366.933,196.267H145.067H34.133v210.79h76.8c12.732,0,23.057-10.325,23.057-23.057l11.076-51.2
	h221.867L378.01,384c0,12.732,10.325,23.057,23.057,23.057h76.8v-210.79H366.933z"/>
<path style="fill:#351E1C;" d="M122.01,418.133H25.6V196.267h119.467v198.81C145.067,407.808,134.741,418.133,122.01,418.133z"/>
<rect x="25.6" y="196.267" style="fill:#4C2E2B;" width="119.467" height="85.333"/>
<path style="fill:#351E1C;" d="M486.4,418.133h-96.41c-12.732,0-23.057-10.325-23.057-23.057v-198.81H486.4V418.133z"/>
<rect x="366.933" y="196.267" style="fill:#4C2E2B;" width="119.467" height="85.333"/>
<rect x="145.067" y="196.267" style="fill:#6B4842;" width="221.867" height="85.333"/>
<rect x="145.067" y="281.6" style="fill:#4C2E2B;" width="221.867" height="51.2"/>
<g>
	<path style="fill:#6B4842;" d="M25.6,418.133h42.667l-14.387,67.908c-1.545,10.027-10.172,17.425-20.309,17.425H25.6V418.133z"/>
	<path style="fill:#6B4842;" d="M486.4,418.133h-42.667l14.387,67.908c1.545,10.027,10.172,17.425,20.309,17.425h7.97V418.133z"/>
</g>
<g>
	<path style="fill:#EBBA16;" d="M444.587,247.467h-35.84c-8.943,0-16.213-7.654-16.213-17.067c0-4.71,3.814-8.533,8.533-8.533
		c4.719,0,8.533,3.823,8.533,8.533h34.065c0.179-4.574,3.959-8.371,8.567-8.371c4.71,0,8.567,3.661,8.567,8.371
		C460.8,239.812,453.521,247.467,444.587,247.467z"/>
	<path style="fill:#EBBA16;" d="M273.92,247.467h-35.84c-8.943,0-16.213-7.654-16.213-17.067c0-4.71,3.814-8.533,8.533-8.533
		s8.533,3.823,8.533,8.533h34.065c0.179-4.574,3.959-8.371,8.567-8.371c4.71,0,8.567,3.661,8.567,8.371
		C290.133,239.812,282.854,247.467,273.92,247.467z"/>
	<path style="fill:#EBBA16;" d="M103.253,247.467h-35.84c-8.934,0-16.213-7.654-16.213-17.067c0-4.71,3.814-8.533,8.533-8.533
		s8.533,3.823,8.533,8.533h34.065c0.179-4.574,3.959-8.371,8.567-8.371c4.71,0,8.567,3.661,8.567,8.371
		C119.467,239.812,112.188,247.467,103.253,247.467z"/>
	<path style="fill:#EBBA16;" d="M444.587,332.8h-35.84c-8.943,0-16.213-7.654-16.213-17.067c0-4.71,3.814-8.533,8.533-8.533
		c4.719,0,8.533,3.823,8.533,8.533h34.065c0.179-4.574,3.959-8.371,8.567-8.371c4.71,0,8.567,3.661,8.567,8.371
		C460.8,325.146,453.521,332.8,444.587,332.8z"/>
	<path style="fill:#EBBA16;" d="M103.253,332.8h-35.84c-8.934,0-16.213-7.654-16.213-17.067c0-4.71,3.814-8.533,8.533-8.533
		s8.533,3.823,8.533,8.533h34.065c0.179-4.574,3.959-8.371,8.567-8.371c4.71,0,8.567,3.661,8.567,8.371
		C119.467,325.146,112.188,332.8,103.253,332.8z"/>
</g>
<rect x="119.467" y="8.533" style="fill:#28384C;" width="273.067" height="153.6"/>
<path style="fill:#AFB6BB;" d="M51.2,204.8c-4.719,0-8.533-3.823-8.533-8.533v-59.733c0-4.71,3.814-8.533,8.533-8.533
	s8.533,3.823,8.533,8.533v59.733C59.733,200.977,55.919,204.8,51.2,204.8z"/>
<path style="fill:#E7ECED;" d="M51.2,136.533L51.2,136.533c-14.14,0-25.6-11.46-25.6-25.6V76.8c0-14.14,11.46-25.6,25.6-25.6l0,0
	c14.14,0,25.6,11.46,25.6,25.6v34.133C76.8,125.073,65.34,136.533,51.2,136.533z"/>
<path style="fill:#AFB6BB;" d="M460.8,204.8c-4.719,0-8.533-3.823-8.533-8.533v-59.733c0-4.71,3.814-8.533,8.533-8.533
	c4.719,0,8.533,3.823,8.533,8.533v59.733C469.333,200.977,465.519,204.8,460.8,204.8z"/>
<g>
	<path style="fill:#E7ECED;" d="M460.8,136.533L460.8,136.533c-14.14,0-25.6-11.46-25.6-25.6V76.8c0-14.14,11.46-25.6,25.6-25.6l0,0
		c14.14,0,25.6,11.46,25.6,25.6v34.133C486.4,125.073,474.94,136.533,460.8,136.533z"/>
	<rect x="221.867" y="162.133" style="fill:#E7ECED;" width="68.267" height="34.133"/>
</g>
<g>
	<path style="fill:#445A72;" d="M153.6,93.867c-2.185,0-4.369-0.836-6.033-2.5c-3.337-3.337-3.337-8.73,0-12.066l42.667-42.667
		c3.337-3.337,8.73-3.337,12.066,0c3.337,3.337,3.337,8.73,0,12.066l-42.667,42.667C157.969,93.03,155.785,93.867,153.6,93.867z"/>
	<path style="fill:#445A72;" d="M196.267,136.533c-2.185,0-4.369-0.836-6.033-2.5c-3.337-3.337-3.337-8.73,0-12.066L232.9,79.3
		c3.337-3.337,8.73-3.337,12.066,0c3.337,3.337,3.337,8.73,0,12.066L202.3,134.033C200.636,135.697,198.451,136.533,196.267,136.533
		z"/>
	<path style="fill:#445A72;" d="M204.8,85.333c-2.185,0-4.369-0.836-6.033-2.5c-3.337-3.337-3.337-8.73,0-12.066L232.9,36.634
		c3.337-3.337,8.73-3.337,12.066,0c3.337,3.337,3.337,8.73,0,12.066l-34.133,34.133C209.169,84.497,206.985,85.333,204.8,85.333z"/>
	<path style="fill:#445A72;" d="M153.6,136.533c-2.185,0-4.369-0.836-6.033-2.5c-3.337-3.337-3.337-8.73,0-12.066l17.067-17.067
		c3.337-3.337,8.73-3.337,12.066,0c3.337,3.337,3.337,8.73,0,12.066l-17.067,17.067C157.969,135.697,155.785,136.533,153.6,136.533z
		"/>
	<circle style="fill:#445A72;" cx="187.733" cy="93.867" r="8.533"/>
</g>
<path style="fill:#351E1C;" d="M503.467,204.8H8.533C3.814,204.8,0,200.977,0,196.267s3.814-8.533,8.533-8.533h494.933
	c4.719,0,8.533,3.823,8.533,8.533S508.186,204.8,503.467,204.8z"/>
<g>
</g>
<g>
</g>
<g>
</g>
<g>
</g>
<g>
</g>
<g>
</g>
<g>
</g>
<g>
</g>
<g>
</g>
<g>
</g>
<g>
</g>
<g>
</g>
<g>
</g>
<g>
</g>
<g>
</g>
</svg>
