<?xml version="1.0" encoding="iso-8859-1"?>
<!-- Generator: Adobe Illustrator 19.0.0, SVG Export Plug-In . SVG Version: 6.00 Build 0)  -->
<svg version="1.1" id="Capa_1" xmlns="http://www.w3.org/2000/svg" xmlns:xlink="http://www.w3.org/1999/xlink" x="0px" y="0px"
	 viewBox="0 0 512 512" style="enable-background:new 0 0 512 512;" xml:space="preserve">
<g>
	<polygon style="fill:#7F4D46;" points="70.621,436.966 35.31,436.966 35.31,375.172 105.931,375.172 	"/>
	<polygon style="fill:#7F4D46;" points="441.379,436.966 476.69,436.966 476.69,375.172 423.724,375.172 	"/>
</g>
<path style="fill:#6B4842;" d="M485.517,111.969H26.483c-3.116,0-6.056-0.636-8.828-1.624v194.207
	c5.579-5.676,13.321-9.207,21.901-9.207h432.896c8.58,0,16.322,3.531,21.901,9.207V110.345
	C491.573,111.334,488.633,111.969,485.517,111.969z"/>
<g>
	<path style="fill:#492F2B;" d="M105.931,163.31c-4.882,0-8.828-3.955-8.828-8.828V128c0-4.873,3.946-8.828,8.828-8.828
		c4.882,0,8.828,3.955,8.828,8.828v26.483C114.759,159.356,110.813,163.31,105.931,163.31z"/>
	<path style="fill:#492F2B;" d="M158.897,172.138c-4.882,0-8.828-3.955-8.828-8.828V128c0-4.873,3.946-8.828,8.828-8.828
		c4.882,0,8.828,3.955,8.828,8.828v35.31C167.724,168.183,163.778,172.138,158.897,172.138z"/>
	<path style="fill:#492F2B;" d="M211.862,189.793c-4.882,0-8.828-3.955-8.828-8.828V128c0-4.873,3.946-8.828,8.828-8.828
		c4.882,0,8.828,3.955,8.828,8.828v52.966C220.69,185.838,216.744,189.793,211.862,189.793z"/>
	<path style="fill:#492F2B;" d="M300.138,189.793c-4.882,0-8.828-3.955-8.828-8.828V128c0-4.873,3.946-8.828,8.828-8.828
		c4.882,0,8.828,3.955,8.828,8.828v52.966C308.966,185.838,305.02,189.793,300.138,189.793z"/>
	<path style="fill:#492F2B;" d="M353.103,172.138c-4.882,0-8.828-3.955-8.828-8.828V128c0-4.873,3.946-8.828,8.828-8.828
		c4.882,0,8.828,3.955,8.828,8.828v35.31C361.931,168.183,357.985,172.138,353.103,172.138z"/>
	<path style="fill:#492F2B;" d="M406.069,163.31c-4.882,0-8.828-3.955-8.828-8.828V128c0-4.873,3.946-8.828,8.828-8.828
		c4.882,0,8.828,3.955,8.828,8.828v26.483C414.897,159.356,410.951,163.31,406.069,163.31z"/>
	<path style="fill:#492F2B;" d="M256,163.31c-4.882,0-8.828-3.955-8.828-8.828v-17.655c0-4.873,3.946-8.828,8.828-8.828
		s8.828,3.955,8.828,8.828v17.655C264.828,159.356,260.882,163.31,256,163.31z"/>
</g>
<g>
	<path style="fill:#A3665B;" d="M503.172,357.517H8.828v-48.719c0-16.975,13.753-30.729,30.729-30.729h432.896
		c16.967,0,30.72,13.753,30.72,30.729V357.517z"/>
	<path style="fill:#A3665B;" d="M485.517,128H26.483C11.855,128,0,116.145,0,101.517l0,0C0,86.89,11.855,75.034,26.483,75.034
		h459.034c14.627,0,26.483,11.855,26.483,26.483l0,0C512,116.145,500.145,128,485.517,128z"/>
</g>
<path style="fill:#E7ECED;" d="M256,278.069H52.966v-33.218c0-15.784,12.791-28.575,28.575-28.575h145.894
	c15.775,0,28.566,12.791,28.566,28.575V278.069z"/>
<path style="fill:#AFB6BB;" d="M459.034,278.069H256v-33.218c0-15.784,12.791-28.575,28.575-28.575h145.894
	c15.775,0,28.566,12.791,28.566,28.575V278.069z"/>
<path style="fill:#BE7C6D;" d="M502.722,384H9.278C4.149,384,0,379.851,0,374.722v-16.764c0-5.12,4.149-9.269,9.278-9.269h493.453
	c5.12,0,9.269,4.149,9.269,9.278v16.764C512,379.851,507.851,384,502.722,384z"/>
<g>
</g>
<g>
</g>
<g>
</g>
<g>
</g>
<g>
</g>
<g>
</g>
<g>
</g>
<g>
</g>
<g>
</g>
<g>
</g>
<g>
</g>
<g>
</g>
<g>
</g>
<g>
</g>
<g>
</g>
</svg>
