<?xml version="1.0" encoding="iso-8859-1"?>
<!-- Generator: Adobe Illustrator 19.0.0, SVG Export Plug-In . SVG Version: 6.00 Build 0)  -->
<svg version="1.1" id="Capa_1" xmlns="http://www.w3.org/2000/svg" xmlns:xlink="http://www.w3.org/1999/xlink" x="0px" y="0px"
	 viewBox="0 0 512 512" style="enable-background:new 0 0 512 512;" xml:space="preserve">
<g>
	<polygon style="fill:#BE7C6D;" points="335.448,79.448 167.724,79.448 17.655,79.448 17.655,344.276 167.724,344.276 
		335.448,344.276 494.345,344.276 494.345,256 494.345,167.724 494.345,79.448 	"/>
	<polygon style="fill:#BE7C6D;" points="88.276,432.552 52.966,432.552 52.966,370.759 123.586,370.759 	"/>
	<polygon style="fill:#BE7C6D;" points="423.724,432.552 459.034,432.552 459.034,370.759 406.069,370.759 	"/>
</g>
<rect x="17.655" y="326.621" style="fill:#7F4D46;" width="476.69" height="52.966"/>
<rect y="79.448" style="fill:#BE7C6D;" width="167.724" height="264.828"/>
<rect x="167.724" y="79.448" style="fill:#A3665B;" width="167.724" height="264.828"/>
<rect x="335.448" y="79.448" style="fill:#BE7C6D;" width="176.552" height="88.276"/>
<rect x="335.448" y="167.724" style="fill:#7F4D46;" width="176.552" height="88.276"/>
<rect x="335.448" y="256" style="fill:#BE7C6D;" width="176.552" height="88.276"/>
<g>
	<path style="fill:#EBBA16;" d="M442.262,141.241h-37.076c-9.251,0-16.772-7.918-16.772-17.655c0-4.873,3.955-8.828,8.828-8.828
		c4.873,0,8.828,3.955,8.828,8.828h35.24c0.185-4.732,4.096-8.66,8.863-8.66c4.873,0,8.863,3.787,8.863,8.66
		C459.034,133.323,451.505,141.241,442.262,141.241z"/>
	<path style="fill:#EBBA16;" d="M442.262,229.517h-37.076c-9.251,0-16.772-7.918-16.772-17.655c0-4.873,3.955-8.828,8.828-8.828
		c4.873,0,8.828,3.955,8.828,8.828h35.24c0.185-4.732,4.096-8.66,8.863-8.66c4.873,0,8.863,3.787,8.863,8.66
		C459.034,221.599,451.505,229.517,442.262,229.517z"/>
	<path style="fill:#EBBA16;" d="M442.262,317.793h-37.076c-9.251,0-16.772-7.918-16.772-17.655c0-4.873,3.955-8.828,8.828-8.828
		c4.873,0,8.828,3.955,8.828,8.828h35.24c0.185-4.732,4.096-8.66,8.863-8.66c4.873,0,8.863,3.787,8.863,8.66
		C459.034,309.875,451.505,317.793,442.262,317.793z"/>
	<path style="fill:#EBBA16;" d="M123.586,247.172h-17.655c-4.873,0-8.828-3.955-8.828-8.828v-70.621
		c0-4.873,3.955-8.828,8.828-8.828h17.655c4.873,0,8.828,3.955,8.828,8.828s-3.955,8.828-8.828,8.828h-8.828v52.966h8.828
		c4.873,0,8.828,3.955,8.828,8.828C132.414,243.218,128.459,247.172,123.586,247.172z"/>
	<path style="fill:#EBBA16;" d="M229.517,247.172h-17.655c-4.873,0-8.828-3.955-8.828-8.828c0-4.873,3.955-8.828,8.828-8.828h8.828
		v-52.966h-8.828c-4.873,0-8.828-3.955-8.828-8.828s3.955-8.828,8.828-8.828h17.655c4.873,0,8.828,3.955,8.828,8.828v70.621
		C238.345,243.218,234.39,247.172,229.517,247.172z"/>
</g>
<g>
</g>
<g>
</g>
<g>
</g>
<g>
</g>
<g>
</g>
<g>
</g>
<g>
</g>
<g>
</g>
<g>
</g>
<g>
</g>
<g>
</g>
<g>
</g>
<g>
</g>
<g>
</g>
<g>
</g>
</svg>
