<?xml version="1.0" encoding="iso-8859-1"?>
<!-- Generator: Adobe Illustrator 19.0.0, SVG Export Plug-In . SVG Version: 6.00 Build 0)  -->
<svg version="1.1" id="Capa_1" xmlns="http://www.w3.org/2000/svg" xmlns:xlink="http://www.w3.org/1999/xlink" x="0px" y="0px"
	 viewBox="0 0 512 512" style="enable-background:new 0 0 512 512;" xml:space="preserve">
<rect x="114.759" y="97.103" style="fill:#C5C9CF;" width="282.483" height="388.414"/>
<rect x="79.448" y="476.69" style="fill:#B5B1AC;" width="353.103" height="35.31"/>
<rect x="150.069" y="291.31" style="fill:#9EC3E7;" width="211.862" height="150.069"/>
<rect x="150.069" y="141.241" style="fill:#7BA5D7;" width="211.862" height="150.069"/>
<g>
	<path style="fill:#C5DCEF;" d="M176.552,194.207c-2.26,0-4.52-0.865-6.241-2.586c-3.452-3.452-3.452-9.031,0-12.482l17.655-17.655
		c3.452-3.452,9.031-3.452,12.482,0c3.452,3.452,3.452,9.031,0,12.482l-17.655,17.655
		C181.071,193.342,178.812,194.207,176.552,194.207z"/>
	<path style="fill:#C5DCEF;" d="M176.552,238.345c-2.26,0-4.52-0.865-6.241-2.586c-3.452-3.452-3.452-9.031,0-12.482l61.793-61.793
		c3.452-3.452,9.031-3.452,12.482,0c3.452,3.452,3.452,9.031,0,12.482l-61.793,61.793
		C181.071,237.48,178.812,238.345,176.552,238.345z"/>
	<path style="fill:#C5DCEF;" d="M176.552,344.276c-2.26,0-4.52-0.865-6.241-2.586c-3.452-3.452-3.452-9.031,0-12.482l17.655-17.655
		c3.452-3.452,9.031-3.452,12.482,0c3.452,3.452,3.452,9.031,0,12.482l-17.655,17.655
		C181.071,343.411,178.812,344.276,176.552,344.276z"/>
	<path style="fill:#C5DCEF;" d="M176.552,388.414c-2.26,0-4.52-0.865-6.241-2.586c-3.452-3.452-3.452-9.031,0-12.482l61.793-61.793
		c3.452-3.452,9.031-3.452,12.482,0c3.452,3.452,3.452,9.031,0,12.482l-61.793,61.793
		C181.071,387.549,178.812,388.414,176.552,388.414z"/>
</g>
<path style="fill:#B5B1AC;" d="M414.897,105.931l17.655-35.31h-79.448c0,0,0-7.336,0-8.828C353.103,25.229,309.628,0,256,0
	s-97.103,25.229-97.103,61.793c0,8.828,0,8.828,0,8.828H79.448l17.655,35.31H414.897z"/>
<path style="fill:#96928F;" d="M194.207,70.621v-8.828c0-10.805,24.073-26.483,61.793-26.483s61.793,15.678,61.793,26.483v8.828
	H194.207z"/>
<g>
</g>
<g>
</g>
<g>
</g>
<g>
</g>
<g>
</g>
<g>
</g>
<g>
</g>
<g>
</g>
<g>
</g>
<g>
</g>
<g>
</g>
<g>
</g>
<g>
</g>
<g>
</g>
<g>
</g>
</svg>
