<?xml version="1.0" encoding="iso-8859-1"?>
<!-- Generator: Adobe Illustrator 19.0.0, SVG Export Plug-In . SVG Version: 6.00 Build 0)  -->
<svg version="1.1" id="Capa_1" xmlns="http://www.w3.org/2000/svg" xmlns:xlink="http://www.w3.org/1999/xlink" x="0px" y="0px"
	 viewBox="0 0 512 512" style="enable-background:new 0 0 512 512;" xml:space="preserve">
<rect x="114.759" y="97.103" style="fill:#62413C;" width="282.483" height="388.414"/>
<rect x="79.448" y="476.69" style="fill:#917E67;" width="353.103" height="35.31"/>
<rect x="158.897" y="335.448" style="fill:#9DC2E7;" width="194.207" height="105.931"/>
<rect x="150.069" y="141.241" style="fill:#25AE88;" width="211.862" height="194.207"/>
<g>
	<path style="fill:#79A4D7;" d="M185.379,379.586c-2.26,0-4.52-0.865-6.241-2.586c-3.452-3.452-3.452-9.031,0-12.482l8.828-8.828
		c3.452-3.452,9.031-3.452,12.482,0c3.452,3.452,3.452,9.031,0,12.482L191.62,377C189.899,378.721,187.639,379.586,185.379,379.586z
		"/>
	<path style="fill:#79A4D7;" d="M185.379,423.724c-2.26,0-4.52-0.865-6.241-2.586c-3.452-3.452-3.452-9.031,0-12.482l52.965-52.966
		c3.452-3.452,9.031-3.452,12.482,0c3.452,3.452,3.452,9.031,0,12.482l-52.966,52.966
		C189.899,422.859,187.639,423.724,185.379,423.724z"/>
</g>
<path style="fill:#917E67;" d="M414.897,105.931l17.655-35.31h-79.448c0,0,0-7.336,0-8.828C353.103,25.229,309.628,0,256,0
	s-97.103,25.229-97.103,61.793c0,8.828,0,8.828,0,8.828H79.448l17.655,35.31H414.897z"/>
<path style="fill:#7C6751;" d="M194.207,70.621v-8.828c0-10.805,24.073-26.483,61.793-26.483s61.793,15.678,61.793,26.483v8.828
	H194.207z"/>
<g>
	<path style="fill:#1A8967;" d="M361.931,256h-35.31c-4.873,0-8.828,3.955-8.828,8.828s3.955,8.828,8.828,8.828h35.31V256z"/>
	<path style="fill:#1A8967;" d="M361.931,291.31h-61.793c-4.873,0-8.828,3.955-8.828,8.828c0,4.873,3.955,8.828,8.828,8.828h61.793
		V291.31z"/>
	<path style="fill:#1A8967;" d="M185.379,167.724h-35.31v17.655h35.31c4.873,0,8.828-3.955,8.828-8.828
		C194.207,171.679,190.252,167.724,185.379,167.724z"/>
	<path style="fill:#1A8967;" d="M211.862,203.034h-61.793v17.655h61.793c4.873,0,8.828-3.955,8.828-8.828
		C220.69,206.989,216.735,203.034,211.862,203.034z"/>
</g>
<g>
</g>
<g>
</g>
<g>
</g>
<g>
</g>
<g>
</g>
<g>
</g>
<g>
</g>
<g>
</g>
<g>
</g>
<g>
</g>
<g>
</g>
<g>
</g>
<g>
</g>
<g>
</g>
<g>
</g>
</svg>
