<?xml version="1.0" encoding="iso-8859-1"?>
<!-- Generator: Adobe Illustrator 19.0.0, SVG Export Plug-In . SVG Version: 6.00 Build 0)  -->
<svg version="1.1" id="Capa_1" xmlns="http://www.w3.org/2000/svg" xmlns:xlink="http://www.w3.org/1999/xlink" x="0px" y="0px"
	 viewBox="0 0 512 512" style="enable-background:new 0 0 512 512;" xml:space="preserve">
<rect x="88.276" style="fill:#DCCEBA;" width="335.448" height="450.207"/>
<rect x="123.586" y="35.31" style="fill:#BCAC99;" width="264.828" height="203.034"/>
<rect x="158.897" y="70.621" style="fill:#79A4D7;" width="194.207" height="132.414"/>
<rect x="123.586" y="238.345" style="fill:#9B8C7B;" width="264.828" height="203.034"/>
<rect x="158.897" y="273.655" style="fill:#79A4D7;" width="194.207" height="132.414"/>
<rect x="70.621" y="441.379" style="fill:#BCAC99;" width="370.759" height="35.31"/>
<rect x="88.276" y="476.69" style="fill:#DCCEBA;" width="335.448" height="35.31"/>
<g>
	<path style="fill:#9DC2E6;" d="M185.379,123.586c-2.26,0-4.52-0.865-6.241-2.586c-3.452-3.452-3.452-9.031,0-12.482l17.655-17.655
		c3.452-3.452,9.031-3.452,12.482,0c3.452,3.452,3.452,9.031,0,12.482L191.62,121C189.899,122.721,187.639,123.586,185.379,123.586z
		"/>
	<path style="fill:#9DC2E6;" d="M185.379,167.724c-2.26,0-4.52-0.865-6.241-2.586c-3.452-3.452-3.452-9.031,0-12.482l61.793-61.793
		c3.452-3.452,9.031-3.452,12.482,0c3.452,3.452,3.452,9.031,0,12.482l-61.793,61.793
		C189.899,166.859,187.639,167.724,185.379,167.724z"/>
	<path style="fill:#9DC2E6;" d="M185.379,326.621c-2.26,0-4.52-0.865-6.241-2.586c-3.452-3.452-3.452-9.031,0-12.482l17.655-17.655
		c3.452-3.452,9.031-3.452,12.482,0c3.452,3.452,3.452,9.031,0,12.482l-17.655,17.655
		C189.899,325.756,187.639,326.621,185.379,326.621z"/>
	<path style="fill:#9DC2E6;" d="M185.379,370.759c-2.26,0-4.52-0.865-6.241-2.586c-3.452-3.452-3.452-9.031,0-12.482l61.793-61.793
		c3.452-3.452,9.031-3.452,12.482,0c3.452,3.452,3.452,9.031,0,12.482l-61.793,61.793
		C189.899,369.894,187.639,370.759,185.379,370.759z"/>
</g>
<g>
</g>
<g>
</g>
<g>
</g>
<g>
</g>
<g>
</g>
<g>
</g>
<g>
</g>
<g>
</g>
<g>
</g>
<g>
</g>
<g>
</g>
<g>
</g>
<g>
</g>
<g>
</g>
<g>
</g>
</svg>
