<?xml version="1.0" encoding="iso-8859-1"?>
<!-- Generator: Adobe Illustrator 19.0.0, SVG Export Plug-In . SVG Version: 6.00 Build 0)  -->
<svg version="1.1" id="Capa_1" xmlns="http://www.w3.org/2000/svg" xmlns:xlink="http://www.w3.org/1999/xlink" x="0px" y="0px"
	 viewBox="0 0 512 512" style="enable-background:new 0 0 512 512;" xml:space="preserve">
<g>
	<polygon style="fill:#CED2C4;" points="397.241,512 114.759,512 97.103,467.862 414.897,467.862 	"/>
	<path style="fill:#CED2C4;" d="M105.931,450.207V150.069C105.931,67.319,173.25,0,256,0s150.069,67.319,150.069,150.069v300.138
		H105.931z"/>
</g>
<path style="fill:#9DC2E6;" d="M141.241,441.379v-291.31C141.241,86.687,192.618,35.31,256,35.31l0,0
	c63.382,0,114.759,51.377,114.759,114.759v291.31H141.241z"/>
<rect x="79.448" y="441.379" style="fill:#959A92;" width="353.103" height="35.31"/>
<rect x="256" y="150.069" style="fill:#79A4D7;" width="114.759" height="291.31"/>
<rect x="141.241" y="150.069" style="fill:#6491BC;" width="114.759" height="291.31"/>
<g>
	<path style="fill:#9DC2E6;" d="M167.724,203.034c-2.26,0-4.52-0.865-6.241-2.586c-3.452-3.452-3.452-9.031,0-12.482l17.655-17.655
		c3.452-3.452,9.031-3.452,12.482,0c3.452,3.452,3.452,9.031,0,12.482l-17.655,17.655
		C172.244,202.169,169.984,203.034,167.724,203.034z"/>
	<path style="fill:#9DC2E6;" d="M167.724,247.172c-2.26,0-4.52-0.865-6.241-2.586c-3.452-3.452-3.452-9.031,0-12.482l61.793-61.793
		c3.452-3.452,9.031-3.452,12.482,0c3.452,3.452,3.452,9.031,0,12.482l-61.793,61.793
		C172.244,246.307,169.984,247.172,167.724,247.172z"/>
	<path style="fill:#9DC2E6;" d="M282.483,203.034c-2.26,0-4.52-0.865-6.241-2.586c-3.452-3.452-3.452-9.031,0-12.482l17.655-17.655
		c3.452-3.452,9.031-3.452,12.482,0c3.452,3.452,3.452,9.031,0,12.482l-17.655,17.655
		C287.002,202.169,284.743,203.034,282.483,203.034z"/>
	<path style="fill:#9DC2E6;" d="M282.483,247.172c-2.26,0-4.52-0.865-6.241-2.586c-3.452-3.452-3.452-9.031,0-12.482l61.793-61.793
		c3.452-3.452,9.031-3.452,12.482,0c3.452,3.452,3.452,9.031,0,12.482l-61.793,61.793
		C287.002,246.307,284.743,247.172,282.483,247.172z"/>
</g>
<g>
</g>
<g>
</g>
<g>
</g>
<g>
</g>
<g>
</g>
<g>
</g>
<g>
</g>
<g>
</g>
<g>
</g>
<g>
</g>
<g>
</g>
<g>
</g>
<g>
</g>
<g>
</g>
<g>
</g>
</svg>
