<?xml version="1.0" encoding="iso-8859-1"?>
<!-- Generator: Adobe Illustrator 19.0.0, SVG Export Plug-In . SVG Version: 6.00 Build 0)  -->
<svg version="1.1" id="Capa_1" xmlns="http://www.w3.org/2000/svg" xmlns:xlink="http://www.w3.org/1999/xlink" x="0px" y="0px"
	 viewBox="0 0 512 512" style="enable-background:new 0 0 512 512;" xml:space="preserve">
<polygon style="fill:#766352;" points="384,89.6 384,4.267 128,4.267 128,89.6 34.133,89.6 34.133,499.2 256,499.2 477.867,499.2 
	477.867,89.6 "/>
<rect x="34.133" y="89.6" style="fill:#B99D79;" width="221.867" height="409.6"/>
<rect x="256" y="89.6" style="fill:#766352;" width="221.867" height="409.6"/>
<g>
	<rect x="68.267" y="157.867" style="fill:#BFD9EF;" width="119.467" height="273.067"/>
	<rect x="324.267" y="157.867" style="fill:#BFD9EF;" width="119.467" height="273.067"/>
</g>
<rect x="34.133" y="4.267" style="fill:#635142;" width="443.733" height="85.333"/>
<rect x="128" y="4.267" style="fill:#42352C;" width="256" height="85.333"/>
<g>
	<path style="fill:#FFFFFF;" d="M221.867,354.133c-4.719,0-8.533-3.823-8.533-8.533V243.2c0-4.71,3.814-8.533,8.533-8.533
		c4.719,0,8.533,3.823,8.533,8.533v102.4C230.4,350.31,226.586,354.133,221.867,354.133z"/>
	<path style="fill:#FFFFFF;" d="M290.133,354.133c-4.719,0-8.533-3.823-8.533-8.533V243.2c0-4.71,3.814-8.533,8.533-8.533
		c4.719,0,8.533,3.823,8.533,8.533v102.4C298.667,350.31,294.852,354.133,290.133,354.133z"/>
</g>
<g>
	<path style="fill:#97AFBF;" d="M93.867,217.6c-2.185,0-4.369-0.836-6.033-2.5c-3.337-3.337-3.337-8.73,0-12.066l25.6-25.6
		c3.337-3.337,8.73-3.337,12.066,0c3.337,3.337,3.337,8.73,0,12.066l-25.6,25.6C98.236,216.764,96.051,217.6,93.867,217.6z"/>
	<path style="fill:#97AFBF;" d="M93.867,260.267c-2.185,0-4.369-0.836-6.033-2.5c-3.337-3.337-3.337-8.73,0-12.066l68.267-68.267
		c3.337-3.337,8.73-3.337,12.066,0c3.337,3.337,3.337,8.73,0,12.066L99.9,257.766C98.236,259.43,96.051,260.267,93.867,260.267z"/>
	<path style="fill:#97AFBF;" d="M93.867,311.467c-2.185,0-4.369-0.836-6.033-2.5c-3.337-3.337-3.337-8.73,0-12.066l68.267-68.267
		c3.337-3.337,8.73-3.337,12.066,0c3.337,3.337,3.337,8.73,0,12.066L99.9,308.966C98.236,310.63,96.051,311.467,93.867,311.467z"/>
	<path style="fill:#97AFBF;" d="M93.867,362.667c-2.185,0-4.369-0.836-6.033-2.5c-3.337-3.337-3.337-8.73,0-12.066l68.267-68.267
		c3.337-3.337,8.73-3.337,12.066,0c3.337,3.337,3.337,8.73,0,12.066L99.9,360.166C98.236,361.83,96.051,362.667,93.867,362.667z"/>
	<path style="fill:#97AFBF;" d="M349.867,311.467c-2.185,0-4.369-0.836-6.033-2.5c-3.337-3.337-3.337-8.73,0-12.066l68.267-68.267
		c3.337-3.337,8.73-3.337,12.066,0c3.337,3.337,3.337,8.73,0,12.066L355.9,308.966C354.236,310.63,352.051,311.467,349.867,311.467z
		"/>
	<path style="fill:#97AFBF;" d="M349.867,362.667c-2.185,0-4.369-0.836-6.033-2.5c-3.337-3.337-3.337-8.73,0-12.066l68.267-68.267
		c3.337-3.337,8.73-3.337,12.066,0c3.337,3.337,3.337,8.73,0,12.066L355.9,360.166C354.236,361.83,352.051,362.667,349.867,362.667z
		"/>
	<path style="fill:#97AFBF;" d="M349.867,217.6c-2.185,0-4.369-0.836-6.033-2.5c-3.337-3.337-3.337-8.73,0-12.066l25.6-25.6
		c3.337-3.337,8.73-3.337,12.066,0c3.337,3.337,3.337,8.73,0,12.066l-25.6,25.6C354.236,216.764,352.051,217.6,349.867,217.6z"/>
	<path style="fill:#97AFBF;" d="M349.867,260.267c-2.185,0-4.369-0.836-6.033-2.5c-3.337-3.337-3.337-8.73,0-12.066l68.267-68.267
		c3.337-3.337,8.73-3.337,12.066,0c3.337,3.337,3.337,8.73,0,12.066L355.9,257.766C354.236,259.43,352.051,260.267,349.867,260.267z
		"/>
	<path style="fill:#97AFBF;" d="M392.533,413.867c-2.185,0-4.369-0.836-6.033-2.5c-3.337-3.337-3.337-8.73,0-12.066l25.6-25.6
		c3.337-3.337,8.73-3.337,12.066,0c3.337,3.337,3.337,8.73,0,12.066l-25.6,25.6C396.902,413.03,394.718,413.867,392.533,413.867z"/>
	<path style="fill:#97AFBF;" d="M349.867,413.867c-2.185,0-4.369-0.836-6.033-2.5c-3.337-3.337-3.337-8.73,0-12.066l68.267-68.267
		c3.337-3.337,8.73-3.337,12.066,0c3.337,3.337,3.337,8.73,0,12.066L355.9,411.366C354.236,413.03,352.051,413.867,349.867,413.867z
		"/>
	<path style="fill:#97AFBF;" d="M136.533,413.867c-2.185,0-4.369-0.836-6.033-2.5c-3.337-3.337-3.337-8.73,0-12.066l25.6-25.6
		c3.337-3.337,8.73-3.337,12.066,0c3.337,3.337,3.337,8.73,0,12.066l-25.6,25.6C140.902,413.03,138.718,413.867,136.533,413.867z"/>
	<path style="fill:#97AFBF;" d="M93.867,413.867c-2.185,0-4.369-0.836-6.033-2.5c-3.337-3.337-3.337-8.73,0-12.066l68.267-68.267
		c3.337-3.337,8.73-3.337,12.066,0c3.337,3.337,3.337,8.73,0,12.066L99.9,411.366C98.236,413.03,96.051,413.867,93.867,413.867z"/>
</g>
<path style="fill:#7383BF;" d="M503.467,507.733H8.533C3.814,507.733,0,503.91,0,499.2c0-4.71,3.814-8.533,8.533-8.533h494.933
	c4.719,0,8.533,3.823,8.533,8.533C512,503.91,508.186,507.733,503.467,507.733z"/>
<g>
</g>
<g>
</g>
<g>
</g>
<g>
</g>
<g>
</g>
<g>
</g>
<g>
</g>
<g>
</g>
<g>
</g>
<g>
</g>
<g>
</g>
<g>
</g>
<g>
</g>
<g>
</g>
<g>
</g>
</svg>
