<?xml version="1.0" encoding="iso-8859-1"?>
<!-- Generator: Adobe Illustrator 19.0.0, SVG Export Plug-In . SVG Version: 6.00 Build 0)  -->
<svg version="1.1" id="Capa_1" xmlns="http://www.w3.org/2000/svg" xmlns:xlink="http://www.w3.org/1999/xlink" x="0px" y="0px"
	 viewBox="0 0 512 512" style="enable-background:new 0 0 512 512;" xml:space="preserve">
<path style="fill:#E7ECED;" d="M317.793,123.586H194.207l5.95-89.079C201.781,14.998,218.086,0,237.656,0h36.687
	c19.571,0,35.875,14.998,37.5,34.507L317.793,123.586z"/>
<g>
	<path style="fill:#AFB6BB;" d="M246.298,52.966h19.403c9.269,0,16.781-7.512,16.781-16.781V0.971
		C279.852,0.388,277.142,0,274.344,0h-36.687c-2.798,0-5.508,0.388-8.139,0.971v35.213C229.517,45.453,237.03,52.966,246.298,52.966
		z"/>
	<path style="fill:#AFB6BB;" d="M256,274.82c-11.917,0-23.711-0.388-35.319-1.165c-0.071,64.759-15.166,153.935-44.129,211.862
		h158.897c-28.963-57.927-44.059-147.103-44.129-211.862C279.711,274.432,267.917,274.82,256,274.82z"/>
</g>
<path style="fill:#DD352E;" d="M158.897,123.586h-35.31V44.138c0-4.873,3.955-8.828,8.828-8.828h17.655
	c4.873,0,8.828,3.955,8.828,8.828V123.586z"/>
<path style="fill:#1081E0;" d="M388.414,114.759h-35.31V44.138c0-4.873,3.955-8.828,8.828-8.828h17.655
	c4.873,0,8.828,3.955,8.828,8.828V114.759z"/>
<path style="fill:#AFB6BB;" d="M494.345,141.241H17.655C7.901,141.241,0,133.341,0,123.586l0,0c0-9.754,7.901-17.655,17.655-17.655
	h476.69c9.754,0,17.655,7.901,17.655,17.655l0,0C512,133.341,504.099,141.241,494.345,141.241z"/>
<g>
	<path style="fill:#E7ECED;" d="M344.276,512H167.724c-9.754,0-17.655-7.901-17.655-17.655l0,0c0-9.754,7.901-17.655,17.655-17.655
		h176.552c9.754,0,17.655,7.901,17.655,17.655l0,0C361.931,504.099,354.03,512,344.276,512z"/>
	<path style="fill:#E7ECED;" d="M17.655,141.241C30.791,255.514,138.205,291.31,256,291.31s225.209-35.796,238.345-150.069H17.655z"
		/>
</g>
<path style="fill:#AFB6BB;" d="M256,264.828c-106.275,0-173.665-28.425-200.324-84.489c-2.092-4.405-0.221-9.666,4.184-11.767
	c4.387-2.092,9.666-0.221,11.767,4.184c23.464,49.382,85.504,74.417,184.373,74.417c4.873,0,8.828,3.955,8.828,8.828
	S260.873,264.828,256,264.828z"/>
<g>
</g>
<g>
</g>
<g>
</g>
<g>
</g>
<g>
</g>
<g>
</g>
<g>
</g>
<g>
</g>
<g>
</g>
<g>
</g>
<g>
</g>
<g>
</g>
<g>
</g>
<g>
</g>
<g>
</g>
</svg>
