<?xml version="1.0" encoding="iso-8859-1"?>
<!-- Generator: Adobe Illustrator 19.0.0, SVG Export Plug-In . SVG Version: 6.00 Build 0)  -->
<svg version="1.1" id="Capa_1" xmlns="http://www.w3.org/2000/svg" xmlns:xlink="http://www.w3.org/1999/xlink" x="0px" y="0px"
	 viewBox="0 0 512 512" style="enable-background:new 0 0 512 512;" xml:space="preserve">
<rect x="247.467" y="4.267" style="fill:#BAB5B1;" width="230.4" height="494.933"/>
<rect x="34.133" y="4.267" style="fill:#E7E2E3;" width="221.867" height="494.933"/>
<rect x="68.267" y="38.4" style="fill:#BAB5B1;" width="153.6" height="460.8"/>
<rect x="290.133" y="38.4" style="fill:#E7E2E3;" width="153.6" height="460.8"/>
<g>
	<path style="fill:#FFFFFF;" d="M324.267,328.533c-4.719,0-8.533-3.823-8.533-8.533V217.6c0-4.71,3.814-8.533,8.533-8.533
		c4.719,0,8.533,3.823,8.533,8.533V320C332.8,324.71,328.986,328.533,324.267,328.533z"/>
	<path style="fill:#FFFFFF;" d="M187.733,328.533c-4.719,0-8.533-3.823-8.533-8.533V217.6c0-4.71,3.814-8.533,8.533-8.533
		c4.719,0,8.533,3.823,8.533,8.533V320C196.267,324.71,192.452,328.533,187.733,328.533z"/>
</g>
<path style="fill:#6C79BA;" d="M503.467,507.733H8.533C3.814,507.733,0,503.91,0,499.2c0-4.71,3.814-8.533,8.533-8.533h494.933
	c4.719,0,8.533,3.823,8.533,8.533C512,503.91,508.186,507.733,503.467,507.733z"/>
<g>
</g>
<g>
</g>
<g>
</g>
<g>
</g>
<g>
</g>
<g>
</g>
<g>
</g>
<g>
</g>
<g>
</g>
<g>
</g>
<g>
</g>
<g>
</g>
<g>
</g>
<g>
</g>
<g>
</g>
</svg>
