<?xml version="1.0" encoding="iso-8859-1"?>
<!-- Generator: Adobe Illustrator 19.0.0, SVG Export Plug-In . SVG Version: 6.00 Build 0)  -->
<svg version="1.1" id="Capa_1" xmlns="http://www.w3.org/2000/svg" xmlns:xlink="http://www.w3.org/1999/xlink" x="0px" y="0px"
	 viewBox="0 0 512 512" style="enable-background:new 0 0 512 512;" xml:space="preserve">
<path style="fill:#B5B1AC;" d="M226.603,285.867H179.2c-9.429,0-17.067-7.637-17.067-17.067l0,0c0-9.429,7.637-17.067,17.067-17.067
	h47.403c5.914-10.163,16.802-17.067,29.397-17.067V4.267H68.267c-18.85,0-34.133,15.283-34.133,34.133v460.8H256V302.933
	C243.396,302.933,232.516,296.03,226.603,285.867z"/>
<path style="fill:#96928F;" d="M285.397,285.867H332.8c9.429,0,17.067-7.637,17.067-17.067l0,0c0-9.429-7.637-17.067-17.067-17.067
	h-47.403c-5.914-10.163-16.802-17.067-29.397-17.067V4.267h187.733c18.85,0,34.133,15.283,34.133,34.133v460.8H256V302.933
	C268.604,302.933,279.484,296.03,285.397,285.867z"/>
<path style="fill:#DDE4ED;" d="M426.667,38.4H256v196.267v68.267V499.2h187.733V55.467C443.733,46.037,436.096,38.4,426.667,38.4z"
	/>
<path style="fill:#C5C9CF;" d="M85.333,38.4c-9.429,0-17.067,7.637-17.067,17.067V499.2H256V302.933v-68.267V38.4H85.333z"/>
<g>
	<path style="fill:#6C79BA;" d="M503.467,507.733H8.533C3.814,507.733,0,503.91,0,499.2c0-4.71,3.814-8.533,8.533-8.533h494.933
		c4.719,0,8.533,3.823,8.533,8.533C512,503.91,508.186,507.733,503.467,507.733z"/>
	<path style="fill:#6C79BA;" d="M332.8,251.733h-47.403c-5.914-10.163-16.802-17.067-29.397-17.067
		c-12.595,0-23.484,6.903-29.397,17.067H179.2c-9.421,0-17.067,7.637-17.067,17.067s7.646,17.067,17.067,17.067h47.403
		c5.914,10.163,16.802,17.067,29.397,17.067c12.595,0,23.484-6.903,29.397-17.067H332.8c9.421,0,17.067-7.637,17.067-17.067
		S342.221,251.733,332.8,251.733z"/>
</g>
<rect x="102.4" y="72.533" style="fill:#79A4D7;" width="119.467" height="119.467"/>
<g>
	<path style="fill:#BFD9EF;" d="M128,123.733c-2.185,0-4.369-0.836-6.033-2.5c-3.337-3.337-3.337-8.73,0-12.066L139.034,92.1
		c3.337-3.337,8.73-3.337,12.066,0s3.337,8.73,0,12.066l-17.067,17.067C132.369,122.897,130.185,123.733,128,123.733z"/>
	<path style="fill:#BFD9EF;" d="M128,166.4c-2.185,0-4.369-0.836-6.033-2.5c-3.337-3.337-3.337-8.73,0-12.066L181.7,92.1
		c3.337-3.337,8.73-3.337,12.066,0c3.337,3.337,3.337,8.73,0,12.066L134.033,163.9C132.369,165.564,130.185,166.4,128,166.4z"/>
</g>
<rect x="290.133" y="72.533" style="fill:#79A4D7;" width="119.467" height="119.467"/>
<g>
	<path style="fill:#BFD9EF;" d="M315.733,123.733c-2.185,0-4.369-0.836-6.033-2.5c-3.337-3.337-3.337-8.73,0-12.066L326.767,92.1
		c3.337-3.337,8.73-3.337,12.066,0c3.337,3.337,3.337,8.73,0,12.066l-17.067,17.067
		C320.102,122.897,317.918,123.733,315.733,123.733z"/>
	<path style="fill:#BFD9EF;" d="M315.733,166.4c-2.185,0-4.369-0.836-6.033-2.5c-3.337-3.337-3.337-8.73,0-12.066L369.434,92.1
		c3.337-3.337,8.73-3.337,12.066,0s3.337,8.73,0,12.066L321.766,163.9C320.102,165.564,317.918,166.4,315.733,166.4z"/>
</g>
<g>
</g>
<g>
</g>
<g>
</g>
<g>
</g>
<g>
</g>
<g>
</g>
<g>
</g>
<g>
</g>
<g>
</g>
<g>
</g>
<g>
</g>
<g>
</g>
<g>
</g>
<g>
</g>
<g>
</g>
</svg>
