<?xml version="1.0" encoding="iso-8859-1"?>
<!-- Generator: Adobe Illustrator 19.0.0, SVG Export Plug-In . SVG Version: 6.00 Build 0)  -->
<svg version="1.1" id="Capa_1" xmlns="http://www.w3.org/2000/svg" xmlns:xlink="http://www.w3.org/1999/xlink" x="0px" y="0px"
	 viewBox="0 0 512 512" style="enable-background:new 0 0 512 512;" xml:space="preserve">
<rect x="110.933" y="4.267" style="fill:#63381F;" width="290.133" height="494.933"/>
<rect x="145.067" y="38.4" style="fill:#492716;" width="221.867" height="460.8"/>
<path style="fill:#7383BF;" d="M503.467,507.733H8.533C3.823,507.733,0,503.91,0,499.2c0-4.71,3.823-8.533,8.533-8.533h494.933
	c4.719,0,8.533,3.823,8.533,8.533C512,503.91,508.186,507.733,503.467,507.733z"/>
<g>
	<path style="fill:#DCCEBA;" d="M179.2,285.867V89.6c25.523-11.255,51.268-16.939,76.8-17.05c25.532,0.111,51.277,5.794,76.8,17.05
		v196.267H179.2z"/>
	<rect x="179.2" y="319.983" style="fill:#DCCEBA;" width="153.6" height="145.067"/>
</g>
<g>
	<rect x="230.4" y="320" style="fill:#BCAC99;" width="51.2" height="145.067"/>
	<path style="fill:#BCAC99;" d="M256,72.55c-8.516,0.034-17.058,0.751-25.6,2.031v211.285h51.2V74.581
		C273.058,73.301,264.516,72.585,256,72.55z"/>
</g>
<g>
</g>
<g>
</g>
<g>
</g>
<g>
</g>
<g>
</g>
<g>
</g>
<g>
</g>
<g>
</g>
<g>
</g>
<g>
</g>
<g>
</g>
<g>
</g>
<g>
</g>
<g>
</g>
<g>
</g>
</svg>
