<?xml version="1.0" encoding="iso-8859-1"?>
<!-- Generator: Adobe Illustrator 19.0.0, SVG Export Plug-In . SVG Version: 6.00 Build 0)  -->
<svg version="1.1" id="Capa_1" xmlns="http://www.w3.org/2000/svg" xmlns:xlink="http://www.w3.org/1999/xlink" x="0px" y="0px"
	 viewBox="0 0 512 512" style="enable-background:new 0 0 512 512;" xml:space="preserve">
<rect x="110.933" y="4.267" style="fill:#5D4434;" width="290.133" height="494.933"/>
<rect x="145.067" y="38.4" style="fill:#3A2920;" width="221.867" height="460.8"/>
<path style="fill:#7383BF;" d="M503.467,507.733H8.533C3.823,507.733,0,503.91,0,499.2c0-4.71,3.823-8.533,8.533-8.533h494.933
	c4.71,0,8.533,3.823,8.533,8.533C512,503.91,508.177,507.733,503.467,507.733z"/>
<g>
	<rect x="179.2" y="174.933" style="fill:#5D4434;" width="59.733" height="128"/>
	<rect x="273.067" y="174.933" style="fill:#5D4434;" width="59.733" height="128"/>
	<rect x="179.2" y="337.067" style="fill:#5D4434;" width="59.733" height="128"/>
	<rect x="273.067" y="337.067" style="fill:#5D4434;" width="59.733" height="128"/>
	<rect x="179.2" y="72.533" style="fill:#5D4434;" width="59.733" height="68.267"/>
	<rect x="273.067" y="72.533" style="fill:#5D4434;" width="59.733" height="68.267"/>
</g>
<g>
</g>
<g>
</g>
<g>
</g>
<g>
</g>
<g>
</g>
<g>
</g>
<g>
</g>
<g>
</g>
<g>
</g>
<g>
</g>
<g>
</g>
<g>
</g>
<g>
</g>
<g>
</g>
<g>
</g>
</svg>
