<?xml version="1.0" encoding="iso-8859-1"?>
<!-- Generator: Adobe Illustrator 19.0.0, SVG Export Plug-In . SVG Version: 6.00 Build 0)  -->
<svg version="1.1" id="Capa_1" xmlns="http://www.w3.org/2000/svg" xmlns:xlink="http://www.w3.org/1999/xlink" x="0px" y="0px"
	 viewBox="0 0 512 512" style="enable-background:new 0 0 512 512;" xml:space="preserve">
<rect x="110.933" y="4.267" style="fill:#766352;" width="290.133" height="494.933"/>
<rect x="145.067" y="38.4" style="fill:#B99D79;" width="221.867" height="460.8"/>
<path style="fill:#7383BF;" d="M503.467,507.733H8.533C3.823,507.733,0,503.91,0,499.2c0-4.71,3.823-8.533,8.533-8.533h494.933
	c4.71,0,8.533,3.823,8.533,8.533C512,503.91,508.177,507.733,503.467,507.733z"/>
<path style="fill:#FFFFFF;" d="M213.333,277.333H179.2c-4.71,0-8.533-3.823-8.533-8.533c0-4.71,3.823-8.533,8.533-8.533h34.133
	c4.71,0,8.533,3.823,8.533,8.533C221.867,273.51,218.044,277.333,213.333,277.333z"/>
<g>
	<rect x="179.2" y="72.533" style="fill:#766352;" width="153.6" height="162.133"/>
	<rect x="179.2" y="302.933" style="fill:#766352;" width="153.6" height="162.133"/>
</g>
<g>
</g>
<g>
</g>
<g>
</g>
<g>
</g>
<g>
</g>
<g>
</g>
<g>
</g>
<g>
</g>
<g>
</g>
<g>
</g>
<g>
</g>
<g>
</g>
<g>
</g>
<g>
</g>
<g>
</g>
</svg>
