<?xml version="1.0" encoding="iso-8859-1"?>
<!-- Generator: Adobe Illustrator 19.0.0, SVG Export Plug-In . SVG Version: 6.00 Build 0)  -->
<svg version="1.1" id="Capa_1" xmlns="http://www.w3.org/2000/svg" xmlns:xlink="http://www.w3.org/1999/xlink" x="0px" y="0px"
	 viewBox="0 0 512 512" style="enable-background:new 0 0 512 512;" xml:space="preserve">
<path style="fill:#E7ECED;" d="M297.596,512h-83.332c-6.241,0-11.299-5.058-11.299-11.299v-32.839h105.931v32.839
	C308.895,506.942,303.837,512,297.596,512z"/>
<path style="fill:#EBBA16;" d="M256,0C159.17,0,65.377,103.724,124.337,228.555c0,0,52.215,90.342,52.215,124.548
	c0,26.483,8.457,52.966,26.483,52.966c19.491,0,86.44,0,105.931,0c18.026,0,26.483-26.483,26.483-52.966
	c0-34.207,52.215-124.548,52.215-124.548C446.623,103.724,352.83,0,256,0z"/>
<g>
	<path style="fill:#FFE088;" d="M158.817,97.103c-1.615,0-3.249-0.441-4.714-1.368c-4.122-2.604-5.341-8.068-2.737-12.182
		c22.298-35.204,62.393-57.07,104.625-57.07c4.882,0,8.828,3.955,8.828,8.828s-3.946,8.828-8.828,8.828
		c-35.69,0-70.903,19.182-89.715,48.861C164.599,95.647,161.739,97.103,158.817,97.103z"/>
	<path style="fill:#FFE088;" d="M282.553,414.897h-52.966c-4.882,0-8.828-3.955-8.828-8.828V282.483c0-6.382,2.481-12.385,7-16.896
		c1.183-1.183,1.827-2.745,1.827-4.414V220.69c0-14.601,11.882-26.483,26.483-26.483s26.483,11.882,26.483,26.483v40.483
		c0,1.668,0.644,3.231,1.827,4.414c4.52,4.511,7,10.514,7,16.896v123.586C291.381,410.942,287.435,414.897,282.553,414.897z
		 M238.415,397.241h35.31V282.483c0-1.668-0.644-3.231-1.827-4.414c-4.52-4.511-7-10.514-7-16.896V220.69
		c0-4.864-3.955-8.828-8.828-8.828s-8.828,3.964-8.828,8.828v40.483c0,6.382-2.481,12.385-7,16.896
		c-1.183,1.183-1.827,2.745-1.827,4.414V397.241z"/>
	<path style="fill:#FFE088;" d="M282.553,353.103c-4.882,0-8.828-3.955-8.828-8.828c0-16.084,27.674-122.633,53.204-173.303
		c-47.104,7.389-94.623,7.389-141.727,0c25.538,50.67,53.213,157.219,53.213,173.303c0,4.873-3.946,8.828-8.828,8.828
		s-8.828-3.955-8.828-8.828c0-15.06-34.878-146.556-60.028-180.083c-2.198-2.931-2.366-6.912-0.406-10.002
		c1.951-3.098,5.588-4.661,9.198-3.946c57.432,11.485,115.659,11.485,173.082,0c3.611-0.715,7.247,0.856,9.198,3.946
		c1.96,3.098,1.792,7.08-0.406,10.002c-25.141,33.527-60.019,165.023-60.019,180.083
		C291.381,349.149,287.435,353.103,282.553,353.103z"/>
</g>
<path style="fill:#AFB6BB;" d="M308.895,476.69H202.964c-9.754,0-17.655-7.901-17.655-17.655l0,0
	c0-9.754,7.901-17.655,17.655-17.655h105.931c9.754,0,17.655,7.901,17.655,17.655l0,0C326.55,468.789,318.641,476.69,308.895,476.69
	z"/>
<path style="fill:#E7ECED;" d="M308.895,441.379H202.964c-9.754,0-17.655-7.901-17.655-17.655l0,0
	c0-9.754,7.901-17.655,17.655-17.655h105.931c9.754,0,17.655,7.901,17.655,17.655l0,0
	C326.55,433.479,318.641,441.379,308.895,441.379z"/>
<g>
</g>
<g>
</g>
<g>
</g>
<g>
</g>
<g>
</g>
<g>
</g>
<g>
</g>
<g>
</g>
<g>
</g>
<g>
</g>
<g>
</g>
<g>
</g>
<g>
</g>
<g>
</g>
<g>
</g>
</svg>
