<?xml version="1.0" encoding="iso-8859-1"?>
<!-- Generator: Adobe Illustrator 19.0.0, SVG Export Plug-In . SVG Version: 6.00 Build 0)  -->
<svg version="1.1" id="Capa_1" xmlns="http://www.w3.org/2000/svg" xmlns:xlink="http://www.w3.org/1999/xlink" x="0px" y="0px"
	 viewBox="0 0 512 512" style="enable-background:new 0 0 512 512;" xml:space="preserve">
<path style="fill:#AFB6BB;" d="M256,0c-29.255,0-52.966,23.711-52.966,52.966c0,23.049,14.751,42.611,35.31,49.885h35.31
	c20.559-7.283,35.31-26.836,35.31-49.885C308.966,23.711,285.255,0,256,0z"/>
<path style="fill:#E7ECED;" d="M273.655,141.241h-35.31V52.966c0-9.754,7.901-17.655,17.655-17.655l0,0
	c9.754,0,17.655,7.901,17.655,17.655V141.241z"/>
<rect x="211.862" y="132.414" style="fill:#AFB6BB;" width="88.276" height="44.138"/>
<path style="fill:#E7ECED;" d="M361.931,167.724H150.069c-9.754,0-17.655,7.901-17.655,17.655v308.966
	c0,9.754,7.901,17.655,17.655,17.655h211.862c9.754,0,17.655-7.901,17.655-17.655V185.379
	C379.586,175.625,371.686,167.724,361.931,167.724z"/>
<ellipse style="fill:#25AE88;" cx="256" cy="242.759" rx="52.966" ry="30.897"/>
<path style="fill:#FFFFFF;" d="M300.138,476.69h-88.276c-9.754,0-17.655-7.901-17.655-17.655v-26.483
	c0-9.754,7.901-17.655,17.655-17.655h88.276c9.754,0,17.655,7.901,17.655,17.655v26.483
	C317.793,468.789,309.892,476.69,300.138,476.69z"/>
<rect x="132.414" y="370.759" style="fill:#AFB6BB;" width="247.172" height="17.655"/>
<path style="fill:#DD352E;" d="M276.242,443.966l-32.724,32.724h24.964l20.242-20.242c3.452-3.452,3.452-9.031,0-12.482
	C285.272,440.514,279.693,440.514,276.242,443.966z"/>
<g>
</g>
<g>
</g>
<g>
</g>
<g>
</g>
<g>
</g>
<g>
</g>
<g>
</g>
<g>
</g>
<g>
</g>
<g>
</g>
<g>
</g>
<g>
</g>
<g>
</g>
<g>
</g>
<g>
</g>
</svg>
