<?xml version="1.0" encoding="iso-8859-1"?>
<!-- Generator: Adobe Illustrator 19.0.0, SVG Export Plug-In . SVG Version: 6.00 Build 0)  -->
<svg version="1.1" id="Capa_1" xmlns="http://www.w3.org/2000/svg" xmlns:xlink="http://www.w3.org/1999/xlink" x="0px" y="0px"
	 viewBox="0 0 512 512" style="enable-background:new 0 0 512 512;" xml:space="preserve">
<path style="fill:#E7ECED;" d="M297.666,512h-83.332c-6.241,0-11.299-5.058-11.299-11.299v-32.839h105.931v32.839
	C308.966,506.942,303.907,512,297.666,512z"/>
<path style="fill:#EBBA16;" d="M256,0c-79.448,52.966-132.414,97.103-132.414,176.552c0,35.31,8.095,62.27,26.483,88.276
	c14.822,20.966,35.31,17.655,35.31,79.448h141.241c0-61.793,20.489-58.483,35.31-79.448c18.388-26.006,26.483-52.966,26.483-88.276
	C388.414,97.103,335.448,52.966,256,0z"/>
<path style="fill:#FFE088;" d="M167.724,229.517c-3.549,0-6.903-2.163-8.254-5.685c-4.378-11.458-9.401-27.198-9.401-47.281
	c0-39.751,7.715-69.473,47.175-103.768c3.681-3.187,9.251-2.816,12.456,0.874c3.196,3.681,2.807,9.251-0.874,12.456
	c-34.745,30.199-41.101,54.148-41.101,90.439c0,17.099,4.175,30.314,8.254,40.986c1.73,4.555-0.547,9.657-5.102,11.396
	C169.834,229.332,168.775,229.517,167.724,229.517z"/>
<path style="fill:#DC691D;" d="M308.966,406.069H203.034c-9.754,0-17.655-7.901-17.655-17.655v-44.138h141.241v44.138
	C326.621,398.168,318.72,406.069,308.966,406.069z"/>
<path style="fill:#AFB6BB;" d="M308.966,476.69H203.034c-9.754,0-17.655-7.901-17.655-17.655l0,0
	c0-9.754,7.901-17.655,17.655-17.655h105.931c9.754,0,17.655,7.901,17.655,17.655l0,0C326.621,468.789,318.72,476.69,308.966,476.69
	z"/>
<path style="fill:#E7ECED;" d="M308.966,441.379H203.034c-9.754,0-17.655-7.901-17.655-17.655l0,0
	c0-9.754,7.901-17.655,17.655-17.655h105.931c9.754,0,17.655,7.901,17.655,17.655l0,0
	C326.621,433.479,318.72,441.379,308.966,441.379z"/>
<g>
</g>
<g>
</g>
<g>
</g>
<g>
</g>
<g>
</g>
<g>
</g>
<g>
</g>
<g>
</g>
<g>
</g>
<g>
</g>
<g>
</g>
<g>
</g>
<g>
</g>
<g>
</g>
<g>
</g>
</svg>
