<?xml version="1.0" encoding="iso-8859-1"?>
<!-- Generator: Adobe Illustrator 19.0.0, SVG Export Plug-In . SVG Version: 6.00 Build 0)  -->
<svg version="1.1" id="Capa_1" xmlns="http://www.w3.org/2000/svg" xmlns:xlink="http://www.w3.org/1999/xlink" x="0px" y="0px"
	 viewBox="0 0 512.001 512.001" style="enable-background:new 0 0 512.001 512.001;" xml:space="preserve">
<path style="fill:#E7ECED;" d="M194.826,224.345c1.763,1.924,3.516,3.883,5.252,5.879c14.71,16.947,27.594,58.58,27.594,75.992
	h53.686c0-29.992,38.251-88.009,58.159-107.371L194.826,224.345z"/>
<g>
	<path style="fill:#AFB6BB;" d="M147.135,297.259c0,44.738,35.79,53.686,35.79,89.476c0,9.878,8.017,17.895,17.895,17.895h107.371
		c9.878,0,17.895-8.017,17.895-17.895c0-35.79,35.79-44.738,35.79-89.476H147.135z"/>
	<path style="fill:#AFB6BB;" d="M357.583,209l-193.859,34.162c-14.603,2.577-28.525-7.176-31.093-21.778l0,0
		c-2.577-14.602,7.176-28.525,21.778-31.093l193.859-34.171c14.603-2.577,28.525,7.176,31.093,21.778l0,0
		C381.938,192.5,372.185,206.423,357.583,209z"/>
</g>
<path style="fill:#E7ECED;" d="M357.583,154.5l-193.859,34.162c-14.603,2.577-28.525-7.176-31.093-21.778l0,0
	c-2.577-14.602,7.176-28.525,21.778-31.093l193.859-34.171c14.603-2.577,28.525,7.176,31.093,21.778l0,0
	C381.938,138,372.185,151.923,357.583,154.5z"/>
<path style="fill:#AFB6BB;" d="M357.601,99.991l-193.859,34.171c-14.602,2.577-28.525-7.176-31.093-21.778l0,0
	c-2.577-14.594,7.176-28.516,21.77-31.093l193.859-34.171c14.603-2.577,28.525,7.176,31.093,21.778l0,0
	C381.947,83.5,372.203,97.423,357.601,99.991z"/>
<path style="fill:#E7ECED;" d="M313.22,53.284L207.478,71.922c-14.602,2.577-28.525-7.176-31.093-21.778l0,0
	c-2.577-14.594,7.176-28.516,21.778-31.093L303.906,0.413c14.603-2.577,28.525,7.176,31.093,21.778l0,0
	C337.567,36.785,327.823,50.707,313.22,53.284z"/>
<path style="fill:#AFB6BB;" d="M308.21,476.211H200.839c-9.887,0-17.895-8.008-17.895-17.895l0,0
	c0-9.887,8.008-17.895,17.895-17.895H308.21c9.887,0,17.895,8.008,17.895,17.895l0,0
	C326.105,468.203,318.088,476.211,308.21,476.211z"/>
<g>
	<path style="fill:#E7ECED;" d="M308.21,440.42H200.839c-9.887,0-17.895-8.008-17.895-17.895l0,0
		c0-9.887,8.008-17.895,17.895-17.895H308.21c9.887,0,17.895,8.008,17.895,17.895l0,0C326.105,432.412,318.088,440.42,308.21,440.42
		z"/>
	<path style="fill:#E7ECED;" d="M296.757,512.001h-84.465c-6.326,0-11.453-5.127-11.453-11.453v-24.337H308.21v24.337
		C308.21,506.874,303.083,512.001,296.757,512.001z"/>
</g>
<g>
</g>
<g>
</g>
<g>
</g>
<g>
</g>
<g>
</g>
<g>
</g>
<g>
</g>
<g>
</g>
<g>
</g>
<g>
</g>
<g>
</g>
<g>
</g>
<g>
</g>
<g>
</g>
<g>
</g>
</svg>
