<?xml version="1.0" encoding="iso-8859-1"?>
<!-- Generator: Adobe Illustrator 19.0.0, SVG Export Plug-In . SVG Version: 6.00 Build 0)  -->
<svg version="1.1" id="Capa_1" xmlns="http://www.w3.org/2000/svg" xmlns:xlink="http://www.w3.org/1999/xlink" x="0px" y="0px"
	 viewBox="0 0 512 512" style="enable-background:new 0 0 512 512;" xml:space="preserve">
<path style="fill:#AFB6BB;" d="M202.988,459.035v17.655h-0.071l3.001,12.005C209.344,502.387,221.649,512,235.765,512h40.236
	c14.115,0,26.421-9.604,29.846-23.305l3.001-12.005h0.071v-17.655H202.988z"/>
<path style="fill:#E7ECED;" d="M185.333,459.035v-79.448h141.241v79.448c0,9.754-7.901,17.655-17.655,17.655H202.988
	C193.233,476.69,185.333,468.789,185.333,459.035z"/>
<path style="fill:#ED8A19;" d="M256.121,0c-0.026,0-0.044,0-0.071,0h-0.097c-0.026,0-0.044,0-0.071,0
	C159.521-0.159,66.204,77.648,123.54,203.035c0,0,35.31,62.897,35.31,97.103c0,47.369,7.318,73.702,26.483,88.276h141.241
	c19.165-14.574,26.58-40.907,26.58-88.276c0-34.207,35.31-97.103,35.31-97.103C445.791,77.648,352.483-0.159,256.121,0z"/>
<path style="fill:#F2A457;" d="M123.54,203.035c0,0,29.784,53.124,34.586,88.276h195.752c4.802-35.151,34.586-88.276,34.586-88.276
	c13.356-29.202,18.45-55.79,17.32-79.448H106.22C105.09,147.244,110.183,173.833,123.54,203.035z"/>
<path style="fill:#EBBA16;" d="M167.775,123.586c-0.75,15.775,1.412,32.847,6.894,51.129c3.972,13.241,9.631,25.856,16.084,38.073
	c8.96,16.984,26.447,52.63,29.987,78.521h70.621c3.54-25.891,21.027-61.537,29.987-78.521c6.453-12.226,12.111-24.841,16.084-38.082
	c5.482-18.273,7.645-35.346,6.894-51.121H167.775z"/>
<rect x="247.223" y="123.586" style="fill:#FFE088;" width="17.655" height="167.724"/>
<path style="fill:#FCC797;" d="M154.33,92.681c-1.633,0-3.284-0.45-4.758-1.404c-4.105-2.631-5.297-8.095-2.666-12.2
	c20.533-31.947,63.188-52.595,108.685-52.595c4.882,0,8.828,3.955,8.828,8.828s-3.946,8.828-8.828,8.828
	c-39.636,0-76.465,17.461-93.82,44.491C160.086,91.251,157.234,92.681,154.33,92.681z"/>
<g>
</g>
<g>
</g>
<g>
</g>
<g>
</g>
<g>
</g>
<g>
</g>
<g>
</g>
<g>
</g>
<g>
</g>
<g>
</g>
<g>
</g>
<g>
</g>
<g>
</g>
<g>
</g>
<g>
</g>
</svg>
