<?xml version="1.0" encoding="iso-8859-1"?>
<!-- Generator: Adobe Illustrator 19.0.0, SVG Export Plug-In . SVG Version: 6.00 Build 0)  -->
<svg version="1.1" id="Capa_1" xmlns="http://www.w3.org/2000/svg" xmlns:xlink="http://www.w3.org/1999/xlink" x="0px" y="0px"
	 viewBox="0 0 512 512" style="enable-background:new 0 0 512 512;" xml:space="preserve">
<path style="fill:#EBBA16;" d="M213.333,413.867v17.067c0,23.561,19.106,42.667,42.667,42.667c23.561,0,42.667-19.106,42.667-42.667
	v-17.067H213.333z"/>
<g>
	<path style="fill:#E7ECED;" d="M256,140.8c-4.71,0-8.533-3.823-8.533-8.533V46.933c0-4.71,3.823-8.533,8.533-8.533
		c4.71,0,8.533,3.823,8.533,8.533v85.333C264.533,136.977,260.71,140.8,256,140.8z"/>
	<polygon style="fill:#E7ECED;" points="307.2,260.267 204.8,260.267 8.533,388.267 8.533,430.933 503.467,430.933 503.467,388.267 
			"/>
</g>
<g>
	<polygon style="fill:#AFB6BB;" points="8.533,388.267 8.533,430.933 256,430.933 503.467,430.933 503.467,388.267 	"/>
	<path style="fill:#AFB6BB;" d="M256,132.267c-28.279,0-51.2,25.6-51.2,68.267V217.6v42.667h102.4V217.6v-17.067
		C307.2,157.867,284.279,132.267,256,132.267z"/>
</g>
<path style="fill:#7383BF;" d="M503.467,55.467H8.533C3.823,55.467,0,51.644,0,46.933S3.823,38.4,8.533,38.4h494.933
	c4.719,0,8.533,3.823,8.533,8.533S508.186,55.467,503.467,55.467z"/>
<g>
</g>
<g>
</g>
<g>
</g>
<g>
</g>
<g>
</g>
<g>
</g>
<g>
</g>
<g>
</g>
<g>
</g>
<g>
</g>
<g>
</g>
<g>
</g>
<g>
</g>
<g>
</g>
<g>
</g>
</svg>
