<?xml version="1.0" encoding="iso-8859-1"?>
<!-- Generator: Adobe Illustrator 19.0.0, SVG Export Plug-In . SVG Version: 6.00 Build 0)  -->
<svg version="1.1" id="Capa_1" xmlns="http://www.w3.org/2000/svg" xmlns:xlink="http://www.w3.org/1999/xlink" x="0px" y="0px"
	 viewBox="0 0 512 512" style="enable-background:new 0 0 512 512;" xml:space="preserve">
<path style="fill:#28384C;" d="M256,145.894c5.99,0,11.725,1.22,17.067,3.439V38.4h-34.133v110.933
	C244.275,147.115,250.01,145.894,256,145.894z"/>
<g>
	<path style="fill:#45586D;" d="M307.2,226.133H204.8v-25.6c0-42.667,22.921-68.267,51.2-68.267l0,0c28.279,0,51.2,25.6,51.2,68.267
		V226.133z"/>
	<rect x="204.8" y="12.8" style="fill:#45586D;" width="102.4" height="34.133"/>
</g>
<path style="fill:#556080;" d="M503.467,21.333H8.533C3.823,21.333,0,17.51,0,12.8s3.823-8.533,8.533-8.533h494.933
	c4.71,0,8.533,3.823,8.533,8.533S508.177,21.333,503.467,21.333z"/>
<path style="fill:#28384C;" d="M307.2,217.6H204.8c-28.279,0-51.2,22.921-51.2,51.2v8.533h204.8V268.8
	C358.4,240.521,335.479,217.6,307.2,217.6z"/>
<path style="fill:#DC691D;" d="M136.533,362.667v25.6c0,65.877,53.589,119.467,119.467,119.467s119.467-53.589,119.467-119.467
	v-25.6H136.533z"/>
<path style="fill:#C5411E;" d="M256,473.6L256,473.6c-47.13,0-85.333-38.204-85.333-85.333V371.2h170.667v17.067
	C341.333,435.396,303.13,473.6,256,473.6z"/>
<path style="fill:#45586D;" d="M358.4,268.8H153.6c-32.99,0-59.733,26.743-59.733,59.733V371.2h324.267v-42.667
	C418.133,295.543,391.39,268.8,358.4,268.8z"/>
<g>
	<path style="fill:#28384C;" d="M332.8,328.533c0,4.71,3.823,8.533,8.533,8.533h76.8v-8.533c0-2.901-0.282-5.743-0.683-8.533
		h-76.117C336.623,320,332.8,323.823,332.8,328.533z"/>
	<path style="fill:#28384C;" d="M170.667,337.067c4.71,0,8.533-3.823,8.533-8.533S175.377,320,170.667,320H94.549
		c-0.401,2.79-0.683,5.632-0.683,8.533v8.533H170.667z"/>
</g>
<g>
</g>
<g>
</g>
<g>
</g>
<g>
</g>
<g>
</g>
<g>
</g>
<g>
</g>
<g>
</g>
<g>
</g>
<g>
</g>
<g>
</g>
<g>
</g>
<g>
</g>
<g>
</g>
<g>
</g>
</svg>
