<?xml version="1.0" encoding="iso-8859-1"?>
<!-- Generator: Adobe Illustrator 19.0.0, SVG Export Plug-In . SVG Version: 6.00 Build 0)  -->
<svg version="1.1" id="Capa_1" xmlns="http://www.w3.org/2000/svg" xmlns:xlink="http://www.w3.org/1999/xlink" x="0px" y="0px"
	 viewBox="0 0 512 512" style="enable-background:new 0 0 512 512;" xml:space="preserve">
<path style="fill:#E7ECED;" d="M256,295.051c-4.79,0-8.678-3.888-8.678-8.678v-43.39c0-4.79,3.888-8.678,8.678-8.678
	c4.79,0,8.678,3.888,8.678,8.678v43.39C264.678,291.163,260.79,295.051,256,295.051z"/>
<path style="fill:#556080;" d="M299.39,329.763c0-23.96-19.43-43.39-43.39-43.39s-43.39,19.43-43.39,43.39
	c0,4.469,17.356,112.814,17.356,112.814h52.068C282.034,442.576,299.39,334.232,299.39,329.763z"/>
<rect x="221.288" y="433.898" style="fill:#7383BF;" width="69.424" height="43.39"/>
<path style="fill:#556080;" d="M325.424,503.322H186.576l0,0c0-19.17,15.542-34.712,34.712-34.712h69.424
	C309.882,468.61,325.424,484.152,325.424,503.322L325.424,503.322z"/>
<path style="fill:#7383BF;" d="M400.844,219.518c-30.85-61.709-30.85-134.344,0-196.053l1.111-2.222
	C406.84,11.481,399.742,0,388.825,0H123.93c-10.917,0-18.015,11.481-13.13,21.244l1.111,2.222c30.85,61.709,30.85,134.344,0,196.053
	l-1.111,2.222c-4.886,9.763,2.213,21.244,13.13,21.244h264.895c10.917,0,18.015-11.481,13.13-21.244L400.844,219.518z"/>
<path style="fill:#556080;" d="M154.442,216.949c-0.981,0-1.979-0.174-2.951-0.521c-4.513-1.631-6.838-6.613-5.207-11.116
	c19.569-54.055,19.569-113.595,0-167.65c-1.631-4.504,0.703-9.485,5.207-11.116c4.513-1.614,9.485,0.694,11.116,5.207
	c20.949,57.865,20.949,121.604,0,179.469C161.323,214.762,157.991,216.949,154.442,216.949z"/>
<path style="fill:#28384C;" d="M481.627,512H30.373c-4.79,0-8.678-3.888-8.678-8.678s3.888-8.678,8.678-8.678h451.254
	c4.79,0,8.678,3.888,8.678,8.678S486.417,512,481.627,512z"/>
<g>
</g>
<g>
</g>
<g>
</g>
<g>
</g>
<g>
</g>
<g>
</g>
<g>
</g>
<g>
</g>
<g>
</g>
<g>
</g>
<g>
</g>
<g>
</g>
<g>
</g>
<g>
</g>
<g>
</g>
</svg>
