<?xml version="1.0" encoding="iso-8859-1"?>
<!-- Generator: Adobe Illustrator 19.0.0, SVG Export Plug-In . SVG Version: 6.00 Build 0)  -->
<svg version="1.1" id="Capa_1" xmlns="http://www.w3.org/2000/svg" xmlns:xlink="http://www.w3.org/1999/xlink" x="0px" y="0px"
	 viewBox="0 0 512 512" style="enable-background:new 0 0 512 512;" xml:space="preserve">
<path style="fill:#AFB6BB;" d="M273.356,43.39h-34.712V17.356C238.644,7.767,246.411,0,256,0l0,0
	c9.589,0,17.356,7.767,17.356,17.356V43.39z"/>
<g>
	<rect x="151.864" y="34.712" style="fill:#E7ECED;" width="208.271" height="43.39"/>
	<rect x="238.644" y="182.237" style="fill:#E7ECED;" width="34.712" height="95.458"/>
	<rect x="212.61" y="303.729" style="fill:#E7ECED;" width="86.78" height="43.39"/>
</g>
<polygon style="fill:#AFB6BB;" points="299.39,303.729 212.61,303.729 195.254,260.339 316.746,260.339 "/>
<path style="fill:#25AE88;" d="M507.661,208.271H4.339l0,0c0-95.857,77.703-138.847,173.559-138.847h156.203
	C429.959,69.424,507.661,112.414,507.661,208.271L507.661,208.271z"/>
<path style="fill:#1C8262;" d="M44.327,182.237c-0.911,0-1.848-0.148-2.76-0.46c-4.539-1.527-6.994-6.448-5.458-10.986
	c22.832-67.992,106.765-75.333,141.789-75.333c4.79,0,8.678,3.888,8.678,8.678c0,4.79-3.888,8.678-8.678,8.678
	c-31.275,0-106.097,6.187-125.345,63.505C51.339,179.946,47.954,182.237,44.327,182.237z"/>
<path style="fill:#25AE88;" d="M316.746,503.322c8.904-16.818,17.356-37.593,17.356-60.746c0-38.252-13.182-76.14-34.712-95.458
	h-86.78c-21.53,19.317-34.712,57.205-34.712,95.458c0,23.153,8.452,43.928,17.356,60.746H316.746z"/>
<path style="fill:#1C8262;" d="M217.609,477.288c-3.558,0-6.882-2.204-8.157-5.736c-3.714-10.275-5.519-19.751-5.519-28.976
	c0-24.906,6.274-48.779,17.217-65.501c2.621-4.009,8.01-5.129,12.019-2.508c4.009,2.629,5.129,8.001,2.508,12.019
	c-9.008,13.763-14.388,34.695-14.388,55.99c0,7.177,1.467,14.735,4.478,23.092c1.631,4.513-0.712,9.485-5.215,11.108
	C219.579,477.123,218.581,477.288,217.609,477.288z"/>
<path style="fill:#7383BF;" d="M481.627,512H30.373c-4.79,0-8.678-3.888-8.678-8.678s3.888-8.678,8.678-8.678h451.254
	c4.79,0,8.678,3.888,8.678,8.678S486.417,512,481.627,512z"/>
<g>
</g>
<g>
</g>
<g>
</g>
<g>
</g>
<g>
</g>
<g>
</g>
<g>
</g>
<g>
</g>
<g>
</g>
<g>
</g>
<g>
</g>
<g>
</g>
<g>
</g>
<g>
</g>
<g>
</g>
</svg>
