<?xml version="1.0" encoding="iso-8859-1"?>
<!-- Generator: Adobe Illustrator 19.0.0, SVG Export Plug-In . SVG Version: 6.00 Build 0)  -->
<svg version="1.1" id="Capa_1" xmlns="http://www.w3.org/2000/svg" xmlns:xlink="http://www.w3.org/1999/xlink" x="0px" y="0px"
	 viewBox="0 0 512 512" style="enable-background:new 0 0 512 512;" xml:space="preserve">
<g>
	<path style="fill:#E7ECED;" d="M273.356,52.068h-34.712V17.356C238.644,7.767,246.411,0,256,0l0,0
		c9.589,0,17.356,7.767,17.356,17.356V52.068z"/>
	<rect x="238.644" y="199.593" style="fill:#E7ECED;" width="34.712" height="69.424"/>
	<rect x="212.61" y="303.729" style="fill:#E7ECED;" width="86.78" height="43.39"/>
</g>
<polygon style="fill:#366DB6;" points="351.458,43.39 256,43.39 160.542,43.39 125.831,216.949 256,216.949 386.169,216.949 "/>
<path style="fill:#1F436D;" d="M168.179,190.915c-0.564,0-1.137-0.052-1.71-0.174c-4.703-0.937-7.749-5.51-6.804-10.214
	l20.827-104.136c0.937-4.703,5.493-7.732,10.214-6.804c4.703,0.937,7.749,5.511,6.804,10.214l-20.827,104.136
	C175.85,188.06,172.232,190.915,168.179,190.915z"/>
<polygon style="fill:#AFB6BB;" points="299.39,303.729 212.61,303.729 195.254,260.339 316.746,260.339 "/>
<path style="fill:#DD352E;" d="M316.746,503.322c8.904-16.818,17.356-37.593,17.356-60.746c0-38.252-13.182-76.14-34.712-95.458
	h-86.78c-21.53,19.317-34.712,57.205-34.712,95.458c0,23.153,8.452,43.928,17.356,60.746H316.746z"/>
<path style="fill:#B02721;" d="M217.609,477.288c-3.558,0-6.882-2.204-8.157-5.736c-3.714-10.275-5.519-19.751-5.519-28.976
	c0-24.906,6.274-48.779,17.217-65.501c2.621-4.009,8.001-5.129,12.019-2.508c4.009,2.629,5.129,8.001,2.508,12.019
	c-9.008,13.763-14.388,34.695-14.388,55.99c0,7.177,1.467,14.735,4.478,23.092c1.631,4.513-0.712,9.485-5.215,11.108
	C219.579,477.123,218.581,477.288,217.609,477.288z"/>
<path style="fill:#7383BF;" d="M481.627,512H30.373c-4.79,0-8.678-3.888-8.678-8.678s3.888-8.678,8.678-8.678h451.254
	c4.79,0,8.678,3.888,8.678,8.678S486.417,512,481.627,512z"/>
<g>
</g>
<g>
</g>
<g>
</g>
<g>
</g>
<g>
</g>
<g>
</g>
<g>
</g>
<g>
</g>
<g>
</g>
<g>
</g>
<g>
</g>
<g>
</g>
<g>
</g>
<g>
</g>
<g>
</g>
</svg>
