<?xml version="1.0" encoding="iso-8859-1"?>
<!-- Generator: Adobe Illustrator 19.0.0, SVG Export Plug-In . SVG Version: 6.00 Build 0)  -->
<svg version="1.1" id="Capa_1" xmlns="http://www.w3.org/2000/svg" xmlns:xlink="http://www.w3.org/1999/xlink" x="0px" y="0px"
	 viewBox="0 0 512 512" style="enable-background:new 0 0 512 512;" xml:space="preserve">
<path style="fill:#366DB6;" d="M196.825,234.305c-11.785,34.955-18.927,89.097-18.927,138.847c0,31.102,2.786,69.215,7.749,95.458
	h140.696c4.972-26.242,7.758-64.356,7.758-95.458c0-49.751-7.142-103.893-18.927-138.847H196.825z"/>
<path style="fill:#ED8A19;" d="M400.471,219.518c-30.85-61.709-30.85-134.344,0-196.053l1.111-2.222
	C406.459,11.481,399.369,0,388.452,0H123.548c-10.917,0-18.015,11.481-13.13,21.244l1.111,2.222
	c30.85,61.709,30.85,134.344,0,196.053l-1.111,2.222c-4.877,9.763,2.222,21.244,13.13,21.244h264.895
	c10.917,0,18.015-11.481,13.13-21.244L400.471,219.518z"/>
<path style="fill:#1F436D;" d="M394.847,503.322H117.153l0,0c0-23.96,19.43-43.39,43.39-43.39h190.915
	C375.418,459.932,394.847,479.362,394.847,503.322L394.847,503.322z"/>
<path style="fill:#DC691D;" d="M154.06,216.949c-0.981,0-1.979-0.174-2.951-0.521c-4.513-1.631-6.838-6.613-5.207-11.116
	c19.569-54.055,19.569-113.595,0-167.65c-1.631-4.504,0.703-9.485,5.207-11.116c4.495-1.614,9.485,0.694,11.116,5.207
	c20.949,57.865,20.949,121.604,0,179.469C160.942,214.762,157.618,216.949,154.06,216.949z"/>
<path style="fill:#1F436D;" d="M215.483,433.898c-4.348,0-8.105-3.263-8.609-7.689c-1.953-17.035-2.942-34.885-2.942-53.057
	c0-34.59,3.671-68.296,10.622-97.462c1.111-4.669,5.806-7.532,10.448-6.43c4.669,1.111,7.541,5.788,6.43,10.448
	c-6.639,27.874-10.145,60.182-10.145,93.444c0,17.512,0.946,34.703,2.829,51.079c0.538,4.764-2.872,9.06-7.637,9.606
	C216.142,433.881,215.812,433.898,215.483,433.898z"/>
<path style="fill:#7383BF;" d="M481.627,512H30.373c-4.79,0-8.678-3.888-8.678-8.678s3.888-8.678,8.678-8.678h451.254
	c4.79,0,8.678,3.888,8.678,8.678S486.417,512,481.627,512z"/>
<g>
</g>
<g>
</g>
<g>
</g>
<g>
</g>
<g>
</g>
<g>
</g>
<g>
</g>
<g>
</g>
<g>
</g>
<g>
</g>
<g>
</g>
<g>
</g>
<g>
</g>
<g>
</g>
<g>
</g>
</svg>
