<?xml version="1.0" encoding="iso-8859-1"?>
<!-- Generator: Adobe Illustrator 19.0.0, SVG Export Plug-In . SVG Version: 6.00 Build 0)  -->
<svg version="1.1" id="Capa_1" xmlns="http://www.w3.org/2000/svg" xmlns:xlink="http://www.w3.org/1999/xlink" x="0px" y="0px"
	 viewBox="0 0 512 512" style="enable-background:new 0 0 512 512;" xml:space="preserve">
<path style="fill:#A35B36;" d="M489.498,172.138h-39.292v-35.31c0-16.87-13.674-30.543-30.543-30.543h-133.12
	c-16.87,0-30.543,13.674-30.543,30.543c0-16.87-13.674-30.543-30.543-30.543H92.337c-16.87,0-30.543,13.674-30.543,30.543v35.31
	H22.502C10.072,172.138,0,182.21,0,194.639v171.705h88.276h335.448H512V194.639C512,182.21,501.928,172.138,489.498,172.138z"/>
<g>
	<path style="fill:#AFB6BB;" d="M52.966,445.793c-4.882,0-8.828-3.955-8.828-8.828v-35.31c0-4.873,3.946-8.828,8.828-8.828
		s8.828,3.955,8.828,8.828v35.31C61.793,441.838,57.847,445.793,52.966,445.793z"/>
	<path style="fill:#AFB6BB;" d="M70.621,445.793H35.31c-4.882,0-8.828-3.955-8.828-8.828s3.946-8.828,8.828-8.828h35.31
		c4.882,0,8.828,3.955,8.828,8.828S75.502,445.793,70.621,445.793z"/>
	<path style="fill:#AFB6BB;" d="M459.034,445.793c-4.882,0-8.828-3.955-8.828-8.828v-35.31c0-4.873,3.946-8.828,8.828-8.828
		c4.882,0,8.828,3.955,8.828,8.828v35.31C467.862,441.838,463.916,445.793,459.034,445.793z"/>
	<path style="fill:#AFB6BB;" d="M476.69,445.793h-35.31c-4.882,0-8.828-3.955-8.828-8.828s3.946-8.828,8.828-8.828h35.31
		c4.882,0,8.828,3.955,8.828,8.828S481.571,445.793,476.69,445.793z"/>
</g>
<g>
	<rect x="35.31" y="348.69" style="fill:#E7ECED;" width="35.31" height="52.966"/>
	<rect x="441.379" y="348.69" style="fill:#E7ECED;" width="35.31" height="52.966"/>
</g>
<g>
	<path style="fill:#84462A;" d="M88.276,366.345H0V194.639c0-12.429,10.072-22.502,22.502-22.502h43.273
		c12.429,0,22.502,10.072,22.502,22.502V366.345z"/>
	<path style="fill:#84462A;" d="M512,366.345h-88.276V194.639c0-12.429,10.072-22.502,22.502-22.502h43.273
		c12.429,0,22.502,10.072,22.502,22.502V366.345z"/>
</g>
<rect x="88.276" y="313.379" style="fill:#683521;" width="335.448" height="52.966"/>
<path style="fill:#BE6E41;" d="M225.457,66.207H92.337c-16.87,0-30.543,13.674-30.543,30.543v75.388h3.981
	c12.429,0,22.502,10.072,22.502,22.502v118.74H256V96.75C256,79.881,242.326,66.207,225.457,66.207z"/>
<path style="fill:#A35B36;" d="M446.226,172.138h3.981V96.75c0-16.87-13.674-30.543-30.543-30.543h-133.12
	C269.674,66.207,256,79.881,256,96.75v216.629h167.724v-118.74C423.724,182.21,433.796,172.138,446.226,172.138z"/>
<path style="fill:#683521;" d="M256,128h-35.31c-4.882,0-8.828-3.955-8.828-8.828c0-4.873,3.946-8.828,8.828-8.828H256
	c4.882,0,8.828,3.955,8.828,8.828C264.828,124.045,260.882,128,256,128z"/>
<path style="fill:#A35B36;" d="M185.379,128h-17.655c-4.882,0-8.828-3.955-8.828-8.828c0-4.873,3.946-8.828,8.828-8.828h17.655
	c4.882,0,8.828,3.955,8.828,8.828C194.207,124.045,190.261,128,185.379,128z"/>
<g>
	<path style="fill:#683521;" d="M291.31,128H256c-4.882,0-8.828-3.955-8.828-8.828c0-4.873,3.946-8.828,8.828-8.828h35.31
		c4.882,0,8.828,3.955,8.828,8.828C300.138,124.045,296.192,128,291.31,128z"/>
	<path style="fill:#683521;" d="M344.276,128h-17.655c-4.882,0-8.828-3.955-8.828-8.828c0-4.873,3.946-8.828,8.828-8.828h17.655
		c4.882,0,8.828,3.955,8.828,8.828C353.103,124.045,349.158,128,344.276,128z"/>
	<path style="fill:#683521;" d="M512,216.276h-35.31c-4.882,0-8.828,3.955-8.828,8.828c0,4.873,3.946,8.828,8.828,8.828H512V216.276
		z"/>
	<path style="fill:#683521;" d="M0,233.931h35.31c4.882,0,8.828-3.955,8.828-8.828c0-4.873-3.946-8.828-8.828-8.828H0V233.931z"/>
</g>
<path style="fill:#84462A;" d="M256,313.379H88.276V291.84c0-22.228,18.026-40.254,40.254-40.254h87.217
	c22.228,0,40.254,18.026,40.254,40.254L256,313.379L256,313.379z"/>
<path style="fill:#BE6E41;" d="M423.724,313.379H256V291.84c0-22.228,18.026-40.254,40.254-40.254h87.217
	c22.228,0,40.254,18.026,40.254,40.254L423.724,313.379L423.724,313.379z"/>
<path style="fill:#683521;" d="M450.207,110.345h-70.621c-4.882,0-8.828,3.955-8.828,8.828c0,4.873,3.946,8.828,8.828,8.828h70.621
	V110.345z"/>
<path style="fill:#A35B36;" d="M61.793,128h70.621c4.882,0,8.828-3.955,8.828-8.828c0-4.873-3.946-8.828-8.828-8.828H61.793V128z"/>
<g>
</g>
<g>
</g>
<g>
</g>
<g>
</g>
<g>
</g>
<g>
</g>
<g>
</g>
<g>
</g>
<g>
</g>
<g>
</g>
<g>
</g>
<g>
</g>
<g>
</g>
<g>
</g>
<g>
</g>
</svg>
