<?xml version="1.0" encoding="iso-8859-1"?>
<!-- Generator: Adobe Illustrator 19.0.0, SVG Export Plug-In . SVG Version: 6.00 Build 0)  -->
<svg version="1.1" id="Capa_1" xmlns="http://www.w3.org/2000/svg" xmlns:xlink="http://www.w3.org/1999/xlink" x="0px" y="0px"
	 viewBox="0 0 512 512" style="enable-background:new 0 0 512 512;" xml:space="preserve">
<rect x="167.724" y="467.862" style="fill:#556080;" width="35.31" height="44.138"/>
<rect x="158.897" y="432.552" style="fill:#7383BF;" width="52.966" height="44.138"/>
<rect x="308.966" y="467.862" style="fill:#556080;" width="35.31" height="44.138"/>
<rect x="300.138" y="432.552" style="fill:#7383BF;" width="52.966" height="44.138"/>
<path style="fill:#556080;" d="M370.759,0H141.241c-19.5,0-35.31,15.81-35.31,35.31v370.759c0,19.5,15.81,35.31,35.31,35.31h229.517
	c19.5,0,35.31-15.81,35.31-35.31V35.31C406.069,15.81,390.259,0,370.759,0z"/>
<rect x="105.931" y="44.138" style="fill:#7383BF;" width="300.138" height="344.276"/>
<g>
	<circle style="fill:#FFFFFF;" cx="256" cy="105.931" r="26.483"/>
	<path style="fill:#FFFFFF;" d="M300.138,344.276h-88.276c-9.754,0-17.655-7.901-17.655-17.655v-26.483
		c0-9.754,7.901-17.655,17.655-17.655h88.276c9.754,0,17.655,7.901,17.655,17.655v26.483
		C317.793,336.375,309.892,344.276,300.138,344.276z"/>
</g>
<path style="fill:#366DB6;" d="M256,105.931c-4.873,0-8.828,3.955-8.828,8.828v16.031c2.772,0.989,5.711,1.624,8.828,1.624
	s6.056-0.636,8.828-1.624v-16.031C264.828,109.886,260.873,105.931,256,105.931z"/>
<path style="fill:#DD352E;" d="M276.242,311.552l-32.724,32.724h24.964l20.242-20.242c3.452-3.452,3.452-9.031,0-12.482
	C285.272,308.1,279.693,308.1,276.242,311.552z"/>
<g>
</g>
<g>
</g>
<g>
</g>
<g>
</g>
<g>
</g>
<g>
</g>
<g>
</g>
<g>
</g>
<g>
</g>
<g>
</g>
<g>
</g>
<g>
</g>
<g>
</g>
<g>
</g>
<g>
</g>
</svg>
