<?xml version="1.0" encoding="iso-8859-1"?>
<!-- Generator: Adobe Illustrator 19.0.0, SVG Export Plug-In . SVG Version: 6.00 Build 0)  -->
<svg version="1.1" id="Capa_1" xmlns="http://www.w3.org/2000/svg" xmlns:xlink="http://www.w3.org/1999/xlink" x="0px" y="0px"
	 viewBox="0 0 512 512" style="enable-background:new 0 0 512 512;" xml:space="preserve">
<path style="fill:#5B2923;" d="M467.862,220.69l-17.655-84.551v-12.553c0-16.79-13.612-30.402-30.402-30.402h-53.963
	c-16.79,0-30.402,9.693-30.402,26.483c0-16.79-13.612-26.483-30.402-26.483h-98.083c-16.79,0-30.402,9.693-30.402,26.483
	c0-16.79-13.612-26.483-30.402-26.483H92.186c-16.781,0-30.393,13.612-30.393,30.402v12.553L44.138,220.69
	c-3.028,0-5.976-0.309-8.828-0.892v97.995v35.513c0,9.64,7.812,17.452,17.452,17.452h406.475c9.64,0,17.452-7.812,17.452-17.452
	v-35.513v-97.995C473.838,220.381,470.89,220.69,467.862,220.69z"/>
<g>
	<path style="fill:#AFB6BB;" d="M88.276,459.034c-4.882,0-8.828-3.955-8.828-8.828v-35.31c0-4.873,3.946-8.828,8.828-8.828
		s8.828,3.955,8.828,8.828v35.31C97.103,455.08,93.158,459.034,88.276,459.034z"/>
	<path style="fill:#AFB6BB;" d="M105.931,459.034h-35.31c-4.882,0-8.828-3.955-8.828-8.828c0-4.873,3.946-8.828,8.828-8.828h35.31
		c4.882,0,8.828,3.955,8.828,8.828C114.759,455.08,110.813,459.034,105.931,459.034z"/>
	<path style="fill:#AFB6BB;" d="M423.724,459.034c-4.882,0-8.828-3.955-8.828-8.828v-35.31c0-4.873,3.946-8.828,8.828-8.828
		c4.882,0,8.828,3.955,8.828,8.828v35.31C432.552,455.08,428.606,459.034,423.724,459.034z"/>
	<path style="fill:#AFB6BB;" d="M441.379,459.034h-35.31c-4.882,0-8.828-3.955-8.828-8.828c0-4.873,3.946-8.828,8.828-8.828h35.31
		c4.882,0,8.828,3.955,8.828,8.828C450.207,455.08,446.261,459.034,441.379,459.034z"/>
</g>
<path style="fill:#6C342A;" d="M88.276,176.552v141.241h88.276h150.069h97.103V176.552c0-18.088,10.911-33.598,26.483-40.413V83.368
	c0-16.79-13.612-30.402-30.402-30.402h-53.963c-16.781,0-30.393,9.693-30.393,26.483c0-16.79-13.612-26.483-30.402-26.483h-98.092
	c-16.79,0-30.402,9.693-30.402,26.483c0-16.79-13.612-26.483-30.402-26.483H92.186c-16.781,0-30.393,13.612-30.393,30.402v52.78
	C77.365,142.954,88.276,158.464,88.276,176.552z"/>
<g>
	<circle style="fill:#96544B;" cx="44.138" cy="176.552" r="44.138"/>
	<circle style="fill:#96544B;" cx="467.862" cy="176.552" r="44.138"/>
</g>
<path style="fill:#5B2923;" d="M467.862,220.69c-24.373,0-44.138-19.765-44.138-44.138v141.241H88.276V176.552
	c0,24.373-19.765,44.138-44.138,44.138c-3.028,0-5.976-0.309-8.828-0.892v97.995v35.513c0,9.64,7.812,17.452,17.452,17.452h406.475
	c9.64,0,17.452-7.812,17.452-17.452v-35.513v-97.995C473.838,220.381,470.89,220.69,467.862,220.69z"/>
<g>
	<rect x="70.621" y="370.759" style="fill:#E7ECED;" width="35.31" height="44.138"/>
	<rect x="406.069" y="370.759" style="fill:#E7ECED;" width="35.31" height="44.138"/>
</g>
<path style="fill:#441C19;" d="M308.966,317.793H203.034v-40.218c0-16.79,13.612-30.402,30.402-30.402h45.135
	c16.781,0,30.393,13.612,30.393,30.402V317.793z"/>
<g>
	<path style="fill:#96544B;" d="M238.345,141.241c-2.26,0-4.52-0.865-6.241-2.586L214.449,121c-3.452-3.452-3.452-9.031,0-12.482
		c3.452-3.452,9.031-3.452,12.482,0l17.655,17.655c3.452,3.452,3.452,9.031,0,12.482
		C242.865,140.376,240.605,141.241,238.345,141.241z"/>
	<path style="fill:#96544B;" d="M220.69,194.207c-2.26,0-4.52-0.865-6.241-2.586c-3.452-3.452-3.452-9.031,0-12.482l17.655-17.655
		c3.452-3.452,9.031-3.452,12.482,0c3.452,3.452,3.452,9.031,0,12.482l-17.655,17.655
		C225.209,193.342,222.95,194.207,220.69,194.207z"/>
	<path style="fill:#96544B;" d="M273.655,141.241c-2.26,0-4.52-0.865-6.241-2.586c-3.452-3.452-3.452-9.031,0-12.482l17.655-17.655
		c3.452-3.452,9.031-3.452,12.482,0s3.452,9.031,0,12.482l-17.655,17.655C278.175,140.376,275.915,141.241,273.655,141.241z"/>
	<path style="fill:#96544B;" d="M291.31,194.207c-2.26,0-4.52-0.865-6.241-2.586l-17.655-17.655c-3.452-3.452-3.452-9.031,0-12.482
		c3.452-3.452,9.031-3.452,12.482,0l17.655,17.655c3.452,3.452,3.452,9.031,0,12.482C295.83,193.342,293.57,194.207,291.31,194.207z
		"/>
	<path style="fill:#96544B;" d="M273.655,176.552h-35.31c-4.882,0-8.828-3.955-8.828-8.828v-35.31c0-4.873,3.946-8.828,8.828-8.828
		h35.31c4.882,0,8.828,3.955,8.828,8.828v35.31C282.483,172.597,278.537,176.552,273.655,176.552z M247.172,158.897h17.655v-17.655
		h-17.655V158.897z"/>
	<path style="fill:#96544B;" d="M335.448,256c4.882,0,8.828-3.955,8.828-8.828V59.992c-5.455,4.52-8.828,11.105-8.828,19.456
		c0-8.351-3.372-14.936-8.828-19.456v187.18C326.621,252.045,330.567,256,335.448,256z"/>
	<path style="fill:#96544B;" d="M185.379,247.172V59.992c-5.455,4.52-8.828,11.105-8.828,19.456c0-8.351-3.372-14.936-8.828-19.456
		v187.18c0,4.873,3.946,8.828,8.828,8.828S185.379,252.045,185.379,247.172z"/>
	<path style="fill:#96544B;" d="M203.034,317.793H88.276v-40.218c0-16.79,13.612-30.402,30.402-30.402h53.963
		c16.781,0,30.393,13.612,30.393,30.402V317.793z"/>
	<path style="fill:#96544B;" d="M423.724,317.793H308.966v-40.218c0-16.79,13.612-30.402,30.402-30.402h53.963
		c16.781,0,30.393,13.612,30.393,30.402V317.793z"/>
</g>
<g>
</g>
<g>
</g>
<g>
</g>
<g>
</g>
<g>
</g>
<g>
</g>
<g>
</g>
<g>
</g>
<g>
</g>
<g>
</g>
<g>
</g>
<g>
</g>
<g>
</g>
<g>
</g>
<g>
</g>
</svg>
