<?xml version="1.0" encoding="iso-8859-1"?>
<!-- Generator: Adobe Illustrator 19.0.0, SVG Export Plug-In . SVG Version: 6.00 Build 0)  -->
<svg version="1.1" id="Capa_1" xmlns="http://www.w3.org/2000/svg" xmlns:xlink="http://www.w3.org/1999/xlink" x="0px" y="0px"
	 viewBox="0 0 512 512" style="enable-background:new 0 0 512 512;" xml:space="preserve">
<path style="fill:#B02721;" d="M485.421,224.561l-135.105,8.982c0-34.753-37.107-44.912-71.86-44.912h-49.808
	c-21.387,0-15.638,2.425-33.729-8.982c-20.202-12.737-56.437-53.895-114.077-53.895l-35.93-8.982
	c-19.842,0-35.93,16.088-35.93,35.93s16.088,35.93,35.93,35.93c44.912,0,35.93,35.93,35.93,35.93v89.825H512V251.14
	C512,236.463,500.098,224.561,485.421,224.561z"/>
<g>
	<path style="fill:#AFB6BB;" d="M476.07,395.228c-4.967,0-8.982-4.024-8.982-8.982v-35.93c0-4.958,4.015-8.982,8.982-8.982
		c4.967,0,8.982,4.024,8.982,8.982v35.93C485.053,391.204,481.037,395.228,476.07,395.228z"/>
	<path style="fill:#AFB6BB;" d="M494.035,395.228h-35.93c-4.967,0-8.982-4.024-8.982-8.982s4.015-8.982,8.982-8.982h35.93
		c4.967,0,8.982,4.024,8.982,8.982S499.002,395.228,494.035,395.228z"/>
	<path style="fill:#AFB6BB;" d="M116.772,395.228c-4.967,0-8.982-4.024-8.982-8.982v-35.93c0-4.958,4.015-8.982,8.982-8.982
		c4.967,0,8.982,4.024,8.982,8.982v35.93C125.754,391.204,121.739,395.228,116.772,395.228z"/>
	<path style="fill:#AFB6BB;" d="M134.737,395.228h-35.93c-4.967,0-8.982-4.024-8.982-8.982s4.015-8.982,8.982-8.982h35.93
		c4.967,0,8.982,4.024,8.982,8.982S139.704,395.228,134.737,395.228z"/>
</g>
<g>
	<circle style="fill:#DD352E;" cx="35.93" cy="152.702" r="35.93"/>
	<path style="fill:#DD352E;" d="M512,314.386H80.842v-89.825h404.579c14.677,0,26.579,11.902,26.579,26.579V314.386z"/>
</g>
<g>
	<rect x="458.105" y="314.386" style="fill:#E7ECED;" width="35.93" height="35.93"/>
	<rect x="98.807" y="314.386" style="fill:#E7ECED;" width="35.93" height="35.93"/>
</g>
<path style="fill:#B02721;" d="M296.421,314.386H80.842l0,0c0-19.842,16.088-35.93,35.93-35.93h143.719
	C280.333,278.456,296.421,294.544,296.421,314.386L296.421,314.386z"/>
<g>
	<path style="fill:#891A1A;" d="M512,314.386H296.421l0,0c0-19.842,16.088-35.93,35.93-35.93H476.07
		C495.912,278.456,512,294.544,512,314.386L512,314.386z"/>
	<path style="fill:#891A1A;" d="M35.93,116.772c19.842,0,35.93,16.088,35.93,35.93s-16.088,35.93-35.93,35.93
		c44.912,0,44.912,35.93,44.912,35.93h71.86C152.702,164.981,100.478,116.772,35.93,116.772z"/>
</g>
<path style="fill:#B02721;" d="M305.404,161.684h-49.808c-21.387,0-42.586-5.488-60.676-16.896
	c-20.202-12.737-56.437-28.016-114.077-28.016H35.93c64.548,0,116.772,48.209,116.772,107.789h215.579
	C368.281,189.808,340.157,161.684,305.404,161.684z"/>
<g>
</g>
<g>
</g>
<g>
</g>
<g>
</g>
<g>
</g>
<g>
</g>
<g>
</g>
<g>
</g>
<g>
</g>
<g>
</g>
<g>
</g>
<g>
</g>
<g>
</g>
<g>
</g>
<g>
</g>
</svg>
