<?xml version="1.0" encoding="iso-8859-1"?>
<!-- Generator: Adobe Illustrator 19.0.0, SVG Export Plug-In . SVG Version: 6.00 Build 0)  -->
<svg version="1.1" id="Capa_1" xmlns="http://www.w3.org/2000/svg" xmlns:xlink="http://www.w3.org/1999/xlink" x="0px" y="0px"
	 viewBox="0 0 512 512" style="enable-background:new 0 0 512 512;" xml:space="preserve">
<path style="fill:#A35B36;" d="M485.517,189.793v-67.019c0-16.614-13.471-30.084-30.084-30.084H286.084
	c-16.614,0-30.084,13.471-30.084,30.084v81.196h197.491C463.157,197.553,473.971,192.768,485.517,189.793z"/>
<path style="fill:#BE6E41;" d="M467.862,199.274v-9.481h-220.69v79.448h185.821C435.297,241.479,448.291,216.823,467.862,199.274z"
	/>
<rect x="88.276" y="269.241" style="fill:#683521;" width="326.621" height="35.31"/>
<path style="fill:#BE6E41;" d="M225.916,92.69H56.567c-16.614,0-30.084,13.471-30.084,30.084v67.019
	c11.546,2.975,22.36,7.759,32.026,14.186H256v-81.205C256,106.161,242.529,92.69,225.916,92.69z"/>
<path style="fill:#A35B36;" d="M44.138,189.793v9.481c19.571,17.549,32.565,42.205,34.869,69.967H256v-79.448H44.138z"/>
<g>
	<path style="fill:#AFB6BB;" d="M459.034,419.31c-4.882,0-8.828-3.955-8.828-8.828v-35.31c0-4.873,3.946-8.828,8.828-8.828
		c4.882,0,8.828,3.955,8.828,8.828v35.31C467.862,415.356,463.916,419.31,459.034,419.31z"/>
	<path style="fill:#AFB6BB;" d="M476.69,419.31h-35.31c-4.882,0-8.828-3.955-8.828-8.828s3.946-8.828,8.828-8.828h35.31
		c4.882,0,8.828,3.955,8.828,8.828S481.571,419.31,476.69,419.31z"/>
	<path style="fill:#AFB6BB;" d="M52.966,419.31c-4.882,0-8.828-3.955-8.828-8.828v-35.31c0-4.873,3.946-8.828,8.828-8.828
		s8.828,3.955,8.828,8.828v35.31C61.793,415.356,57.847,419.31,52.966,419.31z"/>
	<path style="fill:#AFB6BB;" d="M70.621,419.31H35.31c-4.882,0-8.828-3.955-8.828-8.828s3.946-8.828,8.828-8.828h35.31
		c4.882,0,8.828,3.955,8.828,8.828S75.502,419.31,70.621,419.31z"/>
</g>
<g>
	<rect x="441.379" y="331.034" style="fill:#E7ECED;" width="35.31" height="44.138"/>
	<rect x="35.31" y="331.034" style="fill:#E7ECED;" width="35.31" height="44.138"/>
</g>
<g>
	<path style="fill:#84462A;" d="M105.931,339.862H0V172.138l0,0c58.5,0,105.931,47.431,105.931,105.931V339.862z"/>
	<path style="fill:#84462A;" d="M512,339.862H406.069v-61.793c0-58.5,47.431-105.931,105.931-105.931l0,0V339.862z"/>
</g>
<g>
</g>
<g>
</g>
<g>
</g>
<g>
</g>
<g>
</g>
<g>
</g>
<g>
</g>
<g>
</g>
<g>
</g>
<g>
</g>
<g>
</g>
<g>
</g>
<g>
</g>
<g>
</g>
<g>
</g>
</svg>
