<?xml version="1.0" encoding="iso-8859-1"?>
<!-- Generator: Adobe Illustrator 19.0.0, SVG Export Plug-In . SVG Version: 6.00 Build 0)  -->
<svg version="1.1" id="Capa_1" xmlns="http://www.w3.org/2000/svg" xmlns:xlink="http://www.w3.org/1999/xlink" x="0px" y="0px"
	 viewBox="0 0 511.999 511.999" style="enable-background:new 0 0 511.999 511.999;" xml:space="preserve">
<path style="fill:#187A36;" d="M428.713,216.442c-15.634-4.582-31.47-4.582-31.47-4.582h-3.496
	c-0.009,0.009-0.009,0.018-0.018,0.018c33.156-47.113,29.908-97.121,29.908-97.121c8.828-61.793-61.714-8.828-61.714-8.828
	c-5.508-6.612-11.299-12.526-17.196-17.832c-52.039-46.857-127.647-46.83-177.47,0c-5.782,5.438-11.688,11.229-17.196,17.832
	c0,0-61.873-52.966-53.045,8.828c0,0-11.908,50.008,21.248,97.121c0,0,0-0.009-0.009-0.018h-3.496c0,0-15.837,0-31.479,4.582
	c-20.692,6.065-28.186,31.806-14.415,48.402c12.65,15.245,28.239,37.217,28.239,52.948h52.966h211.862h52.966
	c0-15.74,15.59-37.711,28.231-52.948C456.908,248.248,449.413,222.507,428.713,216.442z"/>
<path style="fill:#23A24D;" d="M406.07,370.758H105.932c-14.627,0-26.483-11.855-26.483-26.483l0,0
	c0-14.627,11.855-26.483,26.483-26.483H406.07c14.627,0,26.483,11.855,26.483,26.483l0,0
	C432.553,358.902,420.697,370.758,406.07,370.758z"/>
<path style="fill:#E7ECED;" d="M432.553,400.551c-2.207-12.138-8.828-25.379-26.483-29.793H97.104
	c-17.655,4.414-24.276,17.655-26.483,29.793c-2.013,11.061-1.783,23.702,4.961,32.697c20.259,27.039,15.872,47.175,6.921,60.31
	c-5.358,7.857,0.071,18.441,9.578,18.441h13.85c52.966,0,17.655-52.966,17.655-52.966c-14.566-33.986-5.102-46.61,6.374-51.085
	c9.366-3.655,19.836-1.05,28.028,4.793c32.998,23.561,89.185,19.809,89.185,19.809h8.828c0,0,56.188,3.743,89.194-19.818
	c8.183-5.844,18.661-8.448,28.028-4.793c11.476,4.476,20.939,17.099,6.374,51.085c0,0-35.31,52.966,17.655,52.966h13.85
	c9.507,0,14.936-10.584,9.578-18.441c-8.96-13.144-13.347-33.28,6.921-60.31C434.336,424.253,434.565,411.612,432.553,400.551z"/>
<path style="fill:#187A36;" d="M118.255,211.861h-3.496c0,0-15.837,0-31.479,4.582c-20.692,6.065-28.186,31.806-14.415,48.402
	c12.65,15.245,28.239,37.217,28.239,52.948h52.966v-70.621C137.296,236.225,126.897,224.14,118.255,211.861z"/>
<path style="fill:#23A24D;" d="M361.932,52.964c-5.508-6.612-11.299-12.526-17.196-17.832c-52.039-46.857-127.647-46.83-177.47,0
	c-5.791,5.438-11.688,11.229-17.196,17.832c0,0-79.448,0-70.621,61.793c0,0,8.828,79.448,70.621,132.414v70.621h211.862v-70.621
	c61.793-52.966,70.621-132.414,70.621-132.414C441.38,52.964,361.932,52.964,361.932,52.964z"/>
<g>
	<path style="fill:#187A36;" d="M393.738,211.861h3.496c0,0,15.837,0,31.479,4.582c20.692,6.065,28.186,31.806,14.415,48.402
		c-12.65,15.236-28.231,37.208-28.231,52.948h-52.966v-70.621C374.705,236.225,385.104,224.14,393.738,211.861z"/>
	<path style="fill:#187A36;" d="M256.001,264.826c-79.448,0-105.931,52.966-105.931,52.966h211.862
		C361.932,317.792,335.449,264.826,256.001,264.826z"/>
</g>
<g>
	<path style="fill:#105E26;" d="M149.982,255.999c-4.873,0-8.828-3.955-8.828-8.828s3.955-8.828,8.828-8.828
		c9.737,0,17.655-7.918,17.655-17.655c0-4.873,3.955-8.828,8.828-8.828c4.873,0,8.828,3.955,8.828,8.828
		C185.292,240.162,169.455,255.999,149.982,255.999z"/>
	<path style="fill:#105E26;" d="M361.844,255.999c-19.474,0-35.31-15.837-35.31-35.31c0-4.873,3.955-8.828,8.828-8.828
		s8.828,3.955,8.828,8.828c0,9.737,7.918,17.655,17.655,17.655c4.873,0,8.828,3.955,8.828,8.828S366.725,255.999,361.844,255.999z"
		/>
	<path style="fill:#105E26;" d="M244.507,147.481c-2.26,0-4.52-0.865-6.241-2.586l-23.896-23.896c-3.452-3.452-3.452-9.031,0-12.482
		c3.452-3.452,9.031-3.452,12.482,0l23.896,23.896c3.452,3.452,3.452,9.031,0,12.482
		C249.018,146.625,246.758,147.481,244.507,147.481z"/>
	<path style="fill:#105E26;" d="M220.602,194.206c-2.26,0-4.52-0.865-6.241-2.586c-3.452-3.452-3.452-9.031,0-12.482l23.896-23.896
		c3.452-3.452,9.031-3.452,12.482,0c3.452,3.452,3.452,9.031,0,12.482l-23.896,23.896
		C225.122,193.35,222.862,194.206,220.602,194.206z"/>
	<path style="fill:#105E26;" d="M267.327,147.481c-2.26,0-4.52-0.865-6.241-2.586c-3.452-3.452-3.452-9.031,0-12.482l23.896-23.896
		c3.452-3.452,9.031-3.452,12.482,0s3.452,9.031,0,12.482l-23.896,23.896C271.846,146.625,269.587,147.481,267.327,147.481z"/>
	<path style="fill:#105E26;" d="M291.223,194.206c-2.26,0-4.52-0.865-6.241-2.586l-23.896-23.896c-3.452-3.452-3.452-9.031,0-12.482
		c3.452-3.452,9.031-3.452,12.482,0l23.896,23.896c3.452,3.452,3.452,9.031,0,12.482
		C295.743,193.35,293.483,194.206,291.223,194.206z"/>
</g>
<g>
	<circle style="fill:#187A36;" cx="255.913" cy="150.068" r="26.483"/>
	<path style="fill:#187A36;" d="M185.292,97.102c4.873,0,8.828-3.955,8.828-8.828s-3.955-8.828-8.828-8.828
		c-14.601,0-26.483-11.882-26.483-26.483c0-2.569-1.139-4.838-2.895-6.453c-1.96,2.11-3.946,4.175-5.844,6.453
		c0,0-3.478,0.009-8.854,0.565C141.525,77.602,161.157,97.102,185.292,97.102z"/>
	<path style="fill:#187A36;" d="M361.932,52.964c-1.916-2.295-3.902-4.405-5.879-6.541c-1.827,1.615-3.037,3.911-3.037,6.541
		c0,14.601-11.882,26.483-26.483,26.483c-4.873,0-8.828,3.955-8.828,8.828s3.955,8.828,8.828,8.828
		c24.143,0,43.776-19.509,44.085-43.591C365.339,52.973,361.932,52.964,361.932,52.964z"/>
</g>
<g>
</g>
<g>
</g>
<g>
</g>
<g>
</g>
<g>
</g>
<g>
</g>
<g>
</g>
<g>
</g>
<g>
</g>
<g>
</g>
<g>
</g>
<g>
</g>
<g>
</g>
<g>
</g>
<g>
</g>
</svg>
