<?xml version="1.0" encoding="iso-8859-1"?>
<!-- Generator: Adobe Illustrator 19.0.0, SVG Export Plug-In . SVG Version: 6.00 Build 0)  -->
<svg version="1.1" id="Capa_1" xmlns="http://www.w3.org/2000/svg" xmlns:xlink="http://www.w3.org/1999/xlink" x="0px" y="0px"
	 viewBox="0 0 512.002 512.002" style="enable-background:new 0 0 512.002 512.002;" xml:space="preserve">
<g>
	<path style="fill:#DD352E;" d="M428.714,216.446c-15.634-4.582-31.47-4.582-31.47-4.582h-3.496
		c-0.009,0.009-0.009,0.018-0.018,0.018c33.156-47.113,38.824-97.121,38.824-97.121c8.828-61.793-70.621-61.793-70.621-61.793
		c-5.508-6.612-11.299-12.526-17.196-17.832c-52.039-46.857-127.647-46.83-177.47,0c-5.791,5.438-11.688,11.229-17.196,17.832
		c0,0-79.448,0-70.621,61.793c0,0,5.667,50.008,38.824,97.121c-0.009,0-0.009-0.009-0.018-0.018h-3.496c0,0-15.837,0-31.479,4.582
		c-20.692,6.065-28.186,31.806-14.415,48.402c12.65,15.245,28.239,37.217,28.239,52.948h52.966h211.862h52.966
		c0-15.74,15.59-37.711,28.231-52.948C456.91,248.252,449.415,222.51,428.714,216.446z"/>
	<path style="fill:#DD352E;" d="M167.259,35.136c-5.782,5.438-11.679,11.229-17.187,17.832v264.828h211.862V52.968
		c-5.508-6.612-11.299-12.526-17.196-17.832C292.699-11.721,217.091-11.703,167.259,35.136z"/>
</g>
<path style="fill:#B02721;" d="M79.451,114.761c0,0,8.828,79.448,70.621,132.414V52.968
	C150.071,52.968,70.623,52.968,79.451,114.761z"/>
<path style="fill:#DD352E;" d="M406.071,370.761H105.934c-14.627,0-26.483-11.855-26.483-26.483l0,0
	c0-14.627,11.855-26.483,26.483-26.483h300.138c14.627,0,26.483,11.855,26.483,26.483l0,0
	C432.554,358.905,420.699,370.761,406.071,370.761z"/>
<path style="fill:#6C4127;" d="M432.554,400.554c-2.207-12.138-8.828-25.379-26.483-29.793H97.106
	c-17.655,4.414-24.276,17.655-26.483,29.793c-2.013,11.061-1.783,23.702,4.961,32.697c20.259,27.039,15.872,47.175,6.921,60.31
	c-5.358,7.857,0.071,18.441,9.578,18.441h13.85c52.966,0,17.655-52.966,17.655-52.966c-14.566-33.986-5.102-46.61,6.374-51.085
	c9.366-3.655,19.836-1.05,28.028,4.793c32.998,23.561,89.185,19.809,89.185,19.809h8.828c0,0,56.188,3.743,89.194-19.818
	c8.183-5.844,18.662-8.448,28.028-4.793c11.476,4.476,20.939,17.099,6.374,51.085c0,0-35.31,52.966,17.655,52.966h13.85
	c9.507,0,14.936-10.584,9.578-18.441c-8.96-13.144-13.347-33.28,6.921-60.31C434.337,424.256,434.567,411.615,432.554,400.554z"/>
<path style="fill:#891A1A;" d="M118.257,211.864h-3.496c0,0-15.837,0-31.479,4.582c-20.692,6.065-28.186,31.806-14.415,48.402
	c12.65,15.245,28.239,37.217,28.239,52.948h52.966v-70.621C137.298,236.228,126.899,224.143,118.257,211.864z"/>
<path style="fill:#B02721;" d="M432.554,114.761c0,0-8.828,79.448-70.621,132.414V52.968
	C361.934,52.968,441.382,52.968,432.554,114.761z"/>
<path style="fill:#891A1A;" d="M393.739,211.864h3.496c0,0,15.837,0,31.479,4.582c20.692,6.065,28.186,31.806,14.415,48.402
	c-12.65,15.236-28.231,37.208-28.231,52.948h-52.966v-70.621C374.707,236.228,385.106,224.143,393.739,211.864z"/>
<path style="fill:#B02721;" d="M256.003,264.83c-79.448,0-105.931,52.966-105.931,52.966h211.862
	C361.934,317.795,335.451,264.83,256.003,264.83z"/>
<g>
	<path style="fill:#891A1A;" d="M229.52,79.45h-35.31c-4.873,0-8.828-3.955-8.828-8.828c0-4.873,3.955-8.828,8.828-8.828h35.31
		c4.873,0,8.828,3.955,8.828,8.828C238.347,75.496,234.393,79.45,229.52,79.45z"/>
	<path style="fill:#891A1A;" d="M211.865,97.106c-4.873,0-8.828-3.955-8.828-8.828v-35.31c0-4.873,3.955-8.828,8.828-8.828
		c4.873,0,8.828,3.955,8.828,8.828v35.31C220.692,93.16,216.737,97.106,211.865,97.106z"/>
	<path style="fill:#891A1A;" d="M317.796,79.45h-35.31c-4.873,0-8.828-3.955-8.828-8.828c0-4.873,3.955-8.828,8.828-8.828h35.31
		c4.873,0,8.828,3.955,8.828,8.828C326.623,75.496,322.668,79.45,317.796,79.45z"/>
	<path style="fill:#891A1A;" d="M300.14,97.106c-4.873,0-8.828-3.955-8.828-8.828v-35.31c0-4.873,3.955-8.828,8.828-8.828
		s8.828,3.955,8.828,8.828v35.31C308.968,93.16,305.013,97.106,300.14,97.106z"/>
	<path style="fill:#891A1A;" d="M229.52,150.071h-35.31c-4.873,0-8.828-3.955-8.828-8.828c0-4.873,3.955-8.828,8.828-8.828h35.31
		c4.873,0,8.828,3.955,8.828,8.828C238.347,146.116,234.393,150.071,229.52,150.071z"/>
	<path style="fill:#891A1A;" d="M211.865,167.726c-4.873,0-8.828-3.955-8.828-8.828v-35.31c0-4.873,3.955-8.828,8.828-8.828
		c4.873,0,8.828,3.955,8.828,8.828v35.31C220.692,163.78,216.737,167.726,211.865,167.726z"/>
	<path style="fill:#891A1A;" d="M317.796,150.071h-35.31c-4.873,0-8.828-3.955-8.828-8.828c0-4.873,3.955-8.828,8.828-8.828h35.31
		c4.873,0,8.828,3.955,8.828,8.828C326.623,146.116,322.668,150.071,317.796,150.071z"/>
	<path style="fill:#891A1A;" d="M300.14,167.726c-4.873,0-8.828-3.955-8.828-8.828v-35.31c0-4.873,3.955-8.828,8.828-8.828
		s8.828,3.955,8.828,8.828v35.31C308.968,163.78,305.013,167.726,300.14,167.726z"/>
	<path style="fill:#891A1A;" d="M229.52,220.692h-35.31c-4.873,0-8.828-3.955-8.828-8.828s3.955-8.828,8.828-8.828h35.31
		c4.873,0,8.828,3.955,8.828,8.828S234.393,220.692,229.52,220.692z"/>
	<path style="fill:#891A1A;" d="M211.865,238.347c-4.873,0-8.828-3.955-8.828-8.828v-35.31c0-4.873,3.955-8.828,8.828-8.828
		c4.873,0,8.828,3.955,8.828,8.828v35.31C220.692,234.401,216.737,238.347,211.865,238.347z"/>
	<path style="fill:#891A1A;" d="M317.796,220.692h-35.31c-4.873,0-8.828-3.955-8.828-8.828s3.955-8.828,8.828-8.828h35.31
		c4.873,0,8.828,3.955,8.828,8.828S322.668,220.692,317.796,220.692z"/>
	<path style="fill:#891A1A;" d="M300.14,238.347c-4.873,0-8.828-3.955-8.828-8.828v-35.31c0-4.873,3.955-8.828,8.828-8.828
		s8.828,3.955,8.828,8.828v35.31C308.968,234.401,305.013,238.347,300.14,238.347z"/>
</g>
<g>
</g>
<g>
</g>
<g>
</g>
<g>
</g>
<g>
</g>
<g>
</g>
<g>
</g>
<g>
</g>
<g>
</g>
<g>
</g>
<g>
</g>
<g>
</g>
<g>
</g>
<g>
</g>
<g>
</g>
</svg>
