<?xml version="1.0" encoding="iso-8859-1"?>
<!-- Generator: Adobe Illustrator 19.0.0, SVG Export Plug-In . SVG Version: 6.00 Build 0)  -->
<svg version="1.1" id="Capa_1" xmlns="http://www.w3.org/2000/svg" xmlns:xlink="http://www.w3.org/1999/xlink" x="0px" y="0px"
	 viewBox="0 0 512 512" style="enable-background:new 0 0 512 512;" xml:space="preserve">
<path style="fill:#DC691D;" d="M450.207,256l-26.483-117.557v-32.512c0-53.628-43.476-97.103-97.103-97.103H256h-70.621
	c-53.628,0-97.103,43.476-97.103,97.103v32.512L61.793,256c-3.001,0-5.941-0.291-8.828-0.706v80.154v38.983
	c0,17.479,14.159,31.638,31.638,31.638H256h171.396c17.479,0,31.638-14.159,31.638-31.638v-38.983v-80.154
	C456.148,255.709,453.208,256,450.207,256z"/>
<g>
	<path style="fill:#6C4127;" d="M409.009,397.241c6.179,10.452,10.337,31.347,7.848,44.138c-0.062,0.318-0.124,0.627-0.185,0.936
		c-4.255,22.457-1.598,40.836,14.963,59.807l0.918,1.05h-7.751c-38.78,0-54.502-42.664-53.601-61.793
		c0.689-14.671-3.549-35.143-9.26-44.138H409.009z"/>
	<path style="fill:#6C4127;" d="M102.991,388.414c-6.179,10.452-10.337,40.174-7.848,52.966c0.062,0.318,0.124,0.627,0.185,0.936
		c4.255,22.457,1.598,40.836-14.963,59.807l-0.918,1.05h7.751c38.78,0,54.502-42.664,53.601-61.793
		c-0.689-14.671,3.549-43.97,9.26-52.966H102.991z"/>
</g>
<path style="fill:#ED8A19;" d="M326.621,8.828H256h-70.621c-53.628,0-97.103,43.476-97.103,97.103v32.512
	c20.86,9.922,35.31,31.126,35.31,55.764v141.241H256h132.414V194.207c0-24.638,14.451-45.842,35.31-55.764v-32.512
	C423.724,52.303,380.248,8.828,326.621,8.828z"/>
<g>
	<circle style="fill:#C5411E;" cx="61.793" cy="194.207" r="61.793"/>
	<circle style="fill:#C5411E;" cx="450.207" cy="194.207" r="61.793"/>
</g>
<path style="fill:#DC691D;" d="M450.207,256c-34.127,0-61.793-27.666-61.793-61.793v141.241H256H123.586V194.207
	c0,34.127-27.666,61.793-61.793,61.793c-3.001,0-5.941-0.291-8.828-0.706v80.154v38.983c0,17.479,14.159,31.638,31.638,31.638H256
	h171.396c17.479,0,31.638-14.159,31.638-31.638v-38.983v-80.154C456.148,255.709,453.208,256,450.207,256z"/>
<path style="fill:#C5411E;" d="M388.414,300.138c0,0-35.31-35.31-132.414-35.31s-132.414,35.31-132.414,35.31v35.31h264.828V300.138
	z"/>
<g>
	<path style="fill:#DC691D;" d="M176.552,176.552c-2.26,0-4.52-0.865-6.241-2.586l-17.655-17.655c-3.452-3.452-3.452-9.031,0-12.482
		s9.031-3.452,12.482,0l17.655,17.655c3.452,3.452,3.452,9.031,0,12.482C181.071,175.687,178.812,176.552,176.552,176.552z"/>
	<path style="fill:#DC691D;" d="M158.897,229.517c-2.26,0-4.52-0.865-6.241-2.586c-3.452-3.452-3.452-9.031,0-12.482l17.655-17.655
		c3.452-3.452,9.031-3.452,12.482,0c3.452,3.452,3.452,9.031,0,12.482l-17.655,17.655
		C163.416,228.652,161.156,229.517,158.897,229.517z"/>
	<path style="fill:#DC691D;" d="M211.862,176.552c-2.26,0-4.52-0.865-6.241-2.586c-3.452-3.452-3.452-9.031,0-12.482l17.655-17.655
		c3.452-3.452,9.031-3.452,12.482,0c3.452,3.452,3.452,9.031,0,12.482l-17.655,17.655
		C216.382,175.687,214.122,176.552,211.862,176.552z"/>
	<path style="fill:#DC691D;" d="M229.517,229.517c-2.26,0-4.52-0.865-6.241-2.586l-17.655-17.655c-3.452-3.452-3.452-9.031,0-12.482
		c3.452-3.452,9.031-3.452,12.482,0l17.655,17.655c3.452,3.452,3.452,9.031,0,12.482
		C234.037,228.652,231.777,229.517,229.517,229.517z"/>
</g>
<g>
	<path style="fill:#ED8A19;" d="M61.793,229.517c-19.474,0-35.31-15.837-35.31-35.31s15.837-35.31,35.31-35.31
		c4.873,0,8.828,3.955,8.828,8.828s-3.955,8.828-8.828,8.828c-9.737,0-17.655,7.918-17.655,17.655s7.918,17.655,17.655,17.655
		s17.655-7.918,17.655-17.655c0-4.873,3.955-8.828,8.828-8.828c4.873,0,8.828,3.955,8.828,8.828
		C97.103,213.681,81.267,229.517,61.793,229.517z"/>
	<path style="fill:#ED8A19;" d="M450.207,229.517c-19.474,0-35.31-15.837-35.31-35.31s15.837-35.31,35.31-35.31
		c4.873,0,8.828,3.955,8.828,8.828s-3.955,8.828-8.828,8.828c-9.737,0-17.655,7.918-17.655,17.655s7.918,17.655,17.655,17.655
		c9.737,0,17.655-7.918,17.655-17.655c0-4.873,3.955-8.828,8.828-8.828c4.873,0,8.828,3.955,8.828,8.828
		C485.517,213.681,469.681,229.517,450.207,229.517z"/>
</g>
<g>
	<path style="fill:#DC691D;" d="M211.862,211.862h-35.31c-4.873,0-8.828-3.955-8.828-8.828v-35.31c0-4.873,3.955-8.828,8.828-8.828
		h35.31c4.873,0,8.828,3.955,8.828,8.828v35.31C220.69,207.907,216.735,211.862,211.862,211.862z M185.379,194.207h17.655v-17.655
		h-17.655V194.207z"/>
	<path style="fill:#DC691D;" d="M238.345,70.621c-2.26,0-4.52-0.865-6.241-2.586l-17.655-17.655c-3.452-3.452-3.452-9.031,0-12.482
		c3.452-3.452,9.031-3.452,12.482,0l17.655,17.655c3.452,3.452,3.452,9.031,0,12.482C242.865,69.756,240.605,70.621,238.345,70.621z
		"/>
	<path style="fill:#DC691D;" d="M220.69,123.586c-2.26,0-4.52-0.865-6.241-2.586c-3.452-3.452-3.452-9.031,0-12.482l17.655-17.655
		c3.452-3.452,9.031-3.452,12.482,0c3.452,3.452,3.452,9.031,0,12.482L226.931,121C225.209,122.721,222.95,123.586,220.69,123.586z"
		/>
	<path style="fill:#DC691D;" d="M273.655,70.621c-2.26,0-4.52-0.865-6.241-2.586c-3.452-3.452-3.452-9.031,0-12.482l17.655-17.655
		c3.452-3.452,9.031-3.452,12.482,0c3.452,3.452,3.452,9.031,0,12.482l-17.655,17.655C278.175,69.756,275.915,70.621,273.655,70.621
		z"/>
	<path style="fill:#DC691D;" d="M291.31,123.586c-2.26,0-4.52-0.865-6.241-2.586l-17.655-17.655c-3.452-3.452-3.452-9.031,0-12.482
		c3.452-3.452,9.031-3.452,12.482,0l17.655,17.655c3.452,3.452,3.452,9.031,0,12.482C295.83,122.721,293.57,123.586,291.31,123.586z
		"/>
	<path style="fill:#DC691D;" d="M273.655,105.931h-35.31c-4.873,0-8.828-3.955-8.828-8.828v-35.31c0-4.873,3.955-8.828,8.828-8.828
		h35.31c4.873,0,8.828,3.955,8.828,8.828v35.31C282.483,101.976,278.528,105.931,273.655,105.931z M247.172,88.276h17.655V70.621
		h-17.655V88.276z"/>
	<path style="fill:#DC691D;" d="M300.138,176.552c-2.26,0-4.52-0.865-6.241-2.586l-17.655-17.655c-3.452-3.452-3.452-9.031,0-12.482
		c3.452-3.452,9.031-3.452,12.482,0l17.655,17.655c3.452,3.452,3.452,9.031,0,12.482
		C304.658,175.687,302.398,176.552,300.138,176.552z"/>
	<path style="fill:#DC691D;" d="M282.483,229.517c-2.26,0-4.52-0.865-6.241-2.586c-3.452-3.452-3.452-9.031,0-12.482l17.655-17.655
		c3.452-3.452,9.031-3.452,12.482,0c3.452,3.452,3.452,9.031,0,12.482l-17.655,17.655
		C287.003,228.652,284.743,229.517,282.483,229.517z"/>
	<path style="fill:#DC691D;" d="M335.448,176.552c-2.26,0-4.52-0.865-6.241-2.586c-3.452-3.452-3.452-9.031,0-12.482l17.655-17.655
		c3.452-3.452,9.031-3.452,12.482,0c3.452,3.452,3.452,9.031,0,12.482l-17.655,17.655
		C339.968,175.687,337.708,176.552,335.448,176.552z"/>
	<path style="fill:#DC691D;" d="M353.103,229.517c-2.26,0-4.52-0.865-6.241-2.586l-17.655-17.655c-3.452-3.452-3.452-9.031,0-12.482
		c3.452-3.452,9.031-3.452,12.482,0l17.655,17.655c3.452,3.452,3.452,9.031,0,12.482
		C357.623,228.652,355.363,229.517,353.103,229.517z"/>
	<path style="fill:#DC691D;" d="M335.448,211.862h-35.31c-4.873,0-8.828-3.955-8.828-8.828v-35.31c0-4.873,3.955-8.828,8.828-8.828
		h35.31c4.873,0,8.828,3.955,8.828,8.828v35.31C344.276,207.907,340.321,211.862,335.448,211.862z M308.966,194.207h17.655v-17.655
		h-17.655V194.207z"/>
</g>
<g>
</g>
<g>
</g>
<g>
</g>
<g>
</g>
<g>
</g>
<g>
</g>
<g>
</g>
<g>
</g>
<g>
</g>
<g>
</g>
<g>
</g>
<g>
</g>
<g>
</g>
<g>
</g>
<g>
</g>
</svg>
