<?xml version="1.0" encoding="iso-8859-1"?>
<!-- Generator: Adobe Illustrator 19.0.0, SVG Export Plug-In . SVG Version: 6.00 Build 0)  -->
<svg version="1.1" id="Capa_1" xmlns="http://www.w3.org/2000/svg" xmlns:xlink="http://www.w3.org/1999/xlink" x="0px" y="0px"
	 viewBox="0 0 512 512" style="enable-background:new 0 0 512 512;" xml:space="preserve">
<g>
	<path style="fill:#AFB6BB;" d="M113.814,460.888c9.498,4.882,16.534,13.815,18.6,24.629l105.931-79.448v-44.138L113.814,460.888z"
		/>
	<path style="fill:#AFB6BB;" d="M398.186,459.034l-124.531-97.103v44.138l105.931,77.594
		C381.652,472.858,388.687,463.916,398.186,459.034z"/>
</g>
<g>
	<path style="fill:#E7ECED;" d="M256,454.135c6.462,0,12.447,1.863,17.655,4.899V317.793h-35.31v141.241
		C243.553,455.998,249.538,454.135,256,454.135z"/>
	<path style="fill:#E7ECED;" d="M141.241,300.138h-26.483c-24.338,0-44.138-19.8-44.138-44.138v-26.483
		c0-4.873,3.955-8.828,8.828-8.828c4.873,0,8.828,3.955,8.828,8.828V256c0,14.601,11.882,26.483,26.483,26.483h26.483
		c4.873,0,8.828,3.955,8.828,8.828C150.069,296.183,146.114,300.138,141.241,300.138z"/>
</g>
<rect x="52.966" y="194.207" style="fill:#AFB6BB;" width="52.966" height="35.31"/>
<g>
	<path style="fill:#E7ECED;" d="M123.586,203.034H35.31c-4.873,0-8.828-3.955-8.828-8.828s3.955-8.828,8.828-8.828h88.276
		c4.873,0,8.828,3.955,8.828,8.828S128.459,203.034,123.586,203.034z"/>
	<path style="fill:#E7ECED;" d="M397.241,300.138h-26.483c-4.873,0-8.828-3.955-8.828-8.828c0-4.873,3.955-8.828,8.828-8.828h26.483
		c14.601,0,26.483-11.882,26.483-26.483v-26.483c0-4.873,3.955-8.828,8.828-8.828s8.828,3.955,8.828,8.828V256
		C441.379,280.338,421.579,300.138,397.241,300.138z"/>
</g>
<rect x="406.069" y="194.207" style="fill:#AFB6BB;" width="52.966" height="35.31"/>
<path style="fill:#E7ECED;" d="M476.69,203.034h-88.276c-4.873,0-8.828-3.955-8.828-8.828s3.955-8.828,8.828-8.828h88.276
	c4.873,0,8.828,3.955,8.828,8.828S481.562,203.034,476.69,203.034z"/>
<path style="fill:#25AE88;" d="M256,0c0,0-97.103,0-97.103,61.793V220.69c0,14.636,11.847,26.483,26.483,26.483H256h70.621
	c14.636,0,26.483-11.847,26.483-26.483V61.793C353.103,0,256,0,256,0z"/>
<path style="fill:#1C8262;" d="M256,247.172c-97.103,0-114.759,44.138-114.759,44.138h229.517
	C370.759,291.31,353.103,247.172,256,247.172z"/>
<path style="fill:#25AE88;" d="M350.49,326.621H161.51c-11.193,0-20.268-9.075-20.268-20.268V291.31h229.517v15.042
	C370.759,317.546,361.684,326.621,350.49,326.621z"/>
<g>
	<circle style="fill:#28384C;" cx="397.241" cy="476.69" r="35.31"/>
	<circle style="fill:#28384C;" cx="114.759" cy="476.69" r="35.31"/>
	<circle style="fill:#28384C;" cx="256" cy="476.69" r="35.31"/>
</g>
<g>
	<path style="fill:#1C8262;" d="M229.517,61.793h-35.31c-4.873,0-8.828-3.955-8.828-8.828s3.955-8.828,8.828-8.828h35.31
		c4.873,0,8.828,3.955,8.828,8.828S234.39,61.793,229.517,61.793z"/>
	<path style="fill:#1C8262;" d="M211.862,79.448c-4.873,0-8.828-3.955-8.828-8.828V35.31c0-4.873,3.955-8.828,8.828-8.828
		c4.873,0,8.828,3.955,8.828,8.828v35.31C220.69,75.494,216.735,79.448,211.862,79.448z"/>
	<path style="fill:#1C8262;" d="M317.793,61.793h-35.31c-4.873,0-8.828-3.955-8.828-8.828s3.955-8.828,8.828-8.828h35.31
		c4.873,0,8.828,3.955,8.828,8.828S322.666,61.793,317.793,61.793z"/>
	<path style="fill:#1C8262;" d="M300.138,79.448c-4.873,0-8.828-3.955-8.828-8.828V35.31c0-4.873,3.955-8.828,8.828-8.828
		s8.828,3.955,8.828,8.828v35.31C308.966,75.494,305.011,79.448,300.138,79.448z"/>
	<path style="fill:#1C8262;" d="M229.517,132.414h-35.31c-4.873,0-8.828-3.955-8.828-8.828s3.955-8.828,8.828-8.828h35.31
		c4.873,0,8.828,3.955,8.828,8.828S234.39,132.414,229.517,132.414z"/>
	<path style="fill:#1C8262;" d="M211.862,150.069c-4.873,0-8.828-3.955-8.828-8.828v-35.31c0-4.873,3.955-8.828,8.828-8.828
		c4.873,0,8.828,3.955,8.828,8.828v35.31C220.69,146.114,216.735,150.069,211.862,150.069z"/>
	<path style="fill:#1C8262;" d="M317.793,132.414h-35.31c-4.873,0-8.828-3.955-8.828-8.828s3.955-8.828,8.828-8.828h35.31
		c4.873,0,8.828,3.955,8.828,8.828S322.666,132.414,317.793,132.414z"/>
	<path style="fill:#1C8262;" d="M300.138,150.069c-4.873,0-8.828-3.955-8.828-8.828v-35.31c0-4.873,3.955-8.828,8.828-8.828
		s8.828,3.955,8.828,8.828v35.31C308.966,146.114,305.011,150.069,300.138,150.069z"/>
	<path style="fill:#1C8262;" d="M229.517,203.034h-35.31c-4.873,0-8.828-3.955-8.828-8.828s3.955-8.828,8.828-8.828h35.31
		c4.873,0,8.828,3.955,8.828,8.828S234.39,203.034,229.517,203.034z"/>
	<path style="fill:#1C8262;" d="M211.862,220.69c-4.873,0-8.828-3.955-8.828-8.828v-35.31c0-4.873,3.955-8.828,8.828-8.828
		c4.873,0,8.828,3.955,8.828,8.828v35.31C220.69,216.735,216.735,220.69,211.862,220.69z"/>
	<path style="fill:#1C8262;" d="M317.793,203.034h-35.31c-4.873,0-8.828-3.955-8.828-8.828s3.955-8.828,8.828-8.828h35.31
		c4.873,0,8.828,3.955,8.828,8.828S322.666,203.034,317.793,203.034z"/>
	<path style="fill:#1C8262;" d="M300.138,220.69c-4.873,0-8.828-3.955-8.828-8.828v-35.31c0-4.873,3.955-8.828,8.828-8.828
		s8.828,3.955,8.828,8.828v35.31C308.966,216.735,305.011,220.69,300.138,220.69z"/>
</g>
<g>
</g>
<g>
</g>
<g>
</g>
<g>
</g>
<g>
</g>
<g>
</g>
<g>
</g>
<g>
</g>
<g>
</g>
<g>
</g>
<g>
</g>
<g>
</g>
<g>
</g>
<g>
</g>
<g>
</g>
</svg>
