<?xml version="1.0" encoding="iso-8859-1"?>
<!-- Generator: Adobe Illustrator 19.0.0, SVG Export Plug-In . SVG Version: 6.00 Build 0)  -->
<svg version="1.1" id="Capa_1" xmlns="http://www.w3.org/2000/svg" xmlns:xlink="http://www.w3.org/1999/xlink" x="0px" y="0px"
	 viewBox="0 0 512.005 512.005" style="enable-background:new 0 0 512.005 512.005;" xml:space="preserve">
<path style="fill:#E7ECED;" d="M392.441,459.037H119.563c-69.094,0-123.798-56.611-119.305-123.454L20.332,52.968h473.459
	l17.955,282.615C516.24,402.425,461.535,459.037,392.441,459.037z"/>
<path style="fill:#AFB6BB;" d="M445.575,307.114l-3.584-31.02c-5.959-51.703-49.735-90.712-101.773-90.712h-46.009l-1.96,35.363
	c-1.103,19.783-17.461,35.257-37.27,35.257c-19.809,0-36.167-15.475-37.27-35.257l-1.969-35.363H169.73
	c-52.039,0-95.815,39.009-101.773,90.712l-3.575,31.02c-6.63,57.415,38.259,107.785,96.062,107.785h189.06
	C407.307,414.899,452.195,364.529,445.575,307.114z"/>
<path style="fill:#6C797A;" d="M254.978,256.002L254.978,256.002c-19.809,0-36.167-15.475-37.27-35.257l-5.729-103.106
	c-0.618-11.149,8.254-20.533,19.43-20.533h47.139c11.167,0,20.047,9.384,19.43,20.542l-5.729,103.106
	C291.145,240.528,274.787,256.002,254.978,256.002z"/>
<g>
	<path style="fill:#B02721;" d="M176.554,123.589h-26.483c-4.873,0-8.828-3.955-8.828-8.828s3.955-8.828,8.828-8.828h26.483
		c4.873,0,8.828,3.955,8.828,8.828S181.427,123.589,176.554,123.589z"/>
	<path style="fill:#B02721;" d="M97.106,123.589H70.623c-4.873,0-8.828-3.955-8.828-8.828s3.955-8.828,8.828-8.828h26.483
		c4.873,0,8.828,3.955,8.828,8.828S101.979,123.589,97.106,123.589z"/>
</g>
<g>
	<path style="fill:#1F436D;" d="M441.382,123.589h-26.483c-4.873,0-8.828-3.955-8.828-8.828s3.955-8.828,8.828-8.828h26.483
		c4.873,0,8.828,3.955,8.828,8.828S446.254,123.589,441.382,123.589z"/>
	<path style="fill:#1F436D;" d="M361.933,123.589h-26.483c-4.873,0-8.828-3.955-8.828-8.828s3.955-8.828,8.828-8.828h26.483
		c4.873,0,8.828,3.955,8.828,8.828S366.806,123.589,361.933,123.589z"/>
</g>
<circle style="fill:#6C797A;" cx="256.002" cy="335.451" r="26.483"/>
<path style="fill:#DD352E;" d="M132.416,141.244h-17.655c-9.754,0-17.655-7.901-17.655-17.655v-17.655
	c0-9.754,7.901-17.655,17.655-17.655h17.655c9.754,0,17.655,7.901,17.655,17.655v17.655
	C150.071,133.343,142.171,141.244,132.416,141.244z"/>
<path style="fill:#366DB6;" d="M397.244,141.244h-17.655c-9.754,0-17.655-7.901-17.655-17.655v-17.655
	c0-9.754,7.901-17.655,17.655-17.655h17.655c9.754,0,17.655,7.901,17.655,17.655v17.655
	C414.899,133.343,406.998,141.244,397.244,141.244z"/>
<g>
</g>
<g>
</g>
<g>
</g>
<g>
</g>
<g>
</g>
<g>
</g>
<g>
</g>
<g>
</g>
<g>
</g>
<g>
</g>
<g>
</g>
<g>
</g>
<g>
</g>
<g>
</g>
<g>
</g>
</svg>
