<?xml version="1.0" encoding="iso-8859-1"?>
<!-- Generator: Adobe Illustrator 19.0.0, SVG Export Plug-In . SVG Version: 6.00 Build 0)  -->
<svg version="1.1" id="Capa_1" xmlns="http://www.w3.org/2000/svg" xmlns:xlink="http://www.w3.org/1999/xlink" x="0px" y="0px"
	 viewBox="0 0 512 512" style="enable-background:new 0 0 512 512;" xml:space="preserve">
<path style="fill:#8F969B;" d="M432.11,26.483H256H79.051c-4.661,0-8.43,2.931-8.43,6.541v320.079v97.103v26.483
	c0,4.873,3.955,8.828,8.828,8.828h353.103c4.873,0,8.828-3.955,8.828-8.828v-26.483v-97.103V33.024
	C441.379,29.414,437.23,26.483,432.11,26.483z"/>
<path style="fill:#E7ECED;" d="M256,353.103H70.621V6.541c0-3.61,3.769-6.541,8.43-6.541H256V353.103z"/>
<g>
	<path style="fill:#AFB6BB;" d="M432.552,512H79.448c-4.873,0-8.828-3.955-8.828-8.828V476.69h370.759v26.483
		C441.379,508.045,437.425,512,432.552,512z"/>
	<path style="fill:#AFB6BB;" d="M441.379,353.103H256V0h176.11c5.12,0,9.269,2.931,9.269,6.541V353.103z"/>
	<path style="fill:#AFB6BB;" d="M185.379,150.069h-79.448v-17.655c0-9.754,7.901-17.655,17.655-17.655h44.138
		c9.754,0,17.655,7.901,17.655,17.655V150.069z"/>
</g>
<path style="fill:#6C797A;" d="M167.724,247.172h-44.138c-9.754,0-17.655-7.901-17.655-17.655v-79.448h79.448v79.448
	C185.379,239.272,177.479,247.172,167.724,247.172z"/>
<path style="fill:#E7ECED;" d="M406.069,150.069h-79.448v-17.655c0-9.754,7.901-17.655,17.655-17.655h44.138
	c9.754,0,17.655,7.901,17.655,17.655V150.069z"/>
<g>
	<path style="fill:#6C797A;" d="M388.414,247.172h-44.138c-9.754,0-17.655-7.901-17.655-17.655v-79.448h79.448v79.448
		C406.069,239.272,398.168,247.172,388.414,247.172z"/>
	<path style="fill:#6C797A;" d="M282.483,308.966H256V61.793h26.483c4.873,0,8.828,3.955,8.828,8.828v229.517
		C291.31,305.011,287.356,308.966,282.483,308.966z"/>
</g>
<path style="fill:#AFB6BB;" d="M256,308.966h-26.483c-4.873,0-8.828-3.955-8.828-8.828V70.621c0-4.873,3.955-8.828,8.828-8.828H256
	V308.966z"/>
<rect x="70.621" y="353.103" style="fill:#8F969B;" width="370.759" height="123.586"/>
<path style="fill:#E7ECED;" d="M326.621,423.724H185.379c-4.873,0-8.828-3.955-8.828-8.828v-17.655c0-4.873,3.955-8.828,8.828-8.828
	h141.241c4.873,0,8.828,3.955,8.828,8.828v17.655C335.448,419.769,331.494,423.724,326.621,423.724z"/>
<g>
</g>
<g>
</g>
<g>
</g>
<g>
</g>
<g>
</g>
<g>
</g>
<g>
</g>
<g>
</g>
<g>
</g>
<g>
</g>
<g>
</g>
<g>
</g>
<g>
</g>
<g>
</g>
<g>
</g>
</svg>
