<?xml version="1.0" encoding="iso-8859-1"?>
<!-- Generator: Adobe Illustrator 19.0.0, SVG Export Plug-In . SVG Version: 6.00 Build 0)  -->
<svg version="1.1" id="Capa_1" xmlns="http://www.w3.org/2000/svg" xmlns:xlink="http://www.w3.org/1999/xlink" x="0px" y="0px"
	 viewBox="0 0 512 512" style="enable-background:new 0 0 512 512;" xml:space="preserve">
<path style="fill:#E7ECED;" d="M494.345,445.793H17.655C7.901,445.793,0,437.892,0,428.138V83.862
	c0-9.754,7.901-17.655,17.655-17.655h476.69c9.754,0,17.655,7.901,17.655,17.655v344.276
	C512,437.892,504.099,445.793,494.345,445.793z"/>
<rect x="35.31" y="101.517" style="fill:#ED8A19;" width="300.138" height="308.966"/>
<rect x="370.759" y="101.517" style="fill:#C5411E;" width="105.931" height="308.966"/>
<g>
	<path style="fill:#DD352E;" d="M300.138,198.621H70.621c-4.882,0-8.828-3.955-8.828-8.828c0-4.873,3.946-8.828,8.828-8.828h229.517
		c4.882,0,8.828,3.955,8.828,8.828C308.966,194.666,305.02,198.621,300.138,198.621z"/>
	<path style="fill:#DD352E;" d="M79.448,163.31c-4.882,0-8.828-3.955-8.828-8.828v-17.655c0-4.873,3.946-8.828,8.828-8.828
		c4.882,0,8.828,3.955,8.828,8.828v17.655C88.276,159.356,84.33,163.31,79.448,163.31z"/>
	<path style="fill:#DD352E;" d="M114.759,163.31c-4.882,0-8.828-3.955-8.828-8.828v-17.655c0-4.873,3.946-8.828,8.828-8.828
		s8.828,3.955,8.828,8.828v17.655C123.586,159.356,119.64,163.31,114.759,163.31z"/>
	<path style="fill:#DD352E;" d="M150.069,163.31c-4.882,0-8.828-3.955-8.828-8.828v-17.655c0-4.873,3.946-8.828,8.828-8.828
		s8.828,3.955,8.828,8.828v17.655C158.897,159.356,154.951,163.31,150.069,163.31z"/>
	<path style="fill:#DD352E;" d="M185.379,163.31c-4.882,0-8.828-3.955-8.828-8.828v-17.655c0-4.873,3.946-8.828,8.828-8.828
		c4.882,0,8.828,3.955,8.828,8.828v17.655C194.207,159.356,190.261,163.31,185.379,163.31z"/>
	<path style="fill:#DD352E;" d="M220.69,163.31c-4.882,0-8.828-3.955-8.828-8.828v-17.655c0-4.873,3.946-8.828,8.828-8.828
		s8.828,3.955,8.828,8.828v17.655C229.517,159.356,225.571,163.31,220.69,163.31z"/>
	<path style="fill:#DD352E;" d="M256,163.31c-4.882,0-8.828-3.955-8.828-8.828v-17.655c0-4.873,3.946-8.828,8.828-8.828
		s8.828,3.955,8.828,8.828v17.655C264.828,159.356,260.882,163.31,256,163.31z"/>
	<path style="fill:#DD352E;" d="M291.31,163.31c-4.882,0-8.828-3.955-8.828-8.828v-17.655c0-4.873,3.946-8.828,8.828-8.828
		c4.882,0,8.828,3.955,8.828,8.828v17.655C300.138,159.356,296.192,163.31,291.31,163.31z"/>
	<path style="fill:#DD352E;" d="M79.448,295.724c-4.882,0-8.828-3.955-8.828-8.828v-61.793c0-4.873,3.946-8.828,8.828-8.828
		c4.882,0,8.828,3.955,8.828,8.828v61.793C88.276,291.769,84.33,295.724,79.448,295.724z"/>
	<path style="fill:#DD352E;" d="M114.759,295.724c-4.882,0-8.828-3.955-8.828-8.828v-61.793c0-4.873,3.946-8.828,8.828-8.828
		s8.828,3.955,8.828,8.828v61.793C123.586,291.769,119.64,295.724,114.759,295.724z"/>
	<path style="fill:#DD352E;" d="M150.069,295.724c-4.882,0-8.828-3.955-8.828-8.828v-61.793c0-4.873,3.946-8.828,8.828-8.828
		s8.828,3.955,8.828,8.828v61.793C158.897,291.769,154.951,295.724,150.069,295.724z"/>
	<path style="fill:#DD352E;" d="M185.379,295.724c-4.882,0-8.828-3.955-8.828-8.828v-61.793c0-4.873,3.946-8.828,8.828-8.828
		c4.882,0,8.828,3.955,8.828,8.828v61.793C194.207,291.769,190.261,295.724,185.379,295.724z"/>
	<path style="fill:#DD352E;" d="M220.69,295.724c-4.882,0-8.828-3.955-8.828-8.828v-61.793c0-4.873,3.946-8.828,8.828-8.828
		s8.828,3.955,8.828,8.828v61.793C229.517,291.769,225.571,295.724,220.69,295.724z"/>
	<path style="fill:#DD352E;" d="M256,295.724c-4.882,0-8.828-3.955-8.828-8.828v-61.793c0-4.873,3.946-8.828,8.828-8.828
		s8.828,3.955,8.828,8.828v61.793C264.828,291.769,260.882,295.724,256,295.724z"/>
	<path style="fill:#DD352E;" d="M291.31,295.724c-4.882,0-8.828-3.955-8.828-8.828v-61.793c0-4.873,3.946-8.828,8.828-8.828
		c4.882,0,8.828,3.955,8.828,8.828v61.793C300.138,291.769,296.192,295.724,291.31,295.724z"/>
	<path style="fill:#DD352E;" d="M300.138,331.034H70.621c-4.882,0-8.828-3.955-8.828-8.828c0-4.873,3.946-8.828,8.828-8.828h229.517
		c4.882,0,8.828,3.955,8.828,8.828C308.966,327.08,305.02,331.034,300.138,331.034z"/>
	<path style="fill:#DD352E;" d="M291.31,384c-4.882,0-8.828-3.955-8.828-8.828v-17.655c0-4.873,3.946-8.828,8.828-8.828
		c4.882,0,8.828,3.955,8.828,8.828v17.655C300.138,380.045,296.192,384,291.31,384z"/>
	<path style="fill:#DD352E;" d="M256,384c-4.882,0-8.828-3.955-8.828-8.828v-17.655c0-4.873,3.946-8.828,8.828-8.828
		s8.828,3.955,8.828,8.828v17.655C264.828,380.045,260.882,384,256,384z"/>
	<path style="fill:#DD352E;" d="M220.69,384c-4.882,0-8.828-3.955-8.828-8.828v-17.655c0-4.873,3.946-8.828,8.828-8.828
		s8.828,3.955,8.828,8.828v17.655C229.517,380.045,225.571,384,220.69,384z"/>
	<path style="fill:#DD352E;" d="M185.379,384c-4.882,0-8.828-3.955-8.828-8.828v-17.655c0-4.873,3.946-8.828,8.828-8.828
		c4.882,0,8.828,3.955,8.828,8.828v17.655C194.207,380.045,190.261,384,185.379,384z"/>
	<path style="fill:#DD352E;" d="M150.069,384c-4.882,0-8.828-3.955-8.828-8.828v-17.655c0-4.873,3.946-8.828,8.828-8.828
		s8.828,3.955,8.828,8.828v17.655C158.897,380.045,154.951,384,150.069,384z"/>
	<path style="fill:#DD352E;" d="M114.759,384c-4.882,0-8.828-3.955-8.828-8.828v-17.655c0-4.873,3.946-8.828,8.828-8.828
		s8.828,3.955,8.828,8.828v17.655C123.586,380.045,119.64,384,114.759,384z"/>
	<path style="fill:#DD352E;" d="M79.448,384c-4.882,0-8.828-3.955-8.828-8.828v-17.655c0-4.873,3.946-8.828,8.828-8.828
		c4.882,0,8.828,3.955,8.828,8.828v17.655C88.276,380.045,84.33,384,79.448,384z"/>
</g>
<g>
	<path style="fill:#EBBA16;" d="M406.069,251.586c-2.26,0-4.52-0.865-6.241-2.586c-3.452-3.452-3.452-9.031,0-12.482l35.31-35.31
		c3.452-3.452,9.031-3.452,12.482,0s3.452,9.031,0,12.482L412.31,249C410.589,250.721,408.329,251.586,406.069,251.586z"/>
	<path style="fill:#EBBA16;" d="M406.069,304.552c-2.26,0-4.52-0.865-6.241-2.586c-3.452-3.452-3.452-9.031,0-12.482l35.31-35.31
		c3.452-3.452,9.031-3.452,12.482,0s3.452,9.031,0,12.482l-35.31,35.31C410.589,303.687,408.329,304.552,406.069,304.552z"/>
	<path style="fill:#EBBA16;" d="M406.069,198.621c-2.26,0-4.52-0.865-6.241-2.586c-3.452-3.452-3.452-9.031,0-12.482l35.31-35.31
		c3.452-3.452,9.031-3.452,12.482,0s3.452,9.031,0,12.482l-35.31,35.31C410.589,197.756,408.329,198.621,406.069,198.621z"/>
	<path style="fill:#EBBA16;" d="M406.069,357.517c-2.26,0-4.52-0.865-6.241-2.586c-3.452-3.452-3.452-9.031,0-12.482l35.31-35.31
		c3.452-3.452,9.031-3.452,12.482,0s3.452,9.031,0,12.482l-35.31,35.31C410.589,356.652,408.329,357.517,406.069,357.517z"/>
</g>
<g>
</g>
<g>
</g>
<g>
</g>
<g>
</g>
<g>
</g>
<g>
</g>
<g>
</g>
<g>
</g>
<g>
</g>
<g>
</g>
<g>
</g>
<g>
</g>
<g>
</g>
<g>
</g>
<g>
</g>
</svg>
