<?xml version="1.0" encoding="iso-8859-1"?>
<!-- Generator: Adobe Illustrator 19.0.0, SVG Export Plug-In . SVG Version: 6.00 Build 0)  -->
<svg version="1.1" id="Capa_1" xmlns="http://www.w3.org/2000/svg" xmlns:xlink="http://www.w3.org/1999/xlink" x="0px" y="0px"
	 viewBox="0 0 511.998 511.998" style="enable-background:new 0 0 511.998 511.998;" xml:space="preserve">
<g>
	<rect x="176.551" y="467.86" style="fill:#E7ECED;" width="35.31" height="44.138"/>
	<rect x="300.137" y="467.86" style="fill:#E7ECED;" width="35.31" height="44.138"/>
</g>
<path style="fill:#DD352E;" d="M158.895,423.722v52.966h70.621v-49.54C205.955,426.662,182.412,425.505,158.895,423.722z"/>
<path style="fill:#366DB6;" d="M282.482,427.147v49.54h70.621v-52.966C329.586,425.505,306.042,426.662,282.482,427.147z"/>
<path style="fill:#E7ECED;" d="M105.93,8.799L105.93,8.799c99.699-11.732,200.439-11.732,300.138,0l0,0v397.303l0,0
	c-99.699,11.732-200.439,11.732-300.138,0l0,0V8.799z"/>
<path style="fill:#AFB6BB;" d="M105.93,317.791v114.785l0,0c99.699,11.732,200.439,11.732,300.138,0V317.791H105.93z"/>
<circle style="fill:#FFFFFF;" cx="255.999" cy="379.584" r="26.483"/>
<path style="fill:#366DB6;" d="M300.137,141.213h-88.276c-9.754,0-17.655-7.901-17.655-17.655v-35.31
	c0-9.754,7.901-17.655,17.655-17.655h88.276c9.754,0,17.655,7.901,17.655,17.655v35.31
	C317.792,133.303,309.891,141.213,300.137,141.213z"/>
<path style="fill:#FFFFFF;" d="M275.296,100.774l-28.875,40.439h21.698l21.548-30.182c2.834-3.972,1.916-9.481-2.057-12.314
	C283.638,95.883,278.13,96.792,275.296,100.774z"/>
<g>
</g>
<g>
</g>
<g>
</g>
<g>
</g>
<g>
</g>
<g>
</g>
<g>
</g>
<g>
</g>
<g>
</g>
<g>
</g>
<g>
</g>
<g>
</g>
<g>
</g>
<g>
</g>
<g>
</g>
</svg>
