<?xml version="1.0" encoding="iso-8859-1"?>
<!-- Generator: Adobe Illustrator 19.0.0, SVG Export Plug-In . SVG Version: 6.00 Build 0)  -->
<svg version="1.1" id="Capa_1" xmlns="http://www.w3.org/2000/svg" xmlns:xlink="http://www.w3.org/1999/xlink" x="0px" y="0px"
	 viewBox="0 0 512 512" style="enable-background:new 0 0 512 512;" xml:space="preserve">
<path style="fill:#FBE067;" d="M359.246,201.269c0,0,0,211.582,0,271.667c0,44.764,45.002,60.423,79.543-3.979
	c19.026-35.473,11.96-100.258,21.885-131.689c9.764-30.921,51.79-28.654,48.227-55.371C493.61,167.251,473.493,102.305,432.441,62.9
	C384.487,16.871,318.169,0,256,0S127.513,16.871,79.559,62.9C38.507,102.305,18.39,167.25,3.099,281.896
	c-3.563,26.717,38.463,24.45,48.227,55.371c9.925,31.431,2.859,96.216,21.885,131.689c34.541,64.402,79.543,48.743,79.543,3.979
	c0-60.085,0-271.667,0-271.667L359.246,201.269L359.246,201.269z"/>
<path style="fill:#52B4DE;" d="M73.21,468.957c0.982,1.832,1.974,3.59,2.972,5.293h76.55c0.009-0.437,0.021-0.872,0.021-1.314
	v-58.072H60.001C61.998,434.943,65.41,454.414,73.21,468.957z M256,0C199.942,0,140.517,13.727,94.218,50.169h323.564
	C371.483,13.727,312.058,0,256,0z M475.969,132.144H36.031c-6.644,17.237-12.365,36.893-17.441,59.386h474.82
	C488.335,169.036,482.613,149.38,475.969,132.144z M508.901,281.897c-0.378-2.831-0.759-5.622-1.143-8.393H359.246v59.386h103.121
	C474.515,306.504,512.287,307.283,508.901,281.897z M359.246,472.936c0,0.443,0.012,0.878,0.021,1.314h76.551
	c0.998-1.703,1.99-3.462,2.972-5.293c7.8-14.543,11.212-34.014,13.21-54.093h-92.753L359.246,472.936L359.246,472.936z
	 M3.099,281.897c-3.386,25.387,34.386,24.607,46.534,50.993h103.121v-59.386H4.242C3.858,276.274,3.477,279.066,3.099,281.897z"/>
<path style="opacity:0.1;enable-background:new    ;" d="M212.877,2.819C164.4,9.276,116.523,27.419,79.559,62.9
	C38.507,102.305,18.39,167.25,3.099,281.896c-3.563,26.718,38.463,24.45,48.227,55.371c9.925,31.431,2.859,96.216,21.884,131.689
	c34.541,64.402,79.544,48.743,79.544,3.979c0-60.085,0-271.667,0-271.667h11.392C145.094,123.419,161.056,37.945,212.877,2.819z"/>
<g>
	<path style="fill:#9B6A57;" d="M128.648,204.941v306.538c14.145-2.87,24.106-17.484,24.106-38.543V204.941H128.648z"/>
	<path style="fill:#9B6A57;" d="M383.352,204.941v306.538c-14.145-2.87-24.106-17.484-24.106-38.543V204.941H383.352z"/>
</g>
<g>
	<path style="fill:#F9993E;" d="M271.007,117.015c0-18.532-10.884-33.555-31.035-33.555s-36.486,7.202-36.486,25.734
		s16.335,41.375,36.486,41.375C260.123,150.57,271.007,135.547,271.007,117.015z"/>
	<path style="fill:#F9993E;" d="M240.993,117.015c0-18.532,10.884-33.555,31.035-33.555c20.151,0,36.486,7.202,36.486,25.734
		s-16.336,41.375-36.486,41.375C251.877,150.57,240.993,135.547,240.993,117.015z"/>
</g>
<path style="opacity:0.15;enable-background:new    ;" d="M239.972,83.461c-6.353,0-12.325,0.718-17.527,2.279v58.866
	c5.202,3.69,11.174,5.964,17.527,5.964c20.146,0,31.029-15.015,31.035-33.541v-0.028C271.002,98.476,260.118,83.461,239.972,83.461z
	"/>
<path style="opacity:0.15;enable-background:new    ;" d="M272.028,83.461c-20.151,0-31.035,15.023-31.035,33.554
	c0,18.532,10.884,33.555,31.035,33.555c6.353,0,12.325-2.274,17.527-5.964V85.74C284.352,84.179,278.38,83.461,272.028,83.461z"/>
<path style="fill:#F9993E;" d="M276.459,175.213h-40.917V85.648c0-11.299,9.16-20.459,20.459-20.459l0,0
	c11.299,0,20.459,9.16,20.459,20.459v89.565H276.459z"/>
<path style="fill:#5C626B;" d="M374.636,175.213H137.364c-17.097,0-30.956,13.86-30.956,30.956l0,0
	c0,17.097,13.86,30.956,30.956,30.956h237.273c17.097,0,30.956-13.86,30.956-30.956l0,0
	C405.593,189.072,391.733,175.213,374.636,175.213z"/>
<rect x="235.54" y="160.53" style="opacity:0.1;enable-background:new    ;" width="40.917" height="14.686"/>
<g>
	<path style="fill:#FFFFFF;" d="M197.57,214.567c-4.143,0-7.5-3.357-7.5-7.5v-9.699c0-4.143,3.357-7.5,7.5-7.5s7.5,3.357,7.5,7.5
		v9.699C205.07,211.21,201.713,214.567,197.57,214.567z"/>
	<path style="fill:#FFFFFF;" d="M314.43,214.567c-4.143,0-7.5-3.357-7.5-7.5v-9.699c0-4.143,3.357-7.5,7.5-7.5s7.5,3.357,7.5,7.5
		v9.699C321.93,211.21,318.572,214.567,314.43,214.567z"/>
	<path style="fill:#FFFFFF;" d="M256,222.015c-8.071,0-15.747-3.495-21.059-9.59c-2.722-3.122-2.398-7.86,0.726-10.581
		c3.122-2.723,7.86-2.398,10.581,0.726c2.463,2.825,6.018,4.445,9.752,4.445c3.734,0,7.289-1.62,9.752-4.445
		c2.72-3.123,7.459-3.449,10.581-0.726c3.123,2.721,3.447,7.459,0.726,10.581C271.747,218.52,264.071,222.015,256,222.015z"/>
</g>
<path style="opacity:0.1;enable-background:new    ;" d="M188.517,175.213h-51.153c-17.097,0-30.956,13.86-30.956,30.956
	c0,17.097,13.86,30.956,30.956,30.956h54.154C167.24,226.036,172.79,185.148,188.517,175.213z"/>
<g>
</g>
<g>
</g>
<g>
</g>
<g>
</g>
<g>
</g>
<g>
</g>
<g>
</g>
<g>
</g>
<g>
</g>
<g>
</g>
<g>
</g>
<g>
</g>
<g>
</g>
<g>
</g>
<g>
</g>
</svg>
