<?xml version="1.0" encoding="iso-8859-1"?>
<!-- Generator: Adobe Illustrator 19.0.0, SVG Export Plug-In . SVG Version: 6.00 Build 0)  -->
<svg version="1.1" id="Capa_1" xmlns="http://www.w3.org/2000/svg" xmlns:xlink="http://www.w3.org/1999/xlink" x="0px" y="0px"
	 viewBox="0 0 512.001 512.001" style="enable-background:new 0 0 512.001 512.001;" xml:space="preserve">
<g>
	<path style="fill:#52B4DE;" d="M237.511,179.121l-46.602-37.966C140.504,100.09,86.031,64.286,28.341,34.303l0,0
		C14.492,27.106-1.752,38.385,0.153,53.876c8.478,68.946,53.523,127.942,117.801,154.284l23.123,9.476l-0.133,0.123
		c-28.344,26.281-53.671,55.638-75.511,87.529l0,0c-8.928,13.037,0.986,30.649,16.763,29.78l0,0
		c52.072-2.87,98.823-32.845,123.162-78.969l21.972-41.638L237.511,179.121z"/>
	<path style="fill:#52B4DE;" d="M274.489,179.121l46.602-37.966C371.497,100.09,425.97,64.286,483.66,34.303l0,0
		c13.849-7.197,30.092,4.081,28.188,19.572c-8.478,68.946-53.523,127.942-117.801,154.284l-23.123,9.476l0.133,0.123
		c28.344,26.281,53.671,55.638,75.511,87.529l0,0c8.928,13.037-0.986,30.649-16.763,29.78l0,0
		c-52.072-2.87-98.823-32.845-123.162-78.969l-21.972-41.638L274.489,179.121z"/>
</g>
<path style="opacity:0.1;enable-background:new    ;" d="M348.281,263.947c0.457-0.912,0.935-1.864,1.431-2.851
	c13.408-26.674,41.305-82.177,31.487-136.898l-0.029-0.156c-1.462-7.877-3.949-15.592-7.088-23.043
	c-18.111,12.764-35.794,26.147-52.992,40.158l-46.602,37.966l10.182,35.34l21.972,41.638c14.868,28.175,38.107,50.308,65.805,63.934
	c-4.297-10.423-8.724-19.937-12.727-28.535C355.367,282.145,349.56,269.674,348.281,263.947z"/>
<path style="opacity:0.1;enable-background:new    ;" d="M190.91,141.155c-17.198-14.011-34.88-27.394-52.991-40.158
	c-3.14,7.452-5.626,15.167-7.088,23.044l-0.028,0.155c-9.821,54.72,18.078,110.224,31.485,136.897
	c0.497,0.988,0.976,1.939,1.432,2.852c-1.279,5.728-7.086,18.198-11.44,27.551c-4.003,8.598-8.43,18.111-12.727,28.535
	c27.698-13.626,50.938-35.759,65.805-63.934l21.972-41.638l10.182-35.34L190.91,141.155z"/>
<path style="fill:#64D19B;" d="M145.14,415.148c0,17.752,17.894,48.46,31.291,62.36c3.1,3.216,8.224,3.216,11.324,0
	c13.397-13.901,31.291-44.608,31.291-62.36c0,17.752,17.894,48.46,31.291,62.36c3.1,3.216,8.224,3.216,11.324,0
	c13.397-13.901,31.291-44.608,31.291-62.36c0,17.752,17.894,48.46,31.291,62.36c3.1,3.216,8.224,3.216,11.324,0
	c13.397-13.901,31.291-44.608,31.291-62.36c-1.193-82.391-55.288-137.075-43.954-160.109
	c11.334-23.034,40.972-76.269,32.024-126.128c-4.807-25.904-25.577-52.469-39.376-70.1c-5.131-6.556-15.047-6.556-20.178,0
	c-13.799,17.631-34.568,44.195-39.376,70.1c-4.807-25.904-25.577-52.469-39.376-70.1c-5.131-6.556-15.047-6.556-20.178,0
	c-13.799,17.631-34.568,44.195-39.376,70.1c-8.948,49.86,20.691,103.094,32.024,126.128
	C200.428,278.073,146.333,332.758,145.14,415.148z"/>
<path style="opacity:0.1;enable-background:new    ;" d="M215.816,243.829c-27.969-66.112-28.981-134.056-3.09-188.326
	c-5.294-2.926-12.256-1.836-16.281,3.307c-13.799,17.631-34.568,44.195-39.376,70.1c-8.948,49.86,20.691,103.094,32.024,126.128
	c11.334,23.034-42.762,77.719-43.955,160.109c0,17.752,17.894,48.46,31.292,62.36c3.1,3.216,8.224,3.216,11.324,0
	c6.253-6.488,13.484-16.638,19.42-27.422C159.164,360.169,244.562,311.777,215.816,243.829z"/>
<g style="opacity:0.3;">
	<circle style="fill:#FFFFFF;" cx="321.54" cy="355.901" r="7.124"/>
	<circle style="fill:#FFFFFF;" cx="332.31" cy="385.781" r="7.124"/>
	<circle style="fill:#FFFFFF;" cx="307.3" cy="197.821" r="7.124"/>
	<circle style="fill:#FFFFFF;" cx="328.67" cy="170.111" r="7.124"/>
	<circle style="fill:#FFFFFF;" cx="300.17" cy="159.001" r="7.124"/>
</g>
<g>
</g>
<g>
</g>
<g>
</g>
<g>
</g>
<g>
</g>
<g>
</g>
<g>
</g>
<g>
</g>
<g>
</g>
<g>
</g>
<g>
</g>
<g>
</g>
<g>
</g>
<g>
</g>
<g>
</g>
</svg>
