<?xml version="1.0" encoding="iso-8859-1"?>
<!-- Generator: Adobe Illustrator 19.0.0, SVG Export Plug-In . SVG Version: 6.00 Build 0)  -->
<svg version="1.1" id="Capa_1" xmlns="http://www.w3.org/2000/svg" xmlns:xlink="http://www.w3.org/1999/xlink" x="0px" y="0px"
	 viewBox="0 0 512 512" style="enable-background:new 0 0 512 512;" xml:space="preserve">
<g>
	<path style="fill:#9B6A57;" d="M77.229,263.397v236.459c0,6.707,5.437,12.144,12.144,12.144H215.68
		c6.389,0,11.905-4.472,13.227-10.722l23.232-109.836c0.883-4.173,6.839-4.173,7.722,0l23.232,109.836
		c1.322,6.25,6.839,10.722,13.227,10.722h126.306c6.707,0,12.144-5.437,12.144-12.144V263.397c0-7.481-6.064-13.545-13.545-13.545
		H90.774C83.293,249.852,77.229,255.916,77.229,263.397z"/>
	<rect x="102.04" y="53.89" style="fill:#9B6A57;" width="51.55" height="195.96"/>
</g>
<rect x="102.04" y="53.89" style="opacity:0.1;enable-background:new    ;" width="51.55" height="195.96"/>
<path style="opacity:0.1;enable-background:new    ;" d="M127.816,115.687L127.816,115.687c-14.236,0-25.776-11.54-25.776-25.776
	V27.887c0-8.517,6.904-15.421,15.421-15.421h20.71c8.517,0,15.421,6.904,15.421,15.421v62.024
	C153.591,104.147,142.051,115.687,127.816,115.687z"/>
<g>
	<path style="fill:#9B6A57;" d="M310.485,76.106c-4.483,0-8.716-1.864-11.922-4.998c-9.683-9.467-25.14-15.597-42.563-15.597
		s-32.88,6.13-42.563,15.597c-3.206,3.134-7.438,4.998-11.922,4.998h-47.923v36.395h47.923c4.484,0,8.716,1.864,11.922,4.998
		c9.683,9.467,25.14,15.597,42.563,15.597s32.88-6.13,42.563-15.597c3.206-3.134,7.438-4.998,11.922-4.998h47.923V76.106H310.485z"
		/>
	<path style="fill:#9B6A57;" d="M127.816,103.221L127.816,103.221c-14.236,0-25.776-11.54-25.776-25.776V15.421
		C102.04,6.904,108.944,0,117.461,0h20.71c8.517,0,15.421,6.904,15.421,15.421v62.024
		C153.591,91.68,142.051,103.221,127.816,103.221z"/>
	<rect x="358.41" y="53.89" style="fill:#9B6A57;" width="51.55" height="195.96"/>
</g>
<rect x="358.41" y="53.89" style="opacity:0.1;enable-background:new    ;" width="51.55" height="195.96"/>
<path style="opacity:0.1;enable-background:new    ;" d="M384.184,115.687L384.184,115.687c14.236,0,25.776-11.54,25.776-25.776
	V27.887c0-8.517-6.904-15.421-15.421-15.421h-20.71c-8.517,0-15.421,6.904-15.421,15.421v62.024
	C358.408,104.147,369.949,115.687,384.184,115.687z"/>
<path style="fill:#9B6A57;" d="M384.184,103.221L384.184,103.221c14.236,0,25.776-11.54,25.776-25.776V15.421
	C409.96,6.904,403.056,0,394.539,0h-20.71c-8.517,0-15.421,6.904-15.421,15.421v62.024
	C358.408,91.68,369.949,103.221,384.184,103.221z"/>
<g>
	<ellipse style="fill:#FFE78C;" cx="256" cy="94.3" rx="28.661" ry="16.669"/>
	<path style="fill:#FFE78C;" d="M397.029,494.428c-2.465,0-4.878-1.214-6.313-3.439c-2.242-3.482-1.238-8.124,2.244-10.367
		c11.619-7.483,7.993-27.787,4.02-38.604c-2.671-7.271-2.02-15.415,1.786-22.348c6.804-12.395,7.381-26.713,1.543-38.301
		c-3.647-7.241-3.809-15.89-0.431-23.135c6.151-13.194-0.353-35.472-7.572-43.478c-2.773-3.076-2.528-7.819,0.548-10.593
		c3.077-2.773,7.819-2.529,10.593,0.548c10.441,11.581,19.308,39.957,10.027,59.861c-1.454,3.118-1.367,6.875,0.232,10.049
		c8.06,16,7.392,35.539-1.79,52.268c-1.719,3.13-2.03,6.759-0.855,9.957c2.054,5.589,5.396,16.732,4.715,28.564
		c-0.72,12.475-5.8,22.097-14.691,27.824C399.827,494.041,398.42,494.428,397.029,494.428z"/>
	<path style="fill:#FFE78C;" d="M114.97,494.428c-1.391,0-2.797-0.387-4.054-1.195c-8.893-5.727-13.973-15.35-14.692-27.824
		c-0.682-11.831,2.661-22.975,4.714-28.564c1.175-3.198,0.864-6.827-0.854-9.956c-9.183-16.729-9.852-36.269-1.791-52.269
		c1.599-3.174,1.686-6.931,0.231-10.049c-9.28-19.903-0.414-48.279,10.027-59.861c2.774-3.074,7.515-3.322,10.592-0.548
		c3.077,2.773,3.322,7.516,0.548,10.593c-7.22,8.007-13.724,30.285-7.573,43.478c3.378,7.246,3.217,15.896-0.431,23.136
		c-5.837,11.586-5.26,25.904,1.544,38.302c3.805,6.931,4.456,15.076,1.785,22.346c-3.974,10.817-7.599,31.121,4.02,38.604
		c3.482,2.243,4.487,6.885,2.244,10.367C119.849,493.214,117.435,494.428,114.97,494.428z"/>
</g>
<g>
	<path style="fill:#64D19B;" d="M198.583,101.804h-20.58c-4.142,0-7.5-3.357-7.5-7.5s3.358-7.5,7.5-7.5h20.58
		c4.142,0,7.5,3.357,7.5,7.5C206.083,98.446,202.725,101.804,198.583,101.804z"/>
	<path style="fill:#64D19B;" d="M333.997,101.804h-20.58c-4.143,0-7.5-3.357-7.5-7.5s3.357-7.5,7.5-7.5h20.58
		c4.143,0,7.5,3.357,7.5,7.5C341.497,98.446,338.14,101.804,333.997,101.804z"/>
</g>
<path style="opacity:0.1;enable-background:new    ;" d="M421.226,249.852H90.774c-7.481,0-13.545,6.064-13.545,13.545v18.368
	h357.542v-18.368C434.771,255.916,428.707,249.852,421.226,249.852z"/>
<path style="fill:#FFE78C;" d="M296.091,249.852h-80.182v25.724c0,3.703,2.351,6.997,5.853,8.2l25.705,8.833
	c5.53,1.9,11.536,1.9,17.066,0l25.705-8.833c3.502-1.203,5.853-4.497,5.853-8.2L296.091,249.852L296.091,249.852z"/>
<path style="opacity:0.1;enable-background:new    ;" d="M147.594,350.4c-2.487,3.313-1.818,8.014,1.495,10.501
	c1.35,1.013,2.93,1.502,4.497,1.502c2.279,0,4.53-1.034,6.003-2.997c12.28-16.355,22.168-55.848,22.168-77.642h-15
	C166.757,302.314,156.727,338.234,147.594,350.4z M364.406,350.4c-9.134-12.166-19.163-48.087-19.163-68.636h-15
	c0,21.794,9.888,61.286,22.167,77.642c1.474,1.963,3.725,2.997,6.004,2.997c1.566,0,3.147-0.489,4.497-1.502
	C366.224,358.414,366.893,353.713,364.406,350.4z"/>
<path style="opacity:0.1;enable-background:new    ;" d="M138.398,249.852H90.774c-7.481,0-13.545,6.064-13.545,13.545v236.458
	c0,6.707,5.437,12.145,12.144,12.145h85.348C137.41,467.903,134.916,318.057,138.398,249.852z"/>
<g>
</g>
<g>
</g>
<g>
</g>
<g>
</g>
<g>
</g>
<g>
</g>
<g>
</g>
<g>
</g>
<g>
</g>
<g>
</g>
<g>
</g>
<g>
</g>
<g>
</g>
<g>
</g>
<g>
</g>
</svg>
