<?xml version="1.0" encoding="iso-8859-1"?>
<!-- Generator: Adobe Illustrator 19.0.0, SVG Export Plug-In . SVG Version: 6.00 Build 0)  -->
<svg version="1.1" id="Capa_1" xmlns="http://www.w3.org/2000/svg" xmlns:xlink="http://www.w3.org/1999/xlink" x="0px" y="0px"
	 viewBox="0 0 512 512" style="enable-background:new 0 0 512 512;" xml:space="preserve">
<path style="fill:#52B4DE;" d="M404.155,38.865h-296.31c-24.647,0-43.958,21.19-41.677,45.731l28.909,310.917h321.845
	l28.909-310.917C448.114,60.056,428.802,38.865,404.155,38.865z"/>
<path style="fill:#F9993E;" d="M266.732,341.274c4.861,24.307-3.45,41.597-15.686,54.24h165.877l14.366-154.509
	C298.735,219.21,251.683,266.032,266.732,341.274z"/>
<path style="fill:#FBE067;" d="M107.845,38.865c-24.647,0-43.958,21.19-41.677,45.732l10.12,108.838
	c71.157-10.467,67.64-82.174,140.071-89.92c70.22-7.51,115.652-25.97,123.696-64.649L107.845,38.865L107.845,38.865z"/>
<path style="fill:#FFFFFF;" d="M170.979,279.213l-47.22-21.421c-13.032-5.913-28.441-0.12-34.353,12.911l-4.925,10.856l2.802,30.133
	l15.783-34.792c1.208-2.664,3.382-4.697,6.12-5.727c2.738-1.028,5.712-0.931,8.376,0.278l47.22,21.421
	c5.499,2.494,7.943,8.997,5.449,14.495l-21.421,47.22c-2.495,5.498-8.999,7.941-14.497,5.449h0.001l-44.409-20.145l1.599,17.197
	l36.612,16.609l0,0c3.467,1.572,7.101,2.316,10.681,2.316c9.876,0,19.333-5.665,23.672-15.228l21.421-47.22
	C189.802,300.535,184.01,285.125,170.979,279.213z M133.438,87.901c0-19.515-8.607-37.048-22.212-49.036h-3.382
	c-6.29,0-12.228,1.387-17.553,3.85c16.658,8.225,28.147,25.386,28.147,45.186c0,26.738-20.946,48.667-47.289,50.264l1.388,14.933
	C106.504,150.793,133.438,122.442,133.438,87.901z M311.879,362.296c0,11.999,3.01,23.305,8.298,33.218h17.693
	c-6.901-9.288-10.992-20.784-10.992-33.218c0-30.778,25.04-55.818,55.818-55.818c16.115,0,30.648,6.873,40.846,17.831l1.726-18.565
	c-11.859-8.949-26.605-14.266-42.572-14.266C343.648,291.477,311.879,323.246,311.879,362.296z M237.227,135.714
	c-28.471,0-51.633,23.162-51.633,51.633s23.163,51.633,51.633,51.633s51.633-23.162,51.633-51.633S265.697,135.714,237.227,135.714z
	 M237.227,223.979c-20.2,0-36.633-16.433-36.633-36.633c0-20.199,16.434-36.633,36.633-36.633s36.633,16.434,36.633,36.633
	C273.859,207.546,257.426,223.979,237.227,223.979z M388.764,91.303l50.252-12.778c0.902-0.229,1.806-0.339,2.697-0.339
	c1.484,0,2.928,0.309,4.257,0.871c-0.215-5.623-1.541-10.989-3.794-15.86c-2.261-0.041-4.562,0.208-6.856,0.791l-50.252,12.778
	c-6.718,1.708-12.368,5.93-15.911,11.888s-4.553,12.938-2.844,19.657l12.778,50.251c1.707,6.719,5.93,12.369,11.888,15.911
	c4.065,2.418,8.607,3.655,13.217,3.655c2.146,0,4.306-0.268,6.44-0.811l27.219-6.921l1.474-15.852l-32.389,8.236
	c-2.834,0.719-5.78,0.294-8.294-1.2c-2.514-1.495-4.296-3.88-5.017-6.715l-12.778-50.252c-0.721-2.834-0.294-5.78,1.2-8.294
	C383.545,93.804,385.929,92.023,388.764,91.303z"/>
<path style="fill:#E15F76;" d="M473.19,473.135H38.81c-21.434,0-38.81-17.376-38.81-38.81l0,0c0-21.434,17.376-38.81,38.81-38.81
	h434.38c21.434,0,38.81,17.376,38.81,38.81l0,0C512,455.759,494.624,473.135,473.19,473.135z"/>
<path style="opacity:0.1;enable-background:new    ;" d="M170.169,38.865h-62.324c-24.647,0-43.958,21.19-41.677,45.732
	l28.909,310.917h115.715C129.609,311.537,139.229,102.834,170.169,38.865z"/>
<path style="opacity:0.1;enable-background:new    ;" d="M199.292,395.514H38.81C17.376,395.514,0,412.89,0,434.324l0,0
	c0,21.434,17.376,38.81,38.81,38.81h165.83C183.203,451.637,185.27,415.913,199.292,395.514z"/>
<g>
	<path style="fill:#494F57;" d="M181.785,442.254c-4.142,0-7.5-3.357-7.5-7.5v-12.319c0-4.143,3.358-7.5,7.5-7.5s7.5,3.357,7.5,7.5
		v12.319C189.285,438.897,185.927,442.254,181.785,442.254z"/>
	<path style="fill:#494F57;" d="M330.215,442.254c-4.142,0-7.5-3.357-7.5-7.5v-12.319c0-4.143,3.358-7.5,7.5-7.5s7.5,3.357,7.5,7.5
		v12.319C337.715,438.897,334.357,442.254,330.215,442.254z"/>
	<path style="fill:#494F57;" d="M256,451.714c-9.667,0-18.859-4.187-25.221-11.487c-2.721-3.122-2.396-7.86,0.727-10.581
		c3.122-2.722,7.86-2.396,10.582,0.727c3.512,4.03,8.583,6.342,13.912,6.342c5.33,0,10.4-2.312,13.912-6.342
		c2.721-3.123,7.458-3.448,10.582-0.727c3.123,2.721,3.448,7.459,0.727,10.581C274.859,447.527,265.667,451.714,256,451.714z"/>
</g>
<g>
</g>
<g>
</g>
<g>
</g>
<g>
</g>
<g>
</g>
<g>
</g>
<g>
</g>
<g>
</g>
<g>
</g>
<g>
</g>
<g>
</g>
<g>
</g>
<g>
</g>
<g>
</g>
<g>
</g>
</svg>
