<?xml version="1.0" encoding="iso-8859-1"?>
<!-- Generator: Adobe Illustrator 19.0.0, SVG Export Plug-In . SVG Version: 6.00 Build 0)  -->
<svg version="1.1" id="Capa_1" xmlns="http://www.w3.org/2000/svg" xmlns:xlink="http://www.w3.org/1999/xlink" x="0px" y="0px"
	 viewBox="0 0 512 512" style="enable-background:new 0 0 512 512;" xml:space="preserve">
<path style="fill:#E15F76;" d="M497.634,89.271l-78.94,5.181c-10.2,0.669-20.174-3.207-27.245-10.588L364.28,55.505
	c-12.105-12.635-28.843-19.779-46.341-19.779H194.061c-17.497,0-34.236,7.144-46.34,19.779l-27.17,28.359
	c-7.072,7.381-17.045,11.257-27.245,10.588l-78.94-5.181c-8.918-0.585-15.925,7.513-14.065,16.254l35.065,164.757
	c3.308,15.546,23.201,20.252,33.124,7.837l92.467-115.682c1.893-2.369,5.713-1.03,5.713,2.003v7.243h178.66v-7.243
	c0-3.033,3.819-4.371,5.713-2.003l92.467,115.682c9.924,12.415,29.816,7.709,33.124-7.837l35.065-164.757
	C513.559,96.784,506.552,88.685,497.634,89.271z"/>
<polygon style="opacity:0.2;enable-background:new    ;" points="207.885,35.725 256,104.303 304.115,35.725 "/>
<g>
	<polygon style="fill:#FFE78C;" points="294.953,35.725 256,91.244 217.046,35.725 198.722,35.725 246.838,104.302 199.563,171.681 
		217.887,171.681 313.277,35.725 	"/>
	<path style="fill:#FFE78C;" d="M82.192,154.526c-1.638-3.349-1.337-7.307,0.674-10.446c6.699-10.46,9.332-23.509,6.283-36.56
		c-1.159-4.964-3.059-9.56-5.549-13.705l-47.346-3.107l22.06,94.423c1.853,7.931,11.687,10.991,17.546,5.333
		c7.589-7.329,11.243-18.351,8.669-29.371C83.986,158.773,83.195,156.578,82.192,154.526z"/>
	<path style="fill:#FFE78C;" d="M438.755,93.135c-9.605,6.488-16.885,16.469-19.73,28.646c-3.049,13.052-0.416,26.1,6.283,36.561
		c2.01,3.139,2.312,7.097,0.674,10.446c-1.004,2.051-1.794,4.246-2.336,6.565c-2.575,11.021,1.079,22.042,8.669,29.371
		c5.858,5.658,15.693,2.598,17.546-5.333l25.384-108.65L438.755,93.135z"/>
</g>
<rect x="166.67" y="171.68" style="fill:#F9993E;" width="178.66" height="61.64"/>
<rect x="166.67" y="195" style="opacity:0.1;enable-background:new    ;" width="178.66" height="15"/>
<path style="fill:#E15F76;" d="M330.432,476.274H181.568c-8.228,0-14.898-6.67-14.898-14.898V233.321h178.66v228.055
	C345.33,469.604,338.66,476.274,330.432,476.274z"/>
<path style="fill:#FFE78C;" d="M234.298,399.44c-2.381,0-4.699,0.271-6.925,0.781c-3.633,0.833-7.419-0.361-10.019-3.032
	c-8.662-8.904-20.769-14.436-34.172-14.436c-5.806,0-11.367,1.042-16.512,2.942v44.741h85.071c8.144,0,13.361-8.88,9.185-15.872
	C255.516,405.506,245.615,399.44,234.298,399.44z M314.954,308.843c-2.599,2.672-6.385,3.866-10.019,3.033
	c-2.226-0.51-4.543-0.781-6.925-0.781c-11.318,0-21.218,6.066-26.629,15.124c-4.176,6.992,1.041,15.872,9.185,15.872h64.763v-47.518
	C333.447,295.509,322.789,300.789,314.954,308.843z"/>
<path style="opacity:0.1;enable-background:new    ;" d="M195.044,354.798V142.036c0-35.379-48.712-18.956-99.281,34.204
	c-34.137,35.887-35.902-46.046-33.492-83.826L14.366,89.27c-8.918-0.585-15.925,7.513-14.065,16.254l35.065,164.757
	c3.308,15.546,23.201,20.252,33.124,7.837l92.467-115.682c1.893-2.369,5.713-1.03,5.713,2.003v296.938
	c0,8.228,6.67,14.898,14.898,14.898h71.795C222.105,456.428,195.044,397.214,195.044,354.798z"/>
<path style="opacity:0.1;enable-background:new    ;" d="M367.773,150.449c-6.962-9.493-22.344-15.05-22.344,13.212
	c0.588-2.462,3.892-3.379,5.613-1.225l92.467,115.682c9.923,12.415,29.816,7.709,33.124-7.837l7.323-34.408
	C443.239,263.917,376.301,162.077,367.773,150.449z"/>
<g>
</g>
<g>
</g>
<g>
</g>
<g>
</g>
<g>
</g>
<g>
</g>
<g>
</g>
<g>
</g>
<g>
</g>
<g>
</g>
<g>
</g>
<g>
</g>
<g>
</g>
<g>
</g>
<g>
</g>
</svg>
