<?xml version="1.0" encoding="iso-8859-1"?>
<!-- Generator: Adobe Illustrator 19.0.0, SVG Export Plug-In . SVG Version: 6.00 Build 0)  -->
<svg version="1.1" id="Capa_1" xmlns="http://www.w3.org/2000/svg" xmlns:xlink="http://www.w3.org/1999/xlink" x="0px" y="0px"
	 viewBox="0 0 512 512" style="enable-background:new 0 0 512 512;" xml:space="preserve">
<path style="fill:#F9993E;" d="M297.824,121.937h-83.648l-83.299,229.851c-4.499,12.415-2.09,26.285,6.334,36.455l92.114,111.214
	c13.852,16.724,39.499,16.724,53.35,0l92.114-111.214c8.423-10.17,10.833-24.039,6.334-36.455L297.824,121.937z"/>
<path style="fill:#FFFFFF;" d="M224.123,246.691c0-23.324-15.957-42.986-37.525-48.657l-5.143,14.191
	c15.807,3.501,27.668,17.62,27.668,34.465c0,19.468-15.838,35.306-35.306,35.306c-5.843,0-11.354-1.435-16.213-3.958l-5.142,14.188
	c6.487,3.054,13.723,4.771,21.355,4.771C201.556,296.997,224.123,274.43,224.123,246.691z M359.7,292.673
	c-5.962,4.598-13.422,7.342-21.516,7.342c-19.468,0-35.307-15.839-35.307-35.307c0-18.998,15.086-34.531,33.906-35.27L331.5,214.86
	c-24.589,3.281-43.623,24.377-43.623,49.848c0,27.739,22.567,50.307,50.307,50.307c9.847,0,19.034-2.855,26.799-7.764L359.7,292.673
	z M251.887,343.499c-27.738,0-50.306,22.567-50.306,50.306s22.567,50.307,50.306,50.307s50.307-22.567,50.307-50.307
	C302.193,366.066,279.626,343.499,251.887,343.499z M251.887,429.111c-19.468,0-35.306-15.839-35.306-35.307
	c0-19.468,15.838-35.306,35.306-35.306s35.307,15.838,35.307,35.306C287.193,413.272,271.355,429.111,251.887,429.111z"/>
<polygon style="fill:#FBE067;" points="297.824,121.937 214.176,121.937 170.054,243.685 321.915,188.412 "/>
<path style="fill:#FFFFFF;" d="M276.833,128.743c-0.549-2.494-1.593-4.794-3.042-6.806h-25.43l12.317,7.873
	c1.043,0.667,1.391,1.638,1.505,2.156c0.114,0.52,0.207,1.548-0.461,2.593l-20.55,32.149c-1.021,1.599-3.151,2.069-4.749,1.046
	l-31.545-20.163l-5.238,14.454l28.704,18.348h-0.001c3.069,1.962,6.504,2.898,9.902,2.897c6.086,0,12.051-3.005,15.565-8.503
	l20.55-32.15C277.014,138.487,277.892,133.554,276.833,128.743z"/>
<path style="fill:#E15F76;" d="M381.123,351.788l-1.788-4.933l-212.38,77.3l62.369,75.302c13.852,16.724,39.499,16.724,53.35,0
	l92.114-111.214C383.213,378.073,385.622,364.204,381.123,351.788z"/>
<path style="fill:#FFFFFF;" d="M232.485,446.033l-37.361-7.755c-5.087-1.055-10.126,0.119-14.119,2.84l9.798,11.83
	c0.411-0.07,0.84-0.073,1.273,0.018l37.361,7.755c1.213,0.252,1.884,1.035,2.176,1.48c0.292,0.444,0.744,1.372,0.492,2.586
	l-6.312,30.407l3.531,4.263c2.668,3.221,5.776,5.815,9.151,7.795c0.221-0.671,0.417-1.354,0.563-2.056l7.755-37.361
	c1.001-4.822,0.063-9.746-2.639-13.863C241.452,449.853,237.308,447.034,232.485,446.033z M331.994,409.435l-37.341,7.858
	c-9.948,2.096-16.338,11.894-14.244,21.842l7.859,37.339c0.79,3.757,2.696,7.087,5.447,9.653l9.671-11.676
	c-0.184-0.3-0.35-0.638-0.44-1.066l-7.859-37.339c-0.391-1.855,0.802-3.684,2.657-4.074l37.34-7.858
	c0.237-0.05,0.475-0.074,0.709-0.074c1.591,0,3.023,1.113,3.364,2.731l0.754,3.582l11.055-13.348
	C346.87,411.082,339.482,407.857,331.994,409.435z"/>
<path style="opacity:0.1;enable-background:new    ;" d="M237.794,143.743h67.933l-7.903-21.806h-83.648l-83.299,229.851
	c-4.499,12.415-2.09,26.285,6.334,36.455l92.114,111.214c12.315,14.869,33.948,16.506,48.331,4.935
	c-77.422-68.063-61.789-269.725-43.544-357.649C234.475,144.996,236.009,143.743,237.794,143.743z"/>
<path style="fill:#52B4DE;" d="M294.547,0h-77.158c-5.288,0-10.183,2.793-12.873,7.346l-28.62,48.435
	c-2.738,4.633-2.774,10.38-0.096,15.048l28.746,50.096c2.666,4.646,7.613,7.51,12.969,7.51h77.032
	c5.322,0,10.243-2.829,12.922-7.429l28.684-49.266c2.707-4.65,2.707-10.396,0-15.047L307.469,7.429
	C304.791,2.829,299.87,0,294.547,0z"/>
<path style="opacity:0.1;enable-background:new    ;" d="M241.237,0h-23.849c-5.288,0-10.183,2.793-12.873,7.346l-28.62,48.435
	c-2.738,4.633-2.774,10.38-0.096,15.048l28.746,50.096c2.666,4.646,7.613,7.51,12.969,7.51h34.371
	C215.117,93.335,229.047,24.788,241.237,0z"/>
<g>
</g>
<g>
</g>
<g>
</g>
<g>
</g>
<g>
</g>
<g>
</g>
<g>
</g>
<g>
</g>
<g>
</g>
<g>
</g>
<g>
</g>
<g>
</g>
<g>
</g>
<g>
</g>
<g>
</g>
</svg>
