<?xml version="1.0" encoding="iso-8859-1"?>
<!-- Generator: Adobe Illustrator 19.0.0, SVG Export Plug-In . SVG Version: 6.00 Build 0)  -->
<svg version="1.1" id="Capa_1" xmlns="http://www.w3.org/2000/svg" xmlns:xlink="http://www.w3.org/1999/xlink" x="0px" y="0px"
	 viewBox="0 0 511.999 511.999" style="enable-background:new 0 0 511.999 511.999;" xml:space="preserve">
<path style="fill:#DFE0E0;" d="M277.592,441.111h-42.795v33.849c0,4.941,4.006,8.947,8.947,8.947h24.902
	c4.941,0,8.947-4.006,8.947-8.947v-33.849H277.592z"/>
<path style="opacity:0.1;enable-background:new    ;" d="M234.796,467.244c6.997-0.649,13.335-3.564,18.271-8.009
	c1.776-1.6,4.476-1.6,6.253,0c4.936,4.446,11.275,7.36,18.271,8.009v-26.133h-42.795V467.244z"/>
<path style="fill:#F3C0CC;" d="M170.187,224.696l-52.388,30.246l-78.465-78.494C13.368,150.474-0.831,115.002,0.038,78.286l0,0
	c0.424-17.928,10.16-34.34,25.691-43.306l0,0c15.531-8.967,34.611-9.192,50.35-0.596l0,0c32.232,17.606,55.851,47.639,65.363,83.112
	L170.187,224.696z"/>
<path style="fill:#E15F76;" d="M149.51,222.033l-23.88,13.787l-50.485-61.273c-16.706-20.276-28.371-45.437-32.28-69.631l0,0
	c-1.91-11.814,1.245-21.517,8.325-25.604l0,0c7.079-4.087,17.06-1.968,26.336,5.592l0,0c18.998,15.483,34.956,38.165,44.163,62.771
	L149.51,222.033z"/>
<path style="fill:#F3C0CC;" d="M342.202,224.696l52.388,30.246l78.465-78.494c11.694-11.699,21.002-25.324,27.622-40.122
	c8.077-18.058-92.542-82.831-103.266-69.933c-12.285,14.774-21.385,32.163-26.463,51.103L342.202,224.696z"/>
<path style="fill:#E15F76;" d="M362.879,222.033l23.88,13.787l50.485-61.273c16.706-20.276,28.371-45.437,32.28-69.631l0,0
	c1.909-11.814-1.246-21.517-8.326-25.604l0,0c-7.079-4.087-17.06-1.968-26.336,5.592l0,0
	c-18.998,15.483-34.956,38.165-44.163,62.771L362.879,222.033z"/>
<path style="opacity:0.1;enable-background:new    ;" d="M397.41,66.393c-9.704,11.671-17.411,24.978-22.728,39.388
	c9.633,32.158,58.232,62.074,86.899,66.265c4.964,0.726,9.902,1.102,14.677,1.073c10.198-10.928,18.417-23.376,24.419-36.793
	C508.754,118.269,408.135,53.495,397.41,66.393z"/>
<path style="fill:#FFE78C;" d="M231.829,393.804c-17.853,0-32.266,14.732-31.744,32.703c0.477,16.413,13.704,29.945,30.104,30.771
	c8.809,0.443,16.879-2.707,22.879-8.111c1.776-1.6,4.476-1.6,6.253,0c6.001,5.404,14.07,8.554,22.879,8.111
	c16.399-0.825,29.627-14.358,30.103-30.771c0.522-17.971-13.891-32.703-31.744-32.703H231.829z"/>
<path style="opacity:0.05;enable-background:new    ;" d="M239.836,393.804h-8.007c-17.853,0-32.266,14.732-31.744,32.703
	c0.477,16.413,13.704,29.946,30.104,30.771c6.946,0.35,13.427-1.542,18.801-5.004C207.678,446.108,218.606,401.158,239.836,393.804z
	"/>
<path style="opacity:0.1;enable-background:new    ;" d="M354.785,177.77l-12.583,46.926l52.388,30.246l29.181-29.192
	C403.924,205.93,380.589,189.606,354.785,177.77z"/>
<path style="opacity:0.1;enable-background:new    ;" d="M157.604,177.77c-25.804,11.837-49.139,28.161-68.986,47.98l29.181,29.192
	l52.388-30.246L157.604,177.77z"/>
<path style="fill:#F3C0CC;" d="M447.296,450.074c-1.143,0-2.302-0.114-3.466-0.353c-9.307-1.904-15.309-10.993-13.404-20.3
	c2.398-11.716,3.613-23.782,3.613-35.861c0-98.063-79.781-177.844-177.844-177.844S78.35,295.497,78.35,393.56
	c0,12.079,1.215,24.145,3.613,35.861c1.905,9.307-4.097,18.397-13.404,20.3c-9.306,1.914-18.395-4.095-20.3-13.404
	c-2.861-13.981-4.312-28.367-4.312-42.758c0-117.033,95.214-212.247,212.248-212.247s212.247,95.214,212.247,212.247
	c0,14.391-1.45,28.777-4.312,42.758C462.464,444.461,455.296,450.074,447.296,450.074z"/>
<path style="fill:#494F57;" d="M280.911,389.008L280.911,389.008c-16.235-3.999-33.198-3.999-49.434,0l0,0
	c-5.769,1.421-8.144,8.326-4.469,12.994l10.045,12.763c9.752,12.391,28.528,12.391,38.281,0l10.045-12.763
	C289.054,397.334,286.68,390.429,280.911,389.008z"/>
<path style="opacity:0.1;enable-background:new    ;" d="M240.698,387.177c-3.093,0.469-6.17,1.079-9.22,1.831l0,0
	c-5.769,1.421-8.143,8.326-4.469,12.994l10.045,12.763c6.958,8.84,18.509,11.368,28.099,7.594
	C248.339,418.791,238.864,396.626,240.698,387.177z"/>
<path style="fill:#F3C0CC;" d="M400.698,62.602c19.198-17.628,100.692,9.204,109.19,44.608
	c10.268,42.78-18.717,51.337-47.947,45.294C429.02,145.696,366.817,96.163,400.698,62.602z"/>
<g>
</g>
<g>
</g>
<g>
</g>
<g>
</g>
<g>
</g>
<g>
</g>
<g>
</g>
<g>
</g>
<g>
</g>
<g>
</g>
<g>
</g>
<g>
</g>
<g>
</g>
<g>
</g>
<g>
</g>
</svg>
