<?xml version="1.0" encoding="iso-8859-1"?>
<!-- Generator: Adobe Illustrator 19.0.0, SVG Export Plug-In . SVG Version: 6.00 Build 0)  -->
<svg version="1.1" id="Capa_1" xmlns="http://www.w3.org/2000/svg" xmlns:xlink="http://www.w3.org/1999/xlink" x="0px" y="0px"
	 viewBox="0 0 512 512" style="enable-background:new 0 0 512 512;" xml:space="preserve">
<path id="SVGCleanerId_0" style="fill:#52B4DE;" d="M256,512c150.029,0,215.772-87.784,215.772-279.907
	C471.772,89.759,379.034,0,256,0S40.228,89.759,40.228,232.093C40.228,424.216,105.971,512,256,512z"/>
<g>
	<path id="SVGCleanerId_0_1_" style="fill:#52B4DE;" d="M256,512c150.029,0,215.772-87.784,215.772-279.907
		C471.772,89.759,379.034,0,256,0S40.228,89.759,40.228,232.093C40.228,424.216,105.971,512,256,512z"/>
</g>
<path style="fill:#FFFFFF;" d="M414.199,198.387c-3.154-31.094-29.085-54.542-60.317-54.542c-2.045,0-4.116,0.105-6.158,0.312
	l-40.04,4.062c-16.12,1.635-30.639,9.451-40.882,22.007c-0.049,0.06-0.098,0.12-0.147,0.18c-5.52,6.819-15.792,6.819-21.312,0
	c-0.049-0.06-0.098-0.12-0.146-0.18c-10.243-12.555-24.761-20.371-40.882-22.007l-40.041-4.062
	c-2.041-0.207-4.112-0.312-6.157-0.312c-31.231,0-57.162,23.447-60.317,54.542c-3.376,33.278,20.951,63.098,54.228,66.474
	l40.039,4.062c2.042,0.207,4.115,0.312,6.16,0.312c0.127,0,0.252-0.008,0.379-0.009l-0.034,0.054
	c-5.92,9.316-7.65,20.766-4.749,31.415c0.783,2.874,1.896,5.621,3.284,8.208c-20.458,8.797-34.837,29.139-34.899,52.791
	c-0.072,27.767,20.13,51.437,47.367,56.833c15.259,3.023,30.87,4.556,46.423,4.556c0.001,0,0.001,0,0.002,0
	c15.987,0,32.038-1.62,47.705-4.814l0.691-0.145c26.345-5.709,45.394-29.263,45.394-56.279c0-23.717-14.397-44.127-34.899-52.943
	c1.387-2.586,2.5-5.333,3.283-8.207c2.902-10.649,1.172-22.1-4.747-31.414l-0.035-0.056c0.126,0.001,0.25,0.009,0.376,0.009h0.005
	c2.053,0,4.106-0.104,6.149-0.311l40.049-4.063c16.12-1.636,30.639-9.451,40.881-22.006
	C411.095,230.299,415.835,214.506,414.199,198.387z"/>
<g>
	<path style="fill:#494F57;" d="M195.17,238.358l-40.039-4.063c-16.45-1.669-28.432-16.357-26.763-32.808l0,0
		c1.669-16.45,16.357-28.432,32.807-26.763l40.04,4.062c16.45,1.669,28.432,16.357,26.763,32.807l0,0
		C226.308,228.044,211.62,240.027,195.17,238.358z"/>
	<path style="fill:#494F57;" d="M316.83,238.358l40.039-4.063c16.45-1.669,28.432-16.357,26.763-32.808l0,0
		c-1.669-16.45-16.357-28.432-32.807-26.763l-40.039,4.062c-16.45,1.669-28.432,16.357-26.763,32.807l0,0
		C285.691,228.044,300.38,240.027,316.83,238.358z"/>
	<path style="fill:#494F57;" d="M243.034,256.591l-18.529,29.167c-2.713,4.27-1.165,9.948,3.339,12.251l0,0
		c17.683,9.04,38.63,9.04,56.313,0l0,0c4.504-2.303,6.052-7.981,3.339-12.251l-18.529-29.167
		C262.931,247.092,249.068,247.092,243.034,256.591z"/>
	<path style="fill:#494F57;" d="M286.842,335.529l-0.005,0.001c-20.35,4.149-41.329,4.149-61.679,0l0,0
		c-16.648-3.394-32.226,9.328-32.226,26.319l0,0c0,12.766,8.986,23.768,21.494,26.318l0,0c27.432,5.593,55.71,5.593,83.142,0.001
		l0.004-0.001c12.509-2.55,21.494-13.552,21.494-26.319l0,0C319.068,344.857,303.49,332.135,286.842,335.529z"/>
</g>
<g style="opacity:0.2;">
	<path d="M171.605,103.082c-0.196,0-0.392-0.007-0.59-0.022c-2.212-0.172-28.502-2.912-31.138-3.273
		c-4.103-0.563-6.974-4.347-6.41-8.45c0.563-4.104,4.343-6.974,8.45-6.411c2.075,0.285,27.812,2.989,30.261,3.18
		c4.13,0.321,7.217,3.93,6.896,8.06C178.769,100.096,175.483,103.082,171.605,103.082z"/>
	<path d="M340.39,103.082c-3.878,0-7.163-2.986-7.469-6.918c-0.321-4.13,2.766-7.738,6.896-8.06
		c2.452-0.19,28.188-2.895,30.261-3.18c4.106-0.562,7.887,2.307,8.45,6.41c0.564,4.104-2.307,7.888-6.41,8.451
		c-2.634,0.361-28.924,3.101-31.137,3.273C340.782,103.075,340.585,103.082,340.39,103.082z"/>
	<path d="M255.998,106.358c-3.211,0-15.307-0.152-17.596-0.294c-4.135-0.254-7.28-3.812-7.025-7.946
		c0.254-4.135,3.823-7.277,7.946-7.024c1.666,0.101,13.184,0.265,16.675,0.265c3.492,0,15.01-0.163,16.676-0.266
		c4.126-0.228,7.692,2.891,7.946,7.025c0.254,4.135-2.891,7.692-7.025,7.947C271.304,106.206,259.208,106.358,255.998,106.358z"/>
</g>
<g>
	<g style="opacity:0.2;">
		<circle style="fill:#FFFFFF;" cx="421.87" cy="308.1" r="7.36"/>
		<circle style="fill:#FFFFFF;" cx="93.77" cy="315.46" r="7.36"/>
		<circle style="fill:#FFFFFF;" cx="345.04" cy="48.619" r="7.36"/>
		<circle style="fill:#FFFFFF;" cx="402.42" cy="100.92" r="7.36"/>
		<circle style="fill:#FFFFFF;" cx="430.71" cy="348.72" r="7.36"/>
		<circle style="fill:#FFFFFF;" cx="399.67" cy="392.36" r="7.36"/>
		<circle style="fill:#FFFFFF;" cx="449.37" cy="294.03" r="7.36"/>
	</g>
	<path style="fill:#FFFFFF;" d="M256,0c-9.098,0-18.026,0.503-26.767,1.47v38.056c0,14.783,11.984,26.767,26.767,26.767
		c14.783,0,26.767-11.984,26.767-26.767V1.47C274.026,0.503,265.098,0,256,0z"/>
</g>
<path style="opacity:0.1;enable-background:new    ;" d="M209.773,4.467C110.464,24.196,40.228,108.23,40.228,232.093
	c0,177.826,56.334,266.252,183.681,278.43C135.312,351.118,140.898,105.078,209.773,4.467z"/>
<g>
</g>
<g>
</g>
<g>
</g>
<g>
</g>
<g>
</g>
<g>
</g>
<g>
</g>
<g>
</g>
<g>
</g>
<g>
</g>
<g>
</g>
<g>
</g>
<g>
</g>
<g>
</g>
<g>
</g>
</svg>
