<?xml version="1.0" encoding="iso-8859-1"?>
<!-- Generator: Adobe Illustrator 19.0.0, SVG Export Plug-In . SVG Version: 6.00 Build 0)  -->
<svg version="1.1" id="Capa_1" xmlns="http://www.w3.org/2000/svg" xmlns:xlink="http://www.w3.org/1999/xlink" x="0px" y="0px"
	 viewBox="0 0 512 512" style="enable-background:new 0 0 512 512;" xml:space="preserve">
<g>
	<path style="fill:#9B6A57;" d="M79.677,260.74H15.772C7.062,260.74,0,253.678,0,244.968v-54.544
		c0-8.711,7.062-15.772,15.772-15.772h63.905V260.74z"/>
	<path style="fill:#9B6A57;" d="M432.323,260.74h63.905c8.711,0,15.772-7.061,15.772-15.772v-54.544
		c0-8.711-7.061-15.772-15.772-15.772h-63.905V260.74z"/>
</g>
<path style="opacity:0.1;enable-background:new    ;" d="M490.055,174.651h-57.732v86.089h56.068
	c2.485-17.99,3.771-36.451,3.771-55.226C492.161,194.913,491.443,184.621,490.055,174.651z"/>
<path style="opacity:0.1;enable-background:new    ;" d="M21.945,174.651h57.732v86.089H23.609
	c-2.485-17.99-3.771-36.451-3.771-55.226C19.839,194.913,20.557,184.621,21.945,174.651z"/>
<path style="fill:#DFE0E0;" d="M256,24.795c-119.383,0-216.161,61.336-216.161,180.718c0,160.758,96.779,281.691,216.161,281.691
	s216.161-120.933,216.161-281.691C472.161,86.131,375.383,24.795,256,24.795z M218.587,224.165
	c-4.401,23.931-31.533,38.997-60.602,33.652c-29.069-5.346-49.066-29.079-44.666-53.009c4.401-23.931,31.533-38.997,60.602-33.652
	C202.99,176.501,222.988,200.234,218.587,224.165z M354.014,257.817c-29.069,5.345-56.201-9.721-60.602-33.652
	s15.597-47.664,44.666-53.009c29.069-5.345,56.201,9.721,60.602,33.652C403.081,228.738,383.083,252.471,354.014,257.817z"/>
<g>
	<path style="fill:#494F57;" d="M181.785,229.379c-4.142,0-7.5-3.357-7.5-7.5c0-4.017-3.268-7.285-7.285-7.285
		s-7.285,3.269-7.285,7.285c0,4.143-3.358,7.5-7.5,7.5s-7.5-3.357-7.5-7.5c0-12.288,9.997-22.285,22.285-22.285
		s22.285,9.997,22.285,22.285C189.285,226.021,185.927,229.379,181.785,229.379z"/>
	<path style="fill:#494F57;" d="M359.785,229.379c-4.142,0-7.5-3.357-7.5-7.5c0-4.017-3.268-7.285-7.285-7.285
		s-7.285,3.269-7.285,7.285c0,4.143-3.358,7.5-7.5,7.5s-7.5-3.357-7.5-7.5c0-12.288,9.997-22.285,22.285-22.285
		s22.285,9.997,22.285,22.285C367.285,226.021,363.927,229.379,359.785,229.379z"/>
</g>
<g>
	<path style="fill:#E15F76;" d="M285.907,108.283h-59.814c-13.866,0-21.258,16.348-12.099,26.759l29.907,33.996
		c6.417,7.294,17.782,7.294,24.199,0l29.907-33.996C307.164,124.632,299.772,108.283,285.907,108.283z"/>
	<path style="fill:#E15F76;" d="M120.653,319.026c-3.066,0-5.944-1.895-7.051-4.944c-1.413-3.893,0.599-8.195,4.492-9.607
		l63.125-22.903c3.892-1.416,8.195,0.598,9.608,4.492c1.413,3.893-0.599,8.195-4.492,9.607l-63.125,22.904
		C122.366,318.881,121.502,319.026,120.653,319.026z"/>
	<path style="fill:#E15F76;" d="M391.347,319.026c-0.85,0-1.713-0.146-2.558-0.451l-63.125-22.904
		c-3.894-1.412-5.905-5.714-4.492-9.607c1.413-3.895,5.716-5.905,9.608-4.492l63.125,22.903c3.893,1.412,5.905,5.714,4.492,9.607
		C397.292,317.132,394.414,319.026,391.347,319.026z"/>
</g>
<g style="opacity:0.1;">
	<circle cx="232.04" cy="334.81" r="7.533"/>
	<circle cx="232.04" cy="382.6" r="7.533"/>
	<circle cx="188.82" cy="358.7" r="7.533"/>
	<circle cx="232.04" cy="430.38" r="7.533"/>
	<circle cx="279.96" cy="334.81" r="7.533"/>
	<circle cx="279.96" cy="382.6" r="7.533"/>
	<circle cx="323.18" cy="358.7" r="7.533"/>
	<circle cx="279.96" cy="430.38" r="7.533"/>
</g>
<g style="opacity:0.1;">
	<circle cx="178.12" cy="135.37" r="7.533"/>
	<circle cx="178.12" cy="87.58" r="7.533"/>
	<circle cx="134.91" cy="111.47" r="7.533"/>
</g>
<g style="opacity:0.1;">
	<circle cx="333.88" cy="135.37" r="7.533"/>
	<circle cx="333.88" cy="87.58" r="7.533"/>
	<circle cx="377.1" cy="111.47" r="7.533"/>
</g>
<path style="opacity:0.1;enable-background:new    ;" d="M162.707,258.499c-1.566-0.172-3.14-0.391-4.721-0.682
	c-29.069-5.346-49.066-29.079-44.666-53.009c3.896-21.185,25.609-35.411,50.707-34.691c5.567-68.439,20.958-124.761,37.957-140.842
	C108.74,45.377,39.839,104.783,39.839,205.514c0,160.758,96.779,281.691,216.161,281.691c2.477,0,4.941-0.071,7.398-0.175
	C195.258,451.44,167.764,354.494,162.707,258.499z"/>
<g>
</g>
<g>
</g>
<g>
</g>
<g>
</g>
<g>
</g>
<g>
</g>
<g>
</g>
<g>
</g>
<g>
</g>
<g>
</g>
<g>
</g>
<g>
</g>
<g>
</g>
<g>
</g>
<g>
</g>
</svg>
