<?xml version="1.0" encoding="iso-8859-1"?>
<!-- Generator: Adobe Illustrator 19.0.0, SVG Export Plug-In . SVG Version: 6.00 Build 0)  -->
<svg version="1.1" id="Capa_1" xmlns="http://www.w3.org/2000/svg" xmlns:xlink="http://www.w3.org/1999/xlink" x="0px" y="0px"
	 viewBox="0 0 512 512" style="enable-background:new 0 0 512 512;" xml:space="preserve">
<circle style="fill:#9B6A57;" cx="74.75" cy="98.083" r="72.16"/>
<path style="fill:#FBE067;" d="M87.537,83.364C66.405,62.232,35.428,56.947,9.371,67.509c-12.499,26.727-7.718,59.533,14.351,81.603
	c21.132,21.132,52.109,26.417,78.166,15.855C114.387,138.24,109.607,105.433,87.537,83.364z"/>
<path style="opacity:0.1;enable-background:new    ;" d="M87.537,83.364C66.406,62.232,35.428,56.947,9.371,67.508
	c-1.852,3.961-3.315,8.058-4.409,12.231c20.139,0.784,65.201,10.53,78.96,89.919c6.124-0.781,12.167-2.341,17.966-4.692
	C114.387,138.24,109.607,105.433,87.537,83.364z"/>
<circle style="fill:#9B6A57;" cx="437.25" cy="98.083" r="72.16"/>
<path style="fill:#FBE067;" d="M424.463,83.364c21.132-21.132,52.109-26.417,78.166-15.855
	c12.499,26.727,7.718,59.533-14.351,81.603c-21.132,21.132-52.109,26.417-78.166,15.855
	C397.613,138.24,402.393,105.433,424.463,83.364z"/>
<path style="opacity:0.1;enable-background:new    ;" d="M424.463,83.364c21.132-21.132,52.109-26.417,78.166-15.855
	c1.852,3.961,3.316,8.058,4.409,12.231c-20.138,0.784-65.201,10.53-78.96,89.919c-6.124-0.781-12.167-2.341-17.966-4.692
	C397.613,138.24,402.393,105.433,424.463,83.364z"/>
<path style="fill:#9B6A57;" d="M512,300.293c0-141.385-114.615-256-256-256S0,158.908,0,300.293s114.615,185.784,256,185.784
	S512,441.678,512,300.293z"/>
<path style="opacity:0.1;enable-background:new    ;" d="M204.568,49.463C87.833,73.272,0,176.525,0,300.293
	c0,141.385,114.615,185.784,256,185.784c2.951,0,5.886-0.027,8.813-0.066C28.219,331.434,92.681,115.092,204.568,49.463z"/>
<path style="fill:#FBE067;" d="M358.499,333.688c0-56.609-45.89-161.142-102.499-161.142S153.501,277.079,153.501,333.688
	s45.89,87.82,102.499,87.82S358.499,390.297,358.499,333.688z"/>
<g>
	<path style="fill:#494F57;" d="M297.876,261.708L297.876,261.708c-26.714-11.591-57.038-11.591-83.752,0l0,0
		c-7.047,3.057-8.797,12.254-3.365,17.686l18.317,18.317c14.87,14.87,38.978,14.87,53.848,0l18.317-18.317
		C306.673,273.962,304.923,264.765,297.876,261.708z"/>
	<path style="fill:#494F57;" d="M113.244,276.58c-4.143,0-7.5-3.357-7.5-7.5v-23.696c0-4.143,3.357-7.5,7.5-7.5s7.5,3.357,7.5,7.5
		v23.696C120.744,273.223,117.387,276.58,113.244,276.58z"/>
	<path style="fill:#494F57;" d="M398.756,276.58c-4.143,0-7.5-3.357-7.5-7.5v-23.696c0-4.143,3.357-7.5,7.5-7.5s7.5,3.357,7.5,7.5
		v23.696C406.256,273.223,402.898,276.58,398.756,276.58z"/>
	<path style="fill:#494F57;" d="M256,374.152c-16.591,0-32.37-7.188-43.291-19.719c-2.722-3.123-2.395-7.86,0.727-10.582
		c3.122-2.721,7.86-2.396,10.582,0.727c8.071,9.262,19.729,14.574,31.982,14.574s23.911-5.313,31.982-14.574
		c2.721-3.123,7.457-3.448,10.582-0.727c3.122,2.722,3.448,7.459,0.726,10.582C288.37,366.965,272.591,374.152,256,374.152z"/>
</g>
<g>
</g>
<g>
</g>
<g>
</g>
<g>
</g>
<g>
</g>
<g>
</g>
<g>
</g>
<g>
</g>
<g>
</g>
<g>
</g>
<g>
</g>
<g>
</g>
<g>
</g>
<g>
</g>
<g>
</g>
</svg>
