<?xml version="1.0" encoding="iso-8859-1"?>
<!-- Generator: Adobe Illustrator 19.0.0, SVG Export Plug-In . SVG Version: 6.00 Build 0)  -->
<svg version="1.1" id="Capa_1" xmlns="http://www.w3.org/2000/svg" xmlns:xlink="http://www.w3.org/1999/xlink" x="0px" y="0px"
	 viewBox="0 0 512.001 512.001" style="enable-background:new 0 0 512.001 512.001;" xml:space="preserve">
<rect x="113.011" y="199.28" style="fill:#F9993E;" width="285.98" height="264.3"/>
<path style="opacity:0.08;enable-background:new    ;" d="M113.012,199.281v183.534c14.324-33.428,65.15-79.618,142.989-79.618
	s128.665,46.19,142.989,79.618V199.281H113.012z"/>
<path style="fill:#FBE067;" d="M255.91,89.892c-97.998,0.049-176.915,80.702-176.915,178.7v171.361c0,6.9,3.687,13.274,9.668,16.714
	l93.573,53.817c7.542,4.337,16.945-1.144,16.887-9.844l-0.498-75.049c-0.039-5.839-1.816-11.535-5.105-16.36l-54.358-79.742
	c-25.346-41.799-2.392-84.605,35.47-98.893c13.836-5.221,29.049,3.346,31.976,17.842l17.208,85.216
	c1.077,5.333,5.764,9.169,11.205,9.169h41.956c5.441,0,10.128-3.835,11.205-9.169l17.209-85.216
	c2.927-14.496,18.139-23.063,31.976-17.842c37.862,14.288,60.816,57.094,35.47,98.893l-54.356,79.741
	c-3.289,4.825-5.066,10.52-5.105,16.36l-0.498,75.049c-0.058,8.7,9.346,14.181,16.887,9.844l93.573-53.817
	c5.981-3.44,9.668-9.814,9.668-16.714V266.898C433.007,169.11,353.709,89.842,255.91,89.892z"/>
<g style="opacity:0.1;">
	<path d="M302.492,203.007c-1.919,0-3.839-0.732-5.304-2.196c-2.929-2.93-2.929-7.678,0-10.607l14.708-14.708
		c2.93-2.928,7.678-2.928,10.607,0c2.929,2.93,2.929,7.678,0,10.607l-14.708,14.708
		C306.331,202.274,304.411,203.007,302.492,203.007z"/>
	<path d="M343.963,195.652c-1.92,0-3.839-0.732-5.304-2.197c-2.929-2.929-2.929-7.678,0.001-10.606l14.709-14.708
		c2.929-2.928,7.678-2.929,10.606,0.001c2.929,2.929,2.929,7.678-0.001,10.606l-14.709,14.708
		C347.802,194.92,345.882,195.652,343.963,195.652z"/>
</g>
<path style="fill:#9B6A57;" d="M318.481,409.23l32.836-48.171v137.028l-21.552,12.395c-7.542,4.337-16.945-1.144-16.887-9.843
	l0.498-75.049C313.415,419.751,315.192,414.056,318.481,409.23z"/>
<path style="fill:#E15F76;" d="M284.211,0h-56.42c-8.528,0-15.441,6.913-15.441,15.441v88.17c0,8.528,6.913,15.441,15.441,15.441
	h56.42c8.528,0,15.441-6.913,15.441-15.441v-88.17C299.652,6.913,292.739,0,284.211,0z"/>
<path style="fill:#9B6A57;" d="M281.487,119.053h-50.972v34.149c0,3.759,3.047,6.806,6.806,6.806h37.361
	c3.759,0,6.806-3.047,6.806-6.806v-34.149H281.487z"/>
<rect x="230.511" y="119.05" style="opacity:0.1;enable-background:new    ;" width="50.972" height="14.693"/>
<path style="opacity:0.08;enable-background:new    ;" d="M198.626,425.59c-0.039-5.839-1.816-11.535-5.105-16.36l-54.358-79.742
	c-23.075-38.053-6.115-76.937,25.677-94.382c-47.446-17.41-27.583-83.622,0.632-120.017
	c-51.852,31.309-86.477,88.596-86.477,153.503v171.361c0,6.9,3.687,13.274,9.668,16.714l93.573,53.816
	c7.542,4.337,16.945-1.144,16.887-9.843L198.626,425.59z"/>
<path style="opacity:0.1;enable-background:new    ;" d="M284.211,83.192h-56.42c-8.528,0-15.441-6.913-15.441-15.441v35.86
	c0,8.528,6.913,15.441,15.441,15.441h56.42c8.528,0,15.441-6.913,15.441-15.441v-35.86
	C299.652,76.279,292.739,83.192,284.211,83.192z"/>
<path style="fill:#9B6A57;" d="M193.521,409.23l-32.836-48.171v137.028l21.552,12.395c7.542,4.337,16.945-1.144,16.887-9.843
	l-0.498-75.049C198.587,419.751,196.81,414.056,193.521,409.23z"/>
<g>
</g>
<g>
</g>
<g>
</g>
<g>
</g>
<g>
</g>
<g>
</g>
<g>
</g>
<g>
</g>
<g>
</g>
<g>
</g>
<g>
</g>
<g>
</g>
<g>
</g>
<g>
</g>
<g>
</g>
</svg>
