<?xml version="1.0" encoding="iso-8859-1"?>
<!-- Generator: Adobe Illustrator 19.0.0, SVG Export Plug-In . SVG Version: 6.00 Build 0)  -->
<svg version="1.1" id="Capa_1" xmlns="http://www.w3.org/2000/svg" xmlns:xlink="http://www.w3.org/1999/xlink" x="0px" y="0px"
	 viewBox="0 0 512 512" style="enable-background:new 0 0 512 512;" xml:space="preserve">
<path style="fill:#DFE0E0;" d="M256,20.21c-141.385,0-256,98.334-256,219.636C0,303.37,31.437,346.333,81.688,372.85
	c28.204,14.883,45.799,44.212,45.799,76.102l0,0c0,23.659,19.179,42.837,42.838,42.837l0,0c23.658,0,42.837-19.179,42.837-42.837
	c0,23.659,19.179,42.837,42.838,42.837l0,0c23.658,0,42.837-19.179,42.837-42.837l0,0c0,23.659,19.179,42.837,42.838,42.837l0,0
	c23.659,0,42.838-19.179,42.838-42.838l0,0c0-31.89,17.596-61.219,45.799-76.102C480.563,346.333,512,303.37,512,239.846
	C512,118.544,397.385,20.21,256,20.21z"/>
<g>
	<path style="fill:#494F57;" d="M172.013,265.283c-4.142,0-7.5-3.357-7.5-7.5c0-9.799-7.972-17.771-17.771-17.771
		s-17.771,7.973-17.771,17.771c0,4.143-3.358,7.5-7.5,7.5s-7.5-3.357-7.5-7.5c0-18.07,14.701-32.771,32.771-32.771
		s32.771,14.701,32.771,32.771C179.513,261.925,176.155,265.283,172.013,265.283z"/>
	<path style="fill:#494F57;" d="M390.529,265.283c-4.142,0-7.5-3.357-7.5-7.5c0-9.799-7.972-17.771-17.771-17.771
		s-17.772,7.973-17.772,17.771c0,4.143-3.358,7.5-7.5,7.5s-7.5-3.357-7.5-7.5c0-18.07,14.701-32.771,32.772-32.771
		c18.07,0,32.771,14.701,32.771,32.771C398.029,261.925,394.671,265.283,390.529,265.283z"/>
	<path style="fill:#494F57;" d="M247.221,340.244l-13.589,21.416c-4.392,6.922,0.581,15.968,8.779,15.968h27.179
		c8.198,0,13.171-9.046,8.779-15.968l-13.589-21.416C260.695,333.809,251.305,333.809,247.221,340.244z"/>
</g>
<path style="fill:#52B4DE;" d="M380.824,160.708c-33.652-13.305-67.392-10.291-95.005,8.484c-3.045,2.07-5.93,4.281-8.673,6.593
	c4.965-15.837,12.883-28.98,23.583-38.902c15.486-14.358,35.864-21.026,58.93-19.279c8.273,0.636,15.464-5.564,16.089-13.825
	s-5.565-15.464-13.825-16.089c-31.157-2.364-60.134,7.299-81.591,27.194c-9.959,9.234-18.092,20.334-24.331,33.057
	c-6.239-12.723-14.373-23.823-24.332-33.057C210.21,94.99,181.23,85.331,150.078,87.691c-8.261,0.625-14.451,7.828-13.825,16.089
	c0.625,8.261,7.84,14.453,16.089,13.825c23.065-1.743,43.444,4.922,58.93,19.279c10.7,9.922,18.619,23.065,23.583,38.902
	c-2.743-2.312-5.628-4.523-8.673-6.593c-27.613-18.775-61.353-21.789-95.005-8.484c-7.704,3.046-11.48,11.76-8.434,19.464
	c3.045,7.704,11.757,11.48,19.464,8.434c30.927-12.227,53.563-3.814,67.106,5.395C230.929,208.7,241,232.221,241,243.491
	c0,8.284,6.716,15,15,15s15-6.716,15-15c0-11.27,10.071-34.791,31.688-49.489c13.544-9.21,36.182-17.62,67.106-5.395
	c7.708,3.049,16.419-0.73,19.464-8.434C392.304,172.469,388.528,163.755,380.824,160.708z"/>
<path style="fill:#F9993E;" d="M75.06,318.066c-4.669,0-9.268-2.172-12.198-6.254c-4.831-6.729-3.292-16.102,3.439-20.933
	l12.484-8.962c6.73-4.828,16.102-3.291,20.933,3.438c4.831,6.729,3.291,16.102-3.439,20.933l-12.484,8.962
	C81.146,317.151,78.088,318.066,75.06,318.066z"/>
<path style="fill:#E15F76;" d="M146.742,343.007c-8.284,0-15-6.716-15-15v-14.973c0-8.284,6.716-15,15-15s15,6.716,15,15v14.973
	C161.742,336.291,155.026,343.007,146.742,343.007z"/>
<path style="fill:#F9993E;" d="M436.94,318.066c-3.029,0-6.086-0.914-8.734-2.815l-12.484-8.962
	c-6.73-4.831-8.27-14.203-3.439-20.933c4.831-6.729,14.203-8.271,20.933-3.438l12.484,8.962c6.73,4.831,8.27,14.203,3.438,20.933
	C446.209,315.895,441.608,318.066,436.94,318.066z"/>
<path style="fill:#E15F76;" d="M365.258,343.007c-8.284,0-15-6.716-15-15v-14.973c0-8.284,6.716-15,15-15s15,6.716,15,15v14.973
	C380.258,336.291,373.542,343.007,365.258,343.007z"/>
<g>
	<path style="fill:#64D19B;" d="M78.76,231.757c-1.757,0-3.544-0.311-5.286-0.967l-29.945-11.281
		c-7.752-2.921-11.669-11.573-8.749-19.325c2.921-7.753,11.573-11.671,19.325-8.749l29.945,11.281
		c7.752,2.921,11.669,11.573,8.749,19.325C90.535,228.051,84.824,231.757,78.76,231.757z"/>
	<path style="fill:#64D19B;" d="M433.24,231.757c-6.065,0-11.775-3.705-14.039-9.716c-2.92-7.752,0.997-16.404,8.749-19.325
		l29.945-11.281c7.75-2.922,16.405,0.997,19.325,8.749s-0.997,16.404-8.749,19.325l-29.945,11.281
		C436.785,231.446,434.997,231.757,433.24,231.757z"/>
</g>
<path style="opacity:0.1;enable-background:new    ;" d="M172.013,328.007c-119.582-52.769-75.01-221.685-11.136-292.123
	C66.597,68.279,0,147.387,0,239.846C0,303.37,31.437,346.333,81.688,372.85c28.204,14.883,45.799,44.212,45.799,76.102
	c0,23.659,19.179,42.837,42.838,42.837l0,0c23.658,0,42.837-19.179,42.837-42.837c0,23.659,19.179,42.837,42.838,42.837
	C209.464,469.96,253.129,363.802,172.013,328.007z"/>
<g>
</g>
<g>
</g>
<g>
</g>
<g>
</g>
<g>
</g>
<g>
</g>
<g>
</g>
<g>
</g>
<g>
</g>
<g>
</g>
<g>
</g>
<g>
</g>
<g>
</g>
<g>
</g>
<g>
</g>
</svg>
