<?xml version="1.0" encoding="iso-8859-1"?>
<!-- Generator: Adobe Illustrator 19.0.0, SVG Export Plug-In . SVG Version: 6.00 Build 0)  -->
<svg version="1.1" id="Capa_1" xmlns="http://www.w3.org/2000/svg" xmlns:xlink="http://www.w3.org/1999/xlink" x="0px" y="0px"
	 viewBox="0 0 512 512" style="enable-background:new 0 0 512 512;" xml:space="preserve">
<g>
	<path style="fill:#F9993E;" d="M157.691,268.936L157.691,268.936c-29.67,0-56.925,14.61-70.887,37.999l0,0
		c-28.383,47.547-28.383,104.602,0,152.148l0,0c13.962,23.389,41.217,37.999,70.887,37.999l0,0c29.67,0,56.925-14.61,70.887-37.999
		l0,0c28.383-47.547,28.383-104.602,0-152.148l0,0C214.616,283.546,187.362,268.936,157.691,268.936z"/>
	<path style="fill:#F9993E;" d="M354.309,268.936L354.309,268.936c29.67,0,56.925,14.61,70.887,37.999l0,0
		c28.383,47.547,28.383,104.602,0,152.148l0,0c-13.962,23.389-41.217,37.999-70.887,37.999l0,0c-29.67,0-56.925-14.61-70.887-37.999
		l0,0c-28.383-47.547-28.383-104.602,0-152.148l0,0C297.384,283.546,324.639,268.936,354.309,268.936z"/>
</g>
<path style="opacity:0.1;enable-background:new    ;" d="M228.578,306.935L228.578,306.935
	c-10.843-18.165-29.706-31.029-51.489-35.872c-5.402,5.492-10.16,11.592-14.126,18.236c-30.63,51.313-34.474,111.33-11.534,164.828
	c-72.778-18.482-57.253-123.974-35.612-174.661l0,0c-12.028,6.564-22.135,15.949-29.012,27.47l0,0
	c-28.383,47.547-28.383,104.602,0,152.148l0,0c13.962,23.389,41.217,37.999,70.887,37.999l0,0c29.67,0,56.925-14.61,70.887-37.999
	l0,0C256.961,411.537,256.961,354.481,228.578,306.935z"/>
<path style="opacity:0.1;enable-background:new    ;" d="M357.472,460.94c26.305-55.173,23.503-118.137-8.436-171.642
	c-3.966-6.644-8.724-12.744-14.126-18.236l0,0c-21.783,4.843-40.646,17.708-51.489,35.872l0,0
	c-28.383,47.547-28.383,104.602,0,152.148l0,0c13.962,23.389,41.217,37.999,70.887,37.999l0,0c29.67,0,56.925-14.61,70.887-37.999
	l0,0c1.528-2.559,2.957-5.151,4.32-7.763C400.18,471.277,376.486,471.718,357.472,460.94z"/>
<path style="fill:#F9993E;" d="M256,254.018L256,254.018c-33.55,0-64.369,16.521-80.157,42.968l0,0
	c-32.094,53.764-32.094,118.281,0,172.045l0,0C191.631,495.479,222.45,512,256,512l0,0c33.55,0,64.369-16.521,80.157-42.968l0,0
	c32.094-53.764,32.094-118.281,0-172.045l0,0C320.369,270.539,289.55,254.018,256,254.018z"/>
<g>
	<path style="fill:#64D19B;" d="M254.879,129.514c-10.087,0-18.265-8.177-18.265-18.265c0-43.387,14.516-81.107,40.874-106.21
		c7.306-6.956,18.866-6.676,25.823,0.629s6.675,18.866-0.629,25.823c-19.048,18.142-29.538,46.467-29.538,79.759
		C273.144,121.337,264.966,129.514,254.879,129.514z"/>
	<path style="fill:#64D19B;" d="M338.678,134.508c-4.165-0.57-47.756-6.581-58.409-10.691c-5.83-2.249-7.897-9.424-4.156-14.43
		c6.836-9.147,40.551-37.424,43.775-40.122c16.516-13.822,39.411-14.934,47.879-14.828c1.8,0.022,3.157,1.644,2.862,3.42
		c-0.53,3.192-1.61,8.43-3.66,14.451c11.161,2.401,20.24,6.084,25.17,8.338c2.214,1.012,3.005,3.759,1.669,5.794
		c-2.975,4.531-8.705,12.479-16.879,20.449c4.938,4.009,8.638,7.869,10.785,10.29c1.194,1.347,0.908,3.441-0.604,4.418
		C379.994,126.191,360.015,137.427,338.678,134.508z"/>
	<path style="fill:#64D19B;" d="M173.322,134.508c4.165-0.57,47.756-6.581,58.409-10.691c5.83-2.249,7.897-9.424,4.156-14.43
		c-6.836-9.147-40.551-37.424-43.775-40.122c-16.516-13.822-39.411-14.934-47.879-14.828c-1.8,0.022-3.157,1.644-2.862,3.42
		c0.53,3.192,1.61,8.43,3.66,14.451c-11.161,2.401-20.24,6.084-25.17,8.338c-2.214,1.012-3.005,3.759-1.669,5.794
		c2.975,4.531,8.705,12.479,16.879,20.449c-4.938,4.009-8.638,7.869-10.785,10.29c-1.195,1.347-0.908,3.441,0.604,4.418
		C132.006,126.191,151.985,137.427,173.322,134.508z"/>
</g>
<path style="opacity:0.1;enable-background:new    ;" d="M367.339,106.524c-19.165-9.646-42.24-16.507-67.305-20.215
	c-9.888,8.709-20.424,18.397-23.922,23.078c-3.741,5.005-1.674,12.181,4.156,14.43c10.654,4.109,54.245,10.121,58.409,10.691
	c21.338,2.92,41.317-8.317,48.431-12.911c0.76-0.491,1.209-1.264,1.318-2.082C382.264,114.847,375.227,110.495,367.339,106.524z"/>
<path style="opacity:0.1;enable-background:new    ;" d="M256,83.116c-5.827,0-11.603,0.178-17.322,0.497
	c-1.366,8.891-2.064,18.127-2.064,27.636c0,10.088,8.177,18.265,18.265,18.265c10.087,0,18.265-8.177,18.265-18.265
	c0-9.619,0.881-18.821,2.586-27.485C269.227,83.35,262.647,83.116,256,83.116z"/>
<path style="opacity:0.1;enable-background:new    ;" d="M235.888,109.387c-3.498-4.681-14.034-14.369-23.922-23.078
	c-25.065,3.708-48.14,10.569-67.305,20.215c-7.888,3.97-14.925,8.322-21.088,12.99c0.108,0.818,0.558,1.591,1.318,2.082
	c7.115,4.594,27.094,15.831,48.431,12.911c4.165-0.57,47.756-6.581,58.409-10.691C237.562,121.568,239.629,114.393,235.888,109.387z
	"/>
<path style="fill:#F9993E;" d="M256,213.51c81.694,0,147.92-12.138,147.92-40.942c0-41.119-66.226-74.452-147.92-74.452
	s-147.92,33.333-147.92,74.452C108.08,201.373,174.306,213.51,256,213.51z"/>
<path style="opacity:0.1;enable-background:new    ;" d="M216.663,100.783c-62.597,8.671-108.583,37.523-108.583,71.786
	c0,25.065,50.15,37.508,116.998,40.317C147.6,178.228,173.326,122.758,216.663,100.783z"/>
<g>
	<path style="fill:#494F57;" d="M198.556,170.75c-4.142,0-7.5-3.357-7.5-7.5v-9.535c0-4.142,3.358-7.5,7.5-7.5s7.5,3.358,7.5,7.5
		v9.535C206.056,167.393,202.698,170.75,198.556,170.75z"/>
	<path style="fill:#494F57;" d="M313.444,170.75c-4.142,0-7.5-3.357-7.5-7.5v-9.535c0-4.142,3.358-7.5,7.5-7.5s7.5,3.358,7.5,7.5
		v9.535C320.944,167.393,317.586,170.75,313.444,170.75z"/>
	<path style="fill:#494F57;" d="M256,178.072c-7.972,0-15.553-3.452-20.799-9.472c-2.721-3.123-2.396-7.86,0.727-10.582
		c3.124-2.721,7.861-2.396,10.582,0.727c2.396,2.75,5.855,4.327,9.491,4.327c3.635,0,7.094-1.577,9.491-4.327
		c2.722-3.123,7.459-3.447,10.582-0.727c3.122,2.722,3.448,7.459,0.727,10.582C271.553,174.62,263.972,178.072,256,178.072z"/>
</g>
<g style="opacity:0.1;">
	<circle cx="295.42" cy="295.1" r="7.486"/>
	<circle cx="370.82" cy="167.12" r="7.486"/>
	<circle cx="318.18" cy="321.52" r="7.486"/>
	<circle cx="422.03" cy="391.56" r="7.486"/>
	<circle cx="410.9" cy="420.29" r="7.486"/>
	<circle cx="194.6" cy="420.29" r="7.486"/>
</g>
<g>
</g>
<g>
</g>
<g>
</g>
<g>
</g>
<g>
</g>
<g>
</g>
<g>
</g>
<g>
</g>
<g>
</g>
<g>
</g>
<g>
</g>
<g>
</g>
<g>
</g>
<g>
</g>
<g>
</g>
</svg>
