<?xml version="1.0" encoding="iso-8859-1"?>
<!-- Generator: Adobe Illustrator 19.0.0, SVG Export Plug-In . SVG Version: 6.00 Build 0)  -->
<svg version="1.1" id="Capa_1" xmlns="http://www.w3.org/2000/svg" xmlns:xlink="http://www.w3.org/1999/xlink" x="0px" y="0px"
	 viewBox="0 0 512 512" style="enable-background:new 0 0 512 512;" xml:space="preserve">
<path style="fill:#64D19B;" d="M381.797,45.695c1.057-3.343,1.631-6.901,1.631-10.593C383.428,15.716,367.712,0,348.326,0
	c-19.386,0-35.102,15.716-35.102,35.102c0,29.785-17.752,56.702-45.13,68.431l-28.644,12.271h139.896
	c19.386,0,35.102-15.716,35.102-35.102C414.448,62.141,400.038,46.955,381.797,45.695z"/>
<g>
	<path style="fill:#E15F76;" d="M341.485,499.775l16.102-78.947H154.413l16.102,78.947c1.451,7.115,7.709,12.225,14.971,12.225
		h141.03C333.776,512,340.034,506.889,341.485,499.775z"/>
	<path style="fill:#E15F76;" d="M425.979,168.201H86.021l49.031,240.401c1.451,7.115,7.709,12.225,14.971,12.225h211.956
		c7.261,0,13.52-5.111,14.971-12.225L425.979,168.201z"/>
</g>
<path style="opacity:0.1;enable-background:new    ;" d="M117.516,322.626h276.967l3.059-15H114.457L117.516,322.626z
	 M125.267,360.626h261.467l3.059-15H122.207L125.267,360.626z M106.707,269.626l3.059,15h292.468l3.059-15H106.707z"/>
<path style="fill:#DFE0E0;" d="M433.006,109.957H78.994c-16.084,0-29.122,13.038-29.122,29.122l0,0
	c0,16.084,13.039,29.122,29.122,29.122h354.012c16.084,0,29.122-13.038,29.122-29.122l0,0
	C462.128,122.995,449.09,109.957,433.006,109.957z"/>
<path style="opacity:0.1;enable-background:new    ;" d="M420.672,194.226l5.308-26.025H86.021l49.031,240.401
	c1.451,7.115,7.709,12.225,14.971,12.225h64.883c-34.076-48.844-45.329-146.156-50.428-226.601H420.672z"/>
<path style="opacity:0.15;enable-background:new    ;" d="M357.587,420.827H154.413l16.102,78.947
	c1.451,7.115,7.709,12.225,14.971,12.225h62.552c-12.495-16.717-22.255-48.668-27.726-70.493H353.37L357.587,420.827z"/>
<path style="opacity:0.1;enable-background:new    ;" d="M162.355,109.957H78.994c-16.084,0-29.122,13.038-29.122,29.122
	s13.039,29.122,29.122,29.122h86.702C151.894,155.6,151.505,122.844,162.355,109.957z"/>
<g>
	<path style="fill:#494F57;" d="M196.337,227.304c-4.143,0-7.5-3.357-7.5-7.5v-10.177c0-4.143,3.357-7.5,7.5-7.5s7.5,3.357,7.5,7.5
		v10.177C203.837,223.946,200.48,227.304,196.337,227.304z"/>
	<path style="fill:#494F57;" d="M315.663,227.304c-4.143,0-7.5-3.357-7.5-7.5v-10.177c0-4.143,3.357-7.5,7.5-7.5s7.5,3.357,7.5,7.5
		v10.177C323.163,223.946,319.806,227.304,315.663,227.304z"/>
	<path style="fill:#494F57;" d="M256.626,244.767L256.626,244.767c-9.486,0-17.177-7.69-17.177-17.177v-12.488
		c0-2.59,2.099-4.689,4.689-4.689h24.976c2.59,0,4.689,2.099,4.689,4.689v12.488C273.803,237.076,266.113,244.767,256.626,244.767z"
		/>
</g>
<g>
</g>
<g>
</g>
<g>
</g>
<g>
</g>
<g>
</g>
<g>
</g>
<g>
</g>
<g>
</g>
<g>
</g>
<g>
</g>
<g>
</g>
<g>
</g>
<g>
</g>
<g>
</g>
<g>
</g>
</svg>
