<?xml version="1.0" encoding="iso-8859-1"?>
<!-- Generator: Adobe Illustrator 19.0.0, SVG Export Plug-In . SVG Version: 6.00 Build 0)  -->
<svg version="1.1" id="Capa_1" xmlns="http://www.w3.org/2000/svg" xmlns:xlink="http://www.w3.org/1999/xlink" x="0px" y="0px"
	 viewBox="0 0 512 512" style="enable-background:new 0 0 512 512;" xml:space="preserve">
<g>
	<path style="fill:#494F57;" d="M119.027,468.216c-0.649,0-1.308-0.085-1.966-0.263l-82.078-22.229
		C14.386,440.145,0,421.346,0,400.005c0-14.87,6.773-28.58,18.582-37.617c11.811-9.036,26.816-11.985,41.166-8.102l61.235,16.585
		c3.998,1.083,6.361,5.202,5.278,9.2c-1.083,3.998-5.199,6.362-9.2,5.278l-61.235-16.585c-9.807-2.656-20.059-0.638-28.129,5.536
		C19.628,380.476,15,389.844,15,400.005c0,14.582,9.83,27.429,23.905,31.24l82.078,22.229c3.998,1.083,6.361,5.202,5.278,9.2
		C125.356,466.016,122.33,468.216,119.027,468.216z"/>
	<path style="fill:#494F57;" d="M392.973,468.216c-3.304,0-6.329-2.199-7.234-5.541c-1.083-3.998,1.28-8.117,5.278-9.2
		l82.078-22.229C487.17,427.434,497,414.587,497,400.005c0-10.161-4.628-19.529-12.697-25.704c-8.07-6.174-18.32-8.191-28.129-5.536
		l-61.235,16.585c-3.996,1.079-8.117-1.28-9.2-5.278c-1.083-3.998,1.28-8.117,5.278-9.2l61.235-16.585
		c14.351-3.887,29.355-0.934,41.166,8.102C505.227,371.425,512,385.135,512,400.005c0,21.341-14.386,40.141-34.983,45.719
		l-82.078,22.229C394.281,468.131,393.622,468.216,392.973,468.216z"/>
</g>
<path style="fill:#DFE0E0;" d="M475.755,62.403L475.755,62.403c-139.498-64.071-300.012-64.071-439.51,0l0,0
	c-16.529,7.592-23.964,27-16.737,43.692l53.09,122.627c4.605,10.636,15.087,17.52,26.677,17.52h313.452
	c11.59,0,22.072-6.884,26.677-17.52l53.09-122.627C499.719,89.403,492.284,69.995,475.755,62.403z"/>
<path style="fill:#52B4DE;" d="M50.329,177.287l22.268,51.435c4.605,10.636,15.087,17.52,26.677,17.52h313.452
	c11.59,0,22.072-6.884,26.677-17.52l22.268-51.435H50.329z"/>
<path style="fill:#DFE0E0;" d="M404.301,484.023L404.301,484.023c-98.033,18.169-198.57,18.169-296.603,0l0,0
	c-8.703-1.613-15.018-9.205-15.018-18.057v-101.28c0-11.483,10.42-20.149,21.711-18.057l0,0c93.608,17.349,189.608,17.349,283.217,0
	l0,0c11.29-2.092,21.711,6.574,21.711,18.057v101.28C419.319,474.818,413.005,482.41,404.301,484.023z"/>
<g style="opacity:0.1;">
	<path d="M179.015,414.801c-0.216,0-0.434-0.009-0.652-0.027c-11.586-0.998-44.447-8.914-54.33-12.373
		c-3.91-1.369-5.97-5.647-4.602-9.557c1.369-3.91,5.649-5.973,9.557-4.602c9.666,3.384,41.063,10.76,50.662,11.586
		c4.127,0.355,7.185,3.989,6.829,8.116C186.142,411.852,182.865,414.801,179.015,414.801z"/>
	<path d="M179.011,458.866c-0.096,0-0.19-0.002-0.287-0.005c-11.016-0.415-28.468-5.095-35.143-7.598
		c-3.878-1.454-5.843-5.777-4.389-9.656s5.775-5.845,9.656-4.389c5.754,2.158,21.683,6.323,30.439,6.652
		c4.14,0.156,7.368,3.638,7.213,7.777C186.349,455.691,183.023,458.866,179.011,458.866z"/>
	<path d="M336.088,418.741c-4.143,0-7.5-3.357-7.5-7.5s3.357-7.5,7.5-7.5c5.224,0,31.742-3.259,48.957-12.485
		c3.653-1.958,8.196-0.583,10.153,3.067c1.957,3.65,0.583,8.196-3.067,10.153C371.89,415.325,342.577,418.741,336.088,418.741z"/>
	<path d="M318.208,461.065c-4.143,0-7.5-3.357-7.5-7.5s3.357-7.5,7.5-7.5c14.923,0,28.736-1.484,38.895-4.181
		c4.004-1.061,8.11,1.321,9.173,5.325s-1.322,8.11-5.325,9.173C349.572,459.402,334.393,461.065,318.208,461.065z"/>
</g>
<path style="fill:#E15F76;" d="M276.847,70.869V50.532c0-4.328-3.509-7.837-7.837-7.837h-26.019c-4.328,0-7.837,3.509-7.837,7.837
	v20.337c0,1.96-1.589,3.549-3.549,3.549h-20.337c-4.328,0-7.837,3.509-7.837,7.837v26.019c0,4.328,3.509,7.837,7.837,7.837h20.337
	c1.96,0,3.549,1.589,3.549,3.549v20.337c0,4.328,3.509,7.837,7.837,7.837h26.019c4.328,0,7.837-3.509,7.837-7.837V119.66
	c0-1.96,1.589-3.549,3.549-3.549h20.337c4.328,0,7.837-3.509,7.837-7.837V82.255c0-4.328-3.509-7.837-7.837-7.837h-20.337
	C278.435,74.418,276.847,72.829,276.847,70.869z"/>
<path style="opacity:0.1;enable-background:new    ;" d="M186.394,18.973c-51.4,6.853-102.025,21.327-150.149,43.43l0,0
	c-16.529,7.592-23.964,27-16.737,43.692l53.09,122.627c4.605,10.636,15.087,17.52,26.677,17.52h129.628
	C180.08,197.88,160.022,54.07,186.394,18.973z"/>
<g>
	<path style="fill:#494F57;" d="M181.791,218.408c-4.143,0-7.5-3.357-7.5-7.5V198.59c0-4.143,3.357-7.5,7.5-7.5s7.5,3.357,7.5,7.5
		v12.318C189.291,215.051,185.934,218.408,181.791,218.408z"/>
	<path style="fill:#494F57;" d="M330.209,218.408c-4.143,0-7.5-3.357-7.5-7.5V198.59c0-4.143,3.357-7.5,7.5-7.5s7.5,3.357,7.5,7.5
		v12.318C337.709,215.051,334.352,218.408,330.209,218.408z"/>
	<path style="fill:#494F57;" d="M256,227.868c-9.665,0-18.856-4.187-25.219-11.484c-2.722-3.123-2.397-7.86,0.725-10.582
		c3.124-2.724,7.861-2.398,10.582,0.725c3.514,4.03,8.584,6.342,13.912,6.342c5.328,0,10.398-2.312,13.912-6.342
		c2.721-3.122,7.459-3.448,10.582-0.725c3.122,2.722,3.446,7.459,0.725,10.582C274.856,223.682,265.665,227.868,256,227.868z"/>
</g>
<path style="opacity:0.1;enable-background:new    ;" d="M171.814,429.633c-7.866-25.716-1.932-51.908,7.703-73.776
	c-21.796-2.156-43.525-5.223-65.125-9.226l0,0c-11.291-2.093-21.71,6.574-21.71,18.057v101.28c0,8.852,6.314,16.444,15.018,18.057
	l0,0c23.705,4.393,47.558,7.714,71.485,9.983C170.512,476.63,181.063,459.871,171.814,429.633z"/>
<g>
</g>
<g>
</g>
<g>
</g>
<g>
</g>
<g>
</g>
<g>
</g>
<g>
</g>
<g>
</g>
<g>
</g>
<g>
</g>
<g>
</g>
<g>
</g>
<g>
</g>
<g>
</g>
<g>
</g>
</svg>
