<?xml version="1.0" encoding="iso-8859-1"?>
<!-- Generator: Adobe Illustrator 19.0.0, SVG Export Plug-In . SVG Version: 6.00 Build 0)  -->
<svg version="1.1" id="Capa_1" xmlns="http://www.w3.org/2000/svg" xmlns:xlink="http://www.w3.org/1999/xlink" x="0px" y="0px"
	 viewBox="0 0 512 512" style="enable-background:new 0 0 512 512;" xml:space="preserve">
<path style="fill:#5C626B;" d="M495.293,255.159l-26.218,2.1c-26.269,2.104-51.817-9.236-67.877-30.131l0,0
	c-19.692-25.62-50.171-40.635-82.485-40.635l0,0c-22.56,0-42.691,10.36-55.921,26.575c-3.512,4.304-10.072,4.304-13.584,0
	c-13.23-16.215-33.36-26.575-55.92-26.575l0,0c-32.314,0-62.793,15.015-82.485,40.635l0,0
	c-16.06,20.895-41.608,32.235-67.877,30.131l-26.218-2.1c-14.549-1.165-22.437,16.646-11.796,26.636l0,0
	c56.818,53.341,138.573,70.685,212.154,45.007l0,0c16.872-5.888,30.49-17.62,38.933-32.448c8.443,14.827,22.061,26.56,38.933,32.448
	l0,0c73.581,25.678,155.336,8.335,212.154-45.007l0,0C517.73,271.805,509.842,253.994,495.293,255.159z"/>
<g style="opacity:0.1;">
	<path d="M118.631,264.111c-2.533,0-5.005-1.283-6.416-3.606c-2.151-3.539-1.025-8.152,2.514-10.304
		c6.715-4.081,18.418-14.639,24.08-21.724c2.586-3.236,7.306-3.763,10.541-1.178c3.236,2.586,3.763,7.306,1.177,10.541
		c-6.87,8.598-19.696,20.128-28.008,25.179C121.302,263.758,119.958,264.111,118.631,264.111z"/>
	<path d="M138.692,320.688c-4.666,0-9.109-0.166-13.214-0.428c-4.134-0.263-7.271-3.827-7.008-7.961
		c0.264-4.134,3.831-7.287,7.961-7.008c15.527,0.987,44.692,0.871,65.584-11.015c3.6-2.05,8.179-0.79,10.228,2.81
		c2.048,3.601,0.79,8.18-2.81,10.228C180.874,317.874,157.902,320.688,138.692,320.688z"/>
	<path d="M84.024,303.81c-0.683,0-1.376-0.094-2.064-0.291c-2.924-0.835-22.761-7.448-28.31-11.365
		c-3.384-2.389-4.19-7.068-1.801-10.452c2.388-3.383,7.067-4.191,10.45-1.803c2.618,1.804,18.038,7.556,23.783,9.198
		c3.982,1.138,6.289,5.289,5.15,9.271C90.29,301.663,87.287,303.81,84.024,303.81z"/>
</g>
<g style="opacity:0.1;">
	<path d="M393.371,264.111c-1.328,0-2.671-0.353-3.889-1.092c-8.311-5.051-21.137-16.581-28.007-25.178
		c-2.586-3.235-2.06-7.955,1.176-10.541c3.236-2.588,7.956-2.061,10.541,1.176c5.664,7.086,17.366,17.643,24.081,21.725
		c3.539,2.151,4.665,6.765,2.514,10.305C398.375,262.828,395.903,264.111,393.371,264.111z"/>
	<path d="M373.31,320.688c-19.211,0-42.181-2.813-60.741-13.374c-3.6-2.048-4.858-6.627-2.81-10.228
		c2.047-3.601,6.626-4.858,10.228-2.81c20.893,11.887,50.061,12.001,65.585,11.015c4.131-0.275,7.697,2.875,7.961,7.008
		c0.264,4.134-2.874,7.698-7.008,7.961C382.421,320.522,377.975,320.688,373.31,320.688z"/>
	<path d="M427.979,303.81c-3.264,0-6.266-2.146-7.207-5.441c-1.139-3.982,1.167-8.134,5.15-9.271
		c5.745-1.643,21.168-7.396,23.783-9.199c3.396-2.342,8.079-1.525,10.44,1.859c2.361,3.383,1.578,8.017-1.792,10.397
		c-5.548,3.917-25.386,10.53-28.311,11.365C429.355,303.716,428.661,303.81,427.979,303.81z"/>
</g>
<path style="opacity:0.1;enable-background:new    ;" d="M117.269,219.518c-2.262,2.422-4.425,4.956-6.465,7.611l0,0
	c-16.06,20.894-41.608,32.235-67.877,30.131l-26.218-2.1C2.16,253.994-5.728,271.806,4.913,281.796l0,0
	c50.305,47.227,120.157,66.229,186.577,52.145C124.806,329.988,105.536,261.623,117.269,219.518z"/>
<g>
	<path style="fill:#494F57;" d="M155.972,173.886c-4.142,0-7.5-3.357-7.5-7.5v-16.605c0-4.143,3.358-7.5,7.5-7.5s7.5,3.357,7.5,7.5
		v16.605C163.472,170.529,160.114,173.886,155.972,173.886z"/>
	<path style="fill:#494F57;" d="M356.029,173.886c-4.143,0-7.5-3.357-7.5-7.5v-16.605c0-4.143,3.357-7.5,7.5-7.5s7.5,3.357,7.5,7.5
		v16.605C363.529,170.529,360.172,173.886,356.029,173.886z"/>
	<path style="fill:#494F57;" d="M256.001,369.72c-12.274,0-23.947-5.316-32.026-14.586c-2.722-3.122-2.396-7.86,0.726-10.582
		c3.123-2.721,7.86-2.395,10.581,0.727c5.23,6,12.781,9.441,20.718,9.441c7.937,0,15.489-3.441,20.718-9.441
		c2.722-3.123,7.459-3.447,10.582-0.727c3.122,2.722,3.448,7.459,0.727,10.582C279.948,364.404,268.275,369.72,256.001,369.72z"/>
</g>
<g>
</g>
<g>
</g>
<g>
</g>
<g>
</g>
<g>
</g>
<g>
</g>
<g>
</g>
<g>
</g>
<g>
</g>
<g>
</g>
<g>
</g>
<g>
</g>
<g>
</g>
<g>
</g>
<g>
</g>
</svg>
