<?xml version="1.0" encoding="iso-8859-1"?>
<!-- Generator: Adobe Illustrator 19.0.0, SVG Export Plug-In . SVG Version: 6.00 Build 0)  -->
<svg version="1.1" id="Capa_1" xmlns="http://www.w3.org/2000/svg" xmlns:xlink="http://www.w3.org/1999/xlink" x="0px" y="0px"
	 viewBox="0 0 512 512" style="enable-background:new 0 0 512 512;" xml:space="preserve">
<path style="fill:#5C626B;" d="M397.582,0H114.418C99.075,0,85.851,10.797,82.782,25.83L54.796,162.907
	c-8.262,40.466-9.173,82.089-2.691,122.877l31.624,198.994C86.221,500.458,99.742,512,115.618,512h280.764
	c15.876,0,29.397-11.542,31.889-27.221l31.624-198.994c6.482-40.789,5.571-82.411-2.691-122.877L429.218,25.83
	C426.149,10.797,412.925,0,397.582,0z"/>
<g>
	<circle style="fill:#E6E7E8;" cx="397.96" cy="32.665" r="7.458"/>
	<circle style="fill:#E6E7E8;" cx="114.04" cy="32.665" r="7.458"/>
	<circle style="fill:#E6E7E8;" cx="395.96" cy="484.7" r="7.458"/>
	<circle style="fill:#E6E7E8;" cx="116.04" cy="484.7" r="7.458"/>
</g>
<circle style="fill:#52B4DE;" cx="256" cy="341.71" r="134.53"/>
<circle style="fill:#5C626B;" cx="256" cy="341.71" r="102.15"/>
<circle style="opacity:0.15;enable-background:new    ;" cx="256" cy="341.71" r="34.584"/>
<path style="opacity:0.15;enable-background:new    ;" d="M256,173.427c74.152,0,139.21-17.977,134.265-68.881
	C385.319,53.641,330.152,35.665,256,35.665s-129.319,17.977-134.265,68.881C116.79,155.451,181.848,173.427,256,173.427z"/>
<path style="opacity:0.15;enable-background:new    ;" d="M94.358,179.617l-0.906,1.828c-8.749,17.649-8.058,38.511,1.841,55.541
	l0,0c5.572,9.588,18.727,11.272,26.535,3.397l29.141-29.389c4.369-4.406,3.682-11.693-1.434-15.205l-32.245-22.137
	C109.423,168.251,98.596,171.067,94.358,179.617z"/>
<path style="opacity:0.15;enable-background:new    ;" d="M417.642,179.617l0.906,1.828c8.749,17.649,8.058,38.511-1.841,55.541l0,0
	c-5.572,9.588-18.727,11.272-26.535,3.397l-29.141-29.389c-4.369-4.406-3.682-11.693,1.434-15.205l32.245-22.137
	C402.577,168.251,413.404,171.067,417.642,179.617z"/>
<path style="fill:#FBE067;" d="M377.755,298.786v100.543c-8.191-1.307-17.535-1.224-27.461,0.526
	c-32.324,5.7-58.529,26.854-58.529,47.249s26.204,32.309,58.529,26.609c32.325-5.7,58.529-26.854,58.529-47.249v-93.593
	c0-3.488,2.504-6.472,5.939-7.078l35.611-6.279c7.218-1.273,12.48-7.544,12.48-14.873v-25.212c0-4.159-3.755-7.311-7.852-6.588
	l-65.109,11.48C382.873,285.559,377.755,291.658,377.755,298.786z"/>
<path style="opacity:0.1;enable-background:new    ;" d="M187.04,0h-72.622C99.075,0,85.851,10.797,82.782,25.83L54.796,162.907
	c-8.262,40.466-9.173,82.089-2.691,122.877l31.624,198.994C86.221,500.458,99.742,512,115.618,512h118.159
	C164.51,434.543,138.686,104.546,187.04,0z"/>
<g>
	<path style="fill:#FFFFFF;" d="M187.04,116.595c-4.142,0-7.5-3.357-7.5-7.5V97.647c0-4.143,3.358-7.5,7.5-7.5s7.5,3.357,7.5,7.5
		v11.447C194.54,113.237,191.183,116.595,187.04,116.595z"/>
	<path style="fill:#FFFFFF;" d="M324.96,116.595c-4.142,0-7.5-3.357-7.5-7.5V97.647c0-4.143,3.358-7.5,7.5-7.5s7.5,3.357,7.5,7.5
		v11.447C332.46,113.237,329.102,116.595,324.96,116.595z"/>
	<path style="fill:#FFFFFF;" d="M256,125.385c-9.136,0-17.823-3.956-23.835-10.855c-2.721-3.123-2.396-7.86,0.727-10.582
		s7.86-2.394,10.582,0.727c3.162,3.629,7.728,5.71,12.526,5.71s9.364-2.081,12.526-5.71c2.722-3.122,7.458-3.447,10.582-0.727
		c3.123,2.722,3.448,7.459,0.727,10.582C273.823,121.429,265.136,125.385,256,125.385z"/>
</g>
<g>
</g>
<g>
</g>
<g>
</g>
<g>
</g>
<g>
</g>
<g>
</g>
<g>
</g>
<g>
</g>
<g>
</g>
<g>
</g>
<g>
</g>
<g>
</g>
<g>
</g>
<g>
</g>
<g>
</g>
</svg>
