<?xml version="1.0" encoding="iso-8859-1"?>
<!-- Generator: Adobe Illustrator 19.0.0, SVG Export Plug-In . SVG Version: 6.00 Build 0)  -->
<svg version="1.1" id="Capa_1" xmlns="http://www.w3.org/2000/svg" xmlns:xlink="http://www.w3.org/1999/xlink" x="0px" y="0px"
	 viewBox="0 0 512 512" style="enable-background:new 0 0 512 512;" xml:space="preserve">
<path style="fill:#9B6A57;" d="M67.848,279.272c14.003,14.003,21.055,35.989,24.487,51.697c2.071,9.478-6.358,17.907-15.836,15.836
	c-15.707-3.432-37.694-10.484-51.697-24.487C10.8,308.314,3.748,286.328,0.316,270.62c-2.071-9.478,6.358-17.907,15.836-15.836
	C31.859,258.216,53.846,265.269,67.848,279.272z"/>
<path style="fill:#F3C0CC;" d="M4.563,286.33c4.135,12.66,10.505,26.252,20.241,35.987c14.003,14.003,35.989,21.055,51.697,24.487
	c2.086,0.456,4.112,0.378,5.995-0.082C64.196,291.945,26.282,285.545,4.563,286.33z"/>
<path style="opacity:0.1;enable-background:new    ;" d="M92.336,330.968c-2.963-13.56-8.635-31.789-19.136-45.531
	c-9.712,16.537-17.251,34.495-22.207,53.489c8.897,3.713,17.932,6.223,25.508,7.878C85.978,348.875,94.407,340.447,92.336,330.968z"
	/>
<path style="fill:#9B6A57;" d="M444.151,279.272c-14.003,14.003-21.055,35.989-24.487,51.697
	c-2.071,9.478,6.358,17.907,15.836,15.836c15.707-3.432,37.694-10.484,51.697-24.487s21.055-35.989,24.487-51.697
	c2.071-9.478-6.357-17.907-15.836-15.836C480.141,258.216,458.154,265.269,444.151,279.272z"/>
<path style="fill:#F3C0CC;" d="M507.437,286.33c-4.135,12.66-10.505,26.252-20.241,35.987
	c-14.003,14.003-35.989,21.055-51.697,24.487c-2.086,0.456-4.112,0.378-5.995-0.082C447.804,291.945,485.718,285.545,507.437,286.33
	z"/>
<path style="fill:#9B6A57;" d="M145.088,217.773l9.343,16.008c9.204-6.198,18.883-11.581,28.86-16.425l-9.526-16.32
	c-6.013-10.303-15.214-18.177-25.922-22.675c1.76-4.511,2.824-9.366,3.048-14.438h0.571c29.286,0,53.112-23.826,53.112-53.112
	V83.284c0-9.169-7.433-16.602-16.602-16.602s-16.602,7.433-16.602,16.602v27.527c0,10.978-8.931,19.908-19.908,19.908h-0.519V103.92
	c0-9.169-7.433-16.602-16.602-16.602s-16.602,7.433-16.602,16.602v57.984c0,6.735-5.479,12.214-12.214,12.214h-5.109
	c-6.735,0-12.214-5.479-12.214-12.214v-44.198c0-9.169-7.433-16.602-16.602-16.602s-16.602,7.433-16.602,16.602v44.198
	c0,25.044,20.375,45.419,45.419,45.419h26.474C134.352,207.322,141.325,211.327,145.088,217.773z"/>
<path style="opacity:0.1;enable-background:new    ;" d="M173.765,201.036c-0.608-1.041-1.256-2.051-1.927-3.041
	c-10.365,4.505-20.308,9.804-29.738,15.841c1.134,1.181,2.145,2.494,2.988,3.938l9.343,16.008
	c9.204-6.198,18.883-11.581,28.86-16.425L173.765,201.036z"/>
<path style="fill:#9B6A57;" d="M366.912,217.773l-9.343,16.008c-9.204-6.198-18.883-11.581-28.86-16.425l9.526-16.32
	c6.013-10.303,15.214-18.177,25.922-22.675c-1.76-4.511-2.824-9.366-3.048-14.438h-0.571c-29.286,0-53.112-23.826-53.112-53.112
	V83.284c0-9.169,7.433-16.602,16.602-16.602c9.169,0,16.602,7.433,16.602,16.602v27.527c0,10.978,8.931,19.908,19.908,19.908h0.519
	V103.92c0-9.169,7.433-16.602,16.602-16.602s16.602,7.433,16.602,16.602v57.984c0,6.735,5.479,12.214,12.214,12.214h5.109
	c6.735,0,12.214-5.479,12.214-12.214v-44.198c0-9.169,7.433-16.602,16.602-16.602c9.169,0,16.602,7.433,16.602,16.602v44.198
	c0,25.044-20.375,45.419-45.419,45.419h-26.474C377.648,207.322,370.675,211.327,366.912,217.773z"/>
<path style="opacity:0.1;enable-background:new    ;" d="M419.664,330.968c2.963-13.56,8.635-31.789,19.136-45.531
	c9.712,16.537,17.251,34.495,22.207,53.489c-8.897,3.713-17.932,6.223-25.508,7.878
	C426.022,348.875,417.593,340.447,419.664,330.968z"/>
<path style="opacity:0.1;enable-background:new    ;" d="M338.235,201.036c0.608-1.041,1.256-2.051,1.927-3.041
	c10.365,4.505,20.308,9.804,29.738,15.841c-1.134,1.181-2.145,2.494-2.988,3.938l-9.343,16.008
	c-9.204-6.198-18.883-11.581-28.86-16.425L338.235,201.036z"/>
<path style="fill:#9B6A57;" d="M432.599,445.316c-1.103,0-2.222-0.11-3.345-0.34c-8.983-1.837-14.775-10.61-12.937-19.593
	c2.206-10.782,3.324-21.883,3.324-32.997c0-90.232-73.409-163.641-163.641-163.641S92.359,302.154,92.359,392.386
	c0,11.114,1.119,22.215,3.324,32.997c1.838,8.983-3.954,17.756-12.937,19.593c-8.985,1.846-17.755-3.954-19.593-12.937
	c-2.654-12.967-3.999-26.309-3.999-39.653c0-108.541,88.305-196.846,196.846-196.846s196.846,88.305,196.846,196.846
	c0,13.345-1.345,26.686-3.999,39.653C447.239,439.899,440.322,445.316,432.599,445.316z"/>
<path style="opacity:0.1;fill:#FFFFFF;enable-background:new    ;" d="M432.599,445.316c-1.103,0-2.222-0.11-3.345-0.34
	c-8.983-1.837-14.775-10.61-12.937-19.593c2.206-10.782,3.324-21.883,3.324-32.997c0-90.232-73.409-163.641-163.641-163.641
	S92.359,302.154,92.359,392.386c0,11.114,1.119,22.215,3.324,32.997c1.838,8.983-3.954,17.756-12.937,19.593
	c-8.985,1.846-17.755-3.954-19.593-12.937c-2.654-12.967-3.999-26.309-3.999-39.653c0-108.541,88.305-196.846,196.846-196.846
	s196.846,88.305,196.846,196.846c0,13.345-1.345,26.686-3.999,39.653C447.239,439.899,440.322,445.316,432.599,445.316z"/>
<path style="fill:#E15F76;" d="M256,444.243c27.196,0,49.243-19.176,49.243-42.83c0-18.561-22.047-24.495-49.243-24.495
	s-49.243,5.934-49.243,24.495C206.757,425.067,228.804,444.243,256,444.243z"/>
<path style="opacity:0.1;enable-background:new    ;" d="M229.154,379.609c-13.479,3.313-22.397,10.004-22.397,21.804
	c0,23.654,22.047,42.83,49.243,42.83c5.081,0,9.982-0.67,14.594-1.913C235.692,438.505,226.83,399.011,229.154,379.609z"/>
<g>
</g>
<g>
</g>
<g>
</g>
<g>
</g>
<g>
</g>
<g>
</g>
<g>
</g>
<g>
</g>
<g>
</g>
<g>
</g>
<g>
</g>
<g>
</g>
<g>
</g>
<g>
</g>
<g>
</g>
</svg>
