<?xml version="1.0" encoding="iso-8859-1"?>
<!-- Generator: Adobe Illustrator 19.0.0, SVG Export Plug-In . SVG Version: 6.00 Build 0)  -->
<svg version="1.1" id="Capa_1" xmlns="http://www.w3.org/2000/svg" xmlns:xlink="http://www.w3.org/1999/xlink" x="0px" y="0px"
	 viewBox="0 0 512 512" style="enable-background:new 0 0 512 512;" xml:space="preserve">
<g>
	<path style="fill:#52B4DE;" d="M460.299,427.563c-30.793-24.736-55.034-76.14-32.992-162.111l21.734-36.64
		c-0.249,61.113,7.429,114.795,48.947,132.024c8.501,3.528,11.913,13.796,7.525,21.887l-21.684,39.984
		C479.186,431.268,467.892,433.663,460.299,427.563z"/>
	<path style="fill:#52B4DE;" d="M376.85,503.386c-19.226-38.439-24.77-109.014,14.675-193.327l25.753,1.686
		c-10.029,63.864-3.817,115.67,22.076,145.61c5.894,6.815,5.055,17.119-2.052,22.657l-36.777,28.659
		C392.726,514.747,381.272,512.227,376.85,503.386z"/>
</g>
<path style="fill:#5C626B;" d="M458.475,228.431C458.475,99.48,376.646,0,235.597,0S12.719,99.48,12.719,228.431
	s99.786,240.487,222.878,240.487S458.475,357.382,458.475,228.431z"/>
<path style="fill:#F3C0CC;" d="M331.534,179.855H139.661c-25.285,0-45.783,20.497-45.783,45.782l0,0
	c0,25.285,20.497,45.783,45.783,45.783h191.873c25.285,0,45.783-20.497,45.783-45.783l0,0
	C377.316,200.352,356.819,179.855,331.534,179.855z"/>
<path style="opacity:0.1;enable-background:new    ;" d="M200.152,2.23C80.939,17.55,12.719,110.7,12.719,228.431
	c0,124.803,93.472,233.291,211.078,240.14C102.786,351.803,106.464,97.584,200.152,2.23z"/>
<path style="opacity:0.1;enable-background:new    ;" d="M435.035,117.988H36.159c-11.09,23.401-18.355,49.431-21.556,77.274
	h441.988C453.39,167.419,446.125,141.39,435.035,117.988z"/>
<path style="fill:#52B4DE;" d="M429.988,102.58H41.207c-7.081,0-13.59,3.958-16.789,10.275
	C15.73,130.01,9.153,148.656,4.793,168.461c-1.288,5.848,3.167,11.394,9.155,11.394h443.297c5.988,0,10.443-5.546,9.155-11.394
	c-4.36-19.805-10.937-38.45-19.625-55.605C443.578,106.538,437.069,102.58,429.988,102.58z"/>
<path style="opacity:0.1;enable-background:new    ;" d="M139.659,102.58H41.207c-7.081,0-13.59,3.958-16.789,10.275
	C15.73,130.01,9.153,148.656,4.793,168.461c-1.287,5.848,3.167,11.394,9.155,11.394h112.515
	C116.955,158.382,119.458,119.767,139.659,102.58z"/>
<g style="opacity:0.1;">
	<path d="M155.902,136.046h-28.486c-4.143,0-7.5-3.357-7.5-7.5c0-4.143,3.357-7.5,7.5-7.5h28.486c4.143,0,7.5,3.357,7.5,7.5
		C163.402,132.689,160.045,136.046,155.902,136.046z"/>
	<path d="M155.902,159.879H93.878c-4.142,0-7.5-3.357-7.5-7.5s3.358-7.5,7.5-7.5h62.024c4.143,0,7.5,3.357,7.5,7.5
		C163.402,156.521,160.045,159.879,155.902,159.879z"/>
	<path d="M343.778,136.046h-28.486c-4.143,0-7.5-3.357-7.5-7.5c0-4.143,3.357-7.5,7.5-7.5h28.486c4.143,0,7.5,3.357,7.5,7.5
		C351.278,132.689,347.921,136.046,343.778,136.046z"/>
	<path d="M377.316,159.879h-62.024c-4.143,0-7.5-3.357-7.5-7.5s3.357-7.5,7.5-7.5h62.024c4.143,0,7.5,3.357,7.5,7.5
		C384.816,156.521,381.459,159.879,377.316,159.879z"/>
</g>
<path style="fill:#DFE0E0;" d="M292.949,85.579H178.246c-12.34,0-22.343,10.003-22.343,22.343v49.589
	c0,12.34,10.003,22.343,22.343,22.343h114.703c12.34,0,22.343-10.003,22.343-22.343v-49.589
	C315.292,95.582,305.289,85.579,292.949,85.579z"/>
<g>
	<path style="fill:#494F57;" d="M153.339,237.936c-4.143,0-7.5-3.357-7.5-7.5v-13.654c0-4.143,3.357-7.5,7.5-7.5s7.5,3.357,7.5,7.5
		v13.654C160.839,234.578,157.481,237.936,153.339,237.936z"/>
	<path style="fill:#494F57;" d="M317.855,237.936c-4.143,0-7.5-3.357-7.5-7.5v-13.654c0-4.143,3.357-7.5,7.5-7.5s7.5,3.357,7.5,7.5
		v13.654C325.355,234.578,321.998,237.936,317.855,237.936z"/>
	<path style="fill:#494F57;" d="M235.597,248.421c-10.479,0-20.443-4.539-27.341-12.452c-2.722-3.123-2.396-7.86,0.727-10.582
		c3.122-2.721,7.859-2.396,10.582,0.727c4.047,4.645,9.891,7.308,16.032,7.308s11.986-2.663,16.033-7.308
		c2.722-3.123,7.459-3.448,10.582-0.727c3.123,2.722,3.448,7.459,0.727,10.582C256.041,243.882,246.076,248.421,235.597,248.421z"/>
</g>
<path style="opacity:0.1;enable-background:new    ;" d="M198.296,85.579h-20.05c-12.34,0-22.343,10.003-22.343,22.343v49.589
	c0,12.34,10.003,22.343,22.343,22.343h75.665L198.296,85.579z"/>
<g>
</g>
<g>
</g>
<g>
</g>
<g>
</g>
<g>
</g>
<g>
</g>
<g>
</g>
<g>
</g>
<g>
</g>
<g>
</g>
<g>
</g>
<g>
</g>
<g>
</g>
<g>
</g>
<g>
</g>
</svg>
