<?xml version="1.0" encoding="iso-8859-1"?>
<!-- Generator: Adobe Illustrator 19.0.0, SVG Export Plug-In . SVG Version: 6.00 Build 0)  -->
<svg version="1.1" id="Capa_1" xmlns="http://www.w3.org/2000/svg" xmlns:xlink="http://www.w3.org/1999/xlink" x="0px" y="0px"
	 viewBox="0 0 512 512" style="enable-background:new 0 0 512 512;" xml:space="preserve">
<path style="fill:#E15F76;" d="M91.71,150.343C41.016,113.075,43.537,49.585,59.913,6.01c2.867-7.628,13.54-8.109,17.122-0.79
	c20.002,40.875,53.729,69.153,100.28,82.407L91.71,150.343z"/>
<path style="opacity:0.1;enable-background:new    ;" d="M91.71,150.343C41.016,113.075,43.537,49.585,59.913,6.01
	c2.867-7.628,13.54-8.109,17.122-0.79c20.002,40.875,53.729,69.153,100.28,82.407L91.71,150.343z"/>
<path style="opacity:0.1;enable-background:new    ;" d="M67.254,0.118c-3.126,0.455-6.039,2.429-7.341,5.892
	C43.537,49.585,41.016,113.075,91.71,150.343l27.318-20.013C78.207,104.343,66.447,30.551,67.254,0.118z"/>
<path style="fill:#E15F76;" d="M420.292,150.343c50.694-37.268,48.173-100.758,31.797-144.333c-2.867-7.628-13.54-8.109-17.122-0.79
	c-20.002,40.875-53.73,69.153-100.28,82.407L420.292,150.343z"/>
<path style="opacity:0.1;enable-background:new    ;" d="M420.292,150.343c50.694-37.268,48.173-100.758,31.797-144.333
	c-2.867-7.628-13.54-8.109-17.122-0.79c-20.002,40.875-53.73,69.153-100.28,82.407L420.292,150.343z"/>
<g>
	<path style="fill:#E15F76;" d="M453.57,334.041c-1.024,0-2.063-0.102-3.106-0.316c-8.34-1.706-13.718-9.851-12.011-18.191
		c2.51-12.27,3.783-24.903,3.783-37.55c0-102.69-83.545-186.234-186.235-186.234S69.766,175.294,69.766,277.984
		c0,12.647,1.273,25.28,3.783,37.55c1.707,8.34-3.671,16.485-12.011,18.191c-8.343,1.713-16.484-3.671-18.191-12.011
		c-2.926-14.299-4.41-29.012-4.41-43.73c0-119.688,97.374-217.063,217.063-217.063s217.063,97.374,217.063,217.063
		c0,14.718-1.483,29.43-4.409,43.73C467.162,329.011,460.739,334.041,453.57,334.041z"/>
	<path style="fill:#E15F76;" d="M405.381,281.065c-6.019-6.019-15.779-6.019-21.799,0l-43.758,43.758
		c-7.524,7.524-17.529,11.669-28.169,11.669c-10.641,0-20.646-4.145-28.169-11.669l-3.314-3.314l71.927-71.927
		c6.02-6.019,6.02-15.78,0-21.799c-6.019-6.021-15.779-6.019-21.799,0l-71.927,71.927l-3.314-3.314
		c-7.524-7.524-11.668-17.529-11.668-28.169c0-10.641,4.144-20.646,11.668-28.17l43.758-43.758c6.02-6.019,6.02-15.78,0-21.799
		c-6.019-6.019-15.779-6.019-21.799,0l-43.758,43.758c-13.347,13.347-20.698,31.092-20.698,49.969
		c0,18.875,7.35,36.621,20.697,49.967l3.314,3.315L117.691,440.391c-6.02,6.019-6.02,15.78,0,21.799
		c3.01,3.011,6.954,4.515,10.899,4.515c3.944,0,7.89-1.505,10.899-4.515l118.883-118.883l3.314,3.314
		c13.347,13.348,31.093,20.699,49.969,20.699s36.622-7.351,49.969-20.699l43.758-43.758
		C411.401,296.844,411.401,287.084,405.381,281.065z"/>
</g>
<path style="fill:#9B6A57;" d="M93.572,512c-6.575,0-13.149-2.508-18.166-7.524c-10.033-10.032-10.033-26.299,0-36.332
	l43.311-43.311c10.033-10.033,26.298-10.033,36.332,0c10.033,10.032,10.033,26.299,0,36.332l-43.311,43.311
	C106.721,509.492,100.146,512,93.572,512z"/>
<path style="opacity:0.1;enable-background:new    ;" d="M99.04,444.51l-23.634,23.634c-10.033,10.032-10.033,26.299,0,36.332
	C80.423,509.492,86.997,512,93.572,512s13.149-2.508,18.166-7.524l4.371-4.371C100.74,495.543,94.379,467.226,99.04,444.51z"/>
<g>
</g>
<g>
</g>
<g>
</g>
<g>
</g>
<g>
</g>
<g>
</g>
<g>
</g>
<g>
</g>
<g>
</g>
<g>
</g>
<g>
</g>
<g>
</g>
<g>
</g>
<g>
</g>
<g>
</g>
</svg>
