<?xml version="1.0" encoding="iso-8859-1"?>
<!-- Generator: Adobe Illustrator 19.0.0, SVG Export Plug-In . SVG Version: 6.00 Build 0)  -->
<svg version="1.1" id="Capa_1" xmlns="http://www.w3.org/2000/svg" xmlns:xlink="http://www.w3.org/1999/xlink" x="0px" y="0px"
	 viewBox="0 0 512 512" style="enable-background:new 0 0 512 512;" xml:space="preserve">
<path style="fill:#FFE78C;" d="M11.94,220.297c53.87,7.999,100.427,41.43,113.623,55.379l24.626-78.923
	c-13.283-14.042-60.374-47.826-114.7-55.536c-8.757-1.243-17.11,4.117-19.745,12.56L0.647,202.163
	C-1.92,210.389,3.417,219.031,11.94,220.297z"/>
<path id="SVGCleanerId_0" style="fill:#FFE78C;" d="M512,239.846c0-103.66-69.345-195.484-214.054-195.484
	S83.891,136.186,83.891,239.846s58.721,227.793,214.055,227.793S512,343.506,512,239.846z"/>
<g>
	<path id="SVGCleanerId_0_1_" style="fill:#FFE78C;" d="M512,239.846c0-103.66-69.345-195.484-214.054-195.484
		S83.891,136.186,83.891,239.846s58.721,227.793,214.055,227.793S512,343.506,512,239.846z"/>
</g>
<path style="opacity:0.13;enable-background:new    ;" d="M176.709,72.818c-37.225,20.895-63.053,51.853-77.839,87.984
	l301.253-53.144L176.709,72.818z"/>
<path style="opacity:0.13;enable-background:new    ;" d="M84.45,223.992c-0.366,5.247-0.559,10.534-0.559,15.854
	c0,29.681,4.826,61.038,15.344,90.682l386.793,25.303c16.068-32.77,24.176-69.14,25.696-103.888L84.45,223.992z"/>
<path style="opacity:0.05;enable-background:new    ;" d="M418.059,351.385L127.38,385.449
	c33.747,47.745,88.749,82.19,170.565,82.19c97.942,0,157.462-49.356,188.083-111.808L418.059,351.385z"/>
<path style="fill:#5C626B;" d="M504.102,181.4H91.789c-5.272,18.648-7.898,38.322-7.898,58.447c0,5.337,0.165,10.729,0.481,16.154
	h427.146c0.316-5.425,0.481-10.818,0.481-16.154C512,219.721,509.374,200.047,504.102,181.4z"/>
<path style="opacity:0.05;enable-background:new    ;" d="M453.993,98.155L98.869,160.802c-2.741,6.698-5.095,13.576-7.08,20.598
	h412.313C495.145,149.715,478.513,121.012,453.993,98.155z"/>
<path style="opacity:0.05;enable-background:new    ;" d="M239.275,50.02C134.446,71.492,83.891,151.349,83.891,239.846
	c0,103.188,58.202,226.645,211.954,227.767C161.239,393.175,183.821,142.266,239.275,50.02z"/>
<g>
	<path style="fill:#FFFFFF;" d="M249.123,237.501c-4.142,0-7.5-3.357-7.5-7.5c0-9.539-7.76-17.3-17.299-17.3s-17.3,7.761-17.3,17.3
		c0,4.143-3.358,7.5-7.5,7.5s-7.5-3.357-7.5-7.5c0-17.811,14.49-32.3,32.3-32.3s32.299,14.489,32.299,32.3
		C256.623,234.144,253.266,237.501,249.123,237.501z"/>
	<path style="fill:#FFFFFF;" d="M413.884,237.501c-4.142,0-7.5-3.357-7.5-7.5c0-9.539-7.76-17.3-17.299-17.3s-17.3,7.761-17.3,17.3
		c0,4.143-3.358,7.5-7.5,7.5s-7.5-3.357-7.5-7.5c0-17.811,14.49-32.3,32.3-32.3s32.299,14.489,32.299,32.3
		C421.384,234.144,418.026,237.501,413.884,237.501z"/>
</g>
<g>
</g>
<g>
</g>
<g>
</g>
<g>
</g>
<g>
</g>
<g>
</g>
<g>
</g>
<g>
</g>
<g>
</g>
<g>
</g>
<g>
</g>
<g>
</g>
<g>
</g>
<g>
</g>
<g>
</g>
</svg>
