<?xml version="1.0" encoding="iso-8859-1"?>
<!-- Generator: Adobe Illustrator 19.0.0, SVG Export Plug-In . SVG Version: 6.00 Build 0)  -->
<svg version="1.1" id="Capa_1" xmlns="http://www.w3.org/2000/svg" xmlns:xlink="http://www.w3.org/1999/xlink" x="0px" y="0px"
	 viewBox="0 0 512 512" style="enable-background:new 0 0 512 512;" xml:space="preserve">
<path style="fill:#F3C0CC;" d="M370.572,436.205L370.572,436.205c35.917,0,65.034-29.117,65.034-65.034v-55.962
	c0-11.422-12.783-18.185-22.226-11.759l-56.95,38.759c-7.959,5.416-12.722,14.42-12.722,24.047v43.085
	C343.707,424.178,355.735,436.205,370.572,436.205z"/>
<path style="opacity:0.05;enable-background:new    ;" d="M423.992,333.29c4.277,0.524,8.209,2.439,11.614,5.452v32.43
	c0,35.917-29.117,65.034-65.034,65.034l0,0c-14.837,0-26.865-12.028-26.865-26.865v-24.643
	C365.759,357.345,407.467,331.267,423.992,333.29z"/>
<path style="opacity:0.1;enable-background:new    ;" d="M399.827,368.819c4.003-1.066,8.113,1.309,9.182,5.311
	c1.068,4.002-1.309,8.112-5.311,9.181c-20.85,5.568-40.039,22.047-52.435,44.697c-4.24-4.385-6.997-10.207-7.473-16.666
	C358.044,389.844,377.77,374.71,399.827,368.819z"/>
<path style="fill:#F3C0CC;" d="M65.034,436.205L65.034,436.205C29.117,436.205,0,407.089,0,371.172v-55.963
	c0-11.422,12.783-18.185,22.226-11.759l56.951,38.758c7.959,5.416,12.722,14.42,12.722,24.047v43.085
	C91.899,424.178,79.871,436.205,65.034,436.205z"/>
<path style="opacity:0.05;enable-background:new    ;" d="M11.614,333.29c-4.277,0.524-8.209,2.439-11.614,5.452v32.43
	c0,35.917,29.117,65.034,65.034,65.034l0,0c14.837,0,26.865-12.028,26.865-26.865v-24.643
	C69.847,357.345,28.139,331.267,11.614,333.29z"/>
<path style="opacity:0.1;enable-background:new    ;" d="M35.779,368.819c-4.003-1.066-8.113,1.309-9.182,5.311
	c-1.068,4.002,1.309,8.112,5.31,9.181c20.85,5.568,40.039,22.047,52.435,44.697c4.24-4.385,6.997-10.207,7.473-16.666
	C77.562,389.844,57.836,374.71,35.779,368.819z"/>
<path style="fill:#FBE067;" d="M349.842,263.902H85.764c-13.839,0-25.057,11.219-25.057,25.057v35.782
	c0,13.839,11.219,25.057,25.057,25.057h264.078c13.839,0,25.057-11.218,25.057-25.057v-35.782
	C374.9,275.12,363.681,263.902,349.842,263.902z"/>
<path style="opacity:0.1;enable-background:new    ;" d="M136.014,263.902h-50.25c-13.839,0-25.057,11.219-25.057,25.057v35.782
	c0,13.839,11.219,25.057,25.057,25.057h59.482C130.996,328.384,130.807,285.157,136.014,263.902z"/>
<path style="fill:#64D19B;" d="M301.042,75.793c-108.087,0-196.869,82.594-206.711,188.109h246.944
	c0-53.866,36.299-99.248,85.769-113.032c12.43-3.463,15.797-19.647,5.834-27.846C397.023,93.515,351.104,75.793,301.042,75.793z"/>
<path style="opacity:0.1;enable-background:new    ;" d="M252.628,81.474c-85.18,20.348-149.973,93.187-158.297,182.427h83.179
	C171.666,220.093,179.596,123.649,252.628,81.474z"/>
<path style="fill:#FBE067;" d="M459.518,100.782L459.518,100.782c21.951-11.54,47.606,7.099,43.413,31.542l0,0l0,0
	c17.759,17.31,7.959,47.469-16.583,51.036l0,0l0,0c-10.975,22.238-42.687,22.238-53.662,0l0,0l0,0
	c-24.542-3.566-34.341-33.726-16.582-51.036l0,0l0,0C411.912,107.881,437.567,89.242,459.518,100.782L459.518,100.782z"/>
<path style="opacity:0.1;enable-background:new    ;" d="M443.089,170.866c-11.582-4.962-14.562-20.425-9.679-33.476
	c0.715-1.911,0.669-4.035-0.206-5.879c-3.918-8.263-1.385-29.533,11.575-34.217c-17.096,0.477-31.941,15.99-28.675,35.029l0,0
	c-17.759,17.31-7.959,47.469,16.582,51.036l0,0l0,0c8.499,17.221,29.427,21.095,43.537,11.645
	c-16.246,1.186-26.904-11.117-29.332-19.665C446.332,173.364,444.976,171.675,443.089,170.866z"/>
<g>
	<path style="fill:#494F57;" d="M154.654,315.566c-4.143,0-7.5-3.358-7.5-7.5v-10.482c0-4.142,3.357-7.5,7.5-7.5s7.5,3.358,7.5,7.5
		v10.482C162.154,312.209,158.797,315.566,154.654,315.566z"/>
	<path style="fill:#494F57;" d="M280.951,315.566c-4.143,0-7.5-3.358-7.5-7.5v-10.482c0-4.142,3.357-7.5,7.5-7.5s7.5,3.358,7.5,7.5
		v10.482C288.451,312.209,285.094,315.566,280.951,315.566z"/>
	<path style="fill:#494F57;" d="M217.803,323.616c-8.549,0-16.678-3.702-22.303-10.157c-2.722-3.123-2.395-7.86,0.727-10.582
		c3.122-2.721,7.86-2.396,10.582,0.727c2.775,3.185,6.783,5.012,10.994,5.012s8.219-1.827,10.996-5.013
		c2.721-3.123,7.459-3.447,10.581-0.726c3.123,2.722,3.447,7.46,0.726,10.582C234.48,319.914,226.351,323.616,217.803,323.616z"/>
</g>
<g>
</g>
<g>
</g>
<g>
</g>
<g>
</g>
<g>
</g>
<g>
</g>
<g>
</g>
<g>
</g>
<g>
</g>
<g>
</g>
<g>
</g>
<g>
</g>
<g>
</g>
<g>
</g>
<g>
</g>
</svg>
