<?xml version="1.0" encoding="iso-8859-1"?>
<!-- Generator: Adobe Illustrator 19.0.0, SVG Export Plug-In . SVG Version: 6.00 Build 0)  -->
<svg version="1.1" id="Capa_1" xmlns="http://www.w3.org/2000/svg" xmlns:xlink="http://www.w3.org/1999/xlink" x="0px" y="0px"
	 viewBox="0 0 512 512" style="enable-background:new 0 0 512 512;" xml:space="preserve">
<path style="fill:#E15F76;" d="M255.954,0c-81.721,0-151.115,52.748-176.01,126.052c-1.885,5.549,3.43,10.863,8.956,8.91
	c61.132-21.599,119.515-2.539,123.374,44.086h229.392C438.085,79.559,356.318,0,255.954,0z"/>
<path style="opacity:0.05;enable-background:new    ;" d="M169.624,89.524c-34.242,5.25-45.638-22.186-39.231-40.686
	c-22.757,20.869-40.301,47.333-50.449,77.214c-1.885,5.549,3.43,10.863,8.956,8.91c61.132-21.599,119.516-2.539,123.374,44.086
	h75.908C280.78,83.354,212.208,82.995,169.624,89.524z"/>
<path style="fill:#DFE0E0;" d="M443.594,218.59H202.401c-14.084,0-25.502-11.418-25.502-25.502V182.6
	c0-14.084,11.418-25.502,25.502-25.502h241.193c14.084,0,25.502,11.417,25.502,25.502v10.489
	C469.095,207.173,457.678,218.59,443.594,218.59z"/>
<path id="SVGCleanerId_0" style="fill:#DFE0E0;" d="M81.768,169.628L81.768,169.628c-8.996,4.167-19.559-0.92-21.91-10.551l0,0
	c-1.097-4.493-4.114-8.277-8.251-10.346l0,0c-8.867-4.436-11.476-15.865-5.411-23.708l0,0c2.829-3.659,3.906-8.377,2.945-12.901l0,0
	c-2.061-9.698,5.249-18.864,15.162-19.013l0,0c4.625-0.069,8.985-2.169,11.922-5.741l0,0c6.298-7.658,18.021-7.658,24.318,0l0,0
	c2.938,3.572,7.298,5.672,11.922,5.741l0,0c9.914,0.149,17.223,9.315,15.162,19.013l0,0c-0.961,4.524,0.116,9.242,2.945,12.901l0,0
	c6.064,7.844,3.456,19.273-5.411,23.708l0,0c-4.137,2.069-7.154,5.853-8.251,10.346l0,0c-2.351,9.632-12.913,14.718-21.91,10.551
	l0,0C90.804,167.684,85.965,167.684,81.768,169.628z"/>
<g>
	<path id="SVGCleanerId_0_1_" style="fill:#DFE0E0;" d="M81.768,169.628L81.768,169.628c-8.996,4.167-19.559-0.92-21.91-10.551l0,0
		c-1.097-4.493-4.114-8.277-8.251-10.346l0,0c-8.867-4.436-11.476-15.865-5.411-23.708l0,0c2.829-3.659,3.906-8.377,2.945-12.901
		l0,0c-2.061-9.698,5.249-18.864,15.162-19.013l0,0c4.625-0.069,8.985-2.169,11.922-5.741l0,0c6.298-7.658,18.021-7.658,24.318,0
		l0,0c2.938,3.572,7.298,5.672,11.922,5.741l0,0c9.914,0.149,17.223,9.315,15.162,19.013l0,0c-0.961,4.524,0.116,9.242,2.945,12.901
		l0,0c6.064,7.844,3.456,19.273-5.411,23.708l0,0c-4.137,2.069-7.154,5.853-8.251,10.346l0,0
		c-2.351,9.632-12.913,14.718-21.91,10.551l0,0C90.804,167.684,85.965,167.684,81.768,169.628z"/>
</g>
<path style="fill:#DFE0E0;" d="M406.192,283.396c-7.14-0.667-14.029,0.013-20.457,1.803c-5.208,1.451-10.834,0.5-15.116-2.8
	c-14.221-10.962-32.031-17.492-51.375-17.492s-37.154,6.53-51.375,17.492c-4.282,3.301-9.908,4.251-15.117,2.8
	c-6.425-1.789-13.311-2.47-20.447-1.804c-27.449,2.559-49.213,25.11-50.843,52.63c-1.22,20.596,8.643,38.968,24.18,49.73
	c4.258,2.95,7.058,7.625,7.728,12.762c3.408,26.134,19.219,48.36,41.339,60.583c7.15,3.951,12.616,10.359,15.329,18.065
	C277.18,497.455,296.51,512,319.243,512c22.733,0,42.063-14.544,49.205-34.835c2.713-7.706,8.178-14.114,15.329-18.065
	c22.121-12.224,37.931-34.45,41.339-60.585c0.67-5.135,3.469-9.81,7.727-12.759c15.535-10.76,25.397-29.128,24.182-49.721
	C455.401,308.515,433.641,285.96,406.192,283.396z"/>
<g>
	<path style="fill:#494F57;" d="M252.139,263.853c-4.143,0-7.5-3.358-7.5-7.5v-11.14c0-4.142,3.357-7.5,7.5-7.5
		c4.143,0,7.5,3.358,7.5,7.5v11.14C259.639,260.495,256.281,263.853,252.139,263.853z"/>
	<path style="fill:#494F57;" d="M386.35,263.853c-4.143,0-7.5-3.358-7.5-7.5v-11.14c0-4.142,3.357-7.5,7.5-7.5s7.5,3.358,7.5,7.5
		v11.14C393.85,260.495,390.492,263.853,386.35,263.853z"/>
	<path style="fill:#494F57;" d="M319.244,329.659c-8.948,0-17.458-3.875-23.347-10.632c-2.722-3.123-2.396-7.86,0.727-10.582
		c3.121-2.721,7.859-2.396,10.582,0.727c3.039,3.488,7.427,5.488,12.038,5.488c4.61,0,8.998-2,12.039-5.488
		c2.721-3.124,7.46-3.447,10.581-0.726c3.123,2.722,3.447,7.46,0.725,10.582C336.7,325.784,328.191,329.659,319.244,329.659z"/>
</g>
<path style="opacity:0.05;enable-background:new    ;" d="M299.876,443.11c-7.964-2.456-29.969-15.953-24.791-50.042
	s-17.179-34.372-16.435-63.035c0.696-26.842,11.006-44.938,21.586-55.54c-4.358,2.284-8.499,4.924-12.367,7.906
	c-4.282,3.301-9.908,4.251-15.117,2.8c-6.425-1.789-13.31-2.47-20.447-1.804c-27.449,2.559-49.213,25.11-50.843,52.63
	c-1.22,20.597,8.643,38.968,24.18,49.73c4.258,2.95,7.058,7.625,7.728,12.762c3.408,26.134,19.219,48.36,41.339,60.583
	c7.15,3.951,12.616,10.359,15.329,18.065C277.18,497.455,296.51,512,319.243,512c17.774,0,33.467-8.892,42.882-22.468
	C318.992,487.596,324.25,450.629,299.876,443.11z"/>
<path style="opacity:0.05;enable-background:new    ;" d="M288.875,157.098h-86.474c-14.084,0-25.502,11.418-25.502,25.502v10.489
	c0,14.084,11.418,25.502,25.502,25.502h89.393C265.615,207.827,265.951,166.268,288.875,157.098z"/>
<path style="opacity:0.05;enable-background:new    ;" d="M74.78,140.822c-8.38-5.048-9.42-18.331-2.778-29.755
	c5.684-9.776,3.647-15.659-0.832-19.666c-2.108,1.067-4.448,1.671-6.867,1.707c-9.913,0.149-17.223,9.315-15.162,19.013l0,0
	c0.961,4.524-0.116,9.242-2.945,12.901c-6.064,7.844-3.456,19.273,5.411,23.708c4.137,2.069,7.154,5.853,8.251,10.346l0,0
	c2.351,9.632,12.913,14.718,21.91,10.551c1.05-0.487,2.141-0.851,3.252-1.094C92.03,157.765,82.537,145.495,74.78,140.822z"/>
<g>
</g>
<g>
</g>
<g>
</g>
<g>
</g>
<g>
</g>
<g>
</g>
<g>
</g>
<g>
</g>
<g>
</g>
<g>
</g>
<g>
</g>
<g>
</g>
<g>
</g>
<g>
</g>
<g>
</g>
</svg>
