<?xml version="1.0" encoding="iso-8859-1"?>
<!-- Generator: Adobe Illustrator 19.0.0, SVG Export Plug-In . SVG Version: 6.00 Build 0)  -->
<svg version="1.1" id="Capa_1" xmlns="http://www.w3.org/2000/svg" xmlns:xlink="http://www.w3.org/1999/xlink" x="0px" y="0px"
	 viewBox="0 0 512 512" style="enable-background:new 0 0 512 512;" xml:space="preserve">
<path style="fill:#52B4DE;" d="M256,361.044c0,116.491,21.945,144.279,64.511,150.81c6.685,1.026,12.996-3.456,14.317-10.089
	C340.727,472.155,343.285,409.048,256,361.044z"/>
<path style="opacity:0.1;enable-background:new    ;" d="M283.759,428.616c-3.002,0-5.836-1.815-6.991-4.781l-21.613-55.513
	c-1.503-3.86,0.408-8.208,4.268-9.71c3.859-1.504,8.206,0.408,9.71,4.268l21.613,55.513c1.503,3.86-0.408,8.207-4.269,9.71
	C285.584,428.451,284.663,428.616,283.759,428.616z"/>
<path style="fill:#DFE0E0;" d="M382.53,126.53C382.53,56.649,325.88,0,256,0S129.47,56.649,129.47,126.53H382.53z"/>
<path style="opacity:0.05;enable-background:new    ;" d="M234.415,1.842C174.818,12.086,129.47,64.009,129.47,126.53h76.096
	C181.942,74.284,207.763,28.978,234.415,1.842z"/>
<path style="fill:#DFE0E0;" d="M416.13,106.057H95.87c-7.13,0-11.907,7.328-9.031,13.851l21.54,48.853
	c3.549,8.05,11.517,13.244,20.315,13.244h254.61c8.798,0,16.765-5.195,20.315-13.244l21.54-48.853
	C428.037,113.384,423.259,106.057,416.13,106.057z"/>
<path style="fill:#52B4DE;" d="M416.13,106.057H95.87c-7.13,0-11.907,7.328-9.031,13.851l7.47,16.942h323.38l7.47-16.942
	C428.037,113.384,423.259,106.057,416.13,106.057z"/>
<path style="opacity:0.05;enable-background:new    ;" d="M149.749,106.057H95.87c-7.13,0-11.907,7.328-9.031,13.851l21.54,48.853
	c3.549,8.05,11.517,13.244,20.315,13.244h37.74C153.065,160.692,148.148,125.273,149.749,106.057z"/>
<g>
	<path style="fill:#52B4DE;" d="M256,344.475c37.842-7.303,61.69-53.018,72.142-79.263c2.619-6.577,8.968-10.892,16.047-10.892
		h78.771c8.259,0,13.807,8.464,10.505,16.034C418.478,304.708,371.544,379.546,256,344.475z"/>
	<path style="fill:#52B4DE;" d="M256,361.044c0,116.491-21.945,144.279-64.511,150.81c-6.685,1.026-12.996-3.456-14.317-10.089
		C171.273,472.155,168.715,409.048,256,361.044z"/>
</g>
<path style="opacity:0.1;enable-background:new    ;" d="M228.241,428.616c-0.905,0-1.825-0.165-2.719-0.513
	c-3.86-1.502-5.771-5.85-4.268-9.71l21.613-55.513c1.502-3.86,5.849-5.771,9.71-4.268c3.86,1.503,5.771,5.85,4.268,9.71
	l-21.613,55.513C234.078,426.801,231.243,428.616,228.241,428.616z"/>
<path style="fill:#52B4DE;" d="M256,344.475c-37.842-7.303-61.69-53.018-72.142-79.263c-2.619-6.577-8.968-10.892-16.047-10.892
	H89.04c-8.258,0-13.807,8.464-10.505,16.034C93.523,304.708,140.456,379.546,256,344.475z"/>
<path style="opacity:0.05;enable-background:new    ;" d="M120.026,254.321H89.04c-8.258,0-13.807,8.464-10.505,16.034
	c14.23,32.618,57.269,101.72,160.483,78.6C163.609,349.159,124.568,285.362,120.026,254.321z"/>
<path style="fill:#DFE0E0;" d="M270.546,337.474h-29.091c-2.579,0-4.78,1.865-5.203,4.409l-4.107,24.695
	c-0.535,3.214,1.944,6.14,5.203,6.14h37.306c3.258,0,5.737-2.925,5.203-6.14l-4.107-24.695
	C275.325,339.339,273.125,337.474,270.546,337.474z"/>
<g>
	<path style="fill:#494F57;" d="M208.332,68.971c-4.142,0-7.5-3.358-7.5-7.5v-8.13c0-4.142,3.358-7.5,7.5-7.5s7.5,3.358,7.5,7.5
		v8.13C215.832,65.613,212.474,68.971,208.332,68.971z"/>
	<path style="fill:#494F57;" d="M303.668,68.971c-4.143,0-7.5-3.358-7.5-7.5v-8.13c0-4.142,3.357-7.5,7.5-7.5
		c4.142,0,7.5,3.358,7.5,7.5v8.13C311.168,65.613,307.811,68.971,303.668,68.971z"/>
	<path style="fill:#494F57;" d="M256.5,81.415L256.5,81.415c-7.579,0-13.723-6.144-13.723-13.723v-9.977
		c0-2.069,1.677-3.746,3.746-3.746h19.954c2.069,0,3.746,1.677,3.746,3.746v9.977C270.224,75.271,264.08,81.415,256.5,81.415z"/>
</g>
<g>
</g>
<g>
</g>
<g>
</g>
<g>
</g>
<g>
</g>
<g>
</g>
<g>
</g>
<g>
</g>
<g>
</g>
<g>
</g>
<g>
</g>
<g>
</g>
<g>
</g>
<g>
</g>
<g>
</g>
</svg>
