<?xml version="1.0" encoding="iso-8859-1"?>
<!-- Generator: Adobe Illustrator 19.0.0, SVG Export Plug-In . SVG Version: 6.00 Build 0)  -->
<svg version="1.1" id="Capa_1" xmlns="http://www.w3.org/2000/svg" xmlns:xlink="http://www.w3.org/1999/xlink" x="0px" y="0px"
	 viewBox="0 0 512 512" style="enable-background:new 0 0 512 512;" xml:space="preserve">
<path style="fill:#FFE78C;" d="M306.824,6.119c-6.074,0-11.825,1.383-16.956,3.85C282.109,3.737,272.26,0,261.533,0
	c-11.546,0-22.077,4.327-30.076,11.44c-5.789-3.377-12.517-5.321-19.703-5.321c-21.634,0-39.172,17.538-39.172,39.171
	c0,21.634,17.538,39.171,39.172,39.171c7.186,0,13.913-1.944,19.703-5.321c7.999,7.112,18.53,11.44,30.076,11.44
	c10.727,0,20.576-3.737,28.335-9.97c5.131,2.467,10.882,3.851,16.956,3.851c21.634,0,39.171-17.538,39.171-39.171
	C345.995,23.657,328.458,6.119,306.824,6.119z"/>
<path style="fill:#64D19B;" d="M380.059,426.372l-25.531,48.414H157.473l-25.531-48.414c-4.611-8.744-7.021-18.48-7.021-28.366
	V159.284c0-9.885,2.41-19.622,7.021-28.366l25.531-48.414h197.053l25.531,48.414c4.611,8.744,7.021,18.48,7.021,28.366v238.722
	C387.079,407.892,384.669,417.628,380.059,426.372z"/>
<path style="fill:#5C626B;" d="M256,157.436L256,157.436c-34.388,0-62.265,27.877-62.265,62.265V337.59
	c0,34.388,27.877,62.265,62.264,62.265l0,0c34.388,0,62.264-27.877,62.264-62.265V219.701
	C318.266,185.313,290.388,157.436,256,157.436z"/>
<path style="fill:#FFE78C;" d="M256,373.029c-19.541,0-35.439-15.898-35.439-35.439V219.701c0-19.541,15.898-35.439,35.439-35.439
	s35.439,15.898,35.439,35.439v117.888C291.439,357.13,275.541,373.029,256,373.029z"/>
<g>
	<path style="fill:#E6E7E8;" d="M359.835,45.29h-207.67c-10.276,0-18.607,8.331-18.607,18.607l0,0
		c0,10.276,8.331,18.607,18.607,18.607h207.67c10.276,0,18.607-8.331,18.607-18.607l0,0C378.442,53.621,370.111,45.29,359.835,45.29
		z"/>
	<path style="fill:#E6E7E8;" d="M359.835,474.786h-207.67c-10.276,0-18.607,8.331-18.607,18.607l0,0
		c0,10.276,8.331,18.607,18.607,18.607h207.67c10.276,0,18.607-8.331,18.607-18.607l0,0
		C378.442,483.117,370.111,474.786,359.835,474.786z"/>
</g>
<path style="fill:#FFFFFF;" d="M348.417,248.095H163.583c-5.551,0-10.051,4.5-10.051,10.051v40.998
	c0,5.551,4.5,10.051,10.051,10.051h184.833c5.551,0,10.051-4.5,10.051-10.051v-40.998
	C358.468,252.595,353.968,248.095,348.417,248.095z"/>
<path style="opacity:0.1;enable-background:new    ;" d="M354.527,82.504H157.473l-25.531,48.414
	c-4.611,8.744-7.021,18.48-7.021,28.366v238.722c0,9.885,2.41,19.622,7.021,28.366l25.531,48.414h91.21
	c-84.466-92.82-68.156-287.419-53.514-369.626h87.091v2.136c0,13.566,10.997,24.563,24.563,24.563
	c13.566,0,24.563-10.997,24.563-24.563v-2.136h35.087L354.527,82.504z"/>
<path style="fill:#FFE78C;" d="M282.261,40.998c0-13.566,10.997-24.563,24.563-24.563c13.566,0,24.563,10.997,24.563,24.563v49.583
	c0,13.566-10.997,24.563-24.563,24.563c-13.566,0-24.563-10.997-24.563-24.563V40.998z"/>
<g>
	<path style="fill:#494F57;" d="M267.652,341.691h-23.305c-4.142,0-7.5-3.358-7.5-7.5s3.358-7.5,7.5-7.5h23.305
		c4.142,0,7.5,3.358,7.5,7.5S271.794,341.691,267.652,341.691z"/>
	<path style="fill:#494F57;" d="M267.652,230.599h-23.305c-4.142,0-7.5-3.358-7.5-7.5s3.358-7.5,7.5-7.5h23.305
		c4.142,0,7.5,3.358,7.5,7.5S271.794,230.599,267.652,230.599z"/>
	<path style="fill:#494F57;" d="M213.264,286.968c-4.142,0-7.5-3.358-7.5-7.5v-7.094c0-4.142,3.358-7.5,7.5-7.5s7.5,3.358,7.5,7.5
		v7.094C220.764,283.61,217.406,286.968,213.264,286.968z"/>
	<path style="fill:#494F57;" d="M298.736,286.968c-4.142,0-7.5-3.358-7.5-7.5v-7.094c0-4.142,3.358-7.5,7.5-7.5s7.5,3.358,7.5,7.5
		v7.094C306.236,283.61,302.878,286.968,298.736,286.968z"/>
	<path style="fill:#494F57;" d="M256,292.416c-6.486,0-12.654-2.809-16.921-7.706c-2.721-3.123-2.396-7.86,0.727-10.582
		c3.122-2.721,7.86-2.397,10.581,0.727c1.418,1.627,3.464,2.56,5.613,2.56c2.149,0,4.195-0.933,5.613-2.56
		c2.721-3.124,7.458-3.448,10.581-0.727s3.448,7.459,0.727,10.582C268.654,289.607,262.486,292.416,256,292.416z"/>
</g>
<path style="opacity:0.1;enable-background:new    ;" d="M213.687,45.29h-61.522c-10.276,0-18.607,8.331-18.607,18.607l0,0
	c0,10.276,8.331,18.607,18.607,18.607h65.645C205.538,72.583,207.801,55.564,213.687,45.29z"/>
<path style="opacity:0.1;enable-background:new    ;" d="M213.687,474.786h-61.522c-10.276,0-18.607,8.331-18.607,18.607l0,0
	c0,10.276,8.331,18.607,18.607,18.607h65.645C205.538,502.078,207.801,485.06,213.687,474.786z"/>
<g>
</g>
<g>
</g>
<g>
</g>
<g>
</g>
<g>
</g>
<g>
</g>
<g>
</g>
<g>
</g>
<g>
</g>
<g>
</g>
<g>
</g>
<g>
</g>
<g>
</g>
<g>
</g>
<g>
</g>
</svg>
