<?xml version="1.0" encoding="iso-8859-1"?>
<!-- Generator: Adobe Illustrator 19.0.0, SVG Export Plug-In . SVG Version: 6.00 Build 0)  -->
<svg version="1.1" id="Capa_1" xmlns="http://www.w3.org/2000/svg" xmlns:xlink="http://www.w3.org/1999/xlink" x="0px" y="0px"
	 viewBox="0 0 512 512" style="enable-background:new 0 0 512 512;" xml:space="preserve">
<path style="fill:#5C626B;" d="M97.466,470.162h-8.749c-4.637,0-8.396-3.759-8.396-8.396V345.07h25.54v116.696
	C105.862,466.403,102.103,470.162,97.466,470.162z"/>
<path style="opacity:0.1;enable-background:new    ;" d="M80.321,345.07v56.4c8.167,2.215,16.718,4.293,25.54,6.221V345.07H80.321z"
	/>
<path style="fill:#5C626B;" d="M414.534,470.162h8.749c4.637,0,8.396-3.759,8.396-8.396V345.07h-25.54v116.696
	C406.138,466.403,409.897,470.162,414.534,470.162z"/>
<path style="opacity:0.1;enable-background:new    ;" d="M406.138,345.07v62.621c8.823-1.928,17.373-4.006,25.54-6.221v-56.4
	H406.138z"/>
<path style="fill:#E15F76;" d="M256,403.267c113.521,0,297.76-38.498,247.499-89.331C461.401,271.359,374.142,256.634,256,256.634
	S50.599,271.359,8.501,313.936C-41.76,364.769,142.479,403.267,256,403.267z"/>
<path style="opacity:0.1;enable-background:new    ;" d="M256,403.267c113.521,0,297.76-38.498,247.499-89.331
	C461.401,271.359,374.142,256.634,256,256.634S50.599,271.359,8.501,313.936C-41.76,364.769,142.479,403.267,256,403.267z"/>
<path style="opacity:0.1;enable-background:new    ;" d="M235.537,256.791C127.782,258.459,48.13,273.857,8.501,313.936
	c-39.424,39.872,65.429,72.154,167.263,84.222C151.48,366.668,159.452,303.951,235.537,256.791z"/>
<g>
	<path style="fill:#E15F76;" d="M256,333.746c99.984,0,181.038-25.937,181.038-51.75c0-99.984-43.649-191.67-181.038-191.67
		S86.495,180.721,74.962,281.996C72.042,307.644,156.016,333.746,256,333.746z"/>
	<path style="fill:#E15F76;" d="M265.872,28.78h-19.743c-14.367,0-26.014,11.647-26.014,26.014V181.6
		c0,14.367,11.647,26.014,26.014,26.014h19.743c14.367,0,26.014-11.647,26.014-26.014V54.794
		C291.886,40.427,280.239,28.78,265.872,28.78z"/>
</g>
<path style="opacity:0.1;enable-background:new    ;" d="M265.872,28.78h-19.743c-14.367,0-26.014,11.647-26.014,26.014V181.6
	c0,14.367,11.647,26.014,26.014,26.014h19.743c14.367,0,26.014-11.647,26.014-26.014V54.794
	C291.886,40.427,280.239,28.78,265.872,28.78z"/>
<path style="fill:#494F57;" d="M109.42,446.285H76.762c-3.928,0-7.112,3.184-7.112,7.112v22.711c0,3.928,3.184,7.112,7.112,7.112
	h32.658c3.928,0,7.112-3.184,7.112-7.112v-22.711C116.532,449.469,113.348,446.285,109.42,446.285z"/>
<path style="fill:#FBE067;" d="M324.354,236.18l5.93-65.32c0.913-10.059-10.349-16.593-18.629-10.808l-0.361,0.252
	c-11.278,7.88-26.369,7.511-37.248-0.911l0,0c-10.626-8.225-25.469-8.225-36.094,0l0,0c-10.879,8.422-25.97,8.79-37.248,0.911
	l-0.361-0.252c-8.279-5.785-19.542,0.75-18.628,10.808l5.93,65.32c3.21,35.356,32.853,62.43,68.354,62.43l0,0
	C291.502,298.61,321.145,271.537,324.354,236.18z"/>
<g>
	<path style="fill:#494F57;" d="M213.264,231.692c-4.142,0-7.5-3.358-7.5-7.5v-7.094c0-4.142,3.358-7.5,7.5-7.5s7.5,3.358,7.5,7.5
		v7.094C220.764,228.334,217.406,231.692,213.264,231.692z"/>
	<path style="fill:#494F57;" d="M298.736,231.692c-4.142,0-7.5-3.358-7.5-7.5v-7.094c0-4.142,3.358-7.5,7.5-7.5s7.5,3.358,7.5,7.5
		v7.094C306.236,228.334,302.878,231.692,298.736,231.692z"/>
	<path style="fill:#494F57;" d="M256,237.139c-6.486,0-12.653-2.809-16.921-7.705c-2.722-3.123-2.396-7.86,0.726-10.582
		s7.86-2.397,10.582,0.726c1.418,1.628,3.464,2.561,5.613,2.561c2.149,0,4.195-0.933,5.613-2.561
		c2.721-3.123,7.458-3.448,10.581-0.726c3.123,2.721,3.448,7.459,0.726,10.582C268.653,234.331,262.486,237.139,256,237.139z"/>
</g>
<path style="opacity:0.1;enable-background:new    ;" d="M203.398,95.619C109.876,116.34,84.85,195.166,74.962,281.996
	c-2.022,17.756,37.608,35.727,95.359,45.107C120.163,245.941,163.328,128.633,203.398,95.619z"/>
<path style="opacity:0.1;enable-background:new    ;" d="M228.075,164.52c-9.099,2.839-19.226,1.474-27.37-4.216l-0.361-0.252
	c-8.279-5.785-19.542,0.75-18.628,10.809l5.93,65.32c3.21,35.356,32.853,62.43,68.354,62.43l0,0c9.063,0,17.74-1.774,25.698-4.99
	C220.305,276.745,224.937,190.971,228.075,164.52z"/>
<g>
</g>
<g>
</g>
<g>
</g>
<g>
</g>
<g>
</g>
<g>
</g>
<g>
</g>
<g>
</g>
<g>
</g>
<g>
</g>
<g>
</g>
<g>
</g>
<g>
</g>
<g>
</g>
<g>
</g>
</svg>
