<?xml version="1.0" encoding="iso-8859-1"?>
<!-- Generator: Adobe Illustrator 19.0.0, SVG Export Plug-In . SVG Version: 6.00 Build 0)  -->
<svg version="1.1" id="Capa_1" xmlns="http://www.w3.org/2000/svg" xmlns:xlink="http://www.w3.org/1999/xlink" x="0px" y="0px"
	 viewBox="0 0 512 512" style="enable-background:new 0 0 512 512;" xml:space="preserve">
<path style="fill:#E15F76;" d="M256,0L256,0c-36.176,0-61.474,35.782-49.41,69.888l17.913,50.64h62.995l17.913-50.64
	C317.474,35.782,292.176,0,256,0z"/>
<path style="fill:#E6E7E8;" d="M292.041,114.064H219.96c-4.36,0-7.895,3.535-7.895,7.895v42.103c0,4.36,3.535,7.895,7.895,7.895
	h72.081c4.36,0,7.895-3.535,7.895-7.895v-42.103C299.936,117.599,296.401,114.064,292.041,114.064z"/>
<path style="opacity:0.1;enable-background:new    ;" d="M292.041,114.064H219.96c-4.36,0-7.895,3.535-7.895,7.895v42.103
	c0,4.36,3.535,7.895,7.895,7.895h72.081c4.36,0,7.895-3.535,7.895-7.895v-42.103C299.936,117.599,296.401,114.064,292.041,114.064z"
	/>
<path style="opacity:0.1;enable-background:new    ;" d="M239.095,114.064h-19.136c-4.36,0-7.895,3.535-7.895,7.895v42.103
	c0,4.36,3.535,7.895,7.895,7.895h21.201C234.796,158.405,236.263,129.544,239.095,114.064z"/>
<g style="opacity:0.1;">
	<path d="M269.647,104.333c-0.764,0-1.539-0.117-2.305-0.364c-3.942-1.271-6.107-5.498-4.835-9.44l12.311-38.162
		c1.271-3.942,5.5-6.106,9.44-4.835c3.942,1.271,6.106,5.498,4.835,9.44l-12.311,38.162
		C275.759,102.31,272.814,104.333,269.647,104.333z"/>
	<path d="M235.636,75.883c-3.217,0-6.192-2.087-7.174-5.325l-4.924-16.234c-1.202-3.964,1.036-8.152,5-9.354
		c3.965-1.199,8.152,1.037,9.354,5l4.924,16.234c1.202,3.964-1.036,8.152-5,9.354C237.09,75.778,236.356,75.883,235.636,75.883z"/>
</g>
<path style="fill:#E6E7E8;" d="M363.368,410.399c28.719-28.039,46.504-67.226,46.341-110.572
	c-0.316-83.87-68.667-152.488-152.536-153.114c-85.43-0.638-154.883,68.423-154.883,153.706c0,43.112,17.755,82.071,46.345,109.983
	c3.279,3.201,4.282,8.072,2.556,12.317l-23.125,56.892c-3.148,7.745,2.55,16.212,10.911,16.212l0,0
	c76.525,21.569,157.522,21.569,234.046,0l0,0c8.36,0,14.059-8.467,10.911-16.212l-23.125-56.892
	C359.083,418.472,360.089,413.601,363.368,410.399z"/>
<path style="fill:#5C626B;" d="M383.934,479.611l-11.977-29.465c-25.899,10.669-59.678,20.89-115.957,20.89
	s-90.058-10.22-115.957-20.89l-11.977,29.465c-3.148,7.745,2.55,16.212,10.911,16.212c76.525,21.569,157.522,21.569,234.046,0
	C381.383,495.823,387.082,487.356,383.934,479.611z"/>
<path style="opacity:0.1;enable-background:new    ;" d="M222.486,150.376C153.712,165.67,102.29,227.038,102.29,300.419
	c0,43.112,17.755,82.071,46.345,109.983c3.279,3.201,4.282,8.072,2.557,12.317l-23.125,56.892
	c-3.148,7.745,2.55,16.212,10.911,16.212c10.219,2.88,20.52,5.364,30.878,7.475c-4.892-20.256,11.485-54.806,19.898-78.125
	c1.592-4.412,1.102-9.291-1.253-13.347C115.597,286.266,195.743,183.103,222.486,150.376z"/>
<path style="fill:#E6E7E8;" d="M416.134,264.933l-136.791-48.08c-15.109-5.311-31.577-5.311-46.686,0l-136.791,48.08
	c-7.4,2.601-12.352,9.59-12.352,17.434v36.104c0,7.844,4.952,14.833,12.352,17.434l136.791,48.08
	c15.109,5.311,31.577,5.311,46.686,0l136.791-48.08c7.4-2.601,12.352-9.59,12.352-17.434v-36.104
	C428.486,274.523,423.534,267.534,416.134,264.933z"/>
<path style="opacity:0.1;enable-background:new    ;" d="M416.134,264.933l-136.791-48.08c-15.109-5.311-31.577-5.311-46.686,0
	l-136.791,48.08c-7.4,2.601-12.352,9.59-12.352,17.434v36.104c0,7.844,4.952,14.833,12.352,17.434l136.791,48.08
	c15.109,5.311,31.577,5.311,46.686,0l136.791-48.08c7.4-2.601,12.352-9.59,12.352-17.434v-36.104
	C428.486,274.523,423.534,267.534,416.134,264.933z"/>
<g>
	<path style="fill:#494F57;" d="M256,346.1c-4.143,0-7.5-3.358-7.5-7.5v-76.361c0-4.142,3.357-7.5,7.5-7.5
		c4.143,0,7.5,3.358,7.5,7.5V338.6C263.5,342.742,260.143,346.1,256,346.1z"/>
	<path style="fill:#494F57;" d="M197.38,332.679c-4.143,0-7.5-3.358-7.5-7.5v-49.52c0-4.142,3.357-7.5,7.5-7.5s7.5,3.358,7.5,7.5
		v49.52C204.88,329.321,201.522,332.679,197.38,332.679z"/>
	<path style="fill:#494F57;" d="M138.759,321.425c-4.143,0-7.5-3.358-7.5-7.5v-27.013c0-4.142,3.357-7.5,7.5-7.5s7.5,3.358,7.5,7.5
		v27.013C146.259,318.067,142.901,321.425,138.759,321.425z"/>
	<path style="fill:#494F57;" d="M314.62,332.679c-4.143,0-7.5-3.358-7.5-7.5v-49.52c0-4.142,3.357-7.5,7.5-7.5s7.5,3.358,7.5,7.5
		v49.52C322.12,329.321,318.763,332.679,314.62,332.679z"/>
	<path style="fill:#494F57;" d="M373.241,321.425c-4.143,0-7.5-3.358-7.5-7.5v-27.013c0-4.142,3.357-7.5,7.5-7.5s7.5,3.358,7.5,7.5
		v27.013C380.741,318.067,377.384,321.425,373.241,321.425z"/>
</g>
<path style="opacity:0.1;enable-background:new    ;" d="M174.51,237.29l-78.645,27.643c-7.4,2.601-12.352,9.59-12.352,17.434
	v36.104c0,7.844,4.952,14.833,12.352,17.434l74.106,26.047C152.645,315.885,168.555,257.06,174.51,237.29z"/>
<g>
</g>
<g>
</g>
<g>
</g>
<g>
</g>
<g>
</g>
<g>
</g>
<g>
</g>
<g>
</g>
<g>
</g>
<g>
</g>
<g>
</g>
<g>
</g>
<g>
</g>
<g>
</g>
<g>
</g>
</svg>
