<?xml version="1.0" encoding="iso-8859-1"?>
<!-- Generator: Adobe Illustrator 19.0.0, SVG Export Plug-In . SVG Version: 6.00 Build 0)  -->
<svg version="1.1" id="Capa_1" xmlns="http://www.w3.org/2000/svg" xmlns:xlink="http://www.w3.org/1999/xlink" x="0px" y="0px"
	 viewBox="0 0 512 512" style="enable-background:new 0 0 512 512;" xml:space="preserve">
<path style="fill:#5C626B;" d="M313.846,24.133H198.154c-8.978,0-16.788,6.149-18.895,14.877L98.68,372.818h314.64L332.741,39.01
	C330.634,30.283,322.824,24.133,313.846,24.133z"/>
<path style="opacity:0.1;enable-background:new    ;" d="M220.333,24.133h-22.179c-8.978,0-16.788,6.149-18.895,14.877
	L98.68,372.818h85.293C145.729,253.72,190.333,88.333,220.333,24.133z"/>
<path style="fill:#5C626B;" d="M497.087,469.243L497.087,469.243c-159.766,24.832-322.408,24.832-482.174,0l0,0
	c-15.618-2.427-20.369-22.612-7.475-31.752l91.242-64.673h314.64l91.242,64.673C517.456,446.631,512.704,466.816,497.087,469.243z"
	/>
<path style="opacity:0.1;enable-background:new    ;" d="M166.673,372.818H98.68L7.438,437.491
	c-12.894,9.14-8.142,29.325,7.475,31.752l0,0c45.715,7.105,91.667,12.168,137.719,15.207
	C102.588,465.881,143.283,401.883,166.673,372.818z"/>
<path style="fill:#494F57;" d="M404.975,315.667h-297.95c-4.192,0-7.826,2.9-8.756,6.987l-8.917,39.192
	c-1.279,5.62,2.993,10.972,8.756,10.972h315.785c5.763,0,10.035-5.352,8.756-10.972l-8.917-39.192
	C412.801,318.567,409.167,315.667,404.975,315.667z"/>
<path style="fill:#FBE067;" d="M307.206,394.467H204.794c-8.837,0-16-7.164-16-16v-68.449c0-8.836,7.163-16,16-16h102.412
	c8.837,0,16,7.164,16,16v68.449C323.206,387.303,316.043,394.467,307.206,394.467z M220.794,362.467h70.412v-36.449h-70.412
	L220.794,362.467L220.794,362.467z"/>
<g>
	<path style="fill:#FFFFFF;" d="M186.895,240.975c-4.143,0-7.5-3.358-7.5-7.5v-11.471c0-4.142,3.357-7.5,7.5-7.5s7.5,3.358,7.5,7.5
		v11.471C194.395,237.617,191.038,240.975,186.895,240.975z"/>
	<path style="fill:#FFFFFF;" d="M325.104,240.975c-4.143,0-7.5-3.358-7.5-7.5v-11.471c0-4.142,3.357-7.5,7.5-7.5s7.5,3.358,7.5,7.5
		v11.471C332.604,237.617,329.247,240.975,325.104,240.975z"/>
	<path style="fill:#FFFFFF;" d="M256,249.784c-9.149,0-17.852-3.963-23.873-10.873c-2.722-3.122-2.396-7.86,0.727-10.581
		c3.121-2.721,7.859-2.396,10.582,0.727c3.172,3.64,7.752,5.728,12.564,5.728c4.812,0,9.393-2.088,12.564-5.728
		c2.72-3.124,7.458-3.449,10.582-0.727c3.122,2.722,3.448,7.459,0.727,10.581C273.852,245.821,265.149,249.784,256,249.784z"/>
</g>
<path style="opacity:0.15;enable-background:new    ;" d="M171.916,315.666h-64.892c-4.192,0-7.826,2.9-8.756,6.988l-8.917,39.191
	c-1.279,5.62,2.993,10.972,8.756,10.972h68.565C163.115,355.733,164.274,333.878,171.916,315.666z"/>
<g>
</g>
<g>
</g>
<g>
</g>
<g>
</g>
<g>
</g>
<g>
</g>
<g>
</g>
<g>
</g>
<g>
</g>
<g>
</g>
<g>
</g>
<g>
</g>
<g>
</g>
<g>
</g>
<g>
</g>
</svg>
