<?xml version="1.0" encoding="iso-8859-1"?>
<!-- Generator: Adobe Illustrator 19.0.0, SVG Export Plug-In . SVG Version: 6.00 Build 0)  -->
<svg version="1.1" id="Capa_1" xmlns="http://www.w3.org/2000/svg" xmlns:xlink="http://www.w3.org/1999/xlink" x="0px" y="0px"
	 viewBox="0 0 511.999 511.999" style="enable-background:new 0 0 511.999 511.999;" xml:space="preserve">
<path style="fill:#E6E7E8;" d="M346.064,125.268L467.231,4.101c5.468-5.468,14.334-5.468,19.802,0l0,0
	c21.765,21.765,21.765,57.052,0,78.817l-81.498,81.498c-0.127-0.128-0.249-0.259-0.377-0.386
	C387.763,146.634,367.587,133.722,346.064,125.268z"/>
<path style="opacity:0.1;enable-background:new    ;" d="M346.064,125.268c15.849,6.225,30.963,14.877,44.779,25.947l72.538-72.538
	c20.399-20.399,21.678-52.676,3.84-74.566L346.064,125.268z"/>
<path style="fill:#9B6A57;" d="M121.287,350.045L16.525,454.807c-10.511,10.511-10.511,27.553,0,38.065l11.244,11.244
	c10.511,10.511,27.554,10.511,38.065,0l94.601-94.601c-0.128-0.127-0.259-0.249-0.386-0.377
	C142.654,391.744,129.741,371.568,121.287,350.045z"/>
<circle style="fill:#E6E7E8;" cx="47.299" cy="473.34" r="11.09"/>
<path style="opacity:0.15;enable-background:new    ;" d="M160.049,409.139c-17.395-17.395-30.307-37.572-38.761-59.094
	l-57.457,57.457l49.309,49.309l47.296-47.296C160.307,409.389,160.176,409.267,160.049,409.139z"/>
<path style="fill:#64D19B;" d="M169.804,429.338l-15.026,15.026c-5.636,5.636-14.774,5.636-20.41,0l-58.09-58.09
	c-5.636-5.636-5.636-14.774,0-20.41l15.026-15.026c5.636-5.636,14.774-5.636,20.41,0l58.09,58.09
	C175.44,414.564,175.44,423.702,169.804,429.338z"/>
<path style="fill:#5C626B;" d="M187.221,449.079c-3.354,0-6.744-0.95-9.752-2.936c-10.718-7.077-20.797-15.309-29.957-24.467
	c-74.489-74.49-74.489-195.694,0-270.182c36.084-36.085,84.06-55.957,135.091-55.957s99.007,19.872,135.091,55.957
	c9.157,9.156,17.39,19.235,24.469,29.955c5.395,8.171,3.145,19.168-5.025,24.564c-8.172,5.397-19.168,3.145-24.564-5.025
	c-5.767-8.733-12.478-16.949-19.951-24.422c-29.388-29.387-68.46-45.571-110.019-45.571c-41.56,0-80.631,16.184-110.019,45.571
	c-60.664,60.665-60.664,159.372,0,220.037c7.475,7.474,15.691,14.186,24.421,19.95c8.171,5.395,10.421,16.392,5.027,24.563
	C198.623,446.28,192.978,449.079,187.221,449.079z"/>
<g>
</g>
<g>
</g>
<g>
</g>
<g>
</g>
<g>
</g>
<g>
</g>
<g>
</g>
<g>
</g>
<g>
</g>
<g>
</g>
<g>
</g>
<g>
</g>
<g>
</g>
<g>
</g>
<g>
</g>
</svg>
