<?xml version="1.0" encoding="iso-8859-1"?>
<!-- Generator: Adobe Illustrator 19.0.0, SVG Export Plug-In . SVG Version: 6.00 Build 0)  -->
<svg version="1.1" id="Capa_1" xmlns="http://www.w3.org/2000/svg" xmlns:xlink="http://www.w3.org/1999/xlink" x="0px" y="0px"
	 viewBox="0 0 511.999 511.999" style="enable-background:new 0 0 511.999 511.999;" xml:space="preserve">
<g>
	<path style="fill:#FFE78C;" d="M123.624,335.449c-21.072,0-85.195,0-120.315-68.587c-7.563-14.769-1.721-32.871,13.048-40.434
		c14.768-7.564,32.871-1.721,40.434,13.048c15.303,29.884,36.918,35.887,66.834,35.887c16.592,0,30.043,13.451,30.043,30.043
		S140.216,335.449,123.624,335.449z"/>
	<path style="fill:#FFE78C;" d="M388.376,335.449c-16.592,0-30.043-13.451-30.043-30.043s13.451-30.043,30.043-30.043
		c29.916,0,51.531-6.004,66.834-35.888c7.563-14.768,25.666-20.608,40.434-13.047c14.769,7.563,20.61,25.666,13.047,40.434
		C473.57,335.449,409.447,335.449,388.376,335.449z"/>
</g>
<path style="opacity:0.08;enable-background:new    ;" d="M388.376,275.363c-16.592,0-30.043,13.451-30.043,30.043
	s13.451,30.043,30.043,30.043c11.32,0,35.065-0.006,60.064-10.641v-74.205C433.722,270.9,414.126,275.363,388.376,275.363z"/>
<path style="opacity:0.08;enable-background:new    ;" d="M123.624,275.363c-26.129,0-45.925-4.583-60.714-25.653v74.82
	c25.236,10.913,49.296,10.919,60.714,10.919c16.592,0,30.043-13.451,30.043-30.043S140.216,275.363,123.624,275.363z"/>
<path style="fill:#FFE78C;" d="M415.645,446.722L415.645,446.722c-10.461,8.114-25.088,8.114-35.549,0l0,0
	c-10.461-8.114-25.088-8.114-35.549,0l0,0c-10.461,8.114-25.088,8.114-35.549,0l0,0c-10.461-8.114-25.088-8.114-35.549,0l0,0
	c-10.461,8.114-25.088,8.114-35.549,0l0,0c-10.461-8.114-25.088-8.114-35.549,0l0,0c-10.461,8.114-25.088,8.114-35.549,0l0,0
	c-10.461-8.114-25.088-8.114-35.549,0l0,0c-10.461,8.114-25.088,8.114-35.549,0l0,0c-11.213-8.697-17.774-22.091-17.774-36.282
	V238.459c0-97.94,80.129-179.442,178.069-179.267c98.016,0.175,177.419,79.687,177.419,177.744V410.44
	C433.419,424.631,426.857,438.025,415.645,446.722z"/>
<g>
	<path style="fill:#494F57;" d="M192.661,224.455c-4.142,0-7.5-3.358-7.5-7.5v-10.748c0-4.142,3.358-7.5,7.5-7.5s7.5,3.358,7.5,7.5
		v10.748C200.161,221.097,196.803,224.455,192.661,224.455z"/>
	<path style="fill:#494F57;" d="M318.688,224.455c-4.142,0-7.5-3.358-7.5-7.5v-10.748c0-4.142,3.358-7.5,7.5-7.5s7.5,3.358,7.5,7.5
		v10.748C326.188,221.097,322.831,224.455,318.688,224.455z"/>
	<path style="fill:#494F57;" d="M256.336,243.32L256.336,243.32c-10.019,0-18.141-8.122-18.141-18.141V211.99
		c0-2.735,2.217-4.952,4.952-4.952h26.378c2.735,0,4.952,2.217,4.952,4.952v13.189C274.478,235.197,266.355,243.32,256.336,243.32z"
		/>
</g>
<path style="opacity:0.05;enable-background:new    ;" d="M172.394,80.381c-56.089,30.413-94.463,90.305-94.463,158.078V410.44
	c0,14.191,6.561,27.584,17.774,36.282l0,0c10.461,8.114,25.088,8.114,35.549,0s25.088-8.114,35.549,0l0,0
	c3.781,2.933,8.108,4.789,12.584,5.602C140.347,358.935,132.85,146.138,172.394,80.381z"/>
<g>
</g>
<g>
</g>
<g>
</g>
<g>
</g>
<g>
</g>
<g>
</g>
<g>
</g>
<g>
</g>
<g>
</g>
<g>
</g>
<g>
</g>
<g>
</g>
<g>
</g>
<g>
</g>
<g>
</g>
</svg>
