<?xml version="1.0" encoding="iso-8859-1"?>
<!-- Generator: Adobe Illustrator 19.0.0, SVG Export Plug-In . SVG Version: 6.00 Build 0)  -->
<svg version="1.1" id="Capa_1" xmlns="http://www.w3.org/2000/svg" xmlns:xlink="http://www.w3.org/1999/xlink" x="0px" y="0px"
	 viewBox="0 0 512 512" style="enable-background:new 0 0 512 512;" xml:space="preserve">
<path style="fill:#52B4DE;" d="M256,81.889L256,81.889c-5.934,0-11.3,3.528-13.652,8.977l-34.689,80.356
	C186.246,220.824,175.2,274.28,175.2,328.307v49.785h161.6v-49.785c0-54.027-11.046-107.483-32.458-157.085l-34.689-80.356
	C267.3,85.417,261.934,81.889,256,81.889z"/>
<path style="opacity:0.1;enable-background:new    ;" d="M305.896,174.888c-3.705,3.811-7.291,7.753-10.738,11.834
	c-16.835,19.929-30.012,42.473-39.158,66.537c-9.146-24.064-22.323-46.607-39.158-66.537c-3.447-4.081-7.033-8.023-10.738-11.834
	c-20.389,48.566-30.904,100.72-30.904,153.419v49.785h161.6v-49.785C336.8,275.608,326.285,223.452,305.896,174.888z"/>
<path style="fill:#FBE067;" d="M402.986,476.542H109.014c-21.833,0-39.533-17.699-39.533-39.533v-19.385
	c0-21.833,17.699-39.533,39.533-39.533h293.973c21.833,0,39.533,17.699,39.533,39.533v19.385
	C442.519,458.841,424.82,476.542,402.986,476.542z"/>
<path style="fill:#64D19B;" d="M57.814,139.944L57.814,139.944c0,3.647,1.186,7.195,3.38,10.109l0,0
	c37.798,50.207,58.24,111.347,58.24,174.192v53.846H256v-43.332c0-104.584-75.456-193.907-178.569-211.386l0,0
	C67.172,121.633,57.814,129.538,57.814,139.944z"/>
<path style="opacity:0.1;enable-background:new    ;" d="M180.053,378.091c-3.484-145.624-75.09-214.67-120.44-245.695
	c-1.139,2.26-1.799,4.813-1.799,7.547c0,3.647,1.186,7.195,3.38,10.109l0,0c37.799,50.207,58.24,111.347,58.24,174.192v53.846
	h60.619V378.091z"/>
<path style="fill:#E15F76;" d="M454.186,139.944L454.186,139.944c0,3.647-1.186,7.195-3.38,10.109l0,0
	c-37.798,50.207-58.24,111.347-58.24,174.192v53.846H256v-43.332c0-104.584,75.456-193.907,178.569-211.386l0,0
	C444.828,121.633,454.186,129.538,454.186,139.944z"/>
<g>
	<circle style="fill:#FBE067;" cx="46.43" cy="119.778" r="46.43"/>
	<circle style="fill:#FBE067;" cx="256" cy="81.889" r="46.43"/>
	<circle style="fill:#FBE067;" cx="465.57" cy="119.778" r="46.43"/>
</g>
<g>
	<path style="fill:#494F57;" d="M187.342,436.139c-4.143,0-7.5-3.358-7.5-7.5v-11.397c0-4.142,3.357-7.5,7.5-7.5s7.5,3.358,7.5,7.5
		v11.397C194.842,432.781,191.484,436.139,187.342,436.139z"/>
	<path style="fill:#494F57;" d="M324.658,436.139c-4.143,0-7.5-3.358-7.5-7.5v-11.397c0-4.142,3.357-7.5,7.5-7.5s7.5,3.358,7.5,7.5
		v11.397C332.158,432.781,328.801,436.139,324.658,436.139z"/>
	<path style="fill:#494F57;" d="M256,444.891c-9.105,0-17.764-3.943-23.756-10.819c-2.722-3.123-2.395-7.86,0.727-10.582
		c3.122-2.721,7.86-2.397,10.582,0.727c3.143,3.606,7.68,5.674,12.447,5.674c4.768,0,9.305-2.068,12.447-5.674
		c2.722-3.123,7.457-3.448,10.582-0.727c3.122,2.722,3.448,7.459,0.727,10.582C273.764,440.948,265.104,444.891,256,444.891z"/>
</g>
<path style="opacity:0.1;enable-background:new    ;" d="M180.093,378.091h-71.08c-21.833,0-39.532,17.699-39.532,39.533v19.385
	c0,21.833,17.699,39.533,39.532,39.533h86.225C147.843,449.288,159.776,401.467,180.093,378.091z"/>
<path style="opacity:0.1;enable-background:new    ;" d="M35.326,74.689C15.047,79.667,0,97.96,0,119.775
	c0,25.644,20.789,46.433,46.433,46.433c15.142,0,28.587-7.251,37.063-18.467C31.22,166.668,7.069,98.327,35.326,74.689z"/>
<path style="opacity:0.1;enable-background:new    ;" d="M244.893,36.803c-20.279,4.979-35.326,23.271-35.326,45.086
	c0,25.644,20.789,46.433,46.433,46.433c15.142,0,28.587-7.251,37.063-18.467C240.787,128.783,216.636,60.442,244.893,36.803z"/>
<path style="opacity:0.1;enable-background:new    ;" d="M454.461,74.689c-20.279,4.979-35.326,23.271-35.326,45.086
	c0,25.644,20.789,46.433,46.433,46.433c15.142,0,28.587-7.251,37.063-18.467C450.354,166.669,426.203,98.327,454.461,74.689z"/>
<g>
</g>
<g>
</g>
<g>
</g>
<g>
</g>
<g>
</g>
<g>
</g>
<g>
</g>
<g>
</g>
<g>
</g>
<g>
</g>
<g>
</g>
<g>
</g>
<g>
</g>
<g>
</g>
<g>
</g>
</svg>
