<?xml version="1.0" encoding="iso-8859-1"?>
<!-- Generator: Adobe Illustrator 19.0.0, SVG Export Plug-In . SVG Version: 6.00 Build 0)  -->
<svg version="1.1" id="Capa_1" xmlns="http://www.w3.org/2000/svg" xmlns:xlink="http://www.w3.org/1999/xlink" x="0px" y="0px"
	 viewBox="0 0 512 512" style="enable-background:new 0 0 512 512;" xml:space="preserve">
<g>
	<path style="fill:#E6E7E8;" d="M97.719,385.278C33.566,385.278,0,345.806,0,306.816c0-20.464,8.943-39.269,25.181-52.951
		c16.506-13.906,39.284-21.256,65.874-21.256h10.095v46.782H91.055c-22.037,0-44.272,8.48-44.272,27.425
		c0,7.223,3.642,14.246,10.256,19.774c9.318,7.788,23.385,11.905,40.68,11.905h139.279v46.783L97.719,385.278L97.719,385.278z"/>
	<path style="fill:#E6E7E8;" d="M414.281,385.278c64.153,0,97.719-39.471,97.719-78.462c0-20.464-8.943-39.269-25.181-52.951
		c-16.505-13.906-39.284-21.256-65.874-21.256H410.85v46.782h10.095c22.037,0,44.272,8.48,44.272,27.425
		c0,7.223-3.642,14.246-10.256,19.774c-9.318,7.788-23.385,11.905-40.68,11.905H275.002v46.783L414.281,385.278L414.281,385.278z"/>
	<path style="fill:#E6E7E8;" d="M256,385.701c-45.107,0-82.552-7.111-111.296-21.135c-29.01-14.154-48.661-34.73-58.406-61.156
		c-8.321-22.565-10.093-43.232-5.265-61.428c4.54-17.113,14.748-31.266,29.522-40.928c12.487-8.167,27.899-12.664,43.398-12.664
		c18.004,0,34.717,6.14,45.852,16.846c0.392,0.374,1.284,1.335,1.503,1.587c25.367,29.59,38.646,31.071,54.692,31.071
		c16.047,0,29.326-1.481,54.648-31.019c0.291-0.335,1.163-1.271,1.559-1.65c11.125-10.694,27.837-16.834,45.842-16.834
		c15.499,0,30.911,4.497,43.397,12.664c14.774,9.662,24.982,23.815,29.523,40.928c4.827,18.198,3.055,38.865-5.266,61.428
		c-9.746,26.427-29.397,47.002-58.406,61.156C338.552,378.59,301.106,385.701,256,385.701z M153.889,235.137
		c-6.434,0-12.73,1.8-17.728,5.069c-8.567,5.603-16.557,18.308-5.97,47.017c12.294,33.336,56.973,51.696,125.809,51.696
		s113.516-18.359,125.81-51.696c10.588-28.708,2.598-41.414-5.97-47.017c-4.998-3.269-11.294-5.069-17.728-5.069
		c-6.432,0-10.912,1.769-12.996,3.406c-23.654,27.481-50.069,46.133-89.115,46.133c-39.047,0-65.461-18.651-89.115-46.134
		C164.801,236.905,160.32,235.137,153.889,235.137z"/>
</g>
<path style="opacity:0.1;enable-background:new    ;" d="M256,385.701c-45.107,0-82.552-7.111-111.296-21.135
	c-29.01-14.154-48.661-34.73-58.406-61.156c-8.321-22.565-10.093-43.232-5.265-61.428c4.54-17.113,14.748-31.266,29.522-40.928
	c12.487-8.167,27.899-12.664,43.398-12.664c18.004,0,34.717,6.14,45.852,16.846c0.392,0.374,1.284,1.335,1.503,1.587
	c25.367,29.59,38.646,31.071,54.692,31.071c16.047,0,29.326-1.481,54.648-31.019c0.291-0.335,1.163-1.271,1.559-1.65
	c11.125-10.694,27.837-16.834,45.842-16.834c15.499,0,30.911,4.497,43.397,12.664c14.774,9.662,24.982,23.815,29.523,40.928
	c4.827,18.198,3.055,38.865-5.266,61.428c-9.746,26.427-29.397,47.002-58.406,61.156C338.552,378.59,301.106,385.701,256,385.701z
	 M153.889,235.137c-6.434,0-12.73,1.8-17.728,5.069c-8.567,5.603-16.557,18.308-5.97,47.017
	c12.294,33.336,56.973,51.696,125.809,51.696s113.516-18.359,125.81-51.696c10.588-28.708,2.598-41.414-5.97-47.017
	c-4.998-3.269-11.294-5.069-17.728-5.069c-6.432,0-10.912,1.769-12.996,3.406c-23.654,27.481-50.069,46.133-89.115,46.133
	c-39.047,0-65.461-18.651-89.115-46.134C164.801,236.905,160.32,235.137,153.889,235.137z"/>
<path style="fill:#E6E7E8;" d="M256,385.701c-27.739,0-53.467-22.691-72.444-63.892c-14.405-31.271-23.353-69.479-23.353-99.712
	c0-52.823,42.974-95.797,95.797-95.797s95.798,42.974,95.798,95.797c0,30.229-8.948,68.437-23.353,99.712
	C309.467,363.01,283.739,385.701,256,385.701z M256,173.082c-27.027,0-49.015,21.988-49.015,49.015
	c0,23.544,7.482,55.001,19.062,80.139c12.309,26.723,24.905,36.682,29.953,36.682c5.047,0,17.644-9.959,29.954-36.682
	c11.58-25.139,19.061-56.596,19.061-80.139C305.015,195.07,283.027,173.082,256,173.082z"/>
<g>
	<circle style="fill:#FFFFFF;" cx="256.07" cy="149.76" r="6.835"/>
	<circle style="fill:#FFFFFF;" cx="219.84" cy="159.39" r="6.835"/>
	<circle style="fill:#FFFFFF;" cx="292.3" cy="159.39" r="6.835"/>
	<circle style="fill:#FFFFFF;" cx="133.4" cy="215.59" r="6.835"/>
	<circle style="fill:#FFFFFF;" cx="109.59" cy="234.69" r="6.835"/>
	<circle style="fill:#FFFFFF;" cx="378.6" cy="215.59" r="6.835"/>
	<circle style="fill:#FFFFFF;" cx="402.41" cy="234.69" r="6.835"/>
</g>
<ellipse style="fill:#52B4DE;" cx="256" cy="261.28" rx="24.336" ry="32.522"/>
<path style="opacity:0.1;enable-background:new    ;" d="M251.287,229.376c-11.184,2.934-19.623,16.101-19.623,31.907
	c0,17.961,10.896,32.522,24.336,32.522c7.629,0,14.436-4.695,18.898-12.037C242.698,294.831,241.211,245.989,251.287,229.376z"/>
<g>
</g>
<g>
</g>
<g>
</g>
<g>
</g>
<g>
</g>
<g>
</g>
<g>
</g>
<g>
</g>
<g>
</g>
<g>
</g>
<g>
</g>
<g>
</g>
<g>
</g>
<g>
</g>
<g>
</g>
</svg>
