<?xml version="1.0" encoding="iso-8859-1"?>
<!-- Generator: Adobe Illustrator 19.0.0, SVG Export Plug-In . SVG Version: 6.00 Build 0)  -->
<svg version="1.1" id="Capa_1" xmlns="http://www.w3.org/2000/svg" xmlns:xlink="http://www.w3.org/1999/xlink" x="0px" y="0px"
	 viewBox="0 0 512.001 512.001" style="enable-background:new 0 0 512.001 512.001;" xml:space="preserve">
<path style="fill:#52B4DE;" d="M404.499,333.753l97.429-97.735c20.219-20.283,8.226-54.947-20.205-58.397l-30.283-3.675
	c-30.94-3.755-60.651-14.369-86.967-31.068l-84.017-53.314c-14.928-9.473-33.983-9.473-48.91,0l-84.017,53.314
	c-26.316,16.699-56.027,27.313-86.967,31.068l-30.283,3.675c-28.431,3.45-40.424,38.115-20.205,58.397l97.429,97.735H404.499z"/>
<path style="fill:#FBE067;" d="M384.003,295.89c-42.974-6.174-86.777-9.305-130.192-9.305s-87.218,3.13-130.193,9.305
	c-14.026,2.016-27.038,7.496-38.08,15.829l21.965,22.034h296.995l20.046-20.109C413,304.223,399.086,298.058,384.003,295.89z"/>
<path style="opacity:0.1;enable-background:new    ;" d="M145.921,143.866c-25.918,16.121-55.045,26.4-85.36,30.079l-30.283,3.675
	c-28.431,3.45-40.424,38.115-20.205,58.397l97.429,97.735h78.148C121.022,258.183,124.487,189.331,145.921,143.866z"/>
<g>
	<circle style="fill:#F9993E;" cx="91.501" cy="320.9" r="21"/>
	<circle style="fill:#F9993E;" cx="420.501" cy="320.9" r="21"/>
</g>
<path style="fill:#5C626B;" d="M380.448,320.637L380.448,320.637c-83.993-12.068-169.28-12.068-253.273,0l0,0
	c-14.903,2.141-28.387,10.003-37.592,21.917l-15.004,19.421c-13.198,17.083-3.763,42.081,17.43,46.185l59.93,11.603
	c63.29,12.253,132.455,13.802,203.745,0l59.93-11.603c21.194-4.103,30.628-29.102,17.43-46.185l-15.004-19.421
	C408.835,330.639,395.351,322.778,380.448,320.637z"/>
<path style="fill:#FBE067;" d="M312.371,216.567l5.361-59.056c0.567-6.243-6.424-10.299-11.563-6.709l-11.617,8.117
	c-5.108,3.569-11.942,3.402-16.869-0.413l-14.06-10.884c-4.488-3.474-10.756-3.474-15.244,0l-14.061,10.884
	c-4.927,3.814-11.762,3.981-16.869,0.413l-11.617-8.117c-5.139-3.59-12.129,0.466-11.563,6.709l5.361,59.056
	c2.647,29.157,27.093,51.484,56.37,51.484l0,0C285.278,268.051,309.724,245.724,312.371,216.567z"/>
<path style="opacity:0.1;enable-background:new    ;" d="M234.735,158.184l-0.416,0.322c-4.927,3.814-11.762,3.981-16.869,0.413
	l-11.617-8.117c-5.139-3.59-12.129,0.466-11.563,6.709l5.361,59.056c2.647,29.157,27.093,51.484,56.37,51.484l0,0
	c5.356,0,10.548-0.754,15.477-2.154C232.278,250.056,231.305,190.303,234.735,158.184z"/>
<g>
	<path style="fill:#494F57;" d="M220.758,214.18c-4.142,0-7.5-3.358-7.5-7.5v-5.85c0-4.142,3.358-7.5,7.5-7.5s7.5,3.358,7.5,7.5
		v5.85C228.258,210.822,224.9,214.18,220.758,214.18z"/>
	<path style="fill:#494F57;" d="M291.244,214.18c-4.142,0-7.5-3.358-7.5-7.5v-5.85c0-4.142,3.358-7.5,7.5-7.5s7.5,3.358,7.5,7.5
		v5.85C298.744,210.822,295.386,214.18,291.244,214.18z"/>
	<path style="fill:#494F57;" d="M256.001,218.673c-5.729,0-11.176-2.48-14.945-6.805c-2.722-3.122-2.398-7.86,0.725-10.582
		c3.122-2.722,7.86-2.397,10.581,0.725c0.541,0.62,1.733,1.661,3.639,1.661c1.906,0,3.097-1.041,3.638-1.661
		c2.72-3.123,7.458-3.448,10.582-0.726c3.123,2.721,3.448,7.459,0.726,10.582C267.177,216.192,261.73,218.673,256.001,218.673z"/>
</g>
<path style="opacity:0.15;enable-background:new    ;" d="M170.595,315.492c-14.503,1.361-28.981,3.07-43.421,5.145l0,0
	c-14.903,2.141-28.387,10.003-37.592,21.917l-15.004,19.421c-13.198,17.083-3.763,42.081,17.43,46.185l59.93,11.603
	c7.33,1.419,14.742,2.688,22.223,3.812C126.923,382.134,153.955,342.794,170.595,315.492z"/>
<g>
</g>
<g>
</g>
<g>
</g>
<g>
</g>
<g>
</g>
<g>
</g>
<g>
</g>
<g>
</g>
<g>
</g>
<g>
</g>
<g>
</g>
<g>
</g>
<g>
</g>
<g>
</g>
<g>
</g>
</svg>
