<?xml version="1.0" encoding="iso-8859-1"?>
<!-- Generator: Adobe Illustrator 19.0.0, SVG Export Plug-In . SVG Version: 6.00 Build 0)  -->
<svg version="1.1" id="Capa_1" xmlns="http://www.w3.org/2000/svg" xmlns:xlink="http://www.w3.org/1999/xlink" x="0px" y="0px"
	 viewBox="0 0 512.001 512.001" style="enable-background:new 0 0 512.001 512.001;" xml:space="preserve">
<ellipse style="fill:#5C626B;" cx="256.001" cy="230.11" rx="57.53" ry="35.21"/>
<path style="fill:#E15F76;" d="M38.595,217.115c0,0-21.083-18.531-29.693-51.818c-2.245-8.679,4.888-16.942,13.809-16.052
	c53.942,5.382,130.47,23.68,163.521,72.413L38.595,217.115z"/>
<path style="opacity:0.1;enable-background:new    ;" d="M148.258,186.603H42.454c-3.993-12.61-4.963-25.758-4.629-35.572
	c-5.189-0.709-10.244-1.302-15.114-1.788c-8.921-0.89-16.054,7.373-13.809,16.052c8.61,33.288,29.693,51.819,29.693,51.819
	l147.637,4.543C176.678,207.568,163.484,196.028,148.258,186.603z"/>
<path style="fill:#E15F76;" d="M473.407,217.115c0,0,21.083-18.531,29.693-51.818c2.245-8.679-4.888-16.942-13.809-16.052
	c-53.943,5.382-130.47,23.68-163.521,72.413L473.407,217.115z"/>
<path style="opacity:0.1;enable-background:new    ;" d="M363.744,186.603H495.23c-9.628,19.78-21.823,30.511-21.823,30.511
	l-147.637,4.543C335.325,207.568,348.518,196.028,363.744,186.603z"/>
<path style="fill:#52B4DE;" d="M502.565,200.185H340.847c-19.138,0-37.829,5.789-53.617,16.606l-24.791,16.985
	c-3.881,2.659-8.997,2.659-12.878,0l-24.79-16.985c-15.788-10.817-34.479-16.606-53.617-16.606H9.437
	c-6.633,0-11.192,6.668-8.785,12.849l31.158,80.003c8.103,20.806,25.781,36.398,47.436,41.84l104.759,26.323
	c15.592,3.918,32.118,0.659,45.055-8.885l20.14-14.857c4.044-2.983,9.559-2.983,13.603,0l20.14,14.857
	c12.937,9.544,29.464,12.803,45.055,8.885l104.758-26.323c21.655-5.441,39.333-21.034,47.436-41.839l31.158-80.004
	C513.756,206.853,509.197,200.185,502.565,200.185z M212.397,282.898c-1.667,22.287-26.281,38.614-54.977,36.468
	c-28.696-2.146-50.608-21.953-48.941-44.24c1.667-22.287,26.281-38.614,54.977-36.468
	C192.152,240.805,214.064,260.611,212.397,282.898z M354.582,319.366c-28.696,2.146-53.31-14.181-54.977-36.468
	s20.245-42.094,48.941-44.24c28.696-2.146,53.31,14.181,54.977,36.468C405.19,297.413,383.278,317.22,354.582,319.366z"/>
<g>
	<path style="fill:#5C626B;" d="M67.915,200.185H9.437c-6.633,0-11.192,6.668-8.785,12.849l31.158,80.003
		c8.103,20.806,25.781,36.398,47.436,41.84l11.21,2.817C58.062,276.302,61.326,232.596,67.915,200.185z"/>
	<path style="fill:#5C626B;" d="M444.087,200.185h58.477c6.633,0,11.192,6.668,8.785,12.849l-31.158,80.003
		c-8.103,20.806-25.781,36.398-47.436,41.84l-11.21,2.817C453.94,276.302,450.676,232.596,444.087,200.185z"/>
</g>
<path style="opacity:0.1;enable-background:new    ;" d="M44.133,200.185H9.437c-6.633,0-11.192,6.668-8.785,12.849l31.158,80.003
	c8.103,20.806,25.781,36.398,47.436,41.84l38.983,9.796C74.904,308.948,50.992,243.008,44.133,200.185z"/>
<g>
</g>
<g>
</g>
<g>
</g>
<g>
</g>
<g>
</g>
<g>
</g>
<g>
</g>
<g>
</g>
<g>
</g>
<g>
</g>
<g>
</g>
<g>
</g>
<g>
</g>
<g>
</g>
<g>
</g>
</svg>
