<?xml version="1.0" encoding="iso-8859-1"?>
<!-- Generator: Adobe Illustrator 19.0.0, SVG Export Plug-In . SVG Version: 6.00 Build 0)  -->
<svg version="1.1" id="Capa_1" xmlns="http://www.w3.org/2000/svg" xmlns:xlink="http://www.w3.org/1999/xlink" x="0px" y="0px"
	 viewBox="0 0 512 512" style="enable-background:new 0 0 512 512;" xml:space="preserve">
<circle style="fill:#FBE067;" cx="256" cy="42.26" r="42.26"/>
<path style="opacity:0.1;enable-background:new    ;" d="M243.034,2.035c-16.993,5.474-29.291,21.408-29.291,40.222
	c0,23.338,18.919,42.257,42.257,42.257c8.05,0,15.573-2.252,21.976-6.159C235.335,70.173,232.602,26.077,243.034,2.035z"/>
<circle style="fill:#E15F76;" cx="256" cy="260.31" r="197.2"/>
<path style="opacity:0.1;enable-background:new    ;" d="M435.593,178.758l-45.829,36.109c-10.646,8.388-25.868,7.557-35.537-1.941
	l-79.445-78.04c-10.427-10.242-27.137-10.242-37.564,0l-79.445,78.04c-2.479,2.435-5.326,4.291-8.364,5.578
	c-12.348-47.038,1.494-104.578,27.868-139.034C107.55,109.864,58.801,179.389,58.801,260.311
	c0,108.91,88.289,197.199,197.199,197.199s197.199-88.289,197.199-197.199C453.199,231.225,446.898,203.613,435.593,178.758z"/>
<path style="fill:#FBE067;" d="M454.576,442.287l52.918-260.157c2.457-12.08-11.481-20.666-21.164-13.036l-96.566,76.085
	c-10.646,8.388-25.868,7.557-35.537-1.941l-79.446-78.04c-10.427-10.242-27.137-10.242-37.564,0l-79.446,78.04
	c-9.669,9.498-24.891,10.33-35.537,1.941L25.67,169.095c-9.683-7.629-23.621,0.956-21.164,13.036l52.918,260.157h397.152V442.287z"
	/>
<path style="opacity:0.1;enable-background:new    ;" d="M141.39,410.333c-24.334-58.94-34.793-127.637-38.06-180.049l-77.66-61.189
	c-9.683-7.63-23.621,0.956-21.164,13.036l52.918,260.157h397.152l6.5-31.954H141.39V410.333z"/>
<path style="fill:#9B6A57;" d="M461.562,512H50.439c-19.251,0-34.856-15.606-34.856-34.856l0,0
	c0-19.251,15.606-34.856,34.856-34.856h411.123c19.251,0,34.856,15.606,34.856,34.856l0,0C496.418,496.394,480.812,512,461.562,512z
	"/>
<g>
	<path style="fill:#494F57;" d="M163.855,329.466c-4.143,0-7.5-3.358-7.5-7.5V306.25c0-4.142,3.357-7.5,7.5-7.5s7.5,3.358,7.5,7.5
		v15.716C171.355,326.108,167.997,329.466,163.855,329.466z"/>
	<path style="fill:#494F57;" d="M348.147,329.466c-4.143,0-7.5-3.358-7.5-7.5V306.25c0-4.142,3.357-7.5,7.5-7.5s7.5,3.358,7.5,7.5
		v15.716C355.647,326.108,352.289,329.466,348.147,329.466z"/>
	<path style="fill:#494F57;" d="M256.968,360.52L256.968,360.52c-14.651,0-26.528-11.877-26.528-26.528v-19.286
		c0-4,3.242-7.242,7.242-7.242h38.573c4,0,7.242,3.242,7.242,7.242v19.286C283.496,348.642,271.619,360.52,256.968,360.52z"/>
</g>
<g>
	<path style="fill:#E15F76;" d="M492.167,355.713l2.63-14.916c3.386-19.201-9.435-37.511-28.636-40.896l0,0
		c-19.201-3.386-37.511,9.435-40.896,28.636l-2.63,14.916c-3.386,19.201,9.435,37.511,28.636,40.896l0,0
		C470.472,387.734,488.782,374.914,492.167,355.713z"/>
	<path style="fill:#E15F76;" d="M19.833,355.713l-2.63-14.916c-3.386-19.201,9.435-37.511,28.636-40.896l0,0
		c19.201-3.386,37.511,9.435,40.896,28.636l2.63,14.916c3.386,19.201-9.435,37.511-28.636,40.896l0,0
		C41.528,387.734,23.218,374.914,19.833,355.713z"/>
</g>
<path style="opacity:0.1;enable-background:new    ;" d="M150.953,442.287H50.439c-19.251,0-34.856,15.606-34.856,34.856l0,0
	c0,19.25,15.606,34.856,34.856,34.856h100.514C123.262,496.63,118.802,457.51,150.953,442.287z"/>
<g>
</g>
<g>
</g>
<g>
</g>
<g>
</g>
<g>
</g>
<g>
</g>
<g>
</g>
<g>
</g>
<g>
</g>
<g>
</g>
<g>
</g>
<g>
</g>
<g>
</g>
<g>
</g>
<g>
</g>
</svg>
