<?xml version="1.0" encoding="iso-8859-1"?>
<!-- Generator: Adobe Illustrator 19.0.0, SVG Export Plug-In . SVG Version: 6.00 Build 0)  -->
<svg version="1.1" id="Capa_1" xmlns="http://www.w3.org/2000/svg" xmlns:xlink="http://www.w3.org/1999/xlink" x="0px" y="0px"
	 viewBox="0 0 512 512" style="enable-background:new 0 0 512 512;" xml:space="preserve">
<g>
	<path style="fill:#5C626B;" d="M50.665,169.477H18.847C8.438,169.477,0,161.039,0,150.63s8.438-18.847,18.847-18.847h31.819
		c10.409,0,18.847,8.438,18.847,18.847C69.512,161.039,61.074,169.477,50.665,169.477z"/>
	<path style="fill:#5C626B;" d="M355.697,372.377l5.217,25.538c2.54,12.434-9.392,22.921-21.397,18.807l0,0
		c-26.117-8.951-51.263-20.52-75.052-34.531l0,0c-5.224-3.077-11.707-3.077-16.931,0l0,0
		c-23.789,14.012-48.934,25.581-75.051,34.531l0,0c-12.005,4.114-23.937-6.373-21.397-18.807l5.217-25.538
		c6.226-30.478,33.039-52.367,64.147-52.367h71.1C322.658,320.01,349.47,341.899,355.697,372.377z"/>
</g>
<path style="opacity:0.15;enable-background:new    ;" d="M291.55,320.009h-71.1c-12.45,0-24.207,3.514-34.236,9.673
	c3.37,1.014,6.941,1.565,10.641,1.565l0,0c6.702,0,12.969,3.066,17.316,8.168c10.076,11.829,25.073,19.335,41.83,19.335
	s31.753-7.506,41.829-19.335c4.346-5.102,10.613-8.168,17.316-8.168l0,0c3.701,0,7.271-0.551,10.641-1.565
	C315.757,323.523,304,320.009,291.55,320.009z"/>
<g>
	<path style="fill:#5C626B;" d="M136.842,269.589c-56.611,0-102.667-46.057-102.667-102.667v-29.633
		c0-23.665,19.253-42.919,42.919-42.919h119.497c23.665,0,42.919,19.253,42.919,42.919v29.633
		C239.509,223.532,193.453,269.589,136.842,269.589z M77.094,132.063c-2.882,0-5.226,2.344-5.226,5.225v29.633
		c0,35.827,29.147,64.974,64.974,64.974s64.974-29.147,64.974-64.974v-29.633c0-2.881-2.344-5.225-5.225-5.225H77.094z"/>
	<path style="fill:#5C626B;" d="M493.153,169.477h-31.819c-10.409,0-18.847-8.438-18.847-18.847s8.438-18.847,18.847-18.847h31.819
		c10.409,0,18.847,8.438,18.847,18.847S503.563,169.477,493.153,169.477z"/>
	<path style="fill:#5C626B;" d="M375.158,269.589c-56.611,0-102.667-46.057-102.667-102.667v-29.633
		c0-23.665,19.254-42.919,42.919-42.919h119.496c23.665,0,42.919,19.253,42.919,42.919v29.633
		C477.826,223.532,431.769,269.589,375.158,269.589z M315.41,132.063c-2.882,0-5.226,2.344-5.226,5.225v29.633
		c0,35.827,29.148,64.974,64.974,64.974s64.974-29.147,64.974-64.974v-29.633c0-2.881-2.344-5.225-5.226-5.225H315.41z"/>
</g>
<path style="fill:#F3C0CC;" d="M296.513,223.313l-3.224-35.758c-1.74-19.297-17.914-34.078-37.289-34.078l0,0
	c-19.375,0-35.549,14.782-37.289,34.078l-3.224,35.758c-0.869,9.642-8.951,17.028-18.633,17.028l0,0
	c-20.371,0-36.884,16.514-36.884,36.884l0,0c0,20.371,16.514,36.884,36.884,36.884l0,0c6.702,0,12.969,3.066,17.316,8.168
	c10.076,11.829,25.073,19.335,41.83,19.335s31.753-7.506,41.829-19.335c4.346-5.102,10.613-8.168,17.316-8.168l0,0
	c20.371,0,36.884-16.514,36.884-36.884l0,0c0-20.371-16.514-36.884-36.884-36.884l0,0
	C305.464,240.341,297.382,232.955,296.513,223.313z"/>
<path style="opacity:0.15;enable-background:new    ;" d="M229.723,302.037c-21.336-11.59-19.575-31.399,1.996-47.247
	c21.989-16.155-1.773-64.303,17.518-100.696c-16.257,2.972-28.993,16.462-30.526,33.461l-3.224,35.758
	c-0.869,9.642-8.951,17.028-18.633,17.028l0,0c-20.371,0-36.884,16.514-36.884,36.884s16.514,36.884,36.884,36.884l0,0
	c6.702,0,12.969,3.066,17.316,8.168c10.076,11.829,25.073,19.335,41.83,19.335c9.804,0,18.996-2.585,26.962-7.086
	C245.603,336.719,246.277,311.029,229.723,302.037z"/>
<g>
	<path style="fill:#494F57;" d="M154.915,193.887c-4.142,0-7.5-3.358-7.5-7.5c0-5.83-4.743-10.574-10.574-10.574
		s-10.574,4.743-10.574,10.574c0,4.142-3.358,7.5-7.5,7.5s-7.5-3.358-7.5-7.5c0-14.102,11.472-25.574,25.574-25.574
		s25.574,11.472,25.574,25.574C162.415,190.529,159.058,193.887,154.915,193.887z"/>
	<path style="fill:#494F57;" d="M393.231,193.887c-4.143,0-7.5-3.358-7.5-7.5c0-5.83-4.743-10.574-10.573-10.574
		s-10.573,4.743-10.573,10.574c0,4.142-3.357,7.5-7.5,7.5s-7.5-3.358-7.5-7.5c0-14.102,11.472-25.574,25.573-25.574
		s25.573,11.472,25.573,25.574C400.731,190.529,397.374,193.887,393.231,193.887z"/>
</g>
<g>
</g>
<g>
</g>
<g>
</g>
<g>
</g>
<g>
</g>
<g>
</g>
<g>
</g>
<g>
</g>
<g>
</g>
<g>
</g>
<g>
</g>
<g>
</g>
<g>
</g>
<g>
</g>
<g>
</g>
</svg>
