<?xml version="1.0" encoding="iso-8859-1"?>
<!-- Generator: Adobe Illustrator 19.0.0, SVG Export Plug-In . SVG Version: 6.00 Build 0)  -->
<svg version="1.1" id="Capa_1" xmlns="http://www.w3.org/2000/svg" xmlns:xlink="http://www.w3.org/1999/xlink" x="0px" y="0px"
	 viewBox="0 0 512.001 512.001" style="enable-background:new 0 0 512.001 512.001;" xml:space="preserve">
<path style="fill:#E15F76;" d="M22.514,440.095c0-45.004,32.559-81.487,32.559-81.487s32.559,36.483,32.559,81.487
	c0,26.831-11.574,50.634-20.92,65.482c-5.391,8.565-17.887,8.565-23.278,0C34.087,490.729,22.514,466.926,22.514,440.095z"/>
<path style="fill:#FFE78C;" d="M43.434,505.577c5.391,8.565,17.887,8.565,23.278,0c5.872-9.328,12.621-22.193,16.829-37.121
	l-28.468-28.468c0,0-14.483,14.483-28.468,28.468C30.813,483.384,37.562,496.248,43.434,505.577z"/>
<path style="opacity:0.15;enable-background:new    ;" d="M55.073,478.612c-4.142,0-7.5-3.358-7.5-7.5V368.505
	c0-4.142,3.358-7.5,7.5-7.5s7.5,3.358,7.5,7.5v102.607C62.573,475.254,59.215,478.612,55.073,478.612z"/>
<circle style="fill:#F9993E;" cx="55.07" cy="367.36" r="32.818"/>
<path style="fill:#E15F76;" d="M489.486,440.095c0-45.004-32.559-81.487-32.559-81.487s-32.559,36.483-32.559,81.487
	c0,26.831,11.573,50.634,20.92,65.482c5.391,8.565,17.887,8.565,23.278,0C477.913,490.729,489.486,466.926,489.486,440.095z"/>
<path style="fill:#FFE78C;" d="M468.566,505.577c-5.391,8.565-17.887,8.565-23.278,0c-5.872-9.328-12.621-22.193-16.829-37.121
	l28.468-28.468c0,0,14.483,14.483,28.468,28.468C481.188,483.384,474.438,496.248,468.566,505.577z"/>
<path style="opacity:0.15;enable-background:new    ;" d="M456.927,478.612c-4.142,0-7.5-3.358-7.5-7.5V368.505
	c0-4.142,3.358-7.5,7.5-7.5s7.5,3.358,7.5,7.5v102.607C464.427,475.254,461.069,478.612,456.927,478.612z"/>
<circle style="fill:#F9993E;" cx="456.93" cy="367.36" r="32.818"/>
<path style="fill:#E15F76;" d="M309.452,130.551c34.22,73.385,8.869,157.633,8.869,157.633s-80.833-34.733-115.053-108.118
	C182.866,136.313,183.639,88.7,187.59,57.381c2.279-18.065,22.655-27.566,37.958-17.7C252.079,56.785,289.05,86.798,309.452,130.551
	z"/>
<path style="opacity:0.15;enable-background:new    ;" d="M309.452,130.551c34.22,73.385,8.869,157.633,8.869,157.633
	s-80.833-34.733-115.053-108.118C182.866,136.313,183.639,88.7,187.59,57.381c2.279-18.065,22.655-27.566,37.958-17.7
	C252.079,56.785,289.05,86.798,309.452,130.551z"/>
<path style="fill:#FFE78C;" d="M225.548,39.68c-15.304-9.866-35.679-0.365-37.958,17.7c-2.482,19.676-3.706,45.785,0.783,73.327
	l68.068,24.775c0,0,12.604-34.629,24.775-68.068C263.004,66.271,242.216,50.426,225.548,39.68z"/>
<path style="opacity:0.15;enable-background:new    ;" d="M310.8,279.546c-2.825,0-5.53-1.603-6.802-4.332l-78.021-167.315
	c-1.751-3.754-0.126-8.216,3.628-9.967c3.752-1.752,8.216-0.126,9.967,3.628l78.021,167.315c1.75,3.754,0.126,8.216-3.628,9.967
	C312.94,279.32,311.861,279.546,310.8,279.546z"/>
<path style="fill:#E15F76;" d="M354.798,130.551c-34.22,73.385-8.869,157.633-8.869,157.633s80.833-34.733,115.053-108.118
	c20.402-43.753,19.629-91.366,15.678-122.685c-2.279-18.065-22.655-27.566-37.958-17.7C412.171,56.785,375.2,86.798,354.798,130.551
	z"/>
<path style="opacity:0.15;enable-background:new    ;" d="M354.798,130.551c-34.22,73.385-8.869,157.633-8.869,157.633
	s80.833-34.733,115.053-108.118c20.402-43.753,19.629-91.366,15.678-122.685c-2.279-18.065-22.655-27.566-37.958-17.7
	C412.171,56.785,375.2,86.798,354.798,130.551z"/>
<path style="fill:#FFE78C;" d="M438.702,39.68c15.304-9.866,35.679-0.365,37.958,17.7c2.482,19.676,3.706,45.785-0.784,73.327
	l-68.068,24.775c0,0-12.604-34.629-24.775-68.068C401.246,66.271,422.034,50.426,438.702,39.68z"/>
<path style="opacity:0.15;enable-background:new    ;" d="M353.45,279.546c-1.061,0-2.139-0.227-3.164-0.705
	c-3.754-1.75-5.379-6.213-3.628-9.967l78.021-167.315c1.751-3.755,6.215-5.377,9.967-3.628c3.754,1.75,5.378,6.213,3.628,9.967
	l-78.021,167.315C358.98,277.943,356.274,279.546,353.45,279.546z"/>
<path style="fill:#E15F76;" d="M395.946,140.946c0,88.215-63.821,159.727-63.821,159.727s-63.821-71.512-63.821-159.727
	c0-52.594,22.686-99.251,41.007-128.355c10.568-16.788,35.061-16.788,45.629,0C373.26,41.695,395.946,88.352,395.946,140.946z"/>
<path style="fill:#FFE78C;" d="M354.939,12.591c-10.568-16.788-35.061-16.788-45.629,0c-11.51,18.285-24.74,43.501-32.988,72.762
	l55.802,55.803c0,0,28.389-28.389,55.802-55.803C379.679,56.092,366.45,30.876,354.939,12.591z"/>
<path style="opacity:0.15;enable-background:new    ;" d="M332.125,288.773c-4.142,0-7.5-3.358-7.5-7.5V80.146
	c0-4.142,3.358-7.5,7.5-7.5s7.5,3.358,7.5,7.5v201.127C339.625,285.415,336.267,288.773,332.125,288.773z"/>
<path style="fill:#9B6A57;" d="M427.109,367.84H84.891c-16.468,0-29.819-13.35-29.819-29.818v-36.127
	c0-16.468,13.35-29.818,29.819-29.818h342.217c16.468,0,29.818,13.35,29.818,29.818v36.127
	C456.927,354.49,443.577,367.84,427.109,367.84z"/>
<path style="opacity:0.15;enable-background:new    ;" d="M55.073,319.959v18.063c0,16.468,13.35,29.819,29.818,29.819h342.217
	c16.468,0,29.818-13.35,29.818-29.819v-18.063H55.073z"/>
<g>
	<circle style="fill:#FBE067;" cx="256" cy="319.96" r="21.13"/>
	<circle style="fill:#FBE067;" cx="103.75" cy="319.96" r="21.13"/>
</g>
<circle style="fill:#F9993E;" cx="179.87" cy="319.96" r="21.13"/>
<circle style="fill:#FBE067;" cx="408.25" cy="319.96" r="21.13"/>
<circle style="fill:#F9993E;" cx="332.12" cy="319.96" r="21.13"/>
<g>
	<path style="fill:#E15F76;" d="M203.231,460.464l-59.253,21.566c-3.469,1.263-7.306-0.526-8.569-3.996l-5.962-16.38
		c-1.263-3.47,0.526-7.306,3.996-8.569l59.253-21.566c3.469-1.263,7.306,0.526,8.569,3.996l5.962,16.38
		C208.489,455.365,206.7,459.202,203.231,460.464z"/>
	<path style="fill:#E15F76;" d="M308.77,460.464l59.253,21.566c3.47,1.263,7.306-0.526,8.569-3.996l5.962-16.38
		c1.263-3.47-0.526-7.306-3.996-8.569l-59.253-21.566c-3.47-1.263-7.306,0.526-8.569,3.996l-5.962,16.38
		C303.511,455.365,305.3,459.202,308.77,460.464z"/>
</g>
<g>
</g>
<g>
</g>
<g>
</g>
<g>
</g>
<g>
</g>
<g>
</g>
<g>
</g>
<g>
</g>
<g>
</g>
<g>
</g>
<g>
</g>
<g>
</g>
<g>
</g>
<g>
</g>
<g>
</g>
</svg>
