<?xml version="1.0" encoding="iso-8859-1"?>
<!-- Generator: Adobe Illustrator 19.0.0, SVG Export Plug-In . SVG Version: 6.00 Build 0)  -->
<svg version="1.1" id="Capa_1" xmlns="http://www.w3.org/2000/svg" xmlns:xlink="http://www.w3.org/1999/xlink" x="0px" y="0px"
	 viewBox="0 0 512 512" style="enable-background:new 0 0 512 512;" xml:space="preserve">
<path style="fill:#52B4DE;" d="M446.606,206.822c2.679-8.843,3.962-18.292,3.58-28.097c-1.717-44.044-37.356-79.89-81.389-81.855
	c-7.853-0.35-15.48,0.37-22.756,2.019c-6.444,1.461-13.061-1.362-16.406-7.061C314.818,66.578,287.393,49.622,256,49.622
	s-58.818,16.956-73.636,42.206c-3.344,5.699-9.962,8.522-16.406,7.061c-7.275-1.649-14.902-2.37-22.755-2.019
	c-44.034,1.965-79.673,37.81-81.39,81.854c-0.382,9.805,0.901,19.254,3.58,28.097c2.31,7.626-1.525,15.823-9.021,18.527
	C23.501,237.205,0,268.663,0,305.622c0,39.551,26.909,72.813,63.418,82.487c5.144,1.363,9.168,5.357,10.583,10.487
	c9.955,36.082,42.998,62.586,82.247,62.586c15.079,0,29.236-3.924,41.525-10.792c4.629-2.587,10.287-2.554,14.851,0.147
	c12.71,7.52,27.537,11.84,43.376,11.84s30.666-4.32,43.376-11.84c4.564-2.701,10.222-2.734,14.851-0.147
	c12.29,6.868,26.446,10.792,41.525,10.792c39.248,0,72.291-26.503,82.247-62.586c1.415-5.129,5.44-9.124,10.583-10.487
	C485.091,378.435,512,345.173,512,305.622c0-36.959-23.501-68.417-56.373-80.274C448.132,222.645,444.296,214.447,446.606,206.822z"
	/>
<path style="fill:#F9993E;" d="M299.029,231.134c-0.4-0.163-0.786-0.359-1.17-0.559c-0.001,0.008-0.001,0.016-0.002,0.023
	C298.238,230.798,298.631,230.973,299.029,231.134z M214.144,230.598c-0.001-0.008-0.001-0.016-0.002-0.023
	c-0.384,0.2-0.771,0.396-1.171,0.559C213.369,230.973,213.762,230.798,214.144,230.598z M338.335,98.632
	c-3.571-1.061-6.714-3.42-8.699-6.803C314.818,66.578,287.393,49.622,256,49.622s-58.818,16.956-73.636,42.206
	c-1.985,3.383-5.127,5.742-8.699,6.803h0.001c20.766,36.277,36.901,86.685,40.475,131.944c1.553-0.809,2.973-1.908,4.15-3.311
	c9.028-10.756,22.566-17.596,37.708-17.596c15.142,0,28.68,6.84,37.708,17.596c1.177,1.403,2.597,2.502,4.15,3.311
	c3.574-45.259,19.709-95.667,40.475-131.944C338.334,98.631,338.334,98.631,338.335,98.632z"/>
<path style="opacity:0.3;enable-background:new    ;" d="M401.136,344.817c0-17.974-8.428-33.975-21.546-44.279
	c-4.142-3.253-6.073-8.498-5.06-13.666c0.87-4.44,1.143-9.093,0.721-13.878c-2.086-23.665-21.174-42.678-44.85-44.641
	c-7.562-0.627-14.799,0.465-21.371,2.92c-5.457,2.039-11.577,0.453-15.323-4.009c-9.028-10.756-22.566-17.596-37.708-17.596
	s-28.68,6.84-37.708,17.596c-3.745,4.462-9.865,6.048-15.323,4.009c-6.572-2.455-13.808-3.547-21.371-2.92
	c-23.676,1.962-42.764,20.976-44.85,44.641c-0.422,4.785-0.149,9.438,0.721,13.878c1.013,5.168-0.918,10.413-5.06,13.666
	c-13.117,10.303-21.545,26.305-21.545,44.279c0,14.297,5.33,27.348,14.112,37.276c3.358,3.797,4.343,9.174,2.469,13.884
	c-2.237,5.622-3.469,11.752-3.469,18.172c0,22.094,14.563,40.768,34.608,46.995c14.263-0.385,27.646-4.275,39.333-10.835
	c4.598-2.581,10.187-2.445,14.726,0.239c12.706,7.513,27.526,11.829,43.356,11.829c15.831,0,30.651-4.315,43.356-11.829
	c4.538-2.684,10.127-2.821,14.724-0.24c11.707,6.573,25.117,10.464,39.409,10.837c20.011-6.25,34.535-24.926,34.535-46.996
	c0-6.42-1.232-12.55-3.469-18.172c-1.874-4.71-0.889-10.087,2.469-13.884C395.805,372.165,401.136,359.114,401.136,344.817z"/>
<circle style="fill:#E15F76;" cx="256" cy="375.489" r="51.06"/>
<path style="opacity:0.08;enable-background:new    ;" d="M268.343,410.326c-26.058,0-47.182-21.124-47.182-47.182
	c0-13.82,5.943-26.252,15.412-34.882c-18.563,7.644-31.634,25.904-31.634,47.225c0,28.2,22.86,51.06,51.06,51.06
	c21.32,0,39.58-13.072,47.225-31.634C294.595,404.383,282.164,410.326,268.343,410.326z"/>
<path style="fill:#FFE78C;" d="M173.667,98.631c-2.445,0.727-5.089,0.852-7.708,0.258c-7.275-1.649-14.902-2.37-22.755-2.019
	c-44.033,1.965-79.673,37.811-81.39,81.854c-0.382,9.805,0.901,19.254,3.58,28.097c2.31,7.626-1.525,15.823-9.021,18.527
	c-10.377,3.743-19.817,9.444-27.882,16.65c20.773,24.569,55.343,57.465,89.147,76.076c3.688-6.81,8.722-12.784,14.772-17.536
	c4.142-3.253,6.073-8.498,5.06-13.666c-0.87-4.44-1.143-9.093-0.721-13.878c2.086-23.665,21.174-42.678,44.85-44.641
	c7.563-0.627,14.799,0.465,21.371,2.92c3.74,1.397,7.79,1.091,11.175-0.675C210.574,185.335,194.436,134.914,173.667,98.631z"/>
<path style="fill:#64D19B;" d="M338.333,98.631c2.445,0.727,5.089,0.852,7.708,0.258c7.275-1.649,14.902-2.37,22.755-2.019
	c44.033,1.965,79.673,37.811,81.39,81.854c0.382,9.805-0.901,19.254-3.58,28.097c-2.31,7.626,1.525,15.823,9.021,18.527
	c10.377,3.743,19.817,9.444,27.882,16.65c-20.773,24.569-55.343,57.465-89.147,76.076c-3.688-6.81-8.722-12.784-14.772-17.536
	c-4.142-3.253-6.073-8.498-5.06-13.666c0.87-4.44,1.143-9.093,0.721-13.878c-2.086-23.665-21.174-42.678-44.85-44.641
	c-7.563-0.627-14.799,0.465-21.371,2.92c-3.74,1.397-7.79,1.091-11.175-0.675C301.426,185.335,317.564,134.914,338.333,98.631z"/>
<path style="opacity:0.1;enable-background:new    ;" d="M123.976,414.148c0-6.42,1.232-12.55,3.469-18.172
	c1.874-4.709,0.889-10.087-2.469-13.884c-8.782-9.928-14.112-22.979-14.112-37.276c0-17.974,8.428-33.975,21.545-44.278
	c4.142-3.253,6.073-8.498,5.06-13.666c-0.87-4.44-1.143-9.093-0.721-13.878c0.619-7.027,2.748-13.638,6.041-19.521
	c-22.797-17.742-20.422-43.514-15.822-63.63c1.638-7.163-0.699-14.686-6.195-19.562c-14.363-12.742-22.377-34.796-16.994-61.6
	c-24.198,14.366-40.807,40.329-41.965,70.042c-0.382,9.805,0.901,19.254,3.58,28.097c2.31,7.626-1.525,15.823-9.021,18.527
	C23.501,237.205,0,268.663,0,305.622c0,39.551,26.909,72.813,63.418,82.487c5.144,1.363,9.168,5.357,10.583,10.487
	c9.955,36.082,42.998,62.585,82.247,62.585c1.612,0,3.162-0.06,2.337-0.038C138.539,454.917,123.976,436.242,123.976,414.148z"/>
<g>
</g>
<g>
</g>
<g>
</g>
<g>
</g>
<g>
</g>
<g>
</g>
<g>
</g>
<g>
</g>
<g>
</g>
<g>
</g>
<g>
</g>
<g>
</g>
<g>
</g>
<g>
</g>
<g>
</g>
</svg>
