<?xml version="1.0" encoding="iso-8859-1"?>
<!-- Generator: Adobe Illustrator 19.0.0, SVG Export Plug-In . SVG Version: 6.00 Build 0)  -->
<svg version="1.1" id="Capa_1" xmlns="http://www.w3.org/2000/svg" xmlns:xlink="http://www.w3.org/1999/xlink" x="0px" y="0px"
	 viewBox="0 0 512 512" style="enable-background:new 0 0 512 512;" xml:space="preserve">
<path style="fill:#494F57;" d="M442.422,429.447c-81.058,0-275.002-14.486-356.7-42.179c-3.924-1.33-6.025-5.588-4.695-9.511
	c1.329-3.923,5.593-6.023,9.51-4.695c80.161,27.171,271.691,41.385,351.886,41.385c4.143,0,7.5,3.358,7.5,7.5
	S446.565,429.447,442.422,429.447z"/>
<path style="fill:#5C626B;" d="M91.895,333.369c-40.885,0-76.397-26.265-88.369-65.358c-4.882-15.942-1.878-33.464,8.036-46.87
	c9.915-13.406,25.789-21.41,42.463-21.41h28.061c10.415,0,19.172-7.814,20.354-18.161l5.669-49.615
	c8.614-75.4,72.468-132.217,148.416-131.954c75.81,0.263,138.964,58.411,147.569,133.732l5.465,47.838
	c1.182,10.348,9.94,18.161,20.354,18.161h28.061c16.674,0,32.549,8.003,42.463,21.41c9.915,13.406,12.918,30.927,8.036,46.87
	c-11.972,39.092-47.483,65.357-88.368,65.357H91.895z"/>
<path style="fill:#FFFFFF;" d="M462.7,242.154h-41.212c-27.197,0-50.034-20.376-53.121-47.398l-6.625-57.984
	C355.597,82.984,310.138,42.423,256,42.423s-99.597,40.561-105.742,94.349l-6.625,57.985c-3.087,27.021-25.924,47.398-53.121,47.398
	H49.3c-4.143,0-7.5-3.358-7.5-7.5s3.357-7.5,7.5-7.5h41.212c19.567,0,35.997-14.66,38.219-34.1l6.625-57.985
	C142.366,73.701,194.232,27.423,256,27.423s113.634,46.278,120.645,107.646l6.625,57.985c2.222,19.44,18.651,34.101,38.219,34.101
	H462.7c4.143,0,7.5,3.358,7.5,7.5C470.2,238.796,466.843,242.154,462.7,242.154z"/>
<g>
	<path style="fill:#FFE78C;" d="M321.325,295.273c-1.104,0-2.225-0.244-3.283-0.761L187.38,230.751
		c-3.723-1.816-5.268-6.307-3.451-10.029c1.816-3.722,6.307-5.269,10.029-3.451l130.662,63.761
		c3.723,1.816,5.268,6.307,3.451,10.029C326.772,293.724,324.103,295.273,321.325,295.273z"/>
	<path style="fill:#FFE78C;" d="M190.675,295.273c-2.777,0-5.446-1.548-6.746-4.212c-1.816-3.723-0.271-8.213,3.451-10.029
		l130.662-63.761c3.724-1.817,8.213-0.271,10.029,3.451c1.816,3.723,0.271,8.213-3.451,10.029l-130.662,63.761
		C192.899,295.028,191.778,295.273,190.675,295.273z"/>
	<path style="fill:#FFE78C;" d="M321.335,231.512c-0.669,0-1.35-0.09-2.025-0.28c-3.989-1.117-6.317-5.255-5.201-9.244l3.202-11.438
		c1.117-3.988,5.256-6.319,9.244-5.2c3.989,1.117,6.317,5.255,5.201,9.244l-3.202,11.438
		C327.626,229.345,324.614,231.512,321.335,231.512z"/>
	<path style="fill:#FFE78C;" d="M332.773,234.715c-0.669,0-1.35-0.09-2.026-0.28l-11.438-3.203c-3.988-1.117-6.316-5.256-5.2-9.245
		c1.117-3.987,5.25-6.318,9.245-5.2l11.438,3.203c3.988,1.117,6.316,5.256,5.2,9.245
		C339.064,232.547,336.052,234.715,332.773,234.715z"/>
	<path style="fill:#FFE78C;" d="M324.529,306.711c-3.279,0-6.291-2.167-7.219-5.48l-3.202-11.438
		c-1.116-3.989,1.212-8.128,5.201-9.244c3.988-1.12,8.127,1.212,9.244,5.2l3.202,11.438c1.116,3.989-1.212,8.128-5.201,9.244
		C325.879,306.621,325.198,306.711,324.529,306.711z"/>
	<path style="fill:#FFE78C;" d="M321.327,295.273c-3.279,0-6.291-2.167-7.219-5.479c-1.116-3.989,1.212-8.128,5.2-9.245
		l11.438-3.203c3.987-1.119,8.128,1.212,9.245,5.2c1.116,3.989-1.212,8.128-5.2,9.245l-11.438,3.203
		C322.678,295.183,321.996,295.273,321.327,295.273z"/>
	<path style="fill:#FFE78C;" d="M190.665,231.512c-3.279,0-6.291-2.167-7.219-5.48l-3.202-11.438
		c-1.116-3.989,1.212-8.127,5.201-9.244c3.987-1.119,8.127,1.212,9.244,5.2l3.202,11.438c1.116,3.989-1.212,8.127-5.201,9.244
		C192.015,231.422,191.334,231.512,190.665,231.512z"/>
	<path style="fill:#FFE78C;" d="M179.228,234.715c-3.279,0-6.291-2.167-7.219-5.479c-1.116-3.989,1.212-8.128,5.2-9.245
		l11.438-3.203c3.988-1.119,8.128,1.212,9.245,5.2c1.116,3.989-1.212,8.128-5.2,9.245l-11.438,3.203
		C180.578,234.625,179.897,234.715,179.228,234.715z"/>
	<path style="fill:#FFE78C;" d="M187.471,306.711c-0.669,0-1.35-0.09-2.025-0.28c-3.989-1.117-6.317-5.255-5.201-9.244l3.202-11.438
		c1.117-3.988,5.254-6.32,9.244-5.2c3.989,1.117,6.317,5.255,5.201,9.244l-3.202,11.438
		C193.762,304.544,190.75,306.711,187.471,306.711z"/>
	<path style="fill:#FFE78C;" d="M190.673,295.273c-0.669,0-1.35-0.09-2.026-0.28l-11.438-3.203c-3.988-1.117-6.316-5.256-5.2-9.245
		c1.117-3.987,5.251-6.318,9.245-5.2l11.438,3.203c3.988,1.117,6.316,5.256,5.2,9.245
		C196.964,293.105,193.952,295.273,190.673,295.273z"/>
</g>
<path style="fill:#5C626B;" d="M330.851,512L330.851,512c-38.975,0-70.57-31.595-70.57-70.57v-41.998
	c0-10.641,8.626-19.267,19.267-19.267h102.607c10.641,0,19.267,8.626,19.267,19.267v41.998C401.421,480.405,369.826,512,330.851,512
	z"/>
<circle style="fill:#FFE78C;" cx="256" cy="148.95" r="63.19"/>
<g>
	<path style="fill:#494F57;" d="M217.723,157.184c-4.143,0-7.5-3.358-7.5-7.5v-6.354c0-4.142,3.357-7.5,7.5-7.5s7.5,3.358,7.5,7.5
		v6.354C225.223,153.826,221.865,157.184,217.723,157.184z"/>
	<path style="fill:#494F57;" d="M294.277,157.184c-4.142,0-7.5-3.358-7.5-7.5v-6.354c0-4.142,3.358-7.5,7.5-7.5
		c4.143,0,7.5,3.358,7.5,7.5v6.354C301.777,153.826,298.42,157.184,294.277,157.184z"/>
	<path style="fill:#494F57;" d="M256,162.063c-6.035,0-11.774-2.613-15.746-7.17c-2.722-3.123-2.396-7.86,0.727-10.582
		c3.122-2.721,7.859-2.396,10.582,0.727c1.138,1.306,2.714,2.025,4.438,2.025s3.3-0.719,4.438-2.025
		c2.722-3.123,7.459-3.448,10.582-0.727c3.122,2.722,3.448,7.46,0.727,10.582C267.774,159.45,262.035,162.063,256,162.063z"/>
</g>
<path style="opacity:0.15;enable-background:new    ;" d="M172.728,25.441c-34.969,23.615-59.509,61.796-64.617,106.515
	l-5.669,49.615c-1.182,10.347-9.94,18.161-20.354,18.161H54.026c-16.674,0-32.549,8.003-42.463,21.41
	c-9.915,13.406-12.919,30.928-8.036,46.87c11.972,39.092,47.484,65.358,88.369,65.358h142.716
	C170.435,289.53,156.316,109.852,172.728,25.441z"/>
<path style="opacity:0.15;enable-background:new    ;" d="M294.913,380.165h-15.365c-10.641,0-19.267,8.626-19.267,19.267v41.998
	c0,38.975,31.595,70.57,70.57,70.57l0,0c0.574,0,1.14-0.03,1.711-0.043C296.204,488.392,294.3,415.646,294.913,380.165z"/>
<g>
</g>
<g>
</g>
<g>
</g>
<g>
</g>
<g>
</g>
<g>
</g>
<g>
</g>
<g>
</g>
<g>
</g>
<g>
</g>
<g>
</g>
<g>
</g>
<g>
</g>
<g>
</g>
<g>
</g>
</svg>
