<?xml version="1.0" encoding="iso-8859-1"?>
<!-- Generator: Adobe Illustrator 19.0.0, SVG Export Plug-In . SVG Version: 6.00 Build 0)  -->
<svg version="1.1" id="Capa_1" xmlns="http://www.w3.org/2000/svg" xmlns:xlink="http://www.w3.org/1999/xlink" x="0px" y="0px"
	 viewBox="0 0 512.001 512.001" style="enable-background:new 0 0 512.001 512.001;" xml:space="preserve">
<g>
	<path style="fill:#FBE067;" d="M460.314,318.974c-7.018-4.381-17.165-9.07-28.45-9.07c-15.267,0-28.45,8.581-34.623,13.373
		c-2.06,1.599-2.06,4.691,0,6.29c0.976,7.753,4.23,23.143,15.026,33.938c7.98,7.98,18.47,11.839,26.531,13.704
		c6.307,1.459,11.992-4.227,10.533-10.533c-1.686-7.287-5.013-16.554-11.53-24.163c8.878-1.247,16.751-5.046,22.513-8.643
		C465.805,330.443,465.805,322.402,460.314,318.974z"/>
	<circle style="fill:#FBE067;" cx="391.11" cy="321.901" r="29.365"/>
</g>
<circle style="opacity:0.08;enable-background:new    ;" cx="391.11" cy="321.901" r="29.365"/>
<path style="fill:#9B6A57;" d="M314.127,34.675l-38.761,9.468c-12.724,3.108-26.008,3.108-38.732,0l-38.761-9.468
	c-29.945-7.315-59.376,13.746-62.116,44.45l-10.434,116.946h261.355L376.242,79.124C373.503,48.421,344.072,27.36,314.127,34.675z"
	/>
<polygon style="fill:#5C626B;" points="381.936,142.931 130.064,142.931 125.323,196.071 386.677,196.071 "/>
<path style="opacity:0.15;enable-background:new    ;" d="M197.873,34.675c-29.945-7.315-59.376,13.746-62.116,44.45
	l-10.434,116.946h43.573l10.435-116.947c1.71-19.161,13.816-34.565,29.954-41.662L197.873,34.675z"/>
<path style="fill:#9B6A57;" d="M423.452,122.794l-30.682,57.43c-2.954,5.529-8.713,8.982-14.982,8.982H134.212
	c-6.269,0-12.028-3.453-14.982-8.982l-30.682-57.43c-14.556-27.246-42.936-44.26-73.826-44.26l0,0
	c-9.776,0-16.833,9.357-14.146,18.757l20.462,71.579c9.637,33.712,40.453,56.954,75.516,56.954h318.895
	c35.063,0,65.879-23.241,75.516-56.954l20.461-71.579c2.687-9.399-4.371-18.757-14.146-18.757l0,0
	C466.388,78.534,438.008,95.548,423.452,122.794z"/>
<path style="fill:#FBE067;" d="M385.097,314.616c-17.089,36.531-52.847,106.914-92.226,148.332
	c-20.076,21.115-53.665,21.115-73.741,0c-39.38-41.418-75.137-111.801-92.226-148.332c-5.137-10.981,2.873-23.573,14.996-23.573
	h228.202C382.224,291.043,390.234,303.635,385.097,314.616z"/>
<path style="fill:#5C626B;" d="M192.407,376.056l-21.447,21.447c2.627,4.31,5.323,8.606,8.069,12.865
	c0.472-0.296,0.922-0.642,1.333-1.053l22.652-22.653c2.929-2.929,2.929-7.678,0-10.606
	C200.085,373.127,195.337,373.127,192.407,376.056z M380.548,294.747c-2.797-2.288-6.389-3.703-10.447-3.703h-3.475l-21.512,21.513
	c-2.929,2.929-2.929,7.678,0,10.606c1.465,1.464,3.385,2.197,5.304,2.197c1.919,0,3.839-0.732,5.304-2.197l22.652-22.653
	C379.954,298.928,380.674,296.817,380.548,294.747z M225.814,291.043l-18.839,18.839c-2.929,2.929-2.929,7.678,0,10.607
	c1.465,1.464,3.385,2.197,5.304,2.197s3.839-0.732,5.304-2.197l22.652-22.653c1.845-1.845,2.525-4.413,2.045-6.793L225.814,291.043
	L225.814,291.043z M142.672,320.373l-8.806,8.806c2.182,4.469,4.537,9.209,7.055,14.159l12.359-12.359
	c2.929-2.929,2.929-7.678,0-10.606C150.351,317.444,145.602,317.443,142.672,320.373z M287.628,334.635l-22.653,22.653
	c-2.929,2.929-2.929,7.678,0,10.607c1.465,1.465,3.384,2.197,5.304,2.197c1.919,0,3.839-0.732,5.304-2.197l22.653-22.653
	c2.929-2.929,2.929-7.678,0-10.606C295.306,331.706,290.558,331.706,287.628,334.635z M276.301,414.592l-22.652,22.653
	c-2.929,2.929-2.929,7.678,0,10.606c1.465,1.464,3.385,2.197,5.304,2.197c1.919,0,3.839-0.732,5.304-2.197l22.652-22.653
	c2.929-2.929,2.929-7.678,0-10.607C283.978,411.663,279.23,411.663,276.301,414.592z"/>
<g>
	<path style="fill:#494F57;" d="M197.711,105.246c-4.143,0-7.5-3.358-7.5-7.5v-9.941c0-4.142,3.357-7.5,7.5-7.5s7.5,3.358,7.5,7.5
		v9.941C205.211,101.888,201.853,105.246,197.711,105.246z"/>
	<path style="fill:#494F57;" d="M314.289,105.246c-4.143,0-7.5-3.358-7.5-7.5v-9.941c0-4.142,3.357-7.5,7.5-7.5s7.5,3.358,7.5,7.5
		v9.941C321.789,101.888,318.432,105.246,314.289,105.246z"/>
	<path style="fill:#494F57;" d="M273.393,105.353c0,9.471-7.846,17.11-17.393,16.77c-9.093-0.323-16.169-8.073-16.169-17.172V93.147
		c0-2.527,2.049-4.576,4.576-4.576h24.411c2.527,0,4.576,2.049,4.576,4.576L273.393,105.353L273.393,105.353z"/>
</g>
<path style="opacity:0.15;enable-background:new    ;" d="M39.809,82.383c-8.001-2.515-16.446-3.848-25.087-3.848l0,0
	c-9.776,0-16.833,9.357-14.146,18.757l20.461,71.579c9.637,33.712,40.453,56.954,75.516,56.954h28.532
	C67.689,196.576,47.279,128.226,39.809,82.383z"/>
<path style="opacity:0.08;enable-background:new    ;" d="M181.009,291.043H141.9c-12.123,0-20.133,12.592-14.996,23.572
	c17.089,36.531,52.847,106.914,92.226,148.332c14.9,15.671,37.239,19.7,55.977,12.11
	C233.642,447.051,193.811,338.504,181.009,291.043z"/>
<g>
</g>
<g>
</g>
<g>
</g>
<g>
</g>
<g>
</g>
<g>
</g>
<g>
</g>
<g>
</g>
<g>
</g>
<g>
</g>
<g>
</g>
<g>
</g>
<g>
</g>
<g>
</g>
<g>
</g>
</svg>
