<?xml version="1.0" encoding="iso-8859-1"?>
<!-- Generator: Adobe Illustrator 19.0.0, SVG Export Plug-In . SVG Version: 6.00 Build 0)  -->
<svg version="1.1" id="Capa_1" xmlns="http://www.w3.org/2000/svg" xmlns:xlink="http://www.w3.org/1999/xlink" x="0px" y="0px"
	 viewBox="0 0 511.999 511.999" style="enable-background:new 0 0 511.999 511.999;" xml:space="preserve">
<path style="fill:#5C626B;" d="M322.968,202.849c-20.203-35.621-11.019-97.764,4.053-137.51c6.602-17.41-12.03-34.012-28.461-25.254
	C279.018,50.502,265.265,69.013,256,84.774L93.535,371.224h324.931L322.968,202.849z"/>
<polygon style="fill:#64D19B;" points="385.12,312.431 126.88,312.431 93.535,371.224 418.465,371.224 "/>
<path style="opacity:0.15;enable-background:new    ;" d="M255.869,85.005L93.535,371.224h121.408
	C168.496,300.775,227.725,162.939,255.869,85.005z"/>
<path style="fill:#FBE067;" d="M291.572,371.224h-71.143c-21.79,0-39.517-17.727-39.517-39.517v-8.403
	c0-21.79,17.727-39.517,39.517-39.517h71.143c21.79,0,39.517,17.727,39.517,39.517v8.403
	C331.088,353.497,313.361,371.224,291.572,371.224z M220.428,312.431c-5.995,0-10.873,4.878-10.873,10.873v8.403
	c0,5.995,4.878,10.873,10.873,10.873h71.143c5.995,0,10.873-4.878,10.873-10.873v-8.403c0-5.996-4.878-10.873-10.873-10.873H220.428
	z"/>
<path style="fill:#5C626B;" d="M460.449,474.327H51.551C23.08,474.327,0,451.247,0,422.776l0,0c0-28.471,23.08-51.551,51.551-51.551
	h408.897c28.471,0,51.551,23.08,51.551,51.551l0,0C512,451.247,488.92,474.327,460.449,474.327z"/>
<path style="opacity:0.15;enable-background:new    ;" d="M120.1,422.776L120.1,422.776c0-28.471,23.08-51.552,51.551-51.552h-120.1
	C23.08,371.224,0,394.305,0,422.776l0,0c0,28.471,23.08,51.551,51.551,51.551h120.1C143.18,474.327,120.1,451.247,120.1,422.776z"/>
<g>
	<path style="fill:#FFFFFF;" d="M181.785,430.545c-4.142,0-7.5-3.358-7.5-7.5v-12.319c0-4.142,3.358-7.5,7.5-7.5s7.5,3.358,7.5,7.5
		v12.319C189.285,427.187,185.927,430.545,181.785,430.545z"/>
	<path style="fill:#FFFFFF;" d="M330.215,430.545c-4.142,0-7.5-3.358-7.5-7.5v-12.319c0-4.142,3.358-7.5,7.5-7.5s7.5,3.358,7.5,7.5
		v12.319C337.715,427.187,334.357,430.545,330.215,430.545z"/>
	<path style="fill:#FFFFFF;" d="M256,440.005c-9.666,0-18.858-4.187-25.22-11.486c-2.722-3.122-2.396-7.86,0.726-10.581
		c3.122-2.722,7.86-2.397,10.581,0.726c3.513,4.03,8.583,6.342,13.913,6.342c5.329,0,10.4-2.312,13.913-6.342
		c2.722-3.123,7.458-3.448,10.581-0.726c3.123,2.721,3.448,7.459,0.726,10.581C274.858,435.819,265.666,440.005,256,440.005z"/>
</g>
<g>
</g>
<g>
</g>
<g>
</g>
<g>
</g>
<g>
</g>
<g>
</g>
<g>
</g>
<g>
</g>
<g>
</g>
<g>
</g>
<g>
</g>
<g>
</g>
<g>
</g>
<g>
</g>
<g>
</g>
</svg>
