<?xml version="1.0" encoding="iso-8859-1"?>
<!-- Generator: Adobe Illustrator 19.0.0, SVG Export Plug-In . SVG Version: 6.00 Build 0)  -->
<svg version="1.1" id="Capa_1" xmlns="http://www.w3.org/2000/svg" xmlns:xlink="http://www.w3.org/1999/xlink" x="0px" y="0px"
	 viewBox="0 0 512 512" style="enable-background:new 0 0 512 512;" xml:space="preserve">
<g>
	<path style="fill:#E6E7E8;" d="M42.624,66.417c2.651,22.242,10.048,44.184,19.943,64.553c9.951,20.37,22.562,39.36,37.137,55.616
		c14.516,16.227,31.136,29.793,48.103,38.182c8.458,4.197,16.928,7.058,24.975,8.457c8.063,1.41,15.65,1.382,22.783,0.135
		c25.379-4.435,49.548,12.544,53.983,37.924c4.435,25.379-12.544,49.548-37.923,53.982c-3.751,0.655-7.475,0.843-11.113,0.605
		l-4.946-0.363c-17.564-1.254-34.606-5.623-49.894-12.167c-15.331-6.538-28.963-15.131-40.942-24.74
		c-11.992-9.627-22.391-20.278-31.553-31.446c-9.159-11.179-17.092-22.893-24.045-34.929c-13.885-24.084-23.919-49.47-30.582-75.564
		c-3.307-13.053-5.731-26.302-7.09-39.703c-1.348-13.397-1.645-26.96-0.427-40.542c0.782-8.722,8.487-15.159,17.209-14.377
		c7.601,0.682,13.466,6.62,14.331,13.908L42.624,66.417z"/>
	<path style="fill:#E6E7E8;" d="M469.376,66.417c-2.651,22.242-10.048,44.184-19.943,64.553
		c-9.951,20.37-22.562,39.36-37.137,55.616c-14.516,16.227-31.136,29.793-48.103,38.182c-8.458,4.197-16.928,7.058-24.975,8.457
		c-8.063,1.41-15.65,1.382-22.783,0.135c-25.379-4.435-49.548,12.544-53.983,37.924c-4.435,25.379,12.544,49.548,37.923,53.982
		c3.751,0.655,7.475,0.843,11.113,0.605l4.946-0.363c17.564-1.254,34.606-5.623,49.894-12.167
		c15.331-6.538,28.963-15.131,40.942-24.74c11.992-9.627,22.391-20.278,31.553-31.446c9.159-11.179,17.091-22.893,24.045-34.929
		c13.885-24.084,23.919-49.47,30.582-75.564c3.307-13.053,5.731-26.302,7.09-39.703c1.349-13.397,1.645-26.96,0.428-40.542
		c-0.782-8.722-8.487-15.159-17.21-14.377c-7.601,0.682-13.467,6.62-14.331,13.908L469.376,66.417z"/>
</g>
<path style="opacity:0.1;enable-background:new    ;" d="M401.518,197.754c-11.727,11.259-24.425,20.635-37.326,27.014
	c-8.458,4.197-16.928,7.058-24.975,8.457c-8.063,1.41-15.65,1.382-22.783,0.135c-25.379-4.435-49.548,12.544-53.983,37.923
	s12.544,49.548,37.923,53.983c3.751,0.655,7.475,0.843,11.113,0.605l4.946-0.363c17.564-1.254,34.606-5.623,49.894-12.167
	c15.331-6.538,28.963-15.131,40.942-24.74c11.992-9.627,22.391-20.278,31.553-31.446c3.914-4.777,7.591-9.657,11.076-14.613
	C435.775,225.521,419.492,210.47,401.518,197.754z"/>
<path style="opacity:0.1;enable-background:new    ;" d="M249.548,271.283c-4.435-25.379-28.604-42.358-53.983-37.923
	c-7.133,1.246-14.72,1.275-22.783-0.135c-8.047-1.399-16.517-4.26-24.975-8.457c-12.901-6.379-25.598-15.755-37.326-27.014
	c-17.974,12.716-34.257,27.767-48.383,44.788c3.485,4.956,7.162,9.836,11.076,14.613c9.163,11.168,19.562,21.819,31.553,31.446
	c11.979,9.609,25.611,18.202,40.942,24.74c15.288,6.545,32.33,10.913,49.894,12.167l4.946,0.363
	c3.638,0.238,7.362,0.05,11.113-0.605C237.004,320.832,253.983,296.662,249.548,271.283z"/>
<path style="fill:#FBE067;" d="M256,176.516c-105.657,0-194.438,72.256-219.625,170.049h439.25
	C450.438,248.771,361.657,176.516,256,176.516z"/>
<path style="fill:#9B6A57;" d="M282.975,151.216h-53.949c-13.302,0-24.086,10.784-24.086,24.086V364.5h102.12V175.302
	C307.06,162,296.277,151.216,282.975,151.216z"/>
<path style="opacity:0.1;enable-background:new    ;" d="M465.675,316.766H154.478c-9.421-57.28,15.458-98.374,50.462-121.762
	v-12.707c-82.346,18.949-147.563,82.727-168.565,164.268h439.25C472.99,336.333,469.649,326.385,465.675,316.766z"/>
<g>
	<circle style="fill:#E9CB67;" cx="256" cy="289.81" r="19.846"/>
	<circle style="fill:#E9CB67;" cx="256" cy="208.82" r="19.846"/>
</g>
<path style="fill:#9B6A57;" d="M493.126,460.024H18.874C8.45,460.024,0,451.574,0,441.15v-75.711
	c0-10.424,8.45-18.874,18.874-18.874h474.252c10.424,0,18.874,8.45,18.874,18.874v75.711
	C512,451.574,503.55,460.024,493.126,460.024z"/>
<path style="opacity:0.1;enable-background:new    ;" d="M109.333,441.15v-75.711c0-10.424,8.45-18.874,18.874-18.874H18.874
	C8.45,346.565,0,355.015,0,365.439v75.711c0,10.424,8.45,18.874,18.874,18.874h109.333
	C117.784,460.024,109.333,451.574,109.333,441.15z"/>
<g>
	<path style="fill:#494F57;" d="M181.785,412.224c-4.142,0-7.5-3.358-7.5-7.5v-12.319c0-4.142,3.358-7.5,7.5-7.5s7.5,3.358,7.5,7.5
		v12.319C189.285,408.866,185.927,412.224,181.785,412.224z"/>
	<path style="fill:#494F57;" d="M330.215,412.224c-4.142,0-7.5-3.358-7.5-7.5v-12.319c0-4.142,3.358-7.5,7.5-7.5s7.5,3.358,7.5,7.5
		v12.319C337.715,408.866,334.357,412.224,330.215,412.224z"/>
	<path style="fill:#494F57;" d="M256,421.685c-9.666,0-18.858-4.187-25.22-11.486c-2.722-3.123-2.396-7.86,0.726-10.582
		c3.122-2.722,7.86-2.397,10.581,0.726c3.513,4.03,8.583,6.342,13.913,6.342s10.4-2.312,13.913-6.342
		c2.722-3.123,7.458-3.448,10.582-0.726c3.123,2.721,3.448,7.459,0.726,10.582C274.858,417.498,265.666,421.685,256,421.685z"/>
</g>
<g style="opacity:0.1;">
	<circle cx="39" cy="392.4" r="7.417"/>
	<circle cx="86" cy="432.86" r="7.417"/>
	<circle cx="116.46" cy="384.99" r="7.417"/>
	<circle cx="399.2" cy="423.05" r="7.417"/>
	<circle cx="442.48" cy="384.99" r="7.417"/>
	<circle cx="475.62" cy="414.18" r="7.417"/>
</g>
<g>
</g>
<g>
</g>
<g>
</g>
<g>
</g>
<g>
</g>
<g>
</g>
<g>
</g>
<g>
</g>
<g>
</g>
<g>
</g>
<g>
</g>
<g>
</g>
<g>
</g>
<g>
</g>
<g>
</g>
</svg>
