<?xml version="1.0" encoding="iso-8859-1"?>
<!-- Generator: Adobe Illustrator 19.0.0, SVG Export Plug-In . SVG Version: 6.00 Build 0)  -->
<svg version="1.1" id="Capa_1" xmlns="http://www.w3.org/2000/svg" xmlns:xlink="http://www.w3.org/1999/xlink" x="0px" y="0px"
	 viewBox="0 0 512 512" style="enable-background:new 0 0 512 512;" xml:space="preserve">
<path style="fill:#485458;" d="M341.252,301.426h-50.014V106.031H67.587V440.65h402.871v-10.019
	C470.457,359.273,412.61,301.426,341.252,301.426z"/>
<g>
	<path style="fill:#FFFFFF;" d="M443.366,419.243c-3.549,0-6.703-2.529-7.367-6.146c-1.09-5.927-2.75-11.777-4.933-17.388
		c-1.502-3.86,0.409-8.207,4.27-9.709c3.861-1.5,8.207,0.41,9.709,4.27c2.526,6.49,4.446,13.259,5.706,20.116
		c0.749,4.073-1.946,7.983-6.021,8.732C444.272,419.203,443.816,419.243,443.366,419.243z"/>
	<path style="fill:#FFFFFF;" d="M427.155,379.772c-2.398,0-4.756-1.148-6.207-3.281c-9.332-13.71-22.098-24.846-36.918-32.203
		c-2.778-1.38-5.659-2.639-8.562-3.742c-3.872-1.471-5.819-5.802-4.348-9.674c1.471-3.873,5.802-5.821,9.674-4.348
		c3.359,1.275,6.692,2.732,9.907,4.329c17.121,8.5,31.868,21.363,42.647,37.198c2.331,3.424,1.444,8.089-1.98,10.42
		C430.077,379.351,428.608,379.772,427.155,379.772z"/>
</g>
<path style="opacity:0.15;enable-background:new    ;" d="M67.587,106.031v110.962c4.2,1.098,8.564,1.769,13.053,1.926
	c9.029,0.317,17.636-1.338,25.426-4.567c11.007-4.563,23.64-3.119,33.543,3.507c11.386,7.619,25.074,12.064,39.803,12.064
	c14.73,0,28.418-4.445,39.804-12.064c9.902-6.626,22.536-8.069,33.542-3.506c7.79,3.229,16.397,4.884,25.425,4.568
	c4.489-0.157,8.854-0.828,13.055-1.926V106.031H67.587z"/>
<path style="fill:#EEEDED;" d="M475.281,440.65H62.763c-8.085,0-14.64,6.555-14.64,14.64v42.07c0,8.085,6.554,14.64,14.64,14.64
	h121.858c5.756,0,11.009-3.281,13.534-8.454l4.203-8.611c4.45-9.117,16.554-11.141,23.728-3.967l16.237,16.237
	c3.07,3.07,7.233,4.794,11.574,4.794h221.384c8.085,0,14.64-6.555,14.64-14.64v-42.07
	C489.921,447.205,483.366,440.65,475.281,440.65z"/>
<path style="opacity:0.15;enable-background:new    ;" d="M475.281,440.65H62.763c-8.085,0-14.64,6.555-14.64,14.64v42.07
	c0,8.085,6.554,14.64,14.64,14.64h121.858c5.756,0,11.009-3.281,13.534-8.454l4.203-8.611c4.45-9.117,16.554-11.141,23.728-3.967
	l16.237,16.237c3.07,3.07,7.233,4.794,11.574,4.794h221.384c8.085,0,14.64-6.555,14.64-14.64v-42.07
	C489.921,447.205,483.366,440.65,475.281,440.65z"/>
<path style="fill:#EEEDED;" d="M336.699,69.312c-1.219-31.539-26.971-57.203-58.515-58.309c-9.029-0.316-17.636,1.338-25.426,4.567
	c-11.007,4.563-23.64,3.12-33.542-3.506C207.83,4.445,194.142,0,179.412,0s-28.417,4.445-39.803,12.064
	c-9.903,6.626-22.536,8.07-33.543,3.507c-7.79-3.229-16.398-4.884-25.427-4.567c-31.543,1.107-57.294,26.771-58.513,58.31
	c-0.278,7.202,0.704,14.135,2.738,20.603c1.782,5.667,1.782,11.743,0,17.41c-2.034,6.468-3.017,13.401-2.738,20.604
	c1.219,31.539,26.97,57.203,58.513,58.309c9.029,0.317,17.636-1.338,25.426-4.567c11.007-4.563,23.64-3.12,33.543,3.507
	c11.386,7.619,25.074,12.063,39.803,12.063c14.73,0,28.418-4.445,39.804-12.064c9.902-6.626,22.536-8.069,33.542-3.506
	c7.79,3.229,16.397,4.884,25.425,4.567c31.543-1.106,57.296-26.77,58.515-58.309c0.279-7.203-0.704-14.136-2.738-20.604
	c-1.782-5.668-1.782-11.743,0-17.411C335.995,83.448,336.977,76.515,336.699,69.312z"/>
<path style="opacity:0.1;enable-background:new    ;" d="M56.592,127.93c-0.279-7.202,0.704-14.136,2.738-20.604
	c1.782-5.667,1.782-11.743,0-17.41c-2.034-6.468-3.016-13.401-2.738-20.603c1.019-26.359,19.178-48.603,43.529-55.849
	c-6.144-1.822-12.694-2.7-19.482-2.461c-31.543,1.107-57.294,26.771-58.513,58.31c-0.278,7.202,0.704,14.135,2.738,20.603
	c1.782,5.667,1.782,11.743,0,17.41c-2.034,6.468-3.017,13.401-2.738,20.604c1.219,31.539,26.971,57.203,58.513,58.309
	c6.788,0.238,13.338-0.639,19.482-2.461C75.771,176.533,57.611,154.289,56.592,127.93z"/>
<g style="opacity:0.1;">
	<path d="M111.971,107.637c-1.92,0-3.839-0.732-5.303-2.196L75.215,73.988c-2.93-2.93-2.93-7.678-0.001-10.606
		c2.931-2.931,7.68-2.928,10.606-0.001l31.453,31.452c2.93,2.93,2.93,7.678,0.001,10.606
		C115.81,106.904,113.89,107.637,111.971,107.637z"/>
	<path d="M156.879,153.413c-1.919,0-3.839-0.732-5.303-2.196c-2.93-2.929-2.93-7.678-0.001-10.606l19.09-19.091
		c2.93-2.93,7.679-2.929,10.607-0.001c2.93,2.929,2.93,7.678,0.001,10.606l-19.09,19.091
		C160.718,152.681,158.798,153.413,156.879,153.413z"/>
	<path d="M236.33,85.35c-1.919,0-3.839-0.732-5.304-2.196l-26.52-26.519c-2.929-2.93-2.929-7.678,0-10.607
		c2.93-2.928,7.678-2.928,10.607,0l26.52,26.519c2.929,2.93,2.929,7.678,0,10.607C240.169,84.617,238.249,85.35,236.33,85.35z"/>
	<path d="M246.553,145.515c-1.919,0-3.839-0.732-5.304-2.196c-2.929-2.93-2.929-7.678,0-10.607l31.754-31.754
		c2.93-2.928,7.678-2.928,10.607,0c2.929,2.93,2.929,7.678,0,10.607l-31.754,31.754
		C250.392,144.782,248.472,145.515,246.553,145.515z"/>
</g>
<path style="fill:#F8CA4F;" d="M295.936,316.426H200.42c-8.284,0-15-6.716-15-15V240.32c0-8.284,6.716-15,15-15h95.516
	c8.284,0,15,6.716,15,15v61.106C310.936,309.71,304.221,316.426,295.936,316.426z M215.421,286.426h65.516V255.32h-65.516
	L215.421,286.426L215.421,286.426z"/>
<g>
</g>
<g>
</g>
<g>
</g>
<g>
</g>
<g>
</g>
<g>
</g>
<g>
</g>
<g>
</g>
<g>
</g>
<g>
</g>
<g>
</g>
<g>
</g>
<g>
</g>
<g>
</g>
<g>
</g>
</svg>
