<?xml version="1.0" encoding="iso-8859-1"?>
<!-- Generator: Adobe Illustrator 19.0.0, SVG Export Plug-In . SVG Version: 6.00 Build 0)  -->
<svg version="1.1" id="Capa_1" xmlns="http://www.w3.org/2000/svg" xmlns:xlink="http://www.w3.org/1999/xlink" x="0px" y="0px"
	 viewBox="0 0 512 512" style="enable-background:new 0 0 512 512;" xml:space="preserve">
<path style="fill:#F8CA4F;" d="M256,149.388c-41.186,0-74.694-33.507-74.694-74.693C181.306,33.508,214.814,0,256,0
	c41.186,0,74.694,33.508,74.694,74.694C330.694,115.881,297.186,149.388,256,149.388z M256,32.47
	c-23.282,0-42.224,18.942-42.224,42.224s18.942,42.223,42.224,42.223s42.224-18.941,42.224-42.223S279.282,32.47,256,32.47z"/>
<path style="opacity:0.1;enable-background:new    ;" d="M256,149.388c-41.186,0-74.694-33.507-74.694-74.693
	C181.306,33.508,214.814,0,256,0c41.186,0,74.694,33.508,74.694,74.694C330.694,115.881,297.186,149.388,256,149.388z M256,32.47
	c-23.282,0-42.224,18.942-42.224,42.224s18.942,42.223,42.224,42.223s42.224-18.941,42.224-42.223S279.282,32.47,256,32.47z"/>
<circle style="fill:#F8CA4F;" cx="256" cy="313.02" r="198.98"/>
<path style="opacity:0.15;enable-background:new    ;" d="M127.984,412.006c-13.887,0-25.928,7.875-31.922,19.399
	c13.808,18.623,30.792,34.745,50.149,47.576c10.615-6.254,17.742-17.794,17.742-31.006
	C163.953,428.109,147.849,412.006,127.984,412.006z"/>
<path style="opacity:0.15;enable-background:new    ;" d="M384.016,412.006c13.887,0,25.928,7.875,31.922,19.399
	c-13.807,18.623-30.792,34.745-50.149,47.576c-10.615-6.254-17.742-17.794-17.742-31.006
	C348.047,428.109,364.151,412.006,384.016,412.006z"/>
<path style="opacity:0.15;enable-background:new    ;" d="M256,385.757c-19.865,0-35.969,16.104-35.969,35.969
	c0,14.972,9.149,27.803,22.16,33.218v56.571C246.754,511.828,251.357,512,256,512c4.643,0,9.246-0.172,13.809-0.485v-56.571
	c13.011-5.415,22.16-18.246,22.16-33.218C291.969,401.861,275.865,385.757,256,385.757z"/>
<path style="opacity:0.1;enable-background:new    ;" d="M454.982,313.018c0-5.082-0.193-10.119-0.567-15.105H71.943
	c0.046-51.078,19.343-97.646,51.02-132.854c-40.482,36.424-65.944,89.215-65.944,147.958C57.018,422.913,146.105,512,256,512
	c58.744,0,111.535-25.462,147.959-65.945c-35.25,31.715-81.886,51.023-133.037,51.023c-86.232,0-159.643-54.857-187.263-131.574
	h364.312C452.533,348.781,454.982,331.187,454.982,313.018z"/>
<path style="fill:#F8CA4F;" d="M458.821,279.223H53.179c-18.665,0-33.795,15.131-33.795,33.795l0,0
	c0,18.665,15.131,33.795,33.795,33.795h405.642c18.665,0,33.795-15.131,33.795-33.795l0,0
	C492.616,294.353,477.486,279.223,458.821,279.223z"/>
<path style="opacity:0.15;enable-background:new    ;" d="M458.821,279.223H53.179c-18.665,0-33.795,15.131-33.795,33.795l0,0
	c0,18.665,15.131,33.795,33.795,33.795h405.642c18.665,0,33.795-15.131,33.795-33.795l0,0
	C492.616,294.353,477.486,279.223,458.821,279.223z"/>
<path style="opacity:0.1;enable-background:new    ;" d="M64.356,313.018c0-18.665,15.131-33.795,33.795-33.795H53.179
	c-18.665,0-33.795,15.131-33.795,33.795c0,18.665,15.131,33.795,33.795,33.795h44.972C79.487,346.814,64.356,331.683,64.356,313.018
	z"/>
<g>
	<path style="fill:#485458;" d="M172.834,213.914c-4.143,0-7.5-3.357-7.5-7.5v-13.805c0-4.143,3.357-7.5,7.5-7.5s7.5,3.357,7.5,7.5
		v13.805C180.334,210.557,176.977,213.914,172.834,213.914z"/>
	<path style="fill:#485458;" d="M339.166,213.914c-4.143,0-7.5-3.357-7.5-7.5v-13.805c0-4.143,3.357-7.5,7.5-7.5s7.5,3.357,7.5,7.5
		v13.805C346.666,210.557,343.309,213.914,339.166,213.914z"/>
	<path style="fill:#485458;" d="M277.926,216.977c0,13.151-10.895,23.758-24.152,23.287c-12.627-0.449-22.452-11.211-22.452-23.846
		v-16.39c0-3.509,2.845-6.354,6.354-6.354h33.897c3.509,0,6.354,2.845,6.354,6.354L277.926,216.977L277.926,216.977z"/>
</g>
<g>
</g>
<g>
</g>
<g>
</g>
<g>
</g>
<g>
</g>
<g>
</g>
<g>
</g>
<g>
</g>
<g>
</g>
<g>
</g>
<g>
</g>
<g>
</g>
<g>
</g>
<g>
</g>
<g>
</g>
</svg>
