<?xml version="1.0" encoding="iso-8859-1"?>
<!-- Generator: Adobe Illustrator 19.0.0, SVG Export Plug-In . SVG Version: 6.00 Build 0)  -->
<svg version="1.1" id="Capa_1" xmlns="http://www.w3.org/2000/svg" xmlns:xlink="http://www.w3.org/1999/xlink" x="0px" y="0px"
	 viewBox="0 0 512 512" style="enable-background:new 0 0 512 512;" xml:space="preserve">
<path style="fill:#F8CA4F;" d="M321.087,385.83l-131.294,35.18c-30.494,8.171-61.95-9.99-70.12-40.484
	c-8.171-30.493,9.99-61.949,40.484-70.12l131.294-35.18c30.494-8.171,61.95,9.99,70.121,40.484
	C369.742,346.203,351.581,377.659,321.087,385.83z M166.784,335.139c-16.856,4.517-26.895,21.904-22.379,38.76
	c4.517,16.856,21.904,26.895,38.76,22.378l131.294-35.18c16.857-4.517,26.895-21.905,22.379-38.76
	c-4.516-16.856-21.904-26.895-38.761-22.378L166.784,335.139z"/>
<path style="opacity:0.1;enable-background:new    ;" d="M321.087,385.83l-131.294,35.18c-30.494,8.171-61.95-9.99-70.12-40.484
	c-8.171-30.493,9.99-61.949,40.484-70.12l131.294-35.18c30.494-8.171,61.95,9.99,70.121,40.484
	C369.742,346.203,351.581,377.659,321.087,385.83z M166.784,335.139c-16.856,4.517-26.895,21.904-22.379,38.76
	c4.517,16.856,21.904,26.895,38.76,22.378l131.294-35.18c16.857-4.517,26.895-21.905,22.379-38.76
	c-4.516-16.856-21.904-26.895-38.761-22.378L166.784,335.139z"/>
<g>
	<path style="fill:#F8CA4F;" d="M339.096,181.81L61.862,256.095l20.162,75.247l277.234-74.285
		c16.879-4.523,34.866-2.105,49.952,6.713l79.886,46.697c11.727,6.855,25.873-3.939,22.357-17.06L452.726,74.232
		c-3.516-13.121-21.163-15.396-27.892-3.596l-45.835,80.384C370.343,166.2,355.975,177.287,339.096,181.81z"/>
	<path style="fill:#F8CA4F;" d="M75.145,350.608L45.434,364.06c-8.198,3.712-17.657,0.291-19.638-7.1L0.358,262.023
		c-1.981-7.392,4.502-15.084,13.457-15.968l32.457-3.206c6.813-0.673,12.818,2.901,14.325,8.524l22.693,84.69
		C84.796,341.687,81.382,347.784,75.145,350.608z"/>
</g>
<path style="opacity:0.15;enable-background:new    ;" d="M75.145,350.608L45.434,364.06c-8.198,3.712-17.657,0.291-19.638-7.1
	L0.358,262.023c-1.981-7.392,4.502-15.084,13.457-15.968l32.457-3.206c6.813-0.673,12.818,2.901,14.325,8.524l22.693,84.69
	C84.796,341.687,81.382,347.784,75.145,350.608z"/>
<path style="fill:#F8CA4F;" d="M264.267,424.661l-5.851,1.568c-6.173,1.654-12.517-2.009-14.171-8.182l-38.334-143.065l28.204-7.557
	l38.334,143.065C274.103,416.663,270.44,423.007,264.267,424.661z"/>
<path style="opacity:0.4;fill:#FFFFFF;enable-background:new    ;" d="M264.267,424.661l-5.851,1.568
	c-6.173,1.654-12.517-2.009-14.171-8.182l-38.334-143.065l28.204-7.557l38.334,143.065
	C274.103,416.663,270.44,423.007,264.267,424.661z"/>
<path style="opacity:0.1;enable-background:new    ;" d="M232.117,240.315l-38.032,10.191c-3.911,1.048-6.231,5.067-5.184,8.978
	l3.117,11.633c1.048,3.911,5.067,6.231,8.978,5.183l38.032-10.191c3.91-1.048,6.231-5.067,5.183-8.978l-3.117-11.633
	C240.047,241.587,236.028,239.267,232.117,240.315z"/>
<path style="fill:#F8CA4F;" d="M180.618,447.075l-5.851,1.568c-6.173,1.654-12.517-2.009-14.171-8.182l-38.334-143.065l28.204-7.557
	L188.8,432.904C190.453,439.076,186.79,445.421,180.618,447.075z"/>
<path style="opacity:0.4;fill:#FFFFFF;enable-background:new    ;" d="M180.618,447.075l-5.851,1.568
	c-6.173,1.654-12.517-2.009-14.171-8.182l-38.334-143.065l28.204-7.557L188.8,432.904
	C190.453,439.076,186.79,445.421,180.618,447.075z"/>
<path style="opacity:0.1;enable-background:new    ;" d="M148.468,262.728l-38.032,10.191c-3.911,1.048-6.231,5.068-5.184,8.978
	l3.117,11.633c1.048,3.911,5.067,6.231,8.978,5.184l38.032-10.191c3.91-1.048,6.231-5.068,5.183-8.978l-3.117-11.633
	C156.398,264.001,152.379,261.681,148.468,262.728z"/>
<path style="fill:#F8CA4F;" d="M342.065,403.815l5.851-1.568c6.173-1.654,9.836-7.999,8.182-14.171l-38.334-143.065l-28.204,7.557
	l38.334,143.065C329.548,401.806,335.893,405.469,342.065,403.815z"/>
<path style="opacity:0.4;fill:#FFFFFF;enable-background:new    ;" d="M342.065,403.815l5.851-1.568
	c6.173-1.654,9.836-7.999,8.182-14.171l-38.334-143.065l-28.204,7.557l38.334,143.065
	C329.548,401.806,335.893,405.469,342.065,403.815z"/>
<path style="opacity:0.1;enable-background:new    ;" d="M277.734,228.092l38.032-10.191c3.911-1.048,7.93,1.273,8.978,5.184
	l3.117,11.633c1.048,3.911-1.273,7.93-5.183,8.978l-38.032,10.191c-3.911,1.048-7.93-1.273-8.978-5.183l-3.117-11.633
	C271.503,233.159,273.824,229.139,277.734,228.092z"/>
<rect x="71.607" y="252.316" transform="matrix(-0.9659 0.2588 -0.2588 -0.9659 234.7175 551.6308)" style="opacity:0.05;enable-background:new    ;" width="18.883" height="77.899"/>
<g>
	<path style="fill:#FFFFFF;" d="M451.109,176.475c-3.311,0-6.342-2.21-7.239-5.561l-12.008-44.813
		c-1.072-4.001,1.302-8.113,5.303-9.186c4.001-1.072,8.114,1.302,9.186,5.303l12.008,44.813c1.072,4.001-1.302,8.113-5.303,9.185
		C452.405,176.392,451.752,176.475,451.109,176.475z"/>
	<path style="fill:#FFFFFF;" d="M464.284,225.644c-3.311,0-6.342-2.21-7.239-5.561l-6.554-24.458
		c-1.072-4.001,1.302-8.113,5.303-9.186c4.001-1.075,8.114,1.303,9.186,5.303l6.554,24.458c1.072,4.001-1.302,8.113-5.303,9.186
		C465.58,225.56,464.927,225.644,464.284,225.644z"/>
</g>
<g>
</g>
<g>
</g>
<g>
</g>
<g>
</g>
<g>
</g>
<g>
</g>
<g>
</g>
<g>
</g>
<g>
</g>
<g>
</g>
<g>
</g>
<g>
</g>
<g>
</g>
<g>
</g>
<g>
</g>
</svg>
