<?xml version="1.0" encoding="iso-8859-1"?>
<!-- Generator: Adobe Illustrator 19.0.0, SVG Export Plug-In . SVG Version: 6.00 Build 0)  -->
<svg version="1.1" id="Capa_1" xmlns="http://www.w3.org/2000/svg" xmlns:xlink="http://www.w3.org/1999/xlink" x="0px" y="0px"
	 viewBox="0 0 512 512" style="enable-background:new 0 0 512 512;" xml:space="preserve">
<path style="fill:#CFA08F;" d="M147.188,1.111C129.922-3.515,112.172,6.731,107.544,24L94.93,71.078L80.904,46.786
	C71.967,31.304,52.171,26,36.688,34.938C21.206,43.876,15.901,63.673,24.84,79.155l95.042,164.618
	c11.167-17.172,26.615-36.302,46.281-49.314l-23.051-39.925c-1.54-2.668-1.958-5.839-1.161-8.815l28.125-104.965
	C174.704,23.487,164.456,5.737,147.188,1.111z"/>
<path style="opacity:0.05;enable-background:new    ;" d="M144.112,156.265c-18.882,11.434-35.879,25.676-50.427,42.133
	l26.197,45.375c11.167-17.172,26.615-36.302,46.281-49.314L144.112,156.265z"/>
<g style="opacity:0.1;">
	<path d="M120.579,115.352c-0.635,0-1.28-0.081-1.922-0.251c-4.004-1.059-6.392-5.164-5.334-9.168l7.623-28.827
		c1.059-4.005,5.165-6.392,9.168-5.334c4.004,1.059,6.392,5.164,5.333,9.168l-7.623,28.827
		C126.936,113.129,123.9,115.352,120.579,115.352z"/>
	<path d="M62.927,95.874c-2.751,0-5.4-1.52-6.714-4.147l-7.791-15.582c-1.853-3.705-0.351-8.21,3.354-10.063
		c3.705-1.852,8.21-0.351,10.062,3.354l7.791,15.582c1.853,3.705,0.351,8.21-3.354,10.063
		C65.198,95.618,64.054,95.874,62.927,95.874z"/>
</g>
<path style="fill:#CFA08F;" d="M364.812,1.111c17.266-4.626,35.016,5.62,39.643,22.889l12.615,47.079l14.025-24.293
	c8.938-15.482,28.734-20.786,44.217-11.848c15.482,8.938,20.786,28.735,11.848,44.217l-95.042,164.618
	c-11.167-17.172-26.615-36.302-46.281-49.314l23.051-39.925c1.54-2.668,1.958-5.839,1.161-8.815L341.923,40.754
	C337.297,23.487,347.544,5.737,364.812,1.111z"/>
<path style="opacity:0.05;enable-background:new    ;" d="M367.888,156.265c18.882,11.434,35.879,25.676,50.427,42.133
	l-26.197,45.375c-11.167-17.172-26.615-36.302-46.281-49.314L367.888,156.265z"/>
<g style="opacity:0.1;">
	<path d="M391.421,115.352c-3.321,0-6.357-2.223-7.246-5.585l-7.623-28.827c-1.059-4.004,1.329-8.109,5.333-9.168
		c4.008-1.061,8.109,1.329,9.168,5.334l7.623,28.827c1.059,4.004-1.329,8.109-5.333,9.168
		C392.701,115.27,392.055,115.352,391.421,115.352z"/>
	<path d="M449.073,95.874c-1.127,0-2.271-0.255-3.348-0.794c-3.705-1.853-5.207-6.357-3.354-10.063l7.791-15.582
		c1.852-3.705,6.357-5.208,10.062-3.354c3.705,1.853,5.207,6.357,3.354,10.063l-7.791,15.582
		C454.473,94.354,451.824,95.874,449.073,95.874z"/>
</g>
<path style="fill:#AA715F;" d="M403.499,438.884c-4.238,0-8.539-0.972-12.576-3.024c-13.685-6.959-19.137-23.693-12.18-37.376
	c9.854-19.382,14.851-40.327,14.851-62.258c0-75.87-61.724-137.594-137.594-137.594s-137.594,61.724-137.594,137.594
	c0,21.931,4.997,42.876,14.851,62.258c6.957,13.684,1.505,30.418-12.18,37.376c-13.685,6.959-30.418,1.505-37.376-12.18
	c-13.665-26.877-20.888-57.118-20.888-87.454c0-106.524,86.663-193.188,193.188-193.188s193.188,86.664,193.188,193.188
	c0,30.336-7.223,60.578-20.888,87.454C423.394,433.327,413.628,438.884,403.499,438.884z"/>
<path style="opacity:0.1;enable-background:new    ;" d="M133.257,398.483c-9.426-18.539-14.395-38.511-14.811-59.405
	c-9.245-3.544-19.607-4.474-29.983-2.091l0,0c-9.877,2.268-18.425,7.24-25.067,13.942c1.942,25.33,8.85,50.224,20.304,72.751
	c6.959,13.685,23.692,19.139,37.376,12.18C134.762,428.901,140.214,412.167,133.257,398.483z"/>
<path style="opacity:0.1;enable-background:new    ;" d="M378.743,398.483c9.426-18.539,14.395-38.511,14.81-59.405
	c9.245-3.544,19.607-4.474,29.983-2.091l0,0c9.877,2.268,18.425,7.24,25.067,13.942c-1.942,25.33-8.85,50.224-20.304,72.751
	c-6.959,13.685-23.692,19.139-37.376,12.18C377.238,428.901,371.786,412.167,378.743,398.483z"/>
<path style="fill:#92D2E7;" d="M129.121,510.679L129.121,510.679c-27.782,6.38-55.475-10.97-61.855-38.752l-12.284-53.495
	c-6.379-27.782,10.971-55.475,38.752-61.855l0,0c27.782-6.38,55.475,10.97,61.855,38.752l12.284,53.495
	C174.253,476.606,156.903,504.3,129.121,510.679z"/>
<path style="opacity:0.1;enable-background:new    ;" d="M142.428,489.283L142.428,489.283
	c-27.782,6.379-55.475-10.97-61.855-38.752l-12.284-53.495c-2.155-9.383-1.594-18.752,1.153-27.298
	c-12.574,12.157-18.66,30.405-14.46,48.694l12.284,53.495c6.38,27.782,34.073,45.132,61.855,38.752l0,0
	c18.399-4.225,32.214-17.801,37.6-34.557C160.194,482.432,151.921,487.103,142.428,489.283z"/>
<path style="fill:#92D2E7;" d="M382.879,510.679L382.879,510.679c27.782,6.38,55.475-10.97,61.855-38.752l12.284-53.495
	c6.38-27.782-10.97-55.475-38.752-61.855l0,0c-27.782-6.38-55.475,10.97-61.855,38.752l-12.284,53.495
	C337.747,476.606,355.097,504.3,382.879,510.679z"/>
<path style="opacity:0.1;enable-background:new    ;" d="M400.468,493.734L400.468,493.734
	c-27.782-6.38-45.132-34.073-38.752-61.855L374,378.384c1.346-5.863,3.651-11.254,6.697-16.063
	c-11.87,6.934-20.966,18.553-24.285,33.008l-12.284,53.495c-6.38,27.782,10.97,55.475,38.752,61.855l0,0
	c21.919,5.033,43.773-4.711,55.158-22.689C427.094,494.383,413.795,496.794,400.468,493.734z"/>
<g>
</g>
<g>
</g>
<g>
</g>
<g>
</g>
<g>
</g>
<g>
</g>
<g>
</g>
<g>
</g>
<g>
</g>
<g>
</g>
<g>
</g>
<g>
</g>
<g>
</g>
<g>
</g>
<g>
</g>
</svg>
