<?xml version="1.0" encoding="iso-8859-1"?>
<!-- Generator: Adobe Illustrator 19.0.0, SVG Export Plug-In . SVG Version: 6.00 Build 0)  -->
<svg version="1.1" id="Capa_1" xmlns="http://www.w3.org/2000/svg" xmlns:xlink="http://www.w3.org/1999/xlink" x="0px" y="0px"
	 viewBox="0 0 512.001 512.001" style="enable-background:new 0 0 512.001 512.001;" xml:space="preserve">
<rect x="217.12" y="119.25" style="fill:#61C6AD;" width="77.75" height="68.942"/>
<rect x="217.12" y="119.25" style="opacity:0.1;enable-background:new    ;" width="77.75" height="68.942"/>
<path style="fill:#EEEDED;" d="M256,156.853c-96.314,0-174.391,60.506-174.391,143.756c0,112.182,113.664,150.309,166.864,208.078
	c4.067,4.417,10.989,4.417,15.056,0c53.199-57.769,166.863-95.896,166.863-208.078C430.391,217.36,352.314,156.853,256,156.853z"/>
<path style="fill:#92D2E7;" d="M256,366.432c-53.65,0-96.294,16.721-131.143,39.051c37.852,40.861,91.647,68.49,123.616,103.204
	c4.067,4.417,10.989,4.417,15.056,0c31.969-34.715,85.764-62.343,123.616-103.204C352.294,383.153,309.65,366.432,256,366.432z"/>
<path style="fill:#61C6AD;" d="M256,156.853c-68.569,0-127.884,30.673-156.374,78.382c38.55,12.484,90.591,20.151,156.374,20.151
	s117.824-7.666,156.374-20.151C383.884,187.527,324.569,156.853,256,156.853z"/>
<path style="fill:#F8CA4F;" d="M380.658,198.644c-35.23,7.86-77,11.837-124.658,11.837s-89.428-3.977-124.658-11.837
	c-4.675,3.87-9.077,7.97-13.181,12.288c38.368,9.66,84.608,14.548,137.839,14.548c53.232,0,99.471-4.888,137.839-14.549
	C389.735,206.614,385.332,202.514,380.658,198.644z"/>
<g>
	<path style="fill:#485458;" d="M179.161,310.538c-4.142,0-7.5-3.357-7.5-7.5v-12.755c0-4.143,3.358-7.5,7.5-7.5s7.5,3.357,7.5,7.5
		v12.755C186.661,307.181,183.303,310.538,179.161,310.538z"/>
	<path style="fill:#485458;" d="M332.839,310.538c-4.142,0-7.5-3.357-7.5-7.5v-12.755c0-4.143,3.358-7.5,7.5-7.5s7.5,3.357,7.5,7.5
		v12.755C340.339,307.181,336.981,310.538,332.839,310.538z"/>
	<path style="fill:#485458;" d="M276.258,312.797c0,12.151-10.066,21.951-22.315,21.516c-11.667-0.415-20.744-10.358-20.744-22.031
		v-15.143c0-3.242,2.628-5.87,5.87-5.87h31.318c3.242,0,5.87,2.628,5.87,5.87v15.658H276.258z"/>
</g>
<g>
	<path style="fill:#FFFFFF;" d="M212.394,431.683c-1.919,0-3.839-0.732-5.303-2.197l-17.947-17.946
		c-2.929-2.93-2.929-7.678,0-10.607s7.678-2.928,10.606,0.001l17.947,17.946c2.929,2.93,2.929,7.678,0,10.607
		C216.232,430.95,214.313,431.683,212.394,431.683z"/>
	<path style="fill:#FFFFFF;" d="M194.447,431.683c-1.919,0-3.839-0.732-5.303-2.196c-2.929-2.93-2.929-7.678,0-10.607l17.947-17.946
		c2.929-2.93,7.678-2.929,10.606-0.001c2.929,2.93,2.929,7.678,0,10.607l-17.947,17.946
		C198.286,430.95,196.366,431.683,194.447,431.683z"/>
	<path style="fill:#FFFFFF;" d="M295.494,431.683c-1.92,0-3.839-0.732-5.303-2.196c-2.929-2.93-2.929-7.678,0-10.607l17.947-17.947
		c2.929-2.928,7.678-2.928,10.606,0c2.929,2.93,2.929,7.678,0,10.607l-17.947,17.947
		C299.332,430.95,297.413,431.683,295.494,431.683z"/>
	<path style="fill:#FFFFFF;" d="M313.441,431.683c-1.919,0-3.839-0.732-5.303-2.196l-17.947-17.947
		c-2.929-2.93-2.929-7.678,0-10.607c2.929-2.928,7.678-2.928,10.607,0l17.947,17.947c2.929,2.93,2.929,7.678,0,10.607
		C317.28,430.95,315.36,431.683,313.441,431.683z"/>
	<path style="fill:#FFFFFF;" d="M263.702,464.663c-1.919,0-3.839-0.732-5.303-2.197l-17.947-17.946
		c-2.929-2.93-2.929-7.678,0-10.607s7.678-2.928,10.606,0.001l17.947,17.946c2.929,2.93,2.929,7.678,0,10.607
		C267.541,463.931,265.621,464.663,263.702,464.663z"/>
	<path style="fill:#FFFFFF;" d="M245.755,464.663c-1.919,0-3.839-0.732-5.303-2.196c-2.929-2.93-2.929-7.678,0-10.607l17.947-17.946
		c2.929-2.93,7.678-2.929,10.607-0.001c2.929,2.93,2.929,7.678,0,10.607l-17.947,17.946
		C249.594,463.931,247.675,464.663,245.755,464.663z"/>
</g>
<path style="fill:#F8CA4F;" d="M256,78.596c-21.669,0-39.298-17.629-39.298-39.298S234.331,0,256,0s39.298,17.629,39.298,39.298
	S277.669,78.596,256,78.596z M256,15c-13.398,0-24.298,10.9-24.298,24.298c0,13.397,10.9,24.298,24.298,24.298
	s24.298-10.9,24.298-24.298S269.398,15,256,15z"/>
<path style="opacity:0.1;enable-background:new    ;" d="M256,78.596c-21.669,0-39.298-17.629-39.298-39.298S234.331,0,256,0
	s39.298,17.629,39.298,39.298S277.669,78.596,256,78.596z M256,15c-13.398,0-24.298,10.9-24.298,24.298
	c0,13.397,10.9,24.298,24.298,24.298s24.298-10.9,24.298-24.298S269.398,15,256,15z"/>
<path style="fill:#F8CA4F;" d="M302.181,119.25h-92.363c-6.48,0-11.734-5.253-11.734-11.734V82.83
	c0-6.48,5.253-11.734,11.734-11.734h92.363c6.48,0,11.734,5.253,11.734,11.734v24.687
	C313.915,113.996,308.662,119.25,302.181,119.25z"/>
<path style="opacity:0.1;enable-background:new    ;" d="M212.301,107.516V82.83c0-6.48,5.253-11.734,11.734-11.734h-14.216
	c-6.48,0-11.734,5.254-11.734,11.734v24.687c0,6.48,5.253,11.734,11.734,11.734h14.216
	C217.555,119.25,212.301,113.996,212.301,107.516z"/>
<path style="opacity:0.1;enable-background:new    ;" d="M273.252,496.298c-53.199-57.769-166.864-95.896-166.864-208.078
	c0-49.34,27.427-90.688,69.82-116.189c-56.181,22.981-94.6,70.183-94.6,128.579c0,112.182,113.664,150.309,166.864,208.078
	c4.067,4.417,10.989,4.417,15.056,0c3.478-3.777,7.22-7.468,11.166-11.103C274.185,497.206,273.699,496.783,273.252,496.298z"/>
<g>
	<path style="fill:#FFFFFF;" d="M397.783,351.35c-0.892,0-1.798-0.16-2.681-0.498c-3.868-1.482-5.803-5.818-4.322-9.687
		c1.662-4.34,3.049-8.831,4.122-13.349c0.957-4.03,5.003-6.52,9.031-5.564c4.03,0.958,6.521,5.001,5.563,9.03
		c-1.226,5.161-2.81,10.29-4.709,15.247C403.645,349.516,400.8,351.35,397.783,351.35z"/>
	<path style="fill:#FFFFFF;" d="M405.338,314.063c-0.108,0-0.216-0.002-0.326-0.007c-4.138-0.177-7.35-3.675-7.173-7.814
		c0.079-1.85,0.119-3.744,0.119-5.633c0-11.855-2.175-23.431-6.463-34.404c-1.508-3.858,0.398-8.208,4.255-9.716
		c3.858-1.509,8.208,0.397,9.715,4.255c4.972,12.722,7.493,26.134,7.493,39.865c0,2.101-0.045,4.212-0.133,6.273
		C412.653,310.912,409.332,314.063,405.338,314.063z"/>
</g>
<g>
</g>
<g>
</g>
<g>
</g>
<g>
</g>
<g>
</g>
<g>
</g>
<g>
</g>
<g>
</g>
<g>
</g>
<g>
</g>
<g>
</g>
<g>
</g>
<g>
</g>
<g>
</g>
<g>
</g>
</svg>
