<?xml version="1.0" encoding="iso-8859-1"?>
<!-- Generator: Adobe Illustrator 19.0.0, SVG Export Plug-In . SVG Version: 6.00 Build 0)  -->
<svg version="1.1" id="Capa_1" xmlns="http://www.w3.org/2000/svg" xmlns:xlink="http://www.w3.org/1999/xlink" x="0px" y="0px"
	 viewBox="0 0 512 512" style="enable-background:new 0 0 512 512;" xml:space="preserve">
<path style="fill:#E86478;" d="M450.357,456.889l-60.569-383.93c-2.603-16.497-16.821-28.648-33.522-28.648H94.513
	c-16.701,0-30.919,12.151-33.522,28.648L0.422,456.889c-3.249,20.597,12.67,39.225,33.522,39.225h382.891
	C437.687,496.113,453.607,477.485,450.357,456.889z M273.53,132.991h-96.28c-13.225,0-23.946-10.721-23.946-23.947
	s10.721-23.947,23.946-23.947h96.28c13.225,0,23.947,10.721,23.947,23.947S286.755,132.991,273.53,132.991z"/>
<g>
	<path style="opacity:0.2;fill:#FFFFFF;enable-background:new    ;" d="M450.357,456.888l-6.51-41.266
		c-18.006,0.382-35.954,4.324-52.76,11.839l0,0c-35.415,15.836-75.899,15.836-111.314,0l0,0c-35.415-15.836-75.899-15.836-111.314,0
		l0,0c-35.415,15.836-75.899,15.836-111.314,0l0,0c-16.017-7.162-33.072-11.074-50.224-11.757l-6.497,41.184
		c-3.249,20.597,12.67,39.225,33.522,39.225h382.891C437.687,496.113,453.607,477.485,450.357,456.888z"/>
	<path style="fill:#FFFFFF;" d="M108.049,260.034c-1.919,0-3.839-0.732-5.303-2.196l-27.109-27.109
		c-2.929-2.93-2.929-7.678,0-10.607c2.929-2.928,7.678-2.928,10.607,0l27.109,27.109c2.929,2.93,2.929,7.678,0,10.607
		C111.888,259.302,109.968,260.034,108.049,260.034z"/>
	<path style="fill:#FFFFFF;" d="M80.94,260.034c-1.919,0-3.839-0.732-5.303-2.196c-2.929-2.93-2.929-7.678,0-10.607l27.109-27.109
		c2.929-2.928,7.678-2.928,10.606,0c2.929,2.93,2.929,7.678,0,10.607l-27.109,27.109C84.779,259.302,82.859,260.034,80.94,260.034z"
		/>
	<path style="fill:#FFFFFF;" d="M372.991,280.164c-1.92,0-3.839-0.732-5.304-2.197l-27.108-27.109
		c-2.929-2.929-2.929-7.677,0.001-10.606c2.929-2.929,7.678-2.928,10.606,0.001l27.108,27.109c2.929,2.929,2.929,7.677-0.001,10.607
		C376.83,279.432,374.91,280.164,372.991,280.164z"/>
	<path style="fill:#FFFFFF;" d="M345.883,280.164c-1.919,0-3.839-0.732-5.303-2.196c-2.93-2.93-2.93-7.678-0.001-10.607
		l27.108-27.109c2.93-2.93,7.679-2.929,10.606-0.001c2.93,2.93,2.93,7.678,0.001,10.606l-27.108,27.109
		C349.722,279.432,347.802,280.164,345.883,280.164z"/>
	<path style="fill:#FFFFFF;" d="M398.472,395.947c-1.919,0-3.839-0.732-5.303-2.196l-27.109-27.108
		c-2.93-2.929-2.93-7.678-0.001-10.607c2.93-2.93,7.679-2.929,10.606-0.001l27.109,27.108c2.93,2.929,2.93,7.678,0.001,10.606
		C402.311,395.215,400.391,395.947,398.472,395.947z"/>
	<path style="fill:#FFFFFF;" d="M371.362,395.947c-1.92,0-3.839-0.732-5.304-2.197c-2.929-2.929-2.929-7.678,0.001-10.606
		l27.109-27.108c2.929-2.929,7.678-2.928,10.607,0.001c2.929,2.929,2.929,7.678-0.001,10.607l-27.109,27.108
		C375.201,395.215,373.281,395.947,371.362,395.947z"/>
	<path style="fill:#FFFFFF;" d="M79.676,371.659c-1.92,0-3.839-0.732-5.303-2.196l-27.109-27.109c-2.929-2.93-2.929-7.678,0-10.607
		c2.929-2.928,7.678-2.928,10.606,0l27.109,27.109c2.929,2.93,2.929,7.678,0,10.607C83.515,370.927,81.596,371.659,79.676,371.659z"
		/>
	<path style="fill:#FFFFFF;" d="M52.567,371.659c-1.92,0-3.839-0.732-5.303-2.196c-2.929-2.93-2.929-7.678,0-10.607l27.109-27.109
		c2.929-2.928,7.678-2.928,10.606,0c2.929,2.93,2.929,7.678,0,10.607L57.87,369.463C56.406,370.927,54.487,371.659,52.567,371.659z"
		/>
	<path style="fill:#FFFFFF;" d="M213.647,295.233c-1.919,0-3.839-0.732-5.303-2.196l-30.665-30.664
		c-2.929-2.93-2.929-7.678,0-10.607c2.929-2.928,7.678-2.928,10.606,0l30.665,30.664c2.929,2.93,2.929,7.678,0,10.607
		C217.486,294.501,215.567,295.233,213.647,295.233z"/>
	<path style="fill:#FFFFFF;" d="M182.983,346.833c-1.919,0-3.839-0.732-5.303-2.196c-2.929-2.93-2.929-7.678,0-10.607l30.665-30.664
		c2.929-2.929,7.678-2.927,10.606,0c2.929,2.93,2.929,7.678,0,10.608l-30.665,30.664
		C186.822,346.101,184.902,346.833,182.983,346.833z"/>
	<path style="fill:#FFFFFF;" d="M265.247,346.833c-1.919,0-3.839-0.732-5.304-2.196l-30.664-30.664
		c-2.929-2.93-2.929-7.678,0-10.608c2.929-2.928,7.678-2.928,10.606,0l30.665,30.664c2.929,2.93,2.929,7.678,0,10.607
		C269.086,346.101,267.166,346.833,265.247,346.833z"/>
	<path style="fill:#FFFFFF;" d="M234.582,295.233c-1.919,0-3.839-0.732-5.303-2.196c-2.929-2.93-2.929-7.678,0-10.607l30.664-30.664
		c2.931-2.929,7.679-2.927,10.607,0c2.929,2.93,2.929,7.678,0,10.607l-30.665,30.664
		C238.421,294.501,236.501,295.233,234.582,295.233z"/>
</g>
<g style="opacity:0.1;">
	<path d="M213.647,295.233c-1.919,0-3.839-0.732-5.303-2.196l-30.665-30.664c-2.929-2.93-2.929-7.678,0-10.607
		c2.929-2.928,7.678-2.928,10.606,0l30.665,30.664c2.929,2.93,2.929,7.678,0,10.607
		C217.486,294.501,215.567,295.233,213.647,295.233z"/>
	<path d="M182.983,346.833c-1.919,0-3.839-0.732-5.303-2.196c-2.929-2.93-2.929-7.678,0-10.607l30.665-30.664
		c2.929-2.929,7.678-2.927,10.606,0c2.929,2.93,2.929,7.678,0,10.608l-30.665,30.664
		C186.822,346.101,184.902,346.833,182.983,346.833z"/>
	<path d="M265.247,346.833c-1.919,0-3.839-0.732-5.304-2.196l-30.664-30.664c-2.929-2.93-2.929-7.678,0-10.608
		c2.929-2.928,7.678-2.928,10.606,0l30.665,30.664c2.929,2.93,2.929,7.678,0,10.607
		C269.086,346.101,267.166,346.833,265.247,346.833z"/>
	<path d="M234.582,295.233c-1.919,0-3.839-0.732-5.303-2.196c-2.929-2.93-2.929-7.678,0-10.607l30.664-30.664
		c2.931-2.929,7.679-2.927,10.607,0c2.929,2.93,2.929,7.678,0,10.607l-30.665,30.664
		C238.421,294.501,236.501,295.233,234.582,295.233z"/>
</g>
<g>
	<path style="fill:#FFFFFF;" d="M224.115,320.505c-12.298,0-22.303-10.006-22.303-22.304s10.005-22.303,22.303-22.303
		c12.298,0,22.303,10.005,22.303,22.303S236.413,320.505,224.115,320.505z M224.115,290.898c-4.027,0-7.303,3.276-7.303,7.303
		s3.276,7.304,7.303,7.304s7.303-3.276,7.303-7.304C231.418,294.175,228.142,290.898,224.115,290.898z"/>
	<path style="fill:#FFFFFF;" d="M224.115,290.898c-4.142,0-7.5-3.357-7.5-7.5V240.31c0-4.143,3.358-7.5,7.5-7.5s7.5,3.357,7.5,7.5
		v43.089C231.615,287.541,228.257,290.898,224.115,290.898z"/>
	<path style="fill:#FFFFFF;" d="M224.115,272.098c-1.919,0-3.839-0.733-5.303-2.196l-14.598-14.598
		c-2.929-2.93-2.929-7.678,0-10.606c2.929-2.93,7.678-2.929,10.606-0.001l9.295,9.295l9.295-9.295
		c2.929-2.928,7.678-2.929,10.606,0.001c2.929,2.929,2.929,7.677,0,10.606l-14.598,14.598
		C227.954,271.365,226.035,272.098,224.115,272.098z"/>
	<path style="fill:#FFFFFF;" d="M224.115,247.81c-1.989,0-3.897-0.79-5.303-2.197l-14.598-14.599c-2.929-2.929-2.929-7.677,0-10.606
		s7.678-2.928,10.606,0.001l9.295,9.295l9.295-9.295c2.929-2.93,7.678-2.929,10.606-0.001c2.929,2.93,2.929,7.678,0,10.606
		l-14.598,14.599C228.012,247.02,226.104,247.81,224.115,247.81z"/>
	<path style="fill:#FFFFFF;" d="M209.312,305.701h-43.089c-4.142,0-7.5-3.357-7.5-7.5s3.358-7.5,7.5-7.5h43.089
		c4.142,0,7.5,3.357,7.5,7.5S213.454,305.701,209.312,305.701z"/>
	<path style="fill:#FFFFFF;" d="M175.914,320.3c-1.919,0-3.839-0.732-5.303-2.196c-2.929-2.93-2.929-7.678,0-10.606l9.295-9.296
		l-9.295-9.294c-2.929-2.93-2.929-7.678,0-10.606c2.929-2.93,7.678-2.929,10.606-0.001l14.598,14.598
		c1.407,1.407,2.197,3.314,2.197,5.304c0,1.989-0.79,3.897-2.197,5.303l-14.598,14.599C179.752,319.567,177.833,320.3,175.914,320.3
		z"/>
	<path style="fill:#FFFFFF;" d="M151.625,320.3c-1.919,0-3.839-0.732-5.303-2.196c-2.929-2.93-2.929-7.678,0-10.606l9.295-9.296
		l-9.295-9.294c-2.929-2.93-2.929-7.678,0-10.606c2.929-2.93,7.678-2.929,10.606-0.001l14.598,14.598
		c1.407,1.407,2.197,3.314,2.197,5.304c0,1.989-0.79,3.897-2.197,5.303l-14.598,14.599C155.464,319.567,153.544,320.3,151.625,320.3
		z"/>
	<path style="fill:#FFFFFF;" d="M224.115,363.593c-4.142,0-7.5-3.357-7.5-7.5v-43.088c0-4.143,3.358-7.5,7.5-7.5s7.5,3.357,7.5,7.5
		v43.088C231.615,360.235,228.257,363.593,224.115,363.593z"/>
	<path style="fill:#FFFFFF;" d="M238.713,353.903c-1.92,0-3.839-0.732-5.303-2.197l-9.295-9.295l-9.295,9.295
		c-2.929,2.93-7.678,2.929-10.606,0.001c-2.929-2.93-2.929-7.678,0-10.606l14.598-14.599c1.406-1.407,3.314-2.197,5.303-2.197
		s3.897,0.79,5.303,2.197l14.598,14.599c2.929,2.929,2.929,7.677,0,10.606C242.552,353.171,240.632,353.903,238.713,353.903z"/>
	<path style="fill:#FFFFFF;" d="M238.713,378.191c-1.92,0-3.839-0.732-5.303-2.197l-9.295-9.295l-9.295,9.295
		c-2.929,2.93-7.678,2.929-10.606,0.001c-2.929-2.93-2.929-7.678,0-10.606l14.598-14.599c1.406-1.407,3.314-2.197,5.303-2.197
		s3.897,0.79,5.303,2.197l14.598,14.599c2.929,2.929,2.929,7.677,0,10.606C242.552,377.459,240.632,378.191,238.713,378.191z"/>
	<path style="fill:#FFFFFF;" d="M282.007,305.701h-43.088c-4.142,0-7.5-3.357-7.5-7.5s3.358-7.5,7.5-7.5h43.088
		c4.143,0,7.5,3.357,7.5,7.5S286.149,305.701,282.007,305.701z"/>
	<path style="fill:#FFFFFF;" d="M272.316,320.3c-1.92,0-3.839-0.732-5.304-2.197l-14.598-14.599c-2.929-2.929-2.928-7.677,0-10.606
		l14.597-14.598c2.93-2.928,7.678-2.928,10.607,0c2.929,2.93,2.929,7.678,0,10.607l-9.295,9.294l9.295,9.296
		c2.929,2.929,2.929,7.678-0.001,10.606C276.155,319.567,274.235,320.3,272.316,320.3z"/>
	<path style="fill:#FFFFFF;" d="M296.605,320.3c-1.919,0-3.839-0.732-5.304-2.196l-14.599-14.599
		c-1.406-1.407-2.196-3.315-2.196-5.304c0-1.989,0.79-3.897,2.197-5.304l14.599-14.598c2.929-2.929,7.678-2.928,10.607,0.001
		c2.929,2.929,2.929,7.678-0.001,10.606l-9.295,9.294l9.296,9.295c2.929,2.93,2.929,7.678,0,10.607
		C300.444,319.567,298.524,320.3,296.605,320.3z"/>
</g>
<path style="opacity:0.1;enable-background:new    ;" d="M94.513,44.311c-16.701,0-30.919,12.151-33.522,28.648L0.422,456.889
	c-3.249,20.597,12.67,39.225,33.522,39.225h37.73c-20.852,0-36.771-18.628-33.522-39.225l60.57-383.93
	c2.603-16.497,16.821-28.648,33.522-28.648C132.244,44.311,94.513,44.311,94.513,44.311z"/>
<path style="opacity:0.1;enable-background:new    ;" d="M389.788,72.959c-0.713-4.521-2.304-8.712-4.574-12.42
	c-0.013,0.011-0.028,0.022-0.041,0.033c-3.815-2.237-8.254-3.524-12.996-3.524s-9.181,1.288-12.996,3.525
	c-7.397-6.269-17.266-11.801-27.752-16.262h-81.166c-10.948,9.23-17.909,23.038-17.909,38.478c0,0.774,0.024,1.543,0.059,2.308
	h41.118c13.225,0,23.947,10.721,23.947,23.947c0,12.102-8.979,22.101-20.637,23.713c1.914,0.221,3.856,0.347,5.829,0.347
	c15.225,0,40.636-6.763,60.501-17.448c-11.331,27.474-30.336,52.473-42.072,66.423c-5.124,6.09-3.365,15.343,3.641,19.121
	l26.114,14.082c5.989,3.229,13.474,1.107,16.842-4.804c14.734-25.854,21.546-66.306,23.692-101.968
	c0.263,0.008,0.525,0.02,0.79,0.02s0.527-0.012,0.79-0.02c2.146,35.662,8.958,76.114,23.692,101.968
	c3.152,5.531,9.908,7.742,15.67,5.359L389.788,72.959z"/>
<g>
	<path style="fill:#61C6AD;" d="M372.177,66.202c0,40.078-6.038,95.326-24.482,127.688c-3.369,5.911-10.854,8.033-16.842,4.804
		l-26.114-14.082c-7.006-3.777-8.765-13.03-3.641-19.121c16.328-19.408,46.723-60.2,50.953-99.29L372.177,66.202L372.177,66.202z"/>
	<path style="fill:#61C6AD;" d="M372.177,66.202c0,40.078,6.038,95.326,24.482,127.688c3.369,5.911,10.854,8.033,16.842,4.804
		l26.115-14.082c7.005-3.777,8.764-13.03,3.641-19.121c-16.328-19.408-46.723-60.2-50.953-99.29L372.177,66.202L372.177,66.202z"/>
</g>
<path style="opacity:0.1;enable-background:new    ;" d="M372.177,66.202c0,40.078-6.038,95.326-24.482,127.688
	c-3.369,5.911-10.854,8.033-16.842,4.804l-26.114-14.082c-7.006-3.777-8.765-13.03-3.641-19.121
	c16.328-19.408,46.723-60.2,50.953-99.29L372.177,66.202L372.177,66.202z"/>
<path style="opacity:0.1;enable-background:new    ;" d="M372.177,66.202c0,40.078,6.038,95.326,24.482,127.688
	c3.369,5.911,10.854,8.033,16.842,4.804l26.115-14.082c7.005-3.777,8.764-13.03,3.641-19.121
	c-16.328-19.408-46.723-60.2-50.953-99.29L372.177,66.202L372.177,66.202z"/>
<g>
	<path style="fill:#61C6AD;" d="M372.177,66.202c0,27.788-61.72,50.315-89.508,50.315s-50.315-22.527-50.315-50.315
		s22.527-50.315,50.315-50.315C310.457,15.887,372.177,38.414,372.177,66.202z"/>
	<path style="fill:#61C6AD;" d="M372.177,66.202c0-27.788,61.72-50.315,89.508-50.315S512,38.414,512,66.202
		s-22.527,50.315-50.315,50.315S372.177,93.99,372.177,66.202z"/>
</g>
<g style="opacity:0.1;">
	<path d="M359.434,68.328c-0.973,0-1.961-0.19-2.913-0.592c-11.916-5.029-48.107-13.558-57.065-13.932
		c-4.139-0.172-7.354-3.667-7.181-7.806c0.173-4.14,3.717-7.363,7.806-7.181c10.383,0.433,48.726,9.381,62.272,15.098
		c3.816,1.61,5.604,6.01,3.994,9.826C365.138,66.606,362.358,68.328,359.434,68.328z"/>
	<path d="M299.762,93.592c-3.998,0-7.319-3.155-7.487-7.188c-0.173-4.139,3.042-7.634,7.181-7.806
		c8.958-0.374,45.149-8.902,57.065-13.932c3.815-1.609,8.215,0.177,9.826,3.994c1.61,3.816-0.178,8.216-3.994,9.826
		c-13.547,5.717-51.89,14.665-62.272,15.098C299.974,93.59,299.867,93.592,299.762,93.592z"/>
</g>
<g style="opacity:0.1;">
	<path d="M384.92,68.328c-2.925,0-5.704-1.722-6.913-4.586c-1.61-3.816,0.178-8.216,3.994-9.826
		c13.548-5.717,51.892-14.665,62.273-15.098c4.151-0.186,7.634,3.042,7.806,7.181c0.173,4.139-3.042,7.634-7.181,7.806
		c-8.957,0.374-45.149,8.902-57.066,13.932C386.881,68.138,385.893,68.328,384.92,68.328z"/>
	<path d="M444.593,93.592c-0.107,0-0.212-0.002-0.318-0.007c-10.382-0.433-48.726-9.381-62.273-15.098
		c-3.816-1.61-5.604-6.01-3.994-9.826c1.611-3.817,6.01-5.603,9.826-3.994c11.917,5.029,48.109,13.558,57.066,13.932
		c4.139,0.172,7.353,3.667,7.181,7.806C451.912,90.437,448.59,93.592,444.593,93.592z"/>
</g>
<circle style="fill:#61C6AD;" cx="372.18" cy="66.2" r="25.741"/>
<circle style="opacity:0.2;fill:#FFFFFF;enable-background:new    ;" cx="372.18" cy="66.2" r="25.741"/>
<g>
</g>
<g>
</g>
<g>
</g>
<g>
</g>
<g>
</g>
<g>
</g>
<g>
</g>
<g>
</g>
<g>
</g>
<g>
</g>
<g>
</g>
<g>
</g>
<g>
</g>
<g>
</g>
<g>
</g>
</svg>
