<?xml version="1.0" encoding="iso-8859-1"?>
<!-- Generator: Adobe Illustrator 19.0.0, SVG Export Plug-In . SVG Version: 6.00 Build 0)  -->
<svg version="1.1" id="Capa_1" xmlns="http://www.w3.org/2000/svg" xmlns:xlink="http://www.w3.org/1999/xlink" x="0px" y="0px"
	 viewBox="0 0 512 512" style="enable-background:new 0 0 512 512;" xml:space="preserve">
<path style="fill:#E86478;" d="M423.02,282.158H225.091V170.661h182.035c8.778,0,15.894,7.116,15.894,15.894L423.02,282.158
	L423.02,282.158z"/>
<path style="fill:#F8CA4F;" d="M435.014,282.158H26.485C11.858,282.158,0,294.016,0,308.643v61.831
	c0,14.627,11.858,26.485,26.485,26.485h460.858c20.305,0,31.875-23.201,19.659-39.419l-47.625-63.23
	C453.614,286.657,444.592,282.158,435.014,282.158z"/>
<path style="opacity:0.1;enable-background:new    ;" d="M40.805,370.473v-61.831c0-14.627,11.858-26.485,26.485-26.485H26.485
	C11.858,282.158,0,294.015,0,308.643v61.831c0,14.627,11.858,26.485,26.485,26.485H67.29
	C52.663,396.958,40.805,385.1,40.805,370.473z"/>
<circle style="fill:#E86478;" cx="126.75" cy="396.959" r="79.908"/>
<circle style="opacity:0.15;enable-background:new    ;" cx="126.75" cy="396.959" r="35.05"/>
<circle style="fill:#E86478;" cx="361.14" cy="396.959" r="79.908"/>
<circle style="opacity:0.15;enable-background:new    ;" cx="361.14" cy="396.959" r="35.05"/>
<rect x="40.805" y="101.089" style="fill:#61C6AD;" width="184.29" height="181.07"/>
<rect x="40.805" y="101.089" style="opacity:0.1;enable-background:new    ;" width="184.29" height="30.7"/>
<path style="fill:#92D2E7;" d="M237.391,35.132H28.505c-10.563,0-19.127,8.563-19.127,19.127v27.702
	c0,10.563,8.563,19.127,19.127,19.127h208.886c10.563,0,19.127-8.563,19.127-19.127V54.259
	C256.518,43.695,247.955,35.132,237.391,35.132z"/>
<path style="opacity:0.1;enable-background:new    ;" d="M43.548,81.96V54.259c0-10.563,8.563-19.127,19.127-19.127h-34.17
	c-10.563,0-19.127,8.563-19.127,19.127V81.96c0,10.563,8.563,19.127,19.127,19.127h34.169
	C52.111,101.087,43.548,92.524,43.548,81.96z"/>
<rect x="318.74" y="103.219" style="fill:#F8CA4F;" width="74.896" height="67.45"/>
<rect x="318.74" y="103.219" style="opacity:0.1;enable-background:new    ;" width="74.896" height="23.2"/>
<path style="fill:#92D2E7;" d="M400.498,103.214h-88.616c-6.659,0-12.058-5.399-12.058-12.058V68.07
	c0-6.66,5.399-12.058,12.058-12.058h88.616c6.66,0,12.058,5.399,12.058,12.058v23.086
	C412.556,97.816,407.158,103.214,400.498,103.214z"/>
<path style="opacity:0.1;enable-background:new    ;" d="M324.056,91.156V68.07c0-6.66,5.398-12.058,12.058-12.058h-24.231
	c-6.66,0-12.058,5.399-12.058,12.058v23.086c0,6.66,5.398,12.058,12.058,12.058h24.231
	C329.454,103.214,324.056,97.816,324.056,91.156z"/>
<circle style="fill:#FFFFFF;" cx="132.95" cy="185.979" r="44.31"/>
<rect x="225.09" y="170.659" style="opacity:0.1;enable-background:new    ;" width="33.831" height="111.5"/>
<g>
</g>
<g>
</g>
<g>
</g>
<g>
</g>
<g>
</g>
<g>
</g>
<g>
</g>
<g>
</g>
<g>
</g>
<g>
</g>
<g>
</g>
<g>
</g>
<g>
</g>
<g>
</g>
<g>
</g>
</svg>
