<?xml version="1.0" encoding="iso-8859-1"?>
<!-- Generator: Adobe Illustrator 19.0.0, SVG Export Plug-In . SVG Version: 6.00 Build 0)  -->
<svg version="1.1" id="Capa_1" xmlns="http://www.w3.org/2000/svg" xmlns:xlink="http://www.w3.org/1999/xlink" x="0px" y="0px"
	 viewBox="0 0 512.001 512.001" style="enable-background:new 0 0 512.001 512.001;" xml:space="preserve">
<path style="fill:#EEEDED;" d="M452.616,368.614h-97.938c-24.133,0-43.697-19.564-43.697-43.697v-94.791
	c0-24.133,19.564-43.697,43.697-43.697h97.938c13.3,0,21.518,14.505,14.682,25.914l-26.031,43.443
	c-8.018,13.382-8.018,30.091,0,43.473l26.031,43.443C474.135,354.108,465.916,368.614,452.616,368.614z"/>
<path style="opacity:0.1;enable-background:new    ;" d="M452.616,368.614h-97.938c-24.133,0-43.697-19.564-43.697-43.697v-94.791
	c0-24.133,19.564-43.697,43.697-43.697h97.938c13.3,0,21.518,14.505,14.682,25.914l-26.031,43.443
	c-8.018,13.382-8.018,30.091,0,43.473l26.031,43.443C474.135,354.108,465.916,368.614,452.616,368.614z"/>
<path style="fill:#EEEDED;" d="M336.241,310.481h-219.92V128.295h219.92c24.133,0,43.697,19.564,43.697,43.697v94.791
	C379.939,290.917,360.375,310.481,336.241,310.481z"/>
<rect x="116.323" y="128.29" style="opacity:0.1;enable-background:new    ;" width="46.91" height="182.19"/>
<path style="fill:#EEEDED;" d="M131.624,90.331H75.683v411.132c0,5.82,4.718,10.538,10.538,10.538h34.865
	c5.82,0,10.538-4.718,10.538-10.538V90.331z"/>
<path style="fill:#E86478;" d="M75.683,488.273l55.941-55.941v-72.395l-55.941,55.94V488.273z M75.683,336.084l55.941-55.941
	v-72.395l-55.941,55.941V336.084z M96.852,90.331L75.683,111.5v72.395l55.941-55.941V90.331H96.852z"/>
<path style="opacity:0.1;enable-background:new    ;" d="M75.683,90.331v42.53c8.669,3.396,18.097,5.282,27.97,5.282
	s19.301-1.885,27.97-5.282v-42.53C131.623,90.331,75.683,90.331,75.683,90.331z"/>
<circle style="fill:#F8CA4F;" cx="103.653" cy="61.41" r="61.41"/>
<path style="opacity:0.1;enable-background:new    ;" d="M116.327,110.139c-33.914,0-61.407-27.493-61.407-61.406
	c0-13.724,4.505-26.395,12.113-36.619C51.992,23.306,42.247,41.217,42.247,61.407c0,33.914,27.493,61.407,61.406,61.407
	c20.19,0,38.101-9.746,49.293-24.787C142.722,105.634,130.051,110.139,116.327,110.139z"/>
<path style="fill:#E86478;" d="M277.479,179.627c-49.402,19.71-71.95,56.961-74.005,79.147h109.288
	c-16.569-20.254-29.763-38.218-27.282-73.248C285.785,181.213,281.495,178.025,277.479,179.627z"/>
<path style="opacity:0.05;enable-background:new    ;" d="M277.479,179.627c-49.403,19.71-71.95,56.961-74.005,79.147h13.092
	c1.757-18.971,18.528-48.94,54.233-69.553c3.387,3.861,8.344,6.312,13.885,6.312c0.174,0,0.343-0.021,0.516-0.026
	c-0.052-3.172,0.033-6.488,0.28-9.98C285.785,181.213,281.495,178.025,277.479,179.627z"/>
<g>
	<circle style="fill:#FFFFFF;" cx="289.693" cy="171.26" r="18.481"/>
	<path style="fill:#FFFFFF;" d="M311.754,285.996H204.481c-7.517,0-13.611-6.094-13.611-13.611l0,0
		c0-7.517,6.094-13.611,13.611-13.611h107.273c7.517,0,13.611,6.094,13.611,13.611l0,0
		C325.365,279.903,319.271,285.996,311.754,285.996z"/>
</g>
<g>
</g>
<g>
</g>
<g>
</g>
<g>
</g>
<g>
</g>
<g>
</g>
<g>
</g>
<g>
</g>
<g>
</g>
<g>
</g>
<g>
</g>
<g>
</g>
<g>
</g>
<g>
</g>
<g>
</g>
</svg>
