<?xml version="1.0" encoding="iso-8859-1"?>
<!-- Generator: Adobe Illustrator 19.0.0, SVG Export Plug-In . SVG Version: 6.00 Build 0)  -->
<svg version="1.1" id="Capa_1" xmlns="http://www.w3.org/2000/svg" xmlns:xlink="http://www.w3.org/1999/xlink" x="0px" y="0px"
	 viewBox="0 0 511.999 511.999" style="enable-background:new 0 0 511.999 511.999;" xml:space="preserve">
<path style="fill:#E86478;" d="M213.312,273.027c-6.254,46.712-58.347,102.377-128.878,146.513
	c-9.22,5.769-6.655,19.814,4.032,21.832l29.335,5.539c8.681,1.639,14.684,9.62,13.852,18.415l-3.137,33.154
	c-1.072,11.334,12.432,17.913,20.749,10.139c53.507-50.019,107.008-127.275,95.82-222.213L213.312,273.027z"/>
<path style="opacity:0.1;enable-background:new    ;" d="M213.312,273.027c-6.254,46.712-58.347,102.377-128.878,146.513
	c-9.22,5.769-6.655,19.814,4.032,21.832l29.335,5.539c8.681,1.639,14.684,9.62,13.852,18.415l-3.137,33.154
	c-1.072,11.334,12.432,17.913,20.749,10.139c53.507-50.019,107.008-127.275,95.82-222.213L213.312,273.027z"/>
<path style="opacity:0.1;enable-background:new    ;" d="M245.085,286.407l-31.773-13.379c-1.599,11.948-6.204,24.482-13.343,37.258
	c11.69,12.61,27.579,21.26,45.449,23.737C247.017,318.712,247.02,302.824,245.085,286.407z"/>
<path style="opacity:0.1;enable-background:new    ;" d="M176.642,410.539c-1.9,0-3.802-0.718-5.263-2.156
	c-2.951-2.906-2.987-7.655-0.081-10.606c13.361-13.567,41.47-52.55,52.218-102.978c0.863-4.051,4.848-6.637,8.898-5.772
	c4.051,0.863,6.635,4.848,5.771,8.898c-11.469,53.814-41.776,95.729-56.2,110.376C180.518,409.792,178.58,410.539,176.642,410.539z"
	/>
<path style="fill:#E86478;" d="M75.401,33.37C64.576,40.95,58.164,52.455,56.76,64.546c-0.423,3.644-2.996,6.669-6.516,7.705
	c-36.146,10.632-48.587,40.298-24.591,74.568c33.023,47.162,165.691,141.699,207.772,112.233s-1.38-186.466-34.403-233.628
	c-23.996-34.27-56.127-32.725-78.481-2.396c-2.177,2.953-5.899,4.336-9.469,3.488C99.231,23.699,86.226,25.79,75.401,33.37z"/>
<path style="opacity:0.1;enable-background:new    ;" d="M75.401,33.37C64.576,40.95,58.164,52.455,56.76,64.546
	c-0.423,3.644-2.996,6.669-6.516,7.705c-36.146,10.632-48.587,40.298-24.591,74.568c33.023,47.162,165.691,141.699,207.772,112.233
	s-1.38-186.466-34.403-233.628c-23.996-34.27-56.127-32.725-78.481-2.396c-2.177,2.953-5.899,4.336-9.469,3.488
	C99.231,23.699,86.226,25.79,75.401,33.37z"/>
<path style="opacity:0.1;enable-background:new    ;" d="M249.502,182.265c-39.005,3.288-69.664,35.862-69.89,75.664
	c22.372,7.827,41.792,9.54,53.813,1.122C249.563,247.752,253.111,217.689,249.502,182.265z"/>
<g style="opacity:0.1;">
	<path d="M200.19,238.265c-1.148,0-2.313-0.265-3.405-0.822c-14.692-7.504-32.035-18.382-47.58-29.846
		c-13.273-9.788-31.723-24.817-44.233-40.831c-2.55-3.264-1.972-7.977,1.293-10.527c3.264-2.55,7.976-1.973,10.527,1.293
		c11.608,14.858,44.309,44.844,86.815,66.552c3.689,1.884,5.152,6.402,3.269,10.091C205.549,236.771,202.918,238.265,200.19,238.265
		z"/>
	<path d="M218.198,225.651c-3.731,0-6.964-2.782-7.434-6.58c-5.86-47.365-22.854-88.351-32.847-104.343
		c-2.195-3.513-1.127-8.14,2.386-10.335s8.139-1.126,10.335,2.386c19.529,31.255,31.639,83.177,35.013,110.45
		c0.509,4.11-2.412,7.855-6.522,8.364C218.816,225.633,218.506,225.651,218.198,225.651z"/>
	<path d="M211.067,234.612c-2.364,0-4.691-1.115-6.15-3.199L127.13,120.322c-2.376-3.393-1.552-8.069,1.842-10.445
		c3.393-2.377,8.069-1.552,10.445,1.842l77.787,111.091c2.376,3.393,1.552,8.069-1.842,10.445
		C214.053,234.172,212.553,234.612,211.067,234.612z"/>
</g>
<path style="fill:#E86478;" d="M243.099,256.223c3.482,39.805-128.398,93.856-179.235,98.304
	c-47.098,4.121-61.787-29.123-33.165-70.417c3.967-5.723,3.284-13.521-1.616-18.468c-35.358-35.697-26.665-70.986,20.433-75.106
	C100.354,186.088,239.617,216.418,243.099,256.223z"/>
<path style="opacity:0.1;enable-background:new    ;" d="M243.099,256.223c-1.328-15.182-22.419-28.983-50.813-40.004
	c-8.01,12.083-12.686,26.568-12.686,42.151c0,18.224,6.39,34.948,17.039,48.079C224.456,290.13,244.484,272.051,243.099,256.223z"/>
<g style="opacity:0.1;">
	<path d="M209.054,256.93c-0.679,0-1.368-0.093-2.053-0.287c-8.537-2.424-74.398-8.936-109.087-8.048
		c-0.065,0.002-0.132,0.003-0.197,0.003c-4.053,0-7.389-3.232-7.493-7.307c-0.107-4.141,3.163-7.584,7.304-7.69
		c35.577-0.925,102.759,5.541,113.571,8.612c3.984,1.132,6.298,5.279,5.166,9.264C215.327,254.776,212.322,256.93,209.054,256.93z"
		/>
	<path d="M102.546,303.863c-3.65,0-6.85-2.67-7.407-6.39c-0.614-4.097,2.209-7.915,6.306-8.528
		c34.316-5.143,98.049-22.998,106.032-26.867c3.725-1.809,8.213-0.249,10.02,3.478s0.249,8.213-3.479,10.02
		c-10.111,4.9-75.149,22.929-110.351,28.203C103.291,303.836,102.916,303.863,102.546,303.863z"/>
</g>
<path style="fill:#E86478;" d="M298.688,273.027c6.254,46.712,58.347,102.377,128.878,146.513
	c9.219,5.769,6.654,19.814-4.032,21.832l-29.335,5.539c-8.681,1.639-14.684,9.62-13.852,18.415l3.137,33.154
	c1.072,11.334-12.432,17.913-20.749,10.139c-53.507-50.019-107.008-127.275-95.82-222.213L298.688,273.027z"/>
<path style="opacity:0.1;enable-background:new    ;" d="M298.688,273.027c6.254,46.712,58.347,102.377,128.878,146.513
	c9.219,5.769,6.654,19.814-4.032,21.832l-29.335,5.539c-8.681,1.639-14.684,9.62-13.852,18.415l3.137,33.154
	c1.072,11.334-12.432,17.913-20.749,10.139c-53.507-50.019-107.008-127.275-95.82-222.213L298.688,273.027z"/>
<path style="opacity:0.1;enable-background:new    ;" d="M266.915,286.407l31.773-13.379c1.599,11.948,6.204,24.482,13.343,37.258
	c-11.69,12.61-27.579,21.26-45.449,23.737C264.983,318.712,264.981,302.824,266.915,286.407z"/>
<path style="opacity:0.1;enable-background:new    ;" d="M335.358,410.539c-1.939,0-3.876-0.747-5.344-2.237
	c-14.424-14.647-44.731-56.563-56.2-110.376c-0.863-4.051,1.721-8.035,5.771-8.898c4.047-0.865,8.035,1.719,8.898,5.772
	c10.748,50.428,38.856,89.41,52.218,102.978c2.906,2.951,2.87,7.7-0.081,10.606C339.16,409.821,337.259,410.539,335.358,410.539z"/>
<path style="fill:#E86478;" d="M436.599,33.37c10.825,7.58,17.238,19.085,18.642,31.176c0.423,3.644,2.996,6.669,6.516,7.705
	c36.146,10.632,48.587,40.298,24.591,74.568c-33.023,47.162-165.69,141.699-207.772,112.233
	c-42.081-29.466,1.38-186.466,34.403-233.628c23.996-34.27,56.127-32.725,78.481-2.396c2.177,2.953,5.899,4.336,9.469,3.488
	C412.769,23.699,425.774,25.79,436.599,33.37z"/>
<path style="opacity:0.1;enable-background:new    ;" d="M436.599,33.37c10.825,7.58,17.238,19.085,18.642,31.176
	c0.423,3.644,2.996,6.669,6.516,7.705c36.146,10.632,48.587,40.298,24.591,74.568c-33.023,47.162-165.69,141.699-207.772,112.233
	c-42.081-29.466,1.38-186.466,34.403-233.628c23.996-34.27,56.127-32.725,78.481-2.396c2.177,2.953,5.899,4.336,9.469,3.488
	C412.769,23.699,425.774,25.79,436.599,33.37z"/>
<path style="opacity:0.1;enable-background:new    ;" d="M262.498,182.265c39.005,3.288,69.664,35.862,69.89,75.664
	c-22.372,7.827-41.792,9.54-53.813,1.122C262.437,247.752,258.889,217.689,262.498,182.265z"/>
<g style="opacity:0.1;">
	<path d="M311.811,238.265c-2.728,0-5.359-1.494-6.685-4.091c-1.884-3.688-0.42-8.207,3.269-10.091
		c42.507-21.708,75.207-51.693,86.815-66.552c2.55-3.266,7.264-3.843,10.527-1.293c3.265,2.55,3.843,7.264,1.293,10.527
		c-12.511,16.014-30.96,31.043-44.233,40.831c-15.545,11.464-32.888,22.342-47.58,29.846
		C314.124,238,312.958,238.265,311.811,238.265z"/>
	<path d="M293.802,225.651c-0.308,0-0.618-0.019-0.931-0.058c-4.11-0.509-7.031-4.254-6.522-8.364
		c3.374-27.273,15.483-79.195,35.013-110.45c2.195-3.512,6.821-4.581,10.335-2.386c3.513,2.195,4.581,6.822,2.386,10.335
		c-9.993,15.992-26.986,56.978-32.847,104.343C300.766,222.869,297.532,225.651,293.802,225.651z"/>
	<path d="M300.933,234.612c-1.485,0-2.985-0.44-4.295-1.357c-3.394-2.376-4.218-7.053-1.842-10.445l77.787-111.091
		c2.376-3.393,7.053-4.218,10.445-1.842c3.394,2.376,4.218,7.053,1.842,10.445l-77.787,111.091
		C305.624,233.497,303.297,234.612,300.933,234.612z"/>
</g>
<path style="fill:#E86478;" d="M268.901,256.223c-3.482,39.805,128.398,93.856,179.235,98.304
	c47.098,4.121,61.787-29.123,33.165-70.417c-3.966-5.723-3.284-13.521,1.616-18.468c35.358-35.697,26.665-70.986-20.433-75.106
	C411.646,186.088,272.383,216.418,268.901,256.223z"/>
<path style="opacity:0.1;enable-background:new    ;" d="M268.901,256.223c1.328-15.182,22.419-28.983,50.813-40.004
	c8.01,12.083,12.686,26.568,12.686,42.151c0,18.224-6.39,34.948-17.039,48.079C287.544,290.13,267.516,272.051,268.901,256.223z"/>
<g style="opacity:0.1;">
	<path d="M302.946,256.93c-3.269,0-6.273-2.153-7.211-5.453c-1.132-3.984,1.182-8.132,5.166-9.264
		c10.813-3.069,78.008-9.538,113.571-8.612c4.141,0.106,7.411,3.55,7.304,7.69c-0.107,4.141-3.541,7.459-7.691,7.304
		c-34.677-0.895-100.549,5.624-109.087,8.048C304.315,256.837,303.624,256.93,302.946,256.93z"/>
	<path d="M409.454,303.863c-0.37,0-0.744-0.027-1.121-0.084c-35.201-5.274-100.239-23.303-110.351-28.203
		c-3.728-1.807-5.285-6.293-3.479-10.02c1.806-3.728,6.291-5.286,10.02-3.478c7.983,3.869,71.716,21.725,106.032,26.867
		c4.097,0.613,6.92,4.432,6.306,8.528C416.304,301.193,413.105,303.863,409.454,303.863z"/>
</g>
<circle style="fill:#E86478;" cx="256" cy="258.37" r="60.53"/>
<circle style="opacity:0.4;fill:#FFFFFF;enable-background:new    ;" cx="256" cy="258.37" r="60.53"/>
<path style="fill:#E86478;" d="M288.204,207.126c-25.576,32.646-68.09,53.068-91.615,62.822
	c3.237,16.705,13.34,30.951,27.257,39.697c25.577-11.033,67.448-32.611,90.817-66.241
	C310.791,228.183,301.147,215.277,288.204,207.126z"/>
<g>
</g>
<g>
</g>
<g>
</g>
<g>
</g>
<g>
</g>
<g>
</g>
<g>
</g>
<g>
</g>
<g>
</g>
<g>
</g>
<g>
</g>
<g>
</g>
<g>
</g>
<g>
</g>
<g>
</g>
</svg>
