<?xml version="1.0" encoding="iso-8859-1"?>
<!-- Generator: Adobe Illustrator 19.0.0, SVG Export Plug-In . SVG Version: 6.00 Build 0)  -->
<svg version="1.1" id="Capa_1" xmlns="http://www.w3.org/2000/svg" xmlns:xlink="http://www.w3.org/1999/xlink" x="0px" y="0px"
	 viewBox="0 0 512 512" style="enable-background:new 0 0 512 512;" xml:space="preserve">
<circle style="fill:#CFA08F;" cx="256" cy="241.539" r="209.86"/>
<path style="opacity:0.1;enable-background:new    ;" d="M75.778,241.544c0-110.921,86.056-201.73,195.043-209.336
	c-4.897-0.342-9.837-0.528-14.821-0.528c-115.905,0-209.864,93.959-209.864,209.864S140.095,451.408,256,451.408
	c4.984,0,9.924-0.186,14.821-0.528C161.834,443.275,75.778,352.465,75.778,241.544z"/>
<g>
	<path style="fill:#E86478;" d="M276.812,218.066h-41.623c-32.272,0-57.437,27.955-54.054,60.05L205.781,512h100.438l24.647-233.883
		C334.248,246.021,309.084,218.066,276.812,218.066z"/>
	<path style="fill:#E86478;" d="M125.879,218.066H86.606c-36.745,0-62.902,35.702-51.826,70.738L94.7,478.336
		C101.036,498.377,119.63,512,140.649,512h65.132l-25.848-245.276C177.018,239.063,153.692,218.066,125.879,218.066z"/>
</g>
<path style="opacity:0.1;enable-background:new    ;" d="M125.879,218.066H86.606c-36.745,0-62.902,35.702-51.826,70.738
	L94.7,478.336C101.036,498.377,119.63,512,140.649,512h65.132l-25.848-245.276C177.018,239.063,153.692,218.066,125.879,218.066z"/>
<path style="opacity:0.1;enable-background:new    ;" d="M122.887,477.668L61.779,284.375c-8.576-27.127,4.745-54.628,28.05-66.309
	h-3.222c-36.745,0-62.902,35.702-51.826,70.738L94.7,478.336C101.036,498.377,119.63,512,140.649,512h29.099
	C148.312,512,129.349,498.107,122.887,477.668z"/>
<path style="fill:#E86478;" d="M386.121,218.066h39.273c36.745,0,62.902,35.702,51.826,70.738L417.3,478.336
	C410.964,498.377,392.37,512,371.351,512h-65.132l25.848-245.276C334.982,239.063,358.307,218.066,386.121,218.066z"/>
<path style="opacity:0.1;enable-background:new    ;" d="M386.121,218.066h39.273c36.745,0,62.902,35.702,51.826,70.738
	L417.3,478.336C410.964,498.377,392.37,512,371.351,512h-65.132l25.848-245.276C334.982,239.063,358.307,218.066,386.121,218.066z"
	/>
<path style="fill:#AA715F;" d="M256,11.523c-94.475,0-175.634,56.962-211.037,138.411c-4.471,10.287,3.374,21.545,14.59,21.444
	c11.397-0.103,22.812,2.463,33.282,7.698l0,0c20.543,10.271,44.723,10.271,65.265,0l0,0c20.543-10.271,44.723-10.271,65.266,0l0,0
	c20.543,10.271,44.723,10.271,65.265,0l0,0c20.543-10.271,44.723-10.271,65.266,0l0,0c20.543,10.271,44.723,10.271,65.265,0l0,0
	c10.47-5.235,21.886-7.801,33.282-7.698c11.216,0.101,19.062-11.157,14.59-21.444C431.634,68.485,350.475,11.523,256,11.523z"/>
<path style="opacity:0.1;enable-background:new    ;" d="M256,11.523c-94.475,0-175.634,56.962-211.037,138.411
	c-4.471,10.287,3.374,21.545,14.59,21.444c6.618-0.06,13.242,0.787,19.684,2.527C106.855,92.76,175.272,30.495,260.047,11.56
	C258.701,11.538,257.352,11.523,256,11.523z"/>
<g>
	<path style="fill:#485458;" d="M191.638,119.96c-4.142,0-7.5-3.357-7.5-7.5v-10.684c0-4.143,3.358-7.5,7.5-7.5s7.5,3.357,7.5,7.5
		v10.684C199.138,116.603,195.78,119.96,191.638,119.96z"/>
	<path style="fill:#485458;" d="M320.362,119.96c-4.143,0-7.5-3.357-7.5-7.5v-10.684c0-4.143,3.357-7.5,7.5-7.5s7.5,3.357,7.5,7.5
		v10.684C327.862,116.603,324.505,119.96,320.362,119.96z"/>
	<path style="fill:#485458;" d="M256,128.163c-8.671,0-16.917-3.755-22.623-10.303c-2.721-3.123-2.396-7.86,0.726-10.582
		c3.123-2.721,7.86-2.396,10.582,0.727c2.857,3.278,6.981,5.158,11.315,5.158c4.334,0,8.458-1.88,11.314-5.158
		c2.723-3.122,7.457-3.447,10.582-0.727c3.122,2.722,3.448,7.459,0.727,10.582C272.917,124.409,264.671,128.163,256,128.163z"/>
</g>
<path style="fill:#EEEDED;" d="M101.072,141.656c-4.293,0-8.587-1.638-11.862-4.913L59.397,106.93
	c-6.551-6.552-6.551-17.172,0-23.723c6.552-6.55,17.173-6.55,23.723,0l29.813,29.813c6.551,6.552,6.551,17.172,0,23.724
	C109.658,140.018,105.365,141.656,101.072,141.656z"/>
<path style="fill:#F8CA4F;" d="M402.652,149.859c-4.293,0-8.587-1.638-11.862-4.913c-6.551-6.551-6.551-17.172,0-23.723
	l29.813-29.813c6.55-6.55,17.173-6.55,23.724,0c6.551,6.551,6.551,17.172,0,23.723l-29.813,29.813
	C411.239,148.221,406.945,149.859,402.652,149.859z"/>
<path style="fill:#EEEDED;" d="M291.312,63.361c-4.293,0-8.587-1.638-11.862-4.913c-6.551-6.551-6.551-17.172,0-23.723
	l29.813-29.813c6.55-6.55,17.173-6.55,23.723,0c6.552,6.552,6.552,17.172,0,23.723l-29.813,29.813
	C299.899,61.723,295.605,63.361,291.312,63.361z"/>
<path style="fill:#F8CA4F;" d="M145.055,68.597c-5.239,0-10.399-2.446-13.672-7.037c-5.379-7.543-3.624-18.019,3.919-23.398
	l34.329-24.478c7.544-5.378,18.02-3.625,23.398,3.92c5.379,7.543,3.624,18.019-3.919,23.398L154.78,65.48
	C151.827,67.585,148.425,68.597,145.055,68.597z"/>
<g>
</g>
<g>
</g>
<g>
</g>
<g>
</g>
<g>
</g>
<g>
</g>
<g>
</g>
<g>
</g>
<g>
</g>
<g>
</g>
<g>
</g>
<g>
</g>
<g>
</g>
<g>
</g>
<g>
</g>
</svg>
