<?xml version="1.0" encoding="iso-8859-1"?>
<!-- Generator: Adobe Illustrator 19.0.0, SVG Export Plug-In . SVG Version: 6.00 Build 0)  -->
<svg version="1.1" id="Capa_1" xmlns="http://www.w3.org/2000/svg" xmlns:xlink="http://www.w3.org/1999/xlink" x="0px" y="0px"
	 viewBox="0 0 512.001 512.001" style="enable-background:new 0 0 512.001 512.001;" xml:space="preserve">
<polygon style="fill:#AA715F;" points="444.387,191.704 256,105.296 67.613,191.704 67.613,457.082 444.387,457.082 "/>
<path style="opacity:0.1;enable-background:new    ;" d="M357.766,199.883c0-4.143-3.358-7.5-7.5-7.5h-30.407
	c-4.142,0-7.5,3.357-7.5,7.5s3.358,7.5,7.5,7.5h30.407C354.408,207.383,357.766,204.025,357.766,199.883z M156.362,301.815
	c0-4.143-3.358-7.5-7.5-7.5H67.613v15h81.249C153.004,309.315,156.362,305.957,156.362,301.815z M167.286,351.222h-36.849
	c-4.142,0-7.5,3.357-7.5,7.5s3.358,7.5,7.5,7.5h36.849c4.142,0,7.5-3.357,7.5-7.5C174.786,354.579,171.428,351.222,167.286,351.222z
	 M175.54,218.021h-40.397c-4.142,0-7.5,3.357-7.5,7.5s3.358,7.5,7.5,7.5h40.397c4.142,0,7.5-3.357,7.5-7.5
	S179.683,218.021,175.54,218.021z M396.549,263.668c0-4.143-3.358-7.5-7.5-7.5h-53.987c-4.142,0-7.5,3.357-7.5,7.5
	c0,4.142,3.358,7.5,7.5,7.5h53.987C393.191,271.168,396.549,267.81,396.549,263.668z M378.991,330.791c-4.142,0-7.5,3.357-7.5,7.5
	s3.358,7.5,7.5,7.5h65.396v-15H378.991z M381.664,382.327h-36.849c-4.142,0-7.5,3.358-7.5,7.5c0,4.143,3.358,7.5,7.5,7.5h36.849
	c4.142,0,7.5-3.357,7.5-7.5C389.164,385.685,385.806,382.327,381.664,382.327z"/>
<path style="opacity:0.1;enable-background:new    ;" d="M256,105.296L67.613,191.704v52.048l174.841-80.196
	c8.6-3.945,18.493-3.945,27.093,0l174.841,80.196v-52.048L256,105.296z"/>
<rect x="357.81" y="26.844" style="fill:#AA715F;" width="82.63" height="130.05"/>
<polygon style="opacity:0.1;enable-background:new    ;" points="357.811,26.844 357.811,72.775 440.442,84.22 440.442,26.844 "/>
<path style="fill:#EEEDED;" d="M484.208,154.945L282.546,62.446c-16.853-7.73-36.238-7.73-53.091,0L27.792,154.945
	c-9.886,4.535-16.223,14.414-16.223,25.29v18.103c0,19.182,19.859,31.921,37.294,23.924l54.252-24.884v5.92
	c0,11.814,9.577,21.391,21.391,21.391s21.391-9.577,21.391-21.391v-25.544l96.556-44.288c8.6-3.945,18.493-3.945,27.093,0
	L419.05,202.04v35.979c0,11.814,9.577,21.391,21.391,21.391l0,0c11.814,0,21.391-9.577,21.391-21.391v-16.356l1.304,0.598
	c17.435,7.997,37.294-4.742,37.294-23.924v-18.103C500.431,169.359,494.094,159.48,484.208,154.945z"/>
<path style="opacity:0.1;enable-background:new    ;" d="M28.271,191.34v-18.536c0-10.116,5.366-19.375,13.934-24.47l-14.413,6.611
	c-9.886,4.535-16.223,14.413-16.223,25.29v18.103c0,19.182,19.859,31.921,37.294,23.924l8.867-4.067
	C42.58,219.642,28.271,207.816,28.271,191.34z"/>
<path style="opacity:0.15;enable-background:new    ;" d="M286.857,308.865h-61.714c-11.753,0-21.281,9.528-21.281,21.281v126.936
	h104.276V330.146C308.138,318.393,298.61,308.865,286.857,308.865z"/>
<circle style="fill:#F8CA4F;" cx="230.76" cy="386.141" r="6.955"/>
<path style="fill:#EEEDED;" d="M444.467,66.167L353.01,53.5c-7.088-0.982-12.365-7.041-12.365-14.196V23.838
	c0-12.499,10.132-22.631,22.631-22.631h71.702c12.499,0,22.631,10.132,22.631,22.631v30.883
	C457.608,61.732,451.413,67.129,444.467,66.167z"/>
<path style="opacity:0.1;enable-background:new    ;" d="M361.032,41.598V25.201c0-13.252,10.742-23.994,23.994-23.994h-21.75
	c-12.499,0-22.631,10.132-22.631,22.631v15.466c0,7.155,5.278,13.214,12.365,14.196l18.651,2.583
	C365.43,54.123,361.032,48.321,361.032,41.598z"/>
<path style="fill:#EEEDED;" d="M485.144,457.082h-2.399c-6.453,0-12.206-4.308-13.77-10.569
	c-4.721-18.897-21.81-32.895-42.169-32.895c-16.633,0-31.078,9.347-38.385,23.072c-4.514-3.664-10.265-5.862-16.531-5.862
	c-10.421,0-19.425,6.072-23.665,14.871c-3.301,6.851-10.033,11.382-17.637,11.382H26.856C12.024,457.082,0,469.106,0,483.938l0,0
	c0,14.832,12.024,26.856,26.856,26.856h458.289c14.832,0,26.856-12.024,26.856-26.856l0,0
	C512,469.106,499.976,457.082,485.144,457.082z"/>
<path style="opacity:0.1;enable-background:new    ;" d="M348.226,445.701c-3.301,6.851-10.033,11.382-17.637,11.382h12.34
	c7.604,0,14.336-4.531,17.637-11.382c2.247-4.663,6.577-11.975,15.001-14.591c-1.204-0.169-2.426-0.28-3.676-0.28
	C361.469,430.828,352.466,436.901,348.226,445.701z M53.602,457.082H26.856C12.024,457.082,0,469.106,0,483.938l0,0
	c0,14.832,12.024,26.856,26.856,26.856h26.747c-14.832,0-26.856-12.024-26.856-26.856l0,0
	C26.747,469.106,38.77,457.082,53.602,457.082z M426.807,413.619c-16.633,0-31.078,9.347-38.385,23.072
	c15.361,14.736,16.046-23.072,51.787-20.958C435.986,414.366,431.485,413.619,426.807,413.619z"/>
<path style="fill:#AA715F;" d="M53.017,457.082c-17.67,0-31.995-14.324-31.995-31.995s14.324-31.995,31.995-31.995h82.092v63.989
	H53.017V457.082z"/>
<path style="opacity:0.15;enable-background:new    ;" d="M53.017,457.082c-17.67,0-31.995-14.324-31.995-31.995
	s14.324-31.995,31.995-31.995h82.092v63.989H53.017V457.082z"/>
<circle style="fill:#CFA08F;" cx="135.11" cy="425.09" r="31.995"/>
<g style="opacity:0.1;">
	<path d="M60.41,422.73h-9.044c-4.142,0-7.5-3.358-7.5-7.5c0-4.143,3.358-7.5,7.5-7.5h9.044c4.142,0,7.5,3.357,7.5,7.5
		C67.91,419.373,64.552,422.73,60.41,422.73z"/>
	<path d="M84.364,443.424H69.76c-4.142,0-7.5-3.357-7.5-7.5c0-4.142,3.358-7.5,7.5-7.5h14.604c4.142,0,7.5,3.358,7.5,7.5
		S88.506,443.424,84.364,443.424z"/>
</g>
<circle style="fill:#FFFFFF;" cx="256" cy="227.861" r="40.06"/>
<path style="fill:#CFA08F;" d="M256,275.419c-26.226,0-47.562-21.336-47.562-47.562s21.336-47.563,47.562-47.563
	s47.561,21.337,47.561,47.563S282.226,275.419,256,275.419z M256,195.296c-17.955,0-32.562,14.607-32.562,32.563
	c0,17.954,14.607,32.562,32.562,32.562s32.561-14.607,32.561-32.562C288.561,209.902,273.955,195.296,256,195.296z"/>
<g>
</g>
<g>
</g>
<g>
</g>
<g>
</g>
<g>
</g>
<g>
</g>
<g>
</g>
<g>
</g>
<g>
</g>
<g>
</g>
<g>
</g>
<g>
</g>
<g>
</g>
<g>
</g>
<g>
</g>
</svg>
