<?xml version="1.0" encoding="iso-8859-1"?>
<!-- Generator: Adobe Illustrator 19.0.0, SVG Export Plug-In . SVG Version: 6.00 Build 0)  -->
<svg version="1.1" id="Capa_1" xmlns="http://www.w3.org/2000/svg" xmlns:xlink="http://www.w3.org/1999/xlink" x="0px" y="0px"
	 viewBox="0 0 512 512" style="enable-background:new 0 0 512 512;" xml:space="preserve">
<path style="fill:#E86478;" d="M375.278,432.66L94.297,490.576V58.598l281.73-58.071c15.614-3.218,30.249,8.707,30.249,24.65V394.62
	C406.277,413.048,393.327,428.939,375.278,432.66z"/>
<polygon style="opacity:0.1;enable-background:new    ;" points="218.043,33.091 94.297,58.598 94.297,316.13 406.277,316.13 
	406.277,33.091 "/>
<path style="fill:#F8CA4F;" d="M413.232,512H98.769c-12.408,0-22.467-10.059-22.467-22.467V80.643
	c0-12.408,10.059-22.467,22.467-22.467h314.463c12.408,0,22.467,10.059,22.467,22.467v408.89
	C435.698,501.941,425.639,512,413.232,512z"/>
<path style="fill:#AA715F;" d="M281.344,357.875h-50.688l-9.432,52.255c-0.994,5.507,2.591,10.801,8.074,11.921l0,0
	c17.619,3.6,35.784,3.6,53.403,0l0,0c5.483-1.12,9.068-6.414,8.074-11.921L281.344,357.875z"/>
<path style="opacity:0.1;enable-background:new    ;" d="M281.344,357.875h-50.688l-5.005,27.729
	c20.186,1.931,40.512,1.931,60.698,0L281.344,357.875z"/>
<path style="fill:#61C6AD;" d="M241.481,257.951l-83.982,71.25c-10.207,8.66-6.779,25.183,6.031,29.067l0,0
	c60.291,18.28,124.648,18.28,184.94,0l0,0c12.81-3.884,16.238-20.407,6.031-29.067l-83.982-71.25
	C262.144,250.845,249.856,250.845,241.481,257.951z"/>
<path style="opacity:0.1;enable-background:new    ;" d="M270.519,257.951c-8.375-7.105-20.662-7.105-29.037,0l-57.669,48.926
	c47.333,12.337,97.042,12.337,144.375,0L270.519,257.951z"/>
<path style="fill:#61C6AD;" d="M242.961,203.81l-75.425,63.99c-9.167,7.777-6.088,22.617,5.416,26.105l0,0
	c54.148,16.418,111.948,16.418,166.096,0l0,0c11.504-3.488,14.583-18.328,5.417-26.105l-75.425-63.991
	C261.518,197.428,250.482,197.428,242.961,203.81z"/>
<path style="opacity:0.15;enable-background:new    ;" d="M242.961,203.81l-75.425,63.99c-9.167,7.777-6.088,22.617,5.416,26.105
	l0,0c54.148,16.418,111.948,16.418,166.096,0l0,0c11.504-3.488,14.583-18.328,5.417-26.105l-75.425-63.991
	C261.518,197.428,250.482,197.428,242.961,203.81z"/>
<path style="opacity:0.1;enable-background:new    ;" d="M269.039,203.81c-7.522-6.381-18.557-6.381-26.079,0l-45.932,38.969
	c38.767,9.264,79.176,9.264,117.943,0L269.039,203.81z"/>
<path style="fill:#61C6AD;" d="M244.44,149.669L177.572,206.4c-8.127,6.895-5.397,20.051,4.802,23.143l0,0
	c48.005,14.555,99.247,14.555,147.252,0l0,0c10.199-3.092,12.929-16.249,4.802-23.143l-66.868-56.731
	C260.892,144.012,251.108,144.012,244.44,149.669z"/>
<g>
	<path style="fill:#FFFFFF;" d="M402.061,168.533c-1.919,0-3.839-0.732-5.303-2.196l-37.231-37.231
		c-2.929-2.93-2.929-7.678,0-10.607c2.929-2.928,7.678-2.928,10.606,0l37.231,37.232c2.929,2.93,2.929,7.678,0,10.607
		C405.9,167.801,403.981,168.533,402.061,168.533z"/>
	<path style="fill:#FFFFFF;" d="M364.83,168.533c-1.919,0-3.839-0.732-5.303-2.196c-2.929-2.93-2.929-7.678,0-10.607l37.231-37.232
		c2.929-2.928,7.678-2.928,10.606,0c2.929,2.93,2.929,7.678,0,10.607l-37.231,37.231C368.669,167.801,366.75,168.533,364.83,168.533
		z"/>
	<path style="fill:#FFFFFF;" d="M398.059,257.255c-1.92,0-3.839-0.732-5.303-2.196l-25.379-25.38c-2.929-2.93-2.929-7.678,0-10.607
		c2.929-2.928,7.678-2.928,10.606,0l25.379,25.38c2.929,2.93,2.929,7.678,0,10.607C401.898,256.522,399.979,257.255,398.059,257.255
		z"/>
	<path style="fill:#FFFFFF;" d="M372.68,257.255c-1.919,0-3.839-0.732-5.303-2.196c-2.929-2.93-2.929-7.678,0-10.607l25.379-25.38
		c2.929-2.928,7.678-2.928,10.606,0c2.929,2.93,2.929,7.678,0,10.607l-25.379,25.38C376.519,256.522,374.599,257.255,372.68,257.255
		z"/>
	<path style="fill:#FFFFFF;" d="M135.63,317.255c-1.919,0-3.839-0.732-5.303-2.196l-25.38-25.379c-2.929-2.929-2.929-7.678,0-10.606
		c2.929-2.93,7.678-2.929,10.606-0.001l25.38,25.379c2.929,2.929,2.929,7.678,0,10.606
		C139.469,316.522,137.549,317.255,135.63,317.255z"/>
	<path style="fill:#FFFFFF;" d="M110.25,317.255c-1.919,0-3.839-0.732-5.303-2.197c-2.929-2.929-2.929-7.678,0-10.606l25.38-25.379
		c2.929-2.928,7.678-2.929,10.606,0.001c2.929,2.929,2.929,7.678,0,10.606l-25.38,25.379
		C114.089,316.522,112.169,317.255,110.25,317.255z"/>
	<path style="fill:#FFFFFF;" d="M170.139,152.926c-1.92,0-3.839-0.732-5.303-2.196l-37.231-37.232c-2.929-2.93-2.929-7.678,0-10.607
		c2.929-2.928,7.678-2.928,10.606,0l37.231,37.231c2.929,2.93,2.929,7.678,0,10.607
		C173.978,152.193,172.059,152.926,170.139,152.926z"/>
	<path style="fill:#FFFFFF;" d="M132.908,152.926c-1.919,0-3.839-0.732-5.303-2.196c-2.929-2.93-2.929-7.678,0-10.607l37.231-37.231
		c2.929-2.928,7.678-2.928,10.606,0c2.929,2.93,2.929,7.678,0,10.607l-37.231,37.232
		C136.747,152.193,134.827,152.926,132.908,152.926z"/>
	<path style="fill:#FFFFFF;" d="M383.446,436.044c-1.919,0-3.839-0.732-5.303-2.196l-37.232-37.232
		c-2.929-2.93-2.929-7.678,0-10.607c2.929-2.928,7.678-2.928,10.606,0l37.232,37.231c2.929,2.93,2.929,7.678,0,10.608
		C387.285,435.311,385.365,436.044,383.446,436.044z"/>
	<path style="fill:#FFFFFF;" d="M346.214,436.044c-1.919,0-3.839-0.732-5.303-2.196c-2.929-2.93-2.929-7.678,0-10.608l37.232-37.231
		c2.929-2.928,7.678-2.928,10.606,0c2.929,2.93,2.929,7.678,0,10.607l-37.232,37.232
		C350.053,435.311,348.133,436.044,346.214,436.044z"/>
	<path style="fill:#FFFFFF;" d="M170.139,461.526c-1.92,0-3.839-0.732-5.303-2.196l-37.231-37.232c-2.929-2.93-2.929-7.678,0-10.607
		c2.929-2.928,7.678-2.928,10.606,0l37.231,37.232c2.929,2.93,2.929,7.678,0,10.607
		C173.978,460.794,172.059,461.526,170.139,461.526z"/>
	<path style="fill:#FFFFFF;" d="M132.908,461.526c-1.919,0-3.839-0.732-5.303-2.196c-2.929-2.93-2.929-7.678,0-10.607l37.231-37.232
		c2.929-2.928,7.678-2.928,10.606,0c2.929,2.93,2.929,7.678,0,10.607l-37.231,37.232
		C136.747,460.794,134.827,461.526,132.908,461.526z"/>
</g>
<path style="opacity:0.1;enable-background:new    ;" d="M106.297,489.533V80.643c0-12.408,10.059-22.467,22.467-22.467H98.769
	c-12.408,0-22.467,10.059-22.467,22.467v408.89c0,12.408,10.059,22.467,22.467,22.467h29.995
	C116.355,512,106.297,501.941,106.297,489.533z"/>
<g>
</g>
<g>
</g>
<g>
</g>
<g>
</g>
<g>
</g>
<g>
</g>
<g>
</g>
<g>
</g>
<g>
</g>
<g>
</g>
<g>
</g>
<g>
</g>
<g>
</g>
<g>
</g>
<g>
</g>
</svg>
