<?xml version="1.0" encoding="iso-8859-1"?>
<!-- Generator: Adobe Illustrator 19.0.0, SVG Export Plug-In . SVG Version: 6.00 Build 0)  -->
<svg version="1.1" id="Capa_1" xmlns="http://www.w3.org/2000/svg" xmlns:xlink="http://www.w3.org/1999/xlink" x="0px" y="0px"
	 viewBox="0 0 511.999 511.999" style="enable-background:new 0 0 511.999 511.999;" xml:space="preserve">
<path style="fill:#61C6AD;" d="M321.797,85.62H190.203c-30.836,0-55.834,24.998-55.834,55.834v272.078
	c0,7.093,5.75,12.843,12.843,12.843h217.577c7.093,0,12.843-5.75,12.843-12.843V141.455
	C377.632,110.618,352.634,85.62,321.797,85.62z"/>
<path style="opacity:0.4;fill:#FFFFFF;enable-background:new    ;" d="M364.788,426.375H147.212c-7.093,0-12.843-5.75-12.843-12.843
	v-28.997h243.263v28.997C377.632,420.625,371.882,426.375,364.788,426.375z"/>
<g style="opacity:0.1;">
	<rect x="248.5" y="384.538" width="15" height="41.841"/>
	<rect x="203.84" y="384.538" width="15" height="41.841"/>
	<rect x="159.18" y="384.538" width="15" height="41.841"/>
	<rect x="293.16" y="384.538" width="15" height="41.841"/>
	<rect x="337.82" y="384.538" width="15" height="41.841"/>
</g>
<g>
	<path style="fill:#FFFFFF;" d="M244.57,249.55c-1.919,0-3.839-0.732-5.304-2.196l-33.482-33.482c-2.929-2.93-2.929-7.678,0-10.607
		c2.93-2.928,7.678-2.928,10.607,0l33.482,33.482c2.929,2.93,2.929,7.678,0,10.607C248.409,248.817,246.489,249.55,244.57,249.55z"
		/>
	<path style="fill:#FFFFFF;" d="M211.088,305.891c-1.919,0-3.839-0.733-5.304-2.196c-2.929-2.93-2.929-7.678,0-10.607l33.482-33.482
		c2.93-2.928,7.678-2.928,10.607,0c2.929,2.93,2.929,7.678,0,10.607l-33.482,33.482
		C214.927,305.159,213.007,305.891,211.088,305.891z"/>
	<path style="fill:#FFFFFF;" d="M300.912,305.891c-1.919,0-3.839-0.733-5.304-2.196l-33.482-33.482
		c-2.929-2.93-2.929-7.678,0-10.607c2.93-2.928,7.678-2.928,10.607,0l33.482,33.482c2.929,2.93,2.929,7.678,0,10.607
		C304.751,305.159,302.831,305.891,300.912,305.891z"/>
	<path style="fill:#FFFFFF;" d="M267.43,249.55c-1.919,0-3.839-0.732-5.304-2.196c-2.929-2.93-2.929-7.678,0-10.607l33.482-33.482
		c2.93-2.928,7.678-2.928,10.607,0c2.929,2.93,2.929,7.678,0,10.607l-33.482,33.482C271.269,248.817,269.349,249.55,267.43,249.55z"
		/>
</g>
<g style="opacity:0.1;">
	<path d="M244.57,249.55c-1.919,0-3.839-0.732-5.304-2.196l-33.482-33.482c-2.929-2.93-2.929-7.678,0-10.607
		c2.93-2.928,7.678-2.928,10.607,0l33.482,33.482c2.929,2.93,2.929,7.678,0,10.607C248.409,248.817,246.489,249.55,244.57,249.55z"
		/>
	<path d="M211.088,305.891c-1.919,0-3.839-0.733-5.304-2.196c-2.929-2.93-2.929-7.678,0-10.607l33.482-33.482
		c2.93-2.928,7.678-2.928,10.607,0c2.929,2.93,2.929,7.678,0,10.607l-33.482,33.482
		C214.927,305.159,213.007,305.891,211.088,305.891z"/>
	<path d="M300.912,305.891c-1.919,0-3.839-0.733-5.304-2.196l-33.482-33.482c-2.929-2.93-2.929-7.678,0-10.607
		c2.93-2.928,7.678-2.928,10.607,0l33.482,33.482c2.929,2.93,2.929,7.678,0,10.607C304.751,305.159,302.831,305.891,300.912,305.891
		z"/>
	<path d="M267.43,249.55c-1.919,0-3.839-0.732-5.304-2.196c-2.929-2.93-2.929-7.678,0-10.607l33.482-33.482
		c2.93-2.928,7.678-2.928,10.607,0c2.929,2.93,2.929,7.678,0,10.607l-33.482,33.482C271.269,248.817,269.349,249.55,267.43,249.55z"
		/>
</g>
<g>
	<path style="fill:#FFFFFF;" d="M256,277.143c-13.049,0-23.664-10.615-23.664-23.664c0-13.049,10.615-23.664,23.664-23.664
		c13.049,0,23.664,10.615,23.664,23.664C279.664,266.528,269.049,277.143,256,277.143z M256,244.815
		c-4.777,0-8.664,3.887-8.664,8.664c0,4.777,3.887,8.664,8.664,8.664s8.664-3.887,8.664-8.664
		C264.664,248.702,260.777,244.815,256,244.815z"/>
	<path style="fill:#FFFFFF;" d="M256,244.815c-4.143,0-7.5-3.357-7.5-7.5v-47.048c0-4.143,3.357-7.5,7.5-7.5s7.5,3.357,7.5,7.5
		v47.048C263.5,241.458,260.143,244.815,256,244.815z"/>
	<path style="fill:#FFFFFF;" d="M256,224.288c-1.919,0-3.839-0.732-5.304-2.196l-15.939-15.939c-2.929-2.93-2.929-7.678,0-10.607
		c2.93-2.928,7.678-2.928,10.607,0L256,206.181l10.636-10.637c2.93-2.928,7.678-2.928,10.607,0c2.929,2.93,2.929,7.678,0,10.607
		l-15.939,15.939C259.839,223.555,257.919,224.288,256,224.288z"/>
	<path style="fill:#FFFFFF;" d="M256,197.767c-1.919,0-3.839-0.732-5.304-2.196l-15.939-15.939c-2.929-2.93-2.929-7.678,0-10.607
		c2.93-2.928,7.678-2.928,10.607,0L256,179.661l10.636-10.637c2.93-2.928,7.678-2.928,10.607,0c2.929,2.93,2.929,7.678,0,10.607
		l-15.939,15.939C259.839,197.035,257.919,197.767,256,197.767z"/>
	<path style="fill:#FFFFFF;" d="M239.836,260.979h-47.048c-4.143,0-7.5-3.357-7.5-7.5s3.357-7.5,7.5-7.5h47.048
		c4.143,0,7.5,3.357,7.5,7.5S243.978,260.979,239.836,260.979z"/>
	<path style="fill:#FFFFFF;" d="M203.369,276.919c-1.919,0-3.839-0.732-5.304-2.196c-2.929-2.93-2.929-7.678,0-10.607l10.637-10.636
		l-10.637-10.636c-2.929-2.93-2.929-7.678,0-10.607c2.93-2.928,7.678-2.928,10.607,0l15.939,15.939c2.929,2.93,2.929,7.678,0,10.607
		l-15.939,15.939C207.208,276.186,205.288,276.919,203.369,276.919z"/>
	<path style="fill:#FFFFFF;" d="M176.849,276.919c-1.919,0-3.839-0.732-5.304-2.196c-2.929-2.93-2.929-7.678,0-10.607l10.637-10.636
		l-10.637-10.636c-2.929-2.93-2.929-7.678,0-10.607c2.93-2.928,7.678-2.928,10.607,0l15.939,15.939c2.929,2.93,2.929,7.678,0,10.607
		l-15.939,15.939C180.687,276.186,178.768,276.919,176.849,276.919z"/>
	<path style="fill:#FFFFFF;" d="M256,324.191c-4.143,0-7.5-3.357-7.5-7.5v-47.048c0-4.143,3.357-7.5,7.5-7.5s7.5,3.357,7.5,7.5
		v47.048C263.5,320.834,260.143,324.191,256,324.191z"/>
	<path style="fill:#FFFFFF;" d="M271.939,313.61c-1.919,0-3.839-0.732-5.304-2.196L256,300.777l-10.636,10.637
		c-2.93,2.928-7.678,2.928-10.607,0c-2.929-2.93-2.929-7.678,0-10.607l15.939-15.939c2.93-2.928,7.678-2.928,10.607,0l15.939,15.939
		c2.929,2.93,2.929,7.678,0,10.607C275.778,312.878,273.858,313.61,271.939,313.61z"/>
	<path style="fill:#FFFFFF;" d="M271.939,340.131c-1.919,0-3.839-0.732-5.304-2.196L256,327.298l-10.636,10.637
		c-2.93,2.928-7.678,2.928-10.607,0c-2.929-2.93-2.929-7.678,0-10.607l15.939-15.94c2.93-2.928,7.678-2.928,10.607,0l15.939,15.94
		c2.929,2.93,2.929,7.678,0,10.607C275.778,339.398,273.858,340.131,271.939,340.131z"/>
	<path style="fill:#FFFFFF;" d="M319.212,260.979h-47.048c-4.143,0-7.5-3.357-7.5-7.5s3.357-7.5,7.5-7.5h47.048
		c4.143,0,7.5,3.357,7.5,7.5S323.354,260.979,319.212,260.979z"/>
	<path style="fill:#FFFFFF;" d="M308.631,276.919c-1.919,0-3.839-0.732-5.304-2.196l-15.939-15.939
		c-2.929-2.93-2.929-7.678,0-10.607l15.939-15.939c2.93-2.928,7.678-2.928,10.608,0c2.929,2.93,2.929,7.678,0,10.607l-10.637,10.636
		l10.637,10.636c2.929,2.93,2.929,7.678,0,10.607C312.47,276.186,310.55,276.919,308.631,276.919z"/>
	<path style="fill:#FFFFFF;" d="M335.151,276.919c-1.919,0-3.839-0.732-5.304-2.196l-15.939-15.939
		c-2.929-2.93-2.929-7.678,0-10.607l15.939-15.939c2.93-2.928,7.678-2.928,10.607,0c2.929,2.93,2.929,7.678,0,10.607l-10.637,10.636
		l10.637,10.636c2.929,2.93,2.929,7.678,0,10.607C338.99,276.186,337.07,276.919,335.151,276.919z"/>
	<path style="opacity:0.4;fill:#FFFFFF;enable-background:new    ;" d="M204.363,85.62c0,28.518,23.118,51.637,51.637,51.637
		s51.637-23.119,51.637-51.637H204.363z"/>
</g>
<path style="fill:#61C6AD;" d="M227.206,85.62c0,15.902,12.891,28.794,28.794,28.794s28.794-12.891,28.794-28.794H227.206z"/>
<path style="opacity:0.1;enable-background:new    ;" d="M227.206,85.62c0,15.902,12.891,28.794,28.794,28.794
	s28.794-12.891,28.794-28.794H227.206z"/>
<path style="fill:#E86478;" d="M153.77,366.519l-70.843-70.842c-5.652-5.652-5.652-14.816,0-20.469l51.441-51.441v-82.312
	c0-15.417,6.248-29.374,16.351-39.478l-0.004-0.004L23.161,229.527c-30.881,30.881-30.881,80.949,0,111.83l77.885,77.885
	c6.887,6.887,18.052,6.887,24.939,0l27.785-27.785C160.656,384.571,160.656,373.405,153.77,366.519z"/>
<g>
	<path style="opacity:0.4;fill:#FFFFFF;enable-background:new    ;" d="M20.778,232.033c-23.666,25.796-27.099,63.478-10.31,92.732
		c18.424-8.911,31.132-27.779,31.132-49.616C41.6,257.682,33.461,242.125,20.778,232.033z"/>
	<path style="opacity:0.4;fill:#FFFFFF;enable-background:new    ;" d="M153.77,366.519l-15.974-15.974l-52.724,52.723
		l15.974,15.974c6.887,6.887,18.052,6.887,24.939,0l27.785-27.785C160.656,384.571,160.656,373.406,153.77,366.519z"/>
</g>
<g style="opacity:0.1;">
	<rect x="96.467" y="392.708" transform="matrix(-0.7071 -0.7071 0.7071 -0.7071 -83.9727 765.6331)" width="40.23" height="15"/>
	<rect x="114.724" y="374.434" transform="matrix(-0.7071 -0.7071 0.7071 -0.7071 -39.8837 747.3474)" width="40.23" height="15"/>
</g>
<path style="opacity:0.1;enable-background:new    ;" d="M142.704,402.523c-6.886,6.887-18.052,6.887-24.939,0L39.88,324.637
	c-30.881-30.881-30.881-80.949,0-111.83l-16.719,16.72c-30.881,30.881-30.881,80.949,0,111.83l77.885,77.885
	c6.887,6.887,18.052,6.887,24.939,0l27.785-27.785l0.001-0.001L142.704,402.523z"/>
<path style="fill:#E86478;" d="M358.23,366.519l70.843-70.842c5.652-5.652,5.652-14.816,0-20.469l-51.441-51.441v-82.312
	c0-15.417-6.248-29.374-16.351-39.478l0.004-0.004l127.554,127.555c30.881,30.881,30.881,80.949,0,111.83l-77.885,77.885
	c-6.887,6.887-18.052,6.887-24.939,0l-27.785-27.785C351.343,384.571,351.343,373.405,358.23,366.519z"/>
<g>
	<path style="opacity:0.4;fill:#FFFFFF;enable-background:new    ;" d="M491.222,232.033c23.666,25.796,27.099,63.478,10.31,92.732
		c-18.423-8.911-31.132-27.779-31.132-49.616C470.4,257.682,478.539,242.125,491.222,232.033z"/>
	<path style="opacity:0.4;fill:#FFFFFF;enable-background:new    ;" d="M358.23,366.519l15.974-15.974l52.724,52.724l-15.974,15.974
		c-6.887,6.887-18.052,6.887-24.939,0l-27.785-27.785C351.343,384.571,351.343,373.406,358.23,366.519z"/>
</g>
<g style="opacity:0.1;">
	<rect x="387.956" y="380.094" transform="matrix(-0.7072 -0.707 0.707 -0.7072 392.1742 962.83)" width="15" height="40.23"/>
	<rect x="369.63" y="361.826" transform="matrix(-0.707 -0.7072 0.7072 -0.707 373.653 918.6849)" width="15" height="40.23"/>
</g>
<path style="opacity:0.1;enable-background:new    ;" d="M397.752,407.505l-27.785-27.785c-6.887-6.887-6.887-18.052,0-24.939
	l-11.737,11.737c-6.887,6.887-6.887,18.052,0,24.939l27.785,27.785c6.887,6.887,18.052,6.887,24.939,0l11.737-11.737
	C415.804,414.392,404.639,414.392,397.752,407.505z M440.81,263.47l-63.178-63.178v23.474l51.441,51.441
	c5.652,5.652,5.652,14.817,0,20.469l11.737-11.737C446.462,278.287,446.462,269.123,440.81,263.47z"/>
<g>
</g>
<g>
</g>
<g>
</g>
<g>
</g>
<g>
</g>
<g>
</g>
<g>
</g>
<g>
</g>
<g>
</g>
<g>
</g>
<g>
</g>
<g>
</g>
<g>
</g>
<g>
</g>
<g>
</g>
</svg>
