<?xml version="1.0" encoding="iso-8859-1"?>
<!-- Generator: Adobe Illustrator 19.0.0, SVG Export Plug-In . SVG Version: 6.00 Build 0)  -->
<svg version="1.1" id="Capa_1" xmlns="http://www.w3.org/2000/svg" xmlns:xlink="http://www.w3.org/1999/xlink" x="0px" y="0px"
	 viewBox="0 0 512.003 512.003" style="enable-background:new 0 0 512.003 512.003;" xml:space="preserve">
<g transform="matrix(-0.5 -0.866 0.866 -0.5 69.48 648.91)">
	<rect x="181.809" y="278.22" style="fill:#E86478;" width="80.52" height="52.36"/>
	<rect x="181.809" y="278.22" style="opacity:0.2;enable-background:new    ;" width="80.52" height="52.36"/>
</g>
<path style="fill:#E86478;" d="M239.13,281.594c14.363,24.878,5.604,56.761-19.61,70.762c-24.683,13.706-55.87,4.438-69.987-20.012
	L34.888,133.772c-4.337-7.511-1.763-17.115,5.748-21.452l113.09-65.293c7.511-4.337,17.115-1.763,21.452,5.748l115.069,199.306
	L239.13,281.594z"/>
<path style="opacity:0.1;enable-background:new    ;" d="M239.13,281.594c14.363,24.878,5.604,56.761-19.61,70.762
	c-24.683,13.706-55.87,4.438-69.987-20.012L34.888,133.772c-4.337-7.511-1.763-17.115,5.748-21.452l113.09-65.293
	c7.511-4.337,17.115-1.763,21.452,5.748l115.069,199.306L239.13,281.594z"/>
<g>
	<path style="fill:#FFFFFF;" d="M189.407,216.717c-0.643,0-1.296-0.083-1.946-0.258c-4.001-1.072-6.375-5.184-5.303-9.186
		l10.757-40.145c1.072-4.001,5.182-6.379,9.186-5.303c4.001,1.072,6.375,5.185,5.303,9.186l-10.757,40.145
		C195.749,214.507,192.719,216.717,189.407,216.717z"/>
	<path style="fill:#FFFFFF;" d="M214.858,202.022c-0.643,0-1.296-0.083-1.946-0.258l-40.146-10.756
		c-4.001-1.071-6.375-5.184-5.303-9.186c1.071-4.001,5.184-6.378,9.186-5.303l40.145,10.756c4.001,1.071,6.375,5.184,5.303,9.186
		C221.2,199.812,218.17,202.022,214.858,202.022z"/>
	<path style="fill:#FFFFFF;" d="M167.6,298.103c-0.643,0-1.296-0.083-1.946-0.258c-4.001-1.072-6.375-5.185-5.303-9.186
		l10.757-40.144c1.072-4.001,5.182-6.379,9.186-5.303c4.001,1.072,6.375,5.185,5.303,9.186l-10.757,40.145
		C173.941,295.893,170.911,298.103,167.6,298.103z"/>
	<path style="fill:#FFFFFF;" d="M193.051,283.41c-0.642,0-1.296-0.083-1.946-0.258l-40.146-10.757
		c-4.001-1.071-6.375-5.185-5.303-9.186c1.071-4.001,5.184-6.378,9.185-5.303l40.146,10.757c4.001,1.071,6.375,5.185,5.303,9.186
		C199.392,281.2,196.362,283.41,193.051,283.41z"/>
</g>
<g>
	
		<rect x="131.762" y="71.55" transform="matrix(-0.5 -0.866 0.866 -0.5 76.7886 349.4205)" style="fill:#EEEDED;" width="15" height="161.986"/>
	
		<rect x="111.838" y="37.045" transform="matrix(-0.5 -0.866 0.866 -0.5 76.7845 280.4066)" style="fill:#EEEDED;" width="15" height="161.986"/>
</g>
<path style="fill:#E86478;" d="M475.014,397.578l-113.09,65.293c-7.511,4.336-17.116,1.763-21.452-5.748L219.184,247.046
	c-10.31-17.857-4.192-40.69,13.665-51l75.625-43.662c17.857-10.31,40.69-4.191,51,13.665l121.288,210.076
	C485.099,383.637,482.525,393.242,475.014,397.578z"/>
<g>
	
		<rect x="368.905" y="276.344" transform="matrix(-0.5 -0.866 0.866 -0.5 255.1512 861.9832)" style="fill:#EEEDED;" width="15" height="161.986"/>
	
		<rect x="388.835" y="310.858" transform="matrix(-0.5 -0.866 0.866 -0.5 255.1554 931.0143)" style="fill:#EEEDED;" width="15" height="161.986"/>
</g>
<g>
	<path style="fill:#FFFFFF;" d="M331.399,272.687c-0.643,0-1.296-0.083-1.946-0.258c-4.001-1.071-6.375-5.184-5.303-9.185
		l7.624-28.454c1.072-4.001,5.185-6.379,9.186-5.303c4.001,1.071,6.375,5.185,5.303,9.186l-7.624,28.454
		C337.741,270.477,334.711,272.687,331.399,272.687z"/>
	<path style="fill:#FFFFFF;" d="M319.084,279.798c-0.642,0-1.296-0.083-1.946-0.258l-28.455-7.624
		c-4.001-1.071-6.375-5.185-5.303-9.186c1.071-4.001,5.184-6.379,9.186-5.303l28.455,7.624c4.001,1.071,6.375,5.185,5.303,9.186
		C325.426,277.588,322.396,279.798,319.084,279.798z"/>
	<path style="fill:#FFFFFF;" d="M318.569,320.568c-0.643,0-1.296-0.083-1.946-0.258c-4.001-1.072-6.375-5.185-5.303-9.186
		l7.625-28.455c1.072-4.001,5.185-6.38,9.186-5.303c4.001,1.072,6.375,5.185,5.303,9.186l-7.625,28.455
		C324.911,318.358,321.881,320.568,318.569,320.568z"/>
	<path style="fill:#FFFFFF;" d="M366.964,292.628c-0.643,0-1.296-0.083-1.946-0.258l-28.454-7.625
		c-4.001-1.072-6.375-5.185-5.303-9.186c1.071-4.001,5.185-6.379,9.185-5.303l28.454,7.625c4.001,1.072,6.375,5.185,5.303,9.186
		C373.306,290.418,370.275,292.628,366.964,292.628z"/>
	<path style="fill:#FFFFFF;" d="M328.821,292.451c-6.072,0-11.984-3.148-15.233-8.773c-2.345-4.063-2.967-8.793-1.754-13.322
		c1.214-4.53,4.119-8.316,8.18-10.66c4.061-2.346,8.793-2.967,13.322-1.754c4.529,1.214,8.315,4.119,10.659,8.18
		c2.345,4.061,2.968,8.792,1.754,13.321c-1.214,4.529-4.118,8.315-8.179,10.66c-0.001,0-0.001,0-0.001,0
		C334.812,291.694,331.797,292.451,328.821,292.451z M333.819,283.607h0.01H333.819z M328.784,272.343
		c-0.368,0-0.813,0.079-1.27,0.343c-0.799,0.461-1.089,1.17-1.191,1.552c-0.103,0.382-0.205,1.142,0.255,1.939
		c0.705,1.22,2.272,1.64,3.491,0.936c1.221-0.705,1.64-2.271,0.935-3.49c-0.461-0.799-1.17-1.09-1.552-1.192
		C329.29,272.387,329.058,272.343,328.784,272.343z"/>
	<path style="fill:#FFFFFF;" d="M337.507,277.372c-2.592,0-5.113-1.345-6.502-3.751c-2.071-3.587-0.842-8.174,2.745-10.245
		l25.349-14.635c3.586-2.069,8.175-0.843,10.245,2.745c2.071,3.587,0.842,8.174-2.745,10.245l-25.349,14.635
		C340.069,277.048,338.779,277.372,337.507,277.372z"/>
	<path style="fill:#FFFFFF;" d="M376.399,266.368c-0.643,0-1.296-0.083-1.946-0.258l-13.546-3.63
		c-4.001-1.072-6.375-5.184-5.303-9.185l3.629-13.546c1.071-4.002,5.188-6.378,9.185-5.304c4.001,1.071,6.376,5.184,5.304,9.185
		l-1.688,6.302l6.302,1.689c4.001,1.072,6.375,5.185,5.303,9.186C382.741,264.158,379.711,266.368,376.399,266.368z"/>
	<path style="fill:#FFFFFF;" d="M323.771,273.691c-2.592,0-5.113-1.345-6.502-3.751l-14.635-25.349
		c-2.071-3.587-0.842-8.174,2.745-10.245c3.586-2.07,8.175-0.843,10.245,2.745l14.635,25.349c2.071,3.587,0.842,8.174-2.745,10.245
		C326.333,273.367,325.043,273.691,323.771,273.691z"/>
	<path style="fill:#FFFFFF;" d="M309.134,248.344c-0.642,0-1.295-0.083-1.945-0.258l-13.546-3.629
		c-4.001-1.071-6.376-5.184-5.304-9.185c1.071-4.002,5.188-6.381,9.185-5.304l6.302,1.688l1.689-6.302
		c1.071-4.001,5.185-6.378,9.186-5.303c4.001,1.072,6.375,5.185,5.303,9.186l-3.63,13.546
		C315.475,246.134,312.444,248.344,309.134,248.344z"/>
	<path style="fill:#FFFFFF;" d="M294.742,302.062c-2.592,0-5.112-1.345-6.502-3.751c-2.071-3.587-0.842-8.174,2.745-10.245
		l25.348-14.635c3.585-2.069,8.173-0.843,10.245,2.745c2.071,3.587,0.842,8.174-2.745,10.245l-25.348,14.635
		C297.305,301.738,296.015,302.062,294.742,302.062z"/>
	<path style="fill:#FFFFFF;" d="M291.11,315.609c-0.643,0-1.296-0.083-1.946-0.258c-4.001-1.072-6.375-5.185-5.303-9.185
		l1.689-6.302l-6.302-1.688c-4.001-1.072-6.375-5.185-5.303-9.186c1.071-4.001,5.184-6.378,9.186-5.303l13.546,3.63
		c4.001,1.072,6.375,5.185,5.303,9.186l-3.63,13.546C297.452,313.399,294.422,315.609,291.11,315.609z"/>
	<path style="fill:#FFFFFF;" d="M348.461,316.456c-2.592,0-5.112-1.345-6.502-3.751l-14.635-25.348
		c-2.071-3.587-0.842-8.174,2.745-10.245c3.586-2.069,8.173-0.843,10.245,2.745l14.635,25.348c2.071,3.587,0.842,8.174-2.745,10.245
		C351.023,316.132,349.733,316.456,348.461,316.456z"/>
	<path style="fill:#FFFFFF;" d="M344.829,330.003c-0.643,0-1.296-0.083-1.946-0.258c-4.001-1.072-6.375-5.185-5.303-9.186
		l3.63-13.546c1.071-4.001,5.184-6.377,9.186-5.303l13.546,3.63c4.001,1.072,6.375,5.184,5.303,9.185
		c-1.071,4.001-5.183,6.38-9.186,5.303l-6.302-1.688l-1.689,6.302C351.171,327.793,348.141,330.003,344.829,330.003z"/>
</g>
<g>
	<path style="fill:#EEEDED;" d="M488.948,464.218c-2.592,0-5.112-1.345-6.502-3.751l-29.09-50.385
		c-2.071-3.587-0.842-8.174,2.745-10.245c3.585-2.069,8.174-0.843,10.245,2.745l29.09,50.385c2.071,3.587,0.842,8.174-2.745,10.245
		C491.511,463.893,490.221,464.218,488.948,464.218z"/>
	<path style="fill:#EEEDED;" d="M447.565,488.11c-2.592,0-5.112-1.345-6.502-3.751l-29.09-50.385
		c-2.071-3.587-0.842-8.174,2.745-10.245c3.585-2.07,8.174-0.842,10.245,2.745l29.09,50.385c2.071,3.587,0.842,8.174-2.745,10.245
		C450.128,487.786,448.838,488.11,447.565,488.11z"/>
	<path style="fill:#EEEDED;" d="M406.183,512.003c-2.592,0-5.112-1.345-6.502-3.751l-29.09-50.385
		c-2.071-3.587-0.842-8.174,2.745-10.245c3.585-2.07,8.173-0.843,10.245,2.745l29.09,50.385c2.071,3.587,0.842,8.174-2.745,10.245
		C408.745,511.679,407.455,512.003,406.183,512.003z"/>
	<path style="fill:#EEEDED;" d="M134.925,65.387c-2.592,0-5.112-1.345-6.502-3.751l-29.09-50.385
		c-2.071-3.587-0.842-8.174,2.745-10.245c3.586-2.07,8.173-0.842,10.245,2.745l29.09,50.385c2.071,3.587,0.842,8.174-2.745,10.245
		C137.487,65.063,136.197,65.387,134.925,65.387z"/>
	<path style="fill:#EEEDED;" d="M93.542,89.28c-2.592,0-5.112-1.345-6.502-3.751L57.95,35.144
		c-2.071-3.587-0.842-8.174,2.745-10.245c3.586-2.07,8.173-0.843,10.245,2.745l29.09,50.385c2.071,3.587,0.842,8.174-2.745,10.245
		C96.104,88.956,94.814,89.28,93.542,89.28z"/>
	<path style="fill:#EEEDED;" d="M52.159,113.173c-2.592,0-5.112-1.345-6.502-3.751l-29.09-50.385
		c-2.071-3.587-0.842-8.174,2.745-10.245c3.586-2.07,8.173-0.843,10.245,2.745l29.09,50.385c2.071,3.587,0.842,8.174-2.745,10.245
		C54.722,112.848,53.432,113.173,52.159,113.173z"/>
</g>
<g>
</g>
<g>
</g>
<g>
</g>
<g>
</g>
<g>
</g>
<g>
</g>
<g>
</g>
<g>
</g>
<g>
</g>
<g>
</g>
<g>
</g>
<g>
</g>
<g>
</g>
<g>
</g>
<g>
</g>
</svg>
