<?xml version="1.0" encoding="iso-8859-1"?>
<!-- Generator: Adobe Illustrator 19.0.0, SVG Export Plug-In . SVG Version: 6.00 Build 0)  -->
<svg version="1.1" id="Capa_1" xmlns="http://www.w3.org/2000/svg" xmlns:xlink="http://www.w3.org/1999/xlink" x="0px" y="0px"
	 viewBox="0 0 512 512" style="enable-background:new 0 0 512 512;" xml:space="preserve">
<path style="fill:#92D2E7;" d="M423.198,439.258H232.859c-11.756,0-21.863-8.33-24.108-19.87L144.516,89.197
	c-2.941-15.119,8.638-29.167,24.04-29.167h318.945c15.402,0,26.981,14.049,24.04,29.167l-64.236,330.191
	C445.061,430.927,434.954,439.258,423.198,439.258z"/>
<path style="opacity:0.4;fill:#FFFFFF;enable-background:new    ;" d="M200.35,376.202l8.401,43.186
	c2.245,11.539,12.352,19.87,24.108,19.87h190.339c11.756,0,21.863-8.331,24.108-19.87l8.401-43.186H200.35z"/>
<polygon style="fill:#EEEDED;" points="155.009,143.135 200.35,376.202 455.707,376.202 501.048,143.135 "/>
<g>
	<path style="fill:#485458;" d="M256.745,224.745c-4.142,0-7.5-3.357-7.5-7.5v-12.789c0-4.142,3.358-7.5,7.5-7.5
		c4.143,0,7.5,3.358,7.5,7.5v12.789C264.245,221.388,260.888,224.745,256.745,224.745z"/>
	<path style="fill:#485458;" d="M410.836,224.745c-4.143,0-7.5-3.357-7.5-7.5v-12.789c0-4.142,3.357-7.5,7.5-7.5s7.5,3.358,7.5,7.5
		v12.789C418.336,221.388,414.978,224.745,410.836,224.745z"/>
	<path style="fill:#485458;" d="M354.103,227.031c0,12.184-10.093,22.01-22.374,21.573c-11.698-0.416-20.8-10.386-20.8-22.091
		v-15.184c0-3.251,2.635-5.886,5.886-5.886h31.402c3.251,0,5.886,2.635,5.886,5.886V227.031z"/>
</g>
<path style="opacity:0.1;enable-background:new    ;" d="M253.035,419.388L188.799,89.197c-2.941-15.119,8.638-29.167,24.04-29.167
	h-44.283c-15.402,0-26.981,14.049-24.04,29.167l64.236,330.191c2.245,11.539,12.352,19.87,24.108,19.87h44.283
	C265.387,439.258,255.28,430.927,253.035,419.388z"/>
<g>
	<path style="fill:#FFFFFF;" d="M447.58,242.353c-0.475,0-0.956-0.045-1.44-0.139c-4.066-0.791-6.722-4.729-5.931-8.794
		l3.979-20.452c0.791-4.066,4.729-6.718,8.794-5.931c4.066,0.791,6.722,4.729,5.931,8.794l-3.978,20.452
		C454.237,239.866,451.098,242.353,447.58,242.353z"/>
	<path style="fill:#FFFFFF;" d="M458.034,188.615c-0.475,0-0.956-0.045-1.44-0.139c-4.066-0.791-6.721-4.729-5.93-8.795
		l13.407-68.918c0.792-4.064,4.722-6.717,8.795-5.93c4.065,0.791,6.721,4.729,5.93,8.795l-13.407,68.918
		C464.691,186.129,461.552,188.615,458.034,188.615z"/>
</g>
<circle style="fill:#CFA08F;" cx="119.32" cy="332.649" r="119.32"/>
<g style="opacity:0.1;">
	<circle cx="55.816" cy="345.229" r="7.72"/>
	<circle cx="91.15" cy="242.369" r="7.72"/>
	<circle cx="112.97" cy="313.369" r="7.72"/>
	<circle cx="136.34" cy="415.449" r="7.72"/>
	<circle cx="212.47" cy="318.559" r="7.72"/>
</g>
<path style="opacity:0.1;enable-background:new    ;" d="M129.448,440.844c-65.9,0-119.323-53.423-119.323-119.323
	c0-28.216,9.8-54.139,26.173-74.567C13.917,268.643,0,299.017,0,332.645c0,65.9,53.423,119.323,119.323,119.323
	c37.684,0,71.282-17.474,93.15-44.756C190.994,428.027,161.72,440.844,129.448,440.844z"/>
<path style="fill:#AA715F;" d="M168.493,297.993c24.323-4.721,37.415-18.987,37.415-42.897s-15.449-32.23-38.518-38.517
	c-29.999-8.176-48.067,14.608-48.067,38.517C119.323,279.006,145.021,302.549,168.493,297.993z"/>
<path style="opacity:0.1;enable-background:new    ;" d="M176.315,290.171c-23.471,4.556-49.17-18.987-49.17-42.897
	c0-9.517,2.871-18.848,8.209-26.126c-10.324,7.43-16.031,20.511-16.031,33.948c0,23.91,25.698,47.453,49.17,42.897
	c13.571-2.634,23.642-8.243,29.897-16.837C192.59,285.437,185.207,288.445,176.315,290.171z"/>
<path style="fill:#AA715F;" d="M4.332,292.958c0,21.107,21.482,33.379,37.675,28.752c20.295-5.799,35.297-9.582,35.297-30.689
	s-19.434-41.193-40.585-35.408C16.36,261.181,4.332,271.851,4.332,292.958z"/>
<path style="opacity:0.1;enable-background:new    ;" d="M49.501,314.218c-16.194,4.627-37.675-7.645-37.675-28.752
	c0-8.841,2.118-15.846,6.067-21.417c-8.723,6.351-13.56,15.532-13.56,28.91c0,21.107,21.482,33.379,37.675,28.752
	c14.6-4.171,26.46-7.301,31.967-16.586C67.747,309.113,59.236,311.436,49.501,314.218z"/>
<path style="fill:#AA715F;" d="M30.46,404.25c4.452,20.841,15.298,36.278,36.406,36.278s35.17-12.394,38.048-33.304
	c2.792-20.286-11.748-33.995-38.218-38.218C45.851,365.681,26.051,383.608,30.46,404.25z"/>
<path style="opacity:0.1;enable-background:new    ;" d="M73.152,434.242c-21.107,0-31.954-15.437-36.406-36.279
	c-1.802-8.438,0.444-16.42,5.15-22.685c-8.729,6.593-13.919,17.352-11.437,28.972c4.452,20.841,15.298,36.278,36.406,36.278
	c13.232,0,23.694-4.872,30.369-13.659C90.932,431.657,82.777,434.242,73.152,434.242z"/>
<path style="fill:#AA715F;" d="M141.271,369.516c4.607,16.542,15.146,30.318,32.806,30.318s26.405-13.306,31.147-30.318
	c4.635-16.625-15.1-35.152-35.94-31.723C151.859,340.661,136.533,352.503,141.271,369.516z"/>
<path style="opacity:0.1;enable-background:new    ;" d="M180.578,393.333c-17.66,0-28.199-13.776-32.806-30.318
	c-1.908-6.851-0.559-12.861,2.867-17.787c-7.786,5.665-12.223,14.035-9.368,24.288c4.607,16.542,15.146,30.318,32.806,30.318
	c10.163,0,17.369-4.412,22.564-11.396C192.322,391.54,187.051,393.333,180.578,393.333z"/>
<g>
</g>
<g>
</g>
<g>
</g>
<g>
</g>
<g>
</g>
<g>
</g>
<g>
</g>
<g>
</g>
<g>
</g>
<g>
</g>
<g>
</g>
<g>
</g>
<g>
</g>
<g>
</g>
<g>
</g>
</svg>
