<?xml version="1.0" encoding="iso-8859-1"?>
<!-- Generator: Adobe Illustrator 19.0.0, SVG Export Plug-In . SVG Version: 6.00 Build 0)  -->
<svg version="1.1" id="Capa_1" xmlns="http://www.w3.org/2000/svg" xmlns:xlink="http://www.w3.org/1999/xlink" x="0px" y="0px"
	 viewBox="0 0 512 512" style="enable-background:new 0 0 512 512;" xml:space="preserve">
<circle style="fill:#F7C2AD;" cx="54.38" cy="234.65" r="54.38"/>
<path style="opacity:0.2;fill:#E86478;enable-background:new    ;" d="M54.376,268.563c-9.053,0-17.564-3.523-23.968-9.923
	c-6.407-6.401-9.938-14.916-9.941-23.974s3.52-17.574,9.922-23.981s14.916-9.938,23.974-9.941c0.004,0,0.009,0,0.014,0
	c18.691,0,33.901,15.202,33.91,33.895c0.007,18.698-15.198,33.916-33.896,33.924C54.386,268.563,54.38,268.563,54.376,268.563z
	 M54.384,253.563l0.003,7.5L54.384,253.563c10.427-0.004,18.906-8.49,18.902-18.918c-0.004-10.423-8.487-18.901-18.91-18.901
	c-0.003,0-0.004,0-0.008,0c-5.051,0.002-9.798,1.971-13.369,5.544c-3.57,3.573-5.535,8.322-5.533,13.373s1.971,9.799,5.544,13.369
	c3.571,3.568,8.318,5.533,13.366,5.533C54.379,253.563,54.381,253.563,54.384,253.563z"/>
<circle style="fill:#F7C2AD;" cx="457.62" cy="234.65" r="54.38"/>
<path style="opacity:0.2;fill:#E86478;enable-background:new    ;" d="M457.624,268.563c-0.005,0-0.009,0-0.014,0
	c-18.698-0.008-33.903-15.226-33.896-33.924c0.008-18.692,15.22-33.895,33.91-33.895c0.005,0,0.008,0,0.014,0
	c9.058,0.004,17.572,3.534,23.974,9.941s9.926,14.924,9.922,23.981c-0.003,9.058-3.534,17.572-9.941,23.974
	C475.188,265.039,466.676,268.563,457.624,268.563z M457.616,253.563c0.003,0,0.005,0,0.008,0c5.048,0,9.795-1.965,13.366-5.533
	c3.573-3.57,5.542-8.318,5.544-13.369c0.002-5.051-1.963-9.8-5.533-13.373c-3.57-3.573-8.318-5.542-13.369-5.544
	c-0.002,0-0.005,0-0.008,0c-10.423,0-18.905,8.477-18.91,18.901C438.71,245.072,447.189,253.559,457.616,253.563z"/>
<path style="fill:#485458;" d="M480.193,224.67C480.193,105.127,379.818,8.218,256,8.218S31.807,105.127,31.807,224.67v186.168
	c0,51.332,41.613,92.944,92.944,92.944h262.498c51.332,0,92.944-41.613,92.944-92.944V224.67z"/>
<path style="opacity:0.1;enable-background:new    ;" d="M322.981,462.433H189.56c-71.379,0-129.243-57.864-129.243-129.243V230.898
	h391.906v102.293C452.224,404.569,394.36,462.433,322.981,462.433z"/>
<ellipse style="fill:#F7C2AD;" cx="256" cy="230.9" rx="195.68" ry="200.89"/>
<path style="opacity:0.05;enable-background:new    ;" d="M93.583,209.269c77.031,1.337,216.528-1.387,278.984-53.424
	c16.003,34.831,47.891,51.794,78.252,56.208C441.563,109.943,357.881,30.008,256,30.008c-108.072,0-195.682,89.941-195.682,200.889
	s87.61,200.89,195.682,200.89c60.784,0,115.095-28.452,150.986-73.09c-34.55,31.495-80.027,50.633-129.866,50.633
	c-103.791,0-188.704-82.958-195.268-187.81C81.432,214.8,86.852,209.152,93.583,209.269z"/>
<g>
	<path style="fill:#485458;" d="M161.571,245.458c-4.142,0-7.5-3.357-7.5-7.5v-15.675c0-4.143,3.358-7.5,7.5-7.5s7.5,3.357,7.5,7.5
		v15.675C169.071,242.101,165.713,245.458,161.571,245.458z"/>
	<path style="fill:#485458;" d="M350.429,245.458c-4.142,0-7.5-3.357-7.5-7.5v-15.675c0-4.143,3.358-7.5,7.5-7.5s7.5,3.357,7.5,7.5
		v15.675C357.929,242.101,354.571,245.458,350.429,245.458z"/>
	<path style="fill:#485458;" d="M256,257.494c-11.709,0-22.844-5.071-30.55-13.914c-2.721-3.123-2.396-7.86,0.727-10.582
		c3.123-2.721,7.86-2.395,10.582,0.727c4.857,5.573,11.87,8.77,19.242,8.77s14.385-3.196,19.242-8.77
		c2.722-3.123,7.46-3.447,10.582-0.727c3.123,2.722,3.448,7.459,0.727,10.582C278.844,252.423,267.708,257.494,256,257.494z"/>
	<path style="fill:#485458;" d="M467.222,199.26c-34.564,0-75.724-16.203-94.655-57.405
		c-80.172,66.798-287.305,52.339-326.281,52.339c0-34.153,38.241-174.281,209.714-174.281S467.222,168.38,467.222,199.26z"/>
</g>
<g style="opacity:0.1;">
	<path d="M135,165.934c-4.142,0-7.5-3.357-7.5-7.5s3.358-7.5,7.5-7.5c30.396,0,131.765-9.811,172.097-39.849
		c3.322-2.475,8.02-1.788,10.495,1.535c2.474,3.321,1.787,8.021-1.535,10.494C268.559,158.49,155.326,165.934,135,165.934z"/>
	<path d="M223.279,111.342c-3.736,0-6.971-2.788-7.436-6.591c-0.503-4.111,2.423-7.853,6.535-8.354
		c16.565-2.025,68.831-17.98,84.834-29.428c3.368-2.409,8.053-1.631,10.463,1.737c2.41,3.369,1.632,8.054-1.737,10.464
		c-19.616,14.031-75.816,30.169-91.742,32.115C223.89,111.323,223.582,111.342,223.279,111.342z"/>
</g>
<g>
</g>
<g>
</g>
<g>
</g>
<g>
</g>
<g>
</g>
<g>
</g>
<g>
</g>
<g>
</g>
<g>
</g>
<g>
</g>
<g>
</g>
<g>
</g>
<g>
</g>
<g>
</g>
<g>
</g>
</svg>
