<?xml version="1.0" encoding="iso-8859-1"?>
<!-- Generator: Adobe Illustrator 19.0.0, SVG Export Plug-In . SVG Version: 6.00 Build 0)  -->
<svg version="1.1" id="Capa_1" xmlns="http://www.w3.org/2000/svg" xmlns:xlink="http://www.w3.org/1999/xlink" x="0px" y="0px"
	 viewBox="0 0 512 512" style="enable-background:new 0 0 512 512;" xml:space="preserve">
<circle style="fill:#F7C2AD;" cx="54.38" cy="291.999" r="54.38"/>
<path style="opacity:0.2;fill:#E86478;enable-background:new    ;" d="M54.376,325.907c-9.053,0-17.563-3.523-23.968-9.923
	c-6.407-6.401-9.938-14.916-9.941-23.974c-0.003-9.058,3.52-17.574,9.922-23.981c6.402-6.407,14.916-9.938,23.974-9.941
	c0.004,0,0.009,0,0.014,0c18.691,0,33.901,15.203,33.91,33.896c0.004,9.058-3.52,17.574-9.922,23.981
	c-6.402,6.407-14.916,9.938-23.974,9.941C54.386,325.907,54.38,325.907,54.376,325.907z M54.384,310.907l0.003,7.5L54.384,310.907
	c5.051-0.002,9.798-1.971,13.369-5.544c3.57-3.573,5.535-8.322,5.533-13.373c-0.004-10.424-8.487-18.902-18.91-18.902
	c-0.003,0-0.004,0-0.008,0c-5.051,0.002-9.798,1.971-13.369,5.544c-3.57,3.573-5.535,8.322-5.533,13.373s1.971,9.799,5.544,13.369
	c3.571,3.568,8.318,5.533,13.366,5.533C54.379,310.907,54.381,310.907,54.384,310.907z"/>
<circle style="fill:#F7C2AD;" cx="457.62" cy="291.999" r="54.38"/>
<path style="opacity:0.2;fill:#E86478;enable-background:new    ;" d="M457.624,325.907c-0.005,0-0.009,0-0.014,0
	c-9.058-0.004-17.572-3.534-23.974-9.941s-9.926-14.924-9.922-23.981c0.008-18.692,15.22-33.896,33.91-33.896
	c0.005,0,0.008,0,0.014,0c9.058,0.004,17.572,3.534,23.974,9.941s9.926,14.924,9.922,23.981c-0.003,9.058-3.534,17.572-9.941,23.974
	C475.188,322.384,466.676,325.907,457.624,325.907z M457.616,310.907c0.003,0,0.005,0,0.008,0c5.048,0,9.794-1.965,13.366-5.533
	c3.573-3.57,5.542-8.318,5.544-13.369s-1.963-9.8-5.533-13.373c-3.57-3.573-8.318-5.542-13.369-5.544c-0.002,0-0.005,0-0.008,0
	c-10.423,0-18.905,8.478-18.91,18.902c-0.002,5.051,1.963,9.8,5.533,13.373C447.817,308.937,452.565,310.905,457.616,310.907z"/>
<path style="opacity:0.1;enable-background:new    ;" d="M403.456,287.236c2.629-29.916,29.013-52.036,58.929-49.406
	c8.799,0.773,16.914,3.614,23.932,7.983v41.895c0,7.795-3.924,14.033-9.485,17.7c-1.545,13.732-4.425,27.076-8.524,39.906l0,0
	c-4.964,0.993-10.147,1.318-15.445,0.852C422.947,343.535,400.827,317.152,403.456,287.236z"/>
<path style="opacity:0.1;enable-background:new    ;" d="M108.544,287.236c-2.63-29.916-29.013-52.036-58.929-49.406
	c-8.799,0.773-16.914,3.614-23.932,7.983v41.895c0,7.795,3.924,14.033,9.485,17.7c1.545,13.732,4.425,27.076,8.524,39.906l0,0
	c4.964,0.993,10.147,1.318,15.445,0.852C89.053,343.535,111.173,317.152,108.544,287.236z"/>
<ellipse style="fill:#F7C2AD;" cx="256" cy="282.019" rx="201.62" ry="194.66"/>
<path style="opacity:0.05;enable-background:new    ;" d="M354.896,75.637c-26.65,0-50.097,13.67-63.746,34.37
	c-12.057-7.975-26.501-12.63-42.039-12.63c-21.093,0-40.187,8.559-54.001,22.391c-12.871-9.898-28.978-15.797-46.47-15.797
	c-42.148,0-76.317,34.168-76.317,76.316s34.168,76.316,76.317,76.316c21.093,0,40.187-8.558,54.001-22.391
	c12.871,9.898,28.978,15.797,46.47,15.797c26.65,0,50.097-13.67,63.746-34.37c12.057,7.975,26.502,12.63,42.039,12.63
	c42.149,0,76.317-34.168,76.317-76.317C431.212,109.805,397.044,75.637,354.896,75.637z"/>
<path style="opacity:0.05;enable-background:new    ;" d="M277.762,454.915c-111.354,0-201.624-87.153-201.624-194.662
	c0-47.042,17.283-90.186,46.053-123.837c-41.595,35.659-67.815,87.669-67.815,145.599c0,107.509,90.27,194.662,201.624,194.662
	c62.63,0,118.59-27.57,155.57-70.825C375.972,436.37,329.113,454.915,277.762,454.915z"/>
<g>
	<path style="fill:#485458;" d="M161.571,298.803c-4.142,0-7.5-3.357-7.5-7.5v-15.675c0-4.143,3.358-7.5,7.5-7.5s7.5,3.357,7.5,7.5
		v15.675C169.071,295.445,165.713,298.803,161.571,298.803z"/>
	<path style="fill:#485458;" d="M350.429,298.803c-4.142,0-7.5-3.357-7.5-7.5v-15.675c0-4.143,3.358-7.5,7.5-7.5s7.5,3.357,7.5,7.5
		v15.675C357.929,295.445,354.571,298.803,350.429,298.803z"/>
	<path style="fill:#485458;" d="M256,310.84c-11.708,0-22.843-5.072-30.55-13.915c-2.721-3.123-2.396-7.86,0.727-10.582
		c3.123-2.721,7.86-2.396,10.582,0.727c4.857,5.574,11.871,8.771,19.242,8.771s14.384-3.196,19.242-8.771
		c2.721-3.123,7.458-3.447,10.582-0.727c3.123,2.722,3.448,7.459,0.727,10.582C278.843,305.768,267.708,310.84,256,310.84z"/>
	<path style="fill:#485458;" d="M343.796,37.546L138.195,80.085c-56.358,11.661-96.778,61.299-96.778,118.852v27.182l0,0v49.044
		c0,16.08,18.922,24.691,31.046,14.128l0,0c11.678-10.174,19.837-23.782,23.309-38.876l5.806-25.239
		c12.968,10.177,29.299,16.262,47.062,16.262c21.093,0,40.187-8.559,54.001-22.391c12.871,9.898,28.978,15.797,46.47,15.797
		c26.65,0,50.097-13.67,63.746-34.37c12.057,7.975,26.502,12.63,42.039,12.63c18.518,0,35.492-6.599,48.708-17.569l12.624,54.881
		c3.472,15.094,11.631,28.702,23.309,38.876l0,0c12.124,10.562,31.046,1.952,31.046-14.128V140.786
		C470.583,73.972,409.225,24.009,343.796,37.546z"/>
</g>
<path style="opacity:0.1;enable-background:new    ;" d="M151.864,77.257l-13.669,2.828
	c-56.358,11.661-96.778,61.299-96.778,118.852v27.182l0,0v49.044c0,16.08,18.922,24.691,31.046,14.128l0,0
	c0.521-0.454,1.026-0.923,1.533-1.39c-6.554-2.707-11.608-9.01-11.608-17.317V221.54l0,0v-27.182
	C62.389,139.324,99.351,91.531,151.864,77.257z M460.508,284.712L460.508,284.712c-11.678-10.174-19.837-23.782-23.309-38.876
	l-12.96-57.349c-1.006-4.453-6.584-5.854-9.657-2.478c-3.251,3.572-6.768,6.626-10.979,9.524l12.624,54.881
	c3.472,15.094,11.631,28.702,23.309,38.876l0,0c8.246,7.184,19.63,5.493,26.074-1.379
	C463.831,287.159,462.11,286.107,460.508,284.712z"/>
<g>
</g>
<g>
</g>
<g>
</g>
<g>
</g>
<g>
</g>
<g>
</g>
<g>
</g>
<g>
</g>
<g>
</g>
<g>
</g>
<g>
</g>
<g>
</g>
<g>
</g>
<g>
</g>
<g>
</g>
</svg>
