<?xml version="1.0" encoding="iso-8859-1"?>
<!-- Generator: Adobe Illustrator 19.0.0, SVG Export Plug-In . SVG Version: 6.00 Build 0)  -->
<svg version="1.1" id="Capa_1" xmlns="http://www.w3.org/2000/svg" xmlns:xlink="http://www.w3.org/1999/xlink" x="0px" y="0px"
	 viewBox="0 0 512.001 512.001" style="enable-background:new 0 0 512.001 512.001;" xml:space="preserve">
<path style="fill:#AA715F;" d="M387.376,486.115c-24.207,0-43.9-19.693-43.9-43.9s19.693-43.9,43.9-43.9
	c24.206,0,43.899,19.693,43.899,43.9C431.276,466.422,411.582,486.115,387.376,486.115z M387.376,413.315
	c-15.935,0-28.9,12.965-28.9,28.9c0,15.936,12.965,28.9,28.9,28.9c15.936,0,28.899-12.964,28.899-28.9
	C416.276,426.28,403.312,413.315,387.376,413.315z"/>
<path style="fill:#E86478;" d="M133.526,138.262v-50.94c0-22.285,27.781-32.474,42.189-15.473l0,0
	c2.81,3.316,8.195,2.057,9.243-2.162l12.116-48.758c5.601-22.54,34.86-28.47,48.795-9.89l0,0
	c27.738,36.984,42.732,81.966,42.732,128.196l0,0c0,43.019-35.033,77.855-78.126,77.536
	C167.723,216.454,133.526,181.016,133.526,138.262z"/>
<path style="fill:#F8CA4F;" d="M253.899,163.957c-1.514-17.301-12.646-42.55-29.269-57.88c-7.074-6.524-18.525-4.564-22.868,4.023
	c-9.447,18.681-35.296,32.297-32.76,61.285c2.051,23.443,22.718,40.786,46.162,38.734C238.608,208.067,255.95,187.4,253.899,163.957
	z"/>
<rect x="122.031" y="237.871" style="fill:#61C6AD;" width="196.06" height="220.1"/>
<g>
	<path style="fill:#485458;" d="M166.047,411.044c-4.143,0-7.5-3.357-7.5-7.5v-9.03c0-4.143,3.357-7.5,7.5-7.5s7.5,3.357,7.5,7.5
		v9.03C173.547,407.686,170.19,411.044,166.047,411.044z"/>
	<path style="fill:#485458;" d="M274.846,411.044c-4.143,0-7.5-3.357-7.5-7.5v-9.03c0-4.143,3.357-7.5,7.5-7.5s7.5,3.357,7.5,7.5
		v9.03C282.346,407.686,278.988,411.044,274.846,411.044z"/>
	<path style="fill:#485458;" d="M220.446,417.978c-7.663,0-14.951-3.319-19.996-9.106c-2.721-3.122-2.396-7.86,0.727-10.582
		c3.121-2.721,7.86-2.397,10.581,0.727c2.195,2.518,5.362,3.962,8.689,3.962s6.493-1.444,8.689-3.962
		c2.721-3.123,7.458-3.448,10.581-0.727c3.123,2.722,3.447,7.46,0.727,10.582C235.398,414.659,228.11,417.978,220.446,417.978z"/>
</g>
<path style="opacity:0.1;enable-background:new    ;" d="M122.036,237.868v155.044c16.452-1.348,29.386-15.117,29.386-31.917
	v-45.393c0-6.765,4.91-12.53,11.589-13.606l87.564-14.108c8.366-1.348,15.95,5.113,15.95,13.586
	c0,23.046,17.809,42.555,40.823,43.762c3.695,0.194,7.292-0.088,10.743-0.772V237.868H122.036z"/>
<path style="fill:#61C6AD;" d="M286.232,184.764l-150.628,24.312c-27.809,4.488-48.251,28.494-48.251,56.663v80.6
	c0,17.692,14.342,32.034,32.034,32.034l0,0c17.692,0,32.034-14.342,32.034-32.034v-45.393c0-6.765,4.91-12.531,11.589-13.609
	l87.533-14.128c8.381-1.353,15.982,5.119,15.982,13.609l0,0c0,23.061,17.825,42.596,40.856,43.776
	c24.847,1.273,45.392-18.497,45.392-43.066v-46.1C352.774,206.079,321.129,179.132,286.232,184.764z"/>
<path style="opacity:0.4;fill:#FFFFFF;enable-background:new    ;" d="M286.232,184.764l-150.628,24.312
	c-27.809,4.488-48.251,28.494-48.251,56.663v80.6c0,17.692,14.342,32.034,32.034,32.034l0,0c17.692,0,32.034-14.342,32.034-32.034
	v-45.393c0-6.765,4.91-12.53,11.589-13.606l87.564-14.108c8.366-1.348,15.95,5.112,15.95,13.586l0,0
	c0,23.046,17.809,42.555,40.823,43.762c24.862,1.304,45.426-18.473,45.426-43.052v-46.1
	C352.774,206.079,321.129,179.132,286.232,184.764z"/>
<path style="fill:#AA715F;" d="M309.751,512.001H130.377c-12.181,0-23.684-5.606-31.19-15.2l-16.029-20.488
	c-5.829-7.451-0.521-18.345,8.94-18.345h255.931c9.46,0,14.769,10.893,8.94,18.345l-16.029,20.488
	C333.435,506.395,321.932,512.001,309.751,512.001z"/>
<rect x="122.031" y="442.841" style="opacity:0.1;enable-background:new    ;" width="196.06" height="15.13"/>
<path style="opacity:0.1;enable-background:new    ;" d="M130.524,496.801l-16.029-20.488c-5.829-7.451-0.521-18.344,8.94-18.344
	H92.098c-9.46,0-14.769,10.894-8.94,18.344l16.029,20.488c7.506,9.594,19.009,15.2,31.19,15.2h31.337
	C149.533,512.001,138.03,506.395,130.524,496.801z"/>
<g>
</g>
<g>
</g>
<g>
</g>
<g>
</g>
<g>
</g>
<g>
</g>
<g>
</g>
<g>
</g>
<g>
</g>
<g>
</g>
<g>
</g>
<g>
</g>
<g>
</g>
<g>
</g>
<g>
</g>
</svg>
