<?xml version="1.0" encoding="iso-8859-1"?>
<!-- Generator: Adobe Illustrator 19.0.0, SVG Export Plug-In . SVG Version: 6.00 Build 0)  -->
<svg version="1.1" id="Capa_1" xmlns="http://www.w3.org/2000/svg" xmlns:xlink="http://www.w3.org/1999/xlink" x="0px" y="0px"
	 viewBox="0 0 511.999 511.999" style="enable-background:new 0 0 511.999 511.999;" xml:space="preserve">
<path style="fill:#AA715F;" d="M256,117.764c-10.11,0-18.305-8.196-18.305-18.305c0-24.94,5.176-70.566,39.835-95.926
	c8.156-5.969,19.611-4.196,25.582,3.964c5.969,8.159,4.195,19.612-3.964,25.582c-22.423,16.407-24.843,51.887-24.843,66.38
	C274.305,109.568,266.11,117.764,256,117.764z"/>
<path style="opacity:0.1;enable-background:new    ;" d="M256,117.764c-10.11,0-18.305-8.196-18.305-18.305
	c0-24.94,5.176-70.566,39.835-95.926c8.156-5.969,19.611-4.196,25.582,3.964c5.969,8.159,4.195,19.612-3.964,25.582
	c-22.423,16.407-24.843,51.887-24.843,66.38C274.305,109.568,266.11,117.764,256,117.764z"/>
<path style="opacity:0.1;enable-background:new    ;" d="M256,67.534c-5.301,0-10.469,0.251-15.519,0.741
	c-2.179,11.72-2.786,22.661-2.786,31.184c0,10.109,8.196,18.305,18.305,18.305c10.11,0,18.305-8.196,18.305-18.305
	c0-6.86,0.546-18.423,3.495-30.439C270.78,68.03,263.521,67.534,256,67.534z"/>
<path style="fill:#CFA08F;" d="M256,352.801c-37.943,0-52.493,27.144-52.493,61.625c0,44.018,23.502,97.573,52.493,97.573
	s52.493-53.555,52.493-97.573C308.493,379.945,293.943,352.801,256,352.801z"/>
<path style="opacity:0.1;enable-background:new    ;" d="M256,352.801c-37.943,0-52.493,27.144-52.493,61.625
	c0,19.719,4.719,41.349,12.533,59.224c15.97-1.957,30.184-18.746,39.96-40.977c9.777,22.231,23.99,39.02,39.96,40.977
	c7.814-17.875,12.533-39.505,12.533-59.224C308.493,379.945,293.943,352.801,256,352.801z"/>
<g>
	<path style="fill:#AA715F;" d="M299.078,283.664c-41.022,0-56.753,29.347-56.753,66.626c0,47.59,25.409,105.491,56.753,105.491
		s56.753-57.901,56.753-105.491C355.831,313.011,340.1,283.664,299.078,283.664z"/>
	<path style="fill:#AA715F;" d="M212.922,283.664c41.022,0,56.753,29.347,56.753,66.626c0,47.59-25.409,105.491-56.753,105.491
		s-56.753-57.901-56.753-105.491C156.169,313.011,171.9,283.664,212.922,283.664z"/>
</g>
<path style="opacity:0.1;enable-background:new    ;" d="M299.078,283.664c-20.014,0-33.993,6.999-43.078,18.482
	c-9.084-11.484-23.064-18.482-43.078-18.482c-41.022,0-56.753,29.347-56.753,66.626c0,10.768,1.305,22.063,3.681,33.096
	c6.381,5.029,13.267,7.916,20.45,7.916c12.747,0,24.562-9.089,34.268-23.128c10.752,20.625,25.35,35.084,41.432,35.084
	s30.68-14.459,41.432-35.084c9.707,14.039,21.521,23.128,34.268,23.128c7.183,0,14.069-2.887,20.45-7.916
	c2.376-11.034,3.681-22.329,3.681-33.096C355.831,313.011,340.1,283.664,299.078,283.664z"/>
<g>
	<path style="fill:#CFA08F;" d="M331.7,194.364c-43.25,0-59.836,30.941-59.836,70.245c0,50.175,26.789,111.221,59.836,111.221
		s59.836-61.046,59.836-111.221C391.536,225.305,374.951,194.364,331.7,194.364z"/>
	<path style="fill:#CFA08F;" d="M180.3,194.364c43.25,0,59.836,30.941,59.836,70.245c0,50.175-26.789,111.221-59.836,111.221
		s-59.836-61.046-59.836-111.221C120.464,225.305,137.049,194.364,180.3,194.364z"/>
	<path style="fill:#CFA08F;" d="M256,206.32c-43.25,0-59.836,30.941-59.836,70.245c0,50.175,26.789,111.221,59.836,111.221
		s59.836-61.046,59.836-111.221C315.836,237.261,299.25,206.32,256,206.32z"/>
</g>
<path style="opacity:0.1;enable-background:new    ;" d="M331.7,194.364c-20.801,0-35.419,7.171-45.006,18.973
	c-8.226-4.499-18.375-7.017-30.695-7.017s-22.469,2.518-30.695,7.017c-9.587-11.802-24.205-18.973-45.006-18.973
	c-43.25,0-59.836,30.941-59.836,70.245c0,2.671,0.08,5.373,0.229,8.094c13.79,11.988,37.802,11.185,63.295,2.459
	c-0.005,0.471-0.027,0.927-0.027,1.403c0,26.592,7.038,56.465,18.827,79.909c1.124,2.236,2.282,4.382,3.466,6.457
	c2.911-2.991,5.689-6.431,8.315-10.229c-11.342-21.758-18.404-50.379-18.404-76.137c0-2.092,0.063-4.152,0.159-6.193
	c4.598-1.99,9.198-4.201,13.751-6.619c12.075,22.354,28.205,37.858,45.926,37.858s33.851-15.505,45.926-37.858
	c4.553,2.418,9.153,4.629,13.751,6.619c0.096,2.041,0.159,4.101,0.159,6.193c0,25.758-7.062,54.379-18.404,76.137
	c2.626,3.798,5.404,7.238,8.315,10.229c1.183-2.074,2.341-4.221,3.466-6.457c11.789-23.444,18.827-53.316,18.827-79.909
	c0-0.475-0.022-0.932-0.027-1.403c25.492,8.726,49.504,9.528,63.295-2.459c0.149-2.721,0.229-5.424,0.229-8.094
	C391.536,225.305,374.951,194.364,331.7,194.364z"/>
<path style="fill:#AA715F;" d="M119.132,258.406c16.555,16.555,50.277,12.016,83.048-3.538c4.398-2.087,9.68-0.573,12.273,3.548
	c11.474,18.238,25.889,30.342,41.547,30.342s30.073-12.104,41.547-30.342c2.592-4.12,7.875-5.635,12.273-3.548
	c32.77,15.554,66.493,20.092,83.048,3.538c26.465-26.465-0.969-96.808-41.151-136.99C325.148,94.848,293.831,82.514,256,82.514
	s-69.148,12.333-95.716,38.901C120.101,161.598,92.667,231.941,119.132,258.406z"/>
<g>
	<path style="fill:#485458;" d="M190.965,183.554c-4.143,0-7.5-3.357-7.5-7.5v-10.796c0-4.143,3.357-7.5,7.5-7.5s7.5,3.357,7.5,7.5
		v10.796C198.465,180.196,195.107,183.554,190.965,183.554z"/>
	<path style="fill:#485458;" d="M321.035,183.554c-4.143,0-7.5-3.357-7.5-7.5v-10.796c0-4.143,3.357-7.5,7.5-7.5s7.5,3.357,7.5,7.5
		v10.796C328.535,180.196,325.178,183.554,321.035,183.554z"/>
	<path style="fill:#485458;" d="M256,191.843c-8.739,0-17.05-3.784-22.801-10.383c-2.721-3.122-2.396-7.86,0.727-10.582
		c3.122-2.721,7.859-2.395,10.582,0.727c2.901,3.329,7.09,5.238,11.492,5.238c4.402,0,8.591-1.909,11.492-5.238
		c2.722-3.123,7.459-3.447,10.582-0.727c3.123,2.722,3.447,7.46,0.727,10.582C273.05,188.059,264.739,191.843,256,191.843z"/>
</g>
<path style="opacity:0.1;enable-background:new    ;" d="M402.926,220.45c-1.064,9.206-4.273,17.089-10.059,22.874
	c-16.583,16.583-50.395,12-83.219-3.619c-4.298-2.045-9.472-0.565-12,3.468c-11.49,18.328-25.944,30.503-41.648,30.503
	s-30.158-12.175-41.648-30.503c-2.528-4.033-7.703-5.513-12-3.468c-32.824,15.619-66.635,20.202-83.219,3.619
	c-5.786-5.786-8.995-13.668-10.059-22.874c-1.545,15.663,1.31,29.208,10.059,37.956c16.554,16.554,50.275,12.016,83.045-3.536
	c4.399-2.088,9.684-0.573,12.278,3.549c11.474,18.236,25.888,30.339,41.545,30.339s30.072-12.103,41.545-30.339
	c2.593-4.122,7.878-5.637,12.278-3.549c32.77,15.553,66.491,20.09,83.045,3.536C401.616,249.658,404.471,236.113,402.926,220.45z"/>
<g>
</g>
<g>
</g>
<g>
</g>
<g>
</g>
<g>
</g>
<g>
</g>
<g>
</g>
<g>
</g>
<g>
</g>
<g>
</g>
<g>
</g>
<g>
</g>
<g>
</g>
<g>
</g>
<g>
</g>
</svg>
