<?xml version="1.0" encoding="iso-8859-1"?>
<!-- Generator: Adobe Illustrator 19.0.0, SVG Export Plug-In . SVG Version: 6.00 Build 0)  -->
<svg version="1.1" id="Capa_1" xmlns="http://www.w3.org/2000/svg" xmlns:xlink="http://www.w3.org/1999/xlink" x="0px" y="0px"
	 viewBox="0 0 512 512" style="enable-background:new 0 0 512 512;" xml:space="preserve">
<path style="fill:#92D2E7;" d="M344.047,512H167.953c-11.314,0-20.486-9.172-20.486-20.486V477.69
	c0-11.314,9.172-20.486,20.486-20.486h176.093c11.314,0,20.486,9.172,20.486,20.486v13.824C364.533,502.828,355.361,512,344.047,512
	z"/>
<path style="opacity:0.4;fill:#FFFFFF;enable-background:new    ;" d="M344.047,512H167.953c-11.314,0-20.486-9.172-20.486-20.486
	V477.69c0-11.314,9.172-20.486,20.486-20.486h176.093c11.314,0,20.486,9.172,20.486,20.486v13.824
	C364.533,502.828,355.361,512,344.047,512z"/>
<path style="opacity:0.15;enable-background:new    ;" d="M170.37,491.514V477.69c0-11.314,9.172-20.486,20.486-20.486h-22.903
	c-11.314,0-20.486,9.172-20.486,20.486v13.824c0,11.314,9.172,20.486,20.486,20.486h22.903
	C179.542,512,170.37,502.828,170.37,491.514z"/>
<g>
	<path style="fill:#92D2E7;" d="M182.076,263.56c21.146,9.046,35.118,29.519,35.118,52.519v141.126h77.613V316.079
		c0-23,13.972-43.473,35.118-52.519H182.076z"/>
	<path style="fill:#92D2E7;" d="M396.012,0H115.998c-16.399,0-30.96,10.307-36.616,25.699
		c-7.701,20.958-11.779,43.665-11.469,67.365c1.326,101.403,84.077,184.196,185.479,185.57
		c105.081,1.423,190.711-83.331,190.711-188.086c0-23.078-4.16-45.183-11.767-65.611C426.718,9.85,412.112,0,396.012,0z"/>
</g>
<path style="opacity:0.4;fill:#FFFFFF;enable-background:new    ;" d="M396.012,0H115.998c-16.399,0-30.96,10.307-36.616,25.699
	c-7.701,20.958-11.779,43.665-11.469,67.365c1.326,101.403,84.077,184.196,185.479,185.57
	c105.081,1.423,190.711-83.331,190.711-188.086c0-23.078-4.16-45.183-11.767-65.611C426.718,9.85,412.112,0,396.012,0z"/>
<path style="fill:#E86478;" d="M67.897,90.549c0,103.887,84.217,188.103,188.103,188.103s188.103-84.217,188.103-188.103
	C444.103,90.549,67.897,90.549,67.897,90.549z"/>
<g>
	<path style="fill:#FFFFFF;" d="M404.602,124.571c-0.435,0-0.875-0.038-1.318-0.116c-4.078-0.723-6.798-4.615-6.075-8.694
		c1.465-8.265,2.208-16.747,2.208-25.212c0-16.78-2.869-33.211-8.527-48.835c-1.41-3.895,0.604-8.195,4.498-9.606
		c3.894-1.411,8.194,0.603,9.605,4.498c6.253,17.267,9.424,35.415,9.424,53.942c0,9.34-0.82,18.703-2.439,27.831
		C411.333,122.015,408.17,124.571,404.602,124.571z"/>
	<path style="fill:#FFFFFF;" d="M378.535,186.154c-1.52,0-3.052-0.46-4.378-1.416c-3.361-2.421-4.123-7.107-1.701-10.469
		c5.942-8.25,11.013-17.147,15.068-26.445c1.655-3.796,6.076-5.535,9.873-3.875c3.796,1.655,5.531,6.076,3.875,9.873
		c-4.48,10.272-10.081,20.102-16.647,29.215C383.161,185.071,380.864,186.154,378.535,186.154z"/>
</g>
<g>
	<path style="fill:#485458;" d="M176.717,160.898c-4.142,0-7.5-3.358-7.5-7.5v-13.16c0-4.143,3.358-7.5,7.5-7.5s7.5,3.357,7.5,7.5
		v13.16C184.217,157.54,180.859,160.898,176.717,160.898z"/>
	<path style="fill:#485458;" d="M335.283,160.898c-4.143,0-7.5-3.358-7.5-7.5v-13.16c0-4.143,3.357-7.5,7.5-7.5s7.5,3.357,7.5,7.5
		v13.16C342.783,157.54,339.426,160.898,335.283,160.898z"/>
	<path style="fill:#485458;" d="M276.903,163.468c0,12.537-10.386,22.649-23.024,22.2c-12.038-0.428-21.404-10.687-21.404-22.732
		v-15.625c0-3.345,2.712-6.057,6.057-6.057h32.314c3.345,0,6.057,2.712,6.057,6.057V163.468z"/>
</g>
<path style="opacity:0.15;enable-background:new    ;" d="M271.119,260.907C169.717,259.534,86.967,176.74,85.64,75.337
	c-0.31-23.7,3.768-46.407,11.469-67.365c0.5-1.36,1.073-2.679,1.707-3.956c-8.821,4.363-15.883,12.019-19.434,21.683
	c-7.701,20.958-11.779,43.665-11.469,67.365c1.326,101.403,84.077,184.196,185.479,185.57
	c57.533,0.779,109.233-24.276,144.242-64.301C363.933,243.866,319.601,261.564,271.119,260.907z"/>
<g>
</g>
<g>
</g>
<g>
</g>
<g>
</g>
<g>
</g>
<g>
</g>
<g>
</g>
<g>
</g>
<g>
</g>
<g>
</g>
<g>
</g>
<g>
</g>
<g>
</g>
<g>
</g>
<g>
</g>
</svg>
