<?xml version="1.0" encoding="iso-8859-1"?>
<!-- Generator: Adobe Illustrator 19.0.0, SVG Export Plug-In . SVG Version: 6.00 Build 0)  -->
<svg version="1.1" id="Capa_1" xmlns="http://www.w3.org/2000/svg" xmlns:xlink="http://www.w3.org/1999/xlink" x="0px" y="0px"
	 viewBox="0 0 512 512" style="enable-background:new 0 0 512 512;" xml:space="preserve">
<path style="fill:#F8CA4F;" d="M453.049,347.498c0-51.694-30.909-67.12-69.037-67.12s-69.037,15.426-69.037,67.12
	s30.908,136.177,69.037,136.177S453.049,399.193,453.049,347.498z"/>
<path style="opacity:0.1;enable-background:new    ;" d="M394.394,295.781c-38.128,0-69.037,15.426-69.037,67.12
	c0,30.597,10.829,72.676,27.572,101.93c-22.515-27.891-37.956-80.797-37.956-117.332c0-51.694,30.908-67.12,69.037-67.12
	c27.861,0,51.863,8.24,62.772,32.845C434.123,300.443,415.35,295.781,394.394,295.781z"/>
<g style="opacity:0.1;">
	<path d="M360.068,373.186c-0.272,0-0.547-0.015-0.825-0.045c-4.135-0.451-7.122-4.167-6.672-8.304l9.208-84.521
		c0.451-4.135,4.167-7.12,8.304-6.672c4.135,0.451,7.122,4.167,6.672,8.304l-9.209,84.521
		C367.125,370.327,363.861,373.186,360.068,373.186z"/>
	<path d="M407.957,373.186c-3.794,0-7.058-2.859-7.478-6.716l-9.208-84.521c-0.45-4.135,2.537-7.852,6.672-8.304
		c4.137-0.453,7.852,2.536,8.303,6.672l9.208,84.521c0.45,4.135-2.537,7.852-6.672,8.304
		C408.504,373.171,408.229,373.186,407.957,373.186z"/>
</g>
<path style="fill:#61C6AD;" d="M435.886,289.758H332.138c-5.783,0-9.834-5.711-7.921-11.169l12.182-34.771
	c1.179-3.365,4.355-5.619,7.921-5.619h79.385c3.566,0,6.742,2.253,7.921,5.619l12.182,34.771
	C445.72,284.047,441.669,289.758,435.886,289.758z"/>
<path style="opacity:0.1;enable-background:new    ;" d="M353.445,243.819l-12.182,34.771c-1.912,5.458,2.139,11.169,7.921,11.169
	h-17.047c-5.783,0-9.833-5.711-7.921-11.169l12.182-34.771c1.179-3.365,4.355-5.619,7.921-5.619h17.047
	C357.801,238.2,354.624,240.454,353.445,243.819z"/>
<g>
	<path style="fill:#F8CA4F;" d="M263.562,435.336c-2.882,0-5.632-1.662-6.883-4.464c-1.695-3.799,0.01-8.253,3.809-9.947
		l35.481-15.833c3.798-1.696,8.252,0.009,9.947,3.808c1.695,3.799-0.01,8.253-3.809,9.947l-35.481,15.833
		C265.629,435.124,264.587,435.336,263.562,435.336z"/>
	<path style="fill:#F8CA4F;" d="M298.062,507.263c-1.919,0-3.838-0.728-5.307-2.187c-2.951-2.931-2.968-7.699-0.038-10.651
		l27.498-27.694c2.93-2.952,7.699-2.968,10.652-0.038c2.951,2.931,2.968,7.699,0.038,10.652l-27.498,27.694
		C301.933,506.521,299.998,507.263,298.062,507.263z"/>
	<path style="fill:#F8CA4F;" d="M504.462,435.336c-1.025,0-2.068-0.211-3.065-0.656l-35.481-15.833
		c-3.799-1.695-5.504-6.148-3.809-9.947c1.695-3.797,6.149-5.504,9.947-3.808l35.481,15.833c3.799,1.695,5.504,6.148,3.809,9.947
		C510.095,433.672,507.344,435.336,504.462,435.336z"/>
	<path style="fill:#F8CA4F;" d="M469.963,507.263c-1.936,0-3.872-0.742-5.344-2.225l-27.498-27.694
		c-2.931-2.95-2.914-7.72,0.037-10.652c2.952-2.929,7.72-2.913,10.652,0.038l27.498,27.694c2.931,2.95,2.914,7.72-0.037,10.651
		C473.8,506.535,471.881,507.263,469.963,507.263z"/>
</g>
<path style="fill:#E86478;" d="M197.025,164.503c0,51.694-30.909,67.12-69.037,67.12s-69.037-15.426-69.037-67.12
	S89.86,28.326,127.989,28.326S197.025,112.808,197.025,164.503z"/>
<path style="opacity:0.1;enable-background:new    ;" d="M138.371,216.22c-38.128,0-69.037-15.426-69.037-67.12
	c0-30.596,10.829-72.676,27.572-101.93c-22.515,27.891-37.956,80.797-37.956,117.332c0,51.694,30.908,67.12,69.037,67.12
	c27.861,0,51.863-8.24,62.772-32.845C178.099,211.558,159.326,216.22,138.371,216.22z"/>
<g style="opacity:0.1;">
	<path d="M113.233,238.401c-3.794,0-7.058-2.859-7.478-6.716l-9.208-84.521c-0.45-4.135,2.537-7.852,6.672-8.303
		c4.139-0.45,7.853,2.536,8.304,6.671l9.208,84.521c0.45,4.135-2.537,7.852-6.672,8.304
		C113.78,238.387,113.505,238.401,113.233,238.401z"/>
	<path d="M142.744,238.401c-0.272,0-0.547-0.015-0.825-0.045c-4.135-0.451-7.122-4.167-6.672-8.304l9.208-84.521
		c0.451-4.135,4.164-7.123,8.304-6.671c4.135,0.451,7.122,4.167,6.672,8.303l-9.208,84.521
		C149.801,235.542,146.537,238.401,142.744,238.401z"/>
</g>
<path style="fill:#61C6AD;" d="M179.863,222.243H76.114c-5.783,0-9.834,5.711-7.921,11.169l12.182,34.771
	c1.179,3.365,4.356,5.619,7.921,5.619h79.385c3.566,0,6.742-2.253,7.921-5.619l12.182-34.771
	C189.696,227.954,185.646,222.243,179.863,222.243z"/>
<path style="opacity:0.1;enable-background:new    ;" d="M97.422,268.182L85.24,233.411c-1.912-5.458,2.139-11.169,7.921-11.169
	H76.114c-5.783,0-9.834,5.711-7.921,11.169l12.182,34.771c1.179,3.365,4.356,5.619,7.921,5.619h17.047
	C101.777,273.801,98.601,271.547,97.422,268.182z"/>
<g>
	<path style="fill:#E86478;" d="M43.01,107.565c-1.025,0-2.068-0.211-3.065-0.656L4.465,91.076
		c-3.799-1.695-5.504-6.148-3.809-9.947c1.695-3.797,6.149-5.504,9.947-3.808l35.481,15.832c3.799,1.695,5.504,6.148,3.809,9.947
		C48.642,105.902,45.891,107.565,43.01,107.565z"/>
	<path style="fill:#E86478;" d="M69.537,47.495c-1.936,0-3.872-0.742-5.344-2.225L36.694,17.576
		c-2.931-2.95-2.914-7.719,0.037-10.651c2.952-2.93,7.72-2.913,10.652,0.038L74.88,34.657c2.931,2.95,2.914,7.72-0.037,10.652
		C73.374,46.766,71.455,47.495,69.537,47.495z"/>
	<path style="fill:#E86478;" d="M212.968,107.565c-2.882,0-5.632-1.662-6.883-4.464c-1.695-3.799,0.01-8.253,3.809-9.947
		l35.481-15.833c3.798-1.696,8.252,0.01,9.947,3.808c1.695,3.799-0.01,8.253-3.809,9.947l-35.481,15.833
		C215.035,107.355,213.993,107.565,212.968,107.565z"/>
	<path style="fill:#E86478;" d="M186.441,47.495c-1.919,0-3.838-0.729-5.307-2.187c-2.951-2.931-2.968-7.699-0.038-10.652
		l27.498-27.694c2.931-2.952,7.7-2.969,10.652-0.038s2.968,7.699,0.038,10.651L191.785,45.27
		C190.313,46.752,188.377,47.495,186.441,47.495z"/>
</g>
<path style="fill:#61C6AD;" d="M191.722,302.555H20.832c-7.94,0-14.377-6.436-14.377-14.377c0-7.941,6.437-14.377,14.377-14.377
	h170.89c16.861,0,32.712-6.565,44.634-18.486l18.956-18.958c17.353-17.353,40.424-26.909,64.966-26.909h170.89
	c7.94,0,14.377,6.437,14.377,14.377s-6.437,14.377-14.377,14.377h-170.89c-16.861,0-32.712,6.565-44.634,18.486l-18.956,18.958
	C239.335,292.998,216.263,302.555,191.722,302.555z"/>
<path style="opacity:0.15;enable-background:new    ;" d="M435.886,289.758H332.138c-5.783,0-9.834-5.711-7.921-11.169
	l12.182-34.771c1.179-3.365,4.355-5.619,7.921-5.619h79.385c3.566,0,6.742,2.253,7.921,5.619l12.182,34.771
	C445.72,284.047,441.669,289.758,435.886,289.758z"/>
<path style="opacity:0.15;enable-background:new    ;" d="M179.863,222.243H76.114c-5.783,0-9.834,5.711-7.921,11.169l12.182,34.771
	c1.179,3.365,4.356,5.619,7.921,5.619h79.385c3.566,0,6.742-2.253,7.921-5.619l12.182-34.771
	C189.696,227.954,185.646,222.243,179.863,222.243z"/>
<g>
</g>
<g>
</g>
<g>
</g>
<g>
</g>
<g>
</g>
<g>
</g>
<g>
</g>
<g>
</g>
<g>
</g>
<g>
</g>
<g>
</g>
<g>
</g>
<g>
</g>
<g>
</g>
<g>
</g>
</svg>
