<?xml version="1.0" encoding="iso-8859-1"?>
<!-- Generator: Adobe Illustrator 19.0.0, SVG Export Plug-In . SVG Version: 6.00 Build 0)  -->
<svg version="1.1" id="Capa_1" xmlns="http://www.w3.org/2000/svg" xmlns:xlink="http://www.w3.org/1999/xlink" x="0px" y="0px"
	 viewBox="0 0 512 512" style="enable-background:new 0 0 512 512;" xml:space="preserve">
<g>
	<path style="fill:#AA715F;" d="M36.652,57.892l139.355,73.538c-0.002,10.713,5.548,21.134,15.493,26.876
		c14.824,8.559,33.779,3.479,42.338-11.344c8.558-14.824,3.479-33.779-11.344-42.338c-9.945-5.742-21.745-5.338-31.022,0.021
		L58.108,20.729c-10.308-6.486-23.941-3.11-30.03,7.437l0,0C21.988,38.714,25.881,52.208,36.652,57.892z"/>
	<path style="fill:#AA715F;" d="M475.348,57.892L335.993,131.43c0.002,10.713-5.548,21.134-15.493,26.876
		c-14.824,8.559-33.779,3.479-42.338-11.344c-8.559-14.824-3.479-33.779,11.344-42.338c9.945-5.742,21.745-5.338,31.022,0.021
		l133.363-83.916c10.308-6.486,23.941-3.11,30.03,7.437l0,0C490.012,38.714,486.119,52.208,475.348,57.892z"/>
</g>
<rect x="33.32" y="230.34" style="fill:#61C6AD;" width="445.36" height="196.35"/>
<g>
	<path style="fill:#FFFFFF;" d="M80.341,388.787c-1.919,0-3.839-0.732-5.303-2.196c-2.929-2.93-2.929-7.678,0-10.607l30.708-30.709
		c2.929-2.928,7.678-2.928,10.606,0c2.929,2.93,2.929,7.678,0,10.607l-30.708,30.709C84.18,388.055,82.261,388.787,80.341,388.787z"
		/>
	<path style="fill:#FFFFFF;" d="M111.05,388.787c-1.919,0-3.839-0.732-5.303-2.196l-30.708-30.709c-2.929-2.93-2.929-7.678,0-10.607
		c2.929-2.928,7.678-2.928,10.606,0l30.708,30.709c2.929,2.93,2.929,7.678,0,10.607C114.889,388.055,112.969,388.787,111.05,388.787
		z"/>
	<path style="fill:#FFFFFF;" d="M431.659,388.787c-1.919,0-3.839-0.732-5.303-2.196l-30.708-30.709
		c-2.929-2.93-2.929-7.678,0-10.607c2.929-2.928,7.678-2.928,10.606,0l30.709,30.709c2.929,2.93,2.929,7.678,0,10.607
		C435.498,388.055,433.578,388.787,431.659,388.787z"/>
	<path style="fill:#FFFFFF;" d="M400.95,388.787c-1.919,0-3.839-0.732-5.303-2.196c-2.929-2.93-2.929-7.678,0-10.607l30.708-30.709
		c2.929-2.928,7.678-2.928,10.606,0c2.929,2.93,2.929,7.678,0,10.607l-30.709,30.709C404.789,388.055,402.87,388.787,400.95,388.787
		z"/>
</g>
<polygon style="fill:#EEEDED;" points="33.32,230.344 256,426.692 478.68,230.344 "/>
<path style="fill:#E86478;" d="M494.947,230.344H17.053C7.635,230.344,0,222.709,0,213.291v-33.775
	c0-9.418,7.635-17.053,17.053-17.053h477.894c9.418,0,17.053,7.635,17.053,17.053v33.775
	C512,222.709,504.365,230.344,494.947,230.344z"/>
<g style="opacity:0.1;">
	<rect x="202.24" y="162.46" width="107.52" height="67.88"/>
	<path d="M17.053,162.464C7.635,162.464,0,170.098,0,179.517v33.775c0,9.418,7.635,17.053,17.053,17.053h57.169v-67.88
		L17.053,162.464L17.053,162.464z"/>
	<path d="M494.947,162.464c9.418,0,17.053,7.635,17.053,17.053v33.775c0,9.418-7.635,17.053-17.053,17.053h-57.169v-67.88
		L494.947,162.464L494.947,162.464z"/>
</g>
<path style="opacity:0.1;enable-background:new    ;" d="M39.111,213.291v-33.774c0-9.418,7.635-17.053,17.053-17.053H17.053
	C7.635,162.464,0,170.098,0,179.517v33.774c0,9.418,7.635,17.053,17.053,17.053h39.111
	C46.746,230.344,39.111,222.709,39.111,213.291z"/>
<polygon style="opacity:0.1;enable-background:new    ;" points="33.32,230.344 33.32,426.692 82.548,426.692 82.548,270.668 
	478.68,270.668 478.68,230.344 "/>
<g>
	<path style="fill:#485458;" d="M178.76,309.194c-4.142,0-7.5-3.357-7.5-7.5v-12.821c0-4.142,3.358-7.5,7.5-7.5s7.5,3.358,7.5,7.5
		v12.821C186.26,305.837,182.902,309.194,178.76,309.194z"/>
	<path style="fill:#485458;" d="M333.24,309.194c-4.142,0-7.5-3.357-7.5-7.5v-12.821c0-4.142,3.358-7.5,7.5-7.5s7.5,3.358,7.5,7.5
		v12.821C340.74,305.837,337.382,309.194,333.24,309.194z"/>
	<path style="fill:#485458;" d="M256,319.04c-9.972,0-19.455-4.319-26.019-11.85c-2.721-3.123-2.396-7.86,0.727-10.582
		c3.123-2.721,7.859-2.396,10.582,0.727c3.713,4.261,9.075,6.705,14.71,6.705c5.635,0,10.997-2.444,14.71-6.705
		c2.721-3.123,7.458-3.447,10.582-0.727c3.123,2.722,3.448,7.459,0.727,10.582C275.455,314.721,265.972,319.04,256,319.04z"/>
</g>
<path style="fill:#E86478;" d="M494.947,494.573H17.053C7.635,494.573,0,486.938,0,477.52v-33.775
	c0-9.418,7.635-17.053,17.053-17.053h477.894c9.418,0,17.053,7.635,17.053,17.053v33.775
	C512,486.938,504.365,494.573,494.947,494.573z"/>
<g style="opacity:0.1;">
	<rect x="202.24" y="426.69" width="107.52" height="67.88"/>
	<path d="M17.053,426.692C7.635,426.692,0,434.327,0,443.745v33.775c0,9.418,7.635,17.053,17.053,17.053h57.169v-67.88H17.053
		V426.692z"/>
	<path d="M494.947,426.692c9.418,0,17.053,7.635,17.053,17.053v33.775c0,9.418-7.635,17.053-17.053,17.053h-57.169v-67.88h57.169
		V426.692z"/>
</g>
<path style="opacity:0.1;enable-background:new    ;" d="M39.111,477.52v-33.775c0-9.418,7.635-17.053,17.053-17.053H17.053
	C7.635,426.692,0,434.327,0,443.745v33.775c0,9.418,7.635,17.053,17.053,17.053h39.111C46.746,494.573,39.111,486.938,39.111,477.52
	z"/>
<g>
</g>
<g>
</g>
<g>
</g>
<g>
</g>
<g>
</g>
<g>
</g>
<g>
</g>
<g>
</g>
<g>
</g>
<g>
</g>
<g>
</g>
<g>
</g>
<g>
</g>
<g>
</g>
<g>
</g>
</svg>
