<?xml version="1.0" encoding="iso-8859-1"?>
<!-- Generator: Adobe Illustrator 19.0.0, SVG Export Plug-In . SVG Version: 6.00 Build 0)  -->
<svg version="1.1" id="Capa_1" xmlns="http://www.w3.org/2000/svg" xmlns:xlink="http://www.w3.org/1999/xlink" x="0px" y="0px"
	 viewBox="0 0 512 512" style="enable-background:new 0 0 512 512;" xml:space="preserve">
<path style="fill:#EEEDED;" d="M437.076,216.385l-67.064-11.033c-6.321-1.04-10.603-7.008-9.563-13.329l10.185-61.906
	c1.04-6.321,7.008-10.603,13.329-9.563l67.064,11.034c6.321,1.04,10.603,7.008,9.563,13.329l-10.185,61.906
	C449.365,213.144,443.397,217.425,437.076,216.385z"/>
<path style="opacity:0.1;enable-background:new    ;" d="M383.963,120.554c-6.321-1.04-12.289,3.241-13.329,9.563l-10.185,61.906
	c-0.124,0.752-0.167,1.497-0.146,2.231h41.138c6.406,0,11.6-5.193,11.6-11.6v-57.316L383.963,120.554z"/>
<path style="fill:#EEEDED;" d="M244.036,194.254h-67.965c-6.406,0-11.6-5.193-11.6-11.6v-62.738c0-6.406,5.193-11.6,11.6-11.6
	h67.965c6.406,0,11.6,5.193,11.6,11.6v62.738C255.635,189.061,250.442,194.254,244.036,194.254z"/>
<path style="opacity:0.05;enable-background:new    ;" d="M244.036,194.254h-67.965c-6.406,0-11.6-5.193-11.6-11.6v-62.738
	c0-6.406,5.193-11.6,11.6-11.6h67.965c6.406,0,11.6,5.193,11.6,11.6v62.738C255.635,189.061,250.442,194.254,244.036,194.254z"/>
<path style="fill:#EEEDED;" d="M389.936,182.046h-67.965c-6.406,0-11.6-5.193-11.6-11.6v-62.738c0-6.406,5.193-11.6,11.6-11.6
	h67.965c6.406,0,11.6,5.193,11.6,11.6v62.738C401.536,176.853,396.342,182.046,389.936,182.046z"/>
<path style="opacity:0.05;enable-background:new    ;" d="M389.936,182.046h-67.965c-6.406,0-11.6-5.193-11.6-11.6v-62.738
	c0-6.406,5.193-11.6,11.6-11.6h67.965c6.406,0,11.6,5.193,11.6,11.6v62.738C401.536,176.853,396.342,182.046,389.936,182.046z"/>
<path style="opacity:0.05;enable-background:new    ;" d="M234.166,130.313c-7.849,1.47-13.02,9.025-11.549,16.874l8.816,47.067
	h12.603c6.406,0,11.6-5.193,11.6-11.6v-56.363L234.166,130.313z"/>
<path style="opacity:0.05;enable-background:new    ;" d="M334.31,126.265c-1.47-7.849-9.025-13.02-16.874-11.55l-7.065,1.323
	v54.408c0,6.406,5.193,11.6,11.6,11.6h22.788L334.31,126.265z"/>
<path style="fill:#EEEDED;" d="M326.975,200.287L260.171,212.8c-6.297,1.179-12.358-2.969-13.537-9.266l-11.551-61.666
	c-1.179-6.297,2.969-12.358,9.266-13.537l66.804-12.513c6.297-1.18,12.358,2.969,13.537,9.266l11.551,61.666
	C337.42,193.047,333.272,199.108,326.975,200.287z"/>
<path style="fill:#CFA08F;" d="M96.828,234.938h110.099c13.24,0,23.973,10.733,23.973,23.973s-10.733,23.973-23.973,23.973H96.828
	c-8.795,0-15.949,7.154-15.949,15.949v64.434c0,8.795,7.155,15.949,15.949,15.949h129.278c13.24,0,23.973,10.733,23.973,23.973
	s-10.733,23.973-23.973,23.973H96.828c-35.232,0-63.896-28.664-63.896-63.896v-64.434C32.932,263.601,61.596,234.938,96.828,234.938
	z"/>
<path style="opacity:0.1;enable-background:new    ;" d="M226.106,379.216H133.28l4.85,47.947h87.976
	c13.24,0,23.973-10.733,23.973-23.973C250.079,389.949,239.346,379.216,226.106,379.216z M230.9,258.911
	c0-13.24-10.733-23.973-23.973-23.973h-88.244l4.851,47.947h83.393C220.167,282.884,230.9,272.151,230.9,258.911z"/>
<path style="fill:#AA715F;" d="M416.288,512H206.777c-16.378,0-30.096-12.4-31.744-28.695L144.088,177.41
	c-1.057-10.451,7.147-19.527,17.651-19.527h299.587c10.504,0,18.709,9.076,17.651,19.527l-30.945,305.895
	C446.384,499.6,432.666,512,416.288,512z"/>
<path style="opacity:0.1;enable-background:new    ;" d="M171.798,451.321l3.236,31.985C176.682,499.6,190.4,512,206.777,512
	h209.511c16.378,0,30.096-12.4,31.744-28.695l3.236-31.985h-279.47V451.321z"/>
<path style="fill:#F8CA4F;" d="M461.327,157.883H161.739c-10.504,0-18.709,9.076-17.651,19.527l4.004,39.581
	c11.677-3.039,24.185-1.829,35.185,3.672c14.171,7.085,30.851,7.085,45.021,0c14.171-7.085,30.85-7.085,45.021,0
	s30.851,7.085,45.021,0c14.171-7.085,30.851-7.085,45.021,0l0,0c14.171,7.085,30.85,7.085,45.021,0l0,0
	c14.171-7.085,30.85-7.085,45.021,0c6.52,3.26,13.572,5.001,20.665,5.261l4.908-48.513
	C480.035,166.96,471.831,157.883,461.327,157.883z"/>
<g>
	<path style="fill:#FFFFFF;" d="M300.104,335.013c-1.919,0-3.839-0.732-5.304-2.197l-33.482-33.482
		c-2.929-2.929-2.929-7.678,0-10.607c2.93-2.929,7.678-2.929,10.607,0l33.482,33.483c2.929,2.929,2.929,7.678,0,10.606
		C303.942,334.281,302.023,335.013,300.104,335.013z"/>
	<path style="fill:#FFFFFF;" d="M266.621,391.355c-1.919,0-3.839-0.732-5.304-2.197c-2.929-2.929-2.929-7.678,0-10.606
		l33.482-33.482c2.93-2.929,7.678-2.929,10.607,0s2.929,7.678,0,10.607l-33.482,33.482
		C270.46,390.622,268.54,391.355,266.621,391.355z"/>
	<path style="fill:#FFFFFF;" d="M356.444,391.355c-1.919,0-3.839-0.732-5.304-2.197l-33.482-33.482
		c-2.929-2.929-2.929-7.678,0-10.607c2.93-2.929,7.678-2.929,10.607,0l33.483,33.482c2.929,2.929,2.929,7.678,0,10.606
		C360.283,390.622,358.363,391.355,356.444,391.355z"/>
	<path style="fill:#FFFFFF;" d="M322.962,335.013c-1.919,0-3.839-0.732-5.304-2.197c-2.929-2.929-2.929-7.678,0-10.606
		l33.482-33.483c2.93-2.929,7.678-2.929,10.608,0c2.929,2.929,2.929,7.678,0,10.607l-33.483,33.482
		C326.801,334.281,324.881,335.013,322.962,335.013z"/>
</g>
<g style="opacity:0.1;">
	<path d="M300.104,335.013c-1.919,0-3.839-0.732-5.304-2.197l-33.482-33.482c-2.929-2.929-2.929-7.678,0-10.607
		c2.93-2.929,7.678-2.929,10.607,0l33.482,33.483c2.929,2.929,2.929,7.678,0,10.606
		C303.942,334.281,302.023,335.013,300.104,335.013z"/>
	<path d="M266.621,391.355c-1.919,0-3.839-0.732-5.304-2.197c-2.929-2.929-2.929-7.678,0-10.606l33.482-33.482
		c2.93-2.929,7.678-2.929,10.607,0s2.929,7.678,0,10.607l-33.482,33.482C270.46,390.622,268.54,391.355,266.621,391.355z"/>
	<path d="M356.444,391.355c-1.919,0-3.839-0.732-5.304-2.197l-33.482-33.482c-2.929-2.929-2.929-7.678,0-10.607
		c2.93-2.929,7.678-2.929,10.607,0l33.483,33.482c2.929,2.929,2.929,7.678,0,10.606
		C360.283,390.622,358.363,391.355,356.444,391.355z"/>
	<path d="M322.962,335.013c-1.919,0-3.839-0.732-5.304-2.197c-2.929-2.929-2.929-7.678,0-10.606l33.482-33.483
		c2.93-2.929,7.678-2.929,10.608,0c2.929,2.929,2.929,7.678,0,10.607l-33.483,33.482
		C326.801,334.281,324.881,335.013,322.962,335.013z"/>
</g>
<g>
	<path style="fill:#FFFFFF;" d="M311.533,362.606c-13.049,0-23.664-10.615-23.664-23.664c0-13.048,10.615-23.664,23.664-23.664
		c13.048,0,23.663,10.615,23.663,23.664S324.581,362.606,311.533,362.606z M311.533,330.279c-4.777,0-8.664,3.886-8.664,8.664
		c0,4.777,3.887,8.664,8.664,8.664c4.776,0,8.663-3.886,8.663-8.664C320.196,334.165,316.31,330.279,311.533,330.279z"/>
	<path style="fill:#FFFFFF;" d="M311.533,330.279c-4.143,0-7.5-3.358-7.5-7.5v-47.048c0-4.142,3.357-7.5,7.5-7.5s7.5,3.358,7.5,7.5
		v47.048C319.033,326.921,315.676,330.279,311.533,330.279z"/>
	<path style="fill:#FFFFFF;" d="M311.533,309.751c-1.919,0-3.839-0.732-5.303-2.197l-15.94-15.939
		c-2.93-2.929-2.93-7.677-0.001-10.606c2.93-2.929,7.679-2.93,10.606,0l10.638,10.636l10.636-10.636
		c2.93-2.929,7.678-2.929,10.607,0s2.929,7.678,0,10.606l-15.94,15.939C315.372,309.019,313.452,309.751,311.533,309.751z"/>
	<path style="fill:#FFFFFF;" d="M311.533,283.231c-1.919,0-3.839-0.732-5.303-2.197l-15.94-15.94
		c-2.93-2.929-2.93-7.677-0.001-10.606c2.93-2.929,7.679-2.93,10.606,0l10.638,10.636l10.636-10.636
		c2.93-2.929,7.678-2.929,10.607,0c2.929,2.929,2.929,7.678,0,10.606l-15.94,15.94C315.372,282.498,313.452,283.231,311.533,283.231
		z"/>
	<path style="fill:#FFFFFF;" d="M295.369,346.443h-47.048c-4.143,0-7.5-3.358-7.5-7.5s3.357-7.5,7.5-7.5h47.048
		c4.142,0,7.5,3.358,7.5,7.5S299.512,346.443,295.369,346.443z"/>
	<path style="fill:#FFFFFF;" d="M258.901,362.382c-1.92,0-3.839-0.732-5.304-2.197c-2.929-2.929-2.929-7.678,0-10.606l10.638-10.637
		l-10.637-10.636c-2.93-2.929-2.93-7.677-0.001-10.607c2.93-2.929,7.679-2.93,10.606,0l15.94,15.94
		c1.407,1.406,2.197,3.314,2.197,5.303s-0.79,3.897-2.196,5.303l-15.94,15.94C262.74,361.65,260.82,362.382,258.901,362.382z"/>
	<path style="fill:#FFFFFF;" d="M232.381,362.382c-1.92,0-3.839-0.732-5.304-2.197c-2.929-2.929-2.929-7.678,0-10.606l10.638-10.637
		l-10.637-10.636c-2.93-2.929-2.93-7.677-0.001-10.607c2.93-2.929,7.679-2.93,10.606,0l15.94,15.94
		c1.407,1.406,2.197,3.314,2.197,5.303s-0.79,3.897-2.196,5.303l-15.94,15.94C236.22,361.65,234.3,362.382,232.381,362.382z"/>
	<path style="fill:#FFFFFF;" d="M311.533,409.654c-4.143,0-7.5-3.358-7.5-7.5v-47.048c0-4.142,3.357-7.5,7.5-7.5s7.5,3.358,7.5,7.5
		v47.048C319.033,406.297,315.676,409.654,311.533,409.654z"/>
	<path style="fill:#FFFFFF;" d="M327.473,399.074c-1.92,0-3.839-0.732-5.304-2.197l-10.636-10.637l-10.637,10.637
		c-2.931,2.93-7.679,2.929-10.607,0c-2.929-2.929-2.929-7.678,0-10.607l15.94-15.94c1.407-1.407,3.315-2.197,5.304-2.197l0,0
		c1.989,0,3.896,0.79,5.304,2.197l15.94,15.94c2.929,2.929,2.929,7.678,0,10.607C331.312,398.341,329.392,399.074,327.473,399.074z"
		/>
	<path style="fill:#FFFFFF;" d="M327.473,425.594c-1.92,0-3.839-0.732-5.304-2.197l-10.636-10.637l-10.637,10.637
		c-2.931,2.93-7.679,2.929-10.607,0c-2.929-2.929-2.929-7.678,0-10.607l15.94-15.94c1.407-1.407,3.315-2.197,5.304-2.197l0,0
		c1.989,0,3.896,0.79,5.304,2.197l15.94,15.94c2.929,2.929,2.929,7.678,0,10.607C331.312,424.862,329.392,425.594,327.473,425.594z"
		/>
	<path style="fill:#FFFFFF;" d="M374.745,346.443h-47.049c-4.143,0-7.5-3.358-7.5-7.5s3.357-7.5,7.5-7.5h47.049
		c4.143,0,7.5,3.358,7.5,7.5S378.888,346.443,374.745,346.443z"/>
	<path style="fill:#FFFFFF;" d="M364.164,362.382c-1.92,0-3.839-0.732-5.304-2.197l-15.939-15.94c-2.929-2.929-2.929-7.678,0-10.606
		l15.939-15.94c2.93-2.929,7.678-2.929,10.607,0s2.929,7.678,0,10.607l-10.637,10.636l10.637,10.637
		c2.929,2.929,2.929,7.678,0,10.606C368.003,361.65,366.083,362.382,364.164,362.382z"/>
	<path style="fill:#FFFFFF;" d="M390.685,362.382c-1.92,0-3.839-0.732-5.304-2.197l-15.939-15.94c-2.929-2.929-2.929-7.678,0-10.606
		l15.939-15.94c2.93-2.929,7.678-2.929,10.607,0s2.929,7.678,0,10.607l-10.637,10.636l10.637,10.637
		c2.929,2.929,2.929,7.678,0,10.606C394.524,361.65,392.604,362.382,390.685,362.382z"/>
</g>
<path style="opacity:0.1;enable-background:new    ;" d="M211.725,483.305L180.78,177.41c-1.057-10.451,7.147-19.527,17.651-19.527
	h-36.692c-10.504,0-18.708,9.076-17.651,19.527l30.945,305.895C176.682,499.6,190.4,512,206.777,512h36.691
	C227.091,512,213.373,499.6,211.725,483.305z"/>
<g>
	<path style="fill:#EEEDED;" d="M418.65,88.844c-1.919,0-3.839-0.732-5.303-2.197c-5.622-5.621-8.718-13.094-8.718-21.043
		s3.096-15.422,8.717-21.044c5.755-5.755,5.755-15.119,0-20.874c-2.929-2.929-2.929-7.678,0.001-10.607
		c2.929-2.928,7.678-2.928,10.606,0c11.603,11.604,11.603,30.484,0,42.087c-2.788,2.788-4.324,6.495-4.324,10.437
		c0,3.943,1.536,7.649,4.323,10.437c2.93,2.929,2.93,7.677,0.001,10.606C422.489,88.112,420.569,88.844,418.65,88.844z"/>
	<path style="fill:#EEEDED;" d="M239.001,91.851c-1.919,0-3.839-0.732-5.303-2.197c-5.621-5.621-8.718-13.094-8.718-21.043
		s3.096-15.422,8.717-21.043c2.788-2.788,4.324-6.494,4.324-10.437c0-3.942-1.536-7.649-4.324-10.437
		c-2.929-2.929-2.929-7.678,0-10.607c2.93-2.929,7.678-2.929,10.607,0c5.621,5.621,8.717,13.094,8.717,21.044
		s-3.097,15.423-8.718,21.043c-2.787,2.788-4.323,6.495-4.323,10.437c0,3.943,1.536,7.649,4.323,10.437
		c2.93,2.929,2.93,7.677,0.001,10.606C242.84,91.118,240.92,91.851,239.001,91.851z"/>
	<path style="fill:#EEEDED;" d="M330.2,75.322c-1.919,0-3.839-0.732-5.304-2.197c-5.444-5.445-8.443-12.684-8.443-20.384
		s2.999-14.939,8.444-20.384c5.39-5.391,5.39-14.163-0.001-19.554c-2.929-2.929-2.929-7.678,0.001-10.606
		c2.929-2.93,7.678-2.929,10.606,0c11.238,11.24,11.238,29.527,0,40.767c-2.612,2.612-4.051,6.084-4.051,9.777
		s1.439,7.166,4.051,9.777c2.929,2.929,2.929,7.678,0,10.606C334.039,74.59,332.119,75.322,330.2,75.322z"/>
</g>
<g>
</g>
<g>
</g>
<g>
</g>
<g>
</g>
<g>
</g>
<g>
</g>
<g>
</g>
<g>
</g>
<g>
</g>
<g>
</g>
<g>
</g>
<g>
</g>
<g>
</g>
<g>
</g>
<g>
</g>
</svg>
