<?xml version="1.0" encoding="iso-8859-1"?>
<!-- Generator: Adobe Illustrator 19.0.0, SVG Export Plug-In . SVG Version: 6.00 Build 0)  -->
<svg version="1.1" id="Capa_1" xmlns="http://www.w3.org/2000/svg" xmlns:xlink="http://www.w3.org/1999/xlink" x="0px" y="0px"
	 viewBox="0 0 512 512" style="enable-background:new 0 0 512 512;" xml:space="preserve">
<path style="fill:#EEEDED;" d="M463.224,329.531H48.776c-22.753,0-41.197-18.445-41.197-41.197V41.197
	C7.578,18.445,26.023,0,48.776,0h414.449c22.753,0,41.197,18.445,41.197,41.197v247.137
	C504.422,311.087,485.977,329.531,463.224,329.531z"/>
<path style="opacity:0.1;enable-background:new    ;" d="M256,143.973L7.578,279.799v8.535c0,22.753,18.445,41.197,41.197,41.197
	h414.449c22.753,0,41.197-18.445,41.197-41.197v-8.535L256,143.973z"/>
<path style="opacity:0.1;enable-background:new    ;" d="M463.224,18.295H48.776c-22.753,0-41.197,18.445-41.197,41.197v26.233
	L226.316,205.32c18.497,10.113,40.871,10.113,59.368,0L504.422,85.725V59.493C504.422,36.74,485.977,18.295,463.224,18.295z"/>
<path style="fill:#EEEDED;" d="M463.224,0H48.776C26.023,0,7.578,18.445,7.578,41.197V67.43l218.737,119.595
	c18.497,10.114,40.871,10.114,59.368,0L504.422,67.43V41.197C504.422,18.445,485.977,0,463.224,0z"/>
<g>
	<path style="fill:#485458;" d="M178.76,70.624c-4.142,0-7.5-3.358-7.5-7.5V50.303c0-4.142,3.358-7.5,7.5-7.5s7.5,3.358,7.5,7.5
		v12.821C186.26,67.267,182.902,70.624,178.76,70.624z"/>
	<path style="fill:#485458;" d="M333.24,70.624c-4.142,0-7.5-3.358-7.5-7.5V50.303c0-4.142,3.358-7.5,7.5-7.5
		c4.143,0,7.5,3.358,7.5,7.5v12.821C340.74,67.267,337.383,70.624,333.24,70.624z"/>
	<path style="fill:#485458;" d="M256,80.47c-9.972,0-19.455-4.319-26.019-11.85c-2.721-3.123-2.396-7.86,0.727-10.582
		c3.123-2.721,7.859-2.396,10.582,0.726c3.713,4.261,9.075,6.705,14.71,6.705c5.635,0,10.996-2.444,14.71-6.705
		c2.722-3.123,7.459-3.449,10.582-0.726c3.123,2.722,3.447,7.459,0.727,10.581C275.454,76.151,265.972,80.47,256,80.47z"/>
</g>
<path style="fill:#E86478;" d="M501.665,26.38L285.684,144.468c-18.497,10.113-40.871,10.113-59.368,0L10.335,26.38
	c-1.774,4.599-2.757,9.592-2.757,14.817V67.43l218.737,119.595c18.497,10.114,40.871,10.114,59.368,0L504.422,67.43V41.197
	C504.422,35.972,503.439,30.98,501.665,26.38z"/>
<path style="fill:#61C6AD;" d="M476.625,386.209c-10.82,24.593-13.693,51.838-8.617,77.84c1.522,7.795-5.433,14.75-13.228,13.228
	c-26.001-5.076-53.246-2.203-77.84,8.617c-10.372,4.563-22.325-0.048-27.067-10.34c-6.277-13.625-15.019-26.391-26.247-37.619
	s-23.994-19.97-37.619-26.248c-10.291-4.742-14.903-16.695-10.34-27.067c10.82-24.593,13.693-51.838,8.617-77.84
	c-1.522-7.795,5.433-14.75,13.228-13.228c26.001,5.076,53.246,2.203,77.84-8.617c10.372-4.563,22.325,0.048,27.067,10.34
	c6.277,13.624,15.019,26.391,26.247,37.619s23.994,19.97,37.619,26.247C476.577,363.884,481.188,375.837,476.625,386.209z"/>
<path style="opacity:0.1;enable-background:new    ;" d="M428.667,332.895c-11.228-11.228-19.97-23.994-26.247-37.619
	c-4.742-10.291-16.695-14.903-27.067-10.34c-13.328,5.864-27.436,9.373-41.701,10.569c-19.263,9.645-37.272,22.229-46.939,35.785
	c0.064,12.933-1.791,25.87-5.543,38.36c1.673,13.747,3.96,28.349,6.921,43.054c12.839,6.195,24.884,14.581,35.535,25.232
	c11.228,11.228,19.97,23.994,26.248,37.619c4.742,10.291,16.695,14.903,27.067,10.34c3.734-1.643,7.536-3.08,11.379-4.357
	c-0.768-2.493-2.127-4.856-4.142-6.849c-17-16.809-44.816-47.173-62.91-81.69c27.223,11.57,61.217,17.352,81.099,15.525
	c29.518-2.712,52.698-24.472,58.526-52.028C449.291,350.486,438.4,342.628,428.667,332.895z"/>
<path style="opacity:0.1;enable-background:new    ;" d="M410.375,427.143c-1.919,0-3.839-0.732-5.304-2.197l-68.456-68.456
	c-2.929-2.929-2.929-7.678,0-10.606c2.93-2.929,7.678-2.929,10.608,0l68.456,68.456c2.929,2.929,2.929,7.678,0,10.606
	C414.214,426.411,412.294,427.143,410.375,427.143z"/>
<path style="fill:#61C6AD;" d="M45.714,359.142c13.625-6.277,26.391-15.019,37.619-26.247s19.97-23.994,26.247-37.619
	c4.742-10.291,16.695-14.903,27.067-10.34c24.593,10.82,51.838,13.693,77.84,8.617c7.795-1.522,14.75,5.433,13.228,13.228
	c-5.076,26.001-2.203,53.246,8.617,77.84c4.563,10.372-0.049,22.325-10.34,27.067c-13.624,6.278-26.391,15.02-37.619,26.248
	s-19.97,23.994-26.247,37.619c-4.742,10.291-16.695,14.903-27.067,10.34c-24.593-10.82-51.838-13.693-77.84-8.617
	c-7.795,1.522-14.75-5.433-13.228-13.228c5.076-26.001,2.203-53.246-8.617-77.84C30.812,375.837,35.423,363.884,45.714,359.142z"/>
<path style="opacity:0.1;enable-background:new    ;" d="M83.333,332.895c11.228-11.228,19.97-23.994,26.248-37.619
	c4.742-10.291,16.695-14.903,27.067-10.34c13.328,5.864,27.436,9.373,41.701,10.569c19.263,9.645,37.272,22.229,46.939,35.785
	c-0.064,12.933,1.791,25.87,5.542,38.36c-1.673,13.747-3.96,28.349-6.921,43.054c-12.839,6.195-24.884,14.581-35.535,25.232
	c-11.228,11.228-19.97,23.994-26.248,37.619c-4.742,10.291-16.695,14.903-27.067,10.34c-3.734-1.643-7.536-3.08-11.379-4.357
	c0.768-2.493,2.127-4.856,4.142-6.849c17-16.809,44.816-47.173,62.91-81.69c-27.223,11.57-61.217,17.352-81.099,15.525
	c-29.518-2.712-52.698-24.472-58.526-52.028C62.709,350.486,73.6,342.628,83.333,332.895z"/>
<path style="opacity:0.1;enable-background:new    ;" d="M101.625,427.143c-1.919,0-3.839-0.732-5.303-2.197
	c-2.929-2.929-2.929-7.678,0-10.606l68.456-68.456c2.929-2.929,7.678-2.929,10.606,0c2.929,2.929,2.929,7.678,0,10.606
	l-68.456,68.456C105.464,426.411,103.545,427.143,101.625,427.143z"/>
<g>
	<path style="fill:#F8CA4F;" d="M256,323.644c0,56.336-8.487,133.994-34.413,179.485c-4.735,8.309-15.257,11.291-23.674,6.752
		l-36.708-19.794c-9.847-5.31-12.32-18.316-5.117-26.877c22.951-27.281,65.675-84.619,71.622-139.566L256,323.644L256,323.644z"/>
	<path style="fill:#F8CA4F;" d="M256,323.644c0,56.336,8.487,133.994,34.413,179.485c4.735,8.309,15.257,11.291,23.674,6.752
		l36.708-19.794c9.847-5.31,12.32-18.316,5.117-26.877c-22.952-27.281-65.675-84.619-71.622-139.566L256,323.644L256,323.644z"/>
</g>
<path style="opacity:0.1;enable-background:new    ;" d="M256,323.644c0,56.336-8.487,133.994-34.413,179.485
	c-4.735,8.309-15.257,11.291-23.674,6.752l-36.708-19.794c-9.847-5.31-12.32-18.316-5.117-26.877
	c22.951-27.281,65.675-84.619,71.622-139.566L256,323.644L256,323.644z"/>
<path style="opacity:0.1;enable-background:new    ;" d="M256,323.644c0,56.336,8.487,133.994,34.413,179.485
	c4.735,8.309,15.257,11.291,23.674,6.752l36.708-19.794c9.847-5.31,12.32-18.316,5.117-26.877
	c-22.952-27.281-65.675-84.619-71.622-139.566L256,323.644L256,323.644z"/>
<g>
	<path style="fill:#F8CA4F;" d="M256,323.644c0,39.061-86.756,70.725-125.817,70.725s-70.725-31.665-70.725-70.725
		s31.665-70.725,70.725-70.725C169.244,252.919,256,284.583,256,323.644z"/>
	<path style="fill:#F8CA4F;" d="M256,323.644c0-39.06,86.756-70.725,125.817-70.725s70.725,31.665,70.725,70.725
		s-31.665,70.725-70.725,70.725C342.756,394.369,256,362.704,256,323.644z"/>
</g>
<g style="opacity:0.1;">
	<path d="M238.089,323.59c-0.972,0-1.96-0.19-2.913-0.592c-16.95-7.153-68.496-19.287-81.271-19.819
		c-4.138-0.173-7.354-3.668-7.181-7.806c0.172-4.138,3.643-7.355,7.806-7.181c14.4,0.6,67.643,13.038,86.479,20.986
		c3.816,1.61,5.604,6.01,3.994,9.826C243.794,321.868,241.014,323.59,238.089,323.59z"/>
	<path d="M154.212,359.102c-3.999,0-7.32-3.155-7.488-7.188c-0.172-4.139,3.043-7.633,7.181-7.806
		c12.775-0.532,64.321-12.666,81.272-19.818c3.817-1.609,8.215,0.178,9.826,3.995c1.61,3.816-0.178,8.215-3.995,9.826
		c-18.835,7.947-72.079,20.385-86.478,20.985C154.423,359.1,154.317,359.102,154.212,359.102z"/>
</g>
<g style="opacity:0.1;">
	<path d="M273.911,323.59c-2.925,0-5.704-1.722-6.913-4.586c-1.61-3.816,0.178-8.215,3.994-9.826
		c18.834-7.947,72.077-20.385,86.478-20.986c4.155-0.171,7.634,3.043,7.806,7.181c0.173,4.139-3.042,7.633-7.181,7.806
		c-12.776,0.532-64.321,12.666-81.271,19.819C275.872,323.399,274.884,323.59,273.911,323.59z"/>
	<path d="M357.788,359.102c-0.107,0-0.212-0.002-0.318-0.006c-14.4-0.601-67.643-13.038-86.478-20.985
		c-3.816-1.61-5.604-6.01-3.994-9.826c1.61-3.817,6.01-5.606,9.826-3.995c16.95,7.152,68.495,19.286,81.271,19.818
		c4.139,0.173,7.354,3.668,7.181,7.806C365.107,355.946,361.785,359.102,357.788,359.102z"/>
</g>
<circle style="fill:#F8CA4F;" cx="256" cy="323.64" r="36.18"/>
<circle style="opacity:0.2;fill:#FFFFFF;enable-background:new    ;" cx="256" cy="323.64" r="36.18"/>
<g>
</g>
<g>
</g>
<g>
</g>
<g>
</g>
<g>
</g>
<g>
</g>
<g>
</g>
<g>
</g>
<g>
</g>
<g>
</g>
<g>
</g>
<g>
</g>
<g>
</g>
<g>
</g>
<g>
</g>
</svg>
