<?xml version="1.0" encoding="iso-8859-1"?>
<!-- Generator: Adobe Illustrator 19.0.0, SVG Export Plug-In . SVG Version: 6.00 Build 0)  -->
<svg version="1.1" id="Capa_1" xmlns="http://www.w3.org/2000/svg" xmlns:xlink="http://www.w3.org/1999/xlink" x="0px" y="0px"
	 viewBox="0 0 512 512" style="enable-background:new 0 0 512 512;" xml:space="preserve">
<rect x="121.36" y="172.4" style="fill:#485458;" width="270.75" height="234.72"/>
<path style="fill:#E86478;" d="M184.743,344.102v-47.296c0-20.691,25.794-30.15,39.171-14.366l0,0
	c2.609,3.079,7.609,1.91,8.582-2.007l11.249-45.27c5.2-20.927,32.367-26.433,45.305-9.182l0,0
	c25.753,34.338,39.675,76.102,39.675,119.025l0,0c0,39.941-32.527,72.285-72.537,71.989
	C216.494,416.7,184.743,383.797,184.743,344.102z"/>
<path style="fill:#F8CA4F;" d="M296.505,367.958c-1.405-16.063-11.741-39.506-27.175-53.739c-6.568-6.057-17.2-4.238-21.232,3.735
	c-8.771,17.344-32.771,29.986-30.416,56.9c1.904,21.766,21.093,37.868,42.859,35.963
	C282.308,408.912,298.409,389.724,296.505,367.958z"/>
<g>
	<path style="fill:#AA715F;" d="M492.059,441.643H21.409v-24.578c0-5.493,4.453-9.946,9.946-9.946h450.757
		c5.493,0,9.946,4.453,9.946,9.946L492.059,441.643L492.059,441.643z"/>
	<path style="fill:#AA715F;" d="M502.836,476.167H10.631c-4.201,0-7.607-3.406-7.607-7.607v-16.971c0-5.493,4.453-9.946,9.946-9.946
		h487.527c5.493,0,9.946,4.453,9.946,9.946v16.971C510.444,472.763,507.038,476.167,502.836,476.167z"/>
</g>
<path style="opacity:0.1;enable-background:new    ;" d="M21.409,468.56v-16.971c0-5.493,4.453-9.946,9.946-9.946H12.97
	c-5.493,0-9.946,4.453-9.946,9.946v16.971c0,4.201,3.406,7.607,7.607,7.607h18.385C24.815,476.167,21.409,472.763,21.409,468.56z"/>
<rect x="39.939" y="172.4" style="fill:#EEEDED;" width="81.42" height="234.72"/>
<rect x="39.939" y="172.4" style="opacity:0.1;enable-background:new    ;" width="81.42" height="23.388"/>
<rect x="392.11" y="172.4" style="fill:#EEEDED;" width="81.42" height="234.72"/>
<rect x="392.11" y="172.4" style="opacity:0.1;enable-background:new    ;" width="81.42" height="23.388"/>
<path style="opacity:0.1;enable-background:new    ;" d="M39.794,429.661v-12.595c0-5.493,4.453-9.946,9.946-9.946H31.355
	c-5.493,0-9.946,4.453-9.946,9.946v24.578h470.65v-11.983H39.794z"/>
<path style="fill:#EEEDED;" d="M494.535,82.161H17.465C7.819,82.161,0,89.979,0,99.626v55.305c0,9.646,7.819,17.465,17.465,17.465
	h477.07c9.646,0,17.465-7.82,17.465-17.465V99.626C512,89.979,504.181,82.161,494.535,82.161z"/>
<path style="opacity:0.1;enable-background:new    ;" d="M34.695,154.93V99.626c0-9.646,7.819-17.465,17.465-17.465H17.465
	C7.819,82.161,0,89.979,0,99.626v55.305c0,9.646,7.819,17.465,17.465,17.465H52.16C42.514,172.396,34.695,164.577,34.695,154.93z"/>
<path style="fill:#AA715F;" d="M459.761,35.834H53.707c-7.604,0-13.768,6.164-13.768,13.768v32.585h433.59V49.601
	C473.529,41.998,467.365,35.834,459.761,35.834z"/>
<path style="opacity:0.1;enable-background:new    ;" d="M68.596,327.224H39.939v37.478h28.657c4.872,0,8.821-3.949,8.821-8.821
	v-19.836C77.417,331.174,73.468,327.224,68.596,327.224z"/>
<path style="opacity:0.1;enable-background:new    ;" d="M473.529,323.317h-38.271c-4.872,0-8.821,3.949-8.821,8.821v19.836
	c0,4.872,3.949,8.821,8.821,8.821h38.271V323.317z"/>
<path style="opacity:0.1;enable-background:new    ;" d="M420.767,235.669H392.11v37.478h28.657c4.872,0,8.821-3.949,8.821-8.821
	V244.49C429.588,239.618,425.638,235.669,420.767,235.669z"/>
<path style="opacity:0.1;enable-background:new    ;" d="M121.358,220.161H82.373c-4.872,0-8.821,3.949-8.821,8.821v19.836
	c0,4.872,3.949,8.821,8.821,8.821h38.985V220.161z"/>
<path style="opacity:0.1;enable-background:new    ;" d="M63.152,64.658V49.601c0-7.604,6.164-13.768,13.768-13.768H53.707
	c-7.604,0-13.768,6.164-13.768,13.768v32.585h433.59V64.658H63.152z"/>
<g>
	<path style="fill:#485458;" d="M180.394,136.249c-4.142,0-7.5-3.358-7.5-7.5v-12.672c0-4.142,3.358-7.5,7.5-7.5s7.5,3.358,7.5,7.5
		v12.672C187.894,132.891,184.536,136.249,180.394,136.249z"/>
	<path style="fill:#485458;" d="M333.074,136.249c-4.142,0-7.5-3.358-7.5-7.5v-12.672c0-4.142,3.358-7.5,7.5-7.5s7.5,3.358,7.5,7.5
		v12.672C340.574,132.891,337.216,136.249,333.074,136.249z"/>
	<path style="fill:#485458;" d="M256.734,145.98c-9.881,0-19.278-4.28-25.781-11.741c-2.721-3.123-2.396-7.86,0.727-10.582
		c3.123-2.721,7.861-2.395,10.582,0.727c3.653,4.192,8.928,6.597,14.472,6.597s10.819-2.404,14.473-6.597
		c2.722-3.122,7.458-3.448,10.582-0.726c3.123,2.721,3.448,7.459,0.726,10.581C276.011,141.701,266.615,145.98,256.734,145.98z"/>
</g>
<g>
</g>
<g>
</g>
<g>
</g>
<g>
</g>
<g>
</g>
<g>
</g>
<g>
</g>
<g>
</g>
<g>
</g>
<g>
</g>
<g>
</g>
<g>
</g>
<g>
</g>
<g>
</g>
<g>
</g>
</svg>
