<?xml version="1.0" encoding="iso-8859-1"?>
<!-- Generator: Adobe Illustrator 19.0.0, SVG Export Plug-In . SVG Version: 6.00 Build 0)  -->
<svg version="1.1" id="Capa_1" xmlns="http://www.w3.org/2000/svg" xmlns:xlink="http://www.w3.org/1999/xlink" x="0px" y="0px"
	 viewBox="0 0 511.999 511.999" style="enable-background:new 0 0 511.999 511.999;" xml:space="preserve">
<g>
	<path style="fill:#EEEDED;" d="M169.723,92.068c-24.942,6.683-50.671-8.172-57.354-33.113
		c-6.683-24.942,8.171-50.671,33.113-57.354s50.671,8.172,57.354,33.113S194.665,85.385,169.723,92.068z M152.193,26.645
		c-11.132,2.983-17.762,14.466-14.779,25.598c2.983,11.132,14.466,17.762,25.598,14.779c11.132-2.983,17.762-14.466,14.779-25.598
		C174.808,30.292,163.325,23.662,152.193,26.645z"/>
	<circle style="fill:#EEEDED;" cx="265.32" cy="448.849" r="63.14"/>
	<circle style="fill:#EEEDED;" cx="265.32" cy="448.849" r="63.14"/>
</g>
<path style="opacity:0.1;enable-background:new    ;" d="M326.306,432.507c-9.236-34.469-45.28-54.597-79.689-43.962
	c-31.286,9.67-50.14,42.326-42.871,74.255c7.995,35.117,43.447,56.268,77.916,47.032c13.419-3.596,24.653-11.262,32.756-21.305
	c-6.217,4.625-13.384,8.189-21.324,10.317c-19.315,5.175-38.938,0.809-53.866-10.209c-6.143-4.534-4.3-14.174,3.075-16.15
	l86.15-23.084C328.499,443.826,327.819,438.155,326.306,432.507z"/>
<path style="fill:#EEEDED;" d="M439.735,327.541L439.735,327.541c-44.737-25.829-77.381-68.372-90.751-118.269l-7.299-27.241
	c-20.43-76.244-98.516-122.781-174.83-102.615C90.371,99.625,44.921,178.11,65.379,254.461L73.08,283.2
	c13.37,49.898,6.371,103.063-19.458,147.8l0,0L439.735,327.541z"/>
<g style="opacity:0.1;">
	<circle cx="216.83" cy="272.689" r="7.227"/>
	<circle cx="357.95" cy="311.959" r="7.227"/>
	<circle cx="114.26" cy="377.249" r="7.227"/>
</g>
<path style="fill:#485458;" d="M476.578,392.242L54.065,505.454c-14.628,3.92-29.664-4.761-33.584-19.39l-4.449-16.604
	c-3.92-14.628,4.761-29.664,19.39-33.584l422.513-113.212c14.628-3.92,29.664,4.762,33.584,19.39l4.449,16.604
	C499.887,373.286,491.206,388.322,476.578,392.242z"/>
<path style="opacity:0.1;enable-background:new    ;" d="M62.112,474.909l-4.449-16.604c-3.92-14.628,4.761-29.664,19.39-33.584
	l-41.631,11.155c-14.628,3.92-23.309,18.956-19.39,33.584l4.449,16.604c3.92,14.628,18.956,23.309,33.584,19.39l41.63-11.155
	C81.067,498.219,66.031,489.537,62.112,474.909z"/>
<g style="opacity:0.1;">
	<g>
		<path d="M171.202,329.753c-1.272,0-2.562-0.324-3.743-1.006l-46.249-26.702c-3.587-2.071-4.816-6.658-2.745-10.245
			s6.658-4.817,10.245-2.745l46.249,26.702c3.587,2.071,4.816,6.658,2.745,10.245C176.315,328.407,173.794,329.753,171.202,329.753z
			"/>
		<path d="M134.727,339.527c-1.272,0-2.562-0.324-3.743-1.006c-3.587-2.071-4.816-6.658-2.745-10.245l26.702-46.25
			c2.071-3.587,6.657-4.817,10.245-2.745c3.587,2.071,4.816,6.658,2.745,10.245l-26.702,46.25
			C139.839,338.181,137.318,339.527,134.727,339.527z"/>
	</g>
	<g>
		<path d="M283.52,299.657c-1.272,0-2.562-0.324-3.743-1.006c-3.587-2.071-4.816-6.658-2.745-10.245l26.702-46.249
			c2.071-3.587,6.658-4.817,10.245-2.745c3.587,2.071,4.816,6.658,2.745,10.245l-26.702,46.249
			C288.633,298.312,286.112,299.657,283.52,299.657z"/>
		<path d="M319.996,289.884c-1.273,0-2.562-0.324-3.743-1.006l-46.249-26.702c-3.587-2.071-4.816-6.658-2.745-10.245
			c2.071-3.587,6.657-4.817,10.245-2.745l46.249,26.702c3.587,2.071,4.816,6.658,2.745,10.245
			C325.109,288.538,322.588,289.884,319.996,289.884z"/>
	</g>
</g>
<path style="opacity:0.1;enable-background:new    ;" d="M166.855,79.415c-28.688,7.581-53.01,23.36-71.125,44.15
	c19.281,9.337,50.507,10.7,83.456,1.871c32.496-8.707,58.596-25.161,70.847-42.616C224.126,73.66,195.368,71.88,166.855,79.415z"/>
<path style="opacity:0.1;enable-background:new    ;" d="M413.455,309.322L98.536,393.705
	c14.197-37.805,16.396-79.366,5.808-118.882l-7.701-28.739c-18.994-70.888,18.831-143.605,85.553-169.825
	c-5.11,0.763-10.229,1.805-15.34,3.156C90.371,99.625,44.921,178.11,65.379,254.461L73.08,283.2
	c13.37,49.898,6.371,103.063-19.458,147.8l386.114-103.459C430.427,322.167,421.651,316.059,413.455,309.322z"/>
<g>
	<path style="fill:#485458;" d="M125.841,225.688c-3.311,0-6.341-2.21-7.239-5.561l-3.224-12.029
		c-1.072-4.001,1.302-8.114,5.303-9.186c3.999-1.069,8.113,1.302,9.186,5.303l3.224,12.029c1.072,4.001-1.302,8.114-5.303,9.186
		C127.138,225.604,126.484,225.688,125.841,225.688z"/>
	<path style="fill:#485458;" d="M270.775,186.853c-3.312,0-6.342-2.21-7.24-5.561l-3.223-12.029
		c-1.072-4.001,1.303-8.113,5.304-9.186c3.999-1.069,8.113,1.302,9.186,5.304l3.223,12.029c1.072,4.001-1.303,8.113-5.304,9.186
		C272.071,186.769,271.418,186.853,270.775,186.853z"/>
	<path style="fill:#485458;" d="M219.885,202.853c3.071,11.46-3.946,23.246-15.608,25.93c-11.108,2.557-22.181-4.526-25.131-15.536
		l-3.827-14.282c-0.819-3.058,0.995-6.2,4.053-7.02l29.536-7.914c3.058-0.819,6.201,0.995,7.02,4.053L219.885,202.853z"/>
</g>
<g>
</g>
<g>
</g>
<g>
</g>
<g>
</g>
<g>
</g>
<g>
</g>
<g>
</g>
<g>
</g>
<g>
</g>
<g>
</g>
<g>
</g>
<g>
</g>
<g>
</g>
<g>
</g>
<g>
</g>
</svg>
