<?xml version="1.0" encoding="iso-8859-1"?>
<!-- Generator: Adobe Illustrator 19.0.0, SVG Export Plug-In . SVG Version: 6.00 Build 0)  -->
<svg version="1.1" id="Capa_1" xmlns="http://www.w3.org/2000/svg" xmlns:xlink="http://www.w3.org/1999/xlink" x="0px" y="0px"
	 viewBox="0 0 512 512" style="enable-background:new 0 0 512 512;" xml:space="preserve">
<path style="fill:#F7C2AD;" d="M34.989,294.425V363.1c0,21.759,17.639,39.399,39.399,39.399l0,0
	c21.76,0,39.399-17.639,39.399-39.399l0,0c0-25.07-10.679-48.953-29.362-65.67l-18.713-16.742
	C53.838,270.064,34.989,278.492,34.989,294.425z"/>
<path style="opacity:0.2;fill:#E86478;enable-background:new    ;" d="M74.446,380.59c-12.946,0-23.479-10.533-23.479-23.479
	v-31.124c0-5.403,3.064-10.13,7.997-12.336c4.93-2.204,10.498-1.338,14.526,2.266l10.026,8.972
	c9.156,8.191,14.408,19.936,14.408,32.223C97.926,370.058,87.393,380.59,74.446,380.59z M65.968,329.313v27.798
	c0,4.675,3.804,8.479,8.479,8.479c4.676,0,8.479-3.804,8.479-8.479c0-8.024-3.43-15.694-9.409-21.043L65.968,329.313z"/>
<path style="fill:#F7C2AD;" d="M477.011,294.425V363.1c0,21.759-17.639,39.399-39.399,39.399l0,0
	c-21.76,0-39.399-17.639-39.399-39.399l0,0c0-25.07,10.679-48.953,29.362-65.67l18.713-16.742
	C458.162,270.064,477.011,278.492,477.011,294.425z"/>
<path style="opacity:0.2;fill:#E86478;enable-background:new    ;" d="M437.554,380.59c-12.946,0-23.479-10.533-23.479-23.479
	c0-12.287,5.252-24.031,14.408-32.223l10.026-8.971c4.027-3.602,9.593-4.472,14.526-2.266s7.997,6.933,7.997,12.336v31.124
	C461.032,370.058,450.5,380.59,437.554,380.59z M446.032,329.313l-7.548,6.753c-5.98,5.351-9.41,13.021-9.41,21.044
	c0,4.675,3.804,8.479,8.479,8.479c4.675,0,8.479-3.804,8.479-8.479V329.313z"/>
<path style="opacity:0.1;enable-background:new    ;" d="M84.425,297.43l-7.513-6.722c-5.42,16.919-8.341,34.897-8.341,53.534
	c0,20.305,3.464,39.829,9.853,58.052c19.864-2.021,35.363-18.798,35.363-39.195l0,0C113.787,338.03,103.108,314.147,84.425,297.43z"
	/>
<path style="opacity:0.1;enable-background:new    ;" d="M435.088,290.709l-7.513,6.722c-18.684,16.716-29.362,40.6-29.362,65.67
	l0,0c0,20.397,15.5,37.174,35.363,39.195c6.388-18.222,9.853-37.746,9.853-58.052C443.429,325.606,440.508,307.627,435.088,290.709z
	"/>
<ellipse style="fill:#F7C2AD;" cx="256" cy="344.24" rx="173.76" ry="167.76"/>
<path style="opacity:0.05;enable-background:new    ;" d="M274.754,493.246c-95.963,0-173.757-75.107-173.757-167.757
	c0-40.54,14.894-77.721,39.688-106.721c-35.846,30.73-58.442,75.552-58.442,125.475C82.243,436.893,160.037,512,256,512
	c53.974,0,102.199-23.759,134.069-61.036C359.39,477.264,319.008,493.246,274.754,493.246z"/>
<g>
	<path style="fill:#AA715F;" d="M117.503,228.325c-12.461,4.651-32.902,47.293-38.483,78.69
		c-2.129,11.977,9.404,21.862,20.928,17.967c44.799-15.141,110.357-55.793,130.86-96.657L117.503,228.325L117.503,228.325z"/>
	<path style="fill:#AA715F;" d="M394.497,228.325c12.461,4.651,32.902,47.293,38.483,78.69c2.129,11.977-9.404,21.862-20.927,17.967
		c-44.799-15.141-110.358-55.793-130.86-96.657L394.497,228.325L394.497,228.325z"/>
</g>
<path style="opacity:0.1;enable-background:new    ;" d="M394.497,228.325h-12.898c-31.635-31.942-76.21-51.839-125.6-51.839
	s-93.964,19.897-125.6,51.839h-12.898c-8.681,3.24-21.229,24.918-29.933,48.385c0.281,0.016,0.563,0.03,0.85,0.03H423.58
	c0.287,0,0.569-0.014,0.85-0.03C415.726,253.243,403.178,231.566,394.497,228.325z"/>
<path style="fill:#61C6AD;" d="M239.851,8.466L76.899,244.097c-6.425,9.291,0.225,21.975,11.521,21.975h335.16
	c11.296,0,17.946-12.684,11.521-21.975L272.149,8.466C264.342-2.822,247.658-2.822,239.851,8.466z"/>
<polygon style="fill:#485458;" points="375.891,158.478 136.109,158.478 101.622,208.346 410.378,208.346 "/>
<path style="fill:#F8CA4F;" d="M284.081,231.563h-56.162c-16.435,0-29.805-13.371-29.805-29.806v-36.69
	c0-16.435,13.371-29.805,29.805-29.805h56.162c16.435,0,29.806,13.371,29.806,29.805v36.69
	C313.886,218.192,300.515,231.563,284.081,231.563z M228.67,201.007h54.66v-35.189h-54.66L228.67,201.007L228.67,201.007z"/>
<g>
	<path style="fill:#485458;" d="M174.622,359.747c-4.143,0-7.5-3.358-7.5-7.5v-13.508c0-4.142,3.357-7.5,7.5-7.5s7.5,3.358,7.5,7.5
		v13.508C182.122,356.389,178.765,359.747,174.622,359.747z"/>
	<path style="fill:#485458;" d="M337.378,359.747c-4.142,0-7.5-3.358-7.5-7.5v-13.508c0-4.142,3.358-7.5,7.5-7.5
		c4.143,0,7.5,3.358,7.5,7.5v13.508C344.878,356.389,341.52,359.747,337.378,359.747z"/>
	<path style="fill:#485458;" d="M256,370.121c-10.39,0-20.271-4.5-27.109-12.347c-2.722-3.122-2.395-7.86,0.727-10.582
		c3.122-2.721,7.859-2.396,10.582,0.727c3.988,4.577,9.748,7.202,15.801,7.202c6.053,0,11.812-2.625,15.801-7.202
		c2.722-3.123,7.46-3.448,10.582-0.727c3.122,2.722,3.448,7.46,0.727,10.582C276.27,365.621,266.39,370.121,256,370.121z"/>
</g>
<g>
</g>
<g>
</g>
<g>
</g>
<g>
</g>
<g>
</g>
<g>
</g>
<g>
</g>
<g>
</g>
<g>
</g>
<g>
</g>
<g>
</g>
<g>
</g>
<g>
</g>
<g>
</g>
<g>
</g>
</svg>
