<?xml version="1.0" encoding="iso-8859-1"?>
<!-- Generator: Adobe Illustrator 19.0.0, SVG Export Plug-In . SVG Version: 6.00 Build 0)  -->
<svg version="1.1" id="Capa_1" xmlns="http://www.w3.org/2000/svg" xmlns:xlink="http://www.w3.org/1999/xlink" x="0px" y="0px"
	 viewBox="0 0 512.001 512.001" style="enable-background:new 0 0 512.001 512.001;" xml:space="preserve">
<path style="fill:#AA715F;" d="M364.103,275.3c-6.237-1.011-11.999-3.977-16.316-8.591c-30.57-32.67-74.069-53.09-122.341-53.09
	c-92.52,0-167.522,75.002-167.522,167.522h396.152C454.076,327.791,415.118,283.566,364.103,275.3z"/>
<path style="opacity:0.1;enable-background:new    ;" d="M181.913,307.353c-7.592-8.398-17.109-13.876-27.213-16.439
	c-16.036-4.068-31.319-10.673-44.75-20.333l-2.302-1.656c-1.358-0.977-2.776-1.818-4.235-2.538
	c-13.84,14.712-25.046,31.925-32.874,50.891c7.871,12.106,13.866,25.379,17.17,39.447c2.079,8.853,6.386,17.286,12.911,24.416
	h81.035C200.502,360.508,200.81,328.254,181.913,307.353z"/>
<path style="fill:#EEEDED;" d="M61.716,219.204c3.244-7.397,1.67-16.398-4.722-22.24c-7.522-6.874-19.423-6.671-26.724,0.437
	c-2.628,2.558-4.368,5.672-5.234,8.968c-0.652,2.481-2.629,4.458-5.11,5.11c-3.297,0.866-6.41,2.607-8.968,5.234
	c-7.108,7.301-7.311,19.201-0.437,26.724c5.841,6.392,14.842,7.966,22.24,4.722c4.143-1.817,8.957-1.061,12.156,2.138l36.098,36.098
	l18.938-18.938l-36.098-36.098C60.655,228.161,59.899,223.347,61.716,219.204z"/>
<path style="opacity:0.1;enable-background:new    ;" d="M80.636,248.142c-4.303,1.425-8.336,3.826-11.724,7.214l0,0
	c-3.388,3.388-5.79,7.421-7.214,11.724l19.316,19.316l18.938-18.938L80.636,248.142z"/>
<path style="fill:#CFA08F;" d="M190.177,299.089c-7.592-8.398-17.108-13.876-27.213-16.439
	c-16.036-4.068-31.319-10.674-44.75-20.333l-2.302-1.656c-11.886-8.548-28.215-7.224-38.567,3.129l0,0
	c-10.352,10.352-11.677,26.682-3.129,38.567l0.778,1.081c9.753,13.56,17.161,28.762,20.98,45.022
	c2.255,9.603,7.125,18.717,14.613,26.205c21.462,21.462,56.275,21.438,77.707-0.073C208.74,354.07,209.605,320.578,190.177,299.089z
	"/>
<path style="opacity:0.1;enable-background:new    ;" d="M117.779,367.473c-7.488-7.488-12.358-16.602-14.613-26.205
	c-3.818-16.261-11.227-31.462-20.98-45.022l-0.778-1.081c-7.538-10.481-7.394-24.415-0.157-34.661
	c-1.373,0.97-2.682,2.063-3.906,3.286l0,0c-10.352,10.352-11.677,26.682-3.129,38.567l0.778,1.081
	c9.753,13.56,17.161,28.761,20.98,45.022c2.255,9.603,7.125,18.717,14.614,26.205c21.462,21.462,56.275,21.438,77.707-0.073
	c1.178-1.182,2.283-2.412,3.331-3.676C170.059,388.834,137.997,387.692,117.779,367.473z"/>
<g>
	<path style="fill:#61C6AD;" d="M35.573,388.589l-0.548-10.74c-0.688-13.49,12.263-23.546,25.162-19.537l0,0
		c7.348,2.284,15.264-1.132,18.644-8.045l1.298-2.655c4.459-9.122,16.306-11.62,24.069-5.075l2.203,1.857
		c5.999,5.058,14.823,4.872,20.603-0.435l0.387-0.355c8.368-7.682,21.877-4.13,25.385,6.674l1.6,4.929
		c2.405,7.407,9.904,11.906,17.571,10.54l0,0c11.558-2.058,21.161,8.907,17.598,20.093l-5.386,16.904
		c-2.213,6.947-8.943,11.434-16.207,10.805L49.808,403.335C42.046,402.664,35.97,396.37,35.573,388.589z"/>
	<path style="fill:#61C6AD;" d="M301.948,394.054l-10.491-10.31c-8.075-7.936-3.785-21.68,7.37-23.614l7.078-1.227
		c5.97-1.035,10.582-5.817,11.401-11.821l0,0c1.455-10.677,13.979-15.711,22.419-9.011l1.756,1.394
		c4.911,3.899,11.825,4.027,16.878,0.313l6.185-4.547c7.99-5.873,19.383-1.733,21.739,7.899l0.836,3.42
		c1.387,5.672,6.171,9.873,11.975,10.516l7.134,0.79c10.556,1.169,15.957,13.263,9.78,21.903l-8.91,12.464
		c-2.61,3.651-6.822,5.817-11.31,5.817h-84.095C308.048,398.041,304.548,396.609,301.948,394.054z"/>
</g>
<path style="opacity:0.2;fill:#FFFFFF;enable-background:new    ;" d="M301.948,394.054l-10.491-10.31
	c-8.075-7.936-3.785-21.68,7.37-23.614l7.078-1.227c5.97-1.035,10.582-5.817,11.401-11.821l0,0
	c1.455-10.677,13.979-15.711,22.419-9.011l1.756,1.394c4.911,3.899,11.825,4.027,16.878,0.313l6.185-4.547
	c7.99-5.873,19.383-1.733,21.739,7.899l0.836,3.42c1.387,5.672,6.171,9.873,11.975,10.516l7.134,0.79
	c10.556,1.169,15.957,13.263,9.78,21.903l-8.91,12.464c-2.61,3.651-6.822,5.817-11.31,5.817h-84.095
	C308.048,398.041,304.548,396.609,301.948,394.054z"/>
<path style="fill:#485458;" d="M451.01,434.595H60.99c-19.569,0-38.103-8.791-50.483-23.946l-7.711-9.44
	c-6.558-8.027-0.846-20.069,9.52-20.069h487.369c10.366,0,16.077,12.041,9.52,20.069l-7.711,9.44
	C489.112,425.804,470.579,434.595,451.01,434.595z"/>
<path style="opacity:0.1;enable-background:new    ;" d="M49.503,410.649l-7.711-9.44c-6.558-8.028-0.846-20.069,9.519-20.069
	H12.315c-10.366,0-16.077,12.041-9.519,20.069l7.711,9.44c12.38,15.155,30.914,23.946,50.483,23.946h38.996
	C80.417,434.595,61.884,425.804,49.503,410.649z"/>
<g>
	<path style="fill:#EEEDED;" d="M389.429,230.738c-1.919,0-3.839-0.732-5.304-2.197c-8.519-8.518-13.21-19.844-13.21-31.892
		c0-12.047,4.691-23.373,13.21-31.891c11.736-11.736,11.736-30.833,0-42.57c-2.929-2.929-2.929-7.678,0-10.606
		c2.93-2.93,7.678-2.929,10.607,0c17.584,17.585,17.584,46.198,0,63.783c-5.685,5.686-8.817,13.245-8.817,21.285
		c0,8.041,3.132,15.6,8.816,21.285c2.93,2.929,2.93,7.677,0.001,10.606C393.268,230.006,391.348,230.738,389.429,230.738z"/>
	<path style="fill:#EEEDED;" d="M125.387,215.759c-1.92,0-3.839-0.732-5.304-2.197c-17.584-17.584-17.584-46.197,0-63.783
		c5.686-5.686,8.817-13.245,8.817-21.285c0-8.04-3.132-15.6-8.816-21.285c-2.93-2.929-2.93-7.677-0.001-10.606
		c2.93-2.929,7.679-2.93,10.606,0c8.52,8.518,13.211,19.844,13.211,31.892c0,12.047-4.691,23.373-13.211,31.891
		c-11.735,11.737-11.735,30.833,0.001,42.57c2.929,2.929,2.929,7.678-0.001,10.606C129.226,215.027,127.306,215.759,125.387,215.759
		z"/>
	<path style="fill:#EEEDED;" d="M240.879,198.759c-1.919,0-3.839-0.732-5.303-2.197c-8.52-8.518-13.211-19.844-13.211-31.891
		s4.691-23.373,13.21-31.892c11.736-11.736,11.736-30.833,0-42.57c-2.929-2.929-2.929-7.678,0.001-10.607
		c2.929-2.929,7.678-2.928,10.606,0c17.584,17.585,17.584,46.198,0,63.783c-5.686,5.686-8.817,13.245-8.817,21.285
		c0,8.04,3.132,15.599,8.816,21.285c2.93,2.929,2.93,7.677,0.001,10.606C244.718,198.027,242.798,198.759,240.879,198.759z"/>
</g>
<g style="opacity:0.2;">
	<circle style="fill:#FFFFFF;" cx="195.94" cy="248.141" r="7.471"/>
	<circle style="fill:#FFFFFF;" cx="164.21" cy="304.851" r="7.471"/>
	<circle style="fill:#FFFFFF;" cx="173.87" cy="338.861" r="7.471"/>
	<circle style="fill:#FFFFFF;" cx="370.94" cy="304.851" r="7.471"/>
	<circle style="fill:#FFFFFF;" cx="243.81" cy="351.331" r="7.471"/>
	<circle style="fill:#FFFFFF;" cx="287.29" cy="291.511" r="7.471"/>
</g>
<g>
</g>
<g>
</g>
<g>
</g>
<g>
</g>
<g>
</g>
<g>
</g>
<g>
</g>
<g>
</g>
<g>
</g>
<g>
</g>
<g>
</g>
<g>
</g>
<g>
</g>
<g>
</g>
<g>
</g>
</svg>
