<?xml version="1.0" encoding="iso-8859-1"?>
<!-- Generator: Adobe Illustrator 19.0.0, SVG Export Plug-In . SVG Version: 6.00 Build 0)  -->
<svg version="1.1" id="Capa_1" xmlns="http://www.w3.org/2000/svg" xmlns:xlink="http://www.w3.org/1999/xlink" x="0px" y="0px"
	 viewBox="0 0 512 512" style="enable-background:new 0 0 512 512;" xml:space="preserve">
<path style="fill:#61C6AD;" d="M14.907,298.279c16.786-7.734,32.514-18.505,46.348-32.338
	c13.833-13.833,24.604-29.562,32.338-46.348c5.842-12.679,20.569-18.361,33.347-12.739c30.3,13.331,63.867,16.871,95.901,10.617
	c9.604-1.875,18.173,6.693,16.297,16.298c-6.254,32.035-2.714,65.601,10.617,95.901c5.622,12.778-0.06,27.505-12.739,33.347
	c-16.786,7.734-32.514,18.504-46.348,32.338s-24.604,29.562-32.338,46.348c-5.842,12.679-20.569,18.361-33.347,12.739
	c-30.3-13.331-63.867-16.871-95.901-10.616c-9.604,1.875-18.172-6.693-16.297-16.298c6.254-32.035,2.714-65.601-10.617-95.901
	C-3.453,318.846,2.228,304.12,14.907,298.279z"/>
<path style="opacity:0.1;enable-background:new    ;" d="M249.756,329.669c-13.331-30.3-16.871-63.867-10.617-95.902
	c1.875-9.604-6.693-18.173-16.297-16.297c-32.035,6.254-65.601,2.714-95.901-10.617c-12.778-5.622-27.505,0.06-33.347,12.739
	c-3.766,8.173-8.257,16.092-13.465,23.666c1.54,1.411,3.058,2.861,4.55,4.353c5.117,5.117,9.757,10.53,13.926,16.18
	c3.005,4.072,3.875,9.301,2.614,14.202c-2.122,8.24-3.164,16.913-2.96,25.862c1.12,49.295,40.511,89.892,89.755,92.389
	c0.575,0.029,1.148,0.047,1.721,0.066c0.313-0.318,0.619-0.64,0.936-0.957c13.833-13.833,29.562-24.604,46.348-32.338
	C249.696,357.174,255.378,342.448,249.756,329.669z"/>
<path style="opacity:0.1;enable-background:new    ;" d="M83.792,380.318c-1.919,0-3.839-0.733-5.303-2.197
	c-2.929-2.929-2.929-7.678,0-10.607l84.34-84.341c2.929-2.929,7.678-2.929,10.606,0c2.929,2.929,2.929,7.678,0,10.607l-84.34,84.341
	C87.631,379.585,85.711,380.318,83.792,380.318z"/>
<path style="fill:#61C6AD;" d="M194.111,68.577c6.841,14.848,16.368,28.761,28.605,40.997
	c12.236,12.237,26.149,21.763,40.997,28.605c11.215,5.168,16.241,18.194,11.268,29.498c-11.792,26.802-14.923,56.494-9.391,84.83
	c1.659,8.495-5.921,16.075-14.416,14.416c-28.336-5.532-58.028-2.401-84.831,9.391c-11.303,4.973-24.33-0.053-29.497-11.268
	c-6.841-14.848-16.368-28.761-28.605-40.997c-12.236-12.237-26.149-21.764-40.997-28.605c-11.215-5.168-16.241-18.194-11.268-29.498
	c11.792-26.802,14.923-56.494,9.391-84.83c-1.659-8.496,5.92-16.075,14.416-14.416c28.336,5.532,58.028,2.401,84.83-9.391
	C175.917,52.336,188.943,57.361,194.111,68.577z"/>
<path style="opacity:0.1;enable-background:new    ;" d="M202.781,211.613c-1.919,0-3.839-0.732-5.303-2.197l-74.604-74.604
	c-2.929-2.929-2.929-7.678,0-10.606c2.929-2.929,7.678-2.929,10.607,0l74.604,74.604c2.929,2.929,2.929,7.678,0,10.606
	C206.62,210.881,204.7,211.613,202.781,211.613z"/>
<path style="fill:#61C6AD;" d="M509.832,331.626c-13.331,30.3-16.871,63.867-10.616,95.901c1.875,9.604-6.693,18.173-16.298,16.298
	c-32.034-6.254-65.601-2.714-95.901,10.616c-12.778,5.622-27.505-0.06-33.347-12.739c-7.734-16.786-18.504-32.514-32.338-46.348
	s-29.562-24.604-46.348-32.338c-12.679-5.842-18.361-20.569-12.739-33.347c13.331-30.3,16.871-63.867,10.617-95.901
	c-1.875-9.604,6.693-18.173,16.297-16.298c32.035,6.254,65.601,2.714,95.901-10.617c12.778-5.622,27.505,0.06,33.347,12.739
	c7.734,16.786,18.504,32.514,32.338,46.348c13.833,13.833,29.562,24.604,46.348,32.338
	C509.772,304.12,515.453,318.846,509.832,331.626z"/>
<path style="opacity:0.1;enable-background:new    ;" d="M428.208,380.318c-1.919,0-3.839-0.733-5.304-2.197l-84.341-84.341
	c-2.929-2.929-2.929-7.678,0-10.607c2.93-2.929,7.678-2.929,10.607,0l84.341,84.341c2.929,2.929,2.929,7.678,0,10.607
	C432.047,379.585,430.127,380.318,428.208,380.318z"/>
<path style="opacity:0.1;enable-background:new    ;" d="M406.113,207.128c-6.406-3.033-14.023-3.367-21.053-0.274
	c-30.3,13.331-63.867,16.871-95.901,10.617c-9.604-1.875-18.172,6.693-16.297,16.297c6.254,32.035,2.714,65.602-10.617,95.902
	c-5.622,12.778,0.06,27.505,12.739,33.347c2.688,1.239,5.346,2.564,7.977,3.958c15.735-13.365,27.059-31.767,31.44-52.729
	c1.189-5.69,5.734-10.03,11.479-10.909c45.575-6.972,80.457-46.425,80.271-93.993C406.147,208.604,406.133,207.865,406.113,207.128z
	"/>
<circle style="fill:#E86478;" cx="306.25" cy="193.05" r="94.71"/>
<circle style="opacity:0.1;enable-background:new    ;" cx="306.25" cy="193.05" r="94.71"/>
<path style="opacity:0.1;enable-background:new    ;" d="M328.721,263.38c-52.308,0-94.711-42.404-94.711-94.711
	c0-18.786,5.492-36.279,14.926-51.005c-22.719,17.301-37.394,44.624-37.394,75.384c0,52.307,42.404,94.711,94.711,94.711
	c33.521,0,62.952-17.43,79.785-43.706C370.124,256.172,350.267,263.38,328.721,263.38z"/>
<circle style="fill:#E86478;" cx="216.51" cy="278.1" r="94.71"/>
<path style="opacity:0.1;enable-background:new    ;" d="M238.975,348.427c-52.307,0-94.711-42.404-94.711-94.711
	c0-18.786,5.492-36.28,14.926-51.005c-22.719,17.301-37.394,44.624-37.394,75.384c0,52.307,42.404,94.711,94.711,94.711
	c33.521,0,62.952-17.43,79.785-43.706C280.378,341.22,260.522,348.427,238.975,348.427z"/>
<g>
	<path style="fill:#485458;" d="M160.151,282.71c-4.142,0-7.5-3.358-7.5-7.5v-9.355c0-4.142,3.358-7.5,7.5-7.5s7.5,3.358,7.5,7.5
		v9.355C167.651,279.352,164.294,282.71,160.151,282.71z"/>
	<path style="fill:#485458;" d="M272.863,282.71c-4.143,0-7.5-3.358-7.5-7.5v-9.355c0-4.142,3.357-7.5,7.5-7.5s7.5,3.358,7.5,7.5
		v9.355C280.363,279.352,277.006,282.71,272.863,282.71z"/>
	<path style="fill:#485458;" d="M216.507,289.893c-7.862,0-15.338-3.405-20.512-9.341c-2.721-3.123-2.396-7.86,0.727-10.582
		c3.123-2.721,7.86-2.397,10.582,0.727c2.324,2.667,5.679,4.197,9.204,4.197s6.879-1.53,9.204-4.197
		c2.722-3.123,7.459-3.448,10.582-0.727c3.122,2.722,3.448,7.459,0.726,10.582C231.846,286.488,224.369,289.893,216.507,289.893z"/>
</g>
<g>
</g>
<g>
</g>
<g>
</g>
<g>
</g>
<g>
</g>
<g>
</g>
<g>
</g>
<g>
</g>
<g>
</g>
<g>
</g>
<g>
</g>
<g>
</g>
<g>
</g>
<g>
</g>
<g>
</g>
</svg>
