<?xml version="1.0" encoding="iso-8859-1"?>
<!-- Generator: Adobe Illustrator 19.0.0, SVG Export Plug-In . SVG Version: 6.00 Build 0)  -->
<svg version="1.1" id="Capa_1" xmlns="http://www.w3.org/2000/svg" xmlns:xlink="http://www.w3.org/1999/xlink" x="0px" y="0px"
	 viewBox="0 0 511.999 511.999" style="enable-background:new 0 0 511.999 511.999;" xml:space="preserve">
<g>
	<path style="fill:#61C6AD;" d="M501.552,247.569c0-25.555-11.971-48.311-30.611-62.972c-13.882-10.918-21.114-28.377-19.018-45.913
		c2.814-23.547-4.812-48.103-22.882-66.173c-18.07-18.07-42.626-25.696-66.173-22.882c-17.536,2.096-34.995-5.136-45.913-19.018
		C302.294,11.971,279.537,0,253.982,0s-48.311,11.971-62.972,30.611c-10.918,13.882-28.377,21.114-45.913,19.018
		c-23.547-2.814-48.103,4.812-66.173,22.882s-25.696,42.626-22.882,66.173c2.096,17.536-5.136,34.995-19.018,45.913
		c-18.64,14.66-30.611,37.417-30.611,62.972s11.971,48.312,30.611,62.972c13.882,10.918,21.114,28.377,19.018,45.913
		c-2.814,23.547,4.812,48.103,22.882,66.173s42.626,25.696,66.173,22.882c17.536-2.096,34.995,5.136,45.913,19.018
		c14.66,18.64,37.417,30.611,62.972,30.611s48.312-11.971,62.972-30.611c10.918-13.882,28.377-21.114,45.913-19.018
		c23.547,2.814,48.103-4.812,66.173-22.882c18.07-18.07,25.696-42.626,22.882-66.173c-2.096-17.536,5.136-34.995,19.018-45.913
		C489.581,295.881,501.552,273.124,501.552,247.569z M380.321,274.993c4.157,16.578-2.95,33.736-17.612,42.52
		c-7.763,4.65-15.085,10.318-21.775,17.008s-12.358,14.012-17.008,21.775c-8.784,14.662-25.941,21.769-42.52,17.612
		c-8.777-2.201-17.963-3.371-27.424-3.371c-9.46,0-18.646,1.17-27.423,3.371c-16.578,4.157-33.736-2.95-42.52-17.612
		c-4.65-7.763-10.318-15.085-17.008-21.775s-14.012-12.358-21.775-17.008c-14.662-8.784-21.769-25.941-17.612-42.52
		c2.201-8.777,3.371-17.963,3.371-27.424c0-9.461-1.17-18.646-3.371-27.424c-4.157-16.578,2.95-33.736,17.612-42.52
		c7.762-4.65,15.085-10.318,21.775-17.008c6.69-6.69,12.358-14.012,17.008-21.775c8.784-14.662,25.941-21.769,42.52-17.612
		c8.777,2.201,17.963,3.371,27.423,3.371c9.461,0,18.646-1.17,27.424-3.371c16.578-4.157,33.736,2.95,42.52,17.612
		c4.65,7.762,10.318,15.085,17.008,21.775c6.69,6.69,14.012,12.358,21.775,17.008c14.662,8.784,21.769,25.941,17.612,42.52
		c-2.201,8.777-3.371,17.963-3.371,27.424C376.95,257.03,378.12,266.216,380.321,274.993z"/>
	<path style="fill:#61C6AD;" d="M120.336,369.72c-10.467-10.467-26.895-17.49-41.194-17.49c-18.213,0-34.138,10.937-42.798,18.302
		c-4.053,3.447-4.053,9.666,0,13.113c4.408,3.749,10.704,8.417,18.22,12.103c-7.821,13.777-10.438,29.339-11.274,39.68
		c-0.262,3.243,0.951,6.208,3.041,8.298c2.089,2.09,5.055,3.303,8.298,3.041c10.342-0.835,25.903-3.453,39.68-11.274
		c3.686,7.516,8.354,13.812,12.103,18.22c3.447,4.053,9.666,4.053,13.113,0c7.365-8.659,18.302-24.585,18.302-42.798
		C137.827,396.616,130.803,380.187,120.336,369.72z"/>
</g>
<g style="opacity:0.15;">
	<path d="M120.336,369.72c-10.467-10.467-26.895-17.49-41.194-17.49c-18.213,0-34.138,10.937-42.798,18.302
		c-4.053,3.447-4.053,9.666,0,13.113c4.408,3.749,10.704,8.417,18.22,12.103c-7.821,13.777-10.438,29.339-11.274,39.68
		c-0.262,3.243,0.951,6.208,3.041,8.298c2.089,2.09,5.055,3.303,8.298,3.041c10.342-0.835,25.903-3.453,39.68-11.274
		c3.686,7.516,8.354,13.812,12.103,18.22c3.447,4.053,9.666,4.053,13.113,0c7.365-8.659,18.302-24.585,18.302-42.798
		C137.827,396.616,130.803,380.187,120.336,369.72z"/>
</g>
<g style="opacity:0.1;">
	<path d="M74.329,423.228c-1.919,0-3.839-0.732-5.303-2.197c-2.929-2.929-2.929-7.678,0-10.606l32.792-32.792
		c2.929-2.929,7.678-2.929,10.606,0c2.929,2.929,2.929,7.678,0,10.606L79.632,421.03C78.168,422.496,76.249,423.228,74.329,423.228z
		"/>
	<path d="M110.938,429.614c-3.814,0-7.077-2.897-7.456-6.772l-3.826-39.177c-0.403-4.122,2.613-7.791,6.735-8.193
		c4.122-0.407,7.791,2.613,8.193,6.735l3.826,39.177c0.403,4.122-2.613,7.791-6.735,8.193
		C111.428,429.602,111.181,429.614,110.938,429.614z"/>
	<path d="M107.129,390.437c-0.244,0-0.49-0.012-0.738-0.036l-39.177-3.826c-4.123-0.402-7.138-4.071-6.735-8.193
		c0.402-4.122,4.058-7.147,8.193-6.735l39.177,3.826c4.123,0.402,7.138,4.071,6.735,8.193
		C114.207,387.54,110.943,390.437,107.129,390.437z"/>
</g>
<path style="fill:#61C6AD;" d="M93.51,205.026c10.467-10.467,17.49-26.895,17.49-41.194c0-18.213-10.937-34.138-18.302-42.798
	c-3.447-4.053-9.666-4.053-13.113,0c-3.749,4.407-8.417,10.704-12.103,18.22c-13.777-7.821-29.339-10.438-39.68-11.274
	c-3.243-0.262-6.208,0.951-8.298,3.041s-3.303,5.055-3.041,8.298c0.836,10.342,3.453,25.903,11.274,39.68
	c-7.516,3.686-13.812,8.354-18.22,12.103c-4.053,3.447-4.053,9.666,0,13.113c8.659,7.365,24.585,18.302,42.798,18.302
	C66.615,222.516,83.044,215.492,93.51,205.026z"/>
<g style="opacity:0.15;">
	<path d="M93.51,205.026c10.467-10.467,17.49-26.895,17.49-41.194c0-18.213-10.937-34.138-18.302-42.798
		c-3.447-4.053-9.666-4.053-13.113,0c-3.749,4.407-8.417,10.704-12.103,18.22c-13.777-7.821-29.339-10.438-39.68-11.274
		c-3.243-0.262-6.208,0.951-8.298,3.041s-3.303,5.055-3.041,8.298c0.836,10.342,3.453,25.903,11.274,39.68
		c-7.516,3.686-13.812,8.354-18.22,12.103c-4.053,3.447-4.053,9.666,0,13.113c8.659,7.365,24.585,18.302,42.798,18.302
		C66.615,222.516,83.044,215.492,93.51,205.026z"/>
</g>
<g style="opacity:0.1;">
	<path d="M80.294,199.31c-1.919,0-3.839-0.732-5.303-2.197l-32.792-32.792c-2.929-2.929-2.929-7.678,0-10.606
		c2.929-2.929,7.678-2.929,10.607,0l32.792,32.791c2.929,2.929,2.929,7.678,0,10.607C84.133,198.577,82.213,199.31,80.294,199.31z"
		/>
	<path d="M41.108,203.136c-3.814,0-7.077-2.896-7.456-6.771c-0.403-4.123,2.613-7.791,6.735-8.193l39.177-3.826
		c4.119-0.409,7.791,2.612,8.193,6.735c0.403,4.122-2.613,7.791-6.735,8.193L41.846,203.1
		C41.599,203.124,41.352,203.136,41.108,203.136z"/>
	<path d="M80.303,199.31c-0.244,0-0.49-0.012-0.738-0.036c-4.122-0.402-7.138-4.071-6.735-8.193l3.826-39.176
		c0.402-4.122,4.063-7.148,8.193-6.735c4.123,0.402,7.138,4.071,6.735,8.193l-3.826,39.176
		C87.38,196.413,84.117,199.31,80.303,199.31z"/>
</g>
<path style="fill:#61C6AD;" d="M410.195,338.123c13.081-6.927,24.623-20.565,28.827-34.233c5.354-17.408-0.418-35.845-4.912-46.287
	c-2.103-4.887-8.047-6.715-12.533-3.855c-4.878,3.111-11.191,7.757-16.924,13.857c-10.869-11.525-24.974-18.602-34.613-22.44
	c-3.022-1.204-6.214-0.916-8.825,0.467c-2.611,1.383-4.643,3.861-5.346,7.037c-2.242,10.13-4.314,25.774-0.889,41.241
	c-8.267,1.314-15.658,3.925-20.972,6.212c-4.887,2.103-6.715,8.047-3.855,12.533c6.112,9.585,18.119,24.72,35.527,30.074
	C379.346,346.934,397.114,345.051,410.195,338.123z"/>
<g style="opacity:0.15;">
	<path d="M410.195,338.123c13.081-6.927,24.623-20.565,28.827-34.233c5.354-17.408-0.418-35.845-4.912-46.287
		c-2.103-4.887-8.047-6.715-12.533-3.855c-4.878,3.111-11.191,7.757-16.924,13.857c-10.869-11.525-24.974-18.602-34.613-22.44
		c-3.022-1.204-6.214-0.916-8.825,0.467c-2.611,1.383-4.643,3.861-5.346,7.037c-2.242,10.13-4.314,25.774-0.889,41.241
		c-8.267,1.314-15.658,3.925-20.972,6.212c-4.887,2.103-6.715,8.047-3.855,12.533c6.112,9.585,18.119,24.72,35.527,30.074
		C379.346,346.934,397.114,345.051,410.195,338.123z"/>
</g>
<g style="opacity:0.1;">
	<path d="M401.454,329.107c-2.689,0-5.288-1.45-6.634-3.991l-21.703-40.982c-1.939-3.661-0.543-8.2,3.118-10.138
		s8.2-0.542,10.138,3.118l21.703,40.982c1.939,3.66,0.543,8.199-3.118,10.138C403.838,328.827,402.637,329.107,401.454,329.107z"/>
	<path d="M401.455,329.107c-0.497,0-1-0.049-1.505-0.152l-38.57-7.859c-4.059-0.827-6.678-4.788-5.852-8.847
		c0.827-4.059,4.789-6.677,8.847-5.852l38.57,7.859c4.059,0.827,6.679,4.788,5.852,8.847
		C408.072,326.657,404.946,329.107,401.455,329.107z"/>
	<path d="M401.444,329.108c-0.964,0-1.943-0.187-2.888-0.582c-3.822-1.597-5.626-5.989-4.029-9.812l15.173-36.321
		c1.597-3.822,5.989-5.625,9.811-4.029c3.822,1.597,5.626,5.989,4.029,9.812l-15.173,36.321
		C407.165,327.374,404.379,329.108,401.444,329.108z"/>
</g>
<path style="fill:#61C6AD;" d="M255.865,435.694c18.738-4.721,37.609-18.429,47.183-34.454c12.195-20.41,10.602-45.581,8.147-60.216
	c-1.149-6.85-8.118-11.014-14.695-8.78c-7.152,2.429-16.599,6.36-25.763,12.314c-10.202-17.989-25.889-31.342-36.919-39.203
	c-3.458-2.465-7.594-3.091-11.335-2.148c-3.741,0.942-7.086,3.453-8.964,7.263c-5.988,12.149-13.475,31.341-13.935,52.017
	c-10.891-0.901-21.073,0.114-28.522,1.364c-6.85,1.149-11.014,8.118-8.78,14.695c4.773,14.052,15.297,36.972,35.707,49.167
	C214.014,437.285,237.128,440.415,255.865,435.694z"/>
<g style="opacity:0.15;">
	<path d="M255.865,435.694c18.738-4.721,37.609-18.429,47.183-34.454c12.195-20.41,10.602-45.581,8.147-60.216
		c-1.149-6.85-8.118-11.014-14.695-8.78c-7.152,2.429-16.599,6.36-25.763,12.314c-10.202-17.989-25.889-31.342-36.919-39.203
		c-3.458-2.465-7.594-3.091-11.335-2.148c-3.741,0.942-7.086,3.453-8.964,7.263c-5.988,12.149-13.475,31.341-13.935,52.017
		c-10.891-0.901-21.073,0.114-28.522,1.364c-6.85,1.149-11.014,8.118-8.78,14.695c4.773,14.052,15.297,36.972,35.707,49.167
		C214.014,437.285,237.128,440.415,255.865,435.694z"/>
</g>
<g style="opacity:0.1;">
	<path d="M249.898,419.536c-3.355,0-6.41-2.268-7.267-5.669l-14.792-58.704c-1.012-4.017,1.423-8.093,5.44-9.105
		c4.017-1.014,8.093,1.423,9.105,5.44l14.792,58.704c1.012,4.017-1.423,8.093-5.44,9.105
		C251.122,419.461,250.505,419.536,249.898,419.536z"/>
	<path d="M249.899,419.536c-1.074,0-2.163-0.231-3.198-0.72l-46.465-21.944c-3.746-1.769-5.348-6.239-3.579-9.984
		c1.77-3.746,6.241-5.347,9.984-3.579l46.465,21.944c3.746,1.769,5.348,6.239,3.579,9.984
		C255.405,417.947,252.71,419.536,249.899,419.536z"/>
	<path d="M249.898,419.534c-1.547,0-3.108-0.477-4.449-1.466c-3.332-2.461-4.04-7.156-1.58-10.489l30.52-41.341
		c2.459-3.332,7.155-4.04,10.488-1.579c3.332,2.46,4.04,7.156,1.58,10.488l-30.519,41.341
		C254.467,418.48,252.197,419.534,249.898,419.534z"/>
</g>
<path style="fill:#61C6AD;" d="M381.632,120.03c11.505,11.505,29.563,19.225,45.281,19.225c20.019,0,37.525-12.022,47.043-20.117
	c4.455-3.789,4.455-10.624,0-14.413c-4.845-4.12-11.766-9.252-20.027-13.304c8.596-15.143,11.474-32.249,12.392-43.616
	c0.288-3.564-1.046-6.824-3.343-9.121c-2.297-2.297-5.556-3.631-9.121-3.343c-11.368,0.918-28.473,3.796-43.616,12.392
	c-4.052-8.261-9.183-15.182-13.303-20.027c-3.789-4.455-10.624-4.455-14.413,0c-8.095,9.518-20.117,27.023-20.117,47.043
	C362.407,90.466,370.127,108.525,381.632,120.03z"/>
<g style="opacity:0.15;">
	<path d="M381.632,120.03c11.505,11.505,29.563,19.225,45.281,19.225c20.019,0,37.525-12.022,47.043-20.117
		c4.455-3.789,4.455-10.624,0-14.413c-4.845-4.12-11.766-9.252-20.027-13.304c8.596-15.143,11.474-32.249,12.392-43.616
		c0.288-3.564-1.046-6.824-3.343-9.121c-2.297-2.297-5.556-3.631-9.121-3.343c-11.368,0.918-28.473,3.796-43.616,12.392
		c-4.052-8.261-9.183-15.182-13.303-20.027c-3.789-4.455-10.624-4.455-14.413,0c-8.095,9.518-20.117,27.023-20.117,47.043
		C362.407,90.466,370.127,108.525,381.632,120.03z"/>
</g>
<g style="opacity:0.1;">
	<path d="M396.159,113.002c-1.919,0-3.839-0.732-5.303-2.197c-2.929-2.929-2.929-7.678,0-10.606L426.9,64.155
		c2.929-2.929,7.678-2.929,10.607,0s2.929,7.678,0,10.606l-36.044,36.044C399.998,112.27,398.078,113.002,396.159,113.002z"/>
	<path d="M396.15,113.003c-3.815,0-7.077-2.896-7.456-6.771l-4.205-43.062c-0.403-4.123,2.613-7.791,6.735-8.193
		c4.12-0.411,7.79,2.613,8.193,6.735l4.205,43.062c0.403,4.123-2.613,7.791-6.735,8.193
		C396.64,112.991,396.394,113.003,396.15,113.003z"/>
	<path d="M439.23,117.208c-0.244,0-0.49-0.012-0.738-0.036l-43.063-4.205c-4.123-0.402-7.138-4.071-6.735-8.193
		s4.063-7.147,8.193-6.735l43.063,4.205c4.123,0.402,7.138,4.071,6.735,8.193C446.307,114.311,443.044,117.208,439.23,117.208z"/>
</g>
<path style="fill:#61C6AD;" d="M193.589,446.342c15.404-15.404,37.79-20.135,52.147-21.533c7.708-0.75,14.202,5.743,13.451,13.451
	c-1.398,14.357-6.128,36.743-21.533,52.147c-15.404,15.404-37.79,20.135-52.147,21.533c-7.708,0.75-14.202-5.744-13.451-13.451
	C173.454,484.132,178.185,461.747,193.589,446.342z"/>
<path style="opacity:0.15;enable-background:new    ;" d="M193.589,446.342c15.404-15.404,37.79-20.135,52.147-21.533
	c7.708-0.75,14.202,5.743,13.451,13.451c-1.398,14.357-6.128,36.743-21.533,52.147c-15.404,15.404-37.79,20.135-52.147,21.533
	c-7.708,0.75-14.202-5.744-13.451-13.451C173.454,484.132,178.185,461.747,193.589,446.342z"/>
<path style="opacity:0.1;enable-background:new    ;" d="M204.775,486.722c-1.919,0-3.839-0.732-5.303-2.197
	c-2.929-2.929-2.929-7.678,0-10.606l21.693-21.693c2.929-2.929,7.678-2.929,10.606,0c2.929,2.929,2.929,7.678,0,10.606
	l-21.693,21.693C208.614,485.989,206.695,486.722,204.775,486.722z"/>
<path style="fill:#61C6AD;" d="M314.376,446.342c-15.404-15.404-37.79-20.135-52.147-21.533c-7.708-0.75-14.202,5.743-13.451,13.451
	c1.398,14.357,6.129,36.743,21.533,52.147s37.79,20.135,52.147,21.533c7.708,0.75,14.202-5.744,13.451-13.451
	C334.511,484.132,329.78,461.747,314.376,446.342z"/>
<path style="opacity:0.15;enable-background:new    ;" d="M314.376,446.342c-15.404-15.404-37.79-20.135-52.147-21.533
	c-7.708-0.75-14.202,5.743-13.451,13.451c1.398,14.357,6.129,36.743,21.533,52.147s37.79,20.135,52.147,21.533
	c7.708,0.75,14.202-5.744,13.451-13.451C334.511,484.132,329.78,461.747,314.376,446.342z"/>
<path style="opacity:0.1;enable-background:new    ;" d="M303.189,486.722c-1.919,0-3.839-0.732-5.303-2.197l-21.693-21.693
	c-2.929-2.929-2.929-7.678,0-10.606c2.929-2.929,7.678-2.929,10.606,0l21.693,21.693c2.929,2.929,2.929,7.678,0,10.606
	C307.028,485.989,305.109,486.722,303.189,486.722z"/>
<path style="fill:#61C6AD;" d="M177.42,45.957c-15.404-15.404-37.79-20.135-52.147-21.533c-7.708-0.75-14.202,5.743-13.451,13.451
	c1.398,14.357,6.129,36.743,21.533,52.147s37.79,20.135,52.147,21.533c7.708,0.75,14.202-5.743,13.451-13.451
	C197.555,83.746,192.824,61.361,177.42,45.957z"/>
<path style="opacity:0.15;enable-background:new    ;" d="M177.42,45.957c-15.404-15.404-37.79-20.135-52.147-21.533
	c-7.708-0.75-14.202,5.743-13.451,13.451c1.398,14.357,6.129,36.743,21.533,52.147s37.79,20.135,52.147,21.533
	c7.708,0.75,14.202-5.743,13.451-13.451C197.555,83.746,192.824,61.361,177.42,45.957z"/>
<path style="opacity:0.1;enable-background:new    ;" d="M166.233,86.335c-1.919,0-3.839-0.732-5.303-2.197l-21.692-21.692
	c-2.929-2.929-2.929-7.678,0-10.606c2.929-2.929,7.678-2.929,10.606,0l21.692,21.692c2.929,2.929,2.929,7.678,0,10.606
	C170.072,85.603,168.153,86.335,166.233,86.335z"/>
<path style="fill:#61C6AD;" d="M448.328,392.073c-15.404-15.404-37.79-20.135-52.147-21.533c-7.708-0.75-14.202,5.743-13.451,13.451
	c1.398,14.357,6.128,36.743,21.533,52.147c15.404,15.404,37.79,20.135,52.147,21.533c7.708,0.75,14.202-5.743,13.451-13.451
	C468.463,429.863,463.732,407.477,448.328,392.073z"/>
<path style="opacity:0.15;enable-background:new    ;" d="M448.328,392.073c-15.404-15.404-37.79-20.135-52.147-21.533
	c-7.708-0.75-14.202,5.743-13.451,13.451c1.398,14.357,6.128,36.743,21.533,52.147c15.404,15.404,37.79,20.135,52.147,21.533
	c7.708,0.75,14.202-5.743,13.451-13.451C468.463,429.863,463.732,407.477,448.328,392.073z"/>
<path style="opacity:0.1;enable-background:new    ;" d="M437.142,432.452c-1.919,0-3.839-0.732-5.303-2.197l-21.692-21.693
	c-2.929-2.929-2.929-7.678,0-10.606c2.929-2.929,7.678-2.929,10.606,0l21.692,21.693c2.929,2.929,2.929,7.678,0,10.607
	C440.98,431.72,439.06,432.452,437.142,432.452z"/>
<path style="fill:#61C6AD;" d="M449.471,166.966c-21.425,3.945-38.021,19.695-47.318,30.724c-4.991,5.921-3.328,14.953,3.445,18.708
	c12.616,6.995,33.734,15.8,55.158,11.855c21.425-3.945,38.021-19.695,47.318-30.724c4.991-5.921,3.328-14.953-3.445-18.708
	C492.013,171.826,470.896,163.021,449.471,166.966z"/>
<path style="opacity:0.15;enable-background:new    ;" d="M449.471,166.966c-21.425,3.945-38.021,19.695-47.318,30.724
	c-4.991,5.921-3.328,14.953,3.445,18.708c12.616,6.995,33.734,15.8,55.158,11.855c21.425-3.945,38.021-19.695,47.318-30.724
	c4.991-5.921,3.328-14.953-3.445-18.708C492.013,171.826,470.896,163.021,449.471,166.966z"/>
<path style="opacity:0.1;enable-background:new    ;" d="M440.02,207.889c-3.548,0-6.702-2.529-7.368-6.144
	c-0.75-4.073,1.944-7.984,6.018-8.734l30.171-5.555c4.073-0.748,7.984,1.944,8.734,6.018c0.75,4.073-1.944,7.984-6.018,8.734
	l-30.171,5.555C440.927,207.848,440.47,207.889,440.02,207.889z"/>
<path style="fill:#61C6AD;" d="M44.529,251.423c-20.51,7.343-34.354,25.559-41.754,37.942c-3.972,6.648-0.877,15.294,6.412,17.91
	c13.577,4.872,35.837,10.162,56.347,2.819s34.354-25.559,41.754-37.942c3.972-6.648,0.877-15.294-6.412-17.91
	C87.299,249.37,65.039,244.08,44.529,251.423z"/>
<path style="opacity:0.15;enable-background:new    ;" d="M44.529,251.423c-20.51,7.343-34.354,25.559-41.754,37.942
	c-3.972,6.648-0.877,15.294,6.412,17.91c13.577,4.872,35.837,10.162,56.347,2.819s34.354-25.559,41.754-37.942
	c3.972-6.648,0.877-15.294-6.412-17.91C87.299,249.37,65.039,244.08,44.529,251.423z"/>
<path style="opacity:0.1;enable-background:new    ;" d="M40.591,293.431c-3.079,0-5.964-1.909-7.062-4.974
	c-1.396-3.899,0.633-8.193,4.533-9.589l28.883-10.341c3.898-1.4,8.192,0.633,9.589,4.533c1.396,3.899-0.633,8.193-4.533,9.589
	L43.119,292.99C42.284,293.289,41.43,293.431,40.591,293.431z"/>
<path style="fill:#61C6AD;" d="M264.553,91.056c-11.57,18.458-11.177,41.335-9.329,55.641c0.992,7.68,8.773,12.558,16.118,10.104
	c13.682-4.572,34.443-14.188,46.013-32.646s11.177-41.335,9.329-55.641c-0.992-7.68-8.773-12.558-16.118-10.104
	C296.885,62.982,276.123,72.597,264.553,91.056z"/>
<path style="opacity:0.15;enable-background:new    ;" d="M264.553,91.056c-11.57,18.458-11.177,41.335-9.329,55.641
	c0.992,7.68,8.773,12.558,16.118,10.104c13.682-4.572,34.443-14.188,46.013-32.646s11.177-41.335,9.329-55.641
	c-0.992-7.68-8.773-12.558-16.118-10.104C296.885,62.982,276.123,72.597,264.553,91.056z"/>
<path style="opacity:0.1;enable-background:new    ;" d="M282.8,128.103c-1.361,0-2.738-0.37-3.976-1.146
	c-3.51-2.2-4.571-6.829-2.372-10.338l16.294-25.993c2.201-3.509,6.829-4.57,10.338-2.372c3.51,2.2,4.571,6.829,2.371,10.338
	l-16.294,25.993C287.738,126.856,285.297,128.103,282.8,128.103z"/>
<circle style="fill:#E86478;" cx="289.01" cy="430.75" r="36.971"/>
<circle style="opacity:0.1;enable-background:new    ;" cx="289.01" cy="430.75" r="36.971"/>
<path style="opacity:0.1;enable-background:new    ;" d="M297.786,458.205c-20.419,0-36.971-16.553-36.971-36.971
	c0-7.333,2.144-14.162,5.826-19.91c-8.869,6.754-14.597,17.419-14.597,29.427c0,20.419,16.553,36.971,36.971,36.971
	c13.085,0,24.574-6.804,31.145-17.061C313.948,455.391,306.197,458.205,297.786,458.205z"/>
<circle style="fill:#E86478;" cx="218.95" cy="430.75" r="36.971"/>
<circle style="opacity:0.1;enable-background:new    ;" cx="218.95" cy="430.75" r="36.971"/>
<path style="opacity:0.1;enable-background:new    ;" d="M227.72,458.205c-20.419,0-36.971-16.553-36.971-36.971
	c0-7.333,2.144-14.162,5.826-19.91c-8.868,6.754-14.597,17.419-14.597,29.427c0,20.419,16.553,36.971,36.971,36.971
	c13.085,0,24.574-6.804,31.145-17.061C243.882,455.391,236.131,458.205,227.72,458.205z"/>
<circle style="fill:#E86478;" cx="253.98" cy="463.95" r="36.971"/>
<path style="opacity:0.1;enable-background:new    ;" d="M262.753,491.404c-20.419,0-36.971-16.553-36.971-36.971
	c0-7.333,2.144-14.162,5.826-19.91c-8.869,6.754-14.597,17.419-14.597,29.427c0,20.419,16.552,36.971,36.971,36.971
	c13.085,0,24.574-6.804,31.145-17.061C278.915,488.59,271.164,491.404,262.753,491.404z"/>
<g>
</g>
<g>
</g>
<g>
</g>
<g>
</g>
<g>
</g>
<g>
</g>
<g>
</g>
<g>
</g>
<g>
</g>
<g>
</g>
<g>
</g>
<g>
</g>
<g>
</g>
<g>
</g>
<g>
</g>
</svg>
