<?xml version="1.0" encoding="iso-8859-1"?>
<!-- Generator: Adobe Illustrator 19.0.0, SVG Export Plug-In . SVG Version: 6.00 Build 0)  -->
<svg version="1.1" id="Capa_1" xmlns="http://www.w3.org/2000/svg" xmlns:xlink="http://www.w3.org/1999/xlink" x="0px" y="0px"
	 viewBox="0 0 512 512" style="enable-background:new 0 0 512 512;" xml:space="preserve">
<circle style="fill:#92D2E7;" cx="256.002" cy="227.23" r="227.23"/>
<g>
	<path style="fill:#FFFFFF;" d="M440.598,189.31c-3.374,0-6.439-2.292-7.278-5.716c-3.159-12.882-7.753-25.447-13.652-37.347
		c-1.84-3.711-0.323-8.211,3.388-10.051c3.711-1.841,8.21-0.323,10.051,3.388c6.388,12.883,11.361,26.488,14.782,40.438
		c0.986,4.023-1.475,8.084-5.498,9.07C441.791,189.239,441.19,189.31,440.598,189.31z"/>
	<path style="fill:#FFFFFF;" d="M409.709,122.905c-2.316,0-4.599-1.068-6.067-3.083c-15.68-21.514-36.262-39.675-59.52-52.518
		c-3.626-2.002-4.942-6.565-2.94-10.191c2.002-3.626,6.564-4.944,10.191-2.94c25.163,13.895,47.429,33.541,64.391,56.814
		c2.44,3.347,1.704,8.039-1.643,10.479C412.787,122.438,411.241,122.905,409.709,122.905z"/>
</g>
<path style="fill:#61C6AD;" d="M207.175,355.649c0-27.788-22.527-50.314-50.314-50.314c-27.788,0-50.315,22.527-50.315,50.314
	H207.175z"/>
<path style="opacity:0.15;enable-background:new    ;" d="M207.175,355.649c0-27.788-22.527-50.314-50.314-50.314
	c-27.788,0-50.315,22.527-50.315,50.314H207.175z"/>
<path style="fill:#EEEDED;" d="M156.86,305.334c-15.496,0-29.351,7.01-38.58,18.027c9.415,5.683,23.204,9.274,38.58,9.274
	s29.165-3.591,38.58-9.274C186.21,312.345,172.356,305.334,156.86,305.334z"/>
<polygon style="fill:#AA715F;" points="336.591,242.124 256.002,205.16 175.413,242.124 175.413,355.649 336.591,355.649 "/>
<path style="opacity:0.1;enable-background:new    ;" d="M256.002,205.16l-80.589,36.964v22.265l74.794-34.306
	c3.679-1.687,7.911-1.687,11.59,0l74.794,34.306v-22.265L256.002,205.16z"/>
<path style="opacity:0.1;enable-background:new    ;" d="M284.988,241.293h-42.357c-4.142,0-7.5,3.358-7.5,7.5s3.358,7.5,7.5,7.5
	h42.357c4.142,0,7.5-3.358,7.5-7.5C292.488,244.65,289.13,241.293,284.988,241.293z M207.174,284.744h-31.761v15h31.761
	c4.142,0,7.5-3.358,7.5-7.5S211.316,284.744,207.174,284.744z M310.251,316.446c-4.142,0-7.5,3.358-7.5,7.5s3.358,7.5,7.5,7.5h26.34
	v-15H310.251z"/>
<path style="fill:#AA715F;" d="M336.591,227.234h-38.724v-55.215c0-4.843,3.926-8.77,8.77-8.77h21.184c4.843,0,8.77,3.926,8.77,8.77
	L336.591,227.234L336.591,227.234z"/>
<path style="fill:#EEEDED;" d="M157.704,226.708l86.942-39.878c7.209-3.307,15.502-3.307,22.711,0l86.942,39.878
	c3.818,1.751,6.266,5.567,6.266,9.767v16.709c0,4.361-4.515,7.258-8.48,5.44l-90.289-41.413c-3.679-1.688-7.911-1.688-11.59,0
	l-90.289,41.413c-3.964,1.818-8.48-1.078-8.48-5.44v-16.709C151.438,232.275,153.886,228.46,157.704,226.708z"/>
<path style="opacity:0.15;enable-background:new    ;" d="M269.202,292.244h-26.4c-5.028,0-9.104,4.076-9.104,9.104v54.301h44.607
	v-54.301C278.306,296.32,274.23,292.244,269.202,292.244z"/>
<g>
	<circle style="fill:#EEEDED;" cx="95.152" cy="196.86" r="14.09"/>
	<circle style="fill:#EEEDED;" cx="146.022" cy="93.14" r="14.872"/>
	<circle style="fill:#EEEDED;" cx="222.622" cy="138" r="14.872"/>
	<circle style="fill:#EEEDED;" cx="297.872" cy="88.07" r="14.872"/>
	<circle style="fill:#EEEDED;" cx="409.622" cy="236.63" r="14.872"/>
	<path style="fill:#EEEDED;" d="M68.523,355.649c40.951,59.672,109.639,98.82,187.479,98.82s146.528-39.147,187.479-98.82H68.523z"
		/>
</g>
<path style="fill:#61C6AD;" d="M410.88,355.649c0-27.788-22.527-50.314-50.315-50.314s-50.314,22.527-50.314,50.314H410.88z"/>
<path style="opacity:0.15;enable-background:new    ;" d="M410.88,355.649c0-27.788-22.527-50.314-50.315-50.314
	s-50.314,22.527-50.314,50.314H410.88z"/>
<path style="fill:#EEEDED;" d="M360.566,305.334c-15.496,0-29.35,7.01-38.58,18.027c9.415,5.683,23.204,9.274,38.58,9.274
	s29.165-3.591,38.58-9.274C389.916,312.345,376.062,305.334,360.566,305.334z"/>
<path style="opacity:0.1;enable-background:new    ;" d="M284.692,422.256c-125.498,0-227.234-101.736-227.234-227.234
	c0-50.239,16.316-96.66,43.92-134.281c-44.658,41.494-72.61,100.724-72.61,166.492c0,125.498,101.736,227.234,227.234,227.234
	c75.259,0,141.961-36.596,183.314-92.954C398.758,399.199,344.421,422.256,284.692,422.256z"/>
<path style="fill:#485458;" d="M405.738,418.462H106.266c-21.239,0-39.469,15.122-43.392,35.996l-7.194,38.274
	C53.798,502.743,61.477,512,71.663,512h368.678c10.186,0,17.865-9.257,15.983-19.268l-7.194-38.274
	C445.207,433.584,426.977,418.462,405.738,418.462z"/>
<path style="opacity:0.1;enable-background:new    ;" d="M102.627,454.458c3.923-20.874,22.153-35.996,43.392-35.996h-39.753
	c-21.239,0-39.469,15.122-43.392,35.996l-7.194,38.274C53.798,502.743,61.477,512,71.663,512h39.753
	c-10.186,0-17.865-9.257-15.983-19.268L102.627,454.458z"/>
<path style="fill:#F8CA4F;" d="M313.207,443.657h-114.41c-4.745,0-8.591,3.846-8.591,8.591v25.965c0,4.745,3.846,8.591,8.591,8.591
	h114.41c4.745,0,8.591-3.846,8.591-8.591v-25.965C321.798,447.504,317.951,443.657,313.207,443.657z"/>
<path style="opacity:0.15;enable-background:new    ;" d="M280.071,472.731h-48.139c-4.142,0-7.5-3.358-7.5-7.5s3.358-7.5,7.5-7.5
	h48.139c4.142,0,7.5,3.358,7.5,7.5S284.213,472.731,280.071,472.731z"/>
<g>
</g>
<g>
</g>
<g>
</g>
<g>
</g>
<g>
</g>
<g>
</g>
<g>
</g>
<g>
</g>
<g>
</g>
<g>
</g>
<g>
</g>
<g>
</g>
<g>
</g>
<g>
</g>
<g>
</g>
</svg>
