<?xml version="1.0" encoding="iso-8859-1"?>
<!-- Generator: Adobe Illustrator 19.0.0, SVG Export Plug-In . SVG Version: 6.00 Build 0)  -->
<svg version="1.1" id="Capa_1" xmlns="http://www.w3.org/2000/svg" xmlns:xlink="http://www.w3.org/1999/xlink" x="0px" y="0px"
	 viewBox="0 0 512.001 512.001" style="enable-background:new 0 0 512.001 512.001;" xml:space="preserve">
<path style="fill:#E86478;" d="M384.642,10.658L384.642,10.658c17.256-7.993,37.516,1.764,42.026,20.238l0,0
	c2.104,8.618,7.891,15.876,15.826,19.845l0,0c17.008,8.508,22.012,30.43,10.379,45.475l0,0c-5.426,7.018-7.492,16.068-5.648,24.746
	l0,0c3.953,18.602-10.068,36.182-29.083,36.468l0,0c-8.871,0.133-17.234,4.161-22.868,11.013l0,0
	c-12.079,14.688-34.566,14.688-46.645,0l0,0c-5.635-6.852-13.998-10.88-22.868-11.013l0,0
	c-19.015-0.286-33.035-17.866-29.083-36.468l0,0c1.844-8.678-0.222-17.727-5.648-24.746l0,0
	c-11.632-15.045-6.629-36.967,10.379-45.475l0,0c7.934-3.969,13.721-11.226,15.825-19.845l0,0
	c4.51-18.475,24.77-28.231,42.026-20.238l0,0C367.31,14.387,376.592,14.387,384.642,10.658z"/>
<path style="opacity:0.1;enable-background:new    ;" d="M304.04,49.249c-0.849,0.537-1.724,1.039-2.631,1.493
	c-17.008,8.508-22.012,30.43-10.379,45.475l0,0c5.427,7.018,7.492,16.068,5.648,24.746l0,0
	c-3.953,18.602,10.067,36.182,29.083,36.468c8.87,0.133,17.234,4.161,22.868,11.013l0,0c12.079,14.688,34.565,14.688,46.645,0l0,0
	c5.635-6.852,13.998-10.88,22.868-11.013c11.407-0.172,21.01-6.57,26.02-15.676C413.576,93.226,363.029,58.547,304.04,49.249z"/>
<path style="fill:#EEEDED;" d="M471.926,504.154H40.074C17.942,504.154,0,486.213,0,464.081V419.16
	c0-22.132,17.942-40.074,40.074-40.074h431.853c22.132,0,40.074,17.942,40.074,40.074v44.921
	C512,486.213,494.058,504.154,471.926,504.154z"/>
<g style="opacity:0.1;">
	<path d="M48.562,432.931c-1.92,0-3.839-0.732-5.304-2.197c-2.929-2.929-2.929-7.678,0.001-10.607l10.868-10.868
		c2.928-2.929,7.677-2.929,10.606,0s2.929,7.678-0.001,10.606l-10.868,10.868C52.4,432.199,50.48,432.931,48.562,432.931z"/>
	<path d="M90.907,472.988c-1.919,0-3.839-0.732-5.304-2.197L71.45,456.638c-2.929-2.929-2.929-7.678,0-10.606
		c2.93-2.929,7.678-2.929,10.607,0l14.153,14.153c2.929,2.929,2.929,7.678,0,10.606C94.746,472.256,92.826,472.988,90.907,472.988z"
		/>
	<path d="M143.752,433.091c-1.92,0-3.839-0.732-5.303-2.196c-2.93-2.929-2.93-7.678-0.001-10.607l12.729-12.729
		c2.931-2.93,7.68-2.928,10.606,0c2.93,2.929,2.93,7.678,0.001,10.607l-12.729,12.73
		C147.591,432.359,145.671,433.091,143.752,433.091z"/>
	<path d="M441.848,485.288c-1.919,0-3.839-0.732-5.304-2.197c-2.929-2.929-2.929-7.678,0-10.606l12.729-12.729
		c2.93-2.929,7.678-2.929,10.607,0s2.929,7.678,0,10.606l-12.729,12.73C445.686,484.556,443.767,485.288,441.848,485.288z"/>
	<path d="M218.233,469.835c-1.919,0-3.839-0.732-5.304-2.197l-13.068-13.068c-2.929-2.929-2.929-7.678,0-10.606
		c2.93-2.929,7.678-2.929,10.607,0l13.068,13.068c2.929,2.929,2.929,7.678,0,10.607
		C222.072,469.102,220.152,469.835,218.233,469.835z"/>
	<path d="M344.011,469.835c-1.919,0-3.839-0.732-5.304-2.197l-13.068-13.068c-2.929-2.929-2.929-7.678,0-10.606
		c2.93-2.929,7.678-2.929,10.607,0l13.068,13.068c2.929,2.929,2.929,7.678,0,10.607C347.85,469.102,345.93,469.835,344.011,469.835z
		"/>
	<path d="M264.276,440.392c-1.919,0-3.839-0.732-5.304-2.197c-2.929-2.929-2.929-7.678,0-10.606l13.855-13.855
		c2.93-2.929,7.678-2.929,10.607,0s2.929,7.678,0,10.606l-13.855,13.855C268.115,439.66,266.195,440.392,264.276,440.392z"/>
	<path d="M400.084,432.071c-1.919,0-3.839-0.732-5.304-2.197c-2.929-2.929-2.929-7.678,0-10.606l13.855-13.855
		c2.93-2.929,7.678-2.929,10.607,0s2.929,7.678,0,10.606l-13.855,13.855C403.923,431.338,402.003,432.071,400.084,432.071z"/>
</g>
<path style="opacity:0.1;enable-background:new    ;" d="M52.813,464.081V419.16c0-22.132,17.942-40.074,40.074-40.074H40.074
	C17.942,379.086,0,397.028,0,419.16v44.921c0,22.132,17.942,40.074,40.074,40.074h52.813
	C70.755,504.154,52.813,486.213,52.813,464.081z"/>
<path id="SVGCleanerId_0" style="fill:#92D2E7;" d="M459.187,266.965c0-112.217-90.97-203.187-203.187-203.187
	S52.813,154.748,52.813,266.965v112.121h406.374L459.187,266.965L459.187,266.965z"/>
<g>
	<path id="SVGCleanerId_0_1_" style="fill:#92D2E7;" d="M459.187,266.965c0-112.217-90.97-203.187-203.187-203.187
		S52.813,154.748,52.813,266.965v112.121h406.374L459.187,266.965L459.187,266.965z"/>
</g>
<path style="fill:#EEEDED;" d="M360.826,92.878C330.22,74.41,294.353,63.778,256,63.778s-74.22,10.631-104.826,29.1
	c3.474,2.375,7.671,3.768,12.197,3.768h40.379l-3.012,3.012c-8.451,8.452-8.451,22.155,0,30.607
	c4.226,4.226,9.766,6.339,15.304,6.339s11.078-2.113,15.304-6.339l3.011-3.011v21.478c0,11.953,9.69,21.643,21.643,21.643
	s21.643-9.69,21.643-21.643v-21.478l3.011,3.011c4.226,4.226,9.766,6.339,15.304,6.339s11.078-2.113,15.304-6.339
	c8.451-8.452,8.451-22.155,0-30.607l-3.012-3.012h40.379C353.154,96.647,357.352,95.253,360.826,92.878z"/>
<rect x="52.813" y="342.75" style="opacity:0.1;enable-background:new    ;" width="406.37" height="36.34"/>
<g>
	<path style="fill:#485458;" d="M192.263,235.16c-4.143,0-7.5-3.358-7.5-7.5v-10.58c0-4.142,3.357-7.5,7.5-7.5s7.5,3.358,7.5,7.5
		v10.581C199.763,231.802,196.405,235.16,192.263,235.16z"/>
	<path style="fill:#485458;" d="M319.737,235.16c-4.143,0-7.5-3.358-7.5-7.5v-10.58c0-4.142,3.357-7.5,7.5-7.5s7.5,3.358,7.5,7.5
		v10.581C327.237,231.802,323.88,235.16,319.737,235.16z"/>
	<path style="fill:#485458;" d="M256,243.285c-8.607,0-16.793-3.728-22.458-10.228c-2.722-3.123-2.396-7.86,0.727-10.582
		c3.121-2.721,7.859-2.396,10.582,0.727c2.815,3.23,6.879,5.083,11.149,5.083c4.271,0,8.334-1.853,11.149-5.083
		c2.72-3.122,7.457-3.448,10.582-0.727c3.122,2.722,3.448,7.459,0.727,10.582C272.793,239.557,264.607,243.285,256,243.285z"/>
</g>
<path style="opacity:0.1;enable-background:new    ;" d="M256,63.778c-112.217,0-203.187,90.97-203.187,203.187v112.121h35.762
	V266.965c0-106.19,81.465-193.339,185.306-202.395C267.988,64.056,262.027,63.778,256,63.778z"/>
<circle style="fill:#92D2E7;" cx="383.69" cy="294.68" r="24.832"/>
<circle style="opacity:0.4;fill:#FFFFFF;enable-background:new    ;" cx="383.69" cy="294.68" r="24.832"/>
<circle style="fill:#92D2E7;" cx="256" cy="322.29" r="24.832"/>
<g>
	<circle style="opacity:0.4;fill:#FFFFFF;enable-background:new    ;" cx="256" cy="322.29" r="24.832"/>
	<circle style="opacity:0.4;fill:#FFFFFF;enable-background:new    ;" cx="135.42" cy="170.37" r="24.832"/>
	<path style="opacity:0.4;fill:#FFFFFF;enable-background:new    ;" d="M401.178,124.829c-11.546,6.583-19.336,18.997-19.336,33.239
		c0,21.123,17.124,38.246,38.246,38.246c8.786,0,16.874-2.97,23.331-7.95C433.413,164.533,418.988,143.018,401.178,124.829z"/>
</g>
<circle style="fill:#92D2E7;" cx="115.6" cy="290.52" r="31.77"/>
<g>
	<circle style="opacity:0.4;fill:#FFFFFF;enable-background:new    ;" cx="115.6" cy="290.52" r="31.77"/>
	<g style="opacity:0.1;">
		<circle style="fill:#FFFFFF;" cx="184.1" cy="350.68" r="7.478"/>
		<circle style="fill:#FFFFFF;" cx="103.11" cy="219.42" r="7.478"/>
		<circle style="fill:#FFFFFF;" cx="199.06" cy="179.46" r="7.478"/>
		<circle style="fill:#FFFFFF;" cx="307.9" cy="333.12" r="7.478"/>
		<circle style="fill:#FFFFFF;" cx="344.95" cy="150.52" r="7.478"/>
		<circle style="fill:#FFFFFF;" cx="408.52" cy="238.03" r="7.478"/>
		<circle style="fill:#FFFFFF;" cx="427.92" cy="356.14" r="7.478"/>
	</g>
</g>
<g>
</g>
<g>
</g>
<g>
</g>
<g>
</g>
<g>
</g>
<g>
</g>
<g>
</g>
<g>
</g>
<g>
</g>
<g>
</g>
<g>
</g>
<g>
</g>
<g>
</g>
<g>
</g>
<g>
</g>
</svg>
