<?xml version="1.0" encoding="iso-8859-1"?>
<!-- Generator: Adobe Illustrator 19.0.0, SVG Export Plug-In . SVG Version: 6.00 Build 0)  -->
<svg version="1.1" id="Capa_1" xmlns="http://www.w3.org/2000/svg" xmlns:xlink="http://www.w3.org/1999/xlink" x="0px" y="0px"
	 viewBox="0 0 512 512" style="enable-background:new 0 0 512 512;" xml:space="preserve">
<path style="fill:#AA715F;" d="M302.455,389.417h-92.91L192.256,485.2c-1.822,10.095,4.75,19.798,14.8,21.851l0,0
	c32.296,6.598,65.592,6.598,97.888,0l0,0c10.051-2.053,16.622-11.756,14.8-21.851L302.455,389.417z"/>
<path style="opacity:0.1;enable-background:new    ;" d="M302.455,389.417h-92.91l-9.175,50.827c37.002,3.54,74.257,3.54,111.259,0
	L302.455,389.417z"/>
<path style="fill:#61C6AD;" d="M229.387,206.257L75.448,336.858c-18.709,15.873-12.425,46.16,11.055,53.279l0,0
	c110.514,33.508,228.48,33.508,338.994,0l0,0c23.48-7.119,29.764-37.407,11.055-53.279L282.613,206.257
	C267.261,193.232,244.739,193.232,229.387,206.257z"/>
<path style="opacity:0.1;enable-background:new    ;" d="M282.613,206.257c-15.352-13.024-37.874-13.024-53.225,0l-105.706,89.681
	c86.761,22.614,177.877,22.614,264.638,0L282.613,206.257z"/>
<path style="fill:#61C6AD;" d="M232.099,107.017L93.845,224.312c-16.803,14.256-11.159,41.457,9.928,47.851l0,0
	c99.253,30.094,205.2,30.094,304.453,0l0,0c21.087-6.394,26.731-33.595,9.928-47.851L279.901,107.017
	C266.114,95.32,245.886,95.32,232.099,107.017z"/>
<path style="opacity:0.15;enable-background:new    ;" d="M232.099,107.017L93.845,224.312
	c-16.803,14.256-11.159,41.457,9.928,47.851l0,0c99.253,30.094,205.2,30.094,304.453,0l0,0c21.087-6.394,26.731-33.595,9.928-47.851
	L279.901,107.017C266.114,95.32,245.886,95.32,232.099,107.017z"/>
<path style="opacity:0.1;enable-background:new    ;" d="M279.901,107.017c-13.787-11.697-34.015-11.697-47.802,0l-84.193,71.43
	c71.06,16.981,145.129,16.981,216.189,0L279.901,107.017z"/>
<path style="fill:#61C6AD;" d="M234.811,7.778L112.242,111.765c-14.897,12.638-9.893,36.754,8.802,42.422l0,0
	c87.993,26.68,181.919,26.68,269.912,0l0,0c18.695-5.668,23.699-29.784,8.802-42.422L277.189,7.778
	C264.966-2.593,247.034-2.593,234.811,7.778z"/>
<circle style="opacity:0.1;enable-background:new    ;" cx="326.78" cy="174.16" r="40.5"/>
<path style="opacity:0.1;enable-background:new    ;" d="M149.719,242.712c-19.221,0-35.303,13.394-39.45,31.355
	c9.961,2.879,19.984,5.47,30.06,7.747l-25.625,21.74c7.017,12.051,20.065,20.158,35.015,20.158c22.368,0,40.5-18.132,40.5-40.5
	S172.087,242.712,149.719,242.712z"/>
<circle style="opacity:0.1;enable-background:new    ;" cx="367.28" cy="314.81" r="40.5"/>
<path style="opacity:0.1;enable-background:new    ;" d="M224.85,362.177c-22.367,0-40.5,18.133-40.5,40.5
	c0,2.83,0.292,5.591,0.845,8.257c6.686,0.816,13.381,1.526,20.085,2.11l-4.064,22.512c6.652,4.79,14.81,7.62,23.634,7.62
	c22.368,0,40.5-18.132,40.5-40.5C265.35,380.309,247.218,362.177,224.85,362.177z"/>
<circle style="opacity:0.1;enable-background:new    ;" cx="202.57" cy="117.47" r="40.5"/>
<path style="fill:#485458;" d="M333.66,134.283c-4.143,0-7.5-3.358-7.5-7.5v-15.314c0-4.142,3.357-7.5,7.5-7.5
	c4.142,0,7.5,3.358,7.5,7.5v15.314C341.16,130.925,337.803,134.283,333.66,134.283z"/>
<circle style="fill:#EEEDED;" cx="333.66" cy="167.28" r="40.5"/>
<path style="opacity:0.1;enable-background:new    ;" d="M342.308,199.135c-22.367,0-40.5-18.132-40.5-40.5
	c0-8.977,2.926-17.269,7.869-23.983c-10.015,7.373-16.517,19.241-16.517,32.631c0,22.367,18.133,40.5,40.5,40.5
	c13.39,0,25.258-6.502,32.631-16.517C359.576,196.21,351.285,199.135,342.308,199.135z"/>
<path style="fill:#485458;" d="M156.6,243.331c-4.142,0-7.5-3.358-7.5-7.5v-15.315c0-4.142,3.358-7.5,7.5-7.5s7.5,3.358,7.5,7.5
	v15.315C164.1,239.973,160.742,243.331,156.6,243.331z"/>
<circle style="fill:#EEEDED;" cx="156.6" cy="276.33" r="40.5"/>
<path style="opacity:0.1;enable-background:new    ;" d="M165.248,308.183c-22.368,0-40.5-18.132-40.5-40.5
	c0-8.977,2.926-17.269,7.869-23.983c-10.015,7.373-16.517,19.241-16.517,32.631c0,22.368,18.132,40.5,40.5,40.5
	c13.39,0,25.258-6.502,32.631-16.517C182.517,305.257,174.225,308.183,165.248,308.183z"/>
<path style="fill:#485458;" d="M374.16,274.931c-4.143,0-7.5-3.358-7.5-7.5v-15.315c0-4.142,3.357-7.5,7.5-7.5
	c4.142,0,7.5,3.358,7.5,7.5v15.315C381.66,271.573,378.303,274.931,374.16,274.931z"/>
<circle style="fill:#F8CA4F;" cx="374.16" cy="307.93" r="40.5"/>
<path style="opacity:0.1;enable-background:new    ;" d="M382.808,339.783c-22.367,0-40.5-18.133-40.5-40.5
	c0-8.977,2.926-17.269,7.869-23.983c-10.015,7.373-16.517,19.241-16.517,32.631c0,22.368,18.133,40.5,40.5,40.5
	c13.39,0,25.258-6.502,32.631-16.517C400.076,336.857,391.785,339.783,382.808,339.783z"/>
<path style="fill:#485458;" d="M231.731,362.796c-4.142,0-7.5-3.358-7.5-7.5v-15.315c0-4.142,3.358-7.5,7.5-7.5s7.5,3.358,7.5,7.5
	v15.315C239.231,359.438,235.873,362.796,231.731,362.796z"/>
<circle style="fill:#E86478;" cx="231.73" cy="395.8" r="40.5"/>
<path style="opacity:0.1;enable-background:new    ;" d="M240.379,427.648c-22.367,0-40.5-18.132-40.5-40.5
	c0-8.977,2.926-17.269,7.869-23.983c-10.015,7.373-16.517,19.241-16.517,32.631c0,22.368,18.133,40.5,40.5,40.5
	c13.39,0,25.258-6.502,32.631-16.517C257.648,424.722,249.356,427.648,240.379,427.648z"/>
<path style="fill:#485458;" d="M209.454,77.588c-4.142,0-7.5-3.358-7.5-7.5V54.773c0-4.142,3.358-7.5,7.5-7.5s7.5,3.358,7.5,7.5
	v15.315C216.954,74.23,213.596,77.588,209.454,77.588z"/>
<circle style="fill:#E86478;" cx="209.45" cy="110.59" r="40.5"/>
<path style="opacity:0.1;enable-background:new    ;" d="M218.101,142.44c-22.367,0-40.5-18.132-40.5-40.5
	c0-8.977,2.926-17.269,7.869-23.983c-10.015,7.373-16.517,19.241-16.517,32.631c0,22.368,18.132,40.5,40.5,40.5
	c13.39,0,25.258-6.502,32.631-16.517C235.37,139.514,227.079,142.44,218.101,142.44z"/>
<g>
</g>
<g>
</g>
<g>
</g>
<g>
</g>
<g>
</g>
<g>
</g>
<g>
</g>
<g>
</g>
<g>
</g>
<g>
</g>
<g>
</g>
<g>
</g>
<g>
</g>
<g>
</g>
<g>
</g>
</svg>
