<?xml version="1.0" encoding="iso-8859-1"?>
<!-- Generator: Adobe Illustrator 19.0.0, SVG Export Plug-In . SVG Version: 6.00 Build 0)  -->
<svg version="1.1" id="Capa_1" xmlns="http://www.w3.org/2000/svg" xmlns:xlink="http://www.w3.org/1999/xlink" x="0px" y="0px"
	 viewBox="0 0 512 512" style="enable-background:new 0 0 512 512;" xml:space="preserve">
<path style="fill:#E86478;" d="M396.942,110.547v197.258c0,30.597-12.155,59.941-33.79,81.577l-88.828,88.828
	C251.796,500.737,222.271,512,192.747,512c-29.525,0-59.05-11.263-81.576-33.79c-45.053-45.054-45.053-118.099,0-163.153
	l44.048-44.048c7.037-7.037,10.99-16.581,10.99-26.532v-133.93H396.942z"/>
<path style="fill:#F8CA4F;" d="M325.48,205.855c-26.671,17.337-61.139,17.336-87.811,0.001c-21.23-13.8-47.027-18.478-71.461-13.439
	v15.373c21.483-5.309,44.505-1.566,63.287,10.642c15.818,10.282,33.949,15.423,52.08,15.423s36.261-5.141,52.08-15.423
	c18.98-12.337,41.815-16.021,63.286-10.661v-15.393C372.539,187.283,346.933,191.911,325.48,205.855z M325.48,159.559
	c-26.672,17.336-61.139,17.336-87.811,0c-21.23-13.8-47.027-18.477-71.461-13.438v15.373c21.483-5.308,44.505-1.566,63.287,10.642
	c15.818,10.282,33.949,15.423,52.08,15.423s36.261-5.141,52.08-15.423c18.98-12.337,41.815-16.021,63.286-10.661v-15.393
	C372.539,140.987,346.933,145.615,325.48,159.559z"/>
<path style="fill:#EEEDED;" d="M408.982,110.547H154.169c-14.158,0-25.636-11.478-25.636-25.636V25.636
	C128.533,11.478,140.01,0,154.169,0h254.813c14.158,0,25.636,11.478,25.636,25.636v59.275
	C434.618,99.07,423.14,110.547,408.982,110.547z"/>
<path style="opacity:0.1;enable-background:new    ;" d="M152.503,84.911V25.636C152.503,11.478,163.98,0,178.138,0h-23.97
	c-14.158,0-25.636,11.478-25.636,25.636v59.275c0,14.158,11.478,25.636,25.636,25.636h23.97
	C163.98,110.547,152.503,99.07,152.503,84.911z"/>
<rect x="166.209" y="110.55" style="opacity:0.1;enable-background:new    ;" width="230.73" height="35.35"/>
<path style="opacity:0.1;enable-background:new    ;" d="M308.43,342.077c0,28.039,12.047,53.261,31.243,70.783l23.479-23.479
	c21.635-21.636,33.79-50.98,33.79-81.577v-61.239C347.44,250.302,308.43,291.62,308.43,342.077z"/>
<path style="opacity:0.1;enable-background:new    ;" d="M195.249,394.131c-30.582-30.582-73.677-41.014-112.804-31.313
	c-12.067,39.484-2.505,84.161,28.726,115.392c22.527,22.527,52.051,33.79,81.576,33.79c11.408,0,22.811-1.701,33.815-5.064
	C236.263,467.809,225.831,424.714,195.249,394.131z"/>
<g style="opacity:0.1;">
	<path d="M175.313,53.128c-1.919,0-3.839-0.732-5.303-2.197c-2.929-2.929-2.929-7.678,0-10.607l10.796-10.795
		c2.929-2.929,7.678-2.93,10.606,0c2.929,2.929,2.929,7.678,0,10.606l-10.796,10.796C179.151,52.396,177.231,53.128,175.313,53.128z
		"/>
	<path d="M223.846,90.866c-1.919,0-3.839-0.732-5.303-2.197l-14.059-14.06c-2.929-2.929-2.929-7.678,0-10.606
		c2.929-2.929,7.678-2.929,10.606,0l14.06,14.06c2.929,2.929,2.929,7.678,0,10.606C227.685,90.134,225.765,90.866,223.846,90.866z"
		/>
	<path d="M269.875,53.288c-1.92,0-3.839-0.732-5.303-2.197c-2.929-2.929-2.929-7.678,0-10.606l12.646-12.646
		c2.929-2.929,7.678-2.929,10.606,0c2.929,2.929,2.929,7.678,0,10.606l-12.646,12.646C273.714,52.555,271.794,53.288,269.875,53.288
		z"/>
	<path d="M343.867,89.789c-1.919,0-3.839-0.732-5.303-2.197L325.582,74.61c-2.929-2.929-2.929-7.678,0-10.606
		c2.929-2.929,7.678-2.929,10.606,0l12.982,12.983c2.929,2.929,2.929,7.678,0,10.606C347.706,89.056,345.786,89.789,343.867,89.789z
		"/>
	<path d="M389.606,60.541c-1.919,0-3.839-0.732-5.303-2.197c-2.929-2.929-2.929-7.677,0-10.606l13.764-13.765
		c2.929-2.929,7.678-2.93,10.606,0c2.929,2.929,2.929,7.677,0,10.606l-13.764,13.765C393.445,59.808,391.526,60.541,389.606,60.541z
		"/>
</g>
<g style="opacity:0.2;">
	<circle style="fill:#FFFFFF;" cx="152.839" cy="435.54" r="7.428"/>
	<circle style="fill:#FFFFFF;" cx="156.779" cy="331.24" r="7.428"/>
	<circle style="fill:#FFFFFF;" cx="217.939" cy="276.1" r="7.428"/>
	<circle style="fill:#FFFFFF;" cx="278.879" cy="395.57" r="7.428"/>
	<circle style="fill:#FFFFFF;" cx="260.099" cy="165.71" r="7.428"/>
	<circle style="fill:#FFFFFF;" cx="324.809" cy="228.8" r="7.428"/>
	<circle style="fill:#FFFFFF;" cx="348.499" cy="326.1" r="7.428"/>
</g>
<g>
</g>
<g>
</g>
<g>
</g>
<g>
</g>
<g>
</g>
<g>
</g>
<g>
</g>
<g>
</g>
<g>
</g>
<g>
</g>
<g>
</g>
<g>
</g>
<g>
</g>
<g>
</g>
<g>
</g>
</svg>
