<?xml version="1.0" encoding="iso-8859-1"?>
<!-- Generator: Adobe Illustrator 19.0.0, SVG Export Plug-In . SVG Version: 6.00 Build 0)  -->
<svg version="1.1" id="Capa_1" xmlns="http://www.w3.org/2000/svg" xmlns:xlink="http://www.w3.org/1999/xlink" x="0px" y="0px"
	 viewBox="0 0 512 512" style="enable-background:new 0 0 512 512;" xml:space="preserve">
<path style="fill:#E86478;" d="M125.408,189.508v58.462c0,5.05-6.105,7.578-9.676,4.008l-26.11-26.11
	c-20.502-20.502-53.743-20.502-74.245,0l0,0c-20.502,20.502-20.502,53.743,0,74.245l110.031,110.031H466.99V189.508
	c0-94.325-76.466-170.791-170.791-170.791l0,0C201.874,18.718,125.408,95.183,125.408,189.508z"/>
<path style="fill:#EEEDED;" d="M470.431,493.284H121.968c-22.959,0-41.57-18.612-41.57-41.57l0,0c0-22.958,18.612-41.57,41.57-41.57
	h348.463c22.959,0,41.57,18.612,41.57,41.57l0,0C512,474.673,493.39,493.284,470.431,493.284z"/>
<g style="opacity:0.1;">
	<path d="M133.777,453.419c-1.919,0-3.839-0.732-5.303-2.197c-2.929-2.929-2.929-7.678,0-10.606l9.659-9.659
		c2.929-2.929,7.678-2.929,10.606,0c2.929,2.929,2.929,7.678,0,10.606l-9.659,9.659
		C137.617,452.686,135.698,453.419,133.777,453.419z"/>
	<path d="M224.117,473.727c-1.919,0-3.839-0.732-5.303-2.197l-12.58-12.581c-2.929-2.929-2.929-7.678,0-10.606
		c2.929-2.929,7.678-2.93,10.607,0l12.58,12.581c2.929,2.929,2.929,7.678,0,10.606C227.956,472.994,226.036,473.727,224.117,473.727
		z"/>
	<path d="M289.407,452.936c-1.919,0-3.839-0.733-5.303-2.197c-2.929-2.929-2.929-7.678,0-10.607l11.314-11.314
		c2.929-2.929,7.678-2.929,10.606,0c2.929,2.929,2.929,7.678,0,10.606l-11.314,11.315
		C293.246,452.203,291.327,452.936,289.407,452.936z"/>
	<path d="M384.822,470.83c-1.919,0-3.839-0.732-5.303-2.197l-11.616-11.616c-2.929-2.929-2.929-7.678,0-10.606
		c2.929-2.929,7.678-2.929,10.606,0l11.616,11.616c2.929,2.929,2.929,7.678,0,10.606C388.661,470.098,386.741,470.83,384.822,470.83
		z"/>
	<path d="M436.604,453.436c-1.919,0-3.839-0.733-5.303-2.197c-2.929-2.929-2.929-7.678,0-10.606l12.316-12.316
		c2.929-2.929,7.678-2.929,10.606,0c2.929,2.929,2.929,7.678,0,10.607l-12.316,12.316
		C440.442,452.704,438.523,453.436,436.604,453.436z"/>
</g>
<path style="opacity:0.1;enable-background:new    ;" d="M116.549,451.714L116.549,451.714c0-22.959,18.611-41.57,41.57-41.57
	h-36.152c-22.959,0-41.57,18.612-41.57,41.57l0,0c0,22.959,18.612,41.57,41.57,41.57h36.152
	C135.161,493.284,116.549,474.673,116.549,451.714z"/>
<g>
	<path style="fill:#FFFFFF;" d="M284.385,280.761c-1.92,0-3.839-0.733-5.303-2.197l-34.609-34.609
		c-2.929-2.929-2.929-7.678,0-10.606c2.929-2.929,7.678-2.929,10.606,0l34.609,34.609c2.929,2.929,2.929,7.678,0,10.607
		C288.224,280.028,286.305,280.761,284.385,280.761z"/>
	<path style="fill:#FFFFFF;" d="M249.775,338.998c-1.919,0-3.839-0.732-5.303-2.197c-2.929-2.929-2.929-7.678,0-10.606
		l34.609-34.609c2.929-2.929,7.678-2.929,10.606,0c2.929,2.929,2.929,7.678,0,10.606l-34.608,34.609
		C253.615,338.265,251.696,338.998,249.775,338.998z"/>
	<path style="fill:#FFFFFF;" d="M342.622,338.998c-1.919,0-3.839-0.732-5.303-2.197l-34.609-34.609
		c-2.929-2.929-2.929-7.678,0-10.606c2.929-2.929,7.678-2.929,10.606,0l34.609,34.609c2.929,2.929,2.929,7.678,0,10.606
		C346.461,338.265,344.542,338.998,342.622,338.998z"/>
	<path style="fill:#FFFFFF;" d="M308.013,280.761c-1.919,0-3.839-0.733-5.303-2.197c-2.929-2.929-2.929-7.678,0-10.607
		l34.609-34.609c2.929-2.929,7.678-2.929,10.606,0c2.929,2.929,2.929,7.678,0,10.606l-34.609,34.609
		C311.852,280.028,309.933,280.761,308.013,280.761z"/>
</g>
<g style="opacity:0.1;">
	<path d="M284.385,280.761c-1.92,0-3.839-0.733-5.303-2.197l-34.609-34.609c-2.929-2.929-2.929-7.678,0-10.606
		c2.929-2.929,7.678-2.929,10.606,0l34.609,34.609c2.929,2.929,2.929,7.678,0,10.607
		C288.224,280.028,286.305,280.761,284.385,280.761z"/>
	<path d="M249.775,338.998c-1.919,0-3.839-0.732-5.303-2.197c-2.929-2.929-2.929-7.678,0-10.606l34.609-34.609
		c2.929-2.929,7.678-2.929,10.606,0c2.929,2.929,2.929,7.678,0,10.606l-34.608,34.609
		C253.615,338.265,251.696,338.998,249.775,338.998z"/>
	<path d="M342.622,338.998c-1.919,0-3.839-0.732-5.303-2.197l-34.609-34.609c-2.929-2.929-2.929-7.678,0-10.606
		c2.929-2.929,7.678-2.929,10.606,0l34.609,34.609c2.929,2.929,2.929,7.678,0,10.606
		C346.461,338.265,344.542,338.998,342.622,338.998z"/>
	<path d="M308.013,280.761c-1.919,0-3.839-0.733-5.303-2.197c-2.929-2.929-2.929-7.678,0-10.607l34.609-34.609
		c2.929-2.929,7.678-2.929,10.606,0c2.929,2.929,2.929,7.678,0,10.606l-34.609,34.609
		C311.852,280.028,309.933,280.761,308.013,280.761z"/>
</g>
<g>
	<path style="fill:#FFFFFF;" d="M296.199,309.282c-13.348,0-24.207-10.859-24.207-24.207s10.859-24.208,24.207-24.208
		s24.208,10.859,24.208,24.208C320.407,298.422,309.547,309.282,296.199,309.282z M296.199,275.867c-5.077,0-9.207,4.13-9.207,9.208
		c0,5.077,4.13,9.207,9.207,9.207s9.208-4.13,9.208-9.207S301.276,275.867,296.199,275.867z"/>
	<path style="fill:#FFFFFF;" d="M296.199,275.867c-4.142,0-7.5-3.358-7.5-7.5v-48.631c0-4.142,3.358-7.5,7.5-7.5s7.5,3.358,7.5,7.5
		v48.631C303.699,272.509,300.341,275.867,296.199,275.867z"/>
	<path style="fill:#FFFFFF;" d="M296.199,254.649c-1.919,0-3.839-0.733-5.303-2.197l-16.476-16.476
		c-2.929-2.929-2.929-7.677,0-10.606s7.678-2.93,10.607,0l11.173,11.172l11.173-11.172c2.929-2.929,7.678-2.93,10.606,0
		c2.929,2.929,2.929,7.678,0,10.606l-16.476,16.476C300.038,253.916,298.119,254.649,296.199,254.649z"/>
	<path style="fill:#FFFFFF;" d="M296.199,227.236c-1.919,0-3.839-0.732-5.303-2.197l-16.476-16.476
		c-2.929-2.929-2.929-7.678,0-10.606c2.929-2.929,7.678-2.929,10.607,0l11.173,11.173l11.173-11.173
		c2.929-2.929,7.678-2.929,10.606,0c2.929,2.929,2.929,7.678,0,10.606l-16.476,16.476
		C300.038,226.503,298.119,227.236,296.199,227.236z"/>
	<path style="fill:#FFFFFF;" d="M279.492,292.575h-48.631c-4.142,0-7.5-3.358-7.5-7.5s3.358-7.5,7.5-7.5h48.631
		c4.142,0,7.5,3.358,7.5,7.5S283.634,292.575,279.492,292.575z"/>
	<path style="fill:#FFFFFF;" d="M241.797,309.05c-1.919,0-3.839-0.732-5.303-2.197c-2.929-2.929-2.929-7.678,0-10.606l11.173-11.172
		l-11.173-11.173c-2.929-2.929-2.929-7.678,0-10.607s7.678-2.929,10.606,0l16.476,16.476c1.407,1.406,2.197,3.314,2.197,5.303
		s-0.79,3.897-2.197,5.303l-16.475,16.477C245.635,308.318,243.715,309.05,241.797,309.05z"/>
	<path style="fill:#FFFFFF;" d="M214.385,309.05c-1.919,0-3.839-0.732-5.303-2.197c-2.929-2.929-2.929-7.678,0-10.606l11.173-11.172
		l-11.173-11.173c-2.929-2.929-2.929-7.678,0-10.607s7.678-2.929,10.606,0l16.476,16.476c1.407,1.406,2.197,3.314,2.197,5.303
		s-0.79,3.897-2.197,5.303l-16.476,16.476C218.224,308.318,216.303,309.05,214.385,309.05z"/>
	<path style="fill:#FFFFFF;" d="M296.199,357.913c-4.142,0-7.5-3.358-7.5-7.5v-48.631c0-4.142,3.358-7.5,7.5-7.5s7.5,3.358,7.5,7.5
		v48.631C303.699,354.555,300.341,357.913,296.199,357.913z"/>
	<path style="fill:#FFFFFF;" d="M312.675,346.977c-1.919,0-3.839-0.732-5.303-2.197l-11.173-11.173l-11.173,11.173
		c-2.929,2.929-7.678,2.929-10.607,0s-2.929-7.678,0-10.606l16.476-16.476c2.929-2.929,7.678-2.929,10.607,0l16.476,16.476
		c2.929,2.929,2.929,7.678,0,10.606C316.514,346.244,314.595,346.977,312.675,346.977z"/>
	<path style="fill:#FFFFFF;" d="M312.675,374.389c-1.919,0-3.839-0.732-5.303-2.197l-11.173-11.173l-11.173,11.173
		c-2.929,2.929-7.678,2.929-10.607,0s-2.929-7.678,0-10.606l16.476-16.476c2.929-2.929,7.678-2.929,10.607,0l16.476,16.476
		c2.929,2.929,2.929,7.678,0,10.606C316.514,373.657,314.595,374.389,312.675,374.389z"/>
	<path style="fill:#FFFFFF;" d="M361.538,292.575h-48.631c-4.142,0-7.5-3.358-7.5-7.5s3.358-7.5,7.5-7.5h48.631
		c4.142,0,7.5,3.358,7.5,7.5S365.68,292.575,361.538,292.575z"/>
	<path style="fill:#FFFFFF;" d="M350.601,309.05c-1.919,0-3.839-0.732-5.303-2.197l-16.476-16.476
		c-1.407-1.406-2.197-3.314-2.197-5.303s0.79-3.897,2.197-5.303l16.476-16.476c2.929-2.929,7.678-2.929,10.606,0
		c2.929,2.929,2.929,7.678,0,10.607l-11.173,11.173l11.173,11.172c2.929,2.929,2.929,7.677,0,10.606
		C354.44,308.318,352.521,309.05,350.601,309.05z"/>
	<path style="fill:#FFFFFF;" d="M378.014,309.05c-1.919,0-3.839-0.732-5.303-2.197l-16.476-16.476
		c-2.929-2.929-2.929-7.678,0-10.606l16.476-16.476c2.929-2.929,7.678-2.93,10.606,0c2.929,2.929,2.929,7.677,0,10.607
		l-11.172,11.173l11.172,11.172c2.929,2.929,2.929,7.678,0,10.606C381.853,308.318,379.933,309.05,378.014,309.05z"/>
	<path style="opacity:0.2;fill:#FFFFFF;enable-background:new    ;" d="M89.623,225.868c-20.502-20.502-53.743-20.502-74.245,0l0,0
		c-20.502,20.502-20.502,53.743,0,74.245l25.229,25.229l74.245-74.245L89.623,225.868z"/>
	<path style="opacity:0.2;fill:#FFFFFF;enable-background:new    ;" d="M296.2,18.718L296.2,18.718
		c-86.162,0-157.408,63.807-169.098,146.743c14.047-0.475,27.994-4.701,40.273-12.682l0,0c26.112-16.973,59.771-16.973,85.883,0l0,0
		c26.112,16.973,59.771,16.973,85.883,0l0,0c26.112-16.973,59.771-16.973,85.883,0l0,0c12.279,7.981,26.226,12.207,40.273,12.682
		C453.608,82.524,382.361,18.718,296.2,18.718z"/>
</g>
<polygon style="opacity:0.1;enable-background:new    ;" points="96.256,380.992 125.408,410.144 466.99,410.144 466.99,380.992 "/>
<g style="opacity:0.2;">
	<circle style="fill:#FFFFFF;" cx="134.531" cy="347.651" r="7.428"/>
	<circle style="fill:#FFFFFF;" cx="49.998" cy="256.001" r="7.428"/>
	<circle style="fill:#FFFFFF;" cx="171.771" cy="210.491" r="7.428"/>
	<circle style="fill:#FFFFFF;" cx="241.801" cy="92.111" r="7.428"/>
	<circle style="fill:#FFFFFF;" cx="369.771" cy="100.931" r="7.428"/>
	<circle style="fill:#FFFFFF;" cx="425.811" cy="195.631" r="7.428"/>
	<circle style="fill:#FFFFFF;" cx="402.201" cy="359.461" r="7.428"/>
</g>
<g>
</g>
<g>
</g>
<g>
</g>
<g>
</g>
<g>
</g>
<g>
</g>
<g>
</g>
<g>
</g>
<g>
</g>
<g>
</g>
<g>
</g>
<g>
</g>
<g>
</g>
<g>
</g>
<g>
</g>
</svg>
