<?xml version="1.0" encoding="iso-8859-1"?>
<!-- Generator: Adobe Illustrator 19.0.0, SVG Export Plug-In . SVG Version: 6.00 Build 0)  -->
<svg version="1.1" id="Capa_1" xmlns="http://www.w3.org/2000/svg" xmlns:xlink="http://www.w3.org/1999/xlink" x="0px" y="0px"
	 viewBox="0 0 512 512" style="enable-background:new 0 0 512 512;" xml:space="preserve">
<path style="fill:#AA715F;" d="M431.915,222.465h-85.372c-5.062,0-7.502-6.133-3.881-9.669
	c23.219-22.674,37.578-54.379,37.386-89.441C379.68,56.133,325.038,0.978,257.823,0.013
	c-69.345-0.995-125.871,54.919-125.871,124.036c0,34.817,14.348,66.278,37.449,88.806c3.596,3.507,1.085,9.61-3.937,9.61H80.087
	c-24.183,0-44.358,19.791-43.875,43.97c0.468,23.394,19.577,42.214,43.083,42.214h68.291c7.908,0,14.319,6.411,14.319,14.32l0,0
	c0,0.148,0,0.295,0.001,0.443c0.214,26.477-3.247,52.856-11.089,78.146l-16.688,53.818c-7.05,22.737,5.171,47.365,27.856,54.583
	c4.35,1.384,8.751,2.041,13.081,2.041c18.383,0,35.415-11.86,41.145-30.341l19.393-62.542c0.702-2.264,2.965-3.64,5.304-3.262
	c4.914,0.793,9.954,1.208,15.092,1.208c5.138,0,10.179-0.414,15.093-1.208c2.339-0.378,4.602,0.999,5.304,3.262l19.393,62.542
	C301.521,500.141,318.551,512,336.935,512c4.354,0,8.784-0.665,13.157-2.065c22.643-7.248,34.82-31.851,27.779-54.559l-16.465-53.1
	c-7.91-25.509-11.491-52.107-11.312-78.814c0.001-0.165,0.001-0.33,0.001-0.494l0,0c0-7.908,6.411-14.319,14.319-14.319h68.291
	c23.506,0,42.616-18.821,43.083-42.214C476.272,242.256,456.098,222.465,431.915,222.465z"/>
<path style="opacity:0.1;enable-background:new    ;" d="M96.781,222.465H80.087c-24.183,0-44.358,19.791-43.875,43.97
	c0.468,23.393,19.577,42.214,43.083,42.214h16.693c-23.506,0-42.616-18.821-43.083-42.214
	C52.423,242.256,72.597,222.465,96.781,222.465z M312.484,481.659l-19.932-64.311c-0.702-2.263-2.965-3.64-5.304-3.262
	c-3.841,0.62-10.673,1.512-15.101,1.729c1.935,0.115,3.656,1.384,4.251,3.303l19.393,62.542c5.73,18.481,22.76,30.34,41.144,30.34
	c2.763,0,5.558-0.27,8.349-0.824C330.277,508.195,317.334,497.3,312.484,481.659z M150.823,455.376l16.688-53.818
	c7.842-25.29,11.303-51.669,11.089-78.146c-0.001-0.148-0.001-0.295-0.001-0.443c0-7.908-6.411-14.32-14.32-14.32h-16.693
	c7.909,0,14.32,6.411,14.32,14.32c0,0.147,0,0.295,0.001,0.443c0.214,26.477-3.247,52.856-11.089,78.146l-16.688,53.818
	c-7.05,22.737,5.171,47.365,27.856,54.583c4.35,1.384,8.751,2.04,13.081,2.04c2.826,0,5.62-0.283,8.346-0.824
	c-1.581-0.314-3.16-0.716-4.733-1.216C155.994,502.741,143.773,478.113,150.823,455.376z M264.351,0.281
	c-2.162-0.145-4.338-0.237-6.528-0.268c-69.345-0.995-125.871,54.919-125.871,124.036c0,34.816,14.348,66.278,37.449,88.806
	c3.596,3.507,1.085,9.61-3.937,9.61h16.693c5.023,0,7.533-6.104,3.937-9.61c-23.101-22.528-37.449-53.99-37.449-88.806
	C148.645,58.343,199.732,4.574,264.351,0.281z"/>
<circle style="opacity:0.1;enable-background:new    ;" cx="250.351" cy="264.8" r="24.646"/>
<circle style="opacity:0.1;enable-background:new    ;" cx="250.351" cy="345.6" r="24.646"/>
<g>
	<path style="fill:#485458;" d="M192.684,122.179c-4.143,0-7.5-3.358-7.5-7.5v-10.51c0-4.142,3.357-7.5,7.5-7.5s7.5,3.358,7.5,7.5
		v10.51C200.184,118.821,196.826,122.179,192.684,122.179z"/>
	<path style="fill:#485458;" d="M319.318,122.179c-4.143,0-7.5-3.358-7.5-7.5v-10.51c0-4.142,3.357-7.5,7.5-7.5s7.5,3.358,7.5,7.5
		v10.51C326.818,118.821,323.461,122.179,319.318,122.179z"/>
	<path style="fill:#485458;" d="M256.001,130.25c-8.565,0-16.711-3.71-22.348-10.178c-2.722-3.123-2.395-7.86,0.727-10.582
		c3.121-2.721,7.859-2.397,10.582,0.727c2.787,3.198,6.811,5.032,11.039,5.032c4.228,0,8.252-1.834,11.039-5.032
		c2.723-3.124,7.459-3.448,10.582-0.727c3.122,2.721,3.448,7.459,0.727,10.582C272.712,126.54,264.566,130.25,256.001,130.25z"/>
</g>
<g>
	<path style="fill:#EEEDED;" d="M98.343,316.149c-2.261,0-4.494-1.018-5.971-2.954c-8.487-11.134-8.487-26.686,0-37.82
		c4.406-5.781,4.406-13.855,0-19.635c-8.486-11.134-8.486-26.687,0-37.821c2.511-3.294,7.217-3.93,10.512-1.418
		c3.294,2.511,3.929,7.217,1.418,10.511c-4.406,5.78-4.406,13.855,0,19.635c8.486,11.134,8.486,26.686,0,37.821
		c-4.406,5.78-4.406,13.854,0,19.635c2.511,3.294,1.876,8-1.418,10.511C101.525,315.648,99.928,316.149,98.343,316.149z"/>
	<path style="fill:#EEEDED;" d="M413.659,316.149c-1.585,0-3.183-0.501-4.541-1.536c-3.294-2.511-3.929-7.217-1.418-10.511
		c4.406-5.78,4.406-13.854,0-19.635c-8.486-11.134-8.486-26.687,0-37.821c4.406-5.781,4.406-13.855,0-19.635
		c-2.511-3.294-1.876-8,1.418-10.511c3.297-2.51,8-1.875,10.512,1.418c8.486,11.134,8.486,26.687,0,37.821
		c-4.406,5.78-4.406,13.854,0,19.635c8.487,11.134,8.487,26.687,0,37.82C418.154,315.132,415.92,316.149,413.659,316.149z"/>
	<path style="fill:#EEEDED;" d="M221.918,470.715c-2.23,0-4.436-0.99-5.915-2.883c-4.474-5.726-12.283-7.773-18.993-4.975
		c-12.919,5.389-27.967,1.449-36.587-9.583c-4.476-5.727-12.285-7.771-18.994-4.976c-3.822,1.596-8.214-0.212-9.809-4.035
		s0.212-8.215,4.035-9.809c12.921-5.392,27.967-1.448,36.587,9.583c4.475,5.728,12.287,7.771,18.994,4.975
		c12.922-5.39,27.967-1.447,36.587,9.583c2.55,3.264,1.972,7.977-1.292,10.527C225.16,470.196,223.533,470.715,221.918,470.715z"/>
	<path style="fill:#EEEDED;" d="M290.084,470.715c-1.615,0-3.242-0.52-4.613-1.591c-3.264-2.55-3.842-7.264-1.292-10.527
		c8.621-11.031,23.665-14.972,36.587-9.584c6.707,2.798,14.519,0.753,18.995-4.975c8.62-11.032,23.667-14.972,36.586-9.583
		c3.823,1.594,5.63,5.986,4.035,9.809s-5.989,5.628-9.809,4.035c-6.71-2.799-14.52-0.752-18.993,4.976
		c-8.623,11.032-23.67,14.971-36.588,9.583c-6.709-2.796-14.518-0.751-18.993,4.975C294.52,469.726,292.312,470.715,290.084,470.715
		z"/>
</g>
<circle style="fill:#F8CA4F;" cx="256.001" cy="259.15" r="24.646"/>
<path style="opacity:0.1;enable-background:new    ;" d="M259.493,280.111c-13.612,0-24.646-11.034-24.646-24.646
	c0-5.648,1.905-10.85,5.101-15.006c-5.258,4.52-8.592,11.214-8.592,18.692c0,13.612,11.034,24.646,24.646,24.646
	c7.963,0,15.04-3.78,19.546-9.64C271.233,277.865,265.627,280.111,259.493,280.111z"/>
<circle style="fill:#F8CA4F;" cx="256.001" cy="339.95" r="24.646"/>
<path style="opacity:0.1;enable-background:new    ;" d="M259.493,360.911c-13.612,0-24.646-11.034-24.646-24.646
	c0-5.648,1.905-10.85,5.101-15.006c-5.258,4.52-8.592,11.214-8.592,18.692c0,13.612,11.034,24.646,24.646,24.646
	c7.963,0,15.04-3.78,19.546-9.64C271.233,358.664,265.627,360.911,259.493,360.911z"/>
<g style="opacity:0.1;">
	<circle cx="153.411" cy="265.56" r="7.708"/>
	<circle cx="315.571" cy="380.42" r="7.708"/>
	<circle cx="231.351" cy="34.376" r="7.708"/>
	<circle cx="305.871" cy="197.82" r="7.708"/>
	<circle cx="208.911" cy="213.24" r="7.708"/>
	<circle cx="356.001" cy="277.8" r="7.708"/>
	<circle cx="192.681" cy="399.47" r="7.708"/>
</g>
<g>
</g>
<g>
</g>
<g>
</g>
<g>
</g>
<g>
</g>
<g>
</g>
<g>
</g>
<g>
</g>
<g>
</g>
<g>
</g>
<g>
</g>
<g>
</g>
<g>
</g>
<g>
</g>
<g>
</g>
</svg>
