<?xml version="1.0" encoding="iso-8859-1"?>
<!-- Generator: Adobe Illustrator 19.0.0, SVG Export Plug-In . SVG Version: 6.00 Build 0)  -->
<svg version="1.1" id="Capa_1" xmlns="http://www.w3.org/2000/svg" xmlns:xlink="http://www.w3.org/1999/xlink" x="0px" y="0px"
	 viewBox="0 0 512 512" style="enable-background:new 0 0 512 512;" xml:space="preserve">
<path style="fill:#AA715F;" d="M160.539,321.981L25.328,273.584c-9.85-3.525-20.689,1.601-24.215,11.449
	c-3.525,9.848,1.601,20.689,11.45,24.215l31.216,11.173l-14.293,6.758c-9.456,4.471-13.497,15.762-9.026,25.218
	c3.235,6.842,10.038,10.849,17.135,10.849c2.712,0,5.469-0.586,8.083-1.822l48.537-22.95l53.558,19.171
	c2.11,0.755,4.263,1.113,6.382,1.113c7.774,0,15.063-4.823,17.833-12.562C175.514,336.347,170.388,325.506,160.539,321.981z"/>
<g style="opacity:0.1;">
	<path d="M50.353,307.233c-0.839,0-1.692-0.142-2.527-0.44l-15.434-5.524c-3.899-1.396-5.93-5.689-4.534-9.589
		c1.396-3.899,5.691-5.931,9.589-4.534l15.434,5.524c3.899,1.396,5.93,5.689,4.534,9.589
		C56.317,305.323,53.431,307.233,50.353,307.233z"/>
	<path d="M46.126,351.254c-2.811,0-5.504-1.587-6.785-4.296c-1.771-3.745-0.17-8.216,3.574-9.986l15.637-7.394
		c3.742-1.772,8.215-0.171,9.986,3.574s0.17,8.216-3.574,9.986l-15.637,7.394C48.292,351.022,47.2,351.254,46.126,351.254z"/>
	<path d="M119.707,330.726c-0.839,0-1.692-0.142-2.527-0.441l-15.434-5.524c-3.9-1.396-5.93-5.689-4.534-9.588
		c1.396-3.9,5.691-5.931,9.589-4.534l15.434,5.525c3.9,1.396,5.93,5.689,4.534,9.588
		C125.671,328.817,122.785,330.726,119.707,330.726z"/>
</g>
<path style="fill:#AA715F;" d="M351.461,321.981l135.211-48.397c9.85-3.525,20.689,1.601,24.215,11.449
	c3.525,9.848-1.601,20.689-11.45,24.215l-31.216,11.173l14.293,6.758c9.456,4.471,13.497,15.762,9.026,25.218
	c-3.235,6.842-10.038,10.849-17.135,10.849c-2.712,0-5.469-0.586-8.083-1.822l-48.537-22.95l-53.558,19.171
	c-2.11,0.755-4.263,1.113-6.382,1.113c-7.774,0-15.063-4.823-17.833-12.562C336.486,336.347,341.612,325.506,351.461,321.981z"/>
<g style="opacity:0.1;">
	<path d="M461.648,307.233c-3.078,0-5.965-1.91-7.062-4.975c-1.395-3.9,0.635-8.193,4.534-9.589l15.434-5.524
		c3.899-1.397,8.193,0.634,9.589,4.534s-0.635,8.193-4.534,9.589l-15.434,5.524C463.34,307.091,462.486,307.233,461.648,307.233z"/>
	<path d="M465.874,351.254c-1.074,0-2.165-0.232-3.201-0.722l-15.637-7.394c-3.744-1.771-5.345-6.242-3.574-9.986
		c1.772-3.745,6.241-5.345,9.986-3.574l15.637,7.394c3.744,1.771,5.345,6.242,3.574,9.986
		C471.378,349.667,468.684,351.254,465.874,351.254z"/>
	<path d="M392.293,330.726c-3.078,0-5.964-1.91-7.062-4.975c-1.396-3.899,0.634-8.193,4.534-9.588l15.434-5.525
		c3.899-1.397,8.192,0.633,9.589,4.534c1.396,3.899-0.634,8.193-4.534,9.588l-15.434,5.524
		C393.985,330.585,393.132,330.726,392.293,330.726z"/>
</g>
<circle style="fill:#EEEDED;" cx="256" cy="174.225" r="155.13"/>
<path style="opacity:0.1;enable-background:new    ;" d="M273.538,301.232c-85.677,0-155.132-69.455-155.132-155.131
	c0-24.176,5.532-47.059,15.397-67.455c-20.633,26.342-32.935,59.523-32.935,95.577c0,85.677,69.455,155.132,155.132,155.132
	c61.501,0,114.641-35.79,139.735-87.676C367.338,277.933,323.16,301.232,273.538,301.232z"/>
<circle style="fill:#EEEDED;" cx="256" cy="365.215" r="127.69"/>
<g>
	<circle style="fill:#485458;" cx="256" cy="377.665" r="7.34"/>
	<circle style="fill:#485458;" cx="256" cy="422.655" r="7.34"/>
</g>
<path style="fill:#61C6AD;" d="M339.392,395.85h-31.883c-8.441,0-15.284-6.843-15.284-15.284v-70.401h62.45v70.402
	C354.675,389.008,347.833,395.85,339.392,395.85z"/>
<path style="opacity:0.1;enable-background:new    ;" d="M339.392,395.85h-31.883c-8.441,0-15.284-6.843-15.284-15.284v-70.401
	h62.45v70.402C354.675,389.008,347.833,395.85,339.392,395.85z"/>
<path style="opacity:0.1;enable-background:new    ;" d="M146.877,341.39c0-1.083,0.029-2.16,0.056-3.237
	c38.268,9.514,74.86,14.363,109.068,14.363c38.607,0,80.24-6.142,123.904-18.236c-5.348-21.493-16.14-40.831-30.83-56.468
	c-32.979,8.132-64.196,12.253-93.075,12.253c-28.646,0-59.597-4.061-92.283-12.064c0.491-0.856,0.979-1.715,1.489-2.558
	c-0.77,0.779-1.529,1.57-2.279,2.369c-0.001,0-0.001,0-0.002,0c-0.075,0.08-0.146,0.162-0.221,0.242
	c-21.328,22.819-34.39,53.46-34.39,87.159c0,70.519,57.167,127.686,127.686,127.686c46.387,0,86.995-24.738,109.356-61.74
	c-23.146,23.408-55.274,37.917-90.794,37.917C204.043,469.076,146.877,411.909,146.877,341.39z"/>
<path style="fill:#61C6AD;" d="M256,341.39c-42.002,0-87.579-7.25-135.465-21.548c-16.523-4.934-25.919-22.329-20.985-38.853
	s22.325-25.922,38.853-20.986c42.085,12.566,81.65,18.937,117.597,18.937s75.512-6.372,117.597-18.937
	c16.527-4.936,33.921,4.462,38.853,20.986c4.934,16.524-4.462,33.919-20.985,38.853C343.579,334.14,298.002,341.39,256,341.39z"/>
<g>
	<path style="fill:#485458;" d="M174.423,161.395c-4.143,0-7.5-3.358-7.5-7.5v-13.542c0-4.142,3.357-7.5,7.5-7.5s7.5,3.358,7.5,7.5
		v13.542C181.923,158.038,178.565,161.395,174.423,161.395z"/>
	<path style="fill:#485458;" d="M337.577,161.395c-4.142,0-7.5-3.358-7.5-7.5v-13.542c0-4.142,3.358-7.5,7.5-7.5
		c4.143,0,7.5,3.358,7.5,7.5v13.542C345.077,158.038,341.72,161.395,337.577,161.395z"/>
	<path style="fill:#485458;" d="M277.508,205.988c0,12.9-10.687,23.305-23.691,22.842c-12.386-0.441-22.024-10.996-22.024-23.39
		v-16.077c0-3.442,2.79-6.232,6.232-6.232h33.249c3.442,0,6.232,2.79,6.232,6.232v16.625H277.508z"/>
</g>
<circle style="fill:#E86478;" cx="254.65" cy="153.895" r="19.912"/>
<path style="opacity:0.2;fill:#FFFFFF;enable-background:new    ;" d="M126.589,321.6c19.08,5.482,37.786,9.847,56.029,13.057
	l56.204-56.204c-19.376-1.042-39.688-3.809-60.791-8.295L126.589,321.6z M373.597,260.003c-17.109,5.108-33.793,9.175-49.995,12.224
	l-69.147,69.147c0.513,0.002,1.033,0.017,1.545,0.017c23.747,0,48.639-2.321,74.444-6.92l70.068-70.068
	C392.958,259.087,383.136,257.154,373.597,260.003z"/>
<g>
</g>
<g>
</g>
<g>
</g>
<g>
</g>
<g>
</g>
<g>
</g>
<g>
</g>
<g>
</g>
<g>
</g>
<g>
</g>
<g>
</g>
<g>
</g>
<g>
</g>
<g>
</g>
<g>
</g>
</svg>
