<?xml version="1.0" encoding="iso-8859-1"?>
<!-- Generator: Adobe Illustrator 19.0.0, SVG Export Plug-In . SVG Version: 6.00 Build 0)  -->
<svg version="1.1" id="Capa_1" xmlns="http://www.w3.org/2000/svg" xmlns:xlink="http://www.w3.org/1999/xlink" x="0px" y="0px"
	 viewBox="0 0 512 512" style="enable-background:new 0 0 512 512;" xml:space="preserve">
<path style="fill:#EEEDED;" d="M300.982,512c-24.841,0-44.979-20.138-44.979-44.979v-318.16c0-32.479-26.424-58.903-58.903-58.903
	s-58.903,26.424-58.903,58.903c0,24.841-20.138,44.979-44.979,44.979s-44.979-20.138-44.979-44.979C48.239,66.779,115.018,0,197.1,0
	s148.861,66.779,148.861,148.861v318.16C345.961,491.862,325.823,512,300.982,512z"/>
<path style="fill:#E86478;" d="M171.868,2.149v93.498c7.653-3.643,16.207-5.69,25.232-5.69s17.579,2.046,25.232,5.69V2.149
	C214.128,0.742,205.699,0,197.1,0S180.072,0.742,171.868,2.149z M56.946,98.695l74.251,74.251c4.426-6.965,7-15.222,7-24.085
	c0-11.481,3.314-22.197,9.018-31.265L82.994,53.375C71.82,66.707,62.935,82.015,56.946,98.695z M256.003,281.987v71.368
	l89.958-89.958v-71.368L256.003,281.987z M256.003,467.021c0,16.203,8.571,30.401,21.424,38.318l68.534-68.534v-71.368
	l-89.958,89.957V467.021z M256.003,179.946l81.251-81.251c-5.989-16.68-14.874-31.989-26.048-45.32l-64.221,64.221
	c5.704,9.068,9.018,19.784,9.018,31.265V179.946z"/>
<path style="opacity:0.1;enable-background:new    ;" d="M70.991,148.861c0-78.255,60.697-142.6,137.485-148.43
	C204.721,0.146,200.927,0,197.1,0C115.018,0,48.239,66.779,48.239,148.861c0,24.841,20.138,44.979,44.979,44.979
	c3.931,0,7.742-0.507,11.376-1.454C85.262,187.346,70.991,169.771,70.991,148.861z"/>
<path style="opacity:0.1;enable-background:new    ;" d="M278.755,467.021v-318.16c0-38.336-21.639-65.449-66.478-65.449
	c-12.162,0-21.657,3.055-29.003,8.2c4.438-1.072,9.064-1.654,13.826-1.654c32.479,0,58.903,26.424,58.903,58.903v318.16
	c0,24.841,20.138,44.979,44.979,44.979c3.931,0,7.742-0.507,11.376-1.454C293.025,505.507,278.755,487.932,278.755,467.021z"/>
<g>
	<path style="fill:#F8CA4F;" d="M286.274,284.31c38.12,38.12,84.925,96.411,98.164,144.736c2.418,8.826-2.684,17.964-11.451,20.588
		l-38.232,11.445c-10.256,3.07-20.73-4.057-21.649-14.724c-2.93-33.99-12.818-101.698-45.975-142.903L286.274,284.31z"/>
	<path style="fill:#F8CA4F;" d="M286.274,284.31c38.12,38.12,96.411,84.925,144.736,98.164c8.826,2.418,17.964-2.683,20.588-11.451
		l11.445-38.232c3.07-10.256-4.057-20.73-14.724-21.649c-33.99-2.93-101.698-12.818-142.903-45.975L286.274,284.31z"/>
</g>
<path style="opacity:0.1;enable-background:new    ;" d="M286.274,284.31c38.12,38.12,84.925,96.411,98.164,144.736
	c2.418,8.826-2.684,17.964-11.451,20.588l-38.232,11.445c-10.256,3.07-20.73-4.057-21.649-14.724
	c-2.93-33.99-12.818-101.698-45.975-142.903L286.274,284.31z"/>
<path style="opacity:0.1;enable-background:new    ;" d="M286.274,284.31c38.12,38.12,96.411,84.925,144.736,98.164
	c8.826,2.418,17.964-2.683,20.588-11.451l11.445-38.232c3.07-10.256-4.057-20.73-14.724-21.649
	c-33.99-2.93-101.698-12.818-142.903-45.975L286.274,284.31z"/>
<g>
	<path style="fill:#F8CA4F;" d="M286.274,284.31c26.431,26.431-10.847,106.561-37.278,132.992s-69.283,26.431-95.714,0
		s-26.431-69.283,0-95.714S259.843,257.879,286.274,284.31z"/>
	<path style="fill:#F8CA4F;" d="M286.274,284.31c-26.431-26.431,10.847-106.561,37.278-132.992
		c26.431-26.431,69.283-26.431,95.714,0s26.431,69.283,0,95.714C392.835,273.462,312.704,310.74,286.274,284.31z"/>
</g>
<g style="opacity:0.1;">
	<path d="M198.486,341.763c-2.025,0-4.042-0.815-5.521-2.422c-2.804-3.049-2.607-7.793,0.441-10.598
		c10.165-9.352,54.668-37.001,72.813-44.378c3.838-1.561,8.212,0.287,9.772,4.123c1.56,3.837-0.286,8.212-4.124,9.772
		c-16.288,6.622-59.315,33.251-68.306,41.521C202.121,341.108,200.301,341.763,198.486,341.763z"/>
	<path d="M236.318,379.6c-1.815,0-3.635-0.655-5.076-1.98c-3.048-2.805-3.246-7.549-0.441-10.598
		c8.27-8.989,34.899-52.016,41.521-68.306c1.56-3.837,5.936-5.683,9.772-4.123c3.838,1.56,5.684,5.935,4.124,9.772
		c-7.378,18.147-35.028,62.65-44.378,72.813C240.36,378.785,238.342,379.6,236.318,379.6z"/>
</g>
<g style="opacity:0.1;">
	<path d="M293.275,274.581c-0.94,0-1.897-0.178-2.821-0.554c-3.838-1.56-5.684-5.935-4.124-9.772
		c7.378-18.147,35.027-62.65,44.378-72.813c2.805-3.048,7.55-3.246,10.598-0.441c3.048,2.805,3.246,7.549,0.441,10.598
		c-8.27,8.988-34.898,52.016-41.521,68.306C299.042,272.816,296.236,274.581,293.275,274.581z"/>
	<path d="M303.507,284.807c-2.962,0-5.767-1.765-6.951-4.678c-1.56-3.837,0.287-8.212,4.124-9.772
		c16.29-6.622,59.317-33.251,68.306-41.52c3.047-2.805,7.791-2.608,10.598,0.441c2.805,3.048,2.607,7.793-0.441,10.597
		c-10.163,9.351-54.666,37.001-72.814,44.378C305.403,284.629,304.447,284.807,303.507,284.807z"/>
</g>
<circle style="fill:#F8CA4F;" cx="286.27" cy="284.31" r="34.624"/>
<circle style="opacity:0.2;fill:#FFFFFF;enable-background:new    ;" cx="286.27" cy="284.31" r="34.624"/>
<g>
</g>
<g>
</g>
<g>
</g>
<g>
</g>
<g>
</g>
<g>
</g>
<g>
</g>
<g>
</g>
<g>
</g>
<g>
</g>
<g>
</g>
<g>
</g>
<g>
</g>
<g>
</g>
<g>
</g>
</svg>
