<?xml version="1.0" encoding="iso-8859-1"?>
<!-- Generator: Adobe Illustrator 19.0.0, SVG Export Plug-In . SVG Version: 6.00 Build 0)  -->
<svg version="1.1" id="Capa_1" xmlns="http://www.w3.org/2000/svg" xmlns:xlink="http://www.w3.org/1999/xlink" x="0px" y="0px"
	 viewBox="0 0 512 512" style="enable-background:new 0 0 512 512;" xml:space="preserve">
<path style="fill:#AA715F;" d="M404.933,185.784c0-82.429-66.964-149.217-149.46-148.932
	c-82.312,0.285-148.406,68.236-148.406,150.548v116.08c0,16.53,13.4,29.931,29.931,29.931h238.004
	c16.53,0,29.931-13.4,29.931-29.931V185.784z"/>
<rect x="125.78" y="185.78" style="opacity:0.1;enable-background:new    ;" width="260.45" height="130.22"/>
<g>
	<path style="fill:#EEEDED;" d="M98.794,263.831c-17.309-5.22-35.292,5.847-38.432,23.651L60.13,288.8
		c-2.894,16.413,8.065,32.065,24.478,34.959l37.981,6.697c-16.647-2.935-32.509,8.408-35.021,25.233
		c-2.707,18.13,11.849,34.292,30.178,34.555l62.775,0.9c5.84,0.084,10.878-4.082,11.892-9.834l13.106-74.329
		c1.047-5.938-2.512-11.721-8.285-13.462L98.794,263.831z"/>
	<path style="fill:#EEEDED;" d="M413.206,263.831c17.309-5.22,35.292,5.847,38.432,23.651l0.232,1.318
		c2.894,16.413-8.065,32.065-24.478,34.959l-37.981,6.697c16.647-2.935,32.509,8.408,35.021,25.233
		c2.707,18.13-11.849,34.292-30.178,34.555l-62.775,0.9c-5.84,0.084-10.878-4.082-11.892-9.834l-13.106-74.329
		c-1.047-5.938,2.512-11.721,8.285-13.462L413.206,263.831z"/>
</g>
<path style="opacity:0.1;enable-background:new    ;" d="M331.62,302.011c9.487-6.074,18.192-13.267,25.95-21.402l-42.805,12.909
	c-5.773,1.741-9.332,7.524-8.285,13.462l13.106,74.329c1.014,5.752,6.052,9.918,11.892,9.834l32.067-0.46v-12.227
	C363.546,349.705,351.824,322.073,331.62,302.011z"/>
<path style="opacity:0.1;enable-background:new    ;" d="M180.38,302.011c-9.487-6.074-18.192-13.267-25.95-21.402l42.805,12.909
	c5.773,1.741,9.332,7.524,8.285,13.462l-13.106,74.329c-1.014,5.752-6.052,9.918-11.892,9.834l-32.067-0.46v-12.227
	C148.454,349.705,160.176,322.073,180.38,302.011z"/>
<path style="fill:#92D2E7;" d="M221.693,505.33L221.693,505.33c-21.182-8.56-44.704-9.374-66.426-2.299l0,0
	c-14.434,4.701-26.056-12.372-16.388-24.076l0,0c12.739-15.423,19.707-34.802,19.707-54.806V379.68
	c0-53.714,42.963-98.236,96.675-98.634c54.139-0.401,98.153,43.365,98.153,97.411v45.692c0,20.004,6.968,39.383,19.707,54.806l0,0
	c9.667,11.704-1.954,28.777-16.388,24.076l0,0c-21.723-7.075-45.245-6.261-66.426,2.299l0,0
	C268.3,514.223,243.7,514.223,221.693,505.33z"/>
<path style="opacity:0.05;enable-background:new    ;" d="M246.191,360.953c-7.216-11.985-22.781-15.854-34.765-8.637
	l-18.936,11.399c-0.004,0.002-0.007,0.005-0.011,0.007l-33.894,20.405v40.022c0,4.47-0.367,8.906-1.05,13.276
	c2.211,0.294,4.465,0.311,6.704,0.01c3.326-0.447,6.619-1.567,9.677-3.409l44.689-26.904c0.004-0.002,0.007-0.004,0.011-0.006
	l18.936-11.399C249.539,388.502,253.406,372.938,246.191,360.953z"/>
<path style="opacity:0.05;enable-background:new    ;" d="M265.809,360.953c7.216-11.985,22.781-15.854,34.765-8.637l18.936,11.399
	c0.004,0.002,0.007,0.005,0.011,0.007l33.894,20.405v40.022c0,4.47,0.367,8.906,1.05,13.276c-2.211,0.294-4.465,0.311-6.704,0.01
	c-3.326-0.447-6.619-1.567-9.677-3.409l-44.689-26.904c-0.004-0.002-0.007-0.004-0.011-0.006l-18.936-11.399
	C262.461,388.502,258.594,372.938,265.809,360.953z"/>
<path style="opacity:0.1;enable-background:new    ;" d="M255.261,281.045c-26.75,0.198-50.831,11.343-68.27,29.114
	C207,322.688,230.652,329.938,256,329.938c25.464,0,49.217-7.316,69.283-19.95C307.464,291.957,282.662,280.842,255.261,281.045z"/>
<path style="fill:#F7C2AD;" d="M386.223,185.784c0,71.92-58.303,125.158-130.223,125.158s-130.223-53.237-130.223-125.158
	c0-71.92,58.303-130.223,130.223-130.223S386.223,113.864,386.223,185.784z"/>
<path style="opacity:0.1;enable-background:new    ;" d="M256,55.561c-68.052,0-123.902,52.203-129.714,118.747
	c51.134,0.235,191.257-0.384,250.533-37.182C357.544,89.311,310.717,55.561,256,55.561z"/>
<path style="fill:#AA715F;" d="M386.223,124.564c-54.445,45.254-218.918,38.878-266.208,38.613
	c0-46.064,48.813-120.298,135.984-120.298C337.953,42.879,376.67,103.982,386.223,124.564z"/>
<path style="fill:#F7C2AD;" d="M208.942,397.888c-9.709,1.305-19.714-3.119-25.088-12.045c-7.215-11.985-3.348-27.549,8.637-34.765
	l18.936-11.399c11.984-7.216,27.548-3.348,34.765,8.637c7.215,11.985,3.348,27.549-8.637,34.765l-18.936,11.399
	C215.56,396.321,212.268,397.44,208.942,397.888z"/>
<path style="fill:#92D2E7;" d="M218.619,394.479l-44.701,26.911c-3.059,1.842-6.351,2.962-9.677,3.409
	c-9.709,1.305-19.714-3.118-25.087-12.044c-7.215-11.985-3.349-27.549,8.636-34.764l44.701-26.911L218.619,394.479z"/>
<path style="opacity:0.1;enable-background:new    ;" d="M218.619,394.479l-44.701,26.911c-3.059,1.842-6.351,2.962-9.677,3.409
	c-9.709,1.305-19.714-3.118-25.087-12.044c-7.215-11.985-3.349-27.549,8.636-34.764l44.701-26.911L218.619,394.479z"/>
<path style="fill:#F7C2AD;" d="M303.058,397.888c9.709,1.305,19.714-3.119,25.088-12.045c7.215-11.985,3.348-27.549-8.637-34.765
	l-18.936-11.399c-11.984-7.216-27.548-3.348-34.765,8.637c-7.215,11.985-3.348,27.549,8.637,34.765l18.936,11.399
	C296.44,396.321,299.732,397.44,303.058,397.888z"/>
<path style="fill:#92D2E7;" d="M293.381,394.479l44.701,26.911c3.059,1.842,6.351,2.962,9.677,3.409
	c9.709,1.305,19.714-3.118,25.087-12.044c7.215-11.985,3.349-27.549-8.636-34.764l-44.701-26.911L293.381,394.479z"/>
<path style="opacity:0.1;enable-background:new    ;" d="M293.381,394.479l44.701,26.911c3.059,1.842,6.351,2.962,9.677,3.409
	c9.709,1.305,19.714-3.118,25.087-12.044c7.215-11.985,3.349-27.549-8.636-34.764l-44.701-26.911L293.381,394.479z"/>
<g>
	<path style="fill:#485458;" d="M198.511,201.485c-4.142,0-7.5-3.358-7.5-7.5v-9.542c0-4.142,3.358-7.5,7.5-7.5s7.5,3.358,7.5,7.5
		v9.542C206.011,198.127,202.653,201.485,198.511,201.485z"/>
	<path style="fill:#485458;" d="M313.489,201.485c-4.142,0-7.5-3.358-7.5-7.5v-9.542c0-4.142,3.358-7.5,7.5-7.5s7.5,3.358,7.5,7.5
		v9.542C320.989,198.127,317.631,201.485,313.489,201.485z"/>
	<path style="fill:#485458;" d="M256,208.813c-7.977,0-15.562-3.454-20.811-9.477c-2.721-3.123-2.396-7.86,0.726-10.582
		c3.123-2.721,7.86-2.396,10.582,0.727c2.399,2.753,5.863,4.333,9.502,4.333c3.64,0,7.103-1.579,9.502-4.333
		c2.721-3.123,7.458-3.448,10.582-0.727c3.122,2.722,3.448,7.459,0.727,10.582C271.562,205.359,263.977,208.813,256,208.813z"/>
</g>
<path style="fill:#F8CA4F;" d="M255.473,73.705c-45.321,0-91.202-12.658-91.202-36.852S210.152,0,255.473,0
	s91.202,12.659,91.202,36.853C346.675,61.046,300.794,73.705,255.473,73.705z M255.473,15c-49.305,0-76.202,14.435-76.202,21.853
	c0,7.417,26.897,21.852,76.202,21.852s76.202-14.436,76.202-21.852C331.675,29.435,304.778,15,255.473,15z"/>
<g>
</g>
<g>
</g>
<g>
</g>
<g>
</g>
<g>
</g>
<g>
</g>
<g>
</g>
<g>
</g>
<g>
</g>
<g>
</g>
<g>
</g>
<g>
</g>
<g>
</g>
<g>
</g>
<g>
</g>
</svg>
