<?xml version="1.0" encoding="iso-8859-1"?>
<!-- Generator: Adobe Illustrator 19.0.0, SVG Export Plug-In . SVG Version: 6.00 Build 0)  -->
<svg version="1.1" id="Capa_1" xmlns="http://www.w3.org/2000/svg" xmlns:xlink="http://www.w3.org/1999/xlink" x="0px" y="0px"
	 viewBox="0 0 512.001 512.001" style="enable-background:new 0 0 512.001 512.001;" xml:space="preserve">
<g>
	<path style="fill:#92D2E7;" d="M221.828,241.169c-4.95,0-9.9-1.888-13.676-5.665l-100.111-100.11
		c-7.553-7.554-7.553-19.799,0-27.353c7.554-7.553,19.8-7.553,27.353,0l100.11,100.11c7.553,7.554,7.553,19.799,0,27.353
		C231.727,239.281,226.778,241.169,221.828,241.169z"/>
	<path style="fill:#92D2E7;" d="M121.717,409.626c-4.95,0-9.899-1.888-13.676-5.665c-7.553-7.554-7.553-19.799,0-27.353
		l100.11-100.11c7.553-7.553,19.799-7.553,27.353,0c7.553,7.554,7.553,19.799,0,27.353l-100.11,100.11
		C131.617,407.738,126.667,409.626,121.717,409.626z"/>
	<path style="fill:#92D2E7;" d="M390.285,409.626c-4.95,0-9.9-1.888-13.677-5.665l-100.11-100.11
		c-7.553-7.554-7.553-19.799,0-27.353c7.554-7.553,19.8-7.553,27.353,0l100.11,100.11c7.553,7.554,7.553,19.799,0,27.353
		C400.184,407.738,395.235,409.626,390.285,409.626z"/>
	<path style="fill:#92D2E7;" d="M290.174,241.169c-4.95,0-9.9-1.888-13.676-5.665c-7.553-7.554-7.553-19.799,0-27.353l100.11-100.11
		c7.553-7.553,19.799-7.553,27.353,0c7.553,7.554,7.553,19.799,0,27.353l-100.11,100.11
		C300.074,239.281,295.124,241.169,290.174,241.169z"/>
</g>
<g style="opacity:0.1;">
	<path d="M221.828,241.169c-4.95,0-9.9-1.888-13.676-5.665l-100.111-100.11c-7.553-7.554-7.553-19.799,0-27.353
		c7.554-7.553,19.8-7.553,27.353,0l100.11,100.11c7.553,7.554,7.553,19.799,0,27.353
		C231.727,239.281,226.778,241.169,221.828,241.169z"/>
	<path d="M121.717,409.626c-4.95,0-9.899-1.888-13.676-5.665c-7.553-7.554-7.553-19.799,0-27.353l100.11-100.11
		c7.553-7.553,19.799-7.553,27.353,0c7.553,7.554,7.553,19.799,0,27.353l-100.11,100.11
		C131.617,407.738,126.667,409.626,121.717,409.626z"/>
	<path d="M390.285,409.626c-4.95,0-9.9-1.888-13.677-5.665l-100.11-100.11c-7.553-7.554-7.553-19.799,0-27.353
		c7.554-7.553,19.8-7.553,27.353,0l100.11,100.11c7.553,7.554,7.553,19.799,0,27.353
		C400.184,407.738,395.235,409.626,390.285,409.626z"/>
	<path d="M290.174,241.169c-4.95,0-9.9-1.888-13.676-5.665c-7.553-7.554-7.553-19.799,0-27.353l100.11-100.11
		c7.553-7.553,19.799-7.553,27.353,0c7.553,7.554,7.553,19.799,0,27.353l-100.11,100.11
		C300.074,239.281,295.124,241.169,290.174,241.169z"/>
</g>
<g>
	<path style="fill:#92D2E7;" d="M256.001,323.671c-37.314,0-67.67-30.356-67.67-67.67s30.356-67.67,67.67-67.67
		s67.67,30.356,67.67,67.67S293.315,323.671,256.001,323.671z M256.001,227.014c-15.984,0-28.987,13.004-28.987,28.987
		s13.004,28.987,28.987,28.987s28.987-13.004,28.987-28.987S271.985,227.014,256.001,227.014z"/>
	<path style="fill:#92D2E7;" d="M256.001,227.014c-10.682,0-19.341-8.659-19.341-19.341V67.001c0-10.682,8.659-19.341,19.341-19.341
		c10.682,0,19.341,8.659,19.341,19.341v140.672C275.342,218.355,266.683,227.014,256.001,227.014z"/>
	<path style="fill:#92D2E7;" d="M256.001,165.637c-4.95,0-9.9-1.888-13.676-5.665l-47.659-47.659
		c-7.553-7.553-7.553-19.799,0-27.353c7.553-7.553,19.8-7.553,27.353,0l33.982,33.983l33.982-33.983
		c7.553-7.553,19.8-7.553,27.353,0c7.553,7.554,7.553,19.799,0,27.353l-47.659,47.659
		C265.901,163.749,260.951,165.637,256.001,165.637z"/>
	<path style="fill:#92D2E7;" d="M256.001,86.342c-4.95,0-9.9-1.888-13.676-5.665l-47.659-47.659c-7.553-7.554-7.553-19.8,0-27.353
		s19.8-7.553,27.353,0l33.982,33.984l33.982-33.983c7.553-7.553,19.8-7.553,27.353,0s7.553,19.799,0,27.353l-47.659,47.659
		C265.901,84.454,260.951,86.342,256.001,86.342z"/>
	<path style="fill:#92D2E7;" d="M207.673,275.342H67.001c-10.682,0-19.341-8.659-19.341-19.341c0-10.682,8.659-19.341,19.341-19.341
		h140.672c10.682,0,19.341,8.659,19.341,19.341C227.014,266.683,218.355,275.342,207.673,275.342z"/>
	<path style="fill:#92D2E7;" d="M98.637,323.001c-4.95,0-9.899-1.888-13.677-5.665c-7.553-7.554-7.553-19.799,0-27.353
		l33.983-33.982l-33.982-33.982c-7.553-7.553-7.553-19.799,0-27.353c7.554-7.553,19.8-7.553,27.353,0l47.659,47.659
		c7.553,7.554,7.553,19.799,0,27.353l-47.659,47.659C108.537,321.113,103.587,323.001,98.637,323.001z"/>
	<path style="fill:#92D2E7;" d="M19.342,323.001c-4.95,0-9.9-1.888-13.677-5.665c-7.553-7.554-7.553-19.799,0-27.353l33.984-33.982
		L5.666,222.019c-7.553-7.553-7.553-19.799,0-27.353c7.554-7.553,19.8-7.553,27.353,0l47.659,47.659
		c7.553,7.554,7.553,19.799,0,27.353l-47.659,47.659C29.242,321.113,24.292,323.001,19.342,323.001z"/>
	<path style="fill:#92D2E7;" d="M256.001,464.342c-10.682,0-19.341-8.659-19.341-19.341V304.329
		c0-10.682,8.659-19.341,19.341-19.341c10.682,0,19.341,8.659,19.341,19.341v140.672
		C275.342,455.683,266.683,464.342,256.001,464.342z"/>
	<path style="fill:#92D2E7;" d="M303.66,432.706c-4.95,0-9.9-1.888-13.676-5.665l-33.983-33.982l-33.982,33.983
		c-7.553,7.553-19.8,7.553-27.353,0c-7.553-7.554-7.553-19.799,0-27.353l47.659-47.659c7.553-7.553,19.8-7.553,27.353,0
		l47.659,47.659c7.553,7.553,7.553,19.799,0,27.353C313.56,430.818,308.609,432.706,303.66,432.706z"/>
	<path style="fill:#92D2E7;" d="M303.66,512.001c-4.95,0-9.9-1.888-13.676-5.665l-33.983-33.982l-33.982,33.983
		c-7.553,7.553-19.8,7.553-27.353,0c-7.553-7.553-7.553-19.799,0-27.353l47.659-47.659c7.553-7.553,19.8-7.553,27.353,0
		l47.659,47.659c7.553,7.554,7.553,19.799,0,27.353C313.56,510.113,308.609,512.001,303.66,512.001z"/>
	<path style="fill:#92D2E7;" d="M445.001,275.342H304.329c-10.682,0-19.341-8.659-19.341-19.341
		c0-10.682,8.659-19.341,19.341-19.341h140.672c10.682,0,19.341,8.659,19.341,19.341
		C464.342,266.683,455.683,275.342,445.001,275.342z"/>
	<path style="fill:#92D2E7;" d="M413.365,323.001c-4.95,0-9.9-1.888-13.677-5.665l-47.659-47.659
		c-7.553-7.554-7.553-19.799,0-27.353l47.659-47.659c7.553-7.553,19.799-7.553,27.353,0c7.553,7.554,7.553,19.799,0,27.353
		l-33.982,33.983l33.983,33.982c7.553,7.553,7.553,19.799,0,27.353C423.264,321.113,418.315,323.001,413.365,323.001z"/>
	<path style="fill:#92D2E7;" d="M492.66,323.001c-4.95,0-9.9-1.888-13.676-5.665l-47.659-47.659c-7.553-7.554-7.553-19.799,0-27.353
		l47.659-47.659c7.553-7.553,19.799-7.553,27.353,0c7.553,7.554,7.553,19.799,0,27.353l-33.983,33.983l33.983,33.982
		c7.553,7.553,7.553,19.799,0,27.353C502.559,321.113,497.609,323.001,492.66,323.001z"/>
</g>
<g>
</g>
<g>
</g>
<g>
</g>
<g>
</g>
<g>
</g>
<g>
</g>
<g>
</g>
<g>
</g>
<g>
</g>
<g>
</g>
<g>
</g>
<g>
</g>
<g>
</g>
<g>
</g>
<g>
</g>
</svg>
