<?xml version="1.0" encoding="iso-8859-1"?>
<!-- Generator: Adobe Illustrator 19.0.0, SVG Export Plug-In . SVG Version: 6.00 Build 0)  -->
<svg version="1.1" id="Capa_1" xmlns="http://www.w3.org/2000/svg" xmlns:xlink="http://www.w3.org/1999/xlink" x="0px" y="0px"
	 viewBox="0 0 512 512" style="enable-background:new 0 0 512 512;" xml:space="preserve">
<path style="fill:#F8CA4F;" d="M256,75.116c-20.71,0-37.559-16.849-37.559-37.558S235.29,0,256,0s37.559,16.849,37.559,37.558
	S276.71,75.116,256,75.116z M256,15c-12.438,0-22.559,10.12-22.559,22.558S243.562,60.116,256,60.116
	c12.439,0,22.559-10.12,22.559-22.558S268.439,15,256,15z"/>
<path style="opacity:0.1;enable-background:new    ;" d="M256,75.116c-20.71,0-37.559-16.849-37.559-37.558S235.29,0,256,0
	s37.559,16.849,37.559,37.558S276.71,75.116,256,75.116z M256,15c-12.438,0-22.559,10.12-22.559,22.558S243.562,60.116,256,60.116
	c12.439,0,22.559-10.12,22.559-22.558S268.439,15,256,15z"/>
<rect x="214.73" y="112.18" style="fill:#92D2E7;" width="82.55" height="56.59"/>
<rect x="214.73" y="112.18" style="opacity:0.1;enable-background:new    ;" width="82.55" height="56.59"/>
<path style="fill:#F8CA4F;" d="M299.701,112.181h-87.402c-5.426,0-9.824-4.398-9.824-9.824V77.44c0-5.425,4.398-9.824,9.824-9.824
	h87.402c5.425,0,9.824,4.398,9.824,9.824v24.917C309.525,107.783,305.127,112.181,299.701,112.181z"/>
<path style="fill:#EEEDED;" d="M243.95,506.189c6.122,7.748,17.978,7.748,24.1,0c42.423-53.691,140.189-79.419,158.308-190.254
	C442.681,216.094,376.441,140.478,256,140.478S69.319,216.094,85.642,315.935C103.761,426.77,201.527,452.497,243.95,506.189z"/>
<path style="fill:#61C6AD;" d="M424.305,249.27c-20.618,28.029-53.386,56.448-105.921,83.763
	c-79.929,41.559-107.162,93.782-116.052,135.208c15.967,12.049,30.577,24.016,41.524,37.831c6.171,7.789,18.03,7.918,24.19,0.121
	c42.422-53.694,140.192-79.42,158.311-190.257C430.255,292.098,429.435,269.647,424.305,249.27z"/>
<path style="fill:#92D2E7;" d="M256,140.478c-120.441,0-186.681,75.616-170.358,175.457c3.159,19.324,8.741,36.059,16.026,50.808
	c10.304-40.299,38.698-89.323,114.529-128.751c55.058-28.627,88.402-58.467,108.805-87.799
	C304.613,143.887,281.53,140.478,256,140.478z"/>
<path style="opacity:0.1;enable-background:new    ;" d="M267.706,482.433c-43.45-52.864-140.189-79.419-158.308-190.253
	c-7.352-44.974,2.055-85.027,25.615-115.472c-40.532,31.583-58.835,81.33-49.37,139.227
	c18.12,110.835,115.885,136.563,158.309,190.254c6.122,7.748,17.977,7.748,24.1,0c4.376-5.538,9.348-10.776,14.754-15.844
	C277.702,490.327,272.131,487.818,267.706,482.433z"/>
<path style="opacity:0.1;enable-background:new    ;" d="M216.454,102.357V77.44c0-5.425,4.398-9.824,9.824-9.824h-13.979
	c-5.426,0-9.824,4.398-9.824,9.824v24.917c0,5.425,4.398,9.824,9.824,9.824h13.979C220.852,112.181,216.454,107.783,216.454,102.357
	z"/>
<g>
	<path style="fill:#485458;" d="M192.683,300.918c-4.143,0-7.5-3.358-7.5-7.5v-10.511c0-4.142,3.357-7.5,7.5-7.5s7.5,3.358,7.5,7.5
		v10.511C200.183,297.56,196.825,300.918,192.683,300.918z"/>
	<path style="fill:#485458;" d="M319.317,300.918c-4.143,0-7.5-3.358-7.5-7.5v-10.511c0-4.142,3.357-7.5,7.5-7.5s7.5,3.358,7.5,7.5
		v10.511C326.817,297.56,323.46,300.918,319.317,300.918z"/>
	<path style="fill:#485458;" d="M256,308.989c-8.566,0-16.712-3.71-22.348-10.178c-2.722-3.123-2.396-7.86,0.728-10.581
		c3.121-2.721,7.86-2.396,10.581,0.727c2.787,3.198,6.811,5.032,11.039,5.032c4.229,0,8.252-1.834,11.039-5.032
		c2.721-3.124,7.458-3.45,10.581-0.727c3.123,2.721,3.449,7.458,0.728,10.581C272.712,305.28,264.566,308.989,256,308.989z"/>
</g>
<g>
	<path style="fill:#FFFFFF;" d="M390.272,237.876c-2.671,0-5.255-1.429-6.61-3.945c-3.236-6.011-7.135-11.713-11.585-16.95
		c-8.325-9.797-18.815-18.159-31.177-24.854c-3.643-1.972-4.996-6.524-3.023-10.167c1.972-3.642,6.523-4.998,10.166-3.023
		c14.001,7.582,25.933,17.114,35.464,28.331c5.131,6.037,9.627,12.615,13.362,19.551c1.964,3.647,0.6,8.195-3.048,10.16
		C392.69,237.587,391.472,237.876,390.272,237.876z"/>
	<path style="fill:#FFFFFF;" d="M403.307,303.887c-0.17,0-0.34-0.006-0.512-0.018c-4.133-0.278-7.257-3.853-6.98-7.986
		c0.872-12.95-0.037-25.317-2.702-36.76c-0.94-4.034,1.569-8.066,5.604-9.006c4.034-0.939,8.066,1.569,9.006,5.604
		c3.001,12.888,4.03,26.739,3.06,41.169C410.516,300.852,407.219,303.887,403.307,303.887z"/>
</g>
<g>
</g>
<g>
</g>
<g>
</g>
<g>
</g>
<g>
</g>
<g>
</g>
<g>
</g>
<g>
</g>
<g>
</g>
<g>
</g>
<g>
</g>
<g>
</g>
<g>
</g>
<g>
</g>
<g>
</g>
</svg>
