<?xml version="1.0" encoding="iso-8859-1"?>
<!-- Generator: Adobe Illustrator 19.0.0, SVG Export Plug-In . SVG Version: 6.00 Build 0)  -->
<svg version="1.1" id="Capa_1" xmlns="http://www.w3.org/2000/svg" xmlns:xlink="http://www.w3.org/1999/xlink" x="0px" y="0px"
	 viewBox="0 0 512 512" style="enable-background:new 0 0 512 512;" xml:space="preserve">
<path style="fill:#61C6AD;" d="M331.687,39.406L331.687,39.406c-23.127,6.535-47.613,6.535-70.74,0l0,0
	c-13.132-3.711-25.114,8.685-20.959,21.684l22.986,71.904h66.685l22.986-71.904C356.801,48.091,344.819,35.695,331.687,39.406z"/>
<polygon style="opacity:0.1;enable-background:new    ;" points="250.535,94.08 262.974,132.994 329.66,132.994 342.099,94.08 "/>
<path style="fill:#61C6AD;" d="M296.317,135.455c116.428,0,188.58,78.793,210.812,161.436
	c25.379,94.343-48.927,176.369-210.812,176.369S60.126,391.235,85.505,296.892C107.737,214.248,179.889,135.455,296.317,135.455z"/>
<path style="opacity:0.1;enable-background:new    ;" d="M296.317,135.455c-29.486,0-56.127,5.061-79.842,13.951
	c4.036,6.131,10.975,10.181,18.865,10.181h121.956c7.889,0,14.829-4.05,18.865-10.181
	C352.445,140.516,325.803,135.455,296.317,135.455z"/>
<g style="opacity:0.1;">
	<path d="M248.044,175.349c-0.888,0-1.791-0.159-2.67-0.494c-3.87-1.475-5.813-5.808-4.338-9.679
		c5.004-13.131,28.672-35.169,39.296-38.489c3.962-1.233,8.161,0.969,9.396,4.922c1.236,3.954-0.968,8.16-4.921,9.395
		c-5.933,1.854-26.373,20.642-29.753,29.513C253.913,173.509,251.065,175.349,248.044,175.349z"/>
	<path d="M344.59,175.349c-3.021,0-5.869-1.839-7.01-4.831c-3.38-8.871-23.82-27.659-29.753-29.513
		c-3.953-1.235-6.157-5.442-4.921-9.395c1.234-3.954,5.44-6.153,9.395-4.922c10.624,3.32,34.292,25.358,39.296,38.489
		c1.475,3.871-0.468,8.204-4.338,9.679C346.381,175.19,345.478,175.349,344.59,175.349z"/>
	<path d="M296.317,169.507c-4.143,0-7.5-3.358-7.5-7.5v-30.789c0-4.142,3.357-7.5,7.5-7.5s7.5,3.358,7.5,7.5v30.789
		C303.817,166.149,300.46,169.507,296.317,169.507z"/>
</g>
<path style="opacity:0.1;enable-background:new    ;" d="M327.585,443.56c-161.885,0-236.191-82.026-210.812-176.369
	c8.42-31.302,24.008-62.047,46.445-88.172c-39.62,30.535-65.816,73.649-77.713,117.873
	c-25.379,94.343,48.927,176.369,210.812,176.369c95.062,0,159.907-28.292,192.119-70.746
	C452.154,427.947,398.205,443.56,327.585,443.56z"/>
<path style="fill:#AA715F;" d="M348.878,144.668H243.756c-10.746,0-19.457-8.711-19.457-19.457l0,0
	c0-10.746,8.711-19.457,19.457-19.457h105.121c10.746,0,19.457,8.711,19.457,19.457l0,0
	C368.335,135.957,359.623,144.668,348.878,144.668z"/>
<path style="opacity:0.1;enable-background:new    ;" d="M271.025,105.754l-36.557,36.557c2.76,1.503,5.924,2.357,9.288,2.357h9.569
	l38.914-38.914H271.025z M348.878,105.754h-18.071l-38.915,38.914h21.214l38.674-38.674
	C350.831,105.852,349.867,105.754,348.878,105.754z"/>
<path style="opacity:0.1;enable-background:new    ;" d="M357.657,136.581H252.536c-10.746,0-19.457-8.711-19.457-19.457
	c0-3.478,0.923-6.735,2.522-9.56c-6.666,3.087-11.301,9.818-11.301,17.647c0,10.746,8.711,19.457,19.457,19.457h105.121
	c7.268,0,13.595-3.993,16.935-9.897C363.329,135.921,360.573,136.581,357.657,136.581z"/>
<path style="fill:#E86478;" d="M189.345,355.098H14.907v108.81c0,5.166,4.188,9.353,9.353,9.353h155.732
	c5.166,0,9.353-4.188,9.353-9.353L189.345,355.098L189.345,355.098z"/>
<g>
	<path style="fill:#F8CA4F;" d="M72.655,355.098l-57.748,57.748v40.145l97.894-97.894H72.655V355.098z M74.749,473.261h40.145
		l74.451-74.451v-40.145L74.749,473.261z"/>
	<path style="fill:#F8CA4F;" d="M30.184,263.96c-11.52,11.52-11.521,30.199,0,41.719c21.638,21.638,49.751,28.995,71.395,29.676
		c-0.681-21.644-8.038-49.758-29.676-71.395C60.383,252.439,41.705,252.439,30.184,263.96z"/>
</g>
<path style="opacity:0.1;enable-background:new    ;" d="M62.324,289.432c-7.85-7.85-20.578-7.85-28.428,0
	c-3.829,3.829-5.777,8.817-5.87,13.834c0.669,0.833,1.386,1.64,2.159,2.413c15.593,15.593,34.549,23.768,52.023,27.375
	C80.847,319.16,75.445,302.553,62.324,289.432z"/>
<path style="fill:#F8CA4F;" d="M174.068,263.96c11.52,11.52,11.52,30.199,0,41.719c-21.638,21.638-49.751,28.995-71.395,29.676
	c0.681-21.644,8.038-49.758,29.676-71.395C143.869,252.439,162.548,252.439,174.068,263.96z"/>
<path style="opacity:0.1;enable-background:new    ;" d="M141.929,289.432c7.85-7.85,20.578-7.85,28.428,0
	c3.829,3.829,5.777,8.817,5.87,13.834c-0.669,0.833-1.386,1.64-2.159,2.413c-15.593,15.593-34.549,23.768-52.023,27.375
	C123.405,319.16,128.807,302.553,141.929,289.432z"/>
<path style="fill:#E86478;" d="M195.029,355.098H9.223c-5.094,0-9.223-4.129-9.223-9.223v-28.94c0-5.094,4.129-9.223,9.223-9.223
	h185.806c5.094,0,9.223,4.129,9.223,9.223v28.94C204.252,350.968,200.123,355.098,195.029,355.098z"/>
<rect x="14.907" y="355.1" style="opacity:0.1;enable-background:new    ;" width="174.44" height="15.353"/>
<g>
	<path style="fill:#485458;" d="M216.634,241.55c-4.143,0-7.5-3.358-7.5-7.5v-13.227c0-4.142,3.357-7.5,7.5-7.5s7.5,3.358,7.5,7.5
		v13.227C224.134,238.192,220.776,241.55,216.634,241.55z"/>
	<path style="fill:#485458;" d="M376,241.55c-4.143,0-7.5-3.358-7.5-7.5v-13.227c0-4.142,3.357-7.5,7.5-7.5s7.5,3.358,7.5,7.5
		v13.227C383.5,238.192,380.143,241.55,376,241.55z"/>
	<path style="fill:#485458;" d="M317.325,244.171c0,12.601-10.439,22.763-23.141,22.312c-12.098-0.43-21.512-10.741-21.512-22.847
		v-15.704c0-3.362,2.725-6.088,6.087-6.088h32.477c3.362,0,6.088,2.725,6.088,6.088L317.325,244.171L317.325,244.171z"/>
</g>
<g>
</g>
<g>
</g>
<g>
</g>
<g>
</g>
<g>
</g>
<g>
</g>
<g>
</g>
<g>
</g>
<g>
</g>
<g>
</g>
<g>
</g>
<g>
</g>
<g>
</g>
<g>
</g>
<g>
</g>
</svg>
