<?xml version="1.0" encoding="iso-8859-1"?>
<!-- Generator: Adobe Illustrator 19.0.0, SVG Export Plug-In . SVG Version: 6.00 Build 0)  -->
<svg version="1.1" id="Capa_1" xmlns="http://www.w3.org/2000/svg" xmlns:xlink="http://www.w3.org/1999/xlink" x="0px" y="0px"
	 viewBox="0 0 512 512" style="enable-background:new 0 0 512 512;" xml:space="preserve">
<path style="fill:#61C6AD;" d="M134.66,111.168l3.703-25.283c1.146-7.827-6.935-13.745-14.05-10.289l0,0
	c-10.345,5.024-21.888,7.06-33.327,5.876l0,0c-7.869-0.814-13.439,7.511-9.684,14.474l12.127,22.492L134.66,111.168z"/>
<path style="opacity:0.1;enable-background:new    ;" d="M134.66,111.168l3.703-25.283c1.146-7.827-6.935-13.745-14.05-10.289l0,0
	c-10.345,5.024-21.888,7.06-33.327,5.876l0,0c-7.869-0.814-13.439,7.511-9.684,14.474l12.127,22.492L134.66,111.168z"/>
<ellipse transform="matrix(-0.1736 -0.9848 0.9848 -0.1736 -36.6805 346.5485)" style="fill:#61C6AD;" cx="127.061" cy="188.664" rx="82.189" ry="88.919"/>
<path style="fill:#AA715F;" d="M146.653,286.304h98.679v-30.545c0-7.735-6.27-14.005-14.005-14.005h-84.674L146.653,286.304
	L146.653,286.304z"/>
<path style="fill:#E86478;" d="M294.596,252.582L294.596,252.582c-3.683,14.764-16.945,25.125-32.162,25.125h-39.998
	c-15.519,0-28.868-10.983-31.858-26.211l0,0c-9.818-49.999-53.647-86.058-104.601-86.058H58.179
	c-24.716,0-43.963,21.453-41.291,46.024l9.346,85.958c3.741,34.406,32.794,60.471,67.402,60.471h262.833
	c34.168,0,63.624-24.032,70.482-57.505l7.637-37.271c2.918-14.243-7.963-27.58-22.502-27.58h-95.669
	C306.093,235.535,297.094,242.565,294.596,252.582z"/>
<g>
	<path style="fill:#F8CA4F;" d="M412.086,235.535h-95.669c-10.324,0-19.323,7.029-21.822,17.047l0,0
		c-3.683,14.764-16.945,25.124-32.162,25.124h-39.998c-15.519,0-28.868-10.983-31.858-26.211
		c-9.818-49.999-53.647-86.058-104.601-86.058H58.179c-8.464,0-16.285,2.517-22.805,6.812
		c63.317,1.803,117.246,47.218,129.518,109.714l0,0c3.814,19.425,20.842,33.435,40.639,33.435h63.625
		c19.317,0,36.664-12.91,41.112-31.708c3.067-12.96,14.632-22.086,27.918-22.086h96.657
		C436.725,247.943,426.109,235.535,412.086,235.535z"/>
	<rect x="94.78" y="357.89" style="fill:#F8CA4F;" width="27.657" height="51.864"/>
	<rect x="308.22" y="357.89" style="fill:#F8CA4F;" width="27.657" height="51.864"/>
</g>
<polyline style="opacity:0.1;enable-background:new    ;" points="122.438,357.891 122.438,409.755 94.781,409.755 94.781,357.891 
	"/>
<polyline style="opacity:0.1;enable-background:new    ;" points="335.873,357.891 335.873,409.755 308.216,409.755 
	308.216,357.891 "/>
<path style="fill:#F8CA4F;" d="M350.067,437.412H13.828C6.191,437.412,0,431.221,0,423.584s6.191-13.828,13.828-13.828h336.239
	c56.647,0,108.749-30.858,135.975-80.534c3.671-6.698,12.076-9.152,18.773-5.48c6.697,3.671,9.151,12.076,5.481,18.773
	C478.214,401.049,416.818,437.412,350.067,437.412z"/>
<path style="opacity:0.1;enable-background:new    ;" d="M19.083,231.652l7.15,65.768c3.741,34.405,32.794,60.471,67.402,60.471
	h47.437C135.107,235.831,61.014,231.56,19.083,231.652z"/>
<path style="opacity:0.1;enable-background:new    ;" d="M352.437,357.891h4.031c34.168,0,63.624-24.032,70.482-57.505l2.831-13.817
	C400.935,287.424,355.7,299.273,352.437,357.891z"/>
<path style="opacity:0.1;enable-background:new    ;" d="M45.714,297.42l-9.346-85.958c-2.672-24.571,16.575-46.024,41.291-46.024
	h-19.48c-24.716,0-43.963,21.453-41.291,46.024l9.346,85.958c3.741,34.405,32.794,60.471,67.402,60.471h19.48
	C78.508,357.891,49.455,331.825,45.714,297.42z"/>
<g>
</g>
<g>
</g>
<g>
</g>
<g>
</g>
<g>
</g>
<g>
</g>
<g>
</g>
<g>
</g>
<g>
</g>
<g>
</g>
<g>
</g>
<g>
</g>
<g>
</g>
<g>
</g>
<g>
</g>
</svg>
