<?xml version="1.0" encoding="iso-8859-1"?>
<!-- Generator: Adobe Illustrator 19.0.0, SVG Export Plug-In . SVG Version: 6.00 Build 0)  -->
<svg version="1.1" id="Capa_1" xmlns="http://www.w3.org/2000/svg" xmlns:xlink="http://www.w3.org/1999/xlink" x="0px" y="0px"
	 viewBox="0 0 512 512" style="enable-background:new 0 0 512 512;" xml:space="preserve">
<g>
	<path style="fill:#495059;" d="M75.154,152.569c-0.377,0-0.758-0.028-1.141-0.087l-34.985-5.337
		c-4.095-0.624-6.908-4.45-6.283-8.545c0.625-4.096,4.466-6.905,8.545-6.283l34.985,5.337c4.095,0.624,6.908,4.45,6.283,8.545
		C81.992,149.911,78.796,152.569,75.154,152.569z"/>
	<path style="fill:#495059;" d="M106.287,66.826c-1.657,0-3.324-0.546-4.713-1.67L78.253,46.285
		c-3.22-2.605-3.718-7.328-1.112-10.548c2.604-3.219,7.327-3.72,10.548-1.112l23.321,18.871c3.22,2.605,3.718,7.328,1.112,10.548
		C110.641,65.875,108.474,66.826,106.287,66.826z"/>
	<path style="fill:#495059;" d="M333.916,61.036c-1.853,0-3.709-0.682-5.159-2.058c-3.006-2.85-3.133-7.597-0.282-10.603
		l17.036-17.968c2.851-3.008,7.599-3.132,10.603-0.282c3.006,2.85,3.133,7.597,0.282,10.603L339.36,58.696
		C337.885,60.252,335.902,61.036,333.916,61.036z"/>
	<path style="fill:#495059;" d="M233.24,39.904c-4.143,0-7.5-3.357-7.5-7.5V7.5c0-4.143,3.357-7.5,7.5-7.5s7.5,3.357,7.5,7.5v24.904
		C240.74,36.547,237.383,39.904,233.24,39.904z"/>
</g>
<path style="fill:#498A68;" d="M342.444,389.316c-4.419,0-8.804-1.889-11.853-5.55c-5.45-6.542-4.564-16.264,1.978-21.713
	c4.707-3.92,13.249-9.478,29.487-19.182c7.31-4.366,16.777-1.983,21.143,5.325c4.367,7.309,1.984,16.775-5.325,21.143
	c-5.688,3.399-20.794,12.427-25.571,16.405C349.421,388.145,345.921,389.316,342.444,389.316z"/>
<path style="fill:#5CB38E;" d="M235.226,441.82c-71.946,0-154.742,0-215.356-38.698c-10.372-6.622-4.373-22.616,7.824-20.987
	c48,6.408,88.319-5.81,111.311-25.603L235.226,441.82z"/>
<path style="opacity:0.1;enable-background:new    ;" d="M111.866,372.86c0.802,22.976,4.329,45.911,18.492,64.981
	c35.073,3.979,71.161,3.98,104.868,3.98l-96.221-85.288C131.636,362.876,122.478,368.436,111.866,372.86z"/>
<g>
	<path style="fill:#498A68;" d="M203.017,512c-0.61,0-1.225-0.023-1.844-0.071c-13.06-1.004-22.835-12.406-21.831-25.468
		c0.911-11.853-0.066-51.387-1.766-60.14c-3.903-11.752,1.934-24.679,13.569-29.419c12.132-4.94,25.972,0.886,30.915,13.017
		c6.393,15.695,4.872,76.382,4.58,80.178C225.684,502.54,215.291,512,203.017,512z M178.117,427.792
		c0.003,0.008,0.007,0.017,0.01,0.027C178.124,427.809,178.121,427.8,178.117,427.792z"/>
	<path style="fill:#498A68;" d="M289.037,512c-0.611,0-1.226-0.023-1.846-0.071c-13.06-1.005-22.834-12.408-21.829-25.47
		c0.913-11.85-0.065-51.376-1.766-60.135c-3.904-11.752,1.932-24.678,13.566-29.42c12.126-4.943,25.971,0.883,30.917,13.014
		c6.397,15.7,4.873,76.385,4.582,80.183C311.703,502.542,301.31,512,289.037,512z M264.139,427.795
		c0.002,0.008,0.006,0.017,0.009,0.025C264.146,427.812,264.142,427.803,264.139,427.795z"/>
</g>
<path style="opacity:0.1;enable-background:new    ;" d="M313.027,468.12c-0.019-20.161-0.888-48.238-4.948-58.202
	c-4.945-12.132-18.791-17.957-30.917-13.014c-11.635,4.743-17.47,17.669-13.566,29.42c1.364,7.024,2.262,33.821,2.094,50.278
	C284.001,475.4,299.692,472.601,313.027,468.12z"/>
<path style="opacity:0.1;enable-background:new    ;" d="M191.145,396.903c-11.635,4.74-17.472,17.668-13.569,29.419
	c1.188,6.118,2.022,27.263,2.106,43.493c13.457,3.891,29.144,6.225,47.28,7.089c0.219-19.711-0.21-55.465-4.902-66.984
	C217.118,397.789,203.277,391.963,191.145,396.903z"/>
<path style="fill:#5CB38E;" d="M351.943,358.135c0,55.373-7.521,95.44-108.29,95.44s-108.29-40.067-108.29-95.44
	s48.483-100.262,108.29-100.262C303.46,257.873,351.943,302.762,351.943,358.135z"/>
<path style="fill:#9BDFC1;" d="M351.943,358.135c0-0.441-0.012-0.88-0.018-1.32c-22.555-5.788-67.294-7.472-98.426,25.614
	c-22.687,24.11-25.97,50.128-23.536,70.878c4.361,0.177,8.921,0.267,13.691,0.267C344.421,453.575,351.943,413.508,351.943,358.135z
	"/>
<path style="opacity:0.05;enable-background:new    ;" d="M223.095,259.685c-49.974,8.893-87.732,49.586-87.732,98.45
	c0,51.273,6.461,89.417,87.415,94.786C177.831,407.298,186.524,313.099,223.095,259.685z"/>
<path style="fill:#5CB38E;" d="M343.052,113.477L343.052,113.477c-18.492-27.964-49.78-44.784-83.305-44.784h-41.21
	c-58.589,0-106.085,47.496-106.085,106.085v48.774c0,52.583,42.627,95.21,95.21,95.21h218.455c39.391,0,71.324-31.933,71.324-71.324
	v-33.195c0-39.391-31.933-71.324-71.324-71.324h-28.3C375.778,142.918,355.209,131.86,343.052,113.477z"/>
<ellipse style="fill:#495059;" cx="412" cy="254.03" rx="33.33" ry="37.619"/>
<g style="opacity:0.1;">
	<circle cx="170.08" cy="246.73" r="7.301"/>
	<circle cx="221.98" cy="257.87" r="7.301"/>
	<circle cx="192.28" cy="282.78" r="7.301"/>
</g>
<g>
	<ellipse style="fill:#FFA8CB;" cx="181.18" cy="157.87" rx="18.402" ry="9.441"/>
	<ellipse style="fill:#FFA8CB;" cx="304.72" cy="157.87" rx="18.402" ry="9.441"/>
</g>
<g>
	<circle style="fill:#495059;" cx="388.74" cy="180.17" r="7.301"/>
	<circle style="fill:#495059;" cx="435.27" cy="180.17" r="7.301"/>
</g>
<path style="opacity:0.05;enable-background:new    ;" d="M194.969,71.324c-47.245,10.718-82.517,52.965-82.517,103.453v48.774
	c0,52.583,42.627,95.21,95.21,95.21h57.774C181.296,269.806,167.035,135.236,194.969,71.324z"/>
<circle style="fill:#FFFFFF;" cx="199.58" cy="120.09" r="34.478"/>
<circle style="fill:#495059;" cx="199.58" cy="120.09" r="8.811"/>
<circle style="fill:#FFFFFF;" cx="286.32" cy="120.09" r="34.478"/>
<circle style="fill:#495059;" cx="286.32" cy="120.09" r="8.811"/>
<path style="fill:#498A68;" d="M228.493,389.316c-3.729,0-7.469-1.345-10.43-4.067c-3.834-3.524-11.957-10.751-23.28-19.553
	c-6.722-5.227-7.934-14.912-2.709-21.635c5.227-6.723,14.911-7.934,21.635-2.709c12.196,9.483,21.036,17.351,25.221,21.197
	c6.269,5.762,6.679,15.514,0.916,21.784C236.807,387.639,232.655,389.316,228.493,389.316z"/>
<g>
</g>
<g>
</g>
<g>
</g>
<g>
</g>
<g>
</g>
<g>
</g>
<g>
</g>
<g>
</g>
<g>
</g>
<g>
</g>
<g>
</g>
<g>
</g>
<g>
</g>
<g>
</g>
<g>
</g>
</svg>
