<?xml version="1.0" encoding="iso-8859-1"?>
<!-- Generator: Adobe Illustrator 19.0.0, SVG Export Plug-In . SVG Version: 6.00 Build 0)  -->
<svg version="1.1" id="Capa_1" xmlns="http://www.w3.org/2000/svg" xmlns:xlink="http://www.w3.org/1999/xlink" x="0px" y="0px"
	 viewBox="0 0 512 512" style="enable-background:new 0 0 512 512;" xml:space="preserve">
<ellipse transform="matrix(0.7071 -0.7071 0.7071 0.7071 -205.5114 240.6872)" style="fill:#806C6C;" cx="187.779" cy="368.418" rx="37.1" ry="41.714"/>
<path style="fill:#5CB38E;" d="M314.258,406.632c64.471,0,138.666,0,192.982-34.678c9.295-5.934,3.919-20.266-7.011-18.807
	c-43.013,5.742-79.144-5.207-99.746-22.943L314.258,406.632z"/>
<path style="opacity:0.1;enable-background:new    ;" d="M424.802,344.836c-0.719,20.589-3.879,41.141-16.571,58.23
	c-31.429,3.566-63.768,3.566-93.973,3.566l86.224-76.427C407.086,335.889,415.292,340.871,424.802,344.836z"/>
<g>
	<path style="fill:#498A68;" d="M343.121,469.52c-10.999,0.001-20.311-8.475-21.169-19.624c-0.262-3.402-1.627-57.781,4.104-71.85
		c4.429-10.871,16.831-16.091,27.703-11.665c10.426,4.248,15.657,15.832,12.159,26.363c-1.525,7.847-2.399,43.271-1.582,53.89
		c0.901,11.704-7.857,21.923-19.561,22.824C344.22,469.5,343.668,469.52,343.121,469.52z M365.433,394.06
		c-0.003,0.007-0.006,0.016-0.009,0.024C365.427,394.076,365.43,394.068,365.433,394.06z"/>
	<path style="fill:#498A68;" d="M266.037,469.52c-10.999,0.001-20.311-8.475-21.169-19.624c-0.262-3.403-1.627-57.784,4.106-71.852
		c4.431-10.87,16.836-16.088,27.705-11.662c10.426,4.25,15.656,15.833,12.157,26.364c-1.525,7.849-2.401,43.269-1.583,53.888
		c0.901,11.704-7.857,21.923-19.561,22.824C267.136,469.5,266.584,469.52,266.037,469.52z M288.348,394.064
		c-0.002,0.007-0.006,0.016-0.008,0.023C288.343,394.079,288.346,394.071,288.348,394.064z"/>
</g>
<path style="opacity:0.1;enable-background:new    ;" d="M276.678,366.382c-10.868-4.426-23.273,0.792-27.705,11.662
	c-3.638,8.928-4.417,34.089-4.434,52.155c11.95,4.016,26.01,6.524,42.419,7.601c-0.151-14.747,0.654-38.76,1.876-45.054
	C292.333,382.215,287.104,370.632,276.678,366.382z"/>
<path style="opacity:0.1;enable-background:new    ;" d="M353.759,366.381c-10.872-4.426-23.274,0.794-27.703,11.665
	c-4.206,10.326-4.59,42.362-4.392,60.025c16.252-0.774,30.309-2.866,42.367-6.353c0.075-14.542,0.822-33.49,1.887-38.974
	C369.415,382.213,364.185,370.629,353.759,366.381z"/>
<path style="fill:#5CB38E;" d="M209.667,331.64c0,49.62,6.74,85.525,97.039,85.525s97.039-35.905,97.039-85.525
	s-43.446-89.845-97.039-89.845S209.667,282.02,209.667,331.64z"/>
<path style="fill:#9BDFC1;" d="M209.667,331.64c0-0.395,0.011-0.788,0.016-1.183c20.212-5.187,60.302-6.695,88.201,22.953
	c20.33,21.605,23.272,44.92,21.091,63.514c-3.908,0.159-7.994,0.24-12.269,0.24C216.407,417.165,209.667,381.26,209.667,331.64z"/>
<path style="opacity:0.05;enable-background:new    ;" d="M325.129,243.419c44.782,7.969,78.617,44.434,78.617,88.221
	c0,45.946-5.79,80.127-78.333,84.938C365.69,375.696,357.9,291.284,325.129,243.419z"/>
<path style="fill:#5CB38E;" d="M217.634,112.4L217.634,112.4c16.571-25.059,44.608-40.132,74.65-40.132h36.929
	c52.502,0,95.064,42.561,95.064,95.064v43.707c0,47.12-38.199,85.319-85.319,85.319h-195.76c-35.299,0-63.914-28.615-63.914-63.914
	v-29.746c0-35.299,28.615-63.914,63.914-63.914h25.36C188.308,138.783,206.74,128.874,217.634,112.4z"/>
<g style="opacity:0.1;">
	<circle cx="372.64" cy="231.81" r="6.542"/>
	<circle cx="326.13" cy="241.79" r="6.542"/>
	<circle cx="352.74" cy="264.11" r="6.542"/>
</g>
<g>
	<ellipse style="fill:#FFA8CB;" cx="362.69" cy="142.34" rx="16.49" ry="8.46"/>
	<ellipse style="fill:#FFA8CB;" cx="251.99" cy="142.34" rx="16.49" ry="8.46"/>
</g>
<g>
	<path style="fill:#495059;" d="M341.771,133.069c-4.143,0-7.5-3.357-7.5-7.5v-8.217c0-4.143,3.357-7.5,7.5-7.5s7.5,3.357,7.5,7.5
		v8.217C349.271,129.711,345.913,133.069,341.771,133.069z"/>
	<path style="fill:#495059;" d="M272.904,133.069c-4.143,0-7.5-3.357-7.5-7.5v-8.217c0-4.143,3.357-7.5,7.5-7.5s7.5,3.357,7.5,7.5
		v8.217C280.404,129.711,277.047,133.069,272.904,133.069z"/>
	<path style="fill:#495059;" d="M155.848,256.698c-7.169,0-13.986-3.104-18.705-8.518c-2.722-3.123-2.396-7.86,0.727-10.582
		c3.122-2.721,7.859-2.396,10.582,0.727c1.868,2.145,4.564,3.374,7.396,3.374c2.833,0,5.528-1.229,7.396-3.373
		c2.721-3.125,7.459-3.449,10.581-0.728c3.123,2.721,3.449,7.458,0.728,10.581C169.836,253.592,163.018,256.698,155.848,256.698z"/>
	<circle style="fill:#495059;" cx="176.69" cy="172.17" r="6.542"/>
	<circle style="fill:#495059;" cx="135" cy="172.17" r="6.542"/>
</g>
<path style="opacity:0.05;enable-background:new    ;" d="M350.332,74.627c42.337,9.604,73.944,47.462,73.944,92.705v43.707
	c0,47.12-38.199,85.319-85.319,85.319h-51.771C362.585,252.488,375.365,131.899,350.332,74.627z"/>
<path style="fill:#FAE17C;" d="M156.244,349.927c2.095-15.518-9.172-29.712-24.69-31.81c-26.485-3.582-45.906,2.438-64.571,19.562
	c-2.974,2.728-2.079,7.558,1.621,9.169c15.169,6.606,27.258,23.252,55.742,27.255C139.834,376.28,154.149,365.446,156.244,349.927z"
	/>
<path style="fill:#80B0E3;" d="M293.459,386.955l-41.403,1.942c-34.208,1.604-68.353-4.296-100.038-17.289l0,0
	c-2.341-0.96-3.733-3.385-3.381-5.891l4.603-32.755c0.352-2.505,2.359-4.453,4.873-4.73l0,0
	c34.039-3.755,68.488-0.016,100.928,10.955l39.264,13.279c8.071,2.729,13.057,10.816,11.871,19.253l0,0
	C308.991,380.156,301.969,386.555,293.459,386.955z"/>
<path style="fill:#495059;" d="M201.333,327.474c-14.358-1.073-28.825-0.83-43.219,0.758l0,0c-2.515,0.277-4.521,2.225-4.873,4.73
	l-4.603,32.755c-0.352,2.505,1.04,4.931,3.381,5.891l0,0c13.399,5.494,27.239,9.715,41.336,12.641L201.333,327.474z"/>
<path style="fill:#498A68;" d="M300.186,374.33c-5.571,0-10.819-3.395-12.917-8.912c-2.71-7.132,0.874-15.112,8.007-17.822
	c10.021-3.808,15.033-7.242,20.776-12.246c5.753-5.013,14.48-4.412,19.492,1.341s4.412,14.48-1.341,19.492
	c-7.549,6.578-15.389,12.027-29.112,17.242C303.477,374.039,301.818,374.33,300.186,374.33z"/>
<path style="fill:#E5E5E5;" d="M158.249,395.706H6.323c-3.492,0-6.323-2.831-6.323-6.323V213.96c0-3.492,2.831-6.323,6.323-6.323
	h151.926c3.492,0,6.323,2.831,6.323,6.323v175.422C164.572,392.875,161.742,395.706,158.249,395.706z"/>
<path style="opacity:0.05;enable-background:new    ;" d="M50.114,207.637H6.323c-3.492,0-6.323,2.831-6.323,6.323v175.422
	c0,3.492,2.831,6.323,6.323,6.323h102.461C45.384,350.517,42.769,253.248,50.114,207.637z"/>
<g>
	<path style="fill:#806C6C;" d="M136.203,487.586c-3.234,0-6.219-2.108-7.186-5.366l-46.73-157.305L35.556,482.22
		c-1.179,3.971-5.352,6.237-9.325,5.054c-3.971-1.18-6.233-5.354-5.054-9.325l53.92-181.506c0.945-3.182,3.87-5.364,7.189-5.364
		s6.244,2.183,7.189,5.364l53.92,181.506c1.18,3.971-1.083,8.146-5.054,9.325C137.629,487.486,136.91,487.586,136.203,487.586z"/>
	<path style="fill:#806C6C;" d="M121.762,438.961H47.799c-4.143,0-7.5-3.357-7.5-7.5s3.357-7.5,7.5-7.5h73.963
		c4.143,0,7.5,3.357,7.5,7.5S125.904,438.961,121.762,438.961z"/>
</g>
<path style="fill:#495059;" d="M390.597,97.948L260.799,86.593c-8.1-0.709-15.507-4.86-20.339-11.399l0,0
	c-6.66-9.012-4.4-21.767,4.951-27.942l14.779-9.761c14.881-9.828,32.65-14.332,50.416-12.777l41.688,3.647
	c17.766,1.554,34.483,9.075,47.431,21.338l12.859,12.179c8.136,7.706,8.147,20.659,0.023,28.377l0,0
	C406.712,95.855,398.697,98.657,390.597,97.948z"/>
<g>
</g>
<g>
</g>
<g>
</g>
<g>
</g>
<g>
</g>
<g>
</g>
<g>
</g>
<g>
</g>
<g>
</g>
<g>
</g>
<g>
</g>
<g>
</g>
<g>
</g>
<g>
</g>
<g>
</g>
</svg>
