<?xml version="1.0" encoding="iso-8859-1"?>
<!-- Generator: Adobe Illustrator 19.0.0, SVG Export Plug-In . SVG Version: 6.00 Build 0)  -->
<svg version="1.1" id="Capa_1" xmlns="http://www.w3.org/2000/svg" xmlns:xlink="http://www.w3.org/1999/xlink" x="0px" y="0px"
	 viewBox="0 0 512 512" style="enable-background:new 0 0 512 512;" xml:space="preserve">
<path style="fill:#CD5B5B;" d="M415.474,477.685l-4.688-9.879c-5.627-11.858-14.032-21.902-24.264-29.461
	c-2.258-1.668-3.792-4.143-4.148-6.927c-3.56-27.835-27.338-49.349-56.141-49.349c-20.941,0-39.223,11.373-49.013,28.278
	c-1.368,2.362-4.036,3.654-6.744,3.314l0,0c-28.003-3.51-53.933,15.291-59.301,42.997l-2.213,11.421
	c-3.191,16.465,9.421,31.755,26.193,31.755h166.314C412.854,499.835,420.355,487.971,415.474,477.685z"/>
<path style="opacity:0.1;enable-background:new    ;" d="M313.051,383.614c-15.285,3.647-28.163,13.492-35.831,26.733
	c-1.368,2.362-4.036,3.654-6.744,3.314l0,0c-28.003-3.51-53.933,15.291-59.301,42.998l-2.213,11.421
	c-3.191,16.465,9.422,31.755,26.192,31.755h126.581C310.378,481.323,303.887,412.571,313.051,383.614z"/>
<g>
	<path style="fill:#FAE17C;" d="M363.855,459.945c-2.152,0-4.289-0.922-5.772-2.707c-14.529-17.483-19.353-37.297-19.024-50.009
		c0.107-4.142,3.567-7.448,7.691-7.303c4.141,0.106,7.41,3.551,7.303,7.691c-0.246,9.529,3.683,25.731,15.567,40.034
		c2.647,3.186,2.211,7.914-0.976,10.562C367.244,459.378,365.545,459.945,363.855,459.945z"/>
	<path style="fill:#FAE17C;" d="M332.591,465.344c-0.433,0-0.871-0.037-1.313-0.115c-4.079-0.72-6.802-4.61-6.082-8.689
		c2.834-16.056-0.766-33.591-1.948-39.353c-0.147-0.722-0.266-1.301-0.343-1.719c-0.755-4.072,1.935-7.986,6.008-8.74
		c4.072-0.766,7.985,1.935,8.74,6.008c0.065,0.35,0.165,0.832,0.289,1.436c1.325,6.456,5.356,26.101,2.025,44.976
		C339.326,462.784,336.161,465.344,332.591,465.344z"/>
</g>
<path style="fill:#498A68;" d="M357.766,415.692c-2.364,0-4.762-0.565-6.993-1.758c-14.997-8.014-24.598-20.136-27.753-24.121
	l-0.264-0.333c-5.109-6.428-4.039-15.78,2.388-20.888c6.43-5.109,15.781-4.039,20.888,2.388l0.296,0.374
	c2.439,3.079,8.917,11.258,18.459,16.356c7.241,3.87,9.975,12.876,6.105,20.118C368.215,412.838,363.076,415.692,357.766,415.692z"
	/>
<path style="fill:#5CB38E;" d="M232.413,444.328c-69.375,0-149.212,0-207.659-37.315c-10.002-6.385-4.217-21.807,7.545-20.237
	c46.285,6.179,85.163-5.603,107.332-24.688L232.413,444.328z"/>
<path style="opacity:0.1;enable-background:new    ;" d="M113.462,377.832c0.773,22.155,4.174,44.27,17.831,62.658
	c33.82,3.837,68.618,3.838,101.12,3.838l-92.782-82.24C132.525,368.205,123.695,373.566,113.462,377.832z"/>
<g>
	<path style="fill:#498A68;" d="M201.355,512c-0.589,0-1.181-0.022-1.779-0.068c-12.594-0.969-22.018-11.964-21.05-24.558
		c0.879-11.429-0.063-49.549-1.703-57.989c-3.764-11.332,1.864-23.797,13.083-28.368c11.701-4.766,25.045,0.853,29.811,12.55
		c6.167,15.135,4.699,73.654,4.417,77.316C223.211,502.878,213.189,511.999,201.355,512z M177.346,430.8
		c0.003,0.009,0.007,0.018,0.011,0.027C177.353,430.818,177.349,430.809,177.346,430.8z"/>
	<path style="fill:#498A68;" d="M284.301,512c-0.59,0-1.183-0.022-1.779-0.068c-12.595-0.969-22.018-11.965-21.05-24.558
		c0.88-11.428-0.063-49.542-1.703-57.988c-3.765-11.332,1.863-23.796,13.082-28.369c11.693-4.767,25.043,0.851,29.812,12.549
		c6.169,15.138,4.699,73.656,4.418,77.317C306.157,502.88,296.135,512,284.301,512z M260.292,430.802
		c0.003,0.009,0.007,0.017,0.01,0.026C260.299,430.819,260.295,430.811,260.292,430.802z"/>
</g>
<path style="opacity:0.1;enable-background:new    ;" d="M307.434,469.687c-0.018-19.441-0.856-46.515-4.771-56.121
	c-4.768-11.698-18.118-17.316-29.812-12.549c-11.219,4.573-16.846,17.037-13.082,28.369c1.315,6.772,2.181,32.611,2.019,48.481
	C279.445,476.707,294.575,474.008,307.434,469.687z"/>
<path style="opacity:0.1;enable-background:new    ;" d="M189.907,401.016c-11.219,4.571-16.847,17.036-13.083,28.368
	c1.146,5.899,1.95,26.288,2.031,41.938c12.976,3.753,28.101,6.003,45.589,6.836c0.212-19.008-0.202-53.483-4.727-64.591
	C214.951,401.87,201.607,396.25,189.907,401.016z"/>
<path style="fill:#5CB38E;" d="M344.958,363.633c0,53.394-7.253,92.029-104.419,92.029s-104.42-38.635-104.42-92.029
	s46.75-96.678,104.419-96.678S344.958,310.239,344.958,363.633z"/>
<path style="fill:#9BDFC1;" d="M344.958,363.633c0-0.425-0.011-0.848-0.017-1.273c-21.749-5.581-64.889-7.205-94.909,24.699
	c-21.876,23.248-25.042,48.336-22.695,68.345c4.205,0.171,8.602,0.258,13.202,0.258
	C337.706,455.662,344.958,417.027,344.958,363.633z"/>
<path style="opacity:0.05;enable-background:new    ;" d="M220.716,268.702c-48.188,8.576-84.596,47.813-84.596,94.931
	c0,49.44,6.23,86.221,84.291,91.398C177.069,411.039,185.452,320.207,220.716,268.702z"/>
<path style="fill:#5CB38E;" d="M336.385,127.719L336.385,127.719c-17.831-26.964-48.001-43.184-80.328-43.184H216.32
	c-56.495,0-102.293,45.798-102.293,102.293v47.031c0,50.704,41.103,91.807,91.807,91.807h210.648
	c37.984,0,68.775-30.792,68.775-68.775v-32.008c0-37.983-30.792-68.775-68.775-68.775h-27.288
	C367.942,156.108,348.108,145.446,336.385,127.719z"/>
<g style="opacity:0.1;">
	<circle cx="169.589" cy="256.21" r="7.04"/>
	<circle cx="219.639" cy="266.95" r="7.04"/>
	<circle cx="190.999" cy="290.97" r="7.04"/>
</g>
<g>
	<ellipse style="fill:#FFA8CB;" cx="180.299" cy="166.8" rx="17.744" ry="9.103"/>
	<ellipse style="fill:#FFA8CB;" cx="299.419" cy="166.8" rx="17.744" ry="9.103"/>
</g>
<g>
	<path style="fill:#495059;" d="M216.488,158.537c-4.142,0-7.5-3.357-7.5-7.5c0-3.408-2.772-6.181-6.181-6.181
		s-6.181,2.773-6.181,6.181c0,4.143-3.358,7.5-7.5,7.5s-7.5-3.357-7.5-7.5c0-11.679,9.502-21.181,21.181-21.181
		s21.181,9.502,21.181,21.181C223.988,155.18,220.63,158.537,216.488,158.537z"/>
	<path style="fill:#495059;" d="M290.593,158.537c-4.143,0-7.5-3.357-7.5-7.5c0-3.408-2.772-6.181-6.181-6.181
		s-6.181,2.773-6.181,6.181c0,4.143-3.357,7.5-7.5,7.5s-7.5-3.357-7.5-7.5c0-11.679,9.502-21.181,21.181-21.181
		s21.181,9.502,21.181,21.181C298.093,155.18,294.735,158.537,290.593,158.537z"/>
	<circle style="fill:#495059;" cx="380.439" cy="192.03" r="7.04"/>
	<circle style="fill:#495059;" cx="425.299" cy="192.03" r="7.04"/>
</g>
<path style="opacity:0.05;enable-background:new    ;" d="M193.595,87.073c-45.557,10.335-79.568,51.072-79.568,99.756v47.031
	c0,50.704,41.103,91.807,91.807,91.807h55.709C180.411,278.461,166.659,148.701,193.595,87.073z"/>
<path style="fill:#498A68;" d="M203.091,408.587c-6.538,0-12.53-4.346-14.333-10.958c-2.16-7.921,2.51-16.093,10.431-18.254
	c10.449-2.85,18.587-9.39,21.651-11.852l0.365-0.293c6.408-5.135,15.764-4.099,20.897,2.309c5.133,6.409,4.098,15.764-2.311,20.897
	l-0.326,0.263c-3.964,3.186-16.029,12.882-32.453,17.361C205.702,408.417,204.386,408.587,203.091,408.587z"/>
<path style="fill:#E5E5E5;" d="M493.589,292.281c-2.448-3.502-3.293-7.828-2.519-12.031c2.145-11.652-1.282-24.127-10.293-33.138
	c-7.079-7.079-16.297-10.71-25.573-10.903c-4.287-0.089-8.435-1.608-11.539-4.567c-10.612-10.115-24.977-16.327-40.794-16.327
	c-15.818,0-30.183,6.212-40.795,16.327c-3.104,2.958-7.252,4.478-11.538,4.567c-9.277,0.193-18.494,3.823-25.573,10.903
	c-9.012,9.011-12.439,21.486-10.293,33.138c0.774,4.203-0.071,8.529-2.519,12.031c-5.411,7.74-8.59,17.155-8.59,27.316
	c0,20.992,13.545,38.81,32.37,45.215c5.597,1.904,10.224,5.933,12.549,11.369c9.027,21.112,29.976,35.908,54.39,35.908
	s45.363-14.796,54.39-35.908c2.324-5.436,6.952-9.465,12.549-11.369c18.825-6.405,32.37-24.223,32.37-45.215
	C502.179,309.436,499,300.021,493.589,292.281z"/>
<path style="fill:#495059;" d="M402.871,302.649L402.871,302.649c-12.766,0-23.115-10.349-23.115-23.115v-12.441
	c0-5.895,4.779-10.673,10.673-10.673h24.883c5.895,0,10.673,4.779,10.673,10.673v12.441
	C425.985,292.3,415.636,302.649,402.871,302.649z"/>
<path style="fill:#CD5B5B;" d="M288.676,71.67C281.678,23.834,190.69-26.126,94.45,15.607
	C27.9,44.465,12.968,114.483,52.652,162.334c15.982-47.12,28.091-83.569,74.584-61.234L288.676,71.67z"/>
<path style="opacity:0.1;enable-background:new    ;" d="M82.732,65.129c-11.263,6.758-13.64,12.375-18.674,18.747
	c-11.555,14.627-26.793,9.248-29.026-6.542c-9.052,28.3-3.33,59.739,17.62,85c15.982-47.12,28.091-83.569,74.585-61.233
	l45.577-8.309C148.23,51.634,103.205,52.846,82.732,65.129z"/>
<g>
	<path style="fill:#E5E5E5;" d="M295.772,105.5l-164.896,29.076c-11.167,1.969-21.816-5.487-23.785-16.654l-2.447-13.877
		c-1.969-11.167,5.487-21.816,16.654-23.785l164.896-29.075c11.167-1.969,21.816,5.487,23.785,16.654l2.447,13.877
		C314.395,92.883,306.939,103.531,295.772,105.5z"/>
	<path style="fill:#E5E5E5;" d="M40.489,134.926L40.489,134.926c6.108-8.056,18.218-8.056,24.326,0l0,0
		c1.229,1.621,3.237,2.452,5.251,2.175l0,0c10.015-1.377,18.578,7.186,17.201,17.201l0,0c-0.277,2.015,0.555,4.023,2.175,5.251l0,0
		c8.056,6.108,8.056,18.218,0,24.326l0,0c-1.621,1.229-2.452,3.236-2.175,5.251l0,0c1.377,10.015-7.186,18.578-17.201,17.201l0,0
		c-2.015-0.277-4.022,0.554-5.251,2.175l0,0c-6.108,8.055-18.218,8.055-24.326,0l0,0c-1.229-1.621-3.236-2.452-5.251-2.175l0,0
		c-10.015,1.377-18.578-7.186-17.201-17.201l0,0c0.277-2.015-0.555-4.023-2.175-5.251l0,0c-8.056-6.108-8.056-18.218,0-24.326l0,0
		c1.621-1.229,2.452-3.237,2.175-5.251l0,0c-1.377-10.015,7.186-18.578,17.201-17.201l0,0
		C37.252,137.378,39.26,136.546,40.489,134.926z"/>
</g>
<g>
</g>
<g>
</g>
<g>
</g>
<g>
</g>
<g>
</g>
<g>
</g>
<g>
</g>
<g>
</g>
<g>
</g>
<g>
</g>
<g>
</g>
<g>
</g>
<g>
</g>
<g>
</g>
<g>
</g>
</svg>
