<?xml version="1.0" encoding="iso-8859-1"?>
<!-- Generator: Adobe Illustrator 19.0.0, SVG Export Plug-In . SVG Version: 6.00 Build 0)  -->
<svg version="1.1" id="Capa_1" xmlns="http://www.w3.org/2000/svg" xmlns:xlink="http://www.w3.org/1999/xlink" x="0px" y="0px"
	 viewBox="0 0 512 512" style="enable-background:new 0 0 512 512;" xml:space="preserve">
<path style="fill:#498A68;" d="M350.149,424.901c-6.226,0-11.943-4.118-13.698-10.409c-2.784-9.98-9.082-17.73-11.453-20.648
	l-0.282-0.347c-4.946-6.107-4.004-15.067,2.103-20.013c6.107-4.945,15.066-4.004,20.013,2.102l0.252,0.311
	c3.068,3.774,12.403,15.263,16.779,30.947c2.112,7.569-2.313,15.418-9.882,17.529C352.702,424.731,351.415,424.901,350.149,424.901z
	"/>
<path style="fill:#5CB38E;" d="M236.827,447.229c-66.401,0-142.816,0-198.758-35.716c-9.573-6.112-4.036-20.872,7.221-19.37
	c44.301,5.914,81.513-5.363,102.732-23.629L236.827,447.229z"/>
<path style="opacity:0.1;enable-background:new    ;" d="M122.975,383.583c0.74,21.206,3.995,42.373,17.067,59.973
	c32.37,3.673,65.677,3.673,96.786,3.673l-88.805-78.715C141.221,374.369,132.769,379.5,122.975,383.583z"/>
<g>
	<path style="fill:#498A68;" d="M207.1,512c-0.564,0-1.131-0.021-1.702-0.065c-12.054-0.928-21.075-11.451-20.147-23.506
		c0.841-10.939-0.06-47.424-1.63-55.504c-3.603-10.847,1.784-22.777,12.523-27.152c11.198-4.563,23.971,0.817,28.532,12.013
		c5.902,14.488,4.497,70.496,4.227,74.001C228.02,503.269,218.427,511.999,207.1,512z M184.12,434.282
		c0.003,0.008,0.006,0.016,0.01,0.024C184.127,434.298,184.124,434.289,184.12,434.282z"/>
	<path style="fill:#498A68;" d="M286.491,512c-0.564,0-1.131-0.021-1.702-0.065c-12.054-0.928-21.075-11.451-20.147-23.506
		c0.841-10.939-0.061-47.424-1.631-55.504c-3.603-10.847,1.784-22.777,12.523-27.152c11.199-4.563,23.971,0.817,28.532,12.013
		c5.902,14.489,4.497,70.497,4.228,74.001C307.411,503.269,297.818,511.999,286.491,512z M263.51,434.28
		c0.003,0.008,0.007,0.017,0.01,0.026C263.517,434.297,263.514,434.288,263.51,434.28z"/>
</g>
<path style="opacity:0.1;enable-background:new    ;" d="M308.632,471.5c-0.018-18.607-0.82-44.519-4.566-53.714
	c-4.561-11.197-17.333-16.576-28.532-12.013c-10.739,4.375-16.126,16.305-12.523,27.152c1.259,6.479,2.087,31.214,1.933,46.404
	C281.844,478.22,296.325,475.636,308.632,471.5z"/>
<path style="opacity:0.1;enable-background:new    ;" d="M196.144,405.773c-10.739,4.375-16.126,16.305-12.523,27.152
	c1.097,5.647,1.867,25.161,1.944,40.14c12.42,3.592,26.897,5.746,43.635,6.543c0.203-18.193-0.193-51.189-4.524-61.822
	C220.114,406.59,207.342,401.21,196.144,405.773z"/>
<path style="fill:#5CB38E;" d="M344.548,369.993c0,51.105-6.942,88.085-99.944,88.085s-99.944-36.979-99.944-88.085
	s44.746-92.535,99.944-92.535S344.548,318.888,344.548,369.993z"/>
<path style="fill:#9BDFC1;" d="M344.548,369.993c0-0.407-0.011-0.812-0.017-1.218c-20.817-5.342-62.107-6.896-90.84,23.64
	c-20.938,22.252-23.968,46.265-21.722,65.416c4.025,0.163,8.233,0.247,12.636,0.247
	C337.606,458.077,344.548,421.098,344.548,369.993z"/>
<path style="opacity:0.05;enable-background:new    ;" d="M225.631,279.131c-46.123,8.208-80.97,45.764-80.97,90.862
	c0,47.321,5.963,82.525,80.678,87.48C183.855,415.367,191.879,328.429,225.631,279.131z"/>
<path style="fill:#A3E3FF;" d="M204.867,423.046H180.07c-5.583,0-10.108-4.526-10.108-10.108v-67.656h45.014v67.656
	C214.975,418.521,210.45,423.046,204.867,423.046z"/>
<path style="opacity:0.1;enable-background:new    ;" d="M169.961,373.524c14.938,2.436,29.958,4.198,45.014,5.29v-33.532h-45.014
	V373.524z"/>
<path style="fill:#FFFFFF;" d="M169.962,392.734v20.204c0,5.583,4.525,10.108,10.108,10.108h24.798
	c5.583,0,10.108-4.526,10.108-10.108v-20.204H169.962z"/>
<path style="fill:#A3E3FF;" d="M343.903,358.597L343.903,358.597c-60.919,11.233-123.377,11.233-184.296,0l0,0
	c-12.487-2.302-21.551-13.19-21.551-25.887v-19.076c0-14.538,11.786-26.324,26.324-26.324h174.75
	c14.538,0,26.324,11.786,26.324,26.324v19.076C365.453,345.407,356.39,356.294,343.903,358.597z"/>
<g>
	<path style="fill:#FFFFFF;" d="M182.185,362.235c15.342,2.12,30.757,3.537,46.196,4.247v-79.173h-46.196V362.235z"/>
	<path style="fill:#FFFFFF;" d="M275.129,366.482c15.439-0.711,30.854-2.127,46.196-4.247v-74.926h-46.196L275.129,366.482
		L275.129,366.482z"/>
</g>
<path style="fill:#5CB38E;" d="M336.343,144.191L336.343,144.191c-17.066-25.809-45.943-41.333-76.884-41.333h-38.034
	c-54.074,0-97.909,43.835-97.909,97.909v45.015c0,48.531,39.342,87.872,87.872,87.872h201.619c36.355,0,65.827-29.472,65.827-65.827
	V237.19c0-36.355-29.472-65.827-65.827-65.827h-26.119C366.547,171.363,347.563,161.158,336.343,144.191z"/>
<g style="opacity:0.1;">
	<circle cx="176.7" cy="267.18" r="6.738"/>
	<circle cx="224.6" cy="277.46" r="6.738"/>
	<circle cx="197.19" cy="300.44" r="6.738"/>
</g>
<g>
	<ellipse style="fill:#FFA8CB;" cx="186.94" cy="175.03" rx="16.984" ry="8.713"/>
	<ellipse style="fill:#FFA8CB;" cx="300.96" cy="175.03" rx="16.984" ry="8.713"/>
</g>
<g>
	<path style="fill:#495059;" d="M208.491,165.254c-4.142,0-7.5-3.357-7.5-7.5v-8.464c0-4.142,3.358-7.5,7.5-7.5s7.5,3.358,7.5,7.5
		v8.464C215.991,161.896,212.633,165.254,208.491,165.254z"/>
	<path style="fill:#495059;" d="M279.419,165.254c-4.142,0-7.5-3.357-7.5-7.5v-8.464c0-4.142,3.358-7.5,7.5-7.5s7.5,3.358,7.5,7.5
		v8.464C286.919,161.896,283.561,165.254,279.419,165.254z"/>
	<path style="fill:#495059;" d="M399.978,292.582c-7.319,0-14.28-3.169-19.096-8.695c-2.721-3.123-2.396-7.86,0.727-10.582
		c3.123-2.721,7.861-2.395,10.582,0.727c1.966,2.257,4.805,3.551,7.787,3.551s5.821-1.294,7.788-3.551
		c2.722-3.123,7.46-3.448,10.582-0.726c3.122,2.721,3.448,7.459,0.726,10.581C414.257,289.413,407.297,292.582,399.978,292.582z"/>
	<circle style="fill:#495059;" cx="378.51" cy="205.75" r="6.738"/>
	<circle style="fill:#495059;" cx="421.45" cy="205.75" r="6.738"/>
</g>
<path style="opacity:0.05;enable-background:new    ;" d="M199.673,105.287c-43.604,9.892-76.158,48.883-76.158,95.48v45.015
	c0,48.53,39.342,87.872,87.872,87.872h53.321C187.054,288.472,173.891,164.273,199.673,105.287z"/>
<path style="fill:#498A68;" d="M256.054,430.738c-5.916,0-11.441-3.719-13.463-9.63c-3.355-9.81-10.094-17.188-12.631-19.965
	l-0.301-0.33c-5.291-5.81-4.869-14.81,0.942-20.1c5.811-5.292,14.811-4.87,20.1,0.942l0.27,0.295
	c3.283,3.595,13.275,14.531,18.548,29.951c2.542,7.435-1.424,15.525-8.859,18.067C259.134,430.49,257.581,430.738,256.054,430.738z"
	/>
<circle style="fill:#E5E5E5;" cx="238.24" cy="26.469" r="26.469"/>
<path style="fill:#A3E3FF;" d="M318.778,130.949H157.702c-10.85,0-19.645-8.795-19.645-19.645V98.456
	c0-10.85,8.795-19.645,19.645-19.645h161.076c10.85,0,19.645,8.795,19.645,19.645v12.848
	C338.423,122.154,329.627,130.949,318.778,130.949z"/>
<path style="fill:#80B0E3;" d="M318.778,78.811c-10.183-24.237-39.131-43.914-80.538-43.914s-70.355,19.677-80.538,43.914H318.778z"
	/>
<g>
</g>
<g>
</g>
<g>
</g>
<g>
</g>
<g>
</g>
<g>
</g>
<g>
</g>
<g>
</g>
<g>
</g>
<g>
</g>
<g>
</g>
<g>
</g>
<g>
</g>
<g>
</g>
<g>
</g>
</svg>
