<?xml version="1.0" encoding="iso-8859-1"?>
<!-- Generator: Adobe Illustrator 19.0.0, SVG Export Plug-In . SVG Version: 6.00 Build 0)  -->
<svg version="1.1" id="Capa_1" xmlns="http://www.w3.org/2000/svg" xmlns:xlink="http://www.w3.org/1999/xlink" x="0px" y="0px"
	 viewBox="0 0 512 512" style="enable-background:new 0 0 512 512;" xml:space="preserve">
<path style="fill:#E5E5E5;" d="M336.768,127.288l-29.628-17.106l11.997-54.605c3.512-15.986,11.063-30.804,21.931-43.042l0,0
	C352.83-0.707,372.281-3.856,387.619,5l0,0c15.338,8.856,22.337,27.275,16.749,44.081l0,0c-5.164,15.531-14.221,29.48-26.31,40.514
	L336.768,127.288z"/>
<path style="fill:#FFA8CB;" d="M405.959,33.933c-15.338-8.856-34.789-5.707-46.55,7.535l0,0
	C348.54,53.705,340.99,68.524,337.478,84.51l-8.421,38.326l7.711,4.452l41.291-37.692c12.088-11.035,21.146-24.983,26.31-40.514l0,0
	c1.653-4.972,2.196-10.083,1.756-15.048C406.069,34,406.015,33.965,405.959,33.933L405.959,33.933z"/>
<path style="fill:#E5E5E5;" d="M212.403,127.288l29.628-17.106l-11.997-54.605c-3.512-15.986-11.063-30.804-21.932-43.042l0,0
	C196.341-0.707,176.89-3.856,161.552,5l0,0c-15.338,8.856-22.337,27.275-16.749,44.081l0,0c5.163,15.531,14.222,29.48,26.309,40.514
	L212.403,127.288z"/>
<path style="fill:#FFA8CB;" d="M143.212,33.933c15.338-8.856,34.789-5.707,46.55,7.535l0,0
	c10.868,12.237,18.419,27.056,21.931,43.042l8.421,38.326l-7.711,4.452l-41.291-37.692c-12.088-11.035-21.146-24.983-26.31-40.514
	l0,0c-1.653-4.972-2.196-10.083-1.756-15.048C143.102,34,143.155,33.965,143.212,33.933L143.212,33.933z"/>
<path style="fill:#498A68;" d="M132.162,403.986c-5.493,0-10.726-3.194-13.064-8.549c-3.149-7.211,0.144-15.609,7.355-18.758
	c14.943-6.524,29.765-6.544,34.636-6.55l0.401-0.001c0.014,0,0.029,0,0.043,0c7.849,0,14.223,6.351,14.246,14.204
	c0.024,7.868-6.336,14.266-14.205,14.29l-0.448,0.001c-3.764,0.004-13.763,0.018-23.271,4.17
	C136,403.603,134.065,403.986,132.162,403.986z"/>
<path style="fill:#5CB38E;" d="M260.605,447.142c66.486,0,142.999,0,199.012-35.761c9.585-6.12,4.042-20.899-7.23-19.394
	c-44.358,5.922-81.617-5.37-102.863-23.66L260.605,447.142z"/>
<path style="opacity:0.1;enable-background:new    ;" d="M374.603,383.415c-0.741,21.233-4,42.427-17.089,60.049
	c-32.411,3.677-65.761,3.678-96.909,3.678l88.919-78.815C356.333,374.189,364.796,379.327,374.603,383.415z"/>
<g>
	<path style="fill:#498A68;" d="M295.027,511.512c-6.729,0.001-13.368-3.087-17.665-8.919
		c-21.874-29.695-10.363-81.604-10.237-82.116c2.904-11.751,14.782-18.931,26.536-16.022c11.751,2.902,18.925,14.78,16.023,26.533
		l0,0c-2.255,9.279-3.494,36.826,2.973,45.604c7.18,9.747,5.099,23.468-4.648,30.648
		C304.097,510.122,299.541,511.512,295.027,511.512z"/>
	<path style="fill:#498A68;" d="M210.913,512c-8.381,0.001-16.38-4.832-20.022-12.977c-15.15-33.882,2.204-80.908,2.389-81.361
		c4.568-11.21,17.357-16.595,28.569-12.027c11.208,4.567,16.593,17.352,12.031,28.561c-2.624,6.628-8.673,34.179-2.97,46.934
		c4.941,11.051-0.011,24.015-11.062,28.957C216.942,511.385,213.903,512,210.913,512z"/>
</g>
<path style="opacity:0.1;enable-background:new    ;" d="M221.849,405.634c-11.213-4.568-24.001,0.818-28.569,12.027
	c-0.135,0.332-9.454,25.582-8.522,52.38c12.605,4.765,27.637,7.764,45.4,9.088c-4.355-13.43,1.227-38.633,3.722-44.934
	C238.442,422.987,233.057,410.201,221.849,405.634z"/>
<path style="opacity:0.1;enable-background:new    ;" d="M309.684,430.988c2.902-11.752-4.272-23.63-16.023-26.533
	c-11.754-2.909-23.632,4.27-26.536,16.022c-0.097,0.395-6.965,31.372-0.062,59.145c16.799-0.732,31.333-2.818,43.832-6.322
	C306.462,462.305,307.663,439.307,309.684,430.988z"/>
<path style="fill:#5CB38E;" d="M152.746,369.807c0,51.171,6.951,88.197,100.071,88.197s100.071-37.026,100.071-88.197
	s-44.803-92.653-100.071-92.653C197.55,277.155,152.746,318.637,152.746,369.807z"/>
<path style="fill:#9BDFC1;" d="M152.746,369.807c0-0.408,0.011-0.813,0.017-1.22c20.843-5.349,62.187-6.905,90.957,23.67
	c20.965,22.281,23.999,46.324,21.75,65.499c-4.03,0.164-8.244,0.247-12.652,0.247C159.697,458.004,152.746,420.978,152.746,369.807z
	"/>
<path style="opacity:0.05;enable-background:new    ;" d="M271.815,278.829c46.181,8.218,81.074,45.822,81.074,90.978
	c0,47.381-5.971,82.631-80.781,87.592C313.644,415.24,305.61,328.19,271.815,278.829z"/>
<path style="fill:#5CB38E;" d="M160.962,143.717L160.962,143.717c17.088-25.842,46.002-41.385,76.983-41.385h38.083
	c54.143,0,98.034,43.891,98.034,98.034v45.073c0,48.592-39.392,87.985-87.984,87.985H84.2c-36.402,0-65.911-29.51-65.911-65.911
	v-30.676c0-36.402,29.51-65.911,65.911-65.911h26.152C130.719,170.924,149.728,160.706,160.962,143.717z"/>
<path style="fill:#FFFFFF;" d="M97.245,288.157c-6.507,0-12.62-1.67-17.95-4.59V306.8c0,3.168,2.569,5.737,5.738,5.737h24.424
	c3.169,0,5.738-2.569,5.738-5.737v-23.233C109.865,286.487,103.753,288.157,97.245,288.157z"/>
<path style="fill:#495059;" d="M97.245,295.656c-12.991,0-25.347-5.627-33.899-15.44c-2.722-3.122-2.396-7.86,0.726-10.582
	c3.122-2.721,7.86-2.397,10.582,0.727c5.703,6.543,13.937,10.295,22.592,10.295s16.889-3.752,22.591-10.295
	c2.721-3.123,7.459-3.447,10.582-0.727c3.122,2.722,3.448,7.459,0.726,10.582C122.593,290.028,110.237,295.656,97.245,295.656z"/>
<g style="opacity:0.1;">
	<circle cx="320.81" cy="266.86" r="6.747"/>
	<circle cx="272.84" cy="277.15" r="6.747"/>
	<circle cx="300.29" cy="300.17" r="6.747"/>
</g>
<g>
	<ellipse style="fill:#FFA8CB;" cx="310.55" cy="174.59" rx="17" ry="8.724"/>
	<ellipse style="fill:#FFA8CB;" cx="196.39" cy="174.59" rx="17" ry="8.724"/>
</g>
<g>
	<path style="fill:#495059;" d="M288.978,164.797c-4.142,0-7.5-3.357-7.5-7.5v-8.474c0-4.143,3.358-7.5,7.5-7.5s7.5,3.357,7.5,7.5
		v8.474C296.478,161.439,293.12,164.797,288.978,164.797z"/>
	<path style="fill:#495059;" d="M217.959,164.797c-4.142,0-7.5-3.357-7.5-7.5v-8.474c0-4.143,3.358-7.5,7.5-7.5s7.5,3.357,7.5,7.5
		v8.474C225.459,161.439,222.101,164.797,217.959,164.797z"/>
	<circle style="fill:#495059;" cx="118.74" cy="205.35" r="6.747"/>
	<circle style="fill:#495059;" cx="75.75" cy="205.35" r="6.747"/>
</g>
<path style="opacity:0.05;enable-background:new    ;" d="M297.806,104.763c43.66,9.905,76.255,48.945,76.255,95.602v45.073
	c0,48.592-39.392,87.985-87.984,87.985h-53.389C310.442,288.182,323.621,163.825,297.806,104.763z"/>
<path style="fill:#498A68;" d="M275.554,400.635c-6.412,0-12.237-4.359-13.828-10.866c-1.869-7.643,2.811-15.354,10.455-17.223
	l0.393-0.096c4.733-1.165,19.134-4.715,35.213-1.969c7.756,1.324,12.971,8.685,11.646,16.441
	c-1.324,7.757-8.681,12.978-16.441,11.646c-10.227-1.743-19.944,0.649-23.602,1.549l-0.439,0.108
	C277.813,400.503,276.675,400.635,275.554,400.635z"/>
<path style="fill:#E5E5E5;" d="M460.567,361.787L460.567,361.787c7.63-4.464,17.414-0.411,19.653,8.141l0,0
	c0.451,1.721,1.794,3.064,3.515,3.515l0,0c8.552,2.239,12.605,12.023,8.141,19.653l0,0c-0.898,1.535-0.898,3.435,0,4.971l0,0
	c4.464,7.63,0.411,17.414-8.141,19.653l0,0c-1.721,0.451-3.064,1.794-3.515,3.515l0,0c-2.239,8.552-12.023,12.605-19.653,8.141l0,0
	c-1.535-0.898-3.436-0.898-4.971,0l0,0c-7.63,4.464-17.414,0.411-19.653-8.141l0,0c-0.451-1.721-1.794-3.064-3.515-3.515l0,0
	c-8.552-2.239-12.605-12.023-8.141-19.653l0,0c0.898-1.535,0.898-3.435,0-4.971l0,0c-4.464-7.63-0.411-17.414,8.141-19.653l0,0
	c1.721-0.451,3.064-1.794,3.515-3.515l0,0c2.239-8.552,12.023-12.605,19.653-8.141l0,0
	C457.132,362.685,459.032,362.685,460.567,361.787z"/>
<g>
</g>
<g>
</g>
<g>
</g>
<g>
</g>
<g>
</g>
<g>
</g>
<g>
</g>
<g>
</g>
<g>
</g>
<g>
</g>
<g>
</g>
<g>
</g>
<g>
</g>
<g>
</g>
<g>
</g>
</svg>
