<?xml version="1.0" encoding="iso-8859-1"?>
<!-- Generator: Adobe Illustrator 19.0.0, SVG Export Plug-In . SVG Version: 6.00 Build 0)  -->
<svg version="1.1" id="Capa_1" xmlns="http://www.w3.org/2000/svg" xmlns:xlink="http://www.w3.org/1999/xlink" x="0px" y="0px"
	 viewBox="0 0 512.001 512.001" style="enable-background:new 0 0 512.001 512.001;" xml:space="preserve">
<path style="fill:#498A68;" d="M370.307,386.656c-5.839,0-11.488-3.136-14.432-8.646c-5.607-10.492-14.601-17.615-17.986-20.296
	l-0.411-0.327c-7.067-5.617-8.243-15.9-2.625-22.968c5.615-7.067,15.898-8.246,22.968-2.625l0.366,0.29
	c4.381,3.47,17.711,14.027,26.524,30.518c4.255,7.962,1.25,17.866-6.713,22.122C375.544,386.033,372.905,386.656,370.307,386.656z"
	/>
<path style="fill:#5CB38E;" d="M233.974,416.608c-76.284,0-164.073,0-228.341-41.032c-10.998-7.021-4.637-23.979,8.296-22.253
	c50.895,6.794,93.645-6.161,118.022-27.147L233.974,416.608z"/>
<path style="opacity:0.1;enable-background:new    ;" d="M103.176,343.489c0.85,24.362,4.59,48.679,19.607,68.899
	c37.188,4.219,75.452,4.22,111.191,4.22l-102.023-90.431C124.138,332.904,114.428,338.798,103.176,343.489z"/>
<g>
	<path style="fill:#498A68;" d="M199.824,491.019c-0.647,0-1.299-0.025-1.955-0.075c-13.848-1.065-24.212-13.154-23.147-27.003
		c0.966-12.568-0.07-54.485-1.873-63.766c-4.138-12.46,2.051-26.167,14.387-31.193c12.863-5.237,27.538,0.939,32.78,13.802
		c6.778,16.642,5.166,80.987,4.857,85.013C223.858,480.989,212.838,491.019,199.824,491.019z M173.422,401.733
		c0.004,0.009,0.007,0.018,0.011,0.028C173.43,401.751,173.426,401.742,173.422,401.733z"/>
	<path style="fill:#498A68;" d="M291.03,491.019c-0.648,0-1.3-0.025-1.957-0.075c-13.848-1.066-24.211-13.156-23.145-27.006
		c0.968-12.565-0.069-54.474-1.873-63.761c-4.139-12.46,2.048-26.166,14.385-31.194c12.857-5.241,27.537,0.936,32.781,13.799
		c6.783,16.647,5.167,80.991,4.858,85.018C315.063,480.99,304.043,491.019,291.03,491.019z M264.631,401.737
		c0.003,0.009,0.006,0.018,0.01,0.027C264.639,401.755,264.634,401.745,264.631,401.737z"/>
</g>
<path style="opacity:0.1;enable-background:new    ;" d="M316.467,444.493c-0.02-21.376-0.942-51.147-5.246-61.711
	c-5.243-12.863-19.924-19.04-32.781-13.799c-12.336,5.029-18.524,18.734-14.385,31.194c1.447,7.447,2.398,35.861,2.22,53.309
	C285.691,452.212,302.328,449.244,316.467,444.493z"/>
<path style="opacity:0.1;enable-background:new    ;" d="M187.236,368.982c-12.336,5.026-18.525,18.733-14.387,31.193
	c1.26,6.486,2.144,28.907,2.234,46.116c14.268,4.126,30.901,6.601,50.131,7.517c0.232-20.9-0.223-58.809-5.198-71.023
	C214.774,369.921,200.099,363.744,187.236,368.982z"/>
<path style="fill:#5CB38E;" d="M357.729,327.876c0,58.712-7.975,101.195-114.819,101.195s-114.819-42.483-114.819-101.195
	s51.406-106.307,114.819-106.307C306.322,221.569,357.729,269.164,357.729,327.876z"/>
<path style="fill:#9BDFC1;" d="M357.729,327.876c0-0.468-0.013-0.933-0.019-1.4c-23.915-6.137-71.351-7.922-104.361,27.159
	c-24.055,25.564-27.536,53.151-24.955,75.152c4.624,0.188,9.459,0.284,14.517,0.284
	C349.754,429.071,357.729,386.588,357.729,327.876z"/>
<path style="opacity:0.05;enable-background:new    ;" d="M221.112,223.49c-52.987,9.43-93.022,52.575-93.022,104.386
	c0,54.364,6.851,94.808,92.686,100.501C173.118,380.004,182.336,280.125,221.112,223.49z"/>
<path style="fill:#5CB38E;" d="M348.302,68.465L348.302,68.465c-19.607-29.65-52.782-47.484-88.328-47.484h-43.695
	c-62.122,0-112.482,50.36-112.482,112.482v51.715c0,55.754,45.197,100.951,100.951,100.951h231.628
	c41.767,0,75.625-33.859,75.625-75.625v-35.197c0-41.767-33.858-75.625-75.625-75.625H406.37
	C383.001,99.682,361.192,87.958,348.302,68.465z"/>
<g style="opacity:0.1;">
	<circle cx="164.901" cy="209.76" r="7.741"/>
	<circle cx="219.931" cy="221.57" r="7.741"/>
	<circle cx="188.441" cy="247.97" r="7.741"/>
</g>
<g>
	<ellipse style="fill:#FFA8CB;" cx="176.671" cy="103.89" rx="19.511" ry="10.01"/>
	<ellipse style="fill:#FFA8CB;" cx="307.661" cy="103.89" rx="19.511" ry="10.01"/>
</g>
<g>
	<path style="fill:#495059;" d="M201.42,91.547c-4.143,0-7.5-3.357-7.5-7.5v-9.723c0-4.143,3.357-7.5,7.5-7.5s7.5,3.357,7.5,7.5
		v9.723C208.92,88.189,205.562,91.547,201.42,91.547z"/>
	<path style="fill:#495059;" d="M282.905,91.547c-4.143,0-7.5-3.357-7.5-7.5v-9.723c0-4.143,3.357-7.5,7.5-7.5s7.5,3.357,7.5,7.5
		v9.723C290.405,88.189,287.048,91.547,282.905,91.547z"/>
	<circle style="fill:#495059;" cx="396.741" cy="139.18" r="7.741"/>
	<circle style="fill:#495059;" cx="446.071" cy="139.18" r="7.741"/>
</g>
<path style="opacity:0.05;enable-background:new    ;" d="M191.29,23.771c-50.094,11.364-87.493,56.158-87.493,109.691v51.715
	c0,55.754,45.197,100.951,100.951,100.951h61.257C176.793,234.221,161.671,91.537,191.29,23.771z"/>
<path style="fill:#CD5B5B;" d="M305.412,399.674h-32.446c-3.905,0-7.189-2.931-7.63-6.811l-5.652-49.653h59.011l-5.652,49.653
	C312.601,396.743,309.317,399.674,305.412,399.674z"/>
<path style="fill:#A3E3FF;" d="M436.18,223.987c-3.728,3.894-8.954,6.341-14.771,6.341c-4.431,0-8.519-1.426-11.868-3.819
	l8.08,30.79c2.828,10.774-2.864,21.956-13.238,26.011c-10.481,4.094-22.379,2.889-31.825-3.228l-34.23-22.173
	c-12.432-8.049-28.236-8.655-41.25-1.582c-13.01,7.074-21.093,20.671-21.093,35.48v34.128c0,7.292,5.911,13.203,13.203,13.203
	s13.203-5.911,13.203-13.203v-34.128c0-7.502,5.106-11.087,7.301-12.281c2.196-1.195,7.982-3.53,14.28,0.547l34.23,22.173
	c16.56,10.725,37.416,12.838,55.792,5.659c22.859-8.932,35.398-33.569,29.168-57.307L436.18,223.987z"/>
<path style="fill:#806C6C;" d="M374.6,281.299c-0.691-0.383-1.374-0.785-2.042-1.217l-34.23-22.174
	c-12.432-8.049-28.236-8.655-41.25-1.582c-13.01,7.075-21.093,20.67-21.093,35.48v34.128c0,7.292,5.911,13.203,13.203,13.203
	s13.203-5.911,13.203-13.203v-34.128c0-7.502,5.106-11.087,7.301-12.281c2.196-1.195,7.982-3.53,14.28,0.546l34.229,22.173
	c5.091,3.297,10.59,5.773,16.296,7.422C371.153,300.859,370.916,289.239,374.6,281.299z"/>
<path style="fill:#FFFFFF;" d="M326.426,317.736h-74.474c-2.774,0-5.022,2.248-5.022,5.022v15.429c0,2.774,2.248,5.022,5.022,5.022
	h74.474c2.774,0,5.022-2.249,5.022-5.022v-15.429C331.448,319.985,329.199,317.736,326.426,317.736z"/>
<path style="fill:#498A68;" d="M258.997,385.052c-0.922,0-1.855-0.077-2.794-0.24c-14.874-2.561-35.097-12.242-41.945-17.52
	c-7.152-5.511-8.48-15.776-2.969-22.926c5.5-7.137,15.735-8.477,22.886-3c3.054,2.202,17.962,9.571,27.577,11.226
	c8.897,1.533,14.868,9.987,13.336,18.884C273.717,379.435,266.807,385.052,258.997,385.052z"/>
<path style="fill:#495059;" d="M421.409,237.827c-8.086,0-15.775-3.502-21.097-9.607c-2.722-3.123-2.395-7.86,0.727-10.582
	c3.122-2.721,7.859-2.395,10.582,0.727c2.472,2.836,6.039,4.463,9.788,4.463s7.316-1.627,9.788-4.463
	c2.722-3.123,7.457-3.448,10.582-0.727c3.122,2.722,3.448,7.459,0.727,10.582C437.185,234.325,429.495,237.827,421.409,237.827z"/>
<g>
</g>
<g>
</g>
<g>
</g>
<g>
</g>
<g>
</g>
<g>
</g>
<g>
</g>
<g>
</g>
<g>
</g>
<g>
</g>
<g>
</g>
<g>
</g>
<g>
</g>
<g>
</g>
<g>
</g>
</svg>
