<?xml version="1.0" encoding="iso-8859-1"?>
<!-- Generator: Adobe Illustrator 19.0.0, SVG Export Plug-In . SVG Version: 6.00 Build 0)  -->
<svg version="1.1" id="Capa_1" xmlns="http://www.w3.org/2000/svg" xmlns:xlink="http://www.w3.org/1999/xlink" x="0px" y="0px"
	 viewBox="0 0 512 512" style="enable-background:new 0 0 512 512;" xml:space="preserve">
<path style="fill:#5CB38E;" d="M293.031,312.503L293.031,312.503c-17.97-27.175-48.377-43.522-80.956-43.522h-40.048
	c-56.937,0-103.094,46.157-103.094,103.094v47.399c0,51.101,41.425,92.526,92.526,92.526h212.296
	c38.281,0,69.313-31.033,69.313-69.313v-32.259c0-38.281-31.033-69.313-69.313-69.313h-27.502
	C324.834,341.114,304.845,330.368,293.031,312.503z"/>
<path style="fill:#495059;" d="M380.488,457.632c0-15.339-7.951-27.773-20.452-27.773s-20.452,12.434-20.452,27.773
	c0,15.338,9.156,22.4,20.452,22.4S380.488,472.97,380.488,457.632z"/>
<g style="opacity:0.1;">
	<circle cx="124.93" cy="442" r="7.095"/>
	<circle cx="175.37" cy="452.83" r="7.095"/>
	<circle cx="146.51" cy="477.03" r="7.095"/>
</g>
<g>
	<ellipse style="fill:#FFA8CB;" cx="135.72" cy="344.97" rx="17.883" ry="9.174"/>
	<ellipse style="fill:#FFA8CB;" cx="255.78" cy="344.97" rx="17.883" ry="9.174"/>
</g>
<g>
	<path style="fill:#495059;" d="M158.408,334.283c-4.142,0-7.5-3.357-7.5-7.5v-8.911c0-4.143,3.358-7.5,7.5-7.5s7.5,3.357,7.5,7.5
		v8.911C165.908,330.926,162.55,334.283,158.408,334.283z"/>
	<path style="fill:#495059;" d="M233.092,334.283c-4.142,0-7.5-3.357-7.5-7.5v-8.911c0-4.143,3.358-7.5,7.5-7.5s7.5,3.357,7.5,7.5
		v8.911C240.592,330.926,237.234,334.283,233.092,334.283z"/>
	<circle style="fill:#495059;" cx="337.43" cy="377.32" r="7.095"/>
	<circle style="fill:#495059;" cx="382.64" cy="377.32" r="7.095"/>
</g>
<path style="opacity:0.05;enable-background:new    ;" d="M149.123,271.538c-45.913,10.416-80.191,51.471-80.191,100.537v47.399
	c0,51.101,41.425,92.526,92.526,92.526h56.145C135.836,464.425,121.976,333.649,149.123,271.538z"/>
<path style="fill:#FAE17C;" d="M218.808,170.075c0-27.066,27.484-30.062,27.484-71.146c0-32.058-25.988-58.047-58.047-58.047
	c-32.058,0-58.047,25.988-58.047,58.047c0,41.084,27.484,44.08,27.484,71.146H218.808z"/>
<circle style="fill:#495059;" cx="188.25" cy="221.86" r="25.563"/>
<path style="opacity:0.05;enable-background:new    ;" d="M186.614,196.352c-12.811,0.795-23.203,11.28-23.894,24.097
	c-0.811,15.044,11.394,27.448,26.37,26.965c0.002-0.006,0.001-0.002,0.003-0.008c-4.777-4.059-8.533-9.743-10.019-14.481
	c-0.616-1.967,0.878-3.961,2.939-3.961h30.788c0.651-2.255,1.007-4.635,1.007-7.1C213.808,207.206,201.471,195.43,186.614,196.352z"
	/>
<path style="fill:#959BA0;" d="M222.448,170.075h-68.406c-4.813,0-8.714,3.901-8.714,8.714v34.361c0,4.813,3.902,8.714,8.714,8.714
	h68.406c4.813,0,8.714-3.902,8.714-8.714v-34.361C231.162,173.976,227.261,170.075,222.448,170.075z"/>
<path style="opacity:0.05;enable-background:new    ;" d="M154.042,170.074c-4.813,0-8.715,3.902-8.715,8.715v34.361
	c0,4.813,3.902,8.715,8.715,8.715h24.343c-10.755-10.719-13.948-32.289-9.367-51.79L154.042,170.074L154.042,170.074z"/>
<rect x="145.33" y="188.47" style="opacity:0.1;enable-background:new    ;" width="85.83" height="15"/>
<g>
	<path style="fill:#FAE17C;" d="M188.245,28.849c-4.142,0-7.5-3.357-7.5-7.5V7.5c0-4.143,3.358-7.5,7.5-7.5s7.5,3.357,7.5,7.5
		v13.849C195.745,25.491,192.387,28.849,188.245,28.849z"/>
	<path style="fill:#FAE17C;" d="M133.388,51.571c-1.919,0-3.839-0.732-5.303-2.196l-9.792-9.792c-2.929-2.929-2.929-7.678,0-10.606
		c2.929-2.93,7.678-2.929,10.606-0.001l9.792,9.792c2.929,2.929,2.929,7.678,0,10.606C137.227,50.839,135.307,51.571,133.388,51.571
		z"/>
	<path style="fill:#FAE17C;" d="M110.665,106.429H96.816c-4.142,0-7.5-3.357-7.5-7.5s3.358-7.5,7.5-7.5h13.849
		c4.142,0,7.5,3.357,7.5,7.5C118.165,103.071,114.807,106.429,110.665,106.429z"/>
	<path style="fill:#FAE17C;" d="M243.102,51.571c-1.919,0-3.839-0.732-5.304-2.197c-2.929-2.929-2.928-7.678,0.001-10.606
		l9.793-9.792c2.929-2.929,7.678-2.928,10.606,0.001c2.929,2.929,2.929,7.678,0,10.606l-9.793,9.792
		C246.941,50.839,245.021,51.571,243.102,51.571z"/>
	<path style="fill:#FAE17C;" d="M279.674,106.429h-13.85c-4.143,0-7.5-3.357-7.5-7.5s3.357-7.5,7.5-7.5h13.85
		c4.143,0,7.5,3.357,7.5,7.5C287.174,103.071,283.816,106.429,279.674,106.429z"/>
</g>
<path style="opacity:0.05;enable-background:new    ;" d="M162.682,125.855c-21.461-22.891-14.526-65.019,7.263-82.012
	c-23.088,7.667-39.747,29.424-39.747,55.086c0,41.084,27.484,44.08,27.484,71.146h23.136
	C180.924,156.365,177.915,142.104,162.682,125.855z"/>
<g>
</g>
<g>
</g>
<g>
</g>
<g>
</g>
<g>
</g>
<g>
</g>
<g>
</g>
<g>
</g>
<g>
</g>
<g>
</g>
<g>
</g>
<g>
</g>
<g>
</g>
<g>
</g>
<g>
</g>
</svg>
