<?xml version="1.0" encoding="iso-8859-1"?>
<!-- Generator: Adobe Illustrator 19.0.0, SVG Export Plug-In . SVG Version: 6.00 Build 0)  -->
<svg version="1.1" id="Capa_1" xmlns="http://www.w3.org/2000/svg" xmlns:xlink="http://www.w3.org/1999/xlink" x="0px" y="0px"
	 viewBox="0 0 512 512" style="enable-background:new 0 0 512 512;" xml:space="preserve">
<path style="fill:#498A68;" d="M141.695,378.37c-2.6,0-5.237-0.623-7.69-1.933c-7.963-4.255-10.968-14.16-6.713-22.122
	c8.816-16.497,22.148-27.053,26.53-30.522l0.363-0.287c7.068-5.614,17.352-4.439,22.967,2.63c5.616,7.068,4.439,17.351-2.63,22.968
	l-0.406,0.322c-3.386,2.681-12.38,9.802-17.989,20.298C153.183,375.232,147.534,378.37,141.695,378.37z"/>
<path style="fill:#5CB38E;" d="M278.026,408.322c76.284,0,164.073,0,228.341-41.032c10.998-7.021,4.637-23.979-8.296-22.253
	c-50.895,6.794-93.645-6.161-118.022-27.147L278.026,408.322z"/>
<path style="opacity:0.1;enable-background:new    ;" d="M408.825,335.203c-0.85,24.362-4.59,48.679-19.607,68.899
	c-37.188,4.219-75.452,4.22-111.191,4.22l102.023-90.431C387.863,324.617,397.573,330.512,408.825,335.203z"/>
<g>
	<path style="fill:#498A68;" d="M312.178,482.733c-13.014,0-24.033-10.029-25.048-23.221c-0.31-4.027-1.925-68.372,4.857-85.015
		c5.241-12.862,19.916-19.04,32.779-13.8c12.336,5.026,18.525,18.733,14.386,31.193c-1.803,9.282-2.839,51.197-1.873,63.764
		c1.065,13.849-9.298,25.939-23.146,27.004C313.478,482.708,312.825,482.733,312.178,482.733z M338.578,393.447
		c-0.004,0.01-0.008,0.02-0.012,0.029C338.57,393.466,338.574,393.457,338.578,393.447z"/>
	<path style="fill:#498A68;" d="M207.822,480.592c-12.929,0-23.919-9.909-25.031-23.026c-2.7-31.854,17.143-80.993,17.989-83.07
		c5.241-12.862,19.916-19.04,32.779-13.8c12.862,5.241,19.041,19.916,13.8,32.779c-5.635,13.829-15.658,45.581-14.45,59.842
		c1.173,13.84-9.096,26.011-22.936,27.184C209.252,480.563,208.534,480.592,207.822,480.592z"/>
</g>
<path style="opacity:0.1;enable-background:new    ;" d="M324.766,360.697c-12.864-5.24-27.538,0.938-32.779,13.8
	c-4.977,12.215-5.432,50.124-5.199,71.025c19.23-0.916,35.862-3.391,50.13-7.517c0.089-17.207,0.973-39.627,2.234-46.114
	C343.291,379.429,337.103,365.723,324.766,360.697z"/>
<path style="opacity:0.1;enable-background:new    ;" d="M233.559,360.697c-12.864-5.24-27.538,0.938-32.779,13.8
	c-0.637,1.564-12.056,29.849-16.494,57.325c13.509,6.085,29.723,10.145,48.977,12.289c1.911-15.916,9.476-39.296,14.096-50.635
	C252.6,380.613,246.422,365.938,233.559,360.697z"/>
<path style="fill:#5CB38E;" d="M154.272,319.59c0,58.712,7.975,101.195,114.819,101.195S383.91,378.302,383.91,319.59
	s-51.406-106.307-114.819-106.307C205.679,213.282,154.272,260.878,154.272,319.59z"/>
<path style="fill:#9BDFC1;" d="M154.272,319.59c0-0.468,0.013-0.933,0.019-1.4c23.915-6.137,71.351-7.922,104.361,27.159
	c24.055,25.564,27.536,53.151,24.955,75.152c-4.624,0.188-9.459,0.284-14.517,0.284C162.247,420.784,154.272,378.302,154.272,319.59
	z"/>
<path style="opacity:0.05;enable-background:new    ;" d="M290.889,215.204c52.987,9.43,93.022,52.575,93.022,104.386
	c0,54.364-6.851,94.809-92.686,100.501C338.882,371.718,329.665,271.839,290.889,215.204z"/>
<path style="fill:#959BA0;" d="M362.981,306.647H160.914c-16.282,0-29.481-13.199-29.481-29.481v-15.739
	c0-16.282,13.199-29.481,29.481-29.481h202.067c16.282,0,29.481,13.199,29.481,29.481v15.739
	C392.462,293.448,379.263,306.647,362.981,306.647z"/>
<g style="opacity:0.1;">
	<rect x="254.45" y="231.95" width="15" height="74.7"/>
	<rect x="206.45" y="231.95" width="15" height="74.7"/>
	<rect x="163.79" y="231.95" width="15" height="74.7"/>
	<rect x="302.45" y="231.95" width="15" height="74.7"/>
	<rect x="345.11" y="231.95" width="15" height="74.7"/>
</g>
<path style="fill:#495059;" d="M163.699,60.179L163.699,60.179c19.607-29.65,52.782-47.485,88.328-47.485h43.695
	c62.122,0,112.482,50.36,112.482,112.482v51.715c0,55.754-45.197,100.951-100.951,100.951H75.625
	C33.858,277.842,0,243.984,0,202.218v-35.197c0-41.766,33.858-75.625,75.625-75.625h30.006
	C129,91.396,150.809,79.671,163.699,60.179z"/>
<path style="fill:#5CB38E;" d="M316.836,105.257h-93.995c-18.975,0-34.358-15.382-34.358-34.358l0,0
	c0-18.975,15.382-34.358,34.358-34.358h93.995c18.975,0,34.358,15.382,34.358,34.358l0,0
	C351.194,89.875,335.811,105.257,316.836,105.257z"/>
<g style="opacity:0.1;">
	<circle cx="347.1" cy="201.47" r="7.741"/>
	<circle cx="292.07" cy="213.28" r="7.741"/>
	<circle cx="323.56" cy="239.69" r="7.741"/>
</g>
<g>
	<path style="fill:#495059;" d="M310.581,90.805c-4.142,0-7.5-3.357-7.5-7.5v-9.723c0-4.143,3.358-7.5,7.5-7.5s7.5,3.357,7.5,7.5
		v9.723C318.081,87.447,314.723,90.805,310.581,90.805z"/>
	<path style="fill:#495059;" d="M229.096,90.805c-4.142,0-7.5-3.357-7.5-7.5v-9.723c0-4.143,3.358-7.5,7.5-7.5s7.5,3.357,7.5,7.5
		v9.723C236.596,87.447,233.238,90.805,229.096,90.805z"/>
	<path style="fill:#495059;" d="M239.456,68.61c-0.212,0-0.426-0.009-0.642-0.026l-21.456-1.818
		c-4.127-0.351-7.189-3.979-6.84-8.107c0.35-4.127,3.977-7.183,8.106-6.84l21.456,1.818c4.127,0.351,7.189,3.979,6.84,8.107
		C246.589,65.655,243.311,68.61,239.456,68.61z"/>
	<path style="fill:#495059;" d="M300.221,68.61c-3.856,0-7.133-2.955-7.465-6.866c-0.35-4.128,2.712-7.757,6.84-8.107l21.456-1.818
		c4.135-0.335,7.756,2.714,8.106,6.84c0.35,4.128-2.712,7.757-6.84,8.107l-21.456,1.818C300.647,68.602,300.433,68.61,300.221,68.61
		z"/>
</g>
<g>
	<path style="fill:#FFFFFF;" d="M90.592,229.541c-8.086,0-15.775-3.502-21.096-9.607c-2.721-3.123-2.396-7.86,0.727-10.582
		c3.123-2.721,7.86-2.396,10.582,0.727c2.472,2.836,6.039,4.463,9.788,4.463s7.316-1.627,9.788-4.463
		c2.722-3.123,7.459-3.447,10.582-0.727c3.123,2.722,3.448,7.459,0.727,10.582C106.367,226.039,98.678,229.541,90.592,229.541z"/>
	<circle style="fill:#FFFFFF;" cx="115.26" cy="130.9" r="7.741"/>
	<circle style="fill:#FFFFFF;" cx="65.925" cy="130.9" r="7.741"/>
</g>
<path style="opacity:0.05;enable-background:new    ;" d="M320.711,15.485c50.094,11.364,87.493,56.159,87.493,109.691v51.715
	c0,55.754-45.197,100.951-100.951,100.951h-61.257C335.208,225.935,350.329,83.251,320.711,15.485z"/>
<path style="fill:#E5E5E5;" d="M274.361,376.773l-15.868-38.914c-2.88-7.063-12.381-8.252-16.912-2.116l0,0
	c-7.811,10.576-18.022,19.144-29.793,25l0,0c-6.83,3.397-7.309,12.96-0.853,17.023l35.568,22.384L274.361,376.773z"/>
<path style="opacity:0.05;enable-background:new    ;" d="M274.361,376.773l-15.868-38.914c-2.88-7.063-12.381-8.252-16.912-2.116
	l0,0c-7.811,10.576-18.022,19.144-29.793,25l0,0c-6.83,3.397-7.309,12.96-0.853,17.023l35.568,22.384L274.361,376.773z"/>
<path style="fill:#E5E5E5;" d="M351.319,380.675c24.79,29.544,21.794,59.337-18.947,93.522s-70.601,31.963-95.391,2.419
	s-19.291-74.971,12.282-101.464C280.837,348.659,326.529,351.132,351.319,380.675z"/>
<g>
	<path style="fill:#495059;" d="M292.394,461.807c-2.141,0-4.266-0.911-5.75-2.679c-2.662-3.174-2.249-7.904,0.925-10.566
		l18.253-15.315c0.892-0.749,1.439-1.8,1.541-2.96s-0.255-2.291-1.003-3.183c-0.749-0.893-1.8-1.44-2.961-1.541
		c-1.155-0.107-2.289,0.254-3.182,1.003l-9.168,7.691c-3.96,3.325-8.976,4.915-14.132,4.456c-5.152-0.45-9.819-2.881-13.144-6.843
		c-3.324-3.961-4.906-8.98-4.456-14.131c0.451-5.152,2.881-9.82,6.843-13.145l18.251-15.314c3.172-2.661,7.904-2.248,10.566,0.924
		c2.663,3.174,2.249,7.904-0.924,10.566l-18.252,15.315c-0.893,0.749-1.44,1.8-1.541,2.96c-0.102,1.16,0.255,2.291,1.003,3.183
		c0.749,0.894,1.8,1.44,2.96,1.542c1.159,0.096,2.29-0.255,3.182-1.004l9.167-7.691c3.961-3.325,8.98-4.913,14.132-4.456
		c5.151,0.451,9.819,2.881,13.143,6.842c3.324,3.962,4.907,8.98,4.456,14.133c-0.451,5.151-2.881,9.819-6.842,13.142l-18.253,15.316
		C295.806,461.231,294.095,461.807,292.394,461.807z"/>
	<path style="fill:#495059;" d="M275.567,413.995c-2.141,0-4.266-0.911-5.749-2.679l-8.95-10.666
		c-2.662-3.174-2.249-7.904,0.925-10.566c3.172-2.665,7.903-2.248,10.566,0.924l8.95,10.666c2.662,3.174,2.249,7.904-0.925,10.566
		C278.979,413.42,277.269,413.995,275.567,413.995z"/>
	<path style="fill:#495059;" d="M315.012,461.003c-2.141,0-4.266-0.911-5.749-2.679l-8.95-10.665
		c-2.663-3.173-2.249-7.904,0.924-10.566c3.174-2.662,7.903-2.248,10.566,0.924l8.95,10.665c2.663,3.173,2.249,7.904-0.924,10.566
		C318.424,460.427,316.713,461.003,315.012,461.003z"/>
</g>
<path style="fill:#498A68;" d="M261.962,379.456c-5.783,0-11.386-3.075-14.357-8.506c-4.332-7.922-1.423-17.854,6.498-22.186
	c6.317-3.456,9.303-10.848,9.689-12.924c0.246-8.813,7.467-15.883,16.34-15.883c9.028,0,16.347,7.319,16.347,16.347
	c0,11.023-8.28,31.076-26.688,41.143C267.302,378.809,264.613,379.456,261.962,379.456z M263.786,336.293c0,0.004,0,0.007,0,0.011
	C263.786,336.301,263.786,336.297,263.786,336.293z"/>
<g>
</g>
<g>
</g>
<g>
</g>
<g>
</g>
<g>
</g>
<g>
</g>
<g>
</g>
<g>
</g>
<g>
</g>
<g>
</g>
<g>
</g>
<g>
</g>
<g>
</g>
<g>
</g>
<g>
</g>
</svg>
