<?xml version="1.0" encoding="iso-8859-1"?>
<!-- Generator: Adobe Illustrator 19.0.0, SVG Export Plug-In . SVG Version: 6.00 Build 0)  -->
<svg version="1.1" id="Capa_1" xmlns="http://www.w3.org/2000/svg" xmlns:xlink="http://www.w3.org/1999/xlink" x="0px" y="0px"
	 viewBox="0 0 512.003 512.003" style="enable-background:new 0 0 512.003 512.003;" xml:space="preserve">
<path style="fill:#498A68;" d="M355.832,419.971c-0.074,0.012-0.148,0.024-0.223,0.034c-8.288,1.196-15.976-4.552-17.172-12.84
	c-1.577-10.924-7.173-19.974-9.279-23.38l-0.252-0.408c-4.392-7.13-2.172-16.469,4.957-20.86c7.132-4.387,16.469-2.171,20.86,4.958
	l0.225,0.364c2.726,4.408,11.02,17.824,13.5,34.995C369.633,411.045,363.999,418.669,355.832,419.971z"/>
<path style="fill:#5CB38E;" d="M235.572,442.989c-70.751,0-152.173,0-211.78-38.056c-10.2-6.512-4.301-22.24,7.694-20.639
	c47.203,6.301,86.853-5.714,109.462-25.178L235.572,442.989z"/>
<path style="opacity:0.1;enable-background:new    ;" d="M114.261,375.173c0.789,22.595,4.257,45.149,18.185,63.902
	c34.491,3.914,69.98,3.914,103.127,3.914l-94.623-83.872C133.702,365.355,124.697,370.823,114.261,375.173z"/>
<g>
	<path style="fill:#498A68;" d="M203.898,512.003c-0.601,0-1.205-0.023-1.814-0.069c-12.844-0.988-22.455-12.201-21.467-25.046
		c0.896-11.656-0.064-50.53-1.737-59.139c-3.839-11.556,1.901-24.269,13.342-28.931c11.933-4.86,25.542,0.87,30.402,12.799
		c6.29,15.436,4.792,75.114,4.504,78.849C226.188,502.7,215.967,512.002,203.898,512.003z M179.413,429.193
		c0.003,0.009,0.007,0.018,0.011,0.027C179.42,429.211,179.416,429.202,179.413,429.193z"/>
	<path style="fill:#498A68;" d="M288.49,512.003c-0.601,0-1.205-0.023-1.814-0.069c-12.844-0.988-22.455-12.201-21.467-25.046
		c0.896-11.656-0.065-50.53-1.737-59.139c-3.839-11.556,1.901-24.269,13.342-28.931c11.932-4.86,25.542,0.87,30.402,12.799
		c6.29,15.437,4.793,75.114,4.505,78.849C310.781,502.7,300.559,512.002,288.49,512.003z M264.004,429.194
		c0.003,0.008,0.007,0.017,0.011,0.026C264.012,429.211,264.008,429.202,264.004,429.194z"/>
</g>
<path style="opacity:0.1;enable-background:new    ;" d="M312.082,468.851c-0.019-19.826-0.874-47.437-4.865-57.234
	c-4.86-11.929-18.47-17.659-30.402-12.799c-11.441,4.662-17.181,17.374-13.342,28.931c1.341,6.904,2.224,33.259,2.059,49.444
	C283.538,476.01,298.968,473.258,312.082,468.851z"/>
<path style="opacity:0.1;enable-background:new    ;" d="M192.222,398.818c-11.441,4.662-17.181,17.374-13.342,28.931
	c1.169,6.017,1.989,26.811,2.072,42.77c13.233,3.827,28.659,6.122,46.494,6.972c0.216-19.385-0.205-54.544-4.822-65.873
	C217.764,399.688,204.155,393.958,192.222,398.818z"/>
<path style="fill:#5CB38E;" d="M350.351,360.692c0,54.454-7.397,93.855-106.491,93.855s-106.491-39.402-106.491-93.855
	c0-54.454,47.678-98.597,106.491-98.597S350.351,306.239,350.351,360.692z"/>
<path style="fill:#9BDFC1;" d="M350.351,360.692c0-0.434-0.012-0.865-0.018-1.298c-22.18-5.692-66.176-7.348-96.792,25.189
	c-22.31,23.71-25.539,49.296-23.145,69.701c4.289,0.174,8.773,0.263,13.464,0.263C342.954,454.548,350.351,415.146,350.351,360.692z
	"/>
<path style="opacity:0.05;enable-background:new    ;" d="M223.643,263.878c-49.144,8.746-86.275,48.762-86.275,96.815
	c0,50.421,6.354,87.932,85.964,93.212C179.13,409.04,187.679,316.405,223.643,263.878z"/>
<path style="fill:#5CB38E;" d="M341.608,120.097L341.608,120.097c-18.185-27.499-48.954-44.041-81.922-44.041H219.16
	c-57.616,0-104.323,46.707-104.323,104.323v47.964c0,51.71,41.919,93.629,93.629,93.629h214.828c38.737,0,70.14-31.403,70.14-70.14
	v-32.644c0-38.737-31.403-70.14-70.14-70.14h-27.83C373.79,149.05,353.563,138.175,341.608,120.097z"/>
<g style="opacity:0.1;">
	<circle cx="171.501" cy="251.142" r="7.18"/>
	<circle cx="222.551" cy="262.092" r="7.18"/>
	<circle cx="193.341" cy="286.582" r="7.18"/>
</g>
<g>
	<path style="fill:#495059;" d="M205.379,142.048c-4.142,0-7.5-3.357-7.5-7.5v-9.017c0-4.143,3.358-7.5,7.5-7.5s7.5,3.357,7.5,7.5
		v9.017C212.879,138.69,209.521,142.048,205.379,142.048z"/>
	<path style="fill:#495059;" d="M280.954,142.048c-4.142,0-7.5-3.357-7.5-7.5v-9.017c0-4.143,3.358-7.5,7.5-7.5s7.5,3.357,7.5,7.5
		v9.017C288.454,138.69,285.097,142.048,280.954,142.048z"/>
	<path style="fill:#495059;" d="M214.873,121.888c-0.661,0-1.333-0.088-2.001-0.272l-18.98-5.242
		c-3.993-1.103-6.335-5.233-5.233-9.227c1.103-3.992,5.234-6.337,9.226-5.232l18.979,5.242c3.993,1.102,6.335,5.233,5.233,9.227
		C221.18,119.708,218.162,121.888,214.873,121.888z"/>
	<path style="fill:#495059;" d="M271.46,121.888c-3.289,0-6.307-2.181-7.225-5.505c-1.103-3.993,1.24-8.124,5.233-9.227
		l18.979-5.242c3.991-1.105,8.123,1.24,9.226,5.232c1.103,3.993-1.24,8.124-5.233,9.227l-18.979,5.242
		C272.793,121.801,272.121,121.888,271.46,121.888z"/>
	<path style="fill:#495059;" d="M423.737,277.718c-2.092,0-4.174-0.87-5.657-2.572c-2.19-2.512-5.349-3.952-8.668-3.952
		s-6.479,1.44-8.668,3.952c-2.722,3.123-7.46,3.448-10.582,0.725c-3.122-2.722-3.447-7.459-0.725-10.581
		c5.039-5.781,12.32-9.097,19.976-9.097s14.937,3.315,19.976,9.097c2.722,3.122,2.397,7.859-0.726,10.581
		C427.241,277.111,425.485,277.718,423.737,277.718z"/>
	<circle style="fill:#495059;" cx="386.531" cy="185.692" r="7.18"/>
	<circle style="fill:#495059;" cx="432.291" cy="185.692" r="7.18"/>
</g>
<path style="opacity:0.05;enable-background:new    ;" d="M195.984,78.644c-46.461,10.54-81.147,52.085-81.147,101.735v47.964
	c0,51.71,41.919,93.629,93.629,93.629h56.814C182.538,273.831,168.514,141.495,195.984,78.644z"/>
<path style="fill:#498A68;" d="M236.89,422.989c-0.65,0-1.307-0.041-1.969-0.128c-8.304-1.076-14.163-8.681-13.086-16.984
	c1.42-10.952-1.54-21.179-2.654-25.03l-0.133-0.462c-2.314-8.047,2.334-16.447,10.381-18.761c8.049-2.311,16.447,2.334,18.76,10.381
	l0.12,0.413c1.442,4.983,5.829,20.145,3.597,37.359C250.916,417.417,244.395,422.989,236.89,422.989z"/>
<path style="fill:#495059;" d="M238.449,68.075c-1.811,0-3.626-0.651-5.066-1.972c-3.053-2.799-3.26-7.543-0.461-10.596l8.61-9.394
	H226.34c-3.071,0-5.832-1.873-6.968-4.727s-0.417-6.111,1.814-8.222l17.65-16.698l-15.896-1.498
	c-4.124-0.389-7.152-4.047-6.763-8.171c0.389-4.123,4.052-7.153,8.17-6.763l32.358,3.05c2.93,0.276,5.428,2.24,6.387,5.023
	c0.959,2.782,0.202,5.869-1.936,7.892l-15.975,15.115h13.4c2.974,0,5.668,1.758,6.865,4.479c1.197,2.723,0.673,5.896-1.336,8.089
	l-20.13,21.96C242.501,67.257,240.478,68.075,238.449,68.075z"/>
<g>
</g>
<g>
</g>
<g>
</g>
<g>
</g>
<g>
</g>
<g>
</g>
<g>
</g>
<g>
</g>
<g>
</g>
<g>
</g>
<g>
</g>
<g>
</g>
<g>
</g>
<g>
</g>
<g>
</g>
</svg>
