<?xml version="1.0" encoding="iso-8859-1"?>
<!-- Generator: Adobe Illustrator 19.0.0, SVG Export Plug-In . SVG Version: 6.00 Build 0)  -->
<svg version="1.1" id="Capa_1" xmlns="http://www.w3.org/2000/svg" xmlns:xlink="http://www.w3.org/1999/xlink" x="0px" y="0px"
	 viewBox="0 0 512.001 512.001" style="enable-background:new 0 0 512.001 512.001;" xml:space="preserve">
<path style="fill:#498A68;" d="M162.054,394.903c-4.948,0-9.802-2.394-12.751-6.82c-4.688-7.035-2.785-16.538,4.25-21.226
	c14.574-9.711,30.248-12.524,35.398-13.447l0.425-0.077c8.319-1.508,16.284,4.016,17.79,12.333
	c1.506,8.319-4.015,16.283-12.333,17.79l-0.476,0.085c-3.981,0.714-14.555,2.611-23.829,8.792
	C167.919,394.072,164.971,394.903,162.054,394.903z"/>
<path style="fill:#5CB38E;" d="M312.369,405.984c68.995-18.487,148.395-39.762,196.579-92.448
	c8.245-9.016-1.617-22.812-12.896-18.116c-44.385,18.479-86.19,17.122-113.324,4.05L312.369,405.984z"/>
<path style="opacity:0.1;enable-background:new    ;" d="M412.949,308.153c5.135,22.24,7.646,45.14-1.036,67.067
	c-32.612,12.829-67.22,22.102-99.544,30.763l70.359-106.515C391.425,303.659,401.635,306.638,412.949,308.153z"/>
<g>
	<path style="fill:#498A68;" d="M326.486,485.463c-12.186,0.001-22.503-9.389-23.454-21.742c-0.29-3.77-1.803-64.021,4.549-79.607
		c4.91-12.044,18.654-17.826,30.694-12.921c11.551,4.708,17.345,17.542,13.469,29.209c-1.689,8.693-2.659,47.938-1.754,59.704
		c0.998,12.968-8.705,24.289-21.672,25.287C327.703,485.44,327.092,485.463,326.486,485.463z M351.206,401.861
		c-0.004,0.008-0.007,0.017-0.01,0.026C351.199,401.878,351.202,401.869,351.206,401.861z"/>
	<path style="fill:#498A68;" d="M230.462,481.431c-10.614,0-20.249-7.227-22.865-17.998c-8.02-33.032,0.045-68.159,20.069-87.408
		c9.376-9.016,24.283-8.719,33.295,0.657c9.013,9.376,8.719,24.282-0.657,33.295c-8.624,8.291-10.317,28.435-6.94,42.344
		c3.069,12.638-4.689,25.371-17.328,28.44C234.171,481.213,232.301,481.431,230.462,481.431z"/>
</g>
<path style="opacity:0.1;enable-background:new    ;" d="M260.305,409.976c9.376-9.013,9.67-23.92,0.657-33.295
	c-9.012-9.376-23.92-9.672-33.295-0.657c-15.354,14.76-23.665,38.856-23.097,64.183c13.372,7.567,29.401,11.285,48.404,11.286
	c0.006,0,0.008,0,0.014,0c0.062,0,0.126-0.002,0.188-0.002C250.06,437.622,251.85,418.105,260.305,409.976z"/>
<path style="opacity:0.1;enable-background:new    ;" d="M338.275,371.193c-12.041-4.905-25.785,0.876-30.694,12.921
	c-4.235,10.392-4.973,40.633-4.909,60.757c3.494-0.826,7.063-1.72,10.732-2.703c13.598-3.643,25.718-7.679,36.467-12.151
	c0.332-12.688,1.008-25.161,1.874-29.614C355.62,388.735,349.826,375.902,338.275,371.193z"/>
<path style="fill:#5CB38E;" d="M178.936,355.722c14.229,53.102,31.737,89.593,128.372,63.7s93.552-66.25,79.324-119.352
	s-72.258-83.691-129.611-68.323C199.667,247.114,164.707,302.62,178.936,355.722z"/>
<path style="fill:#9BDFC1;" d="M178.936,355.722c-0.113-0.423-0.215-0.847-0.322-1.271c20.143-11.347,62.614-24.457,100.971-0.728
	c27.952,17.292,37.785,41.399,40.784,61.923c-4.137,1.29-8.486,2.549-13.061,3.775C210.673,445.314,193.165,408.823,178.936,355.722
	z"/>
<path style="opacity:0.05;enable-background:new    ;" d="M277.201,228.202c50.21-4.313,96.875,25.008,109.431,71.868
	c13.175,49.17,16.78,87.41-59.474,113.36C358.539,358.129,325.997,270.028,277.201,228.202z"/>
<path style="fill:#CD5B5B;" d="M356.053,56.671c0,0,65.622,83.865,84.335,133.409c1.886,4.993,1.632,10.541-0.601,15.389
	l-14.087,30.58c-3.297,7.157-12.154,9.755-18.794,5.513l-21.241-13.568c-4.574-2.922-7.804-7.527-8.992-12.823
	c-5.866-26.152-17.488-86.701-34.45-127.678L356.053,56.671z"/>
<g>
	<path style="fill:#FAE17C;" d="M372.46,195.758l69.076,3.146c0.282-2.967-0.075-5.985-1.147-8.824
		c-0.779-2.062-1.646-4.188-2.579-6.361l-68.674-3.128C370.331,185.947,371.44,191.035,372.46,195.758z"/>
	<path style="fill:#FAE17C;" d="M350.363,109.704c1.602,4.872,3.145,9.855,4.625,14.897l48.779-1.133
		c-3.299-5.039-6.618-9.987-9.889-14.774L350.363,109.704z"/>
</g>
<path style="fill:#CD5B5B;" d="M357.732,65.917l-8.918,15.446c-3.438,5.955-10.411,8.905-17.079,7.226l-23.049-5.806
	c-8.3-2.09-12.297-11.538-8.017-18.951l17.809-30.846c4.279-7.412,14.46-8.675,20.42-2.532l16.552,17.058
	C360.238,52.448,361.17,59.962,357.732,65.917z"/>
<path style="opacity:0.2;enable-background:new    ;" d="M357.732,65.917l-8.918,15.446c-3.438,5.955-10.411,8.905-17.079,7.226
	l-23.049-5.806c-8.3-2.09-12.297-11.538-8.017-18.951l17.809-30.846c4.279-7.412,14.46-8.675,20.42-2.532l16.552,17.058
	C360.238,52.448,361.17,59.962,357.732,65.917z"/>
<path style="fill:#5CB38E;" d="M124.595,118.814L124.595,118.814c10.548-31.568,36.23-55.739,68.38-64.353l39.52-10.589
	c56.186-15.055,113.938,18.288,128.993,74.474l12.533,46.774c13.512,50.426-16.413,102.258-66.84,115.77L97.686,337.023
	c-37.775,10.122-76.604-12.296-86.726-50.071l-8.53-31.833c-10.122-37.775,12.296-76.604,50.071-86.726l27.139-7.272
	C100.776,155.457,117.661,139.567,124.595,118.814z"/>
<g>
	<path style="fill:#495059;" d="M89.841,307.306c-18.837,0-36.814-9.912-46.613-26.727c-2.085-3.579-0.875-8.171,2.704-10.257
		c3.578-2.083,8.172-0.874,10.257,2.704c8.802,15.105,26.761,22.484,43.67,17.959c16.911-4.532,28.772-19.906,28.842-37.388
		c0.017-4.132,3.371-7.47,7.499-7.47c0.011,0,0.021,0,0.031,0c4.142,0.017,7.486,3.388,7.47,7.53
		c-0.098,24.23-16.529,45.537-39.959,51.816C99.129,306.71,94.458,307.306,89.841,307.306z"/>
	<path style="fill:#495059;" d="M138.597,261.287c-1.125,0-2.254-0.074-3.382-0.225c-5.066-0.671-9.759-2.814-13.571-6.197
		c-3.098-2.749-3.381-7.489-0.631-10.588c2.749-3.097,7.489-3.381,10.588-0.631c1.565,1.389,3.496,2.27,5.585,2.547
		c2.089,0.276,4.181-0.07,6.054-1.004c3.708-1.85,8.211-0.34,10.059,3.365c1.849,3.707,0.342,8.211-3.365,10.059
		C146.387,260.381,142.521,261.287,138.597,261.287z"/>
	<path style="fill:#495059;" d="M39.844,288.002c-3.933,0-7.234-3.061-7.479-7.04c-0.254-4.134,2.892-7.691,7.026-7.946
		c2.089-0.128,4.076-0.875,5.746-2.159c1.671-1.284,2.903-3.013,3.564-4.998c1.309-3.93,5.553-6.056,9.485-4.747
		c3.93,1.309,6.056,5.556,4.747,9.485c-1.61,4.836-4.603,9.038-8.655,12.152c-4.051,3.114-8.881,4.926-13.968,5.239
		C40.154,287.997,39.998,288.002,39.844,288.002z"/>
</g>
<g style="opacity:0.1;">
	<circle cx="324.72" cy="202.161" r="7.248"/>
	<circle cx="277.8" cy="226.181" r="7.248"/>
	<circle cx="312.69" cy="242.431" r="7.248"/>
</g>
<g>
	
		<ellipse transform="matrix(0.2588 0.9659 -0.9659 0.2588 342.08 -188.1823)" style="fill:#FFA8CB;" cx="293.66" cy="128.81" rx="15.477" ry="22.59"/>
	
		<ellipse transform="matrix(0.2588 0.9659 -0.9659 0.2588 284.9271 -50.2148)" style="fill:#FFA8CB;" cx="175.184" cy="160.552" rx="15.477" ry="22.59"/>
</g>
<g>
	<path style="fill:#495059;" d="M185.231,138.621c-3.326,0-6.351-2.211-7.225-5.584l-0.021-0.083
		c-1.038-4.01,1.371-8.102,5.382-9.14c4.013-1.042,8.102,1.373,9.14,5.382c1.038,4.01-1.36,8.144-5.371,9.182
		C186.499,138.542,185.859,138.621,185.231,138.621z"/>
	<path style="fill:#495059;" d="M271.211,119.625c-3.311,0-6.342-2.21-7.239-5.561l-3.001-11.199
		c-1.072-4.001,1.302-8.113,5.303-9.186c4.003-1.075,8.114,1.302,9.186,5.303l3.001,11.199c1.072,4.001-1.302,8.113-5.303,9.186
		C272.507,119.542,271.854,119.625,271.211,119.625z"/>
	<circle style="fill:#495059;" cx="97.92" cy="194.511" r="7.248"/>
	<circle style="fill:#495059;" cx="53.3" cy="206.471" r="7.248"/>
</g>
<path style="opacity:0.05;enable-background:new    ;" d="M255.772,40.339c48.062-1.862,92.743,29.589,105.716,78.007l12.533,46.774
	c13.512,50.426-16.413,102.258-66.84,115.77l-55.404,14.845C319.886,227.167,298.984,94.452,255.772,40.339z"/>
<path style="fill:#CD5B5B;" d="M327.027,71.006L136,102.246c-8.656,1.416-15.296-7.537-11.429-15.41l9.954-20.266
	c4.007-8.158,11.713-13.874,20.684-15.341l141.04-23.066c8.454-1.382,17.058,1.363,23.149,7.386l14.399,14.238
	C341.059,56.969,337.106,69.357,327.027,71.006z"/>
<g>
	<polygon style="fill:#FAE17C;" points="147.249,100.407 170.133,96.664 217.476,41.046 194.592,44.789 	"/>
	<path style="fill:#FAE17C;" d="M305.023,28.197c-2.869-0.484-5.83-0.515-8.775-0.033l-12.657,2.07l-47.344,55.618l22.884-3.742
		L305.023,28.197z"/>
</g>
<path style="fill:#498A68;" d="M317.134,358.639c-11.757,0-21.786-2.35-26.155-4.153c-7.814-3.226-11.533-12.175-8.307-19.99
	c3.213-7.781,12.095-11.499,19.887-8.349c1.987,0.699,14.691,3.597,26.401,0.461c8.169-2.192,16.56,2.658,18.747,10.822
	c2.188,8.166-2.657,16.559-10.822,18.747C330.209,357.967,323.424,358.639,317.134,358.639z"/>
<path style="fill:#E5E5E5;" d="M360.319,362.727h-19.435c-4.711,0-8.719-3.435-9.439-8.091l-8.642-55.851
	c-0.377-2.435,1.507-4.632,3.97-4.632h47.656c2.464,0,4.347,2.197,3.97,4.632l-8.642,55.851
	C369.038,359.292,365.03,362.727,360.319,362.727z"/>
<path style="fill:#A9A6DE;" d="M82.739,432.869c-7.876,0-15.498-2.553-21.878-7.399c-7.72-5.863-12.693-14.383-14.005-23.988
	c-2.279-16.682,9.438-32.107,26.121-34.385c6.861-0.942,13.677,0.854,19.191,5.043c5.515,4.189,9.068,10.275,10.005,17.137
	c0.92,6.726-1.268,13.278-5.852,17.525c-4.265,3.954-10.175,5.477-16.21,4.178c-4.05-0.871-6.626-4.859-5.755-8.909
	s4.861-6.62,8.909-5.755c1.871,0.398,2.614-0.288,2.859-0.516c0.971-0.899,1.437-2.663,1.187-4.493
	c-0.815-5.971-6.337-10.154-12.306-9.349c-8.486,1.159-14.448,9.007-13.289,17.494c0.771,5.635,3.688,10.633,8.217,14.073
	s10.122,4.912,15.763,4.142c15.564-2.127,26.498-16.52,24.372-32.085c-0.561-4.104,2.312-7.885,6.415-8.445
	c4.106-0.564,7.885,2.312,8.446,6.416c3.246,23.76-13.443,45.73-37.203,48.975C86.06,432.757,84.394,432.869,82.739,432.869z"/>
<path style="fill:#8783D2;" d="M461.007,120.832c-2.265,0-4.503-1.021-5.978-2.963c-2.505-3.299-1.862-8.004,1.436-10.51
	c12.51-9.502,14.956-27.41,5.453-39.92c-7.102-9.349-20.487-11.178-29.835-4.075c-3.305,2.51-5.434,6.156-5.995,10.267
	s0.512,8.195,3.022,11.499c3.646,4.799,10.514,5.737,15.311,2.091c1.471-1.117,2.389-2.693,2.339-4.016
	c-0.013-0.334-0.052-1.349-1.658-2.387c-3.48-2.248-4.479-6.891-2.23-10.369c2.248-3.48,6.892-4.477,10.369-2.23
	c5.186,3.351,8.287,8.604,8.509,14.415c0.237,6.245-2.848,12.425-8.254,16.531c-11.385,8.648-27.681,6.422-36.329-4.961
	c-10.186-13.407-7.563-32.6,5.843-42.785c15.935-12.103,38.749-8.989,50.853,6.946c14.507,19.097,10.773,46.434-8.323,60.939
	C464.182,120.334,462.588,120.832,461.007,120.832z"/>
<g>
</g>
<g>
</g>
<g>
</g>
<g>
</g>
<g>
</g>
<g>
</g>
<g>
</g>
<g>
</g>
<g>
</g>
<g>
</g>
<g>
</g>
<g>
</g>
<g>
</g>
<g>
</g>
<g>
</g>
</svg>
