<?xml version="1.0" encoding="iso-8859-1"?>
<!-- Generator: Adobe Illustrator 19.0.0, SVG Export Plug-In . SVG Version: 6.00 Build 0)  -->
<svg version="1.1" id="Capa_1" xmlns="http://www.w3.org/2000/svg" xmlns:xlink="http://www.w3.org/1999/xlink" x="0px" y="0px"
	 viewBox="0 0 512 512" style="enable-background:new 0 0 512 512;" xml:space="preserve">
<path style="fill:#498A68;" d="M196.016,368.039c-4.701,0-9.286-2.384-11.901-6.697c-3.981-6.566-1.886-15.116,4.68-19.096
	c4.712-2.857,10.916-8.982,18.439-18.204l0.483-0.591c4.868-5.939,13.628-6.805,19.565-1.938c5.938,4.868,6.806,13.627,1.938,19.565
	l-0.441,0.54c-6.168,7.561-15.53,18.318-25.57,24.405C200.958,367.388,198.472,368.039,196.016,368.039z"/>
<path style="fill:#5CB38E;" d="M313.009,393.514c64.878,0,139.542,0,194.201-34.897c9.353-5.972,3.944-20.394-7.056-18.926
	c-43.285,5.778-79.644-5.24-100.376-23.088L313.009,393.514z"/>
<path style="opacity:0.1;enable-background:new    ;" d="M424.251,331.327c-0.723,20.719-3.904,41.401-16.676,58.598
	c-31.628,3.589-64.171,3.589-94.567,3.589l86.769-76.91C406.423,322.324,414.681,327.338,424.251,331.327z"/>
<g>
	<path style="fill:#498A68;" d="M342.054,456.799c-11.069,0.001-20.44-8.529-21.303-19.75c-0.263-3.424-1.634-58.154,4.132-72.304
		c4.46-10.94,16.944-16.19,27.88-11.736c10.492,4.277,15.754,15.933,12.234,26.53c-1.533,7.896-2.415,43.541-1.593,54.23
		c0.905,11.778-7.909,22.06-19.686,22.966C343.159,456.778,342.603,456.799,342.054,456.799z M364.507,380.866
		c-0.003,0.007-0.006,0.015-0.009,0.023C364.501,380.882,364.504,380.872,364.507,380.866z M365.073,379.169L365.073,379.169
		L365.073,379.169z"/>
	<path style="fill:#498A68;" d="M264.484,456.799c-11.068,0.001-20.439-8.528-21.303-19.748c-0.263-3.423-1.638-58.146,4.13-72.304
		c4.457-10.94,16.937-16.192,27.878-11.739c10.492,4.275,15.755,15.932,12.236,26.529c-1.534,7.897-2.415,43.544-1.592,54.23
		c0.907,11.778-7.907,22.061-19.684,22.968C265.59,456.778,265.034,456.799,264.484,456.799z M286.937,380.863
		c-0.003,0.007-0.006,0.016-0.009,0.024C286.931,380.879,286.934,380.87,286.937,380.863z"/>
</g>
<path style="opacity:0.1;enable-background:new    ;" d="M275.189,353.008c-10.942-4.453-23.421,0.799-27.878,11.739
	c-3.66,8.985-4.443,34.302-4.46,52.482c12.025,4.041,26.175,6.565,42.687,7.649c-0.152-14.841,0.657-39.009,1.887-45.341
	C290.944,368.94,285.681,357.283,275.189,353.008z"/>
<path style="opacity:0.1;enable-background:new    ;" d="M352.762,353.009c-10.936-4.454-23.42,0.796-27.88,11.736
	c-4.232,10.385-4.619,42.63-4.422,60.406c16.355-0.779,30.5-2.884,42.635-6.393c0.076-14.635,0.828-33.701,1.9-39.219
	C368.516,368.941,363.254,357.286,352.762,353.009z"/>
<path style="fill:#5CB38E;" d="M207.758,318.048c0,49.934,6.783,86.065,97.652,86.065s97.652-36.131,97.652-86.065
	s-43.72-90.413-97.652-90.413S207.758,268.115,207.758,318.048z"/>
<path style="fill:#9BDFC1;" d="M207.758,318.048c0-0.398,0.011-0.793,0.016-1.19c20.339-5.22,60.683-6.738,88.758,23.098
	c20.458,21.742,23.419,45.204,21.224,63.916c-3.933,0.16-8.044,0.241-12.346,0.241C214.54,404.113,207.758,367.982,207.758,318.048z
	"/>
<path style="opacity:0.05;enable-background:new    ;" d="M323.948,229.27c45.065,8.02,79.114,44.715,79.114,88.779
	c0,46.236-5.826,80.633-78.828,85.475C364.766,362.383,356.927,277.437,323.948,229.27z"/>
<path style="fill:#5CB38E;" d="M209.598,100.694L209.598,100.694c14.414-26.574,41.2-44.144,71.316-46.778l37.021-3.239
	c52.633-4.605,99.033,34.33,103.638,86.962l3.833,43.816c4.133,47.237-30.81,88.881-78.048,93.014l-196.246,17.169
	c-35.387,3.096-66.583-23.081-69.679-58.467l-2.609-29.82c-3.096-35.387,23.081-66.583,58.467-69.679l25.423-2.224
	C182.513,129.714,200.122,118.164,209.598,100.694z"/>
<g style="opacity:0.1;">
	<circle cx="375.46" cy="206.809" r="6.584"/>
	<circle cx="329.71" cy="220.899" r="6.584"/>
	<circle cx="358.35" cy="240.929" r="6.584"/>
</g>
<g>
	
		<ellipse transform="matrix(0.0872 0.9962 -0.9962 0.0872 438.7485 -232.5449)" style="fill:#FFA8CB;" cx="346.269" cy="123.143" rx="8.513" ry="16.594"/>
	
		<ellipse transform="matrix(-0.0872 -0.9962 0.9962 -0.0872 123.5045 378.8191)" style="fill:#FFA8CB;" cx="235.307" cy="132.827" rx="8.513" ry="16.594"/>
</g>
<g>
	<path style="fill:#495059;" d="M323.826,115.651c-3.847,0-7.121-2.942-7.463-6.847l-0.721-8.237
		c-0.36-4.126,2.691-7.764,6.818-8.125c4.127-0.366,7.764,2.692,8.125,6.818l0.721,8.237c0.36,4.126-2.691,7.764-6.818,8.125
		C324.267,115.643,324.045,115.651,323.826,115.651z"/>
	<path style="fill:#495059;" d="M254.788,121.691c-3.847,0-7.121-2.942-7.463-6.847l-0.72-8.237
		c-0.361-4.126,2.692-7.764,6.818-8.125c4.121-0.353,7.764,2.691,8.125,6.818l0.72,8.237c0.361,4.126-2.691,7.764-6.818,8.125
		C255.227,121.683,255.007,121.691,254.788,121.691z"/>
	<path style="fill:#495059;" d="M158.139,250.815c-6.418,0-12.622-2.482-17.291-6.98c-2.983-2.874-3.072-7.621-0.198-10.604
		c2.873-2.984,7.621-3.074,10.605-0.198c2.071,1.994,4.893,2.999,7.748,2.745c2.853-0.249,5.46-1.726,7.154-4.05
		c2.439-3.347,7.131-4.086,10.478-1.645c3.348,2.439,4.084,7.131,1.645,10.479c-4.247,5.828-10.796,9.531-17.969,10.159
		C159.585,250.785,158.86,250.815,158.139,250.815z"/>
	<circle style="fill:#495059;" cx="173.8" cy="164.199" r="6.584"/>
	<circle style="fill:#495059;" cx="132" cy="167.859" r="6.584"/>
</g>
<path style="opacity:0.05;enable-background:new    ;" d="M339.314,51.188c43.285,5.915,78.291,41.095,82.259,86.451l3.833,43.816
	c4.133,47.237-30.81,88.881-78.048,93.014l-51.9,4.541C367.196,228.417,369.431,106.407,339.314,51.188z"/>
<g>
	<path style="fill:#A3E3FF;" d="M62.636,461.694H6.746c-3.725,0-6.746-3.02-6.746-6.746V348.406c0-3.725,3.02-6.746,6.746-6.746
		h55.89C62.636,341.66,62.636,461.694,62.636,461.694z"/>
	<path style="fill:#A3E3FF;" d="M185.561,461.694h-83.14V341.661h83.14c3.725,0,6.746,3.02,6.746,6.746v106.542
		C192.307,458.673,189.286,461.694,185.561,461.694z"/>
</g>
<rect x="62.64" y="341.66" style="fill:#80B0E3;" width="39.785" height="120.03"/>
<path style="fill:#E5E5E5;" d="M178.135,341.661v-16.123c0-2.272-1.338-4.33-3.419-5.241c-21.936-9.594-80.613-7.931-92.187,1.777
	l0,0c-8.609-9.639-49.126-11.347-65.475-1.981c-1.783,1.021-2.882,2.917-2.882,4.971v16.596L178.135,341.661z"/>
<g>
	<path style="fill:#495059;" d="M187.352,383.125h-15.216c-2.736,0-4.954,2.218-4.954,4.954v27.195c0,2.736,2.218,4.954,4.954,4.954
		h15.216c2.736,0,4.954-2.218,4.954-4.954v-27.195C192.307,385.342,190.088,383.125,187.352,383.125z"/>
	<path style="fill:#495059;" d="M20.17,383.125H4.954c-2.736,0-4.954,2.218-4.954,4.954v27.195c0,2.736,2.218,4.954,4.954,4.954
		H20.17c2.736,0,4.954-2.218,4.954-4.954v-27.195C25.124,385.342,22.906,383.125,20.17,383.125z"/>
	<path style="fill:#495059;" d="M192.311,409.178c-2.838,0-5.553-1.618-6.817-4.365c-1.732-3.763-0.086-8.217,3.676-9.949
		l103.227-47.526c3.764-1.732,8.217-0.087,9.949,3.676s0.087,8.217-3.676,9.949L195.443,408.49
		C194.428,408.957,193.361,409.178,192.311,409.178z"/>
</g>
<path style="fill:#498A68;" d="M295.547,368.056c-4.589,0-9.08-2.269-11.732-6.423c-4.132-6.472-2.235-15.068,4.236-19.2
	c7.516-4.799,12.424-12.33,14.139-16.024c3.234-6.964,11.5-9.987,18.465-6.755c6.964,3.233,9.988,11.501,6.755,18.465
	c-3.884,8.365-12.332,20.049-24.395,27.75C300.697,367.349,298.107,368.056,295.547,368.056z"/>
<g>
</g>
<g>
</g>
<g>
</g>
<g>
</g>
<g>
</g>
<g>
</g>
<g>
</g>
<g>
</g>
<g>
</g>
<g>
</g>
<g>
</g>
<g>
</g>
<g>
</g>
<g>
</g>
<g>
</g>
</svg>
