<?xml version="1.0" encoding="iso-8859-1"?>
<!-- Generator: Adobe Illustrator 19.0.0, SVG Export Plug-In . SVG Version: 6.00 Build 0)  -->
<svg version="1.1" id="Capa_1" xmlns="http://www.w3.org/2000/svg" xmlns:xlink="http://www.w3.org/1999/xlink" x="0px" y="0px"
	 viewBox="0 0 512 512" style="enable-background:new 0 0 512 512;" xml:space="preserve">
<circle style="fill:#959BA0;" cx="256.001" cy="251.16" r="251.16"/>
<path style="opacity:0.1;enable-background:new    ;" d="M203.01,5.619C89.748,29.947,4.838,130.631,4.838,251.163
	c0,138.713,112.449,251.163,251.163,251.163c37.525,0,73.12-8.243,105.094-22.996C69.944,350.935,134.654,84.312,203.01,5.619z"/>
<circle style="fill:#E5E5E5;" cx="256.001" cy="251.16" r="218.84"/>
<path style="fill:#498A68;" d="M295.853,388.329c-3.055,0-6.131-0.987-8.718-3.022c-6.128-4.82-7.188-13.694-2.368-19.822
	l0.251-0.319c3.003-3.831,12.14-15.488,26.462-23.235c6.857-3.71,15.423-1.158,19.132,5.701c3.709,6.858,1.157,15.423-5.701,19.132
	c-9.156,4.952-15.344,12.846-17.673,15.818l-0.28,0.357C304.173,386.479,300.034,388.329,295.853,388.329z"/>
<path style="fill:#5CB38E;" d="M307.214,366.257c0,51.218-6.957,88.279-100.164,88.279s-100.164-37.061-100.164-88.279
	s44.845-92.738,100.164-92.738S307.214,315.039,307.214,366.257z"/>
<path style="fill:#9BDFC1;" d="M307.214,366.257c0-0.408-0.011-0.814-0.017-1.221c-20.863-5.354-62.244-6.911-91.041,23.692
	c-20.985,22.301-24.021,46.367-21.77,65.56c4.034,0.164,8.251,0.247,12.664,0.247C300.257,454.535,307.214,417.475,307.214,366.257z
	"/>
<path style="opacity:0.05;enable-background:new    ;" d="M188.035,275.195c-46.224,8.226-81.149,45.865-81.149,91.062
	c0,47.425,5.976,82.707,80.856,87.673C146.166,411.731,154.207,324.601,188.035,275.195z"/>
<path style="fill:#498A68;" d="M197.425,394.954c-4.069,0-8.105-1.749-10.896-5.132l-0.257-0.31
	c-3.106-3.753-12.56-15.171-17.077-30.831c-2.161-7.491,2.16-15.316,9.651-17.476c7.489-2.164,15.315,2.159,17.476,9.65
	c2.887,10.01,9.288,17.741,11.697,20.652l0.287,0.347c4.962,6.014,4.109,14.911-1.905,19.872
	C203.772,393.897,200.589,394.954,197.425,394.954z"/>
<path style="fill:#5CB38E;" d="M298.991,139.957L298.991,139.957c-17.104-25.866-46.045-41.424-77.054-41.424h-38.118
	c-54.193,0-98.125,43.932-98.125,98.125v45.114c0,48.638,39.428,88.066,88.066,88.066h202.063c36.436,0,65.972-29.537,65.972-65.972
	v-30.704c0-36.436-29.537-65.972-65.972-65.972h-26.176C329.26,167.189,310.236,156.961,298.991,139.957z"/>
<ellipse style="fill:#495059;" cx="362.762" cy="272.81" rx="33.968" ry="29.09"/>
<g style="opacity:0.1;">
	<circle cx="138.992" cy="263.21" r="6.753"/>
	<circle cx="187.001" cy="273.52" r="6.753"/>
	<circle cx="159.531" cy="296.55" r="6.753"/>
</g>
<g>
	<ellipse style="fill:#FFA8CB;" cx="149.261" cy="170.86" rx="17.02" ry="8.732"/>
	<ellipse style="fill:#FFA8CB;" cx="263.531" cy="170.86" rx="17.02" ry="8.732"/>
</g>
<g>
	<path style="fill:#495059;" d="M170.856,161.049c-4.142,0-7.5-3.357-7.5-7.5v-8.481c0-4.143,3.358-7.5,7.5-7.5s7.5,3.357,7.5,7.5
		v8.481C178.356,157.691,174.998,161.049,170.856,161.049z"/>
	<path style="fill:#495059;" d="M241.94,161.049c-4.142,0-7.5-3.357-7.5-7.5v-8.481c0-4.143,3.358-7.5,7.5-7.5s7.5,3.357,7.5,7.5
		v8.481C249.44,157.691,246.082,161.049,241.94,161.049z"/>
	<path style="fill:#495059;" d="M178.43,140.768c-0.299,0-0.601-0.019-0.905-0.055l-17.988-2.164
		c-4.112-0.495-7.045-4.229-6.55-8.342c0.494-4.112,4.227-7.042,8.342-6.551l17.988,2.164c4.112,0.495,7.045,4.23,6.55,8.342
		C185.41,137.971,182.173,140.768,178.43,140.768z"/>
	<path style="fill:#495059;" d="M234.367,140.768c-3.743,0-6.979-2.797-7.437-6.605c-0.495-4.112,2.438-7.847,6.55-8.342
		l17.988-2.164c4.118-0.497,7.848,2.438,8.342,6.551c0.495,4.112-2.438,7.847-6.55,8.342l-17.988,2.164
		C234.967,140.749,234.665,140.768,234.367,140.768z"/>
	<circle style="fill:#495059;" cx="341.251" cy="201.65" r="6.753"/>
	<circle style="fill:#495059;" cx="384.281" cy="201.65" r="6.753"/>
</g>
<path style="opacity:0.05;enable-background:new    ;" d="M162.02,100.967c-43.7,9.914-76.326,48.991-76.326,95.691v45.115
	c0,48.637,39.428,88.066,88.066,88.066h53.439C149.372,284.556,136.181,160.083,162.02,100.967z"/>
<path style="fill:#495059;" d="M454.966,512H57.036c-9.218,0-16.692-7.473-16.692-16.691v-108.61
	c0-9.219,7.473-16.691,16.692-16.691h397.931c9.218,0,16.691,7.473,16.691,16.691v108.609C471.659,504.527,464.185,512,454.966,512z
	"/>
<g>
	<path style="fill:#FFFFFF;" d="M82.886,404.494h-9.04c-4.142,0-7.5-3.357-7.5-7.5s3.358-7.5,7.5-7.5h9.04
		c4.142,0,7.5,3.357,7.5,7.5S87.028,404.494,82.886,404.494z"/>
	<path style="fill:#FFFFFF;" d="M133.639,404.494h-9.04c-4.142,0-7.5-3.357-7.5-7.5s3.358-7.5,7.5-7.5h9.04
		c4.142,0,7.5,3.357,7.5,7.5S137.781,404.494,133.639,404.494z"/>
	<path style="fill:#FFFFFF;" d="M184.393,404.494h-9.04c-4.142,0-7.5-3.357-7.5-7.5s3.358-7.5,7.5-7.5h9.04
		c4.142,0,7.5,3.357,7.5,7.5S188.535,404.494,184.393,404.494z"/>
	<path style="fill:#FFFFFF;" d="M235.145,404.494h-9.04c-4.142,0-7.5-3.357-7.5-7.5s3.358-7.5,7.5-7.5h9.04
		c4.142,0,7.5,3.357,7.5,7.5S239.287,404.494,235.145,404.494z"/>
	<path style="fill:#FFFFFF;" d="M285.897,404.494h-9.04c-4.142,0-7.5-3.357-7.5-7.5s3.358-7.5,7.5-7.5h9.04
		c4.142,0,7.5,3.357,7.5,7.5S290.04,404.494,285.897,404.494z"/>
	<path style="fill:#FFFFFF;" d="M336.65,404.494h-9.04c-4.142,0-7.5-3.357-7.5-7.5s3.358-7.5,7.5-7.5h9.04
		c4.142,0,7.5,3.357,7.5,7.5S340.792,404.494,336.65,404.494z"/>
	<path style="fill:#FFFFFF;" d="M387.404,404.494h-9.04c-4.142,0-7.5-3.357-7.5-7.5s3.358-7.5,7.5-7.5h9.04
		c4.142,0,7.5,3.357,7.5,7.5S391.546,404.494,387.404,404.494z"/>
	<path style="fill:#FFFFFF;" d="M438.156,404.494h-9.04c-4.142,0-7.5-3.357-7.5-7.5s3.358-7.5,7.5-7.5h9.04
		c4.142,0,7.5,3.357,7.5,7.5S442.298,404.494,438.156,404.494z"/>
	<path style="fill:#FFFFFF;" d="M82.886,492.514h-9.04c-4.142,0-7.5-3.357-7.5-7.5s3.358-7.5,7.5-7.5h9.04
		c4.142,0,7.5,3.357,7.5,7.5S87.028,492.514,82.886,492.514z"/>
	<path style="fill:#FFFFFF;" d="M133.639,492.514h-9.04c-4.142,0-7.5-3.357-7.5-7.5s3.358-7.5,7.5-7.5h9.04
		c4.142,0,7.5,3.357,7.5,7.5S137.781,492.514,133.639,492.514z"/>
	<path style="fill:#FFFFFF;" d="M184.393,492.514h-9.04c-4.142,0-7.5-3.357-7.5-7.5s3.358-7.5,7.5-7.5h9.04
		c4.142,0,7.5,3.357,7.5,7.5S188.535,492.514,184.393,492.514z"/>
	<path style="fill:#FFFFFF;" d="M235.145,492.514h-9.04c-4.142,0-7.5-3.357-7.5-7.5s3.358-7.5,7.5-7.5h9.04
		c4.142,0,7.5,3.357,7.5,7.5S239.287,492.514,235.145,492.514z"/>
	<path style="fill:#FFFFFF;" d="M285.897,492.514h-9.04c-4.142,0-7.5-3.357-7.5-7.5s3.358-7.5,7.5-7.5h9.04
		c4.142,0,7.5,3.357,7.5,7.5S290.04,492.514,285.897,492.514z"/>
	<path style="fill:#FFFFFF;" d="M336.65,492.514h-9.04c-4.142,0-7.5-3.357-7.5-7.5s3.358-7.5,7.5-7.5h9.04
		c4.142,0,7.5,3.357,7.5,7.5S340.792,492.514,336.65,492.514z"/>
	<path style="fill:#FFFFFF;" d="M387.404,492.514h-9.04c-4.142,0-7.5-3.357-7.5-7.5s3.358-7.5,7.5-7.5h9.04
		c4.142,0,7.5,3.357,7.5,7.5S391.546,492.514,387.404,492.514z"/>
	<path style="fill:#FFFFFF;" d="M438.156,492.514h-9.04c-4.142,0-7.5-3.357-7.5-7.5s3.358-7.5,7.5-7.5h9.04
		c4.142,0,7.5,3.357,7.5,7.5S442.298,492.514,438.156,492.514z"/>
</g>
<g>
	<path style="fill:#959BA0;" d="M127.979,422.673H79.507c-3.126,0-5.66,2.534-5.66,5.66v25.341c0,3.126,2.534,5.66,5.66,5.66h48.472
		c3.126,0,5.66-2.534,5.66-5.66v-25.341C133.639,425.207,131.105,422.673,127.979,422.673z"/>
	<path style="fill:#959BA0;" d="M229.484,422.673h-48.472c-3.126,0-5.66,2.534-5.66,5.66v25.341c0,3.126,2.534,5.66,5.66,5.66
		h48.472c3.126,0,5.66-2.534,5.66-5.66v-25.341C235.145,425.207,232.61,422.673,229.484,422.673z"/>
	<path style="fill:#959BA0;" d="M330.991,422.673h-48.472c-3.126,0-5.66,2.534-5.66,5.66v25.341c0,3.126,2.534,5.66,5.66,5.66
		h48.472c3.126,0,5.66-2.534,5.66-5.66v-25.341C336.65,425.207,334.116,422.673,330.991,422.673z"/>
	<path style="fill:#959BA0;" d="M432.495,422.673h-48.472c-3.126,0-5.66,2.534-5.66,5.66v25.341c0,3.126,2.534,5.66,5.66,5.66
		h48.472c3.126,0,5.66-2.534,5.66-5.66v-25.341C438.156,425.207,435.621,422.673,432.495,422.673z"/>
</g>
<g>
</g>
<g>
</g>
<g>
</g>
<g>
</g>
<g>
</g>
<g>
</g>
<g>
</g>
<g>
</g>
<g>
</g>
<g>
</g>
<g>
</g>
<g>
</g>
<g>
</g>
<g>
</g>
<g>
</g>
</svg>
