<?xml version="1.0" encoding="iso-8859-1"?>
<!-- Generator: Adobe Illustrator 19.0.0, SVG Export Plug-In . SVG Version: 6.00 Build 0)  -->
<svg version="1.1" id="Capa_1" xmlns="http://www.w3.org/2000/svg" xmlns:xlink="http://www.w3.org/1999/xlink" x="0px" y="0px"
	 viewBox="0 0 512 512" style="enable-background:new 0 0 512 512;" xml:space="preserve">
<g>
	<path style="fill:#CD5B5B;" d="M75.621,69.499c0,24.288,9.027,45.11,21.502,60.287c4.918,5.984,12.292,9.408,20.035,9.203
		c65.268-1.724,95.232-43.997,111.547-69.49C212.39,44.006,182.426,1.732,117.158,0.009c-7.743-0.205-15.117,3.219-20.035,9.203
		C84.648,24.389,75.621,45.211,75.621,69.499z"/>
	<path style="fill:#CD5B5B;" d="M381.79,69.499c0,24.288-9.027,45.11-21.502,60.287c-4.918,5.984-12.292,9.408-20.036,9.203
		c-65.268-1.724-95.232-43.997-111.547-69.49c16.316-25.493,46.279-67.767,111.547-69.49c7.743-0.205,15.117,3.219,20.036,9.203
		C372.763,24.389,381.79,45.211,381.79,69.499z"/>
</g>
<g>
	<path style="fill:#FAE17C;" d="M300.567,49.639c14.777,0,26.756-11.979,26.756-26.756c0-8.234-3.726-15.593-9.577-20.501
		c-17.468,3.323-31.853,9.805-43.797,17.782c-0.09,0.894-0.137,1.801-0.137,2.718C273.812,37.66,285.791,49.639,300.567,49.639z"/>
	<path style="fill:#FAE17C;" d="M381.456,61.688c-4.657-3.959-10.676-6.36-17.271-6.36c-14.777,0-26.756,11.979-26.756,26.755
		c0,14.777,11.979,26.756,26.756,26.756c3.54,0,6.908-0.709,9.998-1.963c4.737-11.098,7.607-23.687,7.607-37.378
		C381.79,66.851,381.664,64.251,381.456,61.688z"/>
</g>
<path style="opacity:0.1;enable-background:new    ;" d="M270.526,87.971c-0.265,0-0.531-0.015-0.8-0.043
	c-7.716-0.818-29.549-4.88-44.161-11.618c-2.657-1.226-4.359-3.884-4.359-6.811c0-2.926,1.702-5.585,4.359-6.811
	c14.609-6.737,36.443-10.8,44.161-11.618c4.116-0.437,7.813,2.548,8.249,6.667c0.437,4.119-2.548,7.812-6.667,8.249
	c-3.842,0.408-10.951,1.649-18.591,3.513c7.641,1.863,14.749,3.105,18.591,3.513c4.119,0.437,7.104,4.13,6.667,8.249
	C277.566,85.111,274.313,87.971,270.526,87.971z"/>
<path style="opacity:0.1;enable-background:new    ;" d="M186.885,87.971c-3.787,0-7.041-2.859-7.449-6.71
	c-0.437-4.119,2.548-7.813,6.667-8.249c3.842-0.407,10.95-1.649,18.591-3.513c-7.641-1.863-14.749-3.104-18.591-3.513
	c-4.119-0.437-7.104-4.13-6.667-8.249c0.437-4.12,4.125-7.104,8.249-6.667c7.718,0.818,29.552,4.881,44.161,11.618
	c2.657,1.226,4.359,3.885,4.359,6.811c0,2.927-1.702,5.586-4.359,6.811c-14.612,6.738-36.444,10.8-44.161,11.618
	C187.417,87.956,187.15,87.971,186.885,87.971z"/>
<path style="fill:#CD5B5B;" d="M257.98,69.499c0-10.984-5.384-17.452-13.501-20.685c-1.019-0.406-1.81-1.196-2.412-2.112
	c-2.864-4.36-9.93-4.704-13.361-4.704s-10.497,0.344-13.361,4.704c-0.602,0.917-1.393,1.706-2.412,2.112
	c-8.118,3.233-13.501,9.701-13.501,20.685s5.383,17.452,13.501,20.685c1.019,0.406,1.81,1.196,2.412,2.112
	c2.864,4.36,9.931,4.704,13.361,4.704c3.431,0,10.497-0.344,13.361-4.704c0.602-0.916,1.393-1.706,2.412-2.112
	C252.596,86.951,257.98,80.483,257.98,69.499z"/>
<g>
	<path style="fill:#FAE17C;" d="M160.624,84.084c-14.777,0-26.756,11.979-26.756,26.756c0,10.363,5.903,19.331,14.519,23.775
		c15.145-4.018,27.773-10.464,38.366-18.063c0.401-1.842,0.626-3.75,0.626-5.712C187.38,96.063,175.401,84.084,160.624,84.084z"/>
	<path style="fill:#FAE17C;" d="M97.122,9.212c-4.588,5.582-8.702,11.932-12.08,18.932c4.822,7.027,12.904,11.641,22.07,11.641
		c14.777,0,26.756-11.979,26.756-26.756c0-4.311-1.044-8.369-2.855-11.975c-4.44-0.546-9.04-0.918-13.856-1.045
		C109.415-0.196,102.041,3.228,97.122,9.212z"/>
</g>
<path style="fill:#498A68;" d="M358.624,418.302c-5.242,0-10.313-2.816-12.956-7.763c-5.037-9.424-13.112-15.819-16.152-18.225
	l-0.363-0.288c-6.346-5.043-7.403-14.275-2.361-20.621c5.042-6.348,14.275-7.402,20.62-2.361l0.325,0.258
	c3.934,3.115,15.904,12.593,23.819,27.404c3.821,7.148,1.122,16.04-6.026,19.861C363.327,417.743,360.958,418.302,358.624,418.302z"
	/>
<path style="fill:#5CB38E;" d="M236.224,445.193c-68.489,0-147.306,0-205.007-36.839c-9.874-6.304-4.163-21.529,7.448-19.979
	c45.694,6.1,84.076-5.531,105.962-24.372L236.224,445.193z"/>
<path style="opacity:0.1;enable-background:new    ;" d="M118.792,379.547c0.763,21.872,4.121,43.705,17.603,61.858
	c33.388,3.788,67.742,3.789,99.829,3.789l-91.597-81.19C137.612,370.043,128.895,375.335,118.792,379.547z"/>
<g>
	<path style="fill:#498A68;" d="M205.54,512c-5.846,0-11.688-2.256-16.108-6.756c-8.739-8.895-8.612-23.191,0.283-31.93
		c5.571-5.473,8.924-14.876,8.542-23.955c-0.249-5.922-2.087-9.576-3.188-10.489c-9.597-7.961-10.923-22.195-2.962-31.793
		c7.962-9.597,22.196-10.924,31.794-2.961c11.794,9.784,18.711,25.177,19.474,43.346c0.921,21.913-7.308,43.62-22.013,58.067
		C216.966,509.846,211.251,512,205.54,512z"/>
	<path style="fill:#498A68;" d="M319.895,505.146c-12.47,0-22.579-10.109-22.579-22.579c0-4.705-2.459-13.683-7.951-23.131
		c-5.417-9.318-11.047-14.284-13.324-15.224c-11.524-4.764-17.005-17.968-12.241-29.493c4.764-11.523,17.967-17.005,29.492-12.241
		c27.698,11.449,49.182,52.454,49.182,80.089C342.474,495.037,332.365,505.146,319.895,505.146z"/>
</g>
<path style="opacity:0.1;enable-background:new    ;" d="M293.293,402.478c-11.525-4.764-24.728,0.718-29.492,12.241
	c-4.763,11.524,0.717,24.729,12.241,29.493c2.277,0.94,7.907,5.906,13.324,15.224c3.074,5.288,5.196,10.427,6.47,14.753
	c17.011-3.721,30.732-9.661,41.594-17.953C329.5,433.66,312.969,410.611,293.293,402.478z"/>
<path style="opacity:0.1;enable-background:new    ;" d="M223.901,404.115c-9.598-7.962-23.832-6.636-31.794,2.961
	c-7.962,9.598-6.635,23.832,2.962,31.793c1.101,0.913,2.939,4.568,3.188,10.489c0.382,9.079-2.971,18.482-8.542,23.955
	c-0.055,0.054-0.1,0.114-0.155,0.168c13.899,3.341,30.086,5.122,48.803,5.427c3.683-9.868,5.466-20.63,5.012-31.447
	C242.612,429.292,235.695,413.898,223.901,404.115z"/>
<path style="fill:#5CB38E;" d="M347.332,365.529c0,52.712-7.16,90.854-103.086,90.854S141.16,418.241,141.16,365.529
	s46.153-95.444,103.086-95.444S347.332,312.817,347.332,365.529z"/>
<path style="fill:#9BDFC1;" d="M347.332,365.529c0-0.42-0.011-0.838-0.017-1.257c-21.471-5.51-64.06-7.113-93.697,24.383
	c-21.597,22.952-24.722,47.719-22.405,67.472c4.152,0.169,8.492,0.255,13.033,0.255
	C340.172,456.383,347.332,418.241,347.332,365.529z"/>
<path style="opacity:0.05;enable-background:new    ;" d="M224.676,271.81c-47.573,8.466-83.516,47.203-83.516,93.719
	c0,48.809,6.151,85.12,83.215,90.231C181.587,412.33,189.863,322.658,224.676,271.81z"/>
<path style="fill:#5CB38E;" d="M338.869,132.628L338.869,132.628c-17.603-26.62-47.388-42.632-79.302-42.632h-39.23
	c-55.774,0-100.987,45.214-100.987,100.987v46.43c0,50.056,40.579,90.635,90.635,90.635h207.958
	c37.498,0,67.897-30.398,67.897-67.897v-31.6c0-37.498-30.398-67.897-67.897-67.897h-26.94
	C370.022,160.655,350.441,150.128,338.869,132.628z"/>
<path style="fill:#495059;" d="M404.505,298.589L404.505,298.589c-14.789,0-26.779-11.989-26.779-26.779v-14.414
	c0-6.829,5.536-12.365,12.365-12.365h28.827c6.829,0,12.365,5.536,12.365,12.365v14.414
	C431.284,286.6,419.294,298.589,404.505,298.589z"/>
<g style="opacity:0.1;">
	<circle cx="174.21" cy="259.48" r="6.95"/>
	<circle cx="223.62" cy="270.08" r="6.95"/>
	<circle cx="195.34" cy="293.79" r="6.95"/>
</g>
<g>
	<ellipse style="fill:#FFA8CB;" cx="184.77" cy="164.43" rx="17.517" ry="8.987"/>
	<ellipse style="fill:#FFA8CB;" cx="302.38" cy="164.43" rx="17.518" ry="8.987"/>
</g>
<g>
	<path style="fill:#495059;" d="M280.155,154.116c-4.142,0-7.5-3.357-7.5-7.5v-8.729c0-4.143,3.358-7.5,7.5-7.5s7.5,3.357,7.5,7.5
		v8.729C287.655,150.759,284.297,154.116,280.155,154.116z"/>
	<path style="fill:#495059;" d="M219.429,154.88c-4.142,0-7.5-3.357-7.5-7.5c0-2.72-2.212-4.933-4.932-4.933
		s-4.932,2.213-4.932,4.933c0,4.143-3.358,7.5-7.5,7.5s-7.5-3.357-7.5-7.5c0-10.991,8.941-19.933,19.932-19.933
		s19.932,8.941,19.932,19.933C226.929,151.522,223.571,154.88,219.429,154.88z"/>
	<circle style="fill:#495059;" cx="382.36" cy="196.12" r="6.95"/>
	<circle style="fill:#495059;" cx="426.65" cy="196.12" r="6.95"/>
</g>
<path style="opacity:0.05;enable-background:new    ;" d="M197.902,92.501c-44.975,10.203-78.552,50.42-78.552,98.482v46.43
	c0,50.056,40.579,90.635,90.635,90.635h54.997C184.886,281.445,171.31,153.341,197.902,92.501z"/>
<path style="fill:#498A68;" d="M254.685,418.319c-5.245,0-10.316-2.818-12.959-7.767c-5.035-9.43-13.115-15.828-16.158-18.237
	l-0.366-0.29c-6.346-5.042-7.403-14.274-2.36-20.621c5.042-6.346,14.275-7.402,20.621-2.359l0.327,0.258
	c3.936,3.118,15.915,12.603,23.829,27.424c3.818,7.151,1.116,16.041-6.034,19.859C259.384,417.762,257.018,418.319,254.685,418.319z
	"/>
<g>
</g>
<g>
</g>
<g>
</g>
<g>
</g>
<g>
</g>
<g>
</g>
<g>
</g>
<g>
</g>
<g>
</g>
<g>
</g>
<g>
</g>
<g>
</g>
<g>
</g>
<g>
</g>
<g>
</g>
</svg>
