<?xml version="1.0" encoding="iso-8859-1"?>
<!-- Generator: Adobe Illustrator 19.0.0, SVG Export Plug-In . SVG Version: 6.00 Build 0)  -->
<svg version="1.1" id="Capa_1" xmlns="http://www.w3.org/2000/svg" xmlns:xlink="http://www.w3.org/1999/xlink" x="0px" y="0px"
	 viewBox="0 0 512.001 512.001" style="enable-background:new 0 0 512.001 512.001;" xml:space="preserve">
<path style="fill:#498A68;" d="M370.57,393.569c-5.49,0-10.852-2.764-13.939-7.784c-6.237-10.137-15.647-16.699-19.19-19.17
	l-0.424-0.296c-7.396-5.177-9.196-15.369-4.019-22.765c5.175-7.396,15.369-9.196,22.765-4.019l0.379,0.264
	c4.584,3.196,18.533,12.924,28.333,28.856c4.731,7.688,2.332,17.758-5.358,22.488C376.449,392.785,373.49,393.569,370.57,393.569z"
	/>
<path style="fill:#5CB38E;" d="M233.974,424.944c-76.284,0-164.073,0-228.341-41.032c-10.998-7.021-4.637-23.979,8.296-22.253
	c50.895,6.794,93.645-6.161,118.022-27.146L233.974,424.944z"/>
<path style="opacity:0.1;enable-background:new    ;" d="M103.176,351.825c0.85,24.362,4.59,48.679,19.607,68.899
	c37.188,4.219,75.452,4.22,111.191,4.22l-102.023-90.431C124.138,341.24,114.428,347.135,103.176,351.825z"/>
<g>
	<path style="fill:#498A68;" d="M199.824,499.355c-0.647,0-1.299-0.025-1.955-0.075c-13.848-1.065-24.212-13.154-23.147-27.003
		c0.966-12.568-0.07-54.485-1.873-63.766c-4.138-12.46,2.051-26.167,14.387-31.193c12.863-5.236,27.538,0.939,32.78,13.802
		c6.778,16.642,5.166,80.987,4.857,85.013C223.858,489.325,212.838,499.355,199.824,499.355z M173.422,410.069
		c0.004,0.009,0.007,0.019,0.011,0.028C173.43,410.088,173.426,410.078,173.422,410.069z"/>
	<path style="fill:#498A68;" d="M307.9,490.161c-0.025,0-0.048,0-0.073,0c-13.89-0.039-25.117-11.331-25.078-25.22
		c-0.017-1.102-0.661-12.159-17.685-53.805l-0.424-1.036c-5.241-12.862,0.937-27.538,13.799-32.781
		c12.857-5.242,27.537,0.936,32.781,13.799l0.402,0.986c19.042,46.579,21.453,63.469,21.426,72.98
		C333.008,478.949,321.755,490.161,307.9,490.161z"/>
</g>
<path style="opacity:0.1;enable-background:new    ;" d="M311.622,392.104l-0.402-0.986c-5.243-12.863-19.924-19.041-32.781-13.799
	c-12.862,5.242-19.04,19.919-13.799,32.781l0.424,1.036c11.694,28.605,15.659,42.778,17.001,49.207
	c19.185-2.402,35.252-6.789,48.564-13.266C327.966,435.686,322.521,418.763,311.622,392.104z"/>
<path style="opacity:0.1;enable-background:new    ;" d="M187.236,377.318c-12.336,5.026-18.525,18.733-14.387,31.193
	c1.26,6.487,2.144,28.907,2.234,46.116c14.268,4.126,30.901,6.601,50.131,7.517c0.232-20.9-0.223-58.809-5.198-71.023
	C214.774,378.257,200.099,372.082,187.236,377.318z"/>
<path style="fill:#5CB38E;" d="M357.729,336.212c0,58.712-7.975,101.195-114.819,101.195s-114.819-42.483-114.819-101.195
	s51.406-106.307,114.819-106.307C306.322,229.905,357.729,277.5,357.729,336.212z"/>
<path style="fill:#9BDFC1;" d="M357.729,336.212c0-0.468-0.013-0.933-0.019-1.4c-23.915-6.137-71.351-7.922-104.361,27.159
	c-24.055,25.564-27.536,53.151-24.955,75.152c4.624,0.188,9.459,0.284,14.517,0.284
	C349.754,437.407,357.729,394.924,357.729,336.212z"/>
<path style="opacity:0.05;enable-background:new    ;" d="M221.112,231.826c-52.987,9.43-93.022,52.575-93.022,104.386
	c0,54.364,6.851,94.809,92.686,100.501C173.118,388.34,182.336,288.461,221.112,231.826z"/>
<path style="fill:#5CB38E;" d="M348.302,76.802L348.302,76.802c-19.607-29.65-52.782-47.485-88.328-47.485h-43.695
	c-62.122,0-112.482,50.36-112.482,112.482v51.715c0,55.754,45.197,100.951,100.951,100.951h231.628
	c41.767,0,75.625-33.858,75.625-75.625v-35.196c0-41.766-33.858-75.625-75.625-75.625H406.37
	C383.001,108.019,361.192,96.294,348.302,76.802z"/>
<path style="fill:#495059;" d="M428.699,242.391h-14.581c-4.143,0-7.5-3.357-7.5-7.5s3.357-7.5,7.5-7.5h14.581
	c4.143,0,7.5,3.357,7.5,7.5C436.199,239.033,432.842,242.391,428.699,242.391z"/>
<g style="opacity:0.1;">
	<circle cx="164.901" cy="218.091" r="7.741"/>
	<circle cx="219.931" cy="229.901" r="7.741"/>
	<circle cx="188.441" cy="256.311" r="7.741"/>
</g>
<g>
	<ellipse style="fill:#FFA8CB;" cx="169.611" cy="113.731" rx="31.809" ry="26.05"/>
	<ellipse style="fill:#FFA8CB;" cx="314.711" cy="113.731" rx="31.809" ry="26.05"/>
</g>
<g>
	<path style="fill:#495059;" d="M201.42,100.22c-4.143,0-7.5-3.358-7.5-7.5v-1.337c0-4.142,3.357-7.5,7.5-7.5s7.5,3.358,7.5,7.5
		v1.337C208.92,96.862,205.562,100.22,201.42,100.22z"/>
	<path style="fill:#495059;" d="M282.905,100.22c-4.143,0-7.5-3.358-7.5-7.5v-1.337c0-4.142,3.357-7.5,7.5-7.5s7.5,3.358,7.5,7.5
		v1.337C290.405,96.862,287.048,100.22,282.905,100.22z"/>
	<circle style="fill:#495059;" cx="396.741" cy="147.521" r="7.741"/>
	<circle style="fill:#495059;" cx="446.071" cy="147.521" r="7.741"/>
</g>
<path style="opacity:0.05;enable-background:new    ;" d="M191.29,32.107c-50.094,11.364-87.493,56.159-87.493,109.691v51.715
	c0,55.754,45.197,100.951,100.951,100.951h61.257C176.793,242.558,161.671,99.873,191.29,32.107z"/>
<path style="fill:#498A68;" d="M250.902,373.991c-13.012,0-24.146-4.248-29.204-8.267c-7.068-5.615-8.245-15.898-2.628-22.968
	c5.401-6.797,15.118-8.149,22.142-3.243c2.192,0.997,11.995,3.893,20.782-0.922c7.917-4.34,17.852-1.438,22.192,6.479
	c4.338,7.918,1.438,17.853-6.479,22.192C268.756,372.168,259.426,373.991,250.902,373.991z M242.028,340.12
	c0.004,0.002,0.007,0.005,0.011,0.009C242.035,340.125,242.032,340.123,242.028,340.12z"/>
<path style="fill:#A3E3FF;" d="M150.878,101.63L150.878,101.63c-17.035,17.035-44.655,17.035-61.691,0l0,0
	c-17.035-17.035-17.035-44.655,0-61.691l24.781-24.781c3.349-3.349,8.78-3.349,12.129,0l24.781,24.781
	C167.913,56.975,167.913,84.595,150.878,101.63z"/>
<g>
</g>
<g>
</g>
<g>
</g>
<g>
</g>
<g>
</g>
<g>
</g>
<g>
</g>
<g>
</g>
<g>
</g>
<g>
</g>
<g>
</g>
<g>
</g>
<g>
</g>
<g>
</g>
<g>
</g>
</svg>
