<?xml version="1.0" encoding="iso-8859-1"?>
<!-- Generator: Adobe Illustrator 19.0.0, SVG Export Plug-In . SVG Version: 6.00 Build 0)  -->
<svg version="1.1" id="Capa_1" xmlns="http://www.w3.org/2000/svg" xmlns:xlink="http://www.w3.org/1999/xlink" x="0px" y="0px"
	 viewBox="0 0 512.001 512.001" style="enable-background:new 0 0 512.001 512.001;" xml:space="preserve">
<path style="fill:#A3E3FF;" d="M264.797,43.59c-0.44,8.125-1.845,16.452-2.839,24.208c-1.091,7.511-1.6,14.29-1.607,20.199
	c-0.02,17.213,6.788,33.343,13.162,49.011c6.588,16.195,12.211,32.767,14.256,50.186c2.022,17.219,1.597,37.263-5.516,53.364
	c-2.487,5.789-5.885,11.302-10.231,15.776c-3.945,4.062-10.435,4.157-14.497,0.212c-1.879-1.825-2.91-4.195-3.084-6.626
	c-1.197-17.064-9.355-31.906-18.453-46.001c-12.55-19.441-28.665-36.747-40.01-56.908c-22.079-39.236-19.932-87.642,0.49-127.047
	c9.393-18.125,31.7-25.204,49.825-15.811C262.862,12.739,265.654,27.782,264.797,43.59z"/>
<g>
	<path style="fill:#495059;" d="M213.282,52.873c-0.396,0-0.799-0.031-1.204-0.097c-4.089-0.66-6.869-4.51-6.209-8.6l1.411-8.742
		c0.66-4.089,4.495-6.874,8.6-6.209c4.089,0.66,6.869,4.51,6.209,8.6l-1.411,8.742C220.083,50.252,216.898,52.873,213.282,52.873z"
		/>
	<path style="fill:#495059;" d="M239.767,57.149c-0.396,0-0.799-0.031-1.204-0.097c-4.089-0.66-6.869-4.51-6.209-8.6l1.411-8.743
		c0.659-4.089,4.498-6.875,8.6-6.209c4.089,0.66,6.869,4.51,6.209,8.6l-1.411,8.743C246.567,54.528,243.383,57.149,239.767,57.149z"
		/>
</g>
<path style="fill:#A3E3FF;" d="M471.934,67.865c16.107,27.451,26.763,61.138,24.928,93.136c-1.14,19.892-7.959,38.903-16.411,56.771
	c-11.396,24.093-26.849,44.716-27.584,72.519c-0.158,5.978-4.984,11.533-11.282,10.734c-6.949-0.881-13.097-9.941-16.269-15.409
	c-14.179-23.845-10.887-54.69-7.161-80.863c2.717-19.09,5.919-38.555,3-57.823c-2.791-18.424-9.701-36.094-13.354-54.365
	l-0.061-0.306c-3.769-18.854,8.459-37.194,27.313-40.963C449.993,48.309,464.633,55.424,471.934,67.865z"/>
<g>
	<path style="fill:#495059;" d="M434.782,105.359c-3.028,0-5.88-1.848-7.016-4.848l-3.135-8.283
		c-1.466-3.874,0.486-8.203,4.36-9.669c3.872-1.462,8.201,0.485,9.669,4.36l3.135,8.283c1.466,3.874-0.486,8.203-4.36,9.669
		C436.561,105.202,435.665,105.359,434.782,105.359z"/>
	<path style="fill:#495059;" d="M459.873,95.864c-3.028,0-5.88-1.848-7.016-4.848l-3.135-8.283c-1.466-3.874,0.486-8.203,4.36-9.669
		c3.871-1.464,8.202,0.485,9.669,4.36l3.135,8.283c1.466,3.874-0.486,8.203-4.36,9.669
		C461.652,95.707,460.756,95.864,459.873,95.864z"/>
</g>
<path style="fill:#498A68;" d="M379.787,408.799c-3.602,0-7.212-1.299-10.074-3.927c-7.979-7.335-17.855-10.752-21.573-12.038
	l-0.45-0.155c-7.767-2.703-11.874-11.189-9.171-18.956c2.702-7.768,11.19-11.876,18.956-9.171l0.402,0.14
	c4.811,1.663,19.45,6.728,31.99,18.255c6.054,5.566,6.451,14.986,0.886,21.04C387.817,407.179,383.808,408.799,379.787,408.799z"/>
<path style="fill:#5CB38E;" d="M249.037,444.215c-69.488,0-149.455,0-207.997-37.376c-10.018-6.396-4.224-21.843,7.557-20.27
	c46.36,6.189,85.302-5.612,107.507-24.728L249.037,444.215z"/>
<path style="opacity:0.1;enable-background:new    ;" d="M129.892,377.611c0.775,22.191,4.181,44.342,17.86,62.76
	c33.875,3.844,68.73,3.844,101.285,3.844l-92.933-82.374C148.986,367.968,140.142,373.338,129.892,377.611z"/>
<g>
	<path style="fill:#498A68;" d="M217.897,512.001c-2.839,0.001-5.723-0.53-8.518-1.651c-11.744-4.708-17.446-18.045-12.738-29.788
		c0.821-2.049,2.6-10.781,2.531-23.376c-0.075-13.761-2.309-20.909-3.125-22.427c-6.987-10.472-4.214-24.633,6.23-31.691
		c10.484-7.087,24.724-4.33,31.808,6.152c14.945,22.113,12.23,70.563,5.082,88.391C235.58,506.56,226.981,512.001,217.897,512.001z
		 M196.106,434.846c0.007,0.01,0.013,0.02,0.02,0.03C196.119,434.866,196.112,434.856,196.106,434.846z"/>
	<path style="fill:#498A68;" d="M312.924,502.67c-2.161,0-4.359-0.308-6.536-0.955c-12.128-3.605-19.037-16.358-15.432-28.485
		c4.51-15.174-5.695-31.758-8.84-34.853c-9.017-8.875-9.132-23.379-0.257-32.397c8.874-9.016,23.379-9.133,32.396-0.257
		c13.33,13.12,30.716,46.593,20.619,80.561C331.917,496.232,322.8,502.67,312.924,502.67z"/>
</g>
<path style="opacity:0.1;enable-background:new    ;" d="M290.229,476.767c19.019-2.153,34.777-6.365,47.648-12.774
	c-0.415-25.512-13.244-48.059-23.621-58.272c-9.017-8.876-23.522-8.758-32.396,0.257c-8.875,9.018-8.76,23.522,0.257,32.397
	c3.145,3.095,13.35,19.679,8.84,34.853C290.607,474.406,290.385,475.587,290.229,476.767z"/>
<path style="opacity:0.1;enable-background:new    ;" d="M202.278,403.068c-10.444,7.058-13.217,21.219-6.23,31.691
	c0.816,1.518,3.05,8.667,3.125,22.427c0.032,5.916-0.345,10.964-0.837,14.883c12.977,3.445,28.01,5.469,45.306,6.146
	c2.875-22.107,1.459-52.699-9.556-68.996C227.001,398.738,212.762,395.981,202.278,403.068z"/>
<path style="fill:#5CB38E;" d="M361.765,363.389c0,53.481-7.264,92.179-104.589,92.179s-104.589-38.698-104.589-92.179
	s46.826-96.836,104.589-96.836S361.765,309.908,361.765,363.389z"/>
<path style="fill:#9BDFC1;" d="M361.765,363.389c0-0.426-0.011-0.85-0.017-1.275c-21.784-5.591-64.994-7.216-95.063,24.739
	c-21.912,23.286-25.082,48.415-22.732,68.456c4.212,0.171,8.616,0.258,13.223,0.258C354.501,455.567,361.765,416.87,361.765,363.389
	z"/>
<path style="opacity:0.05;enable-background:new    ;" d="M237.32,268.303c-48.267,8.59-84.734,47.891-84.734,95.085
	c0,49.521,6.24,86.362,84.428,91.547C193.603,410.872,201.999,319.892,237.32,268.303z"/>
<path style="fill:#498A68;" d="M275.293,406.958c-3.273,0-6.567-1.073-9.316-3.282c-8.453-6.791-18.543-9.543-22.34-10.578
	l-0.46-0.125c-7.931-2.177-12.594-10.371-10.417-18.301c2.177-7.931,10.374-12.596,18.301-10.417l0.411,0.112
	c4.915,1.34,19.869,5.418,33.157,16.093c6.412,5.151,7.433,14.523,2.283,20.934C283.969,405.055,279.65,406.958,275.293,406.958z"/>
<path style="fill:#E5E5E5;" d="M433.406,155.526h-27.333c-21.287,0-41.153-10.68-52.895-28.436l0,0
	c-17.86-27.008-48.079-43.254-80.458-43.254h-39.802c-56.587,0-102.46,45.873-102.46,102.46v146.525
	c0,9.826,9.237,17.033,18.768,14.643l21.424-5.371c10.087-2.529,20.695-2.039,30.506,1.408l17.657,6.204
	c10.949,3.847,22.857,4,33.901,0.436l11.449-3.695c9.764-3.151,20.232-3.405,30.137-0.732l23.621,6.376
	c10.401,2.807,21.41,2.384,31.564-1.215l6.712-2.378c11.031-3.909,23.045-4.063,34.173-0.439l11.72,3.818
	c13.838,4.508,28.921,3.136,41.719-3.794l0,0c11.456-6.203,25.178-6.597,36.971-1.059l0,0c10.012,4.701,21.513-2.604,21.513-13.665
	V224.413C502.293,186.368,471.451,155.526,433.406,155.526z"/>
<ellipse style="fill:#495059;" cx="419.77" cy="274.531" rx="19.324" ry="23.371"/>
<g>
	<ellipse style="fill:#FFA8CB;" cx="196.84" cy="159.361" rx="17.773" ry="9.118"/>
	<ellipse style="fill:#FFA8CB;" cx="316.15" cy="159.361" rx="17.773" ry="9.118"/>
</g>
<g>
	<path style="fill:#495059;" d="M219.383,148.783c-4.143,0-7.5-3.357-7.5-7.5v-8.856c0-4.143,3.357-7.5,7.5-7.5s7.5,3.357,7.5,7.5
		v8.856C226.883,145.426,223.525,148.783,219.383,148.783z"/>
	<path style="fill:#495059;" d="M293.608,148.783c-4.143,0-7.5-3.357-7.5-7.5v-8.856c0-4.143,3.357-7.5,7.5-7.5s7.5,3.357,7.5,7.5
		v8.856C301.108,145.426,297.751,148.783,293.608,148.783z"/>
	<circle style="fill:#495059;" cx="397.3" cy="191.511" r="7.05"/>
	<circle style="fill:#495059;" cx="442.24" cy="191.511" r="7.05"/>
</g>
<path style="opacity:0.05;enable-background:new    ;" d="M149.226,347.465l21.424-5.371c10.087-2.529,20.695-2.039,30.506,1.408
	l17.657,6.204c10.949,3.847,22.857,4,33.901,0.435l11.449-3.695c6.819-2.201,13.98-2.983,21.054-2.348
	c-110.863-74.311-92.692-208.139-63.8-259.615c-51.173,5.717-90.96,49.115-90.96,101.814v146.524
	C130.458,342.647,139.695,349.854,149.226,347.465z"/>
<path style="fill:#A3E3FF;" d="M94.459,149.624c-3.39,14.707-9.967,30.075-9.301,43.767c0.818,16.793,6.452,32.855,10.878,48.93
	c9.003,32.703,13.879,84.972-18.528,107.645c-4.348,3.042-10.339,1.983-13.382-2.367c-3.048-4.36-1.547-9.96-1.48-14.877
	c0.394-29.1-22.013-55.933-35.78-79.909C1.754,209.081,3.972,155.341,35.06,115.212c11.715-15.122,33.471-17.883,48.592-6.168
	C98.058,120.204,97.929,134.567,94.459,149.624z"/>
<g>
	<path style="fill:#495059;" d="M44.472,150.89c-1.006,0-2.028-0.203-3.009-0.634c-3.793-1.664-5.52-6.088-3.855-9.881l3.558-8.11
		c1.663-3.792,6.087-5.521,9.881-3.855c3.793,1.664,5.52,6.088,3.855,9.881l-3.558,8.11C50.11,149.213,47.358,150.89,44.472,150.89z
		"/>
	<path style="fill:#495059;" d="M69.041,161.664c-1.006,0-2.028-0.203-3.008-0.634c-3.794-1.663-5.52-6.087-3.856-9.88l3.557-8.11
		c1.663-3.793,6.091-5.523,9.88-3.857c3.794,1.663,5.521,6.087,3.856,9.88l-3.557,8.11C74.68,159.987,71.928,161.664,69.041,161.664
		z"/>
</g>
<g>
</g>
<g>
</g>
<g>
</g>
<g>
</g>
<g>
</g>
<g>
</g>
<g>
</g>
<g>
</g>
<g>
</g>
<g>
</g>
<g>
</g>
<g>
</g>
<g>
</g>
<g>
</g>
<g>
</g>
</svg>
