<?xml version="1.0" encoding="iso-8859-1"?>
<!-- Generator: Adobe Illustrator 19.0.0, SVG Export Plug-In . SVG Version: 6.00 Build 0)  -->
<svg version="1.1" id="Capa_1" xmlns="http://www.w3.org/2000/svg" xmlns:xlink="http://www.w3.org/1999/xlink" x="0px" y="0px"
	 viewBox="0 0 512 512" style="enable-background:new 0 0 512 512;" xml:space="preserve">
<path style="fill:#FAE17C;" d="M126.129,109.476L126.129,109.476c-2.022,3.699-7.334,3.699-9.355,0l0,0
	c-4.222-7.723-10.571-14.072-18.294-18.294l0,0c-3.699-2.022-3.699-7.334,0-9.355l0,0c7.723-4.222,14.072-10.571,18.294-18.294l0,0
	c2.022-3.699,7.334-3.699,9.355,0l0,0c4.222,7.723,10.571,14.072,18.294,18.294l0,0c3.699,2.022,3.699,7.334,0,9.355l0,0
	C136.7,95.404,130.351,101.753,126.129,109.476z"/>
<path style="fill:#498A68;" d="M152.159,416.586c-1.719,0-3.467-0.29-5.179-0.902c-8.007-2.86-12.179-11.67-9.318-19.676
	c5.925-16.585,16.88-28.267,20.48-32.105l0.3-0.32c5.805-6.21,15.546-6.543,21.76-0.734c6.211,5.805,6.54,15.548,0.735,21.759
	l-0.336,0.358c-2.783,2.966-10.174,10.848-13.944,21.399C164.408,412.661,158.481,416.586,152.159,416.586z"/>
<path style="fill:#5CB38E;" d="M276.744,441.919c71.842,0,154.52,0,215.046-38.643c10.357-6.612,4.367-22.583-7.813-20.957
	c-47.931,6.399-88.193-5.802-111.151-25.566L276.744,441.919z"/>
<path style="opacity:0.1;enable-background:new    ;" d="M399.927,373.058c-0.801,22.943-4.322,45.845-18.465,64.887
	c-35.023,3.974-71.059,3.974-104.717,3.974l96.083-85.166C380.185,363.089,389.33,368.64,399.927,373.058z"/>
<g>
	<path style="fill:#498A68;" d="M308.903,512c-11.793,0-22.004-8.797-23.478-20.799c-2.069-16.845-1.26-67.081,4.468-81.138
		c4.936-12.112,18.758-17.93,30.872-12.995c11.724,4.779,17.551,17.878,13.438,29.698c-1.779,8.07-3.464,44.805-1.762,58.66
		c1.594,12.984-7.638,24.801-20.621,26.395C310.839,511.941,309.866,512,308.903,512z M333.769,427.916
		c-0.003,0.008-0.006,0.015-0.01,0.023C333.762,427.931,333.765,427.923,333.769,427.916z"/>
	<path style="fill:#498A68;" d="M225.909,504.668c-4.835,0.001-9.712-1.474-13.92-4.538c-15.584-11.344-24.698-32.027-23.787-53.977
		c0.851-20.513,10.355-38.23,25.422-47.39c11.177-6.793,25.747-3.244,32.542,7.935c6.792,11.17,3.247,25.73-7.915,32.531
		c-0.723,0.553-2.772,4.056-2.741,10.045c0.031,6.121,2.268,11.04,4.358,12.562c10.575,7.698,12.908,22.512,5.209,33.087
		C240.442,501.289,233.225,504.668,225.909,504.668z"/>
</g>
<path style="opacity:0.1;enable-background:new    ;" d="M238.251,439.228c11.162-6.8,14.707-21.36,7.915-32.531
	c-6.795-11.179-21.365-14.728-32.542-7.935c-15.067,9.16-24.571,26.877-25.422,47.39c-0.264,6.345,0.336,12.575,1.662,18.513
	c15.776,6.835,35.367,10.832,59.364,12.167c-1.034-5.812-4.212-11.25-9.361-14.999c-2.089-1.522-4.326-6.44-4.358-12.562
	C235.479,443.283,237.529,439.78,238.251,439.228z"/>
<path style="opacity:0.1;enable-background:new    ;" d="M334.202,426.765c4.112-11.82-1.714-24.92-13.438-29.698
	c-12.114-4.935-25.935,0.884-30.872,12.995c-4.538,11.134-5.986,44.954-5.365,66.913c18.101-0.835,33.761-3.133,47.211-6.972
	C331.667,453.642,332.909,432.632,334.202,426.765z"/>
<path style="fill:#5CB38E;" d="M160.195,358.354c0,55.293,7.511,95.303,108.134,95.303s108.134-40.01,108.134-95.303
	S328.05,258.236,268.329,258.236S160.195,303.06,160.195,358.354z"/>
<path style="fill:#9BDFC1;" d="M160.195,358.354c0-0.441,0.012-0.879,0.018-1.318c22.523-5.78,67.197-7.461,98.285,25.577
	c22.654,24.076,25.932,50.056,23.502,70.776c-4.355,0.177-8.908,0.267-13.671,0.267
	C167.706,453.656,160.195,413.647,160.195,358.354z"/>
<path style="opacity:0.05;enable-background:new    ;" d="M288.858,260.046c49.902,8.88,87.606,49.514,87.606,98.308
	c0,51.199-6.452,89.288-87.29,94.65C334.057,407.446,325.376,313.383,288.858,260.046z"/>
<path style="fill:#498A68;" d="M262.057,417.145c-1.562,0-3.151-0.241-4.718-0.745c-8.094-2.603-12.544-11.276-9.94-19.37
	c5.398-16.777,15.988-28.807,19.469-32.761l0.289-0.327c5.608-6.392,15.334-7.027,21.726-1.42
	c6.391,5.608,7.027,15.335,1.419,21.726l-0.323,0.368c-2.689,3.055-9.834,11.17-13.268,21.845
	C274.609,412.986,268.563,417.145,262.057,417.145z"/>
<path style="fill:#5CB38E;" d="M169.073,114.047L169.073,114.047c18.465-27.924,49.708-44.72,83.185-44.72h41.151
	c58.505,0,105.932,47.428,105.932,105.933v48.704c0,52.508-42.566,95.073-95.073,95.073H86.127
	c-39.335,0-71.222-31.887-71.222-71.222v-33.147c0-39.335,31.887-71.222,71.222-71.222h28.259
	C136.394,143.446,156.934,132.404,169.073,114.047z"/>
<g style="opacity:0.1;">
	<circle cx="341.8" cy="247.11" r="7.29"/>
	<circle cx="289.97" cy="258.24" r="7.29"/>
	<circle cx="319.63" cy="283.1" r="7.29"/>
</g>
<g>
	<ellipse style="fill:#FFA8CB;" cx="299.52" cy="155.35" rx="18.375" ry="9.427"/>
	<ellipse style="fill:#FFA8CB;" cx="176.16" cy="155.35" rx="18.375" ry="9.427"/>
</g>
<g>
	<circle style="fill:#495059;" cx="123.45" cy="180.65" r="7.29"/>
	<circle style="fill:#495059;" cx="76.992" cy="180.65" r="7.29"/>
</g>
<path style="opacity:0.05;enable-background:new    ;" d="M316.943,71.955c47.178,10.703,82.399,52.889,82.399,103.305v48.704
	c0,52.507-42.566,95.073-95.073,95.073h-57.691C330.596,270.152,344.837,135.775,316.943,71.955z"/>
<g>
	<path style="fill:#495059;" d="M258.643,131.122H217.04c-4.142,0-7.5-3.357-7.5-7.5s3.358-7.5,7.5-7.5h41.603
		c4.142,0,7.5,3.357,7.5,7.5C266.143,127.765,262.785,131.122,258.643,131.122z"/>
	<path style="fill:#495059;" d="M370.849,131.122h-57.595c-4.142,0-7.5-3.357-7.5-7.5s3.358-7.5,7.5-7.5h57.595
		c4.142,0,7.5,3.357,7.5,7.5C378.349,127.765,374.991,131.122,370.849,131.122z"/>
	<path style="fill:#495059;" d="M222.049,123.622c0,15.669-14.62,28.372-32.654,28.372s-32.654-12.702-32.654-28.372
		s14.62-18.201,32.654-18.201S222.049,107.953,222.049,123.622z"/>
	<path style="fill:#495059;" d="M253.633,123.622c0,15.669,14.62,28.372,32.654,28.372s32.654-12.702,32.654-28.372
		s-14.62-18.201-32.654-18.201C268.253,105.422,253.633,107.953,253.633,123.622z"/>
	<path style="fill:#495059;" d="M96.753,273.984H85.68c-4.142,0-7.5-3.357-7.5-7.5s3.358-7.5,7.5-7.5h11.073
		c7.256,0,14.323-2.559,19.897-7.203c3.182-2.651,7.911-2.223,10.563,0.961c2.652,3.182,2.222,7.911-0.96,10.563
		C117.988,270.191,107.511,273.984,96.753,273.984z"/>
</g>
<path style="fill:#806C6C;" d="M343.763,86.504H216.99c-29.243,0-53.397-22.837-55.035-52.034l-1.473-26.268
	c-0.348-6.208,6.385-10.28,11.721-7.088l0,0c33.702,20.157,72.237,30.802,111.507,30.802h60.053
	c15.074,0,27.294,12.22,27.294,27.295l0,0C371.057,74.284,358.837,86.504,343.763,86.504z"/>
<g>
</g>
<g>
</g>
<g>
</g>
<g>
</g>
<g>
</g>
<g>
</g>
<g>
</g>
<g>
</g>
<g>
</g>
<g>
</g>
<g>
</g>
<g>
</g>
<g>
</g>
<g>
</g>
<g>
</g>
</svg>
