<?xml version="1.0" encoding="iso-8859-1"?>
<!-- Generator: Adobe Illustrator 19.0.0, SVG Export Plug-In . SVG Version: 6.00 Build 0)  -->
<svg version="1.1" id="Capa_1" xmlns="http://www.w3.org/2000/svg" xmlns:xlink="http://www.w3.org/1999/xlink" x="0px" y="0px"
	 viewBox="0 0 511.999 511.999" style="enable-background:new 0 0 511.999 511.999;" xml:space="preserve">
<g>
	<circle style="fill:#FAE17C;" cx="414.66" cy="101.999" r="63.857"/>
	<path style="fill:#FAE17C;" d="M488.168,57.83c-2.358,0-4.677-1.108-6.138-3.183c-5.835-8.283-13.053-15.35-21.456-21.007
		c-3.436-2.313-4.347-6.974-2.034-10.409c2.313-3.437,6.973-4.349,10.41-2.034c9.925,6.681,18.452,15.029,25.344,24.813
		c2.385,3.386,1.573,8.065-1.813,10.45C491.168,57.386,489.66,57.83,488.168,57.83z"/>
</g>
<path style="fill:#FFA8CB;" d="M347.183,50.189c-1.76,0-3.526-0.615-4.951-1.869c-3.11-2.735-3.414-7.475-0.678-10.585
	c18.49-21.018,45.136-33.071,73.107-33.071c4.142,0,7.5,3.357,7.5,7.5c0,4.142-3.358,7.5-7.5,7.5
	c-23.661,0-46.202,10.198-61.844,27.979C351.335,49.327,349.264,50.189,347.183,50.189z"/>
<g>
	<path style="fill:#FAE17C;" d="M389.194,195.68c-0.703,0-1.418-0.1-2.126-0.309c-19.734-5.824-37.487-18.103-49.989-34.577
		c-12.924-17.03-19.755-37.36-19.755-58.792c0-4.143,3.358-7.5,7.5-7.5s7.5,3.357,7.5,7.5c0,18.13,5.776,35.324,16.704,49.725
		c10.581,13.942,25.599,24.333,42.286,29.258c3.973,1.173,6.243,5.344,5.07,9.316C395.42,193.565,392.433,195.68,389.194,195.68z"/>
	<path style="fill:#FAE17C;" d="M414.662,199.34c-4.142,0-7.5-3.357-7.5-7.5s3.358-7.5,7.5-7.5c22.16,0,42.947-8.676,58.534-24.43
		c2.914-2.945,7.663-2.971,10.607-0.056c2.945,2.913,2.97,7.661,0.057,10.606C465.433,189.084,440.858,199.34,414.662,199.34z"/>
</g>
<path style="fill:#FFA8CB;" d="M501.553,132.432c-0.632,0-1.274-0.08-1.914-0.249c-4.006-1.054-6.398-5.156-5.344-9.162
	c1.795-6.82,2.705-13.892,2.705-21.019c0-8.634-1.328-17.136-3.948-25.269c-1.27-3.943,0.897-8.169,4.839-9.438
	c3.944-1.271,8.168,0.897,9.438,4.839c3.099,9.622,4.67,19.671,4.67,29.868c0,8.414-1.076,16.771-3.199,24.837
	C507.915,130.204,504.877,132.432,501.553,132.432z"/>
<path style="fill:#5CB38E;" d="M142.312,337.782c0,54.16,7.357,93.35,105.918,93.35s105.918-39.19,105.918-93.35
	s-47.421-98.066-105.918-98.066S142.312,283.621,142.312,337.782z"/>
<path style="fill:#9BDFC1;" d="M142.312,337.782c0-0.432,0.012-0.861,0.018-1.291c22.061-5.661,65.82-7.308,96.27,25.053
	c22.19,23.582,25.401,49.03,23.021,69.326c-4.266,0.173-8.725,0.262-13.391,0.262C149.669,431.131,142.312,391.942,142.312,337.782z
	"/>
<path style="opacity:0.05;enable-background:new    ;" d="M268.337,241.488c48.88,8.699,85.81,48.499,85.81,96.293
	c0,50.15-6.32,87.458-85.5,92.71C312.61,385.868,304.107,293.733,268.337,241.488z"/>
<path style="fill:#5CB38E;" d="M151.008,98.482L151.008,98.482c18.087-27.351,48.69-43.803,81.48-43.803h40.307
	c57.306,0,103.761,46.455,103.761,103.761v47.706c0,51.431-41.693,93.125-93.125,93.125H69.762C31.233,299.271,0,268.037,0,229.509
	v-32.468c0-38.529,31.233-69.762,69.762-69.762h27.68C118.999,127.279,139.117,116.463,151.008,98.482z"/>
<g style="opacity:0.1;">
	<circle cx="320.19" cy="228.819" r="7.141"/>
	<circle cx="269.43" cy="239.719" r="7.141"/>
	<circle cx="298.48" cy="264.069" r="7.141"/>
</g>
<g>
	<ellipse style="fill:#FFA8CB;" cx="309.34" cy="131.159" rx="17.999" ry="9.234"/>
	<ellipse style="fill:#FFA8CB;" cx="188.5" cy="131.159" rx="17.999" ry="9.234"/>
</g>
<g>
	<path style="fill:#495059;" d="M286.502,120.355c-4.142,0-7.5-3.357-7.5-7.5v-8.969c0-4.143,3.358-7.5,7.5-7.5s7.5,3.357,7.5,7.5
		v8.969C294.002,116.998,290.645,120.355,286.502,120.355z"/>
	<path style="fill:#495059;" d="M211.335,120.355c-4.142,0-7.5-3.357-7.5-7.5v-8.969c0-4.143,3.358-7.5,7.5-7.5s7.5,3.357,7.5,7.5
		v8.969C218.835,116.998,215.477,120.355,211.335,120.355z"/>
	<path style="fill:#495059;" d="M83.569,255.295c-7.627,0-14.88-3.303-19.899-9.062c-2.721-3.123-2.396-7.86,0.727-10.582
		c3.123-2.721,7.861-2.396,10.582,0.727c2.169,2.489,5.3,3.917,8.591,3.917c3.291,0,6.421-1.428,8.59-3.916
		c2.721-3.124,7.458-3.448,10.581-0.728c3.123,2.721,3.448,7.459,0.727,10.581C98.45,251.992,91.197,255.295,83.569,255.295z"/>
	<circle style="fill:#495059;" cx="106.32" cy="163.719" r="7.141"/>
	<circle style="fill:#495059;" cx="60.814" cy="163.719" r="7.141"/>
</g>
<path style="opacity:0.05;enable-background:new    ;" d="M295.847,57.253c46.211,10.483,80.71,51.805,80.71,101.187v47.706
	c0,51.431-41.693,93.125-93.125,93.125h-56.508C309.22,251.388,323.17,119.765,295.847,57.253z"/>
<path style="fill:#FAE17C;" d="M359.563,343.823H154.234c-6.917-15.919-22.772-27.056-41.235-27.056
	c-24.823,0-44.946,20.123-44.946,44.946s20.123,44.946,44.946,44.946c1.668,0,246.564,0,246.564,0
	c17.352,0,31.418-14.066,31.418-31.419l0,0C390.981,357.89,376.915,343.823,359.563,343.823z"/>
<path style="fill:#FFA8CB;" d="M84.393,386.933h-25.24c-9.667,0-17.504-7.837-17.504-17.504l0,0c0-9.667,7.837-17.504,17.504-17.504
	h25.24c9.667,0,17.504,7.837,17.504,17.504l0,0C101.897,379.096,94.06,386.933,84.393,386.933z"/>
<path style="fill:#498A68;" d="M228.758,378.526c-0.959,0-1.933-0.093-2.909-0.283c-8.174-1.598-13.504-9.519-11.907-17.693
	c2.981-15.255,10.072-26.763,12.74-31.096l0.224-0.362c4.357-7.099,13.642-9.32,20.74-4.965c7.098,4.357,9.32,13.642,4.964,20.74
	l-0.25,0.407c-1.884,3.057-6.888,11.179-8.819,21.063C242.135,373.532,235.826,378.526,228.758,378.526z"/>
<path style="fill:#80B0E3;" d="M404.76,388.632l-17.514-3.755c-18.626-3.993-38.049-1.714-55.244,6.483l0,0
	c-20.307,9.68-43.59,11.051-64.893,3.821l-7.495-2.544c-12.723-4.318-26.279-5.607-39.589-3.764l-71.784,9.942
	c-14.22,1.969-28.707,0.362-42.149-4.678l-17.657-6.62c-21.098-7.91-44.452-7.258-65.075,1.817l0,0
	C12.529,394.1,5.537,404.815,5.537,416.648v24.791c0,36.392,29.502,65.894,65.894,65.894h291.021
	c36.392,0,65.894-29.502,65.894-65.894v-23.63C428.346,403.74,418.518,391.582,404.76,388.632z"/>
<path style="opacity:0.1;enable-background:new    ;" d="M163.943,396.642l-15.702,2.175c-14.22,1.969-28.707,0.362-42.149-4.678
	l-17.657-6.62c-21.098-7.91-44.452-7.258-65.075,1.817l0,0c-10.831,4.766-17.823,15.481-17.823,27.314v24.791
	c0,36.392,29.502,65.894,65.894,65.894h181.62C207.684,496.16,170.697,436.897,163.943,396.642z"/>
<path style="fill:#495059;" d="M120.858,364.103c-4.142,0-7.5-3.357-7.5-7.5v-4.484c0-4.142,3.358-7.5,7.5-7.5s7.5,3.358,7.5,7.5
	v4.484C128.358,360.745,125,364.103,120.858,364.103z"/>
<g style="opacity:0.1;">
	<path d="M118.925,472.659c-5.733,0-11.489-1.121-16.974-3.383c-3.83-1.578-5.655-5.962-4.076-9.792
		c1.578-3.829,5.962-5.651,9.792-4.076c8.404,3.464,17.764,2.892,25.682-1.568c14.402-8.115,31.985-7.597,45.886,1.353
		c3.483,2.242,4.488,6.883,2.246,10.366c-2.242,3.482-6.884,4.485-10.366,2.245c-9.21-5.928-20.86-6.273-30.403-0.896
		C133.93,470.729,126.447,472.659,118.925,472.659z"/>
	<path d="M333.765,447.607c-5.117,0-10.235-0.946-15.048-2.846c-6.281-2.478-13.181-2.434-19.428,0.13
		c-3.832,1.574-8.213-0.259-9.786-4.091c-1.573-3.833,0.259-8.214,4.091-9.786c9.849-4.041,20.726-4.115,30.629-0.206
		c6.496,2.564,13.873,2.389,20.241-0.478c3.774-1.699,8.217-0.019,9.918,3.757c1.702,3.776,0.02,8.218-3.757,9.919
		C345.306,446.403,339.537,447.607,333.765,447.607z"/>
</g>
<g>
</g>
<g>
</g>
<g>
</g>
<g>
</g>
<g>
</g>
<g>
</g>
<g>
</g>
<g>
</g>
<g>
</g>
<g>
</g>
<g>
</g>
<g>
</g>
<g>
</g>
<g>
</g>
<g>
</g>
</svg>
