<?xml version="1.0" encoding="iso-8859-1"?>
<!-- Generator: Adobe Illustrator 19.0.0, SVG Export Plug-In . SVG Version: 6.00 Build 0)  -->
<svg version="1.1" id="Capa_1" xmlns="http://www.w3.org/2000/svg" xmlns:xlink="http://www.w3.org/1999/xlink" x="0px" y="0px"
	 viewBox="0 0 512 512" style="enable-background:new 0 0 512 512;" xml:space="preserve">
<path style="fill:#498A68;" d="M162.514,406.656c-5.787,0-11.266-3.462-13.56-9.16c-3.013-7.486,0.613-15.998,8.099-19.012
	c6.823-2.748,16.541-11.539,22.614-18.804c5.178-6.192,14.392-7.013,20.584-1.84c6.191,5.177,7.016,14.392,1.84,20.584
	c-2.827,3.381-17.754,20.58-34.125,27.171C166.178,406.315,164.331,406.656,162.514,406.656z"/>
<path style="fill:#5CB38E;" d="M289.111,433.43c68.192,0,146.668,0,204.119-36.679c9.831-6.276,4.145-21.436-7.416-19.892
	c-45.496,6.073-83.711-5.507-105.503-24.267L289.111,433.43z"/>
<path style="opacity:0.1;enable-background:new    ;" d="M406.035,368.067c-0.76,21.778-4.103,43.516-17.527,61.59
	c-33.243,3.772-67.448,3.772-99.396,3.772l91.2-80.838C387.297,358.605,395.976,363.874,406.035,368.067z"/>
<g>
	<path style="fill:#498A68;" d="M328.432,499.948c-6.544,0-13.031-2.843-17.475-8.323c-12.332-15.207-15.941-35.819-16.797-50.434
		c-0.727-12.406,0.187-28.966,3.865-37.996c4.685-11.499,17.802-17.02,29.302-12.338c11.23,4.575,16.761,17.195,12.65,28.493
		c-2.088,8.31-2.019,34.188,5.902,43.957c7.82,9.643,6.342,23.801-3.302,31.621C338.415,498.303,333.407,499.946,328.432,499.948z
		 M339.674,420.137c-0.002,0.007-0.005,0.013-0.008,0.021C339.668,420.15,339.672,420.144,339.674,420.137z"/>
	<path style="fill:#498A68;" d="M250.464,499.948c-6.545,0-13.031-2.843-17.475-8.323c-12.332-15.207-15.941-35.819-16.796-50.434
		c-0.727-12.407,0.187-28.969,3.866-37.998c4.687-11.497,17.808-17.017,29.303-12.335c11.228,4.576,16.758,17.196,12.647,28.493
		c-2.088,8.31-2.02,34.186,5.902,43.956c7.82,9.643,6.343,23.801-3.302,31.621C260.447,498.303,255.439,499.946,250.464,499.948z
		 M261.707,420.137c-0.003,0.008-0.007,0.015-0.009,0.023C261.7,420.153,261.703,420.145,261.707,420.137z"/>
</g>
<path style="fill:#E5E5E5;" d="M459.175,307.995c-2.074-10.158-12.179-16.602-22.389-14.801l-57.712,10.176
	c-21.531,3.797-35.604,25.039-30.245,46.626c4.598,18.521,22.661,30.862,41.591,28.448c11.525-1.469,21.081-7.888,26.942-16.773
	c0.844-1.28,2.354-1.902,3.868-1.661c2.987,0.477,6.119,0.41,9.273-0.295c11.769-2.633,20.025-13.733,19.176-25.763
	c-0.01-0.148-0.022-0.296-0.035-0.443c-0.243-2.736,0.93-5.346,3.044-7.1C457.886,322.095,460.633,315.135,459.175,307.995z"/>
<path style="opacity:0.1;enable-background:new    ;" d="M348.829,349.996c4.598,18.521,22.661,30.862,41.59,28.449
	c3.605-0.46,7.018-1.404,10.185-2.756c0.454-7.006,0.555-14.056,0.555-21.03c0-18.987-4.826-36.934-13.376-52.824l-8.71,1.536
	C357.542,307.166,343.469,328.409,348.829,349.996z"/>
<path style="opacity:0.1;enable-background:new    ;" d="M267.912,463.306c-7.922-9.77-7.99-35.646-5.902-43.956
	c4.111-11.298-1.418-23.917-12.647-28.493c-11.495-4.682-24.616,0.838-29.303,12.335c-3.68,9.03-4.593,25.591-3.866,37.998
	c0.318,5.433,1.019,11.697,2.405,18.202c14.367,4.394,31.478,6.854,51.676,7.488C269.611,465.639,268.831,464.439,267.912,463.306z"
	/>
<path style="opacity:0.1;enable-background:new    ;" d="M339.978,419.349c4.111-11.299-1.421-23.918-12.65-28.493
	c-11.501-4.682-24.617,0.84-29.302,12.338c-3.678,9.03-4.592,25.59-3.865,37.996c0.435,7.424,1.588,16.397,4.227,25.422
	c17.368-0.914,32.327-3.281,45.115-7.175C337.976,447.929,338.125,426.724,339.978,419.349z"/>
<path style="fill:#5CB38E;" d="M178.485,354.11c0,52.484,7.129,90.46,102.639,90.46s102.639-37.977,102.639-90.46
	c0-52.484-45.953-95.03-102.639-95.03S178.485,301.626,178.485,354.11z"/>
<path style="fill:#9BDFC1;" d="M178.485,354.11c0-0.418,0.011-0.834,0.017-1.251c21.378-5.486,63.783-7.082,93.291,24.278
	c21.503,22.852,24.615,47.513,22.308,67.18c-4.134,0.168-8.455,0.254-12.977,0.254C185.614,444.571,178.485,406.594,178.485,354.11z
	"/>
<path style="opacity:0.05;enable-background:new    ;" d="M300.61,260.798c47.367,8.429,83.154,46.998,83.154,93.313
	c0,48.597-6.124,84.751-82.854,89.84C343.512,400.709,335.272,311.425,300.61,260.798z"/>
<path style="fill:#5CB38E;" d="M186.911,122.218L186.911,122.218c17.527-26.505,47.183-42.447,78.958-42.447h39.06
	c55.532,0,100.55,45.018,100.55,100.55v46.229c0,49.84-40.403,90.242-90.242,90.242H108.18c-37.336,0-67.603-30.267-67.603-67.603
	v-31.463c0-37.336,30.267-67.603,67.603-67.603h26.823C155.893,150.123,175.389,139.642,186.911,122.218z"/>
<g style="opacity:0.1;">
	<circle cx="350.86" cy="248.52" r="6.92"/>
	<circle cx="301.66" cy="259.08" r="6.92"/>
	<circle cx="329.82" cy="282.68" r="6.92"/>
</g>
<g>
	<ellipse style="fill:#FFA8CB;" cx="340.34" cy="153.89" rx="17.442" ry="8.948"/>
	<ellipse style="fill:#FFA8CB;" cx="223.24" cy="153.89" rx="17.442" ry="8.948"/>
</g>
<g>
	<path style="fill:#495059;" d="M245.371,143.395c-7.159,0-13.889-2.789-18.949-7.852c-2.928-2.93-2.927-7.679,0.003-10.606
		c2.929-2.929,7.678-2.928,10.606,0.003c2.228,2.229,5.189,3.456,8.34,3.456c3.15,0,6.112-1.227,8.34-3.456
		c2.929-2.932,7.678-2.932,10.607-0.003c2.93,2.928,2.931,7.677,0.003,10.606C259.26,140.606,252.53,143.395,245.371,143.395z"/>
	<path style="fill:#495059;" d="M318.212,143.395c-7.159,0-13.889-2.789-18.949-7.852c-2.928-2.93-2.927-7.679,0.003-10.606
		c2.929-2.929,7.678-2.928,10.606,0.003c2.228,2.229,5.189,3.456,8.34,3.456s6.112-1.227,8.34-3.456
		c2.929-2.932,7.678-2.932,10.606-0.003c2.93,2.928,2.931,7.677,0.003,10.606C332.101,140.606,325.371,143.395,318.212,143.395z"/>
	<path style="fill:#495059;" d="M121.56,274.409c-7.457,0-14.549-3.23-19.457-8.86c-2.722-3.122-2.397-7.859,0.726-10.581
		c3.122-2.724,7.86-2.398,10.581,0.726c2.059,2.361,5.029,3.716,8.15,3.716s6.092-1.355,8.15-3.716
		c2.721-3.123,7.459-3.448,10.581-0.726c3.123,2.722,3.447,7.459,0.726,10.581C136.108,271.18,129.017,274.409,121.56,274.409z"/>
	<circle style="fill:#495059;" cx="143.61" cy="185.44" r="6.92"/>
	<circle style="fill:#495059;" cx="99.51" cy="185.44" r="6.92"/>
</g>
<path style="opacity:0.05;enable-background:new    ;" d="M327.268,82.264c44.78,10.159,78.212,50.201,78.212,98.056v46.229
	c0,49.84-40.403,90.242-90.242,90.242h-54.759C340.227,270.391,353.745,142.842,327.268,82.264z"/>
<path style="fill:#498A68;" d="M269.222,405.252c-2.642,0-5.316-0.717-7.722-2.219c-6.846-4.273-8.933-13.288-4.66-20.133
	c8.857-14.191,21.393-22.808,25.513-25.64l0.342-0.236c6.646-4.583,15.743-2.913,20.326,3.729
	c4.583,6.643,2.913,15.743-3.729,20.326l-0.384,0.264c-3.183,2.189-11.641,8.002-17.276,17.03
	C278.862,402.814,274.097,405.252,269.222,405.252z"/>
<path style="fill:#FAE17C;" d="M291.359,62.323c-36.082,0-97.147-6.563-97.147-31.161C194.212,6.563,255.277,0,291.359,0
	c36.083,0,97.148,6.563,97.148,31.162C388.508,55.76,327.442,62.323,291.359,62.323z M209.315,31.162
	c1.041,1.658,6.811,6.2,23.408,10.195c15.982,3.847,36.807,5.966,58.637,5.966c21.83,0,42.654-2.119,58.638-5.966
	c16.597-3.995,22.367-8.537,23.408-10.195c-1.041-1.659-6.811-6.2-23.408-10.195C334.015,17.119,313.19,15,291.359,15
	c-21.83,0-42.655,2.119-58.638,5.967C216.125,24.962,210.356,29.503,209.315,31.162z M373.546,31.437h0.01H373.546z"/>
<g>
	<path style="fill:#495059;" d="M115.998,486.522c-1.919,0-3.839-0.732-5.304-2.196l-50.575-50.574
		c-2.929-2.93-2.929-7.678,0-10.607c2.93-2.928,7.678-2.928,10.608,0l50.575,50.574c2.929,2.93,2.929,7.678,0,10.607
		C119.837,485.789,117.917,486.522,115.998,486.522z"/>
	<path style="fill:#495059;" d="M138.466,464.054c-1.919,0-3.839-0.732-5.304-2.196l-50.574-50.574
		c-2.929-2.93-2.929-7.678,0-10.607c2.93-2.928,7.678-2.928,10.607,0l50.574,50.574c2.929,2.93,2.929,7.678,0,10.607
		C142.305,463.321,140.385,464.054,138.466,464.054z"/>
</g>
<g>
	<path style="fill:#FAE17C;" d="M42.955,458.415c-1.92,0-3.839-0.732-5.304-2.196c-2.929-2.93-2.929-7.678,0-10.608l67.404-67.403
		c2.93-2.929,7.678-2.927,10.607,0c2.929,2.93,2.929,7.678,0,10.607l-67.404,67.403C46.794,457.683,44.874,458.415,42.955,458.415z"
		/>
	<path style="fill:#FAE17C;" d="M152.833,479.431l-13.958,13.958c-24.815,24.815-65.193,24.815-90.008,0l-31.346-31.346
		c-5.048-5.048-5.048-13.233,0-18.281s13.233-5.048,18.281,0l31.346,31.346c14.735,14.735,38.711,14.735,53.446,0l13.958-13.958
		c14.735-14.735,14.735-38.711,0-53.446l-31.346-31.346c-5.048-5.048-5.048-13.233,0-18.281s13.233-5.048,18.281,0l31.346,31.346
		C177.648,414.238,177.648,454.616,152.833,479.431z"/>
</g>
<g>
</g>
<g>
</g>
<g>
</g>
<g>
</g>
<g>
</g>
<g>
</g>
<g>
</g>
<g>
</g>
<g>
</g>
<g>
</g>
<g>
</g>
<g>
</g>
<g>
</g>
<g>
</g>
<g>
</g>
</svg>
