<?xml version="1.0" encoding="iso-8859-1"?>
<!-- Generator: Adobe Illustrator 19.0.0, SVG Export Plug-In . SVG Version: 6.00 Build 0)  -->
<svg version="1.1" id="Capa_1" xmlns="http://www.w3.org/2000/svg" xmlns:xlink="http://www.w3.org/1999/xlink" x="0px" y="0px"
	 viewBox="0 0 512.001 512.001" style="enable-background:new 0 0 512.001 512.001;" xml:space="preserve">
<path style="fill:#806C6C;" d="M151.893,141.432C141.882,124.34,127.93,63.26,167.344,32.908
	c39.216-30.2,103.082-33.368,158.083,4.67c39.132,27.063,105.795,74.074,177.223,74.359c5.185,0.021,8.576,5.487,6.372,10.18
	c-7.307,15.559-18.16,26.075-37.654,27.68c-1.944,0.16-2.828,2.506-1.437,3.874c17.305,17.023,57.287,67.217,35.958,116.012
	c-2.803,6.411-11.691,6.989-15.405,1.058c-5.722-9.138-15.401-21.061-30.534-29.967c-8.008-4.713-18.524-2.314-23.106,5.769
	c-4.151,7.323-3.334,15.726,1.717,24.87c2.44,4.417-0.152,9.913-5.06,11.086c-50.262,12.011-97.023-1.677-117.666-44.713
	L151.893,141.432z"/>
<path style="fill:#498A68;" d="M128.962,407.365c-2.366,0-4.767-0.567-6.999-1.759c-7.248-3.874-9.983-12.887-6.11-20.134
	c8.021-15.009,20.153-24.617,24.141-27.775l0.333-0.264c6.434-5.113,15.792-4.043,20.904,2.389
	c5.113,6.433,4.043,15.792-2.389,20.904l-0.374,0.297c-3.081,2.44-11.267,8.923-16.37,18.472
	C139.417,404.51,134.276,407.365,128.962,407.365z"/>
<path style="fill:#5CB38E;" d="M253.043,434.625c69.429,0,149.33,0,207.823-37.344c10.009-6.39,4.22-21.825-7.551-20.253
	c-46.321,6.184-85.23-5.607-107.417-24.707L253.043,434.625z"/>
<path style="opacity:0.1;enable-background:new    ;" d="M372.088,368.077c-0.774,22.173-4.177,44.305-17.845,62.708
	c-33.846,3.84-68.672,3.841-101.2,3.841l92.855-82.305C353.01,358.443,361.847,363.808,372.088,368.077z"/>
<g>
	<path style="fill:#498A68;" d="M284.125,502.35c-11.846,0.001-21.874-9.128-22.797-21.135c-0.282-3.664-1.749-62.227,4.42-77.374
		c4.77-11.707,18.125-17.329,29.834-12.562c11.228,4.574,16.861,17.049,13.094,28.39c-1.641,8.447-2.584,46.597-1.704,58.036
		c0.969,12.605-8.464,23.608-21.067,24.577C285.308,502.328,284.713,502.35,284.125,502.35z M308.155,421.087
		c-0.003,0.008-0.007,0.017-0.01,0.026C308.148,421.104,308.151,421.095,308.155,421.087z"/>
	<path style="fill:#498A68;" d="M201.115,502.35c-11.845,0.001-21.873-9.126-22.797-21.133c-0.282-3.665-1.752-62.227,4.421-77.378
		c4.772-11.706,18.132-17.326,29.835-12.559c11.228,4.577,16.859,17.051,13.092,28.391c-1.642,8.453-2.585,46.596-1.704,58.032
		c0.97,12.605-8.462,23.609-21.065,24.579C202.298,502.328,201.704,502.35,201.115,502.35z M225.141,421.09
		c-0.002,0.008-0.007,0.017-0.009,0.025C225.136,421.107,225.139,421.098,225.141,421.09z"/>
</g>
<path style="opacity:0.1;enable-background:new    ;" d="M212.574,391.28c-11.703-4.767-25.063,0.853-29.835,12.559
	c-3.918,9.615-4.757,36.71-4.775,56.166c12.869,4.324,28.011,7.026,45.681,8.186c-0.162-15.881,0.704-41.741,2.021-48.519
	C229.433,408.33,223.801,395.857,212.574,391.28z"/>
<path style="opacity:0.1;enable-background:new    ;" d="M295.582,391.279c-11.709-4.767-25.064,0.855-29.834,12.562
	c-4.528,11.116-4.942,45.619-4.731,64.641c17.502-0.834,32.64-3.086,45.626-6.841c0.081-15.662,0.886-36.068,2.033-41.972
	C312.443,408.328,306.81,395.853,295.582,391.279z"/>
<path style="fill:#5CB38E;" d="M140.41,353.867c0,53.436,7.258,92.102,104.502,92.102s104.502-38.666,104.502-92.102
	s-46.787-96.755-104.502-96.755S140.41,300.431,140.41,353.867z"/>
<path style="fill:#9BDFC1;" d="M140.41,353.867c0-0.426,0.011-0.849,0.017-1.274c21.766-5.586,64.94-7.21,94.983,24.718
	c21.893,23.267,25.062,48.375,22.713,68.399c-4.209,0.171-8.609,0.258-13.212,0.258C147.668,445.968,140.41,407.303,140.41,353.867z
	"/>
<path style="opacity:0.05;enable-background:new    ;" d="M264.75,258.861c48.226,8.582,84.663,47.851,84.663,95.006
	c0,49.479-6.235,86.289-84.357,91.47C308.431,401.31,300.042,310.407,264.75,258.861z"/>
<path style="fill:#5CB38E;" d="M148.989,117.767L148.989,117.767c17.845-26.986,48.039-43.218,80.391-43.218h39.769
	c56.54,0,102.374,45.834,102.374,102.374v47.068c0,50.744-41.136,91.88-91.88,91.88H68.829C30.816,315.871,0,285.055,0,247.041
	v-32.034c0-38.013,30.816-68.829,68.829-68.829h27.31C117.408,146.178,137.258,135.507,148.989,117.767z"/>
<g style="opacity:0.1;">
	<circle cx="315.91" cy="246.36" r="7.04"/>
	<circle cx="265.82" cy="257.11" r="7.04"/>
	<circle cx="294.49" cy="281.14" r="7.04"/>
</g>
<g>
	<ellipse style="fill:#FFA8CB;" cx="294.9" cy="150.01" rx="17.758" ry="9.11"/>
	<ellipse style="fill:#FFA8CB;" cx="175.68" cy="150.01" rx="17.758" ry="9.11"/>
</g>
<g>
	<path style="fill:#495059;" d="M198.209,139.447c-4.143,0-7.5-3.358-7.5-7.5v-8.849c0-4.142,3.357-7.5,7.5-7.5s7.5,3.358,7.5,7.5
		v8.849C205.709,136.09,202.352,139.447,198.209,139.447z"/>
	<path style="fill:#495059;" d="M283.374,140.264c-4.143,0-7.5-3.357-7.5-7.5c0-1.931-1.571-3.502-3.502-3.502
		s-3.501,1.571-3.501,3.502c0,4.143-3.357,7.5-7.5,7.5s-7.5-3.357-7.5-7.5c0-10.202,8.3-18.502,18.501-18.502
		c10.202,0,18.502,8.3,18.502,18.502C290.874,136.906,287.517,140.264,283.374,140.264z"/>
	<path style="fill:#495059;" d="M82.451,272.584c-7.554,0-14.736-3.271-19.708-8.976c-2.722-3.123-2.396-7.86,0.727-10.582
		c3.122-2.721,7.86-2.395,10.582,0.727c2.121,2.435,5.183,3.831,8.399,3.831c3.217,0,6.279-1.396,8.4-3.831
		c2.722-3.122,7.457-3.447,10.582-0.727c3.122,2.722,3.448,7.459,0.727,10.582C97.188,269.313,90.005,272.584,82.451,272.584z"/>
	<circle style="fill:#495059;" cx="104.9" cy="182.13" r="7.04"/>
	<circle style="fill:#495059;" cx="60" cy="182.13" r="7.04"/>
</g>
<path style="opacity:0.05;enable-background:new    ;" d="M291.892,77.088c45.593,10.343,79.631,51.112,79.631,99.835v47.068
	c0,50.744-41.136,91.88-91.88,91.88H223.89C305.087,268.628,318.849,138.765,291.892,77.088z"/>
<path style="fill:#498A68;" d="M264.764,378.932c-5.169,0-10.193-2.697-12.937-7.508c-4.072-7.138-1.586-16.223,5.551-20.295
	l0.416-0.237c3.421-1.942,12.506-7.105,19.008-15.77c4.931-6.572,14.257-7.902,20.829-2.972c6.573,4.931,7.904,14.257,2.972,20.829
	c-10.217,13.619-23.685,21.271-28.111,23.784l-0.37,0.211C269.796,378.302,267.263,378.932,264.764,378.932z"/>
<g>
	<path style="fill:#FAE17C;" d="M53.157,101.951L53.157,101.951c-3.306,6.048-11.992,6.048-15.299,0l0,0
		C30.955,89.322,20.572,78.939,7.943,72.036l0,0c-6.048-3.306-6.048-11.992,0-15.298l0,0c12.629-6.903,23.012-17.286,29.915-29.915
		l0,0c3.306-6.048,11.992-6.048,15.299,0l0,0c6.903,12.629,17.286,23.012,29.915,29.915l0,0c6.048,3.306,6.048,11.992,0,15.298l0,0
		C70.443,78.939,60.06,89.322,53.157,101.951z"/>
	<path style="fill:#FAE17C;" d="M422.488,110.969L422.488,110.969c-3.306,6.048-11.992,6.048-15.298,0l0,0
		c-6.903-12.629-17.286-23.012-29.915-29.915l0,0c-6.048-3.306-6.048-11.992,0-15.298l0,0c12.629-6.903,23.012-17.286,29.915-29.915
		l0,0c3.306-6.048,11.992-6.048,15.298,0l0,0c6.903,12.629,17.286,23.012,29.915,29.915l0,0c6.048,3.306,6.048,11.992,0,15.298l0,0
		C439.774,87.957,429.391,98.34,422.488,110.969z"/>
	<path style="fill:#FAE17C;" d="M418.927,340.328L418.927,340.328c-2.714,4.965-9.845,4.965-12.559,0l0,0
		c-5.667-10.368-14.19-18.891-24.558-24.558l0,0c-4.965-2.714-4.965-9.845,0-12.559l0,0c10.367-5.667,18.891-14.191,24.558-24.558
		l0,0c2.714-4.965,9.845-4.965,12.559,0l0,0c5.667,10.367,14.19,18.891,24.558,24.558l0,0c4.965,2.714,4.965,9.845,0,12.559l0,0
		C433.118,321.437,424.595,329.96,418.927,340.328z"/>
</g>
<path style="fill:#806C6C;" d="M388.096,110.34C356.074,48.707,239.297,8.728,185.981,61.038
	c-16.119,22.874,53.512,45.142,134.727,51.218c6.59,0.493,11.994,5.427,13.127,11.938c6.828,39.24,15.721,98.433,53.072,118.561
	c4.992,2.69,11.303,0.678,13.75-4.438C411.427,215.809,417.271,158.33,388.096,110.34z"/>
<g>
</g>
<g>
</g>
<g>
</g>
<g>
</g>
<g>
</g>
<g>
</g>
<g>
</g>
<g>
</g>
<g>
</g>
<g>
</g>
<g>
</g>
<g>
</g>
<g>
</g>
<g>
</g>
<g>
</g>
</svg>
