<?xml version="1.0" encoding="iso-8859-1"?>
<!-- Generator: Adobe Illustrator 19.0.0, SVG Export Plug-In . SVG Version: 6.00 Build 0)  -->
<svg version="1.1" id="Capa_1" xmlns="http://www.w3.org/2000/svg" xmlns:xlink="http://www.w3.org/1999/xlink" x="0px" y="0px"
	 viewBox="0 0 512 512" style="enable-background:new 0 0 512 512;" xml:space="preserve">
<path style="fill:#E5E5E5;" d="M161.085,292.429L88.403,346.8c-3.246,2.428-7.847,1.765-10.275-1.481L9.24,253.23
	c-2.429-3.246-1.765-7.847,1.481-10.275l72.682-54.371c3.246-2.428,7.847-1.765,10.275,1.481l68.888,92.089
	C164.995,285.4,164.332,290,161.085,292.429z"/>
<path style="fill:#8783D2;" d="M112.718,268.143l-33.954,25.4c-3.246,2.428-7.846,1.765-10.275-1.481L43.09,258.108
	c-2.428-3.246-1.765-7.847,1.481-10.275l33.954-25.4c3.246-2.428,7.847-1.765,10.275,1.481l25.4,33.954
	C116.627,261.114,115.964,265.715,112.718,268.143z"/>
<path style="fill:#E5E5E5;" d="M458.064,469.457l-86.079-28.797c-3.845-1.286-5.919-5.446-4.632-9.29l36.486-109.063
	c1.286-3.845,5.446-5.919,9.29-4.633l86.079,28.797c3.845,1.286,5.919,5.446,4.633,9.29l-36.486,109.063
	C466.068,468.669,461.908,470.744,458.064,469.457z"/>
<path style="fill:#FFA8CB;" d="M450.491,415.868l-40.212-13.453c-3.845-1.286-5.919-5.445-4.632-9.29l13.453-40.212
	c1.286-3.845,5.446-5.919,9.29-4.633l40.212,13.453c3.845,1.286,5.919,5.445,4.633,9.29l-13.453,40.212
	C458.495,415.08,454.336,417.154,450.491,415.868z"/>
<path style="fill:#498A68;" d="M371.237,414.736c-6.136,0.433-12.168-2.933-14.844-8.869c-3.475-7.704-11.102-12.726-14.766-15.139
	c-0.548-0.361-1.02-0.674-1.404-0.937c-6.884-4.721-8.638-14.129-3.916-21.014c4.72-6.884,14.128-8.642,21.015-3.916
	c0.255,0.174,0.569,0.38,0.933,0.62c5.091,3.353,18.617,12.261,25.697,27.96c3.431,7.61,0.045,16.561-7.565,19.993
	C374.71,414.188,372.97,414.614,371.237,414.736z"/>
<path style="fill:#5CB38E;" d="M239.471,443.193c-70.538,0-151.714,0-211.141-37.941c-10.169-6.492-4.288-22.173,7.671-20.577
	c47.061,6.283,86.591-5.697,109.132-25.102L239.471,443.193z"/>
<path style="opacity:0.1;enable-background:new    ;" d="M118.525,375.582c0.786,22.527,4.244,45.013,18.13,63.709
	c34.387,3.902,69.769,3.902,102.816,3.902l-94.338-83.619C137.908,365.794,128.93,371.245,118.525,375.582z"/>
<g>
	<path style="fill:#498A68;" d="M207.892,512c-0.599,0-1.201-0.023-1.808-0.069c-12.805-0.986-22.388-12.164-21.403-24.97
		c0.894-11.621-0.064-50.38-1.732-58.962c-3.827-11.522,1.895-24.196,13.302-28.843c11.897-4.847,25.465,0.868,30.31,12.76
		c6.27,15.389,4.777,74.889,4.491,78.612C230.115,502.725,219.925,511.999,207.892,512z M183.481,429.438
		c0.003,0.009,0.007,0.018,0.011,0.027C183.488,429.457,183.484,429.448,183.481,429.438z"/>
	<path style="fill:#498A68;" d="M292.229,512c-0.6,0-1.203-0.023-1.809-0.069c-12.806-0.986-22.387-12.165-21.403-24.97
		c0.895-11.619-0.064-50.373-1.732-58.961c-3.828-11.522,1.894-24.195,13.301-28.844c11.89-4.846,25.463,0.865,30.312,12.759
		c6.272,15.391,4.778,74.891,4.492,78.613C314.452,502.727,304.262,512,292.229,512z M267.818,429.441
		c0.003,0.009,0.007,0.017,0.01,0.026C267.824,429.458,267.821,429.45,267.818,429.441z"/>
</g>
<path style="opacity:0.1;enable-background:new    ;" d="M315.75,468.977c-0.018-19.767-0.871-47.295-4.851-57.063
	c-4.849-11.894-18.422-17.606-30.312-12.759c-11.407,4.65-17.129,17.323-13.301,28.844c1.337,6.886,2.218,33.159,2.053,49.294
	C287.292,476.115,302.676,473.371,315.75,468.977z"/>
<path style="opacity:0.1;enable-background:new    ;" d="M196.252,399.155c-11.407,4.648-17.129,17.322-13.302,28.843
	c1.165,5.998,1.983,26.729,2.065,42.641c13.193,3.815,28.573,6.104,46.354,6.951c0.215-19.327-0.205-54.38-4.807-65.674
	C221.717,400.023,208.149,394.308,196.252,399.155z"/>
<path style="fill:#5CB38E;" d="M353.904,361.145c0,54.289-7.374,93.572-106.17,93.572s-106.171-39.283-106.171-93.572
	s47.534-98.3,106.171-98.3S353.904,306.856,353.904,361.145z"/>
<path style="fill:#9BDFC1;" d="M353.904,361.145c0-0.433-0.012-0.863-0.018-1.294c-22.114-5.675-65.977-7.325-96.5,25.113
	c-22.243,23.638-25.462,49.147-23.076,69.491c4.276,0.174,8.746,0.262,13.423,0.262
	C346.529,454.717,353.904,415.434,353.904,361.145z"/>
<path style="opacity:0.05;enable-background:new    ;" d="M227.577,264.622c-48.996,8.719-86.015,48.615-86.015,96.523
	c0,50.269,6.335,87.667,85.704,92.931C183.199,409.346,191.722,316.991,227.577,264.622z"/>
<path style="fill:#495059;" d="M353.657,383.189c-0.102,0-0.203-0.002-0.307-0.006c-4.139-0.167-7.358-3.657-7.192-7.796
	c0.167-4.153,0.245-8.679,0.245-14.242c0-12.299-2.629-24.229-7.814-35.459c-1.736-3.761-0.095-8.217,3.666-9.953
	s8.217-0.095,9.953,3.666c6.1,13.215,9.194,27.26,9.194,41.746c0,5.77-0.082,10.486-0.257,14.846
	C360.984,380.026,357.66,383.189,353.657,383.189z"/>
<path style="fill:#5CB38E;" d="M345.187,121.275L345.187,121.275c-18.13-27.417-48.806-43.908-81.675-43.908h-40.403
	c-57.443,0-104.009,46.566-104.009,104.009v47.82c0,51.554,41.793,93.347,93.347,93.347h214.18c38.62,0,69.928-31.308,69.928-69.928
	V220.07c0-38.62-31.308-69.928-69.928-69.928h-27.746C377.273,150.14,357.106,139.299,345.187,121.275z"/>
<g style="opacity:0.1;">
	<circle cx="175.599" cy="251.92" r="7.158"/>
	<circle cx="226.489" cy="262.85" r="7.158"/>
	<circle cx="197.369" cy="287.26" r="7.158"/>
</g>
<g>
	<ellipse style="fill:#FFA8CB;" cx="186.479" cy="154.03" rx="18.04" ry="9.256"/>
	<ellipse style="fill:#FFA8CB;" cx="307.609" cy="154.03" rx="18.04" ry="9.256"/>
</g>
<g>
	<path style="fill:#495059;" d="M209.369,143.183c-4.142,0-7.5-3.357-7.5-7.5v-8.99c0-4.143,3.358-7.5,7.5-7.5s7.5,3.357,7.5,7.5
		v8.99C216.869,139.825,213.511,143.183,209.369,143.183z"/>
	<path style="fill:#495059;" d="M284.716,143.183c-4.143,0-7.5-3.357-7.5-7.5v-8.99c0-4.143,3.357-7.5,7.5-7.5s7.5,3.357,7.5,7.5
		v8.99C292.216,139.825,288.858,143.183,284.716,143.183z"/>
	<path style="fill:#495059;" d="M412.787,278.444c-7.639,0-14.904-3.309-19.933-9.076c-2.722-3.122-2.398-7.86,0.725-10.582
		c3.122-2.724,7.86-2.397,10.582,0.725c2.18,2.5,5.323,3.934,8.626,3.934s6.446-1.434,8.626-3.934
		c2.722-3.123,7.458-3.447,10.582-0.725c3.122,2.722,3.446,7.46,0.725,10.582C427.691,275.136,420.426,278.444,412.787,278.444z"/>
	<circle style="fill:#495059;" cx="389.979" cy="186.67" r="7.158"/>
	<circle style="fill:#495059;" cx="435.599" cy="186.67" r="7.158"/>
</g>
<path style="opacity:0.05;enable-background:new    ;" d="M200.002,79.947c-46.321,10.508-80.903,51.928-80.903,101.429v47.82
	c0,51.554,41.793,93.347,93.347,93.347h56.643C186.597,274.545,172.614,142.608,200.002,79.947z"/>
<path style="fill:#495059;" d="M350.783,420.691h-64.619c-5.198,0-9.412-4.214-9.412-9.412v-35.233c0-5.198,4.214-9.412,9.412-9.412
	h64.619c5.198,0,9.412,4.214,9.412,9.412v35.233C360.195,416.477,355.981,420.691,350.783,420.691z"/>
<path style="fill:#498A68;" d="M267.106,416.878c-11.043,0-23.457-3.387-36.072-9.865c-7.427-3.813-10.356-12.924-6.543-20.35
	c3.814-7.425,12.924-10.359,20.351-6.543c8.703,4.467,16.97,6.791,23.225,6.506c8.367-0.357,15.395,6.109,15.756,14.448
	c0.361,8.34-6.108,15.395-14.448,15.756C268.625,416.862,267.867,416.878,267.106,416.878z"/>
<path style="fill:#FFFFFF;" d="M327.64,342.381h-18.332c-4.066,0-7.362,3.296-7.362,7.362v16.891h33.057v-16.891
	C335.002,345.677,331.706,342.381,327.64,342.381z"/>
<circle style="fill:#959BA0;" cx="323.129" cy="393.66" r="17.974"/>
<g>
	<circle style="fill:#495059;" cx="323.129" cy="393.66" r="6.356"/>
	<path style="fill:#495059;" d="M290.977,383.19c-0.793,0-1.6-0.127-2.393-0.393c-48.283-16.245-111.078-45.651-134.856-71.829
		c-2.785-3.066-2.557-7.81,0.509-10.595c3.065-2.785,7.809-2.556,10.594,0.509c15.894,17.499,65.149,46.372,128.536,67.698
		c3.926,1.321,6.038,5.574,4.717,9.5C297.031,381.213,294.109,383.19,290.977,383.19z"/>
</g>
<g>
	<path style="fill:#E5E5E5;" d="M340.209,100.01l-217.345,19.015c-6.379,0.558-10.169-6.959-5.926-11.756l25.818-29.187
		l170.755-14.939l30.494,24.261C349.015,91.391,346.588,99.452,340.209,100.01z"/>
	<path style="fill:#E5E5E5;" d="M282.042,0.1L162.798,10.533c-14.224,1.245-24.746,13.784-23.502,28.008l3.459,39.541L313.51,63.143
		l-3.459-39.541C308.806,9.378,296.267-1.144,282.042,0.1z"/>
</g>
<rect x="141.002" y="37.892" transform="matrix(-0.9962 0.0872 -0.0872 -0.9962 457.2854 88.5813)" style="fill:#CD5B5B;" width="171.412" height="32.773"/>
<g>
</g>
<g>
</g>
<g>
</g>
<g>
</g>
<g>
</g>
<g>
</g>
<g>
</g>
<g>
</g>
<g>
</g>
<g>
</g>
<g>
</g>
<g>
</g>
<g>
</g>
<g>
</g>
<g>
</g>
</svg>
