<?xml version="1.0" encoding="iso-8859-1"?>
<!-- Generator: Adobe Illustrator 19.0.0, SVG Export Plug-In . SVG Version: 6.00 Build 0)  -->
<svg version="1.1" id="Capa_1" xmlns="http://www.w3.org/2000/svg" xmlns:xlink="http://www.w3.org/1999/xlink" x="0px" y="0px"
	 viewBox="0 0 512 512" style="enable-background:new 0 0 512 512;" xml:space="preserve">
<path style="fill:#498A68;" d="M133.726,393.332c-3.374,0-6.774-1.071-9.655-3.287c-6.947-5.338-8.251-15.298-2.913-22.245
	c11.063-14.396,25.506-22.384,30.252-25.01l0.391-0.216c7.658-4.257,17.317-1.493,21.571,6.168c4.253,7.66,1.491,17.317-6.169,21.57
	l-0.437,0.242c-3.668,2.028-13.411,7.417-20.449,16.577C143.192,391.198,138.485,393.332,133.726,393.332z"/>
<path style="fill:#5CB38E;" d="M269.819,426.336c74.032,0,159.229,0,221.6-39.82c10.673-6.814,4.5-23.271-8.051-21.596
	c-49.392,6.594-90.881-5.979-114.538-26.345L269.819,426.336z"/>
<path style="opacity:0.1;enable-background:new    ;" d="M396.756,355.375c-0.825,23.643-4.454,47.242-19.028,66.865
	c-36.09,4.095-73.225,4.095-107.909,4.095l99.011-87.761C376.413,345.102,385.836,350.823,396.756,355.375z"/>
<g>
	<path style="fill:#498A68;" d="M303,498.555c-9.489,0.001-18.512-5.567-22.466-14.848c-14.251-33.456-1.169-80.377,2.833-90.198
		c5.086-12.482,19.328-18.48,31.812-13.392c12.475,5.084,18.472,19.314,13.4,31.792c-2.862,7.281-9.428,37.9-3.137,52.669
		c5.282,12.401-0.489,26.736-12.89,32.019C309.433,497.926,306.189,498.555,303,498.555z"/>
	<path style="fill:#498A68;" d="M203.232,497.201c-11.802,0.001-22.183-8.586-24.083-20.611
		c-3.721-23.545,10.716-75.446,17.437-86.527c6.99-11.526,22.001-15.204,33.524-8.212c11.283,6.843,15.044,21.371,8.639,32.793
		c-4.295,9.471-12.644,45.196-11.383,54.35c2.104,13.314-6.985,25.802-20.3,27.907C205.779,497.102,204.497,497.201,203.232,497.201
		z M238.608,414.893c-0.093,0.161-0.188,0.322-0.285,0.482C238.41,415.233,238.507,415.073,238.608,414.893z"/>
</g>
<path style="opacity:0.1;enable-background:new    ;" d="M230.111,381.85c-11.523-6.992-26.535-3.314-33.524,8.212
	c-4.708,7.762-13.193,35.544-16.581,59.588c13.166,5.748,28.92,9.57,47.597,11.554c1.546-14.058,7.672-38.899,11.147-46.561
	C245.155,403.222,241.394,388.693,230.111,381.85z"/>
<path style="opacity:0.1;enable-background:new    ;" d="M328.579,411.908c5.071-12.477-0.925-26.708-13.4-31.792
	c-12.484-5.087-26.726,0.91-31.812,13.392c-3.207,7.871-12.233,39.569-8.361,69.07c18.428-0.691,34.459-2.807,48.305-6.43
	C321.222,440.34,326.189,417.989,328.579,411.908z"/>
<path style="fill:#5CB38E;" d="M149.718,340.223c0,56.979,7.74,98.208,111.43,98.208s111.43-41.229,111.43-98.208
	s-49.889-103.169-111.43-103.169C199.607,237.054,149.718,283.244,149.718,340.223z"/>
<path style="fill:#9BDFC1;" d="M149.718,340.223c0-0.454,0.012-0.905,0.018-1.358c23.209-5.956,69.245-7.688,101.28,26.357
	c23.345,24.809,26.723,51.582,24.219,72.934c-4.488,0.182-9.179,0.275-14.088,0.275
	C157.458,438.431,149.718,397.202,149.718,340.223z"/>
<path style="opacity:0.05;enable-background:new    ;" d="M282.302,238.919c51.423,9.151,90.276,51.023,90.276,101.304
	c0,52.759-6.648,92.01-89.95,97.534C328.878,390.812,319.933,293.882,282.302,238.919z"/>
<path style="fill:#5CB38E;" d="M158.866,88.471L158.866,88.471c19.028-28.775,51.224-46.083,85.72-46.083h42.405
	c60.288,0,109.161,48.873,109.161,109.161v50.188c0,54.108-43.863,97.971-97.971,97.971H73.392C32.859,299.708,0,266.849,0,226.316
	v-34.158c0-40.534,32.859-73.392,73.392-73.392h29.12C125.191,118.766,146.357,107.387,158.866,88.471z"/>
<path style="fill:#495059;" d="M119.369,237.054c0-17.37-14.081-25.097-31.451-25.097s-31.451,7.727-31.451,25.097
	s14.081,31.451,31.451,31.451S119.369,254.424,119.369,237.054z"/>
<g style="opacity:0.1;">
	<circle cx="336.86" cy="225.59" r="7.513"/>
	<circle cx="283.45" cy="237.05" r="7.512"/>
	<circle cx="314.01" cy="262.68" r="7.513"/>
</g>
<g>
	<ellipse style="fill:#FFA8CB;" cx="313.14" cy="122.85" rx="18.935" ry="9.714"/>
	<ellipse style="fill:#FFA8CB;" cx="186.01" cy="122.85" rx="18.935" ry="9.714"/>
</g>
<g>
	<path style="fill:#495059;" d="M289.116,111.092c-4.142,0-7.5-3.357-7.5-7.5v-9.436c0-4.143,3.358-7.5,7.5-7.5s7.5,3.357,7.5,7.5
		v9.436C296.616,107.734,293.258,111.092,289.116,111.092z"/>
	<path style="fill:#495059;" d="M210.037,111.092c-4.142,0-7.5-3.357-7.5-7.5v-9.436c0-4.143,3.358-7.5,7.5-7.5s7.5,3.357,7.5,7.5
		v9.436C217.537,107.734,214.179,111.092,210.037,111.092z"/>
	<circle style="fill:#495059;" cx="111.86" cy="157.1" r="7.513"/>
	<circle style="fill:#495059;" cx="63.979" cy="157.1" r="7.513"/>
</g>
<path style="opacity:0.05;enable-background:new    ;" d="M311.243,45.096c48.615,11.029,84.91,54.501,84.91,106.453v50.189
	c0,54.108-43.863,97.971-97.971,97.971h-59.449C325.312,249.333,339.987,110.861,311.243,45.096z"/>
<path style="fill:#FAE17C;" d="M279.978,177.089l87.033-87.033c7.401-7.401,19.401-7.401,26.803,0l41.575,41.575
	c7.401,7.401,7.401,19.401,0,26.803l-87.033,87.033c-7.401,7.401-19.401,7.401-26.803,0l-41.575-41.575
	C272.576,196.491,272.576,184.491,279.978,177.089z"/>
<circle style="fill:#FFFFFF;" cx="405.48" cy="140.52" r="9.892"/>
<g>
	<path style="fill:#495059;" d="M290.485,157.952l34.528-34.528c2.25-2.25,5.899-2.25,8.149,0l68.858,68.859
		c2.25,2.25,2.25,5.899,0,8.149l-34.528,34.528c-2.25,2.25-5.899,2.25-8.149,0l-68.858-68.859
		C288.235,163.851,288.235,160.202,290.485,157.952z"/>
	<path style="fill:#495059;" d="M238.727,363.945c-1.441,0-2.898-0.415-4.184-1.281c-3.435-2.314-4.344-6.975-2.03-10.41
		l111.493-165.5c2.315-3.436,6.976-4.344,10.411-2.029c3.435,2.313,4.344,6.975,2.03,10.41l-111.493,165.5
		C243.505,362.785,241.138,363.945,238.727,363.945z"/>
</g>
<path style="fill:#498A68;" d="M256.258,377.253c-5.741,0-11.71-0.611-17.574-2.015c-8.521-2.04-13.775-10.602-11.734-19.121
	c2.04-8.521,10.6-13.781,19.122-11.735c9.154,2.189,21.526,0.793,24.754-1.282c7.369-4.737,17.186-2.604,21.923,4.766
	c4.738,7.371,2.604,17.186-4.766,21.924C281.381,374.033,269.429,377.253,256.258,377.253z"/>
<g>
	<path style="fill:#A3E3FF;" d="M504.5,113.335c-4.142,0-7.5-3.357-7.5-7.5c0-20.707-8.04-40.151-22.639-54.752
		c-14.599-14.598-34.043-22.638-54.751-22.638c-4.142,0-7.5-3.357-7.5-7.5s3.358-7.5,7.5-7.5c24.714,0,47.925,9.6,65.357,27.031
		C502.4,57.91,512,81.121,512,105.835C512,109.977,508.642,113.335,504.5,113.335z"/>
	<path style="fill:#A3E3FF;" d="M475.816,113.335c-4.142,0-7.5-3.357-7.5-7.5c0-13.033-5.06-25.271-14.247-34.46
		c-9.188-9.187-21.426-14.246-34.459-14.246c-4.142,0-7.5-3.357-7.5-7.5s3.358-7.5,7.5-7.5c17.039,0,33.044,6.62,45.065,18.64
		c12.021,12.021,18.641,28.026,18.641,45.066C483.316,109.977,479.958,113.335,475.816,113.335z"/>
	<path style="fill:#A3E3FF;" d="M447.145,113.335c-4.142,0-7.5-3.357-7.5-7.5c0-5.352-2.084-10.383-5.869-14.168
		c-3.784-3.783-8.815-5.867-14.167-5.867c-4.142,0-7.5-3.357-7.5-7.5s3.358-7.5,7.5-7.5c9.358,0,18.156,3.645,24.773,10.261
		c6.618,6.618,10.262,15.417,10.262,24.774C454.645,109.977,451.288,113.335,447.145,113.335z"/>
</g>
<g>
</g>
<g>
</g>
<g>
</g>
<g>
</g>
<g>
</g>
<g>
</g>
<g>
</g>
<g>
</g>
<g>
</g>
<g>
</g>
<g>
</g>
<g>
</g>
<g>
</g>
<g>
</g>
<g>
</g>
</svg>
