<?xml version="1.0" encoding="iso-8859-1"?>
<!-- Generator: Adobe Illustrator 19.0.0, SVG Export Plug-In . SVG Version: 6.00 Build 0)  -->
<svg version="1.1" id="Capa_1" xmlns="http://www.w3.org/2000/svg" xmlns:xlink="http://www.w3.org/1999/xlink" x="0px" y="0px"
	 viewBox="0 0 512 512" style="enable-background:new 0 0 512 512;" xml:space="preserve">
<path style="fill:#495059;" d="M83.3,48.89c-4.143,0-7.5-3.358-7.5-7.5V11.737c0-4.142,3.357-7.5,7.5-7.5s7.5,3.358,7.5,7.5V41.39
	C90.8,45.532,87.442,48.89,83.3,48.89z"/>
<circle style="fill:#E5E5E5;" cx="83.3" cy="124.69" r="83.3"/>
<path style="fill:#FF85B6;" d="M83.299,41.39c-34.653,0-64.355,21.164-76.908,51.267h49.295
	C60.211,76.09,68.692,58.102,83.299,41.39z"/>
<path style="fill:#80B0E3;" d="M160.207,92.657C147.654,62.553,117.952,41.39,83.299,41.39c14.607,16.713,23.089,34.7,27.612,51.267
	H160.207z"/>
<path style="fill:#FFFFFF;" d="M51.267,124.689c0,9.332,1.224,20.328,4.42,32.032h55.225c3.196-11.704,4.42-22.701,4.42-32.032
	s-1.224-20.328-4.42-32.032H55.687C52.491,104.361,51.267,115.357,51.267,124.689z"/>
<path style="fill:#5CB38E;" d="M51.267,124.689c0-9.332,1.224-20.328,4.42-32.032H6.392C2.279,102.519,0,113.337,0,124.689
	s2.279,22.17,6.392,32.032h49.295C52.491,145.017,51.267,134.021,51.267,124.689z"/>
<path style="fill:#8783D2;" d="M6.392,156.721c12.553,30.103,42.255,51.267,76.908,51.267c-14.608-16.713-23.088-34.7-27.612-51.267
	H6.392z"/>
<path style="fill:#A3E3FF;" d="M160.207,92.657h-49.296c3.196,11.704,4.42,22.701,4.42,32.032s-1.224,20.328-4.42,32.032h49.296
	c4.113-9.862,6.392-20.68,6.392-32.032S164.32,102.519,160.207,92.657z"/>
<path style="fill:#FAE17C;" d="M55.687,156.721c4.524,16.567,13.005,34.554,27.612,51.267c14.607-16.713,23.089-34.7,27.612-51.267
	H55.687z"/>
<path style="fill:#498A68;" d="M347.805,408.295c-6.461,0-12.401-4.259-14.251-10.783c-2.231-7.875,2.343-16.067,10.218-18.298
	l0.45-0.127c3.769-1.061,13.781-3.88,22.138-10.704c6.341-5.178,15.676-4.234,20.852,2.105c5.177,6.34,4.234,15.676-2.105,20.852
	c-13.135,10.726-27.976,14.904-32.852,16.277l-0.403,0.113C350.502,408.113,349.142,408.295,347.805,408.295z"/>
<path style="fill:#5CB38E;" d="M239.442,442.563c-68.826-6.759-148.032-14.538-202.381-57.252c-9.3-7.309-2.059-22.046,9.457-19.342
	c45.317,10.639,85.035,2.739,108.889-14.035L239.442,442.563z"/>
<path style="opacity:0.1;enable-background:new    ;" d="M127.911,365.003c-1.391,22.055-0.172,44.327,11.585,63.9
	c33.178,7.102,67.701,10.493,99.946,13.659l-84.036-90.629C147.761,357.31,138.478,361.768,127.911,365.003z"/>
<g>
	<path style="fill:#498A68;" d="M207.6,507.763c-4.877,0-9.789-1.557-13.942-4.774c-9.957-7.709-11.778-22.029-4.069-31.985
		c9.014-11.641,4.679-31.704,0.214-35.618c-9.469-8.299-10.418-22.704-2.117-32.173c8.299-9.47,22.704-10.415,32.173-2.117
		c22.461,19.687,29.88,66.707,5.784,97.825C221.151,504.723,214.411,507.763,207.6,507.763z"/>
	<path style="fill:#498A68;" d="M315.007,497.215c-12.592,0-22.799-10.207-22.799-22.799c0-12.174-10.697-31.735-16.026-36.393
		c-10.515-6.014-14.535-19.298-8.951-30.186c5.744-11.204,19.482-15.632,30.691-9.882c19.756,10.132,39.884,48.72,39.884,76.462
		C337.806,487.008,327.598,497.215,315.007,497.215z M277.098,438.521c0.006,0.003,0.01,0.005,0.014,0.007
		C277.108,438.526,277.104,438.523,277.098,438.521z"/>
</g>
<path style="opacity:0.1;enable-background:new    ;" d="M297.922,397.954c-11.209-5.75-24.947-1.321-30.691,9.882
	c-5.584,10.888-1.564,24.172,8.951,30.186c5.329,4.658,16.026,24.219,16.026,36.393c0,1.227,0.124,2.422,0.311,3.596
	c17.665-1.681,32.481-5.884,44.629-12.682C333.557,438.856,315.596,407.019,297.922,397.954z"/>
<path style="opacity:0.1;enable-background:new    ;" d="M219.859,401.095c-9.469-8.298-23.874-7.352-32.173,2.117
	c-8.3,9.469-7.352,23.874,2.117,32.173c4.001,3.508,7.89,19.979,2.17,31.741c12.879,4.25,27.872,7.354,45.172,9.395
	C245.74,448.428,237.376,416.449,219.859,401.095z"/>
<path style="fill:#5CB38E;" d="M358.959,373.471c-5.202,52.972-16.161,90.595-112.56,81.128
	c-96.398-9.467-99.829-48.503-94.627-101.475c5.202-52.972,55.8-91.359,113.013-85.74
	C321.998,273.003,364.161,320.499,358.959,373.471z"/>
<path style="fill:#9BDFC1;" d="M358.959,373.471c0.042-0.422,0.071-0.843,0.107-1.264c-21.033-7.656-63.673-13.47-96.564,15.257
	c-23.968,20.933-29.553,45.514-29.174,65.593c4.156,0.579,8.509,1.094,13.072,1.542
	C342.798,464.066,353.757,426.443,358.959,373.471z"/>
<path style="opacity:0.05;enable-background:new    ;" d="M244.948,267.186c-48.642,3.813-88.585,39.193-93.176,85.938
	c-4.817,49.049-2.219,86.146,74.719,98.887C187.779,404.145,204.945,314.848,244.948,267.186z"/>
<path style="fill:#5CB38E;" d="M373.439,138.588L373.439,138.588c-15.063-28.488-43.414-47.519-75.485-50.668l-39.423-3.872
	c-56.048-5.504-105.946,35.47-111.451,91.518l-4.582,46.659c-4.94,50.303,31.834,95.086,82.137,100.026l208.981,20.523
	c37.683,3.701,71.231-23.848,74.932-61.53l3.119-31.755c3.701-37.683-23.847-71.231-61.53-74.932l-27.073-2.659
	C401.98,169.827,383.341,157.316,373.439,138.588z"/>
<g style="opacity:0.1;">
	<circle cx="195.45" cy="249.82" r="7.02"/>
	<circle cx="244.05" cy="265.35" r="7.02"/>
	<circle cx="213.3" cy="286.38" r="7.02"/>
</g>
<g>
	
		<ellipse transform="matrix(0.0977 -0.9952 0.9952 0.0977 39.8152 354.5772)" style="fill:#FFA8CB;" cx="215.453" cy="155.331" rx="9.07" ry="17.688"/>
	
		<ellipse transform="matrix(-0.0977 0.9952 -0.9952 -0.0977 532.3849 -148.7477)" style="fill:#FFA8CB;" cx="333.622" cy="166.966" rx="9.07" ry="17.688"/>
</g>
<g>
	<path style="fill:#495059;" d="M254.416,148.592c-0.245,0-0.492-0.012-0.741-0.036c-4.122-0.405-7.136-4.074-6.731-8.197
		c0.4-4.083-2.596-7.732-6.68-8.134c-1.975-0.19-3.913,0.395-5.448,1.655c-1.536,1.261-2.489,3.045-2.684,5.024
		c-0.404,4.122-4.057,7.143-8.197,6.73c-4.122-0.405-7.136-4.075-6.73-8.197c0.586-5.965,3.46-11.345,8.092-15.149
		c4.633-3.803,10.468-5.577,16.435-4.99c12.313,1.209,21.349,12.212,20.141,24.526C261.491,145.697,258.228,148.592,254.416,148.592
		z"/>
	<path style="fill:#495059;" d="M327.934,155.812c-0.245,0-0.492-0.012-0.742-0.037c-4.122-0.405-7.136-4.075-6.73-8.197
		c0.194-1.979-0.393-3.914-1.654-5.45c-1.262-1.536-3.046-2.489-5.024-2.684c-1.971-0.19-3.913,0.394-5.449,1.655
		c-1.535,1.261-2.488,3.045-2.683,5.023c-0.404,4.123-4.069,7.142-8.196,6.732c-4.122-0.405-7.136-4.074-6.731-8.197
		c0.585-5.966,3.459-11.346,8.092-15.15c4.633-3.804,10.475-5.576,16.433-4.991c5.967,0.586,11.347,3.46,15.15,8.093
		c3.805,4.632,5.576,10.469,4.99,16.434C335.009,152.917,331.746,155.812,327.934,155.812z"/>
	<path style="fill:#495059;" d="M426.87,298.691c-0.847,0-1.696-0.041-2.547-0.125c-7.496-0.736-14.307-4.683-18.684-10.828
		c-2.403-3.374-1.617-8.057,1.757-10.46c3.374-2.404,8.059-1.616,10.46,1.757c1.861,2.613,4.753,4.29,7.933,4.603
		c3.184,0.318,6.345-0.77,8.678-2.971c3.016-2.841,7.762-2.703,10.602,0.311c2.842,3.014,2.703,7.76-0.311,10.602
		C439.892,296.169,433.485,298.691,426.87,298.691z"/>
	<circle style="fill:#495059;" cx="410.88" cy="206.69" r="7.02"/>
	<circle style="fill:#495059;" cx="455.39" cy="211.06" r="7.02"/>
</g>
<path style="opacity:0.05;enable-background:new    ;" d="M235.738,84.351c-46.204,5.815-83.915,42.916-88.658,91.215l-4.582,46.659
	c-4.94,50.303,31.834,95.086,82.137,100.026l55.268,5.428C204.012,272.941,203.011,142.867,235.738,84.351z"/>
<path style="fill:#498A68;" d="M268.866,410.777c-4.223,0-8.414-1.794-11.346-5.277c-6.952-8.26-16.276-12.885-19.785-14.626
	l-0.42-0.208c-7.326-3.65-10.306-12.547-6.656-19.873c3.649-7.326,12.549-10.304,19.872-6.657l0.374,0.186
	c4.542,2.253,18.363,9.109,29.291,22.092c5.27,6.261,4.466,15.61-1.796,20.881C275.622,409.634,272.234,410.777,268.866,410.777z"/>
<path style="fill:#FAE17C;" d="M74.161,323.85L74.161,323.85c-2.889,5.285-10.479,5.285-13.368,0l0,0
	c-6.032-11.035-15.104-20.107-26.139-26.139l0,0c-5.285-2.889-5.285-10.479,0-13.368l0,0c11.035-6.032,20.107-15.104,26.139-26.139
	l0,0c2.889-5.285,10.479-5.285,13.368,0l0,0c6.032,11.035,15.104,20.107,26.139,26.139l0,0c5.285,2.889,5.285,10.479,0,13.368l0,0
	C89.266,303.743,80.193,312.815,74.161,323.85z"/>
<path style="fill:#80B0E3;" d="M431.816,121.746L431.816,121.746c-3.254,5.952-11.802,5.952-15.055,0l0,0
	c-6.793-12.428-17.011-22.646-29.439-29.439l0,0c-5.952-3.254-5.952-11.802,0-15.055l0,0c12.428-6.794,22.646-17.011,29.439-29.439
	l0,0c3.254-5.952,11.802-5.952,15.055,0l0,0c6.794,12.428,17.011,22.646,29.439,29.439l0,0c5.952,3.254,5.952,11.802,0,15.055l0,0
	C448.827,99.1,438.609,109.317,431.816,121.746z"/>
<path style="fill:#8783D2;" d="M429.839,455.397L429.839,455.397c-2.452,4.485-8.893,4.485-11.345,0l0,0
	c-5.119-9.365-12.819-17.065-22.184-22.184l0,0c-4.485-2.452-4.485-8.893,0-11.345l0,0c9.365-5.119,17.065-12.819,22.184-22.184l0,0
	c2.452-4.485,8.893-4.485,11.345,0l0,0c5.119,9.365,12.819,17.065,22.184,22.184l0,0c4.485,2.452,4.485,8.893,0,11.345l0,0
	C442.658,438.332,434.959,446.032,429.839,455.397z"/>
<g>
</g>
<g>
</g>
<g>
</g>
<g>
</g>
<g>
</g>
<g>
</g>
<g>
</g>
<g>
</g>
<g>
</g>
<g>
</g>
<g>
</g>
<g>
</g>
<g>
</g>
<g>
</g>
<g>
</g>
</svg>
