<?xml version="1.0" encoding="iso-8859-1"?>
<!-- Generator: Adobe Illustrator 19.0.0, SVG Export Plug-In . SVG Version: 6.00 Build 0)  -->
<svg version="1.1" id="Capa_1" xmlns="http://www.w3.org/2000/svg" xmlns:xlink="http://www.w3.org/1999/xlink" x="0px" y="0px"
	 viewBox="0 0 512 512" style="enable-background:new 0 0 512 512;" xml:space="preserve">
<path style="fill:#FAE17C;" d="M82.945,129.495c35.765,13.987,115.003,105.681,120.122,124.66
	c13.956-42.133-37.386-166.783-57.553-195.365L82.945,129.495z"/>
<path style="fill:#FF85B6;" d="M70.208,98.72L56.043,86.802c-5.061-4.258-4.268-12.271,1.529-15.454l16.226-8.91
	c1.898-1.042,3.379-2.707,4.192-4.713l6.957-17.154c2.486-6.129,10.351-7.851,15.171-3.321l13.488,12.678
	c1.578,1.483,3.618,2.377,5.778,2.531l18.465,1.316c6.597,0.47,10.665,7.418,7.846,13.402l-7.89,16.746
	c-0.923,1.959-1.142,4.176-0.621,6.277l4.454,17.967c1.592,6.42-3.76,12.436-10.321,11.604l-18.364-2.329
	c-2.148-0.272-4.324,0.204-6.162,1.349l-15.712,9.789c-5.614,3.497-12.989,0.267-14.225-6.23l-3.46-18.185
	C72.99,102.036,71.865,100.114,70.208,98.72z"/>
<path style="fill:#A3E3FF;" d="M465.096,315.678c-37.026-1.559-142.67,48.597-154.572,63.367
	c4.064-42.637,97.891-132.748,126.818-150.146L465.096,315.678z"/>
<path style="fill:#80B0E3;" d="M488.316,293.454l17.145-5.015c6.126-1.792,8.542-9.176,4.66-14.243l-10.864-14.18
	c-1.271-1.659-1.931-3.705-1.869-5.793l0.528-17.856c0.189-6.38-6.088-10.96-12.106-8.834l-16.843,5.95
	c-1.97,0.696-4.12,0.691-6.087-0.013l-16.818-6.02c-6.009-2.151-12.305,2.403-12.142,8.783l0.454,17.858
	c0.053,2.089-0.616,4.132-1.893,5.785l-10.923,14.135c-3.903,5.05-1.517,12.445,4.601,14.262l17.124,5.087
	c2.003,0.595,3.74,1.862,4.917,3.588l10.068,14.756c3.597,5.272,11.367,5.288,14.986,0.031l10.129-14.714
	C484.569,295.3,486.311,294.04,488.316,293.454z"/>
<path style="fill:#A9A6DE;" d="M445.872,108.448c-34.594,13.288-111.595,101.306-116.645,119.59
	c-13.22-40.739,37.054-160.723,56.682-188.185L445.872,108.448z"/>
<path style="fill:#8783D2;" d="M458.344,78.825l13.738-11.417c4.909-4.079,4.191-11.816-1.385-14.922l-15.605-8.693
	c-1.825-1.017-3.244-2.632-4.018-4.573l-6.613-16.594c-2.363-5.929-9.943-7.637-14.62-3.294l-13.09,12.155
	c-1.531,1.422-3.505,2.272-5.59,2.408l-17.826,1.162c-6.369,0.415-10.335,7.096-7.65,12.886l7.515,16.206
	c0.879,1.896,1.078,4.036,0.563,6.061l-4.404,17.312c-1.573,6.186,3.555,12.022,9.892,11.258l17.735-2.14
	c2.074-0.25,4.172,0.222,5.938,1.338l15.104,9.538c5.397,3.408,12.533,0.334,13.764-5.929l3.445-17.528
	C455.639,82.009,456.737,80.16,458.344,78.825z"/>
<path style="fill:#498A68;" d="M166.271,397.709c-3.925,0-7.818-1.69-10.506-4.957c-4.771-5.798-3.939-14.365,1.859-19.136
	c12.011-9.883,25.609-13.769,30.078-15.045l0.37-0.106c7.221-2.078,14.748,2.093,16.823,9.308
	c2.074,7.216-2.094,14.748-9.309,16.823l-0.415,0.119c-3.454,0.987-12.628,3.608-20.27,9.897
	C172.37,396.694,169.311,397.709,166.271,397.709z"/>
<path style="fill:#5CB38E;" d="M286.369,431.425c63.443,0,136.455,0,189.905-34.125c9.146-5.839,3.857-19.943-6.9-18.507
	c-42.328,5.651-77.882-5.124-98.156-22.577L286.369,431.425z"/>
<path style="opacity:0.1;enable-background:new    ;" d="M395.15,370.614c-0.707,20.261-3.817,40.485-16.307,57.301
	c-30.928,3.509-62.752,3.509-92.475,3.509l84.849-75.209C377.717,361.81,385.792,366.713,395.15,370.614z"/>
<g>
	<path style="fill:#498A68;" d="M314.771,493.311c-10.824,0.001-19.988-8.341-20.832-19.314c-0.257-3.348-1.598-56.862,4.039-70.702
		c4.359-10.698,16.563-15.836,27.261-11.48c10.261,4.18,15.409,15.579,11.966,25.943c-1.499,7.719-2.361,42.58-1.557,53.034
		c0.885,11.517-7.734,21.572-19.251,22.457C315.851,493.29,315.308,493.311,314.771,493.311z M336.728,419.053
		c-0.003,0.008-0.006,0.015-0.009,0.023C336.722,419.068,336.725,419.06,336.728,419.053z"/>
	<path style="fill:#498A68;" d="M238.917,493.311c-10.824,0.001-19.987-8.34-20.832-19.312c-0.257-3.348-1.601-56.862,4.04-70.707
		c4.36-10.698,16.568-15.833,27.263-11.477c10.26,4.181,15.406,15.58,11.963,25.943c-1.5,7.72-2.362,42.579-1.557,53.03
		c0.887,11.517-7.732,21.572-19.249,22.459C239.999,493.29,239.455,493.311,238.917,493.311z M260.873,419.055
		c-0.003,0.008-0.006,0.016-0.009,0.023C260.867,419.071,260.87,419.062,260.873,419.055z"/>
</g>
<path style="opacity:0.1;enable-background:new    ;" d="M249.388,391.816c-10.695-4.356-22.903,0.779-27.263,11.477
	c-3.58,8.786-4.347,33.544-4.363,51.323c11.759,3.952,25.595,6.42,41.743,7.48c-0.148-14.513,0.643-38.145,1.846-44.336
	C264.794,407.396,259.648,395.997,249.388,391.816z"/>
<path style="opacity:0.1;enable-background:new    ;" d="M325.239,391.815c-10.698-4.356-22.902,0.782-27.261,11.48
	c-4.137,10.158-4.516,41.685-4.323,59.067c15.993-0.762,29.826-2.82,41.692-6.252c0.074-14.312,0.81-32.958,1.858-38.353
	C340.648,407.394,335.5,395.995,325.239,391.815z"/>
<path style="fill:#5CB38E;" d="M183.446,357.629c0,48.829,6.633,84.161,95.492,84.161s95.492-35.332,95.492-84.161
	s-42.753-88.413-95.492-88.413S183.446,308.8,183.446,357.629z"/>
<path style="fill:#9BDFC1;" d="M183.446,357.629c0-0.389,0.011-0.776,0.016-1.164c19.89-5.104,59.341-6.589,86.794,22.587
	c20.006,21.261,22.901,44.204,20.755,62.502c-3.846,0.156-7.866,0.236-12.073,0.236C190.078,441.79,183.446,406.458,183.446,357.629
	z"/>
<path style="opacity:0.05;enable-background:new    ;" d="M297.066,270.814c44.068,7.842,77.363,43.725,77.363,86.815
	c0,45.213-5.698,78.849-77.084,83.584C336.981,400.982,329.315,317.916,297.066,270.814z"/>
<path style="fill:#5CB38E;" d="M191.286,141.885L191.286,141.885c16.306-24.659,43.897-39.492,73.46-39.492h36.34
	c51.665,0,93.548,41.883,93.548,93.548v43.01c0,46.369-37.589,83.958-83.958,83.958H118.037c-34.736,0-62.895-28.159-62.895-62.895
	v-29.272c0-34.736,28.159-62.895,62.895-62.895h24.955C162.427,167.847,180.566,158.096,191.286,141.885z"/>
<path style="fill:#495059;" d="M130.485,284.699L130.485,284.699c-11.749,0-21.801-8.439-23.836-20.01l-1.116-6.345
	c-1.044-5.938,3.525-11.381,9.554-11.381h30.794c6.03,0,10.599,5.442,9.554,11.381l-1.116,6.345
	C152.286,276.261,142.234,284.699,130.485,284.699z"/>
<g style="opacity:0.1;">
	<circle cx="343.82" cy="259.39" r="6.438"/>
	<circle cx="298.05" cy="269.22" r="6.438"/>
	<circle cx="324.24" cy="291.18" r="6.438"/>
</g>
<g>
	<ellipse style="fill:#FFA8CB;" cx="334.03" cy="171.35" rx="16.227" ry="8.325"/>
	<ellipse style="fill:#FFA8CB;" cx="225.09" cy="171.35" rx="16.227" ry="8.325"/>
</g>
<g>
	<path style="fill:#495059;" d="M313.443,162.343c-4.143,0-7.5-3.358-7.5-7.5v-8.086c0-4.142,3.357-7.5,7.5-7.5s7.5,3.358,7.5,7.5
		v8.086C320.943,158.985,317.586,162.343,313.443,162.343z"/>
	<path style="fill:#495059;" d="M245.674,162.343c-4.143,0-7.5-3.358-7.5-7.5v-8.086c0-4.142,3.357-7.5,7.5-7.5s7.5,3.358,7.5,7.5
		v8.086C253.174,158.985,249.816,162.343,245.674,162.343z"/>
	<circle style="fill:#495059;" cx="151" cy="200.7" r="6.438"/>
	<circle style="fill:#495059;" cx="109.97" cy="200.7" r="6.438"/>
</g>
<path style="opacity:0.05;enable-background:new    ;" d="M321.868,104.713c41.662,9.451,72.766,46.705,72.766,91.227v43.01
	c0,46.369-37.589,83.958-83.958,83.958H259.73C333.925,279.739,346.501,161.072,321.868,104.713z"/>
<path style="fill:#498A68;" d="M296.639,385.132c-4.807,0-9.466-2.555-11.938-7.069c-3.605-6.586-1.189-14.848,5.397-18.454
	l0.377-0.206c3.156-1.721,11.539-6.291,17.618-14.11c4.609-5.929,13.15-6.996,19.077-2.387s6.997,13.15,2.388,19.078
	c-9.555,12.288-21.983,19.065-26.066,21.291l-0.338,0.184C301.084,384.593,298.845,385.132,296.639,385.132z"/>
<path style="fill:#495059;" d="M119.644,368.685H87.846c-4.549,0-8.415-3.323-9.099-7.82l-7.263-47.763
	c-1.028-6.76,4.204-12.848,11.042-12.848h42.44c6.837,0,12.07,6.088,11.042,12.848l-7.263,47.763
	C128.06,365.362,124.193,368.685,119.644,368.685z"/>
<path style="fill:#A3E3FF;" d="M138.042,341.97H69.449c-4.143,0-7.5-3.358-7.5-7.5s3.357-7.5,7.5-7.5h68.593
	c4.143,0,7.5,3.358,7.5,7.5C145.542,338.612,142.185,341.97,138.042,341.97z"/>
<rect x="90.97" y="368.69" style="fill:#959BA0;" width="25.554" height="104.07"/>
<g>
	<path style="fill:#A3E3FF;" d="M138.659,495.098H68.832c-3.411,0-5.627-3.591-4.098-6.64l2.318-4.621
		c3.407-6.793,10.357-11.082,17.957-11.082h37.473c7.6,0,14.55,4.289,17.957,11.082l2.318,4.621
		C144.286,491.507,142.07,495.098,138.659,495.098z"/>
	<path style="fill:#A3E3FF;" d="M33.987,269.362c-0.542,0-1.093-0.059-1.644-0.182l-22.064-4.934
		c-4.042-0.904-6.587-4.914-5.683-8.956c0.904-4.042,4.913-6.587,8.956-5.683l22.064,4.934c4.042,0.904,6.587,4.914,5.683,8.956
		C40.519,266.988,37.422,269.362,33.987,269.362z"/>
</g>
<path style="fill:#FFA8CB;" d="M22.218,400.209c-2.533,0-5.005-1.283-6.416-3.607c-2.151-3.54-1.025-8.153,2.515-10.304
	l18.449-11.209c3.539-2.15,8.153-1.026,10.304,2.515c2.151,3.54,1.025,8.153-2.515,10.304l-18.449,11.21
	C24.889,399.857,23.545,400.209,22.218,400.209z"/>
<path style="fill:#A9A6DE;" d="M32.411,331.685H7.5c-4.143,0-7.5-3.358-7.5-7.5s3.357-7.5,7.5-7.5h24.911c4.143,0,7.5,3.358,7.5,7.5
	C39.911,328.328,36.554,331.685,32.411,331.685z"/>
<g>
</g>
<g>
</g>
<g>
</g>
<g>
</g>
<g>
</g>
<g>
</g>
<g>
</g>
<g>
</g>
<g>
</g>
<g>
</g>
<g>
</g>
<g>
</g>
<g>
</g>
<g>
</g>
<g>
</g>
</svg>
