<?xml version="1.0" encoding="iso-8859-1"?>
<!-- Generator: Adobe Illustrator 19.0.0, SVG Export Plug-In . SVG Version: 6.00 Build 0)  -->
<svg version="1.1" id="Capa_1" xmlns="http://www.w3.org/2000/svg" xmlns:xlink="http://www.w3.org/1999/xlink" x="0px" y="0px"
	 viewBox="0 0 512.001 512.001" style="enable-background:new 0 0 512.001 512.001;" xml:space="preserve">
<path style="fill:#498A68;" d="M141.113,387.411c-4.744,0-9.449-2.051-12.685-6.01c-5.724-7-4.689-17.316,2.312-23.039
	c5.684-4.648,10.743-11.369,14.437-16.276c3.189-4.236,5.492-7.297,8.422-9.625c7.081-5.625,17.38-4.445,23.006,2.635
	c5.456,6.868,4.51,16.766-2.014,22.487c-0.672,0.771-2.149,2.734-3.25,4.196c-4.432,5.888-11.129,14.786-19.873,21.934
	C148.426,386.2,144.758,387.411,141.113,387.411z M173.982,358.091c-0.004,0.003-0.008,0.006-0.012,0.01
	C173.974,358.097,173.977,358.094,173.982,358.091z"/>
<path style="fill:#5CB38E;" d="M277.644,417.416c76.409,0,164.342,0,228.715-41.099c11.016-7.033,4.645-24.018-8.31-22.289
	c-50.978,6.805-93.798-6.171-118.215-27.191L277.644,417.416z"/>
<path style="opacity:0.1;enable-background:new    ;" d="M408.656,344.177c-0.852,24.402-4.597,48.759-19.639,69.012
	c-37.249,4.226-75.576,4.227-111.373,4.227l102.19-90.579C387.66,333.574,397.385,339.479,408.656,344.177z"/>
<g>
	<path style="fill:#498A68;" d="M311.851,491.949c-13.035,0.001-24.072-10.044-25.089-23.258c-0.31-4.032-1.929-68.484,4.866-85.157
		c5.252-12.884,19.954-19.068,32.835-13.821c12.356,5.035,18.554,18.765,14.408,31.245c-1.807,9.302-2.845,51.281-1.876,63.867
		c1.068,13.871-9.312,25.981-23.184,27.049C313.154,491.924,312.499,491.949,311.851,491.949z M338.294,402.517
		c-0.004,0.01-0.007,0.02-0.011,0.03C338.287,402.537,338.291,402.527,338.294,402.517z M338.961,400.521L338.961,400.521
		L338.961,400.521z"/>
	<path style="fill:#498A68;" d="M220.494,491.949c-13.037,0.001-24.073-10.045-25.089-23.261c-0.31-4.033-1.925-68.49,4.866-85.155
		c5.251-12.884,19.955-19.068,32.834-13.821c12.356,5.035,18.554,18.764,14.408,31.245c-1.806,9.298-2.844,51.279-1.876,63.869
		c1.066,13.871-9.315,25.98-23.185,27.047C221.795,491.925,221.141,491.949,220.494,491.949z M246.937,402.519
		c-0.005,0.01-0.007,0.018-0.011,0.028C246.93,402.537,246.934,402.528,246.937,402.519z M247.604,400.52c0,0.001,0,0.001,0,0.001
		S247.604,400.521,247.604,400.52z"/>
</g>
<path style="opacity:0.1;enable-background:new    ;" d="M233.105,369.713c-12.879-5.248-27.583,0.937-32.834,13.821
	c-4.31,10.576-5.234,40.399-5.255,61.812c14.162,4.759,30.826,7.732,50.273,9.009c-0.178-17.481,0.776-45.94,2.223-53.396
	C251.659,388.477,245.461,374.748,233.105,369.713z"/>
<path style="opacity:0.1;enable-background:new    ;" d="M324.462,369.713c-12.88-5.248-27.582,0.937-32.835,13.821
	c-4.986,12.236-5.441,50.207-5.208,71.142c19.261-0.917,35.921-3.396,50.212-7.529c0.089-17.234,0.975-39.688,2.238-46.188
	C343.016,388.477,336.819,374.748,324.462,369.713z"/>
<path style="fill:#5CB38E;" d="M153.687,328.538c0,58.808,7.988,101.361,115.007,101.361s115.007-42.553,115.007-101.361
	S332.21,222.057,268.694,222.057S153.687,269.73,153.687,328.538z"/>
<path style="fill:#9BDFC1;" d="M153.687,328.538c0-0.469,0.013-0.934,0.019-1.402c23.954-6.147,71.468-7.935,104.532,27.203
	c24.094,25.606,27.581,53.238,24.996,75.275c-4.632,0.188-9.474,0.284-14.54,0.284C161.675,429.899,153.687,387.346,153.687,328.538
	z"/>
<path style="opacity:0.05;enable-background:new    ;" d="M290.527,223.982c53.074,9.445,93.174,52.661,93.174,104.557
	c0,54.453-6.862,94.964-92.838,100.666C338.599,380.752,329.367,280.71,290.527,223.982z"/>
<path style="fill:#5CB38E;" d="M160.179,70.168L160.179,70.168c18.59-30.366,51.176-49.378,86.759-50.621l43.74-1.527
	c62.186-2.172,114.358,46.479,116.529,108.665l1.808,51.768c1.949,55.811-41.715,102.635-97.526,104.584l-231.865,8.097
	c-41.809,1.46-76.886-31.25-78.346-73.059l-1.23-35.233c-1.46-41.809,31.25-76.886,73.059-78.346l30.037-1.049
	C126.535,102.63,147.958,90.131,160.179,70.168z"/>
<path style="fill:#FAE17C;" d="M27.828,171.816c6.026-2.954,8.14-10.495,4.528-16.152l-15.073-23.601
	c-11.34,13.764-17.907,31.554-17.236,50.778l1.23,35.233c0.288,8.241,1.899,16.12,4.594,23.463c1.043-0.928,2.041-1.936,2.973-3.045
	l21.989-26.165c3.397-4.042,3.524-9.903,0.307-14.089l-7.279-9.47C19.531,183.133,21.447,174.944,27.828,171.816z"/>
<g style="opacity:0.1;">
	<circle cx="348.71" cy="205.189" r="7.754"/>
	<circle cx="294.03" cy="218.939" r="7.754"/>
	<circle cx="326.48" cy="244.269" r="7.754"/>
</g>
<path style="fill:#FAE17C;" d="M309.014,190.633l0.296,0.584c2.335,4.611,2.005,10.122-0.862,14.421l-1.015,1.522
	c-7.257,10.882,2.665,24.999,15.362,21.855l3.048-0.755c4.829-1.196,9.933,0.199,13.482,3.686l3.193,3.136
	c8.086,7.941,21.755,3.795,24.065-7.301l2.099-10.083c0.734-3.526,2.769-6.646,5.699-8.739l6.685-4.774
	c8.481-6.057,7.863-18.854-1.162-24.065l0,0c-2.676-1.545-4.78-3.914-5.999-6.753l-5.7-13.271
	c-4.627-10.773-19.529-11.73-25.496-1.637l-1.657,2.802c-2.155,3.646-5.813,6.151-9.991,6.843l-11.607,1.923
	C309.909,171.608,304.643,182.002,309.014,190.633z"/>
<g>
	
		<ellipse transform="matrix(0.0349 0.9994 -0.9994 0.0349 421.1615 -236.8679)" style="fill:#FFA8CB;" cx="333.223" cy="99.629" rx="10.03" ry="19.543"/>
	
		<ellipse transform="matrix(-0.0349 -0.9994 0.9994 -0.0349 105.0078 309.8259)" style="fill:#FFA8CB;" cx="202.102" cy="104.211" rx="10.03" ry="19.543"/>
</g>
<g>
	<path style="fill:#495059;" d="M212.003,89.695c-4.021,0-7.349-3.188-7.491-7.238c-0.202-5.773,1.857-11.279,5.797-15.504
		c3.939-4.225,9.289-6.662,15.062-6.864c11.929-0.402,21.952,8.941,22.368,20.859c0.145,4.139-3.094,7.612-7.234,7.757
		c-4.104,0.135-7.613-3.094-7.757-7.234c-0.127-3.651-3.208-6.523-6.854-6.391c-1.769,0.061-3.408,0.808-4.615,2.103
		c-1.207,1.294-1.838,2.981-1.776,4.751c0.145,4.139-3.094,7.612-7.234,7.757C212.181,89.694,212.092,89.695,212.003,89.695z"/>
	<path style="fill:#495059;" d="M293.571,86.847c-4.022,0-7.35-3.188-7.49-7.239c-0.415-11.917,8.942-21.951,20.858-22.367
		c11.925-0.425,21.952,8.94,22.368,20.858c0.145,4.139-3.094,7.612-7.233,7.757c-4.117,0.12-7.612-3.094-7.757-7.234
		c-0.125-3.573-3.072-6.395-6.62-6.395c-0.077,0-0.155,0.001-0.234,0.004c-3.651,0.127-6.519,3.202-6.392,6.854
		c0.145,4.139-3.095,7.612-7.234,7.756C293.748,86.846,293.659,86.847,293.571,86.847z"/>
	<path style="fill:#495059;" d="M91.938,242.264c-7.738,0-15.15-3.209-20.465-8.894c-2.829-3.025-2.669-7.771,0.357-10.601
		c3.025-2.829,7.77-2.669,10.601,0.357c2.576,2.755,6.209,4.272,9.962,4.128c3.757-0.131,7.274-1.885,9.651-4.813
		c2.61-3.216,7.334-3.707,10.55-1.096c3.216,2.61,3.707,7.334,1.096,10.55c-5.111,6.295-12.682,10.068-20.773,10.351
		C92.59,242.258,92.264,242.264,91.938,242.264z"/>
	<circle style="fill:#495059;" cx="114.16" cy="142.649" r="7.754"/>
	<circle style="fill:#495059;" cx="64.777" cy="144.379" r="7.754"/>
</g>
<path style="opacity:0.05;enable-background:new    ;" d="M315.79,19.939c50.543,9.625,89.546,53.158,91.417,106.745l1.808,51.768
	c1.949,55.811-41.715,102.635-97.526,104.584l-61.32,2.141C337.659,230.098,347.808,86.739,315.79,19.939z"/>
<rect x="100.861" y="354.258" transform="matrix(-0.0872 0.9962 -0.9962 -0.0872 529.4581 249.0431)" style="fill:#959BA0;" width="99.541" height="25.664"/>
<path style="fill:#495059;" d="M142.177,316.374l-8.675,99.158l-54.6-4.777c-4.416-0.386-6.67-5.492-3.98-9.016l5.948-7.791
	c3.496-4.578,4.037-10.762,1.389-15.879l-4.867-9.405c-2.647-5.116-2.106-11.3,1.389-15.878l6.426-8.417
	c3.496-4.578,4.037-10.763,1.389-15.879l-4.505-8.706c-2.037-3.937,1.069-8.574,5.485-8.188L142.177,316.374z"/>
<path style="fill:#CD5B5B;" d="M167.743,318.611l-8.675,99.158l16.139,1.412c5.674,0.496,11.099-2.43,13.801-7.443l8.767-16.268
	c2.201-4.085,6.622-6.469,11.244-6.064l33.327,2.916c9.441,0.826,17.763-6.158,18.589-15.598l0,0
	c0.826-9.441-6.157-17.763-15.598-18.589l-33.327-2.916c-4.623-0.405-8.562-3.52-10.02-7.925l-5.809-17.543
	c-1.79-5.407-6.625-9.23-12.298-9.727L167.743,318.611z"/>
<path style="fill:#FAE17C;" d="M114.332,313.938l-27.21-2.381c-4.416-0.386-7.523,4.251-5.485,8.188l4.505,8.706
	c2.648,5.116,2.106,11.3-1.389,15.879l-6.426,8.417c-3.496,4.578-4.037,10.762-1.389,15.878l4.867,9.405
	c2.648,5.116,2.107,11.3-1.389,15.878l-5.949,7.791c-2.339,2.819-4.294,18.463-5.521,31.055
	c-0.886,9.096,5.828,17.161,14.932,17.957l0,0c9.045,0.791,17.019-5.9,17.811-14.945l1.006-11.496
	c0.548-6.267,6.074-10.904,12.341-10.355l2.893,0.253C94.87,384.131,114.451,341.856,114.332,313.938z"/>
<path style="fill:#498A68;" d="M257.074,387.431c-4.927,0-9.797-2.214-13.021-6.43c-5.492-7.184-4.119-17.46,3.065-22.952
	c10.76-8.226,15.508-16.083,18.344-20.778l0.285-0.47c4.681-7.733,14.749-10.211,22.486-5.525
	c7.735,4.683,10.209,14.751,5.525,22.487l-0.268,0.444c-3.504,5.799-10.794,17.864-26.485,29.86
	C264.038,386.334,260.541,387.431,257.074,387.431z"/>
<path style="fill:#959BA0;" d="M390.603,401.683H279.485v82.242c0,5.592,4.533,10.125,10.125,10.125h90.869
	c5.592,0,10.125-4.533,10.125-10.125v-82.242H390.603z"/>
<rect x="279.48" y="447.229" style="opacity:0.1;enable-background:new    ;" width="111.12" height="15"/>
<path style="fill:#FAE17C;" d="M267.832,397.632v43.013c0,12.119,9.824,21.944,21.944,21.944l0,0
	c11.263,0,20.394-9.131,20.394-20.394v-3.974c0-6.766,5.485-12.252,12.252-12.252h26.382c6.994,0,12.663,5.67,12.663,12.664v15.288
	c0,11.263,9.131,20.394,20.394,20.394l0,0c11.263,0,20.394-9.131,20.394-20.394v-56.288c0-9.626-7.803-17.429-17.429-17.429h-99.565
	C275.635,380.203,267.832,388.006,267.832,397.632z"/>
<g>
</g>
<g>
</g>
<g>
</g>
<g>
</g>
<g>
</g>
<g>
</g>
<g>
</g>
<g>
</g>
<g>
</g>
<g>
</g>
<g>
</g>
<g>
</g>
<g>
</g>
<g>
</g>
<g>
</g>
</svg>
