<?xml version="1.0" encoding="iso-8859-1"?>
<!-- Generator: Adobe Illustrator 19.0.0, SVG Export Plug-In . SVG Version: 6.00 Build 0)  -->
<svg version="1.1" id="Capa_1" xmlns="http://www.w3.org/2000/svg" xmlns:xlink="http://www.w3.org/1999/xlink" x="0px" y="0px"
	 viewBox="0 0 512.001 512.001" style="enable-background:new 0 0 512.001 512.001;" xml:space="preserve">
<path style="fill:#FF85B6;" d="M95.797,140.503l-40.548-25.304c-4.535-2.83-10.354,0.73-9.899,6.056l3.419,40.061
	c0.238,2.79-1.341,5.419-3.917,6.518L3.94,185.303c-5.499,2.348-5.164,10.254,0.514,12.128l31.13,10.273
	c4.238,1.398,5.831,6.558,3.12,10.103L6.8,259.519c-3.959,5.177,1.33,12.306,7.432,10.016l51.13-19.183
	c3.496-1.312,7.374,0.59,8.477,4.157l12.34,39.898c1.482,4.792,7.608,6.161,10.99,2.457l47.251-51.762
	c1.887-2.067,4.886-2.691,7.441-1.549l47.794,21.377c5.643,2.524,11.284-3.526,8.372-8.979l-27.583-51.648
	c-1.106-2.071-1.007-4.577,0.259-6.554l32.416-50.641c3.226-5.04-1.51-11.388-7.26-9.732l-36.711,10.574
	c-2.789,0.803-5.773-0.344-7.305-2.809l-29.365-47.224c-2.798-4.499-9.517-3.93-11.517,0.976l-15.722,38.555
	C103.72,141.174,99.211,142.633,95.797,140.503z"/>
<path style="fill:#FFA8CB;" d="M23.449,313.587c-2.133,0-4.25-0.904-5.734-2.661c-2.672-3.165-2.273-7.897,0.892-10.569
	l16.831-14.213c3.165-2.672,7.898-2.272,10.569,0.892c2.672,3.165,2.273,7.897-0.892,10.569l-16.831,14.213
	C26.876,313.006,25.157,313.587,23.449,313.587z"/>
<g>
	<path style="fill:#FAE17C;" d="M82.624,102.355c-1.815,0-3.635-0.655-5.077-1.981l-13.574-12.49
		c-3.048-2.805-3.245-7.549-0.44-10.598c2.804-3.048,7.548-3.246,10.598-0.44l13.574,12.49c3.048,2.805,3.245,7.549,0.44,10.598
		C86.666,101.54,84.649,102.355,82.624,102.355z"/>
	<path style="fill:#FAE17C;" d="M299.296,346.937l44.908,10.236c2.116,0.482,3.786,2.105,4.328,4.207l15.524,60.18
		c1.317,5.105,8.211,5.948,10.719,1.311l27.702-51.217c1.317-2.434,4.17-3.599,6.814-2.783l52.337,16.162
		c4.477,1.383,8.661-2.839,7.239-7.304l-16.045-50.359c-0.774-2.429,0.129-5.078,2.224-6.53l38.381-26.582
		c3.523-2.44,3.275-7.727-0.462-9.826l-38.753-21.771c-1.683-0.946-2.786-2.667-2.941-4.592l-4.045-50.22
		c-0.403-4.997-6.527-7.165-9.984-3.534l-25.535,26.825c-2.597,2.728-7.064,2.297-9.091-0.878l-18.486-28.956
		c-2.719-4.26-9.206-3.247-10.498,1.639l-9.453,35.755c-0.679,2.569-3.017,4.348-5.674,4.318l-43.779-0.493
		c-4.534-0.051-7.371,4.887-5.044,8.778l22.398,37.448c1.27,2.123,1.053,4.818-0.539,6.711l-35.397,42.086
		C293.351,340.87,295.063,345.972,299.296,346.937z"/>
</g>
<path style="fill:#FFA8CB;" d="M437.174,421.989c-1.936,0-3.871-0.745-5.338-2.231l-14.66-14.849
	c-2.91-2.948-2.879-7.696,0.068-10.607c2.947-2.909,7.696-2.879,10.607,0.068l14.66,14.849c2.91,2.948,2.879,7.696-0.068,10.607
	C440.981,421.269,439.077,421.989,437.174,421.989z"/>
<path style="fill:#FAE17C;" d="M471.371,238.209c-3.784,0-7.036-2.854-7.448-6.701c-0.442-4.119,2.539-7.815,6.657-8.257
	l33.12-3.551c4.113-0.443,7.815,2.539,8.257,6.657c0.442,4.119-2.539,7.816-6.657,8.257l-33.12,3.551
	C471.908,238.195,471.638,238.209,471.371,238.209z"/>
<path style="fill:#5CB38E;" d="M231.796,391.391c-66.566,0-143.171,0-199.251-35.804c-9.597-6.127-4.046-20.924,7.239-19.418
	c44.411,5.929,81.715-5.376,102.987-23.688L231.796,391.391z"/>
<path style="opacity:0.1;enable-background:new    ;" d="M117.661,327.587c0.742,21.258,4.005,42.478,17.109,60.121
	c32.45,3.682,65.84,3.682,97.026,3.682l-89.025-78.91C135.952,318.35,127.48,323.494,117.661,327.587z"/>
<g>
	<path style="fill:#498A68;" d="M201.953,456.326c-3.542,0-7.134-0.859-10.465-2.671c-10.647-5.79-14.585-19.116-8.794-29.763
		c6.148-11.306,2.74-33.551-2.558-43.03c-5.913-10.58-2.13-23.95,8.449-29.863c10.579-5.915,23.949-2.13,29.863,8.449
		c10.366,18.546,18.088,57.306,2.803,85.413C217.271,452.177,209.734,456.326,201.953,456.326z"/>
	<path style="fill:#498A68;" d="M296.331,451.678c-0.969,0-1.949-0.064-2.936-0.196c-12.013-1.606-20.449-12.647-18.843-24.66
		c0.967-7.232-3.513-21.515-13.314-42.453c-1.181-2.523-2.035-4.347-2.681-5.934c-4.571-11.219,0.818-24.007,12.034-28.585
		c11.214-4.578,24.025,0.811,28.611,12.024c0.232,0.567,1.094,2.408,1.786,3.888c2.856,6.1,7.635,16.309,11.428,27.509
		c5.26,15.53,7.104,28.407,5.639,39.368C316.58,443.665,307.158,451.678,296.331,451.678z"/>
</g>
<path style="fill:#CD5B5B;" d="M389.399,340.776c0,31.879-13.957,37.798-36.386,37.798s-34.472-12.936-34.472-37.798
	s12.043-37.798,34.472-37.798S389.399,308.897,389.399,340.776z"/>
<path style="opacity:0.1;enable-background:new    ;" d="M318.54,340.776c0,22.979,10.295,35.76,29.561,37.567
	c10.631-19.406,11.683-42.286,11.683-64.38c0-3.644-0.192-7.245-0.554-10.802c-1.992-0.127-4.065-0.183-6.218-0.183
	C330.583,302.978,318.54,315.914,318.54,340.776z"/>
<path style="opacity:0.1;enable-background:new    ;" d="M312.416,393.271c-3.793-11.2-8.572-21.409-11.428-27.509
	c-0.692-1.479-1.554-3.32-1.786-3.888c-4.586-11.213-17.397-16.602-28.611-12.024c-11.216,4.579-16.605,17.366-12.034,28.585
	c0.647,1.587,1.5,3.411,2.681,5.934c8.021,17.135,12.473,29.806,13.297,37.81c16.817-2.17,30.872-6.103,42.477-11.901
	C315.994,404.983,314.468,399.331,312.416,393.271z"/>
<path style="opacity:0.1;enable-background:new    ;" d="M188.585,350.999c-10.579,5.913-14.362,19.283-8.449,29.863
	c4.544,8.13,7.691,25.644,4.619,37.6c12.528,3.174,27.011,5.006,43.65,5.561c4.404-24.123-1.99-50.319-9.957-64.574
	C212.533,348.869,199.163,345.084,188.585,350.999z"/>
<path style="fill:#5CB38E;" d="M339.784,313.963c0,51.232-6.959,88.303-100.192,88.303S139.4,365.195,139.4,313.963
	s44.857-92.764,100.192-92.764S339.784,262.731,339.784,313.963z"/>
<path style="fill:#9BDFC1;" d="M339.784,313.963c0-0.408-0.011-0.814-0.017-1.221c-20.868-5.355-62.261-6.913-91.066,23.699
	c-20.99,22.307-24.028,46.379-21.776,65.578c4.035,0.164,8.254,0.247,12.667,0.247C332.825,402.266,339.784,365.195,339.784,313.963
	z"/>
<path style="opacity:0.05;enable-background:new    ;" d="M220.572,222.875c-46.237,8.228-81.171,45.877-81.171,91.087
	c0,47.438,5.978,82.73,80.878,87.698C178.693,359.45,186.736,272.295,220.572,222.875z"/>
<path style="fill:#5CB38E;" d="M339.709,97.11L339.709,97.11c-17.109-25.873-46.057-41.435-77.075-41.435h-38.128
	c-54.208,0-98.152,43.944-98.152,98.152v45.127c0,48.651,39.439,88.09,88.09,88.09h202.119c36.446,0,65.991-29.545,65.991-65.991
	V190.34c0-36.446-29.545-65.991-65.991-65.991H390.38C369.988,124.35,350.957,114.119,339.709,97.11z"/>
<circle style="fill:#495059;" cx="403.5" cy="238.35" r="24.704"/>
<g style="opacity:0.1;">
	<circle cx="179.67" cy="220.4" r="6.755"/>
	<circle cx="227.69" cy="230.71" r="6.755"/>
	<circle cx="200.21" cy="253.75" r="6.755"/>
</g>
<g>
	<ellipse style="fill:#FFA8CB;" cx="189.94" cy="128.02" rx="17.03" ry="8.734"/>
	<ellipse style="fill:#FFA8CB;" cx="304.24" cy="128.02" rx="17.03" ry="8.734"/>
</g>
<g>
	<path style="fill:#495059;" d="M211.54,118.206c-4.142,0-7.5-3.358-7.5-7.5v-8.484c0-4.142,3.358-7.5,7.5-7.5s7.5,3.358,7.5,7.5
		v8.484C219.04,114.848,215.682,118.206,211.54,118.206z"/>
	<path style="fill:#495059;" d="M282.644,118.206c-4.142,0-7.5-3.358-7.5-7.5v-8.484c0-4.142,3.358-7.5,7.5-7.5s7.5,3.358,7.5,7.5
		v8.484C290.144,114.848,286.786,118.206,282.644,118.206z"/>
	<path style="fill:#495059;" d="M214.995,100.354c-0.267,0-0.535-0.014-0.806-0.043l-16.038-1.712
		c-4.119-0.439-7.101-4.135-6.661-8.254c0.439-4.119,4.135-7.099,8.254-6.661l16.038,1.712c4.119,0.439,7.101,4.135,6.661,8.254
		C222.032,97.498,218.779,100.354,214.995,100.354z"/>
	<path style="fill:#495059;" d="M279.188,100.354c-3.785,0-7.038-2.856-7.448-6.704c-0.44-4.119,2.543-7.814,6.661-8.254
		l16.038-1.712c4.122-0.439,7.814,2.543,8.254,6.661c0.44,4.119-2.543,7.814-6.661,8.254l-16.038,1.712
		C279.724,100.34,279.455,100.354,279.188,100.354z"/>
	<circle style="fill:#495059;" cx="381.98" cy="158.82" r="6.755"/>
	<circle style="fill:#495059;" cx="425.03" cy="158.82" r="6.755"/>
</g>
<path style="opacity:0.05;enable-background:new    ;" d="M202.7,58.109c-43.712,9.917-76.347,49.004-76.347,95.717v45.127
	c0,48.651,39.439,88.09,88.09,88.09h53.453C190.05,241.749,176.855,117.242,202.7,58.109z"/>
<path style="fill:#498A68;" d="M249.722,365.272c-1.757,0-3.544-0.327-5.276-1.017c-14.01-5.583-24.154-15.245-31.01-29.537
	c-3.408-7.103-0.411-15.624,6.692-19.03c7.104-3.406,15.624-0.41,19.03,6.692c2.656,5.538,6.617,11.695,15.849,15.374
	c7.318,2.916,10.887,11.213,7.97,18.531C260.751,361.87,255.39,365.272,249.722,365.272z"/>
<path style="fill:#E5E5E5;" d="M275.4,335.602l-22.834-13.183c-3.461-1.998-7.887-0.813-9.886,2.649l-17.431,30.191
	c-1.998,3.461-0.813,7.887,2.649,9.886l22.834,13.183L275.4,335.602z"/>
<path style="fill:#CD5B5B;" d="M315.156,387.039c-15.94,27.608-30.986,25.756-50.41,14.541s-23.386-28.439-10.955-49.97
	s29.329-26.713,48.753-15.498C321.968,347.326,331.096,359.431,315.156,387.039z"/>
<g>
</g>
<g>
</g>
<g>
</g>
<g>
</g>
<g>
</g>
<g>
</g>
<g>
</g>
<g>
</g>
<g>
</g>
<g>
</g>
<g>
</g>
<g>
</g>
<g>
</g>
<g>
</g>
<g>
</g>
</svg>
