<?xml version="1.0" encoding="iso-8859-1"?>
<!-- Generator: Adobe Illustrator 19.0.0, SVG Export Plug-In . SVG Version: 6.00 Build 0)  -->
<svg version="1.1" id="Capa_1" xmlns="http://www.w3.org/2000/svg" xmlns:xlink="http://www.w3.org/1999/xlink" x="0px" y="0px"
	 viewBox="0 0 511.999 511.999" style="enable-background:new 0 0 511.999 511.999;" xml:space="preserve">
<path style="fill:#498A68;" d="M327.452,358.656c-0.841,0-1.694-0.076-2.552-0.234c-17.506-3.219-33.321-10.975-38.96-15.455
	c-6.063-4.817-7.073-13.638-2.256-19.701c4.799-6.04,13.57-7.065,19.629-2.313c1.523,1.092,12.439,7.274,26.658,9.888
	c7.616,1.4,12.655,8.71,11.255,16.326C339.984,353.927,334.087,358.656,327.452,358.656z"/>
<path style="fill:#5CB38E;" d="M200.694,393.762c-65.434,0-140.736,0-195.863-35.195c-9.433-6.023-3.977-20.568,7.116-19.087
	c43.655,5.828,80.325-5.285,101.235-23.285L200.694,393.762z"/>
<path style="opacity:0.1;enable-background:new    ;" d="M88.5,331.044c0.729,20.897,3.937,41.755,16.818,59.099
	c31.898,3.619,64.72,3.62,95.376,3.62l-87.511-77.568C106.48,321.964,98.152,327.02,88.5,331.044z"/>
<g>
	<path style="fill:#498A68;" d="M171.4,457.59c-0.556,0-1.114-0.021-1.677-0.065c-11.879-0.913-20.768-11.284-19.854-23.162
		c0.829-10.78-0.06-46.733-1.607-54.695c-3.55-10.688,1.758-22.445,12.34-26.757c11.035-4.494,23.622,0.805,28.117,11.837
		c5.817,14.276,4.432,69.471,4.166,72.923C192.015,448.987,182.562,457.59,171.4,457.59z M148.755,381.003
		c0.003,0.008,0.007,0.016,0.01,0.025C148.762,381.02,148.758,381.012,148.755,381.003z"/>
	<path style="fill:#498A68;" d="M249.635,457.59c-0.556,0-1.114-0.021-1.677-0.065c-11.879-0.913-20.768-11.284-19.854-23.162
		c0.829-10.78-0.06-46.733-1.607-54.695c-3.55-10.688,1.758-22.445,12.34-26.757c11.032-4.494,23.622,0.804,28.117,11.837
		c5.817,14.276,4.432,69.471,4.166,72.923C270.249,448.987,260.797,457.59,249.635,457.59z M226.989,381.003
		c0.003,0.008,0.007,0.016,0.01,0.025C226.996,381.02,226.992,381.012,226.989,381.003z"/>
</g>
<path style="opacity:0.1;enable-background:new    ;" d="M271.453,417.68c-0.017-18.336-0.808-43.872-4.5-52.932
	c-4.496-11.033-17.085-16.332-28.117-11.837c-10.581,4.312-15.89,16.068-12.34,26.757c1.24,6.384,2.057,30.758,1.905,45.727
	C245.055,424.302,259.325,421.756,271.453,417.68z"/>
<path style="opacity:0.1;enable-background:new    ;" d="M160.602,352.911c-10.582,4.312-15.889,16.068-12.34,26.757
	c1.081,5.564,1.84,24.795,1.916,39.555c12.239,3.539,26.505,5.662,43,6.448c0.2-17.928-0.19-50.445-4.459-60.922
	C184.224,353.716,171.637,348.416,160.602,352.911z"/>
<path style="fill:#5CB38E;" d="M306.846,317.651c0,50.361-6.841,86.801-98.488,86.801s-98.488-36.44-98.488-86.801
	s44.094-91.187,98.488-91.187S306.846,267.29,306.846,317.651z"/>
<path style="fill:#9BDFC1;" d="M306.846,317.651c0-0.401-0.011-0.8-0.016-1.201c-20.513-5.264-61.203-6.795-89.517,23.296
	c-20.633,21.928-23.619,45.591-21.406,64.463c3.967,0.161,8.113,0.243,12.452,0.243
	C300.005,404.452,306.846,368.012,306.846,317.651z"/>
<path style="opacity:0.05;enable-background:new    ;" d="M189.661,228.113c-45.451,8.088-79.791,45.097-79.791,89.538
	c0,46.632,5.876,81.323,79.503,86.206C148.494,362.365,156.4,276.693,189.661,228.113z"/>
<path style="fill:#E5E5E5;" d="M327.67,100.896c0.052-1.715-0.033-3.465-0.272-5.242c-2.07-15.353-15.113-27.215-30.595-27.769
	c-18.242-0.653-33.235,13.942-33.235,32.038c0,2.152,0.212,4.254,0.616,6.286c0.566,2.845-0.184,5.822-2.155,7.951
	c-5.691,6.149-9.005,14.53-8.469,23.687c0.953,16.285,14.358,29.436,30.657,30.105c4.614,0.189,9.02-0.601,13.032-2.175
	c2.505-0.983,5.28-0.774,7.632,0.534c5.097,2.835,11.047,4.32,17.369,3.972c16.461-0.907,29.719-14.514,30.229-30.992
	c0.426-13.755-7.816-25.639-19.674-30.602C329.667,107.374,327.566,104.297,327.67,100.896z"/>
<path style="fill:#5CB38E;" d="M298.76,95.139L298.76,95.139c-16.818-25.433-45.274-40.73-75.765-40.73h-37.48
	c-53.286,0-96.483,43.197-96.483,96.483v44.359c0,47.824,38.769,86.592,86.592,86.592h198.682c35.826,0,64.868-29.043,64.868-64.868
	v-30.19c0-35.826-29.042-64.868-64.868-64.868h-25.738C328.524,121.915,309.816,111.858,298.76,95.139z"/>
<path style="fill:#E5E5E5;" d="M361.468,185.132c-33.07,0-53.858,15.846-55.461,38.058c-0.981,13.595,8.939,25.873,22.558,26.441
	c6.194,0.258,11.872-1.878,16.22-5.546c1.516-1.279,3.613-1.545,5.393-0.672c3.407,1.671,7.239,2.61,11.29,2.61
	s7.882-0.939,11.29-2.61c1.78-0.873,3.878-0.607,5.393,0.672c4.348,3.668,10.026,5.804,16.22,5.546
	c13.619-0.569,23.539-12.846,22.558-26.441C415.327,200.978,394.539,185.132,361.468,185.132z"/>
<g style="opacity:0.1;">
	<circle cx="141.44" cy="216.339" r="6.64"/>
	<circle cx="188.65" cy="226.469" r="6.64"/>
	<circle cx="161.63" cy="249.119" r="6.64"/>
</g>
<g>
	<ellipse style="fill:#FFA8CB;" cx="159.09" cy="125.529" rx="16.736" ry="8.586"/>
	<ellipse style="fill:#FFA8CB;" cx="275.76" cy="125.529" rx="16.736" ry="8.586"/>
</g>
<g>
	<path style="fill:#495059;" d="M182.478,116.003c-4.142,0-7.5-3.358-7.5-7.5v-8.339c0-4.142,3.358-7.5,7.5-7.5s7.5,3.358,7.5,7.5
		v8.339C189.978,112.646,186.62,116.003,182.478,116.003z"/>
	<path style="fill:#495059;" d="M252.373,116.003c-4.142,0-7.5-3.358-7.5-7.5v-8.339c0-4.142,3.358-7.5,7.5-7.5
		c4.142,0,7.5,3.358,7.5,7.5v8.339C259.873,112.646,256.515,116.003,252.373,116.003z"/>
	<circle style="fill:#495059;" cx="340.31" cy="155.799" r="6.64"/>
	<circle style="fill:#495059;" cx="382.63" cy="155.799" r="6.64"/>
</g>
<path style="opacity:0.05;enable-background:new    ;" d="M164.081,56.801c-42.969,9.748-75.048,48.171-75.048,94.089v44.359
	c0,47.824,38.769,86.592,86.592,86.592h52.544C151.646,237.318,138.675,114.928,164.081,56.801z"/>
<path style="fill:#E5E5E5;" d="M70.442,100.875c-0.052-1.715,0.033-3.465,0.272-5.242c2.07-15.353,15.113-27.215,30.595-27.769
	c18.242-0.653,33.235,13.942,33.235,32.038c0,2.152-0.212,4.254-0.617,6.286c-0.566,2.845,0.184,5.822,2.155,7.951
	c5.691,6.149,9.005,14.53,8.469,23.687c-0.953,16.285-14.358,29.436-30.657,30.105c-4.614,0.189-9.02-0.601-13.032-2.175
	c-2.505-0.983-5.28-0.774-7.632,0.534c-5.097,2.835-11.047,4.32-17.369,3.972c-16.461-0.907-29.719-14.514-30.229-30.992
	c-0.425-13.755,7.816-25.638,19.674-30.602C68.445,107.353,70.546,104.276,70.442,100.875z"/>
<g>
	<path style="fill:#495059;" d="M182.009,138.183c-18.665,0-33.85-15.185-33.85-33.85s15.185-33.849,33.85-33.849
		s33.849,15.185,33.849,33.849C215.858,122.998,200.673,138.183,182.009,138.183z M182.009,85.484
		c-10.394,0-18.85,8.455-18.85,18.849s8.456,18.85,18.85,18.85c10.394,0,18.849-8.456,18.849-18.85
		C200.858,93.94,192.402,85.484,182.009,85.484z"/>
	<path style="fill:#495059;" d="M252.373,138.183c-18.665,0-33.85-15.185-33.85-33.85s15.185-33.849,33.85-33.849
		s33.849,15.185,33.849,33.849C286.222,122.998,271.037,138.183,252.373,138.183z M252.373,85.484
		c-10.394,0-18.85,8.455-18.85,18.849s8.456,18.85,18.85,18.85c10.394,0,18.849-8.456,18.849-18.85
		C271.222,93.94,262.766,85.484,252.373,85.484z"/>
	<path style="fill:#495059;" d="M226.023,111.834h-17.665c-4.142,0-7.5-3.358-7.5-7.5s3.358-7.5,7.5-7.5h17.665
		c4.142,0,7.5,3.358,7.5,7.5C233.523,108.476,230.165,111.834,226.023,111.834z"/>
</g>
<path style="fill:#498A68;" d="M214.383,371.007c-5.861,0-11.325-3.703-13.292-9.566c-3.249-9.685-9.847-16.995-12.331-19.747
	l-0.296-0.329c-5.179-5.757-4.711-14.623,1.046-19.802c5.758-5.179,14.624-4.71,19.802,1.046l0.264,0.294
	c3.215,3.561,12.996,14.397,18.103,29.618c2.463,7.342-1.493,15.29-8.834,17.754C217.366,370.772,215.861,371.007,214.383,371.007z"
	/>
<path style="fill:#A3E3FF;" d="M432.644,340.867v-23.238h37.322v23.238c0,4.352,1.382,8.59,3.948,12.105l18.87,25.855
	c2.695,3.693,0.058,8.883-4.514,8.883h-73.93c-4.571,0-7.209-5.19-4.514-8.883l18.87-25.855
	C431.262,349.458,432.644,345.219,432.644,340.867z"/>
<path style="fill:#FAE17C;" d="M488.27,387.71c4.572,0,7.209-5.19,4.514-8.883l-17.963-24.612
	c-14.197-0.005-31.046-2.397-45.049-2.895c-0.334,0.564-0.686,1.119-1.075,1.652l-18.87,25.855
	c-2.695,3.693-0.058,8.883,4.514,8.883L488.27,387.71L488.27,387.71z"/>
<path style="fill:#80B0E3;" d="M476.495,317.629h-50.381c-6.342,0-11.483-5.141-11.483-11.483l0,0
	c0-6.342,5.141-11.483,11.483-11.483h50.381c6.342,0,11.483,5.141,11.483,11.483l0,0
	C487.978,312.488,482.837,317.629,476.495,317.629z"/>
<path style="fill:#A3E3FF;" d="M367.101,330.694l-29.576-10.765l-14.334,39.382c-2.973,8.167,1.238,17.198,9.406,20.17l0,0
	c8.167,2.973,17.198-1.238,20.17-9.406L367.101,330.694z"/>
<path style="fill:#80B0E3;" d="M367.668,330.901l-30.711-11.178c-5.959-2.169-9.032-8.759-6.863-14.718l0,0
	c2.169-5.959,8.758-9.032,14.718-6.863l30.711,11.178c5.959,2.169,9.032,8.758,6.863,14.718l0,0
	C380.217,329.997,373.628,333.07,367.668,330.901z"/>
<g>
	<path style="fill:#806C6C;" d="M504.021,414.776H338.303c-4.407,0-7.979-3.573-7.979-7.979V395.69c0-4.407,3.573-7.979,7.979-7.979
		H504.02c4.407,0,7.979,3.573,7.979,7.979v11.107C512,411.203,508.428,414.776,504.021,414.776z"/>
	<path style="fill:#806C6C;" d="M375.542,451.291H358.98c-3.148,0-5.699-2.552-5.699-5.699v-30.816h27.961v30.816
		C381.241,448.74,378.689,451.291,375.542,451.291z"/>
</g>
<rect x="353.28" y="414.779" style="opacity:0.1;enable-background:new    ;" width="27.961" height="13.891"/>
<path style="fill:#806C6C;" d="M466.783,451.291h16.562c3.148,0,5.699-2.552,5.699-5.699v-30.816h-27.961v30.816
	C461.083,448.74,463.635,451.291,466.783,451.291z"/>
<rect x="461.08" y="414.779" style="opacity:0.1;enable-background:new    ;" width="27.961" height="13.891"/>
<g>
</g>
<g>
</g>
<g>
</g>
<g>
</g>
<g>
</g>
<g>
</g>
<g>
</g>
<g>
</g>
<g>
</g>
<g>
</g>
<g>
</g>
<g>
</g>
<g>
</g>
<g>
</g>
<g>
</g>
</svg>
