<?xml version="1.0" encoding="iso-8859-1"?>
<!-- Generator: Adobe Illustrator 19.0.0, SVG Export Plug-In . SVG Version: 6.00 Build 0)  -->
<svg version="1.1" id="Capa_1" xmlns="http://www.w3.org/2000/svg" xmlns:xlink="http://www.w3.org/1999/xlink" x="0px" y="0px"
	 viewBox="0 0 512 512" style="enable-background:new 0 0 512 512;" xml:space="preserve">
<path style="fill:#498A68;" d="M184.006,376.947c-2.303,0-4.638-0.55-6.811-1.711c-7.052-3.769-9.715-12.541-5.946-19.594
	c7.809-14.614,19.62-23.964,23.501-27.037l0.32-0.253c6.263-4.973,15.37-3.931,20.344,2.331s3.93,15.369-2.332,20.343l-0.357,0.283
	c-3,2.374-10.967,8.681-15.935,17.98C194.182,374.169,189.178,376.947,184.006,376.947z"/>
<path style="fill:#5CB38E;" d="M304.76,403.478c67.568,0,145.326,0,202.251-36.343c9.741-6.219,4.107-21.239-7.348-19.71
	c-45.079,6.018-82.945-5.457-104.537-24.045L304.76,403.478z"/>
<path style="opacity:0.1;enable-background:new    ;" d="M420.614,338.714c-0.753,21.578-4.065,43.117-17.367,61.027
	c-32.939,3.737-66.831,3.738-98.487,3.738l90.366-80.098C402.047,329.338,410.647,334.559,420.614,338.714z"/>
<g>
	<path style="fill:#498A68;" d="M335.01,469.387c-11.527,0.001-21.287-8.882-22.186-20.567c-0.274-3.565-1.706-60.56,4.303-75.304
		c4.644-11.394,17.646-16.863,29.035-12.222c10.927,4.453,16.407,16.593,12.741,27.63c-1.598,8.225-2.516,45.348-1.659,56.477
		c0.944,12.266-8.235,22.975-20.501,23.919C336.162,469.365,335.583,469.387,335.01,469.387z M358.393,390.303
		c-0.003,0.009-0.007,0.017-0.01,0.026C358.387,390.321,358.39,390.312,358.393,390.303z M358.983,388.538L358.983,388.538
		L358.983,388.538z"/>
	<path style="fill:#498A68;" d="M254.223,469.387c-11.528,0.001-21.288-8.883-22.186-20.569c-0.274-3.566-1.702-60.565,4.303-75.302
		c4.644-11.394,17.645-16.863,29.035-12.222c10.927,4.453,16.407,16.593,12.741,27.63c-1.597,8.222-2.515,45.346-1.659,56.479
		c0.943,12.266-8.237,22.974-20.503,23.917C255.374,469.366,254.796,469.387,254.223,469.387z M277.607,390.305
		c-0.004,0.009-0.007,0.016-0.01,0.025C277.601,390.321,277.604,390.313,277.607,390.305z M278.197,388.538c0,0,0,0,0,0.001
		C278.197,388.538,278.197,388.538,278.197,388.538z"/>
</g>
<path style="opacity:0.1;enable-background:new    ;" d="M346.162,361.295c-11.389-4.642-24.391,0.828-29.035,12.222
	c-4.409,10.82-4.812,44.397-4.605,62.91c17.033-0.811,31.764-3.003,44.403-6.658c0.079-15.24,0.862-35.095,1.979-40.844
	C362.569,377.888,357.088,365.748,346.162,361.295z"/>
<path style="opacity:0.1;enable-background:new    ;" d="M265.375,361.295c-11.39-4.642-24.391,0.828-29.035,12.222
	c-3.811,9.353-4.628,35.725-4.646,54.66c12.524,4.208,27.259,6.837,44.456,7.966c-0.157-15.458,0.686-40.625,1.966-47.218
	C281.783,377.888,276.302,365.748,265.375,361.295z"/>
<path style="fill:#5CB38E;" d="M195.146,324.885c0,52.003,7.064,89.632,101.7,89.632s101.7-37.629,101.7-89.632
	c0-52.004-45.533-94.161-101.7-94.161S195.146,272.881,195.146,324.885z"/>
<path style="fill:#9BDFC1;" d="M195.146,324.885c0-0.415,0.011-0.826,0.017-1.24c21.182-5.436,63.199-7.017,92.437,24.056
	c21.306,22.643,24.389,47.078,22.104,66.565c-4.096,0.166-8.378,0.251-12.858,0.251C202.21,414.517,195.146,376.888,195.146,324.885
	z"/>
<path style="opacity:0.05;enable-background:new    ;" d="M316.153,232.426c46.933,8.352,82.393,46.568,82.393,92.459
	c0,48.152-6.068,83.976-82.096,89.018C358.663,371.056,350.499,282.59,316.153,232.426z"/>
<path style="fill:#5CB38E;" d="M203.496,95.115L203.496,95.115c17.367-26.262,46.751-42.059,78.236-42.059h38.703
	c55.024,0,99.629,44.606,99.629,99.629v45.806c0,49.383-40.033,89.416-89.416,89.416H125.485c-36.994,0-66.984-29.99-66.984-66.984
	v-31.175c0-36.994,29.99-66.984,66.984-66.984h26.578C172.761,122.765,192.079,112.38,203.496,95.115z"/>
<path style="fill:#495059;" d="M129.658,263.805c-5.455,0-10.618-2.436-14.214-6.903c-4.73-5.877-5.445-13.654-1.867-20.295
	c0.419-0.777,0.419-1.703,0.001-2.479c-3.579-6.643-2.864-14.419,1.866-20.296c4.729-5.877,12.172-8.24,19.427-6.163l7.645,2.188
	c3.982,1.14,6.287,5.292,5.148,9.274c-1.14,3.982-5.294,6.286-9.274,5.146l-7.645-2.188c-1.905-0.545-3.081,0.485-3.614,1.146
	c-0.533,0.662-1.286,2.033-0.348,3.776c2.82,5.23,2.82,11.479-0.001,16.71c-0.938,1.742-0.185,3.113,0.349,3.775
	c0.533,0.662,1.71,1.693,3.614,1.146l7.645-2.188c3.981-1.138,8.133,1.164,9.274,5.146c1.14,3.982-1.165,8.135-5.148,9.274
	l-7.645,2.188C133.132,263.563,131.38,263.805,129.658,263.805z"/>
<g style="opacity:0.1;">
	<circle cx="365.94" cy="220.26" r="6.857"/>
	<circle cx="317.2" cy="230.72" r="6.857"/>
	<circle cx="345.09" cy="254.11" r="6.857"/>
</g>
<g>
	<ellipse style="fill:#FFA8CB;" cx="355.52" cy="126.49" rx="17.282" ry="8.866"/>
	<ellipse style="fill:#FFA8CB;" cx="239.5" cy="126.49" rx="17.282" ry="8.866"/>
</g>
<g>
	<path style="fill:#495059;" d="M261.42,116.416c-4.143,0-7.5-3.358-7.5-7.5v-8.612c0-4.142,3.357-7.5,7.5-7.5s7.5,3.358,7.5,7.5
		v8.612C268.92,113.058,265.562,116.416,261.42,116.416z"/>
	<circle style="fill:#495059;" cx="160.59" cy="157.75" r="6.857"/>
	<circle style="fill:#495059;" cx="116.89" cy="157.75" r="6.857"/>
</g>
<path style="opacity:0.05;enable-background:new    ;" d="M342.567,55.527c44.371,10.066,77.496,49.742,77.496,97.158v45.806
	c0,49.383-40.033,89.416-89.416,89.416h-54.258C355.408,241.931,368.802,115.55,342.567,55.527z"/>
<path style="fill:#498A68;" d="M320.002,350.501c-4.762,0-9.424-2.345-12.191-6.647c-4.327-6.725-2.383-15.684,4.342-20.01
	c0.747-0.481,1.547-0.982,2.39-1.51c5.819-3.645,13.06-8.181,17.945-16.278c4.13-6.847,13.029-9.05,19.877-4.917
	c6.847,4.131,9.048,13.03,4.917,19.877c-8.453,14.011-20.293,21.428-27.367,25.859c-0.739,0.463-1.44,0.902-2.094,1.323
	C325.399,349.756,322.684,350.501,320.002,350.501z"/>
<path style="fill:#495059;" d="M346.719,116.493c-4.143,0-7.5-3.358-7.5-7.5c0-1.816-1.478-3.293-3.293-3.293
	c-1.816,0-3.294,1.477-3.294,3.293c0,4.142-3.357,7.5-7.5,7.5c-4.142,0-7.5-3.358-7.5-7.5c0-10.087,8.207-18.293,18.294-18.293
	s18.293,8.206,18.293,18.293C354.219,113.135,350.861,116.493,346.719,116.493z"/>
<path style="fill:#CD5B5B;" d="M42.108,48.152c-11.183-7.183-26.339-5.393-35.484,5.061c-9.8,11.201-8.488,28.315,2.358,38.507
	l29.696,27.905c5.428,5.101,13.964,4.835,19.065-0.593l27.905-29.696c10.191-10.846,10.438-28.008-0.039-38.578
	c-9.778-9.865-25.015-10.711-35.731-2.847C47.588,49.591,44.499,49.688,42.108,48.152z"/>
<g>
</g>
<g>
</g>
<g>
</g>
<g>
</g>
<g>
</g>
<g>
</g>
<g>
</g>
<g>
</g>
<g>
</g>
<g>
</g>
<g>
</g>
<g>
</g>
<g>
</g>
<g>
</g>
<g>
</g>
</svg>
