<?xml version="1.0" encoding="iso-8859-1"?>
<!-- Generator: Adobe Illustrator 19.0.0, SVG Export Plug-In . SVG Version: 6.00 Build 0)  -->
<svg version="1.1" id="Capa_1" xmlns="http://www.w3.org/2000/svg" xmlns:xlink="http://www.w3.org/1999/xlink" x="0px" y="0px"
	 viewBox="0 0 512 512" style="enable-background:new 0 0 512 512;" xml:space="preserve">
<path style="fill:#498A68;" d="M332.35,402.175c-6.433,0-12.239-4.439-13.715-10.978c-1.712-7.582,3.047-15.116,10.628-16.827
	l0.309-0.07c4.346-0.979,15.893-3.582,23.546-9.137c6.288-4.568,15.091-3.168,19.657,3.121c4.566,6.29,3.169,15.091-3.122,19.657
	c-12.344,8.962-27.999,12.49-33.892,13.818l-0.298,0.067C334.419,402.062,333.375,402.175,332.35,402.175z"/>
<path style="fill:#5CB38E;" d="M237.036,447.936c-65.676,0-141.257,0-196.588-35.326c-9.468-6.045-3.992-20.645,7.142-19.158
	c43.817,5.849,80.623-5.304,101.61-23.372L237.036,447.936z"/>
<path style="opacity:0.1;enable-background:new    ;" d="M124.426,384.985c0.732,20.974,3.951,41.91,16.881,59.318
	c32.016,3.633,64.96,3.633,95.729,3.633l-87.835-77.855C142.473,375.872,134.114,380.947,124.426,384.985z"/>
<g>
	<path style="fill:#498A68;" d="M207.634,512c-0.557,0-1.118-0.021-1.683-0.064c-11.922-0.917-20.845-11.325-19.929-23.247
		c0.832-10.822-0.06-46.909-1.612-54.9c-3.564-10.729,1.766-22.529,12.387-26.856c11.072-4.507,23.709,0.809,28.22,11.884
		c5.836,14.327,4.448,69.725,4.181,73.19C228.326,503.365,218.838,512,207.634,512z M184.904,435.129
		c0.003,0.008,0.006,0.016,0.01,0.024C184.91,435.144,184.907,435.137,184.904,435.129z"/>
	<path style="fill:#498A68;" d="M286.157,512c-0.557,0-1.12-0.021-1.685-0.065c-11.922-0.918-20.844-11.326-19.926-23.249
		c0.833-10.819-0.059-46.904-1.612-54.896c-3.564-10.728,1.764-22.528,12.384-26.856c11.074-4.512,23.71,0.806,28.222,11.88
		c5.84,14.331,4.449,69.729,4.182,73.195C306.848,503.366,297.36,512,286.157,512z M263.428,435.131
		c0.003,0.008,0.006,0.016,0.009,0.024C263.434,435.147,263.431,435.139,263.428,435.131z"/>
</g>
<path style="opacity:0.1;enable-background:new    ;" d="M308.057,471.943c-0.017-18.404-0.811-44.034-4.517-53.129
	c-4.512-11.074-17.148-16.392-28.222-11.88c-10.621,4.328-15.948,16.128-12.384,26.856c1.245,6.409,2.065,30.872,1.911,45.896
	C281.56,478.588,295.884,476.033,308.057,471.943z"/>
<path style="opacity:0.1;enable-background:new    ;" d="M196.797,406.932c-10.622,4.327-15.951,16.127-12.387,26.856
	c1.085,5.585,1.846,24.887,1.923,39.702c12.284,3.552,26.604,5.683,43.16,6.472c0.2-17.993-0.192-50.63-4.475-61.146
	C220.506,407.741,207.87,402.425,196.797,406.932z"/>
<path style="fill:#5CB38E;" d="M343.58,371.543c0,50.547-6.866,87.123-98.852,87.123s-98.852-36.575-98.852-87.123
	c0-50.547,44.258-91.524,98.852-91.524C299.323,280.019,343.58,320.996,343.58,371.543z"/>
<path style="fill:#9BDFC1;" d="M343.58,371.543c0-0.403-0.011-0.803-0.016-1.205c-20.589-5.284-61.429-6.821-89.849,23.382
	c-20.71,22.009-23.707,45.759-21.485,64.701c3.981,0.162,8.143,0.244,12.498,0.244C336.714,458.666,343.58,422.091,343.58,371.543z"
	/>
<path style="opacity:0.05;enable-background:new    ;" d="M225.962,281.674c-45.619,8.118-80.086,45.264-80.086,89.87
	c0,46.804,5.898,81.624,79.797,86.525C184.642,416.422,192.578,330.433,225.962,281.674z"/>
<path style="fill:#5CB38E;" d="M335.465,148.207L335.465,148.207c-16.88-25.527-45.442-40.881-76.045-40.881h-37.619
	c-53.483,0-96.84,43.357-96.84,96.84v44.523c0,48.001,38.912,86.913,86.913,86.913h199.417c35.958,0,65.108-29.15,65.108-65.108
	v-30.302c0-35.958-29.15-65.108-65.108-65.108h-25.833C365.339,175.083,346.562,164.988,335.465,148.207z"/>
<path style="fill:#806C6C;" d="M476.399,240.191c0-35.958-29.15-65.108-65.108-65.108h-25.833
	c-20.119,0-38.896-10.094-49.993-26.876l0,0c-16.88-25.527-45.442-40.881-76.045-40.881h-37.619c-53.483,0-96.84,43.357-96.84,96.84
	v4.926h8.86c9.318,0,17.964,4.851,22.82,12.804l6.136,10.049c4.591,7.52,14.181,10.264,22.055,6.311l15.262-7.661
	c10.748-5.395,23.775-2.959,31.847,5.956l6.591,7.28c5.843,6.454,14.459,9.664,23.101,8.609l8.175-0.999
	c11.188-1.367,20.492,8.51,18.459,19.596l-1.585,8.648c-1.668,9.098,4.279,17.85,13.352,19.649l7.57,1.501
	c6.125,1.215,11.393,5.09,14.378,10.575l13.162,24.192h25.363l7.479-11.176c9.434-14.097,28.552-17.801,42.569-8.247l22.841,15.568
	c25.077-9.051,43.005-33.056,43.005-61.254v-30.302H476.399z"/>
<g style="opacity:0.1;">
	<circle cx="177.569" cy="269.85" r="6.665"/>
	<circle cx="224.949" cy="280.02" r="6.665"/>
	<circle cx="197.829" cy="302.75" r="6.665"/>
</g>
<g>
	<ellipse style="fill:#FFA8CB;" cx="192.029" cy="189.53" rx="16.798" ry="8.618"/>
	<ellipse style="fill:#FFA8CB;" cx="304.799" cy="189.53" rx="16.798" ry="8.618"/>
</g>
<circle style="fill:#9BDFC1;" cx="209.519" cy="164.51" r="25.783"/>
<g style="opacity:0.5;">
	<path style="fill:#FFFFFF;" d="M216.305,163.616c-1.919,0-3.839-0.732-5.304-2.197c-2.929-2.929-2.929-7.678,0-10.606l0.992-0.992
		c2.93-2.929,7.678-2.929,10.607,0s2.929,7.678,0,10.607l-0.992,0.992C220.144,162.883,218.224,163.616,216.305,163.616z"/>
	<path style="fill:#FFFFFF;" d="M212.646,186.642c-2.966,0-5.773-1.77-6.954-4.687l-0.395-0.977
		c-1.556-3.839,0.297-8.212,4.136-9.767c3.841-1.557,8.214,0.298,9.767,4.136l0.395,0.977c1.556,3.839-0.297,8.212-4.136,9.767
		C214.536,186.465,213.582,186.642,212.646,186.642z"/>
	<path style="fill:#FFFFFF;" d="M198.182,172.77c-0.169,0-0.338-0.006-0.508-0.017l-1.052-0.07c-4.133-0.276-7.26-3.851-6.983-7.984
		c0.276-4.133,3.872-7.249,7.983-6.983l1.052,0.07c4.133,0.276,7.26,3.851,6.983,7.984
		C205.393,169.732,202.096,172.77,198.182,172.77z"/>
</g>
<circle style="fill:#9BDFC1;" cx="287.319" cy="164.51" r="25.783"/>
<g style="opacity:0.5;">
	<path style="fill:#FFFFFF;" d="M280.526,163.616c-1.919,0-3.839-0.732-5.304-2.197l-0.992-0.992c-2.929-2.929-2.929-7.678,0-10.607
		c2.93-2.929,7.678-2.929,10.608,0l0.992,0.992c2.929,2.929,2.929,7.678,0,10.606C284.365,162.883,282.445,163.616,280.526,163.616z
		"/>
	<path style="fill:#FFFFFF;" d="M284.186,186.642c-0.938,0-1.89-0.177-2.813-0.55c-3.839-1.555-5.691-5.928-4.136-9.767l0.396-0.977
		c1.555-3.839,5.926-5.691,9.767-4.136c3.839,1.555,5.691,5.928,4.136,9.767l-0.395,0.977
		C289.959,184.872,287.15,186.642,284.186,186.642z"/>
	<path style="fill:#FFFFFF;" d="M298.649,172.77c-3.914,0-7.211-3.037-7.476-7c-0.276-4.133,2.851-7.707,6.983-7.984l1.052-0.07
		c4.129-0.281,7.708,2.85,7.983,6.983c0.276,4.133-2.851,7.708-6.983,7.984l-1.052,0.07
		C298.987,172.764,298.817,172.77,298.649,172.77z"/>
</g>
<g>
	<path style="fill:#495059;" d="M398.405,295.06c-7.263,0-14.17-3.145-18.949-8.629c-2.722-3.123-2.395-7.86,0.727-10.582
		c3.122-2.721,7.859-2.397,10.582,0.727c1.93,2.214,4.715,3.484,7.641,3.484s5.711-1.271,7.642-3.485
		c2.721-3.123,7.458-3.448,10.582-0.725c3.122,2.722,3.446,7.46,0.725,10.582C412.573,291.915,405.667,295.06,398.405,295.06z"/>
	<circle style="fill:#495059;" cx="377.169" cy="209.09" r="6.665"/>
	<circle style="fill:#495059;" cx="419.639" cy="209.09" r="6.665"/>
</g>
<path style="opacity:0.05;enable-background:new    ;" d="M200.287,109.728c-43.128,9.784-75.326,48.349-75.326,94.438v44.524
	c0,48.001,38.912,86.913,86.913,86.913h52.739C187.806,290.912,174.787,168.07,200.287,109.728z"/>
<path style="fill:#E5E5E5;" d="M167.223,67.266c-6.551-18.306,5.46-59.457,45.012-66.274c39.552-6.816,53.426,28.443,52.555,51.84
	L167.223,67.266z"/>
<path style="opacity:0.1;enable-background:new    ;" d="M167.223,67.266c-6.551-18.306,5.46-59.457,45.012-66.274
	c39.552-6.816,53.426,28.443,52.555,51.84L167.223,67.266z"/>
<path style="fill:#E5E5E5;" d="M151.706,106.674c-3.815-13.298-10.033-57.19,42.555-71.759
	c53.897-14.932,98.141,2.578,98.475,38.805L151.706,106.674z"/>
<path style="opacity:0.05;enable-background:new    ;" d="M151.706,106.674c-3.815-13.298-10.033-57.19,42.555-71.759
	c53.897-14.932,98.141,2.578,98.475,38.805L151.706,106.674z"/>
<g>
	<path style="fill:#E5E5E5;" d="M303.766,124.69L161.59,139.633c-14.99,1.575-27.467-11.361-25.35-26.285l0,0
		c2.185-15.401,14.023-27.651,29.34-30.362l109.592-19.395c17.21-3.046,34.033,7.052,39.44,23.671l4.49,13.801
		C322.668,112.025,315.229,123.485,303.766,124.69z"/>
	<path style="fill:#E5E5E5;" d="M162.826,22.796c6.61-13.815,37.995-28.477,49.844-20.572c10.03,6.691-12.149,54.899-30.77,59.402
		C163.28,66.129,155.264,38.601,162.826,22.796z"/>
</g>
<path style="fill:#498A68;" d="M254.727,422.166c-1.499,0-3.024-0.242-4.523-0.75c-19.515-6.621-24.752-21.111-28.217-30.699
	c-2.642-7.31,1.142-15.378,8.451-18.02c7.308-2.643,15.377,1.142,18.019,8.452c3.27,9.046,4.756,11.565,10.79,13.612
	c7.361,2.498,11.303,10.489,8.806,17.849C266.065,418.472,260.591,422.166,254.727,422.166z"/>
<g>
</g>
<g>
</g>
<g>
</g>
<g>
</g>
<g>
</g>
<g>
</g>
<g>
</g>
<g>
</g>
<g>
</g>
<g>
</g>
<g>
</g>
<g>
</g>
<g>
</g>
<g>
</g>
<g>
</g>
</svg>
