<?xml version="1.0" encoding="iso-8859-1"?>
<!-- Generator: Adobe Illustrator 19.0.0, SVG Export Plug-In . SVG Version: 6.00 Build 0)  -->
<svg version="1.1" id="Capa_1" xmlns="http://www.w3.org/2000/svg" xmlns:xlink="http://www.w3.org/1999/xlink" x="0px" y="0px"
	 viewBox="0 0 512 512" style="enable-background:new 0 0 512 512;" xml:space="preserve">
<path style="fill:#498A68;" d="M145.477,404.581c-4.373,0-8.733-1.743-11.952-5.191c-6.161-6.598-5.806-16.943,0.793-23.104
	c9.321-8.703,13.398-16.071,17.76-24.799c4.036-8.076,13.853-11.352,21.929-7.316c8.076,4.035,11.352,13.853,7.316,21.929
	c-5.226,10.46-11.438,21.707-24.694,34.084C153.479,403.125,149.473,404.581,145.477,404.581z"/>
<path style="fill:#5CB38E;" d="M278.026,416.608c76.284,0,164.073,0,228.341-41.032c10.998-7.021,4.637-23.979-8.296-22.253
	c-50.895,6.794-93.645-6.161-118.022-27.147L278.026,416.608z"/>
<path style="opacity:0.1;enable-background:new    ;" d="M408.825,343.489c-0.85,24.362-4.59,48.679-19.607,68.899
	c-37.188,4.219-75.452,4.22-111.191,4.22l102.023-90.431C387.863,332.903,397.573,338.798,408.825,343.489z"/>
<g>
	<path style="fill:#498A68;" d="M312.177,491.019c-13.015,0.001-24.034-10.029-25.048-23.223
		c-0.309-4.025-1.922-68.372,4.857-85.013c5.241-12.864,19.915-19.043,32.78-13.802c12.336,5.025,18.525,18.732,14.387,31.193
		c-1.803,9.281-2.839,51.198-1.873,63.767c1.065,13.849-9.299,25.938-23.147,27.003
		C313.477,490.995,312.823,491.019,312.177,491.019z M338.579,401.731c-0.004,0.01-0.007,0.02-0.011,0.029
		C338.571,401.75,338.575,401.741,338.579,401.731z"/>
	<path style="fill:#498A68;" d="M220.97,491.019c-13.014,0.001-24.033-10.029-25.048-23.222c-0.31-4.025-1.924-68.372,4.857-85.016
		c5.242-12.862,19.92-19.039,32.779-13.8c12.336,5.027,18.525,18.733,14.386,31.194c-1.803,9.282-2.84,51.197-1.873,63.765
		c1.065,13.848-9.298,25.939-23.146,27.003C222.27,490.994,221.617,491.019,220.97,491.019z M247.371,401.733
		c-0.004,0.01-0.008,0.019-0.012,0.029C247.363,401.752,247.367,401.743,247.371,401.733z"/>
</g>
<path style="opacity:0.1;enable-background:new    ;" d="M233.559,368.982c-12.859-5.239-27.538,0.938-32.779,13.8
	c-4.304,10.562-5.226,40.333-5.246,61.71c14.139,4.751,30.775,7.719,50.191,8.994c-0.178-17.452,0.774-45.867,2.22-53.31
	C252.084,387.715,245.896,374.009,233.559,368.982z"/>
<path style="opacity:0.1;enable-background:new    ;" d="M324.765,368.981c-12.864-5.241-27.538,0.938-32.78,13.802
	c-4.975,12.213-5.43,50.122-5.198,71.023c19.23-0.916,35.862-3.391,50.131-7.517c0.089-17.209,0.974-39.629,2.233-46.115
	C343.29,387.713,337.102,374.007,324.765,368.981z"/>
<path style="fill:#5CB38E;" d="M154.272,327.876c0,58.712,7.975,101.195,114.819,101.195S383.91,386.588,383.91,327.876
	s-51.406-106.307-114.819-106.307C205.679,221.568,154.272,269.164,154.272,327.876z"/>
<path style="fill:#9BDFC1;" d="M154.272,327.876c0-0.468,0.013-0.933,0.019-1.4c23.915-6.137,71.351-7.922,104.361,27.159
	c24.055,25.564,27.536,53.151,24.955,75.152c-4.624,0.188-9.459,0.284-14.517,0.284C162.247,429.07,154.272,386.587,154.272,327.876
	z"/>
<path style="opacity:0.05;enable-background:new    ;" d="M290.889,223.49c52.987,9.43,93.022,52.575,93.022,104.386
	c0,54.364-6.851,94.809-92.686,100.501C338.883,380.004,329.665,280.125,290.889,223.49z"/>
<path style="fill:#5CB38E;" d="M163.699,68.465L163.699,68.465c19.607-29.65,52.782-47.484,88.328-47.484h43.695
	c62.122,0,112.482,50.36,112.482,112.482v51.715c0,55.754-45.197,100.951-100.951,100.951H75.625C33.858,286.128,0,252.27,0,210.504
	v-35.197c0-41.766,33.858-75.625,75.625-75.625h30.006C129,99.682,150.809,87.957,163.699,68.465z"/>
<path style="fill:#495059;" d="M50.916,217.104c0,21.912,17.763,30.792,39.676,30.792c21.912,0,39.676-8.88,39.676-30.792
	s-17.763-39.676-39.676-39.676C68.68,177.429,50.916,195.192,50.916,217.104z"/>
<g style="opacity:0.1;">
	<circle cx="347.1" cy="209.76" r="7.741"/>
	<circle cx="292.07" cy="221.57" r="7.741"/>
	<circle cx="323.56" cy="247.97" r="7.741"/>
</g>
<g>
	<ellipse style="fill:#FFA8CB;" cx="302.26" cy="108.75" rx="19.511" ry="10.01"/>
	<ellipse style="fill:#FFA8CB;" cx="171.27" cy="108.75" rx="19.511" ry="10.01"/>
</g>
<g>
	<path style="fill:#495059;" d="M209.8,95.101c-4.142,0-7.5-3.358-7.5-7.5c0-3.462-2.817-6.279-6.279-6.279
		s-6.279,2.817-6.279,6.279c0,4.142-3.358,7.5-7.5,7.5s-7.5-3.358-7.5-7.5c0-11.733,9.545-21.279,21.279-21.279
		c11.733,0,21.279,9.545,21.279,21.279C217.3,91.743,213.942,95.101,209.8,95.101z"/>
	<path style="fill:#495059;" d="M291.285,95.101c-4.143,0-7.5-3.358-7.5-7.5c0-3.462-2.816-6.279-6.279-6.279
		c-3.462,0-6.278,2.817-6.278,6.279c0,4.142-3.357,7.5-7.5,7.5c-4.142,0-7.5-3.358-7.5-7.5c0-11.733,9.545-21.279,21.278-21.279
		s21.279,9.545,21.279,21.279C298.785,91.743,295.428,95.101,291.285,95.101z"/>
	<circle style="fill:#495059;" cx="115.26" cy="139.18" r="7.741"/>
	<circle style="fill:#495059;" cx="65.925" cy="139.18" r="7.741"/>
</g>
<path style="opacity:0.05;enable-background:new    ;" d="M320.711,23.771c50.094,11.364,87.493,56.158,87.493,109.691v51.715
	c0,55.754-45.197,100.951-100.951,100.951h-61.257C335.208,234.221,350.329,91.537,320.711,23.771z"/>
<path style="fill:#F27979;" d="M139.64,381.35c-5.389,5.389-12.833,8.722-21.056,8.722c-16.446,0-29.778-13.332-29.778-29.778
	c0-20.656-24.489-48.832-24.489-83.02c0-27.705,22.46-50.165,50.165-50.165s50.165,22.46,50.165,50.165
	C164.646,311.607,160.836,360.153,139.64,381.35z"/>
<path style="fill:#CD5B5B;" d="M118.584,364.922c-2.553,0-4.63-2.077-4.63-4.629c0-14.402-5.9-27.594-12.147-41.56
	c-6.067-13.565-12.342-27.593-12.342-41.46c0-13.794,11.222-25.016,25.016-25.016s25.016,11.222,25.016,25.016
	c0,63.702-13.502,82.154-17.64,86.293C121.238,364.185,120.168,364.922,118.584,364.922z"/>
<g>
	<path style="fill:#495059;" d="M143.557,377.468c-0.856,0-1.719-0.075-2.58-0.227l-10.641-1.876
		c-4.08-0.72-6.803-4.609-6.084-8.688c0.72-4.08,4.612-6.803,8.688-6.084l10.326,1.821l4.011-22.749l-10.326-1.821
		c-4.08-0.72-6.803-4.609-6.084-8.688c0.719-4.08,4.611-6.804,8.689-6.084l10.641,1.876c3.862,0.681,7.227,2.825,9.476,6.037
		c2.25,3.212,3.113,7.108,2.432,10.97l-4.122,23.378c-0.681,3.862-2.825,7.227-6.037,9.476
		C149.451,376.557,146.542,377.468,143.557,377.468z M147.593,339.721h0.01H147.593z"/>
	<path style="fill:#495059;" d="M250.892,377.163c-0.433,0-0.871-0.038-1.311-0.115l-98.225-17.32
		c-4.079-0.719-6.803-4.609-6.084-8.688c0.72-4.08,4.612-6.804,8.688-6.084l98.225,17.32c4.079,0.719,6.803,4.609,6.084,8.689
		C257.628,374.602,254.463,377.163,250.892,377.163z"/>
</g>
<path style="fill:#498A68;" d="M257.493,385.415c-5.289,0-10.479-2.563-13.628-7.298c-4.998-7.518-2.955-17.665,4.563-22.663
	c10.578-7.032,15.712-15.045,16.677-17.297c3.554-8.299,13.163-12.145,21.461-8.593c8.299,3.554,12.146,13.162,8.592,21.461
	c-3.652,8.53-13.09,21.325-28.63,31.656C263.746,384.529,260.602,385.415,257.493,385.415z"/>
<g>
</g>
<g>
</g>
<g>
</g>
<g>
</g>
<g>
</g>
<g>
</g>
<g>
</g>
<g>
</g>
<g>
</g>
<g>
</g>
<g>
</g>
<g>
</g>
<g>
</g>
<g>
</g>
<g>
</g>
</svg>
