<?xml version="1.0" encoding="iso-8859-1"?>
<!-- Generator: Adobe Illustrator 19.0.0, SVG Export Plug-In . SVG Version: 6.00 Build 0)  -->
<svg version="1.1" id="Capa_1" xmlns="http://www.w3.org/2000/svg" xmlns:xlink="http://www.w3.org/1999/xlink" x="0px" y="0px"
	 viewBox="0 0 512 512" style="enable-background:new 0 0 512 512;" xml:space="preserve">
<path style="fill:#498A68;" d="M351.34,383.673c-5.111,0-10.054-2.745-12.631-7.567c-4.911-9.189-12.784-15.421-15.747-17.767
	l-0.353-0.28c-6.188-4.915-7.219-13.915-2.304-20.102c4.914-6.189,13.915-7.22,20.102-2.304l0.315,0.25
	c3.835,3.036,15.506,12.275,23.223,26.716c3.725,6.969,1.094,15.638-5.875,19.362C355.924,383.128,353.615,383.673,351.34,383.673z"
	/>
<path style="fill:#CD5B5B;" d="M511.835,378.331c-1.313-8.761-9.653-14.557-18.244-12.848l-28.281,5.62
	c-3.758,0.746-7.635-0.192-10.635-2.574l-3.941-3.129c-1.1-0.874-0.817-2.616,0.503-3.096l37.795-13.756
	c7.796-2.838,12.324-11.27,9.856-19.191c-2.635-8.457-11.759-12.91-19.987-9.915l-38.204,13.905c-1.32,0.48-2.657-0.672-2.376-2.048
	l1.007-4.93c0.765-3.747,3.139-6.968,6.492-8.808l25.277-13.874c7.681-4.215,10.342-14.022,5.714-21.575
	c-4.333-7.07-13.655-9.219-20.924-5.229l-24.894,13.663c-11.309,6.207-19.275,17.016-21.856,29.654l-4.617,22.6
	c-0.509,2.492-2.276,4.541-4.666,5.411l-90.339,32.881c-7.796,2.837-12.324,11.27-9.856,19.191
	c2.635,8.457,11.758,12.91,19.987,9.915l90.748-33.03c2.39-0.87,5.061-0.436,7.053,1.146l18.064,14.346
	c10.102,8.022,23.152,11.181,35.805,8.668l27.853-5.536C507.303,394.175,513.064,386.534,511.835,378.331z"/>
<path style="fill:#5CB38E;" d="M232.016,409.889c-66.767,0-143.605,0-199.855-35.913c-9.626-6.145-4.058-20.988,7.261-19.477
	c44.545,5.947,81.963-5.392,103.299-23.76L232.016,409.889z"/>
<path style="fill:#CD5B5B;" d="M68.679,355.984c-5.83,0.201-11.844,0.1-18.02-0.336l5.21-12.7c1.978-4.822-2.448-9.813-7.472-8.426
	L4.914,346.531c-4.218,1.165-6.201,5.999-4.016,9.79l22.521,39.086c2.602,4.516,9.258,4.071,11.236-0.751l6.336-15.444
	c6.69,3.703,13.627,6.965,20.768,9.831C65.644,380.18,67.954,366.849,68.679,355.984z"/>
<path style="opacity:0.1;enable-background:new    ;" d="M117.535,345.892c0.744,21.323,4.017,42.607,17.161,60.304
	c32.549,3.693,66.039,3.693,97.32,3.693l-89.295-79.149C135.882,336.627,127.384,341.787,117.535,345.892z"/>
<g>
	<path style="fill:#498A68;" d="M208.898,476.956c-6.94,0-13.771-3.274-18.053-9.392c-14.101-20.146-26.218-70.063,0.9-93.647
		c9.173-7.978,23.076-7.008,31.054,2.165c7.917,9.103,7.022,22.865-1.957,30.87c-0.594,1.018-2.136,5.875-0.73,15.333
		c1.428,9.612,4.849,17.248,6.8,20.035c6.971,9.96,4.548,23.684-5.411,30.655C217.659,475.665,213.256,476.956,208.898,476.956z
		 M220.903,406.856L220.903,406.856L220.903,406.856z"/>
	<path style="fill:#498A68;" d="M293.164,468.544c-3.135,0-6.318-0.673-9.344-2.094c-11.003-5.169-15.733-18.278-10.565-29.281
		c7.035-14.977-3.751-27.257-7.225-30.664c-8.679-8.513-8.813-22.449-0.301-31.128c8.512-8.678,22.448-8.814,31.128-0.301
		c17.117,16.79,31.643,48.027,16.245,80.809C309.354,463.863,301.43,468.544,293.164,468.544z"/>
</g>
<path style="opacity:0.1;enable-background:new    ;" d="M271.844,441.137c19.273-2.204,35.049-6.62,47.758-13.395
	c0.13-21.732-10.654-40.806-22.745-52.666c-8.68-8.513-22.616-8.377-31.128,0.301c-8.512,8.679-8.378,22.615,0.301,31.128
	c3.474,3.407,14.26,15.687,7.225,30.664C272.645,438.467,272.184,439.796,271.844,441.137z"/>
<path style="opacity:0.1;enable-background:new    ;" d="M222.799,376.082c-7.978-9.173-21.88-10.142-31.054-2.165
	c-16.881,14.681-18.554,39.564-14.013,61.12c13.739,4.314,30.078,6.79,49.334,7.529c-0.055-0.081-0.098-0.165-0.154-0.246
	c-1.951-2.787-5.372-10.423-6.8-20.035c-1.406-9.459,0.137-14.315,0.73-15.333C229.821,398.947,230.716,385.185,222.799,376.082z"/>
<path style="fill:#5CB38E;" d="M340.332,332.227c0,51.388-6.98,88.571-100.495,88.571s-100.495-37.183-100.495-88.571
	c0-51.387,44.993-93.045,100.495-93.045S340.332,280.839,340.332,332.227z"/>
<path style="fill:#9BDFC1;" d="M340.332,332.227c0-0.41-0.011-0.817-0.017-1.225c-20.932-5.372-62.45-6.934-91.342,23.771
	c-21.054,22.375-24.101,46.52-21.842,65.777c4.047,0.164,8.279,0.248,12.705,0.248C333.352,420.797,340.332,383.614,340.332,332.227
	z"/>
<path style="opacity:0.05;enable-background:new    ;" d="M220.758,240.863c-46.377,8.253-81.417,46.016-81.417,91.363
	c0,47.582,5.996,82.981,81.123,87.963C178.752,377.852,186.82,290.433,220.758,240.863z"/>
<path style="fill:#CD5B5B;" d="M317.284,115.396c25.221-18.42,28.789-54.72,18.738-76.592c-2.086-4.54-8.379-5.088-11.239-0.992
	c-10.988,15.735-35.739,34.148-48.508,36.333c-3.613,0.618-6.302,3.741-6.072,7.4c0.854,13.543,14.929,35.046,33.518,37.481
	C308.523,119.655,313.372,118.253,317.284,115.396z"/>
<path style="fill:#5CB38E;" d="M332.081,105.178L332.081,105.178c-17.161-25.951-46.197-41.561-77.309-41.561h-38.244
	c-54.372,0-98.449,44.077-98.449,98.449v45.263c0,48.798,39.559,88.357,88.357,88.357h202.731c36.556,0,66.19-29.635,66.19-66.191
	v-30.806c0-36.556-29.634-66.191-66.19-66.191h-26.263C362.452,132.501,343.363,122.239,332.081,105.178z"/>
<path style="fill:#FFFFFF;" d="M396.068,255.517L396.068,255.517c-22.414,0-40.583-18.17-40.583-40.583v-2.522
	c0-4.811,3.9-8.71,8.711-8.71h63.746c4.811,0,8.71,3.9,8.71,8.71v2.522C436.651,237.347,418.48,255.517,396.068,255.517z"/>
<g style="opacity:0.1;">
	<path d="M402.096,255.069c5.424-0.808,10.499-2.686,15-5.418v-45.949h-15V255.069z"/>
	<path d="M375.04,249.651c4.501,2.732,9.575,4.61,15,5.418v-51.367h-15V249.651z"/>
</g>
<g style="opacity:0.1;">
	<circle cx="171.56" cy="228.84" r="6.775"/>
	<circle cx="219.72" cy="239.18" r="6.775"/>
	<circle cx="192.16" cy="262.29" r="6.775"/>
</g>
<g>
	<ellipse style="fill:#FFA8CB;" cx="195.07" cy="140.59" rx="17.08" ry="8.761"/>
	<ellipse style="fill:#FFA8CB;" cx="309.72" cy="140.59" rx="17.08" ry="8.761"/>
</g>
<g>
	<path style="fill:#495059;" d="M229.673,129.643c-4.142,0-7.5-3.358-7.5-7.5c0-2.998-2.439-5.437-5.437-5.437
		s-5.438,2.439-5.438,5.437c0,4.142-3.358,7.5-7.5,7.5s-7.5-3.358-7.5-7.5c0-11.269,9.169-20.437,20.438-20.437
		s20.437,9.168,20.437,20.437C237.173,126.285,233.815,129.643,229.673,129.643z"/>
	<path style="fill:#495059;" d="M300.993,129.643c-4.142,0-7.5-3.358-7.5-7.5c0-2.998-2.44-5.437-5.438-5.437
		s-5.437,2.439-5.437,5.437c0,4.142-3.358,7.5-7.5,7.5s-7.5-3.358-7.5-7.5c0-11.269,9.168-20.437,20.437-20.437
		s20.438,9.168,20.438,20.437C308.493,126.285,305.135,129.643,300.993,129.643z"/>
	<path style="fill:#495059;" d="M232.794,102.33c-0.51,0-1.028-0.052-1.547-0.161l-28.987-6.078
		c-4.054-0.85-6.651-4.825-5.801-8.879s4.825-6.651,8.879-5.801l28.987,6.078c4.054,0.85,6.651,4.825,5.801,8.879
		C239.385,99.902,236.267,102.33,232.794,102.33z"/>
	<path style="fill:#495059;" d="M271.997,102.33c-3.474,0-6.591-2.427-7.333-5.962c-0.85-4.054,1.747-8.029,5.801-8.879
		l28.987-6.078c4.054-0.85,8.029,1.746,8.879,5.801c0.85,4.054-1.747,8.029-5.801,8.879l-28.987,6.078
		C273.025,102.277,272.508,102.33,271.997,102.33z"/>
	<circle style="fill:#495059;" cx="374.48" cy="167.07" r="6.775"/>
	<circle style="fill:#495059;" cx="417.66" cy="167.07" r="6.775"/>
</g>
<path style="opacity:0.05;enable-background:new    ;" d="M194.657,66.06c-43.845,9.947-76.578,49.153-76.578,96.007v45.264
	c0,48.798,39.559,88.357,88.357,88.357h53.615C181.968,250.256,168.733,125.372,194.657,66.06z"/>
<path style="fill:#CD5B5B;" d="M137.631,115.396c-25.221-18.42-28.789-54.72-18.738-76.592c2.086-4.54,8.379-5.088,11.239-0.992
	c10.988,15.735,35.739,34.148,48.508,36.333c3.613,0.618,6.303,3.741,6.072,7.4c-0.854,13.543-14.929,35.046-33.518,37.481
	C146.391,119.655,141.542,118.253,137.631,115.396z"/>
<path style="fill:#498A68;" d="M196.841,361.314c-12.327,0-23.108-5.013-32.168-14.987c-5.313-5.848-4.879-14.897,0.971-20.21
	c5.849-5.313,14.897-4.878,20.21,0.97c4.235,4.662,8.354,6.942,16.879,4.795c7.662-1.929,15.439,2.718,17.368,10.381
	c1.929,7.663-2.718,15.439-10.381,17.368C205.259,360.753,200.963,361.314,196.841,361.314z"/>
<g>
</g>
<g>
</g>
<g>
</g>
<g>
</g>
<g>
</g>
<g>
</g>
<g>
</g>
<g>
</g>
<g>
</g>
<g>
</g>
<g>
</g>
<g>
</g>
<g>
</g>
<g>
</g>
<g>
</g>
</svg>
