<?xml version="1.0" encoding="iso-8859-1"?>
<!-- Generator: Adobe Illustrator 19.0.0, SVG Export Plug-In . SVG Version: 6.00 Build 0)  -->
<svg version="1.1" id="Capa_1" xmlns="http://www.w3.org/2000/svg" xmlns:xlink="http://www.w3.org/1999/xlink" x="0px" y="0px"
	 viewBox="0 0 512 512" style="enable-background:new 0 0 512 512;" xml:space="preserve">
<path style="fill:#E5E5E5;" d="M189.77,0h154.569c8.521,0,15.429,6.908,15.429,15.429v47.185c0,8.521-6.908,15.429-15.429,15.429
	h-43.138c-6.638,0-12.989,2.709-17.584,7.5L273.174,96.43c-3.338,3.48-8.902,3.48-12.239,0l-10.443-10.888
	c-4.595-4.791-10.946-7.5-17.584-7.5H189.77c-8.521,0-15.429-6.908-15.429-15.429V15.429C174.342,6.908,181.249,0,189.77,0z"/>
<path style="fill:#498A68;" d="M159.479,423.873c-2.196,0-4.423-0.525-6.494-1.632c-6.723-3.593-9.261-11.956-5.668-18.68
	c7.446-13.932,18.705-22.846,22.405-25.775l0.304-0.241c5.97-4.741,14.652-3.746,19.394,2.223c4.742,5.97,3.747,14.652-2.223,19.394
	l-0.34,0.27c-2.859,2.264-10.455,8.276-15.192,17.142C169.179,421.224,164.409,423.873,159.479,423.873z"/>
<path style="fill:#5CB38E;" d="M274.6,449.166c64.416,0,138.547,0,192.816-34.648c9.287-5.929,3.916-20.249-7.005-18.791
	c-42.977,5.737-79.076-5.202-99.661-22.923L274.6,449.166z"/>
<path style="opacity:0.1;enable-background:new    ;" d="M385.049,387.422c-0.718,20.572-3.876,41.106-16.556,58.18
	c-31.402,3.563-63.714,3.563-93.892,3.563l86.15-76.362C367.348,378.484,375.547,383.462,385.049,387.422z"/>
<g>
	<path style="fill:#498A68;" d="M303.437,512c-10.99,0.001-20.295-8.469-21.151-19.609c-0.261-3.4-1.623-57.735,4.101-71.787
		c4.426-10.862,16.817-16.081,27.68-11.655c10.417,4.244,15.643,15.818,12.149,26.34c-1.522,7.837-2.397,43.233-1.581,53.846
		c0.899,11.695-7.853,21.903-19.546,22.802C304.534,511.979,303.983,512,303.437,512z M325.731,436.604
		c-0.003,0.008-0.006,0.016-0.009,0.024C325.725,436.62,325.728,436.612,325.731,436.604z"/>
	<path style="fill:#498A68;" d="M226.42,512c-10.989,0-20.294-8.469-21.151-19.609c-0.262-3.399-1.625-57.734,4.102-71.789
		c4.426-10.861,16.821-16.078,27.68-11.653c10.417,4.245,15.643,15.818,12.148,26.341c-1.523,7.838-2.398,43.232-1.582,53.844
		c0.9,11.694-7.851,21.902-19.545,22.802C227.518,511.979,226.966,512,226.42,512z M248.713,436.605
		c-0.003,0.008-0.007,0.016-0.01,0.024C248.707,436.621,248.71,436.613,248.713,436.605z"/>
</g>
<path style="opacity:0.1;enable-background:new    ;" d="M314.067,408.949c-10.863-4.426-23.254,0.793-27.68,11.655
	c-4.201,10.313-4.585,42.324-4.389,59.973c16.238-0.774,30.283-2.863,42.331-6.348c0.075-14.531,0.822-33.463,1.886-38.94
	C329.71,424.767,324.484,413.193,314.067,408.949z"/>
<path style="opacity:0.1;enable-background:new    ;" d="M237.051,408.95c-10.859-4.425-23.254,0.792-27.68,11.653
	c-3.634,8.919-4.413,34.058-4.43,52.109c11.939,4.012,25.987,6.518,42.382,7.595c-0.15-14.736,0.654-38.731,1.875-45.016
	C252.693,424.768,247.468,413.194,237.051,408.95z"/>
<path style="fill:#5CB38E;" d="M170.099,374.238c0,49.578,6.734,85.451,96.956,85.451s96.956-35.874,96.956-85.451
	s-43.409-89.768-96.956-89.768S170.099,324.661,170.099,374.238z"/>
<path style="fill:#9BDFC1;" d="M170.099,374.238c0-0.395,0.011-0.788,0.016-1.182c20.194-5.183,60.25-6.69,88.125,22.933
	c20.313,21.587,23.252,44.882,21.073,63.46c-3.905,0.159-7.987,0.24-12.258,0.24C176.833,459.689,170.099,423.816,170.099,374.238z"
	/>
<path style="opacity:0.05;enable-background:new    ;" d="M285.461,286.093c44.744,7.963,78.55,44.396,78.55,88.146
	c0,45.906-5.785,80.058-78.266,84.865C325.988,418.256,318.204,333.917,285.461,286.093z"/>
<path style="fill:#5CB38E;" d="M178.059,155.187L178.059,155.187c16.556-25.037,44.57-40.097,74.586-40.097h36.897
	c52.457,0,94.982,42.525,94.982,94.982v43.669c0,47.08-38.166,85.245-85.245,85.245H103.687c-35.269,0-63.859-28.591-63.859-63.859
	v-29.721c0-35.268,28.591-63.859,63.859-63.859h25.338C148.758,181.547,167.175,171.646,178.059,155.187z"/>
<g style="opacity:0.1;">
	<circle cx="332.93" cy="274.5" r="6.537"/>
	<circle cx="286.46" cy="284.47" r="6.537"/>
	<circle cx="313.05" cy="306.77" r="6.537"/>
</g>
<g>
	<ellipse style="fill:#FFA8CB;" cx="311.31" cy="176.6" rx="16.476" ry="8.452"/>
	<ellipse style="fill:#FFA8CB;" cx="200.69" cy="176.6" rx="16.476" ry="8.452"/>
</g>
<g>
	<path style="fill:#495059;" d="M290.404,167.343c-4.143,0-7.5-3.358-7.5-7.5v-8.21c0-4.142,3.357-7.5,7.5-7.5s7.5,3.358,7.5,7.5
		v8.21C297.904,163.985,294.547,167.343,290.404,167.343z"/>
	<path style="fill:#495059;" d="M221.596,167.343c-4.142,0-7.5-3.358-7.5-7.5v-8.21c0-4.142,3.358-7.5,7.5-7.5s7.5,3.358,7.5,7.5
		v8.21C229.096,163.985,225.738,167.343,221.596,167.343z"/>
	<path style="fill:#495059;" d="M301.653,146.585c-0.006,0-0.012,0-0.018,0l-16.182-0.04c-4.143-0.01-7.491-3.376-7.481-7.519
		c0.011-4.136,3.366-7.481,7.5-7.481c0.006,0,0.012,0,0.019,0l16.182,0.04c4.143,0.01,7.491,3.377,7.481,7.519
		C309.143,143.24,305.787,146.585,301.653,146.585z"/>
	<path style="fill:#495059;" d="M226.507,147.252c-0.213,0-0.427-0.009-0.644-0.027l-16.123-1.371
		c-4.127-0.351-7.189-3.981-6.838-8.108s3.976-7.183,8.108-6.838l16.123,1.371c4.127,0.351,7.188,3.981,6.838,8.108
		C233.64,144.297,230.362,147.252,226.507,147.252z"/>
	<circle style="fill:#495059;" cx="137.16" cy="214.9" r="6.537"/>
	<circle style="fill:#495059;" cx="95.5" cy="214.9" r="6.537"/>
</g>
<path style="opacity:0.05;enable-background:new    ;" d="M310.643,117.446c42.301,9.596,73.881,47.422,73.881,92.626v43.669
	c0,47.08-38.166,85.245-85.245,85.245h-51.727C322.885,295.155,335.654,174.669,310.643,117.446z"/>
<path style="fill:#498A68;" d="M275.312,403.222c-1.709,0-3.446-0.319-5.129-0.993c-16.696-6.687-27.617-17.879-32.46-33.264
	c-2.288-7.272,1.751-15.023,9.022-17.312c7.272-2.289,15.022,1.75,17.311,9.022c2.331,7.407,7.387,12.318,16.392,15.925
	c7.077,2.834,10.516,10.869,7.681,17.946C285.969,399.941,280.788,403.222,275.312,403.222z"/>
<g>
	<path style="fill:#495059;" d="M131.839,298.912c-1.417,0-2.85-0.401-4.121-1.239c-2.94-1.938-8.23-4.247-16.74-4.247h-7.832
		c-4.142,0-7.5-3.358-7.5-7.5s3.358-7.5,7.5-7.5h7.832c9.679,0,18.322,2.325,24.995,6.723c3.459,2.28,4.414,6.931,2.135,10.39
		C136.666,297.726,134.276,298.912,131.839,298.912z"/>
	<circle style="fill:#495059;" cx="321.34" cy="39.02" r="13.258"/>
	<circle style="fill:#495059;" cx="267.06" cy="39.02" r="13.258"/>
	<circle style="fill:#495059;" cx="212.77" cy="39.02" r="13.258"/>
</g>
<g>
</g>
<g>
</g>
<g>
</g>
<g>
</g>
<g>
</g>
<g>
</g>
<g>
</g>
<g>
</g>
<g>
</g>
<g>
</g>
<g>
</g>
<g>
</g>
<g>
</g>
<g>
</g>
<g>
</g>
</svg>
