<?xml version="1.0" encoding="iso-8859-1"?>
<!-- Generator: Adobe Illustrator 19.0.0, SVG Export Plug-In . SVG Version: 6.00 Build 0)  -->
<svg version="1.1" id="Capa_1" xmlns="http://www.w3.org/2000/svg" xmlns:xlink="http://www.w3.org/1999/xlink" x="0px" y="0px"
	 viewBox="0 0 512.002 512.002" style="enable-background:new 0 0 512.002 512.002;" xml:space="preserve">
<path style="fill:#498A68;" d="M353.259,362.392c-5.347,0-10.578-2.657-13.648-7.51c-4.761-7.529-2.518-17.492,5.011-22.254
	l0.388-0.245c4.655-2.955,18.821-11.948,37.052-14.803c8.802-1.379,17.053,4.639,18.431,13.44s-4.639,17.052-13.44,18.431
	c-11.599,1.817-21.156,7.884-24.754,10.168l-0.434,0.275C359.19,361.586,356.207,362.392,353.259,362.392z"/>
<path style="fill:#5CB38E;" d="M251.73,431.848c-74.578,10.187-160.404,21.91-228.714-9.621
	c-11.689-5.396-7.736-22.824,5.139-22.863c50.664-0.154,90.728-18.528,111.758-42.3L251.73,431.848z"/>
<path style="opacity:0.1;enable-background:new    ;" d="M114.092,377.831c4.085,23.703,10.988,46.978,28.369,64.74
	c36.92-0.841,74.328-5.95,109.268-10.723l-111.817-74.784C133.172,364.682,124.466,371.742,114.092,377.831z"/>
<g>
	<path style="fill:#498A68;" d="M228.977,512.002c-2.803,0.001-5.651-0.478-8.438-1.486c-12.888-4.661-19.557-18.887-14.896-31.775
		c5.637-15.585,3.285-41.482,0.427-49.318c-7.264-9.69-6.519-23.495,2.267-32.345c9.655-9.726,25.367-9.782,35.093-0.126
		c8.27,8.211,13.265,23.437,14.847,45.253c0.832,11.488,1.166,33.704-5.964,53.415C248.661,505.72,239.131,512,228.977,512.002z
		 M208.443,432.15c0.007,0.007,0.013,0.013,0.02,0.02C208.457,432.163,208.45,432.158,208.443,432.15z"/>
	<path style="fill:#498A68;" d="M370.788,477.646c-13.648,1.245-25.722-8.809-26.967-22.457
		c-1.256-13.77-12.659-27.357-18.214-30.736c-11.971-0.841-21.887-10.283-22.955-22.616c-1.178-13.614,8.871-25.612,22.466-26.852
		c0.039-0.004,0.078-0.007,0.117-0.011c21.159-1.831,38.956,16.418,45.626,24.349c7.415,8.817,20.182,27.213,22.385,51.355
		C394.491,464.328,384.437,476.401,370.788,477.646z M329.492,424.422c0.007-0.001,0.015-0.001,0.023-0.001
		C329.508,424.422,329.499,424.422,329.492,424.422z"/>
</g>
<path style="opacity:0.1;enable-background:new    ;" d="M374.482,415.301c1.319-2.052,2.513-4.132,3.615-6.231
	c-2.6-3.952-5.134-7.246-7.236-9.745c-6.67-7.931-24.467-26.18-45.626-24.349c-0.039,0.004-0.078,0.007-0.117,0.011
	c-13.594,1.24-23.644,13.238-22.465,26.852c1.068,12.333,10.984,21.775,22.955,22.616c4.209,2.56,11.766,10.982,15.732,20.9
	C355.805,437.324,366.718,427.375,374.482,415.301z"/>
<path style="opacity:0.1;enable-background:new    ;" d="M243.431,396.952c-9.727-9.656-25.438-9.6-35.093,0.126
	c-8.786,8.849-9.531,22.655-2.267,32.345c2.363,6.477,4.374,25.292,1.819,40.425c5.199,0.441,10.601,0.686,16.262,0.686
	c10.279,0,21.666-0.737,33.91-2.173c0.964-10.47,0.669-19.905,0.216-26.155C256.696,420.387,251.701,405.161,243.431,396.952z"/>
<path style="fill:#5CB38E;" d="M360.867,328.573c7.84,57.399,5.717,99.997-98.738,114.265
	c-104.455,14.268-117.925-26.2-125.765-83.599s36.061-110.795,98.055-119.263C296.414,231.509,353.027,271.174,360.867,328.573z"/>
<path style="fill:#9BDFC1;" d="M360.867,328.573c-0.063-0.457-0.137-0.91-0.206-1.366c-24.2-2.806-70.814,1.783-98.401,40.488
	c-20.103,28.205-19.822,55.639-14.362,76.804c4.546-0.434,9.285-0.986,14.23-1.661C366.584,428.57,368.708,385.973,360.867,328.573z
	"/>
<path style="opacity:0.05;enable-background:new    ;" d="M213.366,244.767c-50.543,16.295-83.921,63.822-77.002,114.474
	c7.26,53.148,19.358,91.773,104.034,85.876C187.347,404.189,183.02,305.313,213.366,244.767z"/>
<path style="fill:#5CB38E;" d="M317.01,76.224L317.01,76.224c-23.128-26.369-57.943-39.374-92.694-34.627l-42.718,5.835
	c-60.733,8.296-103.241,64.254-94.945,124.987l6.906,50.559c7.445,54.507,57.668,92.658,112.175,85.213l226.448-30.932
	c40.833-5.578,69.412-43.2,63.835-84.033l-4.7-34.409c-5.578-40.832-43.2-69.412-84.033-63.835l-29.335,4.007
	C355.102,102.109,332.214,93.559,317.01,76.224z"/>
<circle style="fill:#495059;" cx="408.93" cy="216.142" r="26.03"/>
<g style="opacity:0.1;">
	<circle cx="156.57" cy="238.852" r="7.638"/>
	<circle cx="211.96" cy="243.042" r="7.638"/>
	<circle cx="184.69" cy="273.061" r="7.638"/>
</g>
<g>
	
		<ellipse transform="matrix(-0.1353 -0.9908 0.9908 -0.1353 29.1588 324.2625)" style="fill:#FFA8CB;" cx="156.075" cy="149.407" rx="9.877" ry="19.252"/>
	
		<ellipse transform="matrix(0.1353 0.9908 -0.9908 0.1353 376.3782 -167.4897)" style="fill:#FFA8CB;" cx="284.147" cy="131.889" rx="9.877" ry="19.252"/>
</g>
<g>
	<circle style="fill:#495059;" cx="373.81" cy="138.892" r="7.638"/>
	<circle style="fill:#495059;" cx="422.04" cy="132.302" r="7.638"/>
</g>
<path style="opacity:0.05;enable-background:new    ;" d="M157.541,53.496c-47.457,17.8-78.037,66.586-70.888,118.922l6.906,50.559
	c7.445,54.507,57.668,92.658,112.175,85.213l59.887-8.18C171.471,261.176,137.634,123.702,157.541,53.496z"/>
<g>
	<path style="fill:#495059;" d="M149.061,138.602c-9.409,0-18.515-3.05-26.136-8.839c-9.222-7.005-15.164-17.183-16.731-28.657
		c-2.7-19.77,11.186-38.05,30.955-40.75c8.059-1.1,16.063,1.002,22.54,5.922c6.476,4.92,10.649,12.067,11.75,20.125
		c1.063,7.783-1.447,15.345-6.716,20.227c-4.866,4.509-11.626,6.243-18.549,4.752c-4.05-0.871-6.626-4.86-5.755-8.909
		c0.871-4.05,4.857-6.632,8.91-5.755c2.166,0.465,3.915,0.099,5.199-1.091c1.66-1.538,2.446-4.295,2.049-7.195
		c-0.558-4.088-2.675-7.715-5.961-10.211s-7.345-3.565-11.436-3.004c-5.607,0.766-10.58,3.669-14.002,8.175
		c-3.423,4.506-4.887,10.075-4.121,15.682c1.025,7.505,4.911,14.161,10.942,18.743c6.032,4.582,13.486,6.542,20.991,5.515
		c9.877-1.349,18.638-6.464,24.668-14.402s8.608-17.749,7.259-27.626c-0.561-4.104,2.312-7.886,6.416-8.446
		c4.108-0.561,7.886,2.312,8.446,6.416c1.891,13.847-1.723,27.602-10.177,38.73s-20.735,18.299-34.582,20.191
		C153.027,138.467,151.037,138.602,149.061,138.602z"/>
	<path style="fill:#495059;" d="M269.934,122.092c-9.409,0-18.516-3.05-26.137-8.84c-9.222-7.005-15.164-17.183-16.731-28.657
		c-2.7-19.77,11.187-38.049,30.956-40.75c8.06-1.1,16.063,1.002,22.539,5.922s10.649,12.067,11.75,20.125
		c1.063,7.784-1.448,15.346-6.717,20.228c-4.865,4.509-11.625,6.242-18.549,4.752c-4.05-0.871-6.626-4.86-5.755-8.909
		c0.87-4.05,4.856-6.629,8.909-5.755c2.167,0.465,3.916,0.099,5.199-1.091c1.661-1.539,2.446-4.295,2.05-7.195
		c-0.558-4.088-2.675-7.715-5.961-10.211c-3.286-2.496-7.345-3.565-11.435-3.004c-5.607,0.766-10.58,3.669-14.003,8.175
		c-3.423,4.506-4.887,10.076-4.121,15.682c1.025,7.505,4.911,14.161,10.943,18.743c6.031,4.582,13.487,6.541,20.991,5.515
		c20.389-2.785,34.711-21.639,31.926-42.028c-0.561-4.104,2.312-7.886,6.416-8.446c4.106-0.56,7.886,2.312,8.446,6.416
		c3.904,28.584-16.174,55.016-44.758,58.921C273.9,121.957,271.91,122.092,269.934,122.092z"/>
</g>
<path style="fill:#498A68;" d="M223.309,375.487c-1.18,0-2.378-0.13-3.577-0.402l-0.499-0.113
	c-4.156-0.949-15.201-3.47-26.747-1.295c-8.757,1.647-17.189-4.111-18.837-12.865c-1.649-8.754,4.111-17.188,12.865-18.837
	c18.147-3.419,34.52,0.319,39.899,1.547l0.445,0.102c8.688,1.968,14.136,10.606,12.168,19.294
	C237.33,370.406,230.677,375.487,223.309,375.487z"/>
<g>
	<path style="fill:#FAE17C;" d="M369.908,52.879l-11.103,3.151c-3.967,1.126-7.828-2.083-7.447-6.189l1.067-11.492
		c0.125-1.344-0.217-2.69-0.969-3.812l-6.428-9.586c-2.297-3.425-0.438-8.089,3.585-8.995l11.26-2.536
		c1.317-0.297,2.491-1.038,3.326-2.1l7.13-9.076c2.548-3.243,7.557-2.916,9.662,0.63l5.891,9.925
		c0.689,1.161,1.757,2.049,3.025,2.514l10.835,3.977c3.871,1.421,5.109,6.286,2.387,9.384l-7.619,8.67
		c-0.891,1.014-1.405,2.304-1.456,3.653l-0.434,11.535c-0.155,4.121-4.4,6.801-8.187,5.17l-10.6-4.566
		C372.593,52.601,371.207,52.511,369.908,52.879z"/>
	<path style="fill:#FAE17C;" d="M50.321,106.428l-9.446,6.632c-3.375,2.37-8.077,0.611-9.069-3.391l-2.777-11.203
		c-0.325-1.31-1.091-2.469-2.171-3.28l-9.227-6.934c-3.296-2.478-3.077-7.493,0.423-9.674l9.796-6.103
		c1.146-0.714,2.011-1.801,2.449-3.078l3.744-10.918c1.338-3.901,6.175-5.242,9.331-2.587l8.831,7.431
		c1.033,0.869,2.334,1.356,3.684,1.378l11.54,0.187c4.123,0.067,6.894,4.253,5.344,8.075l-4.338,10.695
		c-0.507,1.251-0.568,2.639-0.172,3.929l3.388,11.033c1.211,3.942-1.915,7.871-6.028,7.577l-11.513-0.821
		C52.764,105.281,51.426,105.652,50.321,106.428z"/>
</g>
<g>
</g>
<g>
</g>
<g>
</g>
<g>
</g>
<g>
</g>
<g>
</g>
<g>
</g>
<g>
</g>
<g>
</g>
<g>
</g>
<g>
</g>
<g>
</g>
<g>
</g>
<g>
</g>
<g>
</g>
</svg>
