<?xml version="1.0" encoding="iso-8859-1"?>
<!-- Generator: Adobe Illustrator 19.0.0, SVG Export Plug-In . SVG Version: 6.00 Build 0)  -->
<svg version="1.1" id="Capa_1" xmlns="http://www.w3.org/2000/svg" xmlns:xlink="http://www.w3.org/1999/xlink" x="0px" y="0px"
	 viewBox="0 0 512 512" style="enable-background:new 0 0 512 512;" xml:space="preserve">
<path style="fill:#498A68;" d="M181.448,420.84c-6.723,0-12.654-4.861-13.784-11.711c-1.259-7.622,3.9-14.821,11.522-16.079
	c8.366-1.381,17.876-9.189,21.001-11.755c0.454-0.373,0.833-0.682,1.127-0.917c6.048-4.805,14.848-3.8,19.654,2.25
	c4.806,6.048,3.799,14.848-2.25,19.654c-0.204,0.162-0.465,0.377-0.78,0.636c-7.912,6.496-20.065,15.402-34.196,17.734
	C182.972,420.778,182.205,420.84,181.448,420.84z"/>
<path style="fill:#495059;" d="M176.855,411.005c-1.628,0-3.247-0.529-4.589-1.567c-20.751-16.05-46.913-53.519-66.652-95.458
	c-17.117-36.368-37.521-92.451-37.521-153.099c0-4.142,3.358-7.5,7.5-7.5s7.5,3.358,7.5,7.5c0,45.156,12.818,97.26,36.093,146.711
	c14.176,30.119,31.552,57.604,47.394,75.61c-1.309-8.869-2.952-19.514-4.784-31.391c-9.551-61.892-23.984-155.424-23.984-209.8
	c0-4.142,3.358-7.5,7.5-7.5s7.5,3.358,7.5,7.5c0,53.225,14.328,146.073,23.809,207.512c3.74,24.236,6.694,43.379,7.696,53.222
	c0.304,2.983-1.199,5.86-3.82,7.316C179.357,410.694,178.104,411.005,176.855,411.005z"/>
<path style="fill:#A3E3FF;" d="M203.263,57.953c0,32.006-25.946,84.059-57.953,84.059c-32.006,0-57.952-52.053-57.952-84.059
	S113.304,0,145.311,0C177.317,0,203.263,25.946,203.263,57.953z"/>
<path style="opacity:0.1;enable-background:new    ;" d="M139.613,0.282c-29.331,2.863-52.255,27.587-52.255,57.671
	c0,32.006,25.946,84.059,57.952,84.059c11.898,0,22.957-7.196,32.158-17.878C120.665,130.445,119.084,30.865,139.613,0.282z"/>
<path style="fill:#5CB38E;" d="M302.992,450.232c62.393,0,134.196,0,186.762-33.56c8.995-5.743,3.793-19.613-6.785-18.201
	c-41.627,5.557-76.593-5.039-96.531-22.203L302.992,450.232z"/>
<path style="opacity:0.1;enable-background:new    ;" d="M409.973,390.428c-0.695,19.926-3.754,39.815-16.037,56.353
	c-30.416,3.451-61.713,3.451-90.944,3.451l83.445-73.964C392.828,381.77,400.77,386.592,409.973,390.428z"/>
<g>
	<path style="fill:#498A68;" d="M330.961,512c-8.048,0-15.766-4.535-19.451-12.288c-11.911-25.061-8.729-59.696-3.926-75.641
		c3.428-11.38,15.433-17.826,26.813-14.398c11.38,3.428,17.826,15.433,14.398,26.813c-3.113,10.333-4.042,32.904,1.588,44.751
		c5.102,10.734,0.536,23.572-10.199,28.674C337.203,511.329,334.057,512,330.961,512z"/>
	<path style="fill:#498A68;" d="M253.429,512c-9.298,0-17.874-6.074-20.634-15.447c-8.87-30.123,6.508-69.293,9.903-75.757
		c5.527-10.521,18.536-14.572,29.059-9.046c10.504,5.517,14.558,18.49,9.075,29.002c-3.166,6.428-10.378,31.323-6.749,43.643
		c3.357,11.401-3.164,23.365-14.565,26.722C257.488,511.715,255.441,512,253.429,512z"/>
</g>
<path style="opacity:0.1;enable-background:new    ;" d="M348.795,436.486c3.428-11.38-3.018-23.385-14.398-26.813
	c-11.38-3.428-23.385,3.018-26.813,14.398c-3.73,12.381-6.477,36.03-1.944,57.716c16.439-0.516,30.671-2.346,42.899-5.568
	C345.027,463.823,346.079,445.5,348.795,436.486z"/>
<path style="opacity:0.1;enable-background:new    ;" d="M271.756,411.75c-10.522-5.526-23.532-1.476-29.059,9.046
	c-2.517,4.793-11.614,27.569-12.538,51.305c11.961,4.712,26.28,7.687,43.247,9.02c-1.79-13.012,4.518-34.467,7.425-40.368
	C286.314,430.24,282.259,417.267,271.756,411.75z"/>
<path style="fill:#5CB38E;" d="M201.773,377.658c0,48.021,6.523,82.768,93.911,82.768c87.389,0,93.911-34.747,93.911-82.768
	s-42.046-86.95-93.911-86.95S201.773,329.637,201.773,377.658z"/>
<path style="fill:#9BDFC1;" d="M201.773,377.658c0-0.383,0.01-0.763,0.016-1.145c19.56-5.02,58.359-6.48,85.358,22.213
	c19.675,20.909,22.522,43.472,20.411,61.467c-3.782,0.154-7.736,0.232-11.873,0.232
	C208.295,460.426,201.773,425.679,201.773,377.658z"/>
<path style="opacity:0.05;enable-background:new    ;" d="M313.512,292.28c43.339,7.712,76.083,43.002,76.083,85.378
	c0,44.465-5.603,77.544-75.809,82.201C352.766,420.294,345.227,338.602,313.512,292.28z"/>
<path style="fill:#5CB38E;" d="M209.483,165.484L209.483,165.484c16.036-24.251,43.171-38.838,72.244-38.838h35.738
	c50.81,0,92,41.19,92,91.999v42.298c0,45.601-36.967,82.569-82.569,82.569h-189.45c-34.161,0-61.854-27.693-61.854-61.854V252.87
	c0-34.161,27.693-61.854,61.854-61.854h24.542C181.102,191.017,198.94,181.427,209.483,165.484z"/>
<path style="fill:#495059;" d="M149.688,312.493L149.688,312.493c-11.163,0-20.213-9.05-20.213-20.213V281.4
	c0-5.155,4.179-9.333,9.333-9.333h21.759c5.155,0,9.333,4.179,9.333,9.333v10.88C169.901,303.443,160.851,312.493,149.688,312.493z"
	/>
<g style="opacity:0.1;">
	<circle cx="359.49" cy="281.05" r="6.331"/>
	<circle cx="314.48" cy="290.71" r="6.332"/>
	<circle cx="340.24" cy="312.31" r="6.332"/>
</g>
<g>
	<circle style="fill:#495059;" cx="169.86" cy="223.33" r="6.332"/>
	<circle style="fill:#495059;" cx="129.51" cy="223.33" r="6.331"/>
</g>
<g>
	<ellipse style="fill:#FFA8CB;" cx="341.43" cy="194.46" rx="15.958" ry="8.187"/>
	<ellipse style="fill:#FFA8CB;" cx="234.29" cy="194.46" rx="15.958" ry="8.187"/>
</g>
<g>
	<path style="fill:#495059;" d="M321.187,185.729c-4.142,0-7.5-3.358-7.5-7.5v-7.952c0-4.142,3.358-7.5,7.5-7.5s7.5,3.358,7.5,7.5
		v7.952C328.687,182.371,325.329,185.729,321.187,185.729z"/>
	<path style="fill:#495059;" d="M254.54,185.729c-4.142,0-7.5-3.358-7.5-7.5v-7.952c0-4.142,3.358-7.5,7.5-7.5s7.5,3.358,7.5,7.5
		v7.952C262.04,182.371,258.682,185.729,254.54,185.729z"/>
</g>
<path style="opacity:0.05;enable-background:new    ;" d="M337.904,128.929c40.973,9.295,71.561,45.932,71.561,89.717v42.298
	c0,45.601-36.967,82.569-82.569,82.569h-50.103C349.761,301.057,362.129,184.355,337.904,128.929z"/>
<path style="fill:#498A68;" d="M286.174,426.367c-2.223,0-4.478-0.531-6.576-1.651c-6.815-3.638-9.39-12.113-5.751-18.928
	c7.27-13.617,18.259-22.318,21.871-25.177l0.296-0.234c6.049-4.805,14.848-3.799,19.653,2.25c4.806,6.048,3.799,14.848-2.25,19.653
	l-0.333,0.264c-2.744,2.172-10.032,7.943-14.559,16.421C296.007,423.682,291.172,426.367,286.174,426.367z"/>
<path style="fill:#CD5B5B;" d="M357.515,142.744L357.515,142.744c-37.88,5.558-76.368,5.558-114.248,0l0,0
	c-4.528-0.664-7.016-5.63-4.837-9.655l59.423-109.751c1.091-2.016,3.984-2.016,5.076,0l59.423,109.751
	C364.531,137.114,362.044,142.08,357.515,142.744z"/>
<path style="fill:#FAE17C;" d="M321.69,57.989c-21.078,18.769-44.465,32.444-65.211,41.767l-18.048,33.334
	c-1.23,2.271-0.972,4.842,0.299,6.77c26.972-8.536,64.577-25.777,98.123-53.868L321.69,57.989z"/>
<path style="fill:#CD5B5B;" d="M133.545,76.822c0,32.006-25.946,84.059-57.952,84.059S17.64,108.828,17.64,76.822
	s25.946-57.953,57.953-57.953C107.598,18.869,133.545,44.816,133.545,76.822z"/>
<path style="opacity:0.1;enable-background:new    ;" d="M69.895,19.151C40.563,22.014,17.64,46.739,17.64,76.822
	c0,32.006,25.946,84.059,57.953,84.059c11.898,0,22.957-7.196,32.158-17.878C50.947,149.314,49.366,49.734,69.895,19.151z"/>
<g>
</g>
<g>
</g>
<g>
</g>
<g>
</g>
<g>
</g>
<g>
</g>
<g>
</g>
<g>
</g>
<g>
</g>
<g>
</g>
<g>
</g>
<g>
</g>
<g>
</g>
<g>
</g>
<g>
</g>
</svg>
