<?xml version="1.0" encoding="iso-8859-1"?>
<!-- Generator: Adobe Illustrator 19.0.0, SVG Export Plug-In . SVG Version: 6.00 Build 0)  -->
<svg version="1.1" id="Capa_1" xmlns="http://www.w3.org/2000/svg" xmlns:xlink="http://www.w3.org/1999/xlink" x="0px" y="0px"
	 viewBox="0 0 512 512" style="enable-background:new 0 0 512 512;" xml:space="preserve">
<path style="fill:#5CB38E;" d="M175.14,342.511c0,48.791,6.627,84.095,95.417,84.095s95.417-35.304,95.417-84.095
	s-42.72-88.344-95.417-88.344C217.86,254.167,175.14,293.72,175.14,342.511z"/>
<path style="fill:#9BDFC1;" d="M175.14,342.511c0-0.389,0.01-0.775,0.016-1.163c19.874-5.1,59.294-6.583,86.726,22.57
	c19.99,21.244,22.883,44.169,20.739,62.453c-3.843,0.156-7.86,0.236-12.064,0.236C181.767,426.606,175.14,391.301,175.14,342.511z"
	/>
<path style="opacity:0.05;enable-background:new    ;" d="M288.671,255.764c44.034,7.836,77.303,43.691,77.303,86.747
	c0,45.178-5.693,78.788-77.024,83.518C328.555,385.83,320.895,302.829,288.671,255.764z"/>
<path style="fill:#5CB38E;" d="M182.974,126.935L182.974,126.935c16.294-24.64,43.863-39.461,73.402-39.461h36.312
	c51.625,0,93.474,41.85,93.474,93.475v42.976c0,46.332-37.56,83.892-83.892,83.892H109.782c-34.709,0-62.846-28.137-62.846-62.846
	v-29.249c0-34.709,28.137-62.846,62.846-62.846h24.936C154.138,152.877,172.262,143.134,182.974,126.935z"/>
<g style="opacity:0.1;">
	<circle cx="335.39" cy="244.35" r="6.433"/>
	<circle cx="289.65" cy="254.17" r="6.433"/>
	<circle cx="315.82" cy="276.11" r="6.433"/>
</g>
<g>
	<ellipse style="fill:#FFA8CB;" cx="317.25" cy="156.38" rx="16.214" ry="8.318"/>
	<ellipse style="fill:#FFA8CB;" cx="208.39" cy="156.38" rx="16.214" ry="8.318"/>
</g>
<g>
	<path style="fill:#495059;" d="M237.265,146.591c-4.143,0-7.5-3.358-7.5-7.5c0-1.719-1.398-3.117-3.117-3.117
		c-1.719,0-3.117,1.398-3.117,3.117c0,4.142-3.357,7.5-7.5,7.5s-7.5-3.358-7.5-7.5c0-9.99,8.127-18.117,18.117-18.117
		s18.117,8.127,18.117,18.117C244.765,143.233,241.407,146.591,237.265,146.591z"/>
	<path style="fill:#495059;" d="M309.605,146.591c-4.143,0-7.5-3.358-7.5-7.5c0-1.719-1.398-3.117-3.117-3.117
		s-3.117,1.398-3.117,3.117c0,4.142-3.357,7.5-7.5,7.5s-7.5-3.358-7.5-7.5c0-9.99,8.127-18.117,18.117-18.117
		s18.117,8.127,18.117,18.117C317.105,143.233,313.748,146.591,309.605,146.591z"/>
	<path style="fill:#495059;" d="M122.22,268.946c-7.086,0-13.824-3.068-18.486-8.419c-2.722-3.123-2.396-7.86,0.727-10.582
		c3.124-2.721,7.86-2.396,10.582,0.727c1.813,2.08,4.429,3.273,7.178,3.273s5.366-1.193,7.179-3.273
		c2.72-3.123,7.457-3.448,10.582-0.727c3.122,2.721,3.448,7.459,0.727,10.582C136.045,265.877,129.307,268.946,122.22,268.946z"/>
	<circle style="fill:#495059;" cx="142.72" cy="185.7" r="6.433"/>
	<circle style="fill:#495059;" cx="101.72" cy="185.7" r="6.433"/>
</g>
<path style="opacity:0.05;enable-background:new    ;" d="M313.453,89.793c41.629,9.444,72.708,46.669,72.708,91.156v42.976
	c0,46.332-37.56,83.892-83.892,83.892h-50.906C325.501,264.682,338.067,146.108,313.453,89.793z"/>
<path style="fill:#E5E5E5;" d="M199.118,102.381c-30.365-11.182-19.196-37.675-3.451-42.824c3.086-1.009,4.6-4.605,3.159-7.514
	c-7.023-14.173-0.951-33.86,13.692-42.124c16.191-9.138,35.049-3.108,46.332,6.162c2.453,2.015,6.103,1.47,7.928-1.127
	c8.38-11.925,20.891-16.852,36.83-14.298c13.694,2.194,22.153,9.964,24.161,23.7c0.516,3.527,4.211,5.504,7.534,4.217
	c9.059-3.508,19.693-0.125,25.996,6.735c8.738,9.511,6.998,20.908,3.47,26.932c-1.378,2.352-0.966,5.379,1.163,7.082
	c9.208,7.369,12.509,24.878-0.974,38.85L199.118,102.381z"/>
<path style="opacity:0.05;enable-background:new    ;" d="M241.678,51.907c-14.62-6.348-21.43-32.313-9.948-46.476
	c-6.412-0.282-13.008,0.986-19.213,4.488c-14.643,8.264-20.716,27.951-13.692,42.124c1.442,2.91-0.072,6.505-3.159,7.514
	c-15.745,5.15-26.914,31.642,3.451,42.824l67.474,2.356c-27.403-9.456-28.067-34.685-22.518-46.472
	C245.213,55.848,244.129,52.971,241.678,51.907z"/>
<path style="fill:#A3E3FF;" d="M373.828,115.982c-0.089,0-0.178-0.001-0.267-0.004l-191.685-6.694
	c-4.14-0.144-7.378-3.618-7.233-7.757c0.142-4.05,3.47-7.238,7.49-7.238c0.089,0,0.178,0.002,0.267,0.004l191.686,6.694
	c4.14,0.145,7.378,3.618,7.233,7.757C381.177,112.794,377.849,115.982,373.828,115.982z"/>
<g style="opacity:0.1;">
	<path d="M241.94,78.864c-2.541,0-5.02-1.292-6.429-3.626c-2.55-4.227-9.626-7.817-11.721-7.966c-4.14-0.145-7.37-3.617-7.226-7.756
		c0.146-4.14,3.603-7.363,7.766-7.234c7.16,0.25,18.955,6.806,24.024,15.206c2.14,3.546,0.999,8.156-2.547,10.296
		C244.597,78.516,243.26,78.864,241.94,78.864z"/>
	<path d="M270.949,54.486c-0.078,0-0.157-0.001-0.236-0.003c-4.14-0.128-7.393-3.589-7.264-7.729
		c0.198-6.408,11.91-18.141,19.892-19.928c4.048-0.909,8.052,1.639,8.958,5.681c0.904,4.042-1.639,8.052-5.681,8.957
		c-1.567,0.351-6.693,4.66-8.488,7.68C277.2,52.248,274.32,54.486,270.949,54.486z M278.441,47.219c0,0.003,0,0.006,0,0.009
		C278.441,47.225,278.441,47.222,278.441,47.219z"/>
	<path d="M334.483,76.054c-1.552,0-3.117-0.48-4.46-1.475c-1.981-1.469-9.692-3.444-16.343-2.26
		c-4.083,0.727-7.972-1.994-8.697-6.072c-0.725-4.079,1.994-7.972,6.072-8.697c9.581-1.702,21.837,0.483,27.899,4.978
		c3.328,2.466,4.026,7.164,1.559,10.491C339.043,75.004,336.778,76.054,334.483,76.054z"/>
</g>
<g>
	<path style="fill:#A3E3FF;" d="M464.466,376.236c-3.128-2.209-4.744-5.945-4.217-9.738c0.432-3.104,0.659-6.273,0.659-9.496
		c0-38.287-31.038-69.325-69.325-69.325c-5.975,0-11.77,0.765-17.299,2.19c-2.633,0.679-5.422,0.347-7.882-0.812
		c-5.974-2.815-12.645-4.393-19.687-4.393c-17.433,0-32.608,9.639-40.502,23.876c-2.268,4.091-6.725,6.424-11.39,6.074
		c-1.706-0.128-3.43-0.194-5.169-0.194c-19.511,0-37.13,8.067-49.726,21.041c-3.21,3.307-8.176,4.121-12.277,2.017
		c-9.475-4.862-20.215-7.608-31.598-7.608c-15.567,0-29.932,5.136-41.502,13.801c-2.979,2.23-6.952,2.707-10.385,1.271
		c-7.993-3.345-16.765-5.198-25.972-5.198c-34.118,0-62.308,25.353-66.772,58.246c-0.451,3.322-2.525,6.164-5.489,7.732
		c-17.763,9.396-29.908,27.994-30.067,49.45C15.632,486.636,41.728,512,73.196,512h347.256c40.998,0,75.091-32.625,75.677-73.619
		C496.496,412.701,483.896,389.955,464.466,376.236z"/>
	<circle style="fill:#A3E3FF;" cx="447.76" cy="237.92" r="29.394"/>
	<circle style="fill:#A3E3FF;" cx="96.26" cy="99.19" r="19.998"/>
</g>
<g style="opacity:0.1;">
	<path d="M108.17,467.974c-3.641,0-6.836-2.656-7.404-6.366c-3.081-20.134,10.791-39.021,30.925-42.103
		c20.141-3.083,39.021,10.792,42.104,30.924c0.626,4.094-2.184,7.922-6.279,8.548c-4.096,0.63-7.921-2.184-8.549-6.279
		c-1.829-11.958-13.05-20.198-25.006-18.367c-11.958,1.831-20.197,13.048-18.366,25.006c0.626,4.094-2.185,7.922-6.279,8.548
		C108.93,467.945,108.548,467.974,108.17,467.974z"/>
	<path d="M365.785,461.937c-2.259,0-4.492-1.016-5.968-2.95c-12.357-16.191-9.238-39.418,6.953-51.775
		c16.188-12.357,39.417-9.24,51.774,6.953c2.513,3.293,1.881,8-1.412,10.512c-3.294,2.514-8.001,1.88-10.512-1.412
		c-7.341-9.617-21.136-11.468-30.751-4.129c-9.616,7.339-11.469,21.134-4.129,30.751c2.513,3.293,1.881,7.999-1.412,10.512
		C368.971,461.435,367.371,461.937,365.785,461.937z"/>
	<path d="M273.586,407.916c-0.781,0-1.576-0.123-2.358-0.382c-3.933-1.302-6.064-5.545-4.763-9.478
		c2.393-7.224-1.538-15.048-8.763-17.44c-7.225-2.393-15.048,1.539-17.44,8.763c-1.303,3.931-5.543,6.064-9.478,4.761
		c-3.932-1.303-6.063-5.546-4.761-9.478c4.993-15.075,21.318-23.276,36.395-18.285c15.076,4.993,23.279,21.32,18.287,36.396
		C279.662,405.921,276.731,407.916,273.586,407.916z"/>
</g>
<g>
</g>
<g>
</g>
<g>
</g>
<g>
</g>
<g>
</g>
<g>
</g>
<g>
</g>
<g>
</g>
<g>
</g>
<g>
</g>
<g>
</g>
<g>
</g>
<g>
</g>
<g>
</g>
<g>
</g>
</svg>
