<?xml version="1.0" encoding="iso-8859-1"?>
<!-- Generator: Adobe Illustrator 19.0.0, SVG Export Plug-In . SVG Version: 6.00 Build 0)  -->
<svg version="1.1" id="Capa_1" xmlns="http://www.w3.org/2000/svg" xmlns:xlink="http://www.w3.org/1999/xlink" x="0px" y="0px"
	 viewBox="0 0 512 512" style="enable-background:new 0 0 512 512;" xml:space="preserve">
<path style="fill:#498A68;" d="M356.412,400.767c-1.447-0.076-2.906-0.36-4.342-0.871c-7.973-2.838-12.134-11.601-9.297-19.574
	c1.045-2.934-3.167-10.573-6.242-16.151c-0.761-1.379-1.516-2.75-2.241-4.11c-3.983-7.467-1.159-16.748,6.308-20.731
	s16.748-1.157,20.73,6.308c0.66,1.237,1.348,2.482,2.039,3.736c5.886,10.676,13.948,25.297,8.278,41.226
	C369.317,397.137,363.005,401.113,356.412,400.767z"/>
<path style="fill:#5CB38E;" d="M239.812,416.425c-71.407-3.742-153.583-8.049-211.729-49.61c-9.95-7.112-3.164-22.674,8.857-20.423
	c47.307,8.857,87.96-1.173,111.808-19.621L239.812,416.425z"/>
<path style="opacity:0.1;enable-background:new    ;" d="M120.963,341.565c-0.399,22.846,1.908,45.792,14.973,65.456
	c34.603,5.774,70.421,7.651,103.875,9.405l-91.064-89.654C141.104,332.685,131.726,337.726,120.963,341.565z"/>
<g>
	<path style="fill:#498A68;" d="M181.016,475.343c-8.222-0.431-15.979-5.163-19.901-13.063c-5.79-11.661-1.031-25.807,10.629-31.598
		c7.542-3.744,11.506-8.728,12.856-16.16c1.247-6.862-0.264-13.568-0.737-14.988c-4.274-12.298,2.234-25.721,14.532-29.995
		c12.294-4.275,25.735,2.241,30.01,14.539c8.471,24.377,5.958,68.15-35.692,88.831C188.952,474.778,184.93,475.548,181.016,475.343z
		"/>
	<path style="fill:#498A68;" d="M266.576,479.827c-8.222-0.431-15.979-5.163-19.901-13.063c-5.79-11.661-1.031-25.808,10.629-31.598
		c7.541-3.744,11.506-8.727,12.857-16.159c1.247-6.862-0.264-13.567-0.737-14.986c-4.276-12.297,2.231-25.721,14.528-29.997
		c12.3-4.275,25.736,2.239,30.012,14.535c8.475,24.377,5.964,68.151-35.691,88.834C274.512,479.262,270.49,480.032,266.576,479.827z
		"/>
</g>
<path style="opacity:0.1;enable-background:new    ;" d="M246.331,452.071c24.757,1.297,45.561,0.04,62.933-3.886
	c11.031-20.383,10.136-43.99,4.7-59.625c-4.276-12.297-17.712-18.81-30.012-14.535c-12.297,4.275-18.804,17.7-14.528,29.997
	c0.473,1.419,1.984,8.125,0.737,14.986c-1.351,7.431-5.316,12.415-12.857,16.159c-6.896,3.424-11.352,9.777-12.666,16.804
	C245.205,452.003,245.76,452.041,246.331,452.071z"/>
<path style="opacity:0.1;enable-background:new    ;" d="M198.395,369.54c-12.298,4.274-18.806,17.697-14.532,29.995
	c0.473,1.42,1.984,8.126,0.737,14.988c-1.35,7.432-5.314,12.415-12.856,16.16c-1.907,0.947-3.608,2.135-5.13,3.482
	c14.131,7.479,31.786,12.586,53.433,15.51c14.82-21.581,14.33-48.406,8.357-65.595C224.13,371.782,210.689,365.265,198.395,369.54z"
	/>
<path style="fill:#5CB38E;" d="M360.007,339.437c-2.88,54.958-12.429,94.334-112.443,89.092
	c-100.013-5.241-105.394-45.4-102.514-100.358c2.88-54.958,53.335-96.989,112.693-93.878
	C317.102,237.405,362.887,284.479,360.007,339.437z"/>
<path style="fill:#9BDFC1;" d="M360.007,339.437c0.023-0.438,0.034-0.874,0.051-1.311c-22.085-6.918-66.401-10.916-99.021,20.303
	c-23.771,22.749-28.383,48.402-27.047,69.123c4.319,0.403,8.84,0.729,13.574,0.978C347.577,433.771,357.127,394.396,360.007,339.437
	z"/>
<path style="opacity:0.05;enable-background:new    ;" d="M237.246,235.024c-50.062,6.227-89.654,44.65-92.195,93.148
	c-2.667,50.888,1.762,89.083,81.83,98.622C184.643,379.176,198.171,286.136,237.246,235.024z"/>
<path style="fill:#5CB38E;" d="M363.909,96.15L363.909,96.15c-16.899-28.716-47.078-47.038-80.351-48.782l-40.901-2.144
	c-58.15-3.048-107.76,41.622-110.808,99.772l-2.537,48.409c-2.735,52.189,37.355,96.714,89.544,99.449l216.818,11.363
	c39.096,2.049,72.451-27.984,74.5-67.08l1.727-32.946c2.049-39.096-27.984-72.451-67.08-74.5l-28.088-1.472
	C394.858,127.074,375.018,115.029,363.909,96.15z"/>
<path style="fill:#495059;" d="M447.826,246.06c0.668-12.752-9.239-21.503-21.991-22.172c-12.752-0.668-23.52,6.999-24.188,19.751
	c-0.668,12.752,3.986,28.512,21.611,29.436C440.882,273.999,447.158,258.812,447.826,246.06z"/>
<g style="opacity:0.1;">
	<circle cx="185.299" cy="219.411" r="7.256"/>
	<circle cx="236.239" cy="233.171" r="7.256"/>
	<circle cx="205.459" cy="256.341" r="7.256"/>
</g>
<g>
	
		<ellipse transform="matrix(0.0523 -0.9986 0.9986 0.0523 70.2543 315.7887)" style="fill:#FFA8CB;" cx="201.507" cy="120.879" rx="9.383" ry="18.288"/>
	
		<ellipse transform="matrix(-0.0523 0.9986 -0.9986 -0.0523 468.2263 -189.6917)" style="fill:#FFA8CB;" cx="324.122" cy="127.327" rx="9.383" ry="18.288"/>
</g>
<g>
	<circle style="fill:#495059;" cx="405.779" cy="164.721" r="7.256"/>
	<circle style="fill:#495059;" cx="451.959" cy="167.141" r="7.256"/>
</g>
<path style="opacity:0.05;enable-background:new    ;" d="M219.128,46.611c-47.449,8.18-84.654,48.276-87.28,98.386l-2.537,48.409
	c-2.735,52.189,37.355,96.714,89.544,99.449l57.341,3.005C195.234,242.895,188.079,108.591,219.128,46.611z"/>
<g>
	<path style="fill:#CD5B5B;" d="M316.687,42.799c-9.53-7.311-23.312-6.84-32.335,1.885c-9.668,9.348-9.776,24.858-0.777,34.853
		l24.639,27.365c4.504,5.002,12.21,5.406,17.212,0.902l27.365-24.639c9.994-8.999,11.509-24.435,2.871-34.743
		c-8.062-9.62-21.719-11.529-31.961-5.254C321.512,44.508,318.724,44.362,316.687,42.799z"/>
	<path style="fill:#CD5B5B;" d="M217.743,37.614c10.242-6.275,23.899-4.366,31.961,5.254c8.638,10.308,7.124,25.744-2.871,34.743
		l-27.365,24.639c-5.002,4.504-12.708,4.1-17.212-0.902l-24.639-27.365c-8.999-9.994-8.892-25.504,0.776-34.853
		c9.023-8.725,22.805-9.196,32.335-1.885C212.765,38.809,215.553,38.955,217.743,37.614z"/>
</g>
<path style="fill:#498A68;" d="M234.772,399.667c-3.702-0.194-7.344-1.724-10.143-4.581c-5.921-6.046-5.818-15.748,0.227-21.668
	c3.779-3.7,2.975-11.441,1.632-20.43l-0.279-1.882c-1.213-8.375,4.593-16.148,12.969-17.361c8.372-1.212,16.147,4.592,17.361,12.967
	l0.258,1.747c1.667,11.15,4.768,31.905-10.499,46.855C243.109,398.436,238.903,399.884,234.772,399.667z"/>
<g>
	<path style="fill:#CD5B5B;" d="M38.509,234.917c-12.966-4.858-28.005,0.295-35.021,12.949
		c-7.518,13.559-2.422,30.697,10.861,38.693l36.369,21.891c6.648,4.002,15.282,1.856,19.283-4.792l21.891-36.369
		c7.995-13.283,4.476-30.813-8.514-39.276c-12.124-7.898-27.825-5.411-37.009,4.951C44.405,235.179,41.281,235.955,38.509,234.917z"
		/>
	<path style="fill:#CD5B5B;" d="M467.312,337.159c-8.625-8.813-22.702-10.334-33.138-2.775
		c-11.183,8.099-13.542,23.848-5.846,35.312l21.074,31.388c3.852,5.738,11.626,7.266,17.364,3.414l31.388-21.074
		c11.464-7.697,15.243-23.166,7.958-34.896c-6.798-10.947-20.403-14.869-31.723-9.977
		C471.969,339.597,469.156,339.044,467.312,337.159z"/>
</g>
<g>
</g>
<g>
</g>
<g>
</g>
<g>
</g>
<g>
</g>
<g>
</g>
<g>
</g>
<g>
</g>
<g>
</g>
<g>
</g>
<g>
</g>
<g>
</g>
<g>
</g>
<g>
</g>
<g>
</g>
</svg>
