<?xml version="1.0" encoding="iso-8859-1"?>
<!-- Generator: Adobe Illustrator 19.0.0, SVG Export Plug-In . SVG Version: 6.00 Build 0)  -->
<svg version="1.1" id="Capa_1" xmlns="http://www.w3.org/2000/svg" xmlns:xlink="http://www.w3.org/1999/xlink" x="0px" y="0px"
	 viewBox="0 0 512.001 512.001" style="enable-background:new 0 0 512.001 512.001;" xml:space="preserve">
<path style="fill:#498A68;" d="M135.992,353.313c-3.077,0-6.186-0.883-8.932-2.726l-0.376-0.252
	c-4.562-3.051-18.444-12.336-28.372-27.791c-4.792-7.46-2.629-17.391,4.831-22.182c7.461-4.792,17.39-2.628,22.182,4.831
	c6.317,9.835,15.681,16.098,19.207,18.456l0.421,0.282c7.361,4.941,9.323,14.914,4.382,22.275
	C146.237,350.82,141.161,353.313,135.992,353.313z"/>
<path style="fill:#5CB38E;" d="M236.09,440.469c74.542,7.437,160.327,15.995,227.128-17.834c11.431-5.789,6.869-22.98-5.937-22.553
	c-50.395,1.678-90.906-15.149-112.681-38.033L236.09,440.469z"/>
<path style="opacity:0.1;enable-background:new    ;" d="M371.03,381.771c-3.206,23.723-9.231,47.12-25.876,65.414
	c-36.75,0.498-74.141-3.232-109.064-6.717l108.509-78.42C351.579,369.384,360.492,376.091,371.03,381.771z"/>
<g>
	<path style="fill:#498A68;" d="M252.261,512.001c-9.886,0.001-19.218-5.977-23.02-15.745c-15.472-39.745,8.03-84.46,31.69-99.021
		c11.615-7.149,26.827-3.528,33.977,8.089c7.147,11.615,3.528,26.824-8.084,33.974c-5.51,3.524-17.546,23.649-11.555,39.041
		c4.949,12.71-1.345,27.025-14.055,31.973C258.271,511.458,255.24,512.001,252.261,512.001z"/>
	<path style="fill:#498A68;" d="M137.62,470.517c-3.256,0.001-6.565-0.648-9.745-2.015c-12.53-5.389-18.319-19.915-12.93-32.445
		c15.664-36.421,44.931-56.388,82.321-56.111c13.64,0.087,24.626,11.214,24.539,24.853c-0.086,13.586-11.127,24.54-24.693,24.54
		c-0.197,0.001-0.391-0.002-0.589-0.002c-11.699,0-26.264,3.123-36.203,26.235C156.298,464.921,147.19,470.517,137.62,470.517z"/>
</g>
<path style="opacity:0.1;enable-background:new    ;" d="M260.931,397.235c-18.091,11.134-36.068,39.899-36.622,70.59
	c18.795,4.512,35.254,6.889,49.965,7.209c-3.33-14.832,7.427-32.46,12.55-35.736c11.613-7.15,15.232-22.36,8.084-33.974
	C287.759,393.707,272.546,390.086,260.931,397.235z"/>
<path style="opacity:0.1;enable-background:new    ;" d="M221.804,404.799c0.087-13.639-10.899-24.766-24.539-24.853
	c-30.626-0.227-55.796,13.137-72.511,37.992c9.563,11.302,22.699,21.02,39.787,29.402c9.566-15.648,21.848-18.002,31.981-18.002
	c0.198,0,0.391,0.002,0.589,0.002C210.677,429.339,221.718,418.385,221.804,404.799z"/>
<path style="fill:#5CB38E;" d="M137.52,316.262c-14.923,55.691-18.156,98.016,83.192,125.172s119.71-11.115,134.633-66.806
	s-21.742-113.904-81.893-130.022C213.302,228.49,152.443,260.571,137.52,316.262z"/>
<path style="fill:#9BDFC1;" d="M137.52,316.262c0.119-0.444,0.249-0.882,0.374-1.323c24.245,0.257,69.694,10.62,92.09,52.286
	c16.32,30.363,12.61,57.415,4.571,77.629c-4.434-0.997-9.044-2.135-13.842-3.421C119.365,414.278,122.598,371.954,137.52,316.262z"
	/>
<path style="opacity:0.05;enable-background:new    ;" d="M293.64,251.97c47.865,22.412,74.874,73.514,61.705,122.659
	c-13.817,51.568-30.595,88.19-113.462,71.773C299.384,412.63,316.027,315.547,293.64,251.97z"/>
<path style="fill:#5CB38E;" d="M212.395,72.593L212.395,72.593c26.134-23.142,62.135-31.627,95.853-22.592l41.447,11.106
	c58.926,15.789,93.896,76.358,78.106,135.284l-13.144,49.055c-14.171,52.886-68.53,84.27-121.416,70.1L73.529,256.673
	c-39.618-10.616-63.129-51.338-52.513-90.956l8.946-33.386C40.577,92.714,81.3,69.203,120.917,79.819l28.463,7.627
	C171.546,93.384,195.214,87.806,212.395,72.593z"/>
<g style="opacity:0.1;">
	<circle cx="350.45" cy="253.231" r="7.602"/>
	<circle cx="295.25" cy="250.451" r="7.602"/>
	<circle cx="318.41" cy="283.501" r="7.602"/>
</g>
<g>
	
		<ellipse transform="matrix(-0.2588 0.9659 -0.9659 -0.2588 605.7133 -165.1269)" style="fill:#FFA8CB;" cx="366.211" cy="149.829" rx="9.83" ry="19.159"/>
	
		<ellipse transform="matrix(0.2588 -0.9659 0.9659 0.2588 66.7662 320.0543)" style="fill:#FFA8CB;" cx="241.932" cy="116.522" rx="9.83" ry="19.159"/>
</g>
<g>
	<circle style="fill:#495059;" cx="148.47" cy="127.361" r="7.602"/>
	<circle style="fill:#495059;" cx="101.68" cy="114.821" r="7.602"/>
</g>
<path style="opacity:0.05;enable-background:new    ;" d="M372.689,70.105c44.629,23.512,68.719,75.507,55.112,126.286
	l-13.144,49.055c-14.171,52.885-68.53,84.27-121.416,70.1l-58.106-15.569C332.952,273.413,383.561,141.912,372.689,70.105z"/>
<path style="fill:#498A68;" d="M267.691,384.625c-8.142,0-15.119-6.171-15.953-14.445c-0.888-8.821,5.542-16.693,14.363-17.581
	l0.509-0.051c4.224-0.418,15.444-1.528,25.65-7.228c7.739-4.323,17.519-1.552,21.842,6.189c4.322,7.741,1.551,17.519-6.19,21.842
	c-16.044,8.959-32.675,10.606-38.14,11.147l-0.455,0.045C268.773,384.598,268.229,384.625,267.691,384.625z"/>
<g>
	<path style="fill:#495059;" d="M366.001,135.252c-0.644,0-1.296-0.083-1.946-0.258c-4.001-1.072-6.375-5.185-5.303-9.186
		c0.45-1.681,0.219-3.436-0.651-4.943s-2.274-2.586-3.956-3.036c-3.47-0.929-7.049,1.137-7.979,4.607
		c-1.072,4.002-5.19,6.372-9.185,5.303c-4.001-1.072-6.375-5.185-5.303-9.186c3.072-11.46,14.893-18.282,26.35-15.214
		c5.551,1.488,10.19,5.048,13.064,10.024c2.873,4.978,3.637,10.776,2.148,16.327C372.343,133.042,369.312,135.252,366.001,135.252z"
		/>
	<path style="fill:#495059;" d="M280.232,112.271c-0.643,0-1.296-0.084-1.945-0.257c-4.001-1.072-6.376-5.185-5.304-9.186
		c0.93-3.47-1.137-7.05-4.606-7.979c-3.47-0.929-7.051,1.137-7.981,4.607c-1.073,4.001-5.185,6.372-9.186,5.303
		c-4.001-1.072-6.375-5.185-5.303-9.186c3.071-11.458,14.887-18.284,26.352-15.213c11.458,3.07,18.283,14.891,15.213,26.351
		C286.574,110.061,283.544,112.271,280.232,112.271z"/>
	<path style="fill:#495059;" d="M94.766,234.206L94.766,234.206c19.312,5.175,39.162-6.286,44.337-25.598l5.043-18.821
		c2.389-8.917-2.903-18.083-11.82-20.473l-37.643-10.086c-8.917-2.389-18.083,2.902-20.473,11.82l-5.043,18.822
		C63.993,209.181,75.454,229.031,94.766,234.206z"/>
</g>
<g>
	<path style="fill:#A3E3FF;" d="M438.282,158.275c-22.035-10.509-21.297-22.589-35.156-27.172c-6.4-2.116-8.734-9.96-4.457-15.17
		c19.231-23.425,43.729-39.499,72.518-26.411c19.027,8.651,27.513,30.992,19.099,50.066
		C481.554,159.38,457.807,167.587,438.282,158.275z"/>
	<path style="fill:#A3E3FF;" d="M172.361,74.396c23.064,8,31.026-1.116,44.109,5.359c6.041,2.99,13.213-0.953,13.829-7.665
		c2.769-30.181-3.373-58.831-33.057-69.74c-19.618-7.21-41.353,2.729-48.764,22.215C140.788,44.784,151.924,67.307,172.361,74.396z"
		/>
</g>
<g>
</g>
<g>
</g>
<g>
</g>
<g>
</g>
<g>
</g>
<g>
</g>
<g>
</g>
<g>
</g>
<g>
</g>
<g>
</g>
<g>
</g>
<g>
</g>
<g>
</g>
<g>
</g>
<g>
</g>
</svg>
