<?xml version="1.0" encoding="iso-8859-1"?>
<!-- Generator: Adobe Illustrator 19.0.0, SVG Export Plug-In . SVG Version: 6.00 Build 0)  -->
<svg version="1.1" id="Capa_1" xmlns="http://www.w3.org/2000/svg" xmlns:xlink="http://www.w3.org/1999/xlink" x="0px" y="0px"
	 viewBox="0 0 512 512" style="enable-background:new 0 0 512 512;" xml:space="preserve">
<path style="fill:#498A68;" d="M347.695,512h-68.877c-13.426,0-24.309-10.883-24.309-24.309s10.883-24.309,24.309-24.309h68.877
	c13.426,0,24.309,10.883,24.309,24.309S361.121,512,347.695,512z"/>
<path style="opacity:0.1;enable-background:new    ;" d="M347.695,463.382h-68.877c-13.426,0-24.309,10.883-24.309,24.309
	S265.392,512,278.818,512h44.23c5.138-3.761,9.706-7.986,13.731-12.696c9.017-10.55,14.455-22.422,17.73-34.935
	C352.345,463.737,350.063,463.382,347.695,463.382z"/>
<path style="fill:#498A68;" d="M349.023,455.232c-4.567,0-9.097-1.97-12.222-5.776c-7.766-9.461-17.863-17.257-20.663-19.026
	c-7.377-4.662-9.578-14.422-4.915-21.798c4.662-7.377,14.42-9.579,21.798-4.915c5.719,3.615,18.435,13.785,28.206,25.688
	c5.537,6.745,4.557,16.702-2.188,22.239C356.1,454.057,352.55,455.232,349.023,455.232z"/>
<path style="fill:#5CB38E;" d="M227.267,507.293c-73.715,1.748-158.548,3.759-221.592-34.418
	c-10.788-6.533-5.03-23.066,7.507-21.693c49.336,5.399,90.351-8.099,113.426-28.937L227.267,507.293z"/>
<path style="opacity:0.1;enable-background:new    ;" d="M99.198,439.633c1.38,23.522,5.551,46.935,20.526,66.13
	c36.032,3.225,73.008,2.349,107.544,1.53l-100.66-85.048C119.211,428.924,109.964,434.842,99.198,439.633z"/>
<path style="fill:#5CB38E;" d="M339.243,413.321c0,56.751-7.709,97.815-110.984,97.815s-110.984-41.064-110.984-97.815
	s49.689-102.757,110.984-102.757C289.554,310.565,339.243,356.57,339.243,413.321z"/>
<path style="fill:#9BDFC1;" d="M339.243,413.321c0-0.452-0.012-0.902-0.019-1.353c-23.116-5.932-68.968-7.658-100.875,26.252
	c-23.251,24.71-26.616,51.375-24.122,72.642c4.47,0.181,9.143,0.274,14.032,0.274C331.535,511.136,339.243,470.072,339.243,413.321z
	"/>
<path style="opacity:0.05;enable-background:new    ;" d="M207.189,312.422c-51.218,9.115-89.915,50.819-89.915,100.899
	c0,52.548,6.622,91.642,89.59,97.144C160.799,463.708,169.709,367.165,207.189,312.422z"/>
<path style="fill:#5CB38E;" d="M332.727,179.322L332.727,179.322c-16.382-30.202-46.824-50.171-81.053-53.165l-42.075-3.681
	c-59.818-5.233-112.553,39.016-117.787,98.835l-4.357,49.797c-4.697,53.686,35.017,101.016,88.703,105.712l223.039,19.513
	c40.218,3.519,75.673-26.232,79.192-66.45l2.965-33.891c3.519-40.218-26.232-75.673-66.45-79.192l-28.893-2.528
	C363.51,212.305,343.496,199.177,332.727,179.322z"/>
<g style="opacity:0.1;">
	<circle cx="144.22" cy="299.93" r="7.483"/>
	<circle cx="196.22" cy="315.93" r="7.483"/>
	<circle cx="163.67" cy="338.71" r="7.483"/>
</g>
<g>
	
		<ellipse transform="matrix(0.0872 -0.9962 0.9962 0.0872 -48.1086 345.4717)" style="fill:#FFA8CB;" cx="164.462" cy="198.988" rx="9.675" ry="18.86"/>
	
		<ellipse transform="matrix(-0.0872 0.9962 -0.9962 -0.0872 525.1449 -61.1919)" style="fill:#FFA8CB;" cx="290.607" cy="209.997" rx="9.675" ry="18.86"/>
</g>
<g>
	<path style="fill:#495059;" d="M186.836,191.3c-0.589,0-1.18-0.025-1.772-0.078c-6.457-0.564-12.342-4.202-15.741-9.729
		c-2.17-3.529-1.068-8.148,2.46-10.317c3.529-2.17,8.148-1.068,10.317,2.46c0.938,1.525,2.494,2.488,4.271,2.644
		c1.777,0.156,3.479-0.523,4.666-1.861c2.749-3.098,7.49-3.382,10.588-0.632c3.098,2.749,3.381,7.49,0.632,10.588
		C198.345,188.783,192.683,191.3,186.836,191.3z"/>
	<path style="fill:#495059;" d="M273.442,198.877c-0.589,0-1.18-0.025-1.772-0.078c-6.458-0.564-12.343-4.202-15.742-9.731
		c-2.169-3.529-1.066-8.148,2.462-10.317c3.529-2.168,8.148-1.066,10.317,2.462c0.936,1.524,2.493,2.487,4.27,2.642
		c1.781,0.156,3.478-0.523,4.666-1.862c2.75-3.098,7.489-3.381,10.588-0.632c3.098,2.749,3.381,7.49,0.632,10.588
		C284.951,196.36,279.288,198.877,273.442,198.877z"/>
	<circle style="fill:#495059;" cx="373.41" cy="251.5" r="7.482"/>
	<circle style="fill:#495059;" cx="389.57" cy="340.36" r="7.483"/>
	<circle style="fill:#495059;" cx="420.92" cy="255.66" r="7.483"/>
</g>
<path style="opacity:0.05;enable-background:new    ;" d="M185.302,123.058c-49.194,6.723-88.98,46.705-93.49,98.253l-4.357,49.798
	c-4.697,53.686,35.017,101.015,88.703,105.712l58.986,5.161C153.613,324.483,151.073,185.815,185.302,123.058z"/>
<path style="fill:#E5E5E5;" d="M320.135,165.756L122.526,155.4c-15.393-0.807-27.217-13.939-26.411-29.332l0,0
	c0.807-15.393,13.939-27.217,29.332-26.41l197.608,10.356c15.393,0.807,27.217,13.939,26.411,29.332l0,0
	C348.66,154.739,335.528,166.563,320.135,165.756z"/>
<path style="opacity:0.05;enable-background:new    ;" d="M178.992,102.464l-53.544-2.806
	c-15.393-0.807-28.525,11.018-29.332,26.411l0,0c-0.807,15.393,11.018,28.525,26.411,29.332l56.266,2.949
	C162.215,144.28,164.974,114.702,178.992,102.464z"/>
<path style="fill:#80B0E3;" d="M323.056,110.014C313.745,28.685,177.798-42.233,65.999,29.899
	c22.065,0.739,69.795,12.766,59.449,69.759L323.056,110.014z"/>
<path style="opacity:0.05;enable-background:new    ;" d="M125.448,99.658l60.702,3.181c-2.033-64.328-87.259-82.231-120.151-72.94
	C88.064,30.638,135.794,42.665,125.448,99.658z"/>
<circle style="fill:#E5E5E5;" cx="63.24" cy="29.02" r="28.998"/>
<path style="opacity:0.05;enable-background:new    ;" d="M50.511,2.959c-9.148,4.478-15.662,13.646-16.233,24.539
	C33.44,43.491,45.725,57.135,61.719,57.974c12.256,0.642,23.125-6.426,27.916-16.96C61.451,51.339,39.257,24.498,50.511,2.959z"/>
<path style="fill:#FAE17C;" d="M199.515,41.718l11.579,9.511c1.354,1.112,2.284,2.658,2.632,4.375l2.975,14.686
	c1.063,5.247,7.063,7.791,11.574,4.907l12.623-8.074c1.476-0.944,3.233-1.351,4.975-1.151l14.887,1.709
	c5.319,0.611,9.592-4.31,8.243-9.491l-3.777-14.501c-0.442-1.696-0.285-3.492,0.443-5.087l3.373-7.383
	c-14.199-9.666-30.531-17.555-48.223-22.985l-3.816,9.737c-0.639,1.632-1.822,2.993-3.348,3.855l-13.048,7.367
	C195.943,31.827,195.377,38.32,199.515,41.718z"/>
<path style="fill:#498A68;" d="M252.714,453.174c-4.54,0-9.046-1.947-12.171-5.715c-7.346-8.858-17.251-13.861-20.98-15.744
	l-0.448-0.227c-7.782-3.948-10.891-13.457-6.943-21.239c3.948-7.782,13.458-10.891,21.24-6.943l0.401,0.202
	c4.825,2.437,19.508,9.854,31.055,23.778c5.571,6.717,4.642,16.678-2.075,22.249C259.843,451.981,256.268,453.174,252.714,453.174z"
	/>
<path style="fill:#E5E5E5;" d="M478.019,246.249l-45.971,8.106c-4.511,0.796-7.754-4.137-5.309-8.011
	c4.536-7.186,8.36-17.212,5.613-32.792c-3.793-21.512,10.725-42.64,32.552-46.488c22.195-3.914,43.344,11.223,46.669,33.665
	C514.779,222.359,499.553,242.452,478.019,246.249z"/>
<path style="fill:#498A68;" d="M276.066,512h-68.877c-13.426,0-24.309-10.883-24.309-24.309s10.883-24.309,24.309-24.309h68.877
	c13.426,0,24.309,10.883,24.309,24.309S289.492,512,276.066,512z"/>
<g>
</g>
<g>
</g>
<g>
</g>
<g>
</g>
<g>
</g>
<g>
</g>
<g>
</g>
<g>
</g>
<g>
</g>
<g>
</g>
<g>
</g>
<g>
</g>
<g>
</g>
<g>
</g>
<g>
</g>
</svg>
