<?xml version="1.0" encoding="iso-8859-1"?>
<!-- Generator: Adobe Illustrator 19.0.0, SVG Export Plug-In . SVG Version: 6.00 Build 0)  -->
<svg version="1.1" id="Capa_1" xmlns="http://www.w3.org/2000/svg" xmlns:xlink="http://www.w3.org/1999/xlink" x="0px" y="0px"
	 viewBox="0 0 512 512" style="enable-background:new 0 0 512 512;" xml:space="preserve">
<path style="fill:#498A68;" d="M298.189,385.832c-2.648,0-5.322-0.78-7.661-2.407c-4.302-2.991-14.883-5.928-19.968-7.339
	c-2.7-0.749-4.483-1.244-5.929-1.809c-6.913-2.702-10.328-10.496-7.626-17.409c2.687-6.877,10.414-10.288,17.297-7.67
	c0.53,0.179,2.144,0.626,3.447,0.988c7.507,2.083,20.071,5.57,28.125,11.171c6.094,4.238,7.599,12.613,3.361,18.706
	C306.623,383.82,302.441,385.832,298.189,385.832z"/>
<path style="fill:#495059;" d="M304.678,392.329c-1.151,0-2.32-0.266-3.415-0.827c-3.686-1.89-5.143-6.41-3.253-10.096
	l134.717-262.808c1.89-3.686,6.41-5.143,10.095-3.253c3.687,1.89,5.143,6.41,3.253,10.096L311.357,388.249
	C310.029,390.84,307.401,392.329,304.678,392.329z"/>
<path style="fill:#FAE17C;" d="M490.916,126.527l-100.477-8.791c-8.545-0.748-14.866-8.281-14.118-16.825l4.199-47.997
	c0.748-8.545,8.28-14.866,16.825-14.118l100.477,8.791c8.545,0.748,14.866,8.28,14.118,16.825l-4.199,47.998
	C506.993,120.953,499.46,127.274,490.916,126.527z"/>
<rect x="410.298" y="43.064" transform="matrix(-0.9962 -0.0872 0.0872 -0.9962 879.3541 203.7808)" style="fill:#A3E3FF;" width="67.661" height="79.241"/>
<path style="fill:#5CB38E;" d="M475.655,110.502c-7.451-4.671-13.863-11.027-18.595-18.757l0,0
	c-10.442-17.06-26.221-29.786-44.488-36.534l-5.597,63.972l67.404,5.897L475.655,110.502z"/>
<circle style="fill:#FFFFFF;" cx="394.56" cy="76.72" r="8.106"/>
<g>
	<path style="fill:#93B5E6;" d="M345.106,135.99c-2.893,0-5.648-1.683-6.878-4.503c-1.656-3.797,0.078-8.217,3.875-9.874
		l14.227-6.206c3.797-1.657,8.218,0.079,9.873,3.876c1.656,3.797-0.078,8.217-3.875,9.874l-14.227,6.206
		C347.125,135.789,346.107,135.99,345.106,135.99z"/>
	<path style="fill:#93B5E6;" d="M334.022,95.571c-3.694,0-6.912-2.73-7.422-6.494c-0.557-4.105,2.32-7.883,6.425-8.439l16.262-2.204
		c4.091-0.555,7.883,2.32,8.438,6.425c0.557,4.105-2.32,7.883-6.425,8.439l-16.262,2.204
		C334.698,95.549,334.358,95.571,334.022,95.571z"/>
	<path style="fill:#93B5E6;" d="M355.356,57.593c-1.135,0-2.286-0.258-3.369-0.804l-13.996-7.052
		c-3.699-1.864-5.187-6.373-3.323-10.072c1.864-3.699,6.375-5.186,10.073-3.323l13.996,7.052c3.699,1.864,5.186,6.373,3.323,10.072
		C360.742,56.083,358.099,57.593,355.356,57.593z"/>
</g>
<path style="fill:#5CB38E;" d="M181.394,417.593c-59.141,0-127.202,0-177.027-31.811c-8.526-5.443-3.595-18.59,6.432-17.252
	c39.457,5.267,72.601-4.776,91.5-21.046L181.394,417.593z"/>
<path style="opacity:0.1;enable-background:new    ;" d="M79.989,360.906c0.659,18.887,3.558,37.74,15.201,53.416
	c28.831,3.271,58.496,3.271,86.204,3.271l-79.096-70.109C96.24,352.699,88.713,357.269,79.989,360.906z"/>
<g>
	<path style="fill:#498A68;" d="M154.918,476.461c-0.533,0-1.068-0.02-1.608-0.062c-11.386-0.876-19.905-10.816-19.029-22.201
		c0.737-9.579-0.049-41.753-1.423-49.056c-3.349-10.223,1.74-21.442,11.855-25.564c10.575-4.308,22.642,0.771,26.948,11.347
		c1.165,2.859,3.113,7.642,3.949,33.993c0.336,10.627,0.449,25.315-0.1,32.452C174.676,468.216,165.617,476.461,154.918,476.461z
		 M133.357,406.502c0.003,0.008,0.006,0.017,0.01,0.025C133.363,406.519,133.36,406.511,133.357,406.502z"/>
	<path style="fill:#498A68;" d="M225.629,476.461c-0.533,0-1.068-0.02-1.608-0.062c-11.386-0.876-19.905-10.816-19.029-22.201
		c0.737-9.579-0.049-41.753-1.423-49.056c-3.349-10.223,1.74-21.442,11.855-25.564c10.576-4.308,22.641,0.771,26.948,11.347
		c1.165,2.859,3.114,7.642,3.949,33.993c0.336,10.627,0.449,25.315-0.1,32.452C245.387,468.216,236.327,476.461,225.629,476.461z
		 M204.068,406.502c0.003,0.008,0.006,0.017,0.01,0.025C204.074,406.519,204.071,406.511,204.068,406.502z"/>
</g>
<path style="opacity:0.1;enable-background:new    ;" d="M246.592,439.322c-0.032-4.95-0.132-10.021-0.27-14.404
	c-0.836-26.351-2.784-31.134-3.949-33.993c-4.308-10.576-16.372-15.655-26.948-11.347c-10.116,4.121-15.204,15.34-11.855,25.564
	c1.116,5.938,1.845,28.314,1.682,41.623C221.371,445.789,235.066,443.338,246.592,439.322z"/>
<path style="opacity:0.1;enable-background:new    ;" d="M171.662,390.925c-4.307-10.576-16.373-15.655-26.948-11.347
	c-10.116,4.121-15.204,15.34-11.855,25.564c0.962,5.116,1.635,22.427,1.699,35.634c11.65,3.49,25.339,5.541,41.313,6.222
	c0.077-7.029-0.046-15.364-0.259-22.08C174.775,398.568,172.827,393.784,171.662,390.925z"/>
<path style="fill:#5CB38E;" d="M277.337,348.801c0,45.518-6.183,78.454-89.017,78.454s-89.016-32.936-89.016-78.454
	s39.854-82.417,89.016-82.417C237.483,266.384,277.337,303.283,277.337,348.801z"/>
<path style="fill:#9BDFC1;" d="M277.337,348.801c0-0.363-0.01-0.723-0.015-1.085c-18.541-4.758-55.317-6.142-80.909,21.055
	c-18.649,19.819-21.348,41.206-19.347,58.264c3.585,0.145,7.333,0.22,11.254,0.22C271.155,427.255,277.337,394.319,277.337,348.801z
	"/>
<path style="opacity:0.05;enable-background:new    ;" d="M171.422,267.874c-41.08,7.31-72.117,40.76-72.117,80.928
	c0,42.147,5.311,73.503,71.857,77.916C134.214,389.215,141.36,311.781,171.422,267.874z"/>
<path style="fill:#5CB38E;" d="M264.756,145.481L264.756,145.481c-16.933-21.742-43.645-33.538-71.121-31.407l-33.774,2.62
	c-48.017,3.725-83.923,45.671-80.198,93.688l3.101,39.973c3.343,43.095,40.989,75.32,84.084,71.977l179.037-13.89
	c32.284-2.505,56.424-30.706,53.919-62.989l-2.111-27.205c-2.505-32.283-30.706-56.424-62.989-53.919l-23.193,1.799
	C293.449,167.529,275.888,159.775,264.756,145.481z"/>
<g style="opacity:0.1;">
	<circle cx="131.47" cy="265.69" r="6"/>
	<circle cx="174.71" cy="271.52" r="6"/>
	<circle cx="151.95" cy="293.82" r="6"/>
</g>
<g>
	
		<ellipse transform="matrix(-0.0773 -0.997 0.997 -0.0773 -22.9482 334.7157)" style="fill:#FFA8CB;" cx="143.41" cy="177.977" rx="7.76" ry="15.13"/>
	
		<ellipse transform="matrix(0.0774 0.997 -0.997 0.0774 395.3473 -86.9731)" style="fill:#FFA8CB;" cx="244.667" cy="170.128" rx="7.76" ry="15.13"/>
</g>
<g>
	<path style="fill:#495059;" d="M161.358,168.642c-3.88,0-7.165-2.988-7.47-6.92l-0.583-7.515c-0.32-4.13,2.768-7.737,6.897-8.058
		c4.139-0.318,7.738,2.768,8.058,6.897l0.583,7.515c0.32,4.13-2.768,7.737-6.897,8.058
		C161.749,168.634,161.553,168.642,161.358,168.642z"/>
	<path style="fill:#495059;" d="M224.343,163.755c-3.879,0-7.164-2.987-7.47-6.919l-0.584-7.515
		c-0.321-4.13,2.767-7.738,6.896-8.059c4.138-0.323,7.737,2.767,8.059,6.896l0.584,7.515c0.321,4.13-2.767,7.738-6.896,8.059
		C224.734,163.748,224.537,163.755,224.343,163.755z"/>
	<path style="fill:#495059;" d="M329.743,273.756c-6.103,0-11.992-2.392-16.387-6.709c-2.955-2.902-2.997-7.651-0.095-10.606
		c2.904-2.956,7.651-2.996,10.607-0.095c1.733,1.703,4.106,2.571,6.522,2.385c2.411-0.187,4.626-1.412,6.075-3.361
		c2.47-3.324,7.169-4.016,10.494-1.544c3.323,2.472,4.015,7.17,1.543,10.494c-4.037,5.43-10.216,8.844-16.952,9.366
		C330.947,273.733,330.344,273.756,329.743,273.756z"/>
	<circle style="fill:#495059;" cx="306.44" cy="197.24" r="6"/>
	<circle style="fill:#495059;" cx="344.57" cy="194.28" r="6"/>
</g>
<path style="opacity:0.05;enable-background:new    ;" d="M140.713,120.35c-38.039,11.788-64.26,48.654-61.05,90.033l3.101,39.973
	c3.343,43.095,40.989,75.32,84.084,71.977l47.349-3.673C142.128,283.887,121.883,174.506,140.713,120.35z"/>
<path style="fill:#498A68;" d="M205.874,380.128c-1.822,0-3.673-0.372-5.446-1.159c-8.29-3.679-17.074-3.743-20.38-3.767
	l-0.407-0.003c-7.421-0.066-13.385-6.137-13.318-13.559c0.066-7.381,6.071-13.32,13.436-13.32c0.04,0,0.081,0,0.122,0.001
	l0.359,0.003c4.376,0.031,17.688,0.127,31.093,6.078c6.784,3.011,9.842,10.952,6.831,17.736
	C215.94,377.149,211.025,380.128,205.874,380.128z"/>
<g>
</g>
<g>
</g>
<g>
</g>
<g>
</g>
<g>
</g>
<g>
</g>
<g>
</g>
<g>
</g>
<g>
</g>
<g>
</g>
<g>
</g>
<g>
</g>
<g>
</g>
<g>
</g>
<g>
</g>
</svg>
