<?xml version="1.0" encoding="iso-8859-1"?>
<!-- Generator: Adobe Illustrator 19.0.0, SVG Export Plug-In . SVG Version: 6.00 Build 0)  -->
<svg version="1.1" id="Capa_1" xmlns="http://www.w3.org/2000/svg" xmlns:xlink="http://www.w3.org/1999/xlink" x="0px" y="0px"
	 viewBox="0 0 512 512" style="enable-background:new 0 0 512 512;" xml:space="preserve">
<path style="fill:#498A68;" d="M359.644,411.228c-14.478,0-27.781-7.764-32.519-10.529l-0.603-0.35
	c-6.616-3.787-8.907-12.22-5.12-18.835c3.787-6.615,12.219-8.907,18.834-5.119l0.802,0.465c10.929,6.378,16.98,7.141,20.138,6.66
	c7.543-1.147,14.576,4.025,15.727,11.559c1.152,7.535-4.024,14.576-11.559,15.728C363.435,411.096,361.529,411.228,359.644,411.228z
	"/>
<path style="fill:#5CB38E;" d="M237.404,449.175c-64.406,0-138.526,0-192.787-34.643c-9.285-5.928-3.915-20.245,7.004-18.788
	c42.97,5.736,79.064-5.202,99.645-22.92L237.404,449.175z"/>
<path style="opacity:0.1;enable-background:new    ;" d="M126.972,387.441c0.718,20.569,3.875,41.1,16.554,58.171
	c31.397,3.563,63.704,3.563,93.878,3.563l-86.137-76.35C144.67,378.504,136.472,383.481,126.972,387.441z"/>
<g>
	<path style="fill:#498A68;" d="M208.571,512c-0.546,0-1.097-0.021-1.65-0.063c-11.692-0.899-20.442-11.106-19.543-22.799
		c0.816-10.611-0.059-46.001-1.581-53.837c-3.494-10.521,1.731-22.093,12.147-26.336c10.859-4.423,23.251,0.793,27.676,11.653
		c5.723,14.05,4.362,68.376,4.1,71.775C228.863,503.532,219.559,512,208.571,512z M186.28,436.615
		c0.003,0.008,0.006,0.016,0.009,0.024C186.287,436.632,186.284,436.623,186.28,436.615z"/>
	<path style="fill:#498A68;" d="M285.576,512c-0.547,0-1.098-0.021-1.653-0.064c-11.692-0.9-20.441-11.107-19.541-22.799
		c0.817-10.609-0.058-45.993-1.581-53.834c-3.495-10.521,1.729-22.093,12.145-26.337c10.856-4.424,23.25,0.789,27.677,11.65
		c5.727,14.054,4.363,68.381,4.102,71.78C305.867,503.533,296.563,512,285.576,512z M263.287,436.619
		c0.002,0.008,0.005,0.016,0.008,0.023C263.294,436.635,263.29,436.626,263.287,436.619z"/>
</g>
<path style="opacity:0.1;enable-background:new    ;" d="M307.05,471.419c-0.053-17.935-0.879-42.096-4.427-50.803
	c-4.427-10.861-16.82-16.074-27.676-11.65c-10.415,4.245-15.64,15.816-12.145,26.337c1.188,6.113,1.981,28.969,1.886,43.772
	C281.114,477.992,295.154,475.466,307.05,471.419z"/>
<path style="opacity:0.1;enable-background:new    ;" d="M197.943,408.965c-10.415,4.243-15.641,15.815-12.147,26.336
	c1.033,5.316,1.767,23.31,1.877,37.649c12.018,3.515,26.065,5.621,42.346,6.399c0.164-17.866-0.297-48.654-4.401-58.73
	C221.194,409.758,208.802,404.541,197.943,408.965z"/>
<path style="fill:#5CB38E;" d="M341.889,374.259c0,49.57-6.733,85.438-96.941,85.438s-96.941-35.868-96.941-85.438
	s43.402-89.754,96.941-89.754S341.889,324.689,341.889,374.259z"/>
<path style="fill:#9BDFC1;" d="M341.889,374.259c0-0.395-0.011-0.788-0.016-1.182c-20.191-5.182-60.241-6.689-88.111,22.93
	c-20.309,21.583-23.248,44.875-21.07,63.45c3.904,0.159,7.986,0.24,12.256,0.24C335.156,459.697,341.889,423.829,341.889,374.259z"
	/>
<path style="opacity:0.05;enable-background:new    ;" d="M226.544,286.127c-44.737,7.961-78.538,44.389-78.538,88.132
	c0,45.899,5.784,80.046,78.254,84.852C186.024,418.27,193.806,333.944,226.544,286.127z"/>
<path style="fill:#5CB38E;" d="M333.93,155.241L333.93,155.241c-16.554-25.033-44.563-40.091-74.575-40.091h-36.892
	c-52.449,0-94.967,42.518-94.967,94.967v43.663c0,47.072,38.16,85.232,85.232,85.232h195.561c35.263,0,63.85-28.586,63.85-63.85
	v-29.716c0-35.263-28.586-63.85-63.85-63.85h-25.334C363.227,181.597,344.813,171.698,333.93,155.241z"/>
<g style="opacity:0.1;">
	<circle cx="179.081" cy="274.53" r="6.536"/>
	<circle cx="225.551" cy="284.5" r="6.536"/>
	<circle cx="198.961" cy="306.8" r="6.536"/>
</g>
<g>
	<ellipse style="fill:#FFA8CB;" cx="192.211" cy="197.89" rx="16.473" ry="8.451"/>
	<ellipse style="fill:#FFA8CB;" cx="302.801" cy="197.89" rx="16.473" ry="8.451"/>
</g>
<g>
	<path style="fill:#495059;" d="M220.069,187.13c-4.143,0-7.5-3.358-7.5-7.5c0-2.1-1.708-3.808-3.808-3.808
		s-3.808,1.708-3.808,3.808c0,4.142-3.357,7.5-7.5,7.5s-7.5-3.358-7.5-7.5c0-10.371,8.438-18.808,18.808-18.808
		s18.808,8.437,18.808,18.808C227.569,183.772,224.212,187.13,220.069,187.13z"/>
	<path style="fill:#495059;" d="M297.551,187.13c-4.143,0-7.5-3.358-7.5-7.5c0-2.1-1.708-3.808-3.808-3.808
		s-3.808,1.708-3.808,3.808c0,4.142-3.358,7.5-7.5,7.5c-4.143,0-7.5-3.358-7.5-7.5c0-10.371,8.438-18.808,18.808-18.808
		s18.808,8.437,18.808,18.808C305.051,183.772,301.693,187.13,297.551,187.13z"/>
	<path style="fill:#495059;" d="M395.653,299.4c-7.164,0-13.978-3.102-18.691-8.513c-2.722-3.123-2.395-7.86,0.727-10.581
		c3.124-2.721,7.86-2.397,10.582,0.727c1.865,2.14,4.556,3.367,7.383,3.367c2.828,0,5.519-1.227,7.384-3.367
		c2.72-3.123,7.457-3.448,10.582-0.727c3.122,2.721,3.448,7.459,0.727,10.581C409.632,296.297,402.818,299.4,395.653,299.4z"/>
	<circle style="fill:#495059;" cx="374.831" cy="214.95" r="6.536"/>
	<circle style="fill:#495059;" cx="416.481" cy="214.95" r="6.536"/>
</g>
<path style="opacity:0.05;enable-background:new    ;" d="M201.366,117.506c-42.294,9.595-73.87,47.414-73.87,92.612v43.663
	c0,47.073,38.16,85.232,85.232,85.232h51.719C189.126,295.188,176.359,174.72,201.366,117.506z"/>
<path style="fill:#498A68;" d="M199.282,409.78c-2.801,0-5.588-0.22-8.311-0.673c-7.519-1.254-12.598-8.365-11.344-15.883
	c1.254-7.519,8.375-12.592,15.883-11.344c6.712,1.12,14.652-1.119,17.855-3.911c5.747-5.011,14.464-4.411,19.473,1.333
	c5.009,5.745,4.413,14.463-1.333,19.473C223.522,405.733,211.298,409.78,199.282,409.78z"/>
<path style="fill:#E5E5E5;" d="M299.871,1.998c-10.601,0.504-19.946,5.125-26.649,12.196c-3.683,3.885-9.757,4.159-13.69,0.527
	C248.462,4.498,233.29-1.203,217.096,0.214c-16.195,1.417-30.147,9.665-39.274,21.656c-3.243,4.26-9.272,5.044-13.574,1.858
	c-7.829-5.8-17.834-8.727-28.361-7.383c-21.137,2.7-36.395,22.199-34.004,43.372c1.461,12.935,9.092,23.749,19.68,29.751
	c4.733,2.683,7.842,7.523,8.316,12.943l1.667,19.052l190.851-16.697l-1.667-19.052c-0.474-5.42,1.747-10.726,5.943-14.191
	c9.385-7.75,15.023-19.725,14.215-32.717C339.567,17.539,321.155,0.986,299.871,1.998z"/>
<g style="opacity:0.1;">
	<path d="M191.287,123.737c-3.847,0-7.121-2.942-7.463-6.847l-2.938-33.587c-0.36-4.126,2.691-7.764,6.818-8.126
		c4.127-0.349,7.764,2.691,8.125,6.818l2.938,33.587c0.36,4.126-2.691,7.764-6.818,8.125
		C191.728,123.727,191.506,123.737,191.287,123.737z"/>
	<path d="M262.642,117.494c-3.847,0-7.121-2.942-7.463-6.847l-2.938-33.587c-0.36-4.127,2.691-7.764,6.818-8.126
		c4.126-0.35,7.765,2.691,8.125,6.818l2.939,33.587c0.36,4.126-2.691,7.764-6.818,8.125
		C263.082,117.484,262.86,117.494,262.642,117.494z"/>
</g>
<path style="fill:#495059;" d="M315.912,142.848L144.548,157.84c-5.381,0.471-10.125-3.51-10.596-8.891l-2.405-27.485
	l190.851-16.697l2.405,27.485C325.274,137.633,321.293,142.377,315.912,142.848z"/>
<path style="opacity:0.05;enable-background:new    ;" d="M123.927,19.91c-14.603,7.071-23.952,22.9-22.044,39.807
	c1.466,12.989,9.155,23.838,19.812,29.826c4.724,2.654,7.723,7.586,8.195,12.985l4.061,46.422c0.471,5.381,5.215,9.362,10.596,8.891
	l37.701-3.299c-13.107-17.142-18.561-59.798-20.398-78.85c-0.511-5.305-3.553-10.028-8.176-12.681
	C138.286,54.178,123.892,33.302,123.927,19.91z"/>
<path style="fill:#FAE17C;" d="M165.346,264.705c-11.899-22.583-43.095-46.172-66.907-33.626s-21.995,51.614-10.096,74.198
	c8.502,16.137,24.656,25.449,40.943,25.365c2.691-0.014,5.151,1.507,6.305,3.938l34.835,73.388
	c4.58,9.649,16.274,13.542,25.724,8.563l0,0c9.45-4.979,12.851-16.825,7.482-26.059l-40.833-70.228
	c-1.353-2.326-1.216-5.216,0.317-7.427C172.395,299.431,173.849,280.843,165.346,264.705z"/>
<path style="fill:#A3E3FF;" d="M402.656,421.622l17.816-1.059c2.859-0.17,5.679-0.824,8.279-2.024
	c13.773-6.357,23.871-19.07,26.763-34.174c1.154-6.026-3.732-11.516-9.857-11.152l-73.618,4.376
	c-6.125,0.364-10.327,6.394-8.467,12.241c4.661,14.655,16.194,26.082,30.623,30.763
	C396.919,421.476,399.797,421.792,402.656,421.622z"/>
<g>
</g>
<g>
</g>
<g>
</g>
<g>
</g>
<g>
</g>
<g>
</g>
<g>
</g>
<g>
</g>
<g>
</g>
<g>
</g>
<g>
</g>
<g>
</g>
<g>
</g>
<g>
</g>
<g>
</g>
</svg>
