<?xml version="1.0" encoding="iso-8859-1"?>
<!-- Generator: Adobe Illustrator 19.0.0, SVG Export Plug-In . SVG Version: 6.00 Build 0)  -->
<svg version="1.1" id="Capa_1" xmlns="http://www.w3.org/2000/svg" xmlns:xlink="http://www.w3.org/1999/xlink" x="0px" y="0px"
	 viewBox="0 0 512 512" style="enable-background:new 0 0 512 512;" xml:space="preserve">
<path style="fill:#498A68;" d="M352.683,367.391c-1.911,0-3.854-0.364-5.731-1.133c-4.294-1.759-8.817-3.587-13.17-5.348
	c-9.725-3.933-18.124-7.33-22.314-9.246c-7.603-3.479-10.949-12.463-7.47-20.067c3.48-7.606,12.466-10.949,20.068-7.47
	c3.573,1.634,12.072,5.072,21.07,8.711c4.391,1.776,8.956,3.622,13.289,5.396c7.739,3.168,11.443,12.01,8.275,19.749
	C364.301,363.842,358.647,367.391,352.683,367.391z"/>
<path style="fill:#5CB38E;" d="M206.634,397.055c-69.765-11.192-150.052-24.073-202.808-71.027
	c-9.028-8.035-0.723-22.61,10.852-19.134c45.549,13.681,86.547,8.105,111.92-7.511L206.634,397.055z"/>
<path style="opacity:0.1;enable-background:new    ;" d="M97.741,310.993c-2.797,22.405-2.945,45.193,7.823,65.888
	c33.391,9.315,68.385,14.93,101.07,20.173l-80.037-97.672C118.464,304.389,108.719,308.355,97.741,310.993z"/>
<g>
	<path style="fill:#498A68;" d="M183.562,460.633c-1.842,0-3.712-0.22-5.581-0.68c-12.493-3.072-20.13-15.69-17.058-28.182
		c4.162-16.923,5.181-41.238-0.428-51.011c-6.404-11.158-2.55-25.394,8.608-31.798c11.159-6.403,25.395-2.55,31.798,8.608
		c17.487,30.469,7.452,76.424,5.262,85.327C203.552,453.519,194.034,460.633,183.562,460.633z"/>
	<path style="fill:#498A68;" d="M290.643,460.394c-0.806,0-1.62-0.042-2.44-0.127c-12.796-1.331-22.089-12.784-20.758-25.579
		c1.804-17.332-0.519-41.557-7.416-50.47c-7.872-10.175-6.005-24.805,4.169-32.677c10.176-7.874,24.805-6.006,32.679,4.169
		c21.499,27.788,17.855,74.682,16.906,83.801C312.537,451.486,302.424,460.394,290.643,460.394z"/>
</g>
<path style="opacity:0.1;enable-background:new    ;" d="M267.376,436.001c18.941-1.662,34.591-6.699,47.229-15.207
	c-0.141-18.677-3.162-46.259-17.727-65.085c-7.873-10.175-22.502-12.043-32.679-4.169c-10.174,7.872-12.041,22.503-4.169,32.677
	c6.897,8.914,9.22,33.138,7.416,50.47C267.4,435.129,267.397,435.563,267.376,436.001z"/>
<path style="opacity:0.1;enable-background:new    ;" d="M208.3,432.599c3.087-17.57,6.348-51.079-7.398-75.03
	c-6.404-11.158-20.639-15.011-31.798-8.608c-11.158,6.404-15.011,20.64-8.608,31.798c4.545,7.919,4.737,25.386,2.433,40.732
	C175.927,426.101,190.994,429.776,208.3,432.599z"/>
<path style="fill:#5CB38E;" d="M332.831,334.063c-8.614,53.695-22.141,91.377-119.855,75.701s-98.774-55.699-90.16-109.394
	s62.611-89.681,120.605-80.377C301.415,229.297,341.445,280.368,332.831,334.063z"/>
<path style="fill:#9BDFC1;" d="M332.831,334.063c0.069-0.428,0.125-0.855,0.188-1.283c-20.971-9.122-64.092-17.714-99.428,9.526
	c-25.75,19.85-32.981,44.569-33.849,65.068c4.202,0.85,8.609,1.647,13.234,2.389C310.691,425.44,324.217,387.757,332.831,334.063z"
	/>
<path style="opacity:0.05;enable-background:new    ;" d="M223.204,218.553c-49.843,0.85-92.786,34.434-100.388,81.818
	c-7.976,49.719-7.645,87.712,70.02,105.512C156.349,354.65,179.433,264.659,223.204,218.553z"/>
<path style="fill:#5CB38E;" d="M362.271,95.437L362.271,95.437c-13.581-29.993-41.304-51.171-73.813-56.386l-39.961-6.411
	c-56.813-9.114-110.258,29.553-119.373,86.367l-7.588,47.296c-8.18,50.989,26.524,98.956,77.513,107.136l211.834,33.984
	c38.197,6.128,74.13-19.87,80.258-58.067l5.164-32.189c6.128-38.197-19.87-74.13-58.067-80.258l-27.442-4.403
	C389.425,129.077,371.199,115.154,362.271,95.437z"/>
<g style="opacity:0.1;">
	<circle cx="173.81" cy="197.746" r="7.17"/>
	<circle cx="222.41" cy="216.626" r="7.17"/>
	<circle cx="189.73" cy="236.146" r="7.17"/>
</g>
<g>
	
		<ellipse transform="matrix(0.1584 -0.9874 0.9874 0.1584 64.1541 307.7853)" style="fill:#FFA8CB;" cx="212.625" cy="116.26" rx="9.271" ry="18.07"/>
	
		<ellipse transform="matrix(-0.1584 0.9874 -0.9874 -0.1584 518.8272 -171.2754)" style="fill:#FFA8CB;" cx="332.408" cy="135.477" rx="9.271" ry="18.07"/>
</g>
<g>
	<path style="fill:#495059;" d="M238.181,109.24c-0.395,0-0.795-0.031-1.197-0.096c-4.09-0.656-6.873-4.503-6.217-8.593l1.426-8.892
		c0.656-4.09,4.504-6.874,8.593-6.217c4.09,0.656,6.874,4.503,6.217,8.593l-1.426,8.892
		C244.986,106.614,241.8,109.24,238.181,109.24z"/>
	<path style="fill:#495059;" d="M312.702,121.195c-0.394,0-0.794-0.031-1.197-0.096c-4.09-0.656-6.873-4.504-6.217-8.594
		l1.427-8.892c0.656-4.089,4.492-6.871,8.594-6.217c4.09,0.656,6.873,4.504,6.217,8.594l-1.427,8.892
		C319.507,118.57,316.321,121.195,312.702,121.195z"/>
	<path style="fill:#495059;" d="M245.37,82.041c-0.968,0-1.952-0.188-2.901-0.587l-10.082-4.235c-3.819-1.604-5.614-6-4.01-9.819
		c1.604-3.818,5.999-5.616,9.819-4.01l10.081,4.235c3.819,1.604,5.614,6.001,4.01,9.819
		C251.082,80.314,248.299,82.041,245.37,82.041z"/>
	<path style="fill:#495059;" d="M317.143,93.555c-3.913,0-7.209-3.036-7.476-6.998c-0.277-4.133,2.848-7.708,6.98-7.986
		l12.063-0.811c4.124-0.286,7.708,2.847,7.986,6.98c0.277,4.133-2.848,7.708-6.98,7.986l-12.064,0.811
		C317.482,93.549,317.311,93.555,317.143,93.555z"/>
	<circle style="fill:#495059;" cx="396.2" cy="167.216" r="7.17"/>
	<circle style="fill:#495059;" cx="441.31" cy="174.456" r="7.17"/>
</g>
<path style="opacity:0.05;enable-background:new    ;" d="M225.234,31.525c-47.481,3.043-88.256,38.523-96.11,87.481l-7.588,47.296
	c-8.18,50.989,26.524,98.956,77.513,107.136l56.023,8.988C181.098,221.865,188.203,89.155,225.234,31.525z"/>
<path style="fill:#F4B9CE;" d="M385.033,251.681c5.72-1.595,13.059-1.957,20.866-0.705c4.607,0.739,8.878,1.965,12.626,3.521
	c-3.484-12.808-12.928-37.272-43.822-44.446c-8.144-1.892-16.281,3.178-18.173,11.323s3.177,16.282,11.324,18.174
	C376.651,241.591,381.761,246.098,385.033,251.681z"/>
<path style="fill:#495059;" d="M427.629,267.234c-1.656,0-3.322-0.546-4.711-1.668c-4.119-3.331-10.926-6.017-18.207-7.185
	c-7.282-1.168-14.585-0.747-19.541,1.129c-3.869,1.465-8.202-0.485-9.669-4.36c-1.466-3.874,0.486-8.203,4.36-9.669
	c7.513-2.843,17.182-3.522,27.226-1.91c10.044,1.611,19.017,5.28,25.263,10.331c3.221,2.604,3.721,7.327,1.116,10.548
	C431.983,266.282,429.815,267.234,427.629,267.234z"/>
<path style="fill:#498A68;" d="M240.076,361.549c-4.468,0-8.893-1.969-11.882-5.744c-9.856-12.45-16.386-17.043-18.736-18.441
	c-7.188-4.273-9.551-13.563-5.279-20.752c4.272-7.188,13.565-9.552,20.752-5.279c5.756,3.422,15.115,10.654,27.006,25.676
	c5.191,6.556,4.083,16.079-2.473,21.269C246.682,360.482,243.367,361.549,240.076,361.549z"/>
<g>
	<path style="fill:#495059;" d="M382.587,337.043c-1.74,0-3.487-0.602-4.906-1.83c-4.09-3.541-9.777-6.551-16.903-8.945
		c-3.927-1.319-6.04-5.572-4.721-9.499c1.319-3.926,5.574-6.038,9.498-4.72c9.113,3.063,16.291,6.93,21.944,11.823
		c3.132,2.711,3.473,7.448,0.761,10.579C386.777,336.165,384.688,337.043,382.587,337.043z"/>
	<path style="fill:#495059;" d="M216.354,383.936c-0.407,0-0.82-0.033-1.235-0.103c-2.503-0.415-16.11-5.201-18.658-10.621
		c-1.762-3.749-0.151-8.216,3.597-9.978c3.036-1.428,6.545-0.642,8.705,1.702c1.83,1.25,7.156,3.811,8.815,4.101
		c4.068,0.711,6.826,4.583,6.132,8.653C223.088,381.346,219.94,383.936,216.354,383.936z"/>
	<circle style="fill:#495059;" cx="452.96" cy="430.355" r="59.04"/>
</g>
<path style="fill:#959BA0;" d="M452.963,452.742c12.366,0,22.391-10.025,22.391-22.391c0-12.367-10.025-22.391-22.391-22.391
	H286.576v44.783h166.387V452.742z"/>
<circle style="fill:#495059;" cx="286.58" cy="430.355" r="59.04"/>
<circle style="fill:#959BA0;" cx="286.58" cy="430.355" r="18.525"/>
<g>
	<path style="fill:#A3E3FF;" d="M87.547,191.113c4.255-19.307-3.83-24.848,0.141-35.983c1.833-5.142-2.015-10.537-7.472-10.398
		c-24.536,0.626-46.998,8.274-52.966,33.179c-3.945,16.46,6.104,33.002,22.476,37.12C66.714,219.306,83.777,208.221,87.547,191.113z
		"/>
	<path style="fill:#A3E3FF;" d="M85.374,84.594c12.254-11.445,9.269-19.204,17.397-25.075c3.753-2.711,3.658-8.332-0.222-10.858
		c-17.445-11.358-36.817-16.812-52.961-2.279c-10.67,9.605-11.6,25.994-2.14,36.743C57.264,94.279,74.515,94.736,85.374,84.594z"/>
	<path style="fill:#A3E3FF;" d="M411.398,75.676c-16.028-7.217-15.688-15.925-25.737-19.005c-4.64-1.422-6.445-7.032-3.448-10.85
		c13.474-17.166,30.855-29.124,51.785-20.158c13.834,5.927,20.295,21.875,14.539,35.739C442.565,75.787,425.6,82.07,411.398,75.676z
		"/>
</g>
<g>
</g>
<g>
</g>
<g>
</g>
<g>
</g>
<g>
</g>
<g>
</g>
<g>
</g>
<g>
</g>
<g>
</g>
<g>
</g>
<g>
</g>
<g>
</g>
<g>
</g>
<g>
</g>
<g>
</g>
</svg>
