<?xml version="1.0" encoding="iso-8859-1"?>
<!-- Generator: Adobe Illustrator 19.0.0, SVG Export Plug-In . SVG Version: 6.00 Build 0)  -->
<svg version="1.1" id="Layer_1" xmlns="http://www.w3.org/2000/svg" xmlns:xlink="http://www.w3.org/1999/xlink" x="0px" y="0px"
	 viewBox="0 0 504.123 504.123" style="enable-background:new 0 0 504.123 504.123;" xml:space="preserve">
<ellipse style="fill:#0CBC64;" cx="141.762" cy="126.362" rx="37.746" ry="33.808"/>
<path style="fill:#089B78;" d="M179.508,126.362c0,18.676-16.896,33.808-37.738,33.808c-20.85,0-37.754-15.132-37.754-33.808"/>
<ellipse style="fill:#0CBC64;" cx="378.093" cy="126.362" rx="37.746" ry="33.808"/>
<path style="fill:#089B78;" d="M415.816,126.362c0,18.676-16.896,33.808-37.738,33.808c-20.85,0-37.754-15.132-37.754-33.808"/>
<g>
	<path style="fill:#232728;" d="M236.073,361.913c0,19.503-15.817,124.668-35.336,124.668c-19.495,0-35.304-105.173-35.304-124.668
		c0-19.495,15.817-35.32,35.304-35.32C220.256,326.593,236.073,342.418,236.073,361.913z"/>
	<path style="fill:#232728;" d="M354.423,361.913c0,19.503-15.817,124.668-35.336,124.668c-19.495,0-35.304-105.173-35.304-124.668
		c0-19.495,15.817-35.32,35.304-35.32C338.606,326.593,354.423,342.418,354.423,361.913z"/>
</g>
<g>
	<path style="fill:#0CBC64;" d="M359.559,315.242c0,126.33-44.599,84.259-99.643,84.259c-55.028,0-99.643,42.071-99.643-84.259
		c0-72.231,44.631-130.788,99.643-130.788C314.944,184.462,359.559,243.019,359.559,315.242z"/>
	<path style="fill:#0CBC64;" d="M294.267,214.315c11.28-10.027,33.312-3.663,49.231,14.218
		c15.896,17.881,85.016,114.018,73.767,124.062c-11.288,10.012-98.721-69.892-114.609-87.773
		C286.761,246.965,283.011,224.343,294.267,214.315z"/>
</g>
<path style="fill:#778785;" d="M300.655,347.498c-2.174,0-3.938-1.764-3.938-3.938s1.764-3.938,3.938-3.938
	c12.304,0,22.315-10.012,22.315-22.315v-96.264c0-2.174,1.764-3.938,3.938-3.938s3.938,1.764,3.938,3.938v96.264
	C330.848,333.95,317.299,347.498,300.655,347.498z"/>
<path style="fill:#089B78;" d="M259.916,348.31c-49.554,0-90.64,34.036-98.336-51.389c-0.843,5.104-1.308,11.138-1.308,18.33
	c0,126.33,44.615,84.259,99.643,84.259c55.044,0,99.643,42.071,99.643-84.259c0-7.192-0.465-13.225-1.308-18.33
	C350.564,382.346,309.485,348.31,259.916,348.31z"/>
<path style="fill:#EFA30C;" d="M240.484,487.219c0,14.935-17.802,16.904-39.739,16.904s-39.739-1.961-39.739-16.904
	c0-14.943,17.802-35.509,39.739-35.509S240.484,472.277,240.484,487.219z"/>
<path style="fill:#D68A05;" d="M240.484,487.219c0,14.935-17.802,16.904-39.739,16.904s-39.739-1.961-39.739-16.904"/>
<path style="fill:#EFA30C;" d="M358.842,487.219c0,14.935-17.802,16.904-39.739,16.904c-21.937,0-39.739-1.961-39.739-16.904
	c0-14.943,17.802-35.509,39.739-35.509C341.04,451.71,358.842,472.277,358.842,487.219z"/>
<path style="fill:#D68A05;" d="M358.842,487.219c0,14.935-17.802,16.904-39.739,16.904c-21.937,0-39.739-1.961-39.739-16.904"/>
<path style="fill:#0CBC64;" d="M270.384,231.219c-0.898-15.061-20.976-26.136-44.859-24.757
	c-23.883,1.402-140.737,20.512-139.894,35.564c0.906,15.069,119.233,20.385,143.108,18.983
	C252.598,259.616,271.251,246.28,270.384,231.219z"/>
<circle style="fill:#A56B44;" cx="259.916" cy="211.361" r="26.585"/>
<path style="fill:#D8A17C;" d="M388.869,124.258c0,63.008-57.738,94.681-128.937,94.681c-71.215,0-128.969-31.673-128.969-94.681
	C130.963,61.235,188.716,0,259.932,0C331.131,0,388.869,61.235,388.869,124.258z"/>
<path style="fill:#C48960;" d="M388.869,124.258c0,63.008-57.738,94.681-128.937,94.681c-71.215,0-128.969-31.673-128.969-94.681
	c0-63.023,57.754-111.789,128.969-111.789C331.131,12.469,388.869,61.235,388.869,124.258z"/>
<path style="fill:#BC8158;" d="M388.869,124.258c0,63.008-57.738,94.681-128.937,94.681c-71.215,0-128.969-31.673-128.969-94.681"/>
<circle style="fill:#113E49;" cx="198.602" cy="95.074" r="11.532"/>
<path d="M210.134,95.074c0,6.388-5.167,11.54-11.54,11.54c-6.372,0-11.524-5.152-11.524-11.54"/>
<path style="fill:#E5A376;" d="M221.351,119.131c-0.614,0-1.245-0.221-1.725-0.717c-5.632-5.624-13.107-8.72-21.047-8.72h-0.016
	c-7.94,0-15.399,3.104-21,8.712c-0.953,0.953-2.489,0.977-3.434,0.008c-0.953-0.922-0.985-2.458-0.032-3.419
	c6.538-6.546,15.218-10.161,24.458-10.161h0.016c9.263,0,17.952,3.592,24.505,10.145c0.937,0.937,0.937,2.505,0,3.434
	C222.611,118.91,221.996,119.131,221.351,119.131z"/>
<circle style="fill:#113E49;" cx="321.222" cy="95.074" r="11.532"/>
<path d="M309.714,95.074c0,6.388,5.151,11.54,11.54,11.54c6.372,0,11.524-5.152,11.524-11.54"/>
<path style="fill:#E5A376;" d="M298.505,119.131c0.599,0,1.229-0.221,1.709-0.717c5.632-5.624,13.107-8.72,21.047-8.72h0.016
	c7.94,0,15.415,3.104,21.016,8.712c0.937,0.953,2.473,0.977,3.434,0.008c0.953-0.922,0.969-2.458,0.016-3.419
	c-6.506-6.546-15.218-10.161-24.458-10.161h-0.016c-9.247,0-17.936,3.592-24.505,10.145c-0.922,0.937-0.922,2.505,0,3.434
	C297.237,118.91,297.851,119.131,298.505,119.131z"/>
<ellipse style="fill:#AA1111;" cx="259.916" cy="124.558" rx="6.231" ry="15.423"/>
<path style="fill:#870E0E;" d="M253.685,124.558c0-8.523,2.788-15.431,6.231-15.431c3.442,0,6.231,6.908,6.231,15.431"/>
<path style="fill:#8DA3A1;" d="M329.335,221.208H190.505c-35.564,0-64.496-28.932-64.496-64.496c0-2.174,1.764-3.938,3.938-3.938
	c2.182,0,3.938,1.764,3.938,3.938c0,31.216,25.403,56.619,56.619,56.619h138.831c31.216,0,56.619-25.403,56.619-56.619
	c0-2.174,1.764-3.938,3.938-3.938c2.182,0,3.938,1.764,3.938,3.938C393.824,192.276,364.892,221.208,329.335,221.208z"/>
<g>
	<path style="fill:#EFA30C;" d="M228.905,299.488c0,2.45-1.985,4.427-4.427,4.427l0,0c-2.45,0-4.427-1.985-4.427-4.427V269.95
		c0-2.45,1.985-4.427,4.427-4.427l0,0c2.45,0,4.427,1.985,4.427,4.427V299.488z"/>
	<path style="fill:#EFA30C;" d="M246.628,299.488c0,2.45-1.985,4.427-4.427,4.427l0,0c-2.45,0-4.427-1.985-4.427-4.427V269.95
		c0-2.45,1.985-4.427,4.427-4.427l0,0c2.45,0,4.427,1.985,4.427,4.427V299.488z"/>
	<path style="fill:#EFA30C;" d="M264.351,299.488c0,2.45-1.985,4.427-4.427,4.427l0,0c-2.45,0-4.427-1.985-4.427-4.427V269.95
		c0-2.45,1.985-4.427,4.427-4.427l0,0c2.45,0,4.427,1.985,4.427,4.427V299.488z"/>
	<path style="fill:#EFA30C;" d="M282.074,299.488c0,2.45-1.985,4.427-4.427,4.427l0,0c-2.45,0-4.427-1.985-4.427-4.427V269.95
		c0-2.45,1.985-4.427,4.427-4.427l0,0c2.45,0,4.427,1.985,4.427,4.427V299.488z"/>
	<path style="fill:#EFA30C;" d="M299.797,299.488c0,2.45-1.985,4.427-4.427,4.427l0,0c-2.45,0-4.427-1.985-4.427-4.427V269.95
		c0-2.45,1.985-4.427,4.427-4.427l0,0c2.45,0,4.427,1.985,4.427,4.427V299.488z"/>
</g>
<path style="fill:#089B78;" d="M317.268,356.076c1.536,1.536,1.536,4.033,0,5.569l0,0c-1.536,1.536-4.033,1.536-5.569,0
	l-24.726-24.718c-1.528-1.536-1.528-4.033,0-5.569l0,0c1.544-1.536,4.041-1.536,5.577,0L317.268,356.076z"/>
<path style="fill:#EFA30C;" d="M310.383,276.559c0.063,0.347-0.189,0.693-0.536,0.748l-94.633,15.139
	c-0.37,0.055-0.701-0.189-0.764-0.543l0,0c-0.055-0.362,0.189-0.701,0.544-0.756l94.633-15.139
	C309.99,275.952,310.32,276.189,310.383,276.559L310.383,276.559z"/>
<g>
</g>
<g>
</g>
<g>
</g>
<g>
</g>
<g>
</g>
<g>
</g>
<g>
</g>
<g>
</g>
<g>
</g>
<g>
</g>
<g>
</g>
<g>
</g>
<g>
</g>
<g>
</g>
<g>
</g>
</svg>
