<?xml version="1.0" encoding="iso-8859-1"?>
<!-- Generator: Adobe Illustrator 19.0.0, SVG Export Plug-In . SVG Version: 6.00 Build 0)  -->
<svg version="1.1" id="Layer_1" xmlns="http://www.w3.org/2000/svg" xmlns:xlink="http://www.w3.org/1999/xlink" x="0px" y="0px"
	 viewBox="0 0 504.123 504.123" style="enable-background:new 0 0 504.123 504.123;" xml:space="preserve">
<g>
	<path style="fill:#4297A0;" d="M263.388,361.913c0,19.503-15.817,124.668-35.336,124.668c-19.495,0-35.304-105.173-35.304-124.668
		c0-19.495,15.817-35.32,35.304-35.32C247.571,326.593,263.388,342.418,263.388,361.913z"/>
	<path style="fill:#4297A0;" d="M381.739,361.913c0,19.503-15.817,124.668-35.336,124.668c-19.495,0-35.304-105.173-35.304-124.668
		c0-19.495,15.817-35.32,35.304-35.32C365.922,326.593,381.739,342.418,381.739,361.913z"/>
</g>
<g>
	<path style="fill:#232728;" d="M386.875,315.242c0,126.33-44.599,84.259-99.643,84.259c-55.028,0-99.643,42.071-99.643-84.259
		c0-72.231,44.631-130.781,99.643-130.781C342.26,184.47,386.875,243.019,386.875,315.242z"/>
	<path style="fill:#232728;" d="M321.583,214.315c11.28-10.027,33.312-3.663,49.231,14.218
		c15.896,17.881,85.016,114.018,73.767,124.062c-11.296,10.012-98.721-69.892-114.617-87.773
		C314.076,246.965,310.319,224.343,321.583,214.315z"/>
</g>
<path style="fill:#D1300B;" d="M267.799,487.219c0,14.935-17.802,16.904-39.739,16.904s-39.739-1.961-39.739-16.904
	c0-14.943,17.802-35.509,39.739-35.509S267.799,472.277,267.799,487.219z"/>
<path style="fill:#AF220B;" d="M267.799,487.219c0,14.935-17.802,16.904-39.739,16.904s-39.739-1.961-39.739-16.904"/>
<path style="fill:#D1300B;" d="M386.15,487.219c0,14.935-17.802,16.904-39.739,16.904s-39.739-1.961-39.739-16.904
	c0-14.943,17.802-35.509,39.739-35.509S386.15,472.277,386.15,487.219z"/>
<path style="fill:#AF220B;" d="M386.15,487.219c0,14.935-17.802,16.904-39.739,16.904s-39.739-1.961-39.739-16.904"/>
<path style="fill:#232728;" d="M297.7,231.219c-0.89-15.061-20.968-26.136-44.859-24.757
	c-23.883,1.402-140.737,20.512-139.902,35.564c0.906,15.069,119.241,20.385,143.116,18.983
	C279.914,259.616,298.566,246.28,297.7,231.219z"/>
<circle style="fill:#A56B44;" cx="287.231" cy="211.361" r="26.585"/>
<path style="fill:#D8A17C;" d="M416.185,124.258c0,63.008-57.738,94.681-128.937,94.681c-71.215,0-128.969-31.673-128.969-94.681
	C158.278,61.235,216.032,0,287.247,0C358.447,0,416.185,61.235,416.185,124.258z"/>
<path id="SVGCleanerId_0" style="fill:#C48960;" d="M416.185,124.258c0,63.008-57.738,94.681-128.937,94.681
	c-71.215,0-128.969-31.673-128.969-94.681c0-63.023,57.754-111.789,128.969-111.789C358.447,12.469,416.185,61.235,416.185,124.258z
	"/>
<g>
	<path id="SVGCleanerId_0_1_" style="fill:#C48960;" d="M416.185,124.258c0,63.008-57.738,94.681-128.937,94.681
		c-71.215,0-128.969-31.673-128.969-94.681c0-63.023,57.754-111.789,128.969-111.789C358.447,12.469,416.185,61.235,416.185,124.258
		z"/>
</g>
<path style="fill:#BC8158;" d="M416.185,124.258c0,63.008-57.738,94.681-128.937,94.681c-71.215,0-128.969-31.673-128.969-94.681"/>
<circle style="fill:#113E49;" cx="205.997" cy="82.377" r="11.532"/>
<path d="M217.529,82.377c0,6.388-5.167,11.54-11.532,11.54c-6.38,0-11.54-5.152-11.54-11.54"/>
<path style="fill:#E5A376;" d="M228.745,106.433c-0.614,0-1.245-0.221-1.733-0.717c-5.632-5.624-13.099-8.72-21.039-8.72h-0.016
	c-7.948,0-15.399,3.104-21,8.712c-0.945,0.953-2.489,0.977-3.434,0.008c-0.953-0.922-0.985-2.458-0.031-3.419
	c6.53-6.546,15.218-10.161,24.458-10.161h0.016c9.263,0,17.951,3.592,24.505,10.145c0.937,0.937,0.937,2.505,0,3.434
	C230.006,106.205,229.383,106.433,228.745,106.433z"/>
<circle style="fill:#113E49;" cx="328.625" cy="82.377" r="11.532"/>
<path d="M317.116,82.377c0,6.388,5.151,11.54,11.54,11.54c6.372,0,11.524-5.152,11.524-11.54"/>
<path style="fill:#E5A376;" d="M305.892,106.433c0.607,0,1.237-0.221,1.709-0.717c5.64-5.624,13.115-8.72,21.055-8.72h0.016
	c7.94,0,15.415,3.104,21.016,8.712c0.937,0.953,2.473,0.977,3.434,0.008c0.953-0.922,0.969-2.458,0.016-3.419
	c-6.514-6.546-15.218-10.161-24.458-10.161h-0.016c-9.247,0-17.936,3.592-24.505,10.145c-0.922,0.937-0.922,2.505,0,3.434
	C304.639,106.205,305.254,106.433,305.892,106.433z"/>
<ellipse style="fill:#AA1111;" cx="263.601" cy="118.319" rx="13.296" ry="6.396"/>
<path style="fill:#EBF0F2;" d="M318.81,339.322c1.497-2.158,2.796-4.466,3.946-6.861c0.15-0.284,0.291-0.575,0.433-0.866
	c1.079-2.371,1.969-4.829,2.678-7.373c0.095-0.339,0.173-0.67,0.26-1c0.662-2.599,1.15-5.262,1.394-8.011
	c0.008-0.079,0.032-0.15,0.039-0.221c0-0.047-0.016-0.079-0.024-0.126c0.118-1.339,0.205-2.694,0.205-4.064
	c0-27.695-22.528-50.215-50.215-50.215s-50.215,22.52-50.215,50.215c0,1.371,0.095,2.725,0.197,4.064
	c0,0.047-0.016,0.079-0.016,0.126c0.008,0.079,0.032,0.15,0.039,0.221c0.236,2.749,0.733,5.411,1.394,8.011
	c0.095,0.339,0.165,0.662,0.26,0.992c0.709,2.544,1.599,5.025,2.694,7.389c0.126,0.284,0.26,0.551,0.402,0.835
	c1.15,2.41,2.458,4.718,3.97,6.892c0.079,0.118,0.165,0.213,0.244,0.331c1.583,2.229,3.324,4.356,5.246,6.302
	c0,0,0.047,0.055,0.071,0.087c1.859,1.883,3.891,3.584,6.034,5.159c0.26,0.189,0.512,0.394,0.78,0.583
	c2.08,1.473,4.261,2.765,6.554,3.907c0.37,0.181,0.74,0.354,1.095,0.528c2.324,1.087,4.726,2.017,7.215,2.749
	c0.323,0.102,0.662,0.165,0.992,0.252c2.623,0.709,5.301,1.26,8.066,1.528l0.032,0.008l-0.039,0.008
	c0.276,0.032,0.551,0.024,0.827,0.039v0.032c1.371,0.118,2.757,0.181,4.151,0.181c1.394,0,2.788-0.071,4.143-0.181v-0.032
	c0.284-0.016,0.575-0.016,0.851-0.039c-0.016,0-0.032,0.008-0.032,0.008s0.016-0.008,0.032-0.008
	c2.757-0.268,5.419-0.819,8.034-1.52c0.347-0.095,0.701-0.165,1.048-0.268c2.473-0.725,4.844-1.646,7.152-2.725
	c0.386-0.181,0.772-0.37,1.15-0.559c2.269-1.142,4.443-2.426,6.498-3.875c0.284-0.205,0.559-0.425,0.835-0.63
	c2.127-1.56,4.135-3.253,5.979-5.112c0.047-0.047,0.087-0.102,0.134-0.15c1.89-1.93,3.615-4.017,5.167-6.223
	C318.613,339.566,318.723,339.456,318.81,339.322z M281.67,269.099c1.749,0.165,3.411,0.614,5.089,0.992
	c1.15,0.26,2.324,0.488,3.45,0.835c1.308,0.417,2.552,0.985,3.812,1.52c1.048,0.457,2.127,0.859,3.119,1.386
	c1.213,0.646,2.339,1.434,3.474,2.19c0.922,0.622,1.89,1.189,2.773,1.875c1.079,0.851,2.048,1.835,3.048,2.788
	c0.788,0.764,1.631,1.473,2.371,2.292c0.922,1.048,1.709,2.206,2.536,3.34c0.63,0.874,1.339,1.701,1.906,2.623
	c0.764,1.252,1.355,2.607,1.985,3.938c0.449,0.929,0.985,1.804,1.355,2.781c0.599,1.536,0.985,3.167,1.402,4.781
	c0.213,0.851,0.536,1.662,0.709,2.536c0.48,2.536,0.748,5.144,0.748,7.814c0,10.973-4.238,20.96-11.162,28.436l-26.608-26.608
	v-35.17v-8.326v-0.024H281.67z M273.368,269.147v8.326v35.17l-26.6,26.608c-6.916-7.475-11.162-17.471-11.162-28.436
	c0-2.67,0.268-5.277,0.748-7.814c0.165-0.874,0.488-1.686,0.709-2.536c0.417-1.615,0.803-3.245,1.402-4.781
	c0.37-0.969,0.906-1.843,1.355-2.781c0.63-1.331,1.213-2.686,1.985-3.938c0.567-0.922,1.276-1.749,1.906-2.623
	c0.827-1.134,1.615-2.292,2.536-3.34c0.74-0.819,1.583-1.528,2.371-2.292c1-0.953,1.969-1.938,3.048-2.788
	c0.874-0.685,1.843-1.252,2.773-1.875c1.142-0.764,2.261-1.544,3.474-2.19c1-0.52,2.079-0.929,3.119-1.386
	c1.252-0.536,2.505-1.111,3.812-1.52c1.126-0.354,2.284-0.575,3.442-0.835c1.686-0.378,3.348-0.819,5.089-0.992v0.024H273.368z
	 M258.016,347.853c-1.757-0.922-3.434-1.938-5.033-3.096l20.385-20.385v8.365v19.771C267.87,351.98,262.695,350.334,258.016,347.853
	z M281.67,332.745v-8.365l20.393,20.385c-1.599,1.15-3.285,2.174-5.041,3.104c-4.671,2.465-9.854,4.112-15.352,4.655V332.745z"/>
<g>
	<path style="fill:#BC8158;" d="M187.628,216.285c-37.124,7.192-75.169,17.124-74.689,25.742c0.52,8.428,37.77,13.808,74.689,16.66
		V216.285z"/>
	<path style="fill:#BC8158;" d="M379.856,311.446c28.16,24.127,58.407,46.765,64.733,41.149c6.443-5.75-13.509-39.786-34.706-71.168
		L379.856,311.446z"/>
</g>
<path style="fill:#AF220B;" d="M132.151,263.546c0,8.696-7.058,15.754-15.754,15.754H74.058c-8.696,0-15.754-7.058-15.754-15.754
	v-95.508c0-8.696,7.058-15.754,15.754-15.754h42.338c8.696,0,15.754,7.058,15.754,15.754V263.546z"/>
<path style="fill:#4297A0;" d="M120.705,240.861c0,6.01-4.876,10.87-10.862,10.87H80.628c-6.01,0-10.878-4.86-10.878-10.87v-65.89
	c0-6.002,4.868-10.87,10.878-10.87h29.216c5.986,0,10.862,4.868,10.862,10.87C120.705,174.97,120.705,240.861,120.705,240.861z"/>
<g>
</g>
<g>
</g>
<g>
</g>
<g>
</g>
<g>
</g>
<g>
</g>
<g>
</g>
<g>
</g>
<g>
</g>
<g>
</g>
<g>
</g>
<g>
</g>
<g>
</g>
<g>
</g>
<g>
</g>
</svg>
