<?xml version="1.0" encoding="iso-8859-1"?>
<!-- Generator: Adobe Illustrator 19.0.0, SVG Export Plug-In . SVG Version: 6.00 Build 0)  -->
<svg version="1.1" id="Layer_1" xmlns="http://www.w3.org/2000/svg" xmlns:xlink="http://www.w3.org/1999/xlink" x="0px" y="0px"
	 viewBox="0 0 504.123 504.123" style="enable-background:new 0 0 504.123 504.123;" xml:space="preserve">
<g>
	<path style="fill:#D3A16A;" d="M230.273,280.631c-10.027-11.28-3.671-33.312,14.218-49.231
		c17.881-15.896,114.018-85.016,124.062-73.767c10.012,11.296-69.892,98.721-87.773,114.617
		C262.923,288.138,240.309,291.895,230.273,280.631z"/>
	<path style="fill:#D3A16A;" d="M208.305,280.631c10.027-11.28,3.663-33.312-14.218-49.231
		c-17.888-15.896-114.018-85.016-124.062-73.767c-10.019,11.296,69.892,98.721,87.773,114.617
		C175.655,288.138,198.27,291.895,208.305,280.631z"/>
</g>
<g>
	<path style="fill:#0AA0A0;" d="M313.793,361.913c0,19.503-15.809,124.668-35.328,124.668c-19.495,0-35.304-105.173-35.304-124.668
		c0-19.495,15.817-35.32,35.304-35.32C297.984,326.593,313.793,342.418,313.793,361.913z"/>
	<path style="fill:#0AA0A0;" d="M195.442,361.913c0,19.503-15.825,124.668-35.336,124.668c-19.495,0-35.304-105.173-35.304-124.668
		c0-19.495,15.817-35.32,35.304-35.32C179.625,326.593,195.442,342.418,195.442,361.913z"/>
</g>
<g>
	<path style="fill:#BC8158;" d="M135.38,432.569c6.372,28.333,15.1,54.012,24.734,54.012c9.649,0,18.385-25.687,24.765-54.012
		H135.38z"/>
	<path style="fill:#BC8158;" d="M253.731,432.569c6.372,28.333,15.1,54.012,24.734,54.012c9.649,0,18.377-25.687,24.765-54.012
		H253.731z"/>
</g>
<path style="fill:#CC7309;" d="M318.936,315.242c0,126.33-44.599,84.259-99.643,84.259c-55.036,0-99.643,42.071-99.643-84.259
	c0-72.231,44.623-130.781,99.643-130.781C274.321,184.47,318.936,243.019,318.936,315.242z"/>
<path style="fill:#EA8C06;" d="M219.293,184.47c-51.696,0-94.216,51.704-99.147,117.894c4.986,100.076,47.466,63.008,99.147,63.008
	c51.688,0,94.161,37.069,99.147-63.008C313.501,236.174,271.005,184.47,219.293,184.47z"/>
<ellipse style="fill:#D3A16A;" cx="219.293" cy="228.762" rx="42.669" ry="37.738"/>
<path style="fill:#E8B374;" d="M199.861,487.219c0,14.935-17.802,16.904-39.739,16.904s-39.739-1.961-39.739-16.904
	c0-14.943,17.802-35.509,39.739-35.509S199.861,472.277,199.861,487.219z"/>
<path style="fill:#13B784;" d="M199.861,487.219c0,14.935-17.802,16.904-39.739,16.904s-39.739-1.961-39.739-16.904"/>
<path style="fill:#E8B374;" d="M318.211,487.219c0,14.935-17.81,16.904-39.747,16.904c-21.929,0-39.731-1.961-39.731-16.904
	c0-14.943,17.802-35.509,39.731-35.509C300.41,451.718,318.211,472.277,318.211,487.219z"/>
<path style="fill:#13B784;" d="M318.211,487.219c0,14.935-17.81,16.904-39.747,16.904c-21.929,0-39.731-1.961-39.731-16.904"/>
<path style="fill:#EFC286;" d="M348.246,124.258c0,63.008-57.738,94.681-128.937,94.681c-71.223,0-128.977-31.673-128.977-94.681
	C90.332,61.235,148.086,0,219.309,0C290.508,0,348.246,61.235,348.246,124.258z"/>
<path style="fill:#E8B374;" d="M348.246,124.258c0,63.008-57.738,94.681-128.937,94.681c-71.223,0-128.977-31.673-128.977-94.681"/>
<g>
	<path style="fill:#232728;" d="M158.404,118.894c-0.614,0-1.245-0.221-1.725-0.717c-5.632-5.624-13.107-8.72-21.047-8.72h-0.016
		c-7.94,0-15.399,3.104-21,8.712c-0.953,0.953-2.489,0.977-3.434,0.008c-0.953-0.922-0.985-2.458-0.032-3.419
		c6.538-6.546,15.218-10.161,24.458-10.161h0.016c9.263,0,17.951,3.592,24.505,10.145c0.937,0.937,0.937,2.505,0,3.434
		C159.673,118.666,159.05,118.894,158.404,118.894z"/>
	<path style="fill:#232728;" d="M235.559,118.894c0.599,0,1.229-0.221,1.709-0.717c5.632-5.624,13.107-8.72,21.047-8.72h0.016
		c7.94,0,15.415,3.104,21.016,8.712c0.937,0.953,2.473,0.977,3.434,0.008c0.953-0.922,0.969-2.458,0.016-3.419
		c-6.506-6.546-15.218-10.161-24.458-10.161h-0.016c-9.247,0-17.936,3.592-24.505,10.145c-0.922,0.937-0.922,2.505,0,3.434
		C234.299,118.666,234.913,118.894,235.559,118.894z"/>
</g>
<path style="fill:#870E0E;" d="M226.721,132.986c0,19.803-12.737,35.879-28.428,35.879s-28.428-16.077-28.428-35.879
	c0-19.834,12.737-7.987,28.428-7.987S226.721,113.152,226.721,132.986z"/>
<path style="fill:#AA1111;" d="M198.285,139.878c-9.318,0-17.51,5.742-22.701,14.486c5.191,8.751,13.391,14.501,22.709,14.501
	s17.518-5.742,22.701-14.486C215.804,145.621,207.604,139.878,198.285,139.878z"/>
<g>
	<path style="fill:#0AA0A0;" d="M197.891,344.088c5.695,5.215,13.281,8.405,21.606,8.405c3.017,0,5.923-0.433,8.696-1.205
		c-2.765-0.402-5.774-1.15-9.051-2.371C210.258,345.671,203.295,344.363,197.891,344.088z"/>
	<path style="fill:#0AA0A0;" d="M251.399,318.086c-4.356,4.876-14.202,11.784-32.256,5.167c-16.258-5.971-26.175-5.396-31.618-3.883
		c-0.016,0.37-0.032,0.748-0.032,1.126c0,3.269,0.488,6.42,1.402,9.389c5.876-3.135,15.218-5.821,26.813-1.323
		c19.897,7.712,27.711,6.561,34.17,1.977c1.032-3.159,1.615-6.53,1.615-10.043C251.502,319.677,251.462,318.866,251.399,318.086z"/>
	<path style="fill:#0AA0A0;" d="M219.143,336.085c-14.446-5.293-23.859-5.427-29.609-4.348c1.182,3.151,2.851,6.073,4.915,8.657
		c5.585-1.741,12.816-2.269,21.26,1c9.704,3.773,16.542,5.419,21.74,5.593c4.923-3.348,8.862-8.042,11.311-13.548
		C243.546,337.715,234.204,341.606,219.143,336.085z"/>
	<path style="fill:#0AA0A0;" d="M215.717,315.731c21.331,8.271,28.759,6.349,35.549,0.929c-1.89-15.872-15.384-28.168-31.76-28.168
		c-16.754,0-30.492,12.879-31.878,29.279C193.37,314.368,203.224,310.886,215.717,315.731z"/>
</g>
<path style="fill:#DD300E;" d="M341.433,504.123c-51.578,0-93.538-41.96-93.538-93.538s41.96-93.538,93.538-93.538
	s93.531,41.96,93.531,93.538S393.011,504.123,341.433,504.123z M341.433,362.197c-26.679,0-48.396,21.709-48.396,48.388
	c0,26.679,21.717,48.38,48.396,48.38s48.38-21.701,48.38-48.38C389.813,383.905,368.104,362.197,341.433,362.197z"/>
<path style="fill:#BC1D08;" d="M341.433,343.717c-36.927,0-66.859,29.94-66.859,66.867s29.94,66.867,66.859,66.867
	s66.859-29.94,66.859-66.867S378.352,343.717,341.433,343.717z M341.433,458.965c-26.679,0-48.396-21.701-48.396-48.38
	c0-26.679,21.717-48.388,48.396-48.388s48.38,21.709,48.38,48.388C389.813,437.264,368.104,458.965,341.433,458.965z"/>
<path style="fill:#17AACC;" d="M293.037,410.585h-45.143c0-51.578,41.96-93.538,93.538-93.538v45.151
	C314.754,362.197,293.037,383.905,293.037,410.585z"/>
<path style="fill:#2DCEE8;" d="M247.894,410.585c0-51.578,41.96-93.538,93.538-93.538"/>
<path style="fill:#17AACC;" d="M341.433,504.123v-45.158c26.679,0,48.38-21.701,48.38-48.38h45.15
	C434.963,462.163,393.011,504.123,341.433,504.123z"/>
<g>
	<path style="fill:#0896BC;" d="M434.963,410.585c0,51.578-41.952,93.538-93.531,93.538"/>
	<path style="fill:#0896BC;" d="M341.433,362.197V343.71c-36.927,0-66.859,29.94-66.859,66.867h18.471
		C293.037,383.905,314.754,362.197,341.433,362.197z"/>
	<path style="fill:#0896BC;" d="M389.805,410.585c0,26.679-21.701,48.38-48.38,48.38v18.495c36.927,0,66.859-29.94,66.859-66.867
		h-18.479V410.585z"/>
</g>
<circle style="fill:#FCD21D;" cx="398.729" cy="367.38" r="10.594"/>
<path style="fill:#F9A51E;" d="M409.347,367.348c0,5.853-4.75,10.602-10.594,10.602c-5.853,0-10.594-4.75-10.594-10.602"/>
<path style="fill:#D3A16A;" d="M219.309,0c-32.744,0-62.543,13.036-85.291,33.146h160.681v64c0,0,18.416-43.055,41.889-21.898
	C316.282,32.902,271.462,0,219.309,0z"/>
<g>
</g>
<g>
</g>
<g>
</g>
<g>
</g>
<g>
</g>
<g>
</g>
<g>
</g>
<g>
</g>
<g>
</g>
<g>
</g>
<g>
</g>
<g>
</g>
<g>
</g>
<g>
</g>
<g>
</g>
</svg>
