<?xml version="1.0" encoding="iso-8859-1"?>
<!-- Generator: Adobe Illustrator 19.0.0, SVG Export Plug-In . SVG Version: 6.00 Build 0)  -->
<svg version="1.1" id="Layer_1" xmlns="http://www.w3.org/2000/svg" xmlns:xlink="http://www.w3.org/1999/xlink" x="0px" y="0px"
	 viewBox="0 0 504.123 504.123" style="enable-background:new 0 0 504.123 504.123;" xml:space="preserve">
<g>
	<rect x="116.658" y="398.494" style="fill:#B51D1D;" width="6.459" height="12.65"/>
	<rect x="160.793" y="398.494" style="fill:#B51D1D;" width="6.459" height="12.65"/>
</g>
<path style="fill:#F15249;" d="M207.267,495.419c0,4.805-3.899,8.704-8.712,8.704H82.638c-4.805,0-8.712-3.899-8.712-8.704v-76.698
	c0-4.813,3.907-8.72,8.712-8.72h115.917c4.813,0,8.712,3.907,8.712,8.72V495.419z"/>
<path style="fill:#0AA06E;" d="M167.252,398.517c0,1.906-1.544,3.45-3.45,3.45h-43.701c-1.906,0-3.45-1.544-3.45-3.45v-11.398
	c0-1.898,1.536-3.45,3.45-3.45h43.701c1.906,0,3.45,1.552,3.45,3.45V398.517z"/>
<path style="fill:#007C56;" d="M116.658,387.119c0-1.898,1.536-3.45,3.45-3.45h43.701c1.906,0,3.45,1.552,3.45,3.45v11.398
	c0,1.906-1.544,3.45-3.45,3.45"/>
<g>
	<rect x="84.883" y="479.468" style="fill:#FFFFFF;" width="19.921" height="2.954"/>
	<rect x="84.883" y="486.873" style="fill:#FFFFFF;" width="19.921" height="2.954"/>
</g>
<path style="fill:#C93131;" d="M207.267,495.419v-20.228l-49.719-49.719l-48.672,48.664l29.995,29.987h59.683
	C203.367,504.123,207.267,500.224,207.267,495.419z"/>
<path style="fill:#B51D1D;" d="M202.32,503.249l-61.282-61.275l-15.1,15.108l47.041,47.041h25.576
	C199.902,504.123,201.178,503.792,202.32,503.249z"/>
<polygon style="fill:#FFFFFF;" points="172.191,440.186 157.469,440.186 157.469,425.48 123.732,425.48 123.732,440.186 
	109.01,440.186 109.01,473.947 123.732,473.947 123.732,488.645 157.469,488.645 157.469,473.947 172.191,473.947 "/>
<polyline style="fill:#EAEAEA;" points="157.469,473.947 172.191,473.947 172.191,440.186 157.469,440.186 157.469,425.48 
	123.732,425.48 123.732,440.186 "/>
<rect x="187.724" y="421.352" style="fill:#B51D1D;" width="8.609" height="8.617"/>
<g>
	<path style="fill:#4F340E;" d="M256.222,361.913c0,19.503-15.817,124.668-35.336,124.668c-19.495,0-35.304-105.173-35.304-124.668
		c0-19.495,15.817-35.32,35.304-35.32C240.413,326.593,256.222,342.418,256.222,361.913z"/>
	<path style="fill:#4F340E;" d="M374.58,361.913c0,19.503-15.817,124.668-35.336,124.668c-19.495,0-35.304-105.173-35.304-124.668
		c0-19.495,15.817-35.32,35.304-35.32C358.763,326.593,374.58,342.418,374.58,361.913z"/>
</g>
<path style="fill:#9CB5B5;" d="M379.716,315.242c0,126.33-44.599,84.259-99.643,84.259c-55.028,0-99.643,42.071-99.643-84.259
	c0-72.231,44.631-130.781,99.643-130.781C335.101,184.47,379.716,243.019,379.716,315.242z"/>
<path style="fill:#3F4B4C;" d="M260.641,487.219c0,14.935-17.802,16.904-39.739,16.904s-39.739-1.961-39.739-16.904
	c0-14.943,17.802-35.509,39.739-35.509S260.641,472.277,260.641,487.219z"/>
<path style="fill:#2C3838;" d="M260.641,487.219c0,14.935-17.802,16.904-39.739,16.904s-39.739-1.961-39.739-16.904"/>
<path style="fill:#3F4B4C;" d="M378.991,487.219c0,14.935-17.802,16.904-39.739,16.904c-21.937,0-39.739-1.961-39.739-16.904
	c0-14.943,17.802-35.509,39.739-35.509C361.19,451.71,378.991,472.277,378.991,487.219z"/>
<path style="fill:#2C3838;" d="M378.991,487.219c0,14.935-17.802,16.904-39.739,16.904c-21.937,0-39.739-1.961-39.739-16.904"/>
<g>
	<path style="fill:#9CB5B5;" d="M269.085,203.768c10.027,11.28,3.663,33.304-14.218,49.223
		c-17.881,15.896-114.018,85.024-124.062,73.767c-10.012-11.296,69.892-98.714,87.773-114.609
		C236.443,196.254,259.057,192.496,269.085,203.768z"/>
	<path style="fill:#9CB5B5;" d="M291.053,203.768c-10.027,11.28-3.663,33.304,14.218,49.223
		c17.881,15.896,114.018,85.024,124.062,73.767c10.012-11.296-69.892-98.714-87.773-114.609
		C323.703,196.254,301.089,192.496,291.053,203.768z"/>
</g>
<rect x="259.396" y="199.546" style="fill:#E2DED3;" width="41.354" height="191.346"/>
<path style="fill:#C6BFAF;" d="M259.396,233.669c6.751,0.622,13.627,1.024,20.693,1.024c7.05,0,13.926-0.402,20.661-1.024v-34.123
	h-41.354V233.669z"/>
<path style="fill:#F9C1AC;" d="M409.026,124.258c0,63.008-57.738,94.681-128.937,94.681c-71.215,0-128.969-31.673-128.969-94.681
	C151.12,61.235,208.873,0,280.089,0C351.288,0,409.026,61.235,409.026,124.258z"/>
<path style="fill:#F2B09C;" d="M409.026,124.258c0,63.008-57.738,94.681-128.937,94.681c-71.215,0-128.969-31.673-128.969-94.681"/>
<circle style="fill:#113E49;" cx="218.743" cy="136.428" r="11.532"/>
<path d="M230.283,136.428c0,6.388-5.167,11.54-11.54,11.54s-11.524-5.152-11.524-11.54"/>
<path style="fill:#FFD3C5;" d="M241.5,160.484c-0.614,0-1.245-0.221-1.725-0.717c-5.632-5.624-13.107-8.72-21.047-8.72h-0.016
	c-7.94,0-15.399,3.104-21,8.712c-0.953,0.953-2.489,0.977-3.434,0.008c-0.953-0.922-0.985-2.458-0.032-3.419
	c6.538-6.546,15.218-10.161,24.458-10.161h0.016c9.263,0,17.952,3.592,24.505,10.145c0.937,0.937,0.937,2.505,0,3.434
	C242.76,160.264,242.146,160.484,241.5,160.484z"/>
<circle style="fill:#113E49;" cx="341.403" cy="136.428" r="11.532"/>
<path d="M329.871,136.428c0,6.388,5.151,11.54,11.54,11.54c6.372,0,11.524-5.152,11.524-11.54"/>
<path style="fill:#FFD3C5;" d="M318.654,160.484c0.599,0,1.229-0.221,1.709-0.717c5.632-5.624,13.107-8.72,21.047-8.72h0.016
	c7.94,0,15.415,3.104,21.016,8.712c0.937,0.953,2.473,0.977,3.434,0.008c0.953-0.922,0.969-2.458,0.016-3.419
	c-6.506-6.546-15.218-10.161-24.458-10.161h-0.016c-9.247,0-17.936,3.592-24.505,10.145c-0.922,0.937-0.922,2.505,0,3.434
	C317.394,160.264,318.008,160.484,318.654,160.484z"/>
<path style="fill:#A54B08;" d="M280.089,0c-1.788,0-3.505,0.205-5.27,0.284c-0.898,1.182-1.638,2.442-2.087,3.812
	c-6.097,18.81,32.989,48.356,87.3,65.946c13.698,4.435,27.057,7.688,39.471,9.775C380.315,35.281,334.117,0,280.089,0z"/>
<path style="fill:#BC5806;" d="M337.504,14.131C320.19,5.27,300.734,0,280.089,0c-54.351,0-100.769,35.698-119.753,80.605
	c20.33,4.624,54.185,1.197,90.49-10.563C296.229,55.335,330.895,32.288,337.504,14.131z"/>
<path style="fill:#AA1111;" d="M242.098,187.557c0-13.682,17.014-24.836,37.998-24.836c20.953,0,37.951,11.154,37.951,24.836
	c0,13.769-16.998,5.522-37.951,5.522C259.12,193.079,242.098,201.326,242.098,187.557z"/>
<g>
	<path style="fill:#D62B2B;" d="M269.841,185.336c2.253,2.119,5.994,3.505,10.232,3.505c4.23,0,7.979-1.394,10.232-3.505
		c-2.253-2.127-6.002-3.513-10.232-3.513C275.835,181.823,272.094,183.217,269.841,185.336z"/>
	<path style="fill:#D62B2B;" d="M303.704,292.1h-47.262c-13.147,0-23.843-10.689-23.843-23.836v-50.995
		c0-2.174,1.764-3.938,3.938-3.938s3.938,1.764,3.938,3.938v50.995c0,8.799,7.16,15.959,15.967,15.959h47.262
		c8.806,0,15.967-7.16,15.967-15.959v-50.995c0-2.174,1.764-3.938,3.938-3.938c2.166,0,3.938,1.764,3.938,3.938v50.995
		C327.547,281.411,316.85,292.1,303.704,292.1z"/>
	<path style="fill:#D62B2B;" d="M329.469,368.908c-2.182,0-3.938-1.764-3.938-3.938v-31.508h-52.508v-44.639
		c0-2.174,1.757-3.938,3.938-3.938c2.166,0,3.938,1.764,3.938,3.938v36.762h52.508v39.385
		C333.408,367.143,331.643,368.908,329.469,368.908z"/>
	<path style="fill:#D62B2B;" d="M329.469,397.462c-11.768,0-21.339-9.57-21.339-21.331c0-11.768,9.57-21.339,21.339-21.339
		c11.76,0,21.339,9.57,21.339,21.339C350.808,387.891,341.229,397.462,329.469,397.462z M329.469,362.669
		c-7.42,0-13.462,6.042-13.462,13.462c0,7.412,6.042,13.454,13.462,13.454c7.412,0,13.462-6.042,13.462-13.454
		C342.931,368.711,336.889,362.669,329.469,362.669z"/>
</g>
<g>
</g>
<g>
</g>
<g>
</g>
<g>
</g>
<g>
</g>
<g>
</g>
<g>
</g>
<g>
</g>
<g>
</g>
<g>
</g>
<g>
</g>
<g>
</g>
<g>
</g>
<g>
</g>
<g>
</g>
</svg>
