<?xml version="1.0" encoding="iso-8859-1"?>
<!-- Generator: Adobe Illustrator 19.0.0, SVG Export Plug-In . SVG Version: 6.00 Build 0)  -->
<svg version="1.1" id="Layer_1" xmlns="http://www.w3.org/2000/svg" xmlns:xlink="http://www.w3.org/1999/xlink" x="0px" y="0px"
	 viewBox="0 0 504.123 504.123" style="enable-background:new 0 0 504.123 504.123;" xml:space="preserve">
<g>
	<path style="fill:#2E4449;" d="M288.013,239.159c-0.874,15.061-20.961,26.128-44.851,24.757
		c-23.875-1.41-140.745-20.504-139.894-35.564c0.906-15.069,119.233-20.385,143.108-18.976
		C270.251,210.763,288.896,224.098,288.013,239.159z"/>
	<path style="fill:#2E4449;" d="M278.829,232.952c0.874-15.061,20.953-26.12,44.859-24.757
		c23.875,1.418,140.737,20.512,139.886,35.572c-0.906,15.061-119.233,20.385-143.108,18.968
		C296.591,261.356,277.947,248.013,278.829,232.952z"/>
</g>
<g>
	<path style="fill:#107889;" d="M260.775,361.913c0,19.503-15.817,124.668-35.336,124.668c-19.495,0-35.304-105.173-35.304-124.668
		c0-19.495,15.817-35.32,35.304-35.32C244.966,326.593,260.775,342.418,260.775,361.913z"/>
	<path style="fill:#107889;" d="M379.134,361.913c0,19.503-15.817,124.668-35.336,124.668c-19.495,0-35.304-105.173-35.304-124.668
		c0-19.495,15.817-35.32,35.304-35.32C363.317,326.593,379.134,342.418,379.134,361.913z"/>
</g>
<path style="fill:#2E4449;" d="M384.269,315.242c0,126.33-44.599,84.259-99.643,84.259c-55.028,0-99.643,42.071-99.643-84.259
	c0-72.231,44.631-130.781,99.643-130.781C339.655,184.47,384.269,243.019,384.269,315.242z"/>
<path style="fill:#BAAEB3;" d="M265.194,487.219c0,14.935-17.802,16.904-39.739,16.904s-39.739-1.961-39.739-16.904
	c0-14.943,17.802-35.509,39.739-35.509S265.194,472.277,265.194,487.219z"/>
<path style="fill:#9E9297;" d="M265.194,487.219c0,14.935-17.802,16.904-39.739,16.904s-39.739-1.961-39.739-16.904"/>
<path style="fill:#BAAEB3;" d="M383.545,487.219c0,14.935-17.802,16.904-39.739,16.904s-39.739-1.961-39.739-16.904
	c0-14.943,17.802-35.509,39.739-35.509S383.545,472.277,383.545,487.219z"/>
<path style="fill:#9E9297;" d="M383.545,487.219c0,14.935-17.802,16.904-39.739,16.904s-39.739-1.961-39.739-16.904"/>
<path style="fill:#CE5715;" d="M413.579,124.258c0,63.008-57.738,94.681-128.937,94.681c-71.215,0-128.969-31.673-128.969-94.681
	C155.673,61.235,213.427,0,284.642,0C355.842,0,413.579,61.235,413.579,124.258z"/>
<path style="fill:#F9A9A0;" d="M413.579,124.258c0,63.008-57.738,94.681-128.937,94.681c-71.215,0-128.969-31.673-128.969-94.681
	c0-63.023,40.511-94.066,111.726-94.066C338.591,30.192,413.579,61.235,413.579,124.258z"/>
<path style="fill:#FF9997;" d="M413.579,124.258c0,63.008-57.738,94.681-128.937,94.681c-71.215,0-128.969-31.673-128.969-94.681"/>
<circle style="fill:#113E49;" cx="204.605" cy="140.367" r="11.532"/>
<path d="M216.129,140.367c0,6.388-5.167,11.54-11.54,11.54s-11.524-5.152-11.524-11.54"/>
<path style="fill:#FFD3C5;" d="M227.345,164.423c-0.614,0-1.245-0.221-1.725-0.717c-5.632-5.624-13.107-8.72-21.047-8.72h-0.008
	c-7.94,0-15.399,3.104-21,8.712c-0.953,0.953-2.489,0.977-3.434,0.008c-0.953-0.922-0.985-2.458-0.032-3.419
	c6.538-6.546,15.218-10.161,24.458-10.161h0.016c9.263,0,17.952,3.592,24.505,10.145c0.937,0.937,0.937,2.505,0,3.434
	C228.606,164.202,227.991,164.423,227.345,164.423z"/>
<circle style="fill:#113E49;" cx="327.288" cy="140.367" r="11.532"/>
<path d="M315.717,140.367c0,6.388,5.151,11.54,11.54,11.54c6.372,0,11.524-5.152,11.524-11.54"/>
<path style="fill:#FFD3C5;" d="M304.5,164.423c0.599,0,1.229-0.221,1.709-0.717c5.632-5.624,13.107-8.72,21.047-8.72h0.016
	c7.94,0,15.415,3.104,21.016,8.712c0.937,0.953,2.473,0.977,3.434,0.008c0.953-0.922,0.969-2.458,0.016-3.419
	c-6.506-6.546-15.218-10.161-24.458-10.161h-0.016c-9.247,0-17.936,3.592-24.505,10.145c-0.922,0.937-0.922,2.505,0,3.434
	C303.24,164.202,303.854,164.423,304.5,164.423z"/>
<ellipse style="fill:#E87118;" cx="106.97" cy="357.234" rx="66.395" ry="47.884"/>
<path id="SVGCleanerId_0" style="fill:#F29C11;" d="M106.947,240.317c-28.522,0-51.649,16.675-51.649,37.25
	c0,4.104,0.969,8.058,2.678,11.76c1.048,5.112,2.355,10.949,2.355,17.117c-0.016,6.735-3.277,12.201-6.68,16.502
	c-2.418,2.347-4.521,4.836-6.309,7.475c-0.228,0.315-0.449,0.622-0.614,0.914c-3.938,6.112-6.183,12.91-6.183,20.086
	c0,26.451,29.72,47.9,66.402,47.884c36.667,0,66.387-21.433,66.387-47.884c0-7.192-2.261-13.989-6.199-20.11
	c-0.165-0.268-0.354-0.551-0.559-0.851c-1.804-2.662-3.931-5.175-6.365-7.522c-3.387-4.309-6.656-9.767-6.656-16.494
	c0-6.168,1.292-11.973,2.347-17.093c1.725-3.71,2.686-7.656,2.686-11.784C158.588,256.992,135.469,240.317,106.947,240.317z"/>
<g>
	<path id="SVGCleanerId_0_1_" style="fill:#F29C11;" d="M106.947,240.317c-28.522,0-51.649,16.675-51.649,37.25
		c0,4.104,0.969,8.058,2.678,11.76c1.048,5.112,2.355,10.949,2.355,17.117c-0.016,6.735-3.277,12.201-6.68,16.502
		c-2.418,2.347-4.521,4.836-6.309,7.475c-0.228,0.315-0.449,0.622-0.614,0.914c-3.938,6.112-6.183,12.91-6.183,20.086
		c0,26.451,29.72,47.9,66.402,47.884c36.667,0,66.387-21.433,66.387-47.884c0-7.192-2.261-13.989-6.199-20.11
		c-0.165-0.268-0.354-0.551-0.559-0.851c-1.804-2.662-3.931-5.175-6.365-7.522c-3.387-4.309-6.656-9.767-6.656-16.494
		c0-6.168,1.292-11.973,2.347-17.093c1.725-3.71,2.686-7.656,2.686-11.784C158.588,256.992,135.469,240.317,106.947,240.317z"/>
</g>
<path style="fill:#F4B831;" d="M55.306,277.559c0,4.104,0.969,8.058,2.678,11.76c1.048,5.112,2.355,10.949,2.355,17.117
	c-0.016,6.735-3.277,12.201-6.68,16.502c-2.418,2.347-4.521,4.836-6.309,7.475c-0.228,0.315-0.449,0.622-0.614,0.914
	c-3.938,6.112-6.183,12.91-6.183,20.086c0,11.997,6.152,22.93,16.25,31.334l101.494-101.494c0.173-1.213,0.291-2.45,0.291-3.694
	c0-20.567-23.119-37.25-51.641-37.25S55.306,256.992,55.306,277.559z"/>
<path d="M122.96,270.887c-0.016,5.671-9.712,5.128-15.384,5.128h-1.276c-5.671,0-15.368,0.528-15.368-5.128l5.12-124.282
	c0-5.671,4.584-10.256,10.248-10.256h1.292c5.656,0,10.24,4.584,10.24,10.256L122.96,270.887z"/>
<path d="M123.165,139.973c0,5.656-4.584,10.256-10.232,10.256H100.96c-5.664,0-10.248-4.584-10.248-10.256v-25.624
	c0-5.656,4.576-10.248,10.248-10.248h11.957c5.664,0,10.248,4.592,10.248,10.264V139.973z"/>
<g>
	<path style="fill:#3A382D;" d="M122.96,265.515c0,5.664-9.704,5.136-15.384,5.136h-1.276c-5.671,0-15.368,0.52-15.368-5.136
		l5.12-124.274c0-5.663,4.584-10.256,10.248-10.256h1.276c5.671,0,10.256,4.592,10.256,10.256L122.96,265.515z"/>
	<path style="fill:#3A382D;" d="M123.165,134.609c0,5.671-4.584,10.256-10.232,10.256H100.96c-5.664,0-10.256-4.584-10.248-10.256
		v-25.616c-0.008-5.671,4.584-10.264,10.248-10.264h11.973c5.648,0,10.232,4.592,10.232,10.248V134.609z"/>
</g>
<circle style="fill:#895B19;" cx="106.97" cy="305.31" r="21.465"/>
<path style="fill:#6D450F;" d="M106.947,290.989c10.618,0,19.385,7.743,21.094,17.881c0.197-1.166,0.354-2.347,0.37-3.568
	c-0.016-11.863-9.618-21.465-21.465-21.465c-11.863,0-21.472,9.602-21.472,21.465c0,1.221,0.173,2.402,0.362,3.576
	C87.546,298.74,96.321,290.989,106.947,290.989z"/>
<path style="fill:#442909;" d="M130.916,354.485c0,3.608,2.442,6.538-1.166,6.538H84.143c-3.608,0-1.174-2.93-1.174-6.538l0,0
	c0-3.616,2.922-6.538,6.538-6.538h34.879C127.994,347.947,130.916,350.87,130.916,354.485L130.916,354.485z"/>
<path style="fill:#6D450F;" d="M130.916,351.854c0,3.615,2.442,6.554-1.166,6.554l-45.615-0.016
	c-3.616,0.016-1.166-2.922-1.166-6.538l0,0c0-3.616,2.938-6.538,6.538-6.538h34.879
	C127.994,345.316,130.916,348.239,130.916,351.854L130.916,351.854z"/>
<g>
	<path style="fill:#E87118;" d="M87.821,107.796c0,1.481-1.197,2.678-2.678,2.678l0,0c-1.489,0-2.694-1.197-2.694-2.678v-1.804
		c0-1.481,1.197-2.678,2.694-2.678l0,0c1.481,0,2.678,1.197,2.678,2.678V107.796z"/>
	<path style="fill:#E87118;" d="M87.821,118.524c0,1.473-1.197,2.67-2.678,2.67l0,0c-1.489,0-2.694-1.197-2.694-2.67v-1.804
		c0-1.473,1.213-2.678,2.694-2.678l0,0c1.481,0,2.678,1.205,2.678,2.686V118.524z"/>
	<path style="fill:#E87118;" d="M87.821,129.245c0,1.481-1.197,2.686-2.678,2.686l0,0c-1.489,0-2.694-1.197-2.694-2.686v-1.796
		c0-1.481,1.197-2.678,2.694-2.686l0,0c1.481,0,2.678,1.205,2.694,2.686L87.821,129.245z"/>
	<path style="fill:#E87118;" d="M131.428,107.796c0,1.481-1.205,2.678-2.694,2.678l0,0c-1.481,0-2.678-1.197-2.678-2.694V106
		c0-1.489,1.197-2.686,2.678-2.686l0,0c1.481,0,2.694,1.189,2.694,2.686L131.428,107.796L131.428,107.796z"/>
	<path style="fill:#E87118;" d="M131.428,118.516c0,1.481-1.197,2.678-2.678,2.678l0,0c-1.489,0-2.694-1.197-2.694-2.678v-1.788
		c0-1.481,1.197-2.686,2.678-2.686l0,0c1.481,0,2.694,1.205,2.694,2.686L131.428,118.516L131.428,118.516z"/>
	<path style="fill:#E87118;" d="M131.428,129.237c0,1.489-1.197,2.694-2.694,2.694l0,0c-1.481,0-2.678-1.197-2.678-2.686v-1.796
		c0-1.481,1.197-2.678,2.678-2.686l0,0c1.481,0.008,2.694,1.205,2.694,2.686L131.428,129.237L131.428,129.237z"/>
</g>
<path style="fill:#F29C11;" d="M114.146,144.282c0.008,0.465-0.37,0.827-0.843,0.827h-12.737c-0.465,0-0.819-0.37-0.827-0.827l0,0
	c0-0.465,0.37-0.843,0.843-0.843h12.721C113.76,143.439,114.146,143.825,114.146,144.282L114.146,144.282z"/>
<g>
	<circle style="fill:#DDD3C3;" cx="106.97" cy="161.871" r="1.67"/>
	<circle style="fill:#DDD3C3;" cx="106.97" cy="185.021" r="1.67"/>
	<path style="fill:#DDD3C3;" d="M108.609,233.314c0,0.922-0.74,1.678-1.662,1.678c-0.922-0.016-1.678-0.756-1.678-1.694
		c-0.016-0.906,0.756-1.662,1.678-1.67C107.868,231.637,108.609,232.393,108.609,233.314z"/>
	<circle style="fill:#DDD3C3;" cx="103.418" cy="207.163" r="1.678"/>
	<circle style="fill:#DDD3C3;" cx="110.46" cy="207.163" r="1.686"/>
</g>
<g>
	<path style="fill:#107889;" d="M324.578,288.382c-4.049,0-7.767,1.331-10.784,3.553c2.276-2.529,5.285-4.45,8.822-5.404
		c7.995-2.135,16.195,1.378,20.315,8.105c0.032-1.709-0.165-3.45-0.63-5.183c-2.607-9.744-12.619-15.525-22.363-12.91
		c-3.915,1.04-7.168,3.293-9.515,6.231c1.536-3.04,3.954-5.687,7.129-7.515c7.176-4.143,16.006-2.859,21.717,2.576
		c-0.402-1.662-1.048-3.293-1.938-4.844c-5.049-8.736-16.219-11.729-24.946-6.695c-3.426,1.977-5.947,4.892-7.467,8.223
		c0.74-3.237,2.308-6.317,4.836-8.838c5.868-5.86,14.714-6.908,21.638-3.127c-0.819-1.497-1.859-2.914-3.119-4.183
		c-7.136-7.129-18.708-7.129-25.828,0c-2.859,2.851-4.553,6.428-5.112,10.138c-0.173-3.395,0.591-6.884,2.426-10.051
		c4.135-7.176,12.43-10.476,20.094-8.633c-1.182-1.229-2.552-2.324-4.104-3.23c-8.736-5.041-19.897-2.048-24.946,6.695
		c-2.024,3.497-2.733,7.389-2.316,11.13c-1.063-3.237-1.221-6.814-0.276-10.358c2.15-8.003,9.295-13.328,17.187-13.525
		c-1.465-0.89-3.072-1.599-4.797-2.064c-9.752-2.615-19.771,3.167-22.37,12.91c-1.063,3.915-0.725,7.861,0.646,11.359
		c-1.859-2.859-2.938-6.27-2.938-9.941c0-8.287,5.514-15.281,13.076-17.518c-1.631-0.488-3.371-0.748-5.167-0.748
		c-10.09,0-18.259,8.176-18.259,18.259c0,4.049,1.331,7.767,3.552,10.791c-2.529-2.276-4.45-5.285-5.404-8.822
		c-2.143-8.011,1.386-16.195,8.113-20.307c-1.717-0.039-3.45,0.15-5.191,0.614c-9.736,2.607-15.525,12.627-12.918,22.378
		c1.055,3.907,3.3,7.16,6.239,9.507c-3.04-1.544-5.687-3.954-7.522-7.136c-4.135-7.176-2.859-15.998,2.584-21.717
		c-1.662,0.402-3.3,1.04-4.844,1.938c-8.736,5.049-11.737,16.219-6.695,24.946c1.977,3.426,4.892,5.947,8.231,7.467
		c-3.237-0.74-6.325-2.316-8.846-4.836c-5.86-5.86-6.908-14.706-3.127-21.638c-1.497,0.819-2.914,1.851-4.191,3.119
		c-7.121,7.129-7.121,18.7,0,25.836c2.867,2.859,6.443,4.553,10.169,5.112c-3.411,0.173-6.908-0.591-10.075-2.426
		c-7.184-4.135-10.476-12.43-8.617-20.094c-1.245,1.166-2.347,2.544-3.245,4.104c-5.049,8.728-2.048,19.897,6.688,24.946
		c3.497,2.024,7.396,2.733,11.13,2.316c-3.237,1.056-6.806,1.213-10.342,0.268c-8.011-2.143-13.344-9.295-13.533-17.18
		c-0.89,1.465-1.599,3.072-2.064,4.797c-2.615,9.736,3.167,19.755,12.91,22.37c3.907,1.048,7.845,0.725,11.351-0.638
		c-2.859,1.851-6.27,2.93-9.933,2.93c-8.287,0-15.281-5.522-17.518-13.091c-0.488,1.646-0.756,3.379-0.756,5.175
		c0,10.082,8.184,18.259,18.267,18.259c4.057,0,7.775-1.339,10.823-3.568c-2.292,2.536-5.309,4.466-8.854,5.419
		c-8.011,2.143-16.195-1.386-20.307-8.105c-0.039,1.709,0.165,3.45,0.622,5.183c2.599,9.736,12.619,15.525,22.37,12.918
		c3.899-1.056,7.152-3.293,9.492-6.223c-1.536,3.033-3.954,5.671-7.121,7.499c-7.176,4.143-15.998,2.851-21.717-2.576
		c0.41,1.662,1.048,3.293,1.946,4.844c5.041,8.736,16.203,11.729,24.946,6.695c3.419-1.977,5.931-4.884,7.452-8.216
		c-0.74,3.23-2.308,6.309-4.829,8.83c-5.86,5.86-14.706,6.9-21.646,3.119c0.819,1.505,1.859,2.922,3.127,4.183
		c7.129,7.136,18.7,7.136,25.828,0c2.867-2.859,4.561-6.443,5.12-10.161c0.181,3.411-0.591,6.9-2.426,10.082
		c-4.135,7.184-12.422,10.476-20.094,8.625c1.182,1.237,2.552,2.332,4.104,3.23c8.728,5.049,19.905,2.056,24.938-6.688
		c2.032-3.497,2.741-7.389,2.332-11.122c1.048,3.237,1.205,6.814,0.26,10.342c-2.143,8.011-9.303,13.336-17.18,13.533
		c1.465,0.89,3.064,1.599,4.797,2.064c9.736,2.607,19.763-3.167,22.37-12.918c1.048-3.907,0.725-7.853-0.646-11.351
		c1.859,2.851,2.938,6.27,2.938,9.933c0,8.294-5.522,15.289-13.091,17.518c1.646,0.488,3.379,0.748,5.167,0.748
		c10.09,0,18.259-8.168,18.259-18.259c0-4.049-1.323-7.775-3.552-10.799c2.536,2.276,4.458,5.293,5.419,8.838
		c2.135,8.011-1.378,16.195-8.105,20.307c1.709,0.039,3.45-0.158,5.183-0.622c9.736-2.607,15.525-12.627,12.926-22.363
		c-1.063-3.915-3.308-7.16-6.246-9.515c3.048,1.552,5.679,3.962,7.507,7.136c4.151,7.176,2.867,15.99-2.568,21.709
		c1.662-0.394,3.293-1.04,4.844-1.938c8.736-5.041,11.729-16.219,6.695-24.946c-1.977-3.426-4.892-5.947-8.231-7.467
		c3.245,0.74,6.325,2.324,8.846,4.836c5.853,5.86,6.9,14.714,3.119,21.646c1.505-0.819,2.907-1.859,4.183-3.127
		c7.136-7.136,7.136-18.692,0-25.828c-2.859-2.859-6.428-4.553-10.138-5.112c3.403-0.173,6.892,0.591,10.059,2.426
		c7.184,4.135,10.476,12.414,8.617,20.094c1.252-1.182,2.339-2.552,3.245-4.104c5.041-8.736,2.048-19.905-6.695-24.946
		c-3.505-2.024-7.396-2.733-11.138-2.316c3.245-1.063,6.814-1.221,10.358-0.276c8.003,2.15,13.328,9.295,13.533,17.187
		c0.89-1.465,1.599-3.072,2.064-4.797c2.615-9.744-3.167-19.755-12.918-22.37c-3.915-1.055-7.869-0.725-11.359,0.646
		c2.859-1.859,6.27-2.946,9.941-2.946c8.294,0,15.281,5.522,17.518,13.091c0.488-1.638,0.748-3.379,0.748-5.167
		C342.837,296.558,334.668,288.382,324.578,288.382z M306.414,308.074c-1.237,1.733-2.206,3.694-2.788,5.86
		c-0.134,0.48-0.181,0.937-0.268,1.41c-1.646,1.355-3.08,2.993-4.206,4.947c-0.236,0.417-0.417,0.843-0.622,1.276
		c-1.938,0.874-3.757,2.095-5.356,3.694c-0.339,0.339-0.622,0.725-0.937,1.079c-2.095,0.354-4.167,1.063-6.105,2.182
		c-0.418,0.236-0.788,0.52-1.174,0.803c-2.119-0.205-4.301-0.063-6.467,0.52c-0.473,0.126-0.906,0.307-1.355,0.465
		c-1.993-0.748-4.135-1.166-6.396-1.166c-0.48,0-0.937,0.063-1.418,0.102c-1.733-1.237-3.694-2.206-5.86-2.788
		c-0.473-0.126-0.937-0.173-1.41-0.268c-1.347-1.638-2.993-3.08-4.947-4.206c-0.417-0.236-0.851-0.425-1.284-0.622
		c-0.882-1.938-2.095-3.757-3.686-5.348c-0.347-0.347-0.725-0.622-1.095-0.937c-0.339-2.103-1.048-4.159-2.166-6.113
		c-0.244-0.417-0.52-0.788-0.803-1.174c0.205-2.119,0.063-4.301-0.52-6.483c-0.126-0.465-0.307-0.898-0.48-1.347
		c0.756-1.993,1.182-4.128,1.182-6.388c0-0.488-0.071-0.945-0.11-1.426c1.237-1.733,2.206-3.694,2.788-5.868
		c0.126-0.473,0.181-0.929,0.268-1.402c1.646-1.347,3.096-3.001,4.214-4.947c0.236-0.425,0.417-0.859,0.622-1.284
		c1.938-0.882,3.757-2.103,5.341-3.686c0.347-0.347,0.63-0.725,0.937-1.079c2.095-0.354,4.167-1.063,6.12-2.182
		c0.417-0.244,0.788-0.528,1.174-0.803c2.119,0.197,4.301,0.063,6.483-0.52c0.465-0.126,0.89-0.307,1.339-0.465
		c1.993,0.74,4.135,1.166,6.388,1.166c0.488,0,0.953-0.071,1.434-0.11c1.725,1.237,3.694,2.206,5.86,2.788
		c0.465,0.134,0.937,0.181,1.402,0.276c1.355,1.638,3.001,3.088,4.955,4.206c0.417,0.236,0.843,0.417,1.276,0.622
		c0.874,1.938,2.111,3.757,3.694,5.341c0.339,0.347,0.725,0.63,1.079,0.937c0.354,2.103,1.055,4.167,2.182,6.12
		c0.236,0.418,0.52,0.788,0.803,1.174c-0.213,2.119-0.063,4.301,0.512,6.475c0.134,0.473,0.315,0.898,0.473,1.347
		c-0.748,1.993-1.166,4.135-1.166,6.396C306.319,307.137,306.382,307.602,306.414,308.074z"/>
	<path style="fill:#107889;" d="M277.285,282.931c-8.83,0-15.982,7.16-15.982,15.99c0,0.402,0.024,0.796,0.055,1.182
		c-0.032,0.394-0.055,0.788-0.055,1.182c0,8.83,7.152,15.982,15.982,15.982s15.982-7.152,15.982-15.982
		c0-0.402-0.016-0.796-0.047-1.182c0.032-0.394,0.047-0.788,0.047-1.182C293.267,290.091,286.115,282.931,277.285,282.931z
		 M277.285,312.029c-7.412,0-13.643-5.065-15.447-11.926c1.804-6.861,8.034-11.926,15.447-11.926c7.42,0,13.643,5.065,15.447,11.926
		C290.936,306.972,284.713,312.029,277.285,312.029z"/>
</g>
<g>
</g>
<g>
</g>
<g>
</g>
<g>
</g>
<g>
</g>
<g>
</g>
<g>
</g>
<g>
</g>
<g>
</g>
<g>
</g>
<g>
</g>
<g>
</g>
<g>
</g>
<g>
</g>
<g>
</g>
</svg>
