<?xml version="1.0" encoding="iso-8859-1"?>
<!-- Generator: Adobe Illustrator 19.0.0, SVG Export Plug-In . SVG Version: 6.00 Build 0)  -->
<svg version="1.1" id="Layer_1" xmlns="http://www.w3.org/2000/svg" xmlns:xlink="http://www.w3.org/1999/xlink" x="0px" y="0px"
	 viewBox="0 0 504.123 504.123" style="enable-background:new 0 0 504.123 504.123;" xml:space="preserve">
<g>
	<path style="fill:#0698BF;" d="M216.541,361.913c0,19.503-15.817,124.668-35.336,124.668c-19.495,0-35.304-105.173-35.304-124.668
		c0-19.495,15.817-35.32,35.304-35.32C200.724,326.593,216.541,342.418,216.541,361.913z"/>
	<path style="fill:#0698BF;" d="M334.9,361.913c0,19.503-15.817,124.668-35.336,124.668c-19.495,0-35.304-105.173-35.304-124.668
		c0-19.495,15.817-35.32,35.304-35.32C319.083,326.593,334.9,342.418,334.9,361.913z"/>
</g>
<path style="fill:#0D914F;" d="M340.035,315.242c0,126.33-44.599,84.259-99.643,84.259c-55.028,0-99.643,42.071-99.643-84.259
	c0-72.231,44.631-130.781,99.643-130.781C295.421,184.47,340.035,243.019,340.035,315.242z"/>
<path style="fill:#087C3F;" d="M340.035,315.242c0,126.33-44.599,84.259-99.643,84.259c-55.028,0-99.643,42.071-99.643-84.259
	c0-72.231,44.631-130.781,99.643-130.781C295.421,184.47,340.035,243.019,340.035,315.242z"/>
<path style="fill:#0D914F;" d="M240.392,184.47c-51.413,0-93.735,51.153-99.06,116.815c5.356,98.123,47.663,61.464,99.06,61.464
	c51.413,0,93.704,36.659,99.06-61.464C334.143,235.622,291.821,184.47,240.392,184.47z"/>
<path style="fill:#0AC4A9;" d="M220.96,487.219c0,14.935-17.802,16.904-39.739,16.904s-39.739-1.961-39.739-16.904
	c0-14.943,17.802-35.509,39.739-35.509S220.96,472.277,220.96,487.219z"/>
<path style="fill:#04AA8E;" d="M220.96,487.219c0,14.935-17.802,16.904-39.739,16.904s-39.739-1.961-39.739-16.904"/>
<path style="fill:#0AC4A9;" d="M339.311,487.219c0,14.935-17.802,16.904-39.739,16.904s-39.739-1.961-39.739-16.904
	c0-14.943,17.802-35.509,39.739-35.509S339.311,472.277,339.311,487.219z"/>
<path style="fill:#04AA8E;" d="M339.311,487.219c0,14.935-17.802,16.904-39.739,16.904s-39.739-1.961-39.739-16.904"/>
<path style="fill:#F9BD82;" d="M369.345,124.258c0,63.008-57.738,94.681-128.937,94.681c-71.215,0-128.969-31.673-128.969-94.681
	C111.431,61.235,169.185,0,240.4,0C311.608,0,369.345,61.235,369.345,124.258z"/>
<path style="fill:#EDA366;" d="M369.345,124.258c0,63.008-57.738,94.681-128.937,94.681c-71.215,0-128.969-31.673-128.969-94.681"/>
<circle style="fill:#113E49;" cx="179.031" cy="139.028" r="11.532"/>
<path d="M190.602,139.051c0,6.388-5.167,11.54-11.54,11.54s-11.524-5.152-11.524-11.54"/>
<path style="fill:#FFD3C5;" d="M201.819,163.107c-0.614,0-1.245-0.221-1.725-0.717c-5.632-5.624-13.107-8.72-21.047-8.72h-0.016
	c-7.94,0-15.399,3.104-21,8.712c-0.953,0.953-2.489,0.977-3.434,0.008c-0.953-0.922-0.985-2.458-0.032-3.419
	c6.538-6.546,15.218-10.161,24.458-10.161h0.016c9.263,0,17.952,3.592,24.505,10.145c0.937,0.937,0.937,2.505,0,3.434
	C203.079,162.887,202.465,163.107,201.819,163.107z"/>
<circle style="fill:#113E49;" cx="301.722" cy="139.028" r="11.532"/>
<path d="M290.19,139.051c0,6.388,5.152,11.54,11.54,11.54c6.372,0,11.524-5.152,11.524-11.54"/>
<path style="fill:#FFD3C5;" d="M278.973,163.107c0.599,0,1.229-0.221,1.709-0.717c5.632-5.624,13.107-8.72,21.047-8.72h0.016
	c7.94,0,15.415,3.104,21.016,8.712c0.937,0.953,2.473,0.977,3.434,0.008c0.953-0.922,0.969-2.458,0.016-3.419
	c-6.506-6.546-15.218-10.161-24.458-10.161h-0.016c-9.247,0-17.936,3.592-24.505,10.145c-0.922,0.937-0.922,2.505,0,3.434
	C277.713,162.887,278.328,163.107,278.973,163.107z"/>
<path style="fill:#AA1111;" d="M268.836,164.423c0,3.631-12.737,15.935-28.428,15.935s-28.428-12.304-28.428-15.935
	c0-3.647,12.737-1.481,28.428-1.481S268.836,160.776,268.836,164.423z"/>
<path style="fill:#EDA366;" d="M333.631,291.643c4.742-14.344-9.862-32.02-32.603-39.534
	c-22.709-7.491-138.398-32.713-143.155-18.408c-4.71,14.336,103.353,62.818,126.078,70.309
	C306.669,311.517,328.913,305.971,333.631,291.643z"/>
<path style="fill:#F9BD82;" d="M147.145,291.643c-4.742-14.344,9.862-32.02,32.603-39.534
	c22.709-7.491,138.398-32.713,143.155-18.408c4.71,14.336-103.353,62.818-126.078,70.309
	C174.108,311.517,151.864,305.971,147.145,291.643z"/>
<path style="fill:#5F7277;" d="M284.7,240.569c-0.859-3.285-1.449-6.412-1.906-9.452c-2.213,0.268-4.458,0.551-6.766,0.859
	c0.354,4.506,1.15,9.492,2.521,14.746c1.709,6.498,3.97,12.304,6.412,16.927c2.521-1.371,4.955-2.725,7.31-4.072
	C289.371,254.7,286.669,248.084,284.7,240.569z"/>
<circle style="fill:#0698BF;" cx="279.619" cy="240.561" r="13.627"/>
<circle style="fill:#A3E1EF;" cx="278.588" cy="239.025" r="7.633"/>
<path style="fill:#0AC4A9;" d="M240.4,0c-62.874,0-115.2,47.75-126.598,102.313l122.526-38.644L224.512,87.3l70.892-21.662
	l-7.877,18.708L330.851,61.7l33.753,31.508C349.59,42.559,299.745,0,240.4,0z"/>
<ellipse transform="matrix(0.9858 -0.1682 0.1682 0.9858 -54.5632 42.7674)" style="fill:#CC055F;" cx="225.184" cy="343.483" rx="10.595" ry="21.04"/>
<ellipse transform="matrix(0.9857 -0.1683 0.1683 0.9857 -59.0901 28.4852)" style="fill:#AF095C;" cx="138.494" cy="362.826" rx="48.812" ry="67.692"/>
<path style="fill:#F29C11;" d="M191.878,367.939c-20.677,3.521-35.304-29.003-40.204-57.659s9.169,0.528,29.83-3.009
	c20.677-3.529,34.958-20.897,39.849,7.759S212.555,364.402,191.878,367.939z"/>
<path style="fill:#BC005E;" d="M246.174,371.184c-6.372-10.587-14.249-18.345-22.788-23.56
	c10.508-11.429,19.188-26.238,22.181-40.897c6.443-31.327-43.386-2.985-64.063,0.543c-6.751,1.15-12.816-1.189-17.723-3.868
	c-2.757-2.024-5.632-3.718-8.586-5.065c-0.354-0.189-0.725-0.339-1.048-0.457c-6.814-2.907-14.013-4.001-21.228-2.781
	c-26.585,4.537-43.032,38.101-36.738,74.949c6.294,36.848,32.941,63.063,59.526,58.51c7.215-1.221,13.643-4.663,19.141-9.665
	c0.244-0.213,0.504-0.48,0.788-0.756c2.355-2.261,4.506-4.821,6.443-7.664c3.757-4.151,8.68-8.365,15.431-9.523
	C218.187,397.438,262.621,398.604,246.174,371.184z"/>
<path style="fill:#D80579;" d="M246.174,371.184c-6.372-10.587-14.249-18.345-22.788-23.56
	c10.508-11.429,19.188-26.238,22.181-40.897c6.443-31.327-43.386-2.985-64.063,0.543c-6.751,1.15-12.816-1.189-17.723-3.868
	c-2.757-2.024-5.632-3.718-8.586-5.065c-0.354-0.189-0.725-0.339-1.048-0.457c-6.814-2.907-14.013-4.001-21.228-2.781
	c-11.524,1.969-21.126,9.389-27.813,20.165l116.704,82.66C240.345,395.272,257.375,389.853,246.174,371.184z"/>
<path d="M226.403,364.386c-5.679,0.985-6.798-8.877-7.767-14.564l-0.228-1.284c-0.969-5.711-3.167-15.376,2.521-16.345
	l125.802-16.179c5.679-0.969,11.091,2.851,12.044,8.546l0.213,1.292c0.985,5.687-2.844,11.091-8.539,12.044L226.403,364.386z"/>
<g>
	<path style="fill:#3A382D;" d="M233.374,363.197c-5.679,0.969-6.798-8.885-7.767-14.58l-0.228-1.276
		c-0.969-5.703-3.167-15.368,2.521-16.345l125.787-16.187c5.695-0.953,11.091,2.867,12.06,8.562l0.213,1.276
		c0.969,5.703-2.844,11.091-8.539,12.06L233.374,363.197z"/>
	<path style="fill:#3A382D;" d="M364.99,340.945c-5.679,0.969-11.075-2.836-12.06-8.539l-2.048-12.012
		c-0.969-5.703,2.844-11.091,8.539-12.06l43.307-0.425c6.034,0.244,11.264,0.89,12.06,8.546l0.095,1.079
		c1.969,14.013-10.831,6.727-16.542,7.696L364.99,340.945z"/>
</g>
<path style="fill:#D3D3D3;" d="M145.357,386.458c-3.631,0.622-6.152,3.568-6.782-0.071l-7.814-45.82
	c-0.63-3.639,2.741-1.686,6.372-2.3l0,0c3.631-0.622,7.073,1.812,7.696,5.451l5.971,35.037
	C151.422,382.401,148.973,385.827,145.357,386.458L145.357,386.458z"/>
<path style="fill:#E8E3DD;" d="M147.988,386.009c-3.631,0.614-6.152,3.584-6.766-0.055l-7.83-45.836
	c-0.614-3.623,2.757-1.686,6.372-2.308l0,0c3.647-0.599,7.073,1.827,7.712,5.459l5.971,35.044
	C154.069,381.944,151.619,385.386,147.988,386.009L147.988,386.009z"/>
<g>
	<path style="fill:#CC055F;" d="M405.374,306.026c-1.213,0.016-2.229-0.985-2.245-2.19l0,0c-0.016-1.237,0.985-2.245,2.213-2.261
		l1.489-0.024c1.213-0.016,2.245,0.977,2.245,2.198l0,0c0.016,1.245-0.969,2.253-2.213,2.261L405.374,306.026z"/>
	<path style="fill:#CC055F;" d="M396.466,306.129c-1.245,0.016-2.261-0.985-2.276-2.213l0,0c0-1.229,0.985-2.245,2.213-2.253
		l1.489-0.024c1.229-0.008,2.245,0.985,2.261,2.213l0,0c0.016,1.229-0.985,2.245-2.213,2.253L396.466,306.129z"/>
	<path style="fill:#CC055F;" d="M387.525,306.215c-1.229,0.024-2.245-0.961-2.245-2.19l0,0c-0.016-1.245,0.969-2.253,2.182-2.261
		l1.505-0.016c1.229-0.016,2.245,0.969,2.261,2.198l0,0c0,1.245-0.985,2.245-2.213,2.261L387.525,306.215z"/>
	<path style="fill:#CC055F;" d="M378.869,305.892c-1.229,0.008-2.245-0.985-2.245-2.206l0,0c-0.016-1.237,0.969-2.245,2.198-2.245
		l1.489-0.016c1.229-0.032,2.245,0.961,2.245,2.19l0,0c0.032,1.237-0.969,2.237-2.198,2.261L378.869,305.892z"/>
	<path style="fill:#CC055F;" d="M369.928,305.987c-1.213,0.016-2.229-0.977-2.245-2.206l0,0c-0.016-1.221,0.969-2.229,2.213-2.261
		l1.481-0.016c1.245,0,2.261,0.977,2.261,2.221l0,0c0.016,1.221-0.985,2.237-2.213,2.245L369.928,305.987z"/>
	<path style="fill:#CC055F;" d="M361.004,306.074c-1.229,0.016-2.229-0.969-2.245-2.198l0,0c-0.016-1.237,0.953-2.237,2.198-2.253
		l1.489-0.016c1.229-0.016,2.245,0.969,2.245,2.198l0,0c0.032,1.229-0.969,2.245-2.198,2.261L361.004,306.074z"/>
</g>
<path style="fill:#F29C11;" d="M353.725,333.548c-0.465,0.079-0.906-0.228-0.985-0.709l-2.182-12.8
	c-0.079-0.465,0.228-0.914,0.693-0.985l0,0c0.465-0.079,0.906,0.228,0.985,0.709l2.198,12.8
	C354.497,333.028,354.19,333.462,353.725,333.548L353.725,333.548z"/>
<g>
	<circle style="fill:#DDD3C3;" cx="334.758" cy="329.334" r="1.701"/>
	<circle style="fill:#DDD3C3;" cx="311.521" cy="333.288" r="1.701"/>
	<circle style="fill:#DDD3C3;" cx="263.015" cy="341.575" r="1.709"/>
	<path style="fill:#DDD3C3;" d="M288.985,335.242c-0.937,0.165-1.812-0.48-1.985-1.418c-0.142-0.914,0.465-1.804,1.402-1.961
		c0.937-0.15,1.812,0.473,1.969,1.402C290.529,334.194,289.915,335.069,288.985,335.242z"/>
	<circle style="fill:#DDD3C3;" cx="289.938" cy="340.63" r="1.717"/>
</g>
<path style="fill:#3A382D;" d="M170.185,378.313c-1.386,0.228-2.678-0.685-2.907-2.056l-6.089-35.635
	c-0.228-1.371,0.693-2.678,2.064-2.914l9.972-1.701c1.371-0.228,2.678,0.685,2.922,2.064l6.065,35.627
	c0.244,1.378-0.693,2.678-2.064,2.907L170.185,378.313z"/>
<g>
	<circle style="fill:#E8E3DD;" cx="169.342" cy="343.434" r="1.016"/>
	<circle style="fill:#E8E3DD;" cx="170.288" cy="348.956" r="1.008"/>
	<circle style="fill:#E8E3DD;" cx="171.233" cy="354.383" r="1.016"/>
	<circle style="fill:#E8E3DD;" cx="172.17" cy="359.897" r="1.008"/>
	<circle style="fill:#E8E3DD;" cx="173.108" cy="365.371" r="1"/>
	<circle style="fill:#E8E3DD;" cx="174.037" cy="370.861" r="1.008"/>
</g>
<path style="fill:#3A382D;" d="M191.603,374.65c-1.386,0.244-2.678-0.685-2.922-2.064l-6.073-35.619
	c-0.244-1.378,0.677-2.686,2.064-2.914l9.956-1.694c1.371-0.244,2.678,0.685,2.922,2.056l6.073,35.627
	c0.228,1.378-0.693,2.67-2.064,2.914L191.603,374.65z"/>
<g>
	<circle style="fill:#E8E3DD;" cx="190.776" cy="339.818" r="1.008"/>
	<circle style="fill:#E8E3DD;" cx="191.713" cy="345.324" r="1.008"/>
	<circle style="fill:#E8E3DD;" cx="192.642" cy="350.759" r="1.008"/>
	<circle style="fill:#E8E3DD;" cx="193.603" cy="356.257" r="1.016"/>
	<circle style="fill:#E8E3DD;" cx="194.549" cy="361.708" r="1.008"/>
	<circle style="fill:#E8E3DD;" cx="195.447" cy="367.222" r="1.008"/>
</g>
<g>
</g>
<g>
</g>
<g>
</g>
<g>
</g>
<g>
</g>
<g>
</g>
<g>
</g>
<g>
</g>
<g>
</g>
<g>
</g>
<g>
</g>
<g>
</g>
<g>
</g>
<g>
</g>
<g>
</g>
</svg>
