<?xml version="1.0" encoding="iso-8859-1"?>
<!-- Generator: Adobe Illustrator 19.0.0, SVG Export Plug-In . SVG Version: 6.00 Build 0)  -->
<svg version="1.1" id="Layer_1" xmlns="http://www.w3.org/2000/svg" xmlns:xlink="http://www.w3.org/1999/xlink" x="0px" y="0px"
	 viewBox="0 0 504.123 504.123" style="enable-background:new 0 0 504.123 504.123;" xml:space="preserve">
<g>
	<path style="fill:#454949;" d="M407.097,126.637c2.584,2.584,2.584,6.782,0,9.381l-7.861,7.861c-2.599,2.592-6.798,2.592-9.397,0
		l-17.14-29.349c-2.584-2.592-2.584-6.79,0-9.389l7.877-7.861c2.584-2.584,6.782-2.584,9.381,0L407.097,126.637z"/>
	<path style="fill:#454949;" d="M422.236,46.364l-58.911,58.912l9.523,9.515l16.983,29.089c2.599,2.592,6.798,2.592,9.397,0
		l7.861-7.861c2.584-2.599,2.584-6.798,0-9.381l-9.2-15.746l15.462-15.447c2.599-2.607,1.245-5.474-1.371-8.082l-5.845-5.845
		l25.632-25.616L422.236,46.364z M404.246,90.364c2.095,2.08,3.45,4.104,1.371,6.191l-10.169,10.153l-5.341-9.153L400.78,86.89
		L404.246,90.364z"/>
</g>
<path style="fill:#252828;" d="M397.897,110.891l15.462-15.447c2.599-2.607,1.245-5.474-1.371-8.082l-5.845-5.845l25.632-25.616
	l-9.539-9.539l-58.911,58.912l9.523,9.515 M404.246,90.364c2.095,2.08,3.45,4.104,1.371,6.191l-10.169,10.153l-5.341-9.153
	L400.78,86.89L404.246,90.364z"/>
<polygon style="fill:#2ABA9E;" points="402.079,98.217 399.835,100.462 392.556,96.358 396.384,92.514 "/>
<polyline style="fill:#1A9992;" points="392.556,96.358 396.384,92.514 402.079,98.217 "/>
<g>
	<polygon style="fill:#2ABA9E;" points="408.972,24.072 412.863,30.964 353.644,90.175 361.6,103.55 427.278,37.872 416.927,27.514 
		416.62,27.207 411.232,21.827 	"/>
	<path style="fill:#2ABA9E;" d="M382.679,113.231l-6.782,6.774l1.418,2.434l7.294-7.294c0.52-0.528,0.52-1.386,0-1.922
		C384.065,112.703,383.198,112.703,382.679,113.231z"/>
	<path style="fill:#2ABA9E;" d="M386.743,118.871l-7.263,7.278l1.402,2.418l7.782-7.767c0.52-0.528,0.52-1.386,0-1.922
		C388.122,118.343,387.279,118.343,386.743,118.871z"/>
	<path style="fill:#2ABA9E;" d="M384.467,134.688l7.491-7.491c0.536-0.528,0.536-1.386,0-1.914c-0.52-0.528-1.386-0.528-1.906,0
		l-6.987,6.995L384.467,134.688z"/>
</g>
<path style="fill:#252828;" d="M431.831,52.744c0.843,0.843,0.843,2.221,0,3.08l0,0c-0.843,0.843-2.229,0.843-3.08,0l-6.475-6.475
	c-0.843-0.843-0.843-2.221,0-3.08l0,0c0.843-0.843,2.229-0.843,3.08,0.008L431.831,52.744z"/>
<polygon style="fill:#1A9992;" points="356.614,95.161 361.6,103.55 427.278,37.872 420.59,31.193 "/>
<g>
	<path style="fill:#2ABA9E;" d="M426.183,36.777c0.599,0.607,0.599,1.583,0,2.19l0,0c-0.599,0.599-1.583,0.607-2.182,0l-4.616-4.616
		c-0.614-0.599-0.599-1.583,0-2.19l0,0c0.599-0.599,1.583-0.599,2.182,0L426.183,36.777z"/>
	<circle style="fill:#2ABA9E;" cx="398.811" cy="78.501" r="1.796"/>
	<circle style="fill:#2ABA9E;" cx="405.443" cy="71.893" r="1.796"/>
	<circle style="fill:#2ABA9E;" cx="412.044" cy="65.292" r="1.796"/>
</g>
<g>
	<path style="fill:#232728;" d="M251.985,258.095c11.28,10.027,33.311,3.663,49.231-14.218
		c15.896-17.881,85.016-114.018,73.767-124.062c-11.296-10.012-98.721,69.892-114.617,87.773
		C244.478,225.445,240.729,248.06,251.985,258.095z"/>
	<path style="fill:#232728;" d="M210.804,203.768c10.027,11.28,3.663,33.304-14.218,49.223
		c-17.881,15.896-114.018,85.024-124.062,73.767c-10.012-11.288,69.892-98.714,87.773-114.601
		C178.154,196.254,200.769,192.496,210.804,203.768z"/>
	<path style="fill:#232728;" d="M197.941,361.913c0,19.503-15.817,124.668-35.336,124.668c-19.495,0-35.304-105.173-35.304-124.668
		c0-19.495,15.817-35.32,35.304-35.32C182.124,326.593,197.941,342.418,197.941,361.913z"/>
	<path style="fill:#232728;" d="M316.292,361.913c0,19.503-15.817,124.668-35.336,124.668c-19.495,0-35.304-105.173-35.304-124.668
		c0-19.495,15.817-35.32,35.304-35.32C300.475,326.593,316.292,342.418,316.292,361.913z"/>
	<path style="fill:#232728;" d="M321.435,315.242c0,126.33-44.599,84.259-99.643,84.259c-55.028,0-99.643,42.071-99.643-84.259
		c0-72.231,44.631-130.781,99.643-130.781C276.821,184.47,321.435,243.019,321.435,315.242z"/>
</g>
<polygon style="fill:#B7CACE;" points="265.021,205.454 221.785,303.821 178.556,205.454 221.785,138.594 "/>
<path style="fill:#505B5A;" d="M202.352,487.219c0,14.935-17.802,16.904-39.739,16.904s-39.731-1.961-39.731-16.904
	c0-14.943,17.802-35.509,39.739-35.509S202.352,472.277,202.352,487.219z"/>
<path style="fill:#3C4746;" d="M202.352,487.219c0,14.935-17.802,16.904-39.739,16.904s-39.731-1.961-39.731-16.904"/>
<path style="fill:#505B5A;" d="M320.711,487.219c0,14.935-17.802,16.904-39.739,16.904c-21.937,0-39.739-1.961-39.739-16.904
	c0-14.943,17.802-35.509,39.739-35.509C302.909,451.71,320.711,472.277,320.711,487.219z"/>
<path style="fill:#3C4746;" d="M320.711,487.219c0,14.935-17.802,16.904-39.739,16.904c-21.937,0-39.739-1.961-39.739-16.904"/>
<path style="fill:#E8B085;" d="M350.738,124.258c0,63.008-57.738,94.681-128.937,94.681c-71.215,0-128.969-31.673-128.969-94.681
	C92.831,61.235,150.585,0,221.8,0C293,0,350.738,61.235,350.738,124.258z"/>
<path style="fill:#DD9F76;" d="M350.738,124.258c0,63.008-57.738,94.681-128.937,94.681c-71.215,0-128.969-31.673-128.969-94.681"/>
<circle style="fill:#113E49;" cx="160.471" cy="75.461" r="11.532"/>
<path d="M172.002,75.477c0,6.388-5.167,11.54-11.54,11.54c-6.372,0-11.524-5.152-11.524-11.54"/>
<path style="fill:#F4C3A2;" d="M183.219,99.533c-0.614,0-1.245-0.221-1.725-0.717c-5.632-5.624-13.107-8.72-21.047-8.72h-0.016
	c-7.94,0-15.399,3.104-21,8.712c-0.953,0.953-2.489,0.985-3.434,0.008c-0.953-0.922-0.985-2.458-0.032-3.419
	c6.538-6.546,15.218-10.161,24.458-10.161h0.016c9.263,0,17.951,3.592,24.505,10.145c0.937,0.937,0.937,2.505,0,3.434
	C184.479,99.304,183.865,99.533,183.219,99.533z"/>
<circle style="fill:#113E49;" cx="283.114" cy="75.461" r="11.532"/>
<path d="M271.59,75.477c0,6.388,5.151,11.54,11.54,11.54c6.372,0,11.524-5.152,11.524-11.54"/>
<path style="fill:#F4C3A2;" d="M260.374,99.533c0.599,0,1.229-0.221,1.709-0.717c5.632-5.624,13.107-8.72,21.047-8.72h0.016
	c7.94,0,15.415,3.104,21.016,8.712c0.937,0.953,2.473,0.985,3.434,0.008c0.953-0.922,0.969-2.458,0.016-3.419
	c-6.506-6.546-15.218-10.161-24.458-10.161h-0.016c-9.247,0-17.936,3.592-24.505,10.145c-0.922,0.937-0.922,2.505,0,3.434
	C259.113,99.304,259.728,99.533,260.374,99.533z"/>
<path style="fill:#663F24;" d="M225.432,109.71c0,0-13.477-29.003-49.719-5.175c-36.234,23.828-39.353,16.565-39.353,16.565
	s38.321,27.987,79.754,10.382l6.215-5.199L225.432,109.71z"/>
<path style="fill:#543722;" d="M136.359,121.092c0,0,38.321,27.987,79.754,10.382l6.215-5.199l3.111-16.573"/>
<path style="fill:#663F24;" d="M218.153,109.71c0,0,13.462-29.003,49.711-5.175s39.353,16.565,39.353,16.565
	s-38.305,27.987-79.738,10.382l-6.231-5.199L218.153,109.71z"/>
<path style="fill:#543722;" d="M307.218,121.092c0,0-38.305,27.987-79.738,10.382l-6.231-5.199l-3.096-16.573"/>
<path d="M213.585,78.47c0,12.123-9.83,21.953-21.937,21.953h-30.2c-12.138,0-21.953-9.83-21.953-21.953V66.592
	c0-12.13,9.815-21.961,21.953-21.961h30.2c12.107,0,21.937,9.83,21.937,21.961V78.47z"/>
<path d="M166.032,53.776c0,5.065-4.104,9.153-9.153,9.153h-51.216c-5.065,0-9.153-4.096-9.153-9.153l0,0
	c0-5.065,4.096-9.145,9.153-9.145h51.216C161.928,44.631,166.032,48.719,166.032,53.776L166.032,53.776z"/>
<path d="M230,78.47c0,12.123,9.815,21.953,21.937,21.953h30.184c12.138,0,21.953-9.83,21.953-21.953V66.592
	c0-12.13-9.815-21.961-21.953-21.961h-30.184c-12.123,0-21.937,9.83-21.937,21.961L230,78.47L230,78.47z"/>
<path d="M277.553,53.776c0,5.065,4.096,9.153,9.153,9.153h51.216c5.049,0,9.153-4.096,9.153-9.153l0,0
	c0-5.065-4.104-9.145-9.153-9.145h-51.216C281.649,44.631,277.553,48.719,277.553,53.776L277.553,53.776z"/>
<path d="M187.953,53.776c0,5.065,4.096,9.153,9.153,9.153h51.216c5.049,0,9.153-4.096,9.153-9.153l0,0
	c0-5.065-4.104-9.145-9.153-9.145h-51.216C192.049,44.631,187.953,48.719,187.953,53.776L187.953,53.776z"/>
<g>
	<polygon style="fill:#232728;" points="221.619,232.763 197.004,243.854 197.004,219.238 221.619,230.329 	"/>
	<polygon style="fill:#232728;" points="221.958,230.329 246.573,219.238 246.573,243.854 221.958,232.763 	"/>
	<path style="fill:#232728;" d="M228.724,231.55c0,3.253-2.647,5.892-5.892,5.892h-2.095c-3.245,0-5.892-2.639-5.892-5.892l0,0
		c0-3.253,2.647-5.892,5.892-5.892h2.095C226.077,225.65,228.724,228.289,228.724,231.55L228.724,231.55z"/>
</g>
<g>
	<circle style="fill:#505B5A;" cx="221.785" cy="322.623" r="3.45"/>
	<circle style="fill:#505B5A;" cx="221.785" cy="339.361" r="3.45"/>
	<circle style="fill:#505B5A;" cx="221.785" cy="356.1" r="3.45"/>
</g>
<g>
</g>
<g>
</g>
<g>
</g>
<g>
</g>
<g>
</g>
<g>
</g>
<g>
</g>
<g>
</g>
<g>
</g>
<g>
</g>
<g>
</g>
<g>
</g>
<g>
</g>
<g>
</g>
<g>
</g>
</svg>
