<?xml version="1.0" encoding="iso-8859-1"?>
<!-- Generator: Adobe Illustrator 19.0.0, SVG Export Plug-In . SVG Version: 6.00 Build 0)  -->
<svg version="1.1" id="Layer_1" xmlns="http://www.w3.org/2000/svg" xmlns:xlink="http://www.w3.org/1999/xlink" x="0px" y="0px"
	 viewBox="0 0 504.123 504.123" style="enable-background:new 0 0 504.123 504.123;" xml:space="preserve">
<g>
	<path style="fill:#824323;" d="M256.654,239.159c-0.866,15.061-20.96,26.128-44.851,24.757
		c-23.875-1.41-140.745-20.504-139.894-35.564c0.906-15.069,119.233-20.385,143.108-18.976
		C238.883,210.763,257.528,224.098,256.654,239.159z"/>
	<path style="fill:#824323;" d="M247.469,232.952c0.874-15.061,20.953-26.12,44.859-24.757
		c23.875,1.418,140.737,20.512,139.886,35.572c-0.906,15.061-119.233,20.385-143.108,18.968
		C265.232,261.356,246.587,248.013,247.469,232.952z"/>
</g>
<g>
	<path style="fill:#70683A;" d="M229.415,361.913c0,19.503-15.817,124.668-35.336,124.668c-19.495,0-35.304-105.173-35.304-124.668
		c0-19.495,15.817-35.32,35.304-35.32C213.599,326.593,229.415,342.418,229.415,361.913z"/>
	<path style="fill:#70683A;" d="M347.766,361.913c0,19.503-15.817,124.668-35.336,124.668c-19.495,0-35.304-105.173-35.304-124.668
		c0-19.495,15.817-35.32,35.304-35.32C331.957,326.593,347.766,342.418,347.766,361.913z"/>
</g>
<path style="fill:#824323;" d="M352.91,315.242c0,126.33-44.599,84.259-99.643,84.259c-55.028,0-99.643,42.071-99.643-84.259
	c0-72.231,44.631-130.781,99.643-130.781C308.295,184.47,352.91,243.019,352.91,315.242z"/>
<path style="fill:#60311D;" d="M179.042,228.194c21,9.539,46.568,14.375,74.232,14.375c27.648,0,53.209-4.836,74.201-14.367
	c-18.243-26.782-44.694-43.733-74.216-43.733C223.744,184.47,197.301,201.413,179.042,228.194z"/>
<path style="fill:#A1C11E;" d="M233.834,487.219c0,14.935-17.802,16.904-39.739,16.904s-39.739-1.961-39.739-16.904
	c0-14.943,17.802-35.509,39.739-35.509S233.834,472.277,233.834,487.219z"/>
<path style="fill:#93AA0F;" d="M233.834,487.219c0,14.935-17.802,16.904-39.739,16.904s-39.739-1.961-39.739-16.904"/>
<path style="fill:#A1C11E;" d="M352.185,487.219c0,14.935-17.802,16.904-39.739,16.904c-21.937,0-39.739-1.961-39.739-16.904
	c0-14.943,17.802-35.509,39.739-35.509C334.383,451.71,352.185,472.277,352.185,487.219z"/>
<path style="fill:#93AA0F;" d="M352.185,487.219c0,14.935-17.802,16.904-39.739,16.904c-21.937,0-39.739-1.961-39.739-16.904"/>
<path style="fill:#CE5715;" d="M382.212,124.258c0,63.008-57.738,94.681-128.937,94.681c-71.215,0-128.969-31.673-128.969-94.681
	C124.306,61.235,182.059,0,253.275,0C324.474,0,382.212,61.235,382.212,124.258z"/>
<path style="fill:#F9A9A0;" d="M382.212,124.258c0,63.008-57.738,94.681-128.937,94.681c-71.215,0-128.969-31.673-128.969-94.681
	c0-63.023,57.754-72.405,128.969-72.405C324.474,51.854,382.212,61.235,382.212,124.258z"/>
<path style="fill:#FF9997;" d="M382.212,124.258c0,63.008-57.738,94.681-128.937,94.681c-71.215,0-128.969-31.673-128.969-94.681"/>
<circle style="fill:#113E49;" cx="191.945" cy="154.151" r="11.532"/>
<path d="M203.477,154.151c0,6.388-5.167,11.54-11.54,11.54s-11.524-5.152-11.524-11.54"/>
<path style="fill:#FFD3C5;" d="M214.693,178.208c-0.614,0-1.245-0.221-1.725-0.717c-5.632-5.624-13.107-8.72-21.047-8.72h-0.016
	c-7.94,0-15.399,3.104-21,8.712c-0.953,0.953-2.489,0.977-3.434,0.008c-0.953-0.922-0.985-2.458-0.032-3.419
	c6.538-6.546,15.218-10.161,24.458-10.161h0.016c9.263,0,17.952,3.592,24.505,10.145c0.937,0.937,0.937,2.505,0,3.434
	C215.954,177.987,215.339,178.208,214.693,178.208z"/>
<circle style="fill:#113E49;" cx="314.604" cy="154.151" r="11.532"/>
<path d="M303.065,154.151c0,6.388,5.151,11.54,11.54,11.54c6.372,0,11.524-5.152,11.524-11.54"/>
<path style="fill:#FFD3C5;" d="M291.848,178.208c0.599,0,1.229-0.221,1.709-0.717c5.632-5.624,13.107-8.72,21.047-8.72h0.016
	c7.94,0,15.415,3.104,21.016,8.712c0.937,0.953,2.473,0.977,3.434,0.008c0.953-0.922,0.969-2.458,0.016-3.419
	c-6.506-6.546-15.218-10.161-24.458-10.161h-0.016c-9.247,0-17.936,3.592-24.505,10.145c-0.922,0.937-0.922,2.505,0,3.434
	C290.588,177.987,291.202,178.208,291.848,178.208z"/>
<path style="fill:#870E0E;" d="M268.895,170.685c0,13.816-7.003,25.064-15.628,25.064c-8.617,0-15.628-11.248-15.628-25.064
	c0-13.848,7.018-5.585,15.628-5.585C261.892,165.1,268.895,156.837,268.895,170.685z"/>
<path style="fill:#AA1111;" d="M253.243,173.158c-5.443,0-10.232,4.49-13.028,11.264c2.796,6.806,7.601,11.327,13.044,11.327
	s10.232-4.49,13.028-11.264C263.491,177.68,258.694,173.158,253.243,173.158z"/>
<polygon style="fill:#CE5715;" points="348.751,54.8 330.539,36.588 315.093,52.035 299.63,36.588 284.168,52.035 268.721,36.588 
	253.259,52.035 237.812,36.588 222.358,52.035 206.895,36.588 191.449,52.035 175.986,36.588 157.767,54.8 175.986,73.019 
	191.449,57.565 206.895,73.019 222.358,57.565 237.812,73.019 253.259,57.565 268.721,73.019 284.168,57.565 299.63,73.019 
	315.093,57.565 330.539,73.019 "/>
<g>
	<path style="fill:#824323;" d="M192.37,191.669c-26.057,0-47.262-21.197-47.262-47.262s21.205-47.262,47.262-47.262
		c26.073,0,47.262,21.197,47.262,47.262S218.435,191.669,192.37,191.669z M192.37,112.9c-17.369,0-31.508,14.131-31.508,31.508
		s14.139,31.508,31.508,31.508c17.384,0,31.508-14.131,31.508-31.508S209.755,112.9,192.37,112.9z"/>
	<path style="fill:#824323;" d="M150.048,152.285h-22.977c-4.356,0-7.877-3.521-7.877-7.877c0-4.356,3.521-7.877,7.877-7.877h22.977
		c4.356,0,7.877,3.521,7.877,7.877C157.924,148.764,154.403,152.285,150.048,152.285z"/>
	<path style="fill:#824323;" d="M314.147,191.669c-26.073,0-47.262-21.197-47.262-47.262s21.189-47.262,47.262-47.262
		c26.057,0,47.262,21.197,47.262,47.262S340.196,191.669,314.147,191.669z M314.147,112.9c-17.376,0-31.508,14.131-31.508,31.508
		s14.131,31.508,31.508,31.508c17.377,0,31.508-14.131,31.508-31.508S331.524,112.9,314.147,112.9z"/>
	<path style="fill:#824323;" d="M379.447,152.285H356.47c-4.356,0-7.877-3.521-7.877-7.877c0-4.356,3.521-7.877,7.877-7.877h22.977
		c4.364,0,7.877,3.521,7.877,7.877C387.324,148.764,383.811,152.285,379.447,152.285z"/>
	<rect x="232.448" y="118.808" style="fill:#824323;" width="47.262" height="15.754"/>
</g>
<g>
	<circle style="fill:#A1C11E;" cx="203.453" cy="315.597" r="1.426"/>
	<circle style="fill:#A1C11E;" cx="206.241" cy="319.882" r="0.922"/>
	<circle style="fill:#A1C11E;" cx="205.217" cy="310.5" r="0.819"/>
	<circle style="fill:#A1C11E;" cx="201.413" cy="326.719" r="2.339"/>
	<circle style="fill:#A1C11E;" cx="198.317" cy="300.607" r="3.159"/>
	<path style="fill:#A1C11E;" d="M288.831,318.291c-1.26-1.213-2.489-2.308-3.742-3.332c2.536-1.678,5.159-3.805,7.861-6.593
		c23.064-23.796,19.385-46.364,19.346-46.56l0.016-0.008h-0.016v-0.016l-0.008,0.016c-0.197-0.039-22.772-3.718-46.568,19.346
		c-5.081,4.931-8.121,9.633-9.838,13.918c-0.914-1.363-2.143-2.387-3.513-2.387c-1.355,0-2.591,1.024-3.489,2.395
		c-1.733-4.293-4.781-8.995-9.846-13.926c-23.828-23.103-46.434-19.377-46.568-19.346l-0.016-0.016v0.016l0,0l0,0
		c-0.016,0.158-3.757,22.749,19.354,46.568c2.71,2.788,5.325,4.915,7.861,6.593c-1.229,1.024-2.489,2.119-3.742,3.332
		c-15.013,14.564-6.325,26.553-6.27,26.624l0,0h0.008v0.008l0,0c0.063,0.047,12.06,8.728,26.624-6.278
		c2.773-2.859,4.978-5.687,6.806-8.428c0.047,0.221,0.095,0.488,0.158,0.709c0.008-0.039,0.032-0.071,0.032-0.071
		c0.339,1.26,0.693,2.465,1.111,3.584c0,0-0.032,0.039-0.047,0.071c0.173,0.457,0.37,0.819,0.536,1.237
		c0.299,0.685,0.567,1.355,0.866,1.961c0.087,0.165,0.15,0.362,0.228,0.52c0,0,0.024-0.024,0.032-0.039
		c0.803,1.536,1.615,2.844,2.418,3.923l-0.032,0.016c0.142,0.181,0.252,0.315,0.394,0.488c0.276,0.37,0.536,0.693,0.803,1
		c0.291,0.339,0.544,0.622,0.803,0.898c0.236,0.236,0.433,0.457,0.63,0.646c0.276,0.268,0.488,0.457,0.685,0.63
		c0.118,0.102,0.213,0.197,0.299,0.268c0.221,0.189,0.37,0.291,0.37,0.291l0.016,0.016v-0.008c0,0,0.15-0.11,0.37-0.299
		c0.095-0.071,0.181-0.165,0.307-0.268c0.197-0.173,0.402-0.362,0.677-0.63c0.197-0.189,0.402-0.41,0.614-0.638
		c0.26-0.276,0.528-0.575,0.827-0.929c0.26-0.291,0.488-0.591,0.764-0.945c0.15-0.181,0.276-0.323,0.425-0.52l-0.032-0.016
		c0.803-1.079,1.599-2.387,2.402-3.923c0,0,0.024,0.024,0.039,0.039c0.071-0.142,0.118-0.315,0.189-0.457
		c0.339-0.67,0.638-1.41,0.953-2.166c0.158-0.386,0.339-0.693,0.488-1.103l-0.039-0.063c0.418-1.126,0.772-2.324,1.095-3.623
		l0.055,0.102c0.055-0.221,0.095-0.488,0.15-0.709c1.827,2.749,4.041,5.577,6.814,8.428c14.557,15.006,26.553,6.325,26.624,6.278
		l0,0l0.008-0.008l0,0l0,0C295.156,344.844,303.829,332.855,288.831,318.291z M253.905,304.829
		c-0.142-0.047-0.268-0.102-0.386-0.142c0.134-0.032,0.276-0.039,0.402-0.087C253.905,304.672,253.905,304.758,253.905,304.829z
		 M250.864,304.821c-0.008-0.063-0.016-0.158-0.016-0.213c0.126,0.047,0.26,0.055,0.386,0.087
		C251.116,304.735,250.982,304.774,250.864,304.821z"/>
	<circle style="fill:#A1C11E;" cx="301.3" cy="315.605" r="1.426"/>
	<circle style="fill:#A1C11E;" cx="298.535" cy="319.882" r="0.922"/>
	<circle style="fill:#A1C11E;" cx="299.536" cy="310.5" r="0.819"/>
	<circle style="fill:#A1C11E;" cx="303.34" cy="326.719" r="2.339"/>
	<circle style="fill:#A1C11E;" cx="306.412" cy="300.607" r="3.159"/>
</g>
<g>
</g>
<g>
</g>
<g>
</g>
<g>
</g>
<g>
</g>
<g>
</g>
<g>
</g>
<g>
</g>
<g>
</g>
<g>
</g>
<g>
</g>
<g>
</g>
<g>
</g>
<g>
</g>
<g>
</g>
</svg>
