<?xml version="1.0" encoding="iso-8859-1"?>
<!-- Generator: Adobe Illustrator 19.0.0, SVG Export Plug-In . SVG Version: 6.00 Build 0)  -->
<svg version="1.1" id="Layer_1" xmlns="http://www.w3.org/2000/svg" xmlns:xlink="http://www.w3.org/1999/xlink" x="0px" y="0px"
	 viewBox="0 0 504.123 504.123" style="enable-background:new 0 0 504.123 504.123;" xml:space="preserve">
<g>
	<path style="fill:#AA1111;" d="M246.542,239.159c-0.859,15.061-20.953,26.128-44.843,24.757
		c-23.875-1.41-140.753-20.504-139.894-35.564c0.906-15.069,119.233-20.385,143.108-18.976
		C228.779,210.763,247.424,224.098,246.542,239.159z"/>
	<path style="fill:#AA1111;" d="M237.365,232.952c0.874-15.061,20.953-26.12,44.859-24.757
		c23.883,1.418,140.737,20.512,139.886,35.572c-0.906,15.061-119.233,20.385-143.108,18.968
		C255.128,261.356,236.475,248.013,237.365,232.952z"/>
</g>
<g>
	<path style="fill:#232728;" d="M219.311,361.913c0,19.503-15.817,124.668-35.336,124.668c-19.495,0-35.304-105.173-35.304-124.668
		c0-19.495,15.817-35.32,35.304-35.32C203.495,326.593,219.311,342.418,219.311,361.913z"/>
	<path style="fill:#232728;" d="M337.662,361.913c0,19.503-15.817,124.668-35.336,124.668c-19.495,0-35.304-105.173-35.304-124.668
		c0-19.495,15.817-35.32,35.304-35.32C321.845,326.593,337.662,342.418,337.662,361.913z"/>
</g>
<path style="fill:#AA1111;" d="M342.806,315.242c0,126.33-44.599,84.259-99.643,84.259c-55.028,0-99.643,42.071-99.643-84.259
	c0-72.231,44.631-130.781,99.643-130.781C298.183,184.47,342.806,243.019,342.806,315.242z"/>
<path style="fill:#8E1010;" d="M168.938,228.194c21,9.539,46.568,14.375,74.232,14.375c27.648,0,53.209-4.836,74.201-14.367
	c-18.243-26.782-44.694-43.733-74.216-43.733C213.64,184.47,187.197,201.413,168.938,228.194z"/>
<path style="fill:#8D97A0;" d="M223.722,487.219c0,14.935-17.802,16.904-39.739,16.904s-39.739-1.961-39.739-16.904
	c0-14.943,17.802-35.509,39.739-35.509S223.722,472.277,223.722,487.219z"/>
<path style="fill:#79848C;" d="M223.722,487.219c0,14.935-17.802,16.904-39.739,16.904s-39.739-1.961-39.739-16.904"/>
<path style="fill:#8D97A0;" d="M342.081,487.219c0,14.935-17.802,16.904-39.739,16.904s-39.739-1.961-39.739-16.904
	c0-14.943,17.802-35.509,39.739-35.509S342.081,472.277,342.081,487.219z"/>
<path style="fill:#79848C;" d="M342.081,487.219c0,14.935-17.802,16.904-39.739,16.904s-39.739-1.961-39.739-16.904"/>
<path style="fill:#CE5715;" d="M372.108,124.258c0,63.008-57.738,94.681-128.937,94.681c-71.215,0-128.969-31.673-128.969-94.681
	C114.202,61.235,171.955,0,243.171,0C314.37,0,372.108,61.235,372.108,124.258z"/>
<path style="fill:#F9A9A0;" d="M372.108,124.258c0,63.008-57.738,94.681-128.937,94.681c-71.215,0-128.969-31.673-128.969-94.681
	c0-63.023,57.754-72.405,128.969-72.405C314.37,51.854,372.108,61.235,372.108,124.258z"/>
<path style="fill:#FF9997;" d="M372.108,124.258c0,63.008-57.738,94.681-128.937,94.681c-71.215,0-128.969-31.673-128.969-94.681"/>
<circle style="fill:#113E49;" cx="198.902" cy="146.905" r="11.532"/>
<path d="M210.434,146.92c0,6.388-5.159,11.54-11.54,11.54c-6.357,0-11.524-5.152-11.524-11.54"/>
<path style="fill:#FFD3C5;" d="M221.659,170.976c-0.614,0-1.245-0.221-1.733-0.717c-5.624-5.624-13.099-8.72-21.039-8.72h-0.016
	c-7.94,0-15.399,3.104-21,8.712c-0.953,0.953-2.489,0.977-3.434,0.008c-0.953-0.922-0.992-2.458-0.032-3.419
	c6.538-6.546,15.218-10.161,24.458-10.161h0.016c9.263,0,17.952,3.592,24.513,10.145c0.929,0.937,0.929,2.505,0,3.434
	C222.911,170.756,222.305,170.976,221.659,170.976z"/>
<circle style="fill:#113E49;" cx="321.538" cy="146.905" r="11.524"/>
<path d="M310.022,146.92c0,6.388,5.151,11.54,11.54,11.54c6.372,0,11.516-5.152,11.516-11.54"/>
<path style="fill:#FFD3C5;" d="M298.813,170.976c0.599,0,1.229-0.221,1.717-0.717c5.616-5.624,13.099-8.72,21.039-8.72h0.016
	c7.94,0,15.415,3.104,21.016,8.712c0.937,0.953,2.473,0.977,3.434,0.008c0.953-0.922,0.961-2.458,0.016-3.419
	c-6.514-6.546-15.226-10.161-24.458-10.161h-0.016c-9.247,0-17.936,3.592-24.505,10.145c-0.922,0.937-0.922,2.505,0,3.434
	C297.545,170.756,298.159,170.976,298.813,170.976z"/>
<path style="fill:#CE5715;" d="M243.171,0c-37.305,0-70.821,16.896-94.366,41.96c5.813,18.29,22.922,31.555,43.158,31.555h102.4
	c20.228,0,37.352-13.265,43.158-31.571C313.968,16.888,280.46,0,243.171,0z"/>
<path style="fill:#AA1111;" d="M214.569,20.496c8.318,11.028-14.352,23.93-42.346,44.993c-28.01,21.055-50.759,42.275-59.069,31.24
	c-8.287-11.036,1.15-45.749,29.168-66.788C170.325,8.885,206.291,9.46,214.569,20.496z"/>
<path style="fill:#8E1010;" d="M214.569,20.496c8.318,11.028-14.352,23.93-42.346,44.993c-28.01,21.055-50.759,42.275-59.069,31.24
	c-8.287-11.036,15.588-31.303,43.599-52.35S206.291,9.46,214.569,20.496z"/>
<circle style="fill:#DD9412;" cx="141.574" cy="27.569" r="10.831"/>
<path style="fill:#CE5715;" d="M284.391,164.675c-9.011-8.925-18.243-5.341-24.048-1.268c-5.79-4.072-15.037-7.656-24.048,1.268
	c-24.119,23.875-55.383,24.371-56.69,10.587c0,0,3.356,32.902,52.752,5.908c0,0,19.936-12.304,24.371-6.396l0.032,0.032
	c0.922,1.528,2.127,2.678,3.584,2.568c1.465,0.11,2.662-1.04,3.584-2.568c0,0,0.016-0.016,0.032-0.032
	c4.427-5.908,24.371,6.396,24.371,6.396c49.396,26.994,52.752-5.908,52.752-5.908C339.757,189.046,308.51,188.558,284.391,164.675z"
	/>
<ellipse style="fill:#8D97A0;" cx="56.724" cy="210.865" rx="11.815" ry="65.473"/>
<path style="fill:#E5AC0E;" d="M46.46,178.546H66.98c-2.032-19.787-5.86-33.154-10.264-33.154S48.492,158.759,46.46,178.546z"/>
<path d="M70.831,136.208c0,7.782-6.309,14.108-14.108,14.108c-7.782,0-14.108-6.325-14.108-14.108
	c0-7.798,6.325-35.123,14.108-35.123C64.522,101.085,70.831,128.41,70.831,136.208z"/>
<g>
	<circle style="fill:#10E2C8;" cx="244.911" cy="298.063" r="1.741"/>
	<circle style="fill:#10E2C8;" cx="244.911" cy="292.47" r="1.741"/>
	<circle style="fill:#10E2C8;" cx="244.911" cy="286.878" r="1.741"/>
	<circle style="fill:#10E2C8;" cx="244.911" cy="332.091" r="1.741"/>
	<circle style="fill:#10E2C8;" cx="244.911" cy="337.684" r="1.741"/>
	<circle style="fill:#10E2C8;" cx="244.911" cy="343.276" r="1.741"/>
	<circle style="fill:#10E2C8;" cx="256.947" cy="303.057" r="1.741"/>
	<circle style="fill:#10E2C8;" cx="260.894" cy="299.095" r="1.741"/>
	<circle style="fill:#10E2C8;" cx="264.824" cy="295.133" r="1.741"/>
	<circle style="fill:#10E2C8;" cx="232.923" cy="327.129" r="1.741"/>
	<circle style="fill:#10E2C8;" cx="228.921" cy="331.059" r="1.741"/>
	<circle style="fill:#10E2C8;" cx="224.967" cy="335.006" r="1.741"/>
	<path style="fill:#10E2C8;" d="M286.423,309.61c2.158-1.252,3.332-3.828,2.647-6.372c-0.677-2.528-2.962-4.183-5.467-4.191
		c1.764-1.78,2.213-4.553,0.89-6.829c-1.308-2.269-3.938-3.269-6.365-2.631c1.237-2.174,0.961-4.978-0.898-6.837
		c-1.843-1.851-4.663-2.135-6.821-0.89c0.63-2.426-0.37-5.065-2.647-6.372c-2.269-1.315-5.057-0.859-6.829,0.906
		c-0.008-2.505-1.654-4.797-4.191-5.474c-2.528-0.677-5.104,0.48-6.372,2.647c-0.662-2.418-2.836-4.198-5.459-4.198
		s-4.813,1.78-5.467,4.191c-1.268-2.158-3.836-3.316-6.372-2.639c-2.536,0.677-4.175,2.97-4.191,5.474
		c-1.772-1.772-4.553-2.213-6.829-0.906c-2.261,1.308-3.277,3.954-2.631,6.372c-2.166-1.237-4.986-0.961-6.829,0.898
		c-1.859,1.851-2.135,4.655-0.898,6.829c-2.426-0.638-5.057,0.362-6.372,2.631c-1.308,2.276-0.859,5.065,0.898,6.837
		c-2.497,0.008-4.781,1.662-5.459,4.191c-0.693,2.529,0.48,5.104,2.631,6.372c-2.418,0.654-4.198,2.836-4.198,5.467
		c0,2.615,1.788,4.797,4.198,5.459c-2.158,1.26-3.324,3.828-2.631,6.365c0.662,2.529,2.962,4.183,5.467,4.198
		c-1.772,1.78-2.213,4.553-0.906,6.829c1.315,2.269,3.946,3.269,6.38,2.631c-1.245,2.174-0.969,4.978,0.89,6.837
		c1.843,1.851,4.663,2.135,6.829,0.89c-0.638,2.426,0.37,5.065,2.631,6.372c2.269,1.315,5.065,0.859,6.837-0.898
		c0.008,2.505,1.654,4.789,4.183,5.467s5.112-0.48,6.38-2.647c0.654,2.418,2.836,4.198,5.459,4.198s4.797-1.788,5.459-4.198
		c1.26,2.166,3.844,3.324,6.38,2.647c2.536-0.677,4.175-2.962,4.191-5.467c1.772,1.764,4.553,2.213,6.829,0.898
		c2.269-1.308,3.277-3.946,2.631-6.372c2.166,1.245,4.986,0.961,6.837-0.898c1.851-1.843,2.135-4.655,0.89-6.829
		c2.426,0.638,5.057-0.362,6.365-2.631c1.323-2.276,0.866-5.057-0.89-6.837c2.489,0,4.789-1.662,5.467-4.191
		c0.685-2.528-0.488-5.104-2.639-6.365c2.418-0.662,4.198-2.844,4.198-5.467S288.849,310.272,286.423,309.61z M282.09,319.968
		c-1.883,0.512-3.45,1.977-4.009,3.994c-0.536,2.032,0.11,4.08,1.481,5.467c-1.961,0.008-3.86,1-4.907,2.812
		c-1.056,1.82-0.961,3.962,0.008,5.664c-1.89-0.496-3.986-0.024-5.467,1.457s-1.946,3.576-1.457,5.459
		c-1.701-0.961-3.844-1.056-5.664-0.008c-1.812,1.056-2.804,2.954-2.812,4.907c-1.402-1.378-3.442-2.017-5.459-1.473
		c-2.032,0.536-3.482,2.119-4.001,4.001c-0.985-1.686-2.796-2.828-4.892-2.828c-2.095,0-3.907,1.15-4.892,2.828
		c-0.512-1.883-1.969-3.458-4.001-4.001c-2.024-0.544-4.064,0.095-5.459,1.473c-0.016-1.953-1-3.852-2.812-4.899
		c-1.812-1.056-3.962-0.961-5.656,0c0.488-1.883,0.024-3.978-1.457-5.459c-1.489-1.481-3.584-1.953-5.474-1.457
		c0.969-1.701,1.063-3.836,0.016-5.656c-1.056-1.82-2.938-2.812-4.907-2.82c1.378-1.394,2.016-3.442,1.473-5.459
		c-0.544-2.016-2.119-3.482-4.001-3.994c1.686-0.992,2.836-2.796,2.836-4.892c0-2.111-1.15-3.915-2.844-4.899
		c1.89-0.512,3.458-1.977,4.009-4.001c0.551-2.024-0.095-4.072-1.473-5.451c1.953-0.016,3.852-1.008,4.899-2.812
		c1.056-1.82,0.961-3.962-0.008-5.671c1.89,0.496,3.986,0.032,5.467-1.457c1.481-1.481,1.946-3.568,1.457-5.459
		c1.701,0.961,3.836,1.056,5.656,0.008c1.82-1.055,2.804-2.954,2.82-4.907c1.394,1.378,3.434,2.016,5.459,1.481
		c2.032-0.544,3.474-2.127,4.001-4.009c0.985,1.694,2.788,2.828,4.892,2.828c2.095,0,3.907-1.15,4.892-2.836
		c0.512,1.89,1.969,3.466,4.001,4.017c2.024,0.536,4.064-0.102,5.459-1.481c0.008,1.953,1.008,3.852,2.812,4.907
		c1.812,1.048,3.962,0.953,5.656-0.008c-0.488,1.89-0.024,3.986,1.457,5.459c1.489,1.481,3.584,1.953,5.474,1.457
		c-0.969,1.701-1.048,3.836-0.016,5.664c1.055,1.812,2.954,2.804,4.907,2.82c-1.378,1.386-2.016,3.434-1.481,5.451
		c0.543,2.024,2.135,3.482,4.017,3.994c-1.694,0.992-2.836,2.796-2.844,4.899C279.247,317.18,280.405,318.976,282.09,319.968z"/>
	<circle style="fill:#10E2C8;" cx="261.91" cy="315.077" r="1.741"/>
	<circle style="fill:#10E2C8;" cx="267.518" cy="315.077" r="1.749"/>
	<circle style="fill:#10E2C8;" cx="273.095" cy="315.077" r="1.741"/>
	<circle style="fill:#10E2C8;" cx="227.897" cy="315.085" r="1.741"/>
	<circle style="fill:#10E2C8;" cx="222.305" cy="315.085" r="1.749"/>
	<circle style="fill:#10E2C8;" cx="216.696" cy="315.085" r="1.741"/>
	<circle style="fill:#10E2C8;" cx="256.947" cy="327.129" r="1.741"/>
	<circle style="fill:#10E2C8;" cx="260.902" cy="331.059" r="1.741"/>
	<circle style="fill:#10E2C8;" cx="264.824" cy="335.006" r="1.749"/>
	<circle style="fill:#10E2C8;" cx="232.844" cy="303.057" r="1.741"/>
	<circle style="fill:#10E2C8;" cx="228.921" cy="299.095" r="1.749"/>
	<circle style="fill:#10E2C8;" cx="224.967" cy="295.14" r="1.741"/>
	<circle style="fill:#10E2C8;" cx="236.404" cy="300.347" r="1.741"/>
	<circle style="fill:#10E2C8;" cx="233.632" cy="295.542" r="1.741"/>
	<circle style="fill:#10E2C8;" cx="230.812" cy="290.658" r="1.741"/>
	<circle style="fill:#10E2C8;" cx="253.418" cy="329.807" r="1.741"/>
	<circle style="fill:#10E2C8;" cx="256.238" cy="334.651" r="1.749"/>
	<circle style="fill:#10E2C8;" cx="259.011" cy="339.503" r="1.741"/>
	<circle style="fill:#10E2C8;" cx="249.307" cy="298.614" r="1.741"/>
	<circle style="fill:#10E2C8;" cx="250.725" cy="293.242" r="1.741"/>
	<circle style="fill:#10E2C8;" cx="252.205" cy="287.823" r="1.741"/>
	<circle style="fill:#10E2C8;" cx="240.485" cy="331.508" r="1.741"/>
	<circle style="fill:#10E2C8;" cx="239.067" cy="336.896" r="1.741"/>
	<circle style="fill:#10E2C8;" cx="237.617" cy="342.315" r="1.741"/>
	<circle style="fill:#10E2C8;" cx="259.633" cy="306.57" r="1.749"/>
	<circle style="fill:#10E2C8;" cx="264.509" cy="303.734" r="1.741"/>
	<circle style="fill:#10E2C8;" cx="269.33" cy="300.977" r="1.741"/>
	<circle style="fill:#10E2C8;" cx="230.182" cy="323.584" r="1.741"/>
	<circle style="fill:#10E2C8;" cx="225.361" cy="326.388" r="1.741"/>
	<circle style="fill:#10E2C8;" cx="220.493" cy="329.177" r="1.741"/>
	<path style="fill:#10E2C8;" d="M308.399,323.434c3.198-1.434,5.427-4.624,5.427-8.357c0-3.734-2.229-6.924-5.427-8.365
		c2.718-2.213,4.049-5.876,3.08-9.476c-0.969-3.608-3.946-6.112-7.404-6.672c2.056-2.836,2.395-6.727,0.52-9.956
		c-1.875-3.23-5.404-4.884-8.885-4.521c1.252-3.277,0.567-7.113-2.064-9.752c-2.639-2.639-6.475-3.316-9.752-2.072
		c0.354-3.482-1.292-7.018-4.521-8.877c-3.23-1.875-7.121-1.536-9.956,0.52c-0.559-3.458-3.072-6.443-6.672-7.412
		c-3.608-0.969-7.27,0.37-9.484,3.096c-1.434-3.198-4.624-5.435-8.357-5.435c-3.742,0-6.932,2.237-8.365,5.435
		c-2.213-2.725-5.876-4.064-9.476-3.096c-3.608,0.969-6.112,3.954-6.672,7.412c-2.844-2.056-6.727-2.387-9.956-0.52
		c-3.23,1.867-4.884,5.396-4.521,8.885c-3.277-1.245-7.113-0.567-9.752,2.072c-2.631,2.639-3.316,6.475-2.064,9.744
		c-3.489-0.354-7.034,1.3-8.893,4.529c-1.859,3.23-1.52,7.105,0.528,9.956c-3.458,0.551-6.435,3.064-7.404,6.664
		c-0.969,3.6,0.354,7.27,3.08,9.484c-3.198,1.434-5.427,4.624-5.427,8.365c0,3.726,2.229,6.924,5.427,8.357
		c-2.725,2.213-4.049,5.876-3.08,9.476c0.961,3.6,3.946,6.112,7.404,6.672c-2.056,2.836-2.395,6.727-0.528,9.964
		c1.867,3.237,5.411,4.876,8.893,4.513c-1.252,3.277-0.567,7.113,2.064,9.752c2.639,2.639,6.483,3.316,9.76,2.072
		c-0.362,3.482,1.292,7.018,4.513,8.885c3.23,1.859,7.121,1.528,9.956-0.528c0.551,3.458,3.064,6.443,6.672,7.412
		c3.608,0.969,7.27-0.37,9.484-3.088c1.434,3.198,4.616,5.427,8.357,5.427c3.734,0,6.932-2.229,8.357-5.435
		c2.213,2.725,5.876,4.057,9.484,3.096c3.6-0.969,6.112-3.954,6.672-7.412c2.836,2.056,6.727,2.395,9.956,0.528
		c3.23-1.867,4.876-5.404,4.521-8.885c3.277,1.245,7.113,0.567,9.752-2.072c2.631-2.647,3.316-6.483,2.072-9.752
		c3.482,0.362,7.01-1.292,8.885-4.521c1.859-3.23,1.52-7.113-0.528-9.956c3.458-0.559,6.435-3.072,7.404-6.672
		S311.125,325.64,308.399,323.434z M293.764,328.168c-0.74,2.788-0.087,5.6,1.489,7.759c-2.647,0.418-5.096,1.938-6.546,4.435
		c-1.441,2.497-1.528,5.388-0.559,7.885c-2.662-0.291-5.419,0.543-7.467,2.591c-2.04,2.04-2.875,4.805-2.599,7.467
		c-2.489-0.969-5.372-0.874-7.877,0.567c-2.505,1.441-4.025,3.891-4.435,6.538c-2.158-1.583-4.97-2.229-7.759-1.489
		c-2.788,0.756-4.892,2.725-5.979,5.175c-1.686-2.087-4.23-3.45-7.113-3.45s-5.427,1.371-7.113,3.45
		c-1.087-2.458-3.182-4.427-5.971-5.175c-2.788-0.74-5.608-0.095-7.759,1.497c-0.417-2.655-1.938-5.096-4.435-6.546
		c-2.505-1.449-5.396-1.536-7.893-0.567c0.291-2.662-0.544-5.427-2.592-7.467c-2.04-2.04-4.797-2.875-7.459-2.591
		c0.961-2.497,0.866-5.388-0.567-7.885c-1.449-2.497-3.899-4.025-6.546-4.435c1.575-2.158,2.237-4.97,1.497-7.759
		c-0.756-2.788-2.733-4.899-5.183-5.979c2.095-1.678,3.45-4.222,3.45-7.105c0-2.891-1.363-5.435-3.45-7.113
		c2.458-1.087,4.427-3.19,5.175-5.979c0.748-2.788,0.087-5.6-1.489-7.767c2.647-0.41,5.096-1.938,6.546-4.427
		c1.441-2.497,1.528-5.396,0.559-7.885c2.67,0.284,5.419-0.551,7.467-2.591c2.048-2.048,2.883-4.805,2.592-7.467
		c2.497,0.969,5.38,0.866,7.877-0.567c2.505-1.449,4.033-3.899,4.443-6.546c2.158,1.583,4.97,2.237,7.759,1.489
		c2.788-0.756,4.892-2.725,5.979-5.167c1.686,2.079,4.222,3.45,7.113,3.45c2.883,0,5.427-1.371,7.105-3.45
		c1.095,2.458,3.19,4.427,5.986,5.175c2.788,0.748,5.6,0.095,7.751-1.489c0.425,2.647,1.953,5.096,4.443,6.538
		c2.489,1.449,5.388,1.536,7.877,0.575c-0.284,2.662,0.551,5.419,2.599,7.459c2.04,2.04,4.797,2.875,7.459,2.591
		c-0.961,2.497-0.866,5.388,0.567,7.885c1.449,2.497,3.899,4.025,6.546,4.435c-1.575,2.158-2.229,4.978-1.489,7.767
		c0.756,2.781,2.725,4.884,5.175,5.971c-2.095,1.678-3.45,4.222-3.45,7.113c0,2.883,1.355,5.427,3.45,7.113
		C296.497,323.269,294.52,325.38,293.764,328.168z"/>
	<circle style="fill:#10E2C8;" cx="261.351" cy="319.488" r="1.741"/>
	<circle style="fill:#10E2C8;" cx="266.715" cy="320.906" r="1.741"/>
	<circle style="fill:#10E2C8;" cx="272.15" cy="322.402" r="1.741"/>
	<circle style="fill:#10E2C8;" cx="228.48" cy="310.674" r="1.741"/>
	<circle style="fill:#10E2C8;" cx="223.069" cy="309.224" r="1.741"/>
	<circle style="fill:#10E2C8;" cx="217.641" cy="307.783" r="1.741"/>
	<circle style="fill:#10E2C8;" cx="230.182" cy="306.57" r="1.741"/>
	<circle style="fill:#10E2C8;" cx="225.361" cy="303.734" r="1.741"/>
	<circle style="fill:#10E2C8;" cx="220.493" cy="300.977" r="1.741"/>
	<circle style="fill:#10E2C8;" cx="259.649" cy="323.584" r="1.741"/>
	<circle style="fill:#10E2C8;" cx="264.509" cy="326.38" r="1.749"/>
	<circle style="fill:#10E2C8;" cx="269.33" cy="329.177" r="1.741"/>
	<circle style="fill:#10E2C8;" cx="240.485" cy="298.614" r="1.741"/>
	<circle style="fill:#10E2C8;" cx="239.059" cy="293.242" r="1.741"/>
	<circle style="fill:#10E2C8;" cx="237.609" cy="287.823" r="1.741"/>
	<circle style="fill:#10E2C8;" cx="249.307" cy="331.508" r="1.741"/>
	<circle style="fill:#10E2C8;" cx="250.803" cy="336.896" r="1.741"/>
	<circle style="fill:#10E2C8;" cx="252.213" cy="342.315" r="1.741"/>
	<circle style="fill:#10E2C8;" cx="253.418" cy="300.347" r="1.741"/>
	<circle style="fill:#10E2C8;" cx="256.238" cy="295.542" r="1.741"/>
	<circle style="fill:#10E2C8;" cx="259.011" cy="290.658" r="1.741"/>
	<circle style="fill:#10E2C8;" cx="236.404" cy="329.807" r="1.741"/>
	<circle style="fill:#10E2C8;" cx="233.632" cy="334.651" r="1.741"/>
	<circle style="fill:#10E2C8;" cx="230.812" cy="339.503" r="1.741"/>
	<path style="fill:#10E2C8;" d="M260.894,308.996c-0.937,0.244-1.489,1.197-1.237,2.135s1.205,1.481,2.143,1.229
		c0.906-0.252,1.473-1.197,1.229-2.135C262.784,309.287,261.815,308.736,260.894,308.996z"/>
	<circle style="fill:#10E2C8;" cx="266.715" cy="309.224" r="1.741"/>
	<circle style="fill:#10E2C8;" cx="272.15" cy="307.775" r="1.741"/>
	<circle style="fill:#10E2C8;" cx="228.48" cy="319.488" r="1.741"/>
	<circle style="fill:#10E2C8;" cx="223.077" cy="320.906" r="1.741"/>
	<circle style="fill:#10E2C8;" cx="217.641" cy="322.402" r="1.741"/>
	<path style="fill:#10E2C8;" d="M456.809,238.608c0,34.43,17.038,63.015-13.777,63.015s-55.8-27.924-55.8-62.354
		c0-34.446,24.986-62.362,55.8-62.362S456.809,204.162,456.809,238.608z"/>
</g>
<path style="fill:#0AC4A9;" d="M443.032,176.908c30.815,0,13.777,27.254,13.777,61.7c0,34.43,17.038,63.015-13.777,63.015"/>
<g>
</g>
<g>
</g>
<g>
</g>
<g>
</g>
<g>
</g>
<g>
</g>
<g>
</g>
<g>
</g>
<g>
</g>
<g>
</g>
<g>
</g>
<g>
</g>
<g>
</g>
<g>
</g>
<g>
</g>
</svg>
