<?xml version="1.0" encoding="iso-8859-1"?>
<!-- Generator: Adobe Illustrator 19.0.0, SVG Export Plug-In . SVG Version: 6.00 Build 0)  -->
<svg version="1.1" id="Layer_1" xmlns="http://www.w3.org/2000/svg" xmlns:xlink="http://www.w3.org/1999/xlink" x="0px" y="0px"
	 viewBox="0 0 504.123 504.123" style="enable-background:new 0 0 504.123 504.123;" xml:space="preserve">
<path style="fill:#0D50A0;" d="M312.42,258.095c11.28,10.027,33.304,3.663,49.223-14.218
	c15.896-17.881,85.016-114.018,73.767-124.062c-11.296-10.012-98.714,69.892-114.609,87.773
	C304.905,225.445,301.148,248.06,312.42,258.095z"/>
<g>
	<path style="fill:#0D467F;" d="M258.376,361.913c0,19.503-15.817,124.668-35.336,124.668c-19.495,0-35.304-105.173-35.304-124.668
		c0-19.495,15.817-35.32,35.304-35.32C242.559,326.593,258.376,342.418,258.376,361.913z"/>
	<path style="fill:#0D467F;" d="M376.727,361.913c0,19.503-15.817,124.668-35.336,124.668c-19.495,0-35.304-105.173-35.304-124.668
		c0-19.495,15.817-35.32,35.304-35.32C360.91,326.593,376.727,342.418,376.727,361.913z"/>
</g>
<path style="fill:#2679A8;" d="M381.871,315.242c0,126.33-44.607,84.259-99.643,84.259c-55.028,0-99.643,42.071-99.643-84.259
	c0-72.231,44.631-130.781,99.643-130.781C337.248,184.47,381.871,243.019,381.871,315.242z"/>
<path style="fill:#0D50A0;" d="M282.22,366.033c-51.617,0-94.074,37.006-99.139-62.661c-0.339,3.458-0.504,7.396-0.504,11.878
	c0,126.33,44.615,84.259,99.643,84.259c55.036,0,99.643,42.071,99.643-84.259c0-4.474-0.165-8.413-0.504-11.878
	C376.294,403.039,333.853,366.033,282.22,366.033z"/>
<path style="fill:#404749;" d="M262.787,487.219c0,14.935-17.802,16.904-39.747,16.904c-21.929,0-39.739-1.961-39.739-16.904
	c0-14.943,17.81-35.509,39.739-35.509C244.993,451.718,262.787,472.277,262.787,487.219z"/>
<path style="fill:#232728;" d="M262.787,487.219c0,14.935-17.802,16.904-39.747,16.904c-21.929,0-39.739-1.961-39.739-16.904"/>
<path style="fill:#404749;" d="M381.138,487.219c0,14.935-17.786,16.904-39.731,16.904c-21.937,0-39.739-1.961-39.739-16.904
	c0-14.943,17.802-35.509,39.739-35.509C363.352,451.718,381.138,472.277,381.138,487.219z"/>
<path style="fill:#232728;" d="M381.138,487.219c0,14.935-17.786,16.904-39.731,16.904c-21.937,0-39.739-1.961-39.739-16.904"/>
<path style="fill:#2679A8;" d="M271.239,203.768c10.027,11.28,3.663,33.304-14.218,49.223
	c-17.881,15.896-114.026,85.024-124.062,73.767c-10.012-11.296,69.9-98.714,87.765-114.609S261.204,192.496,271.239,203.768z"/>
<path style="fill:#E8B085;" d="M411.173,124.258c0,63.008-57.746,94.681-128.937,94.681c-71.215,0-128.969-31.673-128.969-94.681
	C153.267,61.235,211.02,0,282.235,0C353.427,0,411.173,61.235,411.173,124.258z"/>
<path style="fill:#DD9F76;" d="M411.173,124.258c0,63.008-57.746,94.681-128.937,94.681c-71.215,0-128.969-31.673-128.969-94.681"/>
<circle style="fill:#113E49;" cx="220.906" cy="136.428" r="11.532"/>
<path d="M232.438,136.428c0,6.388-5.175,11.54-11.54,11.54c-6.372,0-11.524-5.152-11.524-11.54"/>
<path style="fill:#F4C3A2;" d="M243.654,160.484c-0.614,0-1.245-0.221-1.725-0.717c-5.632-5.624-13.107-8.72-21.047-8.72h-0.016
	c-7.94,0-15.399,3.104-21,8.712c-0.945,0.953-2.489,0.977-3.442,0.008c-0.953-0.922-0.977-2.458-0.024-3.419
	c6.538-6.546,15.218-10.161,24.458-10.161h0.016c9.263,0,17.944,3.592,24.497,10.145c0.937,0.937,0.937,2.505,0,3.434
	C244.915,160.264,244.3,160.484,243.654,160.484z"/>
<path style="fill:#113E49;" d="M332.018,136.428c0,6.388,5.144,11.54,11.54,11.54c6.372,0,11.524-5.152,11.524-11.54
	c0-6.365-5.151-11.532-11.524-11.532C337.169,124.896,332.018,130.072,332.018,136.428z"/>
<path d="M332.018,136.428c0,6.388,5.144,11.54,11.54,11.54c6.372,0,11.524-5.152,11.524-11.54"/>
<path style="fill:#F4C3A2;" d="M320.809,160.484c0.591,0,1.229-0.221,1.709-0.717c5.632-5.624,13.107-8.72,21.047-8.72h0.008
	c7.948,0,15.423,3.104,21.016,8.712c0.937,0.953,2.473,0.977,3.434,0.008c0.961-0.922,0.977-2.458,0.024-3.419
	c-6.506-6.546-15.218-10.161-24.466-10.161h-0.008c-9.247,0-17.944,3.592-24.513,10.145c-0.922,0.937-0.922,2.505,0,3.434
	C319.541,160.264,320.163,160.484,320.809,160.484z"/>
<path style="fill:#663F24;" d="M285.867,167.471c0,0-13.477-29.003-49.719-5.175s-39.353,16.565-39.353,16.565
	s38.313,27.987,79.754,10.382l6.215-5.199L285.867,167.471z"/>
<path style="fill:#543722;" d="M196.787,178.853c0,0,38.313,27.987,79.754,10.382l6.215-5.199l3.111-16.573"/>
<path style="fill:#663F24;" d="M278.588,167.471c0,0,13.462-29.003,49.711-5.175s39.353,16.565,39.353,16.565
	s-38.305,27.987-79.746,10.382l-6.223-5.199L278.588,167.471z"/>
<path style="fill:#543722;" d="M367.653,178.853c0,0-38.305,27.987-79.746,10.382l-6.223-5.199l-3.096-16.573"/>
<g>
	<circle style="fill:#EAA10F;" cx="282.235" cy="236.3" r="6.569"/>
	<circle style="fill:#EAA10F;" cx="282.235" cy="257.969" r="6.569"/>
	<circle style="fill:#EAA10F;" cx="282.235" cy="279.623" r="6.569"/>
	<circle style="fill:#EAA10F;" cx="282.235" cy="301.284" r="6.569"/>
	<circle style="fill:#EAA10F;" cx="282.235" cy="322.946" r="6.569"/>
	<circle style="fill:#EAA10F;" cx="282.235" cy="344.615" r="6.569"/>
</g>
<path style="fill:#2679A8;" d="M161.025,84.346h242.381C385.478,37.699,338.059,0,282.235,0
	C226.388,0,178.969,37.699,161.025,84.346z"/>
<path style="fill:#0D50A0;" d="M161.025,84.346h242.381c-17.936-46.647-65.355-71.215-121.179-71.215
	C226.388,13.131,178.969,37.699,161.025,84.346z"/>
<path style="fill:#404749;" d="M423.02,95.177c0,8.964-63.039,6.955-140.8,6.955c-77.753,0-140.808,2.009-140.808-6.955
	c0-8.956,63.055-33.477,140.808-33.477C359.981,61.7,423.02,86.221,423.02,95.177z"/>
<path style="fill:#232728;" d="M423.02,95.177c0,8.964-63.039,6.955-140.8,6.955c-77.753,0-140.808,2.009-140.808-6.955
	c0-8.956,63.055-16.738,140.808-16.738C359.981,78.438,423.02,86.221,423.02,95.177z"/>
<g>
	<polygon style="fill:#EAA10F;" points="282.212,16.408 288.009,28.136 300.967,30.027 291.585,39.156 293.799,52.051 
		282.212,45.962 270.641,52.051 272.846,39.156 263.473,30.027 276.43,28.136 	"/>
	<path style="fill:#EAA10F;" d="M255.69,246.808c0,1.631-1.323,2.954-2.954,2.954h-34.462c-1.631,0-2.954-1.323-2.954-2.954l0,0
		c0-1.631,1.323-2.954,2.954-2.954h34.462C254.367,243.854,255.69,245.177,255.69,246.808L255.69,246.808z"/>
	<path style="fill:#EAA10F;" d="M255.69,260.592c0,1.631-1.323,2.954-2.954,2.954h-34.462c-1.631,0-2.954-1.323-2.954-2.954l0,0
		c0-1.631,1.323-2.954,2.954-2.954h34.462C254.367,257.638,255.69,258.962,255.69,260.592L255.69,260.592z"/>
	<path style="fill:#EAA10F;" d="M255.69,274.377c0,1.631-1.323,2.954-2.954,2.954h-34.462c-1.631,0-2.954-1.323-2.954-2.954l0,0
		c0-1.631,1.323-2.954,2.954-2.954h34.462C254.367,271.423,255.69,272.746,255.69,274.377L255.69,274.377z"/>
</g>
<path style="fill:#232728;" d="M100.877,256.299c7.648,7.648,68.632,81.014,60.983,88.663c-7.633,7.641-80.998-53.35-88.647-60.999
	c-7.641-7.641-7.641-20.015-0.008-27.648C80.862,248.659,93.244,248.659,100.877,256.299z"/>
<g>
</g>
<g>
</g>
<g>
</g>
<g>
</g>
<g>
</g>
<g>
</g>
<g>
</g>
<g>
</g>
<g>
</g>
<g>
</g>
<g>
</g>
<g>
</g>
<g>
</g>
<g>
</g>
<g>
</g>
</svg>
