<?xml version="1.0" encoding="iso-8859-1"?>
<!-- Generator: Adobe Illustrator 18.0.0, SVG Export Plug-In . SVG Version: 6.00 Build 0)  -->
<!DOCTYPE svg PUBLIC "-//W3C//DTD SVG 1.1//EN" "http://www.w3.org/Graphics/SVG/1.1/DTD/svg11.dtd">
<svg version="1.1" id="Capa_1" xmlns="http://www.w3.org/2000/svg" xmlns:xlink="http://www.w3.org/1999/xlink" x="0px" y="0px"
	 viewBox="0 0 431.643 431.643" style="enable-background:new 0 0 431.643 431.643;" xml:space="preserve">
<g>
	<g id="XMLID_17_">
		<g>
			<path style="fill:#999999;" d="M226.624,105.471v15.8c-9.71-1.89-19.74-2.89-30-2.89c-10.26,0-20.28,1-30,2.89v-15.8H226.624z"/>
			<path style="fill:#808080;" d="M196.624,133.381c78.03,0,141.51,63.48,141.51,141.5c0,78.03-63.48,141.51-141.51,141.51
				c-78.02,0-141.51-63.48-141.51-141.51C55.114,196.861,118.604,133.381,196.624,133.381z M303.044,352.071
				c16.42-22.57,25.09-49.26,25.09-77.19c0-43.69-21.69-84.44-58.02-109.01c-3.43-2.32-8.09-1.42-10.41,2.01
				c-2.32,3.43-1.42,8.1,2.01,10.42c32.2,21.77,51.42,57.88,51.42,96.58c0,24.74-7.68,48.38-22.22,68.37
				c-2.43,3.35-1.69,8.04,1.66,10.47c1.33,0.97,2.87,1.44,4.4,1.44C299.294,355.161,301.584,354.091,303.044,352.071z
				 M252.834,164.101c1.65-3.79-0.09-8.21-3.89-9.87c-16.55-7.2-34.15-10.85-52.32-10.85c-4.14,0-7.5,3.35-7.5,7.5
				c0,4.14,3.36,7.5,7.5,7.5c16.1,0,31.68,3.23,46.34,9.61c0.97,0.42,1.99,0.62,2.98,0.62
				C248.844,168.611,251.604,166.931,252.834,164.101z M170.184,396.291c1.13-3.99-1.19-8.13-5.18-9.26
				c-23.41-6.61-44.67-20.84-59.86-40.08c-2.57-3.26-7.29-3.81-10.54-1.24c-3.25,2.56-3.8,7.28-1.24,10.53
				c17.14,21.7,41.13,37.77,67.57,45.23c0.68,0.19,1.36,0.28,2.04,0.28C166.244,401.751,169.254,399.591,170.184,396.291z
				 M88.904,336.721c3.71-1.84,5.21-6.35,3.37-10.05c-2.94-5.89-5.38-12.06-7.27-18.34c-1.19-3.97-5.37-6.22-9.34-5.03
				c-3.96,1.19-6.21,5.37-5.02,9.34c2.13,7.1,4.89,14.07,8.2,20.72c1.31,2.63,3.97,4.15,6.72,4.15
				C86.684,337.511,87.834,337.261,88.904,336.721z"/>
			<path style="fill:#4D4D4D;" d="M389.324,2.451c2.93,2.92,2.93,7.67,0,10.6l-16.69,16.7l16.69,16.7c2.93,2.92,2.93,7.67,0,10.6
				c-1.46,1.47-3.38,2.2-5.3,2.2c-1.92,0-3.84-0.73-5.3-2.2l-16.7-16.69l-16.7,16.69c-1.46,1.47-3.38,2.2-5.3,2.2
				c-1.92,0-3.84-0.73-5.3-2.2c-2.93-2.93-2.93-7.68,0-10.6l16.69-16.7l-16.69-16.7c-2.93-2.93-2.93-7.68,0-10.6
				c2.93-2.93,7.67-2.93,10.6,0l16.7,16.69l16.7-16.69C381.654-0.479,386.394-0.479,389.324,2.451z"/>
			<path style="fill:#4D4D4D;" d="M369.524,59.791v17.24c0,26.88-21.87,48.75-48.75,48.75c-26.88,0-48.75-21.87-48.75-48.75v-9
				c0-18.6-15.14-33.74-33.74-33.74h-0.41c-18.61,0-33.75,15.14-33.75,33.74v22.44h30c4.15,0,7.5,3.36,7.5,7.5v27.01
				c64.44,19.38,111.51,79.24,111.51,149.9c0,86.3-70.21,156.51-156.51,156.51s-156.51-70.21-156.51-156.51
				c0-70.66,47.08-130.52,111.51-149.9v-27.01c0-4.14,3.36-7.5,7.5-7.5h30v-22.44c0-26.87,21.87-48.74,48.75-48.74h0.41
				c26.87,0,48.74,21.87,48.74,48.74v9c0,18.61,15.14,33.75,33.75,33.75c18.61,0,33.75-15.14,33.75-33.75v-17.24
				c0-4.15,3.36-7.5,7.5-7.5C366.164,52.291,369.524,55.641,369.524,59.791z M338.134,274.881c0-78.02-63.48-141.5-141.51-141.5
				c-78.02,0-141.51,63.48-141.51,141.5c0,78.03,63.49,141.51,141.51,141.51C274.654,416.391,338.134,352.911,338.134,274.881z
				 M226.624,121.271v-15.8h-60v15.8c9.72-1.89,19.74-2.89,30-2.89C206.884,118.381,216.914,119.381,226.624,121.271z"/>
			<path style="fill:#4D4D4D;" d="M328.134,274.881c0,27.93-8.67,54.62-25.09,77.19c-1.46,2.02-3.75,3.09-6.07,3.09
				c-1.53,0-3.07-0.47-4.4-1.44c-3.35-2.43-4.09-7.12-1.66-10.47c14.54-19.99,22.22-43.63,22.22-68.37
				c0-38.7-19.22-74.81-51.42-96.58c-3.43-2.32-4.33-6.99-2.01-10.42c2.32-3.43,6.98-4.33,10.41-2.01
				C306.444,190.441,328.134,231.191,328.134,274.881z"/>
			<path style="fill:#4D4D4D;" d="M248.944,154.231c3.8,1.66,5.54,6.08,3.89,9.87c-1.23,2.83-3.99,4.51-6.89,4.51
				c-0.99,0-2.01-0.2-2.98-0.62c-14.66-6.38-30.24-9.61-46.34-9.61c-4.14,0-7.5-3.36-7.5-7.5c0-4.15,3.36-7.5,7.5-7.5
				C214.794,143.381,232.394,147.031,248.944,154.231z"/>
			<path style="fill:#4D4D4D;" d="M165.004,387.031c3.99,1.13,6.31,5.27,5.18,9.26c-0.93,3.3-3.94,5.46-7.21,5.46
				c-0.68,0-1.36-0.09-2.04-0.28c-26.44-7.46-50.43-23.53-67.57-45.23c-2.56-3.25-2.01-7.97,1.24-10.53
				c3.25-2.57,7.97-2.02,10.54,1.24C120.334,366.191,141.594,380.421,165.004,387.031z"/>
			<path style="fill:#4D4D4D;" d="M92.274,326.671c1.84,3.7,0.34,8.21-3.37,10.05c-1.07,0.54-2.22,0.79-3.34,0.79
				c-2.75,0-5.41-1.52-6.72-4.15c-3.31-6.65-6.07-13.62-8.2-20.72c-1.19-3.97,1.06-8.15,5.02-9.34c3.97-1.19,8.15,1.06,9.34,5.03
				C86.894,314.611,89.334,320.781,92.274,326.671z"/>
		</g>
		<g>
		</g>
	</g>
</g>
<g>
</g>
<g>
</g>
<g>
</g>
<g>
</g>
<g>
</g>
<g>
</g>
<g>
</g>
<g>
</g>
<g>
</g>
<g>
</g>
<g>
</g>
<g>
</g>
<g>
</g>
<g>
</g>
<g>
</g>
</svg>
