<?xml version="1.0" encoding="iso-8859-1"?>
<!-- Generator: Adobe Illustrator 18.0.0, SVG Export Plug-In . SVG Version: 6.00 Build 0)  -->
<!DOCTYPE svg PUBLIC "-//W3C//DTD SVG 1.1//EN" "http://www.w3.org/Graphics/SVG/1.1/DTD/svg11.dtd">
<svg version="1.1" id="Capa_1" xmlns="http://www.w3.org/2000/svg" xmlns:xlink="http://www.w3.org/1999/xlink" x="0px" y="0px"
	 viewBox="0 0 402.369 402.369" style="enable-background:new 0 0 402.369 402.369;" xml:space="preserve">
<g>
	<g id="XMLID_4_">
		<g>
			<path style="fill:#F7DE63;" d="M276.528,196.804v41.89c-19.42,3.43-34.39,19.92-35.48,40.05h-15.19v-15.04
				c0-4.14-3.36-7.5-7.5-7.5c-4.15,0-7.5,3.36-7.5,7.5v15.04h-19.34v-15.04c0-4.14-3.36-7.5-7.5-7.5s-7.5,3.36-7.5,7.5v15.04h-15.2
				c-1.08-20.13-16.05-36.63-35.48-40.05v-41.89c0-20.09,7.84-38.97,22.07-53.16c14.18-14.12,32.98-21.89,53.03-21.89
				c0.18,0,0.36,0,0.54,0c20,0,38.81,7.77,52.98,21.89C268.688,157.834,276.528,176.714,276.528,196.804z M252.648,203.534
				c2.93-2.93,2.93-7.68,0-10.6c-2.93-2.93-7.67-2.93-10.6,0l-7.6,7.59l-7.59-7.59c-2.93-2.93-7.68-2.93-10.61,0
				c-2.93,2.92-2.93,7.67,0,10.6l7.59,7.6l-7.59,7.59c-2.93,2.93-2.93,7.68,0,10.61c1.46,1.46,3.38,2.2,5.3,2.2s3.84-0.74,5.31-2.2
				l7.59-7.6l7.6,7.6c1.46,1.46,3.38,2.2,5.3,2.2s3.84-0.74,5.3-2.2c2.93-2.93,2.93-7.68,0-10.61l-7.59-7.59L252.648,203.534z
				 M215.688,243.294c0-3.98-3.09-7.22-7-7.48v-0.52c0-4.15-3.36-7.5-7.5-7.5c-4.15,0-7.5,3.35-7.5,7.5v0.52
				c-3.91,0.26-7,3.5-7,7.48c0,4.14,3.35,7.5,7.5,7.5h14C212.328,250.794,215.688,247.434,215.688,243.294z M186.128,203.534
				c2.92-2.93,2.92-7.68,0-10.6c-2.93-2.93-7.68-2.93-10.61,0l-7.6,7.59l-7.59-7.59c-2.93-2.93-7.68-2.93-10.61,0
				c-2.93,2.92-2.93,7.67,0,10.6l7.6,7.6l-7.6,7.59c-2.93,2.93-2.93,7.68,0,10.61c1.47,1.46,3.39,2.2,5.3,2.2
				c1.92,0,3.84-0.74,5.31-2.2l7.59-7.6l7.6,7.6c1.46,1.46,3.38,2.2,5.3,2.2s3.84-0.74,5.31-2.2c2.92-2.93,2.92-7.68,0-10.61
				l-7.6-7.59L186.128,203.534z"/>
			<path style="fill:#D3B742;" d="M201.188,51.374c82.6,0,149.8,67.21,149.8,149.81c0,82.61-67.2,149.81-149.8,149.81
				c-82.61,0-149.81-67.2-149.81-149.81C51.378,118.584,118.578,51.374,201.188,51.374z M341.088,201.474c0-0.03,0-0.06,0-0.09
				c0-0.06,0-0.13,0-0.2c0-4.14-3.36-7.5-7.5-7.5c-4.14,0-7.5,3.36-7.5,7.5c0,0.05,0,0.09,0,0.14c0,0.04,0,0.08,0,0.12
				c-0.01,4.14,3.34,7.51,7.48,7.52c0.01,0,0.01,0,0.02,0C337.718,208.964,341.078,205.614,341.088,201.474z M329.458,167.404
				c3.94-1.28,6.1-5.51,4.82-9.45s-5.51-6.1-9.45-4.82c-3.94,1.28-6.1,5.51-4.82,9.45c1.03,3.17,3.97,5.19,7.14,5.19
				C327.908,167.774,328.688,167.654,329.458,167.404z M334.188,244.684c1.29-3.94-0.86-8.17-4.79-9.46
				c-3.94-1.29-8.18,0.86-9.46,4.8c-1.29,3.94,0.86,8.17,4.8,9.46c0.77,0.25,1.55,0.37,2.32,0.37
				C330.218,249.854,333.158,247.844,334.188,244.684z M312.738,129.434c3.35-2.43,4.09-7.12,1.65-10.47s-7.13-4.09-10.48-1.66
				c-3.35,2.44-4.09,7.13-1.65,10.48c1.47,2.02,3.75,3.09,6.07,3.09C309.858,130.874,311.408,130.404,312.738,129.434z
				 M314.228,283.634c2.44-3.35,1.71-8.04-1.64-10.48c-3.34-2.45-8.03-1.72-10.48,1.63c0.01,0,0.01,0,0.01,0
				c-2.45,3.34-1.72,8.04,1.62,10.48c1.34,0.97,2.89,1.44,4.42,1.44C310.478,286.704,312.758,285.644,314.228,283.634z
				 M291.528,245.534v-48.73c0-24.11-9.4-46.76-26.48-63.79c-17.01-16.94-39.57-26.26-63.52-26.26c-0.21,0-0.42,0-0.64,0
				c-23.99,0-46.56,9.32-63.56,26.26c-17.08,17.03-26.49,39.68-26.49,63.79v48.73c0,4.15,3.36,7.5,7.5,7.5
				c15.46,0,28.04,12.58,28.04,28.05v5.16c0,4.14,3.36,7.5,7.5,7.5h94.61c4.14,0,7.5-3.36,7.5-7.5v-5.16
				c0-15.47,12.58-28.05,28.04-28.05C288.178,253.034,291.528,249.684,291.528,245.534z M285.108,98.494
				c2.43-3.35,1.7-8.04-1.65-10.48c-3.35-2.43-8.04-1.7-10.48,1.65s-1.7,8.04,1.65,10.48c1.33,0.97,2.88,1.44,4.41,1.44
				C281.348,101.584,283.638,100.514,285.108,98.494z M283.228,314.514c3.36-2.43,4.1-7.12,1.67-10.47
				c-2.43-3.36-7.12-4.1-10.47-1.67c-3.35,2.43-4.1,7.12-1.67,10.47c1.47,2.03,3.75,3.1,6.08,3.1
				C280.358,315.944,281.898,315.484,283.228,314.514z M249.288,77.564c1.28-3.94-0.87-8.17-4.81-9.45
				c-3.94-1.28-8.17,0.87-9.45,4.81s0.87,8.17,4.81,9.45c0.77,0.25,1.55,0.37,2.32,0.37
				C245.318,82.744,248.258,80.734,249.288,77.564z M244.208,334.344c3.94-1.27,6.11-5.5,4.83-9.44c-1.27-3.94-5.5-6.1-9.44-4.83
				c-3.94,1.27-6.1,5.5-4.83,9.44c1.02,3.18,3.97,5.2,7.14,5.2C242.668,334.714,243.438,334.594,244.208,334.344z M208.748,68.784
				c0.01-4.14-3.35-7.5-7.49-7.5c-4.14-0.01-7.5,3.35-7.51,7.49c0,4.15,3.36,7.51,7.5,7.51S208.748,72.924,208.748,68.784z
				 M208.478,333.604c0.01-4.15-3.35-7.51-7.49-7.52c-4.14,0-7.5,3.35-7.51,7.49c-0.01,4.14,3.35,7.51,7.49,7.51h0.01
				C205.118,341.084,208.478,337.734,208.478,333.604z M162.648,82.334c3.94-1.27,6.1-5.5,4.82-9.44c-1.28-3.94-5.5-6.1-9.44-4.82
				c-3.94,1.27-6.11,5.5-4.83,9.44c1.03,3.17,3.97,5.19,7.14,5.19C161.098,82.704,161.878,82.584,162.648,82.334z M167.208,329.414
				c1.29-3.94-0.86-8.18-4.8-9.46s-8.17,0.87-9.46,4.8c-1.28,3.94,0.87,8.18,4.81,9.46c0.77,0.25,1.56,0.37,2.33,0.37
				C163.248,334.584,166.178,332.574,167.208,329.414z M127.838,100.074c3.35-2.44,4.09-7.13,1.66-10.48
				c-2.44-3.35-7.13-4.09-10.48-1.66c-3.35,2.44-4.09,7.13-1.66,10.48c1.47,2.02,3.76,3.09,6.08,3.09
				C124.968,101.504,126.508,101.044,127.838,100.074z M129.278,312.634c2.44-3.35,1.71-8.04-1.64-10.48
				c-3.35-2.44-8.04-1.71-10.48,1.63c-2.44,3.35-1.71,8.04,1.64,10.48c1.33,0.98,2.88,1.45,4.41,1.45
				C125.528,315.714,127.808,314.644,129.278,312.634z M100.178,127.694c2.44-3.35,1.71-8.04-1.64-10.48
				c-3.35-2.44-8.04-1.71-10.48,1.64c-2.44,3.35-1.7,8.04,1.65,10.48c1.33,0.97,2.88,1.44,4.41,1.44
				C96.428,130.774,98.708,129.704,100.178,127.694z M98.368,284.954c3.36-2.43,4.1-7.12,1.67-10.48
				c-2.44-3.35-7.13-4.09-10.48-1.66c-3.35,2.44-4.09,7.13-1.66,10.48c1.47,2.02,3.75,3.09,6.07,3.09
				C95.498,286.384,97.038,285.924,98.368,284.954z M82.398,162.474c1.28-3.94-0.87-8.17-4.81-9.46c-3.94-1.28-8.17,0.87-9.45,4.81
				h-0.01c-1.28,3.94,0.87,8.17,4.81,9.46c0.77,0.25,1.56,0.37,2.32,0.37C78.428,167.654,81.368,165.634,82.398,162.474z
				 M77.488,249.104c3.94-1.27,6.11-5.5,4.83-9.44c-1.28-3.94-5.5-6.11-9.44-4.83c-3.95,1.27-6.11,5.5-4.83,9.44
				c1.02,3.18,3.97,5.2,7.13,5.2C75.948,249.474,76.728,249.354,77.488,249.104z M76.278,201.054c0.01-4.14-3.35-7.5-7.49-7.5
				c-4.14-0.01-7.5,3.35-7.51,7.49c0,4.14,3.35,7.5,7.5,7.5C72.918,208.554,76.278,205.194,76.278,201.054z"/>
			<path style="fill:#E5D665;" d="M201.188,15.254c102.52,0,185.93,83.41,185.93,185.93c0,102.53-83.41,185.94-185.93,185.94
				c-102.53,0-185.94-83.41-185.94-185.94C15.248,98.664,98.658,15.254,201.188,15.254z M365.988,201.184
				c0-90.87-73.93-164.81-164.8-164.81c-90.88,0-164.81,73.94-164.81,164.81c0,90.88,73.93,164.81,164.81,164.81
				C292.058,365.994,365.988,292.064,365.988,201.184z"/>
			<path style="fill:#4D4D4D;" d="M201.188,0.254c110.79,0,200.93,90.14,200.93,200.93c0,110.8-90.14,200.94-200.93,200.94
				c-110.8,0-200.94-90.14-200.94-200.94C0.248,90.394,90.388,0.254,201.188,0.254z M387.118,201.184
				c0-102.52-83.41-185.93-185.93-185.93c-102.53,0-185.94,83.41-185.94,185.93c0,102.53,83.41,185.94,185.94,185.94
				C303.708,387.124,387.118,303.714,387.118,201.184z"/>
			<path style="fill:#4D4D4D;" d="M341.088,201.384c0,0.03,0,0.06,0,0.09c-0.01,4.14-3.37,7.49-7.5,7.49c-0.01,0-0.01,0-0.02,0
				c-4.14-0.01-7.49-3.38-7.48-7.52c0-0.04,0-0.08,0-0.12c0-0.05,0-0.09,0-0.14c0-4.14,3.36-7.5,7.5-7.5c4.14,0,7.5,3.36,7.5,7.5
				C341.088,201.254,341.088,201.324,341.088,201.384z"/>
			<path style="fill:#4D4D4D;" d="M334.278,157.954c1.28,3.94-0.88,8.17-4.82,9.45c-0.77,0.25-1.55,0.37-2.31,0.37
				c-3.17,0-6.11-2.02-7.14-5.19c-1.28-3.94,0.88-8.17,4.82-9.45C328.768,151.854,332.998,154.014,334.278,157.954z"/>
			<path style="fill:#4D4D4D;" d="M329.398,235.224c3.93,1.29,6.08,5.52,4.79,9.46c-1.03,3.16-3.97,5.17-7.13,5.17
				c-0.77,0-1.55-0.12-2.32-0.37c-3.94-1.29-6.09-5.52-4.8-9.46C321.218,236.084,325.458,233.934,329.398,235.224z"/>
			<path style="fill:#4D4D4D;" d="M201.188,36.374c90.87,0,164.8,73.94,164.8,164.81c0,90.88-73.93,164.81-164.8,164.81
				c-90.88,0-164.81-73.93-164.81-164.81C36.378,110.314,110.308,36.374,201.188,36.374z M350.988,201.184
				c0-82.6-67.2-149.81-149.8-149.81c-82.61,0-149.81,67.21-149.81,149.81c0,82.61,67.2,149.81,149.81,149.81
				C283.788,350.994,350.988,283.794,350.988,201.184z"/>
			<path style="fill:#4D4D4D;" d="M314.388,118.964c2.44,3.35,1.7,8.04-1.65,10.47c-1.33,0.97-2.88,1.44-4.41,1.44
				c-2.32,0-4.6-1.07-6.07-3.09c-2.44-3.35-1.7-8.04,1.65-10.48C307.258,114.874,311.948,115.614,314.388,118.964z"/>
			<path style="fill:#4D4D4D;" d="M312.588,273.154c3.35,2.44,4.08,7.13,1.64,10.48c-1.47,2.01-3.75,3.07-6.07,3.07
				c-1.53,0-3.08-0.47-4.42-1.44c-3.34-2.44-4.07-7.14-1.62-10.48c0,0,0,0-0.01,0C304.558,271.434,309.248,270.704,312.588,273.154z
				"/>
			<path style="fill:#4D4D4D;" d="M291.528,196.804v48.73c0,4.15-3.35,7.5-7.5,7.5c-15.46,0-28.04,12.58-28.04,28.05v5.16
				c0,4.14-3.36,7.5-7.5,7.5h-94.61c-4.14,0-7.5-3.36-7.5-7.5v-5.16c0-15.47-12.58-28.05-28.04-28.05c-4.14,0-7.5-3.35-7.5-7.5
				v-48.73c0-24.11,9.41-46.76,26.49-63.79c17-16.94,39.57-26.26,63.56-26.26c0.22,0,0.43,0,0.64,0c23.95,0,46.51,9.32,63.52,26.26
				C282.128,150.044,291.528,172.694,291.528,196.804z M276.528,238.694v-41.89c0-20.09-7.84-38.97-22.07-53.16
				c-14.17-14.12-32.98-21.89-52.98-21.89c-0.18,0-0.36,0-0.54,0c-20.05,0-38.85,7.77-53.03,21.89
				c-14.23,14.19-22.07,33.07-22.07,53.16v41.89c19.43,3.42,34.4,19.92,35.48,40.05h15.2v-15.04c0-4.14,3.36-7.5,7.5-7.5
				s7.5,3.36,7.5,7.5v15.04h19.34v-15.04c0-4.14,3.35-7.5,7.5-7.5c4.14,0,7.5,3.36,7.5,7.5v15.04h15.19
				C242.138,258.614,257.108,242.124,276.528,238.694z"/>
			<path style="fill:#4D4D4D;" d="M283.458,88.014c3.35,2.44,4.08,7.13,1.65,10.48c-1.47,2.02-3.76,3.09-6.07,3.09
				c-1.53,0-3.08-0.47-4.41-1.44c-3.35-2.44-4.09-7.13-1.65-10.48S280.108,85.584,283.458,88.014z"/>
			<path style="fill:#4D4D4D;" d="M284.898,304.044c2.43,3.35,1.69,8.04-1.67,10.47c-1.33,0.97-2.87,1.43-4.39,1.43
				c-2.33,0-4.61-1.07-6.08-3.1c-2.43-3.35-1.68-8.04,1.67-10.47C277.778,299.944,282.468,300.684,284.898,304.044z"/>
			<path style="fill:#4D4D4D;" d="M252.648,192.934c2.93,2.92,2.93,7.67,0,10.6l-7.59,7.6l7.59,7.59c2.93,2.93,2.93,7.68,0,10.61
				c-1.46,1.46-3.38,2.2-5.3,2.2s-3.84-0.74-5.3-2.2l-7.6-7.6l-7.59,7.6c-1.47,1.46-3.39,2.2-5.31,2.2s-3.84-0.74-5.3-2.2
				c-2.93-2.93-2.93-7.68,0-10.61l7.59-7.59l-7.59-7.6c-2.93-2.93-2.93-7.68,0-10.6c2.93-2.93,7.68-2.93,10.61,0l7.59,7.59l7.6-7.59
				C244.978,190.004,249.718,190.004,252.648,192.934z"/>
			<path style="fill:#4D4D4D;" d="M244.478,68.114c3.94,1.28,6.09,5.51,4.81,9.45c-1.03,3.17-3.97,5.18-7.13,5.18
				c-0.77,0-1.55-0.12-2.32-0.37c-3.94-1.28-6.09-5.51-4.81-9.45S240.538,66.834,244.478,68.114z"/>
			<path style="fill:#4D4D4D;" d="M249.038,324.904c1.28,3.94-0.89,8.17-4.83,9.44c-0.77,0.25-1.54,0.37-2.3,0.37
				c-3.17,0-6.12-2.02-7.14-5.2c-1.27-3.94,0.89-8.17,4.83-9.44C243.538,318.804,247.768,320.964,249.038,324.904z"/>
			<path style="fill:#4D4D4D;" d="M208.688,235.814c3.91,0.26,7,3.5,7,7.48c0,4.14-3.36,7.5-7.5,7.5h-14c-4.15,0-7.5-3.36-7.5-7.5
				c0-3.98,3.09-7.22,7-7.48v-0.52c0-4.15,3.35-7.5,7.5-7.5c4.14,0,7.5,3.35,7.5,7.5V235.814z"/>
			<path style="fill:#4D4D4D;" d="M201.258,61.284c4.14,0,7.5,3.36,7.49,7.5c0,4.14-3.36,7.5-7.5,7.5s-7.5-3.36-7.5-7.51
				C193.758,64.634,197.118,61.274,201.258,61.284z"/>
			<path style="fill:#4D4D4D;" d="M200.988,326.084c4.14,0.01,7.5,3.37,7.49,7.52c0,4.13-3.36,7.48-7.5,7.48h-0.01
				c-4.14,0-7.5-3.37-7.49-7.51C193.488,329.434,196.848,326.084,200.988,326.084z"/>
			<path style="fill:#4D4D4D;" d="M186.128,192.934c2.92,2.92,2.92,7.67,0,10.6l-7.6,7.6l7.6,7.59c2.92,2.93,2.92,7.68,0,10.61
				c-1.47,1.46-3.39,2.2-5.31,2.2s-3.84-0.74-5.3-2.2l-7.6-7.6l-7.59,7.6c-1.47,1.46-3.39,2.2-5.31,2.2c-1.91,0-3.83-0.74-5.3-2.2
				c-2.93-2.93-2.93-7.68,0-10.61l7.6-7.59l-7.6-7.6c-2.93-2.93-2.93-7.68,0-10.6c2.93-2.93,7.68-2.93,10.61,0l7.59,7.59l7.6-7.59
				C178.448,190.004,183.198,190.004,186.128,192.934z"/>
			<path style="fill:#4D4D4D;" d="M167.468,72.894c1.28,3.94-0.88,8.17-4.82,9.44c-0.77,0.25-1.55,0.37-2.31,0.37
				c-3.17,0-6.11-2.02-7.14-5.19c-1.28-3.94,0.89-8.17,4.83-9.44C161.968,66.794,166.188,68.954,167.468,72.894z"/>
			<path style="fill:#4D4D4D;" d="M162.408,319.954c3.94,1.28,6.09,5.52,4.8,9.46c-1.03,3.16-3.96,5.17-7.12,5.17
				c-0.77,0-1.56-0.12-2.33-0.37c-3.94-1.28-6.09-5.52-4.81-9.46C154.238,320.824,158.468,318.674,162.408,319.954z"/>
			<path style="fill:#4D4D4D;" d="M129.498,89.594c2.43,3.35,1.69,8.04-1.66,10.48c-1.33,0.97-2.87,1.43-4.4,1.43
				c-2.32,0-4.61-1.07-6.08-3.09c-2.43-3.35-1.69-8.04,1.66-10.48C122.368,85.504,127.058,86.244,129.498,89.594z"/>
			<path style="fill:#4D4D4D;" d="M127.638,302.154c3.35,2.44,4.08,7.13,1.64,10.48c-1.47,2.01-3.75,3.08-6.07,3.08
				c-1.53,0-3.08-0.47-4.41-1.45c-3.35-2.44-4.08-7.13-1.64-10.48C119.598,300.444,124.288,299.714,127.638,302.154z"/>
			<path style="fill:#4D4D4D;" d="M98.538,117.214c3.35,2.44,4.08,7.13,1.64,10.48c-1.47,2.01-3.75,3.08-6.06,3.08
				c-1.53,0-3.08-0.47-4.41-1.44c-3.35-2.44-4.09-7.13-1.65-10.48C90.498,115.504,95.188,114.774,98.538,117.214z"/>
			<path style="fill:#4D4D4D;" d="M100.038,274.474c2.43,3.36,1.69,8.05-1.67,10.48c-1.33,0.97-2.87,1.43-4.4,1.43
				c-2.32,0-4.6-1.07-6.07-3.09c-2.43-3.35-1.69-8.04,1.66-10.48C92.908,270.384,97.598,271.124,100.038,274.474z"/>
			<path style="fill:#4D4D4D;" d="M77.588,153.014c3.94,1.29,6.09,5.52,4.81,9.46c-1.03,3.16-3.97,5.18-7.14,5.18
				c-0.76,0-1.55-0.12-2.32-0.37c-3.94-1.29-6.09-5.52-4.81-9.46h0.01C69.418,153.884,73.648,151.734,77.588,153.014z"/>
			<path style="fill:#4D4D4D;" d="M82.318,239.664c1.28,3.94-0.89,8.17-4.83,9.44c-0.76,0.25-1.54,0.37-2.31,0.37
				c-3.16,0-6.11-2.02-7.13-5.2c-1.28-3.94,0.88-8.17,4.83-9.44C76.818,233.554,81.038,235.724,82.318,239.664z"/>
			<path style="fill:#4D4D4D;" d="M68.788,193.554c4.14,0,7.5,3.36,7.49,7.5c0,4.14-3.36,7.5-7.5,7.49c-4.15,0-7.5-3.36-7.5-7.5
				C61.288,196.904,64.648,193.544,68.788,193.554z"/>
		</g>
		<g>
		</g>
	</g>
</g>
<g>
</g>
<g>
</g>
<g>
</g>
<g>
</g>
<g>
</g>
<g>
</g>
<g>
</g>
<g>
</g>
<g>
</g>
<g>
</g>
<g>
</g>
<g>
</g>
<g>
</g>
<g>
</g>
<g>
</g>
</svg>
