<?xml version="1.0" encoding="iso-8859-1"?>
<!-- Generator: Adobe Illustrator 18.0.0, SVG Export Plug-In . SVG Version: 6.00 Build 0)  -->
<!DOCTYPE svg PUBLIC "-//W3C//DTD SVG 1.1//EN" "http://www.w3.org/Graphics/SVG/1.1/DTD/svg11.dtd">
<svg version="1.1" id="Capa_1" xmlns="http://www.w3.org/2000/svg" xmlns:xlink="http://www.w3.org/1999/xlink" x="0px" y="0px"
	 viewBox="0 0 473.5 473.5" style="enable-background:new 0 0 473.5 473.5;" xml:space="preserve">
<g>
	<g id="XMLID_4_">
		<g>
			<path style="fill:#4D4D4D;" d="M467.943,229.579c3.15,0.96,5.31,3.87,5.31,7.17s-2.16,6.21-5.31,7.17l-139.3,42.54l36.45,68.49
				c1.55,2.91,1.01,6.49-1.32,8.82c-1.44,1.45-3.36,2.2-5.3,2.2c-1.2,0-2.41-0.29-3.53-0.88l-68.48-36.44l-42.54,139.29
				c-0.96,3.16-3.87,5.31-7.17,5.31s-6.21-2.15-7.18-5.31l-42.53-139.29l-68.49,36.44c-1.11,0.59-2.32,0.88-3.52,0.88
				c-1.95,0-3.86-0.75-5.31-2.2c-2.33-2.33-2.86-5.91-1.31-8.82l36.44-68.49l-139.29-42.54c-3.16-0.96-5.31-3.87-5.31-7.17
				s2.15-6.21,5.31-7.17l139.29-42.54l-36.44-68.49c-1.55-2.91-1.02-6.49,1.31-8.82c2.34-2.34,5.92-2.87,8.83-1.32l68.49,36.44
				l42.53-139.29c0.97-3.15,3.88-5.31,7.18-5.31s6.21,2.16,7.17,5.31l42.54,139.3l68.48-36.45c2.91-1.55,6.5-1.02,8.83,1.32
				c2.33,2.33,2.87,5.91,1.32,8.82l-36.45,68.49L467.943,229.579z M318.703,229.249h96.81l-106.96-32.66
				C314.073,206.419,317.633,217.479,318.703,229.249z M308.553,276.909l106.96-32.66h-96.81
				C317.633,256.019,314.073,267.089,308.553,276.909z M314.033,182.579l26.28-49.39l-49.39,26.28l5.41,17.7L314.033,182.579z
				 M340.313,340.309l-26.28-49.39l-17.7,5.41l-5.41,17.7L340.313,340.309z M304.063,236.749c0-37.11-30.2-67.31-67.31-67.31
				c-37.12,0-67.31,30.2-67.31,67.31c0,37.12,30.19,67.31,67.31,67.31C273.863,304.059,304.063,273.869,304.063,236.749z
				 M276.913,164.939l-32.66-106.95v96.81C256.023,155.869,267.083,159.429,276.913,164.939z M244.253,415.509l32.66-106.95
				c-9.83,5.52-20.89,9.07-32.66,10.14V415.509z M229.253,415.509v-96.81c-11.78-1.07-22.84-4.62-32.66-10.14L229.253,415.509z
				 M229.253,154.799v-96.81l-32.66,106.95C206.413,159.429,217.473,155.869,229.253,154.799z M177.173,177.169l5.4-17.7
				l-49.38-26.28l26.28,49.39L177.173,177.169z M182.573,314.029l-5.4-17.7l-17.7-5.41l-26.28,49.39L182.573,314.029z
				 M164.943,196.589l-106.95,32.66h96.81C155.863,217.479,159.423,206.419,164.943,196.589z M57.993,244.249l106.95,32.66
				c-5.52-9.82-9.08-20.88-10.14-32.66H57.993z"/>
			<path style="fill:#E8465A;" d="M415.513,229.249h-96.81c-1.07-11.77-4.63-22.83-10.15-32.66L415.513,229.249z"/>
			<path style="fill:#5B79CE;" d="M415.513,244.249l-106.96,32.66c5.52-9.82,9.08-20.89,10.15-32.66H415.513z"/>
			<polygon style="fill:#CCCCCC;" points="340.313,133.189 314.033,182.579 296.333,177.169 290.923,159.469 			"/>
			<polygon style="fill:#CCCCCC;" points="314.033,290.919 340.313,340.309 290.923,314.029 296.333,296.329 			"/>
			<path style="fill:#5B79CE;" d="M236.753,169.439c37.11,0,67.31,30.2,67.31,67.31c0,37.12-30.2,67.31-67.31,67.31
				c-37.12,0-67.31-30.19-67.31-67.31C169.443,199.639,199.633,169.439,236.753,169.439z M285.053,259.059v-24
				c0-12.9-5.03-25.01-14.16-34.12c-9.1-9.06-21.16-14.04-33.95-14.04c-0.11,0-0.23,0-0.34,0c-12.83,0-24.9,4.98-33.99,14.04
				c-9.14,9.11-14.17,21.22-14.17,34.12v24c0,4.14,3.36,7.5,7.5,7.5c5.52,0,10.01,4.49,10.01,10v2.55c0,4.14,3.36,7.5,7.5,7.5h46.59
				c4.15,0,7.5-3.36,7.5-7.5v-2.55c0-5.51,4.49-10,10.01-10C281.693,266.559,285.053,263.199,285.053,259.059z"/>
			<path style="fill:#4D4D4D;" d="M285.053,235.059v24c0,4.14-3.36,7.5-7.5,7.5c-5.52,0-10.01,4.49-10.01,10v2.55
				c0,4.14-3.35,7.5-7.5,7.5h-46.59c-4.14,0-7.5-3.36-7.5-7.5v-2.55c0-5.51-4.49-10-10.01-10c-4.14,0-7.5-3.36-7.5-7.5v-24
				c0-12.9,5.03-25.01,14.17-34.12c9.09-9.06,21.16-14.04,33.99-14.04c0.11,0,0.23,0,0.34,0c12.79,0,24.85,4.98,33.95,14.04
				C280.023,210.049,285.053,222.159,285.053,235.059z M270.053,252.709v-17.65c0-8.88-3.46-17.22-9.75-23.49
				c-6.26-6.24-14.57-9.67-23.41-9.67c-0.08,0-0.16,0-0.24,0c-8.89,0-17.19,3.43-23.45,9.67c-6.29,6.27-9.76,14.61-9.76,23.49v17.65
				c8.6,2.7,15.21,9.94,17.02,18.9h32.58C254.853,262.649,261.463,255.409,270.053,252.709z"/>
			<path style="fill:#5B79CE;" d="M244.253,57.989l32.66,106.95c-9.83-5.51-20.89-9.07-32.66-10.14V57.989z"/>
			<path style="fill:#E8465A;" d="M276.913,308.559l-32.66,106.95v-96.81C256.023,317.629,267.083,314.079,276.913,308.559z"/>
			<path style="fill:#CCCCCC;" d="M259.483,234.959c-0.03-0.05-0.07-0.11-0.07-0.11c-1.71-2.48-4.87-3.72-7.81-3.05
				c-3.24,0.75-5.69,3.61-5.84,6.95c-0.31,6.72,8.04,10.41,12.79,5.67C261.043,241.929,261.463,237.889,259.483,234.959z
				 M227.133,236.149c-2.63-5.96-11.46-5.91-13.86,0.24c-1.19,3.05-0.22,6.64,2.37,8.65c2.33,1.8,5.58,2.07,8.17,0.67
				c3.28-1.77,4.79-5.87,3.41-9.33c0,0,0-0.02-0.03-0.07l-0.02-0.06C227.153,236.199,227.143,236.169,227.133,236.149z
				 M243.633,250.429c-2.63-5.97-11.49-5.91-13.88,0.27c-2.51,6.5,4.8,12.66,10.78,9.17c3.16-1.84,4.52-5.82,3.19-9.21
				c0.01,0,0-0.02-0.03-0.07C243.683,250.549,243.633,250.439,243.633,250.429z M270.053,235.059v17.65
				c-8.59,2.7-15.2,9.94-17.01,18.9h-32.58c-1.81-8.96-8.42-16.2-17.02-18.9v-17.65c0-8.88,3.47-17.22,9.76-23.49
				c6.26-6.24,14.56-9.67,23.45-9.67c0.08,0,0.16,0,0.24,0c8.84,0,17.15,3.43,23.41,9.67
				C266.593,217.839,270.053,226.179,270.053,235.059z"/>
			<path style="fill:#4D4D4D;" d="M259.483,234.959c1.98,2.93,1.56,6.97-0.93,9.46c-4.75,4.74-13.1,1.05-12.79-5.67
				c0.15-3.34,2.6-6.2,5.84-6.95c2.94-0.67,6.1,0.57,7.81,3.05C259.413,234.849,259.453,234.909,259.483,234.959z"/>
			<path style="fill:#4D4D4D;" d="M243.723,250.659c1.33,3.39-0.03,7.37-3.19,9.21c-5.98,3.49-13.29-2.67-10.78-9.17
				c2.39-6.18,11.25-6.24,13.88-0.27c0,0.01,0.05,0.12,0.06,0.16C243.723,250.639,243.733,250.659,243.723,250.659z"/>
			<path style="fill:#5B79CE;" d="M229.253,318.699v96.81l-32.66-106.95C206.413,314.079,217.473,317.629,229.253,318.699z"/>
			<path style="fill:#E8465A;" d="M229.253,57.989v96.81c-11.78,1.07-22.84,4.63-32.66,10.14L229.253,57.989z"/>
			<path style="fill:#4D4D4D;" d="M227.223,236.379c1.38,3.46-0.13,7.56-3.41,9.33c-2.59,1.4-5.84,1.13-8.17-0.67
				c-2.59-2.01-3.56-5.6-2.37-8.65c2.4-6.15,11.23-6.2,13.86-0.24c0.01,0.03,0.03,0.07,0.04,0.1l0.02,0.06
				C227.223,236.359,227.223,236.379,227.223,236.379z"/>
			<polygon style="fill:#CCCCCC;" points="182.573,159.469 177.173,177.169 159.473,182.579 133.193,133.189 			"/>
			<polygon style="fill:#CCCCCC;" points="177.173,296.329 182.573,314.029 133.193,340.309 159.473,290.919 			"/>
			<path style="fill:#5B79CE;" d="M57.993,229.249l106.95-32.66c-5.52,9.83-9.08,20.89-10.14,32.66H57.993z"/>
			<path style="fill:#E8465A;" d="M164.943,276.909l-106.95-32.66h96.81C155.863,256.029,159.423,267.089,164.943,276.909z"/>
		</g>
		<g>
		</g>
	</g>
</g>
<g>
</g>
<g>
</g>
<g>
</g>
<g>
</g>
<g>
</g>
<g>
</g>
<g>
</g>
<g>
</g>
<g>
</g>
<g>
</g>
<g>
</g>
<g>
</g>
<g>
</g>
<g>
</g>
<g>
</g>
</svg>
