<?xml version="1.0" encoding="iso-8859-1"?>
<!-- Generator: Adobe Illustrator 18.0.0, SVG Export Plug-In . SVG Version: 6.00 Build 0)  -->
<!DOCTYPE svg PUBLIC "-//W3C//DTD SVG 1.1//EN" "http://www.w3.org/Graphics/SVG/1.1/DTD/svg11.dtd">
<svg version="1.1" id="Capa_1" xmlns="http://www.w3.org/2000/svg" xmlns:xlink="http://www.w3.org/1999/xlink" x="0px" y="0px"
	 viewBox="0 0 415.08 415.08" style="enable-background:new 0 0 415.08 415.08;" xml:space="preserve">
<g>
	<g id="XMLID_38_">
		<g>
			<path style="fill:#5B79CE;" d="M263.573,230.385c5.45,18.87,3.89,38.83-4.53,56.76c-9.19,19.56-25.45,34.37-45.78,41.71
				c-20.34,7.33-42.31,6.31-61.88-2.88c-17.93-8.42-31.87-22.79-39.72-40.8C155.183,251.755,208.723,232.435,263.573,230.385z
				 M235.283,299.955c1.36-3.91-0.72-8.19-4.63-9.54l-23.38-8.11l8.1-23.38c1.36-3.92-0.71-8.19-4.62-9.55
				c-3.92-1.35-8.19,0.72-9.55,4.63l-8.1,23.39l-23.39-8.11c-3.91-1.36-8.18,0.72-9.54,4.63c-1.36,3.91,0.72,8.19,4.63,9.54
				l23.38,8.11l-8.1,23.38c-1.36,3.92,0.71,8.19,4.63,9.55c0.81,0.28,1.64,0.41,2.45,0.41c3.11,0,6.01-1.94,7.09-5.04l8.1-23.39
				l23.39,8.11c0.81,0.28,1.64,0.41,2.45,0.41C231.303,304.995,234.213,303.055,235.283,299.955z"/>
			<path style="fill:#4D4D4D;" d="M410.923,109.925c2.59,7.18,3.91,14.67,3.91,22.27c0,27.64-17.49,52.51-43.52,61.87l-92.97,33.44
				c6.03,21.99,4.07,45.16-5.73,66.02c-10.89,23.19-30.16,40.74-54.26,49.44c-10.64,3.83-21.65,5.74-32.62,5.74
				c-13.91,0-27.76-3.06-40.72-9.15c-20.92-9.82-37.22-26.48-46.61-47.32l-10.1,3.63c-7.33,2.64-14.83,3.89-22.21,3.89
				c-26.96,0-52.3-16.71-61.95-43.5c-2.58-7.2-3.89-14.69-3.89-22.26c0-27.66,17.49-52.54,43.52-61.9l283.01-101.8
				c16.53-5.95,34.38-5.11,50.28,2.38C392.953,80.155,404.983,93.385,410.923,109.925z M399.833,132.195
				c0-5.86-1.02-11.64-3.02-17.19c-4.59-12.77-13.87-22.98-26.14-28.76c-12.27-5.78-26.06-6.43-38.81-1.84l-283.01,101.8
				c-20.1,7.23-33.6,26.43-33.6,47.79c0,5.84,1.01,11.62,3.01,17.18c9.48,26.34,38.62,40.06,64.96,30.58l15.71-5.66
				c47.95-38.09,107.93-59.67,169.16-60.84l98.14-35.3C386.323,172.725,399.833,153.525,399.833,132.195z M259.043,287.145
				c8.42-17.93,9.98-37.89,4.53-56.76c-54.85,2.05-108.39,21.37-151.91,54.79c7.85,18.01,21.79,32.38,39.72,40.8
				c19.57,9.19,41.54,10.21,61.88,2.88C233.593,321.515,249.853,306.705,259.043,287.145z"/>
			<path style="fill:#4D4D4D;" d="M230.653,290.415c3.91,1.35,5.99,5.63,4.63,9.54c-1.07,3.1-3.98,5.04-7.09,5.04
				c-0.81,0-1.64-0.13-2.45-0.41l-23.39-8.11l-8.1,23.39c-1.08,3.1-3.98,5.04-7.09,5.04c-0.81,0-1.64-0.13-2.45-0.41
				c-3.92-1.36-5.99-5.63-4.63-9.55l8.1-23.38l-23.38-8.11c-3.91-1.35-5.99-5.63-4.63-9.54c1.36-3.91,5.63-5.99,9.54-4.63
				l23.39,8.11l8.1-23.39c1.36-3.91,5.63-5.98,9.55-4.63c3.91,1.36,5.98,5.63,4.62,9.55l-8.1,23.38L230.653,290.415z"/>
		</g>
		<g>
		</g>
	</g>
</g>
<g>
</g>
<g>
</g>
<g>
</g>
<g>
</g>
<g>
</g>
<g>
</g>
<g>
</g>
<g>
</g>
<g>
</g>
<g>
</g>
<g>
</g>
<g>
</g>
<g>
</g>
<g>
</g>
<g>
</g>
</svg>
