<?xml version="1.0" encoding="iso-8859-1"?>
<!-- Generator: Adobe Illustrator 18.0.0, SVG Export Plug-In . SVG Version: 6.00 Build 0)  -->
<!DOCTYPE svg PUBLIC "-//W3C//DTD SVG 1.1//EN" "http://www.w3.org/Graphics/SVG/1.1/DTD/svg11.dtd">
<svg version="1.1" id="Capa_1" xmlns="http://www.w3.org/2000/svg" xmlns:xlink="http://www.w3.org/1999/xlink" x="0px" y="0px"
	 viewBox="0 0 425.804 425.804" style="enable-background:new 0 0 425.804 425.804;" xml:space="preserve">
<g>
	<rect x="187.294" y="7.75" style="fill:#E5D665;" width="39.425" height="60.285"/>
	<g id="XMLID_24_">
		<g>
			<path style="fill:#E5D665;" d="M240.805,57.681c1.78,5.22-1.02,10.92-6.24,12.7l-48.66,16.59c-2.53,0.86-5.24,0.69-7.64-0.49
				s-4.19-3.22-5.06-5.75c-0.86-2.53-0.69-5.24,0.49-7.64c1.18-2.4,3.22-4.19,5.75-5.06l48.67-16.59c1.06-0.36,2.15-0.54,3.24-0.54
				c1.5,0,3.01,0.35,4.4,1.03C238.155,53.111,239.945,55.151,240.805,57.681z"/>
			<path style="fill:#E5D665;" d="M240.805,94.871c1.78,5.22-1.02,10.92-6.24,12.7l-49.18,16.74c-5.07,1.43-10.46-1.34-12.18-6.39
				c-0.86-2.53-0.69-5.24,0.49-7.64c1.18-2.4,3.22-4.19,5.75-5.06l48.67-16.59c1.06-0.36,2.15-0.54,3.24-0.54
				c1.5,0,3.01,0.35,4.4,1.03C238.155,90.301,239.945,92.341,240.805,94.871z"/>
			<path style="fill:#E5D665;" d="M240.805,131.831c1.78,5.22-1.02,10.91-6.24,12.69l-48.66,16.6c-2.53,0.86-5.24,0.68-7.64-0.5
				c-2.4-1.17-4.19-3.22-5.06-5.75c-0.86-2.52-0.69-5.24,0.49-7.64c1.18-2.39,3.22-4.19,5.75-5.05l49.31-16.78
				c0.85-0.23,1.73-0.35,2.6-0.35c1.5,0,3.01,0.34,4.4,1.03C238.155,127.261,239.945,129.301,240.805,131.831z"/>
			<path style="fill:#E5D665;" d="M222.355,164.541v61.88c0,5.21-4.24,9.45-9.46,9.45c-5.21,0-9.44-4.24-9.44-9.45v-55.44
				L222.355,164.541z"/>
			<path style="fill:#4D4D4D;" d="M274.505,199.931c30.07,40.95,45.31,75.75,45.31,103.42c0,67.38-47.96,122.2-106.91,122.2
				s-106.92-54.82-106.92-122.2c0-27.68,15.25-62.47,45.33-103.42c6.29-8.58,13.09-17.24,20.3-25.86
				c-5.98-2.95-10.45-8.05-12.6-14.36c-2.16-6.32-1.73-13.1,1.22-19.09c1.41-2.87,3.32-5.38,5.62-7.46
				c-3.03-2.75-5.43-6.27-6.84-10.4c-2.16-6.32-1.73-13.1,1.22-19.1c1.43-2.91,3.38-5.46,5.73-7.57c-3.15-2.82-5.55-6.41-6.95-10.52
				c-2.16-6.32-1.73-13.1,1.22-19.1c2.95-5.99,8.05-10.48,14.37-12.63l5.19-1.77V7.751c0-4.14,3.36-7.5,7.5-7.5s7.5,3.36,7.5,7.5
				v39.2l24.42-8.32V7.751c0-4.14,3.36-7.5,7.5-7.5c4.15,0,7.5,3.36,7.5,7.5v28.31c2.8,0.33,5.55,1.13,8.15,2.41
				c6,2.95,10.49,8.05,12.64,14.37c3.33,9.76,0.26,20.17-6.96,26.67c3.15,2.82,5.56,6.41,6.96,10.52c3.31,9.7,0.29,20.04-6.83,26.55
				c3.09,2.8,5.45,6.35,6.83,10.41c4.32,12.66-2.14,26.44-14.45,31.31C248.825,167.481,261.565,182.311,274.505,199.931z
				 M304.815,303.351c0-24.41-14.27-56.22-42.4-94.55c-8.9-12.11-17.81-22.97-25.06-31.41v36.61c38.43,50.1,44.25,77.45,44.25,89.35
				c0,46.31-30.82,83.99-68.7,83.99s-68.7-37.68-68.7-83.99c0-11.87,5.81-39.17,44.25-89.32v-36.64
				c-8.93,10.38-17.53,21.16-25.05,31.41c-28.15,38.33-42.42,70.14-42.42,94.55c0,59.11,41.24,107.2,91.92,107.2
				S304.815,362.461,304.815,303.351z M266.605,303.351c0-14.7-11.29-38.61-31.38-66.98c-3.81,8.53-12.38,14.5-22.32,14.5
				c-9.93,0-18.49-5.96-22.32-14.48c-20.1,28.4-31.38,52.3-31.38,66.96c0,38.04,24.09,68.99,53.7,68.99
				S266.605,341.391,266.605,303.351z M234.565,70.381c5.22-1.78,8.02-7.48,6.24-12.7c-0.86-2.53-2.65-4.57-5.05-5.75
				c-1.39-0.68-2.9-1.03-4.4-1.03c-1.09,0-2.18,0.18-3.24,0.54l-48.67,16.59c-2.53,0.87-4.57,2.66-5.75,5.06
				c-1.18,2.4-1.35,5.11-0.49,7.64c0.87,2.53,2.66,4.57,5.06,5.75s5.11,1.35,7.64,0.49L234.565,70.381z M234.565,107.571
				c5.22-1.78,8.02-7.48,6.24-12.7c-0.86-2.53-2.65-4.57-5.05-5.75c-1.39-0.68-2.9-1.03-4.4-1.03c-1.09,0-2.18,0.18-3.24,0.54
				l-48.67,16.59c-2.53,0.87-4.57,2.66-5.75,5.06c-1.18,2.4-1.35,5.11-0.49,7.64c1.72,5.05,7.11,7.82,12.18,6.39L234.565,107.571z
				 M234.565,144.521c5.22-1.78,8.02-7.47,6.24-12.69c-0.86-2.53-2.65-4.57-5.05-5.75c-1.39-0.69-2.9-1.03-4.4-1.03
				c-0.87,0-1.75,0.12-2.6,0.35l-49.31,16.78c-2.53,0.86-4.57,2.66-5.75,5.05c-1.18,2.4-1.35,5.12-0.49,7.64
				c0.87,2.53,2.66,4.58,5.06,5.75c2.4,1.18,5.11,1.36,7.64,0.5L234.565,144.521z M222.355,226.421v-61.88l-18.9,6.44v55.44
				c0,5.21,4.23,9.45,9.44,9.45C218.115,235.871,222.355,231.631,222.355,226.421z"/>
			<path style="fill:#E5D665;" d="M262.415,208.801c28.13,38.33,42.4,70.14,42.4,94.55c0,59.11-41.23,107.2-91.91,107.2
				s-91.92-48.09-91.92-107.2c0-24.41,14.27-56.22,42.42-94.55c7.52-10.25,16.12-21.03,25.05-31.41v36.64
				c-38.44,50.15-44.25,77.45-44.25,89.32c0,46.31,30.82,83.99,68.7,83.99s68.7-37.68,68.7-83.99c0-11.9-5.82-39.25-44.25-89.35
				v-36.61C244.605,185.831,253.515,196.691,262.415,208.801z"/>
		</g>
		<g>
		</g>
	</g>
</g>
<g>
</g>
<g>
</g>
<g>
</g>
<g>
</g>
<g>
</g>
<g>
</g>
<g>
</g>
<g>
</g>
<g>
</g>
<g>
</g>
<g>
</g>
<g>
</g>
<g>
</g>
<g>
</g>
<g>
</g>
</svg>
