<?xml version="1.0" encoding="iso-8859-1"?>
<!-- Generator: Adobe Illustrator 18.0.0, SVG Export Plug-In . SVG Version: 6.00 Build 0)  -->
<!DOCTYPE svg PUBLIC "-//W3C//DTD SVG 1.1//EN" "http://www.w3.org/Graphics/SVG/1.1/DTD/svg11.dtd">
<svg version="1.1" id="Capa_1" xmlns="http://www.w3.org/2000/svg" xmlns:xlink="http://www.w3.org/1999/xlink" x="0px" y="0px"
	 viewBox="0 0 405.367 405.367" style="enable-background:new 0 0 405.367 405.367;" xml:space="preserve">
<g>
	<g id="XMLID_13_">
		<g>
			<path style="fill:#E0974F;" d="M238.262,187.948c3.93,9.5,3.93,19.97,0,29.47c-3.94,9.5-11.34,16.9-20.84,20.84
				c-19.61,8.12-42.18-1.23-50.31-20.84c-8.12-19.62,1.23-42.18,20.84-50.31c4.8-1.99,9.78-2.93,14.68-2.93
				C217.752,164.178,232.122,173.138,238.262,187.948z M213.222,228.118c14.03-5.81,20.72-21.95,14.91-35.97c0-0.01,0-0.01,0-0.01
				c-5.82-14.02-21.95-20.71-35.98-14.9c-6.8,2.82-12.09,8.11-14.91,14.91c-2.81,6.79-2.81,14.28,0,21.07
				c2.82,6.8,8.11,12.09,14.91,14.9c3.39,1.41,6.96,2.12,10.53,2.12C206.252,230.238,209.822,229.528,213.222,228.118z"/>
			<path style="fill:#AD723D;" d="M389.772,125.188c0.95,2.29-0.14,4.93-2.43,5.88l-26.64,11.03c-0.54-1.4-1.09-2.79-1.67-4.18
				c-0.57-1.39-1.17-2.77-1.78-4.13l26.64-11.04C386.192,121.798,388.822,122.898,389.772,125.188z"/>
			<path style="fill:#AD723D;" d="M387.342,274.298c2.29,0.94,3.38,3.58,2.43,5.87c-0.95,2.3-3.58,3.39-5.88,2.44l-26.63-11.03
				c0.6-1.37,1.2-2.75,1.77-4.13c0.58-1.39,1.13-2.79,1.67-4.19L387.342,274.298z"/>
			<path style="fill:#AD723D;" d="M282.622,383.888c0.95,2.29-0.15,4.93-2.44,5.88c-2.29,0.94-4.93-0.15-5.88-2.44l-11.03-26.63
				c1.39-0.54,2.79-1.09,4.18-1.67c1.39-0.57,2.76-1.17,4.13-1.78L282.622,383.888z"/>
			<path style="fill:#AD723D;" d="M142.112,360.698l-11.04,26.63c-0.95,2.29-3.58,3.39-5.88,2.44c-2.29-0.95-3.38-3.59-2.43-5.88
				l11.03-26.64c1.37,0.61,2.74,1.21,4.13,1.78C139.312,359.608,140.712,360.158,142.112,360.698z"/>
			<path style="fill:#AD723D;" d="M48.112,271.578l-26.63,11.03c-2.29,0.95-4.93-0.14-5.88-2.44c-0.46-1.11-0.46-2.33,0-3.44
				c0.46-1.11,1.33-1.97,2.44-2.43l26.63-11.04c0.54,1.4,1.09,2.79,1.67,4.19C46.912,268.828,47.512,270.208,48.112,271.578z"/>
			<path style="fill:#AD723D;" d="M21.482,122.748l26.71,11.07c-1.22,2.74-2.37,5.51-3.44,8.31l-26.71-11.06
				c-1.11-0.46-1.98-1.33-2.44-2.44s-0.46-2.33,0-3.44C16.552,122.898,19.192,121.798,21.482,122.748z"/>
			<path style="fill:#AD723D;" d="M131.072,18.028l11.04,26.64c-1.4,0.53-2.8,1.09-4.19,1.66c-1.39,0.58-2.76,1.17-4.13,1.78
				l-11.03-26.64c-0.46-1.11-0.46-2.33,0-3.44s1.32-1.97,2.43-2.43C127.492,14.648,130.122,15.738,131.072,18.028z"/>
			<path style="fill:#AD723D;" d="M282.622,18.028c0.46,1.11,0.46,2.33,0,3.44l-11.04,26.64c-1.37-0.61-2.74-1.2-4.13-1.78
				c-1.39-0.57-2.79-1.12-4.18-1.66l11.03-26.64c0.46-1.11,1.33-1.97,2.44-2.43c1.11-0.46,2.33-0.46,3.44,0
				C281.292,16.058,282.162,16.918,282.622,18.028z"/>
			<path style="fill:#AD723D;" d="M252.472,94.258l-25.24,60.92c-2.67-1.37-5.45-2.53-8.31-3.44l25.23-60.92
				C246.972,91.858,249.742,93.008,252.472,94.258z"/>
			<path style="fill:#AD723D;" d="M314.612,161.188l-60.96,25.25c-0.45-1.42-0.96-2.84-1.54-4.23c-0.58-1.4-1.22-2.76-1.91-4.08
				l60.97-25.25c0.62,1.35,1.23,2.73,1.8,4.12C313.552,158.388,314.092,159.788,314.612,161.188z"/>
			<path style="fill:#AD723D;" d="M253.652,218.918l60.91,25.23c-1.05,2.81-2.2,5.59-3.45,8.31l-60.9-25.22
				c0.68-1.33,1.33-2.69,1.9-4.08C252.692,221.758,253.202,220.348,253.652,218.918z"/>
			<path style="fill:#AD723D;" d="M227.242,250.208l25.25,60.95c-1.36,0.62-2.73,1.23-4.12,1.81c-1.39,0.58-2.79,1.12-4.19,1.64
				l-25.25-60.96c1.42-0.46,2.83-0.96,4.23-1.54C224.562,251.528,225.912,250.888,227.242,250.208z"/>
			<path style="fill:#AD723D;" d="M186.452,253.648l-25.25,60.96c-1.41-0.52-2.81-1.06-4.2-1.64c-1.39-0.58-2.76-1.18-4.12-1.81
				l25.25-60.95c1.33,0.68,2.68,1.33,4.08,1.9C183.612,252.688,185.022,253.198,186.452,253.648z"/>
			<path style="fill:#AD723D;" d="M155.162,227.238l-60.96,25.25c-0.62-1.36-1.23-2.73-1.8-4.12c-0.58-1.4-1.12-2.79-1.64-4.2
				l60.96-25.25c0.45,1.42,0.95,2.84,1.53,4.24C153.832,224.548,154.482,225.908,155.162,227.238z"/>
			<path style="fill:#AD723D;" d="M94.212,152.878l60.97,25.25c-1.37,2.67-2.53,5.46-3.44,8.32l-60.98-25.26
				c0.52-1.4,1.06-2.8,1.64-4.19C92.972,155.608,93.582,154.238,94.212,152.878z"/>
			<path style="fill:#AD723D;" d="M161.202,90.758l25.25,60.96c-1.42,0.45-2.84,0.95-4.24,1.53c-1.4,0.58-2.75,1.23-4.08,1.91
				l-25.25-60.96c1.36-0.62,2.73-1.23,4.12-1.8C158.402,91.818,159.802,91.278,161.202,90.758z"/>
			<path style="fill:#E0974F;" d="M345.182,143.658c15.76,38.06,15.76,79.98-0.01,118.04c-15.76,38.07-45.4,67.71-83.46,83.47
				c-38.06,15.77-79.99,15.77-118.05,0c-38.06-15.76-67.7-45.4-83.47-83.47c-32.54-78.56,4.9-168.96,83.47-201.51
				c19.03-7.88,39.03-11.82,59.02-11.82c20,0,40,3.94,59.03,11.82C299.772,75.958,329.412,105.598,345.182,143.658z
				 M254.112,326.828c68.45-28.36,101.07-107.12,72.72-175.57s-107.11-101.08-175.57-72.72c-33.16,13.73-58.99,39.56-72.72,72.72
				c-13.74,33.16-13.74,69.69,0,102.85c13.73,33.16,39.56,58.98,72.72,72.72c16.58,6.87,34,10.3,51.43,10.3
				C220.102,337.128,237.532,333.698,254.112,326.828z"/>
			<path style="fill:#4D4D4D;" d="M403.632,119.448c4.12,9.93-0.62,21.36-10.55,25.48l-27.62,11.43
				c8.71,30.38,8.71,62.26,0.01,92.64l27.61,11.44c9.93,4.11,14.67,15.54,10.55,25.47c-3.11,7.51-10.39,12.04-18.04,12.04
				c-2.48,0-5-0.47-7.44-1.48l-27.61-11.44c-15.32,27.64-37.87,50.19-65.5,65.51l11.43,27.61c2,4.81,2,10.11,0,14.92
				c-1.99,4.81-5.74,8.56-10.55,10.55c-2.41,1-4.93,1.5-7.46,1.5s-5.06-0.5-7.46-1.5c-4.82-1.99-8.56-5.74-10.56-10.55l-11.43-27.61
				c-15.19,4.36-30.76,6.55-46.33,6.55c-15.56,0-31.13-2.19-46.31-6.55l-11.44,27.61c-3.11,7.5-10.38,12.04-18.04,12.04
				c-2.48,0-5-0.48-7.44-1.49c-9.93-4.11-14.67-15.54-10.55-25.47l11.44-27.61c-27.64-15.32-50.19-37.87-65.51-65.51l-27.61,11.44
				c-2.43,1.01-4.95,1.48-7.44,1.48c-7.65,0-14.93-4.53-18.04-12.04c-4.11-9.93,0.62-21.36,10.56-25.47l27.62-11.44
				c-8.86-31.05-8.37-63.05,0.07-92.6l-27.69-11.47c-4.82-2-8.56-5.75-10.56-10.56c-1.99-4.81-1.99-10.11,0-14.92
				c2-4.81,5.74-8.56,10.56-10.56c4.81-1.99,10.11-1.99,14.92,0l27.69,11.47c14.93-26.86,37.21-49.83,65.43-65.52l-11.44-27.62
				c-4.12-9.94,0.62-21.37,10.55-25.48c9.94-4.12,21.37,0.62,25.48,10.55l11.44,27.61c30.37-8.71,62.26-8.7,92.63,0l11.44-27.61
				c4.12-9.93,15.54-14.67,25.48-10.55c4.81,1.99,8.56,5.74,10.55,10.55c2,4.81,2,10.11,0,14.93l-11.43,27.61
				c27.63,15.32,50.18,37.87,65.5,65.5l27.61-11.44c4.82-1.99,10.12-1.99,14.93,0C397.892,110.888,401.642,114.638,403.632,119.448z
				 M387.342,131.068c2.29-0.95,3.38-3.59,2.43-5.88c-0.95-2.29-3.58-3.39-5.88-2.44l-26.64,11.04c0.61,1.36,1.21,2.74,1.78,4.13
				c0.58,1.39,1.13,2.78,1.67,4.18L387.342,131.068z M389.772,280.168c0.95-2.29-0.14-4.93-2.43-5.87l-26.64-11.04
				c-0.54,1.4-1.09,2.8-1.67,4.19c-0.57,1.38-1.17,2.76-1.77,4.13l26.63,11.03C386.192,283.558,388.822,282.468,389.772,280.168z
				 M345.172,261.698c15.77-38.06,15.77-79.98,0.01-118.04c-15.77-38.06-45.41-67.7-83.47-83.47
				c-19.03-7.88-39.03-11.82-59.03-11.82c-19.99,0-39.99,3.94-59.02,11.82c-78.57,32.55-116.01,122.95-83.47,201.51
				c15.77,38.07,45.41,67.71,83.47,83.47c38.06,15.77,79.99,15.77,118.05,0C299.772,329.408,329.412,299.768,345.172,261.698z
				 M282.622,21.468c0.46-1.11,0.46-2.33,0-3.44s-1.33-1.97-2.44-2.43c-1.11-0.46-2.33-0.46-3.44,0c-1.11,0.46-1.98,1.32-2.44,2.43
				l-11.03,26.64c1.39,0.54,2.79,1.09,4.18,1.66c1.39,0.58,2.76,1.17,4.13,1.78L282.622,21.468z M280.182,389.768
				c2.29-0.95,3.39-3.59,2.44-5.88l-11.04-26.64c-1.37,0.61-2.74,1.21-4.13,1.78c-1.39,0.58-2.79,1.13-4.18,1.67l11.03,26.63
				C275.252,389.618,277.892,390.708,280.182,389.768z M142.112,44.668l-11.04-26.64c-0.95-2.29-3.58-3.38-5.88-2.43
				c-1.11,0.46-1.97,1.32-2.43,2.43s-0.46,2.33,0,3.44l11.03,26.64c1.37-0.61,2.74-1.2,4.13-1.78
				C139.312,45.758,140.712,45.198,142.112,44.668z M131.072,387.328l11.04-26.63c-1.4-0.54-2.8-1.09-4.19-1.67
				c-1.39-0.57-2.76-1.17-4.13-1.78l-11.03,26.64c-0.95,2.29,0.14,4.93,2.43,5.88C127.492,390.718,130.122,389.618,131.072,387.328z
				 M48.192,133.818l-26.71-11.07c-2.29-0.95-4.93,0.15-5.88,2.44c-0.46,1.11-0.46,2.33,0,3.44s1.33,1.98,2.44,2.44l26.71,11.06
				C45.822,139.328,46.972,136.558,48.192,133.818z M21.482,282.608l26.63-11.03c-0.6-1.37-1.2-2.75-1.77-4.13
				c-0.58-1.4-1.13-2.79-1.67-4.19l-26.63,11.04c-1.11,0.46-1.98,1.32-2.44,2.43c-0.46,1.11-0.46,2.33,0,3.44
				C16.552,282.468,19.192,283.558,21.482,282.608z"/>
			<path style="fill:#4D4D4D;" d="M326.832,151.258c28.35,68.45-4.27,147.21-72.72,175.57c-16.58,6.87-34.01,10.3-51.42,10.3
				c-17.43,0-34.85-3.43-51.43-10.3c-33.16-13.74-58.99-39.56-72.72-72.72c-13.74-33.16-13.74-69.69,0-102.85
				c13.73-33.16,39.56-58.99,72.72-72.72C219.722,50.178,298.482,82.808,326.832,151.258z M318.912,229.718
				c4.08-17.45,4.28-35.93,0.04-54.09l-62.76,26c0.02,0.7,0.02,1.4,0,2.11L318.912,229.718z M253.652,186.438l60.96-25.25
				c-0.52-1.4-1.06-2.8-1.64-4.19c-0.57-1.39-1.18-2.77-1.8-4.12l-60.97,25.25c0.69,1.32,1.33,2.68,1.91,4.08
				C252.692,183.598,253.202,185.018,253.652,186.438z M314.562,244.148l-60.91-25.23c-0.45,1.43-0.96,2.84-1.54,4.24
				c-0.57,1.39-1.22,2.75-1.9,4.08l60.9,25.22C312.362,249.738,313.512,246.958,314.562,244.148z M241.242,165.608l62.78-26.01
				c-9.84-15.84-23.05-28.75-38.27-38.2l-25.99,62.73C240.262,164.608,240.752,165.098,241.242,165.608z M303.992,265.748
				l-62.72-25.98c-0.49,0.51-0.99,1-1.5,1.49l26,62.77C281.612,294.178,294.542,280.968,303.992,265.748z M252.492,311.158
				l-25.25-60.95c-1.33,0.68-2.68,1.32-4.08,1.9c-1.4,0.58-2.81,1.08-4.23,1.54l25.25,60.96c1.4-0.52,2.8-1.06,4.19-1.64
				C249.762,312.388,251.132,311.778,252.492,311.158z M227.232,155.178l25.24-60.92c-2.73-1.25-5.5-2.4-8.32-3.44l-25.23,60.92
				C221.782,152.648,224.562,153.808,227.232,155.178z M238.262,217.418c3.93-9.5,3.93-19.97,0-29.47
				c-6.14-14.81-20.51-23.77-35.63-23.77c-4.9,0-9.88,0.94-14.68,2.93c-19.61,8.13-28.96,30.69-20.84,50.31
				c8.13,19.61,30.7,28.96,50.31,20.84C226.922,234.318,234.322,226.918,238.262,217.418z M229.752,318.968l-26.01-62.78
				c-0.35,0.01-0.7,0.03-1.06,0.03c-0.35,0-0.7-0.02-1.05-0.03l-26.01,62.78C193.472,323.158,211.912,323.158,229.752,318.968z
				 M203.732,149.198l25.99-62.73c-8.86-2.07-17.98-3.16-27.19-3.16c-8.94,0-17.96,1.02-26.9,3.1l26.01,62.79
				C202.342,149.188,203.042,149.188,203.732,149.198z M186.452,151.718l-25.25-60.96c-1.4,0.52-2.8,1.06-4.2,1.64
				c-1.39,0.57-2.76,1.18-4.12,1.8l25.25,60.96c1.33-0.68,2.68-1.33,4.08-1.91C183.612,152.668,185.032,152.168,186.452,151.718z
				 M161.202,314.608l25.25-60.96c-1.43-0.45-2.84-0.96-4.24-1.54c-1.4-0.57-2.75-1.22-4.08-1.9l-25.25,60.95
				c1.36,0.63,2.73,1.23,4.12,1.81C158.392,313.548,159.792,314.088,161.202,314.608z M165.612,164.128l-26.02-62.81
				c-15.58,9.65-28.61,22.69-38.27,38.27l62.81,26.01C164.612,165.098,165.112,164.608,165.612,164.128z M139.592,304.048
				l26.01-62.78c-0.51-0.49-1.01-0.99-1.5-1.5l-62.78,26C110.972,281.348,124.012,294.388,139.592,304.048z M155.182,178.128
				l-60.97-25.25c-0.63,1.36-1.24,2.73-1.81,4.12c-0.58,1.39-1.12,2.79-1.64,4.19l60.98,25.26
				C152.652,183.588,153.812,180.798,155.182,178.128z M94.202,252.488l60.96-25.25c-0.68-1.33-1.33-2.69-1.91-4.08
				c-0.58-1.4-1.08-2.82-1.53-4.24l-60.96,25.25c0.52,1.41,1.06,2.8,1.64,4.2C92.972,249.758,93.582,251.128,94.202,252.488z
				 M149.212,203.728c-0.02-0.7-0.02-1.4,0-2.09l-62.81-26.02c-4.19,17.84-4.19,36.28,0,54.12L149.212,203.728z"/>
			<path style="fill:#4D4D4D;" d="M228.132,192.148c5.81,14.02-0.88,30.16-14.91,35.97c-3.4,1.41-6.97,2.12-10.54,2.12
				c-3.57,0-7.14-0.71-10.53-2.12c-6.8-2.81-12.09-8.1-14.91-14.9c-2.81-6.79-2.81-14.28,0-21.07c2.82-6.8,8.11-12.09,14.91-14.91
				c14.03-5.81,30.16,0.88,35.98,14.9C228.132,192.138,228.132,192.138,228.132,192.148z M207.482,214.268
				c6.39-2.65,9.43-10,6.79-16.38c-2-4.83-6.68-7.74-11.6-7.74c-1.6,0-3.22,0.3-4.78,0.95c-3.1,1.28-5.51,3.69-6.79,6.79
				c-1.28,3.09-1.28,6.5,0,9.59c1.28,3.09,3.69,5.5,6.79,6.79C200.982,215.548,204.392,215.548,207.482,214.268z"/>
		</g>
		<g>
		</g>
	</g>
</g>
<g>
</g>
<g>
</g>
<g>
</g>
<g>
</g>
<g>
</g>
<g>
</g>
<g>
</g>
<g>
</g>
<g>
</g>
<g>
</g>
<g>
</g>
<g>
</g>
<g>
</g>
<g>
</g>
<g>
</g>
</svg>
