<?xml version="1.0" encoding="iso-8859-1"?>
<!-- Generator: Adobe Illustrator 18.0.0, SVG Export Plug-In . SVG Version: 6.00 Build 0)  -->
<!DOCTYPE svg PUBLIC "-//W3C//DTD SVG 1.1//EN" "http://www.w3.org/Graphics/SVG/1.1/DTD/svg11.dtd">
<svg version="1.1" id="Capa_1" xmlns="http://www.w3.org/2000/svg" xmlns:xlink="http://www.w3.org/1999/xlink" x="0px" y="0px"
	 viewBox="0 0 433.32 433.32" style="enable-background:new 0 0 433.32 433.32;" xml:space="preserve">
<g>
	<g id="XMLID_38_">
		<g>
			<path style="fill:#B3B3B3;" d="M231.843,44.491v113.92h-30.37V44.491c0-7.34,5.97-13.32,13.31-13.32h3.75
				C225.873,31.171,231.843,37.151,231.843,44.491z"/>
			<path style="fill:#B3B3B3;" d="M216.663,342.681c20.78,0,37.69,16.91,37.69,37.69c0,20.79-16.91,37.7-37.69,37.7
				c-20.79,0-37.7-16.91-37.7-37.7C178.963,359.591,195.873,342.681,216.663,342.681z M243.493,380.371
				c0-14.79-12.04-26.83-26.83-26.83c-14.8,0-26.83,12.04-26.83,26.83c0,14.8,12.03,26.83,26.83,26.83
				C231.453,407.201,243.493,395.171,243.493,380.371z"/>
			<path style="fill:#808080;" d="M225.143,173.411v154.96c-2.76-0.45-5.6-0.69-8.48-0.69c-2.89,0-5.72,0.24-8.48,0.69v-154.96
				H225.143z"/>
			<path style="fill:#4D4D4D;" d="M359.933,142.921c2.95,2.91,2.98,7.66,0.06,10.6l-35.2,35.65c-1.43,1.44-3.36,2.23-5.34,2.23
				c-0.64,0-1.29-0.09-1.92-0.26c-2.6-0.69-4.63-2.72-5.32-5.32l-11.99-45.12c-1.07-4.01,1.32-8.11,5.32-9.18
				c3.99-1.06,8.11,1.32,9.17,5.33l5.28,19.87l21.89-124.39c0.98-5.59-1.17-10.92-5.75-14.26c-4.59-3.34-10.32-3.75-15.34-1.11
				l-73.95,39.03v109.92c0,3.88-2.93,7.06-6.7,7.46v159.85c17.3,8.65,29.21,26.53,29.21,47.15c0,29.06-23.64,52.7-52.69,52.7
				c-29.06,0-52.7-23.64-52.7-52.7c0-20.62,11.92-38.51,29.22-47.15v-159.85c-3.77-0.4-6.71-3.58-6.71-7.46V55.991l-73.95-39.03
				c-5.01-2.65-10.75-2.23-15.33,1.11c-4.59,3.34-6.74,8.67-5.76,14.26l21.89,124.4l5.28-19.88c1.06-4.01,5.17-6.39,9.18-5.33
				c4,1.07,6.38,5.17,5.32,9.18l-11.99,45.12c-0.69,2.6-2.72,4.63-5.32,5.32c-0.64,0.17-1.29,0.26-1.93,0.26
				c-1.98,0-3.91-0.79-5.34-2.23l-35.2-35.65c-2.91-2.94-2.88-7.69,0.06-10.6c2.95-2.91,7.7-2.88,10.61,0.06l14.21,14.39
				l-21.54-122.44c-1.97-11.19,2.51-22.3,11.69-28.98c9.19-6.69,21.13-7.55,31.18-2.25l67.43,35.59
				c2.45-13.14,13.99-23.12,27.82-23.12h3.75c13.84,0,25.38,9.98,27.83,23.12l67.43-35.59c10.05-5.3,21.99-4.44,31.17,2.25
				c9.18,6.68,13.66,17.79,11.69,28.98l-21.54,122.44l14.21-14.39C352.233,140.041,356.983,140.011,359.933,142.921z
				 M254.353,380.371c0-20.78-16.91-37.69-37.69-37.69c-20.79,0-37.7,16.91-37.7,37.69c0,20.79,16.91,37.7,37.7,37.7
				C237.443,418.071,254.353,401.161,254.353,380.371z M231.843,158.411V44.491c0-7.34-5.97-13.32-13.31-13.32h-3.75
				c-7.34,0-13.31,5.98-13.31,13.32v113.92H231.843z M225.143,328.371v-154.96h-16.96v154.96c2.76-0.45,5.59-0.69,8.48-0.69
				C219.543,327.681,222.383,327.921,225.143,328.371z"/>
			<path style="fill:#4D4D4D;" d="M216.663,353.541c14.79,0,26.83,12.04,26.83,26.83c0,14.8-12.04,26.83-26.83,26.83
				c-14.8,0-26.83-12.03-26.83-26.83C189.833,365.581,201.863,353.541,216.663,353.541z M228.493,380.371
				c0-6.52-5.31-11.83-11.83-11.83c-6.53,0-11.83,5.31-11.83,11.83c0,6.53,5.3,11.83,11.83,11.83
				C223.183,392.201,228.493,386.901,228.493,380.371z"/>
		</g>
		<g>
		</g>
	</g>
</g>
<g>
</g>
<g>
</g>
<g>
</g>
<g>
</g>
<g>
</g>
<g>
</g>
<g>
</g>
<g>
</g>
<g>
</g>
<g>
</g>
<g>
</g>
<g>
</g>
<g>
</g>
<g>
</g>
<g>
</g>
</svg>
