<?xml version="1.0" encoding="iso-8859-1"?>
<!-- Generator: Adobe Illustrator 18.0.0, SVG Export Plug-In . SVG Version: 6.00 Build 0)  -->
<!DOCTYPE svg PUBLIC "-//W3C//DTD SVG 1.1//EN" "http://www.w3.org/Graphics/SVG/1.1/DTD/svg11.dtd">
<svg version="1.1" id="Capa_1" xmlns="http://www.w3.org/2000/svg" xmlns:xlink="http://www.w3.org/1999/xlink" x="0px" y="0px"
	 viewBox="0 0 443.5 443.5" style="enable-background:new 0 0 443.5 443.5;" xml:space="preserve">
<g>
	<g id="XMLID_17_">
		<g>
			<rect x="129.063" y="390.279" style="fill:#AD723D;" width="185.37" height="37.97"/>
			<path style="fill:#E5D665;" d="M222.953,15.259c44.12,0.64,79.69,37.08,79.3,81.22c-0.17,19.08-7.17,37.54-19.7,51.97
				c-12.41,14.29-29.45,23.81-47.99,26.79c-3.64,0.58-6.31,3.72-6.31,7.4v17.84c-2.15-0.15-4.32-0.23-6.5-0.23
				c-2.19,0-4.36,0.08-6.5,0.23v-37.23h5.59c37.16,0,67.84-29.81,68.4-66.45c0.27-18.21-6.62-35.4-19.42-48.39
				c-12.8-13-29.88-20.16-48.07-20.16c-32.27,0-60.15,22.99-66.28,54.65c-0.6,3.1-3.28,5.35-6.38,5.35c-3.6,0-6.52-2.9-6.52-6.46
				c0-0.42,0.04-0.84,0.11-1.24C150.053,42.139,183.783,14.659,222.953,15.259z"/>
			<path style="fill:#E0974F;" d="M298.313,291.809v83.47h-20.09c0.01-0.16,0.03-0.33,0.03-0.5v-29.03c0-4.14-3.36-7.5-7.5-7.5
				c-4.15,0-7.5,3.36-7.5,7.5v29.03c0,0.17,0.01,0.34,0.02,0.5h-65.02v-45.53c0-4.14-3.36-7.5-7.5-7.5c-4.15,0-7.5,3.36-7.5,7.5
				v45.53h-38.06v-83.47c0-42.21,34.34-76.56,76.56-76.56C263.963,215.249,298.313,249.599,298.313,291.809z M232.253,320.779
				v-53.03c0-4.14-3.36-7.5-7.5-7.5c-4.15,0-7.5,3.36-7.5,7.5v53.03c0,4.14,3.35,7.5,7.5,7.5
				C228.893,328.279,232.253,324.919,232.253,320.779z M198.253,300.779v-13.03c0-4.14-3.36-7.5-7.5-7.5c-4.15,0-7.5,3.36-7.5,7.5
				v13.03c0,4.14,3.35,7.5,7.5,7.5C194.893,308.279,198.253,304.919,198.253,300.779z"/>
			<path style="fill:#4D4D4D;" d="M329.433,382.779v52.97c0,4.14-3.36,7.5-7.5,7.5h-200.37c-4.14,0-7.5-3.36-7.5-7.5v-52.97
				c0-4.14,3.36-7.5,7.5-7.5h8.63v-83.47c0-43.08,29.91-79.3,70.06-89v-47.06c0-4.14,3.35-7.5,7.5-7.5h13.09
				c29.01,0,52.96-23.18,53.4-51.68c0.21-14.16-5.15-27.53-15.11-37.64c-9.96-10.11-23.24-15.68-37.38-15.68
				c-25.1,0-46.78,17.88-51.55,42.51c-1.96,10.13-10.84,17.49-21.11,17.49c-11.87,0-21.52-9.63-21.52-21.46
				c0-1.36,0.13-2.72,0.38-4.06c8.65-45.1,47.97-77.48,93.78-77.48c0.48,0,0.96,0,1.44,0.01c52.34,0.76,94.54,43.99,94.08,96.36
				c-0.21,22.64-8.51,44.54-23.37,61.66c-13.29,15.32-31.09,26-50.63,30.53v14c40.14,9.7,70.06,45.92,70.06,89v83.47h8.62
				C326.073,375.279,329.433,378.639,329.433,382.779z M314.433,428.249v-37.97h-185.37v37.97H314.433z M302.253,96.479
				c0.39-44.14-35.18-80.58-79.3-81.22c-39.17-0.6-72.9,26.88-80.27,65.29c-0.07,0.4-0.11,0.82-0.11,1.24
				c0,3.56,2.92,6.46,6.52,6.46c3.1,0,5.78-2.25,6.38-5.35c6.13-31.66,34.01-54.65,66.28-54.65c18.19,0,35.27,7.16,48.07,20.16
				c12.8,12.99,19.69,30.18,19.42,48.39c-0.56,36.64-31.24,66.45-68.4,66.45h-5.59v37.23c2.14-0.15,4.31-0.23,6.5-0.23
				c2.18,0,4.35,0.08,6.5,0.23v-17.84c0-3.68,2.67-6.82,6.31-7.4c18.54-2.98,35.58-12.5,47.99-26.79
				C295.083,134.019,302.083,115.559,302.253,96.479z M298.313,375.279v-83.47c0-42.21-34.35-76.56-76.56-76.56
				c-42.22,0-76.56,34.35-76.56,76.56v83.47h38.06v-45.53c0-4.14,3.35-7.5,7.5-7.5c4.14,0,7.5,3.36,7.5,7.5v45.53h65.02
				c-0.01-0.16-0.02-0.33-0.02-0.5v-29.03c0-4.14,3.35-7.5,7.5-7.5c4.14,0,7.5,3.36,7.5,7.5v29.03c0,0.17-0.02,0.34-0.03,0.5
				H298.313z"/>
			<path style="fill:#4D4D4D;" d="M232.253,267.749v53.03c0,4.14-3.36,7.5-7.5,7.5c-4.15,0-7.5-3.36-7.5-7.5v-53.03
				c0-4.14,3.35-7.5,7.5-7.5C228.893,260.249,232.253,263.609,232.253,267.749z"/>
			<path style="fill:#4D4D4D;" d="M198.253,287.749v13.03c0,4.14-3.36,7.5-7.5,7.5c-4.15,0-7.5-3.36-7.5-7.5v-13.03
				c0-4.14,3.35-7.5,7.5-7.5C194.893,280.249,198.253,283.609,198.253,287.749z"/>
		</g>
		<g>
		</g>
	</g>
</g>
<g>
</g>
<g>
</g>
<g>
</g>
<g>
</g>
<g>
</g>
<g>
</g>
<g>
</g>
<g>
</g>
<g>
</g>
<g>
</g>
<g>
</g>
<g>
</g>
<g>
</g>
<g>
</g>
<g>
</g>
</svg>
