<?xml version="1.0" encoding="iso-8859-1"?>
<!-- Generator: Adobe Illustrator 18.0.0, SVG Export Plug-In . SVG Version: 6.00 Build 0)  -->
<!DOCTYPE svg PUBLIC "-//W3C//DTD SVG 1.1//EN" "http://www.w3.org/Graphics/SVG/1.1/DTD/svg11.dtd">
<svg version="1.1" id="Capa_1" xmlns="http://www.w3.org/2000/svg" xmlns:xlink="http://www.w3.org/1999/xlink" x="0px" y="0px"
	 viewBox="0 0 448.979 448.979" style="enable-background:new 0 0 448.979 448.979;" xml:space="preserve">
<g>
	<g id="XMLID_27_">
		<g>
			<path style="fill:#E0974F;" d="M342.262,187.855c0,1.17-0.08,2.34-0.19,3.5h-17.58c-8.55,0-15.5,6.95-15.5,15.5
				c0,0.27-0.23,0.5-0.5,0.5h-12c-6.27,0-11.9,2.71-15.83,6.99c-7.24-6.81-11.4-16.27-11.4-26.49c0-20.13,16.37-36.5,36.5-36.5
				C325.882,151.355,342.262,167.725,342.262,187.855z"/>
			<path style="fill:#5B79CE;" d="M400.492,206.355c3.58,0,6.5,2.91,6.5,6.5c0,3.58-2.92,6.5-6.5,6.5h-12
				c-8.55,0-15.5,6.95-15.5,15.5c0,0.27-0.23,0.5-0.5,0.5h-76c-3.59,0-6.5-2.92-6.5-6.5c0-3.59,2.91-6.5,6.5-6.5h12
				c8.54,0,15.5-6.96,15.5-15.5c0-0.28,0.22-0.5,0.5-0.5H400.492z"/>
			<path style="fill:#4D4D4D;" d="M441.232,360.565c4.14,0,7.5,3.36,7.5,7.5c0,4.14-3.36,7.5-7.5,7.5c-5.53,0-7.88,1.51-11.42,3.8
				c-4.28,2.76-9.6,6.2-19.55,6.2c-9.96,0-15.28-3.44-19.56-6.2c-3.54-2.29-5.88-3.8-11.41-3.8s-7.87,1.51-11.41,3.8
				c-4.28,2.76-9.6,6.2-19.56,6.2c-9.95,0-15.27-3.44-19.55-6.2c-3.54-2.29-5.88-3.8-11.41-3.8s-7.87,1.51-11.41,3.8
				c-4.28,2.76-9.6,6.2-19.55,6.2c-9.95,0-15.28-3.44-19.55-6.2c-3.55-2.29-5.89-3.8-11.42-3.8c-5.52,0-7.86,1.51-11.41,3.8
				c-4.27,2.76-9.59,6.2-19.55,6.2c-9.95,0-15.27-3.44-19.54-6.2c-3.55-2.29-5.89-3.8-11.41-3.8c-5.53,0-7.87,1.51-11.42,3.8
				c-4.27,2.76-9.6,6.2-19.55,6.2s-15.27-3.44-19.55-6.2c-3.54-2.29-5.88-3.8-11.41-3.8c-5.53,0-7.87,1.51-11.41,3.8
				c-4.28,2.76-9.6,6.2-19.55,6.2s-15.27-3.44-19.55-6.2c-3.54-2.29-5.88-3.8-11.41-3.8s-7.87,1.51-11.41,3.8
				c-4.28,2.76-9.6,6.2-19.55,6.2s-15.27-3.44-19.55-6.2c-3.54-2.29-5.88-3.8-11.41-3.8c-4.14,0-7.5-3.36-7.5-7.5
				c0-4.14,3.36-7.5,7.5-7.5c9.95,0,15.27,3.44,19.55,6.2c3.54,2.29,5.88,3.8,11.41,3.8s7.87-1.51,11.41-3.8
				c4.27-2.76,9.6-6.2,19.55-6.2s15.27,3.44,19.55,6.2c3.3,2.13,5.56,3.59,10.32,3.78c20.37-24.87,47.05-42.7,76.88-51.94
				c4.95-61.07-13.43-108.8-23.4-129.59c-0.97,1.02-1.76,1.65-2.24,1.98c-1.27,0.89-2.77,1.36-4.29,1.36c-0.45,0-0.9-0.04-1.34-0.12
				c-15.57-2.83-27.07-13.68-33.73-21.82l-29.81,43.37c-1.2,1.76-3.11,2.92-5.23,3.19c-0.31,0.04-0.63,0.06-0.95,0.06
				c-1.79,0-3.54-0.64-4.91-1.84c-14.5-12.58-22.9-42.82-19.55-70.33c2.48-20.36,11.06-35.27,24.18-41.98
				c2.53-1.29,5.11-2.34,7.74-3.17c8.92-20.96,29.57-34.78,52.62-34.78c7.07,0,13.92,1.28,20.43,3.78c2.42-1.32,4.98-2.45,7.67-3.37
				c13.94-4.78,30.63-0.6,46.99,11.76c22.12,16.7,38.03,43.75,37.02,62.92c-0.11,2.13-1.13,4.12-2.8,5.46
				c-1.34,1.07-3,1.64-4.69,1.64c-0.41,0-0.83-0.03-1.24-0.1l-72.55-12.15c0.01,1.59-0.01,3.13-0.04,4.63
				c40.8,48.15,63.92,108.86,65.58,172.03c45.94,2.06,88.28,23.26,117.55,59c4.75-0.19,7.01-1.64,10.31-3.77
				c4.27-2.76,9.6-6.2,19.55-6.2c9.95,0,15.28,3.44,19.55,6.2c3.55,2.29,5.89,3.8,11.42,3.8s7.87-1.51,11.41-3.8
				C425.952,364.005,431.272,360.565,441.232,360.565z M317.362,360.565c0.45,0,0.87,0.01,1.3,0.03
				c-26.13-22.02-59.17-34.24-94.17-34.24s-68.04,12.22-94.17,34.24c0.42-0.02,0.83-0.03,1.27-0.03c9.95,0,15.27,3.44,19.55,6.2
				c3.54,2.29,5.88,3.8,11.41,3.8s7.87-1.51,11.41-3.8c4.28-2.76,9.6-6.2,19.56-6.2c9.95,0,15.27,3.44,19.54,6.2
				c3.55,2.29,5.89,3.8,11.41,3.8c5.53,0,7.87-1.51,11.41-3.8c4.28-2.76,9.6-6.2,19.55-6.2c9.96,0,15.28,3.44,19.56,6.2
				c3.54,2.29,5.88,3.8,11.41,3.8s7.87-1.51,11.41-3.8C302.092,364.005,307.412,360.565,317.362,360.565z M143.362,115.825
				l88.25,14.77c-3.54-13.56-15.48-30.52-30.05-41.52c-7.1-5.36-20.85-13.73-33.09-9.54
				C149.202,86.125,144.502,105.775,143.362,115.825z M216.872,311.545c-1.51-54.5-19.9-107.07-52.46-150.4
				c-0.78,4.54-1.74,8.44-2.79,11.77c7.6,13.48,34.77,67.4,30.12,141.75C199.962,312.975,208.352,311.935,216.872,311.545z
				 M143.762,176.425c2.88-4.71,7.99-16.97,7.56-44.06l-12.34-2.07l-18.63,27.12C124.252,162.865,132.532,172.695,143.762,176.425z
				 M141.792,80.405c-2.06-0.31-4.16-0.47-6.28-0.47c-13.89,0-26.6,6.8-34.38,17.72c6.71,0.54,13.53,2.43,20.35,5.7
				c2.93,1.41,5.6,2.95,7.97,4.48c0.54-2.76,1.29-5.76,2.31-8.85C134.142,91.815,137.522,85.595,141.792,80.405z M74.862,197.135
				l50.66-73.73c-2.7-2.07-6.45-4.61-10.92-6.71c-5.95-2.8-11.75-4.21-17.34-4.21c-5.28,0-10.39,1.26-15.28,3.76
				c-11.52,5.89-15.05,21.6-16.12,30.44C63.652,164.795,67.562,185.175,74.862,197.135z"/>
			<path style="fill:#4D4D4D;" d="M400.492,191.355c11.85,0,21.5,9.64,21.5,21.5c0,11.85-9.65,21.5-21.5,21.5h-12
				c-0.28,0-0.5,0.22-0.5,0.5c0,8.54-6.96,15.5-15.5,15.5h-76c-11.76,0-21.34-9.5-21.49-21.23c-13.06-9.69-20.74-24.78-20.74-41.27
				c0-28.4,23.1-51.5,51.5-51.5c28.39,0,51.5,23.1,51.5,51.5c0,1.17-0.05,2.33-0.13,3.5H400.492z M406.992,212.855
				c0-3.59-2.92-6.5-6.5-6.5h-76c-0.28,0-0.5,0.22-0.5,0.5c0,8.54-6.96,15.5-15.5,15.5h-12c-3.59,0-6.5,2.91-6.5,6.5
				c0,3.58,2.91,6.5,6.5,6.5h76c0.27,0,0.5-0.23,0.5-0.5c0-8.55,6.95-15.5,15.5-15.5h12
				C404.072,219.355,406.992,216.435,406.992,212.855z M342.072,191.355c0.11-1.16,0.19-2.33,0.19-3.5c0-20.13-16.38-36.5-36.5-36.5
				c-20.13,0-36.5,16.37-36.5,36.5c0,10.22,4.16,19.68,11.4,26.49c3.93-4.28,9.56-6.99,15.83-6.99h12c0.27,0,0.5-0.23,0.5-0.5
				c0-8.55,6.95-15.5,15.5-15.5H342.072z"/>
			<path style="fill:#E5D665;" d="M318.662,360.595c-0.43-0.02-0.85-0.03-1.3-0.03c-9.95,0-15.27,3.44-19.55,6.2
				c-3.54,2.29-5.88,3.8-11.41,3.8s-7.87-1.51-11.41-3.8c-4.28-2.76-9.6-6.2-19.56-6.2c-9.95,0-15.27,3.44-19.55,6.2
				c-3.54,2.29-5.88,3.8-11.41,3.8c-5.52,0-7.86-1.51-11.41-3.8c-4.27-2.76-9.59-6.2-19.54-6.2c-9.96,0-15.28,3.44-19.56,6.2
				c-3.54,2.29-5.88,3.8-11.41,3.8s-7.87-1.51-11.41-3.8c-4.28-2.76-9.6-6.2-19.55-6.2c-0.44,0-0.85,0.01-1.27,0.03
				c26.13-22.02,59.17-34.24,94.17-34.24S292.532,338.575,318.662,360.595z"/>
			<path style="fill:#77CE6F;" d="M231.612,130.595l-88.25-14.77c1.14-10.05,5.84-29.7,25.11-36.29
				c12.24-4.19,25.99,4.18,33.09,9.54C216.132,100.075,228.072,117.035,231.612,130.595z"/>
			<path style="fill:#E0974F;" d="M164.412,161.145c32.56,43.33,50.95,95.9,52.46,150.4c-8.52,0.39-16.91,1.43-25.13,3.12
				c4.65-74.35-22.52-128.27-30.12-141.75C162.672,169.585,163.632,165.685,164.412,161.145z"/>
			<path style="fill:#77CE6F;" d="M151.322,132.365c0.43,27.09-4.68,39.35-7.56,44.06c-11.23-3.73-19.51-13.56-23.41-19.01
				l18.63-27.12L151.322,132.365z"/>
			<path style="fill:#6BB763;" d="M135.512,79.935c2.12,0,4.22,0.16,6.28,0.47c-4.27,5.19-7.65,11.41-10.03,18.58
				c-1.02,3.09-1.77,6.09-2.31,8.85c-2.37-1.53-5.04-3.07-7.97-4.48c-6.82-3.27-13.64-5.16-20.35-5.7
				C108.912,86.735,121.622,79.935,135.512,79.935z"/>
			<path style="fill:#77CE6F;" d="M125.522,123.405l-50.66,73.73c-7.3-11.96-11.21-32.34-9-50.45c1.07-8.84,4.6-24.55,16.12-30.44
				c4.89-2.5,10-3.76,15.28-3.76c5.59,0,11.39,1.41,17.34,4.21C119.072,118.795,122.822,121.335,125.522,123.405z"/>
		</g>
		<g>
		</g>
	</g>
</g>
<g>
</g>
<g>
</g>
<g>
</g>
<g>
</g>
<g>
</g>
<g>
</g>
<g>
</g>
<g>
</g>
<g>
</g>
<g>
</g>
<g>
</g>
<g>
</g>
<g>
</g>
<g>
</g>
<g>
</g>
</svg>
