<?xml version="1.0" encoding="iso-8859-1"?>
<!-- Generator: Adobe Illustrator 18.0.0, SVG Export Plug-In . SVG Version: 6.00 Build 0)  -->
<!DOCTYPE svg PUBLIC "-//W3C//DTD SVG 1.1//EN" "http://www.w3.org/Graphics/SVG/1.1/DTD/svg11.dtd">
<svg version="1.1" id="Capa_1" xmlns="http://www.w3.org/2000/svg" xmlns:xlink="http://www.w3.org/1999/xlink" x="0px" y="0px"
	 viewBox="0 0 445.908 445.908" style="enable-background:new 0 0 445.908 445.908;" xml:space="preserve">
<g>
	<g id="XMLID_13_">
		<g>
			<path style="fill:#4D4D4D;" d="M384.547,254.852c1.8,2.04,2.35,4.9,1.44,7.47c-0.91,2.56-3.14,4.44-5.83,4.89l-78.03,13.09
				c-1.64,0.28-3.28,0.41-4.9,0.41c-6.03,0-11.9-1.86-16.91-5.43c-6.37-4.54-10.58-11.27-11.87-18.98l-9.56-56.95l-129.44,21.72
				l35.54,211.81c0.33,1.96-0.13,3.98-1.28,5.6c-1.16,1.62-2.91,2.71-4.87,3.04l-24.03,4.03c-0.42,0.07-0.84,0.11-1.25,0.11
				c-3.6,0-6.77-2.6-7.39-6.26l-66.58-396.72c-0.68-4.08,2.08-7.95,6.16-8.64l198.96-33.39c15.91-2.66,31.01,8.1,33.68,24.01
				l9.56,56.95l39.94-6.7c2.68-0.45,5.41,0.59,7.11,2.72c1.69,2.13,2.1,5.01,1.07,7.53l-8.31,20.18l14.44,16.37
				c1.89,2.14,2.4,5.17,1.31,7.82l-8.3,20.19l14.44,16.37c1.89,2.14,2.4,5.17,1.31,7.81l-8.3,20.19l14.44,16.37
				c1.89,2.15,2.4,5.18,1.31,7.82l-8.31,20.19L384.547,254.852z M364.367,254.652l-8.6-9.75c-1.89-2.15-2.4-5.18-1.31-7.82
				l8.3-20.19l-14.44-16.37c-1.89-2.15-2.4-5.18-1.31-7.82l8.3-20.19l-14.44-16.37c-1.89-2.14-2.4-5.17-1.31-7.82l8.31-20.18
				l-14.45-16.37c-1.89-2.15-2.39-5.18-1.31-7.82l4.95-12.02l-26.63,4.47l17.76,105.77c2.66,15.91-8.1,31.02-24.01,33.69l-9.25,1.55
				c-3.75,0.63-7.03,2.68-9.24,5.78c-2.21,3.1-3.08,6.87-2.45,10.63c0.63,3.75,2.68,7.03,5.78,9.24s6.87,3.08,10.63,2.45
				L364.367,254.652z M301.697,221.062c7.72-1.29,12.95-8.6,11.71-16.32c-0.01-0.03-0.01-0.06-0.02-0.09
				c-0.63-3.76-2.68-7.04-5.78-9.25c-3.1-2.21-6.88-3.07-10.63-2.44l-23.3,3.91l5.33,31.75c3.85-3.09,8.44-5.16,13.44-6
				L301.697,221.062z M309.157,179.442l-25.56-152.3c-1.3-7.75-8.67-12.99-16.41-11.69l-191.56,32.15l27.31,162.71l191.56-32.15
				C299.487,177.322,304.507,177.782,309.157,179.442z M148.957,427.972l-34.31-204.41l-9.23,1.54l34.31,204.42L148.957,427.972z"/>
			<path style="fill:#999999;" d="M355.767,244.902l8.6,9.75l-64.72,10.86c-3.76,0.63-7.53-0.24-10.63-2.45s-5.15-5.49-5.78-9.24
				c-0.63-3.76,0.24-7.53,2.45-10.63c2.21-3.1,5.49-5.15,9.24-5.78l9.25-1.55c15.91-2.67,26.67-17.78,24.01-33.69l-17.76-105.77
				l26.63-4.47l-4.95,12.02c-1.08,2.64-0.58,5.67,1.31,7.82l14.45,16.37l-8.31,20.18c-1.09,2.65-0.58,5.68,1.31,7.82l14.44,16.37
				l-8.3,20.19c-1.09,2.64-0.58,5.67,1.31,7.82l14.44,16.37l-8.3,20.19C353.367,239.722,353.877,242.752,355.767,244.902z"/>
			<path style="fill:#808080;" d="M313.407,204.742c1.24,7.72-3.99,15.03-11.71,16.32l-9.25,1.56c-5,0.84-9.59,2.91-13.44,6
				l-5.33-31.75l23.3-3.91c3.75-0.63,7.53,0.23,10.63,2.44c3.1,2.21,5.15,5.49,5.78,9.25
				C313.397,204.682,313.397,204.712,313.407,204.742z"/>
			<path style="fill:#B3B3B3;" d="M283.597,27.142l25.56,152.3c-4.65-1.66-9.67-2.12-14.66-1.28l-191.56,32.15l-27.31-162.71
				l191.56-32.15C274.927,14.152,282.297,19.392,283.597,27.142z M271.737,162.152c4.09-0.68,6.84-4.55,6.16-8.64
				c-0.69-4.08-4.56-6.84-8.64-6.15l-5.82,0.97l-10.05-7.16c1.87-1.17,3.97-1.97,6.21-2.35c1.96-0.32,3.71-1.42,4.87-3.04
				c1.15-1.62,1.61-3.63,1.28-5.59l-5.56-33.15c-2.34-13.97-9.05-26.49-19.16-36.05l6.28-8.81l5.81-0.98
				c4.09-0.68,6.84-4.55,6.16-8.63c-0.69-4.09-4.56-6.85-8.64-6.16l-1.48,0.25l-0.25-1.48c-0.69-4.09-4.55-6.84-8.64-6.16
				c-4.08,0.69-6.84,4.56-6.15,8.64l0.97,5.81l-6.07,8.53c-13.05-7.61-28.19-10.39-43.21-7.81c-15.09,2.48-28.51,10.05-38.35,21.5
				l-8.52-6.07l-0.98-5.82c-0.69-4.09-4.55-6.84-8.64-6.16c-4.08,0.69-6.84,4.56-6.15,8.64l0.25,1.48l-1.48,0.25
				c-4.09,0.69-6.84,4.55-6.16,8.64c0.62,3.66,3.79,6.26,7.39,6.26c0.41,0,0.83-0.04,1.25-0.11l5.8-0.97l8.82,6.28
				c-6.43,12.34-8.68,26.36-6.34,40.33l5.56,33.14c0.69,4.09,4.55,6.85,8.64,6.16c2.27-0.38,4.51-0.29,6.62,0.2l-7.15,10.04
				l-5.81,0.98c-4.09,0.68-6.84,4.55-6.16,8.64c0.69,4.08,4.56,6.84,8.64,6.15l1.48-0.25l0.25,1.48c0.61,3.67,3.79,6.26,7.39,6.26
				c0.41,0,0.83-0.03,1.25-0.1c4.08-0.69,6.84-4.56,6.15-8.64l-0.98-5.81l6.59-9.24c0.61,1.32,1.07,2.74,1.33,4.25l0.58,3.51
				c0.33,1.96,1.43,3.71,3.05,4.87c1.28,0.91,2.8,1.39,4.35,1.39c0.41,0,0.83-0.03,1.24-0.1l32.37-5.43c0-0.01,0-0.01,0-0.01
				l31.98-5.36c4.08-0.69,6.84-4.55,6.15-8.64l-0.58-3.51c-0.25-1.49-0.29-2.99-0.15-4.46l9.25,6.6l0.98,5.8
				c0.61,3.67,3.79,6.26,7.38,6.26c0.42,0,0.83-0.03,1.25-0.1c4.09-0.69,6.84-4.56,6.16-8.64l-0.25-1.48L271.737,162.152z"/>
			<path style="fill:#4D4D4D;" d="M277.897,153.512c0.68,4.09-2.07,7.96-6.16,8.64l-1.48,0.25l0.25,1.48
				c0.68,4.08-2.07,7.95-6.16,8.64c-0.42,0.07-0.83,0.1-1.25,0.1c-3.59,0-6.77-2.59-7.38-6.26l-0.98-5.8l-9.25-6.6
				c-0.14,1.47-0.1,2.97,0.15,4.46l0.58,3.51c0.69,4.09-2.07,7.95-6.15,8.64l-31.98,5.36c0,0,0,0,0,0.01l-32.37,5.43
				c-0.41,0.07-0.83,0.1-1.24,0.1c-1.55,0-3.07-0.48-4.35-1.39c-1.62-1.16-2.72-2.91-3.05-4.87l-0.58-3.51
				c-0.26-1.51-0.72-2.93-1.33-4.25l-6.59,9.24l0.98,5.81c0.69,4.08-2.07,7.95-6.15,8.64c-0.42,0.07-0.84,0.1-1.25,0.1
				c-3.6,0-6.78-2.59-7.39-6.26l-0.25-1.48l-1.48,0.25c-4.08,0.69-7.95-2.07-8.64-6.15c-0.68-4.09,2.07-7.96,6.16-8.64l5.81-0.98
				l7.15-10.04c-2.11-0.49-4.35-0.58-6.62-0.2c-4.09,0.69-7.95-2.07-8.64-6.16l-5.56-33.14c-2.34-13.97-0.09-27.99,6.34-40.33
				l-8.82-6.28l-5.8,0.97c-0.42,0.07-0.84,0.11-1.25,0.11c-3.6,0-6.77-2.6-7.39-6.26c-0.68-4.09,2.07-7.95,6.16-8.64l1.48-0.25
				l-0.25-1.48c-0.69-4.08,2.07-7.95,6.15-8.64c4.09-0.68,7.95,2.07,8.64,6.16l0.98,5.82l8.52,6.07
				c9.84-11.45,23.26-19.02,38.35-21.5c15.02-2.58,30.16,0.2,43.21,7.81l6.07-8.53l-0.97-5.81c-0.69-4.08,2.07-7.95,6.15-8.64
				c4.09-0.68,7.95,2.07,8.64,6.16l0.25,1.48l1.48-0.25c4.08-0.69,7.95,2.07,8.64,6.16c0.68,4.08-2.07,7.95-6.16,8.63l-5.81,0.98
				l-6.28,8.81c10.11,9.56,16.82,22.08,19.16,36.05l5.56,33.15c0.33,1.96-0.13,3.97-1.28,5.59c-1.16,1.62-2.91,2.72-4.87,3.04
				c-2.24,0.38-4.34,1.18-6.21,2.35l10.05,7.16l5.82-0.97C273.337,146.672,277.207,149.432,277.897,153.512z M249.867,126.142
				l-4.47-26.62c-2.19-13.05-9.34-24.46-20.14-32.12c-10.79-7.67-23.92-10.66-36.97-8.42c-13.12,2.16-24.55,9.27-32.25,20.03
				c-7.7,10.77-10.74,23.89-8.55,36.95l4.47,26.62c13.14,0.92,24.62,9.95,28.44,22.79l50.03-8.39c-0.32-7.11,1.72-14.07,5.91-19.95
				C239.817,132.152,244.477,128.422,249.867,126.142z"/>
			<path style="fill:#808080;" d="M245.397,99.522l4.47,26.62c-5.39,2.28-10.05,6.01-13.53,10.89c-4.19,5.88-6.23,12.84-5.91,19.95
				l-50.03,8.39c-3.82-12.84-15.3-21.87-28.44-22.79l-4.47-26.62c-2.19-13.06,0.85-26.18,8.55-36.95
				c7.7-10.76,19.13-17.87,32.25-20.03c13.05-2.24,26.18,0.75,36.97,8.42C236.057,75.062,243.207,86.472,245.397,99.522z
				 M230.917,116.902c2.41-3.37,1.62-8.05-1.75-10.46l-1.22-0.87l0.87-1.22c2.4-3.37,1.61-8.05-1.76-10.46
				c-3.37-2.4-8.06-1.62-10.46,1.76l-0.87,1.22l-1.22-0.87c-3.38-2.41-8.06-1.62-10.46,1.75c-2.41,3.38-1.62,8.06,1.75,10.46
				l1.23,0.87l-0.87,1.23c-2.41,3.37-1.62,8.05,1.75,10.46c1.32,0.94,2.84,1.39,4.35,1.39c2.34,0,4.65-1.1,6.11-3.15l0.87-1.22
				l1.22,0.87c1.32,0.94,2.84,1.39,4.35,1.39C227.147,120.052,229.457,118.962,230.917,116.902z M189.857,123.802
				c2.41-3.38,1.62-8.06-1.75-10.46l-1.23-0.88l0.87-1.22c2.41-3.37,1.62-8.05-1.75-10.46c-3.38-2.4-8.06-1.61-10.46,1.76
				l-0.87,1.22l-1.22-0.87c-3.38-2.41-8.06-1.62-10.46,1.76c-2.41,3.37-1.62,8.05,1.75,10.46l1.22,0.87l-0.87,1.22
				c-2.4,3.37-1.61,8.05,1.76,10.46c1.32,0.94,2.84,1.39,4.34,1.39c2.35,0,4.66-1.09,6.12-3.15l0.87-1.22l1.22,0.87
				c1.32,0.94,2.84,1.39,4.35,1.39C186.087,126.942,188.397,125.852,189.857,123.802z"/>
			<path style="fill:#4D4D4D;" d="M229.167,106.442c3.37,2.41,4.16,7.09,1.75,10.46c-1.46,2.06-3.77,3.15-6.11,3.15
				c-1.51,0-3.03-0.45-4.35-1.39l-1.22-0.87l-0.87,1.22c-1.46,2.05-3.77,3.15-6.11,3.15c-1.51,0-3.03-0.45-4.35-1.39
				c-3.37-2.41-4.16-7.09-1.75-10.46l0.87-1.23l-1.23-0.87c-3.37-2.4-4.16-7.08-1.75-10.46c2.4-3.37,7.08-4.16,10.46-1.75l1.22,0.87
				l0.87-1.22c2.4-3.38,7.09-4.16,10.46-1.76c3.37,2.41,4.16,7.09,1.76,10.46l-0.87,1.22L229.167,106.442z"/>
			<path style="fill:#4D4D4D;" d="M188.107,113.342c3.37,2.4,4.16,7.08,1.75,10.46c-1.46,2.05-3.77,3.14-6.11,3.14
				c-1.51,0-3.03-0.45-4.35-1.39l-1.22-0.87l-0.87,1.22c-1.46,2.06-3.77,3.15-6.12,3.15c-1.5,0-3.02-0.45-4.34-1.39
				c-3.37-2.41-4.16-7.09-1.76-10.46l0.87-1.22l-1.22-0.87c-3.37-2.41-4.16-7.09-1.75-10.46c2.4-3.38,7.08-4.17,10.46-1.76
				l1.22,0.87l0.87-1.22c2.4-3.37,7.08-4.16,10.46-1.76c3.37,2.41,4.16,7.09,1.75,10.46l-0.87,1.22L188.107,113.342z"/>
			<polygon style="fill:#E0974F;" points="114.647,223.562 148.957,427.972 139.727,429.522 105.417,225.102 			"/>
		</g>
		<g>
		</g>
	</g>
</g>
<g>
</g>
<g>
</g>
<g>
</g>
<g>
</g>
<g>
</g>
<g>
</g>
<g>
</g>
<g>
</g>
<g>
</g>
<g>
</g>
<g>
</g>
<g>
</g>
<g>
</g>
<g>
</g>
<g>
</g>
</svg>
