<?xml version="1.0" encoding="iso-8859-1"?>
<!-- Generator: Adobe Illustrator 18.0.0, SVG Export Plug-In . SVG Version: 6.00 Build 0)  -->
<!DOCTYPE svg PUBLIC "-//W3C//DTD SVG 1.1//EN" "http://www.w3.org/Graphics/SVG/1.1/DTD/svg11.dtd">
<svg version="1.1" id="Capa_1" xmlns="http://www.w3.org/2000/svg" xmlns:xlink="http://www.w3.org/1999/xlink" x="0px" y="0px"
	 viewBox="0 0 448.978 448.978" style="enable-background:new 0 0 448.978 448.978;" xml:space="preserve">
<g>
	<g id="XMLID_40_">
		<g>
			<path style="fill:#E5D665;" d="M260.062,133.848c7.21,0,13.08,5.86,13.08,13.07c0,7.21-5.87,13.07-13.08,13.07
				c-7.21,0-13.07-5.86-13.07-13.07C246.992,139.708,252.852,133.848,260.062,133.848z"/>
			<path style="fill:#E5D665;" d="M188.912,133.848c7.21,0,13.08,5.86,13.08,13.07c0,7.21-5.87,13.07-13.08,13.07
				c-7.21,0-13.07-5.86-13.07-13.07C175.842,139.708,181.702,133.848,188.912,133.848z"/>
			<path style="fill:#77CE6F;" d="M299.072,58.558c-0.43,0.27-0.85,0.54-1.26,0.81c-3.54,2.29-5.88,3.8-11.41,3.8
				s-7.87-1.51-11.42-3.8c-4.27-2.77-9.59-6.2-19.55-6.2c-9.95,0-15.27,3.44-19.55,6.2c-3.54,2.29-5.88,3.8-11.41,3.8
				c-5.52,0-7.86-1.51-11.4-3.8c-4.28-2.76-9.6-6.2-19.55-6.2c-9.96,0-15.28,3.43-19.55,6.2c-3.55,2.29-5.89,3.8-11.42,3.8
				s-7.87-1.51-11.41-3.8c-0.4-0.26-0.82-0.53-1.24-0.8c15.06-25.54,42.85-42.71,74.59-42.71
				C256.222,15.858,284.012,33.028,299.072,58.558z"/>
			<path style="fill:#77CE6F;" d="M351.752,266.568v23.38c0,11.88-4.7,23-13.22,31.33c-8.53,8.32-19.78,12.76-31.65,12.47
				c-23.57-0.56-42.75-20.64-42.75-44.76v-71.32c0-4.14-3.35-7.5-7.5-7.5c-4.14,0-7.5,3.36-7.5,7.5v171.09
				c0,14.55,11.13,26.49,25.33,27.18c7.38,0.36,14.37-2.24,19.71-7.32c5.26-5.02,8.28-12.05,8.28-19.31v-10.59
				c0-4.94,3.77-9.02,8.42-9.1c2.34-0.03,4.51,0.82,6.16,2.45c1.66,1.62,2.57,3.79,2.57,6.11v10.17c0,24.12-19.18,44.2-42.75,44.76
				c-11.89,0.28-23.13-4.15-31.64-12.47c-8.53-8.32-13.22-19.45-13.22-31.33v-162.3c0-4.14-3.36-7.5-7.5-7.5
				c-4.15,0-7.5,3.36-7.5,7.5v161.37c-0.02,24.1-19.19,44.16-42.75,44.72c-11.88,0.27-23.13-4.14-31.65-12.46
				c-8.52-8.33-13.22-19.45-13.22-31.33v-10.6c0-4.93,3.77-9.02,8.41-9.1c2.32-0.03,4.52,0.83,6.18,2.46
				c1.65,1.62,2.56,3.79,2.56,6.1v10.59c0,14.54,11.13,26.48,25.33,27.17c7.37,0.37,14.37-2.24,19.71-7.32
				c5.26-5.01,8.28-12.05,8.28-19.3v-171.64c0-4.14-3.36-7.5-7.5-7.5s-7.5,3.36-7.5,7.5v72.28c0,11.88-4.7,23-13.22,31.33
				c-8.52,8.32-19.76,12.77-31.65,12.47c-23.57-0.56-42.74-20.64-42.74-44.76v-22.95c0-2.32,0.91-4.5,2.57-6.12
				c1.66-1.63,3.84-2.5,6.17-2.46c4.63,0.09,8.4,4.18,8.4,9.11v23.38c0,7.26,3.02,14.29,8.28,19.3c5.34,5.09,12.33,7.68,19.7,7.33
				c14.21-0.69,25.34-12.63,25.34-27.18v-60.89c0-24.06-5.4-47.78-16.06-70.5c-8.82-18.81-13.68-38.56-13.68-55.61
				c0-10.62,1.92-20.78,5.44-30.19c4.21,2.72,9.5,5.96,19.16,5.96c9.96,0,15.28-3.44,19.55-6.2c3.55-2.29,5.89-3.8,11.42-3.8
				c5.52,0,7.86,1.51,11.41,3.8c4.27,2.76,9.59,6.2,19.54,6.2c9.96,0,15.28-3.44,19.55-6.2c3.55-2.29,5.89-3.8,11.41-3.8
				c5.53,0,7.87,1.51,11.42,3.8c4.27,2.76,9.59,6.2,19.55,6.2c9.67,0,14.97-3.25,19.18-5.97c3.52,9.41,5.44,19.58,5.44,30.2
				c0,17.05-4.85,36.8-13.68,55.61c-10.65,22.72-16.06,46.44-16.06,70.5v61.44c0,7.26,3.02,14.29,8.28,19.3
				c5.33,5.09,12.33,7.68,19.7,7.33c14.21-0.69,25.34-12.63,25.34-27.18v-23.36c0-2.32,0.91-4.5,2.57-6.12
				c1.66-1.63,3.84-2.51,6.17-2.46C347.982,257.548,351.752,261.638,351.752,266.568z M288.142,146.918
				c0-15.48-12.6-28.07-28.08-28.07c-15.48,0-28.07,12.59-28.07,28.07s12.59,28.07,28.07,28.07
				C275.542,174.988,288.142,162.398,288.142,146.918z M216.992,146.918c0-15.48-12.6-28.07-28.08-28.07s-28.07,12.59-28.07,28.07
				s12.59,28.07,28.07,28.07S216.992,162.398,216.992,146.918z"/>
			<path style="fill:#4D4D4D;" d="M441.232,53.168c4.14,0,7.5,3.36,7.5,7.5s-3.36,7.5-7.5,7.5c-5.53,0-7.88,1.51-11.42,3.8
				c-4.28,2.76-9.6,6.2-19.55,6.2c-9.96,0-15.28-3.44-19.56-6.2c-3.54-2.29-5.88-3.8-11.41-3.8s-7.87,1.51-11.41,3.8
				c-4.28,2.76-9.6,6.2-19.55,6.2c-9.96,0-15.28-3.44-19.56-6.2c-2.88-1.87-4.97-3.22-8.64-3.65c3.81,10.66,5.89,22.13,5.89,34.08
				c0,19.21-5.36,41.22-15.09,61.98c-9.72,20.71-14.65,42.29-14.65,64.13v61.44c0,3.22,1.29,6.22,3.63,8.44
				c2.33,2.23,5.39,3.37,8.62,3.21c6.1-0.3,11.07-5.77,11.07-12.2v-23.36c0-6.38,2.51-12.36,7.06-16.83
				c4.56-4.47,10.59-6.86,16.97-6.74c12.74,0.24,23.12,11.05,23.12,24.1v23.38c0,15.95-6.3,30.89-17.74,42.06
				c-11.1,10.83-25.62,16.75-41.05,16.75c-0.48,0-0.96-0.01-1.44-0.02c-16.77-0.4-31.88-8.11-42.39-20.08v60.1
				c0,6.43,4.96,11.9,11.06,12.2c3.22,0.15,6.3-0.98,8.64-3.21c2.33-2.22,3.62-5.22,3.62-8.44v-10.59
				c0-13.07,10.39-23.88,23.15-24.1c6.35-0.1,12.39,2.28,16.94,6.74c4.55,4.47,7.06,10.44,7.06,16.82v10.17
				c0,32.19-25.75,59-57.39,59.76c-0.48,0.01-0.96,0.01-1.43,0.01c-15.43,0-29.96-5.91-41.05-16.75c-4.2-4.09-7.7-8.7-10.45-13.67
				c-9.94,17.68-28.48,29.89-49.69,30.4c-0.47,0.01-0.95,0.02-1.43,0.02c-15.43,0-29.96-5.92-41.05-16.75
				c-11.44-11.17-17.74-26.11-17.74-42.06v-10.6c0-13.06,10.38-23.87,23.14-24.1c6.39-0.09,12.4,2.28,16.95,6.75
				s7.06,10.44,7.06,16.81v10.59c0,6.42,4.96,11.89,11.06,12.19c3.23,0.16,6.3-0.98,8.63-3.2c2.34-2.23,3.63-5.23,3.63-8.44v-60.18
				c-0.88,0.98-1.79,1.95-2.74,2.88c-11.44,11.17-26.52,17.11-42.48,16.73c-31.65-0.75-57.39-27.55-57.39-59.75v-22.95
				c0-6.38,2.51-12.36,7.06-16.83c4.56-4.47,10.58-6.87,16.96-6.74c12.75,0.24,23.12,11.05,23.12,24.1v23.38
				c0,3.22,1.29,6.22,3.63,8.44c2.33,2.23,5.4,3.37,8.62,3.21c6.11-0.3,11.07-5.77,11.07-12.2v-60.89
				c0-21.84-4.92-43.42-14.64-64.13c-9.74-20.76-15.1-42.77-15.1-61.98c0-11.95,2.08-23.43,5.89-34.08
				c-3.68,0.43-5.77,1.78-8.66,3.65c-4.28,2.76-9.6,6.2-19.55,6.2s-15.27-3.44-19.55-6.2c-3.54-2.29-5.88-3.8-11.41-3.8
				s-7.87,1.51-11.41,3.8c-4.28,2.76-9.6,6.2-19.55,6.2s-15.28-3.44-19.55-6.2c-3.54-2.29-5.88-3.8-11.41-3.8
				c-4.14,0-7.5-3.36-7.5-7.5s3.36-7.5,7.5-7.5c9.95,0,15.27,3.44,19.55,6.2c3.54,2.29,5.88,3.8,11.41,3.8s7.87-1.51,11.41-3.8
				c4.28-2.76,9.6-6.2,19.55-6.2s15.27,3.44,19.55,6.2c3.54,2.29,5.88,3.8,11.41,3.8s7.87-1.51,11.41-3.8
				c4.28-2.76,9.6-6.2,19.55-6.2c1.43,0,2.75,0.08,4,0.2c17.33-31.28,50.68-52.51,88.9-52.51s71.57,21.23,88.89,52.51
				c1.24-0.13,2.56-0.2,3.98-0.2c9.95,0,15.28,3.43,19.55,6.2c3.55,2.29,5.89,3.8,11.42,3.8c5.52,0,7.87-1.51,11.41-3.8
				c4.27-2.77,9.6-6.2,19.55-6.2c9.95,0,15.28,3.43,19.55,6.2c3.55,2.29,5.89,3.8,11.42,3.8s7.87-1.51,11.41-3.8
				C425.952,56.598,431.272,53.168,441.232,53.168z M351.752,289.948v-23.38c0-4.93-3.77-9.02-8.41-9.11
				c-2.33-0.05-4.51,0.83-6.17,2.46c-1.66,1.62-2.57,3.8-2.57,6.12v23.36c0,14.55-11.13,26.49-25.34,27.18
				c-7.37,0.35-14.37-2.24-19.7-7.33c-5.26-5.01-8.28-12.04-8.28-19.3v-61.44c0-24.06,5.41-47.78,16.06-70.5
				c8.83-18.81,13.68-38.56,13.68-55.61c0-10.62-1.92-20.79-5.44-30.2c-4.21,2.72-9.51,5.97-19.18,5.97
				c-9.96,0-15.28-3.44-19.55-6.2c-3.55-2.29-5.89-3.8-11.42-3.8c-5.52,0-7.86,1.51-11.41,3.8c-4.27,2.76-9.59,6.2-19.55,6.2
				c-9.95,0-15.27-3.44-19.54-6.2c-3.55-2.29-5.89-3.8-11.41-3.8c-5.53,0-7.87,1.51-11.42,3.8c-4.27,2.76-9.59,6.2-19.55,6.2
				c-9.66,0-14.95-3.24-19.16-5.96c-3.52,9.41-5.44,19.57-5.44,30.19c0,17.05,4.86,36.8,13.68,55.61
				c10.66,22.72,16.06,46.44,16.06,70.5v60.89c0,14.55-11.13,26.49-25.34,27.18c-7.37,0.35-14.36-2.24-19.7-7.33
				c-5.26-5.01-8.28-12.04-8.28-19.3v-23.38c0-4.93-3.77-9.02-8.4-9.11c-2.33-0.04-4.51,0.83-6.17,2.46
				c-1.66,1.62-2.57,3.8-2.57,6.12v22.95c0,24.12,19.17,44.2,42.74,44.76c11.89,0.3,23.13-4.15,31.65-12.47
				c8.52-8.33,13.22-19.45,13.22-31.33v-72.28c0-4.14,3.36-7.5,7.5-7.5s7.5,3.36,7.5,7.5v171.64c0,7.25-3.02,14.29-8.28,19.3
				c-5.34,5.08-12.34,7.69-19.71,7.32c-14.2-0.69-25.33-12.63-25.33-27.17v-10.59c0-2.31-0.91-4.48-2.56-6.1
				c-1.66-1.63-3.86-2.49-6.18-2.46c-4.64,0.08-8.41,4.17-8.41,9.1v10.6c0,11.88,4.7,23,13.22,31.33
				c8.52,8.32,19.77,12.73,31.65,12.46c23.56-0.56,42.73-20.62,42.75-44.72v-161.37c0-4.14,3.35-7.5,7.5-7.5
				c4.14,0,7.5,3.36,7.5,7.5v162.3c0,11.88,4.69,23.01,13.22,31.33c8.51,8.32,19.75,12.75,31.64,12.47
				c23.57-0.56,42.75-20.64,42.75-44.76v-10.17c0-2.32-0.91-4.49-2.57-6.11c-1.65-1.63-3.82-2.48-6.16-2.45
				c-4.65,0.08-8.42,4.16-8.42,9.1v10.59c0,7.26-3.02,14.29-8.28,19.31c-5.34,5.08-12.33,7.68-19.71,7.32
				c-14.2-0.69-25.33-12.63-25.33-27.18v-171.09c0-4.14,3.36-7.5,7.5-7.5c4.15,0,7.5,3.36,7.5,7.5v71.32
				c0,24.12,19.18,44.2,42.75,44.76c11.87,0.29,23.12-4.15,31.65-12.47C347.052,312.948,351.752,301.828,351.752,289.948z
				 M297.812,59.368c0.41-0.27,0.83-0.54,1.26-0.81c-15.06-25.53-42.85-42.7-74.58-42.7c-31.74,0-59.53,17.17-74.59,42.71
				c0.42,0.27,0.84,0.54,1.24,0.8c3.54,2.29,5.88,3.8,11.41,3.8s7.87-1.51,11.42-3.8c4.27-2.77,9.59-6.2,19.55-6.2
				c9.95,0,15.27,3.44,19.55,6.2c3.54,2.29,5.88,3.8,11.4,3.8c5.53,0,7.87-1.51,11.41-3.8c4.28-2.76,9.6-6.2,19.55-6.2
				c9.96,0,15.28,3.43,19.55,6.2c3.55,2.29,5.89,3.8,11.42,3.8S294.272,61.658,297.812,59.368z"/>
			<path style="fill:#4D4D4D;" d="M260.062,118.848c15.48,0,28.08,12.59,28.08,28.07s-12.6,28.07-28.08,28.07
				c-15.48,0-28.07-12.59-28.07-28.07S244.582,118.848,260.062,118.848z M273.142,146.918c0-7.21-5.87-13.07-13.08-13.07
				c-7.21,0-13.07,5.86-13.07,13.07c0,7.21,5.86,13.07,13.07,13.07C267.272,159.988,273.142,154.128,273.142,146.918z"/>
			<path style="fill:#4D4D4D;" d="M188.912,118.848c15.48,0,28.08,12.59,28.08,28.07s-12.6,28.07-28.08,28.07
				s-28.07-12.59-28.07-28.07S173.432,118.848,188.912,118.848z M201.992,146.918c0-7.21-5.87-13.07-13.08-13.07
				c-7.21,0-13.07,5.86-13.07,13.07c0,7.21,5.86,13.07,13.07,13.07C196.122,159.988,201.992,154.128,201.992,146.918z"/>
		</g>
		<g>
		</g>
	</g>
</g>
<g>
</g>
<g>
</g>
<g>
</g>
<g>
</g>
<g>
</g>
<g>
</g>
<g>
</g>
<g>
</g>
<g>
</g>
<g>
</g>
<g>
</g>
<g>
</g>
<g>
</g>
<g>
</g>
<g>
</g>
</svg>
