<?xml version="1.0" encoding="iso-8859-1"?>
<!-- Generator: Adobe Illustrator 18.0.0, SVG Export Plug-In . SVG Version: 6.00 Build 0)  -->
<!DOCTYPE svg PUBLIC "-//W3C//DTD SVG 1.1//EN" "http://www.w3.org/Graphics/SVG/1.1/DTD/svg11.dtd">
<svg version="1.1" id="Capa_1" xmlns="http://www.w3.org/2000/svg" xmlns:xlink="http://www.w3.org/1999/xlink" x="0px" y="0px"
	 viewBox="0 0 448.979 448.979" style="enable-background:new 0 0 448.979 448.979;" xml:space="preserve">
<g id="XMLID_30_">
	<g>
		<path style="fill:#B3B3B3;" d="M306.882,399.248l3.67,21.99c-5.8,1.11-9.56,3.53-12.74,5.58c-3.54,2.29-5.88,3.8-11.41,3.8
			s-7.87-1.51-11.41-3.8c-4.28-2.76-9.6-6.2-19.56-6.2c-9.95,0-15.27,3.44-19.55,6.2c-3.54,2.29-5.88,3.8-11.41,3.8
			c-5.52,0-7.86-1.51-11.41-3.8c-4.27-2.76-9.59-6.2-19.54-6.2c-9.96,0-15.28,3.44-19.55,6.2c-3.55,2.29-5.89,3.8-11.42,3.8
			s-7.87-1.51-11.41-3.8c-3.17-2.05-6.92-4.46-12.71-5.58l3.66-21.99H306.882z"/>
		<polygon style="fill:#E6E6E6;" points="282.962,357.238 284.362,384.248 204.992,384.248 		"/>
		<polygon style="fill:#E6E6E6;" points="278.292,267.508 279.812,296.778 169.622,334.948 171.202,304.608 		"/>
		<polygon style="fill:#E6E6E6;" points="273.632,177.778 275.152,207.058 174.462,241.938 176.042,211.588 		"/>
		<rect x="163.102" y="129.718" style="fill:#B3B3B3;" width="125.22" height="27"/>
		<path style="fill:#E5D665;" d="M265.462,88.218v26.5h-11.25v-33.92h10.54C265.212,83.208,265.462,85.678,265.462,88.218z"/>
		<path style="fill:#E5D665;" d="M197.212,80.798v33.92h-11.25v-26.5c0-2.54,0.25-5.01,0.7-7.42H197.212z"/>
		<rect x="212.212" y="80.798" style="fill:#E5D665;" width="27" height="33.92"/>
		<path style="fill:#E8465A;" d="M258.512,65.798h-65.6c7.16-10.45,19.19-17.33,32.8-17.33
			C239.312,48.468,251.342,55.348,258.512,65.798z"/>
		<polygon style="fill:#E8465A;" points="245.302,171.718 176.882,195.418 178.112,171.718 		"/>
		<polygon style="fill:#E8465A;" points="275.962,222.648 277.482,251.918 172.042,288.438 173.622,258.098 		"/>
		<polygon style="fill:#E8465A;" points="280.622,312.378 282.152,341.648 167.202,381.458 168.782,351.108 		"/>
		<path style="fill:#4D4D4D;" d="M441.232,420.618c4.14,0,7.5,3.36,7.5,7.5c0,4.15-3.36,7.5-7.5,7.5c-5.53,0-7.88,1.52-11.42,3.8
			c-4.28,2.77-9.6,6.2-19.55,6.2c-9.96,0-15.28-3.43-19.56-6.2c-3.54-2.28-5.88-3.8-11.41-3.8s-7.87,1.52-11.41,3.8
			c-4.28,2.77-9.6,6.2-19.56,6.2c-9.95,0-15.27-3.43-19.55-6.2c-3.54-2.28-5.88-3.8-11.41-3.8s-7.87,1.52-11.41,3.8
			c-4.28,2.77-9.6,6.2-19.55,6.2c-9.95,0-15.28-3.43-19.55-6.2c-3.55-2.28-5.89-3.8-11.42-3.8c-5.52,0-7.86,1.52-11.41,3.8
			c-4.27,2.77-9.59,6.2-19.55,6.2c-9.95,0-15.27-3.43-19.54-6.2c-3.55-2.28-5.89-3.8-11.41-3.8c-5.53,0-7.87,1.52-11.42,3.8
			c-4.27,2.77-9.59,6.2-19.55,6.2c-9.95,0-15.27-3.43-19.55-6.2c-3.54-2.28-5.88-3.8-11.41-3.8c-5.53,0-7.87,1.52-11.41,3.8
			c-4.28,2.77-9.6,6.2-19.55,6.2s-15.27-3.43-19.55-6.2c-3.54-2.28-5.88-3.8-11.41-3.8s-7.87,1.52-11.41,3.8
			c-4.28,2.77-9.6,6.2-19.55,6.2s-15.28-3.43-19.55-6.2c-3.54-2.28-5.88-3.8-11.41-3.8c-4.14,0-7.5-3.35-7.5-7.5
			c0-4.14,3.36-7.5,7.5-7.5c9.95,0,15.27,3.44,19.55,6.2c3.54,2.29,5.88,3.8,11.41,3.8s7.87-1.51,11.41-3.8
			c4.28-2.76,9.6-6.2,19.55-6.2s15.27,3.44,19.55,6.2c3.54,2.29,5.88,3.8,11.41,3.8s7.87-1.51,11.41-3.8
			c2.87-1.85,6.22-4.01,11.12-5.23l5.18-31.08c0.6-3.61,3.73-6.26,7.4-6.26h16.29l11.06-212.53h-7.49c-4.14,0-7.5-3.36-7.5-7.5v-42
			c0-4.14,3.36-7.5,7.5-7.5h15.36v-26.5c0-27.64,20.6-50.55,47.25-54.22v-23.14c0-4.14,3.36-7.5,7.5-7.5s7.5,3.36,7.5,7.5v23.14
			c26.65,3.67,47.25,26.58,47.25,54.22v26.5h15.36c4.14,0,7.5,3.36,7.5,7.5v42c0,4.14-3.36,7.5-7.5,7.5h-7.49l11.05,212.53h13.85
			c3.67,0,6.79,2.65,7.4,6.26l5.19,31.09c4.88,1.22,8.23,3.37,11.09,5.22c3.54,2.29,5.89,3.8,11.41,3.8c5.53,0,7.88-1.51,11.42-3.8
			c4.27-2.76,9.6-6.2,19.55-6.2c9.95,0,15.28,3.44,19.55,6.2c3.55,2.29,5.89,3.8,11.42,3.8s7.87-1.51,11.41-3.8
			C425.952,424.058,431.272,420.618,441.232,420.618z M310.552,421.238l-3.67-21.99h-164.79l-3.66,21.99
			c5.79,1.12,9.54,3.53,12.71,5.58c3.54,2.29,5.88,3.8,11.41,3.8s7.87-1.51,11.42-3.8c4.27-2.76,9.59-6.2,19.55-6.2
			c9.95,0,15.27,3.44,19.54,6.2c3.55,2.29,5.89,3.8,11.41,3.8c5.53,0,7.87-1.51,11.41-3.8c4.28-2.76,9.6-6.2,19.55-6.2
			c9.96,0,15.28,3.44,19.56,6.2c3.54,2.29,5.88,3.8,11.41,3.8s7.87-1.51,11.41-3.8C300.992,424.768,304.752,422.348,310.552,421.238
			z M288.322,156.718v-27h-125.22v27H288.322z M284.362,384.248l-1.4-27.01l-77.97,27.01H284.362z M282.152,341.648l-1.53-29.27
			l-111.84,38.73l-1.58,30.35L282.152,341.648z M279.812,296.778l-1.52-29.27l-107.09,37.1l-1.58,30.34L279.812,296.778z
			 M277.482,251.918l-1.52-29.27l-102.34,35.45l-1.58,30.34L277.482,251.918z M275.152,207.058l-1.52-29.28l-97.59,33.81
			l-1.58,30.35L275.152,207.058z M265.462,114.718v-26.5c0-2.54-0.25-5.01-0.71-7.42h-10.54v33.92H265.462z M192.912,65.798h65.6
			c-7.17-10.45-19.2-17.33-32.8-17.33C212.102,48.468,200.072,55.348,192.912,65.798z M176.882,195.418l68.42-23.7h-67.19
			L176.882,195.418z M239.212,114.718v-33.92h-27v33.92H239.212z M197.212,114.718v-33.92h-10.55c-0.45,2.41-0.7,4.88-0.7,7.42v26.5
			H197.212z"/>
	</g>
	<g>
	</g>
</g>
<g>
</g>
<g>
</g>
<g>
</g>
<g>
</g>
<g>
</g>
<g>
</g>
<g>
</g>
<g>
</g>
<g>
</g>
<g>
</g>
<g>
</g>
<g>
</g>
<g>
</g>
<g>
</g>
<g>
</g>
</svg>
