<?xml version="1.0" encoding="iso-8859-1"?>
<!-- Generator: Adobe Illustrator 18.0.0, SVG Export Plug-In . SVG Version: 6.00 Build 0)  -->
<!DOCTYPE svg PUBLIC "-//W3C//DTD SVG 1.1//EN" "http://www.w3.org/Graphics/SVG/1.1/DTD/svg11.dtd">
<svg version="1.1" id="Capa_1" xmlns="http://www.w3.org/2000/svg" xmlns:xlink="http://www.w3.org/1999/xlink" x="0px" y="0px"
	 viewBox="0 0 426.611 426.611" style="enable-background:new 0 0 426.611 426.611;" xml:space="preserve">
<g id="XMLID_17_">
	<g>
		<path style="fill:#AD723D;" d="M182.431,137.647c3.06,5.56,1.02,12.56-4.54,15.61c-5.56,3.05-12.57,1.01-15.62-4.54
			c-3.05-5.56-1.01-12.57,4.55-15.62c1.75-0.96,3.64-1.42,5.51-1.42C176.401,131.677,180.341,133.837,182.431,137.647z"/>
		<path style="fill:#999999;" d="M405.951,66.847l2.73,4.97l-112.8,61.92c-0.55-1.79-1.42-3.5-2.56-5.05L405.951,66.847z"/>
		<polygon style="fill:#999999;" points="387.661,33.537 398.731,53.697 325.651,93.817 301.851,80.647 		"/>
		<path style="fill:#808080;" d="M310.101,102.357l-38.93,21.37l-145.71,79.99c-5.84,3.21-12.71,3.57-18.85,1.01
			c-3.46-1.45-7.08-2.31-10.71-2.65c-0.81-4.41,1.22-9.05,5.37-11.32l29.4-16.14l3.66,3.55c1.46,1.41,3.34,2.12,5.22,2.12
			c1.96,0,3.92-0.76,5.39-2.28c2.88-2.97,2.81-7.72-0.16-10.6l-0.35-0.34l9.26-5.09c5.01,4.97,11.78,7.7,18.71,7.7
			c4.3,0,8.67-1.05,12.71-3.27c6.2-3.41,10.71-9.02,12.69-15.82c1.25-4.32,1.39-8.79,0.45-13.07l88.05-48.33L310.101,102.357z"/>
		<path style="fill:#AD723D;" d="M94.501,360.787c3.55,3.5,3.57,9.26,0.06,12.82c-19.19,19.51-47.82,26.83-73.9,19.18
			c-4.91-18.89-6.45-37.55-4.65-55.85l57-7.27C76.311,338.847,82.861,349.287,94.501,360.787z"/>
		<path style="fill:#E0974F;" d="M280.881,137.167c0.52,0.47,1.04,1.28,0.53,2.45c-7.06,16.49-19.6,30.32-35.33,38.95l-100.17,54.99
			c-40.96,22.49-61.52,33.78-73.51,67.63c-1.37,3.86-2.31,8.47-2.22,13.72l-51.85,6.62c2.46-12.04,6.4-23.9,11.83-35.54
			c13.59-29.17,33.47-50.65,47.75-63.54c6.19-5.58,15.19-7.11,22.91-3.88c10.39,4.33,21.99,3.72,31.85-1.7l145.72-79.99
			C279.511,136.257,280.361,136.697,280.881,137.167z"/>
		<path style="fill:#4D4D4D;" d="M425.431,71.177c2,3.63,0.67,8.19-2.96,10.18l-131.04,71.93c-8.72,16.12-22.01,29.58-38.13,38.43
			l-67.17,36.88l-0.48,17.64c-0.39,14.36-8.46,27.57-21.05,34.48c-6.07,3.33-12.74,5.03-19.48,5.03c-3.81,0-7.64-0.54-11.41-1.64
			c-8.18-2.38-15.24-7.16-20.42-13.71c-13.13,9.62-21,19.55-26.76,35.8c-2.51,7.09-3.45,22.23,18.51,43.92
			c9.42,9.3,9.52,24.56,0.22,34.02c-17.03,17.3-40.24,26.62-63.83,26.62c-9.88,0-19.83-1.63-29.42-5c-2.3-0.81-4.07-2.69-4.73-5.03
			c-11.84-41.71-8.71-82.45,9.28-121.07c14.66-31.46,35.99-54.53,51.3-68.34c3.85-3.47,8.33-6.01,13.12-7.57
			c-1.45-10.28,3.45-20.86,13.07-26.14l25.3-13.89c-3.74-3-8.88-3.48-13.16-1.14l-17.24,9.47c-3.63,1.99-8.19,0.66-10.18-2.97
			c-1.99-3.63-0.67-8.19,2.96-10.18l17.24-9.47c10.42-5.72,23.16-4,31.69,4.28l2.5,2.43l13.31-7.31
			c-2.44-11.17,2.61-23.1,13.13-28.88c10.53-5.78,23.3-3.63,31.42,4.43l196-107.6c1.74-0.96,3.79-1.18,5.7-0.63
			c1.91,0.56,3.52,1.85,4.48,3.6L425.431,71.177z M408.681,71.817l-2.73-4.97l-112.63,61.84c1.14,1.55,2.01,3.26,2.56,5.05
			L408.681,71.817z M398.731,53.697l-11.07-20.16l-85.81,47.11l23.8,13.17L398.731,53.697z M271.171,123.727l38.93-21.37
			l-23.8-13.17l-88.05,48.33c0.94,4.28,0.8,8.75-0.45,13.07c-1.98,6.8-6.49,12.41-12.69,15.82c-4.04,2.22-8.41,3.27-12.71,3.27
			c-6.93,0-13.7-2.73-18.71-7.7l-9.26,5.09l0.35,0.34c2.97,2.88,3.04,7.63,0.16,10.6c-1.47,1.52-3.43,2.28-5.39,2.28
			c-1.88,0-3.76-0.71-5.22-2.12l-3.66-3.55l-29.4,16.14c-4.15,2.27-6.18,6.91-5.37,11.32c3.63,0.34,7.25,1.2,10.71,2.65
			c6.14,2.56,13.01,2.2,18.85-1.01L271.171,123.727z M281.411,139.617c0.51-1.17-0.01-1.98-0.53-2.45s-1.37-0.91-2.49-0.29
			l-145.72,79.99c-9.86,5.42-21.46,6.03-31.85,1.7c-7.72-3.23-16.72-1.7-22.91,3.88c-14.28,12.89-34.16,34.37-47.75,63.54
			c-5.43,11.64-9.37,23.5-11.83,35.54l51.85-6.62c-0.09-5.25,0.85-9.86,2.22-13.72c11.99-33.85,32.55-45.14,73.51-67.63
			l100.17-54.99C261.811,169.937,274.351,156.107,281.411,139.617z M177.891,153.257c5.56-3.05,7.6-10.05,4.54-15.61
			c-2.09-3.81-6.03-5.97-10.1-5.97c-1.87,0-3.76,0.46-5.51,1.42c-5.56,3.05-7.6,10.06-4.55,15.62
			C165.321,154.267,172.331,156.307,177.891,153.257z M170.651,245.827l0.24-8.87l-17.76,9.75c-0.95,0.52-1.88,1.03-2.81,1.54
			l4.96,6.38c2.55,3.27,1.96,7.98-1.31,10.53c-1.37,1.06-2.99,1.58-4.6,1.58c-2.24,0-4.45-1-5.93-2.9l-6.39-8.23
			c-4.01,2.26-7.72,4.41-11.16,6.49c3.18,3.6,7.3,6.24,12.02,7.61c6.56,1.91,13.48,1.15,19.47-2.14
			C165.321,263.207,170.401,254.877,170.651,245.827z M94.561,373.607c3.51-3.56,3.49-9.32-0.06-12.82
			c-11.64-11.5-18.19-21.94-21.49-31.12l-57,7.27c-1.8,18.3-0.26,36.96,4.65,55.85C46.741,400.437,75.371,393.117,94.561,373.607z"
			/>
	</g>
	<g>
	</g>
</g>
<g>
</g>
<g>
</g>
<g>
</g>
<g>
</g>
<g>
</g>
<g>
</g>
<g>
</g>
<g>
</g>
<g>
</g>
<g>
</g>
<g>
</g>
<g>
</g>
<g>
</g>
<g>
</g>
<g>
</g>
</svg>
