<?xml version="1.0" encoding="iso-8859-1"?>
<!-- Generator: Adobe Illustrator 18.0.0, SVG Export Plug-In . SVG Version: 6.00 Build 0)  -->
<!DOCTYPE svg PUBLIC "-//W3C//DTD SVG 1.1//EN" "http://www.w3.org/Graphics/SVG/1.1/DTD/svg11.dtd">
<svg version="1.1" id="Capa_1" xmlns="http://www.w3.org/2000/svg" xmlns:xlink="http://www.w3.org/1999/xlink" x="0px" y="0px"
	 viewBox="0 0 400.946 400.946" style="enable-background:new 0 0 400.946 400.946;" xml:space="preserve">
<g id="XMLID_27_">
	<g>
		<path style="fill:#E0974F;" d="M136.016,99.262l0.75,23.2l-14.3,14.31l-23.21-0.75c-5.9-0.19-11.49-2.88-15.33-7.38l-65.97-77.3
			l33.38-33.39l77.31,65.97C133.146,87.762,135.826,93.352,136.016,99.262z"/>
		<path style="fill:#AD723D;" d="M384.286,373.472c1.87,1.86,1.87,4.91,0,6.78l-4.03,4.04c-1.87,1.87-4.92,1.87-6.79,0
			l-162.39-162.39l10.83-10.82L384.286,373.472z"/>
		<polygon style="fill:#AD723D;" points="189.866,179.042 179.046,189.872 134.816,145.642 145.636,134.812 		"/>
		<path style="fill:#AD723D;" d="M266.136,145.632l-238.66,238.66c-1.87,1.87-4.91,1.87-6.78,0l-4.04-4.04
			c-1.87-1.87-1.87-4.91,0-6.78l238.65-238.66L266.136,145.632z"/>
		<path style="fill:#E0974F;" d="M382.996,51.342l-65.98,77.3c-3.83,4.5-9.42,7.19-15.33,7.38l-23.21,0.75l-14.3-14.31l0.75-23.2
			c0.19-5.91,2.88-11.5,7.37-15.34l77.31-65.97L382.996,51.342z"/>
		<path style="fill:#4D4D4D;" d="M398.496,45.632c2.77,2.77,2.94,7.2,0.4,10.17l-70.47,82.58c-6.57,7.7-16.14,12.3-26.26,12.63
			l-20.87,0.68l-48.79,48.78l162.39,162.39c7.72,7.72,7.72,20.27,0,27.99l-4.03,4.04c-3.87,3.86-8.94,5.79-14.01,5.79
			s-10.13-1.92-13.99-5.77l-162.4-162.4l-162.38,162.39c-3.74,3.74-8.71,5.79-14,5.79s-10.26-2.05-14-5.79l-4.04-4.05
			c-3.74-3.73-5.8-8.71-5.8-13.99c0-5.29,2.06-10.26,5.8-14l162.39-162.39l-48.79-48.78l-20.87-0.68
			c-10.12-0.33-19.69-4.93-26.26-12.63l-70.47-82.58c-2.54-2.97-2.37-7.4,0.4-10.17l43.19-43.18c2.76-2.77,7.19-2.95,10.17-0.41
			l82.58,70.47c7.7,6.58,12.3,16.15,12.63,26.26l0.67,20.88l48.79,48.79l48.78-48.79l0.68-20.88c0.32-10.11,4.93-19.68,12.63-26.26
			l82.58-70.47c2.97-2.54,7.4-2.36,10.17,0.41L398.496,45.632z M384.286,380.252c1.87-1.87,1.87-4.92,0-6.78l-162.38-162.39
			l-10.83,10.82l162.39,162.39c1.87,1.87,4.92,1.87,6.79,0L384.286,380.252z M317.016,128.642l65.98-77.3l-33.39-33.39l-77.31,65.97
			c-4.49,3.84-7.18,9.43-7.37,15.34l-0.75,23.2l14.3,14.31l23.21-0.75C307.596,135.832,313.186,133.142,317.016,128.642z
			 M27.476,384.292l238.66-238.66l-10.83-10.82l-238.65,238.66c-1.87,1.87-1.87,4.91,0,6.78l4.04,4.04
			C22.566,386.162,25.606,386.162,27.476,384.292z M179.046,189.872l10.82-10.83l-44.23-44.23l-10.82,10.83L179.046,189.872z
			 M136.766,122.462l-0.75-23.2c-0.19-5.91-2.87-11.5-7.37-15.34l-77.31-65.97l-33.38,33.39l65.97,77.3
			c3.84,4.5,9.43,7.19,15.33,7.38l23.21,0.75L136.766,122.462z"/>
	</g>
	<g>
	</g>
</g>
<g>
</g>
<g>
</g>
<g>
</g>
<g>
</g>
<g>
</g>
<g>
</g>
<g>
</g>
<g>
</g>
<g>
</g>
<g>
</g>
<g>
</g>
<g>
</g>
<g>
</g>
<g>
</g>
<g>
</g>
</svg>
