<?xml version="1.0" encoding="iso-8859-1"?>
<!-- Generator: Adobe Illustrator 18.0.0, SVG Export Plug-In . SVG Version: 6.00 Build 0)  -->
<!DOCTYPE svg PUBLIC "-//W3C//DTD SVG 1.1//EN" "http://www.w3.org/Graphics/SVG/1.1/DTD/svg11.dtd">
<svg version="1.1" id="Capa_1" xmlns="http://www.w3.org/2000/svg" xmlns:xlink="http://www.w3.org/1999/xlink" x="0px" y="0px"
	 viewBox="0 0 427.613 427.613" style="enable-background:new 0 0 427.613 427.613;" xml:space="preserve">
<g>
	<g id="XMLID_17_">
		<g>
			<path style="fill:#F2F2F2;" d="M222.019,121.575c8.94,0,16.22,7.28,16.22,16.23c0,8.94-7.28,16.22-16.22,16.22
				c-8.95,0-16.23-7.28-16.23-16.22C205.789,128.855,213.069,121.575,222.019,121.575z M229.329,139.445
				c1.52-6.63-6.33-11.7-11.78-7.67c-2.62,1.94-3.7,5.49-2.59,8.55c1.06,2.95,3.92,4.97,7.06,4.97
				C225.499,145.295,228.549,142.815,229.329,139.445z"/>
			<path style="fill:#F2F2F2;" d="M295.959,68.495l-4.48,6.35c-9.28-6.55-19.21-12.15-29.64-16.64
				c-12.09-5.21-24.74-8.92-37.67-11.1l1.32-7.72C251.199,42.825,275.389,52.825,295.959,68.495z"/>
			<path style="fill:#86A9F7;" d="M274.549,16.615c9.17,3.8,13.54,14.35,9.74,23.52l-1.01,2.44c-10.6-5.69-21.79-10.2-33.4-13.44
				l1.15-2.77C254.829,17.195,265.379,12.825,274.549,16.615z"/>
			<path style="fill:#5B79CE;" d="M282.829,87.095l-8.53,12.08c-16.31-11.65-34.77-20.46-54.66-25.75l1.99-11.54
				c11.77,1.98,23.27,5.35,34.27,10.09C265.369,76.065,274.399,81.145,282.829,87.095z"/>
			<path style="fill:#E0974F;" d="M168.689,145.415v23.7h-96.16c3.32-1.73,7.01-3.53,11.09-5.33
				C101.609,155.865,130.599,146.515,168.689,145.415z"/>
			<path style="fill:#E5D665;" d="M168.689,82.765v47.64c-56.02,1.5-94.24,19.49-113.14,31.01c7.29-44.55,46.03-78.65,92.61-78.65
				H168.689z"/>
			<path style="fill:#77CE6F;" d="M363.139,358.115h-25.21c-2.3,0-4.58-0.07-6.85-0.16l-27.97-73.36
				c-9.85-25.83-27.09-47.78-49.85-63.47c-20.7-14.26-44.62-22.39-69.57-23.75V82.945c81.58,3.92,146.74,71.52,146.74,154.06v32.71
				C330.429,302.075,342.219,333.635,363.139,358.115z M253.239,137.805c0-17.22-14.01-31.23-31.22-31.23
				c-17.22,0-31.23,14.01-31.23,31.23c0,17.21,14.01,31.22,31.23,31.22C239.229,169.025,253.239,155.015,253.239,137.805z"/>
			<path style="fill:#E8465A;" d="M289.089,289.945l25.31,66.37c-71.17-10.94-126.45-70.7-130.47-143.9
				c21.81,1.38,42.7,8.58,60.82,21.06C264.999,247.435,280.329,266.955,289.089,289.945z"/>
			<path style="fill:#4D4D4D;" d="M386.019,360.215c2.21,2.12,2.9,5.37,1.75,8.2c-1.15,2.84-3.9,4.7-6.95,4.7h-42.89
				c-23.06,0-45.06-4.65-65.12-13.04v40.13c6.21,1.39,11.92,4.51,16.53,9.12l1.25,1.24c2.92,2.93,2.92,7.68,0,10.61
				c-1.47,1.46-3.39,2.19-5.31,2.19c-1.92,0-3.84-0.73-5.3-2.19l-1.25-1.25c-3.58-3.58-8.35-5.56-13.42-5.56h-36.64
				c-0.09,0.02-0.14,0.13-0.13,0.18c2.92,2.93,2.95,7.69,0.02,10.62c-1.47,1.46-3.39,2.2-5.3,2.2s-3.82-0.73-5.28-2.19
				c-4.34-4.34-5.63-10.81-3.28-16.47c2.35-5.67,7.83-9.34,13.97-9.34h29.14v-46.45c-53.01-28.62-89.12-84.69-89.12-149.05v-19.75
				H46.799c-4.14,0-7.5-3.35-7.5-7.5c0-60.02,48.83-108.85,108.86-108.85h28.03c9.81,0,19.43,0.84,28.79,2.46l6.94-40.41
				c0.68-3.93,4.31-6.64,8.27-6.17l4.77,0.56c3.39,0.4,6.76,0.92,10.1,1.53l2.11-5.11c6.96-16.81,26.31-24.82,43.12-17.86
				c16.81,6.96,24.82,26.3,17.86,43.11l-1.85,4.47c5.07,3.37,9.97,7.01,14.68,10.95c2.99,2.51,3.56,6.89,1.31,10.08l-26.17,37.06
				c36.28,31.06,59.31,77.17,59.31,128.57v32.71c0,16.3,3.36,32.38,9.66,47.21c6.3,14.83,15.53,28.41,27.26,39.74L386.019,360.215z
				 M337.929,358.115h25.21c-20.92-24.48-32.71-56.04-32.71-88.4v-32.71c0-82.54-65.16-150.14-146.74-154.06v114.43
				c24.95,1.36,48.87,9.49,69.57,23.75c22.76,15.69,40,37.64,49.85,63.47l27.97,73.36
				C333.349,358.045,335.629,358.115,337.929,358.115z M314.399,356.315l-25.31-66.37c-8.76-22.99-24.09-42.51-44.34-56.47
				c-18.12-12.48-39.01-19.68-60.82-21.06C187.949,285.615,243.229,345.375,314.399,356.315z M291.479,74.845l4.48-6.35
				c-20.57-15.67-44.76-25.67-70.47-29.11l-1.32,7.72c12.93,2.18,25.58,5.89,37.67,11.1
				C272.269,62.695,282.199,68.295,291.479,74.845z M284.289,40.135c3.8-9.17-0.57-19.72-9.74-23.52
				c-9.17-3.79-19.72,0.58-23.52,9.75l-1.15,2.77c11.61,3.24,22.8,7.75,33.4,13.44L284.289,40.135z M274.299,99.175l8.53-12.08
				c-8.43-5.95-17.46-11.03-26.93-15.12c-11-4.74-22.5-8.11-34.27-10.09l-1.99,11.54C239.529,78.715,257.989,87.525,274.299,99.175z
				 M168.689,169.115v-23.7c-38.09,1.1-67.08,10.45-85.07,18.37c-4.08,1.8-7.77,3.6-11.09,5.33H168.689z M168.689,130.405v-47.64
				h-20.53c-46.58,0-85.32,34.1-92.61,78.65C74.449,149.895,112.669,131.905,168.689,130.405z"/>
			<path style="fill:#4D4D4D;" d="M222.019,106.575c17.21,0,31.22,14.01,31.22,31.23c0,17.21-14.01,31.22-31.22,31.22
				c-17.22,0-31.23-14.01-31.23-31.22C190.789,120.585,204.799,106.575,222.019,106.575z M238.239,137.805
				c0-8.95-7.28-16.23-16.22-16.23c-8.95,0-16.23,7.28-16.23,16.23c0,8.94,7.28,16.22,16.23,16.22
				C230.959,154.025,238.239,146.745,238.239,137.805z"/>
			<path style="fill:#4D4D4D;" d="M217.549,131.775c5.45-4.03,13.3,1.04,11.78,7.67c-0.78,3.37-3.83,5.85-7.31,5.85
				c-3.14,0-6-2.02-7.06-4.97C213.849,137.265,214.929,133.715,217.549,131.775z"/>
		</g>
		<g>
		</g>
	</g>
</g>
<g>
</g>
<g>
</g>
<g>
</g>
<g>
</g>
<g>
</g>
<g>
</g>
<g>
</g>
<g>
</g>
<g>
</g>
<g>
</g>
<g>
</g>
<g>
</g>
<g>
</g>
<g>
</g>
<g>
</g>
</svg>
