<?xml version="1.0" encoding="iso-8859-1"?>
<!-- Generator: Adobe Illustrator 18.0.0, SVG Export Plug-In . SVG Version: 6.00 Build 0)  -->
<!DOCTYPE svg PUBLIC "-//W3C//DTD SVG 1.1//EN" "http://www.w3.org/Graphics/SVG/1.1/DTD/svg11.dtd">
<svg version="1.1" id="Capa_1" xmlns="http://www.w3.org/2000/svg" xmlns:xlink="http://www.w3.org/1999/xlink" x="0px" y="0px"
	 viewBox="0 0 443.771 443.771" style="enable-background:new 0 0 443.771 443.771;" xml:space="preserve">
<g>
	<g id="XMLID_28_">
		<g>
			<rect x="75.249" y="308.135" style="fill:#E0974F;" width="11.29" height="30"/>
			<polygon style="fill:#AD723D;" points="401.599,234.705 402.499,243.765 299.969,243.765 300.859,234.705 			"/>
			<rect x="15.249" y="320.135" style="fill:#AD723D;" width="45" height="6"/>
			<path style="fill:#AD723D;" d="M278.519,308.135l-1,10.11c-0.67,6.69-0.39,13.37,0.73,19.89h-176.71v-30H278.519z"/>
			<path style="fill:#E0974F;" d="M410.019,319.725c1.64,16.57-3.83,33.15-15,45.49c-11.18,12.34-27.14,19.41-43.79,19.41
				s-32.6-7.07-43.78-19.41s-16.65-28.92-15.01-45.49l6.04-60.96h105.51L410.019,319.725z"/>
			<path style="fill:#4D4D4D;" d="M419.519,44.145c13.24,0,24,10.77,24,24s-10.76,24-24,24h-125.99c-4.14,0-7.5-3.36-7.5-7.5
				s3.36-7.5,7.5-7.5h125.99c4.97,0,9-4.04,9-9s-4.03-9-9-9h-28.5c-4.14,0-7.5-3.36-7.5-7.5s3.36-7.5,7.5-7.5H419.519z"/>
			<path style="fill:#4D4D4D;" d="M424.949,318.245c2.06,20.78-4.8,41.57-18.82,57.04c-7,7.73-15.51,13.82-24.87,17.97
				c-9.37,4.15-19.59,6.37-30.03,6.37c-20.87,0-40.88-8.87-54.9-24.34c-5.94-6.56-10.58-14.09-13.82-22.15H67.749
				c-4.14,0-7.5-3.36-7.5-7.5v-4.5h-52.5c-4.14,0-7.5-3.36-7.5-7.5v-21c0-4.15,3.36-7.5,7.5-7.5h52.5v-4.5c0-4.15,3.36-7.5,7.5-7.5
				h212.25l6.61-66.67c0.38-3.84,3.6-6.76,7.46-6.76h114.33c3.85,0,7.08,2.92,7.46,6.76L424.949,318.245z M395.019,365.215
				c11.17-12.34,16.64-28.92,15-45.49l-6.03-60.96h-105.51l-6.04,60.96c-1.64,16.57,3.83,33.15,15.01,45.49s27.13,19.41,43.78,19.41
				S383.839,377.555,395.019,365.215z M402.499,243.765l-0.9-9.06h-100.74l-0.89,9.06H402.499z M277.519,318.245l1-10.11h-176.98v30
				h176.71C277.129,331.615,276.849,324.935,277.519,318.245z M86.539,338.135v-30h-11.29v30H86.539z M60.249,326.135v-6h-45v6
				H60.249z"/>
			<path style="fill:#4D4D4D;" d="M368.529,44.145c4.14,0,7.5,3.36,7.5,7.5s-3.36,7.5-7.5,7.5h-67.5c-4.14,0-7.5-3.36-7.5-7.5
				s3.36-7.5,7.5-7.5H368.529z"/>
			<path style="fill:#4D4D4D;" d="M346.029,152.135v22.5c0,4.15-3.36,7.5-7.5,7.5c-4.14,0-7.5-3.35-7.5-7.5v-22.5
				c0-8.27-6.73-14.99-15-14.99h-103.5c-16.54,0-30-13.46-30-30s13.46-30,30-30h55.5c4.14,0,7.5,3.36,7.5,7.5s-3.36,7.5-7.5,7.5
				h-55.5c-8.27,0-15,6.73-15,15s6.73,15,15,15h103.5C332.569,122.145,346.029,135.595,346.029,152.135z"/>
		</g>
		<g>
		</g>
	</g>
</g>
<g>
</g>
<g>
</g>
<g>
</g>
<g>
</g>
<g>
</g>
<g>
</g>
<g>
</g>
<g>
</g>
<g>
</g>
<g>
</g>
<g>
</g>
<g>
</g>
<g>
</g>
<g>
</g>
<g>
</g>
</svg>
