<?xml version="1.0" encoding="iso-8859-1"?>
<!-- Generator: Adobe Illustrator 18.0.0, SVG Export Plug-In . SVG Version: 6.00 Build 0)  -->
<!DOCTYPE svg PUBLIC "-//W3C//DTD SVG 1.1//EN" "http://www.w3.org/Graphics/SVG/1.1/DTD/svg11.dtd">
<svg version="1.1" id="Capa_1" xmlns="http://www.w3.org/2000/svg" xmlns:xlink="http://www.w3.org/1999/xlink" x="0px" y="0px"
	 viewBox="0 0 420.857 420.857" style="enable-background:new 0 0 420.857 420.857;" xml:space="preserve">
<g>
	<g id="XMLID_15_">
		<g>
			<path style="fill:#AD723D;" d="M340.541,208.697c7.5,17.54,11.32,36.19,11.32,55.49c0,77.98-63.45,141.42-141.44,141.42
				c-77.98,0-141.42-63.44-141.42-141.42c0-19.3,3.81-37.95,11.31-55.48c5.53,1.98,11.42,2.92,17.39,2.73
				c-0.89,5.78-1.35,11.65-1.35,17.54c0,40.5,21.77,78.31,56.81,98.68c6.04,3.51,12.91,5.3,19.77,5.3c4.76,0,9.52-0.87,14-2.61
				c6.87-2.7,15-4.12,23.5-4.12s16.63,1.42,23.5,4.1c10.89,4.28,23.5,3.28,33.75-2.67c35.05-20.37,56.82-58.18,56.82-98.68
				c0-5.89-0.45-11.76-1.35-17.54c0.51,0.01,1.02,0.03,1.53,0.03C330.131,211.467,335.491,210.507,340.541,208.697z"/>
			<path style="fill:#FFFFFF;" d="M243.121,280.537c0.45,0.89,1.08,2.71,0.23,4.86l-0.1,0.27c-1.11,2.79-4.15,4.32-7.08,3.57
				c-16.84-4.35-34.64-4.35-51.49,0c-2.92,0.75-5.97-0.78-7.06-3.55l-0.11-0.27c-0.86-2.17-0.23-3.99,0.23-4.88
				c0.8-1.57,2.19-2.68,3.91-3.13c9.41-2.43,19.09-3.64,28.78-3.64c9.68,0,19.37,1.21,28.78,3.64
				C240.931,277.857,242.321,278.967,243.121,280.537z"/>
			<path style="fill:#E5D665;" d="M307.301,208.147c1.46,6.82,2.2,13.8,2.2,20.83c0,18.07-5,35.51-13.97,50.61l-11.53-27.92
				c11.2-6.89,18.69-19.27,18.69-33.36c0-4.51-0.78-8.84-2.18-12.87c1.96,0.76,3.92,1.54,5.87,2.35
				C306.681,207.917,306.991,208.027,307.301,208.147z"/>
			<path style="fill:#E5D665;" d="M269.941,256.927l15.27,36.97c-7.06,8.16-15.49,15.22-25.06,20.79
				c-6.32,3.67-14.08,4.29-20.76,1.68c-8.6-3.36-18.61-5.14-28.96-5.14s-20.37,1.78-28.97,5.15c-6.69,2.61-14.45,1.98-20.76-1.69
				c-30.44-17.7-49.35-50.54-49.35-85.71c0-7.04,0.75-14.03,2.21-20.83c0.31-0.12,0.61-0.23,0.91-0.36
				c30.57-12.71,62.85-19.16,95.96-19.16c8.77,0,17.48,0.46,26.12,1.36c-7.49,7.14-12.17,17.19-12.17,28.32
				c0,21.59,17.56,39.15,39.15,39.15C265.721,257.457,267.851,257.267,269.941,256.927z M257.291,290.937
				c2.21-5.58,1.92-11.85-0.8-17.2c-2.74-5.39-7.67-9.34-13.53-10.85c-21.28-5.49-43.78-5.49-65.06,0
				c-5.86,1.51-10.79,5.46-13.53,10.85c-2.72,5.35-3.02,11.62-0.81,17.18l0.1,0.27c3.89,9.81,14.54,15.22,24.77,12.57
				c14.39-3.72,29.6-3.72,43.99,0c1.75,0.45,3.51,0.67,5.25,0.67c8.43,0,16.3-5.1,19.52-13.22L257.291,290.937z M189.991,224.127
				c2.06-3.6,0.81-8.18-2.79-10.23l-21-12c-3.6-2.06-8.18-0.81-10.23,2.79c-2.06,3.59-0.81,8.17,2.79,10.23l4.97,2.84
				c-0.5,0.31-0.99,0.65-1.44,1.03c-3.76,3.19-5.2,8.48-3.58,13.13c1.66,4.76,6.28,8.04,11.32,8.04c5.65,0,10.65-4.11,11.77-9.65
				c0.17-0.85,0.24-1.71,0.22-2.56c0.48,0.1,0.97,0.16,1.45,0.16C186.081,227.907,188.611,226.547,189.991,224.127z"/>
			<path style="fill:#666666;" d="M263.531,194.157c13.32,0,24.16,10.83,24.16,24.15c0,13.32-10.84,24.15-24.16,24.15
				c-13.31,0-24.15-10.83-24.15-24.15C239.381,204.987,250.221,194.157,263.531,194.157z"/>
			<path style="fill:#5B79CE;" d="M388.211,112.437l-7.61,14.46l-8.59-1.72c-34.11-6.8-64.03-25.4-84.25-52.39l-1.01-1.35
				c-17.97-24.57-46.46-39.26-76.23-39.29c-29.75,0.03-58.24,14.72-76.15,39.21c-0.2,0.27-0.39,0.53-0.59,0.8
				c-0.15,0.21-0.31,0.42-0.46,0.64c-20.22,26.97-50.15,45.58-84.26,52.38l-8.79,1.75l-7.63-14.49l7.94-1.38
				c32.43-5.64,60.92-23.42,80.23-50.07c21.06-29.07,53.72-45.74,89.62-45.74c35.89,0,68.55,16.67,89.61,45.74
				c19.31,26.65,47.81,44.43,80.23,50.07L388.211,112.437z"/>
			<path style="fill:#6F91DD;" d="M373.321,140.737l-20.23,38.44c-7.83,14.87-25.44,21.21-40.95,14.76
				c-32.4-13.48-66.62-20.31-101.71-20.31s-69.32,6.83-101.72,20.31c-15.51,6.46-33.12,0.11-40.94-14.76l-20.21-38.4l4.43-0.89
				c37.74-7.53,70.89-28.16,93.33-58.09c0.19-0.27,0.39-0.54,0.59-0.81c0.15-0.21,0.3-0.42,0.51-0.7
				c15.16-20.73,39.13-33.11,64.1-33.14c24.99,0.03,48.96,12.41,64.17,33.21l1.07,1.43c22.44,29.94,55.58,50.58,93.31,58.1
				L373.321,140.737z M237.731,80.327c2.93-2.93,2.93-7.68,0-10.6c-2.93-2.93-7.68-2.93-10.61,0l-16.69,16.69l-16.7-16.69
				c-2.93-2.93-7.68-2.93-10.61,0c-2.93,2.92-2.93,7.67,0,10.6l16.7,16.7l-16.7,16.7c-2.93,2.92-2.93,7.67,0,10.6
				c1.47,1.47,3.39,2.2,5.31,2.2s3.84-0.73,5.3-2.2l16.7-16.69l16.69,16.69c1.47,1.47,3.39,2.2,5.31,2.2s3.84-0.73,5.3-2.2
				c2.93-2.93,2.93-7.68,0-10.6l-16.7-16.7L237.731,80.327z"/>
			<path style="fill:#4D4D4D;" d="M406.381,103.497c1.06,2.16,1.02,4.68-0.1,6.81l-39.92,75.85c-3.21,6.11-7.56,11.23-12.64,15.23
				c8.71,19.82,13.14,40.94,13.14,62.8c0,86.25-70.18,156.42-156.44,156.42c-86.25,0-156.42-70.17-156.42-156.42
				c0-21.86,4.42-42.97,13.13-62.79c-5.08-4.01-9.42-9.13-12.64-15.24l-39.92-75.85c-1.12-2.13-1.15-4.65-0.09-6.81
				c1.05-2.15,3.08-3.66,5.44-4.08l18.09-3.14c28.56-4.97,53.65-20.63,70.65-44.1c23.92-33,61.01-51.93,101.77-51.93
				c40.75,0,77.84,18.93,101.76,51.93c17.01,23.47,42.1,39.13,70.65,44.1l18.09,3.14
				C403.301,99.837,405.321,101.347,406.381,103.497z M380.601,126.897l7.61-14.46l-7.94-1.38c-32.42-5.64-60.92-23.42-80.23-50.07
				c-21.06-29.07-53.72-45.74-89.61-45.74c-35.9,0-68.56,16.67-89.62,45.74c-19.31,26.65-47.8,44.43-80.23,50.07l-7.94,1.38
				l7.63,14.49l8.79-1.75c34.11-6.8,64.04-25.41,84.26-52.38c0.15-0.22,0.31-0.43,0.46-0.64c0.2-0.27,0.39-0.53,0.59-0.8
				c17.91-24.49,46.4-39.18,76.15-39.21c29.77,0.03,58.26,14.72,76.23,39.29l1.01,1.35c20.22,26.99,50.14,45.59,84.25,52.39
				L380.601,126.897z M353.091,179.177l20.23-38.44l-4.25-0.85c-37.73-7.52-70.87-28.16-93.31-58.1l-1.07-1.43
				c-15.21-20.8-39.18-33.18-64.17-33.21c-24.97,0.03-48.94,12.41-64.1,33.14c-0.21,0.28-0.36,0.49-0.51,0.7
				c-0.2,0.27-0.4,0.54-0.59,0.81c-22.44,29.93-55.59,50.56-93.33,58.09l-4.43,0.89l20.21,38.4c7.82,14.87,25.43,21.22,40.94,14.76
				c32.4-13.48,66.63-20.31,101.72-20.31s69.31,6.83,101.71,20.31C327.651,200.387,345.261,194.047,353.091,179.177z
				 M351.861,264.187c0-19.3-3.82-37.95-11.32-55.49c-5.05,1.81-10.41,2.77-15.86,2.77c-0.51,0-1.02-0.02-1.53-0.03
				c0.9,5.78,1.35,11.65,1.35,17.54c0,40.5-21.77,78.31-56.82,98.68c-10.25,5.95-22.86,6.95-33.75,2.67c-6.87-2.68-15-4.1-23.5-4.1
				s-16.63,1.42-23.5,4.12c-4.48,1.74-9.24,2.61-14,2.61c-6.86,0-13.73-1.79-19.77-5.3c-35.04-20.37-56.81-58.18-56.81-98.68
				c0-5.89,0.46-11.76,1.35-17.54c-5.97,0.19-11.86-0.75-17.39-2.73c-7.5,17.53-11.31,36.18-11.31,55.48
				c0,77.98,63.44,141.42,141.42,141.42C288.411,405.607,351.861,342.167,351.861,264.187z M309.501,228.977
				c0-7.03-0.74-14.01-2.2-20.83c-0.31-0.12-0.62-0.23-0.92-0.36c-1.95-0.81-3.91-1.59-5.87-2.35c1.4,4.03,2.18,8.36,2.18,12.87
				c0,14.09-7.49,26.47-18.69,33.36l11.53,27.92C304.501,264.487,309.501,247.047,309.501,228.977z M285.211,293.897l-15.27-36.97
				c-2.09,0.34-4.22,0.53-6.41,0.53c-21.59,0-39.15-17.56-39.15-39.15c0-11.13,4.68-21.18,12.17-28.32
				c-8.64-0.9-17.35-1.36-26.12-1.36c-33.11,0-65.39,6.45-95.96,19.16c-0.3,0.13-0.6,0.24-0.91,0.36
				c-1.46,6.8-2.21,13.79-2.21,20.83c0,35.17,18.91,68.01,49.35,85.71c6.31,3.67,14.07,4.3,20.76,1.69
				c8.6-3.37,18.62-5.15,28.97-5.15s20.36,1.78,28.96,5.14c6.68,2.61,14.44,1.99,20.76-1.68
				C269.721,309.117,278.151,302.057,285.211,293.897z M287.691,218.307c0-13.32-10.84-24.15-24.16-24.15
				c-13.31,0-24.15,10.83-24.15,24.15c0,13.32,10.84,24.15,24.15,24.15C276.851,242.457,287.691,231.627,287.691,218.307z"/>
			<path style="fill:#4D4D4D;" d="M256.491,273.737c2.72,5.35,3.01,11.62,0.8,17.2l-0.1,0.27c-3.22,8.12-11.09,13.22-19.52,13.22
				c-1.74,0-3.5-0.22-5.25-0.67c-14.39-3.72-29.6-3.72-43.99,0c-10.23,2.65-20.88-2.76-24.77-12.57l-0.1-0.27
				c-2.21-5.56-1.91-11.83,0.81-17.18c2.74-5.39,7.67-9.34,13.53-10.85c21.28-5.49,43.78-5.49,65.06,0
				C248.821,264.397,253.751,268.347,256.491,273.737z M243.351,285.397c0.85-2.15,0.22-3.97-0.23-4.86
				c-0.8-1.57-2.19-2.68-3.91-3.13c-9.41-2.43-19.1-3.64-28.78-3.64c-9.69,0-19.37,1.21-28.78,3.64c-1.72,0.45-3.11,1.56-3.91,3.13
				c-0.46,0.89-1.09,2.71-0.23,4.88l0.11,0.27c1.09,2.77,4.14,4.3,7.06,3.55c16.85-4.35,34.65-4.35,51.49,0
				c2.93,0.75,5.97-0.78,7.08-3.57L243.351,285.397z"/>
			<path style="fill:#4D4D4D;" d="M237.731,69.727c2.93,2.92,2.93,7.67,0,10.6l-16.7,16.7l16.7,16.7c2.93,2.92,2.93,7.67,0,10.6
				c-1.46,1.47-3.38,2.2-5.3,2.2s-3.84-0.73-5.31-2.2l-16.69-16.69l-16.7,16.69c-1.46,1.47-3.38,2.2-5.3,2.2s-3.84-0.73-5.31-2.2
				c-2.93-2.93-2.93-7.68,0-10.6l16.7-16.7l-16.7-16.7c-2.93-2.93-2.93-7.68,0-10.6c2.93-2.93,7.68-2.93,10.61,0l16.7,16.69
				l16.69-16.69C230.051,66.797,234.801,66.797,237.731,69.727z"/>
			<path style="fill:#4D4D4D;" d="M187.201,213.897c3.6,2.05,4.85,6.63,2.79,10.23c-1.38,2.42-3.91,3.78-6.52,3.78
				c-0.48,0-0.97-0.06-1.45-0.16c0.02,0.85-0.05,1.71-0.22,2.56c-1.12,5.54-6.12,9.65-11.77,9.65c-5.04,0-9.66-3.28-11.32-8.04
				c-1.62-4.65-0.18-9.94,3.58-13.13c0.45-0.38,0.94-0.72,1.44-1.03l-4.97-2.84c-3.6-2.06-4.85-6.64-2.79-10.23
				c2.05-3.6,6.63-4.85,10.23-2.79L187.201,213.897z"/>
		</g>
		<g>
		</g>
	</g>
</g>
<g>
</g>
<g>
</g>
<g>
</g>
<g>
</g>
<g>
</g>
<g>
</g>
<g>
</g>
<g>
</g>
<g>
</g>
<g>
</g>
<g>
</g>
<g>
</g>
<g>
</g>
<g>
</g>
<g>
</g>
</svg>
