<?xml version="1.0" encoding="iso-8859-1"?>
<!-- Generator: Adobe Illustrator 18.0.0, SVG Export Plug-In . SVG Version: 6.00 Build 0)  -->
<!DOCTYPE svg PUBLIC "-//W3C//DTD SVG 1.1//EN" "http://www.w3.org/Graphics/SVG/1.1/DTD/svg11.dtd">
<svg version="1.1" id="Capa_1" xmlns="http://www.w3.org/2000/svg" xmlns:xlink="http://www.w3.org/1999/xlink" x="0px" y="0px"
	 viewBox="0 0 415.362 415.362" style="enable-background:new 0 0 415.362 415.362;" xml:space="preserve">
<g>
	<g id="XMLID_17_">
		<g>
			<path style="fill:#808080;" d="M71.574,171.88v57.68c0,13.64-3.54,26.91-10.14,38.61c-0.3-3.16-0.46-6.33-0.46-9.52v-86.77
				H71.574z"/>
			<path style="fill:#808080;" d="M312.044,171.88v86.77c0,3.06-0.15,6.11-0.43,9.14c-6.46-11.61-9.92-24.73-9.92-38.23v-57.68
				H312.044z"/>
			<path style="fill:#808080;" d="M258.504,309.67v43.82l-1.47,1.45c-18.88,18.75-43.92,29.07-70.53,29.07
				c-26.6,0-51.65-10.32-70.53-29.07l-1.46-1.45v-43.82c0-20.11,16.36-36.47,36.47-36.47h71.06
				C242.144,273.2,258.504,289.56,258.504,309.67z M243.314,318.03c2.56-6.48,2.22-13.75-0.93-19.96
				c-3.18-6.24-8.9-10.83-15.7-12.59c-26.29-6.78-54.07-6.78-80.35,0c-6.8,1.76-12.52,6.35-15.7,12.59
				c-3.16,6.21-3.5,13.48-0.93,19.97l0.12,0.3c3.74,9.44,12.87,15.36,22.65,15.36c2.01,0,4.06-0.25,6.09-0.78
				c18.28-4.72,37.61-4.72,55.89,0c11.88,3.07,24.23-3.2,28.74-14.59L243.314,318.03z"/>
			<path style="fill:#E5D665;" d="M349.384,237.2c-5.68,6.48-13.65,10.57-22.34,11.35v-31.97
				C333.064,224.82,340.664,231.85,349.384,237.2z"/>
			<path style="fill:#E5D665;" d="M45.974,181.39v67.17c-2-0.18-3.95-0.53-5.83-1.04v-15.68c0-4.14-3.36-7.5-7.5-7.5
				s-7.5,3.36-7.5,7.5v6.98c-6.11-6.11-9.89-14.54-9.89-23.84C15.254,197.39,28.774,182.91,45.974,181.39z"/>
			<path style="fill:#FFFFFF;" d="M229.014,304.87c1.22,2.41,1.35,5.12,0.35,7.65l-0.12,0.3c-1.73,4.36-6.47,6.76-11.04,5.58
				c-20.74-5.36-42.66-5.36-63.39,0c-4.57,1.18-9.32-1.22-11.04-5.56l-0.13-0.33c-0.99-2.52-0.87-5.23,0.36-7.64
				c1.24-2.44,3.4-4.17,6.08-4.86c11.92-3.08,24.17-4.62,36.42-4.62c12.26,0,24.51,1.54,36.43,4.62
				C225.604,300.7,227.764,302.43,229.014,304.87z"/>
			<path style="fill:#4D4D4D;" d="M415.114,223.59v17.57c0,4.14-3.36,7.5-7.5,7.5h-17.57c-9.41,0-18.44-1.67-26.8-4.74
				c-8.55,11.58-21.83,18.83-36.32,19.69c-1.26,28.7-13.45,56.43-33.88,76.72l-25.44,25.26c-21.71,21.55-50.51,33.42-81.1,33.42
				s-59.39-11.87-81.09-33.42l-25.44-25.26c-20.44-20.29-32.62-48.02-33.89-76.72c-2.01-0.12-4-0.37-5.94-0.73v15.8
				c0,4.14-3.36,7.5-7.5,7.5s-7.5-3.36-7.5-7.5v-21.23c-14.84-8.36-24.89-24.26-24.89-42.47c0-25.86,20.25-47.07,45.72-48.63v-9.46
				c0-38.75,15.76-73.88,41.21-99.33c25.44-25.45,60.58-41.21,99.32-41.21c59.73,0,110.87,37.46,131.18,90.11
				c11.55-28.65,39.62-48.93,72.36-48.93h17.57c4.14,0,7.5,3.36,7.5,7.5V82.6c0,31.08-18.29,57.97-44.66,70.5
				C396.824,165.62,415.114,192.51,415.114,223.59z M400.114,233.66v-10.07c0-34.73-28.26-62.99-63-62.99h-3.6l35.03,30.91
				c3.1,2.74,3.4,7.48,0.66,10.58c-1.48,1.68-3.55,2.54-5.63,2.54c-1.76,0-3.53-0.62-4.96-1.88l-31.4-27.71
				c2.26,32.7,29.56,58.62,62.83,58.62H400.114z M400.114,82.6V72.53h-10.07c-34.74,0-63,28.26-63,63v4.44l23.58-23.95
				c2.91-2.95,7.66-2.99,10.61-0.08c2.95,2.91,2.99,7.66,0.08,10.61l-18.49,18.78C374.894,142.43,400.114,115.41,400.114,82.6z
				 M327.044,248.55c8.69-0.78,16.66-4.87,22.34-11.35c-8.72-5.35-16.32-12.38-22.34-20.62V248.55z M312.044,258.65v-86.77h-10.35
				v57.68c0,13.5,3.46,26.62,9.92,38.23C311.894,264.76,312.044,261.71,312.044,258.65z M60.974,156.88h251.07
				c0-17.26-3.5-33.72-9.84-48.71h-54.54c-4.14,0-7.5-3.35-7.5-7.5c0-4.14,3.36-7.5,7.5-7.5h46.97
				c-21.87-36.97-62.15-61.82-108.13-61.82c-57.38,0-105.89,38.7-120.81,91.37h46.89c4.14,0,7.5,3.36,7.5,7.5
				c0,4.14-3.36,7.5-7.5,7.5h-50.15C61.474,143.97,60.974,150.37,60.974,156.88z M282.474,329.68c11.61-11.52,20.15-25.81,25-41.29
				c-13.43-16.63-20.78-37.35-20.78-58.83v-57.68H86.574v57.68c0,21.58-7.42,42.38-20.96,59.06c4.86,15.39,13.37,29.59,24.92,41.06
				l8.98,8.91v-28.92c0-28.38,23.09-51.47,51.47-51.47h71.06c28.37,0,51.46,23.09,51.46,51.47v28.93L282.474,329.68z
				 M258.504,353.49v-43.82c0-20.11-16.36-36.47-36.46-36.47h-71.06c-20.11,0-36.47,16.36-36.47,36.47v43.82l1.46,1.45
				c18.88,18.75,43.93,29.07,70.53,29.07c26.61,0,51.65-10.32,70.53-29.07L258.504,353.49z M71.574,229.56v-57.68h-10.6v86.77
				c0,3.19,0.16,6.36,0.46,9.52C68.034,256.47,71.574,243.2,71.574,229.56z M45.974,248.56v-67.17c-17.2,1.52-30.72,16-30.72,33.59
				c0,9.3,3.78,17.73,9.89,23.84v-6.98c0-4.14,3.36-7.5,7.5-7.5s7.5,3.36,7.5,7.5v15.68C42.024,248.03,43.974,248.38,45.974,248.56z
				"/>
			<path style="fill:#E8465A;" d="M400.114,223.59v10.07h-10.07c-33.27,0-60.57-25.92-62.83-58.62l31.4,27.71
				c1.43,1.26,3.2,1.88,4.96,1.88c2.08,0,4.15-0.86,5.63-2.54c2.74-3.1,2.44-7.84-0.66-10.58l-35.03-30.91h3.6
				C371.854,160.6,400.114,188.86,400.114,223.59z"/>
			<path style="fill:#E8465A;" d="M400.114,72.53V82.6c0,32.81-25.22,59.83-57.29,62.73l18.49-18.78c2.91-2.95,2.87-7.7-0.08-10.61
				c-2.95-2.91-7.7-2.87-10.61,0.08l-23.58,23.95v-4.44c0-34.74,28.26-63,63-63H400.114z M379.224,101.41
				c1.16-6.61-6.72-11.37-12.02-7.18c-2.5,1.98-3.49,5.41-2.42,8.42c1.04,2.94,3.94,4.97,7.06,4.97
				C375.454,107.62,378.604,104.95,379.224,101.41z"/>
			<path style="fill:#4D4D4D;" d="M367.204,94.23c5.3-4.19,13.18,0.57,12.02,7.18c-0.62,3.54-3.77,6.21-7.38,6.21
				c-3.12,0-6.02-2.03-7.06-4.97C363.714,99.64,364.704,96.21,367.204,94.23z"/>
			<path style="fill:#E8465A;" d="M312.044,156.88H60.974c0-6.51,0.5-12.91,1.46-19.16h50.15c4.14,0,7.5-3.36,7.5-7.5
				c0-4.14-3.36-7.5-7.5-7.5h-46.89c14.92-52.67,63.43-91.37,120.81-91.37c45.98,0,86.26,24.85,108.13,61.82h-46.97
				c-4.14,0-7.5,3.36-7.5,7.5c0,4.15,3.36,7.5,7.5,7.5h54.54C308.544,123.16,312.044,139.62,312.044,156.88z M301.634,130.22
				c0-4.14-3.36-7.5-7.5-7.5h-19.29c-4.14,0-7.5,3.36-7.5,7.5c0,4.14,3.36,7.5,7.5,7.5h19.29
				C298.274,137.72,301.634,134.36,301.634,130.22z M226.934,100.67c0-4.14-3.36-7.5-7.5-7.5h-19.11c-4.15,0-7.5,3.36-7.5,7.5
				c0,4.15,3.35,7.5,7.5,7.5h19.11C223.574,108.17,226.934,104.82,226.934,100.67z M149.904,131.76c0.62-2.96-0.67-6.11-3.18-7.78
				c-2.8-1.87-6.63-1.61-9.14,0.64c-5.03,4.49-1.78,13.1,4.98,13.1C146.074,137.72,149.174,135.18,149.904,131.76z"/>
			<path style="fill:#4D4D4D;" d="M294.134,122.72c4.14,0,7.5,3.36,7.5,7.5c0,4.14-3.36,7.5-7.5,7.5h-19.29
				c-4.14,0-7.5-3.36-7.5-7.5c0-4.14,3.36-7.5,7.5-7.5H294.134z"/>
			<path style="fill:#E5D665;" d="M307.474,288.39c-4.85,15.48-13.39,29.77-25,41.29l-8.97,8.92v-28.93
				c0-28.38-23.09-51.47-51.46-51.47h-71.06c-28.38,0-51.47,23.09-51.47,51.47v28.92l-8.98-8.91
				c-11.55-11.47-20.06-25.67-24.92-41.06c13.54-16.68,20.96-37.48,20.96-59.06v-57.68h200.12v57.68
				C286.694,251.04,294.044,271.76,307.474,288.39z M259.244,213.29c1.84-5.61-3.51-11.2-9.2-9.55c-1.91,0.55-3.74,1.89-5.45,2.87
				c-6.35,3.63-12.7,7.26-19.05,10.88c-1.83,1.05-4.09,2.03-5.45,3.68c-3.94,4.8-0.41,12.27,5.8,12.27c1.33,0,2.58-0.37,3.74-1.01
				c0.58-0.32,1.16-0.64,1.74-0.97c-0.86,2.51-0.91,5.29-0.01,7.87c1.66,4.76,6.28,8.04,11.32,8.04c5.65,0,10.65-4.11,11.77-9.65
				c0.98-4.88-1.28-10.02-5.53-12.6c-1.22-0.73-2.54-1.22-3.9-1.48c2.89-1.65,5.78-3.3,8.66-4.95
				C256.044,217.34,258.324,216.1,259.244,213.29z M151.204,232.23c4.74-3.06,4.33-10.03-0.39-12.83c-1.76-1.04-3.56-2.03-5.33-3.04
				c-6.25-3.58-12.51-7.15-18.76-10.72c-2.42-1.39-4.73-2.71-7.68-1.96c-5.73,1.45-7.55,8.98-3.11,12.89
				c1.46,1.29,3.44,2.15,5.11,3.1c2.31,1.32,4.62,2.64,6.93,3.96c-1.74,0.34-3.4,1.05-4.86,2.15c-4.03,3.04-5.74,8.43-4.22,13.24
				c1.57,4.92,6.28,8.35,11.44,8.35c5.65,0,10.65-4.11,11.76-9.65c0.42-2.11,0.24-4.27-0.45-6.25c1.7,1.01,3.48,1.97,5.48,1.97
				C148.564,233.44,149.994,233.01,151.204,232.23z"/>
			<path style="fill:#4D4D4D;" d="M250.044,203.74c5.69-1.65,11.04,3.94,9.2,9.55c-0.92,2.81-3.2,4.05-5.56,5.4
				c-2.88,1.65-5.77,3.3-8.66,4.95c1.36,0.26,2.68,0.75,3.9,1.48c4.25,2.58,6.51,7.72,5.53,12.6c-1.12,5.54-6.12,9.65-11.77,9.65
				c-5.04,0-9.66-3.28-11.32-8.04c-0.9-2.58-0.85-5.36,0.01-7.87c-0.58,0.33-1.16,0.65-1.74,0.97c-1.16,0.64-2.41,1.01-3.74,1.01
				c-6.21,0-9.74-7.47-5.8-12.27c1.36-1.65,3.62-2.63,5.45-3.68c6.35-3.62,12.7-7.25,19.05-10.88
				C246.304,205.63,248.134,204.29,250.044,203.74z"/>
			<path style="fill:#4D4D4D;" d="M242.384,298.07c3.15,6.21,3.49,13.48,0.93,19.96l-0.12,0.3c-4.51,11.39-16.86,17.66-28.74,14.59
				c-18.28-4.72-37.61-4.72-55.89,0c-2.03,0.53-4.08,0.78-6.09,0.78c-9.78,0-18.91-5.92-22.65-15.36l-0.12-0.3
				c-2.57-6.49-2.23-13.76,0.93-19.97c3.18-6.24,8.9-10.83,15.7-12.59c26.28-6.78,54.06-6.78,80.35,0
				C233.484,287.24,239.204,291.83,242.384,298.07z M229.364,312.52c1-2.53,0.87-5.24-0.35-7.65c-1.25-2.44-3.41-4.17-6.08-4.86
				c-11.92-3.08-24.17-4.62-36.43-4.62c-12.25,0-24.5,1.54-36.42,4.62c-2.68,0.69-4.84,2.42-6.08,4.86
				c-1.23,2.41-1.35,5.12-0.36,7.64l0.13,0.33c1.72,4.34,6.47,6.74,11.04,5.56c20.73-5.36,42.65-5.36,63.39,0
				c4.57,1.18,9.31-1.22,11.04-5.58L229.364,312.52z"/>
			<path style="fill:#4D4D4D;" d="M219.434,93.17c4.14,0,7.5,3.36,7.5,7.5c0,4.15-3.36,7.5-7.5,7.5h-19.11c-4.15,0-7.5-3.35-7.5-7.5
				c0-4.14,3.35-7.5,7.5-7.5H219.434z"/>
			<path style="fill:#4D4D4D;" d="M150.814,219.4c4.72,2.8,5.13,9.77,0.39,12.83c-1.21,0.78-2.64,1.21-4.08,1.21
				c-2,0-3.78-0.96-5.48-1.97c0.69,1.98,0.87,4.14,0.45,6.25c-1.11,5.54-6.11,9.65-11.76,9.65c-5.16,0-9.87-3.43-11.44-8.35
				c-1.52-4.81,0.19-10.2,4.22-13.24c1.46-1.1,3.12-1.81,4.86-2.15c-2.31-1.32-4.62-2.64-6.93-3.96c-1.67-0.95-3.65-1.81-5.11-3.1
				c-4.44-3.91-2.62-11.44,3.11-12.89c2.95-0.75,5.26,0.57,7.68,1.96c6.25,3.57,12.51,7.14,18.76,10.72
				C147.254,217.37,149.054,218.36,150.814,219.4z"/>
			<path style="fill:#4D4D4D;" d="M146.724,123.98c2.51,1.67,3.8,4.82,3.18,7.78c-0.73,3.42-3.83,5.96-7.34,5.96
				c-6.76,0-10.01-8.61-4.98-13.1C140.094,122.37,143.924,122.11,146.724,123.98z"/>
		</g>
		<g>
		</g>
	</g>
</g>
<g>
</g>
<g>
</g>
<g>
</g>
<g>
</g>
<g>
</g>
<g>
</g>
<g>
</g>
<g>
</g>
<g>
</g>
<g>
</g>
<g>
</g>
<g>
</g>
<g>
</g>
<g>
</g>
<g>
</g>
</svg>
