<?xml version="1.0" encoding="iso-8859-1"?>
<!-- Generator: Adobe Illustrator 18.0.0, SVG Export Plug-In . SVG Version: 6.00 Build 0)  -->
<!DOCTYPE svg PUBLIC "-//W3C//DTD SVG 1.1//EN" "http://www.w3.org/Graphics/SVG/1.1/DTD/svg11.dtd">
<svg version="1.1" id="Capa_1" xmlns="http://www.w3.org/2000/svg" xmlns:xlink="http://www.w3.org/1999/xlink" x="0px" y="0px"
	 viewBox="0 0 443.295 443.295" style="enable-background:new 0 0 443.295 443.295;" xml:space="preserve">
<g>
	<g id="XMLID_1_">
		<g>
			<path style="fill:#E5D665;" d="M241.151,254.556v101h-120.52v-40.74l15.84,16.23c1.47,1.5,3.42,2.26,5.37,2.26
				c1.89,0,3.78-0.71,5.24-2.13c2.96-2.9,3.02-7.65,0.13-10.61l-15.01-15.38l15.38-15.01c2.96-2.9,3.02-7.65,0.13-10.61
				c-2.9-2.96-7.64-3.02-10.61-0.13l-16.47,16.07v-40.95H241.151z M225.641,290.166c2.97-2.89,3.02-7.64,0.13-10.6
				c-2.89-2.97-7.64-3.03-10.6-0.13l-15.39,15.01l-15.02-15.39c-2.89-2.96-7.64-3.02-10.6-0.13c-2.97,2.89-3.03,7.64-0.13,10.61
				l15.01,15.39l-15.39,15.01c-2.96,2.89-3.02,7.64-0.13,10.61c1.47,1.5,3.42,2.26,5.37,2.26c1.89,0,3.78-0.71,5.24-2.13
				l15.39-15.02l15.01,15.39c1.47,1.51,3.42,2.26,5.37,2.26c1.89,0,3.78-0.71,5.24-2.13c2.96-2.89,3.02-7.64,0.13-10.6l-15.02-15.39
				L225.641,290.166z"/>
			<polygon style="fill:#E0974F;" points="244.361,15.246 240.691,43.686 202.611,43.686 198.931,15.246 			"/>
			<rect x="171.581" y="58.686" style="fill:#77CE6F;" width="100.14" height="28.43"/>
			<rect x="196.371" y="102.116" style="fill:#5D9B54;" width="50.55" height="40.57"/>
			<path style="fill:#77CE6F;" d="M322.661,207.616v212.43c0,4.41-3.59,8-8,8h-186.03c-4.41,0-8-3.59-8-8v-49.49h128.02
				c4.14,0,7.5-3.36,7.5-7.5v-116c0-4.15-3.36-7.5-7.5-7.5h-128.02v-31.94c0-27.53,22.4-49.93,49.94-49.93h18.3h65.55h18.31
				C300.26,157.686,322.661,180.086,322.661,207.616z M310.661,281.056v-13.6c0-4.15-3.36-7.5-7.5-7.5c-4.14,0-7.5,3.35-7.5,7.5
				v13.6c0,4.14,3.36,7.5,7.5,7.5C307.301,288.556,310.661,285.196,310.661,281.056z M310.661,245.056v-37.44
				c0-20.91-17.02-37.93-37.93-37.93c-4.14,0-7.5,3.36-7.5,7.5s3.36,7.5,7.5,7.5c12.64,0,22.93,10.29,22.93,22.93v37.44
				c0,4.14,3.36,7.5,7.5,7.5C307.301,252.556,310.661,249.196,310.661,245.056z"/>
			<path style="fill:#4D4D4D;" d="M337.661,207.616v212.43c0,12.68-10.32,23-23,23h-186.03c-12.68,0-23-10.32-23-23v-212.43
				c0-35.8,29.13-64.93,64.94-64.93h10.8v-40.57h-17.29c-4.15,0-7.5-3.35-7.5-7.5v-43.43c0-4.14,3.35-7.5,7.5-7.5h23.4l-4.52-34.97
				c-0.28-2.14,0.38-4.3,1.8-5.92c1.43-1.62,3.48-2.55,5.64-2.55h62.5c2.15,0,4.21,0.93,5.63,2.55c1.42,1.62,2.08,3.78,1.81,5.92
				l-4.53,34.97h23.41c4.14,0,7.5,3.36,7.5,7.5v43.43c0,4.15-3.36,7.5-7.5,7.5h-17.3v40.57h10.81
				C308.531,142.686,337.661,171.816,337.661,207.616z M322.661,420.046v-212.43c0-27.53-22.4-49.93-49.93-49.93h-18.31h-65.55
				h-18.3c-27.54,0-49.94,22.4-49.94,49.93v31.94h128.02c4.14,0,7.5,3.35,7.5,7.5v116c0,4.14-3.36,7.5-7.5,7.5h-128.02v49.49
				c0,4.41,3.59,8,8,8h186.03C319.071,428.046,322.661,424.456,322.661,420.046z M271.721,87.116v-28.43h-100.14v28.43H271.721z
				 M246.921,142.686v-40.57h-50.55v40.57H246.921z M240.691,43.686l3.67-28.44h-45.43l3.68,28.44H240.691z M241.151,355.556v-101
				h-120.52v40.95l16.47-16.07c2.97-2.89,7.71-2.83,10.61,0.13c2.89,2.96,2.83,7.71-0.13,10.61l-15.38,15.01l15.01,15.38
				c2.89,2.96,2.83,7.71-0.13,10.61c-1.46,1.42-3.35,2.13-5.24,2.13c-1.95,0-3.9-0.76-5.37-2.26l-15.84-16.23v40.74H241.151z"/>
			<path style="fill:#4D4D4D;" d="M310.661,267.456v13.6c0,4.14-3.36,7.5-7.5,7.5c-4.14,0-7.5-3.36-7.5-7.5v-13.6
				c0-4.15,3.36-7.5,7.5-7.5C307.301,259.956,310.661,263.306,310.661,267.456z"/>
			<path style="fill:#4D4D4D;" d="M310.661,207.616v37.44c0,4.14-3.36,7.5-7.5,7.5c-4.14,0-7.5-3.36-7.5-7.5v-37.44
				c0-12.64-10.29-22.93-22.93-22.93c-4.14,0-7.5-3.36-7.5-7.5s3.36-7.5,7.5-7.5C293.641,169.686,310.661,186.706,310.661,207.616z"
				/>
			<path style="fill:#4D4D4D;" d="M225.771,279.566c2.89,2.96,2.84,7.71-0.13,10.6l-15.39,15.02l15.02,15.39
				c2.89,2.96,2.83,7.71-0.13,10.6c-1.46,1.42-3.35,2.13-5.24,2.13c-1.95,0-3.9-0.75-5.37-2.26l-15.01-15.39l-15.39,15.02
				c-1.46,1.42-3.35,2.13-5.24,2.13c-1.95,0-3.9-0.76-5.37-2.26c-2.89-2.97-2.83-7.72,0.13-10.61l15.39-15.01l-15.01-15.39
				c-2.9-2.97-2.84-7.72,0.13-10.61c2.96-2.89,7.71-2.83,10.6,0.13l15.02,15.39l15.39-15.01
				C218.131,276.536,222.881,276.596,225.771,279.566z"/>
		</g>
		<g>
		</g>
	</g>
</g>
<g>
</g>
<g>
</g>
<g>
</g>
<g>
</g>
<g>
</g>
<g>
</g>
<g>
</g>
<g>
</g>
<g>
</g>
<g>
</g>
<g>
</g>
<g>
</g>
<g>
</g>
<g>
</g>
<g>
</g>
</svg>
