<?xml version="1.0" encoding="iso-8859-1"?>
<!-- Generator: Adobe Illustrator 18.0.0, SVG Export Plug-In . SVG Version: 6.00 Build 0)  -->
<!DOCTYPE svg PUBLIC "-//W3C//DTD SVG 1.1//EN" "http://www.w3.org/Graphics/SVG/1.1/DTD/svg11.dtd">
<svg version="1.1" id="Capa_1" xmlns="http://www.w3.org/2000/svg" xmlns:xlink="http://www.w3.org/1999/xlink" x="0px" y="0px"
	 viewBox="0 0 422.26 422.26" style="enable-background:new 0 0 422.26 422.26;" xml:space="preserve">
<g id="XMLID_1_">
	<g>
		<path style="fill:#4D4D4D;" d="M397.313,372.051c2.33,5.28,2.47,11.16,0.38,16.55c-3.32,8.56-11.53,13.82-20.2,13.82
			c-2.6,0-5.24-0.47-7.8-1.47c-2.47-0.96-4.68-2.34-6.6-4.06c-5.65,9.01-13.85,16.13-23.79,20.52c-6.95,3.06-14.31,4.6-21.69,4.6
			c-6.57,0-13.15-1.22-19.45-3.67c-23.44-9.09-36.9-32.93-33.91-56.83c-18.92-9.43-36.75-19.88-53.12-31.12
			c-16.44,11.29-34.16,21.68-53.12,31.14c2.98,23.89-10.48,47.73-33.91,56.81c-6.37,2.47-12.93,3.64-19.38,3.64
			c-18.24,0-35.63-9.34-45.55-25.09c-1.92,1.71-4.14,3.1-6.61,4.06c-2.54,0.99-5.18,1.48-7.83,1.48c-2.96,0-5.93-0.62-8.72-1.86
			c-5.29-2.33-9.35-6.58-11.44-11.97c-2.09-5.39-1.96-11.27,0.37-16.55c1.17-2.64,2.82-4.98,4.85-6.92
			c2.02-1.94,4.44-3.48,7.13-4.53c2.13-0.82,4.34-1.29,6.56-1.42l-2.41-6.21c-1.49-3.86,0.42-8.21,4.29-9.7
			c3.86-1.5,8.2,0.42,9.7,4.28l1.36,3.5l72.35-28.06l-6.14-15.93c-1.49-3.87,0.43-8.21,4.3-9.7c3.86-1.49,8.2,0.44,9.69,4.3
			l3.81,9.88c7.81-4.37,16.62-9.97,25.91-17.11c-28.94-27.28-52.14-58.52-69-92.98c-14.49-29.59-24.36-61.59-29.34-95.11
			c-8.48-57.1,0.09-98.42,0.46-100.15c0.7-3.33,3.56-5.76,6.96-5.93c3.4-0.17,6.48,1.97,7.52,5.21
			c17.33,54.32,65.53,76.47,66.02,76.68c2.45,1.1,4.14,3.43,4.4,6.11c6.41,64.11,25.83,118.08,57.76,160.59
			c31.93-42.54,51.37-96.55,57.77-160.59c0.27-2.69,1.96-5.02,4.42-6.11c0.47-0.22,48.67-22.36,66.01-76.68
			c1.03-3.24,4.12-5.38,7.51-5.21c3.4,0.17,6.26,2.6,6.97,5.93c0.51,2.42,12.42,60.12-6.22,133.43
			c-10.95,43.08-30.26,82.53-57.38,117.27c-10.29,13.19-21.73,25.7-34.27,37.5c8.39,6.46,17.06,12.19,25.9,17.13l3.8-9.86
			c1.49-3.86,5.83-5.79,9.7-4.3c3.86,1.49,5.79,5.83,4.3,9.7l-6.15,15.93l72.35,28.06l1.36-3.5c1.5-3.86,5.84-5.78,9.71-4.28
			c3.86,1.49,5.78,5.84,4.28,9.7l-2.41,6.21c2.2,0.13,4.41,0.59,6.57,1.42C390.733,362.691,394.983,366.761,397.313,372.051z
			 M383.703,383.181c0.64-1.65,0.6-3.46-0.11-5.08c-0.72-1.62-2.02-2.87-3.68-3.51c-0.78-0.3-1.59-0.45-2.39-0.45
			c-2.66,0-5.18,1.61-6.19,4.24c-0.65,1.65-0.6,3.46,0.11,5.08c0.72,1.62,2.02,2.87,3.67,3.51
			C378.523,388.291,382.383,386.591,383.703,383.181z M354.273,380.871l6.14-15.83l-13.55-5.26l-6.14,15.84L354.273,380.871z
			 M346.583,393.981l-67.74-26.27c-0.19,15.71,9.26,30.64,24.74,36.65c9.66,3.74,20.19,3.5,29.66-0.68
			C338.423,401.401,342.933,398.081,346.583,393.981z M333.043,135.921c10.35-40.71,10.76-76.73,9.26-99.84
			c-19.33,34.52-48.32,52.21-58.92,57.8c-7.21,66.14-28.05,122.05-61.96,166.24c-25.98,33.86-54.45,54.04-75.54,65.54l1.37,3.55
			l6.79,17.52c51.59-26.14,93.4-59.44,124.34-99.07C304.213,214.571,322.603,176.981,333.043,135.921z M326.743,370.191l6.14-15.83
			l-17.27-6.69l-6.14,15.83L326.743,370.191z M295.493,358.081l6.14-15.84l-13.55-5.25l-6.11,15.84L295.493,358.081z
			 M274.783,329.801l1.6-4.14c-10.9-5.95-21.55-13-31.77-21.06c-6.56,5.67-13.4,11.16-20.49,16.47
			c13.75,9.17,28.52,17.77,44.09,25.66L274.783,329.801z M178.013,284.801c7.75-6.83,15.67-14.74,23.46-23.87
			c-34.29-44.29-55.33-100.43-62.6-167.04c-10.59-5.6-39.58-23.28-58.91-57.79c-1.11,17.02-1.18,41.02,2.97,68.62
			c4.8,31.91,14.23,62.35,28.05,90.48C127.303,228.441,149.843,258.551,178.013,284.801z M118.673,404.361
			c15.49-6.01,24.93-20.94,24.75-36.65l-67.73,26.26C86.143,405.701,103.183,410.361,118.673,404.361z M140.283,352.831l-6.11-15.84
			l-13.55,5.25l6.14,15.84L140.283,352.831z M112.783,363.501l-6.14-15.83l-17.26,6.69l6.14,15.83L112.783,363.501z M81.533,375.621
			l-6.14-15.84l-13.55,5.26l6.14,15.83L81.533,375.621z M51.383,380.781c0-0.81-0.15-1.62-0.45-2.4c-0.64-1.65-1.89-2.96-3.51-3.67
			c-0.86-0.38-1.77-0.57-2.68-0.57c-0.81,0-1.62,0.15-2.4,0.45c-1.65,0.64-2.96,1.89-3.67,3.51c-0.72,1.62-0.76,3.43-0.12,5.08
			c0.64,1.65,1.89,2.96,3.51,3.67c1.62,0.72,3.43,0.76,5.08,0.12c1.65-0.64,2.96-1.89,3.67-3.51
			C51.193,382.601,51.383,381.691,51.383,380.781z"/>
		<path style="fill:#E5D665;" d="M383.593,378.101c0.71,1.62,0.75,3.43,0.11,5.08c-1.32,3.41-5.18,5.11-8.59,3.79
			c-1.65-0.64-2.95-1.89-3.67-3.51c-0.71-1.62-0.76-3.43-0.11-5.08c1.01-2.63,3.53-4.24,6.19-4.24c0.8,0,1.61,0.15,2.39,0.45
			C381.573,375.231,382.873,376.481,383.593,378.101z"/>
		<polygon style="fill:#5B79CE;" points="360.413,365.041 354.273,380.871 340.723,375.621 346.863,359.781 		"/>
		<path style="fill:#E6E6E6;" d="M342.303,36.081c1.5,23.11,1.09,59.13-9.26,99.84c-10.44,41.06-28.83,78.65-54.66,111.74
			c-30.94,39.63-72.75,72.93-124.34,99.07l-6.79-17.52l-1.37-3.55c21.09-11.5,49.56-31.68,75.54-65.54
			c33.91-44.19,54.75-100.1,61.96-166.24C293.983,88.291,322.973,70.601,342.303,36.081z"/>
		<polygon style="fill:#5B79CE;" points="332.883,354.361 326.743,370.191 309.473,363.501 315.613,347.671 		"/>
		<polygon style="fill:#5B79CE;" points="301.633,342.241 295.493,358.081 281.973,352.831 288.083,336.991 		"/>
		<path style="fill:#CCCCCC;" d="M276.383,325.661l-1.6,4.14l-6.57,16.93c-15.57-7.89-30.34-16.49-44.09-25.66
			c7.09-5.31,13.93-10.8,20.49-16.47C254.833,312.661,265.483,319.711,276.383,325.661z"/>
		<path style="fill:#CCCCCC;" d="M201.473,260.931c-7.79,9.13-15.71,17.04-23.46,23.87c-28.17-26.25-50.71-56.36-67.03-89.6
			c-13.82-28.13-23.25-58.57-28.05-90.48c-4.15-27.6-4.08-51.6-2.97-68.62c19.33,34.51,48.32,52.19,58.91,57.79
			C146.143,160.501,167.183,216.641,201.473,260.931z"/>
		<polygon style="fill:#77CE6F;" points="134.173,336.991 140.283,352.831 126.763,358.081 120.623,342.241 		"/>
		<polygon style="fill:#77CE6F;" points="106.643,347.671 112.783,363.501 95.523,370.191 89.383,354.361 		"/>
		<polygon style="fill:#77CE6F;" points="75.393,359.781 81.533,375.621 67.983,380.871 61.843,365.041 		"/>
		<path style="fill:#E5D665;" d="M50.933,378.381c0.3,0.78,0.45,1.59,0.45,2.4c0,0.91-0.19,1.82-0.57,2.68
			c-0.71,1.62-2.02,2.87-3.67,3.51c-1.65,0.64-3.46,0.6-5.08-0.12c-1.62-0.71-2.87-2.02-3.51-3.67c-0.64-1.65-0.6-3.46,0.12-5.08
			c0.71-1.62,2.02-2.87,3.67-3.51c0.78-0.3,1.59-0.45,2.4-0.45c0.91,0,1.82,0.19,2.68,0.57
			C49.043,375.421,50.293,376.731,50.933,378.381z"/>
	</g>
	<g>
	</g>
</g>
<g>
</g>
<g>
</g>
<g>
</g>
<g>
</g>
<g>
</g>
<g>
</g>
<g>
</g>
<g>
</g>
<g>
</g>
<g>
</g>
<g>
</g>
<g>
</g>
<g>
</g>
<g>
</g>
<g>
</g>
</svg>
