<?xml version="1.0" encoding="iso-8859-1"?>
<!-- Generator: Adobe Illustrator 18.0.0, SVG Export Plug-In . SVG Version: 6.00 Build 0)  -->
<!DOCTYPE svg PUBLIC "-//W3C//DTD SVG 1.1//EN" "http://www.w3.org/Graphics/SVG/1.1/DTD/svg11.dtd">
<svg version="1.1" id="Capa_1" xmlns="http://www.w3.org/2000/svg" xmlns:xlink="http://www.w3.org/1999/xlink" x="0px" y="0px"
	 viewBox="0 0 463.816 463.816" style="enable-background:new 0 0 463.816 463.816;" xml:space="preserve">
<g>
	<g id="XMLID_39_">
		<g>
			<rect x="415.111" y="184.187" style="fill:#5D9B54;" width="33.45" height="95.44"/>
			<path style="fill:#E0974F;" d="M245.021,241.267h23.77c-3.76,36.64-34.74,65.31-72.28,65.31c-25.58,0-44.45-5.77-56.09-17.15
				c-9.14-8.94-14.07-21.66-14.64-37.8c-0.14-4.03-3.45-7.23-7.49-7.23h-9.48v-19.83h43.27v7.25c0,15.21,12.37,27.58,27.58,27.58
				h40.85C232.031,259.397,241.801,251.747,245.021,241.267z M232.991,277.067c1-6.58-6.83-11.05-12.03-7.02
				c-2.63,2.04-3.6,5.72-2.32,8.79c1.16,2.77,3.92,4.63,6.93,4.63C229.241,283.467,232.431,280.697,232.991,277.067z
				 M210.511,277.067c0.95-6.61-6.93-11.15-12.14-6.92c-2.45,1.99-3.39,5.38-2.33,8.35c1.05,2.94,3.93,4.97,7.05,4.97
				C206.751,283.467,209.991,280.697,210.511,277.067z M187.891,277.797c0.77-3.03-0.51-6.34-3.11-8.07
				c-2.76-1.84-6.51-1.61-9.04,0.54c-2.54,2.16-3.32,5.89-1.9,8.9c1.22,2.6,3.91,4.3,6.78,4.3
				C184.011,283.467,187.061,281.087,187.891,277.797z M165.461,277.617c1.5-6.54-6.06-11.57-11.54-7.84
				c-2.84,1.93-4.01,5.69-2.77,8.89c1.12,2.86,3.93,4.8,7,4.8C161.621,283.467,164.681,280.987,165.461,277.617z"/>
			<path style="fill:#77CE6F;" d="M400.111,255.847v8.95c-13.32,0.88-26.26,5.75-36.83,13.98c-11.7,9.13-20.14,22.07-23.76,36.45
				c-5.83,23.11-26.54,39.25-50.37,39.25H67.191c-28.64,0-51.94-23.3-51.94-51.94v-141.26c0-28.64,23.3-51.94,51.94-51.94h221.96
				c11.51,0,22.85,3.9,31.93,10.96c9.08,7.08,15.62,17.13,18.44,28.29c7.15,28.37,31.72,48.58,60.59,50.42v8.95
				c-17.88-1-34.8-8.26-47.83-20.59c-3.02-2.84-7.76-2.71-10.61,0.3c-2.84,3.01-2.71,7.76,0.3,10.6
				c15.82,14.97,36.41,23.69,58.14,24.71v17.85c-19.28,0.9-37.4,7.72-52.5,19.8c-15.59,12.48-26.41,29.34-31.3,48.75
				c-3.14,12.46-14.31,21.16-27.16,21.16h-177.91c-4.14,0-7.5,3.36-7.5,7.5c0,4.14,3.36,7.5,7.5,7.5h177.91
				c19.73,0,36.88-13.36,41.7-32.49C338.941,280.947,367.241,257.717,400.111,255.847z M336.451,181.127
				c3.57-2.11,4.75-6.71,2.65-10.27c-3.69-6.25-6.46-13.01-8.25-20.09c-4.82-19.13-21.97-32.49-41.7-32.49h-24.92
				c-4.14,0-7.5,3.35-7.5,7.5c0,4.14,3.36,7.5,7.5,7.5h24.92c12.85,0,24.02,8.7,27.16,21.16c2.13,8.47,5.45,16.56,9.87,24.04
				c1.4,2.37,3.9,3.69,6.47,3.69C333.941,182.167,335.261,181.827,336.451,181.127z M284.181,233.767c0-4.15-3.36-7.5-7.5-7.5
				h-38.04c-4.14,0-7.5,3.35-7.5,7.5c0,5.86-4.77,10.63-10.63,10.63h-16.14v-40.23h33.42c4.15,0,7.5-3.36,7.5-7.5s-3.35-7.5-7.5-7.5
				h-33.42v-9.94h16.89c4.14,0,7.5-3.35,7.5-7.5c0-4.14-3.36-7.5-7.5-7.5h-16.89v-14.49c0-4.14-3.36-7.5-7.5-7.5s-7.5,3.36-7.5,7.5
				v14.49h-16.89c-4.14,0-7.5,3.36-7.5,7.5c0,4.15,3.36,7.5,7.5,7.5h16.89v9.94h-33.42c-4.14,0-7.5,3.36-7.5,7.5s3.36,7.5,7.5,7.5
				h33.42v40.23h-9.71c-6.94,0-12.58-5.64-12.58-12.58v-14.75c0-4.15-3.36-7.5-7.5-7.5h-58.27c-4.14,0-7.5,3.35-7.5,7.5v34.83
				c0,4.14,3.36,7.5,7.5,7.5h10c1.86,16.78,8.11,30.47,18.63,40.76c14.53,14.21,36.93,21.42,66.57,21.42
				C244.851,321.577,284.181,282.187,284.181,233.767z M244.741,125.777c0-4.15-3.36-7.5-7.5-7.5h-19.5c-4.14,0-7.5,3.35-7.5,7.5
				c0,4.14,3.36,7.5,7.5,7.5h19.5C241.381,133.277,244.741,129.917,244.741,125.777z M204.241,125.777c0-4.15-3.36-7.5-7.5-7.5
				H67.191c-23.71,0-43.01,19.29-43.01,43v141.26c0,23.71,19.3,43,43.01,43h15.55c4.14,0,7.5-3.36,7.5-7.5c0-4.14-3.36-7.5-7.5-7.5
				h-15.55c-15.44,0-28.01-12.56-28.01-28v-141.26c0-15.44,12.57-28,28.01-28h129.55
				C200.881,133.277,204.241,129.917,204.241,125.777z"/>
			<path style="fill:#4D4D4D;" d="M463.561,176.687v110.44c0,4.14-3.35,7.5-7.5,7.5h-48.45c-4.14,0-7.5-3.36-7.5-7.5v-7.3
				c-9.99,0.85-19.66,4.6-27.61,10.79c-9.08,7.08-15.63,17.12-18.44,28.28c-7.5,29.78-34.2,50.58-64.91,50.58H67.191
				c-36.91,0-66.94-30.03-66.94-66.94v-141.26c0-36.91,30.03-66.94,66.94-66.94h221.96c14.83,0,29.45,5.02,41.15,14.13
				c11.7,9.12,20.14,22.07,23.76,36.45c5.47,21.7,24.07,37.25,46.05,39.06v-7.29c0-4.15,3.36-7.5,7.5-7.5h48.45
				C460.211,169.187,463.561,172.537,463.561,176.687z M448.561,279.627v-95.44h-33.45v95.44H448.561z M400.111,264.797v-8.95
				c-32.87,1.87-61.17,25.1-69.26,57.2c-4.82,19.13-21.97,32.49-41.7,32.49h-177.91c-4.14,0-7.5-3.36-7.5-7.5
				c0-4.14,3.36-7.5,7.5-7.5h177.91c12.85,0,24.02-8.7,27.16-21.16c4.89-19.41,15.71-36.27,31.3-48.75
				c15.1-12.08,33.22-18.9,52.5-19.8v-17.85c-21.73-1.02-42.32-9.74-58.14-24.71c-3.01-2.84-3.14-7.59-0.3-10.6
				c2.85-3.01,7.59-3.14,10.61-0.3c13.03,12.33,29.95,19.59,47.83,20.59v-8.95c-28.87-1.84-53.44-22.05-60.59-50.42
				c-2.82-11.16-9.36-21.21-18.44-28.29c-9.08-7.06-20.42-10.96-31.93-10.96H67.191c-28.64,0-51.94,23.3-51.94,51.94v141.26
				c0,28.64,23.3,51.94,51.94,51.94h221.96c23.83,0,44.54-16.14,50.37-39.25c3.62-14.38,12.06-27.32,23.76-36.45
				C373.851,270.547,386.791,265.677,400.111,264.797z"/>
			<path style="fill:#4D4D4D;" d="M339.101,170.857c2.1,3.56,0.92,8.16-2.65,10.27c-1.19,0.7-2.51,1.04-3.8,1.04
				c-2.57,0-5.07-1.32-6.47-3.69c-4.42-7.48-7.74-15.57-9.87-24.04c-3.14-12.46-14.31-21.16-27.16-21.16h-24.92
				c-4.14,0-7.5-3.36-7.5-7.5c0-4.15,3.36-7.5,7.5-7.5h24.92c19.73,0,36.88,13.36,41.7,32.49
				C332.641,157.847,335.411,164.607,339.101,170.857z"/>
			<path style="fill:#4D4D4D;" d="M276.681,226.267c4.14,0,7.5,3.35,7.5,7.5c0,48.42-39.33,87.81-87.67,87.81
				c-29.64,0-52.04-7.21-66.57-21.42c-10.52-10.29-16.77-23.98-18.63-40.76h-10c-4.14,0-7.5-3.36-7.5-7.5v-34.83
				c0-4.15,3.36-7.5,7.5-7.5h58.27c4.14,0,7.5,3.35,7.5,7.5v14.75c0,6.94,5.64,12.58,12.58,12.58h9.71v-40.23h-33.42
				c-4.14,0-7.5-3.36-7.5-7.5s3.36-7.5,7.5-7.5h33.42v-9.94h-16.89c-4.14,0-7.5-3.35-7.5-7.5c0-4.14,3.36-7.5,7.5-7.5h16.89v-14.49
				c0-4.14,3.36-7.5,7.5-7.5s7.5,3.36,7.5,7.5v14.49h16.89c4.14,0,7.5,3.36,7.5,7.5c0,4.15-3.36,7.5-7.5,7.5h-16.89v9.94h33.42
				c4.15,0,7.5,3.36,7.5,7.5s-3.35,7.5-7.5,7.5h-33.42v40.23h16.14c5.86,0,10.63-4.77,10.63-10.63c0-4.15,3.36-7.5,7.5-7.5H276.681z
				 M268.791,241.267h-23.77c-3.22,10.48-12.99,18.13-24.51,18.13h-40.85c-15.21,0-27.58-12.37-27.58-27.58v-7.25h-43.27v19.83h9.48
				c4.04,0,7.35,3.2,7.49,7.23c0.57,16.14,5.5,28.86,14.64,37.8c11.64,11.38,30.51,17.15,56.09,17.15
				C234.051,306.577,265.031,277.907,268.791,241.267z"/>
			<path style="fill:#4D4D4D;" d="M237.241,118.277c4.14,0,7.5,3.35,7.5,7.5c0,4.14-3.36,7.5-7.5,7.5h-19.5
				c-4.14,0-7.5-3.36-7.5-7.5c0-4.15,3.36-7.5,7.5-7.5H237.241z"/>
			<path style="fill:#4D4D4D;" d="M220.961,270.047c5.2-4.03,13.03,0.44,12.03,7.02c-0.56,3.63-3.75,6.4-7.42,6.4
				c-3.01,0-5.77-1.86-6.93-4.63C217.361,275.767,218.331,272.087,220.961,270.047z"/>
			<path style="fill:#4D4D4D;" d="M198.371,270.147c5.21-4.23,13.09,0.31,12.14,6.92c-0.52,3.63-3.76,6.4-7.42,6.4
				c-3.12,0-6-2.03-7.05-4.97C194.981,275.527,195.921,272.137,198.371,270.147z"/>
			<path style="fill:#4D4D4D;" d="M196.741,118.277c4.14,0,7.5,3.35,7.5,7.5c0,4.14-3.36,7.5-7.5,7.5H67.191
				c-15.44,0-28.01,12.56-28.01,28v141.26c0,15.44,12.57,28,28.01,28h15.55c4.14,0,7.5,3.36,7.5,7.5c0,4.14-3.36,7.5-7.5,7.5h-15.55
				c-23.71,0-43.01-19.29-43.01-43v-141.26c0-23.71,19.3-43,43.01-43H196.741z"/>
			<path style="fill:#4D4D4D;" d="M184.781,269.727c2.6,1.73,3.88,5.04,3.11,8.07c-0.83,3.29-3.88,5.67-7.27,5.67
				c-2.87,0-5.56-1.7-6.78-4.3c-1.42-3.01-0.64-6.74,1.9-8.9C178.271,268.117,182.021,267.887,184.781,269.727z"/>
			<path style="fill:#4D4D4D;" d="M153.921,269.777c5.48-3.73,13.04,1.3,11.54,7.84c-0.78,3.37-3.84,5.85-7.31,5.85
				c-3.07,0-5.88-1.94-7-4.8C149.911,275.467,151.081,271.707,153.921,269.777z"/>
		</g>
		<g>
		</g>
	</g>
</g>
<g>
</g>
<g>
</g>
<g>
</g>
<g>
</g>
<g>
</g>
<g>
</g>
<g>
</g>
<g>
</g>
<g>
</g>
<g>
</g>
<g>
</g>
<g>
</g>
<g>
</g>
<g>
</g>
<g>
</g>
</svg>
