<?xml version="1.0" encoding="iso-8859-1"?>
<!-- Generator: Adobe Illustrator 18.0.0, SVG Export Plug-In . SVG Version: 6.00 Build 0)  -->
<!DOCTYPE svg PUBLIC "-//W3C//DTD SVG 1.1//EN" "http://www.w3.org/Graphics/SVG/1.1/DTD/svg11.dtd">
<svg version="1.1" id="Capa_1" xmlns="http://www.w3.org/2000/svg" xmlns:xlink="http://www.w3.org/1999/xlink" x="0px" y="0px"
	 viewBox="0 0 462.554 462.554" style="enable-background:new 0 0 462.554 462.554;" xml:space="preserve">
<g>
	<g id="XMLID_14_">
		<g>
			<path style="fill:#E6E6E6;" d="M281.189,128.146l-2.05,2.61c-3.75,4.78-9.38,7.52-15.46,7.52c-6.07,0-11.71-2.74-15.46-7.52
				l-2.05-2.61H281.189z"/>
			<path style="fill:#E6E6E6;" d="M215.339,128.146l-2.04,2.61c-3.75,4.78-9.39,7.52-15.47,7.52c-6.07,0-11.71-2.74-15.46-7.52
				l-2.04-2.61H215.339z"/>
			<path style="fill:#E6E6E6;" d="M149.499,194.156l-2.04,2.6c-3.75,4.78-9.39,7.52-15.47,7.52c-6.07,0-11.71-2.74-15.46-7.52
				l-2.04-2.6H149.499z"/>
			<path style="fill:#E6E6E6;" d="M215.339,194.156l-2.04,2.6c-3.75,4.78-9.39,7.53-15.47,7.53c-6.07,0-11.71-2.75-15.46-7.53
				l-2.04-2.6H215.339z"/>
			<path style="fill:#E6E6E6;" d="M281.189,194.156l-2.05,2.6c-3.75,4.79-9.38,7.53-15.46,7.53c-6.07,0-11.71-2.74-15.46-7.53
				l-2.05-2.6H281.189z"/>
			<path style="fill:#E6E6E6;" d="M347.039,194.156l-2.05,2.61c-3.75,4.78-9.38,7.52-15.46,7.52c-6.07,0-11.71-2.74-15.46-7.52
				l-2.05-2.61H347.039z"/>
			<polygon style="fill:#E0974F;" points="250.589,51.696 247.879,68.166 213.659,68.166 210.939,51.696 			"/>
			<path style="fill:#E5D665;" d="M282.459,360.376c4.01,0,7.27,3.26,7.27,7.27c0,4-3.26,7.27-7.27,7.27
				c-4.01,0-7.27-3.27-7.27-7.27C275.189,363.636,278.449,360.376,282.459,360.376z"/>
			<path style="fill:#E5D665;" d="M230.769,360.376c4.01,0,7.27,3.26,7.27,7.27c0,4-3.26,7.27-7.27,7.27
				c-4.01,0-7.27-3.27-7.27-7.27C223.499,363.636,226.759,360.376,230.769,360.376z"/>
			<path style="fill:#E5D665;" d="M179.079,360.376c4.01,0,7.27,3.26,7.27,7.27c0,4-3.26,7.27-7.27,7.27
				c-4.01,0-7.27-3.27-7.27-7.27C171.809,363.636,175.069,360.376,179.079,360.376z"/>
			<path style="fill:#AD723D;" d="M103.479,422.756l-4.01,8.75h-25.09v-38.45h6.99C86.809,403.696,94.039,413.756,103.479,422.756z"
				/>
			<rect x="47.649" y="268.786" style="fill:#E0974F;" width="121.3" height="15.73"/>
			<path style="fill:#E0974F;" d="M320.859,318.356l61.31-14.24c-4.92,79.79-71.27,143.19-152.12,143.19
				c-92.57,0-142.35-36.68-148.1-109.04h71.79c4.14,0,7.5-3.35,7.5-7.5c0-4.14-3.36-7.5-7.5-7.5H47.649v-23.75h121.3v10.15
				c0,15.77,12.83,28.6,28.61,28.6h97.99C307.799,338.266,318.089,329.766,320.859,318.356z M304.729,367.646
				c0-12.28-9.99-22.27-22.27-22.27s-22.27,9.99-22.27,22.27s9.99,22.27,22.27,22.27S304.729,379.926,304.729,367.646z
				 M253.039,367.646c0-12.28-9.99-22.27-22.27-22.27c-12.28,0-22.27,9.99-22.27,22.27s9.99,22.27,22.27,22.27
				C243.049,389.916,253.039,379.926,253.039,367.646z M201.349,367.646c0-12.28-9.99-22.27-22.27-22.27s-22.27,9.99-22.27,22.27
				s9.99,22.27,22.27,22.27S201.349,379.926,201.349,367.646z"/>
			<path style="fill:#4D4D4D;" d="M447.639,281.196c0.94,4.03-1.57,8.06-5.61,9l-44.69,10.39
				c-3.16,89.71-76.98,161.72-167.29,161.72c-53.19,0-89.77-11.71-114.62-29.63l-4.32,9.45c-1.22,2.67-3.89,4.38-6.82,4.38h-37.41
				c-4.14,0-7.5-3.36-7.5-7.5v-53.45c0-4.14,3.36-7.5,7.5-7.5h8.06c-4.63-13.08-7.06-26.63-8.03-39.79h-26.76
				c-4.14,0-7.5-3.35-7.5-7.5v-31.25h-10.43c-4.14,0-7.5-3.36-7.5-7.5c0-4.14,3.36-7.5,7.5-7.5h10.43v-15.73h-10.43
				c-4.14,0-7.5-3.36-7.5-7.5c0-4.14,3.36-7.5,7.5-7.5h154.23c4.14,0,7.5,3.36,7.5,7.5v48.38c0,7.5,6.1,13.6,13.61,13.6h25.71
				v-115.12c-6.55,7.1-15.66,11.14-25.44,11.14c-10.71,0-20.65-4.84-27.26-13.27l-5.66-7.21l-5.65,7.21
				c-6.61,8.43-16.55,13.26-27.27,13.26c-10.71,0-20.65-4.83-27.26-13.26l-9.3-11.86h-10.43c-4.15,0-7.5-3.36-7.5-7.5
				c0-4.15,3.35-7.5,7.5-7.5h138.27v-37.01c-6.55,7.1-15.66,11.13-25.44,11.13c-10.71,0-20.65-4.83-27.26-13.26l-9.31-11.87h-11.66
				c-4.14,0-7.5-3.35-7.5-7.5c0-4.14,3.36-7.5,7.5-7.5h73.67v-29.98h-15.97c-3.67,0-6.8-2.66-7.4-6.28l-5.19-31.47
				c-0.36-2.18,0.25-4.4,1.68-6.08c1.42-1.67,3.51-2.64,5.72-2.64h21.16V7.746c0-4.14,3.36-7.5,7.5-7.5c4.14,0,7.5,3.36,7.5,7.5
				v28.95h21.16c2.2,0,4.3,0.97,5.72,2.64c1.43,1.68,2.04,3.9,1.68,6.08l-5.19,31.47c-0.6,3.62-3.73,6.28-7.4,6.28h-15.97v29.98
				h73.67c4.14,0,7.5,3.36,7.5,7.5c0,4.15-3.36,7.5-7.5,7.5h-11.69l-9.3,11.87c-6.62,8.43-16.55,13.26-27.27,13.26
				c-9.76,0-18.87-4.02-25.41-11.11v36.99h138.27c4.14,0,7.5,3.35,7.5,7.5c0,4.14-3.36,7.5-7.5,7.5h-10.43l-9.31,11.87
				c-6.62,8.43-16.55,13.26-27.27,13.26c-10.71,0-20.65-4.83-27.26-13.26l-5.66-7.22l-5.66,7.21c-6.62,8.43-16.55,13.27-27.27,13.27
				c-9.76,0-18.87-4.03-25.41-11.11v115.09h57.28c6.08,0,11.03-4.95,11.03-11.03c0-3.49,2.41-6.52,5.81-7.31l126.25-29.34
				C442.669,274.646,446.699,277.156,447.639,281.196z M382.169,304.116l-61.31,14.24c-2.77,11.41-13.06,19.91-25.31,19.91h-97.99
				c-15.78,0-28.61-12.83-28.61-28.6v-10.15h-121.3v23.75h106.09c4.14,0,7.5,3.36,7.5,7.5c0,4.15-3.36,7.5-7.5,7.5h-71.79
				c5.75,72.36,55.53,109.04,148.1,109.04C310.899,447.306,377.249,383.906,382.169,304.116z M344.989,196.766l2.05-2.61h-35.02
				l2.05,2.61c3.75,4.78,9.39,7.52,15.46,7.52C335.609,204.286,341.239,201.546,344.989,196.766z M279.139,130.756l2.05-2.61h-35.02
				l2.05,2.61c3.75,4.78,9.39,7.52,15.46,7.52C269.759,138.276,275.389,135.536,279.139,130.756z M279.139,196.756l2.05-2.6h-35.02
				l2.05,2.6c3.75,4.79,9.39,7.53,15.46,7.53C269.759,204.286,275.389,201.546,279.139,196.756z M247.879,68.166l2.71-16.47h-39.65
				l2.72,16.47H247.879z M213.299,130.756l2.04-2.61h-35.01l2.04,2.61c3.75,4.78,9.39,7.52,15.46,7.52
				C203.909,138.276,209.549,135.536,213.299,130.756z M213.299,196.756l2.04-2.6h-35.01l2.04,2.6c3.75,4.78,9.39,7.53,15.46,7.53
				C203.909,204.286,209.549,201.536,213.299,196.756z M168.949,284.516v-15.73h-121.3v15.73H168.949z M147.459,196.756l2.04-2.6
				h-35.01l2.04,2.6c3.75,4.78,9.39,7.52,15.46,7.52C138.069,204.276,143.709,201.536,147.459,196.756z M99.469,431.506l4.01-8.75
				c-9.44-9-16.67-19.06-22.11-29.7h-6.99v38.45H99.469z"/>
			<path style="fill:#4D4D4D;" d="M282.459,345.376c12.28,0,22.27,9.99,22.27,22.27s-9.99,22.27-22.27,22.27
				s-22.27-9.99-22.27-22.27S270.179,345.376,282.459,345.376z M289.729,367.646c0-4.01-3.26-7.27-7.27-7.27
				c-4.01,0-7.27,3.26-7.27,7.27c0,4,3.26,7.27,7.27,7.27C286.469,374.916,289.729,371.646,289.729,367.646z"/>
			<path style="fill:#4D4D4D;" d="M230.769,345.376c12.28,0,22.27,9.99,22.27,22.27s-9.99,22.27-22.27,22.27
				c-12.28,0-22.27-9.99-22.27-22.27S218.489,345.376,230.769,345.376z M238.039,367.646c0-4.01-3.26-7.27-7.27-7.27
				c-4.01,0-7.27,3.26-7.27,7.27c0,4,3.26,7.27,7.27,7.27C234.779,374.916,238.039,371.646,238.039,367.646z"/>
			<path style="fill:#4D4D4D;" d="M179.079,345.376c12.28,0,22.27,9.99,22.27,22.27s-9.99,22.27-22.27,22.27
				s-22.27-9.99-22.27-22.27S166.799,345.376,179.079,345.376z M186.349,367.646c0-4.01-3.26-7.27-7.27-7.27
				c-4.01,0-7.27,3.26-7.27,7.27c0,4,3.26,7.27,7.27,7.27C183.089,374.916,186.349,371.646,186.349,367.646z"/>
		</g>
		<g>
		</g>
	</g>
</g>
<g>
</g>
<g>
</g>
<g>
</g>
<g>
</g>
<g>
</g>
<g>
</g>
<g>
</g>
<g>
</g>
<g>
</g>
<g>
</g>
<g>
</g>
<g>
</g>
<g>
</g>
<g>
</g>
<g>
</g>
</svg>
