<?xml version="1.0" encoding="iso-8859-1"?>
<!-- Generator: Adobe Illustrator 18.0.0, SVG Export Plug-In . SVG Version: 6.00 Build 0)  -->
<!DOCTYPE svg PUBLIC "-//W3C//DTD SVG 1.1//EN" "http://www.w3.org/Graphics/SVG/1.1/DTD/svg11.dtd">
<svg version="1.1" id="Capa_1" xmlns="http://www.w3.org/2000/svg" xmlns:xlink="http://www.w3.org/1999/xlink" x="0px" y="0px"
	 viewBox="0 0 456.68 456.68" style="enable-background:new 0 0 456.68 456.68;" xml:space="preserve">
<g>
	<g id="XMLID_4_">
		<g>
			<path style="fill:#B3B3B3;" d="M407.363,364.789c0,7.47-3.2,14.61-8.8,19.59c-1.59,1.43-2.51,3.46-2.51,5.6
				c0,2.14,0.92,4.18,2.51,5.6c5.6,4.99,8.8,12.13,8.8,19.6c0,14.48-11.77,26.25-26.25,26.25c-14.47,0-26.24-11.77-26.24-26.25
				c0-2.06,0.25-4.14,0.74-6.18c0.54-2.24,0.03-4.6-1.39-6.4c-1.43-1.81-3.6-2.87-5.9-2.87h-239.97c-2.3,0-4.47,1.06-5.89,2.87
				c-1.42,1.8-1.94,4.16-1.4,6.4c0.5,2.04,0.75,4.12,0.75,6.18c0,14.48-11.78,26.25-26.25,26.25s-26.25-11.77-26.25-26.25
				c0-7.47,3.21-14.61,8.8-19.6c1.6-1.42,2.51-3.46,2.51-5.6c0-2.14-0.91-4.17-2.51-5.6c-5.59-4.98-8.8-12.12-8.8-19.59
				c0-14.48,11.78-26.25,26.25-26.25s26.25,11.77,26.25,26.25c0,2.06-0.25,4.14-0.75,6.18c-0.54,2.24-0.02,4.6,1.4,6.4
				c1.42,1.81,3.59,2.86,5.89,2.86h239.97c2.3,0,4.47-1.05,5.9-2.86c1.42-1.8,1.93-4.16,1.39-6.4c-0.49-2.04-0.74-4.12-0.74-6.18
				c0-14.48,11.77-26.25,26.24-26.25C395.593,338.539,407.363,350.309,407.363,364.789z"/>
			<path style="fill:#666666;" d="M347.293,197.059c0.85,2.88,0.53,5.92-0.9,8.57c-1.44,2.64-3.81,4.56-6.7,5.42
				c-6.18,1.83-12.49,2.74-18.76,2.74c-10.83,0-21.56-2.71-31.34-8.02c-13.23-7.19-23.38-18.42-29.16-32.09l41.57-12.3
				c17.61-5.21,36.18,4.88,41.39,22.49L347.293,197.059z"/>
			<path style="fill:#666666;" d="M239.173,234.679c0.33,0.57,0.45,1.12,0.45,1.6c0,0.69-0.24,1.26-0.45,1.61
				c-0.34,0.6-1.16,1.61-2.78,1.61h-16.11c-1.61,0-2.43-1.01-2.78-1.61c-0.35-0.6-0.81-1.81,0-3.21l10.84-18.77L239.173,234.679z"/>
			<path style="fill:#666666;" d="M154.683,161.379l41.56,12.3c-5.78,13.67-15.93,24.9-29.16,32.09
				c-15.45,8.39-33.24,10.26-50.1,5.28c-5.95-1.76-9.36-8.04-7.6-13.99l3.9-13.19c2.53-8.53,8.23-15.57,16.04-19.82
				c4.95-2.69,10.38-4.05,15.86-4.05C148.353,159.999,151.553,160.449,154.683,161.379z"/>
			<path style="fill:#B3B3B3;" d="M383.643,236.139c7.99,5.63,12.77,14.8,12.77,24.55c0,16.55-13.46,30-30.01,30
				c-9.32,0-17.96-4.23-23.69-11.61c-1.37-1.76-3.45-2.82-5.68-2.9c-2.19-0.07-4.37,0.85-5.85,2.51
				c-12.39,13.93-19.21,31.85-19.21,50.48v2.44h-25.87v-25.54c0-4.14-3.36-7.5-7.5-7.5c-4.14,0-7.5,3.36-7.5,7.5v25.54h-35.26
				v-25.54c0-4.14-3.36-7.5-7.5-7.5c-4.15,0-7.5,3.36-7.5,7.5v25.54h-35.27v-25.54c0-4.14-3.35-7.5-7.5-7.5
				c-4.14,0-7.5,3.36-7.5,7.5v25.54h-25.87v-2.44c0-18.63-6.82-36.55-19.21-50.48c-1.48-1.66-3.61-2.58-5.85-2.51
				c-2.23,0.08-4.3,1.14-5.67,2.9c-5.74,7.38-14.38,11.61-23.7,11.61c-16.54,0-30-13.45-30-30c0-9.75,4.77-18.93,12.77-24.55
				c1.99-1.41,3.18-3.69,3.18-6.13v-63.2c0-40.59,15.83-78.71,44.58-107.36c28.61-28.51,66.58-44.2,107.02-44.2
				c0.18,0,0.36,0,0.54,0c40.56-0.13,78.77,15.56,107.52,44.2c28.74,28.65,44.57,66.77,44.57,107.36v63.2
				C380.453,232.449,381.643,234.729,383.643,236.139z M360.083,138.659c3.99-1.1,6.34-5.22,5.25-9.22
				c-11.28-41.15-41.49-75.79-80.79-92.67c-3.81-1.63-8.22,0.13-9.86,3.93c-1.63,3.81,0.13,8.22,3.94,9.85
				c35.15,15.1,62.16,46.07,72.24,82.86c0.91,3.33,3.94,5.52,7.23,5.52C358.753,138.929,359.413,138.839,360.083,138.659z
				 M359.573,212.789c3.35-6.16,4.1-13.26,2.1-19.99l-3.9-13.19c-7.55-25.54-34.49-40.17-60.03-32.61l-49.16,14.54
				c-3.97,1.18-6.24,5.35-5.06,9.32c6.12,20.7,19.94,37.78,38.91,48.09c12.01,6.52,25.18,9.84,38.48,9.84
				c7.7,0,15.45-1.11,23.04-3.36c3.36-1,6.43-2.62,9.07-4.76C355.673,218.529,357.903,215.869,359.573,212.789z M261.633,36.699
				c0.79-4.07-1.87-8-5.94-8.79c-8.78-1.69-17.79-2.54-26.79-2.54h-1.13c-4.14,0-7.5,3.36-7.5,7.5c0,4.14,3.36,7.5,7.5,7.5h1.13
				c8.05,0,16.11,0.76,23.95,2.27c0.48,0.1,0.96,0.14,1.43,0.14C257.803,42.779,260.943,40.279,261.633,36.699z M252.173,245.389
				c3.29-5.7,3.29-12.51-0.01-18.21l-17.33-30.02c-1.34-2.32-3.81-3.75-6.49-3.75s-5.16,1.43-6.5,3.75l-17.33,30.02
				c-3.29,5.7-3.29,12.51,0,18.21c3.29,5.71,9.19,9.11,15.77,9.11h16.11C242.983,254.499,248.873,251.099,252.173,245.389z
				 M213.163,170.859c1.17-3.97-1.1-8.14-5.07-9.32l-49.16-14.54c-12.37-3.66-25.43-2.29-36.77,3.87
				c-11.34,6.16-19.6,16.37-23.26,28.74l-3.9,13.19c-4.11,13.89,3.84,28.52,17.73,32.63c7.59,2.25,15.33,3.36,23.04,3.36
				c13.3,0,26.46-3.32,38.47-9.84C193.213,208.639,207.033,191.559,213.163,170.859z"/>
			<path style="fill:#4D4D4D;" d="M422.363,364.789c0,9.17-3.07,18.03-8.6,25.19c5.53,7.17,8.6,16.03,8.6,25.2
				c0,22.75-18.5,41.25-41.25,41.25c-22.74,0-41.24-18.5-41.24-41.25c0-0.15,0-0.3,0-0.45h-223.06c0,0.15,0,0.3,0,0.45
				c0,22.75-18.51,41.25-41.25,41.25s-41.25-18.5-41.25-41.25c0-9.17,3.07-18.03,8.6-25.2c-5.53-7.16-8.6-16.02-8.6-25.19
				c0-22.75,18.51-41.25,41.25-41.25s41.25,18.5,41.25,41.25c0,0.14,0,0.29,0,0.44h223.06c0-0.15,0-0.3,0-0.44
				c0-22.75,18.5-41.25,41.24-41.25C403.863,323.539,422.363,342.039,422.363,364.789z M398.563,384.379
				c5.6-4.98,8.8-12.12,8.8-19.59c0-14.48-11.77-26.25-26.25-26.25c-14.47,0-26.24,11.77-26.24,26.25c0,2.06,0.25,4.14,0.74,6.18
				c0.54,2.24,0.03,4.6-1.39,6.4c-1.43,1.81-3.6,2.86-5.9,2.86h-239.97c-2.3,0-4.47-1.05-5.89-2.86c-1.42-1.8-1.94-4.16-1.4-6.4
				c0.5-2.04,0.75-4.12,0.75-6.18c0-14.48-11.78-26.25-26.25-26.25s-26.25,11.77-26.25,26.25c0,7.47,3.21,14.61,8.8,19.59
				c1.6,1.43,2.51,3.46,2.51,5.6c0,2.14-0.91,4.18-2.51,5.6c-5.59,4.99-8.8,12.13-8.8,19.6c0,14.48,11.78,26.25,26.25,26.25
				s26.25-11.77,26.25-26.25c0-2.06-0.25-4.14-0.75-6.18c-0.54-2.24-0.02-4.6,1.4-6.4c1.42-1.81,3.59-2.87,5.89-2.87h239.97
				c2.3,0,4.47,1.06,5.9,2.87c1.42,1.8,1.93,4.16,1.39,6.4c-0.49,2.04-0.74,4.12-0.74,6.18c0,14.48,11.77,26.25,26.24,26.25
				c14.48,0,26.25-11.77,26.25-26.25c0-7.47-3.2-14.61-8.8-19.6c-1.59-1.42-2.51-3.46-2.51-5.6
				C396.053,387.839,396.973,385.809,398.563,384.379z"/>
			<path style="fill:#4D4D4D;" d="M395.453,226.329c10.06,8.51,15.96,21.08,15.96,34.36c0,24.82-20.19,45-45.01,45
				c-10.79,0-20.97-3.78-29.01-10.59c-6.76,10.02-10.42,21.86-10.42,34.07v9.94c0,4.15-3.36,7.5-7.5,7.5h-182.27
				c-4.14,0-7.5-3.35-7.5-7.5v-9.94c0-12.21-3.65-24.05-10.41-34.07c-8.04,6.81-18.22,10.59-29.02,10.59c-24.82,0-45-20.18-45-45
				c0-13.28,5.89-25.85,15.95-34.36v-59.52c0-44.6,17.4-86.5,48.99-117.98c31.45-31.34,73.18-48.58,117.56-48.58
				c0.39,0,0.79,0,1.19,0c44.33,0,86.06,17.24,117.51,48.58c31.59,31.48,48.98,73.38,48.98,117.98V226.329z M396.413,260.689
				c0-9.75-4.78-18.92-12.77-24.55c-2-1.41-3.19-3.69-3.19-6.13v-63.2c0-40.59-15.83-78.71-44.57-107.36
				c-28.75-28.64-66.96-44.33-107.52-44.2c-0.18,0-0.36,0-0.54,0c-40.44,0-78.41,15.69-107.02,44.2
				c-28.75,28.65-44.58,66.77-44.58,107.36v63.2c0,2.44-1.19,4.72-3.18,6.13c-8,5.62-12.77,14.8-12.77,24.55c0,16.55,13.46,30,30,30
				c9.32,0,17.96-4.23,23.7-11.61c1.37-1.76,3.44-2.82,5.67-2.9c2.24-0.07,4.37,0.85,5.85,2.51c12.39,13.93,19.21,31.85,19.21,50.48
				v2.44h25.87v-25.54c0-4.14,3.36-7.5,7.5-7.5c4.15,0,7.5,3.36,7.5,7.5v25.54h35.27v-25.54c0-4.14,3.35-7.5,7.5-7.5
				c4.14,0,7.5,3.36,7.5,7.5v25.54h35.26v-25.54c0-4.14,3.36-7.5,7.5-7.5c4.14,0,7.5,3.36,7.5,7.5v25.54h25.87v-2.44
				c0-18.63,6.82-36.55,19.21-50.48c1.48-1.66,3.66-2.58,5.85-2.51c2.23,0.08,4.31,1.14,5.68,2.9c5.73,7.38,14.37,11.61,23.69,11.61
				C382.953,290.689,396.413,277.239,396.413,260.689z"/>
			<path style="fill:#4D4D4D;" d="M365.333,129.439c1.09,4-1.26,8.12-5.25,9.22c-0.67,0.18-1.33,0.27-1.99,0.27
				c-3.29,0-6.32-2.19-7.23-5.52c-10.08-36.79-37.09-67.76-72.24-82.86c-3.81-1.63-5.57-6.04-3.94-9.85
				c1.64-3.8,6.05-5.56,9.86-3.93C323.843,53.649,354.053,88.289,365.333,129.439z"/>
			<path style="fill:#4D4D4D;" d="M361.673,192.799c2,6.73,1.25,13.83-2.1,19.99c-1.67,3.08-3.9,5.74-6.55,7.88
				c-2.64,2.14-5.71,3.76-9.07,4.76c-7.59,2.25-15.34,3.36-23.04,3.36c-13.3,0-26.47-3.32-38.48-9.84
				c-18.97-10.31-32.79-27.39-38.91-48.09c-1.18-3.97,1.09-8.14,5.06-9.32l49.16-14.54c25.54-7.56,52.48,7.07,60.03,32.61
				L361.673,192.799z M346.393,205.629c1.43-2.65,1.75-5.69,0.9-8.57l-3.9-13.19c-5.21-17.61-23.78-27.7-41.39-22.49l-41.57,12.3
				c5.78,13.67,15.93,24.9,29.16,32.09c9.78,5.31,20.51,8.02,31.34,8.02c6.27,0,12.58-0.91,18.76-2.74
				C342.583,210.189,344.953,208.269,346.393,205.629z"/>
			<path style="fill:#4D4D4D;" d="M255.693,27.909c4.07,0.79,6.73,4.72,5.94,8.79c-0.69,3.58-3.83,6.08-7.35,6.08
				c-0.47,0-0.95-0.04-1.43-0.14c-7.84-1.51-15.9-2.27-23.95-2.27h-1.13c-4.14,0-7.5-3.36-7.5-7.5c0-4.14,3.36-7.5,7.5-7.5h1.13
				C237.903,25.369,246.913,26.219,255.693,27.909z"/>
			<path style="fill:#4D4D4D;" d="M252.163,227.179c3.3,5.7,3.3,12.51,0.01,18.21c-3.3,5.71-9.19,9.11-15.78,9.11h-16.11
				c-6.58,0-12.48-3.4-15.77-9.11c-3.29-5.7-3.29-12.51,0-18.21l17.33-30.02c1.34-2.32,3.82-3.75,6.5-3.75s5.15,1.43,6.49,3.75
				L252.163,227.179z M239.623,236.279c0-0.48-0.12-1.03-0.45-1.6l-10.83-18.77l-10.84,18.77c-0.81,1.4-0.35,2.61,0,3.21
				c0.35,0.6,1.17,1.61,2.78,1.61h16.11c1.62,0,2.44-1.01,2.78-1.61C239.383,237.539,239.623,236.969,239.623,236.279z"/>
			<path style="fill:#4D4D4D;" d="M208.093,161.539c3.97,1.18,6.24,5.35,5.07,9.32c-6.13,20.7-19.95,37.78-38.92,48.09
				c-12.01,6.52-25.17,9.84-38.47,9.84c-7.71,0-15.45-1.11-23.04-3.36c-13.89-4.11-21.84-18.74-17.73-32.63l3.9-13.19
				c3.66-12.37,11.92-22.58,23.26-28.74c11.34-6.16,24.4-7.53,36.77-3.87L208.093,161.539z M196.243,173.679l-41.56-12.3
				c-3.13-0.93-6.33-1.38-9.5-1.38c-5.48,0-10.91,1.36-15.86,4.05c-7.81,4.25-13.51,11.29-16.04,19.82l-3.9,13.19
				c-1.76,5.95,1.65,12.23,7.6,13.99c16.86,4.98,34.65,3.11,50.1-5.28C180.313,198.579,190.463,187.349,196.243,173.679z"/>
		</g>
		<g>
		</g>
	</g>
</g>
<g>
</g>
<g>
</g>
<g>
</g>
<g>
</g>
<g>
</g>
<g>
</g>
<g>
</g>
<g>
</g>
<g>
</g>
<g>
</g>
<g>
</g>
<g>
</g>
<g>
</g>
<g>
</g>
<g>
</g>
</svg>
