<?xml version="1.0" encoding="iso-8859-1"?>
<!-- Generator: Adobe Illustrator 18.0.0, SVG Export Plug-In . SVG Version: 6.00 Build 0)  -->
<!DOCTYPE svg PUBLIC "-//W3C//DTD SVG 1.1//EN" "http://www.w3.org/Graphics/SVG/1.1/DTD/svg11.dtd">
<svg version="1.1" id="Capa_1" xmlns="http://www.w3.org/2000/svg" xmlns:xlink="http://www.w3.org/1999/xlink" x="0px" y="0px"
	 viewBox="0 0 472.457 472.457" style="enable-background:new 0 0 472.457 472.457;" xml:space="preserve">
<g>
	<g id="XMLID_4_">
		<g>
			<path style="fill:#4D4D4D;" d="M435.991,179.488c21.86,10.16,36.22,32.33,36.22,56.74c0,24.41-14.36,46.58-36.22,56.74v2.98
				c0,4.14-3.36,7.5-7.5,7.5h-60.92c-4.15,0-7.5-3.36-7.5-7.5v-5.44h-101.29c-4.14,0-7.5-3.36-7.5-7.5v-9.23h-101.29
				c-4.14,0-7.5-3.35-7.5-7.5v-4.83h-93.79v4.83c0,4.15-3.36,7.5-7.5,7.5H7.751c-4.14,0-7.5-3.35-7.5-7.5v-60.1
				c0-4.14,3.36-7.5,7.5-7.5h33.45c4.14,0,7.5,3.36,7.5,7.5v4.83h93.79v-4.83c0-4.14,3.36-7.5,7.5-7.5h101.29v-9.23
				c0-4.14,3.36-7.5,7.5-7.5h101.29v-5.43c0-4.15,3.35-7.5,7.5-7.5h60.92c4.14,0,7.5,3.35,7.5,7.5V179.488z M457.211,236.228
				c0-16.09-8.21-30.9-21.22-39.59v79.18C449.001,267.128,457.211,252.318,457.211,236.228z M420.991,288.448v-104.43h-45.92v104.43
				H420.991z M360.071,275.508v-78.56h-93.79v78.56H360.071z M251.281,258.778v-45.1h-93.79v45.1H251.281z M142.491,246.448v-20.44
				h-93.79v20.44H142.491z M33.701,258.778v-45.1h-18.45v45.1H33.701z"/>
			<path style="fill:#86A9F7;" d="M435.991,196.638c13.01,8.69,21.22,23.5,21.22,39.59s-8.21,30.9-21.22,39.59V196.638z"/>
			<path style="fill:#E5D665;" d="M420.991,184.018v104.43h-45.92v-104.43H420.991z M417.331,196.228c0-4.15-3.35-7.5-7.5-7.5
				h-23.61c-4.14,0-7.5,3.35-7.5,7.5c0,4.14,3.36,7.5,7.5,7.5h23.61C413.981,203.728,417.331,200.368,417.331,196.228z"/>
			<path style="fill:#4D4D4D;" d="M409.831,188.728c4.15,0,7.5,3.35,7.5,7.5c0,4.14-3.35,7.5-7.5,7.5h-23.61
				c-4.14,0-7.5-3.36-7.5-7.5c0-4.15,3.36-7.5,7.5-7.5H409.831z"/>
			<path style="fill:#E8465A;" d="M360.071,196.948v78.56h-93.79v-78.56H360.071z M351.421,211.218c0-4.14-3.36-7.5-7.5-7.5h-61.5
				c-4.14,0-7.5,3.36-7.5,7.5c0,4.15,3.36,7.5,7.5,7.5h61.5C348.061,218.718,351.421,215.368,351.421,211.218z"/>
			<path style="fill:#4D4D4D;" d="M343.921,203.718c4.14,0,7.5,3.36,7.5,7.5c0,4.15-3.36,7.5-7.5,7.5h-61.5
				c-4.14,0-7.5-3.35-7.5-7.5c0-4.14,3.36-7.5,7.5-7.5H343.921z"/>
			<path style="fill:#E8465A;" d="M251.281,213.678v45.1h-93.79v-45.1H251.281z M242.631,226.218c0-4.14-3.36-7.5-7.5-7.5h-61.49
				c-4.15,0-7.5,3.36-7.5,7.5c0,4.15,3.35,7.5,7.5,7.5h61.49C239.271,233.718,242.631,230.368,242.631,226.218z"/>
			<path style="fill:#4D4D4D;" d="M235.131,218.718c4.14,0,7.5,3.36,7.5,7.5c0,4.15-3.36,7.5-7.5,7.5h-61.49
				c-4.15,0-7.5-3.35-7.5-7.5c0-4.14,3.35-7.5,7.5-7.5H235.131z"/>
			<rect x="48.701" y="226.008" style="fill:#E8465A;" width="93.79" height="20.44"/>
			<rect x="15.251" y="213.678" style="fill:#E5D665;" width="18.45" height="45.1"/>
		</g>
		<g>
		</g>
	</g>
</g>
<g>
</g>
<g>
</g>
<g>
</g>
<g>
</g>
<g>
</g>
<g>
</g>
<g>
</g>
<g>
</g>
<g>
</g>
<g>
</g>
<g>
</g>
<g>
</g>
<g>
</g>
<g>
</g>
<g>
</g>
</svg>
