<?xml version="1.0" encoding="iso-8859-1"?>
<!-- Generator: Adobe Illustrator 18.0.0, SVG Export Plug-In . SVG Version: 6.00 Build 0)  -->
<!DOCTYPE svg PUBLIC "-//W3C//DTD SVG 1.1//EN" "http://www.w3.org/Graphics/SVG/1.1/DTD/svg11.dtd">
<svg version="1.1" id="Capa_1" xmlns="http://www.w3.org/2000/svg" xmlns:xlink="http://www.w3.org/1999/xlink" x="0px" y="0px"
	 viewBox="0 0 423.129 423.129" style="enable-background:new 0 0 423.129 423.129;" xml:space="preserve">
<g>
	<g id="XMLID_33_">
		<g>
			<path style="fill:#808080;" d="M252.568,201.937c15.17,0,27.5,12.34,27.5,27.5c0,15.17-12.33,27.5-27.5,27.5
				c-15.16,0-27.5-12.33-27.5-27.5C225.068,214.277,237.408,201.937,252.568,201.937z"/>
			<path style="fill:#86A9F7;" d="M211.568,49.937c7.99,0,14.5,6.51,14.5,14.5c0,8-6.51,14.5-14.5,14.5c-8,0-14.5-6.5-14.5-14.5
				C197.068,56.447,203.568,49.937,211.568,49.937z"/>
			<path style="fill:#E8465A;" d="M317.548,121.247l-13.32,27.28c-30.01-9.81-61.33-14.72-92.66-14.72s-62.65,4.91-92.66,14.72
				l-13.33-27.28h6.49c24.26,0,44-19.74,44-44v-6.5c0-30.6,24.9-55.5,55.5-55.5s55.5,24.9,55.5,55.5v6.5c0,24.26,19.73,44,44,44
				H317.548z M241.068,64.437c0-16.26-13.23-29.5-29.5-29.5s-29.5,13.24-29.5,29.5c0,16.27,13.23,29.5,29.5,29.5
				S241.068,80.707,241.068,64.437z"/>
			<path style="fill:#E5D665;" d="M379.498,209.187c0.34,1.03,0.89,3.68-1.14,6.21l-55.29,68.52l-34.28-32.26
				c3.98-6.47,6.28-14.08,6.28-22.22c0-23.43-19.06-42.5-42.5-42.5c-9.05,0-17.45,2.86-24.36,7.71l-46.97-44.22
				c25.47-2.73,51.26-2,76.56,2.17l11.82,18.13c2.92,4.47,7.36,7.69,12.49,9.07l92.82,25.05
				C378.058,205.687,379.168,208.167,379.498,209.187z"/>
			<path style="fill:#E5D665;" d="M318.078,400.917c0.16,3.23-1.85,5.06-2.72,5.69c-0.88,0.63-3.23,1.98-6.25,0.83l-89.83-34.29
				c-4.97-1.9-10.45-1.9-15.42,0l-89.83,34.29c-3.02,1.16-5.38-0.2-6.25-0.83c-0.87-0.64-2.88-2.46-2.72-5.69l4.86-96.04
				c0.26-5.32-1.43-10.53-4.76-14.66l-60.38-74.83c-2.04-2.52-1.48-5.17-1.15-6.2c0.33-1.02,1.45-3.5,4.58-4.34l92.82-25.05
				c5.13-1.38,9.57-4.6,12.49-9.07l10.42-15.99l53.69,50.55c-4.76,6.86-7.56,15.19-7.56,24.15c0,23.44,19.07,42.5,42.5,42.5
				c9.89,0,19-3.4,26.23-9.09l35.7,33.61c-0.97,2.68-1.43,5.54-1.28,8.43L318.078,400.917z M248.658,291.877
				c1.34-3.92-0.75-8.19-4.67-9.53c-20.91-7.16-43.94-7.16-64.85,0c-3.92,1.34-6.01,5.61-4.66,9.53c1.06,3.11,3.97,5.07,7.09,5.07
				c0.81,0,1.63-0.13,2.43-0.41c17.78-6.08,37.36-6.08,55.13,0C243.048,297.877,247.318,295.797,248.658,291.877z M191.848,234.847
				c1.02-4.02-1.4-8.1-5.41-9.13l-24.79-6.32c-4.01-1.02-8.1,1.4-9.12,5.41c-1.03,4.02,1.4,8.1,5.41,9.12l24.79,6.33
				c0.62,0.16,1.24,0.23,1.86,0.23C187.928,240.487,190.978,238.237,191.848,234.847z"/>
			<path style="fill:#4D4D4D;" d="M393.768,204.557c2.26,6.98,0.87,14.55-3.74,20.26l-60.37,74.82c-1.03,1.27-1.54,2.86-1.46,4.49
				l4.86,96.04c0.37,7.32-2.96,14.27-8.89,18.58c-5.94,4.31-13.57,5.32-20.41,2.7l-89.83-34.29c-1.53-0.58-3.2-0.58-4.72,0
				l-89.82,34.29c-2.52,0.96-5.13,1.43-7.73,1.43c-4.5,0-8.94-1.41-12.7-4.14c-5.93-4.31-9.25-11.26-8.88-18.58l4.86-96.02
				c0.08-1.63-0.44-3.23-1.45-4.49l-60.38-74.84c-4.61-5.7-6.01-13.27-3.75-20.25c2.27-6.98,7.85-12.28,14.94-14.2l92.83-25.05
				c1.57-0.42,2.93-1.41,3.82-2.78l3.74-5.73c-9.15,2.22-18.21,4.88-27.13,8.03c-3.59,1.26-7.56-0.36-9.23-3.78l-21.5-44
				c-1.13-2.33-0.99-5.07,0.38-7.27c1.37-2.19,3.78-3.53,6.36-3.53h18.5c15.99,0,29-13.01,29-29v-6.5c0-38.87,31.63-70.5,70.5-70.5
				s70.5,31.63,70.5,70.5v6.5c0,15.99,13,29,29,29h18.5c2.58,0,4.99,1.34,6.36,3.53c1.37,2.2,1.51,4.94,0.37,7.27l-21.49,44
				c-1.29,2.63-3.95,4.2-6.74,4.2c-0.83,0-1.67-0.13-2.49-0.42c-8.93-3.15-17.99-5.82-27.14-8.03l3.75,5.74
				c0.89,1.36,2.24,2.35,3.81,2.77l92.84,25.05C385.918,192.277,391.498,197.577,393.768,204.557z M378.358,215.397
				c2.03-2.53,1.48-5.18,1.14-6.21c-0.33-1.02-1.44-3.5-4.57-4.34l-92.82-25.05c-5.13-1.38-9.57-4.6-12.49-9.07l-11.82-18.13
				c-25.3-4.17-51.09-4.9-76.56-2.17l46.97,44.22c6.91-4.85,15.31-7.71,24.36-7.71c23.44,0,42.5,19.07,42.5,42.5
				c0,8.14-2.3,15.75-6.28,22.22l34.28,32.26L378.358,215.397z M315.358,406.607c0.87-0.63,2.88-2.46,2.72-5.69l-4.86-96.03
				c-0.15-2.89,0.31-5.75,1.28-8.43l-35.7-33.61c-7.23,5.69-16.34,9.09-26.23,9.09c-23.43,0-42.5-19.06-42.5-42.5
				c0-8.96,2.8-17.29,7.56-24.15l-53.69-50.55l-10.42,15.99c-2.92,4.47-7.36,7.69-12.49,9.07l-92.82,25.05
				c-3.13,0.84-4.25,3.32-4.58,4.34c-0.33,1.03-0.89,3.68,1.15,6.2l60.38,74.83c3.33,4.13,5.02,9.34,4.76,14.66l-4.86,96.04
				c-0.16,3.23,1.85,5.05,2.72,5.69c0.87,0.63,3.23,1.99,6.25,0.83l89.83-34.29c4.97-1.9,10.45-1.9,15.42,0l89.83,34.29
				C312.128,408.587,314.478,407.237,315.358,406.607z M304.228,148.527l13.32-27.28h-6.48c-24.27,0-44-19.74-44-44v-6.5
				c0-30.6-24.9-55.5-55.5-55.5s-55.5,24.9-55.5,55.5v6.5c0,24.26-19.74,44-44,44h-6.49l13.33,27.28
				c30.01-9.81,61.33-14.72,92.66-14.72S274.218,138.717,304.228,148.527z M280.068,229.437c0-15.16-12.33-27.5-27.5-27.5
				c-15.16,0-27.5,12.34-27.5,27.5c0,15.17,12.34,27.5,27.5,27.5C267.738,256.937,280.068,244.607,280.068,229.437z"/>
			<path style="fill:#4D4D4D;" d="M243.988,282.347c3.92,1.34,6.01,5.61,4.67,9.53c-1.34,3.92-5.61,6-9.53,4.66
				c-17.77-6.08-37.35-6.08-55.13,0c-0.8,0.28-1.62,0.41-2.43,0.41c-3.12,0-6.03-1.96-7.09-5.07c-1.35-3.92,0.74-8.19,4.66-9.53
				C200.048,275.187,223.078,275.187,243.988,282.347z"/>
			<path style="fill:#4D4D4D;" d="M211.568,34.937c16.27,0,29.5,13.24,29.5,29.5c0,16.27-13.23,29.5-29.5,29.5
				s-29.5-13.23-29.5-29.5C182.068,48.177,195.298,34.937,211.568,34.937z M226.068,64.437c0-7.99-6.51-14.5-14.5-14.5
				c-8,0-14.5,6.51-14.5,14.5c0,8,6.5,14.5,14.5,14.5C219.558,78.937,226.068,72.437,226.068,64.437z"/>
			<path style="fill:#4D4D4D;" d="M186.438,225.717c4.01,1.03,6.43,5.11,5.41,9.13c-0.87,3.39-3.92,5.64-7.26,5.64
				c-0.62,0-1.24-0.07-1.86-0.23l-24.79-6.33c-4.01-1.02-6.44-5.1-5.41-9.12c1.02-4.01,5.11-6.43,9.12-5.41L186.438,225.717z"/>
		</g>
		<g>
		</g>
	</g>
</g>
<g>
</g>
<g>
</g>
<g>
</g>
<g>
</g>
<g>
</g>
<g>
</g>
<g>
</g>
<g>
</g>
<g>
</g>
<g>
</g>
<g>
</g>
<g>
</g>
<g>
</g>
<g>
</g>
<g>
</g>
</svg>
