<?xml version="1.0" encoding="iso-8859-1"?>
<!-- Generator: Adobe Illustrator 18.0.0, SVG Export Plug-In . SVG Version: 6.00 Build 0)  -->
<!DOCTYPE svg PUBLIC "-//W3C//DTD SVG 1.1//EN" "http://www.w3.org/Graphics/SVG/1.1/DTD/svg11.dtd">
<svg version="1.1" id="Capa_1" xmlns="http://www.w3.org/2000/svg" xmlns:xlink="http://www.w3.org/1999/xlink" x="0px" y="0px"
	 viewBox="0 0 463.627 463.627" style="enable-background:new 0 0 463.627 463.627;" xml:space="preserve">
<g id="XMLID_38_">
	<g>
		<path style="fill:#808080;" d="M375.427,404.612c2.56,2.56,3.97,5.96,3.97,9.58c0,3.63-1.41,7.03-3.98,9.59
			c-2.56,2.57-5.96,3.98-9.58,3.98c-3.63,0-7.03-1.41-9.59-3.98c-2.65-2.64-3.97-6.11-3.97-9.59c0-3.46,1.32-6.93,3.95-9.57
			l0.03-0.03C361.547,399.322,370.137,399.322,375.427,404.612z"/>
		<path style="fill:#B3B3B3;" d="M323.057,79.282l-6.36,6.36l-46.26-46.27c12.05,3.74,23.09,10.37,32.22,19.51L323.057,79.282z"/>
		<polygon style="fill:#808080;" points="359.827,107.562 330.137,137.262 308.217,115.342 337.907,85.642 		"/>
		<path style="fill:#B3B3B3;" d="M443.847,164.102c-16.87,20.67-35.8,39.6-56.47,56.47c-11.42-26.65-24.34-52.74-38.51-77.77
			c5.95-5.5,11.71-11.26,17.22-17.21C391.107,139.762,417.197,152.682,443.847,164.102z"/>
		<polygon style="fill:#E0974F;" points="39.447,415.112 29.907,424.652 20.827,415.562 30.367,406.032 		"/>
		<polygon style="fill:#E0974F;" points="313.107,141.442 221.557,232.992 212.487,223.912 304.027,132.372 		"/>
		<path style="fill:#E0974F;" d="M183.547,271.002l-133.5,133.5l-9.08-9.08l133.54-133.53
			C177.507,264.942,180.527,267.972,183.547,271.002z"/>
		
			<rect x="309.002" y="318.461" transform="matrix(0.7071 -0.7071 0.7071 0.7071 -164.4058 328.513)" style="fill:#5B79CE;" width="10.691" height="88.501"/>
		<path style="fill:#CCCCCC;" d="M280.317,312.952l-16.82,16.81l-66.54-66.54c-59.11-59.11-115.35-122.34-167.15-187.94l-1.04-1.32
			c-5.73-7.25-9.73-15.57-11.82-24.37L280.317,312.952z"/>
		<path style="fill:#4D4D4D;" d="M463.127,159.102c0.6,2.26,0.11,4.68-1.32,6.52c-21.14,27.25-45.66,51.77-72.9,72.9
			c-1.33,1.04-2.95,1.58-4.6,1.58c-0.64,0-1.29-0.08-1.92-0.25c-2.27-0.6-4.12-2.22-5.01-4.39c-11.86-28.66-25.53-56.74-40.64-83.59
			l-1.3,1.3c-1.46,1.46-3.38,2.2-5.3,2.2s-3.84-0.74-5.31-2.2l-1.12-1.12l-91.54,91.54l59.3,59.3c14.91-9.83,35.21-8.2,48.32,4.91
			c2.93,2.93,2.93,7.68,0,10.6c-2.93,2.93-7.68,2.93-10.6,0c-8.67-8.66-22.48-9.08-31.67-1.3l62.51,62.51l2.13-2.13
			c2.93-2.93,7.68-2.93,10.61,0c2.52,2.52,2.87,6.4,1.04,9.3c4.48,1.29,8.7,3.7,12.22,7.22c5.4,5.39,8.37,12.57,8.37,20.19
			c0,7.63-2.97,14.81-8.37,20.2c-5.39,5.4-12.57,8.37-20.19,8.37c-3.82,0-7.52-0.74-10.94-2.16c-3.42-1.42-6.56-3.51-9.26-6.21
			c-3.8-3.8-6.3-8.41-7.51-13.27c-9.65,6.46-20.99,9.93-32.87,9.93c-15.83,0-30.71-6.16-41.9-17.35
			c-19.49-19.49-22.54-49.29-9.14-72.01l-60.08-60.07l-138.7,138.7c-0.03,0.03-0.05,0.06-0.08,0.09c-0.03,0.03-0.06,0.06-0.09,0.08
			l-20.05,20.07c-1.41,1.4-3.32,2.19-5.31,2.19s-3.89-0.79-5.3-2.19l-19.69-19.69c-1.41-1.41-2.2-3.32-2.2-5.31
			c0-1.98,0.79-3.89,2.2-5.3l159.1-159.1c-51.37-52.92-100.38-108.84-145.98-166.59l-1.05-1.32c-12.07-15.28-17.94-34.4-16.53-53.83
			c0.21-2.92,2.11-5.46,4.86-6.48c2.75-1.03,5.85-0.35,7.92,1.72l188.64,188.64l91.55-91.54l-1.12-1.12c-1.41-1.4-2.2-3.31-2.2-5.3
			s0.79-3.9,2.2-5.3l13.78-13.79l-62.57-62.58c-2.17-2.17-2.8-5.43-1.6-8.24c1.2-2.82,3.99-4.61,7.05-4.56
			c24.29,0.49,47.13,10.22,64.3,27.4l20.51,20.51c1.22-0.81,2.65-1.24,4.13-1.24c1.99,0,3.9,0.79,5.31,2.19l32.52,32.53
			c2.93,2.93,2.93,7.68,0,10.61l-0.58,0.58c26.85,15.12,54.92,28.79,83.59,40.65C460.907,154.992,462.527,156.842,463.127,159.102z
			 M387.377,220.572c20.67-16.87,39.6-35.8,56.47-56.47c-26.65-11.42-52.74-24.34-77.76-38.51c-5.51,5.95-11.27,11.71-17.22,17.21
			C363.037,167.832,375.957,193.922,387.377,220.572z M379.397,414.192c0-3.62-1.41-7.02-3.97-9.58
			c-5.29-5.29-13.88-5.29-19.17-0.02l-0.03,0.03c-2.63,2.64-3.95,6.11-3.95,9.57c0,3.48,1.32,6.95,3.97,9.59
			c2.56,2.57,5.96,3.98,9.59,3.98c3.62,0,7.02-1.41,9.58-3.98C377.987,421.222,379.397,417.822,379.397,414.192z M330.137,137.262
			l29.69-29.7l-21.92-21.92l-29.69,29.7L330.137,137.262z M341.857,397.782l7.56-7.56l-62.58-62.58l-7.56,7.56L341.857,397.782z
			 M330.787,407.932l-61.66-61.66c-12.22,17.26-10.61,41.37,4.84,56.82C289.407,418.542,313.527,420.142,330.787,407.932z
			 M316.697,85.642l6.36-6.36l-20.4-20.4c-9.13-9.14-20.17-15.77-32.22-19.51L316.697,85.642z M221.557,232.992l91.55-91.55
			l-9.08-9.07l-91.54,91.54L221.557,232.992z M263.497,329.762l16.82-16.81L16.947,49.592c2.09,8.8,6.09,17.12,11.82,24.37
			l1.04,1.32c51.8,65.6,108.04,128.83,167.15,187.94L263.497,329.762z M50.047,404.502l133.5-133.5c-3.02-3.03-6.04-6.06-9.04-9.11
			l-133.54,133.53L50.047,404.502z M29.907,424.652l9.54-9.54l-9.08-9.08l-9.54,9.53L29.907,424.652z"/>
	</g>
	<g>
	</g>
</g>
<g>
</g>
<g>
</g>
<g>
</g>
<g>
</g>
<g>
</g>
<g>
</g>
<g>
</g>
<g>
</g>
<g>
</g>
<g>
</g>
<g>
</g>
<g>
</g>
<g>
</g>
<g>
</g>
<g>
</g>
</svg>
