<?xml version="1.0" encoding="iso-8859-1"?>
<!-- Generator: Adobe Illustrator 18.0.0, SVG Export Plug-In . SVG Version: 6.00 Build 0)  -->
<!DOCTYPE svg PUBLIC "-//W3C//DTD SVG 1.1//EN" "http://www.w3.org/Graphics/SVG/1.1/DTD/svg11.dtd">
<svg version="1.1" id="Capa_1" xmlns="http://www.w3.org/2000/svg" xmlns:xlink="http://www.w3.org/1999/xlink" x="0px" y="0px"
	 viewBox="0 0 431.5 431.5" style="enable-background:new 0 0 431.5 431.5;" xml:space="preserve">
<g>
	<g id="XMLID_33_">
		<g>
			<path style="fill:#E0974F;" d="M322.504,280.709c-5.59,11.29-13.09,21.88-22.48,31.27c-9.39,9.39-19.97,16.88-31.26,22.47
				c-7.53-15.2-4.72-33.76,7.63-46.1C288.754,275.989,307.314,273.179,322.504,280.709z"/>
			<path style="fill:#E0974F;" d="M155.104,288.349c12.35,12.35,15.17,30.91,7.64,46.11c-11.29-5.6-21.87-13.09-31.27-22.48
				c-9.28-9.28-16.83-19.83-22.52-31.24C124.154,273.169,142.734,275.989,155.104,288.349z"/>
			<path style="fill:#E0974F;" d="M244.124,199.329c15.65,15.65,15.65,41.1,0,56.75c-15.64,15.64-41.1,15.64-56.74,0
				c-15.65-15.65-15.65-41.1,0-56.75c7.82-7.82,18.09-11.73,28.37-11.73C226.024,187.599,236.304,191.509,244.124,199.329z"/>
			<path style="fill:#E0974F;" d="M300.024,143.429c9.39,9.39,16.89,19.97,22.48,31.26c-15.2,7.54-33.76,4.72-46.11-7.63
				c-12.35-12.35-15.17-30.91-7.63-46.11C280.054,126.549,290.634,134.039,300.024,143.429z"/>
			<path style="fill:#E0974F;" d="M162.744,120.949c7.54,15.19,4.72,33.75-7.64,46.11s-30.94,15.17-46.15,7.61
				c5.69-11.42,13.24-21.96,22.52-31.24C140.874,134.039,151.454,126.539,162.744,120.949z"/>
			<path style="fill:#AD723D;" d="M328.304,188.549c8.76,25.31,8.76,53,0.01,78.3c-20.73-9.84-45.78-5.86-62.52,10.89
				c-16.74,16.74-20.73,41.79-10.89,62.52c-25.3,8.76-52.99,8.76-78.3,0c9.84-20.73,5.85-45.77-10.89-62.51
				c-16.76-16.77-41.84-20.75-62.58-10.87c-4.31-12.43-6.56-25.63-6.56-39.18c0-13.55,2.25-26.75,6.56-39.18
				c7.5,3.57,15.56,5.34,23.59,5.34c14.19,0,28.29-5.5,38.99-16.2c16.75-16.74,20.74-41.79,10.89-62.51
				c12.65-4.38,25.9-6.57,39.15-6.57s26.5,2.19,39.15,6.57c-9.85,20.72-5.86,45.77,10.89,62.52c10.7,10.7,24.79,16.19,38.98,16.19
				C312.784,193.859,320.824,192.099,328.304,188.549z M254.734,266.679c21.49-21.49,21.49-56.46,0-77.96
				c-21.49-21.49-56.47-21.49-77.96,0c-21.49,21.5-21.49,56.47,0,77.96c10.75,10.75,24.86,16.12,38.98,16.12
				C229.874,282.799,243.984,277.429,254.734,266.679z"/>
			<path style="fill:#77CE6F;" d="M136.184,335.759c-4.03,16.83-15.63,30.78-31.46,37.75c-5.03-18.98,0.42-39.14,14.13-52.99
				c0.67,0.69,1.34,1.38,2.02,2.06C125.714,327.429,130.834,331.819,136.184,335.759z"/>
			<path style="fill:#77CE6F;" d="M227.004,361.349l-11.25,36.77l-11.25-36.77c3.74,0.31,7.49,0.47,11.25,0.47
				C219.504,361.819,223.264,361.659,227.004,361.349z"/>
			<path style="fill:#77CE6F;" d="M312.654,320.519c13.7,13.86,19.15,34.02,14.14,52.99c-15.84-6.96-27.45-20.91-31.47-37.75
				c5.35-3.94,10.47-8.33,15.31-13.18C311.314,321.899,311.984,321.209,312.654,320.519z"/>
			<path style="fill:#77CE6F;" d="M369.534,161.839c17.96,13.01,30.42,31.95,35.26,53.53c-19.31,3.31-39.17,0.27-56.56-8.63
				c-3.48-22.13-12.48-43.55-27.02-62C338.504,145.649,355.244,151.499,369.534,161.839z"/>
			<path style="fill:#77CE6F;" d="M110.274,144.739c-14.29,18.09-23.55,39.35-27.09,62.05c-17.37,8.86-37.2,11.88-56.48,8.58
				c4.85-21.58,17.31-40.52,35.27-53.53C76.254,151.499,92.994,145.649,110.274,144.739z"/>
			<path style="fill:#77CE6F;" d="M252.664,53.849c0.53,3.25,0.82,6.62,0.82,10.08c0,12.04-3.52,23.67-9.76,32.58
				c-18.43-3.89-37.51-3.89-55.93,0c-6.24-8.91-9.76-20.54-9.76-32.58c0-3.46,0.28-6.83,0.82-10.08l18.4-7.1
				c3.87-1.49,5.79-5.83,4.3-9.7c-1.49-3.86-5.82-5.79-9.69-4.3l-6.59,2.54c6.87-12.13,17.97-20.04,30.48-20.04
				c12.51,0,23.61,7.91,30.48,20.04l-6.58-2.54c-3.87-1.49-8.21,0.44-9.7,4.3c-1.49,3.87,0.44,8.21,4.3,9.7L252.664,53.849z"/>
			<path style="fill:#4D4D4D;" d="M420.994,219.849c0.8,4.06-1.84,8-5.9,8.8l-5.1,1.01c-6.8,1.35-13.67,2.01-20.52,2.01
				c-13.57,0-27.05-2.61-39.66-7.72c0.83,29.97-8.3,60.17-27.38,85.15c19.38,18.9,26.33,47.53,17.24,73.52l-1.1,3.14
				c-1.08,3.09-3.98,5.02-7.08,5.02c-0.82,0-1.65-0.13-2.47-0.42l-3.15-1.1c-21.06-7.37-37.09-24.1-43.74-44.94
				c-12.21,6.95-25.28,11.83-38.71,14.63l-20.5,66.99c-0.96,3.16-3.87,5.31-7.17,5.31c-3.29,0-6.2-2.15-7.17-5.3l-20.5-67
				c-13.43-2.8-26.5-7.68-38.71-14.63c-6.66,20.85-22.69,37.57-43.74,44.94l-3.14,1.1c-0.8,0.28-1.64,0.42-2.48,0.42
				c-1.11,0-2.22-0.25-3.25-0.74c-1.79-0.86-3.17-2.4-3.82-4.28l-1.1-3.14c-9.11-26-2.16-54.62,17.22-73.52
				c-17.83-23.27-27.49-51.59-27.49-81.4c0-1.24,0.02-2.48,0.05-3.72c-12.59,5.09-26.05,7.69-39.6,7.69
				c-6.85,0-13.72-0.66-20.52-2.01l-5.1-1.01c-4.06-0.8-6.7-4.74-5.9-8.81l1.01-5.11c5.2-26.25,20-49.35,41.66-65.04
				c20.57-14.89,45.53-21.83,70.65-19.73c14.41-13.56,31.11-23.33,48.82-29.3c-6.24-10.65-9.61-23.34-9.61-36.73
				c0-35.11,23.65-63.68,52.72-63.68c29.08,0,52.73,28.57,52.73,63.68c0,13.39-3.37,26.08-9.61,36.73
				c17.7,5.98,34.4,15.74,48.8,29.3c25.13-2.1,50.09,4.84,70.65,19.73c21.67,15.69,36.46,38.79,41.66,65.04L420.994,219.849z
				 M404.794,215.369c-4.84-21.58-17.3-40.52-35.26-53.53c-14.29-10.34-31.03-16.19-48.32-17.1c14.54,18.45,23.54,39.87,27.02,62
				C365.624,215.639,385.484,218.679,404.794,215.369z M328.314,266.849c8.75-25.3,8.75-52.99-0.01-78.3
				c-7.48,3.55-15.52,5.31-23.53,5.31c-14.19,0-28.28-5.49-38.98-16.19c-16.75-16.75-20.74-41.8-10.89-62.52
				c-12.65-4.38-25.9-6.57-39.15-6.57s-26.5,2.19-39.15,6.57c9.85,20.72,5.86,45.77-10.89,62.51c-10.7,10.7-24.8,16.2-38.99,16.2
				c-8.03,0-16.09-1.77-23.59-5.34c-4.31,12.43-6.56,25.63-6.56,39.18c0,13.55,2.25,26.75,6.56,39.18
				c20.74-9.88,45.82-5.9,62.58,10.87c16.74,16.74,20.73,41.78,10.89,62.51c25.31,8.76,53,8.76,78.3,0
				c-9.84-20.73-5.85-45.78,10.89-62.52C282.534,260.989,307.584,257.009,328.314,266.849z M326.794,373.509
				c5.01-18.97-0.44-39.13-14.14-52.99c-0.67,0.69-1.34,1.38-2.02,2.06c-4.84,4.85-9.96,9.24-15.31,13.18
				C299.344,352.599,310.954,366.549,326.794,373.509z M322.504,174.689c-5.59-11.29-13.09-21.87-22.48-31.26
				c-9.39-9.39-19.97-16.88-31.26-22.48c-7.54,15.2-4.72,33.76,7.63,46.11C288.744,179.409,307.304,182.229,322.504,174.689z
				 M300.024,311.979c9.39-9.39,16.89-19.98,22.48-31.27c-15.19-7.53-33.75-4.72-46.11,7.64c-12.35,12.34-15.16,30.9-7.63,46.1
				C280.054,328.859,290.634,321.369,300.024,311.979z M253.484,63.929c0-3.46-0.29-6.83-0.82-10.08l-18.41-7.1
				c-3.86-1.49-5.79-5.83-4.3-9.7c1.49-3.86,5.83-5.79,9.7-4.3l6.58,2.54c-6.87-12.13-17.97-20.04-30.48-20.04
				c-12.51,0-23.61,7.91-30.48,20.04l6.59-2.54c3.87-1.49,8.2,0.44,9.69,4.3c1.49,3.87-0.43,8.21-4.3,9.7l-18.4,7.1
				c-0.54,3.25-0.82,6.62-0.82,10.08c0,12.04,3.52,23.67,9.76,32.58c18.42-3.89,37.5-3.89,55.93,0
				C249.964,87.599,253.484,75.969,253.484,63.929z M215.754,398.119l11.25-36.77c-3.74,0.31-7.5,0.47-11.25,0.47
				c-3.76,0-7.51-0.16-11.25-0.47L215.754,398.119z M155.104,167.059c12.36-12.36,15.18-30.92,7.64-46.11
				c-11.29,5.59-21.87,13.09-31.27,22.48c-9.28,9.28-16.83,19.82-22.52,31.24C124.164,182.229,142.744,179.419,155.104,167.059z
				 M162.744,334.459c7.53-15.2,4.71-33.76-7.64-46.11c-12.37-12.36-30.95-15.18-46.15-7.61c5.69,11.41,13.24,21.96,22.52,31.24
				C140.874,321.369,151.454,328.859,162.744,334.459z M104.724,373.509c15.83-6.97,27.43-20.92,31.46-37.75
				c-5.35-3.94-10.47-8.33-15.31-13.18c-0.68-0.68-1.35-1.37-2.02-2.06C105.144,334.369,99.694,354.529,104.724,373.509z
				 M83.184,206.789c3.54-22.7,12.8-43.96,27.09-62.05c-17.28,0.91-34.02,6.76-48.3,17.1c-17.96,13.01-30.42,31.95-35.27,53.53
				C45.984,218.669,65.814,215.649,83.184,206.789z"/>
			<path style="fill:#4D4D4D;" d="M254.734,188.719c21.49,21.5,21.49,56.47,0,77.96c-10.75,10.75-24.86,16.12-38.98,16.12
				c-14.12,0-28.23-5.37-38.98-16.12c-21.49-21.49-21.49-56.46,0-77.96C198.264,167.229,233.244,167.229,254.734,188.719z
				 M244.124,256.079c15.65-15.65,15.65-41.1,0-56.75c-7.82-7.82-18.1-11.73-28.37-11.73c-10.28,0-20.55,3.91-28.37,11.73
				c-15.65,15.65-15.65,41.1,0,56.75C203.024,271.719,228.484,271.719,244.124,256.079z"/>
		</g>
		<g>
		</g>
	</g>
</g>
<g>
</g>
<g>
</g>
<g>
</g>
<g>
</g>
<g>
</g>
<g>
</g>
<g>
</g>
<g>
</g>
<g>
</g>
<g>
</g>
<g>
</g>
<g>
</g>
<g>
</g>
<g>
</g>
<g>
</g>
</svg>
