<?xml version="1.0" encoding="iso-8859-1"?>
<!-- Generator: Adobe Illustrator 18.0.0, SVG Export Plug-In . SVG Version: 6.00 Build 0)  -->
<!DOCTYPE svg PUBLIC "-//W3C//DTD SVG 1.1//EN" "http://www.w3.org/Graphics/SVG/1.1/DTD/svg11.dtd">
<svg version="1.1" id="Capa_1" xmlns="http://www.w3.org/2000/svg" xmlns:xlink="http://www.w3.org/1999/xlink" x="0px" y="0px"
	 viewBox="0 0 418.771 418.771" style="enable-background:new 0 0 418.771 418.771;" xml:space="preserve">
<g>
	<g id="XMLID_4_">
		<g>
			<polygon style="fill:#86A9F7;" points="209.379,184.775 214.629,207.085 204.129,207.085 			"/>
			<path style="fill:#E5D665;" d="M214.119,109.125l28.28,120.18h-7.13l-18.59-79c-0.79-3.38-3.82-5.78-7.3-5.78
				c-3.48,0-6.5,2.4-7.3,5.78l-18.59,79h-7.12l28.28-120.18H214.119z"/>
			<path style="fill:#86A9F7;" d="M382.889,134.525v269h-21.47l-11.02-36c-0.97-3.15-3.88-5.3-7.17-5.3c-3.3,0-6.21,2.15-7.17,5.3
				l-11.03,36H35.889v-269h22.92l14.63,47.76c0.96,3.15,3.87,5.31,7.17,5.31c1.64,0,3.2-0.54,4.46-1.47
				c1.26-0.93,2.22-2.26,2.71-3.84l8.63-28.16l5.24,17.11c0.96,3.15,3.87,5.31,7.17,5.31c3.29,0,6.2-2.16,7.17-5.31l11.24-36.71
				h56.03l-23.66,100.56c-0.53,2.23,0,4.58,1.42,6.38c1.42,1.79,3.59,2.84,5.88,2.84h1.8l-10.49,44.57
				c-0.95,4.03,1.55,8.07,5.59,9.02c0.57,0.13,1.15,0.2,1.72,0.2c3.4,0,6.48-2.33,7.29-5.78l11.3-48.01h5.32
				c3.48,0,6.51-2.39,7.3-5.78l3.87-16.44h17.56l3.87,16.44c0.8,3.39,3.82,5.78,7.3,5.78h5.33l11.3,48.01
				c0.81,3.45,3.89,5.78,7.29,5.78c0.57,0,1.15-0.07,1.72-0.2c4.04-0.95,6.54-4.99,5.59-9.02l-10.49-44.57h1.8
				c2.29,0,4.45-1.05,5.87-2.84c1.43-1.8,1.95-4.15,1.43-6.38l-23.67-100.56H382.889z M348.929,301.585v-7.26
				c0-9.26-2.07-18.14-6.16-26.39c-1.84-3.71-6.34-5.23-10.05-3.39c-3.71,1.84-5.23,6.34-3.39,10.05c3.05,6.16,4.6,12.8,4.6,19.73
				v7.26c0,4.15,3.36,7.5,7.5,7.5C345.569,309.085,348.929,305.735,348.929,301.585z M332.609,345.265c2.85-3,2.72-7.75-0.28-10.6
				c-3.01-2.85-7.76-2.72-10.61,0.28c-6.21,6.54-14.12,11-22.87,12.89c-4.05,0.87-6.63,4.86-5.76,8.91
				c0.76,3.51,3.87,5.92,7.33,5.92c0.52,0,1.05-0.06,1.58-0.17C313.729,359.975,324.309,354.015,332.609,345.265z M311.879,246.805
				c1.21-3.96-1.01-8.15-4.97-9.37c-5.64-1.73-11.52-2.61-17.48-2.61c-4.14,0-7.5,3.36-7.5,7.5s3.36,7.5,7.5,7.5
				c4.46,0,8.86,0.66,13.08,1.95c0.73,0.23,1.47,0.33,2.2,0.33C307.919,252.105,310.889,250.035,311.879,246.805z M265.799,356.325
				c0-4.14-3.36-7.5-7.5-7.5h-31.16c-4.14,0-7.5,3.36-7.5,7.5c0,4.14,3.36,7.5,7.5,7.5h31.16
				C262.439,363.825,265.799,360.465,265.799,356.325z M192.429,356.325c0-4.14-3.36-7.5-7.5-7.5h-15.5c-4.14,0-7.5,3.36-7.5,7.5
				c0,4.14,3.36,7.5,7.5,7.5h15.5C189.069,363.825,192.429,360.465,192.429,356.325z M157.429,338.325c2.93-2.93,2.93-7.68,0-10.61
				c-2.93-2.93-7.68-2.93-10.61,0l-16.69,16.7l-16.7-16.7c-2.93-2.93-7.68-2.93-10.61,0s-2.93,7.68,0,10.61l16.7,16.7l-16.7,16.69
				c-2.93,2.93-2.93,7.68,0,10.61c1.47,1.46,3.39,2.2,5.31,2.2c1.92,0,3.84-0.74,5.3-2.2l16.7-16.7l16.69,16.7
				c1.47,1.46,3.39,2.2,5.31,2.2s3.84-0.74,5.3-2.2c2.93-2.93,2.93-7.68,0-10.61l-16.7-16.69L157.429,338.325z"/>
			<path style="fill:#4D4D4D;" d="M397.889,127.025v284c0,4.14-3.36,7.5-7.5,7.5h-34.51c-3.3,0-6.21-2.16-7.17-5.31l-5.48-17.88
				l-5.48,17.88c-0.97,3.15-3.88,5.31-7.17,5.31H28.389c-4.15,0-7.5-3.36-7.5-7.5v-284c0-4.15,3.35-7.5,7.5-7.5h35.97
				c3.29,0,6.2,2.15,7.17,5.3l9.08,29.66l8.63-28.16c0.48-1.57,1.45-2.9,2.71-3.83c1.26-0.93,2.81-1.47,4.46-1.47
				c3.29,0,6.2,2.15,7.17,5.3l5.24,17.11l5.7-18.61c0.96-3.15,3.87-5.3,7.17-5.3h65.1l3.51-14.93
				c-13.93-7.01-23.52-21.43-23.52-38.06c0-20.93,15.18-38.37,35.1-41.93V7.755c0-4.15,3.36-7.5,7.5-7.5s7.5,3.35,7.5,7.5v16.85
				c19.92,3.56,35.1,21,35.1,41.93c0,16.63-9.59,31.05-23.52,38.06l3.51,14.93h158.42
				C394.529,119.525,397.889,122.875,397.889,127.025z M382.889,403.525v-269h-147.39l23.67,100.56c0.52,2.23,0,4.58-1.43,6.38
				c-1.42,1.79-3.58,2.84-5.87,2.84h-1.8l10.49,44.57c0.95,4.03-1.55,8.07-5.59,9.02c-0.57,0.13-1.15,0.2-1.72,0.2
				c-3.4,0-6.48-2.33-7.29-5.78l-11.3-48.01h-5.33c-3.48,0-6.5-2.39-7.3-5.78l-3.87-16.44h-17.56l-3.87,16.44
				c-0.79,3.39-3.82,5.78-7.3,5.78h-5.32l-11.3,48.01c-0.81,3.45-3.89,5.78-7.29,5.78c-0.57,0-1.15-0.07-1.72-0.2
				c-4.04-0.95-6.54-4.99-5.59-9.02l10.49-44.57h-1.8c-2.29,0-4.46-1.05-5.88-2.84c-1.42-1.8-1.95-4.15-1.42-6.38l23.66-100.56
				h-56.03l-11.24,36.71c-0.97,3.15-3.88,5.31-7.17,5.31c-3.3,0-6.21-2.16-7.17-5.31l-5.24-17.11l-8.63,28.16
				c-0.49,1.58-1.45,2.91-2.71,3.84c-1.26,0.93-2.82,1.47-4.46,1.47c-3.3,0-6.21-2.16-7.17-5.31l-14.63-47.76h-22.92v269h289.14
				l11.03-36c0.96-3.15,3.87-5.3,7.17-5.3c3.29,0,6.2,2.15,7.17,5.3l11.02,36H382.889z M242.399,229.305l-28.28-120.18h-9.47
				l-28.28,120.18h7.12l18.59-79c0.8-3.38,3.82-5.78,7.3-5.78c3.48,0,6.51,2.4,7.3,5.78l18.59,79H242.399z M236.979,66.535
				c0-12.62-8.52-23.28-20.1-26.56v9.93c0,4.14-3.36,7.5-7.5,7.5s-7.5-3.36-7.5-7.5v-9.93c-11.58,3.28-20.1,13.94-20.1,26.56
				c0,15.21,12.38,27.59,27.6,27.59S236.979,81.745,236.979,66.535z M214.629,207.085l-5.25-22.31l-5.25,22.31H214.629z"/>
			<path style="fill:#4D4D4D;" d="M348.929,294.325v7.26c0,4.15-3.36,7.5-7.5,7.5c-4.14,0-7.5-3.35-7.5-7.5v-7.26
				c0-6.93-1.55-13.57-4.6-19.73c-1.84-3.71-0.32-8.21,3.39-10.05c3.71-1.84,8.21-0.32,10.05,3.39
				C346.859,276.185,348.929,285.065,348.929,294.325z"/>
			<path style="fill:#4D4D4D;" d="M332.329,334.665c3,2.85,3.13,7.6,0.28,10.6c-8.3,8.75-18.88,14.71-30.61,17.23
				c-0.53,0.11-1.06,0.17-1.58,0.17c-3.46,0-6.57-2.41-7.33-5.92c-0.87-4.05,1.71-8.04,5.76-8.91c8.75-1.89,16.66-6.35,22.87-12.89
				C324.569,331.945,329.319,331.815,332.329,334.665z"/>
			<path style="fill:#4D4D4D;" d="M306.909,237.435c3.96,1.22,6.18,5.41,4.97,9.37c-0.99,3.23-3.96,5.3-7.17,5.3
				c-0.73,0-1.47-0.1-2.2-0.33c-4.22-1.29-8.62-1.95-13.08-1.95c-4.14,0-7.5-3.36-7.5-7.5s3.36-7.5,7.5-7.5
				C295.389,234.825,301.269,235.705,306.909,237.435z"/>
			<path style="fill:#4D4D4D;" d="M258.299,348.825c4.14,0,7.5,3.36,7.5,7.5c0,4.14-3.36,7.5-7.5,7.5h-31.16
				c-4.14,0-7.5-3.36-7.5-7.5c0-4.14,3.36-7.5,7.5-7.5H258.299z"/>
			<path style="fill:#4D4D4D;" d="M184.929,348.825c4.14,0,7.5,3.36,7.5,7.5c0,4.14-3.36,7.5-7.5,7.5h-15.5
				c-4.14,0-7.5-3.36-7.5-7.5c0-4.14,3.36-7.5,7.5-7.5H184.929z"/>
			<path style="fill:#4D4D4D;" d="M157.429,327.715c2.93,2.93,2.93,7.68,0,10.61l-16.7,16.7l16.7,16.69c2.93,2.93,2.93,7.68,0,10.61
				c-1.46,1.46-3.38,2.2-5.3,2.2s-3.84-0.74-5.31-2.2l-16.69-16.7l-16.7,16.7c-1.46,1.46-3.38,2.2-5.3,2.2
				c-1.92,0-3.84-0.74-5.31-2.2c-2.93-2.93-2.93-7.68,0-10.61l16.7-16.69l-16.7-16.7c-2.93-2.93-2.93-7.68,0-10.61
				s7.68-2.93,10.61,0l16.7,16.7l16.69-16.7C149.749,324.785,154.499,324.785,157.429,327.715z"/>
		</g>
		<g>
		</g>
	</g>
</g>
<g>
</g>
<g>
</g>
<g>
</g>
<g>
</g>
<g>
</g>
<g>
</g>
<g>
</g>
<g>
</g>
<g>
</g>
<g>
</g>
<g>
</g>
<g>
</g>
<g>
</g>
<g>
</g>
<g>
</g>
</svg>
