<?xml version="1.0" encoding="iso-8859-1"?>
<!-- Generator: Adobe Illustrator 18.0.0, SVG Export Plug-In . SVG Version: 6.00 Build 0)  -->
<!DOCTYPE svg PUBLIC "-//W3C//DTD SVG 1.1//EN" "http://www.w3.org/Graphics/SVG/1.1/DTD/svg11.dtd">
<svg version="1.1" id="Capa_1" xmlns="http://www.w3.org/2000/svg" xmlns:xlink="http://www.w3.org/1999/xlink" x="0px" y="0px"
	 viewBox="0 0 415.98 415.98" style="enable-background:new 0 0 415.98 415.98;" xml:space="preserve">
<g>
	<g id="XMLID_13_">
		<g>
			<rect x="184.743" y="15.249" style="fill:#E5D665;" width="46.5" height="10.5"/>
			<path style="fill:#E8465A;" d="M368.393,40.749v145.22h-0.86c-4.15,0-7.5,3.36-7.5,7.5v2.83h-47.96
				c-1.23-1.02-2.15-1.93-2.86-2.82c-1.87-2.34-3.29-5.82-4.8-9.5c-2.41-5.88-5.13-12.54-10.84-17.1
				c-5.67-4.53-12.76-5.71-19.01-6.75c-3.94-0.66-7.66-1.28-10.39-2.59c-2.63-1.27-5.37-3.76-8.28-6.39
				c-4.75-4.29-10.13-9.16-17.36-10.8c-6.97-1.59-13.81,0.41-19.84,2.17c-3.89,1.14-7.57,2.22-10.7,2.22s-6.81-1.08-10.71-2.22
				c-6.03-1.76-12.86-3.76-19.83-2.17c-7.23,1.64-12.62,6.51-17.36,10.8c-2.91,2.63-5.66,5.12-8.28,6.39
				c-2.73,1.31-6.46,1.93-10.4,2.59c-6.25,1.04-13.33,2.22-19.01,6.75c-5.71,4.56-8.43,11.22-10.84,17.1
				c-1.5,3.68-2.93,7.16-4.8,9.51c-0.71,0.89-1.63,1.79-2.86,2.81h-47.95v-2.83c0-4.14-3.36-7.5-7.5-7.5h-0.86V40.749h129.65h61.5
				H368.393z M349.443,166.129c3.82-1.59,5.64-5.98,4.06-9.8c-1.59-3.83-5.97-5.65-9.8-4.06l-25.32,10.49
				c-3.83,1.58-5.65,5.97-4.06,9.8c1.19,2.89,3.99,4.63,6.93,4.63c0.96,0,1.93-0.19,2.87-0.57L349.443,166.129z M314.813,120.379
				c2.93-2.93,2.93-7.68,0-10.61s-7.68-2.93-10.61,0.01l-12.73,12.74c-2.93,2.93-2.92,7.67,0.01,10.6c1.46,1.47,3.38,2.2,5.3,2.2
				c1.92,0,3.84-0.74,5.3-2.2L314.813,120.379z M272.323,80.899c1.58-3.83-0.24-8.22-4.06-9.8c-3.83-1.59-8.22,0.23-9.8,4.06
				l-10.49,25.32c-1.59,3.82,0.23,8.21,4.06,9.8c0.94,0.38,1.91,0.57,2.86,0.57c2.95,0,5.74-1.74,6.94-4.63L272.323,80.899z
				 M215.493,90.249v-18c0-4.15-3.36-7.5-7.5-7.5c-4.15,0-7.5,3.35-7.5,7.5v18c0,4.14,3.35,7.5,7.5,7.5
				C212.133,97.749,215.493,94.389,215.493,90.249z M163.953,110.279c3.82-1.59,5.64-5.98,4.06-9.8l-10.49-25.32
				c-1.59-3.83-5.98-5.65-9.8-4.06c-3.83,1.58-5.65,5.97-4.06,9.8l10.49,25.32c1.19,2.89,3.99,4.63,6.93,4.63
				C162.043,110.849,163.013,110.659,163.953,110.279z M124.503,133.119c2.93-2.93,2.93-7.67,0-10.6l-12.73-12.74
				c-2.93-2.93-7.67-2.94-10.6-0.01s-2.94,7.68-0.01,10.61l12.73,12.74c1.47,1.46,3.39,2.2,5.31,2.2
				S123.033,134.589,124.503,133.119z M101.663,172.559c1.58-3.83-0.24-8.22-4.06-9.8l-25.32-10.49c-3.83-1.59-8.22,0.23-9.8,4.06
				c-1.59,3.82,0.23,8.21,4.06,9.8l25.32,10.49c0.94,0.38,1.91,0.57,2.86,0.57C97.673,177.189,100.463,175.449,101.663,172.559z"/>
			<path style="fill:#E8465A;" d="M360.033,244.949v110.21c-14.36,10.63-24.27,26.93-26.38,45.57H82.333
				c-2.12-18.64-12.03-34.94-26.38-45.57v-110.21h108.56v43.11c0,4.14,3.36,7.5,7.5,7.5h71.95c4.15,0,7.5-3.36,7.5-7.5v-43.11
				H360.033z"/>
			<path style="fill:#F7DE63;" d="M207.993,238.739c4.08,0,7.41,3.32,7.41,7.41s-3.33,7.41-7.41,7.41c-4.09,0-7.42-3.32-7.42-7.41
				S203.903,238.739,207.993,238.739z"/>
			<path style="fill:#E0974F;" d="M236.463,211.739v68.82h-56.95v-68.82H236.463z M230.403,246.149c0-12.36-10.06-22.41-22.41-22.41
				c-12.36,0-22.42,10.05-22.42,22.41s10.06,22.41,22.42,22.41C220.343,268.559,230.403,258.509,230.403,246.149z"/>
			<path style="fill:#E0974F;" d="M40.953,200.969v145.87c-5.27-2.08-10.86-3.51-16.68-4.17v-141.7H40.953z"/>
			<polygon style="fill:#E0974F;" points="164.513,211.299 164.513,229.949 55.953,229.949 55.953,211.299 57.993,211.299 			"/>
			<rect x="251.463" y="211.299" style="fill:#E0974F;" width="108.57" height="18.65"/>
			<path style="fill:#E0974F;" d="M391.713,200.969v141.7c-5.83,0.66-11.42,2.09-16.68,4.17v-145.87H391.713z"/>
			<path style="fill:#E5D665;" d="M391.713,357.789v42.94h-24.18h-18.77C352.043,378.599,369.583,361.059,391.713,357.789z"/>
			<path style="fill:#E5D665;" d="M67.213,400.729h-18.76h-24.18v-42.94C46.393,361.069,63.933,378.599,67.213,400.729z"/>
			<path style="fill:#E5D665;" d="M293.433,196.299h-170.89c1.08-2.19,2-4.43,2.91-6.64c1.88-4.6,3.65-8.94,6.31-11.06
				c2.63-2.1,7.23-2.86,12.11-3.67c4.81-0.81,9.79-1.63,14.46-3.88c4.56-2.21,8.25-5.55,11.82-8.77c3.71-3.36,7.22-6.53,10.62-7.31
				c3.17-0.72,7.61,0.58,12.3,1.95c4.52,1.32,9.64,2.82,14.92,2.82s10.4-1.5,14.92-2.82c4.69-1.37,9.12-2.67,12.3-1.94
				c3.4,0.77,6.9,3.94,10.61,7.3c3.57,3.22,7.26,6.56,11.83,8.77c4.66,2.25,9.64,3.07,14.45,3.88c4.88,0.81,9.49,1.57,12.12,3.67
				c2.65,2.12,4.43,6.46,6.3,11.05C291.433,191.859,292.353,194.109,293.433,196.299z"/>
			<path style="fill:#4D4D4D;" d="M406.713,193.469v214.76c0,4.14-3.36,7.5-7.5,7.5h-31.68H48.453h-31.68c-4.15,0-7.5-3.36-7.5-7.5
				v-214.76c0-4.14,3.35-7.5,7.5-7.5h15.82V33.249c0-4.14,3.35-7.5,7.5-7.5h129.65v-18c0-4.14,3.36-7.5,7.5-7.5h61.5
				c4.14,0,7.5,3.36,7.5,7.5v18h129.65c4.14,0,7.5,3.36,7.5,7.5v152.72h15.82C403.353,185.969,406.713,189.329,406.713,193.469z
				 M391.713,400.729v-42.94c-22.13,3.27-39.67,20.81-42.95,42.94h18.77H391.713z M391.713,342.669v-141.7h-16.68v145.87
				C380.293,344.759,385.883,343.329,391.713,342.669z M368.393,185.969V40.749h-129.65h-61.5H47.593v145.22h0.86
				c4.14,0,7.5,3.36,7.5,7.5v2.83h47.95c1.23-1.02,2.15-1.92,2.86-2.81c1.87-2.35,3.3-5.83,4.8-9.51
				c2.41-5.88,5.13-12.54,10.84-17.1c5.68-4.53,12.76-5.71,19.01-6.75c3.94-0.66,7.67-1.28,10.4-2.59c2.62-1.27,5.37-3.76,8.28-6.39
				c4.74-4.29,10.13-9.16,17.36-10.8c6.97-1.59,13.8,0.41,19.83,2.17c3.9,1.14,7.58,2.22,10.71,2.22s6.81-1.08,10.7-2.22
				c6.03-1.76,12.87-3.76,19.84-2.17c7.23,1.64,12.61,6.51,17.36,10.8c2.91,2.63,5.65,5.12,8.28,6.39
				c2.73,1.31,6.45,1.93,10.39,2.59c6.25,1.04,13.34,2.22,19.01,6.75c5.71,4.56,8.43,11.22,10.84,17.1c1.51,3.68,2.93,7.16,4.8,9.5
				c0.71,0.89,1.63,1.8,2.86,2.82h47.96v-2.83c0-4.14,3.35-7.5,7.5-7.5H368.393z M360.033,355.159v-110.21h-108.57v43.11
				c0,4.14-3.35,7.5-7.5,7.5h-71.95c-4.14,0-7.5-3.36-7.5-7.5v-43.11H55.953v110.21c14.35,10.63,24.26,26.93,26.38,45.57h251.32
				C335.763,382.089,345.673,365.789,360.033,355.159z M360.033,229.949v-18.65h-108.57v18.65H360.033z M122.543,196.299h170.89
				c-1.08-2.19-2-4.44-2.91-6.65c-1.87-4.59-3.65-8.93-6.3-11.05c-2.63-2.1-7.24-2.86-12.12-3.67c-4.81-0.81-9.79-1.63-14.45-3.88
				c-4.57-2.21-8.26-5.55-11.83-8.77c-3.71-3.36-7.21-6.53-10.61-7.3c-3.18-0.73-7.61,0.57-12.3,1.94
				c-4.52,1.32-9.64,2.82-14.92,2.82s-10.4-1.5-14.92-2.82c-4.69-1.37-9.13-2.67-12.3-1.95c-3.4,0.78-6.91,3.95-10.62,7.31
				c-3.57,3.22-7.26,6.56-11.82,8.77c-4.67,2.25-9.65,3.07-14.46,3.88c-4.88,0.81-9.48,1.57-12.11,3.67
				c-2.66,2.12-4.43,6.46-6.31,11.06C124.543,191.869,123.623,194.109,122.543,196.299z M236.463,280.559v-68.82h-56.95v68.82
				H236.463z M231.243,25.749v-10.5h-46.5v10.5H231.243z M164.513,229.949v-18.65H57.993h-2.04v18.65H164.513z M48.453,400.729
				h18.76c-3.28-22.13-20.82-39.66-42.94-42.94v42.94H48.453z M40.953,346.839v-145.87h-16.68v141.7
				C30.093,343.329,35.683,344.759,40.953,346.839z"/>
			<path style="fill:#E5D665;" d="M353.503,156.329c1.58,3.82-0.24,8.21-4.06,9.8l-25.32,10.49c-0.94,0.38-1.91,0.57-2.87,0.57
				c-2.94,0-5.74-1.74-6.93-4.63c-1.59-3.83,0.23-8.22,4.06-9.8l25.32-10.49C347.533,150.679,351.913,152.499,353.503,156.329z"/>
			<path style="fill:#E5D665;" d="M314.813,109.769c2.93,2.93,2.93,7.68,0,10.61l-12.73,12.74c-1.46,1.46-3.38,2.2-5.3,2.2
				c-1.92,0-3.84-0.73-5.3-2.2c-2.93-2.93-2.94-7.67-0.01-10.6l12.73-12.74C307.133,106.839,311.883,106.839,314.813,109.769z"/>
			<path style="fill:#E5D665;" d="M268.263,71.099c3.82,1.58,5.64,5.97,4.06,9.8l-10.49,25.32c-1.2,2.89-3.99,4.63-6.94,4.63
				c-0.95,0-1.92-0.19-2.86-0.57c-3.83-1.59-5.65-5.98-4.06-9.8l10.49-25.32C260.043,71.329,264.433,69.509,268.263,71.099z"/>
			<path style="fill:#4D4D4D;" d="M207.993,223.739c12.35,0,22.41,10.05,22.41,22.41s-10.06,22.41-22.41,22.41
				c-12.36,0-22.42-10.05-22.42-22.41S195.633,223.739,207.993,223.739z M215.403,246.149c0-4.09-3.33-7.41-7.41-7.41
				c-4.09,0-7.42,3.32-7.42,7.41s3.33,7.41,7.42,7.41C212.073,253.559,215.403,250.239,215.403,246.149z"/>
			<path style="fill:#E5D665;" d="M215.493,72.249v18c0,4.14-3.36,7.5-7.5,7.5c-4.15,0-7.5-3.36-7.5-7.5v-18
				c0-4.15,3.35-7.5,7.5-7.5C212.133,64.749,215.493,68.099,215.493,72.249z"/>
			<path style="fill:#E5D665;" d="M168.013,100.479c1.58,3.82-0.24,8.21-4.06,9.8c-0.94,0.38-1.91,0.57-2.87,0.57
				c-2.94,0-5.74-1.74-6.93-4.63l-10.49-25.32c-1.59-3.83,0.23-8.22,4.06-9.8c3.82-1.59,8.21,0.23,9.8,4.06L168.013,100.479z"/>
			<path style="fill:#E5D665;" d="M124.503,122.519c2.93,2.93,2.93,7.67,0,10.6c-1.47,1.47-3.38,2.2-5.3,2.2s-3.84-0.74-5.31-2.2
				l-12.73-12.74c-2.93-2.93-2.92-7.68,0.01-10.61s7.67-2.92,10.6,0.01L124.503,122.519z"/>
			<path style="fill:#E5D665;" d="M97.603,162.759c3.82,1.58,5.64,5.97,4.06,9.8c-1.2,2.89-3.99,4.63-6.94,4.63
				c-0.95,0-1.92-0.19-2.86-0.57l-25.32-10.49c-3.83-1.59-5.65-5.98-4.06-9.8c1.58-3.83,5.97-5.65,9.8-4.06L97.603,162.759z"/>
		</g>
		<g>
		</g>
	</g>
</g>
<g>
</g>
<g>
</g>
<g>
</g>
<g>
</g>
<g>
</g>
<g>
</g>
<g>
</g>
<g>
</g>
<g>
</g>
<g>
</g>
<g>
</g>
<g>
</g>
<g>
</g>
<g>
</g>
<g>
</g>
</svg>
