<?xml version="1.0" encoding="iso-8859-1"?>
<!-- Generator: Adobe Illustrator 18.0.0, SVG Export Plug-In . SVG Version: 6.00 Build 0)  -->
<!DOCTYPE svg PUBLIC "-//W3C//DTD SVG 1.1//EN" "http://www.w3.org/Graphics/SVG/1.1/DTD/svg11.dtd">
<svg version="1.1" id="Capa_1" xmlns="http://www.w3.org/2000/svg" xmlns:xlink="http://www.w3.org/1999/xlink" x="0px" y="0px"
	 viewBox="0 0 460.135 460.135" style="enable-background:new 0 0 460.135 460.135;" xml:space="preserve">
<g>
	<g id="XMLID_33_">
		<g>
			<path style="fill:#E6E6E6;" d="M256.569,322.718l21.63,11.08c-10.69,9.24-22.7,17.15-35.84,23.4
				c-3.99-5.38-8.77-10.26-14.27-14.48c-3.28-2.52-7.99-1.9-10.51,1.39c-2.52,3.28-1.9,7.99,1.38,10.51
				c12.19,9.36,19.97,22.8,22.04,37.7c-27.99-3.93-49.59-28.03-49.59-57.08c0-4.14-3.36-7.5-7.5-7.5s-7.5,3.36-7.5,7.5
				c0,13.47,3.7,26.09,10.11,36.91c-4.25,0.34-8.52,0.51-12.78,0.51c-69.5,0-129.95-45.04-151.4-108.76
				C103.519,265.448,184.289,285.708,256.569,322.718z"/>
			<path style="fill:#5B79CE;" d="M351.699,212.948c25.5-22.92,64.44-22.92,89.94,0
				C416.139,235.868,377.199,235.868,351.699,212.948z"/>
			<path style="fill:#5B79CE;" d="M340.949,112.258c22.93,25.51,22.93,64.44,0,89.95
				C318.029,176.698,318.029,137.768,340.949,112.258z"/>
			<path style="fill:#5B79CE;" d="M26.799,220.448h306.48c-1.82,38.9-17.68,75.02-43.6,102.38l-26.28-13.46
				c-75.64-38.74-160.34-59.62-245.32-60.54c-1.15-5-2.07-10.1-2.73-15.28c-0.44-3.38,0.56-6.64,2.8-9.19
				C20.369,221.838,23.439,220.448,26.799,220.448z M109.349,241.058c0.31-2.98-1.29-5.94-3.93-7.34c-2.97-1.59-6.76-0.96-9.05,1.53
				c-4.32,4.7-0.87,12.57,5.52,12.57C105.709,247.818,108.969,244.848,109.349,241.058z"/>
			<path style="fill:#4D4D4D;" d="M457.689,207.648c2.93,2.93,2.93,7.68,0,10.61l-2.81,2.8c-16.05,16.05-37.13,24.08-58.21,24.08
				c-17.24,0-34.47-5.38-48.96-16.1c-5.57,60.73-42.46,114.33-97.68,141.12c4.25,9.33,6.52,19.58,6.52,30.22
				c0,4.15-3.36,7.5-7.5,7.5c-20.28,0-38.63-8.35-51.82-21.8c-7.76,1.05-15.65,1.58-23.49,1.58c-87.61,0-162.1-65.43-173.27-152.2
				c-0.98-7.6,1.36-15.26,6.41-21c5.04-5.73,12.3-9.01,19.92-9.01h297.53c-23.26-32.16-20.43-77.48,8.51-106.43l2.81-2.8
				c1.41-1.41,3.31-2.2,5.3-2.2c1.99,0,3.9,0.79,5.31,2.2l2.8,2.8c15.55,15.55,24.11,36.23,24.11,58.22c0,9.94-1.76,19.6-5.11,28.65
				c29.22-10.79,63.39-4.48,86.82,18.95L457.689,207.648z M441.639,212.948c-25.5-22.92-64.44-22.92-89.94,0
				C377.199,235.868,416.139,235.868,441.639,212.948z M340.949,202.208c22.93-25.51,22.93-64.44,0-89.95
				C318.029,137.768,318.029,176.698,340.949,202.208z M333.279,220.448H26.799c-3.36,0-6.43,1.39-8.65,3.91
				c-2.24,2.55-3.24,5.81-2.8,9.19c0.66,5.18,1.58,10.28,2.73,15.28c84.98,0.92,169.68,21.8,245.32,60.54l26.28,13.46
				C315.599,295.468,331.459,259.348,333.279,220.448z M278.199,333.798l-21.63-11.08c-72.28-37.01-153.05-57.27-234.23-58.82
				c21.45,63.72,81.9,108.76,151.4,108.76c4.26,0,8.53-0.17,12.78-0.51c-6.41-10.82-10.11-23.44-10.11-36.91
				c0-4.14,3.36-7.5,7.5-7.5s7.5,3.36,7.5,7.5c0,29.05,21.6,53.15,49.59,57.08c-2.07-14.9-9.85-28.34-22.04-37.7
				c-3.28-2.52-3.9-7.23-1.38-10.51c2.52-3.29,7.23-3.91,10.51-1.39c5.5,4.22,10.28,9.1,14.27,14.48
				C255.499,350.948,267.509,343.038,278.199,333.798z"/>
			<path style="fill:#4D4D4D;" d="M262.109,105.058c4.14,0,7.5,3.36,7.5,7.5c0,4.14-3.36,7.5-7.5,7.5c-1.98,0-3.97,0.08-5.93,0.25
				c-0.22,0.02-0.43,0.03-0.65,0.03c-3.85,0-7.13-2.96-7.46-6.87c-0.35-4.13,2.71-7.76,6.84-8.11
				C257.289,105.158,259.709,105.058,262.109,105.058z"/>
			<path style="fill:#4D4D4D;" d="M234.779,117.178c1.85,3.71,0.34,8.21-3.37,10.05c-23.64,11.74-38.32,35.44-38.32,61.85
				c0,4.14-3.36,7.5-7.5,7.5c-4.14,0-7.5-3.36-7.5-7.5c0-32.14,17.87-60.99,46.64-75.28
				C228.439,111.948,232.939,113.468,234.779,117.178z"/>
			<path style="fill:#4D4D4D;" d="M181.429,132.268c0.79,4.07-1.86,8.01-5.92,8.8c-0.49,0.1-0.97,0.15-1.45,0.15
				c-3.52,0-6.65-2.49-7.35-6.06c-0.47-2.39-1.04-4.78-1.7-7.13c-1.11-3.98,1.21-8.12,5.2-9.24c3.99-1.12,8.13,1.21,9.25,5.2
				C180.219,126.708,180.879,129.498,181.429,132.268z"/>
			<path style="fill:#4D4D4D;" d="M169.769,100.528c2.02,3.61,0.73,8.18-2.88,10.21c-1.16,0.64-2.42,0.95-3.66,0.95
				c-2.63,0-5.18-1.38-6.55-3.84c-10.52-18.81-27.44-33.4-47.65-41.08c-3.87-1.47-5.82-5.8-4.35-9.68c1.47-3.87,5.81-5.82,9.68-4.34
				C137.859,61.678,157.539,78.648,169.769,100.528z"/>
			<path style="fill:#4D4D4D;" d="M169.759,189.078c0,4.14-3.36,7.5-7.5,7.5s-7.5-3.36-7.5-7.5c0-15.85-5.49-31.33-15.46-43.57
				c-2.62-3.21-2.13-7.94,1.08-10.55c3.21-2.62,7.94-2.13,10.55,1.08C163.069,150.948,169.759,169.788,169.759,189.078z"/>
			<path style="fill:#4D4D4D;" d="M134.979,120.968c3.36,2.43,4.11,7.12,1.68,10.47c-1.47,2.03-3.76,3.11-6.08,3.11
				c-1.53,0-3.06-0.47-4.39-1.43c-11.81-8.55-25.8-13.06-40.45-13.06c-4.14,0-7.5-3.36-7.5-7.5c0-4.14,3.36-7.5,7.5-7.5
				C103.569,105.058,120.599,110.558,134.979,120.968z"/>
			<path style="fill:#4D4D4D;" d="M105.419,233.718c2.64,1.4,4.24,4.36,3.93,7.34c-0.38,3.79-3.64,6.76-7.46,6.76
				c-6.39,0-9.84-7.87-5.52-12.57C98.659,232.758,102.449,232.128,105.419,233.718z"/>
		</g>
		<g>
		</g>
	</g>
</g>
<g>
</g>
<g>
</g>
<g>
</g>
<g>
</g>
<g>
</g>
<g>
</g>
<g>
</g>
<g>
</g>
<g>
</g>
<g>
</g>
<g>
</g>
<g>
</g>
<g>
</g>
<g>
</g>
<g>
</g>
</svg>
