<?xml version="1.0" encoding="iso-8859-1"?>
<!-- Generator: Adobe Illustrator 18.0.0, SVG Export Plug-In . SVG Version: 6.00 Build 0)  -->
<!DOCTYPE svg PUBLIC "-//W3C//DTD SVG 1.1//EN" "http://www.w3.org/Graphics/SVG/1.1/DTD/svg11.dtd">
<svg version="1.1" id="Capa_1" xmlns="http://www.w3.org/2000/svg" xmlns:xlink="http://www.w3.org/1999/xlink" x="0px" y="0px"
	 viewBox="0 0 418.98 418.98" style="enable-background:new 0 0 418.98 418.98;" xml:space="preserve">
<g>
	<g id="XMLID_4_">
		<g>
			<polygon style="fill:#AD723D;" points="237.083,379.729 243.303,403.729 175.683,403.729 181.893,379.729 			"/>
			<rect x="132.343" y="15.249" style="fill:#AD723D;" width="154.29" height="34.09"/>
			<path style="fill:#E0974F;" d="M271.483,64.339v144.68c0,11.7-5.61,22.85-15.01,29.82c-13.2,9.78-21.08,25.43-21.08,41.86v84.03
				h-51.81v-84.03c0-16.43-7.88-32.08-21.08-41.86c-9.39-6.97-15.01-18.12-15.01-29.82V64.339h11v58.91c0,4.14,3.36,7.5,7.5,7.5
				s7.5-3.36,7.5-7.5v-58.91H271.483z M263.483,154.369v-21.75c0-4.14-3.35-7.5-7.5-7.5c-4.14,0-7.5,3.36-7.5,7.5v21.75
				c0,4.14,3.36,7.5,7.5,7.5C260.133,161.869,263.483,158.509,263.483,154.369z M200.493,201.239v-12c0-4.14-3.36-7.5-7.5-7.5
				s-7.5,3.36-7.5,7.5v12c0,4.14,3.36,7.5,7.5,7.5S200.493,205.379,200.493,201.239z M200.493,168.239v-66.4
				c0-4.14-3.36-7.5-7.5-7.5s-7.5,3.36-7.5,7.5v66.4c0,4.14,3.36,7.5,7.5,7.5S200.493,172.379,200.493,168.239z"/>
			<path style="fill:#4D4D4D;" d="M301.633,7.749v49.09c0,4.15-3.36,7.5-7.5,7.5h-7.65v144.68c0,16.43-7.88,32.08-21.08,41.87
				c-9.4,6.97-15.01,18.11-15.01,29.81v90.58l9.85,38.07c0.59,2.25,0.1,4.64-1.33,6.47c-1.42,1.84-3.61,2.91-5.93,2.91h-86.99
				c-2.32,0-4.51-1.07-5.93-2.91c-1.42-1.83-1.91-4.22-1.33-6.47l9.85-38.07v-90.58c0-11.7-5.61-22.85-15.01-29.81
				c-13.2-9.79-21.08-25.44-21.08-41.87V64.339h-7.65c-4.14,0-7.5-3.35-7.5-7.5V7.749c0-4.14,3.36-7.5,7.5-7.5h169.29
				C298.273,0.249,301.633,3.609,301.633,7.749z M286.633,49.339v-34.09h-154.29v34.09H286.633z M271.483,209.019V64.339h-97.99
				v58.91c0,4.14-3.36,7.5-7.5,7.5s-7.5-3.36-7.5-7.5v-58.91h-11v144.68c0,11.7,5.62,22.85,15.01,29.82
				c13.2,9.78,21.08,25.43,21.08,41.86v84.03h51.81v-84.03c0-16.43,7.88-32.08,21.08-41.86
				C265.873,231.869,271.483,220.719,271.483,209.019z M243.303,403.729l-6.22-24h-55.19l-6.21,24H243.303z"/>
			<path style="fill:#4D4D4D;" d="M263.483,132.619v21.75c0,4.14-3.35,7.5-7.5,7.5c-4.14,0-7.5-3.36-7.5-7.5v-21.75
				c0-4.14,3.36-7.5,7.5-7.5C260.133,125.119,263.483,128.479,263.483,132.619z"/>
			<path style="fill:#4D4D4D;" d="M200.493,189.239v12c0,4.14-3.36,7.5-7.5,7.5s-7.5-3.36-7.5-7.5v-12c0-4.14,3.36-7.5,7.5-7.5
				S200.493,185.099,200.493,189.239z"/>
			<path style="fill:#4D4D4D;" d="M200.493,101.839v66.4c0,4.14-3.36,7.5-7.5,7.5s-7.5-3.36-7.5-7.5v-66.4c0-4.14,3.36-7.5,7.5-7.5
				S200.493,97.699,200.493,101.839z"/>
		</g>
		<g>
		</g>
	</g>
</g>
<g>
</g>
<g>
</g>
<g>
</g>
<g>
</g>
<g>
</g>
<g>
</g>
<g>
</g>
<g>
</g>
<g>
</g>
<g>
</g>
<g>
</g>
<g>
</g>
<g>
</g>
<g>
</g>
<g>
</g>
</svg>
