<?xml version="1.0" encoding="iso-8859-1"?>
<!-- Generator: Adobe Illustrator 19.0.0, SVG Export Plug-In . SVG Version: 6.00 Build 0)  -->
<svg version="1.1" id="Capa_1" xmlns="http://www.w3.org/2000/svg" xmlns:xlink="http://www.w3.org/1999/xlink" x="0px" y="0px"
	 viewBox="0 0 512 512" style="enable-background:new 0 0 512 512;" xml:space="preserve">
<circle style="fill:#C4DEFF;" cx="255.999" cy="67.922" r="67.922"/>
<path style="fill:#A5CDFF;" d="M272.979,84.902c-35.555,0-64.682-27.332-67.629-62.125c-10.71,12.006-17.273,27.79-17.273,45.145
	c0,37.512,30.41,67.922,67.922,67.922s67.922-30.41,67.922-67.922c0-1.957-0.131-3.882-0.293-5.797
	C311.189,76.071,293.137,84.902,272.979,84.902z"/>
<circle style="fill:#D4F582;" cx="205.059" cy="152.82" r="67.922"/>
<path style="fill:#BEE86E;" d="M222.038,169.805c-35.555,0-64.682-27.332-67.629-62.125c-10.71,12.006-17.273,27.79-17.273,45.145
	c0,37.512,30.41,67.922,67.922,67.922s67.922-30.41,67.922-67.922c0-1.957-0.131-3.882-0.293-5.797
	C260.247,160.973,242.196,169.805,222.038,169.805z"/>
<circle style="fill:#FF8087;" cx="306.939" cy="152.82" r="67.922"/>
<path style="fill:#E6646E;" d="M323.921,169.805c-35.555,0-64.682-27.332-67.629-62.125c-10.71,12.006-17.273,27.79-17.273,45.145
	c0,37.512,30.41,67.922,67.922,67.922s67.922-30.41,67.922-67.922c0-1.957-0.131-3.882-0.293-5.797
	C362.13,160.973,344.078,169.805,323.921,169.805z"/>
<g>
	<path style="fill:#FFF0BE;" d="M162.606,220.746l87.709,287.047c1.714,5.609,9.654,5.609,11.368,0l87.709-287.047H162.606z"/>
	<path style="fill:#FFF0BE;" d="M349.392,220.746H162.606c-9.378,0-16.98-7.602-16.98-16.98l0,0c0-9.378,7.602-16.98,16.98-16.98
		h186.785c9.378,0,16.98,7.602,16.98,16.98l0,0C366.372,213.144,358.77,220.746,349.392,220.746z"/>
</g>
<path style="fill:#FFE17D;" d="M349.392,220.746H162.606l87.709,287.047c0.662,2.166,2.256,3.474,4.058,3.967L226.02,256.582
	c-1.118-10.059,6.756-18.856,16.877-18.856h101.307L349.392,220.746z"/>
<g>
</g>
<g>
</g>
<g>
</g>
<g>
</g>
<g>
</g>
<g>
</g>
<g>
</g>
<g>
</g>
<g>
</g>
<g>
</g>
<g>
</g>
<g>
</g>
<g>
</g>
<g>
</g>
<g>
</g>
</svg>
