<?xml version="1.0" encoding="iso-8859-1"?>
<!-- Generator: Adobe Illustrator 19.0.0, SVG Export Plug-In . SVG Version: 6.00 Build 0)  -->
<svg version="1.1" id="Capa_1" xmlns="http://www.w3.org/2000/svg" xmlns:xlink="http://www.w3.org/1999/xlink" x="0px" y="0px"
	 viewBox="0 0 512 512" style="enable-background:new 0 0 512 512;" xml:space="preserve">
<path style="fill:#C9C6CA;" d="M365.714,288.51h81.27c4.488,0,8.127,3.639,8.127,8.127v65.016h-89.397V288.51z"/>
<path style="fill:#9C969E;" d="M503.873,337.272c-4.492,0-8.127,3.635-8.127,8.127v8.127H365.714v16.254h130.032
	c8.96,0,16.254-7.294,16.254-16.254v-8.127C512,340.907,508.365,337.272,503.873,337.272z"/>
<path style="fill:#DBD9DC;" d="M357.587,369.78H65.016C29.109,369.78,0,340.671,0,304.764V158.478
	c0-35.907,29.109-65.016,65.016-65.016h292.571c35.907,0,65.016,29.109,65.016,65.016v146.286
	C422.603,340.671,393.495,369.78,357.587,369.78z"/>
<path style="fill:#C9C6CA;" d="M365.714,353.526V182.859c0-22.442-18.193-40.635-40.635-40.635
	c-22.442,0-40.635,18.193-40.635,40.635v170.667h-16.976c-3.001,0-5.641-1.721-7.156-4.312
	c-9.852-16.853-28.074-28.195-49.011-28.195s-39.159,11.342-49.011,28.195c-1.514,2.591-4.154,4.312-7.156,4.312H65.016
	c-26.931,0-48.762-21.831-48.762-48.762v-189.19C6.167,127.028,0,142.016,0,158.478v146.286c0,35.907,29.109,65.016,65.016,65.016
	h292.571c16.462,0,31.45-6.167,42.905-16.254H365.714z"/>
<g>
	<path style="fill:#9C969E;" d="M357.587,247.875h-65.016c-4.488,0-8.127-3.639-8.127-8.127v-48.762
		c0-4.488,3.639-8.127,8.127-8.127h65.016c4.488,0,8.127,3.639,8.127,8.127v48.762C365.714,244.236,362.076,247.875,357.587,247.875
		z"/>
	<path style="fill:#9C969E;" d="M203.175,264.129H73.143c-13.444,0-24.381-10.937-24.381-24.381v-48.762
		c0-13.444,10.937-24.381,24.381-24.381h130.032c13.444,0,24.381,10.937,24.381,24.381v48.762
		C227.556,253.192,216.619,264.129,203.175,264.129z"/>
</g>
<path style="fill:#FFFFFF;" d="M73.143,182.859c-4.484,0-8.127,3.643-8.127,8.127v48.762c0,4.484,3.643,8.127,8.127,8.127h130.032
	c4.484,0,8.127-3.643,8.127-8.127v-48.762c0-4.484-3.643-8.127-8.127-8.127L73.143,182.859L73.143,182.859z"/>
<path style="fill:#EDEBED;" d="M400.492,109.716c-11.454-10.087-26.442-16.254-42.905-16.254H65.016
	c-16.462,0-31.45,6.167-42.905,16.254H400.492z"/>
<g>
	<rect y="280.382" style="fill:#9C969E;" width="284.44" height="16.254"/>
	<rect x="365.71" y="280.382" style="fill:#9C969E;" width="56.889" height="16.254"/>
</g>
<rect x="300.7" y="199.112" style="fill:#FFFFFF;" width="48.762" height="32.508"/>
<rect x="130.03" y="182.862" style="fill:#9C969E;" width="16.254" height="65.02"/>
<rect x="130.03" y="182.862" style="fill:#867E88;" width="16.254" height="16.254"/>
<circle style="fill:#5D5360;" cx="211.3" cy="377.902" r="40.635"/>
<circle style="fill:#DBD9DC;" cx="211.3" cy="377.902" r="16.254"/>
<g>
</g>
<g>
</g>
<g>
</g>
<g>
</g>
<g>
</g>
<g>
</g>
<g>
</g>
<g>
</g>
<g>
</g>
<g>
</g>
<g>
</g>
<g>
</g>
<g>
</g>
<g>
</g>
<g>
</g>
</svg>
