<?xml version="1.0" encoding="iso-8859-1"?>
<!-- Generator: Adobe Illustrator 19.0.0, SVG Export Plug-In . SVG Version: 6.00 Build 0)  -->
<svg version="1.1" id="Capa_1" xmlns="http://www.w3.org/2000/svg" xmlns:xlink="http://www.w3.org/1999/xlink" x="0px" y="0px"
	 viewBox="0 0 512 512" style="enable-background:new 0 0 512 512;" xml:space="preserve">
<path style="fill:#EDEBED;" d="M140.387,61.935H90.839c-4.561,0-8.258,3.697-8.258,8.258v33.032h66.065V70.194
	C148.645,65.633,144.948,61.935,140.387,61.935z"/>
<path style="fill:#DBD9DC;" d="M107.355,70.194v-8.258H90.839c-4.561,0-8.258,3.697-8.258,8.258v33.032h66.065V78.452h-33.032
	C111.052,78.452,107.355,74.754,107.355,70.194z"/>
<path style="fill:#A5CDFF;" d="M478.968,458.323H33.032C14.789,458.323,0,443.534,0,425.29V128
	c0-18.243,14.789-33.032,33.032-33.032h445.935C497.211,94.968,512,109.757,512,128v297.29
	C512,443.534,497.211,458.323,478.968,458.323z"/>
<circle style="fill:#8CB4EB;" cx="313.81" cy="293.16" r="123.87"/>
<circle style="fill:#EDEBED;" cx="330.32" cy="276.64" r="123.87"/>
<circle style="fill:#DBD9DC;" cx="330.32" cy="276.64" r="107.36"/>
<circle style="fill:#4B3F4E;" cx="330.32" cy="276.64" r="90.84"/>
<circle style="fill:#5D5360;" cx="330.32" cy="276.64" r="66.06"/>
<circle style="fill:#798DB3;" cx="330.32" cy="276.64" r="33.03"/>
<path style="fill:#EDEBED;" d="M115.613,408.774L115.613,408.774c-9.122,0-16.516-7.395-16.516-16.516V161.032
	c0-9.122,7.395-16.516,16.516-16.516l0,0c9.122,0,16.516,7.395,16.516,16.516v231.226
	C132.129,401.38,124.735,408.774,115.613,408.774z"/>
<path style="fill:#DBD9DC;" d="M395.346,65.705c-4.477-7.462-12.541-12.028-21.243-12.028h-87.559
	c-8.702,0-16.766,4.566-21.243,12.028l-17.557,29.263h165.161L395.346,65.705z"/>
<path style="fill:#C9C6CA;" d="M374.102,70.194h-87.559c-2.884,0-5.597,1.536-7.081,4.009l-12.459,20.765h126.639l-12.459-20.765
	C379.7,71.73,376.986,70.194,374.102,70.194z"/>
<path style="fill:#8CB4EB;" d="M107.355,433.548c-22.804,0-41.29-18.486-41.29-41.29V94.968H33.032C14.789,94.968,0,109.757,0,128
	v297.29c0,18.243,14.789,33.032,33.032,33.032h445.935c15.374,0,28.18-10.552,31.864-24.774L107.355,433.548L107.355,433.548z"/>
<path style="fill:#FFFFFF;" d="M363.355,94.968H297.29V78.452c0-4.561,3.697-8.258,8.258-8.258h49.548
	c4.561,0,8.258,3.697,8.258,8.258v16.516H363.355z"/>
<path style="fill:#DBD9DC;" d="M115.613,392.258V161.032c0-6.098,3.342-11.364,8.258-14.225c-2.438-1.419-5.234-2.291-8.258-2.291
	c-9.121,0-16.516,7.394-16.516,16.516v231.226c0,9.121,7.395,16.516,16.516,16.516c3.024,0,5.821-0.872,8.258-2.291
	C118.955,403.622,115.613,398.356,115.613,392.258z"/>
<g>
	<circle style="fill:#FFFFFF;" cx="346.84" cy="260.13" r="16.516"/>
	<circle style="fill:#FFFFFF;" cx="309.68" cy="297.29" r="12.387"/>
</g>
<g>
</g>
<g>
</g>
<g>
</g>
<g>
</g>
<g>
</g>
<g>
</g>
<g>
</g>
<g>
</g>
<g>
</g>
<g>
</g>
<g>
</g>
<g>
</g>
<g>
</g>
<g>
</g>
<g>
</g>
</svg>
