<?xml version="1.0" encoding="iso-8859-1"?>
<!-- Generator: Adobe Illustrator 19.0.0, SVG Export Plug-In . SVG Version: 6.00 Build 0)  -->
<svg version="1.1" id="Capa_1" xmlns="http://www.w3.org/2000/svg" xmlns:xlink="http://www.w3.org/1999/xlink" x="0px" y="0px"
	 viewBox="0 0 512 512" style="enable-background:new 0 0 512 512;" xml:space="preserve">
<path style="fill:#EDEBED;" d="M413.356,512H98.644c-8.943,0-16.261-7.118-16.51-16.058l-7.576-272.745
	c-0.129-4.649,3.604-8.487,8.255-8.487h346.374c4.651,0,8.384,3.839,8.255,8.487l-7.576,272.745
	C429.617,504.882,422.299,512,413.356,512z"/>
<path style="fill:#DBD9DC;" d="M203.957,495.484c-44.715,0-81.307-35.59-82.549-80.287l-5.57-200.487H82.813
	c-4.651,0-8.384,3.839-8.255,8.487l7.576,272.746C82.383,504.882,89.701,512,98.644,512h314.698c8.945,0,16.267-7.116,16.523-16.057
	l0.013-0.459L203.957,495.484L203.957,495.484z"/>
<g>
	<polygon style="fill:#C4DEFF;" points="80.057,421.161 80.516,437.677 431.484,437.677 431.943,421.161 	"/>
	<polygon style="fill:#C4DEFF;" points="430.796,462.452 81.204,462.452 81.663,478.968 430.337,478.968 	"/>
	<polygon style="fill:#C4DEFF;" points="76.616,297.29 77.075,313.806 434.925,313.806 435.383,297.29 	"/>
	<polygon style="fill:#C4DEFF;" points="77.764,338.581 78.222,355.097 433.778,355.097 434.236,338.581 	"/>
	<polygon style="fill:#C4DEFF;" points="78.91,379.871 79.369,396.387 432.631,396.387 433.09,379.871 	"/>
</g>
<g>
	<path style="fill:#AEA8AF;" d="M239.484,313.806c-4.565,0-8.258-3.694-8.258-8.258V214.71c0-4.565,3.694-8.258,8.258-8.258
		s8.258,3.694,8.258,8.258v90.839C247.742,310.113,244.048,313.806,239.484,313.806z"/>
	<path style="fill:#AEA8AF;" d="M272.516,313.806c-4.565,0-8.258-3.694-8.258-8.258V214.71c0-4.565,3.694-8.258,8.258-8.258
		c4.565,0,8.258,3.694,8.258,8.258v90.839C280.774,310.113,277.081,313.806,272.516,313.806z"/>
</g>
<g>
	<path style="fill:#A5CDFF;" d="M121.87,421.161H80.057l0.459,16.516h44.709C123.562,432.385,122.44,426.86,121.87,421.161z"/>
	<path style="fill:#A5CDFF;" d="M137.991,462.452H81.204l0.459,16.516h72.882C148.274,474.271,142.705,468.716,137.991,462.452z"/>
	<polygon style="fill:#A5CDFF;" points="78.91,379.871 79.369,396.387 120.886,396.387 120.427,379.871 	"/>
	<polygon style="fill:#A5CDFF;" points="77.075,313.806 118.592,313.806 118.133,297.29 76.616,297.29 	"/>
	<polygon style="fill:#A5CDFF;" points="77.764,338.581 78.222,355.097 119.739,355.097 119.28,338.581 	"/>
</g>
<path style="fill:#C9C6CA;" d="M239.484,4.643C244.372,1.722,250.017,0,256.013,0c14.617,0,27.415,9.808,31.215,23.922
	l51.366,190.787h-33.058L254.17,23.922C251.929,15.598,246.511,8.843,239.484,4.643z"/>
<path style="fill:#DBD9DC;" d="M272.529,4.643C267.641,1.722,261.996,0,256,0c-14.617,0-27.415,9.808-31.215,23.922L173.419,214.71
	h33.058l51.366-190.787C260.084,15.598,265.502,8.843,272.529,4.643z"/>
<circle style="fill:#F7D291;" cx="256" cy="305.55" r="24.774"/>
<circle style="fill:#D29B6E;" cx="256" cy="305.55" r="8.258"/>
<g>
</g>
<g>
</g>
<g>
</g>
<g>
</g>
<g>
</g>
<g>
</g>
<g>
</g>
<g>
</g>
<g>
</g>
<g>
</g>
<g>
</g>
<g>
</g>
<g>
</g>
<g>
</g>
<g>
</g>
</svg>
