<?xml version="1.0" encoding="iso-8859-1"?>
<!-- Generator: Adobe Illustrator 19.0.0, SVG Export Plug-In . SVG Version: 6.00 Build 0)  -->
<svg version="1.1" id="Capa_1" xmlns="http://www.w3.org/2000/svg" xmlns:xlink="http://www.w3.org/1999/xlink" x="0px" y="0px"
	 viewBox="0 0 512 512" style="enable-background:new 0 0 512 512;" xml:space="preserve">
<path style="fill:#EDEBED;" d="M288.508,382.108v-275.06c0-16.979-12.413-32.14-29.315-33.752
	c-19.389-1.849-35.701,13.348-35.701,32.355v276.456c0,5.076-2.383,9.847-6.445,12.891c-18.351,13.755-29.213,36.941-25.25,62.41
	c4.421,28.417,28.199,51.016,56.784,54.18c39.229,4.343,72.435-26.253,72.435-64.604c0-21.297-10.267-40.162-26.098-52.012
	C290.867,391.94,288.508,387.168,288.508,382.108z"/>
<circle style="fill:#FFFFFF;" cx="256" cy="105.65" r="16.254"/>
<g>
	<path style="fill:#FFA0A5;" d="M256,48.762c-4.492,0-8.127-3.635-8.127-8.127V8.127C247.873,3.635,251.508,0,256,0
		s8.127,3.635,8.127,8.127v32.508C264.127,45.127,260.492,48.762,256,48.762z"/>
	<path style="fill:#FFA0A5;" d="M190.984,113.778h-32.508c-4.492,0-8.127-3.635-8.127-8.127s3.635-8.127,8.127-8.127h32.508
		c4.492,0,8.127,3.635,8.127,8.127S195.476,113.778,190.984,113.778z"/>
	<path style="fill:#FFA0A5;" d="M353.524,113.778h-32.508c-4.492,0-8.127-3.635-8.127-8.127s3.635-8.127,8.127-8.127h32.508
		c4.492,0,8.127,3.635,8.127,8.127S358.016,113.778,353.524,113.778z"/>
	<path style="fill:#FFA0A5;" d="M210.024,67.802c-2.079,0-4.159-0.794-5.746-2.381l-5.746-5.746c-3.175-3.175-3.175-8.317,0-11.492
		s8.317-3.175,11.492,0l5.746,5.746c3.175,3.175,3.175,8.317,0,11.492C214.183,67.008,212.103,67.802,210.024,67.802z"/>
	<path style="fill:#FFA0A5;" d="M301.976,67.802c-2.079,0-4.159-0.794-5.746-2.381c-3.175-3.175-3.175-8.317,0-11.492l5.746-5.746
		c3.175-3.175,8.317-3.175,11.492,0c3.175,3.175,3.175,8.317,0,11.492l-5.746,5.746C306.135,67.008,304.056,67.802,301.976,67.802z"
		/>
</g>
<path style="fill:#FF8087;" d="M272.244,418.944c-5.018-2.892-8.117-8.224-8.117-14.016V105.651c0-4.489-3.638-8.127-8.127-8.127
	s-8.127,3.638-8.127,8.127v299.278c0,5.793-3.1,11.124-8.119,14.017c-11.74,6.766-18.863,20.588-15.373,35.754
	c2.692,11.694,12.176,21.196,23.868,23.897c21.32,4.925,40.258-11.132,40.258-31.612
	C288.508,434.965,281.955,424.54,272.244,418.944z"/>
<circle style="fill:#FFA0A5;" cx="256" cy="105.65" r="8.127"/>
<path style="fill:#DBD9DC;" d="M272.254,495.746c-35.907,0-65.016-29.109-65.016-65.016c0-13.801,4.329-26.574,11.663-37.099
	c-16.861,11.747-27.917,31.247-27.917,53.353C190.984,482.891,220.093,512,256,512c22.107,0,41.607-11.056,53.353-27.917
	C298.828,491.417,286.055,495.746,272.254,495.746z"/>
<path style="fill:#E6646E;" d="M264.503,462.342c-11.692-2.701-21.177-12.202-23.868-23.897c-1.878-8.16-0.611-15.886,2.723-22.378
	c-1.056,1.104-2.242,2.094-3.604,2.879c-11.74,6.765-18.863,20.588-15.373,35.753c2.692,11.694,12.176,21.196,23.868,23.897
	c16.36,3.779,31.282-4.816,37.356-18.264C279.366,463.152,272.096,464.096,264.503,462.342z"/>
<g>
</g>
<g>
</g>
<g>
</g>
<g>
</g>
<g>
</g>
<g>
</g>
<g>
</g>
<g>
</g>
<g>
</g>
<g>
</g>
<g>
</g>
<g>
</g>
<g>
</g>
<g>
</g>
<g>
</g>
</svg>
