<?xml version="1.0" encoding="iso-8859-1"?>
<!-- Generator: Adobe Illustrator 19.0.0, SVG Export Plug-In . SVG Version: 6.00 Build 0)  -->
<svg version="1.1" id="Capa_1" xmlns="http://www.w3.org/2000/svg" xmlns:xlink="http://www.w3.org/1999/xlink" x="0px" y="0px"
	 viewBox="0 0 511.999 511.999" style="enable-background:new 0 0 511.999 511.999;" xml:space="preserve">
<g>
	<path style="fill:#DBD9DC;" d="M185.798,415.315c-1.54,0-3.097-0.427-4.484-1.331c-3.831-2.484-4.919-7.597-2.435-11.419
		l8.258-12.734c2.484-3.839,7.597-4.919,11.419-2.435c3.831,2.484,4.919,7.597,2.435,11.419l-8.258,12.734
		C191.153,413.992,188.5,415.315,185.798,415.315z"/>
	<path style="fill:#DBD9DC;" d="M251.879,415.315c-2.702,0-5.355-1.323-6.935-3.766l-8.258-12.734
		c-2.484-3.823-1.395-8.936,2.435-11.419c3.823-2.484,8.944-1.403,11.419,2.435l8.258,12.734c2.484,3.823,1.395,8.935-2.435,11.419
		C254.976,414.887,253.419,415.315,251.879,415.315z"/>
</g>
<path style="fill:#867E88;" d="M417.032,0h-16.516c-4.561,0-8.258,3.697-8.258,8.258v389.697c0,41.824-31.651,78.218-73.391,80.852
	c-39.995,2.524-74.154-25.115-81.879-62.322l-33.438,0.597c8.435,56.381,59.239,99.091,118.863,94.592
	c58.652-4.426,102.877-55.55,102.877-114.368V8.258C425.29,3.697,421.593,0,417.032,0z"/>
<path style="fill:#6F6571;" d="M313.806,495.484c52.449,0,94.968-42.519,94.968-94.968V0h-8.258c-4.561,0-8.258,3.697-8.258,8.258
	v389.697c0,41.824-31.651,78.218-73.391,80.852c-39.995,2.524-74.154-25.115-81.879-62.322l-16.659,0.297
	C228.059,461.467,266.915,495.484,313.806,495.484z"/>
<path style="fill:#C9C6CA;" d="M218.839,425.976c-32.411,0-57.806-16.621-57.806-37.847c0-4.565,3.694-8.258,8.258-8.258
	s8.258,3.694,8.258,8.258c0,10.089,16.96,21.331,41.29,21.331s41.29-11.242,41.29-21.331c0-4.565,3.694-8.258,8.258-8.258
	s8.258,3.694,8.258,8.258C276.645,409.355,251.25,425.976,218.839,425.976z"/>
<path style="fill:#5D5360;" d="M433.548,214.71h-82.581v33.032h82.581c4.561,0,8.258-3.698,8.258-8.258v-16.516
	C441.806,218.407,438.109,214.71,433.548,214.71z"/>
<path style="fill:#DBD9DC;" d="M235.355,256h-33.032l-36.817,57.806c0,0,35.555,33.032,53.333,33.032s53.334-33.032,53.334-33.032
	L235.355,256z"/>
<path style="fill:#C9C6CA;" d="M235.355,256h-33.032l-36.817,57.806c0,0,35.555,33.032,53.333,33.032v-46.616
	c0-7.647,9.402-11.153,14.487-5.442c5.9,6.626,13.047,16.365,21.4,29.174c0.687,1.053,1.295,1.975,1.929,2.943
	c8.917-6.969,15.517-13.092,15.517-13.092L235.355,256z"/>
<path style="fill:#867E88;" d="M309.677,156.903H128c-13.682,0-24.774,11.092-24.774,24.774v24.774h231.226v-24.774
	C334.452,167.995,323.36,156.903,309.677,156.903z"/>
<path style="fill:#FFE17D;" d="M218.839,181.678c-50.511,0-117.86,8.606-134.697,25.818s-16.837,94.664-8.418,103.27
	c6.81,6.962,52.19,19.557,73.734,19.557c5.088,0,8.843-0.702,10.451-2.346c8.419-8.606,33.674-60.241,58.93-60.241
	s50.511,51.635,58.93,60.241c1.608,1.644,5.365,2.346,10.451,2.346c21.543,0,66.924-12.595,73.734-19.557
	c8.418-8.606,8.418-86.059-8.418-103.27C336.699,190.283,269.35,181.678,218.839,181.678L218.839,181.678z"/>
<path style="fill:#6F6571;" d="M218.839,198.194c-58.661,0-113.262,11.008-122.891,20.851c-8.326,8.738-11.893,63.686-7.321,80.484
	c10.144,4.955,43.427,14.278,60.83,14.278c0.21,0,0.408-0.002,0.594-0.005c1.512-2.188,3.507-5.246,5.231-7.891
	c14.204-21.779,35.668-54.691,63.556-54.691s49.352,32.912,63.556,54.691c1.72,2.638,3.709,5.688,5.235,7.891
	c0.185,0.003,0.382,0.005,0.59,0.005c16.985,0,50.72-9.41,60.834-14.29c4.567-16.814,1-71.736-7.327-80.474
	C332.101,209.202,277.5,198.194,218.839,198.194L218.839,198.194z"/>
<path style="fill:#FFFFFF;" d="M218.839,214.71c55.533,0,100.261,9.92,110.458,15.626c3.812,9.483,6.253,40.479,4.947,57.227
	c-10.124,3.375-26.215,7.545-38.162,9.101c-16.15-24.764-40.519-61.96-77.243-61.96c-36.746,0-61.124,37.244-77.275,62.009
	c-11.959-1.507-28.011-5.674-38.127-9.089c-1.318-16.73,1.123-47.785,4.942-57.286C118.575,224.631,163.303,214.71,218.839,214.71"
	/>
<path style="fill:#FFE17D;" d="M425.29,82.581h-33.032V8.258c0-4.561,3.697-8.258,8.258-8.258h16.516
	c4.561,0,8.258,3.697,8.258,8.258L425.29,82.581L425.29,82.581z"/>
<path style="fill:#FFD164;" d="M400.516,0c-4.561,0-8.258,3.697-8.258,8.258v74.323h16.516V0H400.516z"/>
<g>
</g>
<g>
</g>
<g>
</g>
<g>
</g>
<g>
</g>
<g>
</g>
<g>
</g>
<g>
</g>
<g>
</g>
<g>
</g>
<g>
</g>
<g>
</g>
<g>
</g>
<g>
</g>
<g>
</g>
</svg>
