<?xml version="1.0" encoding="iso-8859-1"?>
<!-- Generator: Adobe Illustrator 19.0.0, SVG Export Plug-In . SVG Version: 6.00 Build 0)  -->
<svg version="1.1" id="Capa_1" xmlns="http://www.w3.org/2000/svg" xmlns:xlink="http://www.w3.org/1999/xlink" x="0px" y="0px"
	 viewBox="0 0 512 512" style="enable-background:new 0 0 512 512;" xml:space="preserve">
<polygon style="fill:#E3AA75;" points="272.451,105.255 239.912,105.255 231.777,503.865 280.586,503.865 "/>
<path style="fill:#D29B6E;" d="M273.251,144.434l-0.799-39.179h-32.54l-8.135,398.61h16.27l7.271-356.271
	c0.13-6.381,7.223-10.134,12.572-6.651L273.251,144.434z"/>
<path style="fill:#BEE86E;" d="M367.739,5.891c-65.205-19.968-97.901,14.104-111.557,53.066
	C242.526,19.996,209.83-14.077,144.625,5.891c-4.466,1.368-5.547,7.261-1.81,10.063l113.367,85.026l113.367-85.026
	C373.286,13.152,372.205,7.259,367.739,5.891z"/>
<path style="fill:#AFD755;" d="M140.975,9.678c-0.703,2.182-0.27,4.694,1.839,6.276l113.041,84.78v-3.477
	C243.008,34.394,172.288,15.163,140.975,9.678z"/>
<g>
	<path style="fill:#BEE86E;" d="M351.658,107.081H160.705c-57.511,21.745-67.362,83.28-68.934,108.844
		c-0.291,4.732,5.049,7.675,8.941,4.968l155.47-108.153l155.469,108.153c3.892,2.707,9.232-0.236,8.941-4.968
		C419.02,190.361,409.17,128.826,351.658,107.081z"/>
	<path style="fill:#BEE86E;" d="M304.991,512h-97.619c-4.496,0-8.135-3.638-8.135-8.135c0-4.496,3.638-8.135,8.135-8.135h97.619
		c4.496,0,8.135,3.638,8.135,8.135S309.488,512,304.991,512z"/>
</g>
<path style="fill:#AFD755;" d="M255.855,97.258C171.664,3.708,99.23,71.25,76.484,97.714c-3.158,3.674-0.492,9.366,4.353,9.366
	h350.069c4.925,0,7.523-5.883,4.236-9.551C351.242,3.915,279.012,70.463,255.855,97.258z"/>
<path style="fill:#91C355;" d="M75.479,103.198c0.744,2.154,2.699,3.883,5.357,3.883h175.345
	C256.182,107.081,174.762,38.922,75.479,103.198z"/>
<g>
	<path style="fill:#AFD755;" d="M371.388,9.678c0.703,2.182,0.27,4.694-1.839,6.276l-113.041,84.78v-3.477
		C269.355,34.394,340.075,15.163,371.388,9.678z"/>
	<path style="fill:#AFD755;" d="M282.05,107.081h-51.737c-36.729,5.672-102.981,28.135-134.364,114.619
		c1.532,0.425,3.253,0.243,4.763-0.807l155.47-108.152l155.47,108.152c1.51,1.051,3.23,1.232,4.764,0.807
		C385.031,135.216,318.779,112.753,282.05,107.081z"/>
</g>
<path style="fill:#91C355;" d="M436.884,103.198c-0.744,2.154-2.699,3.883-5.357,3.883H256.182
	C256.182,107.081,337.601,38.922,436.884,103.198z"/>
<g>
</g>
<g>
</g>
<g>
</g>
<g>
</g>
<g>
</g>
<g>
</g>
<g>
</g>
<g>
</g>
<g>
</g>
<g>
</g>
<g>
</g>
<g>
</g>
<g>
</g>
<g>
</g>
<g>
</g>
</svg>
