<?xml version="1.0" encoding="iso-8859-1"?>
<!-- Generator: Adobe Illustrator 19.0.0, SVG Export Plug-In . SVG Version: 6.00 Build 0)  -->
<svg version="1.1" id="Capa_1" xmlns="http://www.w3.org/2000/svg" xmlns:xlink="http://www.w3.org/1999/xlink" x="0px" y="0px"
	 viewBox="0 0 512 512" style="enable-background:new 0 0 512 512;" xml:space="preserve">
<g>
	<path style="fill:#FFE17D;" d="M492.338,186.165L470.71,57.806C465.204,24.774,374.581,0,256,0S46.796,24.774,41.29,57.806
		L19.662,186.165c-1.339,7.946,3.251,15.698,10.862,18.344l76.831,26.717v272.516c0,4.56,3.697,8.258,8.258,8.258h280.774
		c4.561,0,8.258-3.698,8.258-8.258V231.226l76.831-26.717C489.087,201.862,493.676,194.11,492.338,186.165z"/>
	<path style="fill:#FFE17D;" d="M256,0c-42.294,0-80.997,3.165-113.585,8.719C154.091,41.581,184.956,106.394,256,147.673
		C327.044,106.394,357.909,41.581,369.585,8.719C336.997,3.165,298.294,0,256,0z"/>
</g>
<path style="fill:#FFC350;" d="M256,16.516c-37.564,0-71.939,2.811-100.882,7.744c10.37,29.187,37.783,86.751,100.882,123.414
	c63.099-36.662,90.511-94.227,100.882-123.414C327.939,19.327,293.564,16.516,256,16.516z"/>
<path style="fill:#FFD164;" d="M89.082,147.412l-17.816,71.264l36.089,12.549v-81.564c0-5.122-4.152-9.275-9.275-9.275l0,0
	C93.824,140.387,90.115,143.284,89.082,147.412z"/>
<polygon style="fill:#E3AA75;" points="272.516,264.258 239.484,264.258 231.226,445.935 280.774,445.935 "/>
<path style="fill:#D29B6E;" d="M274.332,304.21l-1.816-39.952h-33.032l-8.258,181.677h16.516l6.336-139.404
	c0.28-6.153,6.955-9.846,12.316-6.813L274.332,304.21z"/>
<g>
	<path style="fill:#BEE86E;" d="M314.996,264.668H197.004c-33.568,12.692-40.859,47.322-42.383,64.434
		c-0.369,4.146,4.166,6.883,7.652,4.607L256,272.516l93.727,61.193c3.486,2.276,8.021-0.461,7.652-4.607
		C355.855,311.99,348.564,277.36,314.996,264.668z"/>
	<path style="fill:#BEE86E;" d="M256,235.271c-7.116-21.816-24.371-45.865-66.437-33.89c-3.876,1.103-4.908,6.189-1.753,8.695
		L256,264.258l68.19-54.181c3.155-2.507,2.123-7.592-1.753-8.695C280.371,189.406,263.116,213.455,256,235.271z"/>
	<path style="fill:#BEE86E;" d="M289.032,454.194h-66.065c-4.565,0-8.258-3.694-8.258-8.258s3.694-8.258,8.258-8.258h66.065
		c4.565,0,8.258,3.694,8.258,8.258S293.597,454.194,289.032,454.194z"/>
</g>
<path style="fill:#EDEBED;" d="M19.662,186.165c-1.339,7.946,3.251,15.698,10.862,18.344l76.831,26.717v-37.348l-84.067-29.233
	L19.662,186.165z"/>
<polygon style="fill:#DBD9DC;" points="71.266,218.676 107.355,231.226 107.355,193.878 79.856,184.316 "/>
<path style="fill:#FFD164;" d="M422.918,147.412l17.816,71.264l-36.089,12.549v-81.564c0-5.122,4.152-9.275,9.275-9.275l0,0
	C418.176,140.387,421.885,143.284,422.918,147.412z"/>
<path style="fill:#EDEBED;" d="M492.338,186.165c1.339,7.946-3.251,15.698-10.862,18.344l-76.831,26.717v-37.348l84.067-29.233
	L492.338,186.165z"/>
<polygon style="fill:#DBD9DC;" points="440.734,218.676 404.645,231.226 404.645,193.878 432.144,184.316 "/>
<path style="fill:#FFD164;" d="M396.387,512H115.613c-4.561,0-8.258-3.697-8.258-8.258v-16.516h297.29v16.516
	C404.645,508.303,400.948,512,396.387,512z"/>
<path style="fill:#EDEBED;" d="M352.931,6.166C341.848,36.055,314.721,90.834,256,128.339
	C197.579,90.986,170.32,36.09,159.139,6.156c-11.76,1.611-22.852,3.513-33.185,5.68c11.821,34.561,44.257,105.094,121.748,150.123
	c2.565,1.492,5.435,2.234,8.298,2.234c2.863,0,5.734-0.742,8.298-2.234C341.789,116.93,374.225,46.398,386.046,11.836
	C375.734,9.674,364.665,7.775,352.931,6.166z"/>
<path style="fill:#AFD755;" d="M256,258.833c-49.652-55.398-92.721-20.041-108.845-2.422c-2.896,3.165-0.589,8.257,3.701,8.257
	h210.289c4.29,0,6.597-5.093,3.701-8.257C348.721,238.792,305.652,203.435,256,258.833z"/>
<g>
</g>
<g>
</g>
<g>
</g>
<g>
</g>
<g>
</g>
<g>
</g>
<g>
</g>
<g>
</g>
<g>
</g>
<g>
</g>
<g>
</g>
<g>
</g>
<g>
</g>
<g>
</g>
<g>
</g>
</svg>
