<?xml version="1.0" encoding="iso-8859-1"?>
<!-- Generator: Adobe Illustrator 19.0.0, SVG Export Plug-In . SVG Version: 6.00 Build 0)  -->
<svg version="1.1" id="Capa_1" xmlns="http://www.w3.org/2000/svg" xmlns:xlink="http://www.w3.org/1999/xlink" x="0px" y="0px"
	 viewBox="0 0 512 512" style="enable-background:new 0 0 512 512;" xml:space="preserve">
<path style="fill:#FFE17D;" d="M291.358,511.379c5.428,1.998,11.363-0.999,13.058-6.529
	c16.112-52.558,26.339-130.836,26.339-218.291C330.755,128.297,297.286,0,256,0s-74.755,128.297-74.755,286.559
	c0,87.455,10.226,165.733,26.339,218.291c1.695,5.53,7.63,8.527,13.058,6.529l29.619-10.903c3.704-1.363,7.773-1.363,11.477,0
	L291.358,511.379z"/>
<path style="fill:#C9C6CA;" d="M256,473.446c-4.591,0-8.306-3.715-8.306-8.306v-24.918c0-4.591,3.715-8.306,8.306-8.306
	c4.591,0,8.306,3.715,8.306,8.306v24.918C264.306,469.731,260.591,473.446,256,473.446z"/>
<path style="fill:#FFD164;" d="M264.306,406.997V1.802C261.578,0.645,258.809,0,256,0c-2.809,0-5.578,0.645-8.306,1.802v405.195
	c0,4.591,3.715,8.306,8.306,8.306C260.591,415.303,264.306,411.588,264.306,406.997z"/>
<path style="fill:#8CB4EB;" d="M325.608,390.744C341.701,208.789,193.004,224.427,201.31,91.529l-4.895,23.785
	c-2.585,12.561-4.174,25.361-3.821,38.18c3.27,118.917,132.673,151.565,109.17,355.506c1.157-1.141,2.139-2.477,2.652-4.15
	c9.336-30.455,16.677-69.582,21.216-114.089L325.608,390.744z"/>
<path style="fill:#739BD7;" d="M264.306,220.607c-5.593-5.768-11.187-11.409-16.612-17.085v80.801
	c5.605,8.673,11.207,17.602,16.612,26.982V220.607z"/>
<g>
</g>
<g>
</g>
<g>
</g>
<g>
</g>
<g>
</g>
<g>
</g>
<g>
</g>
<g>
</g>
<g>
</g>
<g>
</g>
<g>
</g>
<g>
</g>
<g>
</g>
<g>
</g>
<g>
</g>
</svg>
