<?xml version="1.0" encoding="iso-8859-1"?>
<!-- Generator: Adobe Illustrator 19.0.0, SVG Export Plug-In . SVG Version: 6.00 Build 0)  -->
<svg version="1.1" id="Capa_1" xmlns="http://www.w3.org/2000/svg" xmlns:xlink="http://www.w3.org/1999/xlink" x="0px" y="0px"
	 viewBox="0 0 512 512" style="enable-background:new 0 0 512 512;" xml:space="preserve">
<g>
	<path style="fill:#EDEBED;" d="M255.996,16.246c50.366,0,96.573,25.421,123.597,68.001c1.556,2.437,4.183,3.77,6.873,3.77
		c1.492,0,3-0.405,4.349-1.262c3.786-2.413,4.913-7.429,2.508-11.222C363.291,28.239,311.965,0,255.687,0c-0.008,0-0.016,0-0.024,0
		h-0.135c-4.492,0-7.897,3.635-7.897,8.127C247.631,12.611,251.504,16.246,255.996,16.246z"/>
	<path style="fill:#EDEBED;" d="M177.844,38.85c3.794-2.397,4.921-7.421,2.516-11.214c-2.397-3.794-7.413-4.921-11.214-2.516
		c-47.398,30.016-75.692,81.382-75.684,137.685v0.04c0,4.492,3.635,7.968,8.127,7.968c4.484,0,8.119-3.786,8.119-8.278
		C109.708,112.105,135.177,65.874,177.844,38.85z"/>
	<path style="fill:#EDEBED;" d="M255.996,308.822c-50.485,0-96.748-25.516-123.756-68.247c-2.397-3.786-7.413-4.921-11.214-2.532
		c-3.794,2.405-4.929,7.421-2.532,11.214c30.008,47.477,81.406,75.819,137.502,75.819h0.167c4.492,0,8.04-3.635,8.04-8.127
		C264.203,312.457,260.488,308.822,255.996,308.822z"/>
	<path style="fill:#EDEBED;" d="M410.411,154.09c-4.492,0-8.127,3.952-8.127,8.445c0,50.548-25.556,96.835-68.366,123.835
		c-3.802,2.397-4.937,7.413-2.54,11.207c1.548,2.452,4.183,3.794,6.881,3.794c1.484,0,2.984-0.405,4.325-1.254
		c47.564-29.993,75.954-81.422,75.954-137.581v-0.635C418.538,157.407,414.903,154.09,410.411,154.09z"/>
</g>
<path style="fill:#F7D291;" d="M239.742,227.551v276.322c0,4.488,3.638,8.127,8.127,8.127h16.254c4.489,0,8.127-3.639,8.127-8.127
	V227.551H239.742z"/>
<path style="fill:#F5B97D;" d="M272.25,268.187v-40.636h-32.508v276.322c0,4.488,3.639,8.127,8.127,8.127h16.254
	c-4.489,0-8.127-3.639-8.127-8.127V276.314c0-4.488,3.639-8.127,8.127-8.127L272.25,268.187L272.25,268.187z"/>
<rect x="192.781" y="99.318" transform="matrix(-0.7071 -0.7071 0.7071 -0.7071 322.0839 458.4766)" style="fill:#E6646E;" width="126.429" height="126.429"/>
<g>
	<path style="fill:#FF8087;" d="M255.996,162.534v89.398h77.626c4.344,0,6.52-5.252,3.448-8.324L255.996,162.534z"/>
	<path style="fill:#FF8087;" d="M255.996,73.136H178.37c-4.344,0-6.52,5.252-3.448,8.324l81.074,81.074V73.136z"/>
	<path style="fill:#FF8087;" d="M255.996,162.534h89.398V84.908c0-4.344-5.252-6.52-8.324-3.448L255.996,162.534z"/>
	<path style="fill:#FF8087;" d="M166.598,162.534v77.626c0,4.344,5.252,6.52,8.324,3.448l81.074-81.074H166.598z"/>
</g>
<circle style="fill:#FFE17D;" cx="256" cy="162.53" r="16.254"/>
<g>
</g>
<g>
</g>
<g>
</g>
<g>
</g>
<g>
</g>
<g>
</g>
<g>
</g>
<g>
</g>
<g>
</g>
<g>
</g>
<g>
</g>
<g>
</g>
<g>
</g>
<g>
</g>
<g>
</g>
</svg>
