<?xml version="1.0" encoding="iso-8859-1"?>
<!-- Generator: Adobe Illustrator 19.0.0, SVG Export Plug-In . SVG Version: 6.00 Build 0)  -->
<svg version="1.1" id="Capa_1" xmlns="http://www.w3.org/2000/svg" xmlns:xlink="http://www.w3.org/1999/xlink" x="0px" y="0px"
	 viewBox="0 0 511.999 511.999" style="enable-background:new 0 0 511.999 511.999;" xml:space="preserve">
<path style="fill:#FFD164;" d="M260.128,78.455h-8.258c-9.121,0-16.516,7.394-16.516,16.516v24.774h41.289V94.971
	C276.643,85.849,269.249,78.455,260.128,78.455z"/>
<path style="fill:#FFC350;" d="M276.643,94.971c0-1.065-0.121-2.1-0.314-3.109c-6.738-0.93-13.531-1.456-20.331-1.456
	c-6.8,0-13.593,0.526-20.331,1.456c-0.193,1.009-0.314,2.044-0.314,3.109v24.774h41.289L276.643,94.971L276.643,94.971z"/>
<path style="fill:#FF8087;" d="M433.999,171.428c-2.78-16.318-15.036-29.399-31.139-33.233l-116.257-27.68
	c-20.121-4.791-41.085-4.791-61.206,0l-116.257,27.68c-16.105,3.835-28.361,16.915-31.141,33.233L49.551,338.417h412.895
	L433.999,171.428z"/>
<path style="fill:#E6646E;" d="M459.011,318.251c-2.599-0.942-5.253-1.772-8.013-2.354c-58.19-12.279-125.619-18.77-194.998-18.77
	c-39.079,0-77.519,2.077-114.049,6.079c-16.386,1.795-29.911-12.483-27.143-28.732l20.997-123.254
	c1.459-8.562,5.574-16.185,11.437-22.096l-38.103,9.072c-16.104,3.834-28.36,16.914-31.14,33.232L49.551,338.417h412.895
	L459.011,318.251z"/>
<path style="fill:#FFE17D;" d="M255.999,404.214c89.258,0,170.751,10.796,232.919,28.592c15.977,4.574,29.086-13.016,20.212-27.067
	c-12.372-19.588-26.121-41.359-34.914-55.281c-6.013-9.52-15.612-16.076-26.629-18.401
	c-55.181-11.645-120.944-18.414-191.588-18.414s-136.407,6.769-191.587,18.414c-11.017,2.325-20.617,8.881-26.629,18.401
	C28.99,364.38,15.24,386.151,2.869,405.739c-8.874,14.051,4.235,31.64,20.212,27.067C85.248,415.01,166.741,404.214,255.999,404.214
	z"/>
<path style="fill:#FFD164;" d="M488.918,432.806c9.781,2.8,18.459-2.719,21.705-10.635c-67.625-22.07-158.049-34.473-254.624-34.473
	S69,400.101,1.375,422.171c3.245,7.916,11.924,13.435,21.705,10.635c62.168-17.796,143.661-28.592,232.919-28.592
	S426.75,415.01,488.918,432.806z"/>
<path style="fill:#FFE17D;" d="M312.471,181.607l-32.089-4.663l-14.351-29.078c-4.104-8.315-15.96-8.315-20.064,0l-14.351,29.078
	l-32.089,4.663c-9.176,1.334-12.84,12.61-6.2,19.082l23.22,22.634l-5.482,31.96c-1.568,9.139,8.025,16.109,16.233,11.794
	l28.701-15.09l28.702,15.089c8.207,4.315,17.8-2.654,16.233-11.794l-5.482-31.96l23.22-22.634
	C325.311,194.218,321.647,182.941,312.471,181.607z"/>
<g>
	<path style="fill:#FFF0BE;" d="M428.806,383.488c11.854,3.15,21.58-8.964,14.996-18.642c-9.179-13.491-19.38-28.485-25.904-38.073
		c-0.074-0.109-0.178-0.193-0.254-0.3c-48.455-8.159-103.334-12.83-161.646-12.83c-58.311,0-113.191,4.671-161.645,12.83
		c-0.076,0.108-0.179,0.192-0.254,0.3c-6.524,9.589-16.725,24.583-25.904,38.073c-6.584,9.678,3.142,21.792,14.995,18.642
		c46.124-12.256,106.585-19.692,172.807-19.692C322.221,363.796,382.682,371.232,428.806,383.488z"/>
	<path style="fill:#FFF0BE;" d="M255.999,218.839c22.869,0,41.737-16.92,44.9-38.913l-20.517-2.981l-14.351-29.078
		c-4.104-8.315-15.96-8.315-20.064,0l-14.351,29.078l-20.517,2.981C214.262,201.919,233.13,218.839,255.999,218.839z"/>
</g>
<g>
</g>
<g>
</g>
<g>
</g>
<g>
</g>
<g>
</g>
<g>
</g>
<g>
</g>
<g>
</g>
<g>
</g>
<g>
</g>
<g>
</g>
<g>
</g>
<g>
</g>
<g>
</g>
<g>
</g>
</svg>
