<?xml version="1.0" encoding="iso-8859-1"?>
<!-- Generator: Adobe Illustrator 19.0.0, SVG Export Plug-In . SVG Version: 6.00 Build 0)  -->
<svg version="1.1" id="Capa_1" xmlns="http://www.w3.org/2000/svg" xmlns:xlink="http://www.w3.org/1999/xlink" x="0px" y="0px"
	 viewBox="0 0 512 512" style="enable-background:new 0 0 512 512;" xml:space="preserve">
<path style="fill:#C4DEFF;" d="M346.839,338.581H214.71c-4.561,0-8.258-3.697-8.258-8.258V33.032c0-4.561,3.697-8.258,8.258-8.258
	h132.129c4.561,0,8.258,3.697,8.258,8.258v297.29C355.097,334.883,351.4,338.581,346.839,338.581z"/>
<path style="fill:#EDEBED;" d="M412.903,313.806H280.774c-4.561,0-8.258-3.697-8.258-8.258V8.258c0-4.561,3.697-8.258,8.258-8.258
	h132.129c4.561,0,8.258,3.697,8.258,8.258v297.29C421.161,310.109,417.464,313.806,412.903,313.806z"/>
<path style="fill:#DBD9DC;" d="M363.355,115.613h-90.839v189.936c0,4.56,3.697,8.258,8.258,8.258h107.355v-173.42
	C388.129,126.705,377.037,115.613,363.355,115.613z"/>
<g>
	<path style="fill:#8CB4EB;" d="M363.355,512H99.097c-4.561,0-8.258-3.697-8.258-8.258V140.387c0-4.561,3.697-8.258,8.258-8.258
		h264.258c4.561,0,8.258,3.697,8.258,8.258v363.355C371.613,508.303,367.916,512,363.355,512z"/>
	<path style="fill:#8CB4EB;" d="M385.71,35.452c-3.226-3.226-8.452-3.226-11.677,0l-10.3,10.3l-40.78-4.413
		c-4.484-0.528-8.605,2.786-9.097,7.323c-0.492,4.532,2.79,8.605,7.323,9.097l22.241,8.307l-16.515,16.515h-4.839
		c-4.565,0-8.258,3.698-8.258,8.258c0,4.56,3.694,8.258,8.258,8.258h8.258c2.194,0,4.29-0.871,5.839-2.419l18.936-18.936
		l8.305,22.243c0.46,4.234,4.04,7.371,8.202,7.371c0.298,0,0.597-0.016,0.895-0.048c4.532-0.492,7.815-4.565,7.323-9.097
		l-4.413-40.78l10.3-10.3C388.935,43.903,388.935,38.677,385.71,35.452z"/>
</g>
<g>
	<path style="fill:#C4DEFF;" d="M231.226,198.194c-50.089,0-90.839,40.75-90.839,90.839s40.75,90.839,90.839,90.839
		s90.839-40.75,90.839-90.839S281.315,198.194,231.226,198.194z M288.213,336.66c-2.662-2.54-5.492-4.857-8.439-7.002
		c2.879-9.864,4.75-20.751,5.348-32.368h19.94C303.407,312.176,297.352,325.742,288.213,336.66z M239.484,330.888
		c7.086,0.892,13.925,2.912,20.289,5.964c-5.408,12.279-12.678,20.77-20.289,24.426L239.484,330.888L239.484,330.888z
		 M239.484,314.256V297.29h29.132c-0.482,8.631-1.739,16.582-3.541,23.805C257.023,317.475,248.396,315.149,239.484,314.256z
		 M239.484,280.774v-16.963c8.909-0.894,17.539-3.216,25.591-6.839c1.802,7.222,3.058,15.172,3.541,23.802H239.484z
		 M239.484,247.173v-30.387c7.608,3.655,14.876,12.139,20.282,24.41C253.403,244.251,246.569,246.28,239.484,247.173z
		 M222.968,216.786v30.387c-7.082-0.893-13.918-2.92-20.284-5.973C208.091,228.926,215.359,220.442,222.968,216.786z
		 M222.968,263.811v16.963h-29.132c0.482-8.629,1.738-16.578,3.54-23.799C205.43,260.597,214.062,262.917,222.968,263.811z
		 M222.968,297.29v16.957c-8.894,0.897-17.536,3.206-25.595,6.829c-1.799-7.218-3.055-15.163-3.537-23.786H222.968z
		 M222.968,330.897v30.382c-7.605-3.653-14.869-12.132-20.276-24.395C209.06,333.829,215.894,331.791,222.968,330.897z
		 M305.061,280.774h-19.94c-0.598-11.615-2.469-22.503-5.348-32.366c2.946-2.145,5.759-4.484,8.42-7.024
		C297.344,252.305,303.406,265.879,305.061,280.774z M174.255,241.387c2.662,2.54,5.473,4.885,8.421,7.029
		c-2.878,9.862-4.748,20.745-5.346,32.358h-19.94C159.045,265.881,165.106,252.308,174.255,241.387z M157.39,297.29h19.94
		c0.597,11.6,2.465,22.472,5.337,32.325c-2.953,2.145-5.727,4.546-8.391,7.085C165.116,325.776,159.047,312.195,157.39,297.29z"/>
	<path style="fill:#C4DEFF;" d="M280.774,437.677h-99.097c-4.565,0-8.258-3.694-8.258-8.258s3.694-8.258,8.258-8.258h99.097
		c4.565,0,8.258,3.694,8.258,8.258S285.339,437.677,280.774,437.677z"/>
</g>
<path style="fill:#739BD7;" d="M156.903,495.484c-27.365,0-49.548-22.184-49.548-49.548V132.129h-8.258
	c-4.561,0-8.258,3.697-8.258,8.258v363.355c0,4.561,3.697,8.258,8.258,8.258h264.258c4.561,0,8.258-3.697,8.258-8.258v-8.258
	H156.903z"/>
<rect x="206.45" y="115.61" style="fill:#A5CDFF;" width="66.06" height="16.516"/>
<g>
</g>
<g>
</g>
<g>
</g>
<g>
</g>
<g>
</g>
<g>
</g>
<g>
</g>
<g>
</g>
<g>
</g>
<g>
</g>
<g>
</g>
<g>
</g>
<g>
</g>
<g>
</g>
<g>
</g>
</svg>
