<?xml version="1.0" encoding="iso-8859-1"?>
<!-- Generator: Adobe Illustrator 19.0.0, SVG Export Plug-In . SVG Version: 6.00 Build 0)  -->
<svg version="1.1" id="Capa_1" xmlns="http://www.w3.org/2000/svg" xmlns:xlink="http://www.w3.org/1999/xlink" x="0px" y="0px"
	 viewBox="0 0 511.999 511.999" style="enable-background:new 0 0 511.999 511.999;" xml:space="preserve">
<path style="fill:#F5B97D;" d="M430.325,65.073H65.073c-4.585,0-8.301,3.716-8.301,8.301v49.807h381.854V73.374
	C438.626,68.789,434.909,65.073,430.325,65.073z"/>
<path style="fill:#E3AA75;" d="M264.301,98.278V65.073h-16.602v16.602c0,9.169-7.433,16.602-16.602,16.602h-99.614
	c-9.169,0-16.602-7.433-16.602-16.602V65.073H65.073c-4.585,0-8.301,3.716-8.301,8.301v49.807h381.854V98.278H264.301z"/>
<path style="fill:#F7D291;" d="M465.65,129.019c-1.219-8.127-8.2-14.139-16.418-14.139H62.768c-8.218,0-15.199,6.012-16.418,14.139
	L0.094,437.394c-0.753,5.019,3.134,9.533,8.209,9.533h184.468c7.828,0,14.593-5.469,16.233-13.124l20.686-96.531
	c0.82-3.827,4.202-6.562,8.117-6.562h36.385c3.914,0,7.296,2.734,8.117,6.562l20.686,96.531c1.64,7.655,8.405,13.124,16.233,13.124
	h184.468c5.075,0,8.962-4.514,8.209-9.533L465.65,129.019z"/>
<g>
	<path style="fill:#F0C382;" d="M209.005,433.803c-1.64,7.655-8.405,13.124-16.233,13.124H8.303c-5.075,0-8.962-4.514-8.209-9.533
		l4.796-31.973h210.197L209.005,433.803z"/>
	<path style="fill:#F0C382;" d="M302.995,433.803c1.64,7.655,8.405,13.124,16.233,13.124h184.468c5.075,0,8.962-4.514,8.209-9.533
		l-4.796-31.973H296.913L302.995,433.803z"/>
	<path style="fill:#F0C382;" d="M46.35,129.02L30.971,231.545l68.722-34.361c19.86-9.93,33.443-29.129,36.198-51.161l3.893-31.143
		H62.768C54.55,114.88,47.569,120.892,46.35,129.02z"/>
	<path style="fill:#F0C382;" d="M412.307,197.184l68.722,34.361L465.65,129.019c-1.219-8.127-8.2-14.139-16.418-14.139h-77.015
		l3.893,31.143C378.863,168.055,392.446,187.254,412.307,197.184z"/>
	<path style="fill:#F0C382;" d="M272.602,114.88V228.9c0,8.698-4.637,16.878-12.095,21.353l-12.808,7.687V114.88h-16.602v219.365
		c1.52-2.135,3.958-3.535,6.711-3.535h9.892v-53.408l21.353-12.815c12.427-7.45,20.153-21.093,20.153-35.588V114.88H272.602z"/>
	<path style="fill:#F0C382;" d="M69.085,430.325c-10.15,0-17.924-9.027-16.419-19.065l44.458-296.38H62.768
		c-8.218,0-15.199,6.012-16.418,14.139L0.094,437.394c-0.753,5.019,3.134,9.533,8.209,9.533h184.469
		c7.828,0,14.593-5.469,16.233-13.124l0.745-3.479H69.085V430.325z"/>
</g>
<g>
	<path style="fill:#F5B97D;" d="M30.971,231.545l52.598-26.299l13.555-90.366H62.768c-8.218,0-15.199,6.012-16.418,14.139
		L30.971,231.545L30.971,231.545z"/>
	<path style="fill:#F5B97D;" d="M4.889,405.426l-4.795,31.968c-0.753,5.019,3.134,9.533,8.209,9.533h184.469
		c7.828,0,14.593-5.469,16.233-13.124l0.745-3.479H69.085c-10.15,0-17.924-9.027-16.419-19.065l0.875-5.833L4.889,405.426
		L4.889,405.426z"/>
</g>
<path style="fill:#F0C382;" d="M510.846,430.325H350.212c-7.829,0-14.593-5.469-16.234-13.124l-14.316-66.805
	c-2.461-11.482-12.608-19.685-24.351-19.685h-21.119c3.914,0,7.296,2.734,8.117,6.562l20.686,96.531
	c1.64,7.655,8.405,13.123,16.233,13.123h184.468c5.075,0,8.962-4.514,8.21-9.533L510.846,430.325z"/>
<path style="fill:#F5B97D;" d="M511.906,437.394l-1.06-7.069H350.212c-7.828,0-14.593-5.469-16.234-13.124l-2.524-11.78h-34.541
	l6.082,28.382c1.641,7.655,8.405,13.124,16.233,13.124h184.468C508.772,446.927,512.659,442.413,511.906,437.394z"/>
<g>
</g>
<g>
</g>
<g>
</g>
<g>
</g>
<g>
</g>
<g>
</g>
<g>
</g>
<g>
</g>
<g>
</g>
<g>
</g>
<g>
</g>
<g>
</g>
<g>
</g>
<g>
</g>
<g>
</g>
</svg>
