<?xml version="1.0" encoding="iso-8859-1"?>
<!-- Generator: Adobe Illustrator 19.0.0, SVG Export Plug-In . SVG Version: 6.00 Build 0)  -->
<svg version="1.1" id="Capa_1" xmlns="http://www.w3.org/2000/svg" xmlns:xlink="http://www.w3.org/1999/xlink" x="0px" y="0px"
	 viewBox="0 0 512 512" style="enable-background:new 0 0 512 512;" xml:space="preserve">
<path style="fill:#A5CDFF;" d="M280.774,35.11v438.231c0,21.351,17.308,38.659,38.659,38.659l0,0
	c16.417,0,31.044-10.369,36.479-25.86L498.811,78.834c6.998-19.946-5.095-41.508-25.764-45.937L323.225,0.792
	C301.377-3.889,280.774,12.766,280.774,35.11z"/>
<path style="fill:#8CB4EB;" d="M321.072,238.031c6.004-1.938,10.325-7.176,10.802-13.467l12.997-171.507
	c0.347-4.544,4.306-7.895,8.855-7.609c4.548,0.343,7.96,4.31,7.613,8.859l-12.586,166.072c-0.59,7.786,4.755,14.775,12.423,16.246
	l0.009,0.002c7.862,1.508,15.563-3.276,17.697-10.991l43.933-158.861c1.218-4.395,5.79-6.952,10.161-5.758
	c4.395,1.218,6.976,5.766,5.758,10.161l-45.745,165.413c-1.641,5.933,0.499,12.172,5.261,16.073
	c8.089,6.625,14.932,14.786,20.021,24.149c2.505,4.61,4.477,9.436,6.039,14.37L356.438,484.64
	c-5.146,14.667-18.045,25.856-33.529,27.208c-22.916,2.001-42.135-16.008-42.135-38.507V266.764
	C290.824,253.398,304.854,243.267,321.072,238.031z"/>
<path style="fill:#867E88;" d="M319.433,512c-21.351,0-38.659-17.308-38.659-38.659V315.96c0-42.397,39.685-73.612,80.889-63.623
	h0.001c37.637,9.124,59.169,48.746,46.352,85.291L355.912,486.14C350.477,501.631,335.85,512,319.433,512z"/>
<path style="fill:#6F6571;" d="M346.104,266.979c3.887,0,7.812,0.474,11.668,1.409c13.61,3.299,24.789,11.893,31.476,24.197
	c6.688,12.305,7.818,26.36,3.182,39.576l-52.103,148.511c-3.108,8.86-11.505,14.812-20.894,14.812
	c-12.21,0-22.143-9.933-22.143-22.143V315.96C297.29,288.952,319.188,266.979,346.104,266.979"/>
<path style="fill:#4B3F4E;" d="M329.916,378.439c2.25,0,4.531,0.238,6.779,0.706c9.233,1.924,17.189,7.737,21.826,15.95
	s5.506,18.027,2.384,26.927l-20.051,57.151c-3.145,8.965-10.934,15.484-19.381,16.222c-0.685,0.06-1.367,0.09-2.04,0.09
	c-12.209,0-22.142-9.933-22.142-22.143v-62.155C297.29,393.129,311.926,378.439,329.916,378.439"/>
<path style="fill:#A5CDFF;" d="M231.226,35.11v438.231c0,21.351-17.308,38.659-38.659,38.659l0,0
	c-16.417,0-31.044-10.369-36.479-25.86L13.189,78.834c-6.998-19.946,5.095-41.508,25.764-45.937L188.775,0.792
	C210.623-3.889,231.226,12.766,231.226,35.11z"/>
<path style="fill:#8CB4EB;" d="M190.928,238.031c-6.004-1.938-10.325-7.176-10.802-13.467L167.129,53.056
	c-0.347-4.544-4.306-7.895-8.855-7.609c-4.548,0.343-7.96,4.31-7.613,8.859l12.586,166.072c0.59,7.786-4.755,14.775-12.423,16.246
	l-0.009,0.002c-7.862,1.508-15.563-3.276-17.697-10.991L89.185,66.774c-1.218-4.395-5.79-6.952-10.161-5.758
	c-4.395,1.218-6.976,5.766-5.758,10.161l45.745,165.413c1.641,5.933-0.499,12.172-5.261,16.073
	c-8.089,6.625-14.932,14.786-20.021,24.149c-2.505,4.61-4.477,9.436-6.039,14.37l67.873,193.458
	c5.146,14.667,18.045,25.856,33.529,27.208c22.916,2.001,42.135-16.008,42.135-38.507V266.764
	C221.176,253.398,207.146,243.267,190.928,238.031z"/>
<path style="fill:#867E88;" d="M192.567,512c21.351,0,38.659-17.308,38.659-38.659V315.96c0-42.397-39.685-73.612-80.889-63.623
	h-0.001c-37.637,9.124-59.169,48.746-46.352,85.291l52.104,148.512C161.523,501.631,176.15,512,192.567,512z"/>
<path style="fill:#6F6571;" d="M165.896,266.979c26.916,0,48.814,21.973,48.814,48.98v157.382c0,12.209-9.933,22.143-22.143,22.143
	c-9.389,0-17.786-5.952-20.894-14.812L119.57,332.161c-4.635-13.216-3.505-27.271,3.182-39.576
	c6.687-12.304,17.865-20.898,31.476-24.197C158.084,267.453,162.009,266.979,165.896,266.979"/>
<path style="fill:#4B3F4E;" d="M182.084,378.439c17.99,0,32.626,14.691,32.626,32.747v62.155c0,12.209-9.933,22.143-22.142,22.143
	c-0.673,0-1.354-0.03-2.04-0.09c-8.447-0.737-16.236-7.257-19.381-16.222l-20.051-57.151c-3.122-8.899-2.254-18.714,2.384-26.927
	c4.637-8.213,12.592-14.027,21.826-15.95C177.553,378.676,179.834,378.439,182.084,378.439"/>
<g>
</g>
<g>
</g>
<g>
</g>
<g>
</g>
<g>
</g>
<g>
</g>
<g>
</g>
<g>
</g>
<g>
</g>
<g>
</g>
<g>
</g>
<g>
</g>
<g>
</g>
<g>
</g>
<g>
</g>
</svg>
