<?xml version="1.0" encoding="iso-8859-1"?>
<!-- Generator: Adobe Illustrator 19.0.0, SVG Export Plug-In . SVG Version: 6.00 Build 0)  -->
<svg version="1.1" id="Capa_1" xmlns="http://www.w3.org/2000/svg" xmlns:xlink="http://www.w3.org/1999/xlink" x="0px" y="0px"
	 viewBox="0 0 512 512" style="enable-background:new 0 0 512 512;" xml:space="preserve">
<g>
	<path style="fill:#FFD164;" d="M320,228H192c-4.422,0-8-3.582-8-8s3.578-8,8-8h128c4.422,0,8,3.582,8,8S324.422,228,320,228z"/>
	<path style="fill:#FFD164;" d="M280.617,280.738c-3.82,0-7.195-2.738-7.875-6.625C271.32,265.938,264.273,260,256,260
		s-15.32,5.938-16.742,14.113c-0.758,4.348-4.828,7.234-9.258,6.508c-4.352-0.762-7.266-4.906-6.508-9.258
		C226.258,255.508,239.93,244,256,244s29.742,11.508,32.508,27.363c0.758,4.352-2.156,8.496-6.508,9.258
		C281.539,280.699,281.07,280.738,280.617,280.738z"/>
	<path style="fill:#FFD164;" d="M40,292H24c-13.234,0-24-10.766-24-24v-82.746c0-10.68,4.164-20.727,11.719-28.281l38.625-38.629
		c3.125-3.125,8.188-3.125,11.312,0c3.124,3.125,3.125,8.188,0,11.312l-38.625,38.629C18.562,172.754,16,178.938,16,185.254V268
		c0,4.41,3.586,8,8,8h16c4.422,0,8,3.582,8,8S44.422,292,40,292z"/>
	<path style="fill:#FFD164;" d="M488,292h-16c-4.422,0-8-3.582-8-8s3.578-8,8-8h16c4.414,0,8-3.59,8-8v-82.746
		c0-6.316-2.562-12.5-7.031-16.969l-38.625-38.629c-3.125-3.125-3.125-8.188,0-11.312s8.188-3.125,11.312,0l38.625,38.629
		c7.555,7.555,11.719,17.602,11.719,28.281V268C512,281.234,501.234,292,488,292z"/>
</g>
<g>
	<path style="fill:#FFE17D;" d="M104,396c-39.703,0-72-32.301-72-72v-40c0-39.699,32.297-72,72-72h88c26.469,0,48,21.531,48,48
		C240,334.992,178.992,396,104,396z"/>
	<path style="fill:#FFE17D;" d="M408,396c-74.992,0-136-61.008-136-136c0-26.469,21.531-48,48-48h88c39.703,0,72,32.301,72,72v40
		C480,363.699,447.703,396,408,396z"/>
</g>
<path style="fill:#867E88;" d="M104,228c-30.875,0-56,25.121-56,56v40c0,30.879,25.125,56,56,56c66.172,0,120-53.832,120-120
	c0-17.645-14.352-32-32-32H104z"/>
<path style="fill:#6F6571;" d="M104,244h88c15.82,0,28.9,11.562,31.46,26.661c0.312-3.519,0.54-7.062,0.54-10.661
	c0-17.645-14.352-32-32-32h-88c-30.875,0-56,25.121-56,56v16C48,269.121,73.125,244,104,244z"/>
<path style="fill:#867E88;" d="M320,228c-17.648,0-32,14.355-32,32c0,66.168,53.828,120,120,120c30.875,0,56-25.121,56-56v-40
	c0-30.879-25.125-56-56-56H320z"/>
<path style="fill:#9C969E;" d="M417.091,348c16.766,0,32.298-3.759,45.095-10.113C455.983,362.057,434.074,380,408,380
	c-46.159,0-86.245-26.232-106.31-64.535C331.939,335.578,372.463,348,417.091,348z"/>
<path style="fill:#6F6571;" d="M408,228h-88c-17.648,0-32,14.355-32,32c0,3.598,0.229,7.142,0.54,10.661
	C291.1,255.562,304.18,244,320,244h88c30.875,0,56,25.121,56,56v-16C464,253.121,438.875,228,408,228z"/>
<path style="fill:#9C969E;" d="M94.909,348c-16.766,0-32.298-3.759-45.095-10.113C56.017,362.057,77.926,380,104,380
	c46.159,0,86.245-26.232,106.31-64.535C180.061,335.578,139.537,348,94.909,348z"/>
<g>
</g>
<g>
</g>
<g>
</g>
<g>
</g>
<g>
</g>
<g>
</g>
<g>
</g>
<g>
</g>
<g>
</g>
<g>
</g>
<g>
</g>
<g>
</g>
<g>
</g>
<g>
</g>
<g>
</g>
</svg>
