<?xml version="1.0" encoding="iso-8859-1"?>
<!-- Generator: Adobe Illustrator 19.0.0, SVG Export Plug-In . SVG Version: 6.00 Build 0)  -->
<svg version="1.1" id="Capa_1" xmlns="http://www.w3.org/2000/svg" xmlns:xlink="http://www.w3.org/1999/xlink" x="0px" y="0px"
	 viewBox="0 0 512 512" style="enable-background:new 0 0 512 512;" xml:space="preserve">
<path style="fill:#EDEBED;" d="M256,41.29C137.419,41.29,41.29,137.419,41.29,256S137.419,470.71,256,470.71
	S470.71,374.581,470.71,256S374.581,41.29,256,41.29z M256,379.871c-68.412,0-123.871-55.459-123.871-123.871
	S187.588,132.129,256,132.129S379.871,187.588,379.871,256S324.412,379.871,256,379.871z"/>
<path style="fill:#DBD9DC;" d="M256,115.613c-77.533,0-140.387,62.853-140.387,140.387c0,77.533,62.854,140.387,140.387,140.387
	c77.534,0,140.387-62.854,140.387-140.387C396.387,178.466,333.534,115.613,256,115.613z M256,379.871
	c-68.412,0-123.871-55.459-123.871-123.871S187.588,132.129,256,132.129S379.871,187.588,379.871,256S324.412,379.871,256,379.871z"
	/>
<path style="fill:#EDEBED;" d="M256,512C114.839,512,0,397.157,0,256S114.839,0,256,0s256,114.843,256,256S397.161,512,256,512z
	 M256,16.516C123.952,16.516,16.516,123.948,16.516,256S123.952,495.484,256,495.484S495.484,388.052,495.484,256
	S388.048,16.516,256,16.516z"/>
<g>
	<path style="fill:#DBD9DC;" d="M256,57.806L256,57.806c-9.122,0-16.516-7.395-16.516-16.516V16.516C239.484,7.395,246.878,0,256,0
		l0,0c9.122,0,16.516,7.395,16.516,16.516V41.29C272.516,50.412,265.122,57.806,256,57.806z"/>
	<path style="fill:#DBD9DC;" d="M256,512L256,512c-9.122,0-16.516-7.395-16.516-16.516V470.71c0-9.122,7.395-16.516,16.516-16.516
		l0,0c9.122,0,16.516,7.395,16.516,16.516v24.774C272.516,504.605,265.122,512,256,512z"/>
	<path style="fill:#DBD9DC;" d="M280.774,445.935c-118.581,0-214.71-96.129-214.71-214.71c0-52.982,19.229-101.448,51.038-138.895
		C70.741,131.715,41.29,190.403,41.29,256c0,118.581,96.129,214.71,214.71,214.71c65.598,0,124.287-29.451,163.67-75.814
		C382.224,426.706,333.757,445.935,280.774,445.935z"/>
</g>
<g>
	<path style="fill:#FF8087;" d="M132.129,256c0-34.206,13.865-65.174,36.281-87.59l-64.233-64.233
		C65.323,143.032,41.29,196.709,41.29,256c0,59.29,24.032,112.968,62.887,151.823l64.233-64.233
		C145.994,321.173,132.129,290.206,132.129,256z"/>
	<path style="fill:#FF8087;" d="M379.871,256c0,34.206-13.865,65.174-36.281,87.59l64.233,64.233
		C446.677,368.968,470.71,315.291,470.71,256c0-59.29-24.032-112.968-62.887-151.823L343.59,168.41
		C366.006,190.827,379.871,221.794,379.871,256z"/>
</g>
<path style="fill:#E6646E;" d="M106.259,106.259l-2.082-2.082C65.323,143.032,41.29,196.709,41.29,256
	c0,59.29,24.032,112.968,62.887,151.823l24.774-24.774c-38.855-38.855-62.887-92.532-62.887-151.823
	C66.065,184.585,80.992,141.464,106.259,106.259z"/>
<g>
	<path style="fill:#DBD9DC;" d="M454.194,256L454.194,256c0-9.122,7.395-16.516,16.516-16.516h24.774
		c9.122,0,16.516,7.395,16.516,16.516l0,0c0,9.122-7.395,16.516-16.516,16.516H470.71C461.588,272.516,454.194,265.122,454.194,256z
		"/>
	<path style="fill:#DBD9DC;" d="M0,256L0,256c0-9.122,7.395-16.516,16.516-16.516H41.29c9.122,0,16.516,7.395,16.516,16.516l0,0
		c0,9.122-7.395,16.516-16.516,16.516H16.516C7.395,272.516,0,265.122,0,256z"/>
</g>
<g>
	<path style="fill:#E6646E;" d="M132.129,256c0-34.206,13.865-65.174,36.281-87.59l-11.679-11.679
		c-25.405,25.405-41.118,60.502-41.118,99.269s15.713,73.864,41.118,99.269l11.679-11.679
		C145.994,321.173,132.129,290.206,132.129,256z"/>
	<path style="fill:#E6646E;" d="M355.269,156.731L343.59,168.41c22.416,22.416,36.281,53.384,36.281,87.59
		s-13.865,65.174-36.281,87.59l11.679,11.679c25.405-25.405,41.118-60.502,41.118-99.269S380.673,182.136,355.269,156.731z"/>
</g>
<g>
</g>
<g>
</g>
<g>
</g>
<g>
</g>
<g>
</g>
<g>
</g>
<g>
</g>
<g>
</g>
<g>
</g>
<g>
</g>
<g>
</g>
<g>
</g>
<g>
</g>
<g>
</g>
<g>
</g>
</svg>
