<?xml version="1.0" encoding="iso-8859-1"?>
<!-- Generator: Adobe Illustrator 19.0.0, SVG Export Plug-In . SVG Version: 6.00 Build 0)  -->
<svg version="1.1" id="Capa_1" xmlns="http://www.w3.org/2000/svg" xmlns:xlink="http://www.w3.org/1999/xlink" x="0px" y="0px"
	 viewBox="0 0 512 512" style="enable-background:new 0 0 512 512;" xml:space="preserve">
<path style="fill:#D4F582;" d="M251.638,86.708h167.764c31.617,0,62.686,8.251,90.137,23.937l0,0
	c4.334,2.477,2.577,9.095-2.415,9.095H163.916c-4.992,0-6.75-6.618-2.415-9.095l0,0C188.952,94.959,220.021,86.708,251.638,86.708z"
	/>
<path style="fill:#BEE86E;" d="M509.542,110.648c-4.776-2.729-9.695-5.149-14.674-7.423h-81.965V86.708h-24.774v8.258
	c0,4.561-3.697,8.258-8.258,8.258H256V86.708h-4.362c-6.843,0-13.651,0.461-20.412,1.226v7.032c0,4.561-3.697,8.258-8.258,8.258
	h-46.797c-4.979,2.275-9.898,4.694-14.674,7.423c-4.317,2.467-2.553,9.093,2.419,9.093h343.208
	C512.095,119.74,513.859,113.114,509.542,110.648z"/>
<g>
	<path style="fill:#C9C6CA;" d="M256,152.773c-4.565,0-8.258-3.698-8.258-8.258V86.708c0-4.56,3.694-8.258,8.258-8.258
		s8.258,3.698,8.258,8.258v57.806C264.258,149.076,260.565,152.773,256,152.773z"/>
	<path style="fill:#C9C6CA;" d="M412.903,152.773c-4.565,0-8.258-3.698-8.258-8.258V86.708c0-4.56,3.694-8.258,8.258-8.258
		s8.258,3.698,8.258,8.258v57.806C421.161,149.076,417.468,152.773,412.903,152.773z"/>
</g>
<path style="fill:#EDEBED;" d="M489.711,235.705l-29.645-83.006c-3.521-9.86-12.861-16.442-23.331-16.442H75.265
	c-10.47,0-19.809,6.582-23.331,16.442l-29.645,83.006c-3.821,10.697-5.773,21.971-5.773,33.33v114.964h478.968V269.035
	C495.484,257.676,493.531,246.402,489.711,235.705z"/>
<path style="fill:#DBD9DC;" d="M22.289,235.705c-2.819,7.892-4.603,16.1-5.355,24.423h478.131
	c-0.751-8.323-2.536-16.531-5.355-24.423l-23.72-66.416H46.01L22.289,235.705z"/>
<path style="fill:#BEE86E;" d="M16.516,269.035v114.964h478.968V269.035c0-2.979-0.151-5.949-0.418-8.907H16.934
	C16.667,263.086,16.516,266.056,16.516,269.035z"/>
<path style="fill:#AFD755;" d="M434.699,350.967c-3.614,0-7.208-1.083-9.998-3.38c-9.95-8.193-22.666-13.136-36.572-13.136
	s-26.622,4.943-36.572,13.136c-2.79,2.297-6.384,3.38-9.998,3.38H170.441c-3.614,0-7.208-1.083-9.998-3.38
	c-9.95-8.193-22.666-13.136-36.572-13.136s-26.622,4.943-36.572,13.136c-2.79,2.297-6.384,3.38-9.998,3.38H16.516v33.032h478.968
	v-33.032H434.699z"/>
<circle style="fill:#5D5360;" cx="123.87" cy="392.259" r="41.29"/>
<g>
	<path style="fill:#EDEBED;" d="M41.29,400.515H8.258c-4.561,0-8.258-3.697-8.258-8.258v-16.516c0-4.561,3.697-8.258,8.258-8.258
		H41.29c4.561,0,8.258,3.697,8.258,8.258v16.516C49.548,396.818,45.851,400.515,41.29,400.515z"/>
	<path style="fill:#EDEBED;" d="M503.742,400.515H470.71c-4.561,0-8.258-3.697-8.258-8.258v-16.516c0-4.561,3.697-8.258,8.258-8.258
		h33.032c4.561,0,8.258,3.697,8.258,8.258v16.516C512,396.818,508.303,400.515,503.742,400.515z"/>
</g>
<g>
	<path style="fill:#FFFFFF;" d="M305.548,260.128h-99.097c-9.122,0-16.516-7.395-16.516-16.516v-24.774
		c0-9.122,7.395-16.516,16.516-16.516h99.097c9.122,0,16.516,7.395,16.516,16.516v24.774
		C322.065,252.734,314.67,260.128,305.548,260.128z"/>
	<path style="fill:#FFFFFF;" d="M355.097,218.839v24.774c0,9.122,7.395,16.516,16.516,16.516h67.236
		c11.198,0,19.213-10.926,15.773-21.583c-0.307-0.951-0.629-1.898-0.965-2.84l-8.008-22.422
		c-2.348-6.573-8.574-10.961-15.554-10.961h-58.481C362.491,202.322,355.097,209.716,355.097,218.839z"/>
	<path style="fill:#FFFFFF;" d="M156.903,218.839v24.774c0,9.122-7.395,16.516-16.516,16.516H73.151
		c-11.198,0-19.213-10.926-15.773-21.583c0.307-0.951,0.629-1.898,0.965-2.84l8.008-22.422c2.348-6.573,8.574-10.961,15.554-10.961
		h58.481C149.509,202.322,156.903,209.716,156.903,218.839z"/>
</g>
<g>
	<path style="fill:#EDEBED;" d="M379.871,301.418h-16.516c-4.565,0-8.258-3.698-8.258-8.258s3.694-8.258,8.258-8.258h16.516
		c4.565,0,8.258,3.698,8.258,8.258S384.435,301.418,379.871,301.418z"/>
	<path style="fill:#EDEBED;" d="M487.226,293.16c-9.121,0-16.516,7.394-16.516,16.516c0,9.121,7.395,16.516,16.516,16.516h8.258
		V293.16L487.226,293.16L487.226,293.16z"/>
</g>
<g>
	<path style="fill:#DBD9DC;" d="M41.29,383.999H8.258c-4.561,0-8.258-3.697-8.258-8.258v16.516c0,4.561,3.697,8.258,8.258,8.258
		H41.29c4.561,0,8.258-3.697,8.258-8.258v-16.516C49.548,380.302,45.851,383.999,41.29,383.999z"/>
	<path style="fill:#DBD9DC;" d="M503.742,383.999H470.71c-4.561,0-8.258-3.697-8.258-8.258v16.516c0,4.561,3.697,8.258,8.258,8.258
		h33.032c4.561,0,8.258-3.697,8.258-8.258v-16.516C512,380.302,508.303,383.999,503.742,383.999z"/>
	<circle style="fill:#DBD9DC;" cx="123.87" cy="392.259" r="16.516"/>
</g>
<circle style="fill:#5D5360;" cx="388.13" cy="392.259" r="41.29"/>
<circle style="fill:#DBD9DC;" cx="388.13" cy="392.259" r="16.516"/>
<path style="fill:#D4F582;" d="M495.066,260.128H61.935c-6.841,0-12.387,5.546-12.387,12.387l0,0
	c0,6.841,5.546,12.387,12.387,12.387h433.548v-15.867C495.484,266.056,495.333,263.086,495.066,260.128z"/>
<g>
</g>
<g>
</g>
<g>
</g>
<g>
</g>
<g>
</g>
<g>
</g>
<g>
</g>
<g>
</g>
<g>
</g>
<g>
</g>
<g>
</g>
<g>
</g>
<g>
</g>
<g>
</g>
<g>
</g>
</svg>
