<?xml version="1.0" encoding="iso-8859-1"?>
<!-- Generator: Adobe Illustrator 19.0.0, SVG Export Plug-In . SVG Version: 6.00 Build 0)  -->
<svg version="1.1" id="Capa_1" xmlns="http://www.w3.org/2000/svg" xmlns:xlink="http://www.w3.org/1999/xlink" x="0px" y="0px"
	 viewBox="0 0 512 512" style="enable-background:new 0 0 512 512;" xml:space="preserve">
<g>
	<path style="fill:#F0C382;" d="M243.48,199.61L96.495,52.625c-3.225-3.225-8.454-3.225-11.678,0l-11.68,11.679
		c-3.225,3.225-3.225,8.454,0,11.678L243.48,246.325V199.61z"/>
	<path style="fill:#F0C382;" d="M251.738,247.742H499.48c4.561,0,8.258-3.697,8.258-8.258v-16.516c0-4.561-3.697-8.258-8.258-8.258
		H251.738V247.742z"/>
	<path style="fill:#F0C382;" d="M4.27,252.129l14.79,236.643C19.877,501.828,30.704,512,43.787,512H459.69
		c13.082,0,23.91-10.172,24.726-23.229l15.065-241.029H8.391C6.009,247.742,4.122,249.751,4.27,252.129z"/>
</g>
<polygon style="fill:#E3AA75;" points="497.415,280.774 499.48,247.742 251.738,247.742 251.738,280.774 "/>
<polygon style="fill:#D29B6E;" points="498.448,264.258 499.48,247.742 251.738,247.742 251.738,264.258 "/>
<path style="fill:#E3AA75;" d="M101.593,495.484c-13.082,0-23.91-10.172-24.726-23.229L64.899,280.774h186.839v-33.032H62.835H8.391
	c-2.382,0-4.27,2.01-4.121,4.387l1.79,28.646l0,0l13,207.997C19.877,501.828,30.704,512,43.786,512H459.69
	c10.715,0,19.818-6.872,23.246-16.516H101.593z"/>
<path style="fill:#D29B6E;" d="M64.899,280.774l-2.065-33.032H8.391c-2.382,0-4.27,2.01-4.121,4.387l1.79,28.646h58.839V280.774z"/>
<path style="fill:#B67F5F;" d="M251.738,0c-9.121,0-16.516,7.395-16.516,16.516v272.516h33.032V16.516
	C268.254,7.395,260.859,0,251.738,0z"/>
<circle style="fill:#D29B6E;" cx="251.74" cy="313.81" r="33.03"/>
<circle style="fill:#B67F5F;" cx="251.74" cy="313.81" r="16.516"/>
<g>
</g>
<g>
</g>
<g>
</g>
<g>
</g>
<g>
</g>
<g>
</g>
<g>
</g>
<g>
</g>
<g>
</g>
<g>
</g>
<g>
</g>
<g>
</g>
<g>
</g>
<g>
</g>
<g>
</g>
</svg>
