<?xml version="1.0" encoding="iso-8859-1"?>
<!-- Generator: Adobe Illustrator 19.0.0, SVG Export Plug-In . SVG Version: 6.00 Build 0)  -->
<svg version="1.1" id="Capa_1" xmlns="http://www.w3.org/2000/svg" xmlns:xlink="http://www.w3.org/1999/xlink" x="0px" y="0px"
	 viewBox="0 0 512.001 512.001" style="enable-background:new 0 0 512.001 512.001;" xml:space="preserve">
<path style="fill:#BEE86E;" d="M8.317,127.935c-4.636,0-8.463,3.828-8.313,8.461C4.468,273.937,117.373,384.067,256,384.067
	s251.532-110.13,255.996-247.672c0.15-4.633-3.677-8.461-8.313-8.461L8.317,127.935L8.317,127.935z"/>
<path style="fill:#AFD755;" d="M305.707,375.804c-138.627,0-251.531-110.13-255.996-247.672c-0.002-0.07,0.036-0.128,0.035-0.198
	H8.317c-4.635,0-8.463,3.828-8.313,8.461C4.468,273.937,117.373,384.067,256,384.067c23.166,0,45.588-3.139,66.931-8.904
	C317.232,375.542,311.502,375.804,305.707,375.804z"/>
<path style="fill:#FFBE96;" d="M24.655,127.935C24.655,255.703,128.231,359.28,256,359.28s231.345-103.577,231.345-231.345
	C487.345,127.935,24.655,127.935,24.655,127.935z"/>
<path style="fill:#FF8087;" d="M49.442,127.935c0,114.078,92.479,206.558,206.558,206.558s206.558-92.479,206.558-206.558
	C462.558,127.935,49.442,127.935,49.442,127.935z"/>
<path style="fill:#E6646E;" d="M90.754,127.935c0,91.263,73.983,165.246,165.246,165.246s165.246-73.983,165.246-165.246
	C421.246,127.935,90.754,127.935,90.754,127.935z"/>
<g>
	<path style="fill:#5D5360;" d="M226.751,307.103c-0.516,0-1.041-0.048-1.565-0.149c-4.478-0.855-7.415-5.188-6.56-9.666
		l3.106-16.21c0.855-4.482,5.196-7.443,9.674-6.56c4.478,0.855,7.415,5.188,6.56,9.666l-3.106,16.21
		C234.102,304.352,230.64,307.103,226.751,307.103z"/>
	<path style="fill:#5D5360;" d="M100.774,201.238c-3.365,0-6.52-2.07-7.754-5.41c-1.573-4.28,0.613-9.029,4.898-10.61l15.5-5.713
		c4.276-1.569,9.029,0.613,10.61,4.898c1.573,4.28-0.613,9.029-4.898,10.61l-15.5,5.713
		C102.687,201.072,101.726,201.238,100.774,201.238z"/>
	<path style="fill:#5D5360;" d="M173.094,287.432c-1.517,0-3.05-0.416-4.43-1.291c-3.849-2.453-4.986-7.56-2.534-11.409
		l8.876-13.943c2.453-3.841,7.552-4.97,11.409-2.534c3.849,2.453,4.986,7.56,2.534,11.409l-8.876,13.943
		C178.5,286.08,175.821,287.432,173.094,287.432z"/>
	<path style="fill:#5D5360;" d="M129.652,250.957c-2.316,0-4.615-0.968-6.253-2.86c-2.985-3.453-2.598-8.67,0.847-11.655
		l12.498-10.8c3.453-2.969,8.658-2.614,11.659,0.851c2.985,3.453,2.598,8.67-0.847,11.655l-12.498,10.8
		C133.493,250.295,131.573,250.957,129.652,250.957z"/>
	<path style="fill:#5D5360;" d="M285.241,307.103c-3.825,0-7.254-2.667-8.077-6.56l-3.405-16.158
		c-0.944-4.462,1.912-8.847,6.382-9.787c4.446-0.944,8.843,1.912,9.787,6.382l3.405,16.158c0.944,4.462-1.912,8.847-6.382,9.787
		C286.379,307.047,285.806,307.103,285.241,307.103z"/>
	<path style="fill:#5D5360;" d="M338.632,287.601c-2.864,0-5.64-1.485-7.173-4.143l-8.238-14.326
		c-2.275-3.958-0.912-9.009,3.05-11.28c3.946-2.283,8.997-0.908,11.28,3.042l8.238,14.326c2.275,3.958,0.912,9.009-3.05,11.28
		C341.448,287.246,340.027,287.601,338.632,287.601z"/>
	<path style="fill:#5D5360;" d="M411.145,201.46c-1.065,0-2.138-0.206-3.179-0.641l-15.25-6.358
		c-4.212-1.755-6.205-6.592-4.446-10.804c1.759-4.216,6.608-6.197,10.804-4.446l15.25,6.358c4.212,1.755,6.205,6.592,4.446,10.804
		C417.447,199.543,414.381,201.46,411.145,201.46z"/>
	<path style="fill:#5D5360;" d="M382.348,250.957c-1.969,0-3.946-0.698-5.527-2.122l-12.281-11.054
		c-3.389-3.054-3.663-8.274-0.613-11.667c3.05-3.393,8.279-3.667,11.667-0.613l12.281,11.054c3.389,3.054,3.663,8.274,0.613,11.667
		C386.858,250.033,384.607,250.957,382.348,250.957z"/>
</g>
<path style="fill:#FFA891;" d="M197.067,351.679C112.33,311.931,52.925,227.138,49.711,128.132c-0.002-0.07,0.036-0.128,0.035-0.198
	H24.655C24.655,235.333,97.848,325.614,197.067,351.679z"/>
<g>
</g>
<g>
</g>
<g>
</g>
<g>
</g>
<g>
</g>
<g>
</g>
<g>
</g>
<g>
</g>
<g>
</g>
<g>
</g>
<g>
</g>
<g>
</g>
<g>
</g>
<g>
</g>
<g>
</g>
</svg>
