<?xml version="1.0" encoding="iso-8859-1"?>
<!-- Generator: Adobe Illustrator 19.0.0, SVG Export Plug-In . SVG Version: 6.00 Build 0)  -->
<svg version="1.1" id="Capa_1" xmlns="http://www.w3.org/2000/svg" xmlns:xlink="http://www.w3.org/1999/xlink" x="0px" y="0px"
	 viewBox="0 0 512 512" style="enable-background:new 0 0 512 512;" xml:space="preserve">
<g>
	<path style="fill:#E6646E;" d="M48,284H24c-13.234,0-24-10.766-24-24v-82.746c0-10.68,4.164-20.727,11.719-28.281l38.625-38.629
		c3.125-3.125,8.188-3.125,11.312,0c3.124,3.125,3.125,8.188,0,11.312l-38.625,38.629C18.562,164.754,16,170.938,16,177.254V260
		c0,4.41,3.586,8,8,8h24c4.422,0,8,3.582,8,8S52.422,284,48,284z"/>
	<path style="fill:#E6646E;" d="M488,284h-24c-4.422,0-8-3.582-8-8s3.578-8,8-8h24c4.414,0,8-3.59,8-8v-82.746
		c0-6.316-2.562-12.5-7.031-16.969l-38.625-38.629c-3.125-3.125-3.125-8.188,0-11.312s8.188-3.125,11.312,0l38.625,38.629
		c7.555,7.555,11.719,17.602,11.719,28.281V260C512,273.234,501.234,284,488,284z"/>
	<path style="fill:#E6646E;" d="M280,295.691c-4.422,0-8-3.582-8-8V284c0-8.824-7.18-16-16-16s-16,7.176-16,16v3.691
		c0,4.418-3.578,8-8,8s-8-3.582-8-8V284c0-17.645,14.352-32,32-32s32,14.355,32,32v3.691C288,292.109,284.422,295.691,280,295.691z"
		/>
</g>
<path style="fill:#FF8087;" d="M376,404c-2.738,0-5.48-0.703-7.938-2.109C325.488,377.562,280,334.625,280,287.078
	C280,254.504,306.504,228,339.078,228c13.539,0,26.566,4.758,36.922,13.055C386.355,232.758,399.383,228,412.922,228
	C445.496,228,472,254.504,472,287.078c0,47.547-45.488,90.484-88.062,114.812C381.48,403.297,378.738,404,376,404z"/>
<path style="fill:#E6646E;" d="M412.922,244c-15.239,0-29.041,7.839-36.922,20.969C368.119,251.839,354.317,244,339.078,244
	C315.325,244,296,263.325,296,287.078c0,31.469,27.398,68.191,71.503,95.835l8.497,5.326l8.497-5.326
	C428.602,355.269,456,318.548,456,287.078C456,263.325,436.675,244,412.922,244L412.922,244z"/>
<path style="fill:#FFE17D;" d="M339.078,260C324.148,260,312,272.148,312,287.078c0,25.742,25.391,58.078,64,82.277
	c38.609-24.199,64-56.535,64-82.277c0-14.93-12.148-27.078-27.078-27.078c-9.566,0-18.242,4.938-23.203,13.203
	c-2.891,4.82-8.098,7.77-13.719,7.77s-10.828-2.949-13.719-7.77C357.32,264.938,348.645,260,339.078,260z"/>
<path style="fill:#FFC350;" d="M328,287.078c0-6.108,4.97-11.078,11.078-11.078c3.954,0,7.411,1.981,9.481,5.432
	c5.749,9.586,16.263,15.541,27.44,15.541c11.178,0,21.692-5.955,27.438-15.536c2.074-3.456,5.531-5.437,9.484-5.437
	c6.108,0,11.078,4.97,11.078,11.078c0,4.536,1.925,8.858,5.296,11.893c2.232,2.009,4.96,3.321,7.857,3.846
	c1.848-5.423,2.847-10.708,2.847-15.738c0-14.93-12.148-27.078-27.078-27.078c-9.566,0-18.242,4.938-23.203,13.203
	c-2.891,4.82-8.098,7.77-13.719,7.77s-10.828-2.949-13.719-7.77C357.32,264.938,348.645,260,339.078,260
	C324.148,260,312,272.148,312,287.078c0,5.01,0.989,10.274,2.823,15.675C322.358,301.398,328,294.888,328,287.078z"/>
<path style="fill:#FF8087;" d="M136,404c-2.738,0-5.48-0.703-7.938-2.109C85.488,377.562,40,334.625,40,287.078
	C40,254.504,66.504,228,99.078,228c13.539,0,26.566,4.758,36.922,13.055C146.355,232.758,159.383,228,172.922,228
	C205.496,228,232,254.504,232,287.078c0,47.547-45.488,90.484-88.062,114.812C141.48,403.297,138.738,404,136,404z"/>
<path style="fill:#E6646E;" d="M172.922,244c-15.239,0-29.041,7.839-36.922,20.969C128.119,251.839,114.317,244,99.078,244
	C75.325,244,56,263.325,56,287.078c0,31.469,27.398,68.191,71.503,95.835l8.497,5.326l8.497-5.326
	C188.602,355.269,216,318.548,216,287.078C216,263.325,196.675,244,172.922,244L172.922,244z"/>
<path style="fill:#FFE17D;" d="M99.078,260C84.148,260,72,272.148,72,287.078c0,25.742,25.391,58.078,64,82.277
	c38.609-24.199,64-56.535,64-82.277c0-14.93-12.148-27.078-27.078-27.078c-9.566,0-18.242,4.938-23.203,13.203
	c-2.891,4.82-8.098,7.77-13.719,7.77s-10.828-2.949-13.719-7.77C117.32,264.938,108.645,260,99.078,260z"/>
<path style="fill:#FFC350;" d="M88,287.078C88,280.97,92.97,276,99.078,276c3.954,0,7.411,1.981,9.481,5.432
	c5.749,9.586,16.263,15.541,27.44,15.541c11.178,0,21.692-5.955,27.438-15.536c2.074-3.456,5.531-5.437,9.484-5.437
	c6.108,0,11.078,4.97,11.078,11.078c0,4.536,1.925,8.858,5.296,11.893c2.232,2.009,4.96,3.321,7.857,3.846
	c1.848-5.423,2.847-10.708,2.847-15.738c0-14.93-12.148-27.078-27.078-27.078c-9.566,0-18.242,4.938-23.203,13.203
	c-2.891,4.82-8.098,7.77-13.719,7.77s-10.828-2.949-13.719-7.77C117.32,264.938,108.645,260,99.078,260
	C84.148,260,72,272.148,72,287.078c0,5.01,0.989,10.274,2.823,15.675C82.358,301.398,88,294.888,88,287.078z"/>
<g>
</g>
<g>
</g>
<g>
</g>
<g>
</g>
<g>
</g>
<g>
</g>
<g>
</g>
<g>
</g>
<g>
</g>
<g>
</g>
<g>
</g>
<g>
</g>
<g>
</g>
<g>
</g>
<g>
</g>
</svg>
