<?xml version="1.0" encoding="iso-8859-1"?>
<!-- Generator: Adobe Illustrator 19.0.0, SVG Export Plug-In . SVG Version: 6.00 Build 0)  -->
<svg version="1.1" id="Capa_1" xmlns="http://www.w3.org/2000/svg" xmlns:xlink="http://www.w3.org/1999/xlink" x="0px" y="0px"
	 viewBox="0 0 512.001 512.001" style="enable-background:new 0 0 512.001 512.001;" xml:space="preserve">
<path style="fill:#A5CDFF;" d="M343.67,1.519c-39.354,6.058-67.744,41.102-67.744,80.919v0.004
	c-2.124,36.113-0.051,72.342,6.173,107.961l18.663,112.571c2.885,17.399,4.775,34.985,4.787,52.622c0,0.101,0,0.202,0,0.303v79.234
	c0,39.586,29.873,74.15,69.376,76.708c43.287,2.802,79.27-31.478,79.27-74.162v-54.941c0-22.655,1.726-45.268,5.16-67.642
	l21.978-114.646c3.922-25.326,5.894-50.926,5.894-76.576v-0.003C487.227,49,420.803-10.356,343.67,1.519z"/>
<path style="fill:#8CB4EB;" d="M363.356,24.774c54.642,0,99.097,44.456,99.097,99.1c0,24.144-1.862,48.485-5.535,72.351
	l-21.894,114.206l-0.087,0.452l-0.07,0.455c-3.614,23.551-5.447,47.573-5.447,71.399v54.941c0,27.321-22.227,49.548-49.548,49.548
	c-1.107,0-2.225-0.036-3.346-0.109c-25.908-1.677-46.202-24.512-46.202-51.985v-79.554c-0.012-17.412-1.687-35.944-5.121-56.656
	l-18.699-112.784c-5.888-33.696-7.855-68.096-5.846-102.245l0.043-0.727v-0.728c0-28.07,20.093-52.332,46.739-56.433
	C352.742,25.188,358.097,24.774,363.356,24.774"/>
<path style="fill:#FFE17D;" d="M324.139,338.581c3.907,0,7.831-1.379,10.976-4.177c6.815-6.065,7.423-16.504,1.359-23.319
	c-23.129-25.988-33.359-53.198-30.407-80.867c5.04-47.206,46.48-86.347,66.52-102.714c24.315,16.105,77.698,56.657,82.669,105.008
	c2.698,26.202-9.762,52.246-37.028,77.415c-6.702,6.19-7.121,16.637-0.935,23.339c6.202,6.706,16.645,7.117,23.339,0.935
	c35.327-32.609,51.302-67.96,47.484-105.069c-7.234-70.355-84.488-121.839-107.996-135.94c-5.685-3.419-12.867-3.089-18.238,0.823
	c-18.952,13.843-81.363,64.327-88.661,132.694c-3.984,37.323,8.996,73.097,38.577,106.335
	C315.058,336.71,319.59,338.581,324.139,338.581z"/>
<path style="fill:#FFD164;" d="M471.685,230.821c-5.52-53.675-58.743-96.398-89.978-117.086l-5.072-3.359
	c-3.016-1.998-6.982-1.8-9.784,0.489l-4.712,3.848c-24.692,20.166-66.945,61.76-72.496,113.753
	c-3.467,32.497,8.139,63.989,34.492,93.601l11.269,12.022c6.509-6.103,7.036-16.297,1.069-23.003
	c-23.129-25.988-33.359-53.198-30.407-80.867c5.04-47.206,46.48-86.347,66.52-102.714c24.315,16.105,77.698,56.657,82.669,105.008
	c2.698,26.202-9.762,52.246-37.028,77.415c-6.702,6.19-7.121,16.637-0.935,23.339c0.153,0.165,0.337,0.28,0.495,0.438l11.643-11.64
	C460.727,293.173,474.944,262.474,471.685,230.821z"/>
<path style="fill:#78A0DC;" d="M340.588,322.064h0.143c9.587,0,16.039-10.758,10.641-18.68c-0.771-1.132-1.624-2.227-2.56-3.279
	c-19.904-22.364-28.76-45.288-26.323-68.135c3.755-35.166,32.275-66.441,51.168-83.592c22.139,16.175,61.453,49.682,65.169,85.824
	c2.136,20.745-8.564,42.139-31.801,63.59c-1.51,1.394-2.855,2.898-4.038,4.487c-6.072,8.163-0.197,19.786,9.977,19.786l0,0
	c0.002-4.448,1.738-8.881,5.264-12.137c27.266-25.169,39.726-51.214,37.028-77.415c-4.972-48.351-58.355-88.903-82.669-105.008
	c-20.04,16.367-61.48,55.508-66.52,102.714c-2.952,27.669,7.278,54.879,30.407,80.867
	C339.276,314.233,340.589,318.157,340.588,322.064z"/>
<path style="fill:#A5CDFF;" d="M168.332,1.519c39.354,6.058,67.744,41.102,67.744,80.919v0.004
	c2.124,36.113,0.051,72.342-6.173,107.961L211.24,302.974c-2.885,17.399-4.775,34.985-4.787,52.622c0,0.101,0,0.202,0,0.303v79.234
	c0,39.586-29.873,74.15-69.376,76.708c-43.287,2.802-79.269-31.478-79.269-74.162v-54.941c0-22.655-1.726-45.268-5.16-67.642
	L30.669,200.45c-3.922-25.326-5.894-50.926-5.894-76.576v-0.003C24.775,49,91.199-10.356,168.332,1.519z"/>
<path style="fill:#8CB4EB;" d="M148.646,24.774c5.259,0,10.614,0.414,15.917,1.23c26.646,4.102,46.739,28.363,46.739,56.433v0.728
	l0.043,0.727c2.009,34.149,0.042,68.549-5.846,102.245L186.8,298.921c-3.434,20.712-5.109,39.245-5.121,56.656v79.554
	c0,27.473-20.294,50.308-46.202,51.985c-1.121,0.073-2.239,0.109-3.346,0.109c-27.321,0-49.548-22.227-49.548-49.548v-54.941
	c0-23.827-1.833-47.849-5.447-71.399l-0.07-0.455l-0.087-0.452L55.085,196.224c-3.673-23.866-5.535-48.207-5.535-72.351
	C49.549,69.23,94.004,24.774,148.646,24.774"/>
<path style="fill:#FFE17D;" d="M187.863,338.581c-3.907,0-7.831-1.379-10.976-4.177c-6.815-6.065-7.423-16.504-1.359-23.319
	c23.129-25.988,33.359-53.198,30.407-80.867c-5.04-47.206-46.48-86.347-66.52-102.714c-24.315,16.105-77.698,56.657-82.669,105.008
	c-2.698,26.202,9.762,52.246,37.028,77.415c6.702,6.19,7.121,16.637,0.935,23.339c-6.202,6.706-16.645,7.117-23.339,0.935
	c-35.327-32.609-51.302-67.96-47.484-105.069c7.234-70.355,84.488-121.839,107.996-135.94c5.685-3.419,12.867-3.089,18.238,0.823
	c18.952,13.843,81.363,64.327,88.661,132.694c3.984,37.323-8.996,73.097-38.577,106.335
	C196.944,336.71,192.412,338.581,187.863,338.581z"/>
<path style="fill:#FFD164;" d="M40.317,230.821c5.52-53.675,58.743-96.398,89.978-117.086l5.072-3.359
	c3.016-1.998,6.982-1.8,9.784,0.489l4.712,3.848c24.692,20.166,66.945,61.76,72.496,113.753
	c3.467,32.497-8.139,63.989-34.492,93.601l-11.269,12.022c-6.509-6.103-7.036-16.297-1.069-23.003
	c23.129-25.988,33.359-53.198,30.407-80.867c-5.04-47.206-46.48-86.347-66.52-102.714c-24.315,16.105-77.698,56.657-82.669,105.008
	c-2.698,26.202,9.762,52.246,37.028,77.415c6.702,6.19,7.121,16.637,0.935,23.339c-0.153,0.165-0.337,0.28-0.495,0.438
	l-11.643-11.64C51.275,293.173,37.058,262.474,40.317,230.821z"/>
<path style="fill:#78A0DC;" d="M171.414,322.064h-0.143c-9.587,0-16.039-10.758-10.641-18.68c0.771-1.132,1.624-2.227,2.56-3.279
	c19.904-22.364,28.76-45.288,26.323-68.135c-3.755-35.166-32.275-66.441-51.168-83.592c-22.139,16.175-61.453,49.682-65.169,85.824
	c-2.136,20.745,8.564,42.139,31.801,63.59c1.51,1.394,2.855,2.898,4.038,4.487c6.072,8.163,0.197,19.786-9.977,19.786l0,0
	c-0.002-4.448-1.738-8.881-5.264-12.137c-27.266-25.169-39.726-51.214-37.028-77.415c4.972-48.351,58.355-88.903,82.669-105.008
	c20.04,16.367,61.48,55.508,66.52,102.714c2.952,27.669-7.278,54.879-30.407,80.867
	C172.726,314.233,171.413,318.157,171.414,322.064z"/>
<g>
</g>
<g>
</g>
<g>
</g>
<g>
</g>
<g>
</g>
<g>
</g>
<g>
</g>
<g>
</g>
<g>
</g>
<g>
</g>
<g>
</g>
<g>
</g>
<g>
</g>
<g>
</g>
<g>
</g>
</svg>
