<?xml version="1.0" encoding="iso-8859-1"?>
<!-- Generator: Adobe Illustrator 19.0.0, SVG Export Plug-In . SVG Version: 6.00 Build 0)  -->
<svg version="1.1" id="Capa_1" xmlns="http://www.w3.org/2000/svg" xmlns:xlink="http://www.w3.org/1999/xlink" x="0px" y="0px"
	 viewBox="0 0 511.999 511.999" style="enable-background:new 0 0 511.999 511.999;" xml:space="preserve">
<path style="fill:#D29B6E;" d="M318.791,111.483h16.787L324.53,50.722c-1.428-7.853-8.268-13.561-16.25-13.561H203.719
	c-7.982,0-14.822,5.708-16.249,13.561l-11.047,60.761h16.787l6.274-34.509c0.714-3.927,4.134-6.781,8.125-6.781h96.783
	c3.991,0,7.411,2.854,8.125,6.781L318.791,111.483z"/>
<path style="fill:#FF8087;" d="M478.968,474.837H33.032C14.789,474.837,0,460.048,0,441.805v-297.29
	c0-18.243,14.789-33.032,33.032-33.032h445.935c18.243,0,33.032,14.789,33.032,33.032v297.29
	C512,460.048,497.211,474.837,478.968,474.837z"/>
<path style="fill:#E6646E;" d="M82.581,458.264c-18.243,0-33.032-14.789-33.032-33.032V111.483H33.032
	C14.789,111.483,0,126.272,0,144.515v297.29c0,18.243,14.789,33.032,33.032,33.032h445.935c12.219,0,22.768-6.711,28.482-16.574
	L82.581,458.264L82.581,458.264z"/>
<rect x="82.58" y="111.479" style="fill:#E3AA75;" width="33.03" height="363.36"/>
<rect x="82.58" y="227.099" style="fill:#D29B6E;" width="33.03" height="66.06"/>
<path style="fill:#FFF0BE;" d="M115.613,227.096v33.032H82.581v-33.032H115.613 M115.613,210.58H82.581
	c-9.121,0-16.516,7.395-16.516,16.516v33.032c0,9.122,7.395,16.516,16.516,16.516h33.032c9.121,0,16.516-7.395,16.516-16.516
	v-33.032C132.129,217.974,124.734,210.58,115.613,210.58L115.613,210.58z"/>
<path style="fill:#FFE17D;" d="M99.097,284.902c-4.565,0-8.258-3.698-8.258-8.258V251.87c0-4.56,3.694-8.258,8.258-8.258
	c4.565,0,8.258,3.698,8.258,8.258v24.774C107.355,281.204,103.661,284.902,99.097,284.902z"/>
<circle style="fill:#D4F582;" cx="222.97" cy="218.839" r="49.548"/>
<circle style="fill:#BEE86E;" cx="222.97" cy="218.839" r="24.774"/>
<path style="fill:#FFE17D;" d="M326.435,287.561l4.056,22.878l21.145,9.629c6.247,2.844,6.52,11.617,0.463,14.845l-20.505,10.927
	l-2.623,23.086c-0.775,6.82-9.034,9.791-13.975,5.027l-16.728-16.125l-22.767,4.639c-6.725,1.37-12.103-5.566-9.1-11.738
	l10.166-20.892l-11.447-20.219c-3.382-5.973,1.554-13.231,8.351-12.282l23.011,3.213l15.692-17.135
	C316.81,278.353,325.237,280.803,326.435,287.561z"/>
<path style="fill:#C4DEFF;" d="M213.868,391.358l-19.482,7.621c-8.495,3.323-18.075-0.869-21.398-9.364l-7.621-19.482
	c-3.323-8.495,0.869-18.075,9.364-21.398l19.482-7.621c8.495-3.323,18.075,0.869,21.398,9.364l7.621,19.482
	C226.556,378.453,222.363,388.034,213.868,391.358z"/>
<path style="fill:#E3AA75;" d="M187.47,50.722l-0.537,2.955h138.135l-0.537-2.955c-1.428-7.853-8.268-13.561-16.25-13.561H203.719
	C195.737,37.16,188.898,42.868,187.47,50.722z"/>
<rect x="82.58" y="458.319" style="fill:#D29B6E;" width="33.03" height="16.516"/>
<rect x="396.39" y="111.479" style="fill:#E3AA75;" width="33.03" height="363.36"/>
<rect x="396.39" y="227.099" style="fill:#D29B6E;" width="33.03" height="66.06"/>
<path style="fill:#FFF0BE;" d="M429.419,227.096v33.032h-33.032v-33.032H429.419 M429.419,210.58h-33.032
	c-9.121,0-16.516,7.395-16.516,16.516v33.032c0,9.122,7.395,16.516,16.516,16.516h33.032c9.121,0,16.516-7.395,16.516-16.516
	v-33.032C445.935,217.974,438.541,210.58,429.419,210.58L429.419,210.58z"/>
<path style="fill:#FFE17D;" d="M412.903,284.902c-4.565,0-8.258-3.698-8.258-8.258V251.87c0-4.56,3.694-8.258,8.258-8.258
	s8.258,3.698,8.258,8.258v24.774C421.161,281.204,417.468,284.902,412.903,284.902z"/>
<rect x="396.39" y="458.319" style="fill:#D29B6E;" width="33.03" height="16.516"/>
<g>
</g>
<g>
</g>
<g>
</g>
<g>
</g>
<g>
</g>
<g>
</g>
<g>
</g>
<g>
</g>
<g>
</g>
<g>
</g>
<g>
</g>
<g>
</g>
<g>
</g>
<g>
</g>
<g>
</g>
</svg>
