<?xml version="1.0" encoding="iso-8859-1"?>
<!-- Generator: Adobe Illustrator 19.0.0, SVG Export Plug-In . SVG Version: 6.00 Build 0)  -->
<svg version="1.1" id="Capa_1" xmlns="http://www.w3.org/2000/svg" xmlns:xlink="http://www.w3.org/1999/xlink" x="0px" y="0px"
	 viewBox="0 0 512 512" style="enable-background:new 0 0 512 512;" xml:space="preserve">
<path style="fill:#FFE17D;" d="M198.194,421.161v74.323c0,9.121,7.395,16.516,16.516,16.516h82.581
	c9.121,0,16.516-7.395,16.516-16.516v-74.323H198.194z"/>
<g>
	<path style="fill:#FFD164;" d="M256,445.935h57.806v-24.774H198.194v74.323c0,9.122,7.395,16.516,16.516,16.516h24.774v-49.548
		C239.484,453.33,246.878,445.935,256,445.935z"/>
	<rect x="198.19" y="470.71" style="fill:#FFD164;" width="115.61" height="16.516"/>
</g>
<path style="fill:#A5CDFF;" d="M140.387,8.258v21.106c0,7.947,0.337,15.891,1.011,23.81l30.734,361.13
	c0.727,8.548,7.878,15.116,16.457,15.116H323.41c8.579,0,15.729-6.568,16.457-15.116l30.734-361.13
	c0.674-7.919,1.011-15.862,1.011-23.81V8.258c0-4.561-3.697-8.258-8.258-8.258h-214.71C144.084,0,140.387,3.697,140.387,8.258z"/>
<path style="fill:#8CB4EB;" d="M371.613,8.258c0-4.561-3.697-8.258-8.258-8.258h-214.71c-4.561,0-8.258,3.697-8.258,8.258v21.1
	c0,7.949,0.337,15.895,1.012,23.815l30.734,361.13c0.727,8.548,7.878,15.116,16.457,15.116h134.822
	c8.578,0,15.728-6.568,16.455-15.116l0.119-1.4H229.88c-8.579,0-15.729-6.568-16.457-15.116L184.079,68.262
	c-1.291-14.492,10.127-26.972,24.677-26.972h162.857L371.613,8.258L371.613,8.258z"/>
<path style="fill:#FFF0BE;" d="M256,107.355c-44.345,0-83.137,23.378-105.02,58.406l12.571,147.71
	c22.688,25.484,55.644,41.626,92.449,41.626s69.761-16.143,92.449-41.626l12.572-147.71
	C339.137,130.733,300.345,107.355,256,107.355z"/>
<circle style="fill:#FFFFFF;" cx="256" cy="231.23" r="66.06"/>
<circle style="fill:#FFD164;" cx="256" cy="231.23" r="24.774"/>
<g>
	<path style="fill:#FFE17D;" d="M256,181.677c-4.565,0-8.258-3.698-8.258-8.258v-16.516c0-4.56,3.694-8.258,8.258-8.258
		s8.258,3.698,8.258,8.258v16.516C264.258,177.98,260.565,181.677,256,181.677z"/>
	<path style="fill:#FFE17D;" d="M256,313.806c-4.565,0-8.258-3.698-8.258-8.258v-16.516c0-4.56,3.694-8.258,8.258-8.258
		s8.258,3.698,8.258,8.258v16.516C264.258,310.109,260.565,313.806,256,313.806z"/>
	<path style="fill:#FFE17D;" d="M306.073,210.581c-2.855,0-5.629-1.48-7.161-4.129c-2.282-3.948-0.927-9,3.024-11.278l14.298-8.258
		c3.927-2.29,8.992-0.931,11.282,3.02c2.282,3.948,0.927,9-3.024,11.278l-14.298,8.258
		C308.895,210.226,307.476,210.581,306.073,210.581z"/>
	<path style="fill:#FFE17D;" d="M320.355,276.645c-1.403,0-2.823-0.355-4.121-1.109l-14.298-8.258
		c-3.952-2.278-5.306-7.331-3.024-11.278c2.282-3.96,7.339-5.315,11.282-3.02l14.298,8.258c3.952,2.278,5.306,7.331,3.024,11.278
		C325.984,275.165,323.21,276.645,320.355,276.645z"/>
</g>
<rect x="198.19" y="470.71" style="fill:#FFC350;" width="41.29" height="16.516"/>
<g>
	<path style="fill:#FFE17D;" d="M163.551,313.47c12.351,13.873,27.818,24.838,45.22,32.077l-19.467-218.604
		c-15.456,9.944-28.576,23.213-38.324,38.818L163.551,313.47z"/>
	<path style="fill:#FFE17D;" d="M191.645,276.645c-2.855,0-5.629-1.48-7.161-4.129c-2.282-3.948-0.927-9,3.024-11.278l14.298-8.258
		c3.927-2.294,8.992-0.94,11.282,3.02c2.282,3.948,0.927,9-3.024,11.278l-14.298,8.258
		C194.468,276.29,193.048,276.645,191.645,276.645z"/>
	<path style="fill:#FFE17D;" d="M205.927,210.581c-1.403,0-2.823-0.355-4.121-1.109l-14.298-8.258
		c-3.952-2.278-5.306-7.331-3.024-11.278c2.282-3.952,7.339-5.31,11.282-3.02l14.298,8.258c3.952,2.278,5.306,7.331,3.024,11.278
		C211.556,209.101,208.782,210.581,205.927,210.581z"/>
</g>
<g>
	<path style="fill:#FFD164;" d="M200.591,253.682l-13.083,7.556c-3.952,2.278-5.306,7.331-3.024,11.278
		c1.532,2.649,4.306,4.129,7.161,4.129c1.403,0,2.823-0.355,4.121-1.109l6.44-3.719L200.591,253.682z"/>
	<path style="fill:#FFD164;" d="M194.61,186.525c-3.734-1.47-8.056-0.173-10.127,3.411c-2.282,3.948-0.927,9,3.024,11.278
		l8.866,5.12L194.61,186.525z"/>
</g>
<g>
</g>
<g>
</g>
<g>
</g>
<g>
</g>
<g>
</g>
<g>
</g>
<g>
</g>
<g>
</g>
<g>
</g>
<g>
</g>
<g>
</g>
<g>
</g>
<g>
</g>
<g>
</g>
<g>
</g>
</svg>
