<?xml version="1.0" encoding="iso-8859-1"?>
<!-- Generator: Adobe Illustrator 19.0.0, SVG Export Plug-In . SVG Version: 6.00 Build 0)  -->
<svg version="1.1" id="Capa_1" xmlns="http://www.w3.org/2000/svg" xmlns:xlink="http://www.w3.org/1999/xlink" x="0px" y="0px"
	 viewBox="0 0 512 512" style="enable-background:new 0 0 512 512;" xml:space="preserve">
<circle style="fill:#FFE17D;" cx="256" cy="256" r="144"/>
<path style="fill:#FFD164;" d="M280,376c-79.529,0-144-64.471-144-144c0-33.645,11.63-64.521,30.966-89.034
	C133.535,169.335,112,210.115,112,256c0,79.529,64.471,144,144,144c45.884,0,86.665-21.535,113.034-54.966
	C344.521,364.37,313.645,376,280,376z"/>
<path style="fill:#FFF0BE;" d="M392,224H120c-4.418,0-8-3.582-8-8l0,0c0-4.418,3.582-8,8-8h272c4.418,0,8,3.582,8,8l0,0
	C400,220.418,396.418,224,392,224z"/>
<g>
	<path style="fill:#FFD164;" d="M72,264H8c-4.422,0-8-3.582-8-8s3.578-8,8-8h64c4.422,0,8,3.582,8,8S76.422,264,72,264z"/>
	<path style="fill:#FFD164;" d="M504,264h-64c-4.422,0-8-3.582-8-8s3.578-8,8-8h64c4.422,0,8,3.582,8,8S508.422,264,504,264z"/>
	<path style="fill:#FFD164;" d="M256,80c-4.422,0-8-3.582-8-8V8c0-4.418,3.578-8,8-8s8,3.582,8,8v64C264,76.418,260.422,80,256,80z"
		/>
	<path style="fill:#FFD164;" d="M256,512c-4.422,0-8-3.582-8-8v-64c0-4.418,3.578-8,8-8s8,3.582,8,8v64
		C264,508.418,260.422,512,256,512z"/>
	<path style="fill:#FFD164;" d="M125.891,133.891c-2.047,0-4.094-0.781-5.656-2.344l-45.25-45.254
		c-3.125-3.125-3.125-8.188,0-11.312s8.188-3.125,11.312,0l45.25,45.254c3.125,3.125,3.125,8.188,0,11.312
		C129.984,133.109,127.938,133.891,125.891,133.891z"/>
	<path style="fill:#FFD164;" d="M431.359,439.363c-2.047,0-4.094-0.781-5.656-2.344l-45.25-45.254
		c-3.125-3.125-3.125-8.188,0-11.312s8.188-3.125,11.312,0l45.25,45.254c3.125,3.125,3.125,8.188,0,11.312
		C435.453,438.582,433.406,439.363,431.359,439.363z"/>
	<path style="fill:#FFD164;" d="M386.109,133.891c-2.047,0-4.094-0.781-5.656-2.344c-3.125-3.125-3.125-8.188,0-11.312l45.25-45.254
		c3.125-3.125,8.188-3.125,11.312,0s3.125,8.188,0,11.312l-45.25,45.254C390.203,133.109,388.156,133.891,386.109,133.891z"/>
	<path style="fill:#FFD164;" d="M80.641,439.363c-2.047,0-4.094-0.781-5.656-2.344c-3.125-3.125-3.125-8.188,0-11.312l45.25-45.254
		c3.125-3.125,8.188-3.125,11.312,0s3.125,8.188,0,11.312l-45.25,45.254C84.734,438.582,82.688,439.363,80.641,439.363z"/>
</g>
<path style="fill:#DC9650;" d="M256,336c-18.031,0-34.734-6.746-45.82-18.512c-3.031-3.219-2.883-8.281,0.336-11.309
	c3.203-3.031,8.281-2.879,11.305,0.332C229.781,314.957,242.555,320,256,320s26.219-5.043,34.18-13.488
	c3.031-3.211,8.102-3.363,11.305-0.332c3.219,3.027,3.367,8.09,0.336,11.309C290.734,329.254,274.031,336,256,336z"/>
<g>
	<path style="fill:#FFE17D;" d="M185.586,94.012c-3.141,0-6.117-1.863-7.391-4.945L165.953,59.5
		c-1.688-4.082,0.25-8.758,4.328-10.449c4.078-1.676,8.766,0.246,10.453,4.332l12.242,29.566c1.688,4.082-0.25,8.758-4.328,10.449
		C187.648,93.812,186.609,94.012,185.586,94.012z"/>
	<path style="fill:#FFE17D;" d="M338.656,463.562c-3.141,0-6.117-1.863-7.391-4.945l-12.242-29.566
		c-1.688-4.082,0.25-8.758,4.328-10.449c4.078-1.688,8.766,0.246,10.453,4.332l12.242,29.566c1.688,4.082-0.25,8.758-4.328,10.449
		C340.719,463.363,339.68,463.562,338.656,463.562z"/>
	<path style="fill:#FFE17D;" d="M425.992,193.59c-3.133,0-6.117-1.863-7.391-4.941c-1.688-4.082,0.25-8.762,4.328-10.453
		l29.562-12.246c4.07-1.684,8.758,0.246,10.453,4.328c1.688,4.082-0.25,8.762-4.328,10.453l-29.562,12.246
		C428.055,193.391,427.016,193.59,425.992,193.59z"/>
	<path style="fill:#FFE17D;" d="M56.445,346.664c-3.133,0-6.117-1.863-7.391-4.941c-1.688-4.082,0.25-8.762,4.328-10.453
		l29.562-12.246c4.062-1.676,8.766,0.246,10.453,4.328s-0.25,8.762-4.328,10.453l-29.562,12.246
		C58.508,346.465,57.469,346.664,56.445,346.664z"/>
	<path style="fill:#FFE17D;" d="M326.414,94.012c-1.023,0-2.062-0.199-3.062-0.613c-4.078-1.691-6.016-6.367-4.328-10.449
		l12.242-29.566c1.688-4.094,6.398-6.02,10.453-4.332c4.078,1.691,6.016,6.367,4.328,10.449l-12.242,29.566
		C332.531,92.148,329.547,94.012,326.414,94.012z"/>
	<path style="fill:#FFE17D;" d="M173.344,463.562c-1.023,0-2.062-0.199-3.062-0.613c-4.078-1.691-6.016-6.367-4.328-10.449
		l12.242-29.566c1.688-4.09,6.398-6.012,10.453-4.332c4.078,1.691,6.016,6.367,4.328,10.449l-12.242,29.566
		C179.461,461.699,176.477,463.562,173.344,463.562z"/>
	<path style="fill:#FFE17D;" d="M455.555,346.664c-1.023,0-2.062-0.199-3.062-0.613l-29.562-12.246
		c-4.078-1.691-6.016-6.371-4.328-10.453s6.391-6.008,10.453-4.328l29.562,12.246c4.078,1.691,6.016,6.371,4.328,10.453
		C461.672,344.801,458.688,346.664,455.555,346.664z"/>
	<path style="fill:#FFE17D;" d="M86.008,193.59c-1.023,0-2.062-0.199-3.062-0.613L53.383,180.73
		c-4.078-1.691-6.016-6.371-4.328-10.453s6.398-6.016,10.453-4.328l29.562,12.246c4.078,1.691,6.016,6.371,4.328,10.453
		C92.125,191.727,89.141,193.59,86.008,193.59z"/>
</g>
<g>
	<path style="fill:#FFFFFF;" d="M205.258,280h-24.07c-16.102,0-29.758-12.051-31.75-28.031l-3.125-24.992
		c-0.852-6.828,1.266-13.699,5.82-18.859S163.242,200,170.125,200h49.383c7.438,0,14.336,3.363,18.914,9.23
		c4.586,5.863,6.172,13.371,4.367,20.59l-6.484,25.941C232.742,270.031,219.969,280,205.258,280z"/>
	<path style="fill:#FFFFFF;" d="M330.812,280h-24.07c-14.711,0-27.484-9.969-31.047-24.238l-6.484-25.941
		c-1.805-7.219-0.219-14.727,4.367-20.59c4.578-5.867,11.477-9.23,18.914-9.23h49.383c6.883,0,13.438,2.957,17.992,8.117
		s6.672,12.031,5.82,18.859l-3.125,24.992C360.57,267.949,346.914,280,330.812,280z"/>
</g>
<g>
	<path style="fill:#FF8087;" d="M170.125,216c-2.328,0-4.461,0.961-6,2.707c-1.539,1.742-2.227,3.977-1.938,6.285l3.125,24.992
		c1,7.992,7.82,14.016,15.875,14.016h24.07c7.359,0,13.742-4.984,15.531-12.121l6.484-25.941c0.594-2.402,0.07-4.906-1.461-6.859
		c-1.523-1.957-3.828-3.078-6.305-3.078h-49.381V216z"/>
	<path style="fill:#FF8087;" d="M292.492,216c-2.477,0-4.781,1.121-6.305,3.078c-1.531,1.953-2.055,4.457-1.461,6.859l6.484,25.941
		C293,259.016,299.383,264,306.742,264h24.07c8.055,0,14.875-6.023,15.875-14.016l3.125-24.992c0.289-2.309-0.398-4.543-1.938-6.285
		c-1.539-1.746-3.672-2.707-6-2.707L292.492,216L292.492,216z"/>
</g>
<g>
	<path style="fill:#E6646E;" d="M164.125,234.707c1.539-1.746,3.672-2.707,6-2.707h49.383c2.173,0,4.124,0.988,5.62,2.521
		l2.146-8.584c0.594-2.402,0.07-4.906-1.461-6.859c-1.523-1.957-3.828-3.078-6.305-3.078h-49.383c-2.328,0-4.461,0.961-6,2.707
		c-1.539,1.742-2.227,3.977-1.938,6.285l1.346,10.763C163.753,235.414,163.85,235.019,164.125,234.707z"/>
	<path style="fill:#E6646E;" d="M286.872,234.521c1.497-1.534,3.447-2.521,5.62-2.521h49.383c2.328,0,4.461,0.961,6,2.707
		c0.275,0.312,0.372,0.707,0.592,1.048l1.346-10.763c0.289-2.309-0.398-4.543-1.938-6.285c-1.539-1.746-3.672-2.707-6-2.707h-49.383
		c-2.477,0-4.781,1.121-6.305,3.078c-1.531,1.953-2.055,4.457-1.461,6.859L286.872,234.521z"/>
</g>
<g>
</g>
<g>
</g>
<g>
</g>
<g>
</g>
<g>
</g>
<g>
</g>
<g>
</g>
<g>
</g>
<g>
</g>
<g>
</g>
<g>
</g>
<g>
</g>
<g>
</g>
<g>
</g>
<g>
</g>
</svg>
