<?xml version="1.0" encoding="iso-8859-1"?>
<!-- Generator: Adobe Illustrator 19.0.0, SVG Export Plug-In . SVG Version: 6.00 Build 0)  -->
<svg version="1.1" id="Capa_1" xmlns="http://www.w3.org/2000/svg" xmlns:xlink="http://www.w3.org/1999/xlink" x="0px" y="0px"
	 viewBox="0 0 511.999 511.999" style="enable-background:new 0 0 511.999 511.999;" xml:space="preserve">
<path style="fill:#B9E8EF;" d="M394.493,149.518h-71.225c-60.157,0-108.924,48.767-108.924,108.924v23.044
	c0,26.037-21.107,47.145-47.145,47.145l0,0c-14.876,0-26.935-12.059-26.935-26.935v-35.545c0-6.45,3.896-12.194,9.805-14.781
	c35.031-15.333,59.507-50.3,59.507-90.986l0,0c0-5.955-4.827-10.782-10.782-10.782l0,0c-32.624,0-61.571,15.736-79.668,40.032
	c-7.116,9.554-21.563,9.554-28.679,0c-18.097-24.296-47.044-40.032-79.668-40.032l0,0C4.827,149.601,0,154.429,0,160.383l0,0
	c0,40.687,24.477,75.653,59.507,90.986c5.909,2.586,9.805,8.331,9.805,14.781v44.705c0,53.304,43.211,96.515,96.515,96.515h205.827
	c77.511,0,140.345-62.835,140.345-140.345l0,0C512,202.128,459.39,149.518,394.493,149.518z"/>
<path style="fill:#ABDFEB;" d="M283.5,364.371h-12.987c-23.748,0-43,19.252-43,42.999l0,0h144.141
	c77.511,0,140.345-62.835,140.345-140.345l0,0h-88.202c-50.876,0-96.404,31.59-114.213,79.247l0,0
	C305.518,357.156,295.12,364.371,283.5,364.371z"/>
<g>
	<path style="fill:#8BCDD8;" d="M461.729,267.025c-0.183,15.53-1.754,38.15-9.876,61.788
		c-12.353,35.946-35.986,62.227-70.269,78.204c15.01-1.049,29.367-4.459,42.707-9.861c18.95-16.603,32.932-37.817,41.748-63.468
		c8.784-25.56,10.476-50.365,10.682-66.663L461.729,267.025L461.729,267.025z"/>
	<path style="fill:#8BCDD8;" d="M414.509,267.381c-5.152,0.392-10.228,1.12-15.213,2.142c-3.928,73.114-36.077,120.506-93.7,137.848
		h37.493c26.637-15.785,46.168-39.713,58.269-71.528C411.27,309.777,413.855,284.291,414.509,267.381z"/>
</g>
<path style="fill:#ABDFEB;" d="M103.214,311.301c-1.128-25.426,6.462-49.32-19.693-71.433
	c-22.774-19.255-50.072-53.937-55.27-88.729c-5.672-1.007-11.508-1.538-17.47-1.538l0,0C4.827,149.601,0,154.429,0,160.383l0,0
	c0,40.687,24.477,75.653,59.507,90.986c5.909,2.586,9.805,8.331,9.805,14.781v44.705c0,53.304,43.211,96.515,96.515,96.515h134.66
	C160.056,398.844,105.539,363.683,103.214,311.301z"/>
<g>
	<ellipse style="fill:#E4A2B7;" cx="338.82" cy="239.869" rx="23.792" ry="18.947"/>
	<ellipse style="fill:#E4A2B7;" cx="467.78" cy="239.869" rx="23.792" ry="18.947"/>
</g>
<g>
	<path style="fill:#464D59;" d="M352.689,228.467c-4.143,0-7.5-3.357-7.5-7.5v-8.401c0-4.143,3.357-7.5,7.5-7.5s7.5,3.357,7.5,7.5
		v8.401C360.189,225.11,356.831,228.467,352.689,228.467z"/>
	<path style="fill:#464D59;" d="M453.918,228.467c-4.143,0-7.5-3.357-7.5-7.5v-8.401c0-4.143,3.357-7.5,7.5-7.5
		c4.142,0,7.5,3.357,7.5,7.5v8.401C461.418,225.11,458.06,228.467,453.918,228.467z"/>
	<path style="fill:#464D59;" d="M403.304,234.919c-7.281,0-14.206-3.153-18.998-8.65c-2.722-3.123-2.397-7.86,0.725-10.582
		c3.124-2.723,7.862-2.398,10.582,0.725c1.943,2.23,4.746,3.508,7.691,3.508c2.944,0,5.747-1.278,7.689-3.507
		c2.722-3.123,7.458-3.448,10.582-0.727c3.122,2.722,3.448,7.459,0.727,10.582C417.51,231.766,410.586,234.919,403.304,234.919z"/>
</g>
<path style="fill:#ABDFEB;" d="M224.836,432.134L224.836,432.134c-5.955,0-10.782-4.827-10.782-10.782l0,0
	c0-54.83,44.448-99.278,99.278-99.278l0,0c5.955,0,10.782,4.827,10.782,10.782l0,0C324.114,387.685,279.665,432.134,224.836,432.134
	z"/>
<path style="fill:#8BCDD8;" d="M224.836,432.134L224.836,432.134c-5.955,0-10.782-4.827-10.782-10.782l0,0
	c0-54.83,44.448-99.278,99.278-99.278l0,0c5.955,0,10.782,4.827,10.782,10.782l0,0C324.114,387.685,279.665,432.134,224.836,432.134
	z"/>
<path style="opacity:0.04;enable-background:new    ;" d="M300.201,397.475c-51.023,22.825-62.004-22.656-53.901-49.35
	c-19.817,18.15-32.246,44.236-32.246,73.227l0,0c0,5.955,4.827,10.782,10.782,10.782l0,0
	C254.986,432.134,281.993,418.691,300.201,397.475z"/>
<path style="fill:#ABDFEB;" d="M403.869,92.512c-5.349-7.919-14.243-12.647-23.791-12.647c-8.388,0-15.945,3.618-21.197,9.374
	c-5.252-5.756-12.81-9.374-21.197-9.374c-9.547,0-18.441,4.728-23.792,12.647c-2.318,3.432-1.416,8.094,2.017,10.413
	c3.433,2.317,8.094,1.416,10.413-2.017c2.557-3.784,6.805-6.044,11.362-6.044c7.553,0,13.697,6.145,13.697,13.697v15.389
	c0,4.143,3.357,7.5,7.5,7.5s7.5-3.357,7.5-7.5v-15.389c0-7.553,6.145-13.697,13.697-13.697c4.558,0,8.805,2.26,11.361,6.044
	c2.319,3.433,6.979,4.335,10.413,2.017C405.285,100.607,406.188,95.944,403.869,92.512z"/>
<g>
</g>
<g>
</g>
<g>
</g>
<g>
</g>
<g>
</g>
<g>
</g>
<g>
</g>
<g>
</g>
<g>
</g>
<g>
</g>
<g>
</g>
<g>
</g>
<g>
</g>
<g>
</g>
<g>
</g>
</svg>
