<?xml version="1.0" encoding="iso-8859-1"?>
<!-- Generator: Adobe Illustrator 19.0.0, SVG Export Plug-In . SVG Version: 6.00 Build 0)  -->
<svg version="1.1" id="Capa_1" xmlns="http://www.w3.org/2000/svg" xmlns:xlink="http://www.w3.org/1999/xlink" x="0px" y="0px"
	 viewBox="0 0 512 512" style="enable-background:new 0 0 512 512;" xml:space="preserve">
<path style="fill:#67C787;" d="M5.382,384.591c-4.88,1.238-6.973,6.988-4.03,11.073c11.793,16.37,41.877,52.631,86.878,69.01
	c28.815,10.488,60.364,1.979,77.752-4.619c7.614-2.889,10.879-11.861,6.904-18.968c-9.079-16.232-27.777-43.029-56.592-53.517
	C71.292,371.191,24.939,379.631,5.382,384.591z"/>
<path style="opacity:0.1;enable-background:new    ;" d="M5.382,384.591c-4.88,1.238-6.973,6.988-4.03,11.073
	c11.793,16.37,41.877,52.631,86.878,69.01c28.815,10.488,60.364,1.979,77.752-4.619c7.614-2.889,10.879-11.861,6.904-18.968
	c-9.079-16.232-27.777-43.029-56.592-53.517C71.292,371.191,24.939,379.631,5.382,384.591z"/>
<path style="opacity:0.1;enable-background:new    ;" d="M128.46,443.159c-0.852,0-1.718-0.147-2.565-0.454L50,415.082
	c-3.893-1.417-5.899-5.721-4.483-9.613c1.417-3.891,5.72-5.896,9.613-4.482l75.895,27.623c3.893,1.417,5.899,5.721,4.483,9.613
	C134.399,441.268,131.523,443.159,128.46,443.159z"/>
<path style="fill:#67C787;" d="M46.618,316.215c-4.946-0.941-9.273,3.387-8.332,8.332c3.77,19.821,15.71,65.398,49.573,99.261
	c21.683,21.683,53.872,27.305,72.42,28.673c8.121,0.599,14.872-6.152,14.273-14.273c-1.368-18.548-6.99-50.736-28.673-72.419
	C112.015,331.925,66.438,319.985,46.618,316.215z"/>
<path style="opacity:0.1;enable-background:new    ;" d="M136.582,422.012c-1.919,0-3.839-0.732-5.303-2.196l-57.11-57.109
	c-2.929-2.93-2.929-7.678,0-10.607c2.929-2.928,7.678-2.928,10.606,0l57.11,57.109c2.929,2.93,2.929,7.678,0,10.607
	C140.421,421.279,138.502,422.012,136.582,422.012z"/>
<path style="fill:#8ADBA1;" d="M506.617,377.702c4.88,1.237,6.973,6.988,4.03,11.073c-11.793,16.371-41.877,52.631-86.878,69.01
	c-28.815,10.488-60.364,1.979-77.752-4.619c-7.614-2.889-10.879-11.861-6.904-18.968c9.079-16.232,27.777-43.029,56.592-53.517
	C440.708,364.303,487.061,372.743,506.617,377.702z"/>
<path style="opacity:0.1;enable-background:new    ;" d="M506.617,377.702c4.88,1.237,6.973,6.988,4.03,11.073
	c-11.793,16.371-41.877,52.631-86.878,69.01c-28.815,10.488-60.364,1.979-77.752-4.619c-7.614-2.889-10.879-11.861-6.904-18.968
	c9.079-16.232,27.777-43.029,56.592-53.517C440.708,364.303,487.061,372.743,506.617,377.702z"/>
<path style="opacity:0.1;enable-background:new    ;" d="M383.541,436.271c-3.064,0-5.94-1.892-7.049-4.936
	c-1.417-3.893,0.59-8.196,4.482-9.613l75.895-27.624c3.894-1.415,8.196,0.592,9.613,4.482c1.417,3.893-0.59,8.196-4.482,9.613
	l-75.895,27.624C385.259,436.125,384.393,436.271,383.541,436.271z"/>
<path style="fill:#8ADBA1;" d="M465.382,309.326c4.946-0.941,9.273,3.387,8.332,8.332c-3.77,19.821-15.71,65.398-49.573,99.261
	c-21.683,21.683-53.872,27.305-72.419,28.673c-8.121,0.599-14.872-6.152-14.273-14.273c1.368-18.548,6.99-50.736,28.673-72.42
	C399.985,325.037,445.561,313.096,465.382,309.326z"/>
<path style="opacity:0.1;enable-background:new    ;" d="M375.418,415.123c-1.919,0-3.839-0.732-5.304-2.196
	c-2.929-2.93-2.929-7.678,0-10.607l57.109-57.109c2.93-2.928,7.678-2.928,10.608,0c2.929,2.93,2.929,7.678,0,10.607l-57.109,57.109
	C379.257,414.391,377.337,415.123,375.418,415.123z"/>
<path style="fill:#67C787;" d="M5.382,91.013c-4.88,1.238-6.973,6.988-4.03,11.073c11.793,16.37,41.877,52.631,86.878,69.01
	c28.815,10.488,60.364,1.979,77.752-4.619c7.614-2.889,10.879-11.861,6.904-18.968c-9.079-16.232-27.777-43.029-56.592-53.517
	C71.292,77.614,24.939,86.053,5.382,91.013z"/>
<path style="opacity:0.1;enable-background:new    ;" d="M5.382,91.013c-4.88,1.238-6.973,6.988-4.03,11.073
	c11.793,16.37,41.877,52.631,86.878,69.01c28.815,10.488,60.364,1.979,77.752-4.619c7.614-2.889,10.879-11.861,6.904-18.968
	c-9.079-16.232-27.777-43.029-56.592-53.517C71.292,77.614,24.939,86.053,5.382,91.013z"/>
<path style="opacity:0.1;enable-background:new    ;" d="M128.46,149.582c-0.852,0-1.718-0.146-2.565-0.454L50,121.505
	c-3.893-1.417-5.899-5.721-4.483-9.613c1.417-3.892,5.72-5.898,9.613-4.482l75.895,27.623c3.893,1.417,5.899,5.721,4.483,9.613
	C134.399,147.69,131.523,149.582,128.46,149.582z"/>
<path style="fill:#67C787;" d="M46.618,22.637c-4.946-0.941-9.273,3.387-8.332,8.332c3.77,19.821,15.71,65.398,49.573,99.261
	c21.683,21.683,53.872,27.305,72.42,28.673c8.121,0.599,14.872-6.152,14.273-14.273c-1.368-18.548-6.99-50.736-28.673-72.419
	C112.015,38.348,66.438,26.407,46.618,22.637z"/>
<path style="opacity:0.1;enable-background:new    ;" d="M136.582,128.435c-1.919,0-3.839-0.733-5.303-2.196l-57.11-57.11
	c-2.929-2.93-2.929-7.678,0-10.607c2.929-2.928,7.678-2.928,10.606,0l57.11,57.11c2.929,2.93,2.929,7.678,0,10.607
	C140.421,127.702,138.501,128.435,136.582,128.435z"/>
<path style="fill:#8ADBA1;" d="M232.364,500.728h-77.842c-3.692,0-6.608-3.134-6.342-6.816l2.85-39.52
	c1.692-23.462,1.692-47.016,0-70.479l-2.85-39.52c-0.266-3.682,2.65-6.816,6.342-6.816h77.842c3.692,0,6.608,3.134,6.342,6.816
	l-2.85,39.52c-1.692,23.462-1.692,47.016,0,70.479l2.85,39.52C238.972,497.594,236.056,500.728,232.364,500.728z"/>
<g>
	<path style="fill:#67C787;" d="M232.364,337.576h-77.842c-3.692,0-6.608-3.134-6.342-6.816l2.85-39.521
		c1.692-23.462,1.692-47.016,0-70.479l-2.85-39.521c-0.266-3.682,2.65-6.816,6.342-6.816h77.842c3.692,0,6.608,3.134,6.342,6.816
		l-2.85,39.521c-1.692,23.462-1.692,47.016,0,70.479l2.85,39.521C238.972,334.442,236.056,337.576,232.364,337.576z"/>
	<path style="fill:#67C787;" d="M369.208,500.728h-77.842c-3.692,0-6.608-3.134-6.342-6.816l2.85-39.52
		c1.692-23.462,1.692-47.016,0-70.479l-2.85-39.52c-0.266-3.682,2.65-6.816,6.342-6.816h77.842c3.692,0,6.608,3.134,6.342,6.816
		l-2.85,39.52c-1.692,23.462-1.692,47.016,0,70.479l2.85,39.52C375.816,497.594,372.9,500.728,369.208,500.728z"/>
</g>
<g>
	<path style="fill:#8ADBA1;" d="M369.208,337.576h-77.842c-3.692,0-6.608-3.134-6.342-6.816l2.85-39.521
		c1.692-23.462,1.692-47.016,0-70.479l-2.85-39.521c-0.266-3.682,2.65-6.816,6.342-6.816h77.842c3.692,0,6.608,3.134,6.342,6.816
		l-2.85,39.521c-1.692,23.462-1.692,47.016,0,70.479l2.85,39.521C375.816,334.442,372.9,337.576,369.208,337.576z"/>
	<path style="fill:#8ADBA1;" d="M232.364,174.424h-77.842c-3.692,0-6.608-3.134-6.342-6.816l2.85-39.52
		c1.692-23.462,1.692-47.016,0-70.479l-2.85-39.52c-0.266-3.682,2.65-6.816,6.342-6.816h77.842c3.692,0,6.608,3.134,6.342,6.816
		l-2.85,39.52c-1.692,23.462-1.692,47.016,0,70.479l2.85,39.52C238.972,171.29,236.056,174.424,232.364,174.424z"/>
</g>
<path style="opacity:0.1;enable-background:new    ;" d="M154.523,11.272c-3.692,0-6.608,3.134-6.342,6.816l2.85,39.52
	c1.692,23.462,1.692,47.016,0,70.479l-2.85,39.52c-0.266,3.682,2.65,6.816,6.342,6.816h18.154
	c-3.035-39.417-3.035-123.734,0-163.152L154.523,11.272L154.523,11.272z"/>
<path style="opacity:0.1;enable-background:new    ;" d="M154.523,174.424c-3.692,0-6.608,3.134-6.342,6.816l2.85,39.52
	c1.692,23.463,1.692,47.016,0,70.479l-2.85,39.52c-0.266,3.682,2.65,6.816,6.342,6.816h18.154
	c-3.035-39.417-3.035-123.734,0-163.152h-18.154V174.424z"/>
<path style="opacity:0.1;enable-background:new    ;" d="M154.523,337.576c-3.692,0-6.608,3.134-6.342,6.816l2.85,39.52
	c1.692,23.462,1.692,47.016,0,70.479l-2.85,39.52c-0.266,3.682,2.65,6.816,6.342,6.816h18.154
	c-3.035-39.417-3.035-123.734,0-163.152L154.523,337.576L154.523,337.576z"/>
<path style="opacity:0.1;enable-background:new    ;" d="M291.366,174.424c-3.692,0-6.608,3.134-6.342,6.816l2.85,39.52
	c1.692,23.463,1.692,47.016,0,70.479l-2.85,39.52c-0.266,3.682,2.65,6.816,6.342,6.816h18.154
	c-3.035-39.417-3.035-123.734,0-163.152h-18.154V174.424z"/>
<path style="opacity:0.1;enable-background:new    ;" d="M291.366,337.576c-3.692,0-6.608,3.134-6.342,6.816l2.85,39.52
	c1.692,23.462,1.692,47.016,0,70.479l-2.85,39.52c-0.266,3.682,2.65,6.816,6.342,6.816h18.154
	c-3.035-39.417-3.035-123.734,0-163.152L291.366,337.576L291.366,337.576z"/>
<g>
</g>
<g>
</g>
<g>
</g>
<g>
</g>
<g>
</g>
<g>
</g>
<g>
</g>
<g>
</g>
<g>
</g>
<g>
</g>
<g>
</g>
<g>
</g>
<g>
</g>
<g>
</g>
<g>
</g>
</svg>
