<?xml version="1.0" encoding="iso-8859-1"?>
<!-- Generator: Adobe Illustrator 19.0.0, SVG Export Plug-In . SVG Version: 6.00 Build 0)  -->
<svg version="1.1" id="Capa_1" xmlns="http://www.w3.org/2000/svg" xmlns:xlink="http://www.w3.org/1999/xlink" x="0px" y="0px"
	 viewBox="0 0 512 512" style="enable-background:new 0 0 512 512;" xml:space="preserve">
<path style="fill:#B38A82;" d="M285.799,111.871c-3.326,0-6.365-2.229-7.249-5.597c-10.402-39.607-5.016-74.753,14.055-91.722
	c3.095-2.753,7.835-2.477,10.588,0.618c2.753,3.095,2.477,7.835-0.618,10.589c-11.091,9.868-20.239,35.878-9.518,76.704
	c1.052,4.007-1.343,8.107-5.349,9.159C287.07,111.791,286.429,111.871,285.799,111.871z"/>
<circle style="fill:#F7D88B;" cx="297.59" cy="20.16" r="20.16"/>
<path style="fill:#B38A82;" d="M226.201,111.871c-0.631,0-1.271-0.08-1.91-0.248c-4.006-1.052-6.401-5.152-5.349-9.159
	c10.721-40.826,1.573-66.836-9.518-76.704c-3.095-2.754-3.371-7.494-0.618-10.589c2.754-3.094,7.495-3.37,10.588-0.618
	c19.071,16.969,24.457,52.114,14.055,91.722C232.566,109.642,229.527,111.871,226.201,111.871z"/>
<circle style="fill:#F7D88B;" cx="214.41" cy="20.16" r="20.16"/>
<path style="fill:#67C787;" d="M387.518,293.413c7.738-2.676,15.54,3.793,14.342,11.893c-3.408,23.047-13.283,65.601-41.512,99.643
	c-20.364,24.558-55.627,35.181-74.657,39.311c-6.935,1.505-13.419-3.872-13.224-10.966c0.536-19.466,4.449-56.086,24.813-80.643
	C325.509,318.609,365.5,301.027,387.518,293.413z"/>
<path style="opacity:0.1;enable-background:new    ;" d="M311.401,407.293c-1.687,0-3.383-0.565-4.784-1.727
	c-3.189-2.645-3.63-7.372-0.986-10.561l51.635-62.268c2.645-3.19,7.373-3.63,10.561-0.986c3.188,2.645,3.63,7.372,0.986,10.56
	l-51.635,62.268C315.695,406.369,313.556,407.293,311.401,407.293z"/>
<path style="fill:#67C787;" d="M124.482,293.413c-7.738-2.676-15.54,3.793-14.342,11.893c3.408,23.047,13.283,65.601,41.512,99.643
	c20.364,24.558,55.627,35.181,74.657,39.311c6.935,1.505,13.419-3.872,13.224-10.966c-0.536-19.466-4.449-56.086-24.813-80.643
	C186.491,318.609,146.5,301.027,124.482,293.413z"/>
<path style="opacity:0.1;enable-background:new    ;" d="M200.599,407.293c-2.155,0-4.294-0.924-5.777-2.713l-51.635-62.268
	c-2.644-3.189-2.203-7.916,0.986-10.56c3.187-2.643,7.915-2.204,10.561,0.986l51.635,62.268c2.644,3.188,2.203,7.916-0.986,10.561
	C203.982,406.727,202.286,407.293,200.599,407.293z"/>
<path style="fill:#8ADBA1;" d="M283.904,272.903h-55.807v216.846c0,12.289,9.962,22.251,22.251,22.251h11.306
	c12.289,0,22.251-9.962,22.251-22.251V272.903H283.904z"/>
<path style="opacity:0.1;enable-background:new    ;" d="M256,316.49c9.737,0,19.112-0.754,27.904-2.332v-41.255h-55.807v41.255
	C236.888,315.735,246.263,316.49,256,316.49z"/>
<path style="fill:#EA8962;" d="M346.689,218.82c-26.204-51.286-28.571-89.825-64.175-118.284
	c-35.48-28.36-77.945-44.509-106.081-44.509c-42.351,0-30.846,37.784-9.686,39.323c9.752,0.709,18.68,2.123,18.762,21.283
	c0.166,38.627-20.198,79.622-20.198,102.187c0,50.086,40.603,69.944,90.689,69.944S346.689,268.906,346.689,218.82z"/>
<path style="fill:#F49E73;" d="M165.311,218.82c0-97.971,113.887-162.792,170.256-162.792c42.351,0,30.846,37.784,9.686,39.323
	c-9.753,0.709-18.68,2.123-18.762,21.283c-0.166,38.627,20.198,79.622,20.198,102.187c0,50.086-40.603,69.944-90.689,69.944
	S165.311,268.906,165.311,218.82z"/>
<path style="fill:#EF9067;" d="M337.5,254.533C219.927,264.126,210.371,148.094,234.76,96.46
	c-38.012,28.579-69.448,70.89-69.448,122.36c0,50.086,40.603,69.944,90.689,69.944C291.802,288.764,322.755,278.614,337.5,254.533z"
	/>
<g>
	<path style="fill:#EA8962;" d="M217.937,201.87c-0.147,0-0.293-0.004-0.44-0.013c-4.135-0.239-7.294-3.786-7.054-7.921
		c1.977-34.115,26.691-66.931,50.307-84.319c3.335-2.454,8.03-1.742,10.486,1.594c2.456,3.335,1.743,8.03-1.593,10.486
		c-20.119,14.812-42.54,44.008-44.226,73.106C225.187,198.791,221.88,201.87,217.937,201.87z"/>
	<path style="fill:#EA8962;" d="M246.826,232.579c-4.142,0-7.5-3.357-7.5-7.5c0-24.551,6.526-46.247,18.376-61.091
		c2.584-3.237,7.303-3.768,10.541-1.183c3.237,2.584,3.767,7.304,1.182,10.54c-9.737,12.197-15.099,30.57-15.099,51.733
		C254.326,229.222,250.968,232.579,246.826,232.579z"/>
</g>
<g>
</g>
<g>
</g>
<g>
</g>
<g>
</g>
<g>
</g>
<g>
</g>
<g>
</g>
<g>
</g>
<g>
</g>
<g>
</g>
<g>
</g>
<g>
</g>
<g>
</g>
<g>
</g>
<g>
</g>
</svg>
