<?xml version="1.0" encoding="iso-8859-1"?>
<!-- Generator: Adobe Illustrator 19.0.0, SVG Export Plug-In . SVG Version: 6.00 Build 0)  -->
<svg version="1.1" id="Capa_1" xmlns="http://www.w3.org/2000/svg" xmlns:xlink="http://www.w3.org/1999/xlink" x="0px" y="0px"
	 viewBox="0 0 512 512" style="enable-background:new 0 0 512 512;" xml:space="preserve">
<path style="fill:#F5D7B7;" d="M300.744,192.944h-89.488l-21.295,266.315C187.689,487.681,210.14,512,238.653,512h34.695
	c28.512,0,50.964-24.319,48.692-52.741L300.744,192.944z"/>
<path style="fill:#F2CAA7;" d="M300.744,192.944h-89.488l-21.295,266.315C187.689,487.681,210.14,512,238.653,512h29.191
	c-57.364-24.853-45.226-134.839-39.52-179.4l12.313,7.088c9.511,5.475,21.217,5.475,30.728,0l12.515-7.204
	c6.932-3.99,15.44-4.088,22.462-0.257l5.793,3.16L300.744,192.944z"/>
<path style="fill:#E4A2B7;" d="M320.992,224.967l12.155,78.933c1.263,8.2-7.417,14.293-14.7,10.32l-12.106-6.604
	c-7.021-3.831-15.53-3.733-22.462,0.257l-12.515,7.204c-9.511,5.475-21.217,5.475-30.728,0l-12.515-7.204
	c-6.932-3.99-15.44-4.088-22.462-0.257l-12.106,6.604c-7.283,3.973-15.963-2.12-14.7-10.32l12.155-78.933H320.992z"/>
<path style="fill:#DD8EAB;" d="M320.993,224.967H191.008L178.853,303.9c-1.263,8.2,7.417,14.293,14.7,10.32l12.106-6.604
	c7.021-3.831,15.53-3.733,22.462,0.257l12.515,7.204c6.902,3.973,14.956,5.048,22.492,3.255
	c-24.022-4.988-37.558-30.739-40.996-54.82c-0.725-5.078,3.186-9.63,8.315-9.63h94.998L320.993,224.967z"/>
<path style="fill:#B38A82;" d="M256,0L256,0c-54.461,0-107.246,18.834-149.406,53.309L62.577,89.303
	c-29.385,24.029-41.032,63.616-29.342,99.73l0,0c6.934,21.422,26.885,35.935,49.402,35.935h346.727
	c22.517,0,42.468-14.512,49.402-35.935l0,0c11.69-36.114,0.042-75.701-29.342-99.73l-44.017-35.994C363.246,18.834,310.461,0,256,0z
	"/>
<g>
	<ellipse style="fill:#E4A2B7;" cx="173.78" cy="137.98" rx="30.337" ry="24.16"/>
	<ellipse style="fill:#E4A2B7;" cx="338.22" cy="137.98" rx="30.337" ry="24.16"/>
</g>
<g>
	<path style="fill:#464D59;" d="M178.854,116.956c-4.142,0-7.5-3.357-7.5-7.5V96.435c0-4.143,3.358-7.5,7.5-7.5s7.5,3.357,7.5,7.5
		v13.021C186.354,113.599,182.996,116.956,178.854,116.956z"/>
	<path style="fill:#464D59;" d="M256,141.399L256,141.399c-12.139,0-21.979-9.84-21.979-21.979v-15.98c0-3.314,2.686-6,6-6h31.958
		c3.314,0,6,2.686,6,6v15.979C277.979,131.558,268.139,141.399,256,141.399z"/>
	<path style="fill:#464D59;" d="M333.146,116.956c-4.142,0-7.5-3.357-7.5-7.5V96.435c0-4.143,3.358-7.5,7.5-7.5s7.5,3.357,7.5,7.5
		v13.021C340.646,113.599,337.288,116.956,333.146,116.956z"/>
</g>
<path style="fill:#D9809C;" d="M214.174,304.949c4.769-0.518,9.659,0.456,13.947,2.924l0.788,0.454l8.446-83.359h-15.077
	L214.174,304.949z M289.722,224.967h-15.077l8.446,83.359l0.788-0.454c4.287-2.468,9.178-3.443,13.947-2.924L289.722,224.967z"/>
<path style="opacity:0.1;enable-background:new    ;" d="M184.974,10.952c-28.374,8.954-55.011,23.248-78.38,42.357L62.577,89.303
	c-29.385,24.029-41.033,63.616-29.343,99.73l0,0c6.934,21.422,26.885,35.935,49.402,35.935H285.42
	C130.157,184.705,136.47,57.588,184.974,10.952z"/>
<g style="opacity:0.1;">
	<circle cx="441.12" cy="142.38" r="7.507"/>
	<circle cx="398.86" cy="183.63" r="7.507"/>
	<circle cx="406.37" cy="122.36" r="7.507"/>
	<circle cx="80.76" cy="110.45" r="7.507"/>
	<circle cx="112.42" cy="89.93" r="7.507"/>
	<circle cx="82.47" cy="145.49" r="7.507"/>
</g>
<g>
</g>
<g>
</g>
<g>
</g>
<g>
</g>
<g>
</g>
<g>
</g>
<g>
</g>
<g>
</g>
<g>
</g>
<g>
</g>
<g>
</g>
<g>
</g>
<g>
</g>
<g>
</g>
<g>
</g>
</svg>
