<?xml version="1.0" encoding="iso-8859-1"?>
<!-- Generator: Adobe Illustrator 19.0.0, SVG Export Plug-In . SVG Version: 6.00 Build 0)  -->
<svg version="1.1" id="Capa_1" xmlns="http://www.w3.org/2000/svg" xmlns:xlink="http://www.w3.org/1999/xlink" x="0px" y="0px"
	 viewBox="0 0 512 512" style="enable-background:new 0 0 512 512;" xml:space="preserve">
<g>
	<path style="fill:#B38A82;" d="M200.199,351.728h-48.965c-24.575,0-46.684-15.533-55.019-38.651L87.2,288.068
		c-3.131-8.684,1.372-18.26,10.055-21.391c8.687-3.132,18.261,1.374,21.391,10.055l9.015,25.009
		c3.571,9.905,13.044,16.561,23.573,16.561h48.965c9.23,0,16.713,7.483,16.713,16.713
		C216.912,344.245,209.429,351.728,200.199,351.728z"/>
	<path style="fill:#B38A82;" d="M330.244,402.942h-55.837v-33.426h55.837c9.179,0,16.647-7.467,16.647-16.647v-46.863h33.426v46.863
		C380.317,380.48,357.854,402.942,330.244,402.942z"/>
</g>
<rect x="346.889" y="306.01" style="opacity:0.1;enable-background:new    ;" width="33.426" height="36.629"/>
<path style="fill:#B38A82;" d="M287.261,157.427H183.558L166.184,493.27c-0.527,10.184,7.589,18.73,17.786,18.73h102.879
	c10.198,0,18.313-8.546,17.786-18.73L287.261,157.427z"/>
<g style="opacity:0.1;">
	<polygon points="287.261,157.427 183.558,157.427 180.232,221.725 290.587,221.725 	"/>
</g>
<g style="opacity:0.1;">
	<path d="M213.828,364.256c-0.068,0-0.136-0.001-0.204-0.003c-4.141-0.11-7.407-3.557-7.297-7.697l3.088-115.811
		c0.11-4.142,3.56-7.391,7.697-7.297c4.141,0.11,7.407,3.557,7.297,7.697l-3.088,115.811
		C221.213,361.028,217.877,364.256,213.828,364.256z"/>
	<path d="M263.491,451.397c-3.947,0-7.254-3.084-7.482-7.074l-3.549-62.447c-0.234-4.136,2.928-7.679,7.062-7.914
		c4.12-0.21,7.679,2.928,7.914,7.063l3.549,62.447c0.234,4.136-2.928,7.679-7.063,7.914
		C263.779,451.394,263.635,451.397,263.491,451.397z"/>
	<path d="M221.533,475.767c-0.11,0-0.22-0.002-0.331-0.007c-4.138-0.18-7.348-3.68-7.168-7.818l2-46.111
		c0.179-4.139,3.678-7.352,7.818-7.168c4.138,0.18,7.348,3.68,7.168,7.818l-2,46.111
		C228.846,472.619,225.525,475.767,221.533,475.767z"/>
	<path d="M252.579,251.792c-4.04,0-7.373-3.214-7.493-7.279l-1.025-34.838c-0.121-4.141,3.136-7.596,7.276-7.718
		c4.159-0.119,7.595,3.136,7.718,7.276l1.025,34.838c0.121,4.141-3.136,7.596-7.276,7.718
		C252.728,251.791,252.653,251.792,252.579,251.792z"/>
</g>
<g>
	<path style="fill:#8ADBA1;" d="M428.631,148.118c-7.183-16.787-18.088-31.212-31.503-42.489c-4.526-3.805-7.67-9.058-8.605-14.896
		c-5.127-32.014-32.856-56.477-66.315-56.477c-4.296,0-8.496,0.404-12.568,1.175c-4.376,0.829-8.892-0.824-11.59-4.367
		C283.672,12.189,260.968,0,235.41,0s-48.262,12.189-62.639,31.064c-2.699,3.543-7.215,5.196-11.59,4.367
		c-4.071-0.771-8.272-1.175-12.568-1.175c-33.459,0-61.188,24.463-66.315,56.477c-0.935,5.838-4.079,11.091-8.605,14.896
		c-13.415,11.278-24.32,25.702-31.503,42.489c-8.299,19.396,6.179,40.94,27.276,40.94h331.891
		C422.452,189.058,436.93,167.514,428.631,148.118z"/>
	<path style="fill:#8ADBA1;" d="M470.825,301.129L470.825,301.129c-3.865-8.955-9.639-16.693-16.725-22.825
		c-2.9-2.51-4.918-5.879-5.605-9.652c-3.171-17.389-18.386-30.572-36.691-30.572c-1.808,0-3.585,0.129-5.324,0.377
		c-3.426,0.49-6.896-0.741-9.092-3.415c-8.015-9.758-20.17-15.985-33.784-15.985c-13.614,0-25.769,6.227-33.784,15.985
		c-2.196,2.674-5.667,3.905-9.092,3.415c-1.739-0.249-3.516-0.377-5.324-0.377c-18.304,0-33.52,13.184-36.691,30.572
		c-0.688,3.773-2.706,7.143-5.605,9.652c-7.085,6.132-12.86,13.869-16.725,22.824l0,0c-4.676,10.834,3.269,22.915,15.069,22.915
		h184.304C467.556,324.044,475.5,311.963,470.825,301.129z"/>
</g>
<path style="opacity:0.1;enable-background:new    ;" d="M193.978,102.283c-14.744-19.108-20.048-56.381-11.266-82.015
	c-3.636,3.283-6.97,6.894-9.942,10.797c-2.707,3.554-7.2,5.197-11.589,4.366c-4.072-0.771-8.273-1.175-12.568-1.175
	c-33.459,0-61.188,24.463-66.315,56.477c-0.935,5.838-4.079,11.091-8.605,14.896c-13.333,11.208-24.185,25.525-31.37,42.18
	c-8.413,19.503,5.902,41.25,27.142,41.25h182.094c-40.398-17.412-48.842-47.157-49.72-66.027
	C201.485,115.456,198.611,108.287,193.978,102.283z"/>
<path style="opacity:0.1;enable-background:new    ;" d="M351.993,275.036c-10.618-9.971-17.643-36.273-12.362-48.8
	c-3.696,2.432-7.011,5.398-9.811,8.807c-2.165,2.637-5.535,3.941-8.91,3.441c-1.797-0.266-3.635-0.404-5.506-0.404
	c-18.243,0-33.418,13.096-36.658,30.397c-0.731,3.905-2.866,7.405-5.858,10.019c-6.985,6.101-12.68,13.771-16.505,22.633l0,0
	c-4.676,10.835,3.269,22.915,15.069,22.915h103.01c-15.384-10.196-20.788-27.76-19.123-40.143
	C355.784,280.582,354.433,277.328,351.993,275.036z"/>
<g>
</g>
<g>
</g>
<g>
</g>
<g>
</g>
<g>
</g>
<g>
</g>
<g>
</g>
<g>
</g>
<g>
</g>
<g>
</g>
<g>
</g>
<g>
</g>
<g>
</g>
<g>
</g>
<g>
</g>
</svg>
