<?xml version="1.0" encoding="iso-8859-1"?>
<!-- Generator: Adobe Illustrator 19.0.0, SVG Export Plug-In . SVG Version: 6.00 Build 0)  -->
<svg version="1.1" id="Capa_1" xmlns="http://www.w3.org/2000/svg" xmlns:xlink="http://www.w3.org/1999/xlink" x="0px" y="0px"
	 viewBox="0 0 512 512" style="enable-background:new 0 0 512 512;" xml:space="preserve">
<path style="fill:#B38A82;" d="M258.87,320.873c-9.508,0-18.597-5.44-22.801-14.654c-12.538-27.481-18.536-58.696-17.827-92.779
	c0.619-29.742,6.287-60.931,16.846-92.702c4.363-13.128,18.542-20.232,31.666-15.867c13.126,4.362,20.23,18.54,15.867,31.665
	c-18.729,56.352-19.078,109.229-0.981,148.891c5.742,12.584,0.195,27.44-12.388,33.181
	C265.881,320.146,262.346,320.873,258.87,320.873z"/>
<path style="opacity:0.1;enable-background:new    ;" d="M266.754,104.871c-13.123-4.365-27.303,2.739-31.666,15.867
	c-9.393,28.263-14.905,56.062-16.446,82.795c10.961-4.778,19.19-10.552,24.608-15.057c4.512-3.753,11.081-3.753,15.593,0
	c2.803,2.331,6.357,5.003,10.652,7.7c1.946-19.109,6.314-39.142,13.126-59.64C286.984,123.411,279.88,109.233,266.754,104.871z"/>
<path style="opacity:0.1;enable-background:new    ;" d="M268.69,206.215h-50.188c-0.116,2.416-0.21,4.827-0.26,7.225
	c-0.054,2.611-0.056,5.198-0.031,7.775h50.129C268.277,216.295,268.397,211.292,268.69,206.215z M269.514,240.239h-50.38
	c0.45,5.076,1.059,10.078,1.834,15h50.95C270.908,250.359,270.098,245.36,269.514,240.239z"/>
<path style="fill:#8ADBA1;" d="M398.778,156.591c-10.794-9.267-34.5-25.095-70.505-25.095c-0.293,0-0.575,0.015-0.867,0.017
	c0.207-0.204,0.415-0.403,0.621-0.609c25.462-25.462,31.031-53.422,32.11-67.605c0.401-5.275-3.982-9.654-9.257-9.252
	c-14.184,1.079-42.141,6.65-67.601,32.11c-0.207,0.207-0.405,0.414-0.61,0.621c0.002-0.292,0.017-0.574,0.017-0.867
	c0-36.001-15.825-59.706-25.092-70.501c-3.455-4.025-9.643-4.025-13.098,0c-9.267,10.795-25.092,34.501-25.092,70.501
	c0,0.293,0.015,0.575,0.017,0.867c-0.204-0.207-0.403-0.415-0.61-0.621c-25.456-25.456-53.408-31.028-67.595-32.109
	c-5.289-0.403-9.665,3.973-9.262,9.262c1.081,14.186,6.653,42.138,32.109,67.595c0.207,0.207,0.415,0.406,0.622,0.609
	c-0.292-0.002-0.574-0.017-0.867-0.017c-36.002,0-59.708,15.826-70.503,25.093c-4.024,3.454-4.024,9.641,0,13.096
	c10.795,9.267,34.501,25.093,70.503,25.093c34.854,0,58.184-14.833,69.431-24.188c4.512-3.752,11.081-3.752,15.593,0
	c11.247,9.354,34.577,24.188,69.431,24.188c36.001,0,59.707-15.826,70.502-25.093C402.799,166.232,402.802,160.046,398.778,156.591z
	"/>
<path style="opacity:0.1;enable-background:new    ;" d="M165.334,56.197c-5.487-1.239-10.303-1.86-14.116-2.15
	c-5.289-0.403-9.665,3.973-9.262,9.262c1.081,14.186,6.653,42.138,32.109,67.595c0.207,0.207,0.414,0.406,0.621,0.609
	c-0.292-0.002-0.574-0.017-0.867-0.017c-36.002,0-59.708,15.826-70.503,25.093c-4.024,3.454-4.024,9.642,0,13.096
	c10.795,9.267,34.501,25.093,70.503,25.093c34.854,0,58.184-14.833,69.431-24.188c0.416-0.346,0.854-0.649,1.302-0.931
	C182.639,136.854,167.25,85.304,165.334,56.197z"/>
<path style="opacity:0.1;enable-background:new    ;" d="M361.828,170.637h-67.11c-4.143,0-7.5-3.357-7.5-7.5s3.357-7.5,7.5-7.5
	h67.11c4.143,0,7.5,3.357,7.5,7.5C369.328,167.279,365.971,170.637,361.828,170.637z"/>
<path style="opacity:0.1;enable-background:new    ;" d="M281.927,139.757c-1.919,0-3.839-0.732-5.304-2.196
	c-2.929-2.93-2.929-7.678,0-10.607l47.454-47.455c2.93-2.928,7.678-2.928,10.607,0c2.929,2.93,2.929,7.678,0,10.607l-47.454,47.455
	C285.766,139.024,283.846,139.757,281.927,139.757z"/>
<path style="opacity:0.1;enable-background:new    ;" d="M251.046,126.966c-4.142,0-7.5-3.357-7.5-7.5V52.355
	c0-4.143,3.358-7.5,7.5-7.5s7.5,3.357,7.5,7.5v67.111C258.546,123.608,255.188,126.966,251.046,126.966z"/>
<path style="opacity:0.1;enable-background:new    ;" d="M220.165,139.757c-1.919,0-3.839-0.732-5.303-2.196l-47.455-47.455
	c-2.929-2.93-2.929-7.678,0-10.607c2.929-2.928,7.678-2.928,10.607,0l47.455,47.455c2.929,2.93,2.929,7.678,0,10.607
	C224.004,139.024,222.084,139.757,220.165,139.757z"/>
<path style="opacity:0.1;enable-background:new    ;" d="M207.374,170.637h-67.111c-4.142,0-7.5-3.357-7.5-7.5s3.358-7.5,7.5-7.5
	h67.111c4.142,0,7.5,3.357,7.5,7.5C214.874,167.279,211.517,170.637,207.374,170.637z"/>
<path style="fill:#F5D7B7;" d="M75.798,375.44h365.321c-40.831-56.73-107.428-93.675-182.661-93.675S116.63,318.71,75.798,375.44z"
	/>
<path style="fill:#B9E8EF;" d="M444.623,499.608H67.377C30.166,499.608,0,469.442,0,432.231v-34.103
	c0-12.53,10.158-22.688,22.688-22.688h466.624c12.53,0,22.688,10.158,22.688,22.688v34.103
	C512,469.442,481.834,499.608,444.623,499.608z"/>
<path style="fill:#ABDFEB;" d="M224.41,375.44H22.688C10.158,375.44,0,385.598,0,398.128v34.103
	c0,37.211,30.166,67.377,67.377,67.377h238.277C226.028,483.082,195.749,426.365,224.41,375.44z"/>
<g>
	<path style="fill:#8BCDD8;" d="M302.094,469.927h-83.908c-4.142,0-7.5-3.357-7.5-7.5c0-4.142,3.358-7.5,7.5-7.5h83.908
		c4.142,0,7.5,3.358,7.5,7.5S306.236,469.927,302.094,469.927z"/>
	<path style="fill:#8BCDD8;" d="M430.035,427.51h-56.48c-4.143,0-7.5-3.357-7.5-7.5c0-4.142,3.357-7.5,7.5-7.5h56.48
		c4.142,0,7.5,3.358,7.5,7.5C437.535,424.152,434.178,427.51,430.035,427.51z"/>
</g>
<path style="fill:#F2CAA7;" d="M183.674,294.514c-43.734,15.419-81.275,43.969-107.876,80.926H224.41
	C184.437,360.272,171.19,318.969,183.674,294.514z"/>
<g>
	<circle style="fill:#DBB695;" cx="298.23" cy="310.199" r="7.425"/>
	<circle style="fill:#DBB695;" cx="258.46" cy="348.159" r="7.425"/>
	<circle style="fill:#DBB695;" cx="356.01" cy="349.329" r="7.425"/>
	<circle style="fill:#DBB695;" cx="154.89" cy="341.899" r="7.425"/>
	<circle style="fill:#DBB695;" cx="204.29" cy="321.059" r="7.425"/>
</g>
<path style="fill:#8BCDD8;" d="M115.069,437.354H68.477c-4.142,0-7.5-3.357-7.5-7.5s3.358-7.5,7.5-7.5h46.592
	c4.142,0,7.5,3.357,7.5,7.5S119.211,437.354,115.069,437.354z"/>
<g>
</g>
<g>
</g>
<g>
</g>
<g>
</g>
<g>
</g>
<g>
</g>
<g>
</g>
<g>
</g>
<g>
</g>
<g>
</g>
<g>
</g>
<g>
</g>
<g>
</g>
<g>
</g>
<g>
</g>
</svg>
