<?xml version="1.0" encoding="iso-8859-1"?>
<!-- Generator: Adobe Illustrator 19.0.0, SVG Export Plug-In . SVG Version: 6.00 Build 0)  -->
<svg version="1.1" id="Capa_1" xmlns="http://www.w3.org/2000/svg" xmlns:xlink="http://www.w3.org/1999/xlink" x="0px" y="0px"
	 viewBox="0 0 512.001 512.001" style="enable-background:new 0 0 512.001 512.001;" xml:space="preserve">
<path style="fill:#8ADBA1;" d="M486.961,49.767c7.505-0.572,13.742,5.664,13.17,13.17c-1.537,20.169-9.46,59.905-45.647,96.093
	c-36.188,36.188-75.924,44.11-96.093,45.647c-7.505,0.572-13.742-5.664-13.17-13.17c1.537-20.169,9.46-59.905,45.647-96.092
	C427.057,59.227,466.793,51.304,486.961,49.767z"/>
<path style="opacity:0.1;enable-background:new    ;" d="M345.221,191.507c-0.572,7.505,5.664,13.742,13.17,13.17
	c11.772-0.897,30.214-3.982,50.722-13.581c10.171-18.23,19.517-43.942,19.517-76.926c0-16.358-2.305-30.921-5.862-43.679
	c-10.555,6.281-21.376,14.401-31.899,24.923C354.681,131.602,346.758,171.339,345.221,191.507z"/>
<path style="opacity:0.1;enable-background:new    ;" d="M385.236,172.162c-1.919,0-3.839-0.732-5.303-2.196
	c-2.929-2.93-2.929-7.678,0-10.607l74.88-74.88c2.929-2.928,7.678-2.928,10.606,0c2.929,2.93,2.929,7.678,0,10.607l-74.88,74.88
	C389.075,171.43,387.155,172.162,385.236,172.162z"/>
<path style="fill:#8ADBA1;" d="M354.611,4.283c4.903-5.711,13.722-5.711,18.625,0c13.174,15.348,35.67,49.048,35.67,100.225
	s-22.496,84.877-35.67,100.225c-4.903,5.711-13.722,5.711-18.625,0c-13.174-15.348-35.67-49.048-35.67-100.225
	C318.941,53.331,341.437,19.631,354.611,4.283z"/>
<path style="fill:#7ACF90;" d="M363.923,164.957c-4.142,0-7.5-3.357-7.5-7.5V51.56c0-4.142,3.358-7.5,7.5-7.5s7.5,3.358,7.5,7.5
	v105.896C371.423,161.6,368.065,164.957,363.923,164.957z"/>
<path style="fill:#67C787;" d="M314.187,287.689l-139.719,139.72c-35.538,35.538-86.341,51.985-138.162,44.728l0,0
	c-11.107-1.555-19.425-11.769-18.563-22.796l0,0c3.109-39.772,19.775-76.416,47.25-103.891l167.236-167.236
	c27.475-27.475,64.119-44.141,103.891-47.25l0,0c11.026-0.862,21.24,7.455,22.796,18.563l0,0
	C366.172,201.349,349.725,252.151,314.187,287.689z"/>
<path style="opacity:0.1;enable-background:new    ;" d="M314.187,287.689l-139.719,139.72
	c-35.538,35.538-86.341,51.985-138.162,44.728l0,0c-11.107-1.555-19.425-11.769-18.563-22.796l0,0
	c3.109-39.772,19.775-76.416,47.25-103.891l167.236-167.236c27.475-27.475,64.119-44.141,103.891-47.25l0,0
	c11.026-0.862,21.24,7.455,22.796,18.563l0,0C366.172,201.349,349.725,252.151,314.187,287.689z"/>
<path style="opacity:0.05;enable-background:new    ;" d="M64.993,345.45c-27.475,27.475-44.141,64.119-47.25,103.891l0,0
	c-0.862,11.026,7.455,21.24,18.562,22.796l0,0c51.821,7.256,102.624-9.19,138.162-44.729l113.217-113.217
	c-97.137,58.314-155.2,8.955-165.866-25.567L64.993,345.45z"/>
<circle style="fill:#8ADBA1;" cx="164.553" cy="277.77" r="55.39"/>
<path style="fill:#7ACF90;" d="M215.959,298.397c-70.268,28.203-90.386-46.799-65.64-74.154
	c-23.69,6.284-41.152,27.865-41.152,53.532c0,30.59,24.798,55.388,55.388,55.388C187.853,333.163,207.778,318.77,215.959,298.397z"
	/>
<circle style="fill:#8ADBA1;" cx="67.223" cy="384" r="55.39"/>
<path style="fill:#7ACF90;" d="M118.631,404.622c-70.268,28.203-90.386-46.799-65.64-74.153
	c-23.69,6.284-41.152,27.865-41.152,53.532c0,30.59,24.798,55.388,55.388,55.388C90.525,439.388,110.45,424.995,118.631,404.622z"/>
<circle style="fill:#8ADBA1;" cx="270.783" cy="180.45" r="55.39"/>
<path style="fill:#7ACF90;" d="M322.184,201.069c-70.267,28.203-90.386-46.799-65.64-74.153
	c-23.69,6.284-41.152,27.865-41.152,53.532c0,30.59,24.798,55.388,55.388,55.388C294.078,235.835,314.003,221.443,322.184,201.069z"
	/>
<path style="fill:#67C787;" d="M346.898,311.043L197.821,460.12c-37.918,37.918-90.973,56.617-144.286,50.853l0,0
	c-11.427-1.236-19.681-11.513-18.421-22.937l0,0c4.545-41.208,22.996-79.637,52.311-108.952l178.436-178.436
	c29.315-29.315,67.744-47.766,108.952-52.311l0,0c11.424-1.26,21.702,6.994,22.937,18.421l0,0
	C403.515,220.07,384.816,273.125,346.898,311.043z"/>
<path style="fill:#5FB87D;" d="M143.325,323.183l-55.9,55.9c-29.315,29.315-47.766,67.744-52.311,108.953l0,0
	c-1.26,11.424,6.994,21.702,18.421,22.937l0,0c53.314,5.764,106.368-12.935,144.286-50.853l118.24-118.24
	C212.098,413,151.183,357.646,143.325,323.183z"/>
<g>
</g>
<g>
</g>
<g>
</g>
<g>
</g>
<g>
</g>
<g>
</g>
<g>
</g>
<g>
</g>
<g>
</g>
<g>
</g>
<g>
</g>
<g>
</g>
<g>
</g>
<g>
</g>
<g>
</g>
</svg>
