<?xml version="1.0" encoding="iso-8859-1"?>
<!-- Generator: Adobe Illustrator 19.0.0, SVG Export Plug-In . SVG Version: 6.00 Build 0)  -->
<svg version="1.1" id="Capa_1" xmlns="http://www.w3.org/2000/svg" xmlns:xlink="http://www.w3.org/1999/xlink" x="0px" y="0px"
	 viewBox="0 0 512.001 512.001" style="enable-background:new 0 0 512.001 512.001;" xml:space="preserve">
<g>
	<path style="fill:#F7D88B;" d="M318.815,380.875h-38.649c-3.021,0-5.245-2.827-4.534-5.763l17.172-70.947h-82.612l-33.378,96.854
		c-2.065,5.992,2.386,12.234,8.724,12.234h30.704c3.021,0,5.245,2.827,4.534,5.763l-17.666,72.989
		c-1.049,4.335,4.123,7.43,7.447,4.456l113.594-101.619C329.626,389.944,326.162,380.875,318.815,380.875z"/>
	<path style="fill:#F7D88B;" d="M455.663,352.458h-24.331c-1.902,0-3.302-1.78-2.855-3.628l10.811-44.665H387.28l-21.013,60.974
		c-1.3,3.772,1.502,7.702,5.492,7.702h19.33c1.902,0,3.302,1.78,2.855,3.628l-11.122,45.95c-0.661,2.729,2.596,4.678,4.688,2.805
		l71.513-63.974C462.469,358.167,460.288,352.458,455.663,352.458z"/>
	<path style="fill:#F7D88B;" d="M142.275,352.458h-24.331c-1.902,0-3.302-1.78-2.855-3.628l10.811-44.665H73.892L52.879,365.14
		c-1.3,3.772,1.502,7.702,5.492,7.702h19.33c1.902,0,3.302,1.78,2.854,3.628l-11.122,45.95c-0.661,2.729,2.596,4.678,4.688,2.805
		l71.513-63.974C149.081,358.167,146.9,352.458,142.275,352.458z"/>
</g>
<g>
	<polygon style="fill:#EAC268;" points="73.892,304.165 64.348,331.859 119.197,331.859 125.9,304.165 	"/>
	<polygon style="fill:#EAC268;" points="210.192,304.165 200.648,331.859 286.101,331.859 292.804,304.165 	"/>
	<polygon style="fill:#EAC268;" points="387.279,304.165 377.736,331.859 432.585,331.859 439.288,304.165 	"/>
</g>
<path style="fill:#8BCDD8;" d="M330.066,100.986c-2.678-2.507-4.528-5.757-5.264-9.351c-8.552-41.775-45.51-73.201-89.813-73.201
	c-12.92,0-25.215,2.675-36.364,7.499c-3.529,1.527-7.579,1.275-10.814-0.802c-10.603-6.81-23.21-10.768-36.748-10.768
	c-34.131,0-62.393,25.094-67.362,57.837c-0.626,4.125-3.896,7.318-8.039,7.804c-39.655,4.654-70.426,38.35-70.426,79.255l0,0
	c0,9.332,7.565,16.896,16.896,16.896h316.324c9.332,0,16.896-7.565,16.896-16.896l0,0
	C355.352,136.265,345.624,115.551,330.066,100.986z"/>
<path style="fill:#B9E8EF;" d="M475.023,194.24c-3.916-3.666-6.622-8.42-7.698-13.675c-12.506-61.091-66.552-107.048-131.34-107.048
	c-18.894,0-36.873,3.912-53.177,10.966c-5.161,2.233-11.083,1.865-15.815-1.173c-15.506-9.958-33.942-15.747-53.739-15.747
	c-49.912,0-91.241,36.696-98.508,84.579c-0.915,6.032-5.697,10.702-11.756,11.413C44.999,170.361,0,219.638,0,279.456l0,0
	c0,13.646,11.063,24.709,24.709,24.709h462.583c13.646,0,24.709-11.063,24.709-24.709l0,0
	C512,245.832,497.774,215.54,475.023,194.24z"/>
<path style="fill:#ABDFEB;" d="M207.779,67.727c-47.432,2.57-86.035,38.296-93.034,84.416c-0.915,6.032-5.697,10.702-11.756,11.413
	C44.999,170.361,0,219.638,0,279.456l0,0c0,13.646,11.063,24.709,24.709,24.709h235.938
	C153.419,265.294,161.934,108.335,207.779,67.727z"/>
<g>
	<path style="fill:#8BCDD8;" d="M148.529,245.492c-4.036,0-7.368-3.208-7.492-7.271c-0.591-19.345,11.238-36.791,29.435-43.414
		c14.726-5.356,31.426-2.536,43.587,7.363c3.212,2.614,3.697,7.339,1.083,10.551c-2.615,3.213-7.34,3.697-10.551,1.082
		c-8.215-6.686-19.052-8.517-28.989-4.9c-12.1,4.403-19.965,16.002-19.572,28.859c0.126,4.141-3.127,7.6-7.268,7.726
		C148.685,245.491,148.606,245.492,148.529,245.492z"/>
	<path style="fill:#8BCDD8;" d="M407.844,230.926c-0.804,0-1.622-0.13-2.426-0.405c-3.919-1.339-6.011-5.602-4.672-9.521
		c4.548-13.308,1.2-27.747-8.737-37.684c-10.634-10.635-26.434-13.676-40.253-7.75c-3.805,1.631-8.216-0.13-9.849-3.937
		c-1.633-3.807,0.129-8.216,3.936-9.849c19.49-8.359,41.775-4.07,56.772,10.929c14.015,14.014,18.737,34.376,12.325,53.14
		C413.875,228.965,410.963,230.926,407.844,230.926z"/>
	<path style="fill:#8BCDD8;" d="M210.195,139.785c-0.735,0-1.481-0.108-2.22-0.337c-3.957-1.225-6.172-5.426-4.947-9.383
		c3.516-11.359,13.873-18.991,25.771-18.991c10.864,0,20.62,6.466,24.852,16.473c1.613,3.815-0.171,8.216-3.986,9.829
		c-3.813,1.613-8.215-0.171-9.829-3.985c-1.879-4.444-6.212-7.316-11.037-7.316c-5.284,0-9.882,3.387-11.442,8.427
		C216.361,137.719,213.396,139.785,210.195,139.785z"/>
</g>
<g>
</g>
<g>
</g>
<g>
</g>
<g>
</g>
<g>
</g>
<g>
</g>
<g>
</g>
<g>
</g>
<g>
</g>
<g>
</g>
<g>
</g>
<g>
</g>
<g>
</g>
<g>
</g>
<g>
</g>
</svg>
