<?xml version="1.0" encoding="iso-8859-1"?>
<!-- Generator: Adobe Illustrator 19.0.0, SVG Export Plug-In . SVG Version: 6.00 Build 0)  -->
<svg version="1.1" id="Capa_1" xmlns="http://www.w3.org/2000/svg" xmlns:xlink="http://www.w3.org/1999/xlink" x="0px" y="0px"
	 viewBox="0 0 512 512" style="enable-background:new 0 0 512 512;" xml:space="preserve">
<path style="fill:#8ADBA1;" d="M167.728,134.727c34.631,26.82,49.764,68.95,55.428,89.854c1.789,6.601-3.214,13.061-10.053,12.981
	c-21.656-0.255-66.233-4.365-100.864-31.184s-49.764-68.95-55.428-89.854c-1.789-6.601,3.214-13.061,10.053-12.981
	C88.52,103.797,133.097,107.907,167.728,134.727z"/>
<path style="opacity:0.1;enable-background:new    ;" d="M175.477,205.543c-1.604,0-3.221-0.512-4.587-1.57l-70.996-54.982
	c-3.275-2.536-3.874-7.247-1.338-10.521c2.535-3.277,7.247-3.875,10.521-1.338l70.996,54.982c3.275,2.536,3.874,7.247,1.338,10.521
	C179.934,204.544,177.717,205.543,175.477,205.543z"/>
<path style="fill:#67C787;" d="M235.77,92.517c17.709,40.062,10.983,84.321,6.025,105.403c-1.566,6.658-9.039,9.961-15.017,6.638
	c-18.929-10.523-56.187-35.339-73.896-75.402s-10.983-84.32-6.025-105.403c1.566-6.658,9.039-9.961,15.017-6.638
	C180.803,27.639,218.061,52.455,235.77,92.517z"/>
<path style="opacity:0.1;enable-background:new    ;" d="M212.481,159.403c-2.879,0-5.625-1.667-6.863-4.47l-36.304-82.13
	c-1.675-3.788,0.039-8.218,3.827-9.892c3.785-1.679,8.218,0.038,9.892,3.827l36.304,82.13c1.675,3.788-0.039,8.218-3.827,9.892
	C214.524,159.197,213.494,159.403,212.481,159.403z"/>
<path style="fill:#8ADBA1;" d="M344.272,134.727c-34.631,26.82-49.764,68.95-55.428,89.854c-1.789,6.601,3.214,13.061,10.053,12.981
	c21.656-0.255,66.233-4.365,100.864-31.184s49.764-68.95,55.428-89.854c1.789-6.601-3.214-13.061-10.053-12.981
	C423.48,103.797,378.903,107.907,344.272,134.727z"/>
<path style="opacity:0.1;enable-background:new    ;" d="M336.523,205.543c-2.24,0-4.456-0.999-5.935-2.908
	c-2.536-3.274-1.938-7.985,1.338-10.521l70.996-54.982c3.272-2.535,7.983-1.939,10.521,1.338c2.536,3.274,1.938,7.985-1.338,10.521
	l-70.996,54.982C339.744,205.03,338.128,205.543,336.523,205.543z"/>
<path style="fill:#67C787;" d="M276.23,92.517c-17.709,40.062-10.983,84.321-6.025,105.403c1.566,6.658,9.039,9.961,15.017,6.638
	c18.929-10.523,56.187-35.339,73.896-75.402c17.709-40.063,10.983-84.32,6.025-105.403c-1.566-6.658-9.039-9.961-15.017-6.638
	C331.197,27.639,293.939,52.455,276.23,92.517z"/>
<path style="opacity:0.1;enable-background:new    ;" d="M299.519,159.403c-1.013,0-2.042-0.206-3.028-0.643
	c-3.788-1.674-5.502-6.104-3.827-9.892l36.304-82.13c1.675-3.788,6.102-5.504,9.892-3.827c3.788,1.674,5.502,6.104,3.827,9.892
	l-36.304,82.13C305.144,157.736,302.398,159.403,299.519,159.403z"/>
<path style="fill:#8ADBA1;" d="M301.312,102.932c0,43.802-24.044,81.562-37.103,98.84c-4.124,5.456-12.295,5.456-16.418,0
	c-13.059-17.278-37.103-55.038-37.103-98.84s24.044-81.563,37.103-98.84c4.124-5.456,12.295-5.456,16.418,0
	C277.268,21.37,301.312,59.131,301.312,102.932z"/>
<path style="opacity:0.1;enable-background:new    ;" d="M256,155.33c-4.143,0-7.5-3.357-7.5-7.5V58.034c0-4.143,3.357-7.5,7.5-7.5
	c4.143,0,7.5,3.357,7.5,7.5v89.796C263.5,151.973,260.143,155.33,256,155.33z"/>
<path style="opacity:0.1;enable-background:new    ;" d="M358.347,188.999c-28.343-24.793-64.69-38.447-102.347-38.447
	c-37.656,0-74.004,13.654-102.347,38.447c-9.555,8.358-17.971,17.79-25.129,28.047c31.309,17.298,66.198,20.3,84.579,20.516
	c6.839,0.08,11.842-6.38,10.053-12.981c-1.985-7.326-5.14-17.263-9.883-28.23c5.044,3.328,9.657,6.068,13.505,8.208
	c5.978,3.323,13.451,0.02,15.017-6.638c0.251-1.069,0.508-2.212,0.765-3.397c1.865,2.705,3.631,5.133,5.231,7.25
	c4.124,5.456,12.295,5.456,16.418,0c1.6-2.117,3.366-4.545,5.231-7.25c0.257,1.185,0.513,2.328,0.765,3.397
	c1.566,6.658,9.039,9.961,15.017,6.638c3.848-2.139,8.461-4.879,13.505-8.208c-4.743,10.968-7.898,20.905-9.883,28.23
	c-1.789,6.601,3.214,13.061,10.053,12.981c18.38-0.216,53.27-3.218,84.579-20.516C376.317,206.789,367.902,197.357,358.347,188.999z
	"/>
<path style="fill:#F7D88B;" d="M256,170.552L256,170.552c-67.842,0-125.22,50.191-134.244,117.43l0,0
	c-4.747,35.37-4.747,71.216,0,106.587l0,0C130.781,461.809,188.158,512,256,512l0,0c67.842,0,125.219-50.191,134.244-117.43l0,0
	c4.747-35.37,4.747-71.216,0-106.587l0,0C381.22,220.743,323.842,170.552,256,170.552z"/>
<path style="fill:#F4CF7A;" d="M121.756,394.57C130.781,461.809,188.158,512,256,512l0,0c16.331,0,32.053-2.916,46.643-8.271
	c-206.751-98.912-119.584-280.702-71.652-330.863c-56.492,10.573-101.344,56.328-109.234,115.116l0,0
	C117.009,323.353,117.009,359.199,121.756,394.57L121.756,394.57z"/>
<g>
	<path style="fill:#EAC268;" d="M167.734,264.227c-1.919,0-3.839-0.733-5.304-2.196c-2.929-2.93-2.929-7.678,0-10.607l12.654-12.654
		c2.93-2.928,7.679-2.928,10.606,0l12.655,12.654c2.93,2.929,2.93,7.678,0.001,10.606c-2.93,2.93-7.679,2.929-10.607,0.001
		l-7.352-7.352l-7.351,7.352C171.573,263.494,169.653,264.227,167.734,264.227z"/>
	<path style="fill:#EAC268;" d="M268.655,487.625c-1.919,0-3.839-0.732-5.303-2.196L256,478.077l-7.352,7.352
		c-2.929,2.929-7.678,2.928-10.606-0.001c-2.929-2.929-2.929-7.678,0.001-10.606l12.655-12.654c2.928-2.928,7.678-2.928,10.605,0
		l12.655,12.654c2.93,2.929,2.93,7.678,0.001,10.606C272.494,486.893,270.574,487.625,268.655,487.625z"/>
	<path style="fill:#EAC268;" d="M167.734,415.965c-1.919,0-3.839-0.732-5.303-2.196c-2.93-2.929-2.93-7.678-0.001-10.606
		l12.654-12.655c1.406-1.407,3.314-2.197,5.304-2.197c1.989,0,3.896,0.79,5.304,2.196l12.655,12.655
		c2.929,2.93,2.929,7.678,0,10.607c-2.93,2.928-7.678,2.928-10.607,0l-7.352-7.353l-7.351,7.352
		C171.573,415.232,169.653,415.965,167.734,415.965z"/>
	<path style="fill:#EAC268;" d="M205.54,451.795c-1.919,0-3.839-0.732-5.303-2.196c-2.93-2.929-2.93-7.678-0.001-10.606
		l12.654-12.655c1.406-1.407,3.314-2.197,5.304-2.197c1.989,0,3.896,0.79,5.304,2.196l12.655,12.655
		c2.929,2.93,2.929,7.678,0,10.607c-2.93,2.928-7.678,2.928-10.607,0l-7.352-7.353l-7.35,7.352
		C209.379,451.063,207.459,451.795,205.54,451.795z"/>
	<path style="fill:#EAC268;" d="M268.655,264.227c-1.919,0-3.839-0.733-5.303-2.196L256,254.679l-7.352,7.352
		c-2.929,2.929-7.678,2.928-10.606-0.001s-2.929-7.678,0.001-10.606l12.655-12.654c2.928-2.928,7.678-2.928,10.605,0l12.655,12.654
		c2.93,2.929,2.93,7.678,0.001,10.606C272.494,263.494,270.574,264.227,268.655,264.227z"/>
	<path style="fill:#EAC268;" d="M205.54,228.397c-1.919,0-3.839-0.732-5.303-2.196c-2.93-2.929-2.93-7.678-0.001-10.606
		l12.654-12.655c1.406-1.407,3.314-2.197,5.304-2.197c1.989,0,3.896,0.79,5.304,2.196l12.655,12.655
		c2.929,2.93,2.929,7.678,0,10.607c-2.93,2.928-7.678,2.928-10.607,0l-7.352-7.352l-7.35,7.351
		C209.379,227.664,207.459,228.397,205.54,228.397z"/>
	<path style="fill:#EAC268;" d="M344.266,264.227c-1.919,0-3.839-0.733-5.304-2.196l-7.351-7.352l-7.352,7.352
		c-2.929,2.929-7.678,2.928-10.607-0.001c-2.929-2.929-2.929-7.678,0.001-10.606l12.655-12.654c2.929-2.929,7.678-2.927,10.606,0
		l12.654,12.654c2.929,2.93,2.929,7.678,0,10.607C348.105,263.494,346.185,264.227,344.266,264.227z"/>
	<path style="fill:#EAC268;" d="M306.46,228.397c-1.92,0-3.839-0.732-5.304-2.197l-7.351-7.351l-7.352,7.352
		c-2.93,2.928-7.678,2.928-10.607,0c-2.929-2.93-2.929-7.678,0-10.607l12.655-12.655c1.407-1.406,3.314-2.196,5.304-2.196l0,0
		c1.989,0,3.897,0.79,5.304,2.197l12.654,12.655c2.929,2.929,2.929,7.678-0.001,10.606
		C310.299,227.664,308.379,228.397,306.46,228.397z"/>
	<path style="fill:#EAC268;" d="M268.655,415.965c-1.919,0-3.839-0.732-5.304-2.196L256,406.416l-7.352,7.353
		c-2.93,2.928-7.678,2.928-10.607,0c-2.929-2.93-2.929-7.678,0-10.607l12.655-12.655c2.93-2.928,7.678-2.928,10.607,0l12.655,12.655
		c2.929,2.93,2.929,7.678,0,10.607C272.494,415.232,270.574,415.965,268.655,415.965z"/>
	<path style="fill:#EAC268;" d="M205.54,380.134c-1.919,0-3.839-0.732-5.304-2.196c-2.929-2.93-2.929-7.678,0-10.607l12.654-12.654
		c2.93-2.928,7.679-2.928,10.607,0l12.655,12.654c2.93,2.929,2.93,7.678,0.001,10.606c-2.93,2.93-7.679,2.929-10.606,0.001
		l-7.353-7.352l-7.35,7.352C209.379,379.401,207.459,380.134,205.54,380.134z"/>
	<path style="fill:#EAC268;" d="M344.266,415.965c-1.92,0-3.839-0.732-5.304-2.197l-7.351-7.352l-7.351,7.353
		c-2.93,2.928-7.678,2.928-10.608,0c-2.929-2.93-2.929-7.678,0-10.607l12.655-12.655c1.407-1.406,3.314-2.196,5.304-2.196l0,0
		c1.989,0,3.898,0.79,5.304,2.197l12.654,12.655c2.929,2.929,2.929,7.678-0.001,10.606
		C348.105,415.232,346.185,415.965,344.266,415.965z"/>
	<path style="fill:#EAC268;" d="M306.46,380.134c-1.919,0-3.839-0.732-5.304-2.196l-7.351-7.352l-7.353,7.352
		c-2.929,2.929-7.678,2.928-10.606-0.001s-2.929-7.678,0.001-10.606l12.655-12.654c2.929-2.929,7.678-2.927,10.607,0l12.654,12.654
		c2.929,2.93,2.929,7.678,0,10.607C310.299,379.401,308.379,380.134,306.46,380.134z"/>
	<path style="fill:#EAC268;" d="M306.46,451.795c-1.92,0-3.839-0.732-5.304-2.197l-7.351-7.352l-7.352,7.353
		c-2.93,2.928-7.678,2.928-10.607,0c-2.929-2.93-2.929-7.678,0-10.607l12.655-12.655c1.407-1.406,3.314-2.196,5.304-2.196l0,0
		c1.989,0,3.897,0.79,5.304,2.197l12.654,12.655c2.929,2.929,2.929,7.678-0.001,10.606
		C310.299,451.063,308.379,451.795,306.46,451.795z"/>
</g>
<g>
	<path style="fill:#464D59;" d="M185.053,317.968c-4.143,0-7.5-3.357-7.5-7.5v-11.975c0-4.143,3.357-7.5,7.5-7.5s7.5,3.357,7.5,7.5
		v11.975C192.553,314.61,189.195,317.968,185.053,317.968z"/>
	<path style="fill:#464D59;" d="M256,339.844L256,339.844c-11.163,0-20.213-9.05-20.213-20.213v-14.695
		c0-3.047,2.47-5.518,5.518-5.518h29.39c3.047,0,5.518,2.47,5.518,5.518v14.695C276.213,330.794,267.163,339.844,256,339.844z"/>
	<path style="fill:#464D59;" d="M326.947,317.968c-4.143,0-7.5-3.357-7.5-7.5v-11.975c0-4.143,3.357-7.5,7.5-7.5
		c4.142,0,7.5,3.357,7.5,7.5v11.975C334.447,314.61,331.09,317.968,326.947,317.968z"/>
</g>
<g>
</g>
<g>
</g>
<g>
</g>
<g>
</g>
<g>
</g>
<g>
</g>
<g>
</g>
<g>
</g>
<g>
</g>
<g>
</g>
<g>
</g>
<g>
</g>
<g>
</g>
<g>
</g>
<g>
</g>
</svg>
