<?xml version="1.0" encoding="iso-8859-1"?>
<!-- Generator: Adobe Illustrator 19.0.0, SVG Export Plug-In . SVG Version: 6.00 Build 0)  -->
<svg version="1.1" id="Capa_1" xmlns="http://www.w3.org/2000/svg" xmlns:xlink="http://www.w3.org/1999/xlink" x="0px" y="0px"
	 viewBox="0 0 512 512" style="enable-background:new 0 0 512 512;" xml:space="preserve">
<g>
	<path style="fill:#464D59;" d="M92.98,492.05L92.98,492.05c-17.448,0-31.592-14.144-31.592-31.592v-32.145
		c0-17.448,14.144-31.592,31.592-31.592l0,0c17.448,0,31.592,14.144,31.592,31.592v32.145
		C124.572,477.906,110.427,492.05,92.98,492.05z"/>
	<path style="fill:#464D59;" d="M191.977,492.05L191.977,492.05c-17.448,0-31.592-14.144-31.592-31.592v-32.145
		c0-17.448,14.144-31.592,31.592-31.592l0,0c17.448,0,31.592,14.144,31.592,31.592v32.145
		C223.569,477.906,209.425,492.05,191.977,492.05z"/>
	<path style="fill:#464D59;" d="M293.81,492.05L293.81,492.05c-17.448,0-31.592-14.144-31.592-31.592v-32.145
		c0-17.448,14.144-31.592,31.592-31.592l0,0c17.448,0,31.592,14.144,31.592,31.592v32.145
		C325.402,477.906,311.258,492.05,293.81,492.05z"/>
</g>
<path style="opacity:0.1;enable-background:new    ;" d="M92.98,492.05L92.98,492.05c-17.448,0-31.592-14.144-31.592-31.592v-32.145
	c0-17.448,14.144-31.592,31.592-31.592l0,0c17.448,0,31.592,14.144,31.592,31.592v32.145
	C124.572,477.906,110.427,492.05,92.98,492.05z"/>
<path style="opacity:0.1;enable-background:new    ;" d="M191.977,492.05L191.977,492.05c-17.448,0-31.592-14.144-31.592-31.592
	v-32.145c0-17.448,14.144-31.592,31.592-31.592l0,0c17.448,0,31.592,14.144,31.592,31.592v32.145
	C223.569,477.906,209.425,492.05,191.977,492.05z"/>
<path style="opacity:0.1;enable-background:new    ;" d="M293.81,492.05L293.81,492.05c-17.448,0-31.592-14.144-31.592-31.592
	v-32.145c0-17.448,14.144-31.592,31.592-31.592l0,0c17.448,0,31.592,14.144,31.592,31.592v32.145
	C325.402,477.906,311.258,492.05,293.81,492.05z"/>
<path style="fill:#3F454F;" d="M343.964,432.487h-240.79C46.193,432.487,0,386.295,0,329.314l0,0
	c0-56.982,46.193-103.175,103.174-103.175h240.79c56.981,0,103.174,46.193,103.174,103.174l0,0
	C447.138,386.295,400.945,432.487,343.964,432.487z"/>
<path style="opacity:0.1;enable-background:new    ;" d="M343.964,380.556h-240.79c-48.013,0-88.364-32.797-99.877-77.208
	C1.146,311.644,0,320.345,0,329.313l0,0c0,56.981,46.193,103.174,103.174,103.174h240.79c56.981,0,103.174-46.193,103.174-103.174
	l0,0c0-8.969-1.146-17.669-3.297-25.965C432.328,347.76,391.977,380.556,343.964,380.556z"/>
<path style="opacity:0.1;enable-background:new    ;" d="M447.138,329.314L447.138,329.314c0-56.982-46.193-103.174-103.174-103.174
	H137.767c-12.208,20.44-19.23,44.335-19.23,69.874l0,0c0,75.372,61.101,136.474,136.474,136.474h85.599
	c8.69,0,17.186-0.822,25.425-2.374C412.41,420.005,447.138,378.719,447.138,329.314z"/>
<g>
	<path style="fill:#464D59;" d="M297.796,176.559c-21.862-14.724-34.733-28.977-42.252-43.545l19.249-8.378
		c5.607-2.44,8.502-8.69,6.737-14.545l0,0c-1.765-5.855-7.632-9.463-13.654-8.397l-21.003,3.717
		c-1.434-9.579-1.644-19.476-1.532-29.881l18.185-2.15c6.073-0.718,10.648-5.866,10.648-11.981s-4.575-11.264-10.648-11.981
		l-17.81-2.105c-0.79-15.245-13.401-27.363-28.842-27.363c-15.951,0-28.882,12.93-28.882,28.882c0,4.671-0.101,9.44-0.208,14.487
		c-0.96,45.267-2.275,107.26,77.745,161.151c4.948,3.334,10.558,4.93,16.108,4.93c9.285,0,18.405-4.471,23.982-12.752
		C314.529,203.417,311.027,185.467,297.796,176.559z"/>
	<path style="fill:#464D59;" d="M367.657,176.559c21.861-14.724,34.733-28.977,42.252-43.545l-19.249-8.378
		c-5.607-2.44-8.502-8.69-6.736-14.545l0,0c1.765-5.855,7.632-9.463,13.654-8.397l21.003,3.717
		c1.434-9.579,1.644-19.476,1.532-29.881l-18.185-2.15c-6.073-0.718-10.648-5.866-10.648-11.981s4.575-11.264,10.648-11.981
		l17.809-2.105c0.79-15.245,13.401-27.363,28.842-27.363c15.951,0,28.882,12.93,28.882,28.882c0,4.671,0.101,9.44,0.208,14.487
		c0.96,45.267,2.275,107.26-77.745,161.151c-4.948,3.334-10.558,4.93-16.108,4.93c-9.285,0-18.405-4.471-23.981-12.752
		C350.924,203.417,354.426,185.467,367.657,176.559z"/>
</g>
<path style="opacity:0.1;enable-background:new    ;" d="M297.796,176.559c-21.862-14.724-34.733-28.977-42.252-43.545l19.249-8.378
	c5.607-2.44,8.502-8.69,6.737-14.545l0,0c-1.765-5.855-7.632-9.463-13.654-8.397l-21.003,3.717
	c-1.434-9.579-1.644-19.476-1.532-29.881l18.185-2.15c6.073-0.718,10.648-5.866,10.648-11.981s-4.575-11.264-10.648-11.981
	l-17.81-2.105c-0.79-15.245-13.401-27.363-28.842-27.363c-15.951,0-28.882,12.93-28.882,28.882c0,4.671-0.101,9.44-0.208,14.487
	c-0.96,45.267-2.275,107.26,77.745,161.151c4.948,3.334,10.558,4.93,16.108,4.93c9.285,0,18.405-4.471,23.982-12.752
	C314.529,203.417,311.027,185.467,297.796,176.559z"/>
<path style="opacity:0.1;enable-background:new    ;" d="M367.657,176.559c21.861-14.724,34.733-28.977,42.252-43.545l-19.249-8.378
	c-5.607-2.44-8.502-8.69-6.736-14.545l0,0c1.765-5.855,7.632-9.463,13.654-8.397l21.003,3.717
	c1.434-9.579,1.644-19.476,1.532-29.881l-18.185-2.15c-6.073-0.718-10.648-5.866-10.648-11.981s4.575-11.264,10.648-11.981
	l17.809-2.105c0.79-15.245,13.401-27.363,28.842-27.363c15.951,0,28.882,12.93,28.882,28.882c0,4.671,0.101,9.44,0.208,14.487
	c0.96,45.267,2.275,107.26-77.745,161.151c-4.948,3.334-10.558,4.93-16.108,4.93c-9.285,0-18.405-4.471-23.981-12.752
	C350.924,203.417,354.426,185.467,367.657,176.559z"/>
<path style="fill:#B38A82;" d="M375.526,432.487h-85.599c-75.372,0-136.474-61.101-136.474-136.474l0,0
	c0-75.372,61.101-136.474,136.474-136.474h85.599c75.373,0,136.474,61.102,136.474,136.474l0,0
	C512,371.386,450.899,432.487,375.526,432.487z"/>
<path style="fill:#464D59;" d="M375.526,432.487h-85.599c-75.372,0-136.474-61.101-136.474-136.474l0,0
	c0-75.372,61.101-136.474,136.474-136.474h85.599c75.373,0,136.474,61.102,136.474,136.474l0,0
	C512,371.386,450.899,432.487,375.526,432.487z"/>
<g>
	<ellipse style="fill:#F27281;" cx="268.3" cy="299.999" rx="29.741" ry="23.685"/>
	<ellipse style="fill:#F27281;" cx="429.5" cy="299.999" rx="29.741" ry="23.685"/>
</g>
<g>
	<path style="fill:#FFFFFF;" d="M285.63,283.874c-4.143,0-7.5-3.357-7.5-7.5v-10.503c0-4.143,3.357-7.5,7.5-7.5s7.5,3.357,7.5,7.5
		v10.503C293.13,280.517,289.772,283.874,285.63,283.874z"/>
	<path style="fill:#FFFFFF;" d="M412.172,283.874c-4.143,0-7.5-3.357-7.5-7.5v-10.503c0-4.143,3.357-7.5,7.5-7.5s7.5,3.357,7.5,7.5
		v10.503C419.672,280.517,416.315,283.874,412.172,283.874z"/>
	<path style="fill:#FFFFFF;" d="M348.9,291.939c-8.561,0-16.701-3.707-22.335-10.171c-2.721-3.122-2.396-7.86,0.727-10.582
		c3.122-2.721,7.859-2.396,10.582,0.727c2.784,3.194,6.803,5.026,11.026,5.026c4.225,0,8.243-1.832,11.027-5.026
		c2.723-3.123,7.46-3.448,10.582-0.727c3.123,2.722,3.447,7.46,0.727,10.582C365.603,288.231,357.461,291.939,348.9,291.939z"/>
</g>
<path style="opacity:0.1;enable-background:new    ;" d="M268.62,161.199c-65.251,10.231-115.167,66.691-115.167,134.815l0,0
	c0,75.372,61.101,136.474,136.474,136.474h85.599c20.292,0,39.546-4.435,56.855-12.378
	C235.132,391.145,229.702,230.475,268.62,161.199z"/>
<g>
</g>
<g>
</g>
<g>
</g>
<g>
</g>
<g>
</g>
<g>
</g>
<g>
</g>
<g>
</g>
<g>
</g>
<g>
</g>
<g>
</g>
<g>
</g>
<g>
</g>
<g>
</g>
<g>
</g>
</svg>
