<?xml version="1.0" encoding="iso-8859-1"?>
<!-- Generator: Adobe Illustrator 19.0.0, SVG Export Plug-In . SVG Version: 6.00 Build 0)  -->
<svg version="1.1" id="Capa_1" xmlns="http://www.w3.org/2000/svg" xmlns:xlink="http://www.w3.org/1999/xlink" x="0px" y="0px"
	 viewBox="0 0 512.001 512.001" style="enable-background:new 0 0 512.001 512.001;" xml:space="preserve">
<path style="fill:#EA8962;" d="M51.336,223.112l-14.205-22.44C22.409,177.4,15.172,150.562,16.2,123.051
	c1.027-27.511,10.246-53.734,26.658-75.837c5.41-7.286,12.777-12.779,21.305-15.883c8.529-3.104,17.704-3.633,26.532-1.529
	c26.778,6.382,50.696,20.545,69.166,40.959c18.471,20.414,30.178,45.625,33.858,72.908l3.552,26.325L51.336,223.112z"/>
<path style="fill:#F5D7B7;" d="M147.027,141.185l-75.729,27.563l-1.085-1.715c-17.562-27.761-16.229-63.467,3.355-89.841l0,0
	c2.967-3.995,8.029-5.838,12.869-4.684l0,0c31.955,7.615,55.928,34.111,60.318,66.665L147.027,141.185z"/>
<path style="opacity:0.05;enable-background:new    ;" d="M20.361,161.857c3.498,13.63,9.11,26.708,16.77,38.815l14.205,22.44
	l145.936-53.116l-3.552-26.325c-2.493-18.482-8.68-36.006-18.148-51.739C117.527,100.248,58.365,119.873,20.361,161.857z"/>
<path style="fill:#EA8962;" d="M460.664,223.112l14.205-22.44c14.723-23.272,21.959-50.11,20.931-77.621
	c-1.027-27.511-10.246-53.734-26.658-75.837c-5.41-7.286-12.777-12.779-21.305-15.883c-8.529-3.104-17.704-3.633-26.532-1.529
	c-26.778,6.382-50.696,20.545-69.166,40.959c-18.471,20.414-30.178,45.625-33.858,72.908l-3.552,26.325L460.664,223.112z"/>
<path style="fill:#F5D7B7;" d="M364.973,141.185l75.729,27.563l1.085-1.715c17.562-27.761,16.229-63.467-3.355-89.841l0,0
	c-2.967-3.995-8.029-5.838-12.869-4.684l0,0c-31.955,7.615-55.928,34.111-60.318,66.665L364.973,141.185z"/>
<path style="opacity:0.05;enable-background:new    ;" d="M474.87,200.672c7.659-12.107,13.272-25.184,16.77-38.815
	c-38.004-41.984-97.166-61.609-155.211-69.926c-9.467,15.733-15.655,33.257-18.147,51.739l-3.552,26.325l145.935,53.116
	L474.87,200.672z"/>
<path style="fill:#F49E73;" d="M256,483.464c140.045,0,236.871-61.892,253.575-177.817c22.352-155.128-113.529-199.1-253.575-199.1
	s-275.927,43.972-253.575,199.1C19.129,421.571,115.955,483.464,256,483.464z"/>
<path style="fill:#EF9067;" d="M202.259,108.895C83.485,119.767-17.039,170.561,2.425,305.646
	C19.129,421.571,115.955,483.464,256,483.464c31.088,0,60.04-3.057,86.465-9.071C-7.429,404.256,102.64,160.035,202.259,108.895z"/>
<g>
	<ellipse style="fill:#F27281;" cx="112.83" cy="292.701" rx="54.927" ry="43.741"/>
	<ellipse style="fill:#F27281;" cx="410.12" cy="292.701" rx="54.927" ry="43.741"/>
</g>
<g>
	<path style="fill:#464D59;" d="M133.889,256.566c-4.143,0-7.5-3.357-7.5-7.5V229.67c0-4.143,3.357-7.5,7.5-7.5s7.5,3.357,7.5,7.5
		v19.396C141.389,253.209,138.031,256.566,133.889,256.566z"/>
	<path style="fill:#464D59;" d="M378.111,256.566c-4.142,0-7.5-3.357-7.5-7.5V229.67c0-4.143,3.358-7.5,7.5-7.5
		c4.143,0,7.5,3.357,7.5,7.5v19.396C385.611,253.209,382.254,256.566,378.111,256.566z"/>
	<path style="fill:#464D59;" d="M284.344,366.14c-10.392,0-20.376-3.589-28.344-10.034c-7.968,6.445-17.952,10.034-28.344,10.034
		c-13.029,0-25.421-5.645-33.997-15.485c-2.722-3.123-2.395-7.86,0.727-10.582c3.122-2.721,7.859-2.396,10.582,0.727
		c5.726,6.572,13.996,10.341,22.688,10.341s16.963-3.769,22.689-10.341c1.425-1.634,3.486-2.572,5.654-2.572
		c2.168,0,4.23,0.939,5.654,2.572c5.727,6.572,13.997,10.341,22.689,10.341s16.962-3.769,22.688-10.341
		c2.722-3.123,7.458-3.448,10.582-0.727c3.122,2.722,3.448,7.459,0.727,10.582C309.765,360.495,297.373,366.14,284.344,366.14z"/>
	<path style="fill:#464D59;" d="M256,315.943c16.302,0,43.222-14.257,50.516-37.402c6.838-21.698-22.617-27.897-50.516-27.897
		s-57.354,6.199-50.515,27.897C212.779,301.685,239.698,315.943,256,315.943z"/>
	<path style="fill:#464D59;" d="M256,353.227c-4.143,0-7.5-3.357-7.5-7.5v-29.784c0-4.143,3.357-7.5,7.5-7.5
		c4.143,0,7.5,3.357,7.5,7.5v29.784C263.5,349.869,260.143,353.227,256,353.227z"/>
	<path style="fill:#464D59;" d="M427.73,366.335c-1.871,0-3.745-0.696-5.2-2.096c-16.484-15.865-46.32-26.629-67.273-29.061
		c-4.114-0.478-7.063-4.2-6.585-8.315c0.478-4.114,4.213-7.065,8.315-6.585c22.728,2.639,56.189,14.139,75.945,33.152
		c2.984,2.873,3.075,7.621,0.203,10.605C431.663,365.565,429.698,366.335,427.73,366.335z"/>
	<path style="fill:#464D59;" d="M436.402,323.561c-1.317,0-2.651-0.347-3.862-1.076c-19.599-11.804-51.076-15.668-72.05-13.381
		c-4.124,0.451-7.819-2.527-8.268-6.644c-0.448-4.117,2.525-7.819,6.643-8.269c22.749-2.479,57.924,1.296,81.413,15.443
		c3.549,2.137,4.692,6.746,2.556,10.294C441.426,322.267,438.945,323.561,436.402,323.561z"/>
	<path style="fill:#464D59;" d="M84.27,366.335c-1.968,0-3.933-0.77-5.405-2.299c-2.872-2.984-2.781-7.732,0.203-10.605
		c19.757-19.014,53.218-30.514,75.945-33.152c4.116-0.482,7.839,2.471,8.315,6.585c0.478,4.115-2.471,7.838-6.585,8.315
		c-20.953,2.432-50.789,13.195-67.273,29.061C88.015,365.639,86.141,366.335,84.27,366.335z"/>
	<path style="fill:#464D59;" d="M75.598,323.561c-2.543,0-5.023-1.294-6.432-3.632c-2.137-3.548-0.993-8.157,2.556-10.294
		c23.488-14.146,58.666-17.923,81.413-15.443c4.118,0.449,7.092,4.151,6.644,8.269c-0.449,4.118-4.147,7.104-8.269,6.644
		c-20.976-2.289-52.451,1.576-72.05,13.381C78.25,323.214,76.915,323.561,75.598,323.561z"/>
</g>
<path style="opacity:0.1;enable-background:new    ;" d="M256,106.546c-11.329,0-22.629,0.29-33.822,0.901
	c0.222,40.31,15.275,72.842,33.822,72.842s33.6-32.532,33.822-72.842C278.629,106.836,267.329,106.546,256,106.546z"/>
<path style="opacity:0.1;enable-background:new    ;" d="M126.093,122.781c5.691,23.26,16.929,39.098,29.868,39.098
	c15.128,0,27.934-21.646,32.263-51.501C166.534,112.989,145.61,117.031,126.093,122.781z"/>
<path style="opacity:0.1;enable-background:new    ;" d="M385.907,122.781c-5.691,23.26-16.929,39.098-29.868,39.098
	c-15.128,0-27.934-21.646-32.263-51.501C345.466,112.989,366.39,117.031,385.907,122.781z"/>
<g>
</g>
<g>
</g>
<g>
</g>
<g>
</g>
<g>
</g>
<g>
</g>
<g>
</g>
<g>
</g>
<g>
</g>
<g>
</g>
<g>
</g>
<g>
</g>
<g>
</g>
<g>
</g>
<g>
</g>
</svg>
