<?xml version="1.0" encoding="iso-8859-1"?>
<!-- Generator: Adobe Illustrator 19.0.0, SVG Export Plug-In . SVG Version: 6.00 Build 0)  -->
<svg version="1.1" id="Capa_1" xmlns="http://www.w3.org/2000/svg" xmlns:xlink="http://www.w3.org/1999/xlink" x="0px" y="0px"
	 viewBox="0 0 511.999 511.999" style="enable-background:new 0 0 511.999 511.999;" xml:space="preserve">
<path style="fill:#C1C4C7;" d="M449.104,267.9c0-118.593-86.456-190.54-193.104-190.54S62.896,149.308,62.896,267.9
	S149.352,434.639,256,434.639S449.104,386.493,449.104,267.9z"/>
<path style="opacity:0.1;enable-background:new    ;" d="M306.551,83.068c-18.4,40.288-12.067,114.335,116.28,82.904
	C397.571,123.312,355.997,94.605,306.551,83.068z"/>
<g>
	<path style="fill:#464D59;" d="M161.999,244.171c-4.143,0-7.5-3.357-7.5-7.5v-14.932c0-4.143,3.357-7.5,7.5-7.5s7.5,3.357,7.5,7.5
		v14.932C169.499,240.814,166.142,244.171,161.999,244.171z"/>
	<path style="fill:#464D59;" d="M350.001,244.171c-4.143,0-7.5-3.357-7.5-7.5v-14.932c0-4.143,3.357-7.5,7.5-7.5s7.5,3.357,7.5,7.5
		v14.932C357.501,240.814,354.144,244.171,350.001,244.171z"/>
</g>
<path style="opacity:0.05;enable-background:new    ;" d="M256,434.639c44.737,0,85.916-8.478,118.655-27.067
	C20.712,488.815,126.399,154.841,220.911,80.058C131.017,94.126,62.896,162.633,62.896,267.9
	C62.896,386.493,149.352,434.639,256,434.639z"/>
<path style="fill:#FFFFFF;" d="M256,404.496c44.59,0,91.225-15.536,80.737-87.57C323.673,227.211,282.589,199.248,256,199.248
	s-67.673,27.963-80.736,117.678C164.775,388.96,211.411,404.496,256,404.496z"/>
<path style="fill:#F27281;" d="M256,344.686c-9.436,0-18.152-3.038-25.258-8.169v35.439c0,13.95,11.309,25.258,25.258,25.258
	c13.949,0,25.258-11.309,25.258-25.258v-35.439C274.152,341.648,265.436,344.686,256,344.686z"/>
<path style="opacity:0.1;enable-background:new    ;" d="M256,376.144c-4.143,0-7.5-3.358-7.5-7.5v-23.958
	c0-4.143,3.357-7.5,7.5-7.5s7.5,3.357,7.5,7.5v23.958C263.5,372.786,260.143,376.144,256,376.144z"/>
<g>
	<path style="fill:#464D59;" d="M256,352.186c-14.662,0-28.607-6.352-38.259-17.426c-2.722-3.123-2.396-7.86,0.727-10.582
		c3.122-2.721,7.859-2.396,10.582,0.727c6.802,7.805,16.625,12.281,26.95,12.281c10.325,0,20.148-4.477,26.95-12.281
		c2.722-3.122,7.458-3.447,10.582-0.727c3.122,2.722,3.448,7.459,0.727,10.582C284.607,345.834,270.662,352.186,256,352.186z"/>
	<path style="fill:#464D59;" d="M256,352.186c-4.143,0-7.5-3.357-7.5-7.5v-33.317c0-4.143,3.357-7.5,7.5-7.5s7.5,3.357,7.5,7.5
		v33.317C263.5,348.828,260.143,352.186,256,352.186z"/>
	<path style="fill:#464D59;" d="M256,311.369c17.303,0,37.019-19.889,39.253-38.79c2.17-18.358-17.574-23.965-39.253-23.965
		s-41.423,5.607-39.253,23.965C218.981,291.48,238.697,311.369,256,311.369z"/>
	<path style="fill:#464D59;" d="M45.04,264.52L45.04,264.52c-21.811-2.658-39.42-19.077-43.596-40.649l0,0
		c-5.226-27,3.939-54.777,24.207-73.364l34.541-31.676c16.297-14.946,38.6-21.496,60.391-17.737l0,0
		c20.058,3.46,31.342,25.038,22.74,43.485l-41.144,88.234C92.004,254.635,68.942,267.432,45.04,264.52z"/>
</g>
<path style="opacity:0.1;enable-background:new    ;" d="M29.543,146.938l-3.892,3.569C5.383,169.094-3.782,196.871,1.444,223.871
	l0,0c4.176,21.572,21.785,37.991,43.596,40.649l0,0c23.902,2.913,46.964-9.884,57.14-31.707l3.715-7.968
	C43.082,255.704,20.502,184.315,29.543,146.938z"/>
<path style="fill:#464D59;" d="M466.96,264.52L466.96,264.52c21.811-2.658,39.42-19.077,43.596-40.649l0,0
	c5.226-27-3.939-54.777-24.207-73.364l-34.541-31.676c-16.297-14.946-38.6-21.496-60.391-17.737l0,0
	c-20.058,3.46-31.342,25.038-22.74,43.485l41.144,88.234C419.996,254.635,443.058,267.432,466.96,264.52z"/>
<path style="opacity:0.1;enable-background:new    ;" d="M498.006,248.64c-75.663,8.646-110.075-109.274-112.404-145.949
	c-16.322,6.215-24.656,25.311-16.926,41.888l41.144,88.234c10.176,21.823,33.238,34.62,57.14,31.707l0,0
	C479.164,263.033,490.05,257.235,498.006,248.64z"/>
<g>
</g>
<g>
</g>
<g>
</g>
<g>
</g>
<g>
</g>
<g>
</g>
<g>
</g>
<g>
</g>
<g>
</g>
<g>
</g>
<g>
</g>
<g>
</g>
<g>
</g>
<g>
</g>
<g>
</g>
</svg>
