<?xml version="1.0" encoding="iso-8859-1"?>
<!-- Generator: Adobe Illustrator 19.0.0, SVG Export Plug-In . SVG Version: 6.00 Build 0)  -->
<svg version="1.1" id="Capa_1" xmlns="http://www.w3.org/2000/svg" xmlns:xlink="http://www.w3.org/1999/xlink" x="0px" y="0px"
	 viewBox="0 0 512.001 512.001" style="enable-background:new 0 0 512.001 512.001;" xml:space="preserve">
<g>
	<path style="fill:#EBECEC;" d="M352.402,39.398c-3.746-10.474-15.461-15.798-26.016-12.287
		c-27.566,9.171-47.314,24.014-60.741,40.142c-3.243,3.895-9.584,1.719-9.752-3.347c-0.441-13.259,1.294-26.994,4.899-36.008
		c4.171-10.429-0.902-22.265-11.33-26.436c-10.43-4.176-22.265,0.9-26.437,11.33c-10.059,25.149-13.146,77.875,7.588,107.423
		c2.915,4.153,21.589,25.146,31.723,25.146c11.232,0,20.338-9.106,20.338-20.338c0-8.6,9.663-43.894,56.938-59.444
		C350.452,62.015,356.27,50.209,352.402,39.398z"/>
	<ellipse style="fill:#EBECEC;" cx="256.001" cy="299.501" rx="252.19" ry="212.5"/>
</g>
<g>
	<path style="fill:#464D59;" d="M169.374,243.526c-4.142,0-7.5-3.357-7.5-7.5c0-9.632-7.836-17.469-17.469-17.469
		c-9.632,0-17.469,7.837-17.469,17.469c0,4.143-3.358,7.5-7.5,7.5s-7.5-3.357-7.5-7.5c0-17.903,14.565-32.469,32.469-32.469
		c17.903,0,32.469,14.565,32.469,32.469C176.874,240.169,173.516,243.526,169.374,243.526z"/>
	<path style="fill:#464D59;" d="M392.566,243.526c-4.142,0-7.5-3.357-7.5-7.5c0-9.632-7.837-17.469-17.469-17.469
		s-17.469,7.837-17.469,17.469c0,4.143-3.357,7.5-7.5,7.5c-4.142,0-7.5-3.357-7.5-7.5c0-17.903,14.566-32.469,32.469-32.469
		s32.469,14.565,32.469,32.469C400.066,240.169,396.71,243.526,392.566,243.526z"/>
</g>
<path style="fill:#EA8962;" d="M364.523,350.88c0-39.681-48.587-51.38-108.522-51.38S147.48,311.199,147.48,350.88
	s48.587,71.849,108.522,71.849S364.523,390.561,364.523,350.88z"/>
<path style="fill:#F49E73;" d="M389.643,326.056L389.643,326.056c-4.127-9.345-12.435-16.184-22.398-18.439l-53.785-12.172
	c-8.947-2.025-16.61-7.762-21.072-15.776l-7.629-13.701c-5.696-10.23-16.487-16.572-28.196-16.572h-1.123
	c-11.709,0-22.5,6.342-28.196,16.572l-7.629,13.701c-4.463,8.015-12.125,13.751-21.072,15.776l-53.785,12.172
	c-9.963,2.255-18.271,9.094-22.398,18.439l0,0c-9.422,21.334,6.2,45.31,29.521,45.31h208.24
	C383.443,371.366,399.064,347.39,389.643,326.056z"/>
<path style="opacity:0.05;enable-background:new    ;" d="M177.319,97.561C76.572,125.416,3.81,205.292,3.81,299.5
	c0,117.361,112.91,212.501,252.192,212.501c45.614,0,88.399-10.206,125.317-28.053C-13.567,441.828,69.331,179.17,177.319,97.561z"
	/>
<g>
	<path style="fill:#EA8962;" d="M234.003,303.287c-1.415,0-2.844-0.399-4.114-1.234c-3.461-2.276-4.421-6.927-2.145-10.388
		l7.203-10.953c2.276-3.46,6.927-4.42,10.388-2.146c3.461,2.276,4.421,6.927,2.145,10.388l-7.203,10.953
		C238.835,302.098,236.442,303.287,234.003,303.287z"/>
	<path style="fill:#EA8962;" d="M278,303.287c-2.439,0-4.832-1.188-6.273-3.38l-7.203-10.953c-2.275-3.461-1.315-8.111,2.146-10.388
		c3.459-2.276,8.11-1.316,10.388,2.146l7.203,10.953c2.275,3.461,1.315,8.111-2.146,10.388
		C280.845,302.888,279.414,303.287,278,303.287z"/>
</g>
<path style="fill:#EF9067;" d="M191.211,297.104l-46.452,10.513c-9.964,2.255-18.271,9.094-22.398,18.438l0,0
	c-9.422,21.334,6.2,45.31,29.521,45.31h68.806C154.601,361.114,163.404,312.655,191.211,297.104z"/>
<g>
</g>
<g>
</g>
<g>
</g>
<g>
</g>
<g>
</g>
<g>
</g>
<g>
</g>
<g>
</g>
<g>
</g>
<g>
</g>
<g>
</g>
<g>
</g>
<g>
</g>
<g>
</g>
<g>
</g>
</svg>
