<?xml version="1.0" encoding="iso-8859-1"?>
<!-- Generator: Adobe Illustrator 19.0.0, SVG Export Plug-In . SVG Version: 6.00 Build 0)  -->
<svg version="1.1" id="Capa_1" xmlns="http://www.w3.org/2000/svg" xmlns:xlink="http://www.w3.org/1999/xlink" x="0px" y="0px"
	 viewBox="0 0 512 512" style="enable-background:new 0 0 512 512;" xml:space="preserve">
<path style="fill:#E4A2B7;" d="M494.903,269.015c0-111.383-106.96-201.677-238.903-201.677S17.097,157.632,17.097,269.015
	S124.058,447.853,256,447.853S494.903,380.398,494.903,269.015z"/>
<g>
	<path style="fill:#464D59;" d="M159.837,225.641c-4.142,0-7.5-3.357-7.5-7.5c0-8.234-6.699-14.934-14.933-14.934
		s-14.933,6.699-14.933,14.934c0,4.143-3.358,7.5-7.5,7.5s-7.5-3.357-7.5-7.5c0-16.506,13.428-29.934,29.933-29.934
		s29.933,13.428,29.933,29.934C167.337,222.283,163.979,225.641,159.837,225.641z"/>
	<path style="fill:#464D59;" d="M397.029,225.641c-4.142,0-7.5-3.357-7.5-7.5c0-8.234-6.699-14.934-14.933-14.934
		s-14.933,6.699-14.933,14.934c0,4.143-3.358,7.5-7.5,7.5s-7.5-3.357-7.5-7.5c0-16.506,13.428-29.934,29.933-29.934
		s29.933,13.428,29.933,29.934C404.529,222.283,401.171,225.641,397.029,225.641z"/>
</g>
<path style="fill:#DD8EAB;" d="M256,447.853c29.009,0,56.808-3.264,82.53-9.535C58.684,394.772,25.545,178.239,165.494,82.329
	C78.432,112.441,17.097,184.675,17.097,269.015C17.097,380.398,124.058,447.853,256,447.853z"/>
<path style="fill:#D9809C;" d="M209.599,220.058L209.599,220.058c-28.407,15.472-49.189,41.96-57.458,73.232l0,0
	c-4.867,18.404,7.038,37.037,25.783,40.355l0,0c51.649,9.144,104.504,9.144,156.153,0l0,0c18.745-3.319,30.649-21.951,25.783-40.355
	l0,0c-8.269-31.272-29.051-57.76-57.458-73.232l0,0C273.473,204.302,238.527,204.302,209.599,220.058z"/>
<g>
	<ellipse style="fill:#D17597;" cx="220.19" cy="276.52" rx="16.53" ry="31.958"/>
	<ellipse style="fill:#D17597;" cx="291.81" cy="276.52" rx="16.53" ry="31.958"/>
</g>
<path style="fill:#464D59;" d="M256,393.914c-11.168,0-21.787-4.837-29.136-13.27c-2.721-3.123-2.396-7.86,0.727-10.582
	c3.122-2.722,7.86-2.395,10.582,0.727c4.499,5.164,10.997,8.125,17.828,8.125c6.83,0,13.328-2.961,17.828-8.125
	c2.721-3.122,7.46-3.447,10.582-0.727c3.123,2.722,3.448,7.459,0.727,10.582C277.787,389.077,267.168,393.914,256,393.914z"/>
<g>
	<path style="fill:#D9809C;" d="M43.377,194.269L43.377,194.269c-23.667,7.054-46.641-12.881-42.993-37.306l4.544-30.422
		c2.745-18.375,11.455-35.337,24.789-48.275l0,0C41.801,66.541,58.974,61.683,75.41,65.341l35.728,7.95
		c12.783,2.844,20.869,15.477,18.099,28.276l0,0C119.663,145.814,86.76,181.338,43.377,194.269z"/>
	<path style="fill:#D9809C;" d="M468.623,194.269L468.623,194.269c23.667,7.054,46.641-12.881,42.993-37.306l-4.544-30.422
		c-2.745-18.375-11.455-35.337-24.789-48.275l0,0c-12.085-11.725-29.257-16.583-45.693-12.925l-35.728,7.95
		c-12.783,2.844-20.869,15.477-18.099,28.276l0,0C392.337,145.814,425.24,181.338,468.623,194.269z"/>
</g>
<g>
	<path style="fill:#D17597;" d="M382.763,101.568c9.574,44.246,42.477,79.77,85.861,92.701l0,0
		c19.964,5.951,39.434-7.304,42.849-26.257c-55.51,26.656-95.034-54.994-102.276-96.575l-8.335,1.855
		C388.079,76.136,379.993,88.769,382.763,101.568L382.763,101.568z"/>
	<path style="fill:#D17597;" d="M110.868,144.638c-51.65,30.135-92.683-19.441-85.062-62.29
		C14.686,94.68,7.394,110.036,4.928,126.542l-4.544,30.422c-3.649,24.425,19.326,44.361,42.993,37.306l0,0
		C71.409,185.914,95.053,168.117,110.868,144.638z"/>
</g>
<g>
</g>
<g>
</g>
<g>
</g>
<g>
</g>
<g>
</g>
<g>
</g>
<g>
</g>
<g>
</g>
<g>
</g>
<g>
</g>
<g>
</g>
<g>
</g>
<g>
</g>
<g>
</g>
<g>
</g>
</svg>
