<?xml version="1.0" encoding="iso-8859-1"?>
<!-- Generator: Adobe Illustrator 19.0.0, SVG Export Plug-In . SVG Version: 6.00 Build 0)  -->
<svg version="1.1" id="Capa_1" xmlns="http://www.w3.org/2000/svg" xmlns:xlink="http://www.w3.org/1999/xlink" x="0px" y="0px"
	 viewBox="0 0 512.001 512.001" style="enable-background:new 0 0 512.001 512.001;" xml:space="preserve">
<path style="fill:#B38A82;" d="M445.26,415.587c0,0-12.084-76.71-51.792-118.674c-29.258-30.921-54.127-80.705-65.19-104.767
	c-3.896-8.473-12.356-13.907-21.682-13.907H205.403c-9.326,0-17.786,5.434-21.682,13.907
	c-11.063,24.062-35.931,73.846-65.19,104.767C78.823,338.878,66.74,415.587,66.74,415.587H445.26z"/>
<path style="opacity:0.1;enable-background:new    ;" d="M220.949,178.239h-15.545c-9.326,0-17.786,5.434-21.682,13.907
	c-11.063,24.062-35.931,73.846-65.189,104.767C78.823,338.878,66.74,415.587,66.74,415.587h165.121
	C162.033,364.854,192.705,260.866,220.949,178.239z"/>
<g style="opacity:0.1;">
	<path d="M170.853,377.397c-0.799,0-1.612-0.129-2.411-0.399c-3.922-1.332-6.023-5.591-4.691-9.513
		c2.483-7.317,6.323-12.613,10.389-18.219c4.997-6.892,10.164-14.018,14.001-26.646c1.205-3.964,5.395-6.196,9.357-4.995
		c3.963,1.204,6.2,5.393,4.996,9.357c-4.569,15.036-11.024,23.938-16.21,31.091c-3.673,5.064-6.574,9.064-8.328,14.233
		C176.894,375.429,173.978,377.397,170.853,377.397z"/>
	<path d="M349.19,377.766c-3.183,0-6.137-2.043-7.148-5.239c-2.61-8.247-7.577-12.657-14.451-18.76
		c-6.161-5.47-13.144-11.669-20.067-21.979c-2.309-3.439-1.393-8.098,2.045-10.407c3.44-2.309,8.098-1.395,10.408,2.046
		c5.858,8.724,11.813,14.011,17.573,19.124c7.68,6.818,14.934,13.259,18.793,25.451c1.25,3.948-0.938,8.163-4.887,9.413
		C350.703,377.652,349.94,377.766,349.19,377.766z"/>
</g>
<path style="fill:#67C787;" d="M424.855,365.486c-22.648,26.99-28.833,61.78-30.493,80.723c-0.624,7.117,6.002,12.677,12.903,10.827
	c18.367-4.924,51.553-17.057,74.201-44.047c22.648-26.99,28.833-61.78,30.493-80.722c0.624-7.117-6.002-12.677-12.903-10.827
	C480.69,326.363,447.503,338.496,424.855,365.486z"/>
<path style="opacity:0.1;enable-background:new    ;" d="M423.792,431.732c-1.701,0-3.412-0.575-4.817-1.755
	c-3.173-2.662-3.587-7.392-0.924-10.566l58.729-69.991c2.661-3.173,7.393-3.589,10.566-0.924c3.173,2.662,3.587,7.393,0.924,10.566
	l-58.729,69.991C428.058,430.821,425.932,431.732,423.792,431.732z"/>
<path style="fill:#8ADBA1;" d="M380.168,360.589c-12.051,33.109-5.965,67.916-1.046,86.284c1.848,6.901,9.976,9.859,15.827,5.761
	c15.575-10.909,42.611-33.661,54.661-66.769c12.051-33.109,5.965-67.916,1.046-86.284c-1.848-6.901-9.975-9.859-15.827-5.761
	C419.254,304.728,392.218,327.48,380.168,360.589z"/>
<path style="opacity:0.1;enable-background:new    ;" d="M399.264,423.656c-0.852,0-1.718-0.147-2.565-0.454
	c-3.893-1.417-5.899-5.721-4.483-9.613l31.25-85.856c1.417-3.892,5.722-5.9,9.613-4.482c3.893,1.417,5.899,5.721,4.483,9.613
	l-31.25,85.856C405.204,421.765,402.327,423.656,399.264,423.656z"/>
<path style="fill:#67C787;" d="M87.145,365.486c22.648,26.99,28.833,61.78,30.493,80.723c0.624,7.117-6.002,12.677-12.903,10.827
	c-18.367-4.924-51.553-17.057-74.201-44.047s-28.833-61.78-30.493-80.722c-0.624-7.117,6.002-12.677,12.903-10.827
	C31.31,326.363,64.497,338.496,87.145,365.486z"/>
<path style="opacity:0.1;enable-background:new    ;" d="M88.208,431.732c-2.141,0-4.266-0.911-5.749-2.679l-58.729-69.99
	c-2.663-3.174-2.249-7.904,0.924-10.566c3.172-2.664,7.904-2.249,10.566,0.924l58.729,69.991c2.663,3.174,2.249,7.904-0.924,10.566
	C91.62,431.157,89.909,431.732,88.208,431.732z"/>
<path style="fill:#8ADBA1;" d="M131.832,360.589c12.051,33.109,5.965,67.916,1.046,86.284c-1.848,6.901-9.976,9.859-15.827,5.761
	c-15.575-10.909-42.611-33.661-54.661-66.769c-12.051-33.109-5.965-67.916-1.046-86.284c1.848-6.901,9.975-9.859,15.827-5.761
	C92.746,304.728,119.782,327.48,131.832,360.589z"/>
<path style="opacity:0.1;enable-background:new    ;" d="M112.736,423.656c-3.063,0-5.939-1.892-7.048-4.937l-31.25-85.856
	c-1.416-3.893,0.59-8.196,4.483-9.613c3.891-1.416,8.195,0.591,9.613,4.482l31.25,85.856c1.416,3.893-0.59,8.196-4.483,9.613
	C114.454,423.51,113.587,423.656,112.736,423.656z"/>
<path style="fill:#F5D7B7;" d="M476.695,486.197H35.305C15.806,486.197,0,470.39,0,450.892l0,0
	c0-19.498,15.806-35.305,35.305-35.305h441.391c19.498,0,35.305,15.807,35.305,35.305l0,0
	C512,470.39,496.194,486.197,476.695,486.197z"/>
<path style="fill:#F2CAA7;" d="M172.21,415.587H35.305C15.807,415.587,0,431.393,0,450.892l0,0
	c0,19.498,15.807,35.305,35.305,35.305h143.55C152.696,478.015,154.217,427.453,172.21,415.587z"/>
<g>
	<circle style="fill:#DBB695;" cx="446.71" cy="459.52" r="7.502"/>
	<circle style="fill:#DBB695;" cx="203.98" cy="452.02" r="7.502"/>
	<circle style="fill:#DBB695;" cx="352.59" cy="444.51" r="7.502"/>
	<circle style="fill:#DBB695;" cx="130.78" cy="444.51" r="7.502"/>
	<circle style="fill:#DBB695;" cx="75.28" cy="457.39" r="7.502"/>
</g>
<path style="fill:#F27281;" d="M349.985,209.82c7.34,23.404,18.014,43.226,26.062,56.235c5.822,9.411,2.999,21.749-6.32,27.717l0,0
	c-8.843,5.663-20.522,3.622-26.964-4.67c-12.117-15.598-27.276-30.273-39.241-40.923c-8.457-7.528-21.881-2.528-23.338,8.7
	c-1.471,11.34-3.174,24.336-4.515,34.547c-1.342,10.211-10.044,17.841-20.343,17.841l0,0c-9.456,0-17.632-6.477-19.931-15.649
	c-4.242-16.926-9.95-31.749-14.792-42.679c-3.866-8.727-15.717-9.992-21.314-2.26c-7.551,10.431-17.216,22.69-25.566,31.191
	c-6.059,6.169-15.34,7.855-23.181,4.211l0,0c-10.96-5.094-15.133-18.541-8.958-28.931c7.187-12.094,15.715-28.589,20.43-45.33l0,0
	c7.111-26.419,31.066-44.779,58.425-44.779h71.12C318.919,165.042,342.874,183.401,349.985,209.82L349.985,209.82z"/>
<g>
	<path style="fill:#EA6376;" d="M192.161,228.338c-1.127,0-2.271-0.255-3.348-0.794c-3.705-1.853-5.206-6.357-3.354-10.063
		c0.848-1.695,2.373-4.038,4.303-7.005c2.524-3.877,5.664-8.703,7.28-12.155c1.757-3.751,6.223-5.365,9.973-3.611
		c3.751,1.756,5.369,6.221,3.612,9.973c-2.059,4.398-5.515,9.708-8.292,13.976c-1.402,2.154-2.991,4.597-3.459,5.532
		C197.561,226.818,194.912,228.338,192.161,228.338z"/>
	<path style="fill:#EA6376;" d="M258.892,268.358c-3.998,0-7.319-3.154-7.488-7.185c-0.278-6.605,0.662-20.338,1.256-24.973
		c0.527-4.108,4.285-7.012,8.393-6.485s7.012,4.285,6.485,8.394c-0.532,4.147-1.381,16.875-1.148,22.436
		c0.174,4.139-3.04,7.634-7.179,7.808C259.105,268.356,258.998,268.358,258.892,268.358z"/>
	<path style="fill:#EA6376;" d="M337.447,244.654c-1.999,0-3.993-0.794-5.469-2.366c-6.181-6.583-12.86-21.873-13.716-25.013
		c-1.09-3.996,1.267-8.119,5.263-9.208c3.985-1.09,8.093,1.252,9.199,5.225c0.766,2.479,6.396,14.688,10.19,18.729
		c2.835,3.02,2.686,7.767-0.335,10.602C341.132,243.981,339.288,244.654,337.447,244.654z"/>
	<path style="fill:#EA6376;" d="M437.167,95.334c6.392,16.799-2.325,36.282-24.856,40.32c-19.337,3.466-42.121,7.562-60.631,10.893
		c-11.493,2.068-18.968-11.714-10.97-20.223c19.307-20.541,44.631-46.091,54.465-49.833
		C411.975,70.099,430.775,78.535,437.167,95.334z"/>
	<path style="fill:#EA6376;" d="M303.178,28.738c16.358,7.449,23.86,27.431,10.68,46.146c-11.312,16.062-24.631,34.995-35.45,50.38
		c-6.717,9.552-21.723,5.009-22.02-6.665c-0.717-28.181-0.677-64.155,3.684-73.731C267.521,28.51,286.82,21.289,303.178,28.738z"/>
	<path style="fill:#EA6376;" d="M106.685,101.935c-3.85,17.557,7.639,35.545,30.519,36.223c19.636,0.582,42.775,1.281,61.574,1.851
		c11.672,0.354,17.037-14.378,7.874-21.618c-22.119-17.476-50.928-39.02-61.207-41.274
		C127.889,73.267,110.535,84.378,106.685,101.935z"/>
</g>
<g>
</g>
<g>
</g>
<g>
</g>
<g>
</g>
<g>
</g>
<g>
</g>
<g>
</g>
<g>
</g>
<g>
</g>
<g>
</g>
<g>
</g>
<g>
</g>
<g>
</g>
<g>
</g>
<g>
</g>
</svg>
