<?xml version="1.0" encoding="iso-8859-1"?>
<!-- Generator: Adobe Illustrator 19.0.0, SVG Export Plug-In . SVG Version: 6.00 Build 0)  -->
<svg version="1.1" id="Capa_1" xmlns="http://www.w3.org/2000/svg" xmlns:xlink="http://www.w3.org/1999/xlink" x="0px" y="0px"
	 viewBox="0 0 511.998 511.998" style="enable-background:new 0 0 511.998 511.998;" xml:space="preserve">
<path style="fill:#F7D88B;" d="M197.266,411.91c-26.35,26.35-69.072,26.35-95.421,0c-26.35-26.35-26.35-69.071,0-95.421
	l32.573-32.573l95.421,95.421L197.266,411.91z"/>
<path style="fill:#B38A82;" d="M418.341,241.841c41.019-41.019,40.426-107.891-1.777-148.164
	c-40.121-38.285-104.183-37.862-143.825,0.919c-18.98,18.568-29.267,42.597-30.894,67.096c-0.682,10.266-5.123,19.919-12.398,27.194
	l-95.03,95.029l95.421,95.421l95.123-95.123c7.329-7.329,17.097-11.606,27.437-12.327
	C376.424,270.212,399.974,260.208,418.341,241.841z"/>
<path style="opacity:0.1;enable-background:new    ;" d="M352.399,271.886c11.711-0.816,23.304-3.627,34.245-8.406
	c-114.665-12.034-112.342-150.445-70.938-194.027c-15.728,4.609-30.546,12.991-42.967,25.142
	c-18.98,18.568-29.267,42.597-30.894,67.096c-0.682,10.265-5.123,19.919-12.398,27.194l-95.03,95.029l95.421,95.421l95.123-95.123
	C332.291,276.884,342.06,272.607,352.399,271.886z"/>
<rect x="169.104" y="244.075" transform="matrix(-0.7071 -0.7071 0.7071 -0.7071 207.8713 640.4534)" style="opacity:0.1;enable-background:new    ;" width="134.949" height="66.199"/>
<path style="fill:#B9E8EF;" d="M265.042,193.393c14.714,40.425-62.696,105.712-142.394,134.719
	c-44.793,16.303-80.908-7.664-95.621-48.089s-2.454-81.999,42.339-98.302C149.064,152.713,250.329,152.968,265.042,193.393z"/>
<g>
	<path style="fill:#ABDFEB;" d="M82.252,234.224c-3.064,0-5.94-1.891-7.049-4.937c-1.417-3.893,0.591-8.196,4.482-9.613
		l34.688-12.625c3.896-1.417,8.196,0.591,9.613,4.482c1.417,3.893-0.591,8.196-4.482,9.613l-34.688,12.625
		C83.969,234.078,83.102,234.224,82.252,234.224z"/>
	<path style="fill:#ABDFEB;" d="M146.464,270.088c-3.064,0-5.941-1.892-7.049-4.936c-1.417-3.893,0.591-8.196,4.482-9.613
		l36.852-13.413c3.894-1.414,8.197,0.591,9.613,4.482c1.417,3.893-0.591,8.196-4.482,9.613l-36.852,13.413
		C148.181,269.942,147.315,270.088,146.464,270.088z"/>
</g>
<path style="fill:#B9E8EF;" d="M316.849,245.199c-40.425-14.714-105.712,62.696-134.719,142.394
	c-16.303,44.793,7.664,80.907,48.089,95.621s81.999,2.454,98.302-42.339C357.529,361.177,357.274,259.913,316.849,245.199z"/>
<g>
	<path style="fill:#ABDFEB;" d="M283.518,435.493c-0.852,0-1.718-0.146-2.564-0.454c-3.893-1.417-5.899-5.721-4.482-9.613
		l12.626-34.688c1.416-3.892,5.721-5.896,9.613-4.482c3.893,1.417,5.899,5.721,4.482,9.613l-12.626,34.688
		C289.459,433.601,286.582,435.493,283.518,435.493z"/>
	<path style="fill:#ABDFEB;" d="M247.654,371.282c-0.852,0-1.717-0.147-2.564-0.454c-3.892-1.417-5.899-5.721-4.482-9.613
		l13.413-36.853c1.416-3.892,5.715-5.896,9.613-4.482c3.892,1.417,5.899,5.721,4.482,9.613l-13.413,36.853
		C253.594,369.39,250.717,371.282,247.654,371.282z"/>
</g>
<g>
	<path style="fill:#464D59;" d="M362.328,105.135c-1.919,0-3.839-0.732-5.304-2.196c-2.929-2.93-2.929-7.678,0-10.607
		c16.254-16.253,27.836-52.769,1.076-79.529c-2.929-2.93-2.929-7.678,0-10.607c2.93-2.928,7.678-2.928,10.607,0
		c18.977,18.979,21.38,40.247,20.053,54.747c-1.567,17.139-9.467,34.334-21.129,45.997
		C366.167,104.403,364.247,105.135,362.328,105.135z"/>
	<path style="fill:#464D59;" d="M412.606,155.413c-1.919,0-3.839-0.732-5.304-2.196c-2.929-2.93-2.929-7.678,0-10.607
		c11.663-11.662,28.858-19.562,45.997-21.129c14.503-1.327,35.77,1.076,54.747,20.054c2.929,2.929,2.929,7.677-0.001,10.607
		c-2.929,2.929-7.678,2.928-10.606-0.001c-14.867-14.868-31.468-16.758-42.772-15.722c-13.756,1.259-27.497,7.538-36.757,16.799
		C416.445,154.681,414.525,155.413,412.606,155.413z"/>
</g>
<g>
	<path style="fill:#F7D88B;" d="M48.131,473.122c-1.92,0-3.839-0.732-5.304-2.197c-2.929-2.929-2.929-7.678,0.001-10.607
		l24.38-24.379c2.928-2.929,7.677-2.928,10.606,0.001c2.929,2.929,2.929,7.678-0.001,10.606l-24.38,24.379
		C51.97,472.39,50.05,473.122,48.131,473.122z"/>
	<path style="fill:#F7D88B;" d="M43.733,379.268H9.256c-4.143,0-7.5-3.357-7.5-7.5s3.358-7.5,7.5-7.5h34.477
		c4.143,0,7.5,3.357,7.5,7.5C51.233,375.911,47.876,379.268,43.733,379.268z"/>
	<path style="fill:#F7D88B;" d="M141.987,511.998c-4.143,0-7.5-3.357-7.5-7.5V470.02c0-4.143,3.357-7.5,7.5-7.5s7.5,3.357,7.5,7.5
		v34.478C149.487,508.641,146.13,511.998,141.987,511.998z"/>
	<path style="fill:#F7D88B;" d="M166.191,85.272c-1.92,0-3.839-0.732-5.304-2.196c-2.929-2.93-2.929-7.678,0-10.607l49.399-49.398
		c2.931-2.928,7.679-2.928,10.607,0c2.929,2.93,2.929,7.678,0,10.607l-49.399,49.398C170.03,84.539,168.11,85.272,166.191,85.272z"
		/>
	<path style="fill:#F7D88B;" d="M215.59,85.272c-1.919,0-3.839-0.732-5.304-2.196l-49.399-49.398c-2.929-2.93-2.929-7.678,0-10.607
		c2.93-2.928,7.678-2.928,10.607,0l49.399,49.398c2.929,2.93,2.929,7.678,0,10.607C219.429,84.539,217.509,85.272,215.59,85.272z"/>
	<path style="fill:#F7D88B;" d="M390.736,435.718c-1.919,0-3.839-0.732-5.304-2.196c-2.929-2.93-2.929-7.678,0-10.607l49.398-49.398
		c2.93-2.928,7.678-2.928,10.607,0c2.929,2.93,2.929,7.678,0,10.607l-49.399,49.398
		C394.575,434.986,392.655,435.718,390.736,435.718z"/>
	<path style="fill:#F7D88B;" d="M440.134,435.718c-1.919,0-3.839-0.732-5.304-2.196l-49.398-49.398
		c-2.929-2.93-2.929-7.678,0-10.607c2.93-2.928,7.678-2.928,10.607,0l49.399,49.398c2.929,2.93,2.929,7.678,0,10.607
		C443.973,434.986,442.053,435.718,440.134,435.718z"/>
	<path style="fill:#F7D88B;" d="M494.814,300.797h-58c-4.143,0-7.5-3.357-7.5-7.5s3.357-7.5,7.5-7.5h58c4.143,0,7.5,3.357,7.5,7.5
		S498.957,300.797,494.814,300.797z"/>
	<path style="fill:#F7D88B;" d="M465.814,329.797c-4.143,0-7.5-3.357-7.5-7.5v-58c0-4.143,3.357-7.5,7.5-7.5s7.5,3.357,7.5,7.5v58
		C473.314,326.44,469.957,329.797,465.814,329.797z"/>
	<path style="fill:#F7D88B;" d="M111.083,119.886h-58c-4.143,0-7.5-3.357-7.5-7.5s3.357-7.5,7.5-7.5h58c4.143,0,7.5,3.357,7.5,7.5
		S115.225,119.886,111.083,119.886z"/>
	<path style="fill:#F7D88B;" d="M82.083,148.886c-4.143,0-7.5-3.357-7.5-7.5v-58c0-4.143,3.357-7.5,7.5-7.5s7.5,3.357,7.5,7.5v58
		C89.583,145.529,86.225,148.886,82.083,148.886z"/>
</g>
<g>
	<path style="fill:#ABDFEB;" d="M137.586,164.686c-22.875,3.328-46.358,9.078-68.22,17.035
		c-44.792,16.303-57.052,57.878-42.339,98.302c14.713,40.425,50.828,64.392,95.621,48.089c16.028-5.834,31.962-13.137,47.074-21.408
		C68.566,276.141,87.851,190.377,137.586,164.686z"/>
	<path style="fill:#ABDFEB;" d="M225.536,305.455c-17.327,24.144-32.795,52.985-43.406,82.138
		c-16.303,44.793,7.664,80.907,48.089,95.621c40.425,14.714,81.999,2.454,98.302-42.339c0.942-2.587,1.851-5.199,2.731-7.828
		C241.051,439.048,222.861,356.313,225.536,305.455z"/>
</g>
<g>
</g>
<g>
</g>
<g>
</g>
<g>
</g>
<g>
</g>
<g>
</g>
<g>
</g>
<g>
</g>
<g>
</g>
<g>
</g>
<g>
</g>
<g>
</g>
<g>
</g>
<g>
</g>
<g>
</g>
</svg>
