<?xml version="1.0" encoding="iso-8859-1"?>
<!-- Generator: Adobe Illustrator 19.0.0, SVG Export Plug-In . SVG Version: 6.00 Build 0)  -->
<svg version="1.1" id="Capa_1" xmlns="http://www.w3.org/2000/svg" xmlns:xlink="http://www.w3.org/1999/xlink" x="0px" y="0px"
	 viewBox="0 0 512 512" style="enable-background:new 0 0 512 512;" xml:space="preserve">
<path style="fill:#67C787;" d="M424.855,182.615c-22.648,26.99-28.833,61.78-30.493,80.722c-0.624,7.117,6.002,12.677,12.903,10.827
	c18.367-4.924,51.553-17.057,74.201-44.047c22.648-26.99,28.833-61.78,30.493-80.723c0.624-7.117-6.002-12.677-12.903-10.827
	C480.69,143.491,447.503,155.624,424.855,182.615z"/>
<path style="opacity:0.1;enable-background:new    ;" d="M423.792,248.861c-1.701,0-3.412-0.575-4.817-1.755
	c-3.173-2.662-3.587-7.393-0.924-10.566l58.729-69.991c2.662-3.173,7.393-3.588,10.566-0.924c3.173,2.662,3.587,7.393,0.924,10.566
	l-58.729,69.991C428.058,247.95,425.933,248.861,423.792,248.861z"/>
<path style="fill:#8ADBA1;" d="M384.658,121.713c-12.051,33.109-5.965,67.916-1.045,86.284c1.848,6.901,9.975,9.859,15.827,5.761
	c15.575-10.909,42.611-33.66,54.661-66.769s5.965-67.916,1.046-86.284c-1.848-6.901-9.976-9.859-15.827-5.761
	C423.744,65.852,396.708,88.604,384.658,121.713z"/>
<path style="opacity:0.1;enable-background:new    ;" d="M403.754,184.78c-0.852,0-1.718-0.146-2.564-0.454
	c-3.892-1.417-5.9-5.721-4.483-9.613l31.249-85.857c1.416-3.892,5.719-5.896,9.613-4.482c3.892,1.417,5.9,5.721,4.483,9.613
	l-31.249,85.856C409.694,182.889,406.818,184.78,403.754,184.78z"/>
<path style="fill:#67C787;" d="M87.145,182.615c22.648,26.99,28.833,61.78,30.493,80.722c0.624,7.117-6.002,12.677-12.903,10.827
	c-18.367-4.924-51.553-17.057-74.201-44.047s-28.833-61.78-30.493-80.723c-0.624-7.117,6.002-12.677,12.903-10.827
	C31.31,143.491,64.497,155.624,87.145,182.615z"/>
<path style="opacity:0.1;enable-background:new    ;" d="M88.208,248.861c-2.141,0-4.266-0.911-5.749-2.679L23.73,176.191
	c-2.663-3.174-2.249-7.904,0.924-10.566c3.174-2.664,7.904-2.249,10.566,0.924l58.729,69.991c2.663,3.174,2.249,7.904-0.924,10.566
	C91.62,248.286,89.909,248.861,88.208,248.861z"/>
<path style="fill:#8ADBA1;" d="M127.342,121.713c12.051,33.109,5.965,67.916,1.046,86.284c-1.848,6.901-9.976,9.859-15.827,5.761
	c-15.575-10.909-42.611-33.66-54.661-66.769s-5.965-67.916-1.045-86.284c1.848-6.901,9.975-9.859,15.827-5.761
	C88.256,65.852,115.292,88.604,127.342,121.713z"/>
<path style="opacity:0.1;enable-background:new    ;" d="M108.246,184.78c-3.064,0-5.94-1.891-7.049-4.937L69.948,93.987
	c-1.417-3.893,0.591-8.196,4.483-9.613c3.895-1.418,8.197,0.591,9.613,4.482l31.249,85.857c1.417,3.893-0.591,8.196-4.482,9.613
	C109.964,184.634,109.097,184.78,108.246,184.78z"/>
<path style="fill:#B38A82;" d="M34.385,334.979h142.017V133.541c0-15.008-17.246-23.465-29.112-14.276l0,0
	c-47.896,37.093-81.834,89.3-96.294,148.13L34.385,334.979z"/>
<path style="opacity:0.1;enable-background:new    ;" d="M109.623,154.758c-28.106,32.131-48.32,70.698-58.627,112.637
	l-16.611,67.584h115.373C103.264,297.127,101.481,205.349,109.623,154.758z"/>
<g style="opacity:0.1;">
	<path d="M94.578,302.333c-1.103,0-2.222-0.244-3.279-0.76c-3.724-1.814-5.271-6.304-3.457-10.027
		c1.282-2.632,1.446-3.934,1.717-6.091c0.432-3.432,0.969-7.703,5.176-15.729c1.923-3.67,6.457-5.086,10.124-3.161
		c3.669,1.922,5.084,6.455,3.161,10.124c-2.947,5.625-3.239,7.948-3.578,10.638c-0.332,2.64-0.745,5.925-3.115,10.79
		C100.027,300.782,97.356,302.333,94.578,302.333z"/>
	<path d="M121.003,228.032c-0.666,0-1.342-0.089-2.015-0.276c-3.991-1.111-6.325-5.246-5.215-9.236
		c1.322-4.75,4.172-8.513,6.927-12.15c4.226-5.581,8.218-10.853,8.165-20.562c-0.022-4.143,3.317-7.519,7.459-7.541
		c0.014,0,0.028,0,0.042,0c4.123,0,7.477,3.331,7.499,7.459c0.08,14.794-6.443,23.408-11.207,29.699
		c-2.081,2.748-3.879,5.121-4.434,7.117C127.301,225.859,124.286,228.032,121.003,228.032z"/>
</g>
<path style="fill:#B38A82;" d="M477.615,334.979H335.598V133.541c0-15.008,17.246-23.465,29.112-14.276l0,0
	c47.896,37.093,81.834,89.3,96.294,148.13L477.615,334.979z"/>
<g style="opacity:0.1;">
	<path d="M417.422,302.333c-2.779,0-5.449-1.551-6.748-4.217c-2.37-4.865-2.783-8.15-3.115-10.79
		c-0.339-2.689-0.631-5.013-3.578-10.638c-1.923-3.669-0.508-8.202,3.161-10.124c3.669-1.925,8.201-0.509,10.124,3.161
		c4.207,8.026,4.744,12.298,5.176,15.729c0.271,2.157,0.435,3.459,1.717,6.091c1.815,3.724,0.267,8.213-3.457,10.027
		C419.644,302.089,418.524,302.333,417.422,302.333z"/>
	<path d="M390.997,228.032c-3.283,0-6.298-2.173-7.222-5.49c-0.555-1.996-2.353-4.369-4.434-7.117
		c-4.764-6.291-11.287-14.905-11.207-29.699c0.022-4.128,3.376-7.459,7.499-7.459c0.014,0,0.027,0,0.042,0
		c4.142,0.022,7.481,3.398,7.459,7.541c-0.053,9.709,3.939,14.98,8.165,20.562c2.755,3.638,5.604,7.4,6.927,12.15
		c1.11,3.99-1.224,8.125-5.215,9.236C392.34,227.942,391.662,228.032,390.997,228.032z"/>
</g>
<rect x="176.4" y="140.359" style="fill:#ABDFEB;" width="159.2" height="194.62"/>
<g>
	<path style="fill:#8BCDD8;" d="M322.929,140.355c0,20.249,0,45.737,0,74.691c0,73.319-41.032,107.078-66.929,107.078
		s-66.929-33.758-66.929-107.078c0-28.954,0-54.442,0-74.691h-12.669v194.624h159.196V140.355H322.929z"/>
	<path style="fill:#8BCDD8;" d="M218.439,245.167c-4.143,0-7.5-3.357-7.5-7.5v-38.048c0-4.143,3.357-7.5,7.5-7.5s7.5,3.357,7.5,7.5
		v38.048C225.939,241.81,222.581,245.167,218.439,245.167z"/>
	<path style="fill:#8BCDD8;" d="M290.448,316.248c-4.143,0-7.5-3.357-7.5-7.5v-62.291c0-4.143,3.357-7.5,7.5-7.5s7.5,3.357,7.5,7.5
		v62.291C297.948,312.891,294.591,316.248,290.448,316.248z"/>
</g>
<path style="fill:#ABDFEB;" d="M444.286,458.925H67.714c-37.145,0-67.256-30.112-67.256-67.256v-34.042
	c0-12.508,10.14-22.648,22.648-22.648h465.789c12.508,0,22.648,10.14,22.648,22.648v34.042
	C511.542,428.813,481.43,458.925,444.286,458.925z"/>
<path style="fill:#8BCDD8;" d="M23.106,334.979c-12.508,0-22.648,10.14-22.648,22.648v34.042c0,37.145,30.112,67.256,67.256,67.256
	h216.325c-135.708-14.912-218.843-58.512-178.487-123.946H23.106z"/>
<path style="fill:#FFFFFF;" d="M334.836,297.258c-7.079-0.494-13.777,0.962-19.613,3.885c-9.653,4.834-21.156,3.301-29.6-3.426
	c-8.128-6.475-18.422-10.345-29.623-10.345s-21.495,3.87-29.623,10.345c-8.444,6.727-19.947,8.26-29.6,3.426
	c-5.836-2.923-12.535-4.379-19.613-3.885c-18.691,1.305-33.817,16.52-35.021,35.217c-1.418,22.019,16.021,40.32,37.735,40.32
	c6.012,0,11.694-1.404,16.739-3.9c9.734-4.817,21.266-3.419,29.76,3.348c8.128,6.475,18.421,10.344,29.622,10.344
	s21.494-3.87,29.622-10.344c8.495-6.767,20.027-8.165,29.76-3.348c5.045,2.497,10.728,3.9,16.739,3.9
	c21.714,0,39.153-18.301,37.735-40.32C368.653,313.778,353.527,298.563,334.836,297.258z"/>
<path style="opacity:0.05;enable-background:new    ;" d="M226.378,372.242c8.128,6.475,18.421,10.344,29.622,10.344
	c6.074,0,11.878-1.146,17.217-3.221c-33.377-3.434-23.394-31.979-64.305-29.352c-38.768,2.49-41.228-35.626-24.991-52.617
	c-2.203-0.235-4.457-0.3-6.758-0.14c-18.691,1.305-33.816,16.52-35.021,35.217c-1.418,22.019,16.021,40.32,37.735,40.32
	c6.011,0,11.694-1.404,16.74-3.9C206.352,364.077,217.883,365.475,226.378,372.242z"/>
<g>
	<path style="fill:#8BCDD8;" d="M105.394,390.087H72.346c-4.143,0-7.5-3.357-7.5-7.5s3.357-7.5,7.5-7.5h33.048
		c4.143,0,7.5,3.357,7.5,7.5S109.536,390.087,105.394,390.087z"/>
	<path style="fill:#8BCDD8;" d="M290.448,431.711h-97.63c-4.143,0-7.5-3.357-7.5-7.5s3.357-7.5,7.5-7.5h97.63
		c4.143,0,7.5,3.357,7.5,7.5S294.591,431.711,290.448,431.711z"/>
	<path style="fill:#8BCDD8;" d="M436.833,404.452h-53.714c-4.143,0-7.5-3.357-7.5-7.5s3.357-7.5,7.5-7.5h53.714
		c4.143,0,7.5,3.357,7.5,7.5S440.976,404.452,436.833,404.452z"/>
</g>
<g>
</g>
<g>
</g>
<g>
</g>
<g>
</g>
<g>
</g>
<g>
</g>
<g>
</g>
<g>
</g>
<g>
</g>
<g>
</g>
<g>
</g>
<g>
</g>
<g>
</g>
<g>
</g>
<g>
</g>
</svg>
