<?xml version="1.0" encoding="iso-8859-1"?>
<!-- Generator: Adobe Illustrator 19.0.0, SVG Export Plug-In . SVG Version: 6.00 Build 0)  -->
<svg version="1.1" id="Capa_1" xmlns="http://www.w3.org/2000/svg" xmlns:xlink="http://www.w3.org/1999/xlink" x="0px" y="0px"
	 viewBox="0 0 512 512" style="enable-background:new 0 0 512 512;" xml:space="preserve">
<path style="fill:#67C787;" d="M467.413,221.309L467.413,221.309c-0.984,0-1.808-0.759-1.87-1.741
	c-0.898-14.271-12.757-25.568-27.254-25.568s-26.356,11.297-27.254,25.568c-0.062,0.982-0.886,1.741-1.87,1.741h-23.998
	c-0.984,0-1.808-0.759-1.87-1.741c-0.898-14.271-12.757-25.568-27.254-25.568s-26.356,11.297-27.254,25.568
	c-0.062,0.982-0.886,1.741-1.87,1.741H290.77c-4.788,0-8.669-3.881-8.669-8.669l0,0c0-27.344-16.176-50.898-39.475-61.648
	c-2.398-1.106-3.903-3.54-3.901-6.181v-0.045c0-18.318-14.85-33.168-33.168-33.168c-16.283,0-29.825,11.733-32.633,27.206
	c-0.621,3.421-3.505,5.962-6.981,5.962h-49.784c-3.477,0-6.36-2.541-6.981-5.962c-2.808-15.473-16.351-27.206-32.633-27.206
	c-18.318,0-33.168,14.85-33.168,33.168v0.045c0.002,2.641-1.503,5.075-3.901,6.181C16.176,161.742,0,185.296,0,212.639v61.685
	c0,69.631,56.447,126.078,126.077,126.078h274.124c61.745,0,111.799-50.054,111.799-111.799v-22.707
	C512,241.271,492.038,221.309,467.413,221.309z"/>
<g style="opacity:0.1;">
	<circle cx="356.04" cy="221.309" r="7.495"/>
	<circle cx="438.29" cy="221.309" r="7.495"/>
</g>
<path style="fill:#8ADBA1;" d="M509.624,311.614H100.73c-14.884,0-29.289-4.681-41.724-12.859
	c-14.63-9.622-35.505-15.656-58.7-15.709c4.48,65.561,59.074,117.356,125.772,117.356h274.124
	C454.058,400.402,499.015,362.319,509.624,311.614z"/>
<g>
	<path style="fill:#FFFFFF;" d="M296.825,349.49L296.825,349.49c-10.459,0-18.938-8.479-18.938-18.938v-18.938h37.876v18.938
		C315.763,341.01,307.284,349.49,296.825,349.49z"/>
	<path style="fill:#FFFFFF;" d="M363.608,349.49L363.608,349.49c-10.459,0-18.938-8.479-18.938-18.938v-18.938h37.876v18.938
		C382.546,341.01,374.068,349.49,363.608,349.49z"/>
	<path style="fill:#FFFFFF;" d="M230.042,349.49L230.042,349.49c-10.459,0-18.938-8.479-18.938-18.938v-18.938h37.876v18.938
		C248.98,341.01,240.501,349.49,230.042,349.49z"/>
	<path style="fill:#FFFFFF;" d="M430.392,349.49L430.392,349.49c-10.459,0-18.938-8.479-18.938-18.938v-18.938h37.876v18.938
		C449.329,341.01,440.851,349.49,430.392,349.49z"/>
</g>
<g>
	<ellipse style="fill:#F27281;" cx="58.32" cy="192.029" rx="30.765" ry="24.5"/>
	<ellipse style="fill:#F27281;" cx="223.78" cy="192.029" rx="30.765" ry="24.5"/>
</g>
<g>
	<path style="fill:#464D59;" d="M76.246,175.087c-4.142,0-7.5-3.357-7.5-7.5v-10.864c0-4.143,3.358-7.5,7.5-7.5s7.5,3.357,7.5,7.5
		v10.864C83.746,171.729,80.388,175.087,76.246,175.087z"/>
	<path style="fill:#464D59;" d="M205.855,175.087c-4.142,0-7.5-3.357-7.5-7.5v-10.864c0-4.143,3.358-7.5,7.5-7.5s7.5,3.357,7.5,7.5
		v10.864C213.355,171.729,209.997,175.087,205.855,175.087z"/>
</g>
<path style="opacity:0.1;enable-background:new    ;" d="M63.034,154.464c-6.083-17.474-1.419-31.263,5.074-41.78
	c-14.232,3.732-24.732,16.679-24.732,32.082v0.045c0.004,2.64-1.5,5.074-3.897,6.18C16.177,161.738,0,185.294,0,212.639v61.685
	c0,69.631,56.447,126.078,126.077,126.078h73.521C62.141,352.98,57.671,188.087,63.362,158.891
	C63.65,157.414,63.529,155.884,63.034,154.464z"/>
<g>
</g>
<g>
</g>
<g>
</g>
<g>
</g>
<g>
</g>
<g>
</g>
<g>
</g>
<g>
</g>
<g>
</g>
<g>
</g>
<g>
</g>
<g>
</g>
<g>
</g>
<g>
</g>
<g>
</g>
</svg>
