<?xml version="1.0" encoding="iso-8859-1"?>
<!-- Generator: Adobe Illustrator 19.0.0, SVG Export Plug-In . SVG Version: 6.00 Build 0)  -->
<svg version="1.1" id="Capa_1" xmlns="http://www.w3.org/2000/svg" xmlns:xlink="http://www.w3.org/1999/xlink" x="0px" y="0px"
	 viewBox="0 0 512.001 512.001" style="enable-background:new 0 0 512.001 512.001;" xml:space="preserve">
<path style="fill:#B38A82;" d="M330.072,52.036c-4.142,0-7.5-3.357-7.5-7.5c0-16.286-13.25-29.536-29.536-29.536
	s-29.535,13.25-29.535,29.536c0,4.143-3.358,7.5-7.5,7.5c-4.142,0-7.5-3.357-7.5-7.5c0-16.286-13.25-29.536-29.536-29.536
	s-29.536,13.25-29.536,29.536c0,4.143-3.358,7.5-7.5,7.5s-7.5-3.357-7.5-7.5C174.43,19.979,194.408,0,218.965,0
	c15.423,0,29.04,7.88,37.036,19.826C263.997,7.88,277.614,0,293.037,0c24.557,0,44.536,19.979,44.536,44.536
	C337.572,48.679,334.214,52.036,330.072,52.036z"/>
<path style="fill:#67C787;" d="M295.031,448.998h-78.06l6.503,52.794c0.718,5.829,5.67,10.209,11.543,10.209h41.968
	c5.873,0,10.825-4.379,11.543-10.209L295.031,448.998z"/>
<path style="fill:#F7D88B;" d="M256.001,463.404c63.563,0,115.092-54.913,115.092-122.651c0-206.63-74.999-296.217-115.092-296.217
	s-115.092,89.587-115.092,296.217C140.909,408.491,192.438,463.404,256.001,463.404z"/>
<path style="fill:#F4CF7A;" d="M256.001,463.404c63.563,0,115.092-54.913,115.092-122.651c0-0.286-0.004-0.565-0.005-0.85
	C231.586,264.694,213.677,111.499,231.914,53.207c-40.312,26.911-91.005,117.663-91.005,287.546
	C140.909,408.491,192.438,463.404,256.001,463.404z"/>
<path style="fill:#67C787;" d="M121.648,288.185c0,156.947,77.908,184.074,127.185,186.931c8.245,0.478,15.762-4.78,18.146-12.687
	c31.753-105.333-29.502-278.11-138.515-328.704c-8.159-3.786-16.913,3.865-14.489,12.526
	C124.037,182.195,121.648,236.146,121.648,288.185z"/>
<path style="fill:#5FB87D;" d="M121.648,288.185c0,156.947,77.908,184.074,127.185,186.931c8.245,0.478,15.762-4.78,18.146-12.687
	c4.114-13.647,6.654-28.434,7.744-43.933C182.05,385.84,154.361,216.11,153.246,147.819c-7.952-5.39-16.219-10.12-24.783-14.095
	c-8.159-3.786-16.913,3.865-14.489,12.526C124.037,182.195,121.648,236.146,121.648,288.185z"/>
<g style="opacity:0.1;">
	<path d="M236.636,413.649c-0.036,0-0.071,0-0.107-0.001c-4.142-0.058-7.452-3.463-7.394-7.604
		c1-70.977-37.983-145.938-47.302-155.255c-2.929-2.929-2.929-7.678-0.001-10.606c2.93-2.93,7.677-2.929,10.607-0.001
		c13.263,13.263,52.719,93.282,51.693,166.073C244.075,410.36,240.728,413.649,236.636,413.649z"/>
	<path d="M195.304,400.657c-4.142,0-7.5-3.357-7.5-7.5c0-16.245-10.096-49.727-15.148-60.291c-1.787-3.736-0.207-8.214,3.53-10.001
		c3.737-1.789,8.215-0.207,10.002,3.53c5.075,10.612,16.616,46.84,16.616,66.762C202.804,397.3,199.446,400.657,195.304,400.657z"/>
</g>
<path style="fill:#8ADBA1;" d="M390.354,288.185c0,156.947-77.908,184.074-127.185,186.931c-8.245,0.478-15.762-4.78-18.146-12.687
	c-31.753-105.333,29.502-278.11,138.515-328.704c8.159-3.786,16.913,3.865,14.489,12.526
	C387.965,182.195,390.354,236.146,390.354,288.185z"/>
<g>
	<path style="fill:#7ACF90;" d="M275.366,413.649c-4.093,0-7.439-3.288-7.497-7.395c-1.025-72.791,38.43-152.811,51.693-166.073
		c2.929-2.928,7.677-2.929,10.607,0.001c2.929,2.929,2.928,7.678,0,10.606c-9.318,9.317-48.301,84.278-47.302,155.255
		c0.059,4.142-3.251,7.547-7.393,7.604C275.438,413.649,275.402,413.649,275.366,413.649z"/>
	<path style="fill:#7ACF90;" d="M316.698,400.657c-4.142,0-7.5-3.357-7.5-7.5c0-19.922,11.541-56.149,16.616-66.762
		c1.787-3.737,6.265-5.32,10.002-3.53c3.737,1.787,5.317,6.265,3.53,10.001c-5.052,10.564-15.148,44.046-15.148,60.291
		C324.198,397.3,320.84,400.657,316.698,400.657z"/>
</g>
<g>
	<path style="fill:#EAC268;" d="M262.908,177.675h-8.166v-8.166c0-4.143-3.358-7.5-7.5-7.5s-7.5,3.357-7.5,7.5v8.166h-8.167
		c-4.142,0-7.5,3.357-7.5,7.5s3.358,7.5,7.5,7.5h8.167v8.167c0,4.143,3.358,7.5,7.5,7.5s7.5-3.357,7.5-7.5v-8.167h8.166
		c4.142,0,7.5-3.357,7.5-7.5C270.408,181.032,267.05,177.675,262.908,177.675z"/>
	<path style="fill:#EAC268;" d="M308.682,129.23h-8.166v-8.166c0-4.143-3.358-7.5-7.5-7.5s-7.5,3.357-7.5,7.5v8.166h-8.167
		c-4.142,0-7.5,3.357-7.5,7.5s3.358,7.5,7.5,7.5h8.167v8.167c0,4.143,3.358,7.5,7.5,7.5s7.5-3.357,7.5-7.5v-8.167h8.166
		c4.142,0,7.5-3.357,7.5-7.5C316.182,132.588,312.824,129.23,308.682,129.23z"/>
	<path style="fill:#EAC268;" d="M239.653,111.835h-8.167v-8.166c0-4.143-3.358-7.5-7.5-7.5s-7.5,3.357-7.5,7.5v8.166h-8.166
		c-4.142,0-7.5,3.357-7.5,7.5s3.358,7.5,7.5,7.5h8.166v8.167c0,4.142,3.358,7.5,7.5,7.5s7.5-3.358,7.5-7.5v-8.167h8.167
		c4.142,0,7.5-3.357,7.5-7.5C247.153,115.192,243.795,111.835,239.653,111.835z"/>
</g>
<g>
</g>
<g>
</g>
<g>
</g>
<g>
</g>
<g>
</g>
<g>
</g>
<g>
</g>
<g>
</g>
<g>
</g>
<g>
</g>
<g>
</g>
<g>
</g>
<g>
</g>
<g>
</g>
<g>
</g>
</svg>
