<?xml version="1.0" encoding="iso-8859-1"?>
<!-- Generator: Adobe Illustrator 19.0.0, SVG Export Plug-In . SVG Version: 6.00 Build 0)  -->
<svg version="1.1" id="Capa_1" xmlns="http://www.w3.org/2000/svg" xmlns:xlink="http://www.w3.org/1999/xlink" x="0px" y="0px"
	 viewBox="0 0 512 512" style="enable-background:new 0 0 512 512;" xml:space="preserve">
<path style="fill:#F27281;" d="M284.041,111.634c-5.735-36.296-20.683-71.7-42.091-99.688c-10.21-13.352-29.31-15.894-42.656-5.684
	c-11.587,8.861-15.033,24.419-9.064,37.102c0.492,1.045-0.71,2.069-1.664,1.419c-14.834-10.101-30.699-18.359-46.922-24.28
	c-15.726-5.74-33.913,1.904-39.79,17.579c-5.972,15.929,2.259,33.613,18.218,39.335c2.549,0.914,5.087,1.911,7.61,2.987
	c1.973,0.842,1.082,3.806-1.029,3.425c-8.792-1.589-17.594-2.615-26.307-3.041c-16.77-0.826-31.058,12.122-31.879,28.905
	c-0.821,16.786,12.121,31.059,28.906,31.879c25.265,1.236,51.802,9.571,74.721,23.468c20.841,12.639,33.343,26.914,36.488,35.454
	c4.53,12.304,16.17,19.924,28.558,19.924c3.492,0,7.044-0.606,10.51-1.883c1.175-0.433,2.302-0.938,3.389-1.495
	c9.05-1.258,17.438-6.556,22.296-15.117C285.751,180.054,289.652,147.144,284.041,111.634z"/>
<path style="fill:#EA6376;" d="M107.518,142.448c22.122,2.686,44.709,10.544,64.578,22.592
	c20.841,12.639,33.343,26.914,36.488,35.454c4.53,12.304,16.17,19.924,28.558,19.924c3.492,0,7.044-0.606,10.51-1.883
	c1.175-0.433,2.302-0.938,3.389-1.495c9.05-1.258,17.438-6.556,22.296-15.117c12.413-21.871,16.314-54.78,10.704-90.291
	c-1.419-8.981-3.406-17.906-5.911-26.679c-8.343-1.037-16.838-1.584-25.462-1.589C196.182,83.338,144.968,105.877,107.518,142.448z"
	/>
<path style="fill:#EBECEC;" d="M265.334,105.827c-114.721-0.058-207.738,92.924-207.738,207.631
	c0,42.343-17.352,114.367-17.352,114.367c-6.88,39,19.159,76.193,58.159,83.072l0,0c39.039,5.786,64.088-25.008,77.008-47.766
	c3.432-6.046,12.442-5.267,14.78,1.28C200.096,492.149,226.6,512,257.74,512l0,0c37.36,0,56.023-25.172,64.771-44.075
	c2.705-5.846,11.103-5.833,13.792,0.02C344.987,486.846,363.598,512,401.152,512l0,0c39.602,0,71.706-32.104,71.706-71.706V315.445
	C472.858,200.492,380.288,105.885,265.334,105.827z"/>
<path style="fill:#F27281;" d="M348.04,386.554c-15.611-19.603-20.108-38.349-22.795-49.549l-0.056-0.235
	c-2.301-9.593-11.635-15.633-21.224-14.003c-9.586-1.627-18.922,4.412-21.223,14.003l-0.056,0.235
	c-2.687,11.2-7.184,29.946-22.795,49.549c-6.41,8.05-5.081,19.772,2.97,26.183c3.43,2.731,7.526,4.058,11.595,4.058
	c5.48,0,10.909-2.407,14.588-7.027c6.188-7.771,11.05-15.417,14.923-22.679c3.873,7.262,8.735,14.908,14.923,22.679
	c3.679,4.621,9.107,7.027,14.588,7.027c4.068,0,8.165-1.327,11.595-4.058C353.121,406.326,354.45,394.604,348.04,386.554z"/>
<path style="opacity:0.1;enable-background:new    ;" d="M325.245,337.005l-0.056-0.235c-2.301-9.593-11.635-15.633-21.224-14.003
	c-9.586-1.627-18.922,4.412-21.223,14.003l-0.056,0.235c-1.401,5.842-3.313,13.747-7.02,22.745
	c5.058,4.24,11.576,6.796,18.692,6.796h18.665c7.208,0,13.943-2.327,19.448-6.306C328.629,351.039,326.672,342.952,325.245,337.005z
	"/>
<g>
	<ellipse style="fill:#F27281;" cx="205.11" cy="273.33" rx="34.967" ry="27.846"/>
	<ellipse style="fill:#F27281;" cx="394.64" cy="273.33" rx="34.967" ry="27.846"/>
</g>
<g>
	<path style="fill:#464D59;" d="M242.129,250.529c-4.142,0-7.5-3.357-7.5-7.5c0-5.042-4.102-9.144-9.143-9.144
		c-5.042,0-9.144,4.102-9.144,9.144c0,4.143-3.358,7.5-7.5,7.5s-7.5-3.357-7.5-7.5c0-13.313,10.831-24.144,24.144-24.144
		s24.143,10.831,24.143,24.144C249.629,247.172,246.271,250.529,242.129,250.529z"/>
	<path style="fill:#464D59;" d="M390.905,250.529c-4.142,0-7.5-3.357-7.5-7.5c0-5.042-4.102-9.144-9.144-9.144
		c-5.042,0-9.144,4.102-9.144,9.144c0,4.143-3.358,7.5-7.5,7.5s-7.5-3.357-7.5-7.5c0-13.313,10.831-24.144,24.144-24.144
		c13.313,0,24.144,10.831,24.144,24.144C398.405,247.172,395.047,250.529,390.905,250.529z"/>
</g>
<g>
	<path style="fill:#F7D88B;" d="M364.572,318.705h-95.409v-39.532c0-12.024,9.748-21.772,21.772-21.772h20.309
		c30.263,0,56.188,21.661,61.567,51.443l0,0C373.739,313.981,369.792,318.705,364.572,318.705z"/>
	<path style="fill:#F7D88B;" d="M343.656,318.705h-74.493v7.669c0,14.549,11.794,26.343,26.343,26.343h16.885
		c14.543,0,27.002-10.41,29.587-24.721L343.656,318.705z"/>
</g>
<path style="opacity:0.08;enable-background:new    ;" d="M343.656,318.705h-74.493v7.669c0,14.549,11.794,26.343,26.343,26.343
	h16.885c14.543,0,27.002-10.41,29.587-24.721L343.656,318.705z"/>
<path style="opacity:0.08;enable-background:new    ;" d="M206.01,114.41C120.193,139.903,57.596,219.364,57.596,313.458
	c0,42.343-17.352,114.367-17.352,114.367c-6.88,39,19.159,76.193,58.159,83.072l0,0c23.649,3.505,42.155-6.42,55.95-19.844
	c-51.954-10.45-4.127-74.557-15.135-125.195C117.455,265.755,137.749,161.103,206.01,114.41z"/>
<g>
</g>
<g>
</g>
<g>
</g>
<g>
</g>
<g>
</g>
<g>
</g>
<g>
</g>
<g>
</g>
<g>
</g>
<g>
</g>
<g>
</g>
<g>
</g>
<g>
</g>
<g>
</g>
<g>
</g>
</svg>
