<?xml version="1.0" encoding="iso-8859-1"?>
<!-- Generator: Adobe Illustrator 19.0.0, SVG Export Plug-In . SVG Version: 6.00 Build 0)  -->
<svg version="1.1" id="Capa_1" xmlns="http://www.w3.org/2000/svg" xmlns:xlink="http://www.w3.org/1999/xlink" x="0px" y="0px"
	 viewBox="0 0 512.001 512.001" style="enable-background:new 0 0 512.001 512.001;" xml:space="preserve">
<path style="fill:#C1C4C7;" d="M58.963,325.627L44.27,262.532c-5.903-25.348,7.483-51.23,31.581-61.062l60.19-24.558
	c4.969-2.027,9.551-4.895,13.546-8.478l66.855-59.964c14.129-12.673,33.958-16.818,51.98-10.867l145.943,48.194
	c18.53,6.119,34.033,19.069,43.352,36.215l36.102,66.42c8.844,16.272,8.622,35.965-0.588,52.033l-18.6,32.45
	c-4.802,8.378-13.72,13.546-23.377,13.546H85.206C72.679,346.46,61.805,337.827,58.963,325.627z"/>
<path style="opacity:0.1;enable-background:new    ;" d="M192.195,130.217l-42.609,38.217c-3.995,3.583-8.577,6.451-13.546,8.478
	L75.85,201.47c-24.098,9.832-37.484,35.714-31.581,61.062l14.693,63.095c2.841,12.2,13.716,20.833,26.242,20.833h182.527
	C196.983,296.771,180.103,182.749,192.195,130.217z"/>
<path style="opacity:0.1;enable-background:new    ;" d="M331.185,208.056l50.992-6.259c7.387-0.907,14.251-4.286,19.473-9.589
	l34.52-35.048c-6.557-4.891-13.902-8.753-21.806-11.363L268.421,97.603c-7.512-2.481-15.335-3.183-22.932-2.268l45.112,90.869
	C298.125,201.358,314.391,210.117,331.185,208.056z"/>
<path style="opacity:0.1;enable-background:new    ;" d="M141.772,237.896l-88.974-18.211c-8.614,12.044-12.092,27.539-8.528,42.846
	l14.693,63.095c2.841,12.2,13.716,20.833,26.242,20.833H138.6l22.346-76.782C165.067,255.517,156.221,240.854,141.772,237.896z"/>
<path style="opacity:0.1;enable-background:new    ;" d="M245.893,346.46h205.361c4.391,0,8.625-1.079,12.393-3.032l-23.236-46.903
	c-10.067-20.322-34.679-28.667-55.03-18.659L245.893,346.46z"/>
<g style="opacity:0.1;">
	<path d="M209.39,241.66c-3.512,0-6.648-2.479-7.35-6.055c-0.799-4.064,1.848-8.007,5.912-8.806l29.886-5.876
		c4.059-0.803,8.007,1.847,8.806,5.912c0.799,4.064-1.848,8.007-5.912,8.806l-29.886,5.876
		C210.356,241.613,209.87,241.66,209.39,241.66z"/>
	<path d="M411.116,263.203c-1.358,0-2.732-0.368-3.968-1.141l-31.336-19.585c-3.513-2.195-4.581-6.822-2.386-10.335
		s6.825-4.581,10.335-2.385l31.336,19.585c3.513,2.195,4.581,6.822,2.386,10.335C416.06,261.953,413.616,263.203,411.116,263.203z"
		/>
	<path d="M217.392,205.627c-0.752,0-1.516-0.114-2.271-0.354l-34.104-10.827c-3.948-1.254-6.132-5.47-4.879-9.418
		c1.254-3.947,5.47-6.132,9.418-4.879l34.104,10.827c3.948,1.253,6.132,5.47,4.879,9.418
		C223.525,203.588,220.573,205.627,217.392,205.627z"/>
</g>
<path style="fill:#F5D7B7;" d="M476.695,417.07H35.305C15.806,417.07,0,401.263,0,381.765l0,0c0-19.498,15.806-35.305,35.305-35.305
	h441.391c19.498,0,35.305,15.806,35.305,35.305l0,0C512,401.263,496.194,417.07,476.695,417.07z"/>
<path style="fill:#F2CAA7;" d="M172.21,346.46H35.305C15.806,346.46,0,362.266,0,381.765l0,0c0,19.498,15.806,35.305,35.305,35.305
	h143.55C152.696,408.888,154.217,358.326,172.21,346.46z"/>
<g>
	<circle style="fill:#DBB695;" cx="446.71" cy="390.39" r="7.502"/>
	<circle style="fill:#DBB695;" cx="203.98" cy="382.89" r="7.502"/>
	<circle style="fill:#DBB695;" cx="352.59" cy="375.39" r="7.502"/>
	<circle style="fill:#DBB695;" cx="130.78" cy="375.39" r="7.502"/>
	<circle style="fill:#DBB695;" cx="75.28" cy="388.27" r="7.502"/>
</g>
<g>
</g>
<g>
</g>
<g>
</g>
<g>
</g>
<g>
</g>
<g>
</g>
<g>
</g>
<g>
</g>
<g>
</g>
<g>
</g>
<g>
</g>
<g>
</g>
<g>
</g>
<g>
</g>
<g>
</g>
</svg>
