<?xml version="1.0" encoding="iso-8859-1"?>
<!-- Generator: Adobe Illustrator 19.0.0, SVG Export Plug-In . SVG Version: 6.00 Build 0)  -->
<svg version="1.1" id="Capa_1" xmlns="http://www.w3.org/2000/svg" xmlns:xlink="http://www.w3.org/1999/xlink" x="0px" y="0px"
	 viewBox="0 0 512.001 512.001" style="enable-background:new 0 0 512.001 512.001;" xml:space="preserve">
<g>
	<path style="fill:#ABDFEB;" d="M221.999,191.229l-85.918-85.934V77.412c0-12.063-9.778-21.841-21.841-21.841
		s-21.841,9.778-21.841,21.841V92.5H77.311c-12.063,0-21.841,9.778-21.841,21.841s9.778,21.841,21.841,21.841h27.881l85.916,85.932
		L221.999,191.229z"/>
	<path style="fill:#ABDFEB;" d="M320.673,222.099l85.934-85.918h27.883c12.063,0,21.841-9.778,21.841-21.841
		s-9.778-21.841-21.841-21.841h-15.088V77.411c0-12.062-9.778-21.841-21.841-21.841s-21.841,9.778-21.841,21.841v27.881
		l-85.932,85.916L320.673,222.099z"/>
	<path style="fill:#ABDFEB;" d="M289.803,320.773l85.918,85.934v27.883c0,12.063,9.778,21.841,21.841,21.841
		s21.841-9.778,21.841-21.841v-15.088h15.088c12.063,0,21.841-9.778,21.841-21.841s-9.778-21.841-21.841-21.841H406.61
		l-85.917-85.932L289.803,320.773z"/>
	<path style="fill:#ABDFEB;" d="M191.129,289.903l-85.934,85.918H77.312c-12.063,0-21.841,9.778-21.841,21.841
		s9.778,21.841,21.841,21.841H92.4v15.088c0,12.063,9.778,21.841,21.841,21.841s21.841-9.778,21.841-21.841V406.71l85.932-85.917
		L191.129,289.903z"/>
</g>
<g>
	<path style="fill:#8BCDD8;" d="M255.952,108.944c-5.793,0-11.348-2.301-15.443-6.397L190.68,52.719
		c-8.529-8.529-8.531-22.358-0.001-30.887c8.529-8.53,22.358-8.53,30.887,0l34.385,34.384l34.383-34.384
		c8.529-8.53,22.358-8.53,30.887,0c8.529,8.529,8.529,22.358,0.001,30.887l-49.827,49.828
		C267.3,106.643,261.745,108.944,255.952,108.944z"/>
	<path style="fill:#8BCDD8;" d="M37.274,327.718c-5.59,0.001-11.178-2.132-15.444-6.397c-8.529-8.53-8.528-22.359,0.001-30.888
		l34.384-34.384l-34.384-34.384c-8.529-8.529-8.53-22.358-0.001-30.887s22.358-8.529,30.888,0l49.828,49.828
		c4.096,4.096,6.398,9.651,6.398,15.444c0,5.792-2.301,11.348-6.398,15.444l-49.828,49.827
		C48.454,325.585,42.864,327.718,37.274,327.718z"/>
	<path style="fill:#8BCDD8;" d="M305.876,496.567c-5.59,0-11.178-2.132-15.444-6.397l-34.383-34.384l-34.385,34.384
		c-8.527,8.529-22.356,8.53-30.887,0c-8.528-8.529-8.528-22.358,0.001-30.887l49.829-49.828c4.095-4.096,9.651-6.397,15.443-6.397
		l0,0c5.793,0,11.348,2.301,15.444,6.397l49.828,49.828c8.529,8.529,8.528,22.359-0.001,30.887
		C317.056,494.435,311.466,496.567,305.876,496.567z"/>
	<path style="fill:#8BCDD8;" d="M474.726,327.621c-5.59,0-11.178-2.132-15.444-6.397l-49.828-49.828
		c-8.528-8.529-8.528-22.358,0-30.887l49.828-49.828c8.529-8.529,22.358-8.529,30.887,0c8.529,8.53,8.531,22.358,0.001,30.888
		l-34.384,34.384l34.384,34.384c8.529,8.529,8.528,22.358-0.001,30.887C485.905,325.488,480.315,327.621,474.726,327.621z"/>
</g>
<path style="fill:#B9E8EF;" d="M490.159,234.078H345.033c-8.136-33.032-34.219-59.073-67.274-67.149V21.842
	c0-12.063-9.779-21.841-21.841-21.841c-12.063,0-21.841,9.778-21.841,21.841v145.127c-33.032,8.136-59.074,34.219-67.149,67.274
	H21.841C9.778,234.243,0,244.021,0,256.084c0,12.063,9.778,21.841,21.841,21.841h145.128c8.136,33.032,34.219,59.074,67.274,67.149
	V490.16c0,12.063,9.778,21.841,21.841,21.841c12.063,0,21.841-9.778,21.841-21.841V345.033
	c33.032-8.136,59.073-34.219,67.149-67.274H490.16c12.063,0,21.841-9.778,21.841-21.841
	C512,243.856,502.222,234.078,490.159,234.078z M256,304.008c-26.47,0-48.006-21.536-48.006-48.007
	c0-26.471,21.536-48.006,48.006-48.006c26.471,0,48.007,21.536,48.007,48.006S282.471,304.008,256,304.008z"/>
<g>
</g>
<g>
</g>
<g>
</g>
<g>
</g>
<g>
</g>
<g>
</g>
<g>
</g>
<g>
</g>
<g>
</g>
<g>
</g>
<g>
</g>
<g>
</g>
<g>
</g>
<g>
</g>
<g>
</g>
</svg>
