<?xml version="1.0" encoding="iso-8859-1"?>
<!-- Generator: Adobe Illustrator 19.0.0, SVG Export Plug-In . SVG Version: 6.00 Build 0)  -->
<svg version="1.1" id="Capa_1" xmlns="http://www.w3.org/2000/svg" xmlns:xlink="http://www.w3.org/1999/xlink" x="0px" y="0px"
	 viewBox="0 0 512 512" style="enable-background:new 0 0 512 512;" xml:space="preserve">
<path style="fill:#B38A82;" d="M320.281,374.722H191.719l-6.305,116.186C184.792,502.367,193.916,512,205.392,512h101.216
	c11.476,0,20.6-9.633,19.978-21.092L320.281,374.722z"/>
<path style="opacity:0.1;enable-background:new    ;" d="M320.281,374.722H191.719l-3.252,59.925
	c4.924-2.315,10.988-1.164,14.717,3.116c13.932,15.988,32.468,25.74,52.816,25.74s38.884-9.752,52.816-25.74
	c3.729-4.28,9.793-5.432,14.717-3.116L320.281,374.722z"/>
<g style="opacity:0.1;">
	<path d="M223.096,467.897c-0.196,0-0.394-0.008-0.592-0.023c-4.13-0.323-7.216-3.932-6.894-8.061l3.227-41.284
		c0.323-4.129,3.933-7.226,8.062-6.893c4.13,0.323,7.216,3.932,6.894,8.062l-3.227,41.284
		C230.258,464.912,226.973,467.897,223.096,467.897z"/>
	<path d="M292.55,488.692c-3.915,0-7.212-3.039-7.476-7.003l-1.744-26.206c-0.275-4.133,2.852-7.707,6.985-7.982
		c4.131-0.281,7.707,2.852,7.982,6.985l1.744,26.205c0.275,4.133-2.852,7.707-6.985,7.982
		C292.887,488.686,292.718,488.692,292.55,488.692z"/>
</g>
<path id="SVGCleanerId_0" style="fill:#8ADBA1;" d="M433.797,299.678c-7.996-13.233-17.985-24.29-29.039-32.826l-0.001,0.002
	c-43.079-33.839-95.962-52.116-148.757-52.116s-105.677,18.277-148.757,52.116l-0.001-0.002
	c-11.054,8.536-21.043,19.593-29.039,32.826c-28.149,46.585-20.935,102.498,16.112,124.883
	c27.348,16.525,63.305,10.158,91.582-13.046c5.191-4.26,12.876-3.554,17.287,1.508c13.932,15.989,32.468,25.74,52.816,25.74
	s38.884-9.752,52.816-25.74c4.411-5.063,12.096-5.768,17.287-1.508c28.277,23.204,64.235,29.57,91.582,13.046
	C454.733,402.176,461.947,346.264,433.797,299.678z"/>
<g>
	<path id="SVGCleanerId_0_1_" style="fill:#8ADBA1;" d="M433.797,299.678c-7.996-13.233-17.985-24.29-29.039-32.826l-0.001,0.002
		c-43.079-33.839-95.962-52.116-148.757-52.116s-105.677,18.277-148.757,52.116l-0.001-0.002
		c-11.054,8.536-21.043,19.593-29.039,32.826c-28.149,46.585-20.935,102.498,16.112,124.883
		c27.348,16.525,63.305,10.158,91.582-13.046c5.191-4.26,12.876-3.554,17.287,1.508c13.932,15.989,32.468,25.74,52.816,25.74
		s38.884-9.752,52.816-25.74c4.411-5.063,12.096-5.768,17.287-1.508c28.277,23.204,64.235,29.57,91.582,13.046
		C454.733,402.176,461.947,346.264,433.797,299.678z"/>
</g>
<path style="fill:#7ACF90;" d="M404.758,266.852l-0.001,0.002c-43.079-33.839-95.962-52.116-148.757-52.116
	s-105.677,18.277-148.757,52.116l-0.001-0.002c-11.054,8.536-21.044,19.593-29.04,32.826
	c-28.149,46.585-20.935,102.498,16.112,124.883c27.348,16.525,63.305,10.158,91.583-13.046c5.191-4.26,12.876-3.554,17.287,1.508
	c13.932,15.989,32.468,25.74,52.816,25.74c7.99,0,15.693-1.523,22.955-4.318c-34.828-9.694-56.227-57.149-63.412-106.528
	c-0.57-3.917,3.788-6.632,7.082-4.437c9.96,6.637,21.318,10.397,33.375,10.397c19.151,0,36.54-9.482,49.363-24.914
	c3.27-3.935,9.083-4.511,12.975-1.19c25.984,22.18,59.554,28.519,84.964,13.165c11.471-6.931,19.793-17.396,24.788-29.851
	C421.235,281.61,413.323,273.466,404.758,266.852z"/>
<path style="fill:#67C787;" d="M417.98,185.023c-7.285-12.056-16.385-22.129-26.456-29.906l-0.001,0.002
	c-39.247-30.829-87.425-47.48-135.523-47.48s-96.276,16.651-135.523,47.48l-0.001-0.002c-10.071,7.777-19.171,17.85-26.456,29.906
	c-25.645,42.441-19.073,93.379,14.679,113.774c25.41,15.354,58.98,9.015,84.965-13.165c3.891-3.321,9.704-2.745,12.973,1.19
	c12.823,15.433,30.212,24.915,49.363,24.915s36.541-9.482,49.363-24.915c3.269-3.935,9.083-4.511,12.973-1.19
	c25.984,22.181,59.554,28.519,84.965,13.165C437.053,278.402,443.625,227.464,417.98,185.023z"/>
<path style="fill:#5FB87D;" d="M391.524,155.117l-0.001,0.002c-39.247-30.829-87.425-47.48-135.523-47.48
	s-96.276,16.651-135.523,47.48l-0.001-0.002c-10.071,7.777-19.171,17.85-26.456,29.906c-25.645,42.441-19.073,93.379,14.679,113.773
	c24.915,15.055,57.673,9.255,83.435-11.885c4.729-3.881,11.73-3.238,15.749,1.374c12.692,14.566,29.579,23.45,48.117,23.45
	c7.279,0,14.297-1.388,20.913-3.933c-31.73-8.831-51.225-52.065-57.771-97.051c-0.519-3.569,3.451-6.042,6.452-4.042
	c9.074,6.046,19.421,9.472,30.406,9.472c17.447,0,33.29-8.638,44.972-22.698c2.979-3.585,8.275-4.11,11.82-1.084
	c23.673,20.207,54.256,25.981,77.406,11.993c10.451-6.315,18.032-15.849,22.582-27.196
	C406.535,168.562,399.327,161.142,391.524,155.117z"/>
<path style="fill:#8ADBA1;" d="M256,175.996c14.554,0,27.789-7.098,37.637-18.691c2.796-3.291,7.705-3.748,11.015-0.975
	c19.967,16.728,45.568,21.419,64.99,9.683c26.039-15.734,32.998-56.251,11.324-87.775C342.441,22.204,293.107,0,256,0
	s-86.441,22.204-124.966,78.238c-21.674,31.524-14.715,72.041,11.324,87.775c19.422,11.736,45.022,7.045,64.99-9.683
	c3.31-2.773,8.219-2.315,11.015,0.975C228.211,168.898,241.446,175.996,256,175.996z"/>
<path style="fill:#7ACF90;" d="M218.363,157.306c9.848,11.593,23.083,18.691,37.637,18.691c5.193,0,10.213-0.919,14.977-2.608
	c-61.81-8.139-58.048-133.457-32.676-171.799c-34.166,5.954-74.6,29.136-107.267,76.649c-21.674,31.524-14.715,72.041,11.324,87.775
	c19.422,11.736,45.022,7.045,64.99-9.683C210.658,153.557,215.567,154.015,218.363,157.306z"/>
<g>
</g>
<g>
</g>
<g>
</g>
<g>
</g>
<g>
</g>
<g>
</g>
<g>
</g>
<g>
</g>
<g>
</g>
<g>
</g>
<g>
</g>
<g>
</g>
<g>
</g>
<g>
</g>
<g>
</g>
</svg>
