<?xml version="1.0" encoding="iso-8859-1"?>
<!-- Generator: Adobe Illustrator 19.0.0, SVG Export Plug-In . SVG Version: 6.00 Build 0)  -->
<svg version="1.1" id="Capa_1" xmlns="http://www.w3.org/2000/svg" xmlns:xlink="http://www.w3.org/1999/xlink" x="0px" y="0px"
	 viewBox="0 0 512 512" style="enable-background:new 0 0 512 512;" xml:space="preserve">
<path style="fill:#B38A82;" d="M328.387,472.389l-32.03,32.03c-10.108,10.108-26.497,10.108-36.605,0l0,0
	c-10.108-10.108-10.108-26.497,0-36.605l32.03-32.03c10.108-10.108,26.497-10.108,36.605,0l0,0
	C338.495,445.892,338.495,462.281,328.387,472.389z"/>
<path style="opacity:0.1;enable-background:new    ;" d="M328.387,472.389l-32.03,32.03c-10.108,10.108-26.497,10.108-36.605,0l0,0
	c-10.108-10.108-10.108-26.497,0-36.605l32.03-32.03c10.108-10.108,26.497-10.108,36.605,0l0,0
	C338.495,445.892,338.495,462.281,328.387,472.389z"/>
<path style="fill:#B38A82;" d="M267.417,472.389l-32.03,32.03c-10.108,10.108-26.497,10.108-36.605,0l0,0
	c-10.108-10.108-10.108-26.497,0-36.605l32.03-32.03c10.108-10.108,26.497-10.108,36.605,0l0,0
	C277.525,445.892,277.525,462.281,267.417,472.389z"/>
<path style="fill:#D9809C;" d="M442.214,303.023c37.464,0,67.834,30.37,67.834,67.834s-30.37,67.834-67.834,67.834h-84.067
	c-23.402,0-42.374-18.971-42.374-42.374l0,0c0-20.484,14.535-37.573,33.854-41.516c-3.888-5.375-6.186-11.975-6.186-19.116
	c0-18.038,14.623-32.661,32.661-32.661L442.214,303.023v0.165"/>
<path style="fill:#D17597;" d="M442.214,438.691c6.707,0,13.181-0.989,19.299-2.802c-78.508-10.182-89.051-112.681-72.533-132.866
	h-12.878c-18.038,0-32.661,14.623-32.661,32.661c0,7.141,2.298,13.741,6.186,19.116c-19.319,3.943-33.854,21.032-33.854,41.516l0,0
	c0,23.402,18.971,42.374,42.374,42.374h84.067V438.691z"/>
<g>
	<path style="fill:#E4A2B7;" d="M226.747,96.035c-31.522-4.626-59.957-16.972-84.523-36.698
		c-24.065-19.324-36.475-39.56-39.704-45.302C95.066,0.785,78.282-3.913,65.031,3.54c-13.25,7.454-17.949,24.238-10.495,37.489
		c4.485,7.973,19.533,32.401,47.449,56.436c3.107,2.676,1.121,7.776-2.978,7.635c-20.068-0.69-40.048-4.594-56.734-13.164
		C28.809,85.02,11.97,90.235,5.025,103.684c-6.975,13.51-1.677,30.116,11.834,37.09c29.982,15.476,62.541,19.567,88.585,19.567
		c6.031,0,11.716-0.219,16.936-0.568c24.628-1.644,49.74-6.932,70.302-14.584c8.49,2.231,17.402,4.072,26.766,5.419
		c1.329,0.191,2.649,0.284,3.953,0.284c13.409,0,25.139-9.809,27.187-23.437C252.843,112.455,241.755,98.238,226.747,96.035z"/>
	<ellipse style="fill:#E4A2B7;" cx="264.37" cy="272.32" rx="221.6" ry="200.93"/>
</g>
<g>
	<path style="fill:#DD8EAB;" d="M316.41,361.087c-4.142,0-7.5-3.358-7.5-7.5v-18.815c0-4.142,3.358-7.5,7.5-7.5s7.5,3.358,7.5,7.5
		v18.815C323.91,357.729,320.552,361.087,316.41,361.087z"/>
	<path style="fill:#DD8EAB;" d="M369.809,361.087c-4.142,0-7.5-3.358-7.5-7.5v-18.815c0-4.142,3.358-7.5,7.5-7.5s7.5,3.358,7.5,7.5
		v18.815C377.309,357.729,373.951,361.087,369.809,361.087z"/>
	<path style="fill:#DD8EAB;" d="M263.01,361.087c-4.142,0-7.5-3.358-7.5-7.5v-18.815c0-4.142,3.358-7.5,7.5-7.5s7.5,3.358,7.5,7.5
		v18.815C270.51,357.729,267.152,361.087,263.01,361.087z"/>
	<path style="fill:#DD8EAB;" d="M289.71,406.045c-4.142,0-7.5-3.358-7.5-7.5V379.73c0-4.142,3.358-7.5,7.5-7.5s7.5,3.358,7.5,7.5
		v18.815C297.21,402.687,293.852,406.045,289.71,406.045z"/>
	<path style="fill:#DD8EAB;" d="M343.109,406.045c-4.142,0-7.5-3.358-7.5-7.5V379.73c0-4.142,3.358-7.5,7.5-7.5s7.5,3.358,7.5,7.5
		v18.815C350.609,402.687,347.251,406.045,343.109,406.045z"/>
</g>
<path style="fill:#B38A82;" d="M316.41,212.323c22.737,0,45.942,9.939,41.17,37.623c-3.244,18.816-20.09,31.714-31.203,38.323
	c-6.148,3.656-13.787,3.656-19.935,0c-11.113-6.609-27.959-19.507-31.203-38.323C270.467,222.262,293.672,212.323,316.41,212.323z"
	/>
<path style="opacity:0.1;enable-background:new    ;" d="M296.842,215.146c-14.449,4.623-24.963,15.309-21.603,34.8
	c3.244,18.816,20.09,31.714,31.203,38.323c6.102,3.629,13.671,3.652,19.796,0.077C303.565,274.66,287.438,231.788,296.842,215.146z"
	/>
<g>
	<ellipse style="fill:#F27281;" cx="215.95" cy="240.84" rx="37.07" ry="29.519"/>
	<ellipse style="fill:#F27281;" cx="416.87" cy="240.84" rx="37.07" ry="29.519"/>
</g>
<g>
	<path style="fill:#464D59;" d="M255.196,216.216c-4.142,0-7.5-3.358-7.5-7.5c0-5.593-4.55-10.143-10.144-10.143
		c-5.593,0-10.144,4.55-10.144,10.143c0,4.142-3.358,7.5-7.5,7.5s-7.5-3.358-7.5-7.5c0-13.864,11.279-25.143,25.144-25.143
		c13.864,0,25.144,11.279,25.144,25.143C262.696,212.858,259.338,216.216,255.196,216.216z"/>
	<path style="fill:#464D59;" d="M412.911,216.216c-4.142,0-7.5-3.358-7.5-7.5c0-5.593-4.55-10.143-10.143-10.143
		s-10.144,4.55-10.144,10.143c0,4.142-3.358,7.5-7.5,7.5s-7.5-3.358-7.5-7.5c0-13.864,11.279-25.143,25.144-25.143
		c13.864,0,25.143,11.279,25.143,25.143C420.411,212.858,417.053,216.216,412.911,216.216z"/>
</g>
<path style="fill:#DD8EAB;" d="M224.42,74.658C121.104,91.714,42.771,173.719,42.771,272.32
	c0,110.968,99.212,200.926,221.597,200.926c48.712,0,93.743-14.263,130.318-38.418C119.119,473.246,117.458,166.554,224.42,74.658z"
	/>
<path style="fill:#D9809C;" d="M128.393,303.023c37.464,0,67.834,30.37,67.834,67.834s-30.37,67.834-67.834,67.834H44.326
	c-23.402,0-42.374-18.971-42.374-42.374l0,0c0-20.484,14.535-37.573,33.854-41.516c-3.888-5.375-6.186-11.975-6.186-19.116
	c0-18.038,14.623-32.661,32.661-32.661L128.393,303.023v0.165"/>
<path style="fill:#D17597;" d="M128.393,438.691c6.707,0,13.18-0.989,19.299-2.802c-78.508-10.182-89.051-112.681-72.533-132.866
	H62.281c-18.038,0-32.661,14.623-32.661,32.661c0,7.141,2.298,13.741,6.186,19.116c-19.319,3.943-33.854,21.032-33.854,41.516l0,0
	c0,23.402,18.971,42.374,42.374,42.374h84.067V438.691z"/>
<g>
</g>
<g>
</g>
<g>
</g>
<g>
</g>
<g>
</g>
<g>
</g>
<g>
</g>
<g>
</g>
<g>
</g>
<g>
</g>
<g>
</g>
<g>
</g>
<g>
</g>
<g>
</g>
<g>
</g>
</svg>
