<?xml version="1.0" encoding="iso-8859-1"?>
<!-- Generator: Adobe Illustrator 19.0.0, SVG Export Plug-In . SVG Version: 6.00 Build 0)  -->
<svg version="1.1" id="Capa_1" xmlns="http://www.w3.org/2000/svg" xmlns:xlink="http://www.w3.org/1999/xlink" x="0px" y="0px"
	 viewBox="0 0 512 512" style="enable-background:new 0 0 512 512;" xml:space="preserve">
<path style="fill:#F5D7B7;" d="M386.172,434.988H19.496c-12.192,0-21.39-11.067-19.162-23.053l0,0
	c8.684-46.701,49.433-80.57,96.934-80.57h288.903L386.172,434.988L386.172,434.988z"/>
<path style="fill:#F2CAA7;" d="M97.268,331.364c-47.501,0-88.25,33.87-96.934,80.57l0,0c-2.229,11.986,6.97,23.053,19.162,23.053
	h304.193c-73.227-11.626-93.372-59.72-82.939-103.624L97.268,331.364L97.268,331.364z"/>
<path style="fill:#B38A82;" d="M345.961,230.167c0,47.579-22.494,90.091-57.785,118.182c-33.049,0-41.175,34.973-101.006,34.973
	c-87.698,0-158.792-68.57-158.792-153.155S99.472,77.012,187.17,77.012S345.961,145.582,345.961,230.167z"/>
<path style="fill:#F5D7B7;" d="M473.406,190.034c1.018-1.856,2.952-3.026,5.069-3.026h0.033c18.497,0,33.492-14.995,33.492-33.492
	c0-19.27-16.273-34.739-35.827-33.413c-16.177,1.097-29.419,13.929-30.994,30.067c-0.493,5.055,0.146,9.902,1.685,14.33
	c0.54,1.555,0.382,3.258-0.45,4.678c-14.304,24.409-21.514,50.016-24.605,70.704c-0.668,4.47-5.049,7.363-9.428,6.244
	c-8.358-2.136-17.144-3.276-26.21-3.276c-8.087,0-15.949,0.91-23.485,2.623c-3.58,0.814-6.854-2.227-6.202-5.839
	c2.642-14.632,7.821-32.315,17.3-49.601c1.017-1.855,2.952-3.025,5.068-3.025h0.034c18.497,0,33.492-14.995,33.492-33.492
	c0-19.268-16.271-34.737-35.823-33.414c-16.178,1.095-29.422,13.927-30.998,30.065c-0.494,5.057,0.146,9.908,1.687,14.337
	c0.539,1.551,0.382,3.25-0.449,4.667c-19.744,33.689-25.976,69.661-26.51,91.83c-0.079,3.286-1.516,6.367-3.943,8.584
	c-19.138,17.484-31.053,42.083-31.053,69.333c0,53.057,45.166,96.069,100.882,96.069s100.882-43.012,100.882-96.069
	c0-26.529-11.293-50.544-29.55-67.928c-2.456-2.339-3.871-5.562-3.796-8.953C454.052,246.514,458.202,217.759,473.406,190.034z"/>
<path style="fill:#464D59;" d="M384.522,165.037c-4.143,0-7.5-3.358-7.5-7.5v-8.084c0-4.142,3.357-7.5,7.5-7.5s7.5,3.358,7.5,7.5
	v8.084C392.022,161.679,388.665,165.037,384.522,165.037z"/>
<g>
	<ellipse style="fill:#F27281;" cx="335.96" cy="303.85" rx="21.344" ry="16.998"/>
	<ellipse style="fill:#F27281;" cx="451.66" cy="303.85" rx="21.344" ry="16.998"/>
</g>
<g>
	<path style="fill:#464D59;" d="M393.811,311.35c-6.757,0-13.181-2.926-17.625-8.026c-2.722-3.123-2.395-7.861,0.728-10.582
		c3.122-2.72,7.861-2.396,10.581,0.727c1.596,1.831,3.898,2.881,6.316,2.881c2.419,0,4.722-1.05,6.318-2.882
		c2.721-3.122,7.46-3.447,10.581-0.726c3.123,2.722,3.447,7.46,0.726,10.582C406.991,308.424,400.567,311.35,393.811,311.35z"/>
	<path style="fill:#464D59;" d="M484.144,165.037c-4.143,0-7.5-3.358-7.5-7.5v-8.084c0-4.142,3.357-7.5,7.5-7.5
		c4.142,0,7.5,3.358,7.5,7.5v8.084C491.644,161.679,488.286,165.037,484.144,165.037z"/>
</g>
<path style="opacity:0.1;enable-background:new    ;" d="M172.602,155.742c-43.902,0-79.619,35.717-79.619,79.62
	c0,4.142,3.357,7.5,7.5,7.5s7.5-3.358,7.5-7.5c0-35.632,28.988-64.62,64.619-64.62c45.573,0,82.65,37.077,82.65,82.65
	c0,58-47.186,105.187-105.188,105.187c-31.34,0-61.567-11.109-85.39-30.948c16.38,19.13,37.488,34.35,61.593,44.014
	c7.82,1.275,15.775,1.934,23.797,1.934c66.271,0,120.188-53.915,120.188-120.187C270.253,199.547,226.447,155.742,172.602,155.742z"
	/>
<path style="opacity:0.1;enable-background:new    ;" d="M254.308,361.501C85.31,331.381,96.733,140.622,144.491,82.615
	C77.522,100.597,28.378,159.844,28.378,230.167c0,84.585,71.093,153.155,158.791,153.155
	C222.076,383.323,239.383,371.42,254.308,361.501z"/>
<g style="opacity:0.1;">
	<circle cx="227.86" cy="131.98" r="7.42"/>
	<circle cx="281.17" cy="149.45" r="7.42"/>
	<circle cx="252" cy="156.87" r="7.42"/>
	<circle cx="110.13" cy="298.4" r="7.42"/>
	<circle cx="68.09" cy="185.98" r="7.42"/>
	<circle cx="133.92" cy="323.94" r="7.42"/>
	<circle cx="154.04" cy="293.72" r="7.42"/>
</g>
<g>
</g>
<g>
</g>
<g>
</g>
<g>
</g>
<g>
</g>
<g>
</g>
<g>
</g>
<g>
</g>
<g>
</g>
<g>
</g>
<g>
</g>
<g>
</g>
<g>
</g>
<g>
</g>
<g>
</g>
</svg>
