<?xml version="1.0" encoding="iso-8859-1"?>
<!-- Generator: Adobe Illustrator 19.0.0, SVG Export Plug-In . SVG Version: 6.00 Build 0)  -->
<svg version="1.1" id="Capa_1" xmlns="http://www.w3.org/2000/svg" xmlns:xlink="http://www.w3.org/1999/xlink" x="0px" y="0px"
	 viewBox="0 0 511.999 511.999" style="enable-background:new 0 0 511.999 511.999;" xml:space="preserve">
<path style="fill:#E4A2B7;" d="M215.331,279.69c-50.013-14.398-66.684-14.398-123.67,39.767
	c-30.513,30.513-37.087,73.41-14.684,95.814c14.073,14.073,36.232,16.696,58.33,9.147c2.468-0.843,5.208,0.287,6.374,2.62
	c7.218,14.436,18.722,24.815,33.167,28.02c30.932,6.862,63.583-21.727,72.928-63.855
	C257.122,349.074,265.345,294.088,215.331,279.69z"/>
<path style="fill:#ABDFEB;" d="M184.142,423.971c-0.802,0-1.568-0.083-2.341-0.255c-6.826-1.514-11.004-9.864-12.484-13.383
	l-9.706-23.091c-1.418-3.372-5.281-4.981-8.673-3.612l-23.228,9.374c-5.594,2.258-11.158,3.451-16.089,3.451
	c-3.677,0-8.734-0.674-11.943-3.883c-7.252-7.252-5.203-30.337,14.417-50.147c34.14-32.411,47.449-38.762,58.872-38.762
	c7.991,0,32.281-9.334,47.028-5.088c8.869,2.553,0.172,18.178,2.052,31.094c2.268,15.589-1.563,36.339-5.61,54.58
	C210.687,410.166,193.987,423.971,184.142,423.971C184.142,423.971,184.143,423.971,184.142,423.971z"/>
<path style="fill:#D9809C;" d="M228.374,306.524c-27.892,36.229-105.856,42.967-162.221-0.428S-16.71,186.36,11.182,150.131
	s110.227-42.46,176.732,2.284C246.933,192.124,256.266,270.295,228.374,306.524z"/>
<g>
	<circle style="fill:#E4A2B7;" cx="162.62" cy="199.779" r="16.977"/>
	<circle style="fill:#E4A2B7;" cx="96.69" cy="265.019" r="16.977"/>
	<circle style="fill:#E4A2B7;" cx="159.14" cy="260.869" r="16.977"/>
</g>
<ellipse transform="matrix(0.3429 -0.9394 0.9394 0.3429 -128.2373 196.1437)" style="fill:#F4CF7A;" cx="76.081" cy="189.733" rx="26.362" ry="32.446"/>
<path style="opacity:0.1;enable-background:new    ;" d="M237.055,291.151c16.106-39.774,2.51-103.984-49.142-138.735
	c-2.338-1.573-4.697-3.076-7.071-4.524c-0.313,2.431-0.511,4.887-0.591,7.361c-0.433,13.384,2.606,26.686,8.788,38.465
	c7.125,13.576,10.891,28.251,10.891,42.44v91.364c-29.802,12.727-72.078,12.203-109.805-6.481
	c-5.682,5.921-10.483,12.273-14.371,18.829c38.589,24.967,84.823,28.653,118.189,16.972c2.926-1.024,5.986,1.117,5.986,4.216v43.291
	c0,15.478,6.137,29.54,16.091,39.914c14.773-11.39,26.691-30.229,31.756-53.062C255.434,356.681,262.33,313.532,237.055,291.151z"/>
<path style="fill:#E4A2B7;" d="M296.669,279.69c50.013-14.398,66.684-14.398,123.67,39.767
	c30.513,30.513,37.087,73.41,14.684,95.814c-14.073,14.073-36.233,16.696-58.33,9.147c-2.468-0.843-5.208,0.287-6.374,2.62
	c-7.218,14.436-18.722,24.815-33.167,28.02c-30.931,6.862-63.583-21.727-72.928-63.855
	C254.878,349.074,246.655,294.088,296.669,279.69z"/>
<path style="fill:#ABDFEB;" d="M327.858,423.971c0.802,0,1.568-0.083,2.341-0.255c6.826-1.514,11.004-9.864,12.484-13.383
	l9.706-23.091c1.418-3.372,5.281-4.981,8.673-3.612l23.228,9.374c5.594,2.258,11.158,3.451,16.089,3.451
	c3.677,0,8.734-0.674,11.943-3.883c7.252-7.252,5.203-30.337-14.417-50.147c-34.141-32.411-47.449-38.762-58.872-38.762
	c-7.991,0-32.281-9.334-47.028-5.088c-8.869,2.553-0.172,18.178-2.052,31.094c-2.268,15.589,1.563,36.339,5.61,54.58
	C301.313,410.166,318.013,423.971,327.858,423.971C327.858,423.971,327.857,423.971,327.858,423.971z"/>
<path style="fill:#D9809C;" d="M283.626,306.524c27.892,36.229,105.856,42.967,162.221-0.428s82.863-119.736,54.971-155.965
	s-110.227-42.46-176.732,2.284C265.067,192.124,255.734,270.295,283.626,306.524z"/>
<g>
	<circle style="fill:#E4A2B7;" cx="349.38" cy="199.779" r="16.977"/>
	<circle style="fill:#E4A2B7;" cx="415.31" cy="265.019" r="16.977"/>
	<circle style="fill:#E4A2B7;" cx="352.86" cy="260.869" r="16.977"/>
</g>
<ellipse transform="matrix(0.3429 0.9394 -0.9394 0.3429 464.67 -284.8055)" style="fill:#F4CF7A;" cx="435.908" cy="189.734" rx="26.362" ry="32.446"/>
<path style="opacity:0.1;enable-background:new    ;" d="M274.945,291.151c-16.106-39.774-2.51-103.984,49.142-138.735
	c2.338-1.573,4.697-3.076,7.071-4.524c0.313,2.431,0.511,4.887,0.591,7.361c0.433,13.384-2.606,26.686-8.788,38.465
	c-7.125,13.576-10.891,28.251-10.891,42.44v91.364c29.802,12.727,72.078,12.203,109.805-6.481
	c5.682,5.921,10.483,12.273,14.371,18.829c-38.589,24.967-84.823,28.653-118.189,16.972c-2.926-1.024-5.986,1.117-5.986,4.216
	v43.291c0,15.478-6.137,29.54-16.091,39.914c-14.773-11.39-26.691-30.229-31.756-53.062
	C256.565,356.681,249.67,313.532,274.945,291.151z"/>
<path style="fill:#F7D88B;" d="M256,100.449c-30.431,0.424-55.527,25.035-56.513,55.453c-0.334,10.306,2.055,20.022,6.5,28.492
	c8.405,16.015,13.189,33.678,13.189,51.765v168.192c0,20.789,16.853,37.641,37.641,37.641l0,0c20.789,0,37.641-16.853,37.641-37.641
	V236.788c0-18.139,4.433-36.012,12.985-52.009c4.297-8.039,6.735-17.22,6.735-26.974C314.179,125.853,288.055,100.002,256,100.449z"
	/>
<g>
	<path style="fill:#464D59;" d="M233.259,128.391c-3.62,0-6.805-2.626-7.396-6.314c-3.47-21.663-20.558-43.414-40.63-51.719
		c-3.827-1.583-5.646-5.97-4.063-9.798c1.584-3.827,5.97-5.646,9.798-4.063c24.958,10.327,45.398,36.319,49.706,63.206
		c0.655,4.09-2.129,7.937-6.219,8.592C234.053,128.36,233.653,128.391,233.259,128.391z"/>
	<path style="fill:#464D59;" d="M280.376,128.391c-0.394,0-0.793-0.031-1.195-0.095c-4.09-0.655-6.874-4.502-6.219-8.592
		c4.307-26.888,24.746-52.879,49.706-63.207c3.827-1.586,8.213,0.236,9.797,4.063c1.584,3.828-0.234,8.214-4.063,9.798
		c-20.072,8.306-37.159,30.057-40.63,51.719C287.182,125.765,283.996,128.391,280.376,128.391z"/>
</g>
<g>
	<rect x="219.18" y="260.869" style="fill:#FFFFFF;" width="75.28" height="36.37"/>
	<rect x="219.18" y="332.849" style="fill:#FFFFFF;" width="75.28" height="36.37"/>
</g>
<g>
</g>
<g>
</g>
<g>
</g>
<g>
</g>
<g>
</g>
<g>
</g>
<g>
</g>
<g>
</g>
<g>
</g>
<g>
</g>
<g>
</g>
<g>
</g>
<g>
</g>
<g>
</g>
<g>
</g>
</svg>
