<?xml version="1.0" encoding="iso-8859-1"?>
<!-- Generator: Adobe Illustrator 19.0.0, SVG Export Plug-In . SVG Version: 6.00 Build 0)  -->
<svg version="1.1" id="Capa_1" xmlns="http://www.w3.org/2000/svg" xmlns:xlink="http://www.w3.org/1999/xlink" x="0px" y="0px"
	 viewBox="0 0 512.001 512.001" style="enable-background:new 0 0 512.001 512.001;" xml:space="preserve">
<g>
	<path style="fill:#E4A2B7;" d="M86.203,442.275C38.671,442.275,0,403.604,0,356.071c0-10.839,8.787-19.626,19.626-19.626
		s19.626,8.787,19.626,19.626c0,25.889,21.062,46.952,46.952,46.952c25.889,0,46.951-21.062,46.951-46.952V177.606
		c0-10.839,8.787-19.626,19.626-19.626s19.626,8.787,19.626,19.626v178.465C172.406,403.604,133.736,442.275,86.203,442.275z"/>
	<path style="fill:#E4A2B7;" d="M425.797,442.275c-47.533,0-86.203-38.671-86.203-86.203V177.606
		c0-10.839,8.787-19.626,19.626-19.626s19.626,8.787,19.626,19.626v178.465c0,25.889,21.062,46.952,46.951,46.952
		c25.889,0,46.952-21.062,46.952-46.952c0-10.839,8.787-19.626,19.626-19.626c10.839,0,19.626,8.787,19.626,19.626
		C512,403.604,473.329,442.275,425.797,442.275z"/>
	<path style="fill:#E4A2B7;" d="M221.593,490.493c-10.839,0-19.626-8.787-19.626-19.626V177.606
		c0-10.839,8.787-19.626,19.626-19.626s19.626,8.787,19.626,19.626v293.262C241.219,481.707,232.432,490.493,221.593,490.493z"/>
	<path style="fill:#E4A2B7;" d="M290.407,490.493c-10.839,0-19.626-8.787-19.626-19.626V177.606
		c0-10.839,8.787-19.626,19.626-19.626s19.626,8.787,19.626,19.626v293.262C310.033,481.707,301.246,490.493,290.407,490.493z"/>
	<path style="fill:#E4A2B7;" d="M405.765,240.072c6.971-17.99,10.803-37.544,10.803-57.996c0-88.679-71.889-160.568-160.568-160.568
		S95.432,93.397,95.432,182.076c0,20.452,3.831,40.006,10.803,57.996H405.765z"/>
</g>
<path style="fill:#D9809C;" d="M408.944,287.276H103.056c-13.035,0-23.602-10.567-23.602-23.602l0,0
	c0-13.035,10.567-23.602,23.602-23.602h305.888c13.035,0,23.602,10.567,23.602,23.602l0,0
	C432.546,276.709,421.979,287.276,408.944,287.276z"/>
<g>
	<rect x="133.15" y="287.271" style="fill:#DD8EAB;" width="39.25" height="27.709"/>
	<rect x="201.97" y="287.271" style="fill:#DD8EAB;" width="39.25" height="27.709"/>
	<rect x="270.78" y="287.271" style="fill:#DD8EAB;" width="39.25" height="27.709"/>
	<rect x="339.59" y="287.271" style="fill:#DD8EAB;" width="39.25" height="27.709"/>
</g>
<g>
	<path style="fill:#464D59;" d="M185.618,145.642c-4.142,0-7.5-3.358-7.5-7.5v-11.88c0-4.142,3.358-7.5,7.5-7.5s7.5,3.358,7.5,7.5
		v11.88C193.118,142.284,189.76,145.642,185.618,145.642z"/>
	<path style="fill:#464D59;" d="M256,167.283L256,167.283c-11.074,0-20.052-8.978-20.052-20.052v-14.578
		c0-3.023,2.451-5.474,5.474-5.474h29.156c3.023,0,5.474,2.451,5.474,5.474v14.578C276.052,158.306,267.074,167.283,256,167.283z"/>
	<path style="fill:#464D59;" d="M326.382,145.642c-4.142,0-7.5-3.358-7.5-7.5v-11.88c0-4.142,3.358-7.5,7.5-7.5s7.5,3.358,7.5,7.5
		v11.88C333.882,142.284,330.524,145.642,326.382,145.642z"/>
</g>
<path style="fill:#DD8EAB;" d="M223.206,24.865c-72.951,15.14-127.774,79.771-127.774,157.211c0,20.452,3.831,40.006,10.803,57.996
	h92.911C128.213,152.119,183.431,55.448,223.206,24.865z"/>
<path style="fill:#D17597;" d="M199.146,240.072h-96.09c-13.035,0-23.602,10.567-23.602,23.602l0,0
	c0,13.035,10.567,23.602,23.602,23.602h98.912C180.793,277.946,188.506,242.246,199.146,240.072z"/>
<path style="opacity:0.1;enable-background:new    ;" d="M114.74,194.363c-6.62,0-12.896,1.222-18.545,3.398
	c1.435,14.782,4.872,28.977,10.04,42.312h51.989c0.709-2.653,1.095-5.408,1.095-8.241
	C159.319,211.138,139.36,194.363,114.74,194.363z M168.792,47.241c-8.245,5.343-15.968,11.421-23.078,18.143
	c-0.105,0.811-0.174,1.631-0.174,2.468c0,11.407,9.997,20.654,22.33,20.654c12.332,0,22.33-9.247,22.33-20.654
	C190.199,56.733,180.693,47.692,168.792,47.241z M313.647,210.329c-18.274,0-33.223,13.128-34.448,29.743h68.896
	C346.87,223.458,331.92,210.329,313.647,210.329z M286.095,24.337c-2.749,4.866-4.292,10.306-4.292,16.051
	c0,20.693,19.959,37.468,44.579,37.468c14.987,0,28.237-6.223,36.319-15.755C341.458,43.195,315.165,29.85,286.095,24.337z"/>
<g>
</g>
<g>
</g>
<g>
</g>
<g>
</g>
<g>
</g>
<g>
</g>
<g>
</g>
<g>
</g>
<g>
</g>
<g>
</g>
<g>
</g>
<g>
</g>
<g>
</g>
<g>
</g>
<g>
</g>
</svg>
