<?xml version="1.0" encoding="iso-8859-1"?>
<!-- Generator: Adobe Illustrator 19.0.0, SVG Export Plug-In . SVG Version: 6.00 Build 0)  -->
<svg version="1.1" id="Capa_1" xmlns="http://www.w3.org/2000/svg" xmlns:xlink="http://www.w3.org/1999/xlink" x="0px" y="0px"
	 viewBox="0 0 512 512" style="enable-background:new 0 0 512 512;" xml:space="preserve">
<path style="fill:#C1C4C7;" d="M188.682,205.171c-15.569-65.055-100.088-95.295-145.06-95.295l-0.004-0.003
	c-22.125-0.05-40.784,12.95-43.328,31.364c-1.332,9.647,1.996,19.061,8.53,26.696c-5.803,7.202-8.711,15.924-7.461,24.85
	c1.339,9.564,7.201,17.593,15.654,22.953c-3.85,7.16-5.183,15.15-3.216,22.942c4.159,16.479,21.71,26.75,41.595,25.699
	c6.395-0.338,12.696,2.083,17.069,6.761C114.908,316.547,203.441,266.839,188.682,205.171z"/>
<path style="opacity:0.1;enable-background:new    ;" d="M188.682,205.171c-15.569-65.055-100.088-95.295-145.06-95.295
	l-0.004-0.003c-22.125-0.05-40.784,12.95-43.328,31.364c-1.332,9.647,1.996,19.061,8.53,26.696
	c-5.803,7.202-8.711,15.924-7.461,24.85c1.339,9.564,7.201,17.593,15.654,22.953c-3.85,7.16-5.183,15.15-3.216,22.942
	c4.159,16.479,21.71,26.75,41.595,25.699c6.395-0.338,12.696,2.083,17.069,6.761C114.908,316.547,203.441,266.839,188.682,205.171z"
	/>
<ellipse transform="matrix(0.3079 -0.9514 0.9514 0.3079 -125.6811 249.9762)" style="fill:#F5D7B7;" cx="108.98" cy="211.374" rx="41.289" ry="58.269"/>
<path style="fill:#C1C4C7;" d="M323.318,205.171c15.569-65.055,100.088-95.295,145.06-95.295l0.004-0.003
	c22.124-0.05,40.784,12.95,43.328,31.364c1.333,9.647-1.996,19.061-8.53,26.696c5.803,7.202,8.711,15.924,7.461,24.85
	c-1.339,9.564-7.201,17.593-15.654,22.953c3.85,7.16,5.183,15.15,3.216,22.942c-4.159,16.479-21.71,26.75-41.595,25.699
	c-6.395-0.338-12.696,2.083-17.069,6.761C397.092,316.547,308.559,266.839,323.318,205.171z"/>
<path style="opacity:0.1;enable-background:new    ;" d="M323.318,205.171c15.569-65.055,100.088-95.295,145.06-95.295l0.004-0.003
	c22.124-0.05,40.784,12.95,43.328,31.364c1.333,9.647-1.996,19.061-8.53,26.696c5.803,7.202,8.711,15.924,7.461,24.85
	c-1.339,9.564-7.201,17.593-15.654,22.953c3.85,7.16,5.183,15.15,3.216,22.942c-4.159,16.479-21.71,26.75-41.595,25.699
	c-6.395-0.338-12.696,2.083-17.069,6.761C397.092,316.547,308.559,266.839,323.318,205.171z"/>
<ellipse transform="matrix(0.3079 0.9514 -0.9514 0.3079 480.0428 -237.146)" style="fill:#F5D7B7;" cx="403.023" cy="211.383" rx="41.289" ry="58.269"/>
<path style="fill:#C1C4C7;" d="M425.586,262.345c0-84.208-75.926-152.473-169.586-152.473S86.414,178.136,86.414,262.345
	c0,84.208,75.926,139.783,169.586,139.783S425.586,346.553,425.586,262.345z"/>
<g>
	<ellipse style="fill:#E4A2B7;" cx="155.47" cy="253.56" rx="35.827" ry="28.531"/>
	<ellipse style="fill:#E4A2B7;" cx="356.53" cy="253.56" rx="35.827" ry="28.531"/>
</g>
<g>
	<path style="fill:#464D59;" d="M256,312.502c-9.253,0-18.053-4.007-24.142-10.995c-2.722-3.122-2.395-7.86,0.727-10.582
		c3.122-2.721,7.859-2.397,10.582,0.727c3.239,3.717,7.917,5.85,12.833,5.85s9.594-2.132,12.833-5.85
		c2.722-3.124,7.457-3.448,10.582-0.727c3.122,2.721,3.448,7.459,0.727,10.582C274.053,308.495,265.253,312.502,256,312.502z"/>
	<path style="fill:#464D59;" d="M256,275.483c12.082,0,25.849-13.542,27.409-35.779c1.515-21.598-12.271-29.299-27.409-29.299
		s-28.924,7.701-27.409,29.299C230.151,261.941,243.918,275.483,256,275.483z"/>
	<path style="fill:#464D59;" d="M193.973,235.366c-4.143,0-7.5-3.358-7.5-7.5c0-5.581-4.541-10.122-10.122-10.122
		s-10.122,4.541-10.122,10.122c0,4.142-3.357,7.5-7.5,7.5s-7.5-3.358-7.5-7.5c0-13.852,11.27-25.122,25.122-25.122
		c13.852,0,25.122,11.27,25.122,25.122C201.473,232.008,198.115,235.366,193.973,235.366z"/>
	<path style="fill:#464D59;" d="M353.271,235.366c-4.143,0-7.5-3.358-7.5-7.5c0-5.581-4.541-10.122-10.122-10.122
		c-5.581,0-10.122,4.541-10.122,10.122c0,4.142-3.357,7.5-7.5,7.5s-7.5-3.358-7.5-7.5c0-13.852,11.27-25.122,25.122-25.122
		c13.853,0,25.122,11.27,25.122,25.122C360.771,232.008,357.414,235.366,353.271,235.366z"/>
</g>
<path style="opacity:0.05;enable-background:new    ;" d="M194.531,120.204C131.26,142.338,86.414,197.63,86.414,262.345
	c0,84.208,75.926,139.784,169.586,139.784c7.711,0,15.298-0.384,22.736-1.123C87.944,341.585,138.96,175.281,194.531,120.204z"/>
<g>
</g>
<g>
</g>
<g>
</g>
<g>
</g>
<g>
</g>
<g>
</g>
<g>
</g>
<g>
</g>
<g>
</g>
<g>
</g>
<g>
</g>
<g>
</g>
<g>
</g>
<g>
</g>
<g>
</g>
</svg>
