<?xml version="1.0" encoding="iso-8859-1"?>
<!-- Generator: Adobe Illustrator 19.0.0, SVG Export Plug-In . SVG Version: 6.00 Build 0)  -->
<svg version="1.1" id="Capa_1" xmlns="http://www.w3.org/2000/svg" xmlns:xlink="http://www.w3.org/1999/xlink" x="0px" y="0px"
	 viewBox="0 0 512 512" style="enable-background:new 0 0 512 512;" xml:space="preserve">
<path style="fill:#67C787;" d="M256,203.114c-141.385,0-256,56.449-256,126.081c0,69.633,114.615,126.082,256,126.082
	c34.227,0,66.879-3.314,96.721-9.318c5.387-1.084,8.374-6.881,6.09-11.878l-16.591-36.31c-1.433-3.137,1.421-6.531,4.757-5.656
	l82.642,21.652c7.257,1.901,14.966,0.828,21.458-2.931C489.069,388.838,512,360.337,512,329.195
	C512,259.562,397.385,203.114,256,203.114z"/>
<path style="opacity:0.1;enable-background:new    ;" d="M456.752,250.959C409.861,221.813,337.368,203.114,256,203.114
	c-92.877,0-174.199,24.36-219.07,60.814c15.749,74.572,97.136,122.534,208.882,122.534c112.195,0,215.285-57.267,210.475-131.611
	C456.202,253.54,456.61,252.254,456.752,250.959z"/>
<path style="opacity:0.1;enable-background:new    ;" d="M215.033,414.088c-0.955,0-1.925-0.184-2.862-0.571
	c-3.828-1.582-5.648-5.969-4.066-9.796l37.662-91.102c1.583-3.828,5.97-5.647,9.796-4.066c3.828,1.583,5.648,5.969,4.066,9.796
	l-37.662,91.102C220.772,412.342,217.978,414.088,215.033,414.088z"/>
<g>
	<path style="fill:#EAC268;" d="M77.462,359.399c-7.627,0-14.989-4.15-18.743-11.388c-5.363-10.342-1.326-23.072,9.015-28.435
		l56.95-29.53c10.344-5.363,23.073-1.326,28.434,9.015c5.363,10.342,1.326,23.072-9.015,28.435l-56.95,29.53
		C84.05,358.636,80.731,359.399,77.462,359.399z"/>
	<path style="fill:#EAC268;" d="M434.538,359.399c-3.27,0-6.588-0.763-9.692-2.373l-56.95-29.53
		c-10.341-5.362-14.378-18.092-9.015-28.435c5.363-10.34,18.093-14.379,28.435-9.015l56.95,29.53
		c10.341,5.362,14.378,18.092,9.015,28.435C449.528,355.249,442.165,359.399,434.538,359.399z"/>
</g>
<path style="opacity:0.05;enable-background:new    ;" d="M153.119,299.062c-5.361-10.341-18.091-14.378-28.434-9.015
	l-49.354,25.591c8.042,8.052,17.026,15.551,26.902,22.382c3.118,2.157,6.311,4.227,9.561,6.23l32.31-16.754
	C154.445,322.134,158.482,309.404,153.119,299.062z"/>
<path style="opacity:0.05;enable-background:new    ;" d="M387.315,290.047c-10.341-5.363-23.072-1.325-28.435,9.015
	c-5.363,10.342-1.326,23.072,9.015,28.435l32.31,16.754c3.249-2.003,6.443-4.074,9.561-6.23c9.876-6.831,18.86-14.33,26.902-22.382
	L387.315,290.047z"/>
<path style="fill:#F7D88B;" d="M394.108,94.038c-2.996-1.363-5.274-3.996-5.994-7.208c-3.863-17.231-19.247-30.107-37.643-30.107
	c-11.639,0-22.074,5.154-29.149,13.304c-1.916,2.207-4.746,3.411-7.649,3.068c-16.313-1.927-33.966-2.95-53.026-2.95
	s-36.712,1.023-53.026,2.95c-2.903,0.343-5.733-0.86-7.649-3.068c-7.075-8.15-17.509-13.304-29.149-13.304
	c-18.397,0-33.78,12.876-37.643,30.107c-0.72,3.212-2.998,5.845-5.994,7.208C66.26,121.756,42.841,170.54,50.172,223.979
	c10.829,78.937,94.233,141.103,210.475,141.103s199.646-62.166,210.475-141.103C478.453,170.54,455.034,121.756,394.108,94.038z"/>
<g>
	<path style="fill:#F4CF7A;" d="M146.694,94.711c0.379-10.563,4.391-28.082,17.624-36.561c-15.431,2.621-27.74,14.403-31.138,29.556
		c-0.72,3.213-2.999,5.845-5.996,7.209c-60.924,27.719-84.343,76.501-77.012,129.94C60.92,303.2,143.164,365.014,258.044,365.936
		C76.825,311.698,82.46,142.619,142.456,102.289C145.001,100.578,146.584,97.776,146.694,94.711z"/>
	<path style="fill:#F4CF7A;" d="M256,265.011c-47.858,0-87.512,37.036-94.599,85.411c27.871,9.948,59.758,15.538,94.599,15.538
		s66.728-5.59,94.599-15.538C343.512,302.046,303.858,265.011,256,265.011z"/>
</g>
<g>
	<ellipse style="fill:#F27281;" cx="160.27" cy="156.38" rx="35.32" ry="28.13"/>
	<ellipse style="fill:#F27281;" cx="351.73" cy="156.38" rx="35.32" ry="28.13"/>
</g>
<g>
	<path style="fill:#464D59;" d="M166.177,130.671c-4.142,0-7.5-3.358-7.5-7.5V108.01c0-4.142,3.358-7.5,7.5-7.5s7.5,3.358,7.5,7.5
		v15.161C173.677,127.314,170.319,130.671,166.177,130.671z"/>
	<path style="fill:#464D59;" d="M256,160.363L256,160.363c-14.134,0-25.591-11.457-25.591-25.591v-18.605
		c0-3.858,3.128-6.986,6.986-6.986h37.21c3.858,0,6.986,3.128,6.986,6.986v18.605C281.591,148.906,270.133,160.363,256,160.363z"/>
	<path style="fill:#464D59;" d="M345.823,130.671c-4.142,0-7.5-3.358-7.5-7.5V108.01c0-4.142,3.358-7.5,7.5-7.5s7.5,3.358,7.5,7.5
		v15.161C353.323,127.314,349.965,130.671,345.823,130.671z"/>
</g>
<g>
	<path style="fill:#EAC268;" d="M173.724,387.052c-11.649,0-21.093-9.443-21.093-21.093v-81.428
		c0-11.649,9.443-21.093,21.093-21.093c11.649,0,21.093,9.443,21.093,21.093v81.428
		C194.817,377.609,185.374,387.052,173.724,387.052z"/>
	<path style="fill:#EAC268;" d="M338.275,387.052c-11.649,0-21.093-9.443-21.093-21.093v-81.428
		c0-11.649,9.443-21.093,21.093-21.093s21.093,9.443,21.093,21.093v81.428C359.368,377.609,349.925,387.052,338.275,387.052z"/>
</g>
<g>
</g>
<g>
</g>
<g>
</g>
<g>
</g>
<g>
</g>
<g>
</g>
<g>
</g>
<g>
</g>
<g>
</g>
<g>
</g>
<g>
</g>
<g>
</g>
<g>
</g>
<g>
</g>
<g>
</g>
</svg>
