<?xml version="1.0" encoding="iso-8859-1"?>
<!-- Generator: Adobe Illustrator 19.0.0, SVG Export Plug-In . SVG Version: 6.00 Build 0)  -->
<svg version="1.1" id="Capa_1" xmlns="http://www.w3.org/2000/svg" xmlns:xlink="http://www.w3.org/1999/xlink" x="0px" y="0px"
	 viewBox="0 0 511.999 511.999" style="enable-background:new 0 0 511.999 511.999;" xml:space="preserve">
<path style="fill:#67C787;" d="M130.773,30.811c-10.454-0.937-19.227,7.837-18.291,18.291c2.112,23.571,10.503,64.649,42.029,96.175
	c24.055,24.055,63.951,31.52,83.953,11.518s12.537-59.899-11.518-83.953C195.421,41.314,154.343,32.923,130.773,30.811z"/>
<path style="opacity:0.1;enable-background:new    ;" d="M207.559,133.388c-1.92,0-3.839-0.732-5.303-2.197l-46.989-46.989
	c-2.929-2.929-2.929-7.678,0-10.606c2.929-2.929,7.678-2.929,10.606,0l46.989,46.989c2.929,2.929,2.929,7.678,0,10.607
	C211.398,132.656,209.479,133.388,207.559,133.388z"/>
<path style="fill:#B38A82;" d="M256,186.526c-12.735,0-23.058-10.323-23.058-23.058c0-0.933-0.01-2.018-0.02-3.244
	c-0.197-23.47-0.795-94.892,43.949-151.469c7.9-9.988,22.401-11.681,32.389-3.782s11.682,22.4,3.782,32.389
	c-34.665,43.833-34.169,103.025-34.006,122.476c0.012,1.372,0.021,2.587,0.021,3.631C279.058,176.202,268.735,186.526,256,186.526z"
	/>
<path style="opacity:0.1;enable-background:new    ;" d="M280.12,128.721c-15.037,4.872-31.228,5.069-46.358,0.586
	c-0.985,13.306-0.897,24.123-0.84,30.916c0.01,1.226,0.02,2.311,0.02,3.244c0,12.735,10.323,23.058,23.058,23.058
	c12.735,0,23.058-10.323,23.058-23.058c0-1.044-0.01-2.258-0.021-3.631C278.982,153.279,278.891,142.201,280.12,128.721z"/>
<path style="fill:#F27281;" d="M359.687,129.697c-23.359,0-45.233,6.349-63.995,17.415c-24.453,14.423-54.931,14.423-79.384,0
	c-18.761-11.066-40.636-17.415-63.995-17.415c-69.685,0-126.176,56.491-126.176,126.176c0,74.784,68.793,256.126,178.535,256.126
	c16.373,0,32.452-6.411,43.503-12.105c4.902-2.526,10.747-2.526,15.649,0c11.052,5.694,27.13,12.105,43.503,12.105
	c109.742,0,178.535-181.342,178.535-256.126C485.863,186.187,429.372,129.697,359.687,129.697z"/>
<path style="fill:#EA6376;" d="M171.936,131.231c-6.396-0.999-12.946-1.535-19.622-1.535c-69.685,0-126.176,56.491-126.176,126.176
	c-0.001,74.785,68.792,256.127,178.534,256.127c14.953,0,29.648-5.347,40.505-10.612
	C135.657,413.93,111.011,218.318,171.936,131.231z"/>
<path style="fill:#67C787;" d="M381.228,30.811c10.454-0.937,19.227,7.837,18.291,18.291c-2.112,23.571-10.503,64.649-42.029,96.175
	c-24.055,24.055-63.951,31.52-83.953,11.518S261,96.896,285.054,72.842C316.579,41.314,357.657,32.923,381.228,30.811z"/>
<path style="opacity:0.1;enable-background:new    ;" d="M304.441,133.388c-1.919,0-3.839-0.732-5.303-2.197
	c-2.929-2.929-2.929-7.678,0-10.607l46.989-46.989c2.929-2.929,7.678-2.929,10.606,0c2.929,2.929,2.929,7.678,0,10.606
	l-46.989,46.989C308.28,132.656,306.36,133.388,304.441,133.388z"/>
<g>
	<ellipse style="fill:#E4A2B7;" cx="165.11" cy="295.459" rx="33.538" ry="26.708"/>
	<ellipse style="fill:#E4A2B7;" cx="346.89" cy="295.459" rx="33.538" ry="26.708"/>
</g>
<g>
	<path style="fill:#464D59;" d="M200.616,273.893c-4.142,0-7.5-3.358-7.5-7.5c0-4.667-3.797-8.463-8.463-8.463
		c-4.667,0-8.463,3.797-8.463,8.463c0,4.142-3.358,7.5-7.5,7.5s-7.5-3.358-7.5-7.5c0-12.938,10.525-23.463,23.463-23.463
		s23.463,10.525,23.463,23.463C208.116,270.535,204.758,273.893,200.616,273.893z"/>
	<path style="fill:#464D59;" d="M343.311,273.893c-4.142,0-7.5-3.358-7.5-7.5c0-4.667-3.797-8.463-8.463-8.463
		s-8.463,3.797-8.463,8.463c0,4.142-3.358,7.5-7.5,7.5s-7.5-3.358-7.5-7.5c0-12.938,10.525-23.463,23.463-23.463
		c12.938,0,23.463,10.525,23.463,23.463C350.811,270.535,347.453,273.893,343.311,273.893z"/>
	<path style="fill:#464D59;" d="M256,300.266c-8.658,0-16.891-3.749-22.587-10.287c-2.721-3.123-2.396-7.86,0.727-10.582
		c3.123-2.721,7.86-2.396,10.582,0.727c2.848,3.268,6.958,5.142,11.279,5.142c4.32,0,8.431-1.874,11.279-5.142
		c2.721-3.123,7.46-3.448,10.582-0.727c3.123,2.721,3.448,7.459,0.727,10.582C272.891,296.516,264.658,300.266,256,300.266z"/>
</g>
<g>
</g>
<g>
</g>
<g>
</g>
<g>
</g>
<g>
</g>
<g>
</g>
<g>
</g>
<g>
</g>
<g>
</g>
<g>
</g>
<g>
</g>
<g>
</g>
<g>
</g>
<g>
</g>
<g>
</g>
</svg>
