<?xml version="1.0" encoding="iso-8859-1"?>
<!-- Generator: Adobe Illustrator 19.0.0, SVG Export Plug-In . SVG Version: 6.00 Build 0)  -->
<svg version="1.1" id="Capa_1" xmlns="http://www.w3.org/2000/svg" xmlns:xlink="http://www.w3.org/1999/xlink" x="0px" y="0px"
	 viewBox="0 0 512 512" style="enable-background:new 0 0 512 512;" xml:space="preserve">
<g>
	<path style="fill:#F5D7B7;" d="M225.605,218.121L211.59,57.927c-1.181-13.514-13.107-23.508-26.61-22.329
		c-13.514,1.182-23.511,13.097-22.328,26.61l4.28,48.922l-8.279-0.684c-9.992-0.825-19.332-4.667-27.012-11.111l-31.488-26.422
		c-10.392-8.721-25.885-7.364-34.606,3.027c-8.72,10.392-7.363,25.885,3.028,34.605l31.488,26.422
		c15.508,13.013,34.371,20.772,54.546,22.438l16.667,1.377l5.391,61.62c1.118,12.787,11.842,22.424,24.441,22.424
		c0.716,0,1.441-0.031,2.168-0.095C216.79,243.549,226.787,231.635,225.605,218.121z"/>
	<path style="fill:#F5D7B7;" d="M446.453,75.94c-8.721-10.391-24.212-11.748-34.606-3.027l-31.488,26.421
		c-7.68,6.445-17.02,10.287-27.013,11.112l-8.278,0.684l4.28-48.921c1.182-13.514-8.815-25.428-22.328-26.61
		c-13.52-1.183-25.427,8.815-26.61,22.329l-14.015,160.194c-1.182,13.514,8.815,25.428,22.328,26.61
		c0.728,0.064,1.451,0.095,2.168,0.095c12.598,0,23.323-9.638,24.441-22.424l5.391-61.62l16.665-1.377
		c20.176-1.666,39.038-9.425,54.547-22.439l31.488-26.422C453.817,101.826,455.173,86.332,446.453,75.94z"/>
</g>
<path style="fill:#B38A82;" d="M0,179.224c-0.014-9.052,7.338-16.404,16.39-16.39c21.434,0.033,61.656,5.493,96.774,40.61
	c31.216,31.216,33.557,61.024,30.737,79.339c-1.902,12.354-11.598,22.05-23.952,23.952c-18.315,2.819-48.123,0.479-79.339-30.737
	C5.493,240.88,0.034,200.657,0,179.224z"/>
<path style="fill:#F2CAA7;" d="M2.639,205.494c4.16,20.967,14.354,46.885,37.971,70.503c26.541,26.541,52.059,32.203,70.365,31.573
	C98.184,213.244,33.157,205.557,2.639,205.494z"/>
<path style="fill:#B38A82;" d="M512,179.224c0.014-9.052-7.338-16.404-16.39-16.39c-21.434,0.033-61.656,5.493-96.774,40.61
	c-31.216,31.216-33.556,61.024-30.737,79.339c1.902,12.354,11.598,22.05,23.952,23.952c18.315,2.819,48.123,0.479,79.339-30.737
	C506.507,240.88,511.967,200.657,512,179.224z"/>
<g>
	<path style="fill:#F2CAA7;" d="M509.361,205.494c-4.16,20.967-14.354,46.885-37.971,70.503
		c-26.541,26.541-52.059,32.203-70.365,31.573C413.817,213.244,478.843,205.557,509.361,205.494z"/>
	<path style="fill:#F2CAA7;" d="M308.724,244.731c0.728,0.063,1.451,0.095,2.168,0.095c12.598,0,23.323-9.638,24.441-22.424
		l4.599-52.563c-15.015-4.955-31.212-8.467-48.396-10.483l-5.141,58.765C285.213,231.635,295.21,243.549,308.724,244.731z"/>
	<path style="fill:#F2CAA7;" d="M176.666,222.402c1.118,12.787,11.842,22.424,24.441,22.424c0.716,0,1.441-0.031,2.168-0.095
		c13.514-1.182,23.511-13.096,22.328-26.61l-5.141-58.765c-17.184,2.016-33.381,5.528-48.396,10.483L176.666,222.402z"/>
</g>
<path style="fill:#B38A82;" d="M431.946,320.745c0-97.172-78.774-143.414-175.946-143.414S80.054,223.573,80.054,320.745
	S158.828,476.495,256,476.495S431.946,417.917,431.946,320.745z"/>
<g>
	<ellipse style="fill:#F27281;" cx="157.01" cy="332.919" rx="35.28" ry="28.09"/>
	<ellipse style="fill:#F27281;" cx="354.99" cy="332.919" rx="35.28" ry="28.09"/>
</g>
<g>
	<path style="fill:#464D59;" d="M177.57,312.394c-4.143,0-7.5-3.358-7.5-7.5v-12.458c0-4.142,3.357-7.5,7.5-7.5s7.5,3.358,7.5,7.5
		v12.458C185.07,309.036,181.713,312.394,177.57,312.394z"/>
	<path style="fill:#464D59;" d="M334.43,312.394c-4.143,0-7.5-3.358-7.5-7.5v-12.458c0-4.142,3.357-7.5,7.5-7.5s7.5,3.358,7.5,7.5
		v12.458C341.93,309.036,338.572,312.394,334.43,312.394z"/>
	<path style="fill:#464D59;" d="M256,383.863c-9.146,0-17.841-3.96-23.858-10.866c-2.722-3.123-2.395-7.86,0.728-10.582
		c3.122-2.721,7.86-2.396,10.581,0.727c3.168,3.636,7.742,5.721,12.55,5.721c4.808,0,9.382-2.085,12.55-5.721
		c2.721-3.124,7.458-3.449,10.581-0.727c3.123,2.721,3.449,7.458,0.728,10.582C273.841,379.902,265.146,383.863,256,383.863z"/>
	<path style="fill:#464D59;" d="M256,347.847c14.302,0,30.598-9.092,32.445-24.023c1.794-14.501-14.526-22.311-32.445-22.311
		s-34.239,7.809-32.445,22.311C225.402,338.755,241.698,347.847,256,347.847z"/>
</g>
<path style="opacity:0.1;enable-background:new    ;" d="M183.42,187.261c-60.962,18.314-103.366,62.191-103.366,133.485
	c0,97.172,78.774,155.75,175.946,155.75c27.166,0,52.891-4.582,75.862-13.302C130.499,445.654,125.576,256.555,183.42,187.261z"/>
<g>
</g>
<g>
</g>
<g>
</g>
<g>
</g>
<g>
</g>
<g>
</g>
<g>
</g>
<g>
</g>
<g>
</g>
<g>
</g>
<g>
</g>
<g>
</g>
<g>
</g>
<g>
</g>
<g>
</g>
</svg>
