<?xml version="1.0" encoding="iso-8859-1"?>
<!-- Generator: Adobe Illustrator 19.0.0, SVG Export Plug-In . SVG Version: 6.00 Build 0)  -->
<svg xmlns="http://www.w3.org/2000/svg" xmlns:xlink="http://www.w3.org/1999/xlink" version="1.1" id="Capa_1" x="0px" y="0px" viewBox="0 0 511.98 511.98" style="enable-background:new 0 0 511.98 511.98;" xml:space="preserve">
<path id="SVGCleanerId_0" style="fill:#DFE3E5;" d="M445.513,511.98H66.468c-13.443,0-24.341-10.898-24.341-24.341V254.715h427.725  v232.924C469.853,501.082,458.956,511.98,445.513,511.98z"/>
<g>
	<path id="SVGCleanerId_0_1_" style="fill:#DFE3E5;" d="M445.513,511.98H66.468c-13.443,0-24.341-10.898-24.341-24.341V254.715   h427.725v232.924C469.853,501.082,458.956,511.98,445.513,511.98z"/>
</g>
<path style="opacity:0.15;enable-background:new    ;" d="M221.215,409.486L42.128,254.715h427.725l-177.92,154.668  C271.667,427.002,241.532,427.045,221.215,409.486z"/>
<path style="fill:#FDB876;" d="M221.215,99.945L42.128,254.715h427.725l-177.92-154.668  C271.667,82.429,241.532,82.385,221.215,99.945z"/>
<path style="opacity:0.1;enable-background:new    ;" d="M216.31,351.535L45.176,499.433c2.493,4.49,6.364,8.107,11.042,10.283  l169.9-146.832c3.134-2.709,3.479-7.445,0.77-10.579C224.18,349.172,219.445,348.828,216.31,351.535z M296.854,351.652  c-3.128-2.717-7.862-2.388-10.581,0.739c-2.718,3.126-2.387,7.863,0.739,10.581L455.799,509.7  c4.672-2.182,8.536-5.802,11.022-10.294L296.854,351.652z"/>
<path style="fill:#FFFFFF;" d="M370.885,225.527H141.097c-5.527,0-10.008,4.481-10.008,10.008v96.062l90.126,77.889  c20.318,17.559,50.452,17.515,70.719-0.103l88.96-77.334v-96.514C380.893,230.008,376.413,225.527,370.885,225.527z"/>
<path style="fill:#4A5058;" d="M256.411,360.006c-0.934,0-1.884-0.176-2.804-0.547c-3.841-1.55-5.698-5.921-4.148-9.762  l66.518-164.842c1.549-3.84,5.916-5.701,9.762-4.148c3.841,1.55,5.698,5.921,4.148,9.762l-66.519,164.842  C262.191,358.232,259.381,360.006,256.411,360.006z"/>
<path style="fill:#80CBDE;" d="M325.796,171.426l-24.276,22.093c-2.669,2.43-1.384,6.866,2.17,7.493l32.759,5.776  c3.555,0.627,6.279-3.103,4.602-6.298L325.796,171.426z"/>
<path style="opacity:0.1;enable-background:new    ;" d="M325.796,171.426l-14.621,13.307c3.795,1.229,7.718,2.217,11.758,2.93  c4.041,0.713,8.065,1.126,12.051,1.268L325.796,171.426z"/>
<circle style="fill:#80CBDE;" cx="339.54" cy="93.47" r="86.62"/>
<path style="opacity:0.1;enable-background:new    ;" d="M402.725,34.209c8.179,16.136,11.393,34.96,8.01,54.147  c-8.307,47.113-53.234,78.571-100.347,70.264c-19.187-3.383-35.777-12.841-48.142-26.046c11.904,23.485,34.329,41.276,62.254,46.2  c47.113,8.307,92.04-23.151,100.347-70.264C429.772,80.585,420.723,53.428,402.725,34.209z"/>
<path style="fill:#4A5058;" d="M256.415,360.004c-4.143,0-7.5-3.357-7.5-7.5V209.04c0-4.143,3.357-7.5,7.5-7.5s7.5,3.357,7.5,7.5  v143.465C263.915,356.647,260.557,360.004,256.415,360.004z"/>
<path style="fill:#E8618C;" d="M256.414,192.552l-20.07,25.973c-2.207,2.856-0.171,7.002,3.438,7.002h33.264  c3.609,0,5.645-4.146,3.438-7.002L256.414,192.552z"/>
<path style="opacity:0.1;enable-background:new    ;" d="M256.414,192.552l-12.089,15.644c3.951,0.552,7.986,0.844,12.089,0.844  s8.137-0.292,12.088-0.844L256.414,192.552z"/>
<circle style="fill:#E8618C;" cx="256.411" cy="113.39" r="86.62"/>
<path style="opacity:0.1;enable-background:new    ;" d="M308.348,44.061c10.857,14.471,17.29,32.451,17.29,51.934  c0,47.84-38.782,86.621-86.621,86.621c-19.483,0-37.463-6.434-51.934-17.29c15.802,21.061,40.975,34.688,69.331,34.688  c47.84,0,86.621-38.782,86.621-86.621C343.036,85.036,329.409,59.863,308.348,44.061z"/>
<path style="fill:#4A5058;" d="M256.417,360.006c-2.995,0-5.824-1.806-6.983-4.763l-67.366-171.694  c-1.514-3.855,0.386-8.208,4.242-9.721c3.856-1.516,8.209,0.386,9.721,4.242l67.366,171.694c1.514,3.855-0.386,8.208-4.242,9.721  C258.255,359.839,257.328,360.006,256.417,360.006z"/>
<path style="fill:#FFE584;" d="M186.186,164.573l-15.255,29.064c-1.677,3.196,1.047,6.925,4.602,6.298l32.759-5.776  c3.555-0.627,4.84-5.063,2.17-7.493L186.186,164.573z"/>
<path style="opacity:0.1;enable-background:new    ;" d="M186.186,164.573l-9.188,17.505c3.987-0.143,8.011-0.556,12.051-1.268  c4.041-0.712,7.963-1.7,11.758-2.93L186.186,164.573z"/>
<circle style="fill:#FFE584;" cx="172.441" cy="86.62" r="86.62"/>
<path style="opacity:0.1;enable-background:new    ;" d="M211.545,9.32c13.205,12.366,22.663,28.955,26.046,48.142  c8.307,47.113-23.151,92.04-70.264,100.347c-19.187,3.383-38.011,0.17-54.147-8.01c19.219,17.997,46.376,27.046,74.301,22.122  c47.113-8.307,78.571-53.234,70.264-100.347C252.821,43.649,235.03,21.224,211.545,9.32z"/>
<g>
</g>
<g>
</g>
<g>
</g>
<g>
</g>
<g>
</g>
<g>
</g>
<g>
</g>
<g>
</g>
<g>
</g>
<g>
</g>
<g>
</g>
<g>
</g>
<g>
</g>
<g>
</g>
<g>
</g>
</svg>
