<?xml version="1.0" encoding="iso-8859-1"?>
<!-- Generator: Adobe Illustrator 19.0.0, SVG Export Plug-In . SVG Version: 6.00 Build 0)  -->
<svg xmlns="http://www.w3.org/2000/svg" xmlns:xlink="http://www.w3.org/1999/xlink" version="1.1" id="Capa_1" x="0px" y="0px" viewBox="0 0 512.001 512.001" style="enable-background:new 0 0 512.001 512.001;" xml:space="preserve">
<path style="fill:#80CBDE;" d="M52.768,234.257C13.897,195.385-19.699,107.814,13.592,74.523s120.862,0.305,159.734,39.177  c32.6,32.6,41.027,78.998,23.266,112.761l191.375,169.643c16.117,14.287,16.867,39.201,1.637,54.431s-40.143,14.481-54.431-1.637  L165.529,257.523C131.767,275.284,85.369,266.857,52.768,234.257z"/>
<polygon style="opacity:0.1;enable-background:new    ;" points="271.31,292.694 229.534,329.726 265.486,370.284 306.563,323.944   "/>
<path style="opacity:0.1;enable-background:new    ;" d="M72.936,201.272c21.734,21.734,54.441,24.263,73.055,5.65  c18.613-18.613,16.084-51.321-5.65-73.055S69.646,93.35,51.032,111.963C32.419,130.576,51.203,179.538,72.936,201.272z"/>
<path style="fill:#FDB876;" d="M416.553,53.984L416.553,53.984c6.194,6.194,6.194,16.236,0,22.43l-70.711,70.711  c-6.344,6.344-6.344,16.628,0,22.972l0,0c6.344,6.344,16.628,6.344,22.972,0l70.711-70.711c6.194-6.194,16.236-6.194,22.429,0l0,0  c6.194,6.194,6.194,16.236,0,22.429l-70.711,70.711c-6.343,6.343-6.343,16.628,0,22.972l0,0c6.344,6.343,16.628,6.343,22.972,0  l70.395-70.395c6.039-6.038,15.875-6.594,22.191-0.846c6.743,6.137,6.928,16.585,0.555,22.959l-82.197,82.197  c-30.619,30.619-74.198,38.534-105.909,21.852L160.362,450.506c-13.396,15.112-36.908,16.428-51.325,2.286  c-14.558-14.281-13.933-37.871,1.291-51.367L290.074,242.09c-16.682-31.711-8.767-75.29,21.852-105.909l82.197-82.197  C400.317,47.791,410.359,47.791,416.553,53.984z"/>
<g>
</g>
<g>
</g>
<g>
</g>
<g>
</g>
<g>
</g>
<g>
</g>
<g>
</g>
<g>
</g>
<g>
</g>
<g>
</g>
<g>
</g>
<g>
</g>
<g>
</g>
<g>
</g>
<g>
</g>
</svg>
