<?xml version="1.0" encoding="iso-8859-1"?>
<!-- Generator: Adobe Illustrator 19.0.0, SVG Export Plug-In . SVG Version: 6.00 Build 0)  -->
<svg xmlns="http://www.w3.org/2000/svg" xmlns:xlink="http://www.w3.org/1999/xlink" version="1.1" id="Capa_1" x="0px" y="0px" viewBox="0 0 511.999 511.999" style="enable-background:new 0 0 511.999 511.999;" xml:space="preserve">
<path style="fill:#DFE3E5;" d="M156.194,256.247h-92.79c-8.473,0-15.341-6.868-15.341-15.341s6.868-15.341,15.341-15.341h92.79  c8.473,0,15.341,6.868,15.341,15.341S164.667,256.247,156.194,256.247z"/>
<circle style="fill:#4A5058;" cx="57.019" cy="240.907" r="31.23"/>
<g>
	<path style="fill:#DFE3E5;" d="M164.61,485.097c-2.28,0-4.597-0.409-6.852-1.273c-9.891-3.786-14.839-14.875-11.053-24.765   l66.4-173.433c3.787-9.892,14.874-14.844,24.766-11.052c9.891,3.786,14.839,14.875,11.052,24.765l-66.4,173.433   C179.6,480.407,172.325,485.097,164.61,485.097z"/>
	<path style="fill:#DFE3E5;" d="M409.849,511.999c2.28,0,4.597-0.409,6.852-1.273c9.891-3.786,14.839-14.875,11.053-24.765   l-66.4-173.433c-3.787-9.892-14.874-14.844-24.766-11.052c-9.891,3.786-14.839,14.875-11.052,24.765l66.4,173.433   C394.86,507.308,402.134,511.999,409.849,511.999z"/>
</g>
<path style="opacity:0.1;enable-background:new    ;" d="M237.87,274.574c-9.892-3.791-20.979,1.16-24.766,11.052l-22.225,58.051  c10.332,7.729,21.624,14.246,33.664,19.34l24.38-63.679C252.709,289.448,247.76,278.36,237.87,274.574z"/>
<path style="opacity:0.1;enable-background:new    ;" d="M361.355,312.527c-3.787-9.892-14.874-14.844-24.766-11.052  c-9.891,3.786-14.839,14.875-11.052,24.765l15.409,40.246c12.254-4.336,23.824-10.111,34.511-17.126L361.355,312.527z"/>
<path style="fill:#E8618C;" d="M126.22,188.891c0,88.923,72.087,161.01,161.01,161.01s161.01-72.087,161.01-161.01H126.22z"/>
<path style="opacity:0.1;enable-background:new    ;" d="M170.896,300.2c29.311,30.626,70.594,49.702,116.334,49.702  c45.74,0,87.022-19.075,116.334-49.702H170.896z"/>
<path style="fill:#4A5058;" d="M458.721,188.891H115.738c-15.181,0-27.488-12.307-27.488-27.488l0,0  c0-15.181,12.307-27.488,27.488-27.488h342.983c15.181,0,27.488,12.307,27.488,27.488l0,0  C486.209,176.585,473.902,188.891,458.721,188.891z"/>
<path style="opacity:0.1;enable-background:new    ;" d="M458.721,133.916h-37.035c15.181,0,27.488,12.307,27.488,27.488l0,0  c0,15.181-12.307,27.488-27.488,27.488h37.035c15.181,0,27.488-12.307,27.488-27.488l0,0  C486.209,146.222,473.903,133.916,458.721,133.916z"/>
<circle style="fill:#4A5058;" cx="164.619" cy="465.916" r="46.08"/>
<g>
	<circle style="fill:#DFE3E5;" cx="164.619" cy="465.916" r="19.79"/>
	<path style="fill:#DFE3E5;" d="M246.376,79.209c-1.54,0-3.093-0.473-4.43-1.453c-3.34-2.45-4.062-7.144-1.612-10.483   c5.391-7.35,4.292-17.428-2.555-23.444c-11.478-10.084-14.389-26.498-7.08-39.915c1.982-3.638,6.538-4.979,10.174-2.998   c3.638,1.981,4.98,6.536,2.998,10.174c-3.932,7.218-2.366,16.047,3.808,21.472c12.729,11.184,14.771,29.921,4.751,43.583   C250.96,78.147,248.683,79.209,246.376,79.209z"/>
	<path style="fill:#DFE3E5;" d="M290.877,79.209c-1.54,0-3.093-0.473-4.43-1.453c-3.34-2.45-4.062-7.144-1.612-10.483   c5.39-7.349,4.291-17.428-2.556-23.444C270.8,33.745,267.889,17.331,275.2,3.914c1.982-3.637,6.539-4.978,10.175-2.997   c3.637,1.982,4.978,6.537,2.997,10.175c-3.933,7.217-2.367,16.046,3.808,21.47c12.729,11.186,14.771,29.922,4.751,43.584   C295.461,78.146,293.185,79.209,290.877,79.209z"/>
	<path style="fill:#DFE3E5;" d="M335.377,79.209c-1.54,0-3.093-0.473-4.43-1.453c-3.34-2.45-4.062-7.144-1.612-10.483   c5.391-7.35,4.292-17.428-2.555-23.444c-11.479-10.084-14.39-26.498-7.08-39.915c1.98-3.638,6.534-4.982,10.174-2.998   c3.638,1.981,4.979,6.536,2.998,10.174c-3.932,7.218-2.366,16.047,3.809,21.471c12.729,11.185,14.77,29.922,4.75,43.584   C339.961,78.146,337.685,79.209,335.377,79.209z"/>
</g>
<path style="opacity:0.1;enable-background:new    ;" d="M126.22,188.891c0,10.119,0.943,20.017,2.729,29.618h290.294  c-21.189,64.176-81.637,110.492-152.912,110.492c-39.141,0-75.015-13.971-102.919-37.192  c29.535,35.493,74.036,58.091,123.818,58.091c88.923,0,161.01-72.087,161.01-161.01H126.22V188.891z"/>
<g>
	<path style="fill:#4A5058;" d="M226.746,252.176c-4.142,0-7.5-3.357-7.5-7.5v-10.041c0-4.143,3.358-7.5,7.5-7.5   c4.142,0,7.5,3.357,7.5,7.5v10.041C234.246,248.819,230.888,252.176,226.746,252.176z"/>
	<path style="fill:#4A5058;" d="M347.714,252.176c-4.142,0-7.5-3.357-7.5-7.5v-10.041c0-4.143,3.358-7.5,7.5-7.5   c4.143,0,7.5,3.357,7.5,7.5v10.041C355.214,248.819,351.857,252.176,347.714,252.176z"/>
	<path style="fill:#4A5058;" d="M287.23,259.885c-8.28,0-16.153-3.586-21.601-9.838c-2.722-3.122-2.396-7.86,0.727-10.581   c3.122-2.721,7.861-2.396,10.581,0.728c2.599,2.981,6.35,4.691,10.292,4.691c3.941,0,7.693-1.71,10.292-4.692   c2.722-3.123,7.459-3.448,10.582-0.727c3.123,2.722,3.447,7.46,0.727,10.582C303.381,256.3,295.508,259.885,287.23,259.885z"/>
</g>
<path style="fill:#F98CAE;" d="M361.231,98.001H213.229c-6.642,0-12.027,5.384-12.027,12.026v11.862  c0,6.642,5.384,12.026,12.027,12.026h148.002c6.642,0,12.026-5.384,12.026-12.026v-11.862  C373.257,103.385,367.873,98.001,361.231,98.001z"/>
<path style="opacity:0.1;enable-background:new    ;" d="M361.231,98.001h-25.544c6.642,0,12.026,5.384,12.026,12.026v11.862  c0,6.642-5.384,12.027-12.026,12.027h25.544c6.642,0,12.026-5.384,12.026-12.027v-11.862  C373.257,103.385,367.873,98.001,361.231,98.001z"/>
<g>
</g>
<g>
</g>
<g>
</g>
<g>
</g>
<g>
</g>
<g>
</g>
<g>
</g>
<g>
</g>
<g>
</g>
<g>
</g>
<g>
</g>
<g>
</g>
<g>
</g>
<g>
</g>
<g>
</g>
</svg>
