<?xml version="1.0" encoding="iso-8859-1"?>
<!-- Generator: Adobe Illustrator 19.0.0, SVG Export Plug-In . SVG Version: 6.00 Build 0)  -->
<svg xmlns="http://www.w3.org/2000/svg" xmlns:xlink="http://www.w3.org/1999/xlink" version="1.1" id="Capa_1" x="0px" y="0px" viewBox="0 0 512.001 512.001" style="enable-background:new 0 0 512.001 512.001;" xml:space="preserve">
<path style="fill:#7CD1A9;" d="M451.469,0H60.531c-7.124,0-12.899,5.775-12.899,12.899v486.203c0,7.124,5.775,12.899,12.899,12.899  H451.47c7.124,0,12.899-5.775,12.899-12.899V12.899C464.368,5.775,458.593,0,451.469,0z"/>
<path style="opacity:0.1;enable-background:new    ;" d="M451.469,0h-35.366c7.124,0,12.899,5.775,12.899,12.899v486.203  c0,7.124-5.775,12.899-12.899,12.899h35.366c7.124,0,12.899-5.775,12.899-12.899V12.899C464.368,5.775,458.593,0,451.469,0z"/>
<path style="fill:#FFFFFF;" d="M393.656,52.928H118.344c-9.822,0-17.784,7.962-17.784,17.784v275.312  c0,9.822,7.962,17.784,17.784,17.784h275.312c9.822,0,17.784-7.962,17.784-17.784V70.712  C411.44,60.89,403.478,52.928,393.656,52.928z"/>
<path style="fill:#FFE584;" d="M254.91,152.101c-67.157,0-121.599,54.442-121.599,121.599c0,35.731,15.412,67.861,39.95,90.109  h163.296c24.538-22.248,39.95-54.378,39.95-90.109C376.509,206.542,322.068,152.101,254.91,152.101z"/>
<path style="opacity:0.1;enable-background:new    ;" d="M254.91,152.101c-28.963,0-55.556,10.132-76.442,27.038  c3.836,11.33,7.596,21.146,10.594,26.386c17.672,27.789,80.715,55.492,168.289,34.444c1.056,6.439,1.611,13.046,1.611,19.784  c0,44.115-23.493,82.742-58.65,104.056h36.247c24.538-22.247,39.951-54.378,39.951-90.109  C376.509,206.542,322.068,152.101,254.91,152.101z"/>
<g>
	<path style="fill:#4A5058;" d="M208.353,299.553c-4.142,0-7.5-3.357-7.5-7.5v-10.04c0-4.143,3.358-7.5,7.5-7.5s7.5,3.357,7.5,7.5   v10.04C215.853,296.195,212.495,299.553,208.353,299.553z"/>
	<path style="fill:#4A5058;" d="M329.321,299.553c-4.142,0-7.5-3.357-7.5-7.5v-10.04c0-4.143,3.358-7.5,7.5-7.5s7.5,3.357,7.5,7.5   v10.04C336.821,296.195,333.463,299.553,329.321,299.553z"/>
	<path style="fill:#4A5058;" d="M268.836,307.263c-8.278,0-16.151-3.585-21.6-9.837c-2.722-3.122-2.397-7.859,0.726-10.581   c3.123-2.723,7.86-2.398,10.582,0.726c2.6,2.981,6.351,4.692,10.292,4.692c3.941,0,7.693-1.711,10.293-4.692   c2.722-3.123,7.46-3.447,10.582-0.726c3.123,2.722,3.447,7.459,0.726,10.581C284.987,303.678,277.114,307.263,268.836,307.263z"/>
	<path style="fill:#4A5058;" d="M254.91,152.101c-54.492,0-100.61,35.845-116.068,85.242c23.618,10.785,51.199-9.793,50.22-31.818   c12.877,30.662,163.614,49.745,204.255-12.195c1.122-1.711-0.076-4.001-2.122-4.031   C361.879,188.878,319.724,152.101,254.91,152.101z"/>
</g>
<path style="fill:#FFE584;" d="M305.491,180.189H204.33c-5.664,0-9.429-5.859-7.075-11.011L247.85,58.435  c2.764-6.049,11.358-6.049,14.122,0l50.595,110.744C314.919,174.33,311.155,180.189,305.491,180.189z"/>
<path style="fill:#80CBDE;" d="M235.346,135.659c-1.919,0-3.839-0.732-5.303-2.196c-2.929-2.93-2.929-7.678,0-10.607l5.635-5.635  c2.929-2.928,7.678-2.928,10.607,0c2.929,2.93,2.929,7.678,0,10.607l-5.635,5.635C239.185,134.927,237.265,135.659,235.346,135.659z  "/>
<path style="fill:#F98CAE;" d="M269.256,139.955c-1.138,0-2.293-0.261-3.379-0.809c-3.696-1.87-5.177-6.382-3.308-10.078  l3.596-7.111c1.869-3.697,6.38-5.175,10.078-3.309c3.696,1.87,5.177,6.382,3.308,10.078l-3.596,7.111  C274.635,138.449,271.995,139.955,269.256,139.955z"/>
<path style="fill:#FFFFFF;" d="M260.287,117.302c-1.919,0-3.838-0.732-5.303-2.196l-5.377-5.376  c-2.929-2.929-2.93-7.678-0.001-10.606c2.929-2.93,7.678-2.931,10.606-0.001l5.377,5.376c2.929,2.929,2.93,7.678,0.001,10.606  C264.126,116.569,262.207,117.302,260.287,117.302z"/>
<path style="fill:#E8618C;" d="M312.566,169.179l-8.788-19.236h-97.734l-8.788,19.236c-2.354,5.152,1.411,11.011,7.075,11.011  h101.161C311.155,180.189,314.919,174.33,312.566,169.179z"/>
<path style="opacity:0.1;enable-background:new    ;" d="M312.566,169.179L261.971,58.435c-2.764-6.049-11.358-6.049-14.122,0  L232.5,92.031c2.008,1.748,4.652,2.759,7.496,2.649c2.822-0.109,5.574,0.893,7.665,2.79c4.112,3.731,10.384,3.731,14.496,0l0,0  c0.722-0.655,1.526-1.195,2.381-1.627l33.504,73.336c2.353,5.151-1.411,11.011-7.075,11.011h14.522  C311.155,180.189,314.919,174.33,312.566,169.179z"/>
<path style="fill:#E8618C;" d="M287.525,54.161L287.525,54.161c-0.25-0.397-0.463-0.812-0.657-1.234h-63.915  c-0.195,0.422-0.407,0.836-0.657,1.234c-2.96,4.698-1.871,10.874,2.517,14.276l0,0c2.232,1.73,3.696,4.267,4.079,7.064  c0.752,5.501,5.557,9.533,11.105,9.318l0,0c2.822-0.109,5.574,0.893,7.665,2.79c4.112,3.731,10.384,3.731,14.496,0  c2.091-1.898,4.844-2.899,7.665-2.79l0,0c5.548,0.215,10.353-3.817,11.105-9.318c0.382-2.798,1.847-5.334,4.079-7.064  C289.396,65.035,290.485,58.859,287.525,54.161z"/>
<g>
</g>
<g>
</g>
<g>
</g>
<g>
</g>
<g>
</g>
<g>
</g>
<g>
</g>
<g>
</g>
<g>
</g>
<g>
</g>
<g>
</g>
<g>
</g>
<g>
</g>
<g>
</g>
<g>
</g>
</svg>
