<?xml version="1.0" encoding="iso-8859-1"?>
<!-- Generator: Adobe Illustrator 19.0.0, SVG Export Plug-In . SVG Version: 6.00 Build 0)  -->
<svg xmlns="http://www.w3.org/2000/svg" xmlns:xlink="http://www.w3.org/1999/xlink" version="1.1" id="Capa_1" x="0px" y="0px" viewBox="0 0 512 512" style="enable-background:new 0 0 512 512;" xml:space="preserve">
<path style="fill:#FDB876;" d="M389.144,442.635c30.507,0,55.326-24.819,55.326-55.325V219.157  c39.26-11.597,66.637-48.191,66.637-89.158c0-47.682-35.757-87.425-83.174-92.447c-8.432-0.893-17.005-1.345-25.483-1.345  c-23.038,0-45.929,3.283-68.036,9.758c-14.494,4.245-29.501,6.398-44.605,6.398S68.51,82.316,68.51,129.998  c0,40.967,27.379,77.562,66.637,89.158v168.153c0,30.507,24.819,55.325,55.326,55.325h198.671V442.635z"/>
<path style="opacity:0.1;enable-background:new    ;" d="M389.144,442.635c30.507,0,55.326-24.819,55.326-55.325V219.157  c39.26-11.597,66.637-48.191,66.637-89.158c0-47.682-35.757-87.425-83.174-92.447c-8.432-0.893-17.005-1.345-25.483-1.345  c-23.038,0-45.929,3.283-68.036,9.758c-14.494,4.245-29.501,6.398-44.605,6.398S68.51,82.316,68.51,129.998  c0,40.967,27.379,77.562,66.637,89.158v168.153c0,30.507,24.819,55.325,55.326,55.325h198.671V442.635z"/>
<path style="fill:#E8618C;" d="M404.422,83.842l79.664,39.042c38.201,18.722,36.998,74.311-2.417,90.321  c-0.563,0.229-1.133,0.449-1.708,0.661l0,0c-25.789,9.505-36.859,39.902-23.223,63.765l27.01,47.268  c13.903,24.33-3.665,54.602-31.687,54.602l0,0c-17.108,0-32.142,11.346-36.834,27.798l-9.934,34.835  c-9.495,33.294-50.819,44.797-76.151,21.198l-47.134-43.911c-8.686-8.092-21.816-9.093-31.628-2.413l-66.859,45.521  c-25.104,17.092-59.199-0.186-60.26-30.538l-2.009-57.473c-0.343-9.821-6.318-18.564-15.343-22.453l-44.771-19.292  c-28.296-12.193-32.695-50.487-7.9-68.778l22.939-16.923c17.314-12.773,11.916-39.938-8.966-45.12l-23.875-5.925  c-32.725-8.122-51.308-42.699-40.024-74.473l0,0c10.172-28.641,37.626-47.478,68.009-46.662L404.422,83.842z"/>
<path style="opacity:0.1;enable-background:new    ;" d="M87.092,75.317l317.331,8.525l79.664,39.042  c4.108,2.013,7.757,4.455,10.955,7.226c0.953,5.352,1.466,10.852,1.466,16.468c0,36.983-22.311,70.403-55.535,85.084  c-6.727,2.973-11.102,9.591-11.102,16.945v137.985c-6.916,4.918-12.192,12.114-14.643,20.707l-9.934,34.834  c-1.071,3.757-2.566,7.22-4.38,10.403c-7.839,4.258-16.822,6.676-26.37,6.676h-49.822l-42.714-39.793  c-8.686-8.092-21.816-9.093-31.628-2.412l-61.99,42.206h-12.518c-25.088,0-46.264-16.704-53.043-39.594l-1.577-45.102  c-0.061-1.739-0.307-3.441-0.706-5.091v-133.69c-14.216-4.199-26.861-11.688-37.226-21.463c-1.954-3.569-4.779-6.699-8.401-9.015  c-13.221-16.232-21.011-36.832-21.011-58.679C53.91,118.08,66.69,92.425,87.092,75.317z"/>
<path style="fill:#FDB876;" d="M355.314,442.635c30.556,0,55.326-24.77,55.326-55.326V224.998c0-3.376,2.09-6.42,5.264-7.57  c36.422-13.194,61.372-48.318,61.372-87.428c0-47.682-35.757-87.425-83.174-92.447c-8.432-0.893-17.005-1.345-25.483-1.345  c-23.038,0-45.929,3.283-68.036,9.758c-14.494,4.245-29.501,6.398-44.605,6.398c-15.104,0-30.111-2.153-44.605-6.398  c-22.107-6.475-44.998-9.758-68.036-9.758c-8.478,0-17.051,0.452-25.482,1.345C70.436,42.575,34.679,82.318,34.679,130  c0,39.11,24.953,74.235,61.373,87.428c3.174,1.15,5.264,4.194,5.264,7.57V387.31c0,30.555,24.77,55.325,55.325,55.325  L355.314,442.635L355.314,442.635z"/>
<path style="fill:#FFE584;" d="M126.964,387.31V218.692c0-11.139-7.362-20.938-18.061-24.039l0,0  c-28.776-8.34-48.576-34.694-48.576-64.654l0,0c0-34.433,25.986-63.315,60.228-66.941l0,0c28.094-2.974,56.498-0.419,83.609,7.522  l0,0c33.832,9.909,69.796,9.909,103.628,0l0,0c27.112-7.941,55.516-10.496,83.609-7.522l0,0  c34.242,3.625,60.228,32.507,60.228,66.941l0,0c0,29.96-19.801,56.314-48.576,64.654l0,0c-10.699,3.101-18.061,12.9-18.061,24.039  v168.617c0,16.391-13.287,29.678-29.678,29.678H156.642C140.251,416.988,126.964,403.7,126.964,387.31z"/>
<g>
	<path style="fill:#4A5058;" d="M335.955,157.318c-4.142,0-7.5-3.357-7.5-7.5v-13.276c0-4.143,3.358-7.5,7.5-7.5s7.5,3.357,7.5,7.5   v13.276C343.455,153.961,340.097,157.318,335.955,157.318z"/>
	<path style="fill:#4A5058;" d="M176.001,157.318c-4.142,0-7.5-3.357-7.5-7.5v-13.276c0-4.143,3.358-7.5,7.5-7.5s7.5,3.357,7.5,7.5   v13.276C183.501,153.961,180.143,157.318,176.001,157.318z"/>
	<path style="fill:#4A5058;" d="M234.892,159.976c0,12.647,10.477,22.847,23.226,22.394c12.143-0.432,21.591-10.781,21.591-22.931   v-15.762c0-3.375-2.736-6.11-6.11-6.11h-32.597c-3.374,0-6.11,2.735-6.11,6.11L234.892,159.976L234.892,159.976z"/>
</g>
<g style="opacity:0.1;">
	<circle cx="328.95" cy="248.471" r="7.528"/>
	<circle cx="256.5" cy="385.181" r="7.528"/>
	<circle cx="189.9" cy="339.411" r="7.528"/>
	<circle cx="161.47" cy="267.801" r="7.528"/>
	<circle cx="280.23" cy="297.011" r="7.528"/>
	<circle cx="350.58" cy="366.491" r="7.528"/>
</g>
<g>
</g>
<g>
</g>
<g>
</g>
<g>
</g>
<g>
</g>
<g>
</g>
<g>
</g>
<g>
</g>
<g>
</g>
<g>
</g>
<g>
</g>
<g>
</g>
<g>
</g>
<g>
</g>
<g>
</g>
</svg>
