<?xml version="1.0" encoding="iso-8859-1"?>
<!-- Generator: Adobe Illustrator 19.0.0, SVG Export Plug-In . SVG Version: 6.00 Build 0)  -->
<svg xmlns="http://www.w3.org/2000/svg" xmlns:xlink="http://www.w3.org/1999/xlink" version="1.1" id="Capa_1" x="0px" y="0px" viewBox="0 0 512 512" style="enable-background:new 0 0 512 512;" xml:space="preserve">
<path style="fill:#4A5058;" d="M155.151,225.897c-4.143,0-7.5-3.357-7.5-7.5v-94.571c0-4.143,3.357-7.5,7.5-7.5s7.5,3.357,7.5,7.5  v94.571C162.651,222.539,159.294,225.897,155.151,225.897z"/>
<path style="fill:#F98CAE;" d="M187.68,199.777h-65.057c-18.11,0-32.792,14.682-32.792,32.792v246.639  c0,18.111,14.681,32.792,32.792,32.792h65.057c18.111,0,32.792-14.681,32.792-32.792V232.569  C220.472,214.458,205.79,199.777,187.68,199.777z"/>
<path style="fill:#E8618C;" d="M187.68,199.777h-65.057c-18.11,0-32.792,14.682-32.792,32.792v104.336l124.051-124.051  C207.898,204.912,198.389,199.777,187.68,199.777z M89.831,431.785v47.423c0,18.111,14.681,32.792,32.792,32.792h6.87l90.979-90.979  V301.145L89.831,431.785z"/>
<path style="opacity:0.1;enable-background:new    ;" d="M187.68,199.777h-65.057c-18.11,0-32.792,14.681-32.792,32.792v44.473  c3.234,1.705,6.913,2.68,10.823,2.68h48.512c12.846,0,23.26,10.414,23.26,23.26v34.354c0,11.687,6.634,21.818,16.337,26.852v115.02  c0,18.11-14.681,32.792-32.792,32.792h31.708c18.111,0,32.792-14.681,32.792-32.792V232.569  C220.472,214.458,205.79,199.777,187.68,199.777z"/>
<path style="fill:#E8618C;" d="M203.405,96.367c0-21.774-12.665-64.911-39.366-91.287c-8.875-8.767-23.841-5.757-28.734,5.719  c-15.422,36.166-26.308,58.211-28.197,79.155c-2.549,28.257,18.414,53.99,46.777,54.693  C181.117,145.321,203.405,123.447,203.405,96.367z"/>
<path style="fill:#F98CAE;" d="M77.395,218.32v14.229c0,12.846,10.414,23.26,23.26,23.26h48.512c12.846,0,23.26,10.414,23.26,23.26  v34.354c0,16.702,13.539,30.241,30.241,30.241l0,0c16.702,0,30.241-13.539,30.241-30.241V218.32c0-12.846-10.414-23.26-23.26-23.26  H100.654C87.809,195.061,77.395,205.475,77.395,218.32z"/>
<path style="opacity:0.4;fill:#FFFFFF;enable-background:new    ;" d="M77.395,218.32v14.229c0,12.846,10.414,23.26,23.26,23.26  h48.512c12.846,0,23.26,10.414,23.26,23.26v34.354c0,16.702,13.539,30.241,30.241,30.241l0,0c16.702,0,30.241-13.539,30.241-30.241  V218.32c0-12.846-10.414-23.26-23.26-23.26H100.654C87.809,195.061,77.395,205.475,77.395,218.32z"/>
<path style="fill:#4A5058;" d="M356.849,270.897c-4.142,0-7.5-3.357-7.5-7.5v-94.571c0-4.143,3.358-7.5,7.5-7.5  c4.143,0,7.5,3.357,7.5,7.5v94.571C364.349,267.539,360.991,270.897,356.849,270.897z"/>
<path style="fill:#F98CAE;" d="M389.377,244.777H324.32c-18.111,0-32.792,14.682-32.792,32.792v201.639  c0,18.111,14.682,32.792,32.792,32.792h65.057c18.11,0,32.792-14.681,32.792-32.792V277.569  C422.169,259.458,407.487,244.777,389.377,244.777z"/>
<path style="fill:#E8618C;" d="M389.377,244.777H324.32c-18.111,0-32.792,14.682-32.792,32.792v77.063l108.183-108.184  C396.461,245.37,392.989,244.777,389.377,244.777z M291.528,449.513v29.695c0,18.111,14.682,32.792,32.792,32.792h24.597  l73.252-73.251V318.872L291.528,449.513z"/>
<path style="opacity:0.1;enable-background:new    ;" d="M389.377,244.777H324.32c-18.111,0-32.792,14.681-32.792,32.792v44.473  c3.234,1.705,6.913,2.68,10.823,2.68h48.512c12.846,0,23.259,10.414,23.259,23.26v34.354c0,11.687,6.634,21.818,16.337,26.852v70.02  c0,18.11-14.681,32.792-32.792,32.792h31.708c18.111,0,32.792-14.681,32.792-32.792V277.569  C422.169,259.458,407.488,244.777,389.377,244.777z"/>
<path style="fill:#E8618C;" d="M405.102,141.367c0-21.774-12.665-64.911-39.366-91.287c-8.875-8.767-23.841-5.757-28.734,5.718  c-15.422,36.166-26.308,58.211-28.197,79.155c-2.549,28.257,18.414,53.99,46.777,54.693  C382.814,190.321,405.102,168.447,405.102,141.367z"/>
<path style="fill:#F98CAE;" d="M279.092,263.32v14.229c0,12.846,10.414,23.26,23.26,23.26h48.512  c12.846,0,23.26,10.414,23.26,23.259v34.354c0,16.702,13.539,30.241,30.241,30.241l0,0c16.702,0,30.241-13.539,30.241-30.241V263.32  c0-12.846-10.414-23.26-23.26-23.26H302.352C289.506,240.061,279.092,250.475,279.092,263.32z"/>
<path style="opacity:0.4;fill:#FFFFFF;enable-background:new    ;" d="M279.092,263.32v14.229c0,12.846,10.414,23.26,23.26,23.26  h48.512c12.846,0,23.26,10.414,23.26,23.259v34.354c0,16.702,13.539,30.241,30.241,30.241l0,0c16.702,0,30.241-13.539,30.241-30.241  V263.32c0-12.846-10.414-23.26-23.26-23.26H302.352C289.506,240.061,279.092,250.475,279.092,263.32z"/>
<g>
</g>
<g>
</g>
<g>
</g>
<g>
</g>
<g>
</g>
<g>
</g>
<g>
</g>
<g>
</g>
<g>
</g>
<g>
</g>
<g>
</g>
<g>
</g>
<g>
</g>
<g>
</g>
<g>
</g>
</svg>
