<?xml version="1.0" encoding="iso-8859-1"?>
<!-- Generator: Adobe Illustrator 19.0.0, SVG Export Plug-In . SVG Version: 6.00 Build 0)  -->
<svg xmlns="http://www.w3.org/2000/svg" xmlns:xlink="http://www.w3.org/1999/xlink" version="1.1" id="Capa_1" x="0px" y="0px" viewBox="0 0 512 512" style="enable-background:new 0 0 512 512;" xml:space="preserve">
<circle style="fill:#FDB876;" cx="256" cy="256" r="256"/>
<path style="opacity:0.15;enable-background:new    ;" d="M427.706,66.129c41.095,45.414,66.129,105.635,66.129,171.706  c0,141.385-114.615,256-256,256c-66.071,0-126.292-25.034-171.706-66.129C112.973,479.473,180.686,512,256,512  c141.385,0,256-114.615,256-256C512,180.686,479.473,112.973,427.706,66.129z"/>
<circle style="fill:#FFE584;" cx="256" cy="256" r="208.2"/>
<path style="opacity:0.15;enable-background:new    ;" d="M256,47.803C141.016,47.803,47.802,141.016,47.802,256  c0,60.622,25.917,115.184,67.266,153.233c-34.121-37.08-54.964-86.568-54.964-140.931c0-114.984,93.213-208.198,208.198-208.198  c54.363,0,103.851,20.844,140.931,54.965C371.184,73.72,316.622,47.803,256,47.803z"/>
<g>
	<circle style="fill:#E8618C;" cx="358.49" cy="178.28" r="47.12"/>
	<circle style="fill:#E8618C;" cx="157.79" cy="319.39" r="47.12"/>
	<circle style="fill:#E8618C;" cx="336.63" cy="359.12" r="47.12"/>
	<circle style="fill:#E8618C;" cx="178.98" cy="145.64" r="47.12"/>
</g>
<g style="opacity:0.1;">
	<circle cx="334.71" cy="39.48" r="7.684"/>
	<circle cx="477.4" cy="200" r="7.684"/>
	<circle cx="383.75" cy="55.49" r="7.684"/>
	<circle cx="55.49" cy="134.74" r="7.684"/>
	<circle cx="25.662" cy="207.69" r="7.684"/>
	<circle cx="44.06" cy="170.59" r="7.684"/>
	<circle cx="199.98" cy="477.18" r="7.684"/>
	<circle cx="382.75" cy="446.88" r="7.684"/>
	<circle cx="409.4" cy="433.63" r="7.684"/>
	<circle cx="51.741" cy="359.12" r="7.684"/>
</g>
<path style="fill:#7CD1A9;" d="M125.15,193.772c16.124,5.869,26.593,20.852,31.686,29.949c2.232,3.987,0.388,9.053-3.884,10.673  c-9.749,3.695-27.4,8.443-43.524,2.575c-16.124-5.869-26.593-20.852-31.687-29.949c-2.232-3.987-0.388-9.053,3.884-10.673  C91.374,192.652,109.026,187.904,125.15,193.772z"/>
<path style="opacity:0.1;enable-background:new    ;" d="M130.074,227.525c-0.852,0-1.718-0.146-2.564-0.454l-25.571-9.307  c-3.893-1.417-5.899-5.721-4.483-9.613c1.417-3.892,5.72-5.896,9.613-4.482l25.571,9.307c3.893,1.417,5.899,5.721,4.483,9.613  C136.014,225.634,133.137,227.525,130.074,227.525z"/>
<path style="fill:#7CD1A9;" d="M319.356,122.902c6.793-14.568,3.803-31.428,1.151-40.828c-1.162-4.12-5.74-6.254-9.643-4.496  c-8.905,4.01-23.743,12.557-30.536,27.125s-3.803,31.428-1.151,40.828c1.162,4.12,5.74,6.254,9.643,4.497  C297.725,146.017,312.563,137.47,319.356,122.902z"/>
<path style="opacity:0.1;enable-background:new    ;" d="M294.451,132.856c-1.062,0-2.14-0.227-3.165-0.705  c-3.754-1.75-5.378-6.213-3.627-9.967l10.773-23.104c1.751-3.754,6.214-5.378,9.967-3.627c3.754,1.75,5.378,6.213,3.627,9.967  l-10.773,23.104C299.98,131.253,297.275,132.856,294.451,132.856z"/>
<path style="fill:#7CD1A9;" d="M194.426,389.372c5.226-14.358,18.568-23.68,26.668-28.215c3.55-1.988,8.062-0.346,9.503,3.459  c3.29,8.681,7.518,24.399,2.292,38.756c-5.226,14.358-18.568,23.68-26.668,28.215c-3.55,1.988-8.062,0.346-9.503-3.459  C193.428,419.447,189.2,403.729,194.426,389.372z"/>
<path style="opacity:0.1;enable-background:new    ;" d="M209.514,415.259c-0.852,0-1.718-0.146-2.564-0.454  c-3.893-1.417-5.899-5.721-4.483-9.613l8.288-22.771c1.416-3.892,5.719-5.897,9.613-4.482c3.893,1.417,5.899,5.721,4.483,9.613  l-8.288,22.771C215.454,413.367,212.577,415.259,209.514,415.259z"/>
<path style="fill:#7CD1A9;" d="M393.714,315.299c-14.358-5.226-23.68-18.568-28.215-26.668c-1.988-3.55-0.346-8.062,3.459-9.504  c8.681-3.29,24.399-7.518,38.756-2.293c14.358,5.226,23.68,18.568,28.215,26.668c1.988,3.55,0.346,8.062-3.459,9.503  C423.789,316.297,408.072,320.525,393.714,315.299z"/>
<path style="opacity:0.1;enable-background:new    ;" d="M412.098,307.713c-0.852,0-1.718-0.146-2.564-0.454l-22.77-8.288  c-3.893-1.417-5.899-5.721-4.482-9.613c1.416-3.892,5.72-5.897,9.613-4.482l22.77,8.288c3.893,1.417,5.899,5.721,4.482,9.613  C418.038,305.821,415.161,307.713,412.098,307.713z"/>
<g style="opacity:0.1;">
	<circle cx="375.07" cy="167.07" r="7.684"/>
	<circle cx="358.49" cy="200" r="7.684"/>
</g>
<g style="opacity:0.1;">
	<circle cx="182.08" cy="125.17" r="7.684"/>
	<circle cx="199.98" cy="152.54" r="7.684"/>
</g>
<g style="opacity:0.1;">
	<circle cx="325.43" cy="366.51" r="7.684"/>
</g>
<g style="opacity:0.1;">
	<circle cx="147.76" cy="331.87" r="7.684"/>
	<circle cx="174.4" cy="299.83" r="7.684"/>
	<circle cx="144.13" cy="301.46" r="7.684"/>
</g>
<path style="opacity:0.1;enable-background:new    ;" d="M464.049,248.5H263.5V47.951c-2.491-0.088-4.988-0.149-7.5-0.149  s-5.01,0.06-7.5,0.149V248.5H47.951c-0.088,2.49-0.149,4.988-0.149,7.5s0.061,5.009,0.149,7.5H248.5v200.549  c2.49,0.088,4.988,0.149,7.5,0.149s5.009-0.061,7.5-0.149V263.5h200.549c0.088-2.491,0.149-4.988,0.149-7.5  S464.137,250.99,464.049,248.5z"/>
<g>
</g>
<g>
</g>
<g>
</g>
<g>
</g>
<g>
</g>
<g>
</g>
<g>
</g>
<g>
</g>
<g>
</g>
<g>
</g>
<g>
</g>
<g>
</g>
<g>
</g>
<g>
</g>
<g>
</g>
</svg>
