<?xml version="1.0" encoding="iso-8859-1"?>
<!-- Generator: Adobe Illustrator 19.0.0, SVG Export Plug-In . SVG Version: 6.00 Build 0)  -->
<svg xmlns="http://www.w3.org/2000/svg" xmlns:xlink="http://www.w3.org/1999/xlink" version="1.1" id="Capa_1" x="0px" y="0px" viewBox="0 0 512 512" style="enable-background:new 0 0 512 512;" xml:space="preserve">
<g>
	<path style="fill:#4A5058;" d="M247.986,74.883c-4.142,0-7.5-3.357-7.5-7.5V7.5c0-4.143,3.358-7.5,7.5-7.5s7.5,3.357,7.5,7.5   v59.883C255.486,71.525,252.128,74.883,247.986,74.883z"/>
	<circle style="fill:#4A5058;" cx="247.99" cy="126.91" r="70.16"/>
</g>
<path style="opacity:0.1;enable-background:new    ;" d="M247.986,56.747c-0.102,0-0.203,0.007-0.305,0.008  c27.24,9.638,46.76,35.608,46.76,66.149c0,38.647-31.249,69.989-69.857,70.154c7.321,2.59,15.194,4.013,23.402,4.013  c38.75,0,70.162-31.413,70.162-70.162C318.149,88.16,286.736,56.747,247.986,56.747z"/>
<circle style="fill:#DFE3E5;" cx="247.99" cy="305.28" r="206.72"/>
<path style="opacity:0.1;enable-background:new    ;" d="M211.877,101.712c-87.33,15.385-155.747,85.591-168.468,173.81  c21.617-18.09,56.103-38.734,99.755-52.725C158.825,169.258,187.231,127.017,211.877,101.712z"/>
<path style="opacity:0.45;fill:#FFFFFF;enable-background:new    ;" d="M247.986,206.361c38.636,0,74.01,6.561,104.822,16.437  c-15.661-53.54-44.067-95.781-68.713-121.086c-11.726-2.066-23.791-3.149-36.109-3.149s-24.383,1.083-36.109,3.149  c-24.647,25.305-53.052,67.546-68.713,121.086C173.977,212.922,209.35,206.361,247.986,206.361z"/>
<path style="fill:#FDB876;" d="M452.564,275.522c-12.721-88.22-81.138-158.425-168.468-173.81  c24.647,25.305,53.052,67.546,68.713,121.086C396.46,236.789,430.947,257.433,452.564,275.522z"/>
<path style="fill:#E8618C;" d="M284.095,508.851c87.33-15.385,155.747-85.59,168.468-173.81  c-21.617,18.09-56.103,38.734-99.755,52.725C337.147,441.305,308.742,483.547,284.095,508.851z"/>
<path style="fill:#80CBDE;" d="M131.241,305.282c0-29.607,4.554-57.292,11.924-82.484c-43.652,13.991-78.138,34.635-99.755,52.725  c-1.402,9.719-2.141,19.652-2.141,29.759s0.739,20.04,2.141,29.759c21.617,18.09,56.103,38.734,99.755,52.725  C135.795,362.574,131.241,334.888,131.241,305.282z"/>
<path style="opacity:0.1;enable-background:new    ;" d="M364.732,305.282c0-29.607-4.554-57.292-11.924-82.484  c43.652,13.991,78.138,34.635,99.755,52.725c1.402,9.719,2.141,19.652,2.141,29.759s-0.739,20.04-2.141,29.759  c-21.617,18.09-56.103,38.734-99.755,52.725C360.178,362.574,364.732,334.888,364.732,305.282z"/>
<path style="fill:#FFE584;" d="M43.409,335.041c12.721,88.22,81.139,158.425,168.468,173.81  c-24.647-25.305-53.052-67.546-68.713-121.085C99.512,373.775,65.026,353.131,43.409,335.041z"/>
<path style="opacity:0.1;enable-background:new    ;" d="M247.986,404.203c-38.636,0-74.009-6.561-104.822-16.437  c15.661,53.54,44.067,95.781,68.713,121.085c11.726,2.066,23.791,3.149,36.109,3.149s24.383-1.083,36.109-3.149  c24.647-25.305,53.052-67.546,68.713-121.085C321.996,397.642,286.622,404.203,247.986,404.203z"/>
<g>
	<path style="fill:#4A5058;" d="M168.002,309.972c-4.142,0-7.5-3.357-7.5-7.5v-13.277c0-4.143,3.358-7.5,7.5-7.5s7.5,3.357,7.5,7.5   v13.277C175.502,306.614,172.145,309.972,168.002,309.972z"/>
	<path style="fill:#4A5058;" d="M327.97,309.972c-4.142,0-7.5-3.357-7.5-7.5v-13.277c0-4.143,3.358-7.5,7.5-7.5s7.5,3.357,7.5,7.5   v13.277C335.47,306.614,332.112,309.972,327.97,309.972z"/>
	<path style="fill:#4A5058;" d="M269.074,312.631c0,12.648-10.478,22.849-23.228,22.396c-12.144-0.432-21.593-10.782-21.593-22.933   v-15.763c0-3.375,2.736-6.111,6.111-6.111h32.6c3.375,0,6.111,2.736,6.111,6.111v16.3H269.074z"/>
</g>
<g>
	<path style="fill:#FDB876;" d="M68.514,76.256c-4.142,0-7.5-3.357-7.5-7.5V37.441c0-4.143,3.358-7.5,7.5-7.5s7.5,3.357,7.5,7.5   v31.314C76.014,72.898,72.656,76.256,68.514,76.256z"/>
	<path style="fill:#FDB876;" d="M51.898,92.872H20.584c-4.142,0-7.5-3.357-7.5-7.5s3.358-7.5,7.5-7.5h31.314   c4.142,0,7.5,3.357,7.5,7.5S56.041,92.872,51.898,92.872z"/>
	<path style="fill:#FDB876;" d="M68.514,140.802c-4.142,0-7.5-3.357-7.5-7.5v-31.315c0-4.143,3.358-7.5,7.5-7.5s7.5,3.357,7.5,7.5   v31.315C76.014,137.444,72.656,140.802,68.514,140.802z"/>
	<path style="fill:#FDB876;" d="M116.444,92.872H85.13c-4.142,0-7.5-3.357-7.5-7.5s3.358-7.5,7.5-7.5h31.314   c4.142,0,7.5,3.357,7.5,7.5S120.586,92.872,116.444,92.872z"/>
</g>
<g>
	<path style="fill:#E8618C;" d="M47.638,71.995c-1.919,0-3.838-0.732-5.303-2.196L31.716,59.181c-2.929-2.929-2.929-7.678,0-10.606   c2.929-2.93,7.677-2.929,10.607-0.001l10.619,10.618c2.929,2.929,2.929,7.678,0,10.606C51.478,71.263,49.558,71.995,47.638,71.995z   "/>
	<path style="fill:#E8618C;" d="M37.019,124.367c-1.919,0-3.839-0.732-5.303-2.196c-2.929-2.93-2.929-7.678,0-10.607l10.619-10.619   c2.929-2.928,7.678-2.928,10.607,0c2.929,2.93,2.929,7.678,0,10.608l-10.619,10.619C40.858,123.635,38.938,124.367,37.019,124.367z   "/>
	<path style="fill:#E8618C;" d="M100.009,124.367c-1.919,0-3.839-0.732-5.303-2.197l-10.619-10.619   c-2.929-2.929-2.929-7.678,0-10.606s7.678-2.929,10.606,0.001l10.619,10.619c2.929,2.929,2.929,7.678,0,10.606   C103.848,123.635,101.929,124.367,100.009,124.367z"/>
	<path style="fill:#E8618C;" d="M89.391,71.995c-1.92,0-3.839-0.732-5.303-2.197c-2.929-2.929-2.929-7.678,0-10.606l10.619-10.618   c2.929-2.928,7.678-2.929,10.606,0.001c2.929,2.929,2.929,7.678,0,10.606L94.694,69.799C93.229,71.263,91.31,71.995,89.391,71.995z   "/>
</g>
<g>
	<path style="fill:#80CBDE;" d="M443.485,99.439c-4.142,0-7.5-3.357-7.5-7.5V60.625c0-4.143,3.358-7.5,7.5-7.5s7.5,3.357,7.5,7.5   v31.314C450.985,96.082,447.627,99.439,443.485,99.439z"/>
	<path style="fill:#80CBDE;" d="M426.87,116.056h-31.314c-4.142,0-7.5-3.358-7.5-7.5c0-4.143,3.358-7.5,7.5-7.5h31.314   c4.142,0,7.5,3.357,7.5,7.5C434.37,112.698,431.012,116.056,426.87,116.056z"/>
	<path style="fill:#80CBDE;" d="M443.485,163.985c-4.142,0-7.5-3.357-7.5-7.5v-31.314c0-4.143,3.358-7.5,7.5-7.5s7.5,3.357,7.5,7.5   v31.314C450.985,160.628,447.627,163.985,443.485,163.985z"/>
	<path style="fill:#80CBDE;" d="M491.416,116.056h-31.315c-4.142,0-7.5-3.358-7.5-7.5c0-4.143,3.358-7.5,7.5-7.5h31.315   c4.142,0,7.5,3.357,7.5,7.5C498.916,112.698,495.558,116.056,491.416,116.056z"/>
</g>
<g>
	<path style="fill:#FFE584;" d="M422.609,95.18c-1.919,0-3.839-0.732-5.303-2.197l-10.619-10.619c-2.929-2.929-2.929-7.678,0-10.606   s7.678-2.929,10.606,0.001l10.619,10.619c2.929,2.929,2.929,7.678,0,10.606C426.448,94.447,424.529,95.18,422.609,95.18z"/>
	<path style="fill:#FFE584;" d="M411.991,147.551c-1.919,0-3.839-0.732-5.303-2.196c-2.929-2.929-2.929-7.678,0-10.607   l10.619-10.619c2.929-2.93,7.678-2.929,10.606-0.001c2.929,2.929,2.929,7.678,0,10.607l-10.619,10.619   C415.83,146.818,413.91,147.551,411.991,147.551z"/>
	<path style="fill:#FFE584;" d="M474.98,147.551c-1.919,0-3.839-0.732-5.303-2.197l-10.619-10.619   c-2.929-2.929-2.929-7.678,0-10.607c2.929-2.928,7.678-2.929,10.607,0.001l10.619,10.619c2.929,2.929,2.929,7.678,0,10.607   C478.819,146.818,476.9,147.551,474.98,147.551z"/>
	<path style="fill:#FFE584;" d="M464.362,95.18c-1.92,0-3.839-0.732-5.303-2.196c-2.929-2.929-2.929-7.678,0-10.606l10.619-10.619   c2.929-2.93,7.678-2.929,10.606-0.001c2.929,2.929,2.929,7.678,0,10.606l-10.619,10.619   C468.201,94.447,466.281,95.18,464.362,95.18z"/>
</g>
<path style="opacity:0.1;enable-background:new    ;" d="M379.324,145.644c29.414,35.711,47.08,81.461,47.08,131.338  c0,114.167-92.551,206.718-206.718,206.718c-49.877,0-95.627-17.666-131.338-47.08C126.262,482.65,183.696,512,247.986,512  c114.167,0,206.718-92.551,206.718-206.718C454.705,240.992,425.354,183.558,379.324,145.644z"/>
<g>
</g>
<g>
</g>
<g>
</g>
<g>
</g>
<g>
</g>
<g>
</g>
<g>
</g>
<g>
</g>
<g>
</g>
<g>
</g>
<g>
</g>
<g>
</g>
<g>
</g>
<g>
</g>
<g>
</g>
</svg>
