<?xml version="1.0" encoding="iso-8859-1"?>
<!-- Generator: Adobe Illustrator 19.0.0, SVG Export Plug-In . SVG Version: 6.00 Build 0)  -->
<svg xmlns="http://www.w3.org/2000/svg" xmlns:xlink="http://www.w3.org/1999/xlink" version="1.1" id="Capa_1" x="0px" y="0px" viewBox="0 0 512 512" style="enable-background:new 0 0 512 512;" xml:space="preserve">
<path style="fill:#80CBDE;" d="M365.662,122.251H68.275c-11.362,0-19.961,10.274-17.959,21.459l61.888,345.76  c2.334,13.038,13.675,22.53,26.921,22.53h155.686c13.246,0,24.587-9.492,26.921-22.53l61.888-345.76  C385.623,132.525,377.024,122.251,365.662,122.251z"/>
<path style="opacity:0.3;fill:#FFFFFF;enable-background:new    ;" d="M105.637,452.78l6.567,36.69  c2.334,13.038,13.675,22.53,26.921,22.53h155.686c13.246,0,24.587-9.492,26.921-22.53l6.567-36.69H105.637z"/>
<polygon style="fill:#BD9D7D;" points="62.428,211.377 105.637,452.78 328.3,452.78 371.509,211.377 "/>
<g style="opacity:0.2;">
	<circle style="fill:#FFFFFF;" cx="221.92" cy="269.2" r="7.48"/>
	<circle style="fill:#FFFFFF;" cx="113.12" cy="291.64" r="7.48"/>
	<circle style="fill:#FFFFFF;" cx="317.9" cy="288.16" r="7.48"/>
	<circle style="fill:#FFFFFF;" cx="174.42" cy="415.34" r="7.48"/>
</g>
<path style="fill:#E8618C;" d="M298.11,250.532l-34.976-8.651l49.692-200.883C318.797,16.859,340.334,0,365.201,0h90.529  c3.449,0,6.244,2.796,6.244,6.244v23.542c0,3.448-2.795,6.244-6.244,6.244h-90.529c-8.26,0-15.415,5.6-17.399,13.619L298.11,250.532  z"/>
<g>
	<path style="opacity:0.3;fill:#80CBDE;enable-background:new    ;" d="M365.662,122.251H68.275   c-11.362,0-19.961,10.274-17.959,21.459l12.112,67.667h309.081l12.112-67.667C385.623,132.525,377.024,122.251,365.662,122.251z"/>
	<path style="fill:#80CBDE;" d="M199.648,237.317l-34.874,34.874c-5.888,5.888-15.434,5.888-21.322,0l-34.874-34.874   c-5.888-5.888-5.888-15.434,0-21.322l34.874-34.874c5.888-5.888,15.434-5.888,21.322,0l34.874,34.874   C205.536,221.883,205.536,231.429,199.648,237.317z"/>
</g>
<path style="opacity:0.4;fill:#FFFFFF;enable-background:new    ;" d="M199.648,237.317l-34.874,34.874  c-5.888,5.888-15.434,5.888-21.322,0l-34.874-34.874c-5.888-5.888-5.888-15.434,0-21.322l34.874-34.874  c5.888-5.888,15.434-5.888,21.322,0l34.874,34.874C205.536,221.883,205.536,231.429,199.648,237.317z"/>
<path style="fill:#80CBDE;" d="M317.469,189.892l16.868,46.345c2.848,7.825-1.186,16.476-9.011,19.324l-46.346,16.868  c-7.824,2.848-16.476-1.186-19.324-9.011l-16.868-46.346c-2.848-7.825,1.187-16.476,9.011-19.324l46.346-16.868  C305.97,178.033,314.621,182.068,317.469,189.892z"/>
<path style="opacity:0.4;fill:#FFFFFF;enable-background:new    ;" d="M317.469,189.892l16.868,46.345  c2.848,7.825-1.186,16.476-9.011,19.324l-46.346,16.868c-7.824,2.848-16.476-1.186-19.324-9.011l-16.868-46.346  c-2.848-7.825,1.187-16.476,9.011-19.324l46.346-16.868C305.97,178.033,314.621,182.068,317.469,189.892z"/>
<g>
	<path style="fill:#4A5058;" d="M136.749,358.539c-4.142,0-7.5-3.357-7.5-7.5v-13.316c0-4.143,3.358-7.5,7.5-7.5s7.5,3.357,7.5,7.5   v13.316C144.249,355.182,140.891,358.539,136.749,358.539z"/>
	<path style="fill:#4A5058;" d="M297.188,358.539c-4.142,0-7.5-3.357-7.5-7.5v-13.316c0-4.143,3.358-7.5,7.5-7.5s7.5,3.357,7.5,7.5   v13.316C304.688,355.182,301.33,358.539,297.188,358.539z"/>
	<path style="fill:#4A5058;" d="M216.969,368.765c-10.274,0-20.043-4.45-26.804-12.209c-2.721-3.123-2.395-7.86,0.727-10.581   c3.124-2.722,7.86-2.396,10.582,0.727c3.911,4.488,9.559,7.063,15.495,7.063c5.936,0,11.583-2.574,15.495-7.063   c2.721-3.123,7.459-3.448,10.581-0.727c3.123,2.722,3.448,7.459,0.727,10.582C237.011,364.315,227.242,368.765,216.969,368.765z"/>
</g>
<path style="opacity:0.1;enable-background:new    ;" d="M365.662,122.251h-42.923c11.363,0,19.961,10.274,17.959,21.459  L278.81,489.47c-2.334,13.038-13.675,22.53-26.921,22.53h42.923c13.246,0,24.587-9.492,26.921-22.53l61.888-345.76  C385.623,132.525,377.024,122.251,365.662,122.251z"/>
<path style="opacity:0.1;enable-background:new    ;" d="M365.201,0c-24.867,0-46.404,16.859-52.375,40.999l-2.958,11.957  l35.413,6.886l2.521-10.192c1.984-8.019,9.138-13.619,17.399-13.619h6.774V0H365.201z"/>
<path style="opacity:0.1;enable-background:new    ;" d="M332.89,10.725c-4.01,2.997-7.599,6.548-10.649,10.565l26.308,26.073  c1.945-4.934,5.937-8.693,10.847-10.369L332.89,10.725z"/>
<g>
</g>
<g>
</g>
<g>
</g>
<g>
</g>
<g>
</g>
<g>
</g>
<g>
</g>
<g>
</g>
<g>
</g>
<g>
</g>
<g>
</g>
<g>
</g>
<g>
</g>
<g>
</g>
<g>
</g>
</svg>
