<?xml version="1.0" encoding="iso-8859-1"?>
<!-- Generator: Adobe Illustrator 19.0.0, SVG Export Plug-In . SVG Version: 6.00 Build 0)  -->
<svg xmlns="http://www.w3.org/2000/svg" xmlns:xlink="http://www.w3.org/1999/xlink" version="1.1" id="Capa_1" x="0px" y="0px" viewBox="0 0 512 512" style="enable-background:new 0 0 512 512;" xml:space="preserve">
<path style="fill:#80CBDE;" d="M338.365,512c7.32,0,12.901-6.467,11.941-13.724c-6.714-50.733-50.137-89.882-102.705-89.882  c-52.567,0-95.991,39.149-102.705,89.882c-0.96,7.257,4.621,13.724,11.941,13.724H338.365z"/>
<path style="opacity:0.1;enable-background:new    ;" d="M247.601,408.394c-37.746,0-70.776,20.185-88.887,50.35  c25.003,18.039,55.701,28.675,88.887,28.675s63.884-10.636,88.887-28.675C318.377,428.58,285.347,408.394,247.601,408.394z"/>
<circle style="fill:#FFE584;" cx="247.6" cy="314.11" r="152.09"/>
<path style="opacity:0.1;enable-background:new    ;" d="M247.601,162.016c-36.227,0-69.489,12.674-95.612,33.818l0,0  c4.798,14.171,9.5,26.448,13.251,33.002c22.103,34.759,100.958,69.409,210.493,43.082c1.321,8.054,2.014,16.318,2.014,24.746  c0,83.999-68.095,152.094-152.094,152.094c-30.72,0-59.306-9.116-83.219-24.779c27.316,26.153,64.363,42.223,105.167,42.223  c83.999,0,152.094-68.094,152.094-152.094C399.695,230.11,331.6,162.016,247.601,162.016z"/>
<g>
	<path style="fill:#4A5058;" d="M189.368,344.565c-4.142,0-7.5-3.357-7.5-7.5v-12.559c0-4.143,3.358-7.5,7.5-7.5s7.5,3.357,7.5,7.5   v12.559C196.868,341.208,193.51,344.565,189.368,344.565z"/>
	<path style="fill:#4A5058;" d="M340.672,344.565c-4.142,0-7.5-3.357-7.5-7.5v-12.559c0-4.143,3.358-7.5,7.5-7.5   c4.143,0,7.5,3.357,7.5,7.5v12.559C348.172,341.208,344.814,344.565,340.672,344.565z"/>
	<path style="fill:#4A5058;" d="M265.019,354.208c-9.811,0-19.142-4.249-25.599-11.658c-2.722-3.123-2.396-7.86,0.726-10.582   c3.123-2.721,7.861-2.396,10.582,0.727c3.608,4.14,8.816,6.514,14.291,6.514s10.684-2.374,14.291-6.514   c2.722-3.123,7.459-3.448,10.582-0.727c3.123,2.722,3.448,7.459,0.727,10.582C284.162,349.959,274.831,354.208,265.019,354.208z"/>
	<path style="fill:#4A5058;" d="M247.601,162.016c-68.158,0-125.842,44.834-145.175,106.619   c29.541,13.49,64.039-12.249,62.814-39.798c16.107,38.351,204.646,62.22,255.479-15.253c1.404-2.14-0.095-5.005-2.654-5.042   C381.396,208.016,328.669,162.016,247.601,162.016z"/>
</g>
<path style="fill:#FFE584;" d="M310.866,197.149h-126.53c-7.084,0-11.793-7.329-8.849-13.772L238.77,44.86  c3.457-7.566,14.206-7.566,17.663,0l63.283,138.516C322.659,189.82,317.95,197.149,310.866,197.149z"/>
<path style="fill:#80CBDE;" d="M223.13,139.57c-1.919,0-3.839-0.732-5.304-2.197c-2.929-2.929-2.928-7.678,0.001-10.606l7.048-7.048  c2.929-2.928,7.677-2.929,10.607,0.001c2.929,2.929,2.928,7.678,0,10.606l-7.048,7.048  C226.969,138.838,225.049,139.57,223.13,139.57z"/>
<path style="fill:#F98CAE;" d="M265.547,144.943c-1.139,0-2.293-0.26-3.379-0.809c-3.696-1.869-5.178-6.381-3.309-10.078  l4.498-8.895c1.869-3.695,6.38-5.178,10.078-3.309c3.696,1.869,5.178,6.381,3.309,10.078l-4.498,8.896  C270.926,143.437,268.286,144.943,265.547,144.943z"/>
<path style="fill:#FFFFFF;" d="M254.327,116.609c-1.919,0-3.839-0.732-5.304-2.197l-6.725-6.726  c-2.929-2.929-2.928-7.678,0.001-10.606s7.678-2.929,10.607,0.001l6.725,6.726c2.929,2.929,2.929,7.678,0,10.606  C258.165,115.877,256.246,116.609,254.327,116.609z"/>
<path style="fill:#E8618C;" d="M319.716,183.376l-10.992-24.06H186.479l-10.992,24.06c-2.944,6.443,1.765,13.772,8.849,13.772  h126.53C317.95,197.149,322.659,189.82,319.716,183.376z"/>
<path style="opacity:0.1;enable-background:new    ;" d="M319.716,183.376L256.433,44.86c-3.457-7.566-14.206-7.566-17.663,0  l-19.198,42.022c2.511,2.186,5.819,3.451,9.376,3.313c3.53-0.137,6.972,1.116,9.588,3.49c5.143,4.666,12.988,4.666,18.132,0l0,0  c0.903-0.819,1.909-1.494,2.978-2.035l41.907,91.727c2.944,6.443-1.765,13.772-8.849,13.772h18.164  C317.95,197.149,322.66,189.82,319.716,183.376z"/>
<path style="fill:#E8618C;" d="M252.703,1.004L252.703,1.004c6.429-2.626,13.801,0.057,17.038,6.201l0,0  c1.647,3.125,4.453,5.48,7.816,6.558l0,0c6.613,2.121,10.535,8.915,9.066,15.703l0,0c-0.747,3.452-0.111,7.06,1.772,10.048l0,0  c3.702,5.875,2.34,13.602-3.149,17.856l0,0c-2.792,2.164-4.623,5.337-5.102,8.836l0,0c-0.94,6.881-6.95,11.924-13.89,11.655l0,0  c-3.529-0.137-6.972,1.116-9.588,3.49l0,0c-5.143,4.666-12.989,4.666-18.132,0l0,0c-2.616-2.373-6.058-3.626-9.588-3.49l0,0  c-6.939,0.269-12.949-4.774-13.89-11.655l0,0c-0.478-3.5-2.31-6.672-5.102-8.836l0,0c-5.489-4.255-6.851-11.981-3.149-17.856l0,0  c1.883-2.988,2.519-6.596,1.772-10.048l0,0c-1.47-6.787,2.453-13.582,9.066-15.703l0,0c3.363-1.079,6.17-3.433,7.816-6.558l0,0  c3.237-6.144,10.609-8.827,17.038-6.201l0,0C245.77,2.34,249.433,2.34,252.703,1.004z"/>
<path style="fill:#F98CAE;" d="M454.069,229.844c-1.145,0-2.308-0.264-3.398-0.819c-3.691-1.88-5.159-6.395-3.278-10.087  c9.143-17.949,3.906-39.508-12.451-51.263c-17.455-12.545-26.143-34.297-22.134-55.414c0.772-4.07,4.701-6.741,8.767-5.97  c4.069,0.772,6.742,4.697,5.97,8.767c-2.925,15.41,3.415,31.282,16.151,40.436c22.416,16.108,29.592,45.654,17.063,70.252  C459.433,228.347,456.8,229.844,454.069,229.844z"/>
<g>
	<path style="fill:#E8618C;" d="M417.996,503.432c-2.056,0-4.102-0.84-5.583-2.488c-2.768-3.082-2.513-7.824,0.568-10.592   c11.67-10.48,16.252-26.945,11.674-41.948c-8.056-26.401,4.152-54.247,29.029-66.209c3.73-1.796,8.214-0.225,10.009,3.509   c1.796,3.732,0.225,8.214-3.509,10.009c-18.152,8.729-27.06,29.048-21.182,48.314c6.272,20.559-0.007,43.123-15.998,57.485   C421.572,502.798,419.78,503.432,417.996,503.432z"/>
	<path style="fill:#E8618C;" d="M32.534,391.482c-2.543,0-5.024-1.294-6.432-3.631c-11.091-18.413-10.495-41.827,1.519-59.651   c11.258-16.703,8.684-38.739-6.121-52.396c-3.045-2.809-3.236-7.554-0.427-10.598c2.808-3.045,7.554-3.236,10.598-0.428   c20.289,18.717,23.817,48.916,8.389,71.806c-8.767,13.007-9.202,30.092-1.109,43.527c2.138,3.549,0.994,8.157-2.554,10.295   C35.185,391.136,33.851,391.482,32.534,391.482z"/>
</g>
<g>
	<path style="fill:#80CBDE;" d="M92.632,201.159c-1.296,0-2.608-0.336-3.805-1.042c-3.567-2.105-4.753-6.703-2.647-10.271   c2.677-4.537,3.323-9.713,1.866-14.968c-1.813-6.542-6.77-12.419-13.6-16.123c-11.988-6.502-19.933-17.25-21.798-29.487   c-1.625-10.658,1.792-21.244,9.374-29.044c2.888-2.969,7.636-3.036,10.606-0.149c2.97,2.888,3.037,7.636,0.149,10.606   c-4.342,4.466-6.225,10.265-5.301,16.327c1.151,7.553,6.298,14.318,14.121,18.561c10.39,5.635,18.009,14.857,20.903,25.303   c2.533,9.14,1.325,18.586-3.403,26.597C97.699,199.841,95.199,201.159,92.632,201.159z"/>
	<path style="fill:#80CBDE;" d="M468.453,332.008c-2.526,0-4.992-1.276-6.406-3.59c-2.16-3.534-1.046-8.15,2.488-10.311   c5.789-3.538,7.716-10.94,4.387-16.852c-4.012-7.125-4.654-15.598-1.765-23.245c2.889-7.647,8.974-13.578,16.692-16.271   c3.911-1.365,8.188,0.701,9.552,4.612c1.363,3.911-0.701,8.188-4.612,9.552c-3.515,1.226-6.284,3.926-7.601,7.407   c-1.315,3.483-1.022,7.341,0.804,10.585c7.311,12.983,3.079,29.24-9.635,37.011C471.137,331.652,469.786,332.008,468.453,332.008z"/>
</g>
<path style="fill:#F98CAE;" d="M71.423,496.92c-1.824,0-3.653-0.661-5.097-2c-3.038-2.815-3.218-7.56-0.402-10.599  c4.612-4.976,4.46-12.623-0.347-17.41c-5.793-5.77-8.71-13.75-8.003-21.896c0.707-8.145,4.955-15.503,11.654-20.188  c3.393-2.373,8.07-1.546,10.444,1.849c2.373,3.395,1.546,8.07-1.849,10.444c-3.05,2.133-4.984,5.483-5.306,9.191  c-0.322,3.709,1.006,7.343,3.645,9.97c10.557,10.515,10.892,27.31,0.763,38.236C75.448,496.112,73.438,496.92,71.423,496.92z"/>
<g>
</g>
<g>
</g>
<g>
</g>
<g>
</g>
<g>
</g>
<g>
</g>
<g>
</g>
<g>
</g>
<g>
</g>
<g>
</g>
<g>
</g>
<g>
</g>
<g>
</g>
<g>
</g>
<g>
</g>
</svg>
