<?xml version="1.0" encoding="iso-8859-1"?>
<!-- Generator: Adobe Illustrator 19.0.0, SVG Export Plug-In . SVG Version: 6.00 Build 0)  -->
<svg xmlns="http://www.w3.org/2000/svg" xmlns:xlink="http://www.w3.org/1999/xlink" version="1.1" id="Capa_1" x="0px" y="0px" viewBox="0 0 512 512" style="enable-background:new 0 0 512 512;" xml:space="preserve">
<path style="fill:#4A5058;" d="M383.733,0H128.267c-19.635,0-35.552,15.917-35.552,35.552v440.896  c0,19.635,15.917,35.552,35.552,35.552h255.466c19.635,0,35.552-15.917,35.552-35.552V35.552C419.285,15.917,403.368,0,383.733,0z"/>
<path style="opacity:0.1;enable-background:new    ;" d="M383.733,0h-27.754c19.635,0,35.552,15.917,35.552,35.552v440.896  c0,19.635-15.917,35.552-35.552,35.552h27.754c19.635,0,35.552-15.917,35.552-35.552V35.552C419.285,15.917,403.368,0,383.733,0z"/>
<path style="fill:#FFE584;" d="M363.278,55.631H148.722c-9.462,0-17.132,7.67-17.132,17.132v338.381  c0,9.462,7.67,17.132,17.132,17.132h214.555c9.461,0,17.132-7.67,17.132-17.132V72.763  C380.409,63.301,372.739,55.631,363.278,55.631z"/>
<path style="fill:#80CBDE;" d="M298.93,277.031L298.93,277.031c-19.639-32.064-66.221-32.064-85.86,0l0,0  c-18.302,29.88-59.99,31.902-81.479,6.092v128.021c0,9.462,7.67,17.132,17.132,17.132h214.555c9.462,0,17.132-7.67,17.132-17.132  V283.123C358.92,308.932,317.232,306.911,298.93,277.031z"/>
<circle style="fill:#DFE3E5;" cx="256" cy="469.53" r="19.688"/>
<rect x="248.5" y="348.84" style="fill:#4A5058;" width="15" height="79.44"/>
<path style="fill:#E8618C;" d="M256,327.111l-18.429,23.85c-2.027,2.623-0.157,6.429,3.157,6.429h30.544  c3.314,0,5.184-3.807,3.157-6.429L256,327.111z"/>
<path style="opacity:0.1;enable-background:new    ;" d="M256,327.111l-11.1,14.365c3.628,0.507,7.333,0.775,11.1,0.775  c3.768,0,7.472-0.268,11.1-0.775L256,327.111z"/>
<circle style="fill:#E8618C;" cx="256" cy="254.42" r="79.54"/>
<path style="opacity:0.1;enable-background:new    ;" d="M303.688,190.761c9.969,13.287,15.877,29.797,15.877,47.688  c0,43.928-35.611,79.539-79.539,79.539c-17.89,0-34.4-5.908-47.688-15.877c14.51,19.339,37.624,31.852,63.662,31.852  c43.928,0,79.539-35.611,79.539-79.539C335.539,228.386,323.027,205.271,303.688,190.761z"/>
<g>
	<path style="fill:#4A5058;" d="M176.072,116.042c-4.142,0-7.5-3.357-7.5-7.5V95.274c0-4.143,3.358-7.5,7.5-7.5s7.5,3.357,7.5,7.5   v13.268C183.572,112.685,180.214,116.042,176.072,116.042z"/>
	<path style="fill:#4A5058;" d="M335.928,116.042c-4.142,0-7.5-3.357-7.5-7.5V95.274c0-4.143,3.358-7.5,7.5-7.5s7.5,3.357,7.5,7.5   v13.268C343.428,112.685,340.07,116.042,335.928,116.042z"/>
	<path style="fill:#4A5058;" d="M277.073,118.694c0,12.64-10.471,22.833-23.212,22.38c-12.136-0.432-21.578-10.774-21.578-22.917   v-15.752c0-3.372,2.734-6.106,6.106-6.106h32.577c3.372,0,6.106,2.734,6.106,6.106v16.289H277.073z"/>
</g>
<path style="fill:#DFE3E5;" d="M274.581,34.509h-39.806c-4.142,0-7.5-3.357-7.5-7.5s3.358-7.5,7.5-7.5h39.806  c4.142,0,7.5,3.357,7.5,7.5S278.723,34.509,274.581,34.509z"/>
<g>
	<circle style="fill:#FFE584;" cx="206.16" cy="27.01" r="7.624"/>
	<circle style="fill:#FFE584;" cx="303.2" cy="27.01" r="7.624"/>
</g>
<g>
	<path style="fill:#DFE3E5;" d="M92.715,139.869H80.173c-4.179,0-7.568-3.388-7.568-7.568V89.206c0-4.179,3.388-7.568,7.568-7.568   h12.542V139.869z"/>
	<path style="fill:#DFE3E5;" d="M419.285,175.594h12.542c4.179,0,7.568-3.388,7.568-7.568v-56.314c0-4.18-3.388-7.568-7.568-7.568   h-12.542V175.594z"/>
	<path style="fill:#DFE3E5;" d="M92.715,224.334H80.173c-4.179,0-7.568-3.388-7.568-7.568V173.67c0-4.179,3.388-7.568,7.568-7.568   h12.542V224.334z"/>
</g>
<rect x="82.66" y="166.1" style="opacity:0.1;enable-background:new    ;" width="10.05" height="58.23"/>
<rect x="82.66" y="81.64" style="opacity:0.1;enable-background:new    ;" width="10.05" height="58.23"/>
<rect x="419.29" y="104.14" style="opacity:0.1;enable-background:new    ;" width="10.05" height="71.45"/>
<g>
</g>
<g>
</g>
<g>
</g>
<g>
</g>
<g>
</g>
<g>
</g>
<g>
</g>
<g>
</g>
<g>
</g>
<g>
</g>
<g>
</g>
<g>
</g>
<g>
</g>
<g>
</g>
<g>
</g>
</svg>
