<?xml version="1.0" encoding="iso-8859-1"?>
<!-- Generator: Adobe Illustrator 19.0.0, SVG Export Plug-In . SVG Version: 6.00 Build 0)  -->
<svg xmlns="http://www.w3.org/2000/svg" xmlns:xlink="http://www.w3.org/1999/xlink" version="1.1" id="Capa_1" x="0px" y="0px" viewBox="0 0 511.999 511.999" style="enable-background:new 0 0 511.999 511.999;" xml:space="preserve">
<g>
	<path style="fill:#80CBDE;" d="M76.41,321.415L9.445,345.789c-7.447,2.71-11.286,10.944-8.576,18.39l17.347,47.66   c2.71,7.447,10.944,11.286,18.39,8.576l66.966-24.374L76.41,321.415z"/>
	<path style="fill:#80CBDE;" d="M76.41,321.415l244.864-170.869c4.498-3.139,10.75-1.162,12.626,3.992l74.187,203.826   c1.876,5.154-1.642,10.687-7.105,11.174l-297.408,26.503L76.41,321.415z"/>
</g>
<path style="fill:#FFE584;" d="M302.039,163.97L197.735,387.651l203.246-18.111c5.463-0.487,8.982-6.019,7.105-11.174  L333.899,154.54c-1.876-5.154-8.128-7.13-12.626-3.992L302.039,163.97z"/>
<path style="fill:#80CBDE;" d="M359.169,341.575l-5.696-4.415c-1.979-1.534-3.277-3.783-3.616-6.263l-0.976-7.141  c-0.667-4.877-4.926-8.452-9.846-8.262l-7.201,0.279c-2.502,0.097-4.942-0.791-6.796-2.473l-5.337-4.843  c-3.646-3.307-9.207-3.307-12.853,0l-5.337,4.842c-1.854,1.682-4.294,2.57-6.796,2.473l-7.201-0.279  c-4.919-0.191-9.18,3.384-9.846,8.262l-0.976,7.141c-0.339,2.48-1.637,4.729-3.616,6.263l-5.696,4.415  c-3.89,3.016-4.856,8.493-2.232,12.658l3.842,6.097c1.335,2.118,1.786,4.675,1.256,7.122l-1.525,7.044  c-0.515,2.379-0.093,4.757,1.029,6.737l87.845-7.829l-1.289-5.953c-0.53-2.447-0.079-5.004,1.256-7.122l3.842-6.097  C364.025,350.067,363.06,344.591,359.169,341.575z"/>
<g>
	<path style="fill:#FFE584;" d="M199.833,247.729l-5.696-4.415c-0.897-0.695-1.645-1.543-2.237-2.487l-73.989,51.631l4.759,1.527   c2.384,0.765,4.373,2.434,5.54,4.649l3.359,6.376c2.294,4.355,7.521,6.257,12.078,4.396l6.672-2.725   c2.318-0.947,4.914-0.947,7.232,0l6.672,2.725c4.557,1.861,9.783-0.041,12.078-4.396l3.359-6.376   c1.167-2.215,3.156-3.884,5.54-4.649l6.862-2.201c4.687-1.503,7.468-6.319,6.426-11.131l-1.525-7.044   c-0.53-2.447-0.079-5.004,1.256-7.122l3.842-6.097C204.689,256.222,203.724,250.746,199.833,247.729z"/>
	<path style="fill:#FFE584;" d="M76.41,321.415l244.864-170.869c4.498-3.139,10.75-1.162,12.626,3.992l74.187,203.826   c1.876,5.154-1.642,10.687-7.105,11.174l-297.408,26.503L76.41,321.415z"/>
</g>
<path style="fill:#E8618C;" d="M302.039,163.97L197.735,387.651l203.246-18.111c5.463-0.487,8.982-6.019,7.105-11.174  L333.899,154.54c-1.876-5.154-8.128-7.13-12.626-3.992L302.039,163.97z"/>
<path style="fill:#FDB876;" d="M359.169,341.575l-5.696-4.415c-1.979-1.534-3.277-3.783-3.616-6.263l-0.976-7.141  c-0.667-4.877-4.926-8.452-9.846-8.262l-7.201,0.279c-2.502,0.097-4.942-0.791-6.796-2.473l-5.337-4.843  c-3.646-3.307-9.207-3.307-12.853,0l-5.337,4.842c-1.854,1.682-4.294,2.57-6.796,2.473l-7.201-0.279  c-4.919-0.191-9.18,3.384-9.846,8.262l-0.976,7.141c-0.339,2.48-1.637,4.729-3.616,6.263l-5.696,4.415  c-3.89,3.016-4.856,8.493-2.232,12.658l3.842,6.097c1.335,2.118,1.786,4.675,1.256,7.122l-1.525,7.044  c-0.515,2.379-0.093,4.757,1.029,6.737l87.845-7.829l-1.289-5.953c-0.53-2.447-0.079-5.004,1.256-7.122l3.842-6.097  C364.025,350.067,363.06,344.591,359.169,341.575z"/>
<path style="fill:#E8618C;" d="M199.833,247.729l-5.696-4.415c-0.897-0.695-1.645-1.543-2.237-2.487l-73.989,51.631l4.759,1.527  c2.384,0.765,4.373,2.434,5.54,4.649l3.359,6.376c2.294,4.355,7.521,6.257,12.078,4.396l6.672-2.725  c2.318-0.947,4.914-0.947,7.232,0l6.672,2.725c4.557,1.861,9.783-0.041,12.078-4.396l3.359-6.376  c1.167-2.215,3.156-3.884,5.54-4.649l6.862-2.201c4.687-1.503,7.468-6.319,6.426-11.131l-1.525-7.044  c-0.53-2.447-0.079-5.004,1.256-7.122l3.842-6.097C204.689,256.222,203.724,250.746,199.833,247.729z"/>
<g>
	<path style="fill:#DFE3E5;" d="M501.178,361.287c-0.385,0-0.774-0.029-1.167-0.091c-4.092-0.64-6.892-4.476-6.253-8.568   c7.102-45.457,2.484-92.485-13.354-135.998c-15.837-43.515-42.528-82.508-77.187-112.764c-3.121-2.725-3.442-7.463-0.718-10.584   c2.724-3.12,7.462-3.442,10.583-0.718c36.563,31.918,64.716,73.045,81.419,118.934c16.702,45.889,21.57,95.492,14.079,143.444   C508.002,358.643,504.81,361.287,501.178,361.287z"/>
	<path style="fill:#DFE3E5;" d="M450.693,353.446c-0.385,0-0.774-0.029-1.167-0.091c-4.092-0.64-6.892-4.476-6.252-8.568   c5.779-36.996,2.021-75.271-10.87-110.687c-12.889-35.413-34.61-67.148-62.815-91.773c-3.12-2.724-3.441-7.463-0.717-10.583   c2.725-3.12,7.463-3.443,10.583-0.717c30.109,26.286,53.293,60.153,67.047,97.942c13.755,37.791,17.764,78.64,11.594,118.132   C457.515,350.802,454.324,353.446,450.693,353.446z"/>
</g>
<path style="opacity:0.1;enable-background:new    ;" d="M393.327,348.511L95.918,375.014l7.654,21.028L400.98,369.54  c5.463-0.487,8.982-6.019,7.105-11.174l-7.654-21.028C402.309,342.492,398.79,348.024,393.327,348.511z"/>
<path style="opacity:0.1;enable-background:new    ;" d="M28.953,399.387c-7.447,2.71-15.68-1.129-18.39-8.576l7.654,21.028  c2.71,7.447,10.944,11.286,18.39,8.576l66.965-24.374l-7.654-21.028L28.953,399.387z"/>
<g>
</g>
<g>
</g>
<g>
</g>
<g>
</g>
<g>
</g>
<g>
</g>
<g>
</g>
<g>
</g>
<g>
</g>
<g>
</g>
<g>
</g>
<g>
</g>
<g>
</g>
<g>
</g>
<g>
</g>
</svg>
