<?xml version="1.0" encoding="iso-8859-1"?>
<!-- Generator: Adobe Illustrator 19.0.0, SVG Export Plug-In . SVG Version: 6.00 Build 0)  -->
<svg xmlns="http://www.w3.org/2000/svg" xmlns:xlink="http://www.w3.org/1999/xlink" version="1.1" id="Capa_1" x="0px" y="0px" viewBox="0 0 512 512" style="enable-background:new 0 0 512 512;" xml:space="preserve">
<path style="fill:#4A5058;" d="M352.852,31.177H159.148c-18.568,0-34.359,13.547-37.183,31.898l-19.552,127.053  c-1.803,11.718-2.709,23.557-2.709,35.413v214.001c0,22.798,18.482,41.28,41.28,41.28h230.033c22.798,0,41.28-18.482,41.28-41.28  v-214c0-11.856-0.906-23.695-2.709-35.413L390.035,63.076C387.211,44.724,371.42,31.177,352.852,31.177z"/>
<path style="opacity:0.1;enable-background:new    ;" d="M99.703,243.533v196.01c0,22.798,18.482,41.28,41.28,41.28h230.033  c22.798,0,41.28-18.482,41.28-41.28v-196.01H99.703z"/>
<path style="fill:#FFFFFF;" d="M256,444.789c-51.301,0-93.037-41.736-93.037-93.037s41.736-93.037,93.037-93.037  s93.037,41.736,93.037,93.037S307.301,444.789,256,444.789z M256,273.715c-43.03,0-78.037,35.007-78.037,78.037  S212.97,429.789,256,429.789s78.037-35.007,78.037-78.037S299.03,273.715,256,273.715z"/>
<circle style="fill:#80CBDE;" cx="256" cy="351.75" r="39.522"/>
<path style="opacity:0.1;enable-background:new    ;" d="M277.621,318.674c4.07,6.214,6.444,13.638,6.444,21.621  c0,21.827-17.694,39.522-39.522,39.522c-7.982,0-15.407-2.375-21.62-6.444c7.059,10.777,19.233,17.901,33.078,17.901  c21.827,0,39.522-17.694,39.522-39.522C295.522,337.907,288.398,325.733,277.621,318.674z"/>
<path style="fill:#FFFFFF;" d="M256,229.956c-43.936,0-79.68-35.744-79.68-79.68s35.744-79.68,79.68-79.68s79.68,35.744,79.68,79.68  S299.935,229.956,256,229.956z M256,85.597c-35.664,0-64.68,29.016-64.68,64.68s29.016,64.68,64.68,64.68s64.68-29.016,64.68-64.68  C320.68,114.612,291.664,85.597,256,85.597z"/>
<circle style="fill:#80CBDE;" cx="256" cy="150.28" r="33.35"/>
<path style="opacity:0.1;enable-background:new    ;" d="M274.204,122.338c3.418,5.235,5.412,11.485,5.412,18.204  c0,18.419-14.931,33.35-33.35,33.35c-6.718,0-12.968-1.994-18.204-5.412c5.952,9.117,16.238,15.146,27.938,15.146  c18.419,0,33.35-14.931,33.35-33.35C289.35,138.576,283.32,128.29,274.204,122.338z"/>
<g>
	<path style="fill:#DFE3E5;" d="M99.703,417.806v21.737c0,22.798,18.482,41.28,41.28,41.28h17.738v-25.43   c0-20.759-16.828-37.587-37.587-37.587H99.703z"/>
	<path style="fill:#DFE3E5;" d="M412.297,417.806v21.737c0,22.798-18.482,41.28-41.28,41.28h-17.738v-25.43   c0-20.759,16.828-37.587,37.587-37.587H412.297z"/>
	<path style="fill:#DFE3E5;" d="M159.148,31.177c-18.568,0-34.359,13.547-37.183,31.899l-2.812,18.27h24.067   c15.645,0,28.327-12.682,28.327-28.327V31.177H159.148z"/>
	<path style="fill:#DFE3E5;" d="M352.852,31.177c18.568,0,34.359,13.547,37.183,31.899l2.812,18.27H368.78   c-15.645,0-28.327-12.682-28.327-28.327V31.177H352.852z"/>
	<path style="fill:#DFE3E5;" d="M482.541,444.791c-1.225,0-2.467-0.3-3.615-0.934c-3.627-2.001-4.945-6.563-2.945-10.189   c13.751-24.93,21.02-53.256,21.02-81.916c0-28.66-7.268-56.985-21.019-81.915c-2-3.627-0.682-8.189,2.945-10.189   c3.628-2,8.189-0.682,10.189,2.945C504.087,289.734,512,320.565,512,351.752c0,31.186-7.913,62.018-22.885,89.16   C487.748,443.391,485.185,444.791,482.541,444.791z"/>
	<path style="fill:#DFE3E5;" d="M454.387,429.295c-1.225,0-2.467-0.3-3.615-0.934c-3.627-2.001-4.945-6.563-2.945-10.189   c11.149-20.213,17.042-43.181,17.042-66.42c0-23.237-5.893-46.204-17.04-66.416c-2-3.627-0.682-8.189,2.945-10.189   c3.627-1.998,8.189-0.682,10.189,2.945c12.368,22.425,18.905,47.896,18.905,73.66c0,25.767-6.538,51.239-18.907,73.664   C459.594,427.895,457.03,429.295,454.387,429.295z"/>
	<path style="fill:#DFE3E5;" d="M29.459,444.791c-2.644,0-5.207-1.399-6.574-3.879C7.913,413.771,0,382.939,0,351.752   s7.913-62.018,22.884-89.159c2-3.627,6.561-4.948,10.189-2.945c3.627,2.001,4.945,6.563,2.945,10.189   C22.268,294.767,15,323.092,15,351.752s7.269,56.986,21.02,81.916c2,3.627,0.682,8.188-2.945,10.189   C31.927,444.49,30.684,444.791,29.459,444.791z"/>
	<path style="fill:#DFE3E5;" d="M57.613,429.295c-2.644,0-5.207-1.399-6.574-3.879c-12.369-22.425-18.907-47.897-18.907-73.664   c0-25.765,6.537-51.235,18.905-73.66c2.001-3.627,6.563-4.946,10.189-2.945c3.627,2,4.945,6.563,2.945,10.189   c-11.147,20.212-17.04,43.179-17.04,66.416c0,23.239,5.893,46.207,17.042,66.42c2,3.627,0.682,8.189-2.945,10.189   C60.08,428.994,58.838,429.295,57.613,429.295z"/>
</g>
<path style="opacity:0.1;enable-background:new    ;" d="M409.587,190.128L390.035,63.076  c-2.824-18.352-18.615-31.898-37.183-31.898H316.94c18.568,0,34.359,13.547,37.183,31.898l19.553,127.053  c1.803,11.718,2.709,23.557,2.709,35.413v214.001c0,22.798-18.482,41.28-41.28,41.28h35.913c22.798,0,41.28-18.482,41.28-41.28  V225.542C412.297,213.686,411.391,201.847,409.587,190.128z"/>
<g>
</g>
<g>
</g>
<g>
</g>
<g>
</g>
<g>
</g>
<g>
</g>
<g>
</g>
<g>
</g>
<g>
</g>
<g>
</g>
<g>
</g>
<g>
</g>
<g>
</g>
<g>
</g>
<g>
</g>
</svg>
