<?xml version="1.0" encoding="iso-8859-1"?>
<!-- Generator: Adobe Illustrator 19.0.0, SVG Export Plug-In . SVG Version: 6.00 Build 0)  -->
<svg xmlns="http://www.w3.org/2000/svg" xmlns:xlink="http://www.w3.org/1999/xlink" version="1.1" id="Capa_1" x="0px" y="0px" viewBox="0 0 512 512" style="enable-background:new 0 0 512 512;" xml:space="preserve">
<g>
	<path style="fill:#80CBDE;" d="M63.081,512c-4.142,0-7.5-3.357-7.5-7.5c0-44.327,5.812-79.371,14.807-89.278   c2.784-3.067,7.527-3.297,10.594-0.512c3.066,2.784,3.296,7.527,0.511,10.594c-2.165,2.385-10.912,23.974-10.912,79.196   C70.581,508.643,67.223,512,63.081,512z"/>
	<path style="fill:#80CBDE;" d="M91.775,506.697c-0.115,0-0.229-0.002-0.345-0.008c-4.138-0.188-7.34-3.693-7.153-7.831   c0.43-9.511-1.979-35.994-3.574-53.519c-0.752-8.269-1.347-14.799-1.518-18.008c-0.221-4.137,2.954-7.668,7.09-7.889   c4.142-0.248,7.668,2.954,7.889,7.09c0.156,2.929,0.769,9.657,1.477,17.447c1.729,19.002,4.097,45.025,3.62,55.556   C99.079,503.559,95.76,506.697,91.775,506.697z"/>
</g>
<path style="fill:#4A5058;" d="M284.222,83.563c-2.949,0-5.746-1.751-6.939-4.647L256,27.205l-21.284,51.711  c-1.577,3.831-5.961,5.659-9.79,4.081c-3.831-1.576-5.658-5.96-4.081-9.79l28.22-68.562C250.221,1.835,252.96,0,256,0  c3.04,0,5.778,1.835,6.935,4.646l28.22,68.562c1.576,3.83-0.251,8.214-4.081,9.79C286.14,83.382,285.174,83.563,284.222,83.563z"/>
<path style="fill:#FDB876;" d="M292.288,67.249h-72.576c-4.415,0-7.993,3.579-7.993,7.993v60.864h88.563V75.242  C300.281,70.828,296.702,67.249,292.288,67.249z"/>
<path style="opacity:0.1;enable-background:new    ;" d="M292.288,67.249h-20.375c4.415,0,7.993,3.579,7.993,7.993v60.864h20.375  V75.242C300.281,70.828,296.702,67.249,292.288,67.249z"/>
<g>
	<path style="fill:#80CBDE;" d="M458.363,186.501c-4.143,0-7.5-3.357-7.5-7.5c0-37.212-2.331-62.256-4.287-76.713   c-2.692-19.902-5.832-28.752-7.263-30.844c-2.339-3.419-1.463-8.086,1.956-10.425c3.418-2.339,8.085-1.464,10.425,1.956   c7.053,10.311,14.169,50.185,14.169,116.025C465.863,183.144,462.506,186.501,458.363,186.501z"/>
	<path style="fill:#80CBDE;" d="M429.671,179.463c-4.023,0-7.353-3.191-7.491-7.244c-0.467-13.683,1.89-48.052,3.61-73.146   c0.712-10.38,1.326-19.345,1.485-23.312c0.166-4.138,3.66-7.35,7.795-7.193c4.139,0.166,7.359,3.656,7.193,7.795   c-0.168,4.179-0.76,12.81-1.509,23.735c-1.603,23.374-4.024,58.696-3.583,71.609c0.141,4.14-3.101,7.61-7.24,7.752   C429.844,179.462,429.758,179.463,429.671,179.463z"/>
	<path style="fill:#80CBDE;" d="M53.637,186.501c-4.142,0-7.5-3.357-7.5-7.5c0-65.841,7.116-105.715,14.169-116.025   c2.339-3.419,7.006-4.295,10.425-1.956c3.419,2.339,4.294,7.006,1.956,10.425c-1.431,2.092-4.57,10.941-7.263,30.844   c-1.956,14.457-4.287,39.501-4.287,76.713C61.137,183.144,57.779,186.501,53.637,186.501z"/>
	<path style="fill:#80CBDE;" d="M82.329,179.463c-0.086,0-0.173-0.001-0.26-0.004c-4.14-0.142-7.381-3.612-7.24-7.752   c0.44-12.912-1.981-48.233-3.584-71.605c-0.749-10.928-1.341-19.56-1.509-23.739c-0.166-4.139,3.054-7.629,7.193-7.795   c4.13-0.174,7.628,3.054,7.795,7.193c0.159,3.967,0.774,12.933,1.486,23.315c1.72,25.094,4.077,59.462,3.61,73.144   C89.682,176.271,86.353,179.463,82.329,179.463z"/>
	<path style="fill:#80CBDE;" d="M448.918,512c-4.143,0-7.5-3.357-7.5-7.5c0-55.224-8.746-76.811-10.911-79.196   c-2.784-3.066-2.556-7.81,0.512-10.594c3.066-2.784,7.809-2.557,10.594,0.512c8.994,9.906,14.806,44.95,14.806,89.278   C456.418,508.643,453.06,512,448.918,512z"/>
	<path style="fill:#80CBDE;" d="M420.225,506.697c-3.986,0-7.305-3.138-7.486-7.16c-0.478-10.531,1.891-36.557,3.62-55.56   c0.708-7.789,1.32-14.516,1.477-17.444c0.22-4.136,3.725-7.332,7.889-7.09c4.136,0.221,7.311,3.752,7.09,7.889   c-0.171,3.209-0.765,9.738-1.518,18.005c-1.594,17.525-4.004,44.011-3.573,53.52c0.188,4.139-3.015,7.645-7.152,7.832   C420.455,506.694,420.34,506.697,420.225,506.697z"/>
</g>
<path style="fill:#E8618C;" d="M375.019,235.331L274.59,134.902L437.821,56.57c9.913-4.757,20.287,5.616,15.529,15.529  L375.019,235.331z"/>
<path style="opacity:0.1;enable-background:new    ;" d="M305.834,119.909l-31.244,14.993L375.018,235.33l23.894-49.791  C378.323,152.589,345.003,128.419,305.834,119.909z"/>
<g>
	<path style="fill:#E8618C;" d="M237.409,134.902L136.981,235.331L58.649,72.1c-4.757-9.913,5.616-20.287,15.529-15.529   L237.409,134.902z"/>
	<path style="fill:#E8618C;" d="M136.981,272.512L237.409,372.94L74.178,451.272c-9.913,4.757-20.287-5.616-15.529-15.53   L136.981,272.512z"/>
</g>
<path style="opacity:0.1;enable-background:new    ;" d="M227.652,363.184L71.629,438.057c-4.864,2.334-9.834,1.021-13.078-2.088  c-4.494,9.844,5.789,20.025,15.627,15.304l163.231-78.332L227.652,363.184z"/>
<path style="fill:#E8618C;" d="M274.59,372.94l100.428-100.428l78.332,163.231c4.757,9.913-5.616,20.287-15.529,15.53L274.59,372.94  z"/>
<path style="opacity:0.1;enable-background:new    ;" d="M453.448,435.968c-3.244,3.109-8.214,4.422-13.078,2.088l-86.145-41.34  c22.327-14.295,40.534-34.456,52.401-58.34l-31.607-65.865L274.59,372.94l65.864,31.607l97.366,46.725  C447.659,455.993,457.943,445.812,453.448,435.968z"/>
<circle style="fill:#FFE584;" cx="256" cy="253.92" r="146.5"/>
<g>
	<path style="fill:#80CBDE;" d="M345.242,314.354L345.242,314.354c-13.609,22.218-45.886,22.218-59.495,0l0,0   c-13.609-22.218-45.886-22.218-59.495,0l0,0c-13.609,22.218-45.886,22.218-59.495,0l0,0c-10.737-17.53-33.089-21.217-48.73-11.086   c20.257,56.63,74.378,97.154,137.972,97.154s117.715-40.524,137.972-97.154C378.331,293.138,355.979,296.825,345.242,314.354z"/>
	<path style="fill:#80CBDE;" d="M256,107.42c-63.594,0-117.715,40.524-137.972,97.154c15.641,10.131,37.993,6.444,48.73-11.086l0,0   c13.608-22.218,45.886-22.218,59.495,0l0,0c13.609,22.218,45.886,22.218,59.495,0l0,0c13.609-22.218,45.886-22.218,59.495,0l0,0   c10.737,17.53,33.089,21.217,48.73,11.086C373.715,147.944,319.594,107.42,256,107.42z"/>
</g>
<path style="opacity:0.1;enable-background:new    ;" d="M343.627,136.505c18.268,24.438,29.085,54.769,29.085,87.627  c0,80.91-65.591,146.501-146.501,146.501c-32.858,0-63.189-10.818-87.627-29.085c26.715,35.739,69.364,58.874,117.416,58.874  c80.91,0,146.501-65.591,146.501-146.501C402.501,205.869,379.366,163.22,343.627,136.505z"/>
<g>
	<path style="fill:#4A5058;" d="M187.334,253.14c-4.142,0-7.5-3.357-7.5-7.5v-11.397c0-4.143,3.358-7.5,7.5-7.5s7.5,3.357,7.5,7.5   v11.397C194.834,249.782,191.476,253.14,187.334,253.14z"/>
	<path style="fill:#4A5058;" d="M324.666,253.14c-4.143,0-7.5-3.357-7.5-7.5v-11.397c0-4.143,3.357-7.5,7.5-7.5s7.5,3.357,7.5,7.5   v11.397C332.166,249.782,328.808,253.14,324.666,253.14z"/>
	<path style="fill:#4A5058;" d="M274.103,254.361c0,10.859-8.995,19.616-19.941,19.227c-10.426-0.371-18.538-9.256-18.538-19.688   v-13.532c0-2.897,2.349-5.246,5.246-5.246h27.987c2.897,0,5.246,2.349,5.246,5.246V254.361z"/>
</g>
<g>
</g>
<g>
</g>
<g>
</g>
<g>
</g>
<g>
</g>
<g>
</g>
<g>
</g>
<g>
</g>
<g>
</g>
<g>
</g>
<g>
</g>
<g>
</g>
<g>
</g>
<g>
</g>
<g>
</g>
</svg>
