<?xml version="1.0" encoding="iso-8859-1"?>
<!-- Generator: Adobe Illustrator 19.0.0, SVG Export Plug-In . SVG Version: 6.00 Build 0)  -->
<svg xmlns="http://www.w3.org/2000/svg" xmlns:xlink="http://www.w3.org/1999/xlink" version="1.1" id="Capa_1" x="0px" y="0px" viewBox="0 0 512 512" style="enable-background:new 0 0 512 512;" xml:space="preserve">
<path style="fill:#BD9D7D;" d="M303.999,171.534V27.664h-95.997v143.87c0,10.863-4.708,21.192-12.907,28.317l-23.128,20.099  c-11.122,9.665-17.509,23.676-17.509,38.411v219.027c0,19.116,15.496,34.612,34.612,34.612h133.861  c19.116,0,34.612-15.496,34.612-34.612V258.361c0-14.735-6.387-28.746-17.509-38.411l-23.128-20.099  C308.707,192.726,303.999,182.396,303.999,171.534z"/>
<path style="opacity:0.1;enable-background:new    ;" d="M154.457,467.158v10.23c0,19.116,15.496,34.612,34.612,34.612H322.93  c19.116,0,34.612-15.496,34.612-34.612v-10.23H154.457z"/>
<path style="fill:#E8618C;" d="M311.383,261.425l-110.371,31.572c-8.275,2.367-13.979,9.932-13.979,18.539v26.303h137.934v-66.172  C324.967,264.589,318.19,259.478,311.383,261.425z"/>
<g>
	<path style="fill:#FFE584;" d="M237.624,346.742c-4.142,0-7.5-3.357-7.5-7.5V236.709c0-4.143,3.358-7.5,7.5-7.5s7.5,3.357,7.5,7.5   v102.533C245.124,343.385,241.766,346.742,237.624,346.742z"/>
	<path style="fill:#FFE584;" d="M226.184,264.753c8.684,8.684,10.902,21.651,11.413,29.382c0.239,3.627-2.776,6.643-6.403,6.403   c-7.732-0.51-20.698-2.729-29.382-11.413s-10.902-21.651-11.413-29.382c-0.239-3.627,2.776-6.643,6.403-6.403   C204.533,253.851,217.5,256.069,226.184,264.753z"/>
	<path style="fill:#FFE584;" d="M249.01,264.753c-8.684,8.684-10.902,21.651-11.413,29.382c-0.239,3.627,2.776,6.643,6.403,6.403   c7.732-0.51,20.698-2.729,29.382-11.413c8.684-8.684,10.902-21.651,11.413-29.382c0.239-3.627-2.776-6.643-6.403-6.403   C270.66,253.851,257.694,256.069,249.01,264.753z"/>
</g>
<path style="fill:#FFFFFF;" d="M324.967,327.559H187.033v92.755c0,8.072,6.544,14.616,14.616,14.616H310.35  c8.072,0,14.616-6.544,14.616-14.616v-92.755H324.967z"/>
<path style="fill:#4A5058;" d="M288.75,394.512h-65.5c-4.142,0-7.5-3.357-7.5-7.5s3.358-7.5,7.5-7.5h65.5c4.142,0,7.5,3.357,7.5,7.5  C296.25,391.154,292.892,394.512,288.75,394.512z"/>
<rect x="208" y="82.08" style="fill:#E8618C;" width="96" height="74.929"/>
<rect x="208" y="106.81" style="fill:#FFE584;" width="96" height="25.458"/>
<path style="opacity:0.1;enable-background:new    ;" d="M340.034,219.949l-23.128-20.099c-8.199-7.125-12.907-17.454-12.907-28.317  V27.664h-95.997v35.478h59.845v108.392c0,10.862,4.708,21.192,12.907,28.317l23.128,20.099  c11.122,9.665,17.508,23.676,17.508,38.411v219.027c0,19.116-15.496,34.612-34.612,34.612h36.152  c19.116,0,34.612-15.496,34.612-34.612V258.361C357.543,243.626,351.156,229.615,340.034,219.949z"/>
<path style="fill:#DFE3E5;" d="M306.978,46.108H205.022c-3.4,0-6.157-2.757-6.157-6.157V23.606C198.866,10.569,209.434,0,222.472,0  h67.057c13.037,0,23.606,10.569,23.606,23.606v16.345C313.135,43.352,310.378,46.108,306.978,46.108z"/>
<path style="opacity:0.1;enable-background:new    ;" d="M289.529,0H263.69c13.037,0,23.606,10.569,23.606,23.606v16.345  c0,3.4-2.757,6.157-6.157,6.157h25.839c3.4,0,6.157-2.757,6.157-6.157V23.606C313.135,10.569,302.566,0,289.529,0z"/>
<g>
</g>
<g>
</g>
<g>
</g>
<g>
</g>
<g>
</g>
<g>
</g>
<g>
</g>
<g>
</g>
<g>
</g>
<g>
</g>
<g>
</g>
<g>
</g>
<g>
</g>
<g>
</g>
<g>
</g>
</svg>
