<?xml version="1.0" encoding="iso-8859-1"?>
<!-- Generator: Adobe Illustrator 19.0.0, SVG Export Plug-In . SVG Version: 6.00 Build 0)  -->
<svg xmlns="http://www.w3.org/2000/svg" xmlns:xlink="http://www.w3.org/1999/xlink" version="1.1" id="Capa_1" x="0px" y="0px" viewBox="0 0 512.001 512.001" style="enable-background:new 0 0 512.001 512.001;" xml:space="preserve">
<path style="fill:#FDB876;" d="M281.833,37.733h-51.667c-87.351,0-165.571,54.102-196.389,135.836l0,0  c-6.162,16.342,5.915,33.803,23.381,33.803h397.684c17.466,0,29.543-17.461,23.381-33.803l0,0  C447.404,91.835,369.185,37.733,281.833,37.733z"/>
<g>
	<path style="fill:#FFE584;" d="M147.717,172.74c-4.143,0-7.5-3.357-7.5-7.5v-3.449c0-4.143,3.357-7.5,7.5-7.5s7.5,3.357,7.5,7.5   v3.449C155.217,169.383,151.859,172.74,147.717,172.74z"/>
	<path style="fill:#FFE584;" d="M113.035,139.052c-4.143,0-7.5-3.357-7.5-7.5v-3.45c0-4.143,3.357-7.5,7.5-7.5   c4.142,0,7.5,3.357,7.5,7.5v3.45C120.535,135.694,117.178,139.052,113.035,139.052z"/>
	<path style="fill:#FFE584;" d="M256,191.178c-4.143,0-7.5-3.357-7.5-7.5v-3.45c0-4.142,3.357-7.5,7.5-7.5s7.5,3.358,7.5,7.5v3.45   C263.5,187.82,260.143,191.178,256,191.178z"/>
	<path style="fill:#FFE584;" d="M210.635,84.596c-4.143,0-7.5-3.357-7.5-7.5v-3.449c0-4.143,3.357-7.5,7.5-7.5s7.5,3.357,7.5,7.5   v3.449C218.135,81.238,214.777,84.596,210.635,84.596z"/>
	<path style="fill:#FFE584;" d="M364.283,172.74c-4.143,0-7.5-3.357-7.5-7.5v-3.449c0-4.143,3.357-7.5,7.5-7.5s7.5,3.357,7.5,7.5   v3.449C371.783,169.383,368.426,172.74,364.283,172.74z"/>
	<path style="fill:#FFE584;" d="M398.965,139.052c-4.143,0-7.5-3.357-7.5-7.5v-3.45c0-4.143,3.357-7.5,7.5-7.5s7.5,3.357,7.5,7.5   v3.45C406.465,135.694,403.107,139.052,398.965,139.052z"/>
	<path style="fill:#FFE584;" d="M301.365,84.596c-4.143,0-7.5-3.357-7.5-7.5v-3.449c0-4.143,3.357-7.5,7.5-7.5s7.5,3.357,7.5,7.5   v3.449C308.865,81.238,305.508,84.596,301.365,84.596z"/>
</g>
<path style="opacity:0.1;enable-background:new    ;" d="M478.223,173.57L478.223,173.57  C447.404,91.835,369.185,37.733,281.833,37.733h-51.667c-0.141,0-0.281,0.008-0.422,0.008  c87.181,0.175,165.198,54.226,195.967,135.828l0,0c6.162,16.342-5.915,33.803-23.381,33.803h52.511  C472.307,207.373,484.385,189.912,478.223,173.57z"/>
<path style="fill:#FDB876;" d="M465.449,380.723H46.551c-14.094,0-25.519,11.426-25.519,25.52v42.505  c0,14.094,11.426,25.52,25.519,25.52h418.898c14.094,0,25.52-11.426,25.52-25.52v-42.505  C490.969,392.148,479.543,380.723,465.449,380.723z"/>
<path style="opacity:0.1;enable-background:new    ;" d="M465.449,380.723H46.551c-14.094,0-25.52,11.426-25.52,25.52v21.413  c0-14.094,11.426-25.52,25.52-25.52h388.795c2.259,0,4.147,1.805,4.15,4.064c0,0.014,0,0.028,0,0.042v42.505  c0,14.094-11.425,25.52-25.52,25.52h51.472c14.094,0,25.52-11.426,25.52-25.52v-42.505  C490.969,392.148,479.543,380.723,465.449,380.723z"/>
<path style="fill:#BD9D7D;" d="M487.273,314.771H24.727C11.071,314.771,0,325.842,0,339.498v16.498  c0,13.656,11.071,24.727,24.727,24.727h462.546c13.656,0,24.727-11.071,24.727-24.727v-16.498  C512,325.842,500.929,314.771,487.273,314.771z"/>
<path style="opacity:0.1;enable-background:new    ;" d="M487.273,314.771H24.727C11.071,314.771,0,325.842,0,339.498v16.498  c0,0.145,0.008,0.288,0.011,0.432c0.231-13.456,11.205-24.295,24.716-24.295h435.034c2.709,0,4.999,2.154,5.006,4.863  c0,0.017,0,0.034,0,0.051v21.402c0,12.302-9.973,22.275-22.275,22.275h44.781c13.656,0,24.727-11.071,24.727-24.727v-16.498  C512,325.842,500.929,314.771,487.273,314.771z"/>
<path style="fill:#E8618C;" d="M489.448,261.072H22.552C10.097,261.072,0,271.169,0,283.624v8.596  c0,12.455,10.097,22.552,22.552,22.552h466.897c12.455,0,22.552-10.097,22.552-22.552v-8.596  C512,271.169,501.903,261.072,489.448,261.072z"/>
<path style="fill:#7CD1A9;" d="M489.448,207.373H22.552C10.097,207.373,0,217.469,0,229.924v8.596  c0,12.455,10.097,22.552,22.552,22.552h466.897c12.455,0,22.552-10.097,22.552-22.552v-8.596  C512,217.469,501.903,207.373,489.448,207.373z"/>
<path style="opacity:0.1;enable-background:new    ;" d="M489.448,261.072H22.552C10.097,261.072,0,271.168,0,283.624v8.596  c0,1.382,0.131,2.733,0.369,4.047c1.908-10.522,11.11-18.505,22.182-18.505H460.55c2.61,0,4.846,2,4.991,4.606  c0.023,0.416,0.035,0.835,0.035,1.256v8.596c0,12.455-10.097,22.552-22.552,22.552h46.423c12.455,0,22.552-10.097,22.552-22.552  v-8.596C512,271.168,501.903,261.072,489.448,261.072z"/>
<path style="opacity:0.1;enable-background:new    ;" d="M489.448,207.373h-46.423c12.455,0,22.552,10.097,22.552,22.552v8.596  c0,12.455-10.097,22.552-22.552,22.552h46.423c12.455,0,22.552-10.097,22.552-22.552v-8.596  C512,217.469,501.903,207.373,489.448,207.373z"/>
<path style="opacity:0.1;enable-background:new    ;" d="M308.375,359.822l-45.512-98.75H396.84l-45.512,98.75  C341.93,380.213,317.772,380.213,308.375,359.822z"/>
<path style="fill:#FFE584;" d="M308.375,342.362l-45.512-81.29H396.84l-45.512,81.29  C341.93,359.148,317.772,359.148,308.375,342.362z"/>
<g>
	<path style="fill:#4A5058;" d="M173.859,132.136c-4.143,0-7.5-3.357-7.5-7.5v-13.635c0-4.143,3.357-7.5,7.5-7.5s7.5,3.357,7.5,7.5   v13.635C181.359,128.778,178.002,132.136,173.859,132.136z"/>
	<path style="fill:#4A5058;" d="M338.141,132.136c-4.143,0-7.5-3.357-7.5-7.5v-13.635c0-4.143,3.357-7.5,7.5-7.5s7.5,3.357,7.5,7.5   v13.635C345.641,128.778,342.283,132.136,338.141,132.136z"/>
	<path style="fill:#4A5058;" d="M256,142.606c-10.467,0-20.421-4.534-27.311-12.438c-2.722-3.123-2.396-7.86,0.727-10.582   c3.122-2.721,7.859-2.396,10.582,0.727c4.039,4.636,9.872,7.294,16.002,7.294s11.963-2.658,16.002-7.294   c2.722-3.123,7.457-3.448,10.582-0.727c3.122,2.722,3.448,7.459,0.726,10.582C276.421,138.072,266.467,142.606,256,142.606z"/>
</g>
<g>
</g>
<g>
</g>
<g>
</g>
<g>
</g>
<g>
</g>
<g>
</g>
<g>
</g>
<g>
</g>
<g>
</g>
<g>
</g>
<g>
</g>
<g>
</g>
<g>
</g>
<g>
</g>
<g>
</g>
</svg>
