<?xml version="1.0" encoding="iso-8859-1"?>
<!-- Generator: Adobe Illustrator 19.0.0, SVG Export Plug-In . SVG Version: 6.00 Build 0)  -->
<svg xmlns="http://www.w3.org/2000/svg" xmlns:xlink="http://www.w3.org/1999/xlink" version="1.1" id="Capa_1" x="0px" y="0px" viewBox="0 0 512 512" style="enable-background:new 0 0 512 512;" xml:space="preserve">
<path style="fill:#F98CAE;" d="M273.926,0h-35.852c-60.893,0-110.257,49.364-110.257,110.257v215.822  c0,16.501,13.377,29.878,29.878,29.878h196.609c16.501,0,29.878-13.377,29.878-29.878V110.257C384.183,49.364,334.819,0,273.926,0z"/>
<path style="fill:#BD9D7D;" d="M273.926,0h-35.852c-60.893,0-110.257,49.364-110.257,110.257v114.964h175.937  c5.706,0,10.331,4.625,10.331,10.331v28.296c0,12.078,9.392,22.365,21.462,22.794c12.672,0.451,23.087-9.689,23.087-22.26v-28.83  c0-5.706,4.625-10.331,10.331-10.331h15.217V110.257C384.183,49.364,334.819,0,273.926,0z"/>
<path style="fill:#FDB876;" d="M266.382,512h-20.765c-9.785,0-17.717-7.932-17.717-17.717V355.957h56.199v138.326  C284.099,504.068,276.167,512,266.382,512z"/>
<path style="opacity:0.1;enable-background:new    ;" d="M227.901,355.957v36.295h40.022v102.031  c0,9.785-7.932,17.717-17.717,17.717h16.177c9.785,0,17.717-7.932,17.717-17.717V355.957H227.901z"/>
<g style="opacity:0.1;">
	<path d="M227.901,355.957h-44.549V195.809c0-12.302,9.973-22.275,22.275-22.275l0,0c12.302,0,22.275,9.973,22.275,22.275   L227.901,355.957L227.901,355.957z"/>
	<path d="M284.099,355.957h44.55V195.809c0-12.302-9.973-22.275-22.275-22.275l0,0c-12.302,0-22.275,9.973-22.275,22.275V355.957z"/>
</g>
<g>
	<path style="fill:#4A5058;" d="M187.334,120.599c-4.142,0-7.5-3.357-7.5-7.5v-11.397c0-4.143,3.358-7.5,7.5-7.5s7.5,3.357,7.5,7.5   v11.397C194.834,117.241,191.476,120.599,187.334,120.599z"/>
	<path style="fill:#4A5058;" d="M324.666,120.599c-4.143,0-7.5-3.357-7.5-7.5v-11.397c0-4.143,3.357-7.5,7.5-7.5s7.5,3.357,7.5,7.5   v11.397C332.166,117.241,328.809,120.599,324.666,120.599z"/>
	<path style="fill:#4A5058;" d="M274.103,121.821c0,10.858-8.995,19.616-19.941,19.227c-10.426-0.371-18.538-9.256-18.538-19.688   v-13.532c0-2.897,2.349-5.246,5.246-5.246h27.987c2.897,0,5.246,2.349,5.246,5.246V121.821z"/>
</g>
<path style="opacity:0.1;enable-background:new    ;" d="M273.926,0h-34.103C300.716,0,350.08,49.364,350.08,110.257v215.822  c0,16.501-13.377,29.878-29.878,29.878h34.103c16.501,0,29.878-13.377,29.878-29.878V110.257C384.183,49.364,334.819,0,273.926,0z"/>
<g>
</g>
<g>
</g>
<g>
</g>
<g>
</g>
<g>
</g>
<g>
</g>
<g>
</g>
<g>
</g>
<g>
</g>
<g>
</g>
<g>
</g>
<g>
</g>
<g>
</g>
<g>
</g>
<g>
</g>
</svg>
