<?xml version="1.0" encoding="iso-8859-1"?>
<!-- Generator: Adobe Illustrator 19.0.0, SVG Export Plug-In . SVG Version: 6.00 Build 0)  -->
<svg xmlns="http://www.w3.org/2000/svg" xmlns:xlink="http://www.w3.org/1999/xlink" version="1.1" id="Capa_1" x="0px" y="0px" viewBox="0 0 512 512" style="enable-background:new 0 0 512 512;" xml:space="preserve">
<path style="fill:#80CBDE;" d="M496.284,196.225H15.716c-10.943,0-18.531,10.913-14.719,21.171L33,303.528  c23.717,63.831,84.63,106.179,152.724,106.179h140.55c68.095,0,129.007-42.349,152.724-106.179l32.003-86.132  C514.814,207.138,507.227,196.225,496.284,196.225z"/>
<path style="fill:#E8618C;" d="M14.106,252.677L33,303.529c23.717,63.831,84.63,106.179,152.724,106.179h140.55  c68.095,0,129.007-42.349,152.724-106.179l18.894-50.852L14.106,252.677L14.106,252.677z"/>
<path style="fill:#DFE3E5;" d="M298.369,334.395l81.779-224.685c12.46-34.234,50.448-51.947,84.681-39.487  s51.948,50.448,39.488,84.681c-2.877,7.904-11.617,11.98-19.521,9.103s-11.98-11.617-9.103-19.521  c6.715-18.45-2.832-38.924-21.283-45.639s-38.924,2.832-45.639,21.282l-81.779,224.685L298.369,334.395z"/>
<rect x="303.809" y="303.62" transform="matrix(-0.9397 -0.342 0.342 -0.9397 508.6569 734.0352)" style="opacity:0.1;enable-background:new    ;" width="30.461" height="37.11"/>
<path style="fill:#DFE3E5;" d="M186.081,295.222c-14.221,39.071,6.199,82.306,45.573,96.061  c38.751,13.537,81.135-7.446,95.174-46.018l4.896-13.452l-131.464-47.85c-4.916-1.789-10.352,0.745-12.142,5.662L186.081,295.222z"/>
<path style="opacity:0.3;fill:#E8618C;enable-background:new    ;" d="M14.106,252.677L33,303.529  c23.717,63.831,84.63,106.179,152.724,106.179h140.55c68.095,0,129.007-42.349,152.724-106.179l18.894-50.852L14.106,252.677  L14.106,252.677z"/>
<g>
	<circle style="opacity:0.3;fill:#FFFFFF;enable-background:new    ;" cx="118.5" cy="311.419" r="13.897"/>
	<circle style="opacity:0.3;fill:#FFFFFF;enable-background:new    ;" cx="424.72" cy="291.999" r="13.897"/>
	<circle style="opacity:0.3;fill:#FFFFFF;enable-background:new    ;" cx="375.65" cy="344.809" r="13.897"/>
</g>
<path style="fill:#80CBDE;" d="M327.306,445.764H184.694c-3.312,0-5.997-2.685-5.997-5.997v-7.3c0-12.57,10.19-22.76,22.76-22.76  h109.086c12.57,0,22.76,10.19,22.76,22.76v7.3C333.303,443.079,330.618,445.764,327.306,445.764z"/>
<path style="opacity:0.1;enable-background:new    ;" d="M310.543,409.708H201.457c-9.032,0-16.812,5.275-20.489,12.9h119.74  c4.164,0,7.805,3.04,8.303,7.174c0.106,0.88,0.161,1.776,0.161,2.686v7.3c0,3.312-2.685,5.997-5.997,5.997h24.131  c3.312,0,5.997-2.685,5.997-5.997v-7.3C333.303,419.897,323.113,409.708,310.543,409.708z"/>
<path style="opacity:0.1;enable-background:new    ;" d="M496.284,196.225H476.51l-29.385,79.085  c-23.717,63.831-84.63,106.179-152.724,106.179h-140.55c-33.265,0-64.802-10.128-91.14-27.908  c30.356,34.949,74.881,56.127,123.014,56.127h140.55c68.095,0,129.007-42.349,152.724-106.179l32.003-86.132  C514.814,207.138,507.227,196.225,496.284,196.225z"/>
<g>
</g>
<g>
</g>
<g>
</g>
<g>
</g>
<g>
</g>
<g>
</g>
<g>
</g>
<g>
</g>
<g>
</g>
<g>
</g>
<g>
</g>
<g>
</g>
<g>
</g>
<g>
</g>
<g>
</g>
</svg>
