<?xml version="1.0" encoding="iso-8859-1"?>
<!-- Generator: Adobe Illustrator 19.0.0, SVG Export Plug-In . SVG Version: 6.00 Build 0)  -->
<svg xmlns="http://www.w3.org/2000/svg" xmlns:xlink="http://www.w3.org/1999/xlink" version="1.1" id="Capa_1" x="0px" y="0px" viewBox="0 0 512.002 512.002" style="enable-background:new 0 0 512.002 512.002;" xml:space="preserve">
<path style="fill:#4A5058;" d="M256.001,150.069c-106.363,0-179.56-19.769-252.644-68.235c-3.452-2.289-4.396-6.943-2.107-10.396  c2.29-3.453,6.946-4.395,10.396-2.105c70.409,46.691,141.204,65.736,244.355,65.736s173.946-19.045,244.356-65.736  c3.448-2.289,8.104-1.348,10.395,2.105c2.289,3.452,1.346,8.106-2.107,10.396C435.561,130.3,362.364,150.069,256.001,150.069z"/>
<g>
	<path style="fill:#80CBDE;" d="M57.278,211.018l89.822-85.044c4.239-4.014,2.773-11.085-2.713-13.082L37.599,74.024   c-5.486-1.997-11.155,2.478-10.487,8.277l14.142,122.884C42.151,212.989,51.574,216.419,57.278,211.018z"/>
	<path style="fill:#80CBDE;" d="M454.724,211.018l-89.822-85.044c-4.239-4.014-2.772-11.085,2.713-13.082l106.788-38.868   c5.486-1.997,11.155,2.478,10.488,8.277l-14.142,122.884C469.85,212.989,460.428,216.419,454.724,211.018z"/>
</g>
<path style="fill:#E8618C;" d="M247.474,241.272l-55.318-110.636c-2.611-5.221,1.186-11.365,7.024-11.365h113.642  c5.838,0,9.635,6.144,7.024,11.365l-55.318,110.636C261.015,248.299,250.987,248.299,247.474,241.272z"/>
<path style="fill:#4A5058;" d="M256.001,347.448c-106.362,0-179.559-19.769-252.644-68.234c-3.452-2.289-4.396-6.943-2.107-10.396  s6.943-4.395,10.396-2.105c70.41,46.69,141.204,65.735,244.355,65.735s173.945-19.045,244.356-65.735  c3.448-2.289,8.104-1.347,10.395,2.105c2.289,3.452,1.346,8.107-2.107,10.396C435.56,327.679,362.363,347.448,256.001,347.448z"/>
<g>
	<path style="fill:#E8618C;" d="M57.278,408.397l89.822-85.044c4.239-4.014,2.773-11.085-2.713-13.082L37.599,271.403   c-5.486-1.997-11.155,2.478-10.487,8.277l14.142,122.884C42.151,410.368,51.574,413.798,57.278,408.397z"/>
	<path style="fill:#E8618C;" d="M454.724,408.397l-89.822-85.044c-4.239-4.014-2.772-11.085,2.713-13.082l106.788-38.868   c5.486-1.997,11.155,2.478,10.488,8.277l-14.142,122.884C469.85,410.368,460.428,413.798,454.724,408.397z"/>
</g>
<path style="fill:#80CBDE;" d="M247.474,438.651l-55.318-110.636c-2.611-5.221,1.186-11.365,7.024-11.365h113.642  c5.838,0,9.635,6.144,7.024,11.365l-55.318,110.636C261.015,445.677,250.987,445.677,247.474,438.651z"/>
<path style="fill:#FFE584;" d="M402.95,161.998l51.774,49.02c5.704,5.401,15.127,1.972,16.025-5.833l8.369-72.719  C453.548,130.487,426.416,138.321,402.95,161.998z"/>
<path style="fill:#FDB876;" d="M256.001,178c-12.213,0-24.209,3.767-35.865,8.595l27.338,54.677c3.513,7.026,13.54,7.026,17.054,0  l27.338-54.677C280.21,181.767,268.214,178,256.001,178z"/>
<path style="fill:#FFE584;" d="M32.884,132.466l8.369,72.719c0.898,7.804,10.321,11.234,16.025,5.833l51.774-49.02  C85.586,138.321,58.454,130.487,32.884,132.466z"/>
<path style="fill:#FDB876;" d="M402.95,359.377l51.774,49.02c5.704,5.401,15.127,1.972,16.025-5.833l8.369-72.719  C453.548,327.866,426.415,335.699,402.95,359.377z"/>
<path style="fill:#FFE584;" d="M256.001,375.379c-12.213,0-24.209,3.767-35.865,8.595l27.338,54.677  c3.513,7.026,13.54,7.026,17.054,0l27.338-54.677C280.21,379.146,268.214,375.379,256.001,375.379z"/>
<path style="fill:#FDB876;" d="M32.884,329.845l8.369,72.719c0.898,7.804,10.321,11.234,16.025,5.833l51.774-49.02  C85.586,335.699,58.453,327.866,32.884,329.845z"/>
<path style="opacity:0.1;enable-background:new    ;" d="M144.387,112.892l-6.144-2.236c0.099,2.153-0.663,4.364-2.436,6.042  l-89.822,85.044c-1.443,1.366-3.124,2.163-4.844,2.472l0.112,0.972c0.898,7.804,10.321,11.234,16.025,5.833l89.822-85.044  C151.339,121.96,149.873,114.888,144.387,112.892z"/>
<path style="opacity:0.1;enable-background:new    ;" d="M312.822,119.271h-17.564c5.838,0,9.635,6.144,7.024,11.365  l-55.063,110.126l0.255,0.51c3.513,7.026,13.54,7.026,17.054,0l55.318-110.636C322.457,125.415,318.66,119.271,312.822,119.271z"/>
<path style="opacity:0.1;enable-background:new    ;" d="M474.403,74.024l-7.093,2.582c1.189,1.531,1.83,3.52,1.58,5.696  l-14.142,122.884c-0.191,1.656-0.781,3.1-1.623,4.32l1.598,1.513c5.704,5.401,15.127,1.972,16.025-5.833l14.143-122.885  C485.558,76.502,479.889,72.027,474.403,74.024z"/>
<path style="opacity:0.1;enable-background:new    ;" d="M144.387,310.27l-6.144-2.236c0.099,2.153-0.663,4.364-2.436,6.042  L45.985,399.12c-1.443,1.366-3.124,2.163-4.844,2.472l0.112,0.972c0.898,7.804,10.32,11.234,16.025,5.833l89.822-85.044  C151.339,319.339,149.873,312.267,144.387,310.27z"/>
<path style="opacity:0.1;enable-background:new    ;" d="M312.822,316.65h-17.564c5.838,0,9.635,6.144,7.024,11.365l-55.063,110.126  l0.255,0.51c3.513,7.026,13.54,7.026,17.054,0l55.318-110.636C322.456,322.793,318.66,316.65,312.822,316.65z"/>
<path style="opacity:0.1;enable-background:new    ;" d="M474.403,271.403l-7.093,2.582c1.189,1.531,1.83,3.52,1.58,5.696  l-14.142,122.884c-0.191,1.656-0.781,3.1-1.623,4.32l1.598,1.513c5.705,5.401,15.127,1.972,16.025-5.833l14.142-122.884  C485.558,273.88,479.889,269.406,474.403,271.403z"/>
<g>
</g>
<g>
</g>
<g>
</g>
<g>
</g>
<g>
</g>
<g>
</g>
<g>
</g>
<g>
</g>
<g>
</g>
<g>
</g>
<g>
</g>
<g>
</g>
<g>
</g>
<g>
</g>
<g>
</g>
</svg>
