<?xml version="1.0" encoding="iso-8859-1"?>
<!-- Generator: Adobe Illustrator 19.0.0, SVG Export Plug-In . SVG Version: 6.00 Build 0)  -->
<svg xmlns="http://www.w3.org/2000/svg" xmlns:xlink="http://www.w3.org/1999/xlink" version="1.1" id="Capa_1" x="0px" y="0px" viewBox="0 0 512 512" style="enable-background:new 0 0 512 512;" xml:space="preserve">
<path style="fill:#F98CAE;" d="M68.566,219.478l27.835,139.988c0.616,3.096,3.332,5.326,6.489,5.326h306.22  c3.156,0,5.873-2.23,6.489-5.326l27.835-139.988c0.814-4.092-2.317-7.906-6.489-7.906H75.055  C70.883,211.571,67.752,215.386,68.566,219.478z"/>
<path style="opacity:0.1;enable-background:new    ;" d="M83.718,295.682h344.564l2.982-15H80.735L83.718,295.682z M91.491,334.773  h329.018l2.983-15H88.508L91.491,334.773z M72.962,241.59l2.983,15h360.11l2.983-15H72.962z"/>
<path style="opacity:0.1;enable-background:new    ;" d="M436.945,211.571h-46.762c4.172,0,7.303,3.814,6.489,7.906l-27.835,139.988  c-0.616,3.096-3.332,5.326-6.489,5.326h46.762c3.156,0,5.873-2.23,6.489-5.326l27.835-139.988  C444.248,215.386,441.117,211.571,436.945,211.571z"/>
<path style="fill:#E8618C;" d="M159.191,512H352.81c15.544,0,28.893-11.05,31.797-26.321l22.983-120.887H104.41l22.983,120.887  C130.298,500.95,143.646,512,159.191,512z M47.292,64.363L75.28,211.571h361.44l27.988-147.208  C464.708,64.363,47.292,64.363,47.292,64.363z"/>
<path style="opacity:0.1;enable-background:new    ;" d="M332.901,485.679C329.998,500.95,316.649,512,301.104,512h51.705  c15.544,0,28.893-11.05,31.797-26.321l22.983-120.887h-51.705L332.901,485.679z M47.292,64.363l9.239,48.595h347.233l-18.749,98.613  h51.705l27.988-147.208C464.709,64.363,47.292,64.363,47.292,64.363z"/>
<path style="fill:#DFE3E5;" d="M482.235,64.363H29.765c-9.912,0-17.948-8.035-17.948-17.947V17.948C11.818,8.035,19.853,0,29.765,0  h452.469c9.912,0,17.948,8.035,17.948,17.948v28.468C500.182,56.327,492.147,64.363,482.235,64.363z"/>
<path style="opacity:0.1;enable-background:new    ;" d="M482.235,0H436.3c9.912,0,17.948,8.035,17.948,17.948v28.468  c0,9.912-8.035,17.948-17.948,17.948h45.934c9.912,0,17.948-8.035,17.948-17.948V17.948C500.182,8.035,492.147,0,482.235,0z"/>
<g>
	<path style="fill:#4A5058;" d="M175.488,142.525c-4.143,0-7.5-3.358-7.5-7.5V121.66c0-4.142,3.357-7.5,7.5-7.5s7.5,3.358,7.5,7.5   v13.365C182.988,139.167,179.631,142.525,175.488,142.525z"/>
	<path style="fill:#4A5058;" d="M336.513,142.525c-4.143,0-7.5-3.358-7.5-7.5V121.66c0-4.142,3.357-7.5,7.5-7.5s7.5,3.358,7.5,7.5   v13.365C344.013,139.167,340.655,142.525,336.513,142.525z"/>
	<path style="fill:#4A5058;" d="M277.227,145.251c0,12.732-10.547,23-23.381,22.544c-12.224-0.435-21.736-10.853-21.736-23.085   v-15.867c0-3.397,2.754-6.151,6.151-6.151h32.815c3.397,0,6.151,2.754,6.151,6.151V145.251z"/>
</g>
<g>
</g>
<g>
</g>
<g>
</g>
<g>
</g>
<g>
</g>
<g>
</g>
<g>
</g>
<g>
</g>
<g>
</g>
<g>
</g>
<g>
</g>
<g>
</g>
<g>
</g>
<g>
</g>
<g>
</g>
</svg>
