<?xml version="1.0" encoding="iso-8859-1"?>
<!-- Generator: Adobe Illustrator 19.0.0, SVG Export Plug-In . SVG Version: 6.00 Build 0)  -->
<svg xmlns="http://www.w3.org/2000/svg" xmlns:xlink="http://www.w3.org/1999/xlink" version="1.1" id="Capa_1" x="0px" y="0px" viewBox="0 0 512 512" style="enable-background:new 0 0 512 512;" xml:space="preserve">
<path style="fill:#80CBDE;" d="M506.901,140.722l-29.292-25.395c-9.317-8.078-10.573-22.08-2.84-31.687l29.393-36.518  c8.643-10.737-0.857-26.407-14.374-23.711l-38.63,7.705c-33.432,6.668-67.976,5.221-100.734-4.218l0,0  c-26.326-7.586-53.586-11.436-80.983-11.436h-48.814c-21.984,0-39.805,17.821-39.805,39.805v316.59h88.619V160.441l0,0  c27.397,0,54.657,3.849,80.983,11.436l0,0c32.758,9.44,67.302,10.887,100.735,4.218l48.966-9.766  C512.151,163.93,516.167,148.755,506.901,140.722z"/>
<path style="opacity:0.1;enable-background:new    ;" d="M180.821,225.178v146.679h88.619v-88.85  C250.266,253.639,218.372,232.184,180.821,225.178z"/>
<ellipse style="fill:#80CBDE;" cx="134.72" cy="371.859" rx="134.72" ry="124.68"/>
<path style="opacity:0.1;enable-background:new    ;" d="M223.8,278.334c14.012,19.667,22.175,43.219,22.175,68.538  c0,68.858-60.316,124.679-134.72,124.679c-34.154,0-65.334-11.769-89.08-31.155c24.095,33.819,65.5,56.141,112.545,56.141  c74.404,0,134.72-55.821,134.72-124.679C269.44,334.608,251.784,301.18,223.8,278.334z"/>
<g>
	<path style="fill:#4A5058;" d="M59.389,384.743c-4.142,0-7.5-3.358-7.5-7.5v-12.505c0-4.142,3.358-7.5,7.5-7.5s7.5,3.358,7.5,7.5   v12.505C66.889,381.385,63.531,384.743,59.389,384.743z"/>
	<path style="fill:#4A5058;" d="M210.051,384.743c-4.142,0-7.5-3.358-7.5-7.5v-12.505c0-4.142,3.358-7.5,7.5-7.5s7.5,3.358,7.5,7.5   v12.505C217.551,381.385,214.193,384.743,210.051,384.743z"/>
	<path style="fill:#4A5058;" d="M134.72,394.345c-9.779,0-19.079-4.235-25.515-11.62c-2.722-3.123-2.396-7.86,0.726-10.582   c3.123-2.722,7.86-2.397,10.582,0.726c3.587,4.115,8.765,6.476,14.207,6.476s10.621-2.36,14.207-6.475   c2.721-3.124,7.459-3.448,10.582-0.727s3.448,7.459,0.727,10.581C153.8,390.109,144.5,394.345,134.72,394.345z"/>
</g>
<g>
</g>
<g>
</g>
<g>
</g>
<g>
</g>
<g>
</g>
<g>
</g>
<g>
</g>
<g>
</g>
<g>
</g>
<g>
</g>
<g>
</g>
<g>
</g>
<g>
</g>
<g>
</g>
<g>
</g>
</svg>
