<?xml version="1.0" encoding="iso-8859-1"?>
<!-- Generator: Adobe Illustrator 19.0.0, SVG Export Plug-In . SVG Version: 6.00 Build 0)  -->
<svg xmlns="http://www.w3.org/2000/svg" xmlns:xlink="http://www.w3.org/1999/xlink" version="1.1" id="Capa_1" x="0px" y="0px" viewBox="0 0 512 512" style="enable-background:new 0 0 512 512;" xml:space="preserve">
<path style="fill:#E8618C;" d="M239.527,500.706L239.527,500.706c-35.627,20.169-80.875,6.883-99.942-29.346l0,0  c-5.469-10.392-15.99-17.154-27.716-17.812l0,0c-40.875-2.294-71.757-37.934-68.211-78.72l0,0  c1.017-11.7-4.178-23.076-13.686-29.968l0,0c-33.146-24.029-39.857-70.707-14.824-103.101l0,0c7.181-9.292,8.961-21.671,4.689-32.61  l0,0c-14.893-38.134,4.697-81.031,43.27-94.748l0,0c11.065-3.935,19.255-13.386,21.575-24.899l0,0  c8.088-40.132,47.76-65.628,87.626-56.314l0,0c11.436,2.672,23.435-0.851,31.611-9.282l0,0c28.501-29.389,75.66-29.389,104.161,0  l0,0c8.176,8.431,20.175,11.954,31.611,9.282l0,0c39.866-9.315,79.538,16.181,87.626,56.314l0,0  c2.32,11.512,10.51,20.964,21.575,24.899l0,0c38.573,13.717,58.163,56.614,43.27,94.748l0,0c-4.272,10.939-2.492,23.318,4.689,32.61  l0,0c25.034,32.394,18.322,79.072-14.824,103.101l0,0c-9.508,6.893-14.703,18.269-13.686,29.968l0,0  c3.546,40.785-27.336,76.426-68.211,78.72l0,0c-11.725,0.658-22.246,7.419-27.716,17.812l0,0  c-19.067,36.228-64.315,49.514-99.942,29.346l0,0C262.253,494.92,249.747,494.92,239.527,500.706z"/>
<path style="fill:#FFE584;" d="M154.443,31.293c-33.217,0.595-62.89,24.112-69.761,58.209l0,0  c-2.32,11.512-10.51,20.964-21.575,24.899l0,0c-35.621,12.668-55.03,50.218-46.066,85.924l105.229,99.64  c0.305-0.476,0.656-0.931,1.107-1.326c6.782-5.955,11.069-14.677,11.069-24.414c0-0.168-0.023-0.33-0.025-0.497  c1.786,0.304,3.611,0.497,5.484,0.497c9.737,0,18.459-4.286,24.414-11.069c2.457-2.798,6.762-2.798,9.219,0  c4.501,5.126,10.584,8.823,17.49,10.324L154.443,31.293z"/>
<path style="fill:#FDB876;" d="M448.893,114.4L448.893,114.4c-11.065-3.935-19.255-13.386-21.575-24.899l0,0  c-6.872-34.097-36.544-57.614-69.761-58.209l-36.584,242.186c6.906-1.501,12.989-5.198,17.49-10.324  c2.457-2.798,6.762-2.798,9.219,0c5.955,6.782,14.677,11.069,24.414,11.069c1.873,0,3.698-0.193,5.484-0.497  c-0.003,0.167-0.025,0.329-0.025,0.497c0,9.737,4.286,18.459,11.069,24.414c0.451,0.396,0.801,0.85,1.107,1.326l105.229-99.64  C503.922,164.619,484.514,127.068,448.893,114.4z"/>
<path style="opacity:0.2;enable-background:new    ;" d="M388.623,365.905c2.798-2.457,2.798-6.762,0-9.219  c-6.782-5.955-11.069-14.677-11.069-24.414s4.286-18.459,11.069-24.414c2.798-2.457,2.798-6.762,0-9.219  c-6.782-5.955-11.069-14.677-11.069-24.414c0-0.168,0.023-0.33,0.025-0.497c-1.786,0.304-3.611,0.497-5.484,0.497  c-9.737,0-18.459-4.286-24.414-11.069c-2.457-2.798-6.762-2.798-9.219,0c-5.955,6.782-14.677,11.069-24.414,11.069  s-18.459-4.286-24.414-11.069c-2.457-2.798-6.762-2.798-9.219,0c-5.956,6.782-14.677,11.069-24.414,11.069  s-18.459-4.286-24.414-11.069c-2.457-2.798-6.762-2.798-9.219,0c-5.955,6.782-14.677,11.069-24.414,11.069  s-18.459-4.286-24.414-11.069c-2.457-2.798-6.762-2.798-9.219,0c-5.955,6.782-14.677,11.069-24.414,11.069  c-1.873,0-3.697-0.193-5.484-0.497c0.003,0.167,0.025,0.329,0.025,0.497c0,9.737-4.287,18.459-11.069,24.414  c-2.798,2.457-2.798,6.762,0,9.219c6.782,5.956,11.069,14.677,11.069,24.414s-4.287,18.459-11.069,24.414  c-2.798,2.457-2.798,6.762,0,9.219c6.782,5.956,11.069,14.677,11.069,24.414s-4.287,18.459-11.069,24.414  c-2.798,2.457-2.798,6.762,0,9.219c6.782,5.955,11.069,14.677,11.069,24.414c0,4.672-0.996,9.106-2.772,13.117  c3.193,2.719,5.896,6.049,7.911,9.876l0,0c19.067,36.228,64.315,49.514,99.942,29.346l0,0c10.22-5.786,22.726-5.786,32.946,0l0,0  c35.627,20.169,80.875,6.883,99.942-29.346l0,0c2.014-3.828,4.718-7.158,7.911-9.876c-1.776-4.011-2.772-8.445-2.772-13.117  c0-9.737,4.286-18.459,11.069-24.414c2.798-2.457,2.798-6.762,0-9.219c-6.782-5.955-11.069-14.677-11.069-24.414  C377.554,380.582,381.84,371.86,388.623,365.905z"/>
<path style="fill:#80CBDE;" d="M339.692,33.188L339.692,33.188c-11.436,2.672-23.435-0.851-31.611-9.282l0,0  c-28.501-29.389-75.66-29.389-104.161,0l0,0c-8.176,8.431-20.175,11.954-31.611,9.282l0,0c-5.996-1.401-11.985-2-17.865-1.895  l36.585,242.186c2.231,0.485,4.547,0.745,6.924,0.745c9.737,0,18.459-4.286,24.414-11.069c2.457-2.798,6.762-2.798,9.219,0  c5.955,6.782,14.677,11.069,24.414,11.069c9.737,0,18.459-4.286,24.414-11.069c2.457-2.798,6.762-2.798,9.219,0  c5.955,6.782,14.677,11.069,24.414,11.069c2.378,0,4.693-0.259,6.924-0.745l36.584-242.186  C351.676,31.188,345.687,31.787,339.692,33.188z"/>
<g style="opacity:0.1;">
	<path d="M79.753,189.15c-2.193,0-4.367-0.957-5.849-2.799C70.419,182.019,68.5,176.567,68.5,171c0-13.509,10.991-24.5,24.5-24.5   s24.5,10.991,24.5,24.5c0,4.142-3.358,7.5-7.5,7.5s-7.5-3.358-7.5-7.5c0-5.238-4.262-9.5-9.5-9.5s-9.5,4.262-9.5,9.5   c0,2.19,0.723,4.247,2.092,5.948c2.596,3.228,2.085,7.948-1.143,10.545C83.063,188.608,81.403,189.149,79.753,189.15z"/>
	<path d="M400.214,239.117c-3.78,0-7.031-2.849-7.447-6.693c-0.446-4.118,2.531-7.818,6.649-8.264   c2.17-0.235,4.136-1.178,5.686-2.727c3.703-3.704,3.703-9.73-0.001-13.435c-3.704-3.704-9.731-3.704-13.436,0   c-1.549,1.549-2.492,3.515-2.727,5.685c-0.446,4.118-4.147,7.1-8.264,6.649c-4.118-0.446-7.095-4.146-6.649-8.264   c0.599-5.527,3.097-10.739,7.033-14.676c9.553-9.553,25.096-9.553,34.648,0c9.552,9.552,9.552,25.095,0,34.648   c-3.938,3.937-9.15,6.435-14.677,7.033C400.757,239.103,400.483,239.117,400.214,239.117z"/>
	<path d="M176.344,104.867c-4.142,0-7.5-3.358-7.5-7.5c0-5.238-4.262-9.5-9.5-9.5s-9.5,4.262-9.5,9.5c0,4.142-3.358,7.5-7.5,7.5   s-7.5-3.358-7.5-7.5c0-13.509,10.991-24.5,24.5-24.5s24.5,10.991,24.5,24.5C183.844,101.509,180.486,104.867,176.344,104.867z"/>
	<path d="M256,204.426c-4.142,0-7.5-3.358-7.5-7.5c0-5.238-4.262-9.5-9.5-9.5s-9.5,4.262-9.5,9.5c0,4.142-3.358,7.5-7.5,7.5   s-7.5-3.358-7.5-7.5c0-13.509,10.991-24.5,24.5-24.5s24.5,10.991,24.5,24.5C263.5,201.068,260.142,204.426,256,204.426z"/>
	<path d="M361.797,137.832c-0.852,0-1.718-0.146-2.565-0.455c-3.892-1.417-5.899-5.721-4.482-9.613   c1.792-4.922-0.756-10.384-5.678-12.176c-4.92-1.79-10.385,0.756-12.176,5.679c-1.417,3.893-5.722,5.898-9.613,4.482   c-3.892-1.417-5.899-5.721-4.482-9.613c4.621-12.694,18.708-19.264,31.402-14.643c6.15,2.239,11.06,6.738,13.825,12.668   c2.766,5.932,3.056,12.584,0.817,18.734C367.736,135.941,364.86,137.832,361.797,137.832z"/>
</g>
<path style="opacity:0.1;enable-background:new    ;" d="M496.851,241.759L496.851,241.759c-7.181-9.292-8.961-21.671-4.689-32.61  l0,0c14.893-38.134-4.697-81.031-43.27-94.748l0,0c-11.065-3.935-19.255-13.386-21.575-24.899l0,0  c-7.792-38.666-44.904-63.731-83.259-57.182c18.149,9.9,31.99,27.453,36.408,49.374l0,0c2.32,11.513,10.51,20.964,21.575,24.899l0,0  c38.573,13.717,58.163,56.614,43.27,94.748l0,0c-4.272,10.939-2.493,23.318,4.689,32.61l0,0  c25.034,32.394,18.322,79.072-14.824,103.101l0,0c-9.508,6.893-14.703,18.269-13.686,29.968l0,0  c2.759,31.73-15.324,60.337-42.733,72.561c-0.784,2.793-1.204,5.74-1.204,8.786c0,4.672,0.996,9.106,2.772,13.117l0,0  c5.476-4.663,12.398-7.52,19.805-7.935l0,0c40.875-2.294,71.757-37.934,68.211-78.72l0,0c-1.017-11.7,4.178-23.076,13.686-29.968  l0,0C515.174,320.831,521.885,274.153,496.851,241.759z"/>
<g>
</g>
<g>
</g>
<g>
</g>
<g>
</g>
<g>
</g>
<g>
</g>
<g>
</g>
<g>
</g>
<g>
</g>
<g>
</g>
<g>
</g>
<g>
</g>
<g>
</g>
<g>
</g>
<g>
</g>
</svg>
