<?xml version="1.0" encoding="iso-8859-1"?>
<!-- Generator: Adobe Illustrator 19.0.0, SVG Export Plug-In . SVG Version: 6.00 Build 0)  -->
<svg xmlns="http://www.w3.org/2000/svg" xmlns:xlink="http://www.w3.org/1999/xlink" version="1.1" id="Capa_1" x="0px" y="0px" viewBox="0 0 512.001 512.001" style="enable-background:new 0 0 512.001 512.001;" xml:space="preserve">
<g>
	<path style="fill:#DFE3E5;" d="M414.603,211.742c-1.225,0-2.467-0.301-3.615-0.934c-3.627-2.001-4.946-6.563-2.945-10.189   c14.046-25.466,21.471-54.4,21.471-83.675c0-29.273-7.424-58.207-21.47-83.674c-2-3.627-0.682-8.189,2.945-10.189   c3.627-2.002,8.189-0.682,10.189,2.945c15.266,27.679,23.335,59.118,23.335,90.918c0,31.801-8.069,63.241-23.336,90.919   C419.81,210.341,417.247,211.742,414.603,211.742z"/>
	<path style="fill:#DFE3E5;" d="M385.87,195.928c-1.225,0-2.467-0.301-3.615-0.934c-3.627-2.001-4.946-6.563-2.945-10.189   c11.391-20.653,17.412-44.119,17.412-67.86c0-23.74-6.02-47.204-17.41-67.855c-2-3.627-0.682-8.189,2.945-10.19   c3.627-2.002,8.189-0.682,10.189,2.945c12.61,22.864,19.275,48.833,19.275,75.1c0,26.269-6.666,52.239-19.277,75.104   C391.077,194.527,388.513,195.928,385.87,195.928z"/>
	<path style="fill:#DFE3E5;" d="M97.397,211.742c-2.644,0-5.207-1.4-6.574-3.879c-15.267-27.678-23.336-59.118-23.336-90.919   c0-31.8,8.069-63.239,23.335-90.918c2.001-3.628,6.563-4.945,10.189-2.945c3.627,2,4.946,6.563,2.945,10.189   c-14.045,25.467-21.47,54.4-21.47,83.674c0,29.275,7.424,58.208,21.471,83.675c2.001,3.627,0.682,8.189-2.945,10.189   C99.864,211.441,98.622,211.742,97.397,211.742z"/>
	<path style="fill:#DFE3E5;" d="M126.13,195.928c-2.644,0-5.207-1.4-6.574-3.879c-12.611-22.865-19.277-48.836-19.277-75.104   c0-26.267,6.665-52.236,19.275-75.1c2-3.627,6.563-4.945,10.189-2.945c3.627,2,4.946,6.563,2.945,10.19   c-11.39,20.651-17.41,44.115-17.41,67.855c0,23.742,6.021,47.208,17.412,67.86c2.001,3.627,0.682,8.189-2.945,10.189   C128.598,195.627,127.355,195.928,126.13,195.928z"/>
</g>
<circle style="fill:#4A5058;" cx="256" cy="116.94" r="116.94"/>
<path style="opacity:0.1;enable-background:new    ;" d="M315.65,16.345c19.96,20.977,32.212,49.357,32.212,80.599  c0,6.82-0.59,13.5-1.71,20H139.056c0,6.999,0.617,13.854,1.796,20.515H340.65c-16.479,44.617-59.389,76.429-109.732,76.429  c-21.79,0-42.184-5.967-59.65-16.345c21.303,22.389,51.387,36.345,84.732,36.345c64.586,0,116.944-52.358,116.944-116.944  C372.944,74.148,349.951,36.728,315.65,16.345z"/>
<path style="fill:#7CD1A9;" d="M357.038,167.858H154.962c-6.439,0-11.217,5.971-9.803,12.253l49.391,219.559  c2.395,10.646,11.849,18.21,22.761,18.21h77.378c10.912,0,20.366-7.564,22.761-18.21l49.391-219.559  C368.255,173.83,363.477,167.858,357.038,167.858z"/>
<path style="fill:#4A5058;" d="M281.053,417.881h-50.106v77.68c0,9.079,7.36,16.44,16.439,16.44h17.228  c9.079,0,16.439-7.36,16.439-16.44V417.881z"/>
<g>
	<polygon style="fill:#FFE584;" points="179.341,332.062 188.499,372.775 323.501,372.775 332.659,332.062  "/>
	<path style="fill:#FFE584;" d="M357.038,167.858H154.962c-6.439,0-11.216,5.971-9.803,12.253l6.402,28.459H360.44l6.402-28.459   C368.255,173.83,363.477,167.858,357.038,167.858z"/>
</g>
<path style="fill:#DFE3E5;" d="M379.309,124.444H132.692c-4.142,0-7.5-3.358-7.5-7.5s3.358-7.5,7.5-7.5h246.615  c4.142,0,7.5,3.358,7.5,7.5C386.809,121.086,383.451,124.444,379.309,124.444z"/>
<rect x="230.95" y="417.88" style="opacity:0.1;enable-background:new    ;" width="50.11" height="28.373"/>
<g style="opacity:0.2;">
	<circle style="fill:#FFFFFF;" cx="303.56" cy="40.16" r="7.411"/>
	<circle style="fill:#FFFFFF;" cx="328.18" cy="69.1" r="7.411"/>
	<circle style="fill:#FFFFFF;" cx="175" cy="84.36" r="7.411"/>
	<circle style="fill:#FFFFFF;" cx="191" cy="60.04" r="7.411"/>
	<circle style="fill:#FFFFFF;" cx="300.79" cy="64.789" r="7.411"/>
</g>
<path style="opacity:0.1;enable-background:new    ;" d="M357.038,167.858H325.54c6.439,0,11.216,5.971,9.803,12.253L285.953,399.67  c-2.395,10.646-11.849,18.21-22.761,18.21h31.499c10.912,0,20.366-7.564,22.761-18.21l49.391-219.559  C368.255,173.83,363.477,167.858,357.038,167.858z"/>
<g>
	<path style="fill:#4A5058;" d="M200.471,272.8c-4.142,0-7.5-3.358-7.5-7.5V256c0-4.142,3.358-7.5,7.5-7.5s7.5,3.358,7.5,7.5v9.3   C207.971,269.442,204.613,272.8,200.471,272.8z"/>
	<path style="fill:#4A5058;" d="M312.526,272.8c-4.142,0-7.5-3.358-7.5-7.5V256c0-4.142,3.358-7.5,7.5-7.5s7.5,3.358,7.5,7.5v9.3   C320.026,269.442,316.668,272.8,312.526,272.8z"/>
	<path style="fill:#4A5058;" d="M271.27,272.417c0,8.86-7.34,16.006-16.271,15.688c-8.507-0.303-15.126-7.552-15.126-16.064v-11.042   c0-2.364,1.916-4.28,4.28-4.28h22.836c2.364,0,4.28,1.916,4.28,4.28v11.418H271.27z"/>
</g>
<g>
</g>
<g>
</g>
<g>
</g>
<g>
</g>
<g>
</g>
<g>
</g>
<g>
</g>
<g>
</g>
<g>
</g>
<g>
</g>
<g>
</g>
<g>
</g>
<g>
</g>
<g>
</g>
<g>
</g>
</svg>
