<?xml version="1.0" encoding="iso-8859-1"?>
<!-- Generator: Adobe Illustrator 19.0.0, SVG Export Plug-In . SVG Version: 6.00 Build 0)  -->
<svg xmlns="http://www.w3.org/2000/svg" xmlns:xlink="http://www.w3.org/1999/xlink" version="1.1" id="Capa_1" x="0px" y="0px" viewBox="0 0 511.996 511.996" style="enable-background:new 0 0 511.996 511.996;" xml:space="preserve">
<path style="fill:#FFE584;" d="M300.53,405.419l-77.566-213.112c-3.507-9.635-15.537-12.834-23.366-6.213L6.368,349.499  c-5.75,4.863-7.859,12.794-5.284,19.871l15.662,43.032c2.576,7.077,9.29,11.797,16.82,11.826l253.057,0.97  C296.878,425.237,304.037,415.054,300.53,405.419z"/>
<g>
	<path style="fill:#E8618C;" d="M29.589,329.862L6.368,349.499c-5.75,4.862-7.859,12.794-5.284,19.871l15.662,43.032   c2.576,7.077,9.29,11.797,16.82,11.826l30.411,0.117L29.589,329.862z"/>
	<path style="fill:#E8618C;" d="M300.53,405.419l-77.566-213.112c-3.507-9.635-15.537-12.834-23.366-6.213l-39.605,33.492   l74.764,205.412l51.868,0.199C296.878,425.237,304.037,415.054,300.53,405.419z"/>
</g>
<g>
	<path style="fill:#80CBDE;" d="M267.729,224.446c-3.065,0-5.94-1.891-7.049-4.937c-1.417-3.892,0.591-8.196,4.482-9.613   c12.641-4.6,21.56-16.232,22.722-29.633c2.137-24.644,21.602-43.706,46.285-45.326c4.137-0.263,7.704,2.859,7.976,6.993   c0.271,4.133-2.86,7.704-6.993,7.975c-17.237,1.131-30.831,14.444-32.324,31.654c-1.664,19.189-14.435,35.846-32.534,42.433   C269.447,224.3,268.58,224.446,267.729,224.446z"/>
	<path style="fill:#80CBDE;" d="M360.439,396.143c-14.369,0-28.461-6.282-38.26-18.153c-2.637-3.195-2.185-7.922,1.01-10.559   c3.193-2.636,7.921-2.186,10.559,1.01c10.996,13.323,29.747,16.566,44.578,7.715c16.539-9.87,37.518-9.25,53.447,1.582   c3.425,2.329,4.314,6.994,1.984,10.419c-2.33,3.425-6.995,4.313-10.42,1.984c-11.123-7.564-25.773-7.999-37.325-1.105   C377.989,393.825,369.162,396.143,360.439,396.143z"/>
	<path style="fill:#80CBDE;" d="M473.06,288.483c-10.914,0-21.86-3.626-31.032-10.942c-10.515-8.387-25.088-9.936-37.133-3.942   c-3.708,1.846-8.21,0.335-10.056-3.373c-1.846-3.708-0.336-8.21,3.372-10.056c17.241-8.582,38.114-6.366,53.171,5.645   c13.504,10.773,32.518,10.089,45.212-1.628c3.045-2.809,7.788-2.62,10.598,0.424c2.81,3.043,2.62,7.789-0.424,10.598   C497.213,284.029,485.155,288.483,473.06,288.483z"/>
</g>
<g>
	<path style="fill:#FDB876;" d="M367.727,204.123c-0.792,0-1.589-0.028-2.392-0.086c-4.132-0.297-7.24-3.887-6.942-8.019   c0.297-4.131,3.887-7.236,8.019-6.942c9.416,0.68,17.558-6.134,18.569-15.504c1.034-9.568,6.216-18.123,14.218-23.471   c8-5.348,17.888-6.864,27.123-4.16c3.976,1.163,6.254,5.33,5.091,9.305c-1.164,3.974-5.325,6.255-9.306,5.09   c-4.961-1.452-10.273-0.638-14.573,2.235c-4.3,2.874-7.084,7.47-7.639,12.611C398.096,191.822,384.193,204.122,367.727,204.123z"/>
	<path style="fill:#FDB876;" d="M462.431,355.476c-4.872,0-9.798-1.423-14.147-4.378c-3.426-2.328-4.315-6.993-1.987-10.418   c2.328-3.426,6.992-4.317,10.419-1.988c4.533,3.079,10.625,2.031,13.865-2.39c4.412-6.017,11.212-9.742,18.658-10.22   c7.45-0.474,14.666,2.347,19.811,7.75c2.856,3,2.74,7.747-0.26,10.603c-2.999,2.857-7.746,2.74-10.604-0.26   c-2.073-2.178-4.985-3.308-7.986-3.124c-3.002,0.193-5.743,1.695-7.522,4.12C477.746,351.896,470.156,355.476,462.431,355.476z"/>
	<path style="fill:#FDB876;" d="M295.573,293.859c-8.264,0-16.23-3.15-22.3-8.915c-3.004-2.853-3.126-7.6-0.272-10.603   c2.853-3.004,7.601-3.125,10.603-0.273c3.749,3.561,8.84,5.269,13.983,4.676c5.137-0.59,9.715-3.405,12.56-7.724   c9.648-14.647,28.944-18.978,43.928-9.86c3.538,2.153,4.661,6.768,2.508,10.306c-2.154,3.539-6.77,4.661-10.307,2.507   c-8.05-4.899-18.417-2.573-23.602,5.298c-5.295,8.038-13.815,13.277-23.376,14.375C298.054,293.788,296.81,293.859,295.573,293.859   z"/>
</g>
<g>
	<circle style="fill:#FFE584;" cx="386.32" cy="103.764" r="16.966"/>
	<circle style="fill:#FFE584;" cx="495.03" cy="184.844" r="16.966"/>
	<circle style="fill:#FFE584;" cx="394.71" cy="325.934" r="16.966"/>
</g>
<path style="fill:#80CBDE;" d="M186.331,403.378l-12.369-8.165c-1.836-1.212-2.662-3.482-2.035-5.59l4.226-14.206  c1.075-3.615-2.092-7.071-5.786-6.314l-14.52,2.972c-2.155,0.441-4.344-0.58-5.391-2.514l-7.056-13.034  c-1.796-3.316-6.479-3.521-8.556-0.374l-8.166,12.369c-1.212,1.835-3.482,2.662-5.59,2.034l-14.205-4.226  c-3.615-1.075-7.071,2.091-6.314,5.786l2.972,14.52c0.441,2.155-0.58,4.344-2.514,5.391l-13.034,7.057  c-3.316,1.795-3.521,6.479-0.374,8.556l12.369,8.165c1.835,1.212,2.662,3.482,2.035,5.59l-0.92,3.091l69.383,0.266l-0.076-0.371  c-0.441-2.155,0.58-4.344,2.514-5.391l13.033-7.056C189.273,410.139,189.478,405.455,186.331,403.378z"/>
<path style="fill:#FDB876;" d="M164.418,289.836c1.212-1.836,3.482-2.662,5.59-2.034l14.206,4.226  c3.615,1.076,7.071-2.091,6.314-5.786l-2.972-14.52c-0.441-2.155,0.58-4.344,2.514-5.391l13.033-7.056  c3.316-1.796,3.521-6.479,0.374-8.556l-12.369-8.165c-1.835-1.212-2.662-3.482-2.035-5.59l4.226-14.206  c1.075-3.615-2.091-7.071-5.786-6.314l-14.52,2.972c-2.155,0.441-4.344-0.58-5.391-2.514l-1.392-2.571l-53.934,45.61l4.858,3.208  c1.835,1.212,2.662,3.482,2.035,5.59l-4.226,14.206c-1.075,3.615,2.091,7.071,5.786,6.315l14.52-2.972  c2.155-0.441,4.344,0.58,5.391,2.514l7.056,13.033c1.795,3.316,6.479,3.521,8.556,0.374L164.418,289.836z"/>
<path style="opacity:0.1;enable-background:new    ;" d="M300.53,405.419l-12.559-34.507c3.507,9.635-3.652,19.818-13.906,19.779  l-253.057-0.97c-7.531-0.029-14.245-4.749-16.82-11.826l12.559,34.507c2.576,7.077,9.29,11.797,16.82,11.826l253.057,0.97  C296.878,425.237,304.037,415.054,300.53,405.419z"/>
<g>
</g>
<g>
</g>
<g>
</g>
<g>
</g>
<g>
</g>
<g>
</g>
<g>
</g>
<g>
</g>
<g>
</g>
<g>
</g>
<g>
</g>
<g>
</g>
<g>
</g>
<g>
</g>
<g>
</g>
</svg>
