<?xml version="1.0" encoding="iso-8859-1"?>
<!-- Generator: Adobe Illustrator 19.0.0, SVG Export Plug-In . SVG Version: 6.00 Build 0)  -->
<svg xmlns="http://www.w3.org/2000/svg" xmlns:xlink="http://www.w3.org/1999/xlink" version="1.1" id="Capa_1" x="0px" y="0px" viewBox="0 0 512 512" style="enable-background:new 0 0 512 512;" xml:space="preserve">
<path style="fill:#E8618C;" d="M295.735,398.454c0,26.986-10.917,83.062-46.156,111.191c-5.895,4.706-14.773,2.031-17.2-5.112  c-18.571-54.646-49.801-60.811-44.897-110.652c2.651-26.94,24.274-48.664,51.318-49.852  C270.005,342.658,295.735,367.551,295.735,398.454z"/>
<path style="fill:#FDB876;" d="M268,386.677c0,13.224-5.35,40.702-22.617,54.485c-2.889,2.306-7.239,0.995-8.429-2.505  c-9.1-26.777-24.403-29.798-22-54.221c1.299-13.201,11.894-23.846,25.147-24.428C255.392,359.336,268,371.534,268,386.677z"/>
<path style="fill:#80CBDE;" d="M338.846,137.289H143.855v211.798c0,11.146,9.035,20.181,20.181,20.181h154.628  c11.146,0,20.181-9.035,20.181-20.181V137.289H338.846z"/>
<path style="opacity:0.1;enable-background:new    ;" d="M143.855,137.289v50.957c53.709,12.865,109.327,14.942,163.655,6.245  v154.596c0,11.146-9.035,20.181-20.181,20.181h31.336c11.146,0,20.181-9.035,20.181-20.181V137.289H143.855z"/>
<g>
	<path style="fill:#4A5058;" d="M185.323,267.478c-4.143,0-7.5-3.358-7.5-7.5v-9.3c0-4.142,3.357-7.5,7.5-7.5s7.5,3.358,7.5,7.5v9.3   C192.823,264.12,189.465,267.478,185.323,267.478z"/>
	<path style="fill:#4A5058;" d="M297.378,267.478c-4.143,0-7.5-3.358-7.5-7.5v-9.3c0-4.142,3.357-7.5,7.5-7.5s7.5,3.358,7.5,7.5v9.3   C304.878,264.12,301.521,267.478,297.378,267.478z"/>
	<path style="fill:#4A5058;" d="M256.122,267.094c0,8.86-7.34,16.006-16.271,15.688c-8.507-0.302-15.126-7.552-15.126-16.064   v-11.042c0-2.364,1.916-4.28,4.28-4.28h22.836c2.364,0,4.28,1.916,4.28,4.28v11.418H256.122z"/>
</g>
<g>
	<path style="opacity:0.3;fill:#FFFFFF;enable-background:new    ;" d="M327.091,318.117c-1.452-0.527-2.726-1.453-3.677-2.671   l-11.548-14.803c-3.292-4.22-9.674-4.22-12.966,0l-11.548,14.803c-0.95,1.218-2.224,2.144-3.677,2.671l-17.647,6.408   c-5.031,1.827-7.003,7.897-4.007,12.332l10.51,15.557c0.865,1.28,1.352,2.778,1.404,4.322l0.428,12.533h44.299   c7.974,0,14.847-4.636,18.125-11.35l0.04-1.184c0.053-1.544,0.539-3.042,1.404-4.322l0.406-0.601   c0.121-0.893,0.205-1.798,0.205-2.725v-26.702L327.091,318.117z"/>
	<path style="opacity:0.3;fill:#FFFFFF;enable-background:new    ;" d="M196.157,161.565l-17.647-6.408   c-1.452-0.527-2.726-1.453-3.677-2.671l-11.548-14.803c-0.109-0.14-0.23-0.263-0.345-0.393h-12.276   c-0.116,0.13-0.236,0.253-0.345,0.393l-6.464,8.286v72.073l10.675-3.07c1.485-0.427,3.06-0.427,4.545,0l18.043,5.188   c5.144,1.479,10.307-2.272,10.49-7.621l0.641-18.763c0.053-1.544,0.54-3.042,1.404-4.322l10.51-15.557   C203.16,169.461,201.188,163.391,196.157,161.565z"/>
	<path style="opacity:0.3;fill:#FFFFFF;enable-background:new    ;" d="M180.483,309.65l-10.281-3.733   c-0.846-0.307-1.588-0.847-2.142-1.556l-6.727-8.624c-1.918-2.458-5.636-2.458-7.554,0l-6.727,8.624   c-0.554,0.71-1.296,1.249-2.142,1.556l-1.055,0.383v37.638c0.605,0.069,1.235,0.03,1.866-0.152l10.511-3.022   c0.865-0.249,1.783-0.249,2.648,0l10.512,3.022c2.997,0.862,6.005-1.324,6.111-4.44l0.374-10.931   c0.031-0.9,0.314-1.772,0.818-2.518l6.123-9.063C184.563,314.25,183.414,310.714,180.483,309.65z"/>
</g>
<path style="fill:#E8618C;" d="M228.624,5.707L122.307,125.072c-10.315,11.58-4.828,29.967,10.145,34.002l0,0  c71.327,19.22,146.47,19.22,217.796,0l0,0c14.974-4.035,20.46-22.422,10.145-34.002L254.077,5.707  C247.299-1.902,235.402-1.902,228.624,5.707z"/>
<path style="opacity:0.1;enable-background:new    ;" d="M360.395,125.072L254.077,5.707c-6.764-7.594-18.625-7.607-25.41-0.044  L331.148,120.72c10.315,11.58,4.828,29.967-10.145,34.002l0,0c-50.924,13.722-103.793,17.64-155.829,11.768  c61.333,11.353,124.576,8.885,185.075-7.417l0,0C365.223,155.039,370.709,136.652,360.395,125.072z"/>
<g>
	<path style="fill:#FDB876;" d="M427.328,93.828c-4.143,0-7.5-3.358-7.5-7.5V55.035c0-4.142,3.357-7.5,7.5-7.5s7.5,3.358,7.5,7.5   v31.292C434.828,90.47,431.47,93.828,427.328,93.828z"/>
	<path style="fill:#FDB876;" d="M410.724,110.432h-31.293c-4.143,0-7.5-3.358-7.5-7.5s3.357-7.5,7.5-7.5h31.293   c4.143,0,7.5,3.358,7.5,7.5S414.867,110.432,410.724,110.432z"/>
	<path style="fill:#FDB876;" d="M427.328,158.329c-4.143,0-7.5-3.358-7.5-7.5v-31.293c0-4.142,3.357-7.5,7.5-7.5s7.5,3.358,7.5,7.5   v31.293C434.828,154.971,431.47,158.329,427.328,158.329z"/>
	<path style="fill:#FDB876;" d="M475.225,110.432h-31.293c-4.143,0-7.5-3.358-7.5-7.5s3.357-7.5,7.5-7.5h31.293   c4.143,0,7.5,3.358,7.5,7.5S479.368,110.432,475.225,110.432z"/>
</g>
<g>
	<path style="fill:#FFE584;" d="M406.466,89.57c-1.919,0-3.839-0.732-5.304-2.197l-10.611-10.611c-2.929-2.929-2.929-7.678,0-10.606   c2.93-2.929,7.678-2.929,10.607,0l10.611,10.611c2.929,2.929,2.929,7.678,0,10.606C410.305,88.838,408.385,89.57,406.466,89.57z"/>
	<path style="fill:#FFE584;" d="M395.855,141.905c-1.919,0-3.839-0.732-5.304-2.197c-2.929-2.929-2.929-7.678,0-10.606   l10.611-10.611c2.93-2.929,7.678-2.929,10.607,0s2.929,7.678,0,10.607l-10.611,10.611   C399.694,141.173,397.774,141.905,395.855,141.905z"/>
	<path style="fill:#FFE584;" d="M458.801,141.905c-1.919,0-3.839-0.732-5.304-2.197l-10.611-10.611   c-2.929-2.929-2.929-7.678,0-10.607c2.93-2.929,7.678-2.929,10.607,0l10.611,10.611c2.929,2.929,2.929,7.678,0,10.606   C462.64,141.173,460.72,141.905,458.801,141.905z"/>
	<path style="fill:#FFE584;" d="M448.19,89.57c-1.919,0-3.839-0.732-5.304-2.197c-2.929-2.929-2.929-7.678,0-10.606l10.611-10.611   c2.93-2.929,7.678-2.929,10.607,0s2.929,7.678,0,10.606l-10.611,10.611C452.029,88.838,450.109,89.57,448.19,89.57z"/>
</g>
<g>
	<path style="fill:#FDB876;" d="M69.543,53.615c-1.92,0-3.839-0.732-5.304-2.197L42.113,29.291c-2.929-2.929-2.929-7.678,0-10.606   c2.93-2.929,7.678-2.929,10.607,0l22.127,22.127c2.929,2.929,2.929,7.678,0,10.607C73.382,52.883,71.462,53.615,69.543,53.615z"/>
	<path style="fill:#FDB876;" d="M47.417,99.225c-1.919,0-3.839-0.732-5.304-2.197c-2.929-2.929-2.929-7.678,0-10.606L64.24,64.294   c2.93-2.929,7.678-2.929,10.607,0s2.929,7.678,0,10.606L52.72,97.028C51.255,98.492,49.335,99.225,47.417,99.225z"/>
	<path style="fill:#FDB876;" d="M115.153,99.225c-1.92,0-3.839-0.732-5.304-2.197L87.722,74.9c-2.929-2.929-2.929-7.678,0-10.606   c2.93-2.93,7.678-2.929,10.607,0l22.127,22.128c2.929,2.929,2.929,7.678,0,10.606C118.992,98.492,117.072,99.225,115.153,99.225z"/>
	<path style="fill:#FDB876;" d="M93.026,53.615c-1.919,0-3.839-0.732-5.304-2.197c-2.929-2.929-2.929-7.678,0-10.607l22.127-22.127   c2.93-2.929,7.678-2.929,10.607,0s2.929,7.678,0,10.606L98.33,51.419C96.865,52.883,94.945,53.615,93.026,53.615z"/>
</g>
<g>
	<path style="fill:#FFE584;" d="M51.782,65.356H36.775c-4.143,0-7.5-3.358-7.5-7.5s3.357-7.5,7.5-7.5h15.007   c4.143,0,7.5,3.358,7.5,7.5C59.282,61.999,55.924,65.356,51.782,65.356z"/>
	<path style="fill:#FFE584;" d="M81.285,109.866c-4.143,0-7.5-3.358-7.5-7.5V87.359c0-4.142,3.357-7.5,7.5-7.5s7.5,3.358,7.5,7.5   v15.007C88.785,106.508,85.427,109.866,81.285,109.866z"/>
	<path style="fill:#FFE584;" d="M125.794,65.356h-15.007c-4.143,0-7.5-3.358-7.5-7.5s3.357-7.5,7.5-7.5h15.007   c4.143,0,7.5,3.358,7.5,7.5C133.294,61.999,129.937,65.356,125.794,65.356z"/>
	<path style="fill:#FFE584;" d="M81.285,35.854c-4.143,0-7.5-3.358-7.5-7.5V13.346c0-4.142,3.357-7.5,7.5-7.5s7.5,3.358,7.5,7.5   v15.007C88.785,32.496,85.427,35.854,81.285,35.854z"/>
</g>
<g>
</g>
<g>
</g>
<g>
</g>
<g>
</g>
<g>
</g>
<g>
</g>
<g>
</g>
<g>
</g>
<g>
</g>
<g>
</g>
<g>
</g>
<g>
</g>
<g>
</g>
<g>
</g>
<g>
</g>
</svg>
