<?xml version="1.0" encoding="iso-8859-1"?>
<!-- Generator: Adobe Illustrator 19.0.0, SVG Export Plug-In . SVG Version: 6.00 Build 0)  -->
<svg xmlns="http://www.w3.org/2000/svg" xmlns:xlink="http://www.w3.org/1999/xlink" version="1.1" id="Capa_1" x="0px" y="0px" viewBox="0 0 512.001 512.001" style="enable-background:new 0 0 512.001 512.001;" xml:space="preserve">
<path style="fill:#F98CAE;" d="M331.538,124.393H180.462c-21.525,0-38.975-17.45-38.975-38.975l0,0  c0-21.525,17.45-38.975,38.975-38.975h88.367c15.695,0,29.313-10.835,32.84-26.129l1.756-7.616  c2.931-12.708,18.823-17.048,27.806-7.595l12.434,13.085c17.237,18.139,26.848,42.206,26.848,67.229l0,0  C370.513,106.944,353.063,124.393,331.538,124.393z"/>
<path style="fill:#BD9D7D;" d="M211.399,82.341c-1.919,0-3.839-0.732-5.303-2.197c-2.929-2.929-2.929-7.678,0-10.606l5.885-5.885  c2.929-2.929,7.678-2.929,10.606,0c2.929,2.929,2.929,7.678,0,10.606l-5.885,5.885C215.238,81.608,213.318,82.341,211.399,82.341z"/>
<path style="fill:#FFE584;" d="M328.274,74.198c-0.909,0-1.833-0.167-2.73-0.518l-19.105-7.475c-3.857-1.509-5.762-5.86-4.252-9.717  c1.51-3.857,5.861-5.76,9.717-4.251l19.105,7.475c3.857,1.509,5.762,5.86,4.252,9.717C334.103,72.388,331.272,74.198,328.274,74.198  z"/>
<path style="opacity:0.1;enable-background:new    ;" d="M343.665,18.19L331.231,5.104c-2.739-2.882-6.12-4.475-9.58-4.947  l1.552,1.634c17.237,18.139,26.849,42.207,26.849,67.23l0,0c0,0.041,0,0.081,0,0.122c-0.019,6.246-5.585,11.044-11.795,10.375  c-59.277-6.39-119.11-5.871-178.293,1.59l-18.427,2.323c-0.033,0.658-0.05,1.321-0.05,1.987l0,0  c0,21.525,17.45,38.975,38.975,38.975h151.076c21.525,0,38.975-17.45,38.975-38.975l0,0  C370.513,60.396,360.902,36.329,343.665,18.19z"/>
<circle style="fill:#BD9D7D;" cx="256" cy="308.571" r="184.18"/>
<path style="opacity:0.1;enable-background:new    ;" d="M402.412,196.843c0.001,0,0.002-0.001,0.003-0.001  c-0.033-0.044-0.068-0.086-0.102-0.129c-1.761-2.299-3.569-4.561-5.435-6.773c-0.008,0.001-0.016,0.001-0.024,0.001  C363.07,149.867,312.518,124.393,256,124.393c-59.702,0-112.76,28.414-146.415,72.448c4.825,1.256,9.978,1.637,15.265,0.97  l26.396-3.328c69.561-8.77,139.947-8.77,209.508,0l0,0c9.108,1.148,17.013,6.845,20.973,15.127  c11.483,24.013,17.923,50.897,17.923,79.292c0.001,101.576-82.982,184.386-184.558,184.182c-20.667-0.041-40.533-3.491-59.071-9.809  c28.834,18.673,63.214,29.511,100.131,29.481c101.691-0.083,184.03-82.493,184.029-184.184  C440.181,266.555,426.1,227.832,402.412,196.843z"/>
<path style="fill:#FFE584;" d="M257.334,267.537h-2.668c-36.852,0-65.592,31.916-61.742,68.567l18.475,175.897h89.202  l18.475-175.897C322.926,299.453,294.186,267.537,257.334,267.537z"/>
<g>
	<path style="fill:#80CBDE;" d="M129.819,267.537L129.819,267.537c-41.945,0-71.818,40.734-59.212,80.74l44.919,142.553   c3.971,12.601,15.656,21.171,28.868,21.171h67.005l-19.838-188.867C188.242,291.531,161.595,267.537,129.819,267.537z"/>
	<path style="fill:#80CBDE;" d="M382.181,267.537L382.181,267.537c-31.777,0-58.423,23.994-61.742,55.597l-19.838,188.867h67.005   c13.212,0,24.898-8.57,28.868-21.171l44.919-142.553C453.999,308.271,424.126,267.537,382.181,267.537z"/>
</g>
<path style="fill:#F98CAE;" d="M376.236,177.086l-24.2-3.051c-63.772-8.04-128.3-8.04-192.072,0l-24.2,3.051  C113.596,179.881,94,162.6,94,140.256l0,0c0-18.706,13.919-34.49,32.478-36.83l33.486-4.222c63.771-8.04,128.3-8.04,192.072,0  l33.486,4.222c18.559,2.34,32.478,18.124,32.478,36.83l0,0C418,162.6,398.404,179.881,376.236,177.086z"/>
<path style="opacity:0.1;enable-background:new    ;" d="M397.469,107.051c2.507,5.011,3.912,10.65,3.912,16.586l0,0  c0,22.344-19.596,39.625-41.765,36.83l-24.2-3.051c-63.772-8.04-128.3-8.04-192.072,0l-24.2,3.051  c-7.609,0.959-14.915-0.447-21.229-3.611c6.798,13.568,21.63,22.275,37.849,20.23l24.2-3.051c63.771-8.04,128.3-8.04,192.072,0  l24.2,3.051C398.404,179.881,418,162.6,418,140.256l0,0C418,125.85,409.741,113.185,397.469,107.051z"/>
<path style="opacity:0.1;enable-background:new    ;" d="M382.181,267.537L382.181,267.537c-0.555,0-1.104,0.024-1.656,0.039  c26.186,13.757,40.995,45.021,31.276,75.865l-46.246,146.764c-4.087,12.973-16.118,21.796-29.72,21.796h31.771  c13.212,0,24.898-8.57,28.868-21.171l44.919-142.553C453.999,308.271,424.126,267.537,382.181,267.537z"/>
<g>
	<path style="fill:#4A5058;" d="M180.669,231.686c-4.142,0-7.5-3.358-7.5-7.5v-12.505c0-4.142,3.358-7.5,7.5-7.5s7.5,3.358,7.5,7.5   v12.504C188.169,228.328,184.811,231.686,180.669,231.686z"/>
	<path style="fill:#4A5058;" d="M331.331,231.686c-4.143,0-7.5-3.358-7.5-7.5v-12.505c0-4.142,3.357-7.5,7.5-7.5   c4.142,0,7.5,3.358,7.5,7.5v12.504C338.831,228.328,335.474,231.686,331.331,231.686z"/>
	<path style="fill:#4A5058;" d="M256,241.288c-9.779,0-19.079-4.236-25.515-11.621c-2.721-3.122-2.396-7.86,0.727-10.581   s7.86-2.396,10.582,0.727c3.586,4.115,8.765,6.476,14.207,6.476c5.441,0,10.62-2.36,14.206-6.476   c2.722-3.124,7.458-3.448,10.582-0.727c3.122,2.721,3.448,7.459,0.727,10.581C275.079,237.052,265.779,241.288,256,241.288z"/>
</g>
<path style="fill:#FFE584;" d="M159.819,143.103c-1.919,0-3.839-0.732-5.303-2.197c-2.929-2.929-2.929-7.677,0-10.606l9.519-9.52  c2.929-2.929,7.678-2.93,10.606,0c2.929,2.929,2.929,7.677,0,10.606l-9.519,9.52C163.658,142.371,161.739,143.103,159.819,143.103z"/>
<path style="fill:#BD9D7D;" d="M329.086,134.346c-1.92,0-3.839-0.732-5.304-2.197l-9.663-9.664  c-2.929-2.929-2.929-7.678,0.001-10.606c2.929-2.93,7.678-2.929,10.606,0l9.663,9.664c2.929,2.929,2.929,7.678-0.001,10.606  C332.925,133.613,331.005,134.346,329.086,134.346z"/>
<path style="fill:#FFFFFF;" d="M248.714,138.346c-2.898,0-5.656-1.689-6.883-4.515c-1.65-3.8,0.093-8.217,3.893-9.866l14.392-6.248  c3.798-1.651,8.216,0.093,9.866,3.893c1.65,3.8-0.094,8.217-3.893,9.866l-14.391,6.248  C250.724,138.146,249.71,138.346,248.714,138.346z"/>
<g>
</g>
<g>
</g>
<g>
</g>
<g>
</g>
<g>
</g>
<g>
</g>
<g>
</g>
<g>
</g>
<g>
</g>
<g>
</g>
<g>
</g>
<g>
</g>
<g>
</g>
<g>
</g>
<g>
</g>
</svg>
