<?xml version="1.0" encoding="iso-8859-1"?>
<!-- Generator: Adobe Illustrator 19.0.0, SVG Export Plug-In . SVG Version: 6.00 Build 0)  -->
<svg xmlns="http://www.w3.org/2000/svg" xmlns:xlink="http://www.w3.org/1999/xlink" version="1.1" id="Capa_1" x="0px" y="0px" viewBox="0 0 511.99 511.99" style="enable-background:new 0 0 511.99 511.99;" xml:space="preserve">
<path style="fill:#80CBDE;" d="M281.617,58.292L281.617,58.292c25.541-14.459,57.979-4.934,71.649,21.038l0,0  c8.508,16.165,24.872,26.682,43.111,27.706l0,0c29.303,1.645,51.443,27.195,48.901,56.435l0,0  c-1.582,18.199,6.498,35.893,21.288,46.615l0,0c23.763,17.226,28.574,50.69,10.627,73.914l0,0  c-11.17,14.454-13.939,33.709-7.293,50.725l0,0c10.677,27.339-3.367,58.092-31.021,67.925l0,0  c-17.211,6.121-29.95,20.822-33.559,38.729l0,0c-5.798,28.771-34.239,47.049-62.819,40.371l0,0  c-17.788-4.156-36.453,1.324-49.17,14.438l0,0c-20.433,21.069-54.241,21.069-74.673,0l0,0  c-12.717-13.114-31.382-18.594-49.17-14.438l0,0c-28.58,6.678-57.021-11.6-62.819-40.371l0,0  c-3.609-17.907-16.348-32.609-33.559-38.729l0,0c-27.653-9.834-41.698-40.587-31.02-67.925l0,0  c6.646-17.016,3.877-36.27-7.293-50.725l0,0c-17.947-23.223-13.135-56.687,10.627-73.914l0,0  c14.79-10.722,22.871-28.416,21.288-46.615l0,0c-2.542-29.239,19.597-54.79,48.901-56.435l0,0  c18.239-1.024,34.603-11.541,43.111-27.706l0,0c13.669-25.972,46.108-35.497,71.649-21.038l0,0  C246.268,67.291,265.72,67.291,281.617,58.292z"/>
<path style="opacity:0.1;enable-background:new    ;" d="M255.994,154.143c-97.19,0-175.978,78.788-175.978,175.978  c0,64.876,35.108,121.549,87.359,152.065c0.703-0.134,1.407-0.272,2.111-0.436l0,0c17.788-4.156,36.453,1.324,49.17,14.438l0,0  c20.433,21.069,54.241,21.069,74.673,0l0,0c12.717-13.114,31.382-18.594,49.17-14.438l0,0c0.702,0.164,1.403,0.301,2.105,0.435  c52.254-30.516,87.366-87.187,87.366-152.064C431.972,232.931,353.184,154.143,255.994,154.143z"/>
<circle style="fill:#DFE3E5;" cx="255.994" cy="291.939" r="175.98"/>
<circle style="fill:#FFFFFF;" cx="255.994" cy="291.939" r="175.98"/>
<path style="opacity:0.1;enable-background:new    ;" d="M255.994,115.964c-67.938,0-126.876,38.504-156.205,94.876  c16.801,16.673,45.562,14.742,59.592-5.794l0,0c15.486-22.668,48.922-22.668,64.408,0l0,0c15.486,22.668,48.922,22.668,64.408,0l0,0  c15.486-22.668,48.922-22.668,64.409,0l0,0c12.797,18.731,37.841,21.968,54.895,9.743c6.173,17.948,9.538,37.202,9.538,57.246  c0,97.19-78.788,175.978-175.978,175.978c-53.127,0-100.754-23.543-133.021-60.763c31.33,48.536,85.887,80.671,147.953,80.671  c97.19,0,175.978-78.788,175.978-175.978S353.184,115.964,255.994,115.964z"/>
<g>
	<path style="fill:#4A5058;" d="M157.41,299.158c-4.142,0-7.5-3.358-7.5-7.5v-16.364c0-4.142,3.358-7.5,7.5-7.5s7.5,3.358,7.5,7.5   v16.364C164.91,295.801,161.552,299.158,157.41,299.158z"/>
	<path style="fill:#4A5058;" d="M354.578,299.158c-4.142,0-7.5-3.358-7.5-7.5v-16.364c0-4.142,3.358-7.5,7.5-7.5s7.5,3.358,7.5,7.5   v16.364C362.078,295.801,358.72,299.158,354.578,299.158z"/>
	<path style="fill:#4A5058;" d="M281.985,317.652c0,15.59-12.915,28.163-28.629,27.604c-14.968-0.532-26.615-13.289-26.615-28.266   v-19.428c0-4.16,3.372-7.532,7.532-7.532h40.181c4.16,0,7.532,3.372,7.532,7.532v20.09H281.985z"/>
</g>
<circle style="fill:#E8618C;" cx="254.364" cy="262.849" r="32.703"/>
<path style="opacity:0.1;enable-background:new    ;" d="M273.771,236.527c2.834,4.842,4.465,10.473,4.465,16.489  c0,18.061-14.641,32.703-32.703,32.703c-7.268,0-13.979-2.374-19.408-6.384c5.674,9.696,16.192,16.214,28.238,16.214  c18.061,0,32.703-14.642,32.703-32.703C287.066,252.052,281.834,242.483,273.771,236.527z"/>
<g>
	<circle style="fill:#E8618C;" cx="157.414" cy="333.989" r="20.345"/>
	<circle style="fill:#E8618C;" cx="351.314" cy="333.989" r="20.345"/>
</g>
<path style="fill:#80CBDE;" d="M417.015,191.837L417.015,191.837c-15.486,22.668-48.922,22.668-64.409,0l0,0  c-15.486-22.668-48.922-22.668-64.409,0l0,0c-15.486,22.668-48.922,22.668-64.408,0l0,0c-15.486-22.668-48.922-22.668-64.408,0l0,0  c-15.486,22.668-48.922,22.668-64.408,0l0,0c0-21.072,58.837-92.389,161.021-92.389S417.015,173.907,417.015,191.837"/>
<path style="fill:#FFE584;" d="M399.739,177.615l-148.17-53.929c-5.35-1.947-8.109-7.863-6.162-13.214l6.284-17.265  c1.947-5.35,7.863-8.109,13.214-6.162l148.17,53.929c5.35,1.947,8.109,7.863,6.162,13.214l-6.284,17.265  C411.005,176.803,405.089,179.562,399.739,177.615z"/>
<path style="opacity:0.1;enable-background:new    ;" d="M413.075,140.974l-18.973-6.906c5.35,1.947,8.109,7.863,6.162,13.214  l-6.284,17.265c-1.947,5.35-7.863,8.109-13.214,6.162l18.973,6.906c5.35,1.947,11.266-0.811,13.214-6.162l6.284-17.265  C421.184,148.838,418.425,142.922,413.075,140.974z"/>
<path style="fill:#FDB876;" d="M423.345,43.557L319.657,5.817c-6.969-2.536-14.674,1.057-17.211,8.026l-27.918,76.705  l128.924,46.925l27.918-76.705C433.907,53.799,430.314,46.093,423.345,43.557z"/>
<rect x="274.774" y="89.13" transform="matrix(0.9397 0.342 -0.342 0.9397 55.5755 -111.2856)" style="opacity:0.1;enable-background:new    ;" width="137.2" height="25.658"/>
<circle style="fill:#E8618C;" cx="292.654" cy="40.741" r="40.741"/>
<circle style="fill:#FFE584;" cx="292.654" cy="40.741" r="13.28"/>
<g>
</g>
<g>
</g>
<g>
</g>
<g>
</g>
<g>
</g>
<g>
</g>
<g>
</g>
<g>
</g>
<g>
</g>
<g>
</g>
<g>
</g>
<g>
</g>
<g>
</g>
<g>
</g>
<g>
</g>
</svg>
