<?xml version="1.0" encoding="iso-8859-1"?>
<!-- Generator: Adobe Illustrator 19.0.0, SVG Export Plug-In . SVG Version: 6.00 Build 0)  -->
<svg xmlns="http://www.w3.org/2000/svg" xmlns:xlink="http://www.w3.org/1999/xlink" version="1.1" id="Capa_1" x="0px" y="0px" viewBox="0 0 512 512" style="enable-background:new 0 0 512 512;" xml:space="preserve">
<path style="fill:#FDB876;" d="M492.736,419.8H19.264c-7.675,0-13.897-6.222-13.897-13.897v-35.806  c0-7.675,6.222-13.897,13.897-13.897h473.472c7.675,0,13.897,6.222,13.897,13.897v35.806  C506.633,413.578,500.411,419.8,492.736,419.8z"/>
<path style="opacity:0.1;enable-background:new    ;" d="M492.736,356.201h-44.393c7.675,0,13.897,6.222,13.897,13.897v35.806  c0,7.675-6.222,13.897-13.897,13.897h44.393c7.675,0,13.897-6.222,13.897-13.897v-35.806  C506.633,362.423,500.411,356.201,492.736,356.201z"/>
<path style="fill:#FFE584;" d="M352.482,212.279L256,124.94l-96.482,87.339c-8.599,7.784-21.698,7.784-30.297,0L32.74,124.94  v231.261h446.52V124.94l-96.482,87.339C374.179,220.063,361.081,220.063,352.482,212.279z"/>
<polygon style="opacity:0.1;enable-background:new    ;" points="431.139,168.501 431.139,356.201 479.26,356.201 479.26,124.94 "/>
<circle style="fill:#FDB876;" cx="256" cy="124.94" r="32.74"/>
<path style="opacity:0.1;enable-background:new    ;" d="M274.172,97.706c3.476,5.2,5.506,11.448,5.506,18.172  c0,18.082-14.658,32.74-32.74,32.74c-6.724,0-12.972-2.03-18.172-5.506c5.872,8.782,15.876,14.568,27.234,14.568  c18.082,0,32.74-14.658,32.74-32.74C288.74,113.582,282.955,103.578,274.172,97.706z"/>
<circle style="fill:#FDB876;" cx="32.74" cy="124.94" r="32.74"/>
<path style="opacity:0.1;enable-background:new    ;" d="M50.912,97.706c3.476,5.2,5.506,11.448,5.506,18.172  c0,18.082-14.658,32.74-32.74,32.74c-6.724,0-12.972-2.03-18.172-5.506c5.872,8.782,15.876,14.568,27.234,14.568  c18.082,0,32.74-14.658,32.74-32.74C65.48,113.582,59.694,103.578,50.912,97.706z"/>
<circle style="fill:#FDB876;" cx="479.26" cy="124.94" r="32.74"/>
<path style="opacity:0.1;enable-background:new    ;" d="M497.432,97.706c3.476,5.2,5.506,11.448,5.506,18.172  c0,18.082-14.658,32.74-32.74,32.74c-6.724,0-12.973-2.03-18.172-5.506c5.872,8.782,15.876,14.568,27.234,14.568  c18.082,0,32.74-14.658,32.74-32.74C512,113.582,506.215,103.578,497.432,97.706z"/>
<ellipse style="fill:#E8618C;" cx="256" cy="279.55" rx="42.657" ry="48.16"/>
<path style="opacity:0.1;enable-background:new    ;" d="M282.44,241.768c3.977,7.319,6.273,15.928,6.273,25.144  c0,26.598-19.098,48.16-42.657,48.16c-9.99,0-19.17-3.888-26.44-10.382c7.5,13.805,20.988,23.016,36.384,23.016  c23.559,0,42.657-21.562,42.657-48.16C298.657,264.227,292.314,250.589,282.44,241.768z"/>
<ellipse style="fill:#E8618C;" cx="50.862" cy="279.55" rx="42.657" ry="48.16"/>
<path style="opacity:0.1;enable-background:new    ;" d="M77.302,241.768c3.977,7.319,6.273,15.928,6.273,25.144  c0,26.598-19.098,48.16-42.657,48.16c-9.99,0-19.17-3.888-26.44-10.382c7.501,13.805,20.988,23.016,36.384,23.016  c23.559,0,42.657-21.562,42.657-48.16C93.519,264.227,87.176,250.589,77.302,241.768z"/>
<ellipse style="fill:#E8618C;" cx="461.14" cy="279.55" rx="42.657" ry="48.16"/>
<path style="opacity:0.1;enable-background:new    ;" d="M487.577,241.768c3.977,7.319,6.273,15.928,6.273,25.144  c0,26.598-19.098,48.16-42.657,48.16c-9.99,0-19.17-3.888-26.44-10.382c7.5,13.805,20.988,23.016,36.384,23.016  c23.559,0,42.657-21.562,42.657-48.16C503.794,264.227,497.451,250.589,487.577,241.768z"/>
<circle style="fill:#7CD1A9;" cx="151.6" cy="284.74" r="21.56"/>
<path style="opacity:0.1;enable-background:new    ;" d="M163.777,266.953c1.452,2.9,2.288,6.162,2.288,9.625  c0,11.908-9.653,21.56-21.56,21.56c-4.521,0-8.713-1.397-12.179-3.775c3.538,7.07,10.828,11.935,19.272,11.935  c11.907,0,21.56-9.653,21.56-21.56C173.158,277.352,169.44,270.838,163.777,266.953z"/>
<circle style="fill:#7CD1A9;" cx="360.4" cy="284.74" r="21.56"/>
<path style="opacity:0.1;enable-background:new    ;" d="M372.581,266.953c1.452,2.9,2.288,6.162,2.288,9.625  c0,11.908-9.653,21.56-21.56,21.56c-4.521,0-8.713-1.397-12.179-3.775c3.538,7.07,10.828,11.935,19.272,11.935  c11.907,0,21.56-9.653,21.56-21.56C381.962,277.352,378.244,270.838,372.581,266.953z"/>
<g>
</g>
<g>
</g>
<g>
</g>
<g>
</g>
<g>
</g>
<g>
</g>
<g>
</g>
<g>
</g>
<g>
</g>
<g>
</g>
<g>
</g>
<g>
</g>
<g>
</g>
<g>
</g>
<g>
</g>
</svg>
