<?xml version="1.0" encoding="iso-8859-1"?>
<!-- Generator: Adobe Illustrator 19.0.0, SVG Export Plug-In . SVG Version: 6.00 Build 0)  -->
<svg xmlns="http://www.w3.org/2000/svg" xmlns:xlink="http://www.w3.org/1999/xlink" version="1.1" id="Capa_1" x="0px" y="0px" viewBox="0 0 512 512" style="enable-background:new 0 0 512 512;" xml:space="preserve">
<path style="fill:#4A5058;" d="M270.89,158.912c-4.142,0-7.5-3.358-7.5-7.5v-40.953c0-4.142,3.358-7.5,7.5-7.5  c4.143,0,7.5,3.358,7.5,7.5v40.953C278.39,155.554,275.032,158.912,270.89,158.912z"/>
<path style="fill:#FFE584;" d="M323.546,429.756V173.351c0-17.844-14.465-32.309-32.309-32.309h-47.932  c-15.245,0-29.865,6.056-40.645,16.836l-81.663,81.663c-7.856,7.856-7.856,20.594,0,28.45l45.124,45.124  c7.856,7.856,20.594,7.856,28.45,0l24.924-24.924v141.564H159.55c-7.403,0-13.404,5.409-13.404,12.082v58.081  c0,6.673,6.001,12.082,13.404,12.082h223.94c7.403,0,13.404-5.409,13.404-12.082v-58.081c0-6.672-6.001-12.082-13.404-12.082  h-59.944V429.756z"/>
<path style="fill:#80CBDE;" d="M383.491,429.756h-59.945v-81.905c-47.606-19.031-80.118-16.255-104.05-5.003v86.907h-59.945  c-7.403,0-13.404,5.409-13.404,12.082v58.081c0,6.673,6.001,12.082,13.404,12.082h223.94c7.403,0,13.404-5.409,13.404-12.082  v-58.081C396.895,435.166,390.894,429.756,383.491,429.756z"/>
<path style="opacity:0.1;enable-background:new    ;" d="M298.312,429.756h25.234V173.351c0-17.844-14.465-32.309-32.309-32.309  h-0.077c4.47,5.543,7.152,12.588,7.152,20.264L298.312,429.756L298.312,429.756z M383.491,429.756h-11.832  c0,0.012,0.002,0.024,0.002,0.036v58.081c0,6.672-6.001,12.082-13.404,12.082H146.149c0.022,6.655,6.013,12.045,13.402,12.045  h223.94c7.403,0,13.404-5.409,13.404-12.082v-58.081C396.895,435.166,390.894,429.756,383.491,429.756z"/>
<g style="opacity:0.15;">
	<path d="M271.521,476.883c-4.143,0-7.5-3.358-7.5-7.5V205.962c0-6.488-4.944-9.04-6.46-9.668   c-1.515-0.628-6.816-2.319-11.404,2.268l-63.204,63.205c-2.93,2.928-7.678,2.929-10.607,0s-2.929-7.678,0-10.606l63.205-63.205   c7.423-7.422,18.056-9.536,27.751-5.52c9.696,4.017,15.72,13.031,15.72,23.526v263.421   C279.021,473.525,275.663,476.883,271.521,476.883z"/>
	<path d="M346.244,476.883H196.798c-4.143,0-7.5-3.358-7.5-7.5s3.357-7.5,7.5-7.5h149.446c4.143,0,7.5,3.358,7.5,7.5   C353.744,473.525,350.387,476.883,346.244,476.883z"/>
</g>
<path style="fill:#E8618C;" d="M308.33,74.669c0-17.746-7.179-54.622-30.352-73.12c-3.877-3.095-9.715-1.335-11.311,3.361  c-12.213,35.936-32.749,39.989-29.525,72.765c1.743,17.716,15.962,32.001,33.747,32.783C291.41,111.361,308.33,94.991,308.33,74.669  z"/>
<g>
</g>
<g>
</g>
<g>
</g>
<g>
</g>
<g>
</g>
<g>
</g>
<g>
</g>
<g>
</g>
<g>
</g>
<g>
</g>
<g>
</g>
<g>
</g>
<g>
</g>
<g>
</g>
<g>
</g>
</svg>
