<?xml version="1.0" encoding="iso-8859-1"?>
<!-- Generator: Adobe Illustrator 19.0.0, SVG Export Plug-In . SVG Version: 6.00 Build 0)  -->
<svg xmlns="http://www.w3.org/2000/svg" xmlns:xlink="http://www.w3.org/1999/xlink" version="1.1" id="Capa_1" x="0px" y="0px" viewBox="0 0 511.999 511.999" style="enable-background:new 0 0 511.999 511.999;" xml:space="preserve">
<path style="fill:#FFE584;" d="M415.366,307.338L233.15,373.659c-9.271,3.374-19.522-1.406-22.896-10.677  s1.406-19.522,10.676-22.896l182.216-66.321c57.579-20.957,87.373-84.851,66.416-142.43c-16.092-44.212-65.153-67.09-109.365-50.998  c-33.519,12.2-50.862,49.394-38.663,82.912c9.086,24.963,36.787,37.881,61.75,28.795c18.12-6.595,27.496-26.702,20.902-44.822  c-3.374-9.271,1.406-19.522,10.677-22.896c9.271-3.374,19.522,1.406,22.896,10.676c13.333,36.631-5.622,77.28-42.255,90.613  c-43.475,15.823-91.718-6.673-107.542-50.148c-18.937-52.03,7.985-109.767,60.016-128.704  c62.724-22.83,132.327,9.627,155.156,72.351C530.83,195.207,491.457,279.643,415.366,307.338z"/>
<g>
	<path style="fill:#E8618C;" d="M191.331,415.959L37.977,471.775c-6.585,2.397-13.866-0.998-16.263-7.584L0.769,406.644   c-2.397-6.585,0.998-13.866,7.583-16.263l153.354-55.816L191.331,415.959z"/>
	<path style="fill:#E8618C;" d="M263.482,405.027l-57.079,20.775c-5.603,2.039-11.799-0.85-13.838-6.453l-32.093-88.175   c-2.039-5.603,0.85-11.799,6.453-13.838l57.079-20.775c5.603-2.039,11.799,0.85,13.838,6.453l32.093,88.175   C271.974,396.792,269.085,402.987,263.482,405.027z"/>
</g>
<path style="opacity:0.1;enable-background:new    ;" d="M137.318,343.441l24.698,67.858L33.05,458.239  c-6.585,2.397-13.866-0.999-16.263-7.584l4.927,13.536c2.397,6.585,9.678,9.98,16.263,7.583l153.354-55.816l-29.625-81.394  L137.318,343.441z"/>
<rect x="253.174" y="325.219" transform="matrix(-0.9397 0.342 -0.342 -0.9397 631.2562 574.865)" style="opacity:0.1;enable-background:new    ;" width="23.55" height="35.727"/>
<g>
	<path style="fill:#4A5058;" d="M53.887,429.24c-3.064,0-5.94-1.891-7.049-4.937l-2.551-7.009c-1.416-3.893,0.591-8.196,4.482-9.613   c3.897-1.419,8.197,0.591,9.613,4.483l2.551,7.009c1.416,3.893-0.591,8.196-4.482,9.613   C55.604,429.094,54.737,429.24,53.887,429.24z"/>
	<path style="fill:#4A5058;" d="M138.334,398.504c-3.064,0-5.94-1.891-7.049-4.937l-2.551-7.009   c-1.416-3.892,0.591-8.196,4.482-9.613c3.895-1.418,8.197,0.591,9.613,4.483l2.551,7.009c1.416,3.893-0.591,8.196-4.482,9.613   C140.052,398.358,139.185,398.504,138.334,398.504z"/>
	<path style="fill:#4A5058;" d="M92.704,420.199c-3.888,0-7.759-0.977-11.241-2.902c-3.625-2.003-4.939-6.566-2.937-10.192   c2.004-3.624,6.564-4.94,10.192-2.936c2.083,1.151,4.555,1.348,6.784,0.536c2.229-0.811,3.997-2.55,4.854-4.772   c1.488-3.865,5.829-5.792,9.694-4.302c3.865,1.489,5.791,5.83,4.302,9.695c-2.415,6.269-7.415,11.18-13.719,13.475   C98.063,419.736,95.38,420.199,92.704,420.199z"/>
</g>
<g>
	
		<rect x="199.344" y="297.086" transform="matrix(-0.342 -0.9397 0.9397 -0.342 -40.2749 648.3104)" style="fill:#FDB876;" width="15" height="82.34"/>
	
		<rect x="216.022" y="342.912" transform="matrix(-0.342 -0.9397 0.9397 -0.342 -60.9556 725.4813)" style="fill:#FDB876;" width="15" height="82.34"/>
</g>
<path style="opacity:0.1;enable-background:new    ;" d="M258.556,391.491l-57.079,20.775c-5.603,2.039-11.799-0.85-13.838-6.453  l4.927,13.536c2.039,5.603,8.235,8.492,13.838,6.453l57.079-20.775c5.603-2.039,8.492-8.235,6.453-13.838l-4.927-13.536  C267.048,383.256,264.159,389.452,258.556,391.491z"/>
<g>
</g>
<g>
</g>
<g>
</g>
<g>
</g>
<g>
</g>
<g>
</g>
<g>
</g>
<g>
</g>
<g>
</g>
<g>
</g>
<g>
</g>
<g>
</g>
<g>
</g>
<g>
</g>
<g>
</g>
</svg>
