<?xml version="1.0" encoding="iso-8859-1"?>
<!-- Generator: Adobe Illustrator 19.0.0, SVG Export Plug-In . SVG Version: 6.00 Build 0)  -->
<svg xmlns="http://www.w3.org/2000/svg" xmlns:xlink="http://www.w3.org/1999/xlink" version="1.1" id="Capa_1" x="0px" y="0px" viewBox="0 0 512.001 512.001" style="enable-background:new 0 0 512.001 512.001;" xml:space="preserve">
<path style="fill:#DFE3E5;" d="M276.79,266.204h-41.58v233.082c0,7.022,5.693,12.715,12.715,12.715h16.15  c7.022,0,12.715-5.692,12.715-12.715V266.204z"/>
<path style="opacity:0.1;enable-background:new    ;" d="M235.21,266.204v54.373c6.79,0.976,13.729,1.491,20.79,1.491  c1.715,0,3.422-0.033,5.122-0.093v177.31c0,7.022-5.693,12.715-12.715,12.715h15.667c7.022,0,12.715-5.692,12.715-12.715V266.204  H235.21z"/>
<circle style="fill:#E8618C;" cx="256" cy="144.84" r="144.84"/>
<path style="fill:#F98CAE;" d="M370.147,118.61c-11.431-34.783-36.97-65.321-71.125-79.449  c-34.193-14.143-75.517-10.2-105.943,11.104c-31.03,21.727-49.476,59.581-41.446,97.657c5.848,27.729,24.947,53.269,51.924,63.356  c27.323,10.217,59.393,3.22,79.833-17.667c4.894-5.001,4.961-13.036,0.069-18.102c-4.979-5.156-13.196-5.299-18.352-0.32  l-0.071,0.069c-8.951,8.644-21.104,13.606-33.561,13.617c-26.094,0.023-46.384-22.149-50.909-46.688  c-2.317-12.561-0.603-25.776,4.71-37.208c13.904-29.922,50.223-45.364,81.881-39.806c33.39,5.862,58.54,32.762,68.133,64.509  c11.874,39.298-1.87,81.664-32.98,107.983c-31.419,26.581-74.647,36.685-114.622,26.796c-8.849-2.189-17.426-5.343-25.574-9.337  c25.285,21.547,58.064,34.559,93.888,34.559c23.561,0,45.806-5.63,65.469-15.612c16.801-13.338,30.995-29.922,40.683-49.032  C378.731,192.335,381.591,153.432,370.147,118.61z"/>
<path style="opacity:0.15;enable-background:new    ;" d="M318.683,14.231c32.32,26.564,52.936,66.848,52.936,111.95  c0,79.994-64.848,144.841-144.841,144.841c-22.454,0-43.715-5.111-62.683-14.231c25.004,20.551,57.013,32.892,91.905,32.892  c79.994,0,144.841-64.848,144.841-144.841C400.841,87.302,367.289,37.6,318.683,14.231z"/>
<g>
	<path style="fill:#4A5058;" d="M218.627,136.452c-4.142,0-7.5-3.358-7.5-7.5v-7.031c0-4.142,3.358-7.5,7.5-7.5s7.5,3.358,7.5,7.5   v7.031C226.127,133.094,222.77,136.452,218.627,136.452z"/>
	<path style="fill:#4A5058;" d="M303.344,136.452c-4.142,0-7.5-3.358-7.5-7.5v-7.031c0-4.142,3.358-7.5,7.5-7.5   c4.142,0,7.5,3.358,7.5,7.5v7.031C310.844,133.094,307.486,136.452,303.344,136.452z"/>
	<path style="fill:#4A5058;" d="M260.986,141.852c-6.447,0-12.579-2.792-16.822-7.66c-2.722-3.123-2.396-7.86,0.726-10.582   c3.123-2.722,7.86-2.397,10.582,0.726c1.394,1.599,3.403,2.516,5.514,2.516c2.111,0,4.12-0.917,5.513-2.516   c2.721-3.123,7.458-3.447,10.582-0.727c3.123,2.722,3.448,7.459,0.727,10.582C273.565,139.06,267.434,141.852,260.986,141.852z"/>
</g>
<g>
</g>
<g>
</g>
<g>
</g>
<g>
</g>
<g>
</g>
<g>
</g>
<g>
</g>
<g>
</g>
<g>
</g>
<g>
</g>
<g>
</g>
<g>
</g>
<g>
</g>
<g>
</g>
<g>
</g>
</svg>
