<?xml version="1.0" encoding="iso-8859-1"?>
<!-- Generator: Adobe Illustrator 19.0.0, SVG Export Plug-In . SVG Version: 6.00 Build 0)  -->
<svg xmlns="http://www.w3.org/2000/svg" xmlns:xlink="http://www.w3.org/1999/xlink" version="1.1" id="Capa_1" x="0px" y="0px" viewBox="0 0 512.001 512.001" style="enable-background:new 0 0 512.001 512.001;" xml:space="preserve">
<path style="fill:#4A5058;" d="M96.21,277.699c-0.33,0-0.663-0.022-0.999-0.066c-4.106-0.546-6.992-4.318-6.445-8.424  l34.241-257.314c0.496-3.727,3.675-6.511,7.434-6.511c3.76,0,6.939,2.784,7.435,6.511l34.24,257.314  c0.546,4.106-2.339,7.877-6.445,8.424c-4.103,0.545-7.877-2.339-8.424-6.445L130.441,69.743l-26.807,201.445  C103.133,274.958,99.912,277.699,96.21,277.699z"/>
<path style="fill:#E8618C;" d="M353.367,0h-18.299c-14.259,0-25.818,11.559-25.818,25.817v71.749h69.934V25.817  C379.184,11.559,367.625,0,353.367,0z"/>
<path style="opacity:0.1;enable-background:new    ;" d="M337.979,60.872V25.818c0-10.14-5.86-18.889-14.365-23.112  c-8.505,4.223-14.365,12.973-14.365,23.112v71.748h69.934V60.872H337.979z"/>
<path style="fill:#E8618C;" d="M291.354,0h-18.299c-14.259,0-25.818,11.559-25.818,25.817v71.749h69.934V25.817  C317.172,11.559,305.612,0,291.354,0z"/>
<path style="fill:#80CBDE;" d="M205.314,142.094v89.909c0,12.587-10.203,22.79-22.79,22.79h-77.527  c-50.155,0-90.814,40.659-90.814,90.814v117.081c0,27.235,22.078,49.313,49.313,49.313h35.36c27.235,0,49.313-22.078,49.313-49.313  V431.35c0-18.83,15.265-34.094,34.094-34.094h36.566c18.83,0,34.094,15.265,34.094,34.094v31.337  C252.923,489.922,275,512,302.234,512h35.36c27.235,0,49.313-22.078,49.313-49.313V268.615c0-13.747,11.144-24.891,24.891-24.891  h27.201c32.485,0,58.819-26.334,58.819-58.819V163.08c0-24.421-15.09-46.301-37.917-54.98l-49.126-18.677  c-16.765-6.374-34.55-9.64-52.485-9.64h-90.666C233.211,79.784,205.314,107.681,205.314,142.094z"/>
<path style="fill:#FDB876;" d="M480.411,121.308H208.879c-2.301,6.502-3.565,13.495-3.565,20.785v73.704H489.05  c5.554-8.979,8.767-19.559,8.767-30.892V163.08C497.818,147.06,491.323,132.132,480.411,121.308z"/>
<path style="fill:#FFE584;" d="M18.856,316.86c-3.015,9.037-4.672,18.696-4.672,28.747v65.743h140.475  c6.196-8.537,16.249-14.094,27.605-14.094h36.566c11.356,0,21.408,5.557,27.605,14.094h140.475v-94.49H18.856z"/>
<path style="fill:#7CD1A9;" d="M205.314,215.798v16.204c0,12.587-10.203,22.79-22.79,22.79h-77.527  c-40.104,0-74.112,26.007-86.142,62.067h368.052v-48.244c0-13.747,11.144-24.891,24.891-24.891h27.201  c21.151,0,39.687-11.17,50.052-27.927L205.314,215.798L205.314,215.798z"/>
<path style="opacity:0.1;enable-background:new    ;" d="M293.162,263.219v35.772c0,3.59-2.91,6.5-6.5,6.5h-19.599  c-3.59,0-6.5-2.91-6.5-6.5v-39.713h28.657C291.398,259.278,293.162,261.042,293.162,263.219z"/>
<path style="fill:#E8618C;" d="M459.901,108.101l-49.126-18.677c-16.765-6.374-34.55-9.64-52.485-9.64h-90.666  c-27.122,0-50.185,17.334-58.745,41.524h271.531C474.688,115.633,467.753,111.086,459.901,108.101z"/>
<path style="opacity:0.1;enable-background:new    ;" d="M96.567,357.148v35.772c0,3.59-2.91,6.5-6.5,6.5H70.468  c-3.59,0-6.5-2.91-6.5-6.5v-39.713h28.657C94.802,353.207,96.567,354.971,96.567,357.148z"/>
<path style="fill:#FFE584;" d="M91.072,353.207v27.722c0,2.985-2.42,5.404-5.404,5.404H69.373c-2.985,0-5.404-2.419-5.404-5.404  v-27.722L91.072,353.207L91.072,353.207z"/>
<path style="fill:#7CD1A9;" d="M287.667,259.278V287c0,2.985-2.42,5.404-5.404,5.404h-16.295c-2.985,0-5.404-2.419-5.404-5.404  v-27.722H287.667z"/>
<path style="opacity:0.1;enable-background:new    ;" d="M197.28,308.52v35.772c0,3.59-2.91,6.5-6.5,6.5h-19.599  c-3.59,0-6.5-2.91-6.5-6.5v-39.713h28.657C195.516,304.579,197.28,306.344,197.28,308.52z"/>
<path style="fill:#7CD1A9;" d="M191.785,304.579v27.722c0,2.985-2.419,5.404-5.404,5.404h-16.295c-2.985,0-5.404-2.419-5.404-5.404  v-27.722L191.785,304.579L191.785,304.579z"/>
<path style="opacity:0.1;enable-background:new    ;" d="M285.615,115.691v35.772c0,3.59-2.91,6.5-6.5,6.5h-19.599  c-3.59,0-6.5-2.91-6.5-6.5V111.75h28.657C283.849,111.75,285.615,113.514,285.615,115.691z"/>
<path style="fill:#E8618C;" d="M280.12,111.75v27.722c0,2.985-2.42,5.404-5.404,5.404H258.42c-2.985,0-5.404-2.42-5.404-5.404  V111.75H280.12z"/>
<path style="opacity:0.1;enable-background:new    ;" d="M336.219,398.728V434.5c0,3.59-2.91,6.5-6.5,6.5H310.12  c-3.59,0-6.5-2.91-6.5-6.5v-39.713h28.657C334.453,394.787,336.219,396.551,336.219,398.728z"/>
<path style="fill:#FFE584;" d="M330.724,394.787v27.722c0,2.985-2.419,5.404-5.404,5.404h-16.295c-2.985,0-5.404-2.42-5.404-5.404  v-27.722H330.724z"/>
<path style="opacity:0.1;enable-background:new    ;" d="M459.901,108.101l-49.126-18.677c-16.765-6.374-34.55-9.64-52.485-9.64  h-32.946c17.935,0,35.721,3.267,52.485,9.64l49.126,18.677c22.827,8.678,37.917,30.559,37.917,54.98v21.825  c0,32.485-26.334,58.819-58.819,58.819h-27.201c-13.747,0-24.891,11.144-24.891,24.891v194.072  c0,27.235-22.078,49.313-49.313,49.313h32.946c27.235,0,49.313-22.078,49.313-49.313V268.615c0-13.747,11.144-24.891,24.891-24.891  h27.201c32.485,0,58.819-26.334,58.819-58.819V163.08C497.818,138.66,482.729,116.779,459.901,108.101z M115.222,431.35v31.337  c0,27.235-22.078,49.313-49.313,49.313h32.946c27.235,0,49.313-22.078,49.313-49.313V431.35c0-18.83,15.265-34.094,34.094-34.094  h-32.946C130.486,397.256,115.222,412.52,115.222,431.35z"/>
<g>
	<path style="fill:#4A5058;" d="M329.971,171.43c-4.142,0-7.5-3.358-7.5-7.5v-10.732c0-4.142,3.358-7.5,7.5-7.5   c4.142,0,7.5,3.358,7.5,7.5v10.732C337.471,168.072,334.112,171.43,329.971,171.43z"/>
	<path style="fill:#4A5058;" d="M459.279,171.43c-4.142,0-7.5-3.358-7.5-7.5v-10.732c0-4.142,3.358-7.5,7.5-7.5   c4.142,0,7.5,3.358,7.5,7.5v10.732C466.779,168.072,463.421,171.43,459.279,171.43z"/>
	<path style="fill:#4A5058;" d="M411.671,172.142c0,10.224-8.47,18.47-18.776,18.104c-9.817-0.349-17.455-8.715-17.455-18.538   v-12.742c0-2.728,2.211-4.939,4.939-4.939h26.352c2.728,0,4.94,2.211,4.94,4.939V172.142z"/>
</g>
<g>
</g>
<g>
</g>
<g>
</g>
<g>
</g>
<g>
</g>
<g>
</g>
<g>
</g>
<g>
</g>
<g>
</g>
<g>
</g>
<g>
</g>
<g>
</g>
<g>
</g>
<g>
</g>
<g>
</g>
</svg>
