<?xml version="1.0" encoding="iso-8859-1"?>
<!-- Generator: Adobe Illustrator 19.0.0, SVG Export Plug-In . SVG Version: 6.00 Build 0)  -->
<svg xmlns="http://www.w3.org/2000/svg" xmlns:xlink="http://www.w3.org/1999/xlink" version="1.1" id="Capa_1" x="0px" y="0px" viewBox="0 0 512.001 512.001" style="enable-background:new 0 0 512.001 512.001;" xml:space="preserve">
<path style="fill:#7CD1A9;" d="M297.696,148.607V33.659h-83.391v114.948c0,28.615-11.986,55.922-33.048,75.292l0,0  c-22.576,20.763-35.423,50.032-35.423,80.704v194.278c0,7.245,5.874,13.119,13.119,13.119h194.094  c7.245,0,13.119-5.874,13.119-13.119V304.603c0-30.672-12.847-59.941-35.423-80.704l0,0  C309.682,204.529,297.696,177.222,297.696,148.607z"/>
<path style="fill:#FFE584;" d="M330.744,223.899L330.744,223.899c-21.062-19.37-33.048-46.677-33.048-75.292V33.659h-83.391v114.948  c0,28.615-11.986,55.922-33.048,75.292l0,0c-1.089,1.002-2.149,2.029-3.192,3.07l63.65,51.024c8.348,6.692,20.222,6.692,28.57,0  l63.65-51.024C332.893,225.929,331.833,224.901,330.744,223.899z"/>
<path style="fill:#4A5058;" d="M302.942,180.919l-40.488,32.456c-3.8,3.046-9.108,3.044-12.906,0l-40.489-32.457  c-2.716,8.156-6.45,15.948-11.123,23.184l35.947,28.816c6.511,5.219,14.314,7.828,22.117,7.828c7.804,0,15.607-2.609,22.118-7.829  l35.946-28.815C309.392,196.867,305.658,189.075,302.942,180.919z"/>
<g>
	<path style="fill:#FFFFFF;" d="M299.08,387.268h-86.158c-9.988,0-18.084,8.096-18.084,18.084v47.223   c0,9.988,8.096,18.084,18.084,18.084h86.158c9.987,0,18.084-8.096,18.084-18.084v-47.223   C317.164,395.364,309.068,387.268,299.08,387.268z"/>
	<g style="opacity:0.3;">
		<circle style="fill:#FFFFFF;" cx="194.841" cy="330.5" r="7.497"/>
		<circle style="fill:#FFFFFF;" cx="318.851" cy="296" r="7.497"/>
		<circle style="fill:#FFFFFF;" cx="285.071" cy="357.5" r="7.497"/>
	</g>
</g>
<path style="fill:#4A5058;" d="M292.566,425.293h-73.129c-4.143,0-7.5-3.358-7.5-7.5s3.357-7.5,7.5-7.5h73.129  c4.142,0,7.5,3.358,7.5,7.5S296.708,425.293,292.566,425.293z"/>
<path style="fill:#DFE3E5;" d="M275.294,450.617h-38.586c-4.143,0-7.5-3.358-7.5-7.5s3.357-7.5,7.5-7.5h38.586  c4.142,0,7.5,3.358,7.5,7.5S279.436,450.617,275.294,450.617z"/>
<path style="opacity:0.1;enable-background:new    ;" d="M330.744,223.899L330.744,223.899  c-21.062-19.37-33.048-46.677-33.048-75.292V33.659h-83.391v70.535h51.09v44.414c0,28.615,11.986,55.922,33.048,75.292l0,0  c22.576,20.762,35.423,50.032,35.423,80.704v194.278c0,7.245-5.874,13.119-13.119,13.119h32.301c7.246,0,13.119-5.874,13.119-13.119  V304.603C366.167,273.931,353.32,244.662,330.744,223.899z"/>
<path style="fill:#FFE584;" d="M300.032,80.92H211.97c-5.376,0-9.734-4.358-9.734-9.734V9.734c0-5.376,4.358-9.734,9.734-9.734  h88.062c5.376,0,9.734,4.358,9.734,9.734v61.452C309.766,76.562,305.408,80.92,300.032,80.92z"/>
<path style="opacity:0.1;enable-background:new    ;" d="M300.032,0h-20.657c5.376,0,9.734,4.358,9.734,9.734v61.452  c0,5.376-4.358,9.734-9.734,9.734h20.657c5.376,0,9.734-4.358,9.734-9.734V9.734C309.766,4.358,305.408,0,300.032,0z"/>
<path style="opacity:0.1;enable-background:new    ;" d="M145.835,470.659v28.222c0,7.245,5.874,13.119,13.119,13.119h194.094  c7.246,0,13.119-5.874,13.119-13.119v-28.222H145.835z"/>
<circle style="fill:#E8618C;" cx="256.001" cy="296" r="29.07"/>
<g>
</g>
<g>
</g>
<g>
</g>
<g>
</g>
<g>
</g>
<g>
</g>
<g>
</g>
<g>
</g>
<g>
</g>
<g>
</g>
<g>
</g>
<g>
</g>
<g>
</g>
<g>
</g>
<g>
</g>
</svg>
