<?xml version="1.0" encoding="iso-8859-1"?>
<!-- Generator: Adobe Illustrator 19.0.0, SVG Export Plug-In . SVG Version: 6.00 Build 0)  -->
<svg xmlns="http://www.w3.org/2000/svg" xmlns:xlink="http://www.w3.org/1999/xlink" version="1.1" id="Capa_1" x="0px" y="0px" viewBox="0 0 512 512" style="enable-background:new 0 0 512 512;" xml:space="preserve">
<path style="fill:#DFE3E5;" d="M393.324,458.286L99.039,508.091c-12.079,2.044-23.096-7.265-23.096-19.515V69.765  c0-9.657,6.969-17.904,16.49-19.515l295.57-50.022c9.729-1.647,18.602,5.851,18.602,15.718v426.622  C406.605,450.346,400.993,456.988,393.324,458.286z"/>
<path style="opacity:0.1;enable-background:new    ;" d="M198.846,32.241L92.434,50.25c-9.521,1.611-16.49,9.859-16.49,19.515  v418.81c0,12.251,11.017,21.56,23.096,19.516l294.285-49.805c7.669-1.298,13.282-7.94,13.282-15.718V32.241H198.846z"/>
<path style="fill:#FFE584;" d="M420.229,512H90.027c-7.778,0-14.083-6.305-14.083-14.083V67.124c0-7.778,6.305-14.083,14.083-14.083  h330.202c8.741,0,15.828,7.086,15.828,15.827v427.304C436.056,504.914,428.97,512,420.229,512z"/>
<path style="fill:#BD9D7D;" d="M355.673,465.976H156.327c-9.35,0-16.929-7.579-16.929-16.929V341.241h233.204v107.807  C372.602,458.397,365.022,465.976,355.673,465.976z"/>
<rect x="139.4" y="418.84" style="fill:#F98CAE;" width="233.2" height="15"/>
<path style="opacity:0.1;enable-background:new    ;" d="M372.353,345.184H139.647c-0.084,0-0.165,0.01-0.249,0.012v49.259  c6.749,1.963,14.589-0.512,18.584-7.431l0,0c6.223-10.779,21.782-10.779,28.005,0l0,0c6.223,10.779,21.782,10.779,28.005,0l0,0  c6.223-10.779,21.782-10.779,28.005,0l0,0c6.223,10.779,21.782,10.779,28.005,0l0,0c6.223-10.779,21.782-10.779,28.005,0l0,0  c6.223,10.779,21.782,10.779,28.005,0l0,0c6.074-10.521,21.038-10.767,27.538-0.75v62.773c0,9.35-7.579,16.929-16.929,16.929h19.051  c9.35,0,16.929-7.579,16.929-16.929V345.196C372.518,345.194,372.437,345.184,372.353,345.184z"/>
<path style="fill:#F98CAE;" d="M382.023,370.226c0,3.863-1.886,7.522-5.115,9.641c-7.359,4.83-18.003,3.012-22.89-5.452l0,0  c-6.223-10.779-21.782-10.779-28.005,0l0,0c-6.223,10.779-21.782,10.779-28.005,0l0,0c-6.223-10.779-21.782-10.779-28.005,0l0,0  c-6.223,10.779-21.782,10.779-28.005,0l0,0c-6.223-10.779-21.782-10.779-28.005,0l0,0c-6.223,10.779-21.782,10.779-28.005,0l0,0  c-6.223-10.779-21.782-10.779-28.005,0l0,0c-4.887,8.465-15.531,10.282-22.89,5.452c-3.229-2.119-5.115-5.779-5.115-9.641v-27.982  c0-5.34,4.329-9.67,9.67-9.67h232.706c5.34,0,9.67,4.329,9.67,9.67L382.023,370.226L382.023,370.226z"/>
<path style="opacity:0.1;enable-background:new    ;" d="M372.353,332.574h-13.37c5.341,0,9.67,4.329,9.67,9.67v27.982  c0,3.863-1.886,7.522-5.115,9.641c-0.706,0.463-1.442,0.864-2.201,1.205c4.985,2.24,10.93,1.84,15.57-1.205  c3.229-2.119,5.115-5.779,5.115-9.641v-27.982C382.023,336.904,377.694,332.574,372.353,332.574z"/>
<path style="fill:#FFFFFF;" d="M214.067,288.276h-9.765c-3.666,0-6.637,2.972-6.637,6.637v37.661h23.04v-37.661  C220.704,291.248,217.733,288.276,214.067,288.276z"/>
<path style="fill:#E8618C;" d="M226.917,269.93c0-7.995-4.65-23.834-14.454-33.519c-3.259-3.219-8.754-2.114-10.55,2.1  c-5.663,13.279-9.66,21.374-10.353,29.064c-0.936,10.375,6.761,19.824,17.176,20.082  C218.734,287.904,226.917,279.873,226.917,269.93z"/>
<path style="fill:#FFFFFF;" d="M307.668,288.276h-9.765c-3.666,0-6.637,2.972-6.637,6.637v37.661h23.04v-37.661  C314.305,291.248,311.333,288.276,307.668,288.276z"/>
<path style="fill:#E8618C;" d="M320.518,269.93c0-7.995-4.65-23.834-14.454-33.519c-3.259-3.219-8.754-2.114-10.551,2.1  c-5.663,13.279-9.66,21.374-10.353,29.064c-0.936,10.375,6.761,19.824,17.176,20.082  C312.334,287.904,320.518,279.873,320.518,269.93z"/>
<g>
	<path style="fill:#F98CAE;" d="M126.319,154.109c-0.596,0-1.2-0.071-1.804-0.221c-4.021-0.993-6.476-5.058-5.483-9.079   c3.55-14.377,14.601-25.833,28.839-29.899c10.184-2.908,17.624-11.576,18.956-22.084c0.521-4.108,4.266-7.021,8.383-6.497   c4.109,0.521,7.018,4.274,6.498,8.383c-2.087,16.473-13.752,30.063-29.718,34.622c-9.082,2.593-16.13,9.901-18.395,19.071   C132.751,151.823,129.688,154.109,126.319,154.109z"/>
	<path style="fill:#F98CAE;" d="M403.609,184.204c-0.262,0-0.524-0.014-0.791-0.042c-4.119-0.432-7.108-4.122-6.677-8.241   c1.273-12.149-4.091-24.134-14-31.279c-15.988-11.527-23.534-31.403-19.223-50.637c0.906-4.042,4.918-6.586,8.959-5.678   c4.042,0.906,6.584,4.917,5.678,8.959c-2.996,13.366,2.247,27.178,13.358,35.188c14.26,10.281,21.979,27.528,20.146,45.011   C410.655,181.339,407.4,184.204,403.609,184.204z"/>
</g>
<path style="fill:#FFFFFF;" d="M302.8,171.517c-1.91,0-3.82-0.725-5.283-2.176c-8.923-8.854-12.448-21.898-9.201-34.042  c2.088-7.808-0.671-16.076-7.029-21.066c-3.258-2.557-3.826-7.272-1.268-10.53c2.555-3.259,7.27-3.828,10.53-1.27  c11.088,8.703,15.899,23.124,12.258,36.741c-1.861,6.962,0.16,14.442,5.277,19.519c2.939,2.917,2.958,7.666,0.041,10.606  C306.657,170.777,304.729,171.517,302.8,171.517z"/>
<path style="fill:#80CBDE;" d="M373.124,262.954c-1.91,0-3.819-0.725-5.282-2.176c-9.564-9.49-13.344-23.471-9.863-36.488  c2.35-8.787-0.755-18.092-7.91-23.707c-3.258-2.557-3.826-7.272-1.27-10.53c2.557-3.259,7.271-3.828,10.531-1.27  c11.885,9.328,17.042,24.786,13.139,39.382c-2.095,7.836,0.181,16.252,5.938,21.964c2.94,2.918,2.959,7.666,0.042,10.606  C376.981,262.214,375.053,262.954,373.124,262.954z"/>
<path style="fill:#FFFFFF;" d="M122.674,277.266c-4.048,0-7.383-3.225-7.493-7.296c-0.342-12.566,6.114-24.436,16.848-30.979  c6.901-4.206,10.615-12.092,9.461-20.091c-0.591-4.1,2.253-7.902,6.353-8.494c4.103-0.59,7.902,2.253,8.494,6.353  c2.011,13.951-4.466,27.705-16.502,35.041c-6.155,3.751-9.856,10.557-9.661,17.762c0.113,4.141-3.153,7.589-7.293,7.701  C122.813,277.265,122.743,277.266,122.674,277.266z"/>
<path style="fill:#80CBDE;" d="M202.191,196.756c-3.517,0-6.656-2.486-7.354-6.068c-2.402-12.338,2.016-25.108,11.528-33.325  c6.116-5.283,8.484-13.673,6.031-21.374c-1.257-3.947,0.924-8.166,4.871-9.422c3.949-1.255,8.165,0.924,9.422,4.871  c4.277,13.431,0.148,28.063-10.519,37.276c-5.454,4.712-7.987,12.034-6.61,19.108c0.791,4.066-1.863,8.003-5.929,8.795  C203.148,196.71,202.666,196.756,202.191,196.756z"/>
<path style="opacity:0.1;enable-background:new    ;" d="M420.229,53.041h-35.296c8.741,0,15.828,7.086,15.828,15.827v427.304  c0,8.741-7.086,15.828-15.828,15.828h35.296c8.741,0,15.827-7.086,15.827-15.828V68.868  C436.056,60.127,428.97,53.041,420.229,53.041z"/>
<g>
</g>
<g>
</g>
<g>
</g>
<g>
</g>
<g>
</g>
<g>
</g>
<g>
</g>
<g>
</g>
<g>
</g>
<g>
</g>
<g>
</g>
<g>
</g>
<g>
</g>
<g>
</g>
<g>
</g>
</svg>
