<?xml version="1.0" encoding="iso-8859-1"?>
<!-- Generator: Adobe Illustrator 19.0.0, SVG Export Plug-In . SVG Version: 6.00 Build 0)  -->
<svg xmlns="http://www.w3.org/2000/svg" xmlns:xlink="http://www.w3.org/1999/xlink" version="1.1" id="Capa_1" x="0px" y="0px" viewBox="0 0 512 512" style="enable-background:new 0 0 512 512;" xml:space="preserve">
<path style="fill:#FFE584;" d="M228.319,142.688L41.74,484.56C34.992,496.923,43.94,512,58.025,512h395.95  c14.085,0,23.033-15.077,16.285-27.44L283.681,142.688C271.727,120.784,240.273,120.784,228.319,142.688z"/>
<path style="fill:#E8618C;" d="M470.26,484.56l-28.751-52.681H70.491L41.74,484.56C34.992,496.923,43.94,512,58.025,512h395.95  C468.06,512,477.008,496.923,470.26,484.56z"/>
<path style="fill:#80CBDE;" d="M168.389,411.769c-1.92,0-3.839-0.733-5.303-2.197l-23.411-23.41c-2.929-2.929-2.929-7.678,0-10.606  c2.929-2.929,7.678-2.929,10.606,0l23.411,23.41c2.929,2.929,2.929,7.678,0,10.607C172.228,411.036,170.309,411.769,168.389,411.769  z"/>
<path style="fill:#F98CAE;" d="M316.025,345.005c-1.919,0-3.839-0.732-5.303-2.197c-2.929-2.929-2.929-7.678,0-10.606l28.786-28.786  c2.929-2.929,7.678-2.929,10.606,0c2.929,2.929,2.929,7.678,0,10.607l-28.786,28.786  C319.864,344.272,317.945,345.005,316.025,345.005z"/>
<path style="fill:#80CBDE;" d="M258.625,291.945c-1.919,0-3.839-0.732-5.303-2.197l-28.445-28.445  c-2.929-2.929-2.929-7.678,0-10.606c2.929-2.929,7.678-2.929,10.606,0l28.445,28.445c2.929,2.929,2.929,7.678,0,10.606  C262.464,291.213,260.545,291.945,258.625,291.945z"/>
<path style="fill:#FFFFFF;" d="M347.743,422.57c-1.919,0-3.839-0.732-5.303-2.197c-2.929-2.929-2.929-7.678,0-10.606l21.603-21.603  c2.929-2.929,7.678-2.929,10.606,0c2.929,2.929,2.929,7.678,0,10.606l-21.603,21.603C351.582,421.837,349.662,422.57,347.743,422.57  z"/>
<path style="fill:#F98CAE;" d="M205.77,309.81c-1.919,0-3.839-0.732-5.303-2.197l-21.9-21.9c-2.929-2.929-2.929-7.678,0-10.607  s7.678-2.929,10.606,0l21.9,21.9c2.929,2.929,2.929,7.678,0,10.607C209.609,309.078,207.689,309.81,205.77,309.81z"/>
<path style="fill:#FFFFFF;" d="M144.339,359.167c-2.28,0-4.532-1.036-6.006-3c-2.485-3.314-1.814-8.015,1.5-10.5l18.667-14  c3.315-2.485,8.015-1.813,10.5,1.5c2.485,3.314,1.814,8.015-1.5,10.5l-18.667,14C147.484,358.678,145.905,359.167,144.339,359.167z"/>
<path style="fill:#F98CAE;" d="M276.332,249.833c-1.873,0-3.749-0.698-5.205-2.101c-2.981-2.875-3.068-7.623-0.193-10.605l18-18.667  c2.874-2.982,7.622-3.069,10.605-0.193c2.981,2.875,3.068,7.623,0.193,10.605l-18,18.667  C280.261,249.066,278.298,249.833,276.332,249.833z"/>
<path style="fill:#BD9D7D;" d="M251.184,377.864c-2.221,0-4.42-0.982-5.9-2.864l-23.333-29.667  c-2.561-3.256-1.997-7.971,1.258-10.532c3.256-2.562,7.971-1.998,10.532,1.258l23.333,29.667c2.561,3.256,1.997,7.971-1.258,10.532  C254.441,377.34,252.807,377.864,251.184,377.864z"/>
<path style="fill:#F98CAE;" d="M214.327,415.835c-1.446,0-2.907-0.418-4.195-1.289c-3.431-2.321-4.331-6.983-2.01-10.415  l10.666-15.77c2.32-3.431,6.982-4.331,10.415-2.01c3.431,2.321,4.331,6.983,2.01,10.414l-10.667,15.77  C219.096,414.679,216.733,415.835,214.327,415.835z"/>
<path style="fill:#FFFFFF;" d="M285.331,322.502c-0.923,0-1.861-0.171-2.771-0.534c-3.849-1.531-5.727-5.893-4.195-9.741l13-32.667  c1.531-3.849,5.892-5.727,9.741-4.195c3.849,1.531,5.727,5.893,4.195,9.741l-13,32.666  C291.132,320.712,288.313,322.502,285.331,322.502z"/>
<path style="fill:#80CBDE;" d="M306.341,407.949c-2.513,0-4.968-1.262-6.386-3.556l-14.5-23.448  c-2.179-3.523-1.089-8.145,2.434-10.324c3.523-2.179,8.146-1.088,10.324,2.434l14.5,23.448c2.179,3.523,1.089,8.145-2.434,10.324  C309.049,407.587,307.686,407.949,306.341,407.949z"/>
<path style="fill:#FFFFFF;" d="M210.329,240.502c-1.076,0-2.169-0.233-3.206-0.724c-3.744-1.773-5.341-6.245-3.567-9.988l6-12.667  c1.773-3.744,6.247-5.34,9.988-3.567c3.744,1.773,5.341,6.245,3.567,9.988l-6,12.667  C215.83,238.917,213.136,240.502,210.329,240.502z"/>
<path style="fill:#BD9D7D;" d="M370.263,373.283c-2.381,0-4.722-1.13-6.177-3.237l-12.667-18.333  c-2.354-3.408-1.501-8.079,1.907-10.434c3.408-2.355,8.079-1.501,10.434,1.907l12.667,18.333c2.354,3.408,1.501,8.079-1.907,10.434  C373.218,372.852,371.732,373.283,370.263,373.283z"/>
<path style="opacity:0.1;enable-background:new    ;" d="M470.26,484.56L283.681,142.688c-11.954-21.904-43.408-21.904-55.363,0  l-31.941,58.525c4.698,2.549,8.615,6.437,11.18,11.272c6.951,13.102,23.041,18.33,36.366,11.816c7.62-3.725,16.532-3.725,24.152,0  c2.518,1.231,5.134,2.041,7.768,2.459l140.697,257.8c6.747,12.363-2.201,27.44-16.285,27.44h53.721  C468.06,512,477.008,496.923,470.26,484.56z"/>
<path style="fill:#E8618C;" d="M268.076,2.799L268.076,2.799c13.325-6.514,29.415-1.286,36.366,11.816l0,0  c3.975,7.492,11.185,12.731,19.539,14.196l0,0c14.609,2.563,24.553,16.249,22.475,30.935l0,0c-1.188,8.398,1.566,16.874,7.463,22.97  l0,0c10.312,10.66,10.312,27.578,0,38.238l0,0c-5.897,6.096-8.651,14.572-7.463,22.97l0,0c2.077,14.686-7.867,28.372-22.475,30.935  l0,0c-8.354,1.465-15.564,6.704-19.539,14.196l0,0c-6.952,13.102-23.041,18.33-36.366,11.816l0,0c-7.62-3.725-16.532-3.725-24.152,0  l0,0c-13.325,6.514-29.415,1.286-36.366-11.816l0,0c-3.975-7.492-11.185-12.731-19.539-14.196l0,0  c-14.609-2.563-24.553-16.249-22.475-30.935l0,0c1.188-8.398-1.566-16.874-7.463-22.97l0,0c-10.312-10.66-10.312-27.578,0-38.238  l0,0c5.897-6.096,8.651-14.572,7.463-22.97l0,0c-2.077-14.686,7.867-28.372,22.475-30.935l0,0  c8.354-1.465,15.564-6.704,19.539-14.196l0,0c6.951-13.102,23.041-18.33,36.366-11.816l0,0  C251.544,6.524,260.456,6.524,268.076,2.799z"/>
<path style="opacity:0.1;enable-background:new    ;" d="M353.92,82.716c-5.897-6.096-8.651-14.572-7.463-22.97  c2.077-14.686-7.867-28.372-22.475-30.935c-8.354-1.465-15.564-6.704-19.539-14.196c-5.263-9.92-15.764-15.32-26.338-14.534  c3.156,2.358,5.852,5.431,7.817,9.134c3.975,7.492,11.185,12.731,19.539,14.196c14.609,2.563,24.553,16.249,22.476,30.935  c-1.188,8.398,1.566,16.874,7.463,22.97c10.312,10.66,10.312,27.578,0,38.237c-5.897,6.096-8.651,14.572-7.463,22.97  c2.077,14.686-7.867,28.372-22.476,30.935c-8.354,1.465-15.564,6.704-19.539,14.196c-6.951,13.102-23.041,18.33-36.366,11.816  c-7.62-3.725-16.532-3.725-24.152,0c-3.236,1.582-6.636,2.466-10.028,2.718c8.01,5.984,18.991,7.355,28.549,2.682  c7.62-3.725,16.532-3.725,24.152,0c13.325,6.514,29.415,1.286,36.366-11.816c3.975-7.492,11.185-12.731,19.539-14.196  c14.609-2.563,24.553-16.249,22.475-30.935c-1.188-8.398,1.566-16.874,7.463-22.97C364.232,110.293,364.232,93.376,353.92,82.716z"/>
<g>
</g>
<g>
</g>
<g>
</g>
<g>
</g>
<g>
</g>
<g>
</g>
<g>
</g>
<g>
</g>
<g>
</g>
<g>
</g>
<g>
</g>
<g>
</g>
<g>
</g>
<g>
</g>
<g>
</g>
</svg>
