<?xml version="1.0" encoding="iso-8859-1"?>
<!-- Generator: Adobe Illustrator 19.0.0, SVG Export Plug-In . SVG Version: 6.00 Build 0)  -->
<svg xmlns="http://www.w3.org/2000/svg" xmlns:xlink="http://www.w3.org/1999/xlink" version="1.1" id="Capa_1" x="0px" y="0px" viewBox="0 0 512.001 512.001" style="enable-background:new 0 0 512.001 512.001;" xml:space="preserve">
<g>
	<path style="fill:#FDB876;" d="M405.295,383.176l-69.478-32.517l105.487-226.217c4.844-10.387,20.098-8.73,22.598,2.455   l4.189,18.742c0.925,4.137,5.516,6.279,9.28,4.327l17.05-8.839c10.175-5.275,21.25,5.346,16.407,15.733L405.295,383.176z"/>
	<path style="fill:#FDB876;" d="M106.707,383.176l69.478-32.517L70.697,124.441c-4.844-10.387-20.098-8.73-22.598,2.455   l-4.189,18.742c-0.925,4.137-5.516,6.279-9.28,4.327l-17.05-8.839c-10.175-5.275-21.25,5.346-16.407,15.733L106.707,383.176z"/>
</g>
<path style="opacity:0.1;enable-background:new    ;" d="M100.398,188.133c-16.231,4.436-28.2,19.303-28.2,36.921v84.116  l34.509,74.004l69.478-32.517L100.398,188.133z"/>
<path style="opacity:0.1;enable-background:new    ;" d="M411.604,188.133l-75.787,162.525l69.478,32.517l34.509-74.004v-84.116  C439.804,207.437,427.835,192.569,411.604,188.133z"/>
<path style="fill:#80CBDE;" d="M401.527,489.602H110.475c-10.094,0-18.277-8.183-18.277-18.277v-246.27  c0-10.094,8.183-18.277,18.277-18.277h291.052c10.094,0,18.277,8.183,18.277,18.277v246.27  C419.804,481.419,411.621,489.602,401.527,489.602z"/>
<path style="opacity:0.1;enable-background:new    ;" d="M401.527,206.778h-40.108c10.094,0,18.277,8.183,18.277,18.277v246.27  c0,10.094-8.183,18.277-18.277,18.277h40.108c10.094,0,18.277-8.183,18.277-18.277v-246.27  C419.804,214.961,411.621,206.778,401.527,206.778z"/>
<path style="fill:#80CBDE;" d="M439.456,99.83H72.546c-9.087,0-16.454-7.367-16.454-16.454V46.338  c0-9.087,7.366-16.454,16.454-16.454h366.91c9.087,0,16.454,7.367,16.454,16.454v37.039C455.909,92.464,448.543,99.83,439.456,99.83  z"/>
<path style="opacity:0.1;enable-background:new    ;" d="M439.456,29.884h-40.147c9.087,0,16.454,7.367,16.454,16.454v37.039  c0,9.087-7.367,16.454-16.454,16.454h40.147c9.087,0,16.454-7.367,16.454-16.454v-37.04  C455.909,37.25,448.543,29.884,439.456,29.884z"/>
<g>
	<path style="fill:#4A5058;" d="M172.478,186.184c-2.825,0-5.53-1.604-6.802-4.333l-17.759-38.084   c-1.75-3.754-0.126-8.216,3.628-9.967c3.753-1.751,8.216-0.126,9.967,3.628l17.759,38.084c1.751,3.754,0.127,8.216-3.628,9.967   C174.617,185.958,173.539,186.184,172.478,186.184z"/>
	<path style="fill:#4A5058;" d="M339.524,186.184c-1.061,0-2.139-0.227-3.164-0.705c-3.754-1.75-5.378-6.213-3.628-9.967   l17.759-38.084c1.75-3.754,6.212-5.378,9.967-3.628c3.754,1.751,5.378,6.213,3.628,9.967l-17.759,38.084   C345.054,184.581,342.349,186.184,339.524,186.184z"/>
	<path style="fill:#4A5058;" d="M256.001,183.954c-4.142,0-7.5-3.358-7.5-7.5v-36.485c0-4.142,3.358-7.5,7.5-7.5s7.5,3.358,7.5,7.5   v36.485C263.501,180.596,260.143,183.954,256.001,183.954z"/>
	<path style="fill:#4A5058;" d="M201.917,370.986c-4.142,0-7.5-3.358-7.5-7.5v-8.978c0-4.142,3.358-7.5,7.5-7.5s7.5,3.358,7.5,7.5   v8.978C209.417,367.628,206.059,370.986,201.917,370.986z"/>
	<path style="fill:#4A5058;" d="M310.085,370.986c-4.142,0-7.5-3.358-7.5-7.5v-8.978c0-4.142,3.358-7.5,7.5-7.5s7.5,3.358,7.5,7.5   v8.978C317.585,367.628,314.227,370.986,310.085,370.986z"/>
	<path style="fill:#4A5058;" d="M270.26,370.356c0,8.553-7.085,15.45-15.706,15.144c-8.212-0.292-14.601-7.29-14.601-15.507v-10.659   c0-2.282,1.85-4.132,4.132-4.132h22.044c2.282,0,4.132,1.85,4.132,4.132v11.022H270.26z"/>
</g>
<g>
	<path style="opacity:0.3;fill:#FFFFFF;enable-background:new    ;" d="M401.527,206.778h-91.055   c-2.833,9.028-4.365,18.631-4.365,28.593c0,52.689,42.713,95.402,95.402,95.402c6.259,0,12.372-0.621,18.295-1.772V225.055   C419.804,214.961,411.621,206.778,401.527,206.778z"/>
	<path style="opacity:0.3;fill:#FFFFFF;enable-background:new    ;" d="M118.451,391.828c-9.109,0-17.909,1.304-26.253,3.688v75.809   c0,10.094,8.183,18.277,18.277,18.277h103.318c0.019-0.791,0.06-1.576,0.06-2.372C213.853,434.541,171.14,391.828,118.451,391.828z   "/>
	<circle style="opacity:0.3;fill:#FFFFFF;enable-background:new    ;" cx="163.591" cy="263.44" r="28.556"/>
	<path style="opacity:0.3;fill:#FFFFFF;enable-background:new    ;" d="M391.056,416.891c-23.553,0-42.647,19.094-42.647,42.647   c0,11.731,4.738,22.353,12.403,30.063h40.716c10.094,0,18.277-8.183,18.277-18.277V428.04   C412.222,421.116,402.133,416.891,391.056,416.891z"/>
</g>
<path style="fill:#4A5058;" d="M162.999,104.648c-1.919,0-3.839-0.732-5.303-2.197c-2.929-2.929-2.929-7.678,0-10.606  c1.34-1.34,2.906-3.134,4.72-5.211c11.1-12.711,29.677-33.986,66.583-33.986c9.707,0,16.376-2.076,18.781-5.845  c3.271-5.128-0.523-13.633-0.563-13.717c-1.739-3.74-0.14-8.204,3.59-9.964c3.731-1.762,8.173-0.198,9.955,3.521  c0.772,1.61,7.316,16.075-0.268,28.118c-5.385,8.552-15.982,12.888-31.496,12.888c-30.091,0-45.252,17.363-55.285,28.852  c-1.91,2.187-3.713,4.252-5.412,5.951C166.838,103.916,164.919,104.648,162.999,104.648z"/>
<path style="fill:#FDB876;" d="M128.85,154.464l-21.756-21.756c-4.997-4.997-4.997-13.098,0-18.095l44.132-44.132  c4.997-4.997,13.098-4.997,18.095,0l21.756,21.756c4.997,4.997,4.997,13.098,0,18.095l-44.132,44.132  C141.948,159.461,133.847,159.461,128.85,154.464z"/>
<path style="fill:#4A5058;" d="M138.882,130.176c-1.919,0-3.839-0.732-5.303-2.197c-2.929-2.929-2.929-7.678,0-10.606l20.407-20.407  c2.929-2.929,7.678-2.929,10.606,0c2.929,2.929,2.929,7.678,0,10.606l-20.407,20.407  C142.721,129.443,140.802,130.176,138.882,130.176z"/>
<path style="opacity:0.3;fill:#FFFFFF;enable-background:new    ;" d="M439.456,29.884H328.065  c14.051,25.021,40.825,41.938,71.564,41.938c21.795,0,41.589-8.515,56.28-22.379v-3.104  C455.909,37.25,448.543,29.884,439.456,29.884z"/>
<g>
</g>
<g>
</g>
<g>
</g>
<g>
</g>
<g>
</g>
<g>
</g>
<g>
</g>
<g>
</g>
<g>
</g>
<g>
</g>
<g>
</g>
<g>
</g>
<g>
</g>
<g>
</g>
<g>
</g>
</svg>
