<?xml version="1.0" encoding="iso-8859-1"?>
<!-- Generator: Adobe Illustrator 19.0.0, SVG Export Plug-In . SVG Version: 6.00 Build 0)  -->
<svg xmlns="http://www.w3.org/2000/svg" xmlns:xlink="http://www.w3.org/1999/xlink" version="1.1" id="Capa_1" x="0px" y="0px" viewBox="0 0 512 512" style="enable-background:new 0 0 512 512;" xml:space="preserve">
<path style="fill:#FDB876;" d="M59.527,488.062H36.436c-7.389,0-13.378-5.99-13.378-13.378V93.607  c0-7.389,5.99-13.378,13.378-13.378h23.091c7.389,0,13.378,5.99,13.378,13.378v381.076  C72.905,482.072,66.915,488.062,59.527,488.062z"/>
<path style="opacity:0.1;enable-background:new    ;" d="M59.527,80.229H40.27c7.389,0,13.378,5.99,13.378,13.378v381.076  c0,7.389-5.99,13.378-13.378,13.378h19.257c7.389,0,13.378-5.99,13.378-13.378V93.607C72.905,86.219,66.916,80.229,59.527,80.229z"/>
<path style="fill:#BD9D7D;" d="M355.687,43.186c-8.667,0-17.089,1.004-25.147,2.897c-48.956,11.502-100.124,11.502-149.08,0  c-8.058-1.893-16.48-2.897-25.147-2.897c-58.19,0-105.363,45.254-105.363,101.077S98.122,245.34,156.313,245.34  c2.889,0,5.751-0.112,8.581-0.33c60.679-4.692,121.533-4.692,182.212,0c2.83,0.219,5.692,0.33,8.581,0.33  c58.19,0,105.363-45.254,105.363-101.077C461.05,88.44,413.877,43.186,355.687,43.186z M156.313,168.878  c-20.472,0-37.067-14.364-37.067-32.083s16.596-32.082,37.067-32.082s37.067,14.364,37.067,32.082  C193.38,154.514,176.785,168.878,156.313,168.878z M355.687,168.878c-20.471,0-37.067-14.364-37.067-32.083  s16.596-32.082,37.067-32.082c20.472,0,37.068,14.364,37.068,32.082C392.754,154.514,376.159,168.878,355.687,168.878z"/>
<g>
	<path style="fill:#4A5058;" d="M434.07,140.749L375.951,82.63c-18.833-18.833-8.964-51.06,17.186-56.118l0,0   c34.629-6.697,70.51-0.215,100.606,18.177l0,0c18.09,11.055,23.693,34.742,12.471,52.729l-23.569,37.779   C472.01,152.244,448.277,154.956,434.07,140.749z"/>
	<path style="fill:#4A5058;" d="M77.93,140.749l58.119-58.119c18.833-18.833,8.964-51.06-17.186-56.118l0,0   c-34.629-6.697-70.51-0.215-100.606,18.177l0,0C0.166,55.744-5.436,79.43,5.786,97.418l23.569,37.779   C39.99,152.244,63.723,154.956,77.93,140.749z"/>
</g>
<path style="fill:#F98CAE;" d="M292.091,237.796c0,19.933-16.159,36.091-36.091,36.091c-19.933,0-36.091-16.159-36.091-36.091  v-45.953h72.182V237.796z"/>
<path style="opacity:0.1;enable-background:new    ;" d="M256,250.507c-4.143,0-7.5-3.358-7.5-7.5v-45.549  c0-4.142,3.357-7.5,7.5-7.5c4.143,0,7.5,3.358,7.5,7.5v45.549C263.5,247.149,260.143,250.507,256,250.507z"/>
<path style="opacity:0.1;enable-background:new    ;" d="M219.909,191.843v45.953c0,0.853,0.04,1.695,0.098,2.533  c11.616-0.483,22.034-5.594,29.452-13.547c3.562-3.819,9.519-3.819,13.081,0c7.419,7.954,17.836,13.064,29.452,13.547  c0.058-0.838,0.099-1.681,0.099-2.533v-45.953H219.909z"/>
<path style="fill:#DFE3E5;" d="M295.77,137.066c-8.346-0.376-16.192,1.644-22.912,5.429c-10.446,5.884-23.27,5.884-33.717,0  c-6.72-3.785-14.566-5.805-22.912-5.429c-22.162,0.997-40.092,19.218-40.757,41.393c-0.726,24.21,18.684,44.064,42.731,44.064  c12.34,0,23.455-5.231,31.256-13.595c3.562-3.819,9.519-3.819,13.081,0c7.801,8.364,18.916,13.595,31.256,13.595  c24.047,0,43.456-19.854,42.731-44.064C335.863,156.284,317.932,138.063,295.77,137.066z"/>
<path style="opacity:0.1;enable-background:new    ;" d="M336.528,178.458c-0.186-6.194-1.721-12.078-4.317-17.366  c0.332,1.927,0.537,3.895,0.597,5.896c0.726,24.21-18.684,44.064-42.731,44.064c-12.34,0-23.455-5.231-31.256-13.595  c-3.562-3.819-9.519-3.819-13.081,0c-7.801,8.364-21.249,13.595-33.589,13.595c-14.09,0-26.581-6.822-34.369-17.338  c5.782,16.764,21.693,28.808,40.421,28.808c12.34,0,23.455-5.231,31.256-13.595c3.562-3.819,9.519-3.819,13.081,0  c7.801,8.364,18.916,13.595,31.256,13.595C317.843,222.522,337.253,202.669,336.528,178.458z"/>
<path style="fill:#4A5058;" d="M275.263,126.538h-38.527c-20.456,0-31.313,24.165-17.729,39.459l7.807,8.789  c15.529,17.483,42.841,17.483,58.371,0l7.807-8.789C306.577,150.703,295.719,126.538,275.263,126.538z"/>
<path style="opacity:0.1;enable-background:new    ;" d="M287.651,129.973c5.139,8.331,5.211,19.697-2.408,28.275l-7.807,8.789  c-13.923,15.675-37.312,17.285-53.194,4.853l2.572,2.896c15.529,17.483,42.841,17.483,58.371,0l7.806-8.789  C303.456,154.216,299.409,137.182,287.651,129.973z"/>
<g>
</g>
<g>
</g>
<g>
</g>
<g>
</g>
<g>
</g>
<g>
</g>
<g>
</g>
<g>
</g>
<g>
</g>
<g>
</g>
<g>
</g>
<g>
</g>
<g>
</g>
<g>
</g>
<g>
</g>
</svg>
