<?xml version="1.0" encoding="iso-8859-1"?>
<!-- Generator: Adobe Illustrator 19.0.0, SVG Export Plug-In . SVG Version: 6.00 Build 0)  -->
<svg xmlns="http://www.w3.org/2000/svg" xmlns:xlink="http://www.w3.org/1999/xlink" version="1.1" id="Capa_1" x="0px" y="0px" viewBox="0 0 512 512" style="enable-background:new 0 0 512 512;" xml:space="preserve">
<path style="fill:#80CBDE;" d="M512,73.4c0-33.583-27.224-60.807-60.807-60.807c-11.08,0-21.457,2.978-30.403,8.155  c-8.946-5.177-19.324-8.155-30.403-8.155c-33.583,0-60.807,27.224-60.807,60.807v121.613h121.613  c33.583,0,60.807-27.224,60.807-60.807c0-11.08-2.978-21.457-8.155-30.403C509.022,94.857,512,84.48,512,73.4z"/>
<g style="opacity:0.2;">
	<path d="M386.265,111.305c-1.233,0-2.483-0.305-3.638-0.946c-3.62-2.013-4.923-6.579-2.91-10.2l25.221-45.365   c2.011-3.62,6.578-4.923,10.199-2.911c3.62,2.013,4.923,6.579,2.91,10.2l-25.221,45.365   C391.456,109.914,388.899,111.305,386.265,111.305z"/>
	<path d="M420.797,145.824c-2.635,0-5.19-1.391-6.561-3.857c-2.013-3.621-0.71-8.187,2.91-10.2l45.365-25.221   c3.619-2.012,8.187-0.709,10.199,2.911c2.013,3.621,0.71,8.187-2.91,10.2l-45.365,25.221   C423.28,145.519,422.03,145.824,420.797,145.824z"/>
</g>
<path style="opacity:0.1;enable-background:new    ;" d="M329.591,72.969c-0.001,0.144-0.011,0.287-0.011,0.431v121.613h121.613  c0.145,0,0.287-0.01,0.431-0.011C431.855,137.93,386.664,92.738,329.591,72.969z"/>
<path style="fill:#80CBDE;" d="M0,438.6c0,33.582,27.224,60.807,60.807,60.807c11.08,0,21.457-2.978,30.403-8.155  c8.946,5.177,19.324,8.155,30.403,8.155c33.583,0,60.807-27.224,60.807-60.807V316.987H60.807C27.224,316.987,0,344.211,0,377.793  c0,11.08,2.978,21.457,8.155,30.403C2.978,417.142,0,427.52,0,438.6z"/>
<g style="opacity:0.2;">
	<path d="M100.501,461.063c-1.233,0-2.483-0.305-3.638-0.946c-3.62-2.013-4.923-6.579-2.91-10.2l25.221-45.365   c2.011-3.621,6.578-4.923,10.199-2.911c3.62,2.013,4.923,6.579,2.91,10.2l-25.221,45.365   C105.692,459.672,103.136,461.063,100.501,461.063z"/>
	<path d="M45.852,406.4c-2.635,0-5.191-1.391-6.562-3.857c-2.013-3.621-0.71-8.187,2.91-10.2l45.365-25.221   c3.621-2.012,8.187-0.71,10.199,2.911c2.013,3.621,0.71,8.187-2.91,10.2l-45.365,25.221C48.335,406.096,47.085,406.4,45.852,406.4z   "/>
</g>
<path style="opacity:0.1;enable-background:new    ;" d="M182.409,439.031c0.001-0.144,0.011-0.287,0.011-0.431V316.987H60.807  c-0.145,0-0.287,0.01-0.431,0.011C80.145,374.07,125.336,419.262,182.409,439.031z"/>
<circle style="fill:#80CBDE;" cx="256" cy="256" r="167.63"/>
<g>
	<path style="fill:#FFE584;" d="M328.089,104.621c-4.739,19.059-10.96,37.771-18.689,56.043   c-19.112,45.185-46.449,85.742-81.252,120.545c-31.171,31.171-66.969,56.331-106.561,74.978   c25.31,33.901,63.147,57.894,106.648,65.145c27.648-18.183,53.433-39.196,77.137-62.9c44.796-44.797,79.993-97.022,104.611-155.225   c0.943-2.23,1.864-4.466,2.772-6.706C397.401,156.069,366.859,123.118,328.089,104.621z"/>
	<path style="fill:#FFE584;" d="M88.46,250.616c61.535-33.357,108.653-89.917,129.629-157.945   C145.451,109.463,90.895,173.466,88.46,250.616z"/>
</g>
<path style="opacity:0.1;enable-background:new    ;" d="M311.874,97.915c40.48,30.602,66.644,79.144,66.644,133.801  c0,92.582-75.053,167.635-167.635,167.635c-19.593,0-38.396-3.373-55.874-9.551c28.088,21.234,63.066,33.834,100.991,33.834  c92.582,0,167.635-75.053,167.635-167.635C423.635,183.011,376.982,120.928,311.874,97.915z"/>
<g>
	<path style="fill:#4A5058;" d="M237.274,345.878c-1.832,0-3.668-0.667-5.113-2.015l-8.798-8.204   c-3.029-2.825-3.195-7.571-0.37-10.6c2.825-3.03,7.571-3.195,10.601-0.371l8.798,8.204c3.029,2.825,3.195,7.571,0.37,10.6   C241.284,345.077,239.282,345.878,237.274,345.878z"/>
	<path style="fill:#4A5058;" d="M336.121,239.877c-1.832,0-3.668-0.667-5.113-2.015l-8.798-8.204   c-3.029-2.825-3.195-7.571-0.37-10.6c2.825-3.03,7.57-3.195,10.601-0.371l8.798,8.204c3.029,2.825,3.195,7.571,0.37,10.6   C340.131,239.076,338.129,239.877,336.121,239.877z"/>
	<path style="fill:#4A5058;" d="M306.462,277.682c8.381,7.816,8.666,21.062,0.487,29.23c-7.79,7.78-20.487,7.646-28.539,0.138   l-10.445-9.74c-2.236-2.085-2.359-5.589-0.273-7.825l20.144-21.602c2.085-2.236,5.589-2.359,7.825-0.273L306.462,277.682z"/>
</g>
<g>
</g>
<g>
</g>
<g>
</g>
<g>
</g>
<g>
</g>
<g>
</g>
<g>
</g>
<g>
</g>
<g>
</g>
<g>
</g>
<g>
</g>
<g>
</g>
<g>
</g>
<g>
</g>
<g>
</g>
</svg>
