<?xml version="1.0" encoding="iso-8859-1"?>
<!-- Generator: Adobe Illustrator 19.0.0, SVG Export Plug-In . SVG Version: 6.00 Build 0)  -->
<svg xmlns="http://www.w3.org/2000/svg" xmlns:xlink="http://www.w3.org/1999/xlink" version="1.1" id="Capa_1" x="0px" y="0px" viewBox="0 0 512 512" style="enable-background:new 0 0 512 512;" xml:space="preserve">
<path style="fill:#7CD1A9;" d="M384.899,76.922L384.899,76.922c41.288,0,76.687,29.485,84.153,70.092l42.11,229.059  c5.644,30.702-17.93,59.005-49.146,59.005H331.12c-12.217,0-22.244-9.667-22.69-21.876l-9.038-247.595  C297.624,117.16,336.42,76.922,384.899,76.922z"/>
<path style="opacity:0.1;enable-background:new    ;" d="M384.899,76.922L384.899,76.922c41.288,0,76.687,29.485,84.153,70.092  l42.11,229.059c5.644,30.702-17.93,59.005-49.146,59.005H331.12c-12.217,0-22.244-9.667-22.69-21.876l-9.038-247.595  C297.624,117.16,336.42,76.922,384.899,76.922z"/>
<path style="fill:#F98CAE;" d="M511.162,376.073l-0.635-3.455H306.949l1.481,40.583c0.446,12.209,10.473,21.877,22.69,21.877  h130.895C493.232,435.078,516.806,406.775,511.162,376.073z"/>
<path style="opacity:0.1;enable-background:new    ;" d="M381.389,409.135L362.64,154.629c-1.721-23.358-10.957-45.224-26.25-62.635  c-5.896,4.066-11.256,8.849-15.952,14.225c11.815,13.518,19.481,30.813,20.893,49.98l18.749,254.506  c0.969,13.16-9.446,24.372-22.641,24.373h37.76C379.844,427.335,382.06,418.252,381.389,409.135z"/>
<path style="opacity:0.1;enable-background:new    ;" d="M511.162,376.073l-42.11-229.059  c-7.465-40.608-42.864-70.092-84.153-70.092l0,0c-5.427,0-10.732,0.508-15.873,1.472c34.25,6.41,61.876,33.303,68.369,68.621  l42.11,229.059c5.644,30.702-17.93,59.005-49.146,59.005h31.656C493.232,435.078,516.806,406.775,511.162,376.073z"/>
<path style="fill:#7CD1A9;" d="M127.101,76.922L127.101,76.922c-41.288,0-76.687,29.485-84.153,70.092L0.838,376.073  c-5.644,30.702,17.93,59.005,49.146,59.005H180.88c12.217,0,22.244-9.667,22.69-21.876l9.038-247.595  C214.376,117.16,175.58,76.922,127.101,76.922z"/>
<path style="opacity:0.1;enable-background:new    ;" d="M127.101,76.922L127.101,76.922c-41.288,0-76.687,29.485-84.153,70.092  L0.838,376.073c-5.644,30.702,17.93,59.005,49.146,59.005H180.88c12.217,0,22.244-9.667,22.69-21.876l9.038-247.595  C214.376,117.16,175.58,76.922,127.101,76.922z"/>
<path style="fill:#F98CAE;" d="M0.838,376.073l0.635-3.455H205.05l-1.481,40.583c-0.446,12.209-10.473,21.877-22.69,21.877H49.984  C18.768,435.078-4.806,406.775,0.838,376.073z"/>
<path style="fill:#7CD1A9;" d="M256,76.922h-1.027c-44.816,0-82.039,34.582-85.332,79.277l-18.749,254.506  c-0.97,13.161,9.447,24.373,22.643,24.373h163.902c13.197,0,23.613-11.212,22.643-24.373l-18.749-254.506  C338.039,111.504,300.816,76.922,256,76.922z"/>
<path style="fill:#F98CAE;" d="M360.081,410.705l-2.806-38.087H153.698l-2.806,38.087c-0.969,13.161,9.447,24.373,22.643,24.373  h163.902C350.634,435.078,361.05,423.866,360.081,410.705z"/>
<path style="fill:#FFE584;" d="M115.778,306.363l-22.171,22.171c-5.66,5.66-14.836,5.66-20.496,0L50.94,306.363  c-5.66-5.66-5.66-14.836,0-20.496l22.171-22.171c5.66-5.66,14.836-5.66,20.496,0l22.171,22.171  C121.437,291.527,121.437,300.703,115.778,306.363z"/>
<path style="opacity:0.1;enable-background:new    ;" d="M115.778,285.867l-9.724-9.724c5.66,5.66,5.66,14.836,0,20.496  L83.883,318.81c-5.66,5.66-14.836,5.66-20.496,0l9.724,9.724c5.66,5.66,14.836,5.66,20.496,0l22.171-22.171  C121.437,300.704,121.437,291.527,115.778,285.867z"/>
<path style="fill:#FFE584;" d="M425.375,198.757l-22.171,22.171c-5.66,5.66-14.836,5.66-20.496,0l-22.171-22.171  c-5.66-5.66-5.66-14.836,0-20.496l22.171-22.171c5.66-5.66,14.836-5.66,20.496,0l22.171,22.171  C431.034,183.921,431.034,193.097,425.375,198.757z"/>
<path style="opacity:0.1;enable-background:new    ;" d="M425.375,178.261l-9.724-9.724c5.66,5.66,5.66,14.836,0,20.496  l-22.171,22.171c-5.66,5.66-14.836,5.66-20.496,0l9.724,9.724c5.66,5.66,14.836,5.66,20.496,0l22.171-22.171  C431.034,193.097,431.034,183.921,425.375,178.261z"/>
<path style="fill:#F98CAE;" d="M400.156,319.104l29.464,10.724c7.521,2.738,15.838-1.141,18.576-8.662l10.724-29.464  c2.738-7.521-1.14-15.838-8.662-18.576l-29.464-10.724c-7.521-2.738-15.838,1.141-18.576,8.662l-10.724,29.464  C388.756,308.05,392.634,316.366,400.156,319.104z"/>
<path style="opacity:0.1;enable-background:new    ;" d="M451.35,273.588c0.145,1.981-0.104,4.021-0.827,6.009l-10.724,29.464  c-2.738,7.521-11.054,11.4-18.576,8.662l-29.464-10.724c-0.376-0.137-0.736-0.298-1.093-0.462  c0.405,5.516,3.955,10.552,9.489,12.566l29.464,10.724c7.521,2.738,15.838-1.14,18.576-8.662l10.724-29.464  C461.52,284.557,458.142,276.704,451.35,273.588z"/>
<path style="fill:#F98CAE;" d="M158.789,221.69l28.417-13.251c7.254-3.383,10.393-12.006,7.01-19.26l-13.251-28.417  c-3.383-7.254-12.005-10.393-19.26-7.01l-28.417,13.251c-7.254,3.383-10.393,12.006-7.01,19.26l13.251,28.417  C142.912,221.934,151.535,225.073,158.789,221.69z"/>
<path style="opacity:0.1;enable-background:new    ;" d="M194.216,189.179l-13.251-28.417c-2.013-4.316-5.885-7.159-10.216-8.055  l13.05,27.987c3.383,7.254,0.244,15.877-7.01,19.26l-28.417,13.251c-2.938,1.37-6.096,1.654-9.044,1.045l0.2,0.43  c3.383,7.254,12.006,10.393,19.26,7.01l28.417-13.251C194.46,205.056,197.598,196.434,194.216,189.179z"/>
<g>
	<path style="fill:#4A5058;" d="M187.114,321.491c-4.142,0-7.5-3.358-7.5-7.5v-11.35c0-4.142,3.358-7.5,7.5-7.5s7.5,3.358,7.5,7.5   v11.35C194.614,318.133,191.256,321.491,187.114,321.491z"/>
	<path style="fill:#4A5058;" d="M323.858,321.491c-4.143,0-7.5-3.358-7.5-7.5v-11.35c0-4.142,3.357-7.5,7.5-7.5s7.5,3.358,7.5,7.5   v11.35C331.358,318.133,328.001,321.491,323.858,321.491z"/>
	<path style="fill:#4A5058;" d="M255.486,330.207c-9.076,0-17.708-3.931-23.68-10.785c-2.721-3.123-2.396-7.86,0.727-10.582   c3.123-2.721,7.86-2.397,10.581,0.727c3.123,3.584,7.632,5.639,12.372,5.639c4.739,0,9.248-2.056,12.373-5.64   c2.721-3.123,7.46-3.447,10.581-0.726c3.123,2.722,3.447,7.46,0.726,10.582C273.192,326.276,264.561,330.207,255.486,330.207z"/>
</g>
<path style="opacity:0.1;enable-background:new    ;" d="M150.892,410.705l18.749-254.506c1.432-19.438,9.286-36.958,21.387-50.558  c-4.744-5.329-10.144-10.065-16.078-14.078c-15.518,17.48-24.882,39.518-26.617,63.066l-18.749,254.505  c-0.672,9.118,1.544,18.2,6.189,25.943h37.763C160.339,435.078,149.922,423.866,150.892,410.705z"/>
<g>
</g>
<g>
</g>
<g>
</g>
<g>
</g>
<g>
</g>
<g>
</g>
<g>
</g>
<g>
</g>
<g>
</g>
<g>
</g>
<g>
</g>
<g>
</g>
<g>
</g>
<g>
</g>
<g>
</g>
</svg>
