<?xml version="1.0" encoding="iso-8859-1"?>
<!-- Generator: Adobe Illustrator 19.0.0, SVG Export Plug-In . SVG Version: 6.00 Build 0)  -->
<svg xmlns="http://www.w3.org/2000/svg" xmlns:xlink="http://www.w3.org/1999/xlink" version="1.1" id="Capa_1" x="0px" y="0px" viewBox="0 0 512.001 512.001" style="enable-background:new 0 0 512.001 512.001;" xml:space="preserve">
<path style="fill:#7CD1A9;" d="M355.834,316.925c-1.039-68.313-56.73-123.374-125.291-123.374  c-69.21,0-125.315,56.105-125.315,125.316c0,69.21,56.106,125.315,125.315,125.315c30.891,0,59.166-11.184,81.012-29.715  c8.879,6.268,19.705,9.963,31.4,9.963c30.113,0,54.525-24.411,54.525-54.525C397.479,344.231,379.729,322.714,355.834,316.925z"/>
<path style="opacity:0.25;enable-background:new    ;" d="M355.834,316.925c-1.039-68.313-56.73-123.374-125.291-123.374  c-69.21,0-125.315,56.105-125.315,125.316c0,69.21,56.106,125.315,125.315,125.315c30.891,0,59.166-11.184,81.012-29.715  c8.879,6.268,19.705,9.963,31.4,9.963c30.113,0,54.525-24.411,54.525-54.525C397.479,344.231,379.729,322.714,355.834,316.925z"/>
<path style="fill:#7CD1A9;" d="M134.827,273.76c33.556,33.556,42.372,83.292,44.553,112.194c0.968,12.829-9.743,23.54-22.572,22.572  c-28.902-2.18-78.638-10.997-112.194-44.553S2.241,280.681,0.061,251.78c-0.968-12.829,9.743-23.54,22.572-22.572  C51.535,231.388,101.271,240.205,134.827,273.76z"/>
<path style="opacity:0.1;enable-background:new    ;" d="M179.379,385.954c-2.151-28.515-10.78-77.299-43.236-110.826v130.968  c7.577,1.214,14.585,1.972,20.663,2.431C169.636,409.494,180.347,398.783,179.379,385.954z"/>
<path style="opacity:0.1;enable-background:new    ;" d="M115.919,352.566c-1.919,0-3.839-0.732-5.303-2.197l-52.398-52.398  c-2.929-2.929-2.929-7.678,0-10.606c2.929-2.929,7.678-2.93,10.606,0l52.397,52.397c2.929,2.929,2.929,7.678,0,10.607  C119.757,351.833,117.837,352.566,115.919,352.566z"/>
<path style="fill:#7CD1A9;" d="M377.173,235.092c-33.556,33.556-42.372,83.292-44.552,112.194  c-0.968,12.829,9.743,23.54,22.572,22.572c28.902-2.18,78.638-10.997,112.194-44.552s42.372-83.292,44.553-112.194  c0.968-12.829-9.743-23.54-22.572-22.572C460.465,192.72,410.729,201.536,377.173,235.092z"/>
<path style="opacity:0.1;enable-background:new    ;" d="M332.621,347.286c-0.968,12.829,9.743,23.54,22.572,22.572  c6.31-0.476,13.613-1.269,21.523-2.565V235.567C343.545,269.116,334.791,318.519,332.621,347.286z"/>
<path style="opacity:0.1;enable-background:new    ;" d="M396.081,313.898c-1.919,0-3.839-0.732-5.303-2.197  c-2.929-2.929-2.929-7.678,0-10.606l52.397-52.397c2.929-2.929,7.678-2.929,10.606,0c2.929,2.929,2.929,7.678,0,10.606  l-52.397,52.397C399.92,313.165,398.001,313.898,396.081,313.898z"/>
<path style="fill:#80CBDE;" d="M256.112,45.973C238.928,22.05,211.911,5.665,180.974,2.741c-5.349-0.506-9.979,3.703-9.979,9.076  v97.169c0,37.686,30.55,68.236,68.236,68.236h33.761c37.686,0,68.236-30.55,68.236-68.236v-97.17c0-5.373-4.629-9.582-9.979-9.076  C300.313,5.665,273.296,22.05,256.112,45.973z"/>
<path style="opacity:0.1;enable-background:new    ;" d="M331.25,2.74c-30.937,2.925-57.954,19.309-75.138,43.232  c-0.037-0.051-0.076-0.101-0.112-0.152c-12.815,17.808-20.368,39.656-20.368,63.27c0,25.811,9.023,49.51,24.08,68.13h13.281  c37.686,0,68.236-30.55,68.236-68.236V11.816C341.229,6.443,336.599,2.235,331.25,2.74z"/>
<path style="opacity:0.1;enable-background:new    ;" d="M331.25,2.74c-3.703,0.35-7.348,0.898-10.929,1.624v83.713  c0,37.686-30.55,68.236-68.236,68.236h-33.761c-13.49,0-26.055-3.931-36.642-10.686c12.116,18.99,33.354,31.594,57.55,31.594h33.761  c37.686,0,68.236-30.55,68.236-68.236V11.816C341.229,6.443,336.599,2.235,331.25,2.74z"/>
<rect x="239.23" y="177.221" style="fill:#7CD1A9;" width="33.761" height="225.58"/>
<rect x="239.23" y="177.221" style="opacity:0.1;enable-background:new    ;" width="33.761" height="23.297"/>
<path style="fill:#F98CAE;" d="M170.996,125.654c-17.184-23.923-44.2-40.308-75.138-43.232c-5.349-0.506-9.979,3.703-9.979,9.076  v97.169c0,37.686,30.55,68.236,68.236,68.236h33.761c37.686,0,68.236-30.55,68.236-68.236v-97.17c0-5.373-4.63-9.581-9.979-9.076  C215.196,85.346,188.18,101.731,170.996,125.654z"/>
<path style="opacity:0.1;enable-background:new    ;" d="M246.134,82.421c-30.937,2.925-57.954,19.309-75.138,43.232  c-0.037-0.051-0.076-0.101-0.113-0.152c-12.815,17.808-20.368,39.656-20.368,63.27c0,25.811,9.023,49.51,24.08,68.13h13.281  c37.686,0,68.236-30.55,68.236-68.236V91.497C256.112,86.124,251.483,81.916,246.134,82.421z"/>
<path style="opacity:0.1;enable-background:new    ;" d="M246.134,82.421c-3.703,0.35-7.348,0.898-10.929,1.624v83.713  c0,37.686-30.55,68.236-68.236,68.236h-33.761c-13.49,0-26.055-3.931-36.642-10.686c12.116,18.99,33.354,31.594,57.55,31.594h33.761  c37.686,0,68.236-30.55,68.236-68.236V91.497C256.112,86.124,251.483,81.916,246.134,82.421z"/>
<rect x="154.12" y="256.901" style="fill:#7CD1A9;" width="33.761" height="145.9"/>
<rect x="154.12" y="256.901" style="opacity:0.1;enable-background:new    ;" width="33.761" height="23.297"/>
<path style="fill:#FFE584;" d="M341.229,160.549c17.184-23.923,44.201-40.308,75.138-43.232c5.349-0.506,9.979,3.703,9.979,9.076  v97.169c0,37.686-30.55,68.236-68.236,68.236h-33.761c-37.686,0-68.236-30.55-68.236-68.236v-97.169  c0-5.373,4.629-9.581,9.979-9.076C297.028,120.242,324.045,136.626,341.229,160.549z"/>
<path style="opacity:0.1;enable-background:new    ;" d="M416.367,117.317c-30.937,2.925-57.954,19.309-75.138,43.232  c-0.037-0.051-0.076-0.101-0.112-0.152c-12.815,17.807-20.368,39.656-20.368,63.27c0,25.811,9.023,49.51,24.079,68.13h13.281  c37.686,0,68.236-30.55,68.236-68.236v-97.169C426.345,121.02,421.716,116.811,416.367,117.317z"/>
<path style="opacity:0.1;enable-background:new    ;" d="M416.367,117.317c-3.703,0.35-7.348,0.898-10.929,1.624v83.713  c0,37.686-30.55,68.236-68.236,68.236h-33.761c-13.49,0-26.055-3.931-36.642-10.686c12.116,18.99,33.354,31.594,57.55,31.594h33.761  c37.686,0,68.236-30.55,68.236-68.236v-97.169C426.345,121.02,421.716,116.811,416.367,117.317z"/>
<rect x="324.35" y="291.801" style="fill:#7CD1A9;" width="33.761" height="111"/>
<rect x="324.35" y="291.801" style="opacity:0.1;enable-background:new    ;" width="33.761" height="23.297"/>
<path style="fill:#DFE3E5;" d="M392.245,440.969H119.98c-5.468,0-9.901-4.433-9.901-9.901v-18.365c0-5.468,4.433-9.901,9.901-9.901  h272.265c5.468,0,9.901,4.433,9.901,9.901v18.365C402.146,436.537,397.713,440.969,392.245,440.969z"/>
<path style="opacity:0.1;enable-background:new    ;" d="M392.245,402.802h-21.317c5.468,0,9.901,4.433,9.901,9.901v18.365  c0,5.468-4.433,9.901-9.901,9.901h21.317c5.468,0,9.901-4.433,9.901-9.901v-18.365C402.146,407.235,397.713,402.802,392.245,402.802  z"/>
<path style="fill:#DFE3E5;" d="M380.829,440.969H131.396v44.133c0,13.366,10.835,24.2,24.2,24.2h201.033  c13.365,0,24.2-10.835,24.2-24.2V440.969z"/>
<path style="opacity:0.1;enable-background:new    ;" d="M131.396,440.969v26.716h225.487v17.418c0,13.366-10.835,24.2-24.2,24.2  h23.947c13.365,0,24.201-10.835,24.201-24.2V440.97H131.396V440.969z"/>
<g>
</g>
<g>
</g>
<g>
</g>
<g>
</g>
<g>
</g>
<g>
</g>
<g>
</g>
<g>
</g>
<g>
</g>
<g>
</g>
<g>
</g>
<g>
</g>
<g>
</g>
<g>
</g>
<g>
</g>
</svg>
