<?xml version="1.0" encoding="iso-8859-1"?>
<!-- Generator: Adobe Illustrator 19.0.0, SVG Export Plug-In . SVG Version: 6.00 Build 0)  -->
<svg xmlns="http://www.w3.org/2000/svg" xmlns:xlink="http://www.w3.org/1999/xlink" version="1.1" id="Capa_1" x="0px" y="0px" viewBox="0 0 512 512" style="enable-background:new 0 0 512 512;" xml:space="preserve">
<path style="fill:#BD9D7D;" d="M458.473,504.163H53.527c-18.993,0-34.389-15.397-34.389-34.389V250.779h473.724v218.996  C492.862,488.767,477.465,504.163,458.473,504.163z"/>
<rect x="19.14" y="443.19" style="fill:#FFE584;" width="473.72" height="15"/>
<path style="opacity:0.1;enable-background:new    ;" d="M492.357,258.788H19.643c-0.17,0-0.336,0.021-0.505,0.025v100.064  c13.71,3.988,29.636-1.04,37.751-15.095l0,0c12.642-21.896,44.247-21.896,56.889,0l0,0c12.642,21.896,44.247,21.896,56.889,0l0,0  c12.642-21.896,44.247-21.896,56.889,0l0,0c12.642,21.896,44.247,21.896,56.889,0l0,0c12.642-21.896,44.247-21.896,56.889,0l0,0  c12.642,21.896,44.247,21.896,56.889,0l0,0c12.339-21.372,42.735-21.872,55.94-1.523v127.515c0,18.993-15.397,34.389-34.389,34.389  h38.7c18.993,0,34.389-15.397,34.389-34.389v-210.96C492.692,258.809,492.527,258.788,492.357,258.788z"/>
<path style="fill:#F98CAE;" d="M512,309.658c0,7.846-3.831,15.28-10.39,19.585c-14.949,9.811-36.571,6.119-46.498-11.076l0,0  c-12.642-21.896-44.247-21.896-56.889,0l0,0c-12.642,21.897-44.247,21.897-56.889,0l0,0c-12.642-21.896-44.247-21.896-56.889,0l0,0  c-12.642,21.897-44.247,21.897-56.889,0l0,0c-12.642-21.896-44.247-21.896-56.889,0l0,0c-12.642,21.897-44.247,21.897-56.889,0l0,0  c-12.642-21.896-44.247-21.896-56.889,0l0,0c-9.928,17.195-31.549,20.887-46.498,11.076C3.831,324.939,0,317.505,0,309.658v-56.841  c0-10.849,8.795-19.643,19.643-19.643h472.714c10.849,0,19.643,8.794,19.643,19.643V309.658z"/>
<path style="opacity:0.1;enable-background:new    ;" d="M492.357,233.174h-27.159c10.849,0,19.643,8.795,19.643,19.643v56.842  c0,7.846-3.831,15.28-10.391,19.585c-1.434,0.941-2.93,1.755-4.47,2.448c10.127,4.551,22.204,3.738,31.629-2.448  c6.56-4.305,10.39-11.739,10.39-19.585v-56.842C512,241.968,503.206,233.174,492.357,233.174z"/>
<rect x="79.16" y="121.54" style="fill:#BD9D7D;" width="353.68" height="111.63"/>
<g style="opacity:0.1;">
	<circle cx="431.21" cy="358.99" r="7.16"/>
	<circle cx="136.99" cy="195.03" r="7.16"/>
	<circle cx="465.2" cy="407.7" r="7.16"/>
	<circle cx="66.786" cy="414.86" r="7.16"/>
</g>
<path style="opacity:0.1;enable-background:new    ;" d="M79.16,121.541v68.741c8.792,0.236,17.689-3.996,22.715-12.701  c9.786-16.949,34.25-16.949,44.036,0l0,0c9.786,16.949,34.25,16.949,44.036,0l0,0c9.786-16.949,34.25-16.949,44.036,0l0,0  c9.786,16.949,34.25,16.949,44.036,0l0,0c9.786-16.949,34.25-16.949,44.036,0l0,0c9.786,16.949,34.25,16.949,44.036,0  c6.23-10.79,18.406-14.7,28.959-11.751v67.344h37.792V121.541H79.16z"/>
<path style="fill:#F98CAE;" d="M454.162,151.001c0,6.074-2.965,11.828-8.043,15.161c-11.572,7.594-28.308,4.736-35.993-8.574l0,0  c-9.786-16.949-34.25-16.949-44.036,0l0,0c-9.786,16.949-34.25,16.949-44.036,0l0,0c-9.786-16.949-34.25-16.949-44.036,0l0,0  c-9.786,16.949-34.25,16.949-44.036,0l0,0c-9.786-16.949-34.25-16.949-44.036,0l0,0c-9.786,16.949-34.25,16.949-44.036,0l0,0  c-9.786-16.949-34.25-16.949-44.036,0l0,0c-7.685,13.31-24.421,16.168-35.993,8.574c-5.078-3.333-8.043-9.087-8.043-15.16v-43.999  c0-8.397,6.807-15.205,15.205-15.205h365.913c8.398,0,15.205,6.808,15.205,15.205v43.998H454.162z"/>
<path style="opacity:0.1;enable-background:new    ;" d="M438.957,91.796h-26.159c8.398,0,15.205,6.808,15.205,15.205V151  c0,6.074-2.965,11.828-8.043,15.16c-0.294,0.193-0.593,0.374-0.893,0.553c8.291,4.951,18.939,4.771,27.051-0.553  c5.078-3.332,8.043-9.087,8.043-15.16v-43.999C454.162,98.604,447.354,91.796,438.957,91.796z"/>
<path style="fill:#DFE3E5;" d="M123.882,91.796c-12.419-39.063,39.488-58.928,48.398-79.905c1.683-3.962,6.667-5.244,10.24-2.843  c24.849,16.703,50.236,58.126,40.436,82.748H123.882z"/>
<path style="opacity:0.1;enable-background:new    ;" d="M186.068,11.614c18.599,23.917,26.414,61.859,15.556,80.182h21.332  C232.29,68.347,209.706,29.675,186.068,11.614z"/>
<path style="opacity:0.1;enable-background:new    ;" d="M169.229,74.777c-0.771,0-1.554-0.12-2.326-0.371  c-3.938-1.284-6.09-5.518-4.806-9.456c2.492-7.644,5.595-12.512,8.088-16.424c2.181-3.422,3.756-5.894,4.656-9.528  c0.997-4.021,5.063-6.473,9.083-5.477c4.021,0.996,6.473,5.062,5.477,9.083c-1.49,6.018-4.071,10.067-6.566,13.983  c-2.352,3.691-4.574,7.177-6.476,13.012C175.326,72.765,172.387,74.777,169.229,74.777z"/>
<path style="fill:#DFE3E5;" d="M288.797,91.796c-12.419-39.063,39.487-58.928,48.398-79.905c1.683-3.962,6.667-5.244,10.24-2.843  c24.849,16.703,50.236,58.126,40.436,82.748H288.797z"/>
<path style="opacity:0.1;enable-background:new    ;" d="M350.983,11.614c18.599,23.917,26.414,61.859,15.556,80.182h21.332  C397.204,68.347,374.621,29.675,350.983,11.614z"/>
<path style="opacity:0.1;enable-background:new    ;" d="M334.144,74.777c-0.771,0-1.554-0.12-2.326-0.371  c-3.938-1.284-6.09-5.518-4.806-9.456c2.492-7.644,5.595-12.512,8.088-16.424c2.181-3.422,3.756-5.894,4.656-9.528  c0.996-4.021,5.061-6.473,9.083-5.477c4.02,0.996,6.473,5.062,5.477,9.083c-1.49,6.018-4.071,10.067-6.566,13.983  c-2.352,3.691-4.574,7.177-6.476,13.012C340.241,72.765,337.302,74.777,334.144,74.777z"/>
<g>
	<path style="fill:#4A5058;" d="M181.785,398.291c-4.142,0-7.5-3.358-7.5-7.5v-12.319c0-4.142,3.358-7.5,7.5-7.5s7.5,3.358,7.5,7.5   v12.319C189.285,394.933,185.927,398.291,181.785,398.291z"/>
	<path style="fill:#4A5058;" d="M330.215,398.291c-4.142,0-7.5-3.358-7.5-7.5v-12.319c0-4.142,3.358-7.5,7.5-7.5s7.5,3.358,7.5,7.5   v12.319C337.715,394.933,334.357,398.291,330.215,398.291z"/>
	<path style="fill:#4A5058;" d="M256,407.751c-9.666,0-18.858-4.186-25.22-11.486c-2.722-3.122-2.396-7.86,0.726-10.582   c3.122-2.722,7.86-2.397,10.581,0.726c3.513,4.03,8.583,6.342,13.913,6.342s10.4-2.311,13.913-6.342   c2.722-3.123,7.458-3.448,10.582-0.726c3.123,2.721,3.448,7.459,0.726,10.582C274.858,403.565,265.666,407.751,256,407.751z"/>
</g>
<g>
</g>
<g>
</g>
<g>
</g>
<g>
</g>
<g>
</g>
<g>
</g>
<g>
</g>
<g>
</g>
<g>
</g>
<g>
</g>
<g>
</g>
<g>
</g>
<g>
</g>
<g>
</g>
<g>
</g>
</svg>
