<?xml version="1.0" encoding="iso-8859-1"?>
<!-- Generator: Adobe Illustrator 19.1.0, SVG Export Plug-In . SVG Version: 6.00 Build 0)  -->
<svg version="1.1" id="Capa_1" xmlns="http://www.w3.org/2000/svg" xmlns:xlink="http://www.w3.org/1999/xlink" x="0px" y="0px"
	 viewBox="0 0 300 300" style="enable-background:new 0 0 300 300;" xml:space="preserve">
<g>
	<rect x="107.667" y="173" style="fill:#C8F1DE;" width="17" height="34"/>
	<rect x="107.667" y="75" style="fill:#C8F1DE;" width="17" height="33"/>
	<rect x="107.667" y="124" style="fill:#C8F1DE;" width="17" height="33"/>
	<rect x="107.667" y="223" style="fill:#C8F1DE;" width="17" height="59"/>
	<rect x="107.667" y="18" style="fill:#C8F1DE;" width="17" height="41"/>
	<rect x="74.667" y="124" style="fill:#FFFFFF;" width="17" height="33"/>
	<rect x="74.667" y="18" style="fill:#FFFFFF;" width="17" height="41"/>
	<rect x="74.667" y="75" style="fill:#FFFFFF;" width="17" height="33"/>
	<rect x="74.667" y="173" style="fill:#FFFFFF;" width="17" height="34"/>
	<rect x="74.667" y="223" style="fill:#FFFFFF;" width="17" height="59"/>
	<rect x="41.667" y="18" style="fill:#C8F1DE;" width="17" height="41"/>
	<rect x="41.667" y="223" style="fill:#C8F1DE;" width="17" height="59"/>
	<rect x="41.667" y="124" style="fill:#C8F1DE;" width="17" height="33"/>
	<rect x="41.667" y="173" style="fill:#C8F1DE;" width="17" height="34"/>
	<rect x="41.667" y="75" style="fill:#C8F1DE;" width="17" height="33"/>
	<rect x="239.667" y="75" style="fill:#9696A0;" width="17" height="33"/>
	<rect x="239.667" y="124" style="fill:#9696A0;" width="17" height="33"/>
	<rect x="239.667" y="173" style="fill:#9696A0;" width="17" height="34"/>
	<rect x="239.667" y="223" style="fill:#9696A0;" width="17" height="59"/>
	<rect x="206.667" y="75" style="fill:#C8F1DE;" width="17" height="33"/>
	<rect x="206.667" y="173" style="fill:#C8F1DE;" width="17" height="34"/>
	<rect x="206.667" y="124" style="fill:#C8F1DE;" width="17" height="33"/>
	<rect x="206.667" y="223" style="fill:#C8F1DE;" width="17" height="59"/>
	<rect x="173.667" y="124" style="fill:#9696A0;" width="17" height="33"/>
	<rect x="173.667" y="173" style="fill:#9696A0;" width="17" height="34"/>
	<rect x="173.667" y="223" style="fill:#9696A0;" width="17" height="59"/>
	<rect x="173.667" y="75" style="fill:#9696A0;" width="17" height="33"/>
	<path d="M292,282h-19.333V67c0-4.418-3.249-8-7.667-8h-99c-4.418,0-8.333,3.582-8.333,8v215h-17V10c0-4.418-3.249-8-7.667-8H34
		c-4.418,0-8.333,3.582-8.333,8v272H8c-4.418,0-8,3.582-8,8s3.582,8,8,8h284c4.418,0,8-3.582,8-8S296.418,282,292,282z M223.667,207
		h-17v-34h17V207z M239.667,173h17v34h-17V173z M256.667,157h-17v-33h17V157z M223.667,157h-17v-33h17V157z M190.667,157h-17v-33h17
		V157z M173.667,173h17v34h-17V173z M206.667,223h17v59h-17V223z M239.667,223h17v59h-17V223z M256.667,108h-17V75h17V108z
		 M223.667,108h-17V75h17V108z M190.667,108h-17V75h17V108z M173.667,223h17v59h-17V223z M91.667,157h-17v-33h17V157z M107.667,124
		h17v33h-17V124z M124.667,108h-17V75h17V108z M91.667,108h-17V75h17V108z M58.667,108h-17V75h17V108z M41.667,124h17v33h-17V124z
		 M91.667,173v34h-17v-34H91.667z M107.667,173h17v34h-17V173z M41.667,173h17v34h-17V173z M74.667,223h17v59h-17V223z M107.667,223
		h17v59h-17V223z M124.667,59h-17V18h17V59z M91.667,59h-17V18h17V59z M58.667,59h-17V18h17V59z M41.667,223h17v59h-17V223z"/>
</g>
<g>
</g>
<g>
</g>
<g>
</g>
<g>
</g>
<g>
</g>
<g>
</g>
<g>
</g>
<g>
</g>
<g>
</g>
<g>
</g>
<g>
</g>
<g>
</g>
<g>
</g>
<g>
</g>
<g>
</g>
</svg>
