<?xml version="1.0" encoding="iso-8859-1"?>
<!-- Generator: Adobe Illustrator 19.1.0, SVG Export Plug-In . SVG Version: 6.00 Build 0)  -->
<svg version="1.1" id="Capa_1" xmlns="http://www.w3.org/2000/svg" xmlns:xlink="http://www.w3.org/1999/xlink" x="0px" y="0px"
	 viewBox="0 0 297 297" style="enable-background:new 0 0 297 297;" xml:space="preserve">
<g>
	<path style="fill:#A9BD34;" d="M272,263h-50.333v18H272c4.963,0,9-4.037,9-9S276.963,263,272,263z"/>
	<path d="M272,247h-50.333V8c0-4.418-3.249-8-7.667-8H83c-4.418,0-8.333,3.582-8.333,8v239H25c-13.785,0-25,11.215-25,25
		s11.215,25,25,25h247c13.785,0,25-11.215,25-25S285.785,247,272,247z M272,281h-50.333v-18H272c4.963,0,9,4.037,9,9
		S276.963,281,272,281z M16,272c0-4.963,4.037-9,9-9h49.667v18H25C20.037,281,16,276.963,16,272z M172.667,281h-16v-32.774
		c10,3.116,16,11.897,16,22.829V281z M90.667,281v-59h17v59H90.667z M148.887,231c-9.495,0-18.22,3.145-25.22,8.406V222h50v17.515
		C167.667,234.166,158.337,231,148.887,231z M107.667,156h-17v-33h17V156z M123.667,123h50v33h-50V123z M173.667,172v34h-50v-34
		H173.667z M189.667,123h16v33h-16V123z M205.667,107h-16V74h16V107z M173.667,107h-50V74h50V107z M107.667,107h-17V74h17V107z
		 M90.667,172h17v34h-17V172z M189.667,172h16v34h-16V172z M189.667,222h16v59h-16V222z M205.667,58h-16V16h16V58z M173.667,58h-50
		V16h50V58z M107.667,58h-17V16h17V58z M123.667,271.055c0-10.519,7-19.476,17-22.735V281h-17V271.055z"/>
	<path style="fill:#A9BD34;" d="M74.667,281v-18H25c-4.963,0-9,4.037-9,9s4.037,9,9,9H74.667z"/>
	<rect x="189.667" y="74" style="fill:#C8F1DE;" width="16" height="33"/>
	<rect x="189.667" y="123" style="fill:#C8F1DE;" width="16" height="33"/>
	<rect x="189.667" y="16" style="fill:#C8F1DE;" width="16" height="42"/>
	<rect x="189.667" y="172" style="fill:#C8F1DE;" width="16" height="34"/>
	<rect x="189.667" y="222" style="fill:#C8F1DE;" width="16" height="59"/>
	<rect x="123.667" y="16" style="fill:#9696A0;" width="50" height="42"/>
	<path style="fill:#9696A0;" d="M173.667,222h-50v17.406c7-5.262,15.725-8.406,25.22-8.406c9.45,0,18.78,3.166,24.78,8.515V222z"/>
	<rect x="123.667" y="123" style="fill:#9696A0;" width="50" height="33"/>
	<rect x="123.667" y="74" style="fill:#9696A0;" width="50" height="33"/>
	<rect x="123.667" y="172" style="fill:#9696A0;" width="50" height="34"/>
	<rect x="90.667" y="222" style="fill:#C8F1DE;" width="17" height="59"/>
	<rect x="90.667" y="123" style="fill:#C8F1DE;" width="17" height="33"/>
	<rect x="90.667" y="172" style="fill:#C8F1DE;" width="17" height="34"/>
	<rect x="90.667" y="74" style="fill:#C8F1DE;" width="17" height="33"/>
	<rect x="90.667" y="16" style="fill:#C8F1DE;" width="17" height="42"/>
	<path style="fill:#FFFFFF;" d="M140.667,248.319c-10,3.26-17,12.217-17,22.735V281h17V248.319z"/>
	<path style="fill:#FFFFFF;" d="M156.667,248.226V281h16v-9.945C172.667,260.123,166.667,251.342,156.667,248.226z"/>
</g>
<g>
</g>
<g>
</g>
<g>
</g>
<g>
</g>
<g>
</g>
<g>
</g>
<g>
</g>
<g>
</g>
<g>
</g>
<g>
</g>
<g>
</g>
<g>
</g>
<g>
</g>
<g>
</g>
<g>
</g>
</svg>
