<?xml version="1.0" encoding="iso-8859-1"?>
<!-- Generator: Adobe Illustrator 19.1.0, SVG Export Plug-In . SVG Version: 6.00 Build 0)  -->
<svg version="1.1" id="Capa_1" xmlns="http://www.w3.org/2000/svg" xmlns:xlink="http://www.w3.org/1999/xlink" x="0px" y="0px"
	 viewBox="0 0 297.165 297.165" style="enable-background:new 0 0 297.165 297.165;" xml:space="preserve">
<g>
	<path style="fill:#FFB929;" d="M29.301,224.151c7.15,0,12.967-5.816,12.967-12.966c0-7.15-5.816-12.968-12.967-12.968
		s-12.967,5.817-12.967,12.968C16.334,218.335,22.15,224.151,29.301,224.151z"/>
	<path style="fill:#FFB929;" d="M268.365,224.151c7.15,0,12.967-5.816,12.967-12.966c0-7.15-5.816-12.968-12.967-12.968
		s-12.967,5.817-12.967,12.968C255.398,218.335,261.215,224.151,268.365,224.151z"/>
	<path style="fill:#A9BD34;" d="M74,262.583H25.334c-4.963,0-9.334,4.037-9.334,9v9h58V262.583z"/>
	<path style="fill:#A9BD34;" d="M281,271.583c0-4.963-3.705-9-8.668-9H221v18h60V271.583z"/>
	<path d="M276,246.907v-7.879c12-3.471,21.165-14.635,21.165-27.843c0-15.973-12.911-28.968-28.884-28.968
		c-15.973,0-29.092,12.995-29.092,28.968c0,13.185,8.81,24.333,20.81,27.824v7.573h-39v-238c0-4.418-3.249-8-7.667-8h-131
		c-4.418,0-8.333,3.582-8.333,8v238H37v-7.573c12-3.491,21.101-14.64,21.101-27.824c0-15.973-12.911-28.968-28.884-28.968
		c-15.973,0-29.092,12.995-29.092,28.968C0.126,224.393,9,235.557,21,239.028v7.879C9,248.828,0,259.16,0,271.583v17
		c0,4.418,3.916,8,8.334,8h280.998c4.418,0,7.668-3.582,7.668-8v-17C297,259.16,288,248.828,276,246.907z M115,246.583h9v34h-9
		V246.583z M140,246.583h16v34h-7.667H140V246.583z M172,246.583h9v34h-9V246.583z M197,238.583c0-4.418-3.249-8-7.667-8h-82
		c-4.418,0-8.333,3.582-8.333,8v42h-7.666H90v-264h58.333H205v264h0.332H197V238.583z M16,271.583c0-4.963,4.371-9,9.334-9H74v18H16
		V271.583z M221,262.583h51.332c4.963,0,8.668,4.037,8.668,9v9h-60V262.583z M268.365,198.218c7.15,0,12.967,5.817,12.967,12.968
		c0,7.149-5.816,12.966-12.967,12.966s-12.967-5.816-12.967-12.966C255.398,204.035,261.215,198.218,268.365,198.218z
		 M29.301,198.218c7.15,0,12.967,5.817,12.967,12.968c0,7.149-5.816,12.966-12.967,12.966s-12.967-5.816-12.967-12.966
		C16.334,204.035,22.15,198.218,29.301,198.218z"/>
	<path style="fill:#9696A0;" d="M147.164,214.583c-2.101,0-4.087-0.851-5.567-2.34c-1.49-1.49-2.308-3.551-2.308-5.66
		c0-2.11,0.88-4.17,2.37-5.66c1.49-1.49,3.394-2.34,5.494-2.34c0.337,0,0.847,0.029,0.847,0.072V181.51
		c0,0.043-0.499,0.072-0.836,0.072c-2.101,0-4.087-0.86-5.577-2.34c-1.48-1.49-2.298-3.551-2.298-5.66c0-2.101,0.88-4.17,2.361-5.66
		c1.5-1.48,3.404-2.34,5.504-2.34c0.337,0,0.847,0.029,0.847,0.072V148.51c0,0.043-0.499,0.072-0.836,0.072
		c-2.101,0-4.077-0.851-5.567-2.34c-1.49-1.49-2.308-3.551-2.308-5.66c0-2.11,0.88-4.17,2.37-5.66c1.48-1.48,3.384-2.34,5.494-2.34
		c0.337,0,0.847,0.029,0.847,0.072V115.51c0,0.043-0.499,0.072-0.836,0.072c-2.101,0-4.087-0.86-5.577-2.34
		c-1.48-1.49-2.298-3.551-2.298-5.66c0-2.101,0.88-4.16,2.361-5.66c1.49-1.49,3.404-2.34,5.504-2.34
		c0.337,0,0.847,0.029,0.847,0.072V82.51c0,0.043-0.499,0.072-0.836,0.072c-2.101,0-4.077-0.851-5.567-2.34
		c-1.49-1.49-2.308-3.551-2.308-5.66c0-2.11,0.88-4.17,2.37-5.66c1.49-1.49,3.394-2.34,5.494-2.34c0.337,0,0.847,0.029,0.847,0.072
		V49.51c0,0.043-0.499,0.072-0.836,0.072c-2.101,0-4.077-0.851-5.567-2.34c-1.49-1.49-2.308-3.551-2.308-5.66
		c0-2.11,0.88-4.17,2.37-5.66c1.49-1.49,3.394-2.34,5.494-2.34c0.337,0,0.847,0.029,0.847,0.072V16.583H90v264h1.334H99v-42
		c0-4.418,3.915-8,8.333-8H148V214.51C148,214.553,147.501,214.583,147.164,214.583z M119.99,212.243
		c-1.49,1.489-3.551,2.34-5.66,2.34c-2.101,0-4.17-0.851-5.65-2.34c-1.49-1.49-2.35-3.551-2.35-5.66c0-2.11,0.859-4.17,2.35-5.66
		c1.49-1.49,3.55-2.34,5.65-2.34c2.109,0,4.17,0.85,5.66,2.34c1.489,1.49,2.34,3.55,2.34,5.66
		C122.33,208.692,121.479,210.753,119.99,212.243z M119.99,179.243c-1.49,1.479-3.551,2.34-5.66,2.34c-2.101,0-4.17-0.86-5.65-2.34
		c-1.49-1.49-2.35-3.551-2.35-5.66c0-2.11,0.859-4.17,2.35-5.66c1.48-1.48,3.55-2.34,5.65-2.34c2.109,0,4.17,0.859,5.66,2.34
		c1.489,1.49,2.34,3.55,2.34,5.66C122.33,175.692,121.479,177.753,119.99,179.243z M119.99,146.243
		c-1.49,1.489-3.551,2.34-5.66,2.34c-2.101,0-4.16-0.851-5.65-2.34c-1.49-1.49-2.35-3.551-2.35-5.66c0-2.11,0.859-4.17,2.35-5.66
		c1.48-1.48,3.54-2.34,5.65-2.34c2.109,0,4.17,0.859,5.66,2.34c1.489,1.49,2.34,3.56,2.34,5.66
		C122.33,142.682,121.479,144.753,119.99,146.243z M119.99,113.243c-1.49,1.479-3.551,2.34-5.66,2.34c-2.101,0-4.17-0.86-5.65-2.34
		c-1.49-1.49-2.35-3.551-2.35-5.66c0-2.11,0.859-4.17,2.35-5.66c1.48-1.49,3.55-2.34,5.65-2.34c2.109,0,4.17,0.85,5.66,2.34
		c1.489,1.49,2.34,3.56,2.34,5.66C122.33,109.692,121.479,111.753,119.99,113.243z M119.99,80.243c-1.49,1.489-3.56,2.34-5.66,2.34
		c-2.101,0-4.16-0.851-5.65-2.34c-1.49-1.49-2.35-3.551-2.35-5.66c0-2.11,0.859-4.17,2.35-5.66c1.48-1.49,3.55-2.34,5.65-2.34
		c2.109,0,4.17,0.85,5.66,2.34c1.489,1.49,2.34,3.55,2.34,5.66C122.33,76.692,121.479,78.753,119.99,80.243z M119.99,47.243
		c-1.49,1.489-3.551,2.34-5.66,2.34c-2.101,0-4.17-0.851-5.65-2.34c-1.49-1.49-2.35-3.551-2.35-5.66c0-2.11,0.859-4.17,2.35-5.66
		c1.48-1.49,3.55-2.34,5.65-2.34c2.109,0,4.17,0.85,5.66,2.34c1.489,1.49,2.34,3.55,2.34,5.66
		C122.33,43.692,121.479,45.753,119.99,47.243z"/>
	<path style="fill:#C0C0C6;" d="M205,280.583v-264h-57v17.072c2,0.223,3.572,1.016,4.824,2.268c1.489,1.49,2.423,3.55,2.423,5.66
		c0,2.109-0.975,4.17-2.465,5.66C151.53,48.495,150,49.288,148,49.51v17.145c2,0.223,3.572,1.016,4.824,2.267
		c1.489,1.49,2.423,3.56,2.423,5.66c0,2.1-0.975,4.17-2.465,5.66C151.53,81.495,150,82.288,148,82.51v17.145
		c2,0.223,3.572,1.016,4.824,2.267c1.489,1.49,2.423,3.55,2.423,5.66c0,2.109-0.975,4.17-2.465,5.66
		c-1.252,1.243-2.782,2.042-4.782,2.268v17.145c2,0.226,3.572,1.023,4.824,2.268c1.489,1.49,2.423,3.55,2.423,5.66
		c0,2.109-0.975,4.17-2.465,5.66c-1.252,1.252-2.782,2.045-4.782,2.268v17.145c2,0.226,3.572,1.023,4.824,2.268
		c1.489,1.49,2.423,3.56,2.423,5.66c0,2.109-0.975,4.17-2.465,5.66c-1.252,1.243-2.782,2.042-4.782,2.268v17.145
		c2,0.223,3.572,1.016,4.824,2.268c1.489,1.49,2.423,3.56,2.423,5.66c0,2.1-0.975,4.17-2.465,5.66
		c-1.252,1.252-2.782,2.045-4.782,2.268v16.072h41.333c4.418,0,7.667,3.582,7.667,8v42h8.332H205z M185.99,212.243
		c-1.49,1.489-3.551,2.34-5.66,2.34c-2.101,0-4.17-0.851-5.65-2.34c-1.49-1.49-2.35-3.551-2.35-5.66c0-2.11,0.859-4.17,2.35-5.66
		c1.48-1.49,3.55-2.34,5.65-2.34c2.109,0,4.17,0.85,5.66,2.34c1.489,1.49,2.34,3.56,2.34,5.66
		C188.33,208.692,187.479,210.753,185.99,212.243z M185.99,179.243c-1.49,1.479-3.551,2.34-5.66,2.34c-2.101,0-4.16-0.86-5.65-2.34
		c-1.49-1.49-2.35-3.551-2.35-5.66c0-2.11,0.859-4.17,2.35-5.66c1.49-1.48,3.55-2.34,5.65-2.34c2.109,0,4.17,0.859,5.66,2.34
		c1.489,1.49,2.34,3.55,2.34,5.66C188.33,175.692,187.479,177.753,185.99,179.243z M185.99,146.243
		c-1.49,1.489-3.551,2.34-5.66,2.34c-2.101,0-4.16-0.851-5.65-2.34c-1.49-1.49-2.35-3.551-2.35-5.66c0-2.11,0.859-4.17,2.35-5.66
		c1.48-1.48,3.55-2.34,5.65-2.34c2.109,0,4.17,0.859,5.66,2.34c1.489,1.49,2.34,3.55,2.34,5.66
		C188.33,142.692,187.479,144.753,185.99,146.243z M185.99,113.243c-1.49,1.479-3.551,2.34-5.66,2.34c-2.101,0-4.17-0.86-5.66-2.34
		c-1.48-1.49-2.34-3.551-2.34-5.66c0-2.101,0.859-4.17,2.34-5.66c1.49-1.49,3.56-2.34,5.66-2.34c2.109,0,4.17,0.85,5.66,2.34
		c1.489,1.49,2.34,3.55,2.34,5.66C188.33,109.692,187.479,111.753,185.99,113.243z M185.99,80.243c-1.49,1.489-3.551,2.34-5.66,2.34
		c-2.101,0-4.16-0.851-5.65-2.34c-1.49-1.49-2.35-3.551-2.35-5.66c0-2.11,0.859-4.17,2.35-5.66c1.49-1.49,3.55-2.34,5.65-2.34
		c2.109,0,4.17,0.85,5.66,2.34c1.489,1.49,2.34,3.55,2.34,5.66C188.33,76.692,187.479,78.753,185.99,80.243z M185.99,47.243
		c-1.49,1.489-3.551,2.34-5.66,2.34c-2.101,0-4.17-0.851-5.65-2.34c-1.49-1.49-2.35-3.551-2.35-5.66c0-2.11,0.859-4.17,2.35-5.66
		c1.48-1.49,3.55-2.34,5.65-2.34c2.109,0,4.17,0.85,5.66,2.34c1.489,1.49,2.34,3.55,2.34,5.66
		C188.33,43.692,187.479,45.753,185.99,47.243z"/>
	<path d="M114.33,33.583c-2.101,0-4.17,0.85-5.65,2.34c-1.49,1.49-2.35,3.55-2.35,5.66c0,2.109,0.859,4.17,2.35,5.66
		c1.48,1.489,3.55,2.34,5.65,2.34c2.109,0,4.17-0.851,5.66-2.34c1.489-1.49,2.34-3.551,2.34-5.66c0-2.11-0.851-4.17-2.34-5.66
		C118.5,34.432,116.439,33.583,114.33,33.583z"/>
	<path d="M141.68,35.923c-1.49,1.49-2.35,3.55-2.35,5.66c0,2.109,0.859,4.17,2.35,5.66c1.49,1.489,3.55,2.34,5.65,2.34
		c0.337,0,0.671-0.029,1.003-0.072c1.748-0.223,3.405-1.016,4.657-2.267c1.489-1.49,2.34-3.551,2.34-5.66
		c0-2.11-0.851-4.17-2.34-5.66c-1.252-1.252-2.909-2.045-4.657-2.268c-0.332-0.043-0.666-0.072-1.003-0.072
		C145.229,33.583,143.17,34.432,141.68,35.923z"/>
	<path d="M180.33,33.583c-2.101,0-4.17,0.85-5.65,2.34c-1.49,1.49-2.35,3.55-2.35,5.66c0,2.109,0.859,4.17,2.35,5.66
		c1.48,1.489,3.55,2.34,5.65,2.34c2.109,0,4.17-0.851,5.66-2.34c1.489-1.49,2.34-3.551,2.34-5.66c0-2.11-0.851-4.17-2.34-5.66
		C184.5,34.432,182.439,33.583,180.33,33.583z"/>
	<path d="M114.33,66.583c-2.101,0-4.17,0.85-5.65,2.34c-1.49,1.49-2.35,3.55-2.35,5.66c0,2.109,0.859,4.17,2.35,5.66
		c1.49,1.489,3.55,2.34,5.65,2.34c2.1,0,4.17-0.851,5.66-2.34c1.489-1.49,2.34-3.551,2.34-5.66c0-2.11-0.851-4.17-2.34-5.66
		C118.5,67.432,116.439,66.583,114.33,66.583z"/>
	<path d="M141.68,68.923c-1.49,1.49-2.35,3.55-2.35,5.66c0,2.109,0.859,4.17,2.35,5.66c1.49,1.489,3.55,2.34,5.65,2.34
		c0.337,0,0.671-0.029,1.003-0.072c1.748-0.223,3.405-1.016,4.657-2.268c1.489-1.49,2.34-3.561,2.34-5.66
		c0-2.101-0.851-4.17-2.34-5.66c-1.252-1.252-2.909-2.045-4.657-2.267c-0.332-0.043-0.666-0.072-1.003-0.072
		C145.229,66.583,143.17,67.432,141.68,68.923z"/>
	<path d="M180.33,66.583c-2.101,0-4.16,0.85-5.65,2.34c-1.49,1.49-2.35,3.55-2.35,5.66c0,2.109,0.859,4.17,2.35,5.66
		c1.49,1.489,3.55,2.34,5.65,2.34c2.109,0,4.17-0.851,5.66-2.34c1.489-1.49,2.34-3.551,2.34-5.66c0-2.11-0.851-4.17-2.34-5.66
		C184.5,67.432,182.439,66.583,180.33,66.583z"/>
	<path d="M114.33,99.583c-2.101,0-4.17,0.85-5.65,2.34c-1.49,1.49-2.35,3.55-2.35,5.66c0,2.109,0.859,4.17,2.35,5.66
		c1.48,1.479,3.55,2.34,5.65,2.34c2.109,0,4.17-0.86,5.66-2.34c1.489-1.49,2.34-3.551,2.34-5.66c0-2.101-0.851-4.17-2.34-5.66
		C118.5,100.432,116.439,99.583,114.33,99.583z"/>
	<path d="M141.67,101.923c-1.48,1.5-2.34,3.56-2.34,5.66c0,2.109,0.859,4.17,2.34,5.66c1.49,1.479,3.56,2.34,5.66,2.34
		c0.337,0,0.671-0.029,1.003-0.072c1.748-0.226,3.405-1.024,4.657-2.268c1.489-1.49,2.34-3.551,2.34-5.66
		c0-2.11-0.851-4.17-2.34-5.66c-1.252-1.252-2.909-2.045-4.657-2.267c-0.332-0.043-0.666-0.072-1.003-0.072
		C145.229,99.583,143.16,100.432,141.67,101.923z"/>
	<path d="M180.33,99.583c-2.101,0-4.17,0.85-5.66,2.34c-1.48,1.49-2.34,3.56-2.34,5.66c0,2.109,0.859,4.17,2.34,5.66
		c1.49,1.479,3.56,2.34,5.66,2.34c2.109,0,4.17-0.86,5.66-2.34c1.489-1.49,2.34-3.551,2.34-5.66c0-2.11-0.851-4.17-2.34-5.66
		C184.5,100.432,182.439,99.583,180.33,99.583z"/>
	<path d="M114.33,132.583c-2.11,0-4.17,0.859-5.65,2.34c-1.49,1.49-2.35,3.55-2.35,5.66c0,2.109,0.859,4.17,2.35,5.66
		c1.49,1.489,3.55,2.34,5.65,2.34c2.109,0,4.17-0.851,5.66-2.34c1.489-1.49,2.34-3.561,2.34-5.66c0-2.101-0.851-4.17-2.34-5.66
		C118.5,133.442,116.439,132.583,114.33,132.583z"/>
	<path d="M141.68,134.923c-1.49,1.49-2.35,3.55-2.35,5.66c0,2.109,0.859,4.17,2.35,5.66c1.49,1.489,3.55,2.34,5.65,2.34
		c0.337,0,0.671-0.029,1.003-0.072c1.748-0.223,3.405-1.016,4.657-2.268c1.489-1.49,2.34-3.551,2.34-5.66
		c0-2.11-0.851-4.17-2.34-5.66c-1.252-1.244-2.909-2.042-4.657-2.268c-0.332-0.043-0.666-0.072-1.003-0.072
		C145.22,132.583,143.16,133.442,141.68,134.923z"/>
	<path d="M180.33,132.583c-2.101,0-4.17,0.859-5.65,2.34c-1.49,1.49-2.35,3.55-2.35,5.66c0,2.109,0.859,4.17,2.35,5.66
		c1.49,1.489,3.55,2.34,5.65,2.34c2.109,0,4.17-0.851,5.66-2.34c1.489-1.49,2.34-3.551,2.34-5.66c0-2.11-0.851-4.17-2.34-5.66
		C184.5,133.442,182.439,132.583,180.33,132.583z"/>
	<path d="M114.33,165.583c-2.101,0-4.17,0.859-5.65,2.34c-1.49,1.49-2.35,3.55-2.35,5.66c0,2.109,0.859,4.17,2.35,5.66
		c1.48,1.479,3.55,2.34,5.65,2.34c2.109,0,4.17-0.86,5.66-2.34c1.489-1.49,2.34-3.551,2.34-5.66c0-2.11-0.851-4.17-2.34-5.66
		C118.5,166.442,116.439,165.583,114.33,165.583z"/>
	<path d="M141.67,167.923c-1.48,1.49-2.34,3.56-2.34,5.66c0,2.109,0.859,4.17,2.34,5.66c1.49,1.479,3.56,2.34,5.66,2.34
		c0.337,0,0.671-0.029,1.003-0.072c1.748-0.226,3.405-1.024,4.657-2.268c1.489-1.49,2.34-3.551,2.34-5.66
		c0-2.101-0.851-4.17-2.34-5.66c-1.252-1.244-2.909-2.042-4.657-2.268c-0.332-0.043-0.666-0.072-1.003-0.072
		C145.229,165.583,143.17,166.442,141.67,167.923z"/>
	<path d="M180.33,165.583c-2.101,0-4.16,0.859-5.65,2.34c-1.49,1.49-2.35,3.55-2.35,5.66c0,2.109,0.859,4.17,2.35,5.66
		c1.49,1.479,3.55,2.34,5.65,2.34c2.109,0,4.17-0.86,5.66-2.34c1.489-1.49,2.34-3.551,2.34-5.66c0-2.11-0.851-4.17-2.34-5.66
		C184.5,166.442,182.439,165.583,180.33,165.583z"/>
	<path d="M114.33,198.583c-2.101,0-4.16,0.85-5.65,2.34c-1.49,1.49-2.35,3.55-2.35,5.66c0,2.109,0.859,4.17,2.35,5.66
		c1.48,1.489,3.55,2.34,5.65,2.34c2.109,0,4.17-0.851,5.66-2.34c1.489-1.49,2.34-3.551,2.34-5.66c0-2.11-0.851-4.17-2.34-5.66
		C118.5,199.432,116.439,198.583,114.33,198.583z"/>
	<path d="M141.68,200.923c-1.49,1.49-2.35,3.55-2.35,5.66c0,2.109,0.859,4.17,2.35,5.66c1.48,1.489,3.55,2.34,5.65,2.34
		c0.337,0,0.671-0.029,1.003-0.072c1.748-0.223,3.405-1.016,4.657-2.268c1.489-1.49,2.34-3.561,2.34-5.66
		c0-2.101-0.851-4.17-2.34-5.66c-1.252-1.252-2.909-2.045-4.657-2.268c-0.332-0.043-0.666-0.072-1.003-0.072
		C145.229,198.583,143.17,199.432,141.68,200.923z"/>
	<path d="M180.33,198.583c-2.101,0-4.17,0.85-5.65,2.34c-1.49,1.49-2.35,3.55-2.35,5.66c0,2.109,0.859,4.17,2.35,5.66
		c1.48,1.489,3.55,2.34,5.65,2.34c2.109,0,4.17-0.851,5.66-2.34c1.489-1.49,2.34-3.551,2.34-5.66c0-2.101-0.851-4.17-2.34-5.66
		C184.5,199.432,182.439,198.583,180.33,198.583z"/>
	<rect x="172" y="246.583" style="fill:#FFB929;" width="9" height="34"/>
	<rect x="115" y="246.583" style="fill:#FFB929;" width="9" height="34"/>
	<polygon style="fill:#A05200;" points="148.333,280.583 156,280.583 156,246.583 140,246.583 140,280.583 	"/>
</g>
<g>
</g>
<g>
</g>
<g>
</g>
<g>
</g>
<g>
</g>
<g>
</g>
<g>
</g>
<g>
</g>
<g>
</g>
<g>
</g>
<g>
</g>
<g>
</g>
<g>
</g>
<g>
</g>
<g>
</g>
</svg>
