<?xml version="1.0" encoding="iso-8859-1"?>
<!-- Generator: Adobe Illustrator 19.1.0, SVG Export Plug-In . SVG Version: 6.00 Build 0)  -->
<svg version="1.1" id="Capa_1" xmlns="http://www.w3.org/2000/svg" xmlns:xlink="http://www.w3.org/1999/xlink" x="0px" y="0px"
	 viewBox="0 0 297 297" style="enable-background:new 0 0 297 297;" xml:space="preserve">
<g>
	<polygon style="fill:#FF754A;" points="261.134,34 258.428,16 39.529,16 36.707,34 	"/>
	<polygon style="fill:#FFFFFF;" points="31.755,65 265.88,65 263.576,50 34.16,50 	"/>
	<polygon style="fill:#FF754A;" points="29.191,81 25.905,101 271.489,101 268.339,81 	"/>
	<path style="fill:#A05200;" d="M158.333,117h-118v130h118V117z M139.333,205c0,4.418-3.582,8-8,8h-66c-4.418,0-8-3.582-8-8v-64
		c0-4.418,3.582-8,8-8h66c4.418,0,8,3.582,8,8V205z"/>
	<rect x="240.333" y="213" style="fill:#FFC3AA;" width="16" height="34"/>
	<rect x="174.333" y="213" style="fill:#FFC3AA;" width="18" height="34"/>
	<rect x="208.333" y="213" style="fill:#FFC3AA;" width="16" height="34"/>
	<path style="fill:#FFC3AA;" d="M174.333,197h82v-80h-82V197z M239.333,173c0,4.418-3.582,8-8,8h-32c-4.418,0-8-3.582-8-8v-32
		c0-4.418,3.582-8,8-8h32c4.418,0,8,3.582,8,8V173z"/>
	<rect x="73.334" y="149" style="fill:#FFFFFF;" width="50" height="16"/>
	<path d="M139.333,141c0-4.418-3.582-8-8-8h-66c-4.418,0-8,3.582-8,8v64c0,4.418,3.582,8,8,8h66c4.418,0,8-3.582,8-8V141z
		 M123.334,197h-50v-16h50V197z M73.334,149h50v16h-50V149z"/>
	<rect x="73.334" y="181" style="fill:#FFC3AA;" width="50" height="16"/>
	<rect x="207.333" y="149" style="fill:#FFFFFF;" width="16" height="16"/>
	<path d="M239.333,141c0-4.418-3.582-8-8-8h-32c-4.418,0-8,3.582-8,8v32c0,4.418,3.582,8,8,8h32c4.418,0,8-3.582,8-8V141z
		 M223.333,165h-16v-16h16V165z"/>
	<path style="fill:#A9BD34;" d="M274.167,281c2.754,0,7-3.864,7-9c0-4.963-4.037-9-9-9h-247c-4.963,0-9,4.037-9,9
		c0,5.299,4.523,9,11,9H274.167z"/>
	<path d="M272.333,247.013V117h8.479c2.334,0,4.552-0.965,6.071-2.735c1.332-1.553,2.011-3.521,1.92-5.542
		c-0.01-0.321-0.034-0.63-0.084-0.951L273.2,6.778C272.6,2.875,269.242,0,265.293,0H32.708c-3.93,0-7.277,2.853-7.899,6.734
		l-16.188,101c-0.052,0.324-0.078,0.648-0.09,0.974c-0.102,2.027,0.57,3.976,1.901,5.537c1.519,1.782,3.745,2.755,6.088,2.755h7.813
		v130.013C11.333,247.281,0,258.383,0,272c0,14.252,11.774,25,27.167,25h247C286.418,297,297,285.317,297,272
		C297,258.383,286.333,247.281,272.333,247.013z M16.167,272c0-4.963,4.037-9,9-9h247c4.963,0,9,4.037,9,9c0,5.136-4.246,9-7,9h-247
		C20.69,281,16.167,277.299,16.167,272z M40.333,117h118v130h-118V117z M258.428,16l2.706,18H36.707l2.822-18H258.428z M271.489,101
		H25.905l3.286-20h239.149L271.489,101z M265.88,65H31.755l2.404-15h229.416L265.88,65z M240.333,247v-34h16v34H240.333z
		 M224.333,247h-16v-34h16V247z M192.333,247h-18v-34h18V247z M256.333,197h-82v-80h82V197z"/>
</g>
<g>
</g>
<g>
</g>
<g>
</g>
<g>
</g>
<g>
</g>
<g>
</g>
<g>
</g>
<g>
</g>
<g>
</g>
<g>
</g>
<g>
</g>
<g>
</g>
<g>
</g>
<g>
</g>
<g>
</g>
</svg>
