<?xml version="1.0" encoding="iso-8859-1"?>
<!-- Generator: Adobe Illustrator 19.1.0, SVG Export Plug-In . SVG Version: 6.00 Build 0)  -->
<svg version="1.1" id="Capa_1" xmlns="http://www.w3.org/2000/svg" xmlns:xlink="http://www.w3.org/1999/xlink" x="0px" y="0px"
	 viewBox="0 0 297.877 297.877" style="enable-background:new 0 0 297.877 297.877;" xml:space="preserve">
<g>
	<polygon style="fill:#A05200;" points="156.596,78.978 156.596,111.233 173.681,95.149 	"/>
	<polygon style="fill:#A05200;" points="185.653,106.166 171.164,119.806 200.064,119.806 	"/>
	<polygon style="fill:#A05200;" points="111.104,107.206 97.792,119.806 125.144,119.806 	"/>
	<path style="fill:#A05200;" d="M233.887,148.806c-2.046,0-4.014-0.783-5.499-2.19l-11.42-10.81h-76.372v112h116v-99H233.887z
		 M239.596,204.806c0,4.418-3.582,8-8,8h-66c-4.418,0-8-3.582-8-8v-32c0-4.418,3.582-8,8-8h66c4.418,0,8,3.582,8,8V204.806z"/>
	<polygon style="fill:#A05200;" points="140.596,112.473 140.596,78.976 122.431,96.17 	"/>
	<polygon style="fill:#FF754A;" points="52.428,247.806 113.43,247.806 82.93,217.711 	"/>
	<path style="fill:#FF754A;" d="M124.596,197.806v-62H80.888l-11.42,10.81c-1.485,1.407-3.453,2.19-5.499,2.19H40.596v49H124.596z"
		/>
	<polygon style="fill:#FF754A;" points="124.596,236.674 124.596,213.806 101.752,213.806 	"/>
	<polygon style="fill:#FF754A;" points="40.596,236.674 64.107,213.806 40.596,213.806 	"/>
	<rect x="173.596" y="180.806" style="fill:#FFFFFF;" width="50" height="16"/>
	<path d="M239.596,172.806c0-4.418-3.582-8-8-8h-66c-4.418,0-8,3.582-8,8v32c0,4.418,3.582,8,8,8h66c4.418,0,8-3.582,8-8V172.806z
		 M223.596,196.806h-50v-16h50V196.806z"/>
	<path style="fill:#A9BD34;" d="M274.429,281.806c2.754,0,7-3.864,7-9c0-4.963-4.037-9-9-9h-247c-4.963,0-9,4.037-9,9
		c0,5.299,4.523,9,11,9H274.429z"/>
	<path d="M272.596,247.818v-99.013h17.262c0.008-0.001,0.013-0.001,0.02,0c4.419,0,8-3.582,8-8c0-2.465-1.114-4.669-2.867-6.137
		L154.413,2.248c-3.082-2.902-7.889-2.902-10.971,0L2.515,134.983c-2.387,2.248-3.16,5.725-1.95,8.773
		c1.209,3.049,4.156,5.05,7.436,5.05h16.596v99.013c-13,0.269-24.333,11.37-24.333,24.987c0,14.252,11.774,25,27.167,25h247
		c12.252,0,22.834-11.683,22.834-25C297.262,259.189,286.596,248.087,272.596,247.818z M16.429,272.806c0-4.963,4.037-9,9-9h247
		c4.963,0,9,4.037,9,9c0,5.136-4.246,9-7,9h-247C20.952,281.806,16.429,278.105,16.429,272.806z M140.596,26.596v30.35
		l-79.812,75.86H28.162L140.596,26.596z M269.695,132.806h-32.623l-80.477-75.858V26.597L269.695,132.806z M52.428,247.806
		l30.502-30.095l30.5,30.095H52.428z M140.596,112.473L122.431,96.17l18.165-17.194V112.473z M156.596,78.978l17.085,16.171
		l-17.085,16.084V78.978z M111.104,107.206l14.04,12.6H97.792L111.104,107.206z M185.653,106.166l14.41,13.64h-28.899
		L185.653,106.166z M124.596,236.674l-22.844-22.868h22.844V236.674z M40.596,236.674v-22.868h23.511L40.596,236.674z
		 M140.596,247.806v-112h76.372l11.42,10.81c1.485,1.407,3.453,2.19,5.499,2.19h22.709v99H140.596z M63.969,148.806
		c2.046,0,4.014-0.783,5.499-2.19l11.42-10.81h43.708v62h-84v-49H63.969z"/>
	<polygon style="fill:#FFC3AA;" points="156.596,56.947 237.072,132.806 269.695,132.806 156.596,26.597 	"/>
	<polygon style="fill:#FFC3AA;" points="60.783,132.806 140.596,56.945 140.596,26.596 28.162,132.806 	"/>
</g>
<g>
</g>
<g>
</g>
<g>
</g>
<g>
</g>
<g>
</g>
<g>
</g>
<g>
</g>
<g>
</g>
<g>
</g>
<g>
</g>
<g>
</g>
<g>
</g>
<g>
</g>
<g>
</g>
<g>
</g>
</svg>
