<?xml version="1.0" encoding="iso-8859-1"?>
<!-- Generator: Adobe Illustrator 19.1.0, SVG Export Plug-In . SVG Version: 6.00 Build 0)  -->
<svg version="1.1" id="Capa_1" xmlns="http://www.w3.org/2000/svg" xmlns:xlink="http://www.w3.org/1999/xlink" x="0px" y="0px"
	 viewBox="0 0 297.916 297.916" style="enable-background:new 0 0 297.916 297.916;" xml:space="preserve">
<g>
	<path style="fill:#502900;" d="M67.834,247.124v-65H47.08c-3.285,0-6.236-2.008-7.441-5.063c-1.206-3.056-0.421-6.538,1.979-8.781
		l21.562-20.155H32.833v99H67.834z"/>
	<path style="fill:#502900;" d="M235.657,148.124l21.229,19.844c1.766,1.468,2.89,3.681,2.89,6.156c0,4.418-3.581,8-8,8
		c-0.008-0.001-0.014-0.001-0.02,0h-22.922v65h35v-99H235.657z"/>
	<polygon style="fill:#A05200;" points="188.585,104.124 218.54,132.124 269.642,132.124 239.688,104.124 	"/>
	<polygon style="fill:#A05200;" points="140.833,61.318 140.833,27.456 122.584,44.514 	"/>
	<polygon style="fill:#A05200;" points="156.833,61.781 175.585,44.514 156.833,26.986 	"/>
	<polygon style="fill:#A05200;" points="171.468,88.124 222.571,88.124 187.639,55.471 161.895,79.175 	"/>
	<polygon style="fill:#A05200;" points="127.367,88.124 136.939,79.175 111.194,55.472 76.263,88.124 	"/>
	<polygon style="fill:#A05200;" points="110.249,104.124 59.146,104.124 29.191,132.124 80.295,132.124 	"/>
	<path d="M289.915,148.124c3.285,0,6.235-2.008,7.441-5.063c1.206-3.056,0.421-6.538-1.979-8.781L154.88,2.947
		c-3.074-2.873-7.852-2.873-10.926,0L3.455,134.279c-2.399,2.243-3.185,5.726-1.979,8.781c1.205,3.056,4.156,5.063,7.441,5.063
		h7.916v100.32C6.833,251.789,0,261.136,0,272.124c0,13.785,11.381,25,25.167,25h247c13.785,0,24.833-11.215,24.833-25
		c0-10.987-7.167-20.335-17.167-23.68v-100.32H289.915z M272.167,281.124h-247c-4.963,0-9-4.037-9-9c0-4.963,4.037-9,9-9h247
		c4.963,0,9,4.037,9,9C281.167,277.087,277.129,281.124,272.167,281.124z M269.642,132.124H218.54l-29.954-28h51.103
		L269.642,132.124z M59.146,104.124h51.103l-29.954,28H29.191L59.146,104.124z M111.194,55.472l25.745,23.703l-9.572,8.948H76.263
		L111.194,55.472z M222.571,88.124h-51.102l-9.573-8.948l25.744-23.704L222.571,88.124z M231.482,166.124H214.27l-59.39-55.516
		c-3.074-2.873-7.852-2.873-10.926,0l-59.39,55.516H67.353l82.064-76.71L231.482,166.124z M156.833,247.124h-17v-49h17V247.124z
		 M172.833,247.124v-57c0-4.418-3.249-8-7.667-8h-33c-4.418,0-8.333,3.582-8.333,8v57h-40v-65h3.889c2.028,0,3.981-0.77,5.463-2.155
		l56.232-52.564l56.232,52.564c1.481,1.385,3.435,2.155,5.463,2.155h1.721v65H172.833z M156.833,61.781V26.986l18.752,17.528
		L156.833,61.781z M140.833,61.318l-18.25-16.804l18.25-17.059V61.318z M63.179,148.124l-21.562,20.155
		c-2.399,2.243-3.185,5.726-1.979,8.781c1.205,3.056,4.156,5.063,7.441,5.063h20.754v65h-35v-99H63.179z M228.833,247.124v-65
		h22.922c0.006-0.001,0.012-0.001,0.02,0c4.419,0,8-3.582,8-8c0-2.476-1.124-4.688-2.89-6.156l-21.229-19.844h28.177v99H228.833z"/>
	<path style="fill:#A05200;" d="M211.113,182.124c-2.028,0-3.981-0.77-5.463-2.155l-56.232-52.564l-56.232,52.564
		c-1.481,1.385-3.435,2.155-5.463,2.155h-3.889v65h40v-57c0-4.418,3.915-8,8.333-8h33c4.418,0,7.667,3.582,7.667,8v57h40v-65
		H211.113z"/>
	<path style="fill:#FFB929;" d="M149.417,89.414l-82.064,76.71h17.212l59.39-55.516c3.074-2.873,7.852-2.873,10.926,0l59.39,55.516
		h17.212L149.417,89.414z"/>
	<rect x="139.833" y="198.124" style="fill:#FFC3AA;" width="17" height="49"/>
	<path style="fill:#A9BD34;" d="M272.167,263.124h-247c-4.963,0-9,4.037-9,9c0,4.963,4.037,9,9,9h247c4.963,0,9-4.037,9-9
		C281.167,267.161,277.129,263.124,272.167,263.124z"/>
</g>
<g>
</g>
<g>
</g>
<g>
</g>
<g>
</g>
<g>
</g>
<g>
</g>
<g>
</g>
<g>
</g>
<g>
</g>
<g>
</g>
<g>
</g>
<g>
</g>
<g>
</g>
<g>
</g>
<g>
</g>
</svg>
