<?xml version="1.0" encoding="iso-8859-1"?>
<!-- Generator: Adobe Illustrator 19.1.0, SVG Export Plug-In . SVG Version: 6.00 Build 0)  -->
<svg version="1.1" id="Capa_1" xmlns="http://www.w3.org/2000/svg" xmlns:xlink="http://www.w3.org/1999/xlink" x="0px" y="0px"
	 viewBox="0 0 297.878 297.878" style="enable-background:new 0 0 297.878 297.878;" xml:space="preserve">
<g>
	<path style="fill:#A05200;" d="M24.597,132.806v88h84v-14.945c0-22.086,18.491-40.055,41.22-40.055
		c22.307,0,39.78,17.594,39.78,40.055v14.945h83v-88H24.597z M90.597,188.806c0,4.418-3.582,8-8,8h-32c-4.418,0-8-3.582-8-8v-32
		c0-4.418,3.582-8,8-8h32c4.418,0,8,3.582,8,8V188.806z M254.597,188.806c0,4.418-3.582,8-8,8h-32c-4.418,0-8-3.582-8-8v-32
		c0-4.418,3.582-8,8-8h32c4.418,0,8,3.582,8,8V188.806z"/>
	<polygon style="fill:#FFC3AA;" points="34.792,280.806 58.597,280.806 58.597,251.249 	"/>
	<polygon style="fill:#FFC3AA;" points="108.597,236.806 84.011,236.806 108.597,266.71 	"/>
	<polygon style="fill:#FFC3AA;" points="74.597,250.902 74.597,280.806 99.849,280.806 	"/>
	<polygon style="fill:#FFC3AA;" points="189.597,236.806 189.597,266.362 214.066,236.806 	"/>
	<polygon style="fill:#FFC3AA;" points="222.597,251.249 198.792,280.806 222.597,280.806 	"/>
	<polygon style="fill:#FFC3AA;" points="50.066,236.806 24.597,236.806 24.597,267.587 	"/>
	<polygon style="fill:#FFC3AA;" points="272.597,266.71 272.597,236.806 248.011,236.806 	"/>
	<polygon style="fill:#FFC3AA;" points="238.597,250.902 238.597,280.806 263.849,280.806 	"/>
	<path style="fill:#FFC3AA;" d="M227.918,97.751l-78.989-45.147L69.939,97.751c-1.209,0.691-2.577,1.055-3.97,1.055H24.597v18h248
		v-18h-40.709C230.495,98.806,229.127,98.443,227.918,97.751z"/>
	<path style="fill:#A05200;" d="M37.74,82.806h26.105l81.114-46.362c2.459-1.406,5.48-1.406,7.939,0l81.114,46.362h26.105
		L148.929,18.32L37.74,82.806z"/>
	<path d="M293.512,83.677L152.942,2.152c-2.483-1.44-5.546-1.439-8.027,0L3.987,83.886c-3.13,1.814-4.651,5.504-3.712,8.998
		c0.94,3.494,4.107,5.922,7.726,5.922h0.596v190c0,4.418,3.915,8,8.333,8h264c4.418,0,7.667-3.582,7.667-8v-190h1.262
		c0.007-0.001,0.013-0.001,0.02,0c4.419,0,8-3.582,8-8C297.878,87.695,296.103,85,293.512,83.677z M173.597,280.806h-49v-74.945
		c0-13.264,11.314-24.055,25.222-24.055c13.556,0,23.778,10.341,23.778,24.055V280.806z M189.597,236.806h24.47l-24.47,29.557
		V236.806z M108.597,236.806v29.904l-24.586-29.904H108.597z M34.792,280.806l23.805-29.557v29.557H34.792z M74.597,250.902
		l25.253,29.904H74.597V250.902z M222.597,251.249v29.557h-23.805L222.597,251.249z M238.597,250.902l25.253,29.904h-25.253V250.902
		z M50.066,236.806l-25.47,30.781v-30.781H50.066z M272.597,266.71l-24.586-29.904h24.586V266.71z M189.597,220.806v-14.945
		c0-22.461-17.474-40.055-39.78-40.055c-22.728,0-41.22,17.969-41.22,40.055v14.945h-84v-88h248v88H189.597z M272.597,116.806h-248
		v-18H65.97c1.393,0,2.761-0.363,3.97-1.055l78.989-45.147l78.989,45.147c1.209,0.691,2.577,1.055,3.97,1.055h40.709V116.806z
		 M260.118,82.806h-26.105l-81.114-46.362c-2.459-1.406-5.48-1.406-7.939,0L63.845,82.806H37.74L148.929,18.32L260.118,82.806z"/>
	<rect x="58.597" y="164.806" style="fill:#FFFFFF;" width="16" height="16"/>
	<path d="M90.597,156.806c0-4.418-3.582-8-8-8h-32c-4.418,0-8,3.582-8,8v32c0,4.418,3.582,8,8,8h32c4.418,0,8-3.582,8-8V156.806z
		 M74.597,180.806h-16v-16h16V180.806z"/>
	<rect x="222.597" y="164.806" style="fill:#FFFFFF;" width="16" height="16"/>
	<path d="M254.597,156.806c0-4.418-3.582-8-8-8h-32c-4.418,0-8,3.582-8,8v32c0,4.418,3.582,8,8,8h32c4.418,0,8-3.582,8-8V156.806z
		 M238.597,180.806h-16v-16h16V180.806z"/>
	<path style="fill:#FFFFFF;" d="M149.818,181.806c-13.907,0-25.222,10.791-25.222,24.055v74.945h49v-74.945
		C173.597,192.147,163.374,181.806,149.818,181.806z"/>
</g>
<g>
</g>
<g>
</g>
<g>
</g>
<g>
</g>
<g>
</g>
<g>
</g>
<g>
</g>
<g>
</g>
<g>
</g>
<g>
</g>
<g>
</g>
<g>
</g>
<g>
</g>
<g>
</g>
<g>
</g>
</svg>
