<?xml version="1.0" encoding="iso-8859-1"?>
<!-- Generator: Adobe Illustrator 19.1.0, SVG Export Plug-In . SVG Version: 6.00 Build 0)  -->
<svg version="1.1" id="Capa_1" xmlns="http://www.w3.org/2000/svg" xmlns:xlink="http://www.w3.org/1999/xlink" x="0px" y="0px"
	 viewBox="0 0 298.679 298.679" style="enable-background:new 0 0 298.679 298.679;" xml:space="preserve">
<g>
	<path style="fill:#FFFFFF;" d="M182,165.589v-46h-68v46H182z M141,135.589c0-4.418,3.582-8,8-8s8,3.582,8,8v17c0,4.418-3.582,8-8,8
		s-8-3.582-8-8V135.589z"/>
	<path style="fill:#C8F1DE;" d="M215,281.589v-26c0-4.418,3.58-8,7.998-8H236v-66h-13v9c0,4.418-3.582,8-8,8s-8-3.582-8-8v-9h-17v9
		c0,4.418-3.582,8-8,8s-8-3.582-8-8v-9h-17v9c0,4.418-3.582,8-8,8s-8-3.582-8-8v-9h-17v9c0,4.418-3.582,8-8,8s-8-3.582-8-8v-9H91v9
		c0,4.418-3.582,8-8,8s-8-3.582-8-8v-9H63v66h12.668c4.418,0,7.332,3.582,7.332,8v26h25v-9.945c0-22.086,18.716-40.055,41.72-40.055
		c22.026,0,39.28,17.594,39.28,40.055v9.945H215z"/>
	<rect x="30" y="152.589" style="fill:#FFFFFF;" width="17" height="95"/>
	<path style="fill:#C8F1DE;" d="M22.333,136.589h33h4.705c-2.882-17.745-14.779-29.475-21.229-34.659
		c-6.438,5.138-18.327,16.806-21.19,34.659H22.333z"/>
	<rect x="252" y="152.589" style="fill:#FFFFFF;" width="17" height="95"/>
	<path style="fill:#C8F1DE;" d="M244.333,136.589h33h4.705c-2.882-17.745-14.779-29.475-21.228-34.659
		c-6.438,5.138-18.327,16.806-21.189,34.659H244.333z"/>
	<path style="fill:#A9BD34;" d="M282,281.589v-9c0-4.963-4.039-9-9.002-9H231v18h10.333H282z"/>
	<path d="M285,250.858v-98.269h5.679c4.418,0,8-3.582,8-8c0-38.33-32.303-58.489-33.678-59.328
		c-2.545-1.554-5.743-1.561-8.296-0.024c-1.377,0.829-33.718,20.756-33.718,59.352c0,4.418,3.582,8,8,8H236v13h-38v-46h9.604
		c4.418,0,8-3.582,8-8c0-29.279-10.727-57.465-31.021-81.509c-15.23-18.043-30.44-27.429-31.081-27.819
		c-2.545-1.554-5.743-1.562-8.296-0.024c-0.641,0.386-15.87,9.661-31.112,27.658c-20.3,23.97-31.03,52.219-31.03,81.694
		c0,4.418,3.582,8,8,8H98v46H63v-13h5.679c4.418,0,8-3.582,8-8c0-38.33-32.303-58.489-33.678-59.328
		c-2.544-1.554-5.742-1.561-8.296-0.024c-1.377,0.829-33.718,20.756-33.718,59.352c0,4.418,3.582,8,8,8H14v97.729
		c-8,4.141-14,12.565-14,22.272v17c0,4.418,4.25,8,8.668,8h281.33c4.418,0,8.002-3.582,8.002-8v-17
		C298,263.288,293,255.163,285,250.858z M241.333,281.589H231v-18h41.998c4.963,0,9.002,4.037,9.002,9v9H241.333z M124,281.589
		v-9.945c0-10.192,8-19.148,17-22.572v32.518H124z M157,281.589v-32.888c10,3.015,16,11.879,16,22.942v9.945H157z M149.72,231.589
		c-23.004,0-41.72,17.969-41.72,40.055v9.945H83v-26c0-4.418-2.914-8-7.332-8H63v-66h12v9c0,4.418,3.582,8,8,8s8-3.582,8-8v-9h17v9
		c0,4.418,3.582,8,8,8s8-3.582,8-8v-9h17v9c0,4.418,3.582,8,8,8s8-3.582,8-8v-9h17v9c0,4.418,3.582,8,8,8s8-3.582,8-8v-9h17v9
		c0,4.418,3.582,8,8,8s8-3.582,8-8v-9h13v66h-13.002c-4.418,0-7.998,3.582-7.998,8v26h-26v-9.945
		C189,249.183,171.746,231.589,149.72,231.589z M16,272.589c0-4.963,4.705-9,9.668-9H67v18H56.333H16V272.589z M38.81,101.93
		c6.449,5.185,18.347,16.914,21.229,34.659h-4.705h-33H17.62C20.482,118.736,32.372,107.068,38.81,101.93z M47,152.589v95H30v-95H47
		z M149.31,18.777c12.046,8.838,46.396,37.957,49.989,84.812H99.356c1.685-22.768,10.61-43.905,26.597-62.94
		C135.007,29.87,144.178,22.505,149.31,18.777z M182,119.589v46h-68v-46H182z M260.81,101.93
		c6.449,5.185,18.347,16.914,21.228,34.659h-4.705h-33h-4.713C242.482,118.736,254.372,107.068,260.81,101.93z M269,152.589v95h-17
		v-95H269z"/>
	<path style="fill:#A9BD34;" d="M56.333,281.589H67v-18H25.668c-4.963,0-9.668,4.037-9.668,9v9H56.333z"/>
	<path style="fill:#FFFFFF;" d="M124,271.644v9.945h17v-32.518C132,252.495,124,261.451,124,271.644z"/>
	<path style="fill:#FFFFFF;" d="M157,248.701v32.888h16v-9.945C173,260.58,167,251.716,157,248.701z"/>
	<path style="fill:#C8F1DE;" d="M99.356,103.589h99.942c-3.593-46.856-37.943-75.975-49.989-84.812
		c-5.132,3.729-14.303,11.094-23.356,21.873C109.967,59.684,101.041,80.821,99.356,103.589z M149.334,50.589c8.838,0,16,7.163,16,16
		c0,8.836-7.162,16-16,16s-16-7.164-16-16C133.334,57.752,140.496,50.589,149.334,50.589z"/>
	<path d="M149,160.589c4.418,0,8-3.582,8-8v-17c0-4.418-3.582-8-8-8s-8,3.582-8,8v17C141,157.007,144.582,160.589,149,160.589z"/>
	<circle cx="149.334" cy="66.589" r="16"/>
</g>
<g>
</g>
<g>
</g>
<g>
</g>
<g>
</g>
<g>
</g>
<g>
</g>
<g>
</g>
<g>
</g>
<g>
</g>
<g>
</g>
<g>
</g>
<g>
</g>
<g>
</g>
<g>
</g>
<g>
</g>
</svg>
