<?xml version="1.0" encoding="iso-8859-1"?>
<!-- Generator: Adobe Illustrator 19.1.0, SVG Export Plug-In . SVG Version: 6.00 Build 0)  -->
<svg version="1.1" id="Capa_1" xmlns="http://www.w3.org/2000/svg" xmlns:xlink="http://www.w3.org/1999/xlink" x="0px" y="0px"
	 viewBox="0 0 294.395 294.395" style="enable-background:new 0 0 294.395 294.395;" xml:space="preserve">
<g>
	<path style="fill:#C8F1DE;" d="M61.672,65.104c0.793-1.331,2.286-2.365,3.286-3.039V46.197h-16v40.252L61.672,65.104z"/>
	<path style="fill:#C8F1DE;" d="M229.958,46.197v16.462c1,0.639,1.697,1.459,2.284,2.444l13.716,23.026V46.197H229.958z"/>
	<path style="fill:#FFFFFF;" d="M195.958,264.197v-26c0-4.418,3.914-8,8.332-8h41.668v-42h-197v42H90.96
		c4.418,0,7.998,3.582,7.998,8v26h16v-27.501c0-17.92,14.579-32.499,32.499-32.499c17.921,0,32.501,14.579,32.501,32.499v27.501
		H195.958z"/>
	<polygon style="fill:#C52D2F;" points="272.381,163.197 221.156,77.197 180.449,77.197 250.232,163.197 	"/>
	<polygon style="fill:#C52D2F;" points="45.199,163.197 114.371,77.197 73.425,77.197 22.201,163.197 	"/>
	<path d="M292.896,166.652l-30.938-51.66V38.197c0-4.418-3.249-8-7.667-8h-8.333v-8c0-4.418-3.582-8-8-8s-8,3.582-8,8v8h-7.667
		c-4.418,0-8.333,3.582-8.333,8v23h-46.492l-13.961-17.205c-1.52-1.873-3.803-2.795-6.214-2.795c-0.006,0-0.013,0-0.019,0
		c-2.418,0-4.704,0.938-6.219,2.824L127.24,61.197H80.958v-23c0-4.418-3.249-8-7.667-8h-8.333v-8c0-4.418-3.582-8-8-8s-8,3.582-8,8
		v8h-7.667c-4.418,0-8.333,3.582-8.333,8v75.114L1.085,167.104c-1.473,2.472-1.421,5.545,0.001,8.047
		c1.422,2.501,4.16,4.047,7.038,4.047h24.834v52.208c-10,3.245-17,12.682-17,23.792v17c0,4.418,3.584,8,8.002,8h247.33
		c4.418,0,7.668-3.582,7.668-8v-17c0-10.987-7-20.335-17-23.68v-52.32h24.5c0.008,0.001,0.015,0.001,0.02,0
		c4.419,0,7.917-3.582,7.917-8C294.395,169.509,293.789,167.943,292.896,166.652z M262.958,264.197h-51v-18h42.332
		c4.963,0,8.668,4.037,8.668,9V264.197z M130.958,236.696c0-9.098,7.402-16.499,16.501-16.499c9.098,0,16.499,7.401,16.499,16.499
		v28.501h-33V236.696z M147.457,204.197c-17.92,0-32.499,14.579-32.499,32.499v27.501h-16v-26c0-4.418-3.58-8-7.998-8H48.958v-42
		h197v42H204.29c-4.418,0-8.332,3.582-8.332,8v26h-16v-27.501C179.958,218.776,165.378,204.197,147.457,204.197z M31.958,255.197
		c0-4.963,4.039-9,9.002-9h41.998v18h-51V255.197z M64.958,46.197v15.867c-1,0.674-2.493,1.708-3.286,3.039L48.958,86.449V46.197
		H64.958z M73.425,77.197h40.945l-69.172,86H22.201L73.425,77.197z M237.004,172.197H58.48l88.841-110.595L237.004,172.197z
		 M250.232,163.197l-69.783-86h40.707l51.226,86H250.232z M232.243,65.104c-0.587-0.985-1.284-1.806-2.284-2.444V46.197h16V88.13
		L232.243,65.104z"/>
	<polygon style="fill:#C52D2F;" points="58.48,172.197 237.004,172.197 147.321,61.603 	"/>
	<path style="fill:#C8F1DE;" d="M163.958,236.696c0-9.098-7.401-16.499-16.499-16.499c-9.099,0-16.501,7.401-16.501,16.499v28.501
		h33V236.696z"/>
	<path style="fill:#A9BD34;" d="M254.29,246.197h-42.332v18h51v-9C262.958,250.234,259.253,246.197,254.29,246.197z"/>
	<path style="fill:#A9BD34;" d="M82.958,264.197v-18H40.96c-4.963,0-9.002,4.037-9.002,9v9H82.958z"/>
</g>
<g>
</g>
<g>
</g>
<g>
</g>
<g>
</g>
<g>
</g>
<g>
</g>
<g>
</g>
<g>
</g>
<g>
</g>
<g>
</g>
<g>
</g>
<g>
</g>
<g>
</g>
<g>
</g>
<g>
</g>
</svg>
