<?xml version="1.0" encoding="iso-8859-1"?>
<!-- Generator: Adobe Illustrator 19.1.0, SVG Export Plug-In . SVG Version: 6.00 Build 0)  -->
<svg version="1.1" id="Capa_1" xmlns="http://www.w3.org/2000/svg" xmlns:xlink="http://www.w3.org/1999/xlink" x="0px" y="0px"
	 viewBox="0 0 298 298" style="enable-background:new 0 0 298 298;" xml:space="preserve">
<g>
	<path style="fill:#C8F1DE;" d="M51.167,32v14.067c5-3.738,11-6.694,16-8.609V32H51.167z"/>
	<path style="fill:#C8F1DE;" d="M248.167,45.319V32h-16v5.134C238.167,38.908,243.167,41.724,248.167,45.319z"/>
	<rect x="51.167" y="216" style="fill:#FFFFFF;" width="75" height="32"/>
	<rect x="174.167" y="216" style="fill:#FFFFFF;" width="74" height="32"/>
	<path style="fill:#FFFFFF;" d="M126.167,191c0-4.418,3.915-8,8.333-8h32c4.418,0,7.667,3.582,7.667,8v9h74v-34h-7.428
		c-3.451,0-6.514-2.214-7.597-5.491L225.049,136h-27.098l-8.094,24.509c-1.083,3.277-4.146,5.491-7.597,5.491h-65.021
		c-3.451,0-6.514-2.214-7.597-5.491L101.549,136H74.451l-8.094,24.509c-1.083,3.277-4.146,5.491-7.597,5.491h-7.594v34h75V191z"/>
	<rect x="142.167" y="199" style="fill:#C8F1DE;" width="16" height="49"/>
	<path style="fill:#A9BD34;" d="M272.5,264h-93.815l11.249,18H272.5c4.963,0,9-4.037,9-9S277.463,264,272.5,264z"/>
	<path style="fill:#A9BD34;" d="M120.315,264H25.5c-4.963,0-9,4.037-9,9s4.037,9,9,9h83.565L120.315,264z"/>
	<path d="M272.5,248h-8.333v-82.569c8-1.383,14.375-5.273,18.587-11.156c5.375-7.505,6.596-17.529,3.203-27.507l-19.912-58.065
		c-0.498-1.464-0.879-2.9-1.879-4.31V24c0-4.418-3.249-8-7.667-8h-8.333V8c0-4.418-3.582-8-8-8c-4.418,0-8,3.582-8,8v8H224.5
		c-4.418,0-8.333,3.582-8.333,8v11h-133V24c0-4.418-3.249-8-7.667-8h-8.333V8c0-4.418-3.582-8-8-8s-8,3.582-8,8v8H43.5
		c-4.418,0-8.333,3.582-8.333,8v42.676c0,0.669-0.356,1.343-0.587,2.022l-19.706,58.073c-3.392,9.973-2.379,19.997,2.996,27.503
		c4.029,5.627,10.297,9.438,17.297,10.969V248H25.5c-13.785,0-25,11.215-25,25s11.215,25,25,25h247c13.785,0,25-11.215,25-25
		S286.285,248,272.5,248z M272.5,282h-82.566l-11.249-18H272.5c4.963,0,9,4.037,9,9S277.463,282,272.5,282z M127.934,282l10-16
		h23.133l10,16H127.934z M25.5,282c-4.963,0-9-4.037-9-9s4.037-9,9-9h94.815l-11.25,18H25.5z M31.087,144.958
		c-2.367-3.306-2.716-7.935-0.983-13.031l19.789-58.073C54.105,61.466,68.798,51,81.977,51h137.045
		c13.18,0,27.872,10.465,32.086,22.857l19.787,58.065c1.734,5.101,1.386,9.73-0.981,13.035c-2.329,3.252-6.515,5.042-11.786,5.042
		h-11.605l-8.094-24.509c-1.083-3.277-4.145-5.491-7.597-5.491h-38.664c-3.451,0-6.514,2.214-7.597,5.491L176.477,150h-53.455
		l-8.094-24.509c-1.083-3.277-4.146-5.491-7.597-5.491H68.668c-3.451,0-6.514,2.214-7.597,5.491L52.977,150H42.873
		C37.601,150,33.415,148.209,31.087,144.958z M51.167,46.067V32h16v5.458C62.167,39.373,56.167,42.329,51.167,46.067z M248.167,32
		v13.319c-5-3.596-10-6.411-16-8.186V32H248.167z M51.167,166h7.594c3.451,0,6.514-2.214,7.597-5.491L74.451,136h27.098
		l8.094,24.509c1.083,3.277,4.146,5.491,7.597,5.491h65.021c3.451,0,6.514-2.214,7.597-5.491L197.951,136h27.098l8.094,24.509
		c1.083,3.277,4.146,5.491,7.597,5.491h7.428v34h-74v-9c0-4.418-3.249-8-7.667-8h-32c-4.418,0-8.333,3.582-8.333,8v9h-75V166z
		 M142.167,199h16v49h-16V199z M174.167,248v-32h74v32H174.167z M51.167,216h75v32h-75V216z"/>
	<polygon style="fill:#FFFFFF;" points="137.934,266 127.934,282 171.066,282 161.066,266 	"/>
	<path style="fill:#9696A0;" d="M42.873,150h10.104l8.094-24.509c1.083-3.277,4.146-5.491,7.597-5.491h38.664
		c3.451,0,6.514,2.214,7.597,5.491L123.022,150h53.455l8.094-24.509c1.083-3.277,4.145-5.491,7.597-5.491h38.664
		c3.451,0,6.514,2.214,7.597,5.491L246.522,150h11.605c5.271,0,9.457-1.79,11.786-5.042c2.367-3.305,2.716-7.935,0.981-13.035
		l-19.787-58.065C246.894,61.465,232.201,51,219.021,51H81.977c-13.179,0-27.871,10.466-32.084,22.854l-19.789,58.073
		c-1.732,5.096-1.384,9.725,0.983,13.031C33.415,148.209,37.601,150,42.873,150z"/>
</g>
<g>
</g>
<g>
</g>
<g>
</g>
<g>
</g>
<g>
</g>
<g>
</g>
<g>
</g>
<g>
</g>
<g>
</g>
<g>
</g>
<g>
</g>
<g>
</g>
<g>
</g>
<g>
</g>
<g>
</g>
</svg>
