<?xml version="1.0" encoding="iso-8859-1"?>
<!-- Generator: Adobe Illustrator 19.1.0, SVG Export Plug-In . SVG Version: 6.00 Build 0)  -->
<svg version="1.1" id="Capa_1" xmlns="http://www.w3.org/2000/svg" xmlns:xlink="http://www.w3.org/1999/xlink" x="0px" y="0px"
	 viewBox="0 0 297.25 297.25" style="enable-background:new 0 0 297.25 297.25;" xml:space="preserve">
<g>
	<path style="fill:#FFFFFF;" d="M229.483,83.125c-2.55,0-4.947-1.216-6.454-3.272l-18.104-24.719l-19.293,24.892
		c-1.516,1.955-3.85,3.1-6.323,3.1H32.084v198h34v-67h-6.871c-2.821,0-5.435-1.486-6.876-3.911c-1.442-2.426-1.5-5.431-0.152-7.91
		l17.94-33c1.4-2.575,4.097-4.179,7.028-4.179h45.541c2.894,0,5.561,1.561,6.977,4.085l18.519,33
		c1.391,2.478,1.362,5.506-0.073,7.957c-1.435,2.451-4.062,3.958-6.903,3.958h-8.129v67h18.033c-1.086-2.796-1.7-5.824-1.7-9
		c0-13.785,11.215-25,25-25h7.667v-33h-8.871c-3.242,0-6.163-1.956-7.398-4.954c-1.234-2.997-0.537-6.443,1.765-8.727l33.276-33
		c3.093-3.066,8.072-3.094,11.2-0.064l34.057,33c2.34,2.268,3.071,5.727,1.848,8.748c-1.224,3.02-4.156,4.997-7.415,4.997h-10.462
		v34.32c10,3.345,17.167,12.692,17.167,23.68c0,3.176-0.448,6.204-1.534,9h18.367v-198H229.483z M124.084,140.125
		c0,4.418-3.582,8-8,8h-32c-4.418,0-8-3.582-8-8v-32c0-4.418,3.582-8,8-8h32c4.418,0,8,3.582,8,8V140.125z M230.084,140.125
		c0,4.418-3.582,8-8,8h-32c-4.418,0-8-3.582-8-8v-32c0-4.418,3.582-8,8-8h32c4.418,0,8,3.582,8,8V140.125z"/>
	<path style="fill:#C52D2F;" d="M22.671,67.125h152.717l23.395-30.184c1.538-1.986,3.949-3.155,6.432-3.099
		c2.512,0.034,4.861,1.245,6.346,3.271l21.98,30.011h41.223l-32.097-51H55.528L22.671,67.125z"/>
	<path d="M296.021,70.864l-42.166-67c-1.464-2.327-4.021-3.739-6.77-3.739H51.166c-2.72,0-5.252,1.381-6.726,3.667l-43.166,67
		c-1.585,2.462-1.7,5.593-0.298,8.163c1.401,2.57,4.096,4.17,7.023,4.17h8.084v206c0,4.418,3.915,8,8.333,8h248
		c4.418,0,7.667-3.582,7.667-8v-206h9.166c2.913,0,5.595-1.583,7.003-4.133C297.661,76.442,297.572,73.329,296.021,70.864z
		 M72.668,198.125l9.242-17h36.1l9.54,17h-2.133h-51H72.668z M82.084,214.125h35v67h-35V214.125z M165.417,272.125
		c0-4.963,4.037-9,9-9h48c4.963,0,9,4.037,9,9s-4.037,9-9,9h-48C169.454,281.125,165.417,277.088,165.417,272.125z M192.641,198.125
		l13.913-13.798l14.24,13.798H192.641z M214.084,214.125v33h-16v-33H214.084z M245.717,281.125c1.086-2.796,1.534-5.824,1.534-9
		c0-10.987-7.167-20.335-17.167-23.68v-34.32h10.462c3.259,0,6.191-1.977,7.415-4.997c1.224-3.021,0.492-6.48-1.848-8.748
		l-34.057-33c-3.128-3.029-8.107-3.002-11.2,0.064l-33.276,33c-2.302,2.283-2.999,5.729-1.765,8.727
		c1.234,2.998,4.155,4.954,7.398,4.954h8.871v33h-7.667c-13.785,0-25,11.215-25,25c0,3.176,0.614,6.204,1.7,9h-18.033v-67h8.129
		c2.841,0,5.469-1.507,6.903-3.958c1.436-2.451,1.464-5.479,0.073-7.957l-18.519-33c-1.416-2.523-4.083-4.085-6.977-4.085H77.153
		c-2.932,0-5.628,1.604-7.028,4.179l-17.94,33c-1.348,2.48-1.29,5.484,0.152,7.91c1.441,2.425,4.055,3.911,6.876,3.911h6.871v67h-34
		v-198h147.225c2.474,0,4.808-1.145,6.323-3.1l19.293-24.892l18.104,24.719c1.507,2.057,3.904,3.272,6.454,3.272h34.601v198H245.717
		z M242.666,16.125l32.097,51H233.54l-21.98-30.011c-1.484-2.026-3.834-3.237-6.346-3.271c-2.482-0.057-4.894,1.112-6.432,3.099
		l-23.395,30.184H22.671l32.857-51H242.666z"/>
	<rect x="92.084" y="116.125" style="fill:#C8F1DE;" width="16" height="16"/>
	<path d="M124.084,108.125c0-4.418-3.582-8-8-8h-32c-4.418,0-8,3.582-8,8v32c0,4.418,3.582,8,8,8h32c4.418,0,8-3.582,8-8V108.125z
		 M108.084,132.125h-16v-16h16V132.125z"/>
	<rect x="198.084" y="116.125" style="fill:#C8F1DE;" width="16" height="16"/>
	<path d="M230.084,108.125c0-4.418-3.582-8-8-8h-32c-4.418,0-8,3.582-8,8v32c0,4.418,3.582,8,8,8h32c4.418,0,8-3.582,8-8V108.125z
		 M214.084,132.125h-16v-16h16V132.125z"/>
	<rect x="198.084" y="214.125" style="fill:#C8F1DE;" width="16" height="33"/>
	<polygon style="fill:#C52D2F;" points="192.641,198.125 220.794,198.125 206.554,184.327 	"/>
	<rect x="82.084" y="214.125" style="fill:#FFB929;" width="35" height="67"/>
	<polygon style="fill:#C52D2F;" points="127.55,198.125 118.01,181.125 81.91,181.125 72.668,198.125 74.417,198.125 
		125.417,198.125 	"/>
	<path style="fill:#A9BD34;" d="M231.417,272.125c0-4.963-4.037-9-9-9h-48c-4.963,0-9,4.037-9,9s4.037,9,9,9h48
		C227.38,281.125,231.417,277.088,231.417,272.125z"/>
</g>
<g>
</g>
<g>
</g>
<g>
</g>
<g>
</g>
<g>
</g>
<g>
</g>
<g>
</g>
<g>
</g>
<g>
</g>
<g>
</g>
<g>
</g>
<g>
</g>
<g>
</g>
<g>
</g>
<g>
</g>
</svg>
