<?xml version="1.0" encoding="iso-8859-1"?>
<!-- Generator: Adobe Illustrator 19.1.0, SVG Export Plug-In . SVG Version: 6.00 Build 0)  -->
<svg version="1.1" id="Capa_1" xmlns="http://www.w3.org/2000/svg" xmlns:xlink="http://www.w3.org/1999/xlink" x="0px" y="0px"
	 viewBox="0 0 299.354 299.354" style="enable-background:new 0 0 299.354 299.354;" xml:space="preserve">
<g>
	<polygon style="fill:#FFC3AA;" points="205.013,67.677 222.833,90.819 222.833,67.677 	"/>
	<path style="fill:#C8F1DE;" d="M192.461,51.677h35.705c4.963,0,9-4.037,9-9c0-4.418,3.582-8,8-8h28c4.963,0,9-4.037,9-9
		s-4.037-9-9-9h-41c-4.963,0-9,4.037-9,9c0,4.418-3.582,8-8,8h-28c-2.595,0-4.929,1.109-6.573,2.872L192.461,51.677z"/>
	<rect x="31.833" y="198.677" style="fill:#FFFFFF;" width="27" height="50"/>
	<polygon style="fill:#502900;" points="58.833,149.677 50.332,149.677 24.444,182.677 58.833,182.677 	"/>
	<rect x="238.833" y="198.677" style="fill:#FFFFFF;" width="28" height="50"/>
	<polygon style="fill:#502900;" points="238.833,182.677 274.891,182.677 249.003,149.677 238.833,149.677 	"/>
	<rect x="181.833" y="226.677" style="fill:#FFFFFF;" width="41" height="22"/>
	<rect x="74.834" y="226.677" style="fill:#FFFFFF;" width="41" height="22"/>
	<rect x="74.834" y="149.677" style="fill:#FFFFFF;" width="148" height="22"/>
	<rect x="74.834" y="187.677" style="fill:#A05200;" width="41" height="23"/>
	<rect x="181.833" y="187.677" style="fill:#A05200;" width="41" height="23"/>
	<polygon style="fill:#A05200;" points="140.833,133.677 140.833,33.844 62.49,133.677 	"/>
	<polygon style="fill:#A05200;" points="231.167,133.677 236.509,133.677 156.833,32.998 156.833,133.677 	"/>
	<rect x="131.833" y="187.677" style="fill:#FFC3AA;" width="34" height="61"/>
	<path style="fill:#A9BD34;" d="M272.167,264.677h-247c-4.963,0-9,4.037-9,9s4.037,9,9,9h247c4.963,0,9-4.037,9-9
		S277.129,264.677,272.167,264.677z"/>
	<path d="M282.833,251.234v-52.557h8.501c0.006,0,0.014,0,0.02,0c4.419,0,8-3.582,8-8c0-2.044-0.933-3.909-2.194-5.323
		L238.833,111.2V65.109c6-2.919,10.878-8.105,13.021-14.432h21.312c13.785,0,25-11.215,25-25s-11.215-25-25-25h-41
		c-10.988,0-20.344,7.127-23.688,17h-21.312c-6.314,0-12.084,2.357-16.488,6.231L156.962,6.425
		c-0.484-0.618-1.051-1.148-1.672-1.589c-1.502-1.579-3.589-2.491-5.791-2.491c-2.451,0-4.767,1.123-6.283,3.048l-0.611,0.775
		c-0.075,0.088-0.16,0.165-0.232,0.257l-6.572,8.379L1.707,185.74c-1.89,2.408-2.239,5.685-0.899,8.438
		c1.339,2.753,4.132,4.5,7.193,4.5h7.833v51.683C6.833,253.981,0,263.064,0,273.677c0,13.785,11.381,25,25.167,25h247
		c13.785,0,24.833-11.215,24.833-25C297,263.837,291.833,255.311,282.833,251.234z M272.167,282.677h-247c-4.963,0-9-4.037-9-9
		s4.037-9,9-9h247c4.963,0,9,4.037,9,9S277.129,282.677,272.167,282.677z M187.167,33.677h28c4.418,0,8-3.582,8-8
		c0-4.963,4.037-9,9-9h41c4.963,0,9,4.037,9,9s-4.037,9-9,9h-28c-4.418,0-8,3.582-8,8c0,4.963-4.037,9-9,9h-35.705l-11.868-15.128
		C182.238,34.786,184.572,33.677,187.167,33.677z M50.332,149.677h8.502v33h-34.39L50.332,149.677z M62.49,133.677l78.344-99.833
		v99.833H62.49z M274.891,182.677h-36.058v-3v-27v-3h10.17L274.891,182.677z M74.834,187.677h41v23h-41V187.677z M156.833,32.998
		l79.676,100.679h-79.676V32.998z M222.833,210.677h-41v-23h41V210.677z M222.833,149.677v22h-148v-22H222.833z M74.834,226.677h41
		v22h-41V226.677z M131.833,187.677h34v61h-34V187.677z M181.833,226.677h41v22h-41V226.677z M266.833,248.677h-28v-30v-20h28
		V248.677z M205.013,67.677h17.82v23.142L205.013,67.677z M58.833,198.677v50h-27v-50H58.833z"/>
</g>
<g>
</g>
<g>
</g>
<g>
</g>
<g>
</g>
<g>
</g>
<g>
</g>
<g>
</g>
<g>
</g>
<g>
</g>
<g>
</g>
<g>
</g>
<g>
</g>
<g>
</g>
<g>
</g>
<g>
</g>
</svg>
