<?xml version="1.0" encoding="iso-8859-1"?>
<!-- Generator: Adobe Illustrator 19.1.0, SVG Export Plug-In . SVG Version: 6.00 Build 0)  -->
<svg version="1.1" id="Capa_1" xmlns="http://www.w3.org/2000/svg" xmlns:xlink="http://www.w3.org/1999/xlink" x="0px" y="0px"
	 viewBox="0 0 299.669 299.669" style="enable-background:new 0 0 299.669 299.669;" xml:space="preserve">
<g>
	<rect x="32.501" y="126.834" style="fill:#FFC3AA;" width="133" height="16"/>
	<rect x="122.501" y="158.834" style="fill:#FFC3AA;" width="43" height="35"/>
	<rect x="32.501" y="209.834" style="fill:#FFC3AA;" width="133" height="16"/>
	<rect x="32.501" y="158.834" style="fill:#FFC3AA;" width="42" height="35"/>
	<rect x="32.501" y="241.834" style="fill:#FFC3AA;" width="24" height="33"/>
	<rect x="140.501" y="241.834" style="fill:#FFC3AA;" width="25" height="33"/>
	<polygon style="fill:#C52D2F;" points="22.789,110.834 24.834,110.834 151.7,110.834 196.48,42.834 67.032,42.834 	"/>
	<rect x="181.501" y="209.834" style="fill:#FFC3AA;" width="83" height="16"/>
	<rect x="246.501" y="158.834" style="fill:#FFC3AA;" width="18" height="35"/>
	<rect x="246.501" y="241.834" style="fill:#FFC3AA;" width="18" height="33"/>
	<rect x="181.501" y="241.834" style="fill:#FFC3AA;" width="17" height="33"/>
	<rect x="181.501" y="158.834" style="fill:#FFC3AA;" width="17" height="35"/>
	<path style="fill:#FFC3AA;" d="M223.533,31.281l-52.645,79.554h27.946c4.418,0,8,3.582,8,8s-3.582,8-8,8h-17.333v16h83v-16h-15.667
		c-4.418,0-8-3.582-8-8s3.582-8,8-8h27.865L223.533,31.281z M239.501,88.334c0,8.837-7.163,16-16,16c-8.837,0-16-7.163-16-16
		s7.163-16,16-16C232.338,72.334,239.501,79.497,239.501,88.334z"/>
	<path d="M298.32,114.389l-68.168-102c-1.484-2.222-3.98-3.555-6.651-3.555c-0.006,0-0.012,0-0.019,0
		c-2.678,0.006-5.175,1.185-6.653,3.418l-9.761,14.582H62.705c-2.7,0-5.218,1.529-6.695,3.789l-54.705,83.75
		c-1.608,2.459-1.739,5.642-0.341,8.226c1.397,2.583,4.099,4.235,7.036,4.235h8.501v156c0,4.418,3.915,8,8.333,8h248
		c4.418,0,7.667-3.582,7.667-8v-156h11.167c2.952,0,5.664-1.626,7.056-4.229C300.116,120.001,299.96,116.843,298.32,114.389z
		 M248.834,110.834c-4.418,0-8,3.582-8,8s3.582,8,8,8h15.667v16h-83v-16h17.333c4.418,0,8-3.582,8-8s-3.582-8-8-8h-27.946
		l52.645-79.554l53.166,79.554H248.834z M264.501,158.834v35h-18v-35H264.501z M246.501,241.834h18v33h-18V241.834z
		 M181.501,225.834v-16h83v16H181.501z M230.501,193.834h-16v-35h16V193.834z M198.501,193.834h-17v-35h17V193.834z M151.7,110.834
		H22.789l44.243-68H196.48L151.7,110.834z M165.501,126.834v16h-133v-16H165.501z M72.501,241.834h52v33h-52V241.834z
		 M32.501,225.834v-16h133v16H32.501z M106.501,193.834h-16v-35h16V193.834z M74.501,193.834h-42v-35h42V193.834z M122.501,193.834
		v-35h43v35H122.501z M32.501,241.834h24v33h-24V241.834z M140.501,241.834h25v33h-25V241.834z M181.501,241.834h17v33h-17V241.834z
		 M214.501,274.834v-33h16v33H214.501z"/>
	<circle cx="223.501" cy="88.334" r="16"/>
	<rect x="72.501" y="241.834" style="fill:#FFFFFF;" width="52" height="33"/>
	<rect x="214.501" y="158.834" style="fill:#FFFFFF;" width="16" height="35"/>
	<rect x="214.501" y="241.834" style="fill:#FFFFFF;" width="16" height="33"/>
	<rect x="90.501" y="158.834" style="fill:#FFFFFF;" width="16" height="35"/>
</g>
<g>
</g>
<g>
</g>
<g>
</g>
<g>
</g>
<g>
</g>
<g>
</g>
<g>
</g>
<g>
</g>
<g>
</g>
<g>
</g>
<g>
</g>
<g>
</g>
<g>
</g>
<g>
</g>
<g>
</g>
</svg>
