<?xml version="1.0" encoding="iso-8859-1"?>
<!-- Generator: Adobe Illustrator 19.1.0, SVG Export Plug-In . SVG Version: 6.00 Build 0)  -->
<svg version="1.1" id="Capa_1" xmlns="http://www.w3.org/2000/svg" xmlns:xlink="http://www.w3.org/1999/xlink" x="0px" y="0px"
	 viewBox="0 0 297.686 297.686" style="enable-background:new 0 0 297.686 297.686;" xml:space="preserve">
<g>
	<rect x="230.5" y="97.676" style="fill:#FFC3AA;" width="18" height="18"/>
	<path style="fill:#C52D2F;" d="M211.715,131.676l1.937,4.062c0.659,1.162,1.034,2.506,1.034,3.938c0,4.418-3.581,8-8,8
		c-0.005,0-0.013,0-0.02,0H196.5v18h80.49l-16.205-34H211.715z"/>
	<path style="fill:#A05200;" d="M196.5,246.676h69v-65h-69V246.676z M247.5,222.676c0,4.418-3.582,8-8,8h-17c-4.418,0-8-3.582-8-8
		v-17c0-4.418,3.582-8,8-8h17c4.418,0,8,3.582,8,8V222.676z"/>
	<rect x="50.5" y="49.676" style="fill:#FFC3AA;" width="18" height="32"/>
	<path style="fill:#FFC3AA;" d="M49.5,246.676v-57c0-4.418,3.915-8,8.333-8h99c4.418,0,7.667,3.582,7.667,8v57h16v-99h-148v99H49.5z
		"/>
	<rect x="65.5" y="197.676" style="fill:#FF754A;" width="17" height="49"/>
	<rect x="98.5" y="197.676" style="fill:#FFFFFF;" width="17" height="49"/>
	<rect x="131.5" y="197.676" style="fill:#FF754A;" width="17" height="49"/>
	<polygon style="fill:#C52D2F;" points="193.99,131.676 177.785,97.676 36.88,97.676 20.675,131.676 	"/>
	<path d="M247.5,205.676c0-4.418-3.582-8-8-8h-17c-4.418,0-8,3.582-8,8v17c0,4.418,3.582,8,8,8h17c4.418,0,8-3.582,8-8V205.676z"/>
	<path style="fill:#A9BD34;" d="M272.833,262.676h-247c-4.963,0-9,4.037-9,9c0,4.963,4.037,9,9,9h247c4.963,0,9-4.037,9-9
		C281.833,266.713,277.796,262.676,272.833,262.676z"/>
	<path d="M281.5,248.358v-66.683h8.166c0.008,0.001,0.015,0.001,0.02,0c4.419,0,8-3.582,8-8c0-1.432-0.375-2.775-1.034-3.938
		l-23.596-49.505c-1.327-2.784-4.137-4.558-7.222-4.558H264.5v-26c0-4.418-3.249-8-7.667-8h-34c-4.418,0-8.333,3.582-8.333,8v26
		h-10.411l-14.033-29.442c-1.327-2.784-4.137-4.558-7.222-4.558H84.5v-40c0-4.418-3.249-8-7.667-8h-34c-4.418,0-8.333,3.582-8.333,8
		v40h-2.67c-3.085,0-5.895,1.773-7.222,4.558l-23.83,50c-1.182,2.479-1.009,5.391,0.456,7.712c1.466,2.322,4.02,3.73,6.766,3.73h8.5
		v100.683c-9,3.621-15.834,12.704-15.834,23.317c0,13.785,11.381,25,25.167,25h247c13.785,0,24.833-11.215,24.833-25
		C297.667,261.062,291.5,251.979,281.5,248.358z M272.833,280.676h-247c-4.963,0-9-4.037-9-9c0-4.963,4.037-9,9-9h247
		c4.963,0,9,4.037,9,9C281.833,276.639,277.796,280.676,272.833,280.676z M36.88,97.676h140.905l16.205,34H20.675L36.88,97.676z
		 M68.5,49.676v32h-18v-32H68.5z M248.5,97.676v18h-18v-18H248.5z M260.785,131.676l16.205,34H196.5v-18h10.166
		c0.007,0,0.015,0,0.02,0c4.419,0,8-3.582,8-8c0-1.432-0.375-2.775-1.034-3.938l-1.937-4.062H260.785z M82.5,246.676h-17v-49h17
		V246.676z M115.5,246.676h-17v-49h17V246.676z M148.5,246.676h-17v-49h17V246.676z M265.5,246.676h-69v-65h69V246.676z
		 M180.5,147.676v99h-16v-57c0-4.418-3.249-8-7.667-8h-99c-4.418,0-8.333,3.582-8.333,8v57h-17v-99H180.5z"/>
	<path style="fill:#FFB929;" d="M197.833,33.01c4.411,0,8-3.589,8-8s-3.589-8-8-8s-8,3.589-8,8S193.422,33.01,197.833,33.01z"/>
	<path d="M197.833,49.01c13.233,0,24-10.767,24-24s-10.767-24-24-24s-24,10.767-24,24S184.6,49.01,197.833,49.01z M197.833,17.01
		c4.411,0,8,3.589,8,8s-3.589,8-8,8s-8-3.589-8-8S193.422,17.01,197.833,17.01z"/>
</g>
<g>
</g>
<g>
</g>
<g>
</g>
<g>
</g>
<g>
</g>
<g>
</g>
<g>
</g>
<g>
</g>
<g>
</g>
<g>
</g>
<g>
</g>
<g>
</g>
<g>
</g>
<g>
</g>
<g>
</g>
</svg>
