<?xml version="1.0" encoding="iso-8859-1"?>
<!-- Generator: Adobe Illustrator 19.1.0, SVG Export Plug-In . SVG Version: 6.00 Build 0)  -->
<svg version="1.1" id="Capa_1" xmlns="http://www.w3.org/2000/svg" xmlns:xlink="http://www.w3.org/1999/xlink" x="0px" y="0px"
	 viewBox="0 0 297 297" style="enable-background:new 0 0 297 297;" xml:space="preserve">
<g>
	<rect x="188.833" y="148" style="fill:#FFFFFF;" width="33" height="82"/>
	<path style="fill:#A05200;" d="M161.833,82h19.333c4.418,0,7.667,3.582,7.667,8v42h41.333c4.418,0,7.667,3.582,7.667,8v90h18V33
		h-94V82z"/>
	<rect x="71.834" y="33" style="fill:#A05200;" width="42" height="49"/>
	<rect x="129.833" y="33" style="fill:#C8F1DE;" width="16" height="49"/>
	<path style="fill:#FFFFFF;" d="M55.833,124c0-0.029,0.004-0.058,0.005-0.087l-15.005-15.055V230h15V124z"/>
	<polygon style="fill:#FFFFFF;" points="161.9,230 103.834,172.071 103.834,230 	"/>
	<path style="fill:#9696A0;" d="M52.934,98l17.939,18h25.293c4.418,0,7.667,3.582,7.667,8v25.406l69,69.233V98H52.934z"/>
	<rect x="71.834" y="132" style="fill:#C8F1DE;" width="16" height="98"/>
	<path style="fill:#A9BD34;" d="M272.167,246h-247c-4.963,0-9,4.037-9,9c0,4.963,4.037,9,9,9h247c4.963,0,9-4.037,9-9
		C281.167,250.037,277.129,246,272.167,246z"/>
	<path d="M271.833,230V25c0-4.418-3.249-8-7.667-8h-200c-4.418,0-8.333,3.582-8.333,8v57H33.667h-0.5c-4.418,0-8.333,3.582-8.333,8
		v140C11.833,230,0,241.215,0,255c0,13.785,11.381,25,25.167,25h247C285.952,280,297,268.785,297,255
		C297,241.215,285.833,230,271.833,230z M272.167,264h-247c-4.963,0-9-4.037-9-9c0-4.963,4.037-9,9-9h247c4.963,0,9,4.037,9,9
		C281.167,259.963,277.129,264,272.167,264z M221.833,230h-33v-82h33V230z M71.834,132h16v98h-16V132z M103.834,172.071L161.9,230
		h-58.066V172.071z M255.833,230h-18v-90c0-4.418-3.249-8-7.667-8h-41.333V90c0-4.418-3.249-8-7.667-8h-19.333V33h94V230z
		 M145.833,82h-16V33h16V82z M113.834,82h-42V33h42V82z M172.833,98v120.64l-69-69.233V124c0-4.418-3.249-8-7.667-8H70.873
		L52.934,98H172.833z M40.833,108.858l15.005,15.055c-0.001,0.029-0.005,0.058-0.005,0.087v106h-15V108.858z"/>
</g>
<g>
</g>
<g>
</g>
<g>
</g>
<g>
</g>
<g>
</g>
<g>
</g>
<g>
</g>
<g>
</g>
<g>
</g>
<g>
</g>
<g>
</g>
<g>
</g>
<g>
</g>
<g>
</g>
<g>
</g>
</svg>
