<?xml version="1.0" encoding="iso-8859-1"?>
<!-- Generator: Adobe Illustrator 19.1.0, SVG Export Plug-In . SVG Version: 6.00 Build 0)  -->
<svg version="1.1" id="Capa_1" xmlns="http://www.w3.org/2000/svg" xmlns:xlink="http://www.w3.org/1999/xlink" x="0px" y="0px"
	 viewBox="0 0 297 297" style="enable-background:new 0 0 297 297;" xml:space="preserve">
<g>
	<polygon style="fill:#FFC3AA;" points="81.667,76.946 105.967,47.666 81.667,47.666 	"/>
	<path style="fill:#FFFFFF;" d="M123.667,189.666c0-4.418,3.915-8,8.333-8h33c4.418,0,7.667,3.582,7.667,8v57h50v-99h-148v99h49
		V189.666z"/>
	<path style="fill:#C52D2F;" d="M239.113,131.666L148.5,20.964L57.887,131.666H239.113z M149,69c8.837,0,16,7.163,16,16
		s-7.163,16-16,16c-8.837,0-16-7.163-16-16S140.163,69,149,69z"/>
	<circle cx="149" cy="85" r="16"/>
	<rect x="139.667" y="197.666" style="fill:#FFC3AA;" width="17" height="49"/>
	<path style="fill:#A9BD34;" d="M272,262.666H25c-4.963,0-9,4.037-9,9c0,4.963,4.037,9,9,9h247c4.963,0,9-4.037,9-9
		C281,266.703,276.963,262.666,272,262.666z"/>
	<path d="M272,246.666h-33.333v-99H256c3.092,0,5.906-1.781,7.229-4.575c1.324-2.794,0.919-6.1-1.039-8.492L154.69,3.267
		c-1.519-1.856-3.792-2.933-6.19-2.933c-2.398,0-4.671,1.076-6.19,2.933l-23.246,28.399H74c-4.418,0-8.333,3.582-8.333,8v56.827
		l-31.024,38.105c-1.958,2.393-2.28,5.698-0.956,8.492c1.323,2.794,4.221,4.575,7.313,4.575h17.667v99H25c-13.785,0-25,11.215-25,25
		c0,13.785,11.215,25,25,25h247c13.785,0,25-11.215,25-25C297,257.881,285.785,246.666,272,246.666z M272,280.666H25
		c-4.963,0-9-4.037-9-9c0-4.963,4.037-9,9-9h247c4.963,0,9,4.037,9,9C281,276.629,276.963,280.666,272,280.666z M74.667,147.666h148
		v99h-50v-57c0-4.418-3.249-8-7.667-8h-33c-4.418,0-8.333,3.582-8.333,8v57h-49V147.666z M81.667,76.946v-29.28h24.3L81.667,76.946z
		 M148.5,20.964l90.613,110.702H57.887L148.5,20.964z M156.667,246.666h-17v-49h17V246.666z"/>
</g>
<g>
</g>
<g>
</g>
<g>
</g>
<g>
</g>
<g>
</g>
<g>
</g>
<g>
</g>
<g>
</g>
<g>
</g>
<g>
</g>
<g>
</g>
<g>
</g>
<g>
</g>
<g>
</g>
<g>
</g>
</svg>
