<?xml version="1.0" encoding="iso-8859-1"?>
<!-- Generator: Adobe Illustrator 19.1.0, SVG Export Plug-In . SVG Version: 6.00 Build 0)  -->
<svg version="1.1" id="Capa_1" xmlns="http://www.w3.org/2000/svg" xmlns:xlink="http://www.w3.org/1999/xlink" x="0px" y="0px"
	 viewBox="0 0 298 298" style="enable-background:new 0 0 298 298;" xml:space="preserve">
<g>
	<rect x="82" y="231.735" style="fill:none;" width="134" height="16"/>
	<path style="fill:#C8F1DE;" d="M264.167,263.735c0,4.418-3.415,8-7.833,8h-32c-4.418,0-8-3.582-8-8l0,0h-134l0,0
		c0,4.418-3.582,8-8,8h-32c-4.418,0-8.167-3.582-8.167-8h0.167H16v18h266v-18h-17.667H264.167z"/>
	<path d="M290,247.735h-26v-58c0-4.418-3.249-8-7.667-8H232v-42V116.7l25.052,0.035c0.001,0,0.002,0,0.003,0c0.007,0,0.013,0,0.02,0
		c4.419,0,8-3.811,8-8.229c0-0.254-0.02-0.508-0.043-0.76c-0.003-0.048-0.004-0.096-0.008-0.143
		c-0.008-0.068-0.021-0.136-0.031-0.204c-0.173-1.577-0.814-3.085-1.874-4.322c-0.177-0.213-0.362-0.414-0.559-0.603
		c-0.023-0.023-0.042-0.05-0.066-0.072L154.73,2.513c-0.965-0.896-2.116-1.501-3.336-1.834c-2.716-0.908-5.818-0.321-8.031,1.76
		L37.107,102.426c-2.389,2.246-3.164,5.782-1.956,8.832c1.208,3.049,3.989,5.168,7.268,5.169L65,116.459v23.275v42H42.333
		c-4.418,0-8.333,3.582-8.333,8v58H8.666c-4.418,0-8.666,3.082-8.666,7.5v34c0,4.418,4.248,8.5,8.666,8.5H290c4.418,0,8-4.082,8-8.5
		v-34C298,250.817,294.418,247.735,290,247.735z M282,281.735H16v-18h18.333h-0.167c0,4.418,3.749,8,8.167,8h32c4.418,0,8-3.582,8-8
		l0,0h134l0,0c0,4.418,3.582,8,8,8h32c4.418,0,7.833-3.582,7.833-8h0.167H282V281.735z M50,197.735h198v18H50V197.735z M157,100.235
		v-73.53l79.356,73.559L157,100.235z M141,26.326v73.903l-78.531-0.027L141,26.326z M216,116.676v15.059h-23.667
		c-4.418,0-8.333,3.582-8.333,8v42h-12v-42c0-4.418-3.249-8-7.667-8h-32c-4.418,0-8.333,3.582-8.333,8v42h-11v-42
		c0-4.418-3.249-8-7.667-8H81v-15.252L216,116.676z M156,181.735h-16v-34h16V181.735z M216,181.735h-16v-34h16V181.735z M81,147.735
		h16v34H81V147.735z M216,247.735H82v-16h134V247.735z M248,255.735h-16v-24h16V255.735z M50,231.735h16v24H50V231.735z"/>
	<rect x="50" y="231.735" style="fill:#A05200;" width="16" height="24"/>
	<rect x="232" y="231.735" style="fill:#A05200;" width="16" height="24"/>
	<rect x="50" y="197.735" style="fill:#B37533;" width="198" height="18"/>
	<path style="fill:#FFB929;" d="M105.333,131.735c4.418,0,7.667,3.582,7.667,8v42h11v-42c0-4.418,3.915-8,8.333-8h32
		c4.418,0,7.667,3.582,7.667,8v42h12v-42c0-4.418,3.915-8,8.333-8H216v-15.059l-135-0.193v15.252H105.333z"/>
	<polygon style="fill:#A05200;" points="141,100.229 141,26.326 62.469,100.202 	"/>
	<polygon style="fill:#B37533;" points="157,26.704 157,100.235 236.356,100.263 	"/>
	<rect x="140" y="147.735" style="fill:#A05200;" width="16" height="34"/>
	<rect x="81" y="147.735" style="fill:#A05200;" width="16" height="34"/>
	<rect x="200" y="147.735" style="fill:#A05200;" width="16" height="34"/>
	<path style="fill:#FFB929;" d="M257.333,33.069c4.411,0,8-3.589,8-8s-3.589-8-8-8c-4.411,0-8,3.589-8,8
		S252.922,33.069,257.333,33.069z"/>
	<path d="M257.333,49.069c13.233,0,24-10.767,24-24s-10.767-24-24-24c-13.233,0-24,10.767-24,24S244.1,49.069,257.333,49.069z
		 M257.333,17.069c4.411,0,8,3.589,8,8s-3.589,8-8,8c-4.411,0-8-3.589-8-8S252.922,17.069,257.333,17.069z"/>
</g>
<g>
</g>
<g>
</g>
<g>
</g>
<g>
</g>
<g>
</g>
<g>
</g>
<g>
</g>
<g>
</g>
<g>
</g>
<g>
</g>
<g>
</g>
<g>
</g>
<g>
</g>
<g>
</g>
<g>
</g>
</svg>
