<?xml version="1.0" encoding="iso-8859-1"?>
<!-- Generator: Adobe Illustrator 19.1.0, SVG Export Plug-In . SVG Version: 6.00 Build 0)  -->
<svg version="1.1" id="Capa_1" xmlns="http://www.w3.org/2000/svg" xmlns:xlink="http://www.w3.org/1999/xlink" x="0px" y="0px"
	 viewBox="0 0 296.473 296.473" style="enable-background:new 0 0 296.473 296.473;" xml:space="preserve">
<g>
	<path style="fill:#FFFFFF;" d="M52.987,166.473v114h172v-114H52.987z M178.987,223.473v32c0,4.418-3.249,8-7.667,8h-32h-32
		c-4.418,0-8.333-3.582-8.333-8v-32v-32c0-4.418,3.915-8,8.333-8h32h32c4.418,0,7.667,3.582,7.667,8V223.473z"/>
	<path style="fill:#C52D2F;" d="M245.601,150.473l-36.834-45H180.32c-4.418,0-8.333-3.582-8.333-8V66.97
		c-11-2.322-19.835-12.424-19.835-24.497c0-1.809,0.281-3.571,0.648-5.272l-13.522-16.57L37.3,145.243l-4.259,5.23H245.601z"/>
	<rect x="114.987" y="199.473" style="fill:#FFC3AA;" width="16" height="16"/>
	<rect x="114.987" y="231.473" style="fill:#FFC3AA;" width="16" height="16"/>
	<rect x="146.987" y="199.473" style="fill:#FFC3AA;" width="16" height="16"/>
	<path d="M171.32,183.473h-32h-32c-4.418,0-8.333,3.582-8.333,8v32v32c0,4.418,3.915,8,8.333,8h32h32c4.418,0,7.667-3.582,7.667-8
		v-32v-32C178.987,187.055,175.738,183.473,171.32,183.473z M162.987,247.473h-16v-16h16V247.473z M114.987,199.473h16v16h-16
		V199.473z M162.987,215.473h-16v-16h16V215.473z M114.987,231.473h16v16h-16V231.473z"/>
	<rect x="146.987" y="231.473" style="fill:#FFC3AA;" width="16" height="16"/>
	<rect x="187.987" y="67.473" style="fill:#A05200;" width="17" height="22"/>
	<path style="fill:#C8F1DE;" d="M177.319,51.473h41c4.963,0,9-4.037,9-9c0-4.418,3.582-8,8-8h28c4.963,0,9-4.037,9-9s-4.037-9-9-9
		h-41c-4.963,0-9,4.037-9,9c0,4.418-3.582,8-8,8h-28c-4.963,0-9,4.037-9,9S172.357,51.473,177.319,51.473z"/>
	<path d="M242.007,50.473h21.313c13.785,0,25-11.215,25-25s-11.215-25-25-25h-41c-10.988,0-20.344,7.127-23.688,17h-21.312
		c-5.847,0-11.227,2.022-15.488,5.398l-16.32-19.938C143.991,1.076,141.719,0,139.32,0c-2.398,0-4.671,1.076-6.19,2.933
		L9.963,153.405c-1.958,2.393-2.363,5.698-1.039,8.492c1.323,2.794,4.138,4.575,7.23,4.575h20.834v122c0,4.418,3.915,8,8.333,8h188
		c4.418,0,7.667-3.582,7.667-8v-122h21.5c3.092,0,5.906-1.781,7.229-4.575c1.324-2.794,0.752-6.1-1.206-8.492l-47.524-57.856V67.273
		C230.987,66.109,238.973,59.432,242.007,50.473z M52.987,280.473v-114h172v114H52.987z M33.04,150.473l3.947-5.23v-12.63v12.63
		L139.154,20.63l13.647,16.57c-0.367,1.701-0.689,3.464-0.689,5.272c0,12.073,8.876,22.175,19.876,24.497v30.503
		c0,4.418,3.915,8,8.333,8h28.446l36.834,45H33.04z M168.319,42.473c0-4.963,4.037-9,9-9h28c4.418,0,8-3.582,8-8
		c0-4.963,4.037-9,9-9h41c4.963,0,9,4.037,9,9s-4.037,9-9,9h-28c-4.418,0-8,3.582-8,8c0,4.963-4.037,9-9,9h-41
		C172.357,51.473,168.319,47.436,168.319,42.473z M204.987,89.473h-17v-22h17V89.473z"/>
</g>
<g>
</g>
<g>
</g>
<g>
</g>
<g>
</g>
<g>
</g>
<g>
</g>
<g>
</g>
<g>
</g>
<g>
</g>
<g>
</g>
<g>
</g>
<g>
</g>
<g>
</g>
<g>
</g>
<g>
</g>
</svg>
