<?xml version="1.0" encoding="iso-8859-1"?>
<!-- Generator: Adobe Illustrator 19.1.0, SVG Export Plug-In . SVG Version: 6.00 Build 0)  -->
<svg version="1.1" id="Capa_1" xmlns="http://www.w3.org/2000/svg" xmlns:xlink="http://www.w3.org/1999/xlink" x="0px" y="0px"
	 viewBox="0 0 297 297" style="enable-background:new 0 0 297 297;" xml:space="preserve">
<g>
	<polygon style="fill:none;" points="98.667,230 140.667,230 140.667,205 140.667,173 140.667,151 98.667,151 	"/>
	<rect x="66.667" y="68" style="fill:#C8F1DE;" width="73" height="32"/>
	<rect x="155.667" y="68" style="fill:#C8F1DE;" width="57" height="32"/>
	<path style="fill:#FFFFFF;" d="M247.667,135V33h-200v19H221c4.418,0,7.667,3.582,7.667,8v48c0,4.418-3.249,8-7.667,8H47.667v19
		H247.667z"/>
	<path style="fill:#9696A0;" d="M156.667,165H223c4.418,0,7.667,3.582,7.667,8v32c0,4.418-3.249,8-7.667,8h-66.333v17h91v-79h-91
		V165z"/>
	<rect x="66.667" y="151" style="fill:#9696A0;" width="16" height="79"/>
	<rect x="156.667" y="181" style="fill:#C8F1DE;" width="58" height="16"/>
	<path style="fill:#A9BD34;" d="M272,246H25c-4.963,0-9,4.037-9,9c0,4.963,4.037,9,9,9h247c4.963,0,9-4.037,9-9
		C281,250.037,276.963,246,272,246z"/>
	<path d="M272,230h-8.333V25c0-4.418-3.249-8-7.667-8H40c-4.418,0-8.333,3.582-8.333,8v35c0,4.418,3.915,8,8.333,8h10.667v32H40
		c-4.418,0-8.333,3.582-8.333,8v35c0,4.418,3.915,8,8.333,8h10.667v79H25c-13.785,0-25,11.215-25,25c0,13.785,11.215,25,25,25h247
		c13.785,0,25-11.215,25-25C297,241.215,285.785,230,272,230z M272,264H25c-4.963,0-9-4.037-9-9c0-4.963,4.037-9,9-9h247
		c4.963,0,9,4.037,9,9C281,259.963,276.963,264,272,264z M47.667,116H221c4.418,0,7.667-3.582,7.667-8V60c0-4.418-3.249-8-7.667-8
		H47.667V33h200v102h-200V116z M212.667,68v32h-57V68H212.667z M139.667,68v32h-73V68H139.667z M247.667,230h-91v-17H223
		c4.418,0,7.667-3.582,7.667-8v-32c0-4.418-3.249-8-7.667-8h-66.333v-14h91V230z M140.667,230h-42v-79h42V230z M156.667,197v-16h58
		v16H156.667z M82.667,151v79h-16v-79H82.667z"/>
</g>
<g>
</g>
<g>
</g>
<g>
</g>
<g>
</g>
<g>
</g>
<g>
</g>
<g>
</g>
<g>
</g>
<g>
</g>
<g>
</g>
<g>
</g>
<g>
</g>
<g>
</g>
<g>
</g>
<g>
</g>
</svg>
