<?xml version="1.0" encoding="iso-8859-1"?>
<!-- Generator: Adobe Illustrator 19.1.0, SVG Export Plug-In . SVG Version: 6.00 Build 0)  -->
<svg version="1.1" id="Capa_1" xmlns="http://www.w3.org/2000/svg" xmlns:xlink="http://www.w3.org/1999/xlink" x="0px" y="0px"
	 viewBox="0 0 298.352 298.352" style="enable-background:new 0 0 298.352 298.352;" xml:space="preserve">
<g>
	<rect x="82.834" y="16.676" style="fill:#FFC3AA;" width="17" height="34"/>
	<polygon style="fill:#FFC3AA;" points="65.834,66.676 65.834,98.521 92.233,66.676 	"/>
	<rect x="238.833" y="182.676" style="fill:#FFFFFF;" width="26" height="65"/>
	<polygon style="fill:#A05200;" points="238.833,148.676 238.833,166.676 274.956,166.676 262.338,148.676 	"/>
	<rect x="31.833" y="182.676" style="fill:#FFFFFF;" width="27" height="65"/>
	<polygon style="fill:#A05200;" points="58.833,166.676 58.833,148.676 35.995,148.676 23.377,166.676 	"/>
	<path style="fill:#FFFFFF;" d="M222.833,247.676v-99h-148v99h50v-34h-11.334c-2.908,0-5.587-1.578-6.997-4.122
		c-1.41-2.543-1.328-5.651,0.213-8.118l20-32c1.462-2.339,4.025-3.76,6.784-3.76h32c2.759,0,5.322,1.421,6.784,3.76l19.725,31.561
		c0.951,1.315,1.511,2.933,1.511,4.68c0,4.418-3.581,8-8,8c-0.008-0.001-0.014-0.001-0.02,0h-12.666v34H222.833z"/>
	<polygon style="fill:#FFB929;" points="140.833,70.529 140.833,32.154 123.561,53.256 	"/>
	<polygon style="fill:#FFB929;" points="156.833,70.195 174.322,52.705 156.833,31.341 	"/>
	<polygon style="fill:#FFB929;" points="167.314,82.676 199.186,82.676 184.839,65.15 	"/>
	<polygon style="fill:#FFB929;" points="99.813,82.676 130.685,82.676 113.709,65.699 	"/>
	<polygon style="fill:#FFB929;" points="58.886,132.676 80.834,132.676 80.834,105.456 	"/>
	<polygon style="fill:#FFB929;" points="215.833,103.421 215.833,132.676 240.113,132.676 	"/>
	<polygon style="fill:#FFB929;" points="96.834,132.676 115.497,132.676 140.833,132.676 140.833,98.676 96.834,98.676 	"/>
	<polygon style="fill:#FFB929;" points="199.833,98.676 156.833,98.676 156.833,132.676 182.836,132.676 199.833,132.676 	"/>
	<rect x="140.833" y="213.676" style="fill:#FFC3AA;" width="16" height="34"/>
	<polygon style="fill:#FFB929;" points="171.066,197.676 161.066,181.676 137.933,181.676 127.933,197.676 	"/>
	<path style="fill:#A9BD34;" d="M272.167,263.676h-247c-4.963,0-9,4.037-9,9s4.037,9,9,9h247c4.963,0,9-4.037,9-9
		S277.129,263.676,272.167,263.676z"/>
	<path d="M280.833,249.359v-66.683h9.499c0.008,0,0.016,0,0.02,0c4.419,0,8-3.582,8-8c0-1.895-0.658-3.635-1.758-5.005
		l-23.543-33.587c-1.497-2.137-3.942-3.408-6.551-3.408h-5.711L155.69,4.277c-1.52-1.856-3.792-2.933-6.19-2.933
		c-2.398,0-4.837,1.076-6.357,2.933l-27.309,33.16V8.676c0-4.418-3.249-8-7.667-8h-33c-4.418,0-8.333,3.582-8.333,8v42h-8.667
		c-4.418,0-8.333,3.582-8.333,8v59.393l-11.624,14.607h-6.377c-2.608,0-5.054,1.271-6.551,3.408l-23.832,34
		c-1.713,2.443-1.924,5.637-0.546,8.284c1.377,2.647,4.112,4.308,7.097,4.308h7.833v66.683C6.833,252.98,0,262.063,0,272.676
		c0,13.785,11.381,25,25.167,25h247c13.785,0,24.833-11.215,24.833-25C297,262.063,290.833,252.98,280.833,249.359z
		 M272.167,281.676h-247c-4.963,0-9-4.037-9-9s4.037-9,9-9h247c4.963,0,9,4.037,9,9S277.129,281.676,272.167,281.676z
		 M35.995,148.676h22.839v18H23.377L35.995,148.676z M99.834,16.676v34h-17v-34H99.834z M274.956,166.676h-36.122v-18h23.505
		L274.956,166.676z M137.933,181.676h23.133l10,16h-43.133L137.933,181.676z M140.833,213.676h16v34h-16V213.676z M172.833,213.676
		h12.666c0.006-0.001,0.012-0.001,0.02,0c4.419,0,8-3.582,8-8c0-1.747-0.559-3.364-1.511-4.68l-19.725-31.561
		c-1.462-2.339-4.025-3.76-6.784-3.76h-32c-2.759,0-5.322,1.421-6.784,3.76l-20,32c-1.541,2.467-1.623,5.575-0.213,8.118
		c1.41,2.544,4.089,4.122,6.997,4.122h11.334v34h-50v-99h148v99h-50V213.676z M113.709,65.699l16.977,16.977H99.813L113.709,65.699z
		 M96.834,98.676h44v34h-25.337H96.834V98.676z M182.836,132.676h-26.003v-34h43v34H182.836z M167.314,82.676l17.525-17.526
		l14.347,17.526H167.314z M156.833,70.195V31.341l17.488,21.364L156.833,70.195z M140.833,70.529l-17.272-17.272l17.272-21.102
		V70.529z M80.834,105.456v27.22H58.886L80.834,105.456z M264.833,247.676h-26v-65h26V247.676z M215.833,132.676v-29.255
		l24.279,29.255H215.833z M92.233,66.676L65.834,98.521V66.676H92.233z M58.833,182.676v65h-27v-65H58.833z"/>
</g>
<g>
</g>
<g>
</g>
<g>
</g>
<g>
</g>
<g>
</g>
<g>
</g>
<g>
</g>
<g>
</g>
<g>
</g>
<g>
</g>
<g>
</g>
<g>
</g>
<g>
</g>
<g>
</g>
<g>
</g>
</svg>
