<?xml version="1.0" encoding="iso-8859-1"?>
<!-- Generator: Adobe Illustrator 19.1.0, SVG Export Plug-In . SVG Version: 6.00 Build 0)  -->
<svg version="1.1" id="Capa_1" xmlns="http://www.w3.org/2000/svg" xmlns:xlink="http://www.w3.org/1999/xlink" x="0px" y="0px"
	 viewBox="0 0 297 297" style="enable-background:new 0 0 297 297;" xml:space="preserve">
<g>
	<path style="fill:#9696A0;" d="M139.667,139.5h-90v25H111c4.418,0,7.667,3.582,7.667,8v32c0,4.418-3.249,8-7.667,8H49.667v28h90
		V139.5z"/>
	<path style="fill:#C8F1DE;" d="M155.667,240.5h22v-68c0-4.418,3.915-8,8.333-8h32c4.418,0,7.667,3.582,7.667,8v68h22v-101h-92
		V240.5z"/>
	<rect x="49.667" y="180.5" style="fill:#FFFFFF;" width="53" height="16"/>
	<rect x="193.667" y="180.5" style="fill:#FFFFFF;" width="16" height="60"/>
	<path style="fill:#C8F1DE;" d="M70.667,55.5c0-4.418,3.915-8,8.333-8h32c4.418,0,7.667,3.582,7.667,8v68h21v-101h-90v101h21V55.5z"
		/>
	<path style="fill:#9696A0;" d="M247.667,95.5H186c-4.418,0-8.333-3.582-8.333-8v-32c0-4.418,3.915-8,8.333-8h61.667v-25h-92v101h92
		V95.5z"/>
	<rect x="193.667" y="63.5" style="fill:#FFFFFF;" width="54" height="16"/>
	<rect x="86.667" y="63.5" style="fill:#FFFFFF;" width="16" height="60"/>
	<path style="fill:#A9BD34;" d="M272,256.5H25c-4.963,0-9,4.037-9,9s4.037,9,9,9h247c4.963,0,9-4.037,9-9S276.963,256.5,272,256.5z"
		/>
	<path d="M272,240.5h-8.333v-226c0-4.418-3.249-8-7.667-8H148H42c-4.418,0-8.333,3.582-8.333,8v226H25c-13.785,0-25,11.215-25,25
		c0,13.785,11.215,25,25,25h247c13.785,0,25-11.215,25-25C297,251.715,285.785,240.5,272,240.5z M272,274.5H25c-4.963,0-9-4.037-9-9
		s4.037-9,9-9h247c4.963,0,9,4.037,9,9S276.963,274.5,272,274.5z M49.667,22.5h90v101h-21v-68c0-4.418-3.249-8-7.667-8H79
		c-4.418,0-8.333,3.582-8.333,8v68h-21V22.5z M102.667,123.5h-16v-60h16V123.5z M155.667,22.5h92v25H186
		c-4.418,0-8.333,3.582-8.333,8v32c0,4.418,3.915,8,8.333,8h61.667v28h-92V22.5z M247.667,63.5v16h-54v-16H247.667z M209.667,240.5
		h-16v-60h16V240.5z M247.667,240.5h-22v-68c0-4.418-3.249-8-7.667-8h-32c-4.418,0-8.333,3.582-8.333,8v68h-22v-101h92V240.5z
		 M49.667,196.5v-16h53v16H49.667z M49.667,212.5H111c4.418,0,7.667-3.582,7.667-8v-32c0-4.418-3.249-8-7.667-8H49.667v-25h90v101
		h-90V212.5z"/>
</g>
<g>
</g>
<g>
</g>
<g>
</g>
<g>
</g>
<g>
</g>
<g>
</g>
<g>
</g>
<g>
</g>
<g>
</g>
<g>
</g>
<g>
</g>
<g>
</g>
<g>
</g>
<g>
</g>
<g>
</g>
</svg>
