<?xml version="1.0" encoding="iso-8859-1"?>
<!-- Generator: Adobe Illustrator 19.1.0, SVG Export Plug-In . SVG Version: 6.00 Build 0)  -->
<svg version="1.1" id="Capa_1" xmlns="http://www.w3.org/2000/svg" xmlns:xlink="http://www.w3.org/1999/xlink" x="0px" y="0px"
	 viewBox="0 0 298.334 298.334" style="enable-background:new 0 0 298.334 298.334;" xml:space="preserve">
<g>
	<path style="fill:#FFB929;" d="M31.748,236.792c3.922,0,5.479-0.798,8.057-2.119c3.195-1.638,7.571-3.881,15.355-3.881
		c7.784,0,12.16,2.243,15.355,3.881c2.579,1.321,4.136,2.119,8.06,2.119c3.922,0,5.479-0.798,8.057-2.119
		c3.195-1.638,7.571-3.881,15.355-3.881s12.16,2.243,15.355,3.881c2.579,1.321,4.136,2.119,8.059,2.119
		c3.924,0,5.48-0.798,8.06-2.119c3.195-1.638,7.571-3.881,15.355-3.881c7.785,0,12.161,2.243,15.357,3.88
		c2.579,1.322,4.137,2.12,8.061,2.12c3.924,0,5.481-0.798,8.061-2.12c3.196-1.637,7.572-3.88,15.357-3.88
		c7.785,0,12.161,2.243,15.357,3.88c2.579,1.322,4.137,2.12,8.061,2.12s5.482-0.798,8.061-2.12c3.196-1.637,7.573-3.88,15.358-3.88
		c7.785,0,12.163,2.242,15.358,3.88c2.581,1.322,4.138,2.12,8.064,2.12c4.129,0,5.956-0.827,8.719-2.078
		c2.006-0.909,4.37-1.944,7.37-2.653v-16.853H16v16.957c3,0.718,5.468,1.76,7.359,2.675
		C25.875,236.057,27.727,236.792,31.748,236.792z"/>
	<path d="M290,199.208h-73.623c0.236-18,1.44-33.146,3.29-46.263c1.806-12.806,4.227-23.484,6.964-32.429
		c1.43-4.67,2.941-8.865,4.5-12.621c1.048,0.141,2.115,0.226,3.202,0.226c5.818,0,11.158-2.08,15.317-5.537
		c4.471,5.026,8.016,12.645,7.362,24.075c-0.252,4.411,3.12,8.191,7.531,8.443c0.155,0.009,0.31,0.014,0.463,0.014
		c4.21,0,7.737-3.288,7.98-7.544c1.068-18.698-6.177-31.294-15.036-39.214c0.229-1.282,0.358-2.598,0.375-3.94
		c14.645-2.14,27.348,4.612,28.137,5.042c3.856,2.132,8.714,0.744,10.859-3.11c2.149-3.859,0.763-8.731-3.098-10.881
		c-1.038-0.579-19.765-10.757-41.224-6.402c-0.363-0.45-0.743-0.886-1.138-1.308c3.514-11.484,5.97-26.898,2.66-44.141
		c-0.832-4.34-5.029-7.179-9.364-6.349c-4.339,0.833-7.182,5.025-6.349,9.364c2.456,12.798,0.963,24.521-1.5,33.684
		c-0.215-0.027-0.43-0.056-0.647-0.076c-11.325-17.451-33.078-25.439-46.166-27.364c-4.372-0.638-8.415,2.371-9.066,6.734
		c-0.652,4.362,2.359,8.431,6.72,9.093c0.104,0.016,10.426,1.63,20.555,7.229c4.646,2.568,8.461,5.523,11.439,8.852
		c-5.944,4.373-9.812,11.413-9.812,19.341c0,6.338,2.474,12.064,6.501,16.358c-10.418,24.288-15.936,57.724-16.456,98.724H182v-64
		h8.89c3.162,0,6.027-1.926,7.311-4.816c1.283-2.89,0.744-6.305-1.377-8.65l-92.025-101.84c-1.517-1.679-3.673-2.693-5.935-2.693
		c-0.013,0-0.025,0-0.039,0c-2.275,0-4.438,1.033-5.947,2.736L2.611,121.81c-2.089,2.355-2.601,5.764-1.309,8.635
		c1.292,2.871,4.148,4.764,7.297,4.764H15v64H8.666c-4.418,0-8.666,3.664-8.666,8.082v32v34c0,4.418,4.248,7.918,8.666,7.918H290
		c4.418,0,8-3.5,8-7.918v-34v-32C298,202.873,294.418,199.208,290,199.208z M31,135.114l135-0.018v64.112h-44v-42
		c0-4.418-3.249-8-7.667-8h-32c-4.418,0-8.333,3.582-8.333,8v42H31V135.114z M172.875,119.101l-146.493,0.014l72.539-81.826
		L172.875,119.101z M16,249.216c0,0.009,0.371,0.018,0.39,0.027c3.27,1.581,7.505,3.549,15.192,3.549
		c7.784,0,12.243-2.243,15.438-3.881c2.578-1.321,4.177-2.119,8.099-2.119c3.923,0,5.5,0.798,8.079,2.119
		c3.195,1.638,7.582,3.881,15.367,3.881c7.784,0,12.165-2.243,15.36-3.881c2.578-1.321,4.138-2.119,8.06-2.119
		c3.923,0,5.48,0.798,8.059,2.119c3.195,1.638,7.573,3.881,15.357,3.881c7.785,0,12.161-2.243,15.357-3.881
		c2.579-1.321,4.136-2.119,8.059-2.119c3.924,0,5.481,0.798,8.061,2.12c3.196,1.637,7.572,3.88,15.358,3.88
		c7.785,0,12.161-2.243,15.357-3.88c2.579-1.322,4.137-2.12,8.061-2.12c3.924,0,5.482,0.798,8.061,2.12
		c3.196,1.637,7.572,3.88,15.357,3.88c7.784,0,12.161-2.242,15.357-3.88c2.579-1.322,4.137-2.12,8.062-2.12
		c3.926,0,5.482,0.798,8.063,2.12c3.195,1.638,7.573,3.88,15.358,3.88c7.582,0,11.872-1.941,15.317-3.502
		c0.268-0.121-0.228-0.234,0.772-0.347v16.265H16V249.216z M106,199.208H90v-34h16V199.208z M16,215.208h266v16.853
		c-3,0.709-5.364,1.744-7.37,2.653c-2.764,1.251-4.591,2.078-8.72,2.078c-3.926,0-5.482-0.798-8.063-2.12
		c-3.195-1.638-7.574-3.88-15.359-3.88c-7.785,0-12.161,2.243-15.358,3.88c-2.579,1.322-4.137,2.12-8.061,2.12
		s-5.481-0.798-8.06-2.12c-3.196-1.637-7.573-3.88-15.358-3.88c-7.785,0-12.16,2.243-15.357,3.88
		c-2.579,1.322-4.137,2.12-8.061,2.12c-3.924,0-5.481-0.798-8.06-2.12c-3.196-1.637-7.572-3.88-15.357-3.88
		c-7.784,0-12.16,2.243-15.355,3.881c-2.579,1.321-4.136,2.119-8.059,2.119c-3.923,0-5.479-0.798-8.059-2.119
		c-3.195-1.638-7.571-3.881-15.355-3.881s-12.16,2.243-15.355,3.881c-2.578,1.321-4.135,2.119-8.057,2.119
		c-3.924,0-5.48-0.798-8.06-2.119c-3.195-1.638-7.571-3.881-15.356-3.881c-7.784,0-12.16,2.243-15.355,3.881
		c-2.578,1.321-4.135,2.119-8.057,2.119c-4.021,0-5.873-0.735-8.389-1.952c-1.891-0.915-4.359-1.957-7.359-2.675V215.208z
		 M234.333,76.126c4.411,0,8,3.589,8,8c0,4.411-3.589,8-8,8c-4.411,0-8-3.589-8-8C226.333,79.715,229.922,76.126,234.333,76.126z"/>
	<path style="fill:#FFC3AA;" d="M74,157.208c0-4.418,3.915-8,8.333-8h32c4.418,0,7.667,3.582,7.667,8v42h44v-64.112l-135,0.018
		v64.095h43V157.208z"/>
	<polygon style="fill:#A05200;" points="172.875,119.101 98.921,37.289 26.382,119.115 	"/>
	<rect x="90" y="165.208" style="fill:#FF754A;" width="16" height="34"/>
	<path style="fill:#C8F1DE;" d="M282,248.944c-1,0.112-0.504,0.225-0.772,0.347c-3.445,1.561-7.735,3.502-15.317,3.502
		c-7.785,0-12.162-2.242-15.358-3.88c-2.581-1.322-4.138-2.12-8.064-2.12c-3.925,0-5.482,0.798-8.061,2.12
		c-3.196,1.638-7.574,3.88-15.358,3.88c-7.785,0-12.16-2.243-15.357-3.88c-2.579-1.322-4.137-2.12-8.061-2.12
		s-5.481,0.798-8.06,2.12c-3.196,1.637-7.573,3.88-15.358,3.88c-7.785,0-12.161-2.243-15.357-3.88
		c-2.579-1.322-4.137-2.12-8.06-2.12c-3.923,0-5.479,0.798-8.059,2.119c-3.195,1.638-7.571,3.881-15.356,3.881
		c-7.784,0-12.16-2.243-15.355-3.881c-2.579-1.321-4.136-2.119-8.059-2.119c-3.922,0-5.479,0.798-8.057,2.119
		c-3.195,1.638-7.571,3.881-15.355,3.881c-7.785,0-12.161-2.243-15.357-3.881c-2.579-1.321-4.136-2.119-8.059-2.119
		c-3.922,0-5.478,0.798-8.057,2.119c-3.195,1.638-7.571,3.881-15.355,3.881c-7.687,0-12.088-1.968-15.358-3.549
		c-0.02-0.01-0.39-0.019-0.39-0.027v15.992h266V248.944z"/>
	<path style="fill:#A05200;" d="M226.631,120.538c-2.736,8.944-5.158,19.644-6.964,32.449L226.631,120.538z"/>
	<path style="fill:#A05200;" d="M226.333,84.126c0,4.411,3.589,8,8,8c4.411,0,8-3.589,8-8c0-4.411-3.589-8-8-8
		C229.922,76.126,226.333,79.715,226.333,84.126z"/>
</g>
<g>
</g>
<g>
</g>
<g>
</g>
<g>
</g>
<g>
</g>
<g>
</g>
<g>
</g>
<g>
</g>
<g>
</g>
<g>
</g>
<g>
</g>
<g>
</g>
<g>
</g>
<g>
</g>
<g>
</g>
</svg>
