<?xml version="1.0" encoding="iso-8859-1"?>
<!-- Generator: Adobe Illustrator 19.1.0, SVG Export Plug-In . SVG Version: 6.00 Build 0)  -->
<svg version="1.1" id="Capa_1" xmlns="http://www.w3.org/2000/svg" xmlns:xlink="http://www.w3.org/1999/xlink" x="0px" y="0px"
	 viewBox="0 0 298.034 298.034" style="enable-background:new 0 0 298.034 298.034;" xml:space="preserve">
<g>
	<rect x="143.017" y="232.034" style="fill:none;" width="12" height="16"/>
	<rect x="203.017" y="232.034" style="fill:none;" width="13" height="16"/>
	<path style="fill:none;" d="M59.119,99.251c0.002,0.001,0.005,0.003,0.007,0.004c0.076-0.354,0.283-0.938,0.688-1.703
		C59.4,98.316,59.191,98.899,59.119,99.251z"/>
	<path style="fill:none;" d="M164.59,22.362l71.598,70.862c2.945,2.916,4.067,5.302,4.362,6.301c0.011-0.007,0.029-0.013,0.04-0.02
		c-0.239-0.921-1.34-3.319-4.402-6.351L164.59,22.334C160.46,18.245,154.932,16,149.056,16c-1.498,0-2.972,0.149-4.405,0.435
		c1.434-0.284,2.907-0.431,4.405-0.431C154.932,16.004,160.46,18.274,164.59,22.362z"/>
	<rect x="82.017" y="232.034" style="fill:none;" width="13" height="16"/>
	<path style="fill:#C8F1DE;" d="M256.35,272.034h-32c-4.418,0-8-3.582-8-8h-13c0,4.418-3.582,8-8,8h-32c-4.418,0-8-3.582-8-8h-12
		c0,4.418-3.582,8-8,8h-32c-4.418,0-8-3.582-8-8h-13c0,4.418-3.582,8-8,8h-32c-4.418,0-8-3.582-8-8H16.017v18h266v-18H264.35
		C264.35,268.452,260.768,272.034,256.35,272.034z"/>
	<path d="M290.017,248.034h-26v-16h10c4.418,0,8-3.582,8-8v-34c0-4.418-3.582-8-8-8h-42v-65h1.053c0,0,0.014,0,0.015,0
		c15.421,0,20.597-7.222,22.31-11.387c1.713-4.165,2.949-13.009-8.018-23.864l-71.564-70.821C168.666,3.889,159.159,0,149.04,0
		C138.8,0,129.211,3.989,122.04,11.205L52.078,81.636c-10.861,10.931-9.737,19.627-8,23.803c1.689,4.059,6.94,10.904,20.94,11.284
		v65.311H24.683c-4.418,0-8.666,3.582-8.666,8v34c0,4.418,4.248,8,8.666,8h9.334v16H8.683c-4.418,0-8.666,3.082-8.666,7.5v34
		c0,4.418,4.248,8.5,8.666,8.5h281.334c4.418,0,8-4.082,8-8.5v-34C298.017,251.116,294.435,248.034,290.017,248.034z M59.119,99.281
		c0.002-0.007,0.006-0.019,0.007-0.026c-0.002-0.001-0.005-0.003-0.007-0.004c0.072-0.352,0.281-0.935,0.694-1.699
		c0.623-1.178,1.722-2.784,3.618-4.692l69.967-70.396c3.102-3.12,6.998-5.185,11.253-6.028c1.434-0.286,2.907-0.435,4.405-0.435
		c5.876,0,11.403,2.245,15.534,6.334l71.598,70.821c3.062,3.031,4.163,5.43,4.402,6.351c-0.011,0.007-0.029,0.013-0.04,0.02
		c0.012,0.04,0.031,0.092,0.04,0.127c-0.817,0.485-3.24,1.382-7.24,1.382H66.608C62.133,101.034,59.872,99.773,59.119,99.281z
		 M164.35,132.034h-32c-4.418,0-8.333,3.582-8.333,8v42h-43v-65.268l135,0.238v65.029h-44v-42
		C172.017,135.616,168.768,132.034,164.35,132.034z M156.017,148.034v34h-16v-34H156.017z M32.017,216.034v-18h234v18H32.017z
		 M248.017,232.034v24h-16v-24H248.017z M216.017,232.034v16h-13v-16H216.017z M187.017,232.034v24h-16v-24H187.017z
		 M155.017,232.034v16h-12v-16H155.017z M127.017,232.034v24h-16v-24H127.017z M95.017,232.034v16h-13v-16H95.017z M66.017,232.034
		v24h-16v-24H66.017z M282.017,282.034h-266v-18H34.35c0,4.418,3.582,8,8,8h32c4.418,0,8-3.582,8-8h13c0,4.418,3.582,8,8,8h32
		c4.418,0,8-3.582,8-8h12c0,4.418,3.582,8,8,8h32c4.418,0,8-3.582,8-8h13c0,4.418,3.582,8,8,8h32c4.418,0,8-3.582,8-8h17.667
		V282.034z"/>
	<rect x="50.017" y="232.034" style="fill:#A05200;" width="16" height="24"/>
	<rect x="232.017" y="232.034" style="fill:#A05200;" width="16" height="24"/>
	<rect x="171.017" y="232.034" style="fill:#A05200;" width="16" height="24"/>
	<rect x="111.017" y="232.034" style="fill:#A05200;" width="16" height="24"/>
	<path style="fill:#FF754A;" d="M216.017,182.034v-65.029l-135-0.238v65.268h43v-42c0-4.418,3.915-8,8.333-8h32
		c4.418,0,7.667,3.582,7.667,8v42H216.017z"/>
	<path style="fill:#FFC3AA;" d="M233.35,101.034c4,0,6.423-0.896,7.24-1.382c-0.009-0.035-0.028-0.087-0.04-0.127
		c-0.295-0.999-1.417-3.385-4.362-6.301L164.59,22.362c-4.131-4.088-9.658-6.358-15.534-6.358c-1.498,0-2.972,0.146-4.405,0.431
		c-4.255,0.844-8.151,2.908-11.253,6.028L63.431,92.859c-1.896,1.908-2.995,3.515-3.618,4.692c-0.404,0.765-0.611,1.35-0.688,1.703
		c-0.001,0.008-0.005,0.02-0.007,0.026c0.753,0.492,3.015,1.753,7.489,1.753H233.35z"/>
	<rect x="140.017" y="148.034" style="fill:#FFB929;" width="16" height="34"/>
	<rect x="32.017" y="198.034" style="fill:#FFC3AA;" width="234" height="18"/>
</g>
<g>
</g>
<g>
</g>
<g>
</g>
<g>
</g>
<g>
</g>
<g>
</g>
<g>
</g>
<g>
</g>
<g>
</g>
<g>
</g>
<g>
</g>
<g>
</g>
<g>
</g>
<g>
</g>
<g>
</g>
</svg>
