<?xml version="1.0" encoding="iso-8859-1"?>
<!-- Generator: Adobe Illustrator 19.1.0, SVG Export Plug-In . SVG Version: 6.00 Build 0)  -->
<svg version="1.1" id="Capa_1" xmlns="http://www.w3.org/2000/svg" xmlns:xlink="http://www.w3.org/1999/xlink" x="0px" y="0px"
	 viewBox="0 0 297 297" style="enable-background:new 0 0 297 297;" xml:space="preserve">
<g>
	<rect x="49.667" y="90.5" style="fill:#9696A0;" width="165" height="20"/>
	<rect x="49.667" y="57.5" style="fill:#C8F1DE;" width="165" height="17"/>
	<rect x="156.667" y="126.5" style="fill:#9696A0;" width="17" height="79"/>
	<path style="fill:#C8F1DE;" d="M140.667,205.5v-17H75c-4.418,0-8.333-3.582-8.333-8v-32c0-4.418,3.915-8,8.333-8h65.667v-14h-91v79
		H140.667z"/>
	<rect x="82.667" y="156.5" style="fill:#FFFFFF;" width="58" height="16"/>
	<path style="fill:#A9BD34;" d="M272,221.5H25c-4.963,0-9,4.037-9,9s4.037,9,9,9h247c4.963,0,9-4.037,9-9S276.963,221.5,272,221.5z"
		/>
	<path d="M272,205.5h-24.005L248,186.743c9.479-3.209,16.325-12.184,16.325-22.733c0-13.234-10.766-24.001-23.999-24.001
		c-13.234,0-24.001,10.767-24.001,24.001c0,10.308,6.533,19.115,15.675,22.508c0,0,0.005,19.032-0.014,18.982h-42.319v-79H223
		c4.418,0,7.667-3.582,7.667-8v-69c0-4.418-3.249-8-7.667-8H42c-4.418,0-8.333,3.582-8.333,8v33v36v87H25c-13.785,0-25,11.215-25,25
		s11.215,25,25,25h247c13.785,0,25-11.215,25-25S285.785,205.5,272,205.5z M240.326,156.009c4.411,0,7.999,3.589,7.999,8.001
		c0,4.411-3.588,7.999-7.999,7.999c-4.412,0-8.001-3.588-8.001-7.999C232.325,159.598,235.914,156.009,240.326,156.009z M272,239.5
		H25c-4.963,0-9-4.037-9-9s4.037-9,9-9h247c4.963,0,9,4.037,9,9S276.963,239.5,272,239.5z M49.667,90.5h165v20h-165V90.5z
		 M49.667,57.5h165v17h-165V57.5z M173.667,205.5h-17v-79h17V205.5z M140.667,156.5v16h-58v-16H140.667z M49.667,126.5h91v14H75
		c-4.418,0-8.333,3.582-8.333,8v32c0,4.418,3.915,8,8.333,8h65.667v17h-91V126.5z"/>
	<path style="fill:#A9BD34;" d="M240.326,172.009c4.411,0,7.999-3.588,7.999-7.999c0-4.412-3.588-8.001-7.999-8.001
		c-4.412,0-8.001,3.589-8.001,8.001C232.325,168.421,235.914,172.009,240.326,172.009z"/>
</g>
<g>
</g>
<g>
</g>
<g>
</g>
<g>
</g>
<g>
</g>
<g>
</g>
<g>
</g>
<g>
</g>
<g>
</g>
<g>
</g>
<g>
</g>
<g>
</g>
<g>
</g>
<g>
</g>
<g>
</g>
</svg>
