<?xml version="1.0" encoding="iso-8859-1"?>
<!-- Generator: Adobe Illustrator 19.1.0, SVG Export Plug-In . SVG Version: 6.00 Build 0)  -->
<svg version="1.1" id="Capa_1" xmlns="http://www.w3.org/2000/svg" xmlns:xlink="http://www.w3.org/1999/xlink" x="0px" y="0px"
	 viewBox="0 0 298 298" style="enable-background:new 0 0 298 298;" xml:space="preserve">
<g>
	<path style="fill:#FFB929;" d="M148.413,100.098H165v-25c0-4.418,3.915-8,8.333-8h32.579
		c-3.375-28.231-27.453-50.195-56.579-50.195c-22.87,0-42.626,13.547-51.697,33.031C124.015,52.869,145.068,73.741,148.413,100.098z
		"/>
	<path style="fill:#FFFFFF;" d="M50.254,100.098h81.984c-3.467-19.598-20.522-34.528-40.993-34.528
		C70.775,65.569,53.721,80.5,50.254,100.098z"/>
	<path style="fill:#FFFFFF;" d="M16,116.098v99h17v-48.391c0-18.094,14.987-32.814,33.016-32.814
		c10.021,0,19.157,4.551,25.16,11.695c6.003-7.145,15.041-11.695,25.061-11.695c18.031,0,32.763,14.721,32.763,32.814v48.391h16v-99
		H16z"/>
	<path style="fill:#FFFFFF;" d="M181,83.098v132h18v-42c0-4.418,3.915-8,8.333-8h32c4.418,0,7.667,3.582,7.667,8v42h18v-132H181z
		 M247,140.098c0,4.418-3.582,8-8,8h-32c-4.418,0-8-3.582-8-8v-32c0-4.418,3.582-8,8-8h32c4.418,0,8,3.582,8,8V140.098z"/>
	<path style="fill:#C8F1DE;" d="M83,166.707c0-9.271-7.792-16.814-17.001-16.814c-9.207,0-16.999,7.543-16.999,16.814v48.391h34
		V166.707z"/>
	<path style="fill:#C8F1DE;" d="M99,166.707v48.391h34v-48.391c0-9.271-7.792-16.814-17.001-16.814
		C106.792,149.893,99,157.436,99,166.707z"/>
	<path style="fill:#FFB929;" d="M16,231.098v16.875c3,0.718,5.468,1.76,7.359,2.675c2.516,1.217,4.202,1.952,8.223,1.952
		c3.922,0,5.561-0.798,8.139-2.119c3.195-1.638,7.614-3.881,15.398-3.881c7.784,0,12.18,2.243,15.376,3.881
		c2.579,1.321,4.147,2.119,8.071,2.119c3.922,0,5.483-0.798,8.061-2.119c3.195-1.638,7.575-3.881,15.359-3.881
		s12.161,2.243,15.356,3.881c2.579,1.321,4.137,2.119,8.06,2.119c3.924,0,5.481-0.798,8.06-2.119
		c3.195-1.638,7.571-3.881,15.356-3.881c7.785,0,12.161,2.243,15.357,3.88c2.579,1.322,4.137,2.12,8.061,2.12
		c3.924,0,5.481-0.798,8.061-2.12c3.196-1.637,7.572-3.88,15.357-3.88c7.785,0,12.161,2.243,15.357,3.88
		c2.579,1.322,4.137,2.12,8.061,2.12s5.482-0.798,8.061-2.12c3.196-1.637,7.573-3.88,15.358-3.88c7.785,0,12.163,2.242,15.358,3.88
		c2.581,1.322,4.138,2.12,8.064,2.12c4.129,0,5.956-0.827,8.719-2.078c2.006-0.909,4.37-1.944,7.37-2.653v-16.77H16z"/>
	<path d="M290,215.098h-9v-140c0-4.418-3.249-8-7.667-8h-51.328c-3.444-37.072-34.716-66.195-72.672-66.195
		c-32.125,0-59.45,20.868-69.183,49.754c-24.146,4.746-42.928,24.672-46.071,49.441H8.333c-4.418,0-8.333,3.582-8.333,8v181
		c0,4.418,4.248,8,8.666,8H290c4.418,0,8-3.582,8-8v-66C298,218.68,294.418,215.098,290,215.098z M149.333,16.902
		c29.126,0,53.204,21.964,56.579,50.195h-32.579c-4.418,0-8.333,3.582-8.333,8v25h-16.587
		c-3.345-26.356-24.398-47.229-50.777-50.164C106.707,30.449,126.463,16.902,149.333,16.902z M265,215.098h-18v-42
		c0-4.418-3.249-8-7.667-8h-32c-4.418,0-8.333,3.582-8.333,8v42h-18v-132h84V215.098z M231,215.098h-16v-34h16V215.098z M49,166.707
		c0-9.271,7.792-16.814,16.999-16.814c9.209,0,17.001,7.543,17.001,16.814v48.391H49V166.707z M133,166.707v48.391H99v-48.391
		c0-9.271,7.792-16.814,16.999-16.814C125.208,149.893,133,157.436,133,166.707z M165,116.098v99h-16v-48.391
		c0-18.094-14.651-32.814-32.682-32.814c-10.02,0-18.988,4.551-24.991,11.695c-6.003-7.145-15.295-11.695-25.315-11.695
		C47.982,133.893,33,148.613,33,166.707v48.391H16v-99H165z M282,247.868c-3,0.709-5.364,1.744-7.37,2.653
		c-2.764,1.251-4.591,2.078-8.72,2.078c-3.926,0-5.482-0.798-8.063-2.12c-3.195-1.638-7.574-3.88-15.359-3.88
		c-7.785,0-12.161,2.243-15.358,3.88c-2.579,1.322-4.137,2.12-8.061,2.12s-5.481-0.798-8.06-2.12
		c-3.196-1.637-7.573-3.88-15.358-3.88c-7.785,0-12.16,2.243-15.357,3.88c-2.579,1.322-4.137,2.12-8.061,2.12
		c-3.924,0-5.481-0.798-8.06-2.12c-3.196-1.637-7.572-3.88-15.357-3.88c-7.784,0-12.16,2.243-15.355,3.881
		c-2.579,1.321-4.136,2.119-8.059,2.119c-3.923,0-5.479-0.798-8.059-2.119c-3.195-1.638-7.571-3.881-15.355-3.881
		s-12.16,2.243-15.355,3.881c-2.578,1.321-4.135,2.119-8.057,2.119c-3.924,0-5.48-0.798-8.06-2.119
		c-3.195-1.638-7.571-3.881-15.356-3.881c-7.784,0-12.16,2.243-15.355,3.881c-2.578,1.321-4.135,2.119-8.057,2.119
		c-4.021,0-5.873-0.735-8.389-1.952C21.468,249.732,19,248.69,16,247.973v-16.875h266V247.868z M91.245,65.569
		c20.471,0,37.526,14.931,40.993,34.528H50.254C53.721,80.5,70.775,65.569,91.245,65.569z M16,265.023
		c0,0.009,0.371,0.018,0.39,0.027c3.27,1.581,7.505,3.549,15.192,3.549c7.784,0,12.243-2.243,15.438-3.881
		c2.578-1.321,4.177-2.119,8.099-2.119c3.923,0,5.5,0.798,8.079,2.119c3.195,1.638,7.582,3.881,15.368,3.881
		c7.784,0,12.165-2.243,15.36-3.881c2.578-1.321,4.138-2.119,8.06-2.119c3.923,0,5.48,0.798,8.059,2.119
		c3.195,1.638,7.573,3.881,15.357,3.881c7.785,0,12.161-2.243,15.357-3.881c2.579-1.321,4.136-2.119,8.059-2.119
		c3.924,0,5.481,0.798,8.061,2.12c3.196,1.637,7.572,3.88,15.358,3.88c7.785,0,12.161-2.243,15.357-3.88
		c2.579-1.322,4.137-2.12,8.061-2.12c3.924,0,5.482,0.798,8.061,2.12c3.196,1.637,7.572,3.88,15.357,3.88
		c7.784,0,12.161-2.242,15.357-3.88c2.579-1.322,4.137-2.12,8.062-2.12c3.926,0,5.482,0.798,8.063,2.12
		c3.195,1.638,7.573,3.88,15.358,3.88c7.582,0,11.872-1.941,15.317-3.502c0.268-0.121-0.228-0.234,0.772-0.347v16.347H16V265.023z"
		/>
	<path style="fill:#C8F1DE;" d="M282,281.098v-16.347c-1,0.112-0.504,0.226-0.772,0.347c-3.445,1.56-7.735,3.502-15.317,3.502
		c-7.785,0-12.162-2.242-15.358-3.88c-2.581-1.322-4.138-2.12-8.064-2.12c-3.925,0-5.482,0.798-8.061,2.12
		c-3.196,1.638-7.574,3.88-15.358,3.88c-7.785,0-12.16-2.243-15.357-3.88c-2.579-1.322-4.137-2.12-8.061-2.12
		c-3.924,0-5.481,0.798-8.06,2.12c-3.196,1.637-7.573,3.88-15.358,3.88c-7.785,0-12.161-2.243-15.357-3.88
		c-2.579-1.322-4.137-2.12-8.06-2.12c-3.923,0-5.479,0.798-8.059,2.119c-3.195,1.638-7.571,3.881-15.356,3.881
		c-7.784,0-12.16-2.243-15.355-3.881c-2.579-1.321-4.136-2.119-8.059-2.119c-3.922,0-5.479,0.798-8.057,2.119
		c-3.195,1.638-7.571,3.881-15.355,3.881c-7.785,0-12.161-2.243-15.356-3.881c-2.579-1.321-4.136-2.119-8.059-2.119
		c-3.922,0-5.479,0.798-8.057,2.119c-3.195,1.638-7.571,3.881-15.356,3.881c-7.686,0-12.088-1.968-15.358-3.549
		c-0.02-0.01-0.39-0.018-0.39-0.027v16.074H282z"/>
	<rect x="215" y="116.098" style="fill:#C8F1DE;" width="16" height="16"/>
	<path d="M247,108.098c0-4.418-3.582-8-8-8h-32c-4.418,0-8,3.582-8,8v32c0,4.418,3.582,8,8,8h32c4.418,0,8-3.582,8-8V108.098z
		 M231,132.098h-16v-16h16V132.098z"/>
	<rect x="215" y="181.098" style="fill:#C8F1DE;" width="16" height="34"/>
</g>
<g>
</g>
<g>
</g>
<g>
</g>
<g>
</g>
<g>
</g>
<g>
</g>
<g>
</g>
<g>
</g>
<g>
</g>
<g>
</g>
<g>
</g>
<g>
</g>
<g>
</g>
<g>
</g>
<g>
</g>
</svg>
