<?xml version="1.0" encoding="iso-8859-1"?>
<!-- Generator: Adobe Illustrator 19.1.0, SVG Export Plug-In . SVG Version: 6.00 Build 0)  -->
<svg version="1.1" id="Capa_1" xmlns="http://www.w3.org/2000/svg" xmlns:xlink="http://www.w3.org/1999/xlink" x="0px" y="0px"
	 viewBox="0 0 296.12 296.12" style="enable-background:new 0 0 296.12 296.12;" xml:space="preserve">
<g>
	<path style="fill:#9696A0;" d="M59.286,255.24c2.861,5.146,8.351,8.641,14.646,8.641s11.784-3.494,14.646-8.641H59.286z"/>
	<path style="fill:#9696A0;" d="M190.62,255.24c2.861,5.146,8.351,8.641,14.646,8.641c6.295,0,11.784-3.494,14.645-8.641H190.62z"/>
	<path style="fill:#FFFFFF;" d="M148.787,239.24v-115c0-4.418,3.915-8,8.333-8h89.667v-16h-216v139H148.787z M129.787,188.24
		c0,4.418-3.582,8-8,8h-66c-4.418,0-8-3.582-8-8v-64c0-4.418,3.582-8,8-8h66c4.418,0,8,3.582,8,8V188.24z"/>
	<polygon style="fill:#C8F1DE;" points="259.919,84.24 236.745,32.24 43.96,32.24 20.447,84.24 	"/>
	<rect x="63.787" y="132.24" style="fill:#FFFFFF;" width="50" height="16"/>
	<rect x="63.787" y="164.24" style="fill:#C8F1DE;" width="50" height="16"/>
	<path d="M129.787,124.24c0-4.418-3.582-8-8-8h-66c-4.418,0-8,3.582-8,8v64c0,4.418,3.582,8,8,8h66c4.418,0,8-3.582,8-8V124.24z
		 M63.787,132.24h50v16h-50V132.24z M113.787,180.24h-50v-16h50V180.24z"/>
	<path d="M288.12,215.24h-25.333v-115h9.504c2.715,0,5.244-1.447,6.718-3.727c1.475-2.279,1.691-5.187,0.578-7.662l-30.373-67.697
		c-1.292-2.87-4.147-4.914-7.296-4.914h-203.1c-3.133,0-5.976,2.008-7.277,4.857L0.723,88.687c-1.131,2.477-0.925,5.473,0.548,7.763
		c1.472,2.29,4.007,3.79,6.729,3.79h6.787v147c0,4.418,3.915,8,8.333,8h19.079c3.617,14.148,16.472,24.641,31.732,24.641
		c15.261,0,28.115-10.492,31.732-24.641h67.869c3.617,14.148,16.472,24.641,31.732,24.641c15.261,0,28.115-10.492,31.732-24.641
		h18.122c4.418,0,7.667-3.582,7.667-8v-16h25.333c4.418,0,8-3.582,8-8S292.538,215.24,288.12,215.24z M205.266,263.88
		c-6.295,0-11.784-3.494-14.646-8.641h29.291C217.05,260.386,211.561,263.88,205.266,263.88z M73.932,263.88
		c-6.295,0-11.784-3.494-14.646-8.641h29.291C85.716,260.386,80.227,263.88,73.932,263.88z M30.787,239.24v-139h216v16H157.12
		c-4.418,0-8.333,3.582-8.333,8v115H30.787z M236.745,32.24l23.174,52H20.447l23.513-52H236.745z M214.787,239.24h-16v-34h16V239.24
		z M164.787,189.24v-57h82v57H164.787z M164.787,205.24h18v34h-18V205.24z M230.787,205.24h16v34h-16V205.24z"/>
	<rect x="230.787" y="205.24" style="fill:#C8F1DE;" width="16" height="34"/>
	<rect x="164.787" y="132.24" style="fill:#C8F1DE;" width="82" height="57"/>
	<rect x="198.787" y="205.24" style="fill:#C8F1DE;" width="16" height="34"/>
	<rect x="164.787" y="205.24" style="fill:#C8F1DE;" width="18" height="34"/>
</g>
<g>
</g>
<g>
</g>
<g>
</g>
<g>
</g>
<g>
</g>
<g>
</g>
<g>
</g>
<g>
</g>
<g>
</g>
<g>
</g>
<g>
</g>
<g>
</g>
<g>
</g>
<g>
</g>
<g>
</g>
</svg>
