<?xml version="1.0" encoding="iso-8859-1"?>
<!-- Generator: Adobe Illustrator 19.1.0, SVG Export Plug-In . SVG Version: 6.00 Build 0)  -->
<svg version="1.1" id="Capa_1" xmlns="http://www.w3.org/2000/svg" xmlns:xlink="http://www.w3.org/1999/xlink" x="0px" y="0px"
	 viewBox="0 0 296.989 296.989" style="enable-background:new 0 0 296.989 296.989;" xml:space="preserve">
<g>
	<path style="fill:#FFFFFF;" d="M255.656,111.713h-134v73v42h52.464c3.859-13.79,16.53-23.938,31.536-23.938
		c15.006,0,27.677,10.147,31.536,23.938h18.464V111.713z M229.656,166.713c0,4.418-3.582,8-8,8h-66c-4.418,0-8-3.582-8-8v-32
		c0-4.418,3.582-8,8-8h66c4.418,0,8,3.582,8,8V166.713z"/>
	<polygon style="fill:#C52D2F;" points="262.258,95.713 250.444,44.713 30.516,44.713 18.194,95.713 	"/>
	<rect x="163.656" y="142.713" style="fill:#C8F1DE;" width="50" height="16"/>
	<path d="M229.656,134.713c0-4.418-3.582-8-8-8h-66c-4.418,0-8,3.582-8,8v32c0,4.418,3.582,8,8,8h66c4.418,0,8-3.582,8-8V134.713z
		 M213.656,158.713h-50v-16h50V158.713z"/>
	<rect x="23.656" y="192.713" style="fill:#C8F1DE;" width="18" height="34"/>
	<path style="fill:#C8F1DE;" d="M89.656,192.713v14.061c8,4.192,13.802,11.361,16.202,19.939h-0.202v-34H89.656z"/>
	<rect x="23.656" y="111.713" style="fill:#C8F1DE;" width="82" height="65"/>
	<path style="fill:#C8F1DE;" d="M57.656,207.158c5-2.729,11-4.314,16-4.373v-10.071h-16V207.158z"/>
	<path style="fill:#9696A0;" d="M74.322,218.776c-9.236,0-16.75,7.514-16.75,16.75c0,9.236,7.514,16.75,16.75,16.75
		c9.236,0,16.75-7.514,16.75-16.75C91.072,226.29,83.559,218.776,74.322,218.776z"/>
	<path style="fill:#9696A0;" d="M205.656,218.776c-9.236,0-16.75,7.514-16.75,16.75c0,9.236,7.514,16.75,16.75,16.75
		c9.236,0,16.75-7.514,16.75-16.75C222.406,226.29,214.893,218.776,205.656,218.776z"/>
	<path d="M288.989,201.713h-17.333v-90h0.666c2.439,0,4.745-1.112,6.263-3.022c1.518-1.909,2.081-4.406,1.531-6.783l-15.52-67
		c-0.841-3.626-4.071-6.194-7.794-6.194H24.218c-3.694,0-6.909,2.53-7.776,6.121l-16.186,67c-0.576,2.384-0.193,4.9,1.324,6.827
		c1.508,1.915,4.078,3.036,6.078,3.05v123.002c0,4.418,3.915,8,8.333,8h26.388c3.285,14.611,16.356,25.562,31.945,25.562
		c15.589,0,28.66-10.951,31.945-25.562h7.722h59.722c3.285,14.611,16.356,25.562,31.945,25.562c15.589,0,28.66-10.951,31.945-25.562
		h26.388c4.418,0,7.667-3.582,7.667-8v-17h17.333c4.418,0,8-3.582,8-8S293.407,201.713,288.989,201.713z M222.406,235.526
		c0,9.236-7.514,16.75-16.75,16.75c-9.236,0-16.75-7.514-16.75-16.75c0-9.236,7.514-16.75,16.75-16.75
		C214.893,218.776,222.406,226.29,222.406,235.526z M91.072,235.526c0,9.236-7.514,16.75-16.75,16.75
		c-9.236,0-16.75-7.514-16.75-16.75c0-9.236,7.514-16.75,16.75-16.75C83.559,218.776,91.072,226.29,91.072,235.526z M250.444,44.713
		l11.814,51H18.194l12.321-51H250.444z M205.656,202.776c-15.006,0-27.677,10.147-31.536,23.938h-52.464v-42v-73h134v115h-18.464
		C233.333,212.923,220.662,202.776,205.656,202.776z M105.858,226.713c-2.4-8.578-8.202-15.747-16.202-19.939v-14.061h16v34H105.858
		z M23.656,192.713h18v34h-18V192.713z M105.656,111.713v65h-82v-65H105.656z M73.656,202.785c-5,0.059-11,1.644-16,4.373v-14.444
		h16V202.785z"/>
</g>
<g>
</g>
<g>
</g>
<g>
</g>
<g>
</g>
<g>
</g>
<g>
</g>
<g>
</g>
<g>
</g>
<g>
</g>
<g>
</g>
<g>
</g>
<g>
</g>
<g>
</g>
<g>
</g>
<g>
</g>
</svg>
