<?xml version="1.0" encoding="iso-8859-1"?>
<!-- Generator: Adobe Illustrator 19.1.0, SVG Export Plug-In . SVG Version: 6.00 Build 0)  -->
<svg version="1.1" id="Capa_1" xmlns="http://www.w3.org/2000/svg" xmlns:xlink="http://www.w3.org/1999/xlink" x="0px" y="0px"
	 viewBox="0 0 297.625 297.625" style="enable-background:new 0 0 297.625 297.625;" xml:space="preserve">
<g>
	<path style="fill:#FFFFFF;" d="M264.292,112.75h-232v115h18.764c2.07-8.956,8.236-16.514,15.236-20.993V137.75
		c0-4.418,3.915-8,8.333-8h51c4.418,0,7.667,3.582,7.667,8v90h49.098c3.356-14.518,16.38-25.375,31.902-25.375
		s28.547,10.857,31.902,25.375h18.098V112.75z M230.292,169.75c0,4.418-3.582,8-8,8h-32c-4.418,0-8-3.582-8-8v-32
		c0-4.418,3.582-8,8-8h32c4.418,0,8,3.582,8,8V169.75z"/>
	<polygon style="fill:#9696A0;" points="22.671,96.75 274.763,96.75 242.666,45.75 55.528,45.75 	"/>
	<rect x="198.292" y="145.75" style="fill:#C8F1DE;" width="16" height="16"/>
	<path d="M230.292,137.75c0-4.418-3.582-8-8-8h-32c-4.418,0-8,3.582-8,8v32c0,4.418,3.582,8,8,8h32c4.418,0,8-3.582,8-8V137.75z
		 M214.292,161.75h-16v-16h16V161.75z"/>
	<path style="fill:#C8F1DE;" d="M82.292,145.75v56.634c0-0.001,0.388-0.009,0.499-0.009c15.522,0,28.713,10.857,32.069,25.375h2.432
		v-82H82.292z"/>
	<path style="fill:#FF754A;" d="M99.708,235.125c0-9.236-7.514-16.75-16.75-16.75s-16.75,7.514-16.75,16.75s7.514,16.75,16.75,16.75
		S99.708,244.361,99.708,235.125z"/>
	<path style="fill:#FF754A;" d="M231.042,235.125c0-9.236-7.514-16.75-16.75-16.75s-16.75,7.514-16.75,16.75
		s7.514,16.75,16.75,16.75S231.042,244.361,231.042,235.125z"/>
	<path d="M289.625,202.75h-9.333v-90h8.958c2.913,0,5.595-1.583,7.003-4.133c1.408-2.55,1.319-5.663-0.232-8.128l-42.166-67
		c-1.464-2.327-4.021-3.739-6.77-3.739H51.166c-2.72,0-5.252,1.381-6.726,3.667l-43.166,67c-1.585,2.462-1.7,5.593-0.298,8.163
		c1.401,2.57,4.096,4.17,7.023,4.17h8.292v123c0,4.418,3.915,8,8.333,8h26.744c3.796,13.886,16.516,24.125,31.589,24.125
		c15.073,0,27.793-10.239,31.589-24.125h68.156c3.796,13.886,16.516,24.125,31.589,24.125s27.793-10.239,31.589-24.125h26.744
		c4.418,0,7.667-3.582,7.667-8v-17h9.333c4.418,0,8-3.582,8-8S294.043,202.75,289.625,202.75z M214.292,251.875
		c-9.236,0-16.75-7.514-16.75-16.75s7.514-16.75,16.75-16.75s16.75,7.514,16.75,16.75S223.528,251.875,214.292,251.875z
		 M214.292,202.375c-15.522,0-28.547,10.857-31.902,25.375h-49.098v-90c0-4.418-3.249-8-7.667-8h-51c-4.418,0-8.333,3.582-8.333,8
		v69.007c-7,4.479-13.166,12.037-15.236,20.993H32.292v-115h232v115h-18.098C242.839,213.232,229.815,202.375,214.292,202.375z
		 M114.86,227.75c-3.355-14.518-16.546-25.375-32.069-25.375c-0.111,0-0.499,0.008-0.499,0.009V145.75h35v82H114.86z
		 M82.958,251.875c-9.236,0-16.75-7.514-16.75-16.75s7.514-16.75,16.75-16.75s16.75,7.514,16.75,16.75
		S92.194,251.875,82.958,251.875z M242.666,45.75l32.097,51H22.671l32.857-51H242.666z"/>
</g>
<g>
</g>
<g>
</g>
<g>
</g>
<g>
</g>
<g>
</g>
<g>
</g>
<g>
</g>
<g>
</g>
<g>
</g>
<g>
</g>
<g>
</g>
<g>
</g>
<g>
</g>
<g>
</g>
<g>
</g>
</svg>
