<?xml version="1.0" encoding="iso-8859-1"?>
<!-- Generator: Adobe Illustrator 19.1.0, SVG Export Plug-In . SVG Version: 6.00 Build 0)  -->
<svg version="1.1" id="Capa_1" xmlns="http://www.w3.org/2000/svg" xmlns:xlink="http://www.w3.org/1999/xlink" x="0px" y="0px"
	 viewBox="0 0 296.101 296.101" style="enable-background:new 0 0 296.101 296.101;" xml:space="preserve">
<g>
	<path style="fill:#A05200;" d="M246.768,100.23h-216v139H42.13c3.541-14.259,16.445-24.859,31.783-24.859
		s28.242,10.601,31.783,24.859h67.768c3.541-14.259,16.445-24.859,31.783-24.859s28.242,10.601,31.783,24.859h9.738V100.23z
		 M129.768,156.23v32c0,4.418-3.249,8-7.667,8h-66c-4.418,0-8.333-3.582-8.333-8v-32v-32c0-4.418,3.915-8,8.333-8h66
		c4.418,0,7.667,3.582,7.667,8V156.23z M229.768,156.23v32c0,4.418-3.249,8-7.667,8h-66c-4.418,0-8.333-3.582-8.333-8v-32v-32
		c0-4.418,3.915-8,8.333-8h66c4.418,0,7.667,3.582,7.667,8V156.23z"/>
	<polygon style="fill:#FF754A;" points="257.221,47.23 254.916,32.23 25.501,32.23 23.097,47.23 	"/>
	<polygon style="fill:#FFC3AA;" points="259.68,63.23 20.532,63.23 17.246,84.23 262.83,84.23 	"/>
	<rect x="63.768" y="132.23" style="fill:#FFFFFF;" width="50" height="16"/>
	<path d="M122.101,116.23h-66c-4.418,0-8.333,3.582-8.333,8v32v32c0,4.418,3.915,8,8.333,8h66c4.418,0,7.667-3.582,7.667-8v-32v-32
		C129.768,119.812,126.519,116.23,122.101,116.23z M113.768,180.23h-50v-16h50V180.23z M63.768,132.23h50v16h-50V132.23z"/>
	<rect x="163.768" y="132.23" style="fill:#FFFFFF;" width="50" height="16"/>
	<path d="M222.101,116.23h-66c-4.418,0-8.333,3.582-8.333,8v32v32c0,4.418,3.915,8,8.333,8h66c4.418,0,7.667-3.582,7.667-8v-32v-32
		C229.768,119.812,226.519,116.23,222.101,116.23z M213.768,180.23h-50v-16h50V180.23z M163.768,132.23h50v16h-50V132.23z"/>
	<rect x="63.768" y="164.23" style="fill:#C8F1DE;" width="50" height="16"/>
	<rect x="163.768" y="164.23" style="fill:#C8F1DE;" width="50" height="16"/>
	<path style="fill:#FFC3AA;" d="M90.663,247.121c0-9.236-7.514-16.75-16.75-16.75c-9.236,0-16.75,7.514-16.75,16.75
		c0,9.236,7.514,16.75,16.75,16.75C83.149,263.871,90.663,256.357,90.663,247.121z"/>
	<path style="fill:#FFC3AA;" d="M221.997,247.121c0-9.236-7.514-16.75-16.75-16.75s-16.75,7.514-16.75,16.75
		c0,9.236,7.514,16.75,16.75,16.75S221.997,256.357,221.997,247.121z"/>
	<path d="M288.101,223.23h-25.333v-123h9.385c2.334,0,4.552-1.09,6.071-2.86c1.52-1.771,2.191-4.153,1.836-6.46l-10.373-67.697
		c-0.6-3.903-3.958-6.982-7.907-6.982h-243.1c-3.93,0-7.133,3.033-7.756,6.914L0.107,90.824c-0.37,2.313,0.219,4.743,1.739,6.526
		c1.519,1.782,3.673,2.88,6.016,2.88h6.906v147c0,4.418,3.915,8,8.333,8h19.079c3.617,14.148,16.472,24.641,31.732,24.641
		c15.261,0,28.115-10.492,31.732-24.641h67.869c3.617,14.148,16.472,24.641,31.732,24.641c15.261,0,28.115-10.492,31.732-24.641
		h18.122c4.418,0,7.667-3.582,7.667-8v-8h25.333c4.418,0,8-3.582,8-8S292.519,223.23,288.101,223.23z M205.247,263.871
		c-9.236,0-16.75-7.514-16.75-16.75c0-9.236,7.514-16.75,16.75-16.75s16.75,7.514,16.75,16.75
		C221.997,256.357,214.483,263.871,205.247,263.871z M205.247,214.371c-15.338,0-28.242,10.601-31.783,24.859h-67.768
		c-3.541-14.259-16.445-24.859-31.783-24.859S45.671,224.972,42.13,239.23H30.768v-139h216v139h-9.738
		C233.489,224.972,220.585,214.371,205.247,214.371z M73.913,263.871c-9.236,0-16.75-7.514-16.75-16.75
		c0-9.236,7.514-16.75,16.75-16.75c9.236,0,16.75,7.514,16.75,16.75C90.663,256.357,83.149,263.871,73.913,263.871z M254.916,32.23
		l2.305,15H23.097l2.404-15H254.916z M20.532,63.23H259.68l3.15,21H17.246L20.532,63.23z"/>
</g>
<g>
</g>
<g>
</g>
<g>
</g>
<g>
</g>
<g>
</g>
<g>
</g>
<g>
</g>
<g>
</g>
<g>
</g>
<g>
</g>
<g>
</g>
<g>
</g>
<g>
</g>
<g>
</g>
<g>
</g>
</svg>
