<?xml version="1.0" encoding="iso-8859-1"?>
<!-- Generator: Adobe Illustrator 19.1.0, SVG Export Plug-In . SVG Version: 6.00 Build 0)  -->
<svg version="1.1" id="Capa_1" xmlns="http://www.w3.org/2000/svg" xmlns:xlink="http://www.w3.org/1999/xlink" x="0px" y="0px"
	 viewBox="0 0 297 297" style="enable-background:new 0 0 297 297;" xml:space="preserve">
<g>
	<path style="fill:#FFFFFF;" d="M214,254.5c0-4.418,3.914-8,8.332-8H247v-180H49v180h26.002c4.418,0,7.998,3.582,7.998,8v26h31v-50
		h-6.667c-2.821,0-5.435-1.486-6.876-3.911c-1.442-2.426-1.5-5.431-0.152-7.91l17.94-33c1.4-2.575,4.097-4.179,7.028-4.179h45.541
		c2.894,0,5.561,1.561,6.977,4.085l18.519,33c1.391,2.477,1.362,5.506-0.073,7.957c-1.434,2.451-4.062,3.958-6.903,3.958H181v50h33
		V254.5z M214,89.5c0-4.418,3.582-8,8-8s8,3.582,8,8v17c0,4.418-3.582,8-8,8s-8-3.582-8-8V89.5z M214,138.5c0-4.418,3.582-8,8-8
		s8,3.582,8,8v17c0,4.418-3.582,8-8,8s-8-3.582-8-8V138.5z M82,155.5c0,4.418-3.582,8-8,8s-8-3.582-8-8v-17c0-4.418,3.582-8,8-8
		s8,3.582,8,8V155.5z M82,106.5c0,4.418-3.582,8-8,8s-8-3.582-8-8v-17c0-4.418,3.582-8,8-8s8,3.582,8,8V106.5z M119,155.5
		c0,4.418-3.582,8-8,8s-8-3.582-8-8v-17c0-4.418,3.582-8,8-8s8,3.582,8,8V155.5z M119,106.5c0,4.418-3.582,8-8,8s-8-3.582-8-8v-17
		c0-4.418,3.582-8,8-8s8,3.582,8,8V106.5z M156,155.5c0,4.418-3.582,8-8,8s-8-3.582-8-8v-17c0-4.418,3.582-8,8-8s8,3.582,8,8V155.5z
		 M156,106.5c0,4.418-3.582,8-8,8s-8-3.582-8-8v-17c0-4.418,3.582-8,8-8s8,3.582,8,8V106.5z M193,155.5c0,4.418-3.582,8-8,8
		s-8-3.582-8-8v-17c0-4.418,3.582-8,8-8s8,3.582,8,8V155.5z M193,106.5c0,4.418-3.582,8-8,8s-8-3.582-8-8v-17c0-4.418,3.582-8,8-8
		s8,3.582,8,8V106.5z"/>
	<path d="M74,81.5c-4.418,0-8,3.582-8,8v17c0,4.418,3.582,8,8,8s8-3.582,8-8v-17C82,85.082,78.418,81.5,74,81.5z"/>
	<path d="M111,81.5c-4.418,0-8,3.582-8,8v17c0,4.418,3.582,8,8,8s8-3.582,8-8v-17C119,85.082,115.418,81.5,111,81.5z"/>
	<path d="M185,81.5c-4.418,0-8,3.582-8,8v17c0,4.418,3.582,8,8,8s8-3.582,8-8v-17C193,85.082,189.418,81.5,185,81.5z"/>
	<path d="M222,114.5c4.418,0,8-3.582,8-8v-17c0-4.418-3.582-8-8-8s-8,3.582-8,8v17C214,110.918,217.582,114.5,222,114.5z"/>
	<path d="M148,81.5c-4.418,0-8,3.582-8,8v17c0,4.418,3.582,8,8,8s8-3.582,8-8v-17C156,85.082,152.418,81.5,148,81.5z"/>
	<path d="M74,130.5c-4.418,0-8,3.582-8,8v17c0,4.418,3.582,8,8,8s8-3.582,8-8v-17C82,134.082,78.418,130.5,74,130.5z"/>
	<path d="M111,130.5c-4.418,0-8,3.582-8,8v17c0,4.418,3.582,8,8,8s8-3.582,8-8v-17C119,134.082,115.418,130.5,111,130.5z"/>
	<path d="M185,130.5c-4.418,0-8,3.582-8,8v17c0,4.418,3.582,8,8,8s8-3.582,8-8v-17C193,134.082,189.418,130.5,185,130.5z"/>
	<path d="M222,163.5c4.418,0,8-3.582,8-8v-17c0-4.418-3.582-8-8-8s-8,3.582-8,8v17C214,159.918,217.582,163.5,222,163.5z"/>
	<path d="M148,130.5c-4.418,0-8,3.582-8,8v17c0,4.418,3.582,8,8,8s8-3.582,8-8v-17C156,134.082,152.418,130.5,148,130.5z"/>
	<polygon style="fill:#C52D2F;" points="40.784,50.5 256.173,50.5 230.47,16.5 67.257,16.5 	"/>
	<path style="fill:#A9BD34;" d="M281,280.5v-9c0-4.963-3.705-9-8.668-9H230v18H281z"/>
	<path d="M272.332,246.5H263v-180h9.249c3.035,0,5.81-1.718,7.162-4.436c1.353-2.718,1.05-5.967-0.78-8.389l-37.799-50
		c-1.513-2-3.875-3.176-6.382-3.176H63.347c-2.468,0-4.797,1.139-6.312,3.085l-38.93,50c-1.877,2.412-2.217,5.683-0.875,8.428
		c1.342,2.746,4.131,4.487,7.188,4.487H33v180h-7.998C11.217,246.5,0,257.715,0,271.5v17c0,4.418,3.584,8,8.002,8h281.33
		c4.418,0,7.668-3.582,7.668-8v-17C297,257.715,286.117,246.5,272.332,246.5z M230,280.5v-18h42.332c4.963,0,8.668,4.037,8.668,9v9
		H230z M120.788,214.5l9.242-17h36.1l9.54,17H120.788z M130,230.5h35v50h-35V230.5z M181,230.5h8.333
		c2.841,0,5.469-1.507,6.903-3.958c1.436-2.451,1.464-5.48,0.073-7.957l-18.519-33c-1.416-2.524-4.083-4.085-6.977-4.085h-45.541
		c-2.932,0-5.628,1.604-7.028,4.179l-17.94,33c-1.348,2.48-1.29,5.484,0.152,7.91c1.441,2.425,4.055,3.911,6.876,3.911H114v50H83
		v-26c0-4.418-3.58-8-7.998-8H49v-180h198v180h-24.668c-4.418,0-8.332,3.582-8.332,8v26h-33V230.5z M16,271.5
		c0-4.963,4.039-9,9.002-9H67v18H16V271.5z M230.47,16.5l25.703,34H40.784l26.473-34H230.47z"/>
	<path style="fill:#A9BD34;" d="M67,280.5v-18H25.002c-4.963,0-9.002,4.037-9.002,9v9H67z"/>
	<rect x="130" y="230.5" style="fill:#9696A0;" width="35" height="50"/>
	<polygon style="fill:#C52D2F;" points="175.67,214.5 166.13,197.5 130.03,197.5 120.788,214.5 	"/>
</g>
<g>
</g>
<g>
</g>
<g>
</g>
<g>
</g>
<g>
</g>
<g>
</g>
<g>
</g>
<g>
</g>
<g>
</g>
<g>
</g>
<g>
</g>
<g>
</g>
<g>
</g>
<g>
</g>
<g>
</g>
</svg>
