<?xml version="1.0" encoding="iso-8859-1"?>
<!-- Generator: Adobe Illustrator 19.1.0, SVG Export Plug-In . SVG Version: 6.00 Build 0)  -->
<svg version="1.1" id="Capa_1" xmlns="http://www.w3.org/2000/svg" xmlns:xlink="http://www.w3.org/1999/xlink" x="0px" y="0px"
	 viewBox="0 0 297.158 297.158" style="enable-background:new 0 0 297.158 297.158;" xml:space="preserve">
<g>
	<polygon style="fill:none;" points="172.662,232.079 172.662,258.966 201.868,232.079 	"/>
	<polygon style="fill:none;" points="94.072,232.079 122.662,258.794 122.662,232.079 	"/>
	<path style="fill:#A05200;" d="M142.206,65.514c3.115-3.078,8.046-3.078,11.161,0l3.296,3.338V16.079h-18v52.771L142.206,65.514z"
		/>
	<rect x="138.662" y="232.079" style="fill:#A05200;" width="18" height="49"/>
	<polygon style="fill:#A05200;" points="122.059,85.581 52.559,16.079 27.103,16.079 109.254,98.23 	"/>
	<polygon style="fill:#A05200;" points="244.766,16.079 174.602,86.245 187.258,98.747 270.036,16.079 	"/>
	<path d="M296.989,6.658l-0.044-0.211c-0.773-3.71-4.043-6.368-7.832-6.368h-47.661c-2.122,0-4.323,0.843-5.824,2.343
		l-62.966,62.802V8.079c0-4.418-3.249-8-7.667-8h-34c-4.418,0-8.333,3.582-8.333,8v55.811L61.363,2.422
		c-1.501-1.5-3.369-2.343-5.491-2.343H8.211c-2.122,0-4.156,0.843-5.657,2.343L2.343,2.633c-3.124,3.125-3.124,8.189,0,11.314
		l95.528,95.528l-42.427,41.912c-2.309,2.28-3.011,5.729-1.778,8.73c1.232,3.001,4.156,4.961,7.4,4.961h4.596v59
		c0,0.98,0.351,1.915,0.674,2.783c0.396,1.333,1.053,2.582,2.148,3.594l54.177,50.119v8.504c0,4.418,3.915,8,8.333,8h34
		c4.418,0,7.667-3.582,7.667-8v-8.251l54.286-50.395c0.548-0.511,0.918-1.083,1.29-1.692c0.945-1.314,1.425-2.921,1.425-4.662v-59
		h5.262c0.006-0.001,0.013-0.001,0.02,0c4.419,0,8-3.582,8-8c0-2.397-1.055-4.55-2.726-6.016l-41.577-41.072l96.17-96.041
		C296.721,12.043,297.54,9.301,296.989,6.658z M156.662,216.079h-18v-35h18V216.079z M122.662,216.079h-41v-19h41V216.079z
		 M138.662,232.079h18v49h-18V232.079z M172.662,197.079h41v19h-41V197.079z M213.662,181.079h-41v-8c0-4.418-3.249-8-7.667-8h-34
		c-4.418,0-8.333,3.582-8.333,8v8h-41v-16H98.59c2.127,0,4.167-0.848,5.668-2.354l43.736-43.912l43.737,43.912
		c1.501,1.507,3.541,2.354,5.668,2.354h16.263V181.079z M52.559,16.079l69.5,69.502L109.254,98.23L27.103,16.079H52.559z
		 M156.662,16.079v52.772l-3.212-3.338c-3.115-3.078-8.212-3.078-11.327,0l-3.46,3.336V16.079H156.662z M215.443,149.079h-14.72
		l-47.061-47.249c-1.501-1.507-3.541-2.354-5.668-2.354c-2.127,0-4.167,0.848-5.668,2.354l-47.06,47.249H80.548l67.446-66.629
		L215.443,149.079z M174.602,86.245l70.164-70.166h25.271l-82.778,82.668L174.602,86.245z M94.072,232.079h28.59v26.715
		L94.072,232.079z M172.662,232.079h29.206l-29.206,26.887V232.079z"/>
	<path style="fill:#FF754A;" d="M191.732,162.724l-43.737-43.912l-43.736,43.912c-1.501,1.507-3.541,2.354-5.668,2.354H81.662v16h41
		v-8c0-4.418,3.915-8,8.333-8h34c4.418,0,7.667,3.582,7.667,8v8h41v-16H197.4C195.273,165.079,193.233,164.231,191.732,162.724z"/>
	<rect x="81.662" y="197.079" style="fill:#FFC3AA;" width="41" height="19"/>
	<rect x="172.662" y="197.079" style="fill:#FFC3AA;" width="41" height="19"/>
	<path style="fill:#FFC3AA;" d="M147.994,82.45l-67.446,66.629h14.719l47.06-47.249c1.501-1.507,3.541-2.354,5.668-2.354
		c2.127,0,4.167,0.848,5.668,2.354l47.061,47.249h14.72L147.994,82.45z"/>
	<rect x="138.662" y="181.079" style="fill:#FFFFFF;" width="18" height="35"/>
</g>
<g>
</g>
<g>
</g>
<g>
</g>
<g>
</g>
<g>
</g>
<g>
</g>
<g>
</g>
<g>
</g>
<g>
</g>
<g>
</g>
<g>
</g>
<g>
</g>
<g>
</g>
<g>
</g>
<g>
</g>
</svg>
