<?xml version="1.0" encoding="iso-8859-1"?>
<!-- Generator: Adobe Illustrator 19.1.0, SVG Export Plug-In . SVG Version: 6.00 Build 0)  -->
<svg version="1.1" id="Capa_1" xmlns="http://www.w3.org/2000/svg" xmlns:xlink="http://www.w3.org/1999/xlink" x="0px" y="0px"
	 viewBox="0 0 296 296" style="enable-background:new 0 0 296 296;" xml:space="preserve">
<g>
	<polygon style="fill:none;" points="94.422,201 122.751,227.979 122.751,201 	"/>
	<polygon style="fill:none;" points="172.751,201 172.751,228.152 201.698,201 	"/>
	<path style="fill:#A05200;" d="M142.396,34.336c3.092-2.947,7.866-2.947,10.958,0l3.397,3.318V16h-18v21.652L142.396,34.336z"/>
	<rect x="138.751" y="201" style="fill:#A05200;" width="18" height="79"/>
	<path style="fill:#FFC3AA;" d="M191.999,128.819l-43.916-41.425l-43.915,41.425c-1.484,1.4-3.448,2.181-5.489,2.181H81.751v54h32
		v-28.031c0-18.472,15.028-33.5,33.5-33.5s33.5,15.028,33.5,33.5V185h33v-54h-16.263C195.447,131,193.483,130.22,191.999,128.819z"
		/>
	<path style="fill:#FF754A;" d="M148.083,51.179L81.14,115h14.36l47.093-44.423c3.082-2.908,7.896-2.908,10.979,0L200.666,115
		h14.361L148.083,51.179z"/>
	<path d="M240.035,116.894l-67.284-63.985V8c0-4.418-3.249-8-7.667-8h-34c-4.418,0-8.333,3.582-8.333,8v44.906L55.468,117.21
		c-2.367,2.257-3.039,5.727-1.823,8.763c1.215,3.037,4.24,5.027,7.51,5.027h4.596v62c0,2.779,1.419,5.226,3.57,6.66l53.43,50.291
		V288c0,4.418,3.915,8,8.333,8h34c4.418,0,7.667-3.582,7.667-8v-37.791l52.987-50.281c2.396-1.381,4.013-3.963,4.013-6.928v-62
		h5.262c0.007,0,0.012,0,0.02,0c4.419,0,7.917-3.582,7.917-8C242.949,120.552,241.767,118.36,240.035,116.894z M138.751,201h18v79
		h-18V201z M129.751,185v-28.031c0-9.649,7.851-17.5,17.5-17.5s17.5,7.851,17.5,17.5V185H129.751z M213.751,185h-33v-28.031
		c0-18.472-15.028-33.5-33.5-33.5s-33.5,15.028-33.5,33.5V185h-32v-54h16.928c2.041,0,4.005-0.78,5.489-2.181l43.915-41.425
		l43.916,41.425c1.484,1.4,3.448,2.181,5.489,2.181h16.263V185z M156.751,16v21.654l-3.314-3.318c-3.092-2.947-8.032-2.947-11.124,0
		l-3.562,3.316V16H156.751z M215.027,115h-14.361l-47.094-44.423c-3.082-2.908-7.896-2.908-10.979,0L95.501,115H81.14l66.942-63.821
		L215.027,115z M94.422,201h28.329v26.979L94.422,201z M172.751,201h28.947l-28.947,27.152V201z"/>
	<path style="fill:#FFFFFF;" d="M164.751,156.969c0-9.649-7.851-17.5-17.5-17.5s-17.5,7.851-17.5,17.5V185h35V156.969z"/>
</g>
<g>
</g>
<g>
</g>
<g>
</g>
<g>
</g>
<g>
</g>
<g>
</g>
<g>
</g>
<g>
</g>
<g>
</g>
<g>
</g>
<g>
</g>
<g>
</g>
<g>
</g>
<g>
</g>
<g>
</g>
</svg>
