<?xml version="1.0" encoding="iso-8859-1"?>
<!-- Generator: Adobe Illustrator 19.0.0, SVG Export Plug-In . SVG Version: 6.00 Build 0)  -->
<svg version="1.1" id="Capa_1" xmlns="http://www.w3.org/2000/svg" xmlns:xlink="http://www.w3.org/1999/xlink" x="0px" y="0px"
	 viewBox="0 0 512 512" style="enable-background:new 0 0 512 512;" xml:space="preserve">
<path style="fill:#993E29;" d="M498.598,120.405L391.596,13.403c-17.87-17.87-46.843-17.87-64.713,0L144.614,195.671L316.33,367.387
	l182.268-182.268C516.468,167.248,516.468,138.275,498.598,120.405z"/>
<g>
	<path style="fill:#A8503C;" d="M335.009,154.524l76.387-76.387L369.129,35.87c-5.454-5.454-14.327-5.454-19.779,0l-66.498,66.498
		L335.009,154.524z"/>
	<path style="fill:#A8503C;" d="M357.476,176.992l52.157,52.157l66.498-66.498c5.454-5.454,5.454-14.326,0-19.778l-42.268-42.268
		L357.476,176.992z"/>
	
		<rect x="214.165" y="136.238" transform="matrix(-0.7071 -0.7071 0.7071 -0.7071 296.8089 495.593)" style="fill:#A8503C;" width="73.76" height="100.174"/>
	
		<rect x="275.568" y="224.083" transform="matrix(-0.7071 0.7071 -0.7071 -0.7071 740.4561 215.2184)" style="fill:#A8503C;" width="100.174" height="73.76"/>
</g>
<path style="fill:#55C2E3;" d="M127.733,212.551L13.403,326.882c-17.871,17.871-17.871,46.843,0,64.713l107.002,107.003
	c17.87,17.87,46.843,17.87,64.713,0l114.331-114.331L127.733,212.551z"/>
<path style="fill:#45B6D9;" d="M270.312,355.128L155.981,469.46c-17.871,17.871-46.843,17.871-64.713,0l29.138,29.138
	c17.87,17.87,46.843,17.87,64.713,0l114.331-114.331L270.312,355.128z"/>
<path style="fill:#EEECED;" d="M337.97,328.762l-154.731-154.73c-8.801-8.801-23.07-8.801-31.871,0l-39.967,39.967
	c-12.072,12.072-6.859,32.66,9.502,37.534c7.291,2.172,12.994,7.875,15.165,15.165l7.314,24.556
	c2.172,7.291,7.875,12.994,15.165,15.165l24.556,7.314c7.291,2.172,12.994,7.875,15.165,15.165l7.314,24.556
	c2.172,7.291,7.875,12.994,15.165,15.165l24.556,7.314c7.291,2.172,12.994,7.875,15.165,15.165
	c4.874,16.361,25.462,21.574,37.534,9.502l39.967-39.967C346.77,351.832,346.77,337.563,337.97,328.762z"/>
<path style="fill:#D4D2D3;" d="M337.969,328.762l-29.138-29.138c8.801,8.801,8.801,23.07,0,31.871l-39.967,39.967
	c-5.376,5.377-12.44,7.316-19.054,6.378c5.092,2.829,8.959,7.553,10.659,13.257c4.874,16.361,25.462,21.574,37.534,9.502
	l39.967-39.967C346.77,351.832,346.77,337.563,337.969,328.762z"/>
<g>
	<path style="fill:#3B484A;" d="M98.319,339.29c-3.017-3.017-3.017-7.91,0-10.927l6.732-6.732c3.017-3.017,7.909-3.017,10.927,0
		c3.017,3.017,3.017,7.91,0,10.927l-6.732,6.732C106.228,342.308,101.337,342.309,98.319,339.29z"/>
	<path style="fill:#3B484A;" d="M172.71,413.682c-3.017-3.017-3.017-7.91,0-10.927l6.732-6.732c3.017-3.017,7.909-3.017,10.927,0
		c3.017,3.017,3.017,7.91,0,10.927l-6.732,6.732C180.619,416.699,175.728,416.699,172.71,413.682z"/>
	<path style="fill:#3B484A;" d="M130.54,381.461c-5.973-5.973-9.083-14.084-8.535-22.251c0.286-4.259,3.969-7.478,8.227-7.192
		c4.258,0.286,7.477,3.97,7.191,8.226c-0.249,3.719,1.224,7.469,4.043,10.289c2.82,2.82,6.568,4.293,10.288,4.043
		c4.257-0.287,7.942,2.934,8.226,7.191c0.286,4.258-2.933,7.941-7.192,8.227C144.622,390.544,136.513,387.434,130.54,381.461z"/>
</g>
<g>
</g>
<g>
</g>
<g>
</g>
<g>
</g>
<g>
</g>
<g>
</g>
<g>
</g>
<g>
</g>
<g>
</g>
<g>
</g>
<g>
</g>
<g>
</g>
<g>
</g>
<g>
</g>
<g>
</g>
</svg>
