<?xml version="1.0" encoding="iso-8859-1"?>
<!-- Generator: Adobe Illustrator 19.0.0, SVG Export Plug-In . SVG Version: 6.00 Build 0)  -->
<svg version="1.1" id="Capa_1" xmlns="http://www.w3.org/2000/svg" xmlns:xlink="http://www.w3.org/1999/xlink" x="0px" y="0px"
	 viewBox="0 0 512 512" style="enable-background:new 0 0 512 512;" xml:space="preserve">
<g>
	<path style="fill:#EB98A3;" d="M372.458,0h-232.92c-16.818,0-30.452,13.633-30.452,30.452v49.925l146.912,50.044L402.91,80.376
		V30.452C402.91,13.633,389.277,0,372.458,0z"/>
	<polygon style="fill:#EB98A3;" points="331.634,236.577 199.696,191.082 37.81,236.577 37.81,438.275 184.722,465.572 
		331.634,438.275 374.096,337.426 	"/>
</g>
<path style="fill:#EEECED;" d="M109.086,80.376l-61.592,86.492c-6.299,8.845-9.684,19.434-9.684,30.292v39.417h293.824v201.697
	H37.81v41.016c0,18.065,14.645,32.71,32.71,32.71h261.114l71.276-67.659V80.376H109.086z"/>
<g>
	<path style="fill:#3B484A;" d="M119.257,338.746c-4.268,0-7.726-3.459-7.726-7.726v-11.754c0-4.267,3.458-7.726,7.726-7.726
		c4.268,0,7.726,3.459,7.726,7.726v11.754C126.983,335.287,123.525,338.746,119.257,338.746z"/>
	<path style="fill:#3B484A;" d="M249.145,338.746c-4.268,0-7.726-3.459-7.726-7.726v-11.754c0-4.267,3.458-7.726,7.726-7.726
		c4.268,0,7.726,3.459,7.726,7.726v11.754C256.872,335.287,253.413,338.746,249.145,338.746z"/>
	<path style="fill:#3B484A;" d="M184.202,347.433c-9.905,0-19.205-4.139-25.512-11.355c-2.809-3.213-2.481-8.093,0.731-10.902
		c3.214-2.809,8.094-2.481,10.902,0.731c3.373,3.859,8.432,6.072,13.879,6.072c5.446,0,10.504-2.213,13.878-6.072
		c2.808-3.213,7.688-3.541,10.902-0.731c3.212,2.808,3.541,7.689,0.731,10.902C203.405,343.293,194.107,347.433,184.202,347.433z"/>
</g>
<path style="fill:#D4D2D3;" d="M474.186,236.578v-39.417c0-10.859-3.385-21.447-9.684-30.294L402.91,80.376l-61.592,86.492
	c-6.299,8.845-9.684,19.434-9.684,30.294V512h109.843c18.065,0,32.71-14.645,32.71-32.71v-41.016l-71.276-100.849L474.186,236.578z"
	/>
<rect x="331.634" y="236.581" style="fill:#FA7578;" width="142.556" height="201.699"/>
<g>
</g>
<g>
</g>
<g>
</g>
<g>
</g>
<g>
</g>
<g>
</g>
<g>
</g>
<g>
</g>
<g>
</g>
<g>
</g>
<g>
</g>
<g>
</g>
<g>
</g>
<g>
</g>
<g>
</g>
</svg>
