<?xml version="1.0" encoding="iso-8859-1"?>
<!-- Generator: Adobe Illustrator 19.0.0, SVG Export Plug-In . SVG Version: 6.00 Build 0)  -->
<svg version="1.1" id="Capa_1" xmlns="http://www.w3.org/2000/svg" xmlns:xlink="http://www.w3.org/1999/xlink" x="0px" y="0px"
	 viewBox="0 0 512.002 512.002" style="enable-background:new 0 0 512.002 512.002;" xml:space="preserve">
<g>
	<path style="fill:#F9545B;" d="M250.29,19.29C228.301,6.437,203.612,0,178.922,0c0,0,0,0,0.01,0.01
		c0.142,0.064,1.446,0.663,3.596,1.782l-2.767-0.771l30.199,35.956l10.745,42.306l29.171,14.183l0,0l2.247,4.503l45.057-4.503
		C297.18,57.074,275.261,33.886,250.29,19.29z"/>
	<path style="fill:#F9545B;" d="M178.922,0c-24.689,0-49.378,6.437-71.368,19.29c-24.971,14.596-46.89,37.784-46.89,74.177
		l45.057,4.503l2.246-4.503l29.172-14.183l10.745-42.306l30.199-35.956l-2.768,0.772c2.15-1.119,3.455-1.718,3.597-1.782
		C178.922,0,178.922,0,178.922,0z"/>
	<path style="fill:#F9545B;" d="M209.665,35.635l-30.529-35.39c-0.106-0.126-0.176-0.206-0.203-0.235h-0.021
		c-0.061,0.068-0.355,0.404-0.829,1.012l-30.199,35.956l-10.745,42.306l18.131,14.183l23.661,11.826l23.642-11.826l19.179-17.541
		L209.665,35.635z"/>
</g>
<rect x="163.811" y="93.582" style="fill:#3B484A;" width="30.219" height="182.095"/>
<polygon style="fill:#E64047;" points="371.077,212.006 350.093,199.299 329.109,212.006 320.563,259.906 350.093,275.687 
	379.623,259.906 "/>
<polygon style="fill:#E6BA00;" points="449.346,212.006 428.362,199.299 407.377,212.006 398.831,259.906 428.362,275.687 
	457.891,259.906 "/>
<path style="fill:#F9545B;" d="M368.051,195.032c-0.871-4.884-5.118-8.44-10.078-8.44h-15.76c-4.96,0-9.208,3.556-10.078,8.44
	l-3.027,16.974h41.968L368.051,195.032z"/>
<path style="fill:#E6CD2E;" d="M446.319,195.032c-0.87-4.884-5.118-8.44-10.078-8.44h-15.76c-4.96,0-9.208,3.556-10.078,8.44
	l-3.027,16.974h41.968L446.319,195.032z"/>
<path style="fill:#EEECED;" d="M34.314,303.499v130.603c0,16.32,13.231,29.551,29.551,29.551h384.274
	c16.32,0,29.551-13.23,29.551-29.551V303.499l-221.688-21.153L34.314,303.499z"/>
<path style="fill:#D4D2D3;" d="M75.521,434.102V303.499l201.084-19.187l-20.604-1.966L34.314,303.499v130.603
	c0,16.32,13.231,29.551,29.551,29.551h41.207C88.752,463.652,75.521,450.422,75.521,434.102z"/>
<path style="fill:#BAB8B9;" d="M477.689,261.194H34.314c-11.682,0-21.153,9.47-21.153,21.153s9.47,21.153,21.153,21.153h443.375
	c11.682,0,21.153-9.47,21.153-21.153C498.841,270.664,489.372,261.194,477.689,261.194z"/>
<circle style="fill:#3B484A;" cx="120.893" cy="463.654" r="48.348"/>
<circle style="fill:#D4D2D3;" cx="120.893" cy="463.654" r="20.717"/>
<circle style="fill:#3B484A;" cx="391.11" cy="463.654" r="48.348"/>
<circle style="fill:#D4D2D3;" cx="391.11" cy="463.654" r="20.717"/>
<g>
	<path style="fill:#E64047;" d="M60.664,93.469c0,13.063,10.589,23.652,23.652,23.652s23.652-10.589,23.652-23.652H60.664z"/>
	<path style="fill:#E64047;" d="M155.271,93.469c0,13.063,10.589,23.652,23.652,23.652s23.652-10.589,23.652-23.652H155.271z"/>
	<path style="fill:#E64047;" d="M249.878,93.469c0,13.063,10.589,23.652,23.652,23.652c13.063,0,23.652-10.589,23.652-23.652
		H249.878z"/>
</g>
<g>
	<path style="fill:#EEECED;" d="M249.877,93.467c0-60.882-69.846-92.964-70.944-93.457c0.605,0.675,23.642,26.925,23.642,93.458l0,0
		l23.652,11.826L249.877,93.467L249.877,93.467z"/>
	<path style="fill:#EEECED;" d="M107.968,93.467l23.651,11.826l23.652-11.826c0-66.532,23.037-92.783,23.642-93.458
		C177.815,0.504,107.968,32.587,107.968,93.467z"/>
</g>
<path style="fill:#E6BA00;" d="M314.294,337.269H197.709c-12.29,0-22.254,9.964-22.254,22.254l0,0
	c0,12.29,9.963,22.254,22.254,22.254h116.587c12.29,0,22.254-9.963,22.254-22.254l0,0
	C336.548,347.233,326.585,337.269,314.294,337.269z"/>
<path style="fill:#F9545B;" d="M335.359,388.635H176.644c-7.386,0-13.375-5.988-13.375-13.375s5.988-13.375,13.375-13.375h158.717
	c7.386,0,13.375,5.988,13.375,13.375C348.734,382.646,342.747,388.635,335.359,388.635z"/>
<path style="fill:#E6BA00;" d="M314.294,380.648H197.709c-12.29,0-22.254,9.964-22.254,22.254l0,0
	c0,12.29,9.963,22.254,22.254,22.254h116.587c12.29,0,22.254-9.963,22.254-22.254l0,0
	C336.548,390.611,326.585,380.648,314.294,380.648z"/>
<g>
	<path style="fill:#D4D2D3;" d="M107.968,93.469c0,13.063,10.589,23.652,23.652,23.652s23.652-10.589,23.652-23.652H107.968z"/>
	<path style="fill:#D4D2D3;" d="M202.574,93.469c0,13.063,10.589,23.652,23.652,23.652c13.063,0,23.652-10.589,23.652-23.652
		H202.574z"/>
</g>
<g>
</g>
<g>
</g>
<g>
</g>
<g>
</g>
<g>
</g>
<g>
</g>
<g>
</g>
<g>
</g>
<g>
</g>
<g>
</g>
<g>
</g>
<g>
</g>
<g>
</g>
<g>
</g>
<g>
</g>
</svg>
