<?xml version="1.0" encoding="iso-8859-1"?>
<!-- Generator: Adobe Illustrator 19.0.0, SVG Export Plug-In . SVG Version: 6.00 Build 0)  -->
<svg version="1.1" id="Capa_1" xmlns="http://www.w3.org/2000/svg" xmlns:xlink="http://www.w3.org/1999/xlink" x="0px" y="0px"
	 viewBox="0 0 512 512" style="enable-background:new 0 0 512 512;" xml:space="preserve">
<path style="fill:#FDC464;" d="M225.716,358.611v123.105c0,16.726,13.559,30.284,30.284,30.284s30.284-13.559,30.284-30.284V358.611
	H225.716z"/>
<path style="fill:#E6B25B;" d="M250.441,481.716V358.611h-24.724v123.105c0,16.726,13.559,30.284,30.284,30.284
	c4.405,0,8.587-0.949,12.362-2.639C257.802,504.631,250.441,494.037,250.441,481.716z"/>
<path style="fill:#9577E1;" d="M256.001,0L256.001,0c-69.01,0-124.953,55.943-124.953,124.953v219.452
	c0,29.14,23.622,52.762,52.762,52.762H328.19c29.14,0,52.762-23.622,52.762-52.762V124.953C380.953,55.943,325.01,0,256.001,0z"/>
<g>
	<path style="fill:#8162D1;" d="M154.742,344.405V124.953c0-65.013,49.654-118.421,113.106-124.39
		C263.947,0.196,259.997,0,256.001,0l0,0c-69.009,0-124.953,55.943-124.953,124.953v219.452c0,29.14,23.622,52.762,52.762,52.762
		h23.694C178.365,397.167,154.742,373.545,154.742,344.405z"/>
	<path style="fill:#8162D1;" d="M202.049,102.949L202.049,102.949c-13.071,0-23.667,10.596-23.667,23.667v194.122
		c0,13.071,10.596,23.667,23.666,23.667l0,0c13.071,0,23.667-10.596,23.667-23.667V126.616
		C225.716,113.546,215.12,102.949,202.049,102.949z"/>
	<path style="fill:#8162D1;" d="M309.952,102.949L309.952,102.949c13.071,0,23.667,10.596,23.667,23.667v194.122
		c0,13.071-10.596,23.667-23.666,23.667l0,0c-13.071,0-23.667-10.596-23.667-23.667V126.616
		C286.285,113.546,296.881,102.949,309.952,102.949z"/>
</g>
<g>
	<path style="fill:#3B484A;" d="M212.845,66.651c-4.267,0-7.726-3.459-7.726-7.726v-7.811c0-4.267,3.459-7.726,7.726-7.726
		c4.267,0,7.726,3.459,7.726,7.726v7.811C220.572,63.191,217.112,66.651,212.845,66.651z"/>
	<path style="fill:#3B484A;" d="M299.156,66.651c-4.267,0-7.726-3.459-7.726-7.726v-7.811c0-4.267,3.459-7.726,7.726-7.726
		s7.726,3.459,7.726,7.726v7.811C306.882,63.191,303.423,66.651,299.156,66.651z"/>
	<path style="fill:#3B484A;" d="M256.001,72.423c-7.33,0-14.221-3.073-18.905-8.432c-2.808-3.213-2.481-8.094,0.732-10.902
		c3.213-2.808,8.093-2.481,10.902,0.732c1.749,2.001,4.399,3.149,7.27,3.149s5.521-1.148,7.27-3.149
		c2.809-3.213,7.689-3.541,10.902-0.732c3.213,2.808,3.541,7.689,0.732,10.902C270.221,69.349,263.33,72.423,256.001,72.423z"/>
</g>
<g>
</g>
<g>
</g>
<g>
</g>
<g>
</g>
<g>
</g>
<g>
</g>
<g>
</g>
<g>
</g>
<g>
</g>
<g>
</g>
<g>
</g>
<g>
</g>
<g>
</g>
<g>
</g>
<g>
</g>
</svg>
