<?xml version="1.0" encoding="iso-8859-1"?>
<!-- Generator: Adobe Illustrator 19.0.0, SVG Export Plug-In . SVG Version: 6.00 Build 0)  -->
<svg version="1.1" id="Capa_1" xmlns="http://www.w3.org/2000/svg" xmlns:xlink="http://www.w3.org/1999/xlink" x="0px" y="0px"
	 viewBox="0 0 511.998 511.998" style="enable-background:new 0 0 511.998 511.998;" xml:space="preserve">
<path style="fill:#EB98A3;" d="M461.921,237.243l-50.347,20.731h-34.059l-38.501-20.731h-26.655L256,262.416l-50.258-25.174h-26.655
	l-54.789,25.174l-57.751-25.174H42.854l-15.951,27.673l19.99,45.614c11.792,32.733,42.848,54.554,77.641,54.554h262.933
	c34.792,0,65.848-21.821,77.641-54.554l19.99-45.614v-20.269L461.921,237.243z"/>
<g>
	<path style="fill:#3B484A;" d="M187.879,323.083c-4.267,0-7.726-3.459-7.726-7.726v-12.328c0-4.267,3.459-7.726,7.726-7.726
		s7.726,3.459,7.726,7.726v12.328C195.605,319.624,192.146,323.083,187.879,323.083z"/>
	<path style="fill:#3B484A;" d="M324.119,323.083c-4.267,0-7.726-3.459-7.726-7.726v-12.328c0-4.267,3.459-7.726,7.726-7.726
		c4.267,0,7.726,3.459,7.726,7.726v12.328C331.846,319.624,328.386,323.083,324.119,323.083z"/>
	<path style="fill:#3B484A;" d="M256,332.194c-10.28,0-19.93-4.294-26.475-11.781c-2.808-3.213-2.481-8.093,0.732-10.902
		c3.213-2.809,8.094-2.481,10.902,0.731c3.61,4.13,9.019,6.498,14.841,6.498c5.822,0,11.231-2.368,14.84-6.498
		c2.809-3.213,7.689-3.541,10.902-0.732c3.213,2.808,3.541,7.689,0.732,10.902C275.931,327.901,266.281,332.194,256,332.194z"/>
</g>
<path style="fill:#E6B25B;" d="M469.145,237.243C438.048,195.78,372.893,146.914,256,146.914S73.95,195.78,42.854,237.243
	l81.444,25.174l63.582-25.174l68.121,25.174l68.12-25.174l87.453,25.174L469.145,237.243z"/>
<path style="fill:#CC9E51;" d="M84.061,237.243c29.22-38.959,88.514-84.452,192.542-89.803c-6.684-0.344-13.547-0.525-20.604-0.525
	c-116.894,0-182.049,48.867-213.145,90.328l81.444,25.174l18.066-7.153L84.061,237.243z"/>
<g>
	<path style="fill:#FDC464;" d="M256,203.745c-4.267,0-7.726-3.459-7.726-7.726v-19.745c0-4.267,3.459-7.726,7.726-7.726
		c4.267,0,7.726,3.459,7.726,7.726v19.745C263.726,200.286,260.267,203.745,256,203.745z"/>
	<path style="fill:#FDC464;" d="M191.506,203.746c-0.586,0-1.181-0.067-1.776-0.207c-4.154-0.978-6.729-5.136-5.752-9.29
		c3.063-13.018,11.996-22.806,12.375-23.217c2.895-3.135,7.783-3.331,10.918-0.436c3.13,2.889,3.33,7.764,0.452,10.9
		c-0.132,0.146-6.603,7.365-8.703,16.29C198.183,201.347,195.01,203.746,191.506,203.746z"/>
	<path style="fill:#FDC464;" d="M320.493,203.746c-3.504,0-6.677-2.399-7.514-5.959c-2.108-8.961-8.622-16.204-8.686-16.274
		c-2.895-3.136-2.699-8.024,0.436-10.918c3.137-2.894,8.024-2.699,10.918,0.436c0.379,0.41,9.312,10.199,12.375,23.216
		c0.978,4.154-1.598,8.314-5.752,9.291C321.675,203.679,321.079,203.746,320.493,203.746z"/>
</g>
<path style="fill:#FA7578;" d="M411.572,257.974h-34.059l-38.501-20.731h-26.654L256,262.416l-50.258-25.174h-26.655l-54.789,25.174
	l-57.751-25.174H42.854l-15.951,27.673l10.403,23.737c1.349-0.711,2.665-1.492,3.944-2.35c3.038-2.038,6.542-3.114,10.132-3.114
	c3.59,0,7.095,1.078,10.131,3.114c17.292,11.6,37.373,17.73,58.074,17.73s40.783-6.131,58.075-17.729
	c3.038-2.038,6.542-3.114,10.132-3.114s7.094,1.077,10.131,3.114c17.293,11.599,37.374,17.729,58.075,17.729
	c20.7,0,40.782-6.131,58.076-17.73c3.036-2.038,6.539-3.113,10.129-3.113c3.59,0,7.094,1.077,10.132,3.114
	c17.294,11.601,37.376,17.732,58.076,17.729c20.704-0.001,40.785-6.133,58.071-17.728c3.039-2.039,6.544-3.115,10.134-3.115
	c3.59,0,7.094,1.077,10.13,3.113c1.278,0.858,2.597,1.64,3.946,2.352l10.403-23.738v-20.27l-23.177-7.404L411.572,257.974z"/>
<path style="fill:#FDC464;" d="M392.411,278.279c-15.224,0.001-30.444-4.453-43.727-13.363c-14.871-9.974-34.088-9.974-48.956,0
	c-26.564,17.819-60.892,17.819-87.455,0c-14.871-9.974-34.087-9.974-48.957,0c-26.564,17.819-60.892,17.819-87.454,0
	c-14.872-9.974-34.089-9.974-48.958,0c-7.924,5.315-18.658,3.2-23.972-4.724c-5.315-7.924-3.201-18.657,4.723-23.971
	c26.563-17.819,60.891-17.819,87.454,0c14.871,9.974,34.088,9.973,48.958,0c26.563-17.818,60.89-17.818,87.454,0
	c14.87,9.974,34.088,9.975,48.958,0c26.561-17.819,60.89-17.819,87.453,0c14.871,9.974,34.088,9.976,48.958,0
	c26.563-17.817,60.89-17.819,87.453,0c7.925,5.315,10.039,16.047,4.724,23.971c-5.315,7.926-16.05,10.039-23.971,4.724
	c-14.869-9.974-34.086-9.974-48.958,0C422.859,273.824,407.633,278.278,392.411,278.279z"/>
<g>
</g>
<g>
</g>
<g>
</g>
<g>
</g>
<g>
</g>
<g>
</g>
<g>
</g>
<g>
</g>
<g>
</g>
<g>
</g>
<g>
</g>
<g>
</g>
<g>
</g>
<g>
</g>
<g>
</g>
</svg>
