<?xml version="1.0" encoding="iso-8859-1"?>
<!-- Generator: Adobe Illustrator 19.0.0, SVG Export Plug-In . SVG Version: 6.00 Build 0)  -->
<svg version="1.1" id="Capa_1" xmlns="http://www.w3.org/2000/svg" xmlns:xlink="http://www.w3.org/1999/xlink" x="0px" y="0px"
	 viewBox="0 0 512.001 512.001" style="enable-background:new 0 0 512.001 512.001;" xml:space="preserve">
<path style="fill:#3C9E8F;" d="M433.839,150.396L433.839,150.396c7.615-30.119-19.71-57.445-49.83-49.83l0,0l0,0
	c-2.064-30.998-36.497-48.542-62.789-31.992l0,0l0,0c-11.542-28.843-49.711-34.888-69.602-11.024l0,0l0,0
	c-19.891-23.865-58.059-17.819-69.602,11.024l0,0l0,0c-26.292-16.55-60.724,0.994-62.789,31.992l0,0l0,0
	c-30.119-7.615-57.445,19.71-49.829,49.83l0,0c-30.998,2.064-48.542,36.497-31.992,62.789l0,0l0,0h0.001l26.295,106.754h381.893
	l20.235-106.754h0.001l0,0l0,0C482.381,186.893,464.837,152.461,433.839,150.396z"/>
<g>
	<path style="fill:#42AD9C;" d="M13.804,170.711c25.164-1.913,50.48,9.991,64.546,33.002s13.116,50.97-0.062,72.494
		c-25.164,1.913-50.48-9.991-64.546-33.002S0.627,192.233,13.804,170.711z"/>
	<path style="fill:#42AD9C;" d="M489.432,170.711c-25.164-1.913-50.48,9.991-64.546,33.002
		c-14.066,23.012-13.116,50.97,0.062,72.494c25.164,1.913,50.48-9.991,64.546-33.002C503.56,220.193,502.61,192.233,489.432,170.711
		z"/>
</g>
<g>
	<path style="fill:#4CC7B3;" d="M89.279,170.711c25.164-1.913,50.48,9.991,64.546,33.002c14.066,23.012,13.116,50.97-0.062,72.494
		c-25.164,1.913-50.48-9.991-64.546-33.002S76.102,192.233,89.279,170.711z"/>
	<path style="fill:#4CC7B3;" d="M413.957,170.711c-25.164-1.913-50.48,9.991-64.546,33.002
		c-14.066,23.012-13.116,50.97,0.062,72.494c25.164,1.913,50.48-9.991,64.546-33.002
		C428.085,220.193,427.135,192.233,413.957,170.711z"/>
</g>
<path style="fill:#42AD9C;" d="M164.755,170.711c25.164-1.913,50.48,9.991,64.546,33.002c14.066,23.012,13.116,50.97-0.062,72.494
	c-25.164,1.913-50.48-9.991-64.546-33.002C150.627,220.193,151.577,192.233,164.755,170.711z"/>
<path style="fill:#4CC7B3;" d="M229.247,283.934c-2.602,0-5.143-1.315-6.599-3.697l-41.295-67.557
	c-2.225-3.641-1.078-8.396,2.563-10.622c3.639-2.225,8.394-1.079,10.622,2.563l41.295,67.557c2.225,3.641,1.078,8.396-2.563,10.622
	C232.012,283.567,230.621,283.934,229.247,283.934z"/>
<path style="fill:#42AD9C;" d="M153.77,283.934c-2.602,0-5.143-1.315-6.599-3.697l-41.294-67.557
	c-2.225-3.641-1.078-8.396,2.563-10.622c3.639-2.225,8.395-1.079,10.622,2.563l41.294,67.557c2.225,3.641,1.078,8.396-2.563,10.622
	C156.535,283.567,155.145,283.934,153.77,283.934z"/>
<path style="fill:#4CC7B3;" d="M78.296,283.934c-2.602,0-5.143-1.315-6.599-3.697l-41.294-67.557
	c-2.225-3.641-1.078-8.396,2.563-10.622c3.638-2.225,8.395-1.079,10.622,2.563l41.294,67.557c2.225,3.641,1.078,8.396-2.563,10.622
	C81.06,283.567,79.671,283.934,78.296,283.934z"/>
<path style="fill:#42AD9C;" d="M338.482,170.711c-25.164-1.913-50.48,9.991-64.546,33.002c-14.066,23.012-13.116,50.97,0.062,72.494
	c25.164,1.913,50.48-9.991,64.546-33.002C352.61,220.194,351.66,192.233,338.482,170.711z"/>
<path style="fill:#4CC7B3;" d="M273.991,283.934c-1.374,0-2.765-0.366-4.022-1.135c-3.641-2.226-4.788-6.982-2.563-10.622
	l41.295-67.557c2.226-3.642,6.984-4.786,10.622-2.563c3.641,2.226,4.788,6.982,2.563,10.622l-41.295,67.557
	C279.133,282.618,276.592,283.934,273.991,283.934z"/>
<path style="fill:#42AD9C;" d="M349.466,283.934c-1.374,0-2.765-0.366-4.022-1.135c-3.641-2.226-4.788-6.982-2.563-10.622
	l41.294-67.557c2.225-3.642,6.983-4.786,10.622-2.563c3.641,2.226,4.788,6.982,2.563,10.622l-41.294,67.557
	C354.608,282.618,352.068,283.934,349.466,283.934z"/>
<g>
	<path style="fill:#4CC7B3;" d="M424.941,283.934c-1.374,0-2.765-0.366-4.022-1.135c-3.641-2.226-4.788-6.982-2.563-10.622
		l41.295-67.557c2.226-3.642,6.983-4.786,10.622-2.563c3.641,2.226,4.788,6.982,2.563,10.622l-41.295,67.557
		C430.084,282.618,427.542,283.934,424.941,283.934z"/>
	<circle style="fill:#4CC7B3;" cx="145.657" cy="133.965" r="16.617"/>
	<circle style="fill:#4CC7B3;" cx="251.621" cy="110.91" r="16.617"/>
	<circle style="fill:#4CC7B3;" cx="357.575" cy="133.965" r="16.617"/>
</g>
<path style="fill:#55C2E3;" d="M251.618,279.635L6.437,307.236c24.095,93.172,108.719,161.984,209.42,161.984h80.284
	c100.701,0,185.325-68.812,209.42-161.984L251.618,279.635z"/>
<path style="fill:#45B6D9;" d="M47.644,307.236l224.939-25.322l-20.965-2.279L6.437,307.236
	c24.095,93.172,108.719,161.984,209.42,161.984h41.207C156.363,469.219,71.74,400.407,47.644,307.236z"/>
<path style="fill:#80E2FF;" d="M498.489,252.921H13.51c-7.793,0-13.991,6.583-13.481,14.36c0.897,13.703,3.071,27.06,6.409,39.955
	h499.125c3.337-12.895,5.51-26.25,6.409-39.955C512.48,259.504,506.282,252.921,498.489,252.921z"/>
<path style="fill:#55C2E3;" d="M54.718,252.921H13.51c-7.793,0-13.991,6.583-13.481,14.36c0.897,13.703,3.071,27.06,6.409,39.955
	h41.207c-3.337-12.895-5.51-26.25-6.409-39.955C40.727,259.504,46.924,252.921,54.718,252.921z"/>
<g>
	<path style="fill:#3B484A;" d="M175.337,385.867c-4.268,0-7.726-3.459-7.726-7.726v-13.806c0-4.267,3.458-7.726,7.726-7.726
		c4.268,0,7.726,3.459,7.726,7.726v13.805C183.064,382.408,179.604,385.867,175.337,385.867z"/>
	<path style="fill:#3B484A;" d="M327.901,385.867c-4.268,0-7.726-3.459-7.726-7.726v-13.806c0-4.267,3.458-7.726,7.726-7.726
		c4.268,0,7.726,3.459,7.726,7.726v13.805C335.627,382.408,332.168,385.867,327.901,385.867z"/>
	<path style="fill:#3B484A;" d="M251.619,396.069c-11.245,0-21.798-4.694-28.95-12.876c-2.809-3.213-2.481-8.094,0.732-10.902
		c3.212-2.808,8.094-2.48,10.901,0.732c4.219,4.826,10.531,7.593,17.316,7.593s13.097-2.768,17.315-7.593
		c2.807-3.214,7.689-3.541,10.902-0.731c3.212,2.808,3.541,7.689,0.731,10.902C273.415,391.377,262.864,396.069,251.619,396.069z"/>
</g>
<g>
</g>
<g>
</g>
<g>
</g>
<g>
</g>
<g>
</g>
<g>
</g>
<g>
</g>
<g>
</g>
<g>
</g>
<g>
</g>
<g>
</g>
<g>
</g>
<g>
</g>
<g>
</g>
<g>
</g>
</svg>
