<?xml version="1.0" encoding="iso-8859-1"?>
<!-- Generator: Adobe Illustrator 19.0.0, SVG Export Plug-In . SVG Version: 6.00 Build 0)  -->
<svg version="1.1" id="Capa_1" xmlns="http://www.w3.org/2000/svg" xmlns:xlink="http://www.w3.org/1999/xlink" x="0px" y="0px"
	 viewBox="0 0 512.001 512.001" style="enable-background:new 0 0 512.001 512.001;" xml:space="preserve">
<path style="fill:#CC9E51;" d="M236.882,149.64H189.77c-4.227,0-8.454,1.649-11.628,4.949L4.539,335.039
	c-9.862,10.251-2.597,27.321,11.628,27.321h47.112l173.603-95.118V149.64z"/>
<polygon style="fill:#9577E1;" points="22.38,362.36 227.029,149.64 275.119,149.64 275.119,253.086 101.516,362.36 "/>
<path style="fill:#CC9E51;" d="M322.231,149.64h-47.112c-4.227,0-8.454,1.649-11.628,4.949L89.888,335.039
	c-9.862,10.251-2.597,27.321,11.628,27.321h47.112l173.603-95.118L322.231,149.64L322.231,149.64z"/>
<path style="fill:#FDC464;" d="M507.461,335.039l-173.603-180.45c-6.348-6.598-16.907-6.598-23.255,0L137,335.039
	c-9.862,10.251-2.597,27.321,11.628,27.321h347.206C510.059,362.36,517.323,345.29,507.461,335.039z"/>
<g>
	<path style="fill:#3B484A;" d="M263.503,287.919c-4.268,0-7.726-3.459-7.726-7.726v-10.628c0-4.267,3.458-7.726,7.726-7.726
		s7.726,3.459,7.726,7.726v10.628C271.23,284.459,267.771,287.919,263.503,287.919z"/>
	<path style="fill:#3B484A;" d="M380.957,287.919c-4.268,0-7.726-3.459-7.726-7.726v-10.628c0-4.267,3.458-7.726,7.726-7.726
		s7.726,3.459,7.726,7.726v10.628C388.684,284.459,385.224,287.919,380.957,287.919z"/>
	<path style="fill:#3B484A;" d="M322.231,295.774c-9.171,0-17.783-3.835-23.627-10.521c-2.808-3.213-2.48-8.094,0.733-10.902
		c3.212-2.808,8.093-2.48,10.902,0.732c2.908,3.328,7.279,5.237,11.991,5.237c4.712,0,9.081-1.91,11.992-5.238
		c2.807-3.212,7.688-3.541,10.902-0.731c3.212,2.808,3.541,7.689,0.731,10.902C340.012,291.938,331.4,295.774,322.231,295.774z"/>
</g>
<g>
</g>
<g>
</g>
<g>
</g>
<g>
</g>
<g>
</g>
<g>
</g>
<g>
</g>
<g>
</g>
<g>
</g>
<g>
</g>
<g>
</g>
<g>
</g>
<g>
</g>
<g>
</g>
<g>
</g>
</svg>
