<?xml version="1.0" encoding="iso-8859-1"?>
<!-- Generator: Adobe Illustrator 19.0.0, SVG Export Plug-In . SVG Version: 6.00 Build 0)  -->
<svg version="1.1" id="Capa_1" xmlns="http://www.w3.org/2000/svg" xmlns:xlink="http://www.w3.org/1999/xlink" x="0px" y="0px"
	 viewBox="0 0 512 512" style="enable-background:new 0 0 512 512;" xml:space="preserve">
<path style="fill:#FECE00;" d="M265.567,5.232c-4.471-6.975-14.664-6.975-19.135,0l-42.029,65.565h103.192L265.567,5.232z"/>
<path style="fill:#FEE333;" d="M265.567,5.232c-4.471-6.975-14.664-6.975-19.135,0l-42.029,65.565h20.604l41.295-64.419
	L265.567,5.232z"/>
<path style="fill:#FECE00;" d="M72.51,80.929c-8.187-1.274-14.941,6.359-12.681,14.33l21.25,74.925l68.384-77.28L72.51,80.929z"/>
<path style="fill:#FEE333;" d="M80.433,84.957c-0.274-0.964-0.409-1.923-0.433-2.862l-7.491-1.166
	c-8.187-1.274-14.941,6.359-12.681,14.33l21.25,74.924l17.815-20.133L80.433,84.957z"/>
<path style="fill:#FECE00;" d="M439.489,80.929c8.187-1.274,14.941,6.359,12.68,14.33l-21.25,74.925l-68.384-77.28L439.489,80.929z"
	/>
<path style="fill:#FEE333;" d="M383.139,113.507l66.803-10.395l2.227-7.853c2.26-7.971-4.494-15.603-12.68-14.33l-76.953,11.974
	l68.384,77.28l0.576-2.029L383.139,113.507z"/>
<path style="fill:#E86D24;" d="M347.225,468.885C481.15,399.29,471.35,254.088,471.35,254.088L256,232.531L40.65,254.088
	c0,0-9.8,145.202,124.124,214.797L256,490.443L347.225,468.885z"/>
<path style="fill:#CC6020;" d="M205.981,468.885C72.057,399.29,81.857,254.088,81.857,254.088l194.746-19.495L256,232.531
	L40.65,254.088c0,0-9.8,145.202,124.124,214.797L256,490.443l20.604-4.869L205.981,468.885z"/>
<path style="fill:#4CC7B3;" d="M428.338,151.589L428.338,151.589L428.338,151.589c7.202-28.486-18.641-54.33-47.127-47.127l0,0l0,0
	c-1.952-29.317-34.517-45.91-59.384-30.257l0,0l0,0c-10.917-27.279-47.015-32.997-65.827-10.426l0,0l0,0
	c-18.812-22.57-54.911-16.853-65.827,10.426l0,0l0,0c-24.865-15.653-57.431,0.941-59.384,30.257l0,0l0,0
	c-28.486-7.202-54.33,18.641-47.127,47.127l0,0l0,0c-29.317,1.952-45.91,34.517-30.257,59.384l0,0l0,0h0.001L256,232.531
	l202.593-21.558h0.001l0,0l0,0C474.247,186.108,457.654,153.543,428.338,151.589z"/>
<g>
	<path style="fill:#3B484A;" d="M178.215,361.276c-4.267,0-7.726-3.459-7.726-7.726v-14.077c0-4.267,3.459-7.726,7.726-7.726
		c4.267,0,7.726,3.459,7.726,7.726v14.077C185.941,357.817,182.482,361.276,178.215,361.276z"/>
	<path style="fill:#3B484A;" d="M333.784,361.276c-4.267,0-7.726-3.459-7.726-7.726v-14.077c0-4.267,3.459-7.726,7.726-7.726
		c4.267,0,7.726,3.459,7.726,7.726v14.077C341.511,357.817,338.051,361.276,333.784,361.276z"/>
	<path style="fill:#3B484A;" d="M256,371.68c-11.423,0-22.141-4.767-29.406-13.077c-2.808-3.213-2.481-8.093,0.732-10.902
		c3.213-2.808,8.094-2.481,10.902,0.732c4.331,4.954,10.808,7.794,17.772,7.794c6.964,0,13.441-2.841,17.771-7.794
		c2.809-3.213,7.689-3.541,10.902-0.732c3.213,2.808,3.541,7.689,0.732,10.902C278.14,366.914,267.422,371.68,256,371.68z"/>
</g>
<circle style="fill:#EEECED;" cx="307.591" cy="115.381" r="17.544"/>
<g>
	<circle style="fill:#F9545B;" cx="370.803" cy="163.871" r="17.544"/>
	<circle style="fill:#F9545B;" cx="204.398" cy="115.381" r="17.544"/>
</g>
<circle style="fill:#EEECED;" cx="141.196" cy="163.871" r="17.544"/>
<path style="fill:#FB8D4B;" d="M347.225,468.885H164.774c-11.906,0-21.558,9.652-21.558,21.558l0,0
	c0,11.906,9.652,21.558,21.558,21.558h182.451c11.906,0,21.558-9.652,21.558-21.558l0,0
	C368.783,478.537,359.131,468.885,347.225,468.885z"/>
<path style="fill:#E86D24;" d="M184.424,490.443L184.424,490.443c0-11.906,9.652-21.558,21.558-21.558h-41.207
	c-11.906,0-21.558,9.652-21.558,21.558l0,0c0,11.906,9.652,21.558,21.558,21.558h41.207
	C194.075,512,184.424,502.348,184.424,490.443z"/>
<path style="fill:#42AD9C;" d="M115.251,210.973c-27.498-55.599,15.537-106.51,15.537-106.51
	c-28.486-7.203-54.33,18.641-47.127,47.127l0,0l0,0c-29.317,1.953-45.91,34.517-30.257,59.384l0,0l0,0h0.001l64.287,6.84
	C117.164,215.499,116.361,213.216,115.251,210.973z"/>
<path style="fill:#FB8D4B;" d="M471.35,210.973H40.65c-11.906,0-21.558,9.652-21.558,21.558l0,0
	c0,11.906,9.652,21.558,21.558,21.558h430.701c11.906,0,21.558-9.652,21.558-21.558l0,0
	C492.907,220.625,483.255,210.973,471.35,210.973z"/>
<path style="fill:#E86D24;" d="M60.299,232.531L60.299,232.531c0-11.906,9.652-21.558,21.558-21.558H40.65
	c-11.906,0-21.558,9.652-21.558,21.558l0,0c0,11.906,9.652,21.558,21.558,21.558h41.207
	C69.951,254.088,60.299,244.436,60.299,232.531z"/>
<g>
</g>
<g>
</g>
<g>
</g>
<g>
</g>
<g>
</g>
<g>
</g>
<g>
</g>
<g>
</g>
<g>
</g>
<g>
</g>
<g>
</g>
<g>
</g>
<g>
</g>
<g>
</g>
<g>
</g>
</svg>
