<?xml version="1.0" encoding="iso-8859-1"?>
<!-- Generator: Adobe Illustrator 19.0.0, SVG Export Plug-In . SVG Version: 6.00 Build 0)  -->
<svg version="1.1" id="Capa_1" xmlns="http://www.w3.org/2000/svg" xmlns:xlink="http://www.w3.org/1999/xlink" x="0px" y="0px"
	 viewBox="0 0 512 512" style="enable-background:new 0 0 512 512;" xml:space="preserve">
<path style="fill:#E07E43;" d="M162.433,418.614c0,0,40.815,8.801,93.567,8.801s93.567-8.801,93.567-8.801v-25.501L256,342.964
	l-93.567,48.72L162.433,418.614L162.433,418.614z"/>
<path style="fill:#E86D24;" d="M420.085,383.105c22.393,3.507,37.762,4.202,38.401,4.231c13.893,0.524,24.727,12.207,24.212,26.089
	c-0.505,13.569-11.673,24.232-25.136,24.232c-0.314,0-0.639-0.009-0.953-0.02c-2.668-0.105-66.149-2.725-130.563-27.004
	c-27.118-10.215-50.57-22.84-70.046-37.686l36.172-35.905c5.955,4.164,12.378,8.109,19.257,11.844L420.085,383.105z"/>
<path style="fill:#CC6020;" d="M256,104.083c26.461-18.734,58.745-29.739,93.563-29.739C439.124,74.343,512,147.219,512,236.781
	c0,64.319-37.572,120.024-91.915,146.324c-26.271-4.237-52.402-10.458-77.298-19.943c-11.33-4.316-21.783-9.09-31.36-14.274h38.134
	c61.813,0,112.106-50.292,112.106-112.106s-50.292-112.106-112.106-112.106c-20.668,0-40.049,5.622-56.687,15.418H256V104.083z"/>
<path style="fill:#E86D24;" d="M219.114,140.092c-20.086,27.033-31.988,60.498-31.988,96.689c0,0.715,0,1.429,0.009,2.135
	c0.4,37.058,11.377,69.979,32.674,98.127l36.19,5.922v-41.846c-12.13-18.171-18.219-38.773-18.524-62.442
	c-0.02-0.619-0.02-1.267-0.02-1.897c0-22.764,6.823-43.966,18.543-61.67v-35.018H219.114z"/>
<g>
	<path style="fill:#CC6020;" d="M206.057,162.292c11.348,6.675,21.188,16.016,28.462,27.027c3.098,4.683,5.699,9.625,7.807,14.752
		c3.171-10.368,7.809-20.102,13.674-28.961v-35.018h-36.886c-5.115,6.884-9.695,14.187-13.687,21.843
		C205.637,162.056,205.849,162.169,206.057,162.292z"/>
	<path style="fill:#CC6020;" d="M256,301.119c-6.033-9.038-10.569-18.677-13.645-28.995c-2.079,5.133-4.658,10.024-7.774,14.693
		c-2.855,4.274-6.18,8.436-9.893,12.382c-5.314,5.651-11.63,11.066-18.768,16.117c3.998,7.528,8.627,14.774,13.888,21.728
		l36.19,5.922v-41.847H256z"/>
</g>
<g>
	<path style="fill:#FB8D4B;" d="M200.571,348.886L200.571,348.886c-9.577,5.184-20.03,9.958-31.369,14.274
		c-24.907,9.502-51.003,15.705-77.287,19.943l0,0c-22.393,3.507-37.772,4.202-38.41,4.231
		c-13.893,0.524-24.727,12.207-24.203,26.089c0.505,13.569,11.664,24.232,25.127,24.232c0.325,0,0.639-0.009,0.962-0.02
		c2.659-0.105,66.149-2.725,130.563-27.004c27.109-10.215,50.559-22.84,70.046-37.686l-36.19-35.905
		C213.864,341.216,207.441,345.151,200.571,348.886z"/>
	<path style="fill:#FB8D4B;" d="M219.81,337.042c8.967-6.251,16.866-12.997,23.641-20.201c4.736-5.031,8.909-10.272,12.55-15.723
		c12.12-18.171,18.209-38.773,18.514-62.442c0.02-0.619,0.02-1.267,0.02-1.897c0-22.764-6.823-43.966-18.533-61.67
		c-9.444-14.293-22.078-26.309-36.886-35.018c-16.637-9.796-36.009-15.418-56.677-15.418c-61.822,0-112.106,50.292-112.106,112.106
		s50.283,112.106,112.106,112.106h38.134c-9.577,5.184-20.03,9.958-31.369,14.274c-24.907,9.503-51.003,15.705-77.287,19.943
		C37.572,356.805,0,301.099,0,236.781C0,147.219,72.867,74.343,162.437,74.343c34.818,0,67.102,11.005,93.563,29.739
		c14.112,9.967,26.576,22.145,36.876,36.009c20.086,27.033,31.988,60.498,31.988,96.689v2.135
		c-0.401,37.058-11.387,69.979-32.693,98.127c-3.841,5.079-8.014,9.996-12.521,14.76c-7.079,7.48-14.97,14.532-23.65,21.144
		L219.81,337.042z"/>
</g>
<path style="fill:#E07E43;" d="M162.437,348.886c-8.173,0-16.142-0.887-23.822-2.556c-15.468,4.606-32.241,8.353-50.741,11.338
	c-13.133,2.055-23.627,3.075-29.718,3.554c10.258,8.61,21.582,15.989,33.758,21.882c26.284-4.239,52.381-10.441,77.287-19.943
	c11.339-4.316,21.792-9.09,31.369-14.274h-38.134V348.886z"/>
<g>
</g>
<g>
</g>
<g>
</g>
<g>
</g>
<g>
</g>
<g>
</g>
<g>
</g>
<g>
</g>
<g>
</g>
<g>
</g>
<g>
</g>
<g>
</g>
<g>
</g>
<g>
</g>
<g>
</g>
</svg>
