<?xml version="1.0" encoding="iso-8859-1"?>
<!-- Generator: Adobe Illustrator 19.0.0, SVG Export Plug-In . SVG Version: 6.00 Build 0)  -->
<svg version="1.1" id="Capa_1" xmlns="http://www.w3.org/2000/svg" xmlns:xlink="http://www.w3.org/1999/xlink" x="0px" y="0px"
	 viewBox="0 0 512 512" style="enable-background:new 0 0 512 512;" xml:space="preserve">
<polygon style="fill:#E6BB00;" points="408.033,75.131 380.175,58.484 352.317,75.131 341.467,120.174 380.175,152.977 
	418.883,120.174 "/>
<path style="fill:#FEDD00;" d="M442.461,140.196c-1.898-11.547-11.878-20.022-23.581-20.022h-77.412
	c-11.702,0-21.683,8.474-23.581,20.022l-4.296,26.142l66.582,19.443l66.582-19.443L442.461,140.196z"/>
<path style="fill:#E6BB00;" d="M503.96,373.429c-35.326-86.655-17.548-101.342-17.548-140.998s-39.656-66.092-39.656-66.092H313.592
	c0,0-39.656,26.438-39.656,66.092c0,39.656,17.778,54.343-17.548,140.998c-8.629,21.167-9.629,45.753-6.213,70.824
	c3.21,23.555,23.25,41.164,47.024,41.164h165.95c23.773,0,43.813-17.609,47.024-41.164
	C513.59,419.182,512.589,394.596,503.96,373.429z"/>
<path style="fill:#FEDD00;" d="M472.379,386.752c-0.052-0.129-0.103-0.258-0.156-0.385c-29.874-73.281-25.707-104.336-22.03-131.733
	c1.045-7.782,1.946-14.504,1.946-22.202c0-3.096-0.611-6.174-1.648-9.164c-4.76-13.729-18.064-22.656-32.596-22.656h-75.444
	c-14.532,0-27.834,8.927-32.596,22.656c-1.037,2.991-1.648,6.069-1.648,9.164c0,7.699,0.901,14.419,1.946,22.202
	c3.677,27.398,7.844,58.452-22.03,131.732c-0.053,0.129-0.104,0.258-0.157,0.386c-9.304,23.286,8.191,48.573,33.268,48.573h117.877
	C464.189,435.326,481.685,410.038,472.379,386.752z"/>
<g>
	<path style="fill:#3B484A;" d="M342.72,322.017c-4.267,0-7.726-3.459-7.726-7.726v-6.779c0-4.267,3.459-7.726,7.726-7.726
		c4.267,0,7.726,3.459,7.726,7.726v6.779C350.446,318.558,346.987,322.017,342.72,322.017z"/>
	<path style="fill:#3B484A;" d="M417.629,322.017c-4.267,0-7.726-3.459-7.726-7.726v-6.779c0-4.267,3.459-7.726,7.726-7.726
		c4.267,0,7.726,3.459,7.726,7.726v6.779C425.356,318.558,421.896,322.017,417.629,322.017z"/>
	<path style="fill:#3B484A;" d="M380.174,327.027c-6.656,0-12.916-2.794-17.175-7.667c-2.809-3.213-2.481-8.093,0.731-10.902
		c3.213-2.809,8.094-2.481,10.902,0.731c1.325,1.515,3.345,2.384,5.541,2.384c2.197,0,4.216-0.868,5.54-2.384
		c2.808-3.213,7.689-3.541,10.902-0.732c3.213,2.809,3.541,7.689,0.732,10.902C393.09,324.232,386.831,327.027,380.174,327.027z"/>
</g>
<polygon style="fill:#EEECED;" points="137.088,408.471 70.502,426.096 70.502,457.871 137.088,471.644 203.674,457.871 
	203.674,426.096 "/>
<path style="fill:#D4D2D3;" d="M203.674,457.871v5.875c0,11.966-9.704,21.67-21.67,21.67H92.172c-11.966,0-21.67-9.704-21.67-21.67
	v-5.875H203.674z"/>
<path style="fill:#E64047;" d="M244.8,218.506c0,0,29.376-41.127,29.376-95.961c0-29.069-8.255-54.285-16.013-71.565
	c-6.659-14.832-21.369-24.397-37.627-24.397H53.64c-16.258,0-30.968,9.565-37.627,24.397C8.255,68.259,0,93.475,0,122.543
	c0,54.836,29.376,95.961,29.376,95.961c29.376,64.627-99.878,123.38,41.127,207.591h133.172
	C344.679,341.885,215.424,283.133,244.8,218.506z"/>
<path style="fill:#F9545B;" d="M213.6,204.324l1.377-3.031l1.935-2.708c0.23-0.321,22.993-33.382,22.993-76.042
	c0-0.09,0-0.18,0-0.27c-0.032-13.959-11.522-25.19-25.48-25.19H59.754c-13.959,0-25.449,11.23-25.48,25.19c0,0.09,0,0.179,0,0.27
	c0,41.47,21.773,74.237,23.053,76.124l1.787,2.435l1.464,3.22c17.135,37.697,1.933,71.189-10.284,98.099
	c-7.778,17.134-14.496,31.931-12.355,44.13c2.872,16.369,23.14,32.952,42.307,45.271h113.686
	c19.168-12.319,39.435-28.904,42.307-45.271c2.141-12.198-4.577-26.996-12.355-44.13C211.668,275.513,196.465,242.021,213.6,204.324
	z"/>
<g>
	<path style="fill:#3B484A;" d="M87.476,321.325c-4.267,0-7.726-3.459-7.726-7.726v-8.979c0-4.267,3.459-7.726,7.726-7.726
		c4.267,0,7.726,3.459,7.726,7.726v8.979C95.202,317.865,91.743,321.325,87.476,321.325z"/>
	<path style="fill:#3B484A;" d="M186.701,321.325c-4.267,0-7.726-3.459-7.726-7.726v-8.979c0-4.267,3.459-7.726,7.726-7.726
		s7.726,3.459,7.726,7.726v8.979C194.427,317.865,190.968,321.325,186.701,321.325z"/>
	<path style="fill:#3B484A;" d="M137.088,327.96c-8.093,0-15.698-3.389-20.862-9.298c-2.808-3.213-2.481-8.093,0.732-10.902
		c3.212-2.808,8.093-2.481,10.902,0.732c2.23,2.552,5.594,4.015,9.228,4.015s6.998-1.463,9.228-4.015
		c2.808-3.214,7.689-3.541,10.902-0.731c3.213,2.808,3.541,7.689,0.731,10.902C152.786,324.572,145.181,327.96,137.088,327.96z"/>
</g>
<path style="fill:#FEDD00;" d="M408.033,75.131h-55.716l5.297-21.963c1.606-6.649,7.549-11.329,14.384-11.329h16.343
	c6.845,0,12.789,4.68,14.395,11.329L408.033,75.131z"/>
<g>
</g>
<g>
</g>
<g>
</g>
<g>
</g>
<g>
</g>
<g>
</g>
<g>
</g>
<g>
</g>
<g>
</g>
<g>
</g>
<g>
</g>
<g>
</g>
<g>
</g>
<g>
</g>
<g>
</g>
</svg>
