<?xml version="1.0" encoding="iso-8859-1"?>
<!-- Generator: Adobe Illustrator 19.0.0, SVG Export Plug-In . SVG Version: 6.00 Build 0)  -->
<svg version="1.1" id="Capa_1" xmlns="http://www.w3.org/2000/svg" xmlns:xlink="http://www.w3.org/1999/xlink" x="0px" y="0px"
	 viewBox="0 0 512 512" style="enable-background:new 0 0 512 512;" xml:space="preserve">
<polygon style="fill:#D1A084;" points="94.879,143.443 133.497,512 378.503,512 417.12,143.443 256,89.783 "/>
<polygon style="fill:#B38871;" points="276.603,96.645 256,89.783 94.879,143.443 133.497,512 174.704,512 136.087,143.443 "/>
<path style="fill:#4CC7B3;" d="M448.495,125.583L417.12,72.246L256,36.122L94.879,72.246l-31.375,53.338
	c-4.647,7.9,1.049,17.86,10.215,17.86h364.56C447.447,143.443,453.143,133.484,448.495,125.583z"/>
<g>
	<path style="fill:#42AD9C;" d="M125.315,125.583l31.375-53.338l130.215-29.194L256,36.122L94.879,72.246l-31.375,53.338
		c-4.647,7.9,1.049,17.86,10.215,17.86h61.811C126.364,143.443,120.667,133.484,125.315,125.583z"/>
	<path style="fill:#42AD9C;" d="M385.472,0H126.528c-17.479,0-31.648,14.169-31.648,31.648v40.597H417.12V31.648
		C417.12,14.169,402.951,0,385.472,0z"/>
</g>
<path style="fill:#3C9E8F;" d="M188.339,0h-61.811c-17.479,0-31.648,14.169-31.648,31.648v40.597h61.811V31.648
	C156.69,14.169,170.859,0,188.339,0z"/>
<path style="fill:#4CC7B3;" d="M400.237,239.771H111.762c-9.259,0-16.48,8.017-15.516,17.226l14.94,142.607
	c0.832,7.943,7.529,13.975,15.516,13.975h258.596c7.987,0,14.683-6.032,15.516-13.975l14.94-142.607
	C416.717,247.788,409.496,239.771,400.237,239.771z"/>
<path style="fill:#42AD9C;" d="M152.393,399.604l-14.94-142.607c-0.964-9.209,6.256-17.226,15.516-17.226h-41.207
	c-9.259,0-16.48,8.017-15.516,17.226l14.94,142.607c0.832,7.943,7.529,13.975,15.516,13.975h41.207
	C159.922,413.579,153.226,407.547,152.393,399.604z"/>
<g>
	<path style="fill:#3B484A;" d="M178.868,334.448c-4.268,0-7.726-3.459-7.726-7.726v-13.959c0-4.267,3.458-7.726,7.726-7.726
		c4.268,0,7.726,3.459,7.726,7.726v13.959C186.594,330.989,183.136,334.448,178.868,334.448z"/>
	<path style="fill:#3B484A;" d="M333.13,334.448c-4.268,0-7.726-3.459-7.726-7.726v-13.959c0-4.267,3.458-7.726,7.726-7.726
		s7.726,3.459,7.726,7.726v13.959C340.857,330.989,337.398,334.448,333.13,334.448z"/>
	<path style="fill:#3B484A;" d="M256,344.766c-11.347,0-21.993-4.735-29.209-12.991c-2.808-3.213-2.48-8.094,0.733-10.902
		c3.213-2.807,8.093-2.48,10.902,0.733c4.28,4.897,10.685,7.707,17.573,7.707c6.887,0,13.29-2.809,17.572-7.707
		c2.81-3.214,7.69-3.541,10.902-0.732c3.213,2.808,3.542,7.689,0.733,10.902C277.991,340.031,267.346,344.766,256,344.766z"/>
</g>
<g>
</g>
<g>
</g>
<g>
</g>
<g>
</g>
<g>
</g>
<g>
</g>
<g>
</g>
<g>
</g>
<g>
</g>
<g>
</g>
<g>
</g>
<g>
</g>
<g>
</g>
<g>
</g>
<g>
</g>
</svg>
