<?xml version="1.0" encoding="iso-8859-1"?>
<!-- Generator: Adobe Illustrator 19.0.0, SVG Export Plug-In . SVG Version: 6.00 Build 0)  -->
<svg version="1.1" id="Capa_1" xmlns="http://www.w3.org/2000/svg" xmlns:xlink="http://www.w3.org/1999/xlink" x="0px" y="0px"
	 viewBox="0 0 512.002 512.002" style="enable-background:new 0 0 512.002 512.002;" xml:space="preserve">
<path style="fill:#FEE333;" d="M511.865,13.571c-0.34-7.267-6.169-13.096-13.436-13.436C370.01-5.865,74.851,189.384,74.851,189.384
	l-24.05,52.094l91.76,127.961l130.495,94.295l49.561-26.583C322.618,437.151,517.867,141.991,511.865,13.571z"/>
<path style="fill:#FECE00;" d="M322.831,436.827c0.014-0.023,0.025-0.038,0.041-0.062c4.644-7.054,9.104-14.226,13.699-21.31
	c0.011-0.019,0.023-0.035,0.034-0.054c44.604-70.516,180.279-294.456,175.261-401.829c-0.34-7.267-6.169-13.096-13.436-13.436
	c-2.508-0.117-5.087-0.148-7.719-0.115c0.301,1.04,0.499,2.124,0.551,3.249c5.031,107.664-131.387,332.518-175.616,402.391
	c-31.961-15.335-84.449-44.216-124.768-84.536c-48.577-48.576-80.823-115.532-92.431-142.062c-0.553-1.264-1.166-2.488-1.824-3.68
	c-13.835,8.751-21.771,14.001-21.771,14.001l-24.05,52.094l91.76,127.961l130.495,94.295l49.561-26.583c0,0,0.023-0.034,0.056-0.084
	c0.006-0.009,0.012-0.019,0.02-0.029C322.726,436.986,322.772,436.916,322.831,436.827z"/>
<path style="fill:#FB8D4B;" d="M318.271,499.772l14.369-39.047c3.415-9.281-0.994-19.606-10.059-23.558
	c-30.71-13.387-98.72-46.636-149.916-97.832c-50.931-50.931-84.355-119.189-97.815-149.952c-3.959-9.05-14.276-13.445-23.547-10.033
	l-39.075,14.38c-10.049,3.698-14.935,15.064-10.7,24.901c15.231,35.38,58.548,110.088,120.151,171.691
	c61.604,61.604,136.311,104.92,171.691,120.151C303.206,514.707,314.573,509.822,318.271,499.772z"/>
<path style="fill:#E86D24;" d="M322.582,437.168c-4.478-1.952-9.77-4.34-15.667-7.131c5.592,4.971,7.84,13.005,5.122,20.388
	l-14.369,39.046c-3.698,10.049-15.064,14.935-24.899,10.7c-1.79-0.772-3.708-1.633-5.694-2.547
	c10.111,5.401,19.042,9.725,26.297,12.848c9.835,4.234,21.202-0.651,24.9-10.701l14.369-39.046
	C336.056,451.446,331.646,441.119,322.582,437.168z"/>
<circle style="fill:#FECE00;" cx="423.787" cy="96.137" r="33.172"/>
<circle style="fill:#F9545B;" cx="413.485" cy="85.835" r="33.172"/>
<circle style="fill:#FECE00;" cx="303.719" cy="319.46" r="40.558"/>
<circle style="fill:#E64047;" cx="314.021" cy="309.158" r="40.558"/>
<circle style="fill:#FECE00;" cx="212.208" cy="266.127" r="29.061"/>
<circle style="fill:#F9545B;" cx="201.907" cy="276.429" r="29.061"/>
<circle style="fill:#FECE00;" cx="248.388" cy="185.207" r="38.24"/>
<circle style="fill:#E64047;" cx="238.086" cy="174.905" r="38.24"/>
<g>
	<path style="fill:#3B484A;" d="M293.443,121.702c-1.977,0-3.955-0.754-5.463-2.263c-3.018-3.017-3.018-7.909-0.001-10.926
		l9.464-9.464c3.018-3.017,7.911-3.018,10.926,0c3.018,3.017,3.018,7.909,0.001,10.926l-9.464,9.464
		C297.397,120.947,295.42,121.702,293.443,121.702z"/>
	<path style="fill:#3B484A;" d="M398.026,226.285c-1.977,0-3.955-0.754-5.464-2.263c-3.017-3.017-3.017-7.91,0-10.926l9.464-9.464
		c3.018-3.017,7.91-3.017,10.927,0c3.017,3.017,3.017,7.91,0,10.926l-9.464,9.464C401.981,225.531,400.003,226.285,398.026,226.285z
		"/>
	<path style="fill:#3B484A;" d="M359.741,189.892c-9.76,0-19.292-3.995-26.463-11.167c-7.756-7.757-11.798-18.274-11.087-28.855
		c0.286-4.258,4.005-7.48,8.227-7.191c4.258,0.286,7.477,3.969,7.191,8.227c-0.412,6.132,1.992,12.289,6.595,16.892
		c4.603,4.604,10.764,7.003,16.891,6.596c4.263-0.297,7.941,2.934,8.227,7.191c0.285,4.258-2.934,7.941-7.191,8.226
		C361.334,189.865,360.537,189.892,359.741,189.892z"/>
</g>
<g>
</g>
<g>
</g>
<g>
</g>
<g>
</g>
<g>
</g>
<g>
</g>
<g>
</g>
<g>
</g>
<g>
</g>
<g>
</g>
<g>
</g>
<g>
</g>
<g>
</g>
<g>
</g>
<g>
</g>
</svg>
