<?xml version="1.0" encoding="iso-8859-1"?>
<!-- Generator: Adobe Illustrator 19.0.0, SVG Export Plug-In . SVG Version: 6.00 Build 0)  -->
<svg version="1.1" id="Capa_1" xmlns="http://www.w3.org/2000/svg" xmlns:xlink="http://www.w3.org/1999/xlink" x="0px" y="0px"
	 viewBox="0 0 512 512" style="enable-background:new 0 0 512 512;" xml:space="preserve">
<path style="fill:#EEECED;" d="M411.909,19.709l-1.662-11.419c-0.735-5.045-5.419-8.539-10.464-7.805l-66.465,9.671
	c-4.714,0.686-8.821,3.57-11.067,7.771l-58.4,109.215l26.455,14.146l54.828-102.535l58.97-8.58
	C409.149,29.438,412.643,24.754,411.909,19.709z"/>
<path style="fill:#B38871;" d="M162.745,42.333c8-30,54.429-42.333,54.429-42.333c2.428,22.333,74.238,14.333,51.575,62.488
	l-50.793,15.477l-52.629-25.172L162.745,42.333z"/>
<path style="fill:#A67E69;" d="M217.203,0.185c-0.008-0.063-0.023-0.123-0.03-0.185c0,0-46.428,12.333-54.429,42.333l2.582,10.459
	l12.481,5.97C179.089,33.166,202.332,11.5,217.203,0.185z"/>
<path style="fill:#D1A084;" d="M290.455,105.557c36.957-63.224-113.71-43.891-127.711-63.224c0,0-32.121,15.333-23.061,40v31.264
	L290.455,105.557z"/>
<path style="fill:#B38871;" d="M157.868,112.628V98.976c-8.555-23.289,8.814-40.7,21.34-49.72
	c-8.206-1.625-14.17-3.755-16.463-6.923c0,0-32.121,15.333-23.061,40v31.264L157.868,112.628z"/>
<g>
	<path style="fill:#80E2FF;" d="M301.164,187.094l-90.086-20.999l-90.086,20.999c0,0-32.817,103.495,51.178,256.487l38.908,17.249
		l38.908-17.249C333.981,290.589,301.164,187.094,301.164,187.094z"/>
	<path style="fill:#80E2FF;" d="M172.171,478.079c0,0-26.092,12.921-26.092,33.921h130c0-21-26.092-33.921-26.092-33.921
		l-38.908-17.249L172.171,478.079z"/>
</g>
<path style="fill:#B38871;" d="M140.346,224.001c-0.716,9.728-0.981,21.669-0.135,35.586c2.165,35.627,12.216,91.339,46.981,158.995
	h47.77c34.764-67.656,44.815-123.368,46.981-158.995c0.846-13.917,0.581-25.858-0.135-35.586L140.346,224.001L140.346,224.001z"/>
<path style="fill:#A67E69;" d="M160.95,224.001h-20.604c-0.716,9.728-0.981,21.669-0.135,35.586
	c2.165,35.627,12.216,91.339,46.981,158.995h20.604c-34.764-67.656-44.815-123.368-46.981-158.995
	C159.97,245.669,160.234,233.727,160.95,224.001z"/>
<g>
	<path style="fill:#3B484A;" d="M172.745,291.834c-4.267,0-7.726-3.459-7.726-7.726v-6.937c0-4.267,3.459-7.726,7.726-7.726
		c4.267,0,7.726,3.459,7.726,7.726v6.937C180.471,288.374,177.012,291.834,172.745,291.834z"/>
	<path style="fill:#3B484A;" d="M249.412,291.834c-4.267,0-7.726-3.459-7.726-7.726v-6.937c0-4.267,3.459-7.726,7.726-7.726
		c4.267,0,7.726,3.459,7.726,7.726v6.937C257.138,288.374,253.679,291.834,249.412,291.834z"/>
	<path style="fill:#3B484A;" d="M211.079,296.961c-6.761,0-13.118-2.837-17.442-7.785c-2.808-3.213-2.48-8.094,0.732-10.902
		s8.093-2.481,10.902,0.732c1.39,1.59,3.506,2.501,5.807,2.501c2.3,0,4.417-0.912,5.807-2.501c2.808-3.213,7.688-3.542,10.902-0.732
		c3.213,2.808,3.542,7.689,0.732,10.902C224.196,294.124,217.839,296.961,211.079,296.961z"/>
</g>
<path style="fill:#B38871;" d="M301.164,145.096c36.247-76.763-153.873-36.763-161.48-62.763c0,0-45.778,23.525-18.693,62.763
	l90.086,20.999L301.164,145.096z"/>
<path style="fill:#A67E69;" d="M149.838,145.096c-17.592-25.485-4.448-44.337,6.928-54.424c-9.49-1.513-15.815-4.012-17.081-8.338
	c0,0-45.778,23.525-18.693,62.763l90.086,20.999l14.423-3.361L149.838,145.096z"/>
<g>
	<path style="fill:#55C2E3;" d="M301.164,145.096H120.992c-11.598,0-20.999,9.401-20.999,20.999l0,0
		c0,11.598,9.401,20.999,20.999,20.999h180.171c11.598,0,20.999-9.401,20.999-20.999l0,0
		C322.163,154.497,312.762,145.096,301.164,145.096z"/>
	<path style="fill:#55C2E3;" d="M249.986,443.582h-77.815c-9.526,0-17.249,7.722-17.249,17.249s7.722,17.249,17.249,17.249h77.815
		c9.526,0,17.249-7.722,17.249-17.249S259.512,443.582,249.986,443.582z"/>
</g>
<g>
</g>
<g>
</g>
<g>
</g>
<g>
</g>
<g>
</g>
<g>
</g>
<g>
</g>
<g>
</g>
<g>
</g>
<g>
</g>
<g>
</g>
<g>
</g>
<g>
</g>
<g>
</g>
<g>
</g>
</svg>
