<?xml version="1.0" encoding="iso-8859-1"?>
<!-- Generator: Adobe Illustrator 19.0.0, SVG Export Plug-In . SVG Version: 6.00 Build 0)  -->
<svg version="1.1" id="Capa_1" xmlns="http://www.w3.org/2000/svg" xmlns:xlink="http://www.w3.org/1999/xlink" x="0px" y="0px"
	 viewBox="0 0 512.001 512.001" style="enable-background:new 0 0 512.001 512.001;" xml:space="preserve">
<path style="fill:#E6B25B;" d="M454.828,0.001H57.172C25.597,0.001,0,25.597,0,57.172V454.83C0,486.404,25.597,512,57.172,512
	h397.657c31.575,0,57.172-25.597,57.172-57.172V57.172C512,25.597,486.403,0.001,454.828,0.001z"/>
<path style="fill:#BF944C;" d="M24.724,454.829V57.172c0-31.575,25.597-57.172,57.172-57.172H57.172C25.597,0.001,0,25.597,0,57.172
	V454.83C0,486.404,25.597,512,57.172,512h24.724C50.321,512,24.724,486.404,24.724,454.829z"/>
<path style="fill:#FEE333;" d="M428.779,49.865H83.221c-18.422,0-33.356,14.934-33.356,33.356v345.558
	c0,18.422,14.933,33.356,33.356,33.356h345.558c18.422,0,33.356-14.934,33.356-33.356V83.222
	C462.135,64.8,447.201,49.865,428.779,49.865z"/>
<path style="fill:#FECE00;" d="M91.072,428.779V83.222c0-18.422,14.934-33.356,33.356-33.356H83.221
	c-18.422,0-33.356,14.933-33.356,33.356v345.558c0,18.422,14.934,33.356,33.356,33.356h41.207
	C106.007,462.136,91.072,447.202,91.072,428.779z"/>
<path style="fill:#E6B25B;" d="M462.135,316.986H332.437V195.015h129.697c4.267,0,7.726-3.459,7.726-7.726
	c0-4.267-3.459-7.726-7.726-7.726H332.437V49.865c0-4.267-3.459-7.726-7.726-7.726c-4.267,0-7.726,3.459-7.726,7.726v129.697
	h-121.97V49.865c0-4.267-3.459-7.726-7.726-7.726c-4.267,0-7.726,3.459-7.726,7.726v129.697H49.865
	c-4.267,0-7.726,3.459-7.726,7.726c0,4.267,3.459,7.726,7.726,7.726h129.697v121.97H49.866c-4.267,0-7.726,3.459-7.726,7.726
	c0,4.267,3.459,7.726,7.726,7.726h129.696v129.696c0,4.267,3.459,7.726,7.726,7.726c4.267,0,7.726-3.459,7.726-7.726V332.439h121.97
	v129.696c0,4.267,3.459,7.726,7.726,7.726c4.267,0,7.726-3.459,7.726-7.726V332.439h129.697c4.267,0,7.726-3.459,7.726-7.726
	C469.86,320.446,466.402,316.986,462.135,316.986z M195.014,316.986V195.015h121.97v121.97h-121.97V316.986z"/>
<g>
	<polygon style="fill:#BF944C;" points="49.866,316.986 49.865,316.986 49.865,332.439 49.866,332.439 91.072,332.439 
		91.072,316.986 	"/>
	<polygon style="fill:#BF944C;" points="49.865,179.562 49.865,195.015 49.865,195.015 91.072,195.015 91.072,179.562 	"/>
</g>
<g>
	<path style="fill:#3B484A;" d="M147.036,266.3c-4.267,0-7.726-3.459-7.726-7.726v-19.721c0-4.267,3.459-7.726,7.726-7.726
		c4.267,0,7.726,3.459,7.726,7.726v19.721C154.762,262.841,151.303,266.3,147.036,266.3z"/>
	<path style="fill:#3B484A;" d="M364.964,266.3c-4.267,0-7.726-3.459-7.726-7.726v-19.721c0-4.267,3.459-7.726,7.726-7.726
		c4.267,0,7.726,3.459,7.726,7.726v19.721C372.691,262.841,369.231,266.3,364.964,266.3z"/>
	<path style="fill:#3B484A;" d="M256,280.874c-15.109,0-29.273-6.291-38.862-17.261c-2.808-3.213-2.481-8.094,0.732-10.902
		c3.213-2.808,8.094-2.481,10.902,0.732c6.653,7.612,16.578,11.978,27.227,11.978s20.573-4.366,27.226-11.978
		c2.809-3.214,7.69-3.54,10.902-0.732c3.213,2.808,3.541,7.689,0.732,10.902C285.273,274.583,271.108,280.874,256,280.874z"/>
</g>
<g>
</g>
<g>
</g>
<g>
</g>
<g>
</g>
<g>
</g>
<g>
</g>
<g>
</g>
<g>
</g>
<g>
</g>
<g>
</g>
<g>
</g>
<g>
</g>
<g>
</g>
<g>
</g>
<g>
</g>
</svg>
