<?xml version="1.0" encoding="iso-8859-1"?>
<!-- Generator: Adobe Illustrator 19.0.0, SVG Export Plug-In . SVG Version: 6.00 Build 0)  -->
<svg version="1.1" id="Capa_1" xmlns="http://www.w3.org/2000/svg" xmlns:xlink="http://www.w3.org/1999/xlink" x="0px" y="0px"
	 viewBox="0 0 512 512" style="enable-background:new 0 0 512 512;" xml:space="preserve">
<g>
	
		<rect x="411.508" y="49.644" transform="matrix(-0.7071 -0.7071 0.7071 -0.7071 667.8634 447.4399)" style="fill:#D4D2D3;" width="30.184" height="71.514"/>
	<path style="fill:#D4D2D3;" d="M123.343,388.658l-37.936,2.245L0.613,507.142c-2.043,2.801,1.444,6.288,4.245,4.245l116.239-84.793
		L123.343,388.658z"/>
</g>
<path style="fill:#BAB8B9;" d="M123.343,388.658l-11.614,0.687l-1.558,26.323l-91.543,66.777L0.613,507.142
	c-2.043,2.801,1.444,6.288,4.245,4.245l116.24-84.793L123.343,388.658z"/>
<circle style="fill:#A8503C;" cx="370.886" cy="141.114" r="61.904"/>
<path style="fill:#993E29;" d="M432.219,149.427c-2.722,4.871-6.136,9.459-10.276,13.599c-24.173,24.173-63.365,24.173-87.539,0
	c-14.207-14.207-20.052-33.6-17.56-52.085c-13.17,23.566-9.756,53.906,10.276,73.938c24.173,24.173,63.365,24.173,87.539,0
	C424.624,174.914,430.47,162.394,432.219,149.427z"/>
<circle style="fill:#A8503C;" cx="269.001" cy="242.999" r="61.904"/>
<path style="fill:#993E29;" d="M330.331,251.315c-2.722,4.871-6.136,9.459-10.276,13.599c-24.173,24.173-63.365,24.173-87.539,0
	c-14.207-14.207-20.054-33.6-17.56-52.085c-13.17,23.566-9.756,53.906,10.276,73.938c24.173,24.173,63.365,24.173,87.539,0
	C322.736,276.803,328.582,264.282,330.331,251.315z"/>
<circle style="fill:#A8503C;" cx="167.116" cy="344.884" r="61.904"/>
<path style="fill:#993E29;" d="M228.442,353.204c-2.722,4.871-6.136,9.459-10.276,13.599c-24.173,24.173-63.365,24.173-87.539,0
	c-14.207-14.207-20.052-33.6-17.56-52.085c-13.17,23.566-9.756,53.906,10.276,73.938c24.173,24.173,63.365,24.173,87.539,0
	C220.847,378.691,226.693,366.171,228.442,353.204z"/>
<g>
	<path style="fill:#3B484A;" d="M346.42,128.528c-1.977,0-3.955-0.754-5.464-2.263c-3.017-3.017-3.016-7.91,0.001-10.926
		l4.053-4.052c3.017-3.017,7.909-3.016,10.926,0.001c3.017,3.017,3.016,7.91-0.001,10.926l-4.053,4.052
		C350.375,127.775,348.397,128.528,346.42,128.528z"/>
	<path style="fill:#3B484A;" d="M391.199,173.306c-1.977,0-3.955-0.754-5.463-2.263c-3.017-3.017-3.017-7.91,0-10.926l4.052-4.052
		c3.017-3.017,7.91-3.017,10.926,0c3.017,3.017,3.017,7.91,0,10.926l-4.052,4.052C395.154,172.551,393.176,173.306,391.199,173.306z
		"/>
	<path style="fill:#3B484A;" d="M374.806,157.724c-5.346,0-10.551-2.174-14.453-6.076c-4.223-4.223-6.421-9.972-6.031-15.775
		c0.285-4.257,3.955-7.48,8.227-7.191c4.258,0.286,7.477,3.969,7.191,8.227c-0.091,1.353,0.471,2.742,1.54,3.812
		c1.07,1.07,2.462,1.627,3.812,1.54c4.249-0.293,7.941,2.933,8.227,7.191c0.286,4.258-2.933,7.941-7.191,8.227
		C375.685,157.71,375.244,157.724,374.806,157.724z"/>
	<path style="fill:#3B484A;" d="M292.412,272.093c-1.977,0-3.955-0.754-5.463-2.263c-3.017-3.017-3.017-7.91,0-10.926l4.053-4.053
		c3.017-3.017,7.91-3.017,10.926,0c3.017,3.017,3.017,7.91,0,10.926l-4.053,4.053C296.367,271.338,294.39,272.093,292.412,272.093z"
		/>
	<path style="fill:#3B484A;" d="M247.634,227.315c-1.977,0-3.955-0.754-5.463-2.263c-3.017-3.017-3.017-7.91,0-10.926l4.052-4.052
		c3.017-3.017,7.91-3.017,10.926,0c3.017,3.017,3.017,7.91,0,10.926l-4.052,4.052C251.589,226.56,249.612,227.315,247.634,227.315z"
		/>
	<path style="fill:#3B484A;" d="M276.018,256.51c-5.347,0-10.552-2.173-14.453-6.075c-4.223-4.223-6.42-9.971-6.032-15.774
		c0.285-4.258,3.968-7.469,8.226-7.192c4.258,0.285,7.477,3.969,7.192,8.226c-0.091,1.354,0.471,2.743,1.54,3.813
		c1.07,1.069,2.459,1.628,3.812,1.54c4.25-0.292,7.941,2.933,8.227,7.191c0.286,4.258-2.933,7.941-7.191,8.227
		C276.899,256.496,276.458,256.51,276.018,256.51z"/>
	<path style="fill:#3B484A;" d="M142.643,332.306c-1.977,0-3.955-0.754-5.464-2.263c-3.017-3.017-3.016-7.91,0.001-10.926
		l4.053-4.052c3.017-3.017,7.909-3.016,10.926,0.001c3.017,3.017,3.016,7.91-0.001,10.926l-4.053,4.052
		C146.598,331.552,144.62,332.306,142.643,332.306z"/>
	<path style="fill:#3B484A;" d="M187.421,377.084c-1.977,0-3.955-0.754-5.463-2.263c-3.017-3.017-3.017-7.91,0-10.926l4.053-4.053
		c3.017-3.017,7.91-3.017,10.926,0c3.017,3.017,3.017,7.91,0,10.926l-4.053,4.053C191.376,376.328,189.398,377.084,187.421,377.084z
		"/>
	<path style="fill:#3B484A;" d="M171.028,361.501c-5.346,0-10.551-2.173-14.453-6.075c-4.223-4.224-6.421-9.973-6.032-15.775
		c0.285-4.258,3.974-7.475,8.226-7.192c4.258,0.285,7.477,3.969,7.192,8.226c-0.091,1.354,0.471,2.744,1.54,3.814
		s2.461,1.627,3.812,1.539c4.256-0.298,7.941,2.933,8.227,7.191c0.286,4.258-2.933,7.941-7.191,8.227
		C171.908,361.487,171.467,361.501,171.028,361.501z"/>
</g>
<path style="fill:#F9545B;" d="M363.714,209.993l-61.707-61.707c-7.133-7.133-18.698-7.133-25.831,0l0,0
	c-7.133,7.133-7.133,18.698,0,25.831l61.707,61.707c7.133,7.133,18.698,7.133,25.831,0l0,0
	C370.847,228.691,370.847,217.126,363.714,209.993z"/>
<path style="fill:#E64047;" d="M363.715,209.993l-21.853-21.853c7.133,7.133,7.133,18.698,0,25.831l0,0
	c-7.133,7.133-18.698,7.133-25.831,0l21.853,21.853c7.133,7.133,18.698,7.133,25.831,0l0,0
	C370.847,228.691,370.847,217.126,363.715,209.993z"/>
<path style="fill:#FEDD00;" d="M261.826,311.882l-61.707-61.707c-7.133-7.133-18.698-7.133-25.831,0l0,0
	c-7.133,7.133-7.133,18.698,0,25.831l61.707,61.707c7.133,7.133,18.698,7.133,25.831,0l0,0
	C268.959,330.58,268.959,319.015,261.826,311.882z"/>
<path style="fill:#E6BB00;" d="M261.826,311.882l-21.853-21.853c7.133,7.133,7.133,18.698,0,25.831l0,0
	c-7.133,7.133-18.698,7.133-25.831,0l21.853,21.853c7.133,7.133,18.698,7.133,25.831,0l0,0
	C268.959,330.58,268.959,319.015,261.826,311.882z"/>
<path style="fill:#4CC7B3;" d="M159.937,413.77L98.23,352.064c-7.133-7.133-18.698-7.133-25.831,0l0,0
	c-7.133,7.133-7.133,18.698,0,25.831l61.707,61.707c7.133,7.133,18.698,7.133,25.831,0l0,0
	C167.07,432.468,167.07,420.903,159.937,413.77z"/>
<path style="fill:#42AD9C;" d="M159.937,413.77l-21.853-21.853c7.133,7.133,7.133,18.698,0,25.831l0,0
	c-7.133,7.133-18.698,7.133-25.831,0l21.853,21.853c7.133,7.133,18.698,7.133,25.831,0l0,0
	C167.07,432.468,167.07,420.903,159.937,413.77z"/>
<path style="fill:#3B484A;" d="M499.608,12.392c-16.523-16.523-43.313-16.523-59.836,0s-16.523,43.313,0,59.836
	s43.313,16.523,59.836,0C516.131,55.705,516.131,28.915,499.608,12.392z M456.681,55.319c-7.184-7.184-7.184-18.833,0-26.017
	s18.833-7.184,26.017,0s7.184,18.833,0,26.017S463.866,62.503,456.681,55.319z"/>
<g>
</g>
<g>
</g>
<g>
</g>
<g>
</g>
<g>
</g>
<g>
</g>
<g>
</g>
<g>
</g>
<g>
</g>
<g>
</g>
<g>
</g>
<g>
</g>
<g>
</g>
<g>
</g>
<g>
</g>
</svg>
