<?xml version="1.0" encoding="iso-8859-1"?>
<!-- Generator: Adobe Illustrator 19.0.0, SVG Export Plug-In . SVG Version: 6.00 Build 0)  -->
<svg version="1.1" id="Capa_1" xmlns="http://www.w3.org/2000/svg" xmlns:xlink="http://www.w3.org/1999/xlink" x="0px" y="0px"
	 viewBox="0 0 512 512" style="enable-background:new 0 0 512 512;" xml:space="preserve">
<g>
	<path style="fill:#FDC464;" d="M315.357,210.204l51.274-199.975c1.866-7.278,9.28-11.666,16.558-9.8
		c7.278,1.867,11.666,9.28,9.8,16.558c-0.031,0.122-0.08,0.3-0.114,0.419l-57.638,198.235c-1.59,5.465-7.308,8.608-12.773,7.019
		C317.109,221.103,313.989,215.566,315.357,210.204z"/>
	<path style="fill:#FDC464;" d="M359.748,209.294l80.1-190.27c2.915-6.925,10.893-10.176,17.818-7.261s10.176,10.893,7.261,17.818
		c-0.048,0.115-0.124,0.284-0.175,0.398l-86.139,187.613c-2.375,5.173-8.494,7.441-13.666,5.065
		C359.88,220.333,357.608,214.398,359.748,209.294z"/>
</g>
<path style="fill:#E6B25B;" d="M344.963,94.735l-29.606,115.469c-1.368,5.362,1.752,10.899,7.106,12.456
	c5.465,1.589,11.185-1.553,12.773-7.019l29.562-101.672C358.82,106.941,352.178,100.496,344.963,94.735z"/>
<path style="fill:#E6CD2E;" d="M256,318.252c-61.7,0-111.897-50.197-111.897-111.897c0-61.7,50.198-111.897,111.897-111.897
	s111.897,50.198,111.897,111.897C367.897,268.055,317.699,318.252,256,318.252z"/>
<path style="fill:#E6BA00;" d="M256,282.539c-42.009,0-76.185-34.176-76.185-76.185s34.177-76.185,76.185-76.185
	s76.185,34.177,76.185,76.185C332.185,248.363,298.009,282.539,256,282.539z"/>
<circle style="fill:#E6CD2E;" cx="256" cy="206.355" r="40.476"/>
<path style="fill:#E6B25B;" d="M388.902,140.042l-29.154,69.254c-2.142,5.104,0.131,11.038,5.198,13.365
	c5.173,2.375,11.291,0.107,13.666-5.065l32.284-70.316C403.837,144.292,396.486,141.867,388.902,140.042z"/>
<path style="fill:#FEE333;" d="M355.464,390.777c61.7,0,111.897-50.197,111.897-111.897c0-61.7-50.198-111.897-111.897-111.897
	S243.567,217.18,243.567,278.88C243.567,340.581,293.764,390.777,355.464,390.777z"/>
<path style="fill:#FECE00;" d="M355.464,355.066c42.009,0,76.185-34.176,76.185-76.185c0-42.009-34.177-76.185-76.185-76.185
	s-76.185,34.177-76.185,76.185C279.279,320.89,313.455,355.066,355.464,355.066z"/>
<circle style="fill:#FEE333;" cx="355.464" cy="278.88" r="40.476"/>
<rect x="162.758" y="427.123" style="fill:#EEECED;" width="186.483" height="84.877"/>
<rect x="162.758" y="427.123" style="fill:#D4D2D3;" width="41.207" height="84.877"/>
<path style="fill:#FECE00;" d="M156.536,390.777c-61.7,0-111.897-50.197-111.897-111.897c0-61.7,50.198-111.897,111.897-111.897
	s111.897,50.198,111.897,111.897C268.433,340.581,218.235,390.777,156.536,390.777z"/>
<path style="fill:#FEE333;" d="M156.536,355.066c-42.009,0-76.185-34.176-76.185-76.185c0-42.009,34.177-76.185,76.185-76.185
	s76.185,34.177,76.185,76.185C232.721,320.89,198.545,355.066,156.536,355.066z"/>
<circle style="fill:#FECE00;" cx="156.536" cy="278.88" r="40.476"/>
<path style="fill:#F9545B;" d="M256,282.539l-233.72,28.46c9.76,86.337,83.042,153.424,171.979,153.424H317.74
	c88.938,0,162.22-67.086,171.979-153.424L256,282.539z"/>
<path style="fill:#E64047;" d="M63.487,310.999l213.117-25.95L256,282.54L22.28,310.999c9.76,86.337,83.042,153.424,171.979,153.424
	h41.207C146.529,464.423,73.247,397.336,63.487,310.999z"/>
<path style="fill:#EEECED;" d="M490.829,268.52v22.814c0,6.652-0.373,13.21-1.108,19.665H22.28
	c-0.736-6.455-1.108-13.013-1.108-19.665V268.52H490.829z"/>
<path style="fill:#D4D2D3;" d="M62.378,268.52H21.171v22.814c0,6.652,0.373,13.21,1.108,19.665h41.207
	c-0.736-6.455-1.108-13.013-1.108-19.665V268.52z"/>
<g>
	<path style="fill:#3B484A;" d="M178.062,385.012c-4.268,0-7.726-3.459-7.726-7.726v-14.105c0-4.267,3.458-7.726,7.726-7.726
		c4.268,0,7.726,3.459,7.726,7.726v14.105C185.788,381.553,182.33,385.012,178.062,385.012z"/>
	<path style="fill:#3B484A;" d="M333.938,385.012c-4.268,0-7.726-3.459-7.726-7.726v-14.105c0-4.267,3.458-7.726,7.726-7.726
		c4.268,0,7.726,3.459,7.726,7.726v14.105C341.665,381.553,338.205,385.012,333.938,385.012z"/>
	<path style="fill:#3B484A;" d="M256,395.437c-11.44,0-22.176-4.774-29.452-13.099c-2.809-3.213-2.481-8.094,0.732-10.902
		c3.211-2.808,8.092-2.481,10.901,0.732c4.342,4.968,10.836,7.816,17.818,7.816c6.982,0,13.476-2.848,17.818-7.815
		c2.808-3.213,7.688-3.541,10.902-0.732c3.212,2.808,3.541,7.689,0.731,10.902C278.176,390.663,267.441,395.437,256,395.437z"/>
</g>
<g>
</g>
<g>
</g>
<g>
</g>
<g>
</g>
<g>
</g>
<g>
</g>
<g>
</g>
<g>
</g>
<g>
</g>
<g>
</g>
<g>
</g>
<g>
</g>
<g>
</g>
<g>
</g>
<g>
</g>
</svg>
