<?xml version="1.0" encoding="iso-8859-1"?>
<!-- Generator: Adobe Illustrator 19.0.0, SVG Export Plug-In . SVG Version: 6.00 Build 0)  -->
<svg version="1.1" id="Capa_1" xmlns="http://www.w3.org/2000/svg" xmlns:xlink="http://www.w3.org/1999/xlink" x="0px" y="0px"
	 viewBox="0 0 512 512" style="enable-background:new 0 0 512 512;" xml:space="preserve">
<path style="fill:#D4D2D3;" d="M5.119,116.91c0,0,67.051-94.076,250.881-94.076s250.881,94.076,250.881,94.076L256,322.701
	L5.119,116.91z"/>
<path style="fill:#FDC464;" d="M72.971,127.603L72.971,127.603c13.544-4.772,21.587-18.704,18.948-32.82l0,0
	c-3.526-18.86,11.832-35.917,30.957-34.381l0,0c14.314,1.15,27.329-8.306,30.659-22.276l0,0
	c4.449-18.664,25.418-27.999,42.264-18.817l0,0c12.608,6.872,28.345,3.527,37.069-7.879l0,0c11.655-15.24,34.608-15.24,46.264,0l0,0
	c8.724,11.406,24.46,14.751,37.068,7.879l0,0c16.847-9.182,37.815,0.153,42.264,18.817l0,0c3.33,13.968,16.345,23.424,30.659,22.276
	l0,0c19.125-1.536,34.483,15.521,30.957,34.381l0,0c-2.639,14.116,18.948,32.82,18.948,32.82L256,288.892L72.971,127.603z"/>
<path style="fill:#E6B25B;" d="M92.221,96.835c1.537,13.393-6.363,26.227-19.25,30.767l0,0L256,288.892l40.405-35.606
	c-11.904-22.536-25.855-43.011-41.722-61.187C212.89,144.229,158.449,112.365,92.221,96.835z"/>
<path style="fill:#EEECED;" d="M256,245.257l-40.18,103.328l97.596,159.328C454.365,313.005,506.881,116.91,506.881,116.91
	C376.026,120.771,299.965,176.778,256,245.257z"/>
<path style="fill:#D4D2D3;" d="M340.963,399.544c-4.873-36.804-13.337-71.44-25.155-102.943
	c-10.743-28.638-24.31-54.731-40.464-77.957c-7.052,8.588-13.486,17.488-19.345,26.613l-40.18,103.328l97.596,159.328
	c11.305-15.633,22.039-31.273,32.224-46.82C345.279,443.664,344.022,422.636,340.963,399.544z"/>
<path style="fill:#EEECED;" d="M313.416,507.913c0,0,40.465-380.714-308.297-391.003c0,0,53.999,191.091,202.463,391.003H313.416z"
	/>
<path style="fill:#EB98A3;" d="M373.195,405.799H145.663c-5.102,0-8.232,5.598-5.545,9.935
	c18.996,30.665,40.349,62.518,64.182,94.611l1.226,1.655h109.983l1.216-1.697c23.069-31.888,43.725-63.809,62.077-94.671
	C381.382,411.294,378.245,405.799,373.195,405.799z"/>
<g>
	<path style="fill:#3B484A;" d="M188.38,120.389c-4.268,0-7.726-3.459-7.726-7.726v-12.238c0-4.267,3.458-7.726,7.726-7.726
		s7.726,3.459,7.726,7.726v12.238C196.107,116.929,192.647,120.389,188.38,120.389z"/>
	<path style="fill:#3B484A;" d="M323.62,120.389c-4.268,0-7.726-3.459-7.726-7.726v-12.238c0-4.267,3.458-7.726,7.726-7.726
		c4.268,0,7.726,3.459,7.726,7.726v12.238C331.347,116.929,327.888,120.389,323.62,120.389z"/>
	<path style="fill:#3B484A;" d="M256.001,129.434c-10.221,0-19.816-4.27-26.323-11.714c-2.809-3.213-2.481-8.094,0.732-10.902
		c3.213-2.807,8.094-2.481,10.901,0.732c3.573,4.087,8.927,6.431,14.689,6.431c5.762,0,11.116-2.344,14.688-6.43
		c2.808-3.214,7.689-3.541,10.901-0.732c3.213,2.808,3.542,7.689,0.732,10.902C275.816,125.163,266.222,129.434,256.001,129.434z"/>
</g>
<g>
</g>
<g>
</g>
<g>
</g>
<g>
</g>
<g>
</g>
<g>
</g>
<g>
</g>
<g>
</g>
<g>
</g>
<g>
</g>
<g>
</g>
<g>
</g>
<g>
</g>
<g>
</g>
<g>
</g>
</svg>
