<?xml version="1.0" encoding="iso-8859-1"?>
<!-- Generator: Adobe Illustrator 19.0.0, SVG Export Plug-In . SVG Version: 6.00 Build 0)  -->
<svg version="1.1" id="Capa_1" xmlns="http://www.w3.org/2000/svg" xmlns:xlink="http://www.w3.org/1999/xlink" x="0px" y="0px"
	 viewBox="0 0 512 512" style="enable-background:new 0 0 512 512;" xml:space="preserve">
<g>
	<circle style="fill:#A8503C;" cx="256.495" cy="27.274" r="27.274"/>
	<circle style="fill:#A8503C;" cx="75.43" cy="95.539" r="27.274"/>
	<circle style="fill:#A8503C;" cx="436.57" cy="95.539" r="27.274"/>
</g>
<g>
	<polygon style="fill:#EB98A3;" points="301.693,230.593 210.307,230.593 186.978,367.586 228.701,512 283.299,512 329.214,371.297 
			"/>
	<path style="fill:#EB98A3;" d="M136.871,243.98L70.579,209.25l-25.251,58.486l56.425,210.99
		C107.001,498.351,124.78,512,145.094,512h26.22l15.664-144.414L136.871,243.98z"/>
	<path style="fill:#EB98A3;" d="M431.21,223.172l-56.082,20.808l-50.106,123.606l14.366,132.447L337.718,512h29.188
		c20.314,0,38.093-13.649,43.341-33.274l56.425-210.989L431.21,223.172z"/>
</g>
<g>
	<path style="fill:#FA7578;" d="M375.129,243.98l-23.372,57.654c8.33-3.187,16.186-7.463,23.368-12.742
		c16.955,12.464,37.641,19.397,59.563,19.397c1.003,0,2.003-0.015,3.007-0.044c6.412-0.19,12.729-1.091,18.851-2.645l10.126-37.862
		l-35.462-44.565L375.129,243.98z"/>
	<path style="fill:#FA7578;" d="M315.562,308.289c0.443,0,0.881-0.021,1.323-0.026l-15.192-77.67h-91.385l-13.23,77.684
		c21.684-0.135,42.132-7.04,58.92-19.384C272.953,301.357,293.64,308.289,315.562,308.289z"/>
	<path style="fill:#FA7578;" d="M160.243,301.635l-23.372-57.655L70.579,209.25l-25.251,58.486L55.454,305.6
		c6.121,1.555,12.437,2.455,18.847,2.644c0.999,0.03,2.002,0.044,3.009,0.044c21.923,0,42.608-6.931,59.563-19.397
		C144.054,294.171,151.912,298.447,160.243,301.635z"/>
</g>
<g>
	<polygon style="fill:#80E2FF;" points="375.129,243.98 337.718,512 283.299,512 301.693,230.593 328.813,230.593 	"/>
	<polygon style="fill:#80E2FF;" points="228.701,512 171.314,512 136.871,243.98 183.365,230.593 210.307,230.593 	"/>
</g>
<g>
	<path style="fill:#45B6D9;" d="M296.729,306.531c6.133,1.149,12.427,1.757,18.833,1.757c19.027,0,37.118-5.227,52.651-14.756
		l6.917-49.553l-46.316-13.387h-27.121L296.729,306.531z"/>
	<path style="fill:#45B6D9;" d="M143.192,293.169c15.664,9.76,33.975,15.12,53.244,15.12c6.407,0,12.702-0.609,18.835-1.757
		l-4.963-75.939h-26.942l-46.494,13.387L143.192,293.169z"/>
</g>
<path style="fill:#FB8D4B;" d="M491.555,210.646C482.12,149.876,440.253,27.274,256,27.274
	c-184.251,0-226.119,122.601-235.555,183.372c-5.293,34.089,20.289,65.689,54.772,66.705c0.695,0.021,1.393,0.031,2.093,0.031
	c25.211,0,47.3-13.368,59.564-33.403v0.003c12.265,20.032,34.352,33.398,59.562,33.398c25.211,0,47.3-13.368,59.564-33.403v0.003
	c12.265,20.032,34.352,33.398,59.562,33.398c25.211,0,47.3-13.368,59.564-33.403v0.003c12.265,20.032,34.352,33.398,59.562,33.398
	c0.702,0,1.4-0.01,2.096-0.031C471.266,276.335,496.847,244.735,491.555,210.646z"/>
<path style="fill:#E86D24;" d="M55.471,210.647c9.129-58.797,48.625-175.461,218.042-182.984C267.82,27.41,261.99,27.275,256,27.275
	c-184.251,0-226.119,122.601-235.555,183.372c-5.293,34.089,20.289,65.689,54.772,66.705c0.695,0.021,1.393,0.031,2.093,0.031
	c6.324,0,12.451-0.842,18.276-2.419C68.868,266.907,50.962,239.686,55.471,210.647z"/>
<g>
	<path style="fill:#3B484A;" d="M172.237,170.653c-4.267,0-7.726-3.459-7.726-7.726v-15.16c0-4.267,3.459-7.726,7.726-7.726
		s7.726,3.459,7.726,7.726v15.16C179.963,167.193,176.504,170.653,172.237,170.653z"/>
	<path style="fill:#3B484A;" d="M339.763,170.653c-4.267,0-7.726-3.459-7.726-7.726v-15.16c0-4.267,3.459-7.726,7.726-7.726
		c4.267,0,7.726,3.459,7.726,7.726v15.16C347.489,167.193,344.03,170.653,339.763,170.653z"/>
	<path style="fill:#3B484A;" d="M256,181.856c-12.129,0-23.508-5.059-31.219-13.88c-2.808-3.213-2.481-8.094,0.732-10.902
		c3.213-2.808,8.093-2.481,10.902,0.732c4.776,5.463,11.913,8.597,19.584,8.597c7.671,0,14.809-3.134,19.585-8.597
		c2.808-3.213,7.689-3.541,10.902-0.732c3.213,2.808,3.541,7.689,0.731,10.902C279.508,176.798,268.129,181.856,256,181.856z"/>
</g>
<g>
	<ellipse style="fill:#A8503C;" cx="171.309" cy="95.539" rx="21.894" ry="18.402"/>
	<ellipse style="fill:#A8503C;" cx="97.332" cy="181.332" rx="21.894" ry="18.402"/>
	<ellipse style="fill:#A8503C;" cx="340.681" cy="95.539" rx="21.894" ry="18.402"/>
	<ellipse style="fill:#A8503C;" cx="414.669" cy="181.332" rx="21.894" ry="18.402"/>
</g>
<g>
</g>
<g>
</g>
<g>
</g>
<g>
</g>
<g>
</g>
<g>
</g>
<g>
</g>
<g>
</g>
<g>
</g>
<g>
</g>
<g>
</g>
<g>
</g>
<g>
</g>
<g>
</g>
<g>
</g>
</svg>
