<?xml version="1.0" encoding="iso-8859-1"?>
<!-- Generator: Adobe Illustrator 19.0.0, SVG Export Plug-In . SVG Version: 6.00 Build 0)  -->
<svg version="1.1" id="Capa_1" xmlns="http://www.w3.org/2000/svg" xmlns:xlink="http://www.w3.org/1999/xlink" x="0px" y="0px"
	 viewBox="0 0 511.999 511.999" style="enable-background:new 0 0 511.999 511.999;" xml:space="preserve">
<path style="fill:#EEECED;" d="M480.789,166.757L480.789,166.757c-16.669-12.923-27.607-31.866-30.464-52.763l0,0
	c-5.616-41.087-41.503-71.199-82.94-69.595l0,0c-21.075,0.816-41.631-6.665-57.251-20.837l0,0
	c-30.712-27.864-77.558-27.864-108.27,0l0,0c-15.621,14.172-36.176,21.653-57.251,20.837l0,0
	c-41.437-1.604-77.324,28.508-82.94,69.595l0,0c-2.857,20.897-13.793,39.841-30.462,52.763l0,0
	c-32.774,25.406-40.908,71.542-18.801,106.626l0,0c11.244,17.844,15.043,39.386,10.58,60l0,0
	c-8.775,40.529,14.648,81.1,54.135,93.765l0,0c20.083,6.442,36.84,20.503,46.671,39.162l0,0
	c19.329,36.688,63.351,52.71,101.741,37.031l0,0c19.526-7.975,41.4-7.975,60.926,0l0,0c38.39,15.679,82.411-0.343,101.741-37.031
	l0,0c9.831-18.66,26.588-32.721,46.671-39.162l0,0c39.487-12.665,62.91-53.236,54.135-93.765l0,0
	c-4.463-20.614-0.664-42.156,10.58-60l0,0C521.697,238.299,513.563,192.164,480.789,166.757z"/>
<path style="fill:#D4D2D3;" d="M72.432,357.232L72.432,357.232c4.986-23.03,0.743-47.096-11.819-67.031l0,0
	c-24.699-39.194-15.61-90.736,21.004-119.12l0,0c18.623-14.437,30.842-35.6,34.032-58.946l0,0
	c4.454-32.592,25.968-58.986,54.637-70.92c-8.259,2.41-16.918,3.523-25.673,3.184l0,0c-41.437-1.604-77.324,28.508-82.94,69.595l0,0
	c-2.857,20.897-13.793,39.841-30.462,52.763l0,0C-1.564,192.165-9.698,238.3,12.409,273.384l0,0
	c11.244,17.844,15.043,39.386,10.58,60l0,0c-8.775,40.529,14.648,81.1,54.135,93.765l0,0c4.597,1.474,9.008,3.366,13.213,5.602
	C73.804,412.214,66.48,384.721,72.432,357.232z"/>
<circle style="fill:#FEDD00;" cx="255.999" cy="255.999" r="124.745"/>
<path style="fill:#E6BB00;" d="M286.904,370.44c-68.893,0-124.743-55.849-124.743-124.743c0-49.311,28.614-91.933,70.142-112.183
	c-57.56,11.07-101.047,61.694-101.047,122.484c0,68.893,55.849,124.743,124.743,124.743c19.583,0,38.109-4.517,54.601-12.559
	C302.927,369.658,295.008,370.44,286.904,370.44z"/>
<g>
	<path style="fill:#3B484A;" d="M202.421,264.991c-4.267,0-7.726-3.459-7.726-7.726v-9.696c0-4.267,3.459-7.726,7.726-7.726
		c4.267,0,7.726,3.459,7.726,7.726v9.696C210.148,261.531,206.688,264.991,202.421,264.991z"/>
	<path style="fill:#3B484A;" d="M309.577,264.991c-4.267,0-7.726-3.459-7.726-7.726v-9.696c0-4.267,3.459-7.726,7.726-7.726
		c4.267,0,7.726,3.459,7.726,7.726v9.696C317.303,261.531,313.844,264.991,309.577,264.991z"/>
	<path style="fill:#3B484A;" d="M255.999,272.157c-8.562,0-16.604-3.583-22.064-9.83c-2.808-3.213-2.481-8.094,0.732-10.902
		c3.212-2.807,8.093-2.481,10.902,0.732c2.526,2.89,6.327,4.547,10.43,4.547s7.905-1.658,10.431-4.547
		c2.809-3.213,7.69-3.541,10.902-0.732c3.213,2.808,3.541,7.689,0.732,10.902C272.602,268.575,264.561,272.157,255.999,272.157z"/>
</g>
<g>
</g>
<g>
</g>
<g>
</g>
<g>
</g>
<g>
</g>
<g>
</g>
<g>
</g>
<g>
</g>
<g>
</g>
<g>
</g>
<g>
</g>
<g>
</g>
<g>
</g>
<g>
</g>
<g>
</g>
</svg>
