<?xml version="1.0" encoding="iso-8859-1"?>
<!-- Generator: Adobe Illustrator 19.0.0, SVG Export Plug-In . SVG Version: 6.00 Build 0)  -->
<svg version="1.1" id="Capa_1" xmlns="http://www.w3.org/2000/svg" xmlns:xlink="http://www.w3.org/1999/xlink" x="0px" y="0px"
	 viewBox="0 0 512 512" style="enable-background:new 0 0 512 512;" xml:space="preserve">
<path style="fill:#F9545B;" d="M332.416,382.239H179.58c0,0-58.134,19.351-79.763,80.789L146.511,512h218.974l46.694-48.972
	C390.551,401.589,332.416,382.239,332.416,382.239z"/>
<path style="fill:#FECE00;" d="M288.831,342.706l-32.833,50.378l45.192,25.034c9.825,5.442,22.141,0.107,24.89-10.783l6.337-25.097
	L288.831,342.706z"/>
<path style="fill:#E64047;" d="M99.816,463.028l24.579,25.777c1.373-9.318,3.549-17.894,6.326-25.778
	c21.629-61.438,79.763-80.789,79.763-80.789h-30.905c0,0-0.695,0.232-1.962,0.724c-0.543,0.211-1.191,0.471-1.935,0.78
	c-1.982,0.825-4.641,2.009-7.793,3.593c-0.653,0.329-1.332,0.679-2.025,1.042c-1.216,0.638-2.491,1.329-3.819,2.077
	C143.123,401.118,113.821,423.249,99.816,463.028z"/>
<path style="fill:#FECE00;" d="M223.165,342.706l32.833,50.378l-45.192,25.034c-9.825,5.442-22.141,0.107-24.89-10.783
	l-6.337-25.097L223.165,342.706z"/>
<path style="fill:#FAC5AA;" d="M146.511,463.028V512H91.834c0-18.704,3.037-34.937,7.983-48.972H146.511z"/>
<path style="fill:#E2B195;" d="M122.74,512c0-18.704,3.037-34.935,7.983-48.973H99.817c-1.359,3.857-2.567,7.886-3.615,12.081
	c-2.764,11.069-4.368,23.327-4.368,36.892H122.74z"/>
<path style="fill:#FAC5AA;" d="M420.161,512h-54.677v-48.972h46.694C417.124,477.063,420.161,493.296,420.161,512z"/>
<path style="fill:#FECE00;" d="M326.023,458.877h-26.459c-5.928,0-10.733,4.806-10.733,10.733v7.171
	c0,5.928,4.806,10.733,10.733,10.733h26.459c5.928,0,10.733-4.806,10.733-10.733v-7.171
	C336.756,463.682,331.951,458.877,326.023,458.877z"/>
<g>
	<circle style="fill:#E2B195;" cx="462.807" cy="229.967" r="42.639"/>
	<circle style="fill:#E2B195;" cx="49.193" cy="229.967" r="42.639"/>
</g>
<path style="fill:#FAC5AA;" d="M462.792,244.341l-42.701-108.522L255.998,81.296L91.914,135.819l-42.71,108.522l-0.01-0.01
	c21.09,90.259,97.474,148.753,206.805,148.753s185.715-58.494,206.805-148.753L462.792,244.341z"/>
<path style="fill:#E2B195;" d="M80.388,237.035L80.388,237.035c-6.935-29.664-8.171-62.61-2.989-97.958l7.593-10.196l-12.709-12.758
	l-25.939,34.828c-4.941,33.695-3.762,65.101,2.848,93.379l0,0c21.09,90.259,97.474,148.753,206.805,148.753
	c6.938,0,13.743-0.238,20.41-0.703C172.93,385.345,101.14,325.85,80.388,237.035z"/>
<path style="fill:#A8503C;" d="M97.739,137.901l-5.825-2.083h-0.01l-19.621-19.696l-25.939,34.83
	c-4.941,33.695-3.762,65.101,2.848,93.379l0.01,0.01C49.203,244.341,117.268,226.54,97.739,137.901z"/>
<path style="fill:#993E29;" d="M78.278,226.908c-5.012-26.976-5.48-56.455-0.879-87.831l7.593-10.196l-12.709-12.758l-7.599,10.203
	l-18.34,24.626c-0.395,2.694-0.737,5.367-1.054,8.03c-1.892,15.898-2.414,31.262-1.62,45.995c0.132,2.456,0.305,4.893,0.51,7.313
	c0.412,4.884,0.974,9.694,1.676,14.43c0.889,5.992,1.994,11.869,3.337,17.61l0,0l0,0l0,0l0.01,0.01
	C49.203,244.341,64.332,240.379,78.278,226.908z"/>
<path style="fill:#A8503C;" d="M465.651,150.952l-25.938-34.829l-19.621,19.696l-5.835,2.083
	c-19.528,88.638,48.536,106.439,48.536,106.439l0.01-0.01C469.413,216.054,470.592,184.648,465.651,150.952z"/>
<path style="fill:#3B484A;" d="M146.955,253.51c4.267,0,7.726-3.459,7.726-7.726v-21.202c0-4.267-3.459-7.726-7.726-7.726
	c-4.267,0-7.726,3.459-7.726,7.726v21.202C139.229,250.051,142.688,253.51,146.955,253.51z"/>
<path style="fill:#FA8186;" d="M161.394,269.221h-28.877c-4.267,0-7.726,3.459-7.726,7.726c0,4.267,3.459,7.726,7.726,7.726h28.877
	c4.267,0,7.726-3.459,7.726-7.726C169.121,272.681,165.661,269.221,161.394,269.221z"/>
<path style="fill:#3B484A;" d="M365.039,253.51c4.267,0,7.726-3.459,7.726-7.726v-21.202c0-4.267-3.459-7.726-7.726-7.726
	c-4.267,0-7.726,3.459-7.726,7.726v21.202C357.313,250.051,360.772,253.51,365.039,253.51z"/>
<path style="fill:#FA8186;" d="M379.479,269.221h-28.877c-4.267,0-7.726,3.459-7.726,7.726c0,4.267,3.459,7.726,7.726,7.726h28.877
	c4.267,0,7.726-3.459,7.726-7.726C387.205,272.681,383.746,269.221,379.479,269.221z"/>
<path style="fill:#3B484A;" d="M280.586,261.304c-3.213-2.809-8.094-2.482-10.902,0.731c-3.326,3.805-8.315,5.987-13.686,5.987
	s-10.361-2.182-13.686-5.987c-2.808-3.212-7.689-3.541-10.902-0.731c-3.213,2.808-3.541,7.689-0.732,10.902
	c6.261,7.163,15.49,11.27,25.321,11.27c9.83,0,19.059-4.107,25.32-11.27C284.127,268.994,283.798,264.112,280.586,261.304z"/>
<path style="fill:#FECE00;" d="M457.933,99.596c-2.162-14.413-10.441-27.03-22.51-34.371C399.545,43.403,320.108,0,255.998,0
	S112.451,43.403,76.573,65.225c-12.07,7.341-20.349,19.958-22.51,34.371l-1.039,6.918c21.223-6.466,92.288-25.223,202.975-25.223
	s181.752,18.757,202.975,25.223L457.933,99.596z"/>
<path style="fill:#E6BB00;" d="M107.479,65.225c33.043-20.098,103.035-58.5,163.972-64.443C266.223,0.272,261.062,0,255.998,0
	c-64.11,0-143.546,43.403-179.425,65.225c-12.07,7.341-20.349,19.958-22.51,34.371l-1.039,6.918
	c6.353-1.936,17.176-4.973,32.187-8.279C87.677,84.392,95.792,72.333,107.479,65.225z"/>
<path style="fill:#F9545B;" d="M458.972,106.514c-21.223-6.466-92.288-25.223-202.975-25.223S74.246,100.047,53.023,106.514
	l-6.679,44.441c0,0,75.894-27.385,209.654-27.385s209.654,27.385,209.654,27.385L458.972,106.514z"/>
<path style="fill:#E64047;" d="M83.451,98.626c-14.097,3.153-24.327,6.029-30.428,7.887l-6.679,44.441
	c0,0,10.991-3.963,31.957-8.872L83.451,98.626z"/>
<g>
</g>
<g>
</g>
<g>
</g>
<g>
</g>
<g>
</g>
<g>
</g>
<g>
</g>
<g>
</g>
<g>
</g>
<g>
</g>
<g>
</g>
<g>
</g>
<g>
</g>
<g>
</g>
<g>
</g>
</svg>
