<?xml version="1.0" encoding="iso-8859-1"?>
<!-- Generator: Adobe Illustrator 19.0.0, SVG Export Plug-In . SVG Version: 6.00 Build 0)  -->
<svg version="1.1" id="Capa_1" xmlns="http://www.w3.org/2000/svg" xmlns:xlink="http://www.w3.org/1999/xlink" x="0px" y="0px"
	 viewBox="0 0 512 512" style="enable-background:new 0 0 512 512;" xml:space="preserve">
<path style="fill:#E64047;" d="M444.807,295.443C569.854,104.463,457.312,21.478,256,21.478S-57.854,104.463,67.193,295.443H444.807
	z"/>
<path style="fill:#E6BB00;" d="M256,427.576L85.927,456.457l5.429,21.175C96.532,497.848,114.762,512,135.637,512h240.727
	c20.875,0,39.105-14.152,44.28-34.368l5.429-21.175L256,427.576z"/>
<path style="fill:#CCA600;" d="M132.564,477.632l-5.429-21.175l149.469-25.383L256,427.576L85.927,456.457l5.429,21.175
	C96.532,497.848,114.762,512,135.637,512h41.207C155.969,512,137.739,497.848,132.564,477.632z"/>
<path style="fill:#FB8D4B;" d="M309.771,114.886c2.351-5.149,3.637-10.722,3.637-16.537c0-26.022-25.753-47.194-57.408-47.194
	s-57.408,21.171-57.408,47.194c0,6.506,1.609,12.708,4.518,18.353l-51.791,7.755c-2.53-8.317-3.883-17.072-3.883-26.108
	C147.437,44.12,196.138,0,256,0s108.563,44.12,108.563,98.349c0,9.738-1.57,19.15-4.494,28.039L309.771,114.886z"/>
<g>
	<path style="fill:#E86D24;" d="M332.897,227.058c7.665,3.124,16.294,4.881,25.414,4.881c31.654,0,57.408-21.171,57.408-47.195
		c0-26.022-25.753-47.194-57.408-47.194s-57.408,21.171-57.408,47.194h-51.156c0-54.23,48.701-98.349,108.563-98.349
		s108.563,44.12,108.563,98.349c0,54.231-48.701,98.35-108.563,98.35c-20.354,0-39.419-5.101-55.716-13.966L332.897,227.058z"/>
	<path style="fill:#E86D24;" d="M211.097,184.744c0-26.022-25.753-47.194-57.408-47.194s-57.408,21.171-57.408,47.194
		c0,16.264,10.06,30.633,25.333,39.124l-31.574,40.507c-27.197-17.89-44.914-46.922-44.914-79.631
		c0-54.23,48.701-98.349,108.563-98.349s108.563,44.12,108.563,98.349H211.097z"/>
</g>
<path style="fill:#FB8D4B;" d="M256,339.934c-59.862,0-108.563-44.12-108.563-98.35c0-54.23,48.701-98.349,108.563-98.349
	s108.563,44.12,108.563,98.349C364.563,295.814,315.862,339.934,256,339.934z M256,194.39c-31.654,0-57.408,21.171-57.408,47.194
	c0,26.023,25.754,47.195,57.408,47.195s57.408-21.171,57.408-47.195C313.408,215.561,287.654,194.39,256,194.39z"/>
<path style="fill:#F9545B;" d="M479.317,248.573l-53.245,207.883H85.927L32.682,248.573c-2.218-8.664,1.225-17.779,8.618-22.815
	c35.015-23.844,82.229-43.228,106.985-52.574c7.879-2.98,16.635,1.478,18.761,9.634c8.803,33.583,45.285,58.767,88.953,58.767
	s80.15-25.184,88.953-58.767c2.125-8.156,10.882-12.616,18.761-9.634c24.756,9.346,71.97,28.731,106.985,52.574
	C478.093,230.795,481.535,239.909,479.317,248.573z"/>
<path style="fill:#E64047;" d="M41.301,225.757c-7.394,5.037-10.836,14.152-8.618,22.815l53.245,207.884h42.024L65.115,211.121
	C56.844,215.76,48.792,220.656,41.301,225.757z"/>
<g>
	<path style="fill:#3B484A;" d="M166.171,364.371c-4.268,0-7.726-3.459-7.726-7.726v-16.257c0-4.267,3.458-7.726,7.726-7.726
		c4.268,0,7.726,3.459,7.726,7.726v16.257C173.898,360.912,170.439,364.371,166.171,364.371z"/>
	<path style="fill:#3B484A;" d="M345.829,364.371c-4.268,0-7.726-3.459-7.726-7.726v-16.257c0-4.267,3.458-7.726,7.726-7.726
		s7.726,3.459,7.726,7.726v16.257C353.555,360.912,350.096,364.371,345.829,364.371z"/>
	<path style="fill:#3B484A;" d="M256.001,376.386c-12.846,0-24.895-5.356-33.059-14.693c-2.809-3.212-2.481-8.094,0.731-10.902
		c3.213-2.807,8.094-2.481,10.902,0.732c5.228,5.981,13.037,9.411,21.425,9.411c8.387,0,16.195-3.43,21.422-9.411
		c2.809-3.213,7.691-3.541,10.902-0.732c3.213,2.808,3.542,7.689,0.733,10.902C280.896,371.03,268.846,376.386,256.001,376.386z"/>
</g>
<g>
</g>
<g>
</g>
<g>
</g>
<g>
</g>
<g>
</g>
<g>
</g>
<g>
</g>
<g>
</g>
<g>
</g>
<g>
</g>
<g>
</g>
<g>
</g>
<g>
</g>
<g>
</g>
<g>
</g>
</svg>
