<?xml version="1.0" encoding="iso-8859-1"?>
<!-- Generator: Adobe Illustrator 19.0.0, SVG Export Plug-In . SVG Version: 6.00 Build 0)  -->
<svg version="1.1" id="Capa_1" xmlns="http://www.w3.org/2000/svg" xmlns:xlink="http://www.w3.org/1999/xlink" x="0px" y="0px"
	 viewBox="0 0 512 512" style="enable-background:new 0 0 512 512;" xml:space="preserve">
<path style="fill:#B38871;" d="M307.364,203.141c-1.421,0-2.858-0.391-4.144-1.211c-3.598-2.293-4.657-7.069-2.364-10.668
	l87.21-136.868c2.293-3.598,7.068-4.657,10.668-2.364c3.598,2.293,4.657,7.069,2.364,10.668l-87.21,136.868
	C312.415,201.878,309.917,203.141,307.364,203.141z"/>
<path style="fill:#A8503C;" d="M468.656,355.556L256,335.847L43.344,355.556c-15.084,0-27.312,12.228-27.312,27.312l0,0
	c0,15.084,12.228,27.312,27.312,27.312L256,435.681l212.656-25.5c15.084,0,27.312-12.228,27.312-27.312l0,0
	C495.968,367.784,483.74,355.556,468.656,355.556z"/>
<path style="fill:#993E29;" d="M84.551,410.181c-15.084,0-27.312-12.228-27.312-27.312l0,0c0-15.085,12.228-27.313,27.312-27.313
	l192.053-17.798L256,335.847L43.344,355.556c-15.084,0-27.312,12.228-27.312,27.313l0,0c0,15.084,12.228,27.312,27.312,27.312
	L256,435.681l20.604-2.47L84.551,410.181z"/>
<path style="fill:#EB98A3;" d="M476.875,317.369L256,297.181L35.125,317.369c-10.545,0-19.093,8.548-19.093,19.093l0,0
	c0,10.545,8.548,19.093,19.093,19.093h441.75c10.545,0,19.093-8.548,19.093-19.093l0,0
	C495.968,325.917,487.42,317.369,476.875,317.369z"/>
<path style="fill:#FA7578;" d="M57.239,336.462L57.239,336.462c0-10.545,8.548-19.093,19.093-19.093l200.271-18.305L256,297.18
	L35.125,317.369c-10.545,0-19.093,8.548-19.093,19.093l0,0c0,10.545,8.548,19.093,19.093,19.093h41.207
	C65.787,355.556,57.239,347.007,57.239,336.462z"/>
<path style="fill:#4CC7B3;" d="M476.875,279.181l-220.875-17l-220.875,17c-10.545,0-19.093,8.548-19.093,19.093l0,0
	c0,10.545,8.548,19.093,19.093,19.093h441.75c10.545,0,19.093-8.548,19.093-19.093l0,0
	C495.968,287.729,487.42,279.181,476.875,279.181z"/>
<path style="fill:#42AD9C;" d="M57.239,298.274L57.239,298.274c0-10.545,8.548-19.093,19.093-19.093l200.271-15.415L256,262.181
	l-220.875,17c-10.545,0-19.093,8.548-19.093,19.093l0,0c0,10.545,8.548,19.094,19.093,19.094h41.207
	C65.787,317.369,57.239,308.819,57.239,298.274z"/>
<g>
	<polygon style="fill:#F9545B;" points="192.334,279.181 256,335.847 319.666,279.181 256,249.181 	"/>
	<polygon style="fill:#F9545B;" points="45.714,279.181 109.382,335.847 173.048,279.181 109.382,249.181 	"/>
	<polygon style="fill:#F9545B;" points="466.286,279.181 402.618,335.847 338.952,279.181 402.618,249.181 	"/>
</g>
<path style="fill:#FEDD00;" d="M392,172.87h13.69c29.35,0,55.93,11.9,75.17,31.14C500.1,223.25,512,249.821,512,279.181H0
	c0-58.71,47.6-106.31,106.31-106.31H120l18.5,18.31l18.5-18.31h80.5l18.5,20.31l18.5-20.31H355l18.5,21.31L392,172.87z"/>
<g>
	<path style="fill:#E6BB00;" d="M122.901,175.742L120,172.87h-13.69C47.6,172.871,0,220.471,0,279.181h41.207
		C41.207,228.945,76.06,186.849,122.901,175.742z"/>
	<path style="fill:#E6BB00;" d="M157,172.87v57.81c0,10.22-8.28,18.5-18.5,18.5s-18.5-8.28-18.5-18.5v-57.81H157z"/>
	<path style="fill:#E6BB00;" d="M392,172.87v57.81c0,10.22-8.28,18.5-18.5,18.5s-18.5-8.28-18.5-18.5v-57.81H392z"/>
	<path style="fill:#E6BB00;" d="M274.5,172.87v57.81c0,10.22-8.28,18.5-18.5,18.5s-18.5-8.28-18.5-18.5v-57.81H274.5z"/>
</g>
<path style="fill:#FEDD00;" d="M0,410.181L0,410.181c0,28.166,22.833,51,51,51h410c28.166,0,51-22.834,51-51l0,0H0z"/>
<path style="fill:#E6BB00;" d="M41.207,410.181L41.207,410.181H0l0,0c0,28.166,22.833,51,51,51h41.207
	C64.04,461.181,41.207,438.347,41.207,410.181z"/>
<ellipse transform="matrix(0.5374 -0.8433 0.8433 0.5374 74.4493 355.9722)" style="fill:#4CC7B3;" cx="361.702" cy="110.124" rx="30.854" ry="26.249"/>
<path style="fill:#42AD9C;" d="M383.862,103.616c-9.157,14.371-26.492,19.705-38.718,11.915c-4.39-2.797-7.516-6.909-9.308-11.693
	c-4.225,12.537-0.772,25.874,9.308,32.296c12.226,7.791,29.561,2.456,38.718-11.915c5.869-9.212,6.947-19.896,3.75-28.435
	C386.711,98.455,385.47,101.092,383.862,103.616z"/>
<g>
</g>
<g>
</g>
<g>
</g>
<g>
</g>
<g>
</g>
<g>
</g>
<g>
</g>
<g>
</g>
<g>
</g>
<g>
</g>
<g>
</g>
<g>
</g>
<g>
</g>
<g>
</g>
<g>
</g>
</svg>
