<?xml version="1.0" encoding="iso-8859-1"?>
<!-- Generator: Adobe Illustrator 19.0.0, SVG Export Plug-In . SVG Version: 6.00 Build 0)  -->
<svg version="1.1" id="Capa_1" xmlns="http://www.w3.org/2000/svg" xmlns:xlink="http://www.w3.org/1999/xlink" x="0px" y="0px"
	 viewBox="0 0 511.999 511.999" style="enable-background:new 0 0 511.999 511.999;" xml:space="preserve">
<g>
	<path style="fill:#EEECED;" d="M66.588,85.398l26.977,26.977l32.909,0.214L126.26,79.68L99.283,52.703
		c4.767-7.527,3.882-17.604-2.682-24.167c-7.604-7.604-19.933-7.605-27.538,0c-6.419,6.419-7.397,16.193-2.98,23.662
		c-7.469-4.416-17.243-3.439-23.662,2.98c-7.604,7.604-7.604,19.933,0,27.538C48.984,89.279,59.061,90.164,66.588,85.398z"/>
	<path style="fill:#EEECED;" d="M349.434,46.251c5.039-9.5,1.422-21.287-8.08-26.325c-8.019-4.253-17.651-2.32-23.495,4.094
		c2.031-8.435-1.772-17.494-9.792-21.746c-9.5-5.039-21.287-1.421-26.325,8.08c-4.348,8.2-2.238,18.093,4.527,23.89l-17.875,33.705
		l9.451,31.524l31.398-9.861l17.875-33.705C335.712,58.253,345.086,54.45,349.434,46.251z"/>
</g>
<path style="fill:#A8503C;" d="M126.26,79.68c0,0,14.625,16.26,63.785,26.186s65.069,73.243,34.009,104.303
	s-94.377,15.15-104.303-34.009s-26.186-63.785-26.186-63.785L126.26,79.68z"/>
<path style="fill:#993E29;" d="M268.395,67.947c0,0-9.211,19.835-53.294,43.748s-40.716,89.111-1.91,109.691
	s94.668-13.208,89.734-63.116c-4.935-49.908,6.319-68.661,6.319-68.661L268.395,67.947z"/>
<path style="fill:#EEECED;" d="M469.577,82.716c7.605-7.604,7.605-19.933,0-27.538c-6.419-6.419-16.193-7.397-23.662-2.98
	c4.416-7.469,3.439-17.243-2.98-23.662c-7.605-7.604-19.933-7.604-27.538,0c-6.563,6.563-7.448,16.641-2.682,24.167L385.738,79.68
	l-0.214,32.909l32.909-0.214l26.977-26.977C452.937,90.164,463.014,89.279,469.577,82.716z"/>
<path style="fill:#A8503C;" d="M385.738,79.68c0,0-14.625,16.26-63.785,26.186s-65.069,73.243-34.009,104.303
	s94.377,15.15,104.303-34.009c9.926-49.159,26.186-63.785,26.186-63.785L385.738,79.68z"/>
<g>
	<polygon style="fill:#F9545B;" points="105.289,218.419 98.586,218.419 106.356,279.8 172.311,268.181 179.781,206.375 	"/>
	<polygon style="fill:#F9545B;" points="295.738,200.2 172.311,268.181 118.705,377.223 118.694,377.233 118.694,377.244 
		131.024,474.667 295.738,377.233 390.785,214.915 	"/>
	<polygon style="fill:#F9545B;" points="295.738,377.233 203.474,511.999 313.236,511.999 359.673,492.194 385.381,439.863 
		401.285,314.177 	"/>
</g>
<path style="fill:#EEECED;" d="M385.381,439.863l-6.307,49.803c-1.614,12.766-12.47,22.332-25.337,22.332h-40.502L385.381,439.863z"
	/>
<polygon style="fill:#E64047;" points="206.548,249.325 370.636,249.325 390.785,214.915 295.738,200.2 "/>
<path style="fill:#EEECED;" d="M413.412,218.419l-12.126,95.757L203.474,511.999h-45.213c-12.867,0-23.724-9.566-25.338-22.332
	l-1.899-14.999l259.76-259.752L413.412,218.419z"/>
<polygon style="fill:#E64047;" points="98.586,218.419 102.498,249.325 174.59,249.325 179.781,206.375 105.289,218.419 "/>
<polygon style="fill:#EEECED;" points="295.738,200.2 118.694,377.233 106.356,279.81 106.356,279.8 179.781,206.375 
	179.791,206.375 255.999,194.046 "/>
<g>
	<polygon style="fill:#D4D2D3;" points="356.375,249.325 409.498,249.325 413.412,218.419 390.785,214.915 	"/>
	<polygon style="fill:#D4D2D3;" points="179.791,206.375 179.781,206.375 136.831,249.325 246.611,249.325 295.738,200.2 
		255.999,194.046 	"/>
</g>
<path style="fill:#EEECED;" d="M413.412,169.671H98.586c-13.461,0-24.374,10.913-24.374,24.373l0,0
	c0,13.461,10.913,24.373,24.374,24.373h314.825c13.461,0,24.373-10.913,24.373-24.373l0,0
	C437.785,180.584,426.873,169.671,413.412,169.671z"/>
<g>
</g>
<g>
</g>
<g>
</g>
<g>
</g>
<g>
</g>
<g>
</g>
<g>
</g>
<g>
</g>
<g>
</g>
<g>
</g>
<g>
</g>
<g>
</g>
<g>
</g>
<g>
</g>
<g>
</g>
</svg>
