<?xml version="1.0" encoding="iso-8859-1"?>
<!-- Generator: Adobe Illustrator 19.0.0, SVG Export Plug-In . SVG Version: 6.00 Build 0)  -->
<svg version="1.1" id="Capa_1" xmlns="http://www.w3.org/2000/svg" xmlns:xlink="http://www.w3.org/1999/xlink" x="0px" y="0px"
	 viewBox="0 0 512 512" style="enable-background:new 0 0 512 512;" xml:space="preserve">
<g>
	<path style="fill:#FB8D4B;" d="M17.93,362.625c5.825,85.044,86.209,160.768,131.643,147.953
		c45.434-12.814,23.138-51.698,33.703-107.397L17.93,362.625z"/>
	<path style="fill:#FB8D4B;" d="M362.625,17.93c85.044,5.825,160.768,86.209,147.953,131.643
		c-12.814,45.434-51.698,23.138-107.397,33.703L362.625,17.93z"/>
</g>
<path style="fill:#EB8446;" d="M26.239,403.068c27.446,12.989,70.208,26.011,136.28,32.746c5.912,0.603,11.788,0.473,17.531-0.307
	c0.264-10.003,1.04-20.806,3.228-32.329L17.93,362.625C18.878,376.468,21.812,390.06,26.239,403.068z"/>
<path style="fill:#E86D24;" d="M44.725,198.362c0,0-79.219,125.818-26.795,164.262c38.189,28.005,110.998,38.701,147.723,42.444
	c16.808,1.713,33.116-6.594,41.417-21.309c7.463-13.23,15.278-33.213,19.679-62.582L44.725,198.362z"/>
<path style="fill:#EB8446;" d="M403.068,26.239c-13.008-4.427-26.6-7.361-40.444-8.309l40.555,165.346
	c11.525-2.186,22.327-2.964,32.329-3.228c0.78-5.742,0.909-11.618,0.306-17.531C429.079,96.446,416.058,53.686,403.068,26.239z"/>
<path style="fill:#E86D24;" d="M198.362,44.725c0,0,125.818-79.219,164.262-26.795c28.005,38.189,38.701,110.998,42.444,147.723
	c1.713,16.808-6.594,33.116-21.309,41.417c-13.23,7.463-33.213,15.278-62.582,19.679L198.362,44.725z"/>
<g>
	<path style="fill:#D96622;" d="M28.448,245.706c21.556,16.679,63.795,48.237,104.51,72.209
		c27.688,16.302,59.6,32.523,87.119,34.102c2.606-8.903,4.914-19.111,6.671-30.841L44.725,198.362c0,0-11.193,17.778-22.38,42.009
		C24.257,242.251,26.29,244.035,28.448,245.706z"/>
	<path style="fill:#D96622;" d="M317.915,132.958c-23.972-40.715-55.531-82.954-72.208-104.51c-1.67-2.158-3.455-4.192-5.335-6.103
		c-24.231,11.187-42.009,22.38-42.009,22.38L321.177,226.75c11.729-1.757,21.938-4.064,30.841-6.671
		C350.437,192.558,334.217,160.646,317.915,132.958z"/>
</g>
<path style="fill:#FB8D4B;" d="M189.326,33.514C164.83,35.93,122.517,46.01,84.264,84.263S35.931,164.83,33.514,189.326
	c-1.215,12.312,4.063,24.366,13.848,31.937c42.032,32.523,164.068,122.609,191.916,94.762l76.748-76.748
	c27.847-27.847-62.238-149.883-94.762-191.916C213.692,37.577,201.638,32.299,189.326,33.514z"/>
<g>
	<path style="fill:#3B484A;" d="M135.127,233.467c-1.977,0-3.955-0.754-5.463-2.263l-8.2-8.199
		c-3.018-3.017-3.018-7.909-0.001-10.927c3.018-3.017,7.911-3.017,10.926,0l8.2,8.199c3.018,3.017,3.018,7.909,0.001,10.927
		C139.081,232.712,137.103,233.467,135.127,233.467z"/>
	<path style="fill:#3B484A;" d="M225.74,142.853c-1.978,0-3.955-0.754-5.464-2.263l-8.199-8.2c-3.017-3.017-3.017-7.91,0.001-10.926
		c3.017-3.017,7.91-3.016,10.926,0l8.199,8.2c3.017,3.017,3.017,7.91-0.001,10.926C229.695,142.098,227.717,142.853,225.74,142.853z
		"/>
	<path style="fill:#3B484A;" d="M168.297,201.935c-0.712,0-1.426-0.024-2.141-0.072c-4.258-0.286-7.477-3.969-7.191-8.227
		c0.286-4.258,3.987-7.477,8.227-7.191c5.014,0.335,10.06-1.637,13.837-5.415c3.779-3.778,5.752-8.821,5.415-13.836
		c-0.285-4.258,2.934-7.941,7.191-8.227c4.244-0.285,7.941,2.934,8.227,7.191c0.636,9.465-2.975,18.869-9.906,25.799
		C185.549,198.364,177.027,201.934,168.297,201.935z"/>
</g>
<g>
</g>
<g>
</g>
<g>
</g>
<g>
</g>
<g>
</g>
<g>
</g>
<g>
</g>
<g>
</g>
<g>
</g>
<g>
</g>
<g>
</g>
<g>
</g>
<g>
</g>
<g>
</g>
<g>
</g>
</svg>
