<?xml version="1.0" encoding="iso-8859-1"?>
<!-- Generator: Adobe Illustrator 19.0.0, SVG Export Plug-In . SVG Version: 6.00 Build 0)  -->
<svg version="1.1" id="Capa_1" xmlns="http://www.w3.org/2000/svg" xmlns:xlink="http://www.w3.org/1999/xlink" x="0px" y="0px"
	 viewBox="0 0 512 512" style="enable-background:new 0 0 512 512;" xml:space="preserve">
<path style="fill:#EEECED;" d="M393.696,88.909c97.355,79.03,136.606,232.563,110.351,313.707
	c-36.343,112.344-145.78,56.178-248.014,56.178S44.362,514.96,8.019,402.616C-18.236,321.472,21.014,167.939,118.37,88.909
	L393.696,88.909L393.696,88.909z"/>
<g>
	<path style="fill:#3B484A;" d="M171.688,368.666c-4.563,0-8.26-3.698-8.26-8.26v-15.265c0-4.562,3.697-8.26,8.26-8.26
		s8.26,3.698,8.26,8.26v15.265C179.948,364.968,176.251,368.666,171.688,368.666z"/>
	<path style="fill:#3B484A;" d="M340.378,368.666c-4.563,0-8.26-3.698-8.26-8.26v-15.265c0-4.562,3.697-8.26,8.26-8.26
		s8.26,3.698,8.26,8.26v15.265C348.638,364.968,344.94,368.666,340.378,368.666z"/>
	<path style="fill:#3B484A;" d="M256.034,379.947c-12.353,0-23.942-5.154-31.797-14.141c-3.003-3.435-2.652-8.653,0.783-11.655
		c3.434-3.001,8.653-2.651,11.654,0.783c4.718,5.397,11.774,8.492,19.36,8.492c7.586,0,14.641-3.096,19.359-8.492
		c3.002-3.436,8.22-3.785,11.654-0.783c3.435,3.002,3.786,8.22,0.783,11.655C279.975,374.794,268.386,379.947,256.034,379.947z"/>
</g>
<path style="fill:#D4D2D3;" d="M8.021,402.623c7.943,24.547,22.211,47.721,45.906,59.628c0.208,0.105,0.416,0.208,0.626,0.311
	c9.087,4.469,18.875,7.156,28.865,8.646c17.87,2.665,36.048,1.666,53.955-0.063c0.144-0.014,0.287-0.028,0.433-0.042
	c-33.33-5.16-60.013-23.021-74.721-68.488C36.829,321.471,76.079,167.938,173.435,88.908H118.37
	C49.917,144.477,10.191,236.878,1.762,315.05C-1.32,343.638-1.012,374.704,8.021,402.623z"/>
<path style="fill:#3B484A;" d="M393.696,88.909v131.364c0,25.385-20.583,45.968-45.968,45.968H164.338
	c-25.385,0-45.968-20.583-45.968-45.968V88.909c37.433-30.385,83.468-49.757,137.663-49.757S356.262,58.524,393.696,88.909z"/>
<path style="fill:#333E40;" d="M173.435,88.909c30.921-25.1,67.718-42.672,110.124-48.03c-4.423-0.558-8.905-0.986-13.449-1.276
	c-0.15-0.009-0.302-0.017-0.453-0.025c-4.534-0.276-9.081-0.425-13.624-0.425c-25.404,0-49.015,4.257-70.787,11.908
	c-2.903,1.021-5.773,2.101-8.611,3.24c-21.282,8.543-40.719,20.365-58.265,34.609v60.44
	C133.943,126.698,152.321,106.05,173.435,88.909z"/>
<g>
</g>
<g>
</g>
<g>
</g>
<g>
</g>
<g>
</g>
<g>
</g>
<g>
</g>
<g>
</g>
<g>
</g>
<g>
</g>
<g>
</g>
<g>
</g>
<g>
</g>
<g>
</g>
<g>
</g>
</svg>
