<?xml version="1.0" encoding="iso-8859-1"?>
<!-- Generator: Adobe Illustrator 19.0.0, SVG Export Plug-In . SVG Version: 6.00 Build 0)  -->
<svg version="1.1" id="Capa_1" xmlns="http://www.w3.org/2000/svg" xmlns:xlink="http://www.w3.org/1999/xlink" x="0px" y="0px"
	 viewBox="0 0 512 512" style="enable-background:new 0 0 512 512;" xml:space="preserve">
<g>
	<path style="fill:#D4D2D3;" d="M434.38,393.703l-31.954,19.937v21.038c0,8.848,7.173,16.021,16.021,16.021h31.865
		c8.848,0,16.021-7.173,16.021-16.021V413.64L434.38,393.703z"/>
	<path style="fill:#D4D2D3;" d="M77.144,393.703L45.19,413.64v21.038c0,8.848,7.173,16.021,16.021,16.021h31.865
		c8.848,0,16.021-7.173,16.021-16.021V413.64L77.144,393.703z"/>
</g>
<path style="fill:#80E2FF;" d="M466.81,61.3H365l-33.914,51.793L365,140.221h147v-33.73C512,81.531,491.77,61.3,466.81,61.3z"/>
<polygon style="fill:#3B484A;" points="365,140.221 314.403,233.121 365,326.021 512,326.021 512,140.221 "/>
<path style="fill:#80E2FF;" d="M365,326.021l-33.914,27.126L365,413.64h101.81c24.96,0,45.19-20.24,45.19-45.19v-42.43H365V326.021z
	"/>
<rect x="397.238" y="171.34" style="fill:#4CC7B3;" width="82.518" height="44.869"/>
<g>
	<circle style="fill:#45B6D9;" cx="412.526" cy="248.408" r="15.288"/>
	<circle style="fill:#45B6D9;" cx="464.467" cy="248.408" r="15.288"/>
	<circle style="fill:#45B6D9;" cx="412.526" cy="291.408" r="15.288"/>
	<circle style="fill:#45B6D9;" cx="464.467" cy="291.408" r="15.288"/>
	<path style="fill:#45B6D9;" d="M365,61.3V413.64H45.19C20.23,413.641,0,393.401,0,368.451V106.49C0,81.53,20.23,61.3,45.19,61.3
		H365z"/>
</g>
<path style="fill:#41ABCC;" d="M66.534,61.301H45.19C20.23,61.301,0,81.531,0,106.49v261.961c0,24.95,20.23,45.19,45.19,45.19
	h21.344V61.301z"/>
<polygon style="fill:#80E2FF;" points="297.719,113.095 35.629,113.095 35.629,353.147 297.719,353.147 314.403,233.121 "/>
<rect x="35.629" y="113.094" style="fill:#55C2E3;" width="30.905" height="240.053"/>
<g>
	<path style="fill:#3B484A;" d="M96.488,237.467c-4.267,0-7.726-3.459-7.726-7.726v-12.702c0-4.267,3.459-7.726,7.726-7.726
		c4.267,0,7.726,3.459,7.726,7.726v12.702C104.214,234.007,100.755,237.467,96.488,237.467z"/>
	<path style="fill:#3B484A;" d="M236.86,237.467c-4.267,0-7.726-3.459-7.726-7.726v-12.702c0-4.267,3.459-7.726,7.726-7.726
		c4.267,0,7.726,3.459,7.726,7.726v12.702C244.587,234.007,241.127,237.467,236.86,237.467z"/>
	<path style="fill:#3B484A;" d="M166.674,246.855c-10.524,0-20.403-4.395-27.101-12.058c-2.808-3.213-2.481-8.094,0.732-10.902
		c3.213-2.807,8.093-2.481,10.902,0.732c3.763,4.305,9.4,6.775,15.466,6.775s11.703-2.469,15.467-6.775
		c2.809-3.213,7.689-3.541,10.902-0.732c3.213,2.808,3.541,7.689,0.732,10.902C187.077,242.46,177.199,246.855,166.674,246.855z"/>
	<path style="fill:#3B484A;" d="M314.403,96.411c-9.214,0-16.684,7.47-16.684,16.684v240.052c0,9.214,7.47,16.684,16.684,16.684
		c9.214,0,16.684-7.47,16.684-16.684V113.094C331.087,103.88,323.617,96.411,314.403,96.411z"/>
</g>
<g>
</g>
<g>
</g>
<g>
</g>
<g>
</g>
<g>
</g>
<g>
</g>
<g>
</g>
<g>
</g>
<g>
</g>
<g>
</g>
<g>
</g>
<g>
</g>
<g>
</g>
<g>
</g>
<g>
</g>
</svg>
