<?xml version="1.0" encoding="iso-8859-1"?>
<!-- Generator: Adobe Illustrator 19.0.0, SVG Export Plug-In . SVG Version: 6.00 Build 0)  -->
<svg version="1.1" id="Capa_1" xmlns="http://www.w3.org/2000/svg" xmlns:xlink="http://www.w3.org/1999/xlink" x="0px" y="0px"
	 viewBox="0 0 512 512" style="enable-background:new 0 0 512 512;" xml:space="preserve">
<path style="fill:#E2B195;" d="M452.829,184.039l-34.063-34.063l-44.525-14.14l-102.715,69.602v125.55L358.052,512h68.763
	c27.692,0,50.142-22.45,50.142-50.142V242.286C476.956,220.439,468.277,199.487,452.829,184.039z"/>
<path style="fill:#D1A084;" d="M418.767,149.976c0,0,0-55.309,0-149.976l-305.63,37.046L93.233,82.426v38.997
	c0,18.282-7.263,35.815-20.189,48.742l-13.873,13.873c-15.449,15.448-24.127,36.4-24.127,58.247v215.446
	C35.044,487.703,59.34,512,89.312,512h268.74V242.286c0-21.847,8.678-42.799,24.127-58.247l34.063-34.063"/>
<path style="fill:#B38871;" d="M113.137,37.046L93.233,82.426v38.996c0,18.283-7.263,35.815-20.189,48.742l-13.873,13.873
	c-15.448,15.449-24.127,36.4-24.127,58.247v215.446c0,29.971,24.297,54.268,54.268,54.268h41.207
	c-29.971,0-54.268-24.297-54.268-54.268V242.286c0-21.847,8.678-42.799,24.127-58.247l13.873-13.873
	c12.928-12.927,20.189-30.46,20.189-48.742V82.426l19.903-45.379C154.344,37.046,113.137,37.046,113.137,37.046z"/>
<path style="fill:#E2B195;" d="M106.929,0C84.477,0,66.276,18.201,66.276,40.653v62.469c0,2.015,2.508,2.94,3.817,1.408
	l15.36-17.988c4.769-5.585,13.4-5.585,18.168,0l10.093,11.82c4.769,5.585,13.4,5.585,18.168,0l10.093-11.82
	c4.769-5.585,13.4-5.585,18.168,0l10.093,11.82c4.769,5.585,13.4,5.585,18.168,0l10.093-11.82c4.769-5.585,13.4-5.585,18.168,0
	l10.093,11.82c4.769,5.585,13.4,5.585,18.168,0l10.093-11.82c4.769-5.585,13.4-5.585,18.168,0l10.093,11.82
	c4.769,5.585,13.4,5.585,18.168,0l10.093-11.82c4.769-5.585,13.4-5.585,18.168,0l15.36,17.988c1.308,1.533,3.818,0.607,3.818-1.408
	V76.446c0-17.684,8.526-34.283,22.9-44.585L416.242,0H106.929z"/>
<g>
	<path style="fill:#3B484A;" d="M117.756,317.215c-4.267,0-7.726-3.459-7.726-7.726v-14.26c0-4.267,3.459-7.726,7.726-7.726
		s7.726,3.459,7.726,7.726v14.26C125.482,313.756,122.023,317.215,117.756,317.215z"/>
	<path style="fill:#3B484A;" d="M275.34,317.215c-4.267,0-7.726-3.459-7.726-7.726v-14.26c0-4.267,3.459-7.726,7.726-7.726
		c4.267,0,7.726,3.459,7.726,7.726v14.26C283.066,313.756,279.608,317.215,275.34,317.215z"/>
	<path style="fill:#3B484A;" d="M196.548,327.754c-11.542,0-22.371-4.816-29.711-13.213c-2.808-3.213-2.481-8.094,0.732-10.902
		c3.213-2.807,8.094-2.481,10.902,0.732c4.405,5.04,10.993,7.93,18.077,7.93c7.083,0,13.672-2.891,18.076-7.93
		c2.808-3.213,7.689-3.541,10.902-0.732c3.213,2.808,3.541,7.689,0.732,10.902C218.919,322.938,208.09,327.754,196.548,327.754z"/>
</g>
<g>
</g>
<g>
</g>
<g>
</g>
<g>
</g>
<g>
</g>
<g>
</g>
<g>
</g>
<g>
</g>
<g>
</g>
<g>
</g>
<g>
</g>
<g>
</g>
<g>
</g>
<g>
</g>
<g>
</g>
</svg>
