<?xml version="1.0" encoding="iso-8859-1"?>
<!-- Generator: Adobe Illustrator 19.0.0, SVG Export Plug-In . SVG Version: 6.00 Build 0)  -->
<svg version="1.1" id="Capa_1" xmlns="http://www.w3.org/2000/svg" xmlns:xlink="http://www.w3.org/1999/xlink" x="0px" y="0px"
	 viewBox="0 0 512 512" style="enable-background:new 0 0 512 512;" xml:space="preserve">
<g>
	<polygon style="fill:#F9545B;" points="41.723,439.372 49.964,436.281 40.693,400.225 28.33,401.255 30.391,424.949 	"/>
	<polygon style="fill:#F9545B;" points="447.614,48.933 445.554,61.296 467.188,80.869 480.58,78.809 474.399,58.205 	"/>
	<path style="fill:#F9545B;" d="M59.232,440.695c6.428,22.663-11.26,44.388-31.104,28.289c-19.844-16.1-2.232-37.887,21.269-36.269
		L59.232,440.695z"/>
	<path style="fill:#F9545B;" d="M42.709,392.562c-8.845-21.834-36.148-28.116-41.921-3.221
		c-5.773,24.894,21.507,31.271,39.06,15.559L42.709,392.562z"/>
	<path style="fill:#F9545B;" d="M472.144,91.337c17.537,15.73,44.823,9.381,39.076-15.519c-5.747-24.899-33.056-18.646-41.924,3.178
		L472.144,91.337z"/>
	<path style="fill:#F9545B;" d="M436.16,55.352c-15.73-17.537-9.381-44.823,15.519-39.076s18.646,33.056-3.178,41.924L436.16,55.352
		z"/>
</g>
<g>
	<path style="fill:#E64047;" d="M463.375,73.077c23.208,4.046,42.983-15.799,24.913-33.868
		c-18.069-18.069-37.914,1.706-33.868,24.913L463.375,73.077z"/>
	<path style="fill:#E64047;" d="M46.678,424.797c-6.559,22.626-33.073,31.676-41.369,7.506s18.185-33.312,37.258-19.484
		L46.678,424.797z"/>
</g>
<path style="fill:#FA7578;" d="M369.697,369.765C280.702,458.76,186.76,488.712,176.342,491.836
	c-58.314,17.476-119.755-15.63-137.23-73.943c-17.477-58.314,15.629-119.755,73.943-137.231c0.485-0.145,51.588-17.61,100.759-66.78
	s66.636-100.274,66.78-100.759c17.476-58.313,78.917-91.419,137.23-73.943s91.419,78.917,73.943,137.23
	C488.645,186.827,458.693,280.769,369.697,369.765z"/>
<g>
	<path style="fill:#F9545B;" d="M491.769,176.408c13.633-45.49-3.516-92.881-39.4-119.821
		c20.341,27.045,28.007,63.066,17.547,97.968c-3.122,10.419-33.076,104.36-122.07,193.356
		c-88.995,88.995-182.937,118.948-193.356,122.071c-34.903,10.46-70.922,2.794-97.968-17.546
		c26.94,35.883,74.332,53.033,119.821,39.4c10.419-3.122,104.36-33.076,193.356-122.071
		C458.693,280.769,488.645,186.827,491.769,176.408z"/>
	<path style="fill:#F9545B;" d="M338.226,319.454c-0.623-0.623-1.2-1.309-1.723-2.057c-45.738-65.465-48.443-130.392-48.535-133.124
		c-0.285-8.392,6.287-15.427,14.679-15.711c8.379-0.284,15.405,6.27,15.709,14.644l0,0c0.023,0.584,2.717,59.015,43.073,116.775
		c4.809,6.883,3.128,16.362-3.756,21.171C351.539,325.438,343.341,324.568,338.226,319.454z"/>
	<path style="fill:#F9545B;" d="M262.005,398.542c-0.623-0.623-1.2-1.309-1.724-2.057c-45.738-65.465-48.443-130.392-48.535-133.124
		c-0.285-8.392,6.287-15.427,14.679-15.711c8.38-0.284,15.405,6.27,15.709,14.644l0,0c0.023,0.584,2.717,59.015,43.073,116.775
		c4.809,6.883,3.128,16.362-3.756,21.171C275.317,404.526,267.12,403.656,262.005,398.542z"/>
	<path style="fill:#F9545B;" d="M167.788,455.49c-0.623-0.623-1.2-1.309-1.724-2.057c-45.738-65.465-48.443-130.392-48.535-133.124
		c-0.285-8.392,6.287-15.427,14.679-15.711c8.38-0.284,15.405,6.27,15.709,14.644l0,0c0.023,0.584,2.717,59.015,43.073,116.775
		c4.809,6.883,3.128,16.362-3.756,21.171C181.1,461.474,172.902,460.604,167.788,455.49z"/>
</g>
<g>
	<path style="fill:#3B484A;" d="M343.184,148.328c-4.267,0-7.726-3.459-7.726-7.726v-8.698c0-4.267,3.459-7.726,7.726-7.726
		c4.267,0,7.726,3.459,7.726,7.726v8.698C350.91,144.869,347.451,148.328,343.184,148.328z"/>
	<path style="fill:#3B484A;" d="M439.302,148.328c-4.267,0-7.726-3.459-7.726-7.726v-8.698c0-4.267,3.459-7.726,7.726-7.726
		c4.267,0,7.726,3.459,7.726,7.726v8.698C447.028,144.869,443.569,148.328,439.302,148.328z"/>
	<path style="fill:#3B484A;" d="M391.243,154.757c-7.911,0-15.342-3.313-20.391-9.089c-2.808-3.213-2.48-8.094,0.732-10.902
		c3.213-2.807,8.093-2.481,10.902,0.733c2.114,2.419,5.305,3.807,8.757,3.807s6.643-1.388,8.757-3.807
		c2.809-3.213,7.69-3.54,10.902-0.732c3.213,2.808,3.541,7.689,0.732,10.902C406.585,151.444,399.152,154.757,391.243,154.757z"/>
</g>
<g>
</g>
<g>
</g>
<g>
</g>
<g>
</g>
<g>
</g>
<g>
</g>
<g>
</g>
<g>
</g>
<g>
</g>
<g>
</g>
<g>
</g>
<g>
</g>
<g>
</g>
<g>
</g>
<g>
</g>
</svg>
