<?xml version="1.0" encoding="iso-8859-1"?>
<!-- Generator: Adobe Illustrator 19.0.0, SVG Export Plug-In . SVG Version: 6.00 Build 0)  -->
<svg version="1.1" id="Capa_1" xmlns="http://www.w3.org/2000/svg" xmlns:xlink="http://www.w3.org/1999/xlink" x="0px" y="0px"
	 viewBox="0 0 512 512" style="enable-background:new 0 0 512 512;" xml:space="preserve">
<path style="fill:#E86D24;" d="M245.034,182.375c0,49.57,44.389,89.75,99.16,89.75s99.16-40.18,99.16-89.75
	c0-16.49-4.92-31.95-13.51-45.23c-1.35,0.75-2.61,1.7-3.75,2.86c-3.22,3.27-7.46,4.9-11.7,4.9c-4.24,0-8.48-1.63-11.7-4.9
	c-3.22-3.27-7.46-4.91-11.7-4.91c-4.24,0-8.48,1.64-11.7,4.91c-3.22,3.27-7.46,4.9-11.7,4.9c-4.24,0-8.48-1.63-11.7-4.9
	c-3.22-3.27-7.46-4.91-11.7-4.91c-4.24,0-8.48,1.64-11.7,4.91c-3.22,3.27-7.46,4.9-11.7,4.9c-4.24,0-8.48-1.63-11.7-4.9
	c-3.22-3.27-7.46-4.91-11.7-4.91c-4.24,0-8.48,1.64-11.7,4.91c-3.22,3.27-7.46,4.9-11.7,4.9s-8.48-1.63-11.7-4.9
	c-1.14-1.16-2.41-2.11-3.76-2.86C249.954,150.424,245.034,165.884,245.034,182.375z"/>
<path style="fill:#993E29;" d="M258.534,137.144c1.35,0.75,2.62,1.7,3.76,2.86c3.22,3.27,7.46,4.9,11.7,4.9s8.48-1.63,11.7-4.9
	c3.22-3.27,7.46-4.91,11.7-4.91c4.24,0,8.48,1.64,11.7,4.91c3.22,3.27,7.46,4.9,11.7,4.9c4.24,0,8.48-1.63,11.7-4.9
	c3.22-3.27,7.46-4.91,11.7-4.91c4.24,0,8.48,1.64,11.7,4.91c3.22,3.27,7.46,4.9,11.7,4.9c4.24,0,8.48-1.63,11.7-4.9
	c3.22-3.27,7.46-4.91,11.7-4.91c4.24,0,8.48,1.64,11.7,4.91c3.22,3.27,7.46,4.9,11.7,4.9c4.24,0,8.48-1.63,11.7-4.9
	c1.14-1.16,2.4-2.11,3.75-2.86c-17.19-26.63-49.11-44.52-85.65-44.52S275.734,110.515,258.534,137.144z"/>
<path style="fill:#FB8D4B;" d="M266.966,182.375c0,49.57-44.389,89.75-99.16,89.75s-99.16-40.18-99.16-89.75
	c0-16.49,4.92-31.95,13.51-45.23c1.35,0.75,2.61,1.7,3.75,2.86c3.22,3.27,7.46,4.9,11.7,4.9c4.24,0,8.48-1.63,11.7-4.9
	c3.22-3.27,7.46-4.91,11.7-4.91c4.24,0,8.48,1.64,11.7,4.91c3.22,3.27,7.46,4.9,11.7,4.9c4.24,0,8.48-1.63,11.7-4.9
	c3.22-3.27,7.46-4.91,11.7-4.91c4.24,0,8.48,1.64,11.7,4.91c3.22,3.27,7.46,4.9,11.7,4.9c4.24,0,8.48-1.63,11.7-4.9
	c3.22-3.27,7.46-4.91,11.7-4.91c4.24,0,8.48,1.64,11.7,4.91c3.22,3.27,7.46,4.9,11.7,4.9c4.24,0,8.48-1.63,11.7-4.9
	c1.14-1.16,2.41-2.11,3.76-2.86C262.046,150.424,266.966,165.884,266.966,182.375z"/>
<path style="fill:#A8503C;" d="M253.466,137.144c-1.35,0.75-2.62,1.7-3.76,2.86c-3.22,3.27-7.46,4.9-11.7,4.9
	c-4.24,0-8.48-1.63-11.7-4.9c-3.22-3.27-7.46-4.91-11.7-4.91c-4.24,0-8.48,1.64-11.7,4.91c-3.22,3.27-7.46,4.9-11.7,4.9
	c-4.24,0-8.48-1.63-11.7-4.9c-3.22-3.27-7.46-4.91-11.7-4.91c-4.24,0-8.48,1.64-11.7,4.91c-3.22,3.27-7.46,4.9-11.7,4.9
	c-4.24,0-8.48-1.63-11.7-4.9c-3.22-3.27-7.46-4.91-11.7-4.91c-4.24,0-8.48,1.64-11.7,4.91c-3.22,3.27-7.46,4.9-11.7,4.9
	s-8.48-1.63-11.7-4.9c-1.14-1.16-2.4-2.11-3.75-2.86c17.19-26.63,49.11-44.52,85.65-44.52S236.266,110.515,253.466,137.144z"/>
<g>
	<path style="fill:#FB8D4B;" d="M220.967,262.375c0,49.57-44.389,89.75-99.16,89.75s-99.16-40.18-99.16-89.75
		c0-16.49,4.92-31.95,13.51-45.23c1.35,0.75,2.61,1.7,3.75,2.86c3.22,3.27,7.46,4.9,11.7,4.9s8.48-1.63,11.7-4.9
		c3.22-3.27,7.46-4.91,11.7-4.91c4.24,0,8.48,1.64,11.7,4.91c3.22,3.27,7.46,4.9,11.7,4.9c4.24,0,8.48-1.63,11.7-4.9
		c3.22-3.27,7.46-4.91,11.7-4.91c4.24,0,8.48,1.64,11.7,4.91c3.22,3.27,7.46,4.9,11.7,4.9c4.24,0,8.48-1.63,11.7-4.9
		c3.22-3.27,7.46-4.91,11.7-4.91c4.24,0,8.48,1.64,11.7,4.91c3.22,3.27,7.46,4.9,11.7,4.9c4.24,0,8.48-1.63,11.7-4.9
		c1.14-1.16,2.41-2.11,3.76-2.86C216.046,230.425,220.967,245.885,220.967,262.375z"/>
	<path style="fill:#FB8D4B;" d="M291.033,262.375c0,49.57,44.389,89.75,99.16,89.75s99.16-40.18,99.16-89.75
		c0-16.49-4.92-31.95-13.51-45.23c-1.35,0.75-2.61,1.7-3.75,2.86c-3.22,3.27-7.46,4.9-11.7,4.9c-4.24,0-8.48-1.63-11.7-4.9
		c-3.22-3.27-7.46-4.91-11.7-4.91c-4.24,0-8.48,1.64-11.7,4.91c-3.22,3.27-7.46,4.9-11.7,4.9c-4.24,0-8.48-1.63-11.7-4.9
		c-3.22-3.27-7.46-4.91-11.7-4.91c-4.24,0-8.48,1.64-11.7,4.91c-3.22,3.27-7.46,4.9-11.7,4.9c-4.24,0-8.48-1.63-11.7-4.9
		c-3.22-3.27-7.46-4.91-11.7-4.91c-4.24,0-8.48,1.64-11.7,4.91c-3.22,3.27-7.46,4.9-11.7,4.9c-4.24,0-8.48-1.63-11.7-4.9
		c-1.14-1.16-2.41-2.11-3.76-2.86C295.953,230.425,291.033,245.885,291.033,262.375z"/>
</g>
<g>
	<path style="fill:#993E29;" d="M207.466,217.145c-1.35,0.75-2.62,1.7-3.76,2.86c-3.22,3.27-7.46,4.9-11.7,4.9
		c-4.24,0-8.48-1.63-11.7-4.9c-3.22-3.27-7.46-4.91-11.7-4.91c-4.24,0-8.48,1.64-11.7,4.91c-3.22,3.27-7.46,4.9-11.7,4.9
		c-4.24,0-8.48-1.63-11.7-4.9c-3.22-3.27-7.46-4.91-11.7-4.91s-8.48,1.64-11.7,4.91c-3.22,3.27-7.46,4.9-11.7,4.9
		s-8.48-1.63-11.7-4.9c-3.22-3.27-7.46-4.91-11.7-4.91c-4.24,0-8.48,1.64-11.7,4.91c-3.22,3.27-7.46,4.9-11.7,4.9
		s-8.48-1.63-11.7-4.9c-1.14-1.16-2.4-2.11-3.75-2.86c17.19-26.63,49.11-44.52,85.65-44.52S190.266,190.515,207.466,217.145z"/>
	<path style="fill:#993E29;" d="M304.534,217.145c1.35,0.75,2.62,1.7,3.76,2.86c3.22,3.27,7.46,4.9,11.7,4.9
		c4.24,0,8.48-1.63,11.7-4.9c3.22-3.27,7.46-4.91,11.7-4.91c4.24,0,8.48,1.64,11.7,4.91c3.22,3.27,7.46,4.9,11.7,4.9
		c4.24,0,8.48-1.63,11.7-4.9c3.22-3.27,7.46-4.91,11.7-4.91c4.24,0,8.48,1.64,11.7,4.91c3.22,3.27,7.46,4.9,11.7,4.9
		c4.24,0,8.48-1.63,11.7-4.9c3.22-3.27,7.46-4.91,11.7-4.91c4.24,0,8.48,1.64,11.7,4.91c3.22,3.27,7.46,4.9,11.7,4.9
		c4.24,0,8.48-1.63,11.7-4.9c1.14-1.16,2.4-2.11,3.75-2.86c-17.19-26.63-49.11-44.52-85.65-44.52S321.734,190.515,304.534,217.145z"
		/>
</g>
<path style="fill:#E86D24;" d="M355.16,262.375c0,49.57-44.389,89.75-99.16,89.75s-99.16-40.18-99.16-89.75
	c0-16.49,4.92-31.95,13.51-45.23c1.35,0.75,2.61,1.7,3.75,2.86c3.22,3.27,7.46,4.9,11.7,4.9s8.48-1.63,11.7-4.9
	c3.22-3.27,7.46-4.91,11.7-4.91c4.24,0,8.48,1.64,11.7,4.91c3.22,3.27,7.46,4.9,11.7,4.9c4.24,0,8.48-1.63,11.7-4.9
	c3.22-3.27,7.46-4.91,11.7-4.91s8.48,1.64,11.7,4.91c3.22,3.27,7.46,4.9,11.7,4.9c4.24,0,8.48-1.63,11.7-4.9
	c3.22-3.27,7.46-4.91,11.7-4.91c4.24,0,8.48,1.64,11.7,4.91c3.22,3.27,7.46,4.9,11.7,4.9c4.24,0,8.48-1.63,11.7-4.9
	c1.14-1.16,2.41-2.11,3.76-2.86C350.24,230.425,355.16,245.885,355.16,262.375z"/>
<path style="fill:#A8503C;" d="M341.66,217.145c-1.35,0.75-2.62,1.7-3.76,2.86c-3.22,3.27-7.46,4.9-11.7,4.9
	c-4.24,0-8.48-1.63-11.7-4.9c-3.22-3.27-7.46-4.91-11.7-4.91c-4.24,0-8.48,1.64-11.7,4.91c-3.22,3.27-7.46,4.9-11.7,4.9
	c-4.24,0-8.48-1.63-11.7-4.9c-3.22-3.27-7.46-4.91-11.7-4.91c-4.24,0-8.48,1.64-11.7,4.91c-3.22,3.27-7.46,4.9-11.7,4.9
	c-4.24,0-8.48-1.63-11.7-4.9c-3.22-3.27-7.46-4.91-11.7-4.91c-4.24,0-8.48,1.64-11.7,4.91c-3.22,3.27-7.46,4.9-11.7,4.9
	c-4.24,0-8.48-1.63-11.7-4.9c-1.14-1.16-2.4-2.11-3.75-2.86c17.19-26.63,49.11-44.52,85.65-44.52S324.46,190.515,341.66,217.145z"/>
<g>
	<path style="fill:#3B484A;" d="M215.733,264.991c-4.268,0-7.726-3.459-7.726-7.726v-7.288c0-4.267,3.458-7.726,7.726-7.726
		c4.268,0,7.726,3.459,7.726,7.726v7.288C223.46,261.532,220,264.991,215.733,264.991z"/>
	<path style="fill:#3B484A;" d="M296.267,264.991c-4.268,0-7.726-3.459-7.726-7.726v-7.288c0-4.267,3.458-7.726,7.726-7.726
		c4.268,0,7.726,3.459,7.726,7.726v7.288C303.993,261.532,300.534,264.991,296.267,264.991z"/>
	<path style="fill:#3B484A;" d="M256,270.377c-6.99,0-13.56-2.932-18.028-8.045c-2.808-3.213-2.479-8.094,0.734-10.902
		c3.215-2.807,8.095-2.48,10.902,0.734c1.533,1.754,3.863,2.76,6.392,2.76c2.529,0,4.86-1.006,6.394-2.761
		c2.807-3.213,7.688-3.54,10.902-0.731c3.212,2.808,3.541,7.689,0.731,10.902C269.559,267.445,262.989,270.377,256,270.377z"/>
</g>
<path style="fill:#F9545B;" d="M256,311.363L22.646,334.009l12.831,30.893c13.697,32.979,45.898,54.474,81.608,54.474h277.83
	c35.711,0,67.912-21.494,81.608-54.474l12.831-30.893L256,311.363z"/>
<path style="fill:#E64047;" d="M76.684,364.902l-12.831-30.893l212.751-20.646l-20.604-2L22.646,334.009l12.831,30.893
	c13.697,32.98,45.898,54.474,81.608,54.474h41.207C122.581,419.376,90.381,397.882,76.684,364.902z"/>
<path style="fill:#FECE00;" d="M489.354,288.717H22.646C10.139,288.717,0,298.856,0,311.363l0,0
	c0,12.507,10.139,22.646,22.646,22.646h466.707c12.507,0,22.646-10.139,22.646-22.646l0,0
	C512,298.856,501.861,288.717,489.354,288.717z"/>
<path style="fill:#E6BB00;" d="M41.207,311.363L41.207,311.363c0-12.507,10.139-22.646,22.646-22.646H22.646
	C10.139,288.717,0,298.856,0,311.363l0,0c0,12.507,10.139,22.645,22.646,22.645h41.207C51.346,334.009,41.207,323.87,41.207,311.363
	z"/>
<g>
</g>
<g>
</g>
<g>
</g>
<g>
</g>
<g>
</g>
<g>
</g>
<g>
</g>
<g>
</g>
<g>
</g>
<g>
</g>
<g>
</g>
<g>
</g>
<g>
</g>
<g>
</g>
<g>
</g>
</svg>
