<?xml version="1.0" encoding="iso-8859-1"?>
<!-- Generator: Adobe Illustrator 19.0.0, SVG Export Plug-In . SVG Version: 6.00 Build 0)  -->
<svg version="1.1" id="Capa_1" xmlns="http://www.w3.org/2000/svg" xmlns:xlink="http://www.w3.org/1999/xlink" x="0px" y="0px"
	 viewBox="0 0 512 512" style="enable-background:new 0 0 512 512;" xml:space="preserve">
<path style="fill:#FDC464;" d="M500.744,212.923L500.744,212.923c-7.2-12.836-11.068-27.271-11.251-41.987l0,0
	c-0.38-30.678-16.7-58.945-43.078-74.613l0,0c-12.654-7.516-23.221-18.084-30.736-30.736l0,0
	c-15.668-26.378-43.935-42.698-74.613-43.078l0,0c-14.716-0.182-29.152-4.051-41.987-11.251l0,0
	c-26.757-15.01-59.398-15.01-86.155,0l0,0c-12.836,7.2-27.271,11.068-41.987,11.251l0,0c-30.678,0.38-58.945,16.7-74.613,43.078l0,0
	C88.807,78.24,78.24,88.807,65.586,96.323l0,0c-26.378,15.668-42.698,43.935-43.078,74.613l0,0
	c-0.182,14.716-4.051,29.152-11.251,41.987l0,0c-15.01,26.757-15.01,59.398,0,86.155l0,0c7.2,12.836,11.068,27.271,11.251,41.987
	l0,0c0.38,30.678,16.7,58.945,43.078,74.613l0,0c12.654,7.516,23.221,18.084,30.736,30.736l0,0
	c15.668,26.378,43.935,42.698,74.613,43.078l0,0c14.716,0.182,29.152,4.051,41.987,11.251l0,0c26.757,15.01,59.398,15.01,86.155,0
	l0,0c12.836-7.2,27.271-11.068,41.987-11.251l0,0c30.678-0.38,58.945-16.7,74.613-43.078l0,0
	c7.516-12.654,18.084-23.221,30.736-30.736l0,0c26.378-15.668,42.698-43.935,43.078-74.613l0,0
	c0.182-14.716,4.051-29.152,11.251-41.987l0,0C515.752,272.321,515.752,239.68,500.744,212.923z"/>
<path style="fill:#E6B25B;" d="M254.13,500.744L254.13,500.744c-12.836-7.2-27.271-11.068-41.987-11.251l0,0
	c-30.678-0.38-58.945-16.7-74.613-43.077l0,0c-7.516-12.654-18.084-23.221-30.736-30.736l0,0
	c-26.378-15.668-42.698-43.935-43.078-74.613l0,0c-0.182-14.716-4.051-29.152-11.251-41.987l0,0
	c-15.01-26.757-15.01-59.398,0-86.155l0,0c7.2-12.835,11.068-27.271,11.251-41.987l0,0c0.38-30.677,16.7-58.945,43.078-74.613l0,0
	c12.654-7.516,23.221-18.084,30.736-30.736l0,0c15.668-26.377,43.935-42.698,74.613-43.077l0,0
	c14.716-0.182,29.152-4.051,41.987-11.251l0,0c7.145-4.008,14.713-6.935,22.474-8.803c-21.3-5.125-44.07-2.198-63.682,8.803l0,0
	c-12.836,7.2-27.271,11.068-41.987,11.251l0,0c-30.678,0.38-58.945,16.7-74.613,43.077l0,0C88.807,78.24,78.24,88.806,65.586,96.323
	l0,0c-26.378,15.667-42.698,43.935-43.078,74.613l0,0c-0.182,14.716-4.051,29.152-11.251,41.987l0,0
	c-15.01,26.758-15.01,59.398,0,86.155l0,0c7.2,12.835,11.068,27.271,11.251,41.987l0,0c0.38,30.677,16.7,58.945,43.078,74.613l0,0
	c12.654,7.516,23.221,18.084,30.736,30.736l0,0c15.668,26.377,43.935,42.698,74.613,43.077l0,0
	c14.716,0.182,29.152,4.051,41.987,11.251l0,0c19.612,11.001,42.382,13.928,63.682,8.803
	C268.843,507.679,261.276,504.752,254.13,500.744z"/>
<g>
	<ellipse style="fill:#993E29;" cx="278.129" cy="79.561" rx="25.664" ry="20.997"/>
	<ellipse style="fill:#993E29;" cx="85.928" cy="249.51" rx="25.664" ry="20.997"/>
	<ellipse style="fill:#993E29;" cx="247.543" cy="423.23" rx="25.664" ry="20.997"/>
</g>
<g>
	<ellipse style="fill:#A8503C;" cx="155.115" cy="134.048" rx="40.929" ry="33.487"/>
	<ellipse style="fill:#A8503C;" cx="367.013" cy="367.363" rx="34.192" ry="27.969"/>
	<ellipse style="fill:#A8503C;" cx="379.89" cy="149.284" rx="31.736" ry="25.961"/>
</g>
<ellipse style="fill:#993E29;" cx="424.353" cy="249.51" rx="20.845" ry="17.055"/>
<ellipse style="fill:#A8503C;" cx="132.245" cy="367.363" rx="20.845" ry="17.055"/>
<g>
	<path style="fill:#3B484A;" d="M183.22,265.445c-4.267,0-7.726-3.459-7.726-7.726v-13.172c0-4.267,3.459-7.726,7.726-7.726
		c4.267,0,7.726,3.459,7.726,7.726v13.172C190.947,261.987,187.487,265.445,183.22,265.445z"/>
	<path style="fill:#3B484A;" d="M328.781,265.445c-4.267,0-7.726-3.459-7.726-7.726v-13.172c0-4.267,3.459-7.726,7.726-7.726
		c4.267,0,7.726,3.459,7.726,7.726v13.172C336.507,261.987,333.048,265.445,328.781,265.445z"/>
	<path style="fill:#3B484A;" d="M256.001,275.18c-10.831,0-20.996-4.521-27.888-12.406c-2.808-3.213-2.481-8.094,0.732-10.902
		c3.213-2.808,8.093-2.481,10.902,0.732c3.957,4.527,9.88,7.124,16.253,7.124c6.373,0,12.296-2.596,16.253-7.124
		c2.809-3.213,7.69-3.54,10.902-0.732c3.213,2.808,3.541,7.689,0.732,10.902C276.997,270.658,266.832,275.18,256.001,275.18z"/>
</g>
<g>
</g>
<g>
</g>
<g>
</g>
<g>
</g>
<g>
</g>
<g>
</g>
<g>
</g>
<g>
</g>
<g>
</g>
<g>
</g>
<g>
</g>
<g>
</g>
<g>
</g>
<g>
</g>
<g>
</g>
</svg>
