<?xml version="1.0" encoding="iso-8859-1"?>
<!-- Generator: Adobe Illustrator 19.0.0, SVG Export Plug-In . SVG Version: 6.00 Build 0)  -->
<svg version="1.1" id="Capa_1" xmlns="http://www.w3.org/2000/svg" xmlns:xlink="http://www.w3.org/1999/xlink" x="0px" y="0px"
	 viewBox="0 0 512 512" style="enable-background:new 0 0 512 512;" xml:space="preserve">
<g>
	<polygon style="fill:#A8503C;" points="37.63,131.897 21.666,135.563 18.92,160.896 34.66,191.057 53.37,191.057 53.37,162.056 	
		"/>
	<polygon style="fill:#A8503C;" points="474.37,131.897 490.334,135.563 493.08,160.896 477.34,191.057 458.63,191.057 
		458.63,162.056 	"/>
</g>
<g>
	<path style="fill:#EEECED;" d="M37.63,131.897l-18.71,29L6.78,137.637c-2.43-4.68-0.62-10.44,4.05-12.88l9.67-5.05
		c4.68-2.441,10.44-0.63,12.88,4.05L37.63,131.897z"/>
	<polygon style="fill:#EEECED;" points="80.3,213.666 53.7,227.547 34.66,191.057 53.37,162.056 	"/>
</g>
<g>
	<path style="fill:#E64047;" d="M255.992,198.124c-3.554,0-6.753-2.467-7.541-6.081c-7.154-32.792,14.441-44.936,15.364-45.437
		l7.372,13.581l0.111-0.062c-0.031,0.019-3.155,1.891-5.631,6.199c-3.373,5.867-4.085,13.412-2.119,22.427
		c0.91,4.169-1.733,8.286-5.902,9.195C257.091,198.066,256.538,198.124,255.992,198.124z"/>
	<path style="fill:#E64047;" d="M385.991,158.124c-3.554,0-6.753-2.467-7.541-6.081c-7.154-32.792,14.441-44.936,15.364-45.437
		l7.372,13.581l0.111-0.062c-0.031,0.019-3.155,1.891-5.631,6.199c-3.373,5.867-4.085,13.412-2.119,22.427
		c0.91,4.169-1.733,8.286-5.902,9.195C387.092,158.066,386.537,158.124,385.991,158.124z"/>
</g>
<g>
	<path style="fill:#EEECED;" d="M474.37,131.897l18.71,29l12.14-23.26c2.43-4.68,0.62-10.44-4.05-12.88l-9.67-5.05
		c-4.68-2.441-10.44-0.63-12.88,4.05L474.37,131.897z"/>
	<polygon style="fill:#EEECED;" points="431.7,213.666 458.3,227.547 477.34,191.057 458.63,162.056 	"/>
</g>
<path style="fill:#A8503C;" d="M208.83,212.697c7.75,11.58,12.17,24.96,12.17,39.2c0,44.18-42.53,80-95,80s-95-35.82-95-80
	c0-14.24,4.419-27.62,12.17-39.2l82.33-23.8L208.83,212.697z"/>
<path style="fill:#993E29;" d="M43.17,212.697c4.79-1.56,10.3-0.36,14,3.62c2.65,2.86,6.24,4.29,9.83,4.29
	c3.59,0,7.18-1.43,9.83-4.29c2.66-2.86,6.25-4.28,9.84-4.28s7.17,1.42,9.83,4.28c2.66,2.86,6.24,4.29,9.84,4.29
	c3.58,0,7.18-1.43,9.83-4.29c2.65-2.86,6.24-4.28,9.83-4.28c3.59,0,7.18,1.42,9.83,4.28c2.65,2.86,6.25,4.29,9.83,4.29
	c3.6,0,7.18-1.43,9.84-4.29s6.24-4.28,9.84-4.28c3.58,0,7.18,1.42,9.83,4.28c2.65,2.86,6.24,4.29,9.83,4.29s7.18-1.43,9.83-4.29
	c2.66-2.86,6.25-4.28,9.84-4.28c1.41,0,2.81,0.22,4.16,0.66c-16.29-24.35-47.28-40.8-82.83-40.8S59.46,188.346,43.17,212.697z"/>
<path style="fill:#E64047;" d="M126.009,158.124c-0.546,0-1.099-0.058-1.654-0.179c-4.169-0.91-6.812-5.026-5.902-9.195
	c1.967-9.015,1.254-16.56-2.118-22.427c-2.476-4.306-5.6-6.18-5.631-6.198l0.111,0.062l7.372-13.581
	c0.923,0.501,22.517,12.645,15.363,45.437C132.761,155.658,129.562,158.124,126.009,158.124z"/>
<path style="fill:#EB98A3;" d="M303.17,212.697c-7.75,11.58-12.17,24.96-12.17,39.2c0,44.18,42.53,80,95,80s95-35.82,95-80
	c0-14.24-4.419-27.62-12.169-39.2l-82.33-23.8L303.17,212.697z"/>
<path style="fill:#993E29;" d="M468.83,212.697c-4.79-1.56-10.3-0.36-14,3.62c-2.65,2.86-6.24,4.29-9.83,4.29
	c-3.59,0-7.18-1.43-9.83-4.29c-2.66-2.86-6.25-4.28-9.84-4.28c-3.59,0-7.17,1.42-9.83,4.28c-2.66,2.86-6.24,4.29-9.84,4.29
	c-3.58,0-7.18-1.43-9.83-4.29s-6.24-4.28-9.83-4.28c-3.59,0-7.18,1.42-9.83,4.28c-2.65,2.86-6.25,4.29-9.83,4.29
	c-3.6,0-7.18-1.43-9.84-4.29s-6.24-4.28-9.84-4.28c-3.58,0-7.18,1.42-9.83,4.28c-2.65,2.86-6.24,4.29-9.83,4.29
	c-3.59,0-7.18-1.43-9.83-4.29c-2.66-2.86-6.25-4.28-9.84-4.28c-1.41,0-2.81,0.22-4.16,0.66c16.29-24.35,47.28-40.8,82.83-40.8
	S452.54,188.346,468.83,212.697z"/>
<path style="fill:#994937;" d="M83.525,234.616c-10.607-8.012-23.227-12.247-36.496-12.247c-3.287,0-6.524,0.277-9.698,0.78
	c-4.083,8.923-6.33,18.615-6.33,28.747c0,44.18,42.53,80,95,80c44.996,0,82.68-26.344,92.503-61.711
	C128.005,264.657,90.712,240.044,83.525,234.616z"/>
<path style="fill:#FA7578;" d="M428.474,234.617c-7.187,5.428-44.48,30.04-134.976,35.568c9.823,35.367,47.507,61.711,92.503,61.711
	c52.47,0,95-35.82,95-80c0-10.131-2.248-19.823-6.329-28.744c-3.174-0.504-6.412-0.781-9.7-0.781
	C451.7,222.371,439.081,226.605,428.474,234.617z"/>
<path style="fill:#FEE333;" d="M173.17,252.697c-7.75,11.58-12.17,24.96-12.17,39.2c0,44.18,42.53,80,95,80s95-35.82,95-80
	c0-14.24-4.419-27.62-12.17-39.2l-82.33-23.8L173.17,252.697z"/>
<path style="fill:#993E29;" d="M338.83,252.697c-4.79-1.56-10.3-0.36-14,3.62c-2.65,2.86-6.24,4.29-9.83,4.29
	c-3.59,0-7.18-1.43-9.83-4.29c-2.66-2.86-6.25-4.28-9.84-4.28s-7.17,1.42-9.83,4.28c-2.66,2.86-6.24,4.29-9.84,4.29
	c-3.58,0-7.18-1.43-9.83-4.29c-2.65-2.86-6.24-4.28-9.83-4.28c-3.59,0-7.18,1.42-9.83,4.28c-2.65,2.86-6.25,4.29-9.83,4.29
	c-3.6,0-7.18-1.43-9.84-4.29c-2.66-2.86-6.24-4.28-9.84-4.28c-3.58,0-7.18,1.42-9.83,4.28c-2.65,2.86-6.24,4.29-9.83,4.29
	s-7.18-1.43-9.83-4.29c-2.66-2.86-6.25-4.28-9.84-4.28c-1.41,0-2.81,0.22-4.16,0.66c16.29-24.35,47.28-40.8,82.83-40.8
	S322.54,228.346,338.83,252.697z"/>
<circle style="fill:#F9545B;" cx="256" cy="200.896" r="21"/>
<path style="fill:#E64047;" d="M266.302,211.595c-11.598,0-21-9.401-21-21c0-3.133,0.705-6.094,1.935-8.764
	C240.02,185.154,235,192.43,235,200.896c0,11.598,9.402,21,21,21c8.466,0,15.742-5.02,19.066-12.235
	C272.395,210.89,269.435,211.595,266.302,211.595z"/>
<path style="fill:#F2D831;" d="M166.82,264.273c-3.762,8.61-5.821,17.916-5.821,27.623c0,44.18,42.53,80,95,80s95-35.82,95-80
	c0-9.707-2.057-19.013-5.821-27.623c-23.658,4.152-53.059,7.02-89.18,7.02S190.478,268.426,166.82,264.273z"/>
<circle style="fill:#F9545B;" cx="385.999" cy="160.894" r="21"/>
<path style="fill:#E64047;" d="M396.301,171.595c-11.598,0-21-9.401-21-21c0-3.133,0.705-6.094,1.935-8.764
	c-7.216,3.323-12.236,10.6-12.236,19.066c0,11.598,9.402,21,21,21c8.466,0,15.742-5.02,19.066-12.235
	C402.396,170.89,399.434,171.595,396.301,171.595z"/>
<circle style="fill:#F9545B;" cx="126.001" cy="160.894" r="21"/>
<path style="fill:#E64047;" d="M136.302,171.595c-11.598,0-21-9.401-21-21c0-3.133,0.705-6.094,1.935-8.764
	C110.02,145.154,105,152.43,105,160.896c0,11.598,9.402,21,21,21c8.466,0,15.742-5.02,19.066-12.235
	C142.396,170.89,139.434,171.595,136.302,171.595z"/>
<path style="fill:#E6BB00;" d="M256,371.897c-137.161,0-204.925-35.714-233.109-57.003c-17.628-13.314-21.125-38.398-7.81-56.026
	c13.314-17.628,38.398-21.125,56.026-7.81c12.684,9.581,63.502,40.839,184.893,40.839c121.389,0,172.208-31.259,184.892-40.838
	c17.627-13.313,42.713-9.818,56.026,7.81c13.315,17.627,9.819,42.712-7.81,56.026C460.924,336.184,393.161,371.897,256,371.897z"/>
<path style="fill:#55C2E3;" d="M0,330.398L0,330.398c0,41.419,33.577,74.996,74.996,74.996h362.008
	c41.419,0,74.996-33.577,74.996-74.996l0,0H0z"/>
<path style="fill:#45B6D9;" d="M51.509,330.398L51.509,330.398H0l0,0c0,41.419,33.577,74.996,74.996,74.996h51.509
	C85.086,405.394,51.509,371.818,51.509,330.398z"/>
<g>
</g>
<g>
</g>
<g>
</g>
<g>
</g>
<g>
</g>
<g>
</g>
<g>
</g>
<g>
</g>
<g>
</g>
<g>
</g>
<g>
</g>
<g>
</g>
<g>
</g>
<g>
</g>
<g>
</g>
</svg>
