<?xml version="1.0" encoding="iso-8859-1"?>
<!-- Generator: Adobe Illustrator 19.0.0, SVG Export Plug-In . SVG Version: 6.00 Build 0)  -->
<svg version="1.1" id="Capa_1" xmlns="http://www.w3.org/2000/svg" xmlns:xlink="http://www.w3.org/1999/xlink" x="0px" y="0px"
	 viewBox="0 0 512 512" style="enable-background:new 0 0 512 512;" xml:space="preserve">
<g>
	<rect x="81.302" y="100.483" style="fill:#3B484A;" width="28.814" height="74.482"/>
	<rect x="344.42" y="100.483" style="fill:#3B484A;" width="28.814" height="74.482"/>
</g>
<path style="fill:#80E2FF;" d="M317.073,154.369H56.565c-19.19,0-34.74,15.55-34.74,34.73v227.382l14.402,34.653h280.847
	l37.458-134.543L317.073,154.369z"/>
<path style="fill:#EB98A3;" d="M500.12,379.023l-15.886-17.222l15.886-17.222c0-15.147-12.285-27.421-27.431-27.421H458.34
	l-40.244-137.799c-4.322-14.811-17.904-24.991-33.338-24.991h-67.684v296.766h158.7l24.345-34.653V379.023z"/>
<g>
	<path style="fill:#D4D2D3;" d="M504.573,416.481h-28.799c-4.102,0-7.427,3.325-7.427,7.427v19.8c0,4.102,3.325,7.427,7.427,7.427
		h28.799c4.102,0,7.427-3.325,7.427-7.427v-19.8C512,419.806,508.675,416.481,504.573,416.481z"/>
	<path style="fill:#D4D2D3;" d="M36.226,416.481h-28.8c-4.102,0-7.427,3.325-7.427,7.427v19.8c0,4.102,3.325,7.427,7.427,7.427
		h28.799c4.102,0,7.427-3.325,7.427-7.427v-19.8C43.653,419.806,40.327,416.481,36.226,416.481z"/>
</g>
<path style="fill:#80E2FF;" d="M429.755,311.79h-86.75V180.302h41.751c3.881,0,7.358,2.603,8.442,6.32L429.755,311.79z"/>
<path style="fill:#D4D2D3;" d="M369.899,352.172h-26.892c-4.268,0-7.726-3.459-7.726-7.726c0-4.267,3.458-7.726,7.726-7.726h26.892
	c4.268,0,7.726,3.459,7.726,7.726C377.625,348.713,374.166,352.172,369.899,352.172z"/>
<rect x="468.351" y="344.585" style="fill:#FECE00;" width="31.773" height="34.442"/>
<circle style="fill:#3B484A;" cx="128.824" cy="451.136" r="47.78"/>
<circle style="fill:#D4D2D3;" cx="128.824" cy="451.136" r="24.011"/>
<circle style="fill:#3B484A;" cx="391.747" cy="451.136" r="47.78"/>
<circle style="fill:#D4D2D3;" cx="391.747" cy="451.136" r="24.011"/>
<polygon style="fill:#FA7578;" points="267.129,191.712 71.711,191.712 71.711,319.474 169.448,337.243 267.187,319.474 "/>
<path style="fill:#E0696C;" d="M120.58,243.513c7.044,4.569,15.431,7.234,24.435,7.234c9.004,0,17.39-2.665,24.435-7.234
	c7.044,4.569,15.431,7.234,24.435,7.234c9.003,0,17.39-2.665,24.434-7.234c7.044,4.569,15.431,7.234,24.434,7.234
	c8.988,0,17.364-2.657,24.401-7.212l-0.024-51.823H71.711v51.801c7.044,4.569,15.431,7.234,24.435,7.234
	C105.149,250.748,113.536,248.081,120.58,243.513z"/>
<polygon style="fill:#FECE00;" points="100.525,337.242 100.525,201.316 238.327,201.316 238.362,337.244 "/>
<path style="fill:#E6BB00;" d="M238.327,201.316H100.525v49.212c7.34-0.714,14.167-3.197,20.055-7.016
	c7.044,4.569,15.431,7.234,24.435,7.234c9.004,0,17.39-2.665,24.435-7.234c7.044,4.569,15.431,7.234,24.435,7.234
	c9.003,0,17.39-2.665,24.434-7.234c5.879,3.813,12.695,6.293,20.023,7.011L238.327,201.316z"/>
<path style="fill:#EB98A3;" d="M71.711,191.712v13.997c0,13.494,10.939,24.435,24.435,24.435s24.435-10.939,24.435-24.435v-13.997
	H71.711z"/>
<path style="fill:#EEECED;" d="M120.58,191.712v13.997c0,13.494,10.939,24.435,24.435,24.435s24.435-10.939,24.435-24.435v-13.997
	H120.58z"/>
<path style="fill:#EB98A3;" d="M169.448,191.712v13.997c0,13.494,10.939,24.435,24.435,24.435s24.435-10.939,24.435-24.435v-13.997
	H169.448z"/>
<path style="fill:#EEECED;" d="M218.318,191.712v13.997c0,13.494,10.939,24.435,24.435,24.435c13.494,0,24.435-10.939,24.435-24.435
	v-13.997H218.318z"/>
<path style="fill:#EB98A3;" d="M389.657,13.084H64.882c-10.46,0-18.94,8.479-18.94,18.94v66.692c0,10.46,8.479,18.94,18.94,18.94
	h324.775c10.46,0,18.94-8.479,18.94-18.94V32.024C408.597,21.563,400.117,13.084,389.657,13.084z"/>
<rect x="69.953" y="37.096" style="fill:#EEECED;" width="314.628" height="56.548"/>
<rect x="69.953" y="37.096" style="fill:#D4D2D3;" width="24.724" height="56.548"/>
<path style="fill:#EB98A3;" d="M267.187,319.474H71.711c-12.863,0-23.289,10.427-23.289,23.289v12.248h242.055v-12.248
	C290.476,329.901,280.05,319.474,267.187,319.474z"/>
<g>
</g>
<g>
</g>
<g>
</g>
<g>
</g>
<g>
</g>
<g>
</g>
<g>
</g>
<g>
</g>
<g>
</g>
<g>
</g>
<g>
</g>
<g>
</g>
<g>
</g>
<g>
</g>
<g>
</g>
</svg>
