<?xml version="1.0" encoding="iso-8859-1"?>
<!-- Generator: Adobe Illustrator 19.0.0, SVG Export Plug-In . SVG Version: 6.00 Build 0)  -->
<svg version="1.1" id="Capa_1" xmlns="http://www.w3.org/2000/svg" xmlns:xlink="http://www.w3.org/1999/xlink" x="0px" y="0px"
	 viewBox="0 0 512.001 512.001" style="enable-background:new 0 0 512.001 512.001;" xml:space="preserve">
<path style="fill:#55C2E3;" d="M370.923,155.275l-114.923-15.491l-114.923,15.49c0,0-21.708,21.191-22.45,49.721l137.373,28.824
	l137.373-28.823C392.631,176.466,370.923,155.275,370.923,155.275z"/>
<path style="fill:#45B6D9;" d="M159.835,204.996c0.742-28.531,22.45-49.722,22.45-49.722l94.319-12.713l-20.604-2.777
	l-114.923,15.491c0,0-21.708,21.191-22.45,49.722l137.373,28.823l20.604-4.324L159.835,204.996z"/>
<path style="fill:#55C2E3;" d="M256.001,397.799l-137.392,24.919v7.096c0,29.282,22.469,51.214,22.469,51.214l114.923,15.482
	l114.923-15.481c0,0,22.469-21.933,22.469-51.214v-7.096L256.001,397.799z"/>
<path style="fill:#45B6D9;" d="M182.285,481.03c0,0-22.469-21.933-22.469-51.214v-7.096l116.789-21.183l-20.604-3.736
	l-137.392,24.919v7.096c0,29.282,22.469,51.214,22.469,51.214l114.923,15.481l20.604-2.775L182.285,481.03z"/>
<path style="fill:#D4D2D3;" d="M351.163,124.301H160.838c-10.915,0-19.764,8.848-19.764,19.764v11.21h229.854v-11.21
	C370.927,133.15,362.079,124.301,351.163,124.301z"/>
<path style="fill:#BAB8B9;" d="M202.045,124.301h-41.207c-10.915,0-19.764,8.848-19.764,19.764v11.21h41.207v-11.21
	C182.281,133.15,191.129,124.301,202.045,124.301z"/>
<path style="fill:#D4D2D3;" d="M160.838,512h190.327c10.915,0,19.764-8.848,19.764-19.764v-11.21H141.074v11.21
	C141.074,503.152,149.922,512,160.838,512z"/>
<path style="fill:#BAB8B9;" d="M182.281,492.237v-11.21h-41.207v11.21c0,10.915,8.848,19.764,19.764,19.764h41.207
	C191.129,512,182.281,503.152,182.281,492.237z"/>
<path style="fill:#80E2FF;" d="M393.393,206.489v216.229H118.608V206.489c0-0.498,0.009-0.995,0.02-1.494h274.745
	C393.382,205.493,393.393,205.992,393.393,206.489z"/>
<path style="fill:#55C2E3;" d="M159.835,204.996h-41.207c-0.009,0.498-0.02,0.995-0.02,1.493v216.23h41.207V206.489
	C159.816,205.992,159.826,205.493,159.835,204.996z"/>
<g>
	<path style="fill:#3B484A;" d="M197.436,320.97c-4.268,0-7.726-3.459-7.726-7.726v-10.6c0-4.267,3.458-7.726,7.726-7.726
		c4.268,0,7.726,3.459,7.726,7.726v10.6C205.162,317.511,201.704,320.97,197.436,320.97z"/>
	<path style="fill:#3B484A;" d="M314.565,320.97c-4.268,0-7.726-3.459-7.726-7.726v-10.6c0-4.267,3.458-7.726,7.726-7.726
		c4.268,0,7.726,3.459,7.726,7.726v10.6C322.292,317.511,318.832,320.97,314.565,320.97z"/>
	<path style="fill:#3B484A;" d="M256.001,328.804c-9.151,0-17.745-3.827-23.577-10.499c-2.809-3.213-2.481-8.094,0.732-10.902
		c3.211-2.807,8.093-2.481,10.901,0.732c2.898,3.315,7.25,5.216,11.943,5.216c4.692,0,9.045-1.901,11.943-5.216
		c2.807-3.213,7.69-3.541,10.901-0.732c3.213,2.808,3.542,7.689,0.732,10.902C273.745,324.977,265.152,328.804,256.001,328.804z"/>
</g>
<g>
	<circle style="fill:#55C2E3;" cx="220.861" cy="82.208" r="18.22"/>
	<circle style="fill:#55C2E3;" cx="172.927" cy="47.171" r="15.724"/>
</g>
<circle style="fill:#80E2FF;" cx="217.987" cy="12.847" r="12.847"/>
<g>
</g>
<g>
</g>
<g>
</g>
<g>
</g>
<g>
</g>
<g>
</g>
<g>
</g>
<g>
</g>
<g>
</g>
<g>
</g>
<g>
</g>
<g>
</g>
<g>
</g>
<g>
</g>
<g>
</g>
</svg>
