<?xml version="1.0" encoding="iso-8859-1"?>
<!-- Generator: Adobe Illustrator 19.0.0, SVG Export Plug-In . SVG Version: 6.00 Build 0)  -->
<svg version="1.1" id="Capa_1" xmlns="http://www.w3.org/2000/svg" xmlns:xlink="http://www.w3.org/1999/xlink" x="0px" y="0px"
	 viewBox="0 0 512 512" style="enable-background:new 0 0 512 512;" xml:space="preserve">
<path style="fill:#FEE333;" d="M256,279.99c-50.893,0-92.298-41.405-92.298-92.298S205.107,95.395,256,95.395
	s92.298,41.405,92.298,92.298S306.893,279.99,256,279.99z"/>
<path style="fill:#FECE00;" d="M256,249.224c-33.929,0-61.532-27.603-61.532-61.532s27.603-61.532,61.532-61.532
	s61.532,27.603,61.532,61.532S289.929,249.224,256,249.224z"/>
<circle style="fill:#FEE333;" cx="256" cy="187.689" r="30.766"/>
<path style="fill:#A8503C;" d="M31.539,184.051c-2.159-8.475,0.249-17.464,6.357-23.724c2.93-3.003,5.06-6.693,6.197-10.731
	c2.368-8.42,8.948-14.999,17.368-17.368c4.039-1.136,7.728-3.267,10.731-6.197c6.26-6.107,15.249-8.515,23.725-6.357
	c4.066,1.035,8.326,1.035,12.392,0c8.475-2.159,17.464,0.249,23.724,6.357c3.003,2.93,6.693,5.06,10.731,6.197
	c8.42,2.368,14.999,8.948,17.368,17.368c1.136,4.039,3.267,7.728,6.197,10.731c6.108,6.26,8.515,15.249,6.357,23.724
	c-1.035,4.066-1.035,8.326,0,12.392c2.159,8.475-0.249,17.464-6.357,23.724c-2.93,3.003-5.06,6.693-6.197,10.731
	c-2.368,8.42-8.948,14.999-17.368,17.368c-4.039,1.136-7.728,3.267-10.731,6.197c-6.26,6.108-15.249,8.515-23.724,6.357
	c-4.066-1.035-8.326-1.035-12.392,0c-8.475,2.159-17.464-0.249-23.725-6.357c-3.003-2.93-6.693-5.06-10.731-6.197
	c-8.42-2.368-14.999-8.948-17.368-17.368c-1.136-4.039-3.267-7.728-6.197-10.731c-6.108-6.26-8.515-15.249-6.357-23.724
	C32.574,192.377,32.574,188.116,31.539,184.051z"/>
<path style="fill:#993E29;" d="M103.096,254.463c-3.003-2.93-6.693-5.06-10.731-6.197c-8.42-2.368-14.999-8.948-17.368-17.368
	c-1.136-4.038-3.267-7.728-6.197-10.731c-6.108-6.26-8.515-15.249-6.357-23.724c1.035-4.066,1.035-8.327,0-12.392
	c-2.159-8.475,0.249-17.464,6.357-23.724c2.93-3.003,5.06-6.693,6.197-10.731c2.368-8.42,8.948-14.999,17.368-17.368
	c4.039-1.136,7.728-3.266,10.731-6.197c3.993-3.895,9.096-6.278,14.468-6.938c-3.05-0.375-6.186-0.201-9.257,0.581
	c-4.066,1.035-8.326,1.035-12.392,0c-8.475-2.159-17.464,0.249-23.725,6.356c-3.003,2.93-6.693,5.06-10.731,6.197
	c-8.42,2.368-14.999,8.948-17.368,17.368c-1.136,4.038-3.267,7.728-6.197,10.731c-6.108,6.26-8.515,15.249-6.357,23.724
	c1.035,4.066,1.035,8.327,0,12.392c-2.159,8.476,0.249,17.464,6.357,23.724c2.93,3.004,5.06,6.693,6.197,10.731
	c2.368,8.42,8.948,14.999,17.368,17.368c4.039,1.136,7.728,3.267,10.731,6.197c6.26,6.108,15.249,8.515,23.725,6.357
	c4.066-1.035,8.326-1.035,12.392,0c3.07,0.782,6.206,0.956,9.257,0.581C112.193,260.741,107.089,258.358,103.096,254.463z"/>
<path style="fill:#A8503C;" d="M480.461,184.051c2.159-8.475-0.249-17.464-6.357-23.724c-2.93-3.003-5.06-6.693-6.197-10.731
	c-2.368-8.42-8.948-14.999-17.368-17.368c-4.039-1.136-7.728-3.267-10.731-6.197c-6.26-6.107-15.249-8.515-23.724-6.357
	c-4.066,1.035-8.326,1.035-12.392,0c-8.475-2.159-17.464,0.249-23.725,6.357c-3.003,2.93-6.693,5.06-10.731,6.197
	c-8.42,2.368-14.999,8.948-17.368,17.368c-1.136,4.039-3.267,7.728-6.196,10.731c-6.108,6.26-8.515,15.249-6.357,23.724
	c1.035,4.066,1.035,8.326,0,12.392c-2.159,8.475,0.249,17.464,6.357,23.724c2.93,3.003,5.06,6.693,6.196,10.731
	c2.368,8.42,8.948,14.999,17.368,17.368c4.039,1.136,7.728,3.267,10.731,6.197c6.26,6.108,15.249,8.515,23.725,6.357
	c4.066-1.035,8.326-1.035,12.392,0c8.475,2.159,17.464-0.249,23.724-6.357c3.003-2.93,6.693-5.06,10.731-6.197
	c8.42-2.368,14.999-8.948,17.368-17.368c1.136-4.039,3.267-7.728,6.197-10.731c6.108-6.26,8.515-15.249,6.357-23.724
	C479.426,192.377,479.426,188.116,480.461,184.051z"/>
<path style="fill:#993E29;" d="M410.873,254.463c-3.003-2.93-6.693-5.06-10.731-6.197c-8.42-2.368-14.999-8.948-17.368-17.368
	c-1.136-4.038-3.267-7.728-6.197-10.731c-6.108-6.26-8.515-15.249-6.357-23.724c1.035-4.066,1.035-8.327,0-12.392
	c-2.159-8.475,0.249-17.464,6.357-23.724c2.93-3.003,5.06-6.693,6.197-10.731c2.368-8.42,8.948-14.999,17.368-17.368
	c4.039-1.136,7.728-3.266,10.731-6.197c3.993-3.895,9.096-6.278,14.468-6.938c-3.05-0.375-6.186-0.201-9.257,0.581
	c-4.066,1.035-8.326,1.035-12.392,0c-8.475-2.159-17.464,0.249-23.725,6.356c-3.003,2.93-6.693,5.06-10.731,6.197
	c-8.42,2.368-14.999,8.948-17.368,17.368c-1.136,4.038-3.267,7.728-6.197,10.731c-6.108,6.26-8.515,15.249-6.357,23.724
	c1.035,4.066,1.035,8.327,0,12.392c-2.159,8.476,0.249,17.464,6.357,23.724c2.93,3.004,5.06,6.693,6.197,10.731
	c2.368,8.42,8.948,14.999,17.368,17.368c4.039,1.136,7.728,3.267,10.731,6.197c6.26,6.108,15.249,8.515,23.725,6.357
	c4.066-1.035,8.326-1.035,12.392,0c3.07,0.782,6.206,0.956,9.257,0.581C419.97,260.741,414.866,258.358,410.873,254.463z"/>
<path style="fill:#FECE00;" d="M130.933,369.196c50.893,0,92.298-41.405,92.298-92.298S181.826,184.6,130.933,184.6
	s-92.298,41.405-92.298,92.298S80.04,369.196,130.933,369.196z"/>
<path style="fill:#FEE333;" d="M130.933,338.43c33.929,0,61.532-27.603,61.532-61.532s-27.603-61.532-61.532-61.532
	s-61.532,27.603-61.532,61.532S97.004,338.43,130.933,338.43z"/>
<g>
	<circle style="fill:#FECE00;" cx="130.936" cy="276.902" r="30.766"/>
	<path style="fill:#FECE00;" d="M381.067,369.196c-50.893,0-92.298-41.405-92.298-92.298s41.405-92.298,92.298-92.298
		s92.298,41.405,92.298,92.298S431.96,369.196,381.067,369.196z"/>
</g>
<path style="fill:#FEE333;" d="M381.067,338.43c-33.929,0-61.532-27.603-61.532-61.532s27.603-61.532,61.532-61.532
	s61.532,27.603,61.532,61.532S414.996,338.43,381.067,338.43z"/>
<circle style="fill:#FECE00;" cx="381.064" cy="276.902" r="30.766"/>
<path style="fill:#A8503C;" d="M185.427,250.127c-2.159-8.475,0.249-17.464,6.357-23.724c2.93-3.003,5.06-6.693,6.197-10.731
	c2.368-8.42,8.948-14.999,17.368-17.368c4.039-1.136,7.728-3.267,10.731-6.197c6.26-6.107,15.249-8.515,23.724-6.357
	c4.066,1.035,8.326,1.035,12.392,0c8.475-2.159,17.464,0.249,23.724,6.357c3.003,2.93,6.693,5.06,10.731,6.197
	c8.42,2.368,14.999,8.948,17.368,17.368c1.136,4.039,3.267,7.728,6.197,10.731c6.108,6.26,8.515,15.249,6.357,23.724
	c-1.035,4.066-1.035,8.326,0,12.392c2.159,8.475-0.249,17.464-6.357,23.725c-2.93,3.003-5.06,6.693-6.197,10.731
	c-2.368,8.42-8.948,14.999-17.368,17.368c-4.039,1.136-7.728,3.267-10.731,6.197c-6.26,6.108-15.249,8.515-23.724,6.357
	c-4.066-1.035-8.326-1.035-12.392,0c-8.475,2.159-17.464-0.249-23.724-6.357c-3.003-2.93-6.693-5.06-10.731-6.197
	c-8.42-2.368-14.999-8.948-17.368-17.368c-1.136-4.039-3.267-7.728-6.197-10.731c-6.108-6.26-8.515-15.249-6.357-23.725
	C186.463,258.453,186.463,254.193,185.427,250.127z"/>
<path style="fill:#993E29;" d="M256.985,320.539c-3.003-2.93-6.693-5.06-10.731-6.195c-8.42-2.368-14.999-8.948-17.368-17.368
	c-1.136-4.038-3.267-7.728-6.197-10.731c-6.108-6.26-8.515-15.249-6.357-23.724c1.035-4.066,1.035-8.327,0-12.392
	c-2.159-8.476,0.249-17.464,6.357-23.724c2.93-3.004,5.06-6.693,6.197-10.731c2.368-8.42,8.948-14.999,17.368-17.368
	c4.039-1.136,7.728-3.267,10.731-6.197c3.993-3.895,9.096-6.278,14.468-6.938c-3.05-0.375-6.186-0.201-9.257,0.581
	c-4.066,1.035-8.326,1.035-12.392,0c-8.475-2.158-17.464,0.249-23.724,6.357c-3.003,2.93-6.693,5.06-10.731,6.197
	c-8.42,2.368-14.999,8.948-17.368,17.368c-1.136,4.038-3.267,7.728-6.197,10.731c-6.108,6.26-8.515,15.249-6.357,23.724
	c1.035,4.066,1.035,8.327,0,12.392c-2.159,8.475,0.249,17.464,6.357,23.724c2.93,3.003,5.06,6.693,6.197,10.731
	c2.368,8.42,8.948,14.999,17.368,17.368c4.039,1.136,7.728,3.266,10.731,6.195c6.26,6.108,15.249,8.517,23.724,6.357
	c4.066-1.035,8.326-1.035,12.392,0c3.07,0.782,6.206,0.957,9.257,0.581C266.081,326.817,260.978,324.434,256.985,320.539z"/>
<path style="fill:#F9545B;" d="M256,297.097L22.569,319.666l15.234,40.016c13.047,34.272,45.908,56.923,82.579,56.923h271.234
	c36.671,0,69.532-22.651,82.579-56.923l15.234-40.016L256,297.097z"/>
<g>
	<path style="fill:#3B484A;" d="M192.111,376.967c-4.267,0-7.726-3.459-7.726-7.726v-11.563c0-4.267,3.459-7.726,7.726-7.726
		c4.267,0,7.726,3.459,7.726,7.726v11.563C199.838,373.508,196.378,376.967,192.111,376.967z"/>
	<path style="fill:#3B484A;" d="M319.889,376.967c-4.267,0-7.726-3.459-7.726-7.726v-11.563c0-4.267,3.459-7.726,7.726-7.726
		c4.267,0,7.726,3.459,7.726,7.726v11.563C327.615,373.508,324.156,376.967,319.889,376.967z"/>
	<path style="fill:#3B484A;" d="M256,385.512c-9.781,0-18.962-4.087-25.191-11.214c-2.809-3.213-2.481-8.094,0.731-10.902
		c3.213-2.808,8.094-2.481,10.902,0.732c3.295,3.769,8.236,5.931,13.557,5.931c5.322,0,10.263-2.161,13.557-5.93
		c2.809-3.213,7.689-3.541,10.902-0.732c3.213,2.808,3.541,7.689,0.732,10.902C274.963,381.426,265.781,385.512,256,385.512z"/>
</g>
<path style="fill:#E64047;" d="M489.431,274.528H22.569C10.105,274.528,0,284.633,0,297.097l0,0
	c0,12.464,10.105,22.569,22.569,22.569h466.862c12.464,0,22.569-10.105,22.569-22.569l0,0
	C512,284.633,501.896,274.528,489.431,274.528z"/>
<g>
</g>
<g>
</g>
<g>
</g>
<g>
</g>
<g>
</g>
<g>
</g>
<g>
</g>
<g>
</g>
<g>
</g>
<g>
</g>
<g>
</g>
<g>
</g>
<g>
</g>
<g>
</g>
<g>
</g>
</svg>
