<?xml version="1.0" encoding="iso-8859-1"?>
<!-- Generator: Adobe Illustrator 19.0.0, SVG Export Plug-In . SVG Version: 6.00 Build 0)  -->
<svg version="1.1" id="Capa_1" xmlns="http://www.w3.org/2000/svg" xmlns:xlink="http://www.w3.org/1999/xlink" x="0px" y="0px"
	 viewBox="0 0 511.999 511.999" style="enable-background:new 0 0 511.999 511.999;" xml:space="preserve">
<path style="fill:#E6BB00;" d="M404.188,365.47L216.693,146.53h78.614c109.399,0,200.057,80.237,216.336,185.073
	c2.761,17.777-10.852,33.867-28.842,33.867H404.188z"/>
<path style="fill:#F9545B;" d="M404.188,365.47h82.445c15.932-10.069,10.339-34.574-8.385-36.734
	c13.878-12.753,3.999-35.865-14.809-34.646l0,0l0,0c11.378-15.025-2.468-36.003-20.757-31.445l0,0
	c8.512-16.816-8.857-34.983-26.038-27.234l0,0c4.97-16.71-12.053-30.586-26.918-24.117l-4.245-6.039
	c-1.237-4.176-3.804-7.645-7.105-10.106l-0.001-0.001h-0.001c-6.746-5.029-16.525-5.866-24.123,0L404.188,365.47z"/>
<path style="fill:#FEDD00;" d="M433.03,331.603C416.75,226.767,326.092,146.53,216.693,146.53S16.636,226.767,0.357,331.603
	c-2.761,17.777,10.852,33.867,28.842,33.867h374.988C422.178,365.47,435.79,349.379,433.03,331.603z"/>
<path style="fill:#FECE00;" d="M41.564,331.603c15.246-98.176,95.722-174.777,195.732-184.113c-6.783-0.633-13.655-0.96-20.604-0.96
	c-109.399,0-200.057,80.238-216.336,185.073c-2.761,17.777,10.852,33.867,28.842,33.867h41.207
	C52.416,365.47,38.803,349.379,41.564,331.603z"/>
<g>
	<path style="fill:#3B484A;" d="M144.269,276.613c-4.267,0-7.726-3.459-7.726-7.726v-13.108c0-4.267,3.459-7.726,7.726-7.726
		c4.267,0,7.726,3.459,7.726,7.726v13.108C151.995,273.153,148.536,276.613,144.269,276.613z"/>
	<path style="fill:#3B484A;" d="M289.117,276.613c-4.267,0-7.726-3.459-7.726-7.726v-13.108c0-4.267,3.459-7.726,7.726-7.726
		c4.267,0,7.726,3.459,7.726,7.726v13.108C296.844,273.153,293.384,276.613,289.117,276.613z"/>
	<path style="fill:#3B484A;" d="M216.694,286.299c-10.79,0-20.915-4.505-27.78-12.359c-2.808-3.213-2.481-8.094,0.732-10.902
		c3.212-2.808,8.093-2.481,10.902,0.732c3.93,4.497,9.815,7.075,16.145,7.075s12.215-2.579,16.145-7.075
		c2.809-3.213,7.689-3.541,10.902-0.732c3.213,2.808,3.541,7.689,0.732,10.902C237.607,281.794,227.483,286.299,216.694,286.299z"/>
</g>
<g>
</g>
<g>
</g>
<g>
</g>
<g>
</g>
<g>
</g>
<g>
</g>
<g>
</g>
<g>
</g>
<g>
</g>
<g>
</g>
<g>
</g>
<g>
</g>
<g>
</g>
<g>
</g>
<g>
</g>
</svg>
