<?xml version="1.0" encoding="iso-8859-1"?>
<!-- Generator: Adobe Illustrator 19.0.0, SVG Export Plug-In . SVG Version: 6.00 Build 0)  -->
<svg version="1.1" id="Capa_1" xmlns="http://www.w3.org/2000/svg" xmlns:xlink="http://www.w3.org/1999/xlink" x="0px" y="0px"
	 viewBox="0 0 512 512" style="enable-background:new 0 0 512 512;" xml:space="preserve">
<g>
	<path style="fill:#FDC464;" d="M208.495,209.006l50.982-198.835c1.855-7.237,9.226-11.6,16.463-9.743
		c7.237,1.856,11.6,9.226,9.743,16.463c-0.031,0.121-0.08,0.298-0.114,0.417L228.26,214.413c-1.58,5.434-7.267,8.559-12.701,6.978
		C210.237,219.843,207.134,214.337,208.495,209.006z"/>
	<path style="fill:#FDC464;" d="M252.633,208.103l79.643-189.187c2.899-6.886,10.83-10.118,17.717-7.22
		c6.886,2.899,10.118,10.83,7.22,17.717c-0.048,0.114-0.123,0.283-0.174,0.396l-85.648,186.545
		c-2.361,5.144-8.445,7.399-13.588,5.037C252.764,219.077,250.504,213.176,252.633,208.103z"/>
</g>
<g>
	<path style="fill:#E6B25B;" d="M271.391,216.353l40.992-89.282h-25.637l-34.112,81.03c-2.129,5.074,0.131,10.976,5.168,13.288
		C262.945,223.752,269.03,221.497,271.391,216.353z"/>
	<path style="fill:#E6B25B;" d="M229.503,127.072l-21.008,81.934c-1.361,5.331,1.742,10.838,7.065,12.385
		c5.434,1.58,11.121-1.545,12.701-6.978l25.395-87.34h-24.153V127.072z"/>
</g>
<path style="fill:#D4D2D3;" d="M340.399,173.423c-5.467-9.552-15.63-15.444-26.635-15.444H198.238
	c-11.005,0-21.169,5.893-26.635,15.444l-23.963,41.868L256,241.761l108.362-26.47L340.399,173.423z"/>
<polygon style="fill:#EEECED;" points="117.452,215.29 75.374,157.977 105.562,157.977 147.638,215.29 146.037,241.761 "/>
<polygon style="fill:#D4D2D3;" points="394.549,215.29 436.626,157.977 406.438,157.977 364.362,215.29 365.962,241.761 "/>
<polygon style="fill:#F9545B;" points="256.005,266.154 128.904,301.131 146.043,426.158 260.6,456.735 365.968,426.158 
	383.095,301.131 "/>
<polygon style="fill:#E64047;" points="187.25,426.158 170.112,301.131 276.608,271.824 256.005,266.154 128.904,301.131 
	146.043,426.158 260.6,456.735 280.342,451.006 "/>
<path style="fill:#EEECED;" d="M365.962,426.158l-7.623,55.632C355.96,499.101,341.171,512,323.697,512H188.292
	c-17.473,0-32.263-12.899-34.632-30.21l-7.623-55.632L365.962,426.158L365.962,426.158z"/>
<path style="fill:#D4D2D3;" d="M194.868,481.79l-7.623-55.632h-41.207l7.623,55.632c2.368,17.311,17.159,30.21,34.632,30.21H229.5
	C212.027,512,197.236,499.101,194.868,481.79z"/>
<polygon style="fill:#EEECED;" points="394.856,215.29 383.095,301.131 128.904,301.131 117.144,215.29 "/>
<polygon style="fill:#D4D2D3;" points="117.144,215.29 128.904,301.131 170.112,301.131 158.351,215.29 "/>
<g>
	<path style="fill:#3B484A;" d="M202.803,370.427c-4.268,0-7.726-3.459-7.726-7.726v-9.627c0-4.267,3.458-7.726,7.726-7.726
		c4.268,0,7.726,3.459,7.726,7.726v9.627C210.53,366.968,207.071,370.427,202.803,370.427z"/>
	<path style="fill:#3B484A;" d="M309.196,370.427c-4.268,0-7.726-3.459-7.726-7.726v-9.627c0-4.267,3.458-7.726,7.726-7.726
		c4.268,0,7.726,3.459,7.726,7.726v9.627C316.923,366.968,313.463,370.427,309.196,370.427z"/>
	<path style="fill:#3B484A;" d="M256,377.543c-8.518,0-16.517-3.564-21.95-9.779c-2.808-3.213-2.48-8.094,0.733-10.902
		c3.212-2.808,8.093-2.48,10.902,0.732c2.497,2.857,6.256,4.496,10.314,4.496c4.058,0,7.817-1.638,10.314-4.496
		c2.809-3.213,7.691-3.541,10.902-0.732c3.213,2.808,3.542,7.689,0.733,10.902C272.517,373.978,264.517,377.543,256,377.543z"/>
</g>
<g>
</g>
<g>
</g>
<g>
</g>
<g>
</g>
<g>
</g>
<g>
</g>
<g>
</g>
<g>
</g>
<g>
</g>
<g>
</g>
<g>
</g>
<g>
</g>
<g>
</g>
<g>
</g>
<g>
</g>
</svg>
