<?xml version="1.0" encoding="iso-8859-1"?>
<!-- Generator: Adobe Illustrator 19.0.0, SVG Export Plug-In . SVG Version: 6.00 Build 0)  -->
<svg version="1.1" id="Capa_1" xmlns="http://www.w3.org/2000/svg" xmlns:xlink="http://www.w3.org/1999/xlink" x="0px" y="0px"
	 viewBox="0 0 511.999 511.999" style="enable-background:new 0 0 511.999 511.999;" xml:space="preserve">
<path style="fill:#EEECED;" d="M471.638,350.972l-104.384-19.037l-105.051,19.037h-40.361l0,0c0,29.574,23.974,53.549,53.549,53.549
	h183.06c29.574,0,53.549-23.974,53.549-53.549l0,0H471.638z"/>
<g>
	<path style="fill:#FDC464;" d="M471.638,198.368H262.203c-10.514,0-19.037,8.523-19.037,19.037l0,0
		c0,10.514,8.523,19.037,19.037,19.037L367.254,256l104.384-19.558c10.514,0,19.037-8.523,19.037-19.037l0,0
		C490.675,206.891,482.152,198.368,471.638,198.368z"/>
	<path style="fill:#FDC464;" d="M471.638,274.67h-0.778l0.778-0.153L367.254,256l-105.051,18.515l0.783,0.153h-0.783
		c-10.514,0-19.037,8.523-19.037,19.037l0,0c0,10.514,8.523,19.037,19.037,19.037l105.051,19.191l104.384-19.191
		c10.514,0,19.037-8.523,19.037-19.037l0,0C490.675,283.193,482.152,274.67,471.638,274.67z"/>
</g>
<path style="fill:#D4D2D3;" d="M262.203,350.972h-40.361l0,0c0,22.229,13.546,41.292,32.831,49.39
	c0.723-1.159,1.425-2.335,2.087-3.541c6.341-11.536,13.454-27.796,17.767-48.084L262.203,350.972z"/>
<g>
	<path style="fill:#E6B25B;" d="M471.638,312.898H262.203c-10.514,0-19.037,8.523-19.037,19.037l0,0
		c0,10.514,8.523,19.037,19.037,19.037h209.435c10.514,0,19.037-8.523,19.037-19.037l0,0
		C490.675,321.421,482.152,312.898,471.638,312.898z"/>
	<path style="fill:#E6B25B;" d="M471.638,236.442H262.203c-10.514,0-19.037,8.523-19.037,19.037l0,0
		c0,10.514,8.523,19.037,19.037,19.037h209.435c10.514,0,19.037-8.523,19.037-19.037l0,0
		C490.675,244.965,482.152,236.442,471.638,236.442z"/>
</g>
<path style="fill:#FEDD00;" d="M374.982,148.822h-15.458c-10.842,0-19.63,8.788-19.63,19.63v5.113l27.025,14.366l27.691-14.366
	v-5.113C394.612,157.611,385.824,148.822,374.982,148.822z"/>
<path style="fill:#FECE00;" d="M360.499,173.564v-5.113c0-9.967,7.435-18.179,17.057-19.442c-0.844-0.11-1.699-0.188-2.573-0.188
	h-15.458c-10.842,0-19.63,8.788-19.63,19.629v5.113l27.026,14.366l10.427-5.409L360.499,173.564z"/>
<path style="fill:#D4D2D3;" d="M73.393,304.012c-2.128,0-4.291-0.444-6.355-1.381l-28.186-12.8
	c-16.097-7.31-28.383-20.451-34.595-37.002c-6.213-16.551-5.608-34.53,1.702-50.625c15.089-33.227,54.398-47.984,87.627-32.894
	l26.975,12.251c7.74,3.515,11.164,12.639,7.65,20.379c-3.515,7.741-12.637,11.165-20.379,7.65l-26.975-12.251
	c-17.773-8.072-38.799-0.179-46.87,17.594c-8.073,17.773-0.179,38.799,17.593,46.871l28.186,12.8
	c7.74,3.514,11.165,12.638,7.65,20.378C84.838,300.655,79.244,304.011,73.393,304.012z"/>
<path style="fill:#EEECED;" d="M215.284,155.191l25.207-31.024c5.434-6.688,0.675-16.688-7.943-16.688H92.542
	c0,0-33.861,12.313-18.47,47.711c27.704,50.789-32.321,73.875-32.321,155.446c0,31.191,9.143,55.317,17.927,71.298
	c7.687,13.985,22.468,22.586,38.426,22.586h93.147c15.959,0,30.74-8.601,38.426-22.586c8.784-15.981,17.927-40.107,17.927-71.298
	C247.603,229.066,187.58,205.981,215.284,155.191z"/>
<path style="fill:#A8503C;" d="M195.887,239.695c-2.811-5.395-5.767-11.066-8.476-17.039c-2.484-5.476-7.96-8.98-13.974-8.98
	h-57.519c-6.014,0-11.491,3.504-13.974,8.981c-2.709,5.973-5.663,11.644-8.474,17.038c-10.293,19.747-20.934,40.165-20.934,70.942
	c0,25.44,7.679,44.75,14.121,56.47c2.248,4.091,6.635,6.63,11.449,6.63h93.147c4.814,0,9.202-2.54,11.449-6.631
	c6.441-11.719,14.12-31.028,14.12-56.469C216.821,279.86,206.179,259.441,195.887,239.695z"/>
<g>
	<path style="fill:#3B484A;" d="M106.619,306.144c-4.268,0-7.726-3.459-7.726-7.726v-6.888c0-4.267,3.458-7.726,7.726-7.726
		s7.726,3.459,7.726,7.726v6.888C114.345,302.685,110.886,306.144,106.619,306.144z"/>
	<path style="fill:#3B484A;" d="M182.736,306.144c-4.268,0-7.726-3.459-7.726-7.726v-6.888c0-4.267,3.458-7.726,7.726-7.726
		s7.726,3.459,7.726,7.726v6.888C190.462,302.685,187.004,306.144,182.736,306.144z"/>
	<path style="fill:#3B484A;" d="M144.677,311.234c-6.727,0-13.054-2.824-17.359-7.747c-2.809-3.213-2.481-8.094,0.731-10.902
		c3.213-2.808,8.093-2.482,10.902,0.731c1.369,1.567,3.455,2.465,5.725,2.465c2.269,0,4.356-0.898,5.724-2.464
		c2.808-3.213,7.688-3.542,10.902-0.733c3.213,2.808,3.542,7.689,0.733,10.902C157.734,308.411,151.405,311.234,144.677,311.234z"/>
</g>
<path style="fill:#A8503C;" d="M429.192,173.565H304.65c-13.778,0-24.947,11.169-24.947,24.947v115.116
	c0,9.523,7.631,17.263,17.11,17.441c9.775,0.183,17.777-8.118,17.777-17.895v-46.291c0-9.777,8.001-18.079,17.777-17.895
	c9.48,0.177,17.11,7.918,17.11,17.441v10.83c0,9.777,8.001,18.081,17.777,17.897c9.48-0.177,17.11-7.918,17.11-17.441v-42.639
	c0-9.777,8.001-18.081,17.777-17.897c9.48,0.177,17.11,7.918,17.11,17.441v64.187c0,9.777,8.001,18.081,17.777,17.897
	c9.48-0.177,17.11-7.918,17.11-17.441v-100.75C454.139,184.733,442.97,173.565,429.192,173.565z"/>
<g>
</g>
<g>
</g>
<g>
</g>
<g>
</g>
<g>
</g>
<g>
</g>
<g>
</g>
<g>
</g>
<g>
</g>
<g>
</g>
<g>
</g>
<g>
</g>
<g>
</g>
<g>
</g>
<g>
</g>
</svg>
