<?xml version="1.0" encoding="iso-8859-1"?>
<!-- Generator: Adobe Illustrator 19.0.0, SVG Export Plug-In . SVG Version: 6.00 Build 0)  -->
<svg version="1.1" id="Capa_1" xmlns="http://www.w3.org/2000/svg" xmlns:xlink="http://www.w3.org/1999/xlink" x="0px" y="0px"
	 viewBox="0 0 512.001 512.001" style="enable-background:new 0 0 512.001 512.001;" xml:space="preserve">
<path style="fill:#FDC464;" d="M161.983,314.254L7.407,468.829c-9.876,9.876-9.876,25.888,0,35.764
	c9.876,9.875,25.888,9.876,35.764,0l154.576-154.576L161.983,314.254z"/>
<path style="fill:#E6B25B;" d="M111.239,364.996c4.68,6.906,10.067,13.473,16.179,19.586c6.113,6.113,12.678,11.5,19.585,16.179
	l50.743-50.743l-35.765-35.765L111.239,364.996z"/>
<path style="fill:#FB8D4B;" d="M481.879,30.123L481.879,30.123c-40.163-40.163-105.278-40.163-145.441,0L149.271,217.288
	c-40.163,40.163-40.163,105.278,0,145.441l0,0c40.163,40.163,105.278,40.163,145.441,0l187.166-187.166
	C522.041,135.401,522.041,70.284,481.879,30.123z"/>
<path style="fill:#E86D24;" d="M272.859,340.876l187.166-187.166c36.449-36.449,39.816-93.448,10.109-133.697
	c4.101,3.027,8.029,6.395,11.744,10.109l0,0c40.163,40.163,40.163,105.278,0,145.441L294.712,362.729
	c-40.163,40.163-105.278,40.163-145.441,0l0,0c-3.714-3.714-7.082-7.642-10.109-11.744
	C179.411,380.692,236.41,377.324,272.859,340.876z"/>
<g>
	<path style="fill:#3B484A;" d="M383.24,63.771c-1.977,0-3.955-0.754-5.463-2.263c-3.017-3.017-3.017-7.91,0-10.927l6.58-6.58
		c3.017-3.017,7.91-3.017,10.926,0c3.017,3.017,3.017,7.91,0,10.927l-6.58,6.58C387.195,63.017,385.217,63.771,383.24,63.771z"/>
	<path style="fill:#3B484A;" d="M455.955,136.487c-1.977,0-3.955-0.754-5.463-2.262c-3.017-3.017-3.017-7.91,0-10.927l6.58-6.58
		c3.018-3.017,7.911-3.017,10.926,0c3.018,3.017,3.018,7.91,0.001,10.927l-6.58,6.58
		C459.91,135.732,457.932,136.487,455.955,136.487z"/>
	<path style="fill:#3B484A;" d="M429.335,111.184c-7.408,0-14.635-3.025-20.065-8.454c-5.873-5.873-8.932-13.85-8.393-21.884
		c0.285-4.258,3.973-7.478,8.226-7.192c4.258,0.285,7.477,3.968,7.192,8.226c-0.241,3.586,1.182,7.202,3.901,9.923
		c2.721,2.72,6.33,4.142,9.923,3.901c4.254-0.285,7.941,2.934,8.226,7.192c0.286,4.258-2.934,7.941-7.191,8.227
		C430.549,111.163,429.941,111.184,429.335,111.184z"/>
</g>
<path style="fill:#FEDD00;" d="M191.855,320.135c-3.258-3.258-5.392-7.668-5.714-12.627c-0.706-10.841,7.511-20.2,18.352-20.905
	c13.138-0.855,23.69-11.406,24.544-24.544c2.131-32.788,28.464-59.119,61.251-61.25c13.137-0.855,23.689-11.406,24.543-24.545
	c2.131-32.787,28.463-59.119,61.25-61.249c10.839-0.705,20.2,7.511,20.904,18.353c0.705,10.841-7.512,20.2-18.354,20.904
	c-13.138,0.854-23.689,11.406-24.544,24.544c-2.131,32.788-28.463,59.119-61.249,61.25c-13.139,0.854-23.69,11.405-24.544,24.543
	c-2.132,32.787-28.464,59.118-61.249,61.25C201.166,326.243,195.719,323.999,191.855,320.135z"/>
<g>
</g>
<g>
</g>
<g>
</g>
<g>
</g>
<g>
</g>
<g>
</g>
<g>
</g>
<g>
</g>
<g>
</g>
<g>
</g>
<g>
</g>
<g>
</g>
<g>
</g>
<g>
</g>
<g>
</g>
</svg>
