<?xml version="1.0" encoding="iso-8859-1"?>
<!-- Generator: Adobe Illustrator 19.0.0, SVG Export Plug-In . SVG Version: 6.00 Build 0)  -->
<svg version="1.1" id="Capa_1" xmlns="http://www.w3.org/2000/svg" xmlns:xlink="http://www.w3.org/1999/xlink" x="0px" y="0px"
	 viewBox="0 0 512 512" style="enable-background:new 0 0 512 512;" xml:space="preserve">
<path style="fill:#FDC464;" d="M256,0C114.615,0,0,114.615,0,256s114.615,256,256,256s256-114.615,256-256S397.385,0,256,0z
	 M256,378.484c-67.647,0-122.484-54.839-122.484-122.484S188.353,133.516,256,133.516S378.484,188.353,378.484,256
	S323.647,378.484,256,378.484z"/>
<path style="fill:#E6B25B;" d="M20.604,256c0-137.933,109.092-250.367,245.698-255.776C262.883,0.089,259.452,0,256,0
	C114.615,0,0,114.615,0,256s114.615,256,256,256c3.452,0,6.883-0.089,10.302-0.224C129.696,506.367,20.604,393.933,20.604,256z"/>
<path style="fill:#EB98A3;" d="M463.318,278.974c-8.976-14.001-8.976-31.947,0-45.948l0,0c13.53-21.105,5.982-49.276-16.288-60.788
	l0,0c-14.774-7.637-23.747-23.179-22.974-39.792l0,0c1.165-25.044-19.457-45.665-44.501-44.5l0,0
	c-16.613,0.773-32.155-8.2-39.792-22.974l0,0c-11.513-22.27-39.683-29.819-60.789-16.288l0,0c-14.001,8.976-31.947,8.976-45.948,0
	l0,0c-21.105-13.53-49.276-5.982-60.789,16.288l0,0c-7.637,14.774-23.179,23.747-39.792,22.974l0,0
	c-25.044-1.165-45.665,19.457-44.501,44.5l0,0c0.773,16.613-8.2,32.155-22.974,39.792l0,0
	c-22.27,11.512-29.819,39.683-16.288,60.788l0,0c8.976,14.001,8.976,31.947,0,45.948l0,0C35.152,300.08,42.7,328.25,64.97,339.763
	l0,0c14.774,7.638,23.747,23.179,22.974,39.792l0,0c-1.165,25.044,19.457,45.666,44.501,44.501l0,0
	c16.613-0.773,32.155,8.2,39.792,22.974l0,0c11.513,22.271,39.683,29.819,60.789,16.288l0,0c14.001-8.976,31.947-8.976,45.948,0l0,0
	c21.105,13.53,49.276,5.983,60.789-16.288l0,0c7.637-14.774,23.179-23.747,39.792-22.974l0,0
	c25.044,1.165,45.665-19.457,44.501-44.501l0,0c-0.773-16.613,8.2-32.155,22.974-39.792l0,0
	C469.3,328.25,476.848,300.08,463.318,278.974L463.318,278.974z M256,378.484c-67.647,0-122.484-54.838-122.484-122.484
	S188.354,133.516,256,133.516S378.484,188.353,378.484,256S323.647,378.484,256,378.484z"/>
<path style="fill:#80E2FF;" d="M266.25,112.897c-2.429,0-4.821-1.142-6.325-3.28l-13.423-19.075
	c-2.456-3.489-1.617-8.309,1.872-10.765c3.489-2.456,8.308-1.617,10.765,1.872l13.423,19.075c2.456,3.489,1.617,8.309-1.872,10.765
	C269.339,112.44,267.786,112.897,266.25,112.897z"/>
<g>
	<path style="fill:#FEDD00;" d="M326.229,130.834c-1.928,0-3.859-0.717-5.358-2.161c-3.074-2.96-3.166-7.851-0.206-10.925
		l16.179-16.801c2.96-3.074,7.85-3.166,10.924-0.206c3.074,2.96,3.166,7.851,0.206,10.925l-16.179,16.801
		C330.28,130.042,328.256,130.834,326.229,130.834z"/>
	<path style="fill:#FEDD00;" d="M410.153,259.487c-1.929,0-3.859-0.717-5.358-2.161c-3.074-2.96-3.166-7.851-0.206-10.925
		l16.179-16.801c2.96-3.074,7.85-3.166,10.924-0.206s3.166,7.851,0.206,10.925l-16.179,16.801
		C414.203,258.695,412.18,259.487,410.153,259.487z"/>
</g>
<path style="fill:#80E2FF;" d="M332.2,420.568c-1.928,0-3.859-0.717-5.358-2.161c-3.074-2.96-3.166-7.851-0.206-10.925
	l16.178-16.801c2.959-3.074,7.85-3.166,10.924-0.206c3.074,2.96,3.166,7.851,0.206,10.925l-16.178,16.801
	C336.251,419.775,334.227,420.568,332.2,420.568z"/>
<path style="fill:#FDD9CF;" d="M397.463,181.734c-2.158,0-4.305-0.899-5.833-2.656l-15.305-17.6c-2.8-3.219-2.46-8.1,0.759-10.9
	c3.219-2.8,8.1-2.46,10.9,0.76l15.305,17.6c2.8,3.219,2.46,8.1-0.759,10.9C401.067,181.111,399.262,181.734,397.463,181.734z"/>
<path style="fill:#FEDD00;" d="M263.31,436.826c-0.644,0-1.299-0.081-1.952-0.251c-4.129-1.076-6.606-5.295-5.53-9.424l5.878-22.571
	c1.074-4.129,5.295-6.605,9.424-5.53c4.129,1.076,6.605,5.295,5.53,9.424l-5.878,22.571
	C269.877,434.52,266.743,436.826,263.31,436.826z"/>
<path style="fill:#FA7578;" d="M403.192,366.313c-1.677,0-3.367-0.544-4.784-1.664l-18.302-14.458
	c-3.348-2.645-3.919-7.504-1.273-10.852c2.646-3.348,7.504-3.919,10.852-1.273l18.302,14.458c3.348,2.645,3.919,7.504,1.273,10.852
	C407.735,365.305,405.475,366.313,403.192,366.313z"/>
<path style="fill:#FDD9CF;" d="M169.28,130.523c-2.026,0-4.05-0.792-5.566-2.367c-2.96-3.074-2.868-7.965,0.206-10.925
	l16.801-16.179c3.074-2.961,7.965-2.867,10.924,0.206c2.96,3.074,2.868,7.965-0.206,10.925l-16.801,16.179
	C173.139,129.805,171.208,130.523,169.28,130.523z"/>
<path style="fill:#FEDD00;" d="M85.358,259.176c-2.026,0-4.05-0.792-5.566-2.367c-2.96-3.074-2.868-7.964,0.206-10.925
	l16.801-16.179c3.074-2.961,7.965-2.867,10.924,0.206c2.96,3.074,2.868,7.964-0.206,10.925l-16.801,16.179
	C89.218,258.459,87.286,259.176,85.358,259.176z"/>
<path style="fill:#80E2FF;" d="M108.129,329.501c-2.026,0-4.05-0.792-5.566-2.367l-16.179-16.801
	c-2.96-3.074-2.868-7.965,0.206-10.925c3.073-2.96,7.964-2.868,10.924,0.206l16.179,16.801c2.96,3.074,2.868,7.965-0.206,10.925
	C111.988,328.783,110.056,329.501,108.129,329.501z"/>
<g>
	<path style="fill:#FA7578;" d="M195.695,421.627c-2.026,0-4.05-0.792-5.566-2.367l-16.179-16.801
		c-2.96-3.074-2.868-7.965,0.206-10.925c3.073-2.96,7.964-2.868,10.924,0.206l16.179,16.801c2.96,3.074,2.868,7.965-0.206,10.925
		C199.555,420.91,197.624,421.627,195.695,421.627z"/>
	<path style="fill:#FA7578;" d="M130.99,180.588c-1.799,0-3.605-0.624-5.067-1.897l-17.6-15.305c-3.219-2.8-3.56-7.68-0.759-10.9
		c2.801-3.22,7.681-3.559,10.9-0.76l17.6,15.305c3.219,2.8,3.56,7.68,0.759,10.9C135.295,179.688,133.148,180.588,130.99,180.588z"
		/>
</g>
<path style="fill:#FDD9CF;" d="M121.847,386.212c-2.283,0-4.543-1.008-6.068-2.937c-2.644-3.348-2.075-8.207,1.273-10.852
	l18.302-14.458c3.348-2.645,8.207-2.075,10.852,1.273c2.644,3.348,2.075,8.207-1.273,10.852l-18.302,14.458
	C125.213,385.668,123.524,386.212,121.847,386.212z"/>
<g>
</g>
<g>
</g>
<g>
</g>
<g>
</g>
<g>
</g>
<g>
</g>
<g>
</g>
<g>
</g>
<g>
</g>
<g>
</g>
<g>
</g>
<g>
</g>
<g>
</g>
<g>
</g>
<g>
</g>
</svg>
