<?xml version="1.0" encoding="iso-8859-1"?>
<!-- Generator: Adobe Illustrator 19.0.0, SVG Export Plug-In . SVG Version: 6.00 Build 0)  -->
<svg version="1.1" id="Capa_1" xmlns="http://www.w3.org/2000/svg" xmlns:xlink="http://www.w3.org/1999/xlink" x="0px" y="0px"
	 viewBox="0 0 512.001 512.001" style="enable-background:new 0 0 512.001 512.001;" xml:space="preserve">
<path style="fill:#4CC7B3;" d="M464.597,255.042L256,232.57L47.403,255.042c-12.412,0-22.472,10.062-22.472,22.472l0,0
	c0,12.412,10.062,22.472,22.472,22.472l209.188,25.103l208.006-25.103c12.412,0,22.472-10.062,22.472-22.472l0,0
	C487.07,265.104,477.008,255.042,464.597,255.042z"/>
<path style="fill:#2AAC92;" d="M98.912,299.988c-12.412,0-22.472-10.062-22.472-22.472l0,0c0-12.411,10.062-22.472,22.472-22.472
	l182.843-19.699L256,232.57L47.403,255.042c-12.412,0-22.472,10.062-22.472,22.472l0,0c0,12.412,10.062,22.472,22.472,22.472
	l209.188,25.103l25.681-3.1L98.912,299.988z"/>
<path style="fill:#F9545B;" d="M464.597,210.097L256,181.072L47.403,210.097c-12.412,0-22.472,10.062-22.472,22.472l0,0
	c0,12.412,10.062,22.472,22.472,22.472h417.193c12.412,0,22.472-10.062,22.472-22.472l0,0
	C487.07,220.158,477.008,210.097,464.597,210.097z"/>
<path style="fill:#E64047;" d="M76.439,232.57c0-12.412,10.062-22.472,22.472-22.472l182.843-25.442L256,181.071L47.403,210.097
	c-12.412,0-22.472,10.062-22.472,22.472c0,12.411,10.062,22.472,22.472,22.472h51.509C86.501,255.042,76.439,244.982,76.439,232.57z
	"/>
<path style="fill:#A8503C;" d="M472.485,344.933l-0.979-24.201H39.515v24.201c-17.184,0-31.116,13.931-31.116,31.116l0,0
	c0,17.184,13.931,31.116,31.116,31.116L256,446.924l216.485-39.759c17.184,0,31.116-13.931,31.116-31.116l0,0
	C503.601,358.864,489.67,344.933,472.485,344.933z"/>
<path style="fill:#993E29;" d="M107.832,409.795c-19.122,0-34.623-15.501-34.623-34.622l0,0c0-19.122,15.501-34.622,34.623-34.622
	v-19.818H39.515v24.201c-17.184,0-31.116,13.931-31.116,31.116l0,0c0,17.184,13.931,31.116,31.116,31.116L256,446.925l26.998-4.958
	L107.832,409.795z"/>
<path style="fill:#FDC464;" d="M318.821,25.317H193.179c-102.051,0-184.779,82.729-184.779,184.779l0,0h495.203l0,0
	C503.601,108.046,420.872,25.317,318.821,25.317z"/>
<path style="fill:#E6B25B;" d="M244.688,25.317h-51.509c-102.051,0-184.779,82.729-184.779,184.779l0,0h51.509l0,0
	C59.908,108.046,142.637,25.317,244.688,25.317z"/>
<path style="fill:#E6BB00;" d="M461.73,299.988c20.627,0,26.652,13.338,27.955,25.094c2.154,19.433-21.122,31.804-35.532,18.589
	c-0.365-0.335-0.722-0.682-1.071-1.043l0,0c-9.772-10.088-25.953-10.088-35.726,0l0,0c-9.772,10.088-25.953,10.088-35.726,0l0,0
	c-9.772-10.088-25.953-10.088-35.726,0l0,0c-9.772,10.088-25.953,10.088-35.726,0l0,0c-9.772-10.088-25.953-10.088-35.726,0l0,0
	c-9.772,10.088-25.953,10.088-35.726,0l0,0c-9.772-10.088-25.953-10.088-35.726,0l0,0c-9.772,10.088-25.953,10.088-35.726,0l0,0
	c-9.772-10.088-25.953-10.088-35.726,0l0,0c-9.772,10.088-25.953,10.088-35.726,0l0,0c-9.772-10.088-25.953-10.088-35.726,0l0,0
	c-0.349,0.361-0.707,0.708-1.071,1.043c-14.41,13.215-37.687,0.845-35.532-18.589c1.303-11.756,7.328-25.094,27.955-25.094H461.73z"
	/>
<path style="fill:#CCA600;" d="M75.005,325.081c1.303-11.756,7.328-25.093,27.955-25.093H51.451
	c-20.627,0-26.652,13.338-27.955,25.093c-2.154,19.433,21.122,31.805,35.532,18.589c0.365-0.335,0.722-0.682,1.071-1.043
	c4.455-4.598,10.241-7.093,16.144-7.5C75.09,332.108,74.602,328.719,75.005,325.081z"/>
<path style="fill:#FDC464;" d="M490.147,407.165H21.853C9.785,407.165,0,416.949,0,429.018l0,0
	c0,31.847,25.817,57.665,57.665,57.665h396.67c31.847,0,57.665-25.817,57.665-57.665l0,0
	C512,416.949,502.215,407.165,490.147,407.165z"/>
<path style="fill:#E6B25B;" d="M51.509,429.018L51.509,429.018c0-12.07,9.784-21.853,21.853-21.853H21.853
	C9.785,407.165,0,416.949,0,429.018l0,0c0,31.848,25.817,57.665,57.664,57.665h51.509C77.326,486.684,51.509,460.866,51.509,429.018
	z"/>
<g>
	<path style="fill:#3B484A;" d="M170.72,138.714c-4.267,0-7.726-3.459-7.726-7.726v-15.434c0-4.267,3.459-7.726,7.726-7.726
		s7.726,3.459,7.726,7.726v15.434C178.446,135.256,174.987,138.714,170.72,138.714z"/>
	<path style="fill:#3B484A;" d="M341.281,138.714c-4.267,0-7.726-3.459-7.726-7.726v-15.434c0-4.267,3.459-7.726,7.726-7.726
		c4.267,0,7.726,3.459,7.726,7.726v15.434C349.008,135.256,345.548,138.714,341.281,138.714z"/>
	<path style="fill:#3B484A;" d="M256,150.122c-12.309,0-23.855-5.133-31.678-14.084c-2.808-3.213-2.481-8.094,0.732-10.902
		s8.093-2.481,10.902,0.732c4.888,5.593,12.194,8.801,20.044,8.801c7.85,0,15.155-3.208,20.045-8.801
		c2.808-3.213,7.689-3.541,10.902-0.731c3.213,2.809,3.541,7.689,0.731,10.902C279.855,144.988,268.309,150.122,256,150.122z"/>
</g>
<g>
</g>
<g>
</g>
<g>
</g>
<g>
</g>
<g>
</g>
<g>
</g>
<g>
</g>
<g>
</g>
<g>
</g>
<g>
</g>
<g>
</g>
<g>
</g>
<g>
</g>
<g>
</g>
<g>
</g>
</svg>
