<?xml version="1.0" encoding="iso-8859-1"?>
<!-- Generator: Adobe Illustrator 19.0.0, SVG Export Plug-In . SVG Version: 6.00 Build 0)  -->
<svg version="1.1" id="Capa_1" xmlns="http://www.w3.org/2000/svg" xmlns:xlink="http://www.w3.org/1999/xlink" x="0px" y="0px"
	 viewBox="0 0 512 512" style="enable-background:new 0 0 512 512;" xml:space="preserve">
<path style="fill:#FDC464;" d="M284.225,284.224C176.491,391.959,93.721,418.573,84.638,421.254
	c-33.806,9.974-69.298-9.345-79.273-43.15c-9.975-33.807,9.343-69.298,43.15-79.273c0.576-0.17,61.36-20.767,145.453-104.861
	S298.66,49.091,298.83,48.516c9.975-33.807,45.466-53.125,79.273-43.15c33.806,9.975,53.125,45.466,43.15,79.273
	C418.574,93.721,391.959,176.491,284.225,284.224z"/>
<path style="fill:#E6B25B;" d="M356.559,2.846c-3.146,4.405-5.771,9.169-7.815,14.266c-0.354,0.854-9.366,22.381-30.949,56.293
	c-19.999,31.426-55.261,80.309-109.671,134.719c-54.41,54.409-103.293,89.671-134.719,109.671
	c-33.874,21.558-55.392,30.575-56.291,30.948c-5.097,2.044-9.861,4.668-14.268,7.816c-0.387,7.085,0.397,14.351,2.52,21.545
	c9.975,33.806,45.466,53.125,79.273,43.15c9.083-2.681,91.853-29.295,199.586-137.029S418.574,93.721,421.254,84.638
	c9.974-33.807-9.345-69.298-43.151-79.273C370.91,3.242,363.642,2.458,356.559,2.846z"/>
<path style="fill:#F9545B;" d="M282.881,282.881C161.003,404.76,58.943,446.358,54.658,448.069
	c-21.114,8.431-44.476-1.623-52.181-22.457c-7.705-20.833,3.165-44.558,24.278-52.99c0.887-0.354,89.988-36.698,199.579-146.289
	S372.269,27.643,372.623,26.755c8.432-21.114,32.156-31.983,52.99-24.278s30.888,31.067,22.457,52.181
	C446.359,58.943,404.76,161.002,282.881,282.881z"/>
<path style="fill:#E64047;" d="M37.985,451.02c5.499,0.181,11.162-0.749,16.672-2.95c4.286-1.711,106.345-43.31,228.223-165.188
	S446.36,58.943,448.07,54.658c2.201-5.511,3.131-11.174,2.949-16.673c-26.917-2.026-53.773,7.654-73.338,27.218
	c-10.837,10.838-18.91,24.332-23.376,39.072c-1.566,4.262-24.384,63.639-105.389,144.643
	c-80.998,80.999-140.372,103.82-144.642,105.389c-14.735,4.464-28.233,12.537-39.073,23.376
	C45.639,397.245,35.959,424.102,37.985,451.02z"/>
<path style="fill:#FDC464;" d="M363.258,363.258c-114.745,114.745-202.9,143.091-212.575,145.946
	c-36.007,10.624-73.807-9.953-84.432-45.958c-10.624-36.008,9.951-73.807,45.958-84.432c0.613-0.18,65.352-22.118,154.919-111.685
	S378.633,112.823,378.814,112.21c10.624-36.008,48.425-56.583,84.432-45.958c36.006,10.624,56.582,48.425,45.958,84.432
	C506.349,160.357,478.003,248.514,363.258,363.258z"/>
<g>
	<path style="fill:#3B484A;" d="M264.436,378.793c-1.978,0-3.955-0.754-5.464-2.263l-9.649-9.65
		c-3.017-3.017-3.017-7.91,0.001-10.927c3.016-3.017,7.909-3.016,10.926,0l9.649,9.65c3.017,3.017,3.017,7.91,0,10.927
		C268.391,378.039,266.413,378.793,264.436,378.793z"/>
	<path style="fill:#3B484A;" d="M371.067,272.163c-1.978,0-3.955-0.754-5.464-2.263l-9.649-9.649c-3.017-3.017-3.017-7.91,0-10.927
		c3.019-3.017,7.911-3.016,10.927,0l9.649,9.649c3.017,3.017,3.017,7.91,0,10.927C375.022,271.408,373.044,272.163,371.067,272.163z
		"/>
	<path style="fill:#3B484A;" d="M303.472,341.688c-0.809,0-1.617-0.027-2.428-0.081c-4.258-0.286-7.477-3.969-7.191-8.227
		c0.286-4.259,3.99-7.475,8.227-7.191c6.299,0.423,12.615-2.044,17.34-6.769c4.724-4.725,7.191-11.046,6.768-17.34
		c-0.285-4.258,2.934-7.941,7.191-8.227c4.256-0.285,7.942,2.934,8.227,7.192c0.721,10.744-3.383,21.424-11.261,29.301
		C323.062,337.63,313.382,341.688,303.472,341.688z"/>
</g>
<g>
</g>
<g>
</g>
<g>
</g>
<g>
</g>
<g>
</g>
<g>
</g>
<g>
</g>
<g>
</g>
<g>
</g>
<g>
</g>
<g>
</g>
<g>
</g>
<g>
</g>
<g>
</g>
<g>
</g>
</svg>
