<?xml version="1.0" encoding="iso-8859-1"?>
<!-- Generator: Adobe Illustrator 19.0.0, SVG Export Plug-In . SVG Version: 6.00 Build 0)  -->
<svg version="1.1" id="Capa_1" xmlns="http://www.w3.org/2000/svg" xmlns:xlink="http://www.w3.org/1999/xlink" x="0px" y="0px"
	 viewBox="0 0 512.001 512.001" style="enable-background:new 0 0 512.001 512.001;" xml:space="preserve">
<path style="fill:#FEDD00;" d="M256,486.982c0,13.818,11.201,25.019,25.019,25.019h157.307c13.817,0,25.019-11.201,25.019-25.019
	V258.139c0-6.126-2.248-12.04-6.318-16.62l-23.174-26.076l-74.179-22.94l-74.179,22.94l-23.174,26.076
	c-4.07,4.579-6.318,10.493-6.318,16.62v228.843H256z"/>
<path style="fill:#FECE00;" d="M293.224,241.519l23.174-26.076l58.727-18.161l-15.453-4.779l-74.179,22.94l-23.174,26.076
	c-4.07,4.579-6.318,10.493-6.318,16.62l-56.262,119.192L256,486.981l0,0C256,500.799,267.201,512,281.019,512h30.905
	c-13.818,0-25.019-11.201-25.019-25.019V258.139C286.905,252.012,289.153,246.099,293.224,241.519z"/>
<path style="fill:#FEDD00;" d="M377.741,59.983c-1.348-4.344-5.366-7.306-9.915-7.306h-16.308c-4.549,0-8.568,2.962-9.915,7.306
	l-33.026,109.579l51.095,22.94l51.095-22.94L377.741,59.983z"/>
<g>
	<path style="fill:#FA7578;" d="M170.398,7.306C169.051,2.962,165.031,0,160.483,0h-16.308c-4.548,0-8.568,2.962-9.915,7.306
		l-33.026,109.579l51.095,22.94l51.095-22.94L170.398,7.306z"/>
	<path style="fill:#FA7578;" d="M249.682,188.841l-23.174-26.076l-74.179-22.94l-74.179,22.94l-23.174,26.076
		c-4.07,4.579-6.318,10.493-6.318,16.62v281.521c0,13.818,11.201,25.019,25.019,25.019h157.307
		c13.818,0,25.019-11.201,25.019-25.019V205.461C256,199.335,253.752,193.422,249.682,188.841z"/>
</g>
<path style="fill:#F9545B;" d="M79.562,486.981v-281.52c0-6.126,2.248-12.041,6.318-16.62l23.174-26.076l58.726-18.161
	l-15.453-4.779l-74.179,22.94l-23.174,26.076c-4.07,4.579-6.318,10.493-6.318,16.62v281.52c0,13.818,11.201,25.019,25.019,25.019
	h30.905C90.763,512,79.562,500.799,79.562,486.981z"/>
<g>
	<path style="fill:#3B484A;" d="M97.192,326.265c-4.268,0-7.726-3.459-7.726-7.726v-9.978c0-4.267,3.458-7.726,7.726-7.726
		c4.268,0,7.726,3.459,7.726,7.726v9.978C104.919,322.805,101.46,326.265,97.192,326.265z"/>
	<path style="fill:#3B484A;" d="M207.464,326.265c-4.268,0-7.726-3.459-7.726-7.726v-9.978c0-4.267,3.458-7.726,7.726-7.726
		s7.726,3.459,7.726,7.726v9.978C215.19,322.805,211.732,326.265,207.464,326.265z"/>
	<path style="fill:#3B484A;" d="M152.329,333.64c-8.746,0-16.961-3.659-22.537-10.039c-2.809-3.213-2.481-8.094,0.732-10.902
		c3.212-2.808,8.094-2.481,10.901,0.732c2.641,3.023,6.617,4.756,10.903,4.756s8.261-1.734,10.902-4.755
		c2.808-3.213,7.69-3.541,10.901-0.732c3.213,2.808,3.542,7.689,0.732,10.902C169.289,329.98,161.074,333.64,152.329,333.64z"/>
</g>
<path style="fill:#F9545B;" d="M226.508,116.885H78.149c-5.288,0-9.575,4.287-9.575,9.575v26.732c0,5.288,4.287,9.575,9.575,9.575
	h148.359c5.288,0,9.575-4.287,9.575-9.575V126.46C236.082,121.172,231.796,116.885,226.508,116.885z"/>
<path style="fill:#E64047;" d="M99.48,153.191v-26.732c0-5.288,4.287-9.573,9.575-9.573H78.15c-5.288,0-9.575,4.287-9.575,9.573
	v26.732c0,5.288,4.287,9.575,9.575,9.575h30.905C103.767,162.766,99.48,158.479,99.48,153.191z"/>
<path style="fill:#FECE00;" d="M433.851,169.563H285.492c-5.288,0-9.574,4.287-9.574,9.575v26.732c0,5.288,4.287,9.575,9.574,9.575
	h148.359c5.288,0,9.575-4.287,9.575-9.575v-26.732C443.426,173.849,439.139,169.563,433.851,169.563z"/>
<path style="fill:#CCA600;" d="M306.823,205.868v-26.732c0-5.288,4.287-9.573,9.574-9.573h-30.905c-5.288,0-9.574,4.287-9.574,9.573
	v26.732c0,5.288,4.287,9.575,9.574,9.575h30.905C311.11,215.443,306.823,211.156,306.823,205.868z"/>
<g>
	<path style="fill:#3B484A;" d="M304.536,369.957c-4.268,0-7.726-3.459-7.726-7.726v-9.978c0-4.267,3.458-7.726,7.726-7.726
		c4.268,0,7.726,3.459,7.726,7.726v9.978C312.262,366.497,308.803,369.957,304.536,369.957z"/>
	<path style="fill:#3B484A;" d="M414.808,369.957c-4.268,0-7.726-3.459-7.726-7.726v-9.978c0-4.267,3.458-7.726,7.726-7.726
		s7.726,3.459,7.726,7.726v9.978C422.534,366.497,419.075,369.957,414.808,369.957z"/>
	<path style="fill:#3B484A;" d="M359.671,377.331c-8.745,0-16.96-3.659-22.537-10.038c-2.809-3.212-2.481-8.094,0.731-10.902
		c3.21-2.808,8.092-2.482,10.902,0.731c2.642,3.023,6.617,4.756,10.903,4.756s8.261-1.734,10.903-4.756
		c2.808-3.212,7.688-3.54,10.902-0.731c3.212,2.808,3.541,7.689,0.731,10.902C376.631,373.672,368.417,377.331,359.671,377.331z"/>
</g>
<g>
</g>
<g>
</g>
<g>
</g>
<g>
</g>
<g>
</g>
<g>
</g>
<g>
</g>
<g>
</g>
<g>
</g>
<g>
</g>
<g>
</g>
<g>
</g>
<g>
</g>
<g>
</g>
<g>
</g>
</svg>
