<?xml version="1.0" encoding="iso-8859-1"?>
<!-- Generator: Adobe Illustrator 19.0.0, SVG Export Plug-In . SVG Version: 6.00 Build 0)  -->
<svg version="1.1" id="Capa_1" xmlns="http://www.w3.org/2000/svg" xmlns:xlink="http://www.w3.org/1999/xlink" x="0px" y="0px"
	 viewBox="0 0 512.001 512.001" style="enable-background:new 0 0 512.001 512.001;" xml:space="preserve">
<path style="fill:#FCB6BE;" d="M316.556,105.84c35.313-61.424-38.038-71.546-50.519-103.343c-0.796-2.029-3.064-3.053-5.065-2.19
	c-13.283,5.731-56.18,26.807-60.798,61.693v69.877h111.841L316.556,105.84z"/>
<path style="fill:#EB98A3;" d="M212.359,93.49c2.347-36.945,34.418-65.401,59.117-81.996c-2.31-2.83-4.185-5.802-5.437-8.995
	c-0.796-2.029-3.064-3.053-5.065-2.19c-13.283,5.731-56.18,26.806-60.798,61.693v69.877h14.806L212.359,93.49z"/>
<path style="fill:#FDD9CF;" d="M362.289,197.359c22.65-60.195-14.341-97.185-96.777-98.242
	c-31.723-0.407-52.178-16.934-65.338-37.114c0,0-55.335,33.766-34.631,86.169v66.143h166.552L362.289,197.359z"/>
<g>
	<path style="fill:#FCB6BE;" d="M182.275,214.315v-47.081c-18.2-46.066,19.351-78.46,32.309-87.939
		c-5.577-5.17-10.343-11.056-14.41-17.292c0,0-55.335,33.765-34.631,86.169v66.144h16.732V214.315z"/>
	<path style="fill:#FCB6BE;" d="M374.988,257.214c23.69-43.956-16.472-89.401-118.988-75.662
		c-47.175,6.322-75.142-17.315-90.457-33.38c0,0-69.31,45.197-28.531,109.043L256,276.237L374.988,257.214z"/>
</g>
<path style="fill:#EB98A3;" d="M167.918,257.214c-27.423-42.935-5.061-77.436,12.529-95.43c-5.927-4.606-10.861-9.372-14.904-13.613
	c0,0-69.31,45.197-28.531,109.043L256,276.237l15.453-2.47L167.918,257.214z"/>
<path style="fill:#FAC5AA;" d="M256,399.885l-71.429,19.022l7.121,73.056c1.107,11.367,10.663,20.037,22.085,20.037h84.447
	c11.421,0,20.977-8.67,22.085-20.037l7.121-73.056L256,399.885z"/>
<path style="fill:#E2B195;" d="M222.598,491.964l-7.121-73.056L271.453,404L256,399.884l-71.429,19.022l7.121,73.056
	C192.8,503.33,202.356,512,213.777,512h30.905C233.261,512.001,223.705,503.331,222.598,491.964z"/>
<path style="fill:#FAC5AA;" d="M327.429,380.862c52.501-22.193,47.559-85.603,47.559-85.603L256,276.237l-118.988,19.022
	c0,0-4.942,63.41,47.559,85.603L256,399.884L327.429,380.862z"/>
<g>
	<path style="fill:#E2B195;" d="M215.477,380.862c-52.501-22.193-47.559-85.602-47.559-85.602l103.535-16.553L256,276.236
		l-118.988,19.022c0,0-4.942,63.409,47.559,85.602L256,399.884l15.453-4.116L215.477,380.862z"/>
	<path style="fill:#E2B195;" d="M374.988,257.214H137.012c-10.506,0-19.022,8.517-19.022,19.022
		c0,10.506,8.517,19.022,19.022,19.022h237.976c10.506,0,19.022-8.517,19.022-19.022
		C394.011,265.731,385.494,257.214,374.988,257.214z"/>
</g>
<path style="fill:#D1A084;" d="M148.895,276.237c0-10.506,8.517-19.023,19.022-19.023h-30.905c-10.506,0-19.022,8.518-19.022,19.023
	c0,10.506,8.517,19.022,19.022,19.022h30.905C157.412,295.26,148.895,286.743,148.895,276.237z"/>
<path style="fill:#E2B195;" d="M327.429,380.862H184.572c-10.506,0-19.022,8.517-19.022,19.022c0,10.506,8.516,19.022,19.022,19.022
	h142.857c10.506,0,19.022-8.517,19.022-19.022C346.451,389.379,337.935,380.862,327.429,380.862z"/>
<path style="fill:#D1A084;" d="M196.455,399.885c0-10.506,8.517-19.023,19.022-19.023h-30.905c-10.506,0-19.022,8.518-19.022,19.023
	c0,10.506,8.516,19.022,19.022,19.022h30.905C204.971,418.907,196.455,410.391,196.455,399.885z"/>
<g>
	<path style="fill:#3B484A;" d="M200.691,341.267c-4.267,0-7.726-3.459-7.726-7.726v-10.01c0-4.267,3.459-7.726,7.726-7.726
		c4.267,0,7.726,3.459,7.726,7.726v10.01C208.417,337.807,204.958,341.267,200.691,341.267z"/>
	<path style="fill:#3B484A;" d="M311.31,341.267c-4.267,0-7.726-3.459-7.726-7.726v-10.01c0-4.267,3.459-7.726,7.726-7.726
		c4.267,0,7.726,3.459,7.726,7.726v10.01C319.036,337.807,315.577,341.267,311.31,341.267z"/>
	<path style="fill:#3B484A;" d="M256,348.664c-8.767,0-17-3.667-22.59-10.063c-2.808-3.213-2.481-8.094,0.732-10.902
		s8.093-2.481,10.902,0.732c2.655,3.037,6.648,4.779,10.955,4.779c4.307,0,8.3-1.742,10.955-4.779
		c2.808-3.213,7.689-3.541,10.902-0.732c3.213,2.808,3.541,7.689,0.732,10.902C273,344.997,264.767,348.664,256,348.664z"/>
</g>
<g>
</g>
<g>
</g>
<g>
</g>
<g>
</g>
<g>
</g>
<g>
</g>
<g>
</g>
<g>
</g>
<g>
</g>
<g>
</g>
<g>
</g>
<g>
</g>
<g>
</g>
<g>
</g>
<g>
</g>
</svg>
