<?xml version="1.0" encoding="iso-8859-1"?>
<!-- Generator: Adobe Illustrator 19.0.0, SVG Export Plug-In . SVG Version: 6.00 Build 0)  -->
<svg version="1.1" id="Capa_1" xmlns="http://www.w3.org/2000/svg" xmlns:xlink="http://www.w3.org/1999/xlink" x="0px" y="0px"
	 viewBox="0 0 512 512" style="enable-background:new 0 0 512 512;" xml:space="preserve">
<path style="fill:#EEECED;" d="M257.277,208.951L193.886,49.323L117.71,29.967L125.324,0l83.825,21.3
	c4.805,1.221,8.732,4.671,10.561,9.278l66.305,166.962L257.277,208.951z"/>
<path style="fill:#80E2FF;" d="M261.339,203.245L149,223.858l29.544,265.639C179.97,502.308,190.799,512,203.689,512h115.3
	c12.891,0,23.72-9.692,25.145-22.503l29.544-265.638L261.339,203.245z"/>
<path style="fill:#55C2E3;" d="M219.752,489.497l-29.545-265.638l91.736-16.832l-20.604-3.781L149,223.858l29.545,265.638
	C179.97,502.308,190.799,512,203.689,512h41.207C232.006,512,221.177,502.308,219.752,489.497z"/>
<polygon style="fill:#FA7578;" points="339.764,249.07 313.96,481.081 208.718,481.081 182.914,249.07 "/>
<polygon style="fill:#F9545B;" points="182.914,249.07 208.718,481.081 229.321,481.081 203.517,249.07 "/>
<path style="fill:#D4D2D3;" d="M232.408,62.553c-10.77,0.524-21.168,2.478-31.018,5.665l55.888,140.734l28.737-11.411
	L232.408,62.553z"/>
<path style="fill:#F9545B;" d="M284.357,93.311h-46.035c-49.331,0-89.321,39.991-89.321,89.321l0,0l112.339,20.613l112.339-20.613
	l0,0C373.678,133.301,333.687,93.311,284.357,93.311z"/>
<path style="fill:#E64047;" d="M190.207,182.633L190.207,182.633c0-49.331,39.991-89.322,89.321-89.322h-41.207
	c-49.331,0-89.321,39.991-89.321,89.322l0,0l112.339,20.613l20.604-3.781L190.207,182.633z"/>
<path style="fill:#FA7578;" d="M373.678,182.633H149c-11.385,0-20.613,9.228-20.613,20.613l0,0c0,11.385,9.228,20.613,20.613,20.613
	h224.677c11.385,0,20.613-9.228,20.613-20.613l0,0C394.29,191.861,385.062,182.633,373.678,182.633z"/>
<path style="fill:#F9545B;" d="M169.595,203.245L169.595,203.245c0-11.385,9.228-20.613,20.613-20.613H149
	c-11.385,0-20.613,9.228-20.613,20.613l0,0c0,11.385,9.228,20.613,20.613,20.613h41.207
	C178.823,223.858,169.595,214.63,169.595,203.245z"/>
<g>
	<path style="fill:#3B484A;" d="M218.396,320.202c-4.267,0-7.726-3.459-7.726-7.726v-7.772c0-4.267,3.459-7.726,7.726-7.726
		c4.267,0,7.726,3.459,7.726,7.726v7.772C226.123,316.743,222.663,320.202,218.396,320.202z"/>
	<path style="fill:#3B484A;" d="M304.281,320.202c-4.267,0-7.726-3.459-7.726-7.726v-7.772c0-4.267,3.459-7.726,7.726-7.726
		c4.267,0,7.726,3.459,7.726,7.726v7.772C312.008,316.743,308.55,320.202,304.281,320.202z"/>
	<path style="fill:#3B484A;" d="M261.339,325.946c-7.305,0-14.172-3.063-18.84-8.403c-2.808-3.213-2.481-8.094,0.732-10.902
		c3.213-2.808,8.093-2.481,10.902,0.732c1.733,1.983,4.359,3.12,7.205,3.12c2.845,0,5.472-1.137,7.205-3.12
		c2.809-3.213,7.689-3.541,10.902-0.732c3.213,2.808,3.541,7.689,0.732,10.902C275.511,322.883,268.644,325.946,261.339,325.946z"/>
</g>
<g>
</g>
<g>
</g>
<g>
</g>
<g>
</g>
<g>
</g>
<g>
</g>
<g>
</g>
<g>
</g>
<g>
</g>
<g>
</g>
<g>
</g>
<g>
</g>
<g>
</g>
<g>
</g>
<g>
</g>
</svg>
