<?xml version="1.0" encoding="iso-8859-1"?>
<!-- Generator: Adobe Illustrator 19.0.0, SVG Export Plug-In . SVG Version: 6.00 Build 0)  -->
<svg version="1.1" id="Capa_1" xmlns="http://www.w3.org/2000/svg" xmlns:xlink="http://www.w3.org/1999/xlink" x="0px" y="0px"
	 viewBox="0 0 512 512" style="enable-background:new 0 0 512 512;" xml:space="preserve">
<g>
	<path style="fill:#FEDD00;" d="M85.766,86.984l-30.013,4.963c-8.272,1.368-13.87,9.183-12.502,17.455l53.878,325.853l59.971-9.915
		L103.222,99.488C101.853,91.214,94.039,85.617,85.766,86.984z"/>
	<path style="fill:#FEDD00;" d="M426.233,86.984l30.014,4.962c8.272,1.368,13.87,9.183,12.502,17.455l-53.878,325.853L354.9,425.34
		l53.878-325.853C410.145,91.214,417.96,85.617,426.233,86.984z"/>
</g>
<path style="fill:#E6BB00;" d="M255.999,435.493l-154.124,26.173l4.92,19.189c4.69,18.321,21.21,31.145,40.128,31.145h218.152
	c18.917,0,35.437-12.825,40.128-31.145l4.92-19.189L255.999,435.493z"/>
<path style="fill:#CCA600;" d="M148.003,480.855l-4.92-19.189l133.521-22.673l-20.604-3.499l-154.124,26.172l4.92,19.189
	c4.69,18.321,21.21,31.145,40.128,31.145h41.207C169.213,512,152.693,499.175,148.003,480.855z"/>
<g>
	<path style="fill:#FECE00;" d="M164.821,77.996c0-8.385-6.797-15.182-15.182-15.182h-30.421c-8.385,0-15.182,6.797-15.182,15.182
		v330.278h60.786l30.392-204.159L164.821,77.996z"/>
	<path style="fill:#FECE00;" d="M392.781,62.814h-30.421c-8.385,0-15.182,6.797-15.182,15.182l-30.392,126.119l30.392,204.159
		h60.786V77.996C407.964,69.611,401.166,62.814,392.781,62.814z"/>
	<path style="fill:#FECE00;" d="M286.392,376.867l30.392-204.137L286.392,46.589V15.182C286.392,6.797,279.595,0,271.21,0h-30.421
		c-8.385,0-15.182,6.797-15.182,15.182v31.407l-30.392,157.525l30.392,172.752l4.676-31.407h50.584L286.392,376.867z"/>
</g>
<g>
	<path style="fill:#FEDD00;" d="M210.424,31.407h-30.421c-8.385,0-15.182,6.797-15.182,15.182v330.278h60.786V46.589
		C225.607,38.204,218.81,31.407,210.424,31.407z"/>
	<path style="fill:#FEDD00;" d="M301.575,31.407h30.421c8.385,0,15.182,6.797,15.182,15.182v330.278h-60.786V46.589
		C286.392,38.204,293.189,31.407,301.575,31.407z"/>
</g>
<path style="fill:#F9545B;" d="M458.375,273.276l-48.252,188.389H101.875L53.624,273.276c-2.01-7.852,1.11-16.112,7.81-20.676
	c31.732-21.608,74.518-39.175,96.953-47.644c7.14-2.701,15.076,1.34,17.002,8.731c7.978,30.434,41.038,53.255,80.611,53.255
	s72.634-22.823,80.611-53.255c1.926-7.392,9.862-11.432,17.002-8.731c22.435,8.469,65.222,26.037,96.953,47.644
	C457.266,257.164,460.385,265.424,458.375,273.276z"/>
<g>
	<path style="fill:#E64047;" d="M344.432,204.972c-1.742,0.667-3.325,1.711-4.635,3.06
		C341.377,207.061,342.925,206.044,344.432,204.972z"/>
	<path style="fill:#E64047;" d="M61.433,252.6c-6.7,4.565-9.82,12.825-7.81,20.676l48.252,188.389h41.207L95.771,232.487
		C83.873,238.616,72.036,245.381,61.433,252.6z"/>
</g>
<g>
	<path style="fill:#3B484A;" d="M174.595,378.94c-4.267,0-7.726-3.459-7.726-7.726v-14.733c0-4.267,3.459-7.726,7.726-7.726
		c4.267,0,7.726,3.459,7.726,7.726v14.733C182.321,375.48,178.862,378.94,174.595,378.94z"/>
	<path style="fill:#3B484A;" d="M337.404,378.94c-4.267,0-7.726-3.459-7.726-7.726v-14.733c0-4.267,3.459-7.726,7.726-7.726
		c4.267,0,7.726,3.459,7.726,7.726v14.733C345.131,375.48,341.671,378.94,337.404,378.94z"/>
	<path style="fill:#3B484A;" d="M255.999,389.828c-11.85,0-22.969-4.944-30.504-13.563c-2.808-3.213-2.481-8.094,0.732-10.902
		s8.094-2.481,10.902,0.732c4.6,5.262,11.477,8.281,18.869,8.281c7.392,0,14.269-3.018,18.869-8.281
		c2.809-3.213,7.69-3.54,10.902-0.732c3.213,2.808,3.541,7.689,0.732,10.902C278.968,384.884,267.85,389.828,255.999,389.828z"/>
</g>
<g>
</g>
<g>
</g>
<g>
</g>
<g>
</g>
<g>
</g>
<g>
</g>
<g>
</g>
<g>
</g>
<g>
</g>
<g>
</g>
<g>
</g>
<g>
</g>
<g>
</g>
<g>
</g>
<g>
</g>
</svg>
