<?xml version="1.0" encoding="iso-8859-1"?>
<!-- Generator: Adobe Illustrator 19.0.0, SVG Export Plug-In . SVG Version: 6.00 Build 0)  -->
<svg version="1.1" id="Layer_1" xmlns="http://www.w3.org/2000/svg" xmlns:xlink="http://www.w3.org/1999/xlink" x="0px" y="0px"
	 viewBox="0 0 458.329 458.329" style="enable-background:new 0 0 458.329 458.329;" xml:space="preserve">
<g>
	<path style="fill:#46C3E0;" d="M458.329,270.124c0,4.09-2.01,8.18-6.04,10.55c-2.38,1.4-4.83,2.64-7.35,3.73
		c-2.96,1.28-6,2.35-9.1,3.2c-5.73,1.56-11.68,2.36-17.68,2.36h-254.12c-10.98,0-21.91-1.5-32.48-4.46l-97.95-27.4
		c-11.51-3.22-14-18.42-4.12-25.14l-18-80h26l68,81h311.28c7.66,0,14.92,3.69,19.2,10c0.13,0.16,0.23,0.32,0.34,0.49
		c2.01,3.14,4.4,6,7.09,8.54c0.72,0.68,1.47,1.34,2.24,1.97c0.05,0.05,0.1,0.09,0.15,0.13c1.99,1.63,4.12,3.1,6.37,4.39
		C456.269,261.834,458.329,265.974,458.329,270.124z"/>
	<path style="fill:#3EB3C6;" d="M252.742,305.365h52.092c2.572,0,4.657-2.085,4.657-4.657v-22.186c0-2.572-2.085-4.657-4.657-4.657
		h-52.092c-8.699,0-15.751,7.052-15.751,15.751l0,0C236.992,298.313,244.044,305.365,252.742,305.365z"/>
	<path style="fill:#67DCEF;" d="M67.992,238.464H7.5c-4.142,0-7.5-3.358-7.5-7.5s3.358-7.5,7.5-7.5h60.492
		c4.142,0,7.5,3.358,7.5,7.5S72.134,238.464,67.992,238.464z"/>
	<path style="fill:#96E0DE;" d="M445.639,254.964h-11.15c-6.07,0-11-4.92-11-11h12.48c0.13,0.16,0.23,0.32,0.34,0.49
		c2.01,3.14,4.4,6,7.09,8.54C444.119,253.674,444.869,254.334,445.639,254.964z"/>
	<path style="fill:#96E0DE;" d="M375.829,259.964c-0.49,0-0.99-0.05-1.47-0.15c-0.48-0.09-0.95-0.24-1.4-0.42
		c-0.46-0.19-0.89-0.42-1.3-0.69c-0.41-0.28-0.79-0.59-1.14-0.94c-1.39-1.39-2.19-3.33-2.19-5.3s0.8-3.91,2.19-5.3
		c0.35-0.35,0.73-0.66,1.14-0.94c0.41-0.27,0.84-0.5,1.3-0.69c0.45-0.18,0.92-0.33,1.4-0.42c0.97-0.2,1.96-0.2,2.93,0
		c0.48,0.09,0.95,0.24,1.41,0.42c0.45,0.19,0.88,0.42,1.29,0.69c0.41,0.28,0.79,0.59,1.14,0.94c1.4,1.39,2.2,3.33,2.2,5.3
		c0,1.98-0.8,3.91-2.2,5.3c-0.35,0.35-0.73,0.66-1.14,0.94c-0.41,0.27-0.84,0.5-1.29,0.69c-0.46,0.18-0.93,0.33-1.41,0.42
		C376.809,259.914,376.319,259.964,375.829,259.964z"/>
	<path style="fill:#96E0DE;" d="M351.679,259.964c-0.49,0-0.98-0.05-1.47-0.15c-0.48-0.09-0.95-0.24-1.4-0.42
		c-0.45-0.19-0.89-0.42-1.3-0.69c-0.41-0.28-0.79-0.59-1.14-0.94c-0.34-0.34-0.65-0.73-0.93-1.14c-0.27-0.4-0.5-0.84-0.69-1.29
		c-0.18-0.45-0.33-0.93-0.42-1.4c-0.1-0.49-0.15-0.98-0.15-1.47c0-0.49,0.05-0.98,0.15-1.47c0.09-0.47,0.24-0.95,0.42-1.4
		c0.19-0.45,0.42-0.89,0.69-1.29c0.28-0.41,0.59-0.8,0.93-1.14c0.35-0.35,0.73-0.66,1.14-0.94c0.41-0.27,0.85-0.5,1.3-0.68
		c0.45-0.19,0.92-0.34,1.4-0.43c0.97-0.2,1.97-0.2,2.93,0c0.48,0.09,0.95,0.24,1.41,0.43c0.45,0.18,0.89,0.41,1.29,0.68
		c0.41,0.28,0.8,0.59,1.14,0.94c0.35,0.34,0.66,0.73,0.93,1.14c0.27,0.4,0.51,0.84,0.69,1.29c0.19,0.45,0.33,0.93,0.43,1.4
		c0.1,0.49,0.15,0.98,0.15,1.47c0,0.49-0.05,0.98-0.15,1.47c-0.1,0.47-0.24,0.95-0.43,1.4c-0.18,0.45-0.42,0.89-0.69,1.29
		c-0.27,0.41-0.58,0.8-0.93,1.14c-0.34,0.35-0.73,0.66-1.14,0.94c-0.4,0.27-0.84,0.5-1.29,0.69c-0.46,0.18-0.93,0.33-1.41,0.42
		C352.659,259.914,352.169,259.964,351.679,259.964z"/>
	<path style="fill:#96E0DE;" d="M327.529,259.964c-1.97,0-3.91-0.8-5.3-2.2c-0.35-0.34-0.66-0.73-0.94-1.14
		c-0.27-0.4-0.5-0.84-0.69-1.29c-0.18-0.45-0.33-0.93-0.42-1.4c-0.1-0.49-0.15-0.98-0.15-1.47c0-1.98,0.8-3.91,2.2-5.3
		c1.74-1.74,4.32-2.54,6.77-2.05c0.47,0.09,0.95,0.24,1.4,0.42c0.45,0.19,0.89,0.42,1.29,0.69c0.41,0.28,0.8,0.59,1.14,0.94
		c1.4,1.39,2.2,3.33,2.2,5.3c0,0.49-0.05,0.98-0.15,1.47c-0.09,0.47-0.24,0.95-0.42,1.4c-0.19,0.45-0.42,0.89-0.69,1.29
		c-0.28,0.41-0.59,0.8-0.94,1.14C331.439,259.164,329.499,259.964,327.529,259.964z"/>
	<path style="fill:#96E0DE;" d="M303.379,259.964c-0.49,0-0.98-0.05-1.46-0.15c-0.48-0.09-0.95-0.24-1.41-0.42
		c-0.45-0.19-0.89-0.42-1.29-0.69c-0.41-0.28-0.8-0.59-1.14-0.94c-0.35-0.34-0.66-0.73-0.93-1.14c-0.27-0.4-0.51-0.84-0.69-1.29
		c-0.19-0.45-0.33-0.92-0.43-1.4c-0.1-0.49-0.15-0.98-0.15-1.47c0-0.49,0.05-0.98,0.15-1.47c0.1-0.47,0.24-0.95,0.43-1.4
		c0.18-0.45,0.42-0.89,0.69-1.29c0.27-0.41,0.58-0.8,0.93-1.14c0.34-0.35,0.73-0.66,1.14-0.94c0.4-0.27,0.84-0.5,1.29-0.68
		c0.46-0.19,0.93-0.34,1.41-0.43c2.43-0.49,5.02,0.31,6.77,2.05c0.34,0.34,0.65,0.73,0.93,1.14c0.27,0.4,0.5,0.84,0.69,1.29
		c0.18,0.45,0.33,0.93,0.42,1.4c0.1,0.49,0.15,0.98,0.15,1.47c0,0.49-0.05,0.98-0.15,1.47c-0.09,0.48-0.24,0.95-0.42,1.4
		c-0.19,0.45-0.42,0.89-0.69,1.29c-0.28,0.41-0.59,0.8-0.93,1.14C307.289,259.164,305.359,259.964,303.379,259.964z"/>
	<path style="fill:#96E0DE;" d="M182.639,259.964c-0.49,0-0.98-0.05-1.46-0.15c-0.48-0.09-0.96-0.24-1.41-0.42
		c-0.45-0.19-0.89-0.42-1.29-0.69c-0.41-0.28-0.8-0.59-1.14-0.94c-0.35-0.34-0.66-0.73-0.94-1.14c-0.27-0.4-0.5-0.84-0.69-1.29
		c-0.18-0.45-0.33-0.93-0.42-1.4c-0.1-0.49-0.15-0.98-0.15-1.47c0-1.97,0.8-3.91,2.2-5.3c0.34-0.35,0.73-0.66,1.14-0.93
		c0.4-0.28,0.84-0.51,1.29-0.69c0.45-0.19,0.93-0.34,1.41-0.43c2.43-0.49,5.02,0.31,6.76,2.05c1.4,1.39,2.2,3.33,2.2,5.3
		c0,0.49-0.05,0.98-0.15,1.47c-0.09,0.47-0.24,0.95-0.42,1.4c-0.19,0.45-0.42,0.89-0.69,1.29c-0.28,0.41-0.59,0.8-0.94,1.14
		C186.549,259.164,184.619,259.964,182.639,259.964z"/>
	<path style="fill:#96E0DE;" d="M158.489,259.964c-0.49,0-0.98-0.05-1.46-0.15c-0.48-0.09-0.95-0.24-1.41-0.42
		c-0.45-0.19-0.88-0.42-1.29-0.69c-0.41-0.28-0.79-0.59-1.14-0.94c-0.35-0.34-0.66-0.73-0.93-1.14c-0.27-0.4-0.5-0.84-0.69-1.29
		c-0.19-0.45-0.33-0.93-0.43-1.4c-0.1-0.49-0.15-0.98-0.15-1.47c0-0.49,0.05-0.98,0.15-1.46s0.24-0.96,0.43-1.41
		c0.19-0.45,0.42-0.89,0.69-1.29c0.27-0.41,0.58-0.8,0.93-1.14c0.35-0.35,0.73-0.66,1.14-0.94c0.41-0.27,0.84-0.5,1.29-0.68
		c0.46-0.19,0.93-0.34,1.41-0.43c0.97-0.2,1.96-0.2,2.93,0c0.48,0.09,0.95,0.24,1.4,0.43c0.45,0.18,0.89,0.41,1.3,0.68
		c0.41,0.28,0.79,0.59,1.14,0.94c0.34,0.34,0.66,0.73,0.93,1.14c0.27,0.4,0.5,0.84,0.69,1.29c0.19,0.45,0.33,0.93,0.43,1.41
		c0.09,0.48,0.14,0.97,0.14,1.46c0,0.49-0.05,0.98-0.14,1.47c-0.1,0.47-0.24,0.95-0.43,1.4c-0.19,0.45-0.42,0.89-0.69,1.29
		c-0.27,0.41-0.59,0.8-0.93,1.14c-0.35,0.35-0.73,0.66-1.14,0.94c-0.41,0.27-0.85,0.5-1.3,0.69c-0.45,0.18-0.92,0.33-1.4,0.42
		C159.479,259.914,158.979,259.964,158.489,259.964z"/>
	<path style="fill:#96E0DE;" d="M279.229,259.964c-0.48,0-0.98-0.05-1.46-0.15c-0.48-0.09-0.95-0.24-1.41-0.42
		c-0.45-0.19-0.88-0.42-1.29-0.69c-0.41-0.28-0.79-0.59-1.14-0.94c-1.4-1.39-2.2-3.33-2.2-5.3c0-0.49,0.05-0.98,0.15-1.46
		s0.24-0.96,0.43-1.41c0.19-0.45,0.42-0.89,0.69-1.29c0.27-0.41,0.59-0.8,0.93-1.14c1.4-1.4,3.33-2.2,5.3-2.2
		c1.98,0,3.91,0.8,5.31,2.2c0.34,0.34,0.66,0.73,0.93,1.14c0.27,0.4,0.5,0.84,0.69,1.29c0.19,0.45,0.33,0.93,0.43,1.41
		s0.14,0.97,0.14,1.46c0,0.49-0.04,0.98-0.14,1.47c-0.1,0.47-0.24,0.95-0.43,1.4c-0.19,0.45-0.42,0.89-0.69,1.29
		c-0.27,0.41-0.59,0.8-0.93,1.14C283.139,259.164,281.209,259.964,279.229,259.964z"/>
	<path style="fill:#96E0DE;" d="M255.089,259.964c-1.98,0-3.91-0.8-5.31-2.2c-0.34-0.34-0.66-0.73-0.93-1.14
		c-0.27-0.4-0.5-0.84-0.69-1.29c-0.19-0.45-0.33-0.93-0.43-1.4c-0.1-0.49-0.14-0.98-0.14-1.47c0-0.49,0.04-0.98,0.14-1.46
		c0.1-0.48,0.24-0.96,0.43-1.41c0.19-0.45,0.42-0.89,0.69-1.29c0.27-0.41,0.59-0.8,0.93-1.14c1.4-1.4,3.33-2.2,5.31-2.2
		c1.97,0,3.9,0.8,5.3,2.2c0.34,0.34,0.66,0.73,0.93,1.14c0.27,0.4,0.5,0.84,0.69,1.29c0.19,0.45,0.33,0.93,0.43,1.41
		s0.15,0.97,0.15,1.46c0,0.49-0.05,0.98-0.15,1.47c-0.1,0.47-0.24,0.95-0.43,1.4c-0.19,0.45-0.42,0.89-0.69,1.29
		c-0.27,0.41-0.59,0.8-0.93,1.14C258.989,259.164,257.059,259.964,255.089,259.964z"/>
	<path style="fill:#96E0DE;" d="M230.939,259.964c-0.49,0-0.98-0.05-1.47-0.15c-0.48-0.09-0.95-0.24-1.4-0.42
		c-0.45-0.19-0.89-0.42-1.3-0.69c-0.41-0.28-0.79-0.59-1.14-0.94c-0.34-0.34-0.66-0.73-0.93-1.14c-0.27-0.4-0.5-0.84-0.69-1.29
		c-0.19-0.45-0.33-0.93-0.43-1.4c-0.09-0.49-0.14-0.98-0.14-1.47c0-0.49,0.05-0.98,0.14-1.47c0.1-0.47,0.24-0.95,0.43-1.4
		c0.19-0.45,0.42-0.89,0.69-1.29c0.27-0.41,0.59-0.8,0.93-1.14c0.35-0.35,0.73-0.66,1.14-0.93c0.41-0.27,0.85-0.51,1.3-0.69
		c0.45-0.19,0.92-0.34,1.4-0.43c0.97-0.2,1.96-0.2,2.93,0c0.48,0.09,0.95,0.24,1.41,0.43c0.45,0.18,0.88,0.42,1.29,0.69
		c0.41,0.27,0.79,0.58,1.14,0.93c0.35,0.34,0.66,0.73,0.93,1.14c0.27,0.4,0.5,0.84,0.69,1.29c0.19,0.45,0.33,0.93,0.43,1.4
		c0.1,0.49,0.15,0.98,0.15,1.47c0,0.49-0.05,0.98-0.15,1.47c-0.1,0.47-0.24,0.95-0.43,1.4c-0.19,0.45-0.42,0.89-0.69,1.29
		c-0.27,0.41-0.58,0.8-0.93,1.14c-0.35,0.35-0.73,0.66-1.14,0.94c-0.41,0.27-0.84,0.5-1.29,0.69c-0.46,0.18-0.93,0.33-1.41,0.42
		C231.919,259.914,231.429,259.964,230.939,259.964z"/>
	<path style="fill:#96E0DE;" d="M206.789,259.964c-1.98,0-3.91-0.8-5.3-2.2c-0.35-0.34-0.66-0.73-0.94-1.14
		c-0.27-0.4-0.5-0.84-0.69-1.29c-0.18-0.45-0.33-0.93-0.42-1.4c-0.1-0.49-0.15-0.98-0.15-1.47c0-0.49,0.05-0.98,0.15-1.47
		c0.09-0.47,0.24-0.95,0.42-1.4c0.19-0.45,0.42-0.89,0.69-1.29c0.28-0.41,0.59-0.8,0.94-1.14c1.73-1.74,4.33-2.54,6.76-2.05
		c0.48,0.09,0.96,0.24,1.41,0.43c0.45,0.18,0.89,0.41,1.29,0.68c0.41,0.28,0.8,0.59,1.14,0.94c0.35,0.34,0.66,0.73,0.94,1.14
		c0.27,0.4,0.5,0.84,0.68,1.29c0.19,0.45,0.34,0.93,0.43,1.4c0.1,0.49,0.15,0.98,0.15,1.47c0,0.49-0.05,0.98-0.15,1.47
		c-0.09,0.47-0.24,0.95-0.43,1.4c-0.18,0.45-0.41,0.89-0.68,1.29c-0.28,0.41-0.59,0.8-0.94,1.14c-0.34,0.35-0.73,0.66-1.14,0.94
		c-0.4,0.27-0.84,0.5-1.29,0.69c-0.45,0.18-0.93,0.33-1.41,0.42C207.769,259.914,207.279,259.964,206.789,259.964z"/>
	<path style="fill:#67DCEF;" d="M312.492,281.364h-84.667c-4.142,0-7.5-3.358-7.5-7.5s3.358-7.5,7.5-7.5h84.667
		c4.142,0,7.5,3.358,7.5,7.5S316.634,281.364,312.492,281.364z"/>
	<path style="fill:#67DCEF;" d="M458.329,270.124c0,4.09-2.01,8.18-6.04,10.55c-2.38,1.4-4.83,2.64-7.35,3.73
		c-3.81-3.57-6.19-8.65-6.19-14.28c0-6.04,2.74-11.44,7.04-15.03c1.99,1.63,4.12,3.1,6.37,4.39
		C456.269,261.834,458.329,265.974,458.329,270.124z"/>
</g>
<g>
</g>
<g>
</g>
<g>
</g>
<g>
</g>
<g>
</g>
<g>
</g>
<g>
</g>
<g>
</g>
<g>
</g>
<g>
</g>
<g>
</g>
<g>
</g>
<g>
</g>
<g>
</g>
<g>
</g>
</svg>
