<?xml version="1.0" encoding="iso-8859-1"?>
<!-- Generator: Adobe Illustrator 19.0.0, SVG Export Plug-In . SVG Version: 6.00 Build 0)  -->
<svg version="1.1" id="Layer_1" xmlns="http://www.w3.org/2000/svg" xmlns:xlink="http://www.w3.org/1999/xlink" x="0px" y="0px"
	 viewBox="0 0 489.06 489.06" style="enable-background:new 0 0 489.06 489.06;" xml:space="preserve">
<g>
	<path style="fill:#37B7CC;" d="M438.641,280.953H327.066c-4.143,0-7.5-3.358-7.5-7.5s3.357-7.5,7.5-7.5H438.64
		c16.605,0,31.28-11.182,35.687-27.193c1.099-3.993,5.225-6.341,9.222-5.241c3.993,1.099,6.34,5.228,5.241,9.221
		C482.598,265.239,461.976,280.953,438.641,280.953z"/>
	<path style="fill:#37B7CC;" d="M161.994,280.953H50.42c-23.336,0-43.958-15.714-50.149-38.213
		c-1.099-3.994,1.248-8.122,5.241-9.221c3.995-1.1,8.122,1.248,9.222,5.241c4.405,16.011,19.08,27.193,35.687,27.193h111.574
		c4.143,0,7.5,3.358,7.5,7.5S166.137,280.953,161.994,280.953z"/>
	<path style="fill:#37B7CC;" d="M244.53,198.417c-4.143,0-7.5-3.358-7.5-7.5v-50.345c0-4.142,3.357-7.5,7.5-7.5s7.5,3.358,7.5,7.5
		v50.345C252.03,195.059,248.673,198.417,244.53,198.417z"/>
	<path style="fill:#37B7CC;" d="M337.564,214.572h-57.21c-4.143,0-7.5-3.358-7.5-7.5s3.357-7.5,7.5-7.5h57.21
		c4.143,0,7.5,3.358,7.5,7.5S341.706,214.572,337.564,214.572z"/>
	<path style="fill:#37B7CC;" d="M208.703,214.572h-57.21c-4.143,0-7.5-3.358-7.5-7.5s3.357-7.5,7.5-7.5h57.21
		c4.143,0,7.5,3.358,7.5,7.5S212.846,214.572,208.703,214.572z"/>
	<circle style="fill:#46C3E0;" cx="244.53" cy="273.453" r="82.536"/>
	<path style="fill:#CBEFED;" d="M289.233,248.699l-16.97,16.98h-55.46l-16.98-16.98c7.77-7.77,17.05-13.09,26.89-15.97
		c5.81-1.7,11.81-2.55,17.82-2.55C260.703,230.179,276.883,236.349,289.233,248.699z"/>
	<circle style="fill:#46C3E0;" cx="394.082" cy="312.757" r="39.304"/>
	<circle style="fill:#46C3E0;" cx="94.978" cy="312.757" r="39.304"/>
	<circle style="fill:#26A8B5;" cx="94.978" cy="312.757" r="24.208"/>
	<circle style="fill:#26A8B5;" cx="394.082" cy="312.757" r="24.208"/>
	<path style="fill:#96E0DE;" d="M289.233,248.699l-16.97,16.98h-27.73v-35.5C260.703,230.179,276.883,236.349,289.233,248.699z"/>
	<circle style="fill:#68D8EA;" cx="244.53" cy="293.41" r="39.219"/>
	<path style="fill:#7DE3F4;" d="M244.533,300.909c-0.49,0-0.99-0.05-1.47-0.15c-0.48-0.09-0.95-0.24-1.4-0.42
		c-0.45-0.19-0.89-0.42-1.3-0.69c-0.41-0.28-0.79-0.59-1.141-0.94c-0.34-0.34-0.659-0.73-0.93-1.14c-0.27-0.4-0.5-0.84-0.69-1.29
		c-0.189-0.45-0.329-0.93-0.43-1.4c-0.09-0.49-0.14-0.98-0.14-1.47s0.05-0.98,0.14-1.47c0.101-0.47,0.24-0.95,0.43-1.4
		c0.19-0.45,0.421-0.89,0.69-1.29c0.271-0.41,0.59-0.8,0.93-1.14c0.351-0.35,0.73-0.66,1.141-0.94c0.41-0.27,0.85-0.5,1.3-0.69
		c0.45-0.18,0.92-0.33,1.4-0.42c0.97-0.2,1.96-0.2,2.93,0c0.479,0.09,0.95,0.24,1.399,0.42c0.46,0.19,0.891,0.42,1.301,0.69
		c0.409,0.28,0.79,0.59,1.14,0.94c0.35,0.34,0.66,0.73,0.93,1.14c0.271,0.4,0.5,0.84,0.69,1.29c0.189,0.45,0.33,0.93,0.43,1.4
		c0.101,0.49,0.15,0.98,0.15,1.47s-0.05,0.98-0.15,1.47c-0.1,0.47-0.24,0.95-0.43,1.4c-0.19,0.45-0.42,0.89-0.69,1.29
		c-0.27,0.41-0.58,0.8-0.93,1.14c-0.35,0.35-0.73,0.66-1.14,0.94c-0.41,0.27-0.841,0.5-1.301,0.69c-0.449,0.18-0.92,0.33-1.399,0.42
		C245.513,300.859,245.013,300.909,244.533,300.909z"/>
</g>
<g>
</g>
<g>
</g>
<g>
</g>
<g>
</g>
<g>
</g>
<g>
</g>
<g>
</g>
<g>
</g>
<g>
</g>
<g>
</g>
<g>
</g>
<g>
</g>
<g>
</g>
<g>
</g>
<g>
</g>
</svg>
