<?xml version="1.0" encoding="iso-8859-1"?>
<!-- Generator: Adobe Illustrator 19.0.0, SVG Export Plug-In . SVG Version: 6.00 Build 0)  -->
<svg version="1.1" id="Layer_1" xmlns="http://www.w3.org/2000/svg" xmlns:xlink="http://www.w3.org/1999/xlink" x="0px" y="0px"
	 viewBox="0 0 370.01 370.01" style="enable-background:new 0 0 370.01 370.01;" xml:space="preserve">
<g>
	<path style="fill:#4D4D4D;" d="M244.18,311.645v4.53c0,11.01-8.92,19.93-19.92,19.93h-64.8c-11.01,0-19.93-8.92-19.93-19.93v-4.53
		H244.18z"/>
	<path style="fill:#666666;" d="M345.4,311.645v37.38c0,4.92-3.99,8.9-8.9,8.9h-52.87c-4.92,0-8.9-3.98-8.9-8.9v-37.38H345.4z"/>
	<path style="fill:#666666;" d="M95.29,311.645v37.38c0,4.92-3.99,8.9-8.9,8.9H33.52c-4.92,0-8.9-3.98-8.9-8.9v-37.38H95.29z"/>
	<path style="fill:#CCCCCC;" d="M370.01,295.046v1.339c0,8.428-6.832,15.261-15.261,15.261l0,0H279.96h-32.331h-110.75H90.06H15.271
		H15.26C6.832,311.645,0,304.813,0,296.384v-1.339c0-8.428,6.832-15.261,15.261-15.261H354.75
		C363.178,279.785,370.01,286.617,370.01,295.046z"/>
	<path style="fill:#E6E6E6;" d="M359.82,168.695v111.09H10.19v-111.09l16.72-102.03c1.76-10.71,11.02-18.58,21.88-18.58h62.22h31.3
		h85.39H259h62.23c10.85,0,20.11,7.87,21.87,18.58L359.82,168.695z M337.82,170.485l-16.45-100.4H48.65l-16.46,100.4H337.82z
		 M334.96,231.285c0-14.36-11.64-26-26-26s-26,11.64-26,26s11.64,26,26,26C323.32,257.285,334.96,245.645,334.96,231.285z
		 M218.28,239.745v-26.74h-19.9v-19.91h-26.74v19.91h-19.91v26.74h19.91v19.9h26.74v-19.9H218.28z M87.06,231.285
		c0-14.36-11.65-26-26-26c-14.36,0-26,11.64-26,26s11.64,26,26,26C75.41,257.285,87.06,245.645,87.06,231.285z"/>
	<circle style="fill:#FFFFFF;" cx="308.96" cy="231.285" r="26"/>
	<path style="fill:#FFFFFF;" d="M61.06,205.285c14.35,0,26,11.64,26,26s-11.65,26-26,26c-14.36,0-26-11.64-26-26
		S46.7,205.285,61.06,205.285z"/>
	<polygon style="fill:#76CDCE;" points="321.37,70.085 337.82,170.485 32.19,170.485 48.65,70.085 	"/>
	<path style="fill:#F4581B;" d="M257.39,26.115l1.61,21.97h-35.3v-36h18.59C250.22,12.085,256.81,18.205,257.39,26.115z"/>
	<rect x="142.31" y="12.085" style="fill:#008DB3;" width="85.39" height="36"/>
	<path style="fill:#F4581B;" d="M143.31,12.085v36h-32.3l1.62-21.97c0.57-7.91,7.16-14.03,15.09-14.03H143.31z"/>
	<polygon style="fill:#F4581B;" points="218.28,213.005 218.28,239.745 198.38,239.745 198.38,259.645 171.64,259.645 
		171.64,239.745 151.73,239.745 151.73,213.005 171.64,213.005 171.64,193.095 198.38,193.095 198.38,213.005 	"/>
	<polygon style="fill:#96E0DE;" points="131.01,70.085 233.21,170.485 337.82,170.485 321.37,70.085 	"/>
</g>
<g>
</g>
<g>
</g>
<g>
</g>
<g>
</g>
<g>
</g>
<g>
</g>
<g>
</g>
<g>
</g>
<g>
</g>
<g>
</g>
<g>
</g>
<g>
</g>
<g>
</g>
<g>
</g>
<g>
</g>
</svg>
