<?xml version="1.0" encoding="iso-8859-1"?>
<!-- Generator: Adobe Illustrator 19.0.0, SVG Export Plug-In . SVG Version: 6.00 Build 0)  -->
<svg version="1.1" id="Layer_1" xmlns="http://www.w3.org/2000/svg" xmlns:xlink="http://www.w3.org/1999/xlink" x="0px" y="0px"
	 viewBox="0 0 444.91 444.91" style="enable-background:new 0 0 444.91 444.91;" xml:space="preserve">
<g>
	<rect x="79.8" y="99.205" style="fill:#F4581B;" width="37.5" height="25.5"/>
	<polygon style="fill:#F4581B;" points="183.29,99.205 183.29,124.705 145.8,124.705 145.79,124.705 145.79,99.205 	"/>
	<rect x="211.79" y="99.205" style="fill:#F4581B;" width="37.5" height="25.5"/>
	<rect x="79.8" y="124.705" style="fill:#E6E6E6;" width="37.5" height="61.5"/>
	<polygon style="fill:#E6E6E6;" points="183.29,124.705 183.29,186.205 145.79,186.205 145.79,124.705 145.8,124.705 	"/>
	<rect x="211.79" y="124.705" style="fill:#E6E6E6;" width="37.5" height="61.5"/>
	<polygon style="fill:#F2F2F2;" points="317.65,243.895 35.97,243.895 49.05,201.205 53.65,186.205 303.52,186.205 307.19,201.205 	
		"/>
	<path style="fill:#666666;" d="M444.91,218.445l-34.23,80.22l-6.4,15l-13.67,32.04H12.22l-3.85-32.04l-1.8-15L0,243.895h321.04
		c14.06,0,25.46-11.4,25.46-25.45H444.91z"/>
	<polygon style="fill:#999999;" points="328.79,186.205 328.79,201.205 49.05,201.205 53.65,186.205 	"/>
	<path style="fill:#96E0DE;" d="M289.806,226.549h-18.659c-4.142,0-7.5-3.358-7.5-7.5s3.358-7.5,7.5-7.5h18.659
		c4.142,0,7.5,3.358,7.5,7.5S293.948,226.549,289.806,226.549z"/>
	<path style="fill:#96E0DE;" d="M251.15,226.545c-0.49,0-0.99-0.04-1.47-0.14s-0.95-0.24-1.4-0.43c-0.45-0.19-0.89-0.42-1.3-0.69
		c-0.41-0.27-0.79-0.59-1.14-0.93c-0.34-0.35-0.66-0.73-0.93-1.14c-0.27-0.41-0.5-0.85-0.69-1.3c-0.19-0.45-0.33-0.92-0.43-1.4
		c-0.09-0.48-0.14-0.98-0.14-1.47c0-0.48,0.05-0.98,0.14-1.46c0.1-0.48,0.24-0.95,0.43-1.41c0.19-0.45,0.42-0.88,0.69-1.29
		c0.27-0.41,0.59-0.79,0.93-1.14c0.35-0.35,0.73-0.66,1.14-0.93s0.85-0.5,1.3-0.69s0.92-0.33,1.4-0.43c0.97-0.19,1.97-0.19,2.93,0
		c0.48,0.1,0.95,0.24,1.41,0.43c0.45,0.19,0.88,0.42,1.29,0.69c0.41,0.27,0.79,0.58,1.14,0.93c0.35,0.35,0.66,0.73,0.93,1.14
		s0.5,0.84,0.69,1.29c0.19,0.46,0.33,0.93,0.43,1.41s0.15,0.98,0.15,1.46c0,0.49-0.05,0.99-0.15,1.47c-0.1,0.48-0.24,0.95-0.43,1.4
		c-0.19,0.45-0.42,0.89-0.69,1.3s-0.58,0.79-0.93,1.14c-0.35,0.34-0.73,0.66-1.14,0.93s-0.84,0.5-1.29,0.69
		c-0.46,0.19-0.93,0.33-1.41,0.43C252.13,226.505,251.63,226.545,251.15,226.545z"/>
	<path style="fill:#96E0DE;" d="M230.147,226.549h-153.5c-4.142,0-7.5-3.358-7.5-7.5s3.358-7.5,7.5-7.5h153.5
		c4.142,0,7.5,3.358,7.5,7.5S234.289,226.549,230.147,226.549z"/>
	<circle style="fill:#808080;" cx="383.737" cy="262.807" r="13.244"/>
	<polygon style="fill:#F4581B;" points="410.68,298.665 404.28,313.665 8.37,313.665 6.57,298.665 	"/>
</g>
<g>
</g>
<g>
</g>
<g>
</g>
<g>
</g>
<g>
</g>
<g>
</g>
<g>
</g>
<g>
</g>
<g>
</g>
<g>
</g>
<g>
</g>
<g>
</g>
<g>
</g>
<g>
</g>
<g>
</g>
</svg>
