<?xml version="1.0" encoding="iso-8859-1"?>
<!-- Generator: Adobe Illustrator 19.0.0, SVG Export Plug-In . SVG Version: 6.00 Build 0)  -->
<svg version="1.1" id="Layer_1" xmlns="http://www.w3.org/2000/svg" xmlns:xlink="http://www.w3.org/1999/xlink" x="0px" y="0px"
	 viewBox="0 0 427.72 427.72" style="enable-background:new 0 0 427.72 427.72;" xml:space="preserve">
<g>
	<g id="XMLID_8_">
		<g>
			<path style="fill:#E6E6E6;" d="M242.895,37.67v82.25h-58.06V37.67C203.345,29.6,224.385,29.6,242.895,37.67z"/>
			<path style="fill:#F4581B;" d="M242.895,6.05v31.62c-18.51-8.07-39.55-8.07-58.06,0V6.05c9.25-4.04,19.14-6.05,29.03-6.05
				S233.645,2.01,242.895,6.05z"/>
		</g>
	</g>
	<polyline style="fill:#F2F2F2;" points="333.015,224.037 322.253,119.922 105.467,119.922 94.716,224.026 	"/>
	<rect x="89.333" y="112.422" style="fill:#999999;" width="249.065" height="15"/>
	<rect x="265.365" y="141.449" style="fill:#96E0DE;" width="40.103" height="15"/>
	<rect x="166.865" y="168.918" style="fill:#96E0DE;" width="137.295" height="15"/>
	<rect x="122.263" y="168.918" style="fill:#96E0DE;" width="31.153" height="15"/>
	<rect x="122.263" y="141.449" style="fill:#96E0DE;" width="129.769" height="15"/>
	<polygon style="fill:#666666;" points="385.015,244.84 343.165,350.16 337.465,364.52 323.455,399.77 213.865,427.72 
		104.265,399.77 90.255,364.52 84.555,350.16 42.705,244.84 213.865,176.36 	"/>
	<polygon style="fill:#4D4D4D;" points="385.015,244.84 323.455,399.77 213.865,427.72 213.865,176.36 	"/>
	<path style="fill:#F4581B;" d="M343.165,350.16l-5.7,14.36l-123.6-16.75l-123.61,16.75l-5.7-14.36l128.3-17.39
		c0.33-0.04,0.67-0.07,1.01-0.07c0.33,0,0.66,0.03,1,0.07L343.165,350.16z"/>
	<g>
		<ellipse style="fill:#808080;" cx="254.05" cy="266.523" rx="11.112" ry="19.609"/>
		<ellipse style="fill:#808080;" cx="173.673" cy="266.523" rx="11.112" ry="19.609"/>
	</g>
	<path style="fill:#DD4B1D;" d="M343.165,350.16l-5.7,14.36l-123.6-16.75V332.7c0.33,0,0.66,0.03,1,0.07L343.165,350.16z"/>
</g>
<g>
</g>
<g>
</g>
<g>
</g>
<g>
</g>
<g>
</g>
<g>
</g>
<g>
</g>
<g>
</g>
<g>
</g>
<g>
</g>
<g>
</g>
<g>
</g>
<g>
</g>
<g>
</g>
<g>
</g>
</svg>
