<?xml version="1.0" encoding="iso-8859-1"?>
<!-- Generator: Adobe Illustrator 19.0.0, SVG Export Plug-In . SVG Version: 6.00 Build 0)  -->
<svg version="1.1" id="Layer_1" xmlns="http://www.w3.org/2000/svg" xmlns:xlink="http://www.w3.org/1999/xlink" x="0px" y="0px"
	 viewBox="0 0 441.636 441.636" style="enable-background:new 0 0 441.636 441.636;" xml:space="preserve">
<g>
	<path style="fill:#F4581B;" d="M232.645,141.635h-15V77.211L165.15,62.73c-3.252-0.897-5.505-3.856-5.505-7.23v-48
		c0-4.142,3.358-7.5,7.5-7.5h83c4.142,0,7.5,3.358,7.5,7.5v22c0,4.142-3.358,7.5-7.5,7.5h-42V22h34.5v-7h-68v34.789L227.14,64.27
		c3.252,0.897,5.505,3.856,5.505,7.23L232.645,141.635L232.645,141.635z"/>
	<path style="fill:#F7CF52;" d="M286.143,150.864v20.773h-122v-20.773c0-5.096,4.131-9.227,9.227-9.227h103.545
		C282.012,141.636,286.143,145.768,286.143,150.864z"/>
	<path style="fill:#F4581B;" d="M335.493,388.636h-229.35v-25h37v-159h-37v-10.65c0-12.34,10.01-22.35,22.35-22.35h35.65h122h27
		c12.35,0,22.35,10.01,22.35,22.35v10.65h-37v159h37V388.636z M276.493,363.636v-159h-111.35v159H276.493z"/>
	<path style="fill:#F7CF52;" d="M335.493,388.636v30.65c0,12.34-10,22.35-22.35,22.35h-184.65c-12.34,0-22.35-10.01-22.35-22.35
		v-30.65H335.493z"/>
	<rect x="298.493" y="204.636" style="fill:#96E0DE;" width="37" height="159"/>
	<rect x="165.143" y="204.636" style="fill:#76CDCE;" width="111.35" height="159"/>
	<rect x="106.143" y="204.636" style="fill:#76CDCE;" width="37" height="159"/>
	<polygon style="fill:#96E0DE;" points="276.493,204.636 276.493,363.636 165.143,252.286 165.143,204.636 	"/>
</g>
<g>
</g>
<g>
</g>
<g>
</g>
<g>
</g>
<g>
</g>
<g>
</g>
<g>
</g>
<g>
</g>
<g>
</g>
<g>
</g>
<g>
</g>
<g>
</g>
<g>
</g>
<g>
</g>
<g>
</g>
</svg>
