<?xml version="1.0" encoding="iso-8859-1"?>
<!-- Generator: Adobe Illustrator 19.0.0, SVG Export Plug-In . SVG Version: 6.00 Build 0)  -->
<svg version="1.1" id="Layer_1" xmlns="http://www.w3.org/2000/svg" xmlns:xlink="http://www.w3.org/1999/xlink" x="0px" y="0px"
	 viewBox="0 0 466.496 466.496" style="enable-background:new 0 0 466.496 466.496;" xml:space="preserve">
<g>
	<path style="fill:#008DB3;" d="M233.248,195.674c-2.762,0-5-2.239-5-5v-58.066c0-2.761,2.238-5,5-5s5,2.239,5,5v58.066
		C238.248,193.436,236.01,195.674,233.248,195.674z"/>
	<path style="fill:#76CDCE;" d="M288.211,237.307v29.91c0,6.67-10.79,12.51-26.9,15.68c-8.22,1.63-17.82,2.56-28.07,2.56
		c-15.18,0-28.92-2.04-38.86-5.34c-9.95-3.3-16.1-7.86-16.1-12.9v-29.91c0-6.07,8.94-11.45,22.68-14.76l0.01-0.01
		c9.06-2.18,20.21-3.47,32.27-3.47c15.18,0,28.93,2.04,38.87,5.34C282.061,227.707,288.211,232.268,288.211,237.307z"/>
	<path style="fill:#008DB3;" d="M316.822,338.888h-10v-5c0-10.929-8.891-19.82-19.819-19.82h-107.51
		c-10.929,0-19.82,8.891-19.82,19.82v5h-10v-5c0-16.443,13.377-29.82,29.82-29.82h107.51c16.442,0,29.819,13.377,29.819,29.82
		V338.888z"/>
	<path style="fill:#96E0DE;" d="M288.211,237.307v29.91c0,6.67-10.79,12.51-26.9,15.68l-60.35-60.35l0.01-0.01
		c9.06-2.18,20.21-3.47,32.27-3.47c15.18,0,28.93,2.04,38.87,5.34C282.061,227.707,288.211,232.268,288.211,237.307z"/>
	<path style="fill:#F4581B;" d="M272.111,224.408c9.95,3.3,16.1,7.86,16.1,12.9v-0.25c0-25.62-20.77-46.38-46.38-46.38h-17.17
		c-25.61,0-46.38,20.76-46.38,46.38v0.25c0-9.235,20.669-16.853,47.464-18.067v66.043c-12.179-0.551-23.09-2.42-31.364-5.167
		c-9.95-3.3-16.1-7.86-16.1-12.9v15.46c0,17.34,14.06,31.39,31.39,31.39h47.15c17.34,0,31.39-14.05,31.39-31.39v-15.46
		c0,9.234-20.666,16.852-47.466,18.066V219.24C252.923,219.792,263.839,221.66,272.111,224.408z"/>
	<path style="fill:#666666;" d="M458.996,154.328H7.5c-4.143,0-7.5-3.358-7.5-7.5s3.357-7.5,7.5-7.5h451.496
		c4.143,0,7.5,3.358,7.5,7.5S463.139,154.328,458.996,154.328z"/>
</g>
<g>
</g>
<g>
</g>
<g>
</g>
<g>
</g>
<g>
</g>
<g>
</g>
<g>
</g>
<g>
</g>
<g>
</g>
<g>
</g>
<g>
</g>
<g>
</g>
<g>
</g>
<g>
</g>
<g>
</g>
</svg>
