<?xml version="1.0" encoding="iso-8859-1"?>
<!-- Generator: Adobe Illustrator 19.0.0, SVG Export Plug-In . SVG Version: 6.00 Build 0)  -->
<svg version="1.1" id="Layer_1" xmlns="http://www.w3.org/2000/svg" xmlns:xlink="http://www.w3.org/1999/xlink" x="0px" y="0px"
	 viewBox="0 0 434.806 434.806" style="enable-background:new 0 0 434.806 434.806;" xml:space="preserve">
<g>
	<rect x="168.073" y="220.25" style="fill:#808080;" width="100" height="104"/>
	<rect x="187.406" y="83.639" style="fill:#808080;" width="60.997" height="135.277"/>
	<path style="fill:#B3B3B3;" d="M149.444,54.151l-0.31-6.15c-0.304-6.053-4.447-11.153-10.31-12.691l-18.286-4.796l2.537-9.673
		l18.286,4.796c10.099,2.649,17.236,11.434,17.761,21.861l0.31,6.15L149.444,54.151z"/>
	<path style="fill:#B3B3B3;" d="M285.361,54.151l-9.988-0.503l0.31-6.15c0.525-10.427,7.663-19.212,17.761-21.861l18.287-4.796
		l2.537,9.673l-18.287,4.796c-5.862,1.538-10.005,6.638-10.31,12.691L285.361,54.151z"/>
	<circle style="fill:#E6E6E6;" cx="107.436" cy="20.655" r="20.655"/>
	<circle style="fill:#E6E6E6;" cx="327.37" cy="20.655" r="20.655"/>
	<rect x="117.782" y="278.473" style="fill:#808080;" width="41.454" height="15"/>
	<rect x="275.573" y="278.473" style="fill:#808080;" width="41.454" height="15"/>
	<path style="fill:#E6E6E6;" d="M272.069,147.473H162.736c-4.143,0-7.5-3.358-7.5-7.5s3.357-7.5,7.5-7.5h109.333
		c4.143,0,7.5,3.358,7.5,7.5S276.212,147.473,272.069,147.473z"/>
	<path style="fill:#F15A24;" d="M234.073,57.503v-18.2c0-9.2-7.47-16.66-16.67-16.66s-16.67,7.46-16.67,16.66v18.2"/>
	<path style="fill:#E6E6E6;" d="M217.406,177.476c-1.98,0-3.91-0.8-5.311-2.2c-0.34-0.35-0.659-0.73-0.93-1.14
		c-0.27-0.41-0.5-0.84-0.69-1.3c-0.189-0.45-0.329-0.92-0.43-1.4c-0.09-0.48-0.14-0.97-0.14-1.46c0-1.98,0.8-3.91,2.189-5.31
		c1.74-1.74,4.341-2.54,6.771-2.05c0.479,0.1,0.95,0.24,1.399,0.43c0.46,0.19,0.891,0.42,1.301,0.69c0.409,0.27,0.79,0.59,1.14,0.93
		c1.4,1.4,2.2,3.33,2.2,5.31c0,0.49-0.05,0.98-0.15,1.46c-0.1,0.48-0.24,0.95-0.43,1.4c-0.19,0.46-0.42,0.89-0.69,1.3
		s-0.58,0.79-0.93,1.14s-0.73,0.66-1.14,0.93c-0.41,0.27-0.841,0.5-1.301,0.69c-0.449,0.19-0.92,0.33-1.399,0.43
		C218.386,177.426,217.886,177.476,217.406,177.476z"/>
	<g id="XMLID_13_">
		<g>
			<path style="fill:#808080;" d="M336.096,67.286l-6.71,13.42l-6.7-3.36c-6.78-3.39-14.12-6.51-21.95-9.33l5.39-13.99
				c8.28,2.98,16.05,6.3,23.26,9.9L336.096,67.286z"/>
			<path style="fill:#808080;" d="M303.866,45.976c2.58,0.99,3.86,3.88,2.87,6.46l-0.61,1.59c-3.09-1.12-6.24-2.2-9.47-3.23
				l0.75-1.95C298.396,46.266,301.286,44.976,303.866,45.976z"/>
			<path style="fill:#808080;" d="M306.126,54.026l-5.39,13.99c-3.08-1.11-6.24-2.18-9.48-3.19l5.4-14.03
				C299.886,51.826,303.036,52.906,306.126,54.026z"/>
			<path style="fill:#808080;" d="M300.736,68.016l-0.67,1.75c-0.76,1.99-2.66,3.21-4.66,3.21c-0.6,0-1.21-0.11-1.8-0.34
				c-2.58-0.99-3.86-3.88-2.87-6.46l0.52-1.35C294.496,65.836,297.656,66.906,300.736,68.016z"/>
			<path style="fill:#B3B3B3;" d="M296.656,50.796l-5.4,14.03c-3.51-1.11-7.12-2.16-10.8-3.15c-20.21-5.44-41.43-8.2-63.05-8.2
				c-21.63,0-42.84,2.76-63.06,8.2c-3.68,0.99-7.29,2.04-10.8,3.15l-5.39-14.03c4-1.27,8.09-2.47,12.29-3.6
				c21.49-5.79,44.02-8.72,66.96-8.72s45.47,2.93,66.96,8.72C288.566,48.326,292.656,49.526,296.656,50.796z"/>
			<path style="fill:#808080;" d="M144.066,66.176c1,2.58-0.29,5.47-2.87,6.46c-0.59,0.23-1.2,0.34-1.79,0.34
				c-2.01,0-3.91-1.22-4.67-3.21l-0.67-1.74c3.08-1.12,6.24-2.18,9.48-3.2L144.066,66.176z"/>
			<path style="fill:#808080;" d="M138.156,50.796l5.39,14.03c-3.24,1.02-6.4,2.08-9.48,3.2l-5.39-14
				C131.766,52.906,134.926,51.826,138.156,50.796z"/>
			<path style="fill:#808080;" d="M137.406,48.846l0.75,1.95c-3.23,1.03-6.39,2.11-9.48,3.23l-0.61-1.59
				c-0.99-2.58,0.3-5.47,2.88-6.46C133.516,44.986,136.416,46.266,137.406,48.846z"/>
			<path style="fill:#808080;" d="M128.676,54.026l5.39,14c-7.83,2.81-15.16,5.93-21.94,9.32l-6.71,3.36l-6.71-13.42l6.71-3.36
				C112.626,60.326,120.396,57.016,128.676,54.026z"/>
		</g>
	</g>
	<path style="fill:#B3B3B3;" d="M261.746,213.306v11h-3.41h-13.1c0-7.32-2.84-13.99-7.49-18.96v-98.3l5.59-40.4
		c10.56,2.51,18.41,12.01,18.41,23.33L261.746,213.306L261.746,213.306z"/>
	<path style="fill:#666666;" d="M245.236,336.646v70.33c0,15.34-12.49,27.83-27.83,27.83c-15.35,0-27.84-12.49-27.84-27.83v-70.33
		v-21.01v-91.33h7.51v-18.98c5.07-5.44,12.31-8.85,20.33-8.85s15.27,3.41,20.34,8.87v18.96h7.49v91.33V336.646z"/>
	<path style="fill:#666666;" d="M245.236,224.306h-7.49v-18.96C242.396,210.316,245.236,216.986,245.236,224.306z"/>
	<path style="fill:#666666;" d="M197.076,205.326v18.98h-7.51C189.566,216.976,192.416,210.306,197.076,205.326z"/>
	<path style="fill:#B3B3B3;" d="M197.076,107.046v98.28c-4.66,4.98-7.51,11.65-7.51,18.98h-13.1h-3.39v-11V89.976
		c0-11.32,7.84-20.82,18.4-23.33L197.076,107.046z"/>
	<path style="fill:#F15A24;" d="M250.406,229.493c0,0-0.023,55.424-0.052,55.424h-65.906c-0.029,0-0.052-55.424-0.052-55.424
		c0-18.228,14.777-33.005,33.005-33.005l0,0C235.63,196.488,250.406,211.265,250.406,229.493z"/>
	<g>
		<circle style="fill:#F7CF52;" cx="217.403" cy="83.64" r="31"/>
		<path style="fill:#F15A24;" d="M217.403,121.64c-20.953,0-38-17.047-38-38s17.047-38,38-38s38,17.047,38,38
			S238.357,121.64,217.403,121.64z M217.403,56.195c-15.133,0-27.444,12.312-27.444,27.444s12.311,27.444,27.444,27.444
			s27.444-12.312,27.444-27.444S232.537,56.195,217.403,56.195z"/>
	</g>
	<path style="fill:#999999;" d="M176.466,315.636v-102.33h-9.34c-8.5,0-15.39,6.89-15.39,15.39v92.56c0,8.5,6.89,15.39,15.39,15.39
		h22.44v-21.01H176.466z"/>
	<path style="fill:#999999;" d="M267.686,213.306h-9.35v102.33h-13.1v21.01h22.45c8.5,0,15.39-6.89,15.39-15.39v-92.56
		C283.076,220.196,276.186,213.306,267.686,213.306z"/>
</g>
<g>
</g>
<g>
</g>
<g>
</g>
<g>
</g>
<g>
</g>
<g>
</g>
<g>
</g>
<g>
</g>
<g>
</g>
<g>
</g>
<g>
</g>
<g>
</g>
<g>
</g>
<g>
</g>
<g>
</g>
</svg>
