<?xml version="1.0" encoding="iso-8859-1"?>
<!-- Generator: Adobe Illustrator 19.0.0, SVG Export Plug-In . SVG Version: 6.00 Build 0)  -->
<svg version="1.1" id="Layer_1" xmlns="http://www.w3.org/2000/svg" xmlns:xlink="http://www.w3.org/1999/xlink" x="0px" y="0px"
	 viewBox="0 0 399.499 399.499" style="enable-background:new 0 0 399.499 399.499;" xml:space="preserve">
<g>
	<polygon style="fill:#008DB3;" points="205.249,35.499 323.25,255.499 205.249,255.499 	"/>
	<path style="fill:#DDB74B;" d="M212.746,308.343h-15V7.5c0-4.142,3.358-7.5,7.5-7.5l0,0c4.142,0,7.5,3.358,7.5,7.5V308.343z"/>
	<polygon style="fill:#008DB3;" points="182.869,7.499 182.869,263.499 45.559,263.499 	"/>
	<polygon style="fill:#F4581B;" points="277.799,298.319 285.289,322.269 103.329,333.039 103.16,330.169 103.16,308.659 	"/>
	<polygon style="fill:#F7CF52;" points="360.25,317.829 307.909,399.499 59.909,399.499 39.249,336.829 103.329,333.039 
		285.289,322.269 	"/>
	<path style="fill:#DDB74B;" d="M148.643,359.863c-3.939,0-7.244-3.073-7.48-7.057c-0.244-4.135,2.909-7.686,7.044-7.93
		l143.142-8.473c4.178-0.243,7.685,2.909,7.931,7.043c0.244,4.135-2.909,7.686-7.044,7.93l-143.142,8.473
		C148.942,359.859,148.792,359.863,148.643,359.863z"/>
	<path style="fill:#DDB74B;" d="M314.458,349.709c-0.49,0-0.98-0.05-1.47-0.15c-0.471-0.09-0.95-0.24-1.4-0.42
		c-0.45-0.19-0.89-0.42-1.29-0.69c-0.41-0.28-0.8-0.59-1.14-0.94c-0.351-0.34-0.66-0.73-0.931-1.14c-0.279-0.4-0.51-0.84-0.689-1.29
		c-0.19-0.45-0.34-0.93-0.431-1.4c-0.1-0.49-0.149-0.98-0.149-1.47s0.05-0.98,0.149-1.46c0.091-0.48,0.24-0.96,0.431-1.41
		c0.18-0.45,0.41-0.89,0.689-1.29c0.271-0.41,0.58-0.8,0.931-1.14c0.34-0.35,0.729-0.66,1.14-0.94c0.4-0.27,0.84-0.5,1.29-0.69
		c0.45-0.18,0.93-0.33,1.4-0.42c0.97-0.2,1.97-0.2,2.939,0c0.47,0.09,0.95,0.24,1.4,0.42c0.45,0.19,0.89,0.42,1.29,0.69
		c0.41,0.28,0.8,0.59,1.14,0.94c0.35,0.34,0.66,0.73,0.94,1.14c0.27,0.4,0.5,0.84,0.689,1.29c0.18,0.45,0.33,0.93,0.42,1.41
		c0.101,0.48,0.15,0.97,0.15,1.46s-0.05,0.98-0.15,1.47c-0.09,0.47-0.24,0.95-0.42,1.4c-0.189,0.45-0.42,0.89-0.689,1.29
		c-0.28,0.41-0.591,0.8-0.94,1.14c-0.34,0.35-0.729,0.66-1.14,0.94c-0.4,0.27-0.84,0.5-1.29,0.69c-0.45,0.18-0.931,0.33-1.4,0.42
		C315.438,349.659,314.95,349.709,314.458,349.709z"/>
</g>
<g>
</g>
<g>
</g>
<g>
</g>
<g>
</g>
<g>
</g>
<g>
</g>
<g>
</g>
<g>
</g>
<g>
</g>
<g>
</g>
<g>
</g>
<g>
</g>
<g>
</g>
<g>
</g>
<g>
</g>
</svg>
