<?xml version="1.0" encoding="iso-8859-1"?>
<!-- Generator: Adobe Illustrator 19.0.0, SVG Export Plug-In . SVG Version: 6.00 Build 0)  -->
<svg version="1.1" id="Layer_1" xmlns="http://www.w3.org/2000/svg" xmlns:xlink="http://www.w3.org/1999/xlink" x="0px" y="0px"
	 viewBox="0 0 400.524 400.524" style="enable-background:new 0 0 400.524 400.524;" xml:space="preserve">
<g>
	<path style="fill:#D84519;" d="M279.457,56.99h-158.38l5.56-30c0.61-3.26,3.45-5.63,6.77-5.63h22.45l3.97-16.13
		c0.76-3.07,3.51-5.23,6.68-5.23h67.51c3.17,0,5.93,2.16,6.68,5.23l3.97,16.13h22.46c3.31,0,6.16,2.37,6.76,5.63L279.457,56.99z"/>
	<path style="fill:#F4581B;" d="M335.127,95.48v235.95c0,5.18-4.2,9.38-9.38,9.38H74.777c-5.18,0-9.38-4.2-9.38-9.38V95.48
		c0-21.26,17.23-38.49,38.49-38.49h17.19h158.38h17.19C317.897,56.99,335.127,74.22,335.127,95.48z M313.127,256.48v-26.99h-31.86
		c-7.46,0-14.2,3.02-19.09,7.9c-4.89,4.89-7.91,11.64-7.91,19.09H313.127z M313.127,205.49V97.96c0-10.47-8.49-18.97-18.97-18.97
		h-82.89v126.5L313.127,205.49L313.127,205.49z M189.267,205.49V78.99h-82.9c-10.48,0-18.97,8.5-18.97,18.97v107.53L189.267,205.49
		L189.267,205.49z M87.397,256.48h58.86c0-14.91-12.09-26.99-27-26.99h-31.86V256.48z"/>
	<path style="fill:#FFFFFF;" d="M313.127,229.49v26.99h-58.86c0-7.45,3.02-14.2,7.91-19.09c4.89-4.88,11.63-7.9,19.09-7.9
		L313.127,229.49L313.127,229.49z"/>
	<path style="fill:#76CDCE;" d="M313.127,97.96v107.53h-101.86V78.99h82.89C304.637,78.99,313.127,87.49,313.127,97.96z"/>
	<path style="fill:#76CDCE;" d="M189.267,78.99v126.5H87.397V97.96c0-2.46,0.47-4.81,1.33-6.97c2.77-7.03,9.62-12,17.64-12H189.267z
		"/>
	<path style="fill:#FFFFFF;" d="M146.257,256.48h-58.86v-26.99h31.86C134.167,229.49,146.257,241.57,146.257,256.48z"/>
	<rect x="94.052" y="361.228" style="fill:#B3B3B3;" width="212.302" height="21"/>
	<polyline style="fill:#CCCCCC;" points="116.168,340.808 93.733,400.524 66.043,400.524 94.309,340.808 	"/>
	<polyline style="fill:#CCCCCC;" points="284.36,340.808 306.795,400.524 334.485,400.524 306.219,340.808 	"/>
	<rect x="174.765" y="19.496" style="fill:#FFFFFF;" width="50.999" height="15"/>
	<rect x="107.751" y="278.983" style="fill:#D84519;" width="185.027" height="15"/>
	<rect x="107.751" y="307.596" style="fill:#D84519;" width="185.027" height="15"/>
	<polygon style="fill:#96E0DE;" points="119.877,78.99 189.267,78.99 189.267,148.38 	"/>
	<path style="fill:#96E0DE;" d="M313.127,97.96v107.53h-66.76l-35.1-35.1v-91.4h82.89C304.637,78.99,313.127,87.49,313.127,97.96z"
		/>
</g>
<g>
</g>
<g>
</g>
<g>
</g>
<g>
</g>
<g>
</g>
<g>
</g>
<g>
</g>
<g>
</g>
<g>
</g>
<g>
</g>
<g>
</g>
<g>
</g>
<g>
</g>
<g>
</g>
<g>
</g>
</svg>
