<?xml version="1.0" encoding="iso-8859-1"?>
<!-- Generator: Adobe Illustrator 19.0.0, SVG Export Plug-In . SVG Version: 6.00 Build 0)  -->
<svg version="1.1" id="Layer_1" xmlns="http://www.w3.org/2000/svg" xmlns:xlink="http://www.w3.org/1999/xlink" x="0px" y="0px"
	 viewBox="0 0 434.366 434.366" style="enable-background:new 0 0 434.366 434.366;" xml:space="preserve">
<g>
	<rect x="110.972" y="394.176" style="fill:#B3B3B3;" width="212.302" height="21"/>
	<polygon style="fill:#CCCCCC;" points="110.653,434.366 133.088,374.65 111.229,372.35 82.963,434.366 	"/>
	<polygon style="fill:#CCCCCC;" points="323.715,434.366 301.28,374.65 323.139,372.35 351.405,434.366 	"/>
	<path style="fill:#666666;" d="M112.945,41.93c-2.679,0-5.271-1.439-6.622-3.968c-1.952-3.653-0.572-8.197,3.082-10.149
		c67.721-36.175,148.266-37.114,215.457-2.512c3.683,1.896,5.13,6.419,3.234,10.101s-6.418,5.132-10.102,3.234
		C255.183,6.29,179.847,7.19,116.473,41.044C115.348,41.645,114.138,41.93,112.945,41.93z"/>
	<path style="fill:#666666;" d="M248.419,105.843h-61.22c-3.531,0-6.584-2.463-7.331-5.914l-18.37-84.91l14.661-3.172l17.09,78.996
		h49.118l17.281-79.886l14.661,3.171l-18.56,85.8C255.003,103.379,251.95,105.843,248.419,105.843z"/>
	<path style="fill:#F7CF52;" d="M300.095,90.833H134.272c-20.322,0-37.967,13.999-42.589,33.788L67.902,226.44
		c-1.982,8.487-2.056,17.308-0.217,25.827l20.814,96.409c3.272,15.156,16.675,25.974,32.18,25.974h193.009
		c15.505,0,28.908-10.819,32.18-25.974l20.814-96.409c1.839-8.519,1.765-17.34-0.217-25.827l-23.781-101.818
		C338.063,104.832,320.418,90.833,300.095,90.833z"/>
	<path style="fill:#96E0DE;" d="M313.687,239.519h-193c-16.99,0-29.55-15.83-25.69-32.37l17.5-74.92
		c2.65-11.36,12.78-19.4,24.45-19.4h160.47c11.67,0,21.8,8.04,24.45,19.4l17.5,74.92
		C343.227,223.689,330.677,239.519,313.687,239.519z"/>
	<g>
		<circle style="fill:#FFFFFF;" cx="131.496" cy="318.46" r="22.625"/>
		<circle style="fill:#FFFFFF;" cx="302.871" cy="318.46" r="22.625"/>
	</g>
	<path style="fill:#76CDCE;" d="M290.937,239.519h-170.25c-16.99,0-29.55-15.83-25.69-32.37l17.5-74.92
		c2.65-11.36,12.78-19.4,24.45-19.4h27.3L290.937,239.519z"/>
	<path style="fill:#037893;" d="M217.184,158.039L217.184,158.039c-17.121,0-31-13.879-31-31v-14.206h62v14.206
		C248.184,144.16,234.305,158.039,217.184,158.039z"/>
</g>
<g>
</g>
<g>
</g>
<g>
</g>
<g>
</g>
<g>
</g>
<g>
</g>
<g>
</g>
<g>
</g>
<g>
</g>
<g>
</g>
<g>
</g>
<g>
</g>
<g>
</g>
<g>
</g>
<g>
</g>
</svg>
