<?xml version="1.0" encoding="iso-8859-1"?>
<!-- Generator: Adobe Illustrator 19.0.0, SVG Export Plug-In . SVG Version: 6.00 Build 0)  -->
<svg version="1.1" id="Layer_1" xmlns="http://www.w3.org/2000/svg" xmlns:xlink="http://www.w3.org/1999/xlink" x="0px" y="0px"
	 viewBox="0 0 381.5 381.5" style="enable-background:new 0 0 381.5 381.5;" xml:space="preserve">
<g>
	<path style="fill:#F4581B;" d="M373.03,11.959V335.23h-21.89h-1.79v-28.91v-31.47v-38.1v-67.88L331.42,59.45H50.08L32.14,168.87
		v67.88v38.1v31.47v28.91h-1.78H8.47V11.959C8.47,5.354,13.824,0,20.429,0h340.643C367.676,0,373.03,5.354,373.03,11.959z"/>
	<path style="fill:#666666;" d="M349.265,335.23v37.37c0,4.92-3.99,8.9-8.9,8.9h-52.87c-4.92,0-8.9-3.98-8.9-8.9v-37.37h68.88
		H349.265z"/>
	<path style="fill:#CCCCCC;" d="M361.75,320.775L361.75,320.775c0,7.983-6.472,14.455-14.455,14.455h-59.81h-32.938H141.715H94.016
		H34.195c-7.983,0-14.455-6.472-14.455-14.455l0,0c0-7.983,6.472-14.455,14.455-14.455h313.1
		C355.278,306.32,361.75,312.792,361.75,320.775z"/>
	<path style="fill:#999999;" d="M349.35,274.85v31.47H32.14v-31.47h23.42h33.97c7.46,0,13.5-6.04,13.5-13.5v-11.1
		c0-7.46-6.04-13.5-13.5-13.5H55.56H32.14v-67.88L50.08,59.45h281.34l17.93,109.42v67.88h-23.42h-33.97c-7.45,0-13.5,6.04-13.5,13.5
		v11.1c0,7.46,6.05,13.5,13.5,13.5h33.97H349.35z M327.07,168.88l-14.34-87.42H68.77l-14.34,87.42H327.07z"/>
	<rect x="325.93" y="236.75" style="fill:#F7CF52;" width="23.42" height="38.1"/>
	<polygon style="fill:#76CDCE;" points="312.73,81.46 327.07,168.88 54.43,168.88 68.77,81.46 	"/>
	<path style="fill:#FFFFFF;" d="M325.93,236.75v38.1h-33.97c-7.45,0-13.5-6.04-13.5-13.5v-11.1c0-7.46,6.05-13.5,13.5-13.5H325.93z"
		/>
	<path style="fill:#4D4D4D;" d="M249.92,335.23v4.53c0,11-8.92,19.92-19.92,19.92h-64.8c-11.01,0-19.93-8.92-19.93-19.92v-4.53
		H249.92z"/>
	<path style="fill:#FFFFFF;" d="M103.03,250.25v11.1c0,7.46-6.04,13.5-13.5,13.5H55.56v-38.1h33.97
		C96.99,236.75,103.03,242.79,103.03,250.25z"/>
	<path style="fill:#666666;" d="M102.81,335.23v37.37c0,4.92-3.99,8.9-8.9,8.9H41.04c-4.92,0-8.9-3.98-8.9-8.9v-37.37h1.78H102.81z"
		/>
	<rect x="32.14" y="236.75" style="fill:#F7CF52;" width="23.42" height="38.1"/>
	<polygon style="fill:#96E0DE;" points="140.75,81.46 228.46,169.17 327.07,169.17 312.73,81.46 	"/>
</g>
<g>
</g>
<g>
</g>
<g>
</g>
<g>
</g>
<g>
</g>
<g>
</g>
<g>
</g>
<g>
</g>
<g>
</g>
<g>
</g>
<g>
</g>
<g>
</g>
<g>
</g>
<g>
</g>
<g>
</g>
</svg>
