<?xml version="1.0" encoding="iso-8859-1"?>
<!-- Generator: Adobe Illustrator 19.0.0, SVG Export Plug-In . SVG Version: 6.00 Build 0)  -->
<svg version="1.1" id="Capa_1" xmlns="http://www.w3.org/2000/svg" xmlns:xlink="http://www.w3.org/1999/xlink" x="0px" y="0px"
	 viewBox="0 0 511.998 511.998" style="enable-background:new 0 0 511.998 511.998;" xml:space="preserve">
<g>
	<path style="fill:#F27524;" d="M505.454,153.138h-15.176h-7.081H296.404h-48.008h-69.392h-48.007H61.604h-6.197H37.6
		c-3.615,0-6.546,2.931-6.546,6.546v31.423c0,3.616,2.931,6.546,6.546,6.546h17.807h6.197h69.392h48.007h69.392h48.008h186.792
		h7.081h15.176c3.615,0,6.546-2.931,6.546-6.546v-31.423C512,156.069,509.069,153.138,505.454,153.138z"/>
	<path style="fill:#F27524;" d="M505.454,296.521h-15.176h-7.081h-69.392h-48.007H179.004h-48.007H61.604h-6.197H37.6
		c-3.615,0-6.546,2.931-6.546,6.547v31.423c0,3.615,2.931,6.547,6.546,6.547h17.807h6.197h69.392h48.007h186.793h48.007h69.392
		h7.081h15.176c3.615,0,6.546-2.931,6.546-6.547v-31.423C512,299.452,509.069,296.521,505.454,296.521z"/>
</g>
<g>
	<path style="fill:#EC5123;" d="M505.454,177.158h-15.176h-7.081H296.404h-48.008h-69.392h-48.007H61.604h-6.197H37.6
		c-3.615,0-6.546-2.931-6.546-6.546v20.496c0,3.616,2.931,6.546,6.546,6.546h17.807h6.197h69.392h48.007h69.392h48.008h186.792
		h7.081h15.176c3.615,0,6.546-2.931,6.546-6.546v-20.496C512,174.227,509.069,177.158,505.454,177.158z"/>
	<path style="fill:#EC5123;" d="M505.454,320.541h-15.176h-7.081h-69.392h-48.007H179.004h-48.007H61.604h-6.197H37.6
		c-3.615,0-6.546-2.931-6.546-6.546v20.496c0,3.615,2.931,6.547,6.546,6.547h17.807h6.197h69.392h48.007h186.793h48.007h69.392
		h7.081h15.176c3.615,0,6.546-2.931,6.546-6.547v-20.496C512,317.609,509.069,320.541,505.454,320.541z"/>
</g>
<path style="fill:#F99A25;" d="M478.562,98.49l-27.271-31.558c-1.471-1.703-4.112-1.703-5.583,0L419.22,97.583
	c-3.494,4.044-5.417,9.209-5.417,14.554v2.03v325.736v2.03h69.392v-2.03V112.969v-2.03
	C483.196,106.368,481.551,101.949,478.562,98.49z"/>
<path style="fill:#F27524;" d="M434.102,114.167v-2.03c0-5.344,1.923-10.51,5.417-14.554l19.13-22.138l-7.358-8.514
	c-1.471-1.703-4.112-1.703-5.583,0L419.22,97.583c-3.494,4.044-5.417,9.209-5.417,14.554v2.03v325.736v2.03h20.299v-2.03
	L434.102,114.167L434.102,114.167z"/>
<path style="fill:#F99A25;" d="M333.892,66.931c-1.472-1.703-4.112-1.703-5.583,0l-26.488,30.652
	c-3.494,4.044-5.417,9.209-5.417,14.554v2.03v325.736v2.03h69.392v-2.03V112.969v-2.03c0-4.572-1.645-8.991-4.634-12.45
	L333.892,66.931z"/>
<path style="fill:#F27524;" d="M316.758,114.167v-2.03c0-5.344,1.923-10.51,5.417-14.554l19.102-22.105l-7.386-8.547
	c-1.472-1.703-4.112-1.703-5.583,0L301.82,97.583c-3.494,4.044-5.417,9.209-5.417,14.554v2.03v325.736v2.03h20.355v-2.03V114.167z"
	/>
<path style="fill:#F99A25;" d="M216.492,66.931c-1.472-1.703-4.112-1.703-5.583,0l-26.488,30.652
	c-3.494,4.044-5.417,9.209-5.417,14.554v2.03v236.435v2.03c23.047,6.089,42.221,21.708,53.038,42.395
	c4.133-1.068,8.467-1.639,12.933-1.639c1.151,0,2.289,0.051,3.421,0.126v-2.03V112.969v-2.03c0-4.572-1.645-8.991-4.634-12.45
	L216.492,66.931z"/>
<path style="fill:#F27524;" d="M199.415,352.632v-2.03V180.347v-2.03v-64.15v-2.03c0-5.344,1.923-10.51,5.417-14.554l19.074-22.073
	l-7.414-8.579c-1.472-1.703-4.112-1.703-5.583,0l-26.488,30.652c-3.494,4.044-5.417,9.209-5.417,14.554v2.03v236.435v2.03
	c7.232,1.911,14.08,4.761,20.411,8.41V352.632z"/>
<path style="fill:#F99A25;" d="M99.092,65.76c-1.472-1.703-4.112-1.703-5.584,0L67.022,96.412
	c-3.494,4.044-5.417,9.209-5.417,14.554v2.03v277.88v2.03c2.724-0.445,5.514-0.689,8.364-0.689c4.467,0,8.8,0.57,12.933,1.639
	c10.035-19.19,27.258-34.022,48.095-40.93v-2.03V111.798v-2.03c0-4.572-1.645-8.991-4.634-12.45L99.092,65.76z"/>
<path style="fill:#F27524;" d="M82.128,392.906v-2.03v-277.88v-2.03c0-5.344,1.923-10.51,5.417-14.554l19.017-22.008l-7.47-8.644
	c-1.472-1.703-4.112-1.703-5.584,0L67.022,96.412c-3.494,4.044-5.417,9.209-5.417,14.554v2.03v277.88v2.03
	c2.724-0.445,5.514-0.689,8.364-0.689c4.467,0,8.8,0.57,12.933,1.639c0.204-0.39,0.429-0.766,0.639-1.153
	C83.068,392.767,82.596,392.83,82.128,392.906z"/>
<g>
	<path style="fill:#971D2E;" d="M96.3,183.008c-4.204,0-7.612-3.408-7.612-7.612v-8.599c0-4.204,3.408-7.612,7.612-7.612
		s7.612,3.408,7.612,7.612v8.599C103.912,179.6,100.504,183.008,96.3,183.008z"/>
	<path style="fill:#971D2E;" d="M96.3,330.69c-4.204,0-7.612-3.408-7.612-7.612v-8.599c0-4.204,3.408-7.612,7.612-7.612
		s7.612,3.408,7.612,7.612v8.599C103.912,327.282,100.504,330.69,96.3,330.69z"/>
	<path style="fill:#971D2E;" d="M213.7,183.008c-4.204,0-7.612-3.408-7.612-7.612v-8.599c0-4.204,3.408-7.612,7.612-7.612
		s7.612,3.408,7.612,7.612v8.599C221.312,179.6,217.904,183.008,213.7,183.008z"/>
	<path style="fill:#971D2E;" d="M213.7,330.69c-4.204,0-7.612-3.408-7.612-7.612v-8.599c0-4.204,3.408-7.612,7.612-7.612
		s7.612,3.408,7.612,7.612v8.599C221.312,327.282,217.904,330.69,213.7,330.69z"/>
	<path style="fill:#971D2E;" d="M331.1,183.008c-4.204,0-7.612-3.408-7.612-7.612v-8.599c0-4.204,3.408-7.612,7.612-7.612
		s7.612,3.408,7.612,7.612v8.599C338.712,179.6,335.304,183.008,331.1,183.008z"/>
	<path style="fill:#971D2E;" d="M331.1,330.69c-4.204,0-7.612-3.408-7.612-7.612v-8.599c0-4.204,3.408-7.612,7.612-7.612
		s7.612,3.408,7.612,7.612v8.599C338.712,327.282,335.304,330.69,331.1,330.69z"/>
	<path style="fill:#971D2E;" d="M448.499,183.008c-4.204,0-7.612-3.408-7.612-7.612v-8.599c0-4.204,3.408-7.612,7.612-7.612
		s7.612,3.408,7.612,7.612v8.599C456.111,179.6,452.703,183.008,448.499,183.008z"/>
	<path style="fill:#971D2E;" d="M448.499,330.69c-4.204,0-7.612-3.408-7.612-7.612v-8.599c0-4.204,3.408-7.612,7.612-7.612
		s7.612,3.408,7.612,7.612v8.599C456.111,327.282,452.703,330.69,448.499,330.69z"/>
</g>
<path style="fill:#CC905E;" d="M157.472,347.808c-31.392,0-58.762,17.202-73.21,42.692c-0.823,1.452-2.488,2.191-4.125,1.864
	c-3.287-0.659-6.688-1.005-10.169-1.005c-27.455,0-49.886,21.477-51.428,48.545h277.863c-1.542-27.068-23.974-48.545-51.428-48.545
	c-3.378,0-6.679,0.326-9.875,0.947c-1.813,0.352-3.649-0.461-4.566-2.065C216.048,364.893,188.757,347.808,157.472,347.808z"/>
<g>
	<path style="fill:#BA7958;" d="M92.632,391.358c3.481,0,6.881,0.346,10.169,1.005c1.636,0.328,3.302-0.412,4.125-1.864
		c12.68-22.37,35.313-38.353,61.881-41.931c-3.707-0.5-7.49-0.76-11.334-0.76c-31.392,0-58.762,17.202-73.21,42.691
		c-0.823,1.452-2.488,2.191-4.125,1.864c-3.287-0.659-6.688-1.005-10.169-1.005c-27.455,0-49.886,21.477-51.428,48.545h22.663
		C42.745,412.835,65.177,391.358,92.632,391.358z"/>
	<path style="fill:#BA7958;" d="M492.361,447.515H7.612c-4.204,0-7.612-3.408-7.612-7.612s3.408-7.612,7.612-7.612h484.749
		c4.204,0,7.612,3.408,7.612,7.612S496.565,447.515,492.361,447.515z"/>
</g>
<g>
</g>
<g>
</g>
<g>
</g>
<g>
</g>
<g>
</g>
<g>
</g>
<g>
</g>
<g>
</g>
<g>
</g>
<g>
</g>
<g>
</g>
<g>
</g>
<g>
</g>
<g>
</g>
<g>
</g>
</svg>
