<?xml version="1.0" encoding="iso-8859-1"?>
<!-- Generator: Adobe Illustrator 19.0.0, SVG Export Plug-In . SVG Version: 6.00 Build 0)  -->
<svg version="1.1" id="Capa_1" xmlns="http://www.w3.org/2000/svg" xmlns:xlink="http://www.w3.org/1999/xlink" x="0px" y="0px"
	 viewBox="0 0 512 512" style="enable-background:new 0 0 512 512;" xml:space="preserve">
<path style="fill:#F9AF6E;" d="M511.735,455.828L447.94,77.83L346.37,477.614h146.949
	C504.875,477.614,513.659,467.224,511.735,455.828z"/>
<path style="fill:#F59249;" d="M447.94,77.83L346.37,477.614h28.847l88.72-88.72c2.951-2.951,4.608-6.952,4.608-11.125V199.918
	L447.94,77.83z"/>
<path style="fill:#FFE9B7;" d="M447.94,376.044V77.83c0-6.728-5.454-12.183-12.183-12.183H12.183C5.455,65.647,0,71.102,0,77.83
	v400.147c0,6.728,5.455,12.182,12.183,12.182h321.642L447.94,376.044z"/>
<g>
	<path style="fill:#FFD46E;" d="M20.605,477.977V77.83c0-6.728,5.455-12.183,12.183-12.183H12.183C5.455,65.647,0,71.102,0,77.83
		v400.147c0,6.728,5.455,12.182,12.183,12.182h20.605C26.06,490.159,20.605,484.705,20.605,477.977z"/>
	<path style="fill:#FFD46E;" d="M447.94,376.044H346.007c-6.728,0-12.183,5.454-12.183,12.182v101.933L447.94,376.044z"/>
</g>
<path style="fill:#F9AF6E;" d="M354.43,388.226c0-6.728,5.454-12.182,12.183-12.182h-20.605c-6.729,0-12.183,5.454-12.183,12.182
	v101.933l20.605-20.605V388.226z"/>
<path style="fill:#F446AC;" d="M435.757,65.647H12.183C5.455,65.647,0,71.102,0,77.83v73.095h447.94V77.83
	C447.94,71.102,442.486,65.647,435.757,65.647z"/>
<path style="fill:#F21897;" d="M20.605,77.83c0-6.728,5.455-12.183,12.183-12.183H12.183c-0.421,0-0.836,0.021-1.246,0.063
	c-0.819,0.083-1.614,0.247-2.377,0.485c-0.381,0.118-0.755,0.256-1.119,0.409c-3.279,1.387-5.825,4.17-6.893,7.603
	C0.192,75.351,0,76.568,0,77.83v73.095h20.605V77.83z"/>
<g>
	<path style="fill:#B72391;" d="M68.878,109.453c-4.267,0-7.727-3.459-7.727-7.727V29.568c0-4.267,3.459-7.727,7.727-7.727
		s7.727,3.459,7.727,7.727v72.158C76.604,105.993,73.145,109.453,68.878,109.453z"/>
	<path style="fill:#B72391;" d="M146.424,109.453c-4.267,0-7.727-3.459-7.727-7.727V29.568c0-4.267,3.459-7.727,7.727-7.727
		c4.267,0,7.727,3.459,7.727,7.727v72.158C154.151,105.993,150.691,109.453,146.424,109.453z"/>
	<path style="fill:#B72391;" d="M223.97,109.453c-4.267,0-7.727-3.459-7.727-7.727V29.568c0-4.267,3.459-7.727,7.727-7.727
		s7.727,3.459,7.727,7.727v72.158C231.697,105.993,228.237,109.453,223.97,109.453z"/>
	<path style="fill:#B72391;" d="M301.516,109.453c-4.267,0-7.727-3.459-7.727-7.727V29.568c0-4.267,3.459-7.727,7.727-7.727
		s7.727,3.459,7.727,7.727v72.158C309.243,105.993,305.784,109.453,301.516,109.453z"/>
	<path style="fill:#B72391;" d="M379.062,109.453c-4.267,0-7.727-3.459-7.727-7.727V29.568c0-4.267,3.459-7.727,7.727-7.727
		c4.267,0,7.727,3.459,7.727,7.727v72.158C386.789,105.993,383.33,109.453,379.062,109.453z"/>
</g>
<path style="fill:#8DCE55;" d="M278.929,282.792c-11.434,0-21.561,2.231-30.203,5.422c-1.634,0.603-3.238-1.001-2.634-2.634
	c3.191-8.642,5.422-18.769,5.422-30.203c0-15.274-12.432-27.644-27.729-27.544c-15.216,0.1-27.534,13.364-27.354,28.58
	c0.127,10.8,2.237,20.414,5.237,28.687c0.663,1.829-1.116,3.598-2.944,2.935c-8.534-3.095-18.494-5.243-29.713-5.243
	c-15.274,0-27.645,12.432-27.544,27.729c0.1,15.215,13.364,27.533,28.579,27.354c11.17-0.132,21.073-2.384,29.534-5.548
	c1.512-0.565,2.965,0.888,2.4,2.4c-3.165,8.461-5.417,18.363-5.549,29.533c-0.179,15.215,12.138,28.479,27.354,28.579
	c15.297,0.1,27.73-12.27,27.73-27.544c0-11.41-2.222-21.518-5.402-30.148c-0.608-1.65,1.01-3.275,2.66-2.667
	c8.37,3.084,18.133,5.267,29.122,5.396c15.215,0.179,28.48-12.138,28.579-27.354C306.574,295.224,294.203,282.792,278.929,282.792z"
	/>
<g>
	<path style="fill:#6DC82A;" d="M164.454,310.495c-0.096-13.293,11.26-24.193,25.647-25.082c-6.417-1.612-13.454-2.622-21.09-2.622
		c-15.274,0-27.645,12.432-27.544,27.729c0.1,15.215,13.364,27.533,28.579,27.354c7.326-0.087,14.094-1.096,20.28-2.666
		C176.278,334.116,164.547,323.469,164.454,310.495z"/>
	<path style="fill:#6DC82A;" d="M201.798,285.869c7.29,0.752,13.956,2.274,19.913,4.233c1.829,0.602,3.607-1.004,2.944-2.662
		c-3-7.503-5.11-16.222-5.237-26.016c-0.165-12.728,10.304-23.942,23.87-25.678c-5.012-4.933-11.903-7.964-19.504-7.914
		c-15.216,0.1-27.533,13.364-27.354,28.58c0.128,10.8,2.237,20.414,5.238,28.687C201.762,285.36,201.796,285.617,201.798,285.869z"
		/>
	<path style="fill:#6DC82A;" d="M219.417,359.23c0.132-10.13,2.384-19.11,5.549-26.783c0.565-1.371-0.888-2.689-2.4-2.177
		c-6.13,2.08-13.027,3.712-20.605,4.506c-3.155,8.45-5.399,18.335-5.531,29.483c-0.179,15.215,12.138,28.479,27.354,28.579
		c7.608,0.05,14.505-2.986,19.519-7.929C229.729,383.18,219.252,371.962,219.417,359.23z"/>
</g>
<g>
</g>
<g>
</g>
<g>
</g>
<g>
</g>
<g>
</g>
<g>
</g>
<g>
</g>
<g>
</g>
<g>
</g>
<g>
</g>
<g>
</g>
<g>
</g>
<g>
</g>
<g>
</g>
<g>
</g>
</svg>
