<?xml version="1.0" encoding="iso-8859-1"?>
<!-- Generator: Adobe Illustrator 19.0.0, SVG Export Plug-In . SVG Version: 6.00 Build 0)  -->
<svg version="1.1" id="Capa_1" xmlns="http://www.w3.org/2000/svg" xmlns:xlink="http://www.w3.org/1999/xlink" x="0px" y="0px"
	 viewBox="0 0 512 512" style="enable-background:new 0 0 512 512;" xml:space="preserve">
<path style="fill:#F27524;" d="M35.519,282.55l43.033,172.961c5.563,22.095,25.432,37.581,48.216,37.581
	c11.337,0,247.126,0,258.464,0c22.784,0,42.653-15.486,48.216-37.581l43.033-172.961H35.519z"/>
<path style="fill:#EC5123;" d="M101.215,455.511L58.182,282.55H35.519l43.033,172.961c5.563,22.095,25.432,37.581,48.216,37.581
	h22.663C126.648,493.092,106.779,477.606,101.215,455.511z"/>
<path style="fill:#BABABA;" d="M464.982,243.34c-4.267,0-7.726-3.459-7.726-7.726c0-110.972-90.283-201.255-201.256-201.255
	S54.744,124.642,54.744,235.615c0,4.267-3.459,7.726-7.726,7.726s-7.726-3.459-7.726-7.726
	c0-119.493,97.215-216.708,216.708-216.708s216.708,97.215,216.708,216.708C472.708,239.881,469.249,243.34,464.982,243.34z"/>
<path style="fill:#FFBE26;" d="M493.979,235.614c-14.832,0-92.427,0-109.406,0c-15.233,0-359.742,0-366.552,0
	c-9.899,0-17.999,8.099-17.999,17.999v12.999c0,9.899,8.099,17.998,17.999,17.998c12.024,0,352.639,0,366.552,0
	c16.948,0,94.609,0,109.406,0c9.899,0,17.998-8.099,17.998-17.998v-12.999C511.977,243.713,503.878,235.614,493.979,235.614z"/>
<path style="fill:#F99A25;" d="M493.979,260.112c-14.832,0-92.427,0-109.406,0c-15.233,0-359.742,0-366.552,0
	c-7.889,0-14.619-5.15-17.034-12.249c-1.221,3.589-0.965,4.716-0.965,18.749c0,9.899,8.099,17.998,17.999,17.998
	c12.024,0,352.639,0,366.552,0c16.948,0,94.609,0,109.406,0c9.899,0,17.998-8.099,17.998-17.998c0-13.998,0.257-15.158-0.965-18.749
	C508.598,254.962,501.868,260.112,493.979,260.112z"/>
<path style="fill:#F21897;" d="M281.632,287.188c-14.862,11.816-36.11,12.048-51.265,0l-2.285,0.947c0,7.536,0,202.631,0,204.956
	c5.915,0,49.919,0,55.834,0c0-2.864,0-197.637,0-204.956L281.632,287.188z"/>
<path style="fill:#B72391;" d="M248.686,295.484c-6.839-1.228-13.093-4.141-18.318-8.296l-2.285,0.947c0,7.536,0,202.631,0,204.956
	h20.603C248.686,482.663,248.686,305.953,248.686,295.484z"/>
<g>
	<path style="fill:#F774C1;" d="M214.769,260.055c0-13.081,6.098-24.73,15.6-32.284L167.244,201.6
		c-18.957-7.86-39.816,6.073-39.816,26.595c0,6.75,0,56.971,0,63.721c0,20.522,20.859,34.455,39.816,26.595l63.125-26.172
		C220.867,284.786,214.769,273.136,214.769,260.055z"/>
	<path style="fill:#F774C1;" d="M344.757,201.6l-63.125,26.171c9.501,7.553,15.6,19.203,15.6,32.284
		c0,13.081-6.099,24.731-15.6,32.284l63.125,26.172c18.957,7.86,39.816-6.073,39.816-26.595v-31.861v-31.861
		C384.573,207.673,363.714,193.74,344.757,201.6z"/>
</g>
<g>
	<path style="fill:#F446AC;" d="M218.302,276.739l-51.059,21.169c-18.958,7.86-39.816-6.073-39.816-26.595v20.603
		c0,20.522,20.859,34.455,39.816,26.595l63.125-26.172C225.183,288.217,221.022,282.868,218.302,276.739z"/>
	<path style="fill:#F446AC;" d="M344.757,297.908l-51.059-21.169c-2.72,6.129-6.881,11.478-12.066,15.6l63.125,26.172
		c18.957,7.86,39.816-6.073,39.816-26.595v-20.603C384.573,291.835,363.714,305.767,344.757,297.908z"/>
	<path style="fill:#F446AC;" d="M256,217.794c-23.303,0-42.262,18.958-42.262,42.262c0,23.303,18.959,42.262,42.262,42.262
		s42.262-18.959,42.262-42.262C298.262,236.752,279.303,217.794,256,217.794z"/>
</g>
<path style="fill:#F21897;" d="M234.341,260.055c0-19.751,13.621-36.375,31.96-40.986c-3.299-0.829-6.749-1.275-10.302-1.275
	c-23.303,0-42.262,18.958-42.262,42.262c0,27.362,25.811,47.715,52.564,40.986C247.962,296.43,234.341,279.806,234.341,260.055z"/>
<g>
</g>
<g>
</g>
<g>
</g>
<g>
</g>
<g>
</g>
<g>
</g>
<g>
</g>
<g>
</g>
<g>
</g>
<g>
</g>
<g>
</g>
<g>
</g>
<g>
</g>
<g>
</g>
<g>
</g>
</svg>
