<?xml version="1.0" encoding="iso-8859-1"?>
<!-- Generator: Adobe Illustrator 19.0.0, SVG Export Plug-In . SVG Version: 6.00 Build 0)  -->
<svg version="1.1" id="Capa_1" xmlns="http://www.w3.org/2000/svg" xmlns:xlink="http://www.w3.org/1999/xlink" x="0px" y="0px"
	 viewBox="0 0 512.001 512.001" style="enable-background:new 0 0 512.001 512.001;" xml:space="preserve">
<g>
	<path style="fill:#6DC82A;" d="M349.894,230.528c-1.615,0-3.244-0.504-4.635-1.548c-3.412-2.564-4.1-7.407-1.537-10.82
		c30.516-40.624,25.261-99.174,25.204-99.761c-0.41-4.248,2.701-8.024,6.949-8.433c4.255-0.421,8.024,2.701,8.434,6.948
		c0.255,2.639,5.849,65.159-28.231,110.528C354.56,229.462,352.241,230.528,349.894,230.528z"/>
	<path style="fill:#6DC82A;" d="M182.453,388.197c-2.037-3.748-0.655-8.434,3.09-10.473c1.638-0.893,40.702-21.882,90.384-23.902
		c4.263-0.163,7.861,3.143,8.034,7.407c0.174,4.264-3.143,7.861-7.406,8.035c-45.952,1.868-83.255,21.833-83.626,22.035
		C189.179,393.331,184.49,391.945,182.453,388.197z"/>
</g>
<path style="fill:#8DCE55;" d="M279.932,351.352l-7.053,9.862c-0.875,1.223-0.592,2.923,0.631,3.798l31.803,22.744
	c20.096,14.372,48.297,9.688,62.668-10.408l7.053-9.862c0.875-1.223,0.592-2.924-0.631-3.798L342.6,340.944
	C322.504,326.572,294.304,331.256,279.932,351.352z"/>
<path style="fill:#6DC82A;" d="M328.039,387.756l-31.803-22.744c-1.223-0.875-1.505-2.575-0.631-3.798l7.053-9.862
	c6.346-8.874,15.39-14.737,25.24-17.287c-17.5-4.557-36.861,1.758-47.966,17.287l-7.053,9.862c-0.875,1.223-0.592,2.923,0.631,3.798
	l31.803,22.744c11.223,8.026,24.971,10.103,37.429,6.878C337.594,393.294,332.606,391.022,328.039,387.756z"/>
<path style="fill:#8DCE55;" d="M476.65,169.958c-2.872-7.311-11.124-10.911-18.446-8.039
	c-91.484,35.945-173.576,88.783-240.16,159.352c1.79-37.339-9.575-74.972-16.411-99.321h-2.987c0.804,3.69,1.25,7.514,1.25,11.446
	c0,15.327-6.438,29.14-16.749,38.911c3.829,27.464,8.41,61.32-0.876,90.589c-40.88,52.358-66.295,104.697-74.405,130.635
	c-2.344,7.493,1.826,15.458,9.315,17.813c1.419,0.446,2.854,0.657,4.266,0.657c6.045,0,11.655-3.886,13.572-9.954
	c0.164-0.522,17.069-52.966,66.492-117.537c45.52-59.472,128.81-141.772,267.1-196.105
	C475.923,185.531,479.523,177.272,476.65,169.958z"/>
<g>
	<path style="fill:#6DC82A;" d="M470.567,168.343c1.563-0.613,3.168-0.915,4.754-0.965c-0.239-0.366-0.495-0.717-0.763-1.056
		c-0.101-0.127-0.21-0.245-0.315-0.368c-0.179-0.211-0.359-0.421-0.549-0.62c-0.126-0.132-0.258-0.256-0.389-0.382
		c-0.182-0.176-0.366-0.35-0.557-0.516c-0.141-0.123-0.285-0.24-0.431-0.357c-0.194-0.155-0.391-0.306-0.591-0.45
		c-0.151-0.108-0.302-0.215-0.457-0.317c-0.21-0.139-0.426-0.27-0.643-0.398c-0.153-0.09-0.305-0.182-0.461-0.266
		c-0.24-0.129-0.485-0.246-0.732-0.361c-0.141-0.066-0.281-0.138-0.424-0.2c-0.348-0.149-0.702-0.282-1.06-0.403
		c-0.047-0.016-0.092-0.037-0.14-0.052c-0.405-0.132-0.816-0.243-1.232-0.338c-0.141-0.032-0.285-0.054-0.427-0.082
		c-0.281-0.055-0.562-0.108-0.847-0.147c-0.168-0.023-0.337-0.036-0.506-0.053c-0.264-0.026-0.529-0.048-0.795-0.059
		c-0.177-0.008-0.354-0.009-0.532-0.01c-0.263-0.001-0.526,0.005-0.79,0.018c-0.178,0.009-0.357,0.02-0.535,0.036
		c-0.27,0.024-0.54,0.06-0.81,0.1c-0.171,0.025-0.342,0.048-0.513,0.08c-0.295,0.055-0.589,0.126-0.882,0.2
		c-0.144,0.036-0.289,0.066-0.433,0.107c-0.433,0.124-0.865,0.266-1.294,0.434c-0.003,0.001-0.006,0.002-0.009,0.003
		c-0.002,0.001-0.003,0.001-0.005,0.002c-90.11,35.406-171.688,87.403-238.425,157.55c-0.582,0.625-1.159,1.228-1.73,1.8
		c0.295,5.054,0.312,10.32,0.15,15.482c-0.041,1.303,1.54,1.97,2.441,1.027C289.866,265.328,363.171,210.54,470.567,168.343z"/>
	<path style="fill:#6DC82A;" d="M120.23,499.955c6.724-21.503,29.354-71.59,70.23-125.245c14.892-19.548,8.885-68.159,5.652-91.653
		c-0.358-2.604,0.433-5.241,2.201-7.186c5.551-6.104,9.708-13.495,11.983-21.67c-2.903-12.139-6.1-23.128-8.661-32.252h-2.987
		c0.804,3.69,1.25,7.514,1.25,11.446c0,15.327-6.438,29.14-16.749,38.911c3.829,27.464,8.41,61.32-0.876,90.589
		c-40.198,51.489-66.009,103.785-74.405,130.635c-2.344,7.493,1.826,15.458,9.315,17.813c1.569,0.493,3.159,0.699,4.714,0.65
		c0.003-0.006,0.002-0.005,0.006-0.011C119.657,508.548,118.909,504.177,120.23,499.955z"/>
</g>
<g>
	<path style="fill:#FFBE26;" d="M174.583,0.768c1.585-1.024,3.65-1.024,5.235,0c14.835,9.583,24.638,26.086,24.638,44.852
		s-9.803,35.269-24.638,44.852c-1.585,1.024-3.65,1.024-5.235,0c-14.835-9.583-24.638-26.086-24.638-44.852
		S159.748,10.351,174.583,0.768z"/>
	<path style="fill:#FFBE26;" d="M174.583,190.604c1.585-1.024,3.65-1.024,5.235,0c14.835,9.583,24.638,26.086,24.638,44.852
		s-9.803,35.269-24.638,44.852c-1.585,1.024-3.65,1.024-5.235,0c-14.835-9.583-24.638-26.086-24.638-44.852
		S159.748,200.187,174.583,190.604z"/>
	<path style="fill:#FFBE26;" d="M275.8,39.884c1.857,0.379,3.317,1.815,3.702,3.642c3.603,17.097-1.326,35.587-14.812,48.856
		c-13.487,13.269-32.279,18.119-49.656,14.574c-1.857-0.379-3.317-1.815-3.702-3.642c-3.603-17.097,1.326-35.587,14.812-48.856
		C239.63,41.189,258.422,36.339,275.8,39.884z"/>
	<path style="fill:#FFBE26;" d="M139.368,174.118c1.857,0.379,3.317,1.815,3.702,3.642c3.603,17.097-1.326,35.587-14.812,48.856
		c-13.487,13.269-32.279,18.119-49.656,14.574c-1.857-0.379-3.317-1.815-3.702-3.642c-3.603-17.097,1.326-35.587,14.812-48.856
		C103.199,175.423,121.991,170.573,139.368,174.118z"/>
	<path style="fill:#FFBE26;" d="M319.258,137.962c1.041,1.56,1.041,3.591,0,5.151c-9.74,14.596-26.513,24.241-45.586,24.241
		s-35.846-9.645-45.586-24.241c-1.041-1.56-1.041-3.591,0-5.151c9.74-14.596,26.513-24.241,45.586-24.241
		C292.745,113.721,309.519,123.366,319.258,137.962z"/>
	<path style="fill:#FFBE26;" d="M126.315,137.962c1.041,1.56,1.041,3.591,0,5.151c-9.74,14.596-26.513,24.241-45.586,24.241
		s-35.846-9.645-45.586-24.241c-1.041-1.56-1.041-3.591,0-5.151c9.74-14.596,26.513-24.241,45.586-24.241
		C99.802,113.721,116.576,123.366,126.315,137.962z"/>
	<path style="fill:#FFBE26;" d="M279.502,237.548c-0.385,1.827-1.845,3.264-3.702,3.642c-17.377,3.545-36.169-1.304-49.656-14.574
		c-13.487-13.269-18.415-31.759-14.812-48.856c0.385-1.827,1.845-3.263,3.702-3.642c17.377-3.545,36.169,1.304,49.656,14.574
		C278.176,201.962,283.105,220.451,279.502,237.548z"/>
	<path style="fill:#FFBE26;" d="M143.07,103.314c-0.385,1.827-1.845,3.263-3.702,3.642c-17.377,3.545-36.169-1.304-49.656-14.574
		C76.226,79.114,71.297,60.624,74.9,43.527c0.385-1.827,1.845-3.263,3.702-3.642c17.377-3.545,36.169,1.304,49.656,14.574
		C141.745,67.728,146.674,86.217,143.07,103.314z"/>
</g>
<g>
	<path style="fill:#F99A25;" d="M173.954,45.62c0-14.438,5.818-27.522,15.251-37.16c-2.827-2.889-5.966-5.481-9.387-7.691
		c-1.586-1.024-3.65-1.024-5.235,0c-14.835,9.583-24.638,26.086-24.638,44.852s9.803,35.269,24.638,44.852
		c1.585,1.024,3.65,1.024,5.235,0c3.421-2.21,6.559-4.803,9.387-7.691C179.772,73.142,173.954,60.058,173.954,45.62z"/>
	<path style="fill:#F99A25;" d="M173.954,235.455c0-14.438,5.818-27.522,15.251-37.16c-2.827-2.889-5.966-5.482-9.387-7.691
		c-1.586-1.024-3.65-1.024-5.235,0c-14.835,9.583-24.638,26.086-24.638,44.852s9.803,35.269,24.638,44.852
		c1.585,1.024,3.65,1.024,5.235,0c3.421-2.21,6.559-4.803,9.387-7.691C179.772,262.978,173.954,249.894,173.954,235.455z"/>
	<path style="fill:#F99A25;" d="M235.341,103.314c-3.603-17.097,1.326-35.587,14.812-48.856c7.532-7.411,16.721-12.19,26.393-14.352
		c-0.24-0.091-0.488-0.169-0.746-0.221c-17.377-3.545-36.169,1.304-49.656,14.574c-13.487,13.269-18.415,31.759-14.812,48.856
		c0.385,1.827,1.845,3.264,3.702,3.642c7.672,1.565,15.618,1.488,23.263-0.221C236.803,106.168,235.672,104.888,235.341,103.314z"/>
	<path style="fill:#F99A25;" d="M98.909,237.549c-3.603-17.097,1.326-35.587,14.812-48.856c7.533-7.411,16.721-12.19,26.393-14.352
		c-0.241-0.091-0.488-0.169-0.746-0.221c-17.377-3.545-36.17,1.304-49.656,14.574C76.225,201.963,71.297,220.453,74.9,237.55
		c0.385,1.827,1.845,3.263,3.702,3.642c7.672,1.565,15.618,1.488,23.263-0.221C100.372,240.402,99.241,239.122,98.909,237.549z"/>
	<path style="fill:#F99A25;" d="M252.096,143.113c-1.041-1.56-1.041-3.591,0-5.151c7.631-11.437,19.591-19.809,33.581-22.908
		c-3.865-0.856-7.876-1.333-12.005-1.333c-19.073,0-35.846,9.645-45.586,24.241c-1.041,1.56-1.041,3.591,0,5.151
		c9.74,14.596,26.513,24.241,45.586,24.241c4.129,0,8.14-0.477,12.005-1.333C271.686,162.922,259.727,154.55,252.096,143.113z"/>
	<path style="fill:#F99A25;" d="M59.153,143.113c-1.041-1.56-1.041-3.591,0-5.151c7.631-11.437,19.591-19.809,33.581-22.908
		c-3.865-0.856-7.876-1.333-12.004-1.333c-19.073,0-35.846,9.645-45.586,24.241c-1.041,1.56-1.041,3.591,0,5.151
		c9.74,14.596,26.513,24.241,45.586,24.241c4.129,0,8.139-0.477,12.004-1.333C78.743,162.922,66.784,154.55,59.153,143.113z"/>
	<path style="fill:#F99A25;" d="M250.153,226.617c-13.487-13.27-18.416-31.759-14.812-48.856c0.332-1.574,1.463-2.853,2.956-3.421
		c-7.645-1.709-15.592-1.786-23.263-0.221c-1.857,0.379-3.317,1.815-3.702,3.642c-3.603,17.097,1.326,35.587,14.812,48.856
		c18.539,18.24,43.659,16.918,50.402,14.352C266.874,238.807,257.685,234.028,250.153,226.617z"/>
	<path style="fill:#F99A25;" d="M113.721,92.383c-13.487-13.269-18.415-31.759-14.812-48.856c0.332-1.574,1.463-2.853,2.956-3.421
		c-7.645-1.709-15.592-1.786-23.263-0.221c-1.857,0.379-3.317,1.815-3.702,3.642c-3.603,17.097,1.326,35.587,14.812,48.856
		s32.279,18.119,49.656,14.574c0.257-0.053,0.505-0.13,0.746-0.221C130.443,104.573,121.254,99.794,113.721,92.383z"/>
</g>
<ellipse style="fill:#F27524;" cx="177.201" cy="140.54" rx="50.1" ry="49.3"/>
<path style="fill:#EC5123;" d="M150.298,140.538c0-23.295,16.428-42.803,38.504-47.955c-3.725-0.869-7.606-1.343-11.601-1.343
	c-27.672,0-50.105,22.072-50.105,49.298c0,27.227,22.433,49.298,50.105,49.298c3.995,0,7.876-0.474,11.601-1.343
	C166.726,183.341,150.298,163.833,150.298,140.538z"/>
<g>
</g>
<g>
</g>
<g>
</g>
<g>
</g>
<g>
</g>
<g>
</g>
<g>
</g>
<g>
</g>
<g>
</g>
<g>
</g>
<g>
</g>
<g>
</g>
<g>
</g>
<g>
</g>
<g>
</g>
</svg>
