<?xml version="1.0" encoding="iso-8859-1"?>
<!-- Generator: Adobe Illustrator 19.0.0, SVG Export Plug-In . SVG Version: 6.00 Build 0)  -->
<svg version="1.1" id="Capa_1" xmlns="http://www.w3.org/2000/svg" xmlns:xlink="http://www.w3.org/1999/xlink" x="0px" y="0px"
	 viewBox="0 0 512 512" style="enable-background:new 0 0 512 512;" xml:space="preserve">
<path style="fill:#65AAFC;" d="M118.607,215.142c-0.608-36.408,28.722-66.112,64.991-66.112c0.493,0,0.98,0.026,1.471,0.037
	c5.257-32.388,24.424-60.094,51.158-76.836c-17.198-10.775-37.531-17.009-59.322-17.009c-55.652,0-101.796,40.632-110.434,93.845
	c-0.491-0.011-0.977-0.037-1.471-0.037c-36.268,0-65.599,29.704-64.991,66.112c0.595,35.64,30.416,63.889,66.061,63.889h118.598
	C149.022,279.031,119.202,250.782,118.607,215.142z"/>
<path style="fill:#2E84FF;" d="M176.905,55.223c-55.652,0-101.795,40.632-110.434,93.845c-0.49-0.011-0.977-0.037-1.471-0.037
	c-36.268,0-65.599,29.704-64.991,66.112c0.595,35.64,30.416,63.889,66.061,63.889h20.467c-35.645,0-65.466-28.25-66.061-63.889
	c-0.592-35.432,27.176-64.505,62.095-66.038l-0.004-0.008c0,0,4.233-0.162,5.146-4.272c0.006-0.025,0.013-0.043,0.019-0.068
	c9.7-47.792,49.836-84.532,99.307-89.063C183.699,55.394,180.323,55.223,176.905,55.223z"/>
<path style="fill:#AAE8FF;" d="M426.966,98.225c-11.958-0.707-23.438,0.932-34.049,4.472c-3.342,1.115-6.988-0.155-9.112-2.965
	c-20.427-27.035-52.839-44.509-89.335-44.509c-55.652,0-101.796,40.632-110.434,93.845c-0.49-0.011-0.977-0.037-1.471-0.037
	c-36.269,0-65.599,29.704-64.991,66.112c0.595,35.64,30.416,63.889,66.061,63.889h237.881c51.297,0,92.624-42.686,90.398-94.475
	C509.936,138.52,472.965,100.945,426.966,98.225z"/>
<path style="fill:#6BD9FC;" d="M294.47,55.223c-55.652,0-101.795,40.632-110.434,93.845c-0.49-0.011-0.977-0.037-1.471-0.037
	c-36.268,0-65.599,29.704-64.991,66.112c0.595,35.64,30.416,63.889,66.061,63.889h20.467c-35.645,0-65.466-28.25-66.061-63.889
	c-0.592-35.432,27.176-64.505,62.095-66.038l-0.004-0.008c0,0,4.233-0.162,5.146-4.272c0.006-0.025,0.013-0.043,0.019-0.068
	c9.7-47.792,49.836-84.532,99.307-89.063C301.264,55.394,297.888,55.223,294.47,55.223z"/>
<path style="fill:#FFBE26;" d="M294.112,227.116v80.495c0,2.011,1.63,3.642,3.642,3.642h34.384
	c16.541,0,27.497,17.162,20.536,32.166l-51.616,111.246c-1.642,3.538-6.945,2.368-6.945-1.533v-80.495
	c0-2.011-1.63-3.642-3.642-3.642h-35.774c-15.892,0-26.419-16.489-19.73-30.905l52.201-112.507
	C288.809,222.045,294.112,223.216,294.112,227.116z"/>
<g>
	<path style="fill:#F99A25;" d="M255.377,338.091l38.735-83.485v-27.49c0-3.9-5.303-5.071-6.945-1.533l-52.201,112.508
		c-6.689,14.416,3.838,30.905,19.73,30.905h20.411C259.215,368.996,248.688,352.507,255.377,338.091z"/>
	<path style="fill:#F99A25;" d="M314.523,372.637c0-2.011-1.63-3.642-3.641-3.642H290.47c2.011,0,3.641,1.63,3.641,3.642v80.495
		c0,3.901,5.303,5.071,6.945,1.533l13.466-29.023v-53.005H314.523z"/>
</g>
<g>
</g>
<g>
</g>
<g>
</g>
<g>
</g>
<g>
</g>
<g>
</g>
<g>
</g>
<g>
</g>
<g>
</g>
<g>
</g>
<g>
</g>
<g>
</g>
<g>
</g>
<g>
</g>
<g>
</g>
</svg>
