<?xml version="1.0" encoding="iso-8859-1"?>
<!-- Generator: Adobe Illustrator 19.0.0, SVG Export Plug-In . SVG Version: 6.00 Build 0)  -->
<svg version="1.1" id="Capa_1" xmlns="http://www.w3.org/2000/svg" xmlns:xlink="http://www.w3.org/1999/xlink" x="0px" y="0px"
	 viewBox="0 0 512 512" style="enable-background:new 0 0 512 512;" xml:space="preserve">
<path style="fill:#6DC82A;" d="M256,512c-4.204,0-7.612-3.408-7.612-7.612V287.742c0-4.204,3.408-7.612,7.612-7.612
	c4.204,0,7.612,3.408,7.612,7.612v216.646C263.612,508.592,260.204,512,256,512z"/>
<g>
	<path style="fill:#8DCE55;" d="M256,438.571v10.792c0,1.382,1.12,2.502,2.502,2.502h35.043c22.242,0,40.44-18.198,40.44-40.44
		v-10.792c0-1.382-1.12-2.502-2.502-2.502H296.44C274.198,398.131,256,416.329,256,438.571z"/>
	<path style="fill:#8DCE55;" d="M256,384.838v10.792c0,1.382-1.12,2.502-2.502,2.502h-35.043c-22.242,0-40.44-18.198-40.44-40.44
		V346.9c0-1.382,1.12-2.502,2.502-2.502h35.043C237.802,344.398,256,362.596,256,384.838z"/>
</g>
<g>
	<path style="fill:#6DC82A;" d="M276.298,449.363v-10.792c0-22.242,18.198-40.44,40.44-40.44H296.44
		c-22.242,0-40.44,18.198-40.44,40.44v10.792c0,1.382,1.12,2.502,2.502,2.502H278.8
		C277.419,451.865,276.298,450.745,276.298,449.363z"/>
	<path style="fill:#6DC82A;" d="M198.314,357.692V346.9c0-1.382,1.12-2.502,2.502-2.502h-20.299c-1.382,0-2.502,1.12-2.502,2.502
		v10.792c0,22.242,18.198,40.44,40.44,40.44h20.299C216.512,398.131,198.314,379.933,198.314,357.692z"/>
</g>
<path style="fill:#CC905E;" d="M310.577,512H205.001c-4.204,0-7.612-3.408-7.612-7.612s3.408-7.612,7.612-7.612h105.576
	c4.204,0,7.612,3.408,7.612,7.612S314.781,512,310.577,512z"/>
<g>
	<path style="fill:#FFBE26;" d="M253.052,0.865c1.785-1.153,4.11-1.153,5.896,0c16.707,10.792,27.746,29.376,27.746,50.509
		s-11.039,39.717-27.746,50.509c-1.785,1.153-4.11,1.153-5.896,0c-16.707-10.792-27.746-29.376-27.746-50.509
		S236.346,11.657,253.052,0.865z"/>
	<path style="fill:#FFBE26;" d="M253.052,214.643c1.785-1.153,4.11-1.153,5.896,0c16.707,10.792,27.746,29.376,27.746,50.509
		s-11.039,39.717-27.746,50.509c-1.785,1.153-4.11,1.153-5.896,0c-16.707-10.792-27.746-29.376-27.746-50.509
		C225.306,244.02,236.346,225.435,253.052,214.643z"/>
	<path style="fill:#FFBE26;" d="M367.035,44.915c2.091,0.427,3.735,2.044,4.169,4.102c4.058,19.254-1.493,40.075-16.68,55.018
		c-15.188,14.943-36.35,20.404-55.919,16.412c-2.091-0.427-3.735-2.044-4.169-4.102c-4.058-19.254,1.493-40.075,16.681-55.018
		C326.303,46.384,347.466,40.923,367.035,44.915z"/>
	<path style="fill:#FFBE26;" d="M213.396,196.079c2.091,0.427,3.735,2.044,4.169,4.102c4.058,19.254-1.493,40.075-16.68,55.018
		c-15.188,14.943-36.35,20.404-55.919,16.412c-2.091-0.427-3.735-2.044-4.169-4.102c-4.058-19.254,1.493-40.075,16.681-55.018
		C172.665,197.548,193.827,192.087,213.396,196.079z"/>
	<path style="fill:#FFBE26;" d="M415.974,155.363c1.172,1.757,1.172,4.044,0,5.801c-10.968,16.437-29.857,27.299-51.335,27.299
		c-21.479,0-40.367-10.861-51.336-27.299c-1.172-1.757-1.172-4.044,0-5.801c10.968-16.437,29.857-27.299,51.336-27.299
		C386.117,128.064,405.006,138.925,415.974,155.363z"/>
	<path style="fill:#FFBE26;" d="M198.697,155.363c1.172,1.757,1.172,4.044,0,5.801c-10.968,16.437-29.857,27.299-51.335,27.299
		c-21.479,0-40.367-10.861-51.336-27.299c-1.172-1.757-1.172-4.044,0-5.801c10.968-16.437,29.857-27.299,51.336-27.299
		C168.839,128.064,187.728,138.925,198.697,155.363z"/>
	<path style="fill:#FFBE26;" d="M371.203,267.509c-0.434,2.058-2.078,3.675-4.169,4.102c-19.569,3.992-40.731-1.469-55.919-16.412
		c-15.188-14.943-20.738-35.764-16.681-55.018c0.434-2.058,2.078-3.675,4.169-4.102c19.569-3.992,40.731,1.469,55.919,16.412
		C369.711,227.434,375.261,248.255,371.203,267.509z"/>
	<path style="fill:#FFBE26;" d="M217.565,116.345c-0.434,2.058-2.078,3.675-4.169,4.102c-19.569,3.992-40.731-1.469-55.919-16.412
		s-20.738-35.764-16.681-55.018c0.434-2.058,2.078-3.675,4.169-4.102c19.569-3.992,40.731,1.469,55.919,16.412
		S221.622,97.091,217.565,116.345z"/>
</g>
<g>
	<path style="fill:#F99A25;" d="M252.344,51.374c0-16.259,6.552-30.993,17.175-41.847c-3.184-3.253-6.718-6.173-10.571-8.661
		c-1.785-1.153-4.11-1.153-5.896,0c-16.707,10.792-27.746,29.376-27.746,50.509s11.039,39.717,27.746,50.509
		c1.785,1.153,4.11,1.153,5.896,0c3.853-2.489,7.387-5.408,10.571-8.661C258.896,82.367,252.344,67.633,252.344,51.374z"/>
	<path style="fill:#F99A25;" d="M252.344,265.152c0-16.259,6.552-30.993,17.175-41.847c-3.184-3.253-6.718-6.173-10.571-8.661
		c-1.785-1.153-4.11-1.153-5.896,0c-16.707,10.792-27.746,29.376-27.746,50.509s11.039,39.717,27.746,50.509
		c1.785,1.153,4.11,1.153,5.896,0c3.853-2.489,7.387-5.408,10.571-8.661C258.896,296.146,252.344,281.411,252.344,265.152z"/>
	<path style="fill:#F99A25;" d="M321.472,116.345c-4.058-19.254,1.493-40.075,16.681-55.018c8.482-8.346,18.83-13.727,29.721-16.163
		c-0.271-0.103-0.55-0.19-0.84-0.249c-19.569-3.992-40.731,1.469-55.919,16.412c-15.188,14.943-20.738,35.764-16.681,55.018
		c0.434,2.058,2.078,3.675,4.169,4.102c8.639,1.763,17.588,1.676,26.198-0.249C323.12,119.558,321.846,118.117,321.472,116.345z"/>
	<path style="fill:#F99A25;" d="M167.834,267.509c-4.058-19.254,1.493-40.075,16.68-55.018c8.483-8.346,18.83-13.727,29.721-16.163
		c-0.271-0.103-0.55-0.19-0.84-0.249c-19.569-3.992-40.732,1.469-55.919,16.412c-15.188,14.943-20.738,35.764-16.68,55.018
		c0.433,2.058,2.077,3.675,4.169,4.102c8.639,1.763,17.588,1.676,26.197-0.249C169.481,270.722,168.207,269.281,167.834,267.509z"/>
	<path style="fill:#F99A25;" d="M340.341,161.163c-1.172-1.757-1.172-4.044,0-5.801c8.594-12.88,22.062-22.307,37.817-25.798
		c-4.352-0.964-8.869-1.501-13.519-1.501c-21.479,0-40.367,10.861-51.336,27.299c-1.172,1.757-1.172,4.044,0,5.801
		c10.968,16.437,29.857,27.299,51.336,27.299c4.649,0,9.166-0.537,13.519-1.501C362.402,183.471,348.935,174.043,340.341,161.163z"
		/>
	<path style="fill:#F99A25;" d="M123.063,161.163c-1.172-1.757-1.172-4.044,0-5.801c8.594-12.879,22.062-22.307,37.817-25.798
		c-4.352-0.964-8.869-1.501-13.518-1.501c-21.479,0-40.367,10.861-51.336,27.299c-1.172,1.757-1.172,4.044,0,5.801
		c10.968,16.437,29.857,27.299,51.336,27.299c4.649,0,9.166-0.537,13.518-1.501C145.125,183.47,131.657,174.043,123.063,161.163z"/>
	<path style="fill:#F99A25;" d="M338.153,255.199c-15.188-14.943-20.738-35.764-16.681-55.018c0.374-1.772,1.647-3.213,3.329-3.853
		c-8.609-1.925-17.558-2.012-26.198-0.249c-2.091,0.427-3.735,2.044-4.169,4.102c-4.058,19.254,1.493,40.075,16.681,55.018
		s36.35,20.404,55.919,16.412c0.29-0.059,0.569-0.146,0.84-0.249C356.983,268.927,346.635,263.545,338.153,255.199z"/>
	<path style="fill:#F99A25;" d="M184.514,104.035c-15.188-14.943-20.738-35.764-16.68-55.018c0.373-1.772,1.648-3.213,3.329-3.853
		c-8.609-1.925-17.558-2.012-26.197-0.249c-2.091,0.427-3.735,2.044-4.169,4.102c-4.058,19.254,1.493,40.075,16.68,55.018
		s36.35,20.404,55.919,16.412c0.29-0.059,0.569-0.146,0.84-0.249C203.344,117.762,192.997,112.381,184.514,104.035z"/>
</g>
<ellipse style="fill:#F27524;" cx="256" cy="158.26" rx="56.42" ry="55.52"/>
<path style="fill:#EC5123;" d="M225.704,158.263c0-26.234,18.5-48.202,43.36-54.003c-4.195-0.979-8.565-1.512-13.064-1.512
	c-31.162,0-56.424,24.855-56.424,55.516S224.838,213.78,256,213.78c4.499,0,8.869-0.533,13.064-1.512
	C244.204,206.465,225.704,184.497,225.704,158.263z"/>
<g>
</g>
<g>
</g>
<g>
</g>
<g>
</g>
<g>
</g>
<g>
</g>
<g>
</g>
<g>
</g>
<g>
</g>
<g>
</g>
<g>
</g>
<g>
</g>
<g>
</g>
<g>
</g>
<g>
</g>
</svg>
