<?xml version="1.0" encoding="iso-8859-1"?>
<!-- Generator: Adobe Illustrator 19.0.0, SVG Export Plug-In . SVG Version: 6.00 Build 0)  -->
<svg version="1.1" id="Capa_1" xmlns="http://www.w3.org/2000/svg" xmlns:xlink="http://www.w3.org/1999/xlink" x="0px" y="0px"
	 viewBox="0 0 512 512" style="enable-background:new 0 0 512 512;" xml:space="preserve">
<path style="fill:#F446AC;" d="M199.07,0c-16.79,0-30.715,12.229-33.375,28.264v32.702h66.749V28.264
	C229.785,12.229,215.859,0,199.07,0z"/>
<path style="fill:#F21897;" d="M219.808,56.148c0-15.336-12.548-27.884-27.884-27.884h-24.491c-0.616,0-1.201,0.125-1.737,0.347
	v32.356h54.113L219.808,56.148L219.808,56.148z"/>
<g>
	<path style="fill:#6DC82A;" d="M199.07,300.842c-4.267,0-7.727-3.459-7.727-7.727v-181.88c0-4.268,3.459-7.727,7.727-7.727
		s7.727,3.459,7.727,7.727v181.88C206.796,297.383,203.337,300.842,199.07,300.842z"/>
	<path style="fill:#6DC82A;" d="M312.93,300.842c-4.267,0-7.727-3.459-7.727-7.727v-79.672c0-4.268,3.459-7.727,7.727-7.727
		c4.268,0,7.727,3.459,7.727,7.727v79.672C320.657,297.383,317.198,300.842,312.93,300.842z"/>
</g>
<path style="fill:#996459;" d="M371.592,329.26L371.592,329.26c-11.88,0-219.301,0-231.183,0l0,0
	c-18.101,33.741-18.755,74.341-1.751,108.665l27.763,56.041C171.898,505.022,183.052,512,195.249,512c7.043,0,114.676,0,121.502,0
	c12.197,0,23.351-6.978,28.829-18.035l27.763-56.041C390.347,403.601,389.693,363.001,371.592,329.26z"/>
<path style="fill:#7E5C62;" d="M187.025,493.965l-27.763-56.04c-17.004-34.324-16.35-74.923,1.751-108.665l0,0h-20.605l0,0
	c-18.101,33.741-18.755,74.341-1.751,108.665l27.763,56.04C171.898,505.022,183.053,512,195.25,512h20.605
	C203.657,512,192.503,505.022,187.025,493.965z"/>
<path style="fill:#F774C1;" d="M225.924,28.264h25.1c2.18,0,3.946,1.767,3.946,3.946v59.955c0,15.336-12.548,27.884-27.884,27.884
	H198.04V56.148C198.04,40.812,210.587,28.264,225.924,28.264z"/>
<path style="fill:#F446AC;" d="M208.924,34.093c-6.607,5.111-10.884,13.106-10.884,22.055v63.901h21.768V56.148
	C219.808,47.198,215.53,39.204,208.924,34.093z"/>
<path style="fill:#CC905E;" d="M390.779,317.985v-19.47c0-7.68-6.226-13.907-13.907-13.907H135.128
	c-7.68,0-13.907,6.227-13.907,13.907v19.47c0,7.681,6.227,13.907,13.907,13.907h241.744
	C384.553,331.892,390.779,325.665,390.779,317.985z"/>
<path style="fill:#BA7958;" d="M376.872,308.25H135.128c-6.969,0-12.725-5.133-13.734-11.821c-0.103,0.682-0.173,1.375-0.173,2.086
	v19.47c0,7.681,6.227,13.907,13.907,13.907h241.744c7.681,0,13.907-6.226,13.907-13.907v-19.47c0-0.711-0.07-1.404-0.173-2.086
	C389.597,303.117,383.842,308.25,376.872,308.25z"/>
<path style="fill:#8DCE55;" d="M199.07,209.495v13.551c0,1.231-0.998,2.228-2.228,2.228h-24.589
	c-16.562,0-30.112-13.551-30.112-30.112V181.61c0-1.231,0.998-2.228,2.228-2.228h24.589
	C185.519,179.382,199.07,192.933,199.07,209.495z"/>
<path style="fill:#6DC82A;" d="M162.878,195.163v-13.552c0-1.231,0.998-2.229,2.229-2.229h-20.738c-1.231,0-2.229,0.998-2.229,2.229
	v13.552c0,16.562,13.551,30.112,30.112,30.112h20.738C176.428,225.275,162.878,211.725,162.878,195.163z"/>
<path style="fill:#F774C1;" d="M171.186,28.264h-24.492c-2.515,0-4.555,2.039-4.555,4.555v59.347
	c0,15.336,12.548,27.884,27.884,27.884h29.046V56.148C199.07,40.812,186.522,28.264,171.186,28.264z"/>
<g>
	<path style="fill:#F446AC;" d="M162.878,92.165V32.818c0-2.515,2.039-4.554,4.555-4.554h-20.738c-2.515,0-4.555,2.039-4.555,4.554
		v59.347c0,15.336,12.548,27.884,27.884,27.884h20.738C175.426,120.049,162.878,107.501,162.878,92.165z"/>
	<path style="fill:#F446AC;" d="M313.446,111.349c-16.79,0-30.715,12.229-33.375,28.264v32.702h66.749v-32.702
		C344.16,123.578,330.235,111.349,313.446,111.349z"/>
</g>
<path style="fill:#F21897;" d="M334.184,167.498c0-15.336-12.548-27.884-27.884-27.884h-24.491c-0.616,0-1.201,0.125-1.737,0.347
	v32.356h54.113v-4.819H334.184z"/>
<path style="fill:#F774C1;" d="M340.299,139.613h25.1c2.18,0,3.946,1.767,3.946,3.946v59.955c0,15.336-12.548,27.884-27.884,27.884
	h-29.046v-63.901C312.415,152.161,324.963,139.613,340.299,139.613z"/>
<path style="fill:#F446AC;" d="M323.3,145.442c-6.607,5.111-10.884,13.106-10.884,22.055v63.901h21.768v-63.901
	C334.184,158.548,329.906,150.553,323.3,145.442z"/>
<path style="fill:#F774C1;" d="M285.561,139.613H261.07c-2.515,0-4.555,2.039-4.555,4.555v59.347
	c0,15.336,12.548,27.884,27.884,27.884h29.046v-63.901C313.446,152.161,300.898,139.613,285.561,139.613z"/>
<path style="fill:#F446AC;" d="M277.253,203.515v-59.347c0-2.515,2.039-4.554,4.555-4.554H261.07c-2.516,0-4.555,2.039-4.555,4.554
	v59.347c0,15.336,12.548,27.884,27.884,27.884h20.738C289.801,231.399,277.253,218.851,277.253,203.515z"/>
<g>
</g>
<g>
</g>
<g>
</g>
<g>
</g>
<g>
</g>
<g>
</g>
<g>
</g>
<g>
</g>
<g>
</g>
<g>
</g>
<g>
</g>
<g>
</g>
<g>
</g>
<g>
</g>
<g>
</g>
</svg>
