<?xml version="1.0" encoding="iso-8859-1"?>
<!-- Generator: Adobe Illustrator 19.0.0, SVG Export Plug-In . SVG Version: 6.00 Build 0)  -->
<svg version="1.1" id="Capa_1" xmlns="http://www.w3.org/2000/svg" xmlns:xlink="http://www.w3.org/1999/xlink" x="0px" y="0px"
	 viewBox="0 0 512.001 512.001" style="enable-background:new 0 0 512.001 512.001;" xml:space="preserve">
<path style="fill:#BABABA;" d="M235.362,357.216v14.423c0,4.458,0,117.931,0,123.831c0,9.081,7.43,16.511,16.511,16.511h8.255
	c9.081,0,16.511-7.43,16.511-16.511c0-5.081,0-133.86,0-138.254H235.362z"/>
<path style="fill:#ADADAD;" d="M256.001,495.47c0-6.02,0-119.602,0-123.831v-14.423h-20.639v14.423c0,4.458,0,117.931,0,123.831
	c0,9.081,7.43,16.511,16.511,16.511c8.872,0,10.771,0.278,14.447-1.222C260.286,508.295,256.001,502.363,256.001,495.47z"/>
<path style="fill:#FFBE26;" d="M256.783,31.108c-1.302-0.726-4.691-0.726-5.987,0.001l-127.57,101.67c0,8.349,0,188.151,0,203.763
	h265.549v-16.861V153.166v-16.862L256.783,31.108z"/>
<rect x="123.221" y="289.081" style="fill:#F21897;" width="265.55" height="47.46"/>
<path style="fill:#F99A25;" d="M143.83,116.359l-20.604,16.421c0,8.349,0,188.151,0,203.763h20.604V116.359z"/>
<rect x="123.221" y="289.081" style="fill:#B72391;" width="20.604" height="47.46"/>
<path style="fill:#696B70;" d="M425.62,371.639H86.382c-6.6,0-12-5.4-12-12v-17.278c0-6.6,5.4-12,12-12H425.62c6.6,0,12,5.4,12,12
	v17.277C437.62,366.239,432.22,371.639,425.62,371.639z"/>
<path style="fill:#5C5F63;" d="M425.258,351H86.744c-6.102,0-11.195-4.486-12.178-10.319c-0.112,0.667-0.185,1.346-0.185,2.043
	v16.552c0,6.799,5.563,12.362,12.362,12.362h338.513c6.799,0,12.362-5.563,12.362-12.362c0-18.28,0.062-17.132-0.185-18.596
	C436.453,346.515,431.36,351,425.258,351z"/>
<path style="fill:#F446AC;" d="M423.529,168.941c-4.509,0-9.05-1.471-12.849-4.499L256.784,41.789
	c-1.302-0.726-4.691-0.726-5.987,0.001L101.323,160.917c-8.912,7.104-21.899,5.637-29.003-3.277
	c-7.104-8.913-5.637-21.898,3.277-29.003L225.163,9.435c15.787-12.579,41.469-12.58,57.253,0l153.988,122.726
	c8.914,7.105,10.381,20.09,3.277,29.003C435.607,166.278,429.595,168.941,423.529,168.941z M250.751,41.816L250.751,41.816
	L250.751,41.816z M256.829,41.816L256.829,41.816L256.829,41.816z"/>
<path style="fill:#F21897;" d="M432.792,151.1c-4.759,0-9.55-1.552-13.56-4.748L256.827,16.917c-1.374-0.766-4.95-0.766-6.318,0.002
	L92.77,142.633c-7.359,5.866-17.338,6.171-24.929,1.53c-0.143,4.714,1.309,9.501,4.478,13.478
	c7.104,8.914,20.09,10.381,29.003,3.277L250.796,41.79c1.297-0.728,4.685-0.728,5.987-0.001l153.896,122.653
	c3.8,3.029,8.34,4.499,12.849,4.499c6.067,0,12.078-2.663,16.153-7.776c3.122-3.917,4.585-8.619,4.493-13.264
	C440.719,150.014,436.767,151.1,432.792,151.1z"/>
<circle style="fill:#696B70;" cx="256.001" cy="185.801" r="53.32"/>
<path style="fill:#5C5F63;" d="M223.289,185.803c0-25.92,18.5-47.511,43.014-52.312c-3.334-0.653-6.777-1.004-10.302-1.004
	c-29.446,0-53.316,23.871-53.316,53.316c0,29.446,23.871,53.316,53.316,53.316c3.525,0,6.968-0.351,10.302-1.004
	C241.789,233.314,223.289,211.723,223.289,185.803z"/>
<g>
</g>
<g>
</g>
<g>
</g>
<g>
</g>
<g>
</g>
<g>
</g>
<g>
</g>
<g>
</g>
<g>
</g>
<g>
</g>
<g>
</g>
<g>
</g>
<g>
</g>
<g>
</g>
<g>
</g>
</svg>
