<?xml version="1.0" encoding="iso-8859-1"?>
<!-- Generator: Adobe Illustrator 19.0.0, SVG Export Plug-In . SVG Version: 6.00 Build 0)  -->
<svg version="1.1" id="Capa_1" xmlns="http://www.w3.org/2000/svg" xmlns:xlink="http://www.w3.org/1999/xlink" x="0px" y="0px"
	 viewBox="0 0 512 512" style="enable-background:new 0 0 512 512;" xml:space="preserve">
<path style="fill:#BA7958;" d="M256,0c-52.269,0-94.017,44.677-89.379,97.674h178.758c0.229-2.614,0.368-5.254,0.368-7.927
	C345.747,40.181,305.566,0,256,0z"/>
<path style="fill:#996459;" d="M266.302,0.592C262.921,0.205,259.485,0,256,0c-52.269,0-94.017,44.677-89.379,97.674h20.605
	C182.906,48.318,218.871,6.014,266.302,0.592z"/>
<path style="fill:#FFBE26;" d="M281.114,235.911c-7.262,0-143.505,0-149.903,0l115.685,270.035c3.458,8.072,14.751,8.072,18.21,0
	L380.79,235.911C370.048,235.911,292.078,235.911,281.114,235.911z"/>
<path style="fill:#F99A25;" d="M152.96,235.911h-21.75l115.685,270.035c3.458,8.072,14.751,8.072,18.21,0l1.77-4.132L152.96,235.911
	z"/>
<path style="fill:#FCCC92;" d="M390.913,199.931c-11.433,0-247.566,0-258.781,0h-11.045c-7.709,0-14.017,6.307-14.017,14.017v11.681
	c0,7.709,6.308,14.017,14.017,14.017c6.97,0,153.085,0,160.027,0c12.292,0,97.755,0,109.799,0c7.709,0,14.017-6.307,14.017-14.017
	v-11.681C404.93,206.239,398.622,199.931,390.913,199.931z"/>
<path style="fill:#F9AF6E;" d="M390.913,221.045c-15.296,0-253.413,0-269.826,0c-6.514,0-12.011-4.51-13.564-10.557
	c-0.586,2.282-0.453,2.364-0.453,15.141c0,7.709,6.308,14.017,14.017,14.017c6.97,0,153.085,0,160.027,0
	c22.989,0,86.865,0,109.799,0c7.709,0,14.017-6.307,14.017-14.017c0-12.759,0.133-12.861-0.453-15.141
	C402.924,216.535,397.427,221.045,390.913,221.045z"/>
<path style="fill:#CC905E;" d="M256,59.956c-68.919,0-124.79,55.87-124.79,124.79c0,5.141,0.318,10.207,0.922,15.185h139.783
	c5.08,0,9.199,4.118,9.199,9.199v55.046c0,7.709,6.308,14.017,14.017,14.017h4.283c7.709,0,14.017-6.308,14.017-14.017v-21.609
	c0,7.709,6.307,14.017,14.017,14.017h4.283c7.709,0,14.017-6.308,14.017-14.017v-33.923c0-4.811,3.9-8.712,8.712-8.712h25.409
	C388.952,125.062,330.523,59.956,256,59.956z"/>
<g>
	<path style="fill:#BA7958;" d="M266.302,60.382c-73.14-5.98-135.092,51.718-135.092,124.364c0,5.141,0.318,10.207,0.922,15.185
		h20.605c-0.604-4.978-0.922-10.044-0.922-15.185C151.815,119.296,202.204,65.622,266.302,60.382z"/>
	<path style="fill:#BA7958;" d="M301.719,264.175V209.13c0-5.08-4.118-9.199-9.199-9.199h-20.605c5.08,0,9.199,4.118,9.199,9.199
		v55.046c0,7.709,6.307,14.017,14.017,14.017h4.283c3.042,0,5.857-0.993,8.161-2.655
		C304.039,272.986,301.719,268.843,301.719,264.175z"/>
</g>
<g>
</g>
<g>
</g>
<g>
</g>
<g>
</g>
<g>
</g>
<g>
</g>
<g>
</g>
<g>
</g>
<g>
</g>
<g>
</g>
<g>
</g>
<g>
</g>
<g>
</g>
<g>
</g>
<g>
</g>
</svg>
