<?xml version="1.0" encoding="iso-8859-1"?>
<!-- Generator: Adobe Illustrator 19.0.0, SVG Export Plug-In . SVG Version: 6.00 Build 0)  -->
<svg version="1.1" id="Capa_1" xmlns="http://www.w3.org/2000/svg" xmlns:xlink="http://www.w3.org/1999/xlink" x="0px" y="0px"
	 viewBox="0 0 512.001 512.001" style="enable-background:new 0 0 512.001 512.001;" xml:space="preserve">
<path style="fill:#AAE8FF;" d="M382.728,97.728c-4.22,2.018-9.02,2.965-14.017,2.521c-9.904-0.88-18.063-7.01-22.022-15.396
	c-0.382-0.808-1.3-1.191-2.17-0.987c-3.753,0.878-7.706,1.188-11.755,0.828c-20.455-1.817-35.564-19.873-33.747-40.328
	c0.122-1.369,0.323-2.71,0.589-4.026c0.094-0.465-0.159-0.915-0.602-1.086c-10.962-4.219-18.288-15.281-17.197-27.564
	c0.184-2.071,0.608-4.06,1.231-5.952c0.503-1.529-0.499-3.166-2.082-3.459C272.864,0.785,264.525,0,256.001,0l0,0
	C180.53,0,119.349,61.181,119.349,136.652c0,8.326,0,186.581,0,194.871h273.305V157.418v-20.766c0-12.725-1.743-25.043-4.997-36.731
	C387.066,97.803,384.712,96.779,382.728,97.728z"/>
<path style="fill:#6BD9FC;" d="M140.278,136.652c0-71.929,55.575-130.879,126.127-136.253C262.971,0.14,259.502,0,256.001,0l0,0
	C180.53,0,119.349,61.181,119.349,136.652v20.766v174.105h20.93C140.278,323.233,140.278,144.978,140.278,136.652z"/>
<path style="fill:#FCCC92;" d="M231.439,379.48c0,10.08,0,97.997,0,108.072v8.372c0,8.842,7.234,16.077,16.077,16.077h16.97
	c8.842,0,16.077-7.235,16.077-16.077v-8.372v-99.7v-8.372L231.439,379.48L231.439,379.48z"/>
<path style="fill:#F9AF6E;" d="M252.369,495.923v-8.372c0-10.074,0-97.992,0-108.072h-20.93c0,10.08,0,97.997,0,108.072v8.372
	c0,8.842,7.234,16.077,16.077,16.077h16.97c0.671,0,1.33-0.055,1.98-0.136C258.551,510.879,252.369,504.094,252.369,495.923z"/>
<path style="fill:#65AAFC;" d="M119.349,325.554c0,23.79,0,27.118,0,50.128c0,6.721,5.448,12.169,12.169,12.169h248.52
	c6.968,0,12.616-5.648,12.616-12.616c0-24.682,0-28.71,0-49.682H119.349V325.554z"/>
<path style="fill:#2E84FF;" d="M140.278,375.682c0-23.018,0-26.329,0-50.128h-20.93c0,23.79,0,27.118,0,50.128
	c0,6.721,5.448,12.169,12.169,12.169h20.93C145.727,387.852,140.278,382.403,140.278,375.682z"/>
<path style="fill:#6BD9FC;" d="M187.142,286.032h-7.644c-6.188,0-11.25-5.063-11.25-11.25V133.165c0-6.187,5.063-11.25,11.25-11.25
	h7.644c6.188,0,11.25,5.063,11.25,11.25v141.617C198.392,280.97,193.33,286.032,187.142,286.032z"/>
<path style="fill:#65AAFC;" d="M183.321,274.259V133.688c0-4.982,3.141-9.255,7.536-10.967c-1.318-0.513-2.743-0.806-4.237-0.806
	h-6.598c-6.475,0-11.773,5.298-11.773,11.773v140.571c0,6.475,5.298,11.773,11.773,11.773h6.598c1.494,0,2.919-0.293,4.237-0.806
	C186.462,283.514,183.321,279.241,183.321,274.259z"/>
<path style="fill:#6BD9FC;" d="M259.823,286.032h-7.644c-6.188,0-11.25-5.063-11.25-11.25V133.165c0-6.187,5.062-11.25,11.25-11.25
	h7.644c6.188,0,11.25,5.063,11.25,11.25v141.617C271.073,280.97,266.01,286.032,259.823,286.032z"/>
<path style="fill:#65AAFC;" d="M256.001,274.259V133.688c0-4.982,3.141-9.255,7.536-10.967c-1.318-0.513-2.743-0.806-4.237-0.806
	h-6.598c-6.475,0-11.773,5.298-11.773,11.773v140.571c0,6.475,5.298,11.773,11.773,11.773h6.598c1.494,0,2.919-0.293,4.237-0.806
	C259.142,283.514,256.001,279.241,256.001,274.259z"/>
<path style="fill:#6BD9FC;" d="M332.503,286.032h-7.644c-6.188,0-11.25-5.063-11.25-11.25V133.165c0-6.187,5.063-11.25,11.25-11.25
	h7.644c6.188,0,11.25,5.063,11.25,11.25v141.617C343.753,280.97,338.691,286.032,332.503,286.032z"/>
<path style="fill:#65AAFC;" d="M328.681,274.259V133.688c0-4.982,3.141-9.255,7.536-10.967c-1.318-0.513-2.743-0.806-4.237-0.806
	h-6.598c-6.475,0-11.773,5.298-11.773,11.773v140.571c0,6.475,5.298,11.773,11.773,11.773h6.598c1.494,0,2.919-0.293,4.237-0.806
	C331.822,283.514,328.681,279.241,328.681,274.259z"/>
<g>
</g>
<g>
</g>
<g>
</g>
<g>
</g>
<g>
</g>
<g>
</g>
<g>
</g>
<g>
</g>
<g>
</g>
<g>
</g>
<g>
</g>
<g>
</g>
<g>
</g>
<g>
</g>
<g>
</g>
</svg>
