<?xml version="1.0" encoding="iso-8859-1"?>
<!-- Generator: Adobe Illustrator 19.0.0, SVG Export Plug-In . SVG Version: 6.00 Build 0)  -->
<svg version="1.1" id="Capa_1" xmlns="http://www.w3.org/2000/svg" xmlns:xlink="http://www.w3.org/1999/xlink" x="0px" y="0px"
	 viewBox="0 0 512 512" style="enable-background:new 0 0 512 512;" xml:space="preserve">
<path style="fill:#CC905E;" d="M256,344.258H109.992l20.584,120.892c4.638,27.238,25.048,46.85,48.757,46.85H256h77.213
	c23.391,0,43.528-19.349,48.104-46.222l20.691-121.52L256,344.258L256,344.258z"/>
<path style="fill:#BA7958;" d="M151.901,466.059l-20.247-121.801h-21.662l20.584,120.892c4.638,27.238,25.048,46.85,48.757,46.85
	h8.391C169.836,506.221,155.667,488.716,151.901,466.059z"/>
<path style="fill:#6BD9FC;" d="M363.969,218.96c-14.123,0-208.987,0-215.937,0c-24.937,0-45.339,20.402-45.339,45.339
	s20.402,45.339,45.339,45.339c7.643,0,193.854,0,203.514,0h12.423c24.937,0,45.339-20.403,45.339-45.339
	S388.905,218.96,363.969,218.96z"/>
<path style="fill:#65AAFC;" d="M363.969,287.141c-6.658,0-208.121,0-215.937,0c-21.058,0-38.88-14.549-43.916-34.09
	c-7.408,28.739,14.616,56.588,43.916,56.588c7.643,0,193.854,0,203.514,0h12.423c29.292,0,51.327-27.838,43.916-56.588
	C402.849,272.592,385.026,287.141,363.969,287.141z"/>
<path style="fill:#F774C1;" d="M330.89,138.201c-4.967-0.765,4.886-0.525-137.519-0.525c-2.338,0-4.636,0.179-6.881,0.525
	c-21.702,3.34-38.458,22.215-38.458,44.814c0,24.939,20.404,45.339,45.339,45.339c142.352,0,132.559,0.239,137.519-0.525
	c21.702-3.34,38.458-22.215,38.458-44.814C369.348,160.416,352.592,141.541,330.89,138.201z"/>
<path style="fill:#F446AC;" d="M324.009,207.119c-140.998,0-132.823,0.198-137.519-0.525c-18.193-2.8-32.904-16.52-37.188-34.197
	c-0.826,3.409-1.27,6.963-1.27,10.617c0,24.939,20.404,45.339,45.339,45.339c142.352,0,132.559,0.239,137.519-0.525
	c21.702-3.34,38.458-22.215,38.458-44.814c0-3.654-0.444-7.208-1.27-10.617C363.266,192.254,345.296,207.119,324.009,207.119z"/>
<path style="fill:#FCCC92;" d="M408.316,344.98H103.684c-6.462,0-11.75-5.288-11.75-11.75v-12.786c0-6.462,5.287-11.75,11.75-11.75
	h304.633c6.462,0,11.75,5.287,11.75,11.75v12.786C420.066,339.692,414.779,344.98,408.316,344.98z"/>
<path style="fill:#F9AF6E;" d="M408.141,327.782H103.859c-5.744,0-10.573-4.116-11.684-9.544c-0.158,0.77-0.241,1.566-0.241,2.381
	v12.436c0,6.559,5.366,11.925,11.925,11.925h304.282c6.559,0,11.925-5.367,11.925-11.925v-12.436c0-0.815-0.083-1.611-0.241-2.381
	C418.714,323.666,413.885,327.782,408.141,327.782z"/>
<path style="fill:#CC905E;" d="M258.697,66.721c-0.371,0-0.746-0.027-1.123-0.083c-4.149-0.616-7.02-4.461-6.417-8.613
	c0.2-1.374,5.223-33.917,34.028-56.412c3.313-2.589,8.097-1.998,10.684,1.314c2.587,3.313,1.999,8.097-1.314,10.684
	c-23.848,18.624-28.294,46.348-28.336,46.626C265.648,64.008,262.4,66.721,258.697,66.721z"/>
<circle style="fill:#F21897;" cx="258.69" cy="105.01" r="45.891"/>
<path style="fill:#B72391;" d="M233.097,105.011c0-21.856,15.283-40.13,35.742-44.751c-3.267-0.738-6.66-1.14-10.149-1.14
	c-25.345,0-45.891,20.546-45.891,45.891s20.546,45.891,45.891,45.891c3.489,0,6.883-0.402,10.149-1.14
	C248.38,145.141,233.097,126.867,233.097,105.011z"/>
<path style="fill:#BA7958;" d="M186.454,387.174c-9.932,0-18.059,8.2-18.059,18.222v40.814c0,10.022,8.127,18.222,18.059,18.222
	s18.059-8.2,18.059-18.222v-40.814C204.513,395.374,196.386,387.174,186.454,387.174z"/>
<path style="fill:#996459;" d="M186.454,446.21v-40.814c0-6.705,3.647-12.58,9.029-15.744c-2.662-1.565-5.742-2.478-9.029-2.478
	c-9.932,0-18.059,8.2-18.059,18.222v40.814c0,10.022,8.127,18.222,18.059,18.222c3.287,0,6.367-0.913,9.029-2.478
	C190.102,458.789,186.454,452.915,186.454,446.21z"/>
<path style="fill:#BA7958;" d="M256,387.174c-9.932,0-18.059,8.2-18.059,18.222v40.814c0,10.022,8.127,18.222,18.059,18.222
	c9.932,0,18.059-8.2,18.059-18.222v-40.814C274.059,395.374,265.932,387.174,256,387.174z"/>
<path style="fill:#996459;" d="M256,446.21v-40.814c0-6.705,3.647-12.58,9.029-15.744c-2.662-1.565-5.742-2.478-9.029-2.478
	c-9.932,0-18.059,8.2-18.059,18.222v40.814c0,10.022,8.127,18.222,18.059,18.222c3.287,0,6.367-0.913,9.029-2.478
	C259.647,458.789,256,452.915,256,446.21z"/>
<path style="fill:#BA7958;" d="M325.546,387.174c-9.932,0-18.059,8.2-18.059,18.222v40.814c0,10.022,8.127,18.222,18.059,18.222
	c9.932,0,18.059-8.2,18.059-18.222v-40.814C343.605,395.374,335.478,387.174,325.546,387.174z"/>
<path style="fill:#996459;" d="M325.546,446.21v-40.814c0-6.705,3.647-12.58,9.029-15.744c-2.662-1.565-5.742-2.478-9.029-2.478
	c-9.932,0-18.059,8.2-18.059,18.222v40.814c0,10.022,8.127,18.222,18.059,18.222c3.287,0,6.367-0.913,9.029-2.478
	C329.193,458.789,325.546,452.915,325.546,446.21z"/>
<g>
</g>
<g>
</g>
<g>
</g>
<g>
</g>
<g>
</g>
<g>
</g>
<g>
</g>
<g>
</g>
<g>
</g>
<g>
</g>
<g>
</g>
<g>
</g>
<g>
</g>
<g>
</g>
<g>
</g>
</svg>
