<?xml version="1.0" encoding="iso-8859-1"?>
<!-- Generator: Adobe Illustrator 19.0.0, SVG Export Plug-In . SVG Version: 6.00 Build 0)  -->
<svg version="1.1" id="Capa_1" xmlns="http://www.w3.org/2000/svg" xmlns:xlink="http://www.w3.org/1999/xlink" x="0px" y="0px"
	 viewBox="0 0 512 512" style="enable-background:new 0 0 512 512;" xml:space="preserve">
<g>
	<path style="fill:#6BD9FC;" d="M253.092,0.602c1.242-0.802,2.859-0.802,4.101,0c11.622,7.507,19.302,20.436,19.302,35.137
		s-7.68,27.63-19.302,35.137c-1.242,0.802-2.859,0.802-4.101,0C241.47,63.369,233.79,50.44,233.79,35.739
		C233.791,21.038,241.47,8.109,253.092,0.602z"/>
	<path style="fill:#6BD9FC;" d="M332.386,31.246c1.455,0.297,2.598,1.422,2.9,2.853c2.823,13.394-1.039,27.879-11.604,38.274
		c-10.566,10.395-25.287,14.194-38.901,11.417c-1.455-0.297-2.598-1.422-2.9-2.853c-2.823-13.394,1.039-27.879,11.604-38.274
		C304.051,32.268,318.772,28.468,332.386,31.246z"/>
	<path style="fill:#6BD9FC;" d="M228.405,80.937c-0.302,1.431-1.445,2.557-2.9,2.853c-13.613,2.777-28.335-1.022-38.901-11.417
		C176.038,61.977,172.177,47.492,175,34.098c0.302-1.431,1.445-2.557,2.9-2.853c13.613-2.777,28.335,1.022,38.901,11.417
		C227.366,53.057,231.228,67.543,228.405,80.937z"/>
</g>
<g>
	<path style="fill:#65AAFC;" d="M252.599,35.738c0-11.311,4.558-21.561,11.948-29.112c-2.215-2.263-4.674-4.294-7.354-6.025
		c-1.242-0.802-2.859-0.802-4.101,0C241.47,8.109,233.79,21.038,233.79,35.738s7.68,27.63,19.302,35.137
		c1.242,0.802,2.859,0.802,4.101,0c2.68-1.731,5.139-3.762,7.354-6.025C257.157,57.299,252.599,47.049,252.599,35.738z"/>
	<path style="fill:#65AAFC;" d="M300.69,80.937c-2.823-13.394,1.038-27.879,11.604-38.274c5.901-5.806,13.099-9.55,20.676-11.244
		c-0.188-0.072-0.382-0.132-0.584-0.173c-13.613-2.777-28.335,1.022-38.901,11.417s-14.427,24.88-11.604,38.274
		c0.302,1.431,1.445,2.557,2.9,2.853c6.01,1.226,12.235,1.166,18.225-0.173C301.836,83.172,300.95,82.17,300.69,80.937z"/>
	<path style="fill:#65AAFC;" d="M205.413,72.373c-10.565-10.395-14.427-24.88-11.604-38.274c0.26-1.233,1.146-2.235,2.316-2.68
		c-5.989-1.339-12.215-1.399-18.225-0.173c-1.455,0.297-2.598,1.422-2.9,2.853c-2.823,13.394,1.038,27.879,11.604,38.274
		c10.565,10.395,25.287,14.194,38.901,11.417c0.202-0.041,0.396-0.102,0.584-0.173C218.512,81.923,211.314,78.179,205.413,72.373z"
		/>
</g>
<ellipse style="fill:#FFBE26;" cx="255.139" cy="106.299" rx="35.39" ry="34.82"/>
<path style="fill:#F99A25;" d="M236.141,106.297c0-16.454,11.603-30.233,27.196-33.871c-2.631-0.614-5.372-0.949-8.194-0.949
	c-19.545,0-35.39,15.589-35.39,34.82c0,19.23,15.845,34.82,35.39,34.82c2.822,0,5.563-0.334,8.194-0.948
	C247.745,136.529,236.141,122.751,236.141,106.297z"/>
<path style="fill:#F446AC;" d="M255.143,306.999H134.49l105.66,195.98c6.485,12.028,23.502,12.028,29.986,0l105.66-195.98
	L255.143,306.999L255.143,306.999z"/>
<path style="fill:#F21897;" d="M262.78,502.979l-105.66-195.98h-22.63l105.661,195.98c5.484,10.172,18.5,11.74,26.309,4.707
	C265.034,506.402,263.781,504.835,262.78,502.979z"/>
<polygon style="fill:#F774C1;" points="331.214,306.999 287.99,306.999 211.239,449.355 232.852,489.441 "/>
<polygon style="fill:#F446AC;" points="222.554,428.368 211.239,449.355 216.189,458.536 232.852,489.441 244.167,468.454 "/>
<polygon style="fill:#F774C1;" points="242.705,306.999 199.481,306.999 166.985,367.272 188.597,407.359 "/>
<polygon style="fill:#F446AC;" points="166.985,367.272 188.597,407.359 199.913,386.371 178.3,346.284 "/>
<path style="fill:#FCCC92;" d="M385.501,267.07h-35.332h-41.333H201.451h-41.333h-35.333c-8.342,0-15.166,6.825-15.166,15.166
	v12.679c0,8.342,6.825,15.166,15.166,15.166h35.333h41.333h107.385h41.333h35.333c8.342,0,15.166-6.825,15.166-15.166v-12.679
	C400.668,273.895,393.843,267.07,385.501,267.07z"/>
<path style="fill:#F9AF6E;" d="M385.501,288.576h-35.332h-41.333H201.451h-41.333h-35.333c-6.808,0-12.601-4.547-14.503-10.753
	c-0.429,1.398-0.663,2.879-0.663,4.413v12.679c0,8.342,6.825,15.166,15.166,15.166h35.333h41.333h107.385h41.333h35.333
	c8.342,0,15.166-6.825,15.166-15.166v-12.679c0-1.534-0.234-3.015-0.663-4.413C398.103,284.029,392.309,288.576,385.501,288.576z"/>
<g>
	<path style="fill:#AAE8FF;" d="M178.733,77.842c1.242-0.802,2.859-0.802,4.101,0c11.622,7.507,19.302,20.436,19.302,35.137
		s-7.68,27.63-19.302,35.137c-1.242,0.802-2.859,0.802-4.101,0c-11.622-7.507-19.302-20.436-19.302-35.137
		C159.432,98.278,167.111,85.35,178.733,77.842z"/>
	<path style="fill:#AAE8FF;" d="M178.733,226.559c1.242-0.802,2.859-0.802,4.101,0c11.622,7.507,19.302,20.436,19.302,35.137
		c0,14.701-7.68,27.63-19.302,35.137c-1.242,0.802-2.859,0.802-4.101,0c-11.622-7.507-19.302-20.436-19.302-35.137
		C159.432,246.995,167.111,234.067,178.733,226.559z"/>
	<path style="fill:#AAE8FF;" d="M258.027,108.486c1.455,0.297,2.599,1.422,2.9,2.853c2.823,13.394-1.039,27.879-11.604,38.274
		c-10.566,10.395-25.287,14.194-38.901,11.417c-1.455-0.297-2.598-1.422-2.9-2.853c-2.823-13.394,1.039-27.879,11.604-38.274
		C229.692,109.508,244.413,105.709,258.027,108.486z"/>
	<path style="fill:#AAE8FF;" d="M151.146,213.645c1.455,0.297,2.598,1.422,2.9,2.853c2.823,13.394-1.039,27.879-11.604,38.274
		c-10.566,10.395-25.287,14.194-38.901,11.417c-1.455-0.297-2.598-1.422-2.9-2.853c-2.823-13.394,1.039-27.879,11.604-38.274
		C122.811,214.667,137.532,210.868,151.146,213.645z"/>
</g>
<path style="fill:#FFBE26;" d="M292.073,185.32c0.815,1.222,0.815,2.813,0,4.035c-16.901,25.329-54.553,25.285-71.425,0
	c-0.815-1.222-0.815-2.813,0-4.035C237.549,159.992,275.201,160.035,292.073,185.32z"/>
<g>
	<path style="fill:#AAE8FF;" d="M140.92,185.32c0.815,1.222,0.815,2.813,0,4.035c-7.63,11.435-20.771,18.991-35.712,18.991
		c-14.942,0-28.082-7.556-35.712-18.991c-0.815-1.222-0.815-2.813,0-4.035c7.63-11.435,20.77-18.991,35.712-18.991
		S133.29,173.885,140.92,185.32z"/>
	<path style="fill:#AAE8FF;" d="M260.927,263.337c-0.302,1.431-1.445,2.557-2.9,2.853c-13.613,2.777-28.335-1.022-38.901-11.417
		c-10.566-10.395-14.427-24.88-11.604-38.274c0.302-1.431,1.445-2.557,2.9-2.853C240.524,207.505,267.179,233.669,260.927,263.337z"
		/>
	<path style="fill:#AAE8FF;" d="M154.046,158.177c-0.302,1.431-1.445,2.557-2.9,2.853c-13.613,2.777-28.335-1.022-38.901-11.417
		s-14.427-24.88-11.604-38.274c0.302-1.431,1.445-2.557,2.9-2.853c13.613-2.777,28.335,1.022,38.901,11.417
		C153.007,130.298,156.869,144.783,154.046,158.177z"/>
</g>
<g>
	<path style="fill:#6BD9FC;" d="M178.24,112.979c0-11.311,4.558-21.561,11.948-29.112c-2.215-2.263-4.674-4.294-7.354-6.025
		c-1.242-0.802-2.859-0.802-4.101,0c-11.622,7.507-19.302,20.436-19.302,35.137s7.68,27.63,19.302,35.137
		c1.242,0.802,2.859,0.802,4.101,0c2.68-1.731,5.139-3.762,7.354-6.025C182.798,134.539,178.24,124.29,178.24,112.979z"/>
	<path style="fill:#6BD9FC;" d="M178.24,261.698c0-11.311,4.558-21.561,11.948-29.112c-2.215-2.263-4.674-4.294-7.354-6.025
		c-1.242-0.802-2.859-0.802-4.101,0c-11.622,7.507-19.302,20.436-19.302,35.137c0,14.701,7.68,27.63,19.302,35.137
		c1.242,0.802,2.859,0.802,4.101,0c2.68-1.731,5.139-3.762,7.354-6.025C182.798,283.259,178.24,273.009,178.24,261.698z"/>
	<path style="fill:#6BD9FC;" d="M226.331,158.177c-2.823-13.394,1.038-27.879,11.604-38.274c5.901-5.806,13.099-9.55,20.676-11.244
		c-0.188-0.072-0.382-0.132-0.584-0.173c-13.613-2.777-28.335,1.022-38.901,11.417c-10.566,10.395-14.427,24.88-11.604,38.274
		c0.302,1.431,1.445,2.557,2.9,2.853c6.01,1.226,12.235,1.166,18.225-0.173C227.477,160.412,226.591,159.41,226.331,158.177z"/>
	<path style="fill:#6BD9FC;" d="M119.45,263.337c-2.823-13.394,1.039-27.879,11.604-38.274c5.901-5.806,13.099-9.55,20.676-11.244
		c-0.188-0.072-0.382-0.132-0.584-0.173c-13.614-2.777-28.335,1.022-38.901,11.417c-10.566,10.395-14.427,24.88-11.604,38.274
		c0.302,1.431,1.445,2.557,2.9,2.853c6.01,1.226,12.236,1.166,18.225-0.173C120.596,265.573,119.71,264.57,119.45,263.337z"/>
</g>
<path style="fill:#F99A25;" d="M239.457,189.355c-0.815-1.222-0.815-2.813,0-4.035c5.978-8.96,15.348-15.518,26.308-17.946
	c-17.935-3.973-35.595,3.677-45.117,17.946c-0.815,1.222-0.815,2.813,0,4.035c9.525,14.275,27.188,21.918,45.117,17.946
	C254.804,204.874,245.435,198.315,239.457,189.355z"/>
<g>
	<path style="fill:#6BD9FC;" d="M88.304,189.355c-0.815-1.222-0.815-2.813,0-4.035c5.978-8.96,15.347-15.518,26.308-17.946
		c-3.028-0.671-6.17-1.044-9.404-1.044c-14.942,0-28.082,7.556-35.712,18.991c-0.815,1.222-0.815,2.813,0,4.035
		c7.63,11.435,20.77,18.991,35.712,18.991c3.234,0,6.377-0.374,9.404-1.045C103.652,204.873,94.283,198.315,88.304,189.355z"/>
	<path style="fill:#6BD9FC;" d="M237.935,254.773c-10.566-10.395-14.427-24.88-11.604-38.274c0.26-1.233,1.146-2.235,2.316-2.68
		c-5.989-1.339-12.214-1.399-18.225-0.173c-1.455,0.297-2.598,1.422-2.9,2.853c-2.823,13.394,1.039,27.879,11.604,38.274
		c10.565,10.395,25.287,14.194,38.901,11.417c0.202-0.041,0.396-0.102,0.584-0.173C251.034,264.323,243.836,260.579,237.935,254.773
		z"/>
	<path style="fill:#6BD9FC;" d="M131.054,149.613c-10.565-10.395-14.427-24.88-11.604-38.274c0.26-1.233,1.146-2.235,2.316-2.68
		c-5.989-1.339-12.215-1.399-18.225-0.173c-1.455,0.297-2.598,1.422-2.9,2.853c-2.823,13.394,1.038,27.879,11.604,38.274
		c10.565,10.395,25.287,14.194,38.901,11.417c0.202-0.041,0.396-0.102,0.584-0.173C144.153,159.163,136.955,155.419,131.054,149.613
		z"/>
</g>
<ellipse style="fill:#FFE44C;" cx="180.779" cy="187.339" rx="39.25" ry="38.62"/>
<path style="fill:#FFC200;" d="M159.708,187.337c0-18.25,12.87-33.532,30.164-37.568c-24.808-5.789-48.341,12.761-48.341,37.568
	c0,21.329,17.574,38.62,39.253,38.62c3.13,0,6.17-0.371,9.088-1.052C172.578,220.87,159.708,205.587,159.708,187.337z"/>
<g>
	<path style="fill:#AAE8FF;" d="M329.163,77.842c1.242-0.802,2.859-0.802,4.101,0c11.622,7.507,19.302,20.436,19.302,35.137
		s-7.68,27.63-19.302,35.137c-1.242,0.802-2.859,0.802-4.101,0c-11.622-7.507-19.302-20.436-19.302-35.137
		C309.862,98.278,317.541,85.35,329.163,77.842z"/>
	<path style="fill:#AAE8FF;" d="M329.163,226.559c1.242-0.802,2.859-0.802,4.101,0c11.622,7.507,19.302,20.436,19.302,35.137
		c0,14.701-7.68,27.63-19.302,35.137c-1.242,0.802-2.859,0.802-4.101,0c-11.622-7.507-19.302-20.436-19.302-35.137
		C309.862,246.995,317.541,234.067,329.163,226.559z"/>
	<path style="fill:#AAE8FF;" d="M408.457,108.486c1.455,0.297,2.599,1.422,2.9,2.853c2.823,13.394-1.039,27.879-11.604,38.274
		c-10.566,10.395-25.287,14.194-38.901,11.417c-1.455-0.297-2.599-1.422-2.9-2.853c-2.823-13.394,1.039-27.879,11.604-38.274
		S394.843,105.709,408.457,108.486z"/>
	<path style="fill:#AAE8FF;" d="M301.576,213.645c1.455,0.297,2.598,1.422,2.9,2.853c2.823,13.394-1.039,27.879-11.604,38.274
		c-10.566,10.395-25.287,14.194-38.901,11.417c-1.455-0.297-2.598-1.422-2.9-2.853c-2.823-13.394,1.039-27.879,11.604-38.274
		S287.962,210.868,301.576,213.645z"/>
	<path style="fill:#AAE8FF;" d="M442.503,185.32c0.815,1.222,0.815,2.813,0,4.035c-7.63,11.435-20.771,18.991-35.712,18.991
		c-14.942,0-28.082-7.556-35.712-18.991c-0.815-1.222-0.815-2.813,0-4.035c7.63-11.435,20.77-18.991,35.712-18.991
		C421.732,166.329,434.872,173.885,442.503,185.32z"/>
	<path style="fill:#AAE8FF;" d="M291.35,185.32c0.815,1.222,0.815,2.813,0,4.035c-16.901,25.329-54.553,25.285-71.425,0
		c-0.815-1.222-0.815-2.813,0-4.035C236.827,159.992,274.478,160.035,291.35,185.32z"/>
	<path style="fill:#AAE8FF;" d="M411.357,263.337c-0.302,1.431-1.445,2.557-2.9,2.853c-13.613,2.777-28.335-1.022-38.901-11.417
		s-14.427-24.88-11.604-38.274c0.302-1.431,1.445-2.557,2.9-2.853c13.613-2.777,28.335,1.022,38.901,11.417
		C410.318,235.457,414.18,249.942,411.357,263.337z"/>
	<path style="fill:#AAE8FF;" d="M304.476,158.177c-0.302,1.431-1.445,2.557-2.9,2.853c-13.613,2.777-28.335-1.022-38.901-11.417
		c-10.566-10.395-14.427-24.88-11.604-38.274c0.302-1.431,1.445-2.557,2.9-2.853c13.613-2.777,28.335,1.022,38.901,11.417
		C303.437,130.298,307.299,144.783,304.476,158.177z"/>
</g>
<g>
	<path style="fill:#6BD9FC;" d="M328.67,112.979c0-11.311,4.558-21.561,11.948-29.112c-2.215-2.263-4.674-4.294-7.354-6.025
		c-1.242-0.802-2.859-0.802-4.101,0c-11.622,7.507-19.302,20.436-19.302,35.137s7.68,27.63,19.302,35.137
		c1.242,0.802,2.859,0.802,4.101,0c2.68-1.731,5.139-3.762,7.354-6.025C333.228,134.539,328.67,124.29,328.67,112.979z"/>
	<path style="fill:#6BD9FC;" d="M328.67,261.698c0-11.311,4.558-21.561,11.948-29.112c-2.215-2.263-4.674-4.294-7.354-6.025
		c-1.242-0.802-2.859-0.802-4.101,0c-11.622,7.507-19.302,20.436-19.302,35.137c0,14.701,7.68,27.63,19.302,35.137
		c1.242,0.802,2.859,0.802,4.101,0c2.68-1.731,5.139-3.762,7.354-6.025C333.228,283.259,328.67,273.009,328.67,261.698z"/>
	<path style="fill:#6BD9FC;" d="M376.761,158.177c-2.823-13.394,1.038-27.879,11.604-38.274c5.901-5.806,13.099-9.55,20.676-11.244
		c-0.188-0.072-0.382-0.132-0.584-0.173c-13.613-2.777-28.335,1.022-38.901,11.417s-14.427,24.88-11.604,38.274
		c0.302,1.431,1.445,2.557,2.9,2.853c6.01,1.226,12.235,1.166,18.225-0.173C377.907,160.412,377.021,159.41,376.761,158.177z"/>
	<path style="fill:#6BD9FC;" d="M269.88,263.337c-2.823-13.394,1.039-27.879,11.604-38.274c5.901-5.806,13.099-9.55,20.676-11.244
		c-0.188-0.072-0.382-0.132-0.584-0.173c-13.614-2.777-28.335,1.022-38.901,11.417c-10.566,10.395-14.427,24.88-11.604,38.274
		c0.302,1.431,1.445,2.557,2.9,2.853c6.01,1.226,12.236,1.166,18.225-0.173C271.026,265.573,270.14,264.57,269.88,263.337z"/>
	<path style="fill:#6BD9FC;" d="M389.887,189.355c-0.815-1.222-0.815-2.813,0-4.035c5.978-8.96,15.348-15.518,26.308-17.946
		c-3.028-0.671-6.17-1.044-9.404-1.044c-14.942,0-28.082,7.556-35.712,18.991c-0.815,1.222-0.815,2.813,0,4.035
		c7.63,11.435,20.77,18.991,35.712,18.991c3.234,0,6.377-0.374,9.404-1.045C405.234,204.874,395.865,198.315,389.887,189.355z"/>
	<path style="fill:#6BD9FC;" d="M238.734,189.355c-0.815-1.222-0.815-2.813,0-4.035c5.978-8.96,15.348-15.518,26.308-17.946
		c-17.935-3.973-35.595,3.677-45.117,17.946c-0.815,1.222-0.815,2.813,0,4.035c9.525,14.275,27.188,21.918,45.117,17.946
		C254.082,204.873,244.713,198.315,238.734,189.355z"/>
	<path style="fill:#6BD9FC;" d="M388.365,254.773c-10.566-10.395-14.427-24.88-11.604-38.274c0.26-1.233,1.146-2.235,2.316-2.68
		c-5.989-1.339-12.215-1.399-18.225-0.173c-1.455,0.297-2.598,1.422-2.9,2.853c-2.823,13.394,1.039,27.879,11.604,38.274
		c10.565,10.395,25.287,14.194,38.901,11.417c0.202-0.041,0.396-0.102,0.584-0.173C401.464,264.323,394.266,260.579,388.365,254.773
		z"/>
	<path style="fill:#6BD9FC;" d="M281.484,149.613c-10.565-10.395-14.427-24.88-11.604-38.274c0.26-1.233,1.146-2.235,2.316-2.68
		c-5.989-1.339-12.215-1.399-18.225-0.173c-1.455,0.297-2.598,1.422-2.9,2.853c-2.823,13.394,1.038,27.879,11.604,38.274
		c10.565,10.395,25.287,14.194,38.901,11.417c0.202-0.041,0.396-0.102,0.584-0.173C294.583,159.163,287.385,155.419,281.484,149.613
		z"/>
</g>
<ellipse style="fill:#FFE44C;" cx="331.209" cy="187.339" rx="39.25" ry="38.62"/>
<path style="fill:#FFC200;" d="M310.138,187.337c0-18.25,12.87-33.532,30.164-37.568c-2.918-0.681-5.958-1.052-9.088-1.052
	c-21.679,0-39.253,17.291-39.253,38.62s17.574,38.62,39.253,38.62c3.13,0,6.17-0.371,9.088-1.052
	C323.008,220.87,310.138,205.587,310.138,187.337z"/>
<g>
</g>
<g>
</g>
<g>
</g>
<g>
</g>
<g>
</g>
<g>
</g>
<g>
</g>
<g>
</g>
<g>
</g>
<g>
</g>
<g>
</g>
<g>
</g>
<g>
</g>
<g>
</g>
<g>
</g>
</svg>
