<?xml version="1.0" encoding="iso-8859-1"?>
<!-- Generator: Adobe Illustrator 19.0.0, SVG Export Plug-In . SVG Version: 6.00 Build 0)  -->
<svg version="1.1" id="Capa_1" xmlns="http://www.w3.org/2000/svg" xmlns:xlink="http://www.w3.org/1999/xlink" x="0px" y="0px"
	 viewBox="0 0 511.999 511.999" style="enable-background:new 0 0 511.999 511.999;" xml:space="preserve">
<g>
	<path style="fill:#FFBE26;" d="M402.156,296.736l9.355-8.723c0.857-0.799,2.185-0.799,3.042,0l9.425,8.788
		c1.725,1.607,4.535,0.385,4.535-1.972c0-11.15,0-103.604,0-114.489l-30.963,37.044c0,15.095,0,61.949,0,77.35
		C397.551,297.127,400.406,298.367,402.156,296.736z"/>
	<path style="fill:#FFBE26;" d="M70.029,294.828c0,2.357,2.811,3.579,4.536,1.972l9.425-8.788c0.857-0.799,2.185-0.799,3.042,0
		l9.355,8.723c1.751,1.632,4.605,0.391,4.605-2.002c0-23.06,0-54.21,0-77.35L70.029,180.34
		C70.029,191.227,70.029,283.676,70.029,294.828z"/>
	<path style="fill:#FFBE26;" d="M392.682,347.527h-18.348c-27.782,0-50.385,22.603-50.385,50.385c0,13.848,0,54.985,0,63.872
		c0,11.715-9.531,21.244-21.245,21.244h-18.687c-11.714,0-21.245-9.53-21.245-21.244V345.995l-3.149,3.149
		c-5.692,5.692-15.007,5.692-20.699,0l-5.122-5.122v117.761c0,27.688,22.527,50.215,50.216,50.215h18.687
		c27.689,0,50.216-22.527,50.216-50.215c0-23.102,0-40.746,0-63.872c0-11.808,9.606-21.414,21.414-21.414h18.348
		c11.808,0,21.414,9.606,21.414,21.414v25.244c0,8.001,6.486,14.485,14.485,14.485c7.999,0,14.485-6.485,14.485-14.485v-25.244
		C443.067,370.131,420.464,347.527,392.682,347.527z"/>
	<path style="fill:#FFBE26;" d="M402.156,296.736l9.355-8.723c0.857-0.799,2.185-0.799,3.042,0l9.425,8.788
		c1.725,1.607,4.535,0.385,4.535-1.972c0-11.15,0-103.604,0-114.489l-30.963,37.044c0,15.095,0,61.949,0,77.35
		C397.551,297.127,400.406,298.367,402.156,296.736z"/>
	<path style="fill:#FFBE26;" d="M70.029,294.828c0,2.357,2.811,3.579,4.536,1.972l9.425-8.788c0.857-0.799,2.185-0.799,3.042,0
		l9.355,8.723c1.751,1.632,4.605,0.391,4.605-2.002c0-23.06,0-54.21,0-77.35L70.029,180.34
		C70.029,191.227,70.029,283.676,70.029,294.828z"/>
</g>
<g>
	<path style="fill:#F99A25;" d="M413.033,198.862l-15.482,18.522c0,15.095,0,61.949,0,77.35c0,2.393,2.854,3.635,4.605,2.002
		c10.199-9.508,9.705-9.321,10.877-9.321C413.033,235.86,413.033,318.446,413.033,198.862z"/>
	<path style="fill:#F99A25;" d="M85.511,198.862L70.029,180.34c0,10.887,0,103.336,0,114.489c0,2.357,2.811,3.579,4.536,1.972
		c10.204-9.514,9.773-9.386,10.947-9.386C85.511,278.135,85.511,209.183,85.511,198.862z"/>
	<path style="fill:#F99A25;" d="M338.392,461.784c0-76.471,0-52.515,0-63.872c0-27.782,22.602-50.385,50.385-50.385h-14.443
		c-27.782,0-50.385,22.603-50.385,50.385c0,13.848,0,54.985,0,63.872c0,11.715-9.531,21.244-21.245,21.244h14.443
		C328.86,483.029,338.392,473.499,338.392,461.784z"/>
	<path style="fill:#F99A25;" d="M248.244,461.784v-108.42c-6.705-0.466-9.568-4.468-14.443-9.341v117.761
		c0,27.688,22.527,50.215,50.216,50.215h14.443C270.771,512,248.244,489.472,248.244,461.784z"/>
	<path style="fill:#F99A25;" d="M428.539,423.157v-25.244c0-11.808-9.606-21.414-21.414-21.414h-14.443
		c11.808,0,21.414,9.606,21.414,21.414v25.244c0,11.129,12.068,18.106,21.707,12.544
		C431.465,433.199,428.539,428.524,428.539,423.157z"/>
</g>
<path style="fill:#F446AC;" d="M426.112,188.823L257.755,357.18c-4.666,4.666-12.301,4.666-16.966,0L72.432,188.823
	c-4.666-4.666-4.666-12.301,0-16.966L240.789,3.499c4.666-4.666,12.301-4.666,16.966,0l168.357,168.357
	C430.778,176.522,430.778,184.157,426.112,188.823z"/>
<path style="fill:#F21897;" d="M94.191,189.064c-4.798-4.798-4.798-12.649,0-17.448l165.84-165.84l-2.034-2.034
	c-4.799-4.798-12.649-4.798-17.448,0L72.673,171.616c-4.799,4.798-4.799,12.649,0,17.448l167.875,167.875
	c4.798,4.798,12.649,4.798,17.448,0l2.034-2.034L94.191,189.064z"/>
<g>
	<path style="fill:#B72391;" d="M249.273,321.75c-4.259,0-7.711-3.452-7.711-7.711V46.309c0-4.259,3.452-7.711,7.711-7.711
		c4.259,0,7.711,3.452,7.711,7.711v267.73C256.983,318.298,253.53,321.75,249.273,321.75z"/>
	<path style="fill:#B72391;" d="M383.137,187.885H115.407c-4.259,0-7.711-3.452-7.711-7.711c0-4.259,3.452-7.711,7.711-7.711
		h267.731c4.259,0,7.711,3.452,7.711,7.711C390.848,184.433,387.396,187.885,383.137,187.885z"/>
</g>
<g>
</g>
<g>
</g>
<g>
</g>
<g>
</g>
<g>
</g>
<g>
</g>
<g>
</g>
<g>
</g>
<g>
</g>
<g>
</g>
<g>
</g>
<g>
</g>
<g>
</g>
<g>
</g>
<g>
</g>
</svg>
