<?xml version="1.0" encoding="iso-8859-1"?>
<!-- Generator: Adobe Illustrator 19.0.0, SVG Export Plug-In . SVG Version: 6.00 Build 0)  -->
<svg version="1.1" id="Capa_1" xmlns="http://www.w3.org/2000/svg" xmlns:xlink="http://www.w3.org/1999/xlink" x="0px" y="0px"
	 viewBox="0 0 512 512" style="enable-background:new 0 0 512 512;" xml:space="preserve">
<path style="fill:#E2E2E2;" d="M121.543,51.461H81.851c-39.026,0-70.774,31.749-70.774,70.774v79.491
	c1.472-0.223,30.465-0.296,32.416,0.016v-79.507c0-21.151,17.207-38.359,38.359-38.359h39.691c8.951,0,16.208-7.257,16.208-16.208
	S130.494,51.461,121.543,51.461z"/>
<g>
	<path style="fill:#D3D3D3;" d="M41.46,201.566c0.693,0,1.368,0.071,2.032,0.177v-0.177H41.46z"/>
	<path style="fill:#D3D3D3;" d="M27.558,122.236c0-39.026,31.749-70.774,70.774-70.774H81.851
		c-39.026,0-70.774,31.749-70.774,70.774v79.491c1.419-0.215,0.402-0.161,16.481-0.161
		C27.558,201.566,27.558,122.236,27.558,122.236z"/>
</g>
<path style="fill:#E2E2E2;" d="M468.751,201.703c1.398-0.195,30.489-0.269,32.416,0.062v-79.53
	c0-39.026-31.749-70.774-70.774-70.774h-39.691c-8.951,0-16.208,7.256-16.208,16.208c0,8.951,7.257,16.208,16.208,16.208h39.691
	c21.152,0,38.359,17.208,38.359,38.359v79.467H468.751z"/>
<path style="fill:#D3D3D3;" d="M485.394,122.236c0-21.151-17.207-38.359-38.359-38.359h-16.643
	c21.152,0,38.359,17.208,38.359,38.359v79.468c1.318-0.184,0.173-0.138,16.642-0.138v-79.33H485.394z"/>
<path style="fill:#696B70;" d="M498.983,195.385h-28.454c-7.132,0-12.966,5.835-12.966,12.966c0,11.515,0,21.389,0,33.006h20.655
	c15.524,0,28.623,10.544,32.535,24.844c1.622-3.51,1.197-0.555,1.197-57.849C511.95,201.22,506.115,195.385,498.983,195.385z"/>
<path style="fill:#5C5F63;" d="M481.748,224.609h0.279c0-5.791,0-10.684,0-16.258c0-7.132,5.835-12.966,12.966-12.966h-24.464
	c-7.132,0-12.966,5.835-12.966,12.966c0,11.515,0,21.389,0,33.006c22.745,0,21.756-0.063,24.185,0.191V224.609z"/>
<path style="fill:#696B70;" d="M41.46,195.385H13.006c-7.132,0-12.966,5.835-12.966,12.966c0,57.331-0.36,54.31,1.08,57.606
	c3.713-14.139,16.601-24.6,31.89-24.6h21.417c0-2.984,0-29.215,0-33.006C54.427,201.22,48.592,195.385,41.46,195.385z"/>
<path style="fill:#5C5F63;" d="M20.641,208.352c0-7.132,5.835-12.966,12.966-12.966H13.006c-7.132,0-12.966,5.835-12.966,12.966
	c0,57.331-0.36,54.31,1.08,57.606c2.255-8.586,12.017-15.81,19.522-20.165C20.641,232.324,20.641,221.539,20.641,208.352z"/>
<path style="fill:#F21897;" d="M478.218,230.026h-86.15c-0.937,0-1.863,0.081-2.772,0.238
	c-54.695,3.458-98.451,44.569-106.518,97.385c0,0-1.49,16.185,0.24,36.789c3.93,23.648,15.119,45.413,32.482,62.646
	c21.755,21.595,50.555,33.455,81.185,33.455c0.292,0,0.587-0.001,0.88-0.003c63.072-0.468,114.385-52.728,114.385-116.497v-80.281
	C511.95,245.159,496.818,230.026,478.218,230.026z M479.534,344.039c0,46.027-36.879,83.746-82.21,84.082
	c-0.212,0.002-0.421,0.002-0.632,0.002c-22.017,0-42.721-8.525-58.356-24.045c-50.663-50.289-17.958-138.227,54.494-141.543
	c0.384-0.017,0.765-0.049,1.144-0.093c90.22,0,85.56-0.564,85.56,1.316L479.534,344.039L479.534,344.039z"/>
<g>
	<path style="fill:#B72391;" d="M415.35,428.121c45.331-0.336,82.21-38.055,82.21-84.082v-80.281c0-0.725-0.59-1.316-1.316-1.316
		h-18.026c1.877,0,1.316-4.337,1.316,81.597c0,43.15-32.414,78.999-73.817,83.588c2.97,0.319,5.972,0.496,9.001,0.496
		C414.929,428.123,415.138,428.123,415.35,428.121z"/>
	<path style="fill:#B72391;" d="M301.044,364.438c-1.73-20.604-0.24-36.789-0.24-36.789c8.067-52.815,51.824-93.927,106.518-97.385
		c0.908-0.157,1.835-0.238,2.772-0.238h-18.026c-0.937,0-1.863,0.081-2.772,0.238c-54.695,3.458-98.451,44.569-106.518,97.385
		c0,0-1.49,16.185,0.24,36.789c3.93,23.648,15.119,45.413,32.482,62.646c21.755,21.595,50.555,33.455,81.185,33.455
		c0.292,0,0.587-0.001,0.88-0.003c2.713-0.02,5.402-0.143,8.069-0.351C352.285,456.057,309.564,415.707,301.044,364.438z"/>
</g>
<path style="fill:#F21897;" d="M229.027,326.481c-8.53-52.252-52.044-92.784-106.334-96.216c-0.908-0.157-1.835-0.238-2.772-0.238
	H33.01c-18.18,0-32.97,14.79-32.97,32.97v81.043c0,63.769,51.313,116.029,114.385,116.497c0.295,0.002,0.586,0.003,0.88,0.003
	c57.905-0.002,105.192-42.457,113.813-97.006C230.741,353.612,229.027,326.481,229.027,326.481z M173.653,404.078
	c-15.785,15.669-36.736,24.197-58.988,24.043c-45.33-0.336-82.21-38.055-82.21-84.082c0-86.199-0.308-81.597,0.554-81.597h85.006
	c0.379,0.044,0.76,0.075,1.144,0.093C191.685,265.855,224.249,353.856,173.653,404.078z"/>
<g>
	<path style="fill:#B72391;" d="M123.926,427.661c2.631,0.279,5.296,0.44,7.994,0.46c22.252,0.155,43.203-8.374,58.988-24.043
		c50.663-50.289,17.958-138.227-54.494-141.543c-0.384-0.017-0.765-0.049-1.144-0.093h-17.254c0.379,0.044,0.76,0.075,1.144,0.093
		c72.525,3.32,105.09,91.321,54.494,141.543C160.079,417.552,142.682,425.728,123.926,427.661z"/>
	<path style="fill:#B72391;" d="M17.294,344.039v-81.043c0-18.18,14.79-32.97,32.97-32.97H33.01c-18.18,0-32.97,14.79-32.97,32.97
		v81.043c0,63.769,51.313,116.029,114.385,116.497c0.295,0.002,0.586,0.003,0.88,0.003c2.925,0,5.834-0.11,8.721-0.325
		C64.51,455.778,17.294,405.207,17.294,344.039z"/>
</g>
<path style="fill:#F446AC;" d="M222.926,364.772c-15.356,0-22.128-19.544-9.96-29.004c24.2-18.813,58.428-19.234,83.167-0.008
	c7.068,5.493,8.346,15.675,2.852,22.743c-5.491,7.067-15.673,8.346-22.743,2.852c-12.74-9.9-30.614-9.921-43.379,0.004
	C229.905,363.658,226.402,364.772,222.926,364.772z"/>
<path style="fill:#F21897;" d="M276.242,345.131c-12.739-9.9-30.613-9.921-43.379,0.004c-7.653,5.949-18.955,3.958-23.967-4.695
	c-8.882,15.344,9.997,31.779,23.967,20.919c12.737-9.902,30.611-9.926,43.379-0.004c14.006,10.884,32.816-5.628,23.964-20.92
	C295.188,349.095,283.887,351.072,276.242,345.131z"/>
<g>
</g>
<g>
</g>
<g>
</g>
<g>
</g>
<g>
</g>
<g>
</g>
<g>
</g>
<g>
</g>
<g>
</g>
<g>
</g>
<g>
</g>
<g>
</g>
<g>
</g>
<g>
</g>
<g>
</g>
</svg>
