<?xml version="1.0" encoding="iso-8859-1"?>
<!-- Generator: Adobe Illustrator 19.0.0, SVG Export Plug-In . SVG Version: 6.00 Build 0)  -->
<svg version="1.1" id="Capa_1" xmlns="http://www.w3.org/2000/svg" xmlns:xlink="http://www.w3.org/1999/xlink" x="0px" y="0px"
	 viewBox="0 0 512 512" style="enable-background:new 0 0 512 512;" xml:space="preserve">
<path style="fill:#696B70;" d="M256,43.685c5.681,0,11.301,0.256,16.859,0.731V14.073c0-7.74-6.333-14.073-14.073-14.073h-5.571
	c-7.74,0-14.073,6.333-14.073,14.073v30.343C244.699,43.941,250.319,43.685,256,43.685z"/>
<path style="fill:#5C5F63;" d="M256,14.073c0-5.735,3.48-10.689,8.429-12.876C262.698,0.432,260.791,0,258.785,0h-5.571
	c-7.74,0-14.073,6.333-14.073,14.073v30.343c5.557-0.475,11.178-0.731,16.859-0.731V14.073z"/>
<path style="fill:#BABABA;" d="M256,365.316c-4.267,0-7.727-3.459-7.727-7.727V217.492c0-4.268,3.459-7.727,7.727-7.727
	s7.727,3.459,7.727,7.727v140.097C263.727,361.857,260.268,365.316,256,365.316z"/>
<path style="fill:#6BD9FC;" d="M66.199,227.072h379.602c3.157,0,5.652-2.676,5.446-5.826C444.567,119.222,359.713,38.534,256,38.534
	S67.433,119.222,60.753,221.245C60.547,224.395,63.043,227.072,66.199,227.072z"/>
<path style="fill:#F446AC;" d="M256,38.534c-103.713,0-188.567,80.687-195.247,182.711c-0.206,3.15,2.289,5.826,5.446,5.826H256
	V38.534z"/>
<path style="fill:#F21897;" d="M81.358,221.245C87.59,126.069,161.858,49.472,256,39.618v-1.084
	c-103.714,0-188.567,80.687-195.247,182.711c-0.206,3.15,2.289,5.826,5.446,5.826h20.605
	C83.648,227.072,81.152,224.395,81.358,221.245z"/>
<path style="fill:#696B70;" d="M219.53,512c-26.791,0-48.586-21.796-48.586-48.586c0-7.402,6.001-13.403,13.403-13.403
	s13.403,6.001,13.403,13.403c0,12.01,9.771,21.78,21.78,21.78s21.78-9.77,21.78-21.78v-98.513c0-7.402,6.001-13.403,13.403-13.403
	s13.403,6.001,13.403,13.403v98.513C268.116,490.204,246.32,512,219.53,512z"/>
<g>
	<path style="fill:#5C5F63;" d="M233.266,485.194c12.009,0,21.78-9.77,21.78-21.78V364.9c0-4.888,2.626-9.153,6.535-11.494
		c-2.01-1.204-4.354-1.909-6.868-1.909c-7.402,0-13.403,6.001-13.403,13.403v98.513c0,9.608-6.261,17.768-14.912,20.653
		C228.56,484.788,230.865,485.194,233.266,485.194z"/>
	<path style="fill:#5C5F63;" d="M184.68,463.414c0-4.888,2.625-9.153,6.535-11.494c-2.01-1.204-4.354-1.909-6.868-1.909
		c-7.402,0-13.403,6.001-13.403,13.403c0,26.791,21.796,48.586,48.587,48.586c2.332,0,4.623-0.175,6.868-0.495
		C202.849,508.157,184.68,487.872,184.68,463.414z"/>
</g>
<path style="fill:#AAE8FF;" d="M147.538,227.072h216.925c1.804,0,3.23-2.676,3.112-5.826C363.757,119.222,315.267,38.534,256,38.534
	s-107.757,80.688-111.574,182.711C144.308,224.395,145.734,227.072,147.538,227.072z"/>
<path style="fill:#FFBE26;" d="M256,38.534c-59.268,0-107.757,80.687-111.575,182.711c-0.118,3.15,1.308,5.826,3.113,5.826H256
	V38.534z"/>
<g>
</g>
<g>
</g>
<g>
</g>
<g>
</g>
<g>
</g>
<g>
</g>
<g>
</g>
<g>
</g>
<g>
</g>
<g>
</g>
<g>
</g>
<g>
</g>
<g>
</g>
<g>
</g>
<g>
</g>
</svg>
