<?xml version="1.0" encoding="iso-8859-1"?>
<!-- Generator: Adobe Illustrator 19.0.0, SVG Export Plug-In . SVG Version: 6.00 Build 0)  -->
<svg version="1.1" id="Capa_1" xmlns="http://www.w3.org/2000/svg" xmlns:xlink="http://www.w3.org/1999/xlink" x="0px" y="0px"
	 viewBox="0 0 512 512" style="enable-background:new 0 0 512 512;" xml:space="preserve">
<path style="fill:#F9AF6E;" d="M80.941,393.664C108.28,462.965,175.842,512,254.857,512c0.383,0,0.76-0.022,1.143-0.024
	c0.382,0.003,0.76,0.024,1.144,0.024c79.015,0,146.577-49.035,173.915-118.336H80.941z"/>
<path style="fill:#F446AC;" d="M412.512,171.667c-15.724-40.789-39.248-86.244-74.465-131.868
	c-40.965-53.069-123.142-53.053-164.093,0c-35.217,45.624-58.741,91.079-74.465,131.868H412.512z"/>
<path style="fill:#F59249;" d="M101.431,393.664h-20.49C108.28,462.965,175.842,512,254.857,512c0.383,0,0.76-0.022,1.143-0.024
	c0.382,0.003,0.76,0.024,1.144,0.024c3.052,0,6.085-0.082,9.101-0.227C191.174,508.173,127.714,460.287,101.431,393.664z"/>
<path style="fill:#F21897;" d="M121.262,168.363h0.005c3.696-9.392,7.807-19.023,12.377-28.838
	c-0.002,0.001-0.005,0.003-0.007,0.005c5.239-11.253,11.09-22.688,16.849-33.047l0.015-0.012
	c12.128-21.827,26.617-44.228,43.942-66.672C212.072,16.96,237.857,3.095,266.245,0.59c-38.146-3.351-71.289,11.999-92.292,39.208
	c-35.217,45.624-58.741,91.079-74.465,131.868h20.489C120.177,171.148,120.924,169.221,121.262,168.363z"/>
<path style="fill:#FFE9B7;" d="M67.967,325.111c0,24.989,4.917,48.826,13.816,70.614h348.434
	c8.899-21.788,13.816-45.625,13.816-70.614c0,0,2.254-67.647-32.805-156.748H100.772C65.713,257.463,67.967,325.111,67.967,325.111z
	"/>
<path style="fill:#6BD9FC;" d="M70.083,353.302h371.834c1.391-9.195,2.116-18.608,2.116-28.191c0,0,1.558-46.814-18.096-113.842
	H86.063C73.737,253.308,63.492,309.735,70.083,353.302z"/>
<path style="fill:#CC905E;" d="M394.141,452.211l-29.692-22.906c-3.059-2.361-7.393-2.096-10.144,0.619l-29.158,28.779
	l-29.156-28.779c-3.008-2.969-7.844-2.969-10.852,0l-29.156,28.779l-29.157-28.779c-3.008-2.969-7.844-2.97-10.852,0.001
	l-29.151,28.777l-29.15-28.777c-2.72-2.686-6.994-2.976-10.054-0.688l-30.145,22.558c3.53,3.826,7.215,7.506,11.05,11.026
	l23.027-17.232l29.846,29.463c3.007,2.97,7.844,2.972,10.853,0l29.152-28.778l29.156,28.779c3.008,2.969,7.844,2.969,10.852,0
	l29.156-28.779l29.156,28.779c1.504,1.484,3.465,2.227,5.426,2.227s3.922-0.742,5.426-2.227l29.782-29.396l22.726,17.532
	C386.92,459.687,390.606,456.02,394.141,452.211z"/>
<path style="fill:#BA7958;" d="M128.522,462.821l11.62-8.696c-3.566-3.736-6.982-7.617-10.232-11.639l-12.439,9.308
	C121.002,455.622,124.687,459.301,128.522,462.821z"/>
<path style="fill:#F21897;" d="M399.108,140.086c-5.008-10.787-10.569-21.795-16.752-32.958l-17.739-14.487
	c-3.057-2.498-7.504-2.289-10.312,0.485l-29.158,28.779l-29.156-28.779c-3.008-2.969-7.844-2.969-10.852,0l-29.156,28.779
	l-29.157-28.779c-3.008-2.969-7.844-2.97-10.852,0.001l-29.151,28.777l-29.15-28.777c-2.784-2.751-7.184-2.983-10.242-0.543
	l-17.433,13.899c-6.22,11.192-11.811,22.23-16.849,33.047c0.912-0.502-1.29,1.173,38.551-30.592l29.697,29.316
	c3.007,2.97,7.844,2.972,10.853,0l29.152-28.778l29.156,28.779c3.008,2.969,7.844,2.969,10.852,0l29.156-28.779l29.156,28.779
	c3.007,2.968,7.843,2.969,10.852,0l29.646-29.261l36.424,29.746C397.398,139.356,398.235,139.798,399.108,140.086z"/>
<path style="fill:#B72391;" d="M147.429,92.583l-17.418,13.887c-5.876,10.582-11.4,21.337-16.857,33.054
	c0.912-0.503-1.396,1.258,34.025-26.984c0.555-1.031,1.755-3.267,3.307-6.058l0.015-0.012c2.401-4.322,4.899-8.667,7.49-13.029
	C154.64,90.135,150.334,90.266,147.429,92.583z"/>
<path style="fill:#AAE8FF;" d="M336.369,37.755c-40.816-50.192-119.683-50.488-160.737,0
	C216.277,60.782,295.753,60.765,336.369,37.755z"/>
<path style="fill:#6BD9FC;" d="M266.245,0.59c-36.616-3.051-68.673,10.183-90.613,37.165c4.458,2.526,9.534,4.833,15.121,6.885
	c1.217-1.614,2.444-3.227,3.69-4.842C211.514,17.682,236.827,3.238,266.245,0.59z"/>
<path style="fill:#FFD46E;" d="M101.431,393.664h0.029c-5.06-12.823-8.753-26.335-10.879-40.362h-0.008
	c-6.572-43.508,3.553-99.649,15.98-142.034h0.004c3.68-12.55,8.104-25.808,13.422-39.601h-0.001
	c0.199-0.518,0.946-2.446,1.284-3.304h-20.489c-35.06,89.101-32.805,156.748-32.805,156.748c0,24.989,4.917,48.826,13.816,70.614
	h20.482C101.986,395.038,101.703,394.354,101.431,393.664z"/>
<path style="fill:#65AAFC;" d="M106.552,211.268H86.063c-12.326,42.04-22.569,98.483-15.98,142.034h20.489
	C84,309.794,94.126,253.653,106.552,211.268z"/>
<g>
</g>
<g>
</g>
<g>
</g>
<g>
</g>
<g>
</g>
<g>
</g>
<g>
</g>
<g>
</g>
<g>
</g>
<g>
</g>
<g>
</g>
<g>
</g>
<g>
</g>
<g>
</g>
<g>
</g>
</svg>
