<?xml version="1.0" encoding="iso-8859-1"?>
<!-- Generator: Adobe Illustrator 19.0.0, SVG Export Plug-In . SVG Version: 6.00 Build 0)  -->
<svg version="1.1" id="Capa_1" xmlns="http://www.w3.org/2000/svg" xmlns:xlink="http://www.w3.org/1999/xlink" x="0px" y="0px"
	 viewBox="0 0 512 512" style="enable-background:new 0 0 512 512;" xml:space="preserve">
<path style="fill:#FCCC92;" d="M338.076,39.631C317.411,12.861,286.642-0.331,256,0.006c-30.642-0.337-61.412,12.854-82.076,39.625
	C63.152,183.136,67.901,325.044,67.901,325.044C67.901,428.297,151.604,512,254.856,512c0.383,0,0.761-0.022,1.143-0.024
	c0.383,0.003,0.76,0.024,1.144,0.024c103.253,0,186.956-83.703,186.956-186.956C444.099,325.044,448.848,183.136,338.076,39.631z"/>
<path style="fill:#F9AF6E;" d="M88.506,325.044c0,0-4.749-141.908,106.024-285.413c18.346-23.767,44.657-36.822,71.773-39.218
	C262.876,0.11,259.437-0.032,256,0.006c-30.642-0.337-61.412,12.854-82.076,39.625C63.152,183.136,67.901,325.044,67.901,325.044
	C67.901,428.297,151.604,512,254.856,512c0.383,0,0.761-0.022,1.143-0.024c0.383,0.003,0.76,0.024,1.144,0.024
	c3.071,0,6.124-0.079,9.159-0.226C167.305,506.998,88.506,425.226,88.506,325.044z"/>
<g>
	<path style="fill:#F21897;" d="M124.47,328.905v-18.094v-33.359c0-0.188,0.015-0.37,0.018-0.557
		c-16.856-3.18-35.995-7-51.096-11.391c-4.083,23.951-5.178,42.021-5.442,51.668C84.866,321.748,105.832,325.674,124.47,328.905z"/>
	<path style="fill:#F21897;" d="M387.53,328.905c18.638-3.23,39.603-7.157,56.52-11.734c-0.264-9.646-1.359-27.716-5.443-51.668
		c-15.1,4.392-34.24,8.211-51.096,11.391c0.003,0.187,0.018,0.369,0.018,0.557v33.359v18.095H387.53z"/>
</g>
<g>
	<path style="fill:#B72391;" d="M67.95,317.171c16.916,4.577,37.882,8.503,56.52,11.734v-17.303
		c-18.281-3.169-38.793-7.009-55.535-11.474C68.335,307.246,68.064,312.999,67.95,317.171z"/>
	<path style="fill:#B72391;" d="M387.53,311.602v17.303c18.638-3.231,39.604-7.157,56.52-11.734
		c-0.114-4.172-0.385-9.925-0.985-17.043C426.323,304.593,405.812,308.433,387.53,311.602z"/>
</g>
<g>
	<path style="fill:#F774C1;" d="M212.835,309.716c0-13.694,6.384-25.89,16.331-33.798l-66.085-27.399
		c-19.847-8.228-41.684,6.358-41.684,27.842v33.355v33.355c0,21.484,21.837,36.071,41.684,27.842l66.085-27.399
		C219.219,335.607,212.835,323.411,212.835,309.716z"/>
	<path style="fill:#F774C1;" d="M348.919,248.52l-66.085,27.399c9.947,7.907,16.331,20.104,16.331,33.798
		s-6.385,25.891-16.331,33.798l66.085,27.399c19.846,8.228,41.684-6.358,41.684-27.842v-33.355v-33.355
		C390.603,254.877,368.766,240.291,348.919,248.52z"/>
</g>
<g>
	<path style="fill:#F446AC;" d="M216.534,327.182l-53.453,22.162c-19.847,8.228-41.683-6.358-41.683-27.842v21.569
		c0,21.484,21.837,36.07,41.683,27.842l66.085-27.399C223.737,339.199,219.381,333.599,216.534,327.182z"/>
	<path style="fill:#F446AC;" d="M348.92,349.344l-53.453-22.162c-2.848,6.417-7.204,12.017-12.632,16.332l66.085,27.399
		c19.846,8.228,41.684-6.358,41.684-27.842v-21.569C390.603,342.986,368.766,357.572,348.92,349.344z"/>
	<path style="fill:#F446AC;" d="M256,265.473c-24.396,0-44.244,19.847-44.244,44.244S231.604,353.96,256,353.96
		s44.244-19.848,44.244-44.244S280.396,265.473,256,265.473z"/>
</g>
<path style="fill:#F21897;" d="M233.325,309.716c0-20.677,14.259-38.081,33.459-42.908c-3.454-0.868-7.065-1.335-10.785-1.335
	c-24.396,0-44.244,19.847-44.244,44.244S231.604,353.96,256,353.96c3.719,0,7.331-0.467,10.785-1.335
	C247.585,347.797,233.325,330.393,233.325,309.716z"/>
<g>
</g>
<g>
</g>
<g>
</g>
<g>
</g>
<g>
</g>
<g>
</g>
<g>
</g>
<g>
</g>
<g>
</g>
<g>
</g>
<g>
</g>
<g>
</g>
<g>
</g>
<g>
</g>
<g>
</g>
</svg>
