<?xml version="1.0" encoding="iso-8859-1"?>
<!-- Generator: Adobe Illustrator 19.0.0, SVG Export Plug-In . SVG Version: 6.00 Build 0)  -->
<svg version="1.1" id="Capa_1" xmlns="http://www.w3.org/2000/svg" xmlns:xlink="http://www.w3.org/1999/xlink" x="0px" y="0px"
	 viewBox="0 0 512.001 512.001" style="enable-background:new 0 0 512.001 512.001;" xml:space="preserve">
<path style="fill:#BABABA;" d="M184.108,346.909l24.975,68.218c0,0,2.585-41.362,43.938-62.876L184.108,346.909z"/>
<path style="fill:#ADADAD;" d="M209.138,348.849l-25.03-1.94l24.975,68.218c0,0,1.019-16.27,11.978-33.708L209.138,348.849z"/>
<g>
	<path style="fill:#E2E2E2;" d="M217.077,443.72c-3.068,0-5.958-1.867-7.115-4.904l-32.333-84.875
		c-1.497-3.929,0.475-8.327,4.404-9.823c3.929-1.498,8.327,0.476,9.823,4.404l32.333,84.875c1.497,3.929-0.475,8.327-4.404,9.823
		C218.894,443.56,217.978,443.72,217.077,443.72z"/>
	<path style="fill:#E2E2E2;" d="M119.801,195.518c-3.005,0-5.851-1.791-7.053-4.746l-23.883-58.699
		c-5.73-14.083-17.085-25.42-31.171-31.133L5.166,83.103c-3.981-1.352-6.112-5.674-4.76-9.655c1.351-3.981,5.676-6.112,9.655-4.76
		L62.79,86.594c0.13,0.045,0.26,0.092,0.388,0.144c17.983,7.216,32.485,21.65,39.787,39.599l23.883,58.699
		c1.584,3.893-0.288,8.334-4.182,9.919C121.728,195.336,120.756,195.518,119.801,195.518z"/>
</g>
<path style="fill:#CC905E;" d="M350.268,143.944c1.207,2.13,3.583,3.278,5.999,2.88c24.514-4.044,46.58,15.295,47.964,41.079
	H179.849c1.399-26.072,23.919-45.472,48.621-40.965c2.016,0.368,4.021-0.621,5.016-2.413
	C259.65,97.379,323.733,97.142,350.268,143.944z"/>
<path style="fill:#BA7958;" d="M247.519,146.938c2.016,0.368,4.021-0.621,5.016-2.413c10.276-18.516,28.124-31.727,49.026-34.842
	c-27.72-4.129-54.288,9.999-68.076,34.842c-0.995,1.792-3,2.781-5.016,2.413c-24.715-4.509-47.222,14.905-48.621,40.965h19.049
	C200.298,161.831,222.817,142.432,247.519,146.938z"/>
<path style="fill:#F27524;" d="M123.274,215.281l56.575,144.175H343.57c2.693,0,5.37-0.112,8.032-0.309
	c0,0,22.521-1.712,40.424-11.155c17.032-8.533,31.78-21.539,42.436-38.045l64.443-100.123L123.274,215.281z"/>
<polygon style="fill:#EC5123;" points="498.713,210.121 498.904,209.823 123.274,215.281 179.849,359.456 200.148,359.456 
	143.572,215.281 "/>
<circle style="fill:#696B70;" cx="382.27" cy="391.511" r="44.599"/>
<path style="fill:#5C5F63;" d="M357.971,391.508c0-21.138,14.71-38.828,34.449-43.424c-3.262-0.76-6.656-1.174-10.149-1.174
	c-24.631,0-44.598,19.967-44.598,44.599c0,28.613,26.642,49.969,54.748,43.424C372.682,430.336,357.971,412.646,357.971,391.508z"/>
<circle style="fill:#E2E2E2;" cx="382.27" cy="391.511" r="15.928"/>
<path style="fill:#BABABA;" d="M374.753,393.271l-27.857-65.985c-1.635-3.873,0.179-8.338,4.052-9.973
	c3.875-1.637,8.338,0.178,9.973,4.052l27.857,65.985c1.635,3.873-0.179,8.338-4.052,9.973
	C380.859,398.956,376.39,397.148,374.753,393.271z"/>
<path style="fill:#FFBE26;" d="M118.516,215.281h381.818c6.417,0,11.667-5.25,11.667-11.667v-8.604
	c0-6.417-5.25-11.667-11.667-11.667H118.516c-6.417,0-11.667,5.25-11.667,11.667v8.604
	C106.849,210.031,112.099,215.281,118.516,215.281z"/>
<path style="fill:#F99A25;" d="M500.159,199.312H118.69c-5.162,0-9.569-3.353-11.179-7.984c-0.421,1.212-0.662,2.506-0.662,3.856
	v8.256c0,6.512,5.328,11.841,11.841,11.841h381.469c6.512,0,11.841-5.328,11.841-11.841v-8.256c0-1.35-0.24-2.645-0.662-3.856
	C509.728,195.959,505.321,199.312,500.159,199.312z"/>
<g>
</g>
<g>
</g>
<g>
</g>
<g>
</g>
<g>
</g>
<g>
</g>
<g>
</g>
<g>
</g>
<g>
</g>
<g>
</g>
<g>
</g>
<g>
</g>
<g>
</g>
<g>
</g>
<g>
</g>
</svg>
