<?xml version="1.0" encoding="iso-8859-1"?>
<!-- Generator: Adobe Illustrator 19.0.0, SVG Export Plug-In . SVG Version: 6.00 Build 0)  -->
<svg version="1.1" id="Capa_1" xmlns="http://www.w3.org/2000/svg" xmlns:xlink="http://www.w3.org/1999/xlink" x="0px" y="0px"
	 viewBox="0 0 512 512" style="enable-background:new 0 0 512 512;" xml:space="preserve">
<path style="fill:#E2E2E2;" d="M435.819,232.493H277.351c-9.684,0-17.608,7.923-17.608,17.608c0,13.64,0,20.461,0,33.992v3.045
	h193.684c0-13.327,0-23.19,0-37.037C453.427,240.416,445.504,232.493,435.819,232.493z"/>
<path style="fill:#D3D3D3;" d="M280.937,250.101c0-9.684,7.923-17.608,17.608-17.608h-21.194c-9.684,0-17.608,7.923-17.608,17.608
	v3.045c0,13.531,0,20.352,0,33.992h21.194v-3.045C280.937,270.562,280.937,263.741,280.937,250.101z"/>
<path style="fill:#FFBE26;" d="M482.039,284.093H93.694c-9.684,0-17.608,7.923-17.608,17.608v3.045c0,7.352,0,62.893,0,70.261
	c1.663-0.524,3.429-0.809,5.258-0.809c442.485,0,414.499-0.391,418.303,0.809c0-7.367,0-62.909,0-70.261v-3.045
	C499.647,292.016,491.724,284.093,482.039,284.093z"/>
<path style="fill:#E2E2E2;" d="M113.963,291.706c-3.692,0-6.933-2.691-7.514-6.453L73.105,68.941
	C70.897,54.617,58.775,44.22,44.281,44.22H7.612C3.408,44.22,0,40.813,0,36.608s3.408-7.612,7.612-7.612h36.669
	c22.059,0,40.509,15.823,43.87,37.625l33.344,216.311c0.64,4.155-2.209,8.042-6.364,8.682
	C114.739,291.676,114.348,291.706,113.963,291.706z"/>
<path style="fill:#696B70;" d="M93.694,284.093c-9.684,0-17.608,7.923-17.608,17.608v3.045c0,7.352,0,62.893,0,70.261
	c1.663-0.524,3.429-0.809,5.258-0.809h76.28c0-10.318,0-79.826,0-90.105L93.694,284.093L93.694,284.093z"/>
<path style="fill:#5C5F63;" d="M96.384,301.7c0-9.684,7.924-17.608,17.608-17.608H93.694c-9.684,0-17.608,7.923-17.608,17.608v3.045
	c0,7.352,0,62.893,0,70.261c1.663-0.524,3.429-0.809,5.258-0.809h15.04C96.384,366.544,96.384,309.961,96.384,301.7z"/>
<path style="fill:#F99A25;" d="M499.647,336.947H356.585c-4.204,0-7.612-3.408-7.612-7.612s3.408-7.612,7.612-7.612h143.062
	c4.204,0,7.612,3.408,7.612,7.612C507.259,333.539,503.851,336.947,499.647,336.947z"/>
<path style="fill:#E2E2E2;" d="M494.389,371.153c-18.723,0-400.016,0-413.045,0c-9.684,0-17.608,7.923-17.608,17.608v22.01
	c0,9.684,7.923,17.608,17.608,17.608c11.911,0,106.984,0,118.544,0c16.14,0,292.625,0,294.501,0c9.684,0,17.608-7.923,17.608-17.608
	v-22.01C511.997,379.076,504.073,371.153,494.389,371.153z"/>
<path style="fill:#D3D3D3;" d="M494.389,403.618c-18.723,0-400.016,0-413.045,0c-9.221,0-16.828-7.187-17.538-16.233
	c-0.097,1.233-0.07-1.011-0.07,23.384c0,9.684,7.923,17.608,17.608,17.608c11.911,0,106.984,0,118.544,0
	c16.14,0,292.625,0,294.501,0c9.684,0,17.608-7.923,17.608-17.608c0-24.389,0.026-22.152-0.07-23.384
	C511.217,396.432,503.609,403.618,494.389,403.618z"/>
<circle style="fill:#696B70;" cx="157.62" cy="439.341" r="43.652"/>
<path style="fill:#5C5F63;" d="M134.271,439.337c0-20.613,14.292-37.877,33.503-42.453c-27.618-6.579-53.802,14.414-53.802,42.453
	c0,28.044,26.189,49.031,53.802,42.453C148.562,477.214,134.271,459.95,134.271,439.337z"/>
<circle style="fill:#E2E2E2;" cx="157.62" cy="439.341" r="15.59"/>
<path style="fill:#D3D3D3;" d="M167.774,427.519c-10.087-8.67-25.739-1.478-25.739,11.819c0,13.278,15.642,20.498,25.739,11.819
	C160.512,444.914,160.526,433.748,167.774,427.519z"/>
<circle style="fill:#696B70;" cx="409.77" cy="439.341" r="43.652"/>
<path style="fill:#5C5F63;" d="M386.421,439.337c0-20.613,14.292-37.877,33.503-42.453c-27.618-6.579-53.802,14.414-53.802,42.453
	c0,28.044,26.189,49.031,53.802,42.453C400.713,477.214,386.421,459.95,386.421,439.337z"/>
<circle style="fill:#E2E2E2;" cx="409.77" cy="439.341" r="15.59"/>
<path style="fill:#D3D3D3;" d="M419.924,427.519c-10.087-8.67-25.739-1.478-25.739,11.819c0,13.278,15.642,20.498,25.739,11.819
	C412.662,444.914,412.677,433.748,419.924,427.519z"/>
<g>
</g>
<g>
</g>
<g>
</g>
<g>
</g>
<g>
</g>
<g>
</g>
<g>
</g>
<g>
</g>
<g>
</g>
<g>
</g>
<g>
</g>
<g>
</g>
<g>
</g>
<g>
</g>
<g>
</g>
</svg>
