<?xml version="1.0" encoding="iso-8859-1"?>
<!-- Generator: Adobe Illustrator 19.0.0, SVG Export Plug-In . SVG Version: 6.00 Build 0)  -->
<svg version="1.1" id="Capa_1" xmlns="http://www.w3.org/2000/svg" xmlns:xlink="http://www.w3.org/1999/xlink" x="0px" y="0px"
	 viewBox="0 0 512 512" style="enable-background:new 0 0 512 512;" xml:space="preserve">
<path style="fill:#996459;" d="M359.397,348.983L359.397,348.983c-10.608,0-196.175,0-206.796,0l0,0
	c-16.191,30.099-16.777,66.317-1.566,96.936l24.834,49.992c4.9,9.864,14.878,16.089,25.788,16.089c12.314,0,94.671,0,108.684,0
	c10.91,0,20.888-6.225,25.788-16.089l24.834-49.992C376.174,415.3,375.589,379.083,359.397,348.983z"/>
<path style="fill:#7E5C62;" d="M195.699,495.911l-24.834-49.992c-15.21-30.619-14.625-66.837,1.566-96.936l0,0h-19.83l0,0
	c-16.191,30.099-16.777,66.317-1.566,96.936l24.834,49.992c4.9,9.864,14.878,16.089,25.788,16.089h19.83
	C210.577,512,200.599,505.775,195.699,495.911z"/>
<path style="fill:#6DC82A;" d="M255.43,325.335c-4.213,0-7.628-3.415-7.628-7.628V180.395c0-4.214,3.415-7.628,7.628-7.628
	s7.628,3.415,7.628,7.628v137.311C263.058,321.92,259.643,325.335,255.43,325.335z"/>
<path style="fill:#8DCE55;" d="M255.43,264.046v8.832c0,1.376,1.116,2.492,2.492,2.492h30.043c19.621,0,35.675-16.054,35.675-35.675
	v-8.832c0-1.376-1.116-2.492-2.492-2.492h-30.043C271.483,228.371,255.43,244.425,255.43,264.046z"/>
<path style="fill:#6DC82A;" d="M275.746,272.878v-8.832c0-19.621,16.053-35.675,35.674-35.675h-20.316
	c-19.621,0-35.674,16.054-35.674,35.675v8.832c0,1.376,1.116,2.492,2.492,2.492h20.317
	C276.862,275.37,275.746,274.254,275.746,272.878z"/>
<path style="fill:#8DCE55;" d="M255.43,256.443v16.434c0,1.376-1.116,2.492-2.492,2.492h-49.317
	c-29.663,0-53.934-24.27-53.934-53.934v-16.434c0-1.376,1.116-2.492,2.492-2.492h49.317C231.16,202.51,255.43,226.78,255.43,256.443
	z"/>
<path style="fill:#6DC82A;" d="M170.03,221.436v-16.434c0-1.376,1.116-2.492,2.492-2.492h-20.343c-1.376,0-2.492,1.116-2.492,2.492
	v16.434c0,29.663,24.27,53.934,53.934,53.934h20.342C194.3,275.37,170.03,251.099,170.03,221.436z"/>
<path style="fill:#F774C1;" d="M296.634,85.9c1.106-3.807,1.71-7.827,1.71-11.99c0-12.568-5.404-23.873-14.013-31.721
	c1.756-4.529,2.49-9.566,1.881-14.84c-1.707-14.785-14.025-26.405-28.881-27.292c-17.98-1.074-32.897,13.19-32.897,30.938
	c0,3.948,0.746,7.721,2.092,11.194c-8.609,7.849-14.013,19.153-14.013,31.721c0,4.163,0.604,8.183,1.71,11.99
	c-11.62,11.312-18.611,27.355-17.825,45.027c1.391,31.289,27.589,56.333,58.909,56.396c32.689,0.065,59.21-26.415,59.21-59.089
	C314.519,111.629,307.661,96.634,296.634,85.9z"/>
<path style="fill:#F446AC;" d="M216.743,130.927c-0.786-17.672,6.205-33.715,17.825-45.027c-1.106-3.807-1.71-7.827-1.71-11.99
	c0-12.568,5.403-23.873,14.013-31.721c-1.346-3.473-2.092-7.245-2.092-11.194c0-13.551,8.7-25.062,20.816-29.274
	c-2.621-0.917-5.393-1.492-8.262-1.664c-17.98-1.074-32.897,13.19-32.897,30.938c0,3.948,0.746,7.721,2.092,11.194
	c-8.609,7.849-14.013,19.153-14.013,31.721c0,4.163,0.604,8.183,1.71,11.99c-11.62,11.312-18.611,27.355-17.825,45.027
	c1.392,31.289,27.589,56.333,58.909,56.396c3.529,0.007,6.98-0.313,10.339-0.899C238.934,181.723,217.983,158.814,216.743,130.927z"
	/>
<path style="fill:#CC905E;" d="M376.56,338.452v-17.416c0-6.87-5.569-12.44-12.44-12.44H147.878c-6.87,0-12.44,5.57-12.44,12.44
	v17.416c0,6.87,5.57,12.44,12.44,12.44h216.243C370.991,350.892,376.56,345.322,376.56,338.452z"/>
<path style="fill:#BA7958;" d="M364.12,329.744H147.878c-6.234,0-11.383-4.591-12.285-10.574c-0.092,0.61-0.155,1.23-0.155,1.866
	v17.416c0,6.87,5.57,12.44,12.44,12.44h216.243c6.871,0,12.44-5.57,12.44-12.44v-17.416c0-0.636-0.063-1.256-0.155-1.866
	C375.503,325.153,370.355,329.744,364.12,329.744z"/>
<g>
</g>
<g>
</g>
<g>
</g>
<g>
</g>
<g>
</g>
<g>
</g>
<g>
</g>
<g>
</g>
<g>
</g>
<g>
</g>
<g>
</g>
<g>
</g>
<g>
</g>
<g>
</g>
<g>
</g>
</svg>
