<?xml version="1.0" encoding="iso-8859-1"?>
<!-- Generator: Adobe Illustrator 19.0.0, SVG Export Plug-In . SVG Version: 6.00 Build 0)  -->
<svg version="1.1" id="Capa_1" xmlns="http://www.w3.org/2000/svg" xmlns:xlink="http://www.w3.org/1999/xlink" x="0px" y="0px"
	 viewBox="0 0 512 512" style="enable-background:new 0 0 512 512;" xml:space="preserve">
<g>
	<path style="fill:#6DC82A;" d="M232.787,38.367c-4.204,0-7.612-3.407-7.612-7.612V7.612c0-4.204,3.408-7.612,7.612-7.612
		c4.204,0,7.612,3.407,7.612,7.612v23.143C240.399,34.959,236.991,38.367,232.787,38.367z"/>
	<path style="fill:#6DC82A;" d="M316.263,121.145c-4.204,0-7.612-3.407-7.612-7.612V89.532c0-4.204,3.408-7.612,7.612-7.612
		s7.612,3.407,7.612,7.612v24.001C323.875,117.737,320.468,121.145,316.263,121.145z"/>
	<path style="fill:#6DC82A;" d="M193.587,171.637h-32.163c-3.457,0-6.26-2.802-6.26-6.259V110.34
		c0-11.504-8.376-21.607-19.799-22.979c-13.615-1.635-25.299,9.076-25.299,22.383v61.894l0,0c0,24.113,19.548,43.66,43.66,43.66
		h39.859v-43.661H193.587z"/>
</g>
<path style="fill:#67AF28;" d="M130.366,171.637v-61.894c0-8.742,5.044-16.365,12.364-20.101c-2.251-1.162-4.721-1.964-7.365-2.282
	c-13.615-1.635-25.299,9.076-25.299,22.383v61.894c0,24.113,19.547,43.66,43.66,43.66h20.299
	C149.913,215.298,130.366,195.75,130.366,171.637z"/>
<path style="fill:#996459;" d="M381.66,319.858L381.66,319.858c-9.359,0-234.939,0-244.269,0l0,0
	c-19.126,35.477-19.817,78.165-1.85,114.256l29.334,58.924C170.664,504.664,182.449,512,195.337,512c4.492,0,119.417,0,128.379,0
	c12.887,0,24.673-7.337,30.461-18.963l29.334-58.924C401.478,398.023,400.787,355.335,381.66,319.858z"/>
<path style="fill:#7E5C62;" d="M185.174,493.037l-29.334-58.924c-17.967-36.09-17.276-78.778,1.85-114.256l0,0h-20.299l0,0
	c-19.126,35.477-19.817,78.165-1.85,114.256l29.334,58.924C170.664,504.664,182.449,512,195.337,512h20.299
	C202.748,512,190.962,504.663,185.174,493.037z"/>
<path style="fill:#8DCE55;" d="M232.788,30.755c-23.235,0-42.245,19.011-42.245,42.245v202.797h84.491V73
	C275.033,49.766,256.023,30.755,232.788,30.755z"/>
<path style="fill:#6DC82A;" d="M243.179,32.06c-3.328-0.85-6.809-1.305-10.392-1.305c-23.235,0-42.245,19.011-42.245,42.245v202.797
	h20.785V73C211.326,53.349,224.927,36.721,243.179,32.06z"/>
<path style="fill:#8DCE55;" d="M316.263,113.532c-23.235,0-42.245,19.011-42.245,42.245v120.02h84.491V155.778
	C358.509,132.542,339.498,113.532,316.263,113.532z"/>
<path style="fill:#6DC82A;" d="M326.92,114.906c-3.408-0.894-6.979-1.373-10.656-1.373c-23.235,0-42.245,19.011-42.245,42.245
	v120.02h21.314v-120.02C295.332,136.22,308.801,119.66,326.92,114.906z"/>
<g>
	<path style="fill:#AEDB75;" d="M232.787,283.409c-4.204,0-7.612-3.407-7.612-7.612V78.265c0-4.204,3.408-7.612,7.612-7.612
		c4.204,0,7.612,3.407,7.612,7.612v197.532C240.399,280.002,236.991,283.409,232.787,283.409z"/>
	<path style="fill:#AEDB75;" d="M316.263,283.409c-4.204,0-7.612-3.407-7.612-7.612V156.634c0-4.204,3.408-7.612,7.612-7.612
		s7.612,3.407,7.612,7.612v119.163C323.875,280.002,320.468,283.409,316.263,283.409z"/>
</g>
<path style="fill:#CC905E;" d="M401.934,307.004v-20.572c0-8.115-6.578-14.694-14.694-14.694H131.812
	c-8.115,0-14.694,6.579-14.694,14.694v20.572c0,8.115,6.579,14.694,14.694,14.694H387.24
	C395.356,321.698,401.934,315.119,401.934,307.004z"/>
<path style="fill:#BA7958;" d="M387.241,296.718H131.813c-7.364,0-13.445-5.423-14.511-12.49c-0.109,0.721-0.183,1.453-0.183,2.204
	v20.572c0,8.115,6.579,14.694,14.694,14.694h255.428c8.115,0,14.693-6.579,14.693-14.694v-20.572c0-0.751-0.074-1.483-0.183-2.204
	C400.685,291.295,394.605,296.718,387.241,296.718z"/>
<g>
</g>
<g>
</g>
<g>
</g>
<g>
</g>
<g>
</g>
<g>
</g>
<g>
</g>
<g>
</g>
<g>
</g>
<g>
</g>
<g>
</g>
<g>
</g>
<g>
</g>
<g>
</g>
<g>
</g>
</svg>
