<?xml version="1.0" encoding="iso-8859-1"?>
<!-- Generator: Adobe Illustrator 19.0.0, SVG Export Plug-In . SVG Version: 6.00 Build 0)  -->
<svg version="1.1" id="Capa_1" xmlns="http://www.w3.org/2000/svg" xmlns:xlink="http://www.w3.org/1999/xlink" x="0px" y="0px"
	 viewBox="0 0 512 512" style="enable-background:new 0 0 512 512;" xml:space="preserve">
<path style="fill:#6DC82A;" d="M447.162,94.151c-16.117,3.6-31.343,10.051-43.642,16.356c-1.253,33.068-8.71,71.124-29.957,106.532
	h37.62c40.108-32.105,48.85-84.803,50.669-110.414C462.423,98.582,455.031,92.393,447.162,94.151z"/>
<g>
	<path style="fill:#67AF28;" d="M403.52,110.507c-1.253,33.068-8.709,71.124-29.957,106.532h20.904
		c23.305-38.838,30.018-80.862,30.152-115.994C416.996,103.965,409.866,107.253,403.52,110.507z"/>
	<path style="fill:#67AF28;" d="M67.055,94.709c-9.077-2.196-17.669,5.208-16.887,14.514c2.223,26.438,11.671,76.761,50.467,107.817
		h37.62c-21.248-35.41-28.695-73.462-29.948-106.53C96.62,104.516,82.283,98.393,67.055,94.709z"/>
</g>
<path style="fill:#5E9B24;" d="M70.815,109.223c-0.413-4.919,1.806-9.289,5.317-12.008c-2.981-0.919-6.009-1.764-9.077-2.506
	c-9.077-2.196-17.669,5.208-16.887,14.514c2.223,26.438,11.671,76.761,50.467,107.817h20.646
	C82.486,185.982,73.038,135.661,70.815,109.223z"/>
<path style="fill:#8DCE55;" d="M381.152,25.705c-29.227,12.096-49.57,31.788-61.795,46.74
	c10.805,23.448,16.844,49.545,16.844,77.057c0,23.84-4.527,46.622-12.765,67.536h51.159C417.042,146.3,404.453,64.992,397.31,34.012
	C395.657,26.84,387.953,22.89,381.152,25.705z"/>
<path style="fill:#6DC82A;" d="M333.25,57.388c-5.442,5.232-10.066,10.377-13.893,15.058c10.805,23.448,16.844,49.545,16.844,77.057
	c0,23.84-4.527,46.622-12.765,67.536h21.679c8.239-20.914,12.765-43.696,12.765-67.536C357.88,115.949,348.915,84.49,333.25,57.388z
	"/>
<path style="fill:#8DCE55;" d="M192.461,72.449c-12.102-14.803-32.155-34.251-60.917-46.377c-7.242-3.053-15.517,1.23-17.254,8.895
	c-7.173,31.667-19.085,112.049,22.934,182.072h51.16c-8.239-20.914-12.765-43.696-12.765-67.536
	C175.618,121.993,181.657,95.896,192.461,72.449z"/>
<path style="fill:#6DC82A;" d="M135.085,34.966c0.52-2.295,1.634-4.278,3.123-5.861c-2.174-1.049-4.382-2.072-6.665-3.034
	c-7.242-3.053-15.517,1.23-17.253,8.895c-7.174,31.668-19.085,112.049,22.933,182.072h20.795
	C116,147.017,127.912,66.635,135.085,34.966z"/>
<path style="fill:#996459;" d="M406.374,274.757L406.374,274.757c-2.981,0-295.371,0-300.93,0l0,0
	c-23.562,43.805-24.414,96.514-2.279,141.075l36.139,72.755c7.13,14.355,21.65,23.414,37.527,23.414h74.705h8.748h74.705
	c15.877,0,30.396-9.059,37.527-23.414l36.139-72.755C430.788,371.27,429.937,318.56,406.374,274.757z"/>
<path style="fill:#7E5C62;" d="M160.478,488.586l-36.139-72.755c-22.134-44.561-21.283-97.27,2.279-141.075l0,0h-21.174l0,0
	c-23.562,43.805-24.414,96.514-2.279,141.075l36.138,72.755C146.434,502.941,160.954,512,176.831,512h21.174
	C182.128,512,167.607,502.941,160.478,488.586z"/>
<path style="fill:#D0EF6F;" d="M264.834,3.029c-5.275-4.038-12.574-4.038-17.849,0c-44.013,33.689-72.4,86.766-72.4,146.474
	c0,23.84,4.526,46.622,12.765,67.536h137.118c8.239-20.914,12.765-43.696,12.765-67.536
	C337.234,89.795,308.848,36.717,264.834,3.029z"/>
<path style="fill:#B5EF14;" d="M266.233,4.13c-0.468-0.365-0.927-0.741-1.399-1.102c-5.275-4.038-12.574-4.038-17.849,0
	c-44.013,33.689-72.4,86.766-72.4,146.474c0,23.84,4.526,46.622,12.765,67.536h20.646c-8.239-20.914-12.765-43.696-12.765-67.536
	C195.232,90.435,223.023,37.868,266.233,4.13z"/>
<path style="fill:#AEDB75;" d="M286.519,152.548l-22.916,16.255v-34.419l31.875-22.611c3.488-2.474,4.309-7.307,1.835-10.795
	c-2.474-3.486-7.307-4.31-10.795-1.835l-22.916,16.256V78.862c0-4.276-3.466-7.742-7.742-7.742c-4.276,0-7.742,3.466-7.742,7.742
	v36.503L225.25,99.143c-3.487-2.474-8.32-1.651-10.795,1.835c-2.474,3.488-1.652,8.321,1.835,10.795l31.826,22.577v34.419
	l-22.867-16.221c-3.488-2.474-8.321-1.652-10.795,1.836c-2.474,3.487-1.652,8.32,1.835,10.794l31.826,22.576v37.278
	c0,4.276,3.466,7.742,7.742,7.742c4.276,0,7.742-3.466,7.742-7.742v-37.244l31.875-22.611c3.488-2.474,4.309-7.307,1.835-10.794
	C294.839,150.896,290.006,150.073,286.519,152.548z"/>
<path style="fill:#CC905E;" d="M431.351,259.452v-25.344c0-9.997-8.105-18.103-18.103-18.103H98.571
	c-9.997,0-18.103,8.105-18.103,18.103v25.344c0,9.998,8.105,18.103,18.103,18.103h314.677
	C423.246,277.555,431.351,269.451,431.351,259.452z"/>
<path style="fill:#BA7958;" d="M413.248,247.814H98.571c-9.252,0-16.869-6.945-17.956-15.903c-0.088,0.722-0.147,1.453-0.147,2.199
	v25.344c0,9.998,8.105,18.103,18.103,18.103h314.677c9.998,0,18.102-8.105,18.102-18.103V234.11c0-0.746-0.059-1.477-0.147-2.199
	C430.117,240.868,422.5,247.814,413.248,247.814z"/>
<g>
</g>
<g>
</g>
<g>
</g>
<g>
</g>
<g>
</g>
<g>
</g>
<g>
</g>
<g>
</g>
<g>
</g>
<g>
</g>
<g>
</g>
<g>
</g>
<g>
</g>
<g>
</g>
<g>
</g>
</svg>
