<?xml version="1.0" encoding="iso-8859-1"?>
<!-- Generator: Adobe Illustrator 19.0.0, SVG Export Plug-In . SVG Version: 6.00 Build 0)  -->
<svg version="1.1" id="Capa_1" xmlns="http://www.w3.org/2000/svg" xmlns:xlink="http://www.w3.org/1999/xlink" x="0px" y="0px"
	 viewBox="0 0 511.999 511.999" style="enable-background:new 0 0 511.999 511.999;" xml:space="preserve">
<g>
	<path style="fill:#FFBE26;" d="M295.027,496.775h-38.804v-78.968c0-4.204-3.408-7.612-7.612-7.612s-7.612,3.408-7.612,7.612v78.968
		h-38.59v-76.478c0-4.204-3.408-7.612-7.612-7.612s-7.612,3.408-7.612,7.612v76.478h-10.191c-4.204,0-7.612,3.408-7.612,7.612
		s3.408,7.612,7.612,7.612h118.033c4.204,0,7.612-3.408,7.612-7.612S299.231,496.775,295.027,496.775z"/>
	<path style="fill:#FFBE26;" d="M420.131,221.12v-73.572c0-4.268-0.248-8.479-0.701-12.629l71.646,37.926
		c7.517,3.979,7.517,10.491,0,14.47l-70.993,37.58C420.106,223.639,420.131,222.382,420.131,221.12z"/>
</g>
<path style="fill:#F99A25;" d="M420.131,147.548v73.572c0,1.262-0.025,2.519-0.048,3.776l21.487-11.374v-65.973
	c0-0.307-0.013-0.611-0.016-0.917l-22.123-11.712C419.884,139.069,420.131,143.28,420.131,147.548z"/>
<path style="fill:#FFE44C;" d="M266.679,0.262c-13.002,0.858,10.535,23.775,5.374,35.739l0,0
	c-40.733,13.568-70.115,51.974-70.115,97.266l0,0c0,49.737-40.32,90.057-90.057,90.057H24.606c-5.356,0-9.564,4.503-9.309,9.853
	c5.151,107.832,94.392,193.627,203.587,193.25c112.252-0.388,202.387-93.055,202.387-205.307v-73.572
	c0-43.584-23.887-81.565-59.267-101.638l0.023-0.017C362.028,45.893,331.816-4.035,266.679,0.262z"/>
<g>
	<path style="fill:#FFC200;" d="M222.236,133.268L222.236,133.268c0-45.293,29.382-83.698,70.115-97.266
		c4.925-11.418-16.26-32.795-6.909-35.471c-5.9-0.573-12.148-0.704-18.764-0.267c-13.002,0.858,10.535,23.775,5.374,35.739
		c-40.733,13.568-70.115,51.974-70.115,97.266l0,0c0,49.737-40.32,90.057-90.057,90.057h20.299
		C181.916,223.324,222.236,183.005,222.236,133.268z"/>
	<path style="fill:#FFC200;" d="M35.596,233.177c-0.255-5.35,3.952-9.853,9.309-9.853H24.606c-5.356,0-9.564,4.503-9.309,9.853
		c5.151,107.832,94.392,193.627,203.587,193.25c3.142-0.011,6.264-0.105,9.371-0.259C124.092,421.011,40.574,337.388,35.596,233.177
		z"/>
	<path style="fill:#FFC200;" d="M189.791,361.933c-14.986,0-29.739-2.093-43.863-6.224c-5.396-1.577-9.451-5.981-10.582-11.491
		c-1.131-5.514,0.864-11.161,5.207-14.739l12.814-10.557c-21.192-1.874-54.931-8.995-87.291-33.336
		c-3.359-2.526-4.034-7.299-1.507-10.659c2.527-3.359,7.299-4.035,10.659-1.507c46.603,35.055,97.707,30.693,98.218,30.644
		c3.327-0.315,6.481,1.582,7.757,4.673c1.277,3.091,0.393,6.653-2.189,8.78l-28.671,23.62c12.873,3.748,26.3,5.659,39.959,5.571
		c43.166-0.149,83.869-21.636,108.882-57.476c2.406-3.448,7.151-4.29,10.599-1.886c3.447,2.406,4.292,7.151,1.886,10.598
		c-27.847,39.901-73.198,63.821-121.313,63.988C190.168,361.933,189.978,361.933,189.791,361.933z"/>
</g>
<circle style="fill:#696B70;" cx="343.551" cy="143" r="27.371"/>
<path style="fill:#5C5F63;" d="M336.483,143.004c0-11.53,7.132-21.387,17.222-25.42c-3.139-1.255-6.562-1.952-10.149-1.952
	c-15.117,0-27.372,12.255-27.372,27.371s12.255,27.371,27.372,27.371c3.587,0,7.01-0.697,10.149-1.952
	C343.615,164.391,336.483,154.533,336.483,143.004z"/>
<g>
</g>
<g>
</g>
<g>
</g>
<g>
</g>
<g>
</g>
<g>
</g>
<g>
</g>
<g>
</g>
<g>
</g>
<g>
</g>
<g>
</g>
<g>
</g>
<g>
</g>
<g>
</g>
<g>
</g>
</svg>
