<?xml version="1.0" encoding="iso-8859-1"?>
<!-- Generator: Adobe Illustrator 19.0.0, SVG Export Plug-In . SVG Version: 6.00 Build 0)  -->
<svg version="1.1" id="Capa_1" xmlns="http://www.w3.org/2000/svg" xmlns:xlink="http://www.w3.org/1999/xlink" x="0px" y="0px"
	 viewBox="0 0 512 512" style="enable-background:new 0 0 512 512;" xml:space="preserve">
<path style="fill:#FFE9B7;" d="M232.217,182.71L71.41,63.877C39.236,40.101-5.818,67.163,0.62,106.398l18.011,109.765
	c9.189,56.002,58.039,97.144,115.345,97.144h94.412C225.782,271.785,226.724,223.393,232.217,182.71z"/>
<path style="fill:#FFD46E;" d="M83.326,246.125L65.316,136.36c-4.228-25.768,13.755-46.284,35.711-50.597L71.41,63.877
	C39.236,40.101-5.818,67.163,0.62,106.398l18.011,109.765c8.386,51.106,49.805,89.818,100.534,96.2
	C100.65,295.35,87.633,272.37,83.326,246.125z"/>
<path style="fill:#F9AF6E;" d="M38.018,218.687L19.725,107.204C15.514,81.54,32.996,61.008,54.703,56.09
	C25.758,49.38-4.754,73.643,0.621,106.398l18.011,109.765c8.386,51.106,49.805,89.818,100.534,96.2
	c-0.305-0.28-0.595-0.575-0.897-0.858C77.054,298.155,45.293,263.023,38.018,218.687z"/>
<path style="fill:#FFE9B7;" d="M440.666,63.877L280.032,182.709c5.477,40.607,6.434,88.997,3.826,130.598h94.31
	c57.244,0,106.042-41.142,115.221-97.144l17.991-109.765C517.811,67.163,472.806,40.101,440.666,63.877z"/>
<path style="fill:#FFD46E;" d="M283.858,313.308h22.797c0.893-14.375,1.375-29.64,1.375-45.463c0-38.287-2.816-73.316-7.478-100.316
	l-20.52,15.18C285.509,223.314,286.466,271.705,283.858,313.308z"/>
<path style="fill:#F9AF6E;" d="M228.388,313.308h-94.412l0,0c-45.032,42.105-60.573,106.634-39.574,164.327
	c5.204,14.296,23.798,18.148,34.354,7.118l106.722-111.511C232.262,356.355,229.808,335.941,228.388,313.308z"/>
<path style="fill:#F59249;" d="M115.007,477.635c-20.999-57.693-5.458-122.222,39.574-164.327l0,0h-20.605l0,0
	c-45.032,42.105-60.573,106.634-39.574,164.327c4.502,12.368,19.025,16.911,29.696,10.77
	C120.084,486.132,116.773,482.487,115.007,477.635z"/>
<path style="fill:#F9AF6E;" d="M378.168,313.308L378.168,313.308h-94.31c-1.419,22.634-3.87,43.048-7.084,59.935l106.607,111.511
	c10.546,11.03,29.12,7.178,34.317-7.118C438.675,419.942,423.152,355.413,378.168,313.308z"/>
<path style="fill:#F59249;" d="M276.774,373.242l18.466,19.315c5.358-19.436,9.418-47.108,11.415-79.25h-22.797
	C282.439,335.941,279.988,356.355,276.774,373.242z"/>
<g>
	<path style="fill:#E2E2E2;" d="M262.43,141.398c-3.827-1.888-5.399-6.521-3.511-10.348l13.82-28.011
		c19.852-40.238,53.746-70.068,92.993-81.842c4.087-1.227,8.394,1.093,9.621,5.181c1.226,4.087-1.093,8.395-5.181,9.621
		c-35.152,10.545-65.613,37.472-83.574,73.877l-13.82,28.011C270.89,141.715,266.256,143.286,262.43,141.398z"/>
	<path style="fill:#E2E2E2;" d="M236.037,137.888l-13.82-28.011C204.256,73.472,173.794,46.545,138.643,36
		c-4.088-1.226-6.407-5.534-5.181-9.621s5.537-6.407,9.621-5.181c39.246,11.773,73.14,41.603,92.993,81.842l13.82,28.011
		c1.888,3.827,0.316,8.46-3.511,10.348C242.564,143.284,237.928,141.719,236.037,137.888z"/>
</g>
<ellipse style="fill:#FFBE26;" cx="256" cy="267.85" rx="31.26" ry="154.57"/>
<path style="fill:#F99A25;" d="M266.387,122.025c-20.236-35.254-41.643,38.942-41.643,145.82
	c0,85.368,13.994,154.573,31.256,154.573c3.642,0,7.137-3.091,10.387-8.753C238.675,365.385,238.661,170.329,266.387,122.025z"/>
<path style="fill:#BA7958;" d="M279.988,168.761c-12.5-73.94-35.46-74.036-47.976,0
	C247.285,175.378,264.707,175.382,279.988,168.761z"/>
<path style="fill:#996459;" d="M252.007,173.576c3.652-23.425,8.63-41.533,14.38-51.551c-6.943-12.1-14.974-12.164-22.377,3.037
	c-7.685,15.809-11.372,41.037-11.999,43.699C238.208,171.445,244.943,173.113,252.007,173.576z"/>
<path style="fill:#FFD46E;" d="M428.763,246.125l17.991-109.765c4.223-25.768-13.74-46.284-35.673-50.597l29.585-21.886
	c32.139-23.776,77.144,3.286,70.713,42.521l-17.991,109.765c-8.377,51.106-49.752,89.818-100.426,96.2
	C411.458,295.35,424.461,272.37,428.763,246.125z"/>
<g>
</g>
<g>
</g>
<g>
</g>
<g>
</g>
<g>
</g>
<g>
</g>
<g>
</g>
<g>
</g>
<g>
</g>
<g>
</g>
<g>
</g>
<g>
</g>
<g>
</g>
<g>
</g>
<g>
</g>
</svg>
