<?xml version="1.0" encoding="iso-8859-1"?>
<!-- Generator: Adobe Illustrator 19.0.0, SVG Export Plug-In . SVG Version: 6.00 Build 0)  -->
<svg version="1.1" id="Capa_1" xmlns="http://www.w3.org/2000/svg" xmlns:xlink="http://www.w3.org/1999/xlink" x="0px" y="0px"
	 viewBox="0 0 511.999 511.999" style="enable-background:new 0 0 511.999 511.999;" xml:space="preserve">
<g>
	<path style="fill:#E2E2E2;" d="M285.598,65.24c-4.284,0-7.757-3.473-7.757-7.757v-8.131C277.841,22.14,299.981,0,327.194,0h4.697
		c4.284,0,7.757,3.473,7.757,7.757s-3.473,7.757-7.757,7.757h-4.697c-18.659,0-33.839,15.18-33.839,33.839v8.131
		C293.355,61.768,289.882,65.24,285.598,65.24z"/>
	<path style="fill:#E2E2E2;" d="M226.597,65.24c-4.284,0-7.757-3.473-7.757-7.757v-8.131c0-18.659-15.18-33.839-33.839-33.839
		h-4.697c-4.284,0-7.757-3.473-7.757-7.757S176.02,0,180.304,0h4.697c27.213,0,49.352,22.14,49.352,49.352v8.131
		C234.354,61.768,230.881,65.24,226.597,65.24z"/>
</g>
<path style="fill:#696B70;" d="M244.043,117.946c4.642-0.511,9.349-0.797,14.124-0.797c4.774,0,9.482,0.286,14.124,0.797
	c12.571,0.903,24.823,2.997,36.648,6.183c2.651-6.634,4.116-13.901,4.116-21.521c0-31.243-24.575-56.571-54.889-56.571
	c-30.315,0-54.89,25.328-54.89,56.571c0,7.62,1.467,14.886,4.117,21.521C219.219,120.943,231.471,118.849,244.043,117.946z"/>
<path style="fill:#5C5F63;" d="M225.771,102.608c0-27.27,18.723-50.029,43.642-55.378c-3.631-0.779-7.392-1.193-11.247-1.193
	c-30.315,0-54.89,25.328-54.89,56.571c0,7.62,1.467,14.886,4.117,21.521c6.847-1.844,13.841-3.31,20.953-4.404
	C226.682,114.324,225.771,108.577,225.771,102.608z"/>
<g>
	<path style="fill:#E2E2E2;" d="M413.577,199.604c-2.264,0-4.508-0.986-6.041-2.886c-2.69-3.333-2.169-8.217,1.165-10.907
		l32.169-25.963c3.334-2.691,8.217-2.168,10.908,1.165c2.691,3.333,2.169,8.217-1.165,10.908l-32.169,25.963
		C417.009,199.042,415.288,199.604,413.577,199.604z"/>
	<path style="fill:#E2E2E2;" d="M445.736,473.493c-1.711,0-3.432-0.563-4.867-1.721L408.7,445.809
		c-3.333-2.691-3.855-7.574-1.165-10.907c2.691-3.334,7.575-3.855,10.908-1.165l32.169,25.963c3.333,2.691,3.855,7.574,1.165,10.907
		C450.244,472.507,448,473.493,445.736,473.493z"/>
	<path style="fill:#E2E2E2;" d="M494.58,323.305h-38.24c-4.284,0-7.757-3.472-7.757-7.757s3.473-7.757,7.757-7.757h38.24
		c4.284,0,7.757,3.472,7.757,7.757S498.864,323.305,494.58,323.305z"/>
	<path style="fill:#E2E2E2;" d="M98.422,199.604c-1.711,0-3.432-0.563-4.867-1.721L61.387,171.92
		c-3.333-2.691-3.855-7.574-1.165-10.908c2.691-3.334,7.575-3.855,10.908-1.165l32.169,25.963c3.333,2.691,3.855,7.574,1.165,10.907
		C102.931,198.618,100.686,199.604,98.422,199.604z"/>
	<path style="fill:#E2E2E2;" d="M66.263,473.493c-2.264,0-4.508-0.986-6.041-2.886c-2.691-3.333-2.169-8.216,1.165-10.907
		l32.169-25.963c3.334-2.692,8.217-2.17,10.908,1.165c2.691,3.333,2.169,8.216-1.165,10.907L71.13,471.772
		C69.695,472.931,67.973,473.493,66.263,473.493z"/>
	<path style="fill:#E2E2E2;" d="M55.659,323.305h-38.24c-4.284,0-7.757-3.472-7.757-7.757s3.473-7.757,7.757-7.757h38.24
		c4.284,0,7.757,3.472,7.757,7.757S59.943,323.305,55.659,323.305z"/>
</g>
<path style="fill:#696B70;" d="M308.033,472.281c-31.56-20.485-50.901-57.608-50.901-97.696c0,40.088-19.342,77.211-50.901,97.696
	l-31.465,20.424c-0.107-0.053-0.213-0.109-0.321-0.162c25.206,12.494,53.201,19.456,82.686,19.456
	c29.36,0,57.243-6.899,82.366-19.294L308.033,472.281z"/>
<path style="fill:#5C5F63;" d="M220.193,488.571c22.966-14.908,39.452-38.63,46.732-65.89c-6.343-14.824-9.794-31.193-9.794-48.095
	c0,40.088-19.342,77.211-50.901,97.696l-31.457,20.419c7.722,3.809,15.703,7.102,23.909,9.832L220.193,488.571z"/>
<path style="fill:#F446AC;" d="M56.889,315.548c0,78.305,44.947,146.112,110.448,179.029c4.51,2.267,9.863,2.096,14.202-0.483
	l24.691-14.679c31.559-18.762,51.935-52.762,51.935-89.478V115.306C147.575,115.306,56.889,204.957,56.889,315.548z"/>
<g>
	<path style="fill:#F21897;" d="M77.574,315.548c0-103.611,79.6-188.84,180.592-199.186v-1.057
		c-110.591,0-201.277,89.652-201.277,200.243c0,78.305,44.947,146.112,110.448,179.029c4.51,2.267,9.863,2.096,14.202-0.483
		l2.584-1.536C120.745,458.941,77.574,392.289,77.574,315.548z"/>
	<path style="fill:#F21897;" d="M308.033,479.415l23.997,14.267c4.771,2.836,10.668,3.044,15.617,0.532
		c65.11-33.052,109.728-100.648,109.728-178.665c0-110.591-90.687-200.243-201.277-200.243v274.632
		C256.098,426.653,276.473,460.653,308.033,479.415z"/>
</g>
<path style="fill:#B72391;" d="M329.34,479.415c-31.56-18.762-51.935-52.762-51.935-89.477V116.433
	c-7.006-0.74-14.113-1.128-21.307-1.128v274.632c0,36.715,20.375,70.715,51.935,89.477l23.997,14.267
	c4.771,2.837,10.668,3.044,15.617,0.532c1.177-0.597,2.345-1.209,3.508-1.829L329.34,479.415z"/>
<circle style="fill:#696B70;" cx="358.53" cy="301.18" r="42.94"/>
<path style="fill:#5C5F63;" d="M337.172,301.184c0-19.987,13.656-36.783,32.147-41.57c-3.449-0.893-7.065-1.369-10.793-1.369
	c-23.715,0-42.94,19.225-42.94,42.94s19.225,42.94,42.94,42.94c3.728,0,7.344-0.477,10.793-1.369
	C350.828,337.967,337.172,321.171,337.172,301.184z"/>
<circle style="fill:#696B70;" cx="155.18" cy="301.18" r="42.94"/>
<path style="fill:#5C5F63;" d="M133.823,301.184c0-19.987,13.656-36.783,32.147-41.57c-3.449-0.893-7.065-1.369-10.793-1.369
	c-23.715,0-42.94,19.225-42.94,42.94s19.225,42.94,42.94,42.94c3.728,0,7.344-0.477,10.793-1.369
	C147.48,337.967,133.823,321.171,133.823,301.184z"/>
<g>
</g>
<g>
</g>
<g>
</g>
<g>
</g>
<g>
</g>
<g>
</g>
<g>
</g>
<g>
</g>
<g>
</g>
<g>
</g>
<g>
</g>
<g>
</g>
<g>
</g>
<g>
</g>
<g>
</g>
</svg>
