<?xml version="1.0" encoding="iso-8859-1"?>
<!-- Generator: Adobe Illustrator 19.0.0, SVG Export Plug-In . SVG Version: 6.00 Build 0)  -->
<svg version="1.1" id="Capa_1" xmlns="http://www.w3.org/2000/svg" xmlns:xlink="http://www.w3.org/1999/xlink" x="0px" y="0px"
	 viewBox="0 0 511.999 511.999" style="enable-background:new 0 0 511.999 511.999;" xml:space="preserve">
<g>
	<path style="fill:#E2E2E2;" d="M280.445,78.689c6.102-17.42,19.345-37.647,37.127-52.488
		c16.133-13.465,35.432-22.486,55.811-26.086c4.075-0.718,7.969,2.001,8.69,6.081c0.721,4.079-2.002,7.97-6.081,8.69
		c-38.046,6.722-68.357,33.811-81.303,68.518C292.189,93.521,276.804,89.106,280.445,78.689z M294.903,81.379
		c0.015,0.472-0.015,0.946-0.091,1.417C294.89,82.345,294.921,81.868,294.903,81.379z M291.647,75.418L291.647,75.418
		L291.647,75.418z M291.638,75.412c0.001,0,0.001,0.001,0.002,0.001C291.639,75.413,291.638,75.412,291.638,75.412z M291.628,75.405
		c0.001,0.001,0.002,0.002,0.003,0.002C291.63,75.407,291.629,75.406,291.628,75.405z M291.618,75.399
		c0.001,0.001,0.002,0.001,0.004,0.003C291.621,75.401,291.619,75.4,291.618,75.399z M291.608,75.392
		c0.002,0.001,0.003,0.002,0.005,0.003C291.611,75.394,291.61,75.393,291.608,75.392z M291.598,75.385
		c0.001,0.001,0.003,0.002,0.005,0.004C291.601,75.387,291.599,75.386,291.598,75.385z M291.584,75.376
		c0.003,0.002,0.006,0.004,0.01,0.006C291.591,75.38,291.588,75.378,291.584,75.376z"/>
	<path style="fill:#E2E2E2;" d="M216.823,85.819c-0.514-0.757-0.871-1.574-1.079-2.413c-12.872-34.508-43.05-61.762-81.303-68.521
		c-4.079-0.721-6.802-4.612-6.081-8.69c0.721-4.079,4.609-6.797,8.69-6.081c20.378,3.601,39.677,12.621,55.81,26.086
		c16.13,13.462,28.78,31.111,36.582,51.037C233.878,88.563,221.391,92.541,216.823,85.819z M215.526,81.533
		c-0.007,0.433,0.025,0.854,0.093,1.255C215.552,82.372,215.521,81.952,215.526,81.533z M218.768,75.43
		c-0.001,0-0.002,0.001-0.002,0.001S218.767,75.431,218.768,75.43z M218.778,75.424c-0.001,0.001-0.002,0.001-0.003,0.002
		C218.775,75.425,218.777,75.424,218.778,75.424z M218.788,75.417c-0.002,0.001-0.003,0.002-0.005,0.003
		C218.784,75.419,218.786,75.418,218.788,75.417z M218.798,75.41c-0.001,0.001-0.003,0.002-0.005,0.004
		C218.794,75.412,218.796,75.411,218.798,75.41z M218.811,75.401c-0.003,0.002-0.006,0.004-0.009,0.007
		C218.804,75.405,218.808,75.403,218.811,75.401z"/>
</g>
<g>
	<path style="fill:#696B70;" d="M256,511.999c-4.142,0-7.5-3.357-7.5-7.5v-37.058c0-4.143,3.358-7.5,7.5-7.5
		c4.142,0,7.5,3.357,7.5,7.5v37.058C263.5,508.642,260.142,511.999,256,511.999z"/>
	<path style="fill:#696B70;" d="M256.001,68.858c-32.154,0-58.22,27.678-58.22,61.821c0,18.952,8.039,35.902,20.685,47.242h75.071
		C334.748,140.963,310.292,68.858,256.001,68.858z"/>
</g>
<path style="fill:#5C5F63;" d="M266.001,69.785c-35.841-6.592-68.22,22.708-68.22,60.894c0,18.951,8.039,35.902,20.685,47.242h20
	C200.856,144.193,217.314,78.739,266.001,69.785z"/>
<path style="fill:#FFBE26;" d="M334.591,345.173c-72.664-70.31-78.648-161.764-78.648-161.764
	c-2.869,27.183-16.4,102.465-79.766,162.957l-1.108,4.621c-8.986,37.465,7.242,76.447,40.159,96.469l22.588,13.739
	c10.88,6.618,24.541,6.618,35.421,0l26.735-16.261c30.446-18.519,45.456-54.575,37.145-89.228L334.591,345.173z"/>
<path style="fill:#F99A25;" d="M235.298,456.455c-32.917-20.022-49.145-59.003-40.159-96.469l1.108-4.621
	c41.188-39.32,61.316-84.884,71.152-119.431c-8.742-27.212-11.393-50.969-11.399-53.611c-0.001,0.359-0.019,0.72-0.058,1.085
	c-2.869,27.183-16.401,102.465-79.766,162.957l-1.108,4.621c-8.986,37.465,7.242,76.447,40.159,96.469l22.588,13.739
	c3.999,2.432,8.374,3.962,12.847,4.607L235.298,456.455z"/>
<path style="fill:#696B70;" d="M196.729,324.241H315.29c-13.845-16.786-24.511-34.079-32.704-50.716h-53.174
	C221.222,290.162,210.573,307.455,196.729,324.241z"/>
<path style="fill:#5C5F63;" d="M229.427,273.525c-8.191,16.634-18.841,33.932-32.683,50.716h27.159
	c12.779-16.997,22.469-34.298,29.819-50.716H229.427z"/>
<path style="fill:#696B70;" d="M190.965,425.672h130.772c11.337-14.369,17.62-32.242,17.643-50.716H172.687
	C173.371,393.398,179.811,411.131,190.965,425.672z"/>
<path style="fill:#5C5F63;" d="M204.972,425.672c-8.91-15.141-13.25-32.787-12.086-50.716h-20.199
	c0,14.834,6.486,35.975,18.278,50.716H204.972z"/>
<path style="fill:#AAE8FF;" d="M255.058,183.409c3.016,28.58,17.815,110.331,89.931,172.159
	c34.004,29.152,86.188,26.116,115.323-7.903c29.289-34.199,25.077-85.649-9.276-114.639
	c-73.447-61.982-157.501-62.848-186.377-61.003C258.809,172.397,254.443,177.578,255.058,183.409z"/>
<path style="fill:#6BD9FC;" d="M366.99,355.568c-72.117-61.828-86.916-143.579-89.931-172.159
	c-0.615-5.831,3.75-11.012,9.602-11.386c1.236-0.079,2.58-0.152,4.013-0.217c-10.831-0.457-19.729-0.185-26.013,0.217
	c-5.852,0.374-10.217,5.555-9.602,11.386c3.016,28.58,17.815,110.331,89.931,172.159c18.5,15.861,42.379,22.171,65.003,19.17
	C394.564,372.686,379.538,366.326,366.99,355.568z"/>
<path style="fill:#AAE8FF;" d="M256.943,183.409c-3.016,28.58-17.815,110.331-89.931,172.159
	c-34.004,29.152-86.188,26.116-115.323-7.903c-29.289-34.199-25.077-85.649,9.276-114.639
	c73.447-61.982,157.501-62.848,186.377-61.003C253.192,172.397,257.558,177.578,256.943,183.409z"/>
<g>
	<path style="fill:#6BD9FC;" d="M71.688,347.665c-29.289-34.199-25.077-85.649,9.275-114.639
		c57.986-48.935,122.577-59.773,161.413-61.26c-32.654-1.33-111.794,2.509-181.413,61.26c-34.352,28.99-38.565,80.44-9.275,114.639
		c18.149,21.192,45.243,30.355,71.315,27.209C103.682,372.548,85.204,363.447,71.688,347.665z"/>
	<path style="fill:#6BD9FC;" d="M95.744,314.967c-2.106,0-4.201-0.882-5.684-2.603c-2.705-3.138-2.354-7.873,0.783-10.578
		l102.49-88.363c3.139-2.703,7.874-2.354,10.578,0.783c2.705,3.138,2.354,7.873-0.783,10.578l-102.49,88.363
		C99.221,314.368,97.479,314.967,95.744,314.967z"/>
	<path style="fill:#6BD9FC;" d="M411.361,313.148l-102.49-88.363c-3.137-2.705-3.488-7.44-0.783-10.578
		c2.705-3.136,7.441-3.487,10.578-0.783l102.49,88.363c3.137,2.705,3.488,7.44,0.783,10.578
		C419.234,315.501,414.497,315.852,411.361,313.148z"/>
</g>
<g>
</g>
<g>
</g>
<g>
</g>
<g>
</g>
<g>
</g>
<g>
</g>
<g>
</g>
<g>
</g>
<g>
</g>
<g>
</g>
<g>
</g>
<g>
</g>
<g>
</g>
<g>
</g>
<g>
</g>
</svg>
