<?xml version="1.0" encoding="iso-8859-1"?>
<!-- Generator: Adobe Illustrator 19.0.0, SVG Export Plug-In . SVG Version: 6.00 Build 0)  -->
<svg version="1.1" id="Capa_1" xmlns="http://www.w3.org/2000/svg" xmlns:xlink="http://www.w3.org/1999/xlink" x="0px" y="0px"
	 viewBox="0 0 512 512" style="enable-background:new 0 0 512 512;" xml:space="preserve">
<path style="fill:#E2E2E2;" d="M43.203,188.01c21.889,0,39.964,16.282,42.803,37.393c-9.419,13.159-16.835,27.832-21.798,43.561
	c-6.219,3.468-13.379,5.451-21.005,5.451C19.343,274.415,0,255.073,0,231.213C0,207.352,19.343,188.01,43.203,188.01z"/>
<path style="fill:#D3D3D3;" d="M20.646,231.213c0-20.302,14.008-37.325,32.883-41.953c-3.309-0.812-6.766-1.25-10.327-1.25
	C19.343,188.01,0,207.352,0,231.213s19.343,43.203,43.203,43.203c3.552,0,6.996-0.447,10.298-1.257
	C34.64,268.52,20.646,251.505,20.646,231.213z"/>
<path style="fill:#E2E2E2;" d="M56.072,312.057c1.157-82.894,68.346-150.809,151.224-152.806
	c55.047-1.326,103.782,26.045,132.321,68.206c5.733,8.47,17.087,10.96,25.818,5.634c2.931-1.788,5.971-3.414,9.109-4.866
	c5.714-2.644,7.841-9.652,4.71-15.114c-36.161-63.09-45.11-161.288-14.983-169.889c20.69-5.907,50.643,35.471,66.902,92.419
	c7.404,25.932,10.684,50.609,10.112,70.362c-0.299,10.313,5.319,19.911,14.383,24.84c28.181,15.328,47.314,45.19,47.332,79.522
	c0.003,5.833-0.571,11.542-1.643,17.086c7.16,8.569,11.251,19.79,10.569,31.979c-1.286,22.978-19.823,41.648-42.792,43.084
	c-9.882,0.618-19.138-1.904-26.877-6.658c-8.504,2.991-17.575,4.755-27.01,5.037c-19.526,0.583-37.704-5.03-52.735-15.009
	c-5.378-3.57-12.715-1.848-15.865,3.786c-3.141,5.618-6.623,11.018-10.41,16.181l10.845,19.079c2.57,4.521,7.352,7.399,12.553,7.378
	c16.96-0.069,30.729,13.658,30.729,30.602l0,0c0,3.551-2.878,6.429-6.429,6.429h-99.907l-0.604-0.821
	c-1.281,0.52-2.682,0.821-4.175,0.821H154.167c-7.859,0-15.468-2.782-21.447-7.884c-22.358-19.078-75.444-70.403-75.444-127.65
	l0.012-0.003C56.394,326.691,55.97,319.434,56.072,312.057z"/>
<g>
	<path style="fill:#D3D3D3;" d="M77.923,333.804l0.012-0.003c-11.306-89.932,56.391-168.469,143.485-174.246
		c-4.656-0.305-9.363-0.42-14.123-0.305c-82.878,1.997-150.067,69.912-151.224,152.806c-0.103,7.377,0.321,14.634,1.215,21.745
		l-0.012,0.003c0,57.247,53.086,108.572,75.444,127.65c5.979,5.102,13.587,7.884,21.447,7.884h20.646
		c-7.859,0-15.468-2.782-21.447-7.884C131.008,442.376,77.923,391.052,77.923,333.804z"/>
	<path style="fill:#D3D3D3;" d="M379.254,213.11c3.131,5.462,1.004,12.47-4.71,15.114c-3,1.388-5.909,2.941-8.72,4.637
		c5.982,3.822,13.828,4.152,20.258,0.229c2.931-1.788,5.971-3.414,9.109-4.866c5.714-2.644,7.841-9.652,4.71-15.114
		c-33.245-58.002-44.188-147.691-20.434-167c-5.362-3.135-10.516-4.225-15.196-2.889C334.176,51.814,343.021,149.895,379.254,213.11
		z"/>
</g>
<circle style="fill:#696B70;" cx="442.21" cy="301.049" r="17.648"/>
<path style="fill:#5C5F63;" d="M445.469,301.046c0-5.829,2.838-10.982,7.195-14.196c-2.928-2.16-6.535-3.452-10.452-3.452
	c-9.747,0-17.648,7.901-17.648,17.648s7.901,17.648,17.648,17.648c3.917,0,7.524-1.292,10.452-3.452
	C448.307,312.029,445.469,306.875,445.469,301.046z"/>
<g>
	<path style="fill:#D3D3D3;" d="M298.799,461.811c-4.753-38.671-41.292-50.373-56.093-53.538
		c-0.494-20.749-3.383-39.224-8.593-54.948c-7.894-23.823-28.024-42.104-52.536-47.712c-4.168-0.948-8.321,1.652-9.274,5.822
		c-0.954,4.168,1.653,8.32,5.821,9.274c19.267,4.407,35.088,18.77,41.29,37.487c4.929,14.876,7.573,32.675,7.857,52.903
		c0.082,5.852,4.315,10.855,10.063,11.895c12.637,2.289,42.425,10.84,46.096,40.706c0.201,1.638-0.205,3.257-1.06,4.224
		c-0.542,0.613-1.206,0.898-2.088,0.898c-0.974,0-1.902,0.188-2.761,0.516h1.728c1.493,0,2.894-0.302,4.175-0.821l0.604,0.821
		h14.406C298.979,466.927,299.115,464.381,298.799,461.811z"/>
	<path style="fill:#D3D3D3;" d="M336.237,405.851L336.237,405.851L336.237,405.851c3.423-4.666,6.581-9.536,9.478-14.575
		l-9.461-16.644c-2.113-3.718-6.839-5.019-10.557-2.905c-3.717,2.113-5.018,6.84-2.905,10.557L336.237,405.851z"/>
</g>
<g>
</g>
<g>
</g>
<g>
</g>
<g>
</g>
<g>
</g>
<g>
</g>
<g>
</g>
<g>
</g>
<g>
</g>
<g>
</g>
<g>
</g>
<g>
</g>
<g>
</g>
<g>
</g>
<g>
</g>
</svg>
