<?xml version="1.0" encoding="iso-8859-1"?>
<!-- Generator: Adobe Illustrator 19.0.0, SVG Export Plug-In . SVG Version: 6.00 Build 0)  -->
<svg version="1.1" id="Capa_1" xmlns="http://www.w3.org/2000/svg" xmlns:xlink="http://www.w3.org/1999/xlink" x="0px" y="0px"
	 viewBox="0 0 511.999 511.999" style="enable-background:new 0 0 511.999 511.999;" xml:space="preserve">
<rect x="371.391" y="61.182" transform="matrix(-0.7071 -0.7071 0.7071 -0.7071 578.2034 484.5665)" style="fill:#CC905E;" width="36.135" height="122.703"/>
<polygon style="fill:#BA7958;" points="432.39,78.818 445.56,91.989 445.616,91.933 420.064,66.382 333.298,153.149 
	345.679,165.529 "/>
<rect x="205.711" y="202.645" transform="matrix(-0.7071 0.7071 -0.7071 -0.7071 653.3217 170.811)" style="fill:#696B70;" width="171.147" height="36.135"/>
<polygon style="fill:#5C5F63;" points="234.024,277.184 345.623,165.585 345.623,165.585 351.4,159.808 339.02,147.428 218,268.448 
	230.38,280.828 "/>
<path style="fill:#E2E2E2;" d="M221.699,264.748l-6.242,6.242c-7.966,7.966-20.881,7.966-28.847,0l-17.997-17.997l-26.949-26.949
	c-9.235-9.235-24.207-9.235-33.442,0c-0.297,0.297-0.561,0.614-0.81,0.939c-0.329,0.253-0.65,0.521-0.952,0.822l-2.625,2.625
	L82.658,251.61L24.737,309.53l-5.512,5.512L3.558,330.709c-4.743,4.743-4.743,12.506,0,17.25l0.97,0.97
	c4.743,4.743,12.506,4.743,17.25,0l21.179-21.179l57.921-57.921l18.989-18.989l4.072,4.072l10.52,10.52l7.065,7.065l-18.989,18.989
	l-57.92,57.922l-21.179,21.179c-4.743,4.743-4.743,12.506,0,17.25l0.97,0.97c4.743,4.743,12.506,4.743,17.25,0l21.179-21.179
	l57.921-57.921l18.989-18.989l7.527,7.527l13.668,13.668l0.462,0.462l-18.989,18.989l-57.921,57.921l-21.179,21.179
	c-4.743,4.743-4.743,12.506,0,17.25l0.97,0.97c4.743,4.743,12.506,4.743,17.25,0l21.179-21.179l57.921-57.921l18.989-18.989
	l0.462,0.462l13.668,13.668l7.527,7.527l-18.989,18.989l-57.921,57.921l-21.179,21.179c-4.743,4.743-4.743,12.506,0,17.25l0.97,0.97
	c4.743,4.743,12.506,4.743,17.25,0l21.179-21.179l57.921-57.921l18.989-18.989l7.065,7.065l4.529,4.529l10.063,10.063
	l-18.989,18.989l-57.921,57.921l-21.179,21.179c-4.743,4.743-4.743,12.506,0,17.25l0.97,0.97c4.743,4.743,12.506,4.743,17.25,0
	l15.459-15.459l5.72-5.72l57.921-57.921l21.179-21.179l2.625-2.625c0.301-0.301,0.569-0.622,0.822-0.952
	c0.325-0.249,0.642-0.513,0.939-0.81c9.235-9.235,9.235-24.207,0-33.442l-26.949-26.949l-17.911-17.911
	c-8.013-8.013-8.013-21.005,0-29.018l6.156-6.156L221.699,264.748z"/>
<path style="fill:#D3D3D3;" d="M15.883,343.145l15.666-15.666l5.512-5.512l57.921-57.921l21.179-21.179l2.625-2.625
	c0.301-0.301,0.622-0.569,0.952-0.822c0.249-0.325,0.513-0.642,0.81-0.939c9.235-9.235,24.207-9.235,33.442,0l26.949,26.949
	l17.997,17.997c7.966,7.966,20.881,7.966,28.847,0l6.242-6.242l0.056-0.056l-12.38-12.38l-6.242,6.242
	c-7.966,7.966-20.881,7.966-28.847,0l-17.997-17.997l-26.949-26.949c-9.235-9.235-24.207-9.235-33.442,0
	c-0.297,0.297-0.561,0.614-0.81,0.939c-0.329,0.253-0.65,0.521-0.952,0.822l-2.625,2.625L82.658,251.61L24.737,309.53l-5.512,5.512
	L3.558,330.709c-4.743,4.743-4.743,12.506,0,17.25l0.97,0.97c2.171,2.171,4.973,3.336,7.829,3.521
	C12.172,349.1,13.338,345.69,15.883,343.145z"/>
<path style="fill:#BABABA;" d="M399.804,21.089l-10.15,10.15c-4.96,4.96-4.96,13.076,0,18.036l73.068,73.068
	c4.96,4.96,13.076,4.96,18.037,0l10.15-10.15L399.804,21.089z"/>
<path style="fill:#E2E2E2;" d="M471.741,133.923c-5.074,0-10.15-1.932-14.012-5.795L383.871,54.27
	c-7.727-7.727-7.727-20.298,0-28.025l20.451-20.451c3.733-3.734,8.709-5.789,14.012-5.789c5.303,0,10.279,2.056,14.012,5.789
	l73.858,73.858c7.726,7.727,7.726,20.298,0,28.025l-20.452,20.451C481.89,131.992,476.815,133.923,471.741,133.923z M418.335,15.247
	c-1.231,0-2.379,0.47-3.233,1.325L394.65,37.023c-1.753,1.753-1.753,4.714,0,6.467l73.858,73.858c1.753,1.753,4.715,1.753,6.467,0
	l20.451-20.451c1.753-1.753,1.753-4.715-0.001-6.467l-73.858-73.858C420.714,15.718,419.566,15.247,418.335,15.247z"/>
<g>
</g>
<g>
</g>
<g>
</g>
<g>
</g>
<g>
</g>
<g>
</g>
<g>
</g>
<g>
</g>
<g>
</g>
<g>
</g>
<g>
</g>
<g>
</g>
<g>
</g>
<g>
</g>
<g>
</g>
</svg>
