<?xml version="1.0" encoding="iso-8859-1"?>
<!-- Generator: Adobe Illustrator 19.0.0, SVG Export Plug-In . SVG Version: 6.00 Build 0)  -->
<svg version="1.1" id="Capa_1" xmlns="http://www.w3.org/2000/svg" xmlns:xlink="http://www.w3.org/1999/xlink" x="0px" y="0px"
	 viewBox="0 0 512 512" style="enable-background:new 0 0 512 512;" xml:space="preserve">
<path id="SVGCleanerId_0" style="fill:#E2E2E2;" d="M106.184,281.683l-80.69,80.69c-33.992,33.992-33.992,89.104,0,123.096
	c34.802,34.802,91.227,34.802,126.029,0l79.223-79.223L106.184,281.683z"/>
<g>
	<path id="SVGCleanerId_0_1_" style="fill:#E2E2E2;" d="M106.184,281.683l-80.69,80.69c-33.992,33.992-33.992,89.104,0,123.096
		c34.802,34.802,91.227,34.802,126.029,0l79.223-79.223L106.184,281.683z"/>
</g>
<path style="fill:#D3D3D3;" d="M50.409,368.588l71.34-71.34l-15.564-15.564l-80.69,80.689c-33.992,33.992-33.992,89.104,0,123.096
	c6.787,6.787,14.403,12.231,22.515,16.372C12.956,464.191,13.741,405.256,50.409,368.588z"/>
<path style="fill:#BABABA;" d="M384.604,24.397L373.46,35.543c-5.631,5.631-5.631,14.845,0,20.476l82.952,82.953
	c5.631,5.631,14.845,5.631,20.476,0l11.145-11.145L384.604,24.397z"/>
<path style="fill:#696B70;" d="M239.639,397.353c6.059-6.059,6.059-15.883,0-21.944l-20.334-20.334
	c-9.097-9.097-9.097-23.847,0-32.944l210.134-210.134L400.431,82.99L190.2,293.222c-9.043,9.043-23.706,9.043-32.749,0
	l-20.431-20.431c-6.059-6.059-15.884-6.059-21.944,0L99.6,288.267l36.785,36.785c9.927,9.927,11.875,25.638,3.959,37.233
	c-0.288,0.422-0.588,0.838-0.9,1.248l-23.7,31.158c-1.003,1.318,0.675,2.996,1.993,1.993l31.158-23.7
	c0.41-0.312,0.826-0.612,1.248-0.9c11.595-7.916,27.305-5.969,37.233,3.959l36.785,36.785L239.639,397.353z"/>
<g>
	<path style="fill:#5C5F63;" d="M132.148,286.848l9.465-9.464l-4.593-4.593c-6.059-6.059-15.884-6.059-21.944,0L99.6,288.267
		l15.564,15.564L132.148,286.848z"/>
	<path style="fill:#5C5F63;" d="M171.647,306.392c9.043,9.043,23.706,9.043,32.749,0L414.114,96.673L400.431,82.99L190.2,293.222
		c-7.66,7.66-19.342,8.806-28.236,3.488L171.647,306.392z"/>
</g>
<rect x="351.597" y="72.246" transform="matrix(-0.7071 -0.7071 0.7071 -0.7071 536.0106 502.6477)" style="fill:#CC905E;" width="41.021" height="136.133"/>
<rect x="297.479" y="125.638" transform="matrix(-0.7071 0.7071 -0.7071 -0.7071 713.2956 -24.8303)" style="fill:#BA7958;" width="128.623" height="19.35"/>
<path style="fill:#E2E2E2;" d="M452.68,145.985l-86.236-86.236c-7.702-7.702-7.702-20.236,0-27.938l25.605-25.605
	c7.702-7.702,20.237-7.703,27.938,0l86.236,86.236c7.702,7.702,7.702,20.235,0,27.938l-25.605,25.605
	C472.917,153.687,460.383,153.688,452.68,145.985z M406.019,15.631c-1.227,0-2.372,0.469-3.224,1.32L377.19,42.556
	c-1.747,1.748-1.747,4.7,0,6.447c92.983,92.983,86.741,87.556,89.459,87.556c2.546,0,1.012,0.891,28.829-26.926
	c1.747-1.747,1.747-4.7,0-6.447l-86.235-86.234C408.391,16.1,407.247,15.631,406.019,15.631z"/>
<g>
</g>
<g>
</g>
<g>
</g>
<g>
</g>
<g>
</g>
<g>
</g>
<g>
</g>
<g>
</g>
<g>
</g>
<g>
</g>
<g>
</g>
<g>
</g>
<g>
</g>
<g>
</g>
<g>
</g>
</svg>
