<?xml version="1.0" encoding="iso-8859-1"?>
<!-- Generator: Adobe Illustrator 19.0.0, SVG Export Plug-In . SVG Version: 6.00 Build 0)  -->
<svg version="1.1" id="Capa_1" xmlns="http://www.w3.org/2000/svg" xmlns:xlink="http://www.w3.org/1999/xlink" x="0px" y="0px"
	 viewBox="0 0 512.002 512.002" style="enable-background:new 0 0 512.002 512.002;" xml:space="preserve">
<path style="fill:#FFBE26;" d="M414.287,120.198l64.725,33.787c6.791,3.545,6.791,9.346,0,12.891l-64.135,33.479
	C414.896,199.326,415.294,129.286,414.287,120.198z"/>
<path style="fill:#F99A25;" d="M414.877,200.356l22.624-11.81v-56.23l-23.213-12.118
	C415.295,129.301,414.896,199.324,414.877,200.356z"/>
<path style="fill:#FFE44C;" d="M243.558,277.021l116.033-48.971l50.334,21.242c8.562-30.181,6.971-50.403,6.971-117.844
	c0-38.827-21.28-72.664-52.8-90.547c0.003-0.002,0.021-0.015,0.021-0.015s-26.915-44.48-84.944-40.652
	c-11.583,0.764,9.385,21.181,4.787,31.839c-36.288,12.087-62.463,46.302-62.463,86.652v27.778
	c0,39.425-18.642,77.838-48.794,100.612L243.558,277.021z"/>
<path style="fill:#FFC200;" d="M235.956,154.488v-34.193c0-34.245,15.872-64.896,40.895-85.509
	c-32.546,13.968-55.354,46.277-55.354,83.94v27.778c0,39.425-18.642,77.838-48.794,100.612l24.118,10.179
	C221.469,229.495,235.956,192.372,235.956,154.488z"/>
<path style="fill:#FCCC92;" d="M351.942,229.218l-100.735,42.514c-4.891,2.064-10.408,2.064-15.298,0l-100.731-42.514
	c-4.891-2.064-10.408-2.064-15.299,0l-79.657,33.621c-6.961,2.938-11.614,9.609-11.999,17.155
	c-6.919,135.505,97.183,232.008,215.349,232.008c118.144,0,222.268-96.451,215.349-232.002c-0.385-7.546-5.038-14.217-12-17.155
	l-79.681-33.627C362.349,227.154,356.832,227.154,351.942,229.218z"/>
<path style="fill:#F9AF6E;" d="M49.326,270.725c0.291-5.695,2.836-10.922,6.905-14.642l-16.009,6.757
	c-6.961,2.938-11.614,9.609-11.999,17.155c-6.184,121.119,76.54,211.106,178.089,228.791
	C113.931,477.092,43.345,387.872,49.326,270.725z"/>
<path style="fill:#F9D1A5;" d="M243.782,378.487l14.444,38.817l-5.903,9.593c-2.237,3.634-1.104,8.393,2.531,10.63
	c1.263,0.777,2.661,1.147,4.042,1.147c2.594,0,5.129-1.306,6.588-3.678l7.879-12.804c1.247-2.026,1.491-4.514,0.661-6.744
	l-13.743-36.934l53.898-40.353c7.158,4.289,19.988,11.86,23.202,13.755c1.232,0.726,2.584,1.072,3.918,1.072
	c2.645,0,5.222-1.359,6.663-3.803c2.168-3.676,0.945-8.413-2.731-10.581c-8.516-5.022-21.845-12.911-26.03-15.454
	c-2.031-3.886-7.26-16.587-11.397-27.293c-0.655-1.695-1.886-3.105-3.478-3.982l-43.732-24.104l-9.388,3.962
	c-4.891,2.064-10.408,2.064-15.298,0l-0.594-0.251l59.093,32.571c4.345,11.169,7.267,18.151,9.343,22.611l-57.357,42.943
	C243.651,371.661,242.588,375.276,243.782,378.487z"/>
<circle style="fill:#696B70;" cx="347.661" cy="127.402" r="24.385"/>
<path style="fill:#5C5F63;" d="M343.881,127.4c0-9.784,5.765-18.218,14.082-22.102c-3.13-1.462-6.62-2.283-10.302-2.283
	c-13.467,0-24.385,10.917-24.385,24.385c0,13.467,10.917,24.385,24.385,24.385c3.683,0,7.172-0.821,10.302-2.283
	C349.646,145.619,343.881,137.185,343.881,127.4z"/>
<g>
</g>
<g>
</g>
<g>
</g>
<g>
</g>
<g>
</g>
<g>
</g>
<g>
</g>
<g>
</g>
<g>
</g>
<g>
</g>
<g>
</g>
<g>
</g>
<g>
</g>
<g>
</g>
<g>
</g>
</svg>
