<?xml version="1.0" encoding="iso-8859-1"?>
<!-- Generator: Adobe Illustrator 19.0.0, SVG Export Plug-In . SVG Version: 6.00 Build 0)  -->
<svg version="1.1" id="Capa_1" xmlns="http://www.w3.org/2000/svg" xmlns:xlink="http://www.w3.org/1999/xlink" x="0px" y="0px"
	 viewBox="0 0 511.999 511.999" style="enable-background:new 0 0 511.999 511.999;" xml:space="preserve">
<path style="fill:#FCCC92;" d="M227.473,72.304c-34.653-44.893-102.777-44.893-137.43,0C-4.007,194.146,0.025,314.632,0.025,314.632
	c0,87.666,71.068,158.733,158.733,158.733c36.659,0,70.41-12.434,97.282-33.305l59.518-157.072
	C310.438,239.22,292.142,156.083,227.473,72.304z"/>
<g>
	<path style="fill:#F9AF6E;" d="M434.981,264.454l-77.948,32.897c-2.379,1.004-5.063,1.004-7.443,0l-77.946-32.897
		c-2.379-1.004-5.064-1.004-7.443,0l-63.344,26.736c-3.338,1.409-5.6,4.586-5.83,8.202
		c-6.513,102.627,71.153,173.974,158.294,173.974c86.467,0,164.852-70.612,158.294-173.969c-0.229-3.616-2.492-6.794-5.83-8.202
		l-63.362-26.74C440.044,263.45,437.36,263.45,434.981,264.454z"/>
	<path style="fill:#F9AF6E;" d="M20.633,314.632c0,0-4.032-120.486,90.018-242.328c15.006-19.44,36.288-30.455,58.411-33.059
		c-28.966-3.409-59.372,7.606-79.019,33.059C-4.007,194.146,0.025,314.632,0.025,314.632c0,87.666,71.068,158.733,158.733,158.733
		c3.491,0,6.955-0.114,10.391-0.336C86.246,467.76,20.633,398.864,20.633,314.632z"/>
</g>
<path style="fill:#F59249;" d="M215.687,289.568c0.127-1.998,0.814-3.875,1.927-5.451l-16.757,7.073
	c-3.338,1.409-5.601,4.586-5.83,8.202c-5.964,93.992,58.309,160.319,133.644,172.065
	C260.523,445.376,210.053,378.366,215.687,289.568z"/>
<path style="fill:#FCCC92;" d="M360.554,420.296c1.263,0.777,2.661,1.148,4.043,1.148c2.595,0,5.129-1.307,6.589-3.679l5.799-9.423
	c1.247-2.027,1.491-4.515,0.662-6.745l-9.582-25.75l37.347-27.961c5.13,3.065,12.877,7.637,15.91,9.426
	c1.233,0.727,2.584,1.073,3.919,1.072c2.645,0,5.222-1.359,6.664-3.803c2.168-3.677,0.945-8.414-2.731-10.583
	c-7.331-4.323-15.446-9.132-18.635-11.057c-1.595-3.235-5.196-12.015-8.04-19.378c-0.594-1.536-1.662-2.842-3.049-3.728
	l-28.65-18.294l-13.765,5.809c-1.521,0.642-3.165,0.869-4.776,0.69l36.74,23.46c2.649,6.799,4.587,11.508,6.068,14.822
	l-40.892,30.615c-2.743,2.054-3.806,5.67-2.611,8.882l10.282,27.633l-3.822,6.211C355.786,413.299,356.919,418.059,360.554,420.296z
	"/>
<g>
</g>
<g>
</g>
<g>
</g>
<g>
</g>
<g>
</g>
<g>
</g>
<g>
</g>
<g>
</g>
<g>
</g>
<g>
</g>
<g>
</g>
<g>
</g>
<g>
</g>
<g>
</g>
<g>
</g>
</svg>
