<?xml version="1.0" encoding="iso-8859-1"?>
<!-- Generator: Adobe Illustrator 19.0.0, SVG Export Plug-In . SVG Version: 6.00 Build 0)  -->
<svg version="1.1" id="Capa_1" xmlns="http://www.w3.org/2000/svg" xmlns:xlink="http://www.w3.org/1999/xlink" x="0px" y="0px"
	 viewBox="0 0 512.002 512.002" style="enable-background:new 0 0 512.002 512.002;" xml:space="preserve">
<path style="fill:#F9AF6E;" d="M346.988,13.803c-32.563,18.794-58.63,40.214-79.228,61.118
	c49.839,50.578,67.621,98.132,67.621,98.132c10.56,25.629,12.611,52.677,7.51,77.971h111.572
	c10.071-35.771,22.519-106.198-0.31-192.074C441.873,12.757,388.296-10.037,346.988,13.803z"/>
<path style="fill:#F59249;" d="M358.047,173.054c0,0-20.449-54.684-78.95-109.141c-3.947,3.674-7.73,7.349-11.336,11.008
	c49.839,50.578,67.621,98.132,67.621,98.132c10.56,25.629,12.611,52.677,7.51,77.971h22.7
	C370.684,225.729,368.605,198.677,358.047,173.054z"/>
<path style="fill:#FCCC92;" d="M190.593,13.803C149.378-9.984,95.731,12.67,83.428,58.951
	c-22.83,85.876-10.382,156.302-0.31,192.074h261.87c5.092-25.295,3.012-52.348-7.545-77.971
	C337.442,173.054,301.943,78.07,190.593,13.803z"/>
<path style="fill:#F9AF6E;" d="M104.033,58.951c7.965-29.961,32.985-49.857,61.259-53.987c-34.13-5.021-71.687,15.705-81.864,53.987
	c-22.83,85.876-10.382,156.302-0.311,192.074h20.605C93.651,215.254,81.204,144.827,104.033,58.951z"/>
<path style="fill:#F27524;" d="M480.898,248.299c-11.242,0-409.066,0-420.033,0c-19.516,0-34.116,18.475-28.773,38.863
	c5.942,22.668,15.029,44.061,26.751,63.698c0.138,0.048,0.28,0.1,0.419,0.149c38.456,64.318,105.285,109.712,183.208,118.889
	c21.337-1.586,8.233-2.531,29.068-1.874c0,0,13.017,2.084,11.81,1.874c-6.034-1.049,11.461-0.431,17.258,0
	c77.923-9.176,144.752-54.571,183.208-118.889c0.139-0.049,0.281-0.101,0.419-0.149c16.007-26.816,27.922-60.774,27.76-72.027
	C512.368,263.633,500.88,248.299,480.898,248.299z"/>
<path style="fill:#EC5123;" d="M80.178,349.979c-0.138-0.049-0.281-0.101-0.419-0.149c-15.985-26.78-27.924-60.766-27.76-72.027
	c-0.339-13.704,8.832-25.958,21.965-29.504c-4.833,0-8.336,0-13.099,0c-19.516,0-34.116,18.475-28.773,38.863
	c5.942,22.668,15.029,44.061,26.751,63.698c0.138,0.048,0.28,0.1,0.419,0.149c38.456,64.318,105.285,109.712,183.208,118.889
	c4.955-0.368,9.997-0.965,15.121-1.8C182.158,457.402,117.676,412.696,80.178,349.979z"/>
<path style="fill:#ADADAD;" d="M304.264,468.868c1.208,0.21-11.81-1.874-11.81-1.874c-16.538-0.521-7.409-0.575-20.762,1.055
	c1.455,0.233,12.786,2.046,11.656,1.85c-6.034-1.049,11.461-0.431,17.258,0c3.577-0.421,7.122-0.945,10.65-1.517
	C305.523,468.209,300.633,468.237,304.264,468.868z"/>
<path style="fill:#8DCE55;" d="M95.678,492.566v5.926c0,5.13,4.159,9.288,9.288,9.288h29.284c20.098,0,36.541-16.444,36.541-36.541
	v-15.214h-38.573C112.121,456.025,95.678,472.468,95.678,492.566z"/>
<path style="fill:#6DC82A;" d="M116.957,498.492v-5.926c0-20.098,16.444-36.541,36.541-36.541h-21.28
	c-20.098,0-36.541,16.443-36.541,36.541v5.926c0,5.13,4.159,9.288,9.288,9.288h21.28
	C121.116,507.78,116.957,503.622,116.957,498.492z"/>
<path style="fill:#BA7958;" d="M401.227,456.361c-5.281-7.829-15.91-9.892-23.74-4.611c-54.159,36.54-128.988,14.168-184.966-21.08
	c-9.088-20.507-4.545-42.372-4.406-43.02c2.094-9.172-3.618-18.322-12.791-20.459c-9.2-2.152-18.391,3.576-20.535,12.773
	c-0.171,0.733-2.152,9.569-2.11,22.267c-80.828-58.833-132.877-60.818-135.153-60.874c-9.6-0.219-17.29,7.362-17.521,16.668
	c-0.236,9.442,7.227,17.286,16.668,17.521c0.301,0.008,20.281,1.167,54.792,17.464c-13.001,3.351-29.517,10.2-45.486,24.163
	c-3.213,2.809-3.54,7.69-0.731,10.903c2.809,3.214,7.691,3.539,10.903,0.731c26.538-23.203,55.236-23.548,58.759-23.493
	c14.539,8.368,30.82,19.074,48.614,32.787c73.872,56.932,176.673,93.559,253.09,42.002
	C404.444,474.818,406.508,464.19,401.227,456.361z"/>
<path style="fill:#996459;" d="M399.223,477.937c0.108-0.109,0.93-1.02,1.1-1.229c0.145-0.179,0.836-1.119,0.963-1.311
	c0.167-0.252,0.718-1.182,0.823-1.379c0.185-0.345,0.596-1.227,0.683-1.435c0.178-0.423,0.468-1.242,0.544-1.481
	c0.147-0.467,0.333-1.193,0.403-1.514c0.11-0.506,0.214-1.15,0.263-1.538c0.064-0.518,0.107-1.097,0.122-1.552
	c0.017-0.524,0.01-1.056-0.019-1.556c-0.027-0.461-0.071-0.922-0.135-1.381c-0.008-0.057-0.016-0.114-0.025-0.172
	c-0.072-0.478-0.163-0.954-0.276-1.428c-0.009-0.037-0.019-0.075-0.028-0.112c-0.12-0.489-0.262-0.975-0.427-1.457
	c-0.008-0.021-0.016-0.043-0.023-0.064c-0.172-0.494-0.366-0.983-0.586-1.465c-0.004-0.009-0.008-0.017-0.012-0.026
	c-0.225-0.492-0.474-0.977-0.75-1.453l0,0c-1.258,2.182-3.001,4.127-5.229,5.631c-75.659,51.046-177.858,15.979-253.09-42.002
	c-15.981-12.316-30.742-22.206-44.116-30.155c-5.92-3.519-11.351-2.983-32.389,3.405c-15.286,4.653-29.002,12.445-40.805,22.71
	c-2.92,2.591-3.687,6.935-1.662,10.157c2.564,4.009,8.05,4.778,11.599,1.675c26.538-23.203,55.236-23.548,58.759-23.493
	c14.539,8.368,30.82,19.074,48.614,32.787c73.872,56.932,176.673,93.559,253.09,42.002c0.479-0.323,0.935-0.667,1.37-1.029
	C398.072,479.001,399.002,478.16,399.223,477.937z"/>
<g>
	<path style="fill:#EC5123;" d="M507.746,298.378H240.418c-4.267,0-7.727,3.46-7.727,7.727s3.46,7.727,7.727,7.727h261.904
		C504.295,308.759,506.105,303.606,507.746,298.378z"/>
	<path style="fill:#EC5123;" d="M315.353,405.904c-4.267,0-7.727,3.46-7.727,7.727s3.46,7.727,7.727,7.727h105.441
		c6.088-4.623,11.956-9.518,17.583-14.673C430.557,405.243,444.864,405.904,315.353,405.904z"/>
	<path style="fill:#EC5123;" d="M483.115,352.141H281.441c-4.267,0-7.727,3.46-7.727,7.727s3.46,7.727,7.727,7.727h191.515
		C476.528,362.579,479.917,357.425,483.115,352.141z"/>
</g>
<g>
</g>
<g>
</g>
<g>
</g>
<g>
</g>
<g>
</g>
<g>
</g>
<g>
</g>
<g>
</g>
<g>
</g>
<g>
</g>
<g>
</g>
<g>
</g>
<g>
</g>
<g>
</g>
<g>
</g>
</svg>
