<?xml version="1.0" encoding="iso-8859-1"?>
<!-- Generator: Adobe Illustrator 19.0.0, SVG Export Plug-In . SVG Version: 6.00 Build 0)  -->
<svg version="1.1" id="Capa_1" xmlns="http://www.w3.org/2000/svg" xmlns:xlink="http://www.w3.org/1999/xlink" x="0px" y="0px"
	 viewBox="0 0 512 512" style="enable-background:new 0 0 512 512;" xml:space="preserve">
<path style="fill:#8DCE55;" d="M364.278,309.653v10.393c0,0.938-0.761,1.699-1.699,1.699h-29.458
	c-16.234,0-29.517-13.069-29.517-29.041v-10.393c0-0.938,0.761-1.699,1.699-1.699h29.458
	C350.996,280.612,364.278,293.68,364.278,309.653z"/>
<path style="fill:#6DC82A;" d="M323.606,292.703v-10.393c0-0.938,0.761-1.699,1.699-1.699h-20.001c-0.938,0-1.699,0.761-1.699,1.699
	v10.393c0,15.972,13.282,29.041,29.517,29.041h20.001C336.887,321.745,323.606,308.676,323.606,292.703z"/>
<path style="fill:#8DCE55;" d="M364.278,350.786v10.393c0,0.938,0.761,1.699,1.699,1.699h29.458
	c16.234,0,29.517-13.069,29.517-29.041v-10.393c0-0.938-0.761-1.699-1.699-1.699h-29.458
	C377.561,321.745,364.278,334.813,364.278,350.786z"/>
<path style="fill:#6DC82A;" d="M391.746,361.178v-10.393c0-15.973,13.282-29.041,29.517-29.041h-27.468
	c-16.234,0-29.517,13.068-29.517,29.041v10.393c0,0.938,0.761,1.699,1.699,1.699h27.468
	C392.507,362.878,391.746,362.117,391.746,361.178z"/>
<path style="fill:#8DCE55;" d="M133.461,358.725v10.393c0,0.938-0.761,1.699-1.699,1.699h-29.458
	c-16.234,0-29.517-13.069-29.517-29.041v-10.393c0-0.938,0.761-1.699,1.699-1.699h29.458
	C120.179,329.684,133.461,342.752,133.461,358.725z"/>
<g>
	<path style="fill:#6DC82A;" d="M92.789,341.775v-10.393c0-0.938,0.761-1.699,1.699-1.699H74.487c-0.938,0-1.699,0.761-1.699,1.699
		v10.393c0,15.972,13.282,29.041,29.517,29.041h20.001C106.07,370.816,92.789,357.748,92.789,341.775z"/>
	<path style="fill:#6DC82A;" d="M364.278,429.741c-4.142,0-7.5-3.358-7.5-7.5V237.321c0-4.142,3.358-7.5,7.5-7.5s7.5,3.358,7.5,7.5
		V422.24C371.779,426.382,368.42,429.741,364.278,429.741z"/>
	<path style="fill:#6DC82A;" d="M133.461,438.333c-4.142,0-7.5-3.358-7.5-7.5V291.324c0-4.142,3.358-7.5,7.5-7.5
		c4.142,0,7.5,3.358,7.5,7.5v139.508C140.962,434.975,137.603,438.333,133.461,438.333z"/>
</g>
<g>
	<path style="fill:#FFBE26;" d="M131.205,62.409c1.367-0.883,3.146-0.883,4.513,0c12.789,8.261,21.239,22.487,21.239,38.664
		s-8.451,30.403-21.239,38.664c-1.367,0.883-3.146,0.883-4.513,0c-12.789-8.26-21.239-22.487-21.239-38.664
		C109.966,84.897,118.416,70.67,131.205,62.409z"/>
	<path style="fill:#FFBE26;" d="M131.205,226.054c1.367-0.883,3.146-0.883,4.513,0c12.789,8.26,21.239,22.487,21.239,38.664
		s-8.451,30.403-21.239,38.664c-1.367,0.883-3.146,0.883-4.513,0c-12.789-8.26-21.239-22.487-21.239-38.664
		C109.966,248.542,118.416,234.316,131.205,226.054z"/>
	<path style="fill:#FFBE26;" d="M218.457,96.129c1.601,0.327,2.859,1.565,3.191,3.14c3.106,14.739-1.143,30.677-12.769,42.116
		s-27.826,15.619-42.806,12.563c-1.601-0.327-2.859-1.565-3.191-3.14c-3.106-14.739,1.143-30.677,12.769-42.116
		S203.477,93.073,218.457,96.129z"/>
	<path style="fill:#FFBE26;" d="M100.848,211.843c1.601,0.327,2.859,1.565,3.191,3.14c3.106,14.739-1.143,30.677-12.769,42.116
		c-11.626,11.439-27.826,15.619-42.806,12.563c-1.601-0.327-2.859-1.565-3.191-3.14c-3.106-14.739,1.143-30.677,12.769-42.116
		C69.668,212.969,85.868,208.788,100.848,211.843z"/>
	<path style="fill:#FFBE26;" d="M255.921,180.676c0.897,1.345,0.897,3.096,0,4.44c-8.397,12.583-22.855,20.897-39.297,20.897
		s-30.901-8.314-39.297-20.897c-0.897-1.345-0.897-3.096,0-4.44c8.396-12.583,22.855-20.897,39.297-20.897
		S247.524,168.093,255.921,180.676z"/>
	<path style="fill:#FFBE26;" d="M89.595,180.676c0.897,1.345,0.897,3.096,0,4.44c-8.396,12.583-22.855,20.897-39.296,20.897
		c-16.442,0-30.901-8.314-39.297-20.897c-0.897-1.345-0.897-3.096,0-4.44c8.397-12.583,22.855-20.897,39.297-20.897
		C66.74,159.778,81.2,168.093,89.595,180.676z"/>
	<path style="fill:#FFBE26;" d="M221.648,266.523c-0.332,1.575-1.59,2.813-3.191,3.14c-14.98,3.056-31.18-1.124-42.806-12.563
		c-11.626-11.439-15.875-27.378-12.769-42.116c0.332-1.575,1.59-2.813,3.191-3.14c14.98-3.056,31.18,1.124,42.806,12.563
		C220.505,235.846,224.755,251.784,221.648,266.523z"/>
	<path style="fill:#FFBE26;" d="M104.039,150.808c-0.332,1.575-1.59,2.813-3.191,3.14c-14.98,3.056-31.18-1.124-42.806-12.563
		s-15.875-27.378-12.769-42.117c0.332-1.575,1.59-2.813,3.191-3.14c14.98-3.056,31.18,1.124,42.806,12.563
		C102.896,120.131,107.145,136.07,104.039,150.808z"/>
</g>
<g>
	<path style="fill:#F99A25;" d="M130.662,101.073c0-12.446,5.015-23.725,13.147-32.034c-2.437-2.49-5.142-4.725-8.091-6.63
		c-1.367-0.883-3.146-0.883-4.513,0c-12.789,8.261-21.239,22.487-21.239,38.663c0,16.177,8.451,30.403,21.239,38.664
		c1.367,0.883,3.146,0.883,4.513,0c2.949-1.905,5.654-4.14,8.091-6.63C135.677,124.798,130.662,113.52,130.662,101.073z"/>
	<path style="fill:#F99A25;" d="M130.662,264.719c0-12.447,5.015-23.725,13.147-32.034c-2.437-2.49-5.142-4.725-8.091-6.63
		c-1.367-0.883-3.146-0.883-4.513,0c-12.789,8.26-21.239,22.487-21.239,38.664s8.451,30.403,21.239,38.664
		c1.367,0.883,3.146,0.883,4.513,0c2.949-1.905,5.654-4.14,8.091-6.63C135.677,288.444,130.662,277.165,130.662,264.719z"/>
	<path style="fill:#F99A25;" d="M183.58,150.808c-3.106-14.739,1.143-30.677,12.769-42.116c6.493-6.388,14.414-10.509,22.751-12.373
		c-0.207-0.079-0.421-0.146-0.643-0.191c-14.98-3.056-31.179,1.124-42.806,12.563c-11.626,11.439-15.875,27.378-12.769,42.116
		c0.332,1.575,1.59,2.813,3.191,3.14c6.613,1.349,13.464,1.283,20.054-0.191C184.841,153.268,183.865,152.165,183.58,150.808z"/>
	<path style="fill:#F99A25;" d="M65.971,266.523c-3.106-14.739,1.143-30.677,12.769-42.117c6.493-6.388,14.414-10.509,22.751-12.373
		c-0.207-0.079-0.421-0.145-0.643-0.191c-14.98-3.056-31.18,1.124-42.806,12.563c-11.626,11.439-15.875,27.378-12.769,42.117
		c0.332,1.575,1.59,2.813,3.191,3.14c6.613,1.349,13.464,1.283,20.054-0.191C67.232,268.983,66.257,267.88,65.971,266.523z"/>
	<path style="fill:#F99A25;" d="M198.023,185.116c-0.897-1.345-0.897-3.096,0-4.44c6.578-9.86,16.888-17.076,28.949-19.748
		c-3.332-0.738-6.789-1.149-10.349-1.149c-16.442,0-30.901,8.314-39.297,20.897c-0.897,1.345-0.897,3.095,0,4.44
		c8.396,12.583,22.855,20.897,39.297,20.897c3.559,0,7.016-0.411,10.349-1.149C214.911,202.192,204.601,194.975,198.023,185.116z"/>
	<path style="fill:#F99A25;" d="M31.699,185.116c-0.897-1.345-0.897-3.096,0-4.44c6.578-9.86,16.888-17.076,28.949-19.748
		c-3.332-0.738-6.789-1.149-10.349-1.149c-16.442,0-30.901,8.314-39.297,20.897c-0.897,1.345-0.897,3.095,0,4.44
		c8.397,12.583,22.855,20.897,39.297,20.897c3.559,0,7.016-0.411,10.349-1.149C48.587,202.192,38.277,194.975,31.699,185.116z"/>
	<path style="fill:#F99A25;" d="M196.349,257.1c-11.626-11.439-15.875-27.378-12.769-42.117c0.286-1.356,1.261-2.459,2.548-2.949
		c-6.59-1.474-13.441-1.54-20.054-0.191c-1.601,0.327-2.859,1.565-3.191,3.14c-3.106,14.739,1.143,30.677,12.769,42.117
		c11.626,11.439,27.826,15.619,42.806,12.563c0.222-0.045,0.436-0.112,0.643-0.191C210.763,267.608,202.841,263.489,196.349,257.1z"
		/>
	<path style="fill:#F99A25;" d="M78.74,141.385c-11.627-11.439-15.875-27.378-12.769-42.117c0.286-1.357,1.261-2.459,2.548-2.949
		c-6.59-1.474-13.441-1.54-20.054-0.191c-1.601,0.327-2.859,1.565-3.191,3.14c-3.106,14.739,1.143,30.677,12.769,42.117
		c11.626,11.439,27.826,15.619,42.806,12.563c0.222-0.045,0.435-0.112,0.643-0.191C93.154,151.893,85.233,147.774,78.74,141.385z"/>
</g>
<path style="fill:#CC905E;" d="M255.999,350.25c-52.35,0-97.776,29.137-120.461,71.823c-6.676-1.698-13.677-2.604-20.892-2.604
	c-44.351,0-80.587,34.135-83.078,77.157h448.864c-2.491-43.023-38.727-77.157-83.078-77.157c-7.215,0-14.217,0.906-20.892,2.604
	C353.775,379.387,308.35,350.25,255.999,350.25z"/>
<g>
	<path style="fill:#BA7958;" d="M397.748,419.478c0.483,0.862,0.972,1.721,1.436,2.595c3.101-0.789,6.274-1.399,9.504-1.834
		C405.108,419.759,401.458,419.495,397.748,419.478z"/>
	<path style="fill:#BA7958;" d="M126.035,420.239c-3.724-0.502-7.524-0.77-11.389-0.77c-44.351,0-80.587,34.135-83.078,77.157
		h22.723C56.566,457.334,86.992,425.472,126.035,420.239z"/>
	<path style="fill:#BA7958;" d="M135.537,422.073c-0.032,0-0.064,0,0.001,0H135.537z"/>
	<path style="fill:#BA7958;" d="M164.796,411.088c22.289-33.681,59.589-56.854,102.565-60.358c-0.976-0.08-1.955-0.149-2.936-0.21
		c-0.947-0.057-1.895-0.111-2.847-0.149c-0.52-0.022-1.042-0.035-1.563-0.051c-1.331-0.038-2.664-0.069-4.004-0.07
		c-0.003,0-0.006,0-0.01,0c-0.001,0-0.002,0-0.003,0c-52.348,0.001-97.773,29.138-120.458,71.822c3.004,0,7.863,1.059,10.786,1.365
		C153.661,424.206,160.725,417.24,164.796,411.088z"/>
	<path style="fill:#BA7958;" d="M504.5,504.126H7.5c-4.142,0-7.5-3.358-7.5-7.5s3.358-7.5,7.5-7.5H504.5c4.142,0,7.5,3.358,7.5,7.5
		S508.642,504.126,504.5,504.126z"/>
</g>
<ellipse style="fill:#F27524;" cx="133.458" cy="182.892" rx="43.193" ry="42.497"/>
<path style="fill:#EC5123;" d="M110.27,182.896c0-20.081,14.162-36.898,33.192-41.339c-3.211-0.749-6.556-1.158-10.001-1.158
	c-23.854,0-43.193,19.026-43.193,42.497s19.338,42.497,43.193,42.497c3.444,0,6.789-0.408,10.001-1.157
	C124.432,219.794,110.27,202.978,110.27,182.896z"/>
<g>
	<path style="fill:#FFBE26;" d="M362.022,8.537c1.367-0.883,3.146-0.883,4.513,0c12.789,8.261,21.239,22.487,21.239,38.664
		s-8.451,30.403-21.239,38.664c-1.367,0.883-3.146,0.883-4.513,0c-12.789-8.26-21.239-22.487-21.239-38.664
		S349.233,16.798,362.022,8.537z"/>
	<path style="fill:#FFBE26;" d="M362.022,172.182c1.367-0.883,3.146-0.883,4.513,0c12.789,8.26,21.239,22.487,21.239,38.664
		s-8.451,30.403-21.239,38.664c-1.367,0.883-3.146,0.883-4.513,0c-12.789-8.26-21.239-22.487-21.239-38.664
		C340.783,194.669,349.233,180.444,362.022,172.182z"/>
	<path style="fill:#FFBE26;" d="M449.274,42.256c1.601,0.327,2.859,1.565,3.191,3.14c3.106,14.739-1.143,30.677-12.769,42.116
		c-11.626,11.439-27.826,15.619-42.806,12.563c-1.601-0.327-2.859-1.565-3.191-3.14c-3.106-14.739,1.143-30.677,12.769-42.116
		C418.095,43.381,434.294,39.201,449.274,42.256z"/>
	<path style="fill:#FFBE26;" d="M331.665,157.971c1.601,0.327,2.859,1.565,3.191,3.14c3.106,14.739-1.143,30.677-12.769,42.116
		c-11.626,11.439-27.826,15.619-42.806,12.563c-1.601-0.327-2.859-1.565-3.191-3.14c-3.106-14.739,1.143-30.677,12.769-42.116
		C300.486,159.096,316.685,154.916,331.665,157.971z"/>
	<path style="fill:#FFBE26;" d="M486.737,126.803c0.897,1.345,0.897,3.096,0,4.44c-8.397,12.583-22.855,20.897-39.296,20.897
		c-16.442,0-30.901-8.314-39.297-20.897c-0.897-1.345-0.897-3.096,0-4.44c8.397-12.583,22.855-20.897,39.297-20.897
		C463.882,105.906,478.341,114.221,486.737,126.803z"/>
	<path style="fill:#FFBE26;" d="M320.413,126.803c0.897,1.345,0.897,3.096,0,4.44c-8.397,12.583-22.855,20.897-39.296,20.897
		c-16.442,0-30.901-8.314-39.297-20.897c-0.897-1.345-0.897-3.096,0-4.44c8.396-12.583,22.855-20.897,39.297-20.897
		C297.558,105.906,312.017,114.221,320.413,126.803z"/>
	<path style="fill:#FFBE26;" d="M452.465,212.65c-0.332,1.575-1.59,2.813-3.191,3.14c-14.98,3.056-31.18-1.124-42.806-12.563
		c-11.626-11.439-15.875-27.378-12.769-42.116c0.332-1.575,1.59-2.813,3.191-3.14c14.98-3.056,31.18,1.124,42.806,12.563
		C451.323,181.974,455.572,197.912,452.465,212.65z"/>
	<path style="fill:#FFBE26;" d="M334.856,96.935c-0.332,1.575-1.59,2.813-3.191,3.14c-14.98,3.056-31.18-1.124-42.806-12.563
		s-15.875-27.378-12.769-42.116c0.332-1.575,1.59-2.813,3.191-3.14c14.98-3.056,31.18,1.124,42.806,12.563
		C333.714,66.259,337.962,82.197,334.856,96.935z"/>
</g>
<g>
	<path style="fill:#F99A25;" d="M361.48,47.2c0-12.446,5.015-23.725,13.147-32.034c-2.437-2.49-5.142-4.725-8.091-6.63
		c-1.367-0.883-3.146-0.883-4.513,0c-12.789,8.261-21.239,22.487-21.239,38.663c0,16.177,8.451,30.403,21.239,38.664
		c1.367,0.883,3.146,0.883,4.513,0c2.949-1.905,5.654-4.14,8.091-6.63C366.495,70.926,361.48,59.647,361.48,47.2z"/>
	<path style="fill:#F99A25;" d="M361.48,210.846c0-12.447,5.015-23.725,13.147-32.034c-2.437-2.49-5.142-4.725-8.091-6.63
		c-1.367-0.883-3.146-0.883-4.513,0c-12.789,8.26-21.239,22.487-21.239,38.664s8.451,30.403,21.239,38.664
		c1.367,0.883,3.146,0.883,4.513,0c2.949-1.905,5.654-4.14,8.091-6.63C366.495,234.572,361.48,223.292,361.48,210.846z"/>
	<path style="fill:#F99A25;" d="M414.397,96.935c-3.106-14.739,1.143-30.677,12.769-42.116c6.493-6.388,14.414-10.509,22.751-12.373
		c-0.207-0.079-0.421-0.146-0.643-0.191c-14.98-3.056-31.179,1.124-42.806,12.563c-11.626,11.439-15.875,27.378-12.769,42.116
		c0.332,1.575,1.59,2.813,3.191,3.14c6.613,1.349,13.464,1.283,20.054-0.191C415.658,99.396,414.683,98.293,414.397,96.935z"/>
	<path style="fill:#F99A25;" d="M296.788,212.65c-3.106-14.739,1.143-30.677,12.769-42.117c6.493-6.388,14.414-10.509,22.751-12.373
		c-0.207-0.079-0.421-0.145-0.643-0.191c-14.98-3.056-31.18,1.124-42.806,12.563c-11.626,11.439-15.875,27.378-12.769,42.117
		c0.332,1.575,1.59,2.813,3.191,3.14c6.613,1.349,13.464,1.283,20.054-0.191C298.049,215.111,297.074,214.008,296.788,212.65z"/>
	<path style="fill:#F99A25;" d="M428.841,131.244c-0.897-1.345-0.897-3.096,0-4.44c6.578-9.86,16.888-17.076,28.949-19.748
		c-3.332-0.738-6.789-1.149-10.349-1.149c-16.442,0-30.901,8.315-39.297,20.897c-0.897,1.345-0.897,3.095,0,4.44
		c8.397,12.583,22.855,20.897,39.297,20.897c3.559,0,7.016-0.411,10.349-1.149C445.729,148.32,435.419,141.103,428.841,131.244z"/>
	<path style="fill:#F99A25;" d="M262.516,131.244c-0.897-1.345-0.897-3.096,0-4.44c6.578-9.86,16.888-17.076,28.949-19.748
		c-3.332-0.738-6.789-1.149-10.349-1.149c-16.442,0-30.901,8.315-39.297,20.897c-0.897,1.345-0.897,3.095,0,4.44
		c8.396,12.583,22.855,20.897,39.297,20.897c3.559,0,7.016-0.411,10.349-1.149C279.404,148.32,269.094,141.103,262.516,131.244z"/>
	<path style="fill:#F99A25;" d="M427.166,203.228c-11.626-11.439-15.875-27.378-12.769-42.117c0.286-1.356,1.261-2.459,2.548-2.949
		c-6.59-1.474-13.441-1.54-20.054-0.191c-1.601,0.327-2.859,1.565-3.191,3.14c-3.106,14.739,1.143,30.677,12.769,42.117
		c11.626,11.439,27.826,15.619,42.806,12.563c0.222-0.045,0.436-0.112,0.643-0.191C441.58,213.736,433.659,209.616,427.166,203.228z
		"/>
	<path style="fill:#F99A25;" d="M309.557,87.513c-11.626-11.439-15.875-27.378-12.769-42.117c0.286-1.357,1.261-2.459,2.548-2.949
		c-6.59-1.474-13.441-1.54-20.054-0.191c-1.601,0.327-2.859,1.565-3.191,3.14c-3.106,14.739,1.143,30.677,12.769,42.117
		c11.626,11.439,27.826,15.619,42.806,12.563c0.222-0.045,0.435-0.112,0.643-0.191C323.971,98.021,316.05,93.901,309.557,87.513z"/>
</g>
<ellipse style="fill:#F27524;" cx="364.282" cy="129.018" rx="43.193" ry="42.497"/>
<path style="fill:#EC5123;" d="M341.088,129.023c0-20.081,14.162-36.898,33.192-41.339c-3.211-0.749-6.556-1.158-10.001-1.158
	c-23.854,0-43.193,19.026-43.193,42.497s19.338,42.497,43.193,42.497c3.444,0,6.789-0.408,10.001-1.157
	C355.249,165.922,341.088,149.106,341.088,129.023z"/>
<g>
</g>
<g>
</g>
<g>
</g>
<g>
</g>
<g>
</g>
<g>
</g>
<g>
</g>
<g>
</g>
<g>
</g>
<g>
</g>
<g>
</g>
<g>
</g>
<g>
</g>
<g>
</g>
<g>
</g>
</svg>
