<?xml version="1.0" encoding="iso-8859-1"?>
<!-- Generator: Adobe Illustrator 19.0.0, SVG Export Plug-In . SVG Version: 6.00 Build 0)  -->
<svg version="1.1" id="Capa_1" xmlns="http://www.w3.org/2000/svg" xmlns:xlink="http://www.w3.org/1999/xlink" x="0px" y="0px"
	 viewBox="0 0 512.001 512.001" style="enable-background:new 0 0 512.001 512.001;" xml:space="preserve">
<path style="fill:#F446AC;" d="M256,36.938c-117.302,0-212.734,95.433-212.734,212.735v139.736
	c8.766-13.094,22.74-22.403,38.964-24.948V249.673c0-95.818,77.953-173.771,173.77-173.771c95.818,0,173.771,80.014,173.771,175.831
	v8.989c6.245,3.803,11.723,8.741,16.115,14.554c1.095,1.45,2.976,2.105,4.699,1.529c5.473-1.825,11.393-2.671,17.56-2.306
	c0.198,0.012,0.392,0.035,0.589,0.049v-22.816C468.736,134.43,373.303,36.938,256,36.938z"/>
<path style="fill:#F21897;" d="M63.871,249.673c0-113.824,89.859-207.05,202.361-212.479c-3.391-0.165-6.801-0.256-10.232-0.256
	c-117.302,0-212.734,95.433-212.734,212.735v139.736c5.224-7.803,12.308-14.246,20.605-18.73V249.673z"/>
<path style="fill:#D0EF6F;" d="M256.002,114.866c-74.333,0-134.808,60.474-134.808,134.807v122.488l0,0
	c6.245,3.803,11.723,8.742,16.115,14.554c1.095,1.45,2.976,2.105,4.699,1.53c5.473-1.826,11.393-2.671,17.56-2.306
	c0.198,0.012,0.392,0.035,0.59,0.049V249.673c0-52.848,42.995-95.843,95.844-95.843c52.847,0,95.842,45.055,95.842,97.903v26.239
	c8.765-13.094,22.74-22.403,38.964-24.949v-1.291C390.808,177.4,330.334,114.866,256.002,114.866z"/>
<path style="fill:#FFBE26;" d="M256,75.902c-95.817,0-173.77,77.953-173.77,173.771v114.789c2.182-0.342,4.405-0.559,6.661-0.649
	c0.03-0.001,0.059-0.003,0.089-0.004c0.749-0.029,1.5-0.048,2.256-0.048c1.061,0,2.113,0.038,3.16,0.095
	c0.185,0.01,0.369,0.017,0.553,0.029c0.978,0.063,1.948,0.151,2.912,0.262c0.242,0.028,0.483,0.058,0.724,0.089
	c0.934,0.119,1.863,0.255,2.782,0.418c0.246,0.044,0.489,0.096,0.734,0.143c0.724,0.139,1.444,0.291,2.158,0.457
	c0.325,0.075,0.651,0.147,0.974,0.227c0.754,0.189,1.501,0.396,2.243,0.614c0.419,0.123,0.836,0.249,1.25,0.38
	c0.687,0.219,1.369,0.447,2.044,0.691c0.492,0.177,0.977,0.366,1.463,0.556c0.31,0.121,0.617,0.247,0.924,0.374
	c0.878,0.361,1.744,0.743,2.599,1.145c0.186,0.088,0.373,0.175,0.559,0.264c1.673,0.809,3.3,1.695,4.878,2.656l0,0V249.673
	c0-74.333,60.474-134.807,134.808-134.807c74.332,0,134.806,62.534,134.806,136.867v1.291c2.183-0.342,4.407-0.559,6.664-0.649
	c0.028-0.001,0.057-0.003,0.085-0.004c0.749-0.029,1.501-0.048,2.257-0.048c1.061,0,2.113,0.037,3.16,0.094
	c0.185,0.01,0.369,0.017,0.554,0.029c0.978,0.062,1.949,0.151,2.913,0.262c0.242,0.028,0.482,0.058,0.723,0.089
	c0.934,0.119,1.863,0.255,2.783,0.418c0.246,0.044,0.488,0.096,0.733,0.143c0.725,0.139,1.445,0.291,2.16,0.457
	c0.323,0.075,0.648,0.146,0.969,0.226c0.755,0.189,1.503,0.397,2.246,0.615c0.419,0.123,0.836,0.249,1.251,0.381
	c0.686,0.219,1.368,0.447,2.042,0.69c0.493,0.177,0.979,0.367,1.466,0.557c0.308,0.121,0.613,0.246,0.919,0.371
	c0.88,0.362,1.748,0.745,2.606,1.148c0.185,0.087,0.37,0.173,0.554,0.262c1.673,0.809,3.301,1.695,4.879,2.656v-8.989
	C429.772,155.915,351.819,75.902,256,75.902z"/>
<path style="fill:#AAE8FF;" d="M159.568,381.817c-6.167-0.365-12.088,0.481-17.56,2.306c-1.723,0.575-3.604-0.08-4.699-1.529
	c-10.535-13.943-27.251-22.955-46.073-22.955c-28.701,0-52.499,20.955-56.954,48.398c-0.253-0.006-0.504-0.019-0.759-0.019
	c-18.705,0-33.831,15.319-33.518,34.096c0.307,18.381,15.686,32.95,34.07,32.95h122.682c26.455,0,47.769-22.014,46.621-48.723
	C202.358,402.598,183.291,383.219,159.568,381.817z"/>
<path style="fill:#6BD9FC;" d="M91.236,359.639c-28.701,0-52.499,20.955-56.954,48.398c-0.253-0.006-0.504-0.019-0.758-0.019
	c-18.705,0-33.831,15.319-33.518,34.096c0.307,18.38,15.687,32.95,34.07,32.95h20.605c-18.383,0-33.763-14.569-34.07-32.95
	c-0.294-17.636,13.033-32.219,30.152-33.926c0.005-0.001,0.008-0.002,0.013-0.003c4.254-0.705,4.97-4.397,4.97-4.397h0.002
	c5.314-22.055,23.285-39.174,45.803-43.229C98.203,359.955,94.756,359.639,91.236,359.639z"/>
<path style="fill:#AAE8FF;" d="M468.147,272.439c-6.167-0.365-12.088,0.481-17.56,2.306c-1.723,0.575-3.604-0.08-4.699-1.529
	c-10.535-13.943-27.251-22.955-46.073-22.955c-28.701,0-52.499,20.955-56.954,48.398c-0.253-0.006-0.504-0.019-0.759-0.019
	c-18.705,0-33.831,15.319-33.518,34.096c0.307,18.381,15.686,32.95,34.07,32.95h122.682c26.455,0,47.769-22.014,46.621-48.723
	C510.936,293.221,491.869,273.842,468.147,272.439z"/>
<path style="fill:#6BD9FC;" d="M399.814,250.262c-28.701,0-52.499,20.955-56.954,48.398c-0.253-0.006-0.504-0.019-0.758-0.019
	c-18.705,0-33.831,15.319-33.518,34.096c0.307,18.38,15.687,32.95,34.07,32.95h20.605c-18.383,0-33.763-14.569-34.07-32.95
	c-0.294-17.636,13.033-32.219,30.152-33.926c0.005-0.001,0.008-0.002,0.013-0.003c4.254-0.705,4.97-4.397,4.97-4.397h0.002
	c5.314-22.055,23.285-39.174,45.803-43.229C406.781,250.577,403.335,250.262,399.814,250.262z"/>
<g>
</g>
<g>
</g>
<g>
</g>
<g>
</g>
<g>
</g>
<g>
</g>
<g>
</g>
<g>
</g>
<g>
</g>
<g>
</g>
<g>
</g>
<g>
</g>
<g>
</g>
<g>
</g>
<g>
</g>
</svg>
