<?xml version="1.0" encoding="iso-8859-1"?>
<!-- Generator: Adobe Illustrator 19.0.0, SVG Export Plug-In . SVG Version: 6.00 Build 0)  -->
<svg version="1.1" id="Capa_1" xmlns="http://www.w3.org/2000/svg" xmlns:xlink="http://www.w3.org/1999/xlink" x="0px" y="0px"
	 viewBox="0 0 512 512" style="enable-background:new 0 0 512 512;" xml:space="preserve">
<path style="fill:#6DC82A;" d="M256.471,118.082c-4.142,0-7.5,3.358-7.5,7.5v113.295c-23.951-20.544-54.285-19.465-55.822-19.397
	c-4.138,0.188-7.34,3.695-7.152,7.833c0.188,4.138,3.697,7.339,7.833,7.152c0.368-0.015,35.596-1.258,55.142,26.637v107.983
	c0,4.142,3.358,7.5,7.5,7.5c4.142,0,7.5-3.358,7.5-7.5V125.583C263.971,121.44,260.613,118.082,256.471,118.082z"/>
<path style="fill:#D0EF6F;" d="M256.47,116.933v25.115h63.672c33.175,0,60.319-27.144,60.319-60.319V61.533
	c0-2.716-2.202-4.918-4.918-4.918h-58.754C283.613,56.614,256.47,83.758,256.47,116.933z"/>
<path style="fill:#B5EF14;" d="M336.789,56.614h-20.001c-33.175,0-60.319,27.144-60.319,60.319v25.115h20.001v-25.115
	C276.471,83.758,303.614,56.614,336.789,56.614z"/>
<path style="fill:#D0EF6F;" d="M256.47,103.113v38.934h-98.707c-51.43,0-93.509-42.08-93.509-93.509V14.748
	c0-2.841,2.303-5.143,5.143-5.143h93.564C214.391,9.605,256.47,51.684,256.47,103.113z"/>
<path style="fill:#B5EF14;" d="M84.255,48.539v-33.79c0-2.841,2.303-5.144,5.143-5.144H69.397c-2.841,0-5.143,2.303-5.143,5.144
	v33.79c0,51.43,42.079,93.51,93.509,93.51h20.001C126.334,142.048,84.255,99.968,84.255,48.539z"/>
<path style="fill:#CC905E;" d="M255.999,347.154c-52.35,0-97.776,29.137-120.461,71.823c-6.676-1.698-13.677-2.604-20.892-2.604
	c-44.351,0-80.587,34.135-83.078,77.157h448.864c-2.491-43.023-38.727-77.157-83.078-77.157c-7.215,0-14.217,0.906-20.892,2.604
	C353.775,376.291,308.35,347.154,255.999,347.154z"/>
<g>
	<path style="fill:#BA7958;" d="M126.035,417.142c-3.724-0.502-7.524-0.77-11.389-0.77c-44.351,0-80.587,34.135-83.078,77.157
		h22.723C56.566,454.238,86.992,422.377,126.035,417.142z"/>
	<path style="fill:#BA7958;" d="M135.537,418.976c-0.032,0-0.064,0,0.001,0C135.538,418.976,135.537,418.976,135.537,418.976z"/>
	<path style="fill:#BA7958;" d="M164.796,407.991c22.289-33.681,59.589-56.854,102.565-60.358c-0.976-0.08-1.955-0.149-2.936-0.21
		c-0.947-0.057-1.895-0.111-2.847-0.149c-0.52-0.022-1.042-0.035-1.563-0.051c-1.331-0.038-2.664-0.069-4.004-0.07
		c-0.003,0-0.006,0-0.01,0c-0.001,0-0.002,0-0.003,0c-52.348,0.001-97.773,29.138-120.458,71.822c3.004,0,7.863,1.059,10.786,1.365
		C153.661,421.11,160.725,414.144,164.796,407.991z"/>
	<path style="fill:#BA7958;" d="M504.5,502.395H7.5c-4.142,0-7.5-3.358-7.5-7.5s3.358-7.5,7.5-7.5H504.5c4.142,0,7.5,3.358,7.5,7.5
		S508.642,502.395,504.5,502.395z"/>
</g>
<g>
</g>
<g>
</g>
<g>
</g>
<g>
</g>
<g>
</g>
<g>
</g>
<g>
</g>
<g>
</g>
<g>
</g>
<g>
</g>
<g>
</g>
<g>
</g>
<g>
</g>
<g>
</g>
<g>
</g>
</svg>
