<?xml version="1.0" encoding="iso-8859-1"?>
<!-- Generator: Adobe Illustrator 19.0.0, SVG Export Plug-In . SVG Version: 6.00 Build 0)  -->
<svg version="1.1" id="Capa_1" xmlns="http://www.w3.org/2000/svg" xmlns:xlink="http://www.w3.org/1999/xlink" x="0px" y="0px"
	 viewBox="0 0 512 512" style="enable-background:new 0 0 512 512;" xml:space="preserve">
<path style="fill:#996459;" d="M207.36,453.466c-1.659,0-3.329-0.54-4.729-1.651l-62.264-49.445
	c-3.292-2.615-3.842-7.403-1.227-10.695c2.616-3.291,7.403-3.842,10.695-1.227l62.264,49.445c3.292,2.615,3.842,7.403,1.227,10.695
	C211.823,452.48,209.602,453.466,207.36,453.466z"/>
<path style="fill:#BA7958;" d="M309.375,294.817c-19.118,21.101-46.715,34.373-77.431,34.373c-13.117,0-25.665-2.427-37.229-6.843
	v182.042h115.761V294.168C310.069,294.287,309.681,294.479,309.375,294.817z"/>
<path style="fill:#996459;" d="M240.434,328.811c-2.804,0.226-5.628,0.379-8.49,0.379c-13.117,0-25.665-2.427-37.229-6.843v182.042
	h45.72V328.811H240.434z"/>
<path style="fill:#7E5C62;" d="M194.714,322.347v182.042h20.299V327.793C207.989,326.644,201.193,324.821,194.714,322.347z"/>
<path style="fill:#996459;" d="M340.631,512h-178.02c-4.204,0-7.612-3.408-7.612-7.612s3.408-7.612,7.612-7.612h178.02
	c4.204,0,7.612,3.408,7.612,7.612S344.836,512,340.631,512z"/>
<path style="fill:#8DCE55;" d="M455.824,180.276c-1.043-0.51-1.547-1.7-1.259-2.825c1.753-6.846,2.703-14.013,2.703-21.407
	c0-47.641-38.62-86.262-86.262-86.262c-4.346,0-8.61,0.339-12.782,0.964c-1.09,0.163-2.136-0.435-2.554-1.455
	c-11.439-27.93-38.877-47.612-70.926-47.612c-8.856,0-17.358,1.513-25.271,4.279c-1.007,0.352-2.109-0.003-2.729-0.872
	C245.923,9.903,228.178,0,208.114,0c-32.365,0-58.694,25.766-59.64,57.902c-0.015,0-0.03-0.001-0.045-0.001
	c-38.191,0-69.152,30.96-69.152,69.152c0,2.858,0.177,5.674,0.517,8.44c0.581,4.723-1.771,9.321-6.029,11.444
	c-26.14,13.028-44.635,39.103-46.932,69.705c-3.926,52.304,40.994,96.216,93.196,91.116c8.021-0.784,15.716-2.682,22.928-5.537
	c1.034-0.409,2.2-0.057,2.83,0.86c18.834,27.408,50.39,45.392,86.158,45.392c30.716,0,58.314-13.272,77.431-34.373
	c0.834-0.92,2.213-1.043,3.206-0.296c11.65,8.766,26.131,13.972,41.833,13.972c30.469,0,56.367-19.56,65.828-46.807
	c0.387-1.115,1.509-1.804,2.668-1.584c3.178,0.603,6.455,0.926,9.809,0.926c29.099,0,52.687-23.589,52.687-52.687
	C485.407,206.816,473.338,188.837,455.824,180.276z"/>
<g>
	<path style="fill:#6DC82A;" d="M47.131,216.642c2.297-30.602,20.793-56.676,46.932-69.704c4.259-2.123,6.61-6.721,6.029-11.444
		c-0.34-2.766-0.517-5.582-0.517-8.44c0-38.191,30.961-69.152,69.152-69.152c0.015,0,0.03,0.001,0.045,0.001
		c0.845-28.71,21.954-52.318,49.522-57.03C214.985,0.303,211.585,0,208.114,0c-32.365,0-58.694,25.766-59.64,57.902
		c-0.015,0-0.03-0.001-0.045-0.001c-38.191,0-69.152,30.96-69.152,69.152c0,2.858,0.177,5.674,0.517,8.44
		c0.581,4.723-1.771,9.321-6.029,11.444c-26.14,13.028-44.635,39.102-46.932,69.704c-3.926,52.304,40.994,96.216,93.196,91.116
		c0.633-0.062,1.261-0.143,1.891-0.218C78.047,302.189,43.676,262.668,47.131,216.642z"/>
	<path style="fill:#6DC82A;" d="M227.874,269.508c-28.135,0-54.462-13.869-70.424-37.099c-2.381-3.465-1.503-8.203,1.962-10.584
		c3.465-2.382,8.203-1.502,10.584,1.962c13.122,19.097,34.759,30.498,57.878,30.498c19.759,0,38.716-8.417,52.013-23.092
		c3.279-3.619,8.698-4.13,12.603-1.193c7.716,5.806,16.905,8.874,26.573,8.874c18.84,0,35.647-11.95,41.822-29.736
		c1.52-4.373,6.072-7.025,10.584-6.163c1.951,0.37,3.936,0.558,5.897,0.558c12.076,0,22.928-6.72,28.319-17.538
		c1.875-3.762,6.445-5.292,10.208-3.417c3.762,1.875,5.292,6.445,3.417,10.208c-7.983,16.018-24.056,25.97-41.944,25.97
		c-1.282,0-2.568-0.054-3.854-0.161c-9.43,21.418-30.743,35.502-54.45,35.502c-11.253,0-22.025-3.094-31.447-8.991
		C271.707,260.672,250.213,269.508,227.874,269.508z"/>
</g>
<g>
</g>
<g>
</g>
<g>
</g>
<g>
</g>
<g>
</g>
<g>
</g>
<g>
</g>
<g>
</g>
<g>
</g>
<g>
</g>
<g>
</g>
<g>
</g>
<g>
</g>
<g>
</g>
<g>
</g>
</svg>
