<?xml version="1.0" encoding="iso-8859-1"?>
<!-- Generator: Adobe Illustrator 19.0.0, SVG Export Plug-In . SVG Version: 6.00 Build 0)  -->
<svg version="1.1" id="Capa_1" xmlns="http://www.w3.org/2000/svg" xmlns:xlink="http://www.w3.org/1999/xlink" x="0px" y="0px"
	 viewBox="0 0 511.999 511.999" style="enable-background:new 0 0 511.999 511.999;" xml:space="preserve">
<path style="fill:#8DCE55;" d="M434.216,363.255c-20.2-88.499-62.626-212.508-151.694-348.99c-12.413-19.02-40.403-19.02-52.816,0
	C140.233,151.366,97.828,275.879,77.738,364.456c-6.548,28.869,15.519,56.317,45.121,56.317h98.982h68.316h98.312
	C418.67,420.773,440.936,392.698,434.216,363.255z"/>
<path style="fill:#6DC82A;" d="M98.037,364.456c20.09-88.577,62.495-213.09,151.967-350.192c4.096-6.276,9.891-10.467,16.259-12.601
	c-12.933-4.335-28.24-0.143-36.558,12.601C140.233,151.366,97.828,275.879,77.738,364.456
	c-6.548,28.869,15.519,56.317,45.121,56.317h20.299C113.555,420.773,91.489,393.325,98.037,364.456z"/>
<path style="fill:#BA7958;" d="M281.153,251.084h-49.685c-5.317,0-9.627,4.31-9.627,9.627v92.962c0,5.365-6.207,8.346-10.395,4.993
	L183.888,336.6c-3.882-3.108-9.549-2.481-12.657,1.401l-6.649,8.304c-3.323,4.15-2.653,10.209,1.498,13.532l45.927,36.774
	c6.216,4.978,9.834,12.51,9.834,20.473v87.303h68.316V260.089C290.158,255.116,286.126,251.084,281.153,251.084z"/>
<g>
	<path style="fill:#996459;" d="M232.084,373.89c4.188,3.353,10.395,0.372,10.395-4.993V260.711c0-5.317,4.31-9.627,9.627-9.627
		h-20.637c-5.317,0-9.627,4.31-9.627,9.627v92.962c0,4.093-3.612,6.788-7.185,6.352L232.084,373.89z"/>
	<path style="fill:#996459;" d="M232.644,396.611l-60.136-47.939c-2.446-1.958-3.672-4.867-3.596-7.775l-4.33,5.407
		c-3.323,4.15-2.653,10.209,1.498,13.532l45.927,36.774c6.216,4.977,9.834,12.51,9.834,20.473v87.303h20.637v-87.303
		C242.478,409.121,238.861,401.589,232.644,396.611z"/>
</g>
<path style="fill:#CC905E;" d="M278.756,337.799c-2.379,0-4.722-1.112-6.207-3.197c-2.439-3.424-1.639-8.177,1.785-10.616
	l41.31-29.418c3.423-2.439,8.177-1.64,10.616,1.785c2.439,3.424,1.639,8.177-1.785,10.616l-41.31,29.418
	C281.826,337.341,280.283,337.799,278.756,337.799z"/>
<path style="fill:#996459;" d="M311.008,511.999H200.992c-4.204,0-7.612-3.408-7.612-7.612s3.408-7.612,7.612-7.612h110.016
	c4.204,0,7.612,3.408,7.612,7.612S315.212,511.999,311.008,511.999z"/>
<g>
</g>
<g>
</g>
<g>
</g>
<g>
</g>
<g>
</g>
<g>
</g>
<g>
</g>
<g>
</g>
<g>
</g>
<g>
</g>
<g>
</g>
<g>
</g>
<g>
</g>
<g>
</g>
<g>
</g>
</svg>
