<?xml version="1.0" encoding="iso-8859-1"?>
<!-- Generator: Adobe Illustrator 19.0.0, SVG Export Plug-In . SVG Version: 6.00 Build 0)  -->
<svg version="1.1" id="Capa_1" xmlns="http://www.w3.org/2000/svg" xmlns:xlink="http://www.w3.org/1999/xlink" x="0px" y="0px"
	 viewBox="0 0 512 512" style="enable-background:new 0 0 512 512;" xml:space="preserve">
<rect x="91.47" y="367.879" style="fill:#BA7958;" width="48.06" height="116.31"/>
<rect x="91.47" y="367.879" style="fill:#996459;" width="24.03" height="116.31"/>
<rect x="231.94" y="367.879" style="fill:#BA7958;" width="48.06" height="116.31"/>
<rect x="231.94" y="367.879" style="fill:#996459;" width="24.03" height="116.31"/>
<rect x="372.47" y="367.879" style="fill:#BA7958;" width="48.06" height="116.31"/>
<g>
	<rect x="372.47" y="367.879" style="fill:#996459;" width="24.03" height="116.31"/>
	<path style="fill:#996459;" d="M440.444,491.945H74.321c-4.285,0-7.758-3.473-7.758-7.758s3.473-7.758,7.758-7.758h366.123
		c4.285,0,7.758,3.473,7.758,7.758S444.729,491.945,440.444,491.945z"/>
</g>
<path style="fill:#8DCE55;" d="M511.218,339.865c-13.12-57.481-40.676-138.026-98.527-226.672c-8.062-12.354-26.242-12.354-34.305,0
	c-10.783,16.523-20.509,32.763-29.289,48.626c29.172,63.772,46.661,120.784,57.114,166.582
	c5.704,24.992-13.197,48.824-38.831,48.824h5.899h44.372h63.854C501.121,377.224,515.583,358.988,511.218,339.865z"/>
<path style="fill:#6DC82A;" d="M428.279,328.4c-11.592-50.786-31.829-115.359-67.069-187.654c-4.221,7.09-8.263,14.12-12.112,21.073
	c29.173,63.771,46.661,120.784,57.114,166.581c5.704,24.992-13.197,48.824-38.831,48.824h5.899h16.168
	C415.083,377.224,433.983,353.392,428.279,328.4z"/>
<path style="fill:#8DCE55;" d="M105.688,329.419c10.427-45.974,27.959-103.366,57.353-167.618
	c-8.778-15.857-18.502-32.092-29.281-48.608c-8.063-12.354-26.243-12.354-34.305,0C41.343,202.241,13.8,283.114,0.752,340.645
	c-4.253,18.751,10.08,36.579,29.306,36.579h64.29h44.372h5.268C118.86,377.224,100.13,353.924,105.688,329.419z"/>
<path style="fill:#6DC82A;" d="M21.44,340.645c13.049-57.531,40.591-138.404,98.704-227.452c1.827-2.8,4.177-4.958,6.808-6.489
	c-8.978-5.223-21.261-3.065-27.496,6.489C41.343,202.241,13.8,283.114,0.752,340.645c-4.253,18.751,10.079,36.579,29.306,36.579
	h20.688C31.519,377.224,17.187,359.396,21.44,340.645z"/>
<path style="fill:#8DCE55;" d="M407.246,328.4c-17.147-75.122-53.159-180.385-128.764-296.237
	c-10.537-16.145-34.296-16.145-44.833,0c-75.947,116.376-111.943,222.068-128.996,297.256
	c-5.558,24.505,13.173,47.805,38.301,47.805h84.02h57.99h83.451C394.05,377.224,412.95,353.392,407.246,328.4z"/>
<path style="fill:#6DC82A;" d="M125.341,329.419c17.053-75.188,53.048-180.88,128.996-297.257c3.102-4.753,7.354-8.095,12.072-10.05
	c-11.311-4.685-25.326-1.343-32.76,10.05c-75.947,116.377-111.943,222.069-128.996,297.257
	c-5.558,24.505,13.173,47.805,38.301,47.805h20.688C138.514,377.224,119.783,353.924,125.341,329.419z"/>
<g>
</g>
<g>
</g>
<g>
</g>
<g>
</g>
<g>
</g>
<g>
</g>
<g>
</g>
<g>
</g>
<g>
</g>
<g>
</g>
<g>
</g>
<g>
</g>
<g>
</g>
<g>
</g>
<g>
</g>
</svg>
