<?xml version="1.0" encoding="iso-8859-1"?>
<!-- Generator: Adobe Illustrator 19.0.0, SVG Export Plug-In . SVG Version: 6.00 Build 0)  -->
<svg version="1.1" id="Capa_1" xmlns="http://www.w3.org/2000/svg" xmlns:xlink="http://www.w3.org/1999/xlink" x="0px" y="0px"
	 viewBox="0 0 512 512" style="enable-background:new 0 0 512 512;" xml:space="preserve">
<path style="fill:#8DCE55;" d="M248.542,88.673l17.17,24.696c1.498,2.154,0.965,5.114-1.188,6.611l-74.586,51.858
	c-45.071,31.337-107.587,20.1-138.924-24.971l-17.17-24.696c-1.498-2.154-0.965-5.114,1.188-6.611l74.586-51.858
	C154.689,32.364,217.205,43.602,248.542,88.673z"/>
<path style="fill:#6DC82A;" d="M71.313,146.866l-17.17-24.697c-1.498-2.154-0.965-5.114,1.188-6.611L129.917,63.7
	c14.298-9.941,30.353-15.592,46.61-17.242c-22.885-2.317-46.657,3.162-66.909,17.242l-74.586,51.858
	c-2.154,1.497-2.686,4.458-1.188,6.611l17.17,24.697c21.396,30.773,57.325,45.767,92.313,42.214
	C115.281,186.241,88.57,171.686,71.313,146.866z"/>
<path style="fill:#BA7958;" d="M360.058,286.136c-41.393-36.623-61.072-88.132-70.292-120.637
	c-8.561-30.185-9.961-54.318-10.189-61.052l51.414-93.156c2.031-3.68,0.694-8.311-2.986-10.342
	c-3.682-2.032-8.311-0.695-10.342,2.986l-52.419,94.978c-0.008,0.015-0.017,0.03-0.025,0.045L163.901,287.604
	c-2.031,3.681-0.694,8.311,2.986,10.342c1.166,0.643,2.427,0.949,3.671,0.949c2.682,0,5.283-1.421,6.671-3.935l89.212-166.713
	c7.765,56.945,34.877,126.245,83.528,169.291c3.148,2.785,7.958,2.492,10.745-0.657C363.5,293.734,363.206,288.922,360.058,286.136z
	"/>
<circle style="fill:#F21897;" cx="366.114" cy="399.101" r="112.893"/>
<path style="fill:#B72391;" d="M275.442,399.104c0-58.602,44.651-106.77,101.787-112.352
	c-66.699-6.515-124.005,45.827-124.005,112.352c0,62.351,50.545,112.896,112.896,112.896c3.749,0,7.454-0.187,11.109-0.544
	C320.092,505.874,275.442,457.706,275.442,399.104z"/>
<circle style="fill:#F446AC;" cx="170.569" cy="399.101" r="112.893"/>
<path style="fill:#F21897;" d="M77.967,399.104c0-58.93,45.152-107.304,102.747-112.437c-3.344-0.298-6.727-0.459-10.149-0.459
	c-62.351,0-112.896,50.545-112.896,112.896S108.214,512,170.565,512c3.422,0,6.805-0.161,10.149-0.459
	C123.119,506.408,77.967,458.034,77.967,399.104z"/>
<g>
</g>
<g>
</g>
<g>
</g>
<g>
</g>
<g>
</g>
<g>
</g>
<g>
</g>
<g>
</g>
<g>
</g>
<g>
</g>
<g>
</g>
<g>
</g>
<g>
</g>
<g>
</g>
<g>
</g>
</svg>
