<?xml version="1.0" encoding="iso-8859-1"?>
<!-- Generator: Adobe Illustrator 19.0.0, SVG Export Plug-In . SVG Version: 6.00 Build 0)  -->
<svg version="1.1" id="Capa_1" xmlns="http://www.w3.org/2000/svg" xmlns:xlink="http://www.w3.org/1999/xlink" x="0px" y="0px"
	 viewBox="0 0 512.001 512.001" style="enable-background:new 0 0 512.001 512.001;" xml:space="preserve">
<path style="fill:#6DC82A;" d="M211.538,267.11c1.44-3.85-2.263-7.553-6.113-6.113c-5.892,2.204-12.069,4.225-18.501,6.019
	c-3.051,3.286-6.148,6.67-9.293,10.177c-41.16,45.894-102.658,125.143-137.343,217.519c-2.483,6.613,0.864,13.986,7.477,16.469
	c1.481,0.556,3,0.82,4.494,0.82c5.177-0.001,10.049-3.166,11.975-8.298c33.202-88.421,92.468-164.788,132.018-208.959
	c3.272-3.654,6.494-7.174,9.669-10.586C207.611,278.245,209.499,272.559,211.538,267.11z"/>
<path style="fill:#67AF28;" d="M56.172,494.712c34.685-92.375,96.182-171.625,137.343-217.519c3.145-3.507,6.241-6.891,9.293-10.177
	c3.034-0.846,6.006-1.747,8.923-2.689c-0.615-2.598-3.419-4.409-6.306-3.33c-5.892,2.204-12.069,4.225-18.501,6.019
	c-3.051,3.286-6.148,6.67-9.293,10.177c-41.16,45.894-102.658,125.143-137.343,217.519c-2.483,6.613,0.864,13.986,7.477,16.469
	c1.481,0.556,3,0.82,4.494,0.82c2.899,0,5.702-0.994,7.946-2.769C55.964,505.875,54.168,500.047,56.172,494.712z"/>
<path style="fill:#8DCE55;" d="M402.377,139.983c-29.122,0-54.916,5.683-76.927,13.811c-4.161,1.536-8.246-2.549-6.71-6.71
	c8.128-22.011,13.811-47.804,13.811-76.927c0-38.903-31.664-70.41-70.627-70.155c-38.755,0.254-70.128,34.039-69.67,72.792
	c0.325,27.507,5.698,51.995,13.339,73.066c1.689,4.657-2.842,9.165-7.499,7.476c-21.736-7.883-47.104-13.353-75.678-13.353
	c-38.903,0-70.41,31.664-70.155,70.626c0.254,38.754,34.038,70.126,72.789,69.67c28.45-0.335,53.671-6.071,75.222-14.132
	c3.85-1.44,7.553,2.263,6.113,6.113c-8.06,21.55-13.797,46.771-14.132,75.219c-0.457,38.752,30.916,72.537,69.67,72.791
	c38.962,0.256,70.627-31.252,70.627-70.154c0-29.061-5.659-54.807-13.759-76.788c-1.548-4.201,2.573-8.342,6.775-6.794
	c21.319,7.856,46.184,13.414,74.174,13.744c38.753,0.457,72.537-30.916,72.791-69.67
	C472.788,171.648,441.28,139.983,402.377,139.983z"/>
<g>
	<path style="fill:#6DC82A;" d="M73.178,210.61c-0.238-36.394,27.239-66.411,62.567-70.212c-4.364-0.262-8.801-0.414-13.328-0.414
		c-38.903,0-70.41,31.664-70.155,70.627c0.254,38.754,34.037,70.127,72.789,69.67c4.072-0.048,8.07-0.218,12.008-0.479
		C102.183,275.804,73.413,246.358,73.178,210.61z"/>
	<path style="fill:#6DC82A;" d="M205.827,149.012c4.53,1.335,8.929,2.782,13.184,4.325c4.657,1.689,9.188-2.819,7.499-7.476
		c-7.641-21.07-13.015-45.559-13.339-73.066c-0.418-35.422,25.762-66.676,59.86-71.984c-3.619-0.551-7.327-0.833-11.106-0.808
		c-38.755,0.254-70.128,34.039-69.67,72.792c0.324,27.507,5.698,51.995,13.339,73.066
		C205.987,146.946,206.032,148.019,205.827,149.012z"/>
	<path style="fill:#6DC82A;" d="M213.17,347.481c0.336-28.449,6.072-53.67,14.132-75.22c1.44-3.85-2.263-7.553-6.113-6.113
		c-4.666,1.745-9.514,3.373-14.52,4.869c-0.041,0.409-0.127,0.825-0.283,1.244c-8.061,21.55-13.797,46.771-14.132,75.22
		c-0.457,38.752,30.916,72.537,69.67,72.791c3.779,0.025,7.487-0.257,11.106-0.808C238.933,414.156,212.752,382.902,213.17,347.481z
		"/>
</g>
<g>
	<path style="fill:#B5EF14;" d="M262.398,178.349c-4.267,0-7.727-3.459-7.727-7.727v-90.92c0-4.267,3.459-7.727,7.727-7.727
		c4.267,0,7.727,3.459,7.727,7.727v90.921C270.124,174.89,266.665,178.349,262.398,178.349z"/>
	<path style="fill:#B5EF14;" d="M262.398,348.454c-4.267,0-7.727-3.459-7.727-7.727v-90.921c0-4.267,3.459-7.727,7.727-7.727
		c4.267,0,7.727,3.459,7.727,7.727v90.921C270.124,344.994,266.665,348.454,262.398,348.454z"/>
	<path style="fill:#B5EF14;" d="M222.806,217.941h-90.921c-4.267,0-7.727-3.459-7.727-7.727s3.459-7.727,7.727-7.727h90.921
		c4.267,0,7.727,3.459,7.727,7.727S227.073,217.941,222.806,217.941z"/>
	<path style="fill:#B5EF14;" d="M392.91,217.941h-90.921c-4.267,0-7.727-3.459-7.727-7.727s3.459-7.727,7.727-7.727h90.921
		c4.267,0,7.727,3.459,7.727,7.727S397.177,217.941,392.91,217.941z"/>
</g>
<g>
</g>
<g>
</g>
<g>
</g>
<g>
</g>
<g>
</g>
<g>
</g>
<g>
</g>
<g>
</g>
<g>
</g>
<g>
</g>
<g>
</g>
<g>
</g>
<g>
</g>
<g>
</g>
<g>
</g>
</svg>
