<?xml version="1.0" encoding="iso-8859-1"?>
<!-- Generator: Adobe Illustrator 19.0.0, SVG Export Plug-In . SVG Version: 6.00 Build 0)  -->
<svg version="1.1" id="Capa_1" xmlns="http://www.w3.org/2000/svg" xmlns:xlink="http://www.w3.org/1999/xlink" x="0px" y="0px"
	 viewBox="0 0 512.002 512.002" style="enable-background:new 0 0 512.002 512.002;" xml:space="preserve">
<path style="fill:#F27524;" d="M46.375,214.304c-14.205-14.017-23.7-32.032-27.39-51.4c-0.636-3.339,0.78-6.758,3.591-8.669
	c16.304-11.086,35.758-17.111,55.713-16.978l58.969-58.969c-0.133-19.955,5.891-39.409,16.977-55.713
	c1.911-2.811,5.33-4.227,8.669-3.591c19.368,3.69,37.384,13.186,51.4,27.39h83.394c14.017-14.205,32.032-23.7,51.4-27.39
	c3.339-0.636,6.757,0.78,8.669,3.591c11.086,16.304,17.111,35.758,16.978,55.713l58.969,58.969
	c19.955-0.133,39.409,5.891,55.713,16.978c2.811,1.911,4.227,5.33,3.591,8.669c-3.69,19.368-13.186,37.384-27.39,51.4v83.394
	c14.205,14.017,23.7,32.032,27.39,51.4c0.636,3.339-0.78,6.758-3.591,8.669c-16.304,11.086-35.758,17.11-55.713,16.978
	l-58.969,58.969c0.133,19.955-5.891,39.409-16.978,55.713c-1.911,2.811-5.33,4.227-8.669,3.591
	c-19.368-3.69-37.383-13.186-51.4-27.39h-83.394c-14.017,14.204-32.032,23.7-51.4,27.39c-3.339,0.636-6.757-0.78-8.669-3.591
	c-11.086-16.304-17.11-35.758-16.977-55.713l-58.969-58.969c-19.955,0.133-39.409-5.891-55.713-16.978
	c-2.811-1.911-4.227-5.33-3.591-8.669c3.69-19.368,13.185-37.383,27.39-51.4V214.304z"/>
<g>
	<path style="fill:#EC5123;" d="M234.91,46.375h71.855c7.033,0,13.781-2.55,19.229-6.998c9.365-7.647,20.052-13.461,31.452-17.206
		c-1.956-2.529-5.179-3.789-8.347-3.185c-19.368,3.69-37.383,13.185-51.4,27.39L234.91,46.375L234.91,46.375z"/>
	<path style="fill:#EC5123;" d="M174.84,489.427c-8.315-12.228-13.782-26.228-15.94-40.882
		c-1.519-10.317-6.135-19.929-13.509-27.303l-46.497-46.497c-19.955,0.133-39.409-5.891-55.713-16.978
		c-2.828-1.923-4.231-5.31-3.591-8.669c3.69-19.368,13.185-37.383,27.39-51.4v-83.394c-14.205-14.017-23.7-32.032-27.39-51.4
		c-0.64-3.359,0.763-6.746,3.591-8.669c16.304-11.086,35.758-17.111,55.713-16.978l49.061-49.061
		c5.95-5.95,9.596-13.765,10.596-22.12c1.868-15.603,7.481-30.546,16.289-43.501c0.098-0.144,0.216-0.269,0.322-0.405
		c-4.014-1.319-8.112-2.396-12.278-3.189c-3.352-0.638-6.73,0.773-8.649,3.595c-11.086,16.304-17.11,35.758-16.977,55.713
		l-58.969,58.969c-19.955-0.133-39.409,5.891-55.713,16.978c-2.828,1.923-4.231,5.31-3.591,8.669
		c3.69,19.368,13.185,37.383,27.39,51.4v83.394c-14.205,14.017-23.7,32.032-27.39,51.4c-0.64,3.359,0.763,6.746,3.591,8.669
		c16.304,11.086,35.758,17.111,55.713,16.978l58.969,58.969c-0.133,19.955,5.891,39.409,16.977,55.713
		c1.919,2.822,5.297,4.232,8.649,3.595c4.166-0.793,8.263-1.87,12.278-3.189C175.056,489.695,174.938,489.571,174.84,489.427z"/>
	<path style="fill:#EC5123;" d="M329.947,475.687c-8.754-6.428-19.245-10.06-30.105-10.06h-64.932l0,0h62.79
		c14.016,14.204,32.032,23.7,51.4,27.39c3.168,0.603,6.391-0.656,8.347-3.185C347.62,486.604,338.323,481.839,329.947,475.687z"/>
</g>
<g>
	<path style="fill:#FFBE26;" d="M260.693,1.4c-2.841-1.866-6.542-1.866-9.383,0c-26.589,17.456-44.158,47.518-44.158,81.701
		s17.569,64.245,44.158,81.701c2.841,1.866,6.542,1.866,9.383,0c26.589-17.456,44.158-47.518,44.158-81.701
		C304.85,48.918,287.281,18.856,260.693,1.4z"/>
	<path style="fill:#FFBE26;" d="M260.693,347.2c-2.841-1.866-6.542-1.866-9.383,0c-26.589,17.456-44.158,47.518-44.158,81.701
		s17.569,64.245,44.158,81.701c2.841,1.866,6.542,1.866,9.383,0c26.589-17.456,44.158-47.518,44.158-81.701
		C304.85,394.718,287.281,364.656,260.693,347.2z"/>
	<path style="fill:#FFBE26;" d="M79.288,72.654c-3.328,0.69-5.945,3.306-6.635,6.635c-6.458,31.144,2.376,64.824,26.547,88.995
		s57.851,33.005,88.996,26.547c3.328-0.69,5.945-3.306,6.635-6.635c6.458-31.144-2.376-64.824-26.547-88.996
		C144.113,75.03,110.433,66.196,79.288,72.654z"/>
	<path style="fill:#FFBE26;" d="M323.806,317.171c-3.328,0.69-5.945,3.306-6.635,6.635c-6.458,31.144,2.376,64.824,26.547,88.995
		s57.851,33.005,88.996,26.547c3.328-0.69,5.945-3.306,6.635-6.635c6.458-31.144-2.376-64.824-26.547-88.996
		C388.632,319.547,354.952,310.714,323.806,317.171z"/>
	<path style="fill:#FFBE26;" d="M1.4,251.31c-1.866,2.841-1.866,6.542,0,9.383c17.456,26.589,47.518,44.158,81.701,44.158
		s64.245-17.569,81.701-44.158c1.866-2.842,1.866-6.542,0-9.383c-17.456-26.589-47.518-44.158-81.701-44.158
		C48.918,207.152,18.856,224.721,1.4,251.31z"/>
	<path style="fill:#FFBE26;" d="M347.201,251.31c-1.866,2.841-1.866,6.542,0,9.383c17.456,26.589,47.518,44.158,81.701,44.158
		s64.245-17.569,81.701-44.158c1.866-2.842,1.866-6.542,0-9.383c-17.456-26.589-47.518-44.158-81.701-44.158
		C394.719,207.152,364.656,224.721,347.201,251.31z"/>
	<path style="fill:#FFBE26;" d="M72.654,432.714c0.69,3.328,3.306,5.945,6.635,6.635c31.144,6.458,64.824-2.376,88.995-26.547
		s33.005-57.851,26.547-88.996c-0.69-3.328-3.306-5.945-6.635-6.635c-31.144-6.458-64.824,2.376-88.996,26.547
		C75.03,367.89,66.196,401.57,72.654,432.714z"/>
	<path style="fill:#FFBE26;" d="M317.172,188.196c0.69,3.328,3.306,5.945,6.635,6.635c31.144,6.458,64.824-2.376,88.995-26.547
		s33.005-57.851,26.547-88.996c-0.69-3.328-3.306-5.945-6.635-6.635c-31.144-6.458-64.824,2.376-88.996,26.547
		C319.547,123.372,310.715,157.052,317.172,188.196z"/>
</g>
<g>
	<path style="fill:#F99A25;" d="M227.757,83.101c0-31.714,15.129-59.873,38.547-77.717c-1.823-1.389-3.69-2.723-5.611-3.984
		c-2.841-1.865-6.541-1.865-9.383,0c-26.589,17.456-44.158,47.518-44.158,81.701c0,34.184,17.569,64.245,44.158,81.701
		c2.841,1.866,6.541,1.866,9.383,0c1.921-1.261,3.788-2.595,5.611-3.984C242.886,142.974,227.757,114.815,227.757,83.101z"/>
	<path style="fill:#F99A25;" d="M227.757,428.901c0-31.714,15.129-59.873,38.547-77.717c-1.823-1.389-3.69-2.723-5.611-3.984
		c-2.841-1.866-6.541-1.866-9.383,0c-26.589,17.456-44.158,47.518-44.158,81.701c0,34.184,17.569,64.245,44.158,81.701
		c2.841,1.866,6.541,1.866,9.383,0c1.921-1.261,3.788-2.595,5.611-3.984C242.886,488.775,227.757,460.616,227.757,428.901z"/>
	<path style="fill:#F99A25;" d="M119.806,168.284c-24.171-24.171-33.005-57.851-26.548-88.995c0.69-3.328,3.307-5.945,6.635-6.635
		c3.194-0.662,6.416-1.155,9.65-1.495c-10.082-1.063-20.298-0.569-30.255,1.495c-3.328,0.69-5.945,3.307-6.635,6.635
		c-6.458,31.144,2.376,64.824,26.547,88.995c21.692,21.692,51.042,31.022,79.345,28.043
		C157.094,194.064,136.249,184.727,119.806,168.284z"/>
	<path style="fill:#F99A25;" d="M364.323,412.802c-24.171-24.171-33.005-57.851-26.547-88.995c0.69-3.328,3.306-5.945,6.635-6.635
		c3.194-0.662,6.416-1.155,9.65-1.495c-10.082-1.063-20.298-0.569-30.255,1.495c-3.328,0.69-5.945,3.306-6.635,6.635
		c-6.458,31.144,2.376,64.824,26.547,88.995c21.692,21.692,51.042,31.023,79.345,28.043
		C401.611,438.582,380.767,429.245,364.323,412.802z"/>
	<path style="fill:#F99A25;" d="M22.005,260.693c-1.866-2.841-1.866-6.542,0-9.383c15.679-23.881,41.529-40.477,71.398-43.611
		c-3.387-0.355-6.822-0.547-10.303-0.547c-34.183,0-64.245,17.569-81.701,44.158c-1.866,2.841-1.866,6.542,0,9.383
		c17.456,26.589,47.518,44.158,81.701,44.158c3.481,0,6.916-0.192,10.303-0.547C63.535,301.17,37.684,284.574,22.005,260.693z"/>
	<path style="fill:#F99A25;" d="M367.805,260.693c-1.865-2.841-1.865-6.542,0-9.383c15.679-23.881,41.529-40.477,71.399-43.611
		c-3.387-0.355-6.822-0.547-10.303-0.547c-34.183,0-64.245,17.569-81.701,44.158c-1.865,2.841-1.865,6.542,0,9.383
		c17.456,26.589,47.518,44.158,81.701,44.158c3.481,0,6.916-0.192,10.303-0.547C409.335,301.17,383.484,284.574,367.805,260.693z"/>
	<path style="fill:#F99A25;" d="M99.893,439.349c-3.328-0.69-5.945-3.306-6.635-6.635c-6.458-31.144,2.376-64.824,26.547-88.995
		c16.443-16.443,37.288-25.781,58.74-28.043c-28.303-2.98-57.653,6.35-79.345,28.043C75.03,367.89,66.195,401.57,72.654,432.714
		c0.69,3.328,3.307,5.945,6.635,6.635c9.957,2.065,20.173,2.558,30.255,1.495C106.309,440.504,103.088,440.011,99.893,439.349z"/>
	<path style="fill:#F99A25;" d="M344.411,194.831c-3.328-0.69-5.945-3.306-6.635-6.635c-6.458-31.144,2.376-64.824,26.547-88.995
		c16.443-16.443,37.288-25.781,58.74-28.042c-28.303-2.98-57.653,6.35-79.345,28.042c-24.171,24.171-33.005,57.851-26.547,88.995
		c0.69,3.328,3.306,5.945,6.635,6.635c9.957,2.065,20.173,2.558,30.255,1.495C350.827,195.986,347.605,195.493,344.411,194.831z"/>
</g>
<g>
	<path style="fill:#FFE44C;" d="M256.001,182.044c-4.267,0-7.727-3.459-7.727-7.727V83.101c0-4.267,3.459-7.727,7.727-7.727
		c4.267,0,7.727,3.459,7.727,7.727v91.216C263.728,178.584,260.27,182.044,256.001,182.044z"/>
	<path style="fill:#FFE44C;" d="M256.001,436.628c-4.267,0-7.727-3.459-7.727-7.727v-96.956c0-4.267,3.459-7.727,7.727-7.727
		c4.267,0,7.727,3.459,7.727,7.727v96.956C263.728,433.169,260.27,436.628,256.001,436.628z"/>
	<path style="fill:#FFE44C;" d="M198.021,205.748c-1.977,0-3.955-0.755-5.464-2.263l-64.278-64.278
		c-3.018-3.017-3.018-7.91,0-10.927c3.017-3.017,7.91-3.017,10.927,0l64.278,64.278c3.018,3.017,3.018,7.91,0,10.927
		C201.977,204.993,199.998,205.748,198.021,205.748z"/>
	<path style="fill:#FFE44C;" d="M378.26,385.987c-1.978,0-3.955-0.755-5.464-2.263l-67.711-67.711c-3.018-3.017-3.018-7.91,0-10.927
		c3.017-3.017,7.91-3.017,10.927,0l67.711,67.711c3.018,3.017,3.018,7.91,0,10.927C382.215,385.232,380.238,385.987,378.26,385.987z
		"/>
	<path style="fill:#FFE44C;" d="M175.039,263.728H83.101c-4.267,0-7.727-3.46-7.727-7.727c0-4.267,3.459-7.727,7.727-7.727h91.938
		c4.267,0,7.727,3.459,7.727,7.727C182.766,260.269,179.306,263.728,175.039,263.728z"/>
	<path style="fill:#FFE44C;" d="M428.901,263.728H333.01c-4.267,0-7.727-3.46-7.727-7.727c0-4.267,3.46-7.727,7.727-7.727h95.891
		c4.267,0,7.727,3.459,7.727,7.727C436.629,260.269,433.168,263.728,428.901,263.728z"/>
	<path style="fill:#FFE44C;" d="M133.742,385.987c-1.977,0-3.955-0.755-5.464-2.263c-3.018-3.017-3.018-7.91,0-10.927l65.422-65.423
		c3.017-3.017,7.91-3.017,10.927,0c3.018,3.017,3.018,7.91,0,10.927l-65.422,65.423C137.697,385.232,135.72,385.987,133.742,385.987
		z"/>
	<path style="fill:#FFE44C;" d="M310.273,209.456c-1.977,0-3.955-0.754-5.464-2.263c-3.018-3.017-3.018-7.91,0-10.927l67.987-67.987
		c3.017-3.018,7.91-3.018,10.927,0c3.018,3.017,3.018,7.91,0,10.927l-67.987,67.987C314.228,208.701,312.25,209.456,310.273,209.456
		z"/>
</g>
<circle style="fill:#BA7958;" cx="256.001" cy="256.001" r="89.8"/>
<path style="fill:#996459;" d="M187.059,256.001c0-46.067,34.69-84.025,79.372-89.194c-3.422-0.396-6.901-0.606-10.429-0.606
	c-49.595,0-89.8,40.205-89.8,89.8s40.205,89.8,89.8,89.8c3.528,0,7.007-0.21,10.429-0.606
	C221.749,340.027,187.059,302.068,187.059,256.001z"/>
<path style="fill:#CC905E;" d="M316.561,249.643h-19.607v-17.772h5.627c4.267,0,7.727-3.459,7.727-7.727s-3.459-7.727-7.727-7.727
	h-5.627v-5.627c0-4.267-3.459-7.727-7.727-7.727s-7.727,3.459-7.727,7.727v5.627h-17.772v-19.608c0-4.267-3.46-7.727-7.727-7.727
	s-7.727,3.459-7.727,7.727v19.608h-17.772v-5.627c0-4.267-3.459-7.727-7.727-7.727c-4.267,0-7.727,3.459-7.727,7.727v5.627h-5.627
	c-4.267,0-7.727,3.459-7.727,7.727s3.459,7.727,7.727,7.727h5.627v17.772h-19.607c-4.267,0-7.727,3.459-7.727,7.727
	c0,4.267,3.459,7.727,7.727,7.727h19.608v17.772h-5.627c-4.267,0-7.727,3.459-7.727,7.727c0,4.267,3.459,7.727,7.727,7.727h5.627
	v5.627c0,4.267,3.459,7.727,7.727,7.727c4.267,0,7.727-3.459,7.727-7.727v-5.627h17.772v19.607c0,4.267,3.459,7.727,7.727,7.727
	c4.267,0,7.727-3.46,7.727-7.727v-19.607h17.772v5.627c0,4.267,3.46,7.727,7.727,7.727s7.727-3.459,7.727-7.727v-5.627h5.627
	c4.267,0,7.727-3.459,7.727-7.727c0-4.267-3.459-7.727-7.727-7.727h-5.627v-17.772h19.607c4.267,0,7.727-3.459,7.727-7.727
	C324.288,253.103,320.828,249.643,316.561,249.643z M281.5,231.871v17.772h-17.772v-17.772H281.5z M230.503,231.871h17.772v17.772
	h-17.772V231.871z M230.503,282.869v-17.772h17.772v17.772H230.503z M281.5,282.869h-17.772v-17.772H281.5V282.869z"/>
<g>
</g>
<g>
</g>
<g>
</g>
<g>
</g>
<g>
</g>
<g>
</g>
<g>
</g>
<g>
</g>
<g>
</g>
<g>
</g>
<g>
</g>
<g>
</g>
<g>
</g>
<g>
</g>
<g>
</g>
</svg>
