<?xml version="1.0" encoding="iso-8859-1"?>
<!-- Generator: Adobe Illustrator 19.0.0, SVG Export Plug-In . SVG Version: 6.00 Build 0)  -->
<svg version="1.1" id="Capa_1" xmlns="http://www.w3.org/2000/svg" xmlns:xlink="http://www.w3.org/1999/xlink" x="0px" y="0px"
	 viewBox="0 0 512 512" style="enable-background:new 0 0 512 512;" xml:space="preserve">
<path style="fill:#BABABA;" d="M257.71,155.39c-4.204,0-7.612-3.408-7.612-7.612v-38.072c0-5.048-4.107-9.155-9.154-9.155h-24.218
	c-5.048,0-9.154,4.107-9.154,9.155v38.072c0,4.204-3.408,7.612-7.612,7.612s-7.612-3.408-7.612-7.612v-38.072
	c0-13.442,10.936-24.379,24.378-24.379h24.218c13.442,0,24.378,10.936,24.378,24.379v38.072
	C265.322,151.982,261.914,155.39,257.71,155.39z"/>
<polygon style="fill:#FFD46E;" points="451.315,232.579 348.286,293.967 360.481,398.263 480.999,267.72 "/>
<polygon style="fill:#F9AF6E;" points="369.976,281.044 348.286,293.967 360.481,398.263 381.074,375.958 "/>
<path style="fill:#FFD46E;" d="M37.648,306.352l13.977,8.081c17.423,10.072,39.5,6.715,53.141-8.08l0,0h6.773l-10.149,87.222h-7.295
	l-56.728-87.656"/>
<polygon style="fill:#D3D3D3;" points="37.648,306.353 37.648,306.353 37.368,305.919 "/>
<path style="fill:#F9AF6E;" d="M74.672,320.174c-7.861,0.281-15.851-1.582-23.046-5.741l-13.977-8.081l56.448,87.222h7.295
	l3.167-27.22L74.672,320.174z"/>
<path style="fill:#F59249;" d="M112.555,401.187H94.096c-2.582,0-4.988-1.309-6.39-3.476l-77.343-119.51
	C3.583,267.726,0,255.594,0,243.118v-0.175c0-22.174,18.04-40.213,40.214-40.213h87.464c4.204,0,7.612,3.408,7.612,7.612
	s-3.408,7.612-7.612,7.612H40.214c-13.779,0-24.99,11.21-24.99,24.989v0.175c0,9.535,2.739,18.806,7.919,26.812l75.093,116.033
	h14.319c4.204,0,7.612,3.408,7.612,7.612S116.759,401.187,112.555,401.187z"/>
<path style="fill:#F9AF6E;" d="M502.621,275.186l3.451-2.915c7.045-5.951,7.94-16.583,1.989-23.628l-34.681-41.057
	c-5.95-7.044-16.583-7.94-23.628-1.989l-3.451,2.915c-7.045,5.951-7.94,16.583-1.989,23.628l34.681,41.057
	C484.944,280.241,495.577,281.136,502.621,275.186z"/>
<path style="fill:#EC5123;" d="M493.457,261.491l-34.681-41.058c-4.43-5.244-5.06-12.475-2.189-18.285
	c-2.444,0.591-4.791,1.723-6.834,3.448l-3.451,2.915c-7.045,5.951-7.94,16.583-1.989,23.628l34.681,41.058
	c5.95,7.044,16.583,7.94,23.628,1.989l3.451-2.915c1.8-1.521,3.193-3.349,4.178-5.343
	C504.265,268.376,497.682,266.493,493.457,261.491z"/>
<path style="fill:#FFE9B7;" d="M336.418,168.574l26.877,223.553c2.238,18.363-12.092,34.546-30.591,34.546H123.391
	c-17.722,0-31.448-15.508-29.296-33.098l27.155-225.001H336.418z"/>
<path style="fill:#FFD46E;" d="M114.395,393.575l27.155-225.001h-20.299L94.096,393.575c-2.152,17.59,11.574,33.098,29.295,33.098
	h20.299C125.968,426.673,112.242,411.165,114.395,393.575z"/>
<circle style="fill:#696B70;" cx="228.83" cy="293.33" r="43.03"/>
<path style="fill:#5C5F63;" d="M206.098,293.333c0-20.27,14.018-37.256,32.885-41.819c-3.255-0.787-6.652-1.215-10.149-1.215
	c-23.767,0-43.034,19.267-43.034,43.034s19.267,43.035,43.034,43.035c3.498,0,6.894-0.428,10.149-1.215
	C220.116,330.589,206.098,313.603,206.098,293.333z"/>
<path style="fill:#F9AF6E;" d="M355.622,171.619H102.047c-6.6,0-12-5.4-12-12v-14.05c0-6.6,5.4-12,12-12h253.576c6.6,0,12,5.4,12,12
	v14.05C367.622,166.219,362.222,171.619,355.622,171.619z"/>
<path style="fill:#F59249;" d="M355.443,152.594H102.226c-5.782,0-10.648-4.087-11.874-9.512c-0.194,0.86-0.305,1.75-0.305,2.667
	v13.692c0,6.699,5.481,12.179,12.179,12.179h253.217c6.698,0,12.179-5.481,12.179-12.179v-13.692c0-0.916-0.112-1.807-0.306-2.667
	C366.091,148.507,361.225,152.594,355.443,152.594z"/>
<g>
</g>
<g>
</g>
<g>
</g>
<g>
</g>
<g>
</g>
<g>
</g>
<g>
</g>
<g>
</g>
<g>
</g>
<g>
</g>
<g>
</g>
<g>
</g>
<g>
</g>
<g>
</g>
<g>
</g>
</svg>
