<?xml version="1.0" encoding="iso-8859-1"?>
<!-- Generator: Adobe Illustrator 19.0.0, SVG Export Plug-In . SVG Version: 6.00 Build 0)  -->
<svg version="1.1" id="Capa_1" xmlns="http://www.w3.org/2000/svg" xmlns:xlink="http://www.w3.org/1999/xlink" x="0px" y="0px"
	 viewBox="0 0 512 512" style="enable-background:new 0 0 512 512;" xml:space="preserve">
<path style="fill:#8DCE55;" d="M256,71.922v21.675c0,1.89,1.532,3.423,3.423,3.423h65.461c39.557,0,71.922-32.365,71.922-71.922
	V3.423c0-1.89-1.532-3.423-3.423-3.423h-65.461C288.365,0,256,32.365,256,71.922z"/>
<path style="fill:#6DC82A;" d="M278.588,93.597V71.922C278.588,32.365,310.953,0,350.51,0h-22.588C288.365,0,256,32.365,256,71.922
	v21.675c0,1.89,1.533,3.423,3.423,3.423h22.588C280.12,97.02,278.588,95.488,278.588,93.597z"/>
<path style="fill:#AEDB75;" d="M255.258,103.529c-3.594-2.3-4.644-7.079-2.344-10.673c31.542-49.291,75.19-60.046,77.033-60.479
	c4.155-0.977,8.314,1.597,9.291,5.751c0.976,4.148-1.589,8.301-5.732,9.287c-0.622,0.153-39.651,10.133-67.575,53.77
	C263.632,104.778,258.856,105.83,255.258,103.529z"/>
<path style="fill:#8DCE55;" d="M256,88.211v5.386c0,1.89,1.533,3.423,3.423,3.423h9.28c3.199-4.638,6.518-8.848,9.885-12.697V71.922
	c0-3.567,0.272-7.072,0.78-10.503C271.468,68.573,263.457,77.386,256,88.211z"/>
<path style="fill:#F27524;" d="M158.182,225.574l74.286,268.521c6.605,23.874,40.459,23.874,47.063,0l74.286-268.521
	C371.703,160.927,323.075,97.02,256,97.02C188.877,97.02,140.31,160.972,158.182,225.574z"/>
<path style="fill:#EC5123;" d="M255.072,494.094l-74.286-268.521c-16.863-60.954,25.408-121.24,86.516-127.93
	c-71.937-7.876-128.16,59.106-109.12,127.93l74.286,268.521c4.575,16.538,22.222,21.61,34.833,15.235
	C261.708,506.502,257.101,501.43,255.072,494.094z"/>
<path style="fill:#8DCE55;" d="M256,71.922v21.675c0,1.89-1.532,3.423-3.423,3.423h-65.461c-39.557,0-71.922-32.365-71.922-71.922
	V3.423c0-1.89,1.532-3.423,3.423-3.423h65.461C223.635,0,256,32.365,256,71.922z"/>
<path style="fill:#6DC82A;" d="M135.799,25.098V3.423c0-1.891,1.532-3.423,3.423-3.423h-20.605c-1.89,0-3.423,1.532-3.423,3.423
	v21.675c0,39.557,32.365,71.922,71.922,71.922h20.605C168.163,97.02,135.799,64.655,135.799,25.098z"/>
<path style="fill:#AEDB75;" d="M247.814,101.185c-28.201-44.071-67.166-53.674-67.557-53.766c-4.154-0.977-6.729-5.137-5.751-9.291
	c0.977-4.154,5.137-6.731,9.291-5.751c1.843,0.434,45.491,11.188,77.033,60.479c2.3,3.594,1.251,8.373-2.344,10.673
	C254.894,105.828,250.115,104.781,247.814,101.185z"/>
<g>
	<path style="fill:#F99A25;" d="M228.337,333.376c-20.89,1.225-36.656-5.547-36.793-5.607c-0.767-0.341-1.583-0.554-2.418-0.631
		c-0.965-0.09-1.941-0.184-2.924-0.28l4.736,17.119c6.482,2.094,18.034,5.003,32.265,5.003c1.964,0,3.98-0.055,6.039-0.176
		c4.26-0.25,7.511-3.906,7.261-8.167C236.254,336.378,232.61,333.128,228.337,333.376z"/>
	<path style="fill:#F99A25;" d="M156.19,216.948c8.993,4.319,28.857,12.411,54.178,13.993c4.25,0.262,7.928-2.971,8.194-7.23
		s-2.971-7.928-7.23-8.194c-30.311-1.894-52.346-14.495-52.553-14.616c-1.313-0.768-2.813-1.12-4.308-1.042
		C154.559,205.499,155.117,211.209,156.19,216.948z"/>
	<path style="fill:#F99A25;" d="M300.092,181.224c0.003,0,0.006,0,0.01,0c1.29,0,28.132-0.142,52.473-11.122h0.916
		c-1.497-5.102-3.394-10.054-5.65-14.821c-0.09,0.038-0.182,0.068-0.27,0.11c-21.598,10.224-47.22,10.378-47.476,10.379
		c-4.264,0.002-7.721,3.457-7.724,7.722C292.367,177.76,295.825,181.221,300.092,181.224z"/>
	<path style="fill:#F99A25;" d="M341.816,261.229c-0.928,0-1.849,0.168-2.718,0.494c-17.326,6.509-38.161,4.916-38.362,4.902
		c-4.248-0.346-7.986,2.809-8.34,7.061c-0.353,4.253,2.808,7.986,7.061,8.34c0.327,0.027,3.118,0.248,7.457,0.247
		c7.668,0,20.165-0.697,32.422-4.35l4.618-16.693h-2.138V261.229z"/>
</g>
<path style="fill:#CC905E;" d="M314.317,115.394C297.988,103.886,277.985,97.02,256,97.02l0,0c-21.985,0-41.988,6.866-58.317,18.374
	C229.489,139.183,282.549,139.156,314.317,115.394z"/>
<path style="fill:#BA7958;" d="M210.561,123.192c15.226-13.803,34.759-23.138,56.728-25.546
	c-24.282-2.658-48.775,3.166-69.606,17.748C201.573,118.303,205.896,120.912,210.561,123.192z"/>
<path style="fill:#F99A25;" d="M273.841,402.418c-4.253-0.292-7.945,2.903-8.249,7.156c-0.305,4.257,2.899,7.954,7.155,8.259
	c0.219,0.016,1.909,0.129,4.648,0.129c5.172,0,14.092-0.413,23.931-2.648l4.772-17.248c-0.482,0.061-0.965,0.166-1.444,0.323
	C289.445,403.393,274.099,402.434,273.841,402.418z"/>
<g>
</g>
<g>
</g>
<g>
</g>
<g>
</g>
<g>
</g>
<g>
</g>
<g>
</g>
<g>
</g>
<g>
</g>
<g>
</g>
<g>
</g>
<g>
</g>
<g>
</g>
<g>
</g>
<g>
</g>
</svg>
