<?xml version="1.0" encoding="iso-8859-1"?>
<!-- Generator: Adobe Illustrator 19.0.0, SVG Export Plug-In . SVG Version: 6.00 Build 0)  -->
<svg version="1.1" id="Capa_1" xmlns="http://www.w3.org/2000/svg" xmlns:xlink="http://www.w3.org/1999/xlink" x="0px" y="0px"
	 viewBox="0 0 511.999 511.999" style="enable-background:new 0 0 511.999 511.999;" xml:space="preserve">
<path style="fill:#8DCE55;" d="M170.887,255.804c0.521-66.916,19.567-122.839,41.896-165.577
	c-21.435-14.642-43.181-23.971-54.707-29.088c-6.762-3.002-14.672,0.241-17.391,7.121c-13.329,33.721-44.553,133.783-0.042,245.061
	c20.987,52.469,81.115,79.569,133.573,58.554c0.121-0.048,0.239-0.101,0.36-0.15C214.63,368.204,170.415,316.515,170.887,255.804z"
	/>
<path style="fill:#6DC82A;" d="M160.942,313.321c-44.511-111.278-13.287-211.34,0.042-245.062c0.693-1.754,1.727-3.268,2.989-4.505
	c-2.174-0.97-4.154-1.842-5.897-2.615c-6.762-3.002-14.672,0.241-17.391,7.121c-13.329,33.721-44.553,133.783-0.042,245.062
	c17.459,43.648,62.005,69.734,106.688,65.175C210.014,374.708,175.744,350.326,160.942,313.321z"/>
<path style="fill:#D0EF6F;" d="M270.715,4.441c-27.822,28.998-101.838,118.538-102.872,251.363
	c-0.488,62.628,49.819,115.657,112.448,116.112c62.961,0.457,114.142-50.443,114.142-113.298
	c0-134.386-74.878-224.99-102.89-254.184C285.865-1.483,276.392-1.476,270.715,4.441z"/>
<path style="fill:#B5EF14;" d="M188.141,255.804c1.034-132.825,75.05-222.365,102.872-251.363c0.086-0.089,0.181-0.165,0.268-0.252
	c-5.702-5.658-14.973-5.578-20.567,0.252c-27.822,28.998-101.838,118.538-102.872,251.363
	c-0.488,62.629,49.819,115.657,112.448,116.112c3.731,0.027,7.419-0.132,11.059-0.457
	C233.087,366.161,187.678,315.32,188.141,255.804z"/>
<path style="fill:#8DCE55;" d="M365.317,245.239c-3.516-2.302-8.235-1.318-10.537,2.201c-16.426,25.098-49.119,44.596-66.032,53.5
	v-48.613c13.089-6.543,51.03-27.39,68.408-56.979c2.129-3.625,0.916-8.29-2.709-10.419c-3.625-2.128-8.289-0.917-10.419,2.709
	c-12.864,21.904-40.118,39.118-55.28,47.46V182.22c8.128-4.539,26.078-15.632,38.37-31.144c2.611-3.295,2.056-8.083-1.239-10.693
	c-3.294-2.61-8.082-2.057-10.693,1.239c-7.728,9.753-18.451,17.699-26.437,22.827v-49.495c0-4.204-3.408-7.612-7.612-7.612
	s-7.612,3.408-7.612,7.612v49.508c-7.973-5.115-18.68-13.05-26.437-22.84c-2.612-3.296-7.4-3.85-10.693-1.239
	c-3.295,2.611-3.85,7.398-1.239,10.693c12.292,15.512,30.241,26.604,38.37,31.144v52.878c-15.163-8.342-42.416-25.557-55.28-47.46
	c-2.129-3.625-6.793-4.837-10.419-2.709c-3.625,2.129-4.838,6.794-2.709,10.419c17.378,29.589,55.319,50.436,68.408,56.979v48.621
	c-16.903-8.887-49.573-28.36-66.032-53.508c-2.302-3.518-7.021-4.503-10.537-2.201c-3.518,2.302-4.503,7.02-2.201,10.537
	c21.284,32.522,64.585,55.389,78.77,62.257v80.388c-9.986-15.148-21.351-24.923-22.196-25.639c-3.205-2.715-8-2.317-10.718,0.884
	c-2.719,3.201-2.327,8.003,0.871,10.726c0.321,0.273,32.044,27.649,32.044,59.293v60.702c0,4.204,3.408,7.612,7.612,7.612
	s7.612-3.408,7.612-7.612V473.89c0-36.494,37.921-52.703,39.535-53.375c3.878-1.604,5.727-6.044,4.131-9.928
	c-1.598-3.889-6.047-5.746-9.934-4.147c-1.242,0.51-19.826,8.36-33.732,25.445V318.033c14.185-6.868,57.486-29.735,78.771-62.257
	C369.82,252.258,368.835,247.541,365.317,245.239z"/>
<g>
</g>
<g>
</g>
<g>
</g>
<g>
</g>
<g>
</g>
<g>
</g>
<g>
</g>
<g>
</g>
<g>
</g>
<g>
</g>
<g>
</g>
<g>
</g>
<g>
</g>
<g>
</g>
<g>
</g>
</svg>
