<?xml version="1.0" encoding="iso-8859-1"?>
<!-- Generator: Adobe Illustrator 19.0.0, SVG Export Plug-In . SVG Version: 6.00 Build 0)  -->
<svg version="1.1" id="Capa_1" xmlns="http://www.w3.org/2000/svg" xmlns:xlink="http://www.w3.org/1999/xlink" x="0px" y="0px"
	 viewBox="0 0 512 512" style="enable-background:new 0 0 512 512;" xml:space="preserve">
<circle style="fill:#FFBE26;" cx="256.054" cy="256.004" r="153.308"/>
<path style="fill:#F99A25;" d="M122.746,256c0-81.31,63.302-147.824,143.311-152.977C177.063,97.286,102.745,167.882,102.745,256
	c0,84.671,68.64,153.311,153.311,153.311c3.361,0,6.693-0.12,10.001-0.333C186.047,403.824,122.746,337.31,122.746,256z"/>
<g>
	<path style="fill:#FFBE26;" d="M253.933,74.855c-0.645,0-1.3-0.084-1.953-0.259c-4-1.076-6.371-5.19-5.295-9.19l5.549-20.637
		c-2.036-0.62-3.895-1.792-5.356-3.435c-2.615-2.939-3.585-6.967-2.595-10.776l6.485-24.943c1.042-4.008,5.138-6.413,9.146-5.371
		c4.009,1.042,6.414,5.138,5.371,9.146l-5.513,21.201c2.126,0.575,4.07,1.763,5.577,3.47c2.542,2.88,3.464,6.814,2.466,10.524
		L261.169,69.3C260.27,72.648,257.241,74.855,253.933,74.855z"/>
	<path style="fill:#FFBE26;" d="M253.933,512c-0.645,0-1.3-0.084-1.953-0.259c-4-1.076-6.371-5.19-5.295-9.19l5.549-20.637
		c-2.037-0.62-3.896-1.792-5.357-3.435c-2.615-2.939-3.585-6.967-2.594-10.775l6.485-24.943c1.042-4.009,5.139-6.412,9.146-5.372
		c4.009,1.042,6.414,5.137,5.372,9.146l-5.513,21.201c2.126,0.575,4.07,1.763,5.576,3.47c2.542,2.88,3.464,6.814,2.467,10.524
		l-6.646,24.715C260.27,509.793,257.241,512,253.933,512z"/>
	<path style="fill:#FFBE26;" d="M121.164,131.613c-2.594,0-5.117-1.348-6.506-3.757l-10.669-18.517
		c-1.878,1.001-4.019,1.49-6.216,1.359c-3.927-0.229-7.462-2.391-9.455-5.784L75.268,82.689c-2.098-3.572-0.902-8.167,2.669-10.266
		c3.572-2.098,8.167-0.902,10.266,2.669l11.094,18.89c1.91-1.097,4.122-1.636,6.398-1.49c3.834,0.239,7.267,2.369,9.185,5.698
		l12.777,22.175c2.068,3.589,0.835,8.175-2.754,10.244C123.722,131.29,122.434,131.613,121.164,131.613z"/>
	<path style="fill:#FFBE26;" d="M430.272,440.72c-2.594,0-5.117-1.348-6.505-3.757l-10.669-18.516
		c-1.877,1.001-4.019,1.49-6.215,1.359c-3.928-0.229-7.462-2.391-9.455-5.784l-13.052-22.224c-2.098-3.572-0.902-8.167,2.669-10.266
		c3.571-2.098,8.167-0.903,10.266,2.669l11.093,18.889c1.911-1.097,4.126-1.63,6.398-1.489c3.834,0.239,7.268,2.37,9.185,5.698
		l12.776,22.174c2.068,3.589,0.835,8.175-2.754,10.244C432.829,440.397,431.542,440.72,430.272,440.72z"/>
	<path style="fill:#FFBE26;" d="M33.526,268.131c-0.989,0-1.986-0.125-2.968-0.381l-24.943-6.485
		c-4.009-1.042-6.414-5.137-5.371-9.146c1.042-4.009,5.137-6.416,9.146-5.371l21.201,5.513c0.575-2.126,1.763-4.07,3.47-5.577
		c2.881-2.542,6.815-3.463,10.524-2.466l24.715,6.646c4,1.076,6.371,5.19,5.295,9.19c-1.075,4-5.19,6.372-9.19,5.295L44.768,259.8
		c-0.62,2.036-1.792,3.895-3.434,5.356C39.153,267.096,36.371,268.131,33.526,268.131z"/>
	<path style="fill:#FFBE26;" d="M470.671,268.131c-0.989,0-1.986-0.125-2.968-0.381l-24.943-6.485
		c-4.009-1.042-6.414-5.138-5.371-9.146c1.042-4.008,5.133-6.414,9.146-5.371l21.201,5.513c0.575-2.126,1.763-4.07,3.47-5.577
		c2.88-2.542,6.813-3.464,10.524-2.466l24.715,6.646c4,1.076,6.371,5.19,5.295,9.19c-1.076,4-5.192,6.369-9.19,5.295l-20.637-5.549
		c-0.62,2.036-1.792,3.895-3.434,5.356C476.299,267.096,473.518,268.131,470.671,268.131z"/>
	<path style="fill:#FFBE26;" d="M78.899,437.798c-2.573,0-5.077-1.324-6.474-3.703c-2.097-3.572-0.902-8.167,2.669-10.266
		l18.889-11.093c-1.097-1.91-1.631-4.125-1.489-6.398c0.239-3.833,2.369-7.267,5.698-9.185l22.175-12.777
		c3.589-2.068,8.175-0.834,10.244,2.754c2.068,3.588,0.835,8.175-2.754,10.244l-18.516,10.669c1.001,1.878,1.487,4.021,1.359,6.215
		c-0.229,3.928-2.391,7.462-5.783,9.454l-22.225,13.052C81.497,437.465,80.189,437.798,78.899,437.798z"/>
	<path style="fill:#FFBE26;" d="M388.007,128.691c-2.573,0-5.077-1.324-6.474-3.703c-2.098-3.572-0.902-8.167,2.669-10.266
		l18.89-11.093c-1.097-1.911-1.632-4.126-1.49-6.398c0.24-3.834,2.37-7.267,5.698-9.185l22.174-12.776
		c3.589-2.067,8.175-0.835,10.244,2.754c2.068,3.589,0.835,8.175-2.754,10.244l-18.517,10.668c1.001,1.878,1.487,4.021,1.359,6.215
		c-0.229,3.928-2.391,7.462-5.784,9.454l-22.224,13.052C390.605,128.358,389.297,128.691,388.007,128.691z"/>
</g>
<g>
</g>
<g>
</g>
<g>
</g>
<g>
</g>
<g>
</g>
<g>
</g>
<g>
</g>
<g>
</g>
<g>
</g>
<g>
</g>
<g>
</g>
<g>
</g>
<g>
</g>
<g>
</g>
<g>
</g>
</svg>
