<?xml version="1.0" encoding="iso-8859-1"?>
<!-- Generator: Adobe Illustrator 19.0.0, SVG Export Plug-In . SVG Version: 6.00 Build 0)  -->
<svg version="1.1" id="Capa_1" xmlns="http://www.w3.org/2000/svg" xmlns:xlink="http://www.w3.org/1999/xlink" x="0px" y="0px"
	 viewBox="0 0 512 512" style="enable-background:new 0 0 512 512;" xml:space="preserve">
<path style="fill:#E3AA75;" d="M256,480c-4.422,0-8-3.582-8-8V8c0-4.418,3.578-8,8-8s8,3.582,8,8v464
	C264,476.418,260.422,480,256,480z"/>
<rect x="248" y="160" style="fill:#D29B6E;" width="16" height="32"/>
<path style="fill:#FFE1A0;" d="M352,496h-15.319c-8.131,0-16.193-2.286-22.734-7.115C299.979,478.572,279.263,472,256,472
	s-43.979,6.572-57.947,16.885c-6.541,4.829-14.603,7.115-22.734,7.115H160c-4.422,0-8,3.582-8,8s3.578,8,8,8h192
	c4.422,0,8-3.582,8-8S356.422,496,352,496z"/>
<path style="fill:#FF8087;" d="M256,24C152.261,24,61.015,68.559,8,136h248V24z"/>
<path style="fill:#A5CDFF;" d="M256,24c103.739,0,194.985,44.559,248,112H256V24z"/>
<path style="fill:#FFD164;" d="M152,136l9.965,24.913c3.645,9.112,12.47,15.087,22.284,15.087h143.502
	c9.814,0,18.639-5.975,22.284-15.087L360,136H152z"/>
<path style="fill:#8CB4EB;" d="M360,136l9.965,24.913c3.645,9.112,12.47,15.087,22.284,15.087h79.502
	c9.814,0,18.639-5.975,22.284-15.087L504,136H360z"/>
<path style="fill:#E6646E;" d="M152,136l-9.965,24.913C138.39,170.025,129.565,176,119.751,176H40.249
	c-9.814,0-18.639-5.975-22.283-15.087L8,136"/>
<path style="fill:#FFE17D;" d="M256,24c-43.503,0-81.768,44.559-104,112h208C337.768,68.559,299.503,24,256,24z"/>
<path style="fill:#F7D291;" d="M278.833,474.255C271.623,472.824,263.979,472,256,472c-23.263,0-43.979,6.571-57.947,16.885
	c-6.541,4.83-14.603,7.115-22.734,7.115H160c-4.422,0-8,3.582-8,8s3.578,8,8,8h64.367
	C227.271,494.306,249.203,479.658,278.833,474.255z"/>
<g>
</g>
<g>
</g>
<g>
</g>
<g>
</g>
<g>
</g>
<g>
</g>
<g>
</g>
<g>
</g>
<g>
</g>
<g>
</g>
<g>
</g>
<g>
</g>
<g>
</g>
<g>
</g>
<g>
</g>
</svg>
