<?xml version="1.0" encoding="iso-8859-1"?>
<!-- Generator: Adobe Illustrator 19.0.0, SVG Export Plug-In . SVG Version: 6.00 Build 0)  -->
<svg version="1.1" id="Capa_1" xmlns="http://www.w3.org/2000/svg" xmlns:xlink="http://www.w3.org/1999/xlink" x="0px" y="0px"
	 viewBox="0 0 512 512" style="enable-background:new 0 0 512 512;" xml:space="preserve">
<ellipse style="fill:#FFE1A0;" cx="256" cy="293.162" rx="256" ry="74.32"/>
<ellipse style="fill:#F7D291;" cx="256" cy="293.162" rx="156.9" ry="49.548"/>
<path style="fill:#FF8087;" d="M170.667,200.776l-22.811-17.966c-3.823-3.007-9.403-2.076-12.043,2.01l-14.35,22.322l34.753,26.151
	L170.667,200.776z"/>
<path style="fill:#E6646E;" d="M112.253,199.364c-4.209-2.789-9.914-1.181-12.047,3.395l-10.829,23.234
	c-2.131,4.571,0.297,9.966,5.13,11.404l51.557,15.163l11.011-23.57L112.253,199.364z"/>
<path style="fill:#F7D291;" d="M256,144.518c-91.216,0-123.871,130.402-123.871,148.645c0,18.243,55.459,33.032,123.871,33.032
	s123.871-14.789,123.871-33.032C379.871,274.92,347.216,144.518,256,144.518z"/>
<path style="fill:#F0C382;" d="M274.198,146.394c-5.797-1.184-11.84-1.876-18.198-1.876c-91.216,0-123.871,130.402-123.871,148.645
	c0,12.714,26.975,23.734,66.462,29.256C198.791,291.261,213.924,164.012,274.198,146.394z"/>
<path style="fill:#FF8087;" d="M256,284.905c-54.638,0-100.92-9.445-117.38-22.538c-4.459,14.728-6.491,26.249-6.491,30.796
	c0,18.243,55.459,33.032,123.871,33.032s123.871-14.789,123.871-33.032c0-4.547-2.032-16.068-6.491-30.796
	C356.921,275.46,310.639,284.905,256,284.905z"/>
<path style="fill:#E6646E;" d="M378.308,281.638C369.266,297.507,318.033,309.68,256,309.68c-13.965,0-27.371-0.622-39.875-1.762
	c-9.291-0.847-16.019-9.262-14.808-18.513c0.329-2.514,0.693-5.108,1.093-7.774c-29.881-3.843-53.122-10.776-63.79-19.262l0,0
	c-4.459,14.728-6.491,26.248-6.491,30.796c0,18.243,55.459,33.032,123.871,33.032s123.871-14.789,123.871-33.032
	C379.871,290.898,379.365,286.897,378.308,281.638z"/>
<g>
</g>
<g>
</g>
<g>
</g>
<g>
</g>
<g>
</g>
<g>
</g>
<g>
</g>
<g>
</g>
<g>
</g>
<g>
</g>
<g>
</g>
<g>
</g>
<g>
</g>
<g>
</g>
<g>
</g>
</svg>
