<?xml version="1.0" encoding="iso-8859-1"?>
<!-- Generator: Adobe Illustrator 19.0.0, SVG Export Plug-In . SVG Version: 6.00 Build 0)  -->
<svg version="1.1" id="Capa_1" xmlns="http://www.w3.org/2000/svg" xmlns:xlink="http://www.w3.org/1999/xlink" x="0px" y="0px"
	 viewBox="0 0 512 512" style="enable-background:new 0 0 512 512;" xml:space="preserve">
<path style="fill:#D4F582;" d="M379.874,350.965L66.305,67.26c4.828,203.491,117.451,366.284,255.763,366.284
	c72.69,0,138.251-45.031,184.85-117.228L379.874,350.965z"/>
<path style="fill:#BEE86E;" d="M360.088,417.028c-117.559,0-215.633-128.764-239.179-300.364L66.305,67.26
	c4.828,203.491,117.451,366.284,255.763,366.284c33.311,0,65.091-9.552,94.27-26.746
	C398.272,413.411,379.459,417.028,360.088,417.028z"/>
<polygon style="fill:#D29B6E;" points="222.766,202.323 62.473,424.953 115.621,407.663 245.63,227.096 "/>
<path style="fill:#E3AA75;" d="M511.47,313.794c-2.286-8.83-11.31-14.109-20.129-11.855L12.384,425.808
	c-8.83,2.286-14.137,11.294-11.855,20.129c1.927,7.443,8.633,12.383,15.98,12.383c1.371,0,2.762-0.173,4.149-0.528l478.958-123.868
	C508.446,331.637,513.753,322.629,511.47,313.794z"/>
<polygon style="fill:#D29B6E;" points="364.545,334.732 329.072,343.906 358.523,370.412 398.526,360.067 "/>
<path style="fill:#F5B97D;" d="M498.269,429.522L85.375,57.916c-6.774-6.089-17.209-5.556-23.326,1.23
	c-6.101,6.778-5.552,17.221,1.23,23.326l412.895,371.605c3.157,2.839,7.105,4.238,11.044,4.238c4.516,0,9.02-1.843,12.282-5.468
	C505.6,446.07,505.051,435.626,498.269,429.522z"/>
<g>
</g>
<g>
</g>
<g>
</g>
<g>
</g>
<g>
</g>
<g>
</g>
<g>
</g>
<g>
</g>
<g>
</g>
<g>
</g>
<g>
</g>
<g>
</g>
<g>
</g>
<g>
</g>
<g>
</g>
</svg>
