<?xml version="1.0" encoding="iso-8859-1"?>
<!-- Generator: Adobe Illustrator 19.0.0, SVG Export Plug-In . SVG Version: 6.00 Build 0)  -->
<svg version="1.1" id="Capa_1" xmlns="http://www.w3.org/2000/svg" xmlns:xlink="http://www.w3.org/1999/xlink" x="0px" y="0px"
	 viewBox="0 0 512.002 512.002" style="enable-background:new 0 0 512.002 512.002;" xml:space="preserve">
<path style="fill:#CD916E;" d="M239.48,247.773c-29.564,0.891-55.191,20.707-57.604,47.053c-1.055,11.521,2.175,22.315,8.422,31.276
	c8.146,11.684,5.755,26.461-5.076,36.271c-17.508,15.858-28.317,37.559-28.317,61.541c0,48.647,44.365,88.084,99.1,88.086
	c54.728-0.002,99.093-39.439,99.093-88.086c0-23.982-10.81-45.684-28.317-61.541c-10.831-9.81-13.222-24.587-5.076-36.271
	c6.247-8.96,9.477-19.755,8.422-31.276c-2.413-26.346-28.04-46.162-57.604-47.053"/>
<rect x="239.481" y="338.58" style="fill:#E3AA75;" width="33.03" height="90.84"/>
<path style="fill:#B67F5F;" d="M181.678,423.914c0-16.061,7.165-31.396,20.174-43.178c20.151-18.252,23.839-47.188,8.768-68.802
	c-3.186-4.571-4.557-9.566-4.073-14.847c1.184-12.93,16.11-23.886,33.35-24.538h16.104v-24.774H239.48
	c-29.564,0.891-55.192,20.707-57.604,47.053c-1.055,11.521,2.174,22.316,8.421,31.276c8.146,11.683,5.756,26.461-5.076,36.271
	c-17.508,15.857-28.317,37.558-28.317,61.541c0,48.647,44.365,88.084,99.1,88.086c2.675,0,5.324-0.095,7.944-0.281
	c15.491-1.098,14.23-24.494-1.299-24.494h-6.647C215.02,487.223,181.678,458.821,181.678,423.914z"/>
<rect x="239.481" y="66.06" style="fill:#6F6571;" width="33.03" height="272.52"/>
<circle style="fill:#4B3F4E;" cx="256.001" cy="338.58" r="24.774"/>
<path style="fill:#6F6571;" d="M280.775,445.935h-49.548c-4.561,0-8.258-3.697-8.258-8.258v-8.258c0-4.561,3.697-8.258,8.258-8.258
	h49.548c4.561,0,8.258,3.697,8.258,8.258v8.258C289.033,442.238,285.336,445.935,280.775,445.935z"/>
<path style="fill:#CD916E;" d="M272.517,66.065l7.098-56.782C280.231,4.353,276.388,0,271.421,0h-30.84
	c-4.967,0-8.81,4.353-8.194,9.282l7.098,56.782"/>
<rect x="239.481" y="66.06" style="fill:#E3AA75;" width="33.03" height="16.516"/>
<g>
</g>
<g>
</g>
<g>
</g>
<g>
</g>
<g>
</g>
<g>
</g>
<g>
</g>
<g>
</g>
<g>
</g>
<g>
</g>
<g>
</g>
<g>
</g>
<g>
</g>
<g>
</g>
<g>
</g>
</svg>
