<?xml version="1.0" encoding="iso-8859-1"?>
<!-- Generator: Adobe Illustrator 19.0.0, SVG Export Plug-In . SVG Version: 6.00 Build 0)  -->
<svg version="1.1" id="Capa_1" xmlns="http://www.w3.org/2000/svg" xmlns:xlink="http://www.w3.org/1999/xlink" x="0px" y="0px"
	 viewBox="0 0 512 512" style="enable-background:new 0 0 512 512;" xml:space="preserve">
<rect x="231.62" y="381.97" style="fill:#C9C6CA;" width="48.762" height="89.4"/>
<path style="fill:#B7B2B8;" d="M231.619,381.968v89.397H256v-57.056c0-4.423,3.54-7.944,7.959-8.12
	c5.53-0.221,11.003-0.664,16.422-1.29v-22.931H231.619z"/>
<path style="fill:#DBD9DC;" d="M357.566,206.851c-24.948-5.398-55.195-8.334-76.161-9.949l-0.073-5.365
	c20.823-4.846,49.294-16.563,64.593-45.157c16.721-29.301,5.82-76.796-21.577-89.852c-27.013-12.011-48.559,10.871-56.545,36.953
	c-5.208,24.064-8.123,53.061-9.773,73.901l-5.845,1.06c-5.025-20.696-16.84-48.331-44.854-63.319
	c-29.3-16.723-76.795-5.819-89.852,21.577c-12.008,27.013,10.87,48.559,36.953,56.545c24.53,5.307,54.184,8.234,75.102,9.867
	l0.819,5.521c-20.794,4.89-49.058,16.632-64.28,45.083c-16.723,29.3-5.823,76.795,21.577,89.852
	c27.014,12.011,48.56-10.871,56.545-36.953c5.421-25.055,8.359-55.453,9.971-76.429l5.15-0.649
	c4.724,20.891,16.368,49.93,45.351,65.436c29.301,16.723,76.796,5.819,89.852-21.577
	C406.534,236.386,383.65,214.837,357.566,206.851z"/>
<g>
	<path style="fill:#C9C6CA;" d="M357.566,206.851c-24.948-5.398-55.195-8.334-76.161-9.949l-0.026-1.915
		c-0.333,0.009-0.666,0.061-0.999,0.061l-2.579-13.37c17.134-12.786,38.522-34.933,41.077-67.261
		c2.193-20.578-7.905-43.225-23.023-57.915c-13.186,6.303-23.166,21.02-28.053,36.979c-5.208,24.064-8.123,53.061-9.773,73.901
		l-2.143,0.388c0.03,0.975,0.113,1.882,0.113,2.896l-14.158,1.535c-12.899-16.947-34.8-37.529-66.473-40.032
		c-20.578-2.194-43.225,7.904-57.915,23.022c6.302,13.186,21.019,23.166,36.979,28.053c24.53,5.307,54.184,8.234,75.102,9.867
		l0.382,2.572c0.567-0.198,1.134-0.446,1.702-0.635l2.322,13.563c-17.09,12.814-38.278,34.901-40.82,67.068
		c-2.194,20.578,7.903,43.226,23.022,57.916c13.187-6.302,23.168-21.021,28.054-36.98c5.421-25.055,8.359-55.453,9.971-76.429
		l1.865-0.235c-0.002-0.174-0.032-0.348-0.032-0.522l12.855-3.274c12.701,17.246,35.008,39.183,67.777,41.773
		c20.579,2.193,43.226-7.905,57.915-23.024C388.244,221.718,373.526,211.738,357.566,206.851z"/>
	<path style="fill:#C9C6CA;" d="M256,390.095c-107.548,0-195.048-87.5-195.048-195.048S148.452,0,256,0
		s195.048,87.5,195.048,195.048S363.548,390.095,256,390.095z M256,16.254c-98.587,0-178.794,80.206-178.794,178.794
		S157.413,373.841,256,373.841s178.794-80.206,178.794-178.794S354.587,16.254,256,16.254z"/>
</g>
<path style="fill:#DBD9DC;" d="M337.27,512H174.73c-4.488,0-8.127-3.639-8.127-8.127v-11.69c0-7.458,5.076-13.96,12.312-15.769
	l52.703-13.176h48.763l52.704,13.176c7.236,1.809,12.312,8.31,12.312,15.769v11.69C345.397,508.361,341.758,512,337.27,512z"/>
<circle style="fill:#EDEBED;" cx="256" cy="195.05" r="28.444"/>
<circle style="fill:#DBD9DC;" cx="256" cy="195.05" r="16.254"/>
<path style="fill:#C9C6CA;" d="M337.27,495.746H174.73c-3.947,0-7.083-2.871-7.819-6.602c-0.188,0.99-0.308,2.001-0.308,3.038v11.69
	c0,4.488,3.638,8.127,8.127,8.127h162.54c4.489,0,8.127-3.639,8.127-8.127v-11.69c0-1.037-0.12-2.048-0.308-3.038
	C344.353,492.875,341.217,495.746,337.27,495.746z"/>
<g>
</g>
<g>
</g>
<g>
</g>
<g>
</g>
<g>
</g>
<g>
</g>
<g>
</g>
<g>
</g>
<g>
</g>
<g>
</g>
<g>
</g>
<g>
</g>
<g>
</g>
<g>
</g>
<g>
</g>
</svg>
