<?xml version="1.0" encoding="iso-8859-1"?>
<!-- Generator: Adobe Illustrator 19.0.0, SVG Export Plug-In . SVG Version: 6.00 Build 0)  -->
<svg version="1.1" id="Capa_1" xmlns="http://www.w3.org/2000/svg" xmlns:xlink="http://www.w3.org/1999/xlink" x="0px" y="0px"
	 viewBox="0 0 512 512" style="enable-background:new 0 0 512 512;" xml:space="preserve">
<g>
	<rect x="206.45" y="24.774" style="fill:#5D5360;" width="16.516" height="156.9"/>
	<rect x="289.03" y="24.774" style="fill:#5D5360;" width="16.516" height="156.9"/>
	<path style="fill:#5D5360;" d="M148.645,470.71v33.032c0,4.56,3.697,8.258,8.258,8.258h16.516c4.561,0,8.258-3.698,8.258-8.258
		V470.71H148.645z"/>
	<path style="fill:#5D5360;" d="M330.323,470.71v33.032c0,4.56,3.697,8.258,8.258,8.258h16.516c4.561,0,8.258-3.698,8.258-8.258
		V470.71H330.323z"/>
</g>
<path style="fill:#FF8087;" d="M346.839,478.968H165.161c-18.243,0-33.032-14.789-33.032-33.032V206.452
	c0-18.243,14.789-33.032,33.032-33.032h181.677c18.243,0,33.032,14.789,33.032,33.032v239.484
	C379.871,464.179,365.082,478.968,346.839,478.968z"/>
<path style="fill:#FFA0A5;" d="M338.581,445.935H173.419c-4.561,0-8.258-3.697-8.258-8.258V214.71c0-4.561,3.697-8.258,8.258-8.258
	h165.161c4.561,0,8.258,3.697,8.258,8.258v222.968C346.839,442.238,343.141,445.935,338.581,445.935z"/>
<path style="fill:#FF8087;" d="M297.29,388.129h-82.58c-9.122,0-16.516-7.395-16.516-16.516v-33.032h115.613v33.032
	C313.806,380.734,306.412,388.129,297.29,388.129z"/>
<path style="fill:#6F6571;" d="M313.806,346.839H198.194c-4.565,0-8.258-3.694-8.258-8.258s3.694-8.258,8.258-8.258h115.613
	c4.565,0,8.258,3.694,8.258,8.258S318.371,346.839,313.806,346.839z"/>
<path style="fill:#DBD9DC;" d="M222.968,363.355c-4.565,0-8.258-3.694-8.258-8.258v-16.516c0-4.565,3.694-8.258,8.258-8.258
	s8.258,3.694,8.258,8.258v16.516C231.226,359.661,227.532,363.355,222.968,363.355z"/>
<g>
	<path style="fill:#6F6571;" d="M165.161,503.742V512h8.258c4.561,0,8.258-3.697,8.258-8.258v-8.258h-8.258
		C168.859,495.484,165.161,499.181,165.161,503.742z"/>
	<path style="fill:#6F6571;" d="M346.839,503.742V512h8.258c4.561,0,8.258-3.697,8.258-8.258v-8.258h-8.258
		C350.536,495.484,346.839,499.181,346.839,503.742z"/>
</g>
<path style="fill:#E6646E;" d="M173.419,462.452c-13.682,0-24.774-11.092-24.774-24.774V178.001
	c-9.832,5.722-16.516,16.256-16.516,28.451v239.484c0,18.243,14.789,33.032,33.032,33.032h181.677
	c12.196,0,22.729-6.684,28.451-16.516L173.419,462.452L173.419,462.452z"/>
<rect x="132.13" y="272.52" style="fill:#6F6571;" width="247.74" height="33.03"/>
<rect x="132.13" y="272.52" style="fill:#5D5360;" width="16.516" height="33.03"/>
<g>
	<rect x="206.45" y="24.774" style="fill:#4B3F4E;" width="16.516" height="24.774"/>
	<rect x="289.03" y="24.774" style="fill:#4B3F4E;" width="16.516" height="24.774"/>
</g>
<path style="fill:#6F6571;" d="M305.548,33.032h-99.097c-4.561,0-8.258-3.697-8.258-8.258V8.258c0-4.561,3.697-8.258,8.258-8.258
	h99.097c4.561,0,8.258,3.697,8.258,8.258v16.516C313.806,29.335,310.109,33.032,305.548,33.032z"/>
<path style="fill:#5D5360;" d="M305.548,16.516h-99.097c-4.561,0-8.258-3.698-8.258-8.258v16.516c0,4.56,3.697,8.258,8.258,8.258
	h99.097c4.561,0,8.258-3.698,8.258-8.258V8.258C313.806,12.819,310.109,16.516,305.548,16.516z"/>
<g>
</g>
<g>
</g>
<g>
</g>
<g>
</g>
<g>
</g>
<g>
</g>
<g>
</g>
<g>
</g>
<g>
</g>
<g>
</g>
<g>
</g>
<g>
</g>
<g>
</g>
<g>
</g>
<g>
</g>
</svg>
