<?xml version="1.0" encoding="iso-8859-1"?>
<!-- Generator: Adobe Illustrator 19.0.0, SVG Export Plug-In . SVG Version: 6.00 Build 0)  -->
<svg version="1.1" id="Capa_1" xmlns="http://www.w3.org/2000/svg" xmlns:xlink="http://www.w3.org/1999/xlink" x="0px" y="0px"
	 viewBox="0 0 512 512" style="enable-background:new 0 0 512 512;" xml:space="preserve">
<path style="fill:#A5CDFF;" d="M256,28v56l41.689-20.845c5.896-2.948,5.896-11.363,0-14.311L256,28z"/>
<path style="fill:#CD916E;" d="M256,28c-4.422,0-8,3.578-8,8v80h16V36C264,31.578,260.422,28,256,28z"/>
<path style="fill:#FFE1A0;" d="M313.852,185.885c-1.06-7.949-7.841-13.885-15.86-13.885h-83.983c-8.019,0-14.8,5.937-15.86,13.885
	L184,292v40h144v-40L313.852,185.885z"/>
<path style="fill:#F7D291;" d="M214.008,172c-8.019,0-14.8,5.937-15.86,13.885L184,292v40h34.186l19.962-146.115
	c1.06-7.949,7.841-13.885,15.86-13.885H214.008z"/>
<path style="fill:#F0C382;" d="M336,316v-16c0-4.418-3.582-8-8-8h-16c-4.418,0-8,3.582-8,8v16c0,4.418-3.582,8-8,8h-16
	c-4.418,0-8-3.582-8-8v-16c0-4.418-3.582-8-8-8h-16c-4.418,0-8,3.582-8,8v16c0,4.418-3.582,8-8,8h-16c-4.418,0-8-3.582-8-8v-16
	c0-4.418-3.582-8-8-8h-16c-4.418,0-8,3.582-8,8v16c0,4.418-3.582,8-8,8h-8v152h192V324h-8C339.582,324,336,320.418,336,316z"/>
<path style="fill:#A5CDFF;" d="M408,140v56l41.689-20.845c5.896-2.948,5.896-11.363,0-14.311L408,140z"/>
<path style="fill:#CD916E;" d="M408,140c-4.422,0-8,3.578-8,8v80h16v-80C416,143.578,412.422,140,408,140z"/>
<path style="fill:#FFE1A0;" d="M473.323,314.551C472.574,306.31,465.664,300,457.389,300h-98.777
	c-8.275,0-15.185,6.31-15.934,14.551L328,476h160L473.323,314.551z"/>
<path style="fill:#F7D291;" d="M398.611,300h-40c-8.275,0-15.185,6.31-15.934,14.551L328,476h40l14.677-161.449
	C383.426,306.31,390.336,300,398.611,300z"/>
<path style="fill:#FFE1A0;" d="M448.102,234.265c-0.885-8.117-7.741-14.265-15.906-14.265h-48.392
	c-8.165,0-15.021,6.148-15.906,14.265L360.727,300h94.546L448.102,234.265z"/>
<circle style="fill:#F5B97D;" cx="408" cy="356" r="16"/>
<path style="fill:#F7D291;" d="M453.527,284H409.84c-9.523,0-16.938-8.268-15.906-17.735L398.982,220h-15.178
	c-8.165,0-15.02,6.148-15.906,14.265L360.727,300h94.546L453.527,284z"/>
<path style="fill:#A5CDFF;" d="M104,140v56l41.689-20.845c5.896-2.948,5.896-11.363,0-14.311L104,140z"/>
<path style="fill:#CD916E;" d="M104,140c-4.422,0-8,3.578-8,8v80h16v-80C112,143.578,108.422,140,104,140z"/>
<path style="fill:#FFE1A0;" d="M169.323,314.551C168.574,306.31,161.664,300,153.389,300H54.611c-8.275,0-15.185,6.31-15.934,14.551
	L24,476h160L169.323,314.551z"/>
<path style="fill:#F7D291;" d="M94.611,300h-40c-8.275,0-15.185,6.31-15.934,14.551L24,476h40l14.677-161.449
	C79.426,306.31,86.336,300,94.611,300z"/>
<g>
	<path style="fill:#FFE1A0;" d="M144.102,234.265c-0.885-8.117-7.741-14.265-15.906-14.265H79.804
		c-8.165,0-15.021,6.148-15.906,14.265L56.727,300h94.546L144.102,234.265z"/>
	<path style="fill:#FFE1A0;" d="M289.752,122.015c-1.001-8.007-7.807-14.015-15.876-14.015h-35.751
		c-8.069,0-14.875,6.008-15.876,14.015L216,172h80L289.752,122.015z"/>
</g>
<path style="fill:#D29B6E;" d="M256,380c-17.673,0-32,14.327-32,32v64h64v-64C288,394.327,273.673,380,256,380z"/>
<g>
	<circle style="fill:#F5B97D;" cx="104" cy="356" r="16"/>
	<circle style="fill:#F5B97D;" cx="256" cy="228" r="16"/>
</g>
<path style="fill:#F0C382;" d="M504,484H8c-4.422,0-8-3.578-8-8s3.578-8,8-8h496c4.422,0,8,3.578,8,8S508.422,484,504,484z"/>
<g>
	<path style="fill:#F7D291;" d="M149.527,284H105.84c-9.523,0-16.938-8.268-15.906-17.735L94.982,220H79.804
		c-8.165,0-15.02,6.148-15.906,14.265L56.727,300h94.546L149.527,284z"/>
	<path style="fill:#F7D291;" d="M246.248,138.015L250,108h-11.876c-8.069,0-14.875,6.008-15.876,14.015L216,172h80l-2-16h-31.875
		C252.501,156,245.054,147.565,246.248,138.015z"/>
</g>
<path style="fill:#CD916E;" d="M256,380c-17.673,0-32,14.327-32,32v24c0-17.673,14.327-32,32-32s32,14.327,32,32v-24
	C288,394.327,273.673,380,256,380z"/>
<g>
</g>
<g>
</g>
<g>
</g>
<g>
</g>
<g>
</g>
<g>
</g>
<g>
</g>
<g>
</g>
<g>
</g>
<g>
</g>
<g>
</g>
<g>
</g>
<g>
</g>
<g>
</g>
<g>
</g>
</svg>
