<?xml version="1.0" encoding="iso-8859-1"?>
<!-- Generator: Adobe Illustrator 19.0.0, SVG Export Plug-In . SVG Version: 6.00 Build 0)  -->
<svg version="1.1" id="Capa_1" xmlns="http://www.w3.org/2000/svg" xmlns:xlink="http://www.w3.org/1999/xlink" x="0px" y="0px"
	 viewBox="0 0 512 512" style="enable-background:new 0 0 512 512;" xml:space="preserve">
<path style="fill:#C9C6CA;" d="M353.522,154.413v-16.254h-32.508v-32.508h24.381V89.397h-24.381V40.635h-48.762V8.127h-16.254
	v32.508h-32.508V8.127h-16.254v32.508h-48.762v48.762h-24.381v16.254h24.381v32.508h-32.508v16.254h32.508v32.508h-24.381v16.254
	h24.381v48.762h48.762v32.508h16.254v-32.508h32.508v32.508h16.254v-32.508h48.762v-48.762h24.381v-16.254h-24.381v-32.508H353.522z
	 M304.76,138.159h-32.508v-32.508h32.508V138.159z M223.491,138.159v-32.508h32.508v32.508H223.491z M255.999,154.413v32.508
	h-32.508v-32.508H255.999z M304.76,56.889v32.508h-32.508V56.889H304.76z M255.999,56.889v32.508h-32.508V56.889H255.999z
	 M174.729,56.889h32.508v32.508h-32.508V56.889z M174.729,105.651h32.508v32.508h-32.508V105.651z M174.729,154.413h32.508v32.508
	h-32.508V154.413z M174.729,235.683v-32.508h32.508v32.508H174.729z M223.491,235.683v-32.508h32.508v32.508H223.491z
	 M304.76,235.683h-32.508v-32.508h32.508V235.683z M304.76,186.921h-32.508v-32.508h32.508V186.921z"/>
<g>
	<path style="fill:#B7B2B8;" d="M150.348,146.286c0-2.744,0.172-5.432,0.322-8.127h-24.703v16.254h24.703
		C150.52,151.718,150.348,149.029,150.348,146.286z"/>
	<path style="fill:#B7B2B8;" d="M174.729,68.357V56.889h9.833c6.681-6.689,14.113-12.186,22.133-16.254h-48.22v48.762h-24.381
		v16.254h22.229C160.529,91.679,166.812,79.053,174.729,68.357z"/>
	<path style="fill:#B7B2B8;" d="M223.491,34.477V8.127h-16.254v32.255C212.439,37.793,217.867,35.794,223.491,34.477z"/>
	<path style="fill:#B7B2B8;" d="M272.253,40.382V8.127h-16.254v26.35C261.624,35.794,267.049,37.793,272.253,40.382z"/>
	<path style="fill:#B7B2B8;" d="M272.794,40.635c8.02,4.068,15.453,9.564,22.133,16.254h9.833v11.468
		c7.917,10.696,14.2,23.321,18.406,37.294h22.229V89.397h-24.381V40.635H272.794z"/>
	<path style="fill:#B7B2B8;" d="M328.819,138.159c0.15,2.695,0.322,5.383,0.322,8.127s-0.172,5.432-0.322,8.127h24.703v-16.254
		H328.819z"/>
	<path style="fill:#B7B2B8;" d="M304.76,224.214v11.468h-9.833c-6.681,6.689-14.113,12.186-22.133,16.254h48.22v-48.762h24.381
		V186.92h-22.229C318.961,200.893,312.677,213.518,304.76,224.214z"/>
	<path style="fill:#B7B2B8;" d="M255.999,258.094v26.35h16.254v-32.255C267.049,254.779,261.624,256.777,255.999,258.094z"/>
	<path style="fill:#B7B2B8;" d="M206.695,251.937c-8.02-4.068-15.453-9.564-22.133-16.254h-9.833v-11.468
		c-7.917-10.696-14.2-23.321-18.406-37.294h-22.229v16.254h24.381v48.762L206.695,251.937L206.695,251.937z"/>
	<path style="fill:#B7B2B8;" d="M207.237,252.189v32.255h16.254v-26.35C217.867,256.777,212.439,254.779,207.237,252.189z"/>
</g>
<g>
	<path style="fill:#739BD7;" d="M353.522,138.159c-4.492,0-8.127,3.635-8.127,8.127c0,55.008-24.889,88.508-51.246,123.976
		c-21.849,29.421-44.452,60.929-50.27,103.579h-0.071v16.254h16.254v-0.081c0-15.637,2.284-31.304,7.913-45.893
		c9.115-23.621,23.86-43.488,39.222-64.161c26.77-36.032,54.452-73.294,54.452-133.675
		C361.65,141.794,358.014,138.159,353.522,138.159z"/>
	<path style="fill:#739BD7;" d="M185.34,270.262c-26.357-35.468-51.246-68.968-51.246-123.976c0-4.492-3.635-8.127-8.127-8.127
		c-4.492,0-8.127,3.635-8.127,8.127c0,60.381,27.683,97.643,54.452,133.675c15.362,20.673,30.107,40.54,39.222,64.161
		c5.629,14.589,7.913,30.256,7.913,45.893v0.081h16.254v-16.254h-0.071C229.793,331.19,207.189,299.683,185.34,270.262z"/>
</g>
<path style="fill:#867E88;" d="M251.936,512h-24.381c-4.488,0-8.127-3.639-8.127-8.127V381.968c0-4.488,3.639-8.127,8.127-8.127
	h24.381c4.488,0,8.127,3.639,8.127,8.127v121.905C260.063,508.361,256.423,512,251.936,512z"/>
<path style="fill:#6F6571;" d="M239.745,503.873V381.968c0-4.489,3.638-8.127,8.127-8.127h-20.317c-4.489,0-8.127,3.638-8.127,8.127
	v121.905c0,4.488,3.638,8.127,8.127,8.127h20.317C243.383,512,239.745,508.361,239.745,503.873z"/>
<path style="fill:#A5CDFF;" d="M251.936,373.841h-24.381c-4.489,0-8.127,3.638-8.127,8.127v24.381h40.635v-24.381
	C260.063,377.48,256.423,373.841,251.936,373.841z"/>
<g>
	<path style="fill:#8CB4EB;" d="M247.872,373.841h-20.317c-4.489,0-8.127,3.638-8.127,8.127v24.381h20.317v-24.381
		C239.745,377.48,243.383,373.841,247.872,373.841z"/>
	<path style="fill:#8CB4EB;" d="M239.745,292.571c-67.222,0-121.905-65.627-121.905-146.286S172.523,0,239.745,0
		S361.65,65.627,361.65,146.286S306.966,292.571,239.745,292.571z M239.745,16.254c-58.254,0-105.651,58.333-105.651,130.032
		s47.397,130.032,105.651,130.032s105.651-58.333,105.651-130.032S297.999,16.254,239.745,16.254z"/>
</g>
<path style="fill:#739BD7;" d="M299.533,18.942c-3.822,3.805-7.116,8.118-9.902,12.773c29.455,19.506,50.491,55.729,54.843,98.27
	c0.311,0.004,0.611,0.047,0.923,0.047c5.25,0,10.328-0.69,15.217-1.865C355.754,81.28,332.389,41.247,299.533,18.942z"/>
<circle style="fill:#D4F582;" cx="345.398" cy="65.02" r="48.762"/>
<path style="fill:#BEE86E;" d="M369.777,89.397c-26.931,0-48.762-21.831-48.762-48.762c0-7.151,1.577-13.921,4.342-20.039
	c-16.924,7.649-28.723,24.64-28.723,44.42c0,26.931,21.831,48.762,48.762,48.762c19.78,0,36.771-11.799,44.42-28.723
	C383.697,87.82,376.927,89.397,369.777,89.397z"/>
<g>
</g>
<g>
</g>
<g>
</g>
<g>
</g>
<g>
</g>
<g>
</g>
<g>
</g>
<g>
</g>
<g>
</g>
<g>
</g>
<g>
</g>
<g>
</g>
<g>
</g>
<g>
</g>
<g>
</g>
</svg>
