<?xml version="1.0" encoding="iso-8859-1"?>
<!-- Generator: Adobe Illustrator 19.0.0, SVG Export Plug-In . SVG Version: 6.00 Build 0)  -->
<svg version="1.1" id="Capa_1" xmlns="http://www.w3.org/2000/svg" xmlns:xlink="http://www.w3.org/1999/xlink" x="0px" y="0px"
	 viewBox="0 0 512 512" style="enable-background:new 0 0 512 512;" xml:space="preserve">
<path style="fill:#FFE17D;" d="M153.333,22.643l50.159,229.294h16.633l-50.92-232.762C166.786,8.063,156.77,0,145.397,0H85.333
	c-4.492,0-8.127,3.635-8.127,8.127s3.635,8.127,8.127,8.127h60.063C149.19,16.254,152.524,18.937,153.333,22.643z"/>
<polygon style="fill:#FFD164;" points="203.493,251.937 220.126,251.937 213.014,219.429 196.381,219.429 "/>
<path style="fill:#B67F5F;" d="M440.391,249.751c-1.111-8.063-8.014-14.068-16.153-14.068H87.762
	c-8.139,0-15.042,6.005-16.153,14.068c-1.651,11.985-2.53,24.282-2.53,36.832C69.079,411.077,152.766,512,256,512
	s186.921-100.923,186.921-225.417C442.921,274.033,442.042,261.736,440.391,249.751z"/>
<path style="fill:#A06E50;" d="M288.508,479.492c-95.318,0-173.192-107.878-178.485-243.81H87.762
	c-8.139,0-15.042,6.005-16.153,14.068c-1.651,11.985-2.53,24.282-2.53,36.832C69.079,411.077,152.766,512,256,512
	c69.123,0,129.436-45.281,161.778-112.554C385.222,448.736,339.363,479.492,288.508,479.492z"/>
<path style="fill:#BEE86E;" d="M270.053,269.545c-13.509,12.164-24.617,30.03-27.956,44.914c-0.914,4.075,2.322,7.848,6.498,7.9
	c14.605,0.182,35.968-5.521,49.394-12.687V278.18L270.053,269.545z"/>
<g>
	<path style="fill:#D4F582;" d="M329.053,312.2c-7.755,12.457-17.414,22.055-27.506,27.772c-2.96,1.677-6.656,0.337-7.853-2.847
		c-5.28-14.04-5.843-32.6-0.667-51.94l29.513-21.566L329.053,312.2z"/>
	<path style="fill:#D4F582;" d="M400.856,196.085L400.856,196.085c14.019-23.44,15.889-49.803,7.713-70.351
		c-0.909-2.285-3.389-3.664-5.81-3.232c-20.992,3.747-41.653,18.281-54.334,41.073c-0.459,0.824-0.902,1.652-1.332,2.482
		l2.366,50.832L400.856,196.085z"/>
</g>
<g>
	<path style="fill:#A06E50;" d="M345.389,447.968c-1.222,0-2.468-0.278-3.635-0.865c-4.016-2.008-5.635-6.897-3.619-10.905
		c13.556-27.04,23.278-60.214,28.095-95.952c0.603-4.444,4.563-7.556,9.143-6.968c4.444,0.603,7.563,4.69,6.968,9.143
		c-5.064,37.492-15.325,72.444-29.683,101.064C351.238,446.325,348.365,447.968,345.389,447.968z"/>
	<path style="fill:#A06E50;" d="M162.286,438.873c-3.103,0-6.063-1.778-7.421-4.794c-11.984-26.627-20.698-58.317-25.206-91.651
		c-0.595-4.444,2.516-8.54,6.968-9.143c4.46-0.603,8.532,2.524,9.143,6.968c4.294,31.794,12.563,61.937,23.921,87.159
		c1.841,4.087,0.016,8.905-4.079,10.746C164.532,438.643,163.397,438.873,162.286,438.873z"/>
	<path style="fill:#A06E50;" d="M182.333,390.095c-3.897,0-7.341-2.81-8.008-6.778c-3.524-20.952-5.881-43.151-6.984-65.968
		c-0.214-4.484,3.246-8.294,7.722-8.516c4.341-0.294,8.294,3.238,8.516,7.722c1.071,22.19,3.349,43.738,6.778,64.064
		c0.746,4.429-2.238,8.619-6.667,9.365C183.238,390.056,182.778,390.095,182.333,390.095z"/>
	<path style="fill:#A06E50;" d="M174.73,292.571c-0.008,0-0.024,0-0.032,0c-4.492-0.016-8.111-3.675-8.095-8.159
		c0.024-5.54,0.111-11.032,0.27-16.46c0.135-4.405,3.746-7.889,8.119-7.889c0.087,0,0.167,0,0.246,0
		c4.492,0.135,8.016,3.881,7.889,8.365c-0.159,5.302-0.246,10.651-0.27,16.048C182.841,288.952,179.206,292.571,174.73,292.571z"/>
</g>
<path style="fill:#FF8087;" d="M399.237,243.012c-4.606-2.659-13.019-5.528-21.92-7.33c8.901-1.802,17.313-4.671,21.92-7.33
	c11.662-6.733,15.657-21.644,8.924-33.305c-6.732-11.661-21.643-15.657-33.305-8.924c-4.606,2.659-11.297,8.51-17.308,15.317
	c2.89-8.609,4.612-17.329,4.612-22.647c0-13.465-10.916-24.381-24.381-24.381s-24.381,10.916-24.381,24.381
	c0,5.318,1.722,14.038,4.612,22.647c-6.011-6.807-12.702-12.658-17.308-15.317c-11.661-6.733-26.572-2.737-33.305,8.924
	s-2.737,26.572,8.924,33.305c4.606,2.659,13.018,5.528,21.919,7.33c-8.901,1.802-17.313,4.671-21.919,7.33
	c-11.661,6.733-15.657,21.644-8.924,33.305c6.733,11.661,21.644,15.657,33.305,8.924c4.606-2.659,11.297-8.51,17.308-15.318
	c-2.89,8.61-4.612,17.33-4.612,22.648c0,13.465,10.916,24.381,24.381,24.381s24.381-10.916,24.381-24.381
	c0-5.318-1.722-14.038-4.612-22.648c6.011,6.808,12.701,12.659,17.308,15.318c11.662,6.733,26.572,2.737,33.305-8.924
	C414.894,264.656,410.899,249.745,399.237,243.012z"/>
<circle style="fill:#E6646E;" cx="337.78" cy="235.68" r="32.508"/>
<circle style="fill:#FFE17D;" cx="337.78" cy="235.68" r="16.254"/>
<path style="fill:#8C5A46;" d="M162.286,438.873c1.111,0,2.246-0.23,3.325-0.714c4.095-1.841,5.921-6.659,4.079-10.746
	c-3.928-8.723-7.335-18.2-10.488-27.965c-11.631-17.621-21.544-37.622-29.385-59.436c-0.134,0.789-0.271,1.583-0.159,2.417
	c4.508,33.333,13.222,65.024,25.206,91.651C156.222,437.095,159.183,438.873,162.286,438.873z"/>
<g>
</g>
<g>
</g>
<g>
</g>
<g>
</g>
<g>
</g>
<g>
</g>
<g>
</g>
<g>
</g>
<g>
</g>
<g>
</g>
<g>
</g>
<g>
</g>
<g>
</g>
<g>
</g>
<g>
</g>
</svg>
