<?xml version="1.0" encoding="iso-8859-1"?>
<!-- Generator: Adobe Illustrator 19.0.0, SVG Export Plug-In . SVG Version: 6.00 Build 0)  -->
<svg version="1.1" id="Capa_1" xmlns="http://www.w3.org/2000/svg" xmlns:xlink="http://www.w3.org/1999/xlink" x="0px" y="0px"
	 viewBox="0 0 512.001 512.001" style="enable-background:new 0 0 512.001 512.001;" xml:space="preserve">
<path style="fill:#9C969E;" d="M256.001,98.362c-27.12,0-49.181-22.061-49.181-49.181S228.881,0,256.001,0
	s49.181,22.061,49.181,49.181S283.121,98.362,256.001,98.362z M256.001,16.394c-18.083,0-32.787,14.709-32.787,32.787
	s14.704,32.787,32.787,32.787s32.787-14.709,32.787-32.787S274.084,16.394,256.001,16.394z"/>
<path style="fill:#C9C6CA;" d="M404.474,303.283h15.464c0,0-23.075,59.982-86.528,89.939c-21.131,9.976-45.663-4.738-46.801-28.078
	l-10.215-209.403l-40.784-0.004l-10.215,209.407c-1.139,23.34-25.67,38.054-46.801,28.078
	c-63.454-29.957-86.529-89.939-86.529-89.939h15.464c3.536,0,5.413-4.178,3.063-6.821l-52.35-58.893
	c-2.504-2.817-7.162-1.046-7.162,2.723v85.825c0,3.935,5.006,5.609,7.373,2.465l10.051-13.354
	c32.569,122.598,130.755,138.114,181.575,194.17c3.147,3.471,8.696,3.471,11.843,0c50.82-56.056,149.006-71.572,181.575-194.17
	l10.051,13.354c2.366,3.144,7.373,1.47,7.373-2.465v-85.825c0-3.769-4.658-5.54-7.162-2.723l-52.35,58.893
	C399.061,299.105,400.937,303.283,404.474,303.283z"/>
<path style="fill:#B7B2B8;" d="M458.467,236.602c-9.389,37.879-33.617,111.093-88.566,161.681
	c-63.775,58.714-164.026,58.714-227.8,0c-54.95-50.588-79.177-123.802-88.566-161.681c-1.372,0.611-2.454,1.899-2.454,3.689v85.825
	c0,3.935,5.006,5.609,7.373,2.465l10.051-13.353c32.569,122.598,130.755,138.114,181.575,194.17
	c1.573,1.736,3.747,2.603,5.921,2.603s4.348-0.867,5.922-2.603c50.82-56.056,149.006-71.572,181.575-194.17l10.051,13.353
	c2.366,3.144,7.373,1.47,7.373-2.464v-85.825C460.922,238.501,459.839,237.213,458.467,236.602z"/>
<path style="fill:#C9C6CA;" d="M273.194,90.146c-0.448-9.169-8.012-16.374-17.193-16.374c-9.181,0-16.745,7.205-17.193,16.374
	l-1.6,32.811l37.586-0.005L273.194,90.146z"/>
<g>
	<path style="fill:#B7B2B8;" d="M329.773,114.756c-4.527,0-8.197,3.67-8.197,8.197h-131.15c0-4.527-3.67-8.197-8.197-8.197
		c-4.527,0-8.197,3.67-8.197,8.197v24.59c0,4.527,3.67,8.197,8.197,8.197h147.543c4.527,0,8.197-3.67,8.197-8.197v-24.59
		C337.969,118.425,334.3,114.756,329.773,114.756z"/>
	<polygon style="fill:#B7B2B8;" points="277.192,172.134 276.393,155.741 235.609,155.737 234.809,172.134 	"/>
</g>
<path style="fill:#9C969E;" d="M329.773,139.346H182.229c-4.527,0-8.197-3.67-8.197-8.197v16.394c0,4.527,3.67,8.197,8.197,8.197
	h147.543c4.527,0,8.197-3.67,8.197-8.197v-16.394C337.969,135.676,334.3,139.346,329.773,139.346z"/>
<path style="fill:#B7B2B8;" d="M256.001,382.497V155.739l-20.392-0.002l-10.215,209.407c-1.139,23.34-25.67,38.053-46.801,28.078
	c18.245,8.737,36.367,12.376,50.485,13.774C243.527,408.427,256.001,397.016,256.001,382.497z"/>
<polygon style="fill:#9C969E;" points="256.001,172.134 256.001,155.739 235.609,155.737 234.809,172.134 "/>
<path style="fill:#B7B2B8;" d="M256.001,73.772c-9.18,0-16.745,7.205-17.193,16.374l-1.6,32.811l18.793-0.003V73.772z"/>
<g>
</g>
<g>
</g>
<g>
</g>
<g>
</g>
<g>
</g>
<g>
</g>
<g>
</g>
<g>
</g>
<g>
</g>
<g>
</g>
<g>
</g>
<g>
</g>
<g>
</g>
<g>
</g>
<g>
</g>
</svg>
