<?xml version="1.0" encoding="iso-8859-1"?>
<!-- Generator: Adobe Illustrator 19.0.0, SVG Export Plug-In . SVG Version: 6.00 Build 0)  -->
<svg version="1.1" id="Capa_1" xmlns="http://www.w3.org/2000/svg" xmlns:xlink="http://www.w3.org/1999/xlink" x="0px" y="0px"
	 viewBox="0 0 512 512" style="enable-background:new 0 0 512 512;" xml:space="preserve">
<path style="fill:#FFD164;" d="M414.476,235.683c-4.492,0-8.127-3.635-8.127-8.127v-73.143c0-76.183-61.976-138.159-138.159-138.159
	S130.032,78.23,130.032,154.413v73.143c0,4.492-3.635,8.127-8.127,8.127s-8.127-3.635-8.127-8.127v-73.143
	C113.778,69.27,183.048,0,268.19,0s154.413,69.27,154.413,154.413v73.143C422.603,232.048,418.968,235.683,414.476,235.683z"/>
<path style="fill:#F7D291;" d="M279.664,144.278c-7.171-3.824-15.776-3.824-22.946,0l-110.432,58.897h243.81L279.664,144.278z"/>
<path style="fill:#F0C382;" d="M278.791,143.942c-6.995-3.389-15.182-3.34-22.073,0.335l-110.432,58.897h73.143l58.897-58.897
	C278.474,144.129,278.639,144.08,278.791,143.942z"/>
<path style="fill:#FF8087;" d="M406.349,243.81H130.032l23.037,253.408c0.761,8.372,7.78,14.782,16.187,14.782h197.869
	c8.407,0,15.426-6.41,16.187-14.782L406.349,243.81z"/>
<path style="fill:#E6646E;" d="M406.349,243.81H130.032l23.037,253.408C153.83,505.59,160.85,512,169.257,512h197.868
	c8.406,0,15.425-6.409,16.187-14.78l0.134-1.474H272.791c-21.017,0-38.565-16.026-40.468-36.956l-17.26-189.864
	c-0.433-4.759,3.315-8.863,8.094-8.863h181.715L406.349,243.81z"/>
<path style="fill:#FF8087;" d="M406.349,203.175H130.032c-4.488,0-8.127,3.639-8.127,8.127v24.381c0,4.488,3.639,8.127,8.127,8.127
	h276.317c4.488,0,8.127-3.639,8.127-8.127v-24.381C414.476,206.813,410.838,203.175,406.349,203.175z"/>
<path style="fill:#EDEBED;" d="M89.397,406.349v46.377c0,31.15,24.003,58.313,55.139,59.248
	c32.218,0.967,58.639-24.862,58.639-56.862V406.35c0-4.488-3.639-8.127-8.127-8.127H97.524
	C93.035,398.222,89.397,401.86,89.397,406.349z"/>
<path style="fill:#DBD9DC;" d="M146.286,446.984L146.286,446.984c-8.977,0-16.254-7.277-16.254-16.254v-81.27h32.508v81.27
	C162.54,439.707,155.263,446.984,146.286,446.984z"/>
<path style="fill:#FFE17D;" d="M178.794,130.032c0-8.977-7.277-16.254-16.254-16.254h-32.508c-8.977,0-16.254,7.277-16.254,16.254
	s7.277,16.254,16.254,16.254l0,0V349.46h32.508V146.286l0,0C171.516,146.286,178.794,139.008,178.794,130.032z"/>
<rect x="130.03" y="146.29" style="fill:#FFD164;" width="32.508" height="16.254"/>
<g>
</g>
<g>
</g>
<g>
</g>
<g>
</g>
<g>
</g>
<g>
</g>
<g>
</g>
<g>
</g>
<g>
</g>
<g>
</g>
<g>
</g>
<g>
</g>
<g>
</g>
<g>
</g>
<g>
</g>
</svg>
