<?xml version="1.0" encoding="iso-8859-1"?>
<!-- Generator: Adobe Illustrator 19.0.0, SVG Export Plug-In . SVG Version: 6.00 Build 0)  -->
<svg version="1.1" id="Capa_1" xmlns="http://www.w3.org/2000/svg" xmlns:xlink="http://www.w3.org/1999/xlink" x="0px" y="0px"
	 viewBox="0 0 512 512" style="enable-background:new 0 0 512 512;" xml:space="preserve">
<path style="fill:#D4F582;" d="M252.482,2.093c-5.548,10.022-16.483,32.844-24.111,68.467l26.937,27.905l28.581-26.691
	c-7.652-36.384-18.797-59.629-24.399-69.735C257.963-0.715,254.008-0.662,252.482,2.093z"/>
<path style="fill:#BEE86E;" d="M270.416,118.57l-11.439,11.439l-46.449-20.105c-11.41-28.414-32.063-43.478-45.274-50.587
	c-3.046-1.639-1.789-6.232,1.671-6.226C194.195,53.136,247.108,60.558,270.416,118.57z"/>
<path style="fill:#AFD755;" d="M240.402,117.53l11.439,11.439l46.449-20.105c11.41-28.414,32.063-43.478,45.274-50.587
	c3.046-1.639,1.789-6.232-1.671-6.226C316.624,52.096,263.711,59.519,240.402,117.53z"/>
<path style="fill:#BEE86E;" d="M357.083,111.277c-28.605-8.267-83.389-15.578-123.773,30.622l48.665,44.264
	c17.219-44.732,52.693-59.994,74.882-65.201C361.841,119.793,362.001,112.699,357.083,111.277z"/>
<path style="fill:#AFD755;" d="M150.615,120.963c22.189,5.207,57.663,20.469,74.882,65.201l76.26,2.773
	c-38.081-97.028-115.415-88.05-151.367-77.659C145.471,112.699,145.631,119.793,150.615,120.963z"/>
<path style="fill:#CD916E;" d="M389.109,345.616C389.109,463.511,329.514,512,256.001,512s-133.107-48.489-133.107-166.384
	s59.594-166.385,133.107-166.385S389.109,227.72,389.109,345.616z"/>
<g>
	<path style="fill:#B67F5F;" d="M297.597,470.404c-73.513,0-133.108-48.489-133.108-166.384c0-46.401,9.332-81.901,25.01-108.075
		c-39.777,22.964-66.607,70.669-66.607,149.671C122.894,463.511,182.488,512,256.001,512c44.58,0,83.94-17.981,108.097-58.309
		C344.516,464.996,321.848,470.404,297.597,470.404z"/>
	<path style="fill:#B67F5F;" d="M386.746,383.269c0.835-6.554,1.432-13.398,1.809-20.508l-43.822,26.393l-36.047-21.625v-43.825
		l36.071-21.641l43.787,26.066c-0.384-7.091-0.987-13.917-1.827-20.455l-33.656-20.035v-43.714l11.026-6.401
		c-2.944-4.914-6.127-9.468-9.507-13.722l-9.765,5.671l-36.128-21.674v-18.74c-5.364-2.202-10.937-3.942-16.638-5.388V207.8
		l-36.048,21.631l-36.047-21.633v-24.129c-5.701,1.446-11.275,3.186-16.638,5.388v18.74l-35.982,21.585l-9.606-5.965
		c-3.391,4.232-6.578,8.775-9.535,13.665l10.749,6.675v43.902l-33.675,20.207c-0.837,6.549-1.436,13.389-1.815,20.493l43.81-26.29
		l36.055,21.633v43.822l-36.069,21.642l-43.79-26.099c0.383,7.093,0.986,13.921,1.825,20.461l33.659,20.06v43.781l-10.925,6.497
		c2.948,4.904,6.131,9.453,9.515,13.698l9.714-5.775l36.072,21.641v18.74c5.364,2.202,10.937,3.942,16.638,5.388v-24.129
		l36.045-21.629l36.047,21.633v24.129c5.701-1.446,11.275-3.186,16.638-5.388v-18.74l36.104-21.658l9.745,5.711
		c3.381-4.249,6.563-8.802,9.508-13.711l-10.982-6.44V403.56L386.746,383.269z M264.32,243.841l36.047-21.633l36.055,21.633v43.817
		l-36.055,21.633l-36.047-21.633V243.841z M175.579,287.659v-43.817l36.055-21.633l36.047,21.633v43.818l-36.047,21.633
		L175.579,287.659z M247.682,447.39l-36.047,21.633L175.58,447.39v-43.818l36.052-21.633l36.05,21.633L247.682,447.39
		L247.682,447.39z M219.954,367.529v-43.826l36.047-21.633l36.047,21.633v43.826l-36.047,21.633L219.954,367.529z M336.423,447.389
		l-36.055,21.633l-36.047-21.633v-43.818l36.047-21.633l36.055,21.633V447.389z"/>
</g>
<g>
	<path style="fill:#A06E50;" d="M123.45,328.359l1.691-1.015c-0.319-2.426-0.713-4.769-0.957-7.278
		C123.958,322.853,123.603,325.484,123.45,328.359z"/>
	<path style="fill:#A06E50;" d="M386.887,327.142l1.657,0.987c-0.152-2.806-0.502-5.372-0.723-8.093
		C387.584,322.485,387.196,324.77,386.887,327.142z"/>
	<path style="fill:#A06E50;" d="M354.535,467.487c3.381-4.249,6.563-8.802,9.508-13.711l-0.051-0.03
		c-5.863,3.377-12.029,6.164-18.403,8.497L354.535,467.487z"/>
	<path style="fill:#A06E50;" d="M308.687,502.174v-18.74l32.97-19.778c-13.787,4.525-28.595,6.748-44.06,6.748
		c-11.696,0-22.979-1.378-33.787-3.917l28.238,16.946v24.129C297.749,506.116,303.323,504.376,308.687,502.174z"/>
	<path style="fill:#A06E50;" d="M176.701,223.763l-9.368,5.619l-9.606-5.965c-3.391,4.232-6.578,8.775-9.535,13.665l10.749,6.675
		v43.902l-33.675,20.207c-0.837,6.549-1.436,13.389-1.815,20.493l41.047-24.632C164.525,272.144,168.959,245.726,176.701,223.763z"
		/>
	<path style="fill:#A06E50;" d="M234.11,455.535l-22.475,13.488L175.58,447.39v-43.818l7.145-4.288
		c-2.306-4.93-4.422-10.121-6.32-15.612l-9.158,5.495l-43.79-26.099c0.383,7.093,0.986,13.921,1.825,20.461l33.659,20.06v43.781
		l-10.925,6.497c2.948,4.904,6.131,9.453,9.515,13.698l9.714-5.775l36.072,21.641v18.74c5.364,2.202,10.937,3.942,16.638,5.388
		V483.43l33.214-19.932C246.583,461.338,240.172,458.787,234.11,455.535z"/>
</g>
<g>
</g>
<g>
</g>
<g>
</g>
<g>
</g>
<g>
</g>
<g>
</g>
<g>
</g>
<g>
</g>
<g>
</g>
<g>
</g>
<g>
</g>
<g>
</g>
<g>
</g>
<g>
</g>
<g>
</g>
</svg>
