<?xml version="1.0" encoding="iso-8859-1"?>
<!-- Generator: Adobe Illustrator 19.0.0, SVG Export Plug-In . SVG Version: 6.00 Build 0)  -->
<svg version="1.1" id="Capa_1" xmlns="http://www.w3.org/2000/svg" xmlns:xlink="http://www.w3.org/1999/xlink" x="0px" y="0px"
	 viewBox="0 0 512.001 512.001" style="enable-background:new 0 0 512.001 512.001;" xml:space="preserve">
<g>
	<path style="fill:#F7D291;" d="M214.719,454.194c-2.766,0-5.468-1.387-7.032-3.911C203.26,443.13,99.179,273.912,90.864,165.799
		c-0.347-4.548,3.056-8.524,7.597-8.871c4.669-0.379,8.524,3.056,8.871,7.597c8.008,104.153,113.339,275.347,114.403,277.065
		c2.395,3.879,1.202,8.968-2.677,11.371C217.703,453.798,216.203,454.194,214.719,454.194z"/>
	<path style="fill:#F7D291;" d="M297.283,454.194c2.766,0,5.468-1.387,7.032-3.911c4.427-7.153,108.508-176.371,116.823-284.484
		c0.347-4.548-3.056-8.524-7.597-8.871c-4.669-0.379-8.524,3.056-8.871,7.597c-8.008,104.153-113.339,275.347-114.403,277.065
		c-2.395,3.879-1.202,8.968,2.677,11.371C294.299,453.798,295.799,454.194,297.283,454.194z"/>
</g>
<path style="fill:#D4F582;" d="M245.723,0.312c-80.61,4.881-145.808,69.8-154.113,150.13
	c-9.334,90.28,68.281,140.529,120.711,225.502c1.494,2.421,4.118,3.927,6.962,3.927h73.435c2.845,0,5.469-1.506,6.963-3.927
	c49.511-80.243,121.481-129.519,121.481-210.783C421.162,70.542,341.597-5.493,245.723,0.312z"/>
<path style="fill:#BEE86E;" d="M420.557,151.606c-9.593-6.74-26.036-11.219-44.814-11.219c-18.61,0-35.008,4.371-44.638,11.01
	c-3.118,2.15-6.768,3.369-10.373,3.369c-2.743,0-5.461-0.706-7.898-2.244c-11.516-7.266-32.658-12.135-56.833-12.135
	s-45.317,4.869-56.833,12.135c-2.438,1.538-5.155,2.244-7.898,2.244c-3.606,0-7.255-1.219-10.373-3.369
	c-5.827-4.017-14.158-7.183-23.931-9.073c0.052-4.991,0.25-10.059,0.709-15.268c4.055-46.041,21.739-87.693,48.09-119.012
	C144.421,28.091,98.487,83.925,91.609,150.441c-9.334,90.282,68.284,140.53,120.714,225.506c1.493,2.42,4.116,3.923,6.96,3.923
	h52.601c-40.539-72.131-92.542-123.545-109.398-190.731c-2.186-8.712,6.179-16.446,14.582-13.274
	c5.397,2.037,10.731,3.675,14.202,3.675c7.526,0,14.829-2.098,21.118-6.066c6.346-4.004,22.701-8.314,43.613-8.314
	s37.267,4.309,43.612,8.313c6.289,3.968,13.592,6.066,21.118,6.066c8.636,0,17.085-2.679,24.436-7.747
	c3.573-2.463,14.033-6.632,30.575-6.632c17.876,0,28.944,4.911,31.195,7.095c3.722,4.061,8.13,7.473,13.001,10.204
	c0.733-5.627,1.224-11.355,1.224-17.299C421.162,160.592,420.921,156.082,420.557,151.606z"/>
<path style="fill:#FF8087;" d="M256.275,0.035c-0.16-0.001-0.319-0.009-0.479-0.009c-36.391,0.279-65.86,74.092-65.86,165.136
	c0,47.186,16.637,147.579,28.79,214.637c0.189,0.013,0.366,0.073,0.557,0.073h73.436c0.191,0,0.368-0.06,0.557-0.073
	c12.153-67.057,28.79-167.45,28.79-214.637C322.066,74.176,292.634,0.408,256.275,0.035z"/>
<g>
	<path style="fill:#E6646E;" d="M218.726,379.798c0.189,0.013,0.366,0.073,0.557,0.073h52.601
		c-22.877-40.705-49.414-74.806-71.228-108.868C206.189,308.613,212.955,347.954,218.726,379.798z"/>
	<path style="fill:#E6646E;" d="M321.852,154.583c-0.377,0.026-0.744,0.183-1.12,0.183c-2.743,0-5.461-0.706-7.898-2.244
		c-11.516-7.266-32.658-12.135-56.833-12.135s-45.317,4.869-56.833,12.135c-2.438,1.538-5.155,2.244-7.898,2.244
		c-0.376,0-0.744-0.157-1.12-0.183c-0.089,3.515-0.213,7.008-0.213,10.579c0,4.305,0.181,9.184,0.442,14.31
		c0.299,0.007,0.592,0.069,0.892,0.069c7.526,0,14.829-2.098,21.118-6.066c6.346-4.004,22.701-8.314,43.613-8.314
		s37.267,4.309,43.612,8.313c6.289,3.968,13.592,6.066,21.118,6.066c0.299,0,0.593-0.062,0.892-0.069
		c0.261-5.126,0.442-10.005,0.442-14.31C322.066,161.59,321.942,158.097,321.852,154.583z"/>
</g>
<path style="fill:#F7D291;" d="M419.411,141.323c-11.033-5.741-26.288-9.194-43.668-9.194c-23.911,0-43.839,6.508-54.21,16.565
	c-26.468-21.855-104.597-21.855-131.065,0c-10.371-10.056-30.298-16.565-54.21-16.565c-17.174,0-32.262,3.38-43.263,8.999
	c-0.497,3.095-1.061,6.169-1.387,9.314c-0.516,4.987-0.723,9.833-0.727,14.588c0.229-6.573,18.244-16.384,45.377-16.384
	c27.306,0,45.419,9.944,45.419,16.516c0,74.282,39.758,273.927,41.452,282.395c0.782,3.927,4.234,6.637,8.089,6.637
	c0.532,0,1.081-0.048,1.629-0.161c4.468-0.895,7.371-5.242,6.476-9.718c-0.411-2.056-41.129-206.492-41.129-279.153
	c0-4.79,20.258-16.516,57.806-16.516s57.806,11.726,57.806,16.516c0,72.653-40.718,277.097-41.129,279.153
	c-0.895,4.476,2.008,8.823,6.476,9.718c0.548,0.113,1.097,0.161,1.629,0.161c3.855,0,7.306-2.71,8.089-6.637
	c1.694-8.468,41.452-208.113,41.452-282.395c0-6.573,18.113-16.516,45.419-16.516s45.419,9.944,45.419,16.516
	C421.162,157.061,420.537,149.111,419.411,141.323z"/>
<path style="fill:#F5B97D;" d="M289.033,512h-66.065c-9.122,0-16.516-7.395-16.516-16.516V450.89c0-2.736,2.218-4.955,4.955-4.955
	h89.187c2.736,0,4.955,2.218,4.955,4.955v44.594C305.549,504.605,298.155,512,289.033,512z"/>
<path style="fill:#E3AA75;" d="M231.227,470.71v-24.774h-19.82c-2.736,0-4.955,2.218-4.955,4.955v44.594
	c0,9.122,7.395,16.516,16.516,16.516h66.065c9.121,0,16.516-7.395,16.516-16.516h-49.548
	C242.319,495.484,231.227,484.392,231.227,470.71z"/>
<g>
</g>
<g>
</g>
<g>
</g>
<g>
</g>
<g>
</g>
<g>
</g>
<g>
</g>
<g>
</g>
<g>
</g>
<g>
</g>
<g>
</g>
<g>
</g>
<g>
</g>
<g>
</g>
<g>
</g>
</svg>
