<?xml version="1.0" encoding="iso-8859-1"?>
<!-- Generator: Adobe Illustrator 19.0.0, SVG Export Plug-In . SVG Version: 6.00 Build 0)  -->
<svg version="1.1" id="Capa_1" xmlns="http://www.w3.org/2000/svg" xmlns:xlink="http://www.w3.org/1999/xlink" x="0px" y="0px"
	 viewBox="0 0 512 512" style="enable-background:new 0 0 512 512;" xml:space="preserve">
<rect x="136.13" y="56.889" style="fill:#5D5360;" width="24.381" height="284.44"/>
<path style="fill:#F7D291;" d="M160.508,512h-24.381c-4.488,0-8.127-3.639-8.127-8.127v-162.54c0-4.488,3.639-8.127,8.127-8.127
	h24.381c4.488,0,8.127,3.639,8.127,8.127v162.54C168.635,508.361,164.996,512,160.508,512z"/>
<path style="fill:#F0C382;" d="M148.317,503.873v-162.54c0-4.489,3.638-8.127,8.127-8.127h-20.317c-4.489,0-8.127,3.638-8.127,8.127
	v162.54c0,4.488,3.638,8.127,8.127,8.127h20.317C151.956,512,148.317,508.361,148.317,503.873z"/>
<path style="fill:#B7B2B8;" d="M335.238,186.921v195.048c0,13.444-10.937,24.381-24.381,24.381
	c-13.444,0-24.381-10.937-24.381-24.381V73.143C286.476,32.813,253.667,0,213.333,0c-33.389,0-62.516,22.56-70.841,54.861
	l15.746,4.056c6.468-25.119,29.127-42.663,55.095-42.663c31.365,0,56.889,25.52,56.889,56.889v308.825
	c0,22.405,18.23,40.635,40.635,40.635c22.405,0,40.635-18.23,40.635-40.635V186.921H335.238z"/>
<path style="fill:#6F6571;" d="M359.619,113.778c-13.444,0-24.381,10.937-24.381,24.381v48.762h16.254v-48.762
	c0-4.48,3.643-8.127,8.127-8.127s8.127,3.647,8.127,8.127v8.127c0,4.488,3.635,8.127,8.127,8.127s8.127-3.639,8.127-8.127v-8.127
	C384,124.714,373.064,113.778,359.619,113.778z"/>
<path style="fill:#867E88;" d="M128,341.333v24.381h40.635v-24.381c0-4.489-3.638-8.127-8.127-8.127h-24.381
	C131.638,333.206,128,336.845,128,341.333z"/>
<path style="fill:#6F6571;" d="M156.444,333.206h-20.317c-4.489,0-8.127,3.638-8.127,8.127v24.381h20.317v-24.381
	C148.317,336.845,151.956,333.206,156.444,333.206z"/>
<g>
	<path style="fill:#F0C382;" d="M164.571,195.048H140.19c-4.488,0-8.127-3.639-8.127-8.127l0,0c0-4.488,3.639-8.127,8.127-8.127
		h24.381c4.488,0,8.127,3.639,8.127,8.127l0,0C172.698,191.409,169.06,195.048,164.571,195.048z"/>
	<path style="fill:#F0C382;" d="M164.571,113.778H140.19c-4.488,0-8.127-3.639-8.127-8.127l0,0c0-4.488,3.639-8.127,8.127-8.127
		h24.381c4.488,0,8.127,3.639,8.127,8.127l0,0C172.698,110.139,169.06,113.778,164.571,113.778z"/>
	<path style="fill:#F0C382;" d="M164.571,65.016H140.19c-4.488,0-8.127-3.639-8.127-8.127l0,0c0-4.488,3.639-8.127,8.127-8.127
		h24.381c4.488,0,8.127,3.639,8.127,8.127l0,0C172.698,61.377,169.06,65.016,164.571,65.016z"/>
	<circle style="fill:#F0C382;" cx="343.37" cy="186.92" r="16.254"/>
	<circle style="fill:#F0C382;" cx="197.08" cy="316.95" r="40.635"/>
</g>
<circle style="fill:#F7D291;" cx="197.08" cy="316.95" r="24.381"/>
<circle style="fill:#B7B2B8;" cx="197.08" cy="316.95" r="8.127"/>
<circle style="fill:#867E88;" cx="179.3" cy="299.18" r="8.127"/>
<g>
</g>
<g>
</g>
<g>
</g>
<g>
</g>
<g>
</g>
<g>
</g>
<g>
</g>
<g>
</g>
<g>
</g>
<g>
</g>
<g>
</g>
<g>
</g>
<g>
</g>
<g>
</g>
<g>
</g>
</svg>
