<?xml version="1.0" encoding="iso-8859-1"?>
<!-- Generator: Adobe Illustrator 19.0.0, SVG Export Plug-In . SVG Version: 6.00 Build 0)  -->
<svg version="1.1" id="Capa_1" xmlns="http://www.w3.org/2000/svg" xmlns:xlink="http://www.w3.org/1999/xlink" x="0px" y="0px"
	 viewBox="0 0 512 512" style="enable-background:new 0 0 512 512;" xml:space="preserve">
<path style="fill:#EDEBED;" d="M352.394,312.964c-54.877,0-99.518-44.645-99.518-99.518v-49.759
	c0-54.873,44.64-99.518,99.518-99.518s99.518,44.645,99.518,99.518v49.759C451.912,268.32,407.272,312.964,352.394,312.964z
	 M352.394,97.342c-36.582,0-66.345,29.763-66.345,66.345v49.759c0,36.582,29.763,66.345,66.345,66.345s66.345-29.763,66.345-66.345
	v-49.759C418.74,127.105,388.976,97.342,352.394,97.342z"/>
<path style="fill:#DBD9DC;" d="M352.394,80.756c-45.729,0-82.932,37.203-82.932,82.932v49.759c0,45.728,37.203,82.932,82.932,82.932
	s82.931-37.203,82.931-82.932v-49.759C435.326,117.959,398.123,80.756,352.394,80.756z M418.74,213.447
	c0,36.582-29.763,66.345-66.345,66.345s-66.345-29.763-66.345-66.345v-49.759c0-36.582,29.763-66.345,66.345-66.345
	s66.345,29.763,66.345,66.345V213.447z"/>
<path style="fill:#EDEBED;" d="M302.635,50.698v-13.09c0-8.476-6.391-15.589-14.819-16.492L91.21,0.051
	c-7.466-0.8-12.067,7.942-7.18,13.643l30.13,35.152c3.745,4.37,4.958,10.368,3.204,15.849L79.027,184.5
	C62.413,236.417,56.64,291.193,62.063,345.432L76.48,489.596C77.752,502.315,88.454,512,101.236,512h220.35
	c12.782,0,23.484-9.685,24.756-22.404l14.416-144.164c5.424-54.24-0.35-109.015-16.963-160.932L304.214,60.809
	C303.168,57.54,302.635,54.13,302.635,50.698z"/>
<path style="fill:#DBD9DC;" d="M199.682,72.805c1.646-5.156,6.431-8.635,11.844-8.635h93.763l-1.076-3.361
	c-1.046-3.268-1.578-6.678-1.578-10.11v-3.115h-96.952c-4.842,0-9.442-2.116-12.593-5.792L163.998,7.85L91.21,0.051
	c-7.466-0.8-12.067,7.942-7.18,13.643l30.13,35.152c3.745,4.37,4.958,10.368,3.204,15.85L79.027,184.5
	C62.413,236.416,56.64,291.191,62.063,345.43L76.48,489.596C77.752,502.315,88.454,512,101.236,512h84.978
	c-12.782,0-23.484-9.686-24.756-22.404l-14.416-144.164c-5.424-54.24,0.35-109.016,16.963-160.933
	C164.004,184.498,190.878,100.376,199.682,72.805z"/>
<path style="fill:#FFE17D;" d="M327.998,189.555l-12.745-39.829c-1.456-4.549-6.411-6.869-10.886-5.2
	c-3.849,1.435-8.387,2.575-15.588,2.575c-19.368,0-19.368-8.293-38.736-8.293c-19.355,0-19.355,8.293-38.709,8.293
	c-19.338,0-19.338-8.293-38.676-8.293c-19.335,0-19.335,8.293-38.67,8.293c-7.171,0-11.696-1.134-15.533-2.564
	c-4.477-1.668-9.433,0.649-10.889,5.199l-12.741,39.816C78.903,239.306,73.37,291.8,78.568,343.78l14.416,144.164
	c0.424,4.24,3.991,7.468,8.252,7.468h220.35c4.261,0,7.828-3.229,8.252-7.468l14.416-144.163
	C349.452,291.803,343.919,239.309,327.998,189.555z"/>
<g>
	<path style="fill:#FFD164;" d="M147.041,345.432c-5.424-54.24,0.35-109.015,16.963-160.932l14.518-45.366
		c-1.761-0.191-3.656-0.325-5.864-0.325c-19.335,0-19.335,8.293-38.67,8.293c-7.17,0-11.696-1.134-15.533-2.564
		c-4.477-1.668-9.433,0.649-10.889,5.199l-12.741,39.817C78.902,239.307,73.37,291.801,78.567,343.782l14.416,144.164
		c0.424,4.239,3.992,7.468,8.252,7.468h61.608c-0.659-1.856-1.182-3.778-1.386-5.817L147.041,345.432z"/>
	<circle style="fill:#FFD164;" cx="252.88" cy="254.91" r="49.759"/>
</g>
<circle style="fill:#FFF0BE;" cx="252.88" cy="254.91" r="33.17"/>
<path style="fill:#FFE17D;" d="M264.603,254.912l5.864-5.864c3.24-3.24,3.24-8.488,0-11.727c-3.24-3.24-8.488-3.24-11.727,0
	l-5.864,5.864l-5.864-5.864c-3.24-3.24-8.488-3.24-11.727,0c-3.24,3.24-3.24,8.488,0,11.727l5.864,5.864l-5.864,5.864
	c-3.24,3.24-3.24,8.488,0,11.727c1.62,1.62,3.742,2.43,5.864,2.43s4.244-0.81,5.864-2.43l5.864-5.864l5.864,5.864
	c1.62,1.62,3.742,2.43,5.864,2.43s4.244-0.81,5.864-2.43c3.24-3.24,3.24-8.488,0-11.727L264.603,254.912z"/>
<ellipse transform="matrix(0.4649 -0.8853 0.8853 0.4649 -212.3069 467.1003)" style="fill:#FFD164;" cx="280.286" cy="409.195" rx="49.756" ry="16.585"/>
<ellipse transform="matrix(-0.4326 -0.9016 0.9016 -0.4326 -27.2088 495.071)" style="fill:#FFF0BE;" cx="142.18" cy="256.097" rx="37.26" ry="16.586"/>
<circle style="fill:#FFD164;" cx="169.94" cy="379.31" r="49.759"/>
<circle style="fill:#FFF0BE;" cx="169.94" cy="379.31" r="33.17"/>
<path style="fill:#FFE17D;" d="M178.237,387.602h8.292c4.581,0,8.292-3.711,8.292-8.292s-3.711-8.292-8.292-8.292h-8.292v-8.292
	c0-4.581-3.711-8.292-8.292-8.292s-8.292,3.711-8.292,8.292v8.292h-8.292c-4.581,0-8.292,3.711-8.292,8.292
	c0,2.291,0.928,4.364,2.428,5.864s3.573,2.428,5.864,2.428h8.292v8.292c0,2.291,0.928,4.364,2.428,5.864s3.573,2.428,5.864,2.428
	c4.581,0,8.292-3.711,8.292-8.292V387.602z"/>
<g>
</g>
<g>
</g>
<g>
</g>
<g>
</g>
<g>
</g>
<g>
</g>
<g>
</g>
<g>
</g>
<g>
</g>
<g>
</g>
<g>
</g>
<g>
</g>
<g>
</g>
<g>
</g>
<g>
</g>
</svg>
