<?xml version="1.0" encoding="iso-8859-1"?>
<!-- Generator: Adobe Illustrator 19.0.0, SVG Export Plug-In . SVG Version: 6.00 Build 0)  -->
<svg version="1.1" id="Capa_1" xmlns="http://www.w3.org/2000/svg" xmlns:xlink="http://www.w3.org/1999/xlink" x="0px" y="0px"
	 viewBox="0 0 512 512" style="enable-background:new 0 0 512 512;" xml:space="preserve">
<path style="fill:#EDEBED;" d="M352.343,222.966l-83.682-62.761c-2.859-2.144-6.336-3.303-9.91-3.303h-19.269l29.362,66.064H352.343
	L352.343,222.966z"/>
<g>
	<path style="fill:#BEE86E;" d="M259.152,222.966h18.452l-25.733-51.118c-0.829-1.648,0.368-3.591,2.213-3.591h25.313
		c0,0-11.03-8.182-11.163-8.276c-2.781-1.96-6.072-3.079-9.483-3.079h-19.269c-2.863,0-5.516,1.484-7.024,3.915
		c-1.508,2.435-1.645,5.48-0.363,8.036L259.152,222.966z"/>
	<path style="fill:#BEE86E;" d="M499.66,234.876c-26.07-14.863-88.272-20.169-161.081-20.169H173.111
		c-5.253,0-10.457-1.002-15.334-2.953l-22.224-8.89c-7.616-3.046-15.966-3.756-23.987-2.037l-90.254,19.34
		c-7.615,1.632-13.055,8.361-13.055,16.149v48.075c0,7.579,5.158,14.185,12.51,16.023l53.554,13.389h412.9l7.836-2.611
		c10.116-3.372,16.94-12.839,16.94-23.503L512,256.346C512,247.494,507.351,239.261,499.66,234.876z"/>
</g>
<path style="fill:#AFD755;" d="M505.165,289.03c-4.168,0-8.127-2.054-10.318-5.599c-10.155-16.425-28.176-27.433-48.913-27.433
	c-20.774,0-38.94,10.985-49.12,27.442c-2.191,3.542-6.149,5.59-10.313,5.59l-219.715-0.001c-4.165,0-8.123-2.048-10.314-5.59
	c-10.178-16.457-28.344-27.441-49.117-27.441H53.677c-6.841,0-12.387-5.546-12.387-12.387v-12.387H9.098
	c-0.525,1.615-0.84,3.321-0.84,5.093v48.075c0,1.607,0.278,3.154,0.713,4.638c1.619,5.512,6.004,9.937,11.797,11.385l53.554,13.389
	h412.9l7.836-2.611c9.685-3.229,16.283-12.059,16.834-22.163L505.165,289.03z"/>
<g>
	<circle style="fill:#5D5360;" cx="107.35" cy="313.808" r="41.29"/>
	<circle style="fill:#5D5360;" cx="445.93" cy="313.808" r="41.29"/>
</g>
<g>
	<circle style="fill:#DBD9DC;" cx="107.35" cy="313.808" r="16.516"/>
	<circle style="fill:#DBD9DC;" cx="445.93" cy="313.808" r="16.516"/>
</g>
<path style="fill:#EDEBED;" d="M41.29,289.03H8.258c-4.561,0-8.258-3.697-8.258-8.258l0,0c0-4.561,3.697-8.258,8.258-8.258H41.29
	c4.561,0,8.258,3.697,8.258,8.258l0,0C49.548,285.333,45.851,289.03,41.29,289.03z"/>
<g>
	<path style="fill:#D4F582;" d="M371.612,289.03H181.677c-4.561,0-8.258-3.697-8.258-8.258l0,0c0-4.561,3.697-8.258,8.258-8.258
		h189.935c4.561,0,8.258,3.697,8.258,8.258l0,0C379.87,285.333,376.173,289.03,371.612,289.03z"/>
	<path style="fill:#D4F582;" d="M371.612,231.224c92.499,0,129.745,12.238,138.302,15.632c-2.041-4.938-5.463-9.248-10.254-11.98
		c-26.07-14.863-88.271-20.168-161.081-20.168H173.111c-5.253,0-10.457-1.003-15.334-2.953l-22.224-8.89
		c-7.615-3.046-15.966-3.756-23.986-2.037l-90.254,19.34c-5.882,1.26-10.432,5.575-12.215,11.056
		C56.107,231.224,276.003,231.224,371.612,231.224z"/>
</g>
<path style="fill:#EDEBED;" d="M495.482,247.74c-4.565,0-8.258,3.694-8.258,8.258c0,4.565,3.694,8.258,8.258,8.258h16.516h0.001
	l0.001-7.909c0-3.009-0.712-5.868-1.723-8.606h-14.795V247.74z"/>
<g>
</g>
<g>
</g>
<g>
</g>
<g>
</g>
<g>
</g>
<g>
</g>
<g>
</g>
<g>
</g>
<g>
</g>
<g>
</g>
<g>
</g>
<g>
</g>
<g>
</g>
<g>
</g>
<g>
</g>
</svg>
