<?xml version="1.0" encoding="iso-8859-1"?>
<!-- Generator: Adobe Illustrator 19.0.0, SVG Export Plug-In . SVG Version: 6.00 Build 0)  -->
<svg version="1.1" id="Capa_1" xmlns="http://www.w3.org/2000/svg" xmlns:xlink="http://www.w3.org/1999/xlink" x="0px" y="0px"
	 viewBox="0 0 512 512" style="enable-background:new 0 0 512 512;" xml:space="preserve">
<g>
	<path style="fill:#DBD9DC;" d="M299.188,166.391C293.68,162.27,286.867,160,280,160h-64c-8.82,0-16,7.176-16,16v40h16v-40h16v40h16
		v-40h32c3.438,0,6.844,1.141,9.602,3.195l57.602,43.203l9.594-12.797L299.188,166.391z"/>
	<path style="fill:#DBD9DC;" d="M495.633,208H190.627c-4.244,0-8.313-1.686-11.314-4.687l-5.581-5.581
		c-3.604-3.604-8.709-5.275-13.747-4.5l-83.744,12.884c-8.064,1.24-15.759,4.228-22.548,8.754l-23.174,15.449
		c-7.808,5.205-9.48,15.98-3.619,23.308l45.263,56.579l319.868-2.342c92.135-25.986,108.743-71.381,111.527-90.72
		C504.257,212.305,500.522,208,495.633,208z"/>
</g>
<path style="fill:#FF8087;" d="M23.891,240c-1.074,4.596-0.196,9.619,3.011,13.627l45.263,56.579l319.868-2.342
	c64.879-18.299,92.236-46.193,103.758-67.864L23.891,240L23.891,240z"/>
<path style="fill:#E6646E;" d="M454.795,281.307c-0.257,0.099-0.527,0.201-0.782,0.299c-9.247,3.578-16.525,6.394-32.716,6.394
	s-23.47-2.816-32.685-6.382c-11.677-4.515-24.878-9.618-50.018-9.618c-25.135,0-38.334,5.106-49.979,9.612
	c-9.226,3.573-16.497,6.388-32.669,6.388c-16.188,0-23.46-2.816-32.667-6.381c-11.68-4.515-24.88-9.619-50.012-9.619
	c-18.975,0-31.144,2.911-40.978,6.275c-5.657,1.935-11.891,0.537-16.202-3.606L80,240H23.891c-1.074,4.596-0.196,9.619,3.011,13.627
	l45.263,56.579l319.868-2.342C418.902,300.286,439.257,291.053,454.795,281.307z"/>
<path style="fill:#C4DEFF;" d="M421.295,312c-41.352,0-41.352-16-82.705-16c-41.324,0-41.324,16-82.648,16
	c-41.337,0-41.337-16-82.674-16c-41.323,0-41.323,16-82.645,16C49.312,312,49.312,296,8,296l25.263,24.466
	c15.248,14.767,35.519,23.45,56.745,23.533C90.212,344,90.417,344,90.624,344c41.322,0,41.322-16,82.645-16
	c41.337,0,41.337,16,82.674,16c41.324,0,41.324-16,82.648-16c41.353,0,41.353,16,82.705,16c0.218,0,0.436,0,0.652-0.001
	c21.218-0.087,41.483-8.756,56.734-23.508L504,296C462.648,296,462.648,312,421.295,312z"/>
<path style="fill:#8CB4EB;" d="M421.297,320c-22.172,0-33.391-4.344-44.242-8.539c-9.914-3.836-19.281-7.461-38.461-7.461
	c-19.172,0-28.531,3.625-38.438,7.461c-10.844,4.195-22.055,8.539-44.211,8.539c-22.164,0-33.375-4.344-44.227-8.539
	c-9.914-3.836-19.273-7.461-38.453-7.461c-19.164,0-28.523,3.625-38.43,7.461c-10.843,4.195-22.054,8.539-44.21,8.539
	c-22.148,0-33.359-4.344-44.203-8.539C36.516,307.625,27.164,304,8,304c-4.422,0-8-3.578-8-8s3.578-8,8-8
	c22.148,0,33.359,4.344,44.203,8.539C62.109,300.375,71.461,304,90.625,304s28.523-3.625,38.43-7.461
	c10.844-4.195,22.055-8.539,44.211-8.539c22.164,0,33.383,4.344,44.234,8.539c9.906,3.836,19.274,7.461,38.445,7.461
	c19.164,0,28.523-3.625,38.43-7.461c10.844-4.195,22.062-8.539,44.219-8.539c22.172,0,33.391,4.344,44.242,8.539
	c9.914,3.836,19.281,7.461,38.461,7.461s28.547-3.625,38.461-7.461C470.609,292.344,481.828,288,504,288c4.422,0,8,3.578,8,8
	s-3.578,8-8,8c-19.18,0-28.547,3.625-38.461,7.461C454.688,315.656,443.469,320,421.297,320z"/>
<path style="fill:#A5CDFF;" d="M421.297,352c-22.172,0-33.391-4.344-44.242-8.539c-9.914-3.836-19.281-7.461-38.461-7.461
	c-19.172,0-28.531,3.625-38.438,7.461c-10.844,4.195-22.055,8.539-44.211,8.539c-22.164,0-33.375-4.344-44.227-8.539
	c-9.914-3.836-19.273-7.461-38.453-7.461c-19.164,0-28.523,3.625-38.43,7.461c-10.843,4.195-22.054,8.539-44.21,8.539
	c-22.133,0-33.336-4.336-44.172-8.531c-4.125-1.594-6.188-6.234-4.594-10.359s6.203-6.164,10.328-4.578l0.039,0.016
	C62.133,332.383,71.484,336,90.625,336c19.164,0,28.523-3.625,38.43-7.461c10.844-4.195,22.055-8.539,44.211-8.539
	c22.164,0,33.383,4.344,44.234,8.539c9.906,3.836,19.274,7.461,38.445,7.461c19.164,0,28.523-3.625,38.43-7.461
	c10.844-4.195,22.062-8.539,44.219-8.539c22.172,0,33.391,4.344,44.242,8.539c9.914,3.836,19.281,7.461,38.461,7.461
	c19.188,0,28.547-3.625,38.461-7.461c4.133-1.602,8.758,0.445,10.352,4.57s-0.453,8.758-4.57,10.352
	C454.688,347.656,443.469,352,421.297,352z"/>
<rect x="232" y="176" style="fill:#C9C6CA;" width="16" height="16"/>
<path style="fill:#EDEBED;" d="M495.633,208H190.628c-4.244,0-8.314-1.686-11.314-4.687l-5.58-5.58
	c-3.604-3.604-8.709-5.275-13.747-4.501l-11.335,1.744l14.757,17.59c6.08,7.247,15.055,11.433,24.515,11.433h314.205
	c0.654-2.512,1.143-4.852,1.431-6.855C504.257,212.305,500.522,208,495.633,208z"/>
<g>
</g>
<g>
</g>
<g>
</g>
<g>
</g>
<g>
</g>
<g>
</g>
<g>
</g>
<g>
</g>
<g>
</g>
<g>
</g>
<g>
</g>
<g>
</g>
<g>
</g>
<g>
</g>
<g>
</g>
</svg>
