<?xml version="1.0" encoding="iso-8859-1"?>
<!-- Generator: Adobe Illustrator 19.0.0, SVG Export Plug-In . SVG Version: 6.00 Build 0)  -->
<svg version="1.1" id="Capa_1" xmlns="http://www.w3.org/2000/svg" xmlns:xlink="http://www.w3.org/1999/xlink" x="0px" y="0px"
	 viewBox="0 0 512 512" style="enable-background:new 0 0 512 512;" xml:space="preserve">
<path style="fill:#FFE17D;" d="M307.088,8.459c1.334,38.881-18.107,58.322-18.107,58.322l-9.471-9.471
	c-3.543-3.543-9.29-3.044-12.39,0.892c-24.426,31.012-73.528,41.077-80.683,99.272h210.665
	c-1.152-90.97-51.429-137.909-77.008-155.938C314.534-2.384,306.855,1.66,307.088,8.459z"/>
<path style="fill:#FFFFFF;" d="M319.208,88.339c-21.78,36.953-58.625,31.274-79.695,69.134H354.94
	c-2.859-37.432-20.274-60.702-28.58-69.81C324.355,85.464,320.719,85.775,319.208,88.339z"/>
<rect x="58.122" y="206.94" style="fill:#4B3F4E;" width="98.94" height="16.49"/>
<g>
	<rect x="206.532" y="404.82" style="fill:#6F6571;" width="181.39" height="16.49"/>
	<path style="fill:#6F6571;" d="M140.575,190.453c0,72.856,70.135,131.917,156.651,131.917s156.651-59.061,156.651-131.917
		L140.575,190.453L140.575,190.453z"/>
</g>
<path style="fill:#867E88;" d="M453.877,157.473H140.575c-9.107,0-16.49,7.382-16.49,16.49c0,9.107,7.383,16.49,16.49,16.49h313.303
	c9.106,0,16.49-7.383,16.49-16.49C470.367,164.856,462.984,157.473,453.877,157.473z"/>
<path style="fill:#6F6571;" d="M140.575,190.453h313.303c9.106,0,16.49-7.383,16.49-16.49H124.085
	C124.085,183.07,131.468,190.453,140.575,190.453z"/>
<path style="fill:#5D5360;" d="M224.145,206.942h228.38c0.803-5.414,1.353-10.893,1.353-16.49H140.575
	c0,63.963,54.071,117.265,125.814,129.331c-30.982-19.981-53.142-53.959-58.568-93.77
	C206.453,215.975,214.014,206.942,224.145,206.942z"/>
<g>
	<path style="fill:#867E88;" d="M194.81,487.266c-0.515,0-1.039-0.048-1.562-0.149c-4.477-0.857-7.399-5.181-6.546-9.654
		l36.466-189.63c0.87-4.469,5.193-7.379,9.654-6.538c4.477,0.858,7.399,5.181,6.546,9.654l-36.466,189.63
		C202.137,484.524,198.683,487.266,194.81,487.266z"/>
	<path style="fill:#867E88;" d="M404.4,512c-3.873,0-7.327-2.742-8.092-6.687l-41.224-214.365c-0.853-4.473,2.069-8.796,6.546-9.654
		c4.453-0.87,8.784,2.065,9.654,6.538l41.224,214.365c0.853,4.473-2.069,8.796-6.546,9.654C405.439,511.952,404.916,512,404.4,512z"
		/>
</g>
<circle style="fill:#E3AA75;" cx="58.122" cy="215.19" r="16.49"/>
<circle style="fill:#4B3F4E;" cx="194.162" cy="483.14" r="28.857"/>
<circle style="fill:#6F6571;" cx="194.162" cy="483.14" r="12.367"/>
<g>
</g>
<g>
</g>
<g>
</g>
<g>
</g>
<g>
</g>
<g>
</g>
<g>
</g>
<g>
</g>
<g>
</g>
<g>
</g>
<g>
</g>
<g>
</g>
<g>
</g>
<g>
</g>
<g>
</g>
</svg>
