<?xml version="1.0" encoding="iso-8859-1"?>
<!-- Generator: Adobe Illustrator 19.0.0, SVG Export Plug-In . SVG Version: 6.00 Build 0)  -->
<svg version="1.1" id="Capa_1" xmlns="http://www.w3.org/2000/svg" xmlns:xlink="http://www.w3.org/1999/xlink" x="0px" y="0px"
	 viewBox="0 0 512 512" style="enable-background:new 0 0 512 512;" xml:space="preserve">
<rect x="305.55" y="74.32" style="fill:#FFC350;" width="49.548" height="33.03"/>
<path style="fill:#BEE86E;" d="M379.871,214.71h-33.032V66.065c0-4.561,3.697-8.258,8.258-8.258h16.516
	c4.561,0,8.258,3.697,8.258,8.258V214.71L379.871,214.71z"/>
<path style="fill:#FFE17D;" d="M239.484,165.161H123.871c-41.047,0-74.323-33.275-74.323-74.323l0,0
	c0-41.047,33.275-74.323,74.323-74.323h115.613c41.047,0,74.323,33.275,74.323,74.323l0,0
	C313.806,131.886,280.531,165.161,239.484,165.161z"/>
<path style="fill:#FFD164;" d="M173.419,132.129V16.516h-24.774v105.189c0,5.338-5.028,9.404-10.199,8.083
	c-32.115-8.206-55.865-37.309-55.865-71.981c0-11.999,2.91-23.296,7.96-33.33C65.236,37.212,48.166,63.909,49.637,94.499
	c1.923,40.014,36.643,70.663,76.703,70.663h113.145c25.765,0,48.456-13.118,61.79-33.032H173.419V132.129z"/>
<polygon style="fill:#E6646E;" points="231.226,350.968 189.935,350.968 189.935,334.452 239.484,334.452 "/>
<path style="fill:#FF8087;" d="M452.101,229.501l-39.198-6.533v49.548l39.198-6.533c5.973-0.995,10.351-6.163,10.351-12.218V241.72
	C462.452,235.664,458.074,230.496,452.101,229.501z"/>
<path style="fill:#BEE86E;" d="M57.806,214.71v66.065c0,9.122,7.395,16.516,16.516,16.516h4.779
	c10.373,0,18.178,9.449,16.219,19.635L61.582,492.365C59.624,502.551,67.429,512,77.801,512h71.206
	c11.878,0,22.085-8.431,24.328-20.096l33.561-174.518c2.243-11.665,12.45-20.096,24.328-20.096h165.161
	c9.122,0,16.516-7.395,16.516-16.516V214.71c0-9.122-7.395-16.516-16.516-16.516H74.323
	C65.201,198.194,57.806,205.588,57.806,214.71z"/>
<path style="fill:#FF8087;" d="M234.839,372.569c-3.161,0-6.169-1.819-7.54-4.883c-3.444-7.673-3.081-18.06,0.976-27.786
	c4.048-9.722,11.161-17.294,19.032-20.262c4.266-1.605,9.032,0.548,10.637,4.819c1.613,4.27-0.548,9.032-4.815,10.641
	c-2.718,1.02-6.863,4.556-9.613,11.153c-2.75,6.601-2.339,12.032-1.153,14.677c1.871,4.161,0.008,9.048-4.153,10.915
	C237.113,372.335,235.968,372.569,234.839,372.569z"/>
<path style="fill:#BEE86E;" d="M198.194,198.194h-33.032V8.258c0-4.561,3.697-8.258,8.258-8.258h16.516
	c4.561,0,8.258,3.697,8.258,8.258V198.194z"/>
<path style="fill:#AFD755;" d="M115.613,272.516c-18.243,0-33.032-14.789-33.032-33.032v-41.29h-8.258
	c-9.122,0-16.516,7.395-16.516,16.516v66.065c0,9.122,7.395,16.516,16.516,16.516h4.779c10.372,0,18.178,9.449,16.219,19.635
	l-33.738,175.44C59.624,502.551,67.429,512,77.801,512h33.032c-10.372,0-18.178-9.45-16.219-19.635l33.738-175.44
	c0.02-0.102,0.038-0.204,0.056-0.305c1.896-10.926,10.573-19.33,21.662-19.33h246.317c9.122,0,16.516-7.395,16.516-16.516v-8.258
	L115.613,272.516L115.613,272.516z"/>
<path style="fill:#FFE17D;" d="M160.775,330.323h-68.03L64.159,478.968h71.207c3.959,0,7.361-2.81,8.109-6.699l25.409-132.129
	C169.863,335.047,165.961,330.323,160.775,330.323z"/>
<polygon style="fill:#FFD164;" points="92.744,330.323 64.159,478.968 97.191,478.968 125.777,330.323 "/>
<g>
	<path style="fill:#AFD755;" d="M346.839,198.194h16.516V57.806h-8.258c-4.561,0-8.258,3.697-8.258,8.258V198.194z"/>
	<path style="fill:#AFD755;" d="M181.677,156.903V0h-8.258c-4.561,0-8.258,3.697-8.258,8.258v189.935h33.032v-33.032h-8.258
		C185.375,165.161,181.677,161.464,181.677,156.903z"/>
</g>
<polygon style="fill:#E6646E;" points="429.419,225.72 412.903,222.968 412.903,272.516 429.419,269.763 "/>
<g>
</g>
<g>
</g>
<g>
</g>
<g>
</g>
<g>
</g>
<g>
</g>
<g>
</g>
<g>
</g>
<g>
</g>
<g>
</g>
<g>
</g>
<g>
</g>
<g>
</g>
<g>
</g>
<g>
</g>
</svg>
