<?xml version="1.0" encoding="iso-8859-1"?>
<!-- Generator: Adobe Illustrator 19.0.0, SVG Export Plug-In . SVG Version: 6.00 Build 0)  -->
<svg version="1.1" id="Capa_1" xmlns="http://www.w3.org/2000/svg" xmlns:xlink="http://www.w3.org/1999/xlink" x="0px" y="0px"
	 viewBox="0 0 512 512" style="enable-background:new 0 0 512 512;" xml:space="preserve">
<path style="fill:#A5CDFF;" d="M488,348H24V196c0-4.418,3.582-8,8-8h448c4.418,0,8,3.582,8,8V348z"/>
<path style="fill:#DBD9DC;" d="M216,84c-17.648,0-32,14.355-32,32v216h16V116c0-8.824,7.18-16,16-16s16,7.176,16,16v72h16v-72
	C248,98.355,233.648,84,216,84z"/>
<g>
	<path style="fill:#EDEBED;" d="M200,228c-4.422,0-8,3.582-8,8s3.578,8,8,8h104v-16H200z"/>
	<path style="fill:#EDEBED;" d="M200,276c-4.422,0-8,3.582-8,8s3.578,8,8,8h104v-16H200z"/>
</g>
<path style="fill:#DBD9DC;" d="M328,84c-17.648,0-32,14.355-32,32v216h16V116c0-8.824,7.18-16,16-16s16,7.176,16,16v72h16v-72
	C360,98.355,345.648,84,328,84z"/>
<path style="fill:#C4DEFF;" d="M421.295,340c-41.352,0-41.352-24-82.705-24c-41.324,0-41.324,24-82.648,24
	c-41.337,0-41.337-24-82.674-24c-41.323,0-41.323,24-82.645,24C49.312,340,49.312,316,8,316v40c41.312,0,41.312,24,82.624,24
	c41.322,0,41.322-24,82.645-24c41.337,0,41.337,24,82.674,24c41.324,0,41.324-24,82.648-24c41.353,0,41.353,24,82.705,24
	c41.353,0,41.353-24,82.705-24v-40C462.648,316,462.648,340,421.295,340z"/>
<path style="fill:#DCEBFF;" d="M421.295,380c-41.352,0-41.352-24-82.705-24c-41.324,0-41.324,24-82.648,24
	c-41.337,0-41.337-24-82.674-24c-41.323,0-41.323,24-82.645,24C49.312,380,49.312,356,8,356v40c41.312,0,41.312,24,82.624,24
	c41.322,0,41.322-24,82.645-24c41.337,0,41.337,24,82.674,24c41.324,0,41.324-24,82.648-24c41.353,0,41.353,24,82.705,24
	c41.353,0,41.353-24,82.705-24v-40C462.648,356,462.648,380,421.295,380z"/>
<path style="fill:#A5CDFF;" d="M421.297,388c-22.828,0-34.805-6.949-45.367-13.082C365.836,369.059,357.117,364,338.594,364
	c-18.508,0-27.227,5.059-37.312,10.918C290.727,381.051,278.758,388,255.945,388c-22.82,0-34.789-6.949-45.352-13.082
	C200.5,369.059,191.781,364,173.266,364c-18.508,0-27.219,5.059-37.305,10.918C125.406,381.051,113.438,388,90.625,388
	s-34.773-6.949-45.328-13.082C35.211,369.059,26.5,364,8,364c-4.422,0-8-3.582-8-8s3.578-8,8-8c22.812,0,34.773,6.949,45.328,13.082
	C63.414,366.941,72.125,372,90.625,372c18.508,0,27.219-5.059,37.305-10.918C138.484,354.949,150.453,348,173.266,348
	c22.828,0,34.797,6.949,45.359,13.082C228.719,366.941,237.43,372,255.945,372c18.508,0,27.219-5.059,37.305-10.918
	C303.805,354.949,315.773,348,338.594,348c22.828,0,34.805,6.949,45.367,13.082C394.055,366.941,402.773,372,421.297,372
	s27.242-5.059,37.336-10.918C469.195,354.949,481.172,348,504,348c4.422,0,8,3.582,8,8s-3.578,8-8,8
	c-18.523,0-27.242,5.059-37.336,10.918C456.102,381.051,444.125,388,421.297,388z"/>
<path style="fill:#8CB4EB;" d="M421.297,348c-22.828,0-34.805-6.949-45.367-13.082C365.836,329.059,357.117,324,338.594,324
	c-18.508,0-27.227,5.059-37.312,10.918C290.727,341.051,278.758,348,255.945,348c-22.82,0-34.789-6.949-45.352-13.082
	C200.5,329.059,191.781,324,173.266,324c-18.508,0-27.219,5.059-37.305,10.918C125.406,341.051,113.438,348,90.625,348
	s-34.773-6.949-45.328-13.082C35.211,329.059,26.5,324,8,324c-4.422,0-8-3.582-8-8s3.578-8,8-8c22.812,0,34.773,6.949,45.328,13.082
	C63.414,326.941,72.125,332,90.625,332c18.508,0,27.219-5.059,37.305-10.918C138.484,314.949,150.453,308,173.266,308
	c22.828,0,34.797,6.949,45.359,13.082C228.719,326.941,237.43,332,255.945,332c18.508,0,27.219-5.059,37.305-10.918
	C303.805,314.949,315.773,308,338.594,308c22.828,0,34.805,6.949,45.367,13.082C394.055,326.941,402.773,332,421.297,332
	s27.242-5.059,37.336-10.918C469.195,314.949,481.172,308,504,308c4.422,0,8,3.582,8,8s-3.578,8-8,8
	c-18.523,0-27.242,5.059-37.336,10.918C456.102,341.051,444.125,348,421.297,348z"/>
<path style="fill:#C4DEFF;" d="M421.297,428c-22.828,0-34.805-6.949-45.367-13.082C365.836,409.059,357.117,404,338.594,404
	c-18.508,0-27.227,5.059-37.312,10.918C290.727,421.051,278.758,428,255.945,428c-22.82,0-34.789-6.949-45.352-13.082
	C200.5,409.059,191.781,404,173.266,404c-18.508,0-27.219,5.059-37.305,10.918C125.406,421.051,113.438,428,90.625,428
	s-34.773-6.949-45.328-13.082C35.211,409.059,26.5,404,8,404c-4.422,0-8-3.582-8-8s3.578-8,8-8c22.812,0,34.773,6.949,45.328,13.082
	C63.414,406.941,72.125,412,90.625,412c18.508,0,27.219-5.059,37.305-10.918C138.484,394.949,150.453,388,173.266,388
	c22.828,0,34.797,6.949,45.359,13.082C228.719,406.941,237.43,412,255.945,412c18.508,0,27.219-5.059,37.305-10.918
	C303.805,394.949,315.773,388,338.594,388c22.828,0,34.805,6.949,45.367,13.082C394.055,406.941,402.773,412,421.297,412
	s27.242-5.059,37.336-10.918C469.195,394.949,481.172,388,504,388c4.422,0,8,3.582,8,8s-3.578,8-8,8
	c-18.523,0-27.242,5.059-37.336,10.918C456.102,421.051,444.125,428,421.297,428z"/>
<g>
	<rect x="232" y="172" style="fill:#C9C6CA;" width="16" height="16"/>
	<rect x="344" y="172" style="fill:#C9C6CA;" width="16" height="16"/>
</g>
<g>
</g>
<g>
</g>
<g>
</g>
<g>
</g>
<g>
</g>
<g>
</g>
<g>
</g>
<g>
</g>
<g>
</g>
<g>
</g>
<g>
</g>
<g>
</g>
<g>
</g>
<g>
</g>
<g>
</g>
</svg>
