<?xml version="1.0" encoding="iso-8859-1"?>
<!-- Generator: Adobe Illustrator 19.0.0, SVG Export Plug-In . SVG Version: 6.00 Build 0)  -->
<svg version="1.1" id="Capa_1" xmlns="http://www.w3.org/2000/svg" xmlns:xlink="http://www.w3.org/1999/xlink" x="0px" y="0px"
	 viewBox="0 0 512.001 512.001" style="enable-background:new 0 0 512.001 512.001;" xml:space="preserve">
<path style="fill:#FFE17D;" d="M256.001,256c50.488,0,93.845,30.22,113.188,73.518c60.1-24.894,124.158-51.427,136.853-56.685
	C464.442,175.904,368.163,108,256.001,108C143.838,108,47.56,175.904,5.96,272.833l136.853,56.686
	C162.156,286.22,205.513,256,256.001,256z"/>
<path style="fill:#FFD164;" d="M387.643,321.875C365.253,271.367,314.725,236,256.001,236s-109.252,35.367-131.642,85.875
	l18.453,7.644C162.156,286.22,205.513,256,256.001,256s93.845,30.22,113.188,73.518C375.32,326.979,381.488,324.424,387.643,321.875
	z"/>
<g>
	<path style="fill:#FF8087;" d="M369.189,329.518c60.1-24.894,124.158-51.427,136.853-56.685
		c-14.061-32.763-34.486-62.089-59.543-86.719L342.815,291.642C353.796,302.454,362.817,315.254,369.189,329.518z"/>
	<path style="fill:#FF8087;" d="M169.108,291.717c11.385-11.23,24.917-20.259,39.944-26.431l-56.058-136.971
		c-32.985,13.52-62.663,33.35-87.663,57.966L169.108,291.717z"/>
	<path style="fill:#FF8087;" d="M302.933,265.278l56.037-136.98C327.196,115.28,292.465,108,256.001,108v148
		C272.629,256,288.455,259.334,302.933,265.278z"/>
</g>
<g>
	<path style="fill:#E6646E;" d="M169.108,291.717c11.385-11.23,24.917-20.259,39.944-26.431l-7.569-18.494
		c-17.442,7.166-33.176,17.635-46.412,30.664L169.108,291.717z"/>
	<path style="fill:#E6646E;" d="M302.933,265.278l7.565-18.494C293.67,239.875,275.287,236,256.001,236v20
		C272.629,256,288.455,259.334,302.933,265.278z"/>
	<path style="fill:#E6646E;" d="M387.642,321.875c-7.426-16.748-17.908-31.832-30.805-44.505l-14.021,14.271
		c10.98,10.812,20.002,23.613,26.374,37.876C375.319,326.979,381.487,324.424,387.642,321.875z"/>
</g>
<path style="fill:#F5B97D;" d="M511.392,270.613c-1.688-4.082-6.391-6.004-10.453-4.328l-210.836,87.332L451.446,192.27
	c3.125-3.125,3.125-8.188,0-11.312s-8.188-3.125-11.312,0l-161.36,161.364l87.329-210.829c1.688-4.082-0.25-8.762-4.328-10.453
	c-4.07-1.68-8.758,0.242-10.453,4.328l-87.321,210.807V108c0-4.418-3.578-8-8-8s-8,3.582-8,8v228.193l-87.32-210.826
	c-1.688-4.082-6.391-6.004-10.453-4.328c-4.078,1.691-6.016,6.371-4.328,10.453l87.316,210.816L71.868,180.957
	c-3.125-3.125-8.187-3.125-11.312,0s-3.125,8.188,0,11.312L221.9,353.617L11.063,266.289c-4.07-1.68-8.758,0.242-10.453,4.328
	c-1.688,4.082,0.25,8.762,4.328,10.453l227.536,94.247c2.187-10.999,11.9-19.317,23.527-19.317c11.627,0,21.34,8.318,23.526,19.316
	l227.536-94.25C511.142,279.375,513.079,274.695,511.392,270.613z"/>
<path style="fill:#D29B6E;" d="M256.001,412c-17.648,0-32-14.355-32-32s14.352-32,32-32s32,14.355,32,32S273.649,412,256.001,412z
	 M256.001,364c-8.82,0-16,7.176-16,16s7.18,16,16,16s16-7.176,16-16S264.821,364,256.001,364z"/>
<g>
</g>
<g>
</g>
<g>
</g>
<g>
</g>
<g>
</g>
<g>
</g>
<g>
</g>
<g>
</g>
<g>
</g>
<g>
</g>
<g>
</g>
<g>
</g>
<g>
</g>
<g>
</g>
<g>
</g>
</svg>
