<?xml version="1.0" encoding="iso-8859-1"?>
<!-- Generator: Adobe Illustrator 19.0.0, SVG Export Plug-In . SVG Version: 6.00 Build 0)  -->
<svg version="1.1" id="Capa_1" xmlns="http://www.w3.org/2000/svg" xmlns:xlink="http://www.w3.org/1999/xlink" x="0px" y="0px"
	 viewBox="0 0 512 512" style="enable-background:new 0 0 512 512;" xml:space="preserve">
<g>
	<path style="fill:#8CB4EB;" d="M156.903,0h-16.516c-4.561,0-8.258,3.697-8.258,8.258v123.871h33.032V8.258
		C165.161,3.697,161.464,0,156.903,0z"/>
	<path style="fill:#8CB4EB;" d="M371.613,0h-16.516c-4.561,0-8.258,3.697-8.258,8.258v123.871h33.032V8.258
		C379.871,3.697,376.174,0,371.613,0z"/>
</g>
<path style="fill:#A5CDFF;" d="M412.903,173.872c0-29.571-21.43-59.631-33.413-74.127c-4.699-5.684-11.664-8.907-19.038-8.907
	h-0.802c-12.851,0-13.53,10.599-13.53,10.599c-2.272,19.595-10.849,38.594-25.887,53.633c-17.742,17.742-40.988,26.59-64.233,26.567
	c-23.245,0.023-46.49-8.824-64.233-26.567c-15.038-15.039-23.615-34.038-25.887-53.633c0,0-0.679-10.599-13.53-10.599h-0.802
	c-7.374,0-14.34,3.223-19.038,8.907c-11.982,14.496-33.413,44.555-33.413,74.127c0,26.647,14.043,49.987,35.112,63.106
	l13.401,147.979c0.632,6.971,4.136,13.342,9.744,17.53c17.649,13.178,57.711,47.376,78.425,99.38
	c2.46,6.176,8.558,10.133,15.207,10.133h10.028c6.649,0,12.747-3.956,15.207-10.133c20.714-52.005,60.776-86.202,78.425-99.38
	c5.608-4.188,9.112-10.559,9.744-17.53l13.401-147.979C398.86,223.859,412.903,200.519,412.903,173.872z"/>
<g>
	<path style="fill:#8CB4EB;" d="M165.162,247.742c-11.278-1.246-21.774-5.047-30.954-10.764l2.626,28.993
		c4.243,1.679,8.629,3.088,13.145,4.191c7.508,1.834,15.277,2.353,23.006,2.353h0.434c6.841,0,12.387-5.546,12.387-12.387l0,0
		c0-6.841-5.546-12.387-12.387-12.387L165.162,247.742L165.162,247.742z"/>
	<path style="fill:#8CB4EB;" d="M346.822,247.742c11.278-1.246,21.774-5.047,30.954-10.764l-2.626,28.993
		c-4.243,1.679-8.629,3.088-13.145,4.191c-7.508,1.834-15.277,2.353-23.006,2.353h-0.434c-6.841,0-12.387-5.546-12.387-12.387l0,0
		c0-6.841,5.546-12.387,12.387-12.387L346.822,247.742L346.822,247.742z"/>
	<path style="fill:#8CB4EB;" d="M239.029,436.24c-45.153-43.346-91.875-56.321-91.875-56.321l0.456,5.038
		c0.631,6.971,4.135,13.342,9.743,17.53c17.649,13.178,57.711,47.375,78.425,99.38c2.46,6.177,8.559,10.133,15.207,10.133h10.028
		c6.648,0,12.747-3.956,15.207-10.133c20.714-52.005,60.776-86.202,78.425-99.38c5.608-4.188,9.112-10.559,9.743-17.53l0.456-5.038
		c0,0-46.722,12.975-91.875,56.321C263.526,445.308,248.474,445.308,239.029,436.24z"/>
</g>
<g>
</g>
<g>
</g>
<g>
</g>
<g>
</g>
<g>
</g>
<g>
</g>
<g>
</g>
<g>
</g>
<g>
</g>
<g>
</g>
<g>
</g>
<g>
</g>
<g>
</g>
<g>
</g>
<g>
</g>
</svg>
