<?xml version="1.0" encoding="iso-8859-1"?>
<!-- Generator: Adobe Illustrator 19.0.0, SVG Export Plug-In . SVG Version: 6.00 Build 0)  -->
<svg version="1.1" id="Capa_1" xmlns="http://www.w3.org/2000/svg" xmlns:xlink="http://www.w3.org/1999/xlink" x="0px" y="0px"
	 viewBox="0 0 512 512" style="enable-background:new 0 0 512 512;" xml:space="preserve">
<path style="fill:#FFF0BE;" d="M368.011,228.612l-4.821-19.283c-0.904-3.618-4.155-6.156-7.884-6.156h-9.909
	c0-49.373-40.025-89.397-89.397-89.397s-89.397,40.025-89.397,89.397h-9.909c-3.729,0-6.98,2.538-7.884,6.156l-4.821,19.283
	c-0.897,3.591,1.818,7.069,5.519,7.069h8.968l30.819,261.964c0.963,8.186,7.901,14.355,16.143,14.355h101.125
	c8.242,0,15.18-6.169,16.143-14.355l30.819-261.964h8.968C366.192,235.681,368.908,232.203,368.011,228.612z"/>
<g>
	<rect x="247.869" y="235.68" style="fill:#FFE17D;" width="16.254" height="73.14"/>
	<path style="fill:#FFE17D;" d="M241.316,251.935h110.295l1.912-16.254H158.475l30.819,261.964
		c0.963,8.186,7.901,14.355,16.143,14.355h26.181l-14.635-234.163C216.105,263.801,227.253,251.935,241.316,251.935z"/>
</g>
<g>
	<path style="fill:#FF8087;" d="M360.547,4.029c-2.27-3.873-7.238-5.179-11.119-2.925l-89.461,52.187
		c-7.46,4.353-12.095,12.421-12.095,21.06v47.552h16.254V74.351c0-2.881,1.548-5.567,4.032-7.02l89.461-52.187
		C361.492,12.882,362.801,7.906,360.547,4.029z"/>
	<path style="fill:#FF8087;" d="M300.672,316.951c-22.362,0-22.362-16.254-44.723-16.254c-22.346,0-22.346,16.254-44.693,16.254
		c-8.032,0-13.179-2.1-17.515-4.79c-4.329-2.686-9.819,0.708-9.223,5.768l20.919,177.817h101.125l20.923-177.847
		c0.595-5.058-4.895-8.456-9.221-5.768C313.91,314.836,308.746,316.951,300.672,316.951z"/>
</g>
<g>
	<path style="fill:#E6646E;" d="M193.741,312.161c-4.329-2.686-9.819,0.708-9.223,5.767l20.919,177.817h25.165l-11.229-179.674
		c-2.364,0.542-5.008,0.879-8.117,0.879C203.224,316.951,198.077,314.851,193.741,312.161z"/>
	<path style="fill:#E6646E;" d="M255.999,479.492c4.489,0,8.127-3.639,8.127-8.127V301.591c-2.379-0.55-5.042-0.893-8.177-0.893
		c-3.091,0-5.723,0.333-8.077,0.869v169.799C247.872,475.853,251.51,479.492,255.999,479.492z"/>
</g>
<rect x="247.869" y="235.68" style="fill:#FFC350;" width="16.254" height="16.254"/>
<g>
	<path style="fill:#FFE17D;" d="M255.999,113.776c-2.744,0-5.446,0.168-8.127,0.41v72.733h16.254v-72.733
		C261.445,113.944,258.743,113.776,255.999,113.776z"/>
	<path style="fill:#FFE17D;" d="M209.537,166.727c4.937-21.28,17.503-39.623,34.628-52.079
		c-43.764,5.803-77.563,43.174-77.563,88.525h178.795c0-5.559-0.577-10.976-1.548-16.254H225.35
		C214.784,186.919,207.149,177.02,209.537,166.727z"/>
</g>
<rect x="247.869" y="186.92" style="fill:#FFC350;" width="16.254" height="16.254"/>
<g>
</g>
<g>
</g>
<g>
</g>
<g>
</g>
<g>
</g>
<g>
</g>
<g>
</g>
<g>
</g>
<g>
</g>
<g>
</g>
<g>
</g>
<g>
</g>
<g>
</g>
<g>
</g>
<g>
</g>
</svg>
