<?xml version="1.0" encoding="iso-8859-1"?>
<!-- Generator: Adobe Illustrator 19.0.0, SVG Export Plug-In . SVG Version: 6.00 Build 0)  -->
<svg version="1.1" id="Capa_1" xmlns="http://www.w3.org/2000/svg" xmlns:xlink="http://www.w3.org/1999/xlink" x="0px" y="0px"
	 viewBox="0 0 512 512" style="enable-background:new 0 0 512 512;" xml:space="preserve">
<g>
	<path style="fill:#D29B6E;" d="M96.508,262.47c-0.234,0.621-23.898,62.605-77.711,108.734l10.406,12.148
		c56.914-48.777,81.281-112.574,82.289-115.266L96.508,262.47z"/>
	<path style="fill:#D29B6E;" d="M415.491,262.47l-14.984,5.617c1.008,2.691,25.375,66.488,82.289,115.266l10.406-12.148
		C439.389,325.075,415.725,263.091,415.491,262.47z"/>
</g>
<path style="fill:#FFE17D;" d="M409.246,251.518C329.468,182.92,279.22,120.192,262.342,97.887c-3.194-4.221-9.489-4.221-12.683,0
	c-16.878,22.304-67.126,85.033-146.905,153.63c-4.318,3.713-7.241,8.849-8.129,14.474L72,409.279h368l-22.624-143.287
	C416.488,260.367,413.564,255.23,409.246,251.518z"/>
<g>
	<path style="fill:#FFD164;" d="M256,161.279c-4.422,0-8,3.582-8,8v127.996h16V169.279C264,164.861,260.422,161.279,256,161.279z"/>
	<path style="fill:#FFD164;" d="M436.614,387.835H118.429c-9.835,0-17.341-8.789-15.803-18.503l15.322-96.75
		c0.293-1.853,1.259-3.559,2.679-4.786c84.536-73.06,135.721-138.611,150.527-158.559c-3.532-4.456-6.51-8.31-8.811-11.351
		c-3.194-4.221-9.489-4.221-12.684,0c-16.878,22.304-67.127,85.034-146.907,153.633c-4.318,3.713-7.238,8.847-8.126,14.472
		l-19.24,121.844l0,0L72,409.279h368L436.614,387.835z"/>
</g>
<path style="fill:#D28C46;" d="M248.557,261.801C215.039,347.359,160,409.279,160,409.279h192c0,0-55.039-61.919-88.556-147.477
	C260.769,254.974,251.231,254.974,248.557,261.801z"/>
<g>
	<path style="fill:#E3AA75;" d="M24,345.279c-4.422,0-8,3.582-8,8v56h16v-56C32,348.861,28.422,345.279,24,345.279z"/>
	<path style="fill:#E3AA75;" d="M488,345.279c-4.422,0-8,3.582-8,8v56h16v-56C496,348.861,492.422,345.279,488,345.279z"/>
</g>
<path style="fill:#D4F582;" d="M504,417.279H8c-4.422,0-8-3.582-8-8s3.578-8,8-8h496c4.422,0,8,3.582,8,8
	S508.422,417.279,504,417.279z"/>
<g>
</g>
<g>
</g>
<g>
</g>
<g>
</g>
<g>
</g>
<g>
</g>
<g>
</g>
<g>
</g>
<g>
</g>
<g>
</g>
<g>
</g>
<g>
</g>
<g>
</g>
<g>
</g>
<g>
</g>
</svg>
