<?xml version="1.0" encoding="iso-8859-1"?>
<!-- Generator: Adobe Illustrator 19.0.0, SVG Export Plug-In . SVG Version: 6.00 Build 0)  -->
<svg version="1.1" id="Capa_1" xmlns="http://www.w3.org/2000/svg" xmlns:xlink="http://www.w3.org/1999/xlink" x="0px" y="0px"
	 viewBox="0 0 512 512" style="enable-background:new 0 0 512 512;" xml:space="preserve">
<path style="fill:#F0F0F0;" d="M389.57,279.285c-10.18-12.665-25.555-20.032-41.804-20.032h-14.463
	c-13.96,0-25.277,11.317-25.277,25.277l0,0l41.656,12.616l44.101-12.616L389.57,279.285z"/>
<path style="fill:#D9D9D9;" d="M338.933,284.529L338.933,284.529c0-11.637,7.866-21.431,18.57-24.37
	c-3.186-0.588-6.442-0.907-9.736-0.907h-14.463c-13.96,0-25.277,11.317-25.277,25.277l0,0l41.656,12.616l15.894-4.546
	L338.933,284.529z"/>
<path style="fill:#FF5E6B;" d="M403.56,284.529h-95.532c-13.96,0-25.277,11.317-25.277,25.277l0,0l66.933,19.705l54.295-19.705
	c7.059,0,12.766-5.787,12.636-12.875C416.488,289.973,410.518,284.529,403.56,284.529z"/>
<path style="fill:#E63E4C;" d="M313.657,309.805L313.657,309.805c0-13.96,11.316-25.277,25.277-25.277h-30.905
	c-13.96,0-25.277,11.317-25.277,25.277l0,0l66.933,19.705l13.842-5.023L313.657,309.805z"/>
<g>
	<path style="fill:#3B484A;" d="M152.152,114.712c-12.662-37.877-48.003-63.326-87.94-63.326L44.36,69.164l19.852,17.778
		c24.623,0,46.412,15.691,54.219,39.043l61.45,183.82l33.721-11.272L152.152,114.712z"/>
	<rect x="282.754" y="309.806" style="fill:#3B484A;" width="121.232" height="58.03"/>
</g>
<rect x="282.754" y="309.806" style="fill:#333E40;" width="30.905" height="58.03"/>
<path style="fill:#F0F0F0;" d="M466.753,388.994l-62.774-21.164H175.746l-22.501,21.164l9.753,32.001h304.305v-25.052
	C467.301,393.525,467.119,391.209,466.753,388.994z"/>
<polygon style="fill:#333E40;" points="199.269,255.659 161.78,255.659 179.88,309.805 213.601,298.533 "/>
<path style="fill:#FF5E6B;" d="M466.753,388.994H153.245l-25.466-86.448c-2.113-8.084,3.987-15.982,12.343-15.982h59.773
	c12.82,0,24.837,5.926,32.928,15.869c5.296,6.509,11.351,12.323,18.008,17.319c11.693,8.777,25.255,15.055,39.883,18.174
	c14.731,3.149,31.767,5.526,49.605,5.526C412.82,343.453,461.135,354.76,466.753,388.994z"/>
<circle style="fill:#3B484A;" cx="159.997" cy="388.996" r="71.618"/>
<circle style="fill:#B3B3B3;" cx="159.997" cy="388.996" r="31.997"/>
<circle style="fill:#3B484A;" cx="467.3" cy="415.915" r="44.7"/>
<circle style="fill:#B3B3B3;" cx="467.3" cy="415.915" r="19.972"/>
<path style="fill:#FF5E6B;" d="M17.778,51.386C7.959,51.386,0,59.346,0,69.164l0,0c0,9.819,7.959,17.778,17.778,17.778h46.433
	V51.386H17.778z"/>
<g>
</g>
<g>
</g>
<g>
</g>
<g>
</g>
<g>
</g>
<g>
</g>
<g>
</g>
<g>
</g>
<g>
</g>
<g>
</g>
<g>
</g>
<g>
</g>
<g>
</g>
<g>
</g>
<g>
</g>
</svg>
