<?xml version="1.0" encoding="iso-8859-1"?>
<!-- Generator: Adobe Illustrator 19.0.0, SVG Export Plug-In . SVG Version: 6.00 Build 0)  -->
<svg version="1.1" id="Capa_1" xmlns="http://www.w3.org/2000/svg" xmlns:xlink="http://www.w3.org/1999/xlink" x="0px" y="0px"
	 viewBox="0 0 512 512" style="enable-background:new 0 0 512 512;" xml:space="preserve">
<polygon style="fill:#C86D5C;" points="298.577,213.422 264.711,207.809 124.866,347.654 131.712,380.288 164.346,387.134 
	304.191,247.288 "/>
<polygon style="fill:#B24D40;" points="298.577,213.422 284.831,211.144 288.165,231.263 148.32,371.108 128.932,367.041 
	131.712,380.288 164.346,387.134 304.191,247.288 "/>
<path style="fill:#B3B3B3;" d="M316.558,195.442c-82.75-82.75-97.679-44.881-9.206-133.354S506.347,5.652,506.347,5.652
	s32.038,110.522-56.436,198.995S399.308,278.192,316.558,195.442z"/>
<path style="fill:#999999;" d="M449.912,204.647c88.473-88.473,56.435-198.995,56.435-198.995s-0.396-0.113-1.131-0.304
	c1.668,39.797-5.751,120.608-79.191,194.048c-27.124,27.124-44.108,45.718-55.964,56.863
	C388.33,275.793,392.774,261.785,449.912,204.647z"/>
<path style="fill:#D9D9D9;" d="M398.305,119.701c0.981-3.648-2.359-6.987-6.007-6.007c-29.989,8.058-57.332,23.858-79.289,45.815
	l-48.299,48.299l39.48,39.48l48.299-48.299C374.447,177.032,390.247,149.689,398.305,119.701z"/>
<path style="fill:#B3B3B3;" d="M135.379,416.1L135.379,416.1l28.967-28.967l-39.48-39.48L95.9,376.621l0,0
	c-15.134-15.134-39.672-15.134-54.807,0L5.504,412.208c-7.339,7.339-7.339,19.239,0,26.578l67.71,67.71
	c7.339,7.339,19.239,7.339,26.578,0l35.589-35.589C150.515,455.772,150.515,431.235,135.379,416.1z M87.163,472.543l-47.706-47.706
	l5.953-5.953c13.174-13.174,34.532-13.174,47.706,0s13.174,34.532,0,47.706L87.163,472.543z"/>
<path style="fill:#999999;" d="M135.379,416.1L135.379,416.1l28.967-28.967l-16.025-16.026l-28.967,28.967l0,0
	c15.134,15.134,15.134,39.672,0,54.807L83.765,490.47c-7.339,7.339-19.239,7.339-26.578,0l16.025,16.025
	c7.339,7.339,19.239,7.339,26.578,0l35.589-35.589C150.515,455.772,150.515,431.235,135.379,416.1z"/>
<g>
	<path style="fill:#3B484A;" d="M388.071,56.621c-3.017-3.017-3.017-7.91,0-10.927l6.09-6.09c3.017-3.017,7.91-3.017,10.927,0
		c3.017,3.017,3.017,7.91,0,10.927l-6.09,6.09C395.981,59.638,391.089,59.638,388.071,56.621z"/>
	<path style="fill:#3B484A;" d="M455.379,123.928c-3.017-3.017-3.017-7.91,0-10.927l6.09-6.09c3.017-3.017,7.91-3.017,10.927,0
		c3.017,3.017,3.017,7.91,0,10.927l-6.09,6.09C463.289,126.945,458.397,126.945,455.379,123.928z"/>
	<path style="fill:#3B484A;" d="M418.474,93.526c-4.814-4.814-7.32-11.361-6.876-17.962c0.286-4.258,3.969-7.477,8.227-7.191
		c4.257,0.286,7.477,3.968,7.191,8.227c-0.144,2.152,0.725,4.339,2.386,6c1.661,1.661,3.848,2.53,6.001,2.386
		c4.258-0.287,7.941,2.933,8.226,7.192c0.286,4.258-2.934,7.941-7.192,8.226C429.835,100.845,423.288,98.339,418.474,93.526z"/>
</g>
<g>
</g>
<g>
</g>
<g>
</g>
<g>
</g>
<g>
</g>
<g>
</g>
<g>
</g>
<g>
</g>
<g>
</g>
<g>
</g>
<g>
</g>
<g>
</g>
<g>
</g>
<g>
</g>
<g>
</g>
</svg>
