<?xml version="1.0" encoding="iso-8859-1"?>
<!-- Generator: Adobe Illustrator 19.0.0, SVG Export Plug-In . SVG Version: 6.00 Build 0)  -->
<svg version="1.1" id="Capa_1" xmlns="http://www.w3.org/2000/svg" xmlns:xlink="http://www.w3.org/1999/xlink" x="0px" y="0px"
	 viewBox="0 0 512 512" style="enable-background:new 0 0 512 512;" xml:space="preserve">
<path style="fill:#00AE95;" d="M381.426,99.465c27.131-22.417,34.892-75.341-11.322-82.801s-55.499,45.218-36.8,75.033
	l21.079,22.361L381.426,99.465z"/>
<path style="fill:#2FC8B4;" d="M354.392,121.786c-0.409,0-0.824-0.032-1.241-0.1c-4.212-0.68-7.076-4.646-6.396-8.86l10.419-64.548
	c0.68-4.212,4.649-7.077,8.86-6.396c4.212,0.68,7.076,4.646,6.396,8.86L362.01,115.29
	C361.399,119.085,358.117,121.786,354.392,121.786z"/>
<path style="fill:#00AE95;" d="M422.694,130.97c14.474-32.08,63.482-53.516,82.857-10.901s-28.992,65.455-62.681,55.274
	l-27.126-14.44L422.694,130.97z"/>
<g>
	<path style="fill:#2FC8B4;" d="M415.749,168.632c-2.937,0-5.743-1.683-7.038-4.53c-1.767-3.885-0.049-8.465,3.835-10.232
		l59.52-27.063c3.885-1.768,8.466-0.049,10.232,3.835c1.767,3.885,0.049,8.465-3.835,10.232l-59.52,27.063
		C417.905,168.408,416.818,168.632,415.749,168.632z"/>
	<path style="fill:#2FC8B4;" d="M425.39,124.823c34.503-6.941,66.345-49.922,29.136-78.329s-70.278,13.638-67.881,48.75
		l8.015,29.666L425.39,124.823z"/>
</g>
<path style="fill:#00AE95;" d="M394.655,132.638c-1.635,0-3.283-0.516-4.683-1.585c-3.391-2.59-4.041-7.438-1.453-10.83
	l39.675-51.97c2.59-3.391,7.438-4.042,10.83-1.453c3.391,2.59,4.041,7.438,1.453,10.83l-39.675,51.97
	C399.281,131.591,396.981,132.638,394.655,132.638z"/>
<path style="fill:#FF5E6B;" d="M99.243,300.91h128.063c20.851-33.901,23.388-88.733,2.999-143.368
	C201.532,80.444,138.014,32.944,88.433,51.448s-66.45,96.004-37.678,173.101C62.342,255.597,79.566,281.84,99.243,300.91z"/>
<path style="fill:#E63E4C;" d="M77.539,224.55C48.766,147.452,65.636,69.952,115.216,51.448c3.059-1.141,6.172-2.029,9.325-2.677
	c-12.382-2.348-24.62-1.61-36.11,2.677C38.85,69.953,21.982,147.452,50.755,224.55c11.587,31.048,28.811,57.29,48.489,76.36h26.785
	C106.35,281.84,89.127,255.597,77.539,224.55z"/>
<path style="fill:#FF8C4F;" d="M387.266,300.91c66.807-57.816,85.298-143.295,20.306-192.913
	c-93.336-71.257-212.65,43.062-203.867,192.913H387.266z"/>
<path style="fill:#EE6B28;" d="M420.257,119.199c19.697,47.83-3.194,107.188-53.593,150.806H203.692
	c-0.588,10.094-0.602,20.412,0.012,30.905h183.562C449.286,247.237,469.652,169.73,420.257,119.199z"/>
<g>
	<path style="fill:#3B484A;" d="M293.431,190.744c-1.635,0-3.283-0.517-4.683-1.585c-3.391-2.59-4.041-7.438-1.453-10.83
		l4.963-6.501c2.59-3.391,7.439-4.04,10.83-1.453c3.391,2.59,4.041,7.438,1.453,10.83l-4.963,6.501
		C298.058,189.698,295.757,190.744,293.431,190.744z"/>
	<path style="fill:#3B484A;" d="M365.279,245.596c-1.635,0-3.283-0.517-4.683-1.585c-3.391-2.59-4.041-7.438-1.453-10.83
		l4.963-6.501c2.59-3.391,7.439-4.04,10.83-1.453c3.391,2.59,4.041,7.438,1.453,10.83l-4.963,6.501
		C369.906,244.55,367.605,245.596,365.279,245.596z"/>
	<path style="fill:#3B484A;" d="M335.785,224.766c-4.883,0-9.729-1.632-13.762-4.711c-5.228-3.991-8.469-9.939-8.893-16.321
		c-0.282-4.258,2.94-7.939,7.198-8.22c4.261-0.282,7.939,2.94,8.22,7.198c0.129,1.932,1.167,3.777,2.851,5.061
		c1.684,1.286,3.737,1.804,5.635,1.417c4.186-0.847,8.261,1.852,9.11,6.034c0.849,4.183-1.852,8.261-6.034,9.11
		C338.679,224.623,337.23,224.766,335.785,224.766z"/>
	<path style="fill:#3B484A;" d="M90.116,206.243c-3.133,0-6.08-1.919-7.239-5.026l-3.154-8.452c-1.493-3.998,0.539-8.449,4.537-9.94
		c3.998-1.493,8.449,0.539,9.94,4.537l3.154,8.452c1.493,3.998-0.539,8.449-4.537,9.94
		C91.926,206.086,91.013,206.243,90.116,206.243z"/>
	<path style="fill:#3B484A;" d="M183.514,171.387c-3.133,0-6.08-1.919-7.239-5.026l-3.154-8.452
		c-1.493-3.998,0.539-8.449,4.537-9.94c3.999-1.494,8.449,0.539,9.94,4.537l3.154,8.452c1.493,3.998-0.539,8.449-4.537,9.94
		C185.324,171.23,184.411,171.387,183.514,171.387z"/>
	<path style="fill:#3B484A;" d="M132.585,194.402c-3.897,0-7.743-0.942-11.19-2.804c-3.754-2.028-5.153-6.716-3.126-10.471
		c2.028-3.754,6.715-5.153,10.471-3.126c2.081,1.124,4.651,1.255,7.056,0.357c2.403-0.897,4.261-2.681,5.096-4.892
		c1.507-3.992,5.965-6.005,9.958-4.498c3.992,1.507,6.006,5.967,4.498,9.958c-2.411,6.383-7.568,11.454-14.148,13.91
		C138.396,193.883,135.476,194.402,132.585,194.402z"/>
</g>
<path style="fill:#2FC8B4;" d="M99.622,37.501l-8.193-25.824c-0.166-0.518-0.365-1.056-0.584-1.566
	c-3.66-8.486-13.507-12.399-21.993-8.739c-8.487,3.659-12.399,13.507-8.74,21.993L70.84,48.244
	c-65.618,31.732-45.864,82.801-45.864,82.801c5.618,15.054,22.376,22.703,37.43,17.085c15.054-5.619,22.703-22.376,17.085-37.43
	c5.618,15.054,22.376,22.703,37.43,17.085c15.054-5.618,22.703-22.376,17.085-37.43c5.618,15.054,22.376,22.703,37.43,17.085
	c15.054-5.618,22.703-22.376,17.085-37.43C188.52,70.009,169.987,18.485,99.622,37.501z"/>
<path style="fill:#00AE95;" d="M44.576,122.172c0,0-14.668-37.951,20.222-70.824c-58.329,31.845-39.823,79.695-39.823,79.695
	c5.619,15.054,22.376,22.703,37.43,17.085c3.378-1.261,6.38-3.086,8.946-5.323C59.613,141.626,48.98,133.972,44.576,122.172z"/>
<polygon style="fill:#DF8B78;" points="253.48,316.59 18.998,341.557 18.998,426.773 253.48,462.074 487.962,426.773 
	487.962,341.557 "/>
<g>
	<polygon style="fill:#C86D5C;" points="91.111,426.773 91.111,341.558 289.536,320.43 253.48,316.59 18.998,341.558 
		18.998,426.773 253.48,462.074 289.536,456.646 	"/>
	<path style="fill:#C86D5C;" d="M487.967,260.262H18.993c-9.378,0-16.98,7.602-16.98,16.979v47.336c0,9.378,7.602,16.98,16.98,16.98
		h468.973c9.378,0,16.979-7.603,16.979-16.98v-47.335C504.947,267.865,497.344,260.262,487.967,260.262z"/>
</g>
<path style="fill:#B24D40;" d="M74.126,324.578v-47.336c0-9.378,7.602-16.979,16.98-16.979H18.994
	c-9.378,0-16.98,7.602-16.98,16.979v47.336c0,9.378,7.602,16.98,16.98,16.98h72.113C81.728,341.558,74.126,333.956,74.126,324.578z"
	/>
<path style="fill:#C86D5C;" d="M18.998,426.773v59.521c0,14.197,11.509,25.706,25.706,25.706h417.552
	c14.197,0,25.706-11.509,25.706-25.706v-59.521H18.998z"/>
<path style="fill:#B24D40;" d="M91.111,486.294v-59.521H18.998v59.521c0,14.197,11.509,25.706,25.706,25.706h72.113
	C102.62,512,91.111,500.491,91.111,486.294z"/>
<g>
</g>
<g>
</g>
<g>
</g>
<g>
</g>
<g>
</g>
<g>
</g>
<g>
</g>
<g>
</g>
<g>
</g>
<g>
</g>
<g>
</g>
<g>
</g>
<g>
</g>
<g>
</g>
<g>
</g>
</svg>
