<?xml version="1.0" encoding="iso-8859-1"?>
<!-- Generator: Adobe Illustrator 19.0.0, SVG Export Plug-In . SVG Version: 6.00 Build 0)  -->
<svg version="1.1" id="Capa_1" xmlns="http://www.w3.org/2000/svg" xmlns:xlink="http://www.w3.org/1999/xlink" x="0px" y="0px"
	 viewBox="0 0 512 512" style="enable-background:new 0 0 512 512;" xml:space="preserve">
<g>
	<path style="fill:#BC705F;" d="M196.937,457.616l-26.18,16.89c-11.502,0-20.824,9.323-20.824,20.824V512h58.127
		c8.32,0,15.058-6.749,15.058-15.068v-22.426L196.937,457.616z"/>
	<path style="fill:#BC705F;" d="M315.065,457.616l26.18,16.89c11.502,0,20.825,9.323,20.825,20.824V512h-58.127
		c-8.32,0-15.058-6.749-15.058-15.068v-22.426L315.065,457.616z"/>
</g>
<g>
	<rect x="170.753" y="406.613" style="fill:#00A6C8;" width="52.36" height="67.895"/>
	<rect x="288.884" y="406.613" style="fill:#00A6C8;" width="52.36" height="67.895"/>
</g>
<path style="fill:#FBC4AC;" d="M91.329,359.864c-20.267,39.146,17.185,51.816,38.993,41.174l19.275-34.962l-12.667-30.401
	L91.329,359.864z"/>
<path style="fill:#E3B098;" d="M111.932,359.864l28.728-15.238l-3.729-8.95L91.33,359.864
	c-18.541,35.813,11.225,49.462,33.126,43.379C109.513,398.96,99.036,384.774,111.932,359.864z"/>
<path style="fill:#FBC4AC;" d="M420.671,359.864c20.267,39.146-17.185,51.816-38.993,41.174l-19.275-34.962l12.667-30.401
	L420.671,359.864z"/>
<path style="fill:#F0F0F0;" d="M159.082,267.425c0,0-76.874,17.319-67.753,92.439h38.227l34.229-28.242L159.082,267.425z"/>
<path style="fill:#D9D9D9;" d="M159.632,274.925l-0.549-7.501c0,0-76.874,17.319-67.753,92.439h20.604
	C105.895,310.129,137.547,285.735,159.632,274.925z"/>
<path style="fill:#F0F0F0;" d="M352.919,267.425c0,0,76.874,17.319,67.753,92.439h-38.227l-34.229-28.242L352.919,267.425z"/>
<path style="fill:#E67176;" d="M256,359.864l-126.65,21.28c0.203,9.424,0.811,19.537,1.875,30.401L256,424.278l124.776-12.733
	c1.064-10.863,1.672-20.977,1.875-30.401L256,359.864z"/>
<g>
	<path style="fill:#E3B098;" d="M152.637,170.497l-24.032-27.356c-4.755-5.413-13.625-3.22-15.32,3.782
		c-6.687,27.624-12.357,81.432,45.797,79.167l19.079-22.562L152.637,170.497z"/>
	<path style="fill:#E3B098;" d="M359.363,170.497l24.032-27.356c4.755-5.413,13.625-3.22,15.32,3.782
		c6.687,27.624,12.357,81.432-45.797,79.167l-19.079-22.562L359.363,170.497z"/>
</g>
<path style="fill:#FBC4AC;" d="M352.919,226.09c4.054-16.782,6.445-35.295,6.445-55.593H152.637c0,20.298,2.391,38.812,6.445,55.593
	L256,316.628L352.919,226.09z"/>
<path style="fill:#FF5E6B;" d="M267.455,5.655c-5.78-7.54-17.128-7.54-22.908,0c-23.482,30.63-76.19,104.034-91.909,164.842
	c0,0,46.874,9.12,103.363,9.12s103.363-9.12,103.363-9.12C343.645,109.689,290.936,36.285,267.455,5.655z"/>
<path style="fill:#E63E4C;" d="M255.742,0.015c-4.195,0.074-8.364,1.947-11.196,5.64c-23.482,30.629-76.19,104.034-91.909,164.842
	c0,0,13.312,2.59,34.294,5.009C199.877,116.162,230.073,49.653,255.742,0.015z"/>
<g>
	<path style="fill:#3B484A;" d="M206.676,215.718c-4.268,0-7.726-3.459-7.726-7.726v-8.928c0-4.267,3.458-7.726,7.726-7.726
		c4.268,0,7.726,3.459,7.726,7.726v8.928C214.402,212.259,210.943,215.718,206.676,215.718z"/>
	<path style="fill:#3B484A;" d="M305.324,215.718c-4.268,0-7.726-3.459-7.726-7.726v-8.928c0-4.267,3.458-7.726,7.726-7.726
		c4.268,0,7.726,3.459,7.726,7.726v8.928C313.051,212.259,309.592,215.718,305.324,215.718z"/>
</g>
<g>
	<path style="fill:#42C3E2;" d="M380.776,411.545c-0.061,0.588-0.122,1.175-0.182,1.773c-1.378,13.438-12.657,23.692-26.175,23.692
		H157.583c-13.518,0-24.797-10.255-26.175-23.692c-0.061-0.597-0.122-1.186-0.182-1.773H380.776z"/>
	<path style="fill:#42C3E2;" d="M382.651,381.145h-253.3c-2.269-100.83,40.281-122.678,40.281-122.678h172.738
		C342.369,258.468,384.92,280.316,382.651,381.145z"/>
</g>
<path style="fill:#CC6469;" d="M167.463,413.319c-0.061-0.597-0.122-1.186-0.182-1.773c-1.064-10.863-1.672-20.977-1.875-30.401
	c-0.046-2.051-0.067-4.059-0.077-6.045l-35.979,6.045c0.05,2.356,0.127,4.755,0.229,7.199c0.102,2.444,0.231,4.93,0.385,7.463
	c0.233,3.798,0.526,7.698,0.883,11.702c0.118,1.335,0.245,2.681,0.378,4.038l36.519,3.726
	C167.63,414.629,167.531,413.979,167.463,413.319z"/>
<g>
	<path style="fill:#00A6C8;" d="M129.351,381.145h36.056l0,0c-2.27-100.829,40.281-122.677,40.281-122.677h-36.056
		c0,0-17.463,8.967-29.418,41.92c-0.292,0.804-0.58,1.622-0.864,2.454c-1.138,3.331-2.22,6.892-3.221,10.699
		c-1.001,3.808-1.924,7.861-2.748,12.174c-0.411,2.157-0.797,4.378-1.156,6.666c-0.896,5.721-1.618,11.857-2.125,18.438
		c-0.507,6.581-0.798,13.606-0.833,21.102C129.252,374.92,129.28,377.993,129.351,381.145L129.351,381.145z"/>
	<path style="fill:#00A6C8;" d="M193.639,437.011c-13.518,0-24.797-10.255-26.175-23.692c-0.061-0.597-0.122-1.186-0.182-1.773
		h-36.056c0.061,0.588,0.122,1.175,0.182,1.773c0.087,0.84,0.211,1.667,0.373,2.481c2.424,12.198,13.13,21.212,25.803,21.212h36.055
		V437.011z"/>
</g>
<path style="fill:#999999;" d="M352.919,226.09C330.32,319.715,256,359.864,256,359.864s-74.32-40.149-96.918-133.774
	c32.691,22.649,64.774,0,64.774,0h64.287C288.144,226.09,320.227,248.739,352.919,226.09z"/>
<path style="fill:#B3B3B3;" d="M256,248.942c34.564,19.737,46.053,2.681,46.053,2.681c-19.006-2.924,0-46.784-46.053-34.207
	c-46.053-12.576-27.047,31.284-46.053,34.207C209.947,251.623,221.437,268.68,256,248.942z"/>
<g>
</g>
<g>
</g>
<g>
</g>
<g>
</g>
<g>
</g>
<g>
</g>
<g>
</g>
<g>
</g>
<g>
</g>
<g>
</g>
<g>
</g>
<g>
</g>
<g>
</g>
<g>
</g>
<g>
</g>
</svg>
