<?xml version="1.0" encoding="iso-8859-1"?>
<!-- Generator: Adobe Illustrator 19.0.0, SVG Export Plug-In . SVG Version: 6.00 Build 0)  -->
<svg version="1.1" id="Capa_1" xmlns="http://www.w3.org/2000/svg" xmlns:xlink="http://www.w3.org/1999/xlink" x="0px" y="0px"
	 viewBox="0 0 512 512" style="enable-background:new 0 0 512 512;" xml:space="preserve">
<path style="fill:#999999;" d="M506.499,174.355l5.094-19.36c2.334-8.871-5.761-16.966-14.632-14.632l-19.36,5.094
	c-2.051,0.54-3.922,1.614-5.421,3.114L352.199,268.555c-7.23,7.23-18.951,7.23-26.181,0l-12.593-12.593
	c-7.23-7.23-7.23-18.951,0-26.181l119.982-119.982c1.5-1.5,2.574-3.371,3.114-5.422l5.094-19.359
	c2.334-8.871-5.761-16.966-14.632-14.632l-19.359,5.094c-2.051,0.54-3.922,1.614-5.421,3.114L282.22,198.577
	c-7.23,7.23-18.951,7.23-26.181,0l-12.593-12.593c-7.23-7.23-7.23-18.951,0-26.181L363.428,39.82c1.5-1.5,2.574-3.371,3.114-5.421
	l5.094-19.36c2.334-8.871-5.761-16.966-14.632-14.632l-19.359,5.094c-2.051,0.54-3.922,1.614-5.421,3.114L189.919,150.92
	c-16.651,16.651-16.651,43.646,0,60.296l0,0c13.691,13.691,16.438,34.89,6.687,51.618L177.38,295.82l5.932,32.869l32.869,5.932
	l32.984-19.225c16.728-9.751,37.927-7.004,51.618,6.687l0,0c16.651,16.651,43.646,16.651,60.297,0l142.305-142.305
	C504.885,178.277,505.96,176.406,506.499,174.355z"/>
<path style="fill:#B3B3B3;" d="M225.148,343.586l-56.733-56.733c-7.439-7.439-19.499-7.439-26.938,0
	c-7.439,7.439-7.439,19.499,0,26.938l12.184,43.383l44.549,13.35c7.439,7.439,19.499,7.439,26.938,0
	C232.587,363.085,232.587,351.025,225.148,343.586z"/>
<path style="fill:#999999;" d="M210.579,329.017c7.439,7.439,7.439,19.499,0,26.938c-7.439,7.439-19.499,7.439-26.938,0
	l-33.109-9.922l3.129,11.14l44.549,13.35c7.439,7.439,19.499,7.439,26.938,0c7.439-7.439,7.439-19.499,0-26.938L210.579,329.017z"/>
<path style="fill:#C86D5C;" d="M100.692,493.181c67.508-73.534,97.517-122.657,97.517-122.657l-56.733-56.733
	c0,0-49.123,30.009-122.657,97.517c-24.319,22.326-25.204,60.389-1.861,83.734l0,0C40.303,518.386,78.366,517.5,100.692,493.181z
	 M54.808,457.192c-8.712-8.712-8.712-22.838,0-31.55s22.838-8.712,31.55,0s8.712,22.838,0,31.55
	C77.646,465.905,63.52,465.905,54.808,457.192z"/>
<path style="fill:#B24D40;" d="M100.692,493.181c67.508-73.534,97.517-122.657,97.517-122.657l-14.569-14.569
	c0,0-30.009,49.123-97.517,122.657c-19.945,21.725-52.441,24.733-75.791,8.487c1.94,2.788,4.136,5.453,6.626,7.943l0,0
	C40.303,518.386,78.366,517.5,100.692,493.181z"/>
<g>
</g>
<g>
</g>
<g>
</g>
<g>
</g>
<g>
</g>
<g>
</g>
<g>
</g>
<g>
</g>
<g>
</g>
<g>
</g>
<g>
</g>
<g>
</g>
<g>
</g>
<g>
</g>
<g>
</g>
</svg>
