<?xml version="1.0" encoding="iso-8859-1"?>
<!-- Generator: Adobe Illustrator 19.0.0, SVG Export Plug-In . SVG Version: 6.00 Build 0)  -->
<svg version="1.1" id="Capa_1" xmlns="http://www.w3.org/2000/svg" xmlns:xlink="http://www.w3.org/1999/xlink" x="0px" y="0px"
	 viewBox="0 0 512 512" style="enable-background:new 0 0 512 512;" xml:space="preserve">
<rect x="401.142" y="264.746" style="fill:#00A6C8;" width="50.244" height="163.788"/>
<polygon style="fill:#D9D9D9;" points="401.141,428.533 412.414,486.038 426.263,499.02 440.113,486.038 451.385,428.533 "/>
<path style="fill:#0095B3;" d="M451.385,350.386v-85.637h-50.244v142.867c5.85-4.823,11.503-9.951,16.933-15.382
	C430.886,379.422,442.018,365.382,451.385,350.386z"/>
<path style="fill:#42C3E2;" d="M252.492,18.217c-115.112,0-208.426,93.314-208.426,208.426s93.314,208.426,208.426,208.426
	c115.102,0,208.416-93.314,208.416-208.426S367.594,18.217,252.492,18.217z M252.492,333.579
	c-58.964,0-106.936-47.971-106.936-106.936s47.971-106.936,106.936-106.936s106.936,47.971,106.936,106.936
	S311.457,333.579,252.492,333.579z"/>
<path style="fill:#00A6C8;" d="M252.492,61.093c-91.284,0-165.55,74.266-165.55,165.55s74.266,165.55,165.55,165.55
	s165.55-74.266,165.55-165.55C418.042,135.359,343.777,61.093,252.492,61.093z M252.492,349.327
	c-67.652,0-122.684-55.043-122.684-122.684c0-67.652,55.032-122.684,122.684-122.684c67.642,0,122.684,55.032,122.684,122.684
	C375.176,294.285,320.134,349.327,252.492,349.327z"/>
<path style="fill:#0095B3;" d="M252.492,103.959c-67.652,0-122.684,55.032-122.684,122.684c0,67.642,55.032,122.684,122.684,122.684
	c67.642,0,122.684-55.043,122.684-122.684C375.176,158.991,320.134,103.959,252.492,103.959z M252.492,306.451
	c-44.009,0-79.808-35.799-79.808-79.808s35.799-79.808,79.808-79.808s79.808,35.799,79.808,79.808S296.502,306.451,252.492,306.451z
	"/>
<path style="fill:#3B484A;" d="M252.49,0L252.49,0c-16.351,0-29.607,13.255-29.607,29.606v105.837
	c0,16.351,13.255,29.606,29.606,29.606l0,0c16.351,0,29.606-13.255,29.606-29.606V29.606C282.097,13.255,268.841,0,252.49,0z"/>
<path style="fill:#B3B3B3;" d="M459.087,411.843H393.44c-4.886,0-8.847,3.961-8.847,8.847v15.686c0,4.886,3.961,8.847,8.847,8.847
	h65.647c4.886,0,8.847-3.961,8.847-8.847V420.69C467.934,415.804,463.973,411.843,459.087,411.843z"/>
<path style="fill:#999999;" d="M405.196,436.375V420.69c0-4.886,3.961-8.847,8.847-8.847H393.44c-4.886,0-8.847,3.961-8.847,8.847
	v15.686c0,4.886,3.961,8.847,8.847,8.847h20.604C409.157,445.224,405.196,441.263,405.196,436.375z"/>
<path style="fill:#B3B3B3;" d="M440.113,486.038h-27.697c-7.169,0-12.98,5.811-12.98,12.98c0,7.169,5.811,12.98,12.98,12.98h27.697
	c7.169,0,12.98-5.811,12.98-12.98C453.093,491.851,447.281,486.038,440.113,486.038z"/>
<path style="fill:#999999;" d="M420.038,499.02c0-7.169,5.811-12.981,12.98-12.981h-20.604c-7.169,0-12.98,5.812-12.98,12.981
	c0,7.169,5.811,12.98,12.98,12.98h20.604C425.849,512,420.038,506.189,420.038,499.02z"/>
<g>
</g>
<g>
</g>
<g>
</g>
<g>
</g>
<g>
</g>
<g>
</g>
<g>
</g>
<g>
</g>
<g>
</g>
<g>
</g>
<g>
</g>
<g>
</g>
<g>
</g>
<g>
</g>
<g>
</g>
</svg>
