<?xml version="1.0" encoding="iso-8859-1"?>
<!-- Generator: Adobe Illustrator 19.0.0, SVG Export Plug-In . SVG Version: 6.00 Build 0)  -->
<svg version="1.1" id="Capa_1" xmlns="http://www.w3.org/2000/svg" xmlns:xlink="http://www.w3.org/1999/xlink" x="0px" y="0px"
	 viewBox="0 0 511.998 511.998" style="enable-background:new 0 0 511.998 511.998;" xml:space="preserve">
<path style="fill:#FFCE1C;" d="M280.258,200.524c3.261,4.065,6.821,8.057,10.683,11.919c17.182,17.182,36.865,28.53,54.651,32.91
	c8.316,2.048,15.851-5.488,13.803-13.803c-4.381-17.786-15.729-37.469-32.91-54.651c-3.863-3.863-7.854-7.423-11.919-10.683
	c5.18,0.57,10.52,0.875,15.982,0.875c24.292,0,46.227-5.891,61.902-15.364c7.342-4.438,7.342-15.1,0-19.538
	c-15.674-9.475-37.61-15.364-61.902-15.364c-5.463,0-10.802,0.305-15.982,0.875c4.066-3.261,8.057-6.821,11.919-10.683
	c17.182-17.182,28.53-36.865,32.91-54.651c2.048-8.316-5.488-15.851-13.803-13.803c-17.786,4.381-37.469,15.729-54.651,32.91
	c-3.863,3.863-7.423,7.854-10.683,11.919c0.57-5.18,0.875-10.52,0.875-15.982c0-24.292-5.891-46.227-15.364-61.902
	c-4.438-7.342-15.1-7.342-19.538,0c-9.475,15.674-15.364,37.61-15.364,61.902c0,5.463,0.305,10.802,0.875,15.982
	c-3.261-4.065-6.821-8.057-10.683-11.919c-17.182-17.182-36.865-28.53-54.651-32.91c-8.316-2.048-15.851,5.488-13.803,13.803
	c4.381,17.786,15.729,37.469,32.91,54.651c3.863,3.863,7.854,7.423,11.919,10.683c-5.18-0.57-10.52-0.875-15.982-0.875
	c-24.292,0-46.227,5.891-61.902,15.364c-7.342,4.438-7.342,15.1,0,19.538c15.674,9.475,37.61,15.364,61.902,15.364
	c5.463,0,10.802-0.305,15.982-0.875c-4.066,3.261-8.057,6.821-11.919,10.683c-17.182,17.182-28.53,36.865-32.91,54.651
	c-2.048,8.316,5.488,15.851,13.803,13.803c17.786-4.381,37.469-15.729,54.651-32.91c3.863-3.863,7.423-7.854,10.683-11.919H280.258z
	"/>
<path style="fill:#FF5E6B;" d="M254.582,395.283l-95.311,27.218l12.954,68.603c2.288,12.119,12.875,20.894,25.207,20.894h111.027
	c12.332,0,22.919-8.775,25.207-20.894l12.953-68.603L254.582,395.283z"/>
<path style="fill:#E63E4C;" d="M213.431,491.105l-12.952-68.604l74.347-21.231l-20.243-5.986l-95.311,27.218l12.952,68.604
	c2.288,12.117,12.875,20.892,25.207,20.892h41.207C226.306,511.998,215.719,503.223,213.431,491.105z"/>
<path style="fill:#00AE95;" d="M177.552,304.577c0.283,17.173,9.788,33.632,26.145,42c16.358,8.369,35.266,6.446,49.359-3.372
	c-0.283-17.173-9.788-33.632-26.145-42C210.552,292.836,191.644,294.76,177.552,304.577z"/>
<path style="fill:#2FC8B4;" d="M253.05,350.935c-1.185,0-2.386-0.273-3.513-0.85l-42.532-21.759
	c-3.799-1.943-5.302-6.598-3.359-10.398c1.943-3.799,6.6-5.301,10.398-3.359l42.532,21.759c3.799,1.943,5.302,6.598,3.359,10.398
	C258.567,349.397,255.858,350.935,253.05,350.935z"/>
<path style="fill:#00AE95;" d="M349.167,304.577c-0.283,17.173-9.788,33.632-26.145,42c-16.358,8.369-35.266,6.446-49.359-3.372
	c0.283-17.173,9.788-33.632,26.145-42C316.166,292.836,335.074,294.76,349.167,304.577z"/>
<path style="fill:#2FC8B4;" d="M273.669,350.935c-2.808,0-5.517-1.537-6.885-4.208c-1.944-3.799-0.44-8.455,3.359-10.398
	l42.532-21.759c3.798-1.944,8.453-0.44,10.398,3.359c1.944,3.799,0.44,8.455-3.359,10.398l-42.532,21.759
	C276.056,350.66,274.853,350.935,273.669,350.935z"/>
<path style="fill:#FAA330;" d="M377.785,79.649c-18.13-2.597-40.623,0.552-62.984,10.043c-5.028,2.135-9.825,4.501-14.37,7.05
	c2.468-4.589,4.751-9.426,6.798-14.492c9.103-22.53,11.857-45.082,8.94-63.166c-1.364-8.455-11.245-12.448-18.1-7.313
	c-14.66,10.983-28.344,29.118-37.447,51.648c-2.046,5.065-3.764,10.13-5.177,15.147c-1.5-4.991-3.306-10.025-5.44-15.054
	c-9.492-22.361-23.485-40.251-38.33-50.977c-6.955-5.024-16.768-0.859-17.985,7.635c-2.597,18.13,0.552,40.623,10.043,62.984
	c2.135,5.028,4.501,9.825,7.05,14.37c-4.589-2.468-9.426-4.751-14.492-6.798c-22.53-9.103-45.082-11.857-63.166-8.94
	c-8.455,1.364-12.448,11.245-7.313,18.1c10.983,14.661,29.118,28.344,51.648,37.447c5.065,2.046,10.13,3.764,15.147,5.177
	c-4.991,1.5-10.025,3.306-15.054,5.44c-22.361,9.492-40.251,23.485-50.977,38.33c-5.024,6.955-0.859,16.768,7.634,17.985
	c18.13,2.597,40.623-0.552,62.984-10.043c5.028-2.135,9.825-4.501,14.37-7.05c-2.468,4.589-4.751,9.426-6.798,14.492
	c-9.103,22.53-11.857,45.082-8.94,63.166c1.364,8.455,11.245,12.448,18.1,7.313c14.661-10.983,28.344-29.118,37.447-51.648
	c2.046-5.065,3.764-10.13,5.177-15.147c1.5,4.991,3.306,10.025,5.44,15.054c9.492,22.361,23.485,40.251,38.33,50.977
	c6.955,5.024,16.768,0.859,17.985-7.635c2.597-18.13-0.552-40.623-10.043-62.984c-2.135-5.028-4.501-9.825-7.05-14.37
	c4.589,2.468,9.426,4.751,14.492,6.798c22.53,9.103,45.082,11.857,63.166,8.94c8.455-1.364,12.448-11.245,7.313-18.1
	c-10.983-14.661-29.118-28.345-51.648-37.447c-5.065-2.046-10.13-3.764-15.147-5.177c4.991-1.5,10.025-3.306,15.054-5.44
	c22.361-9.492,40.251-23.485,50.977-38.33C390.444,90.679,386.279,80.865,377.785,79.649z"/>
<path style="fill:#2FC8B4;" d="M232.093,412.428c-4.037,0-8.066-1.592-11.068-4.748c-5.81-6.111-5.566-15.775,0.545-21.585
	c27.004-25.673,38.495-62.387,34.155-109.12c-3.391-36.515-15.625-65.535-15.748-65.824c-3.304-7.749,0.288-16.721,8.034-20.035
	c7.744-3.315,16.707,0.262,20.032,8.003c0.572,1.33,14.035,33.047,18.003,74.139c5.42,56.129-9.6,102.8-43.436,134.968
	C239.656,411.033,235.87,412.428,232.093,412.428z"/>
<path style="fill:#F0F0F0;" d="M346.618,374.642H159.27c-7.148,0-12.944,5.796-12.944,12.944v21.971
	c0,7.148,5.796,12.944,12.944,12.944h187.348c7.148,0,12.944-5.796,12.944-12.944v-21.971
	C359.562,380.438,353.767,374.642,346.618,374.642z"/>
<path style="fill:#D9D9D9;" d="M187.533,409.557v-21.97c0-7.148,5.796-12.944,12.944-12.944H159.27
	c-7.148,0-12.944,5.796-12.944,12.944v21.97c0,7.148,5.796,12.944,12.944,12.944h41.207
	C193.329,422.501,187.533,416.705,187.533,409.557z"/>
<path style="fill:#00AE95;" d="M248.011,191.114c-7.746,3.314-11.338,12.285-8.034,20.035c0.106,0.247,9.099,21.599,13.805,50.676
	c0.738,0.013,1.474,0.028,2.215,0.028c9.705,0,19.142-1.167,28.185-3.354c-5.234-33.705-15.638-58.216-16.139-59.381
	C264.719,191.376,255.756,187.799,248.011,191.114z"/>
<circle style="fill:#C86D5C;" cx="255.998" cy="141.957" r="88.987"/>
<path style="fill:#B24D40;" d="M276.602,220.645c-49.148,0-88.991-39.842-88.991-88.991c0-30.7,15.547-57.769,39.197-73.765
	c-34.806,12.084-59.801,45.147-59.801,84.067c0,49.148,39.842,88.991,88.991,88.991c18.447,0,35.583-5.614,49.794-15.225
	C296.645,218.898,286.83,220.645,276.602,220.645z"/>
<g>
	<path style="fill:#3B484A;" d="M204.853,151.841c-4.267,0-7.726-3.459-7.726-7.726v-9.256c0-4.267,3.459-7.726,7.726-7.726
		c4.267,0,7.726,3.459,7.726,7.726v9.256C212.579,148.381,209.12,151.841,204.853,151.841z"/>
	<path style="fill:#3B484A;" d="M307.143,151.841c-4.267,0-7.726-3.459-7.726-7.726v-9.256c0-4.267,3.459-7.726,7.726-7.726
		s7.726,3.459,7.726,7.726v9.256C314.87,148.381,311.41,151.841,307.143,151.841z"/>
	<path style="fill:#3B484A;" d="M255.998,156.781c-7.149,0-13.87-2.999-18.44-8.226c-2.808-3.213-2.481-8.094,0.732-10.902
		c3.213-2.808,8.093-2.481,10.902,0.732c1.635,1.871,4.116,2.943,6.805,2.943s5.172-1.073,6.806-2.943
		c2.809-3.214,7.689-3.541,10.902-0.731c3.213,2.808,3.541,7.689,0.731,10.902C269.868,153.784,263.146,156.781,255.998,156.781z"/>
</g>
<g>
</g>
<g>
</g>
<g>
</g>
<g>
</g>
<g>
</g>
<g>
</g>
<g>
</g>
<g>
</g>
<g>
</g>
<g>
</g>
<g>
</g>
<g>
</g>
<g>
</g>
<g>
</g>
<g>
</g>
</svg>
