<?xml version="1.0" encoding="iso-8859-1"?>
<!-- Generator: Adobe Illustrator 19.0.0, SVG Export Plug-In . SVG Version: 6.00 Build 0)  -->
<svg version="1.1" id="Capa_1" xmlns="http://www.w3.org/2000/svg" xmlns:xlink="http://www.w3.org/1999/xlink" x="0px" y="0px"
	 viewBox="0 0 511.999 511.999" style="enable-background:new 0 0 511.999 511.999;" xml:space="preserve">
<path style="fill:#C86D5C;" d="M388.69,93.019l-31.598-31.598c-4.229-4.229-11.085-4.229-15.314,0l-24.262,24.262l46.911,46.911
	l24.262-24.262C392.919,104.104,392.919,97.248,388.69,93.019z"/>
<path style="fill:#B24D40;" d="M388.69,93.019l-16.755-16.755c4.229,4.229,4.229,11.085,0,15.314l-24.263,24.263l16.754,16.754
	l24.263-24.263C392.919,104.104,392.919,97.248,388.69,93.019z"/>
<path style="fill:#999999;" d="M444.794,151.404c39.467,14.697,63.318,12.378,63.318,12.378
	c14.697,14.697-13.556,66.777-63.106,116.327s-101.63,77.802-116.327,63.106c0,0,2.319-23.851-12.378-63.318L444.794,151.404z"/>
<path style="fill:#C86D5C;" d="M202.468,294.554c60.976-84.206,129.253-121.649,129.253-121.649l-90.735-10.69
	C132.483,301.69,53.871,357.007,17.496,377.332c-16.021,8.952-22.168,29.006-13.676,45.275c6.656,12.75,18.281,25.29,38.582,30.202
	c11.028,2.668,22.664-0.428,30.977-8.15C94.675,424.874,143.362,376.177,202.468,294.554z"/>
<path style="fill:#B24D40;" d="M202.468,294.554c60.976-84.206,129.253-121.649,129.253-121.649l-34.707-4.089
	c-24.489,16.993-69.207,52.59-110.571,109.712c-59.107,81.622-107.793,130.32-129.09,150.105
	c-8.313,7.722-19.948,10.818-30.977,8.15c-7.412-1.794-13.663-4.607-18.942-8.073c7.007,10.482,17.931,19.976,34.967,24.098
	c11.028,2.668,22.664-0.428,30.977-8.15C94.675,424.874,143.362,376.177,202.468,294.554z"/>
<path style="fill:#B3B3B3;" d="M399.387,234.49c-25.189,25.189-55.168,40.737-83.086,45.405
	c-11.527-30.945-33.529-71.5-75.316-117.681c-10.637-11.747-10.241-29.751,0.965-40.958l44.204-44.204
	c11.207-11.207,29.211-11.602,40.958-0.965c46.181,41.786,86.736,63.79,117.681,75.317
	C440.125,179.321,424.576,209.301,399.387,234.49z"/>
<g>
</g>
<g>
</g>
<g>
</g>
<g>
</g>
<g>
</g>
<g>
</g>
<g>
</g>
<g>
</g>
<g>
</g>
<g>
</g>
<g>
</g>
<g>
</g>
<g>
</g>
<g>
</g>
<g>
</g>
</svg>
