<?xml version="1.0" encoding="iso-8859-1"?>
<!-- Generator: Adobe Illustrator 19.0.0, SVG Export Plug-In . SVG Version: 6.00 Build 0)  -->
<svg version="1.1" id="Capa_1" xmlns="http://www.w3.org/2000/svg" xmlns:xlink="http://www.w3.org/1999/xlink" x="0px" y="0px"
	 viewBox="0 0 512 512" style="enable-background:new 0 0 512 512;" xml:space="preserve">
<path style="fill:#333E40;" d="M314.833,412.907c4.77,44.72-10.732,65.813-10.732,65.813h-73.938v-30.037
	c-51.876,34.584-93.215,29.813-122.065,29.813H0v-38.161l39.95-32.795l193.788-36.373L314.833,412.907z"/>
<path style="fill:#FAA330;" d="M351.802,113.578L250.833,82.341l-102.956,31.237c0,0,13.118,119.255-9.541,184.844
	S0,299.615,0,440.336h108.096c28.851,0,57.515-4.631,84.898-13.715l0,0c27.383-9.084,56.047-13.715,84.898-13.715h36.94
	c4.969-24.224,3.144-46.83,0.255-62.932c-2.973-16.57-1.473-33.616,4.476-49.365C352.792,212.637,351.802,113.578,351.802,113.578z"
	/>
<path style="fill:#F09318;" d="M351.802,113.579L250.833,82.342l-102.956,31.237c0,0,1.339,12.19,2.423,30.905h200.405
	C351.919,125.395,351.802,113.579,351.802,113.579z"/>
<path style="fill:#FAA330;" d="M358.476,31.343c-3.061-12.846-14.522-21.914-27.728-21.914H170.915
	c-13.206,0-24.667,9.068-27.728,21.914c-4.735,19.87-10.418,40.489-10.418,82.235h236.125
	C368.894,71.833,363.211,51.214,358.476,31.343z"/>
<path style="fill:#3B484A;" d="M457.938,436.758c4.77,44.72-10.732,65.813-10.732,65.813h-73.938v-30.037
	c-51.876,34.584-93.215,29.813-122.065,29.813H143.106v-38.161l39.95-32.795l193.788-36.373L457.938,436.758z"/>
<path style="fill:#FFCE1C;" d="M494.907,137.43l-100.969-31.237L290.982,137.43c0,0,13.118,119.255-9.54,184.844
	c-22.659,65.59-138.336,1.193-138.336,141.913h108.096c28.851,0,57.515-4.631,84.898-13.715l0,0
	c27.383-9.084,56.047-13.715,84.898-13.715h36.94c4.969-24.224,3.144-46.83,0.255-62.932c-2.973-16.57-1.473-33.616,4.476-49.365
	C495.897,236.488,494.907,137.43,494.907,137.43z"/>
<path style="fill:#FAA330;" d="M494.907,137.43l-100.969-31.237L290.982,137.43c0,0,1.339,12.19,2.423,30.905h200.406
	C495.025,149.246,494.907,137.43,494.907,137.43z"/>
<path style="fill:#FFCE1C;" d="M501.583,55.195c-3.061-12.846-14.522-21.914-27.728-21.914H314.022
	c-13.206,0-24.667,9.068-27.728,21.914c-4.735,19.87-10.418,40.489-10.418,82.235H512C512,95.684,506.318,75.065,501.583,55.195z"/>
<g>
</g>
<g>
</g>
<g>
</g>
<g>
</g>
<g>
</g>
<g>
</g>
<g>
</g>
<g>
</g>
<g>
</g>
<g>
</g>
<g>
</g>
<g>
</g>
<g>
</g>
<g>
</g>
<g>
</g>
</svg>
