<?xml version="1.0" encoding="iso-8859-1"?>
<!-- Generator: Adobe Illustrator 19.0.0, SVG Export Plug-In . SVG Version: 6.00 Build 0)  -->
<svg version="1.1" id="Capa_1" xmlns="http://www.w3.org/2000/svg" xmlns:xlink="http://www.w3.org/1999/xlink" x="0px" y="0px"
	 viewBox="0 0 512 512" style="enable-background:new 0 0 512 512;" xml:space="preserve">
<g>
	<path style="fill:#42C3E2;" d="M157.915,11.143h-27.667c-6.488,0-11.748,5.26-11.748,11.748v15.321
		c0,6.488,5.26,11.748,11.748,11.748h27.667l17.933-19.409L157.915,11.143z"/>
	<path style="fill:#42C3E2;" d="M198.899,55.107l-25.846,7.367c0,0-7.65,39.823-36.609,57.681c-4.844,2.986-6.187,9.439-3.086,14.21
		l3.109,4.783c2.676,4.117,7.904,5.763,12.449,3.906c34.54-14.112,52.847-57.42,52.847-57.42L198.899,55.107z"/>
</g>
<g>
	<path style="fill:#00A6C8;" d="M198.899,55.107l-25.846,7.367c0,0-2.146,11.16-8.46,24.313c3.145,0.993,8.273,3.667,13.183,11.89
		c4.067,6.811,5.721,13.63,5.934,14.562l0.278,1.578c11.717-14.857,17.775-29.184,17.775-29.184L198.899,55.107z"/>
	<polygon style="fill:#00A6C8;" points="157.915,49.961 175.849,30.552 157.915,11.143 137.312,11.143 137.312,49.961 	"/>
</g>
<path style="fill:#D9D9D9;" d="M391.008,97.34l-46.154-64.094C329.822,12.371,316.145,0,290.421,0H169.059
	c-6.154,0-11.143,4.989-11.143,11.143v38.817c0,5.377,3.846,9.965,9.132,10.954c33.961,6.353,41.926,47.301,41.926,47.301
	l47.028,32.2l47.028-32.2h18.755l48.023,16.097c7.386,2.999,15.866,0.738,20.778-5.541l0,0
	C395.475,112.517,395.648,103.784,391.008,97.34z"/>
<polygon style="fill:#00A6C8;" points="208.972,108.215 208.972,172.617 256,194.663 303.028,172.617 303.028,108.215 "/>
<polygon style="fill:#0095B3;" points="250.179,172.617 250.179,108.215 208.972,108.215 208.972,172.617 256,194.663 
	276.604,185.004 "/>
<path style="fill:#42C3E2;" d="M349.835,512L349.835,512c25.851,0,46.807-20.956,46.807-46.807V293.558
	c0-67.576-93.615-120.942-93.615-120.942h-94.056c0,0-93.615,53.366-93.615,120.942v171.633c0,25.851,20.956,46.807,46.807,46.807
	l0,0h187.67V512z"/>
<path style="fill:#00A6C8;" d="M156.565,465.193V293.558c0-67.575,93.615-120.942,93.615-120.942h-41.207
	c0,0-93.615,53.366-93.615,120.942v171.633c0,25.851,20.956,46.807,46.807,46.807l0,0h41.207
	C177.521,512,156.565,491.044,156.565,465.193z"/>
<path style="fill:#F0F0F0;" d="M341.906,296.397H170.094c-11.04,0-19.991,8.95-19.991,19.991v146.433
	c0,8.234,6.675,14.909,14.909,14.909h181.974c8.234,0,14.909-6.675,14.909-14.909V316.388
	C361.895,305.348,352.946,296.397,341.906,296.397z"/>
<path style="fill:#D9D9D9;" d="M156.565,465.193V301.702c-3.963,3.653-6.46,8.871-6.46,14.685V462.82
	c0,5.618,3.109,10.505,7.699,13.046C157.002,472.437,156.565,468.866,156.565,465.193z"/>
<g>
	<path style="fill:#3B484A;" d="M189.53,397.594c-4.267,0-7.726-3.459-7.726-7.726v-12.03c0-4.267,3.459-7.726,7.726-7.726
		c4.267,0,7.726,3.459,7.726,7.726v12.03C197.256,394.135,193.797,397.594,189.53,397.594z"/>
	<path style="fill:#3B484A;" d="M322.47,397.594c-4.267,0-7.726-3.459-7.726-7.726v-12.03c0-4.267,3.459-7.726,7.726-7.726
		s7.726,3.459,7.726,7.726v12.03C330.197,394.135,326.737,397.594,322.47,397.594z"/>
	<path style="fill:#3B484A;" d="M256,404.015c-8.625,0-16.724-3.609-22.223-9.9c-2.808-3.213-2.481-8.093,0.732-10.902
		c3.211-2.808,8.093-2.481,10.902,0.732c2.564,2.934,6.424,4.616,10.588,4.616s8.024-1.682,10.589-4.617
		c2.809-3.213,7.689-3.541,10.902-0.731c3.212,2.809,3.54,7.689,0.731,10.902C272.723,400.408,264.624,404.015,256,404.015z"/>
</g>
<g>
</g>
<g>
</g>
<g>
</g>
<g>
</g>
<g>
</g>
<g>
</g>
<g>
</g>
<g>
</g>
<g>
</g>
<g>
</g>
<g>
</g>
<g>
</g>
<g>
</g>
<g>
</g>
<g>
</g>
</svg>
