<?xml version="1.0" encoding="iso-8859-1"?>
<!-- Generator: Adobe Illustrator 19.0.0, SVG Export Plug-In . SVG Version: 6.00 Build 0)  -->
<svg version="1.1" id="Capa_1" xmlns="http://www.w3.org/2000/svg" xmlns:xlink="http://www.w3.org/1999/xlink" x="0px" y="0px"
	 viewBox="0 0 512 512" style="enable-background:new 0 0 512 512;" xml:space="preserve">
<path style="fill:#B3B3B3;" d="M492.164,19.835c-65.721-65.721-228.626,44.484-330.404,146.439
	c-20.302,20.337-20.627,52.984-2.382,75.185c20.802,25.312,22.064,50.413,22.064,50.413l38.684,38.684
	c0,0,25.101,1.262,50.413,22.064c22.2,18.246,54.848,17.92,75.185-2.382C447.68,248.461,557.886,85.556,492.164,19.835z"/>
<path style="fill:#999999;" d="M492.164,19.835c-2.41-2.41-4.953-4.576-7.617-6.522c29.656,83.112-77.626,236.568-177.683,336.451
	c-5.62,5.61-12.095,9.829-19.028,12.687c19.73,7.12,42.385,3.266,57.889-12.212C447.68,248.461,557.886,85.557,492.164,19.835z"/>
<path style="fill:#D9D9D9;" d="M242.066,303.966c2.833-3.313,4.715-7.331,5.449-11.628l0,0c2.799-16.404-11.45-30.652-27.854-27.854
	l0,0c-4.297,0.733-8.315,2.616-11.628,5.449l-70.429,58.107l12.173,34.182l34.182,12.172L242.066,303.966z"/>
<path style="fill:#C86D5C;" d="M160.294,369.663l-44.699-19.613c0,0-40.136,24.519-100.218,79.677
	c-19.87,18.242-20.594,49.342-1.521,68.415l0,0c19.074,19.074,50.174,18.351,68.415-1.521
	c55.158-60.082,79.677-100.219,79.677-100.219L160.294,369.663z M70.559,467.218c-7.119,7.119-18.66,7.119-25.778,0
	s-7.119-18.66,0-25.778s18.66-7.119,25.778,0C77.677,448.559,77.677,460.1,70.559,467.218z"/>
<path style="fill:#B24D40;" d="M82.271,496.623c55.158-60.082,79.677-100.219,79.677-100.219l-1.656-26.742l-14.049-6.164
	l1.135,18.337c0,0-24.519,40.137-79.677,100.219c-15.846,17.261-41.39,20.064-60.329,8.004c1.823,2.864,3.979,5.58,6.483,8.086l0,0
	C32.929,517.218,64.029,516.495,82.271,496.623z"/>
<g>
	<path style="fill:#3B484A;" d="M286.808,128.914c-1.977,0-3.955-0.754-5.463-2.263c-3.017-3.017-3.017-7.909,0-10.926l9.412-9.412
		c3.017-3.017,7.91-3.017,10.926,0c3.017,3.017,3.017,7.909,0,10.926l-9.412,9.412C290.763,128.16,288.786,128.914,286.808,128.914z
		"/>
	<path style="fill:#3B484A;" d="M390.812,232.918c-1.977,0-3.955-0.754-5.463-2.263c-3.017-3.017-3.017-7.909,0-10.926l9.412-9.412
		c3.017-3.017,7.91-3.017,10.926,0c3.017,3.017,3.017,7.909,0,10.926l-9.412,9.412C394.767,232.164,392.79,232.918,390.812,232.918z
		"/>
	<path style="fill:#3B484A;" d="M350.783,193.147c-8.289,0-16.378-3.388-22.46-9.47c-6.579-6.579-10.006-15.506-9.401-24.495
		c0.285-4.258,3.967-7.474,8.226-7.191c4.258,0.286,7.477,3.969,7.191,8.227c-0.305,4.539,1.486,9.107,4.911,12.532
		c3.426,3.426,7.998,5.217,12.532,4.911c4.251-0.283,7.941,2.934,8.226,7.191c0.286,4.258-2.934,7.941-7.191,8.227
		C352.139,193.124,351.461,193.147,350.783,193.147z"/>
</g>
<path style="fill:#B3B3B3;" d="M183.959,374.395l-46.354-46.354c-6.078-6.078-15.932-6.078-22.01,0
	c-6.078,6.078-6.078,15.932,0,22.01l46.354,46.354c6.078,6.078,15.932,6.078,22.01,0
	C190.036,390.327,190.036,380.473,183.959,374.395z"/>
<path style="fill:#999999;" d="M183.959,374.395l-14.569-14.569c6.078,6.078,6.078,15.932,0,22.01s-15.932,6.078-22.01,0
	l14.569,14.569c6.078,6.078,15.932,6.078,22.01,0C190.037,390.327,190.037,380.473,183.959,374.395z"/>
<g>
</g>
<g>
</g>
<g>
</g>
<g>
</g>
<g>
</g>
<g>
</g>
<g>
</g>
<g>
</g>
<g>
</g>
<g>
</g>
<g>
</g>
<g>
</g>
<g>
</g>
<g>
</g>
<g>
</g>
</svg>
