<?xml version="1.0" encoding="iso-8859-1"?>
<!-- Generator: Adobe Illustrator 19.0.0, SVG Export Plug-In . SVG Version: 6.00 Build 0)  -->
<svg version="1.1" id="Capa_1" xmlns="http://www.w3.org/2000/svg" xmlns:xlink="http://www.w3.org/1999/xlink" x="0px" y="0px"
	 viewBox="0 0 512 512" style="enable-background:new 0 0 512 512;" xml:space="preserve">
<path style="fill:#00AE95;" d="M292.565,153.732c35.254,0,63.833-28.579,63.833-63.833s-28.579-63.833-63.833-63.833
	c-5.293,0-10.432,0.656-15.35,1.871c-11.584-16.135-30.494-26.656-51.874-26.656c-18.929,0-35.926,8.247-47.615,21.334
	c-8.657-4.388-18.439-6.875-28.808-6.875c-35.254,0-63.833,28.579-63.833,63.833c0,7.169,1.199,14.054,3.379,20.486
	c-5.837-3.924-12.862-6.215-20.424-6.215c-20.245,0-36.657,16.412-36.657,36.657s16.412,36.657,36.657,36.657h200.565
	L292.565,153.732z"/>
<path style="fill:#C86D5C;" d="M133.985,347.842c0,0-69.709-55.033-67.645-114.648l33.799-23.985l25.582,23.985
	c4.647,36.894,75.537,66.546,75.537,66.546l1.594,48.103h-68.868V347.842z"/>
<path style="fill:#B24D40;" d="M119.299,320.649l-8.95,4.835c12.911,13.889,23.638,22.359,23.638,22.359h68.869l-1.594-48.103
	c0,0-13.785-5.768-29.595-15.378C144.142,306.969,119.755,320.401,119.299,320.649z"/>
<path style="fill:#C86D5C;" d="M342.598,347.842c0,0,42.859-69.44,39.244-138.634l-45.956-26.832l-66.095,26.832
	c-33.047,83.136-135.805,138.634-135.805,138.634L257.398,368.6L342.598,347.842z"/>
<path style="fill:#FAA330;" d="M117.978,461.247v34.983c0,8.002,6.487,14.49,14.489,14.49h55.896c8.002,0,14.49-6.487,14.49-14.49
	v-34.983H117.978z"/>
<path style="fill:#F09318;" d="M159.186,496.23v-34.983h-41.207v34.983c0,8.002,6.487,14.49,14.489,14.49h41.207
	C165.673,510.719,159.186,504.232,159.186,496.23z"/>
<path style="fill:#FAA330;" d="M396.817,461.247v34.983c0,8.002-6.487,14.49-14.49,14.49h-55.896c-8.002,0-14.49-6.487-14.49-14.49
	v-34.983H396.817z"/>
<path style="fill:#FFCE1C;" d="M15.419,389.358c0,0,21.318,89.739,102.56,89.739h278.839c81.242,0,102.56-89.739,102.56-89.739
	L257.398,368.6L15.419,389.358z"/>
<path style="fill:#FAA330;" d="M66.928,389.358l216.225-18.548l-25.755-2.21L15.419,389.358c0,0,21.318,89.739,102.56,89.739h51.509
	C88.245,479.097,66.928,389.358,66.928,389.358z"/>
<g>
	<path style="fill:#3B484A;" d="M188.879,443.975c-4.268,0-7.726-3.459-7.726-7.726v-12.4c0-4.267,3.458-7.726,7.726-7.726
		c4.268,0,7.726,3.459,7.726,7.726v12.4C196.605,440.517,193.146,443.975,188.879,443.975z"/>
	<path style="fill:#3B484A;" d="M325.916,443.975c-4.268,0-7.726-3.459-7.726-7.726v-12.4c0-4.267,3.458-7.726,7.726-7.726
		c4.268,0,7.726,3.459,7.726,7.726v12.4C333.643,440.517,330.184,443.975,325.916,443.975z"/>
	<path style="fill:#3B484A;" d="M257.397,450.595c-8.821,0-17.105-3.69-22.729-10.124c-2.809-3.213-2.481-8.094,0.732-10.902
		c3.211-2.808,8.092-2.481,10.901,0.732c2.689,3.076,6.733,4.841,11.095,4.841c4.362,0,8.405-1.765,11.095-4.84
		c2.808-3.214,7.689-3.541,10.901-0.732c3.213,2.808,3.542,7.689,0.732,10.902C274.503,446.905,266.218,450.595,257.397,450.595z"/>
</g>
<g>
	<path style="fill:#2FC8B4;" d="M163.684,233.194c17.261,0,31.254-13.993,31.254-31.254c0-13.031-7.978-24.195-19.313-28.886
		c-3.156-23.427-23.216-41.495-47.509-41.495c-20.824,0-38.541,13.277-45.166,31.825c-5.455-3.815-12.088-6.06-19.25-6.06
		c-17.025,0-31.087,12.65-33.321,29.062c-2.074-0.588-4.259-0.91-6.521-0.91C10.682,185.478,0,196.16,0,209.336
		c0,13.176,10.682,23.858,23.858,23.858H163.684z"/>
	<path style="fill:#2FC8B4;" d="M354.108,311.681c-13.051,0-23.631-10.58-23.631-23.631c0-9.854,6.032-18.295,14.603-21.842
		c2.387-17.714,17.554-31.375,35.922-31.375c15.746,0,29.143,10.039,34.152,24.064c4.125-2.885,9.141-4.581,14.555-4.581
		c12.873,0,23.506,9.565,25.195,21.975c1.568-0.445,3.22-0.688,4.93-0.688c9.963,0,18.039,8.077,18.039,18.039
		c0,9.963-8.077,18.039-18.039,18.039L354.108,311.681L354.108,311.681z"/>
</g>
<path style="fill:#FAA330;" d="M499.376,347.842H15.419c-6.971,0-12.624,5.652-12.624,12.624v16.27
	c0,6.971,5.652,12.624,12.624,12.624h483.957c6.971,0,12.624-5.652,12.624-12.624v-16.27
	C512,353.493,506.348,347.842,499.376,347.842z"/>
<path style="fill:#F09318;" d="M54.304,376.734v-16.27c0-6.971,5.652-12.623,12.624-12.623H15.419
	c-6.971,0-12.624,5.652-12.624,12.623v16.27c0,6.971,5.652,12.623,12.624,12.623h51.509
	C59.957,389.358,54.304,383.706,54.304,376.734z"/>
<path style="fill:#2FC8B4;" d="M454.28,209.208c24.906,0,45.096-20.191,45.096-45.096c0-18.803-11.51-34.912-27.867-41.68
	c-4.554-33.803-33.499-59.872-68.55-59.872c-30.048,0-55.612,19.158-65.17,45.921c-7.871-5.504-17.443-8.743-27.776-8.743
	c-24.566,0-44.855,18.253-48.08,41.934c-2.992-0.849-6.146-1.312-9.41-1.312c-19.012,0-34.425,15.413-34.425,34.425
	s15.413,34.425,34.425,34.425H454.28z"/>
<g>
</g>
<g>
</g>
<g>
</g>
<g>
</g>
<g>
</g>
<g>
</g>
<g>
</g>
<g>
</g>
<g>
</g>
<g>
</g>
<g>
</g>
<g>
</g>
<g>
</g>
<g>
</g>
<g>
</g>
</svg>
