<?xml version="1.0" encoding="iso-8859-1"?>
<!-- Generator: Adobe Illustrator 19.0.0, SVG Export Plug-In . SVG Version: 6.00 Build 0)  -->
<svg version="1.1" id="Capa_1" xmlns="http://www.w3.org/2000/svg" xmlns:xlink="http://www.w3.org/1999/xlink" x="0px" y="0px"
	 viewBox="0 0 512 512" style="enable-background:new 0 0 512 512;" xml:space="preserve">
<polygon style="fill:#FF5E6B;" points="483.564,292.043 512,256 483.564,219.957 499.471,176.891 461.288,151.401 463.109,105.527 
	418.917,93.083 406.473,48.891 360.599,50.712 335.109,12.529 292.043,28.437 256,0 219.957,28.437 176.891,12.529 151.401,50.712 
	105.527,48.891 93.083,93.083 48.891,105.527 50.712,151.401 12.529,176.891 28.436,219.957 0,256 28.436,292.043 12.529,335.109 
	50.712,360.599 48.891,406.473 93.083,418.917 105.527,463.109 151.401,461.288 176.891,499.47 219.957,483.564 256,512 
	292.043,483.564 335.109,499.47 360.599,461.288 406.473,463.109 418.917,418.917 463.109,406.473 461.288,360.599 499.471,335.109 
	"/>
<circle style="fill:#FFCE1C;" cx="256" cy="256" r="205.233"/>
<g>
	<path style="fill:#3B484A;" d="M159.893,267.781c-4.267,0-7.726-3.459-7.726-7.726v-17.394c0-4.267,3.459-7.726,7.726-7.726
		s7.726,3.459,7.726,7.726v17.394C167.62,264.322,164.16,267.781,159.893,267.781z"/>
	<path style="fill:#3B484A;" d="M352.107,267.781c-4.267,0-7.726-3.459-7.726-7.726v-17.394c0-4.267,3.459-7.726,7.726-7.726
		s7.726,3.459,7.726,7.726v17.394C359.833,264.322,356.374,267.781,352.107,267.781z"/>
	<path style="fill:#3B484A;" d="M256,277.065c-11.474,0-22.241-4.788-29.537-13.136c-2.808-3.213-2.481-8.094,0.732-10.902
		c3.213-2.808,8.094-2.481,10.902,0.732c4.362,4.991,10.888,7.853,17.902,7.853c7.016,0,13.542-2.863,17.904-7.853
		c2.808-3.213,7.689-3.541,10.902-0.732c3.213,2.808,3.541,7.689,0.732,10.902C278.241,272.278,267.474,277.065,256,277.065z"/>
</g>
<g>
</g>
<g>
</g>
<g>
</g>
<g>
</g>
<g>
</g>
<g>
</g>
<g>
</g>
<g>
</g>
<g>
</g>
<g>
</g>
<g>
</g>
<g>
</g>
<g>
</g>
<g>
</g>
<g>
</g>
</svg>
