<?xml version="1.0" encoding="iso-8859-1"?>
<!-- Generator: Adobe Illustrator 19.0.0, SVG Export Plug-In . SVG Version: 6.00 Build 0)  -->
<svg version="1.1" id="Capa_1" xmlns="http://www.w3.org/2000/svg" xmlns:xlink="http://www.w3.org/1999/xlink" x="0px" y="0px"
	 viewBox="0 0 512 512" style="enable-background:new 0 0 512 512;" xml:space="preserve">
<path style="fill:#2FC8B4;" d="M147.799,425.39c1.575,19.997,16.222,40.637,39.379,52.25c23.156,11.613,48.459,11.007,65.426,0.309
	c-1.575-19.997-16.222-40.637-39.379-52.25C190.068,414.086,164.767,414.693,147.799,425.39z"/>
<path style="fill:#00AE95;" d="M252.598,485.677c-1.164,0-2.346-0.264-3.457-0.821l-63.249-31.718
	c-3.815-1.913-5.356-6.556-3.443-10.37c1.912-3.815,6.557-5.356,10.37-3.443l63.249,31.718c3.815,1.913,5.356,6.556,3.443,10.37
	C258.155,484.115,255.428,485.677,252.598,485.677z"/>
<path style="fill:#2FC8B4;" d="M364.201,425.39c-1.575,19.997-16.222,40.637-39.379,52.25
	c-23.156,11.613-48.459,11.007-65.426,0.309c1.575-19.997,16.222-40.637,39.379-52.25
	C321.931,414.086,347.232,414.693,364.201,425.39z"/>
<g>
	<path style="fill:#00AE95;" d="M259.401,485.677c-2.831,0-5.557-1.562-6.913-4.265c-1.913-3.815-0.372-8.457,3.443-10.37
		l63.249-31.718c3.817-1.913,8.458-0.371,10.37,3.443c1.913,3.815,0.372,8.457-3.443,10.37l-63.249,31.718
		C261.748,485.413,260.565,485.677,259.401,485.677z"/>
	<rect x="240.794" y="341.422" style="fill:#00AE95;" width="30.416" height="170.577"/>
</g>
<path style="fill:#FF5E6B;" d="M422.842,230.81L422.842,230.81c52.252-27.64,38.43-106.024-20.124-114.127l0,0l0,0
	c22.26-54.759-38.712-105.921-88.775-74.49l0,0l0,0c-18.147-56.257-97.74-56.257-115.887,0l0,0l0,0
	c-50.063-31.431-111.035,19.731-88.775,74.49l0,0l0,0c-58.553,8.102-72.374,86.487-20.124,114.127l0,0l0,0
	c-39.647,43.843,0.15,112.774,57.944,100.361l0,0l0,0c-2.189,59.071,72.605,86.293,108.898,39.636l0,0l0,0
	c36.293,46.658,111.086,19.435,108.898-39.636l0,0l0,0C422.691,343.585,462.488,274.654,422.842,230.81L422.842,230.81z"/>
<g>
	<path style="fill:#E63E4C;" d="M256,83.668c-4.267,0-7.726-3.459-7.726-7.726V51.345c0-4.267,3.459-7.726,7.726-7.726
		c4.267,0,7.726,3.459,7.726,7.726v24.597C263.726,80.209,260.267,83.668,256,83.668z"/>
	<path style="fill:#E63E4C;" d="M337.659,113.143c-1.541,0-3.098-0.459-4.452-1.417c-3.485-2.462-4.314-7.283-1.851-10.768
		l14.194-20.089c2.462-3.485,7.283-4.313,10.768-1.851c3.485,2.462,4.314,7.283,1.851,10.768l-14.194,20.089
		C342.471,112.005,340.083,113.143,337.659,113.143z"/>
	<path style="fill:#E63E4C;" d="M385.334,187.654c-3.588,0-6.803-2.513-7.558-6.165c-0.863-4.178,1.824-8.266,6.003-9.13
		l24.088-4.978c4.176-0.863,8.266,1.824,9.129,6.003c0.863,4.178-1.824,8.266-6.003,9.13l-24.088,4.978
		C386.378,187.602,385.852,187.654,385.334,187.654z"/>
	<path style="fill:#E63E4C;" d="M387.777,284.428c-1.331,0-2.68-0.344-3.91-1.067l-21.201-12.47
		c-3.678-2.163-4.906-6.899-2.743-10.577c2.164-3.679,6.901-4.906,10.577-2.742l21.201,12.47c3.678,2.163,4.906,6.899,2.743,10.577
		C393.004,283.065,390.425,284.428,387.777,284.428z"/>
	<path style="fill:#E63E4C;" d="M306.632,340.781c-3.315,0-6.38-2.151-7.392-5.488l-7.132-23.54
		c-1.237-4.084,1.07-8.397,5.154-9.634c4.083-1.236,8.397,1.07,9.635,5.154l7.132,23.54c1.237,4.084-1.07,8.397-5.154,9.634
		C308.129,340.673,307.374,340.781,306.632,340.781z"/>
	<path style="fill:#E63E4C;" d="M174.34,113.143c-2.425,0-4.811-1.137-6.316-3.269L153.83,89.786
		c-2.463-3.485-1.634-8.306,1.851-10.768c3.486-2.462,8.306-1.634,10.768,1.851l14.193,20.089c2.463,3.485,1.634,8.306-1.851,10.768
		C177.438,112.683,175.881,113.143,174.34,113.143z"/>
	<path style="fill:#E63E4C;" d="M126.666,187.654c-0.518,0-1.045-0.053-1.571-0.162l-24.088-4.978
		c-4.179-0.863-6.867-4.951-6.003-9.13c0.863-4.178,4.954-6.867,9.129-6.003l24.088,4.978c4.179,0.863,6.867,4.951,6.003,9.13
		C133.469,185.142,130.253,187.654,126.666,187.654z"/>
	<path style="fill:#E63E4C;" d="M124.222,284.428c-2.648,0-5.227-1.363-6.667-3.811c-2.163-3.678-0.935-8.413,2.743-10.577
		l21.201-12.47c3.676-2.163,8.412-0.935,10.577,2.742c2.163,3.678,0.935,8.413-2.743,10.577l-21.201,12.47
		C126.902,284.083,125.553,284.428,124.222,284.428z"/>
	<path style="fill:#E63E4C;" d="M205.367,340.781c-0.742,0-1.497-0.107-2.244-0.334c-4.084-1.237-6.391-5.551-5.154-9.634
		l7.132-23.54c1.237-4.084,5.549-6.391,9.635-5.154c4.084,1.237,6.391,5.551,5.154,9.634l-7.132,23.54
		C211.747,338.63,208.682,340.781,205.367,340.781z"/>
</g>
<ellipse style="fill:#FFCE1C;" cx="256" cy="197.228" rx="135.5" ry="121.283"/>
<path style="fill:#FAA330;" d="M151.407,197.225c0-62.304,52.49-113.626,120.045-120.492c-5.073-0.515-10.227-0.79-15.453-0.79
	c-74.833,0-135.498,54.3-135.498,121.282S181.166,318.507,256,318.507c5.226,0,10.38-0.274,15.453-0.79
	C203.897,310.851,151.407,259.529,151.407,197.225z"/>
<g>
	<path style="fill:#3B484A;" d="M190.582,207.71c-4.267,0-7.726-3.459-7.726-7.726v-11.84c0-4.267,3.459-7.726,7.726-7.726
		c4.267,0,7.726,3.459,7.726,7.726v11.84C198.308,204.252,194.849,207.71,190.582,207.71z"/>
	<path style="fill:#3B484A;" d="M321.417,207.71c-4.267,0-7.726-3.459-7.726-7.726v-11.84c0-4.267,3.459-7.726,7.726-7.726
		s7.726,3.459,7.726,7.726v11.84C329.144,204.252,325.684,207.71,321.417,207.71z"/>
	<path style="fill:#3B484A;" d="M256,214.03c-8.522,0-16.526-3.566-21.962-9.785c-2.808-3.213-2.481-8.094,0.731-10.902
		c3.213-2.808,8.093-2.481,10.902,0.731c2.501,2.861,6.267,4.502,10.329,4.502c4.063,0,7.828-1.641,10.329-4.502
		c2.809-3.213,7.689-3.541,10.902-0.732c3.213,2.808,3.541,7.689,0.732,10.902C272.527,210.464,264.521,214.03,256,214.03z"/>
</g>
<g>
</g>
<g>
</g>
<g>
</g>
<g>
</g>
<g>
</g>
<g>
</g>
<g>
</g>
<g>
</g>
<g>
</g>
<g>
</g>
<g>
</g>
<g>
</g>
<g>
</g>
<g>
</g>
<g>
</g>
</svg>
