<?xml version="1.0" encoding="iso-8859-1"?>
<!-- Generator: Adobe Illustrator 19.0.0, SVG Export Plug-In . SVG Version: 6.00 Build 0)  -->
<svg version="1.1" id="Capa_1" xmlns="http://www.w3.org/2000/svg" xmlns:xlink="http://www.w3.org/1999/xlink" x="0px" y="0px"
	 viewBox="0 0 512 512" style="enable-background:new 0 0 512 512;" xml:space="preserve">
<g>
	<path style="fill:#FAA330;" d="M336.68,147.213c-4.268,0-7.726-3.459-7.726-7.726c0-25.581,6.758-45.053,20.085-57.872
		c16.364-15.74,36.51-15.146,37.37-15.113c4.264,0.166,7.586,3.756,7.42,8.02c-0.165,4.264-3.744,7.587-8.02,7.42
		c-0.098-0.002-14.714-0.246-26.236,10.981c-10.065,9.807-15.168,25.474-15.168,46.564
		C344.406,143.755,340.947,147.213,336.68,147.213z"/>
	<path style="fill:#FAA330;" d="M433.879,372.065l30.416,30.416c10.913,10.913,28.607,10.913,39.52,0
		c10.913-10.913,10.913-28.607,0-39.52l-30.416-30.416L433.879,372.065z"/>
	<path style="fill:#FAA330;" d="M415.601,157.078c-4.268,0-7.726-3.459-7.726-7.726c0-25.581,6.758-45.053,20.085-57.874
		c16.364-15.74,36.509-15.145,37.369-15.113c4.264,0.166,7.586,3.756,7.42,8.02c-0.165,4.264-3.753,7.588-8.02,7.42
		c-0.104-0.002-14.714-0.246-26.235,10.981c-10.065,9.807-15.168,25.474-15.168,46.564
		C423.327,153.62,419.869,157.078,415.601,157.078z"/>
</g>
<ellipse style="fill:#C86D5C;" cx="169.31" cy="307.642" rx="169.31" ry="149.809"/>
<path style="fill:#B24D40;" d="M169.315,408.127c-66.162,0-119.989-45.078-119.989-100.486s53.827-100.486,119.989-100.486
	s119.989,45.078,119.989,100.486C289.305,363.049,235.478,408.127,169.315,408.127z"/>
<path style="fill:#C86D5C;" d="M169.315,358.801c-38.304,0-70.664-23.428-70.664-51.16c0-27.731,32.36-51.16,70.664-51.16
	s70.664,23.428,70.664,51.16C239.979,335.373,207.619,358.801,169.315,358.801z"/>
<path style="fill:#FFCE1C;" d="M361.985,122.166L361.985,122.166c-70.675,0-127.967,57.292-127.967,127.966v61.375
	c0,53.872-24.425,88.177-52.959,109.874c-15.289,11.626-6.9,36.071,12.308,36.071h123.302c95.701,0,173.282-77.581,173.282-173.282
	v-34.037C489.952,179.459,432.66,122.166,361.985,122.166z"/>
<g>
	<path style="fill:#FAA330;" d="M211.966,421.382c28.534-21.697,52.959-56.002,52.959-109.874v-61.375
		c0-65.442,49.127-119.404,112.513-127.035c-5.066-0.61-10.221-0.931-15.453-0.931l0,0c-70.673,0-127.966,57.292-127.966,127.966
		v61.375c0,53.871-24.425,88.177-52.959,109.874c-15.289,11.626-6.9,36.071,12.308,36.071h30.905
		C205.066,457.452,196.677,433.007,211.966,421.382z"/>
	<path style="fill:#FAA330;" d="M330.112,418.374c-9.134,0-18.268-3.477-25.222-10.431l-30.417-30.416
		c-3.017-3.017-3.017-7.91,0-10.927c3.018-3.017,7.91-3.017,10.927,0l30.416,30.416c7.883,7.884,20.711,7.882,28.594,0
		c7.882-7.883,7.882-20.71-0.001-28.594l-30.416-30.416c-3.017-3.017-3.017-7.91,0-10.927c3.018-3.017,7.91-3.017,10.927,0
		l30.416,30.416c13.907,13.908,13.907,36.538,0,50.447C348.381,414.898,339.247,418.374,330.112,418.374z"/>
</g>
<g>
	<path style="fill:#3B484A;" d="M348.497,249.829c-4.268,0-7.726-3.459-7.726-7.726v-9.547c0-4.267,3.458-7.726,7.726-7.726
		c4.268,0,7.726,3.459,7.726,7.726v9.547C356.223,246.369,352.765,249.829,348.497,249.829z"/>
	<path style="fill:#3B484A;" d="M453.994,249.829c-4.268,0-7.726-3.459-7.726-7.726v-9.547c0-4.267,3.458-7.726,7.726-7.726
		c4.268,0,7.726,3.459,7.726,7.726v9.547C461.72,246.369,458.261,249.829,453.994,249.829z"/>
	<path style="fill:#3B484A;" d="M401.246,254.924c-7.304,0-14.17-3.063-18.837-8.402c-2.808-3.213-2.48-8.094,0.733-10.902
		c3.212-2.808,8.093-2.481,10.902,0.732c1.732,1.982,4.357,3.118,7.201,3.118c2.844,0,5.47-1.137,7.202-3.119
		c2.809-3.212,7.69-3.54,10.902-0.73c3.212,2.808,3.541,7.69,0.731,10.902C415.413,251.862,408.548,254.924,401.246,254.924z"/>
</g>
<g>
	<circle style="fill:#FFCE1C;" cx="386.112" cy="74.224" r="19.676"/>
	<circle style="fill:#FFCE1C;" cx="465.034" cy="84.083" r="19.676"/>
</g>
<g>
</g>
<g>
</g>
<g>
</g>
<g>
</g>
<g>
</g>
<g>
</g>
<g>
</g>
<g>
</g>
<g>
</g>
<g>
</g>
<g>
</g>
<g>
</g>
<g>
</g>
<g>
</g>
<g>
</g>
</svg>
