<?xml version="1.0" encoding="iso-8859-1"?>
<!-- Generator: Adobe Illustrator 19.0.0, SVG Export Plug-In . SVG Version: 6.00 Build 0)  -->
<svg version="1.1" id="Capa_1" xmlns="http://www.w3.org/2000/svg" xmlns:xlink="http://www.w3.org/1999/xlink" x="0px" y="0px"
	 viewBox="0 0 511.998 511.998" style="enable-background:new 0 0 511.998 511.998;" xml:space="preserve">
<path style="fill:#FF5E6B;" d="M490.154,388.049l7.552-9.036v-72.927l-5.492-10.029l5.492-5.423V122.066H343.998H168.002H14.294
	v168.569l7.396,8.822l-7.396,6.629v72.927l5.459,7.262l-5.459,8.19v34.217c0,20.085,16.281,36.366,36.366,36.366h109.615
	l7.948-5.231l7.505,5.231h160.543l6.051-6.261l9.401,6.261H461.34c20.084,0,36.366-16.281,36.366-36.366v-34.216L490.154,388.049z"
	/>
<path style="fill:#E63E4C;" d="M65.803,428.683V122.067H14.294v168.569l7.396,8.822l-7.396,6.629v72.927l5.459,7.262l-5.459,8.19
	v34.217c0,20.085,16.281,36.366,36.366,36.366h51.509C82.084,465.049,65.803,448.768,65.803,428.683z"/>
<path style="fill:#F0F0F0;" d="M497.706,306.088v-15.453H351.724V122.067h-15.453v168.568H175.728V122.067h-15.453v168.568H14.294
	v15.453h57.972v72.926H14.294v15.453h145.982v70.584h15.453v-70.584h160.543v70.584h15.453v-70.584h145.982v-15.453h-57.972v-72.926
	h57.972V306.088z M87.719,306.088h160.555v72.926H87.719V306.088z M424.281,379.013H263.726v-72.926h160.555V379.013z"/>
<g>
	<rect x="14.294" y="379.013" style="fill:#D9D9D9;" width="51.509" height="15.453"/>
	<rect x="14.294" y="290.634" style="fill:#D9D9D9;" width="51.509" height="15.453"/>
</g>
<path style="fill:#2FC8B4;" d="M0,177.608c0,15.709,12.735,28.444,28.444,28.444l0,0c15.709,0,28.444-12.735,28.444-28.444v15.023
	c0,15.709,12.735,28.444,28.444,28.444l0,0c15.709,0,28.444-12.735,28.444-28.444v15.023c0,15.709,12.735,28.444,28.444,28.444l0,0
	c15.709,0,28.444-12.735,28.444-28.444v15.023c0,15.709,12.735,28.444,28.444,28.444l0,0c15.709,0,28.444-12.735,28.444-28.444
	v15.023c0,15.709,12.735,28.444,28.444,28.444l0,0c15.709,0,28.444-12.735,28.444-28.444v-15.023
	c0,15.709,12.735,28.444,28.444,28.444l0,0c15.709,0,28.444-12.735,28.444-28.444v-15.023c0,15.709,12.735,28.444,28.444,28.444l0,0
	c15.709,0,28.444-12.735,28.444-28.444v-15.022c0,15.709,12.735,28.444,28.444,28.444l0,0c15.709,0,28.444-12.735,28.444-28.444
	v-15.023c0,15.709,12.735,28.444,28.444,28.444l0,0c15.709,0,28.444-12.735,28.444-28.444V86.231
	c0-21.695-17.587-39.282-39.282-39.282H39.282C17.587,46.948,0,64.536,0,86.231V177.608z"/>
<path style="fill:#00AE95;" d="M51.509,177.608V86.23c0-21.695,17.587-39.282,39.282-39.282H39.282C17.587,46.948,0,64.536,0,86.231
	v91.378c0,15.709,12.735,28.444,28.444,28.444l0,0c11.391,0,21.212-6.697,25.755-16.366
	C52.476,186.019,51.509,181.928,51.509,177.608z"/>
<path style="fill:#FF5E6B;" d="M132.076,129.333c13.336-12.999,5.977-35.646-12.452-38.324l0,0
	c-8.241-16.699-32.055-16.699-40.297,0l0,0c-18.429,2.677-25.787,25.326-12.452,38.324l0,0c-3.148,18.355,16.117,32.352,32.6,23.686
	l0,0l0,0C115.959,161.685,135.225,147.688,132.076,129.333L132.076,129.333z"/>
<circle style="fill:#FAA330;" cx="99.474" cy="117.069" r="12.747"/>
<path style="fill:#FF5E6B;" d="M379.924,129.333c-13.336-12.999-5.977-35.646,12.452-38.324l0,0
	c8.241-16.699,32.055-16.699,40.297,0l0,0c18.429,2.677,25.788,25.326,12.452,38.324l0,0c3.148,18.355-16.117,32.352-32.6,23.686
	l0,0l0,0C396.041,161.685,376.775,147.688,379.924,129.333L379.924,129.333z"/>
<circle style="fill:#FAA330;" cx="412.526" cy="117.069" r="12.747"/>
<path style="fill:#FF5E6B;" d="M288.601,165.421c13.336-12.999,5.977-35.646-12.452-38.324l0,0
	c-8.241-16.699-32.055-16.699-40.297,0l0,0c-18.429,2.677-25.787,25.326-12.453,38.324l0,0c-3.148,18.355,16.117,32.352,32.6,23.686
	l0,0l0,0C272.484,197.772,291.748,183.776,288.601,165.421L288.601,165.421z"/>
<circle style="fill:#FAA330;" cx="256" cy="153.156" r="12.747"/>
<g>
</g>
<g>
</g>
<g>
</g>
<g>
</g>
<g>
</g>
<g>
</g>
<g>
</g>
<g>
</g>
<g>
</g>
<g>
</g>
<g>
</g>
<g>
</g>
<g>
</g>
<g>
</g>
<g>
</g>
</svg>
