<?xml version="1.0" encoding="iso-8859-1"?>
<!-- Generator: Adobe Illustrator 19.0.0, SVG Export Plug-In . SVG Version: 6.00 Build 0)  -->
<svg version="1.1" id="Capa_1" xmlns="http://www.w3.org/2000/svg" xmlns:xlink="http://www.w3.org/1999/xlink" x="0px" y="0px"
	 viewBox="0 0 512.001 512.001" style="enable-background:new 0 0 512.001 512.001;" xml:space="preserve">
<polygon style="fill:#3B484A;" points="38.52,283.096 62.011,279.022 72.574,249.043 60.637,252.066 "/>
<path style="fill:#B3B3B3;" d="M149.576,436.403l-29.083,1.781l-30.558,30.558c-6.952,6.952-18.264,6.952-25.216,0l-20.257-20.257
	c-4.547-4.547-6.274-11.08-4.612-17.238l23.149-50.557l3.572-32.37l-32.286,3.656L4.703,416.584
	c-0.305,0.668-0.572,1.353-0.799,2.053C-2.609,438.72,2.619,460.47,17.548,475.4l20.257,20.258c21.791,21.791,57.25,21.791,79.043,0
	l30.558-30.558L149.576,436.403z"/>
<g>
	<path style="fill:#999999;" d="M448.854,1.058l-0.668-0.165c-16.267-4.02-32.711,5.907-36.732,22.174l30.12,7.444L448.854,1.058z"
		/>
	<path style="fill:#999999;" d="M510.852,79.816l-0.186-0.662c-4.539-16.13-21.295-25.525-37.423-20.985l8.405,29.866
		L510.852,79.816z"/>
	<path style="fill:#999999;" d="M213.459,144.89l-0.486,0.486c-11.848,11.848-11.848,31.058,0,42.906l13.544,13.544l21.939-21.939
		L213.459,144.89z"/>
	<path style="fill:#999999;" d="M259.976,98.372l-0.486,0.486c-11.848,11.848-11.848,31.058,0,42.906l13.544,13.544l21.939-21.939
		L259.976,98.372z"/>
	<path style="fill:#999999;" d="M306.493,51.855l-0.486,0.486c-11.848,11.848-11.848,31.058,0,42.906l13.544,13.544l21.939-21.939
		L306.493,51.855z"/>
	<path style="fill:#999999;" d="M353.01,5.338l-0.486,0.486c-11.848,11.848-11.848,31.058,0,42.906l13.544,13.544l21.939-21.939
		L353.01,5.338z"/>
	<path style="fill:#999999;" d="M479.602,175.808l0.486-0.486c11.848-11.848,11.848-31.058,0-42.906l-13.544-13.544l-21.939,21.939
		L479.602,175.808z"/>
	<path style="fill:#999999;" d="M433.084,222.325l0.486-0.486c11.848-11.848,11.848-31.058,0-42.906l-13.544-13.544l-21.939,21.939
		L433.084,222.325z"/>
	<path style="fill:#999999;" d="M386.568,268.842l0.486-0.486c11.848-11.848,11.848-31.058,0-42.906l-13.544-13.544l-21.939,21.939
		L386.568,268.842z"/>
	<path style="fill:#999999;" d="M340.051,315.359l0.486-0.486c11.848-11.848,11.848-31.058,0-42.906l-13.544-13.544l-21.939,21.939
		L340.051,315.359z"/>
</g>
<path style="fill:#B3B3B3;" d="M462.486,44.394L462.486,44.394c-29.168-29.168-76.458-29.168-105.625,0L191.265,209.989
	l14.732,90.893l90.893,14.732l165.595-165.595C491.653,120.851,491.653,73.561,462.486,44.394z"/>
<path style="fill:#D9D9D9;" d="M438.245,68.635c-15.755-15.755-41.389-15.755-57.143,0L215.506,234.229l7.423,49.721l49.721,7.423
	l165.595-165.595C453.999,110.023,453.999,84.389,438.245,68.635z"/>
<g>
	<polygon style="fill:#999999;" points="49.272,410.67 62.999,380.691 66.571,348.321 34.286,351.977 20.559,381.957 	"/>
	<polygon style="fill:#999999;" points="125.553,486.951 147.407,465.098 149.576,436.403 120.493,438.184 98.64,460.039 	"/>
	<polygon style="fill:#999999;" points="209.476,191.777 209.476,191.777 191.265,209.989 205.997,300.882 296.89,315.613 
		315.102,297.403 	"/>
</g>
<polygon style="fill:#B3B3B3;" points="233.718,216.018 215.506,234.229 222.93,283.95 272.65,291.373 290.861,273.162 "/>
<path style="fill:#FAA330;" d="M191.265,209.989c-21.991-21.991-57.646-21.991-79.637,0L22.477,299.14
	c-11.33,11.33-11.33,29.699,0,41.029l124.929,124.929L296.89,315.613L191.265,209.989z"/>
<path style="fill:#F09318;" d="M47.201,323.863l89.151-89.151c21.991-21.991,57.646-21.991,79.637,0l-24.724-24.724
	c-21.991-21.991-57.646-21.991-79.637,0l-89.151,89.151c-11.33,11.33-11.33,29.699,0,41.029l24.724,24.724
	C35.871,353.563,35.871,335.194,47.201,323.863z"/>
<g>
	<path style="fill:#3B484A;" d="M38.52,283.096L15.339,165.462c-3.039-15.423,0.109-31.105,8.866-44.16
		c8.757-13.055,22.073-21.918,37.495-24.957c15.423-3.04,31.105,0.109,44.161,8.865s21.918,22.073,24.957,37.495l28.502,144.629
		c2.136,10.835-4.917,21.35-15.754,23.486c-10.836,2.137-21.352-4.916-23.487-15.754L91.577,150.438
		c-2.011-10.199-11.946-16.862-22.144-14.853c-4.942,0.974-9.208,3.814-12.014,7.996c-2.805,4.183-3.814,9.208-2.84,14.148
		l17.995,91.314L38.52,283.096z"/>
	<path style="fill:#3B484A;" d="M158.47,407.934c-1.977,0-3.955-0.754-5.463-2.263c-3.017-3.017-3.017-7.91,0-10.927l54.834-54.833
		c3.017-3.017,7.91-3.017,10.926,0c3.017,3.017,3.017,7.91,0,10.927l-54.834,54.833C162.425,407.18,160.448,407.934,158.47,407.934z
		"/>
	<path style="fill:#3B484A;" d="M133.876,383.339c-1.977,0-3.955-0.754-5.463-2.263c-3.017-3.017-3.017-7.91,0-10.927l35.441-35.441
		c3.017-3.017,7.91-3.017,10.926,0c3.017,3.017,3.017,7.91,0,10.927l-35.441,35.441
		C137.829,382.585,135.852,383.339,133.876,383.339z"/>
</g>
<circle style="fill:#B3B3B3;" cx="397.846" cy="109.034" r="15.263"/>
<g>
</g>
<g>
</g>
<g>
</g>
<g>
</g>
<g>
</g>
<g>
</g>
<g>
</g>
<g>
</g>
<g>
</g>
<g>
</g>
<g>
</g>
<g>
</g>
<g>
</g>
<g>
</g>
<g>
</g>
</svg>
