<?xml version="1.0" encoding="iso-8859-1"?>
<!-- Generator: Adobe Illustrator 19.0.0, SVG Export Plug-In . SVG Version: 6.00 Build 0)  -->
<svg version="1.1" id="Capa_1" xmlns="http://www.w3.org/2000/svg" xmlns:xlink="http://www.w3.org/1999/xlink" x="0px" y="0px"
	 viewBox="0 0 512 512" style="enable-background:new 0 0 512 512;" xml:space="preserve">
<path style="fill:#00AE95;" d="M138.929,4.801c-12.123,31.508-1.044,73.96,30.481,105.484s73.976,42.604,105.484,30.481
	c12.123-31.508,1.044-73.96-30.481-105.484S170.437-7.322,138.929,4.801z"/>
<path style="fill:#2FC8B4;" d="M279.702,155.861c-2.842,0-5.577-1.574-6.927-4.293c-0.369-0.742-36.422-72.026-104.904-107.269
	c-3.794-1.952-5.287-6.612-3.335-10.406c1.953-3.794,6.612-5.287,10.406-3.335c73.123,37.63,110.136,111.035,111.676,114.142
	c1.896,3.823,0.332,8.459-3.491,10.354C282.025,155.601,280.854,155.861,279.702,155.861z"/>
<path style="fill:#00AE95;" d="M142.128,239.715c-5.867,25.304,7.117,56.465,34.509,77.114s60.925,24.549,83.635,11.941
	c5.867-25.304-7.117-56.465-34.509-77.114S164.839,227.107,142.128,239.715z"/>
<path style="fill:#2FC8B4;" d="M264.727,341.596c-2.465,0-4.887-1.176-6.384-3.365c-0.474-0.688-35.252-50.545-90.524-69.835
	c-4.029-1.406-6.155-5.812-4.749-9.84c1.405-4.028,5.812-6.155,9.84-4.749c60.29,21.041,96.668,73.48,98.188,75.701
	c2.409,3.522,1.505,8.331-2.017,10.739C267.746,341.159,266.229,341.596,264.727,341.596z"/>
<path style="fill:#00AE95;" d="M439.333,110.533c10.882,28.282,0.937,66.386-27.36,94.682s-66.4,38.241-94.682,27.36
	c-10.882-28.282-0.937-66.386,27.36-94.682S411.053,99.651,439.333,110.533z"/>
<g>
	<path style="fill:#2FC8B4;" d="M312.976,246.91c-1.154,0-2.325-0.26-3.428-0.808c-3.82-1.897-5.382-6.527-3.487-10.349
		c1.387-2.798,34.722-68.91,100.587-102.805c3.795-1.953,8.454-0.459,10.406,3.335c1.952,3.794,0.459,8.453-3.335,10.406
		c-61.235,31.513-93.495,95.293-93.814,95.933C318.552,245.337,315.818,246.91,312.976,246.91z"/>
	<path style="fill:#2FC8B4;" d="M239.444,463.667c-2.763-16.518-4.593-33.112-5.217-49.855
		c-1.214-32.539,4.778-65.704,20.235-94.562c10.423-19.462,23.545-37.373,33.201-57.263c11.225-23.12,6.619-48.665-1.851-71.786
		c-5.96-16.245-13.726-31.71-21.756-47.011l-0.096-0.182c-2.784-5.303-0.741-11.859,4.564-14.643
		c4.973-2.609,11.073-0.934,14.106,3.651c10.178,15.39,19.897,31.294,27.468,48.155c10.836,24.134,18.009,50.638,12.266,77.104
		c-5.954,27.449-24.349,49.489-36.014,74.484c-11.006,23.586-15.01,49.521-14.571,75.403c0.286,16.918,2.47,33.735,5.114,50.425
		c1.638,10.348-5.422,20.065-15.77,21.703C250.831,480.92,241.162,473.943,239.444,463.667z"/>
</g>
<path style="fill:#00AE95;" d="M239.444,463.667c1.719,10.277,11.387,17.252,21.679,15.624c10.348-1.638,17.408-11.355,15.77-21.703
	c-2.642-16.691-4.826-33.509-5.114-50.425c-0.079-4.675-0.008-9.352,0.217-14.016c-5.262-0.58-10.605-0.879-15.997-0.879
	c-7.31,0-14.529,0.552-21.58,1.61c-0.371,6.644-0.44,13.302-0.193,19.934C234.852,430.554,236.681,447.148,239.444,463.667z"/>
<path style="fill:#C86D5C;" d="M487.684,512c-13.5-18.481-39.664-31.137-69.874-31.577c-14.208-20.474-42.975-34.488-76.177-34.488
	c-6.3,0-12.433,0.518-18.345,1.475c-15.68-14.753-39.982-24.237-67.288-24.237c-27.306,0-51.608,9.484-67.288,24.237
	c-5.912-0.957-12.046-1.475-18.345-1.475c-33.202,0-61.968,14.015-76.177,34.488C63.98,480.863,37.815,493.519,24.317,512H487.684z"
	/>
<path style="fill:#B24D40;" d="M170.366,445.935c-33.202,0-61.968,14.015-76.177,34.488c-30.21,0.44-56.375,13.096-69.873,31.577
	h136.952C188.671,452.453,256,423.173,256,423.173c-27.306,0-51.608,9.484-67.288,24.237
	C182.8,446.454,176.666,445.935,170.366,445.935z"/>
<g>
</g>
<g>
</g>
<g>
</g>
<g>
</g>
<g>
</g>
<g>
</g>
<g>
</g>
<g>
</g>
<g>
</g>
<g>
</g>
<g>
</g>
<g>
</g>
<g>
</g>
<g>
</g>
<g>
</g>
</svg>
