<?xml version="1.0" encoding="iso-8859-1"?>
<!-- Generator: Adobe Illustrator 19.0.0, SVG Export Plug-In . SVG Version: 6.00 Build 0)  -->
<svg version="1.1" id="Capa_1" xmlns="http://www.w3.org/2000/svg" xmlns:xlink="http://www.w3.org/1999/xlink" x="0px" y="0px"
	 viewBox="0 0 511.998 511.998" style="enable-background:new 0 0 511.998 511.998;" xml:space="preserve">
<path style="fill:#F0F0F0;" d="M417.716,404.078c27.339-52.262,12.549-127.837,12.549-127.837l-12.549-31.292L256,214.352
	L94.284,247.73l-12.549,28.51c0,0-14.791,75.575,12.549,127.837l50.518,69.878h230.862L417.716,404.078z"/>
<path style="fill:#D9D9D9;" d="M122.944,276.24l12.549-28.51L277.5,218.419l-21.5-4.067L94.284,247.73l-12.549,28.51
	c0,0-14.791,75.575,12.549,127.837l50.518,69.878h41.207l-50.518-69.878C108.152,351.817,122.944,276.24,122.944,276.24z"/>
<path style="fill:#2FC8B4;" d="M489.859,423.355c-19.79,1.106-49.309,7.357-76.443,31.098c0,0,2.435-17.046,14.37-34.361
	c5.176-7.508-1.086-17.574-10.071-16.015c-25.933,4.5-64.055,16.057-88.794,45.745c0,0,1.554-16.051,8.469-30.492
	c3.648-7.615-2.773-16.149-11.071-14.584c-25.611,4.831-62.227,15.747-70.319,39.289c-8.092-23.542-44.708-34.459-70.32-39.289
	c-8.298-1.565-14.718,6.968-11.071,14.584c6.917,14.441,8.469,30.492,8.469,30.492c-24.74-29.688-62.862-41.245-88.794-45.745
	c-8.985-1.559-15.247,8.506-10.071,16.015c11.935,17.314,14.37,34.361,14.37,34.361c-27.134-23.742-56.653-29.992-76.443-31.098
	c-8.652-0.483-13.975,9.254-8.873,16.258c7.231,9.925,13.372,21.701,18.087,32.099c7.381,16.274,23.591,26.724,41.461,26.724
	h366.367c17.87,0,34.079-10.45,41.461-26.724c4.716-10.399,10.857-22.174,18.087-32.099
	C503.834,432.609,498.511,422.871,489.859,423.355z"/>
<path style="fill:#00AE95;" d="M62.261,471.713c-4.716-10.399-10.857-22.174-18.087-32.099c-3.117-4.278-2.34-9.573,0.707-12.939
	c-8.368-1.994-16.103-2.948-22.739-3.319c-8.652-0.484-13.975,9.254-8.873,16.258c7.231,9.925,13.371,21.701,18.087,32.099
	c7.381,16.274,23.591,26.724,41.461,26.724h30.905C85.852,498.437,69.642,487.987,62.261,471.713z"/>
<path style="fill:#FF5E6B;" d="M359.16,25.921c-33.86-8.868-69.542-12.36-103.16-12.36s-69.3,3.492-103.16,12.36l-37.388,33.81
	l-43.704,2.359C48.738,78.245,29.262,99.2,15.515,126.014c-17.583,34.275-22.938,80.384-1.63,114.325
	c31.806,50.704,93.402,35.946,142.203,26.168c25.833-5.173,52.152-6.894,78.45-7.44c7.146-0.151,14.303-0.212,21.46-0.212
	c7.157,0,14.303,0.061,21.46,0.212c26.298,0.547,52.618,2.267,78.45,7.44c48.802,9.778,110.398,24.537,142.203-26.168
	c21.308-33.941,15.953-80.05-1.63-114.325C482.736,99.2,463.26,78.246,440.251,62.089l-43.704-2.359L359.16,25.921z"/>
<path style="fill:#E63E4C;" d="M43.983,228.643c-25.368-40.409-18.993-95.303,1.941-136.11c3.39-6.613,7.088-12.909,11.04-18.934
	c-16.589,14.265-30.757,31.56-41.448,52.415c-17.583,34.275-22.938,80.384-1.63,114.325c26.524,42.286,73.768,39.041,117.031,31.126
	C96.803,271.596,64.954,262.073,43.983,228.643z"/>
<g>
	<path style="fill:#3B484A;" d="M168.192,350.871c-4.268,0-7.726-3.459-7.726-7.726v-15.892c0-4.267,3.458-7.726,7.726-7.726
		c4.268,0,7.726,3.459,7.726,7.726v15.892C175.919,347.411,172.459,350.871,168.192,350.871z"/>
	<path style="fill:#3B484A;" d="M343.807,350.871c-4.268,0-7.726-3.459-7.726-7.726v-15.892c0-4.267,3.458-7.726,7.726-7.726
		c4.268,0,7.726,3.459,7.726,7.726v15.892C351.534,347.411,348.075,350.871,343.807,350.871z"/>
	<path style="fill:#3B484A;" d="M256,359.353c-10.677,0-20.696-4.458-27.49-12.23c-2.808-3.213-2.48-8.094,0.733-10.902
		c3.212-2.808,8.093-2.48,10.902,0.734c3.858,4.414,9.636,6.947,15.854,6.947c6.216,0,11.995-2.532,15.856-6.948
		c2.808-3.213,7.688-3.54,10.902-0.731c3.212,2.808,3.541,7.689,0.731,10.902C276.695,354.896,266.675,359.353,256,359.353z"/>
</g>
<g>
	<circle style="fill:#F0F0F0;" cx="256" cy="132.728" r="44.7"/>
	<circle style="fill:#F0F0F0;" cx="108.447" cy="189.645" r="44.7"/>
	<circle style="fill:#F0F0F0;" cx="403.553" cy="189.645" r="44.7"/>
	<path style="fill:#F0F0F0;" d="M159.157,48.838c0,24.689-20.012,44.702-44.702,44.702c-20.073,0-37.059-13.231-42.707-31.451
		c24.011-16.874,51.869-28.526,81.093-36.169C156.848,32.622,159.157,40.457,159.157,48.838z"/>
	<path style="fill:#F0F0F0;" d="M440.253,62.089c-5.648,18.221-22.634,31.451-42.707,31.451c-24.689,0-44.702-20.012-44.702-44.702
		c0-8.382,2.308-16.216,6.316-22.917C388.384,33.564,416.241,45.215,440.253,62.089z"/>
</g>
<g>
</g>
<g>
</g>
<g>
</g>
<g>
</g>
<g>
</g>
<g>
</g>
<g>
</g>
<g>
</g>
<g>
</g>
<g>
</g>
<g>
</g>
<g>
</g>
<g>
</g>
<g>
</g>
<g>
</g>
</svg>
