<?xml version="1.0" encoding="iso-8859-1"?>
<!-- Generator: Adobe Illustrator 19.0.0, SVG Export Plug-In . SVG Version: 6.00 Build 0)  -->
<svg version="1.1" id="Capa_1" xmlns="http://www.w3.org/2000/svg" xmlns:xlink="http://www.w3.org/1999/xlink" x="0px" y="0px"
	 viewBox="0 0 512 512" style="enable-background:new 0 0 512 512;" xml:space="preserve">
<ellipse transform="matrix(-0.894 -0.448 0.448 -0.894 302.5326 318.0718)" style="fill:#00AE95;" cx="188.881" cy="123.259" rx="73.889" ry="55.415"/>
<path style="fill:#2FC8B4;" d="M220.146,161.926c-1.05,0-2.114-0.214-3.134-0.668c-42.993-19.108-63.875-46.773-64.744-47.942
	c-2.545-3.425-1.831-8.265,1.595-10.81c3.421-2.541,8.256-1.833,10.801,1.584c0.296,0.391,19.661,25.729,58.622,43.046
	c3.899,1.733,5.656,6.3,3.923,10.199C225.931,160.215,223.106,161.926,220.146,161.926z"/>
<ellipse transform="matrix(-0.894 0.448 -0.448 -0.894 667.235 88.6575)" style="fill:#00AE95;" cx="323.133" cy="123.235" rx="73.889" ry="55.415"/>
<g>
	<path style="fill:#2FC8B4;" d="M291.857,161.926c-2.96,0-5.784-1.711-7.064-4.59c-1.734-3.899,0.023-8.465,3.923-10.199
		c39.324-17.477,58.427-42.782,58.614-43.036c2.545-3.425,7.385-4.139,10.81-1.595c3.425,2.545,4.139,7.384,1.595,10.81
		c-0.868,1.168-21.75,28.833-64.744,47.942C293.97,161.712,292.905,161.926,291.857,161.926z"/>
	<ellipse style="fill:#2FC8B4;" cx="256.001" cy="77.099" rx="57.824" ry="77.099"/>
</g>
<path style="fill:#00AE95;" d="M256.001,161.924c-4.268,0-7.726-3.459-7.726-7.726V63.221c0-4.267,3.458-7.726,7.726-7.726
	c4.268,0,7.726,3.459,7.726,7.726v90.976C263.728,158.465,260.269,161.924,256.001,161.924z"/>
<path style="fill:#C86D5C;" d="M471.902,208.499h-431.8c-19.218,0-34.797,15.579-34.797,34.797v166.259
	c0,44.216,28.821,83.008,70.929,96.502c0.233,0.074,0.466,0.15,0.698,0.227l0,0c23.268,7.62,48.36,7.62,71.627,0l0,0
	c23.268-7.62,48.36-7.62,71.627,0l0,0c23.268,7.62,48.36,7.62,71.627,0l0,0c23.268-7.62,48.36-7.62,71.627,0l0,0
	c23.268,7.62,48.36,7.62,71.627,0l0,0c0.233-0.076,0.466-0.151,0.698-0.227c42.108-13.494,70.929-52.285,70.929-96.502V243.297
	C506.699,224.079,491.12,208.499,471.902,208.499z"/>
<path style="fill:#B24D40;" d="M107.838,506.285L107.838,506.285c-0.233-0.076-0.466-0.151-0.698-0.227
	c-42.108-13.493-70.929-52.285-70.929-96.501V243.298c0-19.218,15.579-34.797,34.797-34.797H40.102
	c-19.218,0-34.797,15.579-34.797,34.797v166.259c0,44.216,28.821,83.008,70.929,96.501c0.233,0.075,0.466,0.15,0.698,0.227l0,0
	c16.602,5.437,34.132,6.974,51.267,4.651C121.32,510.004,114.502,508.467,107.838,506.285z"/>
<path style="fill:#FF8C4F;" d="M342.751,182.287c-16.7-34.556-49.022-51.22-86.749-51.22s-70.049,16.663-86.75,51.22
	c-19.941,41.264-27.52,100.113-10.432,143.579c14.289,36.343,45.696,58.492,70.888,86.521c4.657,5.182,9.81,11.19,12.491,17.942
	c2.22,5.592,7.784,9.135,13.801,9.135c6.017,0,11.581-3.543,13.801-9.135c2.681-6.753,7.835-12.76,12.491-17.942
	c25.192-28.029,56.599-50.177,70.888-86.521C370.271,282.4,362.691,223.551,342.751,182.287z"/>
<path style="fill:#EE6B28;" d="M268.985,430.329c-2.681-6.753-7.835-12.761-12.491-17.943
	c-25.192-28.029-56.599-50.177-70.888-86.521c-17.089-43.465-9.51-102.316,10.432-143.579
	c14.686-30.389,41.457-46.935,73.357-50.484c-4.374-0.486-8.843-0.735-13.392-0.735c-37.727,0-70.049,16.663-86.75,51.22
	c-19.941,41.264-27.52,100.113-10.432,143.579c14.289,36.344,45.696,58.492,70.888,86.521c4.657,5.182,9.81,11.189,12.491,17.943
	c2.22,5.592,7.784,9.135,13.801,9.135c5.678,0,10.951-3.158,13.392-8.214C269.249,430.948,269.109,430.643,268.985,430.329z"/>
<g>
	<path style="fill:#3B484A;" d="M198.177,273.422c-4.268,0-7.726-3.459-7.726-7.726V255.23c0-4.267,3.458-7.726,7.726-7.726
		s7.726,3.459,7.726,7.726v10.466C205.904,269.964,202.445,273.422,198.177,273.422z"/>
	<path style="fill:#3B484A;" d="M313.826,273.422c-4.268,0-7.726-3.459-7.726-7.726V255.23c0-4.267,3.458-7.726,7.726-7.726
		c4.268,0,7.726,3.459,7.726,7.726v10.466C321.552,269.964,318.092,273.422,313.826,273.422z"/>
	<path style="fill:#3B484A;" d="M256.001,279.009c-7.791,0-15.114-3.265-20.089-8.956c-2.809-3.213-2.481-8.094,0.732-10.902
		c3.213-2.808,8.094-2.481,10.901,0.732c2.04,2.334,5.122,3.673,8.455,3.673c3.333,0,6.415-1.338,8.455-3.673
		c2.807-3.213,7.69-3.541,10.901-0.732c3.213,2.808,3.542,7.689,0.732,10.902C271.115,275.744,263.793,279.009,256.001,279.009z"/>
</g>
<g>
	<ellipse style="fill:#DF8B78;" cx="98.064" cy="280.673" rx="20.214" ry="13.783"/>
	<ellipse style="fill:#DF8B78;" cx="129.135" cy="425.248" rx="20.214" ry="13.783"/>
	<ellipse style="fill:#DF8B78;" cx="60.612" cy="352.961" rx="23.188" ry="15.81"/>
	<ellipse style="fill:#DF8B78;" cx="413.938" cy="280.673" rx="20.214" ry="13.783"/>
	<ellipse style="fill:#DF8B78;" cx="382.868" cy="425.248" rx="20.214" ry="13.783"/>
	<ellipse style="fill:#DF8B78;" cx="451.396" cy="352.961" rx="23.188" ry="15.81"/>
</g>
<g>
</g>
<g>
</g>
<g>
</g>
<g>
</g>
<g>
</g>
<g>
</g>
<g>
</g>
<g>
</g>
<g>
</g>
<g>
</g>
<g>
</g>
<g>
</g>
<g>
</g>
<g>
</g>
<g>
</g>
</svg>
