<?xml version="1.0" encoding="iso-8859-1"?>
<!-- Generator: Adobe Illustrator 19.0.0, SVG Export Plug-In . SVG Version: 6.00 Build 0)  -->
<svg version="1.1" id="Capa_1" xmlns="http://www.w3.org/2000/svg" xmlns:xlink="http://www.w3.org/1999/xlink" x="0px" y="0px"
	 viewBox="0 0 512 512" style="enable-background:new 0 0 512 512;" xml:space="preserve">
<g>
	<path style="fill:#2FC8B4;" d="M166.957,231.742c-48.832-45.993-104.058-74.12-149.369-79.968
		c-10.544-1.361-19.292,7.927-17.304,18.371c8.546,44.881,39.926,98.327,88.756,144.32c56.125,52.864,120.699,82.125,168.957,81.082
		C256.152,347.314,223.082,284.605,166.957,231.742z"/>
	<path style="fill:#2FC8B4;" d="M494.412,151.774c-45.313,5.847-100.538,33.974-149.369,79.968
		c-56.125,52.864-89.195,115.572-91.04,163.806c48.258,1.043,112.832-28.219,168.957-81.082
		c48.832-45.993,80.211-99.439,88.756-144.32C513.704,159.701,504.956,150.413,494.412,151.774z"/>
</g>
<g>
	<path style="fill:#00AE95;" d="M240.931,208.921C214.856,147.115,175.71,99.067,136.627,75.404
		c-9.094-5.506-20.851-0.546-23.253,9.81c-10.322,44.506-3.222,106.075,22.853,167.88c29.97,71.038,77.208,123.902,121.769,142.453
		C275.805,350.683,270.901,279.959,240.931,208.921z"/>
	<path style="fill:#00AE95;" d="M398.624,85.214c-2.402-10.356-14.159-15.317-23.253-9.81
		c-39.083,23.662-78.229,71.711-104.304,133.517c-29.97,71.038-34.874,141.762-17.066,186.627
		c44.562-18.552,91.799-71.415,121.769-142.453C401.846,191.289,408.947,129.72,398.624,85.214z"/>
</g>
<g>
	<path style="fill:#2FC8B4;" d="M256.002,398.541c-3.013,0-5.877-1.774-7.123-4.725L147.879,154.414
		c-1.659-3.931,0.183-8.463,4.116-10.123c3.934-1.659,8.464,0.184,10.123,4.116l101.001,239.402
		c1.659,3.931-0.183,8.463-4.116,10.123C258.022,398.346,257.004,398.541,256.002,398.541z"/>
	<path style="fill:#2FC8B4;" d="M255.995,398.541c-1.001,0-2.019-0.196-3-0.61c-3.931-1.659-5.774-6.19-4.116-10.123
		l101.001-239.402c1.659-3.931,6.191-5.774,10.123-4.116c3.931,1.659,5.774,6.19,4.116,10.123L263.118,393.816
		C261.872,396.767,259.01,398.541,255.995,398.541z"/>
	<path style="fill:#2FC8B4;" d="M268.618,53.807c-6.239-8.608-18.999-8.608-25.237,0c-26.811,36.993-44.202,96.48-44.202,163.561
		c0,77.102,22.974,144.17,56.821,178.584c33.847-34.414,56.821-101.482,56.821-178.584C312.82,150.286,295.43,90.8,268.618,53.807z"
		/>
</g>
<g>
	<path style="fill:#00AE95;" d="M255.999,398.539c-4.267,0-7.726-3.459-7.726-7.726V130.978c0-4.267,3.459-7.726,7.726-7.726
		c4.267,0,7.726,3.459,7.726,7.726v259.835C263.726,395.08,260.266,398.539,255.999,398.539z"/>
	<path style="fill:#00AE95;" d="M254.254,399.751c-1.9,0-3.803-0.696-5.296-2.102L59.814,219.495
		c-3.107-2.926-3.253-7.816-0.327-10.922c2.926-3.106,7.816-3.252,10.922-0.327L259.553,386.4c3.107,2.926,3.253,7.816,0.327,10.922
		C258.361,398.936,256.309,399.751,254.254,399.751z"/>
	<path style="fill:#00AE95;" d="M257.744,399.751c-2.055,0-4.105-0.815-5.626-2.429c-2.926-3.106-2.779-7.996,0.327-10.922
		L441.59,208.246c3.106-2.925,7.995-2.78,10.923,0.327c2.926,3.106,2.778,7.996-0.327,10.922L263.04,397.648
		C261.548,399.053,259.644,399.751,257.744,399.751z"/>
</g>
<path style="fill:#FF5E6B;" d="M16.223,311.231l47.96,108.516c12.063,27.295,39.094,44.901,68.936,44.901h7.176h231.409h7.176
	c29.841,0,56.872-17.607,68.936-44.901l47.96-108.516l-239.776-25.556L16.223,311.231z"/>
<path style="fill:#E63E4C;" d="M115.692,419.748l-47.96-108.516l214.022-22.811l-25.755-2.745L16.223,311.231l47.96,108.516
	c12.063,27.295,39.094,44.9,68.936,44.9h7.176h44.333C154.786,464.648,127.755,447.042,115.692,419.748z"/>
<path style="fill:#F0F0F0;" d="M495.776,260.12H16.223c-8.426,0-15.256,6.83-15.256,15.256v20.6c0,8.426,6.83,15.256,15.256,15.256
	h479.553c8.426,0,15.256-6.83,15.256-15.256v-20.6C511.032,266.95,504.202,260.12,495.776,260.12z"/>
<path style="fill:#D9D9D9;" d="M52.476,295.976v-20.6c0-8.425,6.83-15.256,15.256-15.256H16.223c-8.426,0-15.256,6.83-15.256,15.256
	v20.6c0,8.426,6.83,15.256,15.256,15.256h51.509C59.306,311.231,52.476,304.401,52.476,295.976z"/>
<g>
	<path style="fill:#3B484A;" d="M161.89,394.587c-4.267,0-7.726-3.459-7.726-7.726v-17.032c0-4.267,3.459-7.726,7.726-7.726
		c4.267,0,7.726,3.459,7.726,7.726v17.032C169.617,391.127,166.157,394.587,161.89,394.587z"/>
	<path style="fill:#3B484A;" d="M350.108,394.587c-4.267,0-7.726-3.459-7.726-7.726v-17.032c0-4.267,3.459-7.726,7.726-7.726
		c4.267,0,7.726,3.459,7.726,7.726v17.032C357.835,391.127,354.375,394.587,350.108,394.587z"/>
	<path style="fill:#3B484A;" d="M255.999,403.678c-11.283,0-21.869-4.709-29.045-12.918c-2.808-3.213-2.481-8.094,0.732-10.902
		c3.213-2.808,8.093-2.481,10.902,0.732c4.241,4.852,10.587,7.636,17.41,7.636s13.169-2.783,17.41-7.635
		c2.807-3.213,7.689-3.541,10.902-0.732c3.213,2.808,3.541,7.689,0.732,10.902C277.868,398.969,267.281,403.678,255.999,403.678z"/>
</g>
<g>
</g>
<g>
</g>
<g>
</g>
<g>
</g>
<g>
</g>
<g>
</g>
<g>
</g>
<g>
</g>
<g>
</g>
<g>
</g>
<g>
</g>
<g>
</g>
<g>
</g>
<g>
</g>
<g>
</g>
</svg>
