<?xml version="1.0" encoding="iso-8859-1"?>
<!-- Generator: Adobe Illustrator 19.0.0, SVG Export Plug-In . SVG Version: 6.00 Build 0)  -->
<svg xmlns="http://www.w3.org/2000/svg" xmlns:xlink="http://www.w3.org/1999/xlink" version="1.1" id="Capa_1" x="0px" y="0px" viewBox="0 0 512 512" style="enable-background:new 0 0 512 512;" xml:space="preserve">
<path style="fill:#E4E7E9;" d="M244.627,72.404h-61.675V27.822C182.952,12.456,195.409,0,210.775,0h6.03  c15.366,0,27.822,12.456,27.822,27.822V72.404z"/>
<path style="fill:#59A8ED;" d="M375.776,128.148l-15.78-22.409H152.004l-15.78,22.409c-7.253,10.301-11.147,22.591-11.147,35.19  v257.729c0,12.598,3.893,24.889,11.147,35.19l15.78,22.409h207.992l15.78-22.409c7.253-10.301,11.147-22.591,11.147-35.19V163.338  C386.922,150.74,383.029,138.449,375.776,128.148z"/>
<path style="fill:#3E4B58;" d="M125.077,355.209v65.858c0,12.598,3.893,24.889,11.147,35.19l15.78,22.409h207.992l15.78-22.409  c7.253-10.301,11.147-22.591,11.147-35.19v-65.858H125.077z"/>
<path style="fill:#E4E7E9;" d="M370.255,72.404h-228.51c-9.205,0-16.667,7.462-16.667,16.667l0,0  c0,9.205,7.462,16.667,16.667,16.667h228.511c9.205,0,16.667-7.462,16.667-16.667l0,0C386.922,79.867,379.461,72.404,370.255,72.404  z"/>
<g style="opacity:0.1;">
	<path d="M370.255,72.404h-34.389c9.205,0,16.667,7.462,16.667,16.667s-7.462,16.667-16.667,16.667h34.389   c9.205,0,16.667-7.462,16.667-16.667C386.922,79.867,379.46,72.404,370.255,72.404z"/>
</g>
<path style="fill:#E4E7E9;" d="M370.255,478.666h-228.51c-9.205,0-16.667,7.462-16.667,16.667l0,0  c0,9.205,7.462,16.667,16.667,16.667h228.511c9.205,0,16.667-7.462,16.667-16.667l0,0  C386.922,486.128,379.461,478.666,370.255,478.666z"/>
<path style="fill:#FFFFFF;" d="M218.219,39.023h-8.858c-4.143,0-7.5-3.357-7.5-7.5s3.357-7.5,7.5-7.5h8.858  c4.143,0,7.5,3.357,7.5,7.5S222.361,39.023,218.219,39.023z"/>
<g style="opacity:0.1;">
	<rect x="182.95" y="54.5" width="61.675" height="17.9"/>
</g>
<g style="opacity:0.1;">
	<path d="M370.255,478.666h-34.389c9.205,0,16.667,7.462,16.667,16.667S345.071,512,335.866,512h34.389   c9.205,0,16.667-7.462,16.667-16.667S379.46,478.666,370.255,478.666z"/>
</g>
<path style="fill:#3E4B58;" d="M375.776,128.148l-15.78-22.409H152.004l-15.78,22.409c-4.122,5.854-7.156,12.352-9.01,19.183  h257.571C382.932,140.501,379.898,134.002,375.776,128.148z"/>
<path style="fill:#FFFFFF;" d="M335.068,433.646H176.932c-8.13,0-14.72-6.59-14.72-14.72v-63.717c0-8.13,6.59-14.72,14.72-14.72  h158.136c8.13,0,14.72,6.59,14.72,14.72v63.717C349.788,427.055,343.198,433.646,335.068,433.646z"/>
<path style="fill:#3E4B58;" d="M297.295,407.918h-82.59c-4.143,0-7.5-3.357-7.5-7.5s3.357-7.5,7.5-7.5h82.59  c4.143,0,7.5,3.357,7.5,7.5S301.438,407.918,297.295,407.918z"/>
<circle style="fill:#FFDB62;" cx="256" cy="292.2" r="79.87"/>
<circle style="fill:#FFFFFF;" cx="256" cy="292.2" r="48.29"/>
<path style="fill:#9BD8EB;" d="M334.353,276.721H177.647c-0.984,5.01-1.513,10.183-1.513,15.481c0,5.827,0.64,11.501,1.825,16.973  h156.082c1.185-5.472,1.825-11.146,1.825-16.973C335.866,286.904,335.337,281.73,334.353,276.721z"/>
<g style="opacity:0.1;">
	<path d="M375.776,128.148l-15.78-22.409H152.004l-15.78,22.409h196.813c7.253,10.301,11.147,22.591,11.147,35.19v257.729   c0,12.598-3.893,24.889-11.147,35.19l-15.78,22.409h42.738l15.78-22.409c7.253-10.301,11.147-22.591,11.147-35.19V163.338   C386.923,150.74,383.029,138.449,375.776,128.148z"/>
</g>
<path style="fill:#F7D9A4;" d="M313.892,51.045c-2.913,0-5.732,0.399-8.413,1.132c-7.801-10.511-20.302-17.326-34.397-17.326  s-26.596,6.814-34.397,17.326c-2.681-0.733-5.5-1.132-8.413-1.132c-17.583,0-31.837,14.254-31.837,31.838  c0,17.583,14.254,31.837,31.837,31.837c5.646,0,10.946-1.476,15.544-4.054c7.405,6.125,16.906,9.806,27.266,9.806v60.003  c0,11.822,9.583,21.405,21.405,21.405s21.405-9.583,21.405-21.405V114.72c17.583,0,31.837-14.254,31.837-31.837  S331.475,51.045,313.892,51.045z"/>
<g>
</g>
<g>
</g>
<g>
</g>
<g>
</g>
<g>
</g>
<g>
</g>
<g>
</g>
<g>
</g>
<g>
</g>
<g>
</g>
<g>
</g>
<g>
</g>
<g>
</g>
<g>
</g>
<g>
</g>
</svg>
