<?xml version="1.0" encoding="iso-8859-1"?>
<!-- Generator: Adobe Illustrator 19.0.0, SVG Export Plug-In . SVG Version: 6.00 Build 0)  -->
<svg xmlns="http://www.w3.org/2000/svg" xmlns:xlink="http://www.w3.org/1999/xlink" version="1.1" id="Capa_1" x="0px" y="0px" viewBox="0 0 512 512" style="enable-background:new 0 0 512 512;" xml:space="preserve">
<path style="fill:#9BD8EB;" d="M430.893,97.101H81.107c-9.278,0-16.799,7.521-16.799,16.799v86.073  c0,27.047,7.777,53.523,22.403,76.274l106.735,166.024c6.086,9.467,0.732,22.09-10.305,24.294l-62.6,12.5  c-4.986,0.996-8.575,5.372-8.575,10.456v11.816c0,5.889,4.774,10.663,10.663,10.663h266.74c5.889,0,10.663-4.774,10.663-10.663  v-11.816c0-5.084-3.589-9.461-8.575-10.456l-62.6-12.5c-11.036-2.204-16.391-14.827-10.305-24.294l106.735-166.024  c14.626-22.751,22.403-49.227,22.403-76.274V113.9C447.692,104.622,440.171,97.101,430.893,97.101z"/>
<path style="fill:#59A8ED;" d="M391.458,479.065l-62.599-12.5c-11.036-2.204-16.391-14.827-10.305-24.294l9.168-14.26H184.279  l9.168,14.26c6.086,9.467,0.731,22.09-10.305,24.294l-62.6,12.5c-4.986,0.996-8.575,5.372-8.575,10.456v11.816  c0,5.889,4.774,10.663,10.663,10.663h266.74c5.889,0,10.663-4.774,10.663-10.663v-11.816  C400.033,484.437,396.444,480.06,391.458,479.065z"/>
<path style="fill:#937254;" d="M339.251,214.291l-28.659-10.431c-6.509-2.369-9.866-9.567-7.496-16.076L368.439,8.256  c2.369-6.509,9.567-9.866,16.076-7.496l28.659,10.431c6.509,2.369,9.866,9.567,7.496,16.076l-65.343,179.528  C352.958,213.304,345.76,216.66,339.251,214.291z"/>
<g style="opacity:0.2;">
	<path d="M339.251,214.291l-28.659-10.431c-6.509-2.369-9.866-9.567-7.496-16.076l53.863-147.986l15.031,15.353   c17.166,17.533,22.749,43.36,14.356,66.418l-31.02,85.226C352.958,213.304,345.76,216.66,339.251,214.291z"/>
</g>
<g style="opacity:0.1;">
	<path d="M413.173,11.191l-12.928-4.705c2.835,3.305,3.858,7.997,2.263,12.38l-64.917,178.358   c-2.354,6.467-9.504,9.801-15.971,7.448l-17.646-6.423c1.419,2.51,3.697,4.549,6.619,5.613l28.659,10.431   c6.509,2.369,13.707-0.987,16.076-7.496l65.342-179.53C423.039,20.757,419.683,13.56,413.173,11.191z"/>
</g>
<path style="fill:#F7D9A4;" d="M64.308,169.56v30.413c0,27.047,7.776,53.523,22.403,76.274l97.568,151.764h143.443l97.568-151.764  c14.626-22.751,22.403-49.227,22.403-76.274V169.56H64.308z"/>
<g style="opacity:0.5;">
	<path style="fill:#FFFFFF;" d="M64.308,169.56v30.413c0,10.468,1.178,20.847,3.455,30.962h376.475   c2.276-10.114,3.455-20.494,3.455-30.962V169.56H64.308z"/>
</g>
<g>
	<path style="fill:#3E4B58;" d="M189.797,293.124c-4.143,0-7.5-3.357-7.5-7.5v-10.989c0-4.143,3.357-7.5,7.5-7.5s7.5,3.357,7.5,7.5   v10.989C197.297,289.767,193.939,293.124,189.797,293.124z"/>
	<path style="fill:#3E4B58;" d="M322.203,293.124c-4.143,0-7.5-3.357-7.5-7.5v-10.989c0-4.143,3.357-7.5,7.5-7.5s7.5,3.357,7.5,7.5   v10.989C329.703,289.767,326.346,293.124,322.203,293.124z"/>
	<path style="fill:#3E4B58;" d="M256,301.564c-8.856,0-17.279-3.836-23.108-10.524c-2.722-3.123-2.396-7.86,0.727-10.582   c3.122-2.721,7.86-2.396,10.582,0.727c2.979,3.419,7.28,5.38,11.8,5.38c4.52,0,8.82-1.961,11.8-5.38   c2.722-3.123,7.459-3.448,10.582-0.727c3.122,2.722,3.448,7.459,0.727,10.582C273.279,297.728,264.856,301.564,256,301.564z"/>
</g>
<g style="opacity:0.4;">
	<ellipse style="fill:#F98F9D;" cx="329.8" cy="321.06" rx="32.9" ry="19.716"/>
	<ellipse style="fill:#F98F9D;" cx="182.2" cy="321.06" rx="32.9" ry="19.716"/>
</g>
<g style="opacity:0.1;">
	<path d="M430.893,97.101h-40.218c9.278,0,16.799,7.709,16.799,17.218v88.223c0,27.722-7.776,54.86-22.403,78.179L278.336,450.892   c-6.086,9.703-0.732,22.642,10.305,24.9l62.6,12.812c4.986,1.021,8.575,5.507,8.575,10.718v12.111c0,0.191-0.018,0.377-0.028,0.566   h29.583c5.889,0,10.663-4.774,10.663-10.663V489.52c0-5.084-3.589-9.461-8.575-10.456l-62.6-12.5   c-11.036-2.204-16.391-14.827-10.305-24.294l106.735-166.024c14.626-22.751,22.403-49.227,22.403-76.274V113.9   C447.692,104.622,440.171,97.101,430.893,97.101z"/>
</g>
<g>
</g>
<g>
</g>
<g>
</g>
<g>
</g>
<g>
</g>
<g>
</g>
<g>
</g>
<g>
</g>
<g>
</g>
<g>
</g>
<g>
</g>
<g>
</g>
<g>
</g>
<g>
</g>
<g>
</g>
</svg>
