<?xml version="1.0" encoding="iso-8859-1"?>
<!-- Generator: Adobe Illustrator 19.0.0, SVG Export Plug-In . SVG Version: 6.00 Build 0)  -->
<svg xmlns="http://www.w3.org/2000/svg" xmlns:xlink="http://www.w3.org/1999/xlink" version="1.1" id="Capa_1" x="0px" y="0px" viewBox="0 0 512 512" style="enable-background:new 0 0 512 512;" xml:space="preserve">
<path style="fill:#937254;" d="M174.985,87.392l-25.859-71.048L91.356,37.37l25.859,71.048c3.496,9.605,3.403,20.15-0.261,29.692  l-5.891,15.34c-6.629,17.262-6.797,36.338-0.472,53.713l46.775,128.514c4.227,11.613,17.068,17.601,28.681,13.374l90.885-33.08  c11.613-4.227,17.601-17.068,13.374-28.681l-46.775-128.514c-6.324-17.376-18.714-31.881-34.888-40.843l-14.373-7.965  C185.33,105.016,178.481,96.997,174.985,87.392z"/>
<rect x="106.91" y="60.362" transform="matrix(-0.9397 0.342 -0.342 -0.9397 292.5388 97.7754)" style="fill:#E85668;" width="61.48" height="28.631"/>
<path style="fill:#FFFFFF;" d="M128.438,85.525c-3.064,0-5.94-1.891-7.048-4.937c-1.417-3.893,0.59-8.196,4.483-9.613l18.413-6.701  c3.89-1.415,8.196,0.59,9.613,4.482s-0.59,8.196-4.483,9.613l-18.413,6.701C130.157,85.379,129.29,85.525,128.438,85.525z"/>
<g style="opacity:0.1;">
	<path d="M208.644,117.935l-14.373-7.965c-8.941-4.954-15.79-12.973-19.286-22.578l-25.859-71.048L91.356,37.37l7.988,21.948   l38.777-14.114l17.871,49.1c3.496,9.605,10.345,17.623,19.286,22.578l14.373,7.965c16.174,8.962,28.564,23.467,34.888,40.843   l46.775,128.514c4.227,11.613-1.761,24.454-13.374,28.681l18.992-6.912c11.613-4.227,17.601-17.068,13.374-28.681l-46.775-128.514   C237.207,141.402,224.817,126.897,208.644,117.935z"/>
</g>
<path style="fill:#E4E7E9;" d="M82.917,33.809l4.245,11.664c0.601,1.653,2.939,1.657,3.538,0.004  c0.981-2.707,3.07-5.353,7.246-6.873c3.471-1.263,7.138-0.891,10.158,0.723c2.22,1.186,5.049,0.156,5.987-2.179  c1.276-3.178,3.846-5.82,7.317-7.083s7.138-0.891,10.158,0.723c2.22,1.186,5.049,0.156,5.987-2.179  c1.276-3.177,3.846-5.82,7.317-7.083c4.177-1.52,7.477-0.836,9.969,0.608c1.522,0.881,3.309-0.625,2.708-2.277l-4.245-11.664  c-2.351-6.458-9.492-9.788-15.95-7.438L90.354,17.859C83.896,20.21,80.566,27.351,82.917,33.809z"/>
<g style="opacity:0.1;">
	<path d="M137.351,0.754L125.48,5.075c6.458-2.351,13.599,0.979,15.95,7.438l3.302,9.071c0.047-0.018,0.09-0.042,0.138-0.059   c4.176-1.52,7.477-0.836,9.969,0.608c1.522,0.881,3.309-0.625,2.708-2.277l-4.245-11.664C150.951,1.733,143.81-1.597,137.351,0.754   z"/>
</g>
<path style="fill:#937254;" d="M402.417,108.441l25.859-71.048l-57.769-21.026l-25.859,71.048  c-3.496,9.605-10.345,17.623-19.286,22.578l-14.373,7.965c-16.174,8.962-28.564,23.467-34.888,40.843l-46.775,128.514  c-4.227,11.613,1.761,24.454,13.374,28.681l90.885,33.079c11.613,4.227,24.454-1.761,28.681-13.374l46.775-128.514  c6.324-17.376,6.156-36.452-0.472-53.713l-5.891-15.34C399.014,128.591,398.921,118.046,402.417,108.441z"/>
<rect x="351.254" y="60.376" transform="matrix(-0.9397 -0.342 0.342 -0.9397 715.4094 275.5221)" style="fill:#E85668;" width="61.48" height="28.631"/>
<path style="fill:#FFFFFF;" d="M391.193,85.548c-0.852,0-1.718-0.146-2.564-0.454l-18.412-6.701  c-3.892-1.417-5.899-5.721-4.482-9.613c1.416-3.891,5.719-5.897,9.613-4.482l18.412,6.701c3.892,1.417,5.899,5.721,4.482,9.613  C397.134,83.656,394.258,85.548,391.193,85.548z"/>
<g style="opacity:0.1;">
	<path d="M408.569,153.474l-5.891-15.34c-3.664-9.542-3.757-20.087-0.261-29.692l25.859-71.048l-57.769-21.026l-7.988,21.948   l38.777,14.114l-17.871,49.1c-3.496,9.605-3.403,20.15,0.261,29.692l5.891,15.34c6.629,17.262,6.796,36.338,0.472,53.713   l-46.775,128.514c-4.227,11.613-17.068,17.601-28.681,13.374l18.992,6.912c11.613,4.227,24.454-1.761,28.681-13.374l46.775-128.514   C415.365,189.811,415.198,170.735,408.569,153.474z"/>
</g>
<path style="fill:#E4E7E9;" d="M366.331,8.214l-4.245,11.664c-0.601,1.653,1.186,3.159,2.708,2.277  c2.492-1.443,5.793-2.128,9.969-0.608c3.471,1.263,6.041,3.906,7.317,7.083c0.938,2.336,3.767,3.366,5.987,2.179  c3.02-1.614,6.687-1.986,10.158-0.723c3.471,1.263,6.041,3.906,7.317,7.083c0.938,2.336,3.767,3.366,5.987,2.179  c3.02-1.614,6.687-1.986,10.158-0.723c4.177,1.52,6.265,4.166,7.246,6.873c0.599,1.653,2.937,1.649,3.538-0.004l4.245-11.664  c2.351-6.458-0.979-13.599-7.438-15.95L382.281,0.777C375.823-1.574,368.682,1.756,366.331,8.214z"/>
<g style="opacity:0.1;">
	<path d="M429.278,17.882l-11.871-4.321c6.458,2.351,9.788,9.492,7.438,15.95l-3.302,9.071c0.048,0.017,0.096,0.026,0.143,0.043   c4.177,1.52,6.265,4.166,7.246,6.873c0.599,1.653,2.937,1.649,3.538-0.004l4.245-11.664   C439.066,27.374,435.736,20.233,429.278,17.882z"/>
</g>
<path style="fill:#9BD8EB;" d="M266.311,233.245l-63.164,22.99c-8.485,3.088-17.867-1.287-20.955-9.772l-22.99-63.164  c-3.088-8.485,1.287-17.867,9.772-20.955l63.164-22.99c8.485-3.088,17.867,1.287,20.955,9.772l22.99,63.164  C279.171,220.774,274.796,230.157,266.311,233.245z"/>
<g style="opacity:0.1;">
	<path d="M266.311,233.245l-63.164,22.99c-8.485,3.088-17.867-1.287-20.955-9.772l-22.99-63.164   c-3.088-8.485,1.287-17.867,9.772-20.955l63.164-22.99c8.485-3.088,17.867,1.287,20.955,9.772l22.99,63.164   C279.171,220.774,274.796,230.157,266.311,233.245z"/>
</g>
<path style="fill:#9BD8EB;" d="M331.872,233.245l63.164,22.99c8.485,3.088,17.867-1.287,20.956-9.772l22.99-63.164  c3.088-8.485-1.287-17.867-9.772-20.955l-63.164-22.99c-8.485-3.088-17.867,1.287-20.955,9.772l-22.99,63.164  C319.012,220.774,323.387,230.157,331.872,233.245z"/>
<g style="opacity:0.1;">
	<path d="M331.872,233.245l63.164,22.99c8.485,3.088,17.867-1.287,20.956-9.772l22.99-63.164c3.088-8.485-1.287-17.867-9.772-20.955   l-63.164-22.99c-8.485-3.088-17.867,1.287-20.955,9.772l-22.99,63.164C319.012,220.774,323.387,230.157,331.872,233.245z"/>
</g>
<g>
	<path style="fill:#9BD8EB;" d="M198.173,209.355l-47.53,47.53c-6.385,6.385-16.737,6.385-23.122,0l-47.53-47.53   c-6.385-6.385-6.385-16.737,0-23.122l47.53-47.53c6.385-6.385,16.737-6.385,23.122,0l47.53,47.53   C204.558,192.618,204.558,202.97,198.173,209.355z"/>
	<path style="fill:#9BD8EB;" d="M357.944,204.881l-47.53,47.53c-6.385,6.385-16.737,6.385-23.122,0l-47.53-47.53   c-6.385-6.385-6.385-16.737,0-23.122l47.53-47.53c6.385-6.385,16.737-6.385,23.122,0l47.53,47.53   C364.329,188.144,364.329,198.496,357.944,204.881z"/>
</g>
<path style="fill:#E4E7E9;" d="M427.098,250.533H84.902l37.578,243.414C124.083,504.335,133.023,512,143.533,512h224.934  c10.51,0,19.45-7.665,21.053-18.053L427.098,250.533z"/>
<g style="opacity:0.4;">
	<ellipse style="fill:#F98F9D;" cx="315.69" cy="355.08" rx="26.609" ry="15.946"/>
	<ellipse style="fill:#F98F9D;" cx="196.31" cy="355.08" rx="26.609" ry="15.946"/>
</g>
<g>
	<path style="fill:#3E4B58;" d="M191.332,332.226c-4.142,0-7.5-3.357-7.5-7.5v-11.03c0-4.143,3.358-7.5,7.5-7.5s7.5,3.357,7.5,7.5   v11.03C198.832,328.868,195.474,332.226,191.332,332.226z"/>
	<path style="fill:#3E4B58;" d="M320.668,332.226c-4.143,0-7.5-3.357-7.5-7.5v-11.03c0-4.143,3.357-7.5,7.5-7.5s7.5,3.357,7.5,7.5   v11.03C328.168,328.868,324.811,332.226,320.668,332.226z"/>
	<path style="fill:#3E4B58;" d="M275.296,333.165c0,10.508-8.705,18.982-19.296,18.605c-10.089-0.359-17.939-8.957-17.939-19.052   v-13.095c0-2.804,2.273-5.076,5.076-5.076h27.082c2.804,0,5.076,2.273,5.076,5.076v13.542H275.296z"/>
</g>
<g style="opacity:0.1;">
	<path d="M84.902,250.533l4.135,26.787H374.42l-33.442,216.627C339.375,504.335,330.435,512,319.925,512h48.542   c10.51,0,19.45-7.665,21.053-18.053l37.578-243.414L84.902,250.533L84.902,250.533z"/>
</g>
<path style="fill:#E4E7E9;" d="M443.763,250.533H68.237c-7.796,0-14.115-6.32-14.115-14.115v-21.055  c0-7.796,6.32-14.115,14.115-14.115h375.526c7.796,0,14.115,6.32,14.115,14.115v21.055  C457.878,244.214,451.559,250.533,443.763,250.533z"/>
<g style="opacity:0.1;">
	<path d="M443.763,201.248h-33.079c7.796,0,14.116,6.32,14.116,14.115v21.055c0,7.796-6.32,14.115-14.116,14.115h33.079   c7.796,0,14.115-6.32,14.115-14.115v-21.055C457.878,207.567,451.559,201.248,443.763,201.248z"/>
</g>
<g style="opacity:0.1;">
	<path d="M118.083,465.465h275.834l2.316-15H115.767L118.083,465.465z M109.45,409.545l2.316,15h288.469l2.316-15H109.45z"/>
</g>
<g>
</g>
<g>
</g>
<g>
</g>
<g>
</g>
<g>
</g>
<g>
</g>
<g>
</g>
<g>
</g>
<g>
</g>
<g>
</g>
<g>
</g>
<g>
</g>
<g>
</g>
<g>
</g>
<g>
</g>
</svg>
