<?xml version="1.0" encoding="iso-8859-1"?>
<!-- Generator: Adobe Illustrator 19.0.0, SVG Export Plug-In . SVG Version: 6.00 Build 0)  -->
<svg xmlns="http://www.w3.org/2000/svg" xmlns:xlink="http://www.w3.org/1999/xlink" version="1.1" id="Capa_1" x="0px" y="0px" viewBox="0 0 512 512" style="enable-background:new 0 0 512 512;" xml:space="preserve">
<path style="fill:#9BD8EB;" d="M303.671,503.512H119.29c-12.328,0-22.834-8.947-24.798-21.117L41.435,153.612  c-2.235-13.849,8.46-26.408,22.488-26.408h295.115c14.029,0,24.723,12.559,22.488,26.408L328.47,482.395  C326.505,494.566,316,503.512,303.671,503.512z"/>
<path style="opacity:0.3;fill:#FFFFFF;enable-background:new    ;" d="M87.42,438.569l7.072,43.826  c1.964,12.171,12.47,21.117,24.798,21.117h184.381c12.328,0,22.834-8.947,24.798-21.117l7.072-43.826H87.42z"/>
<path style="fill:#59A8ED;" d="M158.055,293.632L103.89,61.8c-2.592-11.093-12.359-18.84-23.752-18.84H7.465  C3.342,42.96,0,39.617,0,35.494V15.953c0-4.123,3.342-7.465,7.465-7.465h72.673c27.493,0,51.064,18.698,57.32,45.47l54.165,231.832  L158.055,293.632z"/>
<path style="opacity:0.1;enable-background:new    ;" d="M137.458,53.957c-6.255-26.772-29.827-45.47-57.32-45.47V42.96  c11.392,0,21.159,7.748,23.751,18.841l3.088,13.216h35.401L137.458,53.957z"/>
<path style="fill:#E85668;" d="M340.085,237.013c-23.675-23.676-62.061-23.676-85.736,0l0,0c-23.676,23.675-62.061,23.675-85.736,0  l0,0c-23.675-23.676-62.061-23.676-85.736,0l0,0c-7.377,7.376-16.181,12.453-25.524,15.233L87.42,438.569h248.122l30.068-186.323  C356.267,249.466,347.462,244.389,340.085,237.013z"/>
<path style="opacity:0.5;fill:#FFFFFF;enable-background:new    ;" d="M340.085,237.013c-23.675-23.675-62.061-23.675-85.736,0l0,0  c-23.676,23.676-62.061,23.676-85.736,0l0,0c-23.675-23.675-62.061-23.675-85.736,0l0,0c-7.377,7.377-16.181,12.453-25.524,15.233  l4.118,25.521c7.803-2.948,15.125-7.545,21.406-13.826l0,0c23.675-23.676,62.061-23.676,85.736,0l0,0  c23.675,23.675,62.061,23.675,85.736,0l0,0c23.675-23.676,62.061-23.676,85.736,0c6.281,6.281,13.603,10.878,21.406,13.826  l4.118-25.521C356.267,249.466,347.462,244.389,340.085,237.013z"/>
<path style="opacity:0.1;enable-background:new    ;" d="M359.038,127.204h-73.114c14.029,0,24.723,12.558,22.488,26.408  l-53.057,328.783c-1.964,12.171-12.47,21.117-24.798,21.117h73.114c12.328,0,22.834-8.947,24.798-21.117l53.057-328.783  C383.761,139.763,373.067,127.204,359.038,127.204z"/>
<path style="fill:#E85668;" d="M432.507,339.57c-9.9-0.295-19.417,1.171-28.268,4.101c-2.087,0.691-4.335,0.691-6.422,0  c-8.851-2.93-18.369-4.396-28.269-4.101c-42.418,1.264-77.21,35.256-79.382,77.638c-2.421,47.241,35.167,86.304,81.879,86.304  c4.054,0,8.039-0.295,11.934-0.864c11.306-1.652,22.792-1.652,34.097,0c3.896,0.569,7.88,0.864,11.934,0.864  c46.712,0,84.301-39.064,81.879-86.306C509.717,374.825,474.924,340.834,432.507,339.57z"/>
<path style="opacity:0.1;enable-background:new    ;" d="M511.889,417.206c-2.173-42.381-36.965-76.372-79.383-77.636  c-9.9-0.295-19.417,1.171-28.268,4.101c-2.087,0.691-4.335,0.691-6.422,0c-8.851-2.93-18.369-4.396-28.269-4.101  c-10.332,0.308-20.205,2.57-29.271,6.41l0,0c0.553,4.017,4.063,7.048,8.205,6.912l0.245-0.008  c5.029-0.166,10.043,0.186,14.896,1.085c4.851,0.865,9.542,2.301,13.8,4.164c0.733,0.321,1.449,0.665,2.155,1.018  c-4.94,2.165-9.556,4.615-13.991,7.295c-5.496,3.332-10.717,6.976-15.707,11.118c-2.494,2.076-4.928,4.274-7.291,6.723  c-2.356,2.464-4.671,5.134-6.807,8.775c-1.892,3.225-1.409,7.445,1.406,10.147c3.294,3.162,8.528,3.056,11.691-0.238  c3.587-3.736,7.866-6.548,12.385-9.025c4.632-2.539,9.595-4.747,14.604-6.588c5.003-1.844,10.117-3.322,14.986-4.202  c1.72-0.31,3.406-0.536,5-0.662c1.135-0.094,1.352,0.374,1.764,0.936c1.705,2.537,3.23,5.356,4.473,8.357  c1.223,2.907,2.227,5.972,2.926,8.998c0.926,3.857,1.11,7.873,1.747,11.784c0.545,3.291,2.84,6.183,6.221,7.329  c12.059,4.087,14.079-13.058,14.141-20.998c0.036-4.581-0.345-9.053-1.082-13.524c-0.332-2.025-0.757-4.046-1.259-6.063  c4.62,0.147,9.441,0.781,14.133,1.768c5.578,1.173,11.041,2.942,15.822,5.269c2.376,1.165,4.564,2.491,6.328,3.903  c1.774,1.411,3.057,2.88,3.805,4.172l0.677,1.174c1.962,3.393,6.054,5.134,9.979,3.975c0.433-0.128,0.842-0.296,1.238-0.482  c1.645,5.805,2.679,11.866,2.997,18.115c2.133,41.973-27.048,77.486-66.066,84.888l0,0c1.462,0.158,2.922,0.341,4.379,0.554  c3.896,0.569,7.88,0.864,11.934,0.864C476.723,503.512,514.311,464.449,511.889,417.206z"/>
<g>
	<path style="fill:#60D195;" d="M477.633,380.507c-1.429-4.837-4.037-8.743-6.81-11.922c-2.803-3.19-5.856-5.755-8.979-8.008   c-6.269-4.46-12.846-7.773-19.64-10.435c-3.685-1.427-7.425-2.676-11.272-3.72c0.597-0.406,1.202-0.806,1.815-1.197   c4.616-3,9.767-5.439,15.101-7.611c5.612-2.285,11.401-3.865,17.246-5.415c3.529-0.936,6.019-4.265,5.768-8.045   c-0.285-4.293-3.996-7.543-8.29-7.258c-13.588,0.902-27.139,2.811-39.871,7.877c-6.572,2.582-13.054,5.859-19.242,10.268   c-0.632,0.457-1.257,0.938-1.881,1.424c-0.566-0.393-1.133-0.773-1.697-1.134c-6.628-4.096-13.179-6.147-19.643-7.502   c-6.466-1.296-12.863-1.79-19.175-1.579c-6.307,0.184-12.524,1.073-18.551,2.576c-3.59,0.893-6.2,4.196-6.074,8.043   c0.146,4.426,3.851,7.895,8.277,7.75l0.245-0.008c5.029-0.165,10.042,0.186,14.896,1.085c4.851,0.865,9.542,2.301,13.8,4.164   c0.733,0.321,1.449,0.665,2.155,1.018c-4.94,2.165-9.556,4.615-13.991,7.295c-5.496,3.332-10.717,6.975-15.707,11.118   c-2.494,2.076-4.928,4.274-7.291,6.723c-2.356,2.464-4.671,5.134-6.807,8.775c-1.892,3.225-1.409,7.445,1.406,10.147   c3.294,3.162,8.528,3.056,11.691-0.238c3.587-3.736,7.866-6.548,12.385-9.025c4.632-2.539,9.595-4.747,14.604-6.588   c5.003-1.844,10.117-3.322,14.986-4.202c1.72-0.31,3.406-0.536,5-0.662c1.135-0.094,1.352,0.374,1.764,0.936   c1.705,2.537,3.23,5.356,4.473,8.357c1.223,2.907,2.227,5.971,2.926,8.998c0.927,3.857,1.11,7.873,1.747,11.784   c0.545,3.292,2.84,6.183,6.221,7.329c12.059,4.087,14.079-13.057,14.141-20.998c0.036-4.581-0.344-9.053-1.082-13.524   c-0.332-2.025-0.757-4.046-1.259-6.063c4.62,0.147,9.441,0.781,14.133,1.768c5.578,1.173,11.041,2.942,15.822,5.269   c2.376,1.164,4.564,2.49,6.329,3.903c1.774,1.411,3.057,2.88,3.805,4.172l0.677,1.174c1.962,3.393,6.055,5.134,9.979,3.975   C476.363,389.94,478.991,385.108,477.633,380.507z"/>
	<path style="fill:#60D195;" d="M404.181,359.146c-6.495,0-11.76-5.265-11.76-11.76c0-28.745,15.406-58.265,30.3-70.195   c5.068-4.06,12.47-3.243,16.53,1.826c4.06,5.07,3.243,12.47-1.826,16.531c-8.781,7.034-21.485,29.542-21.485,51.839   C415.94,353.881,410.676,359.146,404.181,359.146z"/>
</g>
<path style="opacity:0.15;fill:#FFFFFF;enable-background:new    ;" d="M404.181,359.146c-6.495,0-11.76-5.265-11.76-11.76  c0-28.745,15.406-58.265,30.3-70.195c5.068-4.06,12.47-3.243,16.53,1.826c4.06,5.07,3.243,12.47-1.826,16.531  c-8.781,7.034-21.485,29.542-21.485,51.839C415.94,353.881,410.676,359.146,404.181,359.146z"/>
<g>
</g>
<g>
</g>
<g>
</g>
<g>
</g>
<g>
</g>
<g>
</g>
<g>
</g>
<g>
</g>
<g>
</g>
<g>
</g>
<g>
</g>
<g>
</g>
<g>
</g>
<g>
</g>
<g>
</g>
</svg>
