<?xml version="1.0" encoding="iso-8859-1"?>
<!-- Generator: Adobe Illustrator 19.0.0, SVG Export Plug-In . SVG Version: 6.00 Build 0)  -->
<svg xmlns="http://www.w3.org/2000/svg" xmlns:xlink="http://www.w3.org/1999/xlink" version="1.1" id="Capa_1" x="0px" y="0px" viewBox="0 0 512 512" style="enable-background:new 0 0 512 512;" xml:space="preserve">
<path style="fill:#9BD8EB;" d="M424.028,135.692h-253.66c-9.658,0-17.096,8.524-15.788,18.093l45.331,331.546  C202,500.611,215.052,512,230.474,512h133.447c15.422,0,28.474-11.389,30.563-26.669l45.331-331.546  C441.124,144.215,433.686,135.692,424.028,135.692z"/>
<g style="opacity:0.3;">
	<path style="fill:#FFFFFF;" d="M194.605,446.521l5.306,38.81C202,500.611,215.052,512,230.474,512h133.447   c15.422,0,28.474-11.389,30.563-26.669l5.306-38.81H194.605z"/>
</g>
<path style="fill:#E85668;" d="M248.662,318.651l-60.53-259.073c-2.897-12.396-13.811-21.055-26.542-21.055H80.377  c-4.607,0-8.342-3.735-8.342-8.342V8.342C72.035,3.735,75.77,0,80.377,0h81.213c30.724,0,57.065,20.895,64.055,50.813l60.53,259.074  L248.662,318.651z"/>
<g style="opacity:0.1;">
	<path d="M225.645,50.813C218.655,20.895,192.314,0,161.59,0v38.523c12.731,0,23.645,8.658,26.542,21.055l3.451,14.769h39.561   L225.645,50.813z"/>
</g>
<polygon style="fill:#FDA354;" points="162.742,213.481 194.604,446.521 399.791,446.521 431.654,213.481 "/>
<g>
	<path style="fill:#FFFFFF;" d="M238.468,177.604l-32.678,32.678c-4.021,4.021-4.021,10.541,0,14.563l32.678,32.678   c4.021,4.021,10.541,4.021,14.563,0l32.678-32.678c4.021-4.021,4.021-10.541,0-14.563l-32.678-32.678   C249.01,173.582,242.49,173.582,238.468,177.604z"/>
	<path style="fill:#FFFFFF;" d="M338.724,179.189l-19.103,40.967c-2.351,5.042-0.17,11.034,4.872,13.385l40.967,19.103   c5.041,2.351,11.034,0.17,13.385-4.872l19.103-40.967c2.351-5.042,0.17-11.034-4.872-13.385l-40.967-19.103   C347.068,171.967,341.075,174.148,338.724,179.189z"/>
</g>
<g style="opacity:0.1;">
	<path d="M424.028,135.692h-40.174c9.658,0,17.096,8.524,15.788,18.093l-45.331,331.546C352.222,500.611,339.169,512,323.747,512   h40.174c15.422,0,28.474-11.389,30.563-26.669l45.331-331.546C441.124,144.215,433.686,135.692,424.028,135.692z"/>
</g>
<path style="fill:#937254;" d="M374.422,310.376h-31.275c-6.878,0-12.454-5.576-12.454-12.454V249.36  c0-6.878,5.576-12.454,12.454-12.454h31.275c6.878,0,12.454,5.576,12.454,12.454v48.562  C386.877,304.8,381.3,310.376,374.422,310.376z"/>
<path style="fill:#FFFFFF;" d="M358.785,290.306c-4.142,0-7.5-3.357-7.5-7.5v-18.33c0-4.143,3.358-7.5,7.5-7.5s7.5,3.357,7.5,7.5  v18.33C366.285,286.948,362.927,290.306,358.785,290.306z"/>
<g>
	<path style="fill:#3E4B58;" d="M358.785,244.405c-4.142,0-7.5-3.357-7.5-7.5V135.691c0-4.143,3.358-7.5,7.5-7.5s7.5,3.357,7.5,7.5   v101.214C366.285,241.048,362.927,244.405,358.785,244.405z"/>
	<path style="fill:#3E4B58;" d="M244.671,364.72c-4.142,0-7.5-3.357-7.5-7.5v-8.719c0-4.143,3.358-7.5,7.5-7.5s7.5,3.357,7.5,7.5   v8.719C252.171,361.362,248.813,364.72,244.671,364.72z"/>
	<path style="fill:#3E4B58;" d="M349.724,364.72c-4.142,0-7.5-3.357-7.5-7.5v-8.719c0-4.143,3.358-7.5,7.5-7.5s7.5,3.357,7.5,7.5   v8.719C357.224,361.362,353.866,364.72,349.724,364.72z"/>
	<path style="fill:#3E4B58;" d="M297.198,371.415c-7.475,0-14.583-3.237-19.502-8.881c-2.722-3.122-2.396-7.86,0.726-10.582   c3.122-2.721,7.86-2.396,10.582,0.727c2.07,2.374,5.057,3.736,8.194,3.736s6.125-1.362,8.194-3.736   c2.722-3.123,7.459-3.448,10.582-0.727c3.123,2.722,3.448,7.46,0.726,10.582C311.781,368.178,304.672,371.415,297.198,371.415z"/>
</g>
<g style="opacity:0.3;">
	<ellipse style="fill:#FFFFFF;" cx="355.75" cy="385.34" rx="26.1" ry="15.643"/>
	<ellipse style="fill:#FFFFFF;" cx="238.64" cy="385.34" rx="26.1" ry="15.643"/>
</g>
<g>
</g>
<g>
</g>
<g>
</g>
<g>
</g>
<g>
</g>
<g>
</g>
<g>
</g>
<g>
</g>
<g>
</g>
<g>
</g>
<g>
</g>
<g>
</g>
<g>
</g>
<g>
</g>
<g>
</g>
</svg>
