<?xml version="1.0" encoding="iso-8859-1"?>
<!-- Generator: Adobe Illustrator 19.0.0, SVG Export Plug-In . SVG Version: 6.00 Build 0)  -->
<svg xmlns="http://www.w3.org/2000/svg" xmlns:xlink="http://www.w3.org/1999/xlink" version="1.1" id="Capa_1" x="0px" y="0px" viewBox="0 0 512 512" style="enable-background:new 0 0 512 512;" xml:space="preserve">
<path style="fill:#60D195;" d="M200.191,465.899h10.128c10.925,0,19.781-8.857,19.781-19.781l0,0  c0-10.925-8.856-19.781-19.781-19.781h-10.128c-10.925,0-19.781,8.857-19.781,19.781l0,0  C180.41,457.042,189.266,465.899,200.191,465.899z"/>
<path style="opacity:0.1;enable-background:new    ;" d="M200.191,465.899h10.128c10.925,0,19.781-8.857,19.781-19.781l0,0  c0-10.925-8.856-19.781-19.781-19.781h-10.128c-10.925,0-19.781,8.857-19.781,19.781l0,0  C180.41,457.042,189.266,465.899,200.191,465.899z"/>
<path style="fill:#60D195;" d="M146.124,512H108.16c-35.562,0-64.39-28.828-64.39-64.39v-2.985c0-35.561,28.828-64.39,64.39-64.39  h37.964c35.562,0,64.39,28.828,64.39,64.39v2.985C210.514,483.172,181.686,512,146.124,512z"/>
<g style="opacity:0.1;">
	<circle cx="82.27" cy="418.92" r="7.416"/>
	<circle cx="150.71" cy="489.12" r="7.416"/>
	<circle cx="163.89" cy="460.78" r="7.416"/>
</g>
<path style="fill:#60D195;" d="M54.093,465.899H43.965c-10.925,0-19.781-8.857-19.781-19.781l0,0  c0-10.925,8.856-19.781,19.781-19.781h10.128c10.925,0,19.781,8.857,19.781,19.781l0,0  C73.874,457.042,65.018,465.899,54.093,465.899z"/>
<path style="opacity:0.1;enable-background:new    ;" d="M150.133,380.371c-0.94-0.049-1.856-0.087-2.729-0.104l17.098,105.951  c-9.926,6.255-21.671,9.888-34.271,9.888H92.266c-13.721,0-26.429-4.305-36.876-11.619c0,0,0.001,0.002,0.002,0.003  C67.034,501.117,86.321,512,108.16,512h37.964c35.562,0,64.39-28.828,64.39-64.39v-2.985  C210.514,410.411,183.825,382.443,150.133,380.371z"/>
<path style="fill:#9BD8EB;" d="M406.986,512H216.282c-12.751,0-23.617-9.253-25.648-21.841l-54.876-340.058  c-2.312-14.324,8.75-27.313,23.259-27.313h305.234c14.51,0,25.571,12.989,23.259,27.313l-54.876,340.058  C430.603,502.747,419.737,512,406.986,512z"/>
<path style="opacity:0.3;fill:#FFFFFF;enable-background:new    ;" d="M183.319,444.829l7.315,45.329  C192.665,502.746,203.531,512,216.282,512h190.704c12.751,0,23.617-9.253,25.648-21.841l7.315-45.329L183.319,444.829  L183.319,444.829z"/>
<path style="fill:#59A8ED;" d="M256.376,294.923L200.354,55.141c-2.681-11.473-12.783-19.487-24.566-19.487h-75.165  c-4.264,0-7.721-3.457-7.721-7.721V7.721c0-4.264,3.457-7.721,7.721-7.721h75.165c28.436,0,52.816,19.339,59.285,47.029  l56.023,239.782L256.376,294.923z"/>
<path style="opacity:0.1;enable-background:new    ;" d="M235.073,47.029C228.603,19.339,204.224,0,175.788,0v35.654  c11.783,0,21.885,8.014,24.566,19.487l3.194,13.67h36.615L235.073,47.029z"/>
<path style="fill:#60D195;" d="M444.648,236.362c-24.487-24.487-64.189-24.487-88.676,0l0,0c-24.487,24.487-64.189,24.487-88.676,0  l0,0c-24.487-24.487-64.189-24.487-88.676,0l0,0c-7.63,7.63-16.736,12.88-26.399,15.755l31.098,192.712H439.95l31.099-192.712  C461.385,249.242,452.278,243.991,444.648,236.362z"/>
<path style="opacity:0.5;fill:#FFFFFF;enable-background:new    ;" d="M444.648,236.362c-24.487-24.487-64.189-24.487-88.676,0l0,0  c-24.487,24.487-64.189,24.487-88.676,0l0,0c-24.487-24.487-64.189-24.487-88.676,0l0,0c-7.63,7.63-16.736,12.88-26.399,15.755  l4.259,26.396c8.07-3.049,15.643-7.803,22.14-14.3l0,0c24.487-24.487,64.189-24.487,88.676,0l0,0  c24.487,24.487,64.189,24.487,88.676,0l0,0c24.487-24.487,64.189-24.487,88.676,0c6.497,6.497,14.07,11.251,22.14,14.3l4.26-26.396  C461.385,249.242,452.278,243.991,444.648,236.362z"/>
<path style="opacity:0.1;enable-background:new    ;" d="M464.251,122.788H388.63c14.51,0,25.571,12.989,23.259,27.313  l-54.876,340.057C354.982,502.746,344.116,512,331.365,512h75.621c12.751,0,23.617-9.253,25.648-21.841l54.876-340.057  C489.822,135.777,478.761,122.788,464.251,122.788z"/>
<g>
</g>
<g>
</g>
<g>
</g>
<g>
</g>
<g>
</g>
<g>
</g>
<g>
</g>
<g>
</g>
<g>
</g>
<g>
</g>
<g>
</g>
<g>
</g>
<g>
</g>
<g>
</g>
<g>
</g>
</svg>
