<?xml version="1.0" encoding="iso-8859-1"?>
<!-- Generator: Adobe Illustrator 19.0.0, SVG Export Plug-In . SVG Version: 6.00 Build 0)  -->
<svg xmlns="http://www.w3.org/2000/svg" xmlns:xlink="http://www.w3.org/1999/xlink" version="1.1" id="Capa_1" x="0px" y="0px" viewBox="0 0 512 512" style="enable-background:new 0 0 512 512;" xml:space="preserve">
<path style="fill:#9BD8EB;" d="M358.484,453.774H153.516c-22.88,0-44.844-8.986-61.164-25.022l-12.984-12.758  C28.978,366.478,0.594,298.793,0.594,228.145l0,0c0-13.682,11.091-24.773,24.773-24.773h461.265  c13.682,0,24.773,11.091,24.773,24.773l0,0c0,70.647-28.384,138.332-78.774,187.849l-12.984,12.758  C403.328,444.788,381.365,453.774,358.484,453.774z"/>
<path style="fill:#E85668;" d="M7.245,286.948c11.139,48.625,35.964,93.514,72.124,129.046l12.984,12.758  c16.319,16.036,38.284,25.022,61.164,25.022h204.968c22.88,0,44.844-8.986,61.164-25.022l12.984-12.758  c36.16-35.532,60.985-80.421,72.124-129.046H7.245z"/>
<path style="fill:#E4E7E9;" d="M297.102,67.983v229.381h45.322V67.983c0-12.515,10.146-22.661,22.661-22.661l0,0  c12.515,0,22.661,10.146,22.661,22.661v8.797c0,12.515,10.146,22.661,22.661,22.661l0,0c12.515,0,22.661-10.146,22.661-22.661  v-8.797C433.067,30.437,402.63,0,365.085,0l0,0C327.539,0,297.102,30.437,297.102,67.983z"/>
<rect x="297.1" y="262.09" style="opacity:0.1;enable-background:new    ;" width="45.32" height="24.854"/>
<path style="fill:#E4E7E9;" d="M342.423,301.815c0,47.521-38.92,85.951-86.622,85.154c-46.697-0.78-83.711-39.853-83.711-86.556  v-6.083c0-4.077,3.305-7.382,7.382-7.382h162.951V301.815z"/>
<path style="opacity:0.1;enable-background:new    ;" d="M324.546,286.948v14.867c0,44.005-33.375,80.21-76.193,84.694  c2.452,0.259,4.935,0.419,7.448,0.46c47.703,0.797,86.622-37.634,86.622-85.154v-14.867H324.546z"/>
<path style="opacity:0.1;enable-background:new    ;" d="M486.632,203.372h-63.28c13.682,0,24.773,11.092,24.773,24.773l0,0  c0,70.647-28.384,138.332-78.774,187.848l-23.009,22.61c-9.894,9.723-23.211,15.17-37.083,15.17h49.224  c22.88,0,44.845-8.986,61.164-25.022l12.984-12.758c50.39-49.516,78.774-117.201,78.774-187.848l0,0  C511.405,214.463,500.314,203.372,486.632,203.372z"/>
<path style="fill:#9BD8EB;" d="M344.094,512H167.906c-5.525,0-10.003-4.479-10.003-10.004v-6.043  c0-23.295,18.884-42.179,42.179-42.179h111.836c23.295,0,42.179,18.884,42.179,42.179v6.043  C354.097,507.521,349.618,512,344.094,512z"/>
<path style="opacity:0.1;enable-background:new    ;" d="M311.918,453.774h-38.465c23.295,0,42.179,18.884,42.179,42.179v6.043  c0,5.525-4.479,10.004-10.003,10.004h38.465c5.525,0,10.003-4.479,10.003-10.004v-6.043  C354.097,472.658,335.214,453.774,311.918,453.774z"/>
<g>
</g>
<g>
</g>
<g>
</g>
<g>
</g>
<g>
</g>
<g>
</g>
<g>
</g>
<g>
</g>
<g>
</g>
<g>
</g>
<g>
</g>
<g>
</g>
<g>
</g>
<g>
</g>
<g>
</g>
</svg>
