<?xml version="1.0" encoding="iso-8859-1"?>
<!-- Generator: Adobe Illustrator 19.0.0, SVG Export Plug-In . SVG Version: 6.00 Build 0)  -->
<svg xmlns="http://www.w3.org/2000/svg" xmlns:xlink="http://www.w3.org/1999/xlink" version="1.1" id="Capa_1" x="0px" y="0px" viewBox="0 0 511.999 511.999" style="enable-background:new 0 0 511.999 511.999;" xml:space="preserve">
<g>
	<path style="fill:#E4E7E9;" d="M328.025,58.363h-49.714V22.427C278.311,10.041,288.351,0,300.737,0h4.861   c12.386,0,22.427,10.041,22.427,22.427V58.363z"/>
	<path style="fill:#E4E7E9;" d="M356.465,93.539l-12.101-9.319H167.635l-12.101,9.319c-6.796,5.233-10.778,13.325-10.778,21.903   v339.48c0,8.578,3.982,16.669,10.778,21.903l12.101,9.319h176.728l12.101-9.319c6.796-5.233,10.778-13.325,10.778-21.903v-339.48   C367.242,106.864,363.261,98.772,356.465,93.539z"/>
	<path style="fill:#E4E7E9;" d="M344.623,58.363H167.375c-7.14,0-12.928,5.788-12.928,12.928l0,0c0,7.14,5.788,12.928,12.928,12.928   h177.249c7.14,0,12.928-5.788,12.928-12.928l0,0C357.552,64.151,351.763,58.363,344.623,58.363z"/>
</g>
<g style="opacity:0.1;">
	<path d="M344.623,58.363h-26.674c7.14,0,12.928,5.788,12.928,12.928s-5.788,12.928-12.928,12.928h26.675   c7.14,0,12.928-5.788,12.928-12.928S351.763,58.363,344.623,58.363z"/>
</g>
<path style="fill:#E4E7E9;" d="M344.623,486.143H167.375c-7.14,0-12.928,5.788-12.928,12.928l0,0c0,7.14,5.788,12.928,12.928,12.928  h177.249c7.14,0,12.928-5.788,12.928-12.928l0,0C357.552,491.932,351.763,486.143,344.623,486.143z"/>
<g style="opacity:0.1;">
	<path d="M344.623,486.143h-26.674c7.14,0,12.928,5.788,12.928,12.928s-5.788,12.928-12.928,12.928h26.675   c7.14,0,12.928-5.788,12.928-12.928C357.552,491.932,351.763,486.143,344.623,486.143z"/>
</g>
<path style="fill:#FFFFFF;" d="M306.738,32.91h-7.141c-4.143,0-7.5-3.357-7.5-7.5s3.357-7.5,7.5-7.5h7.141  c4.143,0,7.5,3.357,7.5,7.5S310.881,32.91,306.738,32.91z"/>
<g style="opacity:0.1;">
	<rect x="278.309" y="43.934" width="49.714" height="14.429"/>
</g>
<g>
	<path style="fill:#59A8ED;" d="M255.999,285.181l-73.144,200.962h161.508l12.101-9.319c6.796-5.233,10.778-13.325,10.778-21.903   v-169.74L255.999,285.181L255.999,285.181z"/>
	<path style="fill:#59A8ED;" d="M255.999,285.181L329.143,84.22H167.635l-12.101,9.319c-6.796,5.233-10.778,13.325-10.778,21.903   v169.74h111.243V285.181z"/>
</g>
<circle style="fill:#FFDB62;" cx="255.999" cy="285.18" r="39.552"/>
<path style="fill:#FFFFFF;" d="M311.844,228.186h-111.69c-8.667,0-15.719-7.052-15.719-15.72v-21.66  c0-8.668,7.052-15.72,15.719-15.72h111.69c8.668,0,15.72,7.052,15.72,15.72v21.66C327.563,221.134,320.512,228.186,311.844,228.186z   M200.154,190.086c-0.396,0-0.719,0.323-0.719,0.72v21.66c0,0.396,0.323,0.72,0.719,0.72h111.69c0.396,0,0.72-0.323,0.72-0.72  v-21.66c0-0.396-0.323-0.72-0.72-0.72H200.154z"/>
<path style="fill:#E85668;" d="M311.844,182.586h-111.69c-4.54,0-8.219,3.68-8.219,8.219v21.66c0,4.539,3.68,8.219,8.219,8.219  h111.69c4.539,0,8.219-3.68,8.219-8.219v-21.66C320.064,186.266,316.384,182.586,311.844,182.586z"/>
<g style="opacity:0.1;">
	<path d="M356.464,93.538l-12.101-9.319H167.635l-12.101,9.319c-2.285,1.76-4.243,3.848-5.847,6.164h175.535   c5.17,0,9.774,3.405,11.154,8.387c0.656,2.369,1,4.839,1,7.352v339.48c0,8.578-3.982,16.669-10.778,21.903l-12.102,9.319h29.868   l12.101-9.318c6.796-5.233,10.778-13.325,10.778-21.903v-339.48C367.242,106.864,363.261,98.772,356.464,93.538z"/>
</g>
<g>
	<path style="fill:#E85668;" d="M229.505,324.734h-32.81c-4.111,0-7.445-3.333-7.445-7.445v-9.128c0-4.112,3.333-7.445,7.445-7.445   h32.81c4.112,0,7.445,3.333,7.445,7.445v9.128C236.949,321.401,233.616,324.734,229.505,324.734z"/>
	<path style="fill:#E85668;" d="M282.493,324.734h32.81c4.112,0,7.445-3.333,7.445-7.445v-9.128c0-4.112-3.333-7.445-7.445-7.445   h-32.81c-4.112,0-7.445,3.333-7.445,7.445v9.128C275.049,321.401,278.382,324.734,282.493,324.734z"/>
</g>
<path style="fill:#3E4B58;" d="M313.138,461.958H245.75c-4.142,0-7.5-3.357-7.5-7.5s3.358-7.5,7.5-7.5h67.388  c4.143,0,7.5,3.357,7.5,7.5S317.28,461.958,313.138,461.958z"/>
<g>
</g>
<g>
</g>
<g>
</g>
<g>
</g>
<g>
</g>
<g>
</g>
<g>
</g>
<g>
</g>
<g>
</g>
<g>
</g>
<g>
</g>
<g>
</g>
<g>
</g>
<g>
</g>
<g>
</g>
</svg>
