<?xml version="1.0" encoding="iso-8859-1"?>
<!-- Generator: Adobe Illustrator 19.0.0, SVG Export Plug-In . SVG Version: 6.00 Build 0)  -->
<svg xmlns="http://www.w3.org/2000/svg" xmlns:xlink="http://www.w3.org/1999/xlink" version="1.1" id="Capa_1" x="0px" y="0px" viewBox="0 0 512.001 512.001" style="enable-background:new 0 0 512.001 512.001;" xml:space="preserve">
<path style="fill:#F7D9A4;" d="M385.093,154.166l-44.601,44.6c-6.673,6.674-17.493,6.674-24.167,0l-66.56-66.56  c-6.673-6.674-6.673-17.494,0-24.167l44.601-44.6c6.674-6.674,17.493-6.674,24.167,0l66.56,66.56  C391.766,136.672,391.766,147.492,385.093,154.166z"/>
<g style="opacity:0.1;">
	<path d="M385.093,154.166l-44.601,44.6c-6.673,6.674-17.493,6.674-24.167,0l-66.56-66.56c-6.673-6.674-6.673-17.494,0-24.167   l44.601-44.6c6.674-6.674,17.493-6.674,24.167,0l66.56,66.56C391.766,136.672,391.766,147.492,385.093,154.166z"/>
</g>
<g>
	<path style="fill:#F7D9A4;" d="M244.118,63.439l44.6,44.6c6.674,6.674,6.674,17.494,0,24.167l-66.56,66.56   c-6.674,6.674-17.494,6.674-24.167,0l-44.6-44.6c-6.674-6.674-6.674-17.494,0-24.167l66.56-66.56   C226.624,56.765,237.444,56.765,244.118,63.439z"/>
	<path style="fill:#F7D9A4;" d="M447.27,74.336l21.573,59.271c3.228,8.869-1.345,18.675-10.214,21.903l-88.453,32.194   c-8.869,3.228-18.675-1.345-21.903-10.214l-21.572-59.271c-3.228-8.869,1.345-18.675,10.214-21.903l88.453-32.194   C434.236,60.894,444.042,65.467,447.27,74.336z"/>
</g>
<g style="opacity:0.1;">
	<path d="M469.034,134.228H150.298c-3.331,6.434-2.303,14.541,3.093,19.937l44.6,44.6c6.674,6.674,17.493,6.674,24.167,0   l47.083-47.083l47.083,47.083c6.674,6.674,17.494,6.674,24.167,0l13.517-13.516c4.47,3.385,10.506,4.515,16.168,2.454   l88.453-32.194C467.292,152.357,471.835,142.929,469.034,134.228z"/>
</g>
<path style="fill:#59A8ED;" d="M162.525,378.536h-57.009c-22.974,0-45.447-7.977-63.28-22.461  C24.403,341.59,11.988,321.23,7.279,298.742l-6.12-29.22c-3.348-15.981,0.637-32.415,10.931-45.089  c10.294-12.675,25.563-19.944,41.892-19.944h87.35c10.77,0,19.501,8.73,19.501,19.501s-8.731,19.501-19.501,19.501h-87.35  c-6.2,0-9.94,3.465-11.619,5.531c-1.677,2.065-4.302,6.436-3.031,12.503l6.12,29.221c5.92,28.269,31.181,48.787,60.063,48.787  h57.009c10.77,0,19.501,8.73,19.501,19.501C182.026,369.806,173.295,378.536,162.525,378.536z"/>
<g style="opacity:0.1;">
	<path d="M160.834,223.991c0-10.771-8.731-19.501-19.501-19.501H90.128l-0.035,11.335c-0.028,9.244,0.257,18.471,0.829,27.666   h50.411C152.103,243.492,160.834,234.762,160.834,223.991z M162.525,339.535h-54.401c3.975,13.201,8.601,26.217,13.856,39.002   h40.545c10.77,0,19.501-8.73,19.501-19.501S173.295,339.535,162.525,339.535z"/>
</g>
<path style="fill:#59A8ED;" d="M426.216,453.568H201.334c-10.675,0-20.442-6.008-25.256-15.536l-14.87-29.43  c-30.196-59.762-45.831-125.819-45.626-192.777l0.131-42.839c0.039-12.701,10.346-22.977,23.047-22.977h350.046  c12.698,0,23.004,10.271,23.047,22.969l0.146,42.609c0.229,66.958-15.382,133.021-45.558,192.795l-14.964,29.641  C446.665,447.556,436.895,453.568,426.216,453.568z"/>
<g style="opacity:0.1;">
	<path d="M511.853,172.978c-0.043-12.698-10.349-22.969-23.047-22.969h-45.713c12.698,0,23.004,10.271,23.047,22.969l0.146,42.609   c0.229,66.958-15.382,133.021-45.558,192.795l-14.964,29.641c-4.813,9.533-14.582,15.545-25.261,15.545h45.713   c10.679,0,20.448-6.012,25.261-15.545l14.964-29.641c30.176-59.774,45.786-125.837,45.558-192.795L511.853,172.978z"/>
</g>
<path style="fill:#FFFFFF;" d="M395.637,338.57c0-4.143-3.358-7.5-7.5-7.5h-16.494l15.441-15.44c2.929-2.93,2.929-7.678,0-10.607  c-2.929-2.928-7.678-2.928-10.606,0l-26.048,26.048h-18.532l25.123-25.123c2.929-2.93,2.929-7.678,0-10.607  c-2.928-2.928-7.677-2.928-10.606,0l-25.125,25.124v-18.534l26.048-26.048c2.929-2.93,2.929-7.678,0-10.607  c-2.929-2.928-7.678-2.928-10.606,0l-15.441,15.442v-16.494c0-4.143-3.358-7.5-7.5-7.5s-7.5,3.357-7.5,7.5v16.494l-15.441-15.441  c-2.929-2.93-7.678-2.929-10.606-0.001c-2.929,2.93-2.929,7.678,0,10.606l26.047,26.048v18.533l-25.124-25.124  c-2.929-2.928-7.678-2.928-10.606,0c-2.929,2.93-2.929,7.678,0,10.607l25.123,25.123h-18.533l-26.048-26.048  c-2.929-2.928-7.678-2.928-10.606,0c-2.929,2.93-2.929,7.678,0,10.607l15.441,15.44h-16.494c-4.142,0-7.5,3.357-7.5,7.5  s3.358,7.5,7.5,7.5h16.494l-15.441,15.441c-2.929,2.93-2.929,7.678,0,10.607c1.464,1.464,3.384,2.196,5.303,2.196  s3.839-0.732,5.303-2.196l26.048-26.049h18.533l-25.124,25.124c-2.929,2.93-2.929,7.678,0,10.607  c1.464,1.464,3.384,2.196,5.303,2.196s3.839-0.732,5.303-2.196l25.124-25.124v18.532l-26.047,26.047  c-2.929,2.93-2.929,7.678,0,10.607c2.929,2.928,7.678,2.928,10.606,0l15.441-15.441v16.494c0,4.143,3.358,7.5,7.5,7.5  s7.5-3.357,7.5-7.5v-16.494l15.441,15.441c1.464,1.464,3.384,2.196,5.303,2.196s3.839-0.732,5.303-2.196  c2.929-2.93,2.929-7.678,0-10.607l-26.048-26.047v-18.533l25.125,25.124c1.464,1.464,3.384,2.196,5.303,2.196  s3.839-0.732,5.303-2.196c2.929-2.93,2.929-7.678,0-10.607l-25.124-25.124h18.533l26.048,26.049  c1.464,1.464,3.384,2.196,5.303,2.196s3.839-0.732,5.303-2.196c2.929-2.93,2.929-7.678,0-10.607l-15.441-15.441h16.494  C392.279,346.07,395.637,342.713,395.637,338.57z"/>
<g>
	<path style="fill:#3E4B58;" d="M246.981,208.111c-4.142,0-7.5-3.357-7.5-7.5v-11.013c0-4.143,3.358-7.5,7.5-7.5s7.5,3.357,7.5,7.5   v11.013C254.481,204.754,251.124,208.111,246.981,208.111z"/>
	<path style="fill:#3E4B58;" d="M379.666,208.111c-4.142,0-7.5-3.357-7.5-7.5v-11.013c0-4.143,3.358-7.5,7.5-7.5s7.5,3.357,7.5,7.5   v11.013C387.166,204.754,383.808,208.111,379.666,208.111z"/>
	<path style="fill:#3E4B58;" d="M313.324,216.568c-8.871,0-17.307-3.842-23.145-10.541c-2.721-3.123-2.396-7.86,0.727-10.582   c3.123-2.721,7.86-2.396,10.582,0.727c2.988,3.43,7.303,5.396,11.836,5.396s8.848-1.967,11.836-5.396   c2.722-3.123,7.459-3.447,10.582-0.727c3.123,2.722,3.448,7.459,0.726,10.582C330.63,212.727,322.194,216.568,313.324,216.568z"/>
</g>
<g style="opacity:0.4;">
	<ellipse style="fill:#F98F9D;" cx="387.281" cy="236.131" rx="32.97" ry="19.758"/>
	<ellipse style="fill:#F98F9D;" cx="239.371" cy="236.131" rx="32.97" ry="19.758"/>
</g>
<g>
</g>
<g>
</g>
<g>
</g>
<g>
</g>
<g>
</g>
<g>
</g>
<g>
</g>
<g>
</g>
<g>
</g>
<g>
</g>
<g>
</g>
<g>
</g>
<g>
</g>
<g>
</g>
<g>
</g>
</svg>
