<?xml version="1.0" encoding="iso-8859-1"?>
<!-- Generator: Adobe Illustrator 19.0.0, SVG Export Plug-In . SVG Version: 6.00 Build 0)  -->
<svg xmlns="http://www.w3.org/2000/svg" xmlns:xlink="http://www.w3.org/1999/xlink" version="1.1" id="Capa_1" x="0px" y="0px" viewBox="0 0 511.999 511.999" style="enable-background:new 0 0 511.999 511.999;" xml:space="preserve">
<rect x="188.54" y="67.72" style="fill:#937254;" width="54.52" height="32.26"/>
<g style="opacity:0.16;">
	<rect x="188.54" y="67.72" width="54.52" height="32.26"/>
</g>
<path style="fill:#937254;" d="M247.727,67.722h-63.862c-4.356,0-7.887-3.531-7.887-7.887V42.182c0-4.356,3.531-7.887,7.887-7.887  h63.862c4.356,0,7.887,3.531,7.887,7.887v17.654C255.614,64.191,252.083,67.722,247.727,67.722z"/>
<path style="fill:#3E4B58;" d="M471.796,335.807c-4.143,0-7.5-3.357-7.5-7.5V298.99c0-4.143,3.357-7.5,7.5-7.5s7.5,3.357,7.5,7.5  v29.316C479.296,332.449,475.938,335.807,471.796,335.807z"/>
<path style="fill:#937254;" d="M0,399.522V165.414c0-9.441,4.995-18.177,13.131-22.966l0,0c125.081-73.622,280.249-73.622,405.329,0  l0,0c8.136,4.789,13.131,13.525,13.131,22.966v234.108c0,9.441-4.995,18.177-13.131,22.966l0,0  c-125.081,73.622-280.249,73.622-405.329,0l0,0C4.995,417.7,0,408.963,0,399.522z"/>
<g style="opacity:0.1;">
	<path d="M418.461,142.448L418.461,142.448c-10.365-6.1-20.939-11.684-31.682-16.773c3.913,4.713,6.156,10.704,6.156,17.018v234.108   c0,9.441-4.995,18.177-13.131,22.966l0,0C265.087,467.288,125.066,472.872,6.156,416.54c1.938,2.335,4.28,4.362,6.975,5.948l0,0   c125.081,73.622,280.249,73.622,405.329,0l0,0c8.136-4.789,13.131-13.525,13.131-22.966V165.414   C431.592,155.973,426.597,147.237,418.461,142.448z"/>
</g>
<g style="opacity:0.2;">
	<path d="M317.279,187.43c-66.393-17.094-136.575-17.093-202.966-0.001L0,216.858v15.239c0.618-0.001,1.244-0.069,1.87-0.231   l116.184-29.911c63.943-16.463,131.542-16.463,195.485,0l116.184,29.911c0.626,0.162,1.252,0.238,1.87,0.239v-15.247   L317.279,187.43z M313.539,362.981c-63.943,16.461-131.542,16.461-195.485,0L1.87,333.069c-0.626-0.162-1.252-0.23-1.87-0.231   v15.238l114.313,29.431c33.195,8.547,67.339,12.819,101.482,12.819s68.288-4.272,101.483-12.819l114.313-29.431v-15.238   c-0.617,0.001-1.244,0.069-1.87,0.231L313.539,362.981z"/>
</g>
<g>
	<path style="fill:#3E4B58;" d="M398.136,439.879V125.056c0-4.095-2.364-7.82-6.063-9.576c-4.656-2.211-9.344-4.329-14.061-6.355   c-3.648-1.567-7.71,1.125-7.71,5.095v336.495c0,3.97,4.062,6.661,7.71,5.095c4.717-2.026,9.405-4.144,14.061-6.355   C395.773,447.699,398.136,443.973,398.136,439.879z"/>
	<path style="fill:#3E4B58;" d="M33.456,439.879V125.056c0-4.095,2.364-7.82,6.063-9.576c4.656-2.211,9.344-4.329,14.061-6.355   c3.648-1.567,7.709,1.125,7.709,5.095v336.495c0,3.97-4.062,6.661-7.709,5.095c-4.717-2.026-9.405-4.144-14.061-6.355   C35.82,447.699,33.456,443.973,33.456,439.879z"/>
</g>
<path style="fill:#E4E7E9;" d="M431.592,328.306v29.499h42.923c3.445,0,6.238,2.793,6.238,6.238v19.882  c0,2.831,2.295,5.126,5.126,5.126h20.994c2.831,0,5.126-2.295,5.126-5.126V352.98c0-13.627-11.047-24.673-24.673-24.673h-55.734  V328.306z"/>
<g style="opacity:0.1;">
	<rect x="431.59" y="328.31" width="18.221" height="29.499"/>
</g>
<path style="fill:#E85668;" d="M490.304,306.49h-37.016c-4.143,0-7.5-3.357-7.5-7.5s3.357-7.5,7.5-7.5h37.016  c4.143,0,7.5,3.357,7.5,7.5S494.446,306.49,490.304,306.49z"/>
<g style="opacity:0.4;">
	<ellipse style="fill:#F98F9D;" cx="276.33" cy="304.16" rx="26.985" ry="16.17"/>
	<ellipse style="fill:#F98F9D;" cx="155.26" cy="304.16" rx="26.985" ry="16.17"/>
</g>
<g>
	<path style="fill:#3E4B58;" d="M150.214,280.871c-4.143,0-7.5-3.357-7.5-7.5v-11.186c0-4.143,3.357-7.5,7.5-7.5s7.5,3.357,7.5,7.5   v11.186C157.714,277.514,154.356,280.871,150.214,280.871z"/>
	<path style="fill:#3E4B58;" d="M281.379,280.871c-4.143,0-7.5-3.357-7.5-7.5v-11.186c0-4.143,3.357-7.5,7.5-7.5s7.5,3.357,7.5,7.5   v11.186C288.879,277.514,285.521,280.871,281.379,280.871z"/>
	<path style="fill:#3E4B58;" d="M235.365,281.93c0,10.656-8.828,19.25-19.569,18.868c-10.231-0.364-18.192-9.083-18.192-19.321   v-13.28c0-2.843,2.305-5.148,5.148-5.148h27.465c2.843,0,5.148,2.305,5.148,5.148L235.365,281.93L235.365,281.93z"/>
</g>
<g>
</g>
<g>
</g>
<g>
</g>
<g>
</g>
<g>
</g>
<g>
</g>
<g>
</g>
<g>
</g>
<g>
</g>
<g>
</g>
<g>
</g>
<g>
</g>
<g>
</g>
<g>
</g>
<g>
</g>
</svg>
