<?xml version="1.0" encoding="iso-8859-1"?>
<!-- Generator: Adobe Illustrator 19.0.0, SVG Export Plug-In . SVG Version: 6.00 Build 0)  -->
<svg xmlns="http://www.w3.org/2000/svg" xmlns:xlink="http://www.w3.org/1999/xlink" version="1.1" id="Capa_1" x="0px" y="0px" viewBox="0 0 512 512" style="enable-background:new 0 0 512 512;" xml:space="preserve">
<path style="fill:#3E4B58;" d="M174.718,241.759c-3.064,0-5.94-1.892-7.049-4.937L108.9,75.356  c-1.417-3.893,0.591-8.196,4.482-9.613c3.895-1.415,8.196,0.591,9.613,4.482l58.769,161.466c1.417,3.893-0.591,8.196-4.482,9.613  C176.436,241.612,175.569,241.759,174.718,241.759z"/>
<path style="fill:#E85668;" d="M7.64,150.067L7.64,150.067c86.433-8.418,169.327-38.589,240.95-87.699l0,0  c4.878-3.345,3.614-10.867-2.089-12.433L101.998,10.244c-5.866-1.611-12.11,0.661-15.568,5.666L1.248,139.2  C-2.114,144.066,1.753,150.64,7.64,150.067z"/>
<path style="fill:#60D195;" d="M338.12,308.92l54.002-231.133c2.584-11.06,12.322-18.784,23.68-18.784h72.454  c4.111,0,7.443-3.332,7.443-7.443V32.077c0-4.111-3.332-7.443-7.443-7.443h-72.454c-27.41,0-50.91,18.642-57.147,45.333  l-54.002,231.134L338.12,308.92z"/>
<g style="opacity:0.1;">
	<path d="M358.655,69.968c6.236-26.691,29.737-45.333,57.147-45.333v34.368c-11.358,0-21.095,7.724-23.68,18.784l-3.079,13.177   h-35.294L358.655,69.968z"/>
</g>
<path style="fill:#FFDB62;" d="M448.621,173.731H50.577c-15.208,0-28.03,11.486-29.525,26.62  c-1.463,14.803-2.221,29.924-2.221,45.296c0,179.895,41.939,256.62,230.768,256.62s230.769-76.726,230.769-256.62  c0-15.372-0.759-30.493-2.222-45.296C476.65,185.217,463.828,173.731,448.621,173.731z"/>
<g style="opacity:0.1;">
	<path d="M478.146,200.351c-1.495-15.134-14.317-26.62-29.525-26.62h-47.206c15.208,0,28.03,11.486,29.525,26.62   c1.463,14.803,2.222,29.924,2.222,45.297c0,172.136-38.419,249.799-207.166,256.179c7.606,0.288,15.458,0.441,23.603,0.441   c188.829,0,230.769-76.725,230.769-256.62C480.367,230.275,479.609,215.154,478.146,200.351z"/>
</g>
<g style="opacity:0.15;">
	<path d="M419.014,242.686l20.405-20.405c2.929-2.93,2.929-7.678,0-10.607c-2.929-2.928-7.677-2.928-10.607,0l-20.405,20.405   l-20.405-20.405c-2.93-2.928-7.678-2.928-10.607,0c-2.929,2.93-2.929,7.678,0,10.607l20.405,20.405l-20.405,20.405   c-2.929,2.93-2.929,7.678,0,10.607c1.465,1.464,3.384,2.196,5.304,2.196c1.919,0,3.839-0.732,5.304-2.196l20.405-20.405   l20.405,20.405c1.465,1.464,3.385,2.196,5.304,2.196s3.839-0.732,5.304-2.196c2.929-2.93,2.929-7.678,0-10.607L419.014,242.686z"/>
	<path d="M88.327,277.09l20.405-20.405c2.929-2.93,2.929-7.678,0-10.607c-2.93-2.928-7.678-2.928-10.607,0L77.72,266.482   l-20.405-20.405c-2.93-2.928-7.678-2.928-10.607,0c-2.929,2.93-2.929,7.678,0,10.607l20.405,20.405l-20.405,20.405   c-2.929,2.93-2.929,7.678,0,10.607c1.465,1.464,3.385,2.196,5.304,2.196s3.839-0.732,5.304-2.196l20.405-20.405l20.405,20.405   c1.465,1.464,3.385,2.196,5.304,2.196s3.839-0.732,5.304-2.196c2.929-2.93,2.929-7.678,0-10.607L88.327,277.09z"/>
	<path d="M186.756,419.048l20.405-20.405c2.929-2.93,2.929-7.678,0-10.607c-2.93-2.928-7.678-2.928-10.607,0l-20.405,20.405   l-40.81-40.81l20.405-20.405c2.929-2.93,2.929-7.678,0-10.607c-2.93-2.928-7.678-2.928-10.607,0l-20.405,20.405l-10.428-10.428   c-2.93-2.928-7.678-2.928-10.607,0c-2.929,2.93-2.929,7.678,0,10.607l10.428,10.428l-15.101,15.101l-26.159-26.159   c-2.929-2.927-7.677-2.929-10.607,0c-2.929,2.93-2.929,7.678,0,10.607l26.159,26.159l-6.004,6.004   c-2.929,2.93-2.929,7.678,0,10.607c1.465,1.464,3.385,2.196,5.304,2.196s3.839-0.732,5.304-2.196l6.004-6.004l15.101,15.102   l-20.405,20.405c-2.929,2.93-2.929,7.678,0,10.607c1.465,1.464,3.385,2.196,5.304,2.196s3.839-0.732,5.304-2.196l20.405-20.405   l20.405,20.405c1.465,1.464,3.384,2.196,5.304,2.196c1.919,0,3.839-0.732,5.304-2.196l20.405-20.405l20.405,20.405   c1.465,1.464,3.385,2.196,5.304,2.196s3.839-0.732,5.304-2.196c2.929-2.93,2.929-7.678,0-10.607L186.756,419.048z M109.63,393.339   l15.101-15.101l15.101,15.101l-15.101,15.102L109.63,393.339z M150.439,434.149l-15.101-15.101l15.101-15.102l15.102,15.102   L150.439,434.149z"/>
</g>
<g>
	<path style="fill:#3E4B58;" d="M173.19,290.932c-4.143,0-7.5-3.357-7.5-7.5v-12.684c0-4.143,3.357-7.5,7.5-7.5s7.5,3.357,7.5,7.5   v12.684C180.69,287.574,177.333,290.932,173.19,290.932z"/>
	<path style="fill:#3E4B58;" d="M326.007,290.932c-4.143,0-7.5-3.357-7.5-7.5v-12.684c0-4.143,3.357-7.5,7.5-7.5s7.5,3.357,7.5,7.5   v12.684C333.507,287.574,330.149,290.932,326.007,290.932z"/>
	<path style="fill:#3E4B58;" d="M249.599,300.672c-9.887,0-19.29-4.282-25.799-11.75c-2.721-3.122-2.396-7.86,0.727-10.582   c3.122-2.721,7.859-2.396,10.582,0.727c3.658,4.198,8.94,6.605,14.49,6.605c5.551,0,10.832-2.407,14.49-6.605   c2.721-3.122,7.457-3.448,10.582-0.727c3.122,2.722,3.448,7.459,0.727,10.582C268.891,296.389,259.487,300.672,249.599,300.672z"/>
</g>
<g style="opacity:0.4;">
	<ellipse style="fill:#F98F9D;" cx="334.78" cy="324.34" rx="37.972" ry="22.756"/>
	<ellipse style="fill:#F98F9D;" cx="164.42" cy="324.34" rx="37.972" ry="22.756"/>
</g>
<g style="opacity:0.1;">
	<path d="M58.425,124.043c-1.102,0-2.221-0.244-3.278-0.759c-3.724-1.814-5.272-6.303-3.459-10.027l24.964-51.258   c1.814-3.723,6.302-5.271,10.027-3.459c3.724,1.814,5.272,6.303,3.459,10.027l-24.964,51.258   C63.875,122.491,61.204,124.043,58.425,124.043z"/>
	<path d="M188.127,76.836c-1.021,0-2.058-0.21-3.051-0.652l-52.071-23.219c-3.783-1.687-5.482-6.121-3.795-9.904   c1.687-3.783,6.121-5.48,9.904-3.795l52.071,23.219c3.783,1.687,5.482,6.121,3.795,9.904   C193.736,75.179,190.997,76.836,188.127,76.836z"/>
	<path d="M125.805,107.37c-3.064,0-5.94-1.892-7.049-4.937L108.9,75.356c-1.417-3.893,0.59-8.196,4.482-9.613   c3.895-1.415,8.196,0.591,9.613,4.482l9.855,27.077c1.417,3.893-0.59,8.196-4.482,9.613   C127.522,107.224,126.656,107.37,125.805,107.37z"/>
</g>
<path style="fill:#60D195;" d="M382.379,363.666c30.373-30.373,76.798-37.116,104.94-38.181  c13.857-0.525,25.188,10.806,24.663,24.663c-1.066,28.143-7.809,74.568-38.181,104.94c-30.373,30.373-76.798,37.116-104.941,38.181  c-13.857,0.525-25.188-10.806-24.663-24.663C345.263,440.464,352.006,394.038,382.379,363.666z"/>
<g style="opacity:0.1;">
	<path d="M399.299,445.668c-1.919,0-3.839-0.732-5.304-2.196c-2.929-2.93-2.929-7.678,0-10.607l57.582-57.582   c2.93-2.928,7.678-2.928,10.607,0c2.929,2.93,2.929,7.678,0,10.607l-57.582,57.582   C403.138,444.936,401.218,445.668,399.299,445.668z"/>
</g>
<g style="opacity:0.1;">
	<path d="M383.457,418.06c-7.484-7.484-16.56-12.624-25.858-16.141c-9.77,23.75-12.727,48.878-13.402,66.687   c-0.525,13.857,10.806,25.188,24.663,24.663c10.338-0.391,23.146-1.556,36.716-4.369c0.891-1.982,1.368-4.191,1.28-6.527   C406.203,465.126,402.071,436.675,383.457,418.06z"/>
</g>
<path style="fill:#60D195;" d="M309.5,474.089c-18.614-18.614-22.746-47.066-23.399-64.313c-0.322-8.492,6.623-15.436,15.115-15.115  c17.247,0.653,45.699,4.786,64.313,23.4c18.614,18.614,22.746,47.066,23.399,64.313c0.322,8.492-6.623,15.436-15.115,15.115  C356.566,496.835,328.114,492.703,309.5,474.089z"/>
<g style="opacity:0.1;">
	<path d="M355.159,471.22c-1.92,0-3.839-0.732-5.304-2.197l-35.289-35.289c-2.929-2.93-2.929-7.678,0.001-10.607   c2.928-2.929,7.677-2.928,10.606,0.001l35.289,35.289c2.929,2.93,2.929,7.678-0.001,10.607   C358.998,470.487,357.078,471.22,355.159,471.22z"/>
</g>
<g>
</g>
<g>
</g>
<g>
</g>
<g>
</g>
<g>
</g>
<g>
</g>
<g>
</g>
<g>
</g>
<g>
</g>
<g>
</g>
<g>
</g>
<g>
</g>
<g>
</g>
<g>
</g>
<g>
</g>
</svg>
