<?xml version="1.0" encoding="iso-8859-1"?>
<!-- Generator: Adobe Illustrator 19.0.0, SVG Export Plug-In . SVG Version: 6.00 Build 0)  -->
<svg xmlns="http://www.w3.org/2000/svg" xmlns:xlink="http://www.w3.org/1999/xlink" version="1.1" id="Capa_1" x="0px" y="0px" viewBox="0 0 512 512" style="enable-background:new 0 0 512 512;" xml:space="preserve">
<path style="fill:#C584E8;" d="M363.44,227.016H148.56v268.695c0,8.996,7.293,16.289,16.289,16.289h182.303  c8.996,0,16.289-7.293,16.289-16.289L363.44,227.016L363.44,227.016z"/>
<g style="opacity:0.3;">
	<path style="fill:#FFFFFF;" d="M363.44,227.016H148.56v268.695c0,8.996,7.293,16.289,16.289,16.289h182.303   c8.996,0,16.289-7.293,16.289-16.289L363.44,227.016L363.44,227.016z"/>
</g>
<path style="fill:#C584E8;" d="M307.935,98.339V52.258H204.066v46.081c0,2.629-1.435,5.046-3.745,6.303  c-36.762,20.002-63.242,59.189-68.451,105.565c-1.008,8.973,6.081,16.81,15.111,16.81h218.038c9.03,0,16.118-7.836,15.111-16.81  c-5.208-46.376-31.688-85.563-68.451-105.565C309.37,103.385,307.935,100.967,307.935,98.339z"/>
<g style="opacity:0.3;">
	<path style="fill:#FFFFFF;" d="M307.935,98.339V52.258H204.066v46.081c0,2.629-1.435,5.046-3.745,6.303   c-36.762,20.002-63.242,59.189-68.451,105.565c-1.008,8.973,6.081,16.81,15.111,16.81h218.038c9.03,0,16.118-7.836,15.111-16.81   c-5.208-46.376-31.688-85.563-68.451-105.565C309.37,103.385,307.935,100.967,307.935,98.339z"/>
</g>
<g style="opacity:0.1;">
	<path d="M380.13,210.206c-5.208-46.376-31.688-85.563-68.451-105.565c-2.309-1.256-3.745-3.674-3.745-6.303V52.257H204.066v41.725   h71.358c1.46,0,2.643,1.183,2.643,2.643v1.889c0,2.529,1.388,4.848,3.612,6.054c36.85,19.99,63.396,59.245,68.592,105.708   c1,8.946-6.117,16.739-15.119,16.739h29.868C374.049,227.016,381.138,219.18,380.13,210.206z"/>
</g>
<path style="fill:#E4E7E9;" d="M314.756,52.258H197.245c-4.774,0-8.644-3.87-8.644-8.644V8.644c0-4.774,3.87-8.644,8.644-8.644  h117.511c4.774,0,8.644,3.87,8.644,8.644v34.97C323.399,48.388,319.529,52.258,314.756,52.258z"/>
<g style="opacity:0.1;">
	<path d="M314.756,0h-19.218c4.774,0,8.644,3.87,8.644,8.644v34.97c0,4.774-3.87,8.644-8.644,8.644h19.218   c4.774,0,8.644-3.87,8.644-8.644V8.644C323.399,3.87,319.529,0,314.756,0z"/>
</g>
<rect x="148.56" y="227.02" style="fill:#E4E7E9;" width="214.88" height="206.53"/>
<rect x="148.56" y="227.02" style="fill:#C584E8;" width="214.88" height="82.945"/>
<path style="fill:#3E4B58;" d="M213.894,400.168h-18.621c-6.759,0-12.238-5.479-12.238-12.238v-77.969h43.096v77.969  C226.132,394.689,220.653,400.168,213.894,400.168z"/>
<path style="fill:#FFFFFF;" d="M213.894,265.207h-18.621c-6.759,0-12.238,5.479-12.238,12.238v32.516h43.096v-32.516  C226.132,270.686,220.653,265.207,213.894,265.207z"/>
<g>
	<path style="fill:#3E4B58;" d="M320.274,286.755h-56.311c-4.143,0-7.5-3.357-7.5-7.5s3.357-7.5,7.5-7.5h56.311   c4.143,0,7.5,3.357,7.5,7.5S324.417,286.755,320.274,286.755z"/>
	<path style="fill:#3E4B58;" d="M295.333,344.822h-31.369c-4.143,0-7.5-3.357-7.5-7.5s3.357-7.5,7.5-7.5h31.369   c4.143,0,7.5,3.357,7.5,7.5S299.476,344.822,295.333,344.822z"/>
	<path style="fill:#3E4B58;" d="M295.333,377.008h-31.369c-4.143,0-7.5-3.357-7.5-7.5s3.357-7.5,7.5-7.5h31.369   c4.143,0,7.5,3.357,7.5,7.5S299.476,377.008,295.333,377.008z"/>
</g>
<path style="fill:#C584E8;" d="M316.349,86.353H195.651c-4.142,0-7.5-3.357-7.5-7.5s3.358-7.5,7.5-7.5h120.698  c4.143,0,7.5,3.357,7.5,7.5S320.491,86.353,316.349,86.353z"/>
<g style="opacity:0.3;">
	<path style="fill:#FFFFFF;" d="M316.349,86.353H195.651c-4.142,0-7.5-3.357-7.5-7.5s3.358-7.5,7.5-7.5h120.698   c4.143,0,7.5,3.357,7.5,7.5S320.491,86.353,316.349,86.353z"/>
</g>
<g style="opacity:0.1;">
	<path d="M218.92,18.629c-4.142,0-7.5,3.357-7.5,7.5v26.129h15V26.129C226.42,21.986,223.062,18.629,218.92,18.629z M256,18.629   c-4.142,0-7.5,3.357-7.5,7.5v26.129h15V26.129C263.5,21.986,260.143,18.629,256,18.629z M293.08,18.629c-4.143,0-7.5,3.357-7.5,7.5   v26.129h15V26.129C300.58,21.986,297.223,18.629,293.08,18.629z"/>
</g>
<g style="opacity:0.1;">
	<path d="M148.56,227.016v19.721h185.718v223.486c0,8.074-6.546,14.62-14.62,14.62H148.56v10.868   c0,8.996,7.293,16.289,16.289,16.289h182.303c8.996,0,16.289-7.293,16.289-16.289V227.016H148.56z"/>
</g>
<g>
</g>
<g>
</g>
<g>
</g>
<g>
</g>
<g>
</g>
<g>
</g>
<g>
</g>
<g>
</g>
<g>
</g>
<g>
</g>
<g>
</g>
<g>
</g>
<g>
</g>
<g>
</g>
<g>
</g>
</svg>
