<?xml version="1.0" encoding="iso-8859-1"?>
<!-- Generator: Adobe Illustrator 19.0.0, SVG Export Plug-In . SVG Version: 6.00 Build 0)  -->
<svg xmlns="http://www.w3.org/2000/svg" xmlns:xlink="http://www.w3.org/1999/xlink" version="1.1" id="Capa_1" x="0px" y="0px" viewBox="0 0 512.001 512.001" style="enable-background:new 0 0 512.001 512.001;" xml:space="preserve">
<g>
	<path style="fill:#E4E7E9;" d="M452.731,192.437H59.269v289.56c0,16.57,13.433,30.003,30.003,30.003h333.457   c16.57,0,30.003-13.433,30.003-30.003v-289.56H452.731z"/>
	<polygon style="fill:#E4E7E9;" points="452.731,192.437 59.269,192.437 127.009,83.047 384.991,83.047  "/>
</g>
<g style="opacity:0.1;">
	<polygon points="452.731,192.437 59.269,192.437 127.009,83.047 384.991,83.047  "/>
</g>
<path style="fill:#E4E7E9;" d="M366.15,0h-220.3c-10.406,0-18.841,8.436-18.841,18.841v64.206h257.983V18.841  C384.991,8.436,376.556,0,366.15,0z"/>
<g style="opacity:0.1;">
	<path d="M366.15,0h-45.31c10.406,0,18.841,8.436,18.841,18.841v64.206h45.31V18.841C384.991,8.436,376.556,0,366.15,0z"/>
</g>
<g>
	<path style="fill:#59A8ED;" d="M413.508,417.658L413.508,417.658c-18.702,13.899-44.301,13.899-63.003,0l0,0   c-18.701-13.898-44.301-13.898-63.003,0l0,0c-18.701,13.898-44.301,13.898-63.003,0l0,0c-18.701-13.898-44.301-13.898-63.003,0l0,0   c-18.701,13.898-44.301,13.898-63.003,0l0,0c-11.53-8.569-25.682-11.847-39.224-9.849v74.189c0,16.57,13.433,30.003,30.003,30.003   h333.457c16.57,0,30.003-13.433,30.003-30.003v-74.189C439.19,405.811,425.038,409.088,413.508,417.658z"/>
	<path style="fill:#59A8ED;" d="M384.991,83.047H127.009l-42.851,69.198c5.044-1.732,9.886-4.242,14.335-7.548l0,0   c18.702-13.898,44.302-13.898,63.003,0l0,0c18.702,13.898,44.302,13.898,63.003,0l0,0c18.702-13.898,44.302-13.898,63.003,0l0,0   c18.701,13.898,44.301,13.898,63.003,0l0,0c18.702-13.898,44.302-13.898,63.003,0l0,0c4.449,3.306,9.291,5.816,14.335,7.548   L384.991,83.047z"/>
</g>
<g style="opacity:0.4;">
	<ellipse style="fill:#F98F9D;" cx="337.76" cy="294.68" rx="36.447" ry="21.842"/>
	<ellipse style="fill:#F98F9D;" cx="174.24" cy="294.68" rx="36.447" ry="21.842"/>
</g>
<g>
	<path style="fill:#3E4B58;" d="M167.421,260.594c-4.142,0-7.5-3.357-7.5-7.5v-15.108c0-4.143,3.358-7.5,7.5-7.5s7.5,3.357,7.5,7.5   v15.108C174.921,257.236,171.563,260.594,167.421,260.594z"/>
	<path style="fill:#3E4B58;" d="M344.579,260.594c-4.142,0-7.5-3.357-7.5-7.5v-15.108c0-4.143,3.358-7.5,7.5-7.5s7.5,3.357,7.5,7.5   v15.108C352.079,257.236,348.721,260.594,344.579,260.594z"/>
	<path style="fill:#3E4B58;" d="M282.431,264.654c0,14.393-11.923,26.001-26.431,25.485c-13.819-0.492-24.571-12.269-24.572-26.096   v-17.937c0-3.84,3.113-6.953,6.953-6.953h37.096c3.84,0,6.953,3.113,6.953,6.953v18.548H282.431z"/>
</g>
<circle style="fill:#FDA354;" cx="256" cy="445.32" r="27.815"/>
<g style="opacity:0.1;">
	<path d="M270.43,421.532h-28.86c-8.025,4.879-13.385,13.706-13.385,23.784c0,4.886,1.264,9.475,3.476,13.466h48.678   c2.212-3.99,3.476-8.58,3.476-13.466C283.815,435.238,278.455,426.411,270.43,421.532z"/>
</g>
<path style="fill:#FDA354;" d="M278.287,345.725h-44.573c-7.762,0-14.59,5.133-16.747,12.589l-3.095,10.701  c-5.086,17.583-7.667,35.794-7.667,54.098v11.343c0,5.998,4.862,10.86,10.86,10.86h77.871c5.998,0,10.86-4.862,10.86-10.86v-11.343  c0-18.303-2.581-36.515-7.667-54.098l-3.095-10.701C292.876,350.858,286.049,345.725,278.287,345.725z"/>
<g style="opacity:0.1;">
	<path d="M298.129,369.015l-3.095-10.701c-2.157-7.457-8.984-12.589-16.747-12.589H262.44c7.763,0,14.59,5.133,16.747,12.589   l3.095,10.701c5.086,17.583,7.667,35.794,7.667,54.098v11.343c0,5.998-4.862,10.86-10.86,10.86h15.846   c5.998,0,10.86-4.862,10.86-10.86v-11.343C305.796,404.81,303.215,386.598,298.129,369.015z"/>
</g>
<g style="opacity:0.1;">
	<rect x="248.5" width="15" height="83.05"/>
</g>
<g style="opacity:0.1;">
	<rect x="177.14" width="15" height="83.05"/>
</g>
<g style="opacity:0.1;">
	<rect x="319.86" width="15" height="83.05"/>
</g>
<g>
	<path style="fill:#FFFFFF;" d="M404.836,475.441h-39.69c-4.142,0-7.5-3.357-7.5-7.5s3.358-7.5,7.5-7.5h39.69   c4.142,0,7.5,3.357,7.5,7.5S408.979,475.441,404.836,475.441z"/>
	<path style="fill:#FFFFFF;" d="M406.303,384.285H363.68c-3.042,0-5.507-2.466-5.507-5.507v-17.016c0-3.042,2.466-5.507,5.507-5.507   h42.623c3.042,0,5.507,2.466,5.507,5.507v17.016C411.81,381.819,409.344,384.285,406.303,384.285z"/>
</g>
<g style="opacity:0.1;">
	<path d="M384.991,83.047h-45.31l67.74,109.39v289.56c0,16.57-13.433,30.003-30.003,30.003h45.31   c16.57,0,30.003-13.433,30.003-30.003v-289.56L384.991,83.047z"/>
</g>
<g>
</g>
<g>
</g>
<g>
</g>
<g>
</g>
<g>
</g>
<g>
</g>
<g>
</g>
<g>
</g>
<g>
</g>
<g>
</g>
<g>
</g>
<g>
</g>
<g>
</g>
<g>
</g>
<g>
</g>
</svg>
