<?xml version="1.0" encoding="iso-8859-1"?>
<!-- Generator: Adobe Illustrator 19.0.0, SVG Export Plug-In . SVG Version: 6.00 Build 0)  -->
<svg xmlns="http://www.w3.org/2000/svg" xmlns:xlink="http://www.w3.org/1999/xlink" version="1.1" id="Capa_1" x="0px" y="0px" viewBox="0 0 512.001 512.001" style="enable-background:new 0 0 512.001 512.001;" xml:space="preserve">
<path style="fill:#3E4B58;" d="M295.11,493.928l-40.046-26.629c-7.656-5.091-12.257-13.675-12.257-22.869V240.048h-45.498v203.7  c0,9.194-4.601,17.778-12.257,22.869l-41.073,27.312c-8.129,5.405-4.302,18.072,5.46,18.072H289.65  C299.412,512,303.239,499.333,295.11,493.928z"/>
<g style="opacity:0.1;">
	<path d="M197.308,240.048v96.69c5.021,0.825,10.163,1.277,15.409,1.277h14.681c5.246,0,10.388-0.453,15.409-1.277v-96.69H197.308z"/>
</g>
<path style="fill:#9BD8EB;" d="M318.584,0H121.53c-8.173,0-14.668,6.864-14.217,15.025l11.022,199.479  c2.768,50.102,44.203,89.31,94.382,89.31h14.681c50.179,0,91.613-39.208,94.382-89.31l11.022-199.479  C333.252,6.864,326.757,0,318.584,0z"/>
<path style="fill:#C584E8;" d="M234.381,119.88c0,0-76.356,30.674-118.622,47.996l2.576,46.628  c2.768,50.103,44.203,89.31,94.382,89.31h14.681c50.179,0,91.613-39.208,94.382-89.31l5.606-101.452  C279.593,109.631,250.236,124.694,234.381,119.88z"/>
<g style="opacity:0.1;">
	<path d="M234.381,119.88c0,0-76.356,30.674-118.622,47.996l2.576,46.628c2.768,50.103,44.203,89.31,94.382,89.31h14.681   c50.179,0,91.613-39.208,94.382-89.31l5.606-101.452C279.593,109.631,250.236,124.694,234.381,119.88z"/>
</g>
<path style="fill:#C584E8;" d="M111.85,97.138l6.485,117.365c2.768,50.103,44.203,89.31,94.382,89.31h14.681  c50.179,0,91.613-39.208,94.382-89.31l4.429-80.153C218.175,132.059,229.442,99.846,111.85,97.138z"/>
<g style="opacity:0.1;">
	<path d="M318.584,0h-11.41l-10.829,195.985c-2.768,50.102-44.203,89.311-94.382,89.311h-14.681c-15.11,0-29.416-3.576-42.124-9.914   c17.201,17.574,41.165,28.432,67.558,28.432h14.681c50.179,0,91.613-39.208,94.382-89.31l11.022-199.479   C333.252,6.864,326.757,0,318.584,0z"/>
</g>
<path style="fill:#937254;" d="M311.093,389.956c-5.591-25.835-19.618-42.348-30.401-51.651  c-9.046-7.806-19.351-13.515-28.146-15.836c0.425-16.445-3.216-33.347-16.022-48.44c-2.68-3.158-7.413-3.547-10.571-0.866  c-3.159,2.68-3.547,7.413-0.867,10.571c11.12,13.105,13.422,28.466,12.154,43.747c-0.077,0.425-0.123,0.862-0.125,1.309  c-1.097,11.418-4.097,22.754-6.825,33.032c-3.438,12.955-6.153,23.188-4.497,31.234c0.73,3.547,3.853,5.989,7.338,5.989  c0.501,0,1.01-0.051,1.521-0.156c4.057-0.835,6.668-4.801,5.833-8.858c-0.944-4.587,1.604-14.192,4.303-24.362  c2.251-8.483,4.765-17.979,6.315-27.93c5.258,1.834,12.425,5.569,19.789,11.923c9.049,7.808,20.825,21.688,25.54,43.469  c0.76,3.514,3.868,5.915,7.323,5.915c0.525,0,1.06-0.056,1.594-0.172C309.398,397.997,311.97,394.005,311.093,389.956z"/>
<circle style="fill:#C584E8;" cx="359.37" cy="466.66" r="45.34"/>
<g style="opacity:0.1;">
	<circle cx="359.37" cy="466.66" r="45.34"/>
</g>
<g style="opacity:0.1;">
	<path d="M363.324,421.498c-1.305-0.113-2.622-0.182-3.957-0.182c-25.042,0-45.342,20.301-45.342,45.342   c0,16.289,8.594,30.565,21.49,38.56c9.753-8.317,15.946-20.686,15.946-34.508c0-6.718-1.472-13.088-4.094-18.823   C356.219,444.44,362.172,433.669,363.324,421.498z"/>
</g>
<circle style="fill:#C584E8;" cx="291.68" cy="466.66" r="45.34"/>
<g style="opacity:0.1;">
	<path d="M293.519,421.362c-0.61-0.024-1.222-0.046-1.838-0.046c-25.042,0-45.342,20.301-45.342,45.342   c0,3.107,0.314,6.139,0.909,9.07c0.61,0.024,1.221,0.047,1.838,0.047c25.042,0,45.342-20.3,45.342-45.342   C294.428,427.325,294.114,424.293,293.519,421.362z"/>
</g>
<circle style="fill:#C584E8;" cx="303.76" cy="413.13" r="45.34"/>
<g style="opacity:0.1;">
	<circle cx="303.76" cy="413.13" r="45.34"/>
</g>
<g style="opacity:0.1;">
	<path d="M265.831,388.296c-4.68,7.134-7.41,15.662-7.41,24.831c0,19.125,11.846,35.472,28.597,42.135   c4.68-7.134,7.41-15.661,7.41-24.831C294.428,411.307,282.582,394.96,265.831,388.296z"/>
</g>
<circle style="fill:#C584E8;" cx="239.46" cy="421.31" r="45.34"/>
<g>
</g>
<g>
</g>
<g>
</g>
<g>
</g>
<g>
</g>
<g>
</g>
<g>
</g>
<g>
</g>
<g>
</g>
<g>
</g>
<g>
</g>
<g>
</g>
<g>
</g>
<g>
</g>
<g>
</g>
</svg>
