<?xml version="1.0" encoding="iso-8859-1"?>
<!-- Generator: Adobe Illustrator 19.0.0, SVG Export Plug-In . SVG Version: 6.00 Build 0)  -->
<svg xmlns="http://www.w3.org/2000/svg" xmlns:xlink="http://www.w3.org/1999/xlink" version="1.1" id="Capa_1" x="0px" y="0px" viewBox="0 0 512 512" style="enable-background:new 0 0 512 512;" xml:space="preserve">
<path style="fill:#60D195;" d="M149.703,251.621L101.906,47.045C99.619,37.256,91,30.419,80.947,30.419H16.818  c-3.638,0-6.588-2.949-6.588-6.588V6.588C10.231,2.949,13.18,0,16.818,0h64.129c24.261,0,45.061,16.5,50.581,40.124L179.325,244.7  L149.703,251.621z"/>
<g style="opacity:0.1;">
	<path d="M131.528,40.124C126.008,16.5,105.208,0,80.947,0v30.419c10.053,0,18.672,6.837,20.959,16.626l2.725,11.663h31.239   L131.528,40.124z"/>
</g>
<path style="fill:#937254;" d="M230.901,479.903c120.232,0,217.699-73.652,217.699-193.884c0-55.392-20.697-105.943-54.769-144.365  c-6.278-7.079-15.313-11.099-24.775-11.099H92.746c-9.462,0-18.497,4.02-24.775,11.099c-34.072,38.422-54.769,88.973-54.769,144.365  C13.202,406.25,110.669,479.903,230.901,479.903z"/>
<g>
	<path style="fill:#3E4B58;" d="M119.981,308.427c-4.143,0-7.5-3.358-7.5-7.5v-12.546c0-4.142,3.357-7.5,7.5-7.5s7.5,3.358,7.5,7.5   v12.546C127.481,305.069,124.124,308.427,119.981,308.427z"/>
	<path style="fill:#3E4B58;" d="M271.145,308.427c-4.143,0-7.5-3.358-7.5-7.5v-12.546c0-4.142,3.357-7.5,7.5-7.5s7.5,3.358,7.5,7.5   v12.546C278.645,305.069,275.287,308.427,271.145,308.427z"/>
	<path style="fill:#3E4B58;" d="M195.563,318.062c-9.806,0-19.129-4.247-25.581-11.65c-2.722-3.123-2.396-7.86,0.727-10.582   c3.122-2.721,7.859-2.397,10.582,0.727c3.603,4.134,8.805,6.505,14.272,6.505c5.467,0,10.669-2.371,14.272-6.505   c2.722-3.124,7.46-3.448,10.582-0.726c3.123,2.722,3.447,7.459,0.727,10.582C214.691,313.815,205.367,318.062,195.563,318.062z"/>
</g>
<g style="opacity:0.4;">
	<ellipse style="fill:#F98F9D;" cx="279.82" cy="341.39" rx="37.561" ry="22.509"/>
	<ellipse style="fill:#F98F9D;" cx="111.31" cy="341.39" rx="37.561" ry="22.509"/>
</g>
<path style="fill:#F7D9A4;" d="M393.831,141.654c-6.278-7.079-15.313-11.099-24.775-11.099H92.746  c-9.462,0-18.497,4.02-24.775,11.099c-15.891,17.919-28.868,38.478-38.198,60.934h402.255  C422.699,180.132,409.721,159.573,393.831,141.654z"/>
<g style="opacity:0.1;">
	<path d="M80.947,259.121c-4.143,0-7.5-3.358-7.5-7.5c0-32.393,15.181-64.724,29.286-81.055c2.709-3.135,7.444-3.48,10.578-0.773   c3.135,2.708,3.481,7.443,0.773,10.578c-8.867,10.267-25.638,38.371-25.638,71.25C88.447,255.763,85.09,259.121,80.947,259.121z"/>
	<path d="M379.004,234.168c-0.367,0-0.737-0.027-1.111-0.082c-4.097-0.608-6.925-4.423-6.317-8.52   c1.937-13.048-8.05-48.091-17.234-60.478c-2.467-3.327-1.77-8.024,1.558-10.492c3.326-2.466,8.023-1.771,10.491,1.557   c10.55,14.228,22.687,53.667,20.023,71.614C385.86,231.492,382.658,234.168,379.004,234.168z"/>
	<path d="M280.062,234.167c-4.143,0-7.5-3.358-7.5-7.5v-46.072c0-4.142,3.357-7.5,7.5-7.5s7.5,3.358,7.5,7.5v46.072   C287.562,230.809,284.205,234.167,280.062,234.167z"/>
</g>
<g style="opacity:0.1;">
	<path d="M393.831,141.654c-6.278-7.079-15.313-11.099-24.775-11.099h-11.775c26.823,36.186,42.692,80.977,42.692,129.48   c0,120.232-97.467,193.884-217.699,193.884c-33.378,0-64.995-5.685-93.265-16.458c38.107,27.463,87.683,42.441,141.892,42.441   c120.232,0,217.699-73.652,217.699-193.884C448.599,230.627,427.903,180.076,393.831,141.654z"/>
</g>
<g>
	<path style="fill:#F98F9D;" d="M293.147,463.092v-17.008c0-16.648,11.126-31.243,27.18-35.653l62.66-17.213l-17.213,62.66   c-4.41,16.053-19.005,27.18-35.653,27.18h-17.008C302.086,483.057,293.147,474.118,293.147,463.092z"/>
	<path style="fill:#F98F9D;" d="M313.113,303.378h17.008c16.648,0,31.243,11.126,35.653,27.18l17.213,62.66l-62.66-17.213   c-16.053-4.41-27.18-19.005-27.18-35.653v-17.008C293.147,312.317,302.086,303.378,313.113,303.378z"/>
	<path style="fill:#F98F9D;" d="M472.826,323.344v17.008c0,16.648-11.126,31.243-27.18,35.653l-62.66,17.213l17.213-62.66   c4.41-16.053,19.005-27.18,35.653-27.18h17.008C463.888,303.378,472.826,312.317,472.826,323.344z"/>
	<path style="fill:#F98F9D;" d="M452.861,483.057h-17.008c-16.648,0-31.243-11.126-35.653-27.18l-17.213-62.66l62.66,17.213   c16.053,4.41,27.18,19.005,27.18,35.653v17.008C472.826,474.118,463.888,483.057,452.861,483.057z"/>
</g>
<g style="opacity:0.1;">
	<path d="M293.147,463.092v-17.008c0-16.648,11.126-31.243,27.18-35.653l62.66-17.213l-17.213,62.66   c-4.41,16.053-19.005,27.18-35.653,27.18h-17.008C302.086,483.057,293.147,474.118,293.147,463.092z"/>
	<path d="M313.113,303.378h17.008c16.648,0,31.243,11.126,35.653,27.18l17.213,62.66l-62.66-17.213   c-16.053-4.41-27.18-19.005-27.18-35.653v-17.008C293.147,312.317,302.086,303.378,313.113,303.378z"/>
	<path d="M472.826,323.344v17.008c0,16.648-11.126,31.243-27.18,35.653l-62.66,17.213l17.213-62.66   c4.41-16.053,19.005-27.18,35.653-27.18h17.008C463.888,303.378,472.826,312.317,472.826,323.344z"/>
	<path d="M452.861,483.057h-17.008c-16.648,0-31.243-11.126-35.653-27.18l-17.213-62.66l62.66,17.213   c16.053,4.41,27.18,19.005,27.18,35.653v17.008C472.826,474.118,463.888,483.057,452.861,483.057z"/>
</g>
<g>
	<path style="fill:#F98F9D;" d="M270.052,379.1l12.027-12.027c11.772-11.772,29.96-14.225,44.43-5.992l56.478,32.136l-56.478,32.136   c-14.47,8.233-32.658,5.78-44.43-5.992l-12.027-12.027C262.255,399.538,262.255,386.897,270.052,379.1z"/>
	<path style="fill:#F98F9D;" d="M397.105,280.283l12.027,12.027c11.772,11.772,14.225,29.96,5.992,44.429l-32.136,56.478   l-32.136-56.478c-8.233-14.47-5.781-32.658,5.991-44.429l12.027-12.027C376.666,272.486,389.308,272.486,397.105,280.283z"/>
	<path style="fill:#F98F9D;" d="M495.922,407.335l-12.027,12.027c-11.772,11.772-29.96,14.225-44.429,5.992l-56.478-32.136   l56.478-32.136c14.47-8.233,32.657-5.78,44.429,5.992l12.027,12.027C503.719,386.897,503.719,399.538,495.922,407.335z"/>
	<path style="fill:#F98F9D;" d="M368.869,506.152l-12.027-12.027c-11.772-11.772-14.225-29.96-5.991-44.429l32.136-56.478   l32.136,56.478c8.233,14.47,5.78,32.657-5.992,44.429l-12.027,12.027C389.308,513.949,376.666,513.949,368.869,506.152z"/>
</g>
<g>
</g>
<g>
</g>
<g>
</g>
<g>
</g>
<g>
</g>
<g>
</g>
<g>
</g>
<g>
</g>
<g>
</g>
<g>
</g>
<g>
</g>
<g>
</g>
<g>
</g>
<g>
</g>
<g>
</g>
</svg>
