<?xml version="1.0" encoding="iso-8859-1"?>
<!-- Generator: Adobe Illustrator 19.0.0, SVG Export Plug-In . SVG Version: 6.00 Build 0)  -->
<svg xmlns="http://www.w3.org/2000/svg" xmlns:xlink="http://www.w3.org/1999/xlink" version="1.1" id="Capa_1" x="0px" y="0px" viewBox="0 0 512 512" style="enable-background:new 0 0 512 512;" xml:space="preserve">
<path style="fill:#9BD8EB;" d="M298.25,102.912V63.557h-84.5v39.355c0,8.984-5.219,17.149-13.372,20.922l-17.587,8.138  c-23.2,10.735-38.05,33.97-38.05,59.533v50.516c0,6.104,4.948,11.052,11.052,11.052h200.415c6.104,0,11.052-4.948,11.052-11.052  v-50.516c0-25.563-14.85-48.798-38.05-59.533l-17.587-8.138C303.469,120.061,298.25,111.895,298.25,102.912z"/>
<path style="fill:#E85668;" d="M306.59,63.557H205.41c-4.722,0-8.549-3.828-8.549-8.549V8.55c0-4.722,3.828-8.55,8.549-8.55h101.18  c4.722,0,8.549,3.828,8.549,8.55v46.458C315.14,59.729,311.312,63.557,306.59,63.557z"/>
<g style="opacity:0.1;">
	<path d="M306.59,0h-23.351c4.722,0,8.549,3.828,8.549,8.55v46.458c0,4.722-3.828,8.55-8.549,8.55h23.351   c4.722,0,8.549-3.828,8.549-8.55V8.55C315.139,3.828,311.312,0,306.59,0z"/>
</g>
<path style="fill:#937254;" d="M209.785,499.406l-3.127,6.158c-2.005,3.948-6.057,6.436-10.485,6.436h-6.779  c-7.634,0-14.736-3.91-18.819-10.361l0,0c-11.852-18.725-18.919-40.076-20.582-62.174l-2.719-36.15  c-0.304-4.035,2.889-7.476,6.935-7.476H357.79c4.047,0,7.239,3.441,6.935,7.476l-2.719,36.15  c-1.662,22.098-8.73,43.449-20.581,62.174l0,0C337.342,508.09,330.24,512,322.605,512h-6.779c-4.428,0-8.48-2.487-10.485-6.436  l-3.127-6.158c-5.545-10.922-21.146-10.922-26.691,0l-3.127,6.158c-2.005,3.948-6.057,6.436-10.485,6.436h-11.823  c-4.428,0-8.481-2.487-10.485-6.436l-3.127-6.158C230.931,488.484,215.331,488.484,209.785,499.406z"/>
<rect x="155.789" y="253.07" style="fill:#E85668;" width="200.41" height="142.77"/>
<path style="fill:#FFFFFF;" d="M198.479,372.304h30.541c7.975,0,14.44-6.465,14.44-14.44v-66.818c0-7.975-6.465-14.44-14.44-14.44  h-30.541c-7.975,0-14.44,6.465-14.44,14.44v66.818C184.039,365.839,190.504,372.304,198.479,372.304z"/>
<g style="opacity:0.1;">
	<path d="M357.79,395.839h-32.45c4.047,0,7.239,3.441,6.935,7.476l-2.719,36.15c-1.662,22.098-8.73,43.449-20.581,62.174l0,0   c-0.988,1.561-2.155,2.969-3.461,4.213c2.054,3.774,5.998,6.148,10.313,6.148h6.779c7.634,0,14.736-3.91,18.819-10.361   c11.852-18.725,18.919-40.076,20.581-62.174l2.719-36.15C365.029,399.28,361.837,395.839,357.79,395.839z"/>
</g>
<g style="opacity:0.1;">
	<polygon points="155.793,253.072 155.793,271.653 323.758,271.653 323.758,395.839 356.207,395.839 356.207,253.072  "/>
</g>
<g style="opacity:0.1;">
	<path d="M223.549,19.219c-4.143,0-7.5,3.358-7.5,7.5v36.837h15V26.719C231.049,22.577,227.691,19.219,223.549,19.219z    M288.45,19.219c-4.143,0-7.5,3.358-7.5,7.5v36.837h15V26.719C295.95,22.577,292.592,19.219,288.45,19.219z M256,19.219   c-4.143,0-7.5,3.358-7.5,7.5v36.837h15V26.719C263.5,22.577,260.143,19.219,256,19.219z"/>
</g>
<path style="fill:#937254;" d="M329.209,131.972l-17.587-8.138c-2.945-1.363-5.5-3.306-7.572-5.646h-96.1  c-2.072,2.341-4.627,4.284-7.572,5.646l-17.587,8.138c-23.2,10.735-38.05,33.97-38.05,59.533v50.516  c0,6.104,4.948,11.052,11.052,11.052h200.415c6.104,0,11.052-4.948,11.052-11.052v-50.516  C367.259,165.941,352.409,142.707,329.209,131.972z"/>
<g style="opacity:0.1;">
	<path d="M329.209,131.972l-17.587-8.138c-8.153-3.773-13.372-11.938-13.372-20.922V63.557h-84.5v23.239h52.051v16.116   c0,8.984,5.219,17.149,13.372,20.922l17.587,8.138c23.2,10.735,38.05,33.97,38.05,59.533v50.516   c0,6.104-4.948,11.052-11.052,11.052h32.45c6.104,0,11.052-4.948,11.052-11.052v-50.516   C367.259,165.941,352.409,142.707,329.209,131.972z"/>
</g>
<g style="opacity:0.4;">
	<ellipse style="fill:#F98F9D;" cx="302.66" cy="212.06" rx="20.803" ry="12.466"/>
	<ellipse style="fill:#F98F9D;" cx="209.34" cy="212.06" rx="20.803" ry="12.466"/>
</g>
<g>
	<path style="fill:#3E4B58;" d="M205.441,195.825c-4.143,0-7.5-3.358-7.5-7.5v-8.624c0-4.142,3.357-7.5,7.5-7.5s7.5,3.358,7.5,7.5   v8.624C212.941,192.467,209.585,195.825,205.441,195.825z"/>
	<path style="fill:#3E4B58;" d="M306.558,195.825c-4.143,0-7.5-3.358-7.5-7.5v-8.624c0-4.142,3.357-7.5,7.5-7.5s7.5,3.358,7.5,7.5   v8.624C314.058,192.467,310.7,195.825,306.558,195.825z"/>
	<path style="fill:#3E4B58;" d="M271.086,194.923c0,8.215-6.805,14.84-15.086,14.546c-7.887-0.281-14.024-7.002-14.025-14.895   v-10.238c0-2.192,1.777-3.969,3.969-3.969h21.173c2.192,0,3.969,1.777,3.969,3.969V194.923z"/>
</g>
<g style="opacity:0.2;">
	<circle style="fill:#FFFFFF;" cx="331.34" cy="427.01" r="7.579"/>
	<circle style="fill:#FFFFFF;" cx="192.079" cy="449.36" r="7.579"/>
	<circle style="fill:#FFFFFF;" cx="288.45" cy="138.25" r="7.579"/>
</g>
<g>
	<path style="fill:#3E4B58;" d="M280.87,373.657c-4.143,0-7.5-3.358-7.5-7.5v-32.264c0-4.142,3.357-7.5,7.5-7.5s7.5,3.358,7.5,7.5   v32.264C288.37,370.299,285.013,373.657,280.87,373.657z"/>
	<path style="fill:#3E4B58;" d="M302.664,373.657c-4.143,0-7.5-3.358-7.5-7.5v-76.871c0-4.142,3.357-7.5,7.5-7.5s7.5,3.358,7.5,7.5   v76.871C310.164,370.299,306.807,373.657,302.664,373.657z"/>
</g>
<g>
</g>
<g>
</g>
<g>
</g>
<g>
</g>
<g>
</g>
<g>
</g>
<g>
</g>
<g>
</g>
<g>
</g>
<g>
</g>
<g>
</g>
<g>
</g>
<g>
</g>
<g>
</g>
<g>
</g>
</svg>
