<?xml version="1.0" encoding="iso-8859-1"?>
<!-- Generator: Adobe Illustrator 19.0.0, SVG Export Plug-In . SVG Version: 6.00 Build 0)  -->
<svg xmlns="http://www.w3.org/2000/svg" xmlns:xlink="http://www.w3.org/1999/xlink" version="1.1" id="Capa_1" x="0px" y="0px" viewBox="0 0 512.001 512.001" style="enable-background:new 0 0 512.001 512.001;" xml:space="preserve">
<path style="fill:#E4E7E9;" d="M297.534,121.382V53.507h-83.069v67.875c0,3.105-2.017,5.825-4.966,6.796  c-47.677,15.689-82.097,60.575-82.097,113.504v254.227c0,8.887,7.204,16.092,16.092,16.092h225.013  c8.887,0,16.092-7.204,16.092-16.092V241.682c0-52.929-34.421-97.815-82.097-113.504  C299.551,127.207,297.534,124.487,297.534,121.382z"/>
<g style="opacity:0.1;">
	<path d="M127.402,478.466v17.443c0,8.887,7.204,16.092,16.092,16.092h225.013c8.887,0,16.092-7.204,16.092-16.092v-17.443   L127.402,478.466L127.402,478.466z"/>
</g>
<path style="fill:#3E4B58;" d="M306.455,53.507h-100.91c-4.775,0-8.647-3.871-8.647-8.647V8.647c0-4.775,3.871-8.647,8.647-8.647  h100.909c4.775,0,8.647,3.871,8.647,8.647v36.214C315.101,49.636,311.23,53.507,306.455,53.507z"/>
<g style="opacity:0.1;">
	<path d="M306.455,0H281.27c4.775,0,8.647,3.871,8.647,8.647v36.214c0,4.775-3.871,8.647-8.647,8.647h25.185   c4.775,0,8.647-3.871,8.647-8.647V8.647C315.101,3.871,311.23,0,306.455,0z"/>
</g>
<g style="opacity:0.6;">
	<circle style="fill:#FFFFFF;" cx="256" cy="198.11" r="32.595"/>
</g>
<g style="opacity:0.1;">
	<path d="M302.501,128.178c-2.949-0.97-4.966-3.691-4.966-6.796V53.507h-83.193v22.378h57.064v56.678   c0,3.105,2.017,5.825,4.966,6.796c47.677,15.689,82.097,60.575,82.097,113.504v244.441c0,6.558-3.929,12.19-9.557,14.696h19.593   c8.887,0,16.092-7.204,16.092-16.092V241.682C384.598,188.753,350.177,143.866,302.501,128.178z"/>
</g>
<g>
	<path style="fill:#59A8ED;" d="M330.655,292.841h-149.31c-6.933,0-12.553-5.62-12.553-12.553v-17.272   c0-6.933,5.62-12.553,12.553-12.553h149.31c6.933,0,12.553,5.62,12.553,12.553v17.272   C343.207,287.221,337.587,292.841,330.655,292.841z"/>
	<path style="fill:#59A8ED;" d="M305.656,365.624h-99.312c-4.89,0-8.854-3.964-8.854-8.854v-13.715c0-4.89,3.964-8.854,8.854-8.854   h99.312c4.89,0,8.854,3.964,8.854,8.854v13.715C314.51,361.66,310.546,365.624,305.656,365.624z"/>
</g>
<g>
	<path style="fill:#3E4B58;" d="M313.707,321.021H198.293c-4.142,0-7.5-3.358-7.5-7.5s3.358-7.5,7.5-7.5h115.414   c4.143,0,7.5,3.358,7.5,7.5S317.85,321.021,313.707,321.021z"/>
	<path style="fill:#3E4B58;" d="M273.662,485.966h-35.325c-4.142,0-7.5-3.358-7.5-7.5s3.358-7.5,7.5-7.5h35.325   c4.143,0,7.5,3.358,7.5,7.5S277.805,485.966,273.662,485.966z"/>
</g>
<g>
</g>
<g>
</g>
<g>
</g>
<g>
</g>
<g>
</g>
<g>
</g>
<g>
</g>
<g>
</g>
<g>
</g>
<g>
</g>
<g>
</g>
<g>
</g>
<g>
</g>
<g>
</g>
<g>
</g>
</svg>
