<?xml version="1.0" encoding="iso-8859-1"?>
<!-- Generator: Adobe Illustrator 19.0.0, SVG Export Plug-In . SVG Version: 6.00 Build 0)  -->
<svg xmlns="http://www.w3.org/2000/svg" xmlns:xlink="http://www.w3.org/1999/xlink" version="1.1" id="Capa_1" x="0px" y="0px" viewBox="0 0 512 512" style="enable-background:new 0 0 512 512;" xml:space="preserve">
<path style="fill:#937254;" d="M0.192,173.773c10.23-74.658,69.32-133.749,143.979-143.979c12.212-1.673,23.11,7.784,23.11,20.11  v146.979H20.302C7.976,196.882-1.481,185.985,0.192,173.773z"/>
<path style="fill:#FFDB62;" d="M23.243,196.882c0-79.55,64.488-144.038,144.038-144.038v144.038H23.243z"/>
<g style="opacity:0.1;">
	<path d="M129.905,167.006c-1.919,0-3.839-0.732-5.303-2.197l-34.643-34.643c-2.929-2.929-2.929-7.678,0-10.606   c2.929-2.929,7.678-2.929,10.606,0l34.643,34.643c2.929,2.929,2.929,7.678,0,10.606   C133.744,166.274,131.824,167.006,129.905,167.006z"/>
	<path d="M132.831,119.483c-2.963,0-5.77-1.768-6.952-4.682L117.17,93.34c-1.558-3.838,0.292-8.212,4.129-9.77   c3.839-1.558,8.212,0.292,9.77,4.129l8.709,21.461c1.558,3.838-0.292,8.212-4.129,9.77   C134.725,119.305,133.77,119.483,132.831,119.483z"/>
	<path d="M77.284,174.364c-0.787,0-1.587-0.125-2.374-0.387l-18.891-6.301c-3.929-1.311-6.052-5.559-4.742-9.488   c1.311-3.929,5.559-6.054,9.488-4.742l18.891,6.301c3.929,1.311,6.052,5.559,4.742,9.488   C83.35,172.377,80.424,174.364,77.284,174.364z"/>
</g>
<g style="opacity:0.1;">
	<path d="M144.171,29.794c-4.562,0.625-9.064,1.439-13.503,2.421c6.135,3.456,10.362,10.015,10.362,17.689v146.978h26.251V49.904   C167.281,37.578,156.383,28.121,144.171,29.794z"/>
</g>
<path style="fill:#9BD8EB;" d="M372.635,499.233H183.248c-15.782,0-29.262-11.385-31.902-26.945l-49.625-292.441  c-2.86-16.853,10.127-32.229,27.221-32.229h297.999c17.094,0,30.081,15.376,27.221,32.229l-49.625,292.441  C401.897,487.848,388.417,499.233,372.635,499.233z"/>
<path style="fill:#E85668;" d="M329.826,341.424l62.431-267.209C395.245,61.43,406.502,52.5,419.633,52.5h83.763  c4.752,0,8.604-3.852,8.604-8.604V21.372c0-4.752-3.852-8.604-8.604-8.604h-83.763c-31.689,0-58.857,21.551-66.066,52.409  l-62.431,267.209L329.826,341.424z"/>
<g style="opacity:0.1;">
	<path d="M353.566,65.176c7.21-30.857,34.378-52.409,66.066-52.409V52.5c-13.131,0-24.388,8.93-27.376,21.716l-3.559,15.233h-40.803   L353.566,65.176z"/>
</g>
<polygon style="fill:#FFDB62;" points="108.198,218.014 145.227,436.227 410.657,436.227 447.686,218.014 "/>
<g style="opacity:0.3;">
	<path style="fill:#FFFFFF;" d="M145.227,436.227l6.119,36.061c2.64,15.56,16.12,26.945,31.902,26.945h189.387   c15.782,0,29.262-11.385,31.902-26.945l6.119-36.061H145.227z"/>
</g>
<path style="fill:#60D195;" d="M363.707,376.971L363.707,376.971c-16.972-12.613-40.205-12.613-57.177,0l0,0  c-16.972,12.613-40.205,12.613-57.177,0l0,0c-16.972-12.613-40.205-12.613-57.177,0l0,0c-16.909,12.566-40.027,12.605-56.982,0.133  l10.033,59.124h265.43l10.033-59.124C403.734,389.576,380.616,389.537,363.707,376.971z"/>
<g style="opacity:0.1;">
	<path d="M426.941,147.618H373.95c17.094,0,30.081,15.376,27.221,32.229l-49.625,292.441c-2.64,15.56-16.12,26.945-31.902,26.945   h52.99c15.782,0,29.262-11.385,31.902-26.945l49.625-292.441C457.022,162.994,444.035,147.618,426.941,147.618z"/>
</g>
<g style="opacity:0.3;">
	<polygon style="fill:#FFFFFF;" points="108.198,218.014 114.644,256 441.24,256 447.686,218.014  "/>
</g>
<g>
	<path style="fill:#3E4B58;" d="M212.559,305.926c-4.142,0-7.5-3.358-7.5-7.5v-10.853c0-4.142,3.358-7.5,7.5-7.5s7.5,3.358,7.5,7.5   v10.853C220.059,302.568,216.701,305.926,212.559,305.926z"/>
	<path style="fill:#3E4B58;" d="M343.324,305.926c-4.142,0-7.5-3.358-7.5-7.5v-10.853c0-4.142,3.358-7.5,7.5-7.5s7.5,3.358,7.5,7.5   v10.853C350.824,302.568,347.466,305.926,343.324,305.926z"/>
	<path style="fill:#3E4B58;" d="M277.941,314.26c-8.774,0-17.118-3.8-22.892-10.426c-2.721-3.123-2.396-7.86,0.727-10.582   c3.122-2.721,7.86-2.396,10.582,0.727c2.924,3.355,7.146,5.28,11.583,5.28s8.659-1.925,11.583-5.28   c2.721-3.124,7.459-3.448,10.582-0.727c3.123,2.722,3.448,7.459,0.727,10.582C295.06,310.46,286.716,314.26,277.941,314.26z"/>
</g>
<g style="opacity:0.4;">
	<ellipse style="fill:#F98F9D;" cx="350.83" cy="333.43" rx="32.493" ry="19.472"/>
	<ellipse style="fill:#F98F9D;" cx="205.06" cy="333.43" rx="32.493" ry="19.472"/>
</g>
<g>
</g>
<g>
</g>
<g>
</g>
<g>
</g>
<g>
</g>
<g>
</g>
<g>
</g>
<g>
</g>
<g>
</g>
<g>
</g>
<g>
</g>
<g>
</g>
<g>
</g>
<g>
</g>
<g>
</g>
</svg>
