<?xml version="1.0" encoding="iso-8859-1"?>
<!-- Generator: Adobe Illustrator 19.0.0, SVG Export Plug-In . SVG Version: 6.00 Build 0)  -->
<svg xmlns="http://www.w3.org/2000/svg" xmlns:xlink="http://www.w3.org/1999/xlink" version="1.1" id="Capa_1" x="0px" y="0px" viewBox="0 0 512 512" style="enable-background:new 0 0 512 512;" xml:space="preserve">
<path style="fill:#9BD8EB;" d="M329.531,102.913V59.471H182.469v43.442c0,21.331-9.805,41.477-26.592,54.638l0,0  c-16.787,13.161-26.592,33.308-26.592,54.638v266.992c0,18.125,14.693,32.818,32.818,32.818h187.791  c18.125,0,32.818-14.693,32.818-32.818V212.189c0-21.331-9.805-41.477-26.592-54.638l0,0  C339.336,144.39,329.531,124.244,329.531,102.913z"/>
<path style="fill:#FDA354;" d="M356.122,157.551L356.122,157.551c-8.244-6.463-14.799-14.613-19.341-23.759H175.218  c-4.542,9.145-11.097,17.296-19.34,23.759l0,0c-16.786,13.161-26.592,33.307-26.592,54.638v266.992  c0,18.125,14.693,32.818,32.818,32.818h187.792c18.125,0,32.818-14.693,32.818-32.818V212.189  C382.714,190.859,372.909,170.712,356.122,157.551z"/>
<g style="opacity:0.3;">
	<path style="fill:#FFFFFF;" d="M356.122,157.551L356.122,157.551c-8.244-6.463-14.799-14.613-19.341-23.759H175.218   c-4.542,9.145-11.097,17.296-19.34,23.759l0,0c-1.202,0.943-2.364,1.925-3.494,2.937h207.232   C358.487,159.476,357.325,158.494,356.122,157.551z"/>
</g>
<path style="fill:#E85668;" d="M339.21,59.472H172.79c-10.084,0-18.259-8.175-18.259-18.259V18.259  C154.531,8.175,162.706,0,172.79,0h166.42c10.084,0,18.259,8.175,18.259,18.259v22.953C357.469,51.297,349.294,59.472,339.21,59.472  z"/>
<g style="opacity:0.1;">
	<path d="M339.21,0h-38.555c10.084,0,18.259,8.175,18.259,18.259v22.953c0,10.084-8.175,18.259-18.259,18.259h38.555   c10.084,0,18.259-8.175,18.259-18.259V18.259C357.469,8.175,349.294,0,339.21,0z"/>
</g>
<path style="fill:#FFFFFF;" d="M338.364,434.248H173.636c-6.633,0-12.011-5.378-12.011-12.011V241.178  c0-6.633,5.378-12.011,12.011-12.011h164.728c6.634,0,12.011,5.377,12.011,12.011v181.059  C350.375,428.87,344.997,434.248,338.364,434.248z"/>
<path style="fill:#60D195;" d="M272.416,186.9c13.92-13.92,35.197-17.01,48.095-17.499c6.351-0.241,11.544,4.953,11.303,11.303  c-0.488,12.898-3.579,34.175-17.499,48.095c-13.92,13.92-35.197,17.01-48.095,17.499c-6.351,0.24-11.544-4.953-11.303-11.303  C255.406,222.097,258.496,200.82,272.416,186.9z"/>
<g style="opacity:0.1;">
	<path d="M280.171,228.545c-1.919,0-3.839-0.732-5.303-2.197c-2.929-2.929-2.929-7.678,0-10.606l26.391-26.39   c2.929-2.929,7.678-2.929,10.606,0c2.929,2.929,2.929,7.678,0,10.606l-26.391,26.39C284.01,227.813,282.09,228.545,280.171,228.545   z"/>
</g>
<path style="fill:#937254;" d="M255.884,235.754c-0.023,0-0.046,0-0.069,0c-4.142-0.037-7.469-3.425-7.432-7.567  c0.189-20.981-7.638-33.644-23.263-37.636c-4.013-1.025-6.436-5.11-5.41-9.123c1.025-4.013,5.112-6.434,9.123-5.41  c13.049,3.333,34.89,14.562,34.549,52.305C263.345,232.441,259.995,235.754,255.884,235.754z"/>
<path style="fill:#E85668;" d="M270.372,215.982L270.372,215.982c-9.18,3.621-19.393,3.621-28.573,0l0,0  c-19.318-7.619-41.236,1.031-50.144,19.79l0,0c-9.876,20.797-8.082,45.257,4.723,64.391l18.958,28.328  c4.499,6.723,12.055,10.758,20.144,10.758l0,0c3.2,0,6.316-1.021,8.895-2.914l0,0c6.969-5.115,16.452-5.115,23.421,0l0,0  c2.579,1.893,5.696,2.914,8.896,2.914l0,0c8.089,0,15.645-4.035,20.144-10.758l18.958-28.328  c12.805-19.134,14.599-43.593,4.723-64.391l0,0C311.608,217.013,289.69,208.363,270.372,215.982z"/>
<g style="opacity:0.1;">
	<path d="M320.516,235.772L320.516,235.772c-2.007-4.227-4.679-7.934-7.829-11.064c0.112,0.225,0.231,0.444,0.339,0.672l0,0   c9.876,20.797,8.082,45.257-4.723,64.391l-18.958,28.328c-4.499,6.723-12.055,10.758-20.144,10.758c-3.2,0-6.316-1.021-8.896-2.914   c-6.969-5.115-16.452-5.115-23.421,0c-2.58,1.893-5.696,2.914-8.896,2.914l0,0c-6.529,0-12.708-2.631-17.215-7.18l4.56,6.814   c4.499,6.723,12.055,10.758,20.144,10.758l0,0c3.2,0,6.316-1.021,8.895-2.914c6.969-5.115,16.452-5.115,23.421,0   c2.579,1.893,5.696,2.914,8.896,2.914c8.089,0,15.645-4.035,20.144-10.758l18.958-28.328   C328.599,281.029,330.392,256.569,320.516,235.772z"/>
</g>
<path style="fill:#3E4B58;" d="M294.555,383.767h-77.109c-4.142,0-7.5-3.358-7.5-7.5s3.358-7.5,7.5-7.5h77.109  c4.142,0,7.5,3.358,7.5,7.5S298.697,383.767,294.555,383.767z"/>
<path style="fill:#E4E7E9;" d="M276.553,413.882h-41.106c-4.142,0-7.5-3.358-7.5-7.5s3.358-7.5,7.5-7.5h41.106  c4.142,0,7.5,3.358,7.5,7.5S280.695,413.882,276.553,413.882z"/>
<g style="opacity:0.1;">
	<path d="M356.122,157.551L356.122,157.551c-16.787-13.161-26.592-33.308-26.592-54.638V59.471H182.832V95h108.144v7.913   c0,21.33,9.805,41.477,26.592,54.638l0,0c16.787,13.161,26.592,33.307,26.592,54.638v266.992c0,18.125-14.693,32.818-32.818,32.818   h38.555c18.125,0,32.818-14.693,32.818-32.818V212.189C382.714,190.859,372.909,170.712,356.122,157.551z"/>
</g>
<g style="opacity:0.1;">
	<path d="M129.286,474.588v4.594c0,18.125,14.693,32.818,32.818,32.818h187.792c18.125,0,32.818-14.693,32.818-32.818v-4.594   H129.286z"/>
</g>
<g>
</g>
<g>
</g>
<g>
</g>
<g>
</g>
<g>
</g>
<g>
</g>
<g>
</g>
<g>
</g>
<g>
</g>
<g>
</g>
<g>
</g>
<g>
</g>
<g>
</g>
<g>
</g>
<g>
</g>
</svg>
