<?xml version="1.0" encoding="iso-8859-1"?>
<!-- Generator: Adobe Illustrator 19.0.0, SVG Export Plug-In . SVG Version: 6.00 Build 0)  -->
<svg xmlns="http://www.w3.org/2000/svg" xmlns:xlink="http://www.w3.org/1999/xlink" version="1.1" id="Capa_1" x="0px" y="0px" viewBox="0 0 512 512" style="enable-background:new 0 0 512 512;" xml:space="preserve">
<path style="fill:#F7D9A4;" d="M389.265,260.913v-2.964H122.734v2.964l39.205,233.148C163.681,504.417,172.646,512,183.146,512  h145.707c10.5,0,19.465-7.583,21.207-17.938L389.265,260.913L389.265,260.913z"/>
<path style="fill:#9BD8EB;" d="M122.734,225.021C122.734,151.42,182.4,91.755,256,91.755s133.266,59.665,133.266,133.266H122.734z"/>
<path style="fill:#E85668;" d="M248.768,246.197l46.767-200.166c2.238-9.578,10.671-16.267,20.507-16.267h62.747  c3.56,0,6.446-2.886,6.446-6.445V6.446c0-3.56-2.886-6.446-6.446-6.446h-62.747c-23.738,0-44.09,16.144-49.49,39.259  l-46.767,200.166L248.768,246.197z"/>
<g style="opacity:0.1;">
	<path d="M266.552,39.259C271.953,16.144,292.304,0,316.042,0v29.764c-9.836,0-18.269,6.69-20.507,16.267l-2.666,11.411h-30.565   L266.552,39.259z"/>
</g>
<path style="fill:#F7D9A4;" d="M363.039,145.627c-12.446,5.544-27.17,4.15-38.447-4.231l0,0c-13.574-10.088-32.154-10.088-45.728,0  l0,0c-13.574,10.088-32.154,10.088-45.728,0l0,0c-13.574-10.088-32.154-10.088-45.728,0l0,0c-11.277,8.38-26,9.774-38.447,4.231  c-16.475,22.176-26.227,49.645-26.227,79.394h266.531C389.265,195.272,379.514,167.802,363.039,145.627z"/>
<path style="fill:#FDA354;" d="M324.592,436.35c-13.574-10.088-32.154-10.088-45.728,0s-32.154,10.088-45.728,0  s-32.154-10.088-45.728,0c-10.014,7.442-22.748,9.375-34.191,5.837l8.723,51.875C163.681,504.417,172.646,512,183.146,512h145.707  c10.501,0,19.466-7.583,21.207-17.938l8.723-51.875C347.34,445.725,334.606,443.792,324.592,436.35z"/>
<g style="opacity:0.1;">
	<path d="M122.734,260.913l4.745,28.22h221.835l-34.46,204.929C313.113,504.417,304.148,512,293.648,512h35.206   c10.501,0,19.466-7.583,21.207-17.938l39.205-233.148H122.734V260.913z"/>
</g>
<path style="fill:#9BD8EB;" d="M405.577,225.021H106.423c-3.937,0-7.128,3.191-7.128,7.128v21.637c0,3.937,3.191,7.128,7.128,7.128  h299.153c3.937,0,7.128-3.191,7.128-7.128v-21.637C412.705,228.212,409.513,225.021,405.577,225.021z"/>
<g style="opacity:0.1;">
	<path d="M405.577,225.021h-36.215c3.937,0,7.128,3.191,7.128,7.128v21.637c0,3.937-3.191,7.128-7.128,7.128h36.215   c3.937,0,7.128-3.191,7.128-7.128v-21.637C412.705,228.212,409.513,225.021,405.577,225.021z"/>
</g>
<g>
	<path style="fill:#937254;" d="M210.389,188.402c-1.919,0-3.839-0.732-5.304-2.197l-10.796-10.796   c-2.929-2.929-2.929-7.678,0-10.606c2.93-2.929,7.678-2.929,10.607,0l10.796,10.796c2.929,2.929,2.929,7.678,0,10.606   C214.228,187.67,212.308,188.402,210.389,188.402z"/>
	<path style="fill:#937254;" d="M291.714,207.932c-1.919,0-3.839-0.732-5.304-2.197c-2.929-2.929-2.929-7.678,0-10.606   l10.796-10.796c2.93-2.929,7.678-2.929,10.607,0s2.929,7.678,0,10.606l-10.796,10.796   C295.553,207.199,293.633,207.932,291.714,207.932z"/>
	<path style="fill:#937254;" d="M253.79,185.271c-3.064,0-5.94-1.891-7.049-4.937c-1.417-3.893,0.59-8.196,4.482-9.613l12.446-4.53   c3.893-1.417,8.197,0.591,9.613,4.482c1.417,3.893-0.59,8.196-4.482,9.613l-12.446,4.53   C255.508,185.125,254.642,185.271,253.79,185.271z"/>
	<path style="fill:#937254;" d="M348.922,194.851c-1.062,0-2.14-0.227-3.165-0.705l-12.005-5.598   c-3.754-1.75-5.378-6.213-3.628-9.967c1.751-3.754,6.215-5.376,9.968-3.628l12.005,5.598c3.754,1.75,5.378,6.213,3.628,9.967   C354.452,193.248,351.746,194.851,348.922,194.851z"/>
	<path style="fill:#937254;" d="M167.065,206.938c-3.064,0-5.94-1.891-7.049-4.937c-1.417-3.893,0.59-8.196,4.482-9.613l12.446-4.53   c3.893-1.417,8.196,0.591,9.613,4.482c1.417,3.893-0.59,8.196-4.482,9.613l-12.446,4.53   C168.783,206.792,167.917,206.938,167.065,206.938z"/>
</g>
<g style="opacity:0.1;">
	<path d="M256,91.755c-3.95,0-7.857,0.182-11.72,0.519c68.111,5.936,121.546,63.096,121.546,132.747h23.439   C389.265,151.42,329.6,91.755,256,91.755z"/>
</g>
<g>
	<path style="fill:#3E4B58;" d="M202.067,342.707c-4.143,0-7.5-3.358-7.5-7.5v-8.953c0-4.142,3.357-7.5,7.5-7.5s7.5,3.358,7.5,7.5   v8.953C209.567,339.349,206.21,342.707,202.067,342.707z"/>
	<path style="fill:#3E4B58;" d="M309.932,342.707c-4.143,0-7.5-3.358-7.5-7.5v-8.953c0-4.142,3.357-7.5,7.5-7.5s7.5,3.358,7.5,7.5   v8.953C317.432,339.349,314.074,342.707,309.932,342.707z"/>
	<path style="fill:#3E4B58;" d="M256,349.581c-7.617,0-14.861-3.299-19.873-9.051c-2.722-3.123-2.396-7.86,0.728-10.582   c3.122-2.721,7.86-2.396,10.581,0.727c2.163,2.482,5.284,3.905,8.564,3.905c3.28,0,6.401-1.423,8.564-3.905   c2.721-3.124,7.459-3.448,10.581-0.727c3.123,2.721,3.449,7.458,0.728,10.582C270.861,346.282,263.617,349.581,256,349.581z"/>
</g>
<g style="opacity:0.5;">
	<ellipse style="fill:#F98F9D;" cx="316.12" cy="364.08" rx="26.802" ry="16.06"/>
	<ellipse style="fill:#F98F9D;" cx="195.88" cy="364.08" rx="26.802" ry="16.06"/>
</g>
<g>
</g>
<g>
</g>
<g>
</g>
<g>
</g>
<g>
</g>
<g>
</g>
<g>
</g>
<g>
</g>
<g>
</g>
<g>
</g>
<g>
</g>
<g>
</g>
<g>
</g>
<g>
</g>
<g>
</g>
</svg>
