<?xml version="1.0" encoding="iso-8859-1"?>
<!-- Generator: Adobe Illustrator 19.0.0, SVG Export Plug-In . SVG Version: 6.00 Build 0)  -->
<svg xmlns="http://www.w3.org/2000/svg" xmlns:xlink="http://www.w3.org/1999/xlink" version="1.1" id="Capa_1" x="0px" y="0px" viewBox="0 0 512 512" style="enable-background:new 0 0 512 512;" xml:space="preserve">
<g>
	<path style="fill:#9BD8EB;" d="M104.795,370.395c-25.865,0-51.058-9.614-70.383-27.124C12.543,323.454,0,295.163,0,265.651   c0-30.928,13.556-60.106,37.194-80.052c23.637-19.947,54.681-28.406,85.167-23.202l77.271,13.183   c10.592,1.807,17.714,11.859,15.907,22.452c-1.807,10.592-11.855,17.72-22.452,15.907l-77.271-13.183   c-19.16-3.27-38.672,2.046-53.528,14.582s-23.376,30.875-23.376,50.313c0,18.821,7.681,36.146,21.628,48.784   s31.947,18.58,50.675,16.73l83.232-8.22c10.704-1.046,20.219,6.757,21.274,17.45c1.056,10.694-6.756,20.218-17.45,21.274   l-83.232,8.22C111.621,370.228,108.203,370.395,104.795,370.395z"/>
	<path style="fill:#9BD8EB;" d="M431.515,126.855L431.515,126.855c7.433-19.882,24.238-34.786,44.865-39.792l8.057-1.955   c13.264-3.219,22.603-15.095,22.603-28.744l0,0c0-7.517-6.094-13.61-13.61-13.61H180.441c-18.201,0-29.506,19.785-20.264,35.465   l27.557,46.755c6.583,11.17,5.137,25.324-3.57,34.931l-26.798,29.57c-58.064,64.069-60.684,160.924-6.17,228.039l0,0   c11.485,14.14,28.732,22.35,46.948,22.35h227.712c18.216,0,35.463-8.21,46.948-22.35l0,0c54.515-67.115,51.894-163.97-6.17-228.039   l-29.322-32.355C429.871,148.91,427.634,137.234,431.515,126.855z"/>
</g>
<g style="opacity:0.1;">
	<path d="M215.539,198.032c1.807-10.592-5.314-20.644-15.907-22.452l-50.129-8.552l-20.343,22.447   c-3.484,3.845-6.764,7.81-9.848,11.878l73.776,12.587C203.684,215.751,213.733,208.623,215.539,198.032z M215.722,340.396   c-1.056-10.693-10.57-18.496-21.274-17.45l-83.232,8.219c-8.995,0.888-17.815-0.039-26.106-2.624   c1.73,14.077,5.17,27.996,10.335,41.427c3.101,0.279,6.22,0.426,9.35,0.426c3.407,0,6.826-0.167,10.245-0.505l83.232-8.22   C208.966,360.614,216.779,351.09,215.722,340.396z"/>
</g>
<path style="fill:#E85668;" d="M466.634,189.474l-29.322-32.355c-6.173-6.811-8.75-16.006-7.238-24.868H190.781  c2.602,9.576,0.281,20.04-6.618,27.654l-26.798,29.57c-58.064,64.069-60.685,160.924-6.17,228.039l0,0  c11.485,14.14,28.732,22.35,46.948,22.35h227.712c18.216,0,35.463-8.21,46.948-22.35l0,0  C527.318,350.398,524.698,253.544,466.634,189.474z"/>
<g>
	<path style="fill:#F98F9D;" d="M251.801,195.105c-2.447-2.447-6.532-2.08-8.474,0.784c-9.121,13.448-7.724,31.899,4.191,43.815   c11.916,11.916,30.367,13.313,43.815,4.191c2.864-1.942,3.231-6.027,0.784-8.474L251.801,195.105z"/>
	<path style="fill:#F98F9D;" d="M396.519,357.724c3.252,1.184,4.645,5.041,2.871,8.012c-8.333,13.95-25.646,20.482-41.481,14.718   c-15.835-5.763-24.899-21.895-22.316-37.938c0.55-3.417,4.097-5.476,7.349-4.292L396.519,357.724z"/>
</g>
<path style="fill:#FFDB62;" d="M240.315,290.783L220.998,310.1c-3.17,3.17-8.31,3.17-11.48,0L190.2,290.783  c-3.17-3.17-3.17-8.31,0-11.48l19.317-19.317c3.17-3.17,8.31-3.17,11.48,0l19.317,19.317  C243.485,282.474,243.485,287.613,240.315,290.783z"/>
<g>
	<path style="fill:#FDA354;" d="M403.901,230.139l-25.671,9.344c-4.213,1.533-8.871-0.639-10.404-4.852l-9.344-25.671   c-1.533-4.213,0.639-8.871,4.852-10.404l25.671-9.344c4.213-1.533,8.871,0.639,10.404,4.852l9.343,25.671   C410.286,223.948,408.113,228.606,403.901,230.139z"/>
	<path style="fill:#FDA354;" d="M311.194,323.504l-24.759-11.545c-4.063-1.895-5.821-6.724-3.926-10.787l11.545-24.759   c1.895-4.063,6.724-5.821,10.787-3.926l24.759,11.545c4.063,1.895,5.821,6.724,3.926,10.787l-11.545,24.759   C320.087,323.641,315.257,325.398,311.194,323.504z"/>
</g>
<path style="fill:#FFDB62;" d="M429.663,323.504l-24.759-11.545c-4.063-1.895-5.821-6.724-3.926-10.787l11.545-24.759  c1.895-4.063,6.724-5.821,10.787-3.926l24.759,11.545c4.063,1.895,5.821,6.724,3.926,10.787l-11.545,24.759  C438.556,323.641,433.727,325.398,429.663,323.504z"/>
<g style="opacity:0.1;">
	<path d="M466.634,189.474l-29.322-32.355c-7.44-8.21-9.677-19.886-5.797-30.264l0,0c7.433-19.882,24.238-34.786,44.865-39.792   l8.058-1.955c13.264-3.219,22.603-15.095,22.603-28.744l0,0c0-7.517-6.094-13.61-13.61-13.61h-44.43   c7.517,0,13.611,6.094,13.611,13.61l0,0c0,13.649-9.339,25.525-22.603,28.744l-8.058,1.955   c-20.627,5.006-37.432,19.91-44.865,39.792l0,0c-3.88,10.378-1.644,22.054,5.797,30.264l29.322,32.355   c58.064,64.069,60.685,160.924,6.17,228.039l0,0c-11.485,14.14-28.731,22.35-46.948,22.35h44.43c18.217,0,35.463-8.21,46.948-22.35   l0,0C527.318,350.398,524.698,253.544,466.634,189.474z"/>
</g>
<circle style="fill:#FDA354;" cx="243.43" cy="403.056" r="66.19"/>
<g style="opacity:0.1;">
	<path d="M284.094,350.852c8.754,11.222,13.984,25.328,13.984,40.663c0,36.553-29.632,66.186-66.186,66.186   c-15.336,0-29.441-5.23-40.663-13.984c12.112,15.527,30.984,25.523,52.202,25.523c36.553,0,66.186-29.632,66.186-66.186   C309.616,381.835,299.62,362.964,284.094,350.852z"/>
</g>
<g style="opacity:0.1;">
	<circle cx="207.57" cy="423.696" r="6.859"/>
	<circle cx="207.57" cy="396.376" r="6.859"/>
	<circle cx="233.28" cy="431.926" r="6.859"/>
	<circle cx="280.93" cy="378.536" r="6.859"/>
</g>
<path style="fill:#60D195;" d="M121.212,311.429c18.44-18.439,46.624-22.533,63.71-23.18c8.413-0.319,15.292,6.561,14.973,14.973  c-0.647,17.086-4.741,45.27-23.18,63.71c-18.439,18.439-46.624,22.533-63.71,23.18c-8.413,0.319-15.292-6.56-14.973-14.973  C98.679,358.053,102.773,329.869,121.212,311.429z"/>
<g style="opacity:0.1;">
	<path d="M131.485,364.16c-1.919,0-3.839-0.732-5.303-2.197c-2.929-2.929-2.929-7.678,0-10.606l34.958-34.958   c2.929-2.929,7.678-2.929,10.606,0c2.929,2.929,2.929,7.678,0,10.606l-34.958,34.958   C135.324,363.427,133.404,364.16,131.485,364.16z"/>
</g>
<path style="fill:#E85668;" d="M150.584,340.742L150.584,340.742c-9.494,3.744-20.056,3.744-29.55,0l0,0  c-19.978-7.879-42.645,1.066-51.857,20.466l0,0c-10.214,21.508-8.358,46.803,4.884,66.591l19.606,29.296  c4.653,6.952,12.467,11.125,20.833,11.125l0,0c3.309,0,6.532-1.056,9.199-3.014l0,0c7.207-5.29,17.014-5.29,24.221,0l0,0  c2.668,1.958,5.89,3.014,9.2,3.014l0,0c8.365,0,16.18-4.173,20.832-11.125l19.606-29.296c13.242-19.787,15.098-45.083,4.884-66.591  l0,0C193.229,341.808,170.562,332.862,150.584,340.742z"/>
<g style="opacity:0.1;">
	<path d="M202.442,361.208L202.442,361.208c-2.076-4.371-4.839-8.205-8.096-11.442c0.116,0.233,0.239,0.459,0.351,0.695l0,0   c10.214,21.508,8.359,46.803-4.884,66.591l-19.606,29.296c-4.653,6.952-12.467,11.125-20.832,11.125   c-3.309,0-6.532-1.056-9.199-3.013c-7.207-5.29-17.014-5.29-24.221,0c-2.668,1.958-5.89,3.013-9.199,3.013l0,0   c-6.752,0-13.142-2.721-17.803-7.425l4.716,7.047c4.653,6.952,12.467,11.125,20.833,11.125l0,0c3.309,0,6.532-1.056,9.199-3.013   c7.207-5.29,17.014-5.29,24.221,0c2.668,1.958,5.89,3.013,9.2,3.013c8.366,0,16.18-4.173,20.832-11.125l19.606-29.296   C210.8,408.011,212.655,382.715,202.442,361.208z"/>
</g>
<g>
</g>
<g>
</g>
<g>
</g>
<g>
</g>
<g>
</g>
<g>
</g>
<g>
</g>
<g>
</g>
<g>
</g>
<g>
</g>
<g>
</g>
<g>
</g>
<g>
</g>
<g>
</g>
<g>
</g>
</svg>
