<?xml version="1.0" encoding="iso-8859-1"?>
<!-- Generator: Adobe Illustrator 19.0.0, SVG Export Plug-In . SVG Version: 6.00 Build 0)  -->
<svg xmlns="http://www.w3.org/2000/svg" xmlns:xlink="http://www.w3.org/1999/xlink" version="1.1" id="Capa_1" x="0px" y="0px" viewBox="0 0 511.999 511.999" style="enable-background:new 0 0 511.999 511.999;" xml:space="preserve">
<path style="fill:#9BD8EB;" d="M256.273,458.54V244.742h-51.896V458.54c0,8.842-6.064,16.53-14.663,18.59l-25.735,6.165  c-4.904,1.175-8.362,5.56-8.362,10.602v7.2c0,6.021,4.881,10.902,10.902,10.902h127.61c6.021,0,10.902-4.881,10.902-10.902v-7.2  c0-5.043-3.458-9.427-8.362-10.602l-25.735-6.165C262.336,475.07,256.273,467.382,256.273,458.54z"/>
<g style="opacity:0.1;">
	<path d="M296.67,483.296l-25.735-6.165c-8.599-2.06-14.662-9.748-14.662-18.59V244.742h-51.896v101.301   c9.914,8.579,23.162,11.408,35.283,8.505v111.69c0,8.842,6.064,16.53,14.663,18.59l25.735,6.165   c4.904,1.175,8.362,5.56,8.362,10.602v7.2c0,1.115-0.169,2.19-0.48,3.204h6.191c6.021,0,10.902-4.881,10.902-10.902v-7.2   C305.032,488.855,301.574,484.47,296.67,483.296z"/>
</g>
<path style="fill:#9BD8EB;" d="M405.099,85.306H55.551c-11.716,0-18.378,13.403-11.303,22.743l154.376,203.79  c15.914,21.008,47.489,21.008,63.403,0l154.376-203.79C423.477,98.709,416.815,85.306,405.099,85.306z"/>
<path style="fill:#3E4B58;" d="M316.011,206.228c-0.852,0-1.718-0.146-2.564-0.454c-3.893-1.417-5.899-5.721-4.483-9.613  l52.015-142.913c1.417-3.893,5.722-5.898,9.613-4.483c3.893,1.417,5.899,5.721,4.483,9.613l-52.016,142.913  C321.951,204.337,319.074,206.228,316.011,206.228z"/>
<path style="fill:#E85668;" d="M80.222,155.538l118.401,156.3c15.914,21.008,47.489,21.008,63.403,0l118.401-156.3L80.222,155.538  L80.222,155.538z"/>
<polygon style="fill:#FFDB62;" points="80.222,155.538 101.674,183.856 358.975,183.856 380.427,155.538 "/>
<g style="opacity:0.1;">
	<path d="M405.099,85.306h-22.754c7.392,3.427,10.565,13.247,5.07,20.502L239.821,300.644c-9.501,12.542-24.84,17.251-38.727,14.129   c16.524,18.006,45.802,17.038,60.932-2.935l154.375-203.79C423.477,98.709,416.815,85.306,405.099,85.306z"/>
</g>
<path style="fill:#FDA354;" d="M463.891,124.21L463.891,124.21c-76.502-7.451-149.871-34.155-213.264-77.622l0,0  c-4.318-2.961-3.199-9.618,1.849-11.005l127.899-35.13c5.192-1.426,10.718,0.585,13.779,5.015l75.395,109.123  C472.524,118.898,469.102,124.717,463.891,124.21z"/>
<g style="opacity:0.1;">
	<path d="M469.548,114.591L394.154,5.468c-3.061-4.43-8.587-6.441-13.779-5.015l-0.992,0.272c2.834,0.997,5.295,2.986,6.839,5.728   l65.081,115.571c0.152,0.27,0.278,0.543,0.385,0.818c4.059,0.506,8.126,0.97,12.204,1.367l0,0   C469.102,124.717,472.524,118.898,469.548,114.591z"/>
</g>
<g style="opacity:0.3;">
	<path style="fill:#FFFFFF;" d="M352.484,8.114l-54.325,14.922c0.416,15.659,13.232,28.228,28.992,28.228   c16.023,0,29.012-12.989,29.012-29.012C356.163,17.118,354.824,12.298,352.484,8.114z"/>
</g>
<g style="opacity:0.3;">
	<path style="fill:#FFFFFF;" d="M375.42,71.936c-14.615,0-26.701,10.809-28.712,24.867c17.871,6.773,36.164,12.419,54.773,16.899   c1.888-3.85,2.951-8.177,2.951-12.754C404.432,84.925,391.443,71.936,375.42,71.936z"/>
</g>
<g style="opacity:0.3;">
	<path style="fill:#FFFFFF;" d="M409.175,27.21c-4.468,5.103-7.182,11.782-7.182,19.097c0,16.023,12.989,29.012,29.012,29.012   c3.57,0,6.988-0.648,10.147-1.828L409.175,27.21z"/>
</g>
<g>
	<path style="fill:#3E4B58;" d="M187.497,227.679c-4.142,0-7.5-3.358-7.5-7.5v-7.109c0-4.142,3.358-7.5,7.5-7.5s7.5,3.358,7.5,7.5   v7.109C194.997,224.321,191.639,227.679,187.497,227.679z"/>
	<path style="fill:#3E4B58;" d="M273.153,227.679c-4.142,0-7.5-3.358-7.5-7.5v-7.109c0-4.142,3.358-7.5,7.5-7.5s7.5,3.358,7.5,7.5   v7.109C280.653,224.321,277.295,227.679,273.153,227.679z"/>
	<path style="fill:#3E4B58;" d="M230.325,233.138c-6.495,0-12.672-2.813-16.946-7.716c-2.721-3.123-2.396-7.86,0.727-10.582   c3.124-2.721,7.86-2.396,10.582,0.727c1.424,1.634,3.479,2.572,5.637,2.572s4.213-0.938,5.637-2.572   c2.721-3.123,7.459-3.447,10.582-0.727c3.123,2.722,3.448,7.459,0.727,10.582C242.997,230.326,236.82,233.138,230.325,233.138z"/>
</g>
<g style="opacity:0.4;">
	<ellipse style="fill:#F98F9D;" cx="278.069" cy="243.11" rx="21.284" ry="12.755"/>
	<ellipse style="fill:#F98F9D;" cx="182.579" cy="243.11" rx="21.284" ry="12.755"/>
</g>
<g>
</g>
<g>
</g>
<g>
</g>
<g>
</g>
<g>
</g>
<g>
</g>
<g>
</g>
<g>
</g>
<g>
</g>
<g>
</g>
<g>
</g>
<g>
</g>
<g>
</g>
<g>
</g>
<g>
</g>
</svg>
