<?xml version="1.0" encoding="iso-8859-1"?>
<!-- Generator: Adobe Illustrator 19.0.0, SVG Export Plug-In . SVG Version: 6.00 Build 0)  -->
<svg xmlns="http://www.w3.org/2000/svg" xmlns:xlink="http://www.w3.org/1999/xlink" version="1.1" id="Capa_1" x="0px" y="0px" viewBox="0 0 512 512" style="enable-background:new 0 0 512 512;" xml:space="preserve">
<rect id="SVGCleanerId_0" x="228.88" y="349.89" style="fill:#3E4B58;" width="54.25" height="123.97"/>
<g>
	<rect id="SVGCleanerId_0_1_" x="228.88" y="349.89" style="fill:#3E4B58;" width="54.25" height="123.97"/>
</g>
<polygon style="opacity:0.1;enable-background:new    ;" points="228.877,349.888 228.877,386.459 261.892,386.459 261.892,473.856   283.123,473.856 283.123,349.888 "/>
<path style="fill:#3E4B58;" d="M314.831,512H197.169c-7.065,0-12.792-5.727-12.792-12.792v-12.56  c0-7.065,5.727-12.792,12.792-12.792h117.662c7.065,0,12.792,5.727,12.792,12.792v12.56C327.623,506.273,321.896,512,314.831,512z"/>
<path style="opacity:0.1;enable-background:new    ;" d="M314.831,473.856h-23.919c7.065,0,12.792,5.727,12.792,12.792v12.56  c0,7.065-5.727,12.792-12.792,12.792h23.919c7.065,0,12.792-5.727,12.792-12.792v-12.56  C327.623,479.583,321.896,473.856,314.831,473.856z"/>
<path style="fill:#9BD8EB;" d="M279.785,361.396h-47.57c-36.315,0-66.426-28.126-68.899-64.357L143.97,13.616  C143.467,6.251,149.306,0,156.689,0h198.623c7.382,0,13.221,6.251,12.719,13.616l-19.346,283.423  C346.211,333.27,316.1,361.396,279.785,361.396z"/>
<path style="fill:#FFDB62;" d="M152.689,141.36l10.626,155.679c2.473,36.231,32.584,64.357,68.9,64.357h47.57  c36.316,0,66.427-28.126,68.9-64.357l10.626-155.679H152.689z"/>
<g style="opacity:0.5;">
	<circle style="fill:#FFFFFF;" cx="202.66" cy="219" r="7.48"/>
	<circle style="fill:#FFFFFF;" cx="246.83" cy="262.87" r="7.48"/>
	<circle style="fill:#FFFFFF;" cx="293.26" cy="193.4" r="7.48"/>
	<circle style="fill:#FFFFFF;" cx="311.65" cy="303.96" r="7.48"/>
	<circle style="fill:#FFFFFF;" cx="224.39" cy="313.77" r="7.48"/>
</g>
<path style="fill:#F7D9A4;" d="M338.748,123.257c-9.563,0-18.222,2.013-24.505,5.27c-3.723-0.977-7.925-1.53-12.377-1.53  c-4.369,0-8.498,0.532-12.168,1.474c-8.667-3.223-20.563-5.214-33.697-5.214c-10.468,0-20.146,1.268-28.034,3.413  c-4.808-2.127-11.029-3.413-17.831-3.413c-6.533,0-12.532,1.187-17.256,3.165c-5.585-1.996-12.342-3.165-19.626-3.165  c-8.135,0-15.611,1.46-21.532,3.9l1.991,29.172c5.568,1.977,12.295,3.134,19.541,3.134c12.081,0,22.718-3.214,28.944-8.088  c2.515,0.393,5.178,0.607,7.939,0.607c2.165,0,4.269-0.134,6.29-0.38c8.653,4.747,23.147,7.861,39.575,7.861  c13.133,0,25.03-1.991,33.697-5.214c3.671,0.942,7.8,1.474,12.168,1.474c4.452,0,8.654-0.553,12.377-1.53  c6.283,3.257,14.942,5.27,24.505,5.27c7.246,0,13.973-1.157,19.541-3.134l1.991-29.172  C354.359,124.718,346.883,123.257,338.748,123.257z"/>
<path style="opacity:0.4;fill:#FFFFFF;enable-background:new    ;" d="M338.748,123.257c-9.563,0-18.222,2.013-24.505,5.27  c-3.723-0.977-7.925-1.53-12.377-1.53c-4.369,0-8.498,0.532-12.168,1.474c-8.667-3.223-20.563-5.214-33.697-5.214  c-10.468,0-20.146,1.268-28.034,3.413c-4.808-2.127-11.029-3.413-17.831-3.413c-6.533,0-12.532,1.187-17.256,3.165  c-5.585-1.996-12.342-3.165-19.626-3.165c-8.135,0-15.611,1.46-21.532,3.9l1.991,29.172c5.568,1.977,12.295,3.134,19.541,3.134  c12.081,0,22.718-3.214,28.944-8.088c2.515,0.393,5.178,0.607,7.939,0.607c2.165,0,4.269-0.134,6.29-0.38  c8.653,4.747,23.147,7.861,39.575,7.861c13.133,0,25.03-1.991,33.697-5.214c3.671,0.942,7.8,1.474,12.168,1.474  c4.452,0,8.654-0.553,12.377-1.53c6.283,3.257,14.942,5.27,24.505,5.27c7.246,0,13.973-1.157,19.541-3.134l1.991-29.172  C354.359,124.718,346.883,123.257,338.748,123.257z"/>
<path style="opacity:0.1;enable-background:new    ;" d="M355.311,0h-40.437c7.383,0,13.222,6.251,12.719,13.616l-19.346,283.423  c-2.473,36.231-32.584,64.357-68.899,64.357h40.437c36.316,0,66.427-28.126,68.9-64.357L368.03,13.616  C368.533,6.251,362.694,0,355.311,0z"/>
<g>
</g>
<g>
</g>
<g>
</g>
<g>
</g>
<g>
</g>
<g>
</g>
<g>
</g>
<g>
</g>
<g>
</g>
<g>
</g>
<g>
</g>
<g>
</g>
<g>
</g>
<g>
</g>
<g>
</g>
</svg>
