<?xml version="1.0" encoding="iso-8859-1"?>
<!-- Generator: Adobe Illustrator 19.0.0, SVG Export Plug-In . SVG Version: 6.00 Build 0)  -->
<svg xmlns="http://www.w3.org/2000/svg" xmlns:xlink="http://www.w3.org/1999/xlink" version="1.1" id="Capa_1" x="0px" y="0px" viewBox="0 0 512 512" style="enable-background:new 0 0 512 512;" xml:space="preserve">
<g>
	<path style="fill:#F7D9A4;" d="M184.647,125.719c-37.249-41.481-0.999-94.815,59.183-83.81s66.955,7.236,96.584-9.504   c0,0,36.402,53.525-28.36,98.393S184.647,125.719,184.647,125.719z"/>
	<path style="fill:#F7D9A4;" d="M444.45,125.719c37.249-41.481,0.999-94.815-59.183-83.81s-132.986,44.021-68.224,88.889   S444.45,125.719,444.45,125.719z"/>
</g>
<g style="opacity:0.1;">
	<path d="M340.414,32.405c-24.066,13.596-33.053,18.636-67.828,14.152c-3.32,1.955-6.897,4.023-10.787,6.236   c-31.069,17.677-47.529,48.093-41.932,77.489c1.019,5.352,2.747,10.387,5.092,15.051c23.659,6.653,55.116,7.62,87.095-14.535   C376.816,85.931,340.414,32.405,340.414,32.405z"/>
</g>
<g style="opacity:0.1;">
	<path d="M392.697,40.869c-2.434,0.241-4.909,0.579-7.43,1.04c-60.182,11.005-132.986,44.021-68.224,88.889   c13.028,9.026,25.97,14.21,38.334,16.74c16.493-14.544,28.169-33.504,34.351-56.12C395.247,71.223,395.489,54.549,392.697,40.869z"/>
</g>
<path style="fill:#F7D9A4;" d="M276.612,166.075c-55.198-7.834-61.711-71.991-8.534-102.244  c43.871-24.959,53.43-34.255,62.135-54.639c3.702-8.669,14.3-11.897,22.149-6.675c16.803,11.178,38.684,35.905,25.115,85.555  C356.707,164.069,276.612,166.075,276.612,166.075z"/>
<g>
	<path style="fill:#937254;" d="M287.021,129.834c-0.492,0-0.99-0.049-1.491-0.15c-4.061-0.819-6.688-4.775-5.868-8.835   c2.569-12.732,14.028-22.474,26.16-32.788c13.808-11.739,29.459-25.044,33.482-44.103c0.855-4.053,4.838-6.643,8.887-5.789   c4.053,0.856,6.646,4.835,5.789,8.888c-5.081,24.071-23.579,39.796-38.442,52.433c-10.096,8.583-19.631,16.689-21.173,24.327   C293.647,127.375,290.518,129.834,287.021,129.834z"/>
	<path style="fill:#937254;" d="M204.192,124.841c-2.461,0-4.872-1.21-6.308-3.432c-7.369-11.411-8.317-25.838-2.537-38.594   c5.937-13.099,17.724-21.848,32.341-24.003c4.087-0.602,7.909,2.228,8.514,6.326s-2.229,7.91-6.326,8.514   c-9.471,1.396-17.076,6.993-20.865,15.354c-3.666,8.088-3.114,17.159,1.476,24.265c2.247,3.479,1.248,8.122-2.231,10.369   C206.996,124.453,205.586,124.841,204.192,124.841z"/>
	<path style="fill:#937254;" d="M416.203,128.011c-1.565,0-3.145-0.489-4.494-1.5c-3.313-2.485-3.985-7.187-1.5-10.5   c9.978-13.304,13.581-25.953,9.64-33.836c-1.585-3.171-4.054-4.597-5.3-4.597c-4.143,0-7.5-3.358-7.5-7.5s3.357-7.5,7.5-7.5   c7.455,0,14.802,5.059,18.717,12.889c3.898,7.799,7.647,24.605-11.057,49.544C420.735,126.975,418.483,128.011,416.203,128.011z"/>
</g>
<g style="opacity:0.1;">
	<path d="M171.388,102.574c2.228,7.803,6.543,15.666,13.258,23.145c0,0,24.076,19.186,57.801,23.09   c7.588,8.743,19.045,15.12,34.164,17.266c0,0,34.382-0.863,63.935-22.832c55.614,20.968,103.903-17.524,103.903-17.524   c6.716-7.479,11.031-15.342,13.258-23.145H171.388z"/>
</g>
<path style="fill:#9BD8EB;" d="M211.024,345.885h-79.737c-49.196,0-89.221-40.024-89.221-89.221s40.025-89.222,89.221-89.222h79.737  c11.177,0,20.237,9.061,20.237,20.237c0,11.177-9.06,20.237-20.237,20.237h-79.737c-26.879,0-48.747,21.867-48.747,48.747  c0,26.879,21.868,48.747,48.747,48.747h79.737c11.177,0,20.237,9.061,20.237,20.237S222.201,345.885,211.024,345.885z"/>
<g style="opacity:0.1;">
	<path d="M231.262,187.679c0-11.177-9.061-20.237-20.237-20.237h-79.737c-1.368,0-2.726,0.042-4.08,0.104l4.455,40.371h79.362   C222.201,207.916,231.262,198.856,231.262,187.679z M211.024,305.41H142.42l1.752,15.881c0.969,8.783,3.464,17.056,7.175,24.593   h59.676c11.177,0,20.237-9.06,20.237-20.237S222.201,305.41,211.024,305.41z"/>
</g>
<path style="fill:#F7D9A4;" d="M376.115,387.269H247.993c-37.782,0-69.514-28.424-73.658-65.977l-20.009-181.328  c-1.588-14.389,9.678-26.966,24.154-26.966h267.148c14.476,0,25.742,12.577,24.154,26.966l-20.009,181.328  C445.63,358.845,413.897,387.269,376.115,387.269z"/>
<rect x="283.159" y="387.269" style="fill:#9BD8EB;" width="57.782" height="81.45"/>
<g style="opacity:0.1;">
	<polygon points="283.163,387.269 283.163,406.323 321.07,406.323 321.07,468.718 340.945,468.718 340.945,387.269  "/>
</g>
<path style="fill:#9BD8EB;" d="M381.225,511.999H242.884c-11.521,0-20.861-9.34-20.861-20.861v-1.56  c0-11.521,9.34-20.861,20.861-20.861h138.341c11.521,0,20.861,9.34,20.861,20.861v1.56  C402.085,502.659,392.746,511.999,381.225,511.999z"/>
<g style="opacity:0.1;">
	<path d="M381.225,468.718h-28.891c11.521,0,20.861,9.339,20.861,20.861v1.56c0,11.521-9.34,20.861-20.861,20.861h28.891   c11.521,0,20.861-9.34,20.861-20.861v-1.56C402.085,478.057,392.746,468.718,381.225,468.718z"/>
</g>
<path style="fill:#FDA354;" d="M445.628,112.997H178.48c-14.476,0-25.742,12.577-24.154,26.966l3.81,34.528  c6.354,1.315,12.493,3.965,17.947,8.018c16.145,11.998,38.244,11.998,54.389,0s38.244-11.998,54.389,0  c16.145,11.998,38.244,11.998,54.389,0c16.145-11.998,38.244-11.998,54.389,0c16.145,11.998,38.244,11.998,54.389,0  c5.454-4.053,11.593-6.703,17.947-8.018l3.81-34.528C471.371,125.574,460.105,112.997,445.628,112.997z"/>
<path style="fill:#937254;" d="M448.026,324.507c-16.145,11.998-38.244,11.998-54.389,0c-16.144-11.998-38.244-11.998-54.389,0  s-38.244,11.998-54.389,0c-16.145-11.998-38.244-11.998-54.389,0c-16.144,11.998-38.244,11.998-54.389,0  c-0.472-0.351-0.966-0.657-1.449-0.987c5.131,36.441,36.331,63.749,73.359,63.749h128.122c37.029,0,68.229-27.308,73.359-63.749  C448.992,323.85,448.499,324.156,448.026,324.507z"/>
<g style="opacity:0.1;">
	<path d="M445.628,112.997h-35.779c14.476,0,25.742,12.577,24.154,26.966l-20.009,181.328   c-4.144,37.554-35.877,65.977-73.658,65.977h35.779c37.782,0,69.514-28.424,73.658-65.977l20.009-181.328   C471.371,125.574,460.105,112.997,445.628,112.997z"/>
</g>
<g style="opacity:0.5;">
	<ellipse style="fill:#F98F9D;" cx="374.329" cy="274.229" rx="27.76" ry="16.636"/>
	<ellipse style="fill:#F98F9D;" cx="249.779" cy="274.229" rx="27.76" ry="16.636"/>
</g>
<g>
	<path style="fill:#3E4B58;" d="M243.879,250.056L243.879,250.056c-4.143,0-7.5-3.358-7.5-7.5l0.001-11.507   c0-4.142,3.358-7.5,7.5-7.5c0,0,0,0,0.001,0c4.142,0,7.499,3.358,7.499,7.5l-0.001,11.507   C251.379,246.698,248.02,250.056,243.879,250.056z"/>
	<path style="fill:#3E4B58;" d="M378.812,250.056c-4.143,0-7.5-3.358-7.5-7.5v-11.507c0-4.142,3.357-7.5,7.5-7.5s7.5,3.358,7.5,7.5   v11.507C386.312,246.698,382.955,250.056,378.812,250.056z"/>
	<path style="fill:#3E4B58;" d="M331.477,251.36c0,10.962-9.081,19.803-20.132,19.411c-10.525-0.374-18.715-9.344-18.715-19.876   v-13.662c0-2.925,2.371-5.296,5.296-5.296h28.254c2.925,0,5.296,2.371,5.296,5.296v14.127H331.477z"/>
</g>
<g>
</g>
<g>
</g>
<g>
</g>
<g>
</g>
<g>
</g>
<g>
</g>
<g>
</g>
<g>
</g>
<g>
</g>
<g>
</g>
<g>
</g>
<g>
</g>
<g>
</g>
<g>
</g>
<g>
</g>
</svg>
