<?xml version="1.0" encoding="iso-8859-1"?>
<!-- Generator: Adobe Illustrator 19.0.0, SVG Export Plug-In . SVG Version: 6.00 Build 0)  -->
<svg xmlns="http://www.w3.org/2000/svg" xmlns:xlink="http://www.w3.org/1999/xlink" version="1.1" id="Capa_1" x="0px" y="0px" viewBox="0 0 512 512" style="enable-background:new 0 0 512 512;" xml:space="preserve">
<g>
	<path style="fill:#E4E7E9;" d="M352.732,512H159.266c-17.057,0-30.884-13.827-30.884-30.884v-316.02h255.234v316.02   C383.617,498.173,369.789,512,352.732,512z"/>
	<polygon style="fill:#E4E7E9;" points="338.693,66.565 173.307,66.565 128.382,165.096 383.617,165.096  "/>
</g>
<g style="opacity:0.1;">
	<polygon points="338.693,66.565 173.307,66.565 128.382,165.096 383.617,165.096  "/>
</g>
<path style="fill:#FDA354;" d="M320.307,0H191.69c-10.153,0-18.385,8.231-18.385,18.385v48.181h165.386V18.385  C338.693,8.231,330.461,0,320.307,0z"/>
<g style="opacity:0.1;">
	<rect x="248.499" width="15" height="66.56"/>
	<rect x="206.679" width="15" height="66.56"/>
	<rect x="290.32" width="15" height="66.56"/>
</g>
<path style="fill:#FDA354;" d="M237.729,355.114c-42.103-12.069-80.838-2.624-109.346,16.176v109.826  c0,17.057,13.827,30.884,30.884,30.884h193.467c17.057,0,30.884-13.827,30.884-30.884V324.755  C343.643,357.181,284.23,368.444,237.729,355.114z"/>
<g style="opacity:0.3;">
	<path style="fill:#FFFFFF;" d="M237.729,355.114c-42.103-12.069-80.838-2.624-109.346,16.176v35.361   c28.508-18.8,67.243-28.245,109.346-16.176c46.502,13.33,105.915,2.067,145.888-30.359v-35.361   C343.643,357.181,284.23,368.444,237.729,355.114z"/>
</g>
<g style="opacity:0.1;">
	<circle cx="263.339" cy="123.17" r="28.478"/>
</g>
<circle style="fill:#FFFFFF;" cx="255.999" cy="115.83" r="28.478"/>
<g style="opacity:0.1;">
	<circle cx="255.999" cy="115.83" r="17.522"/>
</g>
<path style="fill:#60D195;" d="M325.568,351c18.439,18.44,22.533,46.624,23.18,63.71c0.319,8.413-6.561,15.292-14.973,14.973  c-17.086-0.647-45.27-4.741-63.71-23.18c-18.439-18.439-22.533-46.624-23.18-63.71c-0.318-8.413,6.561-15.292,14.973-14.973  C278.943,328.467,307.128,332.56,325.568,351z"/>
<g style="opacity:0.1;">
	<path d="M315.295,403.73c-1.919,0-3.839-0.732-5.304-2.197l-34.958-34.958c-2.929-2.929-2.929-7.678,0-10.606   c2.93-2.929,7.678-2.929,10.607,0l34.958,34.958c2.929,2.929,2.929,7.678,0,10.606C319.135,402.998,317.214,403.73,315.295,403.73z   "/>
</g>
<g style="opacity:0.1;">
	<path d="M261.859,327.82c-8.413-0.319-15.292,6.56-14.973,14.973c0.647,17.086,4.74,45.27,23.18,63.71   c1.567,1.567,3.209,3.022,4.904,4.389c0.958-2.714,1.789-5.438,2.495-8.139c23.57-8.583,40.877-30.181,43.25-56.1   C302.459,331.904,277.506,328.412,261.859,327.82z"/>
</g>
<path style="fill:#60D195;" d="M194.827,375.018c18.44-18.439,46.624-22.533,63.71-23.18c8.413-0.319,15.292,6.56,14.973,14.973  c-0.647,17.086-4.741,45.27-23.18,63.71s-46.624,22.533-63.71,23.18c-8.413,0.319-15.292-6.56-14.973-14.973  C172.294,421.643,176.389,393.458,194.827,375.018z"/>
<g style="opacity:0.1;">
	<path d="M205.1,427.749c-1.919,0-3.839-0.732-5.303-2.197c-2.929-2.929-2.929-7.678,0-10.606l34.958-34.958   c2.929-2.929,7.678-2.929,10.606,0c2.929,2.929,2.929,7.678,0,10.606l-34.958,34.958   C208.938,427.016,207.018,427.749,205.1,427.749z"/>
</g>
<circle style="fill:#FDA354;" cx="246.869" cy="332.6" r="66.19"/>
<g style="opacity:0.1;">
	<circle cx="211.009" cy="353.24" r="6.859"/>
	<circle cx="211.009" cy="325.92" r="6.859"/>
	<circle cx="236.729" cy="361.47" r="6.859"/>
	<circle cx="284.38" cy="308.09" r="6.859"/>
</g>
<g>
	<path style="fill:#3E4B58;" d="M198.447,220.633c-4.142,0-7.5-3.358-7.5-7.5v-9.553c0-4.142,3.358-7.5,7.5-7.5s7.5,3.358,7.5,7.5   v9.553C205.947,217.275,202.589,220.633,198.447,220.633z"/>
	<path style="fill:#3E4B58;" d="M313.552,220.633c-4.143,0-7.5-3.358-7.5-7.5v-9.553c0-4.142,3.357-7.5,7.5-7.5s7.5,3.358,7.5,7.5   v9.553C321.052,217.275,317.695,220.633,313.552,220.633z"/>
	<path style="fill:#3E4B58;" d="M255.999,227.97c-7.983,0-15.574-3.457-20.828-9.485c-2.721-3.123-2.396-7.86,0.727-10.582   c3.123-2.721,7.86-2.396,10.582,0.727c2.404,2.758,5.873,4.34,9.519,4.34c3.646,0,7.116-1.582,9.52-4.34   c2.722-3.123,7.459-3.448,10.582-0.727c3.122,2.722,3.448,7.459,0.727,10.582C271.573,224.513,263.982,227.97,255.999,227.97z"/>
</g>
<g style="opacity:0.4;">
	<ellipse style="fill:#F98F9D;" cx="320.159" cy="243.94" rx="28.601" ry="17.14"/>
	<ellipse style="fill:#F98F9D;" cx="191.839" cy="243.94" rx="28.601" ry="17.14"/>
</g>
<path style="fill:#FFFFFF;" d="M343.602,476.454h-59.226c-4.143,0-7.5-3.358-7.5-7.5s3.357-7.5,7.5-7.5h59.226  c4.143,0,7.5,3.358,7.5,7.5S347.743,476.454,343.602,476.454z"/>
<g style="opacity:0.1;">
	<path d="M338.693,66.565h-38.815l44.924,98.531v316.02c0,17.057-13.827,30.884-30.884,30.884h38.815   c17.057,0,30.884-13.827,30.884-30.884v-316.02L338.693,66.565z"/>
</g>
<g style="opacity:0.1;">
	<path d="M320.308,0h-38.815c10.154,0,18.385,8.231,18.385,18.385v48.181h38.815V18.385C338.693,8.231,330.461,0,320.308,0z"/>
</g>
<g>
</g>
<g>
</g>
<g>
</g>
<g>
</g>
<g>
</g>
<g>
</g>
<g>
</g>
<g>
</g>
<g>
</g>
<g>
</g>
<g>
</g>
<g>
</g>
<g>
</g>
<g>
</g>
<g>
</g>
</svg>
