<?xml version="1.0" encoding="iso-8859-1"?>
<!-- Generator: Adobe Illustrator 19.0.0, SVG Export Plug-In . SVG Version: 6.00 Build 0)  -->
<svg xmlns="http://www.w3.org/2000/svg" xmlns:xlink="http://www.w3.org/1999/xlink" version="1.1" id="Capa_1" x="0px" y="0px" viewBox="0 0 512.001 512.001" style="enable-background:new 0 0 512.001 512.001;" xml:space="preserve">
<path style="fill:#60D195;" d="M303.227,136.422V88.697h-94.451v47.726c0,10.357-5.053,20.062-13.538,26.002l-12.514,8.76  c-22.633,15.844-36.112,41.734-36.112,69.361v249.636c0,12.05,9.769,21.819,21.819,21.819h175.14  c12.05,0,21.819-9.768,21.819-21.819V240.545c0-27.627-13.479-53.517-36.112-69.361l-12.514-8.76  C308.279,156.485,303.227,146.779,303.227,136.422z"/>
<g style="opacity:0.1;">
	<path d="M146.611,481.518v8.663c0,12.05,9.769,21.819,21.819,21.819h175.14c12.05,0,21.819-9.769,21.819-21.819v-8.663H146.611z"/>
</g>
<g style="opacity:0.1;">
	<path d="M329.277,171.184l-12.514-8.76c-8.484-5.939-13.538-15.645-13.538-26.002V88.697h-94.451v30.921h59.545v16.804   c0,10.357,5.053,20.062,13.538,26.002l12.514,8.76c22.633,15.844,36.112,41.734,36.112,69.361v249.636   c0,12.05-9.769,21.819-21.819,21.819h34.906c12.05,0,21.819-9.768,21.819-21.819V240.545   C365.389,212.918,351.91,187.028,329.277,171.184z"/>
</g>
<path style="fill:#60D195;" d="M307.505,43.499h-103.01c-6.814,0-12.339,5.524-12.339,12.339v20.52  c0,6.814,5.524,12.339,12.339,12.339h103.01c6.814,0,12.339-5.524,12.339-12.339v-20.52  C319.844,49.023,314.319,43.499,307.505,43.499z"/>
<g style="opacity:0.1;">
	<path d="M307.505,43.499h-22.471c6.815,0,12.339,5.524,12.339,12.339v20.52c0,6.814-5.524,12.339-12.339,12.339h22.471   c6.814,0,12.339-5.524,12.339-12.339v-20.52C319.844,49.023,314.319,43.499,307.505,43.499z"/>
</g>
<path style="fill:#937254;" d="M293.716,43.499h-75.433V9.686c0-5.35,4.337-9.686,9.687-9.686h56.06c5.35,0,9.686,4.337,9.686,9.686  V43.499z"/>
<g style="opacity:0.1;">
	<circle cx="241.16" cy="14.241" r="7.508"/>
	<circle cx="272.85" cy="26.552" r="7.508"/>
</g>
<path style="fill:#FFFFFF;" d="M301.731,239.82h-96.957c-8.634,0-15.634,6.999-15.634,15.634v184.304  c0,8.634,6.999,15.634,15.634,15.634h96.957c8.634,0,15.634-6.999,15.634-15.634V255.454  C317.365,246.82,310.365,239.82,301.731,239.82z"/>
<path style="fill:#3E4B58;" d="M317.365,400.485H189.14v39.273c0,8.634,6.999,15.634,15.634,15.634h96.957  c8.634,0,15.634-6.999,15.634-15.634L317.365,400.485L317.365,400.485z"/>
<rect x="189.14" y="377.11" style="fill:#FDA354;" width="128.22" height="23.377"/>
<path style="fill:#937254;" d="M268.023,276.861c-5.257-24.292-23.041-38.666-36.034-43.073  c-0.107-10.016-2.684-20.354-10.508-29.575c-2.68-3.158-7.413-3.547-10.571-0.866c-3.158,2.68-3.546,7.413-0.866,10.571  c6.258,7.376,7.528,16.23,6.764,25.119c-0.002,0.023-0.003,0.047-0.005,0.07c-0.608,6.979-2.464,13.978-4.141,20.298  c-2.215,8.344-3.964,14.935-2.807,20.555c0.73,3.547,3.854,5.989,7.338,5.989c0.501,0,1.01-0.05,1.52-0.155  c4.057-0.835,6.669-4.801,5.834-8.858c-0.445-2.161,1.25-8.549,2.613-13.683c1.099-4.143,2.343-8.842,3.295-13.86  c7.542,3.78,19.107,13.079,22.908,30.642c0.76,3.514,3.868,5.915,7.323,5.915c0.525,0,1.059-0.056,1.594-0.171  C266.328,284.901,268.899,280.909,268.023,276.861z"/>
<circle style="fill:#C584E8;" cx="294.94" cy="324.71" r="27.924"/>
<g style="opacity:0.1;">
	<circle cx="294.94" cy="324.71" r="27.924"/>
</g>
<g style="opacity:0.1;">
	<path d="M297.373,296.895c-0.804-0.069-1.615-0.112-2.437-0.112c-15.422,0-27.924,12.502-27.924,27.924   c0,10.031,5.292,18.823,13.234,23.747c6.007-5.122,9.82-12.739,9.82-21.251c0-4.137-0.907-8.06-2.521-11.592   C292.997,311.024,296.663,304.391,297.373,296.895z"/>
</g>
<circle style="fill:#C584E8;" cx="253.25" cy="324.71" r="27.924"/>
<g style="opacity:0.1;">
	<path d="M254.384,296.811c-0.376-0.015-0.752-0.029-1.132-0.029c-15.422,0-27.924,12.502-27.924,27.924   c0,1.913,0.193,3.781,0.56,5.586c0.376,0.015,0.752,0.029,1.132,0.029c15.422,0,27.924-12.502,27.924-27.924   C254.944,300.484,254.751,298.616,254.384,296.811z"/>
</g>
<circle style="fill:#C584E8;" cx="260.69" cy="291.74" r="27.924"/>
<g style="opacity:0.1;">
	<circle cx="260.69" cy="291.74" r="27.924"/>
</g>
<g style="opacity:0.1;">
	<path d="M237.333,276.448c-2.882,4.393-4.563,9.645-4.563,15.292c0,11.778,7.296,21.845,17.611,25.949   c2.882-4.393,4.563-9.645,4.563-15.292C254.944,290.619,247.648,280.552,237.333,276.448z"/>
</g>
<circle style="fill:#C584E8;" cx="221.09" cy="296.78" r="27.924"/>
<path style="fill:#FFFFFF;" d="M278.81,435.438h-51.115c-4.142,0-7.5-3.358-7.5-7.5s3.358-7.5,7.5-7.5h51.115  c4.142,0,7.5,3.358,7.5,7.5S282.952,435.438,278.81,435.438z"/>
<g style="opacity:0.1;">
	<path d="M284.03,0h-15.864c5.35,0,9.686,4.337,9.686,9.686V28.49h-59.569v15.008h75.433V9.686C293.716,4.337,289.38,0,284.03,0z"/>
</g>
<g>
</g>
<g>
</g>
<g>
</g>
<g>
</g>
<g>
</g>
<g>
</g>
<g>
</g>
<g>
</g>
<g>
</g>
<g>
</g>
<g>
</g>
<g>
</g>
<g>
</g>
<g>
</g>
<g>
</g>
</svg>
