<?xml version="1.0" encoding="iso-8859-1"?>
<!-- Generator: Adobe Illustrator 19.0.0, SVG Export Plug-In . SVG Version: 6.00 Build 0)  -->
<svg xmlns="http://www.w3.org/2000/svg" xmlns:xlink="http://www.w3.org/1999/xlink" version="1.1" id="Capa_1" x="0px" y="0px" viewBox="0 0 512 512" style="enable-background:new 0 0 512 512;" xml:space="preserve">
<path style="fill:#937254;" d="M301.757,140.352V27.803h-91.514v112.55c0,15.216-5.499,29.919-15.482,41.401l-16.05,18.459  c-18.061,20.771-28.008,47.369-28.008,74.895V478.69c0,18.397,14.913,33.31,33.31,33.31h143.974c18.397,0,33.31-14.913,33.31-33.31  V275.107c0-27.525-9.947-54.124-28.008-74.895l-16.05-18.459C307.255,170.271,301.757,155.568,301.757,140.352z"/>
<g style="opacity:0.1;">
	<path d="M150.703,477.28v1.41c0,18.397,14.913,33.31,33.31,33.31h143.974c18.397,0,33.31-14.913,33.31-33.31v-1.41H150.703z"/>
</g>
<rect x="210.24" y="82.24" style="fill:#E85668;" width="91.51" height="42.619"/>
<g>
	<path style="fill:#FFFFFF;" d="M270.584,111.048h-29.168c-4.142,0-7.5-3.358-7.5-7.5s3.358-7.5,7.5-7.5h29.168   c4.142,0,7.5,3.358,7.5,7.5S274.726,111.048,270.584,111.048z"/>
	<path style="fill:#FFFFFF;" d="M256,239.637L256,239.637c-38.315,0-69.375,31.06-69.375,69.375v70.749   c0,38.315,31.06,69.375,69.375,69.375l0,0c38.315,0,69.375-31.06,69.375-69.375v-70.749   C325.375,270.697,294.315,239.637,256,239.637z"/>
</g>
<path style="fill:#3E4B58;" d="M256,271.621L256,271.621c-24.495,0-44.352,19.857-44.352,44.352v56.829  c0,24.495,19.857,44.352,44.352,44.352l0,0c24.495,0,44.352-19.857,44.352-44.352v-56.829  C300.352,291.478,280.495,271.621,256,271.621z"/>
<rect x="186.62" y="315.64" style="fill:#E85668;" width="138.75" height="57.48"/>
<path style="fill:#FFFFFF;" d="M282.544,351.887h-53.088c-4.142,0-7.5-3.358-7.5-7.5s3.358-7.5,7.5-7.5h53.088  c4.142,0,7.5,3.358,7.5,7.5S286.686,351.887,282.544,351.887z"/>
<g style="opacity:0.1;">
	<path d="M333.29,200.213l-16.05-18.459c-9.984-11.482-15.482-26.186-15.482-41.401V27.803h-91.514v34.768h61.428v77.781   c0,15.216,5.498,29.919,15.482,41.401l16.05,18.459c18.061,20.771,28.008,47.369,28.008,74.895V478.69   c0,18.397-14.913,33.31-33.31,33.31h30.085c18.397,0,33.31-14.913,33.31-33.31V275.107   C361.297,247.582,351.35,220.984,333.29,200.213z"/>
</g>
<path style="fill:#E4E7E9;" d="M200.251,18.525v18.477c0,2.618,3.268,3.814,4.947,1.807c2.751-3.288,7.019-5.925,13.636-5.925  c5.498,0,10.439,2.388,13.841,6.183c2.501,2.79,6.983,2.79,9.484,0c3.402-3.795,8.343-6.183,13.841-6.183s10.439,2.388,13.841,6.183  c2.501,2.79,6.983,2.79,9.484,0c3.402-3.795,8.343-6.183,13.841-6.183c6.616,0,10.885,2.638,13.636,5.925  c1.68,2.008,4.947,0.811,4.947-1.807V18.525C311.749,8.294,303.455,0,293.225,0h-74.449C208.545,0,200.251,8.294,200.251,18.525z"/>
<g style="opacity:0.1;">
	<path d="M293.225,0h-18.806c10.231,0,18.524,8.294,18.524,18.525v14.37c0.075-0.001,0.147-0.012,0.223-0.012   c6.616,0,10.885,2.638,13.636,5.925c1.68,2.008,4.947,0.811,4.947-1.806V18.525C311.749,8.294,303.455,0,293.225,0z"/>
</g>
<g>
</g>
<g>
</g>
<g>
</g>
<g>
</g>
<g>
</g>
<g>
</g>
<g>
</g>
<g>
</g>
<g>
</g>
<g>
</g>
<g>
</g>
<g>
</g>
<g>
</g>
<g>
</g>
<g>
</g>
</svg>
