<?xml version="1.0" encoding="iso-8859-1"?>
<!-- Generator: Adobe Illustrator 19.0.0, SVG Export Plug-In . SVG Version: 6.00 Build 0)  -->
<svg xmlns="http://www.w3.org/2000/svg" xmlns:xlink="http://www.w3.org/1999/xlink" version="1.1" id="Capa_1" x="0px" y="0px" viewBox="0 0 512.001 512.001" style="enable-background:new 0 0 512.001 512.001;" xml:space="preserve">
<path style="fill:#FFDB62;" d="M153.114,304.455c-1.794,0-3.617-0.288-5.41-0.894l-94.386-31.892  C21.427,260.894,0,231.039,0,197.378c0-22.967,10.015-44.698,27.476-59.618c17.461-14.922,40.488-21.421,63.173-17.841l65.099,10.28  c9.219,1.456,15.512,10.109,14.056,19.328c-1.455,9.219-10.103,15.507-19.328,14.056l-65.098-10.28  c-12.911-2.037-26.011,1.663-35.948,10.152c-9.936,8.49-15.634,20.855-15.634,33.923c0,19.154,12.192,36.142,30.338,42.273  l94.386,31.892c8.843,2.988,13.588,12.577,10.6,21.419C166.741,300.009,160.162,304.455,153.114,304.455z"/>
<g style="opacity:0.1;">
	<path d="M150.476,163.582c9.224,1.451,17.873-4.837,19.328-14.056c1.456-9.218-4.837-17.871-14.056-19.328l-65.099-10.28   c-4.362-0.688-8.735-0.996-13.08-0.951v33.806c2.593-0.048,5.205,0.118,7.81,0.529L150.476,163.582z M158.521,271.542   l-80.953-27.353v3.549c0,11.619,1.526,22.881,4.375,33.603l65.76,22.22c1.793,0.606,3.616,0.894,5.41,0.894   c7.049,0,13.627-4.446,16.007-11.494C172.109,284.119,167.364,274.53,158.521,271.542z"/>
</g>
<path style="fill:#FFDB62;" d="M339.003,378.261h-106.59c-67.18,0-121.64-54.46-121.64-121.64V111.78  c0-16.256,13.178-29.435,29.435-29.435h291c16.256,0,29.435,13.178,29.435,29.435v144.841  C460.642,323.801,406.182,378.261,339.003,378.261z"/>
<path style="fill:#FDA354;" d="M431.207,82.345h-291c-16.256,0-29.435,13.178-29.435,29.435v20.574h349.869V111.78  C460.642,95.524,447.464,82.345,431.207,82.345z"/>
<path style="fill:#60D195;" d="M447.48,437.155H123.935c-17.948,0-35.068-7.547-47.175-20.796l-13.706-14.998  c-8.09-8.853-1.81-23.1,10.183-23.1h424.942c11.992,0,18.273,14.247,10.183,23.1l-13.706,14.998  C482.548,429.608,465.428,437.155,447.48,437.155z"/>
<g style="opacity:0.1;">
	<path d="M498.179,378.261h-43.191c11.992,0,18.273,14.247,10.183,23.1l-13.706,14.998c-12.107,13.249-29.228,20.796-47.175,20.796   h43.191c17.948,0,35.068-7.547,47.175-20.796l13.706-14.998C516.451,392.508,510.171,378.261,498.179,378.261z"/>
</g>
<path style="fill:#FFFFFF;" d="M215.879,214.244h-41.391c-5.129,0-9.286-4.158-9.286-9.286v-63.317c0-5.129,4.158-9.286,9.286-9.286  h41.391c5.129,0,9.286,4.158,9.286,9.286v63.317C225.165,210.086,221.008,214.244,215.879,214.244z"/>
<path style="fill:#3E4B58;" d="M195.184,139.855c-4.143,0-7.5-3.358-7.5-7.5v-50.01c0-4.142,3.357-7.5,7.5-7.5s7.5,3.358,7.5,7.5  v50.009C202.684,136.497,199.326,139.855,195.184,139.855z"/>
<path style="fill:#FDA354;" d="M285.707,246.665l-21.043,21.043c-11.622,11.622-30.465,11.622-42.087,0l0,0  c-11.622-11.622-11.622-30.465,0-42.087l0,0c11.622-11.622,30.465-11.622,42.087,0L285.707,246.665z"/>
<path style="fill:#FFFFFF;" d="M285.707,246.665l-21.043-21.043c-11.622-11.622-11.622-30.465,0-42.087l0,0  c11.622-11.622,30.465-11.622,42.087,0l0,0c11.622,11.622,11.622,30.465,0,42.087L285.707,246.665z"/>
<path style="fill:#FDA354;" d="M285.707,246.665l21.043-21.043c11.622-11.622,30.465-11.622,42.087,0l0,0  c11.622,11.622,11.622,30.465,0,42.087l0,0c-11.622,11.622-30.465,11.622-42.087,0L285.707,246.665z"/>
<path style="fill:#FFFFFF;" d="M285.707,246.665l21.043,21.043c11.622,11.622,11.622,30.465,0,42.087l0,0  c-11.622,11.622-30.465,11.622-42.087,0l0,0c-11.622-11.622-11.622-30.465,0-42.087L285.707,246.665z"/>
<g>
	<path style="fill:#FDA354;" d="M427.569,254.165h-30.312c-4.143,0-7.5-3.358-7.5-7.5s3.357-7.5,7.5-7.5h30.312   c4.143,0,7.5,3.358,7.5,7.5S431.712,254.165,427.569,254.165z"/>
	<path style="fill:#FDA354;" d="M174.157,254.165h-30.312c-4.143,0-7.5-3.358-7.5-7.5s3.357-7.5,7.5-7.5h30.312   c4.143,0,7.5,3.358,7.5,7.5S178.3,254.165,174.157,254.165z"/>
</g>
<g style="opacity:0.1;">
	<path d="M431.207,82.345h-45.344c16.257,0,29.435,13.178,29.435,29.435v144.841c0,67.18-54.46,121.639-121.639,121.639h45.344   c67.18,0,121.64-54.46,121.64-121.639V111.78C460.642,95.524,447.464,82.345,431.207,82.345z"/>
</g>
<g>
</g>
<g>
</g>
<g>
</g>
<g>
</g>
<g>
</g>
<g>
</g>
<g>
</g>
<g>
</g>
<g>
</g>
<g>
</g>
<g>
</g>
<g>
</g>
<g>
</g>
<g>
</g>
<g>
</g>
</svg>
