<?xml version="1.0" encoding="iso-8859-1"?>
<!-- Generator: Adobe Illustrator 19.0.0, SVG Export Plug-In . SVG Version: 6.00 Build 0)  -->
<svg xmlns="http://www.w3.org/2000/svg" xmlns:xlink="http://www.w3.org/1999/xlink" version="1.1" id="Capa_1" x="0px" y="0px" viewBox="0 0 512 512" style="enable-background:new 0 0 512 512;" xml:space="preserve">
<path style="fill:#9BD8EB;" d="M92.392,420.312c-22.018,0-43.455-7.869-60.359-22.46C11.675,380.281,0,354.781,0,327.889  s11.675-52.392,32.033-69.963c20.356-17.57,47.287-25.394,73.893-21.464l96.347,14.234l-5.818,39.383l-96.347-14.234  c-15.138-2.235-30.473,2.217-42.062,12.218c-11.589,10.002-18.235,24.518-18.235,39.826c0,15.308,6.646,29.824,18.234,39.825  c11.589,10.002,26.918,14.456,42.063,12.219l96.347-14.234l5.818,39.383l-96.347,14.234  C101.414,419.983,96.89,420.312,92.392,420.312z"/>
<g style="opacity:0.1;">
	<path d="M196.455,290.079l5.818-39.383l-96.347-14.234c-3.441-0.508-6.888-0.816-10.326-0.935   c-3.534,13.191-6.102,26.545-7.709,39.963c4.036-0.348,8.132-0.248,12.216,0.355L196.455,290.079z M100.107,379.933   c-1.769,0.261-3.541,0.423-5.308,0.503c3.356,13.117,7.652,26.025,12.875,38.621l94.599-13.975l-5.818-39.383L100.107,379.933z"/>
</g>
<path style="fill:#F7D9A4;" d="M356.651,46.104l-46.898,15.694c-15.969,5.344-32.838,7.475-49.635,6.27l0,0  c-65.52-4.7-115.78,57.151-97.773,120.323l0,0H341.7L356.651,46.104z"/>
<g style="opacity:0.1;">
	<path d="M317.149,59.323c-15.628,14.686-35.019,25.324-56.538,30.421l0,0c-43.966,10.415-70.823,54.888-59.572,98.647h140.66   L356.65,46.103L317.149,59.323z"/>
</g>
<path style="fill:#F7D9A4;" d="M392.908,52.807h-36.257v135.585h110.143l6.97-38.994c3.33-18.626,0.126-37.831-9.068-54.368l0,0  C450.205,68.968,422.728,52.807,392.908,52.807z"/>
<g style="opacity:0.1;">
	<path d="M428.697,61.025c-10.974-5.314-23.169-8.219-35.789-8.219h-34.227c-0.664,0.881-1.342,1.75-2.03,2.61v132.975h70.241   l1.927-5.207C443.6,143.258,443.177,99.918,428.697,61.025z"/>
</g>
<path style="fill:#F7D9A4;" d="M381.856,17.347L381.856,17.347c-8.077-10.828-24.961-8.291-29.498,4.433l0,0  c-13.265,37.199-44.469,65.148-82.899,74.252l0,0c-41.164,9.751-66.309,51.39-55.775,92.36l0,0h190.15l1.927-5.207  C426.403,127.426,417.405,65.006,381.856,17.347z"/>
<path style="fill:#937254;" d="M470.339,188.392H159.924c-9.181,0-17.443,5.575-20.878,14.089l0,0  c-35.896,88.956-24.811,189.982,29.52,269.037l0,0c12.881,18.743,34.166,29.942,56.908,29.942h179.315  c22.743,0,44.027-11.199,56.908-29.942l0,0c54.331-79.056,65.415-180.082,29.52-269.037l0,0  C487.781,193.967,479.52,188.392,470.339,188.392z"/>
<path style="fill:#F7D9A4;" d="M507.021,351.313L507.021,351.313c-20.428,22.974-56.328,22.974-76.756,0l0,0  c-20.428-22.974-56.328-22.974-76.756,0l0,0c-20.428,22.974-56.328,22.974-76.756,0l0,0c-20.428-22.974-56.328-22.974-76.756,0l0,0  c-20.428,22.974-56.328,22.974-76.756,0l0,0c-0.725-0.816-1.475-1.595-2.239-2.353c6.035,43.351,22.014,85.384,47.562,122.558l0,0  c12.881,18.743,34.165,29.942,56.908,29.942h179.315c22.743,0,44.027-11.199,56.909-29.942l0,0  c25.548-37.174,41.527-79.207,47.562-122.558C508.496,349.718,507.746,350.497,507.021,351.313z"/>
<g style="opacity:0.4;">
	<ellipse style="fill:#F98F9D;" cx="385.37" cy="291.27" rx="31.31" ry="18.764"/>
	<ellipse style="fill:#F98F9D;" cx="244.9" cy="291.27" rx="31.31" ry="18.764"/>
</g>
<g>
	<path style="fill:#3E4B58;" d="M238.237,263.053c-4.143,0-7.5-3.358-7.5-7.5v-12.979c0-4.142,3.357-7.5,7.5-7.5s7.5,3.358,7.5,7.5   v12.979C245.737,259.695,242.38,263.053,238.237,263.053z"/>
	<path style="fill:#3E4B58;" d="M390.428,263.053c-4.143,0-7.5-3.358-7.5-7.5v-12.979c0-4.142,3.357-7.5,7.5-7.5s7.5,3.358,7.5,7.5   v12.979C397.928,259.695,394.57,263.053,390.428,263.053z"/>
	<path style="fill:#3E4B58;" d="M337.039,265.483c0,12.364-10.243,22.336-22.706,21.893c-11.871-0.422-21.108-10.54-21.109-22.418   v-15.409c0-3.299,2.674-5.973,5.973-5.973h31.868c3.299,0,5.973,2.674,5.973,5.973v15.934H337.039z"/>
</g>
<g style="opacity:0.1;">
	<path d="M491.217,202.481c-3.436-8.514-11.697-14.089-20.878-14.089h-57.481c9.181,0,17.443,5.575,20.878,14.089l0,0   c35.896,88.956,24.811,189.982-29.52,269.038l0,0c-12.881,18.743-34.166,29.942-56.908,29.942h57.481   c22.743,0,44.027-11.199,56.908-29.942l0,0C516.028,392.463,527.113,291.437,491.217,202.481z"/>
</g>
<g style="opacity:0.1;">
	<path d="M159.084,171.068c0.54,5.73,1.606,11.52,3.261,17.323h304.449l3.097-17.323H159.084z"/>
</g>
<g>
</g>
<g>
</g>
<g>
</g>
<g>
</g>
<g>
</g>
<g>
</g>
<g>
</g>
<g>
</g>
<g>
</g>
<g>
</g>
<g>
</g>
<g>
</g>
<g>
</g>
<g>
</g>
<g>
</g>
</svg>
