<?xml version="1.0" encoding="iso-8859-1"?>
<!-- Generator: Adobe Illustrator 19.0.0, SVG Export Plug-In . SVG Version: 6.00 Build 0)  -->
<svg xmlns="http://www.w3.org/2000/svg" xmlns:xlink="http://www.w3.org/1999/xlink" version="1.1" id="Capa_1" x="0px" y="0px" viewBox="0 0 512.01 512.01" style="enable-background:new 0 0 512.01 512.01;" xml:space="preserve">
<path style="fill:#60D195;" d="M433.227,224.604c31.649,31.649,38.675,80.025,39.786,109.35c0.547,14.439-11.26,26.246-25.7,25.7  c-29.325-1.11-77.701-8.137-109.35-39.786s-38.675-80.025-39.786-109.351c-0.547-14.439,11.26-26.246,25.7-25.7  C353.202,185.928,401.578,192.956,433.227,224.604z"/>
<g style="opacity:0.1;">
	<path d="M415.596,309.738c-1.919,0-3.839-0.732-5.304-2.197l-60.002-60.002c-2.929-2.929-2.929-7.678,0-10.606   c2.93-2.929,7.678-2.929,10.607,0l60.002,60.002c2.929,2.929,2.929,7.678,0,10.606   C419.435,309.006,417.515,309.738,415.596,309.738z"/>
</g>
<g style="opacity:0.1;">
	<path d="M433.227,224.604c-31.649-31.649-80.025-38.675-109.351-39.786c-14.439-0.547-26.246,11.26-25.7,25.7   c1.11,29.325,8.137,77.701,39.786,109.35c12.959,12.959,28.723,21.785,44.835,27.772l9.625-59.643   c24.801-1.32,47.702-9.793,66.686-23.387C453.197,250.198,444.888,236.264,433.227,224.604z"/>
</g>
<circle style="fill:#FDA354;" cx="385.6" cy="131.148" r="126.41"/>
<g style="opacity:0.3;">
	<circle style="fill:#FFFFFF;" cx="385.6" cy="131.148" r="90.94"/>
</g>
<g>
	<path style="fill:#FFFFFF;" d="M385.595,108.68c-4.143,0-7.5-3.358-7.5-7.5V78.99c0-4.142,3.357-7.5,7.5-7.5s7.5,3.358,7.5,7.5   v22.19C393.095,105.322,389.737,108.68,385.595,108.68z"/>
	<path style="fill:#FFFFFF;" d="M414.633,109.613c-1.919,0-3.839-0.732-5.304-2.197c-2.929-2.929-2.929-7.678,0-10.606l7.846-7.846   c2.93-2.929,7.678-2.929,10.607,0s2.929,7.678,0,10.606l-7.846,7.846C418.472,108.881,416.552,109.613,414.633,109.613z"/>
</g>
<g style="opacity:0.1;">
	<path d="M386.86,131.152H259.19c0,69.812,56.594,126.405,126.405,126.405c2.566,0,5.112-0.086,7.641-0.237l16.101-99.774   C411.571,143.704,400.882,131.152,386.86,131.152z"/>
</g>
<path style="fill:#9BD8EB;" d="M303.52,507.272H119.23c-12.322,0-22.823-8.942-24.786-21.107l-53.03-328.619  c-2.234-13.842,8.455-26.395,22.477-26.395h294.967c14.022,0,24.711,12.552,22.477,26.395l-53.03,328.619  C326.342,498.33,315.842,507.272,303.52,507.272z"/>
<g style="opacity:0.3;">
	<path style="fill:#FFFFFF;" d="M87.376,442.361l7.069,43.804c1.963,12.165,12.464,21.107,24.786,21.107H303.52   c12.322,0,22.823-8.942,24.786-21.107l7.069-43.804H87.376z"/>
</g>
<path style="fill:#E85668;" d="M157.976,297.496L103.838,65.78c-2.591-11.088-12.353-18.831-23.74-18.831H7.461  C3.341,46.949,0,43.608,0,39.488V19.956c0-4.121,3.341-7.462,7.461-7.462h72.637c27.479,0,51.039,18.689,57.291,45.447  l54.138,231.717L157.976,297.496z"/>
<g style="opacity:0.1;">
	<path d="M137.39,57.941c-6.252-26.759-29.812-45.447-57.291-45.447v34.455c11.386,0,21.149,7.744,23.739,18.831l3.086,13.21h35.383   L137.39,57.941z"/>
</g>
<path style="fill:#FDA354;" d="M339.915,240.905c-23.664-23.664-62.03-23.664-85.693,0l0,0c-23.664,23.664-62.03,23.664-85.693,0  l0,0c-23.664-23.664-62.03-23.664-85.693,0l0,0c-7.373,7.373-16.173,12.446-25.511,15.225l30.052,186.23h247.998l30.052-186.23  C356.089,253.352,347.288,248.277,339.915,240.905z"/>
<g style="opacity:0.3;">
	<path style="fill:#FFFFFF;" d="M339.915,240.905c-23.664-23.663-62.03-23.663-85.693,0l0,0c-23.664,23.664-62.03,23.664-85.693,0   l0,0c-23.664-23.663-62.03-23.663-85.693,0l0,0c-7.373,7.373-16.173,12.447-25.511,15.225l4.116,25.508   c7.799-2.946,15.117-7.541,21.395-13.819l0,0c23.663-23.664,62.03-23.664,85.693,0l0,0c23.664,23.664,62.03,23.664,85.693,0l0,0   c23.664-23.664,62.03-23.664,85.693,0c6.278,6.278,13.596,10.873,21.395,13.819l4.116-25.508   C356.089,253.352,347.288,248.277,339.915,240.905z"/>
</g>
<g style="opacity:0.1;">
	<path d="M358.859,131.151h-73.078c14.022,0,24.711,12.552,22.477,26.395l-53.03,328.619c-1.963,12.164-12.464,21.107-24.786,21.107   h73.078c12.322,0,22.823-8.942,24.786-21.107l53.03-328.619C383.569,143.704,372.88,131.151,358.859,131.151z"/>
</g>
<g>
</g>
<g>
</g>
<g>
</g>
<g>
</g>
<g>
</g>
<g>
</g>
<g>
</g>
<g>
</g>
<g>
</g>
<g>
</g>
<g>
</g>
<g>
</g>
<g>
</g>
<g>
</g>
<g>
</g>
</svg>
