<?xml version="1.0" encoding="iso-8859-1"?>
<!-- Generator: Adobe Illustrator 19.0.0, SVG Export Plug-In . SVG Version: 6.00 Build 0)  -->
<svg xmlns="http://www.w3.org/2000/svg" xmlns:xlink="http://www.w3.org/1999/xlink" version="1.1" id="Capa_1" x="0px" y="0px" viewBox="0 0 512.001 512.001" style="enable-background:new 0 0 512.001 512.001;" xml:space="preserve">
<path style="fill:#60D195;" d="M192.855,35.268c-2.596,0-5.119-1.349-6.507-3.76c-2.066-3.59-0.832-8.175,2.758-10.242  c16.956-9.759,40.531-9.856,58.665-0.24c3.659,1.94,5.053,6.48,3.112,10.14s-6.48,5.052-10.14,3.112  c-13.539-7.179-31.695-7.184-44.154-0.012C195.411,34.945,194.125,35.268,192.855,35.268z"/>
<circle style="fill:#E85668;" cx="246.54" cy="28.918" r="28.918"/>
<path style="fill:#F7D9A4;" d="M300.005,89.316h-95.113l0,0c0-23.441,17.211-43.326,40.41-46.688l9.412-1.364  c12.651-1.833,23.539-9.891,28.99-21.454l0,0c2.462-5.223,9.74-5.621,12.757-0.698l0,0c11.388,18.578,13.778,41.305,6.503,61.845  L300.005,89.316z"/>
<g style="opacity:0.05;">
	<path d="M296.462,19.113c-2.891-4.717-9.681-4.536-12.412,0.08c9.471,17.813,11.094,38.853,4.314,57.997l-2.96,8.358h-80.353   c-0.099,1.245-0.159,2.5-0.159,3.768h95.113l2.96-8.358C310.24,60.418,307.85,37.691,296.462,19.113z"/>
</g>
<path style="fill:#F7D9A4;" d="M338.948,124.695H173.052l2.493-11.759c4.347-20.502,20.766-36.275,41.426-39.796l0,0  c25.833-4.402,52.225-4.402,78.058,0l0,0c20.66,3.52,37.079,19.293,41.426,39.796L338.948,124.695z"/>
<g style="opacity:0.05;">
	<path d="M336.455,112.935c-4.347-20.502-20.766-36.275-41.426-39.796l0,0c-4.352-0.742-8.72-1.347-13.098-1.839   c15.134,6.425,26.522,19.895,30.032,36.453l2.493,11.759H174.15l-1.098,5.181h165.897L336.455,112.935z"/>
</g>
<path style="fill:#F7D9A4;" d="M360.775,166.344h-209.55v-16.693c0-22.56,16.554-41.704,38.878-44.96l0,0  c43.7-6.374,88.094-6.374,131.794,0l0,0c22.324,3.256,38.878,22.399,38.878,44.96V166.344z"/>
<g style="opacity:0.05;">
	<path d="M321.897,104.691L321.897,104.691c-1.854-0.271-3.711-0.513-5.567-0.761c11.863,8.267,19.482,21.988,19.482,37.288v16.693   H151.225v8.432h209.55V149.65C360.775,127.09,344.221,107.947,321.897,104.691z"/>
</g>
<path id="SVGCleanerId_0" style="fill:#9BD8EB;" d="M156.278,136.486c-7.348,0-13.305,5.957-13.305,13.305v13.338  c0,67.611,13.515,134.539,39.75,196.852l0,0c7.25,17.22,19.584,31.816,35.353,41.838l0,0c6.348,4.034,10.192,11.033,10.192,18.554  v53.369h55.465v-53.369c0-7.521,3.845-14.52,10.192-18.554l0,0c15.769-10.022,28.103-24.618,35.353-41.838l0,0  c26.236-62.313,39.75-129.242,39.75-196.852v-13.338c0-7.348-5.957-13.305-13.305-13.305L156.278,136.486L156.278,136.486z"/>
<g>
	<path id="SVGCleanerId_0_1_" style="fill:#9BD8EB;" d="M156.278,136.486c-7.348,0-13.305,5.957-13.305,13.305v13.338   c0,67.611,13.515,134.539,39.75,196.852l0,0c7.25,17.22,19.584,31.816,35.353,41.838l0,0c6.348,4.034,10.192,11.033,10.192,18.554   v53.369h55.465v-53.369c0-7.521,3.845-14.52,10.192-18.554l0,0c15.769-10.022,28.103-24.618,35.353-41.838l0,0   c26.236-62.313,39.75-129.242,39.75-196.852v-13.338c0-7.348-5.957-13.305-13.305-13.305L156.278,136.486L156.278,136.486z"/>
</g>
<path style="fill:#9BD8EB;" d="M313.071,512H198.929c-10.564,0-19.129-8.564-19.129-19.129l0,0c0-10.564,8.564-19.129,19.129-19.129  H313.07c10.564,0,19.129,8.564,19.129,19.129l0,0C332.2,503.436,323.635,512,313.071,512z"/>
<g style="opacity:0.1;">
	<path d="M313.071,473.743h-27.732c10.564,0,19.129,8.564,19.129,19.129c0,10.564-8.564,19.129-19.129,19.129h27.732   c10.564,0,19.129-8.564,19.129-19.129C332.2,482.307,323.635,473.743,313.071,473.743z"/>
</g>
<g style="opacity:0.05;">
	<path d="M256,203.667L256,203.667c-14.238,0-25.78,11.542-25.78,25.78v74.278c0,14.238,11.542,25.78,25.78,25.78l0,0   c14.238,0,25.78-11.542,25.78-25.78v-74.278C281.78,215.21,270.238,203.667,256,203.667z"/>
</g>
<g style="opacity:0.05;">
	<path d="M353.428,203.667c-14.238,0-25.78,11.542-25.78,25.78v74.278c0,10.092,5.802,18.823,14.249,23.056   c13.152-38.59,21.609-78.612,25.179-119.203C363.117,205.103,358.441,203.667,353.428,203.667z"/>
</g>
<g style="opacity:0.05;">
	<path d="M158.572,203.667L158.572,203.667c-5.013,0-9.689,1.436-13.648,3.912c3.57,40.591,12.027,80.614,25.179,119.203   c8.447-4.233,14.249-12.965,14.249-23.056v-74.278C184.353,215.21,172.811,203.667,158.572,203.667z"/>
</g>
<g style="opacity:0.3;">
	<path style="fill:#FFFFFF;" d="M355.721,136.486H156.278c-7.348,0-13.305,5.957-13.305,13.305v13.338   c0,2.636,0.028,5.271,0.069,7.905H368.96c0.041-2.634,0.069-5.269,0.069-7.905v-13.338   C369.028,142.443,363.071,136.486,355.721,136.486z"/>
</g>
<g style="opacity:0.1;">
	<path d="M355.721,136.486h-30.08c7.348,0,13.306,5.957,13.306,13.305v13.338c0,67.611-13.515,134.539-39.75,196.852l0,0   c-7.25,17.22-19.584,31.816-35.353,41.838l0,0c-6.348,4.034-10.192,11.033-10.192,18.554v32.063h-25.385v21.306h55.464v-53.369   c0-7.521,3.845-14.52,10.192-18.554l0,0c15.769-10.022,28.103-24.618,35.353-41.838l0,0c26.235-62.313,39.75-129.242,39.75-196.852   v-13.338C369.028,142.443,363.071,136.486,355.721,136.486z"/>
</g>
<path style="fill:#FDA354;" d="M212.944,125.079c-1.919,0-3.839-0.732-5.303-2.197c-2.929-2.929-2.929-7.678,0-10.606l9.356-9.356  c2.929-2.929,7.678-2.929,10.606,0c2.929,2.929,2.929,7.678,0,10.606l-9.356,9.356C216.783,124.347,214.863,125.079,212.944,125.079  z"/>
<path style="fill:#FFFFFF;" d="M245.962,89.996c-0.433,0-0.87-0.038-1.311-0.115c-4.079-0.719-6.803-4.609-6.084-8.688l2.297-13.03  c0.719-4.08,4.606-6.801,8.688-6.084c4.079,0.719,6.803,4.609,6.084,8.688l-2.297,13.03  C252.698,87.435,249.533,89.996,245.962,89.996z"/>
<path style="fill:#F98F9D;" d="M288.346,116.108c-1.919,0-3.839-0.732-5.303-2.197l-9.356-9.356c-2.929-2.929-2.929-7.678,0-10.606  c2.929-2.929,7.678-2.929,10.606,0l9.356,9.356c2.929,2.929,2.929,7.678,0,10.606C292.185,115.376,290.265,116.108,288.346,116.108z  "/>
<g>
</g>
<g>
</g>
<g>
</g>
<g>
</g>
<g>
</g>
<g>
</g>
<g>
</g>
<g>
</g>
<g>
</g>
<g>
</g>
<g>
</g>
<g>
</g>
<g>
</g>
<g>
</g>
<g>
</g>
</svg>
