<?xml version="1.0" encoding="iso-8859-1"?>
<!-- Generator: Adobe Illustrator 19.0.0, SVG Export Plug-In . SVG Version: 6.00 Build 0)  -->
<svg xmlns="http://www.w3.org/2000/svg" xmlns:xlink="http://www.w3.org/1999/xlink" version="1.1" id="Capa_1" x="0px" y="0px" viewBox="0 0 512 512" style="enable-background:new 0 0 512 512;" xml:space="preserve">
<path style="fill:#E4E7E9;" d="M102.246,348.16c-27.169,0-52.72-10.525-72.024-29.687C10.733,299.128,0,273.351,0,245.892  c0-32.641,26.555-59.196,59.196-59.196c22.848,0,44.594,8.625,61.23,24.286c6.53,6.147,15.065,9.533,24.034,9.533v36.146  c-18.214,0-35.548-6.875-48.809-19.36c-9.905-9.324-22.851-14.459-36.454-14.459c-12.71,0-23.05,10.34-23.05,23.05  c0,17.755,6.94,34.421,19.54,46.928c12.481,12.389,29.003,19.194,46.568,19.194c0.149,0,0.296,0,0.446-0.001l38.248-0.537  l0.507,36.142l-38.43,0.54C102.765,348.159,102.506,348.16,102.246,348.16z"/>
<path style="opacity:0.1;enable-background:new    ;" d="M102.7,312.012c-0.15,0.001-0.297,0.001-0.446,0.001  c-13.477,0-26.332-4.02-37.227-11.481c-2.961,13.067-3.672,26.532-2.125,39.806c12.304,5.13,25.617,7.821,39.345,7.821  c0.26,0,0.519-0.001,0.779-0.003l38.43-0.539l-0.507-36.142L102.7,312.012z M120.426,210.981c-3.433-3.232-7.095-6.146-10.929-8.765  c-2.57,12.53-6.887,24.648-12.827,36c13.126,11.895,30.034,18.444,47.79,18.444v-36.146  C135.491,220.514,126.956,217.128,120.426,210.981z"/>
<path style="fill:#E4E7E9;" d="M348.267,396.795L348.267,396.795V314.96l37.452-5.775c31.453-4.85,57.894-26.184,69.282-55.901  l11.392-29.725c1.744-4.551,6.113-7.555,10.986-7.555h28.184c4.657,0,7.769,4.797,5.872,9.049l-6.564,14.714  c-4.953,11.102-7.418,23.152-7.222,35.307l0,0c0.326,20.301-6.128,40.131-18.34,56.352l0,0  C448.317,372.588,399.789,396.795,348.267,396.795z"/>
<path style="opacity:0.1;enable-background:new    ;" d="M422.031,294.884c-10.718,7.284-23.067,12.259-36.312,14.301l-37.452,5.775  v81.835l0,0c21.98,0,43.409-4.42,63.17-12.668C426.801,356.601,430.29,324.465,422.031,294.884z"/>
<circle style="fill:#60D195;" cx="242.18" cy="82.348" r="22.702"/>
<path style="opacity:0.1;enable-background:new    ;" d="M250.992,61.418c4.798,4.163,7.838,10.3,7.838,17.151  c0,12.538-10.164,22.703-22.703,22.703c-3.126,0-6.104-0.632-8.815-1.775c3.983,3.455,9.178,5.551,14.865,5.551  c12.538,0,22.702-10.164,22.702-22.702C264.879,72.933,259.151,64.86,250.992,61.418z"/>
<g>
	<path style="fill:#E4E7E9;" d="M343.152,174.679L343.152,174.679H141.201l0,0c0,29.407-9.459,58.034-26.979,81.653l0,0   c-30.054,40.514-31.037,95.65-2.447,137.21l23.708,34.464H348.87l23.708-34.464c28.59-41.56,27.607-96.696-2.447-137.21l0,0   C352.611,232.713,343.152,204.086,343.152,174.679z"/>
	<path style="fill:#E4E7E9;" d="M258.697,98.088h-33.04c-25.261,0-49.257,11.057-65.669,30.261l-18.787,21.982h201.951   l-18.787-21.982C307.954,109.146,283.958,98.088,258.697,98.088z"/>
</g>
<path style="fill:#FDA354;" d="M203.939,261.078h-22.794c-5.238,0-9.485-4.246-9.485-9.485V216.78c0-5.238,4.246-9.485,9.485-9.485  h22.794c5.238,0,9.485,4.247,9.485,9.485v34.813C213.424,256.831,209.178,261.078,203.939,261.078z"/>
<path style="fill:#3E4B58;" d="M192.542,214.796c-4.142,0-7.5-3.358-7.5-7.5v-32.617c0-4.142,3.358-7.5,7.5-7.5s7.5,3.358,7.5,7.5  v32.617C200.042,211.438,196.684,214.796,192.542,214.796z"/>
<path style="fill:#60D195;" d="M353.615,150.331H130.739c-6.723,0-12.174,5.45-12.174,12.174l0,0  c0,6.723,5.451,12.174,12.174,12.174h222.876c6.723,0,12.174-5.451,12.174-12.174l0,0  C365.789,155.782,360.338,150.331,353.615,150.331z"/>
<path style="opacity:0.1;enable-background:new    ;" d="M353.615,150.331h-28.753c6.723,0,12.174,5.45,12.174,12.174  c0,6.723-5.45,12.174-12.174,12.174h28.753c6.723,0,12.174-5.45,12.174-12.174C365.789,155.782,360.338,150.331,353.615,150.331z"/>
<path style="fill:#60D195;" d="M353.615,428.005H130.739c-6.723,0-12.174,5.451-12.174,12.174l0,0  c0,6.724,5.451,12.174,12.174,12.174h222.876c6.723,0,12.174-5.45,12.174-12.174l0,0  C365.789,433.456,360.338,428.005,353.615,428.005z"/>
<path style="opacity:0.1;enable-background:new    ;" d="M353.615,428.006h-28.753c6.723,0,12.174,5.45,12.174,12.174  s-5.45,12.174-12.174,12.174h28.753c6.723,0,12.174-5.45,12.174-12.174S360.338,428.006,353.615,428.006z"/>
<g>
	<path style="fill:#3E4B58;" d="M174.024,326.463c-4.142,0-7.5-3.358-7.5-7.5V307.65c0-4.142,3.358-7.5,7.5-7.5s7.5,3.358,7.5,7.5   v11.313C181.524,323.105,178.166,326.463,174.024,326.463z"/>
	<path style="fill:#3E4B58;" d="M310.33,326.463c-4.142,0-7.5-3.358-7.5-7.5V307.65c0-4.142,3.358-7.5,7.5-7.5s7.5,3.358,7.5,7.5   v11.313C317.83,323.105,314.472,326.463,310.33,326.463z"/>
	<path style="fill:#3E4B58;" d="M242.177,335.151c-9.054,0-17.664-3.921-23.622-10.758c-2.722-3.123-2.396-7.86,0.726-10.582   c3.122-2.722,7.86-2.397,10.582,0.726c3.109,3.568,7.598,5.614,12.314,5.614s9.205-2.046,12.314-5.614   c2.721-3.123,7.458-3.448,10.582-0.726c3.123,2.721,3.448,7.459,0.726,10.582C259.84,331.229,251.23,335.151,242.177,335.151z"/>
</g>
<g style="opacity:0.4;">
	<ellipse style="fill:#F98F9D;" cx="318.15" cy="355.448" rx="33.87" ry="20.297"/>
	<ellipse style="fill:#F98F9D;" cx="166.2" cy="355.448" rx="33.87" ry="20.297"/>
</g>
<g>
</g>
<g>
</g>
<g>
</g>
<g>
</g>
<g>
</g>
<g>
</g>
<g>
</g>
<g>
</g>
<g>
</g>
<g>
</g>
<g>
</g>
<g>
</g>
<g>
</g>
<g>
</g>
<g>
</g>
</svg>
