<?xml version="1.0" encoding="iso-8859-1"?>
<!-- Generator: Adobe Illustrator 19.0.0, SVG Export Plug-In . SVG Version: 6.00 Build 0)  -->
<svg xmlns="http://www.w3.org/2000/svg" xmlns:xlink="http://www.w3.org/1999/xlink" version="1.1" id="Capa_1" x="0px" y="0px" viewBox="0 0 512 512" style="enable-background:new 0 0 512 512;" xml:space="preserve">
<path style="fill:#E4E7E9;" d="M245.237,68.52h-58.366V26.33C186.872,11.788,198.66,0,213.201,0h5.706  c14.541,0,26.33,11.788,26.33,26.33V68.52z"/>
<path style="fill:#59A8ED;" d="M369.349,121.272l-14.933-21.207H157.584l-14.933,21.207c-6.864,9.748-10.549,21.379-10.549,33.302  v271.371c0,11.922,3.684,23.554,10.549,33.302l14.933,21.207h196.832l14.933-21.207c6.864-9.748,10.549-21.379,10.549-33.302  V154.574C379.898,142.652,376.214,131.02,369.349,121.272z"/>
<g>
	<ellipse style="opacity:0.3;fill:#F98F9D;enable-background:new    ;" cx="332.84" cy="242.96" rx="33.87" ry="20.297"/>
	<ellipse style="opacity:0.3;fill:#F98F9D;enable-background:new    ;" cx="180.89" cy="242.96" rx="33.87" ry="20.297"/>
</g>
<path style="fill:#FDA354;" d="M330.003,355.727c0,0.373,0.002,0.745,0.005,1.117c0.154,18.78-15.749,33.458-34.484,32.16  c-2.65-0.184-5.324-0.277-8.02-0.277c-55.437,0-101.659,39.402-112.22,91.727h179.132l14.933-21.207  c6.865-9.748,10.548-21.379,10.548-33.302V251.672C349.482,276.141,330.003,313.652,330.003,355.727z"/>
<path style="opacity:0.1;enable-background:new    ;" d="M369.349,121.272l-14.933-21.207H157.584l-14.933,21.207  c-0.534,0.758-1.041,1.531-1.536,2.311h185.634c5.872,9.251,9.012,19.995,9.012,30.991v271.371c0,11.923-3.684,23.554-10.549,33.302  l-14.933,21.207h44.137l14.933-21.207c6.865-9.748,10.548-21.379,10.548-33.302V154.574  C379.898,142.652,376.214,131.02,369.349,121.272z"/>
<path style="fill:#E4E7E9;" d="M364.125,68.52h-216.25c-8.711,0-15.773,7.062-15.773,15.773l0,0c0,8.711,7.062,15.773,15.773,15.773  h216.25c8.711,0,15.773-7.062,15.773-15.773l0,0C379.898,75.581,372.836,68.52,364.125,68.52z"/>
<path style="opacity:0.1;enable-background:new    ;" d="M364.125,68.52h-32.544c8.711,0,15.773,7.062,15.773,15.773  s-7.061,15.773-15.773,15.773h32.544c8.711,0,15.773-7.062,15.773-15.773S372.836,68.52,364.125,68.52z"/>
<path style="fill:#E4E7E9;" d="M364.125,480.454h-216.25c-8.711,0-15.773,7.062-15.773,15.773l0,0  c0,8.711,7.062,15.773,15.773,15.773h216.25c8.711,0,15.773-7.062,15.773-15.773l0,0  C379.898,487.516,372.836,480.454,364.125,480.454z"/>
<line style="fill:none;stroke:#FFFFFF;stroke-width:15;stroke-linecap:round;stroke-miterlimit:10;" x1="211.86" y1="29.832" x2="220.25" y2="29.832"/>
<rect x="186.87" y="51.58" style="opacity:0.1;enable-background:new    ;" width="58.37" height="16.94"/>
<path style="opacity:0.1;enable-background:new    ;" d="M364.125,480.454h-32.544c8.711,0,15.773,7.062,15.773,15.773  S340.293,512,331.581,512h32.544c8.711,0,15.773-7.062,15.773-15.773S372.836,480.454,364.125,480.454z"/>
<g>
	<path style="fill:#3E4B58;" d="M173.686,211.815c-4.143,0-7.5-3.358-7.5-7.5v-14.04c0-4.142,3.357-7.5,7.5-7.5s7.5,3.358,7.5,7.5   v14.04C181.186,208.457,177.828,211.815,173.686,211.815z"/>
	<path style="fill:#3E4B58;" d="M338.314,211.815c-4.143,0-7.5-3.358-7.5-7.5v-14.04c0-4.142,3.357-7.5,7.5-7.5s7.5,3.358,7.5,7.5   v14.04C345.814,208.457,342.457,211.815,338.314,211.815z"/>
	<path style="fill:#3E4B58;" d="M280.562,215.057c0,13.375-11.08,24.162-24.562,23.682c-12.842-0.457-22.834-11.401-22.834-24.25   v-16.668c0-3.569,2.893-6.462,6.462-6.462H274.1c3.569,0,6.462,2.893,6.462,6.462V215.057z"/>
</g>
<g>
	<circle style="fill:#FFFFFF;" cx="199.63" cy="324.15" r="16.933"/>
	<circle style="fill:#FFFFFF;" cx="297.5" cy="299.6" r="16.933"/>
	<circle style="fill:#FFFFFF;" cx="266.14" cy="388.63" r="22.572"/>
</g>
<g>
</g>
<g>
</g>
<g>
</g>
<g>
</g>
<g>
</g>
<g>
</g>
<g>
</g>
<g>
</g>
<g>
</g>
<g>
</g>
<g>
</g>
<g>
</g>
<g>
</g>
<g>
</g>
<g>
</g>
</svg>
