<?xml version="1.0" encoding="iso-8859-1"?>
<!-- Generator: Adobe Illustrator 19.0.0, SVG Export Plug-In . SVG Version: 6.00 Build 0)  -->
<svg xmlns="http://www.w3.org/2000/svg" xmlns:xlink="http://www.w3.org/1999/xlink" version="1.1" id="Capa_1" x="0px" y="0px" viewBox="0 0 512.001 512.001" style="enable-background:new 0 0 512.001 512.001;" xml:space="preserve">
<path style="fill:#E4E7E9;" d="M195.747,54.104v31.149c0,14.879-3.694,29.525-10.75,42.624l-39.217,72.801  c-17.265,32.051-26.303,67.887-26.303,104.292v172.024c0,19.334,15.673,35.007,35.007,35.007h203.034  c19.334,0,35.007-15.673,35.007-35.007V304.97c0-36.405-9.038-72.241-26.303-104.292l-39.217-72.801  c-7.056-13.099-10.75-27.745-10.75-42.624V54.104H195.747z"/>
<g>
	<path style="fill:#3E4B58;" d="M187.196,459.539l-17.392-17.277c-8.536-8.48-9.428-21.987-2.081-31.515   c8.065-10.46,6.104-25.48-4.374-33.52l0,0c-13.468-10.333-29.667-12.353-43.871-8.071v107.837   c0,19.334,15.673,35.007,35.007,35.007h33.996c3.889-4.259,6.856-9.447,8.501-15.311   C200.698,483.447,196.953,469.232,187.196,459.539z"/>
	<path style="fill:#3E4B58;" d="M327.005,127.876c-3.897-7.234-6.762-14.94-8.552-22.896c-6.185-0.298-12.401-0.299-18.629,0.012   l0,0c-13.629,0.681-26.169,7.65-33.945,18.862l0,0c-13.653,19.687-9.565,46.608,9.317,61.354l0,0   c13.004,10.155,30.363,12.793,45.797,6.959l0,0c8.716-3.295,18.311-3.427,27.115-0.376l16.388,5.681L327.005,127.876z"/>
</g>
<path style="fill:#59A8ED;" d="M313.575,0H198.427c-12.525,0-22.679,10.154-22.679,22.679v18.927  c0,6.902,5.595,12.498,12.497,12.498h135.511c6.902,0,12.497-5.595,12.497-12.498V22.679C336.254,10.154,326.1,0,313.575,0z"/>
<path style="opacity:0.1;enable-background:new    ;" d="M313.575,0H283.97c12.525,0,22.679,10.154,22.679,22.679v18.927  c0,6.902-5.595,12.497-12.498,12.497h29.605c6.902,0,12.498-5.595,12.498-12.497V22.679C336.254,10.154,326.1,0,313.575,0z"/>
<path style="opacity:0.1;enable-background:new    ;" d="M366.222,200.678l-39.217-72.802c-7.056-13.099-10.75-27.745-10.75-42.623  V54.104H195.747v27.734h83.551c1.886,0,3.415,1.529,3.415,3.415l0,0c0,14.879,3.694,29.524,10.75,42.623l39.217,72.802  c17.265,32.051,26.303,67.886,26.303,104.292v172.024c0,19.334-15.673,35.007-35.007,35.007h33.54  c19.334,0,35.007-15.673,35.007-35.007V304.97C392.525,268.565,383.487,232.729,366.222,200.678z"/>
<circle style="fill:#FDA354;" cx="256.001" cy="337.33" r="32.14"/>
<path style="opacity:0.1;enable-background:new    ;" d="M272.677,309.841h-33.351c-9.274,5.639-15.468,15.839-15.468,27.485  c0,5.646,1.46,10.95,4.017,15.561h56.253c2.557-4.611,4.017-9.915,4.017-15.561C288.145,325.679,281.95,315.479,272.677,309.841z"/>
<path style="fill:#FDA354;" d="M281.756,222.237h-51.51c-8.971,0-16.86,5.931-19.353,14.548l-3.577,12.366  c-5.877,20.319-8.86,41.365-8.86,62.516v13.108c0,6.931,5.619,12.55,12.55,12.55h89.989c6.931,0,12.55-5.619,12.55-12.55v-13.108  c0-21.152-2.983-42.198-8.86-62.516l-3.577-12.366C298.616,228.168,290.726,222.237,281.756,222.237z"/>
<path style="opacity:0.1;enable-background:new    ;" d="M304.686,249.151l-3.577-12.366c-2.493-8.617-10.382-14.548-19.353-14.548  h-18.312c8.97,0,16.86,5.931,19.353,14.548l3.577,12.366c5.877,20.319,8.86,41.365,8.86,62.516v13.108  c0,6.931-5.619,12.55-12.55,12.55h18.312c6.931,0,12.55-5.619,12.55-12.55v-13.108C313.546,290.516,310.563,269.47,304.686,249.151z  "/>
<path style="fill:#3E4B58;" d="M290.863,397.211l13.287-4.937c6.021-2.237,12.661-2.145,18.618,0.26l15.801,6.378  c16.424,6.63,21.415,27.471,9.776,40.822l-3.069,3.52c-6.018,6.904-15.25,10.093-24.246,8.378l-26.019-4.962  c-13.85-2.641-23.004-15.925-20.542-29.807l0,0C276.064,407.869,282.301,400.392,290.863,397.211z"/>
<g>
</g>
<g>
</g>
<g>
</g>
<g>
</g>
<g>
</g>
<g>
</g>
<g>
</g>
<g>
</g>
<g>
</g>
<g>
</g>
<g>
</g>
<g>
</g>
<g>
</g>
<g>
</g>
<g>
</g>
</svg>
