<?xml version="1.0" encoding="iso-8859-1"?>
<!-- Generator: Adobe Illustrator 19.0.0, SVG Export Plug-In . SVG Version: 6.00 Build 0)  -->
<svg xmlns="http://www.w3.org/2000/svg" xmlns:xlink="http://www.w3.org/1999/xlink" version="1.1" id="Capa_1" x="0px" y="0px" viewBox="0 0 512 512" style="enable-background:new 0 0 512 512;" xml:space="preserve">
<path style="fill:#9BD8EB;" d="M322.801,512h-133.6c-21.307,0-38.531-17.363-38.361-38.668l0.608-76.185  c0.209-23.967,6.661-47.466,18.72-68.18l0,0c4.277-7.346,6.53-15.695,6.53-24.195v-52.768c0-15.421-4.127-30.561-11.952-43.85l0,0  c-22.581-38.346-19.449-86.594,7.9-121.698l0,0c7.471-9.59,18.948-15.197,31.104-15.197h104.5c12.156,0,23.633,5.607,31.104,15.197  l0,0c27.349,35.105,30.481,83.353,7.9,121.698l0,0c-7.825,13.288-11.952,28.429-11.952,43.85v52.768c0,8.5,2.253,16.849,6.53,24.195  l0,0c12.06,20.713,18.512,44.212,18.72,68.18l0.608,76.185C361.332,494.637,344.107,512,322.801,512z"/>
<g style="opacity:0.4;">
	<ellipse style="fill:#F98F9D;" cx="322.711" cy="439.52" rx="29.744" ry="17.825"/>
	<ellipse style="fill:#F98F9D;" cx="189.271" cy="439.52" rx="29.744" ry="17.825"/>
</g>
<path style="opacity:0.05;enable-background:new    ;" d="M289.782,136.146c18.237,0,34.965-5.88,51.142-11.566  c5.44-1.912,10.755-3.776,15.908-5.322c-1.561-4.753-3.465-9.413-5.695-13.952c-4.986,1.541-10.035,3.311-15.187,5.122  c-14.99,5.269-30.49,10.718-46.168,10.718c-4.142,0-7.5,3.358-7.5,7.5C282.282,132.788,285.64,136.146,289.782,136.146z   M222.219,453.295c-13.842,0-27.681,4.864-42.331,10.014c-9.502,3.34-19.21,6.747-29.038,8.798l-0.01,1.224  c-0.038,4.791,0.809,9.379,2.379,13.618c10.931-2.214,21.398-5.888,31.644-9.489c13.409-4.713,26.075-9.165,37.357-9.165  c4.142,0,7.5-3.358,7.5-7.5C229.719,456.653,226.361,453.295,222.219,453.295z M361.019,455.483  c-8.187,1.9-16.489,4.81-25.069,7.827c-14.99,5.269-30.49,10.717-46.168,10.717c-4.142,0-7.5,3.358-7.5,7.5s3.358,7.5,7.5,7.5  c18.237,0,34.965-5.88,51.142-11.566c6.971-2.45,13.739-4.824,20.218-6.544L361.019,455.483z M222.219,100.414  c-13.842,0-27.681,4.864-42.331,10.014c-7.987,2.808-16.12,5.658-24.346,7.716c-1.814,5.328-3.209,10.771-4.171,16.279  c11.601-2.159,22.671-6.04,33.492-9.844c13.409-4.713,26.075-9.165,37.357-9.165c4.142,0,7.5-3.358,7.5-7.5  S226.361,100.414,222.219,100.414z"/>
<path style="fill:#E4E7E9;" d="M288.444,0h-64.885c-6.183,0-11.196,5.012-11.196,11.196v60.063h87.276V11.196  C299.639,5.012,294.627,0,288.444,0z"/>
<path style="fill:#59A8ED;" d="M150.441,165.302c1.674,14.837,6.414,29.45,14.306,42.852l0,0  c7.825,13.288,11.952,28.429,11.952,43.85v52.768c0,8.5-2.253,16.849-6.53,24.195l0,0c-1.868,3.208-3.584,6.49-5.181,9.823h182.026  c-1.596-3.333-3.313-6.615-5.181-9.823l0,0c-4.277-7.346-6.53-15.695-6.53-24.195v-52.768c0-15.421,4.127-30.561,11.952-43.85l0,0  c7.892-13.402,12.632-28.014,14.306-42.852L150.441,165.302L150.441,165.302z"/>
<path style="opacity:0.1;enable-background:new    ;" d="M341.833,328.967L341.833,328.967c-4.277-7.346-6.53-15.695-6.53-24.195  v-47.888c-7.212-0.405-14.48,1.753-21.096,6.518l0,0c-12.196,8.784-26.608,8.784-38.804,0l0,0c-12.196-8.784-26.608-8.784-38.804,0  l0,0c-12.196,8.784-26.608,8.784-38.804,0l0,0c-6.616-4.765-13.883-6.923-21.096-6.518v47.888c0,8.5-2.253,16.849-6.53,24.195l0,0  c-1.868,3.208-3.584,6.49-5.181,9.823h182.026C345.418,335.457,343.701,332.175,341.833,328.967z"/>
<path style="fill:#9BD8EB;" d="M292.766,268.743c0-15.147-20.461-50.09-30.854-66.864c-2.721-4.392-9.1-4.392-11.821,0  c-10.394,16.773-30.854,51.716-30.854,66.864c0,20.305,16.46,36.765,36.765,36.765S292.766,289.047,292.766,268.743z"/>
<g style="opacity:0.1;">
	
		<line style="fill:none;stroke:#000000;stroke-width:15;stroke-linejoin:round;stroke-miterlimit:10;" x1="241.15" y1="0" x2="241.15" y2="71.26"/>
	
		<line style="fill:none;stroke:#000000;stroke-width:15;stroke-linejoin:round;stroke-miterlimit:10;" x1="270.851" y1="0" x2="270.851" y2="71.26"/>
</g>
<path style="opacity:0.1;enable-background:new    ;" d="M341.833,328.967c-4.277-7.346-6.53-15.695-6.53-24.195v-52.768  c0-15.421,4.127-30.562,11.952-43.85c22.581-38.346,19.449-86.594-7.9-121.698l0,0c-7.471-9.59-18.948-15.197-31.104-15.197H275.62  c12.156,0,23.633,5.607,31.104,15.197l0,0c27.349,35.105,30.481,83.353,7.9,121.698l0,0c-7.825,13.288-11.952,28.429-11.952,43.85  v52.768c0,8.5,2.253,16.849,6.53,24.195c12.059,20.713,18.512,44.212,18.72,68.18l0.608,76.185  C328.7,494.638,311.475,512,290.169,512h32.632c21.307,0,38.531-17.362,38.361-38.668l-0.608-76.185  C360.345,373.179,353.892,349.68,341.833,328.967z"/>
<g>
	<path style="fill:#3E4B58;" d="M187.848,410.607c-4.142,0-7.5-3.358-7.5-7.5v-11.313c0-4.142,3.358-7.5,7.5-7.5s7.5,3.358,7.5,7.5   v11.313C195.348,407.249,191.99,410.607,187.848,410.607z"/>
	<path style="fill:#3E4B58;" d="M324.154,410.607c-4.142,0-7.5-3.358-7.5-7.5v-11.313c0-4.142,3.358-7.5,7.5-7.5s7.5,3.358,7.5,7.5   v11.313C331.654,407.249,328.296,410.607,324.154,410.607z"/>
	<path style="fill:#3E4B58;" d="M256.001,419.294c-9.053,0-17.663-3.921-23.622-10.758c-2.722-3.122-2.396-7.86,0.726-10.582   c3.122-2.722,7.859-2.397,10.582,0.726c3.109,3.567,7.598,5.613,12.314,5.613s9.205-2.046,12.314-5.613   c2.721-3.124,7.459-3.448,10.582-0.726s3.448,7.459,0.726,10.582C273.664,415.374,265.054,419.294,256.001,419.294z"/>
</g>
<path style="opacity:0.1;enable-background:new    ;" d="M288.444,0h-15.853c6.183,0,11.196,5.012,11.196,11.196V52.04h-71.424  v19.219h87.276V11.196C299.639,5.012,294.627,0,288.444,0z"/>
<g>
</g>
<g>
</g>
<g>
</g>
<g>
</g>
<g>
</g>
<g>
</g>
<g>
</g>
<g>
</g>
<g>
</g>
<g>
</g>
<g>
</g>
<g>
</g>
<g>
</g>
<g>
</g>
<g>
</g>
</svg>
