<?xml version="1.0" encoding="iso-8859-1"?>
<!-- Generator: Adobe Illustrator 19.0.0, SVG Export Plug-In . SVG Version: 6.00 Build 0)  -->
<svg version="1.1" id="Layer_1" xmlns="http://www.w3.org/2000/svg" xmlns:xlink="http://www.w3.org/1999/xlink" x="0px" y="0px"
	 viewBox="0 0 496 496" style="enable-background:new 0 0 496 496;" xml:space="preserve">
<path style="fill:#6ACE09;" d="M368,465.6c0,17.6-10.4,30.4-28,30.4H160c-17.6,0-32-14.4-32-32V80c0-17.6,14.4-32,32-32h180
	c17.6,0,28,12.8,28,30.4V465.6z"/>
<path style="fill:#43BA04;" d="M160,48h180c17.6,0,28,12.8,28,30.4v387.2c0,17.6-10.4,30.4-28,30.4H160"/>
<g>
	<path style="fill:#3CAF00;" d="M320,19.2c0,3.2-4,4.8-7.2,4.8H183.2c-3.2,0-7.2-1.6-7.2-4.8V4.8c0-3.2,4-4.8,7.2-4.8h129.6
		c3.2,0,7.2,1.6,7.2,4.8V19.2z"/>
	<polyline style="fill:#3CAF00;stroke:#81EF41;stroke-linecap:round;stroke-linejoin:round;stroke-miterlimit:10;" points="212,96 
		212,260 284,260 284,456 	"/>
</g>
<g>
	<path style="fill:#5FE80F;" d="M288,109.6c0,1.6-0.8,2.4-2.4,2.4h-51.2c-1.6,0-2.4-0.8-2.4-2.4v-3.2c0-1.6,0.8-2.4,2.4-2.4h51.2
		c1.6,0,2.4,0.8,2.4,2.4V109.6z"/>
	<path style="fill:#5FE80F;" d="M288,125.6c0,1.6-0.8,2.4-2.4,2.4h-51.2c-1.6,0-2.4-0.8-2.4-2.4v-3.2c0-1.6,0.8-2.4,2.4-2.4h51.2
		c1.6,0,2.4,0.8,2.4,2.4V125.6z"/>
	<path style="fill:#5FE80F;" d="M288,141.6c0,1.6-0.8,2.4-2.4,2.4h-51.2c-1.6,0-2.4-0.8-2.4-2.4v-3.2c0-1.6,0.8-2.4,2.4-2.4h51.2
		c1.6,0,2.4,0.8,2.4,2.4V141.6z"/>
	<path style="fill:#5FE80F;" d="M288,157.6c0,1.6-0.8,2.4-2.4,2.4h-51.2c-1.6,0-2.4-0.8-2.4-2.4v-3.2c0-1.6,0.8-2.4,2.4-2.4h51.2
		c1.6,0,2.4,0.8,2.4,2.4V157.6z"/>
	<path style="fill:#5FE80F;" d="M288,173.6c0,1.6-0.8,2.4-2.4,2.4h-51.2c-1.6,0-2.4-0.8-2.4-2.4v-3.2c0-1.6,0.8-2.4,2.4-2.4h51.2
		c1.6,0,2.4,0.8,2.4,2.4V173.6z"/>
	<path style="fill:#5FE80F;" d="M288,189.6c0,1.6-0.8,2.4-2.4,2.4h-51.2c-1.6,0-2.4-0.8-2.4-2.4v-3.2c0-1.6,0.8-2.4,2.4-2.4h51.2
		c1.6,0,2.4,0.8,2.4,2.4V189.6z"/>
	<path style="fill:#5FE80F;" d="M288,205.6c0,1.6-0.8,2.4-2.4,2.4h-51.2c-1.6,0-2.4-0.8-2.4-2.4v-3.2c0-1.6,0.8-2.4,2.4-2.4h51.2
		c1.6,0,2.4,0.8,2.4,2.4V205.6z"/>
	<path style="fill:#5FE80F;" d="M288,221.6c0,1.6-0.8,2.4-2.4,2.4h-51.2c-1.6,0-2.4-0.8-2.4-2.4v-3.2c0-1.6,0.8-2.4,2.4-2.4h51.2
		c1.6,0,2.4,0.8,2.4,2.4V221.6z"/>
	<path style="fill:#5FE80F;" d="M288,237.6c0,1.6-0.8,2.4-2.4,2.4h-51.2c-1.6,0-2.4-0.8-2.4-2.4v-3.2c0-1.6,0.8-2.4,2.4-2.4h51.2
		c1.6,0,2.4,0.8,2.4,2.4V237.6z"/>
</g>
<g>
</g>
<g>
</g>
<g>
</g>
<g>
</g>
<g>
</g>
<g>
</g>
<g>
</g>
<g>
</g>
<g>
</g>
<g>
</g>
<g>
</g>
<g>
</g>
<g>
</g>
<g>
</g>
<g>
</g>
</svg>
