<?xml version="1.0" encoding="iso-8859-1"?>
<!-- Generator: Adobe Illustrator 19.0.0, SVG Export Plug-In . SVG Version: 6.00 Build 0)  -->
<svg version="1.1" id="Layer_1" xmlns="http://www.w3.org/2000/svg" xmlns:xlink="http://www.w3.org/1999/xlink" x="0px" y="0px"
	 viewBox="0 0 502.4 502.4" style="enable-background:new 0 0 502.4 502.4;" xml:space="preserve">
<path style="fill:#B2B1A1;" d="M211.2,172c0,16.8-13.6,31.2-31.2,31.2h-1.6c-16.8,0-31.2-13.6-31.2-31.2V34.4
	c0-17.6,13.6-31.2,31.2-31.2h1.6c17.6,0,31.2,13.6,31.2,31.2V172z"/>
<path style="fill:#969587;" d="M180,3.2L180,3.2c17.6,0,31.2,13.6,31.2,31.2v136c0,16.8-14.4,31.2-31.2,31.2l0,0"/>
<g>
	<path style="fill:#D8D5C5;" d="M203.2,49.6c0,0.8-0.8,1.6-1.6,1.6h-44c-1.6,0-2.4-0.8-2.4-1.6v-4.8c0-0.8,0.8-1.6,1.6-1.6h44
		c1.6,0,2.4,0.8,2.4,1.6V49.6z"/>
	<path style="fill:#D8D5C5;" d="M203.2,81.6c0,0.8-0.8,1.6-1.6,1.6h-44c-0.8,0-1.6-0.8-1.6-1.6v-4c0-0.8,0.8-1.6,1.6-1.6h44
		c0.8,0,1.6,0.8,1.6,1.6V81.6z"/>
	<path style="fill:#D8D5C5;" d="M203.2,113.6c0,0.8-0.8,1.6-1.6,1.6h-44c-0.8,0-1.6-0.8-1.6-1.6v-4c0-0.8,0.8-1.6,1.6-1.6h44
		c0.8,0,1.6,0.8,1.6,1.6V113.6z"/>
	<path style="fill:#D8D5C5;" d="M203.2,145.6c0,0.8-0.8,1.6-1.6,1.6h-44c-0.8,0-1.6-0.8-1.6-1.6v-4c0-0.8,0.8-1.6,1.6-1.6h44
		c0.8,0,1.6,0.8,1.6,1.6V145.6z"/>
</g>
<path style="fill:#B2B1A1;" d="M283.2,172c0,16.8-13.6,31.2-31.2,31.2h-1.6c-16.8,0-31.2-13.6-31.2-31.2V34.4
	c0-17.6,13.6-31.2,31.2-31.2h1.6c17.6,0,31.2,13.6,31.2,31.2V172z"/>
<path style="fill:#969587;" d="M252,3.2L252,3.2c17.6,0,31.2,13.6,31.2,31.2v136c0,16.8-14.4,31.2-31.2,31.2l0,0"/>
<g>
	<path style="fill:#D8D5C5;" d="M275.2,49.6c0,0.8-0.8,1.6-1.6,1.6h-44c-1.6,0-2.4-0.8-2.4-1.6v-4.8c0-0.8,0.8-1.6,1.6-1.6h44
		c1.6,0,2.4,0.8,2.4,1.6V49.6z"/>
	<path style="fill:#D8D5C5;" d="M275.2,81.6c0,0.8-0.8,1.6-1.6,1.6h-44c-0.8,0-1.6-0.8-1.6-1.6v-4c0-0.8,0.8-1.6,1.6-1.6h44
		c0.8,0,1.6,0.8,1.6,1.6V81.6z"/>
	<path style="fill:#D8D5C5;" d="M275.2,113.6c0,0.8-0.8,1.6-1.6,1.6h-44c-0.8,0-1.6-0.8-1.6-1.6v-4c0-0.8,0.8-1.6,1.6-1.6h44
		c0.8,0,1.6,0.8,1.6,1.6V113.6z"/>
	<path style="fill:#D8D5C5;" d="M275.2,145.6c0,0.8-0.8,1.6-1.6,1.6h-44c-0.8,0-1.6-0.8-1.6-1.6v-4c0-0.8,0.8-1.6,1.6-1.6h44
		c0.8,0,1.6,0.8,1.6,1.6V145.6z"/>
</g>
<path style="fill:#B2B1A1;" d="M355.2,172c0,16.8-13.6,31.2-31.2,31.2h-1.6c-16.8,0-31.2-13.6-31.2-31.2V34.4
	c0-17.6,13.6-31.2,31.2-31.2h1.6c17.6,0,31.2,13.6,31.2,31.2V172z"/>
<path style="fill:#969587;" d="M324,3.2L324,3.2c17.6,0,31.2,13.6,31.2,31.2v136c0,16.8-14.4,31.2-31.2,31.2l0,0"/>
<g>
	<path style="fill:#D8D5C5;" d="M347.2,49.6c0,0.8-0.8,1.6-1.6,1.6h-44c-1.6,0-2.4-0.8-2.4-1.6v-4.8c0-0.8,0.8-1.6,1.6-1.6h44
		c1.6,0,2.4,0.8,2.4,1.6V49.6z"/>
	<path style="fill:#D8D5C5;" d="M347.2,81.6c0,0.8-0.8,1.6-1.6,1.6h-44c-0.8,0-1.6-0.8-1.6-1.6v-4c0-0.8,0.8-1.6,1.6-1.6h44
		c0.8,0,1.6,0.8,1.6,1.6V81.6z"/>
	<path style="fill:#D8D5C5;" d="M347.2,113.6c0,0.8-0.8,1.6-1.6,1.6h-44c-0.8,0-1.6-0.8-1.6-1.6v-4c0-0.8,0.8-1.6,1.6-1.6h44
		c0.8,0,1.6,0.8,1.6,1.6V113.6z"/>
	<path style="fill:#D8D5C5;" d="M347.2,145.6c0,0.8-0.8,1.6-1.6,1.6h-44c-0.8,0-1.6-0.8-1.6-1.6v-4c0-0.8,0.8-1.6,1.6-1.6h44
		c0.8,0,1.6,0.8,1.6,1.6V145.6z"/>
</g>
<path style="fill:#E29E3B;" d="M398.4,199.2c0,16-12.8,28-29.6,28H126.4c-16,0-29.6-12-29.6-28l0,0c0-16,12.8-28,29.6-28h242.4
	C384.8,171.2,398.4,183.2,398.4,199.2L398.4,199.2z"/>
<path style="fill:#C68D30;" d="M368.8,171.2c16,0,29.6,10.4,29.6,27.2l0,0c0,16-12.8,28.8-29.6,28.8H126.4
	c-16,0-29.6-12.8-29.6-28.8l0,0"/>
<path style="fill:#CE1906;" d="M459.2,355.2c0,44-36,80-80,80h-256c-44,0-80-36-80-80v-80c0-44,36-80,80-80h256c44,0,80,36,80,80
	V355.2z"/>
<path style="fill:#B51815;" d="M459.2,275.2v80c0,44-36,80-80,80h-256c-44,0-80-41.6-80-85.6v-74.4"/>
<path style="fill:#B2B1A1;" d="M502.4,419.2c0,44.8-36,80-81.6,80H81.6C36.8,499.2,0,464,0,419.2l0,0c0-44.8,36-80,80.8-80H420
	C465.6,339.2,502.4,374.4,502.4,419.2L502.4,419.2z"/>
<path style="fill:#969587;" d="M502.4,420L502.4,420c0,44.8-36,79.2-81.6,79.2H81.6C36.8,499.2,0,464,0,419.2l0,0"/>
<circle style="fill:#EEFCFF;" cx="139.2" cy="273.6" r="47.2"/>
<path style="fill:#DEF0F9;" d="M139.2,227.2c25.6,0,47.2,20.8,47.2,47.2s-20.8,47.2-47.2,47.2"/>
<g>
	<path style="fill:#AAC3CE;" d="M140,244c0,0.8,0,0.8-0.8,0.8l0,0c-0.8,0-0.8,0-0.8-0.8v-10.4c0-0.8,0-0.8,0.8-0.8l0,0
		c0.8,0,0.8,0,0.8,0.8V244z"/>
	<path style="fill:#AAC3CE;" d="M140,313.6c0,0.8,0,0.8-0.8,0.8l0,0c-0.8,0-0.8,0-0.8-0.8v-10.4c0-0.8,0-0.8,0.8-0.8l0,0
		c0.8,0,0.8,0,0.8,0.8V313.6z"/>
	<path style="fill:#AAC3CE;" d="M168.8,275.2c-0.8,0-0.8,0-0.8-0.8l0,0c0-0.8,0-0.8,0.8-0.8h10.4c0.8,0,0.8,0,0.8,0.8l0,0
		c0,0.8,0,0.8-0.8,0.8H168.8z"/>
	<path style="fill:#AAC3CE;" d="M99.2,275.2c-0.8,0-0.8,0-0.8-0.8l0,0c0-0.8,0-0.8,0.8-0.8h10.4c0.8,0,0.8,0,0.8,0.8l0,0
		c0,0.8,0,0.8-0.8,0.8H99.2z"/>
	<path style="fill:#AAC3CE;" d="M160.8,253.6c0,0-0.8,0-1.6,0l0,0c0,0,0-0.8,0-1.6l7.2-7.2c0,0,0.8,0,1.6,0l0,0c0,0,0,0.8,0,1.6
		L160.8,253.6z"/>
	<path style="fill:#AAC3CE;" d="M112,302.4c0,0-0.8,0-1.6,0l0,0c0,0,0-0.8,0-1.6l7.2-7.2c0,0,0.8,0,1.6,0l0,0c0,0,0,0.8,0,1.6
		L112,302.4z"/>
	<path style="fill:#AAC3CE;" d="M159.2,295.2c0,0,0-0.8,0-1.6l0,0c0,0,0.8,0,1.6,0l7.2,7.2c0,0,0,0.8,0,1.6l0,0c0,0-0.8,0-1.6,0
		L159.2,295.2z"/>
	<path style="fill:#AAC3CE;" d="M110.4,246.4c0,0,0-0.8,0-1.6l0,0c0,0,0.8,0,1.6,0l7.2,7.2c0,0,0,0.8,0,1.6l0,0c0,0-0.8,0-1.6,0
		L110.4,246.4z"/>
</g>
<path style="fill:#D8D5C5;" d="M68,353.6L68,353.6c0-4,3.2-6.4,7.2-6.4h352c4,0,7.2,2.4,7.2,6.4l0,0"/>
<g>
	<circle style="fill:#DDDCCC;" cx="96.8" cy="421.6" r="49.6"/>
	<rect x="91.2" y="360" style="fill:#DDDCCC;" width="16" height="24"/>
	<rect x="91.2" y="459.2" style="fill:#DDDCCC;" width="16" height="24"/>
	
		<rect x="124.936" y="372.912" transform="matrix(-0.7071 -0.7071 0.7071 -0.7071 -45.1206 752.7337)" style="fill:#DDDCCC;" width="16.8" height="25.6"/>
	
		<rect x="51.934" y="445.2" transform="matrix(-0.7071 -0.7071 0.7071 -0.7071 -220.8577 824.517)" style="fill:#DDDCCC;" width="16.8" height="25.6"/>
	<rect x="139.2" y="411.2" style="fill:#DDDCCC;" width="21.6" height="16"/>
	<rect x="35.2" y="411.2" style="fill:#DDDCCC;" width="24" height="16"/>
	
		<rect x="124.492" y="445.171" transform="matrix(0.7071 -0.7071 0.7071 0.7071 -284.9114 228.1051)" style="fill:#DDDCCC;" width="16.8" height="25.6"/>
	
		<rect x="52.928" y="372.789" transform="matrix(0.7076 -0.7067 0.7067 0.7076 -254.5444 156.1016)" style="fill:#DDDCCC;" width="16.801" height="25.602"/>
	<circle style="fill:#DDDCCC;" cx="405.6" cy="421.6" r="49.6"/>
	<rect x="395.2" y="358.4" style="fill:#DDDCCC;" width="16" height="24"/>
	<rect x="395.2" y="459.2" style="fill:#DDDCCC;" width="16" height="24"/>
	
		<rect x="433.059" y="372.619" transform="matrix(-0.7071 -0.7071 0.7071 -0.7071 481.0852 970.1089)" style="fill:#DDDCCC;" width="16.8" height="25.6"/>
	
		<rect x="360.607" y="445.424" transform="matrix(-0.7071 -0.7071 0.7071 -0.7071 305.9205 1043.1646)" style="fill:#DDDCCC;" width="16.8" height="25.6"/>
	<rect x="443.2" y="411.2" style="fill:#DDDCCC;" width="24" height="16"/>
	<rect x="339.2" y="411.2" style="fill:#DDDCCC;" width="24" height="16"/>
	
		<rect x="433.185" y="444.798" transform="matrix(0.7071 -0.7071 0.7071 0.7071 -194.2334 446.2749)" style="fill:#DDDCCC;" width="16.8" height="25.6"/>
	
		<rect x="361.093" y="373.124" transform="matrix(0.7071 -0.7071 0.7071 0.7071 -164.6673 374.3052)" style="fill:#DDDCCC;" width="16.8" height="25.6"/>
	<circle style="fill:#DDDCCC;" cx="251.2" cy="421.6" r="49.6"/>
	
		<rect x="194.499" y="425.388" transform="matrix(0.3192 0.9477 -0.9477 0.3192 553.4001 106.0353)" style="fill:#DDDCCC;" width="16.8" height="25.6"/>
	
		<rect x="291.206" y="392.961" transform="matrix(0.3181 0.9481 -0.9481 0.3181 588.9777 -7.3604)" style="fill:#DDDCCC;" width="16.799" height="25.599"/>
	
		<rect x="196.922" y="386.626" transform="matrix(-0.4447 0.8957 -0.8957 -0.4447 654.3859 393.1439)" style="fill:#DDDCCC;" width="16.8" height="25.6"/>
	
		<rect x="288.444" y="432.472" transform="matrix(-0.4443 0.8959 -0.8959 -0.4443 827.6404 377.1656)" style="fill:#DDDCCC;" width="16.8" height="25.601"/>
	
		<rect x="226.458" y="360.855" transform="matrix(-0.9478 0.319 -0.319 -0.9478 576.6387 652.8736)" style="fill:#DDDCCC;" width="16.801" height="25.601"/>
	
		<rect x="259.209" y="457.57" transform="matrix(-0.9478 0.319 -0.319 -0.9478 671.2808 830.8056)" style="fill:#DDDCCC;" width="16.801" height="25.601"/>
	
		<rect x="265.666" y="363.236" transform="matrix(-0.8953 -0.4454 0.4454 -0.8953 351.9518 834.7822)" style="fill:#DDDCCC;" width="16.8" height="25.599"/>
	
		<rect x="219.903" y="455.151" transform="matrix(-0.8957 -0.4447 0.4447 -0.8957 224.6964 988.6116)" style="fill:#DDDCCC;" width="16.8" height="25.6"/>
</g>
<circle style="fill:#FF4133;" cx="96.8" cy="421.6" r="23.2"/>
<path style="fill:#B51815;" d="M96.8,398.4c12.8,0,23.2,10.4,23.2,23.2c0,12.8-10.4,23.2-23.2,23.2"/>
<circle style="fill:#FF4133;" cx="251.2" cy="421.6" r="23.2"/>
<path style="fill:#B51815;" d="M251.2,398.4c12.8,0,23.2,10.4,23.2,23.2c0,12.8-10.4,23.2-23.2,23.2"/>
<circle style="fill:#FF4133;" cx="405.6" cy="421.6" r="23.2"/>
<path style="fill:#B51815;" d="M405.6,398.4c12.8,0,23.2,10.4,23.2,23.2c0,12.8-10.4,23.2-23.2,23.2"/>
<path style="fill:#FF4133;" d="M379.2,207.2c0,2.4-1.6,4-4,4h-256c-2.4,0-4-1.6-4-4l0,0c0-2.4,1.6-4,4-4h256
	C377.6,203.2,379.2,204.8,379.2,207.2L379.2,207.2z"/>
<g>
	<path style="fill:#870E0E;" d="M251.2,300.8c0,4-3.2,6.4-6.4,6.4h-2.4c-4,0-6.4-3.2-6.4-6.4v-50.4c0-4,3.2-6.4,6.4-6.4h2.4
		c4,0,6.4,3.2,6.4,6.4V300.8z"/>
	<path style="fill:#870E0E;" d="M283.2,300.8c0,4-3.2,6.4-6.4,6.4h-2.4c-4,0-6.4-3.2-6.4-6.4v-50.4c0-4,3.2-6.4,6.4-6.4h2.4
		c4,0,6.4,3.2,6.4,6.4V300.8z"/>
	<path style="fill:#870E0E;" d="M315.2,300.8c0,4-3.2,6.4-6.4,6.4h-2.4c-4,0-6.4-3.2-6.4-6.4v-50.4c0-4,3.2-6.4,6.4-6.4h2.4
		c4,0,6.4,3.2,6.4,6.4V300.8z"/>
	<path style="fill:#870E0E;" d="M347.2,300.8c0,4-3.2,6.4-6.4,6.4h-2.4c-4,0-6.4-3.2-6.4-6.4v-50.4c0-4,3.2-6.4,6.4-6.4h2.4
		c4,0,6.4,3.2,6.4,6.4V300.8z"/>
</g>
<path style="fill:#FF4133;" d="M141.6,280c0,0.8-0.8,2.4-2.4,2.4l0,0c-1.6,0-2.4-0.8-2.4-2.4v-22.4c0-0.8,0.8-2.4,2.4-2.4l0,0
	c1.6,0,2.4,0.8,2.4,2.4V280z"/>
<g>
</g>
<g>
</g>
<g>
</g>
<g>
</g>
<g>
</g>
<g>
</g>
<g>
</g>
<g>
</g>
<g>
</g>
<g>
</g>
<g>
</g>
<g>
</g>
<g>
</g>
<g>
</g>
<g>
</g>
</svg>
