<?xml version="1.0" encoding="iso-8859-1"?>
<!-- Generator: Adobe Illustrator 19.0.0, SVG Export Plug-In . SVG Version: 6.00 Build 0)  -->
<svg version="1.1" id="Layer_1" xmlns="http://www.w3.org/2000/svg" xmlns:xlink="http://www.w3.org/1999/xlink" x="0px" y="0px"
	 viewBox="0 0 504.8 504.8" style="enable-background:new 0 0 504.8 504.8;" xml:space="preserve">
<path style="fill:#8DAAB2;" d="M436.4,320.8c0-9.6,3.2-17.6,8-17.6l0,0c4.8,0,8,8,8,17.6V444c0,9.6-3.2,17.6-8,17.6l0,0
	c-4.8,0-8-8-8-17.6V320.8z"/>
<path style="fill:#6B878E;" d="M444.4,461.6L444.4,461.6c-4.8,0-8-8-8-17.6V320.8c0-9.6,3.2-17.6,8.8-17.6l0,0"/>
<polygon style="fill:#FFB600;" points="442.8,409.6 488.4,455.2 442.8,500.8 405.2,448 "/>
<polyline style="fill:#E55E03;" points="442.8,500.8 405.2,448 442.8,409.6 "/>
<path style="fill:#00FFF2;" d="M433.2,268.8c11.2,0,20,8.8,20,20s-8.8,20-20,20"/>
<path style="fill:#08C4B2;" d="M433.2,268.8c11.2,0,20,8.8,20,20"/>
<g>
	<circle style="fill:#FF8500;" cx="418" cy="412.8" r="6.4"/>
	<circle style="fill:#FF8500;" cx="397.2" cy="412.8" r="6.4"/>
</g>
<path style="fill:#8DAAB2;" d="M68.4,320.8c0-9.6-3.2-17.6-8-17.6l0,0c-4.8,0-8,8-8,17.6V444c0,9.6,3.2,17.6,8,17.6l0,0
	c4.8,0,8-8,8-17.6V320.8z"/>
<path style="fill:#6B878E;" d="M60.4,461.6L60.4,461.6c4.8,0,8-8,8-17.6V320.8c0-9.6-3.2-17.6-8.8-17.6l0,0"/>
<polygon style="fill:#FFB600;" points="62,409.6 16.4,455.2 62,500.8 99.6,448 "/>
<polyline style="fill:#E55E03;" points="62,500.8 99.6,448 62,409.6 "/>
<path style="fill:#00FFF2;" d="M71.6,268.8c-11.2,0-20,8.8-20,20s8.8,20,20,20"/>
<path style="fill:#08C4B2;" d="M71.6,268.8c-11.2,0-20,8.8-20,20"/>
<g>
	<circle style="fill:#FF8500;" cx="86.8" cy="412.8" r="6.4"/>
	<circle style="fill:#FF8500;" cx="107.6" cy="412.8" r="6.4"/>
</g>
<ellipse style="fill:#00FFF2;" cx="184.4" cy="470.4" rx="45.6" ry="27.2"/>
<path style="fill:#08C4B2;" d="M184.4,443.2c24.8,0,45.6,12,45.6,27.2s-20.8,27.2-45.6,27.2"/>
<ellipse style="fill:#00FFF2;" cx="320.4" cy="470.4" rx="45.6" ry="27.2"/>
<path style="fill:#08C4B2;" d="M320.4,443.2c24.8,0,45.6,12,45.6,27.2s-20.8,27.2-45.6,27.2"/>
<ellipse style="fill:#00FFF2;" cx="252.4" cy="477.6" rx="45.6" ry="27.2"/>
<path style="fill:#08C4B2;" d="M252.4,450.4c24.8,0,45.6,12,45.6,27.2s-20.8,27.2-45.6,27.2"/>
<path style="fill:#8DAAB2;" d="M386.8,452c0-72-60-133.6-134.4-133.6S118.8,380,118,452H386.8z"/>
<path style="fill:#6B878E;" d="M116.4,452h270.4c0-72-60.8-133.6-135.2-133.6"/>
<rect x="169.218" y="249.59" transform="matrix(-0.7071 0.7071 -0.7071 -0.7071 666.2204 389.6218)" style="fill:#E55E03;" width="166.398" height="166.398"/>
<polyline style="fill:#FF8500;" points="252.4,215.2 370,332.8 252.4,450.4 "/>
<polygon style="fill:#E55E03;" points="47.6,300.8 252.4,48 457.2,300.8 252.4,392.8 "/>
<polyline style="fill:#FFB600;" points="252.4,417.6 47.6,300.8 252.4,0 "/>
<polygon style="fill:#FF8500;" points="47.6,300.8 252.4,392.8 252.4,48 "/>
<g>
	<circle style="fill:#FFB600;" cx="252.4" cy="366.4" r="6.4"/>
	<circle style="fill:#FFB600;" cx="252.4" cy="339.2" r="6.4"/>
	<circle style="fill:#FFB600;" cx="252.4" cy="311.2" r="6.4"/>
</g>
<polygon style="fill:#FF8500;" points="316.4,172.8 316.4,280.8 422.8,296.8 "/>
<polygon style="fill:#E55E03;" points="188.4,172.8 188.4,280.8 82,296.8 "/>
<polygon style="fill:#FFB600;" points="188.4,172.8 158,253.6 82,296.8 "/>
<path style="fill:#08C4B2;" d="M256.4,290.4c0,1.6-1.6,3.2-3.2,3.2h-1.6c-1.6,0-3.2-1.6-3.2-3.2V168c0-1.6,1.6-3.2,3.2-3.2h1.6
	c1.6,0,3.2,1.6,3.2,3.2V290.4z"/>
<path style="fill:#8DAAB2;" d="M404.4,468.8c0,8-6.4,15.2-15.2,15.2H115.6c-8,0-15.2-6.4-15.2-15.2v-1.6c0-8,6.4-15.2,15.2-15.2
	h273.6c8,0,15.2,6.4,15.2,15.2V468.8z"/>
<path style="fill:#6B878E;" d="M403.6,468L403.6,468c0,8-6.4,16-15.2,16h-272c-8,0-15.2-7.2-15.2-16l0,0"/>
<g>
	<path style="fill:#FFB600;" d="M148.4,428.8c0,0.8-3.2,1.6-4,1.6l0,0c-0.8,0-4-0.8-4-1.6v-24c0-0.8,3.2-1.6,4-1.6l0,0
		c0.8,0,4,0.8,4,1.6V428.8z"/>
	<path style="fill:#FFB600;" d="M164.4,428.8c0,0.8-3.2,1.6-4,1.6l0,0c-0.8,0-4-0.8-4-1.6v-24c0-0.8,3.2-1.6,4-1.6l0,0
		c0.8,0,4,0.8,4,1.6V428.8z"/>
	<path style="fill:#FFB600;" d="M180.4,428.8c0,0.8-3.2,1.6-4,1.6l0,0c-0.8,0-4-0.8-4-1.6v-24c0-0.8,3.2-1.6,4-1.6l0,0
		c0.8,0,4,0.8,4,1.6V428.8z"/>
	<path style="fill:#FFB600;" d="M196.4,428.8c0,0.8-3.2,1.6-4,1.6l0,0c-0.8,0-4-0.8-4-1.6v-24c0-0.8,3.2-1.6,4-1.6l0,0
		c0.8,0,4,0.8,4,1.6V428.8z"/>
	<path style="fill:#FFB600;" d="M348.4,428.8c0,0.8-3.2,1.6-4,1.6l0,0c-0.8,0-4-0.8-4-1.6v-24c0-0.8,3.2-1.6,4-1.6l0,0
		c0.8,0,4,0.8,4,1.6V428.8z"/>
	<path style="fill:#FFB600;" d="M332.4,428.8c0,0.8-3.2,1.6-4,1.6l0,0c-0.8,0-4-0.8-4-1.6v-24c0-0.8,3.2-1.6,4-1.6l0,0
		c0.8,0,4,0.8,4,1.6V428.8z"/>
	<path style="fill:#FFB600;" d="M316.4,428.8c0,0.8-3.2,1.6-4,1.6l0,0c-0.8,0-4-0.8-4-1.6v-24c0-0.8,3.2-1.6,4-1.6l0,0
		c0.8,0,4,0.8,4,1.6V428.8z"/>
	<path style="fill:#FFB600;" d="M364.4,428.8c0,0.8-3.2,1.6-4,1.6l0,0c-0.8,0-4-0.8-4-1.6v-24c0-0.8,3.2-1.6,4-1.6l0,0
		c0.8,0,4,0.8,4,1.6V428.8z"/>
</g>
<polygon style="fill:#C2FFFC;" points="252.4,176 196.4,120 252.4,128.8 308.4,120 "/>
<polygon style="fill:#00FFF2;" points="252.4,176 196.4,120 252.4,140 308.4,120 "/>
<polyline style="fill:#08C4B2;" points="252.4,128.8 308.4,120 252.4,176 "/>
<g>
</g>
<g>
</g>
<g>
</g>
<g>
</g>
<g>
</g>
<g>
</g>
<g>
</g>
<g>
</g>
<g>
</g>
<g>
</g>
<g>
</g>
<g>
</g>
<g>
</g>
<g>
</g>
<g>
</g>
</svg>
