<?xml version="1.0" encoding="iso-8859-1"?>
<!-- Generator: Adobe Illustrator 19.0.0, SVG Export Plug-In . SVG Version: 6.00 Build 0)  -->
<svg version="1.1" id="Layer_1" xmlns="http://www.w3.org/2000/svg" xmlns:xlink="http://www.w3.org/1999/xlink" x="0px" y="0px"
	 viewBox="0 0 488 488" style="enable-background:new 0 0 488 488;" xml:space="preserve">
<circle style="fill:#CE1906;" cx="244" cy="244" r="244"/>
<g>
	<path style="fill:#770606;" d="M52.8,92.8C52.8,92.8,53.6,92.8,52.8,92.8C28,124,10.4,161.6,4,203.2l152,8.8l49.6-1.6l-0.8-13.6
		C205.6,197.6-12.8,200.8,52.8,92.8z"/>
	<path style="fill:#770606;" d="M244,0c134.4,0,244,108.8,244,244c0,134.4-108.8,244-244,244"/>
</g>
<g>
	<path style="fill:#CE1906;" d="M435.2,92.8C434.4,92.8,434.4,92.8,435.2,92.8C460,124,477.6,161.6,484,203.2L331.2,212l-49.6-1.6
		l0.8-13.6C282.4,197.6,500.8,200.8,435.2,92.8z"/>
	<path style="fill:#CE1906;" d="M280,236.8c0,22.4-12.8,39.2-35.2,39.2l0,0c-22.4,0-41.6-17.6-41.6-40v-88c0-22.4,19.2-40,41.6-40
		l0,0c22.4,0,36,19.2,36,41.6L280,236.8z"/>
</g>
<path style="fill:#770606;" d="M244,104.8L244,104.8c22.4,0,40,20.8,40,43.2v88c0,22.4-16,42.4-40,44l0,0"/>
<path style="fill:#0A6293;" d="M240,460c-106.4,0-192-86.4-192-192"/>
<path style="fill:#CE1906;" d="M248,460c106.4,0,192-86.4,192-192"/>
<g>
	<path style="fill:#F2F2B8;" d="M450.4,199.2c-43.2,2.4-119.2,4-206.4,4s-163.2-1.6-206.4-4C13.6,200.8,0,202.4,0,204
		c0,4.8,108.8,8.8,244,8.8s244-4,244-8.8C488,202.4,473.6,200.8,450.4,199.2z"/>
	<path style="fill:#F2F2B8;" d="M450.4,253.6c-43.2,2.4-119.2,4-206.4,4s-163.2-1.6-206.4-4c-24,1.6-37.6,3.2-37.6,4.8
		c0,4.8,108.8,8.8,244,8.8s244-4,244-8.8C488,256,473.6,254.4,450.4,253.6z"/>
</g>
<path style="fill:#FFFDE1;" d="M132,28v108c0,23.2,16.8,41.6,40,41.6s40-19.2,40-41.6V2.4C188,5.6,156,14.4,132,28z"/>
<path style="fill:#F2F2B8;" d="M132,135.2c0,23.2,16.8,41.6,40,41.6s40-19.2,40-41.6V4"/>
<path style="fill:#FFFDE1;" d="M276,2.4V136c0,23.2,16.8,41.6,40,41.6s40-19.2,40-41.6V28C332,14.4,300,5.6,276,2.4z"/>
<g>
	<path style="fill:#F2F2B8;" d="M276,4v131.2c0,23.2,16.8,41.6,40,41.6s40-19.2,40-41.6"/>
	<circle style="fill:#F2F2B8;" cx="65.6" cy="232" r="4.8"/>
	<circle style="fill:#F2F2B8;" cx="101.6" cy="232" r="4.8"/>
	<circle style="fill:#F2F2B8;" cx="137.6" cy="232" r="4.8"/>
	<circle style="fill:#F2F2B8;" cx="350.4" cy="232" r="4.8"/>
	<circle style="fill:#F2F2B8;" cx="386.4" cy="232" r="4.8"/>
	<circle style="fill:#F2F2B8;" cx="422.4" cy="232" r="4.8"/>
</g>
<path style="fill:#F78A5E;" d="M240,460c-106.4,0-192-86.4-192-192"/>
<circle style="fill:#F2F2B8;" cx="244" cy="211.2" r="27.2"/>
<path style="fill:#D1CF93;" d="M216.8,211.2c0-15.2,12-27.2,27.2-27.2c15.2,0,27.2,12,27.2,27.2"/>
<g>
	<circle style="fill:#770606;" cx="173.6" cy="132.8" r="16.8"/>
	<circle style="fill:#770606;" cx="314.4" cy="132.8" r="16.8"/>
</g>
<g>
</g>
<g>
</g>
<g>
</g>
<g>
</g>
<g>
</g>
<g>
</g>
<g>
</g>
<g>
</g>
<g>
</g>
<g>
</g>
<g>
</g>
<g>
</g>
<g>
</g>
<g>
</g>
<g>
</g>
</svg>
