<?xml version="1.0" encoding="iso-8859-1"?>
<!-- Generator: Adobe Illustrator 19.0.0, SVG Export Plug-In . SVG Version: 6.00 Build 0)  -->
<svg version="1.1" id="Layer_1" xmlns="http://www.w3.org/2000/svg" xmlns:xlink="http://www.w3.org/1999/xlink" x="0px" y="0px"
	 viewBox="0 0 504 504" style="enable-background:new 0 0 504 504;" xml:space="preserve">
<circle style="fill:#C7D3D1;" cx="348.8" cy="207.2" r="155.2"/>
<g>
	<circle style="fill:#D5E0DF;" cx="376.8" cy="197.6" r="125.6"/>
	<circle style="fill:#D5E0DF;" cx="376.8" cy="197.6" r="125.6"/>
</g>
<circle style="fill:#8CE01E;" cx="420.8" cy="191.2" r="82.4"/>
<path style="fill:#68C100;" d="M420.8,108.8c45.6,0,82.4,36.8,82.4,82.4s-36.8,82.4-82.4,82.4s-82.4-36.8-82.4-82.4"/>
<path style="fill:#478E03;" d="M420.8,108.8c45.6,0,82.4,36.8,82.4,82.4s-36.8,82.4-82.4,82.4"/>
<path style="fill:#6DA0A0;" d="M278.4,289.6c-13.6,13.6-13.6,36,0,49.6l0,0c13.6,13.6,36,13.6,49.6,0l120.8-120.8
	c13.6-13.6,13.6-36,0-49.6l0,0c-13.6-13.6-36-13.6-49.6,0L278.4,289.6z"/>
<g>
	<path style="fill:#568789;" d="M278.4,339.2L278.4,339.2c13.6,13.6,36,13.6,49.6,0l120.8-120.8"/>
</g>
<path style="fill:#9BCBD3;" d="M4,179.2v53.6C44,243.2,67.2,276,67.2,316c0,39.2-23.2,72-63.2,82.4V452c72,0,136-60.8,136-136
	C140,240,76,179.2,4,179.2z"/>
<path style="fill:#7BB1B7;" d="M109.6,315.2c0-64-41.6-118.4-105.6-132v49.6C44,243.2,67.2,276,67.2,316c0,39.2-23.2,72-63.2,82.4
	V448C68,434.4,109.6,380,109.6,315.2z"/>
<path style="fill:#6DA0A0;" d="M97.6,315.2C97.6,255.2,60,204,4,186.4v46.4C44,243.2,67.2,276,67.2,316c0,39.2-23.2,72-63.2,82.4
	v46.4C60,427.2,97.6,376,97.6,315.2z"/>
<path style="fill:#42B506;" d="M73.6,316c0,34.4,28,64,63.2,64h148.8c34.4,0,63.2-29.6,63.2-64l0,0c0-34.4-28-64-63.2-64H136.8
	C102.4,252,73.6,281.6,73.6,316L73.6,316z"/>
<path style="fill:#3D9907;" d="M73.6,316L73.6,316c0,34.4,28,64,63.2,64h148.8c34.4,0,63.2-28.8,63.2-63.2l0,0"/>
<circle style="fill:#9BCBD3;" cx="299.2" cy="316" r="20"/>
<path style="fill:#7BB1B7;" d="M299.2,296c11.2,0,20,8.8,20,20s-8.8,20-20,20"/>
<path style="fill:#6ACE09;" d="M79.2,289.6c2.4,8,4,16.8,4,26.4c0,8.8-1.6,18.4-4,26.4c9.6,21.6,32,37.6,57.6,37.6h4.8
	c9.6-24,15.2-41.6,15.2-64s-5.6-48-15.2-64h-4.8C111.2,252,89.6,267.2,79.2,289.6z"/>
<path style="fill:#68C100;" d="M79.2,289.6c2.4,8,4,16.8,4,26.4c0,8.8-1.6,18.4-4,26.4c9.6,21.6,32,37.6,57.6,37.6h4.8
	c9.6-24,15.2-41.6,15.2-64s-5.6-48-15.2-64H140"/>
<circle style="fill:#9BCBD3;" cx="17.6" cy="316" r="17.6"/>
<path style="fill:#7BB1B7;" d="M17.6,297.6c10.4,0,18.4,8,18.4,18.4c0,9.6-8,17.6-17.6,17.6"/>
<g>
	<path style="fill:#6ACE09;" d="M292,272c0,2.4-1.6,4-4,4H168c-2.4,0-4-1.6-4-4l0,0c0-2.4,1.6-4,4-4h120
		C290.4,268,292,269.6,292,272L292,272z"/>
	<circle style="fill:#6ACE09;" cx="309.6" cy="272.8" r="7.2"/>
</g>
<g>
	<circle style="fill:#568789;" cx="118.4" cy="287.2" r="5.6"/>
	<circle style="fill:#568789;" cx="118.4" cy="316" r="5.6"/>
	<circle style="fill:#568789;" cx="118.4" cy="344" r="5.6"/>
</g>
<g>
	<path style="fill:#9BCBD3;" d="M426.4,216.8c0.8,0.8,0.8,2.4,0,3.2l0,0c-0.8,0.8-2.4,0.8-3.2,0l-16.8-16.8c-0.8-0.8-0.8-2.4,0-3.2
		l0,0c0.8-0.8,2.4-0.8,3.2,0L426.4,216.8z"/>
	<path style="fill:#9BCBD3;" d="M416.8,226.4c0.8,0.8,0.8,2.4,0,3.2l0,0c-0.8,0.8-2.4,0.8-3.2,0l-16.8-16.8c-0.8-0.8-0.8-2.4,0-3.2
		l0,0c0.8-0.8,2.4-0.8,3.2,0L416.8,226.4z"/>
	<path style="fill:#9BCBD3;" d="M407.2,236c0.8,0.8,0.8,2.4,0,3.2l0,0c-0.8,0.8-2.4,0.8-3.2,0l-16.8-16.8c-0.8-0.8-0.8-2.4,0-3.2
		l0,0c0.8-0.8,2.4-0.8,3.2,0L407.2,236z"/>
</g>
<g>
</g>
<g>
</g>
<g>
</g>
<g>
</g>
<g>
</g>
<g>
</g>
<g>
</g>
<g>
</g>
<g>
</g>
<g>
</g>
<g>
</g>
<g>
</g>
<g>
</g>
<g>
</g>
<g>
</g>
</svg>
