<?xml version="1.0" encoding="iso-8859-1"?>
<!-- Generator: Adobe Illustrator 19.0.0, SVG Export Plug-In . SVG Version: 6.00 Build 0)  -->
<svg version="1.1" id="Layer_1" xmlns="http://www.w3.org/2000/svg" xmlns:xlink="http://www.w3.org/1999/xlink" x="0px" y="0px"
	 viewBox="0 0 498.4 498.4" style="enable-background:new 0 0 498.4 498.4;" xml:space="preserve">
<path style="fill:#770606;" d="M253.2,28c0,2.4-1.6,4-4,4l0,0c-2.4,0-4-1.6-4-4V4c0-2.4,1.6-4,4-4l0,0c2.4,0,4,1.6,4,4V28z"/>
<path style="fill:#CE1906;" d="M489.2,498.4c-3.2-24-27.2-48-56-48h-368c-28.8,0-52,24-56,48H489.2z"/>
<path style="fill:#770606;" d="M489.2,498.4c-3.2-28-27.2-48-56-48h-368"/>
<circle style="fill:#CE1906;" cx="182.8" cy="129.6" r="29.6"/>
<path style="fill:#770606;" d="M211.6,129.6c0,16-12.8,29.6-29.6,29.6c-16,0-29.6-12.8-29.6-29.6"/>
<path style="fill:#FF4133;" d="M174,116.8c0,0.8-0.8,1.6-1.6,1.6h-5.6c-0.8,0-1.6-0.8-1.6-1.6l0,0c0-0.8,0.8-1.6,1.6-1.6h5.6
	C173.2,115.2,174,116,174,116.8L174,116.8z"/>
<path style="fill:#00FFF2;" d="M174,141.6c0,0.8-0.8,1.6-1.6,1.6h-5.6c-0.8,0-1.6-0.8-1.6-1.6l0,0c0-0.8,0.8-1.6,1.6-1.6h5.6
	C173.2,140.8,174,140.8,174,141.6L174,141.6z"/>
<path style="fill:#FF4133;" d="M174,124c0,0.8-0.8,1.6-1.6,1.6h-5.6c-0.8,0-1.6-0.8-1.6-1.6l0,0c0-0.8,0.8-1.6,1.6-1.6h5.6
	C173.2,122.4,174,123.2,174,124L174,124z"/>
<circle style="fill:#CE1906;" cx="315.6" cy="129.6" r="29.6"/>
<path style="fill:#770606;" d="M286.8,129.6c0,16,12.8,29.6,29.6,29.6c16,0,29.6-12.8,29.6-29.6"/>
<path style="fill:#FF4133;" d="M324.4,116.8c0,0.8,0.8,1.6,1.6,1.6h5.6c0.8,0,1.6-0.8,1.6-1.6l0,0c0-0.8-0.8-1.6-1.6-1.6H326
	C325.2,115.2,324.4,116,324.4,116.8L324.4,116.8z"/>
<path style="fill:#00FFF2;" d="M324.4,141.6c0,0.8,0.8,1.6,1.6,1.6h5.6c0.8,0,1.6-0.8,1.6-1.6l0,0c0-0.8-0.8-1.6-1.6-1.6H326
	C325.2,140.8,324.4,140.8,324.4,141.6L324.4,141.6z"/>
<path style="fill:#FF4133;" d="M324.4,124c0,0.8,0.8,1.6,1.6,1.6h5.6c0.8,0,1.6-0.8,1.6-1.6l0,0c0-0.8-0.8-1.6-1.6-1.6H326
	C325.2,122.4,324.4,123.2,324.4,124L324.4,124z"/>
<path style="fill:#CE1906;" d="M321.2,440.8c0,37.6-34.4,52.8-72,52.8l0,0c-37.6,0-72-14.4-72-52.8V93.6c0-37.6,34.4-68.8,72-68.8
	l0,0c37.6,0,72,30.4,72,68.8V440.8z"/>
<path style="fill:#770606;" d="M250.8,24.8L250.8,24.8c37.6,0,70.4,30.4,70.4,68.8v347.2c0,37.6-31.2,52.8-69.6,52.8l0,0"/>
<g>
	
		<ellipse transform="matrix(-0.605 -0.7962 0.7962 -0.605 305.4274 251.1212)" style="fill:#FF4133;" cx="215.002" cy="49.802" rx="8.8" ry="25.599"/>
	<circle style="fill:#FF4133;" cx="192.4" cy="78.4" r="3.2"/>
	<circle style="fill:#FF4133;" cx="190.8" cy="89.6" r="2.4"/>
	<path style="fill:#FF4133;" d="M193.2,208.8c0,1.6-2.4,3.2-4,3.2l0,0c-1.6,0-4-1.6-4-3.2v-90.4c0-1.6,2.4-3.2,4-3.2l0,0
		c1.6,0,4,1.6,4,3.2V208.8z"/>
	<path style="fill:#FF4133;" d="M193.2,388c0,1.6-2.4,3.2-4,3.2l0,0c-1.6,0-4-1.6-4-3.2v-89.6c0-1.6,2.4-3.2,4-3.2l0,0
		c1.6,0,4,1.6,4,3.2V388z"/>
	<circle style="fill:#FF4133;" cx="249.2" cy="46.4" r="4.8"/>
</g>
<path style="fill:#770606;" d="M358.8,450.4c0,26.4-5.6,48-32,48H171.6c-26.4,0-32-21.6-32-48l0,0c0-26.4,21.6-48,48.8-48h123.2
	C337.2,402.4,358.8,424,358.8,450.4L358.8,450.4z"/>
<path style="fill:#590606;" d="M358.8,450.4L358.8,450.4c0,26.4-5.6,48-32,48H171.6c-26.4,0-32-21.6-32-48l0,0"/>
<path style="fill:#00FFF2;" d="M265.2,26.4c0,4-3.2,8-6.4,8h-19.2c-4,0-6.4-4-6.4-8l0,0c0-4,3.2-8,6.4-8h19.2
	C262.8,18.4,265.2,22.4,265.2,26.4L265.2,26.4z"/>
<path style="fill:#07E5D5;" d="M241.2,18.4h17.6c4,0,6.4,4,6.4,7.2l0,0c0,4-2.4,6.4-5.6,6.4"/>
<g>
	
		<ellipse transform="matrix(-0.5872 -0.8094 0.8094 -0.5872 -76.1367 808.9345)" style="fill:#CE1906;" cx="168.196" cy="423.881" rx="8.8" ry="19.999"/>
	<circle style="fill:#CE1906;" cx="249.2" cy="453.6" r="14.4"/>
</g>
<path style="fill:#770606;" d="M226,79.2c0,1.6-0.8,2.4-2.4,2.4h-11.2c-1.6,0-2.4-0.8-2.4-2.4l0,0c0-1.6,0.8-2.4,2.4-2.4h11.2
	C224.4,76,226,77.6,226,79.2L226,79.2z"/>
<path style="fill:#CE1906;" d="M289.2,79.2c0,1.6-0.8,2.4-2.4,2.4h-11.2c-1.6,0-2.4-0.8-2.4-2.4l0,0c0-1.6,0.8-2.4,2.4-2.4h11.2
	C288.4,76,289.2,77.6,289.2,79.2L289.2,79.2z"/>
<path style="fill:#00FFF2;" d="M297.2,123.2c0,12.8-10.4,23.2-23.2,23.2h-50.4c-12.8,0-23.2-10.4-23.2-23.2v-2.4
	c0-12.8,10.4-23.2,23.2-23.2H274c12.8,0,23.2,10.4,23.2,23.2V123.2z"/>
<path style="fill:#07E5D5;" d="M296.4,124L296.4,124c0,12.8-10.4,22.4-23.2,22.4h-48c-12.8,0-23.2-9.6-23.2-22.4l0,0"/>
<path style="fill:#C3D8D7;" d="M306.8,250.4c0,17.6-6.4,32-23.2,32h-68.8c-17.6,0-23.2-14.4-23.2-32l0,0c0-17.6,14.4-32,32-32h52.8
	C293.2,218.4,306.8,232.8,306.8,250.4L306.8,250.4z"/>
<path style="fill:#770606;" d="M306.8,254.4c0,15.2-6.4,44-23.2,44h-68.8c-17.6,0-23.2-28-23.2-44l0,0c0-16,14.4-28,32-28h52.8
	C293.2,226.4,306.8,239.2,306.8,254.4L306.8,254.4z"/>
<path style="fill:#EDF9F9;" d="M306.8,254.4c0,15.2-6.4,28-23.2,28h-68.8c-17.6,0-23.2-12.8-23.2-28l0,0c0-16,14.4-28,32-28h52.8
	C293.2,226.4,306.8,238.4,306.8,254.4L306.8,254.4z"/>
<circle style="fill:#10998C;" cx="223.6" cy="125.6" r="6.4"/>
<circle style="fill:#D7F4EF;" cx="222" cy="122.4" r="2.4"/>
<circle style="fill:#10998C;" cx="274.8" cy="125.6" r="6.4"/>
<circle style="fill:#D7F4EF;" cx="272.4" cy="122.4" r="2.4"/>
<path style="fill:#C3D8D7;" d="M297.2,250.4c0,0-1.6,0-3.2,0h-89.6c-1.6,0-3.2,0-3.2,0l0,0c0,0,1.6,0,3.2,0H294
	C295.6,250.4,297.2,250.4,297.2,250.4L297.2,250.4z"/>
<g>
</g>
<g>
</g>
<g>
</g>
<g>
</g>
<g>
</g>
<g>
</g>
<g>
</g>
<g>
</g>
<g>
</g>
<g>
</g>
<g>
</g>
<g>
</g>
<g>
</g>
<g>
</g>
<g>
</g>
</svg>
