<?xml version="1.0" encoding="iso-8859-1"?>
<!-- Generator: Adobe Illustrator 19.0.0, SVG Export Plug-In . SVG Version: 6.00 Build 0)  -->
<svg version="1.1" id="Layer_1" xmlns="http://www.w3.org/2000/svg" xmlns:xlink="http://www.w3.org/1999/xlink" x="0px" y="0px"
	 viewBox="0 0 496 496" style="enable-background:new 0 0 496 496;" xml:space="preserve">
<path style="fill:#CE1906;" d="M464,496c-8.8-112-102.4-196.8-216-196.8S40.8,384,32,496H464z"/>
<path style="fill:#AF1105;" d="M464,496c-8.8-112-102.4-167.2-216-167.2S40.8,384,32,496H464z"/>
<path style="fill:#CE1906;" d="M375.2,341.6c-36-25.6-80-40.8-127.2-40.8c-48,0-91.2,15.2-127.2,40.8C143.2,390.4,192,424,248,424
	S352.8,390.4,375.2,341.6z"/>
<g>
	<path style="fill:#FF4133;" d="M104,461.6c0,8-8,14.4-16,14.4l0,0c-8,0-16-6.4-16-14.4v-28.8c0-8,8-14.4,16-14.4l0,0
		c8,0,16,6.4,16,14.4V461.6z"/>
	<path style="fill:#FF4133;" d="M424,461.6c0,8-8,14.4-16,14.4l0,0c-8,0-16-6.4-16-14.4v-28.8c0-8,8-14.4,16-14.4l0,0
		c8,0,16,6.4,16,14.4V461.6z"/>
</g>
<path style="fill:#00233F;" d="M280,319.2c0,16.8-15.2,30.4-32,30.4l0,0c-16.8,0-32-13.6-32-30.4v-60.8c0-16.8,15.2-29.6,32-29.6
	l0,0c16.8,0,32,13.6,32,29.6V319.2z"/>
<ellipse style="fill:#FF4133;" cx="248" cy="147.2" rx="234.4" ry="136"/>
<path style="fill:#CE1906;" d="M482.4,147.2c0,75.2-104.8,136-234.4,136s-234.4-60.8-234.4-136"/>
<path style="fill:#AF1105;" d="M248,228c-85.6,0-162.4-12-218.4-32c33.6,51.2,119.2,87.2,218.4,87.2s184.8-36,218.4-87.2
	C410.4,216,333.6,228,248,228z"/>
<path style="opacity:0.3;fill:#727272;enable-background:new    ;" d="M195.2,64.8c0,15.2-12.8,36-28,36s-28-20.8-28-36
	s12.8-28,28-28S195.2,48.8,195.2,64.8z"/>
<circle style="fill:#023954;" cx="167.2" cy="64.8" r="28"/>
<path style="fill:#00233F;" d="M167.2,36.8c15.2,0,28,12.8,28,28s-12.8,28-28,28"/>
<circle style="fill:#C5EFFF;" cx="160.8" cy="52.8" r="8"/>
<circle style="fill:#087CA0;" cx="177.6" cy="74.4" r="4"/>
<path style="fill:#00233F;" d="M192,4c0,2.4-1.6,4-4,4h-40c-2.4,0-4-1.6-4-4l0,0c0-2.4,1.6-4,4-4h40C190.4,0,192,1.6,192,4L192,4z"
	/>
<path style="opacity:0.3;fill:#727272;enable-background:new    ;" d="M356,64.8c0,15.2-12.8,36-28,36s-28-20.8-28-36s12.8-28,28-28
	S356,48.8,356,64.8z"/>
<circle style="fill:#023954;" cx="328" cy="64.8" r="28"/>
<path style="fill:#00233F;" d="M328,36.8c15.2,0,28,12.8,28,28s-12.8,28-28,28"/>
<circle style="fill:#C5EFFF;" cx="320.8" cy="52.8" r="8"/>
<circle style="fill:#087CA0;" cx="337.6" cy="74.4" r="4"/>
<path style="fill:#00233F;" d="M352,4c0,2.4-1.6,4-4,4h-40c-2.4,0-4-1.6-4-4l0,0c0-2.4,1.6-4,4-4h40C350.4,0,352,1.6,352,4L352,4z"
	/>
<g>
	<path style="opacity:0.3;fill:#727272;enable-background:new    ;" d="M288,171.2c0,10.4-4.8,20.8-15.2,20.8h-42.4
		c-10.4,0-22.4-10.4-22.4-20.8V120c0-10.4,12-16,22.4-16h42.4c10.4,0,15.2,5.6,15.2,16V171.2z"/>
	<path style="opacity:0.3;fill:#727272;enable-background:new    ;" d="M288,151.2c0,10.4-4.8,16.8-15.2,16.8h-42.4
		c-10.4,0-22.4-6.4-22.4-16.8V100c0-10.4,12-20,22.4-20h34.4c10.4,0,23.2,9.6,23.2,20V151.2z"/>
</g>
<path style="fill:#00FFF2;" d="M288,160.8c0,10.4-12.8,15.2-23.2,15.2h-34.4c-10.4,0-22.4-4.8-22.4-15.2v-51.2
	c0-10.4,12-21.6,22.4-21.6h34.4c10.4,0,23.2,11.2,23.2,21.6V160.8z"/>
<path style="fill:#00A09C;" d="M208,160v-50.4c0-10.4,12-21.6,22.4-21.6h34.4c10.4,0,23.2,11.2,23.2,21.6V160"/>
<path style="fill:#006D7C;" d="M208,109.6c0-10.4,12-21.6,22.4-21.6h34.4c10.4,0,23.2,11.2,23.2,21.6"/>
<rect x="242.174" y="25.341" transform="matrix(-0.7071 0.7071 -0.7071 -0.7071 445.8201 -121.9833)" style="fill:#00FFF2;" width="12" height="12"/>
<polyline style="fill:#00A09C;" points="248,23.2 256.8,32 248,40 "/>
<rect x="242.415" y="41.262" transform="matrix(-0.7071 0.7071 -0.7071 -0.7071 457.4908 -94.9742)" style="fill:#00FFF2;" width="12" height="12"/>
<polyline style="fill:#00A09C;" points="248,39.2 256.8,47.2 248,56 "/>
<rect x="242.091" y="56.602" transform="matrix(-0.7071 0.7071 -0.7071 -0.7071 467.7845 -68.5582)" style="fill:#00FFF2;" width="12" height="12"/>
<polyline style="fill:#00A09C;" points="248,54.4 256.8,63.2 248,71.2 "/>
<path style="fill:#00FFF2;" d="M256,474.4c0,3.2-4.8,5.6-8,5.6l0,0c-3.2,0-8-2.4-8-5.6V376c0-3.2,4.8-5.6,8-5.6l0,0
	c3.2,0,8,2.4,8,5.6V474.4z"/>
<g>
	<circle style="fill:#075877;" cx="227.2" cy="300" r="3.2"/>
	<circle style="fill:#075877;" cx="240.8" cy="300" r="3.2"/>
	<circle style="fill:#075877;" cx="254.4" cy="300" r="3.2"/>
	<circle style="fill:#075877;" cx="268" cy="300" r="3.2"/>
	<circle style="fill:#075877;" cx="227.2" cy="311.2" r="3.2"/>
	<circle style="fill:#075877;" cx="240.8" cy="311.2" r="3.2"/>
	<circle style="fill:#075877;" cx="254.4" cy="311.2" r="3.2"/>
	<circle style="fill:#075877;" cx="268" cy="311.2" r="3.2"/>
	<circle style="fill:#075877;" cx="227.2" cy="323.2" r="3.2"/>
	<circle style="fill:#075877;" cx="240.8" cy="323.2" r="3.2"/>
	<circle style="fill:#075877;" cx="254.4" cy="323.2" r="3.2"/>
	<circle style="fill:#075877;" cx="268" cy="323.2" r="3.2"/>
</g>
<circle style="fill:#0BB5A8;" cx="331.2" cy="416.8" r="32"/>
<path style="fill:#00A09C;" d="M363.2,416.8c0,17.6-14.4,32-32,32s-32-14.4-32-32"/>
<circle style="fill:#0BB5A8;" cx="164.8" cy="416.8" r="32"/>
<path style="fill:#00A09C;" d="M196.8,416.8c0,17.6-14.4,32-32,32s-32-14.4-32-32"/>
<g>
</g>
<g>
</g>
<g>
</g>
<g>
</g>
<g>
</g>
<g>
</g>
<g>
</g>
<g>
</g>
<g>
</g>
<g>
</g>
<g>
</g>
<g>
</g>
<g>
</g>
<g>
</g>
<g>
</g>
</svg>
