<?xml version="1.0" encoding="iso-8859-1"?>
<!-- Generator: Adobe Illustrator 19.0.0, SVG Export Plug-In . SVG Version: 6.00 Build 0)  -->
<svg version="1.1" id="Layer_1" xmlns="http://www.w3.org/2000/svg" xmlns:xlink="http://www.w3.org/1999/xlink" x="0px" y="0px"
	 viewBox="0 0 488 488" style="enable-background:new 0 0 488 488;" xml:space="preserve">
<circle style="fill:#004472;" cx="244" cy="244" r="244"/>
<g>
	<path style="fill:#00233F;" d="M52.8,92.8C52.8,92.8,53.6,92.8,52.8,92.8C28,124,10.4,161.6,4,203.2l152,8.8l49.6-1.6l-0.8-13.6
		C205.6,197.6-12.8,200.8,52.8,92.8z"/>
	<path style="fill:#00233F;" d="M244,0c134.4,0,244,108.8,244,244c0,134.4-108.8,244-244,244"/>
</g>
<path style="fill:#004472;" d="M435.2,92.8C434.4,92.8,434.4,92.8,435.2,92.8C460,124,477.6,161.6,484,203.2L331.2,212l-49.6-1.6
	l0.8-13.6C282.4,197.6,500.8,200.8,435.2,92.8z"/>
<g>
	<path style="fill:#00FFF2;" d="M450.4,199.2c-43.2,2.4-119.2,4-206.4,4s-163.2-1.6-206.4-4C13.6,200.8,0,202.4,0,204
		c0,4.8,108.8,8.8,244,8.8s244-4,244-8.8C488,202.4,473.6,200.8,450.4,199.2z"/>
	<path style="fill:#00FFF2;" d="M450.4,253.6c-43.2,2.4-119.2,4-206.4,4s-163.2-1.6-206.4-4c-24,1.6-37.6,3.2-37.6,4.8
		c0,4.8,108.8,8.8,244,8.8s244-4,244-8.8C488,256,473.6,254.4,450.4,253.6z"/>
	<path style="fill:#00FFF2;" d="M132,28v108c0,23.2,16.8,41.6,40,41.6s40-19.2,40-41.6V2.4C188,5.6,156,14.4,132,28z"/>
</g>
<path style="fill:#08C4B2;" d="M132,135.2c0,23.2,16.8,41.6,40,41.6s40-19.2,40-41.6V4"/>
<path style="fill:#00FFF2;" d="M276,2.4V136c0,23.2,16.8,41.6,40,41.6s40-19.2,40-41.6V28C332,14.4,300,5.6,276,2.4z"/>
<path style="fill:#08C4B2;" d="M276,4v131.2c0,23.2,16.8,41.6,40,41.6s40-19.2,40-41.6"/>
<g>
	<path style="fill:#00233F;" d="M198.4,130.4c0,5.6-3.2,9.6-6.4,9.6h-41.6c-4,0-6.4-4-6.4-9.6l0,0c0-5.6,3.2-21.6,6.4-21.6l41.6,12
		C195.2,120,198.4,124.8,198.4,130.4L198.4,130.4z"/>
	<path style="fill:#00233F;" d="M289.6,130.4c0,5.6,3.2,9.6,6.4,9.6h41.6c4,0,6.4-4,6.4-9.6l0,0c0-5.6-3.2-21.6-6.4-21.6l-41.6,12
		C292.8,120,289.6,124.8,289.6,130.4L289.6,130.4z"/>
</g>
<path style="fill:#004472;" d="M284,236c0,22.4-17.6,40-40,40l0,0c-22.4,0-40-17.6-40-40v-88c0-22.4,17.6-40,40-40l0,0
	c22.4,0,40,17.6,40,40V236z"/>
<path style="fill:#00233F;" d="M244,108L244,108c22.4,0,40,17.6,40,40v87.2c0,22.4-17.6,40-40,40l0,0"/>
<g>
	<circle style="fill:#00FFF2;" cx="65.6" cy="232" r="4.8"/>
	<circle style="fill:#00FFF2;" cx="101.6" cy="232" r="4.8"/>
	<circle style="fill:#00FFF2;" cx="137.6" cy="232" r="4.8"/>
	<circle style="fill:#00FFF2;" cx="350.4" cy="232" r="4.8"/>
	<circle style="fill:#00FFF2;" cx="386.4" cy="232" r="4.8"/>
	<circle style="fill:#00FFF2;" cx="422.4" cy="232" r="4.8"/>
</g>
<path style="fill:#FFFFFF;" d="M292,210.4c0,9.6-8,17.6-17.6,17.6h-60c-10.4,0-18.4-8-18.4-17.6v-4c0-9.6,8-17.6,17.6-17.6h60
	c9.6,0,17.6,8,17.6,17.6v4H292z"/>
<path style="fill:#F9F29B;" d="M292,210.4L292,210.4c0,9.6-8,17.6-17.6,17.6h-60c-10.4,0-18.4-8-18.4-17.6l0,0"/>
<circle style="fill:#FFFFFF;" cx="244" cy="249.6" r="6.4"/>
<path style="fill:#0A6293;" d="M240,460c-106.4,0-192-86.4-192-192"/>
<path style="fill:#004472;" d="M248,460c106.4,0,192-86.4,192-192"/>
<g>
</g>
<g>
</g>
<g>
</g>
<g>
</g>
<g>
</g>
<g>
</g>
<g>
</g>
<g>
</g>
<g>
</g>
<g>
</g>
<g>
</g>
<g>
</g>
<g>
</g>
<g>
</g>
<g>
</g>
</svg>
