<?xml version="1.0" encoding="iso-8859-1"?>
<!-- Generator: Adobe Illustrator 19.0.0, SVG Export Plug-In . SVG Version: 6.00 Build 0)  -->
<svg version="1.1" id="Layer_1" xmlns="http://www.w3.org/2000/svg" xmlns:xlink="http://www.w3.org/1999/xlink" x="0px" y="0px"
	 viewBox="0 0 499.2 499.2" style="enable-background:new 0 0 499.2 499.2;" xml:space="preserve">
<path style="fill:#7D50A0;" d="M289.6,404.8c0,24-16,42.4-40,42.4l0,0c-24,0-40-19.2-40-42.4v-82.4c0-24,16-42.4,40-42.4l0,0
	c24,0,40,19.2,40,42.4V404.8z"/>
<path style="fill:#603C82;" d="M250.4,280.8L250.4,280.8c24,0,39.2,18.4,39.2,41.6V404c0,24-16,46.4-40,46.4l0,0"/>
<polygon style="fill:#EDA006;" points="277.6,138.4 249.6,144.8 221.6,138.4 249.6,34.4 "/>
<polyline style="fill:#EA7307;" points="249.6,34.4 277.6,138.4 249.6,144.8 "/>
<path style="fill:#29A0E2;" d="M305.6,139.2c0,4.8-3.2,8-8,8h-96c-4.8,0-8-3.2-8-8l0,0c0-4.8,3.2-8,8-8h96
	C302.4,131.2,305.6,134.4,305.6,139.2L305.6,139.2z"/>
<path style="fill:#0D7DC9;" d="M305.6,139.2L305.6,139.2c0,5.6-4,8-9.6,8h-92.8c-5.6,0-9.6-2.4-9.6-8l0,0"/>
<path style="fill:#29A0E2;" d="M305.6,171.2c0,4.8-3.2,8-8,8h-96c-4.8,0-8-3.2-8-8l0,0c0-4.8,3.2-8,8-8h96
	C302.4,163.2,305.6,166.4,305.6,171.2L305.6,171.2z"/>
<path style="fill:#0D7DC9;" d="M305.6,171.2L305.6,171.2c0,5.6-4,8-9.6,8h-92.8c-5.6,0-9.6-2.4-9.6-8l0,0"/>
<path style="fill:#29A0E2;" d="M305.6,155.2c0,4.8-3.2,8-8,8h-96c-4.8,0-8-3.2-8-8l0,0c0-4.8,3.2-8,8-8h96
	C302.4,147.2,305.6,150.4,305.6,155.2L305.6,155.2z"/>
<path style="fill:#0D7DC9;" d="M305.6,155.2L305.6,155.2c0,5.6-4,8-9.6,8h-92.8c-5.6,0-9.6-2.4-9.6-8l0,0"/>
<path style="fill:#A87CC4;" d="M25.6,195.2c11.2,40,107.2,76.8,224,76.8s212.8-36.8,224-76.8L25.6,195.2L25.6,195.2z"/>
<path style="fill:#7D50A0;" d="M249.6,272c116.8,0,212.8-36.8,224-76.8h-448"/>
<circle style="fill:#EDA006;" cx="249.6" cy="269.6" r="30.4"/>
<path style="fill:#EA7307;" d="M249.6,239.2c16.8,0,30.4,13.6,30.4,30.4S266.4,300,249.6,300"/>
<circle style="fill:#EDA006;" cx="249.6" cy="269.6" r="15.2"/>
<path style="fill:#EA7307;" d="M234.4,269.6c0-8.8,7.2-15.2,15.2-15.2s15.2,7.2,15.2,15.2"/>
<circle style="fill:#EDA006;" cx="249.6" cy="15.2" r="15.2"/>
<path style="fill:#EA7307;" d="M238.4,4.8c5.6-5.6,16-5.6,21.6,0s5.6,16,0,21.6"/>
<path style="fill:#29A0E2;" d="M473.6,499.2v-2.4c0-45.6-40-85.6-85.6-85.6H111.2c-45.6,0-85.6,40-85.6,85.6v2.4H473.6z"/>
<path style="fill:#0D7DC9;" d="M40,451.2c-9.6,14.4-14.4,30.4-14.4,45.6v2.4h448v-2.4c0-15.2-3.2-28.8-14.4-45.6H40z"/>
<g>
	<path style="fill:#9FE2FF;" d="M137.6,474.4c0,0.8-3.2,1.6-4,1.6l0,0c-0.8,0-4-0.8-4-1.6V448c0-0.8,3.2-1.6,4-1.6l0,0
		c0.8,0,4,0.8,4,1.6V474.4z"/>
	<path style="fill:#9FE2FF;" d="M153.6,474.4c0,0.8-3.2,1.6-4,1.6l0,0c-0.8,0-4-0.8-4-1.6V448c0-0.8,3.2-1.6,4-1.6l0,0
		c0.8,0,4,0.8,4,1.6V474.4z"/>
	<path style="fill:#9FE2FF;" d="M121.6,474.4c0,0.8-3.2,1.6-4,1.6l0,0c-0.8,0-4-0.8-4-1.6V448c0-0.8,3.2-1.6,4-1.6l0,0
		c0.8,0,4,0.8,4,1.6V474.4z"/>
	<path style="fill:#9FE2FF;" d="M105.6,474.4c0,0.8-3.2,1.6-4,1.6l0,0c-0.8,0-4-0.8-4-1.6V448c0-0.8,3.2-1.6,4-1.6l0,0
		c0.8,0,4,0.8,4,1.6V474.4z"/>
</g>
<path style="fill:#0464A5;" d="M322.4,481.6c0-20,16-36,36-36s36,16,36,36"/>
<path style="fill:#EAEAEA;" d="M322.4,476c0-20,16-36,36-36s36,16,36,36"/>
<circle style="fill:#EDA006;" cx="357.6" cy="474.4" r="6.4"/>
<path style="fill:#76D5FF;" d="M97.6,422.4L97.6,422.4c0-1.6,1.6-3.2,3.2-3.2h297.6c1.6,0,3.2,1.6,3.2,3.2l0,0"/>
<path style="fill:#0464A5;" d="M360,460.8c0,0.8-0.8,1.6-1.6,1.6l0,0c-0.8,0-1.6-0.8-1.6-1.6v-13.6c0-0.8,0.8-1.6,1.6-1.6l0,0
	c0.8,0,1.6,0.8,1.6,1.6V460.8z"/>
<g>
</g>
<g>
</g>
<g>
</g>
<g>
</g>
<g>
</g>
<g>
</g>
<g>
</g>
<g>
</g>
<g>
</g>
<g>
</g>
<g>
</g>
<g>
</g>
<g>
</g>
<g>
</g>
<g>
</g>
</svg>
