<?xml version="1.0" encoding="iso-8859-1"?>
<!-- Generator: Adobe Illustrator 19.0.0, SVG Export Plug-In . SVG Version: 6.00 Build 0)  -->
<svg version="1.1" id="Capa_1" xmlns="http://www.w3.org/2000/svg" xmlns:xlink="http://www.w3.org/1999/xlink" x="0px" y="0px"
	 viewBox="0 0 512 512" style="enable-background:new 0 0 512 512;" xml:space="preserve">
<rect x="78.909" y="101.72" style="fill:#DDAF89;" width="354.18" height="349.28"/>
<g style="opacity:0.1;">
	<rect x="78.909" y="295.16" width="354.18" height="15"/>
	<rect x="78.909" y="383.92" width="354.18" height="15"/>
</g>
<path style="fill:#FFFFFF;" d="M172.084,354.49h-52.157c-4.176,0-7.562-3.385-7.562-7.562v-35.312
	c0-11.519,9.338-20.857,20.857-20.857h25.567c11.519,0,20.857,9.338,20.857,20.857v35.312
	C179.646,351.104,176.26,354.49,172.084,354.49z"/>
<rect x="112.37" y="314.49" style="opacity:0.1;enable-background:new    ;" width="67.28" height="15"/>
<path style="fill:#FFFFFF;" d="M339.916,354.49h52.157c4.176,0,7.562-3.385,7.562-7.562v-35.312
	c0-11.519-9.338-20.857-20.857-20.857h-25.566c-11.519,0-20.857,9.338-20.857,20.857v35.312
	C332.354,351.104,335.74,354.49,339.916,354.49z"/>
<rect x="332.36" y="314.49" style="opacity:0.1;enable-background:new    ;" width="67.28" height="15"/>
<path style="fill:#FFFFFF;" d="M172.084,199.457h-52.157c-4.176,0-7.562-3.385-7.562-7.562v-35.312
	c0-11.519,9.338-20.857,20.857-20.857h25.567c11.519,0,20.857,9.338,20.857,20.857v35.312
	C179.646,196.071,176.26,199.457,172.084,199.457z"/>
<rect x="112.37" y="159.46" style="opacity:0.1;enable-background:new    ;" width="67.28" height="15"/>
<path style="fill:#FFFFFF;" d="M282.078,199.457h-52.157c-4.176,0-7.562-3.385-7.562-7.562v-35.312
	c0-11.519,9.338-20.857,20.857-20.857h25.566c11.519,0,20.857,9.338,20.857,20.857v35.312
	C289.64,196.071,286.255,199.457,282.078,199.457z"/>
<rect x="222.36" y="159.46" style="opacity:0.1;enable-background:new    ;" width="67.28" height="15"/>
<path style="fill:#FFFFFF;" d="M339.916,199.457h52.157c4.176,0,7.562-3.385,7.562-7.562v-35.312
	c0-11.519-9.338-20.857-20.857-20.857h-25.566c-11.519,0-20.857,9.338-20.857,20.857v35.312
	C332.354,196.071,335.74,199.457,339.916,199.457z"/>
<rect x="332.36" y="159.46" style="opacity:0.1;enable-background:new    ;" width="67.28" height="15"/>
<path style="opacity:0.1;enable-background:new    ;" d="M138.941,101.72H78.909v349.284h128.256
	C140.942,376.639,137.48,189.016,138.941,101.72z"/>
<g style="opacity:0.1;">
	<circle cx="410.33" cy="120.33" r="7.524"/>
	<circle cx="99.89" cy="134.2" r="7.524"/>
	<circle cx="191.79" cy="210.09" r="7.524"/>
	<circle cx="313.9" cy="333.8" r="7.524"/>
	<circle cx="182.66" cy="426.65" r="7.524"/>
</g>
<g>
	<path style="fill:#A28577;" d="M444.239,233.291H67.761c-5.736,0-10.386,4.65-10.386,10.386v8.995
		c0,5.736,4.65,10.386,10.386,10.386H444.24c5.736,0,10.386-4.65,10.386-10.386v-8.995
		C454.625,237.941,449.975,233.291,444.239,233.291z"/>
	<path style="fill:#A28577;" d="M444.239,71.954H67.761c-5.736,0-10.386,4.65-10.386,10.386v8.995
		c0,5.736,4.65,10.386,10.386,10.386H444.24c5.736,0,10.386-4.65,10.386-10.386V82.34C454.625,76.604,449.975,71.954,444.239,71.954
		z"/>
</g>
<path style="opacity:0.1;enable-background:new    ;" d="M67.761,71.954c-5.736,0-10.386,4.65-10.386,10.386v8.995
	c0,5.736,4.65,10.386,10.386,10.386h120.476c-19.968-6.699-22.931-20.179-16.874-29.767C171.363,71.954,67.761,71.954,67.761,71.954
	z"/>
<g>
	<path style="fill:#A28577;" d="M78.909,458.504c-4.142,0-7.5-3.357-7.5-7.5v-44.705c0-4.142,3.358-7.5,7.5-7.5s7.5,3.358,7.5,7.5
		v44.705C86.409,455.147,83.051,458.504,78.909,458.504z"/>
	<path style="fill:#A28577;" d="M116.419,458.504c-4.142,0-7.5-3.357-7.5-7.5v-44.705c0-4.142,3.358-7.5,7.5-7.5s7.5,3.358,7.5,7.5
		v44.705C123.919,455.147,120.561,458.504,116.419,458.504z"/>
	<path style="fill:#A28577;" d="M153.929,458.504c-4.142,0-7.5-3.357-7.5-7.5v-44.705c0-4.142,3.358-7.5,7.5-7.5s7.5,3.358,7.5,7.5
		v44.705C161.429,455.147,158.071,458.504,153.929,458.504z"/>
	<path style="fill:#A28577;" d="M169.414,376.532H73.462c-5.651,0-10.232,4.581-10.232,10.232v9.303
		c0,5.651,4.581,10.232,10.232,10.232h95.952c5.651,0,10.232-4.581,10.232-10.232v-9.303
		C179.646,381.113,175.065,376.532,169.414,376.532z"/>
</g>
<path style="opacity:0.1;enable-background:new    ;" d="M73.462,376.532c-5.651,0-10.232,4.581-10.232,10.232v9.303
	c0,5.651,4.581,10.231,10.232,10.231h68.414c-13.444-9.293-15.38-23.477-8.894-29.767h-59.52V376.532z"/>
<g>
	<path style="fill:#A28577;" d="M433.091,458.504c-4.143,0-7.5-3.357-7.5-7.5v-44.705c0-4.142,3.357-7.5,7.5-7.5s7.5,3.358,7.5,7.5
		v44.705C440.591,455.147,437.233,458.504,433.091,458.504z"/>
	<path style="fill:#A28577;" d="M395.581,458.504c-4.143,0-7.5-3.357-7.5-7.5v-44.705c0-4.142,3.357-7.5,7.5-7.5
		c4.142,0,7.5,3.358,7.5,7.5v44.705C403.081,455.147,399.724,458.504,395.581,458.504z"/>
	<path style="fill:#A28577;" d="M358.071,458.504c-4.143,0-7.5-3.357-7.5-7.5v-44.705c0-4.142,3.357-7.5,7.5-7.5s7.5,3.358,7.5,7.5
		v44.705C365.571,455.147,362.214,458.504,358.071,458.504z"/>
	<path style="fill:#A28577;" d="M342.586,376.532h95.952c5.651,0,10.232,4.581,10.232,10.232v9.303
		c0,5.651-4.581,10.232-10.232,10.232h-95.952c-5.651,0-10.232-4.581-10.232-10.232v-9.303
		C332.354,381.113,336.935,376.532,342.586,376.532z"/>
</g>
<path style="fill:#495059;" d="M285.121,337.964L285.121,337.964c-19.012-5.586-39.229-5.586-58.241,0l0,0
	c-6.119,1.798-10.322,7.413-10.322,13.79v99.25h78.884v-99.25C295.442,345.376,291.24,339.761,285.121,337.964z"/>
<rect x="216.56" y="371.91" style="fill:#A28577;" width="78.884" height="50.45"/>
<rect x="248.5" y="371.91" style="opacity:0.1;enable-background:new    ;" width="15" height="50.45"/>
<path style="fill:#A28577;" d="M461.525,512H50.475c-5.7,0-10.321-4.621-10.321-10.321v-40.354c0-5.7,4.621-10.321,10.321-10.321
	h411.05c5.7,0,10.321,4.621,10.321,10.321v40.354C471.846,507.379,467.225,512,461.525,512z"/>
<path style="opacity:0.15;enable-background:new    ;" d="M312.207,481.502H199.793v-21.498c0-4.971,4.03-9,9.001-9h94.412
	c4.971,0,9,4.03,9,9v21.498H312.207z"/>
<path style="opacity:0.1;enable-background:new    ;" d="M329.337,512H182.663v-21.497c0-4.971,4.03-9,9.001-9h128.674
	c4.971,0,9,4.03,9,9V512H329.337z"/>
<path style="fill:#DC7070;" d="M335.979,71.954H167.523V19.36c0-10.692,8.668-19.36,19.36-19.36h129.736
	c10.692,0,19.36,8.668,19.36,19.36V71.954z"/>
<path style="opacity:0.1;enable-background:new    ;" d="M215.096,0h-28.213c-10.692,0-19.36,8.668-19.36,19.36v52.593h63.015
	C215.29,50.682,213.983,20.727,215.096,0z"/>
<path style="opacity:0.1;enable-background:new    ;" d="M288.212,43.477H215.29c-4.142,0-7.5-3.358-7.5-7.5
	c0-4.143,3.358-7.5,7.5-7.5h72.922c4.143,0,7.5,3.357,7.5,7.5C295.712,40.119,292.354,43.477,288.212,43.477z"/>
<path style="opacity:0.1;enable-background:new    ;" d="M67.761,233.291c-5.736,0-10.386,4.65-10.386,10.386v8.995
	c0,5.736,4.65,10.386,10.386,10.386h120.476c-19.968-6.699-22.931-20.179-16.874-29.767L67.761,233.291L67.761,233.291z"/>
<g>
</g>
<g>
</g>
<g>
</g>
<g>
</g>
<g>
</g>
<g>
</g>
<g>
</g>
<g>
</g>
<g>
</g>
<g>
</g>
<g>
</g>
<g>
</g>
<g>
</g>
<g>
</g>
<g>
</g>
</svg>
