<?xml version="1.0" encoding="iso-8859-1"?>
<!-- Generator: Adobe Illustrator 19.0.0, SVG Export Plug-In . SVG Version: 6.00 Build 0)  -->
<svg version="1.1" id="Capa_1" xmlns="http://www.w3.org/2000/svg" xmlns:xlink="http://www.w3.org/1999/xlink" x="0px" y="0px"
	 viewBox="0 0 512 512" style="enable-background:new 0 0 512 512;" xml:space="preserve">
<path style="fill:#DFE3E5;" d="M38.432,116.032L38.432,116.032c9.032-14.301,24.346-23.435,41.222-24.586l22.54-1.537
	c10.445-0.712,20.454-4.459,28.798-10.781l0,0c14.245-10.792,31.627-16.633,49.499-16.633h29.804
	c14.985,0,29.289,6.256,39.463,17.258l0,0c9.705,10.496,23.191,16.693,37.476,17.222l11.858,0.439
	c13.387,0.495,25.729,7.368,33.2,18.487l0,0c2.455,3.654-0.163,8.568-4.566,8.568H43.082
	C38.75,124.469,36.119,119.694,38.432,116.032z"/>
<path style="fill:#A28577;" d="M442.67,334.04V110.128c0-13.507-10.949-24.456-24.456-24.456H263.322
	c-13.507,0-24.456,10.949-24.456,24.456v28.187c0,10.312-8.36,18.672-18.672,18.672H185.28c-14.916,0-27.008,12.092-27.008,27.008
	v202.456H463.86l-9.04-13.191C446.905,361.712,442.67,348.04,442.67,334.04z"/>
<path style="opacity:0.1;enable-background:new    ;" d="M442.67,334.04V110.128c0-13.507-10.949-24.456-24.456-24.456H263.322
	c-13.507,0-24.456,10.949-24.456,24.456v28.187c0,10.312-8.36,18.672-18.672,18.672H185.28c-14.916,0-27.008,12.092-27.008,27.008
	v202.456H463.86l-9.04-13.191C446.905,361.712,442.67,348.04,442.67,334.04z"/>
<path style="opacity:0.05;enable-background:new    ;" d="M271.951,85.671h-8.628c-13.507,0-24.456,10.949-24.456,24.456v28.187
	c0,10.313-8.36,18.672-18.672,18.672H185.28c-14.916,0-27.008,12.092-27.008,27.008V386.45h156.045
	C277.924,300.435,272.585,145.899,271.951,85.671z"/>
<g style="opacity:0.1;">
	<path d="M373.071,200.28c-4.142,0-7.5-3.357-7.5-7.5v-37.71c0-4.143,3.358-7.5,7.5-7.5s7.5,3.357,7.5,7.5v37.71
		C380.571,196.923,377.213,200.28,373.071,200.28z"/>
	<path d="M341.641,297.057c-4.142,0-7.5-3.357-7.5-7.5v-31.364c0-4.143,3.358-7.5,7.5-7.5s7.5,3.357,7.5,7.5v31.364
		C349.141,293.699,345.783,297.057,341.641,297.057z"/>
	<path d="M253.007,231.002c-4.142,0-7.5-3.357-7.5-7.5V197.99c0-4.143,3.358-7.5,7.5-7.5c4.142,0,7.5,3.357,7.5,7.5v25.512
		C260.507,227.645,257.149,231.002,253.007,231.002z"/>
	<path d="M419.816,393.952c-2.391,0-4.74-1.141-6.193-3.261l-9.04-13.19c-8.808-12.852-13.463-27.88-13.463-43.461v-52.893
		c0-4.143,3.358-7.5,7.5-7.5s7.5,3.357,7.5,7.5v52.893c0,12.541,3.747,24.637,10.836,34.98l9.04,13.19
		c2.342,3.417,1.47,8.085-1.947,10.427C422.753,393.526,421.277,393.952,419.816,393.952z"/>
	<path d="M294.781,145.078c-4.142,0-7.5-3.357-7.5-7.5v-17.117c0-4.143,3.358-7.5,7.5-7.5s7.5,3.357,7.5,7.5v17.117
		C302.281,141.721,298.923,145.078,294.781,145.078z"/>
</g>
<path style="fill:#A28577;" d="M284.508,212.865H107.741c-11.719,0-21.219,9.5-21.219,21.219v99.956c0,14-4.235,27.672-12.15,39.221
	l-9.04,13.19h261.585l-9.04-13.19c-7.914-11.548-12.15-25.221-12.15-39.221v-99.956
	C305.727,222.365,296.227,212.865,284.508,212.865z"/>
<g>
	<ellipse style="fill:#F2937E;" cx="144.32" cy="271.26" rx="19.11" ry="15.222"/>
	<ellipse style="fill:#F2937E;" cx="247.93" cy="271.26" rx="19.11" ry="15.222"/>
</g>
<g>
	<path style="fill:#495059;" d="M155.461,263.571c-4.142,0-7.5-3.357-7.5-7.5v-6.75c0-4.143,3.358-7.5,7.5-7.5s7.5,3.357,7.5,7.5
		v6.75C162.961,260.214,159.603,263.571,155.461,263.571z"/>
	<path style="fill:#495059;" d="M236.788,263.571c-4.142,0-7.5-3.357-7.5-7.5v-6.75c0-4.143,3.358-7.5,7.5-7.5s7.5,3.357,7.5,7.5
		v6.75C244.288,260.214,240.93,263.571,236.788,263.571z"/>
	<path style="fill:#495059;" d="M196.125,268.755c-6.277,0-12.246-2.718-16.375-7.457c-2.721-3.122-2.396-7.86,0.727-10.581
		c3.123-2.722,7.86-2.395,10.581,0.728c1.28,1.468,3.126,2.311,5.066,2.311c1.939,0,3.786-0.843,5.066-2.311
		c2.72-3.125,7.458-3.449,10.582-0.728c3.123,2.721,3.448,7.459,0.727,10.581C208.371,266.037,202.402,268.755,196.125,268.755z"/>
</g>
<path style="opacity:0.05;enable-background:new    ;" d="M107.741,212.865c-11.719,0-21.219,9.5-21.219,21.219v99.956
	c0,14-4.235,27.672-12.15,39.22l-9.04,13.19h98.134c-19.785-39.116-31.838-105.304-31.838-173.586L107.741,212.865L107.741,212.865z
	"/>
<path style="opacity:0.1;enable-background:new    ;" d="M231.086,294.843L231.086,294.843c-10.824,0-19.598,8.774-19.598,19.598
	v19.102c0,14.324-4.334,28.313-12.431,40.128l-8.759,12.78h81.577l-8.759-12.78c-8.098-11.815-12.431-25.804-12.431-40.128v-19.102
	C250.685,303.617,241.91,294.843,231.086,294.843z"/>
<g style="opacity:0.1;">
	<path d="M123.342,325.755c-4.142,0-7.5-3.357-7.5-7.5v-22.467c0-4.143,3.358-7.5,7.5-7.5s7.5,3.357,7.5,7.5v22.467
		C130.842,322.397,127.484,325.755,123.342,325.755z"/>
	<path d="M166.133,350.409c-4.142,0-7.5-3.357-7.5-7.5v-23.064c0-4.143,3.358-7.5,7.5-7.5s7.5,3.357,7.5,7.5v23.064
		C173.633,347.052,170.275,350.409,166.133,350.409z"/>
</g>
<path style="fill:#DDAF89;" d="M480.405,386.228h-41.327c-18.734-2.266-32.354-21.426-59.662-21.426
	c-39.05,0-68.541,21.426-99.894,21.426H31.595C14.145,386.228,0,400.373,0,417.823v0.087c0,17.449,14.145,31.595,31.595,31.595
	h448.81c17.449,0,31.595-14.145,31.595-31.595v-0.087C512,400.373,497.855,386.228,480.405,386.228z"/>
<g style="opacity:0.15;">
	<circle cx="50.5" cy="415.34" r="7.442"/>
	<circle cx="131.28" cy="419.74" r="7.443"/>
	<circle cx="356.28" cy="400.45" r="7.442"/>
	<circle cx="240.49" cy="426.18" r="7.443"/>
	<circle cx="445.03" cy="427.18" r="7.443"/>
</g>
<g>
</g>
<g>
</g>
<g>
</g>
<g>
</g>
<g>
</g>
<g>
</g>
<g>
</g>
<g>
</g>
<g>
</g>
<g>
</g>
<g>
</g>
<g>
</g>
<g>
</g>
<g>
</g>
<g>
</g>
</svg>
