<?xml version="1.0" encoding="iso-8859-1"?>
<!-- Generator: Adobe Illustrator 19.0.0, SVG Export Plug-In . SVG Version: 6.00 Build 0)  -->
<svg version="1.1" id="Capa_1" xmlns="http://www.w3.org/2000/svg" xmlns:xlink="http://www.w3.org/1999/xlink" x="0px" y="0px"
	 viewBox="0 0 512 512" style="enable-background:new 0 0 512 512;" xml:space="preserve">
<path style="fill:#A28577;" d="M283.151,512h-55.016c-5.943,0-10.761-4.818-10.761-10.761V129.913h76.538V501.24
	C293.912,507.182,289.094,512,283.151,512z"/>
<path style="opacity:0.1;enable-background:new    ;" d="M226.767,352.101c-3.242-4.714-6.426-9.348-9.393-13.833v26.651
	c13.577,19.806,27.949,41.679,31.235,60.787c2.573,14.962-0.254,28.744-8.177,39.858c-5.71,8.01-13.932,14.323-23.058,17.96v15.847
	c13.967-4.175,26.781-13.187,35.273-25.1c10.295-14.443,14.011-32.116,10.745-51.108
	C259.307,399.411,242.019,374.276,226.767,352.101z M270.847,151.452c1.526-8.095,4.158-15.275,7.388-21.54h-16.533
	c-2.397,5.771-4.327,12.027-5.596,18.761c-3.504,18.591-1.606,38.626,5.641,59.549c6.461,18.655,17.26,38.113,32.164,58.049v-26.5
	C273.851,207.717,265.907,177.66,270.847,151.452z"/>
<rect x="217.37" y="129.91" style="opacity:0.1;enable-background:new    ;" width="76.54" height="20.949"/>
<rect x="217.37" y="204.49" style="opacity:0.1;enable-background:new    ;" width="76.54" height="80.966"/>
<polygon style="opacity:0.1;enable-background:new    ;" points="217.374,397.332 293.912,404.029 293.912,322.753 217.374,316.057 
	"/>
<path style="fill:#DDAF89;" d="M79.672,264.504h240.393c9.519,0,17.236-7.717,17.236-17.236v-46.494
	c0-9.52-7.717-17.237-17.236-17.237H79.672c-2.958,0-5.754,1.357-7.584,3.681l-24.279,30.83c-2.759,3.504-2.759,8.441,0,11.945
	l24.279,30.83C73.918,263.147,76.714,264.504,79.672,264.504z"/>
<path style="opacity:0.1;enable-background:new    ;" d="M79.672,183.537c-2.958,0-5.754,1.357-7.584,3.681l-24.279,30.83
	c-2.759,3.504-2.759,8.442,0,11.945l24.279,30.83c1.83,2.324,4.626,3.681,7.584,3.681h86.813
	c-61.217-20.315-56.358-64.34-39.794-80.967L79.672,183.537L79.672,183.537z"/>
<circle style="fill:#DFE3E5;" cx="293.91" cy="224.02" r="9.351"/>
<path style="opacity:0.1;enable-background:new    ;" d="M241.434,231.52h-106.57c-4.142,0-7.5-3.357-7.5-7.5s3.358-7.5,7.5-7.5
	h106.57c4.142,0,7.5,3.357,7.5,7.5C248.934,228.163,245.576,231.52,241.434,231.52z"/>
<path style="fill:#DDAF89;" d="M464.683,351.387l-21.5-32.829c-1.621-2.475-4.287-4.07-7.234-4.328l-25.455-2.227
	c-2.174-0.19-4.351,0.335-6.199,1.496l-17.176,10.79c-1.876,1.178-4.352,0.6-5.512-1.287l-6.152-10.004
	c-1.66-2.699-4.5-4.454-7.657-4.73l-171.328-14.99c-9.483-0.83-17.843,6.185-18.673,15.669l-4.052,46.317
	c-0.83,9.483,6.185,17.844,15.669,18.673l239.478,20.952c2.947,0.258,5.85-0.85,7.876-3.006l26.874-28.597
	C466.696,360.036,467.126,355.117,464.683,351.387z"/>
<path style="opacity:0.1;enable-background:new    ;" d="M196.47,293.278c-9.483-0.83-17.843,6.185-18.673,15.669l-4.052,46.317
	c-0.83,9.483,6.185,17.844,15.669,18.673l113.381,9.919c-24.409-21.659-29.167-67.469-18.777-82.919L196.47,293.278z"/>
<circle style="fill:#DFE3E5;" cx="217.77" cy="335.78" r="9.351"/>
<path style="opacity:0.1;enable-background:new    ;" d="M377.448,357.249c-0.219,0-0.44-0.009-0.663-0.028l-106.165-9.288
	c-4.126-0.361-7.179-3.999-6.818-8.125c0.361-4.127,3.993-7.185,8.125-6.818l106.165,9.288c4.126,0.361,7.179,3.999,6.818,8.125
	C384.569,354.307,381.294,357.249,377.448,357.249z"/>
<path style="fill:#DDAF89;" d="M373.876,0h-22.135c-2.682,0-5.263,1.021-7.219,2.855l-7.356,6.896
	c-0.992,0.93-2.574,0.781-3.375-0.318l-3.713-5.095C328.09,1.612,324.92,0,321.547,0H137.409c-7.09,0-12.838,5.748-12.838,12.838
	v104.236c0,7.09,5.748,12.838,12.838,12.838h6.437c2.522,0,4.93-1.054,6.641-2.907l6.878-7.448c1.349-1.461,3.591-1.645,5.16-0.425
	l11.413,8.876c1.586,1.234,3.539,1.904,5.549,1.904h194.389c7.09,0,12.838-5.748,12.838-12.838V12.838
	C386.715,5.748,380.967,0,373.876,0z"/>
<g>
	<ellipse style="fill:#FFFFFF;" cx="188.01" cy="76.54" rx="24.955" ry="19.873"/>
	<ellipse style="fill:#FFFFFF;" cx="323.28" cy="76.54" rx="24.955" ry="19.873"/>
</g>
<g>
	<path style="fill:#495059;" d="M202.554,64.218c-4.142,0-7.5-3.357-7.5-7.5v-8.813c0-4.143,3.358-7.5,7.5-7.5s7.5,3.357,7.5,7.5
		v8.813C210.054,60.86,206.696,64.218,202.554,64.218z"/>
	<path style="fill:#495059;" d="M308.732,64.218c-4.142,0-7.5-3.357-7.5-7.5v-8.813c0-4.143,3.358-7.5,7.5-7.5s7.5,3.357,7.5,7.5
		v8.813C316.232,60.86,312.874,64.218,308.732,64.218z"/>
	<path style="fill:#495059;" d="M255.643,70.985c-7.532,0-14.694-3.262-19.651-8.949c-2.721-3.123-2.396-7.86,0.727-10.582
		s7.859-2.395,10.582,0.727c2.107,2.418,5.147,3.805,8.342,3.805s6.236-1.387,8.343-3.805c2.721-3.123,7.459-3.447,10.581-0.727
		c3.123,2.722,3.448,7.459,0.727,10.582C270.337,67.724,263.175,70.985,255.643,70.985z"/>
</g>
<path style="opacity:0.1;enable-background:new    ;" d="M189.225,0h-51.816c-7.09,0-12.838,5.748-12.838,12.839v104.236
	c0,7.09,5.748,12.838,12.838,12.838h6.437c2.522,0,4.929-1.054,6.64-2.907l6.878-7.448c1.349-1.46,3.591-1.645,5.16-0.424
	l11.413,8.876c1.586,1.234,3.539,1.904,5.549,1.904h48.889C174.474,100.128,181.026,25.943,189.225,0z"/>
<g>
</g>
<g>
</g>
<g>
</g>
<g>
</g>
<g>
</g>
<g>
</g>
<g>
</g>
<g>
</g>
<g>
</g>
<g>
</g>
<g>
</g>
<g>
</g>
<g>
</g>
<g>
</g>
<g>
</g>
</svg>
