<?xml version="1.0" encoding="iso-8859-1"?>
<!-- Generator: Adobe Illustrator 19.0.0, SVG Export Plug-In . SVG Version: 6.00 Build 0)  -->
<svg version="1.1" id="Capa_1" xmlns="http://www.w3.org/2000/svg" xmlns:xlink="http://www.w3.org/1999/xlink" x="0px" y="0px"
	 viewBox="0 0 512 512" style="enable-background:new 0 0 512 512;" xml:space="preserve">
<g>
	<rect x="238.52" y="53.53" style="fill:#A28577;" width="34.962" height="172.62"/>
	
		<rect x="156.373" y="87.55" transform="matrix(-0.7071 0.7071 -0.7071 -0.7071 419.7236 173.8634)" style="fill:#A28577;" width="34.962" height="172.618"/>
	<rect x="53.53" y="238.52" style="fill:#A28577;" width="172.62" height="34.962"/>
	
		<rect x="156.38" y="251.832" transform="matrix(0.7071 0.7071 -0.7071 0.7071 290.0245 -23.8988)" style="fill:#A28577;" width="34.962" height="172.618"/>
	<rect x="238.52" y="285.85" style="fill:#A28577;" width="34.962" height="172.62"/>
	
		<rect x="320.665" y="251.832" transform="matrix(0.7071 -0.7071 0.7071 0.7071 -140.061 338.1444)" style="fill:#A28577;" width="34.962" height="172.618"/>
	<rect x="285.85" y="238.52" style="fill:#A28577;" width="172.62" height="34.962"/>
	
		<rect x="320.655" y="87.55" transform="matrix(-0.7071 -0.7071 0.7071 -0.7071 454.2975 535.8939)" style="fill:#A28577;" width="34.962" height="172.618"/>
</g>
<g style="opacity:0.1;">
	<path d="M157.089,132.367l-31.896-31.896l-24.722,24.722l31.895,31.896C139.674,147.968,147.968,139.674,157.089,132.367z"/>
	<path d="M379.633,157.089l31.896-31.896l-24.722-24.722l-31.896,31.896C364.032,139.674,372.326,147.968,379.633,157.089z"/>
	<path d="M256,97.665c5.909,0,11.74,0.335,17.481,0.965V53.531h-34.962V98.63C244.26,98,250.091,97.665,256,97.665z"/>
	<path d="M97.665,256c0-5.909,0.335-11.74,0.965-17.481H53.531v34.962H98.63C98,267.74,97.665,261.909,97.665,256z"/>
	<path d="M132.367,354.911l-31.895,31.896l24.722,24.722l31.896-31.896C147.968,372.326,139.674,364.032,132.367,354.911z"/>
	<path d="M413.37,238.519c0.631,5.741,0.965,11.572,0.965,17.481s-0.335,11.74-0.965,17.481h45.099v-34.962L413.37,238.519
		L413.37,238.519z"/>
	<path d="M354.911,379.633l31.896,31.896l24.722-24.722l-31.896-31.896C372.326,364.032,364.032,372.326,354.911,379.633z"/>
	<path d="M256,414.335c-5.909,0-11.74-0.335-17.481-0.965v45.099h34.962V413.37C267.74,414,261.909,414.335,256,414.335z"/>
</g>
<path style="fill:#DDAF89;" d="M256,0C114.615,0,0,114.615,0,256s114.615,256,256,256s256-114.615,256-256S397.385,0,256,0z
	 M256,479.712c-123.553,0-223.712-100.16-223.712-223.712S132.447,32.288,256,32.288S479.712,132.447,479.712,256
	S379.553,479.712,256,479.712z"/>
<path style="fill:#DFE3E5;" d="M256,479.712C132.644,479.712,32.288,379.356,32.288,256S132.644,32.288,256,32.288
	S479.712,132.644,479.712,256S379.356,479.712,256,479.712z M256,75.567c-99.491,0-180.433,80.942-180.433,180.433
	S156.509,436.433,256,436.433S436.433,355.491,436.433,256S355.491,75.567,256,75.567z"/>
<circle style="fill:#DDAF89;" cx="256" cy="256" r="60.29"/>
<circle style="fill:#A28577;" cx="256" cy="256" r="29.847"/>
<path style="opacity:0.15;enable-background:new    ;" d="M281.729,240.878c-2.576-4.374-6.234-8.031-10.607-10.607l-40.852,40.852
	c2.576,4.374,6.234,8.031,10.607,10.607L281.729,240.878z"/>
<g>
	<circle style="fill:#BEBFC0;" cx="256" cy="53.53" r="8.227"/>
	<circle style="fill:#BEBFC0;" cx="112.83" cy="112.83" r="8.227"/>
	<circle style="fill:#BEBFC0;" cx="53.53" cy="256" r="8.227"/>
	<circle style="fill:#BEBFC0;" cx="112.83" cy="399.17" r="8.227"/>
	<circle style="fill:#BEBFC0;" cx="256" cy="458.47" r="8.227"/>
	<circle style="fill:#BEBFC0;" cx="399.17" cy="399.17" r="8.227"/>
	<circle style="fill:#BEBFC0;" cx="458.47" cy="256" r="8.227"/>
	<circle style="fill:#BEBFC0;" cx="399.17" cy="112.83" r="8.227"/>
</g>
<path style="opacity:0.1;enable-background:new    ;" d="M177.151,418.268C117.064,388.952,75.567,327.234,75.567,256
	c0-62.797,32.254-118.193,81.057-150.522c17.422-44.423,40.02-81.285,61.634-102.703C94.77,21.024,0,127.439,0,256
	c0,141.385,114.615,256,256,256c24.803,0,48.778-3.54,71.459-10.121C257.14,486.996,208.805,456.867,177.151,418.268z"/>
<path style="opacity:0.1;enable-background:new    ;" d="M261.789,195.995c-1.906-0.182-3.836-0.283-5.789-0.283
	c-33.296,0-60.288,26.992-60.288,60.288s26.992,60.288,60.288,60.288c21.466,0,40.299-11.229,50.981-28.123
	C246.136,301.384,215.969,229.434,261.789,195.995z"/>
<g>
</g>
<g>
</g>
<g>
</g>
<g>
</g>
<g>
</g>
<g>
</g>
<g>
</g>
<g>
</g>
<g>
</g>
<g>
</g>
<g>
</g>
<g>
</g>
<g>
</g>
<g>
</g>
<g>
</g>
</svg>
