<?xml version="1.0" encoding="iso-8859-1"?>
<!-- Generator: Adobe Illustrator 19.0.0, SVG Export Plug-In . SVG Version: 6.00 Build 0)  -->
<svg version="1.1" id="Capa_1" xmlns="http://www.w3.org/2000/svg" xmlns:xlink="http://www.w3.org/1999/xlink" x="0px" y="0px"
	 viewBox="0 0 511.999 511.999" style="enable-background:new 0 0 511.999 511.999;" xml:space="preserve">
<path style="fill:#A28577;" d="M27.165,502.939l-15.283-15.283c-12.08-12.08-12.08-31.666,0-43.746L359.658,96.133
	c12.08-12.08,31.666-12.08,43.746,0l15.283,15.283c12.08,12.08,12.08,31.666,0,43.746L70.911,502.939
	C58.831,515.019,39.245,515.019,27.165,502.939z"/>
<rect x="274.996" y="151.619" transform="matrix(0.7071 0.7071 -0.7071 0.7071 232.8431 -165.9456)" style="opacity:0.15;enable-background:new    ;" width="83.479" height="92.949"/>
<path style="opacity:0.1;enable-background:new    ;" d="M183.536,272.255l-14.363,14.363c0.075,1.262,0.151,2.522,0.227,3.778
	c2.008,32.968,2.113,53.721-20.04,64.498c-19.203,9.342-35.476,6.876-49.502,1.038l-11.329,11.329
	c10.162,4.884,21.988,8.879,35.358,8.879c9.856,0,20.552-2.172,32.035-7.758c32.298-15.713,30.342-47.834,28.45-78.898
	C184.025,283.765,183.677,277.98,183.536,272.255z M261.44,251.204c-28.612,34.412-25.461,62.094-23.16,82.306
	c0.071,0.628,0.141,1.243,0.209,1.85l13.692-13.692c-1.188-16.62,0.565-36.547,20.792-60.874
	c28.862-34.712,47.683-51.397,92.064-51.982l14.675-14.675C318.729,191.064,295.092,210.732,261.44,251.204z"/>
<g>
	<path style="fill:#DFE3E5;" d="M137.361,32.451L152.956,6.93c4.219-6.903,13.297-9.02,20.111-4.66
		c76.847,49.168,142.08,111.067,185.247,154.235l-41.583,41.583c-41.095-41.095-103.01-99.903-174.835-145.949
		C135.283,47.897,133.263,39.156,137.361,32.451z"/>
	<path style="fill:#DFE3E5;" d="M393.592,191.783c10.884,12.837,21.018,25.728,30.91,38.745
		c9.878,13.014,19.481,26.126,28.907,39.344c9.421,13.221,18.66,26.541,27.694,40.04c9.026,13.538,17.865,27.098,26.28,41.555
		c3.67,6.305,1.534,14.392-4.772,18.062c-5.65,3.288-12.729,1.915-16.781-2.942l-0.192-0.233
		c-9.847-11.783-20.633-23.479-31.49-34.963c-10.894-11.494-22.003-22.83-33.235-34.005c-11.236-11.171-22.603-22.188-34.092-32.948
		c-11.482-10.748-23.128-21.269-34.811-31.073c-12.487-10.479-14.114-29.096-3.636-41.582c10.479-12.487,29.096-14.115,41.582-3.636
		c1.255,1.054,2.401,2.189,3.435,3.393L393.592,191.783z"/>
</g>
<path style="opacity:0.1;enable-background:new    ;" d="M413.962,216.852c-6.568-8.392-13.309-16.742-20.369-25.069l-0.2-0.243
	c-1.035-1.203-2.18-2.339-3.435-3.393c-12.487-10.479-31.104-8.851-41.582,3.636c-10.479,12.487-8.851,31.104,3.635,41.582
	c8.094,6.793,16.17,13.934,24.187,21.252L413.962,216.852z"/>
<path style="opacity:0.1;enable-background:new    ;" d="M298.961,99.865l-41.638,41.638c22.731,20.416,42.777,39.951,59.41,56.584
	l41.583-41.583C341.631,139.819,321.635,120.331,298.961,99.865z"/>
<path style="fill:#BEBFC0;" d="M346.507,252.007l-83.694-83.695c-4.373-4.373-4.373-11.462,0-15.835l49.893-49.893
	c4.373-4.373,11.462-4.373,15.835,0l83.694,83.695c4.373,4.373,4.373,11.462,0,15.835l-49.893,49.893
	C357.97,256.38,350.88,256.38,346.507,252.007z"/>
<path style="opacity:0.1;enable-background:new    ;" d="M362.342,252.007l13.637-13.637
	c-97.927-52.528-60.228-118.37-48.226-136.498c-4.399-3.642-10.927-3.407-15.047,0.712l-49.893,49.893
	c-4.373,4.373-4.373,11.462,0,15.835l83.694,83.694C350.88,256.38,357.97,256.38,362.342,252.007z"/>
<g style="opacity:0.1;">
	<circle cx="306.109" cy="145.879" r="7.434"/>
	<circle cx="368.94" cy="208.709" r="7.434"/>
</g>
<path style="fill:#DDAF89;" d="M68.564,387.227L11.881,443.91c-12.08,12.08-12.08,31.666,0,43.746l15.283,15.283
	c12.08,12.08,31.666,12.08,43.746,0l56.683-56.683L68.564,387.227z"/>
<g>
</g>
<g>
</g>
<g>
</g>
<g>
</g>
<g>
</g>
<g>
</g>
<g>
</g>
<g>
</g>
<g>
</g>
<g>
</g>
<g>
</g>
<g>
</g>
<g>
</g>
<g>
</g>
<g>
</g>
</svg>
