<?xml version="1.0" encoding="iso-8859-1"?>
<!-- Generator: Adobe Illustrator 19.0.0, SVG Export Plug-In . SVG Version: 6.00 Build 0)  -->
<svg version="1.1" id="Capa_1" xmlns="http://www.w3.org/2000/svg" xmlns:xlink="http://www.w3.org/1999/xlink" x="0px" y="0px"
	 viewBox="0 0 512.001 512.001" style="enable-background:new 0 0 512.001 512.001;" xml:space="preserve">
<path style="fill:#A28577;" d="M153.221,139.004H32.948c-15.141,0-28.291-10.422-31.748-25.163l-0.937-3.997
	c-1.443-6.152,3.226-12.042,9.544-12.042h143.414V139.004z"/>
<path style="fill:#DDAF89;" d="M153.221,180.207h-80.53c-15.141,0-28.291-10.422-31.748-25.163l-3.762-16.039H153.22
	L153.221,180.207L153.221,180.207z"/>
<path style="fill:#A28577;" d="M153.221,221.409h-37.657c-15.141,0-28.291-10.422-31.748-25.164l-3.762-16.039h73.167V221.409z"/>
<rect x="125.869" y="97.8" style="opacity:0.1;enable-background:new    ;" width="27.348" height="123.61"/>
<path style="fill:#A28577;" d="M358.778,139.004h120.273c15.141,0,28.291-10.422,31.748-25.163l0.938-3.997
	c1.443-6.152-3.226-12.042-9.544-12.042H358.778V139.004z"/>
<path style="fill:#DDAF89;" d="M358.778,180.207h80.529c15.141,0,28.291-10.422,31.748-25.163l3.762-16.039H358.778V180.207z"/>
<path style="fill:#A28577;" d="M358.778,221.409h37.657c15.141,0,28.291-10.422,31.748-25.164l3.762-16.039h-73.167V221.409z"/>
<rect x="358.779" y="97.8" style="opacity:0.1;enable-background:new    ;" width="27.348" height="123.61"/>
<path style="fill:#DDAF89;" d="M358.778,71.299c0-19.16-15.532-34.692-34.692-34.692H187.912c-19.16,0-34.692,15.532-34.692,34.692
	v369.402c0,19.16,15.532,34.692,34.692,34.692h136.173c19.16,0,34.692-15.532,34.692-34.692L358.778,71.299L358.778,71.299z"/>
<g>
	<ellipse style="fill:#FFFFFF;" cx="190.089" cy="138.77" rx="24.32" ry="19.367"/>
	<ellipse style="fill:#FFFFFF;" cx="321.909" cy="138.77" rx="24.32" ry="19.367"/>
</g>
<g>
	<path style="fill:#495059;" d="M204.261,126.953c-4.142,0-7.5-3.357-7.5-7.5v-8.588c0-4.143,3.358-7.5,7.5-7.5s7.5,3.357,7.5,7.5
		v8.588C211.761,123.596,208.403,126.953,204.261,126.953z"/>
	<path style="fill:#495059;" d="M307.737,126.953c-4.143,0-7.5-3.357-7.5-7.5v-8.588c0-4.143,3.357-7.5,7.5-7.5s7.5,3.357,7.5,7.5
		v8.588C315.237,123.596,311.88,126.953,307.737,126.953z"/>
</g>
<g>
	<ellipse style="fill:#FFFFFF;" cx="194.759" cy="352.94" rx="22.595" ry="17.994"/>
	<ellipse style="fill:#FFFFFF;" cx="317.239" cy="352.94" rx="22.595" ry="17.994"/>
</g>
<g>
	<path style="fill:#495059;" d="M207.931,342.489c-4.142,0-7.5-3.358-7.5-7.5v-7.98c0-4.143,3.358-7.5,7.5-7.5s7.5,3.357,7.5,7.5
		v7.98C215.431,339.132,212.073,342.489,207.931,342.489z"/>
	<path style="fill:#495059;" d="M304.067,342.489c-4.143,0-7.5-3.358-7.5-7.5v-7.98c0-4.143,3.357-7.5,7.5-7.5
		c4.142,0,7.5,3.357,7.5,7.5v7.98C311.567,339.132,308.21,342.489,304.067,342.489z"/>
</g>
<path style="opacity:0.1;enable-background:new    ;" d="M183.638,36.879c-17.142,2.108-30.418,16.708-30.418,34.42V440.7
	c0,19.16,15.532,34.692,34.692,34.692h59.819C175.379,408.745,181.911,124.551,183.638,36.879z"/>
<path style="opacity:0.1;enable-background:new    ;" d="M185.115,364.932c-12.129-11.421-23.879-22.491-31.894-36.591v25.597
	c6.866,8.02,14.394,15.119,21.612,21.915c12.426,11.699,24.162,22.75,30.368,36.4c12.662,27.848,13.479,48.983,2.534,63.141h17.546
	c7.145-15.101,8.191-37.203-6.425-69.35C211.427,389.706,198.051,377.111,185.115,364.932z M224.728,210.846
	c-10.562-7.913-22.263-9.684-32.102-4.857c-16.995,8.341-14.045,27.55-11.443,44.498c1.047,6.817,2.13,13.868,2.125,20.359
	c-0.003,4.142,3.352,7.503,7.494,7.506h0.006c4.139,0,7.497-3.355,7.5-7.494c0.006-7.642-1.166-15.271-2.298-22.648
	c-2.638-17.176-3.179-25.611,3.225-28.754c6.292-3.086,13.039,0.801,16.5,3.395c10.011,7.501,19.321,24.044,16.103,42.638
	c-0.707,4.082,2.03,7.963,6.111,8.67c4.078,0.696,7.963-2.03,8.669-6.111C250.911,243.231,238.28,221,224.728,210.846z
	 M335.853,200.156c-17.427,25.57-35.448,52.012-20.338,76.688c1.415,2.31,3.879,3.584,6.403,3.584c1.336,0,2.688-0.356,3.91-1.104
	c3.532-2.164,4.643-6.781,2.479-10.313c-9.371-15.302,1.282-33.029,19.94-60.406c3.488-5.118,7.075-10.384,10.53-15.791V161.86
	C353.075,174.875,344.388,187.633,335.853,200.156z M255.707,36.607c5.873,18.697,3.298,28.686,0.082,30.641
	c-3.094,1.882-12.539-0.439-25.868-14.545c-5.021-5.314-10.18-9.083-14.731-12.408c-1.776-1.298-3.413-2.499-4.921-3.688h-20.254
	c4.315,6.998,10.381,11.456,16.326,15.799c4.228,3.089,8.6,6.283,12.676,10.598c12.314,13.033,24.307,19.86,34.354,19.86
	c3.692,0,7.124-0.923,10.209-2.799c5.299-3.221,15.892-13.686,7.76-43.458C271.34,36.607,255.707,36.607,255.707,36.607z
	 M311.497,440.403c-8.877,9.964-17.983,23.446-22.052,34.989h16.27c3.406-7.13,9.214-16.293,16.981-25.012
	c12.135-13.621,25.139-21.978,36.081-23.28v-15.065C338.327,413.557,320.464,430.338,311.497,440.403z"/>
<path style="opacity:0.1;enable-background:new    ;" d="M208.644,146.681c-6.412,21.634-4.171,55.204,31.323,59.37
	c26.757,3.14,48.958-8.913,54.815-40.527L208.644,146.681z"/>
<path style="fill:#F7CF66;" d="M297.424,154.758c-0.785,10.201-10.657,38.647-41.425,38.647s-40.641-28.446-41.425-38.647H297.424z"
	/>
<path style="fill:#F6E06A;" d="M265.365,110.885L265.365,110.885c-3.677-8.007-15.055-8.007-18.732,0l0,0
	c-3.942,8.583-11.607,14.881-20.791,17.083l0,0c-6.936,1.663-12.603,6.645-15.141,13.31l-2.057,5.402
	c-2.21,5.803,2.077,12.022,8.287,12.022h14.939c4.004,0,7.883,1.392,10.974,3.937l3.766,3.102c5.454,4.492,13.324,4.492,18.778,0
	l3.766-3.102c3.091-2.546,6.97-3.937,10.974-3.937h14.939c6.21,0,10.496-6.219,8.287-12.022l-2.057-5.402
	c-2.538-6.666-8.205-11.647-15.141-13.31l0,0C276.971,125.766,269.307,119.469,265.365,110.885z"/>
<path style="fill:#A28577;" d="M359.943,254.174H152.055c-9.21,0-16.677,7.467-16.677,16.677l0,0
	c0,9.211,7.467,16.677,16.677,16.677h207.887c9.21,0,16.677-7.467,16.677-16.677l0,0
	C376.62,261.641,369.153,254.174,359.943,254.174z"/>
<path style="fill:#FFFFFF;" d="M219.445,378.57c-8.139,0-14.761,6.622-14.761,14.761s6.622,14.761,14.761,14.761h73.107
	c8.14,0,14.761-6.622,14.761-14.761s-6.622-14.761-14.761-14.761H219.445z"/>
<path style="fill:#84AC83;" d="M292.552,433.974h-73.107c-22.41,0-40.642-18.232-40.642-40.642
	c0-22.411,18.232-40.642,40.642-40.642h73.107c22.411,0,40.642,18.232,40.642,40.642S314.963,433.974,292.552,433.974z
	 M219.445,378.57c-8.139,0-14.761,6.622-14.761,14.761s6.622,14.761,14.761,14.761h73.107c8.14,0,14.761-6.622,14.761-14.761
	s-6.622-14.761-14.761-14.761H219.445z"/>
<g style="opacity:0.1;">
	<rect x="248.499" y="378.57" width="15" height="29.522"/>
	<rect x="218.629" y="378.57" width="15" height="29.522"/>
	<rect x="278.369" y="378.57" width="15" height="29.522"/>
</g>
<g>
</g>
<g>
</g>
<g>
</g>
<g>
</g>
<g>
</g>
<g>
</g>
<g>
</g>
<g>
</g>
<g>
</g>
<g>
</g>
<g>
</g>
<g>
</g>
<g>
</g>
<g>
</g>
<g>
</g>
</svg>
