<?xml version="1.0" encoding="iso-8859-1"?>
<!-- Generator: Adobe Illustrator 19.0.0, SVG Export Plug-In . SVG Version: 6.00 Build 0)  -->
<svg version="1.1" id="Capa_1" xmlns="http://www.w3.org/2000/svg" xmlns:xlink="http://www.w3.org/1999/xlink" x="0px" y="0px"
	 viewBox="0 0 512 512" style="enable-background:new 0 0 512 512;" xml:space="preserve">
<path style="fill:#84AC83;" d="M308.88,489.72l-1.367-34.034l98.038-3.939c6.407-0.257,12.27-3.048,16.51-7.859
	c4.24-4.81,6.273-10.977,5.724-17.366L405.408,165.94c-1.225-14.271-12.95-25.032-27.273-25.032h-55.373v-34.061h55.373
	c15.425,0,30.178,5.743,41.541,16.173c11.364,10.43,18.349,24.638,19.669,40.005l22.377,260.582
	c1.352,15.746-3.658,30.947-14.108,42.803c-10.45,11.856-24.902,18.734-40.694,19.37L308.88,489.72z"/>
<path style="opacity:0.15;enable-background:new    ;" d="M308.88,489.72l-1.367-34.034l98.038-3.939
	c6.407-0.257,12.27-3.048,16.51-7.859c4.24-4.81,6.273-10.977,5.724-17.366L405.408,165.94
	c-1.225-14.271-12.95-25.032-27.273-25.032h-55.373v-34.061h55.373c15.425,0,30.178,5.743,41.541,16.173
	c11.364,10.43,18.349,24.638,19.669,40.005l22.377,260.582c1.352,15.746-3.658,30.947-14.108,42.803
	c-10.45,11.856-24.902,18.734-40.694,19.37L308.88,489.72z"/>
<path style="fill:#84AC83;" d="M203.118,489.72l-98.038-3.939c-15.793-0.636-30.245-7.514-40.695-19.37s-15.46-27.058-14.108-42.803
	l22.377-260.582c1.32-15.367,8.305-29.576,19.669-40.005c11.364-10.43,26.116-16.173,41.541-16.173h55.373v34.061h-55.373
	c-14.323,0-26.048,10.761-27.273,25.032L84.213,426.523c-0.549,6.389,1.484,12.556,5.724,17.366
	c4.24,4.811,10.103,7.601,16.511,7.859l98.037,3.939L203.118,489.72z"/>
<path style="opacity:0.15;enable-background:new    ;" d="M203.118,489.72l-98.038-3.939c-15.793-0.636-30.245-7.514-40.695-19.37
	s-15.46-27.058-14.108-42.803l22.377-260.582c1.32-15.367,8.305-29.576,19.669-40.005c11.364-10.43,26.116-16.173,41.541-16.173
	h55.373v34.061h-55.373c-14.323,0-26.048,10.761-27.273,25.032L84.213,426.523c-0.549,6.389,1.484,12.556,5.724,17.366
	c4.24,4.811,10.103,7.601,16.511,7.859l98.037,3.939L203.118,489.72z"/>
<path style="fill:#84AC83;" d="M367.37,178.438H144.628c-7.071,0-10.874-8.305-6.254-13.659l5.122-5.936
	c4.404-5.103,7.21-11.388,8.068-18.074l6.267-48.797c1.05-8.176,8.01-14.299,16.253-14.299h163.829
	c8.243,0,15.203,6.123,16.253,14.299l6.267,48.797c0.859,6.685,3.664,12.971,8.068,18.074l5.122,5.936
	C378.244,170.133,374.441,178.438,367.37,178.438z"/>
<path style="opacity:0.1;enable-background:new    ;" d="M188.092,178.439c21.908-28.341,20.466-65.941,19.843-100.765h-33.85
	c-8.243,0-15.203,6.123-16.253,14.299l-6.267,48.797c-0.859,6.686-3.664,12.971-8.068,18.074l-5.122,5.936
	c-4.62,5.354-0.817,13.659,6.254,13.659H188.092z"/>
<path style="fill:#84AC83;" d="M336.142,178.438H175.856v16.015c0,3.545-2.101,6.753-5.351,8.17l-8.369,3.648
	c-3.473,1.514-6.231,4.304-7.704,7.794l-3.198,7.573c-1.584,3.75,1.169,7.901,5.24,7.901h199.051c4.071,0,6.823-4.151,5.24-7.901
	l-3.198-7.573c-1.474-3.49-4.232-6.28-7.704-7.794l-8.369-3.648c-3.25-1.417-5.351-4.625-5.351-8.17L336.142,178.438
	L336.142,178.438z"/>
<path style="fill:#FFF0C0;" d="M340.29,229.539H171.708l-7.749,25.211c-10.008,32.562-10.008,67.379,0,99.941l7.749,25.211h168.581
	l7.749-25.211c10.008-32.562,10.008-67.379,0-99.941L340.29,229.539z"/>
<g>
	<path style="fill:#84AC83;" d="M346.784,409.147h-181.57c-6.71,0-12.15-5.44-12.15-12.15v-4.945c0-6.71,5.44-12.15,12.15-12.15
		h181.57c6.71,0,12.15,5.44,12.15,12.15v4.945C358.934,403.708,353.494,409.147,346.784,409.147z"/>
	<rect x="184.669" y="409.15" style="fill:#84AC83;" width="142.66" height="28.1"/>
</g>
<rect x="184.669" y="409.15" style="opacity:0.15;enable-background:new    ;" width="142.66" height="28.1"/>
<path style="fill:#84AC83;" d="M362.737,512H149.261c-5.633,0-10.199-4.566-10.199-10.199v-21.284
	c0-5.732,1.762-11.325,5.048-16.022l11.18-15.981c4.94-7.061,13.014-11.267,21.631-11.267h158.156
	c8.617,0,16.692,4.206,21.631,11.267l11.18,15.981c3.286,4.697,5.048,10.29,5.048,16.022v21.284
	C372.936,507.434,368.37,512,362.737,512z"/>
<path style="opacity:0.1;enable-background:new    ;" d="M176.921,437.246c-8.617,0-16.692,4.206-21.631,11.267l-11.18,15.981
	c-3.286,4.697-5.048,10.29-5.048,16.022V501.8c0,5.633,4.566,10.199,10.199,10.199h41.851c-0.034-38.435,10.49-50.195,16.99-74.754
	h-31.181V437.246z"/>
<path style="fill:#84AC83;" d="M255.999,85.174c-23.482,0-42.587-19.104-42.587-42.587S232.518,0,255.999,0
	s42.587,19.104,42.587,42.587S279.481,85.174,255.999,85.174z M255.999,15c-15.211,0-27.587,12.375-27.587,27.587
	s12.376,27.587,27.587,27.587c15.211,0,27.587-12.375,27.587-27.587S271.21,15,255.999,15z"/>
<path style="fill:#F2937E;" d="M255.98,273.876c-17.294,15.495-18.616,36.371-17.579,46.871c0.151,1.534-1.721,2.418-2.796,1.313
	c-3.061-3.144-5.375-6.911-7.342-11.928c-0.807-2.06-3.6-2.4-4.84-0.568c-6.324,9.336-9.762,19.622-9.762,28
	c0,23.383,18.955,42.339,42.338,42.339s42.338-18.956,42.338-42.339c0-28.296-22.148-31.15-36.546-62.504
	C260.755,272.803,257.83,272.219,255.98,273.876z"/>
<rect x="175.859" y="178.44" style="opacity:0.15;enable-background:new    ;" width="160.29" height="16.02"/>
<path style="opacity:0.1;enable-background:new    ;" d="M144.11,464.494c-3.018,4.315-4.732,9.388-4.994,14.629h233.768
	c-0.262-5.24-1.976-10.314-4.994-14.629l-0.26-0.371H144.369L144.11,464.494z"/>
<polygon style="opacity:0.1;enable-background:new    ;" points="152.748,131.556 359.25,131.556 357.324,116.556 154.674,116.556 
	"/>
<g>
</g>
<g>
</g>
<g>
</g>
<g>
</g>
<g>
</g>
<g>
</g>
<g>
</g>
<g>
</g>
<g>
</g>
<g>
</g>
<g>
</g>
<g>
</g>
<g>
</g>
<g>
</g>
<g>
</g>
</svg>
