<?xml version="1.0" encoding="iso-8859-1"?>
<!-- Generator: Adobe Illustrator 19.0.0, SVG Export Plug-In . SVG Version: 6.00 Build 0)  -->
<svg version="1.1" id="Capa_1" xmlns="http://www.w3.org/2000/svg" xmlns:xlink="http://www.w3.org/1999/xlink" x="0px" y="0px"
	 viewBox="0 0 512 512" style="enable-background:new 0 0 512 512;" xml:space="preserve">
<path style="fill:#DDAF89;" d="M102.422,292.033c-7.962,0-15.178-3.6-20.29-10.265c-5.257-6.855-15.47-27.108,3.193-67.008
	c19.665-42.041,54.626-91.406,91.239-128.83c23.948-24.477,69.075-64.584,102.238-58.116c2.473,0.481,4.539,2.173,5.5,4.502
	c0.96,2.329,0.688,4.984-0.727,7.069c-2.657,3.917-8.813,11.55-17.331,22.112c-33.235,41.21-102.393,126.96-121.094,186.567
	c-7.661,24.418-21.831,40.693-37.906,43.537C105.615,291.891,104.003,292.033,102.422,292.033z M261.469,43.508
	c-19.218,5.073-45.645,23.744-74.182,52.913c-35.513,36.299-69.376,84.079-88.374,124.695
	c-12.399,26.509-10.649,43.997-4.876,51.525c2.679,3.493,6.345,4.941,10.595,4.19c8.073-1.428,19.196-10.915,26.206-33.257
	c19.553-62.32,89.915-149.565,123.73-191.493C257.055,48.998,259.378,46.117,261.469,43.508z"/>
<path style="fill:#A28577;" d="M305.441,0h-38.665c-6.864,0-12.428,5.564-12.428,12.428v47.46h63.521v-47.46
	C317.869,5.564,312.305,0,305.441,0z"/>
<rect x="254.351" y="19.443" style="opacity:0.1;enable-background:new    ;" width="63.52" height="15"/>
<rect x="251.051" y="113.09" style="fill:#A28577;" width="70.11" height="52.38"/>
<rect x="251.051" y="113.09" style="opacity:0.1;enable-background:new    ;" width="70.11" height="16.453"/>
<path id="SVGCleanerId_0" style="fill:#BEBFC0;" d="M328.298,113.086h-84.379c-7.558,0-13.182-6.983-11.572-14.367l6.197-28.426
	c2.748-12.606,13.908-21.594,26.809-21.594h41.51c12.902,0,24.061,8.989,26.809,21.594l6.197,28.426
	C341.48,106.103,335.856,113.086,328.298,113.086z"/>
<g>
	<path id="SVGCleanerId_0_1_" style="fill:#BEBFC0;" d="M328.298,113.086h-84.379c-7.558,0-13.182-6.983-11.572-14.367l6.197-28.426
		c2.748-12.606,13.908-21.594,26.809-21.594h41.51c12.902,0,24.061,8.989,26.809,21.594l6.197,28.426
		C341.48,106.103,335.856,113.086,328.298,113.086z"/>
</g>
<path style="opacity:0.1;enable-background:new    ;" d="M275.683,48.698h-10.33c-12.902,0-24.061,8.989-26.809,21.595
	l-6.197,28.426c-1.61,7.384,4.014,14.367,11.572,14.367h48.833C263.979,83.394,269.289,59.828,275.683,48.698z"/>
<path style="fill:#DFE3E5;" d="M381.277,504.5H190.94c-15.648,0-29.292-10.641-33.105-25.817l-13.914-55.388
	c-15.838-63.048-10.975-129.519,13.87-189.591l0,0c21.475-51.924,72.127-85.789,128.317-85.789l0,0
	c56.19,0,106.842,33.864,128.317,85.789l0,0c24.845,60.072,29.708,126.543,13.87,189.591l-13.914,55.388
	C410.569,493.859,396.925,504.5,381.277,504.5z"/>
<path style="opacity:0.1;enable-background:new    ;" d="M243.898,154.499c-38.299,12.228-70.205,40.755-86.107,79.203l0,0
	c-24.845,60.072-29.708,126.543-13.87,189.591l13.914,55.389c3.813,15.176,17.457,25.817,33.105,25.817h165.723
	C238.368,397.868,218.174,224.783,243.898,154.499z"/>
<g>
	<path style="fill:#A28577;" d="M350.406,314.63c-2.424,0-4.717-1.176-6.129-3.18l-58.169-82.541l-58.169,82.541
		c-1.541,2.188-4.133,3.386-6.797,3.15c-2.665-0.238-5.002-1.879-6.132-4.305l-47.7-102.448c-1.748-3.755-0.122-8.217,3.634-9.965
		c3.755-1.752,8.216-0.121,9.965,3.633l42.232,90.705l56.837-80.651c1.405-1.994,3.691-3.18,6.13-3.18s4.726,1.186,6.13,3.18
		l56.838,80.651l42.232-90.705c1.748-3.754,6.212-5.382,9.965-3.633c3.755,1.748,5.382,6.21,3.634,9.965l-47.7,102.448
		c-1.13,2.426-3.467,4.066-6.132,4.305C350.852,314.62,350.628,314.63,350.406,314.63z"/>
	<path style="fill:#A28577;" d="M286.108,443.744c-2.845,0-5.445-1.609-6.713-4.156l-58.545-117.56l-70.699,105.443
		c-2.307,3.441-6.966,4.358-10.406,2.053c-3.44-2.307-4.359-6.966-2.053-10.406l77.887-116.164c1.488-2.219,4.048-3.483,6.711-3.308
		c2.667,0.172,5.041,1.749,6.232,4.141l57.586,115.634l57.586-115.634c1.191-2.392,3.565-3.969,6.232-4.141
		c2.674-0.179,5.224,1.089,6.711,3.308l77.887,116.164c2.307,3.44,1.388,8.1-2.053,10.406s-8.099,1.388-10.406-2.053
		l-70.699-105.442l-58.545,117.56C291.553,442.135,288.953,443.744,286.108,443.744z"/>
	<path style="fill:#A28577;" d="M286.108,512c-4.142,0-7.5-3.357-7.5-7.5v-68.256c0-4.143,3.358-7.5,7.5-7.5s7.5,3.357,7.5,7.5
		V504.5C293.608,508.643,290.25,512,286.108,512z"/>
	<path style="fill:#A28577;" d="M286.108,223.39c-4.142,0-7.5-3.357-7.5-7.5v-67.976c0-4.143,3.358-7.5,7.5-7.5s7.5,3.357,7.5,7.5
		v67.976C293.608,220.032,290.25,223.39,286.108,223.39z"/>
</g>
<g style="opacity:0.1;">
	<circle cx="197.581" cy="434.33" r="7.617"/>
	<circle cx="370.191" cy="470.37" r="7.617"/>
</g>
<g style="opacity:0.1;">
	<path d="M357.833,441.833c-1.919,0-3.839-0.732-5.303-2.197c-2.929-2.929-2.929-7.678,0-10.606l9.473-9.473
		c2.929-2.929,7.678-2.928,10.606,0.001c2.929,2.929,2.929,7.678,0,10.607l-9.473,9.473
		C361.672,441.101,359.752,441.833,357.833,441.833z"/>
	<path d="M402.874,343.414c-1.919,0-3.839-0.732-5.303-2.196c-2.929-2.93-2.929-7.678,0-10.607l11.66-11.66
		c2.929-2.928,7.678-2.928,10.606,0c2.929,2.93,2.929,7.678,0,10.607l-11.66,11.66C406.713,342.682,404.794,343.414,402.874,343.414
		z"/>
	<path d="M405.446,310.5c-1.919,0-3.839-0.732-5.304-2.197c-2.929-2.929-2.928-7.678,0.001-10.606l6.901-6.9
		c2.929-2.928,7.677-2.929,10.607,0.001c2.929,2.929,2.928,7.678,0,10.606l-6.901,6.9C409.285,309.768,407.365,310.5,405.446,310.5z
		"/>
	<path d="M228.807,216.615c-1.919,0-3.839-0.732-5.303-2.197c-2.929-2.929-2.929-7.678,0-10.607l9.473-9.473
		c2.929-2.928,7.678-2.929,10.606,0.001c2.929,2.929,2.929,7.678,0,10.607l-9.473,9.473
		C232.646,215.883,230.726,216.615,228.807,216.615z"/>
	<path d="M175.194,319.188c-1.919,0-3.839-0.732-5.303-2.196c-2.929-2.93-2.929-7.678,0-10.607l4.736-4.736
		c2.929-2.928,7.678-2.928,10.607,0c2.929,2.93,2.929,7.678,0,10.607l-4.736,4.736C179.033,318.455,177.114,319.188,175.194,319.188
		z"/>
</g>
<g>
</g>
<g>
</g>
<g>
</g>
<g>
</g>
<g>
</g>
<g>
</g>
<g>
</g>
<g>
</g>
<g>
</g>
<g>
</g>
<g>
</g>
<g>
</g>
<g>
</g>
<g>
</g>
<g>
</g>
</svg>
