<?xml version="1.0" encoding="iso-8859-1"?>
<!-- Generator: Adobe Illustrator 19.0.0, SVG Export Plug-In . SVG Version: 6.00 Build 0)  -->
<svg version="1.1" id="Capa_1" xmlns="http://www.w3.org/2000/svg" xmlns:xlink="http://www.w3.org/1999/xlink" x="0px" y="0px"
	 viewBox="0 0 512 512" style="enable-background:new 0 0 512 512;" xml:space="preserve">
<path style="fill:#DFE3E5;" d="M490.588,263.979c6.822-58.103-2.636-111.722-27.35-155.055C423.758,39.702,348.223,0,256.001,0
	S88.244,39.702,48.764,108.924c-24.714,43.334-34.172,96.952-27.35,155.055c5.399,45.976,20.623,94.537,45.378,144.873
	c3.161,6.428,1.322,14.198-4.358,18.564l-10.43,8.016c-19.035,14.629-13.808,33.911,0.498,53.19
	c14.616,19.697,32.918,31.571,52.292,16.681l50.764-39.014c17.552-13.489,22.274-37.956,11.003-57.007
	c-60.921-102.993-76.132-196.656-41.732-256.975c23.812-41.746,70.395-64.739,131.172-64.739s107.36,22.992,131.172,64.739
	c34.4,60.319,19.19,153.982-41.732,256.975c-11.271,19.051-6.548,43.518,11.003,57.007l50.764,39.014
	c19.374,14.891,37.676,3.017,52.292-16.681c14.306-19.279,19.533-38.561,0.498-53.19l-10.43-8.016
	c-5.68-4.365-7.519-12.135-4.358-18.564C469.965,358.517,485.189,309.956,490.588,263.979z M95.175,475.066
	c-9.324,0-16.883-7.559-16.883-16.883s7.559-16.882,16.883-16.882s16.883,7.559,16.883,16.882
	C112.058,467.507,104.499,475.066,95.175,475.066z M114.28,370.283c0,9.324-7.559,16.883-16.883,16.883s-16.883-7.559-16.883-16.883
	S88.073,353.4,97.397,353.4C106.721,353.401,114.28,360.96,114.28,370.283z M414.605,353.401c9.324,0,16.883,7.559,16.883,16.883
	s-7.559,16.883-16.883,16.883s-16.883-7.559-16.883-16.883S405.281,353.401,414.605,353.401z M416.827,475.066
	c-9.324,0-16.883-7.559-16.883-16.883s7.559-16.882,16.883-16.882s16.883,7.559,16.883,16.882
	C433.709,467.507,426.151,475.066,416.827,475.066z"/>
<path style="opacity:0.1;enable-background:new    ;" d="M113.196,376.192c-2.397,6.405-8.556,10.974-15.799,10.974
	c-9.324,0-16.883-7.559-16.883-16.883S88.073,353.4,97.397,353.4c1.456,0,2.861,0.204,4.209,0.551
	C53.975,253.447,56.903,130.355,92.894,55.395c-17.544,15.07-32.423,33.001-44.131,53.529
	c-24.714,43.334-34.172,96.952-27.35,155.055c5.399,45.976,20.623,94.537,45.378,144.873c3.161,6.428,1.322,14.198-4.358,18.564
	l-10.43,8.016c-19.035,14.629-13.808,33.911,0.498,53.19c14.616,19.697,32.918,31.571,52.292,16.681l50.764-39.014
	c6.647-5.108,11.449-11.792,14.244-19.159C146.905,426.459,128.157,402.344,113.196,376.192z M95.175,475.066
	c-9.324,0-16.883-7.559-16.883-16.883s7.559-16.882,16.883-16.882s16.883,7.559,16.883,16.882
	C112.058,467.507,104.499,475.066,95.175,475.066z"/>
<g style="opacity:0.1;">
	<path d="M72.999,333.853c-1.919,0-3.839-0.732-5.304-2.196c-2.929-2.93-2.929-7.678,0-10.608l17.456-17.456
		c2.93-2.928,7.678-2.928,10.607,0c2.929,2.93,2.929,7.678,0,10.607l-17.456,17.456C76.838,333.12,74.918,333.853,72.999,333.853z"
		/>
	<path d="M124.784,431.641c-1.452,0-2.92-0.421-4.211-1.3c-3.425-2.329-4.313-6.994-1.983-10.419l7.156-10.522
		c2.329-3.425,6.995-4.314,10.419-1.983c3.425,2.329,4.313,6.994,1.983,10.419l-7.156,10.521
		C129.541,430.491,127.184,431.641,124.784,431.641z"/>
	<path d="M436.073,333.927c-1.919,0-3.839-0.732-5.304-2.196c-2.929-2.93-2.929-7.678,0-10.608l15.02-15.02
		c2.93-2.928,7.678-2.928,10.607,0c2.929,2.93,2.929,7.678,0,10.607l-15.02,15.02C439.912,333.194,437.992,333.927,436.073,333.927z
		"/>
</g>
<path style="opacity:0.1;enable-background:new    ;" d="M428.684,470.194c-3.049,3.01-7.235,4.872-11.858,4.872
	c-9.324,0-16.883-7.559-16.883-16.883c0-4.352,1.661-8.305,4.365-11.299c-11.583-17.53-11.268-37.714-1.619-64.643
	c-3.068-3.057-4.967-7.285-4.967-11.958c0-9.111,7.223-16.517,16.253-16.851c16.755-51.805,10.022-129.643-15.64-175.116
	c18.328,59.6-0.141,141.782-52.894,230.965c-11.271,19.051-6.548,43.518,11.003,57.007l50.764,39.014
	c19.374,14.891,37.676,3.017,52.292-16.681c0.2-0.269,0.391-0.538,0.587-0.807C447.732,481.904,437.314,476.1,428.684,470.194z"/>
<g>
	<path style="fill:#BEBFC0;" d="M63.011,235.139c-4.14,0-7.496-3.354-7.5-7.494c-0.007-8.41,0.409-16.751,1.235-24.788
		c0.424-4.12,4.119-7.105,8.228-6.693c4.12,0.424,7.117,4.108,6.693,8.229c-0.774,7.525-1.164,15.345-1.157,23.241
		c0.004,4.142-3.352,7.502-7.494,7.506C63.015,235.139,63.013,235.139,63.011,235.139z"/>
	<path style="fill:#BEBFC0;" d="M69.595,180.88c-0.622,0-1.255-0.078-1.886-0.241c-4.01-1.039-6.418-5.132-5.38-9.142
		c1.945-7.51,4.335-14.879,7.102-21.903c1.52-3.854,5.877-5.746,9.728-4.229c3.854,1.518,5.747,5.874,4.229,9.727
		c-2.545,6.46-4.744,13.245-6.537,20.167C75.975,178.638,72.931,180.88,69.595,180.88z"/>
	<path style="fill:#BEBFC0;" d="M89.558,133.447c-1.341,0-2.698-0.359-3.924-1.113c-3.528-2.172-4.628-6.791-2.457-10.318
		c4.152-6.747,8.81-13.236,13.842-19.288c2.648-3.186,7.378-3.618,10.562-0.972c3.186,2.647,3.62,7.377,0.972,10.562
		c-4.579,5.508-8.818,11.416-12.6,17.56C94.535,132.179,92.075,133.447,89.558,133.447z"/>
	<path style="fill:#BEBFC0;" d="M125.096,93.019c-2.185,0-4.35-0.949-5.832-2.778c-2.607-3.218-2.112-7.941,1.105-10.549
		c6.375-5.166,13.248-9.96,20.427-14.251c3.557-2.121,8.16-0.965,10.286,2.591c2.124,3.556,0.965,8.161-2.591,10.286
		c-6.57,3.926-12.855,8.31-18.679,13.028C128.424,92.471,126.754,93.019,125.096,93.019z"/>
	<path style="fill:#BEBFC0;" d="M448.991,235.139c-0.002,0-0.003,0-0.005,0c-4.143-0.003-7.498-3.363-7.495-7.505
		c0.006-7.906-0.384-15.726-1.157-23.242c-0.424-4.12,2.573-7.805,6.693-8.229c4.133-0.421,7.804,2.574,8.228,6.693
		c0.825,8.028,1.241,16.367,1.235,24.787C456.488,231.784,453.131,235.139,448.991,235.139z"/>
	<path style="fill:#BEBFC0;" d="M442.407,180.88c-3.336,0-6.38-2.242-7.256-5.621c-1.793-6.922-3.992-13.707-6.537-20.167
		c-1.518-3.854,0.376-8.209,4.23-9.727c3.854-1.52,8.209,0.376,9.727,4.229c2.767,7.024,5.156,14.394,7.102,21.903
		c1.038,4.01-1.37,8.102-5.38,9.142C443.662,180.802,443.029,180.88,442.407,180.88z"/>
	<path style="fill:#BEBFC0;" d="M422.444,133.447c-2.519,0-4.978-1.268-6.395-3.57c-3.781-6.144-8.021-12.052-12.6-17.56
		c-2.648-3.185-2.214-7.914,0.972-10.562c3.183-2.647,7.913-2.214,10.561,0.972c5.032,6.052,9.689,12.541,13.842,19.288
		c2.171,3.527,1.071,8.146-2.457,10.318C425.143,133.088,423.785,133.447,422.444,133.447z"/>
	<path style="fill:#BEBFC0;" d="M386.906,93.019c-1.658,0-3.328-0.547-4.717-1.673c-5.823-4.719-12.108-9.103-18.679-13.028
		c-3.556-2.125-4.715-6.73-2.591-10.286c2.127-3.556,6.73-4.712,10.286-2.591c7.179,4.291,14.052,9.085,20.427,14.251
		c3.218,2.607,3.713,7.331,1.105,10.549C391.256,92.069,389.091,93.019,386.906,93.019z"/>
	<path style="fill:#BEBFC0;" d="M145.328,22.324c23.33,55.671,49.692,20.688,110.673,20.688s87.343,34.983,110.673-20.688
		C334.141,7.736,296.697,0,256.001,0S177.861,7.736,145.328,22.324z"/>
</g>
<g>
</g>
<g>
</g>
<g>
</g>
<g>
</g>
<g>
</g>
<g>
</g>
<g>
</g>
<g>
</g>
<g>
</g>
<g>
</g>
<g>
</g>
<g>
</g>
<g>
</g>
<g>
</g>
<g>
</g>
</svg>
