<?xml version="1.0" encoding="iso-8859-1"?>
<!-- Generator: Adobe Illustrator 19.0.0, SVG Export Plug-In . SVG Version: 6.00 Build 0)  -->
<svg version="1.1" id="Capa_1" xmlns="http://www.w3.org/2000/svg" xmlns:xlink="http://www.w3.org/1999/xlink" x="0px" y="0px"
	 viewBox="0 0 512 512" style="enable-background:new 0 0 512 512;" xml:space="preserve">
<path style="fill:#DFE3E5;" d="M354.105,89.525h-196.21v122.338c0,54.182,43.923,98.105,98.105,98.105l0,0
	c54.182,0,98.105-43.923,98.105-98.105V89.525z"/>
<g>
	<ellipse style="fill:#F2937E;" cx="199.79" cy="144.19" rx="20.741" ry="16.517"/>
	<ellipse style="fill:#F2937E;" cx="312.21" cy="144.19" rx="20.741" ry="16.517"/>
</g>
<g>
	<path style="fill:#495059;" d="M211.877,135.214c-4.143,0-7.5-3.357-7.5-7.5v-7.324c0-4.143,3.357-7.5,7.5-7.5s7.5,3.357,7.5,7.5
		v7.324C219.377,131.856,216.02,135.214,211.877,135.214z"/>
	<path style="fill:#495059;" d="M300.124,135.214c-4.143,0-7.5-3.357-7.5-7.5v-7.324c0-4.143,3.357-7.5,7.5-7.5s7.5,3.357,7.5,7.5
		v7.324C307.624,131.856,304.267,135.214,300.124,135.214z"/>
	<path style="fill:#495059;" d="M256,140.839c-6.626,0-12.927-2.869-17.287-7.872c-2.722-3.123-2.396-7.86,0.727-10.582
		c3.122-2.721,7.86-2.396,10.582,0.726c1.511,1.733,3.689,2.728,5.979,2.728c2.29,0,4.468-0.994,5.978-2.728
		c2.722-3.123,7.457-3.448,10.582-0.726c3.122,2.722,3.448,7.459,0.727,10.582C268.927,137.97,262.626,140.839,256,140.839z"/>
</g>
<path style="opacity:0.1;enable-background:new    ;" d="M256,309.968L256,309.968c23.823,0,45.66-8.494,62.655-22.615
	c-120.722,4.783-126.167-126.347-125.524-176.89c0.047-3.683,3.044-6.639,6.728-6.639h154.246V89.525h-196.21v122.338
	C157.895,266.045,201.818,309.968,256,309.968z"/>
<g style="opacity:0.1;">
	<circle cx="215.77" cy="280.66" r="7.42"/>
	<circle cx="296.23" cy="280.66" r="7.42"/>
</g>
<path style="fill:#A28577;" d="M235.412,6.208l-97.6,64.754c-8.358,5.545-4.432,18.563,5.598,18.563h225.18
	c10.03,0,13.955-13.018,5.598-18.563l-97.6-64.754C264.111-2.069,247.889-2.069,235.412,6.208z"/>
<g>
	<path style="fill:#DDAF89;" d="M141.661,248.814l-31.159,242.405c-1.056,8.217,4.749,15.733,12.966,16.79
		c0.649,0.083,1.293,0.124,1.931,0.124c7.433,0,13.887-5.522,14.859-13.09l31.65-246.229H141.661z"/>
	<path style="fill:#DDAF89;" d="M370.339,248.814h-30.247l31.65,246.229c0.973,7.568,7.426,13.09,14.859,13.09
		c0.637,0,1.282-0.041,1.931-0.124c8.217-1.057,14.022-8.573,12.966-16.79L370.339,248.814z"/>
	<path style="fill:#DDAF89;" d="M241,248.814v244.317c0,8.284,6.716,15,15,15c8.284,0,15-6.716,15-15V248.814H241z"/>
</g>
<g>
	<path style="fill:#BEBFC0;" d="M277.351,483.651h-42.703c-5.393,0-9.765,4.372-9.765,9.765v8.819c0,5.393,4.372,9.765,9.765,9.765
		h42.703c5.393,0,9.765-4.372,9.765-9.765v-8.819C287.116,488.023,282.745,483.651,277.351,483.651z"/>
	<path style="fill:#BEBFC0;" d="M146.203,483.651H103.5c-5.393,0-9.765,4.372-9.765,9.765v8.819c0,5.393,4.372,9.765,9.765,9.765
		h42.703c5.393,0,9.765-4.372,9.765-9.765v-8.819C155.968,488.023,151.596,483.651,146.203,483.651z"/>
	<path style="fill:#BEBFC0;" d="M365.797,483.651H408.5c5.393,0,9.765,4.372,9.765,9.765v8.819c0,5.393-4.372,9.765-9.765,9.765
		h-42.703c-5.393,0-9.765-4.372-9.765-9.765v-8.819C356.032,488.023,360.404,483.651,365.797,483.651z"/>
</g>
<g>
	<path style="fill:#DDAF89;" d="M157.895,256.315c-4.143,0-7.5-3.358-7.5-7.5v-62.901c0-4.143,3.357-7.5,7.5-7.5s7.5,3.357,7.5,7.5
		v62.901C165.395,252.957,162.038,256.315,157.895,256.315z"/>
	<path style="fill:#DDAF89;" d="M206.947,256.315c-4.143,0-7.5-3.358-7.5-7.5v-62.901c0-4.143,3.357-7.5,7.5-7.5s7.5,3.357,7.5,7.5
		v62.901C214.447,252.957,211.09,256.315,206.947,256.315z"/>
	<path style="fill:#DDAF89;" d="M354.104,256.315c-4.143,0-7.5-3.358-7.5-7.5v-62.901c0-4.143,3.357-7.5,7.5-7.5s7.5,3.357,7.5,7.5
		v62.901C361.604,252.957,358.247,256.315,354.104,256.315z"/>
	<path style="fill:#DDAF89;" d="M305.053,256.315c-4.143,0-7.5-3.358-7.5-7.5v-62.901c0-4.143,3.357-7.5,7.5-7.5s7.5,3.357,7.5,7.5
		v62.901C312.553,252.957,309.195,256.315,305.053,256.315z"/>
	<path style="fill:#DDAF89;" d="M256,256.315c-4.143,0-7.5-3.358-7.5-7.5v-62.901c0-4.143,3.357-7.5,7.5-7.5
		c4.143,0,7.5,3.357,7.5,7.5v62.901C263.5,252.957,260.143,256.315,256,256.315z"/>
</g>
<g>
	<path style="fill:#A28577;" d="M377.962,263.815H134.038c-8.284,0-15-6.716-15-15s6.716-15,15-15h243.924c8.284,0,15,6.716,15,15
		C392.962,257.099,386.246,263.815,377.962,263.815z"/>
	<path style="fill:#A28577;" d="M377.962,200.913H134.038c-8.284,0-15-6.716-15-15s6.716-15,15-15h243.924c8.284,0,15,6.716,15,15
		S386.246,200.913,377.962,200.913z"/>
</g>
<path style="opacity:0.1;enable-background:new    ;" d="M238.452,4.416c-1.032,0.552-2.051,1.137-3.04,1.793l-97.6,64.754
	c-8.358,5.545-4.432,18.563,5.598,18.563h111.469C205.787,77.822,200.564,37.893,238.452,4.416z"/>
<polygon style="opacity:0.1;enable-background:new    ;" points="165.998,52.263 346.002,52.263 323.394,37.263 188.606,37.263 "/>
<path style="opacity:0.1;enable-background:new    ;" d="M103.5,512h30.644c-15.312-6.309-15.589-21.082-9.421-28.349H103.5
	c-5.393,0-9.765,4.372-9.765,9.765v8.819C93.735,507.628,98.107,512,103.5,512z"/>
<path style="opacity:0.1;enable-background:new    ;" d="M234.649,512h30.643c-15.312-6.309-15.589-21.082-9.421-28.349h-21.222
	c-5.393,0-9.765,4.372-9.765,9.765v8.819C224.884,507.628,229.256,512,234.649,512z"/>
<path style="opacity:0.1;enable-background:new    ;" d="M365.797,512h30.644c-15.312-6.309-15.589-21.082-9.421-28.349h-21.222
	c-5.393,0-9.765,4.372-9.765,9.765v8.819C356.032,507.628,360.404,512,365.797,512z"/>
<g>
</g>
<g>
</g>
<g>
</g>
<g>
</g>
<g>
</g>
<g>
</g>
<g>
</g>
<g>
</g>
<g>
</g>
<g>
</g>
<g>
</g>
<g>
</g>
<g>
</g>
<g>
</g>
<g>
</g>
</svg>
