<?xml version="1.0" encoding="iso-8859-1"?>
<!-- Generator: Adobe Illustrator 19.0.0, SVG Export Plug-In . SVG Version: 6.00 Build 0)  -->
<svg version="1.1" id="Capa_1" xmlns="http://www.w3.org/2000/svg" xmlns:xlink="http://www.w3.org/1999/xlink" x="0px" y="0px"
	 viewBox="0 0 512 512" style="enable-background:new 0 0 512 512;" xml:space="preserve">
<path style="fill:#DDAF89;" d="M108.681,495.523L53.338,201.197c-0.692-3.68-0.348-7.48,0.994-10.977l56.143-146.308
	c2.998-7.814,10.502-12.971,18.871-12.971h159.171c8.369,0,15.873,5.158,18.871,12.971l56.143,146.308
	c1.342,3.496,1.686,7.296,0.993,10.977l-55.341,294.325C307.386,505.078,299.041,512,289.318,512H128.545
	C118.822,512,110.477,505.078,108.681,495.523z"/>
<path style="fill:#A28577;" d="M132.277,467.203L82.753,203.825c-0.688-3.657-0.346-7.433,0.987-10.907l46.302-120.664
	c2.979-7.764,10.436-12.89,18.752-12.89h120.273c8.316,0,15.773,5.125,18.752,12.89l46.303,120.664
	c1.333,3.474,1.675,7.25,0.987,10.907l-49.523,263.378c-1.785,9.495-10.078,16.374-19.74,16.374h-113.83
	C142.355,483.577,134.062,476.698,132.277,467.203z"/>
<path style="opacity:0.2;enable-background:new    ;" d="M108.681,495.523L53.338,201.197c-0.692-3.68-0.348-7.48,0.994-10.977
	l56.143-146.308c2.998-7.814,10.502-12.971,18.871-12.971h159.171c8.369,0,15.873,5.158,18.871,12.971l56.143,146.308
	c1.342,3.496,1.686,7.296,0.993,10.977l-55.341,294.325C307.386,505.078,299.041,512,289.318,512H128.545
	C118.822,512,110.477,505.078,108.681,495.523z"/>
<path style="fill:#FFF0C0;" d="M217.609,265.295c27.875-39.783,21.598-144.784-27.521-193.428
	c-18.37-19.975-47.143-32.84-79.492-32.84c-55.473,0-100.442,37.822-100.442,84.477c0,32.094,21.28,60.008,52.621,74.305
	c43.611,21.783,82.942,17.059,93.777,58.466c7.474,28.565,0.368,66.426,52.646,95.339c5.289,2.925,11.151-2.764,8.33-8.109
	C207.268,324.068,198.168,293.041,217.609,265.295z"/>
<g>
	<ellipse style="fill:#F2937E;" cx="53.727" cy="129.62" rx="20.639" ry="16.435"/>
	<ellipse style="fill:#F2937E;" cx="165.59" cy="129.62" rx="20.639" ry="16.435"/>
</g>
<g>
	<path style="fill:#495059;" d="M57.177,117.716c-4.142,0-7.5-3.357-7.5-7.5v-8.858c0-4.143,3.358-7.5,7.5-7.5s7.5,3.357,7.5,7.5
		v8.858C64.677,114.358,61.319,117.716,57.177,117.716z"/>
	<path style="fill:#495059;" d="M162.145,117.716c-4.142,0-7.5-3.357-7.5-7.5v-8.858c0-4.143,3.358-7.5,7.5-7.5s7.5,3.357,7.5,7.5
		v8.858C169.645,114.358,166.287,117.716,162.145,117.716z"/>
	<ellipse style="fill:#495059;" cx="109.66" cy="116.99" rx="17.854" ry="21.08"/>
</g>
<path style="opacity:0.1;enable-background:new    ;" d="M209.198,351.614c5.289,2.925,11.151-2.764,8.329-8.109
	c-10.26-19.437-19.36-50.464,0.081-78.21c24.886-35.517,22.548-123.012-13.191-175.982l-25.143,34.615
	c-2.201,3.03-3.517,6.611-3.801,10.345l-12.159,159.819C167.927,313.867,177.96,334.338,209.198,351.614z"/>
<path style="fill:#DDAF89;" d="M176.551,444.093l22.72-298.62c0.284-3.734,1.6-7.316,3.801-10.345L295.169,8.335
	c4.919-6.771,13.501-9.811,21.585-7.645l153.748,41.197c8.084,2.166,13.997,9.09,14.871,17.414l16.362,155.854
	c0.391,3.724-0.26,7.484-1.881,10.86L370.221,495.986c-4.209,8.765-14.061,13.291-23.453,10.775L191.474,465.15
	C182.083,462.634,175.814,453.787,176.551,444.093z"/>
<path style="opacity:0.1;enable-background:new    ;" d="M458.521,184.634l-10.424-99.286c-0.538-5.126-4.179-9.389-9.157-10.723
	L327.719,44.823c-4.978-1.334-10.264,0.538-13.293,4.708l-58.67,80.772c-1.41,1.941-0.435,4.693,1.882,5.313l196.596,52.678
	C456.552,188.915,458.772,187.02,458.521,184.634z"/>
<path style="opacity:0.1;enable-background:new    ;" d="M235.611,192.365l-17.367,228.258c-0.454,5.97,3.406,11.418,9.19,12.967
	l103.973,27.859c5.783,1.55,11.851-1.238,14.442-6.635l99.089-206.36c1.697-3.534-0.235-7.74-4.022-8.755l-197.444-52.905
	C239.685,185.779,235.908,188.456,235.611,192.365z"/>
<g style="opacity:0.1;">
	<rect x="331.816" y="49.814" transform="matrix(-0.9659 -0.2589 0.2589 -0.9659 640.4645 289.8145)" width="15" height="105.84"/>
	
		<rect x="392.441" y="66.06" transform="matrix(-0.9659 -0.2589 0.2589 -0.9659 755.4396 337.4478)" width="14.999" height="105.84"/>
</g>
<g style="opacity:0.1;">
	
		<rect x="273.005" y="200.975" transform="matrix(-0.9659 -0.2588 0.2588 -0.9659 468.0533 706.1007)" width="15" height="242.533"/>
	
		<rect x="333.598" y="217.243" transform="matrix(-0.9659 -0.2589 0.2589 -0.9659 582.9231 753.7933)" width="14.999" height="242.539"/>
</g>
<path style="opacity:0.1;enable-background:new    ;" d="M296.555,6.651c-0.485,0.536-0.954,1.09-1.386,1.684l-92.097,126.792
	c-2.201,3.03-3.517,6.611-3.801,10.346l-22.72,298.62c-0.738,9.695,5.532,18.541,14.923,21.057l155.294,41.611
	c9.392,2.516,19.244-2.01,23.453-10.775l22.681-47.235C198.297,463.381,256.893,101.9,296.555,6.651z"/>
<g>
</g>
<g>
</g>
<g>
</g>
<g>
</g>
<g>
</g>
<g>
</g>
<g>
</g>
<g>
</g>
<g>
</g>
<g>
</g>
<g>
</g>
<g>
</g>
<g>
</g>
<g>
</g>
<g>
</g>
</svg>
