<?xml version="1.0" encoding="iso-8859-1"?>
<!-- Generator: Adobe Illustrator 19.0.0, SVG Export Plug-In . SVG Version: 6.00 Build 0)  -->
<svg version="1.1" id="Capa_1" xmlns="http://www.w3.org/2000/svg" xmlns:xlink="http://www.w3.org/1999/xlink" x="0px" y="0px"
	 viewBox="0 0 512.001 512.001" style="enable-background:new 0 0 512.001 512.001;" xml:space="preserve">
<rect x="41.534" y="91.911" style="fill:#DDAF89;" width="313.8" height="362.29"/>
<g style="opacity:0.15;">
	<path d="M232.769,213.252h-68.673c-3.611,0-6.539-2.928-6.539-6.539v-25.072c0-3.611,2.928-6.539,6.539-6.539h68.673
		c3.611,0,6.539,2.928,6.539,6.539v25.072C239.307,210.325,236.38,213.252,232.769,213.252z"/>
	<path d="M125.072,213.252H80.567c-3.611,0-6.539-2.928-6.539-6.539v-25.072c0-3.611,2.927-6.539,6.539-6.539h44.505
		c3.611,0,6.539,2.928,6.539,6.539v25.072C131.611,210.325,128.683,213.252,125.072,213.252z"/>
	<path d="M271.792,213.252h44.505c3.611,0,6.539-2.928,6.539-6.539v-25.072c0-3.611-2.928-6.539-6.539-6.539h-44.505
		c-3.611,0-6.539,2.928-6.539,6.539v25.072C265.253,210.325,268.181,213.252,271.792,213.252z"/>
</g>
<g>
	<ellipse style="fill:#FFFFFF;" cx="137.32" cy="145.461" rx="22.547" ry="17.956"/>
	<ellipse style="fill:#FFFFFF;" cx="259.54" cy="145.461" rx="22.547" ry="17.956"/>
</g>
<g>
	<path style="fill:#495059;" d="M150.465,135.047c-4.142,0-7.5-3.357-7.5-7.5v-7.962c0-4.143,3.358-7.5,7.5-7.5s7.5,3.357,7.5,7.5
		v7.962C157.965,131.69,154.607,135.047,150.465,135.047z"/>
	<path style="fill:#495059;" d="M246.399,135.047c-4.142,0-7.5-3.357-7.5-7.5v-7.962c0-4.143,3.358-7.5,7.5-7.5s7.5,3.357,7.5,7.5
		v7.962C253.899,131.69,250.541,135.047,246.399,135.047z"/>
	<path style="fill:#495059;" d="M198.432,141.161c-7.015,0-13.684-3.037-18.3-8.333c-2.722-3.122-2.396-7.86,0.726-10.582
		c3.122-2.721,7.859-2.396,10.582,0.727c1.766,2.026,4.315,3.188,6.993,3.188s5.226-1.162,6.992-3.188
		c2.722-3.123,7.459-3.448,10.582-0.727c3.123,2.722,3.448,7.459,0.727,10.582C212.117,138.124,205.447,141.161,198.432,141.161z"/>
</g>
<path style="opacity:0.1;enable-background:new    ;" d="M41.534,91.947v362.255h166.722
	C88.158,424.553,91.391,171.406,92.765,91.947H41.534z"/>
<path style="fill:#A28577;" d="M15.369,454.202c-9.286,0-15.286-9.721-11.238-18.079c6.722-13.882,20.945-23.455,37.403-23.455
	H355.33v41.534H15.369z"/>
<path style="fill:#DDAF89;" d="M355.33,91.947v320.721c-16.634,0-30.984,9.778-37.616,23.9c-3.857,8.214,2.367,17.633,11.441,17.633
	H455.35c8.348,0,15.116-6.768,15.116-15.116V91.947H355.33z"/>
<path style="opacity:0.15;enable-background:new    ;" d="M355.33,91.947v320.721c-16.634,0-30.984,9.778-37.616,23.9
	c-3.857,8.214,2.367,17.633,11.441,17.633H455.35c8.348,0,15.116-6.768,15.116-15.116V91.947H355.33z"/>
<g>
	<path style="fill:#FFF0C0;" d="M59.222,307.595H0v-17.38c0-8.459,6.857-15.316,15.316-15.316h43.906V307.595z"/>
	<rect x="59.22" y="274.901" style="fill:#FFF0C0;" width="59.22" height="32.696"/>
	<rect x="118.44" y="274.901" style="fill:#FFF0C0;" width="59.22" height="32.696"/>
	<rect x="177.66" y="274.901" style="fill:#FFF0C0;" width="59.22" height="32.696"/>
	<rect x="236.89" y="274.901" style="fill:#FFF0C0;" width="59.22" height="32.696"/>
	<path style="fill:#FFF0C0;" d="M355.33,307.595h-59.222v-32.696h43.906c8.459,0,15.316,6.857,15.316,15.316V307.595z"/>
</g>
<rect x="59.22" y="274.901" style="opacity:0.1;enable-background:new    ;" width="59.22" height="32.696"/>
<rect x="177.66" y="274.901" style="opacity:0.1;enable-background:new    ;" width="59.22" height="32.696"/>
<path style="opacity:0.1;enable-background:new    ;" d="M355.33,307.595h-59.222v-32.696h43.906
	c8.459,0,15.316,6.857,15.316,15.316V307.595z"/>
<g>
	<path style="fill:#495059;" d="M76.91,274.898H41.534v-13.839c0-4.334,3.514-7.848,7.848-7.848h19.68
		c4.334,0,7.848,3.514,7.848,7.848C76.91,261.059,76.91,274.898,76.91,274.898z"/>
	<path style="fill:#495059;" d="M195.353,274.898h-35.376v-13.839c0-4.334,3.514-7.848,7.848-7.848h19.68
		c4.334,0,7.848,3.514,7.848,7.848L195.353,274.898L195.353,274.898z"/>
	<path style="fill:#495059;" d="M254.575,274.898h-35.376v-13.839c0-4.334,3.514-7.848,7.848-7.848h19.68
		c4.334,0,7.848,3.514,7.848,7.848L254.575,274.898L254.575,274.898z"/>
</g>
<path style="fill:#A28577;" d="M355.33,360.24H22.073C9.883,360.24,0,350.357,0,338.166v-30.572h355.33V360.24z"/>
<path style="opacity:0.2;enable-background:new    ;" d="M355.33,360.24H22.073C9.883,360.24,0,350.357,0,338.166v-30.572h355.33
	V360.24z"/>
<g>
	<path style="fill:#A28577;" d="M355.33,91.947H9.786C4.381,91.947,0,87.566,0,82.161V67.586C0,62.182,4.381,57.8,9.786,57.8H355.33
		V91.947z"/>
	<path style="fill:#A28577;" d="M502.214,91.947H323.583c-5.404,0-9.786-4.381-9.786-9.786V67.586c0-5.404,4.381-9.786,9.786-9.786
		h178.632c5.404,0,9.786,4.381,9.786,9.786v14.575C512,87.566,507.619,91.947,502.214,91.947z"/>
</g>
<path style="opacity:0.2;enable-background:new    ;" d="M502.214,91.947H323.583c-5.404,0-9.786-4.381-9.786-9.786V67.586
	c0-5.404,4.381-9.786,9.786-9.786h178.632c5.404,0,9.786,4.381,9.786,9.786v14.575C512,87.566,507.619,91.947,502.214,91.947z"/>
<path style="fill:#495059;" d="M443.048,216.867c-0.719-4.079-4.605-6.801-8.689-6.083l-15.746,2.776
	c-3.585,0.632-6.198,3.746-6.198,7.386v33.876c-1.465-0.001-2.985,0.116-4.553,0.392c-11.128,1.962-20.148,10.462-20.148,18.985
	s9.021,13.842,20.148,11.88c11.128-1.962,20.148-10.462,20.148-18.985c0-1.265-0.221-2.449-0.595-3.559v-36.296l9.548-1.684
	C441.043,224.837,443.767,220.946,443.048,216.867z"/>
<g>
</g>
<g>
</g>
<g>
</g>
<g>
</g>
<g>
</g>
<g>
</g>
<g>
</g>
<g>
</g>
<g>
</g>
<g>
</g>
<g>
</g>
<g>
</g>
<g>
</g>
<g>
</g>
<g>
</g>
</svg>
