<?xml version="1.0" encoding="iso-8859-1"?>
<!-- Generator: Adobe Illustrator 19.0.0, SVG Export Plug-In . SVG Version: 6.00 Build 0)  -->
<svg version="1.1" id="Capa_1" xmlns="http://www.w3.org/2000/svg" xmlns:xlink="http://www.w3.org/1999/xlink" x="0px" y="0px"
	 viewBox="0 0 512 512" style="enable-background:new 0 0 512 512;" xml:space="preserve">
<path id="SVGCleanerId_0" style="fill:#DDAF89;" d="M397.889,512H114.111c-14.112,0-26.886-8.351-32.547-21.277l0,0
	c-65.531-149.621-65.531-319.824,0-469.445l0,0C87.225,8.351,99.999,0,114.111,0H397.89c14.112,0,26.886,8.351,32.547,21.277l0,0
	c65.531,149.621,65.531,319.824,0,469.445l0,0C424.775,503.649,412.001,512,397.889,512z"/>
<g>
	<path id="SVGCleanerId_0_1_" style="fill:#DDAF89;" d="M397.889,512H114.111c-14.112,0-26.886-8.351-32.547-21.277l0,0
		c-65.531-149.621-65.531-319.824,0-469.445l0,0C87.225,8.351,99.999,0,114.111,0H397.89c14.112,0,26.886,8.351,32.547,21.277l0,0
		c65.531,149.621,65.531,319.824,0,469.445l0,0C424.775,503.649,412.001,512,397.889,512z"/>
</g>
<path style="opacity:0.1;enable-background:new    ;" d="M353.882,512H158.118l-14.482-99.197
	c-15.181-103.984-15.181-209.622,0-313.605L158.118,0h195.764l14.482,99.197c15.181,103.984,15.181,209.621,0,313.605L353.882,512z"
	/>
<g>
	<ellipse style="fill:#FFFFFF;" cx="172.86" cy="267.41" rx="30.676" ry="24.429"/>
	<ellipse style="fill:#FFFFFF;" cx="339.14" cy="267.41" rx="30.676" ry="24.429"/>
</g>
<g>
	<path style="fill:#495059;" d="M177.99,246.061c-4.142,0-7.5-3.357-7.5-7.5v-13.167c0-4.143,3.358-7.5,7.5-7.5s7.5,3.357,7.5,7.5
		v13.167C185.49,242.704,182.132,246.061,177.99,246.061z"/>
	<path style="fill:#495059;" d="M256,270.862L256,270.862c-12.275,0-22.225-9.951-22.225-22.225v-16.158
		c0-3.351,2.716-6.067,6.067-6.067h32.316c3.351,0,6.067,2.716,6.067,6.067v16.158C278.225,260.911,268.275,270.862,256,270.862z"/>
	<path style="fill:#495059;" d="M334.01,246.061c-4.142,0-7.5-3.357-7.5-7.5v-13.167c0-4.143,3.358-7.5,7.5-7.5s7.5,3.357,7.5,7.5
		v13.167C341.51,242.704,338.152,246.061,334.01,246.061z"/>
</g>
<path style="opacity:0.1;enable-background:new    ;" d="M114.111,0C99.999,0,87.225,8.351,81.563,21.277l0,0
	c-65.531,149.621-65.531,319.824,0,469.445l0,0C87.225,503.649,99.999,512,114.111,512H281C105,385,101.1,144.642,135.989,0H114.111
	z"/>
<g style="opacity:0.1;">
	<path d="M421.622,179.714c-1.919,0-3.839-0.732-5.303-2.196c-2.929-2.93-2.929-7.678,0-10.607l16.106-16.105
		c2.929-2.928,7.678-2.928,10.606,0c2.929,2.93,2.929,7.678,0,10.607l-16.105,16.105
		C425.461,178.981,423.542,179.714,421.622,179.714z"/>
	<path d="M74.766,359.513c-1.919,0-3.839-0.732-5.303-2.197c-2.929-2.929-2.929-7.677,0-10.606l17.946-17.945
		c2.929-2.929,7.678-2.928,10.606,0.001c2.929,2.929,2.929,7.677,0,10.607l-17.946,17.945
		C78.605,358.78,76.685,359.513,74.766,359.513z"/>
	<path d="M87.985,305.849c-1.92,0-3.839-0.732-5.303-2.196c-2.929-2.929-2.929-7.678,0-10.606l10.476-10.477
		c2.929-2.93,7.678-2.929,10.606-0.001c2.929,2.929,2.929,7.678,0,10.606l-10.476,10.477
		C91.824,305.116,89.904,305.849,87.985,305.849z"/>
	<path d="M404.383,366.262c-1.919,0-3.839-0.732-5.303-2.196c-2.929-2.93-2.929-7.678,0-10.607l9.736-9.736
		c2.929-2.928,7.678-2.928,10.607,0c2.929,2.93,2.929,7.678,0,10.607l-9.736,9.736C408.222,365.529,406.302,366.262,404.383,366.262
		z"/>
</g>
<path style="fill:#DFE3E5;" d="M44.323,121.882h423.355c11.841,0,20.527-11.205,17.502-22.653c-2.514-9.511-5.26-18.973-8.24-28.376
	c-3.02-9.529-11.939-15.951-21.935-15.951H56.997c-9.996,0-18.915,6.423-21.935,15.951c-2.98,9.403-5.727,18.865-8.241,28.376
	C23.795,110.677,32.482,121.882,44.323,121.882z"/>
<path style="opacity:0.1;enable-background:new    ;" d="M142.746,54.902H56.997c-9.996,0-18.915,6.423-21.935,15.952
	c-2.98,9.403-5.727,18.865-8.24,28.376c-3.026,11.448,5.661,22.653,17.502,22.653H161.05
	C133.968,103.505,136.375,66.731,142.746,54.902z"/>
<g style="opacity:0.2;">
	<circle cx="256" cy="88.39" r="13.2"/>
	<circle cx="121.22" cy="88.39" r="13.2"/>
	<circle cx="390.77" cy="88.39" r="13.2"/>
</g>
<path style="fill:#DFE3E5;" d="M44.323,390.117h423.355c11.841,0,20.527,11.205,17.502,22.653c-2.514,9.511-5.26,18.973-8.24,28.376
	c-3.02,9.529-11.939,15.951-21.935,15.951H56.997c-9.996,0-18.915-6.423-21.935-15.951c-2.98-9.403-5.727-18.865-8.241-28.376
	C23.795,401.323,32.482,390.117,44.323,390.117z"/>
<path style="opacity:0.1;enable-background:new    ;" d="M44.323,390.117c-11.841,0-20.527,11.205-17.502,22.653
	c2.514,9.511,5.26,18.973,8.24,28.376c3.02,9.529,11.939,15.951,21.935,15.951h113.57c-30.243-15.747-30.437-51.846-24.906-66.98
	H44.323z"/>
<g style="opacity:0.2;">
	<circle cx="256" cy="423.61" r="13.2"/>
	<circle cx="121.22" cy="423.61" r="13.2"/>
	<circle cx="390.77" cy="423.61" r="13.2"/>
</g>
<g>
</g>
<g>
</g>
<g>
</g>
<g>
</g>
<g>
</g>
<g>
</g>
<g>
</g>
<g>
</g>
<g>
</g>
<g>
</g>
<g>
</g>
<g>
</g>
<g>
</g>
<g>
</g>
<g>
</g>
</svg>
