<?xml version="1.0" encoding="iso-8859-1"?>
<!-- Generator: Adobe Illustrator 19.0.0, SVG Export Plug-In . SVG Version: 6.00 Build 0)  -->
<svg version="1.1" id="Capa_1" xmlns="http://www.w3.org/2000/svg" xmlns:xlink="http://www.w3.org/1999/xlink" x="0px" y="0px"
	 viewBox="0 0 512 512" style="enable-background:new 0 0 512 512;" xml:space="preserve">
<path style="fill:#FFF0C0;" d="M492.151,195.386l14.22-13.475c3.594-3.405,5.629-8.138,5.629-13.089V88.136
	c0-9.306-7.544-16.849-16.849-16.849H382.224c-6.953,0-13.385,3.687-16.899,9.686l-4.746,8.103
	c-2.736,4.672-9.013,5.767-13.17,2.299l-16.561-13.814c-4.86-4.054-10.988-6.275-17.317-6.275H75.161L0,146.448v277.416
	c0,9.306,7.544,16.849,16.849,16.849h40.272c5.166,0,10.04-2.395,13.196-6.483l9.54-12.357c2.499-3.236,7.247-3.603,10.212-0.788
	l16.543,15.701c2.657,2.522,6.181,3.928,9.845,3.928h25.989c6.309,0,12.063-3.608,14.81-9.288l9.841-20.343
	c2.391-4.943,9.198-5.53,12.401-1.07l16.247,22.626c3.64,5.069,9.498,8.075,15.739,8.075H495.15c9.306,0,16.849-7.544,16.849-16.849
	V231.051c0-6.081-3.065-11.752-8.151-15.084l-10.469-6.859C488.638,206.002,488.037,199.285,492.151,195.386z"/>
<g>
	<path style="fill:#DC7070;" d="M435.691,216.73c-1.919,0-3.839-0.732-5.304-2.196l-59.167-59.167c-2.929-2.93-2.929-7.678,0-10.607
		c2.93-2.928,7.678-2.928,10.607,0l59.167,59.167c2.929,2.93,2.929,7.678,0,10.607C439.53,215.998,437.61,216.73,435.691,216.73z"/>
	<path style="fill:#DC7070;" d="M376.524,216.73c-1.919,0-3.839-0.732-5.304-2.196c-2.929-2.93-2.929-7.678,0-10.607l59.167-59.167
		c2.93-2.928,7.678-2.928,10.607,0c2.929,2.93,2.929,7.678,0,10.607l-59.167,59.167C380.363,215.998,378.443,216.73,376.524,216.73z
		"/>
</g>
<path style="fill:#A28577;" d="M202.501,251.759c-5.662-5.879-9.567-13.213-9.567-21.375v-71.96c0-7.069-5.731-12.8-12.8-12.8H124.3
	c-7.069,0-12.8,5.731-12.8,12.8v11.352c0,2.047-1.659,3.706-3.706,3.706H89.14c-6.033,0-10.924,4.891-10.924,10.924v72.103h122.26
	C202.957,256.509,204.209,253.532,202.501,251.759z"/>
<path style="opacity:0.1;enable-background:new    ;" d="M102.726,173.482H89.14c-6.034,0-10.925,4.891-10.925,10.924v72.103h68.882
	C113.787,246.612,104.076,196.631,102.726,173.482z"/>
<path style="fill:#DDAF89;" d="M142.893,252.029L142.893,252.029c-4.616-6.22-7.108-13.761-7.108-21.507V215.18
	c0-5.711-4.629-10.34-10.34-10.34h-62.91c-5.711,0-10.34,4.629-10.34,10.34v15.343c0,7.746-2.492,15.286-7.108,21.507l0,0
	c-1.374,1.852-0.052,4.479,2.254,4.479h93.298C142.945,256.509,144.267,253.882,142.893,252.029z"/>
<g style="opacity:0.1;">
	<path d="M139.645,183.815c-4.143,0-7.5-3.357-7.5-7.5v-9.225c0-4.143,3.357-7.5,7.5-7.5s7.5,3.357,7.5,7.5v9.225
		C147.145,180.458,143.788,183.815,139.645,183.815z"/>
	<path d="M167.541,223.082c-4.143,0-7.5-3.357-7.5-7.5v-18.16c0-4.143,3.357-7.5,7.5-7.5s7.5,3.357,7.5,7.5v18.16
		C175.041,219.725,171.684,223.082,167.541,223.082z"/>
	<path d="M100.84,228.954c4.143,0,7.5-3.357,7.5-7.5V204.84h-15v16.614C93.34,225.597,96.697,228.954,100.84,228.954z"/>
</g>
<g>
	<path style="fill:#495059;" d="M93.988,381.484c-0.906,0-1.828-0.165-2.724-0.515c-3.859-1.506-5.767-5.854-4.262-9.713
		c1.264-3.238,3.084-6.674,5.411-10.209c2.276-3.46,6.928-4.422,10.388-2.142c3.46,2.276,4.419,6.928,2.142,10.388
		c-1.75,2.659-3.084,5.153-3.966,7.414C99.821,379.672,96.988,381.484,93.988,381.484z"/>
	<path style="fill:#495059;" d="M405.166,238.906c-0.376,0-0.755-0.028-1.137-0.086c-4.096-0.623-6.91-4.447-6.288-8.542
		c0.448-2.949,0.742-6.024,0.873-9.139c0.174-4.138,3.688-7.349,7.808-7.179c4.139,0.174,7.353,3.669,7.179,7.808
		c-0.153,3.657-0.5,7.278-1.029,10.764C412.007,236.245,408.81,238.906,405.166,238.906z"/>
	<path style="fill:#495059;" d="M118.897,350.192c-1.922,0-3.843-0.733-5.307-2.199c-2.923-2.931-2.926-7.669,0-10.596
		c2.258-2.257,10.483-8.629,13.753-10.652c3.521-2.179,8.144-1.094,10.324,2.43c2.181,3.521,1.093,8.145-2.43,10.324
		c-2.553,1.58-9.787,7.258-11.041,8.506C122.732,349.463,120.814,350.192,118.897,350.192z"/>
	<path style="fill:#495059;" d="M155.915,325.772c-2.292,0-4.555-1.046-6.026-3.027c-2.47-3.325-1.777-8.022,1.548-10.493
		c2.925-2.173,17.162-8.976,22.248-10.418c3.986-1.126,8.132,1.185,9.262,5.17c1.13,3.985-1.185,8.132-5.17,9.262
		c-3.633,1.03-15.477,6.773-17.469,8.081C158.98,325.309,157.441,325.772,155.915,325.772z"/>
	<path style="fill:#495059;" d="M202.487,309.229c-3.164,0-6.105-2.018-7.133-5.19c-1.276-3.94,0.883-8.17,4.823-9.446
		c3.097-1.003,16.063-2.957,21.978-2.957c0.002,0,0.004,0,0.005,0c4.143,0.001,7.5,3.359,7.499,7.501s-3.358,7.499-7.5,7.499
		c-0.001,0-0.001,0-0.001,0c-0.001,0-0.003,0-0.004,0c-4.669,0-15.58,1.75-17.428,2.25
		C203.982,309.119,203.229,309.229,202.487,309.229z"/>
	<path style="fill:#495059;" d="M269.088,311.314c-0.328,0-0.659-0.022-0.993-0.066c-0.75-0.1-2.169-0.375-6.031-1.138
		c-3.573-0.705-10.955-2.162-12.608-2.324c-4.032-0.126-7.262-3.434-7.262-7.496c0-4.143,3.357-7.5,7.5-7.5
		c1.672,0,4.67,0.511,15.275,2.604c2.157,0.426,4.602,0.908,5.131,0.988c4.106,0.542,6.976,4.308,6.434,8.414
		C276.034,308.57,272.796,311.314,269.088,311.314z M249.527,307.788c0.064,0.002,0.121,0.004,0.166,0.002
		C249.638,307.79,249.583,307.789,249.527,307.788z"/>
	<path style="fill:#495059;" d="M296.217,313.092c-4.113,0-7.465-3.317-7.499-7.439c-0.034-4.142,3.296-7.527,7.439-7.561
		c2.64-0.021,15.335-0.436,19.549-1.127c4.089-0.677,7.943,2.102,8.613,6.189s-2.102,7.943-6.189,8.613
		c-6.226,1.02-21.704,1.323-21.85,1.324C296.259,313.092,296.237,313.092,296.217,313.092z"/>
	<path style="fill:#495059;" d="M344.667,305.574c-3.114,0-6.023-1.954-7.093-5.063c-1.347-3.917,0.737-8.185,4.654-9.531
		c4.362-1.499,13.712-5.186,15.651-6.525c3.222-2.542,7.899-2.026,10.484,1.177c2.601,3.224,2.097,7.945-1.127,10.547
		c-4.41,3.559-19.976,8.934-20.132,8.987C346.298,305.442,345.476,305.574,344.667,305.574z"/>
	<path style="fill:#495059;" d="M384.909,280.876c-1.832,0-3.668-0.667-5.113-2.015c-3.028-2.824-3.194-7.567-0.373-10.597
		c1.818-1.974,8.458-9.961,9.93-13.293c1.673-3.789,6.104-5.504,9.891-3.83c3.789,1.673,5.504,6.102,3.83,9.891
		c-2.949,6.68-12.583,17.357-12.677,17.459C388.919,280.075,386.917,280.876,384.909,280.876z"/>
</g>
<path style="fill:#84AC83;" d="M437.544,409.488c4.236,0,8.182-2.17,10.462-5.74c30.805-48.224,12.243-82.564-22.877-82.564
	s-53.683,34.34-22.877,82.564c2.28,3.57,6.227,5.74,10.462,5.74H437.544z"/>
<path style="opacity:0.1;enable-background:new    ;" d="M412.714,409.488h22.831c-28.4-12.845-36.041-63.093-29.763-84.087
	c-21.332,10.561-27.975,40.081-3.531,78.347C404.532,407.318,408.478,409.488,412.714,409.488z"/>
<g>
	<path style="fill:#495059;" d="M446.332,357.255c-1.919,0-3.839-0.732-5.304-2.196c-2.929-2.93-2.929-7.678,0-10.607l17.285-17.285
		c2.93-2.928,7.678-2.928,10.607,0c2.929,2.93,2.929,7.678,0,10.607l-17.285,17.285
		C450.171,356.522,448.251,357.255,446.332,357.255z"/>
	<path style="fill:#495059;" d="M396.109,383.19c-1.919,0-3.839-0.733-5.304-2.196l-14.042-14.042c-2.929-2.93-2.929-7.678,0-10.607
		c2.93-2.928,7.678-2.928,10.607,0l14.042,14.042c2.929,2.93,2.929,7.678,0,10.607C399.948,382.457,398.028,383.19,396.109,383.19z"
		/>
</g>
<path style="fill:#84AC83;" d="M272.627,174.183c2.336,0,4.513-1.197,5.771-3.166c16.991-26.599,6.753-45.54-12.618-45.54
	s-29.61,18.941-12.618,45.54c1.258,1.969,3.434,3.166,5.771,3.166H272.627z"/>
<path style="opacity:0.1;enable-background:new    ;" d="M258.931,174.183h9.446c-13.165-6.715-15.592-33.83-12.365-46.801
	c-12.475,5.428-16.674,21.997-2.852,43.635C254.418,172.986,256.595,174.183,258.931,174.183z"/>
<g>
	<path style="fill:#495059;" d="M284.404,151.722c-1.919,0-3.838-0.732-5.303-2.196c-2.93-2.929-2.93-7.678-0.001-10.607l6.95-6.951
		c2.93-2.93,7.677-2.929,10.606-0.001c2.93,2.929,2.93,7.678,0.001,10.606l-6.95,6.951
		C288.243,150.989,286.323,151.722,284.404,151.722z"/>
	<path style="fill:#495059;" d="M253.115,144.517c-4.143,0-7.5-3.357-7.5-7.5V126.37c0-4.143,3.357-7.5,7.5-7.5
		c4.143,0,7.5,3.357,7.5,7.5v10.647C260.615,141.159,257.258,144.517,253.115,144.517z"/>
</g>
<path style="opacity:0.1;enable-background:new    ;" d="M72.753,204.84H62.535c-5.711,0-10.34,4.629-10.34,10.34v15.343
	c0,7.746-2.492,15.286-7.108,21.506l0,0c-1.374,1.852-0.052,4.479,2.254,4.479h45.435C75.712,244.413,73.136,215.741,72.753,204.84z
	"/>
<path style="opacity:0.1;enable-background:new    ;" d="M127.715,71.286H75.161L0,146.448v277.416
	c0,9.306,7.544,16.849,16.85,16.849h40.272c5.166,0,10.04-2.395,13.196-6.483l9.54-12.357c2.499-3.236,7.247-3.603,10.213-0.788
	l16.543,15.701c2.657,2.522,6.181,3.928,9.845,3.928h25.989c6.309,0,12.063-3.608,14.81-9.288l9.84-20.343
	c2.391-4.943,9.198-5.53,12.401-1.07l16.247,22.626c3.64,5.069,9.498,8.075,15.739,8.075h34.814
	C106.015,311.224,107.836,154.547,127.715,71.286z"/>
<g style="opacity:0.1;">
	<path d="M287.88,408.905c-1.919,0-3.839-0.732-5.303-2.196c-2.93-2.929-2.93-7.678-0.001-10.607l17.242-17.243
		c2.93-2.93,7.679-2.929,10.606-0.001c2.93,2.929,2.93,7.678,0.001,10.606l-17.242,17.243
		C291.719,408.173,289.799,408.905,287.88,408.905z"/>
	<path d="M296.501,372.837c-1.919,0-3.839-0.732-5.303-2.196c-2.93-2.929-2.93-7.678-0.001-10.606l12.807-12.808
		c2.93-2.93,7.679-2.929,10.607-0.001c2.93,2.929,2.93,7.678,0.001,10.606l-12.807,12.808
		C300.34,372.104,298.42,372.837,296.501,372.837z"/>
	<path d="M47.749,328.685c-1.919,0-3.839-0.733-5.304-2.196c-2.929-2.93-2.929-7.678,0-10.607l16.538-16.538
		c2.93-2.928,7.678-2.928,10.607,0c2.929,2.93,2.929,7.678,0,10.607l-16.538,16.538C51.588,327.952,49.668,328.685,47.749,328.685z"
		/>
	<path d="M171.21,113.37c-1.919,0-3.839-0.732-5.303-2.196c-2.93-2.929-2.93-7.678-0.001-10.606l10.886-10.887
		c2.93-2.93,7.679-2.929,10.606-0.001c2.93,2.929,2.93,7.678,0.001,10.606l-10.886,10.887
		C175.049,112.638,173.129,113.37,171.21,113.37z"/>
</g>
<path style="fill:#DDAF89;" d="M59.973,142.636L59.973,142.636c-14.7-3.689-30.084-3.689-44.784,0L0,146.448l0,0
	c0-41.511,33.651-75.162,75.161-75.162l0,0L72.24,86.671c-2.786,14.666-2.786,29.726,0,44.392l0,0
	C73.603,138.243,67.061,144.415,59.973,142.636z"/>
<g>
</g>
<g>
</g>
<g>
</g>
<g>
</g>
<g>
</g>
<g>
</g>
<g>
</g>
<g>
</g>
<g>
</g>
<g>
</g>
<g>
</g>
<g>
</g>
<g>
</g>
<g>
</g>
<g>
</g>
</svg>
