<?xml version="1.0" encoding="iso-8859-1"?>
<!-- Generator: Adobe Illustrator 19.0.0, SVG Export Plug-In . SVG Version: 6.00 Build 0)  -->
<svg version="1.1" id="Capa_1" xmlns="http://www.w3.org/2000/svg" xmlns:xlink="http://www.w3.org/1999/xlink" x="0px" y="0px"
	 viewBox="0 0 512 512" style="enable-background:new 0 0 512 512;" xml:space="preserve">
<rect x="335.52" y="383.17" style="fill:#DDAF89;" width="35.484" height="75.45"/>
<path style="fill:#F7CF66;" d="M383.544,512h-60.563c-9.19,0-16.668-7.478-16.668-16.669v-27.54c0-9.19,7.478-16.668,16.668-16.668
	h60.563c9.191,0,16.669,7.478,16.669,16.668v27.54C400.213,504.522,392.735,512,383.544,512z M322.981,466.123
	c-0.92,0-1.668,0.748-1.668,1.668v27.54c0,0.92,0.748,1.669,1.668,1.669h60.563c0.92,0,1.669-0.749,1.669-1.669v-27.54
	c0-0.92-0.749-1.668-1.669-1.668H322.981z"/>
<path id="SVGCleanerId_0" style="fill:#DDAF89;" d="M457.96,127.998v67.871c0,23.408,2.669,46.74,7.956,69.544l0,0
	c17.039,73.497-38.768,143.722-114.215,143.722h-31.723c-55.323,0-100.171-44.848-100.171-100.171l0,0
	c0-21.775-15.284-40.559-36.604-44.987l-90.988-18.896c-28.663-5.953-49.211-31.207-49.211-60.482v-59.221
	c0-24.38,19.764-44.144,44.144-44.144h324.049C437.024,81.235,457.96,102.171,457.96,127.998z"/>
<g>
	<path id="SVGCleanerId_0_1_" style="fill:#DDAF89;" d="M457.96,127.998v67.871c0,23.408,2.669,46.74,7.956,69.544l0,0
		c17.039,73.497-38.768,143.722-114.215,143.722h-31.723c-55.323,0-100.171-44.848-100.171-100.171l0,0
		c0-21.775-15.284-40.559-36.604-44.987l-90.988-18.896c-28.663-5.953-49.211-31.207-49.211-60.482v-59.221
		c0-24.38,19.764-44.144,44.144-44.144h324.049C437.024,81.235,457.96,102.171,457.96,127.998z"/>
</g>
<path style="fill:#A28577;" d="M351.701,409.135h-31.724c-54.81,0-99.311-44.027-100.132-98.641
	c171.012,74.613,222.735-40.882,238.114-126.545v11.919c0,23.408,2.669,46.74,7.956,69.544l0,0
	C482.955,338.91,427.148,409.135,351.701,409.135z"/>
<path style="opacity:0.1;enable-background:new    ;" d="M193.895,81.235H87.148c-24.38,0-44.144,19.764-44.144,44.144V184.6
	c0,29.275,20.549,54.529,49.212,60.482l90.988,18.896c21.32,4.428,36.604,23.212,36.604,44.987l0,0
	c0,55.323,44.848,100.171,100.171,100.171h31.723c41.246,0,76.621-20.988,97.435-52.025
	C284.601,401.54,198.607,200.172,193.895,81.235z"/>
<path style="fill:#A28577;" d="M141.155,24.065l23.544,74.459h-45.741c-15.595,0-28.237-12.642-28.237-28.237V21.703
	c0-15.538,15.865-26.031,30.164-19.951l0,0C130.575,5.873,137.981,14.024,141.155,24.065z"/>
<path style="opacity:0.1;enable-background:new    ;" d="M141.155,24.065l23.544,74.459h-45.741
	c-15.595,0-28.237-12.642-28.237-28.237V21.703c0-15.538,15.865-26.031,30.164-19.951l0,0
	C130.575,5.873,137.981,14.024,141.155,24.065z"/>
<path style="opacity:0.1;enable-background:new    ;" d="M118.957,98.524h28.442c-39.111-17.667-40.954-71.989-41.245-97.59
	C97.482,3.57,90.721,11.56,90.721,21.703v48.584C90.721,85.882,103.363,98.524,118.957,98.524z"/>
<path style="fill:#A28577;" d="M160.065,156.105h222.961c19.521,0,35.345-15.825,35.345-35.345V93.403
	c0-22.877-20.181-40.5-42.849-37.418l-93.058,12.651c-35.42,4.815-71.41,3.375-106.332-4.255l-27.621-6.035
	c-19.255-4.207-37.468,10.457-37.468,30.166v18.572C111.043,134.158,132.991,156.105,160.065,156.105z"/>
<path style="fill:#DDAF89;" d="M354.235,88.07h23.108c8.488,0,15.369-6.881,15.369-15.369V33.044
	c0-14.869-12.054-26.923-26.923-26.923l0,0c-14.869,0-26.923,12.054-26.923,26.923v39.657
	C338.866,81.189,345.747,88.07,354.235,88.07z"/>
<path style="opacity:0.1;enable-background:new    ;" d="M214.855,121.168c23.067,0,40.267-4.412,52.692-13.184
	c12.421-8.768,20.05-22.084,23.19-40.474l-8.274,1.125c-2.462,0.335-4.927,0.632-7.395,0.906
	c-2.77,11.96-8.041,20.449-16.172,26.189c-22.474,15.862-70.882,13.427-147.847-7.463c-0.001,0.082-0.007,0.162-0.007,0.244v15.29
	C154.433,115.402,188.484,121.168,214.855,121.168z"/>
<circle style="fill:#F7CF66;" cx="101.62" cy="188.91" r="19.394"/>
<g>
</g>
<g>
</g>
<g>
</g>
<g>
</g>
<g>
</g>
<g>
</g>
<g>
</g>
<g>
</g>
<g>
</g>
<g>
</g>
<g>
</g>
<g>
</g>
<g>
</g>
<g>
</g>
<g>
</g>
</svg>
