<?xml version="1.0" encoding="iso-8859-1"?>
<!-- Generator: Adobe Illustrator 19.0.0, SVG Export Plug-In . SVG Version: 6.00 Build 0)  -->
<svg version="1.1" id="Capa_1" xmlns="http://www.w3.org/2000/svg" xmlns:xlink="http://www.w3.org/1999/xlink" x="0px" y="0px"
	 viewBox="0 0 511.999 511.999" style="enable-background:new 0 0 511.999 511.999;" xml:space="preserve">
<path style="fill:#DDAF89;" d="M160.233,260.384c-10.162-3.791-20.341-7.767-30.527-12.057
	c-32.013-13.484-64.291-30.183-89.105-54.949C22.94,175.751,9.915,153.599,4.109,129.065c-5.177-22.073-4.941-44.996-2.162-67.385
	c0.905-7.288,7.546-12.462,14.834-11.557c6.223,0.772,10.904,5.727,11.577,11.695l0.021,0.208
	c2.196,19.471,6.596,38.238,14.483,53.566c16.135,31.357,48.909,45.215,81.515,53.002c18.48,4.413,37.361,7.188,56.21,9.457
	c23.427,2.821,40.131,24.099,37.31,47.526s-24.099,40.131-47.526,37.31c-3.358-0.404-6.577-1.188-9.621-2.302L160.233,260.384z"/>
<path style="opacity:0.1;enable-background:new    ;" d="M218.115,217.818C41.061,237.668,9.844,121.211,9.067,51.492
	c-3.775,1.944-6.558,5.656-7.12,10.188c-2.779,22.389-3.015,45.312,2.162,67.385c5.806,24.534,18.831,46.686,36.491,64.312
	c24.815,24.766,57.092,41.465,89.105,54.949c10.186,4.29,20.365,8.266,30.527,12.058l0.517,0.203
	c3.044,1.115,6.263,1.898,9.621,2.302c23.427,2.821,44.705-13.883,47.526-37.31C218.213,222.956,218.271,220.363,218.115,217.818z"
	/>
<path style="fill:#DDAF89;" d="M351.767,260.384c10.162-3.791,20.341-7.767,30.527-12.057
	c32.013-13.484,64.291-30.183,89.105-54.949c17.661-17.626,30.686-39.778,36.491-64.312c5.177-22.073,4.941-44.996,2.162-67.385
	c-0.905-7.288-7.546-12.462-14.834-11.557c-6.223,0.772-10.904,5.727-11.577,11.695l-0.021,0.208
	c-2.196,19.471-6.596,38.238-14.483,53.566c-16.135,31.357-48.909,45.215-81.515,53.002c-18.48,4.413-37.361,7.188-56.21,9.457
	c-23.427,2.821-40.131,24.099-37.31,47.526s24.099,40.131,47.526,37.31c3.358-0.404,6.577-1.188,9.621-2.302L351.767,260.384z"/>
<path style="opacity:0.1;enable-background:new    ;" d="M410.018,213.677c-34.047,14.595-40.243-19.416-39.217-41.519
	c-13.047,2.464-26.224,4.31-39.387,5.895c-23.427,2.821-40.131,24.099-37.31,47.526s24.099,40.131,47.526,37.31
	c3.358-0.404,6.577-1.188,9.621-2.302l0.517-0.203c10.162-3.791,20.341-7.767,30.527-12.058
	c32.013-13.484,64.291-30.183,89.105-54.949c17.661-17.626,30.686-39.778,36.491-64.312c0.985-4.198,1.771-8.426,2.384-12.676
	C490.244,166.719,445.773,198.35,410.018,213.677z"/>
<g style="opacity:0.1;">
	<path d="M397.436,220.216c-1.919,0-3.839-0.732-5.304-2.196c-2.929-2.93-2.929-7.678,0-10.607l10.607-10.607
		c2.93-2.928,7.678-2.928,10.607,0c2.929,2.93,2.929,7.678,0,10.607l-10.606,10.606
		C401.274,219.483,399.355,220.216,397.436,220.216z"/>
	<path d="M477.873,154.356c-1.919,0-3.839-0.732-5.304-2.196c-2.929-2.93-2.929-7.678,0-10.607l6.687-6.686
		c2.93-2.928,7.678-2.928,10.607,0c2.929,2.93,2.929,7.678,0,10.607l-6.686,6.687C481.712,153.624,479.792,154.356,477.873,154.356z
		"/>
</g>
<path style="fill:#FFF0C0;" d="M249.115,445.86c3.304-4.848,10.466-4.848,13.77,0c5.81,8.526,13.208,16.118,19.983,16.118
	c19.099,0,40.571-42.176,46.647-89.79c5.77-45.216,44.352-54.42,39.093-126.307C362.255,159.055,304.256,134.696,256,134.696
	s-106.255,24.36-112.607,111.186c-5.259,71.887,33.323,81.091,39.093,126.307c6.076,47.613,27.548,89.79,46.647,89.79
	C235.908,461.978,243.305,454.385,249.115,445.86z"/>
<g style="opacity:0.2;">
	<ellipse transform="matrix(-0.1782 -0.984 0.984 -0.1782 -47.6421 502.518)" cx="186.022" cy="271.154" rx="32.47" ry="21.22"/>
	<ellipse transform="matrix(-0.1782 0.984 -0.984 -0.1782 650.8685 -1.2697)" cx="325.964" cy="271.158" rx="32.47" ry="21.22"/>
	<path d="M256,427.327c25.952,0,31.444-27.301,32.592-40.084c0.23-2.559-2.687-4.168-4.725-2.603l-9.822,7.538
		c-2.364,1.814-5.804,0.905-6.963-1.84l-8.45-20.012c-0.983-2.328-4.282-2.328-5.265,0l-8.45,20.012
		c-1.159,2.745-4.599,3.654-6.963,1.84l-9.822-7.538c-2.039-1.564-4.955,0.044-4.725,2.603
		C224.556,400.025,230.048,427.327,256,427.327z"/>
</g>
<path style="opacity:0.1;enable-background:new    ;" d="M274.461,135.916l-10.044,29.966c-0.632,1.887-0.489,3.946,0.397,5.727
	l15.712,31.552l-5.262,16.237c-1.277,3.941,0.882,8.17,4.822,9.447c0.769,0.249,1.548,0.367,2.315,0.367
	c3.163,0,6.104-2.018,7.133-5.19l3.252-10.036l9.757,6.061c1.232,0.765,2.6,1.13,3.951,1.13c2.507,0,4.957-1.257,6.378-3.543
	c2.185-3.518,1.105-8.143-2.413-10.329l-16.089-9.996l-14.743-29.607l9.68-28.88C284.378,137.543,279.409,136.582,274.461,135.916z"
	/>
<path style="opacity:0.1;enable-background:new    ;" d="M230.982,413.05c-5.2-8.614-6.977-19.167-7.574-25.807
	c-0.199-2.221,1.97-3.722,3.879-3.06c-3.25-20.383-8.891-43.809-21.025-67.845c-2.78-5.507-5.267-11.036-7.516-16.568
	c-2.037,1.71-4.367,2.869-6.936,3.334c-11.531,2.088-23.469-10.523-26.665-28.169s3.561-33.643,15.092-35.732
	c1.282-0.232,2.568-0.273,3.848-0.155c-3.002-37.687,5.741-71.78,23.281-95.072c-32.21,13.529-59.712,43.662-63.973,101.905
	c-5.259,71.887,33.323,81.091,39.093,126.307c6.076,47.613,27.548,89.79,46.647,89.79c5.516,0,11.445-5.034,16.594-11.506
	C235.367,448.703,233.4,434.47,230.982,413.05z"/>
<g style="opacity:0.1;">
	<path d="M114.083,230.027c-1.919,0-3.839-0.732-5.303-2.196c-2.929-2.93-2.929-7.678,0-10.607l10.666-10.666
		c2.929-2.928,7.678-2.928,10.607,0c2.929,2.93,2.929,7.678,0,10.607l-10.666,10.666
		C117.921,229.295,116.002,230.027,114.083,230.027z"/>
	<path d="M111,200.069c-1.919,0-3.838-0.732-5.303-2.196c-2.929-2.929-2.929-7.678,0-10.606l5.97-5.971
		c2.929-2.93,7.677-2.929,10.607-0.001c2.929,2.929,2.929,7.678,0.001,10.606l-5.97,5.971
		C114.839,199.337,112.919,200.069,111,200.069z"/>
</g>
<g style="opacity:0.1;">
	<path d="M214.267,210.059c-1.919,0-3.839-0.732-5.303-2.196c-2.929-2.93-2.929-7.678,0-10.607l11.052-11.052
		c2.929-2.928,7.678-2.928,10.607,0c2.929,2.93,2.929,7.678,0,10.607l-11.052,11.052
		C218.106,209.326,216.186,210.059,214.267,210.059z"/>
	<path d="M280.066,341.319c-1.92,0-3.839-0.732-5.304-2.197c-2.929-2.929-2.929-7.678,0.001-10.606l14.711-14.71
		c2.929-2.929,7.678-2.928,10.607,0.001c2.929,2.929,2.929,7.678-0.001,10.607l-14.711,14.71
		C283.905,340.587,281.985,341.319,280.066,341.319z"/>
</g>
<g>
</g>
<g>
</g>
<g>
</g>
<g>
</g>
<g>
</g>
<g>
</g>
<g>
</g>
<g>
</g>
<g>
</g>
<g>
</g>
<g>
</g>
<g>
</g>
<g>
</g>
<g>
</g>
<g>
</g>
</svg>
