<?xml version="1.0" encoding="iso-8859-1"?>
<!-- Generator: Adobe Illustrator 19.0.0, SVG Export Plug-In . SVG Version: 6.00 Build 0)  -->
<svg version="1.1" id="Capa_1" xmlns="http://www.w3.org/2000/svg" xmlns:xlink="http://www.w3.org/1999/xlink" x="0px" y="0px"
	 viewBox="0 0 512 512" style="enable-background:new 0 0 512 512;" xml:space="preserve">
<path style="fill:#DC7070;" d="M449.571,311.365c-12.821,31.537-35.846,41.13-56.092,32.899
	c-20.246-8.231-30.046-31.168-17.226-62.705c12.821-31.537,45.945-65.973,66.191-57.743S462.392,279.828,449.571,311.365z"/>
<path style="opacity:0.2;enable-background:new    ;" d="M449.571,311.365c-12.821,31.537-35.846,41.13-56.092,32.899
	c-20.246-8.231-30.046-31.168-17.226-62.705c12.821-31.537,45.945-65.973,66.191-57.743S462.392,279.828,449.571,311.365z"/>
<path style="fill:#DC7070;" d="M436.979,379.148c-33.932,2.748-52.863-13.495-54.627-35.278
	c-1.764-21.784,14.307-40.86,48.239-43.608c33.932-2.748,79.593,11.33,81.357,33.114C513.712,355.159,470.911,376.4,436.979,379.148
	z"/>
<path style="opacity:0.1;enable-background:new    ;" d="M436.979,379.148c-33.932,2.748-52.863-13.495-54.627-35.278
	c-1.764-21.784,14.307-40.86,48.239-43.608c33.932-2.748,79.593,11.33,81.357,33.114C513.712,355.159,470.911,376.4,436.979,379.148
	z"/>
<path style="fill:#DC7070;" d="M301.829,281.653L301.829,281.653c7.86,3.431,16.14,5.805,24.624,7.058l83.202,12.29
	c14.372,2.123,23.459,16.747,18.762,30.495c-20.503,60.008-71.119,96.453-92.918,105.059c-22.331,8.816-56.878,70.889-86.774,70.889
	s-47.577-51.291-86.774-70.889c-20.942-10.471-72.111-45.447-92.821-104.976c-4.787-13.76,4.317-28.459,18.729-30.588l83.138-12.28
	c8.484-1.253,16.764-3.627,24.624-7.058l0,0C229.481,266.871,267.97,266.871,301.829,281.653z"/>
<path style="fill:#A28577;" d="M241.556,171.267c45.387,0,109.207-3.946,162.232-8.861l-45.774-138.34
	c-4.668-14.108-19.411-22.243-33.835-18.67l-43.931,10.882c-20.563,5.094-42.059,5.094-62.622,0L173.695,5.397
	c-14.424-3.573-29.167,4.562-33.835,18.67l-46.198,139.62C143.525,167.988,200.191,171.267,241.556,171.267z"/>
<g>
	<path style="fill:#F2937E;" d="M384.694,104.699c-46.856,3.838-98.392,6.683-135.969,6.683c-37.467,0-88.81-2.829-135.556-6.65
		l-19.507,58.954c49.863,4.301,106.529,7.581,147.894,7.581c45.387,0,109.207-3.946,162.232-8.861L384.694,104.699z"/>
	<ellipse style="fill:#F2937E;" cx="180.521" cy="79.271" rx="25.17" ry="20.04"/>
	<ellipse style="fill:#F2937E;" cx="316.931" cy="79.271" rx="25.16" ry="20.04"/>
</g>
<g>
	<path style="fill:#495059;" d="M195.189,66.782c-4.142,0-7.5-3.358-7.5-7.5v-8.887c0-4.142,3.358-7.5,7.5-7.5s7.5,3.358,7.5,7.5
		v8.887C202.689,63.425,199.331,66.782,195.189,66.782z"/>
	<path style="fill:#495059;" d="M302.262,66.782c-4.142,0-7.5-3.358-7.5-7.5v-8.887c0-4.142,3.358-7.5,7.5-7.5s7.5,3.358,7.5,7.5
		v8.887C309.762,63.425,306.404,66.782,302.262,66.782z"/>
	<path style="fill:#495059;" d="M248.726,73.606c-7.577,0-14.782-3.281-19.768-9.002c-2.722-3.122-2.396-7.859,0.725-10.581
		c3.123-2.722,7.86-2.397,10.582,0.725c2.137,2.451,5.221,3.858,8.461,3.858s6.324-1.406,8.461-3.858
		c2.722-3.122,7.46-3.447,10.582-0.725s3.447,7.459,0.726,10.581C263.508,70.325,256.302,73.606,248.726,73.606z"/>
	<path style="fill:#495059;" d="M200.707,54.202c-1.919,0-3.839-0.732-5.303-2.196l-8.898-8.899c-2.929-2.93-2.929-7.678,0-10.607
		c2.929-2.928,7.678-2.928,10.606,0l8.898,8.899c2.929,2.93,2.929,7.678,0,10.607C204.545,53.47,202.626,54.202,200.707,54.202z"/>
	<path style="fill:#495059;" d="M296.745,54.202c-1.919,0-3.839-0.732-5.303-2.196c-2.929-2.93-2.929-7.678,0-10.607l8.898-8.899
		c2.929-2.928,7.678-2.928,10.606,0c2.929,2.93,2.929,7.678,0,10.607l-8.898,8.899C300.583,53.47,298.664,54.202,296.745,54.202z"/>
</g>
<path style="opacity:0.1;enable-background:new    ;" d="M180.042,6.969l-6.347-1.572c-14.424-3.573-29.167,4.562-33.835,18.67
	l-46.198,139.62c49.863,4.301,106.529,7.581,147.894,7.581C182.658,151.086,173.468,52.984,180.042,6.969z"/>
<path style="fill:#A28577;" d="M248.725,196.192c-66.601,0-171.244-8.24-227.194-15.937c-13.636-1.876-23.17-14.451-21.295-28.087
	c1.876-13.633,14.448-23.158,28.087-21.291c53.198,7.318,156.798,15.47,220.402,15.47s167.204-8.152,220.402-15.47
	c13.635-1.866,26.211,7.655,28.087,21.291s-7.658,26.211-21.295,28.087C419.97,187.952,315.326,196.192,248.725,196.192z"/>
<path style="opacity:0.1;enable-background:new    ;" d="M158.239,142.96c-48.446-3.051-98.161-7.716-129.916-12.084
	c-13.639-1.866-26.211,7.659-28.087,21.292c-1.876,13.636,7.659,26.211,21.295,28.087c37.298,5.131,96.233,10.503,151.114,13.514
	C146.968,179.233,147.841,152.348,158.239,142.96z"/>
<g>
	<path style="fill:#F2937E;" d="M129.463,350.833c-1.919,0-3.839-0.732-5.303-2.196c-2.929-2.93-2.929-7.678,0-10.607l16.591-16.591
		c2.929-2.928,7.678-2.928,10.606,0c2.929,2.93,2.929,7.678,0,10.607l-16.591,16.591
		C133.302,350.101,131.383,350.833,129.463,350.833z"/>
	<path style="fill:#F2937E;" d="M146.054,350.833c-1.919,0-3.839-0.732-5.303-2.196l-16.591-16.591
		c-2.929-2.93-2.929-7.678,0-10.607c2.929-2.928,7.678-2.928,10.606,0l16.591,16.591c2.929,2.93,2.929,7.678,0,10.607
		C149.893,350.101,147.974,350.833,146.054,350.833z"/>
	<path style="fill:#F2937E;" d="M180.701,413.096c-1.919,0-3.839-0.732-5.303-2.196c-2.929-2.93-2.929-7.678,0-10.607l16.591-16.591
		c2.929-2.928,7.678-2.928,10.606,0c2.929,2.93,2.929,7.678,0,10.607L186.004,410.9C184.54,412.363,182.62,413.096,180.701,413.096z
		"/>
	<path style="fill:#F2937E;" d="M197.291,413.096c-1.919,0-3.839-0.732-5.303-2.196l-16.591-16.591
		c-2.929-2.93-2.929-7.678,0-10.607c2.929-2.928,7.678-2.928,10.606,0l16.591,16.591c2.929,2.93,2.929,7.678,0,10.607
		C201.13,412.363,199.211,413.096,197.291,413.096z"/>
	<path style="fill:#F2937E;" d="M213.643,338.891c-1.919,0-3.839-0.732-5.303-2.196c-2.929-2.93-2.929-7.678,0-10.608l16.591-16.591
		c2.929-2.928,7.678-2.928,10.606,0c2.929,2.93,2.929,7.678,0,10.607l-16.591,16.591
		C217.482,338.158,215.562,338.891,213.643,338.891z"/>
	<path style="fill:#F2937E;" d="M230.234,338.891c-1.919,0-3.839-0.732-5.303-2.196l-16.591-16.591
		c-2.929-2.93-2.929-7.678,0-10.607c2.929-2.928,7.678-2.928,10.606,0l16.591,16.591c2.929,2.93,2.929,7.678,0,10.608
		C234.073,338.158,232.153,338.891,230.234,338.891z"/>
	<path style="fill:#F2937E;" d="M323.238,344.754c-1.919,0-3.839-0.732-5.303-2.196c-2.929-2.93-2.929-7.678,0-10.607l16.591-16.591
		c2.929-2.928,7.678-2.928,10.606,0c2.929,2.93,2.929,7.678,0,10.607l-16.591,16.591
		C327.077,344.021,325.158,344.754,323.238,344.754z"/>
	<path style="fill:#F2937E;" d="M339.829,344.754c-1.919,0-3.839-0.732-5.303-2.196l-16.591-16.591
		c-2.929-2.93-2.929-7.678,0-10.607c2.929-2.928,7.678-2.928,10.606,0l16.591,16.591c2.929,2.93,2.929,7.678,0,10.607
		C343.668,344.021,341.749,344.754,339.829,344.754z"/>
	<path style="fill:#F2937E;" d="M338.022,397.679c-1.919,0-3.839-0.732-5.303-2.196c-2.929-2.93-2.929-7.678,0-10.607l16.591-16.591
		c2.929-2.928,7.678-2.928,10.606,0c2.929,2.93,2.929,7.678,0,10.607l-16.591,16.591
		C341.861,396.946,339.941,397.679,338.022,397.679z"/>
	<path style="fill:#F2937E;" d="M354.613,397.679c-1.919,0-3.839-0.732-5.303-2.196l-16.591-16.591
		c-2.929-2.93-2.929-7.678,0-10.607c2.929-2.928,7.678-2.928,10.606,0l16.591,16.591c2.929,2.93,2.929,7.678,0,10.607
		C358.452,396.946,356.532,397.679,354.613,397.679z"/>
	<path style="fill:#F2937E;" d="M243.862,452.536c-1.919,0-3.839-0.733-5.303-2.196c-2.929-2.93-2.929-7.678,0-10.608l16.591-16.591
		c2.929-2.928,7.678-2.928,10.607,0c2.929,2.93,2.929,7.678,0,10.607l-16.591,16.591
		C247.701,451.804,245.781,452.536,243.862,452.536z"/>
	<path style="fill:#F2937E;" d="M260.453,452.536c-1.919,0-3.839-0.733-5.303-2.196l-16.591-16.591
		c-2.929-2.93-2.929-7.678,0-10.607c2.929-2.928,7.678-2.928,10.606,0l16.591,16.591c2.929,2.93,2.929,7.678,0,10.608
		C264.291,451.804,262.372,452.536,260.453,452.536z"/>
	<path style="fill:#F2937E;" d="M266.571,382.231c-1.919,0-3.839-0.733-5.303-2.196c-2.929-2.93-2.929-7.678,0-10.607l16.591-16.591
		c2.929-2.928,7.678-2.928,10.607,0c2.929,2.93,2.929,7.678,0,10.608l-16.591,16.591
		C270.41,381.499,268.491,382.231,266.571,382.231z"/>
	<path style="fill:#F2937E;" d="M283.162,382.231c-1.919,0-3.839-0.733-5.303-2.196l-16.591-16.591
		c-2.929-2.93-2.929-7.678,0-10.608c2.929-2.928,7.678-2.928,10.606,0l16.591,16.591c2.929,2.93,2.929,7.678,0,10.607
		C287.001,381.499,285.082,382.231,283.162,382.231z"/>
</g>
<path style="opacity:0.1;enable-background:new    ;" d="M300.279,469.395c-45.788,32.376-66.165-40.075-101.032-68.603
	c-27.841-22.779-50.588-62.2-51.458-108.653l-59.928,8.852c-14.412,2.129-23.516,16.828-18.729,30.588
	c20.71,59.528,71.878,94.504,92.821,104.976c39.197,19.599,56.878,70.889,86.774,70.889
	C265.439,507.444,283.605,488.044,300.279,469.395z"/>
<g>
</g>
<g>
</g>
<g>
</g>
<g>
</g>
<g>
</g>
<g>
</g>
<g>
</g>
<g>
</g>
<g>
</g>
<g>
</g>
<g>
</g>
<g>
</g>
<g>
</g>
<g>
</g>
<g>
</g>
</svg>
