<?xml version="1.0" encoding="iso-8859-1"?>
<!-- Generator: Adobe Illustrator 19.0.0, SVG Export Plug-In . SVG Version: 6.00 Build 0)  -->
<svg version="1.1" id="Capa_1" xmlns="http://www.w3.org/2000/svg" xmlns:xlink="http://www.w3.org/1999/xlink" x="0px" y="0px"
	 viewBox="0 0 512 512" style="enable-background:new 0 0 512 512;" xml:space="preserve">
<g>
	<path style="fill:#495059;" d="M158.548,501.377c-0.661,0-1.333-0.088-2.001-0.272c-3.993-1.103-6.335-5.233-5.233-9.227
		l97.456-352.844c1.103-3.992,5.236-6.336,9.226-5.232c3.993,1.103,6.335,5.233,5.233,9.227l-97.456,352.844
		C164.855,499.196,161.837,501.377,158.548,501.377z"/>
	<path style="fill:#495059;" d="M353.452,501.377c-3.289,0-6.307-2.181-7.225-5.505L248.77,143.028
		c-1.102-3.993,1.24-8.124,5.233-9.227c3.991-1.104,8.123,1.24,9.226,5.232l97.456,352.844c1.103,3.993-1.24,8.124-5.233,9.227
		C354.785,501.289,354.113,501.377,353.452,501.377z"/>
</g>
<path style="fill:#A28577;" d="M318.744,331.979H193.256c-6.494,0-11.758-5.264-11.758-11.758v-3.798
	c0-6.494,5.264-11.758,11.758-11.758h125.488c6.494,0,11.758,5.264,11.758,11.758v3.798
	C330.502,326.715,325.238,331.979,318.744,331.979z"/>
<path style="opacity:0.1;enable-background:new    ;" d="M193.256,304.665c-6.494,0-11.758,5.264-11.758,11.758v3.798
	c0,6.494,5.264,11.758,11.758,11.758h51.587c-16.507-5.604-23.094-17.42-19.882-27.314H193.256z"/>
<path style="fill:#A28577;" d="M172.745,512h-27.82c-6.286,0-11.382-5.096-11.382-11.382v-4.55c0-6.286,5.096-11.382,11.382-11.382
	h27.82c6.286,0,11.382,5.096,11.382,11.382v4.55C184.127,506.904,179.031,512,172.745,512z"/>
<path style="opacity:0.1;enable-background:new    ;" d="M144.925,484.686c-6.286,0-11.382,5.096-11.382,11.382v4.55
	c0,6.286,5.096,11.382,11.382,11.382h18.379c-12.537-6.918-12.158-20.827-8.858-27.314L144.925,484.686L144.925,484.686z"/>
<path style="fill:#A28577;" d="M339.652,512h27.82c6.286,0,11.382-5.096,11.382-11.382v-4.55c0-6.286-5.096-11.382-11.382-11.382
	h-27.82c-6.286,0-11.382,5.096-11.382,11.382v4.55C328.27,506.904,333.366,512,339.652,512z"/>
<path style="opacity:0.1;enable-background:new    ;" d="M339.652,484.686c-6.286,0-11.382,5.096-11.382,11.382v4.55
	c0,6.286,5.096,11.382,11.382,11.382h18.38c-12.537-6.918-12.158-20.827-8.858-27.314L339.652,484.686L339.652,484.686z"/>
<g>
	<path style="fill:#495059;" d="M169.667,461.188c-2.561,0-5.055-1.312-6.457-3.672c-2.114-3.563-0.941-8.164,2.621-10.278
		l148.367-88.084c3.564-2.114,8.164-0.94,10.278,2.62c2.114,3.563,0.941,8.164-2.621,10.278l-148.367,88.084
		C172.288,460.85,170.969,461.188,169.667,461.188z"/>
	<path style="fill:#495059;" d="M342.332,461.188c-1.302,0-2.621-0.339-3.821-1.052l-148.367-88.084
		c-3.562-2.114-4.735-6.716-2.621-10.278c2.115-3.56,6.716-4.734,10.278-2.62l148.367,88.084c3.562,2.114,4.735,6.716,2.621,10.278
		C347.387,459.877,344.893,461.188,342.332,461.188z"/>
</g>
<path style="fill:#DFE3E5;" d="M244.614,87.151c3.675-0.773,7.482-1.185,11.386-1.185c3.904,0,7.712,0.413,11.386,1.185
	l4.582-81.624c0.194-3.454-2.959-6.142-6.339-5.404l-18.763,4.096c-3.932,0.858-6.659,4.446-6.433,8.464L244.614,87.151z"/>
<path style="opacity:0.05;enable-background:new    ;" d="M268.35,69.982c-13.538,8.171-22.867-17.516-26.708-35.781l2.972,52.949
	c3.675-0.773,7.482-1.185,11.386-1.185c3.904,0,7.712,0.413,11.386,1.185L268.35,69.982z"/>
<path style="fill:#DFE3E5;" d="M209.849,110.983c2.052-3.145,4.452-6.129,7.213-8.889c2.761-2.761,5.745-5.161,8.889-7.213
	l-54.477-60.957c-2.305-2.58-6.435-2.251-8.303,0.661L152.8,50.749c-2.174,3.387-1.565,7.852,1.436,10.534L209.849,110.983z"/>
<path style="opacity:0.05;enable-background:new    ;" d="M192.238,95.244c-17.17-16.756-29.525-47.161-27.825-62.005
	c-0.474,0.36-0.897,0.808-1.242,1.346L152.8,50.749c-2.173,3.387-1.565,7.852,1.436,10.534L192.238,95.244L192.238,95.244z"/>
<path style="fill:#DFE3E5;" d="M202.119,152.418c-0.773-3.675-1.185-7.482-1.185-11.386s0.413-7.712,1.185-11.386l-81.624-4.582
	c-3.454-0.194-6.142,2.959-5.404,6.338l4.096,18.763c0.858,3.932,4.446,6.659,8.464,6.433L202.119,152.418z"/>
<path style="opacity:0.05;enable-background:new    ;" d="M125.173,125.326l-4.678-0.262c-3.454-0.194-6.142,2.959-5.404,6.338
	l4.096,18.763c0.858,3.932,4.446,6.659,8.464,6.433l40.619-2.28C140.004,150.659,127.472,133.814,125.173,125.326z"/>
<path style="fill:#DFE3E5;" d="M225.952,187.182c-3.145-2.052-6.129-4.452-8.889-7.213c-2.761-2.761-5.161-5.745-7.213-8.889
	l-60.957,54.477c-2.58,2.305-2.251,6.435,0.661,8.303l16.164,10.371c3.387,2.174,7.852,1.565,10.534-1.436L225.952,187.182z"/>
<path style="opacity:0.05;enable-background:new    ;" d="M161.843,213.983l-12.95,11.574c-2.58,2.305-2.251,6.435,0.661,8.303
	l16.164,10.371c3.387,2.174,7.852,1.565,10.534-1.436l24.939-27.905C181.279,227.434,164.026,221.876,161.843,213.983z"/>
<path style="fill:#DFE3E5;" d="M267.386,194.912c-3.675,0.773-7.482,1.185-11.386,1.185c-3.904,0-7.712-0.413-11.386-1.185
	l-4.582,81.624c-0.194,3.454,2.959,6.142,6.339,5.404l18.763-4.096c3.932-0.858,6.659-4.446,6.433-8.464L267.386,194.912z"/>
<path style="opacity:0.05;enable-background:new    ;" d="M243.234,219.501l-3.202,57.035c-0.194,3.454,2.958,6.142,6.338,5.404
	l18.763-4.096c3.932-0.858,6.659-4.446,6.433-8.464l-0.075-1.34C253.412,278.409,245.551,240.605,243.234,219.501z"/>
<path style="fill:#DFE3E5;" d="M302.151,171.08c-2.052,3.145-4.452,6.129-7.213,8.889c-2.761,2.761-5.745,5.161-8.889,7.213
	l54.477,60.957c2.305,2.58,6.435,2.251,8.303-0.661l10.371-16.164c2.174-3.388,1.565-7.852-1.436-10.534L302.151,171.08z"/>
<path style="opacity:0.05;enable-background:new    ;" d="M348.828,247.478l8.673-13.517c-22.539,3.699-47.379-28.246-65.384-51.383
	c-1.941,1.688-3.965,3.232-6.069,4.604l54.477,60.957C342.831,250.719,346.96,250.39,348.828,247.478z"/>
<path style="fill:#DFE3E5;" d="M309.881,129.645c0.773,3.675,1.185,7.482,1.185,11.386s-0.412,7.712-1.185,11.386L391.505,157
	c3.454,0.194,6.142-2.959,5.404-6.339l-4.096-18.763c-0.858-3.932-4.446-6.659-8.464-6.433L309.881,129.645z"/>
<path style="opacity:0.05;enable-background:new    ;" d="M391.505,156.999c2.966,0.167,5.361-2.136,5.512-4.93
	c-18.619,3.651-72.284-5.761-86.153-15.539c0.122,1.486,0.202,2.984,0.202,4.502c0,3.904-0.413,7.712-1.185,11.386L391.505,156.999z
	"/>
<path style="fill:#DFE3E5;" d="M286.048,94.881c3.145,2.052,6.129,4.452,8.889,7.213c2.761,2.761,5.161,5.745,7.213,8.889
	l60.957-54.477c2.58-2.305,2.251-6.435-0.661-8.303l-16.164-10.371c-3.388-2.174-7.852-1.565-10.534,1.436L286.048,94.881z"/>
<path style="opacity:0.05;enable-background:new    ;" d="M296.038,83.702l-9.99,11.179c3.145,2.052,6.129,4.452,8.889,7.213
	c2.761,2.761,5.161,5.745,7.213,8.889l27.75-24.8C316.798,90.123,299.801,88.522,296.038,83.702z"/>
<g>
	<path style="fill:#BEBFC0;" d="M235.472,148.531h-34.538c-4.142,0-7.5-3.357-7.5-7.5s3.358-7.5,7.5-7.5h34.538
		c4.142,0,7.5,3.357,7.5,7.5C242.972,145.174,239.614,148.531,235.472,148.531z"/>
	<path style="fill:#BEBFC0;" d="M256,128.003c-4.142,0-7.5-3.357-7.5-7.5V85.966c0-4.143,3.358-7.5,7.5-7.5
		c4.142,0,7.5,3.357,7.5,7.5v34.537C263.5,124.645,260.142,128.003,256,128.003z"/>
	<path style="fill:#BEBFC0;" d="M311.066,148.531h-34.538c-4.142,0-7.5-3.357-7.5-7.5s3.358-7.5,7.5-7.5h34.538
		c4.142,0,7.5,3.357,7.5,7.5C318.566,145.174,315.208,148.531,311.066,148.531z"/>
	<path style="fill:#BEBFC0;" d="M256,203.598c-34.499,0-62.566-28.067-62.566-62.566S221.501,78.467,256,78.467
		s62.566,28.066,62.566,62.565C318.566,175.53,290.499,203.598,256,203.598z M256,93.466c-26.228,0-47.566,21.338-47.566,47.565
		c0,26.229,21.338,47.566,47.566,47.566s47.566-21.338,47.566-47.566C303.566,114.804,282.228,93.466,256,93.466z"/>
	<path style="fill:#BEBFC0;" d="M256,245.987c-57.873,0-104.956-47.083-104.956-104.956S198.127,36.075,256,36.075
		s104.956,47.083,104.956,104.956S313.873,245.987,256,245.987z M256,51.075c-49.602,0-89.956,40.354-89.956,89.956
		s40.354,89.956,89.956,89.956s89.956-40.354,89.956-89.956C345.956,91.43,305.602,51.075,256,51.075z"/>
</g>
<circle style="fill:#DFE3E5;" cx="256" cy="141.03" r="20.528"/>
<path style="opacity:0.05;enable-background:new    ;" d="M256,161.56c6.019,0,11.415-2.606,15.17-6.732
	c-27.268,4.776-29.082-20.94-19.855-33.767c-9.076,2.123-15.843,10.248-15.843,19.97C235.471,152.369,244.662,161.56,256,161.56z"/>
<g>
</g>
<g>
</g>
<g>
</g>
<g>
</g>
<g>
</g>
<g>
</g>
<g>
</g>
<g>
</g>
<g>
</g>
<g>
</g>
<g>
</g>
<g>
</g>
<g>
</g>
<g>
</g>
<g>
</g>
</svg>
