<?xml version="1.0" encoding="iso-8859-1"?>
<!-- Generator: Adobe Illustrator 19.0.0, SVG Export Plug-In . SVG Version: 6.00 Build 0)  -->
<svg version="1.1" id="Capa_1" xmlns="http://www.w3.org/2000/svg" xmlns:xlink="http://www.w3.org/1999/xlink" x="0px" y="0px"
	 viewBox="0 0 512 512" style="enable-background:new 0 0 512 512;" xml:space="preserve">
<path style="fill:#DDAF89;" d="M34.146,509.685h35.002c5.626,0,10.187-4.561,10.187-10.187v-407H23.959v406.999
	C23.959,505.124,28.52,509.685,34.146,509.685z"/>
<g style="opacity:0.1;">
	<path d="M23.959,483.777c15.155-16.458,36.866-41.028,35.18-78.758c-1.308-29.288-13.14-59.652-35.18-90.36v27.46
		c12.618,21.766,19.266,42.746,20.196,63.57c1.058,23.711-9.083,41.419-20.196,55.285V483.777z"/>
	<path d="M79.335,274.17v-21.595c-8.859-9.859-16.659-21.792-16.659-39.726c0-16.624,8.408-33.601,16.659-46.844v-26.738
		c-0.67,0.969-1.429,2.048-2.272,3.245c-10.271,14.578-29.388,41.713-29.388,70.337c0,29.37,16.706,46.222,28.904,58.527
		C77.522,272.326,78.442,273.256,79.335,274.17z"/>
</g>
<path style="fill:#A28577;" d="M498.81,2.315H13.19C5.905,2.315,0,8.22,0,15.505v48.598c0,7.284,5.905,13.19,13.19,13.19h485.62
	c7.284,0,13.19-5.905,13.19-13.19V15.505C512,8.22,506.095,2.315,498.81,2.315z"/>
<path style="opacity:0.1;enable-background:new    ;" d="M13.19,2.315C5.905,2.315,0,8.22,0,15.505v48.598
	c0,7.284,5.905,13.19,13.19,13.19h162.421c-66.321-16.145-69.628-56.714-61.947-74.977H13.19V2.315z"/>
<g style="opacity:0.1;">
	<path d="M137.672,60.739h-34.593c-4.143,0-7.5-3.357-7.5-7.5s3.357-7.5,7.5-7.5h34.593c4.143,0,7.5,3.357,7.5,7.5
		S141.814,60.739,137.672,60.739z"/>
	<path d="M71.64,34.576H50.884c-4.143,0-7.5-3.357-7.5-7.5s3.357-7.5,7.5-7.5H71.64c4.143,0,7.5,3.357,7.5,7.5
		S75.782,34.576,71.64,34.576z"/>
	<path d="M407.452,54.774h-24.379c-4.143,0-7.5-3.357-7.5-7.5s3.357-7.5,7.5-7.5h24.379c4.143,0,7.5,3.357,7.5,7.5
		S411.595,54.774,407.452,54.774z"/>
	<path d="M469.096,38.539h-27.503c-4.143,0-7.5-3.358-7.5-7.5c0-4.143,3.357-7.5,7.5-7.5h27.503c4.143,0,7.5,3.357,7.5,7.5
		S473.238,38.539,469.096,38.539z"/>
</g>
<path style="opacity:0.15;enable-background:new    ;" d="M326.474,28.295H185.526c-3.525,0-6.383,2.858-6.383,6.383v10.251
	c0,3.525,2.858,6.383,6.383,6.383h140.948c3.526,0,6.383-2.858,6.383-6.383V34.678C332.857,31.153,330,28.295,326.474,28.295z"/>
<path style="fill:#F7CF66;" d="M18.411,77.292v47.057c0,4.595,3.725,8.319,8.319,8.319h50.003c4.854,0,9.151-3.141,10.624-7.767
	l2.711-8.514c0.913-2.867,3.576-4.813,6.584-4.813h14.598c4.323,0,7.951-3.259,8.413-7.558l2.873-26.725L18.411,77.292
	L18.411,77.292z"/>
<circle style="opacity:0.1;enable-background:new    ;" cx="51.732" cy="104.96" r="7.539"/>
<path style="fill:#DDAF89;" d="M477.854,509.685h-35.002c-5.626,0-10.187-4.561-10.187-10.187v-407h55.376v406.999
	C488.041,505.124,483.48,509.685,477.854,509.685z"/>
<g style="opacity:0.1;">
	<path d="M432.665,464.911v17.119c12.898-6.775,30.513-16.082,34.871-48.374c5.536-41.018-17.713-70.529-33.098-90.058
		c-0.605-0.768-1.195-1.518-1.774-2.255v24.661c12.187,16.974,23.673,38.473,20.006,65.646
		C449.994,451.484,442.023,459.285,432.665,464.911z"/>
	<path d="M488.041,236.132c-0.424-0.438-0.847-0.876-1.27-1.312c-8.474-8.731-16.478-16.979-19.061-30.027
		c-2.621-13.234,6.679-21.392,20.331-31.182v-18.649c-2.259,1.838-4.995,3.789-7.569,5.621
		c-13.614,9.692-32.26,22.966-27.477,47.124c3.445,17.398,13.84,28.109,23.011,37.56c4.675,4.818,8.97,9.257,12.035,14.173V236.132z
		"/>
</g>
<path style="fill:#F7CF66;" d="M493.589,77.292v47.057c0,4.595-3.725,8.319-8.319,8.319h-50.003c-4.854,0-9.151-3.141-10.624-7.767
	l-2.711-8.514c-0.913-2.867-3.576-4.813-6.584-4.813H400.75c-4.323,0-7.952-3.259-8.414-7.558l-2.873-26.725L493.589,77.292
	L493.589,77.292z"/>
<circle style="opacity:0.1;enable-background:new    ;" cx="460.27" cy="104.96" r="7.539"/>
<path style="fill:#A28577;" d="M228.572,436.916c-64.888,0-87.451-11.125-108.33-24.565c-6.784-4.367-9.88-6.361-17.237-7.379
	l-12.299-1.702c-6.516-0.902-11.369-6.472-11.369-13.051v-163.94c0-5.534,3.719-10.378,9.065-11.808l11.277-3.016
	c10.103-2.702,13.698-7.429,20.866-17.863c8.904-12.961,23.807-34.653,58.597-34.653c26.988,0,40.364,13.449,48.356,21.484
	c4.384,4.407,6.065,5.984,9.313,7.006l10.486,3.303c5.18,1.632,8.704,6.435,8.704,11.867v220.726
	c0,7.507-6.085,13.592-13.592,13.592L228.572,436.916L228.572,436.916z"/>
<path style="fill:#DDAF89;" d="M222.421,409.45c-85.764-1.058-79.724-24.346-111.015-30.85c-2.712-0.564-4.642-2.978-4.642-5.748
	V242.314c0-2.516,1.604-4.759,3.989-5.563c37.533-12.658,30.316-50.383,68.388-50.383c25.944,0,26.567,17.967,46.005,25.983
	c2.068,0.853,3.426,2.862,3.426,5.099v185.944C228.572,406.773,225.802,409.492,222.421,409.45z"/>
<g style="opacity:0.1;">
	<rect x="106.76" y="355.55" width="121.81" height="15"/>
	<rect x="106.76" y="327.87" width="121.81" height="15"/>
	<rect x="106.76" y="300.18" width="121.81" height="15"/>
	<rect x="106.76" y="272.5" width="121.81" height="15"/>
	<rect x="106.76" y="244.81" width="121.81" height="15"/>
</g>
<path style="fill:#A28577;" d="M283.428,436.916c64.888,0,87.451-11.125,108.33-24.565c6.784-4.367,9.88-6.361,17.237-7.379
	l12.299-1.702c6.517-0.902,11.369-6.472,11.369-13.051v-163.94c0-5.534-3.719-10.378-9.065-11.808l-11.277-3.016
	c-10.103-2.702-13.698-7.429-20.866-17.863c-8.904-12.961-23.807-34.653-58.597-34.653c-26.988,0-40.364,13.449-48.356,21.484
	c-4.384,4.407-6.065,5.984-9.313,7.006l-10.486,3.303c-5.18,1.632-8.704,6.435-8.704,11.867v220.726
	c0,7.507,6.085,13.592,13.592,13.592L283.428,436.916L283.428,436.916z"/>
<path style="fill:#DDAF89;" d="M289.578,409.45c85.764-1.058,79.724-24.346,111.016-30.85c2.712-0.564,4.642-2.978,4.642-5.748
	V242.314c0-2.516-1.604-4.759-3.989-5.563c-37.533-12.658-30.316-50.383-68.388-50.383c-25.944,0-26.567,17.967-46.005,25.983
	c-2.068,0.853-3.426,2.862-3.426,5.099v185.944C283.428,406.773,286.198,409.492,289.578,409.45z"/>
<g style="opacity:0.1;">
	<rect x="283.43" y="355.55" width="121.81" height="15"/>
	<rect x="283.43" y="327.87" width="121.81" height="15"/>
	<rect x="283.43" y="300.18" width="121.81" height="15"/>
	<rect x="283.43" y="272.5" width="121.81" height="15"/>
	<rect x="283.43" y="244.81" width="121.81" height="15"/>
</g>
<path style="opacity:0.1;enable-background:new    ;" d="M112.123,204.534c-3.298,3.327-6.885,5.435-12.445,6.922L88.4,214.471
	c-5.346,1.43-9.065,6.273-9.065,11.808v163.94c0,6.579,4.853,12.149,11.369,13.051l12.299,1.702
	c7.357,1.018,10.454,3.012,17.238,7.379c20.879,13.44,43.442,24.565,108.33,24.565h13.837c7.507,0,13.592-6.085,13.592-13.592
	v-43.65C151.999,423.108,116.201,266.07,112.123,204.534z"/>
<path style="opacity:0.1;enable-background:new    ;" d="M283.012,181.913c-3.325,3.292-4.97,4.618-7.821,5.515l-10.486,3.303
	c-5.18,1.632-8.704,6.435-8.704,11.867v220.726c0,7.507,6.085,13.592,13.592,13.592h13.837c64.888,0,87.451-11.125,108.33-24.565
	c6.784-4.367,9.88-6.361,17.238-7.379l12.299-1.702c6.517-0.902,11.369-6.472,11.369-13.051v-12.85
	C315.592,432.653,283.333,239.995,283.012,181.913z"/>
<g>
	<path style="fill:#F7CF66;" d="M82.51,276.379H67.117c-2.288,0-4.142-1.855-4.142-4.142v-22.052c0-2.288,1.855-4.142,4.142-4.142
		H82.51c2.288,0,4.142,1.855,4.142,4.142v22.052C86.653,274.525,84.798,276.379,82.51,276.379z"/>
	<path style="fill:#F7CF66;" d="M82.51,365.702H67.117c-2.288,0-4.142-1.855-4.142-4.142v-22.052c0-2.288,1.855-4.142,4.142-4.142
		H82.51c2.288,0,4.142,1.855,4.142,4.142v22.052C86.653,363.848,84.798,365.702,82.51,365.702z"/>
	<path style="fill:#F7CF66;" d="M429.49,276.379h15.394c2.288,0,4.142-1.855,4.142-4.142v-22.052c0-2.288-1.855-4.142-4.142-4.142
		H429.49c-2.288,0-4.142,1.855-4.142,4.142v22.052C425.347,274.525,427.202,276.379,429.49,276.379z"/>
	<path style="fill:#F7CF66;" d="M429.49,365.702h15.394c2.288,0,4.142-1.855,4.142-4.142v-22.052c0-2.288-1.855-4.142-4.142-4.142
		H429.49c-2.288,0-4.142,1.855-4.142,4.142v22.052C425.347,363.848,427.202,365.702,429.49,365.702z"/>
</g>
<g>
</g>
<g>
</g>
<g>
</g>
<g>
</g>
<g>
</g>
<g>
</g>
<g>
</g>
<g>
</g>
<g>
</g>
<g>
</g>
<g>
</g>
<g>
</g>
<g>
</g>
<g>
</g>
<g>
</g>
</svg>
