<?xml version="1.0" encoding="iso-8859-1"?>
<!-- Generator: Adobe Illustrator 19.0.0, SVG Export Plug-In . SVG Version: 6.00 Build 0)  -->
<svg version="1.1" id="Capa_1" xmlns="http://www.w3.org/2000/svg" xmlns:xlink="http://www.w3.org/1999/xlink" x="0px" y="0px"
	 viewBox="0 0 512 512" style="enable-background:new 0 0 512 512;" xml:space="preserve">
<path style="fill:#F7CF66;" d="M217.35,438.187L73.813,294.65c-5.433-5.432-5.433-14.24,0-19.673L301.67,47.12l163.21,163.21
	L237.023,438.187C231.59,443.62,222.782,443.62,217.35,438.187z"/>
<g>
	
		<ellipse transform="matrix(-0.7071 -0.7071 0.7071 -0.7071 155.7701 683.5796)" style="fill:#FFFFFF;" cx="219.459" cy="309.529" rx="22.22" ry="27.899"/>
	
		<ellipse transform="matrix(0.7071 0.7071 -0.7071 0.7071 238.8592 -171.4528)" style="fill:#FFFFFF;" cx="326.391" cy="202.602" rx="22.22" ry="27.899"/>
</g>
<g>
	<path style="fill:#495059;" d="M204.207,295.185c-1.919,0-3.838-0.732-5.303-2.196l-8.468-8.467
		c-2.929-2.929-2.929-7.678-0.001-10.607c2.929-2.93,7.677-2.929,10.607-0.001l8.468,8.467c2.929,2.929,2.929,7.678,0,10.606
		C208.046,294.452,206.126,295.185,204.207,295.185z"/>
	<path style="fill:#495059;" d="M275.146,258.29L275.146,258.29c-7.894,7.894-20.692,7.894-28.586,0l-10.391-10.391
		c-2.155-2.155-2.155-5.648,0-7.803l20.782-20.782c2.155-2.155,5.648-2.155,7.803,0l10.391,10.391
		C283.039,237.598,283.039,250.396,275.146,258.29z"/>
	<path style="fill:#495059;" d="M304.541,194.851c-1.919,0-3.839-0.732-5.304-2.196l-8.468-8.468c-2.929-2.93-2.929-7.678,0-10.607
		c2.93-2.928,7.678-2.928,10.608,0l8.468,8.468c2.929,2.93,2.929,7.678,0,10.607C308.38,194.118,306.46,194.851,304.541,194.851z"/>
</g>
<path style="fill:#F7CF66;" d="M167.318,507.023L4.977,344.682c-6.636-6.636-6.636-17.396,0-24.032l5.488-5.488
	c6.636-6.636,17.396-6.636,24.032,0l162.341,162.341c6.636,6.636,6.636,17.396,0,24.032l-5.488,5.488
	C184.714,513.659,173.955,513.659,167.318,507.023z"/>
<path style="opacity:0.2;fill:#C97B00;enable-background:new    ;" d="M191.35,507.023l5.488-5.488
	c6.636-6.636,6.636-17.395,0-24.032l-20.953-20.954c-5.952,20.498-31.047,16.763-51.045,7.995l42.479,42.478
	C173.955,513.659,184.714,513.659,191.35,507.023z"/>
<rect x="38.825" y="360.22" transform="matrix(-0.7071 -0.7071 0.7071 -0.7071 -46.6712 743.4073)" style="fill:#A28577;" width="183.608" height="42.3"/>
<path style="opacity:0.1;enable-background:new    ;" d="M180.583,461.247l29.913-29.913l-38.037-38.037
	c5.021,22.93-24.572,22.82-43.509,16.318L180.583,461.247z"/>
<path style="opacity:0.2;fill:#C97B00;enable-background:new    ;" d="M289,306.99c-82.166,58.302-173.777-18.644-171.65-75.55
	l-43.538,43.538c-5.433,5.432-5.433,14.241,0,19.673L217.35,438.187c5.433,5.433,14.241,5.433,19.673,0L464.88,210.33
	c51.164-51.164,55.401-118.753,37.534-160.293C482.209,156.845,377.089,244.484,289,306.99z"/>
<path style="fill:#A28577;" d="M464.88,210.33c63.217-63.217,54.799-151.518,21.554-184.764S364.887-16.097,301.67,47.12
	L464.88,210.33z"/>
<path style="opacity:0.1;enable-background:new    ;" d="M502.414,50.037c-8.938,47.251-34.501,90.746-67.85,129.977l30.316,30.316
	C516.044,159.166,520.281,91.577,502.414,50.037z"/>
<g style="opacity:0.1;">
	<path d="M415.315,203.921c-1.062,0-2.14-0.227-3.165-0.705c-3.754-1.75-5.378-6.213-3.627-9.967l23.244-49.847
		c1.751-3.754,6.215-5.378,9.967-3.627c3.754,1.75,5.378,6.213,3.627,9.967l-23.244,49.847
		C420.844,202.317,418.139,203.921,415.315,203.921z"/>
	<path d="M414.715,120.897c-1.062,0-2.14-0.227-3.165-0.705c-3.754-1.75-5.378-6.213-3.627-9.967l12.222-26.21
		c1.75-3.754,6.215-5.377,9.967-3.627c3.754,1.75,5.378,6.213,3.627,9.967l-12.222,26.21
		C420.245,119.293,417.539,120.897,414.715,120.897z"/>
	<path d="M127.787,291.081c-1.062,0-2.139-0.227-3.164-0.705c-3.754-1.75-5.379-6.212-3.628-9.967l8.505-18.239
		c1.751-3.754,6.212-5.38,9.967-3.627c3.754,1.75,5.378,6.212,3.628,9.967l-8.505,18.239
		C133.317,289.478,130.612,291.081,127.787,291.081z"/>
	<path d="M219.615,388.877c-1.061,0-2.14-0.227-3.165-0.705c-3.754-1.75-5.378-6.213-3.627-9.967l9.647-20.689
		c1.751-3.754,6.215-5.378,9.967-3.627c3.754,1.75,5.378,6.213,3.627,9.967l-9.647,20.688
		C225.145,387.273,222.44,388.877,219.615,388.877z"/>
</g>
<g>
</g>
<g>
</g>
<g>
</g>
<g>
</g>
<g>
</g>
<g>
</g>
<g>
</g>
<g>
</g>
<g>
</g>
<g>
</g>
<g>
</g>
<g>
</g>
<g>
</g>
<g>
</g>
<g>
</g>
</svg>
