<?xml version="1.0" encoding="iso-8859-1"?>
<!-- Generator: Adobe Illustrator 19.0.0, SVG Export Plug-In . SVG Version: 6.00 Build 0)  -->
<svg version="1.1" id="Capa_1" xmlns="http://www.w3.org/2000/svg" xmlns:xlink="http://www.w3.org/1999/xlink" x="0px" y="0px"
	 viewBox="0 0 512 512" style="enable-background:new 0 0 512 512;" xml:space="preserve">
<path style="fill:#A28577;" d="M500.274,333.472H392.73v-41.357h107.544c6.476,0,11.726,5.25,11.726,11.726v17.905
	C512,328.222,506.75,333.472,500.274,333.472z"/>
<path style="opacity:0.1;enable-background:new    ;" d="M500.274,333.472H392.73v-41.357h107.544
	c6.476,0,11.726,5.25,11.726,11.726v17.905C512,328.222,506.75,333.472,500.274,333.472z"/>
<path style="fill:#FFF0C0;" d="M405.559,292.115l35.347-238.688c-62.002,15.645-162.514,1.837-203.232-10.05
	c-40.718,11.887-141.23,25.696-203.232,10.05l35.347,238.688H405.559z"/>
<path style="opacity:0.1;enable-background:new    ;" d="M405.559,292.115l4.701-31.748
	C263.907,279.76,268.092,96.228,275.364,51.728c-15.046-2.614-28.047-5.536-37.69-8.352v248.739H405.559z"/>
<path style="opacity:0.1;enable-background:new    ;" d="M237.674,263.568C93.254,245.922,73.515,111.967,84.034,60.017
	c-17.831-0.807-34.808-2.859-49.592-6.59l35.347,238.688h167.885V263.568z"/>
<g>
	<path style="fill:#A28577;" d="M237.674,303.238c-10.236,0-18.534-8.298-18.534-18.534V53.682c0-10.236,8.298-18.534,18.534-18.534
		c10.236,0,18.534,8.298,18.534,18.534v231.022C256.207,294.94,247.909,303.238,237.674,303.238z"/>
	<path style="fill:#A28577;" d="M67.349,303.24c-9.097,0-17.035-6.701-18.331-15.967L18.233,67.297
		c-1.419-10.138,5.649-19.505,15.786-20.924c10.135-1.419,19.504,5.649,20.923,15.786l30.785,219.976
		c1.418,10.138-5.649,19.505-15.786,20.924C69.07,303.181,68.204,303.24,67.349,303.24z"/>
	<path style="fill:#A28577;" d="M407.998,303.24c9.097,0,17.035-6.701,18.332-15.967l30.785-219.976
		c1.419-10.138-5.649-19.505-15.786-20.924c-10.135-1.419-19.504,5.649-20.923,15.786L389.62,282.135
		c-1.419,10.138,5.649,19.505,15.786,20.924C406.277,303.181,407.143,303.24,407.998,303.24z"/>
	<rect x="66.912" y="311.96" style="fill:#A28577;" width="341.52" height="97.98"/>
</g>
<path style="opacity:0.1;enable-background:new    ;" d="M66.912,409.94h159.124c-51.713-16.951-69.71-67.349-72.356-97.979H66.912
	V409.94z"/>
<path style="opacity:0.1;enable-background:new    ;" d="M408.435,358.027H66.912c-4.142,0-7.5-3.357-7.5-7.5
	c0-4.142,3.358-7.5,7.5-7.5h341.523c4.142,0,7.5,3.358,7.5,7.5C415.935,354.67,412.577,358.027,408.435,358.027z"/>
<path style="fill:#DDAF89;" d="M430.091,311.961H45.256c-9.172,0-16.608-7.436-16.608-16.608v-6.475
	c0-9.172,7.436-16.608,16.608-16.608h384.835c9.172,0,16.608,7.436,16.608,16.608v6.475
	C446.699,304.525,439.263,311.961,430.091,311.961z"/>
<path style="opacity:0.1;enable-background:new    ;" d="M45.256,272.269c-9.172,0-16.608,7.436-16.608,16.608v6.476
	c0,9.172,7.436,16.608,16.608,16.608h119.52c-19.956-12.655-18.302-32.079-11.139-39.691H45.256V272.269z"/>
<g>
	<path style="fill:#DDAF89;" d="M66.912,476.852c-4.142,0-7.5-3.358-7.5-7.5V350.527c0-4.142,3.358-7.5,7.5-7.5s7.5,3.358,7.5,7.5
		v118.824C74.412,473.494,71.054,476.852,66.912,476.852z"/>
	<path style="fill:#DDAF89;" d="M24.901,459.45c-1.92,0-3.839-0.732-5.303-2.196c-2.929-2.93-2.929-7.678,0-10.607l84.021-84.021
		c2.929-2.928,7.678-2.928,10.606,0c2.929,2.93,2.929,7.678,0,10.607l-84.021,84.021C28.74,458.718,26.821,459.45,24.901,459.45z"/>
	<path style="fill:#DDAF89;" d="M126.324,417.44H7.5c-4.142,0-7.5-3.357-7.5-7.5s3.358-7.5,7.5-7.5h118.824
		c4.142,0,7.5,3.357,7.5,7.5C133.824,414.082,130.466,417.44,126.324,417.44z"/>
	<path style="fill:#DDAF89;" d="M108.923,459.45c-1.919,0-3.839-0.732-5.303-2.196l-84.021-84.021c-2.929-2.93-2.929-7.678,0-10.607
		c2.929-2.928,7.678-2.928,10.607,0l84.021,84.021c2.929,2.93,2.929,7.678,0,10.607C112.762,458.718,110.842,459.45,108.923,459.45z
		"/>
	<path style="fill:#DDAF89;" d="M66.912,476.852C30.017,476.852,0,446.835,0,409.94c0-36.896,30.017-66.912,66.912-66.912
		s66.912,30.017,66.912,66.912S103.808,476.852,66.912,476.852z M66.912,358.027C38.288,358.027,15,381.315,15,409.94
		c0,28.624,23.288,51.912,51.912,51.912s51.912-23.288,51.912-51.912C118.824,381.315,95.537,358.027,66.912,358.027z"/>
</g>
<circle style="fill:#A28577;" cx="66.912" cy="409.94" r="15.705"/>
<g>
	<path style="fill:#DDAF89;" d="M408.435,476.852c-4.142,0-7.5-3.358-7.5-7.5V350.527c0-4.142,3.358-7.5,7.5-7.5s7.5,3.358,7.5,7.5
		v118.824C415.935,473.494,412.577,476.852,408.435,476.852z"/>
	<path style="fill:#DDAF89;" d="M366.424,459.45c-1.919,0-3.839-0.732-5.303-2.196c-2.929-2.93-2.929-7.678,0-10.607l84.021-84.021
		c2.929-2.928,7.678-2.928,10.606,0c2.929,2.93,2.929,7.678,0,10.607l-84.022,84.021C370.263,458.718,368.344,459.45,366.424,459.45
		z"/>
	<path style="fill:#DDAF89;" d="M467.847,417.44H349.023c-4.142,0-7.5-3.357-7.5-7.5s3.358-7.5,7.5-7.5h118.824
		c4.142,0,7.5,3.357,7.5,7.5C475.347,414.082,471.989,417.44,467.847,417.44z"/>
	<path style="fill:#DDAF89;" d="M450.446,459.45c-1.919,0-3.839-0.732-5.303-2.196l-84.021-84.021c-2.929-2.93-2.929-7.678,0-10.607
		c2.929-2.928,7.678-2.928,10.606,0l84.022,84.021c2.929,2.93,2.929,7.678,0,10.607C454.285,458.718,452.365,459.45,450.446,459.45z
		"/>
	<path style="fill:#DDAF89;" d="M408.435,476.852c-36.896,0-66.912-30.017-66.912-66.912c0-36.896,30.017-66.912,66.912-66.912
		s66.912,30.017,66.912,66.912S445.331,476.852,408.435,476.852z M408.435,358.027c-28.625,0-51.912,23.288-51.912,51.912
		s23.288,51.912,51.912,51.912s51.912-23.288,51.912-51.912S437.06,358.027,408.435,358.027z"/>
</g>
<circle style="fill:#A28577;" cx="408.44" cy="409.94" r="15.705"/>
<g style="opacity:0.1;">
	<path d="M318.829,151.906c-1.919,0-3.839-0.733-5.304-2.197c-2.929-2.929-2.928-7.678,0-10.606l14.216-14.215
		c2.929-2.928,7.678-2.929,10.607,0.001c2.929,2.929,2.928,7.678-0.001,10.606l-14.216,14.215
		C322.668,151.174,320.748,151.906,318.829,151.906z"/>
	<path d="M117.826,210.485c-1.919,0-3.839-0.732-5.303-2.196c-2.929-2.93-2.929-7.678,0-10.607l17.172-17.173
		c2.929-2.928,7.678-2.928,10.606,0c2.929,2.93,2.929,7.678,0,10.607l-17.172,17.173
		C121.665,209.753,119.745,210.485,117.826,210.485z"/>
	<path d="M351.18,155.095c-1.919,0-3.839-0.732-5.303-2.196c-2.929-2.93-2.929-7.678,0-10.607l28.037-28.036
		c2.929-2.929,7.678-2.927,10.606,0c2.929,2.93,2.929,7.678,0,10.607l-28.037,28.036C355.019,154.362,353.1,155.095,351.18,155.095z
		"/>
</g>
<g>
</g>
<g>
</g>
<g>
</g>
<g>
</g>
<g>
</g>
<g>
</g>
<g>
</g>
<g>
</g>
<g>
</g>
<g>
</g>
<g>
</g>
<g>
</g>
<g>
</g>
<g>
</g>
<g>
</g>
</svg>
