<?xml version="1.0" encoding="iso-8859-1"?>
<!-- Generator: Adobe Illustrator 19.0.0, SVG Export Plug-In . SVG Version: 6.00 Build 0)  -->
<svg version="1.1" id="Capa_1" xmlns="http://www.w3.org/2000/svg" xmlns:xlink="http://www.w3.org/1999/xlink" x="0px" y="0px"
	 viewBox="0 0 512 512" style="enable-background:new 0 0 512 512;" xml:space="preserve">
<path id="SVGCleanerId_0" style="fill:#A28577;" d="M356.24,84.834l15.984-65.279C374.66,9.603,367.125,0,356.879,0H155.121
	c-10.246,0-17.782,9.603-15.345,19.556l15.984,65.279c2.081,8.501-2.754,17.106-11.048,19.899
	C17.841,147.467-34.134,273.682,138.147,492.26c9.828,12.467,24.846,19.74,40.722,19.74h154.263
	c15.875,0,30.893-7.273,40.721-19.741c172.281-218.577,120.306-344.793-6.565-387.526C358.994,101.94,354.159,93.335,356.24,84.834z
	"/>
<g>
	<path id="SVGCleanerId_0_1_" style="fill:#A28577;" d="M356.24,84.834l15.984-65.279C374.66,9.603,367.125,0,356.879,0H155.121
		c-10.246,0-17.782,9.603-15.345,19.556l15.984,65.279c2.081,8.501-2.754,17.106-11.048,19.899
		C17.841,147.467-34.134,273.682,138.147,492.26c9.828,12.467,24.846,19.74,40.722,19.74h154.263
		c15.875,0,30.893-7.273,40.721-19.741c172.281-218.577,120.306-344.793-6.565-387.526C358.994,101.94,354.159,93.335,356.24,84.834
		z"/>
</g>
<path style="fill:#DDAF89;" d="M256,325.35c-89.06,0-133.411-39.709-219.329-15.253c14.035,51.411,46.195,112.023,101.477,182.161
	C147.975,504.727,162.993,512,178.869,512h154.263c15.876,0,30.894-7.273,40.721-19.741
	c55.283-70.138,87.442-130.75,101.477-182.161C389.411,285.642,345.06,325.35,256,325.35z"/>
<path style="fill:#84AC83;" d="M256,380.181c-82.479,0-126.614-34.054-200.93-19.663c17.778,39.449,44.916,83.324,83.078,131.741
	C147.975,504.727,162.993,512,178.869,512h154.263c15.876,0,30.893-7.273,40.721-19.741c38.161-48.416,65.299-92.291,83.078-131.741
	C382.614,346.127,338.479,380.181,256,380.181z"/>
<g>
	<path style="fill:#FFF0C0;" d="M244.162,449.814c-1.919,0-3.839-0.732-5.303-2.196c-2.929-2.93-2.929-7.678,0-10.607l23.676-23.676
		c2.929-2.928,7.678-2.928,10.606,0c2.929,2.93,2.929,7.678,0,10.607l-23.676,23.676
		C248.001,449.081,246.081,449.814,244.162,449.814z"/>
	<path style="fill:#FFF0C0;" d="M267.838,449.814c-1.919,0-3.839-0.732-5.303-2.196l-23.676-23.676
		c-2.929-2.93-2.929-7.678,0-10.607c2.929-2.928,7.678-2.928,10.606,0l23.676,23.676c2.929,2.93,2.929,7.678,0,10.607
		C271.677,449.081,269.757,449.814,267.838,449.814z"/>
	<path style="fill:#FFF0C0;" d="M152.256,449.814c-1.919,0-3.839-0.732-5.303-2.196c-2.929-2.93-2.929-7.678,0-10.607l23.675-23.676
		c2.929-2.928,7.678-2.928,10.606,0c2.929,2.93,2.929,7.678,0,10.607l-23.675,23.676
		C156.095,449.081,154.176,449.814,152.256,449.814z"/>
	<path style="fill:#FFF0C0;" d="M175.932,449.814c-1.919,0-3.839-0.732-5.303-2.196l-23.675-23.676
		c-2.929-2.93-2.929-7.678,0-10.607c2.929-2.928,7.678-2.928,10.607,0l23.675,23.676c2.929,2.93,2.929,7.678,0,10.607
		C179.77,449.081,177.851,449.814,175.932,449.814z"/>
	<path style="fill:#FFF0C0;" d="M359.744,449.814c-1.919,0-3.839-0.732-5.303-2.196l-23.675-23.676
		c-2.929-2.93-2.929-7.678,0-10.607c2.929-2.928,7.678-2.928,10.606,0l23.675,23.676c2.929,2.93,2.929,7.678,0,10.607
		C363.583,449.081,361.663,449.814,359.744,449.814z"/>
	<path style="fill:#FFF0C0;" d="M336.068,449.814c-1.919,0-3.839-0.732-5.303-2.196c-2.929-2.93-2.929-7.678,0-10.607l23.675-23.676
		c2.929-2.928,7.678-2.928,10.606,0c2.929,2.93,2.929,7.678,0,10.607l-23.675,23.676
		C339.907,449.081,337.988,449.814,336.068,449.814z"/>
</g>
<g>
	<ellipse style="fill:#F2937E;" cx="175.93" cy="243.79" rx="29.544" ry="23.527"/>
	<ellipse style="fill:#F2937E;" cx="336.07" cy="243.79" rx="29.544" ry="23.527"/>
</g>
<g>
	<path style="fill:#495059;" d="M193.15,227.821c-4.142,0-7.5-3.357-7.5-7.5v-10.433c0-4.143,3.358-7.5,7.5-7.5s7.5,3.357,7.5,7.5
		v10.433C200.65,224.464,197.292,227.821,193.15,227.821z"/>
	<path style="fill:#495059;" d="M318.85,227.821c-4.142,0-7.5-3.357-7.5-7.5v-10.433c0-4.143,3.358-7.5,7.5-7.5s7.5,3.357,7.5,7.5
		v10.433C326.35,224.464,322.992,227.821,318.85,227.821z"/>
	<path style="fill:#495059;" d="M256,235.833c-8.518,0-16.618-3.689-22.224-10.121c-2.722-3.122-2.396-7.86,0.726-10.582
		c3.122-2.721,7.86-2.395,10.581,0.727c2.757,3.163,6.735,4.977,10.917,4.977c4.181,0,8.16-1.813,10.917-4.977
		c2.722-3.123,7.458-3.448,10.581-0.727c3.123,2.722,3.448,7.46,0.726,10.582C272.618,232.144,264.518,235.833,256,235.833z"/>
</g>
<path style="opacity:0.1;enable-background:new    ;" d="M219.087,47.283l-7.151,21.452c-1.309,3.93,0.814,8.178,4.744,9.487
	c0.787,0.262,1.586,0.387,2.373,0.387c3.14,0,6.066-1.987,7.114-5.13l8.2-24.601c0.668-2.006,0.459-4.199-0.575-6.043L209.751,0
	h-17.202L219.087,47.283z"/>
<path style="opacity:0.1;enable-background:new    ;" d="M155.121,0c-10.246,0-17.782,9.603-15.345,19.556l15.984,65.279
	c2.081,8.497-2.748,17.104-11.038,19.896C17.85,147.458-34.133,273.665,138.125,492.23c9.836,12.48,24.854,19.77,40.744,19.77
	h139.709C126.975,359.555,135.411,218.971,201.336,120.923c5.684-8.454,6.785-19.221,2.712-28.558
	C190.659,61.678,178.695,17.487,182.593,0H155.121z"/>
<g style="opacity:0.1;">
	<path d="M391.864,196.386c-1.919,0-3.839-0.732-5.303-2.196c-2.929-2.93-2.929-7.678,0-10.607l19.139-19.14
		c2.929-2.928,7.678-2.928,10.606,0c2.929,2.93,2.929,7.678,0,10.607l-19.139,19.14
		C395.703,195.653,393.784,196.386,391.864,196.386z"/>
	<path d="M394.433,234.882c-1.919,0-3.839-0.732-5.303-2.196c-2.929-2.93-2.929-7.678,0-10.607l15.228-15.227
		c2.929-2.928,7.678-2.928,10.607,0c2.929,2.93,2.929,7.678,0,10.607l-15.228,15.228
		C398.271,234.149,396.352,234.882,394.433,234.882z"/>
	<path d="M68.456,278.287c-1.92,0-3.839-0.732-5.303-2.196c-2.929-2.93-2.929-7.678,0-10.606l15.227-15.228
		c2.929-2.93,7.678-2.929,10.606-0.001c2.929,2.93,2.929,7.678,0,10.606L73.759,276.09
		C72.294,277.555,70.375,278.287,68.456,278.287z"/>
</g>
<g>
</g>
<g>
</g>
<g>
</g>
<g>
</g>
<g>
</g>
<g>
</g>
<g>
</g>
<g>
</g>
<g>
</g>
<g>
</g>
<g>
</g>
<g>
</g>
<g>
</g>
<g>
</g>
<g>
</g>
</svg>
