<?xml version="1.0" encoding="iso-8859-1"?>
<!-- Generator: Adobe Illustrator 19.0.0, SVG Export Plug-In . SVG Version: 6.00 Build 0)  -->
<svg version="1.1" id="Capa_1" xmlns="http://www.w3.org/2000/svg" xmlns:xlink="http://www.w3.org/1999/xlink" x="0px" y="0px"
	 viewBox="0 0 512 512" style="enable-background:new 0 0 512 512;" xml:space="preserve">
<path style="fill:#FFF0C0;" d="M180.206,51.509c-0.527,4.064-1.498,7.881-2.677,11.274c-0.994,2.86-4.633,3.71-6.759,1.555
	c-10.29-10.43-16.601-21.909-19.953-32.551c-1.02-3.238-3.288-5.932-6.29-7.519c-22.32-11.8-44.576-20.518-63.543-24.08
	C72.863-1.337,66.213,6.71,69.228,14.403c16.773,42.79,95.037,140.602,188.912,109.84c-11.237-24.101-39.676-51.769-72.867-75.013
	C183.265,47.823,180.522,49.077,180.206,51.509z"/>
<path style="opacity:0.2;fill:#C97B00;enable-background:new    ;" d="M108.149,7.892c-9.521-3.476-18.674-6.11-27.165-7.705
	C72.863-1.337,66.213,6.71,69.228,14.403c8.032,20.49,30.17,53.592,61.364,79.156C96.573,52.685,98.031,21.981,108.149,7.892z"/>
<path style="fill:#A28577;" d="M264.821,512h-13.362c-10.009,0-18.122-8.114-18.122-18.122V41.208
	c0-10.009,8.114-18.122,18.122-18.122h13.362c10.009,0,18.122,8.114,18.122,18.122v452.669C282.944,503.886,274.83,512,264.821,512z
	"/>
<path style="fill:#DDAF89;" d="M233.336,420.245v73.632c0,10.009,8.114,18.122,18.122,18.122h13.362
	c10.009,0,18.123-8.114,18.123-18.122v-73.632H233.336z"/>
<path style="opacity:0.15;enable-background:new    ;" d="M264.821,512c10.009,0,18.123-8.114,18.123-18.122v-22.737
	c-32.183,2.04-44.798-43.506-49.607-80.845v103.582c0,10.009,8.114,18.122,18.123,18.122H264.821z"/>
<path style="opacity:0.15;enable-background:new    ;" d="M282.944,111.058l-49.607-0.03V236.55
	c7.069-0.004,13.82-4.069,16.916-10.931l2.827-6.267c1.966-4.358,8.154-4.358,10.12,0l2.828,6.267
	c3.096,6.863,9.847,10.926,16.916,10.931L282.944,111.058L282.944,111.058z"/>
<path style="fill:#BEBFC0;" d="M379.356,242.806l-74.165-39.553c-20.223-10.785-41.6-19.252-63.723-25.239l-67.443-18.252
	c-19.226-5.203-19.226-32.477,0-37.681l67.443-18.252c22.124-5.987,43.5-14.454,63.724-25.239l74.165-39.553
	c10.94-5.834,24.496-2.888,32.026,6.962l0,0c42.84,56.031,42.84,133.814,0,189.845l0,0
	C403.852,245.694,390.296,248.64,379.356,242.806z"/>
<path style="opacity:0.15;enable-background:new    ;" d="M411.382,45.999L411.382,45.999c-7.531-9.85-21.086-12.796-32.026-6.962
	L363.45,47.52c41.321,55.408,41.321,131.395,0,186.802l15.907,8.483c10.94,5.834,24.495,2.888,32.026-6.962l0,0
	C454.222,179.813,454.222,102.03,411.382,45.999z"/>
<path style="opacity:0.15;enable-background:new    ;" d="M411.382,235.844L411.382,235.844
	c9.501-12.427,16.89-25.924,22.176-40.016c-31.703,15.833-90.114-11.831-121.316-25.408
	c-34.109-14.843-143.354-19.13-143.574-46.042c-13.65,8.344-11.873,30.721,5.356,35.383l67.443,18.252
	c22.124,5.987,43.5,14.454,63.723,25.239l74.165,39.553C390.296,248.64,403.852,245.693,411.382,235.844z"/>
<path style="fill:#DC7070;" d="M282.955,214.461c-7.073,0-13.829-4.065-16.927-10.931L216.421,93.577
	c-4.215-9.343-0.058-20.333,9.284-24.548c9.34-4.216,20.333-0.059,24.548,9.284l49.607,109.952
	c4.215,9.343,0.058,20.333-9.284,24.548C288.099,213.931,285.506,214.461,282.955,214.461z"/>
<path style="fill:#F2937E;" d="M233.326,214.461c-2.552,0-5.144-0.529-7.621-1.647c-9.342-4.215-13.499-15.205-9.284-24.548
	l49.607-109.952c4.215-9.343,15.205-13.5,24.548-9.284c9.342,4.215,13.499,15.205,9.284,24.548L250.253,203.53
	C247.155,210.395,240.399,214.461,233.326,214.461z"/>
<g>
</g>
<g>
</g>
<g>
</g>
<g>
</g>
<g>
</g>
<g>
</g>
<g>
</g>
<g>
</g>
<g>
</g>
<g>
</g>
<g>
</g>
<g>
</g>
<g>
</g>
<g>
</g>
<g>
</g>
</svg>
