<?xml version="1.0" encoding="iso-8859-1"?>
<!-- Generator: Adobe Illustrator 19.0.0, SVG Export Plug-In . SVG Version: 6.00 Build 0)  -->
<svg version="1.1" id="Capa_1" xmlns="http://www.w3.org/2000/svg" xmlns:xlink="http://www.w3.org/1999/xlink" x="0px" y="0px"
	 viewBox="0 0 512 512" style="enable-background:new 0 0 512 512;" xml:space="preserve">
<path style="fill:#FFF0C0;" d="M241.328,480.183c-4.143,0-7.5-3.358-7.5-7.5V40.364c0-4.142,3.357-7.5,7.5-7.5s7.5,3.358,7.5,7.5
	v432.319C248.828,476.825,245.471,480.183,241.328,480.183z"/>
<path style="fill:#A28577;" d="M211.797,499.146c-12.268,0-22.212-9.945-22.212-22.212s9.944-22.212,22.212-22.212
	c109.576,0,198.722-89.146,198.722-198.722S321.373,57.278,211.797,57.278c-12.268,0-22.212-9.945-22.212-22.212
	s9.944-22.212,22.212-22.212c64.947,0,126.006,25.292,171.931,71.216c45.924,45.924,71.215,106.984,71.215,171.93
	s-25.291,126.006-71.215,171.93C337.803,473.854,276.743,499.146,211.797,499.146z"/>
<path style="opacity:0.15;enable-background:new    ;" d="M362.508,446.828c-44.173,16.725-75.217,6.77-83.553-3.796
	c-20.988,7.559-43.598,11.69-67.158,11.69c-12.268,0-22.212,9.945-22.212,22.212s9.944,22.212,22.212,22.212
	C267.191,499.146,319.748,480.734,362.508,446.828z"/>
<path style="fill:#DC7070;" d="M456.847,237.161h-48.231c-8.125,0-14.711,6.587-14.711,14.711v8.254
	c0,8.125,6.586,14.711,14.711,14.711h48.231c8.125,0,14.711-6.586,14.711-14.711v-8.254
	C471.559,243.748,464.972,237.161,456.847,237.161z"/>
<g>
	<path style="fill:#DDAF89;" d="M221.497,34.396c-4.143,0-7.5-3.358-7.5-7.5c0-5.937,5.273-11.752,8.416-14.689
		c4.162-3.89,15.566-12.827,31.485-11.745c4.133,0.279,7.257,3.857,6.978,7.989c-0.28,4.133-3.896,7.255-7.989,6.977
		c-12.928-0.866-22.561,9.153-23.931,12.255C228.563,31.455,225.373,34.396,221.497,34.396z M228.871,27.896L228.871,27.896
		L228.871,27.896z M228.997,26.896c0,0.002,0,0.005,0,0.008C228.997,26.9,228.997,26.898,228.997,26.896z"/>
	<path style="fill:#DDAF89;" d="M201.98,77.584c-2.751,0-5.4-1.519-6.714-4.148c-5.744-11.487,0.671-32.27,7.417-36.019
		c3.621-2.012,8.187-0.707,10.198,2.913c1.744,3.139,0.996,6.988-1.592,9.268c-1.918,3.034-4.655,13.034-2.607,17.131
		c1.853,3.705,0.351,8.21-3.354,10.062C204.251,77.329,203.106,77.584,201.98,77.584z M209.976,50.524
		c-0.002,0.001-0.005,0.003-0.008,0.004C209.971,50.527,209.974,50.525,209.976,50.524z"/>
	<path style="fill:#DDAF89;" d="M197.127,30.946c-1.593,0-3.196-0.505-4.555-1.545c-4.062-2.757-18.319-7.162-21.748-5.018
		c-3.511,2.195-8.139,1.13-10.336-2.382c-2.196-3.512-1.129-8.139,2.383-10.335c12.672-7.926,35.722,3.388,38.897,5.885
		c3.256,2.561,3.819,7.276,1.259,10.532C201.548,29.964,199.348,30.946,197.127,30.946z"/>
	<path style="fill:#DDAF89;" d="M237.445,29.103c0-6.674-2.634-13.756-7.68-17.456C222.73,6.488,217.741,0,208.342,0
		c-10.618,0-13.628,4.253-18.577,8.167c-6.175,4.883-10.526,12.444-10.526,20.936c0,16.073,13.946,24.847,29.103,29.103
		c9.045,2.54,18.253-4.092,23.071-11.361C235.518,40.652,237.445,35.781,237.445,29.103z"/>
	<path style="fill:#DDAF89;" d="M251.259,511.628c-14.542,0-24.917-8.163-28.846-11.834c-3.143-2.938-8.416-8.753-8.416-14.689
		c0-4.142,3.357-7.5,7.5-7.5c3.876,0,7.065,2.94,7.459,6.713c1.371,3.102,10.989,13.128,23.931,12.255
		c4.142-0.286,7.709,2.844,7.989,6.977c0.279,4.132-2.845,7.71-6.978,7.989C253.005,511.599,252.124,511.628,251.259,511.628z
		 M228.997,485.097c0,0.002,0,0.005,0,0.008C228.997,485.102,228.997,485.1,228.997,485.097z"/>
	<path style="fill:#DDAF89;" d="M206.318,475.529c-1.232,0-2.482-0.305-3.636-0.946c-6.746-3.749-13.161-24.532-7.417-36.019
		c1.852-3.705,6.356-5.207,10.063-3.354c3.704,1.852,5.206,6.357,3.354,10.062c-2.048,4.097,0.689,14.097,2.607,17.131
		c2.588,2.28,3.336,6.129,1.592,9.268C211.511,474.137,208.954,475.529,206.318,475.529z M209.968,461.472
		c0.003,0.001,0.006,0.003,0.008,0.004C209.974,461.475,209.971,461.473,209.968,461.472z"/>
	<path style="fill:#DDAF89;" d="M173.967,503.11c-4.036,0-7.895-0.775-11.096-2.776c-3.512-2.196-4.579-6.824-2.383-10.336
		c2.198-3.512,6.826-4.579,10.336-2.382c3.429,2.142,17.686-2.261,21.748-5.018c3.255-2.491,7.914-1.911,10.455,1.319
		c2.561,3.256,1.997,7.971-1.259,10.532C199.396,496.316,185.915,503.11,173.967,503.11z"/>
	<path style="fill:#DDAF89;" d="M237.445,482.897c0,6.674-2.634,13.756-7.68,17.456C222.73,505.513,217.741,512,208.342,512
		c-10.618,0-13.628-4.253-18.577-8.167c-6.175-4.883-10.526-12.444-10.526-20.936c0-16.073,13.946-24.847,29.103-29.103
		c9.045-2.54,18.253,4.092,23.071,11.361C235.518,471.348,237.445,476.219,237.445,482.897z"/>
</g>
<path style="fill:#AD8678;" d="M413.907,143.56L169.545,387.922c-5.758,5.758-15.093,5.758-20.851,0l-3.668-3.668
	c-5.758-5.758-5.758-15.093,0-20.851l244.362-244.362L413.907,143.56z"/>
<path style="opacity:0.15;enable-background:new    ;" d="M389.389,119.041l-38.147,38.147c0.532,3.64,1.362,7.476,2.522,11.599
	c1.42,5.048,5.351,8.978,10.398,10.398c4.123,1.16,7.958,1.99,11.599,2.522l38.147-38.147L389.389,119.041z"/>
<path style="fill:#FFF0C0;" d="M129.144,322.993c2.71,1.95,5.313,3.657,7.424,5.049c1.853,1.221,1.273,4.076-0.91,4.477
	c-5.711,1.05-13.735,1.998-21.744,1.466c-5.173-0.343-10.274,1.376-14.202,4.759c-19.315,16.638-37.498,37.533-53.589,60.116
	c-21.14,29.671,22.72,12.127,33.68,4.48s38.174-19.155,62.222-36.901l62.566-62.621c-24.875-6.897-50.518-0.833-75.188,13.494
	C127.287,318.543,127.156,321.563,129.144,322.993z"/>
<path style="opacity:0.2;fill:#C97B00;enable-background:new    ;" d="M63.279,376.46c-5.935,7.206-11.669,14.702-17.155,22.402
	c-21.14,29.671,22.72,12.127,33.68,4.48c6.31-4.402,18.011-10.088,31.39-17.504C83.742,395.62,61.886,391.356,63.279,376.46z"/>
<path style="fill:#BEBFC0;" d="M376.165,167.182c16.978,4.777,29.143,4.061,42.425-0.782c3.932-1.434,7.4-3.942,9.913-7.289
	c21.595-28.762,33.405-59.235,37.655-80.917c1.328-6.777-4.626-12.732-11.404-11.404c-21.682,4.25-52.155,16.06-80.917,37.655
	c-3.347,2.513-5.855,5.981-7.289,9.913c-4.842,13.282-5.558,25.446-0.781,42.425C367.186,161.832,371.117,165.762,376.165,167.182z"
	/>
<path style="opacity:0.15;enable-background:new    ;" d="M376.165,167.182c16.978,4.777,29.143,4.061,42.425-0.782
	c3.932-1.434,7.4-3.942,9.913-7.289c14.743-19.635,24.922-40.066,31.251-57.954c-11.509,16.945-33.66,45.093-59.669,46.056
	c-26.183,0.97-25.082-27.586-22.155-45.759c-1.367,0.978-2.732,1.97-4.092,2.992c-3.347,2.513-5.855,5.981-7.289,9.913
	c-4.842,13.282-5.558,25.446-0.781,42.425C367.186,161.832,371.117,165.762,376.165,167.182z"/>
<path style="fill:#DC7070;" d="M197.746,286.103l-12.968,12.968c-4.009,4.009-4.009,10.508,0,14.517l34.583,34.583
	c4.009,4.009,10.508,4.009,14.517,0l12.968-12.968c4.009-4.009,4.009-10.508,0-14.517l-34.583-34.583
	C208.254,282.094,201.754,282.094,197.746,286.103z"/>
<path style="fill:#F2937E;" d="M170.261,313.588l-12.968,12.968c-4.009,4.009-4.009,10.508,0,14.517l34.583,34.583
	c4.009,4.009,10.508,4.009,14.517,0l12.968-12.968c4.009-4.009,4.009-10.508,0-14.517l-34.583-34.583
	C180.769,309.579,174.269,309.579,170.261,313.588z"/>
<g>
</g>
<g>
</g>
<g>
</g>
<g>
</g>
<g>
</g>
<g>
</g>
<g>
</g>
<g>
</g>
<g>
</g>
<g>
</g>
<g>
</g>
<g>
</g>
<g>
</g>
<g>
</g>
<g>
</g>
</svg>
