<?xml version="1.0" encoding="iso-8859-1"?>
<!-- Generator: Adobe Illustrator 19.0.0, SVG Export Plug-In . SVG Version: 6.00 Build 0)  -->
<svg version="1.1" id="Capa_1" xmlns="http://www.w3.org/2000/svg" xmlns:xlink="http://www.w3.org/1999/xlink" x="0px" y="0px"
	 viewBox="0 0 512 512" style="enable-background:new 0 0 512 512;" xml:space="preserve">
<g>
	<path style="fill:#A28577;" d="M206.111,481.618c-4.142,0-7.5-3.358-7.5-7.5V427.63c0-4.142,3.358-7.5,7.5-7.5s7.5,3.358,7.5,7.5
		v46.487C213.611,478.26,210.253,481.618,206.111,481.618z"/>
	<path style="fill:#A28577;" d="M164.714,455.531c-4.142,0-7.5-3.358-7.5-7.5v-46.487c0-4.142,3.358-7.5,7.5-7.5s7.5,3.358,7.5,7.5
		v46.487C172.214,452.173,168.856,455.531,164.714,455.531z"/>
	<path style="fill:#A28577;" d="M123.316,429.445c-4.142,0-7.5-3.358-7.5-7.5v-46.488c0-4.142,3.358-7.5,7.5-7.5s7.5,3.358,7.5,7.5
		v46.488C130.816,426.087,127.458,429.445,123.316,429.445z"/>
	<path style="fill:#A28577;" d="M81.918,403.358c-4.142,0-7.5-3.358-7.5-7.5V349.37c0-4.142,3.358-7.5,7.5-7.5s7.5,3.358,7.5,7.5
		v46.488C89.418,400.001,86.06,403.358,81.918,403.358z"/>
	<path style="fill:#A28577;" d="M40.52,377.272c-4.142,0-7.5-3.358-7.5-7.5v-46.487c0-4.142,3.358-7.5,7.5-7.5s7.5,3.358,7.5,7.5
		v46.487C48.02,373.914,44.662,377.272,40.52,377.272z"/>
	<path style="fill:#A28577;" d="M305.889,481.618c-4.143,0-7.5-3.358-7.5-7.5V427.63c0-4.142,3.357-7.5,7.5-7.5s7.5,3.358,7.5,7.5
		v46.487C313.389,478.26,310.031,481.618,305.889,481.618z"/>
	<path style="fill:#A28577;" d="M347.286,455.531c-4.143,0-7.5-3.358-7.5-7.5v-46.487c0-4.142,3.357-7.5,7.5-7.5s7.5,3.358,7.5,7.5
		v46.487C354.786,452.173,351.429,455.531,347.286,455.531z"/>
	<path style="fill:#A28577;" d="M388.685,429.445c-4.143,0-7.5-3.358-7.5-7.5v-46.488c0-4.142,3.357-7.5,7.5-7.5
		c4.142,0,7.5,3.358,7.5,7.5v46.488C396.185,426.087,392.827,429.445,388.685,429.445z"/>
	<path style="fill:#A28577;" d="M430.082,403.358c-4.143,0-7.5-3.358-7.5-7.5V349.37c0-4.142,3.357-7.5,7.5-7.5s7.5,3.358,7.5,7.5
		v46.488C437.582,400.001,434.225,403.358,430.082,403.358z"/>
	<path style="fill:#A28577;" d="M471.48,377.272c-4.143,0-7.5-3.358-7.5-7.5v-46.487c0-4.142,3.357-7.5,7.5-7.5s7.5,3.358,7.5,7.5
		v46.487C478.98,373.914,475.622,377.272,471.48,377.272z"/>
	<path style="fill:#A28577;" d="M256,503.406c-4.142,0-7.5-3.358-7.5-7.5v-46.487c0-4.142,3.358-7.5,7.5-7.5
		c4.143,0,7.5,3.358,7.5,7.5v46.487C263.5,500.048,260.143,503.406,256,503.406z"/>
</g>
<path style="fill:#FFF0C0;" d="M361.635,8.594h-211.27c-19.498,0-37.063,11.78-44.463,29.819L2.252,291.081
	c-5.773,14.072-0.115,30.237,13.172,37.639l220.638,122.904c12.395,6.905,27.48,6.905,39.876,0L496.576,328.72
	c13.287-7.402,18.945-23.567,13.172-37.639L406.098,38.413C398.698,20.374,381.133,8.594,361.635,8.594z"/>
<path style="fill:#DC7070;" d="M408.272,183.667l65.568,19.881L406.098,38.413c-7.4-18.039-24.965-29.819-44.463-29.819h-211.27
	c-19.498,0-37.063,11.78-44.463,29.819L38.16,203.547l65.567-19.88c2.435-0.738,4.751,1.446,4.156,3.92l-11.682,48.601
	c-2.625,10.922,3.664,22.306,14.519,25.195c1.78,0.474,3.563,0.7,5.316,0.7c9.268,0,17.676-6.323,19.938-15.731l12.809-53.292
	c0.545-2.266,3.207-3.264,5.107-1.915l74.992,53.248c4.137,2.938,6.595,7.697,6.595,12.771v29.977
	c0,11.051,8.493,20.56,19.532,21.079c11.785,0.554,21.514-8.837,21.514-20.5v-30.556c0-5.074,2.458-9.834,6.595-12.771
	l74.992-53.249c1.9-1.349,4.562-0.351,5.107,1.915l12.809,53.292c2.261,9.409,10.669,15.732,19.938,15.732
	c1.587,0,3.201-0.186,4.813-0.573c11.021-2.649,17.807-13.731,15.158-24.751l-11.819-49.173
	C403.521,185.113,405.837,182.928,408.272,183.667z"/>
<path style="fill:#F2937E;" d="M276.908,188.951l72.695-51.618c10.036-7.126,22.806-9.207,34.586-5.635l68.724,20.838
	L406.098,38.413c-7.4-18.039-24.965-29.819-44.463-29.819h-211.27c-19.498,0-37.063,11.78-44.463,29.819L59.086,152.536
	l68.724-20.838c11.78-3.572,24.549-1.491,34.586,5.635l72.695,51.618C247.613,197.842,264.387,197.842,276.908,188.951z"/>
<path style="fill:#A28577;" d="M320.111,8.594L277.827,71.54c-10.419,15.51-33.236,15.51-43.654,0L191.889,8.594H320.111z"/>
<g style="opacity:0.1;">
	<path d="M357.36,363.915c-1.919,0-3.839-0.732-5.304-2.197c-2.929-2.929-2.929-7.677,0-10.607l20.521-20.521
		c2.93-2.929,7.678-2.929,10.608,0c2.929,2.929,2.929,7.678,0,10.606l-20.521,20.521
		C361.199,363.183,359.279,363.915,357.36,363.915z"/>
	<path d="M377.881,363.915c-1.92,0-3.839-0.732-5.304-2.197l-20.521-20.521c-2.929-2.929-2.929-7.678,0-10.606
		c2.931-2.93,7.679-2.929,10.608,0l20.521,20.521c2.929,2.929,2.929,7.678,0,10.607C381.72,363.183,379.8,363.915,377.881,363.915z"
		/>
</g>
<g style="opacity:0.1;">
	<path d="M164.714,325.297c-1.919,0-3.839-0.733-5.303-2.197c-2.929-2.929-2.929-7.678,0-10.607l20.521-20.521
		c2.929-2.929,7.678-2.929,10.606,0c2.929,2.929,2.929,7.677,0,10.607L170.017,323.1
		C168.553,324.565,166.633,325.297,164.714,325.297z"/>
	<path d="M185.234,325.297c-1.919,0-3.839-0.732-5.303-2.197l-20.521-20.521c-2.929-2.929-2.929-7.678,0-10.607
		s7.678-2.929,10.606,0l20.521,20.521c2.929,2.929,2.929,7.678,0,10.607C189.073,324.565,187.153,325.297,185.234,325.297z"/>
</g>
<g style="opacity:0.1;">
	<path d="M141.842,95.884c-1.919,0-3.839-0.732-5.303-2.197c-2.929-2.929-2.929-7.678,0-10.606l20.52-20.521
		c2.929-2.929,7.678-2.929,10.606,0c2.929,2.929,2.929,7.678,0,10.606l-20.52,20.521C145.681,95.152,143.761,95.884,141.842,95.884z
		"/>
	<path d="M162.362,95.884c-1.919,0-3.839-0.732-5.303-2.197l-20.52-20.521c-2.929-2.929-2.929-7.678,0-10.606
		c2.929-2.929,7.678-2.929,10.606,0l20.52,20.521c2.929,2.929,2.929,7.678,0,10.606C166.201,95.152,164.282,95.884,162.362,95.884z"
		/>
</g>
<path style="opacity:0.1;enable-background:new    ;" d="M183.862,8.594h-33.497c-19.498,0-37.063,11.78-44.463,29.819
	L2.252,291.081c-5.773,14.072-0.115,30.237,13.172,37.639l220.638,122.904c12.395,6.905,27.48,6.905,39.876,0l0.274-0.152
	C129.913,337.935,153.835,103.805,183.862,8.594z"/>
<g>
</g>
<g>
</g>
<g>
</g>
<g>
</g>
<g>
</g>
<g>
</g>
<g>
</g>
<g>
</g>
<g>
</g>
<g>
</g>
<g>
</g>
<g>
</g>
<g>
</g>
<g>
</g>
<g>
</g>
</svg>
