<?xml version="1.0" encoding="iso-8859-1"?>
<!-- Generator: Adobe Illustrator 19.0.0, SVG Export Plug-In . SVG Version: 6.00 Build 0)  -->
<svg version="1.1" id="Capa_1" xmlns="http://www.w3.org/2000/svg" xmlns:xlink="http://www.w3.org/1999/xlink" x="0px" y="0px"
	 viewBox="0 0 512.001 512.001" style="enable-background:new 0 0 512.001 512.001;" xml:space="preserve">
<path style="fill:#495059;" d="M228.534,406.634h-98.508v42.352c0,4.039,3.274,7.313,7.313,7.313h83.882
	c4.039,0,7.313-3.274,7.313-7.313L228.534,406.634L228.534,406.634z"/>
<path style="fill:#DDAF89;" d="M341.805,308.128V84.097c0-21.958-23.884-35.581-42.784-24.404l-60.71,35.902
	c-16.468,9.739-36.926,9.77-53.423,0.081L161.855,82.15c-18.901-11.1-42.71,2.529-42.71,24.448V398.13
	c0,12.85,10.417,23.267,23.267,23.267h73.767c7.764,0,15.435,1.689,22.482,4.949l45.4,21.004
	c12.742,5.895,26.614,8.948,40.654,8.948h64.446c34.032,0,65.383-18.469,81.879-48.236l38.483-69.441
	c8.342-15.053-5.713-32.667-22.242-27.874l-102.444,29.706C363.306,346.697,341.805,330.544,341.805,308.128z"/>
<path style="fill:#F6E06A;" d="M168.8,233.883c-16.631,1.313-19.228-3.971-26.894-19.653c-4.741-9.7-10.878-22.18-22.761-31.072
	v65.644c9.373,12.889,24.357,24.154,52.558,21.929c10.176-0.801,17.775-9.7,16.973-19.876
	C187.874,240.68,178.985,233.077,168.8,233.883z M318.089,176.638c-19.831,8.145-28.15,25.164-34.225,37.592
	c-7.665,15.682-10.25,20.968-26.893,19.653c-10.179-0.802-19.075,6.798-19.876,16.972c-0.802,10.176,6.798,19.074,16.973,19.876
	c41.714,3.291,54.527-22.925,63.004-40.269c5.252-10.745,8.542-16.956,15.059-19.632c3.134-1.287,6.396-2.105,9.673-2.496v-37.135
	C333.812,171.69,325.8,173.471,318.089,176.638z"/>
<g>
	<path style="fill:#A28577;" d="M487.28,310.748l-59.313,17.199c2.913,20.084,18.022,49.149,55.084,58.44l26.47-47.765
		C517.864,323.568,503.809,305.955,487.28,310.748z"/>
	<path style="fill:#A28577;" d="M157.755,153.579l24.754,14.538c17.731,10.413,39.718,10.38,57.417-0.087l65.248-38.586
		c12.625-7.466,27.315-4.631,36.629,4.246V84.097c0-21.958-23.884-35.581-42.784-24.404l-60.71,35.902
		c-16.468,9.739-36.926,9.77-53.423,0.081L161.855,82.15c-18.901-11.1-42.71,2.529-42.71,24.448v53.455
		C128.214,149.525,144.161,145.595,157.755,153.579z"/>
	<path style="fill:#A28577;" d="M417.642,427.891h-92.928c-14.04,0-27.911-3.053-40.654-8.948l-45.4-21.004
		c-7.047-3.26-14.718-4.948-22.482-4.948h-97.034v5.14c0,12.85,10.417,23.267,23.267,23.267h73.767
		c7.764,0,15.435,1.689,22.482,4.949l45.4,21.004c12.742,5.895,26.614,8.948,40.654,8.948h64.446
		c32.021,0,61.665-16.355,78.798-43.083C453.179,422.635,435.793,427.891,417.642,427.891z"/>
</g>
<path style="opacity:0.1;enable-background:new    ;" d="M142.412,421.398h73.767c7.764,0,15.435,1.689,22.482,4.949l45.4,21.004
	c12.742,5.895,26.614,8.948,40.654,8.948h64.446c16.514,0,32.391-4.36,46.251-12.239c-97.086-4.441-201.428-82.514-223.789-126.409
	c-18.113-35.557-21.937-141.696-22.705-219.862c-1.364-0.65-2.714-1.338-4.031-2.112L161.855,82.15
	c-18.901-11.1-42.71,2.529-42.71,24.448V398.13C119.145,410.98,129.562,421.398,142.412,421.398z"/>
<g style="opacity:0.1;">
	<path d="M267.342,328.062c-3.565,0-6.727-2.552-7.374-6.184c-0.728-4.078,1.988-7.973,6.066-8.701
		c4.99-0.891,9.946-1.957,14.732-3.171c4.014-1.018,8.095,1.412,9.113,5.427s-1.412,8.095-5.427,9.113
		c-5.132,1.301-10.442,2.444-15.784,3.397C268.223,328.023,267.78,328.062,267.342,328.062z"/>
	<path d="M309.45,315.911c-2.942,0-5.733-1.742-6.931-4.629c-1.587-3.826,0.229-8.214,4.055-9.801
		c4.843-2.008,9.596-4.239,14.129-6.629c3.665-1.931,8.201-0.528,10.132,3.136c1.933,3.664,0.529,8.2-3.135,10.132
		c-4.938,2.604-10.113,5.033-15.38,7.217C311.381,315.726,310.407,315.911,309.45,315.911z"/>
	<path d="M224.152,331.813c-4.135,0-7.492-3.348-7.5-7.486c-0.008-4.142,3.343-7.506,7.486-7.514
		c4.497-0.009,9.014-0.135,13.426-0.374c4.137-0.233,7.671,2.947,7.895,7.082c0.225,4.136-2.946,7.671-7.082,7.896
		c-4.672,0.254-9.454,0.387-14.211,0.397C224.162,331.813,224.157,331.813,224.152,331.813z"/>
	<path d="M194.807,330.311c-0.259,0-0.519-0.013-0.782-0.04c-5.715-0.592-11.477-1.36-17.124-2.284
		c-4.088-0.668-6.86-4.524-6.191-8.612c0.668-4.088,4.521-6.859,8.612-6.191c5.358,0.877,10.825,1.605,16.249,2.168
		c4.12,0.427,7.114,4.113,6.687,8.233C201.858,327.44,198.602,330.311,194.807,330.311z"/>
	<path d="M152.574,322.659c-0.634,0-1.279-0.081-1.921-0.251c-5.553-1.468-10.979-3.101-16.128-4.854
		c-3.921-1.335-6.018-5.596-4.682-9.517c1.335-3.92,5.595-6.018,9.517-4.682c4.82,1.641,9.909,3.172,15.127,4.551
		c4.004,1.058,6.393,5.163,5.334,9.167C158.931,320.436,155.895,322.659,152.574,322.659z"/>
</g>
<g>
	<path style="fill:#F7CF66;" d="M54.409,438.115c-4.142,0-7.5-3.358-7.5-7.5v-93.818c0-4.142,3.358-7.5,7.5-7.5s7.5,3.358,7.5,7.5
		v93.818C61.909,434.757,58.551,438.115,54.409,438.115z"/>
	<path style="fill:#F7CF66;" d="M87.579,424.375c-1.919,0-3.839-0.732-5.303-2.197l-66.34-66.338c-2.929-2.929-2.929-7.678,0-10.606
		c2.929-2.929,7.678-2.929,10.606,0l66.339,66.339c2.929,2.929,2.929,7.678,0,10.606C91.417,423.643,89.498,424.375,87.579,424.375z
		"/>
	<path style="fill:#F7CF66;" d="M101.318,391.206H7.5c-4.142,0-7.5-3.358-7.5-7.5s3.358-7.5,7.5-7.5h93.818
		c4.142,0,7.5,3.358,7.5,7.5S105.46,391.206,101.318,391.206z"/>
	<path style="fill:#F7CF66;" d="M21.239,424.375c-1.92,0-3.839-0.732-5.303-2.197c-2.929-2.929-2.929-7.678,0-10.606l66.339-66.339
		c2.929-2.929,7.678-2.929,10.606,0c2.929,2.929,2.929,7.678,0,10.606l-66.339,66.339C25.078,423.643,23.159,424.375,21.239,424.375
		z"/>
	<circle style="fill:#F7CF66;" cx="54.41" cy="383.71" r="31.24"/>
</g>
<path style="fill:#F6E06A;" d="M154.731,367.546l-88.433,3.755c-6.646,0.282-11.889,5.752-11.889,12.404l0,0
	c0,6.652,5.243,12.122,11.889,12.404l88.433,3.755c4.882,0.207,8.953-3.695,8.953-8.581v-15.157
	C163.684,371.241,159.613,367.339,154.731,367.546z"/>
<g>
</g>
<g>
</g>
<g>
</g>
<g>
</g>
<g>
</g>
<g>
</g>
<g>
</g>
<g>
</g>
<g>
</g>
<g>
</g>
<g>
</g>
<g>
</g>
<g>
</g>
<g>
</g>
<g>
</g>
</svg>
