<?xml version="1.0" encoding="iso-8859-1"?>
<!-- Generator: Adobe Illustrator 19.0.0, SVG Export Plug-In . SVG Version: 6.00 Build 0)  -->
<svg version="1.1" id="Capa_1" xmlns="http://www.w3.org/2000/svg" xmlns:xlink="http://www.w3.org/1999/xlink" x="0px" y="0px"
	 viewBox="0 0 512.002 512.002" style="enable-background:new 0 0 512.002 512.002;" xml:space="preserve">
<path style="fill:#FFF0C0;" d="M369.248,0H81.683c-9.666,0-17.502,7.836-17.502,17.503v149.239c0,5.193,2.036,10.179,5.67,13.888
	l11.239,11.469c1.808,1.844,1.962,4.745,0.361,6.771l-12.996,16.444c-2.769,3.503-4.275,7.838-4.275,12.303v266.882
	c0,9.666,7.836,17.503,17.502,17.503h100.029c3.734,0,7.178-2.015,9.008-5.271l12.406-22.075c1.136-2.022,3.934-2.307,5.454-0.556
	l21.136,24.343c1.962,2.26,4.809,3.558,7.802,3.558h192.801c9.666,0,17.503-7.836,17.503-17.503V78.573L369.248,0z"/>
<path style="fill:#A28577;" d="M379.624,334.448H132.378c-7.732,0-14-6.268-14-14V127.04c0-7.732,6.268-14,14-14h247.246
	c7.732,0,14,6.268,14,14v193.408C393.624,328.18,387.356,334.448,379.624,334.448z"/>
<g style="opacity:0.1;">
	<g>
		<path d="M358.018,461.832h-28.013c-4.142,0-7.5-3.358-7.5-7.5s3.358-7.5,7.5-7.5h28.013c5.45,0,9.884-4.434,9.884-9.884
			s-4.434-9.884-9.884-9.884h-10.629c-13.721,0-24.884-11.163-24.884-24.884s11.163-24.884,24.884-24.884h28.013
			c4.142,0,7.5,3.358,7.5,7.5s-3.358,7.5-7.5,7.5h-28.013c-5.45,0-9.884,4.434-9.884,9.884s4.434,9.884,9.884,9.884h10.629
			c13.721,0,24.884,11.163,24.884,24.884S371.739,461.832,358.018,461.832z"/>
		<path d="M352.704,472.331c-4.142,0-7.5-3.358-7.5-7.5v-90.534c0-4.142,3.358-7.5,7.5-7.5s7.5,3.358,7.5,7.5v90.534
			C360.204,468.973,356.846,472.331,352.704,472.331z"/>
	</g>
	<g>
		<path d="M261.316,461.832h-28.013c-4.142,0-7.5-3.358-7.5-7.5s3.358-7.5,7.5-7.5h28.013c5.45,0,9.884-4.434,9.884-9.884
			s-4.434-9.884-9.884-9.884h-10.629c-13.721,0-24.884-11.163-24.884-24.884s11.163-24.884,24.884-24.884H278.7
			c4.142,0,7.5,3.358,7.5,7.5s-3.358,7.5-7.5,7.5h-28.013c-5.45,0-9.884,4.434-9.884,9.884s4.434,9.884,9.884,9.884h10.629
			c13.721,0,24.884,11.163,24.884,24.884C286.199,450.669,275.037,461.832,261.316,461.832z"/>
		<path d="M256.001,472.331c-4.142,0-7.5-3.358-7.5-7.5v-90.534c0-4.142,3.358-7.5,7.5-7.5c4.142,0,7.5,3.358,7.5,7.5v90.534
			C263.501,468.973,260.143,472.331,256.001,472.331z"/>
	</g>
	<g>
		<path d="M164.613,461.832H136.6c-4.142,0-7.5-3.358-7.5-7.5s3.358-7.5,7.5-7.5h28.013c5.45,0,9.884-4.434,9.884-9.884
			s-4.434-9.884-9.884-9.884h-10.629c-13.721,0-24.884-11.163-24.884-24.884s11.163-24.884,24.884-24.884h28.013
			c4.142,0,7.5,3.358,7.5,7.5s-3.358,7.5-7.5,7.5h-28.013c-5.45,0-9.884,4.434-9.884,9.884s4.434,9.884,9.884,9.884h10.629
			c13.721,0,24.884,11.163,24.884,24.884S178.334,461.832,164.613,461.832z"/>
		<path d="M159.298,472.331c-4.142,0-7.5-3.358-7.5-7.5v-90.534c0-4.142,3.358-7.5,7.5-7.5s7.5,3.358,7.5,7.5v90.534
			C166.798,468.973,163.44,472.331,159.298,472.331z"/>
	</g>
</g>
<path style="opacity:0.1;enable-background:new    ;" d="M386.506,78.573h-261.01c-3.931,0-7.118-3.187-7.118-7.118v-29.87
	c0-3.931,3.187-7.118,7.118-7.118h261.01c3.931,0,7.118,3.187,7.118,7.118v29.87C393.624,75.386,390.437,78.573,386.506,78.573z"/>
<path style="fill:#DDAF89;" d="M402.077,71.38L402.077,71.38c8.543-4.352,18.585-4.653,27.373-0.82l18.371,8.013l0,0
	C447.821,35.178,412.643,0,369.248,0l0,0l8.261,17.246c5.582,11.652,8.761,24.309,9.35,37.215l0.378,8.284
	C387.575,70.161,395.462,74.75,402.077,71.38z"/>
<path style="fill:#F2937E;" d="M330.985,243.57c-4.652,11.443-13.006,14.923-20.352,11.937c-7.346-2.986-10.902-11.309-6.25-22.751
	s16.671-23.937,24.017-20.951C335.746,214.791,335.637,232.127,330.985,243.57z"/>
<path style="opacity:0.2;enable-background:new    ;" d="M330.985,243.57c-4.652,11.443-13.006,14.923-20.352,11.937
	c-7.346-2.986-10.902-11.309-6.25-22.751s16.671-23.937,24.017-20.951C335.746,214.791,335.637,232.127,330.985,243.57z"/>
<path style="fill:#F2937E;" d="M326.416,268.164c-12.312,0.997-19.181-4.896-19.82-12.8c-0.64-7.904,5.191-14.825,17.503-15.822
	c12.312-0.997,28.879,4.111,29.519,12.015C354.258,259.46,338.728,267.167,326.416,268.164z"/>
<path style="opacity:0.1;enable-background:new    ;" d="M326.416,268.164c-12.312,0.997-19.181-4.896-19.82-12.8
	c-0.64-7.904,5.191-14.825,17.503-15.822c12.312-0.997,28.879,4.111,29.519,12.015C354.258,259.46,338.728,267.167,326.416,268.164z
	"/>
<path style="fill:#F2937E;" d="M323.157,247.297c-9.138,29.348-42.507,49.748-61.977,59.014c-2.023,0.963-4.36,0.963-6.383,0
	c-19.469-9.266-52.839-29.666-61.977-59.014c-0.713-2.291,0.638-4.709,2.968-5.283c7.962-1.962,27.863-5.778,62.2-5.778
	s54.238,3.816,62.2,5.778C322.519,242.588,323.871,245.006,323.157,247.297z"/>
<g>
	<path style="fill:#DDAF89;" d="M256.001,195.904c13.658,0,32.863-1.188,48.82-2.666l-13.775-41.63
		c-1.405-4.245-5.841-6.693-10.182-5.618l-13.22,3.275c-6.188,1.533-12.656,1.533-18.845,0l-13.22-3.275
		c-4.341-1.075-8.777,1.373-10.182,5.618l-13.902,42.016C226.501,194.917,243.553,195.904,256.001,195.904z"/>
	<path style="fill:#DDAF89;" d="M256.001,203.404c-20.049,0-51.538-2.479-68.37-4.795c-4.103-0.565-6.972-4.349-6.408-8.453
		c0.565-4.103,4.343-6.968,8.453-6.408c16.003,2.202,47.178,4.655,66.325,4.655s50.321-2.453,66.325-4.655
		c4.104-0.56,7.888,2.304,8.453,6.408c0.564,4.104-2.305,7.888-6.408,8.453C307.539,200.924,276.05,203.404,256.001,203.404z"/>
</g>
<path style="opacity:0.1;enable-background:new    ;" d="M136.722,0H81.683c-9.666,0-17.502,7.836-17.502,17.503v149.239
	c0,5.193,2.036,10.179,5.67,13.888l11.239,11.469c1.807,1.844,1.962,4.745,0.361,6.771l-12.996,16.444
	c-2.769,3.503-4.275,7.838-4.275,12.303v266.882c0,9.666,7.836,17.503,17.502,17.503h100.029c3.734,0,7.178-2.015,9.008-5.271
	l12.406-22.075c1.136-2.022,3.934-2.307,5.454-0.556l21.136,24.343c1.962,2.26,4.809,3.558,7.802,3.558h22.569
	C166.963,428.058,138.798,114.567,136.722,0z"/>
<g>
</g>
<g>
</g>
<g>
</g>
<g>
</g>
<g>
</g>
<g>
</g>
<g>
</g>
<g>
</g>
<g>
</g>
<g>
</g>
<g>
</g>
<g>
</g>
<g>
</g>
<g>
</g>
<g>
</g>
</svg>
