<?xml version="1.0" encoding="iso-8859-1"?>
<!-- Generator: Adobe Illustrator 19.0.0, SVG Export Plug-In . SVG Version: 6.00 Build 0)  -->
<svg version="1.1" id="Capa_1" xmlns="http://www.w3.org/2000/svg" xmlns:xlink="http://www.w3.org/1999/xlink" x="0px" y="0px"
	 viewBox="0 0 512.001 512.001" style="enable-background:new 0 0 512.001 512.001;" xml:space="preserve">
<path style="fill:#FFF0C0;" d="M133.184,269.475c4.07,2.927,7.977,5.491,11.148,7.581c2.782,1.834,1.911,6.119-1.366,6.722
	c-8.574,1.577-20.622,3-32.648,2.201c-7.767-0.516-15.426,2.066-21.324,7.146c-29.001,24.981-56.302,56.354-80.462,90.263
	c-31.742,44.55,34.114,18.208,50.57,6.727c16.456-11.481,57.318-28.76,93.424-55.406l93.941-94.024
	c-37.35-10.355-75.852-1.25-112.892,20.261C130.396,262.792,130.199,267.328,133.184,269.475z"/>
<path style="opacity:0.2;fill:#C97B00;enable-background:new    ;" d="M36.072,347.591c-9.548,11.476-18.754,23.465-27.541,35.797
	c-31.741,44.55,34.114,18.208,50.57,6.727c10.731-7.487,31.843-17.442,55.244-30.85C70.21,370.311,40.801,360.74,36.072,347.591z"/>
<path style="fill:#FFF0C0;" d="M177.291,359.474c-26.646,36.107-43.925,76.968-55.406,93.424
	c-11.481,16.457-37.823,82.312,6.727,50.57c23.869-17.007,46.48-35.572,66.493-55.189c3.637-3.565,5.473-8.605,4.895-13.665
	c-1.358-11.884,0.07-24.507,2.021-34.506c1.127-5.778,8.799-7.081,11.81-2.021c1.777,2.986,3.776,6.227,5.965,9.474
	c2.664,3.951,8.42,4.193,11.322,0.413c35.14-45.772,53.34-95.035,40.196-142.44L177.291,359.474z"/>
<path style="fill:#A28577;" d="M397.557,89.649L100.442,386.763c-6.017,6.017-6.017,15.773,0,21.791l3.004,3.004
	c6.017,6.017,15.773,6.017,21.791,0l297.114-297.114c6.017-6.017,6.017-15.773,0-21.791l-3.004-3.004
	C413.33,83.632,403.574,83.632,397.557,89.649z"/>
<path style="opacity:0.15;enable-background:new    ;" d="M419.347,89.649c-6.017-6.017-15.773-6.017-21.791,0l-18.835,18.836
	c0.594,3.327,1.401,6.805,2.435,10.481c1.622,5.766,6.112,10.256,11.878,11.878c3.676,1.034,7.154,1.841,10.481,2.435l18.836-18.835
	c6.017-6.017,6.017-15.773,0-21.791L419.347,89.649z"/>
<path style="opacity:0.15;enable-background:new    ;" d="M251.937,235.269L100.442,386.763c-6.017,6.017-6.017,15.773,0,21.791
	l3.004,3.004c6.017,6.017,15.773,6.017,21.791,0l176.539-176.539C273.286,249.117,257.696,244.756,251.937,235.269z"/>
<path style="fill:#BEBFC0;" d="M408.983,114.895c19.395,5.456,33.291,4.639,48.464-0.893c4.492-1.638,8.453-4.503,11.324-8.326
	c24.67-32.856,38.161-67.667,43.015-92.436c1.518-7.742-5.285-14.544-13.027-13.027c-24.768,4.855-59.58,18.346-92.436,43.015
	c-3.823,2.871-6.689,6.832-8.327,11.324c-5.531,15.173-6.349,29.069-0.893,48.464C398.727,108.783,403.217,113.273,408.983,114.895z
	"/>
<path style="fill:#DC7070;" d="M207.141,351.495l-9.394,9.394c-4.253,4.253-11.148,4.253-15.4,0l-31.236-31.236
	c-4.253-4.253-4.253-11.148,0-15.4l9.394-9.394c4.253-4.253,11.148-4.253,15.4,0l31.236,31.236
	C211.394,340.348,211.394,347.243,207.141,351.495z"/>
<path style="fill:#F2937E;" d="M231.935,326.701l-9.394,9.394c-4.253,4.253-11.148,4.253-15.4,0l-31.236-31.236
	c-4.253-4.253-4.253-11.148,0-15.4l9.394-9.394c4.253-4.253,11.148-4.253,15.4,0l31.236,31.236
	C236.188,315.553,236.188,322.448,231.935,326.701z"/>
<path style="fill:#DC7070;" d="M256.73,301.907l-9.394,9.394c-4.253,4.253-11.148,4.253-15.4,0L200.7,280.065
	c-4.253-4.253-4.253-11.148,0-15.4l9.394-9.394c4.253-4.253,11.148-4.253,15.4,0l31.236,31.236
	C260.982,290.759,260.982,297.654,256.73,301.907z"/>
<path style="opacity:0.15;enable-background:new    ;" d="M468.771,105.676c15.285-20.358,26.275-41.464,33.582-60.468
	c-73.259,74.479-100.54,13.767-86.905-8.515c-3.052,2.086-6.096,4.263-9.124,6.536c-3.823,2.871-6.689,6.832-8.327,11.324
	c-5.531,15.173-6.349,29.069-0.893,48.464c1.622,5.766,6.112,10.256,11.878,11.878c19.395,5.456,33.291,4.639,48.464-0.893
	C461.939,112.365,465.9,109.499,468.771,105.676z"/>
<path style="opacity:0.2;fill:#C97B00;enable-background:new    ;" d="M128.612,503.469c23.869-17.007,46.48-35.571,66.493-55.189
	c3.637-3.565,5.473-8.605,4.895-13.665c-0.789-6.903-0.634-14.052,0.014-20.795c-32.191,43.357-70.946,56.29-80.987,43.661
	C106.787,478.864,87.47,532.781,128.612,503.469z"/>
<g>
</g>
<g>
</g>
<g>
</g>
<g>
</g>
<g>
</g>
<g>
</g>
<g>
</g>
<g>
</g>
<g>
</g>
<g>
</g>
<g>
</g>
<g>
</g>
<g>
</g>
<g>
</g>
<g>
</g>
</svg>
