<?xml version="1.0" encoding="iso-8859-1"?>
<!-- Generator: Adobe Illustrator 19.0.0, SVG Export Plug-In . SVG Version: 6.00 Build 0)  -->
<svg version="1.1" id="Capa_1" xmlns="http://www.w3.org/2000/svg" xmlns:xlink="http://www.w3.org/1999/xlink" x="0px" y="0px"
	 viewBox="0 0 512 512" style="enable-background:new 0 0 512 512;" xml:space="preserve">
<path style="fill:#84AC83;" d="M324.172,171.232V67.998H187.828v103.234c0,15.682-11.518,28.983-27.038,31.225l-47.798,6.905
	c-25.815,3.729-44.269,26.905-42.121,52.9l17.5,211.777C90.145,495.492,108.073,512,129.6,512h252.801
	c21.526,0,39.455-16.508,41.228-37.961l17.5-211.777c2.148-25.994-16.306-49.171-42.121-52.9l-47.797-6.905
	C335.689,200.215,324.172,186.914,324.172,171.232z"/>
<rect x="187.829" y="67.998" style="opacity:0.15;enable-background:new    ;" width="136.34" height="27.492"/>
<path style="fill:#84AC83;" d="M335.898,0H176.1c-18.777,0-33.999,15.222-33.999,33.999l0,0c0,18.777,15.222,33.999,33.999,33.999
	h159.797c18.777,0,33.999-15.222,33.999-33.999l0,0C369.897,15.222,354.676,0,335.898,0z"/>
<path style="opacity:0.15;enable-background:new    ;" d="M335.898,0H176.1c-18.777,0-33.999,15.222-33.999,33.999l0,0
	c0,18.777,15.222,33.999,33.999,33.999h159.797c18.777,0,33.999-15.222,33.999-33.999l0,0C369.897,15.222,354.676,0,335.898,0z"/>
<path style="fill:#FFF0C0;" d="M411.357,315.451c-2.497,0-4.847,1.182-6.335,3.187l-15.038,20.26
	c-2.031,2.736-6.252,2.289-7.665-0.812l-8.211-18.017c-1.282-2.813-4.088-4.618-7.179-4.618H75.267L86.945,456.77h18.319
	c2.704,0,5.284-1.132,7.114-3.122l8.097-8.801c2.889-3.14,7.667-3.63,11.133-1.142l15.296,10.982
	c1.886,1.354,4.149,2.082,6.471,2.082h271.679l11.678-141.319h-25.375V315.451z"/>
<g>
	<path style="fill:#495059;" d="M241.302,417.647c-1.334,0-2.684-0.356-3.904-1.102c-3.534-2.16-4.648-6.776-2.488-10.31
		l29.381-48.07c2.161-3.534,6.777-4.647,10.311-2.488c3.534,2.16,4.648,6.776,2.488,10.31l-29.381,48.07
		C246.294,416.37,243.828,417.647,241.302,417.647z"/>
	<path style="fill:#495059;" d="M270.697,417.647c-2.526,0-4.992-1.276-6.406-3.589l-29.381-48.07
		c-2.16-3.534-1.046-8.15,2.488-10.31c3.533-2.16,8.15-1.047,10.311,2.488l29.381,48.07c2.16,3.534,1.046,8.15-2.488,10.31
		C273.381,417.291,272.03,417.647,270.697,417.647z"/>
	<path style="fill:#495059;" d="M164.005,417.647c-1.334,0-2.684-0.356-3.904-1.102c-3.534-2.16-4.648-6.776-2.488-10.31
		l29.381-48.07c2.161-3.534,6.778-4.647,10.311-2.488c3.534,2.16,4.648,6.776,2.488,10.31l-29.381,48.07
		C168.997,416.37,166.531,417.647,164.005,417.647z"/>
	<path style="fill:#495059;" d="M193.399,417.647c-2.526,0-4.992-1.276-6.406-3.589l-29.381-48.07
		c-2.16-3.534-1.046-8.15,2.488-10.31c3.534-2.16,8.15-1.047,10.311,2.488l29.381,48.07c2.16,3.534,1.046,8.15-2.488,10.31
		C196.083,417.291,194.732,417.647,193.399,417.647z"/>
	<path style="fill:#495059;" d="M347.993,417.647c-2.526,0-4.992-1.276-6.406-3.589l-29.381-48.07
		c-2.16-3.534-1.046-8.15,2.488-10.31s8.15-1.047,10.311,2.488l29.381,48.07c2.16,3.534,1.046,8.15-2.488,10.31
		C350.678,417.291,349.327,417.647,347.993,417.647z"/>
	<path style="fill:#495059;" d="M318.6,417.647c-1.334,0-2.684-0.356-3.904-1.102c-3.534-2.16-4.648-6.776-2.488-10.31l29.381-48.07
		c2.16-3.534,6.778-4.647,10.311-2.488c3.534,2.16,4.648,6.776,2.488,10.31l-29.381,48.07
		C323.592,416.37,321.126,417.647,318.6,417.647z"/>
</g>
<g>
	<ellipse style="fill:#F2937E;" cx="184.77" cy="263.65" rx="26.28" ry="20.929"/>
	<ellipse style="fill:#F2937E;" cx="327.23" cy="263.65" rx="26.28" ry="20.929"/>
</g>
<g>
	<path style="fill:#495059;" d="M200.089,250.27c-4.143,0-7.5-3.358-7.5-7.5v-9.281c0-4.142,3.357-7.5,7.5-7.5s7.5,3.358,7.5,7.5
		v9.281C207.589,246.912,204.23,250.27,200.089,250.27z"/>
	<path style="fill:#495059;" d="M311.911,250.27c-4.143,0-7.5-3.358-7.5-7.5v-9.281c0-4.142,3.357-7.5,7.5-7.5s7.5,3.358,7.5,7.5
		v9.281C319.411,246.912,316.053,250.27,311.911,250.27z"/>
	<path style="fill:#495059;" d="M255.999,257.397c-7.817,0-15.251-3.385-20.395-9.288c-2.722-3.123-2.395-7.86,0.727-10.582
		c3.122-2.721,7.859-2.397,10.582,0.727c2.294,2.633,5.605,4.143,9.086,4.143c3.481,0,6.792-1.51,9.086-4.143
		c2.721-3.124,7.457-3.448,10.582-0.727c3.122,2.721,3.448,7.459,0.727,10.582C271.251,254.011,263.816,257.397,255.999,257.397z"/>
</g>
<path style="opacity:0.15;enable-background:new    ;" d="M156.514,203.075l-43.522,6.287c-25.815,3.729-44.269,26.906-42.121,52.9
	l17.5,211.777C90.145,495.492,108.073,512,129.6,512h138.963C148.73,442.583,122.432,231.91,156.514,203.075z"/>
<path style="opacity:0.15;enable-background:new    ;" d="M176.1,0c-18.777,0-33.999,15.222-33.999,33.999l0,0
	c0,18.777,15.222,33.999,33.999,33.999h92.445C240.499,52.756,239.729,15.654,248.13,0H176.1z"/>
<g>
</g>
<g>
</g>
<g>
</g>
<g>
</g>
<g>
</g>
<g>
</g>
<g>
</g>
<g>
</g>
<g>
</g>
<g>
</g>
<g>
</g>
<g>
</g>
<g>
</g>
<g>
</g>
<g>
</g>
</svg>
