<?xml version="1.0" encoding="iso-8859-1"?>
<!-- Generator: Adobe Illustrator 19.0.0, SVG Export Plug-In . SVG Version: 6.00 Build 0)  -->
<svg version="1.1" id="Capa_1" xmlns="http://www.w3.org/2000/svg" xmlns:xlink="http://www.w3.org/1999/xlink" x="0px" y="0px"
	 viewBox="0 0 512 512" style="enable-background:new 0 0 512 512;" xml:space="preserve">
<path style="fill:#F6E06A;" d="M60.026,133.321C48.625,105.037,81.711,27.72,132.966,26.735
	c51.255-0.986,68.997,16.214,102.51,14.021s95.748,52.619,45.209,92.565C257.16,151.915,78.754,179.781,60.026,133.321z"/>
<path style="opacity:0.2;fill:#C97B00;enable-background:new    ;" d="M136.448,77.729c-27.446-5.552-34.71-28.501-25.283-45.786
	c-38.397,17.935-60.826,77.349-51.14,101.378c18.728,46.46,197.134,18.594,220.659,0c5.349-4.228,9.422-8.624,12.413-13.1
	C210.561,142.441,206.353,91.87,136.448,77.729z"/>
<path style="fill:#F6E06A;" d="M217.332,142.441c0-17.777,13.662-59.752,40.986-73.774c27.324-14.021,29.275-37.442,100.512-23.78
	s118.735,74.094,113.039,101.488C466.172,173.769,217.332,199.984,217.332,142.441z"/>
<path style="opacity:0.2;fill:#C97B00;enable-background:new    ;" d="M344.831,92.721c-35.425-5.656-50.182-30.653-50.194-47.414
	c-14.427,5.781-21.783,15.9-36.32,23.359c-27.324,14.021-40.986,55.997-40.986,73.774c0,57.544,248.84,31.328,254.536,3.934
	c1.146-5.51,0.135-12.358-2.783-19.892C420.481,140.474,389.257,99.814,344.831,92.721z"/>
<path style="fill:#F7CF66;" d="M429.789,91.545L429.789,91.545c-2.536,5.258-10.025,5.258-12.562,0l0,0
	c-2.936-6.086-7.799-11.033-13.834-14.072l-1.682-0.847c-5.116-2.576-5.116-9.881,0-12.457l1.682-0.847
	c6.035-3.039,10.899-7.985,13.834-14.071l0,0c2.536-5.258,10.025-5.258,12.562,0l0,0c2.936,6.086,7.799,11.033,13.835,14.071
	l1.682,0.847c5.116,2.576,5.116,9.881,0,12.457l-1.682,0.847C437.588,80.512,432.725,85.459,429.789,91.545z"/>
<path style="fill:#FFFFFF;" d="M151.646,87.545L151.646,87.545c-2.536,5.258-10.025,5.258-12.562,0l0,0
	c-2.936-6.086-7.799-11.033-13.834-14.072l-1.682-0.847c-5.117-2.576-5.117-9.881,0-12.457l1.682-0.847
	c6.035-3.039,10.899-7.985,13.834-14.071l0,0c2.536-5.258,10.025-5.258,12.562,0l0,0c2.936,6.086,7.799,11.033,13.834,14.071
	l1.682,0.847c5.117,2.576,5.117,9.881,0,12.457l-1.682,0.847C159.445,76.512,154.582,81.459,151.646,87.545z"/>
<path style="fill:#BEBFC0;" d="M494.226,442.582H17.774c-9.357,0-16.942-7.585-16.942-16.942v-16.242
	c0-9.357,7.585-16.942,16.942-16.942h476.452c9.357,0,16.942,7.585,16.942,16.942v16.242
	C511.168,434.996,503.583,442.582,494.226,442.582z"/>
<path style="opacity:0.1;enable-background:new    ;" d="M29.136,417.519c0,8.75,1.404,17.168,3.969,25.063h154.16
	c2.565-7.895,3.969-16.313,3.969-25.063s-1.404-17.168-3.969-25.063H33.105C30.54,400.35,29.136,408.769,29.136,417.519z"/>
<path style="fill:#A28577;" d="M480.389,173.769H31.611l22.324,159.074c4.797,34.185,34.043,59.613,68.563,59.613h267.004
	c34.52,0,63.765-25.428,68.563-59.613L480.389,173.769z"/>
<path style="fill:#DFE3E5;" d="M46.765,281.748l7.171,51.095c4.797,34.185,34.043,59.613,68.563,59.613h267.004
	c34.52,0,63.765-25.428,68.563-59.613l7.171-51.095H46.765z"/>
<path style="opacity:0.1;enable-background:new    ;" d="M53.935,332.843c4.797,34.185,34.043,59.613,68.563,59.613h129.309
	c-91.527-37.055-120.775-159.04-128.955-218.687H31.611L53.935,332.843z"/>
<g style="opacity:0.1;">
	<circle cx="256" cy="304.839" r="7.272"/>
	<circle cx="197.74" cy="304.839" r="7.272"/>
	<circle cx="139.48" cy="304.839" r="7.272"/>
	<circle cx="81.22" cy="304.839" r="7.272"/>
	<circle cx="314.26" cy="304.839" r="7.272"/>
	<circle cx="372.52" cy="304.839" r="7.272"/>
	<circle cx="430.78" cy="304.839" r="7.272"/>
</g>
<path style="fill:#DFE3E5;" d="M497.436,111.112H14.563C6.52,111.112,0,117.633,0,125.676v33.529c0,8.043,6.52,14.563,14.563,14.563
	h482.873c8.043,0,14.564-6.52,14.564-14.563v-33.529C512,117.633,505.48,111.112,497.436,111.112z"/>
<path style="opacity:0.1;enable-background:new    ;" d="M14.563,111.112C6.52,111.112,0,117.633,0,125.676v33.529
	c0,8.043,6.52,14.564,14.563,14.564h136.916c-31.863-11.407-33.165-46.536-27.822-62.656L14.563,111.112L14.563,111.112z"/>
<circle style="fill:#BEBFC0;" cx="110.19" cy="417.519" r="67.786"/>
<circle style="fill:#DFE3E5;" cx="110.19" cy="417.519" r="31.871"/>
<path style="opacity:0.1;enable-background:new    ;" d="M482.864,417.519c0,8.75-1.404,17.168-3.969,25.063h-154.16
	c-2.565-7.895-3.969-16.313-3.969-25.063s1.404-17.168,3.969-25.063h154.16C481.46,400.35,482.864,408.769,482.864,417.519z"/>
<circle style="fill:#BEBFC0;" cx="401.81" cy="417.519" r="67.786"/>
<circle style="fill:#DFE3E5;" cx="401.81" cy="417.519" r="31.871"/>
<circle style="opacity:0.1;enable-background:new    ;" cx="401.81" cy="417.519" r="7.272"/>
<g>
	<ellipse style="fill:#F2937E;" cx="193.91" cy="243.119" rx="22.91" ry="18.244"/>
	<ellipse style="fill:#F2937E;" cx="318.09" cy="243.119" rx="22.91" ry="18.244"/>
</g>
<g>
	<path style="fill:#495059;" d="M197.74,229.077c-4.142,0-7.5-3.358-7.5-7.5v-9.833c0-4.142,3.358-7.5,7.5-7.5s7.5,3.358,7.5,7.5
		v9.833C205.24,225.719,201.882,229.077,197.74,229.077z"/>
	<path style="fill:#495059;" d="M256,245.7L256,245.7c-9.167,0-16.599-7.431-16.599-16.598v-12.067c0-2.502,2.029-4.531,4.531-4.531
		h24.135c2.502,0,4.531,2.029,4.531,4.531v12.067C272.598,238.269,265.167,245.7,256,245.7z"/>
	<path style="fill:#495059;" d="M314.26,229.077c-4.142,0-7.5-3.358-7.5-7.5v-9.833c0-4.142,3.358-7.5,7.5-7.5s7.5,3.358,7.5,7.5
		v9.833C321.76,225.719,318.402,229.077,314.26,229.077z"/>
</g>
<circle style="opacity:0.1;enable-background:new    ;" cx="110.19" cy="417.519" r="7.272"/>
<g>
</g>
<g>
</g>
<g>
</g>
<g>
</g>
<g>
</g>
<g>
</g>
<g>
</g>
<g>
</g>
<g>
</g>
<g>
</g>
<g>
</g>
<g>
</g>
<g>
</g>
<g>
</g>
<g>
</g>
</svg>
