<?xml version="1.0" encoding="iso-8859-1"?>
<!-- Generator: Adobe Illustrator 19.0.0, SVG Export Plug-In . SVG Version: 6.00 Build 0)  -->
<svg version="1.1" id="Capa_1" xmlns="http://www.w3.org/2000/svg" xmlns:xlink="http://www.w3.org/1999/xlink" x="0px" y="0px"
	 viewBox="0 0 512 512" style="enable-background:new 0 0 512 512;" xml:space="preserve">
<path style="fill:#A28577;" d="M254.265,354.328c-4.142,0-7.5-3.358-7.5-7.5v-67.574c0-4.142,3.358-7.5,7.5-7.5
	c4.142,0,7.5,3.358,7.5,7.5v67.574C261.765,350.97,258.407,354.328,254.265,354.328z"/>
<path style="fill:#FFF0C0;" d="M219.791,449.713c0-39.557,15.434-98.36,34.474-98.36c19.039,0,34.474,58.803,34.474,98.36
	S273.304,512,254.265,512S219.791,489.27,219.791,449.713z"/>
<path style="fill:#F2937E;" d="M254.265,431.677l-33.593,33.593c3.51,29.892,17.212,46.73,33.593,46.73s30.083-16.838,33.593-46.73
	L254.265,431.677z"/>
<path style="fill:#A28577;" d="M254.265,469.615c-4.142,0-7.5-3.358-7.5-7.5V351.353c0-4.142,3.358-7.5,7.5-7.5
	c4.142,0,7.5,3.358,7.5,7.5v110.762C261.765,466.257,258.407,469.615,254.265,469.615z"/>
<circle style="fill:#495059;" cx="254.26" cy="351.35" r="18.425"/>
<path style="opacity:0.1;enable-background:new    ;" d="M248.692,368.91c6.577,2.089,13.452,0.286,18.161-4.111
	c-15.081,0.234-20.742-19.273-19.707-30.43c-4.806,2.019-8.734,6.044-10.436,11.402C233.628,355.47,238.993,365.829,248.692,368.91z
	"/>
<path style="fill:#A28577;" d="M132.816,329.612c-1.742,0-3.492-0.603-4.912-1.835c-3.129-2.715-3.464-7.452-0.75-10.58
	c13.038-15.027,25.199-53.721,23.66-75.278c-0.295-4.131,2.815-7.72,6.947-8.015s7.72,2.815,8.015,6.947
	c1.823,25.516-11.696,68.202-27.291,86.177C137.001,328.737,134.915,329.612,132.816,329.612z"/>
<path style="fill:#FFF0C0;" d="M68.814,409.732c11.976-37.701,44.49-89.071,62.636-83.306c18.146,5.764,15.053,66.48,3.076,104.181
	c-11.976,37.701-33.568,54.691-51.714,48.926C64.666,473.768,56.837,447.432,68.814,409.732z"/>
<path style="fill:#F2937E;" d="M107.131,402.979l-42.187,21.846c-5.705,29.552,2.256,49.748,17.868,54.708
	c15.612,4.96,33.77-6.94,46.165-34.366L107.131,402.979z"/>
<path style="fill:#A28577;" d="M97.917,439.491c-0.752,0-1.517-0.114-2.272-0.354c-3.948-1.254-6.131-5.471-4.877-9.418
	l33.534-105.563c1.254-3.948,5.47-6.133,9.418-4.878c3.948,1.254,6.131,5.471,4.878,9.419L105.064,434.26
	C104.049,437.452,101.097,439.491,97.917,439.491z"/>
<circle style="fill:#495059;" cx="131.45" cy="326.43" r="18.425"/>
<path style="opacity:0.1;enable-background:new    ;" d="M125.871,343.986c6.577,2.089,13.452,0.286,18.161-4.111
	c-15.081,0.234-20.742-19.273-19.707-30.43c-4.806,2.019-8.734,6.044-10.436,11.402
	C110.808,330.546,116.172,340.905,125.871,343.986z"/>
<path style="fill:#A28577;" d="M379.184,329.612c-2.099,0-4.185-0.875-5.669-2.585c-15.596-17.975-29.114-60.661-27.292-86.177
	c0.295-4.132,3.882-7.25,8.015-6.947c4.132,0.295,7.242,3.884,6.947,8.015c-1.54,21.557,10.622,60.252,23.66,75.278
	c2.714,3.128,2.379,7.865-0.75,10.58C382.677,329.009,380.926,329.612,379.184,329.612z"/>
<path style="fill:#FFF0C0;" d="M443.186,409.732c-11.976-37.701-44.49-89.071-62.636-83.306
	c-18.146,5.764-15.053,66.48-3.076,104.181c11.976,37.701,33.568,54.691,51.714,48.926
	C447.334,473.768,455.163,447.432,443.186,409.732z"/>
<path style="fill:#F2937E;" d="M404.87,402.979l42.187,21.846c5.705,29.552-2.256,49.748-17.868,54.708
	c-15.612,4.96-33.77-6.94-46.165-34.366L404.87,402.979z"/>
<path style="fill:#A28577;" d="M414.083,439.491c-3.18,0-6.132-2.039-7.146-5.231l-33.534-105.563
	c-1.254-3.948,0.93-8.165,4.878-9.419c3.944-1.252,8.164,0.929,9.418,4.878l33.534,105.563c1.254,3.948-0.93,8.165-4.877,9.418
	C415.601,439.376,414.835,439.491,414.083,439.491z"/>
<circle style="fill:#495059;" cx="380.55" cy="326.43" r="18.425"/>
<path style="opacity:0.1;enable-background:new    ;" d="M374.972,343.988c6.577,2.089,13.452,0.286,18.161-4.111
	c-15.081,0.234-20.742-19.273-19.707-30.43c-4.806,2.019-8.734,6.044-10.436,11.402
	C359.909,330.547,365.274,340.907,374.972,343.988z"/>
<g>
	<path style="fill:#A28577;" d="M254.273,139.321c-0.499,0-1.006-0.05-1.515-0.154l-73.169-15.008
		c-1.512-0.31-2.892-1.08-3.951-2.203l-31.464-33.378c-2.841-3.014-2.701-7.761,0.313-10.602c3.015-2.842,7.761-2.701,10.602,0.313
		l29.837,31.652l70.846,14.531c4.058,0.833,6.672,4.796,5.84,8.854C260.884,136.876,257.76,139.321,254.273,139.321z"/>
	<path style="fill:#A28577;" d="M162.158,231.276c-2.21,0-4.397-0.972-5.878-2.836c-2.576-3.244-2.034-7.962,1.21-10.538
		l35.234-27.979l34.857-44.782c2.544-3.268,7.257-3.856,10.525-1.311c3.268,2.544,3.856,7.256,1.312,10.525l-35.409,45.49
		c-0.366,0.47-0.788,0.895-1.254,1.267l-35.937,28.538C165.438,230.744,163.792,231.276,162.158,231.276z"/>
	<path style="fill:#A28577;" d="M198.083,202.739c-3.454,0-6.562-2.4-7.323-5.913L173.766,118.4
		c-0.877-4.048,1.693-8.041,5.742-8.919c4.045-0.875,8.041,1.693,8.919,5.742l16.994,78.426c0.877,4.048-1.693,8.041-5.742,8.919
		C199.143,202.683,198.609,202.739,198.083,202.739z"/>
	<path style="fill:#A28577;" d="M264.783,149.196c-1.239,0-2.495-0.308-3.653-0.955c-3.615-2.021-4.908-6.591-2.886-10.206
		l31.431-56.215l-5.371-55.722c-0.397-4.123,2.623-7.788,6.746-8.185c4.128-0.393,7.788,2.623,8.185,6.746l5.596,58.056
		c0.147,1.52-0.174,3.047-0.919,4.38l-32.575,58.261C269.962,147.812,267.411,149.196,264.783,149.196z"/>
	<path style="fill:#A28577;" d="M329.548,266.514c-1.348,0-2.713-0.363-3.943-1.126L268.74,230.15
		c-1.688-1.046-2.892-2.718-3.349-4.651l-13.105-55.481c-0.952-4.031,1.544-8.071,5.575-9.023c4.031-0.949,8.071,1.544,9.023,5.575
		l12.392,52.463l54.229,33.605c3.521,2.182,4.606,6.805,2.424,10.326C334.511,265.254,332.058,266.514,329.548,266.514z"/>
	<path style="fill:#A28577;" d="M329.556,163.524c-0.214,0-0.43-0.009-0.646-0.028l-56.959-4.915
		c-4.126-0.356-7.183-3.99-6.827-8.117c0.356-4.126,3.97-7.189,8.117-6.827l52.753,4.553l39.721-54.293
		c2.447-3.343,7.139-4.069,10.481-1.625c3.343,2.446,4.071,7.139,1.625,10.481l-42.213,57.7
		C334.189,162.393,331.935,163.524,329.556,163.524z"/>
	<path style="fill:#A28577;" d="M181.097,124.312c-2.001,0-3.997-0.795-5.473-2.37c-2.833-3.022-2.68-7.768,0.341-10.601
		l38.531-36.124c1.458-1.366,3.412-2.102,5.395-2.024l77.738,2.746c4.14,0.146,7.377,3.62,7.23,7.76
		c-0.146,4.14-3.637,7.381-7.76,7.23l-74.62-2.635l-36.254,33.99C184.778,123.64,182.936,124.312,181.097,124.312z"/>
	<path style="fill:#A28577;" d="M329.559,163.526c-2.876,0-5.619-1.663-6.86-4.462l-32.191-72.591
		c-1.679-3.787,0.029-8.217,3.815-9.896c3.787-1.679,8.217,0.029,9.897,3.815l32.191,72.591c1.679,3.787-0.029,8.217-3.815,9.896
		C331.607,163.319,330.575,163.526,329.559,163.526z"/>
	<path style="fill:#A28577;" d="M272.686,231.275c-1.702,0-3.413-0.576-4.818-1.755c-3.172-2.663-3.586-7.393-0.923-10.566
		l56.865-67.751c2.663-3.172,7.395-3.586,10.567-0.923s3.586,7.393,0.923,10.566l-56.865,67.751
		C276.952,230.364,274.827,231.275,272.686,231.275z"/>
	<path style="fill:#A28577;" d="M272.689,231.277c-0.891,0-1.796-0.16-2.678-0.497l-74.601-28.538
		c-3.869-1.48-5.805-5.816-4.325-9.685s5.817-5.805,9.684-4.325l74.601,28.538c3.869,1.48,5.805,5.816,4.325,9.685
		C278.553,229.442,275.707,231.277,272.689,231.277z"/>
	<path style="fill:#A28577;" d="M374.074,190.133c-1.309,0-2.635-0.343-3.84-1.063l-44.526-26.607
		c-3.556-2.124-4.716-6.729-2.591-10.285c2.124-3.555,6.73-4.715,10.285-2.591l44.526,26.607c3.556,2.125,4.716,6.73,2.591,10.285
		C379.115,188.83,376.627,190.133,374.074,190.133z"/>
	<path style="fill:#A28577;" d="M219.626,88.188c-4.121,0-7.474-3.328-7.499-7.454l-0.273-44.808
		c-0.025-4.142,3.312-7.521,7.454-7.546c0.016,0,0.032,0,0.047,0c4.121,0,7.474,3.328,7.499,7.454l0.273,44.808
		c0.025,4.142-3.312,7.521-7.454,7.546C219.657,88.188,219.641,88.188,219.626,88.188z"/>
</g>
<path style="fill:#DDAF89;" d="M256,299.494c-82.571,0-149.747-67.176-149.747-149.747S173.429,0,256,0
	s149.747,67.176,149.747,149.747S338.571,299.494,256,299.494z M256,40.481c-60.25,0-109.266,49.017-109.266,109.266
	S195.75,259.013,256,259.013s109.266-49.017,109.266-109.266S316.25,40.481,256,40.481z"/>
<path style="opacity:0.1;enable-background:new    ;" d="M332.759,278.276c-25.182-4.138-46.603-11.006-64.734-19.927
	c-3.95,0.434-7.96,0.665-12.024,0.665c-60.25,0-109.266-49.017-109.266-109.266c0-30.998,12.976-59.021,33.781-78.927
	c4.101-25.905,12.335-47.763,21.284-60.665c-55.857,21.764-95.545,76.127-95.545,139.591c0,82.571,67.176,149.747,149.747,149.747
	C284.039,299.494,310.298,291.741,332.759,278.276z"/>
<path style="fill:#495059;" d="M288.739,149.747c3.925-17.65-14.745-30.965-32.739-32.739c-22.538-2.222-34.838,14.78-32.739,32.739
	c2.257,19.318,14.748,34.545,32.739,32.739C279.797,180.097,284.917,166.935,288.739,149.747z"/>
<path style="opacity:0.1;enable-background:new    ;" d="M281.481,169.487c-30.764,3.183-46.091-29.537-39.407-51.155
	c-13.521,4.373-20.427,17.606-18.814,31.415c2.257,19.318,14.748,34.545,32.739,32.739
	C269.348,181.146,276.819,176.415,281.481,169.487z"/>
<g>
</g>
<g>
</g>
<g>
</g>
<g>
</g>
<g>
</g>
<g>
</g>
<g>
</g>
<g>
</g>
<g>
</g>
<g>
</g>
<g>
</g>
<g>
</g>
<g>
</g>
<g>
</g>
<g>
</g>
</svg>
