<?xml version="1.0" encoding="iso-8859-1"?>
<!-- Generator: Adobe Illustrator 19.0.0, SVG Export Plug-In . SVG Version: 6.00 Build 0)  -->
<svg version="1.1" id="Capa_1" xmlns="http://www.w3.org/2000/svg" xmlns:xlink="http://www.w3.org/1999/xlink" x="0px" y="0px"
	 viewBox="0 0 512.001 512.001" style="enable-background:new 0 0 512.001 512.001;" xml:space="preserve">
<path style="fill:#DDAF89;" d="M471.83,429.32l-74.534-13.146v59.745H503.47c5.685,0,9.777-5.458,8.183-10.915l0,0
	C506.25,446.5,490.813,432.668,471.83,429.32z"/>
<path style="opacity:0.1;enable-background:new    ;" d="M471.83,429.32l-74.534-13.146v59.745H503.47
	c5.685,0,9.777-5.458,8.183-10.915l0,0C506.25,446.5,490.813,432.668,471.83,429.32z"/>
<path style="fill:#DDAF89;" d="M40.17,429.32l74.534-13.146v59.745H8.53c-5.684,0-9.777-5.458-8.183-10.915l0,0
	C5.75,446.5,21.187,432.668,40.17,429.32z"/>
<path style="opacity:0.2;enable-background:new    ;" d="M40.17,429.32l74.534-13.146v59.745H8.53
	c-5.684,0-9.777-5.458-8.183-10.915l0,0C5.75,446.5,21.187,432.668,40.17,429.32z"/>
<path style="fill:#DDAF89;" d="M292.477,157.161c-49.875-26.76-53.21-73.515-48.559-105.411c2-13.719,17.988-20.285,29.134-12.041
	c3.263,2.413,6.541,4.831,9.701,7.157c15.145,11.151,34.485,14.915,52.712,10.278c4.481-1.14,9.21-2.369,13.979-3.65
	c15.022-4.033,30.241,6.594,31.147,22.122C382.616,110.332,344.004,149.57,292.477,157.161z"/>
<g style="opacity:0.2;">
	<path d="M286.581,125.548c-3.317,0-6.351-2.217-7.243-5.575l-9.792-36.831c-1.065-4.003,1.318-8.111,5.321-9.175
		c4.004-1.066,8.11,1.318,9.175,5.321l9.792,36.832c1.064,4.003-1.318,8.111-5.321,9.175
		C287.867,125.466,287.219,125.548,286.581,125.548z"/>
	<path d="M309.75,132.018c-1.565,0-3.146-0.489-4.494-1.5c-3.314-2.485-3.985-7.187-1.5-10.5l25.385-33.845
		c2.485-3.313,7.188-3.985,10.5-1.5c3.314,2.485,3.985,7.187,1.5,10.5l-25.385,33.845
		C314.282,130.981,312.03,132.018,309.75,132.018z"/>
</g>
<circle style="fill:#DDAF89;" cx="296.63" cy="151.94" r="45.849"/>
<circle style="opacity:0.1;enable-background:new    ;" cx="296.63" cy="151.94" r="45.849"/>
<path style="fill:#DDAF89;" d="M432.086,342.534c14.034-41.767,0.655-94.631-31.232-133.987
	c-31.497-38.876-87.311-56.921-129.323-60.026c-39.968-2.954-80.251-3.142-130.888,42.845
	c-34.302,31.152-59.12,96.594-57.213,147.082c-34.081,12.701-56.95,47.595-52.163,86.073l0,0
	c3.653,29.359,28.604,51.398,58.189,51.398H416.89c29.585,0,54.537-22.039,58.189-51.398l0,0
	C479.424,389.607,460.997,357.644,432.086,342.534z"/>
<g>
	<path style="fill:#495059;" d="M255.404,424.508h-35.123c-4.143,0-7.5-3.358-7.5-7.5s3.357-7.5,7.5-7.5h35.123
		c7.883,0,14.296-6.414,14.296-14.296c0-7.883-6.413-14.296-14.296-14.296h-13.326c-16.154,0-29.297-13.142-29.297-29.296
		s13.142-29.296,29.297-29.296H277.2c4.143,0,7.5,3.358,7.5,7.5s-3.357,7.5-7.5,7.5h-35.122c-7.884,0-14.297,6.414-14.297,14.296
		c0,7.883,6.413,14.296,14.297,14.296h13.326c16.154,0,29.296,13.142,29.296,29.296S271.559,424.508,255.404,424.508z"/>
	<path style="fill:#495059;" d="M248.741,437.672c-4.143,0-7.5-3.358-7.5-7.5V316.659c0-4.142,3.357-7.5,7.5-7.5s7.5,3.358,7.5,7.5
		v113.513C256.241,434.314,252.884,437.672,248.741,437.672z"/>
</g>
<g>
	<ellipse style="fill:#FFFFFF;" cx="179.6" cy="256.86" rx="29.84" ry="23.763"/>
	<ellipse style="fill:#FFFFFF;" cx="341.35" cy="256.86" rx="29.84" ry="23.763"/>
</g>
<g>
	<path style="fill:#495059;" d="M323.96,240.651c-4.143,0-7.5-3.358-7.5-7.5v-10.538c0-4.142,3.357-7.5,7.5-7.5
		c4.142,0,7.5,3.358,7.5,7.5v10.538C331.46,237.293,328.102,240.651,323.96,240.651z"/>
	<path style="fill:#495059;" d="M265.482,248.743c-8.582,0-16.743-3.717-22.391-10.198c-2.722-3.123-2.395-7.86,0.728-10.581
		c3.122-2.721,7.86-2.396,10.581,0.727c2.798,3.211,6.837,5.052,11.082,5.052s8.284-1.841,11.082-5.052
		c2.72-3.123,7.459-3.448,10.581-0.727c3.123,2.721,3.449,7.458,0.728,10.581C282.226,245.026,274.064,248.743,265.482,248.743z"/>
	<path style="fill:#495059;" d="M209.445,239.152c-4.143,0-7.5-3.358-7.5-7.5c0-4.299-3.497-7.797-7.796-7.797
		c-4.299,0-7.797,3.497-7.797,7.797c0,4.142-3.357,7.5-7.5,7.5s-7.5-3.358-7.5-7.5c0-12.57,10.227-22.797,22.797-22.797
		c12.569,0,22.796,10.226,22.796,22.797C216.945,235.794,213.588,239.152,209.445,239.152z"/>
</g>
<g style="opacity:0.1;">
	<path d="M389.225,417.738c-1.919,0-3.839-0.732-5.304-2.197c-2.929-2.929-2.929-7.678,0-10.606l10.953-10.953
		c2.93-2.929,7.678-2.929,10.607,0s2.929,7.678,0,10.606l-10.953,10.953C393.063,417.006,391.144,417.738,389.225,417.738z"/>
	<path d="M380.667,313.142c-1.92,0-3.839-0.732-5.304-2.197c-2.929-2.929-2.929-7.678,0-10.606l16.467-16.465
		c2.929-2.929,7.678-2.929,10.606,0s2.929,7.678,0,10.607l-16.466,16.465C384.506,312.409,382.586,313.142,380.667,313.142z"/>
	<path d="M128.43,316.345c-1.919,0-3.839-0.732-5.304-2.197c-2.929-2.929-2.929-7.678,0-10.606l6.407-6.407
		c2.93-2.929,7.678-2.929,10.607,0s2.929,7.678,0,10.606l-6.407,6.407C132.269,315.613,130.349,316.345,128.43,316.345z"/>
</g>
<path style="opacity:0.1;enable-background:new    ;" d="M180.475,332.811c-23.367-38.115-32.205-125.024,11.506-175.267
	c-16.075,6.606-33.029,17.194-51.337,33.821c-34.302,31.152-59.12,96.594-57.213,147.082c-34.081,12.701-56.95,47.595-52.163,86.073
	l0,0c3.653,29.359,28.604,51.398,58.189,51.398h168.245c-87.286-29.572-84.069-103.801-75.613-130.7
	C183.4,341.047,182.76,336.54,180.475,332.811z"/>
<g>
</g>
<g>
</g>
<g>
</g>
<g>
</g>
<g>
</g>
<g>
</g>
<g>
</g>
<g>
</g>
<g>
</g>
<g>
</g>
<g>
</g>
<g>
</g>
<g>
</g>
<g>
</g>
<g>
</g>
</svg>
