<?xml version="1.0" encoding="iso-8859-1"?>
<!-- Generator: Adobe Illustrator 19.0.0, SVG Export Plug-In . SVG Version: 6.00 Build 0)  -->
<svg version="1.1" id="Capa_1" xmlns="http://www.w3.org/2000/svg" xmlns:xlink="http://www.w3.org/1999/xlink" x="0px" y="0px"
	 viewBox="0 0 512 512" style="enable-background:new 0 0 512 512;" xml:space="preserve">
<path style="fill:#FFF0C0;" d="M350.345,481.111l-237.129-86.644c-15.204-5.555-23.043-22.432-17.509-37.695L218.038,19.359
	c5.534-15.263,22.345-23.133,37.549-17.578l237.129,86.644c15.204,5.555,23.043,22.432,17.51,37.695L387.894,463.533
	C382.361,478.796,365.549,486.666,350.345,481.111z"/>
<path style="opacity:0.1;enable-background:new    ;" d="M350.345,481.111l-237.129-86.644
	c-15.204-5.555-23.043-22.432-17.509-37.695L218.038,19.359c5.534-15.263,22.345-23.133,37.549-17.578l237.129,86.644
	c15.204,5.555,23.043,22.432,17.51,37.695L387.894,463.533C382.361,478.796,365.549,486.666,350.345,481.111z"/>
<g style="opacity:0.1;">
	<path d="M314.875,443.951c-0.854,0-1.724-0.147-2.573-0.457l-168.401-61.532c-16.421-6-24.922-24.284-18.948-40.758l97.316-268.416
		c1.412-3.894,5.71-5.906,9.607-4.495c3.894,1.412,5.906,5.713,4.494,9.607l-97.316,268.417c-3.161,8.718,1.323,18.388,9.995,21.556
		l168.401,61.532c3.891,1.421,5.892,5.728,4.471,9.618C320.81,442.064,317.936,443.951,314.875,443.951z"/>
	<path d="M376.612,415.05c-0.849,0-1.711-0.145-2.556-0.451c-3.894-1.412-5.906-5.713-4.494-9.607l97.317-268.417
		c3.16-8.718-1.324-18.388-9.996-21.557L288.482,53.487c-3.891-1.421-5.892-5.728-4.471-9.618s5.726-5.894,9.619-4.471
		l168.401,61.532c16.421,6,24.921,24.284,18.949,40.758l-97.317,268.417C382.559,413.155,379.68,415.05,376.612,415.05z"/>
</g>
<g>
	<path style="fill:#DC7070;" d="M337.891,190.914l-2.147-19.792c-0.673-6.206-8.178-8.938-12.683-4.616l-14.366,13.781
		c-15.719,15.079-33.175,28.236-51.999,39.196l0,0c-3.136,1.826-4.521,5.631-3.292,9.046l0,0
		c7.376,20.495,12.29,41.795,14.639,63.45l2.147,19.792c0.673,6.206,8.178,8.938,12.683,4.616l14.367-13.781
		c15.719-15.079,33.175-28.236,51.999-39.196l0,0c3.136-1.826,4.521-5.631,3.293-9.046l0,0
		C345.155,233.868,340.241,212.569,337.891,190.914z"/>
	<path style="fill:#DC7070;" d="M262.827,36.499l-0.53-4.887c-0.166-1.532-2.019-2.207-3.132-1.14l-3.547,3.403
		c-3.881,3.723-8.191,6.972-12.839,9.678l0,0c-0.774,0.451-1.116,1.39-0.813,2.234l0,0c1.821,5.061,3.034,10.32,3.615,15.667
		l0.53,4.887c0.166,1.532,2.019,2.207,3.132,1.14l3.547-3.403c3.881-3.723,8.191-6.972,12.839-9.678l0,0
		c0.775-0.451,1.116-1.39,0.813-2.234l0,0C264.621,47.105,263.407,41.846,262.827,36.499z"/>
	<path style="fill:#DC7070;" d="M343.105,446.394l0.53,4.887c0.166,1.532,2.019,2.207,3.132,1.14l3.547-3.403
		c3.881-3.723,8.191-6.972,12.839-9.678l0,0c0.774-0.451,1.116-1.391,0.813-2.234l0,0c-1.821-5.061-3.034-10.32-3.615-15.667
		l-0.53-4.887c-0.166-1.533-2.019-2.207-3.132-1.14l-3.547,3.403c-3.881,3.723-8.191,6.972-12.839,9.678l0,0
		c-0.774,0.451-1.116,1.391-0.813,2.234l0,0C341.312,435.788,342.525,441.047,343.105,446.394z"/>
</g>
<path style="fill:#FFF0C0;" d="M281.588,512H29.354c-16.211,0-29.353-13.142-29.353-29.353V123.466
	c0-16.211,13.142-29.353,29.353-29.353h252.234c16.211,0,29.353,13.142,29.353,29.353v359.181
	C310.941,498.858,297.799,512,281.588,512z"/>
<g style="opacity:0.1;">
	<path d="M233.099,489.71H53.89c-17.487,0-31.714-14.27-31.714-31.809V172.258c0-4.142,3.357-7.5,7.5-7.5s7.5,3.358,7.5,7.5v285.643
		c0,9.269,7.498,16.809,16.714,16.809h179.209c4.143,0,7.5,3.358,7.5,7.5C240.599,486.353,237.241,489.71,233.099,489.71z"/>
	<path d="M281.267,441.355c-4.143,0-7.5-3.358-7.5-7.5V148.212c0-9.268-7.498-16.809-16.715-16.809H77.843
		c-4.143,0-7.5-3.358-7.5-7.5s3.357-7.5,7.5-7.5h179.209c17.487,0,31.715,14.27,31.715,31.809v285.643
		C288.767,437.997,285.409,441.355,281.267,441.355z"/>
</g>
<g>
	<path style="fill:#495059;" d="M199.305,270.797c-0.654,0-1.303,0.018-1.948,0.051c-0.88,0.045-1.55-0.74-1.411-1.614
		c0.383-2.402,0.559-4.873,0.509-7.395c-0.443-22.411-19.117-40.559-41.443-40.312c-22.428,0.247-40.533,18.576-40.533,41.149
		c0,2.25,0.18,4.458,0.526,6.61c0.137,0.852-0.56,1.606-1.419,1.562c-0.646-0.033-1.295-0.051-1.949-0.051
		c-23.594,0-42.532,20.01-40.893,44.048c1.418,20.806,18.567,37.449,39.327,38.227c8.429,0.316,16.314-1.929,22.953-6.015
		c0.812-0.5,1.85,0.071,1.906,1.026c0.591,10.079-0.331,21.957-4.299,31.562c-0.974,2.357,0.751,4.945,3.293,4.945h43.095
		c2.542,0,4.267-2.588,3.293-4.945c-3.969-9.605-4.89-21.483-4.299-31.562c0.056-0.955,1.094-1.525,1.906-1.026
		c6.64,4.086,14.525,6.331,22.953,6.015c20.76-0.778,37.909-17.42,39.327-38.227C241.836,290.807,222.898,270.797,199.305,270.797z"
		/>
	<path style="fill:#495059;" d="M53.703,131.847c-0.144,0-0.286,0.004-0.428,0.011c-0.193,0.01-0.34-0.163-0.31-0.355
		c0.084-0.528,0.123-1.07,0.112-1.624c-0.097-4.923-4.199-8.91-9.104-8.856c-4.927,0.054-8.904,4.081-8.904,9.04
		c0,0.494,0.04,0.979,0.116,1.452c0.03,0.187-0.123,0.353-0.312,0.343c-0.142-0.007-0.285-0.011-0.428-0.011
		c-5.183,0-9.343,4.396-8.983,9.676c0.312,4.571,4.079,8.227,8.639,8.398c1.852,0.069,3.584-0.424,5.042-1.321
		c0.179-0.11,0.406,0.016,0.419,0.225c0.13,2.214-0.073,4.823-0.944,6.934c-0.214,0.518,0.165,1.086,0.723,1.086h9.467
		c0.558,0,0.937-0.569,0.723-1.086c-0.872-2.11-1.074-4.719-0.944-6.934c0.012-0.21,0.24-0.335,0.419-0.225
		c1.459,0.898,3.191,1.391,5.042,1.321c4.561-0.171,8.328-3.827,8.639-8.398C63.046,136.243,58.886,131.847,53.703,131.847z"/>
	<path style="fill:#495059;" d="M257.239,474.267c0.144,0,0.286-0.004,0.428-0.011c0.193-0.01,0.341,0.163,0.31,0.355
		c-0.084,0.528-0.123,1.07-0.112,1.624c0.097,4.923,4.2,8.91,9.104,8.856c4.927-0.054,8.904-4.081,8.904-9.04
		c0-0.494-0.039-0.979-0.115-1.452c-0.03-0.187,0.123-0.353,0.312-0.343c0.142,0.007,0.285,0.011,0.428,0.011
		c5.183,0,9.343-4.396,8.983-9.676c-0.311-4.571-4.079-8.227-8.639-8.398c-1.852-0.069-3.584,0.424-5.042,1.321
		c-0.178,0.11-0.406-0.016-0.419-0.225c-0.13-2.214,0.073-4.823,0.944-6.934c0.214-0.518-0.165-1.086-0.723-1.086h-9.467
		c-0.558,0-0.937,0.569-0.723,1.086c0.872,2.11,1.074,4.719,0.944,6.934c-0.012,0.21-0.24,0.335-0.419,0.225
		c-1.459-0.898-3.191-1.391-5.042-1.321c-4.561,0.171-8.328,3.827-8.639,8.398C247.896,469.871,252.056,474.267,257.239,474.267z"/>
</g>
<path style="opacity:0.1;enable-background:new    ;" d="M282.111,511.987C138.983,446.039,83.316,204.213,86.2,94.113H29.354
	c-16.211,0-29.353,13.142-29.353,29.353v359.181C0.001,498.858,13.143,512,29.354,512h252.234
	C281.763,512,281.936,511.99,282.111,511.987z"/>
<g>
</g>
<g>
</g>
<g>
</g>
<g>
</g>
<g>
</g>
<g>
</g>
<g>
</g>
<g>
</g>
<g>
</g>
<g>
</g>
<g>
</g>
<g>
</g>
<g>
</g>
<g>
</g>
<g>
</g>
</svg>
