<?xml version="1.0" encoding="iso-8859-1"?>
<!-- Generator: Adobe Illustrator 19.0.0, SVG Export Plug-In . SVG Version: 6.00 Build 0)  -->
<svg version="1.1" id="Capa_1" xmlns="http://www.w3.org/2000/svg" xmlns:xlink="http://www.w3.org/1999/xlink" x="0px" y="0px"
	 viewBox="0 0 512 512" style="enable-background:new 0 0 512 512;" xml:space="preserve">
<g>
	<path style="fill:#A28577;" d="M256,102.102c-4.142,0-7.5-3.358-7.5-7.5V7.5c0-4.142,3.358-7.5,7.5-7.5c4.143,0,7.5,3.358,7.5,7.5
		v87.102C263.5,98.744,260.143,102.102,256,102.102z"/>
	<path style="fill:#A28577;" d="M256,102.102c-1.919,0-3.839-0.732-5.303-2.197c-2.929-2.929-2.929-7.678,0-10.606l61.589-61.59
		c2.93-2.929,7.678-2.929,10.608,0c2.929,2.929,2.929,7.678,0,10.606l-61.59,61.59C259.839,101.369,257.919,102.102,256,102.102z"/>
	<path style="fill:#A28577;" d="M256,102.102c-1.919,0-3.839-0.732-5.303-2.197l-61.59-61.59c-2.929-2.929-2.929-7.678,0-10.606
		c2.929-2.929,7.678-2.929,10.607,0l61.591,61.59c2.929,2.929,2.929,7.678,0,10.606C259.839,101.369,257.919,102.102,256,102.102z"
		/>
</g>
<path style="fill:#FFF0C0;" d="M234.914,92.724L6.221,487.745C-0.015,498.518,7.758,512,20.206,512h471.589
	c12.448,0,20.221-13.482,13.984-24.255L277.086,92.724C267.701,76.514,244.298,76.514,234.914,92.724z"/>
<path style="opacity:0.1;enable-background:new    ;" d="M6.221,487.745C-0.015,498.518,7.758,512,20.206,512h471.589
	c12.448,0,20.221-13.482,13.984-24.255l-38.096-65.803H44.317L6.221,487.745z"/>
<path style="fill:#DC7070;" d="M362.063,239.505L277.086,92.723c-9.384-16.21-32.787-16.21-42.172,0l-84.977,146.781h212.126
	V239.505z"/>
<polygon style="fill:#FFFFFF;" points="165.075,213.356 346.925,213.356 338.241,198.356 173.76,198.356 "/>
<path style="opacity:0.1;enable-background:new    ;" d="M203.088,147.696L6.221,487.745C-0.015,498.518,7.758,512,20.206,512
	h265.889C203.961,436.116,174.413,263.544,203.088,147.696z"/>
<circle style="fill:#A28577;" cx="68.33" cy="466.97" r="17.644"/>
<circle style="fill:#FFFFFF;" cx="131.98" cy="466.97" r="17.644"/>
<circle style="fill:#A28577;" cx="443.67" cy="466.97" r="17.644"/>
<circle style="fill:#FFFFFF;" cx="380.02" cy="466.97" r="17.644"/>
<path style="fill:#495059;" d="M346.822,512C330.218,401.724,301.411,333.234,256,333.234S181.782,401.724,165.178,512H346.822z"/>
<circle style="fill:#FFFFFF;" cx="255.77" cy="150.23" r="17.644"/>
<g style="opacity:0.1;">
	<path d="M335.926,294.345c-1.919,0-3.839-0.732-5.303-2.197c-2.93-2.929-2.93-7.677-0.001-10.606l11.52-11.52
		c2.93-2.929,7.679-2.93,10.606,0c2.93,2.929,2.93,7.677,0.001,10.606l-11.519,11.52
		C339.765,293.613,337.845,294.345,335.926,294.345z"/>
	<path d="M338.24,328.251c-1.92,0-3.839-0.732-5.304-2.197c-2.929-2.929-2.929-7.678,0-10.606l17.645-17.644
		c2.931-2.929,7.679-2.929,10.607,0c2.929,2.929,2.929,7.678,0,10.607l-17.645,17.644
		C342.079,327.518,340.159,328.251,338.24,328.251z"/>
	<path d="M132.498,349.748c-1.92,0-3.839-0.732-5.303-2.197c-2.929-2.929-2.929-7.677,0-10.607l12.96-12.96
		c2.929-2.929,7.678-2.93,10.606,0c2.929,2.929,2.929,7.677,0,10.606l-12.96,12.96C136.336,349.015,134.417,349.748,132.498,349.748
		z"/>
</g>
<g>
</g>
<g>
</g>
<g>
</g>
<g>
</g>
<g>
</g>
<g>
</g>
<g>
</g>
<g>
</g>
<g>
</g>
<g>
</g>
<g>
</g>
<g>
</g>
<g>
</g>
<g>
</g>
<g>
</g>
</svg>
