<?xml version="1.0" encoding="iso-8859-1"?>
<!-- Generator: Adobe Illustrator 19.0.0, SVG Export Plug-In . SVG Version: 6.00 Build 0)  -->
<svg version="1.1" id="Capa_1" xmlns="http://www.w3.org/2000/svg" xmlns:xlink="http://www.w3.org/1999/xlink" x="0px" y="0px"
	 viewBox="0 0 512 512" style="enable-background:new 0 0 512 512;" xml:space="preserve">
<path style="fill:#FFF0C0;" d="M256,512c-59.889,0-106.803-49.302-106.803-112.241c0-29.742,10.645-69.563,27.121-101.448
	c21.563-41.731,49.861-64.713,79.682-64.713c29.821,0,58.119,22.982,79.682,64.713c16.475,31.885,27.121,71.706,27.121,101.448
	C362.803,462.698,315.889,512,256,512z M256,279.499c-8.439,0-23.692,10.445-38.903,39.883
	c-13.158,25.465-21.998,57.766-21.998,80.377c0,37.82,26.182,66.34,60.902,66.34s60.902-28.52,60.902-66.34
	c0-22.611-8.841-54.912-21.998-80.377C279.691,289.944,264.439,279.499,256,279.499z"/>
<path style="opacity:0.1;enable-background:new    ;" d="M256,512c-59.889,0-106.803-49.302-106.803-112.241
	c0-29.742,10.645-69.563,27.121-101.448c21.563-41.731,49.861-64.713,79.682-64.713c29.821,0,58.119,22.982,79.682,64.713
	c16.475,31.885,27.121,71.706,27.121,101.448C362.803,462.698,315.889,512,256,512z M256,279.499
	c-8.439,0-23.692,10.445-38.903,39.883c-13.158,25.465-21.998,57.766-21.998,80.377c0,37.82,26.182,66.34,60.902,66.34
	s60.902-28.52,60.902-66.34c0-22.611-8.841-54.912-21.998-80.377C279.691,289.944,264.439,279.499,256,279.499z"/>
<path style="opacity:0.1;enable-background:new    ;" d="M362.73,395.663l-46.352,13.08c-0.669,5.874-1.984,11.462-3.882,16.682
	l49.766-14.043c0.357-3.815,0.541-7.692,0.541-11.622C362.803,398.416,362.773,397.045,362.73,395.663z M151.204,421.942
	c0.987,5.376,2.329,10.601,3.999,15.653l55.358,7.262c-4.016-4.829-7.348-10.355-9.884-16.425L151.204,421.942z M206.135,344.838
	l-35.251-35.251c-2.207,4.9-4.276,9.924-6.194,15.019l36.381,36.381C202.53,355.62,204.227,350.2,206.135,344.838z M264.336,510.5
	c-0.017,0.399,0.006,0.789,0.05,1.174c5.124-0.4,10.134-1.171,15.012-2.276l2.118-48.992c-4.746,2.262-9.843,3.897-15.222,4.814
	L264.336,510.5z M335.682,298.311c-0.168-0.326-0.341-0.64-0.51-0.964l-34.053,35.312c2.149,5.061,4.123,10.26,5.894,15.496
	l35.078-36.375C340.07,307.174,337.933,302.666,335.682,298.311z"/>
<path style="fill:#FFF0C0;" d="M256,229.945c-12.675,0-22.951-10.275-22.951-22.951V22.951C233.049,10.275,243.325,0,256,0
	c12.675,0,22.951,10.275,22.951,22.951v184.044C278.951,219.67,268.674,229.945,256,229.945z"/>
<path style="opacity:0.1;enable-background:new    ;" d="M268.672,3.817L233.049,39.44v21.213l44.783-44.783
	C276.217,10.889,272.95,6.656,268.672,3.817z M233.049,114.582v21.213l45.901-45.901V68.681L233.049,114.582z M233.049,206.994
	c0,1.243,0.102,2.461,0.292,3.65l45.609-45.609v-21.213l-45.901,45.901L233.049,206.994L233.049,206.994z"/>
<path style="fill:#FFF0C0;" d="M298.25,243.134h-84.501c-12.675,0-22.951-10.275-22.951-22.951
	c0-12.675,10.275-22.951,22.951-22.951h84.501c12.675,0,22.951,10.275,22.951,22.951
	C321.201,232.859,310.926,243.134,298.25,243.134z"/>
<path style="opacity:0.1;enable-background:new    ;" d="M298.25,243.134h-84.501c-12.675,0-22.951-10.275-22.951-22.951
	c0-12.675,10.275-22.951,22.951-22.951h84.501c12.675,0,22.951,10.275,22.951,22.951
	C321.201,232.859,310.926,243.134,298.25,243.134z"/>
<path style="opacity:0.1;enable-background:new    ;" d="M213.507,197.239l45.895,45.895h21.213l-45.901-45.901h-20.965
	C213.668,197.233,213.588,197.238,213.507,197.239z"/>
<path style="fill:#FFF0C0;" d="M323.911,283.789H188.089c-12.675,0-22.951-10.275-22.951-22.951
	c0-12.675,10.275-22.951,22.951-22.951h135.822c12.675,0,22.951,10.275,22.951,22.951
	C346.862,273.514,336.586,283.789,323.911,283.789z"/>
<path style="opacity:0.1;enable-background:new    ;" d="M188.869,237.888l45.901,45.901h21.213l-45.901-45.901H188.869z
	 M298.579,237.888h-21.213l45.901,45.901h0.643c5.732,0,10.968-2.106,14.99-5.58L298.579,237.888z"/>
<g>
</g>
<g>
</g>
<g>
</g>
<g>
</g>
<g>
</g>
<g>
</g>
<g>
</g>
<g>
</g>
<g>
</g>
<g>
</g>
<g>
</g>
<g>
</g>
<g>
</g>
<g>
</g>
<g>
</g>
</svg>
