<?xml version="1.0" encoding="iso-8859-1"?>
<!-- Generator: Adobe Illustrator 19.0.0, SVG Export Plug-In . SVG Version: 6.00 Build 0)  -->
<svg version="1.1" id="Capa_1" xmlns="http://www.w3.org/2000/svg" xmlns:xlink="http://www.w3.org/1999/xlink" x="0px" y="0px"
	 viewBox="0 0 512 512" style="enable-background:new 0 0 512 512;" xml:space="preserve">
<g>
	<path style="fill:#495059;" d="M359.151,211.784c-2.6,0-5.127-1.354-6.513-3.771c-2.061-3.593-0.818-8.177,2.775-10.237
		c10.855-6.225,22.535-9.729,32.839-12.82c24.4-7.32,37.197-12.236,38.567-35.774c0.241-4.135,3.796-7.29,7.923-7.051
		c4.135,0.241,7.292,3.788,7.051,7.923c-2.044,35.113-26.033,42.31-49.232,49.269c-9.995,2.999-20.33,6.099-29.688,11.465
		C361.699,211.463,360.415,211.784,359.151,211.784z"/>
	<path style="fill:#495059;" d="M407.496,295.388c-2.592,0-5.113-1.345-6.502-3.752c-2.071-3.587-0.841-8.174,2.746-10.245
		c13.06-7.539,30.064-30.444,35.857-58.046c4.095-19.512,4.208-49.263-18.507-80.185c-20.267-27.589-25.84-54.968-15.29-75.12
		c7.925-15.136,23.836-23.507,43.629-22.963c4.141,0.113,7.406,3.562,7.292,7.702c-0.113,4.141-3.561,7.421-7.703,7.292
		c-13.857-0.377-24.764,5.061-29.929,14.927c-7.676,14.662-2.409,36.823,14.088,59.281c25.995,35.387,25.821,69.642,21.099,92.147
		c-3.161,15.064-9.367,29.8-17.947,42.615c-7.642,11.413-16.552,20.413-25.091,25.342
		C410.058,295.064,408.768,295.388,407.496,295.388z"/>
</g>
<path style="fill:#DC7070;" d="M362.06,255.828L72.354,423.09c-6.529,3.769-14.724,3.016-20.456-1.881l0,0
	C32.017,404.224,18.569,380.93,13.8,355.221l0,0c-1.375-7.412,2.07-14.887,8.599-18.656l289.706-167.262
	c6.529-3.769,14.724-3.016,20.456,1.881l0,0c19.881,16.985,33.329,40.279,38.098,65.988l0,0
	C372.034,244.585,368.589,252.059,362.06,255.828z"/>
<g>
	<path style="fill:#DDAF89;" d="M80.746,302.878l-35.368,20.419c6.832,33.494,24.365,63.862,49.956,86.526l35.368-20.419
		C105.111,366.74,87.578,336.372,80.746,302.878z"/>
	<path style="fill:#DDAF89;" d="M253.757,202.99l35.368-20.419c25.591,22.664,43.123,53.031,49.955,86.526l-35.368,20.419
		C296.88,256.021,279.348,225.654,253.757,202.99z"/>
</g>
<g>
	
		<ellipse transform="matrix(-0.5 -0.866 0.866 -0.5 -67.1786 639.6273)" style="fill:#FFFFFF;" cx="151.052" cy="339.206" rx="16.795" ry="21.09"/>
	
		<ellipse transform="matrix(0.5 0.866 -0.866 0.5 369.2985 -75.5432)" style="fill:#FFFFFF;" cx="250.073" cy="282.055" rx="16.795" ry="21.09"/>
</g>
<g>
	<path style="fill:#495059;" d="M144.206,327.772c-2.592,0-5.113-1.345-6.502-3.752l-4.526-7.84
		c-2.071-3.587-0.842-8.174,2.745-10.245c3.587-2.071,8.174-0.842,10.245,2.745l4.526,7.84c2.071,3.587,0.842,8.174-2.745,10.245
		C146.768,327.448,145.479,327.772,144.206,327.772z"/>
	
		<ellipse transform="matrix(-0.5 -0.866 0.866 -0.5 31.8379 617.2593)" style="fill:#495059;" cx="194.104" cy="299.439" rx="19.03" ry="17"/>
	<path style="fill:#495059;" d="M237.1,274.14c-2.592,0-5.113-1.346-6.502-3.752l-4.525-7.84c-2.071-3.587-0.842-8.174,2.746-10.245
		c3.585-2.072,8.174-0.842,10.245,2.746l4.526,7.84c2.071,3.587,0.842,8.174-2.746,10.245
		C239.662,273.816,238.373,274.14,237.1,274.14z"/>
</g>
<path style="opacity:0.15;enable-background:new    ;" d="M58.957,315.458l-36.558,21.107c-6.529,3.769-9.974,11.244-8.599,18.656
	c4.769,25.71,18.217,49.003,38.098,65.988l0,0c5.732,4.897,13.927,5.651,20.456,1.881l132.916-76.739
	C114.446,372.583,64.139,345.184,58.957,315.458z"/>
<path style="fill:#DC7070;" d="M412.016,342.354L122.31,509.616c-6.529,3.769-14.724,3.016-20.456-1.881l0,0
	c-19.881-16.985-33.329-40.279-38.098-65.988l0,0c-1.375-7.412,2.07-14.887,8.599-18.656L362.06,255.828
	c6.529-3.769,14.724-3.016,20.456,1.881l0,0c19.881,16.985,33.329,40.279,38.098,65.988l0,0
	C421.99,331.11,418.544,338.585,412.016,342.354z"/>
<path style="opacity:0.1;enable-background:new    ;" d="M412.016,342.354L122.31,509.616c-6.529,3.769-14.724,3.016-20.456-1.881
	l0,0c-19.881-16.985-33.329-40.279-38.098-65.988l0,0c-1.375-7.412,2.07-14.887,8.599-18.656L362.06,255.828
	c6.529-3.769,14.724-3.016,20.456,1.881l0,0c19.881,16.985,33.329,40.279,38.098,65.988l0,0
	C421.99,331.11,418.544,338.585,412.016,342.354z"/>
<g>
	<path style="fill:#DDAF89;" d="M130.702,389.403l-35.368,20.419c6.832,33.494,24.365,63.862,49.956,86.525l35.368-20.419
		C155.066,453.265,137.534,422.897,130.702,389.403z"/>
	<path style="fill:#DDAF89;" d="M303.712,289.515l35.368-20.419c25.591,22.664,43.124,53.031,49.956,86.525l-35.368,20.419
		C346.836,342.547,329.303,312.179,303.712,289.515z"/>
</g>
<path style="opacity:0.1;enable-background:new    ;" d="M108.912,401.983L72.354,423.09c-6.529,3.769-9.974,11.244-8.599,18.656
	c4.769,25.71,18.217,49.003,38.098,65.988l0,0c5.732,4.897,13.927,5.651,20.456,1.881l132.916-76.739
	C164.402,459.109,114.094,431.709,108.912,401.983z"/>
<path style="fill:#F2937E;" d="M404.953,28.708l-23.086-12.033c-5.24-2.731-11.223,2.078-9.682,7.783l5.327,19.726
	c0.635,2.353-0.826,4.758-3.206,5.28l-25.277,5.535c-6.288,1.377-7.3,9.919-1.509,12.728l22.391,10.858
	c2.615,1.268,3.224,4.723,1.201,6.809l-13.59,14.009c-4.573,4.715-0.444,12.527,6.027,11.405l21.467-3.724
	c2.77-0.48,5.239,1.802,4.977,4.601l-2,21.367c-0.58,6.193,6.788,9.835,11.356,5.613l21.141-19.539
	c1.472-1.36,3.692-1.513,5.336-0.366l27.143,18.929c4.936,3.442,11.577-0.771,10.565-6.703l-4.203-24.646
	c-0.408-2.395,1.262-4.647,3.672-4.95l29.558-3.722c6.591-0.83,8.183-9.658,2.297-12.738l-26.229-13.725
	c-2.269-1.187-2.988-4.092-1.535-6.201l15.556-22.569c3.406-4.942-0.813-11.546-6.728-10.534l-29.111,4.982
	c-2.475,0.424-4.779-1.372-4.973-3.875l-2.073-26.742c-0.493-6.356-8.688-8.582-12.329-3.349l-17.008,24.444
	C409.201,29.123,406.855,29.7,404.953,28.708z"/>
<g>
</g>
<g>
</g>
<g>
</g>
<g>
</g>
<g>
</g>
<g>
</g>
<g>
</g>
<g>
</g>
<g>
</g>
<g>
</g>
<g>
</g>
<g>
</g>
<g>
</g>
<g>
</g>
<g>
</g>
</svg>
