<?xml version="1.0" encoding="iso-8859-1"?>
<!-- Generator: Adobe Illustrator 19.0.0, SVG Export Plug-In . SVG Version: 6.00 Build 0)  -->
<svg version="1.1" id="Capa_1" xmlns="http://www.w3.org/2000/svg" xmlns:xlink="http://www.w3.org/1999/xlink" x="0px" y="0px"
	 viewBox="0 0 512 512" style="enable-background:new 0 0 512 512;" xml:space="preserve">
<path style="fill:#84AC83;" d="M195.149,209.943c-6.587,0-11.927-5.34-11.927-11.927v-92.167H21.043v235.62
	c0,17.889,14.502,32.392,32.392,32.392h5.01c0-38.41,31.138-69.548,69.548-69.548s69.548,31.138,69.548,69.548h106.95
	c0-38.41,31.138-69.548,69.548-69.548v-94.369L195.149,209.943L195.149,209.943z M149.589,201.95c0,4.414-3.579,7.993-7.993,7.993
	H62.325c-4.414,0-7.993-3.579-7.993-7.993v-57.796c0-4.415,3.579-7.993,7.993-7.993h79.271c4.414,0,7.993,3.579,7.993,7.993V201.95z
	"/>
<g>
	<path style="fill:#FFFFFF;" d="M335.854,276.739h-99.357c-4.143,0-7.5-3.358-7.5-7.5s3.357-7.5,7.5-7.5h99.357
		c4.143,0,7.5,3.358,7.5,7.5S339.997,276.739,335.854,276.739z"/>
	<path style="fill:#FFFFFF;" d="M92.677,276.739H66.899c-4.143,0-7.5-3.358-7.5-7.5s3.357-7.5,7.5-7.5h25.777
		c2.346,0,4.552-0.914,6.21-2.572l8.107-8.107c4.492-4.492,10.465-6.966,16.817-6.966h25.777c4.143,0,7.5,3.358,7.5,7.5
		s-3.357,7.5-7.5,7.5H123.81c-2.346,0-4.552,0.914-6.21,2.572l-8.107,8.107C105.002,274.266,99.029,276.739,92.677,276.739z"/>
</g>
<path style="fill:#F6E06A;" d="M236.497,373.86h-38.183V207.061c0-7.076,5.736-12.812,12.812-12.812h12.559
	c7.076,0,12.812,5.736,12.812,12.812V373.86z"/>
<path style="opacity:0.2;fill:#C97B00;enable-background:new    ;" d="M236.497,335.752c-27.149-25.081-35.771-68.566-38.183-89.152
	v127.26h38.183V335.752z"/>
<path style="fill:#F6E06A;" d="M374.038,304.312v-97.251c0-7.076-5.736-12.812-12.812-12.812h-12.559
	c-7.076,0-12.812,5.736-12.812,12.812V315.74C346.817,308.523,359.933,304.312,374.038,304.312z"/>
<path style="opacity:0.2;fill:#C97B00;enable-background:new    ;" d="M335.855,315.74c5.352-3.523,11.22-6.324,17.463-8.274
	c-11.291-22.213-15.82-46.847-17.463-60.866V315.74z"/>
<path style="fill:#DFE3E5;" d="M510.12,402.427l-48.778-85.283c-4.57-7.991-13.07-12.921-22.276-12.921h-65.028v0.089
	c38.41,0,69.548,31.138,69.548,69.548c0,19.451-7.994,37.028-20.865,49.65h75.17C508.711,423.51,515.492,411.819,510.12,402.427z"/>
<path style="fill:#495059;" d="M417.557,249.248c0-11.464-9.294-20.758-20.758-20.758h-22.761v75.822
	c16.475,0,31.603,5.741,43.519,15.316L417.557,249.248L417.557,249.248z"/>
<path style="opacity:0.1;enable-background:new    ;" d="M53.434,373.86h5.01c0-37.394,29.515-67.884,66.519-69.471
	c-21.769-29.231-34.631-61.963-41.922-94.446H62.325c-4.414,0-7.993-3.579-7.993-7.993v-57.796c0-4.415,3.579-7.993,7.993-7.993
	h12.226c-0.228-10.561-0.085-20.719,0.28-30.313H21.043v235.62C21.043,359.358,35.545,373.86,53.434,373.86z"/>
<g>
	<path style="fill:#A28577;" d="M374.038,355.852c-4.143,0-7.5-3.358-7.5-7.5v-44.04c0-4.142,3.357-7.5,7.5-7.5s7.5,3.358,7.5,7.5
		v44.04C381.538,352.494,378.181,355.852,374.038,355.852z"/>
	<path style="fill:#A28577;" d="M356.001,363.323c-1.92,0-3.839-0.732-5.304-2.197l-31.141-31.141
		c-2.929-2.929-2.929-7.678,0-10.606c2.931-2.929,7.679-2.929,10.607,0l31.141,31.141c2.929,2.929,2.929,7.678,0,10.607
		C359.84,362.591,357.92,363.323,356.001,363.323z"/>
	<path style="fill:#A28577;" d="M324.86,430.538c-1.919,0-3.839-0.732-5.304-2.197c-2.929-2.929-2.929-7.678,0-10.606l31.141-31.141
		c2.93-2.929,7.678-2.929,10.607,0s2.929,7.678,0,10.607l-31.141,31.141C328.699,429.806,326.779,430.538,324.86,430.538z"/>
	<path style="fill:#A28577;" d="M374.038,450.908c-4.143,0-7.5-3.358-7.5-7.5v-44.04c0-4.142,3.357-7.5,7.5-7.5s7.5,3.358,7.5,7.5
		v44.04C381.538,447.55,378.181,450.908,374.038,450.908z"/>
	<path style="fill:#A28577;" d="M423.216,430.538c-1.92,0-3.839-0.732-5.304-2.197l-31.14-31.141c-2.929-2.929-2.929-7.678,0-10.607
		c2.931-2.929,7.679-2.929,10.607,0l31.141,31.141c2.929,2.929,2.929,7.678,0,10.606
		C427.055,429.806,425.135,430.538,423.216,430.538z"/>
	<path style="fill:#A28577;" d="M443.586,381.36h-44.04c-4.143,0-7.5-3.358-7.5-7.5s3.357-7.5,7.5-7.5h44.04
		c4.143,0,7.5,3.358,7.5,7.5S447.728,381.36,443.586,381.36z"/>
	<path style="fill:#A28577;" d="M392.075,363.323c-1.919,0-3.839-0.732-5.304-2.197c-2.929-2.929-2.929-7.678,0-10.607
		l31.141-31.141c2.93-2.929,7.678-2.929,10.607,0s2.929,7.678,0,10.606l-31.141,31.141
		C395.914,362.591,393.994,363.323,392.075,363.323z"/>
</g>
<g>
	<path style="fill:#DDAF89;" d="M374.038,450.908c-42.484,0-77.048-34.564-77.048-77.048s34.564-77.048,77.048-77.048
		s77.048,34.564,77.048,77.048S416.522,450.908,374.038,450.908z M374.038,311.812c-34.213,0-62.048,27.835-62.048,62.048
		s27.835,62.048,62.048,62.048s62.048-27.835,62.048-62.048C436.086,339.646,408.251,311.812,374.038,311.812z"/>
	<circle style="fill:#DDAF89;" cx="374.04" cy="373.86" r="25.508"/>
</g>
<g>
	<path style="fill:#A28577;" d="M127.992,355.852c-4.143,0-7.5-3.358-7.5-7.5v-44.04c0-4.142,3.357-7.5,7.5-7.5s7.5,3.358,7.5,7.5
		v44.04C135.492,352.494,132.135,355.852,127.992,355.852z"/>
	<path style="fill:#A28577;" d="M146.029,363.323c-1.919,0-3.839-0.732-5.304-2.197c-2.929-2.929-2.929-7.678,0-10.607
		l31.141-31.141c2.93-2.929,7.678-2.929,10.607,0s2.929,7.678,0,10.606l-31.141,31.141
		C149.868,362.591,147.948,363.323,146.029,363.323z"/>
	<path style="fill:#A28577;" d="M177.17,430.538c-1.92,0-3.839-0.732-5.304-2.197l-31.14-31.141c-2.929-2.929-2.929-7.678,0-10.607
		c2.931-2.929,7.679-2.929,10.607,0l31.141,31.141c2.929,2.929,2.929,7.678,0,10.606
		C181.009,429.806,179.089,430.538,177.17,430.538z"/>
	<path style="fill:#A28577;" d="M127.992,450.908c-4.143,0-7.5-3.358-7.5-7.5v-44.04c0-4.142,3.357-7.5,7.5-7.5s7.5,3.358,7.5,7.5
		v44.04C135.492,447.55,132.135,450.908,127.992,450.908z"/>
	<path style="fill:#A28577;" d="M78.814,430.538c-1.919,0-3.839-0.732-5.304-2.197c-2.929-2.929-2.929-7.678,0-10.606l31.141-31.141
		c2.93-2.929,7.678-2.929,10.607,0s2.929,7.678,0,10.607l-31.141,31.141C82.653,429.806,80.733,430.538,78.814,430.538z"/>
	<path style="fill:#A28577;" d="M102.484,381.36h-44.04c-4.143,0-7.5-3.358-7.5-7.5s3.357-7.5,7.5-7.5h44.04
		c4.143,0,7.5,3.358,7.5,7.5S106.627,381.36,102.484,381.36z"/>
	<path style="fill:#A28577;" d="M109.955,363.323c-1.92,0-3.839-0.732-5.304-2.197L73.51,329.985c-2.929-2.929-2.929-7.678,0-10.606
		c2.931-2.929,7.679-2.929,10.608,0l31.141,31.141c2.929,2.929,2.929,7.678,0,10.607
		C113.794,362.591,111.874,363.323,109.955,363.323z"/>
</g>
<g>
	<path style="fill:#DDAF89;" d="M127.992,450.908c-42.484,0-77.048-34.564-77.048-77.048s34.563-77.048,77.048-77.048
		s77.048,34.564,77.048,77.048S170.477,450.908,127.992,450.908z M127.992,311.812c-34.213,0-62.048,27.835-62.048,62.048
		s27.835,62.048,62.048,62.048s62.048-27.835,62.048-62.048C190.04,339.646,162.205,311.812,127.992,311.812z"/>
	<circle style="fill:#DDAF89;" cx="127.99" cy="373.86" r="25.508"/>
</g>
<path style="fill:#DFE3E5;" d="M361.19,361.012H140.84c-7.096,0-12.848,5.752-12.848,12.848l0,0c0,7.096,5.752,12.848,12.848,12.848
	h220.35c7.096,0,12.848-5.752,12.848-12.848l0,0C374.038,366.764,368.286,361.012,361.19,361.012z"/>
<path style="opacity:0.1;enable-background:new    ;" d="M140.84,361.012c-7.096,0-12.847,5.752-12.847,12.848
	c0,7.095,5.752,12.848,12.847,12.848h78.23c-20.539-5.224-25.421-16.892-23.731-25.695L140.84,361.012L140.84,361.012z"/>
<path style="fill:#495059;" d="M221.206,71.41l-47.704-6.545c-36.664-5.03-73.843-5.03-110.507,0L15.292,71.41
	C6.529,72.612,0,80.098,0,88.943v6.811c0,5.575,4.52,10.095,10.095,10.095h216.307c5.575,0,10.095-4.52,10.095-10.095v-6.811
	C236.497,80.098,229.968,72.612,221.206,71.41z"/>
<path style="fill:#DFE3E5;" d="M315.165,113.089c0.548-2.288,0.768-4.703,0.608-7.194c-0.767-11.937-10.492-21.639-22.431-22.378
	c-13.952-0.864-25.538,10.196-25.538,23.962v0.109c0.011,4.918-1.981,9.612-5.476,13.073c-6.841,6.774-10.812,16.439-9.918,27.017
	c1.394,16.488,14.852,29.72,31.359,30.86c19.805,1.367,36.297-14.294,36.297-33.807c0-4.982-1.076-9.712-3.008-13.971
	C314.539,125.203,313.744,119.023,315.165,113.089z"/>
<path style="fill:#495059;" d="M301.595,168.238h-30.839c-4.152,0-7.518,3.366-7.518,7.518v34.186h45.876v-34.186
	C309.114,171.604,305.748,168.238,301.595,168.238z"/>
<g>
</g>
<g>
</g>
<g>
</g>
<g>
</g>
<g>
</g>
<g>
</g>
<g>
</g>
<g>
</g>
<g>
</g>
<g>
</g>
<g>
</g>
<g>
</g>
<g>
</g>
<g>
</g>
<g>
</g>
</svg>
