<?xml version="1.0" encoding="iso-8859-1"?>
<!-- Generator: Adobe Illustrator 19.0.0, SVG Export Plug-In . SVG Version: 6.00 Build 0)  -->
<svg version="1.1" id="Capa_1" xmlns="http://www.w3.org/2000/svg" xmlns:xlink="http://www.w3.org/1999/xlink" x="0px" y="0px"
	 viewBox="0 0 512.001 512.001" style="enable-background:new 0 0 512.001 512.001;" xml:space="preserve">
<path style="fill:#F2937E;" d="M414.087,268.767c0-52.653-26.153-95.508-92.093-139.702c-41.459-27.786-79.44-73.826-93.232-120.949
	c-2.535-8.661-13.64-10.985-19.423-4.057c-62.489,74.867,5.723,179.72-21.113,208.748c-16.379,17.718-41.203-12.111-56.924-58.031
	c-3.383-9.881-17.369-9.972-20.844-0.123c-14.264,40.438-22.446,81.635-22.446,114.113c0,97.008,72.994,175.648,163.038,175.648
	S414.087,365.775,414.087,268.767z"/>
<path style="fill:#A28577;" d="M90.187,511.046c-33.776,5.956-65.985-16.597-71.941-50.374
	c-5.956-33.776,16.597-65.985,50.374-71.941l209.223-36.892l21.567,122.315L90.187,511.046z"/>
<path style="opacity:0.1;enable-background:new    ;" d="M88.497,385.227l-19.878,3.505c-33.776,5.955-56.329,38.164-50.374,71.941
	c5.956,33.776,38.165,56.329,71.941,50.374l129.973-22.918C115.957,488.563,51.414,432.337,88.497,385.227z"/>
<circle style="fill:#FFF0C0;" cx="288.621" cy="413" r="62.1"/>
<path style="opacity:0.2;enable-background:new    ;" d="M67.488,438.44c-3.571,0-6.735-2.56-7.377-6.199
	c-0.72-4.079,2.004-7.969,6.083-8.689l27.266-4.808c4.077-0.717,7.97,2.004,8.688,6.084c0.72,4.079-2.004,7.969-6.083,8.689
	l-27.266,4.808C68.359,438.402,67.921,438.44,67.488,438.44z"/>
<path style="opacity:0.1;enable-background:new    ;" d="M139.264,469.048c-3.571,0-6.735-2.56-7.377-6.199
	c-0.72-4.079,2.004-7.969,6.083-8.688l27.265-4.808c4.079-0.717,7.97,2.004,8.688,6.084c0.72,4.079-2.004,7.969-6.083,8.689
	l-27.265,4.808C140.135,469.01,139.696,469.048,139.264,469.048z"/>
<path style="fill:#A28577;" d="M432.609,512c34.297,0,62.101-27.803,62.101-62.101s-27.803-62.101-62.101-62.101h-212.45V512
	H432.609z"/>
<path style="opacity:0.1;enable-background:new    ;" d="M494.71,449.899c0-12.184-3.523-23.539-9.585-33.129
	c-5.827,58.157-49.135,63.435-69.47,63.435c-18.607,0-139.964,0-195.496,0V512h212.45C466.907,512,494.71,484.197,494.71,449.899z"
	/>
<circle style="fill:#DDAF89;" cx="220.161" cy="449.9" r="62.1"/>
<path style="opacity:0.1;enable-background:new    ;" d="M212.357,483.923c-0.721,0-1.453-0.104-2.179-0.325
	c-7.721-2.34-14.47-7.325-19.004-14.036c-2.318-3.432-1.416-8.094,2.016-10.413c3.433-2.319,8.095-1.417,10.414,2.016
	c2.611,3.865,6.491,6.734,10.926,8.079c3.964,1.201,6.203,5.389,5.002,9.353C218.55,481.835,215.575,483.923,212.357,483.923z"/>
<path style="opacity:0.1;enable-background:new    ;" d="M248.203,457.332c-4.142,0-7.5-3.358-7.5-7.5
	c0-4.064-1.196-7.983-3.459-11.333c-3.784-5.602-10.072-8.946-16.819-8.946c-2.741,0-5.396,0.535-7.891,1.59
	c-3.815,1.614-8.216-0.169-9.829-3.985c-1.614-3.815,0.171-8.215,3.985-9.829c4.354-1.842,8.975-2.776,13.734-2.776
	c11.736,0,22.671,5.813,29.249,15.549c3.944,5.839,6.029,12.662,6.029,19.73C255.703,453.975,252.346,457.332,248.203,457.332z"/>
<path style="fill:#F2937E;" d="M388.163,5.155c17.705,17.488,29.939,41.455,30.285,73.331c0.249,22.952-18.274,42.65-41.228,42.68
	c-22.829,0.03-41.345-18.468-41.345-41.29c0-35.448,25.693-36.444,35.332-70.055C373.345,2.365,382.645-0.296,388.163,5.155z"/>
<g>
	<ellipse style="fill:#FFFFFF;" cx="181.411" cy="299.81" rx="25.695" ry="20.462"/>
	<ellipse style="fill:#FFFFFF;" cx="320.691" cy="299.81" rx="25.695" ry="20.462"/>
</g>
<g>
	<path style="fill:#495059;" d="M208.616,285.042c-4.142,0-7.5-3.358-7.5-7.5c0-2.608-2.122-4.73-4.73-4.73s-4.73,2.122-4.73,4.73
		c0,4.142-3.357,7.5-7.5,7.5s-7.5-3.358-7.5-7.5c0-10.879,8.851-19.73,19.73-19.73c10.88,0,19.73,8.851,19.73,19.73
		C216.116,281.685,212.759,285.042,208.616,285.042z"/>
	<path style="fill:#495059;" d="M317.943,285.042c-4.143,0-7.5-3.358-7.5-7.5c0-2.608-2.122-4.73-4.73-4.73s-4.73,2.122-4.73,4.73
		c0,4.142-3.357,7.5-7.5,7.5c-4.142,0-7.5-3.358-7.5-7.5c0-10.879,8.851-19.73,19.73-19.73c10.88,0,19.73,8.851,19.73,19.73
		C325.443,281.685,322.086,285.042,317.943,285.042z"/>
	<path style="fill:#495059;" d="M251.049,305.248c-7.14,0-13.929-3.092-18.627-8.483c-2.722-3.122-2.396-7.86,0.727-10.582
		c3.121-2.721,7.859-2.396,10.582,0.727c1.849,2.121,4.516,3.337,7.318,3.337c2.803,0,5.471-1.216,7.319-3.337
		c2.722-3.123,7.457-3.448,10.582-0.727c3.122,2.721,3.448,7.459,0.727,10.582C264.979,302.156,258.19,305.248,251.049,305.248z"/>
</g>
<path style="opacity:0.2;enable-background:new    ;" d="M372.99,487.706h-33.278c-4.143,0-7.5-3.358-7.5-7.5s3.357-7.5,7.5-7.5
	h33.278c4.143,0,7.5,3.358,7.5,7.5S377.133,487.706,372.99,487.706z"/>
<path style="opacity:0.1;enable-background:new    ;" d="M432.721,434.801h-34.132c-4.143,0-7.5-3.358-7.5-7.5s3.357-7.5,7.5-7.5
	h34.132c4.143,0,7.5,3.358,7.5,7.5S436.863,434.801,432.721,434.801z"/>
<g>
</g>
<g>
</g>
<g>
</g>
<g>
</g>
<g>
</g>
<g>
</g>
<g>
</g>
<g>
</g>
<g>
</g>
<g>
</g>
<g>
</g>
<g>
</g>
<g>
</g>
<g>
</g>
<g>
</g>
</svg>
