<?xml version="1.0" encoding="iso-8859-1"?>
<!-- Generator: Adobe Illustrator 19.0.0, SVG Export Plug-In . SVG Version: 6.00 Build 0)  -->
<svg version="1.1" id="Capa_1" xmlns="http://www.w3.org/2000/svg" xmlns:xlink="http://www.w3.org/1999/xlink" x="0px" y="0px"
	 viewBox="0 0 512 512" style="enable-background:new 0 0 512 512;" xml:space="preserve">
<path style="fill:#FFF0C0;" d="M180.415,229.926c-1.009,0-2.031-0.087-3.059-0.269c-9.519-1.679-15.874-10.755-14.195-20.273
	l0.266-1.511c3.25-18.475,7.701-43.778,20.736-67.732c16.139-29.659,41.335-49.161,74.888-57.963
	c28.226-7.405,51.931-3.327,72.845,0.271c30.425,5.234,52.403,9.016,85.008-18.72c7.362-6.263,18.407-5.371,24.669,1.991
	s5.371,18.406-1.991,24.669c-45.078,38.347-81.494,32.082-113.619,26.554c-19.101-3.286-37.141-6.391-58.03-0.91
	c-24.179,6.343-41.524,19.702-53.025,40.838c-10.299,18.927-14.177,40.971-17.009,57.067l-0.269,1.524
	C196.132,223.952,188.748,229.926,180.415,229.926z"/>
<g style="opacity:0.1;">
	<path d="M338.824,83.624l-21.42,31.881c2.838,0.457,5.685,0.943,8.557,1.437c2.531,0.436,5.09,0.876,7.676,1.298l21.793-32.437
		C350.07,85.377,344.58,84.575,338.824,83.624z"/>
	<path d="M271.706,115.13l0.558-35.671c-4.294,0.646-8.695,1.534-13.214,2.72c-0.618,0.162-1.227,0.335-1.839,0.505l-0.579,37.047
		c3.593-1.416,7.345-2.66,11.299-3.697C269.2,115.7,270.458,115.401,271.706,115.13z"/>
	<path d="M189.597,131.074l26.234,24.187c2.579-4.528,5.426-8.701,8.575-12.497l-25.763-23.752
		C195.413,122.785,192.397,126.807,189.597,131.074z"/>
</g>
<path style="fill:#495059;" d="M244.581,188.589l-116.35-20.516c-9.73-1.716-19.008,4.781-20.724,14.511l-9.737,55.223
	l151.584,26.728l9.737-55.223C260.808,199.583,254.311,190.304,244.581,188.589z"/>
<path style="opacity:0.1;enable-background:new    ;" d="M244.581,188.589l-116.35-20.516c-9.73-1.716-19.008,4.781-20.724,14.511
	l-9.737,55.223l151.584,26.728l9.737-55.223C260.808,199.583,254.311,190.304,244.581,188.589z"/>
<path style="fill:#495059;" d="M307.506,383.937c-14.571,82.637-94.708,137.58-178.992,122.718
	C44.231,491.793-12.282,412.756,2.289,330.119s89.113-132.567,177.966-116.9C269.107,228.886,322.077,301.3,307.506,383.937z"/>
<g>
	<path style="fill:#F2937E;" d="M454.251,30.213l21.894-11.255c4.969-2.555,10.601,2.025,9.114,7.41l-5.142,18.624
		c-0.613,2.221,0.755,4.504,3.003,5.009l23.872,5.368c5.938,1.335,6.85,9.418,1.359,12.043L487.122,77.56
		c-2.479,1.185-3.074,4.449-1.171,6.432l12.776,13.319c4.299,4.482,0.354,11.848-5.76,10.752l-20.279-3.635
		c-2.616-0.469-4.963,1.676-4.73,4.324l1.778,20.215c0.515,5.859-6.47,9.264-10.767,5.247l-19.887-18.587
		c-1.384-1.294-3.483-1.45-5.043-0.375l-25.766,17.755c-4.686,3.229-10.943-0.791-9.954-6.394l4.105-23.282
		c0.399-2.262-1.169-4.4-3.446-4.7l-27.929-3.676c-6.228-0.82-7.686-9.176-2.105-12.057l24.874-12.838
		c2.152-1.111,2.847-3.854,1.484-5.855L380.711,42.78c-3.194-4.691,0.83-10.914,6.418-9.925l27.5,4.866
		c2.338,0.414,4.526-1.272,4.723-3.638l2.102-25.275c0.5-6.008,8.26-8.069,11.676-3.102l15.953,23.204
		C450.233,30.583,452.446,31.141,454.251,30.213z"/>
	
		<ellipse transform="matrix(0.1736 -0.9848 0.9848 0.1736 -286.475 383.2135)" style="fill:#F2937E;" cx="85.1" cy="362.303" rx="19.934" ry="25.03"/>
	
		<ellipse transform="matrix(-0.1736 0.9848 -0.9848 -0.1736 636.6644 237.5074)" style="fill:#F2937E;" cx="218.681" cy="385.879" rx="19.934" ry="25.03"/>
</g>
<g>
	<path style="fill:#FFFFFF;" d="M93.297,347.356c-0.433,0-0.871-0.038-1.311-0.115c-4.079-0.719-6.803-4.609-6.084-8.689
		l1.866-10.581c0.719-4.08,4.613-6.804,8.688-6.084c4.079,0.719,6.803,4.609,6.084,8.688l-1.866,10.581
		C100.033,344.796,96.868,347.356,93.297,347.356z"/>
	
		<ellipse transform="matrix(0.1736 -0.9848 0.9848 0.1736 -225.8039 448.8897)" style="fill:#FFFFFF;" cx="154.569" cy="358.99" rx="22.583" ry="20.18"/>
	<path style="fill:#FFFFFF;" d="M218.673,369.464c-0.433,0-0.871-0.038-1.311-0.115c-4.079-0.719-6.803-4.609-6.084-8.688
		l1.866-10.581c0.719-4.08,4.612-6.803,8.688-6.084c4.079,0.719,6.803,4.609,6.084,8.689l-1.866,10.581
		C225.409,366.903,222.244,369.464,218.673,369.464z"/>
</g>
<path style="opacity:0.1;enable-background:new    ;" d="M107.726,215.335C53.238,229.249,12.637,271.431,2.289,330.119
	c-14.571,82.637,41.942,161.675,126.225,176.536c51.558,9.091,101.561-7.943,135.956-41.455
	C34.003,514.891,52.244,262.429,107.726,215.335z"/>
<g style="opacity:0.1;">
	<path d="M204.625,305.687c-2.364,0-4.691-1.115-6.15-3.199c-2.376-3.393-1.551-8.07,1.842-10.445l22.665-15.87
		c3.393-2.375,8.07-1.551,10.445,1.842c2.376,3.393,1.551,8.07-1.842,10.445l-22.665,15.87
		C207.612,305.247,206.111,305.687,204.625,305.687z"/>
	<path d="M242.19,312.722c-2.364,0-4.691-1.115-6.15-3.199c-2.376-3.393-1.551-8.069,1.842-10.445l19.307-13.519
		c3.395-2.376,8.07-1.552,10.445,1.842c2.376,3.393,1.552,8.069-1.842,10.445l-19.307,13.519
		C245.177,312.282,243.676,312.722,242.19,312.722z"/>
	<path d="M74.731,454.995c-2.364,0-4.691-1.115-6.15-3.199c-2.376-3.393-1.551-8.069,1.842-10.445l22.39-15.678
		c3.393-2.376,8.07-1.552,10.445,1.842c2.376,3.393,1.551,8.069-1.842,10.445l-22.39,15.678
		C77.718,454.555,76.217,454.995,74.731,454.995z"/>
</g>
<g>
</g>
<g>
</g>
<g>
</g>
<g>
</g>
<g>
</g>
<g>
</g>
<g>
</g>
<g>
</g>
<g>
</g>
<g>
</g>
<g>
</g>
<g>
</g>
<g>
</g>
<g>
</g>
<g>
</g>
</svg>
