<?xml version="1.0" encoding="iso-8859-1"?>
<!-- Generator: Adobe Illustrator 19.0.0, SVG Export Plug-In . SVG Version: 6.00 Build 0)  -->
<svg version="1.1" id="Capa_1" xmlns="http://www.w3.org/2000/svg" xmlns:xlink="http://www.w3.org/1999/xlink" x="0px" y="0px"
	 viewBox="0 0 512 512" style="enable-background:new 0 0 512 512;" xml:space="preserve">
<path style="fill:#F7CF66;" d="M466.067,243.937l-56.59-22.147c-19.894-7.786-29.324-30.552-20.762-50.125l24.355-55.675
	c4.724-10.8-6.26-21.784-17.06-17.06l-55.675,24.355c-19.573,8.562-42.339-0.868-50.125-20.762l-22.147-56.59
	c-4.296-10.977-19.83-10.977-24.126,0l-22.147,56.59c-7.786,19.894-30.552,29.324-50.125,20.762L115.99,98.93
	c-10.8-4.724-21.784,6.26-17.06,17.06l24.355,55.675c8.562,19.573-0.868,42.339-20.762,50.125l-56.59,22.147
	c-10.977,4.296-10.977,19.83,0,24.126l56.59,22.147c19.894,7.786,29.324,30.552,20.762,50.125L98.93,396.01
	c-4.724,10.8,6.26,21.784,17.06,17.06l55.675-24.355c19.573-8.562,42.339,0.868,50.125,20.762l22.147,56.59
	c4.296,10.977,19.83,10.977,24.126,0l22.147-56.59c7.786-19.894,30.552-29.324,50.125-20.762l55.675,24.355
	c10.8,4.724,21.784-6.26,17.06-17.06l-24.355-55.675c-8.562-19.573,0.868-42.339,20.762-50.125l56.59-22.147
	C477.044,263.767,477.044,248.233,466.067,243.937z"/>
<g>
	<path style="opacity:0.2;fill:#C97B00;enable-background:new    ;" d="M466.067,243.937l-29.824-11.672
		c-3.761,7.09-5.901,15.166-5.901,23.735s2.14,16.645,5.901,23.735l29.824-11.672C477.044,263.767,477.044,248.233,466.067,243.937z
		"/>
	<path style="opacity:0.2;fill:#C97B00;enable-background:new    ;" d="M400.227,145.35l12.844-29.36
		c4.724-10.8-6.26-21.784-17.06-17.06l-29.36,12.844C371.596,127.764,384.236,140.404,400.227,145.35z"/>
	<path style="opacity:0.2;fill:#C97B00;enable-background:new    ;" d="M366.65,400.226l29.36,12.844
		c10.8,4.724,21.784-6.26,17.06-17.06l-12.844-29.36C384.236,371.596,371.596,384.236,366.65,400.226z"/>
	<path style="opacity:0.2;fill:#C97B00;enable-background:new    ;" d="M256,430.341c-8.569,0-16.645,2.14-23.735,5.901
		l11.672,29.825c4.296,10.977,19.83,10.977,24.126,0l11.672-29.825C272.645,432.482,264.569,430.341,256,430.341z"/>
	<path style="opacity:0.2;fill:#C97B00;enable-background:new    ;" d="M115.99,98.93c-10.8-4.724-21.784,6.26-17.06,17.06
		l12.844,29.36c15.99-4.946,28.63-17.587,33.576-33.576L115.99,98.93z"/>
	<path style="opacity:0.2;fill:#C97B00;enable-background:new    ;" d="M111.774,366.65L98.93,396.01
		c-4.724,10.8,6.26,21.784,17.06,17.06l29.36-12.844C140.404,384.236,127.764,371.596,111.774,366.65z"/>
	<path style="opacity:0.2;fill:#C97B00;enable-background:new    ;" d="M256,81.658c8.569,0,16.645-2.14,23.735-5.901
		l-11.672-29.824c-4.296-10.977-19.83-10.977-24.126,0l-11.672,29.824C239.355,79.518,247.431,81.658,256,81.658z"/>
	<path style="opacity:0.2;fill:#C97B00;enable-background:new    ;" d="M45.933,268.063l29.824,11.672
		c3.761-7.09,5.901-15.166,5.901-23.735s-2.14-16.645-5.901-23.735l-29.824,11.672C34.956,248.233,34.956,263.767,45.933,268.063z"
		/>
</g>
<circle style="fill:#F6E06A;" cx="256" cy="256" r="119.35"/>
<circle style="fill:#F7CF66;" cx="256" cy="256" r="92.9"/>
<circle style="fill:#F6E06A;" cx="256" cy="30.829" r="30.829"/>
<g>
	<ellipse style="fill:#FFFFFF;" cx="197.6" cy="267.56" rx="21.548" ry="17.16"/>
	<ellipse style="fill:#FFFFFF;" cx="314.4" cy="267.56" rx="21.548" ry="17.16"/>
</g>
<g>
	<path style="fill:#495059;" d="M201.205,254.803c-4.142,0-7.5-3.358-7.5-7.5v-9.249c0-4.142,3.358-7.5,7.5-7.5s7.5,3.358,7.5,7.5
		v9.249C208.705,251.445,205.347,254.803,201.205,254.803z"/>
	<path style="fill:#495059;" d="M256,269.991L256,269.991c-8.622,0-15.611-6.99-15.611-15.611v-11.35
		c0-2.354,1.908-4.262,4.262-4.262h22.7c2.354,0,4.262,1.908,4.262,4.262v11.35C271.611,263.001,264.622,269.991,256,269.991z"/>
	<path style="fill:#495059;" d="M310.796,254.803c-4.142,0-7.5-3.358-7.5-7.5v-9.249c0-4.142,3.358-7.5,7.5-7.5s7.5,3.358,7.5,7.5
		v9.249C318.296,251.445,314.938,254.803,310.796,254.803z"/>
</g>
<path style="opacity:0.2;fill:#C97B00;enable-background:new    ;" d="M241.842,3.446c-9.901,5.13-16.671,15.463-16.671,27.383
	c0,17.027,13.803,30.829,30.829,30.829c7.945,0,15.187-3.007,20.654-7.944C245.461,56.733,234.335,22.131,241.842,3.446z"/>
<circle style="fill:#F6E06A;" cx="96.78" cy="96.78" r="30.829"/>
<path style="opacity:0.2;fill:#C97B00;enable-background:new    ;" d="M82.622,69.397c-9.901,5.13-16.671,15.463-16.671,27.383
	c0,17.027,13.803,30.829,30.829,30.829c7.945,0,15.187-3.007,20.654-7.944C86.241,122.684,75.115,88.082,82.622,69.397z"/>
<circle style="fill:#F6E06A;" cx="30.829" cy="256" r="30.829"/>
<path style="opacity:0.2;fill:#C97B00;enable-background:new    ;" d="M16.671,228.617C6.77,233.746,0,244.079,0,256
	c0,17.027,13.803,30.829,30.829,30.829c7.945,0,15.187-3.007,20.654-7.944C20.29,281.904,9.164,247.302,16.671,228.617z"/>
<circle style="fill:#F6E06A;" cx="96.78" cy="415.22" r="30.829"/>
<path style="opacity:0.2;fill:#C97B00;enable-background:new    ;" d="M82.622,387.836c-9.901,5.13-16.671,15.463-16.671,27.383
	c0,17.027,13.803,30.829,30.829,30.829c7.945,0,15.187-3.007,20.654-7.944C86.241,441.124,75.115,406.521,82.622,387.836z"/>
<circle style="fill:#F6E06A;" cx="256" cy="481.17" r="30.829"/>
<path style="opacity:0.2;fill:#C97B00;enable-background:new    ;" d="M241.842,453.787c-9.901,5.13-16.671,15.463-16.671,27.384
	C225.171,498.197,238.973,512,256,512c7.945,0,15.187-3.007,20.654-7.944C245.461,507.075,234.335,472.472,241.842,453.787z"/>
<circle style="fill:#F6E06A;" cx="415.22" cy="415.22" r="30.829"/>
<path style="opacity:0.2;fill:#C97B00;enable-background:new    ;" d="M401.063,387.836c-9.901,5.129-16.672,15.463-16.672,27.383
	c0,17.027,13.803,30.829,30.829,30.829c7.945,0,15.187-3.007,20.654-7.944C404.681,441.124,393.555,406.521,401.063,387.836z"/>
<circle style="fill:#F6E06A;" cx="481.171" cy="256" r="30.829"/>
<path style="opacity:0.2;fill:#C97B00;enable-background:new    ;" d="M467.013,228.617c-9.901,5.13-16.671,15.463-16.671,27.383
	c0,17.027,13.803,30.829,30.829,30.829c7.945,0,15.187-3.007,20.654-7.944C470.632,281.904,459.507,247.302,467.013,228.617z"/>
<circle style="fill:#F6E06A;" cx="415.22" cy="96.78" r="30.829"/>
<g>
	<path style="opacity:0.2;fill:#C97B00;enable-background:new    ;" d="M401.063,69.397c-9.901,5.13-16.672,15.463-16.672,27.383
		c0,17.027,13.803,30.829,30.829,30.829c7.945,0,15.187-3.007,20.654-7.944C404.681,122.684,393.555,88.082,401.063,69.397z"/>
	<path style="opacity:0.2;fill:#C97B00;enable-background:new    ;" d="M256,348.901c18.227,0,35.226-5.254,49.572-14.323
		c-118.338-3.736-128.615-96.906-113.647-145.845c-17.759,16.921-28.826,40.802-28.826,67.268
		C163.099,307.308,204.692,348.901,256,348.901z"/>
</g>
<g>
</g>
<g>
</g>
<g>
</g>
<g>
</g>
<g>
</g>
<g>
</g>
<g>
</g>
<g>
</g>
<g>
</g>
<g>
</g>
<g>
</g>
<g>
</g>
<g>
</g>
<g>
</g>
<g>
</g>
</svg>
