<?xml version="1.0" encoding="iso-8859-1"?>
<!-- Generator: Adobe Illustrator 19.0.0, SVG Export Plug-In . SVG Version: 6.00 Build 0)  -->
<svg version="1.1" id="Capa_1" xmlns="http://www.w3.org/2000/svg" xmlns:xlink="http://www.w3.org/1999/xlink" x="0px" y="0px"
	 viewBox="0 0 512 512" style="enable-background:new 0 0 512 512;" xml:space="preserve">
<g>
	<path style="fill:#DDAF89;" d="M250.218,411.059c-34.076,0-68.369-16.005-96.564-45.067c-21.625-22.29-37.32-50.338-37.32-66.691
		c0-4.142,3.358-7.5,7.5-7.5s7.5,3.358,7.5,7.5c0,8.93,10.516,32.982,33.086,56.247c14.678,15.13,45.343,40.512,85.798,40.512
		s71.12-25.382,85.798-40.512c22.571-23.265,33.086-47.317,33.086-56.247c0-4.142,3.358-7.5,7.5-7.5s7.5,3.358,7.5,7.5
		c0,16.354-15.695,44.401-37.32,66.691C318.587,395.054,284.294,411.059,250.218,411.059z"/>
	<path style="fill:#DDAF89;" d="M286.675,442.376c-3.928,0-7.23-3.058-7.478-7.033c-1.078-17.248-9.474-24.284-28.979-24.284
		s-27.901,7.036-28.979,24.284c-0.258,4.134-3.82,7.28-7.953,7.017c-4.134-0.258-7.276-3.819-7.018-7.953
		c1.093-17.494,9.605-38.348,43.95-38.348c13.534,0,23.725,3.042,31.154,9.3c7.69,6.478,11.996,16.251,12.795,29.048
		c0.258,4.134-2.883,7.695-7.018,7.953C286.991,442.37,286.833,442.376,286.675,442.376z"/>
</g>
<path style="fill:#A28577;" d="M317.683,71.516l-31.82,10.233c-19.419,6.245-40.307,6.245-59.726,0l-31.82-10.233
	c-21.988-7.071-45.281,6.361-50.174,28.934l-36.418,168.007h296.549L367.856,100.45C362.963,77.877,339.671,64.445,317.683,71.516z"
	/>
<polygon style="fill:#DDAF89;" points="107.725,268.456 404.275,268.456 391.955,211.621 120.045,211.621 "/>
<path style="opacity:0.1;enable-background:new    ;" d="M173.084,70.756c-13.982,3.43-25.643,14.48-28.941,29.694l-36.418,168.006
	h130.93C181.723,225.121,161.054,118.764,173.084,70.756z"/>
<path style="fill:#F6E06A;" d="M256,274.269c-36.663,0-65.383-24.018-65.383-54.678c0-30.661,28.72-54.679,65.383-54.679
	s65.383,24.018,65.383,54.679S292.663,274.269,256,274.269z"/>
<ellipse style="fill:#F7CF66;" cx="256" cy="219.59" rx="36.635" ry="25.931"/>
<path style="fill:#A28577;" d="M425.778,258.502L425.778,258.502c-2.755,6.062-8.8,9.955-15.459,9.955H101.681
	c-6.659,0-12.704-3.892-15.459-9.954l0,0c-11.147-24.524-33.379-42.216-59.78-47.571l0,0c-16.494-3.346-30.498,12.287-25.365,28.316
	l12.641,39.476c8.678,27.099,33.872,45.485,62.326,45.485h359.912c28.454,0,53.648-18.386,62.326-45.485l12.642-39.476
	c5.133-16.028-8.871-31.661-25.366-28.316l0,0C459.156,216.286,436.925,233.977,425.778,258.502z"/>
<path style="opacity:0.1;enable-background:new    ;" d="M203.663,324.206C54.997,317.623,23.848,246.138,17.62,210.913
	c-12.211,2.493-20.723,15.28-16.543,28.333l12.641,39.476c8.678,27.099,33.872,45.485,62.326,45.485h127.619V324.206z"/>
<g>
	<ellipse style="fill:#F2937E;" cx="199.33" cy="140.81" rx="20.909" ry="16.651"/>
	<ellipse style="fill:#F2937E;" cx="312.67" cy="140.81" rx="20.909" ry="16.651"/>
</g>
<g>
	<path style="fill:#495059;" d="M211.518,131.697c-4.142,0-7.5-3.358-7.5-7.5v-7.384c0-4.142,3.358-7.5,7.5-7.5s7.5,3.358,7.5,7.5
		v7.384C219.018,128.339,215.66,131.697,211.518,131.697z"/>
	<path style="fill:#495059;" d="M300.482,131.697c-4.142,0-7.5-3.358-7.5-7.5v-7.384c0-4.142,3.358-7.5,7.5-7.5s7.5,3.358,7.5,7.5
		v7.384C307.982,128.339,304.624,131.697,300.482,131.697z"/>
	<path style="fill:#495059;" d="M256,137.368c-6.663,0-12.998-2.885-17.382-7.915c-2.721-3.123-2.396-7.86,0.727-10.582
		c3.123-2.721,7.86-2.396,10.582,0.727c1.534,1.761,3.748,2.771,6.073,2.771s4.539-1.01,6.073-2.771
		c2.722-3.123,7.459-3.447,10.582-0.727c3.122,2.722,3.448,7.459,0.727,10.582C268.998,134.483,262.663,137.368,256,137.368z"/>
</g>
<g style="opacity:0.1;">
	<path d="M335.45,157.092c-1.919,0-3.839-0.732-5.303-2.197c-2.929-2.929-2.929-7.678,0-10.606l11.019-11.019
		c2.929-2.929,7.678-2.929,10.606,0c2.929,2.929,2.929,7.678,0,10.607l-11.019,11.019C339.289,156.36,337.37,157.092,335.45,157.092
		z"/>
	<path d="M336.227,188.873c-1.919,0-3.839-0.732-5.303-2.197c-2.929-2.929-2.929-7.678,0-10.606l9.959-9.96
		c2.929-2.929,7.678-2.929,10.606,0c2.929,2.929,2.929,7.678,0,10.607l-9.959,9.959
		C340.066,188.141,338.146,188.873,336.227,188.873z"/>
</g>
<path style="opacity:0.1;enable-background:new    ;" d="M47.985,275.002c-1.92,0-3.839-0.732-5.303-2.197l-10.296-10.296
	c-2.929-2.929-2.929-7.678,0-10.607s7.678-2.929,10.606,0l10.296,10.296c2.929,2.929,2.929,7.678,0,10.607
	C51.824,274.27,49.905,275.002,47.985,275.002z"/>
<path style="opacity:0.1;enable-background:new    ;" d="M250.218,324.206h52.155C291.761,323.289,274.842,323.216,250.218,324.206z
	"/>
<g>
</g>
<g>
</g>
<g>
</g>
<g>
</g>
<g>
</g>
<g>
</g>
<g>
</g>
<g>
</g>
<g>
</g>
<g>
</g>
<g>
</g>
<g>
</g>
<g>
</g>
<g>
</g>
<g>
</g>
</svg>
