<?xml version="1.0" encoding="iso-8859-1"?>
<!-- Generator: Adobe Illustrator 19.0.0, SVG Export Plug-In . SVG Version: 6.00 Build 0)  -->
<svg version="1.1" id="Capa_1" xmlns="http://www.w3.org/2000/svg" xmlns:xlink="http://www.w3.org/1999/xlink" x="0px" y="0px"
	 viewBox="0 0 512 512" style="enable-background:new 0 0 512 512;" xml:space="preserve">
<path style="fill:#FFF0C0;" d="M448.662,159.537c-38.571,38.57-110.956,80.857-129.521,62.292
	c-18.565-18.564,23.722-90.95,62.293-129.521s75.783-45.684,94.348-27.119C494.346,83.754,487.232,120.966,448.662,159.537z"/>
<path style="opacity:0.05;enable-background:new    ;" d="M448.662,159.537c-38.571,38.57-110.956,80.857-129.521,62.292
	c-18.565-18.564,23.722-90.95,62.293-129.521s75.783-45.684,94.348-27.119C494.346,83.754,487.232,120.966,448.662,159.537z"/>
<path style="fill:#F2937E;" d="M397.461,143.509h65.511c25.724-32.569,28.782-62.347,12.809-78.32
	c-15.972-15.972-45.751-12.915-78.32,12.809L397.461,143.509L397.461,143.509z"/>
<path style="fill:#A28577;" d="M293.998,254.472c-1.919,0-3.839-0.732-5.304-2.197c-2.929-2.929-2.929-7.678,0-10.606
	l133.142-133.141c2.931-2.929,7.679-2.928,10.608,0c2.929,2.929,2.929,7.678,0,10.606L299.302,252.275
	C297.837,253.739,295.917,254.472,293.998,254.472z"/>
<path style="fill:#FFF0C0;" d="M355.945,85.89c0,54.547-21.283,135.633-47.538,135.633c-26.254,0-47.538-81.086-47.538-135.633
	S282.153,0,308.408,0C334.662,0,355.945,31.343,355.945,85.89z"/>
<path style="fill:#F2937E;" d="M308.408,110.761l46.323-46.323C349.891,23.219,330.996,0,308.408,0s-41.483,23.219-46.323,64.438
	L308.408,110.761z"/>
<g>
	<path style="fill:#A28577;" d="M308.407,264.58c-4.143,0-7.5-3.358-7.5-7.5V68.789c0-4.142,3.357-7.5,7.5-7.5s7.5,3.358,7.5,7.5
		v188.29C315.907,261.222,312.55,264.58,308.407,264.58z"/>
	<path style="fill:#A28577;" d="M376.01,289.53H79.21c-6.221,0-11.265-5.043-11.265-11.265v-51.57
		c0-6.221,5.043-11.265,11.265-11.265h296.8c6.221,0,11.265,5.043,11.265,11.265v51.57
		C387.275,284.487,382.232,289.53,376.01,289.53z"/>
</g>
<g>
	<ellipse style="fill:#F2937E;" cx="168.59" cy="264.68" rx="21.777" ry="17.342"/>
	<ellipse style="fill:#F2937E;" cx="286.63" cy="264.68" rx="21.777" ry="17.342"/>
</g>
<g>
	<path style="fill:#495059;" d="M181.282,254.88c-4.143,0-7.5-3.358-7.5-7.5v-7.69c0-4.142,3.357-7.5,7.5-7.5s7.5,3.358,7.5,7.5
		v7.69C188.782,251.523,185.425,254.88,181.282,254.88z"/>
	<path style="fill:#495059;" d="M273.938,254.88c-4.143,0-7.5-3.358-7.5-7.5v-7.69c0-4.142,3.357-7.5,7.5-7.5s7.5,3.358,7.5,7.5
		v7.69C281.438,251.523,278.081,254.88,273.938,254.88z"/>
	<path style="fill:#495059;" d="M227.61,260.786c-6.85,0-13.362-2.966-17.868-8.137c-2.722-3.123-2.395-7.861,0.728-10.582
		c3.122-2.72,7.86-2.396,10.581,0.727c1.657,1.901,4.048,2.992,6.56,2.992s4.903-1.091,6.561-2.993
		c2.721-3.123,7.458-3.448,10.581-0.726c3.123,2.722,3.447,7.46,0.726,10.582C240.972,257.82,234.459,260.786,227.61,260.786z"/>
</g>
<path style="fill:#F2937E;" d="M67.946,250.981h64.748c4.143,0,7.5,3.358,7.5,7.5c0,4.142-3.357,7.5-7.5,7.5H67.946V250.981z"/>
<path style="opacity:0.1;enable-background:new    ;" d="M67.946,226.695v51.57c0,6.221,5.043,11.265,11.265,11.265h61.396
	c-25.871-16.45-37.91-50.068-40.022-74.099H79.211C72.989,215.431,67.946,220.474,67.946,226.695z"/>
<path style="fill:#F2937E;" d="M387.275,265.981h-64.748c-4.142,0-7.5-3.358-7.5-7.5s3.358-7.5,7.5-7.5h64.748L387.275,265.981
	L387.275,265.981z"/>
<path style="fill:#FFF0C0;" d="M67.946,512c16.343,0,29.298-19.015,25.795-61.298c-4.3-51.911-14.157-68.631-25.795-68.631
	s-21.495,16.721-25.795,68.631C38.649,492.985,51.603,512,67.946,512z"/>
<path style="opacity:0.05;enable-background:new    ;" d="M89.119,495.365c-38.118,16.465-32.157-80.653-28.6-110.63
	c-8.303,6.47-15.02,25.55-18.368,65.967C38.649,492.985,51.603,512,67.947,512C76.602,512,84.306,506.664,89.119,495.365z"/>
<path style="fill:#A28577;" d="M79.807,341.997H56.086c-3.691,0-6.683,2.992-6.683,6.683v43.982c0,3.691,2.992,6.683,6.683,6.683
	h23.721c3.691,0,6.683-2.992,6.683-6.683V348.68C86.489,344.989,83.497,341.997,79.807,341.997z"/>
<circle style="fill:#F7CF66;" cx="67.946" cy="321.78" r="41.536"/>
<circle style="fill:#F6E06A;" cx="67.946" cy="321.78" r="16.616"/>
<path style="fill:#FFF0C0;" d="M387.275,512c-16.343,0-29.298-19.015-25.795-61.298c4.3-51.911,14.157-68.631,25.795-68.631
	s21.495,16.721,25.795,68.631C416.572,492.985,403.618,512,387.275,512z"/>
<path style="opacity:0.05;enable-background:new    ;" d="M408.447,495.365c-38.118,16.465-32.157-80.653-28.6-110.63
	c-8.303,6.47-15.02,25.55-18.368,65.967C357.977,492.985,370.931,512,387.275,512C395.93,512,403.634,506.664,408.447,495.365z"/>
<path style="fill:#A28577;" d="M375.414,341.997h23.721c3.691,0,6.683,2.992,6.683,6.683v43.982c0,3.691-2.992,6.683-6.683,6.683
	h-23.721c-3.691,0-6.683-2.992-6.683-6.683V348.68C368.732,344.989,371.724,341.997,375.414,341.997z"/>
<circle style="fill:#F7CF66;" cx="387.27" cy="321.78" r="41.536"/>
<circle style="fill:#F6E06A;" cx="387.27" cy="321.78" r="16.616"/>
<g>
	<path style="opacity:0.2;fill:#C97B00;enable-background:new    ;" d="M67.946,363.317c11.085,0,21.148-4.351,28.597-11.428
		c-41.855-2.771-50.007-45.971-40.427-69.924c-17.174,5.096-29.706,20.989-29.706,39.816
		C26.41,344.72,45.006,363.317,67.946,363.317z"/>
	<path style="opacity:0.2;fill:#C97B00;enable-background:new    ;" d="M387.275,363.317c11.085,0,21.148-4.351,28.597-11.428
		c-41.855-2.771-50.007-45.971-40.427-69.924c-17.174,5.096-29.706,20.989-29.706,39.816
		C345.739,344.72,364.335,363.317,387.275,363.317z"/>
</g>
<g>
</g>
<g>
</g>
<g>
</g>
<g>
</g>
<g>
</g>
<g>
</g>
<g>
</g>
<g>
</g>
<g>
</g>
<g>
</g>
<g>
</g>
<g>
</g>
<g>
</g>
<g>
</g>
<g>
</g>
</svg>
