<?xml version="1.0" encoding="iso-8859-1"?>
<!-- Generator: Adobe Illustrator 19.0.0, SVG Export Plug-In . SVG Version: 6.00 Build 0)  -->
<svg version="1.1" id="Capa_1" xmlns="http://www.w3.org/2000/svg" xmlns:xlink="http://www.w3.org/1999/xlink" x="0px" y="0px"
	 viewBox="0 0 512 512" style="enable-background:new 0 0 512 512;" xml:space="preserve">
<g>
	<path style="fill:#DFE3E5;" d="M200.295,351.73h-69.988c-4.142,0-7.5-3.358-7.5-7.5s3.357-7.5,7.5-7.5h69.988
		c21.506,0,39.67-16.1,42.252-37.45l10.405-86.04c0.497-4.112,4.234-7.045,8.346-6.546c4.112,0.498,7.043,4.234,6.545,8.346
		l-10.405,86.041C253.946,329.956,229.38,351.73,200.295,351.73z"/>
	<path style="fill:#DFE3E5;" d="M211.002,315.522c-1.418,0-2.851-0.401-4.123-1.24l-11.568-7.63
		c-9.491-6.26-15.158-16.786-15.158-28.156V243.42c0-4.142,3.357-7.5,7.5-7.5s7.5,3.358,7.5,7.5v35.076
		c0,6.313,3.146,12.158,8.418,15.634l11.568,7.63c3.457,2.281,4.411,6.933,2.131,10.39
		C215.828,314.337,213.439,315.522,211.002,315.522z"/>
	<path style="fill:#DFE3E5;" d="M496.725,225.102H226.854v-93.581h269.871c8.436,0,15.275,6.839,15.275,15.275v63.031
		C512,218.263,505.161,225.102,496.725,225.102z"/>
</g>
<path style="opacity:0.05;enable-background:new    ;" d="M226.854,225.102h155.419c-48.38-18.344-69.923-73.308-74.671-93.581
	h-80.748L226.854,225.102L226.854,225.102z"/>
<path style="fill:#DFE3E5;" d="M142.231,294.449H23.553l9.267-52.197c5.467-30.795,22.952-58.153,48.602-76.049l46.403-32.374
	l81.634,48.706l-50.801,60.961c-9.335,11.202-14.849,25.093-15.737,39.648L142.231,294.449z"/>
<path style="fill:#A28577;" d="M109.402,412.394h-72.4C16.566,412.394,0,395.828,0,375.392v-19.226
	c0-20.276,2.513-40.473,7.482-60.13l7.524-29.767c4.071-16.108,18.563-27.392,35.177-27.392h96.269
	c11.303,0,19.568,10.665,16.746,21.611l-11.742,45.549c-3.355,13.014-5.052,26.399-5.052,39.838v29.517
	C146.404,395.828,129.838,412.394,109.402,412.394z"/>
<path style="fill:#DDAF89;" d="M42.588,380.394c-5.847,0-10.588-4.74-10.588-10.588v-12.945c0-18.095,2.243-36.12,6.678-53.663
	l5.615-22.213c1.503-5.944,6.851-10.109,12.982-10.109h55.141c7.627,0,13.203,7.197,11.299,14.582l-3.243,12.58
	c-4.029,15.626-6.067,31.699-6.067,47.837v20.409c0,7.792-6.317,14.109-14.109,14.109H42.588V380.394z"/>
<path style="fill:#BEBFC0;" d="M270.382,116.894H162.066c-35.112,0-63.576,28.464-63.576,63.576v24.151
	c0,35.112,28.464,63.576,63.576,63.576h108.316c12.057,0,21.832-9.775,21.832-21.832V138.727
	C292.214,126.669,282.439,116.894,270.382,116.894z"/>
<path style="opacity:0.1;enable-background:new    ;" d="M183.618,225.11h67.01c5.395,0,9.769-4.374,9.769-9.769v-39.672
	c0-5.395-4.374-9.769-9.769-9.769h-89.171c-5.395,0-9.769,4.374-9.769,9.769v3.919c-8.186-21.64-8.784-43.392-6.112-60.521
	c-27.115,7.264-47.086,31.996-47.086,61.403v24.151c0,35.112,28.464,63.576,63.576,63.576h108.316c3.664,0,7.114-0.907,10.145-2.501
	C235.54,258.371,204.546,243.415,183.618,225.11z"/>
<path style="fill:#BEBFC0;" d="M479.342,99.823l-16.575,3.493c-17.561,3.701-33.143,13.742-43.768,28.206l0,0h72.3v-21.999
	C491.3,103.225,485.504,98.524,479.342,99.823z"/>
<path style="fill:#DFE3E5;" d="M250.628,214.139h-89.171c-5.395,0-9.769-4.374-9.769-9.769v-39.671c0-5.395,4.374-9.769,9.769-9.769
	h89.171c5.395,0,9.769,4.374,9.769,9.769v39.671C260.397,209.766,256.023,214.139,250.628,214.139z"/>
<path style="opacity:0.1;enable-background:new    ;" d="M37.002,412.394h72.4c5.088,0,9.936-1.028,14.348-2.886
	c-82.118-26.929-84.259-124.203-79.487-170.143c-14.047,2.316-25.678,12.745-29.257,26.905l-7.524,29.767
	C2.513,315.693,0,335.891,0,356.166v19.226C0,395.828,16.566,412.394,37.002,412.394z"/>
<path style="opacity:0.1;enable-background:new    ;" d="M230.695,192.035H181.39c-4.143,0-7.5-3.358-7.5-7.5s3.357-7.5,7.5-7.5
	h49.306c4.143,0,7.5,3.358,7.5,7.5S234.838,192.035,230.695,192.035z"/>
<g>
</g>
<g>
</g>
<g>
</g>
<g>
</g>
<g>
</g>
<g>
</g>
<g>
</g>
<g>
</g>
<g>
</g>
<g>
</g>
<g>
</g>
<g>
</g>
<g>
</g>
<g>
</g>
<g>
</g>
</svg>
