<?xml version="1.0" encoding="iso-8859-1"?>
<!-- Generator: Adobe Illustrator 19.0.0, SVG Export Plug-In . SVG Version: 6.00 Build 0)  -->
<svg version="1.1" id="Capa_1" xmlns="http://www.w3.org/2000/svg" xmlns:xlink="http://www.w3.org/1999/xlink" x="0px" y="0px"
	 viewBox="0 0 512.001 512.001" style="enable-background:new 0 0 512.001 512.001;" xml:space="preserve">
<rect x="156.209" y="82.427" transform="matrix(-0.7071 0.7071 -0.7071 -0.7071 444.4373 184.0799)" style="fill:#DDAF89;" width="55.77" height="203.318"/>
<path style="opacity:0.1;enable-background:new    ;" d="M153.423,144.985c-10.754-9.15-27.865-19.33-46.355-27.636l-11.44,11.44
	c18.619,7.89,37.283,18.438,48.074,27.62c18.081,15.385,24.335,34.604,24.964,51.692l14.423,14.423
	c1.013-8.705,0.827-17.632-0.628-26.335C179.081,175.979,169.038,158.273,153.423,144.985z M210.066,170.63l-17.848-17.848
	c1.21,13.141,4.14,30.907,11.605,48.773c10.85,25.966,27.946,44.568,50.993,55.588l11.419-11.419
	C236.745,233.577,217.717,208.123,210.066,170.63z"/>
<path style="fill:#DFE3E5;" d="M351.605,225.266L225.267,351.605c-16.503,16.503-16.503,43.26,0,59.763l57.005,57.005
	c34.959,34.959,84.985,50.292,133.529,40.929l47.756-9.212c18.499-3.568,32.965-18.035,36.534-36.534l9.212-47.757
	c9.364-48.544-5.97-98.571-40.929-133.529l-57.005-57.005C394.865,208.762,368.108,208.762,351.605,225.266z"/>
<path style="opacity:0.05;enable-background:new    ;" d="M361.176,268.124l-93.052,93.052c-12.155,12.155-12.155,31.862,0,44.017
	l41.986,41.985c25.748,25.748,62.594,37.042,98.347,30.145l35.174-6.785c13.625-2.628,24.28-13.283,26.908-26.908l6.785-35.174
	c6.897-35.754-4.397-72.6-30.145-98.347l-41.986-41.986C393.038,255.969,373.331,255.969,361.176,268.124z"/>
<path style="fill:#BEBFC0;" d="M264.827,229.646l-35.181,35.181c-6.047,6.047-6.047,15.852,0,21.899l48.132,48.132
	c8.628,8.628,21.293,11.83,32.985,8.338l0,0c15.586-4.654,27.779-16.847,32.434-32.434l0,0c3.491-11.692,0.29-24.357-8.338-32.985
	l-48.132-48.132C280.678,223.598,270.874,223.598,264.827,229.646z"/>
<path style="fill:#A28577;" d="M140.6,91.965l-48.633,48.633c-16.958,16.958-44.55,16.958-61.508,0l-17.74-17.738
	c-16.958-16.958-16.958-44.55,0-61.508l48.633-48.633c16.957-16.957,44.55-16.957,61.507,0l17.739,17.739
	C157.557,47.416,157.557,75.008,140.6,91.965z M40.248,88.88c-1.778,1.778-1.778,4.673,0,6.451l17.739,17.739
	c1.779,1.778,4.673,1.778,6.451,0l48.633-48.633c1.778-1.778,1.778-4.672,0-6.451L95.331,40.247c-1.779-1.778-4.672-1.779-6.451,0
	L40.248,88.88z"/>
<path style="opacity:0.1;enable-background:new    ;" d="M30.458,140.599c13.605,13.605,34.051,16.284,50.363,8.059
	c-56.496-25.72-61.097-69.587-55.917-99.491L12.719,61.352c-16.958,16.958-16.958,44.55,0,61.508L30.458,140.599z"/>
<g>
	
		<ellipse transform="matrix(-0.7071 -0.7071 0.7071 -0.7071 262.0959 998.4724)" style="fill:#F2937E;" cx="337.838" cy="444.954" rx="22.256" ry="27.947"/>
	
		<ellipse transform="matrix(0.7071 0.7071 -0.7071 0.7071 369.2186 -215.6838)" style="fill:#F2937E;" cx="444.963" cy="337.844" rx="22.256" ry="27.947"/>
</g>
<g>
	<path style="fill:#495059;" d="M333.659,425.24c-1.919,0-3.839-0.732-5.304-2.197l-6.979-6.979c-2.929-2.929-2.929-7.678,0-10.606
		c2.93-2.929,7.678-2.929,10.607,0l6.979,6.978c2.929,2.929,2.929,7.678,0,10.607C337.498,424.508,335.578,425.24,333.659,425.24z"
		/>
	<path style="fill:#495059;" d="M417.74,341.16c-1.919,0-3.839-0.733-5.304-2.197l-6.979-6.978c-2.929-2.929-2.929-7.678,0-10.607
		c2.93-2.929,7.678-2.929,10.607,0l6.978,6.978c2.929,2.929,2.929,7.678,0,10.607C421.579,340.427,419.659,341.16,417.74,341.16z"/>
	<path style="fill:#495059;" d="M366.358,394.642c-0.647,0-1.295-0.022-1.945-0.066c-4.132-0.284-7.252-3.863-6.969-7.996
		c0.283-4.133,3.86-7.258,7.996-6.969c3.839,0.262,7.603-1.142,10.315-3.855c2.714-2.714,4.119-6.474,3.855-10.316
		c-0.284-4.132,2.836-7.712,6.969-7.996c4.13-0.271,7.713,2.836,7.996,6.969c0.56,8.168-2.433,16.169-8.213,21.95
		C381.042,391.683,373.84,394.642,366.358,394.642z"/>
</g>
<path style="opacity:0.05;enable-background:new    ;" d="M500.09,463.556l5.966-30.93
	c-147.808,75.897-225.468-37.672-271.593-90.22l-9.198,9.198c-16.503,16.503-16.503,43.26,0,59.764l57.005,57.005
	c34.958,34.958,84.985,50.292,133.529,40.929l47.757-9.212C482.056,496.522,496.522,482.055,500.09,463.556z"/>
<g>
</g>
<g>
</g>
<g>
</g>
<g>
</g>
<g>
</g>
<g>
</g>
<g>
</g>
<g>
</g>
<g>
</g>
<g>
</g>
<g>
</g>
<g>
</g>
<g>
</g>
<g>
</g>
<g>
</g>
</svg>
