<?xml version="1.0" encoding="iso-8859-1"?>
<!-- Generator: Adobe Illustrator 19.0.0, SVG Export Plug-In . SVG Version: 6.00 Build 0)  -->
<svg version="1.1" id="Capa_1" xmlns="http://www.w3.org/2000/svg" xmlns:xlink="http://www.w3.org/1999/xlink" x="0px" y="0px"
	 viewBox="0 0 512 512" style="enable-background:new 0 0 512 512;" xml:space="preserve">
<path style="fill:#F7CF66;" d="M369.367,371.04H184.353c-10.894,0-17.826-11.649-12.63-21.224l37.794-69.646
	c5.15-9.49,15.081-15.4,25.878-15.4h191.64L369.367,371.04z"/>
<path style="opacity:0.2;fill:#C97B00;enable-background:new    ;" d="M369.367,371.04H184.353
	c-10.894,0-17.826-11.649-12.63-21.224l37.794-69.646c5.15-9.49,15.081-15.4,25.878-15.4h191.64L369.367,371.04z"/>
<path style="fill:#F6E06A;" d="M510.24,349.816l-37.794-69.646c-5.15-9.49-15.081-15.4-25.878-15.4h-39.066
	c-10.797,0-20.728,5.91-25.878,15.4l-37.794,69.646c-5.196,9.575,1.736,21.224,12.63,21.224h141.15
	C508.504,371.04,515.436,359.391,510.24,349.816z"/>
<path style="fill:#F7CF66;" d="M199.404,370.992H14.39c-10.894,0-17.826-11.649-12.63-21.224l37.794-69.646
	c5.15-9.49,15.081-15.4,25.878-15.4h191.64L199.404,370.992z"/>
<path style="opacity:0.2;fill:#FFFFFF;enable-background:new    ;" d="M147.953,264.722c-0.551,3.155-0.855,6.394-0.855,9.707
	c0,30.948,25.088,56.035,56.036,56.035c7.176,0,14.03-1.364,20.337-3.822l33.601-61.92H147.953z"/>
<path style="fill:#F6E06A;" d="M340.277,349.767l-37.794-69.646c-5.15-9.49-15.081-15.4-25.878-15.4h-39.066
	c-10.797,0-20.728,5.91-25.878,15.4l-37.794,69.646c-5.196,9.575,1.736,21.224,12.63,21.224h141.149
	C338.541,370.992,345.473,359.343,340.277,349.767z"/>
<path id="SVGCleanerId_0" style="fill:#F7CF66;" d="M284.369,264.771H99.355c-10.894,0-17.826-11.649-12.63-21.224l37.794-69.646
	c5.15-9.49,15.081-15.4,25.878-15.4h191.64L284.369,264.771z"/>
<g>
	<path id="SVGCleanerId_0_1_" style="fill:#F7CF66;" d="M284.369,264.771H99.355c-10.894,0-17.826-11.649-12.63-21.224
		l37.794-69.646c5.15-9.49,15.081-15.4,25.878-15.4h191.64L284.369,264.771z"/>
</g>
<path style="opacity:0.2;fill:#FFFFFF;enable-background:new    ;" d="M232.918,158.501c-0.551,3.155-0.855,6.394-0.855,9.707
	c0,30.948,25.088,56.036,56.036,56.036c7.176,0,14.03-1.364,20.337-3.822l33.602-61.92L232.918,158.501L232.918,158.501z"/>
<path style="fill:#F6E06A;" d="M425.242,243.547l-37.794-69.646c-5.15-9.49-15.081-15.4-25.878-15.4h-39.066
	c-10.797,0-20.728,5.91-25.878,15.4l-37.794,69.646c-5.196,9.575,1.736,21.224,12.63,21.224h141.149
	C423.506,264.771,430.438,253.122,425.242,243.547z"/>
<g>
	<path style="opacity:0.2;fill:#C97B00;enable-background:new    ;" d="M45.442,272.559c-2.327,2.152-4.329,4.69-5.888,7.563
		L1.76,349.767c-5.196,9.575,1.736,21.224,12.63,21.224h86.236C57.738,351.855,42.076,299.245,45.442,272.559z"/>
	<path style="opacity:0.2;fill:#C97B00;enable-background:new    ;" d="M130.407,166.338c-2.327,2.152-4.329,4.69-5.888,7.563
		l-37.794,69.646c-5.196,9.575,1.736,21.224,12.63,21.224h86.236C142.703,245.635,127.041,193.024,130.407,166.338z"/>
</g>
<path style="fill:#F7CF66;" d="M405.837,208.242L405.837,208.242c-3.691,7.651-14.588,7.651-18.279,0l0,0
	c-4.272-8.856-11.349-16.054-20.131-20.476l-2.448-1.232c-7.445-3.749-7.445-14.378,0-18.127l2.448-1.232
	c8.782-4.422,15.859-11.62,20.131-20.476l0,0c3.691-7.652,14.588-7.652,18.279,0l0,0c4.272,8.856,11.349,16.054,20.131,20.476
	l2.448,1.232c7.445,3.749,7.445,14.378,0,18.127l-2.448,1.232C417.186,192.188,410.109,199.386,405.837,208.242z"/>
<path style="fill:#FFFFFF;" d="M248.527,295.494L248.527,295.494c-3.691,7.651-14.588,7.651-18.279,0l0,0
	c-4.272-8.856-11.349-16.054-20.131-20.476l-2.448-1.232c-7.445-3.749-7.445-14.378,0-18.127l2.448-1.232
	c8.782-4.422,15.859-11.62,20.131-20.476l0,0c3.691-7.651,14.588-7.651,18.279,0l0,0c4.272,8.856,11.349,16.054,20.131,20.476
	l2.448,1.232c7.445,3.749,7.445,14.378,0,18.127l-2.448,1.232C259.876,279.44,252.799,286.638,248.527,295.494z"/>
<g>
</g>
<g>
</g>
<g>
</g>
<g>
</g>
<g>
</g>
<g>
</g>
<g>
</g>
<g>
</g>
<g>
</g>
<g>
</g>
<g>
</g>
<g>
</g>
<g>
</g>
<g>
</g>
<g>
</g>
</svg>
